<?xml version="1.0" encoding="ISO-8859-1" standalone="no"?>
<!DOCTYPE svg PUBLIC "-//W3C//DTD SVG 1.1//EN" "http://www.w3.org/Graphics/SVG/1.1/DTD/svg11.dtd">
<svg version="1.1" baseProfile="full" id="body" width="8in" height="8in" viewBox="0 0 1 1" preserveAspectRatio="none" xmlns="http://www.w3.org/2000/svg" xmlns:xlink="http://www.w3.org/1999/xlink" xmlns:ev="http://www.w3.org/2001/xml-events">
<title>SVG drawing</title>
<desc>This was produced by version 4.2 of GNU libplot, a free library for exporting 2-D vector graphics.</desc>
<rect id="background" x="0" y="0" width="1" height="1" stroke="none" fill="white"/>
<g id="content" transform="translate(-0.03125,1.1875) scale(1,-1) scale(0.0017361) " xml:space="preserve" stroke="black" stroke-linecap="butt" stroke-linejoin="miter" stroke-miterlimit="10.433" stroke-dasharray="none" stroke-dashoffset="0" stroke-opacity="1" fill="none" fill-rule="even-odd" fill-opacity="1" font-style="normal" font-variant="normal" font-weight="normal" font-stretch="normal" font-size-adjust="none" letter-spacing="normal" word-spacing="normal" text-anchor="start">
<polyline points="117.36,124.68 117.6,124.68 117.84,124.68 118.08,124.68 118.32,124.68 118.56,124.8 118.8,124.8 119.04,124.92 119.28,124.92 119.52,125.04 119.64,125.16 119.88,125.28 120.12,125.4 120.36,125.52 120.48,125.64 120.72,125.76 120.96,125.88 121.08,126 121.32,126.24 121.44,126.36 121.56,126.6 121.8,126.72 121.92,126.96 122.04,127.08 122.16,127.32 122.28,127.56 122.4,127.8 122.52,127.92 122.64,128.16 122.64,128.4 122.76,128.64 122.88,128.88 122.88,129.12 123,129.36 123,129.6 123,129.84 123,130.08 123,130.32 123,130.32 " stroke-width="1.44" stroke-linecap="round" stroke-linejoin="round" />
<polyline points="80.52,130.32 80.52,130.08 80.52,129.84 80.52,129.6 80.52,129.36 80.641,129.12 80.641,128.88 80.762,128.64 80.879,128.4 80.879,128.16 81,128.04 81.121,127.8 81.238,127.56 81.359,127.32 81.48,127.2 81.602,126.96 81.719,126.72 81.961,126.6 82.078,126.36 82.199,126.24 82.441,126.12 82.559,125.88 82.801,125.76 83.039,125.64 83.16,125.52 83.398,125.4 83.641,125.28 83.762,125.16 84,125.04 84.238,124.92 84.48,124.92 84.719,124.8 84.961,124.8 85.199,124.68 85.441,124.68 85.68,124.68 85.922,124.68 86.16,124.68 86.16,124.68 " stroke-width="1.44" stroke-linecap="round" stroke-linejoin="round" />
<polyline points="86.16,175.68 85.922,175.68 85.68,175.68 85.441,175.68 85.199,175.56 84.961,175.56 84.719,175.44 84.48,175.44 84.238,175.32 84.121,175.32 83.879,175.2 83.641,175.08 83.398,174.96 83.16,174.84 83.039,174.72 82.801,174.6 82.559,174.48 82.441,174.24 82.199,174.12 82.078,173.88 81.961,173.76 81.719,173.52 81.602,173.4 81.48,173.16 81.359,173.04 81.238,172.8 81.121,172.56 81,172.32 80.879,172.08 80.879,171.96 80.762,171.72 80.641,171.48 80.641,171.24 80.641,171 80.52,170.76 80.52,170.52 80.52,170.28 80.52,170.04 80.52,170.04 " stroke-width="1.44" stroke-linecap="round" stroke-linejoin="round" />
<polyline points="123,170.04 123,170.28 123,170.52 123,170.76 123,171 122.88,171.24 122.88,171.48 122.76,171.72 122.76,171.84 122.64,172.08 122.52,172.32 122.4,172.56 122.28,172.8 122.16,172.92 122.04,173.16 121.92,173.4 121.8,173.52 121.68,173.76 121.44,173.88 121.32,174.12 121.08,174.24 120.96,174.36 120.72,174.6 120.6,174.72 120.36,174.84 120.12,174.96 119.88,175.08 119.76,175.2 119.52,175.32 119.28,175.32 119.04,175.44 118.8,175.44 118.56,175.56 118.32,175.56 118.08,175.68 117.84,175.68 117.6,175.68 117.36,175.68 117.36,175.68 " stroke-width="1.44" stroke-linecap="round" stroke-linejoin="round" />
<line x1="123" y1="170.04" x2="123" y2="130.32" stroke-width="1.44" stroke-linecap="round" />
<line x1="80.52" y1="130.32" x2="80.52" y2="170.04" stroke-width="1.44" stroke-linecap="round" />
<line x1="86.16" y1="175.68" x2="117.36" y2="175.68" stroke-width="1.44" stroke-linecap="round" />
<line x1="117.36" y1="124.68" x2="86.16" y2="124.68" stroke-width="1.44" stroke-linecap="round" />
<polygon points="112.8,168.36 112.56,168.36 112.32,168.36 112.08,168.36 111.84,168.24 111.6,168.24 111.36,168.12 111.24,168 111,167.88 110.76,167.76 110.52,167.64 110.4,167.52 110.16,167.4 110.04,167.28 109.8,167.04 109.68,166.92 109.56,166.68 109.44,166.44 109.32,166.32 109.2,166.08 109.08,165.84 108.96,165.6 108.96,165.36 108.84,165.12 108.84,164.88 108.84,164.64 108.84,164.4 108.84,164.16 108.84,163.92 108.84,163.68 108.84,163.44 108.96,163.2 108.96,163.08 109.08,162.84 109.2,162.6 109.32,162.36 109.44,162.12 109.56,162 109.68,161.76 109.8,161.64 110.04,161.4 110.16,161.28 110.4,161.16 110.64,160.92 110.76,160.8 111,160.68 111.24,160.68 111.48,160.56 111.72,160.44 111.96,160.44 112.08,160.32 112.32,160.32 112.56,160.32 112.8,160.32 113.04,160.32 113.28,160.32 113.52,160.32 113.76,160.44 114,160.44 114.24,160.56 114.48,160.68 114.72,160.8 114.96,160.92 115.08,161.04 115.32,161.16 115.44,161.28 115.68,161.52 115.8,161.64 116.04,161.88 116.16,162 116.28,162.24 116.4,162.48 116.52,162.6 116.64,162.84 116.64,163.08 116.76,163.32 116.76,163.56 116.88,163.8 116.88,164.04 116.88,164.28 116.88,164.52 116.88,164.76 116.76,165 116.76,165.24 116.76,165.48 116.64,165.72 116.52,165.96 116.4,166.08 116.28,166.32 116.16,166.56 116.04,166.68 115.92,166.92 115.8,167.16 115.56,167.28 115.44,167.4 115.2,167.64 115.08,167.76 114.84,167.88 114.6,168 114.36,168 114.12,168.12 114,168.24 113.76,168.24 113.52,168.36 113.28,168.36 113.04,168.36 " stroke-width="1.44" stroke-linejoin="round" />
<polygon points="112.8,145.68 112.56,145.68 112.32,145.68 112.08,145.68 111.84,145.56 111.6,145.56 111.36,145.44 111.24,145.32 111,145.2 110.76,145.08 110.52,144.96 110.4,144.84 110.16,144.72 110.04,144.6 109.8,144.36 109.68,144.24 109.56,144 109.44,143.76 109.32,143.64 109.2,143.4 109.08,143.16 108.96,142.92 108.96,142.68 108.84,142.44 108.84,142.2 108.84,141.96 108.84,141.72 108.84,141.48 108.84,141.24 108.84,141 108.84,140.76 108.96,140.52 108.96,140.28 109.08,140.16 109.2,139.92 109.32,139.68 109.44,139.44 109.56,139.32 109.68,139.08 109.8,138.96 110.04,138.72 110.16,138.6 110.4,138.48 110.64,138.24 110.76,138.12 111,138 111.24,138 111.48,137.88 111.72,137.76 111.96,137.76 112.08,137.64 112.32,137.64 112.56,137.64 112.8,137.64 113.04,137.64 113.28,137.64 113.52,137.64 113.76,137.76 114,137.76 114.24,137.88 114.48,138 114.72,138.12 114.96,138.24 115.08,138.36 115.32,138.48 115.44,138.6 115.68,138.84 115.8,138.96 116.04,139.08 116.16,139.32 116.28,139.56 116.4,139.8 116.52,139.92 116.64,140.16 116.64,140.4 116.76,140.64 116.76,140.88 116.88,141.12 116.88,141.36 116.88,141.6 116.88,141.84 116.88,142.08 116.76,142.32 116.76,142.56 116.76,142.8 116.64,143.04 116.52,143.28 116.4,143.4 116.28,143.64 116.16,143.88 116.04,144 115.92,144.24 115.8,144.48 115.56,144.6 115.44,144.72 115.2,144.84 115.08,145.08 114.84,145.2 114.6,145.32 114.36,145.32 114.12,145.44 114,145.56 113.76,145.56 113.52,145.68 113.28,145.68 113.04,145.68 " stroke-width="1.44" stroke-linejoin="round" />
<polygon points="90.719,168.36 90.48,168.36 90.238,168.36 90,168.36 89.762,168.24 89.52,168.24 89.281,168.12 89.039,168 88.801,167.88 88.68,167.76 88.441,167.64 88.199,167.52 88.078,167.4 87.84,167.28 87.719,167.04 87.602,166.92 87.359,166.68 87.238,166.44 87.121,166.32 87,166.08 87,165.84 86.879,165.6 86.762,165.36 86.762,165.12 86.762,164.88 86.641,164.64 86.641,164.4 86.641,164.16 86.641,163.92 86.762,163.68 86.762,163.44 86.762,163.2 86.879,163.08 87,162.84 87.121,162.6 87.121,162.36 87.359,162.12 87.48,162 87.602,161.76 87.719,161.64 87.961,161.4 88.078,161.28 88.32,161.16 88.441,160.92 88.68,160.8 88.922,160.68 89.16,160.68 89.281,160.56 89.52,160.44 89.762,160.44 90,160.32 90.238,160.32 90.48,160.32 90.719,160.32 90.961,160.32 91.199,160.32 91.441,160.32 91.68,160.44 91.922,160.44 92.16,160.56 92.398,160.68 92.641,160.8 92.762,160.92 93,161.04 93.238,161.16 93.359,161.28 93.602,161.52 93.719,161.64 93.84,161.88 93.961,162 94.199,162.24 94.32,162.48 94.32,162.6 94.441,162.84 94.559,163.08 94.559,163.32 94.68,163.56 94.68,163.8 94.68,164.04 94.801,164.28 94.801,164.52 94.68,164.76 94.68,165 94.68,165.24 94.559,165.48 94.559,165.72 94.441,165.96 94.32,166.08 94.199,166.32 94.078,166.56 93.961,166.68 93.84,166.92 93.602,167.16 93.48,167.28 93.238,167.4 93.121,167.64 92.879,167.76 92.762,167.88 92.52,168 92.281,168 92.039,168.12 91.801,168.24 91.559,168.24 91.32,168.36 91.078,168.36 90.84,168.36 " stroke-width="1.44" stroke-linejoin="round" />
<polygon points="90.719,145.68 90.48,145.68 90.238,145.68 90,145.68 89.762,145.56 89.52,145.56 89.281,145.44 89.039,145.32 88.801,145.2 88.68,145.08 88.441,144.96 88.199,144.84 88.078,144.72 87.84,144.6 87.719,144.36 87.602,144.24 87.359,144 87.238,143.76 87.121,143.64 87,143.4 87,143.16 86.879,142.92 86.762,142.68 86.762,142.44 86.762,142.2 86.641,141.96 86.641,141.72 86.641,141.48 86.641,141.24 86.762,141 86.762,140.76 86.762,140.52 86.879,140.28 87,140.16 87.121,139.92 87.121,139.68 87.359,139.44 87.48,139.32 87.602,139.08 87.719,138.96 87.961,138.72 88.078,138.6 88.32,138.48 88.441,138.24 88.68,138.12 88.922,138 89.16,138 89.281,137.88 89.52,137.76 89.762,137.76 90,137.64 90.238,137.64 90.48,137.64 90.719,137.64 90.961,137.64 91.199,137.64 91.441,137.64 91.68,137.76 91.922,137.76 92.16,137.88 92.398,138 92.641,138.12 92.762,138.24 93,138.36 93.238,138.48 93.359,138.6 93.602,138.84 93.719,138.96 93.84,139.08 93.961,139.32 94.199,139.56 94.32,139.8 94.32,139.92 94.441,140.16 94.559,140.4 94.559,140.64 94.68,140.88 94.68,141.12 94.68,141.36 94.801,141.6 94.801,141.84 94.68,142.08 94.68,142.32 94.68,142.56 94.559,142.8 94.559,143.04 94.441,143.28 94.32,143.4 94.199,143.64 94.078,143.88 93.961,144 93.84,144.24 93.602,144.48 93.48,144.6 93.238,144.72 93.121,144.84 92.879,145.08 92.762,145.2 92.52,145.32 92.281,145.32 92.039,145.44 91.801,145.56 91.559,145.56 91.32,145.68 91.078,145.68 90.84,145.68 " stroke-width="1.44" stroke-linejoin="round" />
<polyline points="117.36,179.64 117.6,179.64 117.84,179.64 118.08,179.64 118.32,179.76 118.56,179.76 118.8,179.76 119.04,179.88 119.28,180 119.52,180 119.76,180.12 120,180.24 120.12,180.36 120.36,180.48 120.6,180.6 120.72,180.72 120.96,180.84 121.2,181.08 121.32,181.2 121.44,181.32 121.68,181.56 121.8,181.68 121.92,181.92 122.16,182.16 122.28,182.28 122.4,182.52 122.52,182.76 122.52,183 122.64,183.12 122.76,183.36 122.88,183.6 122.88,183.84 123,184.08 123,184.32 123,184.56 123,184.8 123.12,185.04 123.12,185.28 123.12,185.28 " stroke-width="1.44" stroke-linecap="round" stroke-linejoin="round" />
<polyline points="80.52,185.28 80.52,185.04 80.52,184.8 80.641,184.56 80.641,184.32 80.641,184.08 80.762,183.84 80.762,183.6 80.879,183.36 81,183.24 81,183 81.121,182.76 81.238,182.52 81.359,182.28 81.48,182.16 81.602,181.92 81.84,181.68 81.961,181.56 82.078,181.32 82.32,181.2 82.441,181.08 82.68,180.84 82.801,180.72 83.039,180.6 83.281,180.48 83.398,180.36 83.641,180.24 83.879,180.12 84.121,180 84.359,180 84.602,179.88 84.719,179.76 84.961,179.76 85.199,179.76 85.441,179.64 85.68,179.64 85.922,179.64 86.16,179.64 86.281,179.64 " stroke-width="1.44" stroke-linecap="round" stroke-linejoin="round" />
<polyline points="86.281,230.64 86.039,230.64 85.801,230.64 85.559,230.64 85.32,230.52 85.078,230.52 84.84,230.52 84.602,230.4 84.359,230.28 84.121,230.28 83.879,230.16 83.641,230.04 83.52,229.92 83.281,229.8 83.039,229.68 82.801,229.56 82.68,229.44 82.441,229.2 82.32,229.08 82.078,228.96 81.961,228.72 81.84,228.6 81.719,228.36 81.48,228.12 81.359,228 81.238,227.76 81.121,227.52 81.121,227.4 81,227.16 80.879,226.92 80.762,226.68 80.762,226.44 80.641,226.2 80.641,225.96 80.641,225.72 80.52,225.48 80.52,225.24 80.52,225 80.52,225 " stroke-width="1.44" stroke-linecap="round" stroke-linejoin="round" />
<polyline points="123.12,225 123.12,225.24 123.12,225.48 123,225.72 123,225.96 123,226.2 122.88,226.44 122.88,226.68 122.76,226.92 122.64,227.04 122.64,227.28 122.52,227.52 122.4,227.76 122.28,228 122.16,228.12 121.92,228.36 121.8,228.6 121.68,228.72 121.56,228.96 121.32,229.08 121.2,229.2 120.96,229.44 120.84,229.56 120.6,229.68 120.36,229.8 120.24,229.92 120,230.04 119.76,230.16 119.52,230.28 119.28,230.28 119.04,230.4 118.8,230.52 118.68,230.52 118.44,230.52 118.2,230.64 117.96,230.64 117.72,230.64 117.48,230.64 117.36,230.64 " stroke-width="1.44" stroke-linecap="round" stroke-linejoin="round" />
<line x1="123.12" y1="225" x2="123.12" y2="185.28" stroke-width="1.44" stroke-linecap="round" />
<line x1="80.52" y1="185.28" x2="80.52" y2="225" stroke-width="1.44" stroke-linecap="round" />
<line x1="86.281" y1="230.64" x2="117.36" y2="230.64" stroke-width="1.44" stroke-linecap="round" />
<line x1="117.36" y1="179.64" x2="86.281" y2="179.64" stroke-width="1.44" stroke-linecap="round" />
<polygon points="112.92,223.32 112.68,223.32 112.44,223.32 112.2,223.32 111.96,223.2 111.72,223.2 111.48,223.08 111.24,222.96 111,222.96 110.76,222.84 110.64,222.72 110.4,222.48 110.28,222.36 110.04,222.24 109.92,222 109.68,221.88 109.56,221.64 109.44,221.52 109.32,221.28 109.2,221.04 109.08,220.8 109.08,220.56 108.96,220.32 108.96,220.08 108.84,219.96 108.84,219.72 108.84,219.48 108.84,219.24 108.84,219 108.84,218.76 108.96,218.52 108.96,218.28 109.08,218.04 109.08,217.8 109.2,217.56 109.32,217.32 109.44,217.2 109.56,216.96 109.8,216.72 109.92,216.6 110.04,216.36 110.28,216.24 110.4,216.12 110.64,216 110.88,215.88 111,215.76 111.24,215.64 111.48,215.52 111.72,215.4 111.96,215.4 112.2,215.28 112.44,215.28 112.68,215.28 112.92,215.28 113.16,215.28 113.4,215.28 113.64,215.4 113.88,215.4 114.12,215.52 114.36,215.52 114.48,215.64 114.72,215.76 114.96,215.88 115.2,216 115.32,216.12 115.56,216.24 115.68,216.48 115.92,216.6 116.04,216.84 116.16,216.96 116.28,217.2 116.4,217.44 116.52,217.68 116.64,217.8 116.76,218.04 116.76,218.28 116.88,218.52 116.88,218.76 116.88,219 116.88,219.24 116.88,219.48 116.88,219.72 116.88,219.96 116.76,220.2 116.76,220.44 116.64,220.68 116.64,220.92 116.52,221.16 116.4,221.28 116.28,221.52 116.16,221.76 115.92,221.88 115.8,222.12 115.68,222.24 115.44,222.36 115.32,222.6 115.08,222.72 114.84,222.84 114.72,222.96 114.48,223.08 114.24,223.08 114,223.2 113.76,223.32 113.52,223.32 113.28,223.32 113.04,223.32 " stroke-width="1.44" stroke-linejoin="round" />
<polygon points="112.92,200.64 112.68,200.64 112.44,200.64 112.2,200.64 111.96,200.52 111.72,200.52 111.48,200.4 111.24,200.28 111,200.28 110.76,200.16 110.64,200.04 110.4,199.8 110.28,199.68 110.04,199.56 109.92,199.32 109.68,199.2 109.56,198.96 109.44,198.84 109.32,198.6 109.2,198.36 109.08,198.12 109.08,197.88 108.96,197.64 108.96,197.4 108.84,197.16 108.84,196.92 108.84,196.68 108.84,196.44 108.84,196.2 108.84,196.08 108.96,195.84 108.96,195.6 109.08,195.36 109.08,195.12 109.2,194.88 109.32,194.64 109.44,194.4 109.56,194.28 109.8,194.04 109.92,193.92 110.04,193.68 110.28,193.56 110.4,193.44 110.64,193.32 110.88,193.2 111,193.08 111.24,192.96 111.48,192.84 111.72,192.72 111.96,192.72 112.2,192.6 112.44,192.6 112.68,192.6 112.92,192.6 113.16,192.6 113.4,192.6 113.64,192.72 113.88,192.72 114.12,192.84 114.36,192.84 114.48,192.96 114.72,193.08 114.96,193.2 115.2,193.32 115.32,193.44 115.56,193.56 115.68,193.8 115.92,193.92 116.04,194.16 116.16,194.28 116.28,194.52 116.4,194.76 116.52,194.88 116.64,195.12 116.76,195.36 116.76,195.6 116.88,195.84 116.88,196.08 116.88,196.32 116.88,196.56 116.88,196.8 116.88,197.04 116.88,197.28 116.76,197.52 116.76,197.76 116.64,198 116.64,198.24 116.52,198.48 116.4,198.6 116.28,198.84 116.16,199.08 115.92,199.2 115.8,199.44 115.68,199.56 115.44,199.68 115.32,199.92 115.08,200.04 114.84,200.16 114.72,200.28 114.48,200.4 114.24,200.4 114,200.52 113.76,200.52 113.52,200.64 113.28,200.64 113.04,200.64 " stroke-width="1.44" stroke-linejoin="round" />
<polygon points="90.719,223.32 90.48,223.32 90.238,223.32 90,223.32 89.762,223.2 89.52,223.2 89.398,223.08 89.16,222.96 88.922,222.96 88.68,222.84 88.441,222.72 88.32,222.48 88.078,222.36 87.961,222.24 87.719,222 87.602,221.88 87.48,221.64 87.359,221.52 87.238,221.28 87.121,221.04 87,220.8 86.879,220.56 86.879,220.32 86.762,220.08 86.762,219.96 86.762,219.72 86.762,219.48 86.762,219.24 86.762,219 86.762,218.76 86.762,218.52 86.879,218.28 86.879,218.04 87,217.8 87.121,217.56 87.238,217.32 87.359,217.2 87.48,216.96 87.602,216.72 87.84,216.6 87.961,216.36 88.078,216.24 88.32,216.12 88.559,216 88.68,215.88 88.922,215.76 89.16,215.64 89.398,215.52 89.641,215.4 89.879,215.4 90.121,215.28 90.359,215.28 90.602,215.28 90.84,215.28 91.078,215.28 91.32,215.28 91.559,215.4 91.801,215.4 91.922,215.52 92.16,215.52 92.398,215.64 92.641,215.76 92.879,215.88 93,216 93.238,216.12 93.48,216.24 93.602,216.48 93.719,216.6 93.961,216.84 94.078,216.96 94.199,217.2 94.32,217.44 94.441,217.68 94.559,217.8 94.559,218.04 94.68,218.28 94.68,218.52 94.801,218.76 94.801,219 94.801,219.24 94.801,219.48 94.801,219.72 94.801,219.96 94.68,220.2 94.68,220.44 94.559,220.68 94.441,220.92 94.441,221.16 94.32,221.28 94.199,221.52 93.961,221.76 93.84,221.88 93.719,222.12 93.48,222.24 93.359,222.36 93.121,222.6 93,222.72 92.762,222.84 92.52,222.96 92.281,223.08 92.16,223.08 91.922,223.2 91.68,223.32 91.441,223.32 91.199,223.32 90.961,223.32 " stroke-width="1.44" stroke-linejoin="round" />
<polygon points="90.719,200.64 90.48,200.64 90.238,200.64 90,200.64 89.762,200.52 89.52,200.52 89.398,200.4 89.16,200.28 88.922,200.28 88.68,200.16 88.441,200.04 88.32,199.8 88.078,199.68 87.961,199.56 87.719,199.32 87.602,199.2 87.48,198.96 87.359,198.84 87.238,198.6 87.121,198.36 87,198.12 86.879,197.88 86.879,197.64 86.762,197.4 86.762,197.16 86.762,196.92 86.762,196.68 86.762,196.44 86.762,196.2 86.762,196.08 86.762,195.84 86.879,195.6 86.879,195.36 87,195.12 87.121,194.88 87.238,194.64 87.359,194.4 87.48,194.28 87.602,194.04 87.84,193.92 87.961,193.68 88.078,193.56 88.32,193.44 88.559,193.32 88.68,193.2 88.922,193.08 89.16,192.96 89.398,192.84 89.641,192.72 89.879,192.72 90.121,192.6 90.359,192.6 90.602,192.6 90.84,192.6 91.078,192.6 91.32,192.6 91.559,192.72 91.801,192.72 91.922,192.84 92.16,192.84 92.398,192.96 92.641,193.08 92.879,193.2 93,193.32 93.238,193.44 93.48,193.56 93.602,193.8 93.719,193.92 93.961,194.16 94.078,194.28 94.199,194.52 94.32,194.76 94.441,194.88 94.559,195.12 94.559,195.36 94.68,195.6 94.68,195.84 94.801,196.08 94.801,196.32 94.801,196.56 94.801,196.8 94.801,197.04 94.801,197.28 94.68,197.52 94.68,197.76 94.559,198 94.441,198.24 94.441,198.48 94.32,198.6 94.199,198.84 93.961,199.08 93.84,199.2 93.719,199.44 93.48,199.56 93.359,199.68 93.121,199.92 93,200.04 92.762,200.16 92.52,200.28 92.281,200.4 92.16,200.4 91.922,200.52 91.68,200.52 91.441,200.64 91.199,200.64 90.961,200.64 " stroke-width="1.44" stroke-linejoin="round" />
</g>
</svg>
