G04 (Genere par PCBNEW (2006-08-28)) le 7/6/2007-02:50:25*
G01*
G70*
G90*
%MOIN*%
G04 Gerber Fmt 3.4, Leading zero omitted, Abs format*
%FSLAX34Y34*%
G04 APERTURE LIST*
%ADD10C,0.015000*%
%ADD11R,0.080000X0.080000*%
%ADD12C,0.080000*%
%ADD13C,0.150000*%
%ADD14C,0.055000*%
%ADD15C,0.045000*%
%ADD16C,0.040000*%
%ADD17C,0.005000*%
%ADD18C,0.001000*%
%ADD19C,0.012000*%
%ADD20C,0.008000*%
%ADD21R,0.100000X0.100000*%
%ADD22C,0.100000*%
%ADD23C,0.170000*%
%ADD24C,0.075000*%
G04 APERTURE END LIST*
G54D10*
X35030Y32500D02*
X35030Y40000D01*
X46030Y32500D02*
X35030Y32500D01*
X46030Y40000D02*
X46030Y32500D01*
X35030Y40000D02*
X46030Y40000D01*
X45530Y33500D02*
X35530Y33500D01*
X35530Y33500D02*
X35530Y36000D01*
X35530Y36000D02*
X45530Y36000D01*
X45530Y36000D02*
X45530Y33500D01*
X43530Y37240D02*
X43530Y36740D01*
X43530Y36740D02*
X41530Y36740D01*
X41530Y36740D02*
X41530Y37240D01*
X41530Y37240D02*
X43530Y37240D01*
G54D19*
X41030Y37240D02*
X41030Y38240D01*
X41030Y38240D02*
X44030Y38240D01*
X44030Y38240D02*
X44030Y37240D01*
X44030Y37240D02*
X41030Y37240D01*
X42030Y38240D02*
X42030Y37240D01*
X36030Y36980D02*
X36230Y36980D01*
X39030Y36980D02*
X38830Y36980D01*
X38830Y36980D02*
X38830Y37380D01*
X38830Y37380D02*
X36230Y37380D01*
X36230Y37380D02*
X36230Y36580D01*
X36230Y36580D02*
X38830Y36580D01*
X38830Y36580D02*
X38830Y36980D01*
X36230Y37180D02*
X36430Y37380D01*
X36020Y38990D02*
X36220Y38990D01*
X39020Y38990D02*
X38820Y38990D01*
X38820Y38990D02*
X38820Y39390D01*
X38820Y39390D02*
X36220Y39390D01*
X36220Y39390D02*
X36220Y38590D01*
X36220Y38590D02*
X38820Y38590D01*
X38820Y38590D02*
X38820Y38990D01*
X36220Y39190D02*
X36420Y39390D01*
G54D18*
X38630Y34850D02*
X38630Y35650D01*
X38630Y35650D02*
X39430Y35650D01*
X39430Y35650D02*
X39430Y34850D01*
X39430Y34850D02*
X38630Y34850D01*
X39430Y34250D02*
X39421Y34167D01*
X39421Y34167D02*
X39395Y34088D01*
X39395Y34088D02*
X39353Y34015D01*
X39353Y34015D02*
X39297Y33953D01*
X39297Y33953D02*
X39230Y33904D01*
X39230Y33904D02*
X39153Y33870D01*
X39153Y33870D02*
X39071Y33853D01*
X39071Y33853D02*
X38989Y33853D01*
X38989Y33853D02*
X38907Y33870D01*
X38907Y33870D02*
X38830Y33904D01*
X38830Y33904D02*
X38763Y33953D01*
X38763Y33953D02*
X38707Y34015D01*
X38707Y34015D02*
X38665Y34088D01*
X38665Y34088D02*
X38639Y34167D01*
X38639Y34167D02*
X38630Y34250D01*
X38630Y34250D02*
X38639Y34333D01*
X38639Y34333D02*
X38665Y34412D01*
X38665Y34412D02*
X38707Y34485D01*
X38707Y34485D02*
X38763Y34547D01*
X38763Y34547D02*
X38830Y34596D01*
X38830Y34596D02*
X38907Y34630D01*
X38907Y34630D02*
X38989Y34647D01*
X38989Y34647D02*
X39071Y34647D01*
X39071Y34647D02*
X39153Y34630D01*
X39153Y34630D02*
X39230Y34596D01*
X39230Y34596D02*
X39297Y34547D01*
X39297Y34547D02*
X39353Y34485D01*
X39353Y34485D02*
X39395Y34412D01*
X39395Y34412D02*
X39421Y34333D01*
X39421Y34333D02*
X39430Y34250D01*
X41930Y34250D02*
X41921Y34167D01*
X41921Y34167D02*
X41895Y34088D01*
X41895Y34088D02*
X41853Y34015D01*
X41853Y34015D02*
X41797Y33953D01*
X41797Y33953D02*
X41730Y33904D01*
X41730Y33904D02*
X41653Y33870D01*
X41653Y33870D02*
X41571Y33853D01*
X41571Y33853D02*
X41489Y33853D01*
X41489Y33853D02*
X41407Y33870D01*
X41407Y33870D02*
X41330Y33904D01*
X41330Y33904D02*
X41263Y33953D01*
X41263Y33953D02*
X41207Y34015D01*
X41207Y34015D02*
X41165Y34088D01*
X41165Y34088D02*
X41139Y34167D01*
X41139Y34167D02*
X41130Y34250D01*
X41130Y34250D02*
X41139Y34333D01*
X41139Y34333D02*
X41165Y34412D01*
X41165Y34412D02*
X41207Y34485D01*
X41207Y34485D02*
X41263Y34547D01*
X41263Y34547D02*
X41330Y34596D01*
X41330Y34596D02*
X41407Y34630D01*
X41407Y34630D02*
X41489Y34647D01*
X41489Y34647D02*
X41571Y34647D01*
X41571Y34647D02*
X41653Y34630D01*
X41653Y34630D02*
X41730Y34596D01*
X41730Y34596D02*
X41797Y34547D01*
X41797Y34547D02*
X41853Y34485D01*
X41853Y34485D02*
X41895Y34412D01*
X41895Y34412D02*
X41921Y34333D01*
X41921Y34333D02*
X41930Y34250D01*
X42930Y34750D02*
X42921Y34667D01*
X42921Y34667D02*
X42895Y34588D01*
X42895Y34588D02*
X42853Y34515D01*
X42853Y34515D02*
X42797Y34453D01*
X42797Y34453D02*
X42730Y34404D01*
X42730Y34404D02*
X42653Y34370D01*
X42653Y34370D02*
X42571Y34353D01*
X42571Y34353D02*
X42489Y34353D01*
X42489Y34353D02*
X42407Y34370D01*
X42407Y34370D02*
X42330Y34404D01*
X42330Y34404D02*
X42263Y34453D01*
X42263Y34453D02*
X42207Y34515D01*
X42207Y34515D02*
X42165Y34588D01*
X42165Y34588D02*
X42139Y34667D01*
X42139Y34667D02*
X42130Y34750D01*
X42130Y34750D02*
X42139Y34833D01*
X42139Y34833D02*
X42165Y34912D01*
X42165Y34912D02*
X42207Y34985D01*
X42207Y34985D02*
X42263Y35047D01*
X42263Y35047D02*
X42330Y35096D01*
X42330Y35096D02*
X42407Y35130D01*
X42407Y35130D02*
X42489Y35147D01*
X42489Y35147D02*
X42571Y35147D01*
X42571Y35147D02*
X42653Y35130D01*
X42653Y35130D02*
X42730Y35096D01*
X42730Y35096D02*
X42797Y35047D01*
X42797Y35047D02*
X42853Y34985D01*
X42853Y34985D02*
X42895Y34912D01*
X42895Y34912D02*
X42921Y34833D01*
X42921Y34833D02*
X42930Y34750D01*
X41930Y35250D02*
X41921Y35167D01*
X41921Y35167D02*
X41895Y35088D01*
X41895Y35088D02*
X41853Y35015D01*
X41853Y35015D02*
X41797Y34953D01*
X41797Y34953D02*
X41730Y34904D01*
X41730Y34904D02*
X41653Y34870D01*
X41653Y34870D02*
X41571Y34853D01*
X41571Y34853D02*
X41489Y34853D01*
X41489Y34853D02*
X41407Y34870D01*
X41407Y34870D02*
X41330Y34904D01*
X41330Y34904D02*
X41263Y34953D01*
X41263Y34953D02*
X41207Y35015D01*
X41207Y35015D02*
X41165Y35088D01*
X41165Y35088D02*
X41139Y35167D01*
X41139Y35167D02*
X41130Y35250D01*
X41130Y35250D02*
X41139Y35333D01*
X41139Y35333D02*
X41165Y35412D01*
X41165Y35412D02*
X41207Y35485D01*
X41207Y35485D02*
X41263Y35547D01*
X41263Y35547D02*
X41330Y35596D01*
X41330Y35596D02*
X41407Y35630D01*
X41407Y35630D02*
X41489Y35647D01*
X41489Y35647D02*
X41571Y35647D01*
X41571Y35647D02*
X41653Y35630D01*
X41653Y35630D02*
X41730Y35596D01*
X41730Y35596D02*
X41797Y35547D01*
X41797Y35547D02*
X41853Y35485D01*
X41853Y35485D02*
X41895Y35412D01*
X41895Y35412D02*
X41921Y35333D01*
X41921Y35333D02*
X41930Y35250D01*
X37530Y34750D02*
X37513Y34595D01*
X37513Y34595D02*
X37465Y34445D01*
X37465Y34445D02*
X37386Y34310D01*
X37386Y34310D02*
X37281Y34193D01*
X37281Y34193D02*
X37155Y34101D01*
X37155Y34101D02*
X37011Y34037D01*
X37011Y34037D02*
X36858Y34005D01*
X36858Y34005D02*
X36702Y34005D01*
X36702Y34005D02*
X36549Y34037D01*
X36549Y34037D02*
X36405Y34101D01*
X36405Y34101D02*
X36279Y34193D01*
X36279Y34193D02*
X36174Y34310D01*
X36174Y34310D02*
X36095Y34445D01*
X36095Y34445D02*
X36047Y34595D01*
X36047Y34595D02*
X36030Y34750D01*
X36030Y34750D02*
X36047Y34905D01*
X36047Y34905D02*
X36095Y35055D01*
X36095Y35055D02*
X36174Y35190D01*
X36174Y35190D02*
X36279Y35307D01*
X36279Y35307D02*
X36405Y35399D01*
X36405Y35399D02*
X36549Y35463D01*
X36549Y35463D02*
X36702Y35495D01*
X36702Y35495D02*
X36858Y35495D01*
X36858Y35495D02*
X37011Y35463D01*
X37011Y35463D02*
X37155Y35399D01*
X37155Y35399D02*
X37281Y35307D01*
X37281Y35307D02*
X37386Y35190D01*
X37386Y35190D02*
X37465Y35055D01*
X37465Y35055D02*
X37513Y34905D01*
X37513Y34905D02*
X37530Y34750D01*
X45080Y34750D02*
X45063Y34595D01*
X45063Y34595D02*
X45015Y34445D01*
X45015Y34445D02*
X44936Y34310D01*
X44936Y34310D02*
X44831Y34193D01*
X44831Y34193D02*
X44705Y34101D01*
X44705Y34101D02*
X44561Y34037D01*
X44561Y34037D02*
X44408Y34005D01*
X44408Y34005D02*
X44252Y34005D01*
X44252Y34005D02*
X44099Y34037D01*
X44099Y34037D02*
X43955Y34101D01*
X43955Y34101D02*
X43829Y34193D01*
X43829Y34193D02*
X43724Y34310D01*
X43724Y34310D02*
X43645Y34445D01*
X43645Y34445D02*
X43597Y34595D01*
X43597Y34595D02*
X43580Y34750D01*
X43580Y34750D02*
X43597Y34905D01*
X43597Y34905D02*
X43645Y35055D01*
X43645Y35055D02*
X43724Y35190D01*
X43724Y35190D02*
X43829Y35307D01*
X43829Y35307D02*
X43955Y35399D01*
X43955Y35399D02*
X44099Y35463D01*
X44099Y35463D02*
X44252Y35495D01*
X44252Y35495D02*
X44408Y35495D01*
X44408Y35495D02*
X44561Y35463D01*
X44561Y35463D02*
X44705Y35399D01*
X44705Y35399D02*
X44831Y35307D01*
X44831Y35307D02*
X44936Y35190D01*
X44936Y35190D02*
X45015Y35055D01*
X45015Y35055D02*
X45063Y34905D01*
X45063Y34905D02*
X45080Y34750D01*
X41130Y37340D02*
X41130Y38140D01*
X41130Y38140D02*
X41930Y38140D01*
X41930Y38140D02*
X41930Y37340D01*
X41930Y37340D02*
X41130Y37340D01*
X42930Y37740D02*
X42921Y37657D01*
X42921Y37657D02*
X42895Y37578D01*
X42895Y37578D02*
X42853Y37505D01*
X42853Y37505D02*
X42797Y37443D01*
X42797Y37443D02*
X42730Y37394D01*
X42730Y37394D02*
X42653Y37360D01*
X42653Y37360D02*
X42571Y37343D01*
X42571Y37343D02*
X42489Y37343D01*
X42489Y37343D02*
X42407Y37360D01*
X42407Y37360D02*
X42330Y37394D01*
X42330Y37394D02*
X42263Y37443D01*
X42263Y37443D02*
X42207Y37505D01*
X42207Y37505D02*
X42165Y37578D01*
X42165Y37578D02*
X42139Y37657D01*
X42139Y37657D02*
X42130Y37740D01*
X42130Y37740D02*
X42139Y37823D01*
X42139Y37823D02*
X42165Y37902D01*
X42165Y37902D02*
X42207Y37975D01*
X42207Y37975D02*
X42263Y38037D01*
X42263Y38037D02*
X42330Y38086D01*
X42330Y38086D02*
X42407Y38120D01*
X42407Y38120D02*
X42489Y38137D01*
X42489Y38137D02*
X42571Y38137D01*
X42571Y38137D02*
X42653Y38120D01*
X42653Y38120D02*
X42730Y38086D01*
X42730Y38086D02*
X42797Y38037D01*
X42797Y38037D02*
X42853Y37975D01*
X42853Y37975D02*
X42895Y37902D01*
X42895Y37902D02*
X42921Y37823D01*
X42921Y37823D02*
X42930Y37740D01*
X43930Y37740D02*
X43921Y37657D01*
X43921Y37657D02*
X43895Y37578D01*
X43895Y37578D02*
X43853Y37505D01*
X43853Y37505D02*
X43797Y37443D01*
X43797Y37443D02*
X43730Y37394D01*
X43730Y37394D02*
X43653Y37360D01*
X43653Y37360D02*
X43571Y37343D01*
X43571Y37343D02*
X43489Y37343D01*
X43489Y37343D02*
X43407Y37360D01*
X43407Y37360D02*
X43330Y37394D01*
X43330Y37394D02*
X43263Y37443D01*
X43263Y37443D02*
X43207Y37505D01*
X43207Y37505D02*
X43165Y37578D01*
X43165Y37578D02*
X43139Y37657D01*
X43139Y37657D02*
X43130Y37740D01*
X43130Y37740D02*
X43139Y37823D01*
X43139Y37823D02*
X43165Y37902D01*
X43165Y37902D02*
X43207Y37975D01*
X43207Y37975D02*
X43263Y38037D01*
X43263Y38037D02*
X43330Y38086D01*
X43330Y38086D02*
X43407Y38120D01*
X43407Y38120D02*
X43489Y38137D01*
X43489Y38137D02*
X43571Y38137D01*
X43571Y38137D02*
X43653Y38120D01*
X43653Y38120D02*
X43730Y38086D01*
X43730Y38086D02*
X43797Y38037D01*
X43797Y38037D02*
X43853Y37975D01*
X43853Y37975D02*
X43895Y37902D01*
X43895Y37902D02*
X43921Y37823D01*
X43921Y37823D02*
X43930Y37740D01*
X36305Y36980D02*
X36298Y36923D01*
X36298Y36923D02*
X36281Y36869D01*
X36281Y36869D02*
X36252Y36819D01*
X36252Y36819D02*
X36214Y36776D01*
X36214Y36776D02*
X36167Y36742D01*
X36167Y36742D02*
X36114Y36719D01*
X36114Y36719D02*
X36058Y36707D01*
X36058Y36707D02*
X36002Y36707D01*
X36002Y36707D02*
X35946Y36719D01*
X35946Y36719D02*
X35893Y36742D01*
X35893Y36742D02*
X35846Y36776D01*
X35846Y36776D02*
X35808Y36819D01*
X35808Y36819D02*
X35779Y36869D01*
X35779Y36869D02*
X35762Y36923D01*
X35762Y36923D02*
X35755Y36980D01*
X35755Y36980D02*
X35762Y37037D01*
X35762Y37037D02*
X35779Y37091D01*
X35779Y37091D02*
X35808Y37141D01*
X35808Y37141D02*
X35846Y37184D01*
X35846Y37184D02*
X35893Y37218D01*
X35893Y37218D02*
X35946Y37241D01*
X35946Y37241D02*
X36002Y37253D01*
X36002Y37253D02*
X36058Y37253D01*
X36058Y37253D02*
X36114Y37241D01*
X36114Y37241D02*
X36167Y37218D01*
X36167Y37218D02*
X36214Y37184D01*
X36214Y37184D02*
X36252Y37141D01*
X36252Y37141D02*
X36281Y37091D01*
X36281Y37091D02*
X36298Y37037D01*
X36298Y37037D02*
X36305Y36980D01*
X39305Y36980D02*
X39298Y36923D01*
X39298Y36923D02*
X39281Y36869D01*
X39281Y36869D02*
X39252Y36819D01*
X39252Y36819D02*
X39214Y36776D01*
X39214Y36776D02*
X39167Y36742D01*
X39167Y36742D02*
X39114Y36719D01*
X39114Y36719D02*
X39058Y36707D01*
X39058Y36707D02*
X39002Y36707D01*
X39002Y36707D02*
X38946Y36719D01*
X38946Y36719D02*
X38893Y36742D01*
X38893Y36742D02*
X38846Y36776D01*
X38846Y36776D02*
X38808Y36819D01*
X38808Y36819D02*
X38779Y36869D01*
X38779Y36869D02*
X38762Y36923D01*
X38762Y36923D02*
X38755Y36980D01*
X38755Y36980D02*
X38762Y37037D01*
X38762Y37037D02*
X38779Y37091D01*
X38779Y37091D02*
X38808Y37141D01*
X38808Y37141D02*
X38846Y37184D01*
X38846Y37184D02*
X38893Y37218D01*
X38893Y37218D02*
X38946Y37241D01*
X38946Y37241D02*
X39002Y37253D01*
X39002Y37253D02*
X39058Y37253D01*
X39058Y37253D02*
X39114Y37241D01*
X39114Y37241D02*
X39167Y37218D01*
X39167Y37218D02*
X39214Y37184D01*
X39214Y37184D02*
X39252Y37141D01*
X39252Y37141D02*
X39281Y37091D01*
X39281Y37091D02*
X39298Y37037D01*
X39298Y37037D02*
X39305Y36980D01*
X36295Y38990D02*
X36288Y38933D01*
X36288Y38933D02*
X36271Y38879D01*
X36271Y38879D02*
X36242Y38829D01*
X36242Y38829D02*
X36204Y38786D01*
X36204Y38786D02*
X36157Y38752D01*
X36157Y38752D02*
X36104Y38729D01*
X36104Y38729D02*
X36048Y38717D01*
X36048Y38717D02*
X35992Y38717D01*
X35992Y38717D02*
X35936Y38729D01*
X35936Y38729D02*
X35883Y38752D01*
X35883Y38752D02*
X35836Y38786D01*
X35836Y38786D02*
X35798Y38829D01*
X35798Y38829D02*
X35769Y38879D01*
X35769Y38879D02*
X35752Y38933D01*
X35752Y38933D02*
X35745Y38990D01*
X35745Y38990D02*
X35752Y39047D01*
X35752Y39047D02*
X35769Y39101D01*
X35769Y39101D02*
X35798Y39151D01*
X35798Y39151D02*
X35836Y39194D01*
X35836Y39194D02*
X35883Y39228D01*
X35883Y39228D02*
X35936Y39251D01*
X35936Y39251D02*
X35992Y39263D01*
X35992Y39263D02*
X36048Y39263D01*
X36048Y39263D02*
X36104Y39251D01*
X36104Y39251D02*
X36157Y39228D01*
X36157Y39228D02*
X36204Y39194D01*
X36204Y39194D02*
X36242Y39151D01*
X36242Y39151D02*
X36271Y39101D01*
X36271Y39101D02*
X36288Y39047D01*
X36288Y39047D02*
X36295Y38990D01*
X39295Y38990D02*
X39288Y38933D01*
X39288Y38933D02*
X39271Y38879D01*
X39271Y38879D02*
X39242Y38829D01*
X39242Y38829D02*
X39204Y38786D01*
X39204Y38786D02*
X39157Y38752D01*
X39157Y38752D02*
X39104Y38729D01*
X39104Y38729D02*
X39048Y38717D01*
X39048Y38717D02*
X38992Y38717D01*
X38992Y38717D02*
X38936Y38729D01*
X38936Y38729D02*
X38883Y38752D01*
X38883Y38752D02*
X38836Y38786D01*
X38836Y38786D02*
X38798Y38829D01*
X38798Y38829D02*
X38769Y38879D01*
X38769Y38879D02*
X38752Y38933D01*
X38752Y38933D02*
X38745Y38990D01*
X38745Y38990D02*
X38752Y39047D01*
X38752Y39047D02*
X38769Y39101D01*
X38769Y39101D02*
X38798Y39151D01*
X38798Y39151D02*
X38836Y39194D01*
X38836Y39194D02*
X38883Y39228D01*
X38883Y39228D02*
X38936Y39251D01*
X38936Y39251D02*
X38992Y39263D01*
X38992Y39263D02*
X39048Y39263D01*
X39048Y39263D02*
X39104Y39251D01*
X39104Y39251D02*
X39157Y39228D01*
X39157Y39228D02*
X39204Y39194D01*
X39204Y39194D02*
X39242Y39151D01*
X39242Y39151D02*
X39271Y39101D01*
X39271Y39101D02*
X39288Y39047D01*
X39288Y39047D02*
X39295Y38990D01*
G54D19*
X37654Y35791D02*
X37654Y35185D01*
X37654Y35185D02*
X37708Y35110D01*
X37708Y35110D02*
X37975Y35110D01*
X37975Y35110D02*
X38029Y35185D01*
X38029Y35185D02*
X38029Y35791D01*
X38356Y35110D02*
X38570Y35110D01*
X38463Y35110D02*
X38463Y35791D01*
X38463Y35715D02*
X38356Y35564D01*
X40630Y33270D02*
X40030Y33270D01*
X40630Y33620D02*
X40030Y33620D01*
X40364Y33270D02*
X40364Y33620D01*
X40630Y34184D02*
X40630Y33834D01*
X40630Y33834D02*
X40430Y33834D01*
X40430Y33834D02*
X40364Y33884D01*
X40364Y33884D02*
X40364Y34134D01*
X40364Y34134D02*
X40297Y34184D01*
X40297Y34184D02*
X40097Y34184D01*
X40097Y34184D02*
X40030Y34134D01*
X40030Y34134D02*
X40030Y33884D01*
X40030Y33884D02*
X40097Y33834D01*
X40630Y34498D02*
X40630Y34698D01*
X40630Y34598D02*
X40030Y34598D01*
X40097Y34598D02*
X40230Y34498D01*
X40030Y34962D02*
X40630Y34962D01*
X40630Y34962D02*
X40630Y35362D01*
X40630Y35576D02*
X40564Y35526D01*
X40564Y35526D02*
X40097Y35526D01*
X40097Y35526D02*
X40030Y35576D01*
X40030Y35576D02*
X40030Y35826D01*
X40030Y35826D02*
X40097Y35876D01*
X40097Y35876D02*
X40564Y35876D01*
X40564Y35876D02*
X40630Y35826D01*
X40630Y35826D02*
X40630Y35576D01*
X40630Y36140D02*
X40630Y36340D01*
X40630Y36240D02*
X40030Y36240D01*
X40030Y36140D02*
X40030Y36340D01*
X42057Y38388D02*
X42057Y39093D01*
X42375Y39093D02*
X42057Y38779D01*
X42057Y38779D02*
X42428Y38388D01*
X42754Y38388D02*
X42966Y38388D01*
X42860Y38388D02*
X42860Y39093D01*
X42860Y39014D02*
X42754Y38858D01*
X44049Y39873D02*
X44049Y39940D01*
X44049Y39940D02*
X43674Y39940D01*
X43674Y39940D02*
X43599Y39873D01*
X43599Y39873D02*
X43599Y39406D01*
X43599Y39406D02*
X43674Y39340D01*
X43674Y39340D02*
X44049Y39340D01*
X44049Y39340D02*
X44124Y39406D01*
X44124Y39406D02*
X44124Y39606D01*
X44124Y39606D02*
X43899Y39606D01*
X42399Y39406D02*
X42474Y39340D01*
X42474Y39340D02*
X42849Y39340D01*
X42849Y39340D02*
X42924Y39406D01*
X42924Y39406D02*
X42924Y39606D01*
X42924Y39606D02*
X42849Y39673D01*
X42849Y39673D02*
X42474Y39673D01*
X42474Y39673D02*
X42399Y39740D01*
X42399Y39740D02*
X42399Y39873D01*
X42399Y39873D02*
X42474Y39940D01*
X42474Y39940D02*
X42849Y39940D01*
X42849Y39940D02*
X42924Y39873D01*
X40506Y39606D02*
X40956Y39606D01*
X40731Y39406D02*
X40731Y39806D01*
X41292Y39473D02*
X41292Y39406D01*
X41292Y39406D02*
X41367Y39340D01*
X41367Y39340D02*
X41742Y39340D01*
X41742Y39340D02*
X41817Y39406D01*
X41817Y39406D02*
X41817Y39606D01*
X41817Y39606D02*
X41667Y39740D01*
X41667Y39740D02*
X41292Y39740D01*
X41292Y39740D02*
X41292Y39940D01*
X41292Y39940D02*
X41817Y39940D01*
X43799Y36540D02*
X44324Y36540D01*
X44324Y36540D02*
X44324Y36473D01*
X44324Y36473D02*
X44024Y36273D01*
X44024Y36273D02*
X44249Y36273D01*
X44249Y36273D02*
X44324Y36206D01*
X44324Y36206D02*
X44324Y36006D01*
X44324Y36006D02*
X44249Y35940D01*
X44249Y35940D02*
X43874Y35940D01*
X43874Y35940D02*
X43799Y36006D01*
X42824Y35940D02*
X42299Y35940D01*
X42299Y35940D02*
X42299Y36140D01*
X42299Y36140D02*
X42374Y36206D01*
X42374Y36206D02*
X42749Y36206D01*
X42749Y36206D02*
X42824Y36273D01*
X42824Y36273D02*
X42824Y36473D01*
X42824Y36473D02*
X42749Y36540D01*
X42749Y36540D02*
X42374Y36540D01*
X42374Y36540D02*
X42299Y36473D01*
X40949Y35940D02*
X41249Y35940D01*
X41099Y35940D02*
X41099Y36540D01*
X41099Y36473D02*
X40949Y36340D01*
G54D20*
X37027Y37205D02*
X37027Y37755D01*
X37027Y37755D02*
X37402Y37755D01*
X37402Y37755D02*
X37465Y37693D01*
X37465Y37693D02*
X37465Y37510D01*
X37465Y37510D02*
X37402Y37449D01*
X37402Y37449D02*
X37027Y37449D01*
X37215Y37449D02*
X37465Y37205D01*
X38100Y37205D02*
X37662Y37205D01*
X37662Y37205D02*
X37662Y37388D01*
X37662Y37388D02*
X37725Y37449D01*
X37725Y37449D02*
X38037Y37449D01*
X38037Y37449D02*
X38100Y37510D01*
X38100Y37510D02*
X38100Y37693D01*
X38100Y37693D02*
X38037Y37755D01*
X38037Y37755D02*
X37725Y37755D01*
X37725Y37755D02*
X37662Y37693D01*
X36830Y36205D02*
X36392Y36205D01*
X36392Y36205D02*
X36392Y36388D01*
X36392Y36388D02*
X36455Y36449D01*
X36455Y36449D02*
X36767Y36449D01*
X36767Y36449D02*
X36830Y36510D01*
X36830Y36510D02*
X36830Y36693D01*
X36830Y36693D02*
X36767Y36755D01*
X36767Y36755D02*
X36455Y36755D01*
X36455Y36755D02*
X36392Y36693D01*
X37465Y36205D02*
X37027Y36205D01*
X37027Y36205D02*
X37027Y36388D01*
X37027Y36388D02*
X37090Y36449D01*
X37090Y36449D02*
X37402Y36449D01*
X37402Y36449D02*
X37465Y36510D01*
X37465Y36510D02*
X37465Y36693D01*
X37465Y36693D02*
X37402Y36755D01*
X37402Y36755D02*
X37090Y36755D01*
X37090Y36755D02*
X37027Y36693D01*
X37662Y36205D02*
X38100Y36755D01*
X37662Y36266D02*
X37662Y36693D01*
X37662Y36693D02*
X37725Y36755D01*
X37725Y36755D02*
X38037Y36755D01*
X38037Y36755D02*
X38100Y36693D01*
X38100Y36693D02*
X38100Y36266D01*
X38100Y36266D02*
X38037Y36205D01*
X38037Y36205D02*
X37725Y36205D01*
X37725Y36205D02*
X37662Y36266D01*
X38297Y36205D02*
X38297Y36755D01*
X38297Y36755D02*
X38672Y36755D01*
X38672Y36755D02*
X38735Y36693D01*
X38735Y36693D02*
X38735Y36510D01*
X38735Y36510D02*
X38672Y36449D01*
X38672Y36449D02*
X38297Y36449D01*
X38485Y36449D02*
X38735Y36205D01*
X37017Y39215D02*
X37017Y39765D01*
X37017Y39765D02*
X37392Y39765D01*
X37392Y39765D02*
X37455Y39703D01*
X37455Y39703D02*
X37455Y39520D01*
X37455Y39520D02*
X37392Y39459D01*
X37392Y39459D02*
X37017Y39459D01*
X37205Y39459D02*
X37455Y39215D01*
X37777Y39215D02*
X38027Y39215D01*
X37902Y39215D02*
X37902Y39765D01*
X37902Y39703D02*
X37777Y39581D01*
X36825Y38215D02*
X37075Y38215D01*
X36950Y38215D02*
X36950Y38765D01*
X36950Y38703D02*
X36825Y38581D01*
X37335Y38215D02*
X37773Y38765D01*
X37335Y38276D02*
X37335Y38703D01*
X37335Y38703D02*
X37398Y38765D01*
X37398Y38765D02*
X37710Y38765D01*
X37710Y38765D02*
X37773Y38703D01*
X37773Y38703D02*
X37773Y38276D01*
X37773Y38276D02*
X37710Y38215D01*
X37710Y38215D02*
X37398Y38215D01*
X37398Y38215D02*
X37335Y38276D01*
X37970Y38215D02*
X37970Y38765D01*
X38345Y38765D02*
X37970Y38520D01*
X37970Y38520D02*
X38408Y38215D01*
M02*
