G75*
G70*
%OFA0B0*%
%FSLAX24Y24*%
%IPPOS*%
%LPD*%
%AMOC8*
5,1,8,0,0,1.08239X$1,22.5*
%
%ADD10R,0.1417X0.0512*%
%ADD11R,0.0709X0.0630*%
%ADD12R,0.0630X0.0709*%
%ADD13R,0.2441X0.2126*%
%ADD14R,0.0630X0.0394*%
%ADD15R,0.0866X0.0236*%
%ADD16R,0.0710X0.0630*%
%ADD17R,0.0630X0.0710*%
%ADD18OC8,0.0600*%
%ADD19C,0.0640*%
%ADD20R,0.0787X0.0630*%
%ADD21R,0.0591X0.0591*%
%ADD22R,0.0480X0.0880*%
%ADD23R,0.1417X0.0866*%
%ADD24R,0.0591X0.0787*%
%ADD25R,0.0236X0.0866*%
%ADD26R,0.0787X0.0591*%
%ADD27R,0.0630X0.0787*%
%ADD28R,0.1102X0.0394*%
%ADD29R,0.0220X0.0500*%
%ADD30R,0.0500X0.0220*%
%ADD31C,0.0560*%
%ADD32R,0.0500X0.0500*%
%ADD33C,0.0500*%
%ADD34C,0.0825*%
%ADD35C,0.0590*%
%ADD36OC8,0.0560*%
%ADD37R,0.0709X0.1260*%
%ADD38R,0.0460X0.0630*%
%ADD39C,0.0400*%
%ADD40C,0.0400*%
%ADD41C,0.0160*%
%ADD42C,0.0436*%
%ADD43C,0.0120*%
%ADD44C,0.0240*%
%ADD45C,0.0320*%
%ADD46C,0.0300*%
D10*
X031311Y021785D03*
X034412Y021785D03*
X032012Y030835D03*
X028911Y030835D03*
D11*
X025707Y026737D03*
X025707Y025634D03*
X022307Y023187D03*
X022307Y022084D03*
D12*
X028606Y024235D03*
X029708Y024235D03*
X013308Y012235D03*
X012206Y012235D03*
X012406Y006135D03*
X013508Y006135D03*
X005558Y012535D03*
X004456Y012535D03*
D13*
X031241Y026385D03*
D14*
X028367Y025488D03*
X028367Y027283D03*
D15*
X023730Y026885D03*
X023730Y026385D03*
X023730Y025885D03*
X023730Y025385D03*
X021683Y025385D03*
X021683Y025885D03*
X021683Y026385D03*
X021683Y026885D03*
X009380Y023435D03*
X009380Y022935D03*
X009380Y022435D03*
X009380Y021935D03*
X007333Y021935D03*
X007333Y022435D03*
X007333Y022935D03*
X007333Y023435D03*
X019668Y009685D03*
X019668Y009185D03*
X019668Y008685D03*
X019668Y008185D03*
X019668Y007685D03*
X019668Y007185D03*
X019668Y006685D03*
X019668Y006185D03*
X019668Y005685D03*
X019668Y005185D03*
X019668Y004685D03*
X026046Y004685D03*
X026046Y005185D03*
X026046Y005685D03*
X026046Y006185D03*
X026046Y006685D03*
X026046Y007185D03*
X026046Y007685D03*
X026046Y008185D03*
X026046Y008685D03*
X026046Y009185D03*
X026046Y009685D03*
D16*
X032357Y010126D03*
X032357Y011245D03*
X032657Y008345D03*
X032657Y007226D03*
X014307Y025426D03*
X014307Y026545D03*
X018707Y026645D03*
X018707Y025526D03*
X027207Y028776D03*
X027207Y029895D03*
X005257Y029595D03*
X005257Y028476D03*
X003957Y010645D03*
X003957Y009526D03*
D17*
X004447Y013535D03*
X005567Y013535D03*
X005567Y014535D03*
X005567Y015535D03*
X004447Y015535D03*
X004447Y014535D03*
X006547Y017535D03*
X007667Y017535D03*
X008247Y015735D03*
X009367Y015735D03*
X007667Y019585D03*
X006547Y019585D03*
X014797Y017985D03*
X015917Y017985D03*
X030047Y005685D03*
X031167Y005685D03*
X030917Y003685D03*
X029797Y003685D03*
X029797Y002185D03*
X030917Y002185D03*
X031797Y002185D03*
X032917Y002185D03*
X032397Y003485D03*
X033517Y003485D03*
X033297Y014185D03*
X034417Y014185D03*
X033917Y015735D03*
X032797Y015735D03*
X032317Y018385D03*
X031197Y018385D03*
X015917Y003185D03*
X014797Y003185D03*
X017797Y001685D03*
X018917Y001685D03*
D18*
X011107Y002185D03*
X010107Y002185D03*
X010107Y003185D03*
X011107Y003185D03*
X009107Y003185D03*
X009107Y002185D03*
X008107Y002185D03*
X008107Y003185D03*
X007107Y003185D03*
X007107Y002185D03*
X008257Y010335D03*
X009257Y010335D03*
X009257Y011335D03*
X009257Y012335D03*
X008257Y012335D03*
X008257Y011335D03*
D19*
X003947Y008135D02*
X003947Y007495D01*
X002167Y007495D02*
X002167Y008135D01*
X002167Y005575D02*
X002167Y004935D01*
X003947Y004935D02*
X003947Y005575D01*
X002577Y012535D02*
X001937Y012535D01*
X001937Y013535D02*
X002577Y013535D01*
X002577Y014535D02*
X001937Y014535D01*
X001937Y015535D02*
X002577Y015535D01*
X002577Y016535D02*
X001937Y016535D01*
X001937Y017535D02*
X002577Y017535D01*
X010007Y017865D02*
X010007Y018505D01*
X011007Y018505D02*
X011007Y017865D01*
X012007Y017865D02*
X012007Y018505D01*
X013007Y018505D02*
X013007Y017865D01*
X019187Y021185D02*
X019827Y021185D01*
X020737Y021185D02*
X021377Y021185D01*
X021377Y022185D02*
X020737Y022185D01*
X019827Y022185D02*
X019187Y022185D01*
X019187Y023185D02*
X019827Y023185D01*
X020737Y023185D02*
X021377Y023185D01*
X022607Y031865D02*
X022607Y032505D01*
X023607Y032505D02*
X023607Y031865D01*
D20*
X009807Y026537D03*
X009807Y025434D03*
D21*
X009807Y027396D03*
X009807Y028774D03*
X014257Y028824D03*
X014257Y027446D03*
X018657Y027396D03*
X018657Y028774D03*
X003496Y028485D03*
X002118Y028485D03*
X002257Y010824D03*
X002257Y009446D03*
X033857Y010996D03*
X034857Y010996D03*
X034857Y012374D03*
X033857Y012374D03*
X034107Y008474D03*
X035057Y008474D03*
X035057Y007096D03*
X034107Y007096D03*
X034057Y016896D03*
X034857Y016996D03*
X034857Y018374D03*
X034057Y018274D03*
D22*
X017667Y026065D03*
X016757Y026065D03*
X015847Y026065D03*
X013267Y026065D03*
X012357Y026065D03*
X011447Y026065D03*
X008567Y026065D03*
X007657Y026065D03*
X006747Y026065D03*
D23*
X007657Y028505D03*
X012357Y028505D03*
X016757Y028505D03*
D24*
X026216Y021385D03*
X027397Y021385D03*
X027547Y012285D03*
X026366Y012285D03*
X034316Y002235D03*
X035497Y002235D03*
X026497Y001735D03*
X025316Y001735D03*
X015947Y001685D03*
X014766Y001685D03*
D25*
X020357Y003996D03*
X020857Y003996D03*
X021357Y003996D03*
X021857Y003996D03*
X022357Y003996D03*
X022857Y003996D03*
X023357Y003996D03*
X023857Y003996D03*
X024357Y003996D03*
X024857Y003996D03*
X025357Y003996D03*
X025357Y010374D03*
X024857Y010374D03*
X024357Y010374D03*
X023857Y010374D03*
X023357Y010374D03*
X022857Y010374D03*
X022357Y010374D03*
X021857Y010374D03*
X021357Y010374D03*
X020857Y010374D03*
X020357Y010374D03*
X025807Y015724D03*
X026307Y015724D03*
X026807Y015724D03*
X027307Y015724D03*
X027807Y015724D03*
X028307Y015724D03*
X028807Y015724D03*
X029307Y015724D03*
X029307Y019346D03*
X028807Y019346D03*
X028307Y019346D03*
X027807Y019346D03*
X027307Y019346D03*
X026807Y019346D03*
X026307Y019346D03*
X025807Y019346D03*
D26*
X024407Y020895D03*
X024407Y022076D03*
X028807Y022076D03*
X028807Y020895D03*
X031357Y014276D03*
X031357Y013095D03*
X032857Y005776D03*
X032857Y004595D03*
X034357Y004595D03*
X034357Y005776D03*
X017857Y005276D03*
X017857Y004095D03*
X017857Y006595D03*
X017857Y007776D03*
X017857Y009095D03*
X017857Y010276D03*
X014357Y015095D03*
X014357Y016276D03*
X012357Y016276D03*
X012357Y015095D03*
D27*
X014856Y019585D03*
X015958Y019585D03*
D28*
X004282Y019735D03*
X002431Y019735D03*
D29*
X019354Y017725D03*
X019669Y017725D03*
X019984Y017725D03*
X020299Y017725D03*
X020614Y017725D03*
X020929Y017725D03*
X021244Y017725D03*
X021559Y017725D03*
X021559Y014345D03*
X021244Y014345D03*
X020929Y014345D03*
X020614Y014345D03*
X020299Y014345D03*
X019984Y014345D03*
X019669Y014345D03*
X019354Y014345D03*
D30*
X018767Y014933D03*
X018767Y015248D03*
X018767Y015563D03*
X018767Y015878D03*
X018767Y016193D03*
X018767Y016508D03*
X018767Y016823D03*
X018767Y017138D03*
X022147Y017138D03*
X022147Y016823D03*
X022147Y016508D03*
X022147Y016193D03*
X022147Y015878D03*
X022147Y015563D03*
X022147Y015248D03*
X022147Y014933D03*
D31*
X012407Y010235D03*
X012407Y008335D03*
D32*
X006107Y007685D03*
X006107Y006685D03*
D33*
X005157Y006685D01*
X005157Y006485D01*
X003957Y005285D01*
X003947Y005255D01*
X005057Y006685D02*
X003957Y007785D01*
X003947Y007815D01*
X003857Y008035D01*
X003207Y008685D01*
X003207Y009585D01*
X002257Y010535D01*
X002257Y010824D01*
X002457Y010935D01*
X002857Y011335D01*
X006707Y011335D01*
X007707Y012335D01*
X008257Y012335D01*
X012357Y016276D02*
X012207Y016485D01*
X012007Y016685D01*
X012007Y018185D01*
X014007Y017585D02*
X014182Y017410D01*
X014757Y017985D01*
X014797Y017985D01*
X014182Y017410D02*
X013707Y016935D01*
X014357Y016285D01*
X014357Y016276D01*
X013707Y016935D02*
X012707Y015935D01*
X013307Y015335D01*
X013307Y012235D01*
X013308Y012235D01*
X012707Y015935D02*
X012357Y016285D01*
X012357Y016276D01*
X014007Y017585D02*
X014007Y021985D01*
X013857Y022185D01*
X013257Y022785D01*
X013257Y026035D01*
X013267Y026065D01*
X014307Y025435D02*
X014307Y025426D01*
X014307Y025435D02*
X014407Y025435D01*
X015257Y026285D01*
X016757Y026065D02*
X016757Y028505D01*
X016757Y028535D01*
X016957Y028735D01*
X017807Y028735D01*
X017807Y031085D01*
X017807Y028735D02*
X018657Y028735D01*
X018657Y028774D01*
X017957Y026885D02*
X017957Y026035D01*
X017707Y026035D01*
X017667Y026065D01*
X017707Y026035D02*
X017707Y024985D01*
X018857Y023835D01*
X017257Y022235D01*
X018857Y023835D02*
X019507Y023185D01*
X021057Y023185D01*
X022307Y023185D01*
X022307Y023187D01*
X022507Y023285D01*
X024407Y023285D01*
X024407Y022076D01*
X024607Y021935D01*
X025557Y020985D01*
X025557Y020835D01*
X025957Y020435D01*
X026807Y020435D01*
X027307Y019935D01*
X027307Y019346D01*
X027307Y015724D01*
X027307Y014435D01*
X027132Y014260D01*
X028332Y013060D01*
X027557Y012285D01*
X027547Y012285D01*
X027557Y012085D01*
X027557Y007685D01*
X026046Y007685D01*
X026057Y007685D01*
X026057Y007185D01*
X026046Y007185D01*
X026057Y007185D02*
X026057Y006685D01*
X026046Y006685D01*
X025457Y006685D01*
X022957Y004185D01*
X022857Y003996D01*
X022857Y003985D01*
X023357Y003985D01*
X023357Y003996D01*
X022857Y003985D02*
X022357Y003985D01*
X022357Y003996D01*
X022357Y004585D01*
X022357Y003996D02*
X022357Y002285D01*
X021757Y001685D01*
X021754Y001685D01*
X021857Y004985D02*
X020457Y004985D01*
X021857Y004985D02*
X021857Y009485D01*
X022357Y010374D02*
X022357Y010385D01*
X022857Y010385D02*
X023207Y010385D01*
X023207Y012185D01*
X023254Y012185D01*
X023457Y012335D01*
X026107Y014985D01*
X026307Y015085D01*
X026307Y015724D01*
X026307Y015085D02*
X027132Y014260D01*
X028757Y014185D02*
X028757Y013285D01*
X028557Y013285D01*
X028332Y013060D01*
X028757Y013285D02*
X028757Y012685D01*
X028757Y014185D02*
X028757Y014635D01*
X029007Y014885D01*
X029107Y014885D01*
X029732Y015510D01*
X029557Y015685D01*
X029307Y015685D01*
X029307Y015724D01*
X029732Y015510D02*
X031157Y014085D01*
X031357Y014276D01*
X031357Y014235D01*
X031407Y014185D01*
X033297Y014185D01*
X034057Y016896D02*
X034057Y016935D01*
X034807Y016935D01*
X034857Y016985D01*
X034857Y016996D01*
X035057Y017135D01*
X035807Y017135D01*
X037357Y018685D01*
X034412Y021785D02*
X034407Y021785D01*
X033182Y023010D01*
X037357Y027185D01*
X038057Y027985D02*
X028907Y027985D01*
X028907Y030835D01*
X028911Y030835D01*
X028907Y027985D02*
X028907Y027885D01*
X028507Y027485D01*
X028367Y027283D01*
X028357Y027235D01*
X026157Y027235D01*
X025707Y026785D01*
X025707Y026737D01*
X025507Y026835D01*
X023607Y028735D01*
X023407Y028885D01*
X023407Y029885D01*
X022907Y029885D01*
X023407Y029885D02*
X023907Y029885D01*
X022407Y028885D02*
X021907Y028885D01*
X021907Y029885D01*
X021907Y028885D02*
X021407Y028885D01*
X018707Y025526D02*
X018707Y024835D01*
X014257Y028785D02*
X014257Y028824D01*
X014257Y028785D02*
X013807Y028785D01*
X013807Y031085D01*
X011807Y031085D02*
X011407Y031035D01*
X010157Y032285D01*
X009507Y032285D01*
X008457Y031235D01*
X008007Y031235D01*
X007807Y031085D01*
X006357Y029635D01*
X005257Y029635D01*
X005257Y029595D01*
X007657Y028505D02*
X007857Y028635D01*
X009607Y028635D01*
X009807Y028774D01*
X009807Y031085D01*
X010857Y030135D02*
X011807Y031085D01*
X010857Y030135D02*
X010857Y026335D01*
X009957Y025435D01*
X009807Y025435D01*
X009807Y025434D01*
X008557Y026035D02*
X008567Y026065D01*
X008557Y026035D02*
X008557Y024135D01*
X008057Y023635D01*
X007907Y023435D01*
X007333Y023435D01*
X007107Y023485D01*
X006907Y023585D01*
X006057Y022735D01*
X004307Y022735D01*
X004107Y022585D01*
X004107Y021535D01*
X003257Y020685D01*
X003107Y020485D01*
X002557Y019935D01*
X002407Y019735D01*
X002431Y019735D01*
X002407Y019735D02*
X002407Y017685D01*
X002257Y017535D01*
X002257Y016535D01*
X007333Y022435D02*
X007907Y022435D01*
X008157Y022685D01*
X008157Y023185D01*
X007907Y023435D01*
X007657Y026065D02*
X007657Y028505D01*
X012357Y028505D02*
X012357Y026065D01*
X012357Y028505D02*
X012357Y028535D01*
X012607Y028785D01*
X013807Y028785D01*
X023730Y025385D02*
X024307Y025385D01*
X024407Y025185D01*
X024407Y023285D01*
X024307Y025385D02*
X024507Y025585D01*
X025707Y025585D01*
X025707Y025634D01*
X025907Y025785D01*
X026157Y026035D01*
X028907Y026035D01*
X029882Y025060D01*
X029757Y024935D01*
X029757Y024235D01*
X029708Y024235D01*
X029882Y025060D02*
X031207Y026385D01*
X031241Y026385D01*
X030657Y025535D01*
X033182Y023010D01*
X031357Y020085D02*
X029507Y020085D01*
X029307Y019935D01*
X029307Y019346D01*
X029307Y019935D02*
X028807Y020435D01*
X028807Y020895D01*
X037357Y025185D02*
X037357Y025685D01*
X038557Y026885D01*
X038557Y027485D01*
X038057Y027985D01*
X023357Y010385D02*
X023207Y010385D01*
X023357Y010385D02*
X023357Y010374D01*
X022857Y010385D02*
X022857Y010374D01*
X019668Y007685D02*
X019657Y007685D01*
X019657Y007185D01*
X019668Y007185D01*
X019857Y007085D01*
X020257Y006685D01*
X019668Y006685D02*
X019457Y006735D01*
X018057Y006735D01*
X017857Y006595D01*
X017857Y006585D01*
X017407Y006135D01*
X013508Y006135D01*
X013357Y005935D01*
X013357Y004435D01*
X011107Y002185D01*
X006107Y006685D02*
X006107Y007685D01*
X005157Y006685D02*
X005057Y006685D01*
X015357Y008135D02*
X017657Y010435D01*
X017857Y010276D01*
X017857Y014485D01*
X019657Y007185D02*
X019657Y006685D01*
X019668Y006685D01*
X026497Y001735D02*
X029057Y001735D01*
X029357Y001435D01*
X030257Y001435D01*
X030807Y001985D01*
X030917Y002185D01*
X031257Y002185D01*
X031257Y002385D01*
X032357Y003485D01*
X032397Y003485D01*
X032507Y003685D01*
X032757Y003935D01*
X032757Y004385D01*
X032857Y004595D01*
X032657Y004785D01*
X031857Y005585D01*
X031857Y006185D01*
X030457Y007585D01*
X030057Y007585D01*
X029857Y007685D01*
X027557Y007685D01*
X032857Y004635D02*
X032857Y004595D01*
X032857Y004635D02*
X034357Y004635D01*
X034357Y004595D01*
X034316Y002235D02*
X034157Y002235D01*
X033357Y001435D01*
X032457Y001435D01*
X031907Y001985D01*
X031797Y002185D01*
X031257Y002185D01*
D34*
X037194Y006485D02*
X038019Y006485D01*
X038019Y008485D02*
X037194Y008485D01*
X037194Y010485D02*
X038019Y010485D01*
X038019Y012485D02*
X037194Y012485D01*
X036944Y016685D02*
X037769Y016685D01*
X037769Y018685D02*
X036944Y018685D01*
X036944Y025185D02*
X037769Y025185D01*
X037769Y027185D02*
X036944Y027185D01*
X017807Y030673D02*
X017807Y031498D01*
X015807Y031498D02*
X015807Y030673D01*
X013807Y030673D02*
X013807Y031498D01*
X011807Y031498D02*
X011807Y030673D01*
X009807Y030673D02*
X009807Y031498D01*
X007807Y031498D02*
X007807Y030673D01*
X004519Y024585D02*
X003694Y024585D01*
X003694Y022585D02*
X004519Y022585D01*
D35*
X021407Y028885D03*
X022407Y028885D03*
X023407Y028885D03*
X024407Y028885D03*
X024907Y029885D03*
X023907Y029885D03*
X022907Y029885D03*
X021907Y029885D03*
D36*
X017257Y022235D03*
X016257Y021235D03*
X015257Y022235D03*
X013857Y022185D03*
X012857Y021185D03*
X011857Y022185D03*
X028857Y008685D03*
X029857Y007685D03*
X029857Y009685D03*
D37*
X025459Y012185D03*
X023254Y012185D03*
X023959Y001685D03*
X021754Y001685D03*
D38*
X028757Y012685D03*
X029357Y012685D03*
X029957Y012685D03*
X029957Y014185D03*
X029357Y014185D03*
X028757Y014185D03*
X002657Y026685D03*
X002057Y026685D03*
D39*
X022357Y010385D02*
X022857Y010385D01*
X028857Y016685D02*
X030357Y016685D01*
X034857Y016996D02*
X034857Y015185D01*
D40*
X033207Y011735D03*
X031807Y010685D03*
X030007Y011585D03*
X029357Y012035D03*
X029357Y013485D03*
X027857Y014985D03*
X025357Y015235D03*
X025007Y016285D03*
X024107Y014285D03*
X023157Y013885D03*
X021257Y013785D03*
X021257Y013235D03*
X021557Y014935D03*
X019807Y016485D03*
X019407Y017135D03*
X020407Y017135D03*
X022007Y017585D03*
X022507Y017535D03*
X020557Y018985D03*
X018607Y017835D03*
X017807Y018635D03*
X017007Y020035D03*
X017157Y020535D03*
X017207Y022985D03*
X018707Y024835D03*
X017957Y026885D03*
X015257Y026285D03*
X015007Y025235D03*
X013807Y023035D03*
X010157Y023035D03*
X009157Y024435D03*
X007107Y026785D03*
X006557Y022435D03*
X006507Y021935D03*
X008357Y021485D03*
X009807Y021085D03*
X009407Y019935D03*
X006007Y016185D03*
X008807Y015185D03*
X009157Y014185D03*
X008007Y013585D03*
X011357Y013785D03*
X014957Y015735D03*
X015057Y016235D03*
X015307Y016735D03*
X016607Y015185D03*
X016157Y014185D03*
X017157Y013385D03*
X018407Y013385D03*
X019407Y013785D03*
X017857Y014485D03*
X020357Y011135D03*
X020807Y009135D03*
X018607Y008785D03*
X018557Y008185D03*
X018957Y005935D03*
X020457Y004985D03*
X020257Y003235D03*
X020107Y002735D03*
X020107Y000935D03*
X024407Y004735D03*
X026857Y006085D03*
X028557Y007135D03*
X029807Y007035D03*
X027007Y008385D03*
X027007Y009185D03*
X027007Y010385D03*
X028107Y010285D03*
X028107Y009685D03*
X029257Y010285D03*
X026157Y011585D03*
X025257Y008985D03*
X025307Y008135D03*
X029157Y004135D03*
X030507Y004335D03*
X032957Y002935D03*
X033557Y002535D03*
X035207Y003485D03*
X033407Y005185D03*
X033907Y007785D03*
X031407Y017685D03*
X031357Y020085D03*
X028007Y021235D03*
X026757Y018585D03*
X023357Y021685D03*
X022307Y020735D03*
X022407Y023835D03*
X022007Y024785D03*
X023707Y027335D03*
X024607Y026935D03*
X026407Y025485D03*
X032007Y028735D03*
X013457Y027935D03*
X013607Y009835D03*
X015357Y008135D03*
X015907Y005535D03*
X015357Y003735D03*
X012407Y006835D03*
X009957Y008085D03*
X003857Y008835D03*
X002657Y008835D03*
D41*
X000357Y000185D02*
X000357Y033685D01*
X039857Y033685D01*
X039857Y000185D01*
X000357Y000185D01*
X000357Y000210D02*
X039857Y000210D01*
X039857Y000368D02*
X000357Y000368D01*
X000357Y000527D02*
X039857Y000527D01*
X039857Y000685D02*
X035246Y000685D01*
X035243Y000682D02*
X035310Y000749D01*
X035310Y000749D01*
X036160Y001599D01*
X036197Y001688D01*
X036197Y001783D01*
X036197Y002688D01*
X036197Y002783D01*
X036160Y002871D01*
X035587Y003445D01*
X035587Y003561D01*
X035529Y003701D01*
X035422Y003807D01*
X035282Y003865D01*
X035131Y003865D01*
X034991Y003807D01*
X034885Y003701D01*
X034827Y003561D01*
X034827Y003410D01*
X034885Y003270D01*
X034991Y003163D01*
X035131Y003105D01*
X035247Y003105D01*
X035544Y002809D01*
X035222Y002809D01*
X034410Y003621D01*
X034343Y003689D01*
X034254Y003725D01*
X034011Y003725D01*
X034011Y003915D01*
X033906Y004020D01*
X033127Y004020D01*
X033022Y003915D01*
X033022Y003315D01*
X032892Y003315D01*
X032892Y003408D01*
X032475Y003408D01*
X032475Y003563D01*
X032892Y003563D01*
X032892Y003915D01*
X032786Y004020D01*
X032474Y004020D01*
X032474Y003563D01*
X032319Y003563D01*
X032319Y003408D01*
X031902Y003408D01*
X031902Y003056D01*
X032007Y002950D01*
X032319Y002950D01*
X032319Y003408D01*
X032474Y003408D01*
X032474Y002950D01*
X032577Y002950D01*
X032577Y002860D01*
X032634Y002720D01*
X032527Y002720D01*
X032422Y002615D01*
X032422Y001756D01*
X032527Y001650D01*
X033306Y001650D01*
X033411Y001756D01*
X033411Y002184D01*
X033481Y002155D01*
X033632Y002155D01*
X033772Y002213D01*
X033862Y002303D01*
X034248Y002303D01*
X034248Y002168D01*
X033841Y002168D01*
X033841Y001767D01*
X033946Y001662D01*
X034248Y001662D01*
X034248Y002167D01*
X034384Y002167D01*
X034384Y001662D01*
X034686Y001662D01*
X034791Y001767D01*
X034791Y002168D01*
X034384Y002168D01*
X034384Y002303D01*
X034791Y002303D01*
X034791Y002561D01*
X035022Y002331D01*
X035022Y001767D01*
X035127Y001662D01*
X035544Y001662D01*
X035007Y001125D01*
X024493Y001125D01*
X024493Y001405D01*
X024841Y001405D01*
X024841Y001267D01*
X024946Y001162D01*
X025686Y001162D01*
X025791Y001267D01*
X025791Y002204D01*
X025686Y002309D01*
X024946Y002309D01*
X024841Y002204D01*
X024841Y002065D01*
X024493Y002065D01*
X024493Y002390D01*
X024388Y002495D01*
X024187Y002495D01*
X024187Y003383D01*
X024549Y003383D01*
X024607Y003441D01*
X024664Y003383D01*
X025049Y003383D01*
X025107Y003441D01*
X025164Y003383D01*
X025549Y003383D01*
X025655Y003489D01*
X025655Y003705D01*
X028991Y003705D01*
X029122Y003705D01*
X029244Y003756D01*
X029251Y003763D01*
X029302Y003784D01*
X029302Y003256D01*
X029407Y003150D01*
X029567Y003150D01*
X029567Y002720D01*
X029407Y002720D01*
X029302Y002615D01*
X029302Y001756D01*
X029407Y001650D01*
X030186Y001650D01*
X030292Y001756D01*
X030292Y002615D01*
X030186Y002720D01*
X030047Y002720D01*
X030047Y003150D01*
X030186Y003150D01*
X030292Y003256D01*
X030292Y003781D01*
X030422Y003911D01*
X030422Y003256D01*
X030527Y003150D01*
X031306Y003150D01*
X031411Y003256D01*
X031411Y004115D01*
X031306Y004220D01*
X031147Y004220D01*
X031147Y004788D01*
X031147Y004883D01*
X031110Y004971D01*
X030931Y005150D01*
X031556Y005150D01*
X031661Y005256D01*
X031661Y006115D01*
X031556Y006220D01*
X030961Y006220D01*
X030187Y006995D01*
X030187Y007111D01*
X030129Y007251D01*
X030101Y007279D01*
X030317Y007495D01*
X030317Y007685D01*
X029857Y007685D01*
X029857Y007686D01*
X029856Y007686D01*
X029856Y007685D01*
X029397Y007685D01*
X029397Y007495D01*
X029563Y007329D01*
X029485Y007251D01*
X029427Y007111D01*
X029427Y006960D01*
X029485Y006820D01*
X029591Y006713D01*
X029731Y006655D01*
X029847Y006655D01*
X030282Y006220D01*
X029811Y006220D01*
X028937Y007095D01*
X028937Y007211D01*
X028879Y007351D01*
X028772Y007457D01*
X028632Y007515D01*
X028481Y007515D01*
X028341Y007457D01*
X028235Y007351D01*
X028177Y007211D01*
X028177Y007060D01*
X028235Y006920D01*
X028341Y006813D01*
X028481Y006755D01*
X028597Y006755D01*
X029552Y005801D01*
X029552Y005256D01*
X029657Y005150D01*
X030252Y005150D01*
X030667Y004736D01*
X030667Y004680D01*
X030582Y004715D01*
X030431Y004715D01*
X030291Y004657D01*
X030185Y004551D01*
X030127Y004411D01*
X030127Y004295D01*
X030052Y004220D01*
X030011Y004220D01*
X028410Y005821D01*
X028343Y005889D01*
X028254Y005925D01*
X027202Y005925D01*
X027237Y006010D01*
X027237Y006161D01*
X027179Y006301D01*
X027072Y006407D01*
X026932Y006465D01*
X026781Y006465D01*
X026684Y006425D01*
X026611Y006425D01*
X026601Y006435D01*
X026659Y006493D01*
X026659Y006685D01*
X026046Y006685D01*
X026046Y006686D01*
X026045Y006686D01*
X026045Y006887D01*
X026045Y007185D01*
X025433Y007185D01*
X025433Y006993D01*
X025490Y006935D01*
X025433Y006878D01*
X025433Y006686D01*
X026045Y006686D01*
X026045Y006685D01*
X025433Y006685D01*
X025433Y006493D01*
X025490Y006435D01*
X025433Y006378D01*
X025433Y005993D01*
X025490Y005935D01*
X025433Y005878D01*
X025433Y005493D01*
X025490Y005435D01*
X025433Y005378D01*
X025433Y004993D01*
X025490Y004935D01*
X025433Y004878D01*
X025433Y004609D01*
X025164Y004609D01*
X025107Y004552D01*
X025049Y004609D01*
X024872Y004609D01*
X024787Y004695D01*
X024787Y004811D01*
X024729Y004951D01*
X024622Y005057D01*
X024482Y005115D01*
X024331Y005115D01*
X024191Y005057D01*
X024085Y004951D01*
X024027Y004811D01*
X024027Y004660D01*
X024048Y004609D01*
X023664Y004609D01*
X023607Y004552D01*
X023549Y004609D01*
X023357Y004609D01*
X023357Y003997D01*
X023356Y003997D01*
X023356Y004609D01*
X023164Y004609D01*
X023107Y004552D01*
X023049Y004609D01*
X022857Y004609D01*
X022857Y003997D01*
X022856Y003997D01*
X022856Y003996D01*
X022655Y003996D01*
X022357Y003996D01*
X022357Y003997D01*
X022356Y003997D01*
X022356Y004609D01*
X022164Y004609D01*
X022157Y004602D01*
X022157Y004677D01*
X022221Y004742D01*
X022287Y004900D01*
X022287Y009571D01*
X022221Y009729D01*
X022197Y009753D01*
X022197Y009761D01*
X022356Y009761D01*
X022356Y010374D01*
X022357Y010374D01*
X022357Y010374D01*
X022655Y010374D01*
X022856Y010374D01*
X022856Y010374D01*
X022857Y010374D01*
X022857Y010374D01*
X023155Y010374D01*
X023356Y010374D01*
X023356Y010374D01*
X023357Y010374D01*
X023357Y009761D01*
X023549Y009761D01*
X023607Y009819D01*
X023664Y009761D01*
X024049Y009761D01*
X024107Y009819D01*
X024164Y009761D01*
X024549Y009761D01*
X024607Y009819D01*
X024664Y009761D01*
X024841Y009761D01*
X025017Y009586D01*
X025017Y009283D01*
X024935Y009201D01*
X024877Y009061D01*
X024877Y008910D01*
X024935Y008770D01*
X025041Y008663D01*
X025181Y008605D01*
X025332Y008605D01*
X025433Y008647D01*
X025433Y008494D01*
X025382Y008515D01*
X025231Y008515D01*
X025091Y008457D01*
X024985Y008351D01*
X024927Y008211D01*
X024927Y008060D01*
X024985Y007920D01*
X025091Y007813D01*
X025231Y007755D01*
X025382Y007755D01*
X025433Y007776D01*
X025433Y007686D01*
X026045Y007686D01*
X026045Y007685D01*
X025433Y007685D01*
X025433Y007493D01*
X025490Y007435D01*
X025433Y007378D01*
X025433Y007186D01*
X022287Y007186D01*
X022287Y007344D02*
X025433Y007344D01*
X025433Y007186D02*
X026045Y007186D01*
X026045Y007387D01*
X026045Y007685D01*
X026046Y007685D01*
X026046Y007686D01*
X026659Y007686D01*
X026659Y007878D01*
X026601Y007935D01*
X026659Y007993D01*
X026659Y008233D01*
X026685Y008170D01*
X026791Y008063D01*
X026931Y008005D01*
X027082Y008005D01*
X027222Y008063D01*
X027329Y008170D01*
X027387Y008310D01*
X027387Y008461D01*
X027329Y008601D01*
X027222Y008707D01*
X027082Y008765D01*
X026966Y008765D01*
X026922Y008809D01*
X026931Y008805D01*
X027082Y008805D01*
X027222Y008863D01*
X027329Y008970D01*
X027387Y009110D01*
X027387Y009261D01*
X027329Y009401D01*
X027222Y009507D01*
X027082Y009565D01*
X026931Y009565D01*
X026791Y009507D01*
X026709Y009425D01*
X026611Y009425D01*
X026601Y009435D01*
X026659Y009493D01*
X026659Y009878D01*
X026553Y009983D01*
X025655Y009983D01*
X025655Y010055D01*
X026810Y010055D01*
X026931Y010005D01*
X027082Y010005D01*
X027222Y010063D01*
X027329Y010170D01*
X027387Y010310D01*
X027387Y010461D01*
X027329Y010601D01*
X027222Y010707D01*
X027082Y010765D01*
X026931Y010765D01*
X026810Y010715D01*
X025655Y010715D01*
X025655Y010766D01*
X025693Y010782D01*
X025760Y010849D01*
X026116Y011205D01*
X026232Y011205D01*
X026372Y011263D01*
X026479Y011370D01*
X026537Y011510D01*
X026537Y011661D01*
X026516Y011712D01*
X026736Y011712D01*
X026841Y011817D01*
X026841Y012754D01*
X026736Y012859D01*
X025996Y012859D01*
X025993Y012856D01*
X025993Y012890D01*
X025888Y012995D01*
X025030Y012995D01*
X024925Y012890D01*
X024925Y012320D01*
X023670Y011065D01*
X023577Y010972D01*
X023573Y010963D01*
X023549Y010987D01*
X023357Y010987D01*
X023357Y010375D01*
X023356Y010375D01*
X023356Y010987D01*
X023164Y010987D01*
X023107Y010930D01*
X023049Y010987D01*
X022857Y010987D01*
X022857Y010375D01*
X022856Y010375D01*
X022856Y010987D01*
X022664Y010987D01*
X022607Y010930D01*
X022549Y010987D01*
X022357Y010987D01*
X022357Y010375D01*
X022356Y010375D01*
X022356Y010987D01*
X022164Y010987D01*
X022107Y010930D01*
X022049Y010987D01*
X021664Y010987D01*
X021607Y010930D01*
X021597Y010940D01*
X021597Y011436D01*
X022720Y012559D01*
X022720Y012265D01*
X023174Y012265D01*
X023174Y012105D01*
X023334Y012105D01*
X023334Y011375D01*
X023683Y011375D01*
X023789Y011481D01*
X023789Y012105D01*
X023334Y012105D01*
X023334Y012265D01*
X023789Y012265D01*
X023789Y012890D01*
X023683Y012995D01*
X023334Y012995D01*
X023334Y012265D01*
X023174Y012265D01*
X023174Y012995D01*
X023156Y012995D01*
X024066Y013905D01*
X024182Y013905D01*
X024322Y013963D01*
X024429Y014070D01*
X024487Y014210D01*
X024487Y014361D01*
X024429Y014501D01*
X024322Y014607D01*
X024182Y014665D01*
X024031Y014665D01*
X023891Y014607D01*
X023785Y014501D01*
X023727Y014361D01*
X023727Y014245D01*
X023509Y014027D01*
X023479Y014101D01*
X023372Y014207D01*
X023232Y014265D01*
X023116Y014265D01*
X022577Y014805D01*
X022577Y014995D01*
X025059Y014995D01*
X025141Y014913D01*
X025281Y014855D01*
X025432Y014855D01*
X025572Y014913D01*
X025679Y015020D01*
X025717Y015111D01*
X025999Y015111D01*
X026057Y015169D01*
X026114Y015111D01*
X026306Y015111D01*
X026306Y015724D01*
X026307Y015724D01*
X026307Y015111D01*
X026499Y015111D01*
X026557Y015169D01*
X026614Y015111D01*
X026999Y015111D01*
X027057Y015169D01*
X027114Y015111D01*
X027306Y015111D01*
X027306Y015724D01*
X027307Y015724D01*
X027307Y015111D01*
X027498Y015111D01*
X027477Y015061D01*
X027477Y014910D01*
X027535Y014770D01*
X027641Y014663D01*
X027781Y014605D01*
X027932Y014605D01*
X028072Y014663D01*
X028179Y014770D01*
X028237Y014910D01*
X028237Y015026D01*
X028322Y015111D01*
X028499Y015111D01*
X028557Y015169D01*
X028614Y015111D01*
X028999Y015111D01*
X029057Y015169D01*
X029114Y015111D01*
X029306Y015111D01*
X029306Y015724D01*
X029307Y015724D01*
X029307Y015724D01*
X029605Y015724D01*
X029605Y015217D01*
X029499Y015111D01*
X029307Y015111D01*
X029307Y015724D01*
X029605Y015724D01*
X029605Y016232D01*
X029531Y016305D01*
X030234Y016305D01*
X030277Y016287D01*
X030436Y016287D01*
X030582Y016348D01*
X030694Y016460D01*
X030755Y016606D01*
X030755Y016765D01*
X030731Y016821D01*
X031953Y015599D01*
X032021Y015532D01*
X032109Y015495D01*
X032302Y015495D01*
X032302Y015306D01*
X032407Y015200D01*
X033186Y015200D01*
X033292Y015306D01*
X033292Y016161D01*
X033422Y016031D01*
X033422Y015306D01*
X033527Y015200D01*
X034306Y015200D01*
X034411Y015306D01*
X034411Y016165D01*
X034306Y016270D01*
X033861Y016270D01*
X033710Y016421D01*
X034426Y016421D01*
X034477Y016471D01*
X034477Y015308D01*
X034459Y015265D01*
X034459Y015106D01*
X034519Y014960D01*
X034631Y014848D01*
X034777Y014787D01*
X034936Y014787D01*
X035082Y014848D01*
X035194Y014960D01*
X035255Y015106D01*
X035255Y015265D01*
X035237Y015308D01*
X035237Y016531D01*
X035332Y016627D01*
X035332Y016705D01*
X035721Y016705D01*
X035892Y016705D01*
X036050Y016771D01*
X037372Y018093D01*
X037887Y018093D01*
X038105Y018183D01*
X038271Y018350D01*
X038362Y018567D01*
X038362Y018803D01*
X038271Y019021D01*
X038105Y019188D01*
X037887Y019278D01*
X036826Y019278D01*
X036609Y019188D01*
X036442Y019021D01*
X036352Y018803D01*
X036352Y018567D01*
X036433Y018370D01*
X035629Y017565D01*
X035095Y017565D01*
X035049Y017574D01*
X035010Y017565D01*
X034971Y017565D01*
X034928Y017547D01*
X034882Y017537D01*
X034849Y017515D01*
X034813Y017500D01*
X034785Y017472D01*
X034487Y017472D01*
X034387Y017372D01*
X033687Y017372D01*
X033581Y017266D01*
X033581Y016550D01*
X032281Y017850D01*
X032706Y017850D01*
X032811Y017956D01*
X032811Y018145D01*
X033581Y018145D01*
X033581Y017904D01*
X033687Y017799D01*
X034426Y017799D01*
X034526Y017899D01*
X035226Y017899D01*
X035332Y018004D01*
X035332Y018744D01*
X035226Y018850D01*
X034487Y018850D01*
X034387Y018750D01*
X033687Y018750D01*
X033581Y018644D01*
X033581Y018625D01*
X032811Y018625D01*
X032811Y018815D01*
X032706Y018920D01*
X032047Y018920D01*
X032047Y021188D01*
X032047Y021283D01*
X032019Y021349D01*
X032095Y021349D01*
X032200Y021455D01*
X032200Y022116D01*
X032095Y022221D01*
X031160Y022221D01*
X029630Y023751D01*
X029630Y024158D01*
X029224Y024158D01*
X029100Y024281D01*
X029100Y024664D01*
X028995Y024770D01*
X028647Y024770D01*
X028647Y025111D01*
X028756Y025111D01*
X028862Y025216D01*
X028862Y025759D01*
X028756Y025865D01*
X027977Y025865D01*
X027872Y025759D01*
X027872Y025725D01*
X026704Y025725D01*
X026622Y025807D01*
X026482Y025865D01*
X026331Y025865D01*
X026241Y025828D01*
X026241Y026024D01*
X026136Y026129D01*
X025784Y026129D01*
X025784Y025712D01*
X025629Y025712D01*
X025629Y026129D01*
X025278Y026129D01*
X025172Y026024D01*
X025172Y025712D01*
X025629Y025712D01*
X025629Y025557D01*
X025172Y025557D01*
X025172Y025245D01*
X025278Y025139D01*
X025629Y025139D01*
X025629Y025556D01*
X025784Y025556D01*
X025784Y025139D01*
X026136Y025139D01*
X026175Y025179D01*
X026191Y025163D01*
X026331Y025105D01*
X026482Y025105D01*
X026622Y025163D01*
X026704Y025245D01*
X027872Y025245D01*
X027872Y025216D01*
X027977Y025111D01*
X028167Y025111D01*
X028167Y024720D01*
X028111Y024664D01*
X028111Y023806D01*
X028216Y023701D01*
X028995Y023701D01*
X028998Y023704D01*
X030505Y022198D01*
X030423Y022116D01*
X030423Y021455D01*
X030528Y021349D01*
X031353Y021349D01*
X031567Y021136D01*
X031567Y020464D01*
X031442Y020515D01*
X029537Y020515D01*
X029483Y020523D01*
X029453Y020515D01*
X029421Y020515D01*
X029370Y020494D01*
X029359Y020491D01*
X029353Y020497D01*
X029380Y020525D01*
X029380Y021265D01*
X029275Y021370D01*
X028481Y021370D01*
X028711Y021601D01*
X029275Y021601D01*
X029380Y021706D01*
X029380Y022446D01*
X029275Y022551D01*
X028338Y022551D01*
X028233Y022446D01*
X028233Y021801D01*
X028047Y021615D01*
X027931Y021615D01*
X027872Y021591D01*
X027872Y021854D01*
X027767Y021959D01*
X027027Y021959D01*
X026922Y021854D01*
X026922Y021259D01*
X026691Y021490D01*
X026691Y021854D01*
X026586Y021959D01*
X025846Y021959D01*
X025741Y021854D01*
X025741Y020917D01*
X025846Y020812D01*
X026586Y020812D01*
X026638Y020864D01*
X027567Y019936D01*
X027567Y019912D01*
X027557Y019902D01*
X027499Y019959D01*
X027307Y019959D01*
X027307Y019347D01*
X027306Y019347D01*
X027306Y019959D01*
X027114Y019959D01*
X027057Y019902D01*
X026999Y019959D01*
X026614Y019959D01*
X026557Y019902D01*
X026499Y019959D01*
X026322Y019959D01*
X026093Y020189D01*
X026004Y020225D01*
X025909Y020225D01*
X025906Y020225D01*
X025043Y021089D01*
X024980Y021115D01*
X024980Y021265D01*
X024875Y021370D01*
X023938Y021370D01*
X023833Y021265D01*
X023833Y020525D01*
X023938Y020420D01*
X024875Y020420D01*
X024954Y020499D01*
X025554Y019899D01*
X025509Y019854D01*
X025509Y018839D01*
X025614Y018733D01*
X025999Y018733D01*
X026057Y018791D01*
X026114Y018733D01*
X026407Y018733D01*
X026377Y018661D01*
X026377Y018510D01*
X026435Y018370D01*
X026541Y018263D01*
X026681Y018205D01*
X026832Y018205D01*
X026972Y018263D01*
X027079Y018370D01*
X027137Y018510D01*
X027137Y018661D01*
X027101Y018746D01*
X027114Y018733D01*
X027306Y018733D01*
X027306Y019346D01*
X027307Y019346D01*
X027307Y018733D01*
X027499Y018733D01*
X027557Y018791D01*
X027614Y018733D01*
X027999Y018733D01*
X028057Y018791D01*
X028114Y018733D01*
X028499Y018733D01*
X028523Y018757D01*
X028527Y018748D01*
X028620Y018656D01*
X029170Y018106D01*
X029243Y018075D01*
X028126Y018075D01*
X028099Y018080D01*
X028079Y018075D01*
X028059Y018075D01*
X028033Y018065D01*
X028006Y018058D01*
X027990Y018047D01*
X027971Y018039D01*
X027951Y018019D01*
X027928Y018003D01*
X027918Y017986D01*
X027903Y017971D01*
X027893Y017946D01*
X027878Y017922D01*
X027874Y017902D01*
X027867Y017883D01*
X027867Y017855D01*
X027614Y016337D01*
X027557Y016280D01*
X027499Y016337D01*
X027307Y016337D01*
X027307Y015725D01*
X027306Y015725D01*
X027306Y016337D01*
X027114Y016337D01*
X027057Y016280D01*
X026999Y016337D01*
X026844Y016337D01*
X026643Y016539D01*
X026554Y016575D01*
X026459Y016575D01*
X025559Y016575D01*
X025471Y016539D01*
X025403Y016471D01*
X025359Y016427D01*
X025329Y016501D01*
X025222Y016607D01*
X025082Y016665D01*
X024931Y016665D01*
X024791Y016607D01*
X024685Y016501D01*
X024674Y016475D01*
X022786Y016475D01*
X023493Y017182D01*
X023560Y017249D01*
X023597Y017338D01*
X023597Y021388D01*
X023679Y021470D01*
X023737Y021610D01*
X023737Y021761D01*
X023679Y021901D01*
X023572Y022007D01*
X023432Y022065D01*
X023281Y022065D01*
X023147Y022010D01*
X023147Y022338D01*
X023147Y022433D01*
X023110Y022521D01*
X022838Y022794D01*
X022841Y022797D01*
X022841Y023109D01*
X022384Y023109D01*
X022384Y023264D01*
X022841Y023264D01*
X022841Y023576D01*
X022749Y023668D01*
X022787Y023760D01*
X022787Y023911D01*
X022729Y024051D01*
X022647Y024133D01*
X022647Y025533D01*
X022610Y025621D01*
X022543Y025689D01*
X022296Y025935D01*
X022296Y026078D01*
X022239Y026135D01*
X022296Y026193D01*
X022296Y026578D01*
X022239Y026635D01*
X022296Y026693D01*
X022296Y027078D01*
X022191Y027183D01*
X021897Y027183D01*
X021897Y027938D01*
X021897Y028033D01*
X021860Y028121D01*
X021551Y028431D01*
X021676Y028483D01*
X021809Y028616D01*
X021882Y028791D01*
X021882Y028878D01*
X021414Y028878D01*
X021414Y028893D01*
X021399Y028893D01*
X021399Y029360D01*
X021312Y029360D01*
X021138Y029288D01*
X021004Y029154D01*
X020952Y029029D01*
X018647Y031335D01*
X018647Y031688D01*
X018647Y031783D01*
X018610Y031871D01*
X018260Y032221D01*
X018193Y032289D01*
X018104Y032325D01*
X017604Y032325D01*
X017509Y032325D01*
X017421Y032289D01*
X016399Y031267D01*
X016399Y031616D01*
X016309Y031834D01*
X016142Y032000D01*
X015925Y032090D01*
X015689Y032090D01*
X015471Y032000D01*
X015304Y031834D01*
X015214Y031616D01*
X015214Y030555D01*
X015304Y030337D01*
X015471Y030171D01*
X015689Y030080D01*
X015925Y030080D01*
X016074Y030142D01*
X014732Y028800D01*
X014732Y029194D01*
X014626Y029300D01*
X014237Y029300D01*
X014237Y030265D01*
X014309Y030337D01*
X014399Y030555D01*
X014399Y031616D01*
X014309Y031834D01*
X014142Y032000D01*
X013925Y032090D01*
X013689Y032090D01*
X013471Y032000D01*
X013304Y031834D01*
X013214Y031616D01*
X013214Y030555D01*
X013304Y030337D01*
X013377Y030265D01*
X013377Y029215D01*
X012692Y029215D01*
X012521Y029215D01*
X012363Y029150D01*
X012332Y029118D01*
X011573Y029118D01*
X011468Y029013D01*
X011468Y027998D01*
X011573Y027892D01*
X011927Y027892D01*
X011927Y025980D01*
X011937Y025956D01*
X011937Y025895D01*
X011867Y025965D01*
X011867Y026580D01*
X011761Y026685D01*
X011287Y026685D01*
X011287Y029957D01*
X011491Y030162D01*
X011689Y030080D01*
X011925Y030080D01*
X012142Y030171D01*
X012309Y030337D01*
X012399Y030555D01*
X012399Y031616D01*
X012309Y031834D01*
X012142Y032000D01*
X011925Y032090D01*
X011689Y032090D01*
X011471Y032000D01*
X011304Y031834D01*
X011279Y031771D01*
X010400Y032650D01*
X010242Y032715D01*
X010071Y032715D01*
X009421Y032715D01*
X009263Y032650D01*
X009142Y032529D01*
X008349Y031736D01*
X008309Y031834D01*
X008142Y032000D01*
X007925Y032090D01*
X007689Y032090D01*
X007471Y032000D01*
X007304Y031834D01*
X007214Y031616D01*
X007214Y031101D01*
X006179Y030065D01*
X005711Y030065D01*
X005686Y030090D01*
X004827Y030090D01*
X004722Y029985D01*
X004722Y029225D01*
X004709Y029225D01*
X003109Y029225D01*
X003021Y029189D01*
X002953Y029121D01*
X002593Y028761D01*
X002593Y028855D01*
X002488Y028961D01*
X001748Y028961D01*
X001642Y028855D01*
X001642Y028116D01*
X001748Y028010D01*
X002242Y028010D01*
X001321Y027089D01*
X001253Y027021D01*
X001217Y026933D01*
X001217Y004983D01*
X001217Y004888D01*
X001253Y004799D01*
X001753Y004299D01*
X001821Y004232D01*
X001909Y004195D01*
X002335Y004195D01*
X002067Y004090D01*
X001675Y003778D01*
X001393Y003364D01*
X001245Y002886D01*
X001245Y002385D01*
X001393Y001906D01*
X001675Y001493D01*
X001675Y001493D01*
X001675Y001493D01*
X002067Y001180D01*
X002533Y000997D01*
X003032Y000960D01*
X003032Y000960D01*
X003520Y001071D01*
X003520Y001071D01*
X003954Y001322D01*
X004295Y001689D01*
X004512Y002140D01*
X004512Y002140D01*
X004587Y002635D01*
X004512Y003130D01*
X004512Y003131D01*
X004295Y003582D01*
X003954Y003949D01*
X003527Y004195D01*
X004559Y004195D01*
X004654Y004195D01*
X004743Y004232D01*
X007943Y007432D01*
X007956Y007445D01*
X015459Y007445D01*
X015554Y007445D01*
X015643Y007482D01*
X017283Y009122D01*
X017283Y008725D01*
X017388Y008620D01*
X018264Y008620D01*
X018285Y008570D01*
X018346Y008509D01*
X018341Y008507D01*
X018235Y008401D01*
X018177Y008261D01*
X018177Y008251D01*
X017388Y008251D01*
X017283Y008146D01*
X017283Y007406D01*
X017388Y007301D01*
X018325Y007301D01*
X018430Y007406D01*
X018430Y007545D01*
X018909Y007545D01*
X019004Y007545D01*
X019055Y007566D01*
X019055Y007493D01*
X019112Y007435D01*
X019055Y007378D01*
X019055Y007186D01*
X012554Y007186D01*
X012622Y007157D02*
X012482Y007215D01*
X012331Y007215D01*
X012191Y007157D01*
X012085Y007051D01*
X012027Y006911D01*
X012027Y006760D01*
X012064Y006670D01*
X012016Y006670D01*
X011911Y006564D01*
X011911Y005706D01*
X012016Y005601D01*
X012795Y005601D01*
X012900Y005706D01*
X012900Y006564D01*
X012795Y006670D01*
X012749Y006670D01*
X012787Y006760D01*
X012787Y006911D01*
X012729Y007051D01*
X012622Y007157D01*
X012739Y007027D02*
X017345Y007027D01*
X017388Y007070D02*
X017283Y006965D01*
X017283Y006662D01*
X017789Y006662D01*
X017789Y006527D01*
X017924Y006527D01*
X017924Y006120D01*
X018325Y006120D01*
X018430Y006225D01*
X018430Y006527D01*
X017925Y006527D01*
X017925Y006662D01*
X018430Y006662D01*
X018430Y006965D01*
X018325Y007070D01*
X017924Y007070D01*
X017924Y006663D01*
X017789Y006663D01*
X017789Y007070D01*
X017388Y007070D01*
X017283Y006869D02*
X012787Y006869D01*
X012766Y006710D02*
X017283Y006710D01*
X017283Y006527D02*
X017283Y006225D01*
X017388Y006120D01*
X017789Y006120D01*
X017789Y006527D01*
X017283Y006527D01*
X017283Y006393D02*
X014003Y006393D01*
X014003Y006551D02*
X017789Y006551D01*
X017925Y006551D02*
X019055Y006551D01*
X019055Y006493D02*
X019055Y006685D01*
X019667Y006685D01*
X019667Y006686D01*
X019055Y006686D01*
X019055Y006878D01*
X019112Y006935D01*
X019055Y006993D01*
X019055Y007185D01*
X019667Y007185D01*
X019667Y007186D01*
X019055Y007186D01*
X019055Y007344D02*
X018368Y007344D01*
X018430Y007503D02*
X019055Y007503D01*
X019196Y007685D02*
X019196Y007686D01*
X019667Y007686D01*
X019667Y007685D01*
X019196Y007685D01*
X019667Y007685D02*
X019667Y007483D01*
X019667Y007186D01*
X019668Y007186D01*
X019668Y007483D01*
X019668Y007685D01*
X019667Y007685D01*
X019668Y007685D02*
X019668Y007686D01*
X020281Y007686D01*
X020281Y007878D01*
X020223Y007935D01*
X020281Y007993D01*
X020281Y008378D01*
X020223Y008435D01*
X020281Y008493D01*
X020281Y008878D01*
X020223Y008935D01*
X020281Y008993D01*
X020281Y009378D01*
X020223Y009435D01*
X020281Y009493D01*
X020281Y009761D01*
X020549Y009761D01*
X020602Y009814D01*
X020583Y009449D01*
X020485Y009351D01*
X020427Y009211D01*
X020427Y009060D01*
X020485Y008920D01*
X020591Y008813D01*
X020731Y008755D01*
X020882Y008755D01*
X021022Y008813D01*
X021129Y008920D01*
X021187Y009060D01*
X021187Y009211D01*
X021129Y009351D01*
X021062Y009418D01*
X021082Y009794D01*
X021107Y009819D01*
X021164Y009761D01*
X021517Y009761D01*
X021517Y009753D01*
X021492Y009729D01*
X021427Y009571D01*
X021427Y005415D01*
X020371Y005415D01*
X020281Y005378D01*
X020223Y005435D01*
X020281Y005493D01*
X020281Y005878D01*
X020223Y005935D01*
X020281Y005993D01*
X020281Y006378D01*
X020223Y006435D01*
X020281Y006493D01*
X020281Y006685D01*
X019668Y006685D01*
X019668Y006686D01*
X019667Y006686D01*
X019667Y006887D01*
X019667Y007185D01*
X019668Y007185D01*
X019668Y006887D01*
X019668Y006686D01*
X020281Y006686D01*
X020281Y006878D01*
X020223Y006935D01*
X020281Y006993D01*
X020281Y007185D01*
X019668Y007185D01*
X019668Y007186D01*
X020281Y007186D01*
X021427Y007186D01*
X021427Y007344D02*
X020281Y007344D01*
X020281Y007378D02*
X020223Y007435D01*
X020281Y007493D01*
X020281Y007685D01*
X019668Y007685D01*
X019667Y007661D02*
X019668Y007661D01*
X019667Y007503D02*
X019668Y007503D01*
X019667Y007344D02*
X019668Y007344D01*
X019667Y007027D02*
X019668Y007027D01*
X019667Y006869D02*
X019668Y006869D01*
X019667Y006710D02*
X019668Y006710D01*
X020257Y006685D02*
X020357Y006685D01*
X020281Y006710D02*
X021427Y006710D01*
X021427Y006869D02*
X020281Y006869D01*
X020281Y007027D02*
X021427Y007027D01*
X021427Y006551D02*
X020281Y006551D01*
X020266Y006393D02*
X021427Y006393D01*
X021427Y006234D02*
X020281Y006234D01*
X020281Y006076D02*
X021427Y006076D01*
X021427Y005917D02*
X020241Y005917D01*
X020281Y005759D02*
X021427Y005759D01*
X021427Y005600D02*
X020281Y005600D01*
X020230Y005442D02*
X021427Y005442D01*
X022287Y005442D02*
X025484Y005442D01*
X025433Y005600D02*
X022287Y005600D01*
X022287Y005759D02*
X025433Y005759D01*
X025472Y005917D02*
X022287Y005917D01*
X022287Y006076D02*
X025433Y006076D01*
X025433Y006234D02*
X022287Y006234D01*
X022287Y006393D02*
X025448Y006393D01*
X025433Y006551D02*
X022287Y006551D01*
X022287Y006710D02*
X025433Y006710D01*
X025433Y006869D02*
X022287Y006869D01*
X022287Y007027D02*
X025433Y007027D01*
X025433Y007503D02*
X022287Y007503D01*
X022287Y007661D02*
X025433Y007661D01*
X025085Y007820D02*
X022287Y007820D01*
X022287Y007978D02*
X024960Y007978D01*
X024927Y008137D02*
X022287Y008137D01*
X022287Y008295D02*
X024962Y008295D01*
X025088Y008454D02*
X022287Y008454D01*
X022287Y008613D02*
X025164Y008613D01*
X025350Y008613D02*
X025433Y008613D01*
X024934Y008771D02*
X022287Y008771D01*
X022287Y008930D02*
X024877Y008930D01*
X024888Y009088D02*
X022287Y009088D01*
X022287Y009247D02*
X024981Y009247D01*
X025017Y009405D02*
X022287Y009405D01*
X022287Y009564D02*
X025017Y009564D01*
X024880Y009722D02*
X022224Y009722D01*
X022357Y009761D02*
X022549Y009761D01*
X022607Y009819D01*
X022664Y009761D01*
X022856Y009761D01*
X022856Y010374D01*
X022655Y010374D01*
X022357Y010374D01*
X022357Y009761D01*
X022356Y009881D02*
X022357Y009881D01*
X022356Y010039D02*
X022357Y010039D01*
X022356Y010198D02*
X022357Y010198D01*
X022356Y010356D02*
X022357Y010356D01*
X022356Y010515D02*
X022357Y010515D01*
X022356Y010674D02*
X022357Y010674D01*
X022356Y010832D02*
X022357Y010832D01*
X022856Y010832D02*
X022857Y010832D01*
X022856Y010674D02*
X022857Y010674D01*
X022856Y010515D02*
X022857Y010515D01*
X022857Y010374D02*
X023155Y010374D01*
X023356Y010374D01*
X023356Y009761D01*
X023164Y009761D01*
X023107Y009819D01*
X023049Y009761D01*
X022857Y009761D01*
X022857Y010374D01*
X022856Y010356D02*
X022857Y010356D01*
X022856Y010198D02*
X022857Y010198D01*
X022856Y010039D02*
X022857Y010039D01*
X022856Y009881D02*
X022857Y009881D01*
X023356Y009881D02*
X023357Y009881D01*
X023356Y010039D02*
X023357Y010039D01*
X023356Y010198D02*
X023357Y010198D01*
X023356Y010356D02*
X023357Y010356D01*
X023356Y010515D02*
X023357Y010515D01*
X023356Y010674D02*
X023357Y010674D01*
X023356Y010832D02*
X023357Y010832D01*
X023595Y010991D02*
X021597Y010991D01*
X021597Y011149D02*
X023754Y011149D01*
X023912Y011308D02*
X021597Y011308D01*
X021627Y011466D02*
X022735Y011466D01*
X022720Y011481D02*
X022825Y011375D01*
X023174Y011375D01*
X023174Y012105D01*
X022720Y012105D01*
X022720Y011481D01*
X022720Y011625D02*
X021786Y011625D01*
X021944Y011783D02*
X022720Y011783D01*
X022720Y011942D02*
X022103Y011942D01*
X022261Y012100D02*
X022720Y012100D01*
X022720Y012418D02*
X022578Y012418D01*
X022420Y012259D02*
X023174Y012259D01*
X023174Y012100D02*
X023334Y012100D01*
X023334Y011942D02*
X023174Y011942D01*
X023174Y011783D02*
X023334Y011783D01*
X023334Y011625D02*
X023174Y011625D01*
X023174Y011466D02*
X023334Y011466D01*
X023774Y011466D02*
X024071Y011466D01*
X024230Y011625D02*
X023789Y011625D01*
X023789Y011783D02*
X024388Y011783D01*
X024547Y011942D02*
X023789Y011942D01*
X023789Y012100D02*
X024705Y012100D01*
X024864Y012259D02*
X023334Y012259D01*
X023334Y012418D02*
X023174Y012418D01*
X023174Y012576D02*
X023334Y012576D01*
X023334Y012735D02*
X023174Y012735D01*
X023174Y012893D02*
X023334Y012893D01*
X023212Y013052D02*
X028347Y013052D01*
X028347Y013075D02*
X028347Y012720D01*
X028721Y012720D01*
X028721Y012650D01*
X028347Y012650D01*
X028347Y012296D01*
X028452Y012190D01*
X028722Y012190D01*
X028722Y012650D01*
X028792Y012650D01*
X028792Y012190D01*
X029010Y012190D01*
X028977Y012111D01*
X028977Y011960D01*
X029035Y011820D01*
X029141Y011713D01*
X029179Y011697D01*
X028147Y010665D01*
X028031Y010665D01*
X027891Y010607D01*
X027785Y010501D01*
X027727Y010361D01*
X027727Y010210D01*
X027785Y010070D01*
X027869Y009985D01*
X027785Y009901D01*
X027727Y009761D01*
X027727Y009610D01*
X027785Y009470D01*
X027891Y009363D01*
X028031Y009305D01*
X028182Y009305D01*
X028322Y009363D01*
X028429Y009470D01*
X028487Y009610D01*
X028487Y009726D01*
X028904Y010143D01*
X028935Y010070D01*
X029041Y009963D01*
X029181Y009905D01*
X029332Y009905D01*
X029472Y009963D01*
X029579Y010070D01*
X029637Y010210D01*
X029637Y010326D01*
X032193Y012882D01*
X032206Y012895D01*
X033204Y012895D01*
X033293Y012932D01*
X033360Y012999D01*
X034019Y013658D01*
X034027Y013650D01*
X034806Y013650D01*
X034911Y013756D01*
X034911Y014615D01*
X034806Y014720D01*
X034027Y014720D01*
X033922Y014615D01*
X033922Y014240D01*
X033790Y014108D01*
X033375Y014108D01*
X033375Y014263D01*
X033792Y014263D01*
X033792Y014615D01*
X033686Y014720D01*
X033374Y014720D01*
X033374Y014263D01*
X033219Y014263D01*
X033219Y014108D01*
X032802Y014108D01*
X032802Y013756D01*
X032907Y013650D01*
X033219Y013650D01*
X033219Y014108D01*
X033374Y014108D01*
X033374Y013692D01*
X033057Y013375D01*
X032009Y013375D01*
X031930Y013375D01*
X031930Y013465D01*
X031825Y013570D01*
X030888Y013570D01*
X030783Y013465D01*
X030783Y012725D01*
X030888Y012620D01*
X031251Y012620D01*
X030359Y011727D01*
X030329Y011801D01*
X030222Y011907D01*
X030149Y011938D01*
X030160Y011949D01*
X030197Y012038D01*
X030197Y012190D01*
X030261Y012190D01*
X030367Y012296D01*
X030367Y013075D01*
X030261Y013180D01*
X030197Y013180D01*
X030197Y013690D01*
X030261Y013690D01*
X030367Y013796D01*
X030367Y014575D01*
X030261Y014680D01*
X029661Y014680D01*
X029061Y014680D01*
X028792Y014680D01*
X028792Y014221D01*
X028722Y014221D01*
X028722Y014680D01*
X028452Y014680D01*
X028347Y014575D01*
X028347Y014220D01*
X028721Y014220D01*
X028721Y014150D01*
X028347Y014150D01*
X028347Y013796D01*
X028452Y013690D01*
X028722Y013690D01*
X028722Y014150D01*
X028792Y014150D01*
X028792Y013690D01*
X029030Y013690D01*
X028977Y013561D01*
X028977Y013410D01*
X029035Y013270D01*
X029124Y013180D01*
X029052Y013180D01*
X028792Y013180D01*
X028792Y012721D01*
X028722Y012721D01*
X028722Y013180D01*
X028452Y013180D01*
X028347Y013075D01*
X028347Y012893D02*
X025990Y012893D01*
X024928Y012893D02*
X023785Y012893D01*
X023789Y012735D02*
X024925Y012735D01*
X024925Y012576D02*
X023789Y012576D01*
X023789Y012418D02*
X024925Y012418D01*
X023688Y013527D02*
X028977Y013527D01*
X028994Y013369D02*
X023530Y013369D01*
X023371Y013210D02*
X029094Y013210D01*
X028792Y013052D02*
X028722Y013052D01*
X028722Y012893D02*
X028792Y012893D01*
X028792Y012735D02*
X028722Y012735D01*
X028722Y012576D02*
X028792Y012576D01*
X028792Y012418D02*
X028722Y012418D01*
X028722Y012259D02*
X028792Y012259D01*
X028977Y012100D02*
X028022Y012100D01*
X028022Y012218D02*
X027615Y012218D01*
X027615Y012353D01*
X028022Y012353D01*
X028022Y012754D01*
X027917Y012859D01*
X027615Y012859D01*
X027615Y012353D01*
X027480Y012353D01*
X027480Y012859D01*
X027177Y012859D01*
X027072Y012754D01*
X027072Y012353D01*
X027479Y012353D01*
X027479Y012218D01*
X027072Y012218D01*
X027072Y011817D01*
X027177Y011712D01*
X027480Y011712D01*
X027480Y012217D01*
X027615Y012217D01*
X027615Y011712D01*
X027917Y011712D01*
X028022Y011817D01*
X028022Y012218D01*
X028022Y012418D02*
X028347Y012418D01*
X028347Y012576D02*
X028022Y012576D01*
X028022Y012735D02*
X028347Y012735D01*
X028383Y012259D02*
X027615Y012259D01*
X027479Y012259D02*
X026841Y012259D01*
X026841Y012100D02*
X027072Y012100D01*
X027072Y011942D02*
X026841Y011942D01*
X026808Y011783D02*
X027106Y011783D01*
X027480Y011783D02*
X027615Y011783D01*
X027615Y011942D02*
X027480Y011942D01*
X027480Y012100D02*
X027615Y012100D01*
X027615Y012418D02*
X027480Y012418D01*
X027480Y012576D02*
X027615Y012576D01*
X027615Y012735D02*
X027480Y012735D01*
X027072Y012735D02*
X026841Y012735D01*
X026841Y012576D02*
X027072Y012576D01*
X027072Y012418D02*
X026841Y012418D01*
X028022Y011942D02*
X028984Y011942D01*
X029071Y011783D02*
X027989Y011783D01*
X028631Y011149D02*
X026060Y011149D01*
X025901Y010991D02*
X028473Y010991D01*
X028314Y010832D02*
X025743Y010832D01*
X025655Y010039D02*
X026849Y010039D01*
X026656Y009881D02*
X027776Y009881D01*
X027815Y010039D02*
X027164Y010039D01*
X027340Y010198D02*
X027732Y010198D01*
X027727Y010356D02*
X027387Y010356D01*
X027364Y010515D02*
X027799Y010515D01*
X028156Y010674D02*
X027256Y010674D01*
X026519Y011466D02*
X028948Y011466D01*
X028790Y011308D02*
X026416Y011308D01*
X026537Y011625D02*
X029107Y011625D01*
X029984Y010674D02*
X031427Y010674D01*
X031427Y010610D02*
X031485Y010470D01*
X031591Y010363D01*
X031712Y010313D01*
X031822Y010204D01*
X031822Y009736D01*
X031927Y009631D01*
X032786Y009631D01*
X032892Y009736D01*
X032892Y009805D01*
X037191Y009805D01*
X037322Y009805D01*
X037444Y009856D01*
X037481Y009893D01*
X038137Y009893D01*
X038355Y009983D01*
X038521Y010150D01*
X038612Y010367D01*
X038612Y010603D01*
X038521Y010821D01*
X038355Y010988D01*
X038137Y011078D01*
X037076Y011078D01*
X036859Y010988D01*
X036692Y010821D01*
X036602Y010603D01*
X036602Y010465D01*
X032892Y010465D01*
X032892Y010515D01*
X032786Y010620D01*
X032338Y010620D01*
X032208Y010750D01*
X032786Y010750D01*
X032892Y010856D01*
X032892Y010995D01*
X033381Y010995D01*
X033381Y010627D01*
X033487Y010521D01*
X034226Y010521D01*
X034332Y010627D01*
X034332Y010795D01*
X034381Y010795D01*
X034381Y010627D01*
X034487Y010521D01*
X035226Y010521D01*
X035332Y010627D01*
X035332Y011366D01*
X035226Y011472D01*
X034487Y011472D01*
X034381Y011366D01*
X034381Y011275D01*
X034332Y011275D01*
X034332Y011366D01*
X034226Y011472D01*
X033663Y011472D01*
X033654Y011475D01*
X033559Y011475D01*
X033484Y011475D01*
X033529Y011520D01*
X033579Y011641D01*
X033837Y011899D01*
X034226Y011899D01*
X034332Y012004D01*
X034332Y012055D01*
X034381Y012055D01*
X034381Y012004D01*
X034487Y011899D01*
X035226Y011899D01*
X035332Y012004D01*
X035332Y012155D01*
X036690Y012155D01*
X036692Y012150D01*
X036859Y011983D01*
X037076Y011893D01*
X038137Y011893D01*
X038355Y011983D01*
X038521Y012150D01*
X038612Y012367D01*
X038612Y012603D01*
X038521Y012821D01*
X038355Y012988D01*
X038137Y013078D01*
X037076Y013078D01*
X036859Y012988D01*
X036692Y012821D01*
X036690Y012815D01*
X035261Y012815D01*
X035226Y012850D01*
X034487Y012850D01*
X034381Y012744D01*
X034381Y012715D01*
X034332Y012715D01*
X034332Y012744D01*
X034226Y012850D01*
X033487Y012850D01*
X033381Y012744D01*
X033381Y012377D01*
X033112Y012107D01*
X032991Y012057D01*
X032885Y011951D01*
X032827Y011811D01*
X032827Y011700D01*
X032786Y011740D01*
X031927Y011740D01*
X031822Y011635D01*
X031822Y011065D01*
X031731Y011065D01*
X031591Y011007D01*
X031485Y010901D01*
X031427Y010761D01*
X031427Y010610D01*
X031466Y010515D02*
X029826Y010515D01*
X029667Y010356D02*
X031608Y010356D01*
X031822Y010198D02*
X029632Y010198D01*
X029666Y010145D02*
X029397Y009876D01*
X029397Y009495D01*
X029666Y009225D01*
X030047Y009225D01*
X030317Y009495D01*
X030317Y009876D01*
X030047Y010145D01*
X029666Y010145D01*
X029560Y010039D02*
X029548Y010039D01*
X029402Y009881D02*
X028642Y009881D01*
X028487Y009722D02*
X029397Y009722D01*
X029397Y009564D02*
X028468Y009564D01*
X028364Y009405D02*
X029486Y009405D01*
X029645Y009247D02*
X027387Y009247D01*
X027378Y009088D02*
X028609Y009088D01*
X028666Y009145D02*
X028397Y008876D01*
X028397Y008495D01*
X028666Y008225D01*
X029047Y008225D01*
X029267Y008445D01*
X030107Y008445D01*
X032021Y006532D01*
X032109Y006495D01*
X032204Y006495D01*
X032757Y006495D01*
X033001Y006251D01*
X032388Y006251D01*
X032283Y006146D01*
X032283Y005406D01*
X032388Y005301D01*
X032952Y005301D01*
X033027Y005226D01*
X033027Y005110D01*
X033043Y005070D01*
X032924Y005070D01*
X032924Y004663D01*
X032789Y004663D01*
X032789Y005070D01*
X032388Y005070D01*
X032283Y004965D01*
X032283Y004662D01*
X032789Y004662D01*
X032789Y004527D01*
X032924Y004527D01*
X032924Y004120D01*
X033325Y004120D01*
X033430Y004225D01*
X033430Y004527D01*
X032925Y004527D01*
X032925Y004662D01*
X033430Y004662D01*
X033430Y004805D01*
X033482Y004805D01*
X033622Y004863D01*
X033729Y004970D01*
X033787Y005110D01*
X033787Y005261D01*
X033729Y005401D01*
X033622Y005507D01*
X033482Y005565D01*
X033430Y005565D01*
X033430Y005822D01*
X033671Y005582D01*
X033759Y005545D01*
X033783Y005545D01*
X033783Y005406D01*
X033888Y005301D01*
X034825Y005301D01*
X034930Y005406D01*
X034930Y006146D01*
X034825Y006251D01*
X033888Y006251D01*
X033784Y006147D01*
X033143Y006788D01*
X033192Y006836D01*
X033192Y006895D01*
X033554Y006895D01*
X033631Y006895D01*
X033631Y006727D01*
X033737Y006621D01*
X034476Y006621D01*
X034582Y006726D01*
X034687Y006621D01*
X035054Y006621D01*
X035470Y006206D01*
X035591Y006155D01*
X035722Y006155D01*
X036690Y006155D01*
X036692Y006150D01*
X036859Y005983D01*
X037076Y005893D01*
X038137Y005893D01*
X038355Y005983D01*
X038521Y006150D01*
X038612Y006367D01*
X038612Y006603D01*
X038521Y006821D01*
X038355Y006988D01*
X038137Y007078D01*
X037076Y007078D01*
X036859Y006988D01*
X036692Y006821D01*
X036690Y006815D01*
X035793Y006815D01*
X035532Y007077D01*
X035532Y007466D01*
X035426Y007572D01*
X035087Y007572D01*
X034568Y008091D01*
X034582Y008104D01*
X034687Y007999D01*
X035426Y007999D01*
X035532Y008104D01*
X035532Y008844D01*
X035426Y008950D01*
X034832Y008950D01*
X034826Y008955D01*
X036670Y008955D01*
X036748Y008877D01*
X036692Y008821D01*
X036602Y008603D01*
X036602Y008367D01*
X036692Y008150D01*
X036859Y007983D01*
X037076Y007893D01*
X038137Y007893D01*
X038355Y007983D01*
X038521Y008150D01*
X038612Y008367D01*
X038612Y008603D01*
X038521Y008821D01*
X038355Y008988D01*
X038137Y009078D01*
X037481Y009078D01*
X036994Y009565D01*
X036872Y009615D01*
X036741Y009615D01*
X033491Y009615D01*
X033370Y009565D01*
X033277Y009472D01*
X032645Y008840D01*
X032227Y008840D01*
X032122Y008735D01*
X032122Y007956D01*
X032227Y007850D01*
X033086Y007850D01*
X033192Y007956D01*
X033192Y008454D01*
X033267Y008454D01*
X033267Y008529D02*
X033267Y007375D01*
X033192Y007375D01*
X033192Y007615D01*
X033086Y007720D01*
X032227Y007720D01*
X032122Y007615D01*
X032122Y007110D01*
X030410Y008821D01*
X030343Y008889D01*
X030254Y008925D01*
X029267Y008925D01*
X029047Y009145D01*
X028666Y009145D01*
X028450Y008930D02*
X027288Y008930D01*
X027317Y008613D02*
X028397Y008613D01*
X028397Y008771D02*
X026960Y008771D01*
X027387Y008454D02*
X028438Y008454D01*
X028596Y008295D02*
X027381Y008295D01*
X027296Y008137D02*
X029658Y008137D01*
X029666Y008145D02*
X029397Y007876D01*
X029397Y007686D01*
X029856Y007686D01*
X029856Y008145D01*
X029666Y008145D01*
X029856Y008137D02*
X029857Y008137D01*
X029857Y008145D02*
X029857Y007686D01*
X030317Y007686D01*
X030317Y007876D01*
X030047Y008145D01*
X029857Y008145D01*
X029856Y007978D02*
X029857Y007978D01*
X029856Y007820D02*
X029857Y007820D01*
X030056Y008137D02*
X030416Y008137D01*
X030574Y007978D02*
X030214Y007978D01*
X030317Y007820D02*
X030733Y007820D01*
X030891Y007661D02*
X030317Y007661D01*
X030317Y007503D02*
X031050Y007503D01*
X031208Y007344D02*
X030166Y007344D01*
X030156Y007186D02*
X031367Y007186D01*
X031526Y007027D02*
X030187Y007027D01*
X030313Y006869D02*
X031684Y006869D01*
X031843Y006710D02*
X030471Y006710D01*
X030630Y006551D02*
X032001Y006551D01*
X032372Y006234D02*
X030947Y006234D01*
X030789Y006393D02*
X032860Y006393D01*
X033221Y006710D02*
X033648Y006710D01*
X033631Y006869D02*
X033192Y006869D01*
X033380Y006551D02*
X035124Y006551D01*
X035282Y006393D02*
X033539Y006393D01*
X033697Y006234D02*
X033872Y006234D01*
X033494Y005759D02*
X033430Y005759D01*
X033430Y005600D02*
X033652Y005600D01*
X033688Y005442D02*
X033783Y005442D01*
X033777Y005283D02*
X039857Y005283D01*
X039857Y005125D02*
X033787Y005125D01*
X033888Y005070D02*
X033783Y004965D01*
X033783Y004662D01*
X034289Y004662D01*
X034289Y004527D01*
X034424Y004527D01*
X034424Y004120D01*
X034825Y004120D01*
X034930Y004225D01*
X034930Y004527D01*
X034425Y004527D01*
X034425Y004662D01*
X034930Y004662D01*
X034930Y004965D01*
X034825Y005070D01*
X034424Y005070D01*
X034424Y004663D01*
X034289Y004663D01*
X034289Y005070D01*
X033888Y005070D01*
X033784Y004966D02*
X033725Y004966D01*
X033783Y004807D02*
X033487Y004807D01*
X033430Y004490D02*
X033783Y004490D01*
X033783Y004527D02*
X033783Y004225D01*
X033888Y004120D01*
X034289Y004120D01*
X034289Y004527D01*
X033783Y004527D01*
X033783Y004332D02*
X033430Y004332D01*
X033379Y004173D02*
X033835Y004173D01*
X033911Y004015D02*
X037035Y004015D01*
X037067Y004040D02*
X036675Y003728D01*
X036393Y003314D01*
X036245Y002836D01*
X036245Y002335D01*
X036393Y001856D01*
X036675Y001443D01*
X036675Y001443D01*
X036675Y001443D01*
X037067Y001130D01*
X037533Y000947D01*
X038032Y000910D01*
X038032Y000910D01*
X038520Y001021D01*
X038520Y001021D01*
X038954Y001272D01*
X039295Y001639D01*
X039512Y002090D01*
X039512Y002090D01*
X039587Y002585D01*
X039512Y003080D01*
X039512Y003081D01*
X039295Y003532D01*
X038954Y003899D01*
X038520Y004149D01*
X038032Y004261D01*
X037533Y004223D01*
X037533Y004223D01*
X037067Y004040D01*
X037067Y004040D01*
X036836Y003856D02*
X035304Y003856D01*
X035109Y003856D02*
X034011Y003856D01*
X034321Y003698D02*
X034883Y003698D01*
X034827Y003539D02*
X034492Y003539D01*
X034651Y003381D02*
X034839Y003381D01*
X034809Y003222D02*
X034933Y003222D01*
X034968Y003064D02*
X035289Y003064D01*
X035448Y002905D02*
X035126Y002905D01*
X034923Y002429D02*
X034791Y002429D01*
X035022Y002271D02*
X034384Y002271D01*
X034384Y002303D02*
X034248Y002303D01*
X034248Y002809D01*
X033946Y002809D01*
X033881Y002744D01*
X033879Y002751D01*
X033797Y002833D01*
X033797Y002950D01*
X033906Y002950D01*
X034011Y003056D01*
X034011Y003245D01*
X034107Y003245D01*
X034544Y002809D01*
X034384Y002809D01*
X034384Y002303D01*
X034384Y002429D02*
X034248Y002429D01*
X034248Y002271D02*
X033830Y002271D01*
X033841Y002112D02*
X033411Y002112D01*
X033411Y001954D02*
X033841Y001954D01*
X033841Y001795D02*
X033411Y001795D01*
X034248Y001795D02*
X034384Y001795D01*
X034384Y001954D02*
X034248Y001954D01*
X034248Y002112D02*
X034384Y002112D01*
X034791Y002112D02*
X035022Y002112D01*
X035022Y001954D02*
X034791Y001954D01*
X034791Y001795D02*
X035022Y001795D01*
X035360Y001478D02*
X026972Y001478D01*
X026972Y001320D02*
X035201Y001320D01*
X035043Y001161D02*
X024493Y001161D01*
X024493Y001320D02*
X024841Y001320D01*
X024841Y002112D02*
X024493Y002112D01*
X024493Y002271D02*
X024908Y002271D01*
X024454Y002429D02*
X029302Y002429D01*
X029302Y002271D02*
X026905Y002271D01*
X026867Y002309D02*
X026565Y002309D01*
X026565Y001803D01*
X026972Y001803D01*
X026972Y002204D01*
X026867Y002309D01*
X026972Y002112D02*
X029302Y002112D01*
X029302Y001954D02*
X026972Y001954D01*
X026972Y001668D02*
X026565Y001668D01*
X026565Y001803D01*
X026430Y001803D01*
X026430Y002309D01*
X026127Y002309D01*
X026022Y002204D01*
X026022Y001803D01*
X026429Y001803D01*
X026429Y001668D01*
X026022Y001668D01*
X026022Y001267D01*
X026127Y001162D01*
X026430Y001162D01*
X026430Y001667D01*
X026565Y001667D01*
X026565Y001162D01*
X026867Y001162D01*
X026972Y001267D01*
X026972Y001668D01*
X026972Y001637D02*
X035519Y001637D01*
X035880Y001320D02*
X036830Y001320D01*
X036651Y001478D02*
X036039Y001478D01*
X036176Y001637D02*
X036543Y001637D01*
X036435Y001795D02*
X036197Y001795D01*
X036197Y001954D02*
X036363Y001954D01*
X036393Y001856D02*
X036393Y001856D01*
X036314Y002112D02*
X036197Y002112D01*
X036197Y002271D02*
X036265Y002271D01*
X036245Y002335D02*
X036245Y002335D01*
X036245Y002429D02*
X036197Y002429D01*
X036197Y002588D02*
X036245Y002588D01*
X036245Y002746D02*
X036197Y002746D01*
X036245Y002836D02*
X036245Y002836D01*
X036267Y002905D02*
X036126Y002905D01*
X035968Y003064D02*
X036316Y003064D01*
X036365Y003222D02*
X035809Y003222D01*
X035651Y003381D02*
X036438Y003381D01*
X036393Y003314D02*
X036393Y003314D01*
X036546Y003539D02*
X035587Y003539D01*
X035530Y003698D02*
X036655Y003698D01*
X036675Y003728D02*
X036675Y003728D01*
X036675Y003728D01*
X037406Y004173D02*
X034879Y004173D01*
X034930Y004332D02*
X039857Y004332D01*
X039857Y004490D02*
X034930Y004490D01*
X034930Y004807D02*
X039857Y004807D01*
X039857Y004649D02*
X034425Y004649D01*
X034289Y004649D02*
X032925Y004649D01*
X032789Y004649D02*
X031147Y004649D01*
X031147Y004807D02*
X032283Y004807D01*
X032284Y004966D02*
X031112Y004966D01*
X030957Y005125D02*
X033027Y005125D01*
X032970Y005283D02*
X031661Y005283D01*
X031661Y005442D02*
X032283Y005442D01*
X032283Y005600D02*
X031661Y005600D01*
X031661Y005759D02*
X032283Y005759D01*
X032283Y005917D02*
X031661Y005917D01*
X031661Y006076D02*
X032283Y006076D01*
X032122Y007186D02*
X032046Y007186D01*
X032122Y007344D02*
X031887Y007344D01*
X031729Y007503D02*
X032122Y007503D01*
X032168Y007661D02*
X031570Y007661D01*
X031412Y007820D02*
X033267Y007820D01*
X033267Y007978D02*
X033192Y007978D01*
X033192Y008137D02*
X033267Y008137D01*
X033267Y008295D02*
X033192Y008295D01*
X033192Y008454D02*
X033267Y008529D01*
X032734Y008930D02*
X029263Y008930D01*
X029104Y009088D02*
X032893Y009088D01*
X033051Y009247D02*
X030069Y009247D01*
X030227Y009405D02*
X033210Y009405D01*
X033368Y009564D02*
X030317Y009564D01*
X030317Y009722D02*
X031835Y009722D01*
X031822Y009881D02*
X030312Y009881D01*
X030153Y010039D02*
X031822Y010039D01*
X032285Y010674D02*
X033381Y010674D01*
X033381Y010832D02*
X032868Y010832D01*
X032892Y010991D02*
X033381Y010991D01*
X033572Y011625D02*
X039857Y011625D01*
X039857Y011783D02*
X033721Y011783D01*
X034269Y011942D02*
X034444Y011942D01*
X034482Y011466D02*
X034232Y011466D01*
X034332Y011308D02*
X034381Y011308D01*
X034381Y010674D02*
X034332Y010674D01*
X035232Y011466D02*
X039857Y011466D01*
X039857Y011308D02*
X035332Y011308D01*
X035332Y011149D02*
X039857Y011149D01*
X039857Y010991D02*
X038348Y010991D01*
X038510Y010832D02*
X039857Y010832D01*
X039857Y010674D02*
X038583Y010674D01*
X038612Y010515D02*
X039857Y010515D01*
X039857Y010356D02*
X038607Y010356D01*
X038541Y010198D02*
X039857Y010198D01*
X039857Y010039D02*
X038411Y010039D01*
X037469Y009881D02*
X039857Y009881D01*
X039857Y009722D02*
X032878Y009722D01*
X032892Y010515D02*
X036602Y010515D01*
X036631Y010674D02*
X035332Y010674D01*
X035332Y010832D02*
X036703Y010832D01*
X036866Y010991D02*
X035332Y010991D01*
X035269Y011942D02*
X036958Y011942D01*
X036741Y012100D02*
X035332Y012100D01*
X034381Y012735D02*
X034332Y012735D01*
X033730Y013369D02*
X039857Y013369D01*
X039857Y013527D02*
X033888Y013527D01*
X033571Y013210D02*
X039857Y013210D01*
X039857Y013052D02*
X038200Y013052D01*
X038449Y012893D02*
X039857Y012893D01*
X039857Y012735D02*
X038557Y012735D01*
X038612Y012576D02*
X039857Y012576D01*
X039857Y012418D02*
X038612Y012418D01*
X038567Y012259D02*
X039857Y012259D01*
X039857Y012100D02*
X038472Y012100D01*
X038256Y011942D02*
X039857Y011942D01*
X039857Y013686D02*
X034841Y013686D01*
X034911Y013844D02*
X039857Y013844D01*
X039857Y014003D02*
X034911Y014003D01*
X034911Y014162D02*
X039857Y014162D01*
X039857Y014320D02*
X034911Y014320D01*
X034911Y014479D02*
X039857Y014479D01*
X039857Y014637D02*
X034889Y014637D01*
X034956Y014796D02*
X039857Y014796D01*
X039857Y014954D02*
X035189Y014954D01*
X035255Y015113D02*
X039857Y015113D01*
X039857Y015271D02*
X035252Y015271D01*
X035237Y015430D02*
X039857Y015430D01*
X039857Y015588D02*
X035237Y015588D01*
X035237Y015747D02*
X039857Y015747D01*
X039857Y015906D02*
X035237Y015906D01*
X035237Y016064D02*
X039857Y016064D01*
X039857Y016223D02*
X038144Y016223D01*
X038105Y016183D02*
X038271Y016350D01*
X038362Y016567D01*
X038362Y016803D01*
X038271Y017021D01*
X038105Y017188D01*
X037887Y017278D01*
X036826Y017278D01*
X036609Y017188D01*
X036442Y017021D01*
X036352Y016803D01*
X036352Y016567D01*
X036442Y016350D01*
X036609Y016183D01*
X036826Y016093D01*
X037887Y016093D01*
X038105Y016183D01*
X038284Y016381D02*
X039857Y016381D01*
X039857Y016540D02*
X038350Y016540D01*
X038362Y016698D02*
X039857Y016698D01*
X039857Y016857D02*
X038340Y016857D01*
X038274Y017015D02*
X039857Y017015D01*
X039857Y017174D02*
X038119Y017174D01*
X037965Y018125D02*
X039857Y018125D01*
X039857Y017967D02*
X037246Y017967D01*
X037087Y017808D02*
X039857Y017808D01*
X039857Y017649D02*
X036929Y017649D01*
X036770Y017491D02*
X039857Y017491D01*
X039857Y017332D02*
X036612Y017332D01*
X036595Y017174D02*
X036453Y017174D01*
X036440Y017015D02*
X036295Y017015D01*
X036374Y016857D02*
X036136Y016857D01*
X036352Y016698D02*
X035332Y016698D01*
X035245Y016540D02*
X036363Y016540D01*
X036429Y016381D02*
X035237Y016381D01*
X035237Y016223D02*
X036569Y016223D01*
X035713Y017649D02*
X032482Y017649D01*
X032640Y017491D02*
X034804Y017491D01*
X034435Y017808D02*
X035871Y017808D01*
X036030Y017967D02*
X035294Y017967D01*
X035332Y018125D02*
X036188Y018125D01*
X036347Y018284D02*
X035332Y018284D01*
X035332Y018442D02*
X036404Y018442D01*
X036352Y018601D02*
X035332Y018601D01*
X035317Y018759D02*
X036352Y018759D01*
X036399Y018918D02*
X032708Y018918D01*
X032811Y018759D02*
X034397Y018759D01*
X033581Y018125D02*
X032811Y018125D01*
X032811Y017967D02*
X033581Y017967D01*
X033678Y017808D02*
X032323Y017808D01*
X032799Y017332D02*
X033648Y017332D01*
X033581Y017174D02*
X032958Y017174D01*
X033116Y017015D02*
X033581Y017015D01*
X033581Y016857D02*
X033275Y016857D01*
X033433Y016698D02*
X033581Y016698D01*
X033750Y016381D02*
X034477Y016381D01*
X034477Y016223D02*
X034354Y016223D01*
X034411Y016064D02*
X034477Y016064D01*
X034477Y015906D02*
X034411Y015906D01*
X034411Y015747D02*
X034477Y015747D01*
X034477Y015588D02*
X034411Y015588D01*
X034411Y015430D02*
X034477Y015430D01*
X034461Y015271D02*
X034377Y015271D01*
X034459Y015113D02*
X029501Y015113D01*
X029605Y015271D02*
X032336Y015271D01*
X032302Y015430D02*
X029605Y015430D01*
X029605Y015588D02*
X031964Y015588D01*
X031806Y015747D02*
X029605Y015747D01*
X029605Y015906D02*
X031647Y015906D01*
X031489Y016064D02*
X029605Y016064D01*
X029605Y016223D02*
X031330Y016223D01*
X031171Y016381D02*
X030615Y016381D01*
X030727Y016540D02*
X031013Y016540D01*
X030854Y016698D02*
X030755Y016698D01*
X029307Y015588D02*
X029306Y015588D01*
X029306Y015430D02*
X029307Y015430D01*
X029306Y015271D02*
X029307Y015271D01*
X029306Y015113D02*
X029307Y015113D01*
X029112Y015113D02*
X029001Y015113D01*
X028612Y015113D02*
X028501Y015113D01*
X028237Y014954D02*
X034525Y014954D01*
X034757Y014796D02*
X028189Y014796D01*
X028009Y014637D02*
X028409Y014637D01*
X028347Y014479D02*
X024438Y014479D01*
X024487Y014320D02*
X028347Y014320D01*
X028347Y014003D02*
X024362Y014003D01*
X024467Y014162D02*
X028721Y014162D01*
X028722Y014320D02*
X028792Y014320D01*
X028792Y014479D02*
X028722Y014479D01*
X028722Y014637D02*
X028792Y014637D01*
X028792Y014003D02*
X028722Y014003D01*
X028722Y013844D02*
X028792Y013844D01*
X029029Y013686D02*
X023847Y013686D01*
X024005Y013844D02*
X028347Y013844D01*
X027704Y014637D02*
X024250Y014637D01*
X023963Y014637D02*
X022744Y014637D01*
X022586Y014796D02*
X027524Y014796D01*
X027477Y014954D02*
X025613Y014954D01*
X026001Y015113D02*
X026112Y015113D01*
X026306Y015113D02*
X026307Y015113D01*
X026306Y015271D02*
X026307Y015271D01*
X026306Y015430D02*
X026307Y015430D01*
X026306Y015588D02*
X026307Y015588D01*
X026501Y015113D02*
X026612Y015113D01*
X027001Y015113D02*
X027112Y015113D01*
X027306Y015113D02*
X027307Y015113D01*
X027306Y015271D02*
X027307Y015271D01*
X027306Y015430D02*
X027307Y015430D01*
X027306Y015588D02*
X027307Y015588D01*
X027306Y015747D02*
X027307Y015747D01*
X027306Y015906D02*
X027307Y015906D01*
X027306Y016064D02*
X027307Y016064D01*
X027306Y016223D02*
X027307Y016223D01*
X027621Y016381D02*
X026800Y016381D01*
X026640Y016540D02*
X027647Y016540D01*
X027674Y016698D02*
X023009Y016698D01*
X022850Y016540D02*
X024724Y016540D01*
X025290Y016540D02*
X025473Y016540D01*
X025100Y014954D02*
X022577Y014954D01*
X022903Y014479D02*
X023775Y014479D01*
X023727Y014320D02*
X023061Y014320D01*
X023418Y014162D02*
X023644Y014162D01*
X023167Y016857D02*
X027700Y016857D01*
X027727Y017015D02*
X023326Y017015D01*
X023485Y017174D02*
X027753Y017174D01*
X027780Y017332D02*
X023594Y017332D01*
X023597Y017491D02*
X027806Y017491D01*
X027832Y017649D02*
X023597Y017649D01*
X023597Y017808D02*
X027859Y017808D01*
X027901Y017967D02*
X023597Y017967D01*
X023597Y018125D02*
X029150Y018125D01*
X028992Y018284D02*
X026992Y018284D01*
X027109Y018442D02*
X028833Y018442D01*
X028675Y018601D02*
X027137Y018601D01*
X027306Y018759D02*
X027307Y018759D01*
X027306Y018918D02*
X027307Y018918D01*
X027306Y019076D02*
X027307Y019076D01*
X027306Y019235D02*
X027307Y019235D01*
X027306Y019393D02*
X027307Y019393D01*
X027306Y019552D02*
X027307Y019552D01*
X027306Y019711D02*
X027307Y019711D01*
X027306Y019869D02*
X027307Y019869D01*
X027475Y020028D02*
X026254Y020028D01*
X026095Y020186D02*
X027316Y020186D01*
X027158Y020345D02*
X025787Y020345D01*
X025628Y020503D02*
X026999Y020503D01*
X026841Y020662D02*
X025470Y020662D01*
X025311Y020820D02*
X025838Y020820D01*
X025741Y020979D02*
X025153Y020979D01*
X024980Y021137D02*
X025741Y021137D01*
X025741Y021296D02*
X024949Y021296D01*
X024875Y021601D02*
X024474Y021601D01*
X024474Y022008D01*
X024339Y022008D01*
X024339Y021601D01*
X023938Y021601D01*
X023833Y021706D01*
X023833Y022008D01*
X024339Y022008D01*
X024339Y022144D01*
X024339Y022551D01*
X023938Y022551D01*
X023833Y022446D01*
X023833Y022144D01*
X024339Y022144D01*
X024474Y022144D01*
X024474Y022551D01*
X024875Y022551D01*
X024980Y022446D01*
X024980Y022144D01*
X024475Y022144D01*
X024475Y022008D01*
X024980Y022008D01*
X024980Y021706D01*
X024875Y021601D01*
X024887Y021613D02*
X025741Y021613D01*
X025741Y021455D02*
X023663Y021455D01*
X023597Y021296D02*
X023864Y021296D01*
X023833Y021137D02*
X023597Y021137D01*
X023597Y020979D02*
X023833Y020979D01*
X023833Y020820D02*
X023597Y020820D01*
X023597Y020662D02*
X023833Y020662D01*
X023855Y020503D02*
X023597Y020503D01*
X023597Y020345D02*
X025108Y020345D01*
X025266Y020186D02*
X023597Y020186D01*
X023597Y020028D02*
X025425Y020028D01*
X025524Y019869D02*
X023597Y019869D01*
X023597Y019711D02*
X025509Y019711D01*
X025509Y019552D02*
X023597Y019552D01*
X023597Y019393D02*
X025509Y019393D01*
X025509Y019235D02*
X023597Y019235D01*
X023597Y019076D02*
X025509Y019076D01*
X025509Y018918D02*
X023597Y018918D01*
X023597Y018759D02*
X025588Y018759D01*
X026025Y018759D02*
X026088Y018759D01*
X026377Y018601D02*
X023597Y018601D01*
X023597Y018442D02*
X026405Y018442D01*
X026521Y018284D02*
X023597Y018284D01*
X026595Y020820D02*
X026682Y020820D01*
X026885Y021296D02*
X026922Y021296D01*
X026922Y021455D02*
X026727Y021455D01*
X026691Y021613D02*
X026922Y021613D01*
X026922Y021772D02*
X026691Y021772D01*
X026615Y021930D02*
X026999Y021930D01*
X027796Y021930D02*
X028233Y021930D01*
X028233Y022089D02*
X024475Y022089D01*
X024339Y022089D02*
X023147Y022089D01*
X023147Y022247D02*
X023833Y022247D01*
X023833Y022406D02*
X023147Y022406D01*
X023067Y022564D02*
X030138Y022564D01*
X030297Y022406D02*
X029380Y022406D01*
X029380Y022247D02*
X030455Y022247D01*
X030423Y022089D02*
X029380Y022089D01*
X029380Y021930D02*
X030423Y021930D01*
X030423Y021772D02*
X029380Y021772D01*
X029287Y021613D02*
X030423Y021613D01*
X030423Y021455D02*
X028565Y021455D01*
X028204Y021772D02*
X027872Y021772D01*
X027872Y021613D02*
X027926Y021613D01*
X028233Y022247D02*
X024980Y022247D01*
X024980Y022406D02*
X028233Y022406D01*
X029187Y023516D02*
X022841Y023516D01*
X022841Y023357D02*
X029346Y023357D01*
X029504Y023199D02*
X022384Y023199D01*
X022229Y023199D02*
X021077Y023199D01*
X021077Y023205D02*
X021877Y023205D01*
X021877Y023264D01*
X022229Y023264D01*
X022229Y023109D01*
X021877Y023109D01*
X021877Y023165D01*
X021077Y023165D01*
X021077Y023205D01*
X021077Y023206D02*
X021037Y023206D01*
X021037Y023685D01*
X020637Y023685D01*
X020453Y023609D01*
X020313Y023469D01*
X020282Y023393D01*
X020251Y023469D01*
X020110Y023609D01*
X019926Y023685D01*
X019527Y023685D01*
X019527Y023206D01*
X019487Y023206D01*
X019487Y023685D01*
X019087Y023685D01*
X018903Y023609D01*
X018763Y023469D01*
X018687Y023285D01*
X018687Y023205D01*
X019486Y023205D01*
X019486Y023165D01*
X018687Y023165D01*
X018687Y023086D01*
X018753Y022925D01*
X018404Y022925D01*
X018309Y022925D01*
X018221Y022889D01*
X017717Y022385D01*
X017717Y022426D01*
X017451Y022692D01*
X017529Y022770D01*
X017587Y022910D01*
X017587Y023061D01*
X017529Y023201D01*
X017447Y023283D01*
X017447Y025445D01*
X017626Y025445D01*
X017626Y026025D01*
X017706Y026025D01*
X017706Y025445D01*
X017981Y025445D01*
X018086Y025551D01*
X018086Y026025D01*
X017707Y026025D01*
X017707Y026105D01*
X018086Y026105D01*
X018086Y026580D01*
X017981Y026685D01*
X017706Y026685D01*
X017706Y026105D01*
X017626Y026105D01*
X017626Y026685D01*
X017447Y026685D01*
X017447Y026686D01*
X018181Y027421D01*
X018181Y027044D01*
X018172Y027035D01*
X018172Y026256D01*
X018277Y026150D01*
X019136Y026150D01*
X019242Y026256D01*
X019242Y027035D01*
X019136Y027140D01*
X019132Y027140D01*
X019132Y027421D01*
X020371Y026182D01*
X020459Y026145D01*
X020554Y026145D01*
X021117Y026145D01*
X021127Y026135D01*
X021070Y026078D01*
X021070Y025693D01*
X021127Y025635D01*
X021070Y025578D01*
X021070Y025193D01*
X021175Y025087D01*
X021467Y025087D01*
X021467Y025038D01*
X021503Y024949D01*
X021627Y024826D01*
X021627Y024710D01*
X021685Y024570D01*
X021791Y024463D01*
X021931Y024405D01*
X022082Y024405D01*
X022167Y024440D01*
X022167Y024133D01*
X022085Y024051D01*
X022027Y023911D01*
X022027Y023760D01*
X022059Y023681D01*
X021878Y023681D01*
X021772Y023576D01*
X021772Y023497D01*
X021660Y023609D01*
X021476Y023685D01*
X021077Y023685D01*
X021077Y023206D01*
X021036Y023205D02*
X021036Y023165D01*
X020327Y023165D01*
X019527Y023165D01*
X019527Y023205D01*
X020327Y023205D01*
X021036Y023205D01*
X021036Y023199D02*
X019527Y023199D01*
X019486Y023199D02*
X017530Y023199D01*
X017587Y023040D02*
X018706Y023040D01*
X018717Y023357D02*
X017447Y023357D01*
X017447Y023516D02*
X018810Y023516D01*
X019060Y023674D02*
X017447Y023674D01*
X017447Y023833D02*
X022027Y023833D01*
X022060Y023991D02*
X017447Y023991D01*
X017447Y024150D02*
X022167Y024150D01*
X022167Y024308D02*
X017447Y024308D01*
X017447Y024467D02*
X018473Y024467D01*
X018463Y024471D02*
X018621Y024405D01*
X018792Y024405D01*
X018950Y024471D01*
X019071Y024592D01*
X019137Y024750D01*
X019137Y025031D01*
X019242Y025136D01*
X019242Y025915D01*
X019136Y026020D01*
X018277Y026020D01*
X018172Y025915D01*
X018172Y025136D01*
X018277Y025031D01*
X018277Y024750D01*
X018342Y024592D01*
X018463Y024471D01*
X018328Y024625D02*
X017447Y024625D01*
X017447Y024784D02*
X018277Y024784D01*
X018277Y024942D02*
X017447Y024942D01*
X017447Y025101D02*
X018207Y025101D01*
X018172Y025260D02*
X017447Y025260D01*
X017447Y025418D02*
X018172Y025418D01*
X018172Y025577D02*
X018086Y025577D01*
X018086Y025735D02*
X018172Y025735D01*
X018172Y025894D02*
X018086Y025894D01*
X018086Y026211D02*
X018217Y026211D01*
X018172Y026369D02*
X018086Y026369D01*
X018086Y026528D02*
X018172Y026528D01*
X018172Y026686D02*
X017447Y026686D01*
X017606Y026845D02*
X018172Y026845D01*
X018172Y027004D02*
X017764Y027004D01*
X017923Y027162D02*
X018181Y027162D01*
X018181Y027321D02*
X018081Y027321D01*
X017706Y026528D02*
X017626Y026528D01*
X017626Y026369D02*
X017706Y026369D01*
X017706Y026211D02*
X017626Y026211D01*
X017707Y026052D02*
X021070Y026052D01*
X021070Y025894D02*
X019242Y025894D01*
X019242Y025735D02*
X021070Y025735D01*
X021070Y025577D02*
X019242Y025577D01*
X019242Y025418D02*
X021070Y025418D01*
X021070Y025260D02*
X019242Y025260D01*
X019207Y025101D02*
X021162Y025101D01*
X021510Y024942D02*
X019137Y024942D01*
X019137Y024784D02*
X021627Y024784D01*
X021662Y024625D02*
X019085Y024625D01*
X018941Y024467D02*
X021788Y024467D01*
X021870Y023674D02*
X021503Y023674D01*
X021754Y023516D02*
X021772Y023516D01*
X021077Y023516D02*
X021037Y023516D01*
X021037Y023674D02*
X021077Y023674D01*
X021077Y023357D02*
X021037Y023357D01*
X020610Y023674D02*
X019953Y023674D01*
X020204Y023516D02*
X020360Y023516D01*
X019527Y023516D02*
X019487Y023516D01*
X019487Y023674D02*
X019527Y023674D01*
X019527Y023357D02*
X019487Y023357D01*
X018213Y022881D02*
X017575Y022881D01*
X017482Y022723D02*
X018055Y022723D01*
X017896Y022564D02*
X017578Y022564D01*
X017717Y022406D02*
X017738Y022406D01*
X017277Y021545D02*
X017054Y021545D01*
X016959Y021545D01*
X016871Y021582D01*
X013571Y024882D01*
X013503Y024949D01*
X013467Y025038D01*
X013467Y025445D01*
X013306Y025445D01*
X013306Y026025D01*
X013226Y026025D01*
X013226Y025445D01*
X013006Y025445D01*
X012860Y025299D01*
X012860Y025299D01*
X012793Y025232D01*
X012704Y025195D01*
X012297Y025195D01*
X012297Y023738D01*
X012260Y023649D01*
X012193Y023582D01*
X010047Y021436D01*
X010047Y021383D01*
X010129Y021301D01*
X010187Y021161D01*
X010187Y021010D01*
X010129Y020870D01*
X010022Y020763D01*
X009882Y020705D01*
X009731Y020705D01*
X009647Y020740D01*
X009647Y020233D01*
X009729Y020151D01*
X009787Y020011D01*
X009787Y019860D01*
X009729Y019720D01*
X009622Y019613D01*
X009549Y019583D01*
X009906Y019225D01*
X010159Y019225D01*
X010254Y019225D01*
X010343Y019189D01*
X010663Y018869D01*
X010723Y018929D01*
X010907Y019005D01*
X011106Y019005D01*
X011267Y018939D01*
X011267Y019883D01*
X011303Y019971D01*
X011371Y020039D01*
X011371Y020039D01*
X012397Y021065D01*
X012397Y021376D01*
X012666Y021645D01*
X013047Y021645D01*
X013317Y021376D01*
X013317Y020995D01*
X013047Y020725D01*
X012736Y020725D01*
X011747Y019736D01*
X011747Y018939D01*
X011907Y019005D01*
X011987Y019005D01*
X011987Y018206D01*
X012027Y018206D01*
X012027Y019005D01*
X012106Y019005D01*
X012290Y018929D01*
X012431Y018789D01*
X012507Y018605D01*
X012507Y017766D01*
X012583Y017582D01*
X012723Y017441D01*
X012907Y017365D01*
X013106Y017365D01*
X013290Y017441D01*
X013431Y017582D01*
X013507Y017766D01*
X013507Y018605D01*
X013431Y018789D01*
X013290Y018929D01*
X013106Y019005D01*
X012907Y019005D01*
X012723Y018929D01*
X012583Y018789D01*
X012507Y018605D01*
X012507Y018205D01*
X012027Y018205D01*
X012027Y018165D01*
X012507Y018165D01*
X012507Y017766D01*
X012431Y017582D01*
X012290Y017441D01*
X012106Y017365D01*
X012027Y017365D01*
X012027Y018165D01*
X011987Y018165D01*
X011987Y017365D01*
X011907Y017365D01*
X011747Y017432D01*
X011747Y016285D01*
X011823Y016208D01*
X012289Y016208D01*
X012424Y016208D01*
X012424Y015801D01*
X012825Y015801D01*
X012930Y015906D01*
X012930Y016208D01*
X012425Y016208D01*
X012425Y016344D01*
X012930Y016344D01*
X012930Y016646D01*
X012825Y016751D01*
X012424Y016751D01*
X012424Y016344D01*
X012289Y016344D01*
X012289Y016751D01*
X011888Y016751D01*
X011783Y016646D01*
X011783Y016344D01*
X012289Y016344D01*
X012289Y016208D01*
X012289Y015801D01*
X012231Y015801D01*
X012461Y015570D01*
X012825Y015570D01*
X012930Y015465D01*
X012930Y014725D01*
X012825Y014620D01*
X011888Y014620D01*
X011783Y014725D01*
X011783Y015465D01*
X011836Y015517D01*
X011371Y015982D01*
X011303Y016049D01*
X011267Y016138D01*
X011267Y017432D01*
X011106Y017365D01*
X010907Y017365D01*
X010723Y017441D01*
X010583Y017582D01*
X010507Y017766D01*
X010507Y018346D01*
X010507Y018346D01*
X010507Y017766D01*
X010431Y017582D01*
X010290Y017441D01*
X010106Y017365D01*
X009907Y017365D01*
X009723Y017441D01*
X009663Y017502D01*
X009560Y017399D01*
X009493Y017332D01*
X009404Y017295D01*
X008161Y017295D01*
X008161Y017106D01*
X008056Y017000D01*
X007431Y017000D01*
X008161Y016270D01*
X008636Y016270D01*
X008742Y016165D01*
X008742Y015565D01*
X008872Y015565D01*
X008872Y016165D01*
X008977Y016270D01*
X009756Y016270D01*
X009861Y016165D01*
X009861Y015620D01*
X011316Y014165D01*
X011432Y014165D01*
X011572Y014107D01*
X011679Y014001D01*
X011737Y013861D01*
X011737Y013710D01*
X011679Y013570D01*
X011572Y013463D01*
X011432Y013405D01*
X011281Y013405D01*
X011141Y013463D01*
X011035Y013570D01*
X010977Y013710D01*
X010977Y013826D01*
X009602Y015200D01*
X009187Y015200D01*
X009187Y015110D01*
X009129Y014970D01*
X009022Y014863D01*
X008882Y014805D01*
X008731Y014805D01*
X008591Y014863D01*
X008509Y014945D01*
X006986Y014945D01*
X007966Y013965D01*
X008082Y013965D01*
X008222Y013907D01*
X008329Y013801D01*
X008359Y013727D01*
X008777Y014145D01*
X008777Y014261D01*
X008835Y014401D01*
X008941Y014507D01*
X009081Y014565D01*
X009232Y014565D01*
X009372Y014507D01*
X009479Y014401D01*
X009537Y014261D01*
X009537Y014110D01*
X009479Y013970D01*
X009372Y013863D01*
X009232Y013805D01*
X009116Y013805D01*
X008386Y013075D01*
X009659Y013075D01*
X009754Y013075D01*
X009843Y013039D01*
X009856Y013025D01*
X012604Y013025D01*
X012693Y012989D01*
X012760Y012921D01*
X012910Y012771D01*
X012913Y012764D01*
X012918Y012770D01*
X013230Y012770D01*
X013230Y012313D01*
X013385Y012313D01*
X013385Y012770D01*
X013567Y012770D01*
X013567Y012983D01*
X013603Y013071D01*
X013671Y013139D01*
X016527Y015995D01*
X015354Y015995D01*
X015288Y015929D01*
X015337Y015811D01*
X015337Y015660D01*
X015279Y015520D01*
X015172Y015413D01*
X015032Y015355D01*
X014930Y015355D01*
X014930Y014725D01*
X014825Y014620D01*
X013888Y014620D01*
X013783Y014725D01*
X013783Y015465D01*
X013888Y015570D01*
X014452Y015570D01*
X014577Y015695D01*
X014577Y015801D01*
X014424Y015801D01*
X014424Y016208D01*
X014289Y016208D01*
X014289Y015801D01*
X013888Y015801D01*
X013783Y015906D01*
X013783Y016208D01*
X014289Y016208D01*
X014289Y016344D01*
X014289Y016751D01*
X013888Y016751D01*
X013783Y016646D01*
X013783Y016344D01*
X014289Y016344D01*
X014424Y016344D01*
X014424Y016751D01*
X014825Y016751D01*
X014930Y016646D01*
X014930Y016594D01*
X014950Y016603D01*
X014927Y016660D01*
X014927Y016811D01*
X014985Y016951D01*
X015091Y017057D01*
X015231Y017115D01*
X015382Y017115D01*
X015522Y017057D01*
X015629Y016951D01*
X015687Y016811D01*
X015687Y016775D01*
X015877Y016775D01*
X015194Y017458D01*
X015186Y017450D01*
X014874Y017450D01*
X014874Y017908D01*
X014719Y017908D01*
X014302Y017908D01*
X014302Y017556D01*
X014407Y017450D01*
X014719Y017450D01*
X014719Y017908D01*
X014719Y018063D01*
X014302Y018063D01*
X014302Y018415D01*
X014407Y018520D01*
X014719Y018520D01*
X014719Y018063D01*
X014874Y018063D01*
X014874Y018520D01*
X015067Y018520D01*
X015067Y019012D01*
X014466Y019012D01*
X014361Y019117D01*
X014361Y020054D01*
X014466Y020159D01*
X014617Y020159D01*
X014617Y021886D01*
X014317Y022186D01*
X014317Y022186D01*
X013857Y022186D01*
X013856Y022186D01*
X013856Y022185D01*
X013397Y022185D01*
X013397Y021995D01*
X013666Y021725D01*
X013856Y021725D01*
X013856Y022185D01*
X013857Y022185D01*
X013857Y022186D01*
X013857Y022645D01*
X013857Y022645D01*
X013847Y022655D01*
X013731Y022655D01*
X013591Y022713D01*
X013485Y022820D01*
X013427Y022960D01*
X013427Y023111D01*
X013485Y023251D01*
X013591Y023357D01*
X011968Y023357D01*
X012126Y023516D02*
X014937Y023516D01*
X014778Y023674D02*
X012270Y023674D01*
X012297Y023833D02*
X014620Y023833D01*
X014461Y023991D02*
X012297Y023991D01*
X012297Y024150D02*
X014303Y024150D01*
X014144Y024308D02*
X012297Y024308D01*
X012297Y024467D02*
X013986Y024467D01*
X013827Y024625D02*
X012297Y024625D01*
X012297Y024784D02*
X013669Y024784D01*
X013510Y024942D02*
X012297Y024942D01*
X012297Y025101D02*
X013467Y025101D01*
X013467Y025260D02*
X012820Y025260D01*
X012979Y025418D02*
X013467Y025418D01*
X013306Y025577D02*
X013226Y025577D01*
X013226Y025735D02*
X013306Y025735D01*
X013306Y025894D02*
X013226Y025894D01*
X011927Y026052D02*
X011867Y026052D01*
X011867Y026211D02*
X011927Y026211D01*
X011927Y026369D02*
X011867Y026369D01*
X011867Y026528D02*
X011927Y026528D01*
X011927Y026686D02*
X011287Y026686D01*
X011287Y026845D02*
X011927Y026845D01*
X011927Y027004D02*
X011287Y027004D01*
X011287Y027162D02*
X011927Y027162D01*
X011927Y027321D02*
X011287Y027321D01*
X011287Y027479D02*
X011927Y027479D01*
X011927Y027638D02*
X011287Y027638D01*
X011287Y027796D02*
X011927Y027796D01*
X011511Y027955D02*
X011287Y027955D01*
X011287Y028113D02*
X011468Y028113D01*
X011468Y028272D02*
X011287Y028272D01*
X011287Y028430D02*
X011468Y028430D01*
X011468Y028589D02*
X011287Y028589D01*
X011287Y028748D02*
X011468Y028748D01*
X011468Y028906D02*
X011287Y028906D01*
X011287Y029065D02*
X011520Y029065D01*
X011287Y029223D02*
X013377Y029223D01*
X013377Y029382D02*
X011287Y029382D01*
X011287Y029540D02*
X013377Y029540D01*
X013377Y029699D02*
X011287Y029699D01*
X011287Y029857D02*
X013377Y029857D01*
X013377Y030016D02*
X011345Y030016D01*
X012146Y030174D02*
X013377Y030174D01*
X013309Y030333D02*
X012305Y030333D01*
X012373Y030491D02*
X013240Y030491D01*
X013214Y030650D02*
X012399Y030650D01*
X012399Y030809D02*
X013214Y030809D01*
X013214Y030967D02*
X012399Y030967D01*
X012399Y031126D02*
X013214Y031126D01*
X013214Y031284D02*
X012399Y031284D01*
X012399Y031443D02*
X013214Y031443D01*
X013214Y031601D02*
X012399Y031601D01*
X012339Y031760D02*
X013274Y031760D01*
X013389Y031918D02*
X012224Y031918D01*
X011957Y032077D02*
X013656Y032077D01*
X013957Y032077D02*
X015656Y032077D01*
X015957Y032077D02*
X017209Y032077D01*
X017367Y032235D02*
X010815Y032235D01*
X010973Y032077D02*
X011656Y032077D01*
X011389Y031918D02*
X011132Y031918D01*
X010656Y032394D02*
X020087Y032394D01*
X020087Y032548D02*
X020087Y032222D01*
X020212Y031921D01*
X020442Y031690D01*
X020744Y031565D01*
X021070Y031565D01*
X021371Y031690D01*
X021602Y031921D01*
X021727Y032222D01*
X021727Y032548D01*
X021602Y032850D01*
X021371Y033080D01*
X021070Y033205D01*
X020744Y033205D01*
X020442Y033080D01*
X020212Y032850D01*
X020087Y032548D01*
X020088Y032553D02*
X010498Y032553D01*
X010252Y032711D02*
X020154Y032711D01*
X020231Y032870D02*
X000357Y032870D01*
X000357Y033028D02*
X020390Y033028D01*
X020699Y033187D02*
X000357Y033187D01*
X000357Y033345D02*
X039857Y033345D01*
X039857Y033187D02*
X025615Y033187D01*
X025570Y033205D02*
X025244Y033205D01*
X024942Y033080D01*
X024712Y032850D01*
X024587Y032548D01*
X024587Y032222D01*
X024712Y031921D01*
X024942Y031690D01*
X025244Y031565D01*
X025570Y031565D01*
X025871Y031690D01*
X026102Y031921D01*
X026227Y032222D01*
X026227Y032548D01*
X026102Y032850D01*
X025871Y033080D01*
X025570Y033205D01*
X025199Y033187D02*
X021115Y033187D01*
X021423Y033028D02*
X024890Y033028D01*
X024731Y032870D02*
X023949Y032870D01*
X023890Y032929D02*
X023706Y033005D01*
X023507Y033005D01*
X023323Y032929D01*
X023183Y032789D01*
X023107Y032605D01*
X023107Y031766D01*
X023183Y031582D01*
X023323Y031441D01*
X023507Y031365D01*
X023706Y031365D01*
X023890Y031441D01*
X023951Y031502D01*
X025157Y030296D01*
X025001Y030360D01*
X024812Y030360D01*
X024638Y030288D01*
X024566Y030216D01*
X024543Y030239D01*
X024543Y030239D01*
X024260Y030521D01*
X024260Y030521D01*
X024193Y030589D01*
X024104Y030625D01*
X022647Y030625D01*
X022647Y031365D01*
X022706Y031365D01*
X022890Y031441D01*
X023031Y031582D01*
X023107Y031766D01*
X023107Y032605D01*
X023031Y032789D01*
X022890Y032929D01*
X022706Y033005D01*
X022507Y033005D01*
X022323Y032929D01*
X022183Y032789D01*
X022107Y032605D01*
X022107Y031766D01*
X022167Y031621D01*
X022167Y030433D01*
X022167Y030292D01*
X022001Y030360D01*
X021914Y030360D01*
X021914Y029893D01*
X021899Y029893D01*
X021899Y030360D01*
X021812Y030360D01*
X021638Y030288D01*
X021504Y030154D01*
X021432Y029980D01*
X021432Y029893D01*
X021899Y029893D01*
X021899Y029878D01*
X021432Y029878D01*
X021432Y029791D01*
X021504Y029616D01*
X021638Y029483D01*
X021812Y029410D01*
X021899Y029410D01*
X021899Y029878D01*
X021914Y029878D01*
X021914Y029410D01*
X022001Y029410D01*
X022176Y029483D01*
X022248Y029555D01*
X022271Y029532D01*
X022442Y029360D01*
X022414Y029360D01*
X022414Y028893D01*
X022399Y028893D01*
X022399Y029360D01*
X022312Y029360D01*
X022138Y029288D01*
X022004Y029154D01*
X021932Y028980D01*
X021932Y028893D01*
X022399Y028893D01*
X022399Y028878D01*
X021932Y028878D01*
X021932Y028791D01*
X022004Y028616D01*
X022138Y028483D01*
X022312Y028410D01*
X022399Y028410D01*
X022399Y028878D01*
X022414Y028878D01*
X022414Y028410D01*
X022501Y028410D01*
X022667Y028479D01*
X022667Y026338D01*
X022703Y026249D01*
X022771Y026182D01*
X023117Y025835D01*
X023117Y025693D01*
X023175Y025635D01*
X023117Y025578D01*
X023117Y025386D01*
X023730Y025386D01*
X023730Y025385D01*
X023730Y025385D01*
X023730Y025087D01*
X023223Y025087D01*
X023117Y025193D01*
X023117Y025385D01*
X023730Y025385D01*
X023730Y025087D01*
X024238Y025087D01*
X024343Y025193D01*
X024343Y025385D01*
X023731Y025385D01*
X023731Y025386D01*
X024343Y025386D01*
X024343Y025578D01*
X024286Y025635D01*
X024343Y025693D01*
X024343Y026078D01*
X024286Y026135D01*
X024343Y026193D01*
X024343Y026333D01*
X024566Y026555D01*
X024682Y026555D01*
X024822Y026613D01*
X024929Y026720D01*
X024954Y026780D01*
X025172Y026562D01*
X025172Y026347D01*
X025278Y026242D01*
X026136Y026242D01*
X026241Y026347D01*
X026241Y026712D01*
X026335Y026805D01*
X028311Y026805D01*
X028350Y026797D01*
X028396Y026805D01*
X028442Y026805D01*
X028479Y026821D01*
X028518Y026828D01*
X028557Y026853D01*
X028600Y026871D01*
X028628Y026899D01*
X028639Y026906D01*
X028756Y026906D01*
X028862Y027012D01*
X028862Y027232D01*
X029185Y027555D01*
X029873Y027555D01*
X029840Y027523D01*
X029840Y026465D01*
X031161Y026465D01*
X031161Y026305D01*
X031321Y026305D01*
X031321Y025142D01*
X032536Y025142D01*
X032641Y025248D01*
X032641Y026305D01*
X031321Y026305D01*
X031321Y026465D01*
X032641Y026465D01*
X032641Y027523D01*
X032609Y027555D01*
X036476Y027555D01*
X036442Y027521D01*
X036352Y027303D01*
X036352Y027243D01*
X037299Y027243D01*
X037299Y027128D01*
X036352Y027128D01*
X036352Y027067D01*
X036442Y026850D01*
X036609Y026683D01*
X036826Y026593D01*
X037299Y026593D01*
X037299Y027128D01*
X037414Y027128D01*
X037414Y026593D01*
X037656Y026593D01*
X036992Y025929D01*
X036930Y025778D01*
X036826Y025778D01*
X036609Y025688D01*
X036442Y025521D01*
X036352Y025303D01*
X036352Y025067D01*
X036442Y024850D01*
X036609Y024683D01*
X036826Y024593D01*
X037887Y024593D01*
X038105Y024683D01*
X038271Y024850D01*
X038362Y025067D01*
X038362Y025303D01*
X038271Y025521D01*
X038105Y025688D01*
X038007Y025728D01*
X038800Y026521D01*
X038921Y026642D01*
X038987Y026800D01*
X038987Y027400D01*
X038987Y027571D01*
X038921Y027729D01*
X038421Y028229D01*
X038300Y028350D01*
X038142Y028415D01*
X032224Y028415D01*
X032329Y028520D01*
X032387Y028660D01*
X032387Y028811D01*
X032329Y028951D01*
X032247Y029033D01*
X032247Y030399D01*
X032795Y030399D01*
X032900Y030505D01*
X032900Y031166D01*
X032795Y031271D01*
X031229Y031271D01*
X031123Y031166D01*
X031123Y030505D01*
X031229Y030399D01*
X031767Y030399D01*
X031767Y029033D01*
X031685Y028951D01*
X031627Y028811D01*
X031627Y028660D01*
X031685Y028520D01*
X031789Y028415D01*
X029337Y028415D01*
X029337Y030399D01*
X029695Y030399D01*
X029800Y030505D01*
X029800Y031166D01*
X029695Y031271D01*
X028128Y031271D01*
X028023Y031166D01*
X028023Y030505D01*
X028128Y030399D01*
X028477Y030399D01*
X028477Y028063D01*
X028235Y027822D01*
X028201Y027800D01*
X028175Y027762D01*
X028142Y027729D01*
X028127Y027692D01*
X028108Y027665D01*
X026242Y027665D01*
X026071Y027665D01*
X025913Y027600D01*
X025632Y027318D01*
X024528Y028422D01*
X024676Y028483D01*
X024738Y028545D01*
X026672Y028545D01*
X026672Y028386D01*
X026777Y028281D01*
X027636Y028281D01*
X027742Y028386D01*
X027742Y029165D01*
X027636Y029270D01*
X026777Y029270D01*
X026672Y029165D01*
X026672Y029025D01*
X024863Y029025D01*
X024809Y029154D01*
X024676Y029288D01*
X024647Y029300D01*
X024647Y029479D01*
X024812Y029410D01*
X025001Y029410D01*
X025176Y029483D01*
X025309Y029616D01*
X025321Y029645D01*
X025809Y029645D01*
X025904Y029645D01*
X026672Y029645D01*
X026672Y029506D01*
X026777Y029400D01*
X027636Y029400D01*
X027742Y029506D01*
X027742Y030285D01*
X027636Y030390D01*
X026777Y030390D01*
X026672Y030285D01*
X026672Y030125D01*
X026006Y030125D01*
X025993Y030139D01*
X024107Y032025D01*
X024107Y032605D01*
X024031Y032789D01*
X023890Y032929D01*
X024063Y032711D02*
X024654Y032711D01*
X024588Y032553D02*
X024107Y032553D01*
X024107Y032394D02*
X024587Y032394D01*
X024587Y032235D02*
X024107Y032235D01*
X024107Y032077D02*
X024647Y032077D01*
X024714Y031918D02*
X024213Y031918D01*
X024372Y031760D02*
X024873Y031760D01*
X025157Y031601D02*
X024530Y031601D01*
X024689Y031443D02*
X036229Y031443D01*
X036195Y031336D02*
X036195Y031336D01*
X036195Y030835D01*
X036343Y030356D01*
X036625Y029943D01*
X036625Y029943D01*
X036625Y029943D01*
X037017Y029630D01*
X037483Y029447D01*
X037982Y029410D01*
X038470Y029521D01*
X038470Y029522D02*
X038904Y029772D01*
X039245Y030139D01*
X039462Y030590D01*
X039462Y030590D01*
X039537Y031085D01*
X039462Y031580D01*
X039462Y031581D01*
X039245Y032032D01*
X038904Y032399D01*
X038470Y032649D01*
X037982Y032761D01*
X037483Y032723D01*
X037483Y032723D01*
X037017Y032540D01*
X036625Y032228D01*
X036343Y031814D01*
X036195Y031336D01*
X036195Y031284D02*
X024847Y031284D01*
X025006Y031126D02*
X028023Y031126D01*
X028023Y030967D02*
X025164Y030967D01*
X025323Y030809D02*
X028023Y030809D01*
X028023Y030650D02*
X025481Y030650D01*
X025640Y030491D02*
X028036Y030491D01*
X027693Y030333D02*
X028477Y030333D01*
X028477Y030174D02*
X027742Y030174D01*
X027742Y030016D02*
X028477Y030016D01*
X028477Y029857D02*
X027742Y029857D01*
X027742Y029699D02*
X028477Y029699D01*
X028477Y029540D02*
X027742Y029540D01*
X027683Y029223D02*
X028477Y029223D01*
X028477Y029065D02*
X027742Y029065D01*
X027742Y028906D02*
X028477Y028906D01*
X028477Y028748D02*
X027742Y028748D01*
X027742Y028589D02*
X028477Y028589D01*
X028477Y028430D02*
X027742Y028430D01*
X028477Y028272D02*
X024678Y028272D01*
X024550Y028430D02*
X026672Y028430D01*
X026672Y029065D02*
X024847Y029065D01*
X024741Y029223D02*
X026730Y029223D01*
X026672Y029540D02*
X025233Y029540D01*
X024647Y029382D02*
X028477Y029382D01*
X029337Y029382D02*
X031767Y029382D01*
X031767Y029540D02*
X029337Y029540D01*
X029337Y029699D02*
X031767Y029699D01*
X031767Y029857D02*
X029337Y029857D01*
X029337Y030016D02*
X031767Y030016D01*
X031767Y030174D02*
X029337Y030174D01*
X029337Y030333D02*
X031767Y030333D01*
X032247Y030333D02*
X036359Y030333D01*
X036343Y030356D02*
X036343Y030356D01*
X036301Y030491D02*
X032887Y030491D01*
X032900Y030650D02*
X036252Y030650D01*
X036204Y030809D02*
X032900Y030809D01*
X032900Y030967D02*
X036195Y030967D01*
X036195Y030835D02*
X036195Y030835D01*
X036195Y031126D02*
X032900Y031126D01*
X032247Y030174D02*
X036467Y030174D01*
X036575Y030016D02*
X032247Y030016D01*
X032247Y029857D02*
X036732Y029857D01*
X036931Y029699D02*
X032247Y029699D01*
X032247Y029540D02*
X037246Y029540D01*
X037017Y029630D02*
X037017Y029630D01*
X038470Y029521D02*
X038470Y029522D01*
X038503Y029540D02*
X039857Y029540D01*
X039857Y029382D02*
X032247Y029382D01*
X032247Y029223D02*
X039857Y029223D01*
X039857Y029065D02*
X032247Y029065D01*
X032347Y028906D02*
X039857Y028906D01*
X039857Y028748D02*
X032387Y028748D01*
X032357Y028589D02*
X039857Y028589D01*
X039857Y028430D02*
X032239Y028430D01*
X031774Y028430D02*
X029337Y028430D01*
X029337Y028589D02*
X031656Y028589D01*
X031627Y028748D02*
X029337Y028748D01*
X029337Y028906D02*
X031666Y028906D01*
X031767Y029065D02*
X029337Y029065D01*
X029337Y029223D02*
X031767Y029223D01*
X031137Y030491D02*
X029787Y030491D01*
X029800Y030650D02*
X031123Y030650D01*
X031123Y030809D02*
X029800Y030809D01*
X029800Y030967D02*
X031123Y030967D01*
X031123Y031126D02*
X029800Y031126D01*
X026720Y030333D02*
X025798Y030333D01*
X025957Y030174D02*
X026672Y030174D01*
X025657Y031601D02*
X036277Y031601D01*
X036326Y031760D02*
X025941Y031760D01*
X026099Y031918D02*
X036414Y031918D01*
X036343Y031814D02*
X036343Y031814D01*
X036522Y032077D02*
X026166Y032077D01*
X026227Y032235D02*
X036635Y032235D01*
X036625Y032228D02*
X036625Y032228D01*
X036833Y032394D02*
X026227Y032394D01*
X026225Y032553D02*
X037048Y032553D01*
X037017Y032540D02*
X037017Y032540D01*
X037452Y032711D02*
X026159Y032711D01*
X026082Y032870D02*
X039857Y032870D01*
X039857Y033028D02*
X025923Y033028D01*
X024168Y031284D02*
X022647Y031284D01*
X022647Y031126D02*
X024327Y031126D01*
X024486Y030967D02*
X022647Y030967D01*
X022647Y030809D02*
X024644Y030809D01*
X024803Y030650D02*
X022647Y030650D01*
X022167Y030650D02*
X019331Y030650D01*
X019173Y030809D02*
X022167Y030809D01*
X022167Y030967D02*
X019014Y030967D01*
X018856Y031126D02*
X022167Y031126D01*
X022167Y031284D02*
X018697Y031284D01*
X018647Y031443D02*
X022167Y031443D01*
X022167Y031601D02*
X021157Y031601D01*
X021441Y031760D02*
X022109Y031760D01*
X022107Y031918D02*
X021599Y031918D01*
X021666Y032077D02*
X022107Y032077D01*
X022107Y032235D02*
X021727Y032235D01*
X021727Y032394D02*
X022107Y032394D01*
X022107Y032553D02*
X021725Y032553D01*
X021659Y032711D02*
X022151Y032711D01*
X022264Y032870D02*
X021582Y032870D01*
X020087Y032235D02*
X018246Y032235D01*
X018404Y032077D02*
X020147Y032077D01*
X020214Y031918D02*
X018563Y031918D01*
X018647Y031760D02*
X020373Y031760D01*
X020657Y031601D02*
X018647Y031601D01*
X019490Y030491D02*
X022167Y030491D01*
X022167Y030333D02*
X022067Y030333D01*
X021914Y030333D02*
X021899Y030333D01*
X021746Y030333D02*
X019648Y030333D01*
X019807Y030174D02*
X021524Y030174D01*
X021447Y030016D02*
X019966Y030016D01*
X020124Y029857D02*
X021432Y029857D01*
X021470Y029699D02*
X020283Y029699D01*
X020441Y029540D02*
X021580Y029540D01*
X021501Y029360D02*
X021414Y029360D01*
X021414Y028893D01*
X021882Y028893D01*
X021882Y028980D01*
X021809Y029154D01*
X021676Y029288D01*
X021501Y029360D01*
X021414Y029223D02*
X021399Y029223D01*
X021399Y029065D02*
X021414Y029065D01*
X021399Y028906D02*
X021414Y028906D01*
X021741Y029223D02*
X022073Y029223D01*
X021967Y029065D02*
X021847Y029065D01*
X021882Y028906D02*
X021932Y028906D01*
X021950Y028748D02*
X021864Y028748D01*
X021782Y028589D02*
X022031Y028589D01*
X022264Y028430D02*
X021551Y028430D01*
X021710Y028272D02*
X022667Y028272D01*
X022667Y028430D02*
X022550Y028430D01*
X022414Y028430D02*
X022399Y028430D01*
X022399Y028589D02*
X022414Y028589D01*
X022399Y028748D02*
X022414Y028748D01*
X022399Y028906D02*
X022414Y028906D01*
X022399Y029065D02*
X022414Y029065D01*
X022399Y029223D02*
X022414Y029223D01*
X022421Y029382D02*
X020600Y029382D01*
X020758Y029223D02*
X021073Y029223D01*
X020967Y029065D02*
X020917Y029065D01*
X021899Y029540D02*
X021914Y029540D01*
X021899Y029699D02*
X021914Y029699D01*
X021899Y029857D02*
X021914Y029857D01*
X021899Y030016D02*
X021914Y030016D01*
X021899Y030174D02*
X021914Y030174D01*
X022233Y029540D02*
X022262Y029540D01*
X021863Y028113D02*
X022667Y028113D01*
X022667Y027955D02*
X021897Y027955D01*
X021897Y027796D02*
X022667Y027796D01*
X022667Y027638D02*
X021897Y027638D01*
X021897Y027479D02*
X022667Y027479D01*
X022667Y027321D02*
X021897Y027321D01*
X022212Y027162D02*
X022667Y027162D01*
X022667Y027004D02*
X022296Y027004D01*
X022296Y026845D02*
X022667Y026845D01*
X022667Y026686D02*
X022290Y026686D01*
X022296Y026528D02*
X022667Y026528D01*
X022667Y026369D02*
X022296Y026369D01*
X022296Y026211D02*
X022742Y026211D01*
X022900Y026052D02*
X022296Y026052D01*
X022338Y025894D02*
X023059Y025894D01*
X023117Y025735D02*
X022496Y025735D01*
X022629Y025577D02*
X023117Y025577D01*
X023117Y025418D02*
X022647Y025418D01*
X022647Y025260D02*
X023117Y025260D01*
X023209Y025101D02*
X022647Y025101D01*
X022647Y024942D02*
X028167Y024942D01*
X028167Y024784D02*
X022647Y024784D01*
X022647Y024625D02*
X028111Y024625D01*
X028111Y024467D02*
X022647Y024467D01*
X022647Y024308D02*
X028111Y024308D01*
X028111Y024150D02*
X022647Y024150D01*
X022753Y023991D02*
X028111Y023991D01*
X028111Y023833D02*
X022787Y023833D01*
X022751Y023674D02*
X029028Y023674D01*
X029100Y024308D02*
X029630Y024308D01*
X029630Y024313D02*
X029630Y024158D01*
X029785Y024158D01*
X029785Y023701D01*
X030097Y023701D01*
X030203Y023806D01*
X030203Y024158D01*
X029786Y024158D01*
X029786Y024313D01*
X030203Y024313D01*
X030203Y024664D01*
X030097Y024770D01*
X029785Y024770D01*
X029785Y024313D01*
X029630Y024313D01*
X029213Y024313D01*
X029213Y024664D01*
X029318Y024770D01*
X029630Y024770D01*
X029630Y024313D01*
X029630Y024467D02*
X029785Y024467D01*
X029785Y024625D02*
X029630Y024625D01*
X029786Y024308D02*
X039857Y024308D01*
X039857Y024150D02*
X030203Y024150D01*
X030203Y023991D02*
X039857Y023991D01*
X039857Y023833D02*
X030203Y023833D01*
X029785Y023833D02*
X029630Y023833D01*
X029630Y023991D02*
X029785Y023991D01*
X029785Y024150D02*
X029630Y024150D01*
X029707Y023674D02*
X039857Y023674D01*
X039857Y023516D02*
X029866Y023516D01*
X030024Y023357D02*
X039857Y023357D01*
X039857Y023199D02*
X030183Y023199D01*
X030341Y023040D02*
X039857Y023040D01*
X039857Y022881D02*
X030500Y022881D01*
X030659Y022723D02*
X039857Y022723D01*
X039857Y022564D02*
X030817Y022564D01*
X030976Y022406D02*
X039857Y022406D01*
X039857Y022247D02*
X031134Y022247D01*
X031407Y021296D02*
X029349Y021296D01*
X029380Y021137D02*
X031565Y021137D01*
X031567Y020979D02*
X029380Y020979D01*
X029380Y020820D02*
X031567Y020820D01*
X031567Y020662D02*
X029380Y020662D01*
X029392Y020503D02*
X029359Y020503D01*
X031471Y020503D02*
X031567Y020503D01*
X032047Y020503D02*
X039857Y020503D01*
X039857Y020345D02*
X032047Y020345D01*
X032047Y020186D02*
X039857Y020186D01*
X039857Y020028D02*
X032047Y020028D01*
X032047Y019869D02*
X039857Y019869D01*
X039857Y019711D02*
X032047Y019711D01*
X032047Y019552D02*
X039857Y019552D01*
X039857Y019393D02*
X032047Y019393D01*
X032047Y019235D02*
X036723Y019235D01*
X036497Y019076D02*
X032047Y019076D01*
X032047Y020662D02*
X039857Y020662D01*
X039857Y020820D02*
X032047Y020820D01*
X032047Y020979D02*
X039857Y020979D01*
X039857Y021137D02*
X032047Y021137D01*
X032041Y021296D02*
X039857Y021296D01*
X039857Y021455D02*
X035300Y021455D01*
X035300Y021737D01*
X034460Y021737D01*
X034460Y021349D01*
X035195Y021349D01*
X035300Y021455D01*
X035300Y021613D02*
X039857Y021613D01*
X039857Y021772D02*
X034460Y021772D01*
X034460Y021737D02*
X034460Y021833D01*
X035300Y021833D01*
X035300Y022116D01*
X035195Y022221D01*
X034460Y022221D01*
X034460Y021834D01*
X034364Y021834D01*
X034364Y022221D01*
X033629Y022221D01*
X033523Y022116D01*
X033523Y021833D01*
X034364Y021833D01*
X034364Y021737D01*
X034460Y021737D01*
X034364Y021737D02*
X034364Y021349D01*
X033629Y021349D01*
X033523Y021455D01*
X033523Y021737D01*
X034364Y021737D01*
X034364Y021772D02*
X032200Y021772D01*
X032200Y021930D02*
X033523Y021930D01*
X033523Y022089D02*
X032200Y022089D01*
X032200Y021613D02*
X033523Y021613D01*
X033524Y021455D02*
X032200Y021455D01*
X034364Y021455D02*
X034460Y021455D01*
X034460Y021613D02*
X034364Y021613D01*
X034364Y021930D02*
X034460Y021930D01*
X034460Y022089D02*
X034364Y022089D01*
X035300Y022089D02*
X039857Y022089D01*
X039857Y021930D02*
X035300Y021930D01*
X036748Y024625D02*
X030203Y024625D01*
X030203Y024467D02*
X039857Y024467D01*
X039857Y024625D02*
X037966Y024625D01*
X038206Y024784D02*
X039857Y024784D01*
X039857Y024942D02*
X038310Y024942D01*
X038362Y025101D02*
X039857Y025101D01*
X039857Y025260D02*
X038362Y025260D01*
X038314Y025418D02*
X039857Y025418D01*
X039857Y025577D02*
X038216Y025577D01*
X038015Y025735D02*
X039857Y025735D01*
X039857Y025894D02*
X038173Y025894D01*
X038332Y026052D02*
X039857Y026052D01*
X039857Y026211D02*
X038490Y026211D01*
X038649Y026369D02*
X039857Y026369D01*
X039857Y026528D02*
X038807Y026528D01*
X038940Y026686D02*
X039857Y026686D01*
X039857Y026845D02*
X038987Y026845D01*
X038987Y027004D02*
X039857Y027004D01*
X039857Y027162D02*
X038987Y027162D01*
X038987Y027321D02*
X039857Y027321D01*
X039857Y027479D02*
X038987Y027479D01*
X038959Y027638D02*
X039857Y027638D01*
X039857Y027796D02*
X038854Y027796D01*
X038695Y027955D02*
X039857Y027955D01*
X039857Y028113D02*
X038537Y028113D01*
X038378Y028272D02*
X039857Y028272D01*
X039857Y029699D02*
X038777Y029699D01*
X038983Y029857D02*
X039857Y029857D01*
X039857Y030016D02*
X039130Y030016D01*
X039245Y030139D02*
X039245Y030139D01*
X039262Y030174D02*
X039857Y030174D01*
X039857Y030333D02*
X039338Y030333D01*
X039414Y030491D02*
X039857Y030491D01*
X039857Y030650D02*
X039471Y030650D01*
X039495Y030809D02*
X039857Y030809D01*
X039857Y030967D02*
X039519Y030967D01*
X039531Y031126D02*
X039857Y031126D01*
X039857Y031284D02*
X039507Y031284D01*
X039483Y031443D02*
X039857Y031443D01*
X039857Y031601D02*
X039452Y031601D01*
X039376Y031760D02*
X039857Y031760D01*
X039857Y031918D02*
X039299Y031918D01*
X039245Y032032D02*
X039245Y032032D01*
X039203Y032077D02*
X039857Y032077D01*
X039857Y032235D02*
X039056Y032235D01*
X038909Y032394D02*
X039857Y032394D01*
X039857Y032553D02*
X038638Y032553D01*
X038470Y032649D02*
X038470Y032649D01*
X038199Y032711D02*
X039857Y032711D01*
X039857Y033504D02*
X000357Y033504D01*
X000357Y033662D02*
X039857Y033662D01*
X038904Y032399D02*
X038904Y032399D01*
X037982Y032761D02*
X037982Y032761D01*
X036425Y027479D02*
X032641Y027479D01*
X032641Y027321D02*
X036359Y027321D01*
X036378Y027004D02*
X032641Y027004D01*
X032641Y027162D02*
X037299Y027162D01*
X037299Y027004D02*
X037414Y027004D01*
X037414Y026845D02*
X037299Y026845D01*
X037299Y026686D02*
X037414Y026686D01*
X037591Y026528D02*
X032641Y026528D01*
X032641Y026686D02*
X036605Y026686D01*
X036447Y026845D02*
X032641Y026845D01*
X032641Y026211D02*
X037274Y026211D01*
X037433Y026369D02*
X031321Y026369D01*
X031321Y026211D02*
X031161Y026211D01*
X031161Y026305D02*
X031161Y025142D01*
X029946Y025142D01*
X029840Y025248D01*
X029840Y026305D01*
X031161Y026305D01*
X031161Y026369D02*
X026241Y026369D01*
X026241Y026528D02*
X029840Y026528D01*
X029840Y026686D02*
X026241Y026686D01*
X026212Y026052D02*
X029840Y026052D01*
X029840Y025894D02*
X026241Y025894D01*
X025784Y025894D02*
X025629Y025894D01*
X025629Y026052D02*
X025784Y026052D01*
X025784Y025735D02*
X025629Y025735D01*
X025629Y025577D02*
X024343Y025577D01*
X024343Y025735D02*
X025172Y025735D01*
X025172Y025894D02*
X024343Y025894D01*
X024343Y026052D02*
X025201Y026052D01*
X025172Y026369D02*
X024380Y026369D01*
X024343Y026211D02*
X029840Y026211D01*
X029840Y026845D02*
X028545Y026845D01*
X028854Y027004D02*
X029840Y027004D01*
X029840Y027162D02*
X028862Y027162D01*
X028950Y027321D02*
X029840Y027321D01*
X029840Y027479D02*
X029109Y027479D01*
X028368Y027955D02*
X024995Y027955D01*
X024837Y028113D02*
X028477Y028113D01*
X028199Y027796D02*
X025154Y027796D01*
X025312Y027638D02*
X026005Y027638D01*
X025792Y027479D02*
X025471Y027479D01*
X025629Y027321D02*
X025634Y027321D01*
X025047Y026686D02*
X024895Y026686D01*
X025172Y026528D02*
X024539Y026528D01*
X024343Y025418D02*
X025172Y025418D01*
X025172Y025260D02*
X024343Y025260D01*
X024252Y025101D02*
X028167Y025101D01*
X028647Y025101D02*
X036352Y025101D01*
X036352Y025260D02*
X032641Y025260D01*
X032641Y025418D02*
X036399Y025418D01*
X036498Y025577D02*
X032641Y025577D01*
X032641Y025735D02*
X036723Y025735D01*
X036978Y025894D02*
X032641Y025894D01*
X032641Y026052D02*
X037116Y026052D01*
X036403Y024942D02*
X028647Y024942D01*
X028647Y024784D02*
X036508Y024784D01*
X031321Y025260D02*
X031161Y025260D01*
X031161Y025418D02*
X031321Y025418D01*
X031321Y025577D02*
X031161Y025577D01*
X031161Y025735D02*
X031321Y025735D01*
X031321Y025894D02*
X031161Y025894D01*
X031161Y026052D02*
X031321Y026052D01*
X029840Y025735D02*
X028862Y025735D01*
X028862Y025577D02*
X029840Y025577D01*
X029840Y025418D02*
X028862Y025418D01*
X028862Y025260D02*
X029840Y025260D01*
X029213Y024625D02*
X029100Y024625D01*
X029100Y024467D02*
X029213Y024467D01*
X027872Y025735D02*
X026694Y025735D01*
X025784Y025418D02*
X025629Y025418D01*
X025629Y025260D02*
X025784Y025260D01*
X023730Y025260D02*
X023730Y025260D01*
X023730Y025101D02*
X023730Y025101D01*
X022841Y023040D02*
X029663Y023040D01*
X029821Y022881D02*
X022841Y022881D01*
X022909Y022723D02*
X029980Y022723D01*
X025817Y021930D02*
X024980Y021930D01*
X024980Y021772D02*
X025741Y021772D01*
X024474Y021772D02*
X024339Y021772D01*
X024339Y021930D02*
X024474Y021930D01*
X024474Y021613D02*
X024339Y021613D01*
X023926Y021613D02*
X023737Y021613D01*
X023732Y021772D02*
X023833Y021772D01*
X023833Y021930D02*
X023649Y021930D01*
X024339Y022247D02*
X024474Y022247D01*
X024474Y022406D02*
X024339Y022406D01*
X027525Y018759D02*
X027588Y018759D01*
X028025Y018759D02*
X028088Y018759D01*
X028857Y016685D02*
X028807Y016635D01*
X030304Y014637D02*
X030783Y014637D01*
X030783Y014646D02*
X030783Y014344D01*
X031289Y014344D01*
X031289Y014751D01*
X030888Y014751D01*
X030783Y014646D01*
X030783Y014479D02*
X030367Y014479D01*
X030367Y014320D02*
X031289Y014320D01*
X031289Y014344D02*
X031289Y014208D01*
X031424Y014208D01*
X031424Y013801D01*
X031825Y013801D01*
X031930Y013906D01*
X031930Y014208D01*
X031425Y014208D01*
X031425Y014344D01*
X031930Y014344D01*
X031930Y014646D01*
X031825Y014751D01*
X031424Y014751D01*
X031424Y014344D01*
X031289Y014344D01*
X031289Y014479D02*
X031424Y014479D01*
X031424Y014637D02*
X031289Y014637D01*
X031425Y014320D02*
X032802Y014320D01*
X032802Y014263D02*
X033219Y014263D01*
X033219Y014720D01*
X032907Y014720D01*
X032802Y014615D01*
X032802Y014263D01*
X032802Y014479D02*
X031930Y014479D01*
X031930Y014637D02*
X032824Y014637D01*
X033219Y014637D02*
X033374Y014637D01*
X033374Y014479D02*
X033219Y014479D01*
X033219Y014320D02*
X033374Y014320D01*
X033375Y014162D02*
X033843Y014162D01*
X033792Y014320D02*
X033922Y014320D01*
X033922Y014479D02*
X033792Y014479D01*
X033769Y014637D02*
X033944Y014637D01*
X033456Y015271D02*
X033257Y015271D01*
X033292Y015430D02*
X033422Y015430D01*
X033422Y015588D02*
X033292Y015588D01*
X033292Y015747D02*
X033422Y015747D01*
X033422Y015906D02*
X033292Y015906D01*
X033292Y016064D02*
X033389Y016064D01*
X031289Y014208D02*
X031289Y013801D01*
X030888Y013801D01*
X030783Y013906D01*
X030783Y014208D01*
X031289Y014208D01*
X031289Y014162D02*
X031424Y014162D01*
X031424Y014003D02*
X031289Y014003D01*
X031289Y013844D02*
X031424Y013844D01*
X031869Y013844D02*
X032802Y013844D01*
X032802Y014003D02*
X031930Y014003D01*
X031930Y014162D02*
X033219Y014162D01*
X033219Y014003D02*
X033374Y014003D01*
X033374Y013844D02*
X033219Y013844D01*
X033219Y013686D02*
X033368Y013686D01*
X033209Y013527D02*
X031868Y013527D01*
X032204Y012893D02*
X036764Y012893D01*
X037013Y013052D02*
X033412Y013052D01*
X033381Y012735D02*
X032045Y012735D01*
X032193Y012882D02*
X032193Y012882D01*
X031887Y012576D02*
X033381Y012576D01*
X033381Y012418D02*
X031728Y012418D01*
X031570Y012259D02*
X033264Y012259D01*
X033095Y012100D02*
X031411Y012100D01*
X031253Y011942D02*
X032881Y011942D01*
X032827Y011783D02*
X031094Y011783D01*
X030936Y011625D02*
X031822Y011625D01*
X031822Y011466D02*
X030777Y011466D01*
X030618Y011308D02*
X031822Y011308D01*
X031822Y011149D02*
X030460Y011149D01*
X030301Y010991D02*
X031575Y010991D01*
X031456Y010832D02*
X030143Y010832D01*
X030336Y011783D02*
X030415Y011783D01*
X030574Y011942D02*
X030153Y011942D01*
X030197Y012100D02*
X030732Y012100D01*
X030891Y012259D02*
X030330Y012259D01*
X030367Y012418D02*
X031050Y012418D01*
X031208Y012576D02*
X030367Y012576D01*
X030367Y012735D02*
X030783Y012735D01*
X030783Y012893D02*
X030367Y012893D01*
X030367Y013052D02*
X030783Y013052D01*
X030783Y013210D02*
X030197Y013210D01*
X030197Y013369D02*
X030783Y013369D01*
X030846Y013527D02*
X030197Y013527D01*
X030197Y013686D02*
X032872Y013686D01*
X030845Y013844D02*
X030367Y013844D01*
X030367Y014003D02*
X030783Y014003D01*
X030783Y014162D02*
X030367Y014162D01*
X028965Y010039D02*
X028800Y010039D01*
X027727Y009722D02*
X026659Y009722D01*
X026659Y009564D02*
X026927Y009564D01*
X027086Y009564D02*
X027746Y009564D01*
X027849Y009405D02*
X027324Y009405D01*
X026718Y008137D02*
X026659Y008137D01*
X026644Y007978D02*
X029499Y007978D01*
X029397Y007820D02*
X026659Y007820D01*
X026659Y007685D02*
X026046Y007685D01*
X026046Y007387D01*
X026046Y007186D01*
X026045Y007186D01*
X026045Y007185D01*
X026046Y007185D01*
X026046Y007186D01*
X026659Y007186D01*
X028177Y007186D01*
X028190Y007027D02*
X026659Y007027D01*
X026659Y006993D02*
X026659Y007185D01*
X026046Y007185D01*
X026046Y006887D01*
X026046Y006686D01*
X026659Y006686D01*
X026659Y006878D01*
X026601Y006935D01*
X026659Y006993D01*
X026659Y006869D02*
X028286Y006869D01*
X028643Y006710D02*
X026659Y006710D01*
X026659Y006551D02*
X028801Y006551D01*
X028960Y006393D02*
X027086Y006393D01*
X027206Y006234D02*
X029118Y006234D01*
X029277Y006076D02*
X027237Y006076D01*
X028274Y005917D02*
X029435Y005917D01*
X029552Y005759D02*
X028473Y005759D01*
X028631Y005600D02*
X029552Y005600D01*
X029552Y005442D02*
X028790Y005442D01*
X028948Y005283D02*
X029552Y005283D01*
X029265Y004966D02*
X030437Y004966D01*
X030595Y004807D02*
X029424Y004807D01*
X029582Y004649D02*
X030283Y004649D01*
X030160Y004490D02*
X029741Y004490D01*
X029900Y004332D02*
X030127Y004332D01*
X030367Y003856D02*
X030422Y003856D01*
X030422Y003698D02*
X030292Y003698D01*
X030292Y003539D02*
X030422Y003539D01*
X030422Y003381D02*
X030292Y003381D01*
X030258Y003222D02*
X030455Y003222D01*
X030047Y003064D02*
X031902Y003064D01*
X031902Y003222D02*
X031378Y003222D01*
X031411Y003381D02*
X031902Y003381D01*
X031902Y003563D02*
X032319Y003563D01*
X032319Y004020D01*
X032007Y004020D01*
X031902Y003915D01*
X031902Y003563D01*
X031902Y003698D02*
X031411Y003698D01*
X031411Y003856D02*
X031902Y003856D01*
X032002Y004015D02*
X031411Y004015D01*
X031353Y004173D02*
X032335Y004173D01*
X032283Y004225D02*
X032388Y004120D01*
X032789Y004120D01*
X032789Y004527D01*
X032283Y004527D01*
X032283Y004225D01*
X032283Y004332D02*
X031147Y004332D01*
X031147Y004490D02*
X032283Y004490D01*
X032319Y004015D02*
X032474Y004015D01*
X032474Y003856D02*
X032319Y003856D01*
X032319Y003698D02*
X032474Y003698D01*
X032475Y003539D02*
X033022Y003539D01*
X033022Y003381D02*
X032892Y003381D01*
X032892Y003698D02*
X033022Y003698D01*
X033022Y003856D02*
X032892Y003856D01*
X032792Y004015D02*
X033122Y004015D01*
X032924Y004173D02*
X032789Y004173D01*
X032789Y004332D02*
X032924Y004332D01*
X032924Y004490D02*
X032789Y004490D01*
X032789Y004807D02*
X032924Y004807D01*
X032924Y004966D02*
X032789Y004966D01*
X034289Y004966D02*
X034424Y004966D01*
X034424Y004807D02*
X034289Y004807D01*
X034289Y004490D02*
X034424Y004490D01*
X034424Y004332D02*
X034289Y004332D01*
X034289Y004173D02*
X034424Y004173D01*
X034929Y004966D02*
X039857Y004966D01*
X039857Y005442D02*
X034930Y005442D01*
X034930Y005600D02*
X039857Y005600D01*
X039857Y005759D02*
X034930Y005759D01*
X034930Y005917D02*
X037017Y005917D01*
X036766Y006076D02*
X034930Y006076D01*
X034842Y006234D02*
X035441Y006234D01*
X035740Y006869D02*
X036739Y006869D01*
X036954Y007027D02*
X035582Y007027D01*
X035532Y007186D02*
X039857Y007186D01*
X039857Y007344D02*
X035532Y007344D01*
X035495Y007503D02*
X039857Y007503D01*
X039857Y007661D02*
X034997Y007661D01*
X034839Y007820D02*
X039857Y007820D01*
X039857Y007978D02*
X038344Y007978D01*
X038509Y008137D02*
X039857Y008137D01*
X039857Y008295D02*
X038582Y008295D01*
X038612Y008454D02*
X039857Y008454D01*
X039857Y008613D02*
X038608Y008613D01*
X038542Y008771D02*
X039857Y008771D01*
X039857Y008930D02*
X038413Y008930D01*
X037471Y009088D02*
X039857Y009088D01*
X039857Y009247D02*
X037312Y009247D01*
X037153Y009405D02*
X039857Y009405D01*
X039857Y009564D02*
X036995Y009564D01*
X036696Y008930D02*
X035446Y008930D01*
X035532Y008771D02*
X036671Y008771D01*
X036606Y008613D02*
X035532Y008613D01*
X035532Y008454D02*
X036602Y008454D01*
X036631Y008295D02*
X035532Y008295D01*
X035532Y008137D02*
X036705Y008137D01*
X036870Y007978D02*
X034680Y007978D01*
X034598Y006710D02*
X034565Y006710D01*
X033267Y007503D02*
X033192Y007503D01*
X033145Y007661D02*
X033267Y007661D01*
X032122Y007978D02*
X031253Y007978D01*
X031095Y008137D02*
X032122Y008137D01*
X032122Y008295D02*
X030936Y008295D01*
X030777Y008454D02*
X032122Y008454D01*
X032122Y008613D02*
X030619Y008613D01*
X030460Y008771D02*
X032158Y008771D01*
X030257Y008295D02*
X029117Y008295D01*
X029397Y007661D02*
X026659Y007661D01*
X026659Y007685D02*
X026659Y007493D01*
X026601Y007435D01*
X026659Y007378D01*
X026659Y007186D01*
X026659Y007344D02*
X028232Y007344D01*
X028451Y007503D02*
X026659Y007503D01*
X026046Y007503D02*
X026045Y007503D01*
X026045Y007661D02*
X026046Y007661D01*
X026045Y007344D02*
X026046Y007344D01*
X026045Y007027D02*
X026046Y007027D01*
X026045Y006869D02*
X026046Y006869D01*
X026045Y006710D02*
X026046Y006710D01*
X025433Y005283D02*
X022287Y005283D01*
X022287Y005125D02*
X025433Y005125D01*
X025459Y004966D02*
X024713Y004966D01*
X024787Y004807D02*
X025433Y004807D01*
X025433Y004649D02*
X024832Y004649D01*
X024100Y004966D02*
X022287Y004966D01*
X022248Y004807D02*
X024027Y004807D01*
X024031Y004649D02*
X022157Y004649D01*
X022357Y004685D02*
X022357Y004585D01*
X022357Y004609D02*
X022357Y003997D01*
X022655Y003997D01*
X022856Y003997D01*
X022856Y004609D01*
X022664Y004609D01*
X022607Y004552D01*
X022549Y004609D01*
X022357Y004609D01*
X022356Y004490D02*
X022357Y004490D01*
X022356Y004332D02*
X022357Y004332D01*
X022356Y004173D02*
X022357Y004173D01*
X022356Y004015D02*
X022357Y004015D01*
X022357Y003996D02*
X022357Y003383D01*
X022549Y003383D01*
X022607Y003441D01*
X022664Y003383D01*
X022856Y003383D01*
X022856Y003996D01*
X022857Y003996D01*
X022857Y003383D01*
X023049Y003383D01*
X023107Y003441D01*
X023164Y003383D01*
X023356Y003383D01*
X023356Y003996D01*
X023059Y003996D01*
X022857Y003996D01*
X022857Y003997D01*
X023155Y003997D01*
X023356Y003997D01*
X023356Y003996D01*
X023357Y003996D01*
X023357Y003383D01*
X023527Y003383D01*
X023527Y002492D01*
X023425Y002390D01*
X023425Y001125D01*
X022289Y001125D01*
X022289Y001605D01*
X021834Y001605D01*
X021834Y001765D01*
X022289Y001765D01*
X022289Y002390D01*
X022183Y002495D01*
X021834Y002495D01*
X021834Y001765D01*
X021674Y001765D01*
X021674Y001605D01*
X021220Y001605D01*
X021220Y001125D01*
X020439Y001125D01*
X020429Y001151D01*
X020322Y001257D01*
X020182Y001315D01*
X020031Y001315D01*
X019891Y001257D01*
X019808Y001174D01*
X019411Y001570D01*
X019411Y001995D01*
X020204Y001995D01*
X020293Y002032D01*
X020360Y002099D01*
X021493Y003232D01*
X021560Y003299D01*
X021597Y003388D01*
X021597Y003431D01*
X021607Y003441D01*
X021664Y003383D01*
X022049Y003383D01*
X022107Y003441D01*
X022164Y003383D01*
X022356Y003383D01*
X022356Y003996D01*
X022357Y003996D01*
X022356Y003856D02*
X022357Y003856D01*
X022356Y003698D02*
X022357Y003698D01*
X022356Y003539D02*
X022357Y003539D01*
X022856Y003539D02*
X022857Y003539D01*
X022856Y003698D02*
X022857Y003698D01*
X022856Y003856D02*
X022857Y003856D01*
X022856Y004015D02*
X022857Y004015D01*
X022856Y004173D02*
X022857Y004173D01*
X022856Y004332D02*
X022857Y004332D01*
X022856Y004490D02*
X022857Y004490D01*
X023356Y004490D02*
X023357Y004490D01*
X023356Y004332D02*
X023357Y004332D01*
X023356Y004173D02*
X023357Y004173D01*
X023356Y004015D02*
X023357Y004015D01*
X023356Y003856D02*
X023357Y003856D01*
X023356Y003698D02*
X023357Y003698D01*
X023356Y003539D02*
X023357Y003539D01*
X023527Y003381D02*
X021594Y003381D01*
X021483Y003222D02*
X023527Y003222D01*
X023527Y003064D02*
X021324Y003064D01*
X021166Y002905D02*
X023527Y002905D01*
X023527Y002746D02*
X021007Y002746D01*
X020849Y002588D02*
X023527Y002588D01*
X023464Y002429D02*
X022249Y002429D01*
X022289Y002271D02*
X023425Y002271D01*
X023425Y002112D02*
X022289Y002112D01*
X022289Y001954D02*
X023425Y001954D01*
X023425Y001795D02*
X022289Y001795D01*
X022289Y001478D02*
X023425Y001478D01*
X023425Y001320D02*
X022289Y001320D01*
X022289Y001161D02*
X023425Y001161D01*
X023425Y001637D02*
X021834Y001637D01*
X021834Y001795D02*
X021674Y001795D01*
X021674Y001765D02*
X021674Y002495D01*
X021325Y002495D01*
X021220Y002390D01*
X021220Y001765D01*
X021674Y001765D01*
X021674Y001637D02*
X019411Y001637D01*
X019411Y001795D02*
X021220Y001795D01*
X021220Y001954D02*
X019411Y001954D01*
X019503Y001478D02*
X021220Y001478D01*
X021220Y001320D02*
X019662Y001320D01*
X019300Y001002D02*
X016563Y001002D01*
X016510Y000949D02*
X017006Y001445D01*
X017302Y001445D01*
X017302Y001256D01*
X017407Y001150D01*
X018186Y001150D01*
X018292Y001256D01*
X018292Y001781D01*
X018422Y001911D01*
X018422Y001256D01*
X018527Y001150D01*
X019152Y001150D01*
X019621Y000682D01*
X019709Y000645D01*
X019804Y000645D01*
X019859Y000645D01*
X019891Y000613D01*
X020031Y000555D01*
X020182Y000555D01*
X020322Y000613D01*
X020354Y000645D01*
X035154Y000645D01*
X035243Y000682D01*
X035405Y000844D02*
X039857Y000844D01*
X039857Y001002D02*
X038437Y001002D01*
X038762Y001161D02*
X039857Y001161D01*
X039857Y001320D02*
X038998Y001320D01*
X038954Y001272D02*
X038954Y001272D01*
X038954Y001272D01*
X039145Y001478D02*
X039857Y001478D01*
X039857Y001637D02*
X039293Y001637D01*
X039295Y001639D02*
X039295Y001639D01*
X039370Y001795D02*
X039857Y001795D01*
X039857Y001954D02*
X039446Y001954D01*
X039515Y002112D02*
X039857Y002112D01*
X039857Y002271D02*
X039539Y002271D01*
X039563Y002429D02*
X039857Y002429D01*
X039857Y002588D02*
X039586Y002588D01*
X039562Y002746D02*
X039857Y002746D01*
X039857Y002905D02*
X039539Y002905D01*
X039515Y003064D02*
X039857Y003064D01*
X039857Y003222D02*
X039444Y003222D01*
X039368Y003381D02*
X039857Y003381D01*
X039857Y003539D02*
X039288Y003539D01*
X039295Y003532D02*
X039295Y003532D01*
X039141Y003698D02*
X039857Y003698D01*
X039857Y003856D02*
X038994Y003856D01*
X038954Y003899D02*
X038954Y003899D01*
X038753Y004015D02*
X039857Y004015D01*
X039857Y004173D02*
X038415Y004173D01*
X038520Y004149D02*
X038520Y004149D01*
X038032Y004261D02*
X038032Y004261D01*
X038196Y005917D02*
X039857Y005917D01*
X039857Y006076D02*
X038448Y006076D01*
X038557Y006234D02*
X039857Y006234D01*
X039857Y006393D02*
X038612Y006393D01*
X038612Y006551D02*
X039857Y006551D01*
X039857Y006710D02*
X038567Y006710D01*
X038474Y006869D02*
X039857Y006869D01*
X039857Y007027D02*
X038260Y007027D01*
X034289Y003064D02*
X034011Y003064D01*
X034011Y003222D02*
X034131Y003222D01*
X034448Y002905D02*
X033797Y002905D01*
X033881Y002746D02*
X033884Y002746D01*
X034248Y002746D02*
X034384Y002746D01*
X034384Y002588D02*
X034248Y002588D01*
X032624Y002746D02*
X030047Y002746D01*
X030047Y002905D02*
X032577Y002905D01*
X032474Y003064D02*
X032319Y003064D01*
X032319Y003222D02*
X032474Y003222D01*
X032474Y003381D02*
X032319Y003381D01*
X032319Y003539D02*
X031411Y003539D01*
X031407Y002720D02*
X031357Y002670D01*
X031306Y002720D01*
X030994Y002720D01*
X030994Y002263D01*
X030839Y002263D01*
X030839Y002720D01*
X030527Y002720D01*
X030422Y002615D01*
X030422Y002263D01*
X030839Y002263D01*
X030839Y002108D01*
X030422Y002108D01*
X030422Y001756D01*
X030527Y001650D01*
X030839Y001650D01*
X030839Y002108D01*
X030994Y002108D01*
X030994Y002263D01*
X031411Y002263D01*
X031719Y002263D01*
X031719Y002108D01*
X031411Y002108D01*
X030994Y002108D01*
X030994Y001650D01*
X031306Y001650D01*
X031357Y001701D01*
X031407Y001650D01*
X031719Y001650D01*
X031719Y002108D01*
X031874Y002108D01*
X031874Y001650D01*
X032186Y001650D01*
X032292Y001756D01*
X032292Y002108D01*
X031875Y002108D01*
X031875Y002263D01*
X032292Y002263D01*
X032292Y002615D01*
X032186Y002720D01*
X031874Y002720D01*
X031874Y002263D01*
X031719Y002263D01*
X031719Y002720D01*
X031407Y002720D01*
X031719Y002588D02*
X031874Y002588D01*
X031874Y002429D02*
X031719Y002429D01*
X031719Y002271D02*
X031874Y002271D01*
X031875Y002112D02*
X032422Y002112D01*
X032422Y001954D02*
X032292Y001954D01*
X032292Y001795D02*
X032422Y001795D01*
X031874Y001795D02*
X031719Y001795D01*
X031719Y001954D02*
X031874Y001954D01*
X031719Y002112D02*
X030994Y002112D01*
X030839Y002112D02*
X030292Y002112D01*
X030292Y001954D02*
X030422Y001954D01*
X030422Y001795D02*
X030292Y001795D01*
X030292Y002271D02*
X030422Y002271D01*
X030422Y002429D02*
X030292Y002429D01*
X030292Y002588D02*
X030422Y002588D01*
X030839Y002588D02*
X030994Y002588D01*
X030994Y002429D02*
X030839Y002429D01*
X030839Y002271D02*
X030994Y002271D01*
X030994Y001954D02*
X030839Y001954D01*
X030839Y001795D02*
X030994Y001795D01*
X032292Y002271D02*
X032422Y002271D01*
X032422Y002429D02*
X032292Y002429D01*
X032292Y002588D02*
X032422Y002588D01*
X029567Y002746D02*
X024187Y002746D01*
X024187Y002588D02*
X029302Y002588D01*
X029567Y002905D02*
X024187Y002905D01*
X024187Y003064D02*
X029567Y003064D01*
X029336Y003222D02*
X024187Y003222D01*
X024187Y003381D02*
X029302Y003381D01*
X029302Y003539D02*
X025655Y003539D01*
X025655Y003698D02*
X029302Y003698D01*
X029107Y005125D02*
X030278Y005125D01*
X030268Y006234D02*
X029797Y006234D01*
X029639Y006393D02*
X030110Y006393D01*
X029951Y006551D02*
X029480Y006551D01*
X029599Y006710D02*
X029321Y006710D01*
X029464Y006869D02*
X029163Y006869D01*
X029004Y007027D02*
X029427Y007027D01*
X029458Y007186D02*
X028937Y007186D01*
X028881Y007344D02*
X029547Y007344D01*
X029397Y007503D02*
X028663Y007503D01*
X026565Y002271D02*
X026430Y002271D01*
X026430Y002112D02*
X026565Y002112D01*
X026565Y001954D02*
X026430Y001954D01*
X026429Y001795D02*
X025791Y001795D01*
X025791Y001637D02*
X026022Y001637D01*
X026022Y001478D02*
X025791Y001478D01*
X025791Y001320D02*
X026022Y001320D01*
X026430Y001320D02*
X026565Y001320D01*
X026565Y001478D02*
X026430Y001478D01*
X026430Y001637D02*
X026565Y001637D01*
X026565Y001795D02*
X029302Y001795D01*
X026089Y002271D02*
X025724Y002271D01*
X025791Y002112D02*
X026022Y002112D01*
X026022Y001954D02*
X025791Y001954D01*
X021834Y001954D02*
X021674Y001954D01*
X021674Y002112D02*
X021834Y002112D01*
X021834Y002271D02*
X021674Y002271D01*
X021674Y002429D02*
X021834Y002429D01*
X021260Y002429D02*
X020690Y002429D01*
X020532Y002271D02*
X021220Y002271D01*
X021220Y002112D02*
X020373Y002112D01*
X019829Y002475D02*
X018454Y002475D01*
X018359Y002475D01*
X018271Y002439D01*
X018052Y002220D01*
X017407Y002220D01*
X017302Y002115D01*
X017302Y001925D01*
X016859Y001925D01*
X016771Y001889D01*
X016703Y001821D01*
X016422Y001541D01*
X016422Y002154D01*
X016317Y002259D01*
X016147Y002259D01*
X016147Y002650D01*
X016306Y002650D01*
X016411Y002756D01*
X016411Y003615D01*
X016306Y003720D01*
X016147Y003720D01*
X016147Y005238D01*
X016229Y005320D01*
X016287Y005460D01*
X016287Y005611D01*
X016229Y005751D01*
X016122Y005857D01*
X015982Y005915D01*
X015831Y005915D01*
X015691Y005857D01*
X015585Y005751D01*
X015527Y005611D01*
X015527Y005460D01*
X015585Y005320D01*
X015667Y005238D01*
X015667Y003963D01*
X015572Y004057D01*
X015432Y004115D01*
X015281Y004115D01*
X015141Y004057D01*
X015035Y003951D01*
X014977Y003811D01*
X014977Y003720D01*
X014407Y003720D01*
X014302Y003615D01*
X014302Y002756D01*
X014407Y002650D01*
X015186Y002650D01*
X015292Y002756D01*
X015292Y003331D01*
X015316Y003355D01*
X015422Y003355D01*
X015422Y002756D01*
X015527Y002650D01*
X015667Y002650D01*
X015667Y002259D01*
X015577Y002259D01*
X015472Y002154D01*
X015472Y001359D01*
X015241Y001590D01*
X015241Y002154D01*
X015136Y002259D01*
X014396Y002259D01*
X014291Y002154D01*
X014291Y001925D01*
X011525Y001925D01*
X011587Y001987D01*
X011587Y002175D01*
X011117Y002175D01*
X011117Y002195D01*
X011587Y002195D01*
X011587Y002384D01*
X011305Y002665D01*
X011226Y002665D01*
X011266Y002705D01*
X011305Y002705D01*
X011587Y002987D01*
X011587Y003384D01*
X011305Y003665D01*
X010908Y003665D01*
X010627Y003384D01*
X010627Y002987D01*
X010748Y002866D01*
X010471Y002589D01*
X010471Y002589D01*
X010426Y002544D01*
X010305Y002665D01*
X009908Y002665D01*
X009627Y002384D01*
X009627Y001987D01*
X009908Y001705D01*
X010305Y001705D01*
X010426Y001826D01*
X010703Y001549D01*
X010771Y001482D01*
X010859Y001445D01*
X014291Y001445D01*
X014291Y001217D01*
X014396Y001112D01*
X015041Y001112D01*
X015271Y000882D01*
X015359Y000845D01*
X015454Y000845D01*
X016354Y000845D01*
X016443Y000882D01*
X016510Y000949D01*
X016722Y001161D02*
X017397Y001161D01*
X017302Y001320D02*
X016880Y001320D01*
X016519Y001637D02*
X016422Y001637D01*
X016422Y001795D02*
X016677Y001795D01*
X016422Y001954D02*
X017302Y001954D01*
X017302Y002112D02*
X016422Y002112D01*
X016147Y002271D02*
X018103Y002271D01*
X018261Y002429D02*
X016147Y002429D01*
X016147Y002588D02*
X019756Y002588D01*
X019785Y002520D02*
X019727Y002660D01*
X019727Y002811D01*
X019785Y002951D01*
X019891Y003057D01*
X019915Y003067D01*
X019877Y003160D01*
X019877Y003311D01*
X019935Y003451D01*
X020027Y003543D01*
X020027Y004062D01*
X020059Y004139D01*
X020059Y004387D01*
X019160Y004387D01*
X019055Y004493D01*
X019055Y004544D01*
X018443Y003932D01*
X018430Y003927D01*
X018430Y003725D01*
X018325Y003620D01*
X017388Y003620D01*
X017283Y003725D01*
X017283Y004465D01*
X017388Y004570D01*
X018325Y004570D01*
X018363Y004531D01*
X018877Y005045D01*
X018430Y005045D01*
X018430Y004906D01*
X018325Y004801D01*
X017388Y004801D01*
X017283Y004906D01*
X017283Y005646D01*
X017388Y005751D01*
X018325Y005751D01*
X018430Y005646D01*
X018430Y005525D01*
X018857Y005525D01*
X018887Y005555D01*
X018881Y005555D01*
X018741Y005613D01*
X018635Y005720D01*
X018577Y005860D01*
X018577Y006011D01*
X018635Y006151D01*
X018741Y006257D01*
X018881Y006315D01*
X019032Y006315D01*
X019055Y006306D01*
X019055Y006378D01*
X019112Y006435D01*
X019055Y006493D01*
X019070Y006393D02*
X018430Y006393D01*
X018430Y006234D02*
X018718Y006234D01*
X018604Y006076D02*
X013586Y006076D01*
X013586Y006058D02*
X013586Y006213D01*
X014003Y006213D01*
X014003Y006564D01*
X013897Y006670D01*
X013585Y006670D01*
X013585Y006213D01*
X013430Y006213D01*
X013430Y006058D01*
X013013Y006058D01*
X013013Y005706D01*
X013118Y005601D01*
X013430Y005601D01*
X013430Y006058D01*
X013585Y006058D01*
X013585Y005601D01*
X013897Y005601D01*
X014003Y005706D01*
X014003Y006058D01*
X013586Y006058D01*
X013585Y005917D02*
X013430Y005917D01*
X013430Y005759D02*
X013585Y005759D01*
X013430Y006076D02*
X012900Y006076D01*
X012900Y006234D02*
X013013Y006234D01*
X013013Y006213D02*
X013430Y006213D01*
X013430Y006670D01*
X013118Y006670D01*
X013013Y006564D01*
X013013Y006213D01*
X013013Y006393D02*
X012900Y006393D01*
X012900Y006551D02*
X013013Y006551D01*
X013430Y006551D02*
X013585Y006551D01*
X013585Y006393D02*
X013430Y006393D01*
X013430Y006234D02*
X013585Y006234D01*
X014003Y006234D02*
X017283Y006234D01*
X017789Y006234D02*
X017924Y006234D01*
X017924Y006393D02*
X017789Y006393D01*
X017789Y006710D02*
X017924Y006710D01*
X017924Y006869D02*
X017789Y006869D01*
X017789Y007027D02*
X017924Y007027D01*
X018368Y007027D02*
X019055Y007027D01*
X019055Y006869D02*
X018430Y006869D01*
X018430Y006710D02*
X019055Y006710D01*
X018577Y005917D02*
X014003Y005917D01*
X014003Y005759D02*
X015593Y005759D01*
X015527Y005600D02*
X006111Y005600D01*
X005952Y005442D02*
X015534Y005442D01*
X015621Y005283D02*
X005794Y005283D01*
X005635Y005125D02*
X015667Y005125D01*
X015667Y004966D02*
X005477Y004966D01*
X005318Y004807D02*
X015667Y004807D01*
X015667Y004649D02*
X005160Y004649D01*
X005001Y004490D02*
X015667Y004490D01*
X015667Y004332D02*
X004843Y004332D01*
X004507Y004675D02*
X004380Y004675D01*
X004447Y004836D01*
X004447Y005235D01*
X003967Y005235D01*
X003967Y005275D01*
X004447Y005275D01*
X004447Y005675D01*
X004371Y005859D01*
X004230Y005999D01*
X004046Y006075D01*
X003967Y006075D01*
X003967Y005276D01*
X003927Y005276D01*
X003927Y006075D01*
X003847Y006075D01*
X003663Y005999D01*
X003523Y005859D01*
X003447Y005675D01*
X003447Y005275D01*
X003926Y005275D01*
X003926Y005235D01*
X003447Y005235D01*
X003447Y004836D01*
X003513Y004675D01*
X002600Y004675D01*
X002667Y004836D01*
X002667Y005675D01*
X002591Y005859D01*
X002450Y005999D01*
X002397Y006021D01*
X002397Y007049D01*
X002450Y007071D01*
X002591Y007212D01*
X002667Y007396D01*
X002667Y008235D01*
X002591Y008419D01*
X002534Y008475D01*
X002581Y008455D01*
X002732Y008455D01*
X002872Y008513D01*
X002979Y008620D01*
X003037Y008760D01*
X003037Y008911D01*
X002979Y009051D01*
X002872Y009157D01*
X002732Y009215D01*
X002732Y009816D01*
X002626Y009922D01*
X001997Y009922D01*
X001997Y010349D01*
X002189Y010349D01*
X002189Y010756D01*
X002324Y010756D01*
X002324Y010349D01*
X002626Y010349D01*
X002732Y010454D01*
X002732Y010757D01*
X002325Y010757D01*
X002325Y010892D01*
X002732Y010892D01*
X002732Y011194D01*
X002626Y011300D01*
X002324Y011300D01*
X002324Y010892D01*
X002189Y010892D01*
X002189Y011278D01*
X002656Y011745D01*
X004909Y011745D01*
X005004Y011745D01*
X005093Y011782D01*
X005312Y012001D01*
X005947Y012001D01*
X006053Y012106D01*
X006053Y012295D01*
X007354Y012295D01*
X007443Y012332D01*
X007510Y012399D01*
X007706Y012595D01*
X007838Y012595D01*
X007777Y012534D01*
X007777Y012345D01*
X008246Y012345D01*
X008246Y012325D01*
X007777Y012325D01*
X007777Y012137D01*
X008058Y011855D01*
X008247Y011855D01*
X008247Y012325D01*
X008267Y012325D01*
X008267Y012345D01*
X008737Y012345D01*
X008737Y012534D01*
X008675Y012595D01*
X008838Y012595D01*
X008777Y012534D01*
X008777Y012137D01*
X009058Y011855D01*
X009455Y011855D01*
X009737Y012137D01*
X009737Y012476D01*
X009806Y012545D01*
X011711Y012545D01*
X011711Y011806D01*
X011816Y011701D01*
X011967Y011701D01*
X011967Y010483D01*
X011967Y010388D01*
X011969Y010381D01*
X011947Y010327D01*
X011947Y010144D01*
X012017Y009975D01*
X012146Y009845D01*
X012274Y009792D01*
X010807Y008325D01*
X010254Y008325D01*
X010172Y008407D01*
X010032Y008465D01*
X009881Y008465D01*
X009741Y008407D01*
X009635Y008301D01*
X009577Y008161D01*
X009577Y008010D01*
X009612Y007925D01*
X007854Y007925D01*
X007759Y007925D01*
X006537Y007925D01*
X006537Y008010D01*
X006431Y008115D01*
X005782Y008115D01*
X005677Y008010D01*
X005677Y007361D01*
X005777Y007261D01*
X005777Y007110D01*
X005677Y007010D01*
X005677Y006730D01*
X006061Y006730D01*
X006061Y006640D01*
X005677Y006640D01*
X005677Y006361D01*
X005782Y006255D01*
X006062Y006255D01*
X006062Y006640D01*
X006152Y006640D01*
X006472Y006640D01*
X007277Y007445D01*
X006537Y007445D01*
X006537Y007361D01*
X006437Y007261D01*
X006437Y007110D01*
X006537Y007010D01*
X006537Y006730D01*
X006152Y006730D01*
X006152Y006640D01*
X006152Y006320D01*
X004507Y004675D01*
X004435Y004807D02*
X004639Y004807D01*
X004798Y004966D02*
X004447Y004966D01*
X004447Y005125D02*
X004956Y005125D01*
X005115Y005283D02*
X004447Y005283D01*
X004447Y005442D02*
X005274Y005442D01*
X005432Y005600D02*
X004447Y005600D01*
X004412Y005759D02*
X005591Y005759D01*
X005749Y005917D02*
X004312Y005917D01*
X003967Y005917D02*
X003927Y005917D01*
X003927Y005759D02*
X003967Y005759D01*
X003967Y005600D02*
X003927Y005600D01*
X003927Y005442D02*
X003967Y005442D01*
X003967Y005283D02*
X003927Y005283D01*
X003447Y005283D02*
X002667Y005283D01*
X002667Y005125D02*
X003447Y005125D01*
X003447Y004966D02*
X002667Y004966D01*
X002655Y004807D02*
X003458Y004807D01*
X003447Y005442D02*
X002667Y005442D01*
X002667Y005600D02*
X003447Y005600D01*
X003481Y005759D02*
X002632Y005759D01*
X002532Y005917D02*
X003582Y005917D01*
X003847Y006995D02*
X003927Y006995D01*
X003927Y007795D01*
X003967Y007795D01*
X003967Y007835D01*
X004447Y007835D01*
X004447Y008235D01*
X004371Y008419D01*
X004230Y008559D01*
X004151Y008592D01*
X004179Y008620D01*
X004237Y008760D01*
X004237Y008911D01*
X004187Y009031D01*
X004386Y009031D01*
X004492Y009136D01*
X004492Y009915D01*
X004386Y010020D01*
X003527Y010020D01*
X003422Y009915D01*
X003422Y009136D01*
X003527Y009031D01*
X003477Y008911D01*
X003477Y008760D01*
X003535Y008620D01*
X003629Y008525D01*
X003523Y008419D01*
X003447Y008235D01*
X003447Y007835D01*
X003926Y007835D01*
X003926Y007795D01*
X003447Y007795D01*
X003447Y007396D01*
X003523Y007212D01*
X003663Y007071D01*
X003847Y006995D01*
X003771Y007027D02*
X002397Y007027D01*
X002397Y006869D02*
X005677Y006869D01*
X005694Y007027D02*
X004123Y007027D01*
X004046Y006995D02*
X004230Y007071D01*
X004371Y007212D01*
X004447Y007396D01*
X004447Y007795D01*
X003967Y007795D01*
X003967Y006995D01*
X004046Y006995D01*
X003967Y007027D02*
X003927Y007027D01*
X003927Y007186D02*
X003967Y007186D01*
X003967Y007344D02*
X003927Y007344D01*
X003927Y007503D02*
X003967Y007503D01*
X003967Y007661D02*
X003927Y007661D01*
X003926Y007820D02*
X002667Y007820D01*
X002667Y007978D02*
X003447Y007978D01*
X003447Y008137D02*
X002667Y008137D01*
X002642Y008295D02*
X003472Y008295D01*
X003558Y008454D02*
X002555Y008454D01*
X002971Y008613D02*
X003542Y008613D01*
X003477Y008771D02*
X003037Y008771D01*
X003029Y008930D02*
X003484Y008930D01*
X003470Y009088D02*
X002941Y009088D01*
X002732Y009215D02*
X002732Y009215D01*
X002732Y009247D02*
X003422Y009247D01*
X003422Y009405D02*
X002732Y009405D01*
X002732Y009564D02*
X003422Y009564D01*
X003422Y009722D02*
X002732Y009722D01*
X002667Y009881D02*
X003422Y009881D01*
X003527Y010150D02*
X004386Y010150D01*
X004492Y010256D01*
X004492Y010445D01*
X007777Y010445D01*
X007777Y010137D01*
X008058Y009855D01*
X008455Y009855D01*
X008737Y010137D01*
X008737Y010534D01*
X008675Y010595D01*
X008709Y010595D01*
X008804Y010595D01*
X008862Y010619D01*
X008777Y010534D01*
X008777Y010137D01*
X009058Y009855D01*
X009455Y009855D01*
X009737Y010137D01*
X009737Y010534D01*
X009455Y010815D01*
X009076Y010815D01*
X009116Y010855D01*
X009455Y010855D01*
X009737Y011137D01*
X009737Y011534D01*
X009455Y011815D01*
X009058Y011815D01*
X008777Y011534D01*
X008777Y011195D01*
X008737Y011155D01*
X008737Y011534D01*
X008455Y011815D01*
X008058Y011815D01*
X007777Y011534D01*
X007777Y011137D01*
X007898Y011016D01*
X007853Y010971D01*
X007807Y010925D01*
X004492Y010925D01*
X004492Y011035D01*
X004386Y011140D01*
X003527Y011140D01*
X003422Y011035D01*
X003422Y010256D01*
X003527Y010150D01*
X003479Y010198D02*
X001997Y010198D01*
X001997Y010039D02*
X007874Y010039D01*
X007777Y010198D02*
X004434Y010198D01*
X004492Y010356D02*
X007777Y010356D01*
X008032Y009881D02*
X004492Y009881D01*
X004492Y009722D02*
X012204Y009722D01*
X012111Y009881D02*
X009481Y009881D01*
X009640Y010039D02*
X011990Y010039D01*
X011947Y010198D02*
X009737Y010198D01*
X009737Y010356D02*
X011959Y010356D01*
X011967Y010515D02*
X009737Y010515D01*
X009597Y010674D02*
X011967Y010674D01*
X011967Y010832D02*
X009093Y010832D01*
X008777Y010515D02*
X008737Y010515D01*
X008737Y010356D02*
X008777Y010356D01*
X008777Y010198D02*
X008737Y010198D01*
X008640Y010039D02*
X008874Y010039D01*
X009032Y009881D02*
X008481Y009881D01*
X007873Y010991D02*
X004492Y010991D01*
X005094Y011783D02*
X008026Y011783D01*
X007971Y011942D02*
X005253Y011942D01*
X006047Y012100D02*
X007813Y012100D01*
X007777Y012259D02*
X006053Y012259D01*
X007528Y012418D02*
X007777Y012418D01*
X007819Y012576D02*
X007687Y012576D01*
X008267Y012325D02*
X008267Y011855D01*
X008455Y011855D01*
X008737Y012137D01*
X008737Y012325D01*
X008267Y012325D01*
X008267Y012259D02*
X008247Y012259D01*
X008247Y012100D02*
X008267Y012100D01*
X008267Y011942D02*
X008247Y011942D01*
X008487Y011783D02*
X009026Y011783D01*
X008971Y011942D02*
X008542Y011942D01*
X008701Y012100D02*
X008813Y012100D01*
X008777Y012259D02*
X008737Y012259D01*
X008737Y012418D02*
X008777Y012418D01*
X008819Y012576D02*
X008695Y012576D01*
X008521Y013210D02*
X013742Y013210D01*
X013595Y013052D02*
X009811Y013052D01*
X009737Y012418D02*
X011711Y012418D01*
X011711Y012259D02*
X009737Y012259D01*
X009701Y012100D02*
X011711Y012100D01*
X011711Y011942D02*
X009542Y011942D01*
X009487Y011783D02*
X011734Y011783D01*
X011967Y011625D02*
X009646Y011625D01*
X009737Y011466D02*
X011967Y011466D01*
X011967Y011308D02*
X009737Y011308D01*
X009737Y011149D02*
X011967Y011149D01*
X011967Y010991D02*
X009591Y010991D01*
X008867Y011625D02*
X008646Y011625D01*
X008737Y011466D02*
X008777Y011466D01*
X008777Y011308D02*
X008737Y011308D01*
X007867Y011625D02*
X002536Y011625D01*
X002377Y011466D02*
X007777Y011466D01*
X007777Y011308D02*
X002219Y011308D01*
X002189Y011149D02*
X002324Y011149D01*
X002324Y010991D02*
X002189Y010991D01*
X002325Y010832D02*
X003422Y010832D01*
X003422Y010674D02*
X002732Y010674D01*
X002732Y010515D02*
X003422Y010515D01*
X003422Y010356D02*
X002634Y010356D01*
X002324Y010356D02*
X002189Y010356D01*
X002189Y010515D02*
X002324Y010515D01*
X002324Y010674D02*
X002189Y010674D01*
X002732Y010991D02*
X003422Y010991D01*
X002732Y011149D02*
X007777Y011149D01*
X008680Y013369D02*
X013901Y013369D01*
X014059Y013527D02*
X011636Y013527D01*
X011727Y013686D02*
X014218Y013686D01*
X014376Y013844D02*
X011737Y013844D01*
X011676Y014003D02*
X014535Y014003D01*
X014694Y014162D02*
X011441Y014162D01*
X011161Y014320D02*
X014852Y014320D01*
X015011Y014479D02*
X011003Y014479D01*
X010844Y014637D02*
X011871Y014637D01*
X011783Y014796D02*
X010686Y014796D01*
X010527Y014954D02*
X011783Y014954D01*
X011783Y015113D02*
X010369Y015113D01*
X010210Y015271D02*
X011783Y015271D01*
X011783Y015430D02*
X010052Y015430D01*
X009893Y015588D02*
X011764Y015588D01*
X011606Y015747D02*
X009861Y015747D01*
X009861Y015906D02*
X011447Y015906D01*
X011297Y016064D02*
X009861Y016064D01*
X009804Y016223D02*
X011267Y016223D01*
X011267Y016381D02*
X008050Y016381D01*
X007892Y016540D02*
X011267Y016540D01*
X011267Y016698D02*
X007733Y016698D01*
X007575Y016857D02*
X011267Y016857D01*
X011267Y017015D02*
X008071Y017015D01*
X008161Y017174D02*
X011267Y017174D01*
X011267Y017332D02*
X009493Y017332D01*
X009652Y017491D02*
X009674Y017491D01*
X010339Y017491D02*
X010674Y017491D01*
X010555Y017649D02*
X010458Y017649D01*
X010507Y017808D02*
X010507Y017808D01*
X010507Y017967D02*
X010507Y017967D01*
X010507Y018125D02*
X010507Y018125D01*
X010507Y018284D02*
X010507Y018284D01*
X010614Y018918D02*
X010712Y018918D01*
X010455Y019076D02*
X011267Y019076D01*
X011267Y019235D02*
X009896Y019235D01*
X009738Y019393D02*
X011267Y019393D01*
X011267Y019552D02*
X009579Y019552D01*
X009719Y019711D02*
X011267Y019711D01*
X011267Y019869D02*
X009787Y019869D01*
X009780Y020028D02*
X011360Y020028D01*
X011518Y020186D02*
X009693Y020186D01*
X009647Y020345D02*
X011677Y020345D01*
X011835Y020503D02*
X009647Y020503D01*
X009647Y020662D02*
X011994Y020662D01*
X012152Y020820D02*
X010079Y020820D01*
X010174Y020979D02*
X012311Y020979D01*
X012397Y021137D02*
X010187Y021137D01*
X010131Y021296D02*
X012397Y021296D01*
X012475Y021455D02*
X010065Y021455D01*
X010224Y021613D02*
X012634Y021613D01*
X013079Y021613D02*
X014617Y021613D01*
X014617Y021455D02*
X013238Y021455D01*
X013317Y021296D02*
X014617Y021296D01*
X014617Y021137D02*
X013317Y021137D01*
X013301Y020979D02*
X014617Y020979D01*
X014617Y020820D02*
X013142Y020820D01*
X012673Y020662D02*
X014617Y020662D01*
X014617Y020503D02*
X012514Y020503D01*
X012355Y020345D02*
X014617Y020345D01*
X014617Y020186D02*
X012197Y020186D01*
X012038Y020028D02*
X014361Y020028D01*
X014361Y019869D02*
X011880Y019869D01*
X011747Y019711D02*
X014361Y019711D01*
X014361Y019552D02*
X011747Y019552D01*
X011747Y019393D02*
X014361Y019393D01*
X014361Y019235D02*
X011747Y019235D01*
X011747Y019076D02*
X014401Y019076D01*
X014329Y018442D02*
X013507Y018442D01*
X013507Y018284D02*
X014302Y018284D01*
X014302Y018125D02*
X013507Y018125D01*
X013507Y017967D02*
X014719Y017967D01*
X014719Y018125D02*
X014874Y018125D01*
X014874Y018284D02*
X014719Y018284D01*
X014719Y018442D02*
X014874Y018442D01*
X015067Y018601D02*
X013507Y018601D01*
X013443Y018759D02*
X015067Y018759D01*
X015067Y018918D02*
X013301Y018918D01*
X012712Y018918D02*
X012301Y018918D01*
X012443Y018759D02*
X012571Y018759D01*
X012507Y018601D02*
X012507Y018601D01*
X012507Y018442D02*
X012507Y018442D01*
X012507Y018284D02*
X012507Y018284D01*
X012507Y018125D02*
X012507Y018125D01*
X012507Y017967D02*
X012507Y017967D01*
X012507Y017808D02*
X012507Y017808D01*
X012458Y017649D02*
X012555Y017649D01*
X012674Y017491D02*
X012339Y017491D01*
X012027Y017491D02*
X011987Y017491D01*
X011987Y017649D02*
X012027Y017649D01*
X012027Y017808D02*
X011987Y017808D01*
X011987Y017967D02*
X012027Y017967D01*
X012027Y018125D02*
X011987Y018125D01*
X011987Y018284D02*
X012027Y018284D01*
X012027Y018442D02*
X011987Y018442D01*
X011987Y018601D02*
X012027Y018601D01*
X012027Y018759D02*
X011987Y018759D01*
X011987Y018918D02*
X012027Y018918D01*
X013507Y017808D02*
X014302Y017808D01*
X014302Y017649D02*
X013458Y017649D01*
X013339Y017491D02*
X014367Y017491D01*
X014719Y017491D02*
X014874Y017491D01*
X014874Y017649D02*
X014719Y017649D01*
X014719Y017808D02*
X014874Y017808D01*
X015320Y017332D02*
X011747Y017332D01*
X011747Y017174D02*
X015479Y017174D01*
X015564Y017015D02*
X015637Y017015D01*
X015668Y016857D02*
X015796Y016857D01*
X015049Y017015D02*
X011747Y017015D01*
X011747Y016857D02*
X014946Y016857D01*
X014927Y016698D02*
X014878Y016698D01*
X014424Y016698D02*
X014289Y016698D01*
X014289Y016540D02*
X014424Y016540D01*
X014424Y016381D02*
X014289Y016381D01*
X014289Y016223D02*
X012425Y016223D01*
X012289Y016223D02*
X011809Y016223D01*
X011783Y016381D02*
X011747Y016381D01*
X011747Y016540D02*
X011783Y016540D01*
X011747Y016698D02*
X011836Y016698D01*
X012289Y016698D02*
X012424Y016698D01*
X012424Y016540D02*
X012289Y016540D01*
X012289Y016381D02*
X012424Y016381D01*
X012424Y016064D02*
X012289Y016064D01*
X012289Y015906D02*
X012424Y015906D01*
X012284Y015747D02*
X014577Y015747D01*
X014470Y015588D02*
X012443Y015588D01*
X012930Y015430D02*
X013783Y015430D01*
X013783Y015271D02*
X012930Y015271D01*
X012930Y015113D02*
X013783Y015113D01*
X013783Y014954D02*
X012930Y014954D01*
X012930Y014796D02*
X013783Y014796D01*
X013871Y014637D02*
X012843Y014637D01*
X012930Y015906D02*
X013784Y015906D01*
X013783Y016064D02*
X012930Y016064D01*
X012930Y016381D02*
X013783Y016381D01*
X013783Y016540D02*
X012930Y016540D01*
X012878Y016698D02*
X013836Y016698D01*
X014289Y016064D02*
X014424Y016064D01*
X014424Y015906D02*
X014289Y015906D01*
X014930Y015271D02*
X015803Y015271D01*
X015645Y015113D02*
X014930Y015113D01*
X014930Y014954D02*
X015486Y014954D01*
X015328Y014796D02*
X014930Y014796D01*
X014843Y014637D02*
X015169Y014637D01*
X015189Y015430D02*
X015962Y015430D01*
X016120Y015588D02*
X015307Y015588D01*
X015337Y015747D02*
X016279Y015747D01*
X016437Y015906D02*
X015298Y015906D01*
X013567Y012893D02*
X012788Y012893D01*
X013230Y012735D02*
X013385Y012735D01*
X013385Y012576D02*
X013230Y012576D01*
X013230Y012418D02*
X013385Y012418D01*
X011077Y013527D02*
X008838Y013527D01*
X008997Y013686D02*
X010987Y013686D01*
X010958Y013844D02*
X009327Y013844D01*
X009492Y014003D02*
X010800Y014003D01*
X010641Y014162D02*
X009537Y014162D01*
X009512Y014320D02*
X010483Y014320D01*
X010324Y014479D02*
X009401Y014479D01*
X008913Y014479D02*
X007453Y014479D01*
X007294Y014637D02*
X010165Y014637D01*
X010007Y014796D02*
X007136Y014796D01*
X007611Y014320D02*
X008801Y014320D01*
X008777Y014162D02*
X007770Y014162D01*
X007928Y014003D02*
X008635Y014003D01*
X008476Y013844D02*
X008285Y013844D01*
X009113Y014954D02*
X009848Y014954D01*
X009690Y015113D02*
X009187Y015113D01*
X008872Y015588D02*
X008742Y015588D01*
X008742Y015747D02*
X008872Y015747D01*
X008872Y015906D02*
X008742Y015906D01*
X008742Y016064D02*
X008872Y016064D01*
X008929Y016223D02*
X008684Y016223D01*
X006052Y017620D02*
X004502Y016070D01*
X004057Y016070D01*
X003952Y015965D01*
X003952Y015775D01*
X003018Y015775D01*
X003001Y015819D01*
X002860Y015959D01*
X002676Y016035D01*
X001837Y016035D01*
X001697Y015977D01*
X001697Y016094D01*
X001837Y016035D01*
X002237Y016035D01*
X002237Y016515D01*
X002277Y016515D01*
X002277Y016555D01*
X003077Y016555D01*
X003077Y016635D01*
X003001Y016819D01*
X002860Y016959D01*
X002676Y017035D01*
X002277Y017035D01*
X002277Y016556D01*
X002237Y016556D01*
X002237Y017035D01*
X001837Y017035D01*
X001697Y016977D01*
X001697Y017094D01*
X001837Y017035D01*
X002237Y017035D01*
X002237Y017515D01*
X002277Y017515D01*
X002277Y017555D01*
X003077Y017555D01*
X003077Y017635D01*
X003001Y017819D01*
X002860Y017959D01*
X002676Y018035D01*
X002277Y018035D01*
X002277Y017556D01*
X002237Y017556D01*
X002237Y018035D01*
X001837Y018035D01*
X001697Y017977D01*
X001697Y026246D01*
X001752Y026190D01*
X002012Y026190D01*
X003237Y024966D01*
X003192Y024921D01*
X003102Y024703D01*
X003102Y024467D01*
X001697Y024467D01*
X001697Y024625D02*
X003102Y024625D01*
X003102Y024467D02*
X003192Y024250D01*
X003359Y024083D01*
X003576Y023993D01*
X004637Y023993D01*
X004855Y024083D01*
X005021Y024250D01*
X005112Y024467D01*
X005112Y024703D01*
X005021Y024921D01*
X004855Y025088D01*
X004637Y025178D01*
X003704Y025178D01*
X002691Y026190D01*
X002961Y026190D01*
X003067Y026296D01*
X003067Y026445D01*
X005107Y026445D01*
X006321Y025232D01*
X006409Y025195D01*
X006504Y025195D01*
X007909Y025195D01*
X008004Y025195D01*
X008093Y025232D01*
X008243Y025382D01*
X008306Y025445D01*
X008526Y025445D01*
X008526Y026025D01*
X008606Y026025D01*
X008606Y025445D01*
X008881Y025445D01*
X008967Y025531D01*
X008967Y024768D01*
X008941Y024757D01*
X008835Y024651D01*
X008777Y024511D01*
X008777Y024360D01*
X008835Y024220D01*
X008941Y024113D01*
X009081Y024055D01*
X009232Y024055D01*
X009243Y024060D01*
X009569Y023733D01*
X008873Y023733D01*
X008767Y023628D01*
X008767Y023243D01*
X008825Y023185D01*
X008767Y023128D01*
X008767Y022985D01*
X008621Y022839D01*
X008553Y022771D01*
X008517Y022683D01*
X008517Y021830D01*
X008432Y021865D01*
X008281Y021865D01*
X008141Y021807D01*
X008059Y021725D01*
X007929Y021725D01*
X007946Y021743D01*
X007946Y022128D01*
X007889Y022185D01*
X007946Y022243D01*
X007946Y022435D01*
X007333Y022435D01*
X007333Y022436D01*
X007946Y022436D01*
X007946Y022628D01*
X007889Y022685D01*
X007946Y022743D01*
X007946Y023128D01*
X007889Y023185D01*
X007946Y023243D01*
X007946Y023435D01*
X007333Y023435D01*
X006720Y023435D01*
X006720Y023243D01*
X006777Y023185D01*
X006720Y023128D01*
X006720Y022988D01*
X006547Y022815D01*
X006481Y022815D01*
X006341Y022757D01*
X006235Y022651D01*
X006177Y022511D01*
X006177Y022360D01*
X006235Y022220D01*
X006244Y022210D01*
X006185Y022151D01*
X006127Y022011D01*
X006127Y021895D01*
X004344Y020112D01*
X003656Y020112D01*
X003551Y020007D01*
X003551Y019464D01*
X003656Y019359D01*
X004908Y019359D01*
X005013Y019464D01*
X005013Y020007D01*
X004965Y020055D01*
X006466Y021555D01*
X006582Y021555D01*
X006722Y021613D01*
X006786Y021677D01*
X006825Y021637D01*
X007067Y021637D01*
X007067Y021533D01*
X007067Y021438D01*
X007067Y020485D01*
X006702Y020120D01*
X006157Y020120D01*
X006052Y020015D01*
X006052Y019156D01*
X006157Y019050D01*
X006317Y019050D01*
X006317Y018070D01*
X006157Y018070D01*
X006052Y017965D01*
X006052Y017620D01*
X006052Y017649D02*
X003071Y017649D01*
X003077Y017515D02*
X002277Y017515D01*
X002277Y017035D01*
X002676Y017035D01*
X002860Y017111D01*
X003001Y017252D01*
X003077Y017436D01*
X003077Y017515D01*
X003077Y017491D02*
X005923Y017491D01*
X005764Y017332D02*
X003034Y017332D01*
X002922Y017174D02*
X005606Y017174D01*
X005447Y017015D02*
X002724Y017015D01*
X002962Y016857D02*
X005289Y016857D01*
X005130Y016698D02*
X003050Y016698D01*
X003077Y016515D02*
X002277Y016515D01*
X002277Y016035D01*
X002676Y016035D01*
X002860Y016111D01*
X003001Y016252D01*
X003077Y016436D01*
X003077Y016515D01*
X003054Y016381D02*
X004813Y016381D01*
X004655Y016223D02*
X002971Y016223D01*
X002745Y016064D02*
X004051Y016064D01*
X003952Y015906D02*
X002914Y015906D01*
X002277Y016064D02*
X002237Y016064D01*
X002237Y016223D02*
X002277Y016223D01*
X002277Y016381D02*
X002237Y016381D01*
X002277Y016540D02*
X004972Y016540D01*
X006052Y017808D02*
X003005Y017808D01*
X002842Y017967D02*
X006054Y017967D01*
X006317Y018125D02*
X001697Y018125D01*
X001697Y018284D02*
X006317Y018284D01*
X006317Y018442D02*
X001697Y018442D01*
X001697Y018601D02*
X006317Y018601D01*
X006317Y018759D02*
X001697Y018759D01*
X001697Y018918D02*
X006317Y018918D01*
X006131Y019076D02*
X001697Y019076D01*
X001697Y019235D02*
X006052Y019235D01*
X006052Y019393D02*
X004943Y019393D01*
X005013Y019552D02*
X006052Y019552D01*
X006052Y019711D02*
X005013Y019711D01*
X005013Y019869D02*
X006052Y019869D01*
X006065Y020028D02*
X004992Y020028D01*
X005097Y020186D02*
X006768Y020186D01*
X006927Y020345D02*
X005255Y020345D01*
X005414Y020503D02*
X007067Y020503D01*
X007067Y020662D02*
X005573Y020662D01*
X005731Y020820D02*
X007067Y020820D01*
X007067Y020979D02*
X005890Y020979D01*
X006048Y021137D02*
X007067Y021137D01*
X007067Y021296D02*
X006207Y021296D01*
X006365Y021455D02*
X007067Y021455D01*
X007067Y021613D02*
X006722Y021613D01*
X006127Y021930D02*
X001697Y021930D01*
X001697Y021772D02*
X006004Y021772D01*
X005845Y021613D02*
X001697Y021613D01*
X001697Y021455D02*
X005686Y021455D01*
X005528Y021296D02*
X001697Y021296D01*
X001697Y021137D02*
X005369Y021137D01*
X005211Y020979D02*
X001697Y020979D01*
X001697Y020820D02*
X005052Y020820D01*
X004894Y020662D02*
X001697Y020662D01*
X001697Y020503D02*
X004735Y020503D01*
X004577Y020345D02*
X001697Y020345D01*
X001697Y020186D02*
X004418Y020186D01*
X003621Y019393D02*
X003092Y019393D01*
X003057Y019359D02*
X003163Y019464D01*
X003163Y019717D01*
X002450Y019717D01*
X002450Y019754D01*
X002413Y019754D01*
X002413Y020112D01*
X001806Y020112D01*
X001700Y020007D01*
X001700Y019754D01*
X002413Y019754D01*
X002413Y019717D01*
X001700Y019717D01*
X001700Y019464D01*
X001806Y019359D01*
X002413Y019359D01*
X002413Y019717D01*
X002450Y019717D01*
X002450Y019359D01*
X003057Y019359D01*
X003163Y019552D02*
X003551Y019552D01*
X003551Y019711D02*
X003163Y019711D01*
X003163Y019754D02*
X003163Y020007D01*
X003057Y020112D01*
X002450Y020112D01*
X002450Y019754D01*
X003163Y019754D01*
X003163Y019869D02*
X003551Y019869D01*
X003572Y020028D02*
X003142Y020028D01*
X002450Y020028D02*
X002413Y020028D01*
X002413Y019869D02*
X002450Y019869D01*
X002450Y019711D02*
X002413Y019711D01*
X002413Y019552D02*
X002450Y019552D01*
X002450Y019393D02*
X002413Y019393D01*
X001771Y019393D02*
X001697Y019393D01*
X001697Y019552D02*
X001700Y019552D01*
X001697Y019711D02*
X001700Y019711D01*
X001697Y019869D02*
X001700Y019869D01*
X001697Y020028D02*
X001721Y020028D01*
X001217Y020028D02*
X000357Y020028D01*
X000357Y020186D02*
X001217Y020186D01*
X001217Y020345D02*
X000357Y020345D01*
X000357Y020503D02*
X001217Y020503D01*
X001217Y020662D02*
X000357Y020662D01*
X000357Y020820D02*
X001217Y020820D01*
X001217Y020979D02*
X000357Y020979D01*
X000357Y021137D02*
X001217Y021137D01*
X001217Y021296D02*
X000357Y021296D01*
X000357Y021455D02*
X001217Y021455D01*
X001217Y021613D02*
X000357Y021613D01*
X000357Y021772D02*
X001217Y021772D01*
X001217Y021930D02*
X000357Y021930D01*
X000357Y022089D02*
X001217Y022089D01*
X001217Y022247D02*
X000357Y022247D01*
X000357Y022406D02*
X001217Y022406D01*
X001217Y022564D02*
X000357Y022564D01*
X000357Y022723D02*
X001217Y022723D01*
X001217Y022881D02*
X000357Y022881D01*
X000357Y023040D02*
X001217Y023040D01*
X001217Y023199D02*
X000357Y023199D01*
X000357Y023357D02*
X001217Y023357D01*
X001217Y023516D02*
X000357Y023516D01*
X000357Y023674D02*
X001217Y023674D01*
X001217Y023833D02*
X000357Y023833D01*
X000357Y023991D02*
X001217Y023991D01*
X001217Y024150D02*
X000357Y024150D01*
X000357Y024308D02*
X001217Y024308D01*
X001217Y024467D02*
X000357Y024467D01*
X000357Y024625D02*
X001217Y024625D01*
X001217Y024784D02*
X000357Y024784D01*
X000357Y024942D02*
X001217Y024942D01*
X001217Y025101D02*
X000357Y025101D01*
X000357Y025260D02*
X001217Y025260D01*
X001217Y025418D02*
X000357Y025418D01*
X000357Y025577D02*
X001217Y025577D01*
X001217Y025735D02*
X000357Y025735D01*
X000357Y025894D02*
X001217Y025894D01*
X001217Y026052D02*
X000357Y026052D01*
X000357Y026211D02*
X001217Y026211D01*
X001217Y026369D02*
X000357Y026369D01*
X000357Y026528D02*
X001217Y026528D01*
X001217Y026686D02*
X000357Y026686D01*
X000357Y026845D02*
X001217Y026845D01*
X001246Y027004D02*
X000357Y027004D01*
X000357Y027162D02*
X001394Y027162D01*
X001553Y027321D02*
X000357Y027321D01*
X000357Y027479D02*
X001711Y027479D01*
X001870Y027638D02*
X000357Y027638D01*
X000357Y027796D02*
X002028Y027796D01*
X002187Y027955D02*
X000357Y027955D01*
X000357Y028113D02*
X001645Y028113D01*
X001642Y028272D02*
X000357Y028272D01*
X000357Y028430D02*
X001642Y028430D01*
X001642Y028589D02*
X000357Y028589D01*
X000357Y028748D02*
X001642Y028748D01*
X001693Y028906D02*
X000357Y028906D01*
X000357Y029065D02*
X002897Y029065D01*
X002738Y028906D02*
X002542Y028906D01*
X002433Y029347D02*
X002932Y029310D01*
X002932Y029310D01*
X003420Y029421D01*
X003420Y029421D01*
X003854Y029672D01*
X003854Y029672D01*
X004195Y030039D01*
X004412Y030490D01*
X004412Y030490D01*
X004487Y030985D01*
X004412Y031480D01*
X004412Y031481D01*
X004195Y031932D01*
X003854Y032299D01*
X003420Y032549D01*
X002932Y032661D01*
X002433Y032623D01*
X002433Y032623D01*
X001967Y032440D01*
X001575Y032128D01*
X001293Y031714D01*
X001146Y031236D01*
X001145Y031236D01*
X001145Y030735D01*
X001293Y030256D01*
X001575Y029843D01*
X001575Y029843D01*
X001575Y029843D01*
X001967Y029530D01*
X002433Y029347D01*
X002433Y029347D01*
X002346Y029382D02*
X000357Y029382D01*
X000357Y029540D02*
X001954Y029540D01*
X001967Y029530D02*
X001967Y029530D01*
X001756Y029699D02*
X000357Y029699D01*
X000357Y029857D02*
X001565Y029857D01*
X001457Y030016D02*
X000357Y030016D01*
X000357Y030174D02*
X001349Y030174D01*
X001293Y030256D02*
X001293Y030256D01*
X001269Y030333D02*
X000357Y030333D01*
X000357Y030491D02*
X001221Y030491D01*
X001172Y030650D02*
X000357Y030650D01*
X000357Y030809D02*
X001145Y030809D01*
X001145Y030735D02*
X001145Y030735D01*
X001145Y030967D02*
X000357Y030967D01*
X000357Y031126D02*
X001145Y031126D01*
X001160Y031284D02*
X000357Y031284D01*
X000357Y031443D02*
X001209Y031443D01*
X001258Y031601D02*
X000357Y031601D01*
X000357Y031760D02*
X001324Y031760D01*
X001432Y031918D02*
X000357Y031918D01*
X000357Y032077D02*
X001540Y032077D01*
X001575Y032128D02*
X001575Y032128D01*
X001710Y032235D02*
X000357Y032235D01*
X000357Y032394D02*
X001909Y032394D01*
X002253Y032553D02*
X000357Y032553D01*
X000357Y032711D02*
X009411Y032711D01*
X009166Y032553D02*
X003406Y032553D01*
X003420Y032549D02*
X003420Y032549D01*
X003689Y032394D02*
X009007Y032394D01*
X008849Y032235D02*
X003913Y032235D01*
X003854Y032299D02*
X003854Y032299D01*
X004060Y032077D02*
X007656Y032077D01*
X007957Y032077D02*
X008690Y032077D01*
X008532Y031918D02*
X008224Y031918D01*
X008339Y031760D02*
X008373Y031760D01*
X007389Y031918D02*
X004201Y031918D01*
X004195Y031932D02*
X004195Y031932D01*
X004277Y031760D02*
X007274Y031760D01*
X007214Y031601D02*
X004354Y031601D01*
X004418Y031443D02*
X007214Y031443D01*
X007214Y031284D02*
X004442Y031284D01*
X004466Y031126D02*
X007214Y031126D01*
X007080Y030967D02*
X004484Y030967D01*
X004460Y030809D02*
X006922Y030809D01*
X006763Y030650D02*
X004436Y030650D01*
X004412Y030491D02*
X006605Y030491D01*
X006446Y030333D02*
X004336Y030333D01*
X004260Y030174D02*
X006288Y030174D01*
X004753Y030016D02*
X004173Y030016D01*
X004195Y030039D02*
X004195Y030039D01*
X004026Y029857D02*
X004722Y029857D01*
X004722Y029699D02*
X003879Y029699D01*
X003626Y029540D02*
X004722Y029540D01*
X004722Y029382D02*
X003246Y029382D01*
X003104Y029223D02*
X000357Y029223D01*
X001697Y026211D02*
X001732Y026211D01*
X001697Y026052D02*
X002150Y026052D01*
X002309Y025894D02*
X001697Y025894D01*
X001697Y025735D02*
X002467Y025735D01*
X002626Y025577D02*
X001697Y025577D01*
X001697Y025418D02*
X002784Y025418D01*
X002943Y025260D02*
X001697Y025260D01*
X001697Y025101D02*
X003102Y025101D01*
X003213Y024942D02*
X001697Y024942D01*
X001697Y024784D02*
X003135Y024784D01*
X003463Y025418D02*
X006134Y025418D01*
X005976Y025577D02*
X003305Y025577D01*
X003146Y025735D02*
X005817Y025735D01*
X005659Y025894D02*
X002988Y025894D01*
X002829Y026052D02*
X005500Y026052D01*
X005342Y026211D02*
X002982Y026211D01*
X003067Y026369D02*
X005183Y026369D01*
X004823Y025101D02*
X008967Y025101D01*
X008967Y024942D02*
X005000Y024942D01*
X005078Y024784D02*
X008967Y024784D01*
X008824Y024625D02*
X005112Y024625D01*
X005111Y024467D02*
X008777Y024467D01*
X008798Y024308D02*
X005046Y024308D01*
X004922Y024150D02*
X008905Y024150D01*
X009311Y023991D02*
X001697Y023991D01*
X001697Y023833D02*
X009470Y023833D01*
X008813Y023674D02*
X007900Y023674D01*
X007946Y023628D02*
X007841Y023733D01*
X007333Y023733D01*
X006825Y023733D01*
X006720Y023628D01*
X006720Y023436D01*
X007333Y023436D01*
X007333Y023733D01*
X007333Y023436D01*
X007333Y023436D01*
X007333Y023435D01*
X007333Y023436D01*
X007946Y023436D01*
X007946Y023628D01*
X007946Y023516D02*
X008767Y023516D01*
X008767Y023357D02*
X007946Y023357D01*
X007902Y023199D02*
X008811Y023199D01*
X008767Y023040D02*
X007946Y023040D01*
X007946Y022881D02*
X008663Y022881D01*
X008533Y022723D02*
X007926Y022723D01*
X007946Y022564D02*
X008517Y022564D01*
X008517Y022406D02*
X007946Y022406D01*
X007946Y022247D02*
X008517Y022247D01*
X008517Y022089D02*
X007946Y022089D01*
X007946Y021930D02*
X008517Y021930D01*
X008106Y021772D02*
X007946Y021772D01*
X006613Y022881D02*
X005038Y022881D01*
X005021Y022921D02*
X005112Y022703D01*
X005112Y022643D01*
X004164Y022643D01*
X004049Y022643D01*
X004049Y023178D01*
X003576Y023178D01*
X003359Y023088D01*
X003192Y022921D01*
X003102Y022703D01*
X003102Y022643D01*
X004049Y022643D01*
X004049Y022528D01*
X003102Y022528D01*
X003102Y022467D01*
X003192Y022250D01*
X003359Y022083D01*
X003576Y021993D01*
X004049Y021993D01*
X004049Y022528D01*
X004164Y022528D01*
X004164Y021993D01*
X004637Y021993D01*
X004855Y022083D01*
X005021Y022250D01*
X005112Y022467D01*
X005112Y022528D01*
X004164Y022528D01*
X004164Y022643D01*
X004164Y023178D01*
X004637Y023178D01*
X004855Y023088D01*
X005021Y022921D01*
X004903Y023040D02*
X006720Y023040D01*
X006764Y023199D02*
X001697Y023199D01*
X001697Y023357D02*
X006720Y023357D01*
X006720Y023516D02*
X001697Y023516D01*
X001697Y023674D02*
X006766Y023674D01*
X007333Y023674D02*
X007333Y023674D01*
X007333Y023516D02*
X007333Y023516D01*
X006307Y022723D02*
X005104Y022723D01*
X005086Y022406D02*
X006177Y022406D01*
X006199Y022564D02*
X004164Y022564D01*
X004049Y022564D02*
X001697Y022564D01*
X001697Y022406D02*
X003127Y022406D01*
X003194Y022247D02*
X001697Y022247D01*
X001697Y022089D02*
X003353Y022089D01*
X003110Y022723D02*
X001697Y022723D01*
X001697Y022881D02*
X003175Y022881D01*
X003311Y023040D02*
X001697Y023040D01*
X001697Y024150D02*
X003292Y024150D01*
X003168Y024308D02*
X001697Y024308D01*
X003622Y025260D02*
X006293Y025260D01*
X008120Y025260D02*
X008967Y025260D01*
X008967Y025418D02*
X008279Y025418D01*
X008243Y025382D02*
X008243Y025382D01*
X008526Y025577D02*
X008606Y025577D01*
X008606Y025735D02*
X008526Y025735D01*
X008526Y025894D02*
X008606Y025894D01*
X011651Y023040D02*
X013427Y023040D01*
X013459Y022881D02*
X011492Y022881D01*
X011334Y022723D02*
X013582Y022723D01*
X013666Y022645D02*
X013397Y022376D01*
X013397Y022186D01*
X013856Y022186D01*
X013856Y022645D01*
X013666Y022645D01*
X013585Y022564D02*
X012128Y022564D01*
X012047Y022645D02*
X011666Y022645D01*
X011397Y022376D01*
X011397Y021995D01*
X011666Y021725D01*
X012047Y021725D01*
X012317Y021995D01*
X012317Y022376D01*
X012047Y022645D01*
X012287Y022406D02*
X013427Y022406D01*
X013397Y022247D02*
X012317Y022247D01*
X012317Y022089D02*
X013397Y022089D01*
X013461Y021930D02*
X012252Y021930D01*
X012093Y021772D02*
X013620Y021772D01*
X013856Y021772D02*
X013857Y021772D01*
X013857Y021725D02*
X014047Y021725D01*
X014317Y021995D01*
X014317Y022185D01*
X013857Y022185D01*
X013857Y021725D01*
X013856Y021930D02*
X013857Y021930D01*
X013856Y022089D02*
X013857Y022089D01*
X013856Y022247D02*
X013857Y022247D01*
X013856Y022406D02*
X013857Y022406D01*
X013856Y022564D02*
X013857Y022564D01*
X014187Y022995D02*
X014187Y023111D01*
X014129Y023251D01*
X014022Y023357D01*
X015096Y023357D01*
X015254Y023199D02*
X014150Y023199D01*
X014187Y023040D02*
X015413Y023040D01*
X015571Y022881D02*
X014300Y022881D01*
X014187Y022995D02*
X014797Y022385D01*
X014797Y022426D01*
X015066Y022695D01*
X015447Y022695D01*
X015717Y022426D01*
X015717Y022045D01*
X015497Y021825D01*
X015497Y021685D01*
X015797Y021385D01*
X015797Y021426D01*
X016066Y021695D01*
X016447Y021695D01*
X016717Y021426D01*
X016717Y021045D01*
X016697Y021025D01*
X016757Y021025D01*
X017277Y021545D01*
X017186Y021455D02*
X016688Y021455D01*
X016717Y021296D02*
X017028Y021296D01*
X016869Y021137D02*
X016717Y021137D01*
X016840Y021613D02*
X016529Y021613D01*
X016681Y021772D02*
X015497Y021772D01*
X015568Y021613D02*
X015984Y021613D01*
X015825Y021455D02*
X015727Y021455D01*
X015602Y021930D02*
X016522Y021930D01*
X016364Y022089D02*
X015717Y022089D01*
X015717Y022247D02*
X016205Y022247D01*
X016047Y022406D02*
X015717Y022406D01*
X015578Y022564D02*
X015888Y022564D01*
X015730Y022723D02*
X014459Y022723D01*
X014617Y022564D02*
X014935Y022564D01*
X014797Y022406D02*
X014776Y022406D01*
X014414Y022089D02*
X014317Y022089D01*
X014252Y021930D02*
X014572Y021930D01*
X014617Y021772D02*
X014093Y021772D01*
X013463Y023199D02*
X011809Y023199D01*
X011585Y022564D02*
X011175Y022564D01*
X011017Y022406D02*
X011427Y022406D01*
X011397Y022247D02*
X010858Y022247D01*
X010699Y022089D02*
X011397Y022089D01*
X011461Y021930D02*
X010541Y021930D01*
X010382Y021772D02*
X011620Y021772D01*
X013591Y023357D02*
X013731Y023415D01*
X013882Y023415D01*
X014022Y023357D01*
X017626Y025577D02*
X017706Y025577D01*
X017706Y025735D02*
X017626Y025735D01*
X017626Y025894D02*
X017706Y025894D01*
X019197Y026211D02*
X020342Y026211D01*
X020183Y026369D02*
X019242Y026369D01*
X019242Y026528D02*
X020025Y026528D01*
X019866Y026686D02*
X019242Y026686D01*
X019242Y026845D02*
X019708Y026845D01*
X019549Y027004D02*
X019242Y027004D01*
X019132Y027162D02*
X019391Y027162D01*
X019232Y027321D02*
X019132Y027321D01*
X015948Y030016D02*
X014237Y030016D01*
X014237Y030174D02*
X015467Y030174D01*
X015309Y030333D02*
X014305Y030333D01*
X014373Y030491D02*
X015240Y030491D01*
X015214Y030650D02*
X014399Y030650D01*
X014399Y030809D02*
X015214Y030809D01*
X015214Y030967D02*
X014399Y030967D01*
X014399Y031126D02*
X015214Y031126D01*
X015214Y031284D02*
X014399Y031284D01*
X014399Y031443D02*
X015214Y031443D01*
X015214Y031601D02*
X014399Y031601D01*
X014339Y031760D02*
X015274Y031760D01*
X015389Y031918D02*
X014224Y031918D01*
X016224Y031918D02*
X017050Y031918D01*
X016892Y031760D02*
X016339Y031760D01*
X016399Y031601D02*
X016733Y031601D01*
X016575Y031443D02*
X016399Y031443D01*
X016399Y031284D02*
X016416Y031284D01*
X015789Y029857D02*
X014237Y029857D01*
X014237Y029699D02*
X015631Y029699D01*
X015472Y029540D02*
X014237Y029540D01*
X014237Y029382D02*
X015314Y029382D01*
X015155Y029223D02*
X014703Y029223D01*
X014732Y029065D02*
X014997Y029065D01*
X014838Y028906D02*
X014732Y028906D01*
X022891Y031443D02*
X023322Y031443D01*
X023175Y031601D02*
X023038Y031601D01*
X023104Y031760D02*
X023109Y031760D01*
X023107Y031918D02*
X023107Y031918D01*
X023107Y032077D02*
X023107Y032077D01*
X023107Y032235D02*
X023107Y032235D01*
X023107Y032394D02*
X023107Y032394D01*
X023107Y032553D02*
X023107Y032553D01*
X023063Y032711D02*
X023151Y032711D01*
X023264Y032870D02*
X022949Y032870D01*
X023891Y031443D02*
X024010Y031443D01*
X024290Y030491D02*
X024961Y030491D01*
X025067Y030333D02*
X025120Y030333D01*
X024746Y030333D02*
X024448Y030333D01*
X037991Y019235D02*
X039857Y019235D01*
X039857Y019076D02*
X038216Y019076D01*
X038314Y018918D02*
X039857Y018918D01*
X039857Y018759D02*
X038362Y018759D01*
X038362Y018601D02*
X039857Y018601D01*
X039857Y018442D02*
X038310Y018442D01*
X038205Y018284D02*
X039857Y018284D01*
X021489Y009722D02*
X021078Y009722D01*
X021069Y009564D02*
X021427Y009564D01*
X021427Y009405D02*
X021074Y009405D01*
X021172Y009247D02*
X021427Y009247D01*
X021427Y009088D02*
X021187Y009088D01*
X021133Y008930D02*
X021427Y008930D01*
X021427Y008771D02*
X020920Y008771D01*
X020693Y008771D02*
X020281Y008771D01*
X020281Y008613D02*
X021427Y008613D01*
X021427Y008454D02*
X020242Y008454D01*
X020281Y008295D02*
X021427Y008295D01*
X021427Y008137D02*
X020281Y008137D01*
X020266Y007978D02*
X021427Y007978D01*
X021427Y007820D02*
X020281Y007820D01*
X020281Y007661D02*
X021427Y007661D01*
X021427Y007503D02*
X020281Y007503D01*
X020281Y007378D02*
X020281Y007186D01*
X018773Y005600D02*
X018430Y005600D01*
X018619Y005759D02*
X016221Y005759D01*
X016287Y005600D02*
X017283Y005600D01*
X017283Y005442D02*
X016279Y005442D01*
X016192Y005283D02*
X017283Y005283D01*
X017283Y005125D02*
X016147Y005125D01*
X016147Y004966D02*
X017283Y004966D01*
X017382Y004807D02*
X016147Y004807D01*
X016147Y004649D02*
X018481Y004649D01*
X018332Y004807D02*
X018639Y004807D01*
X018798Y004966D02*
X018430Y004966D01*
X019001Y004490D02*
X019057Y004490D01*
X018843Y004332D02*
X020059Y004332D01*
X020059Y004173D02*
X018684Y004173D01*
X018525Y004015D02*
X020027Y004015D01*
X020027Y003856D02*
X018430Y003856D01*
X018403Y003698D02*
X020027Y003698D01*
X020023Y003539D02*
X016411Y003539D01*
X016411Y003381D02*
X019906Y003381D01*
X019877Y003222D02*
X016411Y003222D01*
X016411Y003064D02*
X019906Y003064D01*
X019766Y002905D02*
X016411Y002905D01*
X016402Y002746D02*
X019727Y002746D01*
X019785Y002520D02*
X019829Y002475D01*
X020418Y001161D02*
X021220Y001161D01*
X019617Y000685D02*
X000357Y000685D01*
X000357Y000844D02*
X019459Y000844D01*
X018516Y001161D02*
X018197Y001161D01*
X018292Y001320D02*
X018422Y001320D01*
X018422Y001478D02*
X018292Y001478D01*
X018292Y001637D02*
X018422Y001637D01*
X018422Y001795D02*
X018306Y001795D01*
X017310Y003698D02*
X016329Y003698D01*
X016147Y003856D02*
X017283Y003856D01*
X017283Y004015D02*
X016147Y004015D01*
X016147Y004173D02*
X017283Y004173D01*
X017283Y004332D02*
X016147Y004332D01*
X016147Y004490D02*
X017309Y004490D01*
X015667Y004173D02*
X003565Y004173D01*
X003840Y004015D02*
X015099Y004015D01*
X014995Y003856D02*
X004040Y003856D01*
X003954Y003949D02*
X003954Y003949D01*
X004187Y003698D02*
X014385Y003698D01*
X014302Y003539D02*
X011432Y003539D01*
X011587Y003381D02*
X014302Y003381D01*
X014302Y003222D02*
X011587Y003222D01*
X011587Y003064D02*
X014302Y003064D01*
X014302Y002905D02*
X011505Y002905D01*
X011347Y002746D02*
X014311Y002746D01*
X014291Y002112D02*
X011587Y002112D01*
X011587Y002271D02*
X015667Y002271D01*
X015667Y002429D02*
X011541Y002429D01*
X011383Y002588D02*
X015667Y002588D01*
X015431Y002746D02*
X015282Y002746D01*
X015292Y002905D02*
X015422Y002905D01*
X015422Y003064D02*
X015292Y003064D01*
X015292Y003222D02*
X015422Y003222D01*
X015615Y004015D02*
X015667Y004015D01*
X015472Y002112D02*
X015241Y002112D01*
X015241Y001954D02*
X015472Y001954D01*
X015472Y001795D02*
X015241Y001795D01*
X015241Y001637D02*
X015472Y001637D01*
X015472Y001478D02*
X015353Y001478D01*
X015150Y001002D02*
X003218Y001002D01*
X003675Y001161D02*
X014347Y001161D01*
X014291Y001320D02*
X003950Y001320D01*
X003954Y001322D02*
X003954Y001322D01*
X003954Y001322D01*
X004099Y001478D02*
X010780Y001478D01*
X010616Y001637D02*
X004246Y001637D01*
X004295Y001689D02*
X004295Y001689D01*
X004346Y001795D02*
X006818Y001795D01*
X006908Y001705D02*
X007305Y001705D01*
X007587Y001987D01*
X007587Y002384D01*
X007305Y002665D01*
X006908Y002665D01*
X006627Y002384D01*
X006627Y001987D01*
X006908Y001705D01*
X006660Y001954D02*
X004422Y001954D01*
X004499Y002112D02*
X006627Y002112D01*
X006627Y002271D02*
X004532Y002271D01*
X004556Y002429D02*
X006672Y002429D01*
X006830Y002588D02*
X004579Y002588D01*
X004570Y002746D02*
X006867Y002746D01*
X006908Y002705D02*
X007305Y002705D01*
X007587Y002987D01*
X007587Y003384D01*
X007305Y003665D01*
X006908Y003665D01*
X006627Y003384D01*
X006627Y002987D01*
X006908Y002705D01*
X006708Y002905D02*
X004546Y002905D01*
X004522Y003064D02*
X006627Y003064D01*
X006627Y003222D02*
X004468Y003222D01*
X004392Y003381D02*
X006627Y003381D01*
X006782Y003539D02*
X004315Y003539D01*
X004295Y003582D02*
X004295Y003582D01*
X002278Y004173D02*
X000357Y004173D01*
X000357Y004015D02*
X001972Y004015D01*
X002067Y004090D02*
X002067Y004090D01*
X001773Y003856D02*
X000357Y003856D01*
X000357Y003698D02*
X001620Y003698D01*
X001675Y003778D02*
X001675Y003778D01*
X001675Y003778D01*
X001512Y003539D02*
X000357Y003539D01*
X000357Y003381D02*
X001404Y003381D01*
X001393Y003364D02*
X001393Y003364D01*
X001349Y003222D02*
X000357Y003222D01*
X000357Y003064D02*
X001300Y003064D01*
X001251Y002905D02*
X000357Y002905D01*
X000357Y002746D02*
X001245Y002746D01*
X001245Y002886D02*
X001245Y002886D01*
X001245Y002588D02*
X000357Y002588D01*
X000357Y002429D02*
X001245Y002429D01*
X001245Y002385D02*
X001245Y002385D01*
X001281Y002271D02*
X000357Y002271D01*
X000357Y002112D02*
X001330Y002112D01*
X001378Y001954D02*
X000357Y001954D01*
X000357Y001795D02*
X001469Y001795D01*
X001393Y001906D02*
X001393Y001906D01*
X001577Y001637D02*
X000357Y001637D01*
X000357Y001478D02*
X001693Y001478D01*
X001892Y001320D02*
X000357Y001320D01*
X000357Y001161D02*
X002116Y001161D01*
X002067Y001180D02*
X002067Y001180D01*
X002520Y001002D02*
X000357Y001002D01*
X002533Y000997D02*
X002533Y000997D01*
X001721Y004332D02*
X000357Y004332D01*
X000357Y004490D02*
X001562Y004490D01*
X001404Y004649D02*
X000357Y004649D01*
X000357Y004807D02*
X001250Y004807D01*
X001217Y004966D02*
X000357Y004966D01*
X000357Y005125D02*
X001217Y005125D01*
X001217Y005283D02*
X000357Y005283D01*
X000357Y005442D02*
X001217Y005442D01*
X001217Y005600D02*
X000357Y005600D01*
X000357Y005759D02*
X001217Y005759D01*
X001217Y005917D02*
X000357Y005917D01*
X000357Y006076D02*
X001217Y006076D01*
X001217Y006234D02*
X000357Y006234D01*
X000357Y006393D02*
X001217Y006393D01*
X001217Y006551D02*
X000357Y006551D01*
X000357Y006710D02*
X001217Y006710D01*
X001217Y006869D02*
X000357Y006869D01*
X000357Y007027D02*
X001217Y007027D01*
X001217Y007186D02*
X000357Y007186D01*
X000357Y007344D02*
X001217Y007344D01*
X001217Y007503D02*
X000357Y007503D01*
X000357Y007661D02*
X001217Y007661D01*
X001217Y007820D02*
X000357Y007820D01*
X000357Y007978D02*
X001217Y007978D01*
X001217Y008137D02*
X000357Y008137D01*
X000357Y008295D02*
X001217Y008295D01*
X001217Y008454D02*
X000357Y008454D01*
X000357Y008613D02*
X001217Y008613D01*
X001217Y008771D02*
X000357Y008771D01*
X000357Y008930D02*
X001217Y008930D01*
X001217Y009088D02*
X000357Y009088D01*
X000357Y009247D02*
X001217Y009247D01*
X001217Y009405D02*
X000357Y009405D01*
X000357Y009564D02*
X001217Y009564D01*
X001217Y009722D02*
X000357Y009722D01*
X000357Y009881D02*
X001217Y009881D01*
X001217Y010039D02*
X000357Y010039D01*
X000357Y010198D02*
X001217Y010198D01*
X001217Y010356D02*
X000357Y010356D01*
X000357Y010515D02*
X001217Y010515D01*
X001217Y010674D02*
X000357Y010674D01*
X000357Y010832D02*
X001217Y010832D01*
X001217Y010991D02*
X000357Y010991D01*
X000357Y011149D02*
X001217Y011149D01*
X001217Y011308D02*
X000357Y011308D01*
X000357Y011466D02*
X001217Y011466D01*
X001217Y011625D02*
X000357Y011625D01*
X000357Y011783D02*
X001217Y011783D01*
X001217Y011942D02*
X000357Y011942D01*
X000357Y012100D02*
X001217Y012100D01*
X001217Y012259D02*
X000357Y012259D01*
X000357Y012418D02*
X001217Y012418D01*
X001217Y012576D02*
X000357Y012576D01*
X000357Y012735D02*
X001217Y012735D01*
X001217Y012893D02*
X000357Y012893D01*
X000357Y013052D02*
X001217Y013052D01*
X001217Y013210D02*
X000357Y013210D01*
X000357Y013369D02*
X001217Y013369D01*
X001217Y013527D02*
X000357Y013527D01*
X000357Y013686D02*
X001217Y013686D01*
X001217Y013844D02*
X000357Y013844D01*
X000357Y014003D02*
X001217Y014003D01*
X001217Y014162D02*
X000357Y014162D01*
X000357Y014320D02*
X001217Y014320D01*
X001217Y014479D02*
X000357Y014479D01*
X000357Y014637D02*
X001217Y014637D01*
X001217Y014796D02*
X000357Y014796D01*
X000357Y014954D02*
X001217Y014954D01*
X001217Y015113D02*
X000357Y015113D01*
X000357Y015271D02*
X001217Y015271D01*
X001217Y015430D02*
X000357Y015430D01*
X000357Y015588D02*
X001217Y015588D01*
X001217Y015747D02*
X000357Y015747D01*
X000357Y015906D02*
X001217Y015906D01*
X001217Y016064D02*
X000357Y016064D01*
X000357Y016223D02*
X001217Y016223D01*
X001217Y016381D02*
X000357Y016381D01*
X000357Y016540D02*
X001217Y016540D01*
X001217Y016698D02*
X000357Y016698D01*
X000357Y016857D02*
X001217Y016857D01*
X001217Y017015D02*
X000357Y017015D01*
X000357Y017174D02*
X001217Y017174D01*
X001217Y017332D02*
X000357Y017332D01*
X000357Y017491D02*
X001217Y017491D01*
X001217Y017649D02*
X000357Y017649D01*
X000357Y017808D02*
X001217Y017808D01*
X001217Y017967D02*
X000357Y017967D01*
X000357Y018125D02*
X001217Y018125D01*
X001217Y018284D02*
X000357Y018284D01*
X000357Y018442D02*
X001217Y018442D01*
X001217Y018601D02*
X000357Y018601D01*
X000357Y018759D02*
X001217Y018759D01*
X001217Y018918D02*
X000357Y018918D01*
X000357Y019076D02*
X001217Y019076D01*
X001217Y019235D02*
X000357Y019235D01*
X000357Y019393D02*
X001217Y019393D01*
X001217Y019552D02*
X000357Y019552D01*
X000357Y019711D02*
X001217Y019711D01*
X001217Y019869D02*
X000357Y019869D01*
X002237Y017967D02*
X002277Y017967D01*
X002277Y017808D02*
X002237Y017808D01*
X002237Y017649D02*
X002277Y017649D01*
X002277Y017491D02*
X002237Y017491D01*
X002237Y017332D02*
X002277Y017332D01*
X002277Y017174D02*
X002237Y017174D01*
X002237Y017015D02*
X002277Y017015D01*
X002277Y016857D02*
X002237Y016857D01*
X002237Y016698D02*
X002277Y016698D01*
X001789Y017015D02*
X001697Y017015D01*
X001697Y016064D02*
X001768Y016064D01*
X004049Y022089D02*
X004164Y022089D01*
X004164Y022247D02*
X004049Y022247D01*
X004049Y022406D02*
X004164Y022406D01*
X004164Y022723D02*
X004049Y022723D01*
X004049Y022881D02*
X004164Y022881D01*
X004164Y023040D02*
X004049Y023040D01*
X005019Y022247D02*
X006223Y022247D01*
X006159Y022089D02*
X004861Y022089D01*
X002932Y032661D02*
X002932Y032661D01*
X004492Y009564D02*
X012046Y009564D01*
X011887Y009405D02*
X004492Y009405D01*
X004492Y009247D02*
X011729Y009247D01*
X011570Y009088D02*
X004444Y009088D01*
X004229Y008930D02*
X011412Y008930D01*
X011253Y008771D02*
X004237Y008771D01*
X004171Y008613D02*
X011094Y008613D01*
X010936Y008454D02*
X010060Y008454D01*
X009854Y008454D02*
X004335Y008454D01*
X004422Y008295D02*
X009632Y008295D01*
X009577Y008137D02*
X004447Y008137D01*
X004447Y007978D02*
X005677Y007978D01*
X005677Y007820D02*
X003967Y007820D01*
X003447Y007661D02*
X002667Y007661D01*
X002667Y007503D02*
X003447Y007503D01*
X003468Y007344D02*
X002645Y007344D01*
X002564Y007186D02*
X003549Y007186D01*
X004344Y007186D02*
X005777Y007186D01*
X005693Y007344D02*
X004425Y007344D01*
X004447Y007503D02*
X005677Y007503D01*
X005677Y007661D02*
X004447Y007661D01*
X005677Y006551D02*
X002397Y006551D01*
X002397Y006393D02*
X005677Y006393D01*
X006062Y006393D02*
X006152Y006393D01*
X006152Y006551D02*
X006062Y006551D01*
X006061Y006710D02*
X002397Y006710D01*
X002397Y006234D02*
X006066Y006234D01*
X005908Y006076D02*
X002397Y006076D01*
X006152Y006710D02*
X006542Y006710D01*
X006537Y006869D02*
X006701Y006869D01*
X006859Y007027D02*
X006519Y007027D01*
X006437Y007186D02*
X007018Y007186D01*
X007176Y007344D02*
X006520Y007344D01*
X006537Y007978D02*
X009590Y007978D01*
X007855Y007344D02*
X017345Y007344D01*
X017283Y007503D02*
X015663Y007503D01*
X015822Y007661D02*
X017283Y007661D01*
X017283Y007820D02*
X015981Y007820D01*
X016139Y007978D02*
X017283Y007978D01*
X017283Y008137D02*
X016298Y008137D01*
X016456Y008295D02*
X018191Y008295D01*
X018288Y008454D02*
X016615Y008454D01*
X016773Y008613D02*
X018267Y008613D01*
X017283Y008771D02*
X016932Y008771D01*
X017090Y008930D02*
X017283Y008930D01*
X017283Y009088D02*
X017249Y009088D01*
X020229Y008930D02*
X020481Y008930D01*
X020427Y009088D02*
X020281Y009088D01*
X020281Y009247D02*
X020442Y009247D01*
X020539Y009405D02*
X020254Y009405D01*
X020281Y009564D02*
X020589Y009564D01*
X020597Y009722D02*
X020281Y009722D01*
X020281Y005378D02*
X020281Y005378D01*
X014291Y001954D02*
X011554Y001954D01*
X010457Y001795D02*
X010395Y001795D01*
X009818Y001795D02*
X009395Y001795D01*
X009305Y001705D02*
X009587Y001987D01*
X009587Y002384D01*
X009305Y002665D01*
X008908Y002665D01*
X008627Y002384D01*
X008627Y001987D01*
X008908Y001705D01*
X009305Y001705D01*
X009554Y001954D02*
X009660Y001954D01*
X009627Y002112D02*
X009587Y002112D01*
X009587Y002271D02*
X009627Y002271D01*
X009672Y002429D02*
X009541Y002429D01*
X009383Y002588D02*
X009830Y002588D01*
X009908Y002705D02*
X010305Y002705D01*
X010587Y002987D01*
X010587Y003384D01*
X010305Y003665D01*
X009908Y003665D01*
X009627Y003384D01*
X009627Y002987D01*
X009908Y002705D01*
X009867Y002746D02*
X009347Y002746D01*
X009305Y002705D02*
X009587Y002987D01*
X009587Y003384D01*
X009305Y003665D01*
X008908Y003665D01*
X008627Y003384D01*
X008627Y002987D01*
X008908Y002705D01*
X009305Y002705D01*
X009505Y002905D02*
X009708Y002905D01*
X009627Y003064D02*
X009587Y003064D01*
X009587Y003222D02*
X009627Y003222D01*
X009627Y003381D02*
X009587Y003381D01*
X009432Y003539D02*
X009782Y003539D01*
X010432Y003539D02*
X010782Y003539D01*
X010627Y003381D02*
X010587Y003381D01*
X010587Y003222D02*
X010627Y003222D01*
X010627Y003064D02*
X010587Y003064D01*
X010505Y002905D02*
X010708Y002905D01*
X010628Y002746D02*
X010347Y002746D01*
X010383Y002588D02*
X010470Y002588D01*
X008867Y002746D02*
X008347Y002746D01*
X008305Y002705D02*
X008587Y002987D01*
X008587Y003384D01*
X008305Y003665D01*
X007908Y003665D01*
X007627Y003384D01*
X007627Y002987D01*
X007908Y002705D01*
X008305Y002705D01*
X008305Y002665D02*
X007908Y002665D01*
X007627Y002384D01*
X007627Y001987D01*
X007908Y001705D01*
X008305Y001705D01*
X008587Y001987D01*
X008587Y002384D01*
X008305Y002665D01*
X008383Y002588D02*
X008830Y002588D01*
X008672Y002429D02*
X008541Y002429D01*
X008587Y002271D02*
X008627Y002271D01*
X008627Y002112D02*
X008587Y002112D01*
X008554Y001954D02*
X008660Y001954D01*
X008818Y001795D02*
X008395Y001795D01*
X007818Y001795D02*
X007395Y001795D01*
X007554Y001954D02*
X007660Y001954D01*
X007627Y002112D02*
X007587Y002112D01*
X007587Y002271D02*
X007627Y002271D01*
X007672Y002429D02*
X007541Y002429D01*
X007383Y002588D02*
X007830Y002588D01*
X007867Y002746D02*
X007347Y002746D01*
X007505Y002905D02*
X007708Y002905D01*
X007627Y003064D02*
X007587Y003064D01*
X007587Y003222D02*
X007627Y003222D01*
X007627Y003381D02*
X007587Y003381D01*
X007432Y003539D02*
X007782Y003539D01*
X008432Y003539D02*
X008782Y003539D01*
X008627Y003381D02*
X008587Y003381D01*
X008587Y003222D02*
X008627Y003222D01*
X008627Y003064D02*
X008587Y003064D01*
X008505Y002905D02*
X008708Y002905D01*
X006269Y005759D02*
X011911Y005759D01*
X011911Y005917D02*
X006428Y005917D01*
X006587Y006076D02*
X011911Y006076D01*
X011911Y006234D02*
X006745Y006234D01*
X006904Y006393D02*
X011911Y006393D01*
X011911Y006551D02*
X007062Y006551D01*
X007221Y006710D02*
X012047Y006710D01*
X012027Y006869D02*
X007379Y006869D01*
X007538Y007027D02*
X012075Y007027D01*
X012259Y007186D02*
X007696Y007186D01*
X012900Y005917D02*
X013013Y005917D01*
X013013Y005759D02*
X012900Y005759D01*
X035563Y001002D02*
X037393Y001002D01*
X037533Y000947D02*
X037533Y000947D01*
X037067Y001130D02*
X037067Y001130D01*
X037028Y001161D02*
X035722Y001161D01*
D42*
X022357Y004685D03*
X020357Y006685D03*
X030357Y016685D03*
X034857Y015185D03*
D43*
X034417Y014185D02*
X034207Y014185D01*
X033157Y013135D01*
X032057Y013135D01*
X032057Y013085D01*
X029257Y010285D01*
X028107Y010285D02*
X029457Y011635D01*
X029507Y011635D01*
X029957Y012085D01*
X029957Y012685D01*
X029957Y014185D01*
X029357Y014185D02*
X029357Y013485D01*
X029357Y012685D02*
X029357Y012035D01*
X030007Y011585D02*
X028107Y009685D01*
X027007Y009185D02*
X026046Y009185D01*
X026046Y008685D02*
X026707Y008685D01*
X027007Y008385D01*
X026046Y008185D02*
X025357Y008185D01*
X025307Y008135D01*
X025257Y008985D02*
X025257Y009685D01*
X024857Y010085D01*
X024857Y010374D01*
X024357Y010374D02*
X024357Y010685D01*
X024657Y010985D01*
X025557Y010985D01*
X026157Y011585D01*
X024107Y014285D02*
X021357Y011535D01*
X021357Y010374D01*
X020857Y010374D02*
X020857Y010085D01*
X020807Y009135D01*
X019668Y008685D02*
X019057Y008685D01*
X018557Y008185D01*
X018957Y007785D02*
X019357Y008185D01*
X019668Y008185D01*
X018957Y007785D02*
X017857Y007785D01*
X017857Y007776D01*
X018607Y008785D02*
X018307Y009085D01*
X017857Y009085D01*
X017857Y009095D01*
X017607Y009785D02*
X018307Y009785D01*
X019957Y011435D01*
X019957Y014335D01*
X019984Y014345D01*
X020007Y014385D01*
X020007Y014685D01*
X020107Y014785D01*
X020307Y014785D01*
X020307Y017135D01*
X020407Y017135D01*
X020307Y017135D02*
X020307Y017685D01*
X020299Y017725D01*
X020607Y017735D02*
X020614Y017725D01*
X020607Y017735D02*
X020607Y018935D01*
X020557Y018985D01*
X019657Y018035D02*
X017157Y020535D01*
X016857Y020785D02*
X015957Y020785D01*
X015957Y019585D01*
X015958Y019585D01*
X015307Y019135D02*
X014857Y019585D01*
X014856Y019585D01*
X014857Y019635D01*
X014857Y021985D01*
X013807Y023035D01*
X015257Y022235D02*
X015257Y021585D01*
X015957Y020885D01*
X015957Y020785D01*
X016857Y020785D02*
X018257Y022185D01*
X019507Y022185D01*
X019507Y021185D02*
X019957Y020735D01*
X019957Y017735D01*
X019984Y017725D01*
X019669Y017725D02*
X019657Y017735D01*
X019657Y018035D01*
X019354Y017725D02*
X019307Y017735D01*
X017007Y020035D01*
X017807Y018635D02*
X018607Y017835D01*
X018757Y017185D02*
X018767Y017138D01*
X018807Y017135D01*
X019407Y017135D01*
X018757Y017185D02*
X016757Y017185D01*
X015957Y017985D01*
X015917Y017985D01*
X015307Y017685D02*
X015307Y019135D01*
X015307Y017685D02*
X016157Y016835D01*
X018757Y016835D01*
X018767Y016823D01*
X018757Y016535D02*
X018767Y016508D01*
X018757Y016535D02*
X015507Y016535D01*
X015307Y016735D01*
X015057Y016235D02*
X018757Y016235D01*
X018767Y016193D01*
X018767Y015878D02*
X018757Y015835D01*
X016707Y015835D01*
X013807Y012935D01*
X013807Y011835D01*
X013657Y011685D01*
X012957Y011685D01*
X012707Y011935D01*
X012707Y012635D01*
X012557Y012785D01*
X009707Y012785D01*
X009707Y012835D01*
X007607Y012835D01*
X007307Y012535D01*
X005558Y012535D01*
X005507Y012535D01*
X004957Y011985D01*
X002557Y011985D01*
X001757Y011185D01*
X001757Y009085D01*
X002157Y008685D01*
X002157Y007835D01*
X002167Y007815D01*
X002157Y007785D01*
X002157Y005285D01*
X002167Y005255D01*
X001457Y004935D02*
X001957Y004435D01*
X004607Y004435D01*
X007807Y007635D01*
X007807Y007685D01*
X006107Y007685D01*
X007807Y007685D02*
X015507Y007685D01*
X017607Y009785D01*
X020857Y010374D02*
X020857Y013935D01*
X020807Y013935D01*
X020907Y014035D01*
X020907Y014335D01*
X020929Y014345D01*
X020957Y014385D01*
X020957Y014885D01*
X021207Y015135D01*
X021207Y017685D01*
X021244Y017725D01*
X021257Y017785D01*
X021257Y020385D01*
X021857Y020985D01*
X021857Y021385D01*
X021057Y022185D01*
X021057Y021185D02*
X020957Y021085D01*
X020957Y017735D01*
X020929Y017725D01*
X021559Y017725D02*
X021607Y017685D01*
X021907Y017685D01*
X022007Y017585D01*
X022157Y017185D02*
X022147Y017138D01*
X022157Y017185D02*
X022507Y017535D01*
X022907Y017285D02*
X022907Y022385D01*
X022607Y022685D01*
X018357Y022685D01*
X017457Y021785D01*
X017007Y021785D01*
X013707Y025085D01*
X013707Y026535D01*
X013557Y026685D01*
X012957Y026685D01*
X012807Y026535D01*
X012807Y025585D01*
X012657Y025435D01*
X012057Y025435D01*
X012057Y023785D01*
X009807Y021535D01*
X009807Y021085D01*
X009407Y021935D02*
X009380Y021935D01*
X009407Y021935D02*
X009407Y019935D01*
X009207Y019585D02*
X009807Y018985D01*
X010207Y018985D01*
X011007Y018185D01*
X010007Y018185D02*
X009357Y017535D01*
X007667Y017535D01*
X006557Y017535D02*
X006547Y017535D01*
X006507Y017735D01*
X004457Y015685D01*
X004457Y015585D01*
X004447Y015535D01*
X002257Y015535D01*
X002257Y014535D02*
X004447Y014535D01*
X005057Y015035D02*
X005557Y014535D01*
X005567Y014535D01*
X005057Y015035D02*
X005057Y015935D01*
X005207Y016085D01*
X005957Y016085D01*
X005957Y016135D01*
X006007Y016185D01*
X005957Y016085D02*
X006857Y015185D01*
X008807Y015185D01*
X009367Y015735D02*
X009407Y015735D01*
X011357Y013785D01*
X012357Y015095D02*
X012357Y015335D01*
X011507Y016185D01*
X011507Y019835D01*
X012857Y021185D01*
X010157Y023035D02*
X010007Y023035D01*
X010007Y023635D01*
X009207Y024435D01*
X009157Y024435D01*
X009207Y024435D02*
X009207Y026335D01*
X008857Y026685D01*
X008257Y026685D01*
X008107Y026535D01*
X008107Y025585D01*
X007957Y025435D01*
X006457Y025435D01*
X005207Y026685D01*
X002657Y026685D01*
X002057Y026685D02*
X002057Y026485D01*
X003957Y024585D01*
X004107Y024585D01*
X006747Y026065D02*
X006757Y026085D01*
X007107Y026435D01*
X007107Y026785D01*
X005257Y028476D02*
X005257Y028485D01*
X004757Y028985D01*
X003157Y028985D01*
X002657Y028485D01*
X002118Y028485D01*
X003057Y028485D02*
X003496Y028485D01*
X003057Y028485D02*
X001457Y026885D01*
X001457Y004935D01*
X002657Y008835D02*
X002257Y009235D01*
X002257Y009446D01*
X003857Y009385D02*
X003857Y008835D01*
X003857Y009385D02*
X003957Y009485D01*
X003957Y009526D01*
X003957Y010645D02*
X003957Y010685D01*
X007907Y010685D01*
X008057Y010835D01*
X008757Y010835D01*
X009257Y011335D01*
X009257Y012335D02*
X009707Y012785D01*
X009157Y014185D02*
X008157Y013185D01*
X005957Y013185D01*
X005607Y013535D01*
X005567Y013535D01*
X004447Y013535D02*
X002257Y013535D01*
X002257Y012535D02*
X004456Y012535D01*
X005567Y015535D02*
X006057Y015535D01*
X008007Y013585D01*
X008207Y015735D02*
X008247Y015735D01*
X008207Y015735D02*
X008207Y015885D01*
X006557Y017535D01*
X006547Y017535D02*
X006557Y017585D01*
X006557Y019585D01*
X006547Y019585D01*
X006557Y019635D01*
X007307Y020385D01*
X007307Y021485D01*
X008357Y021485D01*
X007307Y021485D02*
X007307Y021935D01*
X007333Y021935D01*
X006507Y021935D02*
X004307Y019735D01*
X004282Y019735D01*
X006557Y022435D02*
X006557Y022485D01*
X007007Y022935D01*
X007333Y022935D01*
X008757Y022635D02*
X008757Y019585D01*
X007667Y019585D01*
X008757Y019585D02*
X009207Y019585D01*
X009380Y022435D02*
X009707Y022435D01*
X010007Y022735D01*
X010007Y023035D01*
X009380Y022935D02*
X009057Y022935D01*
X008757Y022635D01*
X012057Y025435D02*
X011457Y026035D01*
X011447Y026065D01*
X009807Y026537D02*
X009807Y027396D01*
X013457Y027935D02*
X014207Y027935D01*
X016407Y030135D01*
X016407Y030935D01*
X017557Y032085D01*
X018057Y032085D01*
X018407Y031735D01*
X018407Y031235D01*
X021657Y027985D01*
X021657Y026885D01*
X021683Y026885D01*
X021683Y026385D02*
X020507Y026385D01*
X019007Y027885D01*
X018307Y027885D01*
X017207Y026785D01*
X017207Y022985D01*
X015007Y025235D02*
X015807Y026035D01*
X015847Y026065D01*
X014307Y026545D02*
X014307Y026585D01*
X014257Y026635D01*
X014257Y027446D01*
X018657Y027396D02*
X018657Y026735D01*
X018707Y026685D01*
X018707Y026645D01*
X021683Y025885D02*
X022007Y025885D01*
X022407Y025485D01*
X022407Y023835D01*
X022007Y024785D02*
X021707Y025085D01*
X021707Y025385D01*
X021683Y025385D01*
X022907Y026385D02*
X022907Y029235D01*
X022407Y029735D01*
X022407Y030385D01*
X024057Y030385D01*
X024407Y030035D01*
X024407Y028885D01*
X024507Y028785D01*
X027207Y028785D01*
X027207Y028776D01*
X027207Y029885D02*
X025857Y029885D01*
X025857Y029935D01*
X023607Y032185D01*
X022607Y032185D02*
X022407Y031985D01*
X022407Y030385D01*
X024907Y029885D02*
X025857Y029885D01*
X027207Y029885D02*
X027207Y029895D01*
X024607Y026935D02*
X024057Y026385D01*
X023730Y026385D01*
X023730Y025885D02*
X023407Y025885D01*
X022907Y026385D01*
X023707Y026885D02*
X023730Y026885D01*
X023707Y026885D02*
X023707Y027335D01*
X026407Y025485D02*
X028307Y025485D01*
X028367Y025488D01*
X028407Y025485D01*
X028407Y024385D01*
X028557Y024235D01*
X028606Y024235D01*
X028807Y024235D01*
X031257Y021785D01*
X031311Y021785D01*
X031307Y021735D01*
X031807Y021235D01*
X031807Y017985D01*
X033907Y015885D01*
X033907Y015735D01*
X033917Y015735D01*
X032797Y015735D02*
X032157Y015735D01*
X030057Y017835D01*
X028107Y017835D01*
X027807Y016035D01*
X027807Y015724D01*
X028307Y015724D02*
X028307Y015435D01*
X027857Y014985D01*
X026807Y015724D02*
X026807Y016035D01*
X026507Y016335D01*
X025607Y016335D01*
X025157Y015885D01*
X022157Y015885D01*
X022147Y015878D01*
X022147Y016193D02*
X022157Y016235D01*
X024957Y016235D01*
X025007Y016285D01*
X025357Y015235D02*
X022157Y015235D01*
X022147Y015248D01*
X022107Y015535D02*
X021807Y015535D01*
X021557Y015285D01*
X021557Y014935D01*
X021559Y014345D02*
X021607Y014335D01*
X021607Y013985D01*
X021657Y013935D01*
X021657Y013635D01*
X021257Y013235D01*
X021257Y013785D02*
X021257Y014335D01*
X021244Y014345D01*
X020807Y013935D02*
X020407Y013935D01*
X020307Y014035D01*
X020307Y014335D01*
X020299Y014345D01*
X020607Y014385D02*
X020607Y014635D01*
X020457Y014785D01*
X020307Y014785D01*
X020607Y014385D02*
X020614Y014345D01*
X019669Y014345D02*
X019657Y014335D01*
X019657Y014035D01*
X019407Y013785D01*
X019307Y014335D02*
X019354Y014345D01*
X019307Y014335D02*
X018407Y013435D01*
X018407Y013385D01*
X017157Y013385D02*
X013607Y009835D01*
X012857Y010035D02*
X010907Y008085D01*
X009957Y008085D01*
X012407Y006835D02*
X012407Y006135D01*
X012406Y006135D01*
X011107Y003185D02*
X011107Y002885D01*
X010607Y002385D01*
X010607Y001985D01*
X010907Y001685D01*
X014766Y001685D01*
X014807Y001685D01*
X015407Y001085D01*
X016307Y001085D01*
X016907Y001685D01*
X017797Y001685D01*
X017857Y001685D01*
X018407Y002235D01*
X020157Y002235D01*
X021357Y003435D01*
X021357Y003996D01*
X020857Y003996D02*
X020857Y003285D01*
X020307Y002735D01*
X020107Y002735D01*
X018957Y001685D02*
X018917Y001685D01*
X018957Y001685D02*
X019757Y000885D01*
X020107Y000885D01*
X020107Y000935D01*
X020107Y000885D02*
X035107Y000885D01*
X035957Y001735D01*
X035957Y002735D01*
X035207Y003485D01*
X034207Y003485D02*
X033517Y003485D01*
X033557Y003435D01*
X033557Y002535D01*
X032957Y002185D02*
X032917Y002185D01*
X032957Y002185D02*
X032957Y002935D01*
X034207Y003485D02*
X035457Y002235D01*
X035497Y002235D01*
X033407Y005185D02*
X032857Y005735D01*
X032857Y005776D01*
X033807Y005785D02*
X032857Y006735D01*
X032157Y006735D01*
X030207Y008685D01*
X028857Y008685D01*
X028557Y007135D02*
X030007Y005685D01*
X030047Y005685D01*
X030057Y005685D01*
X030907Y004835D01*
X030907Y003685D01*
X030917Y003685D01*
X030507Y004335D02*
X029857Y003685D01*
X029797Y003685D01*
X030007Y003885D01*
X028207Y005685D01*
X026046Y005685D01*
X026046Y006185D02*
X026757Y006185D01*
X026857Y006085D01*
X024857Y004285D02*
X024857Y003996D01*
X024857Y004285D02*
X024407Y004735D01*
X019668Y005185D02*
X019357Y005185D01*
X018307Y004135D01*
X017857Y004135D01*
X017857Y004095D01*
X017857Y005276D02*
X017857Y005285D01*
X018957Y005285D01*
X019357Y005685D01*
X019668Y005685D01*
X019668Y006185D02*
X019357Y006185D01*
X019107Y005935D01*
X018957Y005935D01*
X015907Y005535D02*
X015907Y003235D01*
X015917Y003185D01*
X015907Y003185D01*
X015907Y001685D01*
X015947Y001685D01*
X014807Y003185D02*
X014797Y003185D01*
X014807Y003185D02*
X015357Y003735D01*
X012857Y010035D02*
X012857Y010085D01*
X017707Y014935D01*
X018757Y014935D01*
X018767Y014933D01*
X018757Y015235D02*
X018767Y015248D01*
X018807Y015285D01*
X019107Y015285D01*
X019807Y015985D01*
X019807Y016485D01*
X018767Y015563D02*
X018757Y015535D01*
X016957Y015535D01*
X016607Y015185D01*
X017207Y015235D02*
X016157Y014185D01*
X017207Y015235D02*
X018757Y015235D01*
X022107Y015535D02*
X022147Y015563D01*
X022147Y014933D02*
X022157Y014885D01*
X023157Y013885D01*
X022507Y016535D02*
X022157Y016535D01*
X022147Y016508D01*
X022147Y016823D02*
X022157Y016835D01*
X022457Y016835D01*
X022907Y017285D01*
X023357Y017385D02*
X023357Y021685D01*
X024407Y020895D02*
X024407Y020885D01*
X024907Y020885D01*
X025807Y019985D01*
X025957Y019985D01*
X026307Y019635D01*
X026307Y019346D01*
X026757Y019285D02*
X026807Y019335D01*
X026807Y019346D01*
X026757Y019285D02*
X026757Y018585D01*
X027807Y019346D02*
X027807Y020035D01*
X026457Y021385D01*
X026216Y021385D01*
X027397Y021385D02*
X027407Y021385D01*
X027407Y020785D01*
X028307Y019885D01*
X028307Y019346D01*
X028007Y021235D02*
X028807Y022035D01*
X028807Y022076D01*
X032317Y018385D02*
X033907Y018385D01*
X034007Y018285D01*
X034057Y018274D01*
X034057Y018285D01*
X034807Y018285D01*
X034857Y018335D01*
X034857Y018374D01*
X032057Y013135D02*
X031357Y013135D01*
X031357Y013095D01*
X032357Y011245D02*
X032357Y011235D01*
X033607Y011235D01*
X033807Y011035D01*
X033857Y010996D01*
X033857Y011035D01*
X034857Y011035D01*
X034857Y010996D01*
X034507Y008935D02*
X033707Y008935D01*
X033507Y008735D01*
X033507Y007135D01*
X034107Y007135D01*
X034107Y007096D01*
X033507Y007135D02*
X032707Y007135D01*
X032657Y007185D01*
X032657Y007226D01*
X033807Y005785D02*
X034357Y005785D01*
X034357Y005776D01*
X034957Y008485D02*
X034507Y008935D01*
X034957Y008485D02*
X035057Y008485D01*
X035057Y008474D01*
X031167Y005685D02*
X031157Y005685D01*
X029807Y007035D01*
X029807Y003685D02*
X029797Y003685D01*
X029807Y003685D02*
X029807Y002185D01*
X029797Y002185D01*
X014957Y015735D02*
X014357Y015135D01*
X014357Y015095D01*
X012207Y012235D02*
X012206Y012235D01*
X012207Y012235D02*
X012207Y010435D01*
X012407Y010235D01*
X022507Y016535D02*
X023357Y017385D01*
X022307Y020735D02*
X022307Y022084D01*
X032007Y028735D02*
X032007Y030835D01*
X032012Y030835D01*
D44*
X021857Y004985D02*
X021857Y003996D01*
D45*
X021857Y009485D02*
X021857Y010374D01*
X028807Y015724D02*
X028807Y016635D01*
D46*
X029357Y018385D02*
X028807Y018935D01*
X028807Y019346D01*
X029357Y018385D02*
X030807Y018385D01*
X030807Y018285D01*
X031407Y017685D01*
X031197Y018385D02*
X030807Y018385D01*
X033857Y012385D02*
X033857Y012374D01*
X033757Y012285D01*
X033207Y011735D01*
X033857Y012385D02*
X034857Y012385D01*
X034857Y012374D01*
X034957Y012485D01*
X037607Y012485D01*
X037607Y010485D02*
X037257Y010135D01*
X032357Y010135D01*
X032357Y010126D01*
X032257Y010235D01*
X031807Y010685D01*
X033557Y009285D02*
X036807Y009285D01*
X037607Y008485D01*
X037607Y006485D02*
X035657Y006485D01*
X035157Y006985D01*
X035057Y007096D01*
X035057Y007135D01*
X034157Y008035D01*
X033907Y007785D01*
X034157Y008035D02*
X034107Y008085D01*
X034107Y008474D01*
X033557Y009285D02*
X032657Y008385D01*
X032657Y008345D01*
X029157Y004135D02*
X029057Y004035D01*
X025357Y004035D01*
X025357Y003996D01*
X023857Y003996D02*
X023857Y001785D01*
X023959Y001685D01*
X024007Y001685D01*
X024057Y001735D01*
X025316Y001735D01*
X020357Y003335D02*
X020257Y003235D01*
X020357Y003335D02*
X020357Y003996D01*
X020357Y010374D02*
X020357Y011135D01*
X023857Y010785D02*
X023857Y010374D01*
X023857Y010785D02*
X025357Y012285D01*
X025459Y012185D01*
X025507Y012185D01*
X025607Y012285D01*
X026366Y012285D01*
X027007Y010385D02*
X025357Y010385D01*
X025357Y010374D01*
M02*
