G75*
G70*
%OFA0B0*%
%FSLAX24Y24*%
%IPPOS*%
%LPD*%
%AMOC8*
5,1,8,0,0,1.08239X$1,22.5*
%
%ADD10OC8,0.0600*%
%ADD11C,0.0640*%
%ADD12C,0.0560*%
%ADD13C,0.0825*%
%ADD14C,0.0590*%
%ADD15OC8,0.0560*%
%ADD16C,0.0500*%
%ADD17C,0.0400*%
%ADD18C,0.0436*%
%ADD19C,0.0160*%
%ADD20C,0.0120*%
%ADD21C,0.0300*%
%ADD22C,0.0400*%
D10*
X007107Y002185D03*
X007107Y003185D03*
X008107Y003185D03*
X008107Y002185D03*
X009107Y002185D03*
X009107Y003185D03*
X010107Y003185D03*
X010107Y002185D03*
X011107Y002185D03*
X011107Y003185D03*
X009257Y010335D03*
X008257Y010335D03*
X008257Y011335D03*
X008257Y012335D03*
X009257Y012335D03*
X009257Y011335D03*
D11*
X003947Y008135D02*
X003947Y007495D01*
X002167Y007495D02*
X002167Y008135D01*
X002167Y005575D02*
X002167Y004935D01*
X003947Y004935D02*
X003947Y005575D01*
X002577Y012535D02*
X001937Y012535D01*
X001937Y013535D02*
X002577Y013535D01*
X002577Y014535D02*
X001937Y014535D01*
X001937Y015535D02*
X002577Y015535D01*
X002577Y016535D02*
X001937Y016535D01*
X001937Y017535D02*
X002577Y017535D01*
X010007Y017865D02*
X010007Y018505D01*
X011007Y018505D02*
X011007Y017865D01*
X012007Y017865D02*
X012007Y018505D01*
X013007Y018505D02*
X013007Y017865D01*
X019187Y021185D02*
X019827Y021185D01*
X020737Y021185D02*
X021377Y021185D01*
X021377Y022185D02*
X020737Y022185D01*
X019827Y022185D02*
X019187Y022185D01*
X019187Y023185D02*
X019827Y023185D01*
X020737Y023185D02*
X021377Y023185D01*
X022607Y031865D02*
X022607Y032505D01*
X023607Y032505D02*
X023607Y031865D01*
D12*
X012407Y010235D03*
X012407Y008335D03*
D13*
X004519Y022585D02*
X003694Y022585D01*
X003694Y024585D02*
X004519Y024585D01*
X007807Y030673D02*
X007807Y031498D01*
X009807Y031498D02*
X009807Y030673D01*
X011807Y030673D02*
X011807Y031498D01*
X013807Y031498D02*
X013807Y030673D01*
X015807Y030673D02*
X015807Y031498D01*
X017807Y031498D02*
X017807Y030673D01*
X036944Y027185D02*
X037769Y027185D01*
X037769Y025185D02*
X036944Y025185D01*
X036944Y018685D02*
X037769Y018685D01*
X037769Y016685D02*
X036944Y016685D01*
X037194Y012485D02*
X038019Y012485D01*
X038019Y010485D02*
X037194Y010485D01*
X037194Y008485D02*
X038019Y008485D01*
X038019Y006485D02*
X037194Y006485D01*
D14*
X024407Y028885D03*
X023407Y028885D03*
X022407Y028885D03*
X021407Y028885D03*
X021907Y029885D03*
X022907Y029885D03*
X023907Y029885D03*
X024907Y029885D03*
D15*
X017257Y022235D03*
X016257Y021235D03*
X015257Y022235D03*
X013857Y022185D03*
X012857Y021185D03*
X011857Y022185D03*
X028857Y008685D03*
X029857Y007685D03*
X029857Y009685D03*
D16*
X022357Y004685D02*
X020357Y006685D01*
X020457Y004985D02*
X015657Y004985D01*
X015357Y005285D01*
X015357Y008135D01*
X011107Y002185D02*
X010457Y001535D01*
X006807Y001535D01*
X003957Y004385D01*
X003957Y005235D01*
X003947Y005255D01*
X003947Y007815D02*
X003957Y007835D01*
X004407Y008285D01*
X004407Y009085D01*
X001257Y012235D01*
X001257Y015835D01*
X001957Y016535D01*
X002257Y016535D01*
X013857Y022185D02*
X014407Y022185D01*
X015007Y021585D01*
X015707Y021585D01*
X016357Y022235D01*
X017257Y022235D01*
X016757Y024835D02*
X015457Y026135D01*
X015257Y026285D01*
X015257Y027835D01*
X015057Y027835D01*
X011807Y031085D01*
X015257Y030535D02*
X015257Y027835D01*
X017957Y026885D02*
X019957Y028885D01*
X021407Y028885D01*
X023407Y028885D02*
X019507Y024985D01*
X018907Y024985D01*
X018707Y024835D01*
X018357Y024835D01*
X018357Y018385D01*
X017857Y017885D01*
X017857Y014485D01*
X018357Y024835D02*
X016757Y024835D01*
X015257Y030535D02*
X015807Y031085D01*
X031357Y020085D02*
X032257Y020085D01*
X037357Y025185D01*
D17*
X032007Y028735D03*
X026407Y025485D03*
X024607Y026935D03*
X023707Y027335D03*
X022007Y024785D03*
X022407Y023835D03*
X023357Y021685D03*
X022307Y020735D03*
X020557Y018985D03*
X022007Y017585D03*
X022507Y017535D03*
X020407Y017135D03*
X019807Y016485D03*
X019407Y017135D03*
X018607Y017835D03*
X017807Y018635D03*
X017007Y020035D03*
X017157Y020535D03*
X017207Y022985D03*
X018707Y024835D03*
X017957Y026885D03*
X015257Y026285D03*
X015007Y025235D03*
X013807Y023035D03*
X010157Y023035D03*
X009157Y024435D03*
X007107Y026785D03*
X006557Y022435D03*
X006507Y021935D03*
X008357Y021485D03*
X009807Y021085D03*
X009407Y019935D03*
X006007Y016185D03*
X008807Y015185D03*
X009157Y014185D03*
X008007Y013585D03*
X011357Y013785D03*
X014957Y015735D03*
X015057Y016235D03*
X015307Y016735D03*
X016607Y015185D03*
X016157Y014185D03*
X017157Y013385D03*
X018407Y013385D03*
X019407Y013785D03*
X017857Y014485D03*
X021257Y013785D03*
X021257Y013235D03*
X023157Y013885D03*
X024107Y014285D03*
X025357Y015235D03*
X025007Y016285D03*
X026757Y018585D03*
X028007Y021235D03*
X031357Y020085D03*
X031407Y017685D03*
X027857Y014985D03*
X029357Y013485D03*
X029357Y012035D03*
X030007Y011585D03*
X029257Y010285D03*
X028107Y010285D03*
X028107Y009685D03*
X027007Y009185D03*
X027007Y008385D03*
X025307Y008135D03*
X025257Y008985D03*
X027007Y010385D03*
X026157Y011585D03*
X028557Y007135D03*
X029807Y007035D03*
X026857Y006085D03*
X029157Y004135D03*
X030507Y004335D03*
X032957Y002935D03*
X033557Y002535D03*
X035207Y003485D03*
X033407Y005185D03*
X033907Y007785D03*
X031807Y010685D03*
X033207Y011735D03*
X024407Y004735D03*
X020457Y004985D03*
X018957Y005935D03*
X018557Y008185D03*
X018607Y008785D03*
X020807Y009135D03*
X020357Y011135D03*
X021557Y014935D03*
X015357Y008135D03*
X013607Y009835D03*
X012407Y006835D03*
X009957Y008085D03*
X015357Y003735D03*
X015907Y005535D03*
X020257Y003235D03*
X020107Y002735D03*
X020107Y000935D03*
X003857Y008835D03*
X002657Y008835D03*
X013457Y027935D03*
D18*
X030357Y016685D03*
X034857Y015185D03*
X022357Y004685D03*
X020357Y006685D03*
D19*
X000357Y000185D02*
X000357Y033685D01*
X039857Y033685D01*
X039857Y000185D01*
X000357Y000185D01*
X000357Y000210D02*
X039857Y000210D01*
X039857Y000368D02*
X000357Y000368D01*
X000357Y000527D02*
X039857Y000527D01*
X039857Y000685D02*
X020394Y000685D01*
X020429Y000720D02*
X020322Y000613D01*
X020182Y000555D01*
X020031Y000555D01*
X019891Y000613D01*
X019785Y000720D01*
X019727Y000860D01*
X019727Y001011D01*
X019785Y001151D01*
X019867Y001233D01*
X019867Y002438D01*
X019785Y002520D01*
X019727Y002660D01*
X019727Y002811D01*
X019785Y002951D01*
X019891Y003057D01*
X019915Y003067D01*
X019877Y003160D01*
X019877Y003311D01*
X019935Y003451D01*
X019979Y003495D01*
X015654Y003495D01*
X015572Y003413D01*
X015432Y003355D01*
X015281Y003355D01*
X015141Y003413D01*
X015035Y003520D01*
X014977Y003660D01*
X014977Y003811D01*
X015035Y003951D01*
X015141Y004057D01*
X015281Y004115D01*
X015432Y004115D01*
X015572Y004057D01*
X015654Y003975D01*
X023857Y003975D01*
X024265Y004383D01*
X024191Y004413D01*
X024085Y004520D01*
X024027Y004660D01*
X024027Y004748D01*
X023849Y004925D01*
X022908Y004925D01*
X022805Y004925D01*
X022709Y004965D01*
X020136Y007538D01*
X020097Y007634D01*
X020097Y007737D01*
X020097Y007925D01*
X019408Y007925D01*
X019305Y007925D01*
X019209Y007965D01*
X019197Y007978D01*
X019197Y006233D01*
X019279Y006151D01*
X019337Y006011D01*
X019337Y005860D01*
X019279Y005720D01*
X019172Y005613D01*
X019032Y005555D01*
X018881Y005555D01*
X018741Y005613D01*
X018635Y005720D01*
X018577Y005860D01*
X018577Y006011D01*
X018635Y006151D01*
X018717Y006233D01*
X018717Y007840D01*
X018632Y007805D01*
X018516Y007805D01*
X016287Y005576D01*
X016287Y005460D01*
X016268Y005415D01*
X020542Y005415D01*
X020700Y005350D01*
X020821Y005229D01*
X020887Y005071D01*
X020887Y004900D01*
X020821Y004742D01*
X020700Y004621D01*
X020542Y004555D01*
X015742Y004555D01*
X015571Y004555D01*
X015413Y004621D01*
X015113Y004921D01*
X014992Y005042D01*
X014927Y005200D01*
X014927Y008221D01*
X014992Y008379D01*
X015113Y008500D01*
X015271Y008565D01*
X015442Y008565D01*
X015600Y008500D01*
X015721Y008379D01*
X015787Y008221D01*
X015787Y005897D01*
X015831Y005915D01*
X015947Y005915D01*
X018177Y008145D01*
X018177Y008261D01*
X018235Y008401D01*
X018341Y008507D01*
X018345Y008509D01*
X018285Y008570D01*
X018227Y008710D01*
X018227Y008861D01*
X018285Y009001D01*
X018391Y009107D01*
X018531Y009165D01*
X018682Y009165D01*
X018822Y009107D01*
X018929Y009001D01*
X018987Y008861D01*
X018987Y008710D01*
X018968Y008664D01*
X019093Y008539D01*
X019097Y008535D01*
X019097Y010634D01*
X019097Y010737D01*
X019136Y010833D01*
X019809Y011506D01*
X019858Y011526D01*
X021187Y012855D01*
X021181Y012855D01*
X021041Y012913D01*
X021029Y012925D01*
X020964Y012925D01*
X019004Y010965D01*
X018908Y010925D01*
X018805Y010925D01*
X015464Y010925D01*
X012867Y008328D01*
X012867Y008244D01*
X012797Y008075D01*
X012667Y007945D01*
X012647Y007937D01*
X012647Y007133D01*
X012729Y007051D01*
X012787Y006911D01*
X012787Y006760D01*
X012729Y006620D01*
X012622Y006513D01*
X012482Y006455D01*
X012331Y006455D01*
X012191Y006513D01*
X012085Y006620D01*
X012027Y006760D01*
X012027Y006911D01*
X012085Y007051D01*
X012167Y007133D01*
X012167Y007937D01*
X012146Y007945D01*
X012017Y008075D01*
X011964Y008203D01*
X011847Y008086D01*
X011847Y003033D01*
X011847Y002938D01*
X011810Y002849D01*
X011510Y002549D01*
X011466Y002505D01*
X011587Y002384D01*
X011587Y002195D01*
X011117Y002195D01*
X011117Y002175D01*
X011587Y002175D01*
X011587Y001987D01*
X011305Y001705D01*
X011117Y001705D01*
X011117Y002175D01*
X011097Y002175D01*
X011097Y001705D01*
X010908Y001705D01*
X010627Y001987D01*
X010627Y002175D01*
X011096Y002175D01*
X011096Y002195D01*
X010627Y002195D01*
X010627Y002366D01*
X010587Y002326D01*
X010587Y001987D01*
X010305Y001705D01*
X009908Y001705D01*
X009627Y001987D01*
X009627Y002384D01*
X009908Y002665D01*
X010247Y002665D01*
X010287Y002705D01*
X009908Y002705D01*
X009627Y002987D01*
X009627Y003384D01*
X009717Y003474D01*
X009717Y007788D01*
X009635Y007870D01*
X009577Y008010D01*
X009577Y008161D01*
X009635Y008301D01*
X009741Y008407D01*
X009815Y008438D01*
X008397Y009855D01*
X008058Y009855D01*
X007777Y010137D01*
X007777Y010426D01*
X002976Y015227D01*
X002860Y015111D01*
X002676Y015035D01*
X002860Y014959D01*
X003001Y014819D01*
X003077Y014635D01*
X003077Y014436D01*
X003001Y014252D01*
X002860Y014111D01*
X002676Y014035D01*
X002860Y013959D01*
X003001Y013819D01*
X003077Y013635D01*
X003077Y013436D01*
X003001Y013252D01*
X002860Y013111D01*
X002676Y013035D01*
X002860Y012959D01*
X003001Y012819D01*
X003077Y012635D01*
X003077Y012436D01*
X003001Y012252D01*
X002860Y012111D01*
X002676Y012035D01*
X001837Y012035D01*
X001653Y012111D01*
X001513Y012252D01*
X001437Y012436D01*
X001437Y012635D01*
X001513Y012819D01*
X001653Y012959D01*
X001837Y013035D01*
X002676Y013035D01*
X001837Y013035D01*
X001653Y013111D01*
X001513Y013252D01*
X001437Y013436D01*
X001437Y013635D01*
X001513Y013819D01*
X001653Y013959D01*
X001837Y014035D01*
X002676Y014035D01*
X001837Y014035D01*
X001653Y014111D01*
X001513Y014252D01*
X001437Y014436D01*
X001437Y014635D01*
X001513Y014819D01*
X001653Y014959D01*
X001837Y015035D01*
X002676Y015035D01*
X001837Y015035D01*
X001653Y015111D01*
X001513Y015252D01*
X001437Y015436D01*
X001437Y015635D01*
X001513Y015819D01*
X001653Y015959D01*
X001837Y016035D01*
X002676Y016035D01*
X002860Y015959D01*
X003001Y015819D01*
X003018Y015775D01*
X003054Y015775D01*
X003143Y015739D01*
X007117Y011765D01*
X007117Y021256D01*
X006247Y020386D01*
X006247Y016483D01*
X006329Y016401D01*
X006387Y016261D01*
X006387Y016110D01*
X006329Y015970D01*
X006222Y015863D01*
X006082Y015805D01*
X005931Y015805D01*
X005791Y015863D01*
X005685Y015970D01*
X005627Y016110D01*
X005627Y016261D01*
X005685Y016401D01*
X005767Y016483D01*
X005767Y020533D01*
X005803Y020621D01*
X005871Y020689D01*
X009241Y024059D01*
X009232Y024055D01*
X009116Y024055D01*
X006863Y021802D01*
X006829Y021720D01*
X006722Y021613D01*
X006582Y021555D01*
X006431Y021555D01*
X006291Y021613D01*
X006185Y021720D01*
X006127Y021860D01*
X006127Y022011D01*
X006185Y022151D01*
X006244Y022210D01*
X006235Y022220D01*
X006177Y022360D01*
X006177Y022476D01*
X004653Y024000D01*
X004637Y023993D01*
X003576Y023993D01*
X003359Y024083D01*
X003192Y024250D01*
X003102Y024467D01*
X000357Y024467D01*
X000357Y024625D02*
X003102Y024625D01*
X003102Y024703D02*
X003102Y024467D01*
X003168Y024308D02*
X000357Y024308D01*
X000357Y024150D02*
X003292Y024150D01*
X003102Y024703D02*
X003192Y024921D01*
X003359Y025088D01*
X003576Y025178D01*
X004637Y025178D01*
X004855Y025088D01*
X005021Y024921D01*
X005112Y024703D01*
X005112Y024467D01*
X005039Y024292D01*
X006516Y022815D01*
X006632Y022815D01*
X006772Y022757D01*
X006879Y022651D01*
X006924Y022542D01*
X008777Y024395D01*
X008777Y024511D01*
X008835Y024651D01*
X008941Y024757D01*
X009081Y024815D01*
X009232Y024815D01*
X009372Y024757D01*
X009479Y024651D01*
X009537Y024511D01*
X009537Y024360D01*
X009533Y024351D01*
X013077Y027895D01*
X013077Y028011D01*
X013135Y028151D01*
X013241Y028257D01*
X013381Y028315D01*
X013532Y028315D01*
X013672Y028257D01*
X013779Y028151D01*
X013837Y028011D01*
X013837Y027860D01*
X013779Y027720D01*
X013672Y027613D01*
X013532Y027555D01*
X013416Y027555D01*
X011336Y025475D01*
X014709Y025475D01*
X014791Y025557D01*
X014931Y025615D01*
X015082Y025615D01*
X015222Y025557D01*
X015329Y025451D01*
X015387Y025311D01*
X015387Y025160D01*
X015329Y025020D01*
X015222Y024913D01*
X015082Y024855D01*
X014931Y024855D01*
X014791Y024913D01*
X014709Y024995D01*
X011206Y024995D01*
X007597Y021386D01*
X007597Y019215D01*
X009427Y021045D01*
X009427Y021161D01*
X009462Y021245D01*
X008654Y021245D01*
X008572Y021163D01*
X008432Y021105D01*
X008281Y021105D01*
X008141Y021163D01*
X008035Y021270D01*
X007977Y021410D01*
X007977Y021561D01*
X008035Y021701D01*
X008141Y021807D01*
X008281Y021865D01*
X008432Y021865D01*
X008572Y021807D01*
X008654Y021725D01*
X011617Y021725D01*
X011617Y021775D01*
X011397Y021995D01*
X011397Y022376D01*
X011666Y022645D01*
X012047Y022645D01*
X012267Y022425D01*
X013107Y022425D01*
X013453Y022771D01*
X013453Y022771D01*
X013477Y022795D01*
X010454Y022795D01*
X010372Y022713D01*
X010232Y022655D01*
X010081Y022655D01*
X009941Y022713D01*
X009835Y022820D01*
X009777Y022960D01*
X009777Y023111D01*
X009835Y023251D01*
X009941Y023357D01*
X009568Y023357D01*
X009726Y023516D02*
X017927Y023516D01*
X017927Y023674D02*
X009885Y023674D01*
X010043Y023833D02*
X017927Y023833D01*
X017927Y023991D02*
X010202Y023991D01*
X010361Y024150D02*
X017927Y024150D01*
X017927Y024308D02*
X010519Y024308D01*
X010678Y024467D02*
X016523Y024467D01*
X016513Y024471D02*
X016671Y024405D01*
X016842Y024405D01*
X017927Y024405D01*
X017927Y022605D01*
X017587Y022945D01*
X017587Y023061D01*
X017529Y023201D01*
X017422Y023307D01*
X017282Y023365D01*
X017131Y023365D01*
X016991Y023307D01*
X016885Y023201D01*
X016827Y023061D01*
X016827Y022910D01*
X016885Y022770D01*
X016991Y022663D01*
X017022Y022651D01*
X016797Y022426D01*
X016797Y022236D01*
X017256Y022236D01*
X017256Y022235D01*
X016797Y022235D01*
X016797Y022045D01*
X017066Y021775D01*
X017256Y021775D01*
X017256Y022235D01*
X017257Y022235D01*
X017257Y021775D01*
X017447Y021775D01*
X017567Y021895D01*
X017567Y020415D01*
X017532Y020449D01*
X017537Y020460D01*
X017537Y020611D01*
X017479Y020751D01*
X017372Y020857D01*
X017232Y020915D01*
X017081Y020915D01*
X016964Y020867D01*
X016717Y021115D01*
X016717Y021426D01*
X016447Y021695D01*
X016066Y021695D01*
X015797Y021426D01*
X015797Y021045D01*
X016066Y020775D01*
X016377Y020775D01*
X016794Y020359D01*
X016791Y020357D01*
X016709Y020275D01*
X014106Y020275D01*
X013317Y021065D01*
X013317Y021376D01*
X013047Y021645D01*
X012666Y021645D01*
X012397Y021376D01*
X012397Y020995D01*
X012666Y020725D01*
X012977Y020725D01*
X013871Y019832D01*
X013959Y019795D01*
X014054Y019795D01*
X016709Y019795D01*
X016791Y019713D01*
X016931Y019655D01*
X017082Y019655D01*
X017167Y019690D01*
X017167Y018135D01*
X015683Y016651D01*
X015687Y016660D01*
X015687Y016811D01*
X015629Y016951D01*
X015522Y017057D01*
X015382Y017115D01*
X015231Y017115D01*
X015091Y017057D01*
X015009Y016975D01*
X012556Y016975D01*
X012148Y017383D01*
X012290Y017441D01*
X012431Y017582D01*
X012507Y017766D01*
X012583Y017582D01*
X012723Y017441D01*
X012907Y017365D01*
X013106Y017365D01*
X013290Y017441D01*
X013431Y017582D01*
X013507Y017766D01*
X013507Y018605D01*
X013431Y018789D01*
X013290Y018929D01*
X013106Y019005D01*
X012907Y019005D01*
X012723Y018929D01*
X012663Y018869D01*
X012097Y019435D01*
X012097Y021438D01*
X012097Y021775D01*
X012267Y021945D01*
X013254Y021945D01*
X013343Y021982D01*
X013397Y022036D01*
X013397Y021995D01*
X013666Y021725D01*
X013856Y021725D01*
X013856Y022185D01*
X013857Y022185D01*
X013857Y022186D01*
X014317Y022186D01*
X014317Y022376D01*
X014297Y022395D01*
X014757Y022395D01*
X014797Y022356D01*
X014797Y022045D01*
X015066Y021775D01*
X015447Y021775D01*
X015717Y022045D01*
X015717Y022426D01*
X015447Y022695D01*
X015136Y022695D01*
X014993Y022839D01*
X014904Y022875D01*
X014809Y022875D01*
X014152Y022875D01*
X014187Y022960D01*
X014187Y023111D01*
X014129Y023251D01*
X014022Y023357D01*
X017111Y023357D01*
X017302Y023357D02*
X017927Y023357D01*
X017927Y023199D02*
X017530Y023199D01*
X017587Y023040D02*
X017927Y023040D01*
X017927Y022881D02*
X017650Y022881D01*
X017809Y022723D02*
X017927Y022723D01*
X018787Y022723D02*
X018997Y022723D01*
X019087Y022685D02*
X018903Y022609D01*
X018787Y022492D01*
X018787Y022878D01*
X018903Y022761D01*
X019087Y022685D01*
X019926Y022685D01*
X020110Y022609D01*
X020251Y022469D01*
X020268Y022425D01*
X020295Y022425D01*
X020313Y022469D01*
X020453Y022609D01*
X020637Y022685D01*
X021217Y022685D01*
X021217Y022685D01*
X021077Y022685D01*
X021077Y023165D01*
X021037Y023165D01*
X021037Y022685D01*
X020637Y022685D01*
X020453Y022761D01*
X020313Y022902D01*
X020282Y022977D01*
X020251Y022902D01*
X020110Y022761D01*
X019926Y022685D01*
X019527Y022685D01*
X019527Y023165D01*
X019527Y023205D01*
X020327Y023205D01*
X021036Y023205D01*
X021036Y023165D01*
X020327Y023165D01*
X019527Y023165D01*
X019487Y023165D01*
X019487Y022685D01*
X019087Y022685D01*
X018859Y022564D02*
X018787Y022564D01*
X019487Y022723D02*
X019527Y022723D01*
X019527Y022881D02*
X019487Y022881D01*
X019487Y023040D02*
X019527Y023040D01*
X019527Y023199D02*
X021036Y023199D01*
X021037Y023206D02*
X021037Y023685D01*
X020637Y023685D01*
X020453Y023609D01*
X020313Y023469D01*
X020282Y023393D01*
X020251Y023469D01*
X020110Y023609D01*
X019926Y023685D01*
X019527Y023685D01*
X019527Y023206D01*
X019487Y023206D01*
X019487Y023685D01*
X019087Y023685D01*
X018903Y023609D01*
X018787Y023492D01*
X018787Y024405D01*
X018792Y024405D01*
X018843Y024426D01*
X018896Y024440D01*
X018921Y024459D01*
X018950Y024471D01*
X018989Y024510D01*
X019050Y024555D01*
X019592Y024555D01*
X019750Y024621D01*
X019871Y024742D01*
X023567Y028438D01*
X023676Y028483D01*
X023809Y028616D01*
X023882Y028791D01*
X023882Y028980D01*
X023809Y029154D01*
X023676Y029288D01*
X023501Y029360D01*
X023312Y029360D01*
X023138Y029288D01*
X023004Y029154D01*
X022959Y029046D01*
X022882Y028968D01*
X022882Y028980D01*
X022809Y029154D01*
X022676Y029288D01*
X022501Y029360D01*
X022414Y029360D01*
X022414Y028893D01*
X022399Y028893D01*
X022399Y029360D01*
X022312Y029360D01*
X022138Y029288D01*
X022004Y029154D01*
X021932Y028980D01*
X021932Y028893D01*
X022399Y028893D01*
X022399Y028878D01*
X021932Y028878D01*
X021932Y028791D01*
X022004Y028616D01*
X022138Y028483D01*
X022312Y028410D01*
X022324Y028410D01*
X019329Y025415D01*
X018937Y025415D01*
X018883Y025423D01*
X018853Y025415D01*
X018821Y025415D01*
X018770Y025394D01*
X018717Y025381D01*
X018692Y025362D01*
X018663Y025350D01*
X018624Y025311D01*
X018563Y025265D01*
X018442Y025265D01*
X018271Y025265D01*
X016935Y025265D01*
X015799Y026401D01*
X015783Y026428D01*
X015739Y026461D01*
X015700Y026500D01*
X015687Y026505D01*
X015687Y027750D01*
X015687Y027921D01*
X015687Y030081D01*
X015689Y030080D01*
X015925Y030080D01*
X016142Y030171D01*
X016309Y030337D01*
X016399Y030555D01*
X016399Y031616D01*
X016309Y031834D01*
X016297Y031845D01*
X017316Y031845D01*
X017304Y031834D01*
X017214Y031616D01*
X017214Y030555D01*
X017304Y030337D01*
X017471Y030171D01*
X017689Y030080D01*
X017925Y030080D01*
X018142Y030171D01*
X018309Y030337D01*
X018399Y030555D01*
X018399Y031403D01*
X018621Y031182D01*
X018709Y031145D01*
X018804Y031145D01*
X023957Y031145D01*
X024763Y030340D01*
X024638Y030288D01*
X024504Y030154D01*
X024432Y029980D01*
X024432Y029791D01*
X024504Y029616D01*
X024638Y029483D01*
X024667Y029471D01*
X024667Y029292D01*
X024501Y029360D01*
X024312Y029360D01*
X024138Y029288D01*
X024004Y029154D01*
X023932Y028980D01*
X023932Y028791D01*
X024004Y028616D01*
X024138Y028483D01*
X024312Y028410D01*
X024367Y028410D01*
X024367Y028388D01*
X024367Y027233D01*
X024285Y027151D01*
X024227Y027011D01*
X024227Y026905D01*
X024020Y027111D01*
X024029Y027120D01*
X024087Y027260D01*
X024087Y027411D01*
X024029Y027551D01*
X023922Y027657D01*
X023782Y027715D01*
X023631Y027715D01*
X023491Y027657D01*
X023385Y027551D01*
X023327Y027411D01*
X023327Y027260D01*
X023385Y027120D01*
X023418Y027086D01*
X021471Y025139D01*
X021403Y025071D01*
X021367Y024983D01*
X021367Y023685D01*
X021077Y023685D01*
X021077Y023206D01*
X021037Y023206D01*
X021037Y023357D02*
X021077Y023357D01*
X021077Y023516D02*
X021037Y023516D01*
X021037Y023674D02*
X021077Y023674D01*
X021367Y023833D02*
X018787Y023833D01*
X018787Y023991D02*
X021367Y023991D01*
X021367Y024150D02*
X018787Y024150D01*
X018787Y024308D02*
X021367Y024308D01*
X021367Y024467D02*
X018941Y024467D01*
X019060Y023674D02*
X018787Y023674D01*
X018787Y023516D02*
X018810Y023516D01*
X019487Y023516D02*
X019527Y023516D01*
X019527Y023674D02*
X019487Y023674D01*
X019487Y023357D02*
X019527Y023357D01*
X019953Y023674D02*
X020610Y023674D01*
X020360Y023516D02*
X020204Y023516D01*
X020230Y022881D02*
X020334Y022881D01*
X020547Y022723D02*
X020017Y022723D01*
X020155Y022564D02*
X020409Y022564D01*
X021037Y022723D02*
X021077Y022723D01*
X021077Y022881D02*
X021037Y022881D01*
X021037Y023040D02*
X021077Y023040D01*
X021367Y024625D02*
X019755Y024625D01*
X019913Y024784D02*
X021367Y024784D01*
X021367Y024942D02*
X020072Y024942D01*
X020230Y025101D02*
X021433Y025101D01*
X021592Y025260D02*
X020389Y025260D01*
X020548Y025418D02*
X021750Y025418D01*
X021909Y025577D02*
X020706Y025577D01*
X020865Y025735D02*
X022067Y025735D01*
X022226Y025894D02*
X021023Y025894D01*
X021182Y026052D02*
X022384Y026052D01*
X022543Y026211D02*
X021340Y026211D01*
X021499Y026369D02*
X022701Y026369D01*
X022860Y026528D02*
X021657Y026528D01*
X021816Y026686D02*
X023018Y026686D01*
X023177Y026845D02*
X021974Y026845D01*
X022133Y027004D02*
X023336Y027004D01*
X023367Y027162D02*
X022291Y027162D01*
X022450Y027321D02*
X023327Y027321D01*
X023355Y027479D02*
X022609Y027479D01*
X022767Y027638D02*
X023472Y027638D01*
X023942Y027638D02*
X024367Y027638D01*
X024367Y027796D02*
X022926Y027796D01*
X023084Y027955D02*
X024367Y027955D01*
X024367Y028113D02*
X023243Y028113D01*
X023401Y028272D02*
X024367Y028272D01*
X024264Y028430D02*
X023560Y028430D01*
X023782Y028589D02*
X024031Y028589D01*
X023950Y028748D02*
X023864Y028748D01*
X023882Y028906D02*
X023932Y028906D01*
X023967Y029065D02*
X023847Y029065D01*
X023741Y029223D02*
X024073Y029223D01*
X024001Y029410D02*
X024176Y029483D01*
X024309Y029616D01*
X024382Y029791D01*
X024382Y029980D01*
X024309Y030154D01*
X024176Y030288D01*
X024001Y030360D01*
X023812Y030360D01*
X023638Y030288D01*
X023504Y030154D01*
X023432Y029980D01*
X023432Y029791D01*
X023504Y029616D01*
X023638Y029483D01*
X023812Y029410D01*
X024001Y029410D01*
X024233Y029540D02*
X024580Y029540D01*
X024667Y029382D02*
X015687Y029382D01*
X015687Y029540D02*
X021580Y029540D01*
X021638Y029483D02*
X021504Y029616D01*
X021432Y029791D01*
X021432Y029878D01*
X021899Y029878D01*
X021899Y029893D01*
X021899Y030360D01*
X021812Y030360D01*
X021638Y030288D01*
X021504Y030154D01*
X021432Y029980D01*
X021432Y029893D01*
X021899Y029893D01*
X021914Y029893D01*
X021914Y030360D01*
X022001Y030360D01*
X022176Y030288D01*
X022309Y030154D01*
X022382Y029980D01*
X022382Y029893D01*
X021914Y029893D01*
X021914Y029878D01*
X021914Y029410D01*
X022001Y029410D01*
X022176Y029483D01*
X022309Y029616D01*
X022382Y029791D01*
X022382Y029878D01*
X021914Y029878D01*
X021899Y029878D01*
X021899Y029410D01*
X021812Y029410D01*
X021638Y029483D01*
X021501Y029360D02*
X021414Y029360D01*
X021414Y028893D01*
X021399Y028893D01*
X021399Y029360D01*
X021312Y029360D01*
X021138Y029288D01*
X021004Y029154D01*
X020932Y028980D01*
X020932Y028893D01*
X021399Y028893D01*
X021399Y028878D01*
X020932Y028878D01*
X020932Y028791D01*
X021004Y028616D01*
X021138Y028483D01*
X021312Y028410D01*
X021399Y028410D01*
X021399Y028878D01*
X021414Y028878D01*
X021414Y028410D01*
X021501Y028410D01*
X021676Y028483D01*
X021809Y028616D01*
X021882Y028791D01*
X021882Y028878D01*
X021414Y028878D01*
X021414Y028893D01*
X021882Y028893D01*
X021882Y028980D01*
X021809Y029154D01*
X021676Y029288D01*
X021501Y029360D01*
X021414Y029223D02*
X021399Y029223D01*
X021399Y029065D02*
X021414Y029065D01*
X021399Y028906D02*
X021414Y028906D01*
X021399Y028748D02*
X021414Y028748D01*
X021399Y028589D02*
X021414Y028589D01*
X021399Y028430D02*
X021414Y028430D01*
X021550Y028430D02*
X022264Y028430D01*
X022185Y028272D02*
X015687Y028272D01*
X015687Y028430D02*
X021264Y028430D01*
X021031Y028589D02*
X015687Y028589D01*
X015687Y028748D02*
X020950Y028748D01*
X020932Y028906D02*
X015687Y028906D01*
X015687Y029065D02*
X020967Y029065D01*
X021073Y029223D02*
X015687Y029223D01*
X015687Y029699D02*
X021470Y029699D01*
X021432Y029857D02*
X015687Y029857D01*
X015687Y030016D02*
X021447Y030016D01*
X021524Y030174D02*
X018146Y030174D01*
X018305Y030333D02*
X021746Y030333D01*
X021899Y030333D02*
X021914Y030333D01*
X022067Y030333D02*
X022746Y030333D01*
X022812Y030360D02*
X022638Y030288D01*
X022504Y030154D01*
X022432Y029980D01*
X022432Y029791D01*
X022504Y029616D01*
X022638Y029483D01*
X022812Y029410D01*
X023001Y029410D01*
X023176Y029483D01*
X023309Y029616D01*
X023382Y029791D01*
X023382Y029980D01*
X023309Y030154D01*
X023176Y030288D01*
X023001Y030360D01*
X022812Y030360D01*
X023067Y030333D02*
X023746Y030333D01*
X023524Y030174D02*
X023289Y030174D01*
X023367Y030016D02*
X023447Y030016D01*
X023432Y029857D02*
X023382Y029857D01*
X023344Y029699D02*
X023470Y029699D01*
X023580Y029540D02*
X023233Y029540D01*
X023073Y029223D02*
X022741Y029223D01*
X022847Y029065D02*
X022967Y029065D01*
X022580Y029540D02*
X022233Y029540D01*
X022344Y029699D02*
X022470Y029699D01*
X022432Y029857D02*
X022382Y029857D01*
X022367Y030016D02*
X022447Y030016D01*
X022524Y030174D02*
X022289Y030174D01*
X021914Y030174D02*
X021899Y030174D01*
X021899Y030016D02*
X021914Y030016D01*
X021899Y029857D02*
X021914Y029857D01*
X021899Y029699D02*
X021914Y029699D01*
X021899Y029540D02*
X021914Y029540D01*
X022073Y029223D02*
X021741Y029223D01*
X021847Y029065D02*
X021967Y029065D01*
X021932Y028906D02*
X021882Y028906D01*
X021864Y028748D02*
X021950Y028748D01*
X022031Y028589D02*
X021782Y028589D01*
X022027Y028113D02*
X015687Y028113D01*
X015687Y027955D02*
X021868Y027955D01*
X021710Y027796D02*
X015687Y027796D01*
X015687Y027638D02*
X021551Y027638D01*
X021392Y027479D02*
X015687Y027479D01*
X015687Y027321D02*
X021234Y027321D01*
X021075Y027162D02*
X015687Y027162D01*
X015687Y027004D02*
X020917Y027004D01*
X020758Y026845D02*
X015687Y026845D01*
X015687Y026686D02*
X020600Y026686D01*
X020441Y026528D02*
X015687Y026528D01*
X015831Y026369D02*
X020283Y026369D01*
X020124Y026211D02*
X015989Y026211D01*
X016148Y026052D02*
X019966Y026052D01*
X019807Y025894D02*
X016306Y025894D01*
X016465Y025735D02*
X019649Y025735D01*
X019490Y025577D02*
X016623Y025577D01*
X016782Y025418D02*
X018863Y025418D01*
X018918Y025418D02*
X019331Y025418D01*
X016884Y023199D02*
X014150Y023199D01*
X014187Y023040D02*
X016827Y023040D01*
X016838Y022881D02*
X014154Y022881D01*
X014317Y022247D02*
X014797Y022247D01*
X014797Y022089D02*
X014317Y022089D01*
X014317Y021995D02*
X014317Y022185D01*
X013857Y022185D01*
X013857Y021725D01*
X014047Y021725D01*
X014317Y021995D01*
X014252Y021930D02*
X014911Y021930D01*
X015602Y021930D02*
X016911Y021930D01*
X016797Y022089D02*
X015717Y022089D01*
X015717Y022247D02*
X016797Y022247D01*
X016797Y022406D02*
X015717Y022406D01*
X015578Y022564D02*
X016935Y022564D01*
X016932Y022723D02*
X015109Y022723D01*
X014022Y023357D02*
X013882Y023415D01*
X013731Y023415D01*
X013591Y023357D01*
X010372Y023357D01*
X010232Y023415D01*
X010081Y023415D01*
X009941Y023357D01*
X009813Y023199D02*
X009409Y023199D01*
X009251Y023040D02*
X009777Y023040D01*
X009809Y022881D02*
X009092Y022881D01*
X008934Y022723D02*
X009932Y022723D01*
X010382Y022723D02*
X013405Y022723D01*
X013246Y022564D02*
X012128Y022564D01*
X011585Y022564D02*
X008775Y022564D01*
X008617Y022406D02*
X011427Y022406D01*
X011397Y022247D02*
X008458Y022247D01*
X008299Y022089D02*
X011397Y022089D01*
X011461Y021930D02*
X008141Y021930D01*
X008106Y021772D02*
X007982Y021772D01*
X007998Y021613D02*
X007824Y021613D01*
X007977Y021455D02*
X007665Y021455D01*
X007597Y021296D02*
X008024Y021296D01*
X008204Y021137D02*
X007597Y021137D01*
X007597Y020979D02*
X009361Y020979D01*
X009427Y021137D02*
X008510Y021137D01*
X008608Y021772D02*
X011617Y021772D01*
X012097Y021772D02*
X013620Y021772D01*
X013461Y021930D02*
X012252Y021930D01*
X012097Y021613D02*
X012634Y021613D01*
X012475Y021455D02*
X012097Y021455D01*
X012097Y021296D02*
X012397Y021296D01*
X012397Y021137D02*
X012097Y021137D01*
X012097Y020979D02*
X012413Y020979D01*
X012571Y020820D02*
X012097Y020820D01*
X012097Y020662D02*
X013041Y020662D01*
X013199Y020503D02*
X012097Y020503D01*
X012097Y020345D02*
X013358Y020345D01*
X013516Y020186D02*
X012097Y020186D01*
X012097Y020028D02*
X013675Y020028D01*
X013834Y019869D02*
X012097Y019869D01*
X012097Y019711D02*
X016798Y019711D01*
X017167Y019552D02*
X012097Y019552D01*
X012138Y019393D02*
X017167Y019393D01*
X017167Y019235D02*
X012296Y019235D01*
X012455Y019076D02*
X017167Y019076D01*
X017167Y018918D02*
X013301Y018918D01*
X013443Y018759D02*
X017167Y018759D01*
X017167Y018601D02*
X013507Y018601D01*
X013507Y018442D02*
X017167Y018442D01*
X017167Y018284D02*
X013507Y018284D01*
X013507Y018125D02*
X017157Y018125D01*
X016999Y017967D02*
X013507Y017967D01*
X013507Y017808D02*
X016840Y017808D01*
X016681Y017649D02*
X013458Y017649D01*
X013339Y017491D02*
X016523Y017491D01*
X016364Y017332D02*
X012199Y017332D01*
X012339Y017491D02*
X012674Y017491D01*
X012555Y017649D02*
X012458Y017649D01*
X012507Y017766D02*
X012507Y018346D01*
X012507Y018346D01*
X012507Y018205D01*
X012027Y018205D01*
X012027Y018165D01*
X012507Y018165D01*
X012507Y017766D01*
X012507Y017808D02*
X012507Y017808D01*
X012507Y017967D02*
X012507Y017967D01*
X012507Y018125D02*
X012507Y018125D01*
X012507Y018284D02*
X012507Y018284D01*
X011986Y018205D02*
X011986Y018165D01*
X011507Y018165D01*
X011507Y018025D01*
X011507Y018605D01*
X011507Y018205D01*
X011986Y018205D01*
X011507Y018284D02*
X011507Y018284D01*
X011507Y018442D02*
X011507Y018442D01*
X011507Y018601D02*
X011507Y018601D01*
X011507Y018605D02*
X011431Y018789D01*
X011290Y018929D01*
X011106Y019005D01*
X010907Y019005D01*
X010723Y018929D01*
X010583Y018789D01*
X010507Y018605D01*
X010507Y018025D01*
X010507Y018605D01*
X010431Y018789D01*
X010290Y018929D01*
X010106Y019005D01*
X009907Y019005D01*
X009723Y018929D01*
X009688Y018894D01*
X009647Y018935D01*
X009647Y019638D01*
X009729Y019720D01*
X009787Y019860D01*
X009787Y020011D01*
X009729Y020151D01*
X009622Y020257D01*
X009482Y020315D01*
X009376Y020315D01*
X009766Y020705D01*
X009882Y020705D01*
X010022Y020763D01*
X010129Y020870D01*
X010187Y021010D01*
X010187Y021161D01*
X010152Y021245D01*
X011617Y021245D01*
X011617Y019383D01*
X011617Y019288D01*
X011653Y019199D01*
X011865Y018988D01*
X011723Y018929D01*
X011583Y018789D01*
X011507Y018605D01*
X011443Y018759D02*
X011571Y018759D01*
X011712Y018918D02*
X011301Y018918D01*
X011639Y019235D02*
X009647Y019235D01*
X009647Y019393D02*
X011617Y019393D01*
X011617Y019552D02*
X009647Y019552D01*
X009719Y019711D02*
X011617Y019711D01*
X011617Y019869D02*
X009787Y019869D01*
X009780Y020028D02*
X011617Y020028D01*
X011617Y020186D02*
X009693Y020186D01*
X009405Y020345D02*
X011617Y020345D01*
X011617Y020503D02*
X009564Y020503D01*
X009723Y020662D02*
X011617Y020662D01*
X011617Y020820D02*
X010079Y020820D01*
X010174Y020979D02*
X011617Y020979D01*
X011617Y021137D02*
X010187Y021137D01*
X009202Y020820D02*
X007597Y020820D01*
X007597Y020662D02*
X009044Y020662D01*
X008885Y020503D02*
X007597Y020503D01*
X007597Y020345D02*
X008727Y020345D01*
X008568Y020186D02*
X007597Y020186D01*
X007597Y020028D02*
X008410Y020028D01*
X008251Y019869D02*
X007597Y019869D01*
X007597Y019711D02*
X008093Y019711D01*
X007934Y019552D02*
X007597Y019552D01*
X007597Y019393D02*
X007775Y019393D01*
X007617Y019235D02*
X007597Y019235D01*
X007117Y019235D02*
X006247Y019235D01*
X006247Y019393D02*
X007117Y019393D01*
X007117Y019552D02*
X006247Y019552D01*
X006247Y019711D02*
X007117Y019711D01*
X007117Y019869D02*
X006247Y019869D01*
X006247Y020028D02*
X007117Y020028D01*
X007117Y020186D02*
X006247Y020186D01*
X006247Y020345D02*
X007117Y020345D01*
X007117Y020503D02*
X006364Y020503D01*
X006523Y020662D02*
X007117Y020662D01*
X007117Y020820D02*
X006681Y020820D01*
X006840Y020979D02*
X007117Y020979D01*
X007117Y021137D02*
X006998Y021137D01*
X006636Y021455D02*
X000357Y021455D01*
X000357Y021613D02*
X006292Y021613D01*
X006163Y021772D02*
X000357Y021772D01*
X000357Y021930D02*
X006127Y021930D01*
X006159Y022089D02*
X004861Y022089D01*
X004855Y022083D02*
X005021Y022250D01*
X005112Y022467D01*
X005112Y022528D01*
X004164Y022528D01*
X004164Y021993D01*
X004637Y021993D01*
X004855Y022083D01*
X005019Y022247D02*
X006223Y022247D01*
X006177Y022406D02*
X005086Y022406D01*
X005112Y022643D02*
X005112Y022703D01*
X005021Y022921D01*
X004855Y023088D01*
X004637Y023178D01*
X004164Y023178D01*
X004164Y022643D01*
X004049Y022643D01*
X004049Y023178D01*
X003576Y023178D01*
X003359Y023088D01*
X003192Y022921D01*
X003102Y022703D01*
X003102Y022643D01*
X004049Y022643D01*
X004049Y022528D01*
X003102Y022528D01*
X003102Y022467D01*
X003192Y022250D01*
X003359Y022083D01*
X003576Y021993D01*
X004049Y021993D01*
X004049Y022528D01*
X004164Y022528D01*
X004164Y022643D01*
X005112Y022643D01*
X005104Y022723D02*
X005930Y022723D01*
X006088Y022564D02*
X004164Y022564D01*
X004049Y022564D02*
X000357Y022564D01*
X000357Y022406D02*
X003127Y022406D01*
X003194Y022247D02*
X000357Y022247D01*
X000357Y022089D02*
X003353Y022089D01*
X003110Y022723D02*
X000357Y022723D01*
X000357Y022881D02*
X003175Y022881D01*
X003311Y023040D02*
X000357Y023040D01*
X000357Y023199D02*
X005454Y023199D01*
X005296Y023357D02*
X000357Y023357D01*
X000357Y023516D02*
X005137Y023516D01*
X004978Y023674D02*
X000357Y023674D01*
X000357Y023833D02*
X004820Y023833D01*
X004661Y023991D02*
X000357Y023991D01*
X000357Y024784D02*
X003135Y024784D01*
X003213Y024942D02*
X000357Y024942D01*
X000357Y025101D02*
X003391Y025101D01*
X004823Y025101D02*
X010283Y025101D01*
X010124Y024942D02*
X005000Y024942D01*
X005078Y024784D02*
X009005Y024784D01*
X008824Y024625D02*
X005112Y024625D01*
X005111Y024467D02*
X008777Y024467D01*
X008690Y024308D02*
X005046Y024308D01*
X005182Y024150D02*
X008532Y024150D01*
X008373Y023991D02*
X005340Y023991D01*
X005499Y023833D02*
X008215Y023833D01*
X008056Y023674D02*
X005657Y023674D01*
X005816Y023516D02*
X007898Y023516D01*
X007739Y023357D02*
X005974Y023357D01*
X006133Y023199D02*
X007580Y023199D01*
X007422Y023040D02*
X006291Y023040D01*
X006450Y022881D02*
X007263Y022881D01*
X007105Y022723D02*
X006807Y022723D01*
X006915Y022564D02*
X006946Y022564D01*
X007308Y022247D02*
X007429Y022247D01*
X007467Y022406D02*
X007588Y022406D01*
X007625Y022564D02*
X007746Y022564D01*
X007784Y022723D02*
X007905Y022723D01*
X007942Y022881D02*
X008063Y022881D01*
X008101Y023040D02*
X008222Y023040D01*
X008259Y023199D02*
X008380Y023199D01*
X008418Y023357D02*
X008539Y023357D01*
X008576Y023516D02*
X008698Y023516D01*
X008735Y023674D02*
X008856Y023674D01*
X008893Y023833D02*
X009015Y023833D01*
X009052Y023991D02*
X009173Y023991D01*
X009537Y024467D02*
X009649Y024467D01*
X009807Y024625D02*
X009489Y024625D01*
X009308Y024784D02*
X009966Y024784D01*
X010441Y025260D02*
X000357Y025260D01*
X000357Y025418D02*
X010600Y025418D01*
X010759Y025577D02*
X000357Y025577D01*
X000357Y025735D02*
X010917Y025735D01*
X011076Y025894D02*
X000357Y025894D01*
X000357Y026052D02*
X011234Y026052D01*
X011393Y026211D02*
X000357Y026211D01*
X000357Y026369D02*
X011551Y026369D01*
X011710Y026528D02*
X007387Y026528D01*
X007429Y026570D02*
X007487Y026710D01*
X007487Y026826D01*
X010610Y029949D01*
X010647Y030038D01*
X010647Y030133D01*
X010647Y030836D01*
X011214Y031403D01*
X011214Y030555D01*
X011304Y030337D01*
X011471Y030171D01*
X011689Y030080D01*
X011925Y030080D01*
X012122Y030162D01*
X014692Y027592D01*
X014813Y027471D01*
X014827Y027465D01*
X014827Y026339D01*
X014819Y026309D01*
X014827Y026255D01*
X014827Y026200D01*
X014839Y026171D01*
X014843Y026140D01*
X014871Y026093D01*
X014892Y026042D01*
X014914Y026020D01*
X014930Y025993D01*
X014974Y025960D01*
X015013Y025921D01*
X015042Y025909D01*
X015174Y025810D01*
X016513Y024471D01*
X016359Y024625D02*
X010836Y024625D01*
X010995Y024784D02*
X016200Y024784D01*
X016041Y024942D02*
X015251Y024942D01*
X015362Y025101D02*
X015883Y025101D01*
X015724Y025260D02*
X015387Y025260D01*
X015342Y025418D02*
X015566Y025418D01*
X015407Y025577D02*
X015176Y025577D01*
X015249Y025735D02*
X011596Y025735D01*
X011437Y025577D02*
X014838Y025577D01*
X015062Y025894D02*
X011754Y025894D01*
X011913Y026052D02*
X014888Y026052D01*
X014827Y026211D02*
X012072Y026211D01*
X012230Y026369D02*
X014827Y026369D01*
X014827Y026528D02*
X012389Y026528D01*
X012547Y026686D02*
X014827Y026686D01*
X014827Y026845D02*
X012706Y026845D01*
X012864Y027004D02*
X014827Y027004D01*
X014827Y027162D02*
X013023Y027162D01*
X013181Y027321D02*
X014827Y027321D01*
X014805Y027479D02*
X013340Y027479D01*
X013696Y027638D02*
X014646Y027638D01*
X014488Y027796D02*
X013810Y027796D01*
X013837Y027955D02*
X014329Y027955D01*
X014171Y028113D02*
X013794Y028113D01*
X013637Y028272D02*
X014012Y028272D01*
X013854Y028430D02*
X009091Y028430D01*
X008933Y028272D02*
X013276Y028272D01*
X013119Y028113D02*
X008774Y028113D01*
X008616Y027955D02*
X013077Y027955D01*
X012978Y027796D02*
X008457Y027796D01*
X008298Y027638D02*
X012820Y027638D01*
X012661Y027479D02*
X008140Y027479D01*
X007981Y027321D02*
X012503Y027321D01*
X012344Y027162D02*
X007823Y027162D01*
X007664Y027004D02*
X012185Y027004D01*
X012027Y026845D02*
X007506Y026845D01*
X007477Y026686D02*
X011868Y026686D01*
X011153Y024942D02*
X014762Y024942D01*
X013591Y023357D02*
X013509Y023275D01*
X010454Y023275D01*
X010372Y023357D01*
X013079Y021613D02*
X015984Y021613D01*
X015825Y021455D02*
X013238Y021455D01*
X013317Y021296D02*
X015797Y021296D01*
X015797Y021137D02*
X013317Y021137D01*
X013403Y020979D02*
X015863Y020979D01*
X016021Y020820D02*
X013561Y020820D01*
X013720Y020662D02*
X016491Y020662D01*
X016649Y020503D02*
X013878Y020503D01*
X014037Y020345D02*
X016779Y020345D01*
X016853Y020979D02*
X017567Y020979D01*
X017567Y021137D02*
X016717Y021137D01*
X016717Y021296D02*
X017567Y021296D01*
X017567Y021455D02*
X016688Y021455D01*
X016529Y021613D02*
X017567Y021613D01*
X017567Y021772D02*
X014093Y021772D01*
X013857Y021772D02*
X013856Y021772D01*
X013856Y021930D02*
X013857Y021930D01*
X013856Y022089D02*
X013857Y022089D01*
X012712Y018918D02*
X012614Y018918D01*
X011776Y019076D02*
X009647Y019076D01*
X009664Y018918D02*
X009712Y018918D01*
X010301Y018918D02*
X010712Y018918D01*
X010571Y018759D02*
X010443Y018759D01*
X010507Y018601D02*
X010507Y018601D01*
X010507Y018442D02*
X010507Y018442D01*
X010507Y018284D02*
X010507Y018284D01*
X010507Y018125D02*
X010507Y018125D01*
X010507Y018025D02*
X010507Y018025D01*
X011507Y018025D02*
X011507Y018025D01*
X011507Y018125D02*
X011507Y018125D01*
X012358Y017174D02*
X016206Y017174D01*
X016047Y017015D02*
X015564Y017015D01*
X015668Y016857D02*
X015889Y016857D01*
X015730Y016698D02*
X015687Y016698D01*
X015049Y017015D02*
X012516Y017015D01*
X008359Y012893D02*
X007847Y012893D01*
X007847Y012735D02*
X007977Y012735D01*
X008058Y012815D02*
X007847Y012604D01*
X007847Y013240D01*
X007931Y013205D01*
X008047Y013205D01*
X008437Y012815D01*
X008267Y012815D01*
X008267Y012346D01*
X008247Y012346D01*
X008247Y012815D01*
X008058Y012815D01*
X008247Y012735D02*
X008267Y012735D01*
X008267Y012576D02*
X008247Y012576D01*
X008247Y012418D02*
X008267Y012418D01*
X008267Y012345D02*
X008737Y012345D01*
X008737Y012516D01*
X008777Y012476D01*
X008777Y012137D01*
X008883Y012030D01*
X008836Y011983D01*
X008816Y011934D01*
X008621Y011739D01*
X008576Y011694D01*
X008455Y011815D01*
X008416Y011815D01*
X008376Y011855D01*
X008455Y011855D01*
X008737Y012137D01*
X008737Y012325D01*
X008267Y012325D01*
X008267Y012345D01*
X008737Y012418D02*
X008777Y012418D01*
X008777Y012259D02*
X008737Y012259D01*
X008701Y012100D02*
X008813Y012100D01*
X008819Y011942D02*
X008542Y011942D01*
X008487Y011783D02*
X008665Y011783D01*
X009057Y011835D02*
X014007Y011835D01*
X014857Y012685D01*
X018857Y012685D01*
X019807Y013635D01*
X020057Y013535D02*
X020057Y013385D01*
X018857Y012185D01*
X014857Y012185D01*
X014007Y011335D01*
X009257Y011335D01*
X007688Y010515D02*
X000357Y010515D01*
X000357Y010356D02*
X007777Y010356D01*
X007777Y010198D02*
X000357Y010198D01*
X000357Y010039D02*
X007874Y010039D01*
X008032Y009881D02*
X000357Y009881D01*
X000357Y009722D02*
X008530Y009722D01*
X008689Y009564D02*
X000357Y009564D01*
X000357Y009405D02*
X008847Y009405D01*
X009006Y009247D02*
X000357Y009247D01*
X000357Y009088D02*
X002372Y009088D01*
X002335Y009051D02*
X002277Y008911D01*
X002277Y008760D01*
X002335Y008620D01*
X002357Y008598D01*
X002266Y008635D01*
X002067Y008635D01*
X001883Y008559D01*
X001743Y008419D01*
X001667Y008235D01*
X001667Y007396D01*
X001743Y007212D01*
X001883Y007071D01*
X002067Y006995D01*
X002266Y006995D01*
X002450Y007071D01*
X002591Y007212D01*
X002667Y007396D01*
X002667Y008235D01*
X002591Y008419D01*
X002534Y008475D01*
X002581Y008455D01*
X002732Y008455D01*
X002872Y008513D01*
X002954Y008595D01*
X003559Y008595D01*
X003629Y008525D01*
X003523Y008419D01*
X003447Y008235D01*
X003447Y007835D01*
X003926Y007835D01*
X003926Y007795D01*
X003447Y007795D01*
X003447Y007396D01*
X003523Y007212D01*
X003663Y007071D01*
X003847Y006995D01*
X003927Y006995D01*
X003927Y007795D01*
X003967Y007795D01*
X003967Y007835D01*
X004447Y007835D01*
X004447Y008235D01*
X004371Y008419D01*
X004230Y008559D01*
X004151Y008592D01*
X004179Y008620D01*
X004237Y008760D01*
X004237Y008911D01*
X004179Y009051D01*
X004072Y009157D01*
X003932Y009215D01*
X003781Y009215D01*
X003641Y009157D01*
X003559Y009075D01*
X002954Y009075D01*
X002872Y009157D01*
X002732Y009215D01*
X002581Y009215D01*
X002441Y009157D01*
X002335Y009051D01*
X002284Y008930D02*
X000357Y008930D01*
X000357Y008771D02*
X002277Y008771D01*
X002321Y008613D02*
X002342Y008613D01*
X002555Y008454D02*
X003558Y008454D01*
X003472Y008295D02*
X002642Y008295D01*
X002667Y008137D02*
X003447Y008137D01*
X003447Y007978D02*
X002667Y007978D01*
X002667Y007820D02*
X003926Y007820D01*
X003967Y007820D02*
X009685Y007820D01*
X009717Y007661D02*
X004447Y007661D01*
X004447Y007795D02*
X003967Y007795D01*
X003967Y006995D01*
X004046Y006995D01*
X004230Y007071D01*
X004371Y007212D01*
X004447Y007396D01*
X004447Y007795D01*
X004447Y007978D02*
X009590Y007978D01*
X009577Y008137D02*
X004447Y008137D01*
X004422Y008295D02*
X009632Y008295D01*
X009799Y008454D02*
X004335Y008454D01*
X004171Y008613D02*
X009640Y008613D01*
X009482Y008771D02*
X004237Y008771D01*
X004229Y008930D02*
X009323Y008930D01*
X009164Y009088D02*
X004141Y009088D01*
X003572Y009088D02*
X002941Y009088D01*
X002012Y008613D02*
X000357Y008613D01*
X000357Y008454D02*
X001778Y008454D01*
X001692Y008295D02*
X000357Y008295D01*
X000357Y008137D02*
X001667Y008137D01*
X001667Y007978D02*
X000357Y007978D01*
X000357Y007820D02*
X001667Y007820D01*
X001667Y007661D02*
X000357Y007661D01*
X000357Y007503D02*
X001667Y007503D01*
X001688Y007344D02*
X000357Y007344D01*
X000357Y007186D02*
X001769Y007186D01*
X001991Y007027D02*
X000357Y007027D01*
X000357Y006869D02*
X009717Y006869D01*
X009717Y007027D02*
X004123Y007027D01*
X003967Y007027D02*
X003927Y007027D01*
X003771Y007027D02*
X002343Y007027D01*
X002564Y007186D02*
X003549Y007186D01*
X003468Y007344D02*
X002645Y007344D01*
X002667Y007503D02*
X003447Y007503D01*
X003447Y007661D02*
X002667Y007661D01*
X003927Y007661D02*
X003967Y007661D01*
X003967Y007503D02*
X003927Y007503D01*
X003927Y007344D02*
X003967Y007344D01*
X003967Y007186D02*
X003927Y007186D01*
X004344Y007186D02*
X009717Y007186D01*
X009717Y007344D02*
X004425Y007344D01*
X004447Y007503D02*
X009717Y007503D01*
X009717Y006710D02*
X000357Y006710D01*
X000357Y006551D02*
X009717Y006551D01*
X009717Y006393D02*
X000357Y006393D01*
X000357Y006234D02*
X009717Y006234D01*
X009717Y006076D02*
X000357Y006076D01*
X000357Y005917D02*
X001802Y005917D01*
X001743Y005859D02*
X001667Y005675D01*
X001667Y004836D01*
X001743Y004652D01*
X001883Y004511D01*
X002067Y004435D01*
X002266Y004435D01*
X002450Y004511D01*
X002591Y004652D01*
X002667Y004836D01*
X002667Y005675D01*
X002591Y005859D01*
X002450Y005999D01*
X002266Y006075D01*
X002067Y006075D01*
X001883Y005999D01*
X001743Y005859D01*
X001701Y005759D02*
X000357Y005759D01*
X000357Y005600D02*
X001667Y005600D01*
X001667Y005442D02*
X000357Y005442D01*
X000357Y005283D02*
X001667Y005283D01*
X001667Y005125D02*
X000357Y005125D01*
X000357Y004966D02*
X001667Y004966D01*
X001678Y004807D02*
X000357Y004807D01*
X000357Y004649D02*
X001746Y004649D01*
X001934Y004490D02*
X000357Y004490D01*
X000357Y004332D02*
X009717Y004332D01*
X009717Y004490D02*
X004179Y004490D01*
X004230Y004511D02*
X004371Y004652D01*
X004447Y004836D01*
X004447Y005235D01*
X003967Y005235D01*
X003967Y005275D01*
X004447Y005275D01*
X004447Y005675D01*
X004371Y005859D01*
X004230Y005999D01*
X004046Y006075D01*
X003967Y006075D01*
X003967Y005276D01*
X003927Y005276D01*
X003927Y006075D01*
X003847Y006075D01*
X003663Y005999D01*
X003523Y005859D01*
X003447Y005675D01*
X003447Y005275D01*
X003926Y005275D01*
X003926Y005235D01*
X003447Y005235D01*
X003447Y004836D01*
X003523Y004652D01*
X003663Y004511D01*
X003847Y004435D01*
X003927Y004435D01*
X003927Y005235D01*
X003967Y005235D01*
X003967Y004435D01*
X004046Y004435D01*
X004230Y004511D01*
X004367Y004649D02*
X009717Y004649D01*
X009717Y004807D02*
X004435Y004807D01*
X004447Y004966D02*
X009717Y004966D01*
X009717Y005125D02*
X004447Y005125D01*
X004447Y005283D02*
X009717Y005283D01*
X009717Y005442D02*
X004447Y005442D01*
X004447Y005600D02*
X009717Y005600D01*
X009717Y005759D02*
X004412Y005759D01*
X004312Y005917D02*
X009717Y005917D01*
X009717Y004173D02*
X003565Y004173D01*
X003520Y004199D02*
X003032Y004311D01*
X002533Y004273D01*
X002067Y004090D01*
X001675Y003778D01*
X001393Y003364D01*
X001245Y002886D01*
X001245Y002385D01*
X001393Y001906D01*
X001675Y001493D01*
X001675Y001493D01*
X001675Y001493D01*
X002067Y001180D01*
X002533Y000997D01*
X003032Y000960D01*
X003032Y000960D01*
X003520Y001071D01*
X003520Y001071D01*
X003954Y001322D01*
X003954Y001322D01*
X004295Y001689D01*
X004512Y002140D01*
X004512Y002140D01*
X004587Y002635D01*
X004512Y003130D01*
X004512Y003131D01*
X004295Y003582D01*
X003954Y003949D01*
X003520Y004199D01*
X003714Y004490D02*
X002399Y004490D01*
X002587Y004649D02*
X003526Y004649D01*
X003458Y004807D02*
X002655Y004807D01*
X002667Y004966D02*
X003447Y004966D01*
X003447Y005125D02*
X002667Y005125D01*
X002667Y005283D02*
X003447Y005283D01*
X003447Y005442D02*
X002667Y005442D01*
X002667Y005600D02*
X003447Y005600D01*
X003481Y005759D02*
X002632Y005759D01*
X002532Y005917D02*
X003582Y005917D01*
X003927Y005917D02*
X003967Y005917D01*
X003967Y005759D02*
X003927Y005759D01*
X003927Y005600D02*
X003967Y005600D01*
X003967Y005442D02*
X003927Y005442D01*
X003927Y005283D02*
X003967Y005283D01*
X003967Y005125D02*
X003927Y005125D01*
X003927Y004966D02*
X003967Y004966D01*
X003967Y004807D02*
X003927Y004807D01*
X003927Y004649D02*
X003967Y004649D01*
X003967Y004490D02*
X003927Y004490D01*
X003840Y004015D02*
X009717Y004015D01*
X009717Y003856D02*
X004040Y003856D01*
X003954Y003949D02*
X003954Y003949D01*
X004187Y003698D02*
X009717Y003698D01*
X009717Y003539D02*
X009432Y003539D01*
X009305Y003665D02*
X009587Y003384D01*
X009587Y002987D01*
X009305Y002705D01*
X008908Y002705D01*
X008627Y002987D01*
X008627Y003384D01*
X008908Y003665D01*
X009305Y003665D01*
X009587Y003381D02*
X009627Y003381D01*
X009627Y003222D02*
X009587Y003222D01*
X009587Y003064D02*
X009627Y003064D01*
X009708Y002905D02*
X009505Y002905D01*
X009347Y002746D02*
X009867Y002746D01*
X009830Y002588D02*
X009383Y002588D01*
X009305Y002665D02*
X008908Y002665D01*
X008627Y002384D01*
X008627Y001987D01*
X008908Y001705D01*
X009305Y001705D01*
X009587Y001987D01*
X009587Y002384D01*
X009305Y002665D01*
X009541Y002429D02*
X009672Y002429D01*
X009627Y002271D02*
X009587Y002271D01*
X009587Y002112D02*
X009627Y002112D01*
X009660Y001954D02*
X009554Y001954D01*
X009395Y001795D02*
X009818Y001795D01*
X010395Y001795D02*
X010818Y001795D01*
X010660Y001954D02*
X010554Y001954D01*
X010587Y002112D02*
X010627Y002112D01*
X010627Y002271D02*
X010587Y002271D01*
X011097Y002112D02*
X011117Y002112D01*
X011117Y001954D02*
X011097Y001954D01*
X011097Y001795D02*
X011117Y001795D01*
X011395Y001795D02*
X019867Y001795D01*
X019867Y001637D02*
X004246Y001637D01*
X004295Y001689D02*
X004295Y001689D01*
X004346Y001795D02*
X006818Y001795D01*
X006908Y001705D02*
X007305Y001705D01*
X007587Y001987D01*
X007587Y002384D01*
X007305Y002665D01*
X006908Y002665D01*
X006627Y002384D01*
X006627Y001987D01*
X006908Y001705D01*
X006660Y001954D02*
X004422Y001954D01*
X004499Y002112D02*
X006627Y002112D01*
X006627Y002271D02*
X004532Y002271D01*
X004556Y002429D02*
X006672Y002429D01*
X006830Y002588D02*
X004579Y002588D01*
X004570Y002746D02*
X006867Y002746D01*
X006908Y002705D02*
X007305Y002705D01*
X007587Y002987D01*
X007587Y003384D01*
X007305Y003665D01*
X006908Y003665D01*
X006627Y003384D01*
X006627Y002987D01*
X006908Y002705D01*
X006708Y002905D02*
X004546Y002905D01*
X004522Y003064D02*
X006627Y003064D01*
X006627Y003222D02*
X004468Y003222D01*
X004392Y003381D02*
X006627Y003381D01*
X006782Y003539D02*
X004315Y003539D01*
X004295Y003582D02*
X004295Y003582D01*
X002278Y004173D02*
X000357Y004173D01*
X000357Y004015D02*
X001972Y004015D01*
X001773Y003856D02*
X000357Y003856D01*
X000357Y003698D02*
X001620Y003698D01*
X001675Y003778D02*
X001675Y003778D01*
X001675Y003778D01*
X001512Y003539D02*
X000357Y003539D01*
X000357Y003381D02*
X001404Y003381D01*
X001393Y003364D02*
X001393Y003364D01*
X001349Y003222D02*
X000357Y003222D01*
X000357Y003064D02*
X001300Y003064D01*
X001251Y002905D02*
X000357Y002905D01*
X000357Y002746D02*
X001245Y002746D01*
X001245Y002886D02*
X001245Y002886D01*
X001245Y002588D02*
X000357Y002588D01*
X000357Y002429D02*
X001245Y002429D01*
X001245Y002385D02*
X001245Y002385D01*
X001281Y002271D02*
X000357Y002271D01*
X000357Y002112D02*
X001330Y002112D01*
X001378Y001954D02*
X000357Y001954D01*
X000357Y001795D02*
X001469Y001795D01*
X001393Y001906D02*
X001393Y001906D01*
X001577Y001637D02*
X000357Y001637D01*
X000357Y001478D02*
X001693Y001478D01*
X001892Y001320D02*
X000357Y001320D01*
X000357Y001161D02*
X002116Y001161D01*
X002067Y001180D02*
X002067Y001180D01*
X002520Y001002D02*
X000357Y001002D01*
X000357Y000844D02*
X019733Y000844D01*
X019727Y001002D02*
X003218Y001002D01*
X003675Y001161D02*
X019795Y001161D01*
X019867Y001320D02*
X003950Y001320D01*
X004099Y001478D02*
X019867Y001478D01*
X019867Y001954D02*
X011554Y001954D01*
X011587Y002112D02*
X019867Y002112D01*
X019867Y002271D02*
X011587Y002271D01*
X011541Y002429D02*
X019867Y002429D01*
X019756Y002588D02*
X011549Y002588D01*
X011707Y002746D02*
X019727Y002746D01*
X019766Y002905D02*
X011833Y002905D01*
X011847Y003064D02*
X019906Y003064D01*
X019877Y003222D02*
X011847Y003222D01*
X011847Y003381D02*
X015220Y003381D01*
X015027Y003539D02*
X011847Y003539D01*
X011847Y003698D02*
X014977Y003698D01*
X014995Y003856D02*
X011847Y003856D01*
X011847Y004015D02*
X015099Y004015D01*
X015615Y004015D02*
X023897Y004015D01*
X024055Y004173D02*
X011847Y004173D01*
X011847Y004332D02*
X024214Y004332D01*
X024114Y004490D02*
X011847Y004490D01*
X011847Y004649D02*
X015385Y004649D01*
X015226Y004807D02*
X011847Y004807D01*
X011847Y004966D02*
X015068Y004966D01*
X014958Y005125D02*
X011847Y005125D01*
X011847Y005283D02*
X014927Y005283D01*
X014927Y005442D02*
X011847Y005442D01*
X011847Y005600D02*
X014927Y005600D01*
X014927Y005759D02*
X011847Y005759D01*
X011847Y005917D02*
X014927Y005917D01*
X014927Y006076D02*
X011847Y006076D01*
X011847Y006234D02*
X014927Y006234D01*
X014927Y006393D02*
X011847Y006393D01*
X011847Y006551D02*
X012153Y006551D01*
X012047Y006710D02*
X011847Y006710D01*
X011847Y006869D02*
X012027Y006869D01*
X012075Y007027D02*
X011847Y007027D01*
X011847Y007186D02*
X012167Y007186D01*
X012167Y007344D02*
X011847Y007344D01*
X011847Y007503D02*
X012167Y007503D01*
X012167Y007661D02*
X011847Y007661D01*
X011847Y007820D02*
X012167Y007820D01*
X012113Y007978D02*
X011847Y007978D01*
X011898Y008137D02*
X011991Y008137D01*
X012407Y008335D02*
X012507Y008335D01*
X015357Y011185D01*
X018857Y011185D01*
X020857Y013185D01*
X021207Y013185D01*
X021257Y013235D01*
X021090Y012893D02*
X020932Y012893D01*
X021067Y012735D02*
X020774Y012735D01*
X020908Y012576D02*
X020615Y012576D01*
X020750Y012418D02*
X020457Y012418D01*
X020591Y012259D02*
X020298Y012259D01*
X020432Y012100D02*
X020139Y012100D01*
X020274Y011942D02*
X019981Y011942D01*
X020115Y011783D02*
X019822Y011783D01*
X019957Y011625D02*
X019664Y011625D01*
X019770Y011466D02*
X019505Y011466D01*
X019611Y011308D02*
X019347Y011308D01*
X019453Y011149D02*
X019188Y011149D01*
X019294Y010991D02*
X019030Y010991D01*
X019136Y010832D02*
X015371Y010832D01*
X015213Y010674D02*
X019097Y010674D01*
X019097Y010515D02*
X015054Y010515D01*
X014896Y010356D02*
X019097Y010356D01*
X019097Y010198D02*
X014737Y010198D01*
X014578Y010039D02*
X019097Y010039D01*
X019097Y009881D02*
X014420Y009881D01*
X014261Y009722D02*
X019097Y009722D01*
X019097Y009564D02*
X014103Y009564D01*
X013944Y009405D02*
X019097Y009405D01*
X019097Y009247D02*
X013786Y009247D01*
X013627Y009088D02*
X018372Y009088D01*
X018255Y008930D02*
X013469Y008930D01*
X013310Y008771D02*
X018227Y008771D01*
X018267Y008613D02*
X013152Y008613D01*
X012993Y008454D02*
X015067Y008454D01*
X014958Y008295D02*
X012867Y008295D01*
X012822Y008137D02*
X014927Y008137D01*
X014927Y007978D02*
X012700Y007978D01*
X012647Y007820D02*
X014927Y007820D01*
X014927Y007661D02*
X012647Y007661D01*
X012647Y007503D02*
X014927Y007503D01*
X014927Y007344D02*
X012647Y007344D01*
X012647Y007186D02*
X014927Y007186D01*
X014927Y007027D02*
X012739Y007027D01*
X012787Y006869D02*
X014927Y006869D01*
X014927Y006710D02*
X012766Y006710D01*
X012660Y006551D02*
X014927Y006551D01*
X015787Y006551D02*
X016583Y006551D01*
X016425Y006393D02*
X015787Y006393D01*
X015787Y006234D02*
X016266Y006234D01*
X016108Y006076D02*
X015787Y006076D01*
X015787Y005917D02*
X015949Y005917D01*
X016311Y005600D02*
X018773Y005600D01*
X018619Y005759D02*
X016469Y005759D01*
X016628Y005917D02*
X018577Y005917D01*
X018604Y006076D02*
X016787Y006076D01*
X016945Y006234D02*
X018717Y006234D01*
X018717Y006393D02*
X017104Y006393D01*
X017262Y006551D02*
X018717Y006551D01*
X018717Y006710D02*
X017421Y006710D01*
X017579Y006869D02*
X018717Y006869D01*
X018717Y007027D02*
X017738Y007027D01*
X017896Y007186D02*
X018717Y007186D01*
X018717Y007344D02*
X018055Y007344D01*
X018213Y007503D02*
X018717Y007503D01*
X018717Y007661D02*
X018372Y007661D01*
X018667Y007820D02*
X018717Y007820D01*
X019197Y007820D02*
X020097Y007820D01*
X020097Y007661D02*
X019197Y007661D01*
X019197Y007503D02*
X020172Y007503D01*
X020330Y007344D02*
X019197Y007344D01*
X019197Y007186D02*
X020489Y007186D01*
X020647Y007027D02*
X019197Y007027D01*
X019197Y006869D02*
X020806Y006869D01*
X020964Y006710D02*
X019197Y006710D01*
X019197Y006551D02*
X021123Y006551D01*
X021281Y006393D02*
X019197Y006393D01*
X019197Y006234D02*
X021440Y006234D01*
X021599Y006076D02*
X019310Y006076D01*
X019337Y005917D02*
X021757Y005917D01*
X021916Y005759D02*
X019295Y005759D01*
X019141Y005600D02*
X022074Y005600D01*
X022233Y005442D02*
X016279Y005442D01*
X016742Y006710D02*
X015787Y006710D01*
X015787Y006869D02*
X016900Y006869D01*
X017059Y007027D02*
X015787Y007027D01*
X015787Y007186D02*
X017218Y007186D01*
X017376Y007344D02*
X015787Y007344D01*
X015787Y007503D02*
X017535Y007503D01*
X017693Y007661D02*
X015787Y007661D01*
X015787Y007820D02*
X017852Y007820D01*
X018010Y007978D02*
X015787Y007978D01*
X015787Y008137D02*
X018169Y008137D01*
X018191Y008295D02*
X015756Y008295D01*
X015646Y008454D02*
X018288Y008454D01*
X019019Y008613D02*
X019097Y008613D01*
X019097Y008771D02*
X018987Y008771D01*
X018958Y008930D02*
X019097Y008930D01*
X019097Y009088D02*
X018841Y009088D01*
X019357Y008185D02*
X019357Y010685D01*
X019957Y011285D01*
X020499Y011488D02*
X021860Y012849D01*
X021897Y012938D01*
X021897Y013033D01*
X021897Y013983D01*
X021860Y014071D01*
X021797Y014135D01*
X021797Y014638D01*
X021879Y014720D01*
X021937Y014860D01*
X021937Y015011D01*
X021879Y015151D01*
X021772Y015257D01*
X021699Y015288D01*
X022210Y015799D01*
X022247Y015888D01*
X022247Y015983D01*
X022247Y017258D01*
X022291Y017213D01*
X022431Y017155D01*
X022582Y017155D01*
X022722Y017213D01*
X022829Y017320D01*
X022887Y017460D01*
X022887Y017611D01*
X022829Y017751D01*
X022722Y017857D01*
X022582Y017915D01*
X022566Y017915D01*
X022360Y018121D01*
X022293Y018189D01*
X022204Y018225D01*
X021904Y018225D01*
X021836Y018225D01*
X031966Y028355D01*
X032082Y028355D01*
X032222Y028413D01*
X032329Y028520D01*
X032387Y028660D01*
X032387Y028811D01*
X032329Y028951D01*
X032222Y029057D01*
X032082Y029115D01*
X031931Y029115D01*
X031791Y029057D01*
X031685Y028951D01*
X031627Y028811D01*
X031627Y028695D01*
X023047Y020115D01*
X023047Y020133D01*
X023047Y021458D01*
X023141Y021363D01*
X023281Y021305D01*
X023432Y021305D01*
X023572Y021363D01*
X023679Y021470D01*
X023737Y021610D01*
X023737Y021726D01*
X027143Y025132D01*
X027210Y025199D01*
X027247Y025288D01*
X027247Y028388D01*
X027247Y028483D01*
X027210Y028571D01*
X024260Y031521D01*
X024193Y031589D01*
X024104Y031625D01*
X024048Y031625D01*
X024107Y031766D01*
X024107Y032605D01*
X024031Y032789D01*
X023890Y032929D01*
X023706Y033005D01*
X023507Y033005D01*
X023323Y032929D01*
X023183Y032789D01*
X023107Y032605D01*
X023107Y031766D01*
X023165Y031625D01*
X023048Y031625D01*
X023107Y031766D01*
X023107Y032605D01*
X023031Y032789D01*
X022890Y032929D01*
X022706Y033005D01*
X022507Y033005D01*
X022323Y032929D01*
X022183Y032789D01*
X022107Y032605D01*
X022107Y031766D01*
X022165Y031625D01*
X021214Y031625D01*
X021371Y031690D01*
X021602Y031921D01*
X021727Y032222D01*
X021727Y032548D01*
X021602Y032850D01*
X021371Y033080D01*
X021070Y033205D01*
X020744Y033205D01*
X020442Y033080D01*
X020212Y032850D01*
X020087Y032548D01*
X020087Y032222D01*
X020212Y031921D01*
X020442Y031690D01*
X020599Y031625D01*
X018856Y031625D01*
X018260Y032221D01*
X018193Y032289D01*
X018104Y032325D01*
X011604Y032325D01*
X011509Y032325D01*
X011421Y032289D01*
X010399Y031267D01*
X010399Y031616D01*
X010309Y031834D01*
X010142Y032000D01*
X009925Y032090D01*
X009689Y032090D01*
X009471Y032000D01*
X009304Y031834D01*
X009214Y031616D01*
X009214Y030555D01*
X009304Y030337D01*
X009471Y030171D01*
X009689Y030080D01*
X009925Y030080D01*
X010142Y030171D01*
X010167Y030195D01*
X010167Y030185D01*
X007147Y027165D01*
X007031Y027165D01*
X006891Y027107D01*
X006785Y027001D01*
X006727Y026861D01*
X006727Y026710D01*
X006785Y026570D01*
X006891Y026463D01*
X007031Y026405D01*
X007182Y026405D01*
X007322Y026463D01*
X007429Y026570D01*
X006827Y026528D02*
X000357Y026528D01*
X000357Y026686D02*
X006736Y026686D01*
X006727Y026845D02*
X000357Y026845D01*
X000357Y027004D02*
X006787Y027004D01*
X007023Y027162D02*
X000357Y027162D01*
X000357Y027321D02*
X007303Y027321D01*
X007461Y027479D02*
X000357Y027479D01*
X000357Y027638D02*
X007620Y027638D01*
X007778Y027796D02*
X000357Y027796D01*
X000357Y027955D02*
X007937Y027955D01*
X008095Y028113D02*
X000357Y028113D01*
X000357Y028272D02*
X008254Y028272D01*
X008412Y028430D02*
X000357Y028430D01*
X000357Y028589D02*
X008571Y028589D01*
X008729Y028748D02*
X000357Y028748D01*
X000357Y028906D02*
X008888Y028906D01*
X009047Y029065D02*
X000357Y029065D01*
X000357Y029223D02*
X009205Y029223D01*
X009364Y029382D02*
X003246Y029382D01*
X003420Y029421D02*
X003420Y029421D01*
X002932Y029310D01*
X002932Y029310D01*
X002433Y029347D01*
X002433Y029347D01*
X001967Y029530D01*
X001967Y029530D01*
X001575Y029843D01*
X001575Y029843D01*
X001293Y030256D01*
X001293Y030256D01*
X001145Y030735D01*
X001145Y030735D01*
X001145Y031236D01*
X001145Y031236D01*
X001293Y031714D01*
X001293Y031714D01*
X001575Y032128D01*
X001575Y032128D01*
X001575Y032128D01*
X001967Y032440D01*
X001967Y032440D01*
X002433Y032623D01*
X002433Y032623D01*
X002932Y032661D01*
X002932Y032661D01*
X003420Y032549D01*
X003420Y032549D01*
X003854Y032299D01*
X003854Y032299D01*
X004195Y031932D01*
X004195Y031932D01*
X004412Y031481D01*
X004412Y031480D01*
X004487Y030985D01*
X004412Y030490D01*
X004412Y030490D01*
X004195Y030039D01*
X004195Y030039D01*
X003854Y029672D01*
X003854Y029672D01*
X003854Y029672D01*
X003420Y029421D01*
X003626Y029540D02*
X009522Y029540D01*
X009681Y029699D02*
X003879Y029699D01*
X004026Y029857D02*
X009839Y029857D01*
X009998Y030016D02*
X004173Y030016D01*
X004260Y030174D02*
X007467Y030174D01*
X007471Y030171D02*
X007689Y030080D01*
X007925Y030080D01*
X008142Y030171D01*
X008309Y030337D01*
X008399Y030555D01*
X008399Y031616D01*
X008309Y031834D01*
X008142Y032000D01*
X007925Y032090D01*
X007689Y032090D01*
X007471Y032000D01*
X007304Y031834D01*
X007214Y031616D01*
X007214Y030555D01*
X007304Y030337D01*
X007471Y030171D01*
X007309Y030333D02*
X004336Y030333D01*
X004412Y030491D02*
X007240Y030491D01*
X007214Y030650D02*
X004436Y030650D01*
X004460Y030809D02*
X007214Y030809D01*
X007214Y030967D02*
X004484Y030967D01*
X004466Y031126D02*
X007214Y031126D01*
X007214Y031284D02*
X004442Y031284D01*
X004418Y031443D02*
X007214Y031443D01*
X007214Y031601D02*
X004354Y031601D01*
X004277Y031760D02*
X007274Y031760D01*
X007389Y031918D02*
X004201Y031918D01*
X004060Y032077D02*
X007656Y032077D01*
X007957Y032077D02*
X009656Y032077D01*
X009957Y032077D02*
X011209Y032077D01*
X011367Y032235D02*
X003913Y032235D01*
X003689Y032394D02*
X020087Y032394D01*
X020088Y032553D02*
X003406Y032553D01*
X002253Y032553D02*
X000357Y032553D01*
X000357Y032711D02*
X020154Y032711D01*
X020231Y032870D02*
X000357Y032870D01*
X000357Y033028D02*
X020390Y033028D01*
X020699Y033187D02*
X000357Y033187D01*
X000357Y033345D02*
X039857Y033345D01*
X039857Y033187D02*
X025615Y033187D01*
X025570Y033205D02*
X025244Y033205D01*
X024942Y033080D01*
X024712Y032850D01*
X024587Y032548D01*
X024587Y032222D01*
X024712Y031921D01*
X024942Y031690D01*
X025244Y031565D01*
X025570Y031565D01*
X025871Y031690D01*
X026102Y031921D01*
X026227Y032222D01*
X026227Y032548D01*
X026102Y032850D01*
X025871Y033080D01*
X025570Y033205D01*
X025199Y033187D02*
X021115Y033187D01*
X021423Y033028D02*
X024890Y033028D01*
X024731Y032870D02*
X023949Y032870D01*
X024063Y032711D02*
X024654Y032711D01*
X024588Y032553D02*
X024107Y032553D01*
X024107Y032394D02*
X024587Y032394D01*
X024587Y032235D02*
X024107Y032235D01*
X024107Y032077D02*
X024647Y032077D01*
X024714Y031918D02*
X024107Y031918D01*
X024104Y031760D02*
X024873Y031760D01*
X025157Y031601D02*
X024162Y031601D01*
X024339Y031443D02*
X036229Y031443D01*
X036195Y031336D02*
X036195Y031336D01*
X036195Y030835D01*
X036343Y030356D01*
X036625Y029943D01*
X036625Y029943D01*
X036625Y029943D01*
X037017Y029630D01*
X037483Y029447D01*
X037982Y029410D01*
X037982Y029410D01*
X038470Y029521D01*
X038470Y029521D01*
X038904Y029772D01*
X038904Y029772D01*
X039245Y030139D01*
X039462Y030590D01*
X039462Y030590D01*
X039537Y031085D01*
X039537Y031085D01*
X039462Y031580D01*
X039245Y032032D01*
X038904Y032399D01*
X038470Y032649D01*
X037982Y032761D01*
X037483Y032723D01*
X037483Y032723D01*
X037017Y032540D01*
X036625Y032228D01*
X036343Y031814D01*
X036195Y031336D01*
X036195Y031284D02*
X024497Y031284D01*
X024656Y031126D02*
X036195Y031126D01*
X036195Y030967D02*
X024814Y030967D01*
X024973Y030809D02*
X036204Y030809D01*
X036195Y030835D02*
X036195Y030835D01*
X036252Y030650D02*
X025131Y030650D01*
X025290Y030491D02*
X036301Y030491D01*
X036343Y030356D02*
X036343Y030356D01*
X036359Y030333D02*
X025448Y030333D01*
X025607Y030174D02*
X036467Y030174D01*
X036575Y030016D02*
X025766Y030016D01*
X025924Y029857D02*
X036732Y029857D01*
X036931Y029699D02*
X026083Y029699D01*
X026241Y029540D02*
X037246Y029540D01*
X037017Y029630D02*
X037017Y029630D01*
X037483Y029447D02*
X037483Y029447D01*
X038503Y029540D02*
X039857Y029540D01*
X039857Y029382D02*
X026400Y029382D01*
X026558Y029223D02*
X039857Y029223D01*
X039857Y029065D02*
X032205Y029065D01*
X032347Y028906D02*
X039857Y028906D01*
X039857Y028748D02*
X032387Y028748D01*
X032357Y028589D02*
X039857Y028589D01*
X039857Y028430D02*
X032239Y028430D01*
X031883Y028272D02*
X039857Y028272D01*
X039857Y028113D02*
X031724Y028113D01*
X031566Y027955D02*
X039857Y027955D01*
X039857Y027796D02*
X031407Y027796D01*
X031248Y027638D02*
X036559Y027638D01*
X036609Y027688D02*
X036442Y027521D01*
X036352Y027303D01*
X036352Y027243D01*
X037299Y027243D01*
X037299Y027778D01*
X036826Y027778D01*
X036609Y027688D01*
X036425Y027479D02*
X031090Y027479D01*
X030931Y027321D02*
X036359Y027321D01*
X036352Y027128D02*
X036352Y027067D01*
X036442Y026850D01*
X036609Y026683D01*
X036826Y026593D01*
X037299Y026593D01*
X037299Y027128D01*
X036352Y027128D01*
X036378Y027004D02*
X030614Y027004D01*
X030773Y027162D02*
X037299Y027162D01*
X037299Y027128D02*
X037299Y027243D01*
X037414Y027243D01*
X037414Y027778D01*
X037887Y027778D01*
X038105Y027688D01*
X038271Y027521D01*
X038362Y027303D01*
X038362Y027243D01*
X037414Y027243D01*
X037414Y027128D01*
X037414Y026593D01*
X037887Y026593D01*
X038105Y026683D01*
X038271Y026850D01*
X038362Y027067D01*
X038362Y027128D01*
X037414Y027128D01*
X037299Y027128D01*
X037414Y027162D02*
X039857Y027162D01*
X039857Y027004D02*
X038335Y027004D01*
X038267Y026845D02*
X039857Y026845D01*
X039857Y026686D02*
X038108Y026686D01*
X038354Y027321D02*
X039857Y027321D01*
X039857Y027479D02*
X038289Y027479D01*
X038155Y027638D02*
X039857Y027638D01*
X039857Y026528D02*
X030139Y026528D01*
X030297Y026686D02*
X036605Y026686D01*
X036447Y026845D02*
X030456Y026845D01*
X030094Y027162D02*
X027247Y027162D01*
X027247Y027004D02*
X029936Y027004D01*
X029777Y026845D02*
X027247Y026845D01*
X027247Y026686D02*
X029618Y026686D01*
X029460Y026528D02*
X027247Y026528D01*
X027247Y026369D02*
X029301Y026369D01*
X029143Y026211D02*
X027247Y026211D01*
X027247Y026052D02*
X028984Y026052D01*
X028826Y025894D02*
X027247Y025894D01*
X027247Y025735D02*
X028667Y025735D01*
X028509Y025577D02*
X027247Y025577D01*
X027247Y025418D02*
X028350Y025418D01*
X028192Y025260D02*
X027235Y025260D01*
X027112Y025101D02*
X028033Y025101D01*
X027874Y024942D02*
X026953Y024942D01*
X026795Y024784D02*
X027716Y024784D01*
X027557Y024625D02*
X026636Y024625D01*
X026478Y024467D02*
X027399Y024467D01*
X027240Y024308D02*
X026319Y024308D01*
X026160Y024150D02*
X027082Y024150D01*
X026923Y023991D02*
X026002Y023991D01*
X025843Y023833D02*
X026765Y023833D01*
X026606Y023674D02*
X025685Y023674D01*
X025526Y023516D02*
X026448Y023516D01*
X026289Y023357D02*
X025368Y023357D01*
X025209Y023199D02*
X026130Y023199D01*
X025972Y023040D02*
X025051Y023040D01*
X024892Y022881D02*
X025813Y022881D01*
X025655Y022723D02*
X024734Y022723D01*
X024575Y022564D02*
X025496Y022564D01*
X025338Y022406D02*
X024416Y022406D01*
X024258Y022247D02*
X025179Y022247D01*
X025021Y022089D02*
X024099Y022089D01*
X023941Y021930D02*
X024862Y021930D01*
X024704Y021772D02*
X023782Y021772D01*
X023737Y021613D02*
X024545Y021613D01*
X024386Y021455D02*
X023663Y021455D01*
X024069Y021137D02*
X023047Y021137D01*
X023047Y020979D02*
X023911Y020979D01*
X023752Y020820D02*
X023047Y020820D01*
X023047Y020662D02*
X023594Y020662D01*
X023435Y020503D02*
X023047Y020503D01*
X023047Y020345D02*
X023277Y020345D01*
X023118Y020186D02*
X023047Y020186D01*
X023480Y019869D02*
X027701Y019869D01*
X027767Y019935D02*
X027767Y020938D01*
X027685Y021020D01*
X027627Y021160D01*
X027627Y021311D01*
X027685Y021451D01*
X027791Y021557D01*
X027931Y021615D01*
X028082Y021615D01*
X028222Y021557D01*
X028329Y021451D01*
X028387Y021311D01*
X028387Y021160D01*
X028329Y021020D01*
X028247Y020938D01*
X028247Y019883D01*
X028247Y019788D01*
X028210Y019699D01*
X027137Y018626D01*
X027137Y018510D01*
X027079Y018370D01*
X026972Y018263D01*
X026832Y018205D01*
X026681Y018205D01*
X026541Y018263D01*
X026435Y018370D01*
X026377Y018510D01*
X026377Y018661D01*
X026435Y018801D01*
X026541Y018907D01*
X026681Y018965D01*
X026797Y018965D01*
X027767Y019935D01*
X027767Y020028D02*
X023638Y020028D01*
X023797Y020186D02*
X027767Y020186D01*
X027767Y020345D02*
X023955Y020345D01*
X024114Y020503D02*
X027767Y020503D01*
X027767Y020662D02*
X024273Y020662D01*
X024431Y020820D02*
X027767Y020820D01*
X027726Y020979D02*
X024590Y020979D01*
X024748Y021137D02*
X027636Y021137D01*
X027627Y021296D02*
X024907Y021296D01*
X025065Y021455D02*
X027688Y021455D01*
X027926Y021613D02*
X025224Y021613D01*
X025382Y021772D02*
X033335Y021772D01*
X033493Y021930D02*
X025541Y021930D01*
X025699Y022089D02*
X033652Y022089D01*
X033811Y022247D02*
X025858Y022247D01*
X026016Y022406D02*
X033969Y022406D01*
X034128Y022564D02*
X026175Y022564D01*
X026334Y022723D02*
X034286Y022723D01*
X034445Y022881D02*
X026492Y022881D01*
X026651Y023040D02*
X034603Y023040D01*
X034762Y023199D02*
X026809Y023199D01*
X026968Y023357D02*
X034920Y023357D01*
X035079Y023516D02*
X027126Y023516D01*
X027285Y023674D02*
X035237Y023674D01*
X035396Y023833D02*
X027443Y023833D01*
X027602Y023991D02*
X035555Y023991D01*
X035713Y024150D02*
X027760Y024150D01*
X027919Y024308D02*
X035872Y024308D01*
X036030Y024467D02*
X028078Y024467D01*
X028236Y024625D02*
X036189Y024625D01*
X036347Y024784D02*
X028395Y024784D01*
X028553Y024942D02*
X036403Y024942D01*
X036433Y024870D02*
X032079Y020515D01*
X031271Y020515D01*
X031113Y020450D01*
X030992Y020329D01*
X030927Y020171D01*
X030927Y020000D01*
X030992Y019842D01*
X031113Y019721D01*
X031271Y019655D01*
X032171Y019655D01*
X032342Y019655D01*
X032500Y019721D01*
X037372Y024593D01*
X037887Y024593D01*
X038105Y024683D01*
X038271Y024850D01*
X038362Y025067D01*
X038362Y025303D01*
X038271Y025521D01*
X038105Y025688D01*
X037887Y025778D01*
X036826Y025778D01*
X036609Y025688D01*
X036442Y025521D01*
X036352Y025303D01*
X036352Y025067D01*
X036433Y024870D01*
X036352Y025101D02*
X028712Y025101D01*
X028870Y025260D02*
X036352Y025260D01*
X036399Y025418D02*
X029029Y025418D01*
X029187Y025577D02*
X036498Y025577D01*
X036723Y025735D02*
X029346Y025735D01*
X029504Y025894D02*
X039857Y025894D01*
X039857Y026052D02*
X029663Y026052D01*
X029822Y026211D02*
X039857Y026211D01*
X039857Y026369D02*
X029980Y026369D01*
X030253Y027321D02*
X027247Y027321D01*
X027247Y027479D02*
X030411Y027479D01*
X030570Y027638D02*
X027247Y027638D01*
X027247Y027796D02*
X030728Y027796D01*
X030887Y027955D02*
X027247Y027955D01*
X027247Y028113D02*
X031045Y028113D01*
X031204Y028272D02*
X027247Y028272D01*
X027247Y028430D02*
X031362Y028430D01*
X031521Y028589D02*
X027192Y028589D01*
X027034Y028748D02*
X031627Y028748D01*
X031666Y028906D02*
X026875Y028906D01*
X026717Y029065D02*
X031809Y029065D01*
X036277Y031601D02*
X025657Y031601D01*
X025941Y031760D02*
X036326Y031760D01*
X036343Y031814D02*
X036343Y031814D01*
X036414Y031918D02*
X026099Y031918D01*
X026166Y032077D02*
X036522Y032077D01*
X036625Y032228D02*
X036625Y032228D01*
X036625Y032228D01*
X036635Y032235D02*
X026227Y032235D01*
X026227Y032394D02*
X036833Y032394D01*
X037017Y032540D02*
X037017Y032540D01*
X037048Y032553D02*
X026225Y032553D01*
X026159Y032711D02*
X037452Y032711D01*
X037982Y032761D02*
X037982Y032761D01*
X038199Y032711D02*
X039857Y032711D01*
X039857Y032553D02*
X038638Y032553D01*
X038470Y032649D02*
X038470Y032649D01*
X038904Y032399D02*
X038904Y032399D01*
X038909Y032394D02*
X039857Y032394D01*
X039857Y032235D02*
X039056Y032235D01*
X039203Y032077D02*
X039857Y032077D01*
X039857Y031918D02*
X039299Y031918D01*
X039245Y032032D02*
X039245Y032032D01*
X039376Y031760D02*
X039857Y031760D01*
X039857Y031601D02*
X039452Y031601D01*
X039483Y031443D02*
X039857Y031443D01*
X039857Y031284D02*
X039507Y031284D01*
X039531Y031126D02*
X039857Y031126D01*
X039857Y030967D02*
X039519Y030967D01*
X039495Y030809D02*
X039857Y030809D01*
X039857Y030650D02*
X039471Y030650D01*
X039414Y030491D02*
X039857Y030491D01*
X039857Y030333D02*
X039338Y030333D01*
X039262Y030174D02*
X039857Y030174D01*
X039857Y030016D02*
X039131Y030016D01*
X039245Y030139D02*
X039245Y030139D01*
X038983Y029857D02*
X039857Y029857D01*
X039857Y029699D02*
X038778Y029699D01*
X037414Y027638D02*
X037299Y027638D01*
X037299Y027479D02*
X037414Y027479D01*
X037414Y027321D02*
X037299Y027321D01*
X037299Y027004D02*
X037414Y027004D01*
X037414Y026845D02*
X037299Y026845D01*
X037299Y026686D02*
X037414Y026686D01*
X037990Y025735D02*
X039857Y025735D01*
X039857Y025577D02*
X038216Y025577D01*
X038314Y025418D02*
X039857Y025418D01*
X039857Y025260D02*
X038362Y025260D01*
X038362Y025101D02*
X039857Y025101D01*
X039857Y024942D02*
X038310Y024942D01*
X038206Y024784D02*
X039857Y024784D01*
X039857Y024625D02*
X037966Y024625D01*
X037246Y024467D02*
X039857Y024467D01*
X039857Y024308D02*
X037088Y024308D01*
X036929Y024150D02*
X039857Y024150D01*
X039857Y023991D02*
X036771Y023991D01*
X036612Y023833D02*
X039857Y023833D01*
X039857Y023674D02*
X036454Y023674D01*
X036295Y023516D02*
X039857Y023516D01*
X039857Y023357D02*
X036136Y023357D01*
X035978Y023199D02*
X039857Y023199D01*
X039857Y023040D02*
X035819Y023040D01*
X035661Y022881D02*
X039857Y022881D01*
X039857Y022723D02*
X035502Y022723D01*
X035344Y022564D02*
X039857Y022564D01*
X039857Y022406D02*
X035185Y022406D01*
X035027Y022247D02*
X039857Y022247D01*
X039857Y022089D02*
X034868Y022089D01*
X034710Y021930D02*
X039857Y021930D01*
X039857Y021772D02*
X034551Y021772D01*
X034392Y021613D02*
X039857Y021613D01*
X039857Y021455D02*
X034234Y021455D01*
X034075Y021296D02*
X039857Y021296D01*
X039857Y021137D02*
X033917Y021137D01*
X033758Y020979D02*
X039857Y020979D01*
X039857Y020820D02*
X033600Y020820D01*
X033441Y020662D02*
X039857Y020662D01*
X039857Y020503D02*
X033283Y020503D01*
X033124Y020345D02*
X039857Y020345D01*
X039857Y020186D02*
X032966Y020186D01*
X032807Y020028D02*
X039857Y020028D01*
X039857Y019869D02*
X032649Y019869D01*
X032475Y019711D02*
X039857Y019711D01*
X039857Y019552D02*
X028063Y019552D01*
X028215Y019711D02*
X031138Y019711D01*
X030981Y019869D02*
X028247Y019869D01*
X028247Y020028D02*
X030927Y020028D01*
X030933Y020186D02*
X028247Y020186D01*
X028247Y020345D02*
X031008Y020345D01*
X031242Y020503D02*
X028247Y020503D01*
X028247Y020662D02*
X032225Y020662D01*
X032384Y020820D02*
X028247Y020820D01*
X028288Y020979D02*
X032542Y020979D01*
X032701Y021137D02*
X028377Y021137D01*
X028387Y021296D02*
X032859Y021296D01*
X033018Y021455D02*
X028325Y021455D01*
X028088Y021613D02*
X033176Y021613D01*
X036442Y019021D02*
X036352Y018803D01*
X036352Y018567D01*
X036442Y018350D01*
X036609Y018183D01*
X036826Y018093D01*
X037887Y018093D01*
X038105Y018183D01*
X038271Y018350D01*
X038362Y018567D01*
X038362Y018803D01*
X038271Y019021D01*
X038105Y019188D01*
X037887Y019278D01*
X036826Y019278D01*
X036609Y019188D01*
X036442Y019021D01*
X036497Y019076D02*
X027587Y019076D01*
X027429Y018918D02*
X036399Y018918D01*
X036352Y018759D02*
X027270Y018759D01*
X027137Y018601D02*
X036352Y018601D01*
X036404Y018442D02*
X027109Y018442D01*
X026992Y018284D02*
X036508Y018284D01*
X036748Y018125D02*
X022356Y018125D01*
X022515Y017967D02*
X031151Y017967D01*
X031191Y018007D02*
X031085Y017901D01*
X031027Y017761D01*
X031027Y017610D01*
X031085Y017470D01*
X031191Y017363D01*
X031312Y017313D01*
X032220Y016406D01*
X032341Y016355D01*
X032472Y016355D01*
X036440Y016355D01*
X036442Y016350D01*
X036609Y016183D01*
X036826Y016093D01*
X037887Y016093D01*
X038105Y016183D01*
X038271Y016350D01*
X038362Y016567D01*
X038362Y016803D01*
X038271Y017021D01*
X038105Y017188D01*
X037887Y017278D01*
X036826Y017278D01*
X036609Y017188D01*
X036442Y017021D01*
X036440Y017015D01*
X032543Y017015D01*
X031779Y017780D01*
X031729Y017901D01*
X031622Y018007D01*
X031482Y018065D01*
X031331Y018065D01*
X031191Y018007D01*
X031046Y017808D02*
X022771Y017808D01*
X022871Y017649D02*
X031027Y017649D01*
X031076Y017491D02*
X029219Y017491D01*
X029204Y017506D02*
X029108Y017545D01*
X026058Y017545D01*
X025955Y017545D01*
X025859Y017506D01*
X025019Y016665D01*
X024931Y016665D01*
X024791Y016607D01*
X024685Y016501D01*
X024627Y016361D01*
X024627Y016210D01*
X024685Y016070D01*
X024791Y015963D01*
X024931Y015905D01*
X025082Y015905D01*
X025222Y015963D01*
X025329Y016070D01*
X025387Y016210D01*
X025387Y016298D01*
X026114Y017025D01*
X028977Y017025D01*
X031477Y014525D01*
X024404Y014525D01*
X024322Y014607D01*
X024182Y014665D01*
X024031Y014665D01*
X023891Y014607D01*
X023785Y014501D01*
X023727Y014361D01*
X023727Y014210D01*
X023762Y014125D01*
X023454Y014125D01*
X023372Y014207D01*
X023232Y014265D01*
X023081Y014265D01*
X022941Y014207D01*
X022835Y014101D01*
X022777Y013961D01*
X022777Y013810D01*
X022835Y013670D01*
X022941Y013563D01*
X023081Y013505D01*
X023232Y013505D01*
X023372Y013563D01*
X023454Y013645D01*
X027877Y013645D01*
X026197Y011965D01*
X026081Y011965D01*
X025941Y011907D01*
X025835Y011801D01*
X025777Y011661D01*
X025777Y011510D01*
X025795Y011465D01*
X020553Y011465D01*
X020499Y011488D01*
X020551Y011466D02*
X025795Y011466D01*
X025777Y011625D02*
X020636Y011625D01*
X020794Y011783D02*
X025827Y011783D01*
X026025Y011942D02*
X020953Y011942D01*
X021111Y012100D02*
X026332Y012100D01*
X026491Y012259D02*
X021270Y012259D01*
X021428Y012418D02*
X026650Y012418D01*
X026808Y012576D02*
X021587Y012576D01*
X021745Y012735D02*
X026967Y012735D01*
X027125Y012893D02*
X021878Y012893D01*
X021897Y013052D02*
X027284Y013052D01*
X027442Y013210D02*
X021897Y013210D01*
X021897Y013369D02*
X027601Y013369D01*
X027759Y013527D02*
X023285Y013527D01*
X023028Y013527D02*
X021897Y013527D01*
X021897Y013686D02*
X022828Y013686D01*
X022777Y013844D02*
X021897Y013844D01*
X021888Y014003D02*
X022794Y014003D01*
X022895Y014162D02*
X021797Y014162D01*
X021797Y014320D02*
X023727Y014320D01*
X023747Y014162D02*
X023418Y014162D01*
X023775Y014479D02*
X021797Y014479D01*
X021797Y014637D02*
X023963Y014637D01*
X024250Y014637D02*
X027704Y014637D01*
X027641Y014663D02*
X027781Y014605D01*
X027932Y014605D01*
X028072Y014663D01*
X028179Y014770D01*
X028237Y014910D01*
X028237Y015061D01*
X028179Y015201D01*
X028072Y015307D01*
X027932Y015365D01*
X027816Y015365D01*
X027743Y015439D01*
X027654Y015475D01*
X027559Y015475D01*
X025654Y015475D01*
X025572Y015557D01*
X025432Y015615D01*
X025281Y015615D01*
X025141Y015557D01*
X025035Y015451D01*
X024977Y015311D01*
X024977Y015160D01*
X025035Y015020D01*
X025141Y014913D01*
X025281Y014855D01*
X025432Y014855D01*
X025572Y014913D01*
X025654Y014995D01*
X027477Y014995D01*
X027477Y014910D01*
X027535Y014770D01*
X027641Y014663D01*
X027524Y014796D02*
X021910Y014796D01*
X021937Y014954D02*
X025100Y014954D01*
X024996Y015113D02*
X021894Y015113D01*
X021738Y015271D02*
X024977Y015271D01*
X025026Y015430D02*
X021841Y015430D01*
X021999Y015588D02*
X025216Y015588D01*
X025497Y015588D02*
X030414Y015588D01*
X030573Y015430D02*
X027752Y015430D01*
X028108Y015271D02*
X030731Y015271D01*
X030890Y015113D02*
X028215Y015113D01*
X028237Y014954D02*
X031048Y014954D01*
X031207Y014796D02*
X028189Y014796D01*
X028009Y014637D02*
X031365Y014637D01*
X031876Y014805D02*
X034734Y014805D01*
X034777Y014787D01*
X034936Y014787D01*
X035082Y014848D01*
X035194Y014960D01*
X035255Y015106D01*
X035255Y015265D01*
X035194Y015411D01*
X035082Y015523D01*
X034936Y015583D01*
X034777Y015583D01*
X034734Y015565D01*
X032014Y015565D01*
X030712Y016867D01*
X030694Y016911D01*
X030582Y017023D01*
X030436Y017083D01*
X030277Y017083D01*
X030131Y017023D01*
X030019Y016911D01*
X029959Y016765D01*
X029959Y016723D01*
X029297Y017384D01*
X029277Y017433D01*
X029204Y017506D01*
X029349Y017332D02*
X031266Y017332D01*
X031451Y017174D02*
X029508Y017174D01*
X029666Y017015D02*
X030124Y017015D01*
X029997Y016857D02*
X029825Y016857D01*
X029463Y016540D02*
X025629Y016540D01*
X025787Y016698D02*
X029304Y016698D01*
X029146Y016857D02*
X025946Y016857D01*
X026104Y017015D02*
X028987Y017015D01*
X029057Y017285D02*
X026007Y017285D01*
X025007Y016285D01*
X024724Y016540D02*
X022247Y016540D01*
X022247Y016698D02*
X025052Y016698D01*
X025210Y016857D02*
X022247Y016857D01*
X022247Y017015D02*
X025369Y017015D01*
X025528Y017174D02*
X022627Y017174D01*
X022386Y017174D02*
X022247Y017174D01*
X022834Y017332D02*
X025686Y017332D01*
X025845Y017491D02*
X022887Y017491D01*
X022053Y018442D02*
X026405Y018442D01*
X026377Y018601D02*
X022211Y018601D01*
X022370Y018759D02*
X026417Y018759D01*
X026566Y018918D02*
X022529Y018918D01*
X022687Y019076D02*
X026908Y019076D01*
X027067Y019235D02*
X022846Y019235D01*
X023004Y019393D02*
X027225Y019393D01*
X027384Y019552D02*
X023163Y019552D01*
X023321Y019711D02*
X027542Y019711D01*
X027904Y019393D02*
X039857Y019393D01*
X039857Y019235D02*
X037991Y019235D01*
X038216Y019076D02*
X039857Y019076D01*
X039857Y018918D02*
X038314Y018918D01*
X038362Y018759D02*
X039857Y018759D01*
X039857Y018601D02*
X038362Y018601D01*
X038310Y018442D02*
X039857Y018442D01*
X039857Y018284D02*
X038205Y018284D01*
X037965Y018125D02*
X039857Y018125D01*
X039857Y017967D02*
X031663Y017967D01*
X031767Y017808D02*
X039857Y017808D01*
X039857Y017649D02*
X031909Y017649D01*
X032068Y017491D02*
X039857Y017491D01*
X039857Y017332D02*
X032226Y017332D01*
X032385Y017174D02*
X036595Y017174D01*
X036440Y017015D02*
X032543Y017015D01*
X032086Y016540D02*
X031040Y016540D01*
X030881Y016698D02*
X031927Y016698D01*
X031769Y016857D02*
X030723Y016857D01*
X030590Y017015D02*
X031610Y017015D01*
X031198Y016381D02*
X032279Y016381D01*
X031674Y015906D02*
X039857Y015906D01*
X039857Y016064D02*
X031515Y016064D01*
X031357Y016223D02*
X036569Y016223D01*
X035252Y015271D02*
X039857Y015271D01*
X039857Y015113D02*
X035255Y015113D01*
X035189Y014954D02*
X039857Y014954D01*
X039857Y014796D02*
X034956Y014796D01*
X034757Y014796D02*
X031886Y014796D01*
X031876Y014805D02*
X035343Y011339D01*
X035410Y011271D01*
X035447Y011183D01*
X035447Y003783D01*
X035529Y003701D01*
X035551Y003646D01*
X036177Y004272D01*
X036177Y007320D01*
X036177Y007451D01*
X036227Y007572D01*
X036748Y008093D01*
X036692Y008150D01*
X036602Y008367D01*
X036602Y008603D01*
X036692Y008821D01*
X036859Y008988D01*
X037076Y009078D01*
X038137Y009078D01*
X038355Y008988D01*
X038521Y008821D01*
X038612Y008603D01*
X038612Y008367D01*
X038521Y008150D01*
X038355Y007983D01*
X038137Y007893D01*
X037481Y007893D01*
X036837Y007249D01*
X036837Y006966D01*
X036859Y006988D01*
X037076Y007078D01*
X038137Y007078D01*
X038355Y006988D01*
X038521Y006821D01*
X038612Y006603D01*
X038612Y006367D01*
X038521Y006150D01*
X038355Y005983D01*
X038137Y005893D01*
X037076Y005893D01*
X036859Y005983D01*
X036837Y006005D01*
X036837Y004070D01*
X036786Y003948D01*
X036694Y003856D01*
X036836Y003856D01*
X036694Y003856D02*
X034644Y001806D01*
X034522Y001755D01*
X034391Y001755D01*
X030141Y001755D01*
X030020Y001806D01*
X029927Y001898D01*
X028920Y002905D01*
X020453Y002905D01*
X020448Y002903D01*
X020487Y002811D01*
X020487Y002660D01*
X020429Y002520D01*
X020347Y002438D01*
X020347Y001233D01*
X020429Y001151D01*
X020487Y001011D01*
X020487Y000860D01*
X020429Y000720D01*
X020480Y000844D02*
X039857Y000844D01*
X039857Y001002D02*
X038437Y001002D01*
X038520Y001021D02*
X038032Y000910D01*
X038032Y000910D01*
X037533Y000947D01*
X037533Y000948D01*
X037067Y001130D01*
X036675Y001443D01*
X036675Y001443D01*
X036393Y001856D01*
X036245Y002335D01*
X036245Y002335D01*
X036245Y002836D01*
X036245Y002836D01*
X036393Y003314D01*
X036393Y003314D01*
X036675Y003728D01*
X036675Y003728D01*
X037067Y004040D01*
X037067Y004040D01*
X037533Y004223D01*
X037533Y004223D01*
X038032Y004261D01*
X038032Y004261D01*
X038520Y004149D01*
X038520Y004149D01*
X038954Y003899D01*
X038954Y003899D01*
X039295Y003532D01*
X039295Y003532D01*
X039512Y003081D01*
X039512Y003080D01*
X039587Y002585D01*
X039512Y002090D01*
X039512Y002090D01*
X039295Y001639D01*
X039295Y001639D01*
X038954Y001272D01*
X038954Y001272D01*
X038520Y001021D01*
X038520Y001021D01*
X038762Y001161D02*
X039857Y001161D01*
X039857Y001320D02*
X038998Y001320D01*
X039145Y001478D02*
X039857Y001478D01*
X039857Y001637D02*
X039293Y001637D01*
X039370Y001795D02*
X039857Y001795D01*
X039857Y001954D02*
X039446Y001954D01*
X039515Y002112D02*
X039857Y002112D01*
X039857Y002271D02*
X039539Y002271D01*
X039563Y002429D02*
X039857Y002429D01*
X039857Y002588D02*
X039586Y002588D01*
X039562Y002746D02*
X039857Y002746D01*
X039857Y002905D02*
X039539Y002905D01*
X039515Y003064D02*
X039857Y003064D01*
X039857Y003222D02*
X039444Y003222D01*
X039368Y003381D02*
X039857Y003381D01*
X039857Y003539D02*
X039288Y003539D01*
X039141Y003698D02*
X039857Y003698D01*
X039857Y003856D02*
X038994Y003856D01*
X038753Y004015D02*
X039857Y004015D01*
X039857Y004173D02*
X038415Y004173D01*
X037406Y004173D02*
X036837Y004173D01*
X036837Y004332D02*
X039857Y004332D01*
X039857Y004490D02*
X036837Y004490D01*
X036837Y004649D02*
X039857Y004649D01*
X039857Y004807D02*
X036837Y004807D01*
X036837Y004966D02*
X039857Y004966D01*
X039857Y005125D02*
X036837Y005125D01*
X036837Y005283D02*
X039857Y005283D01*
X039857Y005442D02*
X036837Y005442D01*
X036837Y005600D02*
X039857Y005600D01*
X039857Y005759D02*
X036837Y005759D01*
X036837Y005917D02*
X037017Y005917D01*
X036177Y005917D02*
X035447Y005917D01*
X035447Y005759D02*
X036177Y005759D01*
X036177Y005600D02*
X035447Y005600D01*
X035447Y005442D02*
X036177Y005442D01*
X036177Y005283D02*
X035447Y005283D01*
X035447Y005125D02*
X036177Y005125D01*
X036177Y004966D02*
X035447Y004966D01*
X035447Y004807D02*
X036177Y004807D01*
X036177Y004649D02*
X035447Y004649D01*
X035447Y004490D02*
X036177Y004490D01*
X036177Y004332D02*
X035447Y004332D01*
X035447Y004173D02*
X036078Y004173D01*
X035919Y004015D02*
X035447Y004015D01*
X035447Y003856D02*
X035761Y003856D01*
X035602Y003698D02*
X035530Y003698D01*
X036060Y003222D02*
X036365Y003222D01*
X036316Y003064D02*
X035901Y003064D01*
X035743Y002905D02*
X036267Y002905D01*
X036245Y002746D02*
X035584Y002746D01*
X035426Y002588D02*
X036245Y002588D01*
X036245Y002429D02*
X035267Y002429D01*
X035109Y002271D02*
X036265Y002271D01*
X036314Y002112D02*
X034950Y002112D01*
X034792Y001954D02*
X036363Y001954D01*
X036435Y001795D02*
X034618Y001795D01*
X036543Y001637D02*
X020347Y001637D01*
X020347Y001795D02*
X030045Y001795D01*
X029872Y001954D02*
X020347Y001954D01*
X020347Y002112D02*
X029713Y002112D01*
X029555Y002271D02*
X020347Y002271D01*
X020347Y002429D02*
X029396Y002429D01*
X029237Y002588D02*
X020457Y002588D01*
X020487Y002746D02*
X029079Y002746D01*
X028920Y002905D02*
X020452Y002905D01*
X019906Y003381D02*
X015493Y003381D01*
X019819Y000685D02*
X000357Y000685D01*
X002533Y000997D02*
X002533Y000997D01*
X007395Y001795D02*
X007818Y001795D01*
X007908Y001705D02*
X008305Y001705D01*
X008587Y001987D01*
X008587Y002384D01*
X008305Y002665D01*
X007908Y002665D01*
X007627Y002384D01*
X007627Y001987D01*
X007908Y001705D01*
X007660Y001954D02*
X007554Y001954D01*
X007587Y002112D02*
X007627Y002112D01*
X007627Y002271D02*
X007587Y002271D01*
X007541Y002429D02*
X007672Y002429D01*
X007830Y002588D02*
X007383Y002588D01*
X007347Y002746D02*
X007867Y002746D01*
X007908Y002705D02*
X008305Y002705D01*
X008587Y002987D01*
X008587Y003384D01*
X008305Y003665D01*
X007908Y003665D01*
X007627Y003384D01*
X007627Y002987D01*
X007908Y002705D01*
X007708Y002905D02*
X007505Y002905D01*
X007587Y003064D02*
X007627Y003064D01*
X007627Y003222D02*
X007587Y003222D01*
X007587Y003381D02*
X007627Y003381D01*
X007782Y003539D02*
X007432Y003539D01*
X008347Y002746D02*
X008867Y002746D01*
X008830Y002588D02*
X008383Y002588D01*
X008541Y002429D02*
X008672Y002429D01*
X008627Y002271D02*
X008587Y002271D01*
X008587Y002112D02*
X008627Y002112D01*
X008660Y001954D02*
X008554Y001954D01*
X008395Y001795D02*
X008818Y001795D01*
X008708Y002905D02*
X008505Y002905D01*
X008587Y003064D02*
X008627Y003064D01*
X008627Y003222D02*
X008587Y003222D01*
X008587Y003381D02*
X008627Y003381D01*
X008782Y003539D02*
X008432Y003539D01*
X012407Y010235D02*
X013407Y010235D01*
X014857Y011685D01*
X018857Y011685D01*
X020857Y013685D01*
X021157Y013685D01*
X021257Y013785D01*
X022158Y015747D02*
X030256Y015747D01*
X030097Y015906D02*
X025083Y015906D01*
X024931Y015906D02*
X022247Y015906D01*
X022247Y016064D02*
X024691Y016064D01*
X024627Y016223D02*
X022247Y016223D01*
X022247Y016381D02*
X024635Y016381D01*
X025323Y016064D02*
X029939Y016064D01*
X029780Y016223D02*
X025387Y016223D01*
X025470Y016381D02*
X029621Y016381D01*
X027477Y014954D02*
X025613Y014954D01*
X026521Y018284D02*
X021894Y018284D01*
X023047Y021296D02*
X024228Y021296D01*
X023050Y021455D02*
X023047Y021455D01*
X027746Y019235D02*
X036723Y019235D01*
X038119Y017174D02*
X039857Y017174D01*
X039857Y017015D02*
X038274Y017015D01*
X038340Y016857D02*
X039857Y016857D01*
X039857Y016698D02*
X038362Y016698D01*
X038350Y016540D02*
X039857Y016540D01*
X039857Y016381D02*
X038284Y016381D01*
X038144Y016223D02*
X039857Y016223D01*
X039857Y015747D02*
X031832Y015747D01*
X031991Y015588D02*
X039857Y015588D01*
X039857Y015430D02*
X035175Y015430D01*
X033154Y013527D02*
X039857Y013527D01*
X039857Y013369D02*
X033313Y013369D01*
X033471Y013210D02*
X039857Y013210D01*
X039857Y013052D02*
X038200Y013052D01*
X038137Y013078D02*
X037076Y013078D01*
X036859Y012988D01*
X036692Y012821D01*
X036602Y012603D01*
X036602Y012367D01*
X036692Y012150D01*
X036859Y011983D01*
X037076Y011893D01*
X038137Y011893D01*
X038355Y011983D01*
X038521Y012150D01*
X038612Y012367D01*
X038612Y012603D01*
X038521Y012821D01*
X038355Y012988D01*
X038137Y013078D01*
X038449Y012893D02*
X039857Y012893D01*
X039857Y012735D02*
X038557Y012735D01*
X038612Y012576D02*
X039857Y012576D01*
X039857Y012418D02*
X038612Y012418D01*
X038567Y012259D02*
X039857Y012259D01*
X039857Y012100D02*
X038472Y012100D01*
X038256Y011942D02*
X039857Y011942D01*
X039857Y011783D02*
X034898Y011783D01*
X035057Y011625D02*
X039857Y011625D01*
X039857Y011466D02*
X035215Y011466D01*
X035374Y011308D02*
X039857Y011308D01*
X039857Y011149D02*
X035447Y011149D01*
X035447Y010991D02*
X036866Y010991D01*
X036859Y010988D02*
X036692Y010821D01*
X036602Y010603D01*
X036602Y010367D01*
X036692Y010150D01*
X036859Y009983D01*
X037076Y009893D01*
X038137Y009893D01*
X038355Y009983D01*
X038521Y010150D01*
X038612Y010367D01*
X038612Y010603D01*
X038521Y010821D01*
X038355Y010988D01*
X038137Y011078D01*
X037076Y011078D01*
X036859Y010988D01*
X036703Y010832D02*
X035447Y010832D01*
X035447Y010674D02*
X036631Y010674D01*
X036602Y010515D02*
X035447Y010515D01*
X035447Y010356D02*
X036606Y010356D01*
X036672Y010198D02*
X035447Y010198D01*
X035447Y010039D02*
X036802Y010039D01*
X036800Y008930D02*
X035447Y008930D01*
X035447Y009088D02*
X039857Y009088D01*
X039857Y008930D02*
X038413Y008930D01*
X038542Y008771D02*
X039857Y008771D01*
X039857Y008613D02*
X038608Y008613D01*
X038612Y008454D02*
X039857Y008454D01*
X039857Y008295D02*
X038582Y008295D01*
X038509Y008137D02*
X039857Y008137D01*
X039857Y007978D02*
X038344Y007978D01*
X037408Y007820D02*
X039857Y007820D01*
X039857Y007661D02*
X037249Y007661D01*
X037091Y007503D02*
X039857Y007503D01*
X039857Y007344D02*
X036932Y007344D01*
X036837Y007186D02*
X039857Y007186D01*
X039857Y007027D02*
X038260Y007027D01*
X038474Y006869D02*
X039857Y006869D01*
X039857Y006710D02*
X038567Y006710D01*
X038612Y006551D02*
X039857Y006551D01*
X039857Y006393D02*
X038612Y006393D01*
X038557Y006234D02*
X039857Y006234D01*
X039857Y006076D02*
X038448Y006076D01*
X038196Y005917D02*
X039857Y005917D01*
X036954Y007027D02*
X036837Y007027D01*
X036177Y007027D02*
X035447Y007027D01*
X035447Y006869D02*
X036177Y006869D01*
X036177Y006710D02*
X035447Y006710D01*
X035447Y006551D02*
X036177Y006551D01*
X036177Y006393D02*
X035447Y006393D01*
X035447Y006234D02*
X036177Y006234D01*
X036177Y006076D02*
X035447Y006076D01*
X035447Y007186D02*
X036177Y007186D01*
X036177Y007344D02*
X035447Y007344D01*
X035447Y007503D02*
X036198Y007503D01*
X036316Y007661D02*
X035447Y007661D01*
X035447Y007820D02*
X036475Y007820D01*
X036633Y007978D02*
X035447Y007978D01*
X035447Y008137D02*
X036705Y008137D01*
X036631Y008295D02*
X035447Y008295D01*
X035447Y008454D02*
X036602Y008454D01*
X036606Y008613D02*
X035447Y008613D01*
X035447Y008771D02*
X036671Y008771D01*
X035447Y009247D02*
X039857Y009247D01*
X039857Y009405D02*
X035447Y009405D01*
X035447Y009564D02*
X039857Y009564D01*
X039857Y009722D02*
X035447Y009722D01*
X035447Y009881D02*
X039857Y009881D01*
X039857Y010039D02*
X038411Y010039D01*
X038541Y010198D02*
X039857Y010198D01*
X039857Y010356D02*
X038607Y010356D01*
X038612Y010515D02*
X039857Y010515D01*
X039857Y010674D02*
X038583Y010674D01*
X038510Y010832D02*
X039857Y010832D01*
X039857Y010991D02*
X038348Y010991D01*
X036958Y011942D02*
X034739Y011942D01*
X034581Y012100D02*
X036741Y012100D01*
X036647Y012259D02*
X034422Y012259D01*
X034264Y012418D02*
X036602Y012418D01*
X036602Y012576D02*
X034105Y012576D01*
X033947Y012735D02*
X036656Y012735D01*
X036764Y012893D02*
X033788Y012893D01*
X033630Y013052D02*
X037013Y013052D01*
X039857Y013686D02*
X032996Y013686D01*
X032837Y013844D02*
X039857Y013844D01*
X039857Y014003D02*
X032678Y014003D01*
X032520Y014162D02*
X039857Y014162D01*
X039857Y014320D02*
X032361Y014320D01*
X032203Y014479D02*
X039857Y014479D01*
X039857Y014637D02*
X032044Y014637D01*
X033367Y011390D02*
X033367Y010385D01*
X030159Y007177D01*
X030129Y007251D01*
X030101Y007279D01*
X030317Y007495D01*
X030317Y007685D01*
X029857Y007685D01*
X029857Y007686D01*
X029856Y007686D01*
X029856Y008145D01*
X029666Y008145D01*
X029647Y008126D01*
X029647Y009136D01*
X029736Y009225D01*
X030047Y009225D01*
X030317Y009495D01*
X030317Y009876D01*
X030047Y010145D01*
X029666Y010145D01*
X029397Y009876D01*
X029397Y009565D01*
X029203Y009371D01*
X029167Y009283D01*
X029167Y009188D01*
X029167Y009026D01*
X029047Y009145D01*
X028666Y009145D01*
X028397Y008876D01*
X028397Y008565D01*
X027807Y007975D01*
X026806Y007975D01*
X026443Y008339D01*
X026354Y008375D01*
X026259Y008375D01*
X025604Y008375D01*
X025522Y008457D01*
X025382Y008515D01*
X025231Y008515D01*
X025097Y008460D01*
X025097Y008640D01*
X025181Y008605D01*
X025297Y008605D01*
X025321Y008582D01*
X025409Y008545D01*
X025504Y008545D01*
X026662Y008545D01*
X026627Y008461D01*
X026627Y008310D01*
X026685Y008170D01*
X026791Y008063D01*
X026931Y008005D01*
X027082Y008005D01*
X027222Y008063D01*
X027304Y008145D01*
X027404Y008145D01*
X027493Y008182D01*
X027560Y008249D01*
X027560Y008249D01*
X029216Y009905D01*
X029332Y009905D01*
X029472Y009963D01*
X029579Y010070D01*
X029637Y010210D01*
X029637Y010361D01*
X029618Y010405D01*
X031549Y010405D01*
X031591Y010363D01*
X031731Y010305D01*
X031882Y010305D01*
X032022Y010363D01*
X032129Y010470D01*
X032187Y010610D01*
X032187Y010761D01*
X032168Y010805D01*
X032541Y010805D01*
X032672Y010805D01*
X032794Y010856D01*
X033301Y011363D01*
X033367Y011390D01*
X033367Y011308D02*
X033246Y011308D01*
X033367Y011149D02*
X033087Y011149D01*
X032929Y010991D02*
X033367Y010991D01*
X033367Y010832D02*
X032737Y010832D01*
X032187Y010674D02*
X033367Y010674D01*
X033367Y010515D02*
X032147Y010515D01*
X032006Y010356D02*
X033338Y010356D01*
X033180Y010198D02*
X029632Y010198D01*
X029637Y010356D02*
X031608Y010356D01*
X032546Y009564D02*
X030317Y009564D01*
X030317Y009722D02*
X032704Y009722D01*
X032863Y009881D02*
X030312Y009881D01*
X030153Y010039D02*
X033021Y010039D01*
X032387Y009405D02*
X030227Y009405D01*
X030069Y009247D02*
X032229Y009247D01*
X032070Y009088D02*
X029647Y009088D01*
X029647Y008930D02*
X031912Y008930D01*
X031753Y008771D02*
X029647Y008771D01*
X029647Y008613D02*
X031594Y008613D01*
X031436Y008454D02*
X029647Y008454D01*
X029647Y008295D02*
X031277Y008295D01*
X031119Y008137D02*
X030056Y008137D01*
X030047Y008145D02*
X029857Y008145D01*
X029857Y007686D01*
X030317Y007686D01*
X030317Y007876D01*
X030047Y008145D01*
X029857Y008137D02*
X029856Y008137D01*
X029856Y007978D02*
X029857Y007978D01*
X029856Y007820D02*
X029857Y007820D01*
X029658Y008137D02*
X029647Y008137D01*
X030214Y007978D02*
X030960Y007978D01*
X030802Y007820D02*
X030317Y007820D01*
X030317Y007661D02*
X030643Y007661D01*
X030485Y007503D02*
X030317Y007503D01*
X030326Y007344D02*
X030166Y007344D01*
X030156Y007186D02*
X030168Y007186D01*
X028286Y008454D02*
X027765Y008454D01*
X027923Y008613D02*
X028397Y008613D01*
X028397Y008771D02*
X028082Y008771D01*
X028240Y008930D02*
X028450Y008930D01*
X028399Y009088D02*
X028609Y009088D01*
X028557Y009247D02*
X029167Y009247D01*
X029167Y009088D02*
X029104Y009088D01*
X029237Y009405D02*
X028716Y009405D01*
X028874Y009564D02*
X029396Y009564D01*
X029397Y009722D02*
X029033Y009722D01*
X029192Y009881D02*
X029402Y009881D01*
X029548Y010039D02*
X029560Y010039D01*
X028127Y008295D02*
X027606Y008295D01*
X027296Y008137D02*
X027969Y008137D01*
X027810Y007978D02*
X026803Y007978D01*
X026718Y008137D02*
X026645Y008137D01*
X026633Y008295D02*
X026486Y008295D01*
X026627Y008454D02*
X025525Y008454D01*
X025164Y008613D02*
X025097Y008613D01*
X023957Y005185D02*
X022857Y005185D01*
X020357Y007685D01*
X020357Y008185D01*
X019357Y008185D01*
X020767Y005283D02*
X022391Y005283D01*
X022550Y005125D02*
X020864Y005125D01*
X020887Y004966D02*
X022708Y004966D01*
X023957Y005185D02*
X024407Y004735D01*
X024031Y004649D02*
X020728Y004649D01*
X020848Y004807D02*
X023967Y004807D01*
X020347Y001478D02*
X036651Y001478D01*
X036830Y001320D02*
X020347Y001320D01*
X020418Y001161D02*
X037028Y001161D01*
X037393Y001002D02*
X020487Y001002D01*
X007529Y010674D02*
X000357Y010674D01*
X000357Y010832D02*
X007370Y010832D01*
X007212Y010991D02*
X000357Y010991D01*
X000357Y011149D02*
X007053Y011149D01*
X006895Y011308D02*
X000357Y011308D01*
X000357Y011466D02*
X006736Y011466D01*
X006578Y011625D02*
X000357Y011625D01*
X000357Y011783D02*
X006419Y011783D01*
X006261Y011942D02*
X000357Y011942D01*
X000357Y012100D02*
X001680Y012100D01*
X001510Y012259D02*
X000357Y012259D01*
X000357Y012418D02*
X001444Y012418D01*
X001437Y012576D02*
X000357Y012576D01*
X000357Y012735D02*
X001478Y012735D01*
X001587Y012893D02*
X000357Y012893D01*
X000357Y013052D02*
X001798Y013052D01*
X001555Y013210D02*
X000357Y013210D01*
X000357Y013369D02*
X001464Y013369D01*
X001437Y013527D02*
X000357Y013527D01*
X000357Y013686D02*
X001458Y013686D01*
X001539Y013844D02*
X000357Y013844D01*
X000357Y014003D02*
X001759Y014003D01*
X001603Y014162D02*
X000357Y014162D01*
X000357Y014320D02*
X001485Y014320D01*
X001437Y014479D02*
X000357Y014479D01*
X000357Y014637D02*
X001438Y014637D01*
X001503Y014796D02*
X000357Y014796D01*
X000357Y014954D02*
X001649Y014954D01*
X001652Y015113D02*
X000357Y015113D01*
X000357Y015271D02*
X001505Y015271D01*
X001439Y015430D02*
X000357Y015430D01*
X000357Y015588D02*
X001437Y015588D01*
X001483Y015747D02*
X000357Y015747D01*
X000357Y015906D02*
X001600Y015906D01*
X001653Y016111D02*
X001513Y016252D01*
X001437Y016436D01*
X001437Y016515D01*
X002236Y016515D01*
X002236Y016555D01*
X001437Y016555D01*
X001437Y016635D01*
X001513Y016819D01*
X001653Y016959D01*
X001837Y017035D01*
X002237Y017035D01*
X002237Y016556D01*
X002277Y016556D01*
X002277Y017035D01*
X002676Y017035D01*
X002860Y016959D01*
X003001Y016819D01*
X003077Y016635D01*
X003077Y016555D01*
X002277Y016555D01*
X002277Y016515D01*
X003077Y016515D01*
X003077Y016436D01*
X003001Y016252D01*
X002860Y016111D01*
X002676Y016035D01*
X002277Y016035D01*
X002277Y016515D01*
X002237Y016515D01*
X002237Y016035D01*
X001837Y016035D01*
X001653Y016111D01*
X001768Y016064D02*
X000357Y016064D01*
X000357Y016223D02*
X001542Y016223D01*
X001459Y016381D02*
X000357Y016381D01*
X000357Y016540D02*
X002236Y016540D01*
X002277Y016540D02*
X005767Y016540D01*
X005767Y016698D02*
X003050Y016698D01*
X002962Y016857D02*
X005767Y016857D01*
X005767Y017015D02*
X002724Y017015D01*
X002676Y017035D02*
X002860Y017111D01*
X003001Y017252D01*
X003077Y017436D01*
X003077Y017515D01*
X002277Y017515D01*
X002277Y017555D01*
X003077Y017555D01*
X003077Y017635D01*
X003001Y017819D01*
X002860Y017959D01*
X002676Y018035D01*
X002277Y018035D01*
X002277Y017556D01*
X002237Y017556D01*
X002237Y018035D01*
X001837Y018035D01*
X001653Y017959D01*
X001513Y017819D01*
X001437Y017635D01*
X001437Y017555D01*
X002236Y017555D01*
X002236Y017515D01*
X001437Y017515D01*
X001437Y017436D01*
X001513Y017252D01*
X001653Y017111D01*
X001837Y017035D01*
X002237Y017035D01*
X002237Y017515D01*
X002277Y017515D01*
X002277Y017035D01*
X002676Y017035D01*
X002922Y017174D02*
X005767Y017174D01*
X005767Y017332D02*
X003034Y017332D01*
X003077Y017491D02*
X005767Y017491D01*
X005767Y017649D02*
X003071Y017649D01*
X003005Y017808D02*
X005767Y017808D01*
X005767Y017967D02*
X002842Y017967D01*
X002277Y017967D02*
X002237Y017967D01*
X002237Y017808D02*
X002277Y017808D01*
X002277Y017649D02*
X002237Y017649D01*
X002237Y017491D02*
X002277Y017491D01*
X002277Y017332D02*
X002237Y017332D01*
X002237Y017174D02*
X002277Y017174D01*
X002277Y017015D02*
X002237Y017015D01*
X002237Y016857D02*
X002277Y016857D01*
X002277Y016698D02*
X002237Y016698D01*
X002237Y016381D02*
X002277Y016381D01*
X002277Y016223D02*
X002237Y016223D01*
X002237Y016064D02*
X002277Y016064D01*
X002745Y016064D02*
X005646Y016064D01*
X005627Y016223D02*
X002971Y016223D01*
X003054Y016381D02*
X005676Y016381D01*
X006247Y016540D02*
X007117Y016540D01*
X007117Y016698D02*
X006247Y016698D01*
X006247Y016857D02*
X007117Y016857D01*
X007117Y017015D02*
X006247Y017015D01*
X006247Y017174D02*
X007117Y017174D01*
X007117Y017332D02*
X006247Y017332D01*
X006247Y017491D02*
X007117Y017491D01*
X007117Y017649D02*
X006247Y017649D01*
X006247Y017808D02*
X007117Y017808D01*
X007117Y017967D02*
X006247Y017967D01*
X006247Y018125D02*
X007117Y018125D01*
X007117Y018284D02*
X006247Y018284D01*
X006247Y018442D02*
X007117Y018442D01*
X007117Y018601D02*
X006247Y018601D01*
X006247Y018759D02*
X007117Y018759D01*
X007117Y018918D02*
X006247Y018918D01*
X006247Y019076D02*
X007117Y019076D01*
X005767Y019076D02*
X000357Y019076D01*
X000357Y018918D02*
X005767Y018918D01*
X005767Y018759D02*
X000357Y018759D01*
X000357Y018601D02*
X005767Y018601D01*
X005767Y018442D02*
X000357Y018442D01*
X000357Y018284D02*
X005767Y018284D01*
X005767Y018125D02*
X000357Y018125D01*
X000357Y017967D02*
X001671Y017967D01*
X001508Y017808D02*
X000357Y017808D01*
X000357Y017649D02*
X001443Y017649D01*
X001437Y017491D02*
X000357Y017491D01*
X000357Y017332D02*
X001480Y017332D01*
X001591Y017174D02*
X000357Y017174D01*
X000357Y017015D02*
X001789Y017015D01*
X001551Y016857D02*
X000357Y016857D01*
X000357Y016698D02*
X001463Y016698D01*
X002914Y015906D02*
X005749Y015906D01*
X006264Y015906D02*
X007117Y015906D01*
X007117Y016064D02*
X006368Y016064D01*
X006387Y016223D02*
X007117Y016223D01*
X007117Y016381D02*
X006337Y016381D01*
X007117Y015747D02*
X003123Y015747D01*
X003293Y015588D02*
X007117Y015588D01*
X007117Y015430D02*
X003452Y015430D01*
X003610Y015271D02*
X007117Y015271D01*
X007117Y015113D02*
X003769Y015113D01*
X003927Y014954D02*
X007117Y014954D01*
X007117Y014796D02*
X004086Y014796D01*
X004244Y014637D02*
X007117Y014637D01*
X007117Y014479D02*
X004403Y014479D01*
X004561Y014320D02*
X007117Y014320D01*
X007117Y014162D02*
X004720Y014162D01*
X004878Y014003D02*
X007117Y014003D01*
X007117Y013844D02*
X005037Y013844D01*
X005196Y013686D02*
X007117Y013686D01*
X007117Y013527D02*
X005354Y013527D01*
X005513Y013369D02*
X007117Y013369D01*
X007117Y013210D02*
X005671Y013210D01*
X005830Y013052D02*
X007117Y013052D01*
X007117Y012893D02*
X005988Y012893D01*
X006147Y012735D02*
X007117Y012735D01*
X007117Y012576D02*
X006305Y012576D01*
X006464Y012418D02*
X007117Y012418D01*
X007117Y012259D02*
X006622Y012259D01*
X006781Y012100D02*
X007117Y012100D01*
X007117Y011942D02*
X006939Y011942D01*
X007098Y011783D02*
X007117Y011783D01*
X006102Y012100D02*
X002833Y012100D01*
X003003Y012259D02*
X005944Y012259D01*
X005785Y012418D02*
X003069Y012418D01*
X003077Y012576D02*
X005626Y012576D01*
X005468Y012735D02*
X003035Y012735D01*
X002926Y012893D02*
X005309Y012893D01*
X005151Y013052D02*
X002716Y013052D01*
X002959Y013210D02*
X004992Y013210D01*
X004834Y013369D02*
X003049Y013369D01*
X003077Y013527D02*
X004675Y013527D01*
X004517Y013686D02*
X003056Y013686D01*
X002975Y013844D02*
X004358Y013844D01*
X004200Y014003D02*
X002754Y014003D01*
X002910Y014162D02*
X004041Y014162D01*
X003883Y014320D02*
X003029Y014320D01*
X003077Y014479D02*
X003724Y014479D01*
X003565Y014637D02*
X003076Y014637D01*
X003010Y014796D02*
X003407Y014796D01*
X003248Y014954D02*
X002865Y014954D01*
X002861Y015113D02*
X003090Y015113D01*
X005767Y019235D02*
X000357Y019235D01*
X000357Y019393D02*
X005767Y019393D01*
X005767Y019552D02*
X000357Y019552D01*
X000357Y019711D02*
X005767Y019711D01*
X005767Y019869D02*
X000357Y019869D01*
X000357Y020028D02*
X005767Y020028D01*
X005767Y020186D02*
X000357Y020186D01*
X000357Y020345D02*
X005767Y020345D01*
X005767Y020503D02*
X000357Y020503D01*
X000357Y020662D02*
X005844Y020662D01*
X006002Y020820D02*
X000357Y020820D01*
X000357Y020979D02*
X006161Y020979D01*
X006319Y021137D02*
X000357Y021137D01*
X000357Y021296D02*
X006478Y021296D01*
X006722Y021613D02*
X006795Y021613D01*
X006850Y021772D02*
X006954Y021772D01*
X006991Y021930D02*
X007112Y021930D01*
X007149Y022089D02*
X007271Y022089D01*
X005771Y022881D02*
X005038Y022881D01*
X004903Y023040D02*
X005613Y023040D01*
X004164Y023040D02*
X004049Y023040D01*
X004049Y022881D02*
X004164Y022881D01*
X004164Y022723D02*
X004049Y022723D01*
X004049Y022406D02*
X004164Y022406D01*
X004164Y022247D02*
X004049Y022247D01*
X004049Y022089D02*
X004164Y022089D01*
X009250Y028589D02*
X013695Y028589D01*
X013536Y028748D02*
X009408Y028748D01*
X009567Y028906D02*
X013378Y028906D01*
X013219Y029065D02*
X009725Y029065D01*
X009884Y029223D02*
X013061Y029223D01*
X012902Y029382D02*
X010042Y029382D01*
X010201Y029540D02*
X012744Y029540D01*
X012585Y029699D02*
X010360Y029699D01*
X010518Y029857D02*
X012427Y029857D01*
X012268Y030016D02*
X010638Y030016D01*
X010647Y030174D02*
X011467Y030174D01*
X011309Y030333D02*
X010647Y030333D01*
X010647Y030491D02*
X011240Y030491D01*
X011214Y030650D02*
X010647Y030650D01*
X010647Y030809D02*
X011214Y030809D01*
X011214Y030967D02*
X010778Y030967D01*
X010936Y031126D02*
X011214Y031126D01*
X011214Y031284D02*
X011095Y031284D01*
X010733Y031601D02*
X010399Y031601D01*
X010399Y031443D02*
X010575Y031443D01*
X010416Y031284D02*
X010399Y031284D01*
X010339Y031760D02*
X010892Y031760D01*
X011050Y031918D02*
X010224Y031918D01*
X009389Y031918D02*
X008224Y031918D01*
X008339Y031760D02*
X009274Y031760D01*
X009214Y031601D02*
X008399Y031601D01*
X008399Y031443D02*
X009214Y031443D01*
X009214Y031284D02*
X008399Y031284D01*
X008399Y031126D02*
X009214Y031126D01*
X009214Y030967D02*
X008399Y030967D01*
X008399Y030809D02*
X009214Y030809D01*
X009214Y030650D02*
X008399Y030650D01*
X008373Y030491D02*
X009240Y030491D01*
X009309Y030333D02*
X008305Y030333D01*
X008146Y030174D02*
X009467Y030174D01*
X010146Y030174D02*
X010156Y030174D01*
X016146Y030174D02*
X017467Y030174D01*
X017309Y030333D02*
X016305Y030333D01*
X016373Y030491D02*
X017240Y030491D01*
X017214Y030650D02*
X016399Y030650D01*
X016399Y030809D02*
X017214Y030809D01*
X017214Y030967D02*
X016399Y030967D01*
X016399Y031126D02*
X017214Y031126D01*
X017214Y031284D02*
X016399Y031284D01*
X016399Y031443D02*
X017214Y031443D01*
X017214Y031601D02*
X016399Y031601D01*
X016339Y031760D02*
X017274Y031760D01*
X018246Y032235D02*
X020087Y032235D01*
X020147Y032077D02*
X018404Y032077D01*
X018563Y031918D02*
X020214Y031918D01*
X020373Y031760D02*
X018722Y031760D01*
X018518Y031284D02*
X018399Y031284D01*
X018399Y031126D02*
X023977Y031126D01*
X024135Y030967D02*
X018399Y030967D01*
X018399Y030809D02*
X024294Y030809D01*
X024453Y030650D02*
X018399Y030650D01*
X018373Y030491D02*
X024611Y030491D01*
X024746Y030333D02*
X024067Y030333D01*
X024289Y030174D02*
X024524Y030174D01*
X024447Y030016D02*
X024367Y030016D01*
X024382Y029857D02*
X024432Y029857D01*
X024470Y029699D02*
X024344Y029699D01*
X022414Y029223D02*
X022399Y029223D01*
X022399Y029065D02*
X022414Y029065D01*
X022399Y028906D02*
X022414Y028906D01*
X024058Y027479D02*
X024367Y027479D01*
X024367Y027321D02*
X024087Y027321D01*
X024046Y027162D02*
X024296Y027162D01*
X024227Y027004D02*
X024128Y027004D01*
X023109Y031760D02*
X023104Y031760D01*
X023107Y031918D02*
X023107Y031918D01*
X023107Y032077D02*
X023107Y032077D01*
X023107Y032235D02*
X023107Y032235D01*
X023107Y032394D02*
X023107Y032394D01*
X023107Y032553D02*
X023107Y032553D01*
X023063Y032711D02*
X023151Y032711D01*
X023264Y032870D02*
X022949Y032870D01*
X022264Y032870D02*
X021582Y032870D01*
X021659Y032711D02*
X022151Y032711D01*
X022107Y032553D02*
X021725Y032553D01*
X021727Y032394D02*
X022107Y032394D01*
X022107Y032235D02*
X021727Y032235D01*
X021666Y032077D02*
X022107Y032077D01*
X022107Y031918D02*
X021599Y031918D01*
X021441Y031760D02*
X022109Y031760D01*
X025923Y033028D02*
X039857Y033028D01*
X039857Y032870D02*
X026082Y032870D01*
X017256Y022089D02*
X017257Y022089D01*
X017256Y021930D02*
X017257Y021930D01*
X017409Y020820D02*
X017567Y020820D01*
X017567Y020662D02*
X017516Y020662D01*
X017537Y020503D02*
X017567Y020503D01*
X008201Y013052D02*
X007847Y013052D01*
X007847Y013210D02*
X007919Y013210D01*
X002346Y029382D02*
X000357Y029382D01*
X000357Y029540D02*
X001954Y029540D01*
X001756Y029699D02*
X000357Y029699D01*
X000357Y029857D02*
X001565Y029857D01*
X001575Y029843D02*
X001575Y029843D01*
X001457Y030016D02*
X000357Y030016D01*
X000357Y030174D02*
X001349Y030174D01*
X001269Y030333D02*
X000357Y030333D01*
X000357Y030491D02*
X001221Y030491D01*
X001172Y030650D02*
X000357Y030650D01*
X000357Y030809D02*
X001145Y030809D01*
X001145Y030967D02*
X000357Y030967D01*
X000357Y031126D02*
X001145Y031126D01*
X001160Y031284D02*
X000357Y031284D01*
X000357Y031443D02*
X001209Y031443D01*
X001258Y031601D02*
X000357Y031601D01*
X000357Y031760D02*
X001324Y031760D01*
X001432Y031918D02*
X000357Y031918D01*
X000357Y032077D02*
X001540Y032077D01*
X001710Y032235D02*
X000357Y032235D01*
X000357Y032394D02*
X001909Y032394D01*
X000357Y033504D02*
X039857Y033504D01*
X039857Y033662D02*
X000357Y033662D01*
X036219Y003381D02*
X036438Y003381D01*
X036377Y003539D02*
X036546Y003539D01*
X036536Y003698D02*
X036655Y003698D01*
X036814Y004015D02*
X037035Y004015D01*
D20*
X035207Y003485D02*
X035207Y011135D01*
X029057Y017285D01*
X027607Y015235D02*
X027857Y014985D01*
X027607Y015235D02*
X025357Y015235D01*
X024107Y014285D02*
X031707Y014285D01*
X034307Y011685D01*
X034307Y005535D01*
X032957Y004185D01*
X032957Y002935D01*
X033557Y002535D02*
X030207Y002535D01*
X026857Y005885D01*
X026857Y006085D01*
X026707Y006485D02*
X023957Y003735D01*
X015357Y003735D01*
X015907Y005535D02*
X018557Y008185D01*
X018957Y008335D02*
X018607Y008685D01*
X018607Y008785D01*
X018957Y008335D02*
X018957Y005935D01*
X020107Y002735D02*
X020107Y000935D01*
X026707Y006485D02*
X029807Y006485D01*
X033607Y010285D01*
X033607Y011885D01*
X031607Y013885D01*
X023157Y013885D01*
X021657Y013935D02*
X021657Y012985D01*
X019957Y011285D01*
X021057Y013235D02*
X021257Y013235D01*
X021657Y013935D02*
X021557Y014035D01*
X021557Y014935D01*
X022007Y015935D02*
X020057Y013985D01*
X020057Y013535D01*
X019807Y013635D02*
X019807Y015935D01*
X021857Y017985D01*
X022157Y017985D01*
X022507Y017635D01*
X022507Y017535D01*
X022007Y017585D02*
X022007Y015935D01*
X020407Y017135D02*
X032007Y028735D01*
X027007Y028435D02*
X027007Y025335D01*
X023357Y021685D01*
X022407Y021385D02*
X019407Y018385D01*
X019407Y017135D01*
X019807Y017085D02*
X019807Y016485D01*
X019807Y017085D02*
X022807Y020085D01*
X022807Y023985D01*
X022007Y024785D01*
X021607Y024935D02*
X021607Y023635D01*
X021857Y023385D01*
X021857Y022985D01*
X021057Y022185D01*
X019507Y022185D01*
X017807Y022385D02*
X017807Y018635D01*
X017407Y018035D02*
X017407Y020235D01*
X017157Y020485D01*
X017157Y020535D01*
X016957Y020535D01*
X016257Y021235D01*
X017007Y020035D02*
X014007Y020035D01*
X012857Y021185D01*
X011857Y021485D02*
X011857Y022185D01*
X013207Y022185D01*
X013657Y022635D01*
X014857Y022635D01*
X015257Y022235D01*
X013807Y023035D02*
X010157Y023035D01*
X009157Y024435D02*
X006657Y021935D01*
X006507Y021935D01*
X006557Y022435D02*
X004407Y024585D01*
X004107Y024585D01*
X007107Y026785D02*
X010407Y030085D01*
X010407Y030935D01*
X011557Y032085D01*
X018057Y032085D01*
X018757Y031385D01*
X024057Y031385D01*
X027007Y028435D01*
X024907Y028735D02*
X024907Y029885D01*
X024907Y028735D02*
X024607Y028435D01*
X024607Y026935D01*
X023757Y027035D02*
X023707Y027035D01*
X021607Y024935D01*
X022407Y023835D02*
X022407Y021385D01*
X022307Y020735D02*
X020557Y018985D01*
X018607Y017835D02*
X018607Y013785D01*
X019407Y013785D01*
X018607Y013785D02*
X011357Y013785D01*
X009257Y012335D02*
X008007Y013585D01*
X009157Y014185D02*
X016157Y014185D01*
X016607Y015185D02*
X008807Y015185D01*
X006007Y016185D02*
X006007Y020485D01*
X013457Y027935D01*
X015007Y025235D02*
X011107Y025235D01*
X007357Y021485D01*
X007357Y011535D01*
X008057Y010835D01*
X008757Y010835D01*
X009257Y010335D01*
X008757Y010835D02*
X008757Y011535D01*
X009057Y011835D01*
X008257Y011635D02*
X008257Y011335D01*
X008257Y011635D02*
X007607Y012285D01*
X007607Y018885D01*
X009807Y021085D01*
X009407Y019935D02*
X009407Y018835D01*
X010007Y018235D01*
X010007Y018185D01*
X011957Y016235D01*
X015057Y016235D01*
X015107Y015735D02*
X017407Y018035D01*
X015307Y016735D02*
X012457Y016735D01*
X011007Y018185D01*
X011857Y019335D02*
X013007Y018185D01*
X011857Y019335D02*
X011857Y021485D01*
X008357Y021485D01*
X003007Y015535D02*
X002257Y015535D01*
X003007Y015535D02*
X008207Y010335D01*
X008257Y010335D01*
X011107Y007485D01*
X011107Y003185D01*
X011307Y002685D02*
X010607Y002685D01*
X010107Y002185D01*
X010107Y003185D02*
X009957Y003335D01*
X009957Y008085D01*
X011607Y008185D02*
X011607Y002985D01*
X011307Y002685D01*
X012407Y006835D02*
X012407Y008335D01*
X011607Y008185D02*
X013257Y009835D01*
X013607Y009835D01*
X017157Y013385D02*
X018407Y013385D01*
X015107Y015735D02*
X014957Y015735D01*
X017807Y022385D02*
X017207Y022985D01*
X023707Y027035D02*
X023707Y027335D01*
X023757Y027035D02*
X025307Y025485D01*
X026407Y025485D01*
X028007Y021235D02*
X028007Y019835D01*
X026757Y018585D01*
X028057Y013485D02*
X026157Y011585D01*
X028107Y010285D02*
X027182Y009360D01*
X027157Y009385D01*
X025107Y009385D01*
X024857Y009135D01*
X020807Y009135D01*
X024857Y009135D02*
X024857Y008035D01*
X025757Y007135D01*
X028557Y007135D01*
X027907Y007735D02*
X028857Y008685D01*
X029407Y009235D02*
X029857Y009685D01*
X029407Y009235D02*
X029407Y007435D01*
X029807Y007035D01*
X027907Y007735D02*
X026707Y007735D01*
X026307Y008135D01*
X025307Y008135D01*
X025457Y008785D02*
X025257Y008985D01*
X025457Y008785D02*
X027207Y008785D01*
X028107Y009685D01*
X027182Y009360D02*
X027007Y009185D01*
X027007Y008385D02*
X027357Y008385D01*
X029257Y010285D01*
X030007Y011585D02*
X029557Y012035D01*
X029357Y012035D01*
X029357Y013485D02*
X028057Y013485D01*
X031357Y005185D02*
X030507Y004335D01*
X031357Y005185D02*
X033407Y005185D01*
X003857Y008835D02*
X002657Y008835D01*
D21*
X020357Y011135D02*
X032607Y011135D01*
X033207Y011735D01*
X031807Y010685D02*
X031757Y010735D01*
X027907Y010735D01*
X027557Y010385D01*
X027007Y010385D01*
X029657Y004135D02*
X033307Y007785D01*
X033907Y007785D01*
X036507Y007385D02*
X037607Y008485D01*
X036507Y007385D02*
X036507Y004135D01*
X034457Y002085D01*
X030207Y002085D01*
X029057Y003235D01*
X020257Y003235D01*
X029157Y004135D02*
X029657Y004135D01*
X032407Y016685D02*
X031407Y017685D01*
X032407Y016685D02*
X037357Y016685D01*
D22*
X034857Y015185D02*
X031857Y015185D01*
X030357Y016685D01*
M02*
