G04 (Genere par PCBNEW (2006-08-28)) le 7/6/2007-03:07:33*
G01*
G70*
G90*
%MOIN*%
G04 Gerber Fmt 3.4, Leading zero omitted, Abs format*
%FSLAX34Y34*%
G04 APERTURE LIST*
%ADD10C,0.015000*%
%ADD11R,0.080000X0.080000*%
%ADD12C,0.080000*%
%ADD13R,0.150000X0.150000*%
%ADD14C,0.150000*%
%ADD15R,0.055000X0.055000*%
%ADD16C,0.055000*%
%ADD17C,0.060000*%
%ADD18R,0.055000X0.080000*%
%ADD19C,0.160000*%
%ADD20C,0.040000*%
%ADD21C,0.080000*%
%ADD22C,0.025000*%
%ADD23C,0.005000*%
G04 APERTURE END LIST*
G54D10*
X150200Y-99300D02*
X150200Y-80300D01*
X121800Y-99300D02*
X121800Y-80300D01*
X121800Y-80300D02*
X150200Y-80300D01*
X121800Y-99300D02*
X150200Y-99300D01*
G54D11*
X142700Y-97200D03*
G54D12*
X143700Y-97200D03*
G54D11*
X140100Y-97200D03*
G54D12*
X141100Y-97200D03*
G54D13*
X127600Y-97100D03*
G54D14*
X129600Y-97100D03*
X131600Y-97100D03*
X133600Y-97100D03*
G54D15*
X129800Y-82100D03*
G54D16*
X130800Y-82100D03*
X131800Y-82100D03*
X132800Y-82100D03*
X133800Y-82100D03*
X134800Y-82100D03*
X135800Y-82100D03*
X136800Y-82100D03*
X137800Y-82100D03*
X138800Y-82100D03*
X139800Y-82100D03*
X140800Y-82100D03*
G54D11*
X132200Y-89700D03*
G54D12*
X133200Y-89700D03*
X133200Y-88700D03*
G54D14*
X128300Y-88500D03*
G54D13*
X124900Y-88600D03*
G54D11*
X136200Y-90800D03*
G54D12*
X136200Y-91800D03*
G54D11*
X138400Y-90100D03*
G54D12*
X138400Y-91100D03*
G54D11*
X138500Y-93000D03*
G54D12*
X138500Y-94000D03*
G54D11*
X136900Y-96200D03*
G54D12*
X136900Y-97200D03*
X132800Y-93100D03*
X135800Y-93100D03*
G54D14*
X146600Y-94800D03*
X146600Y-84800D03*
G54D11*
X146100Y-87650D03*
G54D17*
X146100Y-88750D03*
X146100Y-89800D03*
X146100Y-90900D03*
G54D12*
X146100Y-92000D03*
X147100Y-88200D03*
G54D17*
X147100Y-89300D03*
X147100Y-90350D03*
X147100Y-91450D03*
G54D11*
X140700Y-86700D03*
G54D12*
X140700Y-87700D03*
X140700Y-88700D03*
X140700Y-89700D03*
X140700Y-90700D03*
X140700Y-91700D03*
X140700Y-92700D03*
X140700Y-93700D03*
X143700Y-93700D03*
X143700Y-92700D03*
X143700Y-91700D03*
X143700Y-90700D03*
X143700Y-89700D03*
X143700Y-88700D03*
X143700Y-87700D03*
X143700Y-86700D03*
G54D18*
X138300Y-86700D03*
G54D12*
X138300Y-88700D03*
G54D15*
X136100Y-87800D03*
G54D16*
X136100Y-88800D03*
G54D19*
X123500Y-81900D03*
X148500Y-81900D03*
X148500Y-97700D03*
X123500Y-97700D03*
G54D12*
X143700Y-86700D03*
G54D20*
X142700Y-95400D02*
X142200Y-95400D01*
X140100Y-97200D02*
X139900Y-95400D01*
X141400Y-95400D02*
X142200Y-95400D01*
X142200Y-95400D02*
X142700Y-97200D01*
X140800Y-95400D02*
X141400Y-95400D01*
X140400Y-95400D02*
X140800Y-95400D01*
X139900Y-95400D02*
X140400Y-95400D01*
X142700Y-97200D02*
X142700Y-95400D01*
X142200Y-95400D02*
X143500Y-95400D01*
X143500Y-95400D02*
X143600Y-95400D01*
X146100Y-92000D02*
X146100Y-92700D01*
X144100Y-95400D02*
X143500Y-95400D01*
X145000Y-94500D02*
X144100Y-95400D01*
X145000Y-93800D02*
X145000Y-94500D01*
X146100Y-92700D02*
X145000Y-93800D01*
G54D21*
X126000Y-86000D02*
X124888Y-87112D01*
X132600Y-86000D02*
X126000Y-86000D01*
X136000Y-82600D02*
X132600Y-86000D01*
X136000Y-82300D02*
X136000Y-82600D01*
X135800Y-82100D02*
X136000Y-82300D01*
X136800Y-82100D02*
X135800Y-82100D01*
X137800Y-82100D02*
X136800Y-82100D01*
X138800Y-82100D02*
X137800Y-82100D01*
X139800Y-82100D02*
X138800Y-82100D01*
X140800Y-82100D02*
X139800Y-82100D01*
G54D20*
X124888Y-89632D02*
X127770Y-92514D01*
X127770Y-92514D02*
X129386Y-92514D01*
G54D21*
X127600Y-97100D02*
X124650Y-89703D01*
G54D20*
X129386Y-92514D02*
X132200Y-89700D01*
X124900Y-88600D02*
X124888Y-89632D01*
G54D21*
X124650Y-89703D02*
X124900Y-88600D01*
X124888Y-87112D02*
X124900Y-88600D01*
G54D23*
X149450Y-83000D02*
X149450Y-96600D01*
X149400Y-83050D02*
X149400Y-96550D01*
X149350Y-83050D02*
X149350Y-96550D01*
X149300Y-83100D02*
X149300Y-96500D01*
X149250Y-83150D02*
X149250Y-96450D01*
X149200Y-83150D02*
X149200Y-96450D01*
X149150Y-83200D02*
X149150Y-96400D01*
X149100Y-83200D02*
X149100Y-96400D01*
X149050Y-83250D02*
X149050Y-96350D01*
X149000Y-83250D02*
X149000Y-96350D01*
X148950Y-83300D02*
X148950Y-96300D01*
X148900Y-83300D02*
X148900Y-96300D01*
X148850Y-83300D02*
X148850Y-96300D01*
X148800Y-83300D02*
X148800Y-96300D01*
X148750Y-83350D02*
X148750Y-96250D01*
X148700Y-83350D02*
X148700Y-96250D01*
X148650Y-83350D02*
X148650Y-96250D01*
X148600Y-83350D02*
X148600Y-96250D01*
X148550Y-83350D02*
X148550Y-96250D01*
X148500Y-83350D02*
X148500Y-96250D01*
X148450Y-83350D02*
X148450Y-96250D01*
X148400Y-83350D02*
X148400Y-96250D01*
X148350Y-83350D02*
X148350Y-96250D01*
X148300Y-83350D02*
X148300Y-96250D01*
X148250Y-83350D02*
X148250Y-96250D01*
X148200Y-83300D02*
X148200Y-96300D01*
X148150Y-83300D02*
X148150Y-96300D01*
X148100Y-88450D02*
X148100Y-96300D01*
X148100Y-83300D02*
X148100Y-87950D01*
X148050Y-88600D02*
X148050Y-96300D01*
X148050Y-83300D02*
X148050Y-87800D01*
X148000Y-91700D02*
X148000Y-96350D01*
X148000Y-90600D02*
X148000Y-91200D01*
X148000Y-89550D02*
X148000Y-90100D01*
X148000Y-88700D02*
X148000Y-89050D01*
X148000Y-83250D02*
X148000Y-87700D01*
X147950Y-95100D02*
X147950Y-96350D01*
X147950Y-91850D02*
X147950Y-94500D01*
X147950Y-90750D02*
X147950Y-91050D01*
X147950Y-89700D02*
X147950Y-89950D01*
X147950Y-88800D02*
X147950Y-88900D01*
X147950Y-85100D02*
X147950Y-87600D01*
X147950Y-83250D02*
X147950Y-84500D01*
X147900Y-95250D02*
X147900Y-96400D01*
X147900Y-91950D02*
X147900Y-94350D01*
X147900Y-90850D02*
X147900Y-90950D01*
X147900Y-89800D02*
X147900Y-89850D01*
X147900Y-85250D02*
X147900Y-87550D01*
X147900Y-83200D02*
X147900Y-84350D01*
X147850Y-95400D02*
X147850Y-96400D01*
X147850Y-92000D02*
X147850Y-94200D01*
X147850Y-85400D02*
X147850Y-87500D01*
X147850Y-83200D02*
X147850Y-84200D01*
X147800Y-95500D02*
X147800Y-96450D01*
X147800Y-92100D02*
X147800Y-94100D01*
X147800Y-85500D02*
X147800Y-87450D01*
X147800Y-83150D02*
X147800Y-84100D01*
X147750Y-95600D02*
X147750Y-96450D01*
X147750Y-92150D02*
X147750Y-94000D01*
X147750Y-85600D02*
X147750Y-87400D01*
X147750Y-83150D02*
X147750Y-84000D01*
X147700Y-95650D02*
X147700Y-96500D01*
X147700Y-92200D02*
X147700Y-93950D01*
X147700Y-85650D02*
X147700Y-87350D01*
X147700Y-83100D02*
X147700Y-83950D01*
X147650Y-95700D02*
X147650Y-96550D01*
X147650Y-92200D02*
X147650Y-93900D01*
X147650Y-85700D02*
X147650Y-87300D01*
X147650Y-83050D02*
X147650Y-83900D01*
X147600Y-95750D02*
X147600Y-96550D01*
X147600Y-92250D02*
X147600Y-93850D01*
X147600Y-85750D02*
X147600Y-87300D01*
X147600Y-83050D02*
X147600Y-83850D01*
X147550Y-95800D02*
X147550Y-96600D01*
X147550Y-92300D02*
X147550Y-93800D01*
X147550Y-85800D02*
X147550Y-87250D01*
X147550Y-83000D02*
X147550Y-83800D01*
X147500Y-95850D02*
X147500Y-96650D01*
X147500Y-92300D02*
X147500Y-93750D01*
X147500Y-85850D02*
X147500Y-87250D01*
X147500Y-82950D02*
X147500Y-83750D01*
X147450Y-95900D02*
X147450Y-96700D01*
X147450Y-92350D02*
X147450Y-93700D01*
X147450Y-85900D02*
X147450Y-87200D01*
X147450Y-82900D02*
X147450Y-83700D01*
X147400Y-95950D02*
X147400Y-96750D01*
X147400Y-92350D02*
X147400Y-93650D01*
X147400Y-85950D02*
X147400Y-87200D01*
X147400Y-82850D02*
X147400Y-83650D01*
X147350Y-96000D02*
X147350Y-96850D01*
X147350Y-92350D02*
X147350Y-93600D01*
X147350Y-86000D02*
X147350Y-87200D01*
X147350Y-82750D02*
X147350Y-83600D01*
X147300Y-98500D02*
X147300Y-98550D01*
X147300Y-96000D02*
X147300Y-96900D01*
X147300Y-92400D02*
X147300Y-93600D01*
X147300Y-86000D02*
X147300Y-87150D01*
X147300Y-82700D02*
X147300Y-83600D01*
X147300Y-81050D02*
X147300Y-81100D01*
X147250Y-98400D02*
X147250Y-98550D01*
X147250Y-96050D02*
X147250Y-97000D01*
X147250Y-92400D02*
X147250Y-93550D01*
X147250Y-86050D02*
X147250Y-87150D01*
X147250Y-82600D02*
X147250Y-83550D01*
X147250Y-81050D02*
X147250Y-81200D01*
X147200Y-98300D02*
X147200Y-98550D01*
X147200Y-96050D02*
X147200Y-97100D01*
X147200Y-92400D02*
X147200Y-93550D01*
X147200Y-86050D02*
X147200Y-87150D01*
X147200Y-82500D02*
X147200Y-83550D01*
X147200Y-81050D02*
X147200Y-81300D01*
X147150Y-98200D02*
X147150Y-98550D01*
X147150Y-96100D02*
X147150Y-97200D01*
X147150Y-92400D02*
X147150Y-93500D01*
X147150Y-86100D02*
X147150Y-87150D01*
X147150Y-82400D02*
X147150Y-83500D01*
X147150Y-81050D02*
X147150Y-81400D01*
X147100Y-98000D02*
X147100Y-98550D01*
X147100Y-96100D02*
X147100Y-97400D01*
X147100Y-92400D02*
X147100Y-93500D01*
X147100Y-86100D02*
X147100Y-86600D01*
X147100Y-82200D02*
X147100Y-83500D01*
X147100Y-81050D02*
X147100Y-81600D01*
X147050Y-96100D02*
X147050Y-98550D01*
X147050Y-92400D02*
X147050Y-93500D01*
X147050Y-86100D02*
X147050Y-86600D01*
X147050Y-81050D02*
X147050Y-83500D01*
X147000Y-96150D02*
X147000Y-98550D01*
X147000Y-92500D02*
X147000Y-93450D01*
X147000Y-86150D02*
X147000Y-86600D01*
X147000Y-81050D02*
X147000Y-83450D01*
X146950Y-96150D02*
X146950Y-98550D01*
X146950Y-92600D02*
X146950Y-93450D01*
X146950Y-86150D02*
X146950Y-86600D01*
X146950Y-81050D02*
X146950Y-83450D01*
X146900Y-96150D02*
X146900Y-98550D01*
X146900Y-92950D02*
X146900Y-93450D01*
X146900Y-86150D02*
X146900Y-86600D01*
X146900Y-81050D02*
X146900Y-83450D01*
X146850Y-96200D02*
X146850Y-98550D01*
X146850Y-93050D02*
X146850Y-93400D01*
X146850Y-86200D02*
X146850Y-86600D01*
X146850Y-81050D02*
X146850Y-83400D01*
X146800Y-96200D02*
X146800Y-98550D01*
X146800Y-93150D02*
X146800Y-93400D01*
X146800Y-86200D02*
X146800Y-86600D01*
X146800Y-81050D02*
X146800Y-83400D01*
X146750Y-96200D02*
X146750Y-98550D01*
X146750Y-93250D02*
X146750Y-93400D01*
X146750Y-86200D02*
X146750Y-86600D01*
X146750Y-81050D02*
X146750Y-83400D01*
X146700Y-96200D02*
X146700Y-98550D01*
X146700Y-93300D02*
X146700Y-93400D01*
X146700Y-86200D02*
X146700Y-86600D01*
X146700Y-81050D02*
X146700Y-83400D01*
X146650Y-96200D02*
X146650Y-98550D01*
X146650Y-93350D02*
X146650Y-93400D01*
X146650Y-86200D02*
X146650Y-86600D01*
X146650Y-81050D02*
X146650Y-83400D01*
X146600Y-96200D02*
X146600Y-98550D01*
X146600Y-86200D02*
X146600Y-86600D01*
X146600Y-81050D02*
X146600Y-83400D01*
X146550Y-96200D02*
X146550Y-98550D01*
X146550Y-86200D02*
X146550Y-86600D01*
X146550Y-81050D02*
X146550Y-83400D01*
X146500Y-96200D02*
X146500Y-98550D01*
X146500Y-86200D02*
X146500Y-86600D01*
X146500Y-81050D02*
X146500Y-83400D01*
X146450Y-96200D02*
X146450Y-98550D01*
X146450Y-86200D02*
X146450Y-86600D01*
X146450Y-81050D02*
X146450Y-83400D01*
X146400Y-96200D02*
X146400Y-98550D01*
X146400Y-86200D02*
X146400Y-86600D01*
X146400Y-81050D02*
X146400Y-83400D01*
X146350Y-96200D02*
X146350Y-98550D01*
X146350Y-86200D02*
X146350Y-86600D01*
X146350Y-81050D02*
X146350Y-83400D01*
X146300Y-96150D02*
X146300Y-98550D01*
X146300Y-86150D02*
X146300Y-86600D01*
X146300Y-81050D02*
X146300Y-83450D01*
X146250Y-96150D02*
X146250Y-98550D01*
X146250Y-86150D02*
X146250Y-86600D01*
X146250Y-81050D02*
X146250Y-83450D01*
X146200Y-96150D02*
X146200Y-98550D01*
X146200Y-86150D02*
X146200Y-86600D01*
X146200Y-81050D02*
X146200Y-83450D01*
X146150Y-96100D02*
X146150Y-98550D01*
X146150Y-86100D02*
X146150Y-86600D01*
X146150Y-81050D02*
X146150Y-83500D01*
X146100Y-96100D02*
X146100Y-98550D01*
X146100Y-86100D02*
X146100Y-86600D01*
X146100Y-81050D02*
X146100Y-83500D01*
X146050Y-96100D02*
X146050Y-98550D01*
X146050Y-86100D02*
X146050Y-86600D01*
X146050Y-81050D02*
X146050Y-83500D01*
X146000Y-96050D02*
X146000Y-98550D01*
X146000Y-86050D02*
X146000Y-86600D01*
X146000Y-81050D02*
X146000Y-83550D01*
X145950Y-96050D02*
X145950Y-98550D01*
X145950Y-86050D02*
X145950Y-86600D01*
X145950Y-81050D02*
X145950Y-83550D01*
X145900Y-96000D02*
X145900Y-98550D01*
X145900Y-86000D02*
X145900Y-86600D01*
X145900Y-81050D02*
X145900Y-83600D01*
X145850Y-96000D02*
X145850Y-98550D01*
X145850Y-86000D02*
X145850Y-86600D01*
X145850Y-81050D02*
X145850Y-83600D01*
X145800Y-95950D02*
X145800Y-98550D01*
X145800Y-85950D02*
X145800Y-86600D01*
X145800Y-81050D02*
X145800Y-83650D01*
X145750Y-95900D02*
X145750Y-98550D01*
X145750Y-85900D02*
X145750Y-86600D01*
X145750Y-81050D02*
X145750Y-83700D01*
X145700Y-95850D02*
X145700Y-98550D01*
X145700Y-85850D02*
X145700Y-86600D01*
X145700Y-81050D02*
X145700Y-83750D01*
X145650Y-95800D02*
X145650Y-98550D01*
X145650Y-85800D02*
X145650Y-86600D01*
X145650Y-81050D02*
X145650Y-83800D01*
X145600Y-95750D02*
X145600Y-98550D01*
X145600Y-85750D02*
X145600Y-86600D01*
X145600Y-81050D02*
X145600Y-83850D01*
X145550Y-95700D02*
X145550Y-98550D01*
X145550Y-85700D02*
X145550Y-86600D01*
X145550Y-81050D02*
X145550Y-83900D01*
X145500Y-95650D02*
X145500Y-98550D01*
X145500Y-85650D02*
X145500Y-86600D01*
X145500Y-81050D02*
X145500Y-83950D01*
X145450Y-95600D02*
X145450Y-98550D01*
X145450Y-85600D02*
X145450Y-86600D01*
X145450Y-81050D02*
X145450Y-84000D01*
X145400Y-95500D02*
X145400Y-98550D01*
X145400Y-85500D02*
X145400Y-86600D01*
X145400Y-81050D02*
X145400Y-84100D01*
X145350Y-95400D02*
X145350Y-98550D01*
X145350Y-85400D02*
X145350Y-86600D01*
X145350Y-81050D02*
X145350Y-84200D01*
X145300Y-95400D02*
X145300Y-98550D01*
X145300Y-90300D02*
X145300Y-90400D01*
X145300Y-89250D02*
X145300Y-89300D01*
X145300Y-85250D02*
X145300Y-86600D01*
X145300Y-81050D02*
X145300Y-84350D01*
X145250Y-95450D02*
X145250Y-98550D01*
X145250Y-91300D02*
X145250Y-91400D01*
X145250Y-90200D02*
X145250Y-90500D01*
X145250Y-89150D02*
X145250Y-89400D01*
X145250Y-85100D02*
X145250Y-86600D01*
X145250Y-81050D02*
X145250Y-84500D01*
X145200Y-95500D02*
X145200Y-98550D01*
X145200Y-91150D02*
X145200Y-91500D01*
X145200Y-90050D02*
X145200Y-90650D01*
X145200Y-89000D02*
X145200Y-89550D01*
X145200Y-81050D02*
X145200Y-86600D01*
X145150Y-95550D02*
X145150Y-98550D01*
X145150Y-92400D02*
X145150Y-92450D01*
X145150Y-88700D02*
X145150Y-91600D01*
X145150Y-81050D02*
X145150Y-86600D01*
X145100Y-95600D02*
X145100Y-98550D01*
X145100Y-92250D02*
X145100Y-92500D01*
X145100Y-88700D02*
X145100Y-91750D01*
X145100Y-81050D02*
X145100Y-86600D01*
X145050Y-95650D02*
X145050Y-98550D01*
X145050Y-81050D02*
X145050Y-92550D01*
X145000Y-95700D02*
X145000Y-98550D01*
X145000Y-81050D02*
X145000Y-92600D01*
X144950Y-95750D02*
X144950Y-98550D01*
X144950Y-81050D02*
X144950Y-92650D01*
X144900Y-95800D02*
X144900Y-98550D01*
X144900Y-81050D02*
X144900Y-92700D01*
X144850Y-95850D02*
X144850Y-98550D01*
X144850Y-81050D02*
X144850Y-92750D01*
X144800Y-95900D02*
X144800Y-98550D01*
X144800Y-81050D02*
X144800Y-92800D01*
X144750Y-95950D02*
X144750Y-98550D01*
X144750Y-81050D02*
X144750Y-92850D01*
X144700Y-97450D02*
X144700Y-98550D01*
X144700Y-96000D02*
X144700Y-96950D01*
X144700Y-91950D02*
X144700Y-92450D01*
X144700Y-90950D02*
X144700Y-91450D01*
X144700Y-89950D02*
X144700Y-90450D01*
X144700Y-88950D02*
X144700Y-89450D01*
X144700Y-87950D02*
X144700Y-88450D01*
X144700Y-86950D02*
X144700Y-87450D01*
X144700Y-81050D02*
X144700Y-86450D01*
X144650Y-97600D02*
X144650Y-98550D01*
X144650Y-96050D02*
X144650Y-96800D01*
X144650Y-92100D02*
X144650Y-92300D01*
X144650Y-91100D02*
X144650Y-91300D01*
X144650Y-90100D02*
X144650Y-90300D01*
X144650Y-89100D02*
X144650Y-89300D01*
X144650Y-88100D02*
X144650Y-88300D01*
X144650Y-87100D02*
X144650Y-87300D01*
X144650Y-81050D02*
X144650Y-86300D01*
X144600Y-97700D02*
X144600Y-98550D01*
X144600Y-96100D02*
X144600Y-96700D01*
X144600Y-81050D02*
X144600Y-86200D01*
X144550Y-97800D02*
X144550Y-98550D01*
X144550Y-96100D02*
X144550Y-96600D01*
X144550Y-81050D02*
X144550Y-86100D01*
X144500Y-97850D02*
X144500Y-98550D01*
X144500Y-96150D02*
X144500Y-96550D01*
X144500Y-81050D02*
X144500Y-86050D01*
X144450Y-97900D02*
X144450Y-98550D01*
X144450Y-96150D02*
X144450Y-96500D01*
X144450Y-81050D02*
X144450Y-86000D01*
X144400Y-97950D02*
X144400Y-98550D01*
X144400Y-96200D02*
X144400Y-96450D01*
X144400Y-81050D02*
X144400Y-85950D01*
X144350Y-98000D02*
X144350Y-98550D01*
X144350Y-96200D02*
X144350Y-96400D01*
X144350Y-81050D02*
X144350Y-85900D01*
X144300Y-98050D02*
X144300Y-98550D01*
X144300Y-96250D02*
X144300Y-96350D01*
X144300Y-81050D02*
X144300Y-85850D01*
X144250Y-98100D02*
X144250Y-98550D01*
X144250Y-96250D02*
X144250Y-96300D01*
X144250Y-81050D02*
X144250Y-85800D01*
X144200Y-98100D02*
X144200Y-98550D01*
X144200Y-96250D02*
X144200Y-96300D01*
X144200Y-81050D02*
X144200Y-85800D01*
X144150Y-98150D02*
X144150Y-98550D01*
X144150Y-81050D02*
X144150Y-85750D01*
X144100Y-98150D02*
X144100Y-98550D01*
X144100Y-81050D02*
X144100Y-85750D01*
X144050Y-98200D02*
X144050Y-98550D01*
X144050Y-81050D02*
X144050Y-85700D01*
X144000Y-98200D02*
X144000Y-98550D01*
X144000Y-81050D02*
X144000Y-85700D01*
X143950Y-98200D02*
X143950Y-98550D01*
X143950Y-81050D02*
X143950Y-85700D01*
X143900Y-98250D02*
X143900Y-98550D01*
X143900Y-81050D02*
X143900Y-85650D01*
X143850Y-98250D02*
X143850Y-98550D01*
X143850Y-81050D02*
X143850Y-85650D01*
X143800Y-98250D02*
X143800Y-98550D01*
X143800Y-81050D02*
X143800Y-85650D01*
X143750Y-98250D02*
X143750Y-98550D01*
X143750Y-81050D02*
X143750Y-85650D01*
X143700Y-98250D02*
X143700Y-98550D01*
X143700Y-81050D02*
X143700Y-85650D01*
X143650Y-98250D02*
X143650Y-98550D01*
X143650Y-81050D02*
X143650Y-85650D01*
X143600Y-98250D02*
X143600Y-98550D01*
X143600Y-81050D02*
X143600Y-85650D01*
X143550Y-98250D02*
X143550Y-98550D01*
X143550Y-81050D02*
X143550Y-85650D01*
X143500Y-98250D02*
X143500Y-98550D01*
X143500Y-81050D02*
X143500Y-85650D01*
X143450Y-98250D02*
X143450Y-98550D01*
X143450Y-81050D02*
X143450Y-85700D01*
X143400Y-98250D02*
X143400Y-98550D01*
X143400Y-81050D02*
X143400Y-85700D01*
X143350Y-98250D02*
X143350Y-98550D01*
X143350Y-81050D02*
X143350Y-85700D01*
X143300Y-98250D02*
X143300Y-98550D01*
X143300Y-81050D02*
X143300Y-85750D01*
X143250Y-98250D02*
X143250Y-98550D01*
X143250Y-81050D02*
X143250Y-85750D01*
X143200Y-98250D02*
X143200Y-98550D01*
X143200Y-81050D02*
X143200Y-85800D01*
X143150Y-98250D02*
X143150Y-98550D01*
X143150Y-81050D02*
X143150Y-85800D01*
X143100Y-98250D02*
X143100Y-98550D01*
X143100Y-81050D02*
X143100Y-85850D01*
X143050Y-98250D02*
X143050Y-98550D01*
X143050Y-94500D02*
X143050Y-94550D01*
X143050Y-81050D02*
X143050Y-85900D01*
X143000Y-98250D02*
X143000Y-98550D01*
X143000Y-94450D02*
X143000Y-94550D01*
X143000Y-81050D02*
X143000Y-85950D01*
X142950Y-98250D02*
X142950Y-98550D01*
X142950Y-94400D02*
X142950Y-94550D01*
X142950Y-81050D02*
X142950Y-86000D01*
X142900Y-98250D02*
X142900Y-98550D01*
X142900Y-94350D02*
X142900Y-94550D01*
X142900Y-81050D02*
X142900Y-86050D01*
X142850Y-98250D02*
X142850Y-98550D01*
X142850Y-94300D02*
X142850Y-94550D01*
X142850Y-81050D02*
X142850Y-86100D01*
X142800Y-98250D02*
X142800Y-98550D01*
X142800Y-94200D02*
X142800Y-94550D01*
X142800Y-81050D02*
X142800Y-86200D01*
X142750Y-98250D02*
X142750Y-98550D01*
X142750Y-94100D02*
X142750Y-94550D01*
X142750Y-93100D02*
X142750Y-93300D01*
X142750Y-92100D02*
X142750Y-92300D01*
X142750Y-91100D02*
X142750Y-91300D01*
X142750Y-90100D02*
X142750Y-90300D01*
X142750Y-89100D02*
X142750Y-89300D01*
X142750Y-88100D02*
X142750Y-88300D01*
X142750Y-87100D02*
X142750Y-87300D01*
X142750Y-81050D02*
X142750Y-86300D01*
X142700Y-98250D02*
X142700Y-98550D01*
X142700Y-93950D02*
X142700Y-94550D01*
X142700Y-92950D02*
X142700Y-93450D01*
X142700Y-91950D02*
X142700Y-92450D01*
X142700Y-90950D02*
X142700Y-91450D01*
X142700Y-89950D02*
X142700Y-90450D01*
X142700Y-88950D02*
X142700Y-89450D01*
X142700Y-87950D02*
X142700Y-88450D01*
X142700Y-86950D02*
X142700Y-87450D01*
X142700Y-81050D02*
X142700Y-86450D01*
X142650Y-98250D02*
X142650Y-98550D01*
X142650Y-81050D02*
X142650Y-94550D01*
X142600Y-98250D02*
X142600Y-98550D01*
X142600Y-81050D02*
X142600Y-94550D01*
X142550Y-98250D02*
X142550Y-98550D01*
X142550Y-81050D02*
X142550Y-94550D01*
X142500Y-98250D02*
X142500Y-98550D01*
X142500Y-81050D02*
X142500Y-94550D01*
X142450Y-98250D02*
X142450Y-98550D01*
X142450Y-81050D02*
X142450Y-94550D01*
X142400Y-98250D02*
X142400Y-98550D01*
X142400Y-81050D02*
X142400Y-94550D01*
X142350Y-98250D02*
X142350Y-98550D01*
X142350Y-81050D02*
X142350Y-94550D01*
X142300Y-98250D02*
X142300Y-98550D01*
X142300Y-81050D02*
X142300Y-94550D01*
X142250Y-98250D02*
X142250Y-98550D01*
X142250Y-81050D02*
X142250Y-94550D01*
X142200Y-98250D02*
X142200Y-98550D01*
X142200Y-81050D02*
X142200Y-94550D01*
X142150Y-98250D02*
X142150Y-98550D01*
X142150Y-81050D02*
X142150Y-94550D01*
X142100Y-98250D02*
X142100Y-98550D01*
X142100Y-81050D02*
X142100Y-94550D01*
X142050Y-98250D02*
X142050Y-98550D01*
X142050Y-81050D02*
X142050Y-94550D01*
X142000Y-98250D02*
X142000Y-98550D01*
X142000Y-81050D02*
X142000Y-94550D01*
X141950Y-98250D02*
X141950Y-98550D01*
X141950Y-81050D02*
X141950Y-94550D01*
X141900Y-98250D02*
X141900Y-98550D01*
X141900Y-81050D02*
X141900Y-94550D01*
X141850Y-98250D02*
X141850Y-98550D01*
X141850Y-81050D02*
X141850Y-94550D01*
X141800Y-98250D02*
X141800Y-98550D01*
X141800Y-81050D02*
X141800Y-94550D01*
X141750Y-98250D02*
X141750Y-98550D01*
X141750Y-81050D02*
X141750Y-94550D01*
X141700Y-98250D02*
X141700Y-98550D01*
X141700Y-93950D02*
X141700Y-94550D01*
X141700Y-92950D02*
X141700Y-93450D01*
X141700Y-91950D02*
X141700Y-92450D01*
X141700Y-90950D02*
X141700Y-91450D01*
X141700Y-89950D02*
X141700Y-90450D01*
X141700Y-88950D02*
X141700Y-89450D01*
X141700Y-87950D02*
X141700Y-88450D01*
X141700Y-81050D02*
X141700Y-85650D01*
X141650Y-98100D02*
X141650Y-98550D01*
X141650Y-94100D02*
X141650Y-94550D01*
X141650Y-93100D02*
X141650Y-93300D01*
X141650Y-92100D02*
X141650Y-92300D01*
X141650Y-91100D02*
X141650Y-91300D01*
X141650Y-90100D02*
X141650Y-90300D01*
X141650Y-89100D02*
X141650Y-89300D01*
X141650Y-88100D02*
X141650Y-88300D01*
X141650Y-81050D02*
X141650Y-85650D01*
X141600Y-98100D02*
X141600Y-98550D01*
X141600Y-94200D02*
X141600Y-94550D01*
X141600Y-81050D02*
X141600Y-85650D01*
X141550Y-98150D02*
X141550Y-98550D01*
X141550Y-94300D02*
X141550Y-94550D01*
X141550Y-81050D02*
X141550Y-85650D01*
X141500Y-98150D02*
X141500Y-98550D01*
X141500Y-94350D02*
X141500Y-94550D01*
X141500Y-81050D02*
X141500Y-85650D01*
X141450Y-98200D02*
X141450Y-98550D01*
X141450Y-94400D02*
X141450Y-94550D01*
X141450Y-81050D02*
X141450Y-85650D01*
X141400Y-98200D02*
X141400Y-98550D01*
X141400Y-94450D02*
X141400Y-94550D01*
X141400Y-81050D02*
X141400Y-85650D01*
X141350Y-98200D02*
X141350Y-98550D01*
X141350Y-94500D02*
X141350Y-94550D01*
X141350Y-81050D02*
X141350Y-85650D01*
X141300Y-98250D02*
X141300Y-98550D01*
X141300Y-81050D02*
X141300Y-85650D01*
X141250Y-98250D02*
X141250Y-98550D01*
X141250Y-81050D02*
X141250Y-85650D01*
X141200Y-98250D02*
X141200Y-98550D01*
X141200Y-81050D02*
X141200Y-85650D01*
X141150Y-98250D02*
X141150Y-98550D01*
X141150Y-81050D02*
X141150Y-85650D01*
X141100Y-98250D02*
X141100Y-98550D01*
X141100Y-81050D02*
X141100Y-85650D01*
X141050Y-98250D02*
X141050Y-98550D01*
X141050Y-81050D02*
X141050Y-85650D01*
X141000Y-98250D02*
X141000Y-98550D01*
X141000Y-81050D02*
X141000Y-85650D01*
X140950Y-98250D02*
X140950Y-98550D01*
X140950Y-81050D02*
X140950Y-85650D01*
X140900Y-98250D02*
X140900Y-98550D01*
X140900Y-81050D02*
X140900Y-85650D01*
X140850Y-98250D02*
X140850Y-98550D01*
X140850Y-81050D02*
X140850Y-85650D01*
X140800Y-98250D02*
X140800Y-98550D01*
X140800Y-81050D02*
X140800Y-85650D01*
X140750Y-98250D02*
X140750Y-98550D01*
X140750Y-81050D02*
X140750Y-85650D01*
X140700Y-98250D02*
X140700Y-98550D01*
X140700Y-81050D02*
X140700Y-85650D01*
X140650Y-98250D02*
X140650Y-98550D01*
X140650Y-81050D02*
X140650Y-85650D01*
X140600Y-98250D02*
X140600Y-98550D01*
X140600Y-81050D02*
X140600Y-85650D01*
X140550Y-98250D02*
X140550Y-98550D01*
X140550Y-81050D02*
X140550Y-85650D01*
X140500Y-98250D02*
X140500Y-98550D01*
X140500Y-81050D02*
X140500Y-85650D01*
X140450Y-98250D02*
X140450Y-98550D01*
X140450Y-81050D02*
X140450Y-85650D01*
X140400Y-98250D02*
X140400Y-98550D01*
X140400Y-81050D02*
X140400Y-85650D01*
X140350Y-98250D02*
X140350Y-98550D01*
X140350Y-81050D02*
X140350Y-85650D01*
X140300Y-98250D02*
X140300Y-98550D01*
X140300Y-81050D02*
X140300Y-85650D01*
X140250Y-98250D02*
X140250Y-98550D01*
X140250Y-81050D02*
X140250Y-85650D01*
X140200Y-98250D02*
X140200Y-98550D01*
X140200Y-81050D02*
X140200Y-85650D01*
X140150Y-98250D02*
X140150Y-98550D01*
X140150Y-81050D02*
X140150Y-85650D01*
X140100Y-98250D02*
X140100Y-98550D01*
X140100Y-81050D02*
X140100Y-85650D01*
X140050Y-98250D02*
X140050Y-98550D01*
X140050Y-94500D02*
X140050Y-94550D01*
X140050Y-81050D02*
X140050Y-85650D01*
X140000Y-98250D02*
X140000Y-98550D01*
X140000Y-94450D02*
X140000Y-94550D01*
X140000Y-81050D02*
X140000Y-85650D01*
X139950Y-98250D02*
X139950Y-98550D01*
X139950Y-94400D02*
X139950Y-94550D01*
X139950Y-81050D02*
X139950Y-85650D01*
X139900Y-98250D02*
X139900Y-98550D01*
X139900Y-94350D02*
X139900Y-94550D01*
X139900Y-81050D02*
X139900Y-85650D01*
X139850Y-98250D02*
X139850Y-98550D01*
X139850Y-94300D02*
X139850Y-94550D01*
X139850Y-81050D02*
X139850Y-85650D01*
X139800Y-98250D02*
X139800Y-98550D01*
X139800Y-94200D02*
X139800Y-94550D01*
X139800Y-81050D02*
X139800Y-85650D01*
X139750Y-98250D02*
X139750Y-98550D01*
X139750Y-94100D02*
X139750Y-94550D01*
X139750Y-93100D02*
X139750Y-93300D01*
X139750Y-92100D02*
X139750Y-92300D01*
X139750Y-91100D02*
X139750Y-91300D01*
X139750Y-90100D02*
X139750Y-90300D01*
X139750Y-89100D02*
X139750Y-89300D01*
X139750Y-88100D02*
X139750Y-88300D01*
X139750Y-81050D02*
X139750Y-85650D01*
X139700Y-98250D02*
X139700Y-98550D01*
X139700Y-93950D02*
X139700Y-94550D01*
X139700Y-92950D02*
X139700Y-93450D01*
X139700Y-91950D02*
X139700Y-92450D01*
X139700Y-90950D02*
X139700Y-91450D01*
X139700Y-89950D02*
X139700Y-90450D01*
X139700Y-88950D02*
X139700Y-89450D01*
X139700Y-87950D02*
X139700Y-88450D01*
X139700Y-81050D02*
X139700Y-85650D01*
X139650Y-98250D02*
X139650Y-98550D01*
X139650Y-81050D02*
X139650Y-94600D01*
X139600Y-98250D02*
X139600Y-98550D01*
X139600Y-81050D02*
X139600Y-94600D01*
X139550Y-98250D02*
X139550Y-98550D01*
X139550Y-81050D02*
X139550Y-94650D01*
X139500Y-98250D02*
X139500Y-98550D01*
X139500Y-94250D02*
X139500Y-94650D01*
X139500Y-81050D02*
X139500Y-91950D01*
X139450Y-98250D02*
X139450Y-98550D01*
X139450Y-94400D02*
X139450Y-94700D01*
X139450Y-81050D02*
X139450Y-91950D01*
X139400Y-98250D02*
X139400Y-98550D01*
X139400Y-94500D02*
X139400Y-94700D01*
X139400Y-91350D02*
X139400Y-91950D01*
X139400Y-81050D02*
X139400Y-89050D01*
X139350Y-98250D02*
X139350Y-98550D01*
X139350Y-94600D02*
X139350Y-94750D01*
X139350Y-91500D02*
X139350Y-91950D01*
X139350Y-81050D02*
X139350Y-89050D01*
X139300Y-98250D02*
X139300Y-98550D01*
X139300Y-94650D02*
X139300Y-94800D01*
X139300Y-91600D02*
X139300Y-91950D01*
X139300Y-88950D02*
X139300Y-89050D01*
X139300Y-81050D02*
X139300Y-88450D01*
X139250Y-98250D02*
X139250Y-98550D01*
X139250Y-94700D02*
X139250Y-94850D01*
X139250Y-91700D02*
X139250Y-91950D01*
X139250Y-81050D02*
X139250Y-88300D01*
X139200Y-98250D02*
X139200Y-98550D01*
X139200Y-94750D02*
X139200Y-94950D01*
X139200Y-91750D02*
X139200Y-91950D01*
X139200Y-87750D02*
X139200Y-88200D01*
X139200Y-81050D02*
X139200Y-85650D01*
X139150Y-98250D02*
X139150Y-98550D01*
X139150Y-94800D02*
X139150Y-95050D01*
X139150Y-91800D02*
X139150Y-91950D01*
X139150Y-87750D02*
X139150Y-88100D01*
X139150Y-81050D02*
X139150Y-85650D01*
X139100Y-98250D02*
X139100Y-98550D01*
X139100Y-95700D02*
X139100Y-96150D01*
X139100Y-94850D02*
X139100Y-95150D01*
X139100Y-91850D02*
X139100Y-91950D01*
X139100Y-87750D02*
X139100Y-88050D01*
X139100Y-81050D02*
X139100Y-85650D01*
X139050Y-94900D02*
X139050Y-98550D01*
X139050Y-91900D02*
X139050Y-91950D01*
X139050Y-87750D02*
X139050Y-88000D01*
X139050Y-81050D02*
X139050Y-85650D01*
X139000Y-94900D02*
X139000Y-98550D01*
X139000Y-87750D02*
X139000Y-87950D01*
X139000Y-81050D02*
X139000Y-85650D01*
X138950Y-94950D02*
X138950Y-98550D01*
X138950Y-87750D02*
X138950Y-87900D01*
X138950Y-81050D02*
X138950Y-85650D01*
X138900Y-94950D02*
X138900Y-98550D01*
X138900Y-87750D02*
X138900Y-87850D01*
X138900Y-81050D02*
X138900Y-85650D01*
X138850Y-95000D02*
X138850Y-98550D01*
X138850Y-87750D02*
X138850Y-87800D01*
X138850Y-81050D02*
X138850Y-85650D01*
X138800Y-95000D02*
X138800Y-98550D01*
X138800Y-87750D02*
X138800Y-87800D01*
X138800Y-81050D02*
X138800Y-85650D01*
X138750Y-95000D02*
X138750Y-98550D01*
X138750Y-81050D02*
X138750Y-85650D01*
X138700Y-95050D02*
X138700Y-98550D01*
X138700Y-81050D02*
X138700Y-85650D01*
X138650Y-95050D02*
X138650Y-98550D01*
X138650Y-81050D02*
X138650Y-85650D01*
X138600Y-95050D02*
X138600Y-98550D01*
X138600Y-81050D02*
X138600Y-85650D01*
X138550Y-95050D02*
X138550Y-98550D01*
X138550Y-81050D02*
X138550Y-85650D01*
X138500Y-95050D02*
X138500Y-98550D01*
X138500Y-81050D02*
X138500Y-85650D01*
X138450Y-95050D02*
X138450Y-98550D01*
X138450Y-81050D02*
X138450Y-85650D01*
X138400Y-95050D02*
X138400Y-98550D01*
X138400Y-81050D02*
X138400Y-85650D01*
X138350Y-95050D02*
X138350Y-98550D01*
X138350Y-81050D02*
X138350Y-85650D01*
X138300Y-95050D02*
X138300Y-98550D01*
X138300Y-81050D02*
X138300Y-85650D01*
X138250Y-95000D02*
X138250Y-98550D01*
X138250Y-81050D02*
X138250Y-85650D01*
X138200Y-95000D02*
X138200Y-98550D01*
X138200Y-81050D02*
X138200Y-85650D01*
X138150Y-95000D02*
X138150Y-98550D01*
X138150Y-81050D02*
X138150Y-85650D01*
X138100Y-94950D02*
X138100Y-98550D01*
X138100Y-81050D02*
X138100Y-85650D01*
X138050Y-94950D02*
X138050Y-98550D01*
X138050Y-81050D02*
X138050Y-85650D01*
X138000Y-94900D02*
X138000Y-98550D01*
X138000Y-81050D02*
X138000Y-85650D01*
X137950Y-94900D02*
X137950Y-98550D01*
X137950Y-81050D02*
X137950Y-85650D01*
X137900Y-97450D02*
X137900Y-98550D01*
X137900Y-94850D02*
X137900Y-95150D01*
X137900Y-81050D02*
X137900Y-85650D01*
X137850Y-97600D02*
X137850Y-98550D01*
X137850Y-94800D02*
X137850Y-95150D01*
X137850Y-81050D02*
X137850Y-85650D01*
X137800Y-97700D02*
X137800Y-98550D01*
X137800Y-94750D02*
X137800Y-95150D01*
X137800Y-87750D02*
X137800Y-87800D01*
X137800Y-81050D02*
X137800Y-85650D01*
X137750Y-97800D02*
X137750Y-98550D01*
X137750Y-94700D02*
X137750Y-95150D01*
X137750Y-91900D02*
X137750Y-91950D01*
X137750Y-87750D02*
X137750Y-87800D01*
X137750Y-81050D02*
X137750Y-85650D01*
X137700Y-97850D02*
X137700Y-98550D01*
X137700Y-94650D02*
X137700Y-95150D01*
X137700Y-91850D02*
X137700Y-91950D01*
X137700Y-87750D02*
X137700Y-87850D01*
X137700Y-81050D02*
X137700Y-85650D01*
X137650Y-97900D02*
X137650Y-98550D01*
X137650Y-94600D02*
X137650Y-95150D01*
X137650Y-91800D02*
X137650Y-91950D01*
X137650Y-87750D02*
X137650Y-87900D01*
X137650Y-81050D02*
X137650Y-85650D01*
X137600Y-97950D02*
X137600Y-98550D01*
X137600Y-94500D02*
X137600Y-95150D01*
X137600Y-91750D02*
X137600Y-91950D01*
X137600Y-87750D02*
X137600Y-87950D01*
X137600Y-81050D02*
X137600Y-85650D01*
X137550Y-98000D02*
X137550Y-98550D01*
X137550Y-94400D02*
X137550Y-95150D01*
X137550Y-91700D02*
X137550Y-91950D01*
X137550Y-87750D02*
X137550Y-88000D01*
X137550Y-81050D02*
X137550Y-85650D01*
X137500Y-98050D02*
X137500Y-98550D01*
X137500Y-94250D02*
X137500Y-95150D01*
X137500Y-91600D02*
X137500Y-91950D01*
X137500Y-87750D02*
X137500Y-88050D01*
X137500Y-81050D02*
X137500Y-85650D01*
X137450Y-98100D02*
X137450Y-98550D01*
X137450Y-91500D02*
X137450Y-95150D01*
X137450Y-87750D02*
X137450Y-88100D01*
X137450Y-81050D02*
X137450Y-85650D01*
X137400Y-98100D02*
X137400Y-98550D01*
X137400Y-91350D02*
X137400Y-95150D01*
X137400Y-87750D02*
X137400Y-88200D01*
X137400Y-81050D02*
X137400Y-85650D01*
X137350Y-98150D02*
X137350Y-98550D01*
X137350Y-89100D02*
X137350Y-95150D01*
X137350Y-81050D02*
X137350Y-88300D01*
X137300Y-98150D02*
X137300Y-98550D01*
X137300Y-88950D02*
X137300Y-95150D01*
X137300Y-81050D02*
X137300Y-88450D01*
X137250Y-98200D02*
X137250Y-98550D01*
X137250Y-81050D02*
X137250Y-95150D01*
X137200Y-98200D02*
X137200Y-98550D01*
X137200Y-92050D02*
X137200Y-95150D01*
X137200Y-81050D02*
X137200Y-89750D01*
X137150Y-98200D02*
X137150Y-98550D01*
X137150Y-92200D02*
X137150Y-95150D01*
X137150Y-81050D02*
X137150Y-89750D01*
X137100Y-98250D02*
X137100Y-98550D01*
X137100Y-92300D02*
X137100Y-95150D01*
X137100Y-81050D02*
X137100Y-89750D01*
X137050Y-98250D02*
X137050Y-98550D01*
X137050Y-92400D02*
X137050Y-95150D01*
X137050Y-81050D02*
X137050Y-89750D01*
X137000Y-98250D02*
X137000Y-98550D01*
X137000Y-92450D02*
X137000Y-95150D01*
X137000Y-88750D02*
X137000Y-89750D01*
X137000Y-81050D02*
X137000Y-86850D01*
X136950Y-98250D02*
X136950Y-98550D01*
X136950Y-92500D02*
X136950Y-95150D01*
X136950Y-89100D02*
X136950Y-89750D01*
X136950Y-81050D02*
X136950Y-86850D01*
X136900Y-98250D02*
X136900Y-98550D01*
X136900Y-92550D02*
X136900Y-95150D01*
X136900Y-89250D02*
X136900Y-89750D01*
X136900Y-81050D02*
X136900Y-86850D01*
X136850Y-98250D02*
X136850Y-98550D01*
X136850Y-92600D02*
X136850Y-95150D01*
X136850Y-89300D02*
X136850Y-89750D01*
X136850Y-81050D02*
X136850Y-86850D01*
X136800Y-98250D02*
X136800Y-98550D01*
X136800Y-93350D02*
X136800Y-95150D01*
X136800Y-92650D02*
X136800Y-92850D01*
X136800Y-89400D02*
X136800Y-89750D01*
X136800Y-81050D02*
X136800Y-86850D01*
X136750Y-98250D02*
X136750Y-98550D01*
X136750Y-93500D02*
X136750Y-95150D01*
X136750Y-89450D02*
X136750Y-89750D01*
X136750Y-81050D02*
X136750Y-86850D01*
X136700Y-98250D02*
X136700Y-98550D01*
X136700Y-93600D02*
X136700Y-95150D01*
X136700Y-89500D02*
X136700Y-89750D01*
X136700Y-81050D02*
X136700Y-86850D01*
X136650Y-98200D02*
X136650Y-98550D01*
X136650Y-93700D02*
X136650Y-95150D01*
X136650Y-89550D02*
X136650Y-89750D01*
X136650Y-81050D02*
X136650Y-86850D01*
X136600Y-98200D02*
X136600Y-98550D01*
X136600Y-93750D02*
X136600Y-95150D01*
X136600Y-89550D02*
X136600Y-89750D01*
X136600Y-81050D02*
X136600Y-86850D01*
X136550Y-98200D02*
X136550Y-98550D01*
X136550Y-93800D02*
X136550Y-95150D01*
X136550Y-89600D02*
X136550Y-89750D01*
X136550Y-81050D02*
X136550Y-86850D01*
X136500Y-98150D02*
X136500Y-98550D01*
X136500Y-93850D02*
X136500Y-95150D01*
X136500Y-89650D02*
X136500Y-89750D01*
X136500Y-81050D02*
X136500Y-86850D01*
X136450Y-98150D02*
X136450Y-98550D01*
X136450Y-93900D02*
X136450Y-95150D01*
X136450Y-89650D02*
X136450Y-89750D01*
X136450Y-81050D02*
X136450Y-86850D01*
X136400Y-98100D02*
X136400Y-98550D01*
X136400Y-93950D02*
X136400Y-95150D01*
X136400Y-89650D02*
X136400Y-89750D01*
X136400Y-81050D02*
X136400Y-86850D01*
X136350Y-98100D02*
X136350Y-98550D01*
X136350Y-94000D02*
X136350Y-95150D01*
X136350Y-89700D02*
X136350Y-89750D01*
X136350Y-81050D02*
X136350Y-86850D01*
X136300Y-98050D02*
X136300Y-98550D01*
X136300Y-94000D02*
X136300Y-95150D01*
X136300Y-89700D02*
X136300Y-89750D01*
X136300Y-81050D02*
X136300Y-86850D01*
X136250Y-98000D02*
X136250Y-98550D01*
X136250Y-94050D02*
X136250Y-95150D01*
X136250Y-89700D02*
X136250Y-89750D01*
X136250Y-81050D02*
X136250Y-86850D01*
X136200Y-97950D02*
X136200Y-98550D01*
X136200Y-94050D02*
X136200Y-95150D01*
X136200Y-89700D02*
X136200Y-89750D01*
X136200Y-81050D02*
X136200Y-86850D01*
X136150Y-97900D02*
X136150Y-98550D01*
X136150Y-94100D02*
X136150Y-95150D01*
X136150Y-89700D02*
X136150Y-89750D01*
X136150Y-81050D02*
X136150Y-86850D01*
X136100Y-97850D02*
X136100Y-98550D01*
X136100Y-94100D02*
X136100Y-95150D01*
X136100Y-89700D02*
X136100Y-89750D01*
X136100Y-81050D02*
X136100Y-86850D01*
X136050Y-97800D02*
X136050Y-98550D01*
X136050Y-94100D02*
X136050Y-95150D01*
X136050Y-89700D02*
X136050Y-89750D01*
X136050Y-81050D02*
X136050Y-86850D01*
X136000Y-97700D02*
X136000Y-98550D01*
X136000Y-94150D02*
X136000Y-95150D01*
X136000Y-89700D02*
X136000Y-89750D01*
X136000Y-81050D02*
X136000Y-86850D01*
X135950Y-97600D02*
X135950Y-98550D01*
X135950Y-94150D02*
X135950Y-95150D01*
X135950Y-89700D02*
X135950Y-89750D01*
X135950Y-81050D02*
X135950Y-86850D01*
X135900Y-97450D02*
X135900Y-98550D01*
X135900Y-94150D02*
X135900Y-95150D01*
X135900Y-89700D02*
X135900Y-89750D01*
X135900Y-81050D02*
X135900Y-86850D01*
X135850Y-94150D02*
X135850Y-98550D01*
X135850Y-89700D02*
X135850Y-89750D01*
X135850Y-81050D02*
X135850Y-86850D01*
X135800Y-94150D02*
X135800Y-98550D01*
X135800Y-89650D02*
X135800Y-89750D01*
X135800Y-81050D02*
X135800Y-86850D01*
X135750Y-94150D02*
X135750Y-98550D01*
X135750Y-89650D02*
X135750Y-89750D01*
X135750Y-81050D02*
X135750Y-86850D01*
X135700Y-94150D02*
X135700Y-98550D01*
X135700Y-89650D02*
X135700Y-89750D01*
X135700Y-81050D02*
X135700Y-86850D01*
X135650Y-94150D02*
X135650Y-98550D01*
X135650Y-89600D02*
X135650Y-89750D01*
X135650Y-82400D02*
X135650Y-86850D01*
X135650Y-81050D02*
X135650Y-81800D01*
X135600Y-94150D02*
X135600Y-98550D01*
X135600Y-89550D02*
X135600Y-89750D01*
X135600Y-82550D02*
X135600Y-86850D01*
X135600Y-81050D02*
X135600Y-81650D01*
X135550Y-94100D02*
X135550Y-98550D01*
X135550Y-89550D02*
X135550Y-89750D01*
X135550Y-82600D02*
X135550Y-86850D01*
X135550Y-81050D02*
X135550Y-81600D01*
X135500Y-94100D02*
X135500Y-98550D01*
X135500Y-89500D02*
X135500Y-89750D01*
X135500Y-82700D02*
X135500Y-86850D01*
X135500Y-81050D02*
X135500Y-81500D01*
X135450Y-94100D02*
X135450Y-98550D01*
X135450Y-89450D02*
X135450Y-89750D01*
X135450Y-82750D02*
X135450Y-86850D01*
X135450Y-81050D02*
X135450Y-81450D01*
X135400Y-94050D02*
X135400Y-98550D01*
X135400Y-89400D02*
X135400Y-89750D01*
X135400Y-82800D02*
X135400Y-86850D01*
X135400Y-81050D02*
X135400Y-81400D01*
X135350Y-94050D02*
X135350Y-98550D01*
X135350Y-89300D02*
X135350Y-89750D01*
X135350Y-82850D02*
X135350Y-86850D01*
X135350Y-81050D02*
X135350Y-81350D01*
X135300Y-94000D02*
X135300Y-98550D01*
X135300Y-89250D02*
X135300Y-89750D01*
X135300Y-82850D02*
X135300Y-86850D01*
X135300Y-81050D02*
X135300Y-81350D01*
X135250Y-94000D02*
X135250Y-98550D01*
X135250Y-89100D02*
X135250Y-89750D01*
X135250Y-82900D02*
X135250Y-86850D01*
X135250Y-81050D02*
X135250Y-81300D01*
X135200Y-93950D02*
X135200Y-98550D01*
X135200Y-92050D02*
X135200Y-92250D01*
X135200Y-88750D02*
X135200Y-89750D01*
X135200Y-82950D02*
X135200Y-86850D01*
X135200Y-81050D02*
X135200Y-81250D01*
X135150Y-93900D02*
X135150Y-98550D01*
X135150Y-82950D02*
X135150Y-92300D01*
X135150Y-81050D02*
X135150Y-81250D01*
X135100Y-93850D02*
X135100Y-98550D01*
X135100Y-82950D02*
X135100Y-92350D01*
X135100Y-81050D02*
X135100Y-81250D01*
X135050Y-93800D02*
X135050Y-98550D01*
X135050Y-83000D02*
X135050Y-92400D01*
X135050Y-81050D02*
X135050Y-81200D01*
X135000Y-93750D02*
X135000Y-98550D01*
X135000Y-83000D02*
X135000Y-92450D01*
X135000Y-81050D02*
X135000Y-81200D01*
X134950Y-97400D02*
X134950Y-98550D01*
X134950Y-93700D02*
X134950Y-96800D01*
X134950Y-83000D02*
X134950Y-92500D01*
X134950Y-81050D02*
X134950Y-81200D01*
X134900Y-97550D02*
X134900Y-98550D01*
X134900Y-93600D02*
X134900Y-96650D01*
X134900Y-83000D02*
X134900Y-92600D01*
X134900Y-81050D02*
X134900Y-81200D01*
X134850Y-97700D02*
X134850Y-98550D01*
X134850Y-93500D02*
X134850Y-96500D01*
X134850Y-83000D02*
X134850Y-92700D01*
X134850Y-81050D02*
X134850Y-81200D01*
X134800Y-97800D02*
X134800Y-98550D01*
X134800Y-93350D02*
X134800Y-96400D01*
X134800Y-83000D02*
X134800Y-92850D01*
X134800Y-81050D02*
X134800Y-81200D01*
X134750Y-97900D02*
X134750Y-98550D01*
X134750Y-83000D02*
X134750Y-96300D01*
X134750Y-81050D02*
X134750Y-81200D01*
X134700Y-97950D02*
X134700Y-98550D01*
X134700Y-83000D02*
X134700Y-96250D01*
X134700Y-81050D02*
X134700Y-81200D01*
X134650Y-98000D02*
X134650Y-98550D01*
X134650Y-83000D02*
X134650Y-96200D01*
X134650Y-81050D02*
X134650Y-81200D01*
X134600Y-98050D02*
X134600Y-98550D01*
X134600Y-83000D02*
X134600Y-96150D01*
X134600Y-81050D02*
X134600Y-81200D01*
X134550Y-98100D02*
X134550Y-98550D01*
X134550Y-83000D02*
X134550Y-96100D01*
X134550Y-81050D02*
X134550Y-81200D01*
X134500Y-98150D02*
X134500Y-98550D01*
X134500Y-82950D02*
X134500Y-96050D01*
X134500Y-81050D02*
X134500Y-81250D01*
X134450Y-98200D02*
X134450Y-98550D01*
X134450Y-82950D02*
X134450Y-96000D01*
X134450Y-81050D02*
X134450Y-81250D01*
X134400Y-98250D02*
X134400Y-98550D01*
X134400Y-82950D02*
X134400Y-95950D01*
X134400Y-81050D02*
X134400Y-81250D01*
X134350Y-98300D02*
X134350Y-98550D01*
X134350Y-82900D02*
X134350Y-95900D01*
X134350Y-81050D02*
X134350Y-81300D01*
X134300Y-98300D02*
X134300Y-98550D01*
X134300Y-82850D02*
X134300Y-95900D01*
X134300Y-81050D02*
X134300Y-81350D01*
X134250Y-98350D02*
X134250Y-98550D01*
X134250Y-82900D02*
X134250Y-95850D01*
X134250Y-81050D02*
X134250Y-81300D01*
X134200Y-98350D02*
X134200Y-98550D01*
X134200Y-89950D02*
X134200Y-95850D01*
X134200Y-88950D02*
X134200Y-89450D01*
X134200Y-82950D02*
X134200Y-88450D01*
X134200Y-81050D02*
X134200Y-81250D01*
X134150Y-98400D02*
X134150Y-98550D01*
X134150Y-90100D02*
X134150Y-95800D01*
X134150Y-89100D02*
X134150Y-89300D01*
X134150Y-82950D02*
X134150Y-88300D01*
X134150Y-81050D02*
X134150Y-81250D01*
X134100Y-98400D02*
X134100Y-98550D01*
X134100Y-90200D02*
X134100Y-95800D01*
X134100Y-82950D02*
X134100Y-88200D01*
X134100Y-81050D02*
X134100Y-81250D01*
X134050Y-98400D02*
X134050Y-98550D01*
X134050Y-90300D02*
X134050Y-95800D01*
X134050Y-83000D02*
X134050Y-88100D01*
X134050Y-81050D02*
X134050Y-81200D01*
X134000Y-98450D02*
X134000Y-98550D01*
X134000Y-90350D02*
X134000Y-95750D01*
X134000Y-83000D02*
X134000Y-88050D01*
X134000Y-81050D02*
X134000Y-81200D01*
X133950Y-98450D02*
X133950Y-98550D01*
X133950Y-90400D02*
X133950Y-95750D01*
X133950Y-83000D02*
X133950Y-88000D01*
X133950Y-81050D02*
X133950Y-81200D01*
X133900Y-98450D02*
X133900Y-98550D01*
X133900Y-90450D02*
X133900Y-95750D01*
X133900Y-83000D02*
X133900Y-87950D01*
X133900Y-81050D02*
X133900Y-81200D01*
X133850Y-98500D02*
X133850Y-98550D01*
X133850Y-90500D02*
X133850Y-95700D01*
X133850Y-83000D02*
X133850Y-87900D01*
X133850Y-81050D02*
X133850Y-81200D01*
X133800Y-98500D02*
X133800Y-98550D01*
X133800Y-90550D02*
X133800Y-95700D01*
X133800Y-83000D02*
X133800Y-87850D01*
X133800Y-81050D02*
X133800Y-81200D01*
X133750Y-98500D02*
X133750Y-98550D01*
X133750Y-90600D02*
X133750Y-95700D01*
X133750Y-83000D02*
X133750Y-87800D01*
X133750Y-81050D02*
X133750Y-81200D01*
X133700Y-98500D02*
X133700Y-98550D01*
X133700Y-90600D02*
X133700Y-95700D01*
X133700Y-83000D02*
X133700Y-87800D01*
X133700Y-81050D02*
X133700Y-81200D01*
X133650Y-98500D02*
X133650Y-98550D01*
X133650Y-90650D02*
X133650Y-95700D01*
X133650Y-83000D02*
X133650Y-87750D01*
X133650Y-81050D02*
X133650Y-81200D01*
X133600Y-98500D02*
X133600Y-98550D01*
X133600Y-90650D02*
X133600Y-95700D01*
X133600Y-83000D02*
X133600Y-87750D01*
X133600Y-81050D02*
X133600Y-81200D01*
X133550Y-98500D02*
X133550Y-98550D01*
X133550Y-90700D02*
X133550Y-95700D01*
X133550Y-83000D02*
X133550Y-87700D01*
X133550Y-81050D02*
X133550Y-81200D01*
X133500Y-98500D02*
X133500Y-98550D01*
X133500Y-90700D02*
X133500Y-95700D01*
X133500Y-82950D02*
X133500Y-87700D01*
X133500Y-81050D02*
X133500Y-81250D01*
X133450Y-98500D02*
X133450Y-98550D01*
X133450Y-90700D02*
X133450Y-95700D01*
X133450Y-82950D02*
X133450Y-87700D01*
X133450Y-81050D02*
X133450Y-81250D01*
X133400Y-98500D02*
X133400Y-98550D01*
X133400Y-90750D02*
X133400Y-95700D01*
X133400Y-82950D02*
X133400Y-87650D01*
X133400Y-81050D02*
X133400Y-81250D01*
X133350Y-98500D02*
X133350Y-98550D01*
X133350Y-90750D02*
X133350Y-95700D01*
X133350Y-82900D02*
X133350Y-87650D01*
X133350Y-81050D02*
X133350Y-81300D01*
X133300Y-98450D02*
X133300Y-98550D01*
X133300Y-90750D02*
X133300Y-95750D01*
X133300Y-82850D02*
X133300Y-87650D01*
X133300Y-81050D02*
X133300Y-81350D01*
X133250Y-98450D02*
X133250Y-98550D01*
X133250Y-90750D02*
X133250Y-95750D01*
X133250Y-82900D02*
X133250Y-87650D01*
X133250Y-81050D02*
X133250Y-81300D01*
X133200Y-98450D02*
X133200Y-98550D01*
X133200Y-90750D02*
X133200Y-95750D01*
X133200Y-82950D02*
X133200Y-87650D01*
X133200Y-81050D02*
X133200Y-81250D01*
X133150Y-98400D02*
X133150Y-98550D01*
X133150Y-90750D02*
X133150Y-95800D01*
X133150Y-82950D02*
X133150Y-87650D01*
X133150Y-81050D02*
X133150Y-81250D01*
X133100Y-98400D02*
X133100Y-98550D01*
X133100Y-90750D02*
X133100Y-95800D01*
X133100Y-82950D02*
X133100Y-87650D01*
X133100Y-81050D02*
X133100Y-81250D01*
X133050Y-98400D02*
X133050Y-98550D01*
X133050Y-90750D02*
X133050Y-95800D01*
X133050Y-83000D02*
X133050Y-87650D01*
X133050Y-81050D02*
X133050Y-81200D01*
X133000Y-98350D02*
X133000Y-98550D01*
X133000Y-90750D02*
X133000Y-95850D01*
X133000Y-83000D02*
X133000Y-87650D01*
X133000Y-81050D02*
X133000Y-81200D01*
X132950Y-98350D02*
X132950Y-98550D01*
X132950Y-90700D02*
X132950Y-95850D01*
X132950Y-83000D02*
X132950Y-87700D01*
X132950Y-81050D02*
X132950Y-81200D01*
X132900Y-98300D02*
X132900Y-98550D01*
X132900Y-90700D02*
X132900Y-95900D01*
X132900Y-83000D02*
X132900Y-87700D01*
X132900Y-81050D02*
X132900Y-81200D01*
X132850Y-98300D02*
X132850Y-98550D01*
X132850Y-90700D02*
X132850Y-95900D01*
X132850Y-83000D02*
X132850Y-87700D01*
X132850Y-81050D02*
X132850Y-81200D01*
X132800Y-98250D02*
X132800Y-98550D01*
X132800Y-90650D02*
X132800Y-95950D01*
X132800Y-83000D02*
X132800Y-87750D01*
X132800Y-81050D02*
X132800Y-81200D01*
X132750Y-98200D02*
X132750Y-98550D01*
X132750Y-90650D02*
X132750Y-96000D01*
X132750Y-83000D02*
X132750Y-87750D01*
X132750Y-81050D02*
X132750Y-81200D01*
X132700Y-98150D02*
X132700Y-98550D01*
X132700Y-90600D02*
X132700Y-96050D01*
X132700Y-83000D02*
X132700Y-87800D01*
X132700Y-81050D02*
X132700Y-81200D01*
X132650Y-98100D02*
X132650Y-98550D01*
X132650Y-90600D02*
X132650Y-96100D01*
X132650Y-83000D02*
X132650Y-87800D01*
X132650Y-81050D02*
X132650Y-81200D01*
X132600Y-98050D02*
X132600Y-98550D01*
X132600Y-90550D02*
X132600Y-96150D01*
X132600Y-83000D02*
X132600Y-87850D01*
X132600Y-81050D02*
X132600Y-81200D01*
X132550Y-98100D02*
X132550Y-98550D01*
X132550Y-90500D02*
X132550Y-96100D01*
X132550Y-83000D02*
X132550Y-87900D01*
X132550Y-81050D02*
X132550Y-81200D01*
X132500Y-98150D02*
X132500Y-98550D01*
X132500Y-90450D02*
X132500Y-96050D01*
X132500Y-82950D02*
X132500Y-87950D01*
X132500Y-81050D02*
X132500Y-81250D01*
X132450Y-98200D02*
X132450Y-98550D01*
X132450Y-90400D02*
X132450Y-96000D01*
X132450Y-82950D02*
X132450Y-88000D01*
X132450Y-81050D02*
X132450Y-81250D01*
X132400Y-98250D02*
X132400Y-98550D01*
X132400Y-90350D02*
X132400Y-95950D01*
X132400Y-82950D02*
X132400Y-88050D01*
X132400Y-81050D02*
X132400Y-81250D01*
X132350Y-98300D02*
X132350Y-98550D01*
X132350Y-90300D02*
X132350Y-95900D01*
X132350Y-82900D02*
X132350Y-88100D01*
X132350Y-81050D02*
X132350Y-81300D01*
X132300Y-98300D02*
X132300Y-98550D01*
X132300Y-90200D02*
X132300Y-95900D01*
X132300Y-82850D02*
X132300Y-88200D01*
X132300Y-81050D02*
X132300Y-81350D01*
X132250Y-98350D02*
X132250Y-98550D01*
X132250Y-90100D02*
X132250Y-95850D01*
X132250Y-89100D02*
X132250Y-89300D01*
X132250Y-82900D02*
X132250Y-88300D01*
X132250Y-81050D02*
X132250Y-81300D01*
X132200Y-98350D02*
X132200Y-98550D01*
X132200Y-89950D02*
X132200Y-95850D01*
X132200Y-88950D02*
X132200Y-89450D01*
X132200Y-82950D02*
X132200Y-88450D01*
X132200Y-81050D02*
X132200Y-81250D01*
X132150Y-98400D02*
X132150Y-98550D01*
X132150Y-82950D02*
X132150Y-95800D01*
X132150Y-81050D02*
X132150Y-81250D01*
X132100Y-98400D02*
X132100Y-98550D01*
X132100Y-82950D02*
X132100Y-95800D01*
X132100Y-81050D02*
X132100Y-81250D01*
X132050Y-98400D02*
X132050Y-98550D01*
X132050Y-83000D02*
X132050Y-95800D01*
X132050Y-81050D02*
X132050Y-81200D01*
X132000Y-98450D02*
X132000Y-98550D01*
X132000Y-83000D02*
X132000Y-95750D01*
X132000Y-81050D02*
X132000Y-81200D01*
X131950Y-98450D02*
X131950Y-98550D01*
X131950Y-83000D02*
X131950Y-95750D01*
X131950Y-81050D02*
X131950Y-81200D01*
X131900Y-98450D02*
X131900Y-98550D01*
X131900Y-83000D02*
X131900Y-95750D01*
X131900Y-81050D02*
X131900Y-81200D01*
X131850Y-98500D02*
X131850Y-98550D01*
X131850Y-83000D02*
X131850Y-95700D01*
X131850Y-81050D02*
X131850Y-81200D01*
X131800Y-98500D02*
X131800Y-98550D01*
X131800Y-83000D02*
X131800Y-95700D01*
X131800Y-81050D02*
X131800Y-81200D01*
X131750Y-98500D02*
X131750Y-98550D01*
X131750Y-83000D02*
X131750Y-95700D01*
X131750Y-81050D02*
X131750Y-81200D01*
X131700Y-98500D02*
X131700Y-98550D01*
X131700Y-83000D02*
X131700Y-95700D01*
X131700Y-81050D02*
X131700Y-81200D01*
X131650Y-98500D02*
X131650Y-98550D01*
X131650Y-83000D02*
X131650Y-95700D01*
X131650Y-81050D02*
X131650Y-81200D01*
X131600Y-98500D02*
X131600Y-98550D01*
X131600Y-83000D02*
X131600Y-95700D01*
X131600Y-81050D02*
X131600Y-81200D01*
X131550Y-98500D02*
X131550Y-98550D01*
X131550Y-83000D02*
X131550Y-95700D01*
X131550Y-81050D02*
X131550Y-81200D01*
X131500Y-98500D02*
X131500Y-98550D01*
X131500Y-82950D02*
X131500Y-95700D01*
X131500Y-81050D02*
X131500Y-81250D01*
X131450Y-98500D02*
X131450Y-98550D01*
X131450Y-82950D02*
X131450Y-95700D01*
X131450Y-81050D02*
X131450Y-81250D01*
X131400Y-98500D02*
X131400Y-98550D01*
X131400Y-82950D02*
X131400Y-95700D01*
X131400Y-81050D02*
X131400Y-81250D01*
X131350Y-98500D02*
X131350Y-98550D01*
X131350Y-82900D02*
X131350Y-95700D01*
X131350Y-81050D02*
X131350Y-81300D01*
X131300Y-98450D02*
X131300Y-98550D01*
X131300Y-82850D02*
X131300Y-95750D01*
X131300Y-81050D02*
X131300Y-81350D01*
X131250Y-98450D02*
X131250Y-98550D01*
X131250Y-82900D02*
X131250Y-95750D01*
X131250Y-81050D02*
X131250Y-81300D01*
X131200Y-98450D02*
X131200Y-98550D01*
X131200Y-82950D02*
X131200Y-95750D01*
X131200Y-81050D02*
X131200Y-81250D01*
X131150Y-98400D02*
X131150Y-98550D01*
X131150Y-82950D02*
X131150Y-95800D01*
X131150Y-81050D02*
X131150Y-81250D01*
X131100Y-98400D02*
X131100Y-98550D01*
X131100Y-82950D02*
X131100Y-95800D01*
X131100Y-81050D02*
X131100Y-81250D01*
X131050Y-98400D02*
X131050Y-98550D01*
X131050Y-83000D02*
X131050Y-95800D01*
X131050Y-81050D02*
X131050Y-81200D01*
X131000Y-98350D02*
X131000Y-98550D01*
X131000Y-83000D02*
X131000Y-95850D01*
X131000Y-81050D02*
X131000Y-81200D01*
X130950Y-98350D02*
X130950Y-98550D01*
X130950Y-83000D02*
X130950Y-95850D01*
X130950Y-81050D02*
X130950Y-81200D01*
X130900Y-98300D02*
X130900Y-98550D01*
X130900Y-83000D02*
X130900Y-95900D01*
X130900Y-81050D02*
X130900Y-81200D01*
X130850Y-98300D02*
X130850Y-98550D01*
X130850Y-83000D02*
X130850Y-95900D01*
X130850Y-81050D02*
X130850Y-81200D01*
X130800Y-98250D02*
X130800Y-98550D01*
X130800Y-83000D02*
X130800Y-95950D01*
X130800Y-81050D02*
X130800Y-81200D01*
X130750Y-98200D02*
X130750Y-98550D01*
X130750Y-83000D02*
X130750Y-96000D01*
X130750Y-81050D02*
X130750Y-81200D01*
X130700Y-98150D02*
X130700Y-98550D01*
X130700Y-83050D02*
X130700Y-96050D01*
X130700Y-81050D02*
X130700Y-81150D01*
X130650Y-98100D02*
X130650Y-98550D01*
X130650Y-83050D02*
X130650Y-96100D01*
X130650Y-81050D02*
X130650Y-81150D01*
X130600Y-98050D02*
X130600Y-98550D01*
X130600Y-83050D02*
X130600Y-96150D01*
X130600Y-81050D02*
X130600Y-81150D01*
X130550Y-98100D02*
X130550Y-98550D01*
X130550Y-83050D02*
X130550Y-96100D01*
X130550Y-81050D02*
X130550Y-81150D01*
X130500Y-98150D02*
X130500Y-98550D01*
X130500Y-83050D02*
X130500Y-96050D01*
X130500Y-81050D02*
X130500Y-81150D01*
X130450Y-98200D02*
X130450Y-98550D01*
X130450Y-83050D02*
X130450Y-96000D01*
X130450Y-81050D02*
X130450Y-81150D01*
X130400Y-98250D02*
X130400Y-98550D01*
X130400Y-83050D02*
X130400Y-95950D01*
X130400Y-81050D02*
X130400Y-81150D01*
X130350Y-98300D02*
X130350Y-98550D01*
X130350Y-83050D02*
X130350Y-95900D01*
X130350Y-81050D02*
X130350Y-81150D01*
X130300Y-98300D02*
X130300Y-98550D01*
X130300Y-83050D02*
X130300Y-95900D01*
X130300Y-81050D02*
X130300Y-81150D01*
X130250Y-98350D02*
X130250Y-98550D01*
X130250Y-83050D02*
X130250Y-95850D01*
X130250Y-81050D02*
X130250Y-81150D01*
X130200Y-98350D02*
X130200Y-98550D01*
X130200Y-83050D02*
X130200Y-95850D01*
X130200Y-81050D02*
X130200Y-81150D01*
X130150Y-98400D02*
X130150Y-98550D01*
X130150Y-83050D02*
X130150Y-95800D01*
X130150Y-81050D02*
X130150Y-81150D01*
X130100Y-98400D02*
X130100Y-98550D01*
X130100Y-83050D02*
X130100Y-95800D01*
X130100Y-81050D02*
X130100Y-81150D01*
X130050Y-98400D02*
X130050Y-98550D01*
X130050Y-83050D02*
X130050Y-95800D01*
X130050Y-81050D02*
X130050Y-81150D01*
X130000Y-98450D02*
X130000Y-98550D01*
X130000Y-83050D02*
X130000Y-95750D01*
X130000Y-81050D02*
X130000Y-81150D01*
X129950Y-98450D02*
X129950Y-98550D01*
X129950Y-83050D02*
X129950Y-95750D01*
X129950Y-81050D02*
X129950Y-81150D01*
X129900Y-98450D02*
X129900Y-98550D01*
X129900Y-83050D02*
X129900Y-95750D01*
X129900Y-81050D02*
X129900Y-81150D01*
X129850Y-98500D02*
X129850Y-98550D01*
X129850Y-83050D02*
X129850Y-95700D01*
X129850Y-81050D02*
X129850Y-81150D01*
X129800Y-98500D02*
X129800Y-98550D01*
X129800Y-83050D02*
X129800Y-95700D01*
X129800Y-81050D02*
X129800Y-81150D01*
X129750Y-98500D02*
X129750Y-98550D01*
X129750Y-83050D02*
X129750Y-95700D01*
X129750Y-81050D02*
X129750Y-81150D01*
X129700Y-98500D02*
X129700Y-98550D01*
X129700Y-83050D02*
X129700Y-95700D01*
X129700Y-81050D02*
X129700Y-81150D01*
X129650Y-98500D02*
X129650Y-98550D01*
X129650Y-88800D02*
X129650Y-95700D01*
X129650Y-83050D02*
X129650Y-88200D01*
X129650Y-81050D02*
X129650Y-81150D01*
X129600Y-98500D02*
X129600Y-98550D01*
X129600Y-88950D02*
X129600Y-95700D01*
X129600Y-83050D02*
X129600Y-88050D01*
X129600Y-81050D02*
X129600Y-81150D01*
X129550Y-98500D02*
X129550Y-98550D01*
X129550Y-89100D02*
X129550Y-95700D01*
X129550Y-83050D02*
X129550Y-87900D01*
X129550Y-81050D02*
X129550Y-81150D01*
X129500Y-98500D02*
X129500Y-98550D01*
X129500Y-89200D02*
X129500Y-95700D01*
X129500Y-83050D02*
X129500Y-87800D01*
X129500Y-81050D02*
X129500Y-81150D01*
X129450Y-98500D02*
X129450Y-98550D01*
X129450Y-89300D02*
X129450Y-95700D01*
X129450Y-83050D02*
X129450Y-87700D01*
X129450Y-81050D02*
X129450Y-81150D01*
X129400Y-98500D02*
X129400Y-98550D01*
X129400Y-89350D02*
X129400Y-95700D01*
X129400Y-83050D02*
X129400Y-87650D01*
X129400Y-81050D02*
X129400Y-81150D01*
X129350Y-98500D02*
X129350Y-98550D01*
X129350Y-89400D02*
X129350Y-95700D01*
X129350Y-83050D02*
X129350Y-87600D01*
X129350Y-81050D02*
X129350Y-81150D01*
X129300Y-98450D02*
X129300Y-98550D01*
X129300Y-89450D02*
X129300Y-95750D01*
X129300Y-83050D02*
X129300Y-87550D01*
X129300Y-81050D02*
X129300Y-81150D01*
X129250Y-98450D02*
X129250Y-98550D01*
X129250Y-89500D02*
X129250Y-95750D01*
X129250Y-83050D02*
X129250Y-87500D01*
X129250Y-81050D02*
X129250Y-81150D01*
X129200Y-98450D02*
X129200Y-98550D01*
X129200Y-89550D02*
X129200Y-95750D01*
X129200Y-83050D02*
X129200Y-87450D01*
X129200Y-81050D02*
X129200Y-81150D01*
X129150Y-98400D02*
X129150Y-98550D01*
X129150Y-89600D02*
X129150Y-95800D01*
X129150Y-83050D02*
X129150Y-87400D01*
X129150Y-81050D02*
X129150Y-81150D01*
X129100Y-98400D02*
X129100Y-98550D01*
X129100Y-89650D02*
X129100Y-95800D01*
X129100Y-83050D02*
X129100Y-87350D01*
X129100Y-81050D02*
X129100Y-81150D01*
X129050Y-98400D02*
X129050Y-98550D01*
X129050Y-89700D02*
X129050Y-95800D01*
X129050Y-83050D02*
X129050Y-87300D01*
X129050Y-81050D02*
X129050Y-81150D01*
X129000Y-98350D02*
X129000Y-98550D01*
X129000Y-89700D02*
X129000Y-95850D01*
X129000Y-83050D02*
X129000Y-87300D01*
X129000Y-81050D02*
X129000Y-81150D01*
X128950Y-98350D02*
X128950Y-98550D01*
X128950Y-89750D02*
X128950Y-95850D01*
X128950Y-83050D02*
X128950Y-87250D01*
X128950Y-81050D02*
X128950Y-81150D01*
X128900Y-98300D02*
X128900Y-98550D01*
X128900Y-89750D02*
X128900Y-95900D01*
X128900Y-83050D02*
X128900Y-87250D01*
X128900Y-81050D02*
X128900Y-81150D01*
X128850Y-98300D02*
X128850Y-98550D01*
X128850Y-89800D02*
X128850Y-95900D01*
X128850Y-81050D02*
X128850Y-87200D01*
X128800Y-98250D02*
X128800Y-98550D01*
X128800Y-89800D02*
X128800Y-95950D01*
X128800Y-81050D02*
X128800Y-87200D01*
X128750Y-98200D02*
X128750Y-98550D01*
X128750Y-89800D02*
X128750Y-96000D01*
X128750Y-81050D02*
X128750Y-87200D01*
X128700Y-98150D02*
X128700Y-98550D01*
X128700Y-89850D02*
X128700Y-96050D01*
X128700Y-81050D02*
X128700Y-87150D01*
X128650Y-98100D02*
X128650Y-98550D01*
X128650Y-89850D02*
X128650Y-96100D01*
X128650Y-81050D02*
X128650Y-87150D01*
X128600Y-98050D02*
X128600Y-98550D01*
X128600Y-89850D02*
X128600Y-96150D01*
X128600Y-81050D02*
X128600Y-87150D01*
X128550Y-98000D02*
X128550Y-98550D01*
X128550Y-89900D02*
X128550Y-96200D01*
X128550Y-81050D02*
X128550Y-87100D01*
X128500Y-97950D02*
X128500Y-98550D01*
X128500Y-89900D02*
X128500Y-96250D01*
X128500Y-81050D02*
X128500Y-87100D01*
X128450Y-97900D02*
X128450Y-98550D01*
X128450Y-89900D02*
X128450Y-96300D01*
X128450Y-81050D02*
X128450Y-87100D01*
X128400Y-97800D02*
X128400Y-98550D01*
X128400Y-89900D02*
X128400Y-96400D01*
X128400Y-81050D02*
X128400Y-87100D01*
X128350Y-97700D02*
X128350Y-98550D01*
X128350Y-89900D02*
X128350Y-96500D01*
X128350Y-81050D02*
X128350Y-87100D01*
X128300Y-97550D02*
X128300Y-98550D01*
X128300Y-89900D02*
X128300Y-96650D01*
X128300Y-81050D02*
X128300Y-87100D01*
X128250Y-97400D02*
X128250Y-98550D01*
X128250Y-89900D02*
X128250Y-96800D01*
X128250Y-81050D02*
X128250Y-87100D01*
X128200Y-89900D02*
X128200Y-98550D01*
X128200Y-81050D02*
X128200Y-87100D01*
X128150Y-89900D02*
X128150Y-98550D01*
X128150Y-81050D02*
X128150Y-87100D01*
X128100Y-89900D02*
X128100Y-98550D01*
X128100Y-81050D02*
X128100Y-87100D01*
X128050Y-89900D02*
X128050Y-98550D01*
X128050Y-81050D02*
X128050Y-87100D01*
X128000Y-89850D02*
X128000Y-98550D01*
X128000Y-81050D02*
X128000Y-87150D01*
X127950Y-89850D02*
X127950Y-98550D01*
X127950Y-81050D02*
X127950Y-87150D01*
X127900Y-89850D02*
X127900Y-98550D01*
X127900Y-81050D02*
X127900Y-87150D01*
X127850Y-89800D02*
X127850Y-98550D01*
X127850Y-81050D02*
X127850Y-87200D01*
X127800Y-89800D02*
X127800Y-98550D01*
X127800Y-81050D02*
X127800Y-87200D01*
X127750Y-89800D02*
X127750Y-98550D01*
X127750Y-81050D02*
X127750Y-87200D01*
X127700Y-89750D02*
X127700Y-98550D01*
X127700Y-81050D02*
X127700Y-87250D01*
X127650Y-89750D02*
X127650Y-98550D01*
X127650Y-81050D02*
X127650Y-87250D01*
X127600Y-89700D02*
X127600Y-98550D01*
X127600Y-81050D02*
X127600Y-87300D01*
X127550Y-89700D02*
X127550Y-98550D01*
X127550Y-81050D02*
X127550Y-87300D01*
X127500Y-89650D02*
X127500Y-98550D01*
X127500Y-81050D02*
X127500Y-87350D01*
X127450Y-89600D02*
X127450Y-98550D01*
X127450Y-81050D02*
X127450Y-87400D01*
X127400Y-89550D02*
X127400Y-98550D01*
X127400Y-81050D02*
X127400Y-87450D01*
X127350Y-89500D02*
X127350Y-98550D01*
X127350Y-81050D02*
X127350Y-87500D01*
X127300Y-89450D02*
X127300Y-98550D01*
X127300Y-81050D02*
X127300Y-87550D01*
X127250Y-89400D02*
X127250Y-98550D01*
X127250Y-81050D02*
X127250Y-87600D01*
X127200Y-89350D02*
X127200Y-98550D01*
X127200Y-81050D02*
X127200Y-87650D01*
X127150Y-89300D02*
X127150Y-98550D01*
X127150Y-81050D02*
X127150Y-87700D01*
X127100Y-89200D02*
X127100Y-98550D01*
X127100Y-81050D02*
X127100Y-87800D01*
X127050Y-89100D02*
X127050Y-98550D01*
X127050Y-81050D02*
X127050Y-87900D01*
X127000Y-88950D02*
X127000Y-98550D01*
X127000Y-81050D02*
X127000Y-88050D01*
X126950Y-88800D02*
X126950Y-98550D01*
X126950Y-81050D02*
X126950Y-88200D01*
X126900Y-81050D02*
X126900Y-98550D01*
X126850Y-81050D02*
X126850Y-98550D01*
X126800Y-81050D02*
X126800Y-98550D01*
X126750Y-81050D02*
X126750Y-98550D01*
X126700Y-81050D02*
X126700Y-98550D01*
X126650Y-81050D02*
X126650Y-98550D01*
X126600Y-81050D02*
X126600Y-98550D01*
X126550Y-81050D02*
X126550Y-98550D01*
X126500Y-81050D02*
X126500Y-98550D01*
X126450Y-81050D02*
X126450Y-98550D01*
X126400Y-81050D02*
X126400Y-98550D01*
X126350Y-81050D02*
X126350Y-98550D01*
X126300Y-81050D02*
X126300Y-98550D01*
X126250Y-81050D02*
X126250Y-98550D01*
X126200Y-81050D02*
X126200Y-98550D01*
X126150Y-81050D02*
X126150Y-98550D01*
X126100Y-81050D02*
X126100Y-98550D01*
X126050Y-81050D02*
X126050Y-98550D01*
X126000Y-81050D02*
X126000Y-98550D01*
X125950Y-81050D02*
X125950Y-98550D01*
X125900Y-81050D02*
X125900Y-98550D01*
X125850Y-81050D02*
X125850Y-98550D01*
X125800Y-81050D02*
X125800Y-98550D01*
X125750Y-81050D02*
X125750Y-98550D01*
X125700Y-81050D02*
X125700Y-98550D01*
X125650Y-81050D02*
X125650Y-98550D01*
X125600Y-81050D02*
X125600Y-98550D01*
X125550Y-81050D02*
X125550Y-98550D01*
X125500Y-81050D02*
X125500Y-98550D01*
X125450Y-81050D02*
X125450Y-98550D01*
X125400Y-81050D02*
X125400Y-98550D01*
X125350Y-81050D02*
X125350Y-98550D01*
X125300Y-81050D02*
X125300Y-98550D01*
X125250Y-81050D02*
X125250Y-98550D01*
X125200Y-81050D02*
X125200Y-98550D01*
X125150Y-81050D02*
X125150Y-98550D01*
X125100Y-81050D02*
X125100Y-98550D01*
X125050Y-81050D02*
X125050Y-98550D01*
X125000Y-81050D02*
X125000Y-98550D01*
X124950Y-81050D02*
X124950Y-98550D01*
X124900Y-98000D02*
X124900Y-98550D01*
X124900Y-82200D02*
X124900Y-97400D01*
X124900Y-81050D02*
X124900Y-81600D01*
X124850Y-98200D02*
X124850Y-98550D01*
X124850Y-82400D02*
X124850Y-97200D01*
X124850Y-81050D02*
X124850Y-81400D01*
X124800Y-98300D02*
X124800Y-98550D01*
X124800Y-82500D02*
X124800Y-97100D01*
X124800Y-81050D02*
X124800Y-81300D01*
X124750Y-98400D02*
X124750Y-98550D01*
X124750Y-82600D02*
X124750Y-97000D01*
X124750Y-81050D02*
X124750Y-81200D01*
X124700Y-98500D02*
X124700Y-98550D01*
X124700Y-82700D02*
X124700Y-96900D01*
X124700Y-81050D02*
X124700Y-81100D01*
X124650Y-82750D02*
X124650Y-96850D01*
X124600Y-82850D02*
X124600Y-96750D01*
X124550Y-82900D02*
X124550Y-96700D01*
X124500Y-82950D02*
X124500Y-96650D01*
X124450Y-83000D02*
X124450Y-96600D01*
X124400Y-83050D02*
X124400Y-96550D01*
X124350Y-83050D02*
X124350Y-96550D01*
X124300Y-83100D02*
X124300Y-96500D01*
X124250Y-83150D02*
X124250Y-96450D01*
X124200Y-83150D02*
X124200Y-96450D01*
X124150Y-83200D02*
X124150Y-96400D01*
X124100Y-83200D02*
X124100Y-96400D01*
X124050Y-83250D02*
X124050Y-96350D01*
X124000Y-83250D02*
X124000Y-96350D01*
X123950Y-83300D02*
X123950Y-96300D01*
X123900Y-83300D02*
X123900Y-96300D01*
X123850Y-83300D02*
X123850Y-96300D01*
X123800Y-83300D02*
X123800Y-96300D01*
X123750Y-83350D02*
X123750Y-96250D01*
X123700Y-83350D02*
X123700Y-96250D01*
X123650Y-83350D02*
X123650Y-96250D01*
X123600Y-83350D02*
X123600Y-96250D01*
X123550Y-83350D02*
X123550Y-96250D01*
X123500Y-83350D02*
X123500Y-96250D01*
X123450Y-83350D02*
X123450Y-96250D01*
X123400Y-83350D02*
X123400Y-96250D01*
X123350Y-83350D02*
X123350Y-96250D01*
X123300Y-83350D02*
X123300Y-96250D01*
X123250Y-83350D02*
X123250Y-96250D01*
X123200Y-83300D02*
X123200Y-96300D01*
X123150Y-83300D02*
X123150Y-96300D01*
X123100Y-83300D02*
X123100Y-96300D01*
X123050Y-83300D02*
X123050Y-96300D01*
X123000Y-83250D02*
X123000Y-96350D01*
X122950Y-83250D02*
X122950Y-96350D01*
X122900Y-83200D02*
X122900Y-96400D01*
X122850Y-83200D02*
X122850Y-96400D01*
X122800Y-83150D02*
X122800Y-96450D01*
X122750Y-83150D02*
X122750Y-96450D01*
X122700Y-83100D02*
X122700Y-96500D01*
X122650Y-83050D02*
X122650Y-96550D01*
X122600Y-83050D02*
X122600Y-96550D01*
X122550Y-83000D02*
X122550Y-96600D01*
X124650Y-98550D02*
X147350Y-98550D01*
X124700Y-98500D02*
X147300Y-98500D01*
X133900Y-98450D02*
X147250Y-98450D01*
X131900Y-98450D02*
X133300Y-98450D01*
X129900Y-98450D02*
X131300Y-98450D01*
X124750Y-98450D02*
X129300Y-98450D01*
X134050Y-98400D02*
X147250Y-98400D01*
X132050Y-98400D02*
X133150Y-98400D01*
X130050Y-98400D02*
X131150Y-98400D01*
X124750Y-98400D02*
X129150Y-98400D01*
X134200Y-98350D02*
X147200Y-98350D01*
X132200Y-98350D02*
X133000Y-98350D01*
X130200Y-98350D02*
X131000Y-98350D01*
X124800Y-98350D02*
X129000Y-98350D01*
X134300Y-98300D02*
X147200Y-98300D01*
X132300Y-98300D02*
X132900Y-98300D01*
X130300Y-98300D02*
X130900Y-98300D01*
X124800Y-98300D02*
X128900Y-98300D01*
X134400Y-98250D02*
X147150Y-98250D01*
X132400Y-98250D02*
X132800Y-98250D01*
X130400Y-98250D02*
X130800Y-98250D01*
X124850Y-98250D02*
X128800Y-98250D01*
X143950Y-98200D02*
X147150Y-98200D01*
X141350Y-98200D02*
X141650Y-98200D01*
X137150Y-98200D02*
X139050Y-98200D01*
X134450Y-98200D02*
X136650Y-98200D01*
X132450Y-98200D02*
X132750Y-98200D01*
X130450Y-98200D02*
X130750Y-98200D01*
X124850Y-98200D02*
X128750Y-98200D01*
X144100Y-98150D02*
X147100Y-98150D01*
X141500Y-98150D02*
X141650Y-98150D01*
X137300Y-98150D02*
X139050Y-98150D01*
X134500Y-98150D02*
X136500Y-98150D01*
X132500Y-98150D02*
X132700Y-98150D01*
X130500Y-98150D02*
X130700Y-98150D01*
X124900Y-98150D02*
X128700Y-98150D01*
X144200Y-98100D02*
X147100Y-98100D01*
X141600Y-98100D02*
X141650Y-98100D01*
X137400Y-98100D02*
X139050Y-98100D01*
X134550Y-98100D02*
X136400Y-98100D01*
X132550Y-98100D02*
X132650Y-98100D01*
X130550Y-98100D02*
X130650Y-98100D01*
X124900Y-98100D02*
X128650Y-98100D01*
X144300Y-98050D02*
X147100Y-98050D01*
X137500Y-98050D02*
X139050Y-98050D01*
X134600Y-98050D02*
X136300Y-98050D01*
X124900Y-98050D02*
X128600Y-98050D01*
X144350Y-98000D02*
X147100Y-98000D01*
X137550Y-98000D02*
X139050Y-98000D01*
X134650Y-98000D02*
X136250Y-98000D01*
X124900Y-98000D02*
X128550Y-98000D01*
X144400Y-97950D02*
X147050Y-97950D01*
X137600Y-97950D02*
X139050Y-97950D01*
X134700Y-97950D02*
X136200Y-97950D01*
X124950Y-97950D02*
X128500Y-97950D01*
X144450Y-97900D02*
X147050Y-97900D01*
X137650Y-97900D02*
X139050Y-97900D01*
X134750Y-97900D02*
X136150Y-97900D01*
X124950Y-97900D02*
X128450Y-97900D01*
X144500Y-97850D02*
X147050Y-97850D01*
X137700Y-97850D02*
X139050Y-97850D01*
X134800Y-97850D02*
X136100Y-97850D01*
X124950Y-97850D02*
X128400Y-97850D01*
X144550Y-97800D02*
X147050Y-97800D01*
X137750Y-97800D02*
X139050Y-97800D01*
X134800Y-97800D02*
X136050Y-97800D01*
X124950Y-97800D02*
X128400Y-97800D01*
X144600Y-97750D02*
X147050Y-97750D01*
X137800Y-97750D02*
X139050Y-97750D01*
X134850Y-97750D02*
X136000Y-97750D01*
X124950Y-97750D02*
X128350Y-97750D01*
X144600Y-97700D02*
X147050Y-97700D01*
X137800Y-97700D02*
X139050Y-97700D01*
X134850Y-97700D02*
X136000Y-97700D01*
X124950Y-97700D02*
X128350Y-97700D01*
X144650Y-97650D02*
X147050Y-97650D01*
X137850Y-97650D02*
X139050Y-97650D01*
X134900Y-97650D02*
X135950Y-97650D01*
X124950Y-97650D02*
X128300Y-97650D01*
X144650Y-97600D02*
X147050Y-97600D01*
X137850Y-97600D02*
X139050Y-97600D01*
X134900Y-97600D02*
X135950Y-97600D01*
X124950Y-97600D02*
X128300Y-97600D01*
X144700Y-97550D02*
X147050Y-97550D01*
X137900Y-97550D02*
X139050Y-97550D01*
X134900Y-97550D02*
X135900Y-97550D01*
X124950Y-97550D02*
X128300Y-97550D01*
X144700Y-97500D02*
X147050Y-97500D01*
X137900Y-97500D02*
X139050Y-97500D01*
X134950Y-97500D02*
X135900Y-97500D01*
X124950Y-97500D02*
X128250Y-97500D01*
X144700Y-97450D02*
X147050Y-97450D01*
X137900Y-97450D02*
X139050Y-97450D01*
X134950Y-97450D02*
X135900Y-97450D01*
X124950Y-97450D02*
X128250Y-97450D01*
X144750Y-97400D02*
X147100Y-97400D01*
X137950Y-97400D02*
X139050Y-97400D01*
X134950Y-97400D02*
X135850Y-97400D01*
X124900Y-97400D02*
X128250Y-97400D01*
X144750Y-97350D02*
X147100Y-97350D01*
X137950Y-97350D02*
X139050Y-97350D01*
X135000Y-97350D02*
X135850Y-97350D01*
X124900Y-97350D02*
X128200Y-97350D01*
X144750Y-97300D02*
X147100Y-97300D01*
X137950Y-97300D02*
X139050Y-97300D01*
X135000Y-97300D02*
X135850Y-97300D01*
X124900Y-97300D02*
X128200Y-97300D01*
X144750Y-97250D02*
X147100Y-97250D01*
X137950Y-97250D02*
X139050Y-97250D01*
X135000Y-97250D02*
X135850Y-97250D01*
X124900Y-97250D02*
X128200Y-97250D01*
X144750Y-97200D02*
X147150Y-97200D01*
X137950Y-97200D02*
X139050Y-97200D01*
X135000Y-97200D02*
X135850Y-97200D01*
X124850Y-97200D02*
X128200Y-97200D01*
X144750Y-97150D02*
X147150Y-97150D01*
X137950Y-97150D02*
X139050Y-97150D01*
X135000Y-97150D02*
X135850Y-97150D01*
X124850Y-97150D02*
X128200Y-97150D01*
X144750Y-97100D02*
X147200Y-97100D01*
X137950Y-97100D02*
X139050Y-97100D01*
X135000Y-97100D02*
X135850Y-97100D01*
X124800Y-97100D02*
X128200Y-97100D01*
X144750Y-97050D02*
X147200Y-97050D01*
X137950Y-97050D02*
X139050Y-97050D01*
X135000Y-97050D02*
X135850Y-97050D01*
X124800Y-97050D02*
X128200Y-97050D01*
X144750Y-97000D02*
X147250Y-97000D01*
X137950Y-97000D02*
X139050Y-97000D01*
X135000Y-97000D02*
X135850Y-97000D01*
X124750Y-97000D02*
X128200Y-97000D01*
X144700Y-96950D02*
X147250Y-96950D01*
X137950Y-96950D02*
X139050Y-96950D01*
X135000Y-96950D02*
X135850Y-96950D01*
X124750Y-96950D02*
X128200Y-96950D01*
X144700Y-96900D02*
X147300Y-96900D01*
X137950Y-96900D02*
X139050Y-96900D01*
X135000Y-96900D02*
X135850Y-96900D01*
X124700Y-96900D02*
X128200Y-96900D01*
X144700Y-96850D02*
X147350Y-96850D01*
X137950Y-96850D02*
X139050Y-96850D01*
X135000Y-96850D02*
X135850Y-96850D01*
X124650Y-96850D02*
X128200Y-96850D01*
X144650Y-96800D02*
X147350Y-96800D01*
X137950Y-96800D02*
X139050Y-96800D01*
X134950Y-96800D02*
X135850Y-96800D01*
X124650Y-96800D02*
X128250Y-96800D01*
X144650Y-96750D02*
X147400Y-96750D01*
X137950Y-96750D02*
X139050Y-96750D01*
X134950Y-96750D02*
X135850Y-96750D01*
X124600Y-96750D02*
X128250Y-96750D01*
X144600Y-96700D02*
X147450Y-96700D01*
X137950Y-96700D02*
X139050Y-96700D01*
X134950Y-96700D02*
X135850Y-96700D01*
X124550Y-96700D02*
X128250Y-96700D01*
X144600Y-96650D02*
X147500Y-96650D01*
X137950Y-96650D02*
X139050Y-96650D01*
X134900Y-96650D02*
X135850Y-96650D01*
X124500Y-96650D02*
X128300Y-96650D01*
X144550Y-96600D02*
X147550Y-96600D01*
X137950Y-96600D02*
X139050Y-96600D01*
X134900Y-96600D02*
X135850Y-96600D01*
X124450Y-96600D02*
X128300Y-96600D01*
X149350Y-96550D02*
X149450Y-96550D01*
X144500Y-96550D02*
X147650Y-96550D01*
X137950Y-96550D02*
X139050Y-96550D01*
X134900Y-96550D02*
X135850Y-96550D01*
X124350Y-96550D02*
X128300Y-96550D01*
X122550Y-96550D02*
X122650Y-96550D01*
X149300Y-96500D02*
X149450Y-96500D01*
X144450Y-96500D02*
X147700Y-96500D01*
X137950Y-96500D02*
X139050Y-96500D01*
X134850Y-96500D02*
X135850Y-96500D01*
X124300Y-96500D02*
X128350Y-96500D01*
X122550Y-96500D02*
X122700Y-96500D01*
X149200Y-96450D02*
X149450Y-96450D01*
X144400Y-96450D02*
X147800Y-96450D01*
X137950Y-96450D02*
X139050Y-96450D01*
X134850Y-96450D02*
X135850Y-96450D01*
X124200Y-96450D02*
X128350Y-96450D01*
X122550Y-96450D02*
X122800Y-96450D01*
X149100Y-96400D02*
X149450Y-96400D01*
X144350Y-96400D02*
X147900Y-96400D01*
X137950Y-96400D02*
X139050Y-96400D01*
X134800Y-96400D02*
X135850Y-96400D01*
X124100Y-96400D02*
X128400Y-96400D01*
X122550Y-96400D02*
X122900Y-96400D01*
X149000Y-96350D02*
X149450Y-96350D01*
X144300Y-96350D02*
X148000Y-96350D01*
X137950Y-96350D02*
X139050Y-96350D01*
X134800Y-96350D02*
X135850Y-96350D01*
X124000Y-96350D02*
X128400Y-96350D01*
X122550Y-96350D02*
X123000Y-96350D01*
X148800Y-96300D02*
X149450Y-96300D01*
X144200Y-96300D02*
X148200Y-96300D01*
X137950Y-96300D02*
X139050Y-96300D01*
X134750Y-96300D02*
X135850Y-96300D01*
X123800Y-96300D02*
X128450Y-96300D01*
X122550Y-96300D02*
X123200Y-96300D01*
X144100Y-96250D02*
X149450Y-96250D01*
X137950Y-96250D02*
X139050Y-96250D01*
X134700Y-96250D02*
X135850Y-96250D01*
X122550Y-96250D02*
X128500Y-96250D01*
X144350Y-96200D02*
X149450Y-96200D01*
X137950Y-96200D02*
X139050Y-96200D01*
X134650Y-96200D02*
X135850Y-96200D01*
X122550Y-96200D02*
X128550Y-96200D01*
X146900Y-96150D02*
X149450Y-96150D01*
X144450Y-96150D02*
X146300Y-96150D01*
X137950Y-96150D02*
X139150Y-96150D01*
X134600Y-96150D02*
X135850Y-96150D01*
X122550Y-96150D02*
X128600Y-96150D01*
X147050Y-96100D02*
X149450Y-96100D01*
X144550Y-96100D02*
X146150Y-96100D01*
X137950Y-96100D02*
X139100Y-96100D01*
X134550Y-96100D02*
X135850Y-96100D01*
X132550Y-96100D02*
X132650Y-96100D01*
X130550Y-96100D02*
X130650Y-96100D01*
X122550Y-96100D02*
X128650Y-96100D01*
X147200Y-96050D02*
X149450Y-96050D01*
X144650Y-96050D02*
X146000Y-96050D01*
X137950Y-96050D02*
X139100Y-96050D01*
X134500Y-96050D02*
X135850Y-96050D01*
X132500Y-96050D02*
X132700Y-96050D01*
X130500Y-96050D02*
X130700Y-96050D01*
X122550Y-96050D02*
X128700Y-96050D01*
X147300Y-96000D02*
X149450Y-96000D01*
X144700Y-96000D02*
X145900Y-96000D01*
X137950Y-96000D02*
X139100Y-96000D01*
X134450Y-96000D02*
X135850Y-96000D01*
X132450Y-96000D02*
X132750Y-96000D01*
X130450Y-96000D02*
X130750Y-96000D01*
X122550Y-96000D02*
X128750Y-96000D01*
X147400Y-95950D02*
X149450Y-95950D01*
X144750Y-95950D02*
X145800Y-95950D01*
X137950Y-95950D02*
X139100Y-95950D01*
X134400Y-95950D02*
X135850Y-95950D01*
X132400Y-95950D02*
X132800Y-95950D01*
X130400Y-95950D02*
X130800Y-95950D01*
X122550Y-95950D02*
X128800Y-95950D01*
X147450Y-95900D02*
X149450Y-95900D01*
X144800Y-95900D02*
X145750Y-95900D01*
X137950Y-95900D02*
X139100Y-95900D01*
X134300Y-95900D02*
X135850Y-95900D01*
X132300Y-95900D02*
X132900Y-95900D01*
X130300Y-95900D02*
X130900Y-95900D01*
X122550Y-95900D02*
X128900Y-95900D01*
X147500Y-95850D02*
X149450Y-95850D01*
X144850Y-95850D02*
X145700Y-95850D01*
X137950Y-95850D02*
X139100Y-95850D01*
X134200Y-95850D02*
X135850Y-95850D01*
X132200Y-95850D02*
X133000Y-95850D01*
X130200Y-95850D02*
X131000Y-95850D01*
X122550Y-95850D02*
X129000Y-95850D01*
X147550Y-95800D02*
X149450Y-95800D01*
X144900Y-95800D02*
X145650Y-95800D01*
X137950Y-95800D02*
X139100Y-95800D01*
X134050Y-95800D02*
X135850Y-95800D01*
X132050Y-95800D02*
X133150Y-95800D01*
X130050Y-95800D02*
X131150Y-95800D01*
X122550Y-95800D02*
X129150Y-95800D01*
X147600Y-95750D02*
X149450Y-95750D01*
X144950Y-95750D02*
X145600Y-95750D01*
X137950Y-95750D02*
X139100Y-95750D01*
X133900Y-95750D02*
X135850Y-95750D01*
X131900Y-95750D02*
X133300Y-95750D01*
X129900Y-95750D02*
X131300Y-95750D01*
X122550Y-95750D02*
X129300Y-95750D01*
X147650Y-95700D02*
X149450Y-95700D01*
X145000Y-95700D02*
X145550Y-95700D01*
X137950Y-95700D02*
X139100Y-95700D01*
X122550Y-95700D02*
X135850Y-95700D01*
X147700Y-95650D02*
X149450Y-95650D01*
X145050Y-95650D02*
X145500Y-95650D01*
X137950Y-95650D02*
X139050Y-95650D01*
X122550Y-95650D02*
X135850Y-95650D01*
X147750Y-95600D02*
X149450Y-95600D01*
X145100Y-95600D02*
X145450Y-95600D01*
X137950Y-95600D02*
X139050Y-95600D01*
X122550Y-95600D02*
X135850Y-95600D01*
X147800Y-95550D02*
X149450Y-95550D01*
X145150Y-95550D02*
X145400Y-95550D01*
X137950Y-95550D02*
X139050Y-95550D01*
X122550Y-95550D02*
X135850Y-95550D01*
X147800Y-95500D02*
X149450Y-95500D01*
X145200Y-95500D02*
X145400Y-95500D01*
X137950Y-95500D02*
X139050Y-95500D01*
X122550Y-95500D02*
X135850Y-95500D01*
X147850Y-95450D02*
X149450Y-95450D01*
X145250Y-95450D02*
X145350Y-95450D01*
X137950Y-95450D02*
X139050Y-95450D01*
X122550Y-95450D02*
X135850Y-95450D01*
X147850Y-95400D02*
X149450Y-95400D01*
X145300Y-95400D02*
X145350Y-95400D01*
X137950Y-95400D02*
X139050Y-95400D01*
X122550Y-95400D02*
X135850Y-95400D01*
X147900Y-95350D02*
X149450Y-95350D01*
X137950Y-95350D02*
X139050Y-95350D01*
X122550Y-95350D02*
X135850Y-95350D01*
X147900Y-95300D02*
X149450Y-95300D01*
X137950Y-95300D02*
X139050Y-95300D01*
X122550Y-95300D02*
X135850Y-95300D01*
X147900Y-95250D02*
X149450Y-95250D01*
X137950Y-95250D02*
X139050Y-95250D01*
X122550Y-95250D02*
X135850Y-95250D01*
X147950Y-95200D02*
X149450Y-95200D01*
X137950Y-95200D02*
X139050Y-95200D01*
X122550Y-95200D02*
X135850Y-95200D01*
X147950Y-95150D02*
X149450Y-95150D01*
X122550Y-95150D02*
X139100Y-95150D01*
X147950Y-95100D02*
X149450Y-95100D01*
X122550Y-95100D02*
X139100Y-95100D01*
X148000Y-95050D02*
X149450Y-95050D01*
X122550Y-95050D02*
X139150Y-95050D01*
X148000Y-95000D02*
X149450Y-95000D01*
X138750Y-95000D02*
X139150Y-95000D01*
X122550Y-95000D02*
X138250Y-95000D01*
X148000Y-94950D02*
X149450Y-94950D01*
X138900Y-94950D02*
X139200Y-94950D01*
X122550Y-94950D02*
X138100Y-94950D01*
X148000Y-94900D02*
X149450Y-94900D01*
X139000Y-94900D02*
X139200Y-94900D01*
X122550Y-94900D02*
X138000Y-94900D01*
X148000Y-94850D02*
X149450Y-94850D01*
X139100Y-94850D02*
X139250Y-94850D01*
X122550Y-94850D02*
X137900Y-94850D01*
X148000Y-94800D02*
X149450Y-94800D01*
X139150Y-94800D02*
X139300Y-94800D01*
X122550Y-94800D02*
X137850Y-94800D01*
X148000Y-94750D02*
X149450Y-94750D01*
X139200Y-94750D02*
X139350Y-94750D01*
X122550Y-94750D02*
X137800Y-94750D01*
X148000Y-94700D02*
X149450Y-94700D01*
X139250Y-94700D02*
X139450Y-94700D01*
X122550Y-94700D02*
X137750Y-94700D01*
X148000Y-94650D02*
X149450Y-94650D01*
X139300Y-94650D02*
X139550Y-94650D01*
X122550Y-94650D02*
X137700Y-94650D01*
X148000Y-94600D02*
X149450Y-94600D01*
X139350Y-94600D02*
X139650Y-94600D01*
X122550Y-94600D02*
X137650Y-94600D01*
X148000Y-94550D02*
X149450Y-94550D01*
X141300Y-94550D02*
X143100Y-94550D01*
X139400Y-94550D02*
X140100Y-94550D01*
X122550Y-94550D02*
X137600Y-94550D01*
X147950Y-94500D02*
X149450Y-94500D01*
X141350Y-94500D02*
X143050Y-94500D01*
X139400Y-94500D02*
X140050Y-94500D01*
X122550Y-94500D02*
X137600Y-94500D01*
X147950Y-94450D02*
X149450Y-94450D01*
X141400Y-94450D02*
X143000Y-94450D01*
X139450Y-94450D02*
X140000Y-94450D01*
X122550Y-94450D02*
X137550Y-94450D01*
X147950Y-94400D02*
X149450Y-94400D01*
X141450Y-94400D02*
X142950Y-94400D01*
X139450Y-94400D02*
X139950Y-94400D01*
X122550Y-94400D02*
X137550Y-94400D01*
X147900Y-94350D02*
X149450Y-94350D01*
X141500Y-94350D02*
X142900Y-94350D01*
X139500Y-94350D02*
X139900Y-94350D01*
X122550Y-94350D02*
X137500Y-94350D01*
X147900Y-94300D02*
X149450Y-94300D01*
X141550Y-94300D02*
X142850Y-94300D01*
X139500Y-94300D02*
X139850Y-94300D01*
X122550Y-94300D02*
X137500Y-94300D01*
X147900Y-94250D02*
X149450Y-94250D01*
X141600Y-94250D02*
X142800Y-94250D01*
X139500Y-94250D02*
X139800Y-94250D01*
X122550Y-94250D02*
X137500Y-94250D01*
X147850Y-94200D02*
X149450Y-94200D01*
X141600Y-94200D02*
X142800Y-94200D01*
X139550Y-94200D02*
X139800Y-94200D01*
X122550Y-94200D02*
X137450Y-94200D01*
X147850Y-94150D02*
X149450Y-94150D01*
X141650Y-94150D02*
X142750Y-94150D01*
X139550Y-94150D02*
X139750Y-94150D01*
X122550Y-94150D02*
X137450Y-94150D01*
X147800Y-94100D02*
X149450Y-94100D01*
X141650Y-94100D02*
X142750Y-94100D01*
X139550Y-94100D02*
X139750Y-94100D01*
X136050Y-94100D02*
X137450Y-94100D01*
X122550Y-94100D02*
X135550Y-94100D01*
X147800Y-94050D02*
X149450Y-94050D01*
X141700Y-94050D02*
X142700Y-94050D01*
X139550Y-94050D02*
X139700Y-94050D01*
X136200Y-94050D02*
X137450Y-94050D01*
X122550Y-94050D02*
X135400Y-94050D01*
X147750Y-94000D02*
X149450Y-94000D01*
X141700Y-94000D02*
X142700Y-94000D01*
X139550Y-94000D02*
X139700Y-94000D01*
X136300Y-94000D02*
X137450Y-94000D01*
X122550Y-94000D02*
X135300Y-94000D01*
X147700Y-93950D02*
X149450Y-93950D01*
X141700Y-93950D02*
X142700Y-93950D01*
X139550Y-93950D02*
X139700Y-93950D01*
X136400Y-93950D02*
X137450Y-93950D01*
X122550Y-93950D02*
X135200Y-93950D01*
X147650Y-93900D02*
X149450Y-93900D01*
X141750Y-93900D02*
X142650Y-93900D01*
X139550Y-93900D02*
X139650Y-93900D01*
X136450Y-93900D02*
X137450Y-93900D01*
X122550Y-93900D02*
X135150Y-93900D01*
X147600Y-93850D02*
X149450Y-93850D01*
X141750Y-93850D02*
X142650Y-93850D01*
X139550Y-93850D02*
X139650Y-93850D01*
X136500Y-93850D02*
X137450Y-93850D01*
X122550Y-93850D02*
X135100Y-93850D01*
X147550Y-93800D02*
X149450Y-93800D01*
X141750Y-93800D02*
X142650Y-93800D01*
X139550Y-93800D02*
X139650Y-93800D01*
X136550Y-93800D02*
X137450Y-93800D01*
X122550Y-93800D02*
X135050Y-93800D01*
X147500Y-93750D02*
X149450Y-93750D01*
X141750Y-93750D02*
X142650Y-93750D01*
X139550Y-93750D02*
X139650Y-93750D01*
X136600Y-93750D02*
X137450Y-93750D01*
X122550Y-93750D02*
X135000Y-93750D01*
X147450Y-93700D02*
X149450Y-93700D01*
X141750Y-93700D02*
X142650Y-93700D01*
X139550Y-93700D02*
X139650Y-93700D01*
X136650Y-93700D02*
X137450Y-93700D01*
X122550Y-93700D02*
X134950Y-93700D01*
X147400Y-93650D02*
X149450Y-93650D01*
X141750Y-93650D02*
X142650Y-93650D01*
X139550Y-93650D02*
X139650Y-93650D01*
X136700Y-93650D02*
X137450Y-93650D01*
X122550Y-93650D02*
X134900Y-93650D01*
X147300Y-93600D02*
X149450Y-93600D01*
X141750Y-93600D02*
X142650Y-93600D01*
X139550Y-93600D02*
X139650Y-93600D01*
X136700Y-93600D02*
X137450Y-93600D01*
X122550Y-93600D02*
X134900Y-93600D01*
X147200Y-93550D02*
X149450Y-93550D01*
X141750Y-93550D02*
X142650Y-93550D01*
X139550Y-93550D02*
X139650Y-93550D01*
X136750Y-93550D02*
X137450Y-93550D01*
X122550Y-93550D02*
X134850Y-93550D01*
X147050Y-93500D02*
X149450Y-93500D01*
X141750Y-93500D02*
X142650Y-93500D01*
X139550Y-93500D02*
X139650Y-93500D01*
X136750Y-93500D02*
X137450Y-93500D01*
X122550Y-93500D02*
X134850Y-93500D01*
X146900Y-93450D02*
X149450Y-93450D01*
X141700Y-93450D02*
X142700Y-93450D01*
X139550Y-93450D02*
X139700Y-93450D01*
X136800Y-93450D02*
X137450Y-93450D01*
X122550Y-93450D02*
X134800Y-93450D01*
X146600Y-93400D02*
X149450Y-93400D01*
X141700Y-93400D02*
X142700Y-93400D01*
X139550Y-93400D02*
X139700Y-93400D01*
X136800Y-93400D02*
X137450Y-93400D01*
X122550Y-93400D02*
X134800Y-93400D01*
X146650Y-93350D02*
X149450Y-93350D01*
X141700Y-93350D02*
X142700Y-93350D01*
X139550Y-93350D02*
X139700Y-93350D01*
X136800Y-93350D02*
X137450Y-93350D01*
X122550Y-93350D02*
X134800Y-93350D01*
X146700Y-93300D02*
X149450Y-93300D01*
X141650Y-93300D02*
X142750Y-93300D01*
X139550Y-93300D02*
X139750Y-93300D01*
X136850Y-93300D02*
X137450Y-93300D01*
X122550Y-93300D02*
X134750Y-93300D01*
X146750Y-93250D02*
X149450Y-93250D01*
X141650Y-93250D02*
X142750Y-93250D01*
X139550Y-93250D02*
X139750Y-93250D01*
X136850Y-93250D02*
X137450Y-93250D01*
X122550Y-93250D02*
X134750Y-93250D01*
X146800Y-93200D02*
X149450Y-93200D01*
X141600Y-93200D02*
X142800Y-93200D01*
X139550Y-93200D02*
X139800Y-93200D01*
X136850Y-93200D02*
X137450Y-93200D01*
X122550Y-93200D02*
X134750Y-93200D01*
X146800Y-93150D02*
X149450Y-93150D01*
X141650Y-93150D02*
X142750Y-93150D01*
X139550Y-93150D02*
X139750Y-93150D01*
X136850Y-93150D02*
X137450Y-93150D01*
X122550Y-93150D02*
X134750Y-93150D01*
X146850Y-93100D02*
X149450Y-93100D01*
X141650Y-93100D02*
X142750Y-93100D01*
X139550Y-93100D02*
X139750Y-93100D01*
X136850Y-93100D02*
X137450Y-93100D01*
X122550Y-93100D02*
X134750Y-93100D01*
X146850Y-93050D02*
X149450Y-93050D01*
X141700Y-93050D02*
X142700Y-93050D01*
X139550Y-93050D02*
X139700Y-93050D01*
X136850Y-93050D02*
X137450Y-93050D01*
X122550Y-93050D02*
X134750Y-93050D01*
X146900Y-93000D02*
X149450Y-93000D01*
X141700Y-93000D02*
X142700Y-93000D01*
X139550Y-93000D02*
X139700Y-93000D01*
X136850Y-93000D02*
X137450Y-93000D01*
X122550Y-93000D02*
X134750Y-93000D01*
X146900Y-92950D02*
X149450Y-92950D01*
X141700Y-92950D02*
X142700Y-92950D01*
X139550Y-92950D02*
X139700Y-92950D01*
X136850Y-92950D02*
X137450Y-92950D01*
X122550Y-92950D02*
X134750Y-92950D01*
X146950Y-92900D02*
X149450Y-92900D01*
X141750Y-92900D02*
X142650Y-92900D01*
X139550Y-92900D02*
X139650Y-92900D01*
X136850Y-92900D02*
X137450Y-92900D01*
X122550Y-92900D02*
X134750Y-92900D01*
X146950Y-92850D02*
X149450Y-92850D01*
X141750Y-92850D02*
X142650Y-92850D01*
X139550Y-92850D02*
X139650Y-92850D01*
X136800Y-92850D02*
X137450Y-92850D01*
X122550Y-92850D02*
X134800Y-92850D01*
X146950Y-92800D02*
X149450Y-92800D01*
X144750Y-92800D02*
X144800Y-92800D01*
X141750Y-92800D02*
X142650Y-92800D01*
X139550Y-92800D02*
X139650Y-92800D01*
X136800Y-92800D02*
X137450Y-92800D01*
X122550Y-92800D02*
X134800Y-92800D01*
X146950Y-92750D02*
X149450Y-92750D01*
X144750Y-92750D02*
X144850Y-92750D01*
X141750Y-92750D02*
X142650Y-92750D01*
X139550Y-92750D02*
X139650Y-92750D01*
X136800Y-92750D02*
X137450Y-92750D01*
X122550Y-92750D02*
X134800Y-92750D01*
X146950Y-92700D02*
X149450Y-92700D01*
X144750Y-92700D02*
X144900Y-92700D01*
X141750Y-92700D02*
X142650Y-92700D01*
X139550Y-92700D02*
X139650Y-92700D01*
X136750Y-92700D02*
X137450Y-92700D01*
X122550Y-92700D02*
X134850Y-92700D01*
X146950Y-92650D02*
X149450Y-92650D01*
X144750Y-92650D02*
X144950Y-92650D01*
X141750Y-92650D02*
X142650Y-92650D01*
X139550Y-92650D02*
X139650Y-92650D01*
X136800Y-92650D02*
X137450Y-92650D01*
X122550Y-92650D02*
X134850Y-92650D01*
X146950Y-92600D02*
X149450Y-92600D01*
X144750Y-92600D02*
X145000Y-92600D01*
X141750Y-92600D02*
X142650Y-92600D01*
X139550Y-92600D02*
X139650Y-92600D01*
X136850Y-92600D02*
X137450Y-92600D01*
X122550Y-92600D02*
X134900Y-92600D01*
X147000Y-92550D02*
X149450Y-92550D01*
X144750Y-92550D02*
X145050Y-92550D01*
X141750Y-92550D02*
X142650Y-92550D01*
X139550Y-92550D02*
X139650Y-92550D01*
X136900Y-92550D02*
X137450Y-92550D01*
X122550Y-92550D02*
X134900Y-92550D01*
X147000Y-92500D02*
X149450Y-92500D01*
X144750Y-92500D02*
X145100Y-92500D01*
X141750Y-92500D02*
X142650Y-92500D01*
X139550Y-92500D02*
X139650Y-92500D01*
X136950Y-92500D02*
X137450Y-92500D01*
X122550Y-92500D02*
X134950Y-92500D01*
X147050Y-92450D02*
X149450Y-92450D01*
X144700Y-92450D02*
X145150Y-92450D01*
X141700Y-92450D02*
X142700Y-92450D01*
X139550Y-92450D02*
X139700Y-92450D01*
X137000Y-92450D02*
X137450Y-92450D01*
X122550Y-92450D02*
X135000Y-92450D01*
X147050Y-92400D02*
X149450Y-92400D01*
X144700Y-92400D02*
X145150Y-92400D01*
X141700Y-92400D02*
X142700Y-92400D01*
X139550Y-92400D02*
X139700Y-92400D01*
X137050Y-92400D02*
X137450Y-92400D01*
X122550Y-92400D02*
X135050Y-92400D01*
X147350Y-92350D02*
X149450Y-92350D01*
X144700Y-92350D02*
X145100Y-92350D01*
X141700Y-92350D02*
X142700Y-92350D01*
X139550Y-92350D02*
X139700Y-92350D01*
X137100Y-92350D02*
X137450Y-92350D01*
X122550Y-92350D02*
X135100Y-92350D01*
X147500Y-92300D02*
X149450Y-92300D01*
X144650Y-92300D02*
X145100Y-92300D01*
X141650Y-92300D02*
X142750Y-92300D01*
X139550Y-92300D02*
X139750Y-92300D01*
X137100Y-92300D02*
X137450Y-92300D01*
X122550Y-92300D02*
X135150Y-92300D01*
X147600Y-92250D02*
X149450Y-92250D01*
X144650Y-92250D02*
X145100Y-92250D01*
X141650Y-92250D02*
X142750Y-92250D01*
X139550Y-92250D02*
X139750Y-92250D01*
X137150Y-92250D02*
X137450Y-92250D01*
X122550Y-92250D02*
X135200Y-92250D01*
X147650Y-92200D02*
X149450Y-92200D01*
X144600Y-92200D02*
X145050Y-92200D01*
X141600Y-92200D02*
X142800Y-92200D01*
X139550Y-92200D02*
X139800Y-92200D01*
X137150Y-92200D02*
X137450Y-92200D01*
X122550Y-92200D02*
X135250Y-92200D01*
X147750Y-92150D02*
X149450Y-92150D01*
X144650Y-92150D02*
X145050Y-92150D01*
X141650Y-92150D02*
X142750Y-92150D01*
X139550Y-92150D02*
X139750Y-92150D01*
X137200Y-92150D02*
X137450Y-92150D01*
X122550Y-92150D02*
X135200Y-92150D01*
X147800Y-92100D02*
X149450Y-92100D01*
X144650Y-92100D02*
X145050Y-92100D01*
X141650Y-92100D02*
X142750Y-92100D01*
X139550Y-92100D02*
X139750Y-92100D01*
X137200Y-92100D02*
X137450Y-92100D01*
X122550Y-92100D02*
X135200Y-92100D01*
X147850Y-92050D02*
X149450Y-92050D01*
X144700Y-92050D02*
X145050Y-92050D01*
X141700Y-92050D02*
X142700Y-92050D01*
X139550Y-92050D02*
X139700Y-92050D01*
X137200Y-92050D02*
X137450Y-92050D01*
X122550Y-92050D02*
X135200Y-92050D01*
X147850Y-92000D02*
X149450Y-92000D01*
X144700Y-92000D02*
X145050Y-92000D01*
X141700Y-92000D02*
X142700Y-92000D01*
X139550Y-92000D02*
X139700Y-92000D01*
X137250Y-92000D02*
X137450Y-92000D01*
X122550Y-92000D02*
X135150Y-92000D01*
X147900Y-91950D02*
X149450Y-91950D01*
X144700Y-91950D02*
X145050Y-91950D01*
X141700Y-91950D02*
X142700Y-91950D01*
X139000Y-91950D02*
X139700Y-91950D01*
X137250Y-91950D02*
X137800Y-91950D01*
X122550Y-91950D02*
X135150Y-91950D01*
X147950Y-91900D02*
X149450Y-91900D01*
X144750Y-91900D02*
X145050Y-91900D01*
X141750Y-91900D02*
X142650Y-91900D01*
X139050Y-91900D02*
X139650Y-91900D01*
X137250Y-91900D02*
X137750Y-91900D01*
X122550Y-91900D02*
X135150Y-91900D01*
X147950Y-91850D02*
X149450Y-91850D01*
X144750Y-91850D02*
X145050Y-91850D01*
X141750Y-91850D02*
X142650Y-91850D01*
X139100Y-91850D02*
X139650Y-91850D01*
X137250Y-91850D02*
X137700Y-91850D01*
X122550Y-91850D02*
X135150Y-91850D01*
X148000Y-91800D02*
X149450Y-91800D01*
X144750Y-91800D02*
X145050Y-91800D01*
X141750Y-91800D02*
X142650Y-91800D01*
X139150Y-91800D02*
X139650Y-91800D01*
X137250Y-91800D02*
X137650Y-91800D01*
X122550Y-91800D02*
X135150Y-91800D01*
X148000Y-91750D02*
X149450Y-91750D01*
X144750Y-91750D02*
X145100Y-91750D01*
X141750Y-91750D02*
X142650Y-91750D01*
X139200Y-91750D02*
X139650Y-91750D01*
X137250Y-91750D02*
X137600Y-91750D01*
X122550Y-91750D02*
X135150Y-91750D01*
X148000Y-91700D02*
X149450Y-91700D01*
X144750Y-91700D02*
X145100Y-91700D01*
X141750Y-91700D02*
X142650Y-91700D01*
X139250Y-91700D02*
X139650Y-91700D01*
X137250Y-91700D02*
X137550Y-91700D01*
X122550Y-91700D02*
X135150Y-91700D01*
X148050Y-91650D02*
X149450Y-91650D01*
X144750Y-91650D02*
X145100Y-91650D01*
X141750Y-91650D02*
X142650Y-91650D01*
X139300Y-91650D02*
X139650Y-91650D01*
X137250Y-91650D02*
X137500Y-91650D01*
X122550Y-91650D02*
X135150Y-91650D01*
X148050Y-91600D02*
X149450Y-91600D01*
X144750Y-91600D02*
X145150Y-91600D01*
X141750Y-91600D02*
X142650Y-91600D01*
X139300Y-91600D02*
X139650Y-91600D01*
X137250Y-91600D02*
X137500Y-91600D01*
X122550Y-91600D02*
X135150Y-91600D01*
X148050Y-91550D02*
X149450Y-91550D01*
X144750Y-91550D02*
X145150Y-91550D01*
X141750Y-91550D02*
X142650Y-91550D01*
X139350Y-91550D02*
X139650Y-91550D01*
X137250Y-91550D02*
X137450Y-91550D01*
X122550Y-91550D02*
X135150Y-91550D01*
X148050Y-91500D02*
X149450Y-91500D01*
X144750Y-91500D02*
X145200Y-91500D01*
X141750Y-91500D02*
X142650Y-91500D01*
X139350Y-91500D02*
X139650Y-91500D01*
X137250Y-91500D02*
X137450Y-91500D01*
X122550Y-91500D02*
X135150Y-91500D01*
X148050Y-91450D02*
X149450Y-91450D01*
X144700Y-91450D02*
X145200Y-91450D01*
X141700Y-91450D02*
X142700Y-91450D01*
X139400Y-91450D02*
X139700Y-91450D01*
X137250Y-91450D02*
X137400Y-91450D01*
X122550Y-91450D02*
X135150Y-91450D01*
X148050Y-91400D02*
X149450Y-91400D01*
X144700Y-91400D02*
X145250Y-91400D01*
X141700Y-91400D02*
X142700Y-91400D01*
X139400Y-91400D02*
X139700Y-91400D01*
X137250Y-91400D02*
X137400Y-91400D01*
X122550Y-91400D02*
X135150Y-91400D01*
X148050Y-91350D02*
X149450Y-91350D01*
X144700Y-91350D02*
X145250Y-91350D01*
X141700Y-91350D02*
X142700Y-91350D01*
X139400Y-91350D02*
X139700Y-91350D01*
X137250Y-91350D02*
X137400Y-91350D01*
X122550Y-91350D02*
X135150Y-91350D01*
X148050Y-91300D02*
X149450Y-91300D01*
X144650Y-91300D02*
X145250Y-91300D01*
X141650Y-91300D02*
X142750Y-91300D01*
X139450Y-91300D02*
X139750Y-91300D01*
X137250Y-91300D02*
X137350Y-91300D01*
X122550Y-91300D02*
X135150Y-91300D01*
X148050Y-91250D02*
X149450Y-91250D01*
X144650Y-91250D02*
X145200Y-91250D01*
X141650Y-91250D02*
X142750Y-91250D01*
X139450Y-91250D02*
X139750Y-91250D01*
X137250Y-91250D02*
X137350Y-91250D01*
X122550Y-91250D02*
X135150Y-91250D01*
X148000Y-91200D02*
X149450Y-91200D01*
X144600Y-91200D02*
X145200Y-91200D01*
X141600Y-91200D02*
X142800Y-91200D01*
X139450Y-91200D02*
X139800Y-91200D01*
X137250Y-91200D02*
X137350Y-91200D01*
X122550Y-91200D02*
X135150Y-91200D01*
X148000Y-91150D02*
X149450Y-91150D01*
X144650Y-91150D02*
X145200Y-91150D01*
X141650Y-91150D02*
X142750Y-91150D01*
X139450Y-91150D02*
X139750Y-91150D01*
X137250Y-91150D02*
X137350Y-91150D01*
X122550Y-91150D02*
X135150Y-91150D01*
X148000Y-91100D02*
X149450Y-91100D01*
X144650Y-91100D02*
X145150Y-91100D01*
X141650Y-91100D02*
X142750Y-91100D01*
X139450Y-91100D02*
X139750Y-91100D01*
X137250Y-91100D02*
X137350Y-91100D01*
X122550Y-91100D02*
X135150Y-91100D01*
X147950Y-91050D02*
X149450Y-91050D01*
X144700Y-91050D02*
X145150Y-91050D01*
X141700Y-91050D02*
X142700Y-91050D01*
X139450Y-91050D02*
X139700Y-91050D01*
X137250Y-91050D02*
X137350Y-91050D01*
X122550Y-91050D02*
X135150Y-91050D01*
X147950Y-91000D02*
X149450Y-91000D01*
X144700Y-91000D02*
X145150Y-91000D01*
X141700Y-91000D02*
X142700Y-91000D01*
X139450Y-91000D02*
X139700Y-91000D01*
X137250Y-91000D02*
X137350Y-91000D01*
X122550Y-91000D02*
X135150Y-91000D01*
X147900Y-90950D02*
X149450Y-90950D01*
X144700Y-90950D02*
X145150Y-90950D01*
X141700Y-90950D02*
X142700Y-90950D01*
X139450Y-90950D02*
X139700Y-90950D01*
X137250Y-90950D02*
X137350Y-90950D01*
X122550Y-90950D02*
X135150Y-90950D01*
X147850Y-90900D02*
X149450Y-90900D01*
X144750Y-90900D02*
X145150Y-90900D01*
X141750Y-90900D02*
X142650Y-90900D01*
X139450Y-90900D02*
X139650Y-90900D01*
X137250Y-90900D02*
X137350Y-90900D01*
X122550Y-90900D02*
X135150Y-90900D01*
X147900Y-90850D02*
X149450Y-90850D01*
X144750Y-90850D02*
X145150Y-90850D01*
X141750Y-90850D02*
X142650Y-90850D01*
X139450Y-90850D02*
X139650Y-90850D01*
X137250Y-90850D02*
X137350Y-90850D01*
X122550Y-90850D02*
X135150Y-90850D01*
X147950Y-90800D02*
X149450Y-90800D01*
X144750Y-90800D02*
X145150Y-90800D01*
X141750Y-90800D02*
X142650Y-90800D01*
X139450Y-90800D02*
X139650Y-90800D01*
X137250Y-90800D02*
X137350Y-90800D01*
X122550Y-90800D02*
X135150Y-90800D01*
X147950Y-90750D02*
X149450Y-90750D01*
X144750Y-90750D02*
X145150Y-90750D01*
X141750Y-90750D02*
X142650Y-90750D01*
X139450Y-90750D02*
X139650Y-90750D01*
X137250Y-90750D02*
X137350Y-90750D01*
X122550Y-90750D02*
X135150Y-90750D01*
X148000Y-90700D02*
X149450Y-90700D01*
X144750Y-90700D02*
X145150Y-90700D01*
X141750Y-90700D02*
X142650Y-90700D01*
X139450Y-90700D02*
X139650Y-90700D01*
X137250Y-90700D02*
X137350Y-90700D01*
X133450Y-90700D02*
X135150Y-90700D01*
X122550Y-90700D02*
X132950Y-90700D01*
X148000Y-90650D02*
X149450Y-90650D01*
X144750Y-90650D02*
X145200Y-90650D01*
X141750Y-90650D02*
X142650Y-90650D01*
X139450Y-90650D02*
X139650Y-90650D01*
X137250Y-90650D02*
X137350Y-90650D01*
X133600Y-90650D02*
X135150Y-90650D01*
X122550Y-90650D02*
X132800Y-90650D01*
X148000Y-90600D02*
X149450Y-90600D01*
X144750Y-90600D02*
X145200Y-90600D01*
X141750Y-90600D02*
X142650Y-90600D01*
X139450Y-90600D02*
X139650Y-90600D01*
X137250Y-90600D02*
X137350Y-90600D01*
X133700Y-90600D02*
X135150Y-90600D01*
X122550Y-90600D02*
X132700Y-90600D01*
X148050Y-90550D02*
X149450Y-90550D01*
X144750Y-90550D02*
X145200Y-90550D01*
X141750Y-90550D02*
X142650Y-90550D01*
X139450Y-90550D02*
X139650Y-90550D01*
X137250Y-90550D02*
X137350Y-90550D01*
X133800Y-90550D02*
X135150Y-90550D01*
X122550Y-90550D02*
X132600Y-90550D01*
X148050Y-90500D02*
X149450Y-90500D01*
X144750Y-90500D02*
X145250Y-90500D01*
X141750Y-90500D02*
X142650Y-90500D01*
X139450Y-90500D02*
X139650Y-90500D01*
X137250Y-90500D02*
X137350Y-90500D01*
X133850Y-90500D02*
X135150Y-90500D01*
X122550Y-90500D02*
X132550Y-90500D01*
X148050Y-90450D02*
X149450Y-90450D01*
X144700Y-90450D02*
X145250Y-90450D01*
X141700Y-90450D02*
X142700Y-90450D01*
X139450Y-90450D02*
X139700Y-90450D01*
X137250Y-90450D02*
X137350Y-90450D01*
X133900Y-90450D02*
X135150Y-90450D01*
X122550Y-90450D02*
X132500Y-90450D01*
X148050Y-90400D02*
X149450Y-90400D01*
X144700Y-90400D02*
X145300Y-90400D01*
X141700Y-90400D02*
X142700Y-90400D01*
X139450Y-90400D02*
X139700Y-90400D01*
X137250Y-90400D02*
X137350Y-90400D01*
X133950Y-90400D02*
X135150Y-90400D01*
X122550Y-90400D02*
X132450Y-90400D01*
X148050Y-90350D02*
X149450Y-90350D01*
X144700Y-90350D02*
X145350Y-90350D01*
X141700Y-90350D02*
X142700Y-90350D01*
X139450Y-90350D02*
X139700Y-90350D01*
X137250Y-90350D02*
X137350Y-90350D01*
X134000Y-90350D02*
X135150Y-90350D01*
X122550Y-90350D02*
X132400Y-90350D01*
X148050Y-90300D02*
X149450Y-90300D01*
X144650Y-90300D02*
X145300Y-90300D01*
X141650Y-90300D02*
X142750Y-90300D01*
X139450Y-90300D02*
X139750Y-90300D01*
X137250Y-90300D02*
X137350Y-90300D01*
X134050Y-90300D02*
X135150Y-90300D01*
X122550Y-90300D02*
X132350Y-90300D01*
X148050Y-90250D02*
X149450Y-90250D01*
X144650Y-90250D02*
X145250Y-90250D01*
X141650Y-90250D02*
X142750Y-90250D01*
X139450Y-90250D02*
X139750Y-90250D01*
X137250Y-90250D02*
X137350Y-90250D01*
X134100Y-90250D02*
X135150Y-90250D01*
X122550Y-90250D02*
X132300Y-90250D01*
X148050Y-90200D02*
X149450Y-90200D01*
X144600Y-90200D02*
X145250Y-90200D01*
X141600Y-90200D02*
X142800Y-90200D01*
X139450Y-90200D02*
X139800Y-90200D01*
X137250Y-90200D02*
X137350Y-90200D01*
X134100Y-90200D02*
X135150Y-90200D01*
X122550Y-90200D02*
X132300Y-90200D01*
X148050Y-90150D02*
X149450Y-90150D01*
X144650Y-90150D02*
X145200Y-90150D01*
X141650Y-90150D02*
X142750Y-90150D01*
X139450Y-90150D02*
X139750Y-90150D01*
X137250Y-90150D02*
X137350Y-90150D01*
X134150Y-90150D02*
X135150Y-90150D01*
X122550Y-90150D02*
X132250Y-90150D01*
X148000Y-90100D02*
X149450Y-90100D01*
X144650Y-90100D02*
X145200Y-90100D01*
X141650Y-90100D02*
X142750Y-90100D01*
X139450Y-90100D02*
X139750Y-90100D01*
X137250Y-90100D02*
X137350Y-90100D01*
X134150Y-90100D02*
X135150Y-90100D01*
X122550Y-90100D02*
X132250Y-90100D01*
X148000Y-90050D02*
X149450Y-90050D01*
X144700Y-90050D02*
X145200Y-90050D01*
X141700Y-90050D02*
X142700Y-90050D01*
X139450Y-90050D02*
X139700Y-90050D01*
X137250Y-90050D02*
X137350Y-90050D01*
X134200Y-90050D02*
X135150Y-90050D01*
X122550Y-90050D02*
X132200Y-90050D01*
X148000Y-90000D02*
X149450Y-90000D01*
X144700Y-90000D02*
X145150Y-90000D01*
X141700Y-90000D02*
X142700Y-90000D01*
X139450Y-90000D02*
X139700Y-90000D01*
X137250Y-90000D02*
X137350Y-90000D01*
X134200Y-90000D02*
X135150Y-90000D01*
X122550Y-90000D02*
X132200Y-90000D01*
X147950Y-89950D02*
X149450Y-89950D01*
X144700Y-89950D02*
X145150Y-89950D01*
X141700Y-89950D02*
X142700Y-89950D01*
X139450Y-89950D02*
X139700Y-89950D01*
X137250Y-89950D02*
X137350Y-89950D01*
X134200Y-89950D02*
X135150Y-89950D01*
X122550Y-89950D02*
X132200Y-89950D01*
X147950Y-89900D02*
X149450Y-89900D01*
X144750Y-89900D02*
X145150Y-89900D01*
X141750Y-89900D02*
X142650Y-89900D01*
X139450Y-89900D02*
X139650Y-89900D01*
X137250Y-89900D02*
X137350Y-89900D01*
X134250Y-89900D02*
X135150Y-89900D01*
X122550Y-89900D02*
X132150Y-89900D01*
X147900Y-89850D02*
X149450Y-89850D01*
X144750Y-89850D02*
X145150Y-89850D01*
X141750Y-89850D02*
X142650Y-89850D01*
X139450Y-89850D02*
X139650Y-89850D01*
X137250Y-89850D02*
X137350Y-89850D01*
X134250Y-89850D02*
X135150Y-89850D01*
X128600Y-89850D02*
X132150Y-89850D01*
X122550Y-89850D02*
X128000Y-89850D01*
X147900Y-89800D02*
X149450Y-89800D01*
X144750Y-89800D02*
X145150Y-89800D01*
X141750Y-89800D02*
X142650Y-89800D01*
X139450Y-89800D02*
X139650Y-89800D01*
X137250Y-89800D02*
X137350Y-89800D01*
X134250Y-89800D02*
X135150Y-89800D01*
X128750Y-89800D02*
X132150Y-89800D01*
X122550Y-89800D02*
X127850Y-89800D01*
X147950Y-89750D02*
X149450Y-89750D01*
X144750Y-89750D02*
X145150Y-89750D01*
X141750Y-89750D02*
X142650Y-89750D01*
X139450Y-89750D02*
X139650Y-89750D01*
X134250Y-89750D02*
X137350Y-89750D01*
X128900Y-89750D02*
X132150Y-89750D01*
X122550Y-89750D02*
X127700Y-89750D01*
X147950Y-89700D02*
X149450Y-89700D01*
X144750Y-89700D02*
X145150Y-89700D01*
X141750Y-89700D02*
X142650Y-89700D01*
X139450Y-89700D02*
X139650Y-89700D01*
X134250Y-89700D02*
X137350Y-89700D01*
X129000Y-89700D02*
X132150Y-89700D01*
X122550Y-89700D02*
X127600Y-89700D01*
X148000Y-89650D02*
X149450Y-89650D01*
X144750Y-89650D02*
X145150Y-89650D01*
X141750Y-89650D02*
X142650Y-89650D01*
X139450Y-89650D02*
X139650Y-89650D01*
X136400Y-89650D02*
X137350Y-89650D01*
X134250Y-89650D02*
X135800Y-89650D01*
X129100Y-89650D02*
X132150Y-89650D01*
X122550Y-89650D02*
X127500Y-89650D01*
X148000Y-89600D02*
X149450Y-89600D01*
X144750Y-89600D02*
X145150Y-89600D01*
X141750Y-89600D02*
X142650Y-89600D01*
X139450Y-89600D02*
X139650Y-89600D01*
X136550Y-89600D02*
X137350Y-89600D01*
X134250Y-89600D02*
X135650Y-89600D01*
X129150Y-89600D02*
X132150Y-89600D01*
X122550Y-89600D02*
X127450Y-89600D01*
X148000Y-89550D02*
X149450Y-89550D01*
X144750Y-89550D02*
X145200Y-89550D01*
X141750Y-89550D02*
X142650Y-89550D01*
X139450Y-89550D02*
X139650Y-89550D01*
X136600Y-89550D02*
X137350Y-89550D01*
X134250Y-89550D02*
X135600Y-89550D01*
X129200Y-89550D02*
X132150Y-89550D01*
X122550Y-89550D02*
X127400Y-89550D01*
X148050Y-89500D02*
X149450Y-89500D01*
X144750Y-89500D02*
X145200Y-89500D01*
X141750Y-89500D02*
X142650Y-89500D01*
X139450Y-89500D02*
X139650Y-89500D01*
X136700Y-89500D02*
X137350Y-89500D01*
X134250Y-89500D02*
X135500Y-89500D01*
X129250Y-89500D02*
X132150Y-89500D01*
X122550Y-89500D02*
X127350Y-89500D01*
X148050Y-89450D02*
X149450Y-89450D01*
X144700Y-89450D02*
X145200Y-89450D01*
X141700Y-89450D02*
X142700Y-89450D01*
X139450Y-89450D02*
X139700Y-89450D01*
X136750Y-89450D02*
X137350Y-89450D01*
X134200Y-89450D02*
X135450Y-89450D01*
X129300Y-89450D02*
X132200Y-89450D01*
X122550Y-89450D02*
X127300Y-89450D01*
X148050Y-89400D02*
X149450Y-89400D01*
X144700Y-89400D02*
X145250Y-89400D01*
X141700Y-89400D02*
X142700Y-89400D01*
X139450Y-89400D02*
X139700Y-89400D01*
X136800Y-89400D02*
X137350Y-89400D01*
X134200Y-89400D02*
X135400Y-89400D01*
X129350Y-89400D02*
X132200Y-89400D01*
X122550Y-89400D02*
X127250Y-89400D01*
X148050Y-89350D02*
X149450Y-89350D01*
X144700Y-89350D02*
X145250Y-89350D01*
X141700Y-89350D02*
X142700Y-89350D01*
X139450Y-89350D02*
X139700Y-89350D01*
X136850Y-89350D02*
X137350Y-89350D01*
X134200Y-89350D02*
X135350Y-89350D01*
X129400Y-89350D02*
X132200Y-89350D01*
X122550Y-89350D02*
X127200Y-89350D01*
X148050Y-89300D02*
X149450Y-89300D01*
X144650Y-89300D02*
X145300Y-89300D01*
X141650Y-89300D02*
X142750Y-89300D01*
X139450Y-89300D02*
X139750Y-89300D01*
X136850Y-89300D02*
X137350Y-89300D01*
X134150Y-89300D02*
X135350Y-89300D01*
X129450Y-89300D02*
X132250Y-89300D01*
X122550Y-89300D02*
X127150Y-89300D01*
X148050Y-89250D02*
X149450Y-89250D01*
X144650Y-89250D02*
X145300Y-89250D01*
X141650Y-89250D02*
X142750Y-89250D01*
X139450Y-89250D02*
X139750Y-89250D01*
X136900Y-89250D02*
X137350Y-89250D01*
X134150Y-89250D02*
X135300Y-89250D01*
X129500Y-89250D02*
X132250Y-89250D01*
X122550Y-89250D02*
X127100Y-89250D01*
X148050Y-89200D02*
X149450Y-89200D01*
X144600Y-89200D02*
X145250Y-89200D01*
X141600Y-89200D02*
X142800Y-89200D01*
X139450Y-89200D02*
X139800Y-89200D01*
X136950Y-89200D02*
X137350Y-89200D01*
X134100Y-89200D02*
X135250Y-89200D01*
X129500Y-89200D02*
X132300Y-89200D01*
X122550Y-89200D02*
X127100Y-89200D01*
X148050Y-89150D02*
X149450Y-89150D01*
X144650Y-89150D02*
X145250Y-89150D01*
X141650Y-89150D02*
X142750Y-89150D01*
X139450Y-89150D02*
X139750Y-89150D01*
X136950Y-89150D02*
X137350Y-89150D01*
X134150Y-89150D02*
X135250Y-89150D01*
X129550Y-89150D02*
X132250Y-89150D01*
X122550Y-89150D02*
X127050Y-89150D01*
X148050Y-89100D02*
X149450Y-89100D01*
X144650Y-89100D02*
X145200Y-89100D01*
X141650Y-89100D02*
X142750Y-89100D01*
X139450Y-89100D02*
X139750Y-89100D01*
X136950Y-89100D02*
X137350Y-89100D01*
X134150Y-89100D02*
X135250Y-89100D01*
X129550Y-89100D02*
X132250Y-89100D01*
X122550Y-89100D02*
X127050Y-89100D01*
X148000Y-89050D02*
X149450Y-89050D01*
X144700Y-89050D02*
X145200Y-89050D01*
X141700Y-89050D02*
X142700Y-89050D01*
X139300Y-89050D02*
X139700Y-89050D01*
X137000Y-89050D02*
X137300Y-89050D01*
X134200Y-89050D02*
X135200Y-89050D01*
X129600Y-89050D02*
X132200Y-89050D01*
X122550Y-89050D02*
X127000Y-89050D01*
X148000Y-89000D02*
X149450Y-89000D01*
X144700Y-89000D02*
X145200Y-89000D01*
X141700Y-89000D02*
X142700Y-89000D01*
X139300Y-89000D02*
X139700Y-89000D01*
X137000Y-89000D02*
X137300Y-89000D01*
X134200Y-89000D02*
X135200Y-89000D01*
X129600Y-89000D02*
X132200Y-89000D01*
X122550Y-89000D02*
X127000Y-89000D01*
X148000Y-88950D02*
X149450Y-88950D01*
X144700Y-88950D02*
X145150Y-88950D01*
X141700Y-88950D02*
X142700Y-88950D01*
X139300Y-88950D02*
X139700Y-88950D01*
X137000Y-88950D02*
X137300Y-88950D01*
X134200Y-88950D02*
X135200Y-88950D01*
X129600Y-88950D02*
X132200Y-88950D01*
X122550Y-88950D02*
X127000Y-88950D01*
X147950Y-88900D02*
X149450Y-88900D01*
X144750Y-88900D02*
X145150Y-88900D01*
X141750Y-88900D02*
X142650Y-88900D01*
X139350Y-88900D02*
X139650Y-88900D01*
X137000Y-88900D02*
X137250Y-88900D01*
X134250Y-88900D02*
X135200Y-88900D01*
X129650Y-88900D02*
X132150Y-88900D01*
X122550Y-88900D02*
X126950Y-88900D01*
X147950Y-88850D02*
X149450Y-88850D01*
X144750Y-88850D02*
X145150Y-88850D01*
X141750Y-88850D02*
X142650Y-88850D01*
X139350Y-88850D02*
X139650Y-88850D01*
X137000Y-88850D02*
X137250Y-88850D01*
X134250Y-88850D02*
X135200Y-88850D01*
X129650Y-88850D02*
X132150Y-88850D01*
X122550Y-88850D02*
X126950Y-88850D01*
X147950Y-88800D02*
X149450Y-88800D01*
X144750Y-88800D02*
X145150Y-88800D01*
X141750Y-88800D02*
X142650Y-88800D01*
X139350Y-88800D02*
X139650Y-88800D01*
X137000Y-88800D02*
X137250Y-88800D01*
X134250Y-88800D02*
X135200Y-88800D01*
X129650Y-88800D02*
X132150Y-88800D01*
X122550Y-88800D02*
X126950Y-88800D01*
X148000Y-88750D02*
X149450Y-88750D01*
X144750Y-88750D02*
X145150Y-88750D01*
X141750Y-88750D02*
X142650Y-88750D01*
X139350Y-88750D02*
X139650Y-88750D01*
X137000Y-88750D02*
X137250Y-88750D01*
X134250Y-88750D02*
X135200Y-88750D01*
X129700Y-88750D02*
X132150Y-88750D01*
X122550Y-88750D02*
X126900Y-88750D01*
X148000Y-88700D02*
X149450Y-88700D01*
X144750Y-88700D02*
X145150Y-88700D01*
X141750Y-88700D02*
X142650Y-88700D01*
X139350Y-88700D02*
X139650Y-88700D01*
X137050Y-88700D02*
X137250Y-88700D01*
X134250Y-88700D02*
X135150Y-88700D01*
X129700Y-88700D02*
X132150Y-88700D01*
X122550Y-88700D02*
X126900Y-88700D01*
X148050Y-88650D02*
X149450Y-88650D01*
X144750Y-88650D02*
X145050Y-88650D01*
X141750Y-88650D02*
X142650Y-88650D01*
X139350Y-88650D02*
X139650Y-88650D01*
X137050Y-88650D02*
X137250Y-88650D01*
X134250Y-88650D02*
X135150Y-88650D01*
X129700Y-88650D02*
X132150Y-88650D01*
X122550Y-88650D02*
X126900Y-88650D01*
X148050Y-88600D02*
X149450Y-88600D01*
X144750Y-88600D02*
X145050Y-88600D01*
X141750Y-88600D02*
X142650Y-88600D01*
X139350Y-88600D02*
X139650Y-88600D01*
X137050Y-88600D02*
X137250Y-88600D01*
X134250Y-88600D02*
X135150Y-88600D01*
X129700Y-88600D02*
X132150Y-88600D01*
X122550Y-88600D02*
X126900Y-88600D01*
X148100Y-88550D02*
X149450Y-88550D01*
X144750Y-88550D02*
X145050Y-88550D01*
X141750Y-88550D02*
X142650Y-88550D01*
X139350Y-88550D02*
X139650Y-88550D01*
X137050Y-88550D02*
X137250Y-88550D01*
X134250Y-88550D02*
X135150Y-88550D01*
X129700Y-88550D02*
X132150Y-88550D01*
X122550Y-88550D02*
X126900Y-88550D01*
X148100Y-88500D02*
X149450Y-88500D01*
X144750Y-88500D02*
X145050Y-88500D01*
X141750Y-88500D02*
X142650Y-88500D01*
X139350Y-88500D02*
X139650Y-88500D01*
X137050Y-88500D02*
X137250Y-88500D01*
X134250Y-88500D02*
X135150Y-88500D01*
X129700Y-88500D02*
X132150Y-88500D01*
X122550Y-88500D02*
X126900Y-88500D01*
X148100Y-88450D02*
X149450Y-88450D01*
X144700Y-88450D02*
X145050Y-88450D01*
X141700Y-88450D02*
X142700Y-88450D01*
X139300Y-88450D02*
X139700Y-88450D01*
X137050Y-88450D02*
X137300Y-88450D01*
X134200Y-88450D02*
X135150Y-88450D01*
X129700Y-88450D02*
X132200Y-88450D01*
X122550Y-88450D02*
X126900Y-88450D01*
X148150Y-88400D02*
X149450Y-88400D01*
X144700Y-88400D02*
X145050Y-88400D01*
X141700Y-88400D02*
X142700Y-88400D01*
X139300Y-88400D02*
X139700Y-88400D01*
X137050Y-88400D02*
X137300Y-88400D01*
X134200Y-88400D02*
X135150Y-88400D01*
X129700Y-88400D02*
X132200Y-88400D01*
X122550Y-88400D02*
X126900Y-88400D01*
X148150Y-88350D02*
X149450Y-88350D01*
X144700Y-88350D02*
X145050Y-88350D01*
X141700Y-88350D02*
X142700Y-88350D01*
X139300Y-88350D02*
X139700Y-88350D01*
X137050Y-88350D02*
X137300Y-88350D01*
X134200Y-88350D02*
X135150Y-88350D01*
X129700Y-88350D02*
X132200Y-88350D01*
X122550Y-88350D02*
X126900Y-88350D01*
X148150Y-88300D02*
X149450Y-88300D01*
X144650Y-88300D02*
X145050Y-88300D01*
X141650Y-88300D02*
X142750Y-88300D01*
X139250Y-88300D02*
X139750Y-88300D01*
X137050Y-88300D02*
X137350Y-88300D01*
X134150Y-88300D02*
X135150Y-88300D01*
X129700Y-88300D02*
X132250Y-88300D01*
X122550Y-88300D02*
X126900Y-88300D01*
X148150Y-88250D02*
X149450Y-88250D01*
X144650Y-88250D02*
X145050Y-88250D01*
X141650Y-88250D02*
X142750Y-88250D01*
X139250Y-88250D02*
X139750Y-88250D01*
X137050Y-88250D02*
X137350Y-88250D01*
X134150Y-88250D02*
X135150Y-88250D01*
X129700Y-88250D02*
X132250Y-88250D01*
X122550Y-88250D02*
X126900Y-88250D01*
X148150Y-88200D02*
X149450Y-88200D01*
X144600Y-88200D02*
X145050Y-88200D01*
X141600Y-88200D02*
X142800Y-88200D01*
X139200Y-88200D02*
X139800Y-88200D01*
X137050Y-88200D02*
X137400Y-88200D01*
X134100Y-88200D02*
X135150Y-88200D01*
X129650Y-88200D02*
X132300Y-88200D01*
X122550Y-88200D02*
X126950Y-88200D01*
X148150Y-88150D02*
X149450Y-88150D01*
X144650Y-88150D02*
X145050Y-88150D01*
X141650Y-88150D02*
X142750Y-88150D01*
X139200Y-88150D02*
X139750Y-88150D01*
X137050Y-88150D02*
X137400Y-88150D01*
X134100Y-88150D02*
X135150Y-88150D01*
X129650Y-88150D02*
X132300Y-88150D01*
X122550Y-88150D02*
X126950Y-88150D01*
X148150Y-88100D02*
X149450Y-88100D01*
X144650Y-88100D02*
X145050Y-88100D01*
X141650Y-88100D02*
X142750Y-88100D01*
X139150Y-88100D02*
X139750Y-88100D01*
X137050Y-88100D02*
X137450Y-88100D01*
X134050Y-88100D02*
X135150Y-88100D01*
X129650Y-88100D02*
X132350Y-88100D01*
X122550Y-88100D02*
X126950Y-88100D01*
X148150Y-88050D02*
X149450Y-88050D01*
X144700Y-88050D02*
X145050Y-88050D01*
X141700Y-88050D02*
X142700Y-88050D01*
X139100Y-88050D02*
X139700Y-88050D01*
X137050Y-88050D02*
X137500Y-88050D01*
X134000Y-88050D02*
X135150Y-88050D01*
X129600Y-88050D02*
X132400Y-88050D01*
X122550Y-88050D02*
X127000Y-88050D01*
X148150Y-88000D02*
X149450Y-88000D01*
X144700Y-88000D02*
X145050Y-88000D01*
X141700Y-88000D02*
X142700Y-88000D01*
X139050Y-88000D02*
X139700Y-88000D01*
X137050Y-88000D02*
X137550Y-88000D01*
X133950Y-88000D02*
X135150Y-88000D01*
X129600Y-88000D02*
X132450Y-88000D01*
X122550Y-88000D02*
X127000Y-88000D01*
X148100Y-87950D02*
X149450Y-87950D01*
X144700Y-87950D02*
X145050Y-87950D01*
X141700Y-87950D02*
X142700Y-87950D01*
X139000Y-87950D02*
X139700Y-87950D01*
X137050Y-87950D02*
X137600Y-87950D01*
X133900Y-87950D02*
X135150Y-87950D01*
X129600Y-87950D02*
X132500Y-87950D01*
X122550Y-87950D02*
X127000Y-87950D01*
X148100Y-87900D02*
X149450Y-87900D01*
X144750Y-87900D02*
X145050Y-87900D01*
X141750Y-87900D02*
X142650Y-87900D01*
X138950Y-87900D02*
X139650Y-87900D01*
X137050Y-87900D02*
X137650Y-87900D01*
X133850Y-87900D02*
X135150Y-87900D01*
X129550Y-87900D02*
X132550Y-87900D01*
X122550Y-87900D02*
X127050Y-87900D01*
X148100Y-87850D02*
X149450Y-87850D01*
X144750Y-87850D02*
X145050Y-87850D01*
X141750Y-87850D02*
X142650Y-87850D01*
X138900Y-87850D02*
X139650Y-87850D01*
X137050Y-87850D02*
X137700Y-87850D01*
X133800Y-87850D02*
X135150Y-87850D01*
X129550Y-87850D02*
X132600Y-87850D01*
X122550Y-87850D02*
X127050Y-87850D01*
X148050Y-87800D02*
X149450Y-87800D01*
X144750Y-87800D02*
X145050Y-87800D01*
X141750Y-87800D02*
X142650Y-87800D01*
X138800Y-87800D02*
X139650Y-87800D01*
X137050Y-87800D02*
X137800Y-87800D01*
X133700Y-87800D02*
X135150Y-87800D01*
X129500Y-87800D02*
X132700Y-87800D01*
X122550Y-87800D02*
X127100Y-87800D01*
X148050Y-87750D02*
X149450Y-87750D01*
X144750Y-87750D02*
X145050Y-87750D01*
X141750Y-87750D02*
X142650Y-87750D01*
X138700Y-87750D02*
X139650Y-87750D01*
X137050Y-87750D02*
X137900Y-87750D01*
X133600Y-87750D02*
X135150Y-87750D01*
X129500Y-87750D02*
X132800Y-87750D01*
X122550Y-87750D02*
X127100Y-87750D01*
X148000Y-87700D02*
X149450Y-87700D01*
X144750Y-87700D02*
X145050Y-87700D01*
X141750Y-87700D02*
X142650Y-87700D01*
X139250Y-87700D02*
X139650Y-87700D01*
X137050Y-87700D02*
X137350Y-87700D01*
X133450Y-87700D02*
X135150Y-87700D01*
X129450Y-87700D02*
X132950Y-87700D01*
X122550Y-87700D02*
X127150Y-87700D01*
X148000Y-87650D02*
X149450Y-87650D01*
X144750Y-87650D02*
X145050Y-87650D01*
X141750Y-87650D02*
X142650Y-87650D01*
X139250Y-87650D02*
X139650Y-87650D01*
X137050Y-87650D02*
X137350Y-87650D01*
X129400Y-87650D02*
X135150Y-87650D01*
X122550Y-87650D02*
X127200Y-87650D01*
X147950Y-87600D02*
X149450Y-87600D01*
X144750Y-87600D02*
X145050Y-87600D01*
X141750Y-87600D02*
X142650Y-87600D01*
X139250Y-87600D02*
X139650Y-87600D01*
X137050Y-87600D02*
X137350Y-87600D01*
X129350Y-87600D02*
X135150Y-87600D01*
X122550Y-87600D02*
X127250Y-87600D01*
X147900Y-87550D02*
X149450Y-87550D01*
X144750Y-87550D02*
X145050Y-87550D01*
X141750Y-87550D02*
X142650Y-87550D01*
X139250Y-87550D02*
X139650Y-87550D01*
X137050Y-87550D02*
X137350Y-87550D01*
X129300Y-87550D02*
X135150Y-87550D01*
X122550Y-87550D02*
X127300Y-87550D01*
X147850Y-87500D02*
X149450Y-87500D01*
X144750Y-87500D02*
X145050Y-87500D01*
X141750Y-87500D02*
X142650Y-87500D01*
X139250Y-87500D02*
X139650Y-87500D01*
X137050Y-87500D02*
X137350Y-87500D01*
X129250Y-87500D02*
X135150Y-87500D01*
X122550Y-87500D02*
X127350Y-87500D01*
X147800Y-87450D02*
X149450Y-87450D01*
X144700Y-87450D02*
X145050Y-87450D01*
X141750Y-87450D02*
X142700Y-87450D01*
X139250Y-87450D02*
X139650Y-87450D01*
X137050Y-87450D02*
X137350Y-87450D01*
X129200Y-87450D02*
X135150Y-87450D01*
X122550Y-87450D02*
X127400Y-87450D01*
X147750Y-87400D02*
X149450Y-87400D01*
X144700Y-87400D02*
X145050Y-87400D01*
X141750Y-87400D02*
X142700Y-87400D01*
X139250Y-87400D02*
X139650Y-87400D01*
X137050Y-87400D02*
X137350Y-87400D01*
X129150Y-87400D02*
X135150Y-87400D01*
X122550Y-87400D02*
X127450Y-87400D01*
X147700Y-87350D02*
X149450Y-87350D01*
X144700Y-87350D02*
X145050Y-87350D01*
X141750Y-87350D02*
X142700Y-87350D01*
X139250Y-87350D02*
X139650Y-87350D01*
X137050Y-87350D02*
X137350Y-87350D01*
X129100Y-87350D02*
X135150Y-87350D01*
X122550Y-87350D02*
X127500Y-87350D01*
X147600Y-87300D02*
X149450Y-87300D01*
X144650Y-87300D02*
X145050Y-87300D01*
X141750Y-87300D02*
X142750Y-87300D01*
X139250Y-87300D02*
X139650Y-87300D01*
X137050Y-87300D02*
X137350Y-87300D01*
X129000Y-87300D02*
X135150Y-87300D01*
X122550Y-87300D02*
X127600Y-87300D01*
X147500Y-87250D02*
X149450Y-87250D01*
X144650Y-87250D02*
X145050Y-87250D01*
X141750Y-87250D02*
X142750Y-87250D01*
X139250Y-87250D02*
X139650Y-87250D01*
X137050Y-87250D02*
X137350Y-87250D01*
X128900Y-87250D02*
X135150Y-87250D01*
X122550Y-87250D02*
X127700Y-87250D01*
X147350Y-87200D02*
X149450Y-87200D01*
X144600Y-87200D02*
X145050Y-87200D01*
X141750Y-87200D02*
X142800Y-87200D01*
X139250Y-87200D02*
X139650Y-87200D01*
X137050Y-87200D02*
X137350Y-87200D01*
X128750Y-87200D02*
X135150Y-87200D01*
X122550Y-87200D02*
X127850Y-87200D01*
X147150Y-87150D02*
X149450Y-87150D01*
X144650Y-87150D02*
X145050Y-87150D01*
X141750Y-87150D02*
X142750Y-87150D01*
X139250Y-87150D02*
X139650Y-87150D01*
X137050Y-87150D02*
X137350Y-87150D01*
X128600Y-87150D02*
X135150Y-87150D01*
X122550Y-87150D02*
X128000Y-87150D01*
X147150Y-87100D02*
X149450Y-87100D01*
X144650Y-87100D02*
X145050Y-87100D01*
X141750Y-87100D02*
X142750Y-87100D01*
X139250Y-87100D02*
X139650Y-87100D01*
X137050Y-87100D02*
X137350Y-87100D01*
X122550Y-87100D02*
X135150Y-87100D01*
X147150Y-87050D02*
X149450Y-87050D01*
X144700Y-87050D02*
X145050Y-87050D01*
X141750Y-87050D02*
X142700Y-87050D01*
X139250Y-87050D02*
X139650Y-87050D01*
X137050Y-87050D02*
X137350Y-87050D01*
X122550Y-87050D02*
X135150Y-87050D01*
X147150Y-87000D02*
X149450Y-87000D01*
X144700Y-87000D02*
X145050Y-87000D01*
X141750Y-87000D02*
X142700Y-87000D01*
X139250Y-87000D02*
X139650Y-87000D01*
X137050Y-87000D02*
X137350Y-87000D01*
X122550Y-87000D02*
X135150Y-87000D01*
X147150Y-86950D02*
X149450Y-86950D01*
X144700Y-86950D02*
X145050Y-86950D01*
X141750Y-86950D02*
X142700Y-86950D01*
X139250Y-86950D02*
X139650Y-86950D01*
X137050Y-86950D02*
X137350Y-86950D01*
X122550Y-86950D02*
X135150Y-86950D01*
X147150Y-86900D02*
X149450Y-86900D01*
X144750Y-86900D02*
X145050Y-86900D01*
X141750Y-86900D02*
X142650Y-86900D01*
X139250Y-86900D02*
X139650Y-86900D01*
X137050Y-86900D02*
X137350Y-86900D01*
X122550Y-86900D02*
X135150Y-86900D01*
X147150Y-86850D02*
X149450Y-86850D01*
X144750Y-86850D02*
X145050Y-86850D01*
X141750Y-86850D02*
X142650Y-86850D01*
X139250Y-86850D02*
X139650Y-86850D01*
X122550Y-86850D02*
X137350Y-86850D01*
X147150Y-86800D02*
X149450Y-86800D01*
X144750Y-86800D02*
X145050Y-86800D01*
X141750Y-86800D02*
X142650Y-86800D01*
X139250Y-86800D02*
X139650Y-86800D01*
X122550Y-86800D02*
X137350Y-86800D01*
X147150Y-86750D02*
X149450Y-86750D01*
X144750Y-86750D02*
X145050Y-86750D01*
X141750Y-86750D02*
X142650Y-86750D01*
X139250Y-86750D02*
X139650Y-86750D01*
X122550Y-86750D02*
X137350Y-86750D01*
X147150Y-86700D02*
X149450Y-86700D01*
X144750Y-86700D02*
X145050Y-86700D01*
X141750Y-86700D02*
X142650Y-86700D01*
X139250Y-86700D02*
X139650Y-86700D01*
X122550Y-86700D02*
X137350Y-86700D01*
X147150Y-86650D02*
X149450Y-86650D01*
X144750Y-86650D02*
X145050Y-86650D01*
X141750Y-86650D02*
X142650Y-86650D01*
X139250Y-86650D02*
X139650Y-86650D01*
X122550Y-86650D02*
X137350Y-86650D01*
X144750Y-86600D02*
X149450Y-86600D01*
X141750Y-86600D02*
X142650Y-86600D01*
X139250Y-86600D02*
X139650Y-86600D01*
X122550Y-86600D02*
X137350Y-86600D01*
X144750Y-86550D02*
X149450Y-86550D01*
X141750Y-86550D02*
X142650Y-86550D01*
X139250Y-86550D02*
X139650Y-86550D01*
X122550Y-86550D02*
X137350Y-86550D01*
X144750Y-86500D02*
X149450Y-86500D01*
X141750Y-86500D02*
X142650Y-86500D01*
X139250Y-86500D02*
X139650Y-86500D01*
X122550Y-86500D02*
X137350Y-86500D01*
X144700Y-86450D02*
X149450Y-86450D01*
X141750Y-86450D02*
X142700Y-86450D01*
X139250Y-86450D02*
X139650Y-86450D01*
X122550Y-86450D02*
X137350Y-86450D01*
X144700Y-86400D02*
X149450Y-86400D01*
X141750Y-86400D02*
X142700Y-86400D01*
X139250Y-86400D02*
X139650Y-86400D01*
X122550Y-86400D02*
X137350Y-86400D01*
X144700Y-86350D02*
X149450Y-86350D01*
X141750Y-86350D02*
X142700Y-86350D01*
X139250Y-86350D02*
X139650Y-86350D01*
X122550Y-86350D02*
X137350Y-86350D01*
X144650Y-86300D02*
X149450Y-86300D01*
X141750Y-86300D02*
X142750Y-86300D01*
X139250Y-86300D02*
X139650Y-86300D01*
X122550Y-86300D02*
X137350Y-86300D01*
X144650Y-86250D02*
X149450Y-86250D01*
X141750Y-86250D02*
X142750Y-86250D01*
X139250Y-86250D02*
X139650Y-86250D01*
X122550Y-86250D02*
X137350Y-86250D01*
X144600Y-86200D02*
X149450Y-86200D01*
X141750Y-86200D02*
X142800Y-86200D01*
X139250Y-86200D02*
X139650Y-86200D01*
X122550Y-86200D02*
X137350Y-86200D01*
X146900Y-86150D02*
X149450Y-86150D01*
X144600Y-86150D02*
X146300Y-86150D01*
X141750Y-86150D02*
X142800Y-86150D01*
X139250Y-86150D02*
X139650Y-86150D01*
X122550Y-86150D02*
X137350Y-86150D01*
X147050Y-86100D02*
X149450Y-86100D01*
X144550Y-86100D02*
X146150Y-86100D01*
X141750Y-86100D02*
X142850Y-86100D01*
X139250Y-86100D02*
X139650Y-86100D01*
X122550Y-86100D02*
X137350Y-86100D01*
X147200Y-86050D02*
X149450Y-86050D01*
X144500Y-86050D02*
X146000Y-86050D01*
X141750Y-86050D02*
X142900Y-86050D01*
X139250Y-86050D02*
X139650Y-86050D01*
X122550Y-86050D02*
X137350Y-86050D01*
X147300Y-86000D02*
X149450Y-86000D01*
X144450Y-86000D02*
X145900Y-86000D01*
X141750Y-86000D02*
X142950Y-86000D01*
X139250Y-86000D02*
X139650Y-86000D01*
X122550Y-86000D02*
X137350Y-86000D01*
X147400Y-85950D02*
X149450Y-85950D01*
X144400Y-85950D02*
X145800Y-85950D01*
X141750Y-85950D02*
X143000Y-85950D01*
X139250Y-85950D02*
X139650Y-85950D01*
X122550Y-85950D02*
X137350Y-85950D01*
X147450Y-85900D02*
X149450Y-85900D01*
X144350Y-85900D02*
X145750Y-85900D01*
X141750Y-85900D02*
X143050Y-85900D01*
X139250Y-85900D02*
X139650Y-85900D01*
X122550Y-85900D02*
X137350Y-85900D01*
X147500Y-85850D02*
X149450Y-85850D01*
X144300Y-85850D02*
X145700Y-85850D01*
X141750Y-85850D02*
X143100Y-85850D01*
X139250Y-85850D02*
X139650Y-85850D01*
X122550Y-85850D02*
X137350Y-85850D01*
X147550Y-85800D02*
X149450Y-85800D01*
X144200Y-85800D02*
X145650Y-85800D01*
X141750Y-85800D02*
X143200Y-85800D01*
X139250Y-85800D02*
X139650Y-85800D01*
X122550Y-85800D02*
X137350Y-85800D01*
X147600Y-85750D02*
X149450Y-85750D01*
X144100Y-85750D02*
X145600Y-85750D01*
X141750Y-85750D02*
X143300Y-85750D01*
X139250Y-85750D02*
X139650Y-85750D01*
X122550Y-85750D02*
X137350Y-85750D01*
X147650Y-85700D02*
X149450Y-85700D01*
X143950Y-85700D02*
X145550Y-85700D01*
X141750Y-85700D02*
X143450Y-85700D01*
X139250Y-85700D02*
X139650Y-85700D01*
X122550Y-85700D02*
X137350Y-85700D01*
X147700Y-85650D02*
X149450Y-85650D01*
X122550Y-85650D02*
X145500Y-85650D01*
X147750Y-85600D02*
X149450Y-85600D01*
X122550Y-85600D02*
X145450Y-85600D01*
X147800Y-85550D02*
X149450Y-85550D01*
X122550Y-85550D02*
X145400Y-85550D01*
X147800Y-85500D02*
X149450Y-85500D01*
X122550Y-85500D02*
X145400Y-85500D01*
X147850Y-85450D02*
X149450Y-85450D01*
X122550Y-85450D02*
X145350Y-85450D01*
X147850Y-85400D02*
X149450Y-85400D01*
X122550Y-85400D02*
X145350Y-85400D01*
X147900Y-85350D02*
X149450Y-85350D01*
X122550Y-85350D02*
X145300Y-85350D01*
X147900Y-85300D02*
X149450Y-85300D01*
X122550Y-85300D02*
X145300Y-85300D01*
X147900Y-85250D02*
X149450Y-85250D01*
X122550Y-85250D02*
X145300Y-85250D01*
X147950Y-85200D02*
X149450Y-85200D01*
X122550Y-85200D02*
X145250Y-85200D01*
X147950Y-85150D02*
X149450Y-85150D01*
X122550Y-85150D02*
X145250Y-85150D01*
X147950Y-85100D02*
X149450Y-85100D01*
X122550Y-85100D02*
X145250Y-85100D01*
X148000Y-85050D02*
X149450Y-85050D01*
X122550Y-85050D02*
X145200Y-85050D01*
X148000Y-85000D02*
X149450Y-85000D01*
X122550Y-85000D02*
X145200Y-85000D01*
X148000Y-84950D02*
X149450Y-84950D01*
X122550Y-84950D02*
X145200Y-84950D01*
X148000Y-84900D02*
X149450Y-84900D01*
X122550Y-84900D02*
X145200Y-84900D01*
X148000Y-84850D02*
X149450Y-84850D01*
X122550Y-84850D02*
X145200Y-84850D01*
X148000Y-84800D02*
X149450Y-84800D01*
X122550Y-84800D02*
X145200Y-84800D01*
X148000Y-84750D02*
X149450Y-84750D01*
X122550Y-84750D02*
X145200Y-84750D01*
X148000Y-84700D02*
X149450Y-84700D01*
X122550Y-84700D02*
X145200Y-84700D01*
X148000Y-84650D02*
X149450Y-84650D01*
X122550Y-84650D02*
X145200Y-84650D01*
X148000Y-84600D02*
X149450Y-84600D01*
X122550Y-84600D02*
X145200Y-84600D01*
X148000Y-84550D02*
X149450Y-84550D01*
X122550Y-84550D02*
X145200Y-84550D01*
X147950Y-84500D02*
X149450Y-84500D01*
X122550Y-84500D02*
X145250Y-84500D01*
X147950Y-84450D02*
X149450Y-84450D01*
X122550Y-84450D02*
X145250Y-84450D01*
X147950Y-84400D02*
X149450Y-84400D01*
X122550Y-84400D02*
X145250Y-84400D01*
X147900Y-84350D02*
X149450Y-84350D01*
X122550Y-84350D02*
X145300Y-84350D01*
X147900Y-84300D02*
X149450Y-84300D01*
X122550Y-84300D02*
X145300Y-84300D01*
X147900Y-84250D02*
X149450Y-84250D01*
X122550Y-84250D02*
X145300Y-84250D01*
X147850Y-84200D02*
X149450Y-84200D01*
X122550Y-84200D02*
X145350Y-84200D01*
X147850Y-84150D02*
X149450Y-84150D01*
X122550Y-84150D02*
X145350Y-84150D01*
X147800Y-84100D02*
X149450Y-84100D01*
X122550Y-84100D02*
X145400Y-84100D01*
X147800Y-84050D02*
X149450Y-84050D01*
X122550Y-84050D02*
X145400Y-84050D01*
X147750Y-84000D02*
X149450Y-84000D01*
X122550Y-84000D02*
X145450Y-84000D01*
X147700Y-83950D02*
X149450Y-83950D01*
X122550Y-83950D02*
X145500Y-83950D01*
X147650Y-83900D02*
X149450Y-83900D01*
X122550Y-83900D02*
X145550Y-83900D01*
X147600Y-83850D02*
X149450Y-83850D01*
X122550Y-83850D02*
X145600Y-83850D01*
X147550Y-83800D02*
X149450Y-83800D01*
X122550Y-83800D02*
X145650Y-83800D01*
X147500Y-83750D02*
X149450Y-83750D01*
X122550Y-83750D02*
X145700Y-83750D01*
X147450Y-83700D02*
X149450Y-83700D01*
X122550Y-83700D02*
X145750Y-83700D01*
X147400Y-83650D02*
X149450Y-83650D01*
X122550Y-83650D02*
X145800Y-83650D01*
X147300Y-83600D02*
X149450Y-83600D01*
X122550Y-83600D02*
X145900Y-83600D01*
X147200Y-83550D02*
X149450Y-83550D01*
X122550Y-83550D02*
X146000Y-83550D01*
X147050Y-83500D02*
X149450Y-83500D01*
X122550Y-83500D02*
X146150Y-83500D01*
X146900Y-83450D02*
X149450Y-83450D01*
X122550Y-83450D02*
X146300Y-83450D01*
X122550Y-83400D02*
X149450Y-83400D01*
X122550Y-83350D02*
X149450Y-83350D01*
X148800Y-83300D02*
X149450Y-83300D01*
X123800Y-83300D02*
X148200Y-83300D01*
X122550Y-83300D02*
X123200Y-83300D01*
X149000Y-83250D02*
X149450Y-83250D01*
X124000Y-83250D02*
X148000Y-83250D01*
X122550Y-83250D02*
X123000Y-83250D01*
X149100Y-83200D02*
X149450Y-83200D01*
X124100Y-83200D02*
X147900Y-83200D01*
X122550Y-83200D02*
X122900Y-83200D01*
X149200Y-83150D02*
X149450Y-83150D01*
X124200Y-83150D02*
X147800Y-83150D01*
X122550Y-83150D02*
X122800Y-83150D01*
X149300Y-83100D02*
X149450Y-83100D01*
X124300Y-83100D02*
X147700Y-83100D01*
X122550Y-83100D02*
X122700Y-83100D01*
X149350Y-83050D02*
X149450Y-83050D01*
X124350Y-83050D02*
X147650Y-83050D01*
X122550Y-83050D02*
X122650Y-83050D01*
X130750Y-83000D02*
X147550Y-83000D01*
X124450Y-83000D02*
X128850Y-83000D01*
X135100Y-82950D02*
X147500Y-82950D01*
X134100Y-82950D02*
X134500Y-82950D01*
X133100Y-82950D02*
X133500Y-82950D01*
X132100Y-82950D02*
X132500Y-82950D01*
X131100Y-82950D02*
X131500Y-82950D01*
X124500Y-82950D02*
X128850Y-82950D01*
X135250Y-82900D02*
X147450Y-82900D01*
X134250Y-82900D02*
X134350Y-82900D01*
X133250Y-82900D02*
X133350Y-82900D01*
X132250Y-82900D02*
X132350Y-82900D01*
X131250Y-82900D02*
X131350Y-82900D01*
X124550Y-82900D02*
X128850Y-82900D01*
X135300Y-82850D02*
X147400Y-82850D01*
X124600Y-82850D02*
X128850Y-82850D01*
X135400Y-82800D02*
X147350Y-82800D01*
X124650Y-82800D02*
X128850Y-82800D01*
X135450Y-82750D02*
X147350Y-82750D01*
X124650Y-82750D02*
X128850Y-82750D01*
X135500Y-82700D02*
X147300Y-82700D01*
X124700Y-82700D02*
X128850Y-82700D01*
X135550Y-82650D02*
X147250Y-82650D01*
X124750Y-82650D02*
X128850Y-82650D01*
X135550Y-82600D02*
X147250Y-82600D01*
X124750Y-82600D02*
X128850Y-82600D01*
X135600Y-82550D02*
X147200Y-82550D01*
X124800Y-82550D02*
X128850Y-82550D01*
X135650Y-82500D02*
X147200Y-82500D01*
X124800Y-82500D02*
X128850Y-82500D01*
X135650Y-82450D02*
X147150Y-82450D01*
X124850Y-82450D02*
X128850Y-82450D01*
X135650Y-82400D02*
X147150Y-82400D01*
X124850Y-82400D02*
X128850Y-82400D01*
X135700Y-82350D02*
X147100Y-82350D01*
X124900Y-82350D02*
X128850Y-82350D01*
X135700Y-82300D02*
X147100Y-82300D01*
X124900Y-82300D02*
X128850Y-82300D01*
X135700Y-82250D02*
X147100Y-82250D01*
X124900Y-82250D02*
X128850Y-82250D01*
X135700Y-82200D02*
X147100Y-82200D01*
X124900Y-82200D02*
X128850Y-82200D01*
X135700Y-82150D02*
X147050Y-82150D01*
X124950Y-82150D02*
X128850Y-82150D01*
X135700Y-82100D02*
X147050Y-82100D01*
X124950Y-82100D02*
X128850Y-82100D01*
X135700Y-82050D02*
X147050Y-82050D01*
X124950Y-82050D02*
X128850Y-82050D01*
X135700Y-82000D02*
X147050Y-82000D01*
X124950Y-82000D02*
X128850Y-82000D01*
X135700Y-81950D02*
X147050Y-81950D01*
X124950Y-81950D02*
X128850Y-81950D01*
X135700Y-81900D02*
X147050Y-81900D01*
X124950Y-81900D02*
X128850Y-81900D01*
X135700Y-81850D02*
X147050Y-81850D01*
X124950Y-81850D02*
X128850Y-81850D01*
X135650Y-81800D02*
X147050Y-81800D01*
X124950Y-81800D02*
X128850Y-81800D01*
X135650Y-81750D02*
X147050Y-81750D01*
X124950Y-81750D02*
X128850Y-81750D01*
X135650Y-81700D02*
X147050Y-81700D01*
X124950Y-81700D02*
X128850Y-81700D01*
X135600Y-81650D02*
X147050Y-81650D01*
X124950Y-81650D02*
X128850Y-81650D01*
X135550Y-81600D02*
X147100Y-81600D01*
X124900Y-81600D02*
X128850Y-81600D01*
X135550Y-81550D02*
X147100Y-81550D01*
X124900Y-81550D02*
X128850Y-81550D01*
X135500Y-81500D02*
X147100Y-81500D01*
X124900Y-81500D02*
X128850Y-81500D01*
X135450Y-81450D02*
X147100Y-81450D01*
X124900Y-81450D02*
X128850Y-81450D01*
X135400Y-81400D02*
X147150Y-81400D01*
X124850Y-81400D02*
X128850Y-81400D01*
X135300Y-81350D02*
X147150Y-81350D01*
X124850Y-81350D02*
X128850Y-81350D01*
X135250Y-81300D02*
X147200Y-81300D01*
X134250Y-81300D02*
X134350Y-81300D01*
X133250Y-81300D02*
X133350Y-81300D01*
X132250Y-81300D02*
X132350Y-81300D01*
X131250Y-81300D02*
X131350Y-81300D01*
X124800Y-81300D02*
X128850Y-81300D01*
X135100Y-81250D02*
X147200Y-81250D01*
X134100Y-81250D02*
X134500Y-81250D01*
X133100Y-81250D02*
X133500Y-81250D01*
X132100Y-81250D02*
X132500Y-81250D01*
X131100Y-81250D02*
X131500Y-81250D01*
X124800Y-81250D02*
X128850Y-81250D01*
X130750Y-81200D02*
X147250Y-81200D01*
X124750Y-81200D02*
X128850Y-81200D01*
X124750Y-81150D02*
X147250Y-81150D01*
X124700Y-81100D02*
X147300Y-81100D01*
X124650Y-81050D02*
X147350Y-81050D01*
M02*
