G04 (Genere par PCBNEW (2006-08-28)) le 7/6/2007-03:07:34*
G01*
G70*
G90*
%MOIN*%
G04 Gerber Fmt 3.4, Leading zero omitted, Abs format*
%FSLAX34Y34*%
G04 APERTURE LIST*
%ADD10C,0.015000*%
%ADD11R,0.080000X0.080000*%
%ADD12C,0.080000*%
%ADD13R,0.150000X0.150000*%
%ADD14C,0.150000*%
%ADD15R,0.055000X0.055000*%
%ADD16C,0.055000*%
%ADD17C,0.060000*%
%ADD18R,0.055000X0.080000*%
%ADD19C,0.160000*%
%ADD20C,0.040000*%
%ADD21C,0.080000*%
%ADD22C,0.025000*%
%ADD23C,0.005000*%
%ADD24C,0.001000*%
G04 APERTURE END LIST*
G54D10*
X150200Y-99300D02*
X150200Y-80300D01*
X121800Y-99300D02*
X121800Y-80300D01*
X121800Y-80300D02*
X150200Y-80300D01*
X121800Y-99300D02*
X150200Y-99300D01*
G54D24*
X124300Y-81900D02*
X124282Y-82066D01*
X124282Y-82066D02*
X124230Y-82225D01*
X124230Y-82225D02*
X124147Y-82370D01*
X124147Y-82370D02*
X124035Y-82494D01*
X124035Y-82494D02*
X123900Y-82592D01*
X123900Y-82592D02*
X123747Y-82660D01*
X123747Y-82660D02*
X123583Y-82695D01*
X123583Y-82695D02*
X123417Y-82695D01*
X123417Y-82695D02*
X123253Y-82660D01*
X123253Y-82660D02*
X123100Y-82592D01*
X123100Y-82592D02*
X122965Y-82494D01*
X122965Y-82494D02*
X122853Y-82370D01*
X122853Y-82370D02*
X122770Y-82225D01*
X122770Y-82225D02*
X122718Y-82066D01*
X122718Y-82066D02*
X122700Y-81900D01*
X122700Y-81900D02*
X122718Y-81734D01*
X122718Y-81734D02*
X122770Y-81575D01*
X122770Y-81575D02*
X122853Y-81430D01*
X122853Y-81430D02*
X122965Y-81306D01*
X122965Y-81306D02*
X123100Y-81208D01*
X123100Y-81208D02*
X123253Y-81140D01*
X123253Y-81140D02*
X123417Y-81105D01*
X123417Y-81105D02*
X123583Y-81105D01*
X123583Y-81105D02*
X123747Y-81140D01*
X123747Y-81140D02*
X123900Y-81208D01*
X123900Y-81208D02*
X124035Y-81306D01*
X124035Y-81306D02*
X124147Y-81430D01*
X124147Y-81430D02*
X124230Y-81575D01*
X124230Y-81575D02*
X124282Y-81734D01*
X124282Y-81734D02*
X124300Y-81900D01*
X149300Y-97700D02*
X149282Y-97866D01*
X149282Y-97866D02*
X149230Y-98025D01*
X149230Y-98025D02*
X149147Y-98170D01*
X149147Y-98170D02*
X149035Y-98294D01*
X149035Y-98294D02*
X148900Y-98392D01*
X148900Y-98392D02*
X148747Y-98460D01*
X148747Y-98460D02*
X148583Y-98495D01*
X148583Y-98495D02*
X148417Y-98495D01*
X148417Y-98495D02*
X148253Y-98460D01*
X148253Y-98460D02*
X148100Y-98392D01*
X148100Y-98392D02*
X147965Y-98294D01*
X147965Y-98294D02*
X147853Y-98170D01*
X147853Y-98170D02*
X147770Y-98025D01*
X147770Y-98025D02*
X147718Y-97866D01*
X147718Y-97866D02*
X147700Y-97700D01*
X147700Y-97700D02*
X147718Y-97534D01*
X147718Y-97534D02*
X147770Y-97375D01*
X147770Y-97375D02*
X147853Y-97230D01*
X147853Y-97230D02*
X147965Y-97106D01*
X147965Y-97106D02*
X148100Y-97008D01*
X148100Y-97008D02*
X148253Y-96940D01*
X148253Y-96940D02*
X148417Y-96905D01*
X148417Y-96905D02*
X148583Y-96905D01*
X148583Y-96905D02*
X148747Y-96940D01*
X148747Y-96940D02*
X148900Y-97008D01*
X148900Y-97008D02*
X149035Y-97106D01*
X149035Y-97106D02*
X149147Y-97230D01*
X149147Y-97230D02*
X149230Y-97375D01*
X149230Y-97375D02*
X149282Y-97534D01*
X149282Y-97534D02*
X149300Y-97700D01*
X124300Y-97700D02*
X124282Y-97866D01*
X124282Y-97866D02*
X124230Y-98025D01*
X124230Y-98025D02*
X124147Y-98170D01*
X124147Y-98170D02*
X124035Y-98294D01*
X124035Y-98294D02*
X123900Y-98392D01*
X123900Y-98392D02*
X123747Y-98460D01*
X123747Y-98460D02*
X123583Y-98495D01*
X123583Y-98495D02*
X123417Y-98495D01*
X123417Y-98495D02*
X123253Y-98460D01*
X123253Y-98460D02*
X123100Y-98392D01*
X123100Y-98392D02*
X122965Y-98294D01*
X122965Y-98294D02*
X122853Y-98170D01*
X122853Y-98170D02*
X122770Y-98025D01*
X122770Y-98025D02*
X122718Y-97866D01*
X122718Y-97866D02*
X122700Y-97700D01*
X122700Y-97700D02*
X122718Y-97534D01*
X122718Y-97534D02*
X122770Y-97375D01*
X122770Y-97375D02*
X122853Y-97230D01*
X122853Y-97230D02*
X122965Y-97106D01*
X122965Y-97106D02*
X123100Y-97008D01*
X123100Y-97008D02*
X123253Y-96940D01*
X123253Y-96940D02*
X123417Y-96905D01*
X123417Y-96905D02*
X123583Y-96905D01*
X123583Y-96905D02*
X123747Y-96940D01*
X123747Y-96940D02*
X123900Y-97008D01*
X123900Y-97008D02*
X124035Y-97106D01*
X124035Y-97106D02*
X124147Y-97230D01*
X124147Y-97230D02*
X124230Y-97375D01*
X124230Y-97375D02*
X124282Y-97534D01*
X124282Y-97534D02*
X124300Y-97700D01*
M02*
