G04 (Genere par PCBNEW (2007-02-16)) le 6/5/2007-15:43:03*
G01*
G70*
G90*
%MOIN*%
G04 Gerber Fmt 3.4, Leading zero omitted, Abs format*
%FSLAX34Y34*%
G04 APERTURE LIST*
%ADD10C,0.015000*%
%ADD11R,0.055000X0.055000*%
%ADD12C,0.055000*%
%ADD13R,0.080000X0.080000*%
%ADD14C,0.080000*%
%ADD15C,0.150000*%
%ADD16R,0.150000X0.150000*%
%ADD17C,0.060000*%
%ADD18R,0.055000X0.080000*%
%ADD19C,0.040000*%
%ADD20C,0.080000*%
%ADD21C,0.025000*%
%ADD22C,0.010000*%
G04 APERTURE END LIST*
G54D10*
X39200Y-24400D02*
X39200Y-42600D01*
X67600Y-24400D02*
X67600Y-42600D01*
X65000Y-26200D02*
X64919Y-26500D01*
X64919Y-26500D02*
X64700Y-26719D01*
X64700Y-26719D02*
X64400Y-26800D01*
X64400Y-26800D02*
X64100Y-26719D01*
X64100Y-26719D02*
X63881Y-26500D01*
X63881Y-26500D02*
X63800Y-26200D01*
X63800Y-26200D02*
X63881Y-25900D01*
X63881Y-25900D02*
X64100Y-25681D01*
X64100Y-25681D02*
X64400Y-25600D01*
X64400Y-25600D02*
X64700Y-25681D01*
X64700Y-25681D02*
X64919Y-25900D01*
X64919Y-25900D02*
X65000Y-26200D01*
X41600Y-26200D02*
X41519Y-26500D01*
X41519Y-26500D02*
X41300Y-26719D01*
X41300Y-26719D02*
X41000Y-26800D01*
X41000Y-26800D02*
X40700Y-26719D01*
X40700Y-26719D02*
X40481Y-26500D01*
X40481Y-26500D02*
X40400Y-26200D01*
X40400Y-26200D02*
X40481Y-25900D01*
X40481Y-25900D02*
X40700Y-25681D01*
X40700Y-25681D02*
X41000Y-25600D01*
X41000Y-25600D02*
X41300Y-25681D01*
X41300Y-25681D02*
X41519Y-25900D01*
X41519Y-25900D02*
X41600Y-26200D01*
X39200Y-24400D02*
X67600Y-24400D01*
X39200Y-42600D02*
X67600Y-42600D01*
X67600Y-42600D02*
X67500Y-42600D01*
M02*
