G04 (Genere par PCBNEW (2007-02-16)) le 6/5/2007-15:43:11*
G01*
G70*
G90*
%MOIN*%
G04 Gerber Fmt 3.4, Leading zero omitted, Abs format*
%FSLAX34Y34*%
G04 APERTURE LIST*
%ADD10C,0.015000*%
%ADD11R,0.055000X0.055000*%
%ADD12C,0.055000*%
%ADD13R,0.080000X0.080000*%
%ADD14C,0.080000*%
%ADD15C,0.150000*%
%ADD16R,0.150000X0.150000*%
%ADD17C,0.060000*%
%ADD18R,0.055000X0.080000*%
%ADD19C,0.040000*%
%ADD20C,0.080000*%
%ADD21C,0.025000*%
%ADD22C,0.010000*%
%ADD23C,0.012000*%
%ADD24C,0.005000*%
%ADD25C,0.001000*%
%ADD26C,0.008000*%
G04 APERTURE END LIST*
G54D10*
X39200Y-24400D02*
X39200Y-42600D01*
X67600Y-24400D02*
X67600Y-42600D01*
X65000Y-26200D02*
X64919Y-26500D01*
X64919Y-26500D02*
X64700Y-26719D01*
X64700Y-26719D02*
X64400Y-26800D01*
X64400Y-26800D02*
X64100Y-26719D01*
X64100Y-26719D02*
X63881Y-26500D01*
X63881Y-26500D02*
X63800Y-26200D01*
X63800Y-26200D02*
X63881Y-25900D01*
X63881Y-25900D02*
X64100Y-25681D01*
X64100Y-25681D02*
X64400Y-25600D01*
X64400Y-25600D02*
X64700Y-25681D01*
X64700Y-25681D02*
X64919Y-25900D01*
X64919Y-25900D02*
X65000Y-26200D01*
X41600Y-26200D02*
X41519Y-26500D01*
X41519Y-26500D02*
X41300Y-26719D01*
X41300Y-26719D02*
X41000Y-26800D01*
X41000Y-26800D02*
X40700Y-26719D01*
X40700Y-26719D02*
X40481Y-26500D01*
X40481Y-26500D02*
X40400Y-26200D01*
X40400Y-26200D02*
X40481Y-25900D01*
X40481Y-25900D02*
X40700Y-25681D01*
X40700Y-25681D02*
X41000Y-25600D01*
X41000Y-25600D02*
X41300Y-25681D01*
X41300Y-25681D02*
X41519Y-25900D01*
X41519Y-25900D02*
X41600Y-26200D01*
X39200Y-24400D02*
X67600Y-24400D01*
X39200Y-42600D02*
X67600Y-42600D01*
X67600Y-42600D02*
X67500Y-42600D01*
X47788Y-28600D02*
X47788Y-27800D01*
X47788Y-27800D02*
X48313Y-27800D01*
X48313Y-27800D02*
X48401Y-27889D01*
X48401Y-27889D02*
X48401Y-28156D01*
X48401Y-28156D02*
X48313Y-28245D01*
X48313Y-28245D02*
X47788Y-28245D01*
X48803Y-28600D02*
X48715Y-28512D01*
X48715Y-28512D02*
X48715Y-28156D01*
X48715Y-28156D02*
X48803Y-28067D01*
X48803Y-28067D02*
X49240Y-28067D01*
X49240Y-28067D02*
X49328Y-28156D01*
X49328Y-28156D02*
X49328Y-28512D01*
X49328Y-28512D02*
X49240Y-28600D01*
X49240Y-28600D02*
X48803Y-28600D01*
X49642Y-28067D02*
X49642Y-28423D01*
X49642Y-28423D02*
X49817Y-28600D01*
X49817Y-28600D02*
X49992Y-28423D01*
X49992Y-28423D02*
X50167Y-28600D01*
X50167Y-28600D02*
X50342Y-28423D01*
X50342Y-28423D02*
X50342Y-28067D01*
X50569Y-28334D02*
X51182Y-28334D01*
X51182Y-28334D02*
X51182Y-28156D01*
X51182Y-28156D02*
X51094Y-28067D01*
X51094Y-28067D02*
X50657Y-28067D01*
X50657Y-28067D02*
X50569Y-28156D01*
X50569Y-28156D02*
X50569Y-28512D01*
X50569Y-28512D02*
X50657Y-28600D01*
X50657Y-28600D02*
X51094Y-28600D01*
X51094Y-28600D02*
X51182Y-28512D01*
X51496Y-28600D02*
X51496Y-28067D01*
X51496Y-28245D02*
X51671Y-28067D01*
X51671Y-28067D02*
X51934Y-28067D01*
X51934Y-28067D02*
X52109Y-28245D01*
X53036Y-28512D02*
X52948Y-28600D01*
X52948Y-28600D02*
X52511Y-28600D01*
X52511Y-28600D02*
X52423Y-28512D01*
X52423Y-28512D02*
X52423Y-27889D01*
X52423Y-27889D02*
X52511Y-27800D01*
X52511Y-27800D02*
X52948Y-27800D01*
X52948Y-27800D02*
X53036Y-27889D01*
X53438Y-28600D02*
X53350Y-28512D01*
X53350Y-28512D02*
X53350Y-28156D01*
X53350Y-28156D02*
X53438Y-28067D01*
X53438Y-28067D02*
X53875Y-28067D01*
X53875Y-28067D02*
X53963Y-28156D01*
X53963Y-28156D02*
X53963Y-28512D01*
X53963Y-28512D02*
X53875Y-28600D01*
X53875Y-28600D02*
X53438Y-28600D01*
X54277Y-28600D02*
X54277Y-28067D01*
X54277Y-28156D02*
X54365Y-28067D01*
X54365Y-28067D02*
X54540Y-28067D01*
X54540Y-28067D02*
X54627Y-28156D01*
X54627Y-28156D02*
X54627Y-28600D01*
X54627Y-28156D02*
X54715Y-28067D01*
X54715Y-28067D02*
X54890Y-28067D01*
X54890Y-28067D02*
X54977Y-28156D01*
X54977Y-28156D02*
X54977Y-28600D01*
X55204Y-28600D02*
X55204Y-28067D01*
X55204Y-28156D02*
X55292Y-28067D01*
X55292Y-28067D02*
X55467Y-28067D01*
X55467Y-28067D02*
X55554Y-28156D01*
X55554Y-28156D02*
X55554Y-28600D01*
X55554Y-28156D02*
X55642Y-28067D01*
X55642Y-28067D02*
X55817Y-28067D01*
X55817Y-28067D02*
X55904Y-28156D01*
X55904Y-28156D02*
X55904Y-28600D01*
X56131Y-28512D02*
X56219Y-28600D01*
X56219Y-28600D02*
X56656Y-28600D01*
X56656Y-28600D02*
X56744Y-28512D01*
X56744Y-28512D02*
X56744Y-28423D01*
X56744Y-28423D02*
X56656Y-28334D01*
X56656Y-28334D02*
X56219Y-28334D01*
X56219Y-28334D02*
X56131Y-28245D01*
X56131Y-28245D02*
X56131Y-28156D01*
X56131Y-28156D02*
X56219Y-28067D01*
X56219Y-28067D02*
X56656Y-28067D01*
X56656Y-28067D02*
X56744Y-28156D01*
X57985Y-28067D02*
X57985Y-28334D01*
X57985Y-28334D02*
X58248Y-28600D01*
X58248Y-28600D02*
X58510Y-28334D01*
X58510Y-28334D02*
X58510Y-28067D01*
X59087Y-28600D02*
X59437Y-28600D01*
X59262Y-28600D02*
X59262Y-27800D01*
X59262Y-27889D02*
X59087Y-28067D01*
X60102Y-28600D02*
X60102Y-28512D01*
X61379Y-28600D02*
X60766Y-28600D01*
X60766Y-28600D02*
X60766Y-28334D01*
X60766Y-28334D02*
X60854Y-28245D01*
X60854Y-28245D02*
X61291Y-28245D01*
X61291Y-28245D02*
X61379Y-28156D01*
X61379Y-28156D02*
X61379Y-27889D01*
X61379Y-27889D02*
X61291Y-27800D01*
X61291Y-27800D02*
X60854Y-27800D01*
X60854Y-27800D02*
X60766Y-27889D01*
G54D23*
X48832Y-29700D02*
X48832Y-28900D01*
X48832Y-28900D02*
X49282Y-28900D01*
X49282Y-28900D02*
X49357Y-28989D01*
X49357Y-28989D02*
X49357Y-29256D01*
X49357Y-29256D02*
X49282Y-29345D01*
X49282Y-29345D02*
X48832Y-29345D01*
X49057Y-29345D02*
X49357Y-29700D01*
X49618Y-29434D02*
X50143Y-29434D01*
X50143Y-29434D02*
X50143Y-29256D01*
X50143Y-29256D02*
X50068Y-29167D01*
X50068Y-29167D02*
X49693Y-29167D01*
X49693Y-29167D02*
X49618Y-29256D01*
X49618Y-29256D02*
X49618Y-29612D01*
X49618Y-29612D02*
X49693Y-29700D01*
X49693Y-29700D02*
X50068Y-29700D01*
X50068Y-29700D02*
X50143Y-29612D01*
X50404Y-29966D02*
X50404Y-29167D01*
X50404Y-29256D02*
X50479Y-29167D01*
X50479Y-29167D02*
X50854Y-29167D01*
X50854Y-29167D02*
X50929Y-29256D01*
X50929Y-29256D02*
X50929Y-29612D01*
X50929Y-29612D02*
X50854Y-29700D01*
X50854Y-29700D02*
X50479Y-29700D01*
X50479Y-29700D02*
X50404Y-29612D01*
X51190Y-29700D02*
X51190Y-28900D01*
X51190Y-28900D02*
X51640Y-28900D01*
X51640Y-28900D02*
X51715Y-28989D01*
X51715Y-28989D02*
X51715Y-29256D01*
X51715Y-29256D02*
X51640Y-29345D01*
X51640Y-29345D02*
X51190Y-29345D01*
X51415Y-29345D02*
X51715Y-29700D01*
X51976Y-29167D02*
X52426Y-29167D01*
X52426Y-29167D02*
X52501Y-29256D01*
X52501Y-29256D02*
X52501Y-29700D01*
X52501Y-29700D02*
X52051Y-29700D01*
X52051Y-29700D02*
X51976Y-29612D01*
X51976Y-29612D02*
X51976Y-29523D01*
X51976Y-29523D02*
X52051Y-29434D01*
X52051Y-29434D02*
X52501Y-29434D01*
X52762Y-29966D02*
X52762Y-29167D01*
X52762Y-29256D02*
X52837Y-29167D01*
X52837Y-29167D02*
X53212Y-29167D01*
X53212Y-29167D02*
X53287Y-29256D01*
X53287Y-29256D02*
X53287Y-29612D01*
X53287Y-29612D02*
X53212Y-29700D01*
X53212Y-29700D02*
X52837Y-29700D01*
X52837Y-29700D02*
X52762Y-29612D01*
X53773Y-29700D02*
X53773Y-29612D01*
X54409Y-29700D02*
X54334Y-29612D01*
X54334Y-29612D02*
X54334Y-29256D01*
X54334Y-29256D02*
X54409Y-29167D01*
X54409Y-29167D02*
X54784Y-29167D01*
X54784Y-29167D02*
X54859Y-29256D01*
X54859Y-29256D02*
X54859Y-29612D01*
X54859Y-29612D02*
X54784Y-29700D01*
X54784Y-29700D02*
X54409Y-29700D01*
X55120Y-29700D02*
X55120Y-29167D01*
X55120Y-29345D02*
X55270Y-29167D01*
X55270Y-29167D02*
X55495Y-29167D01*
X55495Y-29167D02*
X55645Y-29345D01*
X55906Y-29877D02*
X55981Y-29966D01*
X55981Y-29966D02*
X56356Y-29966D01*
X56356Y-29966D02*
X56431Y-29877D01*
X56431Y-29877D02*
X56431Y-29256D01*
X56431Y-29256D02*
X56356Y-29167D01*
X56356Y-29167D02*
X55981Y-29167D01*
X55981Y-29167D02*
X55906Y-29256D01*
X55906Y-29256D02*
X55906Y-29612D01*
X55906Y-29612D02*
X55981Y-29700D01*
X55981Y-29700D02*
X56356Y-29700D01*
X56356Y-29700D02*
X56431Y-29612D01*
G54D24*
X53200Y-25700D02*
X53200Y-24700D01*
X47700Y-26700D02*
X47700Y-27200D01*
X47700Y-27200D02*
X58700Y-27200D01*
X58700Y-27200D02*
X58700Y-26700D01*
G54D23*
X47200Y-26700D02*
X47200Y-26700D01*
X47200Y-26700D02*
X47200Y-25700D01*
X47200Y-25700D02*
X57200Y-25700D01*
X57200Y-26700D02*
X47200Y-26700D01*
X48200Y-26700D02*
X48200Y-25700D01*
X57200Y-25700D02*
X58950Y-25700D01*
X58950Y-25700D02*
X59200Y-25700D01*
X59200Y-25700D02*
X59200Y-26700D01*
X59200Y-26700D02*
X57200Y-26700D01*
X47700Y-26200D02*
X47700Y-26200D01*
X47700Y-26200D02*
X47700Y-26200D01*
G54D24*
X49350Y-33550D02*
X50850Y-32050D01*
X49351Y-33550D02*
X49430Y-33804D01*
X49430Y-33804D02*
X49560Y-34036D01*
X49560Y-34036D02*
X49736Y-34236D01*
X49736Y-34236D02*
X49950Y-34395D01*
X49950Y-34395D02*
X50192Y-34507D01*
X50192Y-34507D02*
X50451Y-34565D01*
X50451Y-34565D02*
X50718Y-34569D01*
X50718Y-34569D02*
X50850Y-34549D01*
X50350Y-34549D02*
X50616Y-34574D01*
X50616Y-34574D02*
X50880Y-34543D01*
X50880Y-34543D02*
X51132Y-34457D01*
X51132Y-34457D02*
X51361Y-34321D01*
X51361Y-34321D02*
X51557Y-34141D01*
X51557Y-34141D02*
X51711Y-33923D01*
X51711Y-33923D02*
X51816Y-33679D01*
X51816Y-33679D02*
X51849Y-33550D01*
X51849Y-33550D02*
X51874Y-33284D01*
X51874Y-33284D02*
X51843Y-33020D01*
X51843Y-33020D02*
X51757Y-32768D01*
X51757Y-32768D02*
X51621Y-32539D01*
X51621Y-32539D02*
X51441Y-32343D01*
X51441Y-32343D02*
X51223Y-32189D01*
X51223Y-32189D02*
X50979Y-32084D01*
X50979Y-32084D02*
X50850Y-32051D01*
G54D23*
X55900Y-41400D02*
X55900Y-40400D01*
X55900Y-40400D02*
X57900Y-40400D01*
X57900Y-40400D02*
X57900Y-41400D01*
X57900Y-41400D02*
X55900Y-41400D01*
X58800Y-41400D02*
X58800Y-40400D01*
X58800Y-40400D02*
X60800Y-40400D01*
X60800Y-40400D02*
X60800Y-41400D01*
X60800Y-41400D02*
X58800Y-41400D01*
G54D24*
X49275Y-32600D02*
X49170Y-33592D01*
X49170Y-33592D02*
X48862Y-34542D01*
X48862Y-34542D02*
X48363Y-35406D01*
X48363Y-35406D02*
X47695Y-36148D01*
X47695Y-36148D02*
X46887Y-36735D01*
X46887Y-36735D02*
X45975Y-37141D01*
X45975Y-37141D02*
X44999Y-37348D01*
X44999Y-37348D02*
X44001Y-37348D01*
X44001Y-37348D02*
X43025Y-37141D01*
X43025Y-37141D02*
X42113Y-36735D01*
X42113Y-36735D02*
X41305Y-36148D01*
X41305Y-36148D02*
X40637Y-35406D01*
X40637Y-35406D02*
X40138Y-34542D01*
X40138Y-34542D02*
X39830Y-33592D01*
X39830Y-33592D02*
X39725Y-32600D01*
X39725Y-32600D02*
X39830Y-31608D01*
X39830Y-31608D02*
X40138Y-30658D01*
X40138Y-30658D02*
X40637Y-29794D01*
X40637Y-29794D02*
X41305Y-29052D01*
X41305Y-29052D02*
X42113Y-28465D01*
X42113Y-28465D02*
X43025Y-28059D01*
X43025Y-28059D02*
X44001Y-27852D01*
X44001Y-27852D02*
X44999Y-27852D01*
X44999Y-27852D02*
X45975Y-28059D01*
X45975Y-28059D02*
X46887Y-28465D01*
X46887Y-28465D02*
X47695Y-29052D01*
X47695Y-29052D02*
X48363Y-29794D01*
X48363Y-29794D02*
X48862Y-30658D01*
X48862Y-30658D02*
X49170Y-31608D01*
X49170Y-31608D02*
X49275Y-32600D01*
X55101Y-35400D02*
X55079Y-35608D01*
X55079Y-35608D02*
X55014Y-35807D01*
X55014Y-35807D02*
X54909Y-35988D01*
X54909Y-35988D02*
X54769Y-36143D01*
X54769Y-36143D02*
X54600Y-36266D01*
X54600Y-36266D02*
X54409Y-36352D01*
X54409Y-36352D02*
X54204Y-36395D01*
X54204Y-36395D02*
X53996Y-36395D01*
X53996Y-36395D02*
X53791Y-36352D01*
X53791Y-36352D02*
X53600Y-36266D01*
X53600Y-36266D02*
X53431Y-36143D01*
X53431Y-36143D02*
X53291Y-35988D01*
X53291Y-35988D02*
X53186Y-35807D01*
X53186Y-35807D02*
X53121Y-35608D01*
X53121Y-35608D02*
X53099Y-35400D01*
X53099Y-35400D02*
X53121Y-35192D01*
X53121Y-35192D02*
X53186Y-34993D01*
X53186Y-34993D02*
X53291Y-34812D01*
X53291Y-34812D02*
X53431Y-34657D01*
X53431Y-34657D02*
X53600Y-34534D01*
X53600Y-34534D02*
X53791Y-34448D01*
X53791Y-34448D02*
X53996Y-34405D01*
X53996Y-34405D02*
X54204Y-34405D01*
X54204Y-34405D02*
X54409Y-34448D01*
X54409Y-34448D02*
X54600Y-34534D01*
X54600Y-34534D02*
X54769Y-34657D01*
X54769Y-34657D02*
X54909Y-34812D01*
X54909Y-34812D02*
X55014Y-34993D01*
X55014Y-34993D02*
X55079Y-35192D01*
X55079Y-35192D02*
X55101Y-35400D01*
X57301Y-34700D02*
X57279Y-34908D01*
X57279Y-34908D02*
X57214Y-35107D01*
X57214Y-35107D02*
X57109Y-35288D01*
X57109Y-35288D02*
X56969Y-35443D01*
X56969Y-35443D02*
X56800Y-35566D01*
X56800Y-35566D02*
X56609Y-35652D01*
X56609Y-35652D02*
X56404Y-35695D01*
X56404Y-35695D02*
X56196Y-35695D01*
X56196Y-35695D02*
X55991Y-35652D01*
X55991Y-35652D02*
X55800Y-35566D01*
X55800Y-35566D02*
X55631Y-35443D01*
X55631Y-35443D02*
X55491Y-35288D01*
X55491Y-35288D02*
X55386Y-35107D01*
X55386Y-35107D02*
X55321Y-34908D01*
X55321Y-34908D02*
X55299Y-34700D01*
X55299Y-34700D02*
X55321Y-34492D01*
X55321Y-34492D02*
X55386Y-34293D01*
X55386Y-34293D02*
X55491Y-34112D01*
X55491Y-34112D02*
X55631Y-33957D01*
X55631Y-33957D02*
X55800Y-33834D01*
X55800Y-33834D02*
X55991Y-33748D01*
X55991Y-33748D02*
X56196Y-33705D01*
X56196Y-33705D02*
X56404Y-33705D01*
X56404Y-33705D02*
X56609Y-33748D01*
X56609Y-33748D02*
X56800Y-33834D01*
X56800Y-33834D02*
X56969Y-33957D01*
X56969Y-33957D02*
X57109Y-34112D01*
X57109Y-34112D02*
X57214Y-34293D01*
X57214Y-34293D02*
X57279Y-34492D01*
X57279Y-34492D02*
X57301Y-34700D01*
X57401Y-37600D02*
X57379Y-37808D01*
X57379Y-37808D02*
X57314Y-38007D01*
X57314Y-38007D02*
X57209Y-38188D01*
X57209Y-38188D02*
X57069Y-38343D01*
X57069Y-38343D02*
X56900Y-38466D01*
X56900Y-38466D02*
X56709Y-38552D01*
X56709Y-38552D02*
X56504Y-38595D01*
X56504Y-38595D02*
X56296Y-38595D01*
X56296Y-38595D02*
X56091Y-38552D01*
X56091Y-38552D02*
X55900Y-38466D01*
X55900Y-38466D02*
X55731Y-38343D01*
X55731Y-38343D02*
X55591Y-38188D01*
X55591Y-38188D02*
X55486Y-38007D01*
X55486Y-38007D02*
X55421Y-37808D01*
X55421Y-37808D02*
X55399Y-37600D01*
X55399Y-37600D02*
X55421Y-37392D01*
X55421Y-37392D02*
X55486Y-37193D01*
X55486Y-37193D02*
X55591Y-37012D01*
X55591Y-37012D02*
X55731Y-36857D01*
X55731Y-36857D02*
X55900Y-36734D01*
X55900Y-36734D02*
X56091Y-36648D01*
X56091Y-36648D02*
X56296Y-36605D01*
X56296Y-36605D02*
X56504Y-36605D01*
X56504Y-36605D02*
X56709Y-36648D01*
X56709Y-36648D02*
X56900Y-36734D01*
X56900Y-36734D02*
X57069Y-36857D01*
X57069Y-36857D02*
X57209Y-37012D01*
X57209Y-37012D02*
X57314Y-37193D01*
X57314Y-37193D02*
X57379Y-37392D01*
X57379Y-37392D02*
X57401Y-37600D01*
G54D23*
X54750Y-40400D02*
X54673Y-40782D01*
X54673Y-40782D02*
X54457Y-41107D01*
X54457Y-41107D02*
X54132Y-41323D01*
X54132Y-41323D02*
X53750Y-41400D01*
X53750Y-41400D02*
X53368Y-41323D01*
X53368Y-41323D02*
X53043Y-41107D01*
X53043Y-41107D02*
X52827Y-40782D01*
X52827Y-40782D02*
X52750Y-40400D01*
X52750Y-40400D02*
X52827Y-40018D01*
X52827Y-40018D02*
X53043Y-39693D01*
X53043Y-39693D02*
X53368Y-39477D01*
X53368Y-39477D02*
X53750Y-39400D01*
X53750Y-39400D02*
X54132Y-39477D01*
X54132Y-39477D02*
X54457Y-39693D01*
X54457Y-39693D02*
X54673Y-40018D01*
X54673Y-40018D02*
X54750Y-40400D01*
X54000Y-41400D02*
X54000Y-41150D01*
X54000Y-41150D02*
X53500Y-41150D01*
X53500Y-41150D02*
X53500Y-41400D01*
G54D24*
X40550Y-39750D02*
X41650Y-38850D01*
X49450Y-38850D02*
X50550Y-39850D01*
X50050Y-38850D02*
X40550Y-38850D01*
X40550Y-38850D02*
X40550Y-42150D01*
X40550Y-42150D02*
X50550Y-42150D01*
X50550Y-42150D02*
X50550Y-38850D01*
X50550Y-38850D02*
X50050Y-38850D01*
G54D23*
X50750Y-37550D02*
X50950Y-37550D01*
X53750Y-37550D02*
X53550Y-37550D01*
X53550Y-37550D02*
X53550Y-37150D01*
X53550Y-37150D02*
X50950Y-37150D01*
X50950Y-37150D02*
X50950Y-37950D01*
X50950Y-37950D02*
X53550Y-37950D01*
X53550Y-37950D02*
X53550Y-37550D01*
X50950Y-37350D02*
X51150Y-37150D01*
G54D10*
X67600Y-27600D02*
X63600Y-27600D01*
X67600Y-40300D02*
X63600Y-40300D01*
X67600Y-27600D02*
X67600Y-40300D01*
G54D23*
X63600Y-27550D02*
X63600Y-40350D01*
X67600Y-30350D02*
X67600Y-37550D01*
G54D10*
X60600Y-29800D02*
X60600Y-29800D01*
X60600Y-29800D02*
X60600Y-30300D01*
X60600Y-30300D02*
X59600Y-30300D01*
X59600Y-30300D02*
X59600Y-29800D01*
X61100Y-29800D02*
X61100Y-38800D01*
X61100Y-38800D02*
X59100Y-38800D01*
X59100Y-38800D02*
X59100Y-29800D01*
X59100Y-29800D02*
X61100Y-29800D01*
G54D24*
X55200Y-32300D02*
X55200Y-31300D01*
X57200Y-32300D02*
X57200Y-31300D01*
X57200Y-31300D02*
X57178Y-31092D01*
X57178Y-31092D02*
X57114Y-30893D01*
X57114Y-30893D02*
X57009Y-30712D01*
X57009Y-30712D02*
X56869Y-30557D01*
X56869Y-30557D02*
X56700Y-30434D01*
X56700Y-30434D02*
X56509Y-30349D01*
X56509Y-30349D02*
X56305Y-30305D01*
X56305Y-30305D02*
X56200Y-30300D01*
X56200Y-30300D02*
X55992Y-30322D01*
X55992Y-30322D02*
X55793Y-30386D01*
X55793Y-30386D02*
X55612Y-30491D01*
X55612Y-30491D02*
X55457Y-30631D01*
X55457Y-30631D02*
X55334Y-30800D01*
X55334Y-30800D02*
X55249Y-30991D01*
X55249Y-30991D02*
X55205Y-31195D01*
X55205Y-31195D02*
X55200Y-31300D01*
X55200Y-32300D02*
X55222Y-32508D01*
X55222Y-32508D02*
X55286Y-32707D01*
X55286Y-32707D02*
X55391Y-32888D01*
X55391Y-32888D02*
X55531Y-33043D01*
X55531Y-33043D02*
X55700Y-33166D01*
X55700Y-33166D02*
X55891Y-33251D01*
X55891Y-33251D02*
X56095Y-33295D01*
X56095Y-33295D02*
X56200Y-33300D01*
X56200Y-33300D02*
X56408Y-33278D01*
X56408Y-33278D02*
X56607Y-33214D01*
X56607Y-33214D02*
X56788Y-33109D01*
X56788Y-33109D02*
X56943Y-32969D01*
X56943Y-32969D02*
X57066Y-32800D01*
X57066Y-32800D02*
X57151Y-32609D01*
X57151Y-32609D02*
X57195Y-32405D01*
X57195Y-32405D02*
X57200Y-32300D01*
X55001Y-32400D02*
X54979Y-32608D01*
X54979Y-32608D02*
X54914Y-32807D01*
X54914Y-32807D02*
X54809Y-32988D01*
X54809Y-32988D02*
X54669Y-33143D01*
X54669Y-33143D02*
X54500Y-33266D01*
X54500Y-33266D02*
X54309Y-33352D01*
X54309Y-33352D02*
X54104Y-33395D01*
X54104Y-33395D02*
X53896Y-33395D01*
X53896Y-33395D02*
X53691Y-33352D01*
X53691Y-33352D02*
X53500Y-33266D01*
X53500Y-33266D02*
X53331Y-33143D01*
X53331Y-33143D02*
X53191Y-32988D01*
X53191Y-32988D02*
X53086Y-32807D01*
X53086Y-32807D02*
X53021Y-32608D01*
X53021Y-32608D02*
X52999Y-32400D01*
X52999Y-32400D02*
X53021Y-32192D01*
X53021Y-32192D02*
X53086Y-31993D01*
X53086Y-31993D02*
X53191Y-31812D01*
X53191Y-31812D02*
X53331Y-31657D01*
X53331Y-31657D02*
X53500Y-31534D01*
X53500Y-31534D02*
X53691Y-31448D01*
X53691Y-31448D02*
X53896Y-31405D01*
X53896Y-31405D02*
X54104Y-31405D01*
X54104Y-31405D02*
X54309Y-31448D01*
X54309Y-31448D02*
X54500Y-31534D01*
X54500Y-31534D02*
X54669Y-31657D01*
X54669Y-31657D02*
X54809Y-31812D01*
X54809Y-31812D02*
X54914Y-31993D01*
X54914Y-31993D02*
X54979Y-32192D01*
X54979Y-32192D02*
X55001Y-32400D01*
G54D25*
X47425Y-26475D02*
X47425Y-25925D01*
X47425Y-25925D02*
X47975Y-25925D01*
X47975Y-25925D02*
X47975Y-26475D01*
X47975Y-26475D02*
X47425Y-26475D01*
X48975Y-26200D02*
X48968Y-26257D01*
X48968Y-26257D02*
X48951Y-26311D01*
X48951Y-26311D02*
X48922Y-26361D01*
X48922Y-26361D02*
X48884Y-26404D01*
X48884Y-26404D02*
X48837Y-26438D01*
X48837Y-26438D02*
X48784Y-26461D01*
X48784Y-26461D02*
X48728Y-26473D01*
X48728Y-26473D02*
X48672Y-26473D01*
X48672Y-26473D02*
X48616Y-26461D01*
X48616Y-26461D02*
X48563Y-26438D01*
X48563Y-26438D02*
X48516Y-26404D01*
X48516Y-26404D02*
X48478Y-26361D01*
X48478Y-26361D02*
X48449Y-26311D01*
X48449Y-26311D02*
X48432Y-26257D01*
X48432Y-26257D02*
X48425Y-26200D01*
X48425Y-26200D02*
X48432Y-26143D01*
X48432Y-26143D02*
X48449Y-26089D01*
X48449Y-26089D02*
X48478Y-26039D01*
X48478Y-26039D02*
X48516Y-25996D01*
X48516Y-25996D02*
X48563Y-25962D01*
X48563Y-25962D02*
X48616Y-25939D01*
X48616Y-25939D02*
X48672Y-25927D01*
X48672Y-25927D02*
X48728Y-25927D01*
X48728Y-25927D02*
X48784Y-25939D01*
X48784Y-25939D02*
X48837Y-25962D01*
X48837Y-25962D02*
X48884Y-25996D01*
X48884Y-25996D02*
X48922Y-26039D01*
X48922Y-26039D02*
X48951Y-26089D01*
X48951Y-26089D02*
X48968Y-26143D01*
X48968Y-26143D02*
X48975Y-26200D01*
X49975Y-26200D02*
X49968Y-26257D01*
X49968Y-26257D02*
X49951Y-26311D01*
X49951Y-26311D02*
X49922Y-26361D01*
X49922Y-26361D02*
X49884Y-26404D01*
X49884Y-26404D02*
X49837Y-26438D01*
X49837Y-26438D02*
X49784Y-26461D01*
X49784Y-26461D02*
X49728Y-26473D01*
X49728Y-26473D02*
X49672Y-26473D01*
X49672Y-26473D02*
X49616Y-26461D01*
X49616Y-26461D02*
X49563Y-26438D01*
X49563Y-26438D02*
X49516Y-26404D01*
X49516Y-26404D02*
X49478Y-26361D01*
X49478Y-26361D02*
X49449Y-26311D01*
X49449Y-26311D02*
X49432Y-26257D01*
X49432Y-26257D02*
X49425Y-26200D01*
X49425Y-26200D02*
X49432Y-26143D01*
X49432Y-26143D02*
X49449Y-26089D01*
X49449Y-26089D02*
X49478Y-26039D01*
X49478Y-26039D02*
X49516Y-25996D01*
X49516Y-25996D02*
X49563Y-25962D01*
X49563Y-25962D02*
X49616Y-25939D01*
X49616Y-25939D02*
X49672Y-25927D01*
X49672Y-25927D02*
X49728Y-25927D01*
X49728Y-25927D02*
X49784Y-25939D01*
X49784Y-25939D02*
X49837Y-25962D01*
X49837Y-25962D02*
X49884Y-25996D01*
X49884Y-25996D02*
X49922Y-26039D01*
X49922Y-26039D02*
X49951Y-26089D01*
X49951Y-26089D02*
X49968Y-26143D01*
X49968Y-26143D02*
X49975Y-26200D01*
X50975Y-26200D02*
X50968Y-26257D01*
X50968Y-26257D02*
X50951Y-26311D01*
X50951Y-26311D02*
X50922Y-26361D01*
X50922Y-26361D02*
X50884Y-26404D01*
X50884Y-26404D02*
X50837Y-26438D01*
X50837Y-26438D02*
X50784Y-26461D01*
X50784Y-26461D02*
X50728Y-26473D01*
X50728Y-26473D02*
X50672Y-26473D01*
X50672Y-26473D02*
X50616Y-26461D01*
X50616Y-26461D02*
X50563Y-26438D01*
X50563Y-26438D02*
X50516Y-26404D01*
X50516Y-26404D02*
X50478Y-26361D01*
X50478Y-26361D02*
X50449Y-26311D01*
X50449Y-26311D02*
X50432Y-26257D01*
X50432Y-26257D02*
X50425Y-26200D01*
X50425Y-26200D02*
X50432Y-26143D01*
X50432Y-26143D02*
X50449Y-26089D01*
X50449Y-26089D02*
X50478Y-26039D01*
X50478Y-26039D02*
X50516Y-25996D01*
X50516Y-25996D02*
X50563Y-25962D01*
X50563Y-25962D02*
X50616Y-25939D01*
X50616Y-25939D02*
X50672Y-25927D01*
X50672Y-25927D02*
X50728Y-25927D01*
X50728Y-25927D02*
X50784Y-25939D01*
X50784Y-25939D02*
X50837Y-25962D01*
X50837Y-25962D02*
X50884Y-25996D01*
X50884Y-25996D02*
X50922Y-26039D01*
X50922Y-26039D02*
X50951Y-26089D01*
X50951Y-26089D02*
X50968Y-26143D01*
X50968Y-26143D02*
X50975Y-26200D01*
X51975Y-26200D02*
X51968Y-26257D01*
X51968Y-26257D02*
X51951Y-26311D01*
X51951Y-26311D02*
X51922Y-26361D01*
X51922Y-26361D02*
X51884Y-26404D01*
X51884Y-26404D02*
X51837Y-26438D01*
X51837Y-26438D02*
X51784Y-26461D01*
X51784Y-26461D02*
X51728Y-26473D01*
X51728Y-26473D02*
X51672Y-26473D01*
X51672Y-26473D02*
X51616Y-26461D01*
X51616Y-26461D02*
X51563Y-26438D01*
X51563Y-26438D02*
X51516Y-26404D01*
X51516Y-26404D02*
X51478Y-26361D01*
X51478Y-26361D02*
X51449Y-26311D01*
X51449Y-26311D02*
X51432Y-26257D01*
X51432Y-26257D02*
X51425Y-26200D01*
X51425Y-26200D02*
X51432Y-26143D01*
X51432Y-26143D02*
X51449Y-26089D01*
X51449Y-26089D02*
X51478Y-26039D01*
X51478Y-26039D02*
X51516Y-25996D01*
X51516Y-25996D02*
X51563Y-25962D01*
X51563Y-25962D02*
X51616Y-25939D01*
X51616Y-25939D02*
X51672Y-25927D01*
X51672Y-25927D02*
X51728Y-25927D01*
X51728Y-25927D02*
X51784Y-25939D01*
X51784Y-25939D02*
X51837Y-25962D01*
X51837Y-25962D02*
X51884Y-25996D01*
X51884Y-25996D02*
X51922Y-26039D01*
X51922Y-26039D02*
X51951Y-26089D01*
X51951Y-26089D02*
X51968Y-26143D01*
X51968Y-26143D02*
X51975Y-26200D01*
X52975Y-26200D02*
X52968Y-26257D01*
X52968Y-26257D02*
X52951Y-26311D01*
X52951Y-26311D02*
X52922Y-26361D01*
X52922Y-26361D02*
X52884Y-26404D01*
X52884Y-26404D02*
X52837Y-26438D01*
X52837Y-26438D02*
X52784Y-26461D01*
X52784Y-26461D02*
X52728Y-26473D01*
X52728Y-26473D02*
X52672Y-26473D01*
X52672Y-26473D02*
X52616Y-26461D01*
X52616Y-26461D02*
X52563Y-26438D01*
X52563Y-26438D02*
X52516Y-26404D01*
X52516Y-26404D02*
X52478Y-26361D01*
X52478Y-26361D02*
X52449Y-26311D01*
X52449Y-26311D02*
X52432Y-26257D01*
X52432Y-26257D02*
X52425Y-26200D01*
X52425Y-26200D02*
X52432Y-26143D01*
X52432Y-26143D02*
X52449Y-26089D01*
X52449Y-26089D02*
X52478Y-26039D01*
X52478Y-26039D02*
X52516Y-25996D01*
X52516Y-25996D02*
X52563Y-25962D01*
X52563Y-25962D02*
X52616Y-25939D01*
X52616Y-25939D02*
X52672Y-25927D01*
X52672Y-25927D02*
X52728Y-25927D01*
X52728Y-25927D02*
X52784Y-25939D01*
X52784Y-25939D02*
X52837Y-25962D01*
X52837Y-25962D02*
X52884Y-25996D01*
X52884Y-25996D02*
X52922Y-26039D01*
X52922Y-26039D02*
X52951Y-26089D01*
X52951Y-26089D02*
X52968Y-26143D01*
X52968Y-26143D02*
X52975Y-26200D01*
X53975Y-26200D02*
X53968Y-26257D01*
X53968Y-26257D02*
X53951Y-26311D01*
X53951Y-26311D02*
X53922Y-26361D01*
X53922Y-26361D02*
X53884Y-26404D01*
X53884Y-26404D02*
X53837Y-26438D01*
X53837Y-26438D02*
X53784Y-26461D01*
X53784Y-26461D02*
X53728Y-26473D01*
X53728Y-26473D02*
X53672Y-26473D01*
X53672Y-26473D02*
X53616Y-26461D01*
X53616Y-26461D02*
X53563Y-26438D01*
X53563Y-26438D02*
X53516Y-26404D01*
X53516Y-26404D02*
X53478Y-26361D01*
X53478Y-26361D02*
X53449Y-26311D01*
X53449Y-26311D02*
X53432Y-26257D01*
X53432Y-26257D02*
X53425Y-26200D01*
X53425Y-26200D02*
X53432Y-26143D01*
X53432Y-26143D02*
X53449Y-26089D01*
X53449Y-26089D02*
X53478Y-26039D01*
X53478Y-26039D02*
X53516Y-25996D01*
X53516Y-25996D02*
X53563Y-25962D01*
X53563Y-25962D02*
X53616Y-25939D01*
X53616Y-25939D02*
X53672Y-25927D01*
X53672Y-25927D02*
X53728Y-25927D01*
X53728Y-25927D02*
X53784Y-25939D01*
X53784Y-25939D02*
X53837Y-25962D01*
X53837Y-25962D02*
X53884Y-25996D01*
X53884Y-25996D02*
X53922Y-26039D01*
X53922Y-26039D02*
X53951Y-26089D01*
X53951Y-26089D02*
X53968Y-26143D01*
X53968Y-26143D02*
X53975Y-26200D01*
X54975Y-26200D02*
X54968Y-26257D01*
X54968Y-26257D02*
X54951Y-26311D01*
X54951Y-26311D02*
X54922Y-26361D01*
X54922Y-26361D02*
X54884Y-26404D01*
X54884Y-26404D02*
X54837Y-26438D01*
X54837Y-26438D02*
X54784Y-26461D01*
X54784Y-26461D02*
X54728Y-26473D01*
X54728Y-26473D02*
X54672Y-26473D01*
X54672Y-26473D02*
X54616Y-26461D01*
X54616Y-26461D02*
X54563Y-26438D01*
X54563Y-26438D02*
X54516Y-26404D01*
X54516Y-26404D02*
X54478Y-26361D01*
X54478Y-26361D02*
X54449Y-26311D01*
X54449Y-26311D02*
X54432Y-26257D01*
X54432Y-26257D02*
X54425Y-26200D01*
X54425Y-26200D02*
X54432Y-26143D01*
X54432Y-26143D02*
X54449Y-26089D01*
X54449Y-26089D02*
X54478Y-26039D01*
X54478Y-26039D02*
X54516Y-25996D01*
X54516Y-25996D02*
X54563Y-25962D01*
X54563Y-25962D02*
X54616Y-25939D01*
X54616Y-25939D02*
X54672Y-25927D01*
X54672Y-25927D02*
X54728Y-25927D01*
X54728Y-25927D02*
X54784Y-25939D01*
X54784Y-25939D02*
X54837Y-25962D01*
X54837Y-25962D02*
X54884Y-25996D01*
X54884Y-25996D02*
X54922Y-26039D01*
X54922Y-26039D02*
X54951Y-26089D01*
X54951Y-26089D02*
X54968Y-26143D01*
X54968Y-26143D02*
X54975Y-26200D01*
X55975Y-26200D02*
X55968Y-26257D01*
X55968Y-26257D02*
X55951Y-26311D01*
X55951Y-26311D02*
X55922Y-26361D01*
X55922Y-26361D02*
X55884Y-26404D01*
X55884Y-26404D02*
X55837Y-26438D01*
X55837Y-26438D02*
X55784Y-26461D01*
X55784Y-26461D02*
X55728Y-26473D01*
X55728Y-26473D02*
X55672Y-26473D01*
X55672Y-26473D02*
X55616Y-26461D01*
X55616Y-26461D02*
X55563Y-26438D01*
X55563Y-26438D02*
X55516Y-26404D01*
X55516Y-26404D02*
X55478Y-26361D01*
X55478Y-26361D02*
X55449Y-26311D01*
X55449Y-26311D02*
X55432Y-26257D01*
X55432Y-26257D02*
X55425Y-26200D01*
X55425Y-26200D02*
X55432Y-26143D01*
X55432Y-26143D02*
X55449Y-26089D01*
X55449Y-26089D02*
X55478Y-26039D01*
X55478Y-26039D02*
X55516Y-25996D01*
X55516Y-25996D02*
X55563Y-25962D01*
X55563Y-25962D02*
X55616Y-25939D01*
X55616Y-25939D02*
X55672Y-25927D01*
X55672Y-25927D02*
X55728Y-25927D01*
X55728Y-25927D02*
X55784Y-25939D01*
X55784Y-25939D02*
X55837Y-25962D01*
X55837Y-25962D02*
X55884Y-25996D01*
X55884Y-25996D02*
X55922Y-26039D01*
X55922Y-26039D02*
X55951Y-26089D01*
X55951Y-26089D02*
X55968Y-26143D01*
X55968Y-26143D02*
X55975Y-26200D01*
X56975Y-26200D02*
X56968Y-26257D01*
X56968Y-26257D02*
X56951Y-26311D01*
X56951Y-26311D02*
X56922Y-26361D01*
X56922Y-26361D02*
X56884Y-26404D01*
X56884Y-26404D02*
X56837Y-26438D01*
X56837Y-26438D02*
X56784Y-26461D01*
X56784Y-26461D02*
X56728Y-26473D01*
X56728Y-26473D02*
X56672Y-26473D01*
X56672Y-26473D02*
X56616Y-26461D01*
X56616Y-26461D02*
X56563Y-26438D01*
X56563Y-26438D02*
X56516Y-26404D01*
X56516Y-26404D02*
X56478Y-26361D01*
X56478Y-26361D02*
X56449Y-26311D01*
X56449Y-26311D02*
X56432Y-26257D01*
X56432Y-26257D02*
X56425Y-26200D01*
X56425Y-26200D02*
X56432Y-26143D01*
X56432Y-26143D02*
X56449Y-26089D01*
X56449Y-26089D02*
X56478Y-26039D01*
X56478Y-26039D02*
X56516Y-25996D01*
X56516Y-25996D02*
X56563Y-25962D01*
X56563Y-25962D02*
X56616Y-25939D01*
X56616Y-25939D02*
X56672Y-25927D01*
X56672Y-25927D02*
X56728Y-25927D01*
X56728Y-25927D02*
X56784Y-25939D01*
X56784Y-25939D02*
X56837Y-25962D01*
X56837Y-25962D02*
X56884Y-25996D01*
X56884Y-25996D02*
X56922Y-26039D01*
X56922Y-26039D02*
X56951Y-26089D01*
X56951Y-26089D02*
X56968Y-26143D01*
X56968Y-26143D02*
X56975Y-26200D01*
X57975Y-26200D02*
X57968Y-26257D01*
X57968Y-26257D02*
X57951Y-26311D01*
X57951Y-26311D02*
X57922Y-26361D01*
X57922Y-26361D02*
X57884Y-26404D01*
X57884Y-26404D02*
X57837Y-26438D01*
X57837Y-26438D02*
X57784Y-26461D01*
X57784Y-26461D02*
X57728Y-26473D01*
X57728Y-26473D02*
X57672Y-26473D01*
X57672Y-26473D02*
X57616Y-26461D01*
X57616Y-26461D02*
X57563Y-26438D01*
X57563Y-26438D02*
X57516Y-26404D01*
X57516Y-26404D02*
X57478Y-26361D01*
X57478Y-26361D02*
X57449Y-26311D01*
X57449Y-26311D02*
X57432Y-26257D01*
X57432Y-26257D02*
X57425Y-26200D01*
X57425Y-26200D02*
X57432Y-26143D01*
X57432Y-26143D02*
X57449Y-26089D01*
X57449Y-26089D02*
X57478Y-26039D01*
X57478Y-26039D02*
X57516Y-25996D01*
X57516Y-25996D02*
X57563Y-25962D01*
X57563Y-25962D02*
X57616Y-25939D01*
X57616Y-25939D02*
X57672Y-25927D01*
X57672Y-25927D02*
X57728Y-25927D01*
X57728Y-25927D02*
X57784Y-25939D01*
X57784Y-25939D02*
X57837Y-25962D01*
X57837Y-25962D02*
X57884Y-25996D01*
X57884Y-25996D02*
X57922Y-26039D01*
X57922Y-26039D02*
X57951Y-26089D01*
X57951Y-26089D02*
X57968Y-26143D01*
X57968Y-26143D02*
X57975Y-26200D01*
X58975Y-26200D02*
X58968Y-26257D01*
X58968Y-26257D02*
X58951Y-26311D01*
X58951Y-26311D02*
X58922Y-26361D01*
X58922Y-26361D02*
X58884Y-26404D01*
X58884Y-26404D02*
X58837Y-26438D01*
X58837Y-26438D02*
X58784Y-26461D01*
X58784Y-26461D02*
X58728Y-26473D01*
X58728Y-26473D02*
X58672Y-26473D01*
X58672Y-26473D02*
X58616Y-26461D01*
X58616Y-26461D02*
X58563Y-26438D01*
X58563Y-26438D02*
X58516Y-26404D01*
X58516Y-26404D02*
X58478Y-26361D01*
X58478Y-26361D02*
X58449Y-26311D01*
X58449Y-26311D02*
X58432Y-26257D01*
X58432Y-26257D02*
X58425Y-26200D01*
X58425Y-26200D02*
X58432Y-26143D01*
X58432Y-26143D02*
X58449Y-26089D01*
X58449Y-26089D02*
X58478Y-26039D01*
X58478Y-26039D02*
X58516Y-25996D01*
X58516Y-25996D02*
X58563Y-25962D01*
X58563Y-25962D02*
X58616Y-25939D01*
X58616Y-25939D02*
X58672Y-25927D01*
X58672Y-25927D02*
X58728Y-25927D01*
X58728Y-25927D02*
X58784Y-25939D01*
X58784Y-25939D02*
X58837Y-25962D01*
X58837Y-25962D02*
X58884Y-25996D01*
X58884Y-25996D02*
X58922Y-26039D01*
X58922Y-26039D02*
X58951Y-26089D01*
X58951Y-26089D02*
X58968Y-26143D01*
X58968Y-26143D02*
X58975Y-26200D01*
X50500Y-33400D02*
X50500Y-34200D01*
X50500Y-34200D02*
X49700Y-34200D01*
X49700Y-34200D02*
X49700Y-33400D01*
X49700Y-33400D02*
X50500Y-33400D01*
X51500Y-33800D02*
X51491Y-33883D01*
X51491Y-33883D02*
X51465Y-33962D01*
X51465Y-33962D02*
X51423Y-34035D01*
X51423Y-34035D02*
X51367Y-34097D01*
X51367Y-34097D02*
X51300Y-34146D01*
X51300Y-34146D02*
X51223Y-34180D01*
X51223Y-34180D02*
X51141Y-34197D01*
X51141Y-34197D02*
X51059Y-34197D01*
X51059Y-34197D02*
X50977Y-34180D01*
X50977Y-34180D02*
X50900Y-34146D01*
X50900Y-34146D02*
X50833Y-34097D01*
X50833Y-34097D02*
X50777Y-34035D01*
X50777Y-34035D02*
X50735Y-33962D01*
X50735Y-33962D02*
X50709Y-33883D01*
X50709Y-33883D02*
X50700Y-33800D01*
X50700Y-33800D02*
X50709Y-33717D01*
X50709Y-33717D02*
X50735Y-33638D01*
X50735Y-33638D02*
X50777Y-33565D01*
X50777Y-33565D02*
X50833Y-33503D01*
X50833Y-33503D02*
X50900Y-33454D01*
X50900Y-33454D02*
X50977Y-33420D01*
X50977Y-33420D02*
X51059Y-33403D01*
X51059Y-33403D02*
X51141Y-33403D01*
X51141Y-33403D02*
X51223Y-33420D01*
X51223Y-33420D02*
X51300Y-33454D01*
X51300Y-33454D02*
X51367Y-33503D01*
X51367Y-33503D02*
X51423Y-33565D01*
X51423Y-33565D02*
X51465Y-33638D01*
X51465Y-33638D02*
X51491Y-33717D01*
X51491Y-33717D02*
X51500Y-33800D01*
X51500Y-32800D02*
X51491Y-32883D01*
X51491Y-32883D02*
X51465Y-32962D01*
X51465Y-32962D02*
X51423Y-33035D01*
X51423Y-33035D02*
X51367Y-33097D01*
X51367Y-33097D02*
X51300Y-33146D01*
X51300Y-33146D02*
X51223Y-33180D01*
X51223Y-33180D02*
X51141Y-33197D01*
X51141Y-33197D02*
X51059Y-33197D01*
X51059Y-33197D02*
X50977Y-33180D01*
X50977Y-33180D02*
X50900Y-33146D01*
X50900Y-33146D02*
X50833Y-33097D01*
X50833Y-33097D02*
X50777Y-33035D01*
X50777Y-33035D02*
X50735Y-32962D01*
X50735Y-32962D02*
X50709Y-32883D01*
X50709Y-32883D02*
X50700Y-32800D01*
X50700Y-32800D02*
X50709Y-32717D01*
X50709Y-32717D02*
X50735Y-32638D01*
X50735Y-32638D02*
X50777Y-32565D01*
X50777Y-32565D02*
X50833Y-32503D01*
X50833Y-32503D02*
X50900Y-32454D01*
X50900Y-32454D02*
X50977Y-32420D01*
X50977Y-32420D02*
X51059Y-32403D01*
X51059Y-32403D02*
X51141Y-32403D01*
X51141Y-32403D02*
X51223Y-32420D01*
X51223Y-32420D02*
X51300Y-32454D01*
X51300Y-32454D02*
X51367Y-32503D01*
X51367Y-32503D02*
X51423Y-32565D01*
X51423Y-32565D02*
X51465Y-32638D01*
X51465Y-32638D02*
X51491Y-32717D01*
X51491Y-32717D02*
X51500Y-32800D01*
X56000Y-41300D02*
X56000Y-40500D01*
X56000Y-40500D02*
X56800Y-40500D01*
X56800Y-40500D02*
X56800Y-41300D01*
X56800Y-41300D02*
X56000Y-41300D01*
X57800Y-40900D02*
X57791Y-40983D01*
X57791Y-40983D02*
X57765Y-41062D01*
X57765Y-41062D02*
X57723Y-41135D01*
X57723Y-41135D02*
X57667Y-41197D01*
X57667Y-41197D02*
X57600Y-41246D01*
X57600Y-41246D02*
X57523Y-41280D01*
X57523Y-41280D02*
X57441Y-41297D01*
X57441Y-41297D02*
X57359Y-41297D01*
X57359Y-41297D02*
X57277Y-41280D01*
X57277Y-41280D02*
X57200Y-41246D01*
X57200Y-41246D02*
X57133Y-41197D01*
X57133Y-41197D02*
X57077Y-41135D01*
X57077Y-41135D02*
X57035Y-41062D01*
X57035Y-41062D02*
X57009Y-40983D01*
X57009Y-40983D02*
X57000Y-40900D01*
X57000Y-40900D02*
X57009Y-40817D01*
X57009Y-40817D02*
X57035Y-40738D01*
X57035Y-40738D02*
X57077Y-40665D01*
X57077Y-40665D02*
X57133Y-40603D01*
X57133Y-40603D02*
X57200Y-40554D01*
X57200Y-40554D02*
X57277Y-40520D01*
X57277Y-40520D02*
X57359Y-40503D01*
X57359Y-40503D02*
X57441Y-40503D01*
X57441Y-40503D02*
X57523Y-40520D01*
X57523Y-40520D02*
X57600Y-40554D01*
X57600Y-40554D02*
X57667Y-40603D01*
X57667Y-40603D02*
X57723Y-40665D01*
X57723Y-40665D02*
X57765Y-40738D01*
X57765Y-40738D02*
X57791Y-40817D01*
X57791Y-40817D02*
X57800Y-40900D01*
X58900Y-41300D02*
X58900Y-40500D01*
X58900Y-40500D02*
X59700Y-40500D01*
X59700Y-40500D02*
X59700Y-41300D01*
X59700Y-41300D02*
X58900Y-41300D01*
X60700Y-40900D02*
X60691Y-40983D01*
X60691Y-40983D02*
X60665Y-41062D01*
X60665Y-41062D02*
X60623Y-41135D01*
X60623Y-41135D02*
X60567Y-41197D01*
X60567Y-41197D02*
X60500Y-41246D01*
X60500Y-41246D02*
X60423Y-41280D01*
X60423Y-41280D02*
X60341Y-41297D01*
X60341Y-41297D02*
X60259Y-41297D01*
X60259Y-41297D02*
X60177Y-41280D01*
X60177Y-41280D02*
X60100Y-41246D01*
X60100Y-41246D02*
X60033Y-41197D01*
X60033Y-41197D02*
X59977Y-41135D01*
X59977Y-41135D02*
X59935Y-41062D01*
X59935Y-41062D02*
X59909Y-40983D01*
X59909Y-40983D02*
X59900Y-40900D01*
X59900Y-40900D02*
X59909Y-40817D01*
X59909Y-40817D02*
X59935Y-40738D01*
X59935Y-40738D02*
X59977Y-40665D01*
X59977Y-40665D02*
X60033Y-40603D01*
X60033Y-40603D02*
X60100Y-40554D01*
X60100Y-40554D02*
X60177Y-40520D01*
X60177Y-40520D02*
X60259Y-40503D01*
X60259Y-40503D02*
X60341Y-40503D01*
X60341Y-40503D02*
X60423Y-40520D01*
X60423Y-40520D02*
X60500Y-40554D01*
X60500Y-40554D02*
X60567Y-40603D01*
X60567Y-40603D02*
X60623Y-40665D01*
X60623Y-40665D02*
X60665Y-40738D01*
X60665Y-40738D02*
X60691Y-40817D01*
X60691Y-40817D02*
X60700Y-40900D01*
X46950Y-32600D02*
X46933Y-32755D01*
X46933Y-32755D02*
X46885Y-32905D01*
X46885Y-32905D02*
X46806Y-33040D01*
X46806Y-33040D02*
X46701Y-33157D01*
X46701Y-33157D02*
X46575Y-33249D01*
X46575Y-33249D02*
X46431Y-33313D01*
X46431Y-33313D02*
X46278Y-33345D01*
X46278Y-33345D02*
X46122Y-33345D01*
X46122Y-33345D02*
X45969Y-33313D01*
X45969Y-33313D02*
X45825Y-33249D01*
X45825Y-33249D02*
X45699Y-33157D01*
X45699Y-33157D02*
X45594Y-33040D01*
X45594Y-33040D02*
X45515Y-32905D01*
X45515Y-32905D02*
X45467Y-32755D01*
X45467Y-32755D02*
X45450Y-32600D01*
X45450Y-32600D02*
X45467Y-32445D01*
X45467Y-32445D02*
X45515Y-32295D01*
X45515Y-32295D02*
X45594Y-32160D01*
X45594Y-32160D02*
X45699Y-32043D01*
X45699Y-32043D02*
X45825Y-31951D01*
X45825Y-31951D02*
X45969Y-31887D01*
X45969Y-31887D02*
X46122Y-31855D01*
X46122Y-31855D02*
X46278Y-31855D01*
X46278Y-31855D02*
X46431Y-31887D01*
X46431Y-31887D02*
X46575Y-31951D01*
X46575Y-31951D02*
X46701Y-32043D01*
X46701Y-32043D02*
X46806Y-32160D01*
X46806Y-32160D02*
X46885Y-32295D01*
X46885Y-32295D02*
X46933Y-32445D01*
X46933Y-32445D02*
X46950Y-32600D01*
X42050Y-33450D02*
X42050Y-31950D01*
X42050Y-31950D02*
X43550Y-31950D01*
X43550Y-31950D02*
X43550Y-33450D01*
X43550Y-33450D02*
X42050Y-33450D01*
X53700Y-34500D02*
X54500Y-34500D01*
X54500Y-34500D02*
X54500Y-35300D01*
X54500Y-35300D02*
X53700Y-35300D01*
X53700Y-35300D02*
X53700Y-34500D01*
X54500Y-35900D02*
X54491Y-35983D01*
X54491Y-35983D02*
X54465Y-36062D01*
X54465Y-36062D02*
X54423Y-36135D01*
X54423Y-36135D02*
X54367Y-36197D01*
X54367Y-36197D02*
X54300Y-36246D01*
X54300Y-36246D02*
X54223Y-36280D01*
X54223Y-36280D02*
X54141Y-36297D01*
X54141Y-36297D02*
X54059Y-36297D01*
X54059Y-36297D02*
X53977Y-36280D01*
X53977Y-36280D02*
X53900Y-36246D01*
X53900Y-36246D02*
X53833Y-36197D01*
X53833Y-36197D02*
X53777Y-36135D01*
X53777Y-36135D02*
X53735Y-36062D01*
X53735Y-36062D02*
X53709Y-35983D01*
X53709Y-35983D02*
X53700Y-35900D01*
X53700Y-35900D02*
X53709Y-35817D01*
X53709Y-35817D02*
X53735Y-35738D01*
X53735Y-35738D02*
X53777Y-35665D01*
X53777Y-35665D02*
X53833Y-35603D01*
X53833Y-35603D02*
X53900Y-35554D01*
X53900Y-35554D02*
X53977Y-35520D01*
X53977Y-35520D02*
X54059Y-35503D01*
X54059Y-35503D02*
X54141Y-35503D01*
X54141Y-35503D02*
X54223Y-35520D01*
X54223Y-35520D02*
X54300Y-35554D01*
X54300Y-35554D02*
X54367Y-35603D01*
X54367Y-35603D02*
X54423Y-35665D01*
X54423Y-35665D02*
X54465Y-35738D01*
X54465Y-35738D02*
X54491Y-35817D01*
X54491Y-35817D02*
X54500Y-35900D01*
X55900Y-33800D02*
X56700Y-33800D01*
X56700Y-33800D02*
X56700Y-34600D01*
X56700Y-34600D02*
X55900Y-34600D01*
X55900Y-34600D02*
X55900Y-33800D01*
X56700Y-35200D02*
X56691Y-35283D01*
X56691Y-35283D02*
X56665Y-35362D01*
X56665Y-35362D02*
X56623Y-35435D01*
X56623Y-35435D02*
X56567Y-35497D01*
X56567Y-35497D02*
X56500Y-35546D01*
X56500Y-35546D02*
X56423Y-35580D01*
X56423Y-35580D02*
X56341Y-35597D01*
X56341Y-35597D02*
X56259Y-35597D01*
X56259Y-35597D02*
X56177Y-35580D01*
X56177Y-35580D02*
X56100Y-35546D01*
X56100Y-35546D02*
X56033Y-35497D01*
X56033Y-35497D02*
X55977Y-35435D01*
X55977Y-35435D02*
X55935Y-35362D01*
X55935Y-35362D02*
X55909Y-35283D01*
X55909Y-35283D02*
X55900Y-35200D01*
X55900Y-35200D02*
X55909Y-35117D01*
X55909Y-35117D02*
X55935Y-35038D01*
X55935Y-35038D02*
X55977Y-34965D01*
X55977Y-34965D02*
X56033Y-34903D01*
X56033Y-34903D02*
X56100Y-34854D01*
X56100Y-34854D02*
X56177Y-34820D01*
X56177Y-34820D02*
X56259Y-34803D01*
X56259Y-34803D02*
X56341Y-34803D01*
X56341Y-34803D02*
X56423Y-34820D01*
X56423Y-34820D02*
X56500Y-34854D01*
X56500Y-34854D02*
X56567Y-34903D01*
X56567Y-34903D02*
X56623Y-34965D01*
X56623Y-34965D02*
X56665Y-35038D01*
X56665Y-35038D02*
X56691Y-35117D01*
X56691Y-35117D02*
X56700Y-35200D01*
X56000Y-36700D02*
X56800Y-36700D01*
X56800Y-36700D02*
X56800Y-37500D01*
X56800Y-37500D02*
X56000Y-37500D01*
X56000Y-37500D02*
X56000Y-36700D01*
X56800Y-38100D02*
X56791Y-38183D01*
X56791Y-38183D02*
X56765Y-38262D01*
X56765Y-38262D02*
X56723Y-38335D01*
X56723Y-38335D02*
X56667Y-38397D01*
X56667Y-38397D02*
X56600Y-38446D01*
X56600Y-38446D02*
X56523Y-38480D01*
X56523Y-38480D02*
X56441Y-38497D01*
X56441Y-38497D02*
X56359Y-38497D01*
X56359Y-38497D02*
X56277Y-38480D01*
X56277Y-38480D02*
X56200Y-38446D01*
X56200Y-38446D02*
X56133Y-38397D01*
X56133Y-38397D02*
X56077Y-38335D01*
X56077Y-38335D02*
X56035Y-38262D01*
X56035Y-38262D02*
X56009Y-38183D01*
X56009Y-38183D02*
X56000Y-38100D01*
X56000Y-38100D02*
X56009Y-38017D01*
X56009Y-38017D02*
X56035Y-37938D01*
X56035Y-37938D02*
X56077Y-37865D01*
X56077Y-37865D02*
X56133Y-37803D01*
X56133Y-37803D02*
X56200Y-37754D01*
X56200Y-37754D02*
X56277Y-37720D01*
X56277Y-37720D02*
X56359Y-37703D01*
X56359Y-37703D02*
X56441Y-37703D01*
X56441Y-37703D02*
X56523Y-37720D01*
X56523Y-37720D02*
X56600Y-37754D01*
X56600Y-37754D02*
X56667Y-37803D01*
X56667Y-37803D02*
X56723Y-37865D01*
X56723Y-37865D02*
X56765Y-37938D01*
X56765Y-37938D02*
X56791Y-38017D01*
X56791Y-38017D02*
X56800Y-38100D01*
X53350Y-39500D02*
X54150Y-39500D01*
X54150Y-39500D02*
X54150Y-40300D01*
X54150Y-40300D02*
X53350Y-40300D01*
X53350Y-40300D02*
X53350Y-39500D01*
X54150Y-40900D02*
X54141Y-40983D01*
X54141Y-40983D02*
X54115Y-41062D01*
X54115Y-41062D02*
X54073Y-41135D01*
X54073Y-41135D02*
X54017Y-41197D01*
X54017Y-41197D02*
X53950Y-41246D01*
X53950Y-41246D02*
X53873Y-41280D01*
X53873Y-41280D02*
X53791Y-41297D01*
X53791Y-41297D02*
X53709Y-41297D01*
X53709Y-41297D02*
X53627Y-41280D01*
X53627Y-41280D02*
X53550Y-41246D01*
X53550Y-41246D02*
X53483Y-41197D01*
X53483Y-41197D02*
X53427Y-41135D01*
X53427Y-41135D02*
X53385Y-41062D01*
X53385Y-41062D02*
X53359Y-40983D01*
X53359Y-40983D02*
X53350Y-40900D01*
X53350Y-40900D02*
X53359Y-40817D01*
X53359Y-40817D02*
X53385Y-40738D01*
X53385Y-40738D02*
X53427Y-40665D01*
X53427Y-40665D02*
X53483Y-40603D01*
X53483Y-40603D02*
X53550Y-40554D01*
X53550Y-40554D02*
X53627Y-40520D01*
X53627Y-40520D02*
X53709Y-40503D01*
X53709Y-40503D02*
X53791Y-40503D01*
X53791Y-40503D02*
X53873Y-40520D01*
X53873Y-40520D02*
X53950Y-40554D01*
X53950Y-40554D02*
X54017Y-40603D01*
X54017Y-40603D02*
X54073Y-40665D01*
X54073Y-40665D02*
X54115Y-40738D01*
X54115Y-40738D02*
X54141Y-40817D01*
X54141Y-40817D02*
X54150Y-40900D01*
X41800Y-41300D02*
X41800Y-39800D01*
X41800Y-39800D02*
X43300Y-39800D01*
X43300Y-39800D02*
X43300Y-41300D01*
X43300Y-41300D02*
X41800Y-41300D01*
X45300Y-40550D02*
X45283Y-40705D01*
X45283Y-40705D02*
X45235Y-40855D01*
X45235Y-40855D02*
X45156Y-40990D01*
X45156Y-40990D02*
X45051Y-41107D01*
X45051Y-41107D02*
X44925Y-41199D01*
X44925Y-41199D02*
X44781Y-41263D01*
X44781Y-41263D02*
X44628Y-41295D01*
X44628Y-41295D02*
X44472Y-41295D01*
X44472Y-41295D02*
X44319Y-41263D01*
X44319Y-41263D02*
X44175Y-41199D01*
X44175Y-41199D02*
X44049Y-41107D01*
X44049Y-41107D02*
X43944Y-40990D01*
X43944Y-40990D02*
X43865Y-40855D01*
X43865Y-40855D02*
X43817Y-40705D01*
X43817Y-40705D02*
X43800Y-40550D01*
X43800Y-40550D02*
X43817Y-40395D01*
X43817Y-40395D02*
X43865Y-40245D01*
X43865Y-40245D02*
X43944Y-40110D01*
X43944Y-40110D02*
X44049Y-39993D01*
X44049Y-39993D02*
X44175Y-39901D01*
X44175Y-39901D02*
X44319Y-39837D01*
X44319Y-39837D02*
X44472Y-39805D01*
X44472Y-39805D02*
X44628Y-39805D01*
X44628Y-39805D02*
X44781Y-39837D01*
X44781Y-39837D02*
X44925Y-39901D01*
X44925Y-39901D02*
X45051Y-39993D01*
X45051Y-39993D02*
X45156Y-40110D01*
X45156Y-40110D02*
X45235Y-40245D01*
X45235Y-40245D02*
X45283Y-40395D01*
X45283Y-40395D02*
X45300Y-40550D01*
X47300Y-40550D02*
X47283Y-40705D01*
X47283Y-40705D02*
X47235Y-40855D01*
X47235Y-40855D02*
X47156Y-40990D01*
X47156Y-40990D02*
X47051Y-41107D01*
X47051Y-41107D02*
X46925Y-41199D01*
X46925Y-41199D02*
X46781Y-41263D01*
X46781Y-41263D02*
X46628Y-41295D01*
X46628Y-41295D02*
X46472Y-41295D01*
X46472Y-41295D02*
X46319Y-41263D01*
X46319Y-41263D02*
X46175Y-41199D01*
X46175Y-41199D02*
X46049Y-41107D01*
X46049Y-41107D02*
X45944Y-40990D01*
X45944Y-40990D02*
X45865Y-40855D01*
X45865Y-40855D02*
X45817Y-40705D01*
X45817Y-40705D02*
X45800Y-40550D01*
X45800Y-40550D02*
X45817Y-40395D01*
X45817Y-40395D02*
X45865Y-40245D01*
X45865Y-40245D02*
X45944Y-40110D01*
X45944Y-40110D02*
X46049Y-39993D01*
X46049Y-39993D02*
X46175Y-39901D01*
X46175Y-39901D02*
X46319Y-39837D01*
X46319Y-39837D02*
X46472Y-39805D01*
X46472Y-39805D02*
X46628Y-39805D01*
X46628Y-39805D02*
X46781Y-39837D01*
X46781Y-39837D02*
X46925Y-39901D01*
X46925Y-39901D02*
X47051Y-39993D01*
X47051Y-39993D02*
X47156Y-40110D01*
X47156Y-40110D02*
X47235Y-40245D01*
X47235Y-40245D02*
X47283Y-40395D01*
X47283Y-40395D02*
X47300Y-40550D01*
X49300Y-40550D02*
X49283Y-40705D01*
X49283Y-40705D02*
X49235Y-40855D01*
X49235Y-40855D02*
X49156Y-40990D01*
X49156Y-40990D02*
X49051Y-41107D01*
X49051Y-41107D02*
X48925Y-41199D01*
X48925Y-41199D02*
X48781Y-41263D01*
X48781Y-41263D02*
X48628Y-41295D01*
X48628Y-41295D02*
X48472Y-41295D01*
X48472Y-41295D02*
X48319Y-41263D01*
X48319Y-41263D02*
X48175Y-41199D01*
X48175Y-41199D02*
X48049Y-41107D01*
X48049Y-41107D02*
X47944Y-40990D01*
X47944Y-40990D02*
X47865Y-40855D01*
X47865Y-40855D02*
X47817Y-40705D01*
X47817Y-40705D02*
X47800Y-40550D01*
X47800Y-40550D02*
X47817Y-40395D01*
X47817Y-40395D02*
X47865Y-40245D01*
X47865Y-40245D02*
X47944Y-40110D01*
X47944Y-40110D02*
X48049Y-39993D01*
X48049Y-39993D02*
X48175Y-39901D01*
X48175Y-39901D02*
X48319Y-39837D01*
X48319Y-39837D02*
X48472Y-39805D01*
X48472Y-39805D02*
X48628Y-39805D01*
X48628Y-39805D02*
X48781Y-39837D01*
X48781Y-39837D02*
X48925Y-39901D01*
X48925Y-39901D02*
X49051Y-39993D01*
X49051Y-39993D02*
X49156Y-40110D01*
X49156Y-40110D02*
X49235Y-40245D01*
X49235Y-40245D02*
X49283Y-40395D01*
X49283Y-40395D02*
X49300Y-40550D01*
X51150Y-37550D02*
X51141Y-37633D01*
X51141Y-37633D02*
X51115Y-37712D01*
X51115Y-37712D02*
X51073Y-37785D01*
X51073Y-37785D02*
X51017Y-37847D01*
X51017Y-37847D02*
X50950Y-37896D01*
X50950Y-37896D02*
X50873Y-37930D01*
X50873Y-37930D02*
X50791Y-37947D01*
X50791Y-37947D02*
X50709Y-37947D01*
X50709Y-37947D02*
X50627Y-37930D01*
X50627Y-37930D02*
X50550Y-37896D01*
X50550Y-37896D02*
X50483Y-37847D01*
X50483Y-37847D02*
X50427Y-37785D01*
X50427Y-37785D02*
X50385Y-37712D01*
X50385Y-37712D02*
X50359Y-37633D01*
X50359Y-37633D02*
X50350Y-37550D01*
X50350Y-37550D02*
X50359Y-37467D01*
X50359Y-37467D02*
X50385Y-37388D01*
X50385Y-37388D02*
X50427Y-37315D01*
X50427Y-37315D02*
X50483Y-37253D01*
X50483Y-37253D02*
X50550Y-37204D01*
X50550Y-37204D02*
X50627Y-37170D01*
X50627Y-37170D02*
X50709Y-37153D01*
X50709Y-37153D02*
X50791Y-37153D01*
X50791Y-37153D02*
X50873Y-37170D01*
X50873Y-37170D02*
X50950Y-37204D01*
X50950Y-37204D02*
X51017Y-37253D01*
X51017Y-37253D02*
X51073Y-37315D01*
X51073Y-37315D02*
X51115Y-37388D01*
X51115Y-37388D02*
X51141Y-37467D01*
X51141Y-37467D02*
X51150Y-37550D01*
X54150Y-37550D02*
X54141Y-37633D01*
X54141Y-37633D02*
X54115Y-37712D01*
X54115Y-37712D02*
X54073Y-37785D01*
X54073Y-37785D02*
X54017Y-37847D01*
X54017Y-37847D02*
X53950Y-37896D01*
X53950Y-37896D02*
X53873Y-37930D01*
X53873Y-37930D02*
X53791Y-37947D01*
X53791Y-37947D02*
X53709Y-37947D01*
X53709Y-37947D02*
X53627Y-37930D01*
X53627Y-37930D02*
X53550Y-37896D01*
X53550Y-37896D02*
X53483Y-37847D01*
X53483Y-37847D02*
X53427Y-37785D01*
X53427Y-37785D02*
X53385Y-37712D01*
X53385Y-37712D02*
X53359Y-37633D01*
X53359Y-37633D02*
X53350Y-37550D01*
X53350Y-37550D02*
X53359Y-37467D01*
X53359Y-37467D02*
X53385Y-37388D01*
X53385Y-37388D02*
X53427Y-37315D01*
X53427Y-37315D02*
X53483Y-37253D01*
X53483Y-37253D02*
X53550Y-37204D01*
X53550Y-37204D02*
X53627Y-37170D01*
X53627Y-37170D02*
X53709Y-37153D01*
X53709Y-37153D02*
X53791Y-37153D01*
X53791Y-37153D02*
X53873Y-37170D01*
X53873Y-37170D02*
X53950Y-37204D01*
X53950Y-37204D02*
X54017Y-37253D01*
X54017Y-37253D02*
X54073Y-37315D01*
X54073Y-37315D02*
X54115Y-37388D01*
X54115Y-37388D02*
X54141Y-37467D01*
X54141Y-37467D02*
X54150Y-37550D01*
X65250Y-38900D02*
X65233Y-39055D01*
X65233Y-39055D02*
X65185Y-39205D01*
X65185Y-39205D02*
X65106Y-39340D01*
X65106Y-39340D02*
X65001Y-39457D01*
X65001Y-39457D02*
X64875Y-39549D01*
X64875Y-39549D02*
X64731Y-39613D01*
X64731Y-39613D02*
X64578Y-39645D01*
X64578Y-39645D02*
X64422Y-39645D01*
X64422Y-39645D02*
X64269Y-39613D01*
X64269Y-39613D02*
X64125Y-39549D01*
X64125Y-39549D02*
X63999Y-39457D01*
X63999Y-39457D02*
X63894Y-39340D01*
X63894Y-39340D02*
X63815Y-39205D01*
X63815Y-39205D02*
X63767Y-39055D01*
X63767Y-39055D02*
X63750Y-38900D01*
X63750Y-38900D02*
X63767Y-38745D01*
X63767Y-38745D02*
X63815Y-38595D01*
X63815Y-38595D02*
X63894Y-38460D01*
X63894Y-38460D02*
X63999Y-38343D01*
X63999Y-38343D02*
X64125Y-38251D01*
X64125Y-38251D02*
X64269Y-38187D01*
X64269Y-38187D02*
X64422Y-38155D01*
X64422Y-38155D02*
X64578Y-38155D01*
X64578Y-38155D02*
X64731Y-38187D01*
X64731Y-38187D02*
X64875Y-38251D01*
X64875Y-38251D02*
X65001Y-38343D01*
X65001Y-38343D02*
X65106Y-38460D01*
X65106Y-38460D02*
X65185Y-38595D01*
X65185Y-38595D02*
X65233Y-38745D01*
X65233Y-38745D02*
X65250Y-38900D01*
X65250Y-28900D02*
X65233Y-29055D01*
X65233Y-29055D02*
X65185Y-29205D01*
X65185Y-29205D02*
X65106Y-29340D01*
X65106Y-29340D02*
X65001Y-29457D01*
X65001Y-29457D02*
X64875Y-29549D01*
X64875Y-29549D02*
X64731Y-29613D01*
X64731Y-29613D02*
X64578Y-29645D01*
X64578Y-29645D02*
X64422Y-29645D01*
X64422Y-29645D02*
X64269Y-29613D01*
X64269Y-29613D02*
X64125Y-29549D01*
X64125Y-29549D02*
X63999Y-29457D01*
X63999Y-29457D02*
X63894Y-29340D01*
X63894Y-29340D02*
X63815Y-29205D01*
X63815Y-29205D02*
X63767Y-29055D01*
X63767Y-29055D02*
X63750Y-28900D01*
X63750Y-28900D02*
X63767Y-28745D01*
X63767Y-28745D02*
X63815Y-28595D01*
X63815Y-28595D02*
X63894Y-28460D01*
X63894Y-28460D02*
X63999Y-28343D01*
X63999Y-28343D02*
X64125Y-28251D01*
X64125Y-28251D02*
X64269Y-28187D01*
X64269Y-28187D02*
X64422Y-28155D01*
X64422Y-28155D02*
X64578Y-28155D01*
X64578Y-28155D02*
X64731Y-28187D01*
X64731Y-28187D02*
X64875Y-28251D01*
X64875Y-28251D02*
X65001Y-28343D01*
X65001Y-28343D02*
X65106Y-28460D01*
X65106Y-28460D02*
X65185Y-28595D01*
X65185Y-28595D02*
X65233Y-28745D01*
X65233Y-28745D02*
X65250Y-28900D01*
X63600Y-31350D02*
X64400Y-31350D01*
X64400Y-31350D02*
X64400Y-32150D01*
X64400Y-32150D02*
X63600Y-32150D01*
X63600Y-32150D02*
X63600Y-31350D01*
X64300Y-32850D02*
X64293Y-32912D01*
X64293Y-32912D02*
X64274Y-32972D01*
X64274Y-32972D02*
X64242Y-33026D01*
X64242Y-33026D02*
X64200Y-33072D01*
X64200Y-33072D02*
X64150Y-33109D01*
X64150Y-33109D02*
X64092Y-33135D01*
X64092Y-33135D02*
X64031Y-33148D01*
X64031Y-33148D02*
X63969Y-33148D01*
X63969Y-33148D02*
X63908Y-33135D01*
X63908Y-33135D02*
X63850Y-33109D01*
X63850Y-33109D02*
X63800Y-33072D01*
X63800Y-33072D02*
X63758Y-33026D01*
X63758Y-33026D02*
X63726Y-32972D01*
X63726Y-32972D02*
X63707Y-32912D01*
X63707Y-32912D02*
X63700Y-32850D01*
X63700Y-32850D02*
X63707Y-32788D01*
X63707Y-32788D02*
X63726Y-32728D01*
X63726Y-32728D02*
X63758Y-32674D01*
X63758Y-32674D02*
X63800Y-32628D01*
X63800Y-32628D02*
X63850Y-32591D01*
X63850Y-32591D02*
X63908Y-32565D01*
X63908Y-32565D02*
X63969Y-32552D01*
X63969Y-32552D02*
X64031Y-32552D01*
X64031Y-32552D02*
X64092Y-32565D01*
X64092Y-32565D02*
X64150Y-32591D01*
X64150Y-32591D02*
X64200Y-32628D01*
X64200Y-32628D02*
X64242Y-32674D01*
X64242Y-32674D02*
X64274Y-32728D01*
X64274Y-32728D02*
X64293Y-32788D01*
X64293Y-32788D02*
X64300Y-32850D01*
X64300Y-33900D02*
X64293Y-33962D01*
X64293Y-33962D02*
X64274Y-34022D01*
X64274Y-34022D02*
X64242Y-34076D01*
X64242Y-34076D02*
X64200Y-34122D01*
X64200Y-34122D02*
X64150Y-34159D01*
X64150Y-34159D02*
X64092Y-34185D01*
X64092Y-34185D02*
X64031Y-34198D01*
X64031Y-34198D02*
X63969Y-34198D01*
X63969Y-34198D02*
X63908Y-34185D01*
X63908Y-34185D02*
X63850Y-34159D01*
X63850Y-34159D02*
X63800Y-34122D01*
X63800Y-34122D02*
X63758Y-34076D01*
X63758Y-34076D02*
X63726Y-34022D01*
X63726Y-34022D02*
X63707Y-33962D01*
X63707Y-33962D02*
X63700Y-33900D01*
X63700Y-33900D02*
X63707Y-33838D01*
X63707Y-33838D02*
X63726Y-33778D01*
X63726Y-33778D02*
X63758Y-33724D01*
X63758Y-33724D02*
X63800Y-33678D01*
X63800Y-33678D02*
X63850Y-33641D01*
X63850Y-33641D02*
X63908Y-33615D01*
X63908Y-33615D02*
X63969Y-33602D01*
X63969Y-33602D02*
X64031Y-33602D01*
X64031Y-33602D02*
X64092Y-33615D01*
X64092Y-33615D02*
X64150Y-33641D01*
X64150Y-33641D02*
X64200Y-33678D01*
X64200Y-33678D02*
X64242Y-33724D01*
X64242Y-33724D02*
X64274Y-33778D01*
X64274Y-33778D02*
X64293Y-33838D01*
X64293Y-33838D02*
X64300Y-33900D01*
X64300Y-35000D02*
X64293Y-35062D01*
X64293Y-35062D02*
X64274Y-35122D01*
X64274Y-35122D02*
X64242Y-35176D01*
X64242Y-35176D02*
X64200Y-35222D01*
X64200Y-35222D02*
X64150Y-35259D01*
X64150Y-35259D02*
X64092Y-35285D01*
X64092Y-35285D02*
X64031Y-35298D01*
X64031Y-35298D02*
X63969Y-35298D01*
X63969Y-35298D02*
X63908Y-35285D01*
X63908Y-35285D02*
X63850Y-35259D01*
X63850Y-35259D02*
X63800Y-35222D01*
X63800Y-35222D02*
X63758Y-35176D01*
X63758Y-35176D02*
X63726Y-35122D01*
X63726Y-35122D02*
X63707Y-35062D01*
X63707Y-35062D02*
X63700Y-35000D01*
X63700Y-35000D02*
X63707Y-34938D01*
X63707Y-34938D02*
X63726Y-34878D01*
X63726Y-34878D02*
X63758Y-34824D01*
X63758Y-34824D02*
X63800Y-34778D01*
X63800Y-34778D02*
X63850Y-34741D01*
X63850Y-34741D02*
X63908Y-34715D01*
X63908Y-34715D02*
X63969Y-34702D01*
X63969Y-34702D02*
X64031Y-34702D01*
X64031Y-34702D02*
X64092Y-34715D01*
X64092Y-34715D02*
X64150Y-34741D01*
X64150Y-34741D02*
X64200Y-34778D01*
X64200Y-34778D02*
X64242Y-34824D01*
X64242Y-34824D02*
X64274Y-34878D01*
X64274Y-34878D02*
X64293Y-34938D01*
X64293Y-34938D02*
X64300Y-35000D01*
X64400Y-36100D02*
X64391Y-36183D01*
X64391Y-36183D02*
X64365Y-36262D01*
X64365Y-36262D02*
X64323Y-36335D01*
X64323Y-36335D02*
X64267Y-36397D01*
X64267Y-36397D02*
X64200Y-36446D01*
X64200Y-36446D02*
X64123Y-36480D01*
X64123Y-36480D02*
X64041Y-36497D01*
X64041Y-36497D02*
X63959Y-36497D01*
X63959Y-36497D02*
X63877Y-36480D01*
X63877Y-36480D02*
X63800Y-36446D01*
X63800Y-36446D02*
X63733Y-36397D01*
X63733Y-36397D02*
X63677Y-36335D01*
X63677Y-36335D02*
X63635Y-36262D01*
X63635Y-36262D02*
X63609Y-36183D01*
X63609Y-36183D02*
X63600Y-36100D01*
X63600Y-36100D02*
X63609Y-36017D01*
X63609Y-36017D02*
X63635Y-35938D01*
X63635Y-35938D02*
X63677Y-35865D01*
X63677Y-35865D02*
X63733Y-35803D01*
X63733Y-35803D02*
X63800Y-35754D01*
X63800Y-35754D02*
X63877Y-35720D01*
X63877Y-35720D02*
X63959Y-35703D01*
X63959Y-35703D02*
X64041Y-35703D01*
X64041Y-35703D02*
X64123Y-35720D01*
X64123Y-35720D02*
X64200Y-35754D01*
X64200Y-35754D02*
X64267Y-35803D01*
X64267Y-35803D02*
X64323Y-35865D01*
X64323Y-35865D02*
X64365Y-35938D01*
X64365Y-35938D02*
X64391Y-36017D01*
X64391Y-36017D02*
X64400Y-36100D01*
X65400Y-32300D02*
X65391Y-32383D01*
X65391Y-32383D02*
X65365Y-32462D01*
X65365Y-32462D02*
X65323Y-32535D01*
X65323Y-32535D02*
X65267Y-32597D01*
X65267Y-32597D02*
X65200Y-32646D01*
X65200Y-32646D02*
X65123Y-32680D01*
X65123Y-32680D02*
X65041Y-32697D01*
X65041Y-32697D02*
X64959Y-32697D01*
X64959Y-32697D02*
X64877Y-32680D01*
X64877Y-32680D02*
X64800Y-32646D01*
X64800Y-32646D02*
X64733Y-32597D01*
X64733Y-32597D02*
X64677Y-32535D01*
X64677Y-32535D02*
X64635Y-32462D01*
X64635Y-32462D02*
X64609Y-32383D01*
X64609Y-32383D02*
X64600Y-32300D01*
X64600Y-32300D02*
X64609Y-32217D01*
X64609Y-32217D02*
X64635Y-32138D01*
X64635Y-32138D02*
X64677Y-32065D01*
X64677Y-32065D02*
X64733Y-32003D01*
X64733Y-32003D02*
X64800Y-31954D01*
X64800Y-31954D02*
X64877Y-31920D01*
X64877Y-31920D02*
X64959Y-31903D01*
X64959Y-31903D02*
X65041Y-31903D01*
X65041Y-31903D02*
X65123Y-31920D01*
X65123Y-31920D02*
X65200Y-31954D01*
X65200Y-31954D02*
X65267Y-32003D01*
X65267Y-32003D02*
X65323Y-32065D01*
X65323Y-32065D02*
X65365Y-32138D01*
X65365Y-32138D02*
X65391Y-32217D01*
X65391Y-32217D02*
X65400Y-32300D01*
X65300Y-33400D02*
X65293Y-33462D01*
X65293Y-33462D02*
X65274Y-33522D01*
X65274Y-33522D02*
X65242Y-33576D01*
X65242Y-33576D02*
X65200Y-33622D01*
X65200Y-33622D02*
X65150Y-33659D01*
X65150Y-33659D02*
X65092Y-33685D01*
X65092Y-33685D02*
X65031Y-33698D01*
X65031Y-33698D02*
X64969Y-33698D01*
X64969Y-33698D02*
X64908Y-33685D01*
X64908Y-33685D02*
X64850Y-33659D01*
X64850Y-33659D02*
X64800Y-33622D01*
X64800Y-33622D02*
X64758Y-33576D01*
X64758Y-33576D02*
X64726Y-33522D01*
X64726Y-33522D02*
X64707Y-33462D01*
X64707Y-33462D02*
X64700Y-33400D01*
X64700Y-33400D02*
X64707Y-33338D01*
X64707Y-33338D02*
X64726Y-33278D01*
X64726Y-33278D02*
X64758Y-33224D01*
X64758Y-33224D02*
X64800Y-33178D01*
X64800Y-33178D02*
X64850Y-33141D01*
X64850Y-33141D02*
X64908Y-33115D01*
X64908Y-33115D02*
X64969Y-33102D01*
X64969Y-33102D02*
X65031Y-33102D01*
X65031Y-33102D02*
X65092Y-33115D01*
X65092Y-33115D02*
X65150Y-33141D01*
X65150Y-33141D02*
X65200Y-33178D01*
X65200Y-33178D02*
X65242Y-33224D01*
X65242Y-33224D02*
X65274Y-33278D01*
X65274Y-33278D02*
X65293Y-33338D01*
X65293Y-33338D02*
X65300Y-33400D01*
X65300Y-34450D02*
X65293Y-34512D01*
X65293Y-34512D02*
X65274Y-34572D01*
X65274Y-34572D02*
X65242Y-34626D01*
X65242Y-34626D02*
X65200Y-34672D01*
X65200Y-34672D02*
X65150Y-34709D01*
X65150Y-34709D02*
X65092Y-34735D01*
X65092Y-34735D02*
X65031Y-34748D01*
X65031Y-34748D02*
X64969Y-34748D01*
X64969Y-34748D02*
X64908Y-34735D01*
X64908Y-34735D02*
X64850Y-34709D01*
X64850Y-34709D02*
X64800Y-34672D01*
X64800Y-34672D02*
X64758Y-34626D01*
X64758Y-34626D02*
X64726Y-34572D01*
X64726Y-34572D02*
X64707Y-34512D01*
X64707Y-34512D02*
X64700Y-34450D01*
X64700Y-34450D02*
X64707Y-34388D01*
X64707Y-34388D02*
X64726Y-34328D01*
X64726Y-34328D02*
X64758Y-34274D01*
X64758Y-34274D02*
X64800Y-34228D01*
X64800Y-34228D02*
X64850Y-34191D01*
X64850Y-34191D02*
X64908Y-34165D01*
X64908Y-34165D02*
X64969Y-34152D01*
X64969Y-34152D02*
X65031Y-34152D01*
X65031Y-34152D02*
X65092Y-34165D01*
X65092Y-34165D02*
X65150Y-34191D01*
X65150Y-34191D02*
X65200Y-34228D01*
X65200Y-34228D02*
X65242Y-34274D01*
X65242Y-34274D02*
X65274Y-34328D01*
X65274Y-34328D02*
X65293Y-34388D01*
X65293Y-34388D02*
X65300Y-34450D01*
X65300Y-35550D02*
X65293Y-35612D01*
X65293Y-35612D02*
X65274Y-35672D01*
X65274Y-35672D02*
X65242Y-35726D01*
X65242Y-35726D02*
X65200Y-35772D01*
X65200Y-35772D02*
X65150Y-35809D01*
X65150Y-35809D02*
X65092Y-35835D01*
X65092Y-35835D02*
X65031Y-35848D01*
X65031Y-35848D02*
X64969Y-35848D01*
X64969Y-35848D02*
X64908Y-35835D01*
X64908Y-35835D02*
X64850Y-35809D01*
X64850Y-35809D02*
X64800Y-35772D01*
X64800Y-35772D02*
X64758Y-35726D01*
X64758Y-35726D02*
X64726Y-35672D01*
X64726Y-35672D02*
X64707Y-35612D01*
X64707Y-35612D02*
X64700Y-35550D01*
X64700Y-35550D02*
X64707Y-35488D01*
X64707Y-35488D02*
X64726Y-35428D01*
X64726Y-35428D02*
X64758Y-35374D01*
X64758Y-35374D02*
X64800Y-35328D01*
X64800Y-35328D02*
X64850Y-35291D01*
X64850Y-35291D02*
X64908Y-35265D01*
X64908Y-35265D02*
X64969Y-35252D01*
X64969Y-35252D02*
X65031Y-35252D01*
X65031Y-35252D02*
X65092Y-35265D01*
X65092Y-35265D02*
X65150Y-35291D01*
X65150Y-35291D02*
X65200Y-35328D01*
X65200Y-35328D02*
X65242Y-35374D01*
X65242Y-35374D02*
X65274Y-35428D01*
X65274Y-35428D02*
X65293Y-35488D01*
X65293Y-35488D02*
X65300Y-35550D01*
X58200Y-30400D02*
X59000Y-30400D01*
X59000Y-30400D02*
X59000Y-31200D01*
X59000Y-31200D02*
X58200Y-31200D01*
X58200Y-31200D02*
X58200Y-30400D01*
X59000Y-31800D02*
X58991Y-31883D01*
X58991Y-31883D02*
X58965Y-31962D01*
X58965Y-31962D02*
X58923Y-32035D01*
X58923Y-32035D02*
X58867Y-32097D01*
X58867Y-32097D02*
X58800Y-32146D01*
X58800Y-32146D02*
X58723Y-32180D01*
X58723Y-32180D02*
X58641Y-32197D01*
X58641Y-32197D02*
X58559Y-32197D01*
X58559Y-32197D02*
X58477Y-32180D01*
X58477Y-32180D02*
X58400Y-32146D01*
X58400Y-32146D02*
X58333Y-32097D01*
X58333Y-32097D02*
X58277Y-32035D01*
X58277Y-32035D02*
X58235Y-31962D01*
X58235Y-31962D02*
X58209Y-31883D01*
X58209Y-31883D02*
X58200Y-31800D01*
X58200Y-31800D02*
X58209Y-31717D01*
X58209Y-31717D02*
X58235Y-31638D01*
X58235Y-31638D02*
X58277Y-31565D01*
X58277Y-31565D02*
X58333Y-31503D01*
X58333Y-31503D02*
X58400Y-31454D01*
X58400Y-31454D02*
X58477Y-31420D01*
X58477Y-31420D02*
X58559Y-31403D01*
X58559Y-31403D02*
X58641Y-31403D01*
X58641Y-31403D02*
X58723Y-31420D01*
X58723Y-31420D02*
X58800Y-31454D01*
X58800Y-31454D02*
X58867Y-31503D01*
X58867Y-31503D02*
X58923Y-31565D01*
X58923Y-31565D02*
X58965Y-31638D01*
X58965Y-31638D02*
X58991Y-31717D01*
X58991Y-31717D02*
X59000Y-31800D01*
X59000Y-32800D02*
X58991Y-32883D01*
X58991Y-32883D02*
X58965Y-32962D01*
X58965Y-32962D02*
X58923Y-33035D01*
X58923Y-33035D02*
X58867Y-33097D01*
X58867Y-33097D02*
X58800Y-33146D01*
X58800Y-33146D02*
X58723Y-33180D01*
X58723Y-33180D02*
X58641Y-33197D01*
X58641Y-33197D02*
X58559Y-33197D01*
X58559Y-33197D02*
X58477Y-33180D01*
X58477Y-33180D02*
X58400Y-33146D01*
X58400Y-33146D02*
X58333Y-33097D01*
X58333Y-33097D02*
X58277Y-33035D01*
X58277Y-33035D02*
X58235Y-32962D01*
X58235Y-32962D02*
X58209Y-32883D01*
X58209Y-32883D02*
X58200Y-32800D01*
X58200Y-32800D02*
X58209Y-32717D01*
X58209Y-32717D02*
X58235Y-32638D01*
X58235Y-32638D02*
X58277Y-32565D01*
X58277Y-32565D02*
X58333Y-32503D01*
X58333Y-32503D02*
X58400Y-32454D01*
X58400Y-32454D02*
X58477Y-32420D01*
X58477Y-32420D02*
X58559Y-32403D01*
X58559Y-32403D02*
X58641Y-32403D01*
X58641Y-32403D02*
X58723Y-32420D01*
X58723Y-32420D02*
X58800Y-32454D01*
X58800Y-32454D02*
X58867Y-32503D01*
X58867Y-32503D02*
X58923Y-32565D01*
X58923Y-32565D02*
X58965Y-32638D01*
X58965Y-32638D02*
X58991Y-32717D01*
X58991Y-32717D02*
X59000Y-32800D01*
X59000Y-33800D02*
X58991Y-33883D01*
X58991Y-33883D02*
X58965Y-33962D01*
X58965Y-33962D02*
X58923Y-34035D01*
X58923Y-34035D02*
X58867Y-34097D01*
X58867Y-34097D02*
X58800Y-34146D01*
X58800Y-34146D02*
X58723Y-34180D01*
X58723Y-34180D02*
X58641Y-34197D01*
X58641Y-34197D02*
X58559Y-34197D01*
X58559Y-34197D02*
X58477Y-34180D01*
X58477Y-34180D02*
X58400Y-34146D01*
X58400Y-34146D02*
X58333Y-34097D01*
X58333Y-34097D02*
X58277Y-34035D01*
X58277Y-34035D02*
X58235Y-33962D01*
X58235Y-33962D02*
X58209Y-33883D01*
X58209Y-33883D02*
X58200Y-33800D01*
X58200Y-33800D02*
X58209Y-33717D01*
X58209Y-33717D02*
X58235Y-33638D01*
X58235Y-33638D02*
X58277Y-33565D01*
X58277Y-33565D02*
X58333Y-33503D01*
X58333Y-33503D02*
X58400Y-33454D01*
X58400Y-33454D02*
X58477Y-33420D01*
X58477Y-33420D02*
X58559Y-33403D01*
X58559Y-33403D02*
X58641Y-33403D01*
X58641Y-33403D02*
X58723Y-33420D01*
X58723Y-33420D02*
X58800Y-33454D01*
X58800Y-33454D02*
X58867Y-33503D01*
X58867Y-33503D02*
X58923Y-33565D01*
X58923Y-33565D02*
X58965Y-33638D01*
X58965Y-33638D02*
X58991Y-33717D01*
X58991Y-33717D02*
X59000Y-33800D01*
X59000Y-34800D02*
X58991Y-34883D01*
X58991Y-34883D02*
X58965Y-34962D01*
X58965Y-34962D02*
X58923Y-35035D01*
X58923Y-35035D02*
X58867Y-35097D01*
X58867Y-35097D02*
X58800Y-35146D01*
X58800Y-35146D02*
X58723Y-35180D01*
X58723Y-35180D02*
X58641Y-35197D01*
X58641Y-35197D02*
X58559Y-35197D01*
X58559Y-35197D02*
X58477Y-35180D01*
X58477Y-35180D02*
X58400Y-35146D01*
X58400Y-35146D02*
X58333Y-35097D01*
X58333Y-35097D02*
X58277Y-35035D01*
X58277Y-35035D02*
X58235Y-34962D01*
X58235Y-34962D02*
X58209Y-34883D01*
X58209Y-34883D02*
X58200Y-34800D01*
X58200Y-34800D02*
X58209Y-34717D01*
X58209Y-34717D02*
X58235Y-34638D01*
X58235Y-34638D02*
X58277Y-34565D01*
X58277Y-34565D02*
X58333Y-34503D01*
X58333Y-34503D02*
X58400Y-34454D01*
X58400Y-34454D02*
X58477Y-34420D01*
X58477Y-34420D02*
X58559Y-34403D01*
X58559Y-34403D02*
X58641Y-34403D01*
X58641Y-34403D02*
X58723Y-34420D01*
X58723Y-34420D02*
X58800Y-34454D01*
X58800Y-34454D02*
X58867Y-34503D01*
X58867Y-34503D02*
X58923Y-34565D01*
X58923Y-34565D02*
X58965Y-34638D01*
X58965Y-34638D02*
X58991Y-34717D01*
X58991Y-34717D02*
X59000Y-34800D01*
X59000Y-35800D02*
X58991Y-35883D01*
X58991Y-35883D02*
X58965Y-35962D01*
X58965Y-35962D02*
X58923Y-36035D01*
X58923Y-36035D02*
X58867Y-36097D01*
X58867Y-36097D02*
X58800Y-36146D01*
X58800Y-36146D02*
X58723Y-36180D01*
X58723Y-36180D02*
X58641Y-36197D01*
X58641Y-36197D02*
X58559Y-36197D01*
X58559Y-36197D02*
X58477Y-36180D01*
X58477Y-36180D02*
X58400Y-36146D01*
X58400Y-36146D02*
X58333Y-36097D01*
X58333Y-36097D02*
X58277Y-36035D01*
X58277Y-36035D02*
X58235Y-35962D01*
X58235Y-35962D02*
X58209Y-35883D01*
X58209Y-35883D02*
X58200Y-35800D01*
X58200Y-35800D02*
X58209Y-35717D01*
X58209Y-35717D02*
X58235Y-35638D01*
X58235Y-35638D02*
X58277Y-35565D01*
X58277Y-35565D02*
X58333Y-35503D01*
X58333Y-35503D02*
X58400Y-35454D01*
X58400Y-35454D02*
X58477Y-35420D01*
X58477Y-35420D02*
X58559Y-35403D01*
X58559Y-35403D02*
X58641Y-35403D01*
X58641Y-35403D02*
X58723Y-35420D01*
X58723Y-35420D02*
X58800Y-35454D01*
X58800Y-35454D02*
X58867Y-35503D01*
X58867Y-35503D02*
X58923Y-35565D01*
X58923Y-35565D02*
X58965Y-35638D01*
X58965Y-35638D02*
X58991Y-35717D01*
X58991Y-35717D02*
X59000Y-35800D01*
X59000Y-36800D02*
X58991Y-36883D01*
X58991Y-36883D02*
X58965Y-36962D01*
X58965Y-36962D02*
X58923Y-37035D01*
X58923Y-37035D02*
X58867Y-37097D01*
X58867Y-37097D02*
X58800Y-37146D01*
X58800Y-37146D02*
X58723Y-37180D01*
X58723Y-37180D02*
X58641Y-37197D01*
X58641Y-37197D02*
X58559Y-37197D01*
X58559Y-37197D02*
X58477Y-37180D01*
X58477Y-37180D02*
X58400Y-37146D01*
X58400Y-37146D02*
X58333Y-37097D01*
X58333Y-37097D02*
X58277Y-37035D01*
X58277Y-37035D02*
X58235Y-36962D01*
X58235Y-36962D02*
X58209Y-36883D01*
X58209Y-36883D02*
X58200Y-36800D01*
X58200Y-36800D02*
X58209Y-36717D01*
X58209Y-36717D02*
X58235Y-36638D01*
X58235Y-36638D02*
X58277Y-36565D01*
X58277Y-36565D02*
X58333Y-36503D01*
X58333Y-36503D02*
X58400Y-36454D01*
X58400Y-36454D02*
X58477Y-36420D01*
X58477Y-36420D02*
X58559Y-36403D01*
X58559Y-36403D02*
X58641Y-36403D01*
X58641Y-36403D02*
X58723Y-36420D01*
X58723Y-36420D02*
X58800Y-36454D01*
X58800Y-36454D02*
X58867Y-36503D01*
X58867Y-36503D02*
X58923Y-36565D01*
X58923Y-36565D02*
X58965Y-36638D01*
X58965Y-36638D02*
X58991Y-36717D01*
X58991Y-36717D02*
X59000Y-36800D01*
X59000Y-37800D02*
X58991Y-37883D01*
X58991Y-37883D02*
X58965Y-37962D01*
X58965Y-37962D02*
X58923Y-38035D01*
X58923Y-38035D02*
X58867Y-38097D01*
X58867Y-38097D02*
X58800Y-38146D01*
X58800Y-38146D02*
X58723Y-38180D01*
X58723Y-38180D02*
X58641Y-38197D01*
X58641Y-38197D02*
X58559Y-38197D01*
X58559Y-38197D02*
X58477Y-38180D01*
X58477Y-38180D02*
X58400Y-38146D01*
X58400Y-38146D02*
X58333Y-38097D01*
X58333Y-38097D02*
X58277Y-38035D01*
X58277Y-38035D02*
X58235Y-37962D01*
X58235Y-37962D02*
X58209Y-37883D01*
X58209Y-37883D02*
X58200Y-37800D01*
X58200Y-37800D02*
X58209Y-37717D01*
X58209Y-37717D02*
X58235Y-37638D01*
X58235Y-37638D02*
X58277Y-37565D01*
X58277Y-37565D02*
X58333Y-37503D01*
X58333Y-37503D02*
X58400Y-37454D01*
X58400Y-37454D02*
X58477Y-37420D01*
X58477Y-37420D02*
X58559Y-37403D01*
X58559Y-37403D02*
X58641Y-37403D01*
X58641Y-37403D02*
X58723Y-37420D01*
X58723Y-37420D02*
X58800Y-37454D01*
X58800Y-37454D02*
X58867Y-37503D01*
X58867Y-37503D02*
X58923Y-37565D01*
X58923Y-37565D02*
X58965Y-37638D01*
X58965Y-37638D02*
X58991Y-37717D01*
X58991Y-37717D02*
X59000Y-37800D01*
X62000Y-37800D02*
X61991Y-37883D01*
X61991Y-37883D02*
X61965Y-37962D01*
X61965Y-37962D02*
X61923Y-38035D01*
X61923Y-38035D02*
X61867Y-38097D01*
X61867Y-38097D02*
X61800Y-38146D01*
X61800Y-38146D02*
X61723Y-38180D01*
X61723Y-38180D02*
X61641Y-38197D01*
X61641Y-38197D02*
X61559Y-38197D01*
X61559Y-38197D02*
X61477Y-38180D01*
X61477Y-38180D02*
X61400Y-38146D01*
X61400Y-38146D02*
X61333Y-38097D01*
X61333Y-38097D02*
X61277Y-38035D01*
X61277Y-38035D02*
X61235Y-37962D01*
X61235Y-37962D02*
X61209Y-37883D01*
X61209Y-37883D02*
X61200Y-37800D01*
X61200Y-37800D02*
X61209Y-37717D01*
X61209Y-37717D02*
X61235Y-37638D01*
X61235Y-37638D02*
X61277Y-37565D01*
X61277Y-37565D02*
X61333Y-37503D01*
X61333Y-37503D02*
X61400Y-37454D01*
X61400Y-37454D02*
X61477Y-37420D01*
X61477Y-37420D02*
X61559Y-37403D01*
X61559Y-37403D02*
X61641Y-37403D01*
X61641Y-37403D02*
X61723Y-37420D01*
X61723Y-37420D02*
X61800Y-37454D01*
X61800Y-37454D02*
X61867Y-37503D01*
X61867Y-37503D02*
X61923Y-37565D01*
X61923Y-37565D02*
X61965Y-37638D01*
X61965Y-37638D02*
X61991Y-37717D01*
X61991Y-37717D02*
X62000Y-37800D01*
X62000Y-36800D02*
X61991Y-36883D01*
X61991Y-36883D02*
X61965Y-36962D01*
X61965Y-36962D02*
X61923Y-37035D01*
X61923Y-37035D02*
X61867Y-37097D01*
X61867Y-37097D02*
X61800Y-37146D01*
X61800Y-37146D02*
X61723Y-37180D01*
X61723Y-37180D02*
X61641Y-37197D01*
X61641Y-37197D02*
X61559Y-37197D01*
X61559Y-37197D02*
X61477Y-37180D01*
X61477Y-37180D02*
X61400Y-37146D01*
X61400Y-37146D02*
X61333Y-37097D01*
X61333Y-37097D02*
X61277Y-37035D01*
X61277Y-37035D02*
X61235Y-36962D01*
X61235Y-36962D02*
X61209Y-36883D01*
X61209Y-36883D02*
X61200Y-36800D01*
X61200Y-36800D02*
X61209Y-36717D01*
X61209Y-36717D02*
X61235Y-36638D01*
X61235Y-36638D02*
X61277Y-36565D01*
X61277Y-36565D02*
X61333Y-36503D01*
X61333Y-36503D02*
X61400Y-36454D01*
X61400Y-36454D02*
X61477Y-36420D01*
X61477Y-36420D02*
X61559Y-36403D01*
X61559Y-36403D02*
X61641Y-36403D01*
X61641Y-36403D02*
X61723Y-36420D01*
X61723Y-36420D02*
X61800Y-36454D01*
X61800Y-36454D02*
X61867Y-36503D01*
X61867Y-36503D02*
X61923Y-36565D01*
X61923Y-36565D02*
X61965Y-36638D01*
X61965Y-36638D02*
X61991Y-36717D01*
X61991Y-36717D02*
X62000Y-36800D01*
X62000Y-35800D02*
X61991Y-35883D01*
X61991Y-35883D02*
X61965Y-35962D01*
X61965Y-35962D02*
X61923Y-36035D01*
X61923Y-36035D02*
X61867Y-36097D01*
X61867Y-36097D02*
X61800Y-36146D01*
X61800Y-36146D02*
X61723Y-36180D01*
X61723Y-36180D02*
X61641Y-36197D01*
X61641Y-36197D02*
X61559Y-36197D01*
X61559Y-36197D02*
X61477Y-36180D01*
X61477Y-36180D02*
X61400Y-36146D01*
X61400Y-36146D02*
X61333Y-36097D01*
X61333Y-36097D02*
X61277Y-36035D01*
X61277Y-36035D02*
X61235Y-35962D01*
X61235Y-35962D02*
X61209Y-35883D01*
X61209Y-35883D02*
X61200Y-35800D01*
X61200Y-35800D02*
X61209Y-35717D01*
X61209Y-35717D02*
X61235Y-35638D01*
X61235Y-35638D02*
X61277Y-35565D01*
X61277Y-35565D02*
X61333Y-35503D01*
X61333Y-35503D02*
X61400Y-35454D01*
X61400Y-35454D02*
X61477Y-35420D01*
X61477Y-35420D02*
X61559Y-35403D01*
X61559Y-35403D02*
X61641Y-35403D01*
X61641Y-35403D02*
X61723Y-35420D01*
X61723Y-35420D02*
X61800Y-35454D01*
X61800Y-35454D02*
X61867Y-35503D01*
X61867Y-35503D02*
X61923Y-35565D01*
X61923Y-35565D02*
X61965Y-35638D01*
X61965Y-35638D02*
X61991Y-35717D01*
X61991Y-35717D02*
X62000Y-35800D01*
X62000Y-34800D02*
X61991Y-34883D01*
X61991Y-34883D02*
X61965Y-34962D01*
X61965Y-34962D02*
X61923Y-35035D01*
X61923Y-35035D02*
X61867Y-35097D01*
X61867Y-35097D02*
X61800Y-35146D01*
X61800Y-35146D02*
X61723Y-35180D01*
X61723Y-35180D02*
X61641Y-35197D01*
X61641Y-35197D02*
X61559Y-35197D01*
X61559Y-35197D02*
X61477Y-35180D01*
X61477Y-35180D02*
X61400Y-35146D01*
X61400Y-35146D02*
X61333Y-35097D01*
X61333Y-35097D02*
X61277Y-35035D01*
X61277Y-35035D02*
X61235Y-34962D01*
X61235Y-34962D02*
X61209Y-34883D01*
X61209Y-34883D02*
X61200Y-34800D01*
X61200Y-34800D02*
X61209Y-34717D01*
X61209Y-34717D02*
X61235Y-34638D01*
X61235Y-34638D02*
X61277Y-34565D01*
X61277Y-34565D02*
X61333Y-34503D01*
X61333Y-34503D02*
X61400Y-34454D01*
X61400Y-34454D02*
X61477Y-34420D01*
X61477Y-34420D02*
X61559Y-34403D01*
X61559Y-34403D02*
X61641Y-34403D01*
X61641Y-34403D02*
X61723Y-34420D01*
X61723Y-34420D02*
X61800Y-34454D01*
X61800Y-34454D02*
X61867Y-34503D01*
X61867Y-34503D02*
X61923Y-34565D01*
X61923Y-34565D02*
X61965Y-34638D01*
X61965Y-34638D02*
X61991Y-34717D01*
X61991Y-34717D02*
X62000Y-34800D01*
X62000Y-33800D02*
X61991Y-33883D01*
X61991Y-33883D02*
X61965Y-33962D01*
X61965Y-33962D02*
X61923Y-34035D01*
X61923Y-34035D02*
X61867Y-34097D01*
X61867Y-34097D02*
X61800Y-34146D01*
X61800Y-34146D02*
X61723Y-34180D01*
X61723Y-34180D02*
X61641Y-34197D01*
X61641Y-34197D02*
X61559Y-34197D01*
X61559Y-34197D02*
X61477Y-34180D01*
X61477Y-34180D02*
X61400Y-34146D01*
X61400Y-34146D02*
X61333Y-34097D01*
X61333Y-34097D02*
X61277Y-34035D01*
X61277Y-34035D02*
X61235Y-33962D01*
X61235Y-33962D02*
X61209Y-33883D01*
X61209Y-33883D02*
X61200Y-33800D01*
X61200Y-33800D02*
X61209Y-33717D01*
X61209Y-33717D02*
X61235Y-33638D01*
X61235Y-33638D02*
X61277Y-33565D01*
X61277Y-33565D02*
X61333Y-33503D01*
X61333Y-33503D02*
X61400Y-33454D01*
X61400Y-33454D02*
X61477Y-33420D01*
X61477Y-33420D02*
X61559Y-33403D01*
X61559Y-33403D02*
X61641Y-33403D01*
X61641Y-33403D02*
X61723Y-33420D01*
X61723Y-33420D02*
X61800Y-33454D01*
X61800Y-33454D02*
X61867Y-33503D01*
X61867Y-33503D02*
X61923Y-33565D01*
X61923Y-33565D02*
X61965Y-33638D01*
X61965Y-33638D02*
X61991Y-33717D01*
X61991Y-33717D02*
X62000Y-33800D01*
X62000Y-32800D02*
X61991Y-32883D01*
X61991Y-32883D02*
X61965Y-32962D01*
X61965Y-32962D02*
X61923Y-33035D01*
X61923Y-33035D02*
X61867Y-33097D01*
X61867Y-33097D02*
X61800Y-33146D01*
X61800Y-33146D02*
X61723Y-33180D01*
X61723Y-33180D02*
X61641Y-33197D01*
X61641Y-33197D02*
X61559Y-33197D01*
X61559Y-33197D02*
X61477Y-33180D01*
X61477Y-33180D02*
X61400Y-33146D01*
X61400Y-33146D02*
X61333Y-33097D01*
X61333Y-33097D02*
X61277Y-33035D01*
X61277Y-33035D02*
X61235Y-32962D01*
X61235Y-32962D02*
X61209Y-32883D01*
X61209Y-32883D02*
X61200Y-32800D01*
X61200Y-32800D02*
X61209Y-32717D01*
X61209Y-32717D02*
X61235Y-32638D01*
X61235Y-32638D02*
X61277Y-32565D01*
X61277Y-32565D02*
X61333Y-32503D01*
X61333Y-32503D02*
X61400Y-32454D01*
X61400Y-32454D02*
X61477Y-32420D01*
X61477Y-32420D02*
X61559Y-32403D01*
X61559Y-32403D02*
X61641Y-32403D01*
X61641Y-32403D02*
X61723Y-32420D01*
X61723Y-32420D02*
X61800Y-32454D01*
X61800Y-32454D02*
X61867Y-32503D01*
X61867Y-32503D02*
X61923Y-32565D01*
X61923Y-32565D02*
X61965Y-32638D01*
X61965Y-32638D02*
X61991Y-32717D01*
X61991Y-32717D02*
X62000Y-32800D01*
X62000Y-31800D02*
X61991Y-31883D01*
X61991Y-31883D02*
X61965Y-31962D01*
X61965Y-31962D02*
X61923Y-32035D01*
X61923Y-32035D02*
X61867Y-32097D01*
X61867Y-32097D02*
X61800Y-32146D01*
X61800Y-32146D02*
X61723Y-32180D01*
X61723Y-32180D02*
X61641Y-32197D01*
X61641Y-32197D02*
X61559Y-32197D01*
X61559Y-32197D02*
X61477Y-32180D01*
X61477Y-32180D02*
X61400Y-32146D01*
X61400Y-32146D02*
X61333Y-32097D01*
X61333Y-32097D02*
X61277Y-32035D01*
X61277Y-32035D02*
X61235Y-31962D01*
X61235Y-31962D02*
X61209Y-31883D01*
X61209Y-31883D02*
X61200Y-31800D01*
X61200Y-31800D02*
X61209Y-31717D01*
X61209Y-31717D02*
X61235Y-31638D01*
X61235Y-31638D02*
X61277Y-31565D01*
X61277Y-31565D02*
X61333Y-31503D01*
X61333Y-31503D02*
X61400Y-31454D01*
X61400Y-31454D02*
X61477Y-31420D01*
X61477Y-31420D02*
X61559Y-31403D01*
X61559Y-31403D02*
X61641Y-31403D01*
X61641Y-31403D02*
X61723Y-31420D01*
X61723Y-31420D02*
X61800Y-31454D01*
X61800Y-31454D02*
X61867Y-31503D01*
X61867Y-31503D02*
X61923Y-31565D01*
X61923Y-31565D02*
X61965Y-31638D01*
X61965Y-31638D02*
X61991Y-31717D01*
X61991Y-31717D02*
X62000Y-31800D01*
X62000Y-30800D02*
X61991Y-30883D01*
X61991Y-30883D02*
X61965Y-30962D01*
X61965Y-30962D02*
X61923Y-31035D01*
X61923Y-31035D02*
X61867Y-31097D01*
X61867Y-31097D02*
X61800Y-31146D01*
X61800Y-31146D02*
X61723Y-31180D01*
X61723Y-31180D02*
X61641Y-31197D01*
X61641Y-31197D02*
X61559Y-31197D01*
X61559Y-31197D02*
X61477Y-31180D01*
X61477Y-31180D02*
X61400Y-31146D01*
X61400Y-31146D02*
X61333Y-31097D01*
X61333Y-31097D02*
X61277Y-31035D01*
X61277Y-31035D02*
X61235Y-30962D01*
X61235Y-30962D02*
X61209Y-30883D01*
X61209Y-30883D02*
X61200Y-30800D01*
X61200Y-30800D02*
X61209Y-30717D01*
X61209Y-30717D02*
X61235Y-30638D01*
X61235Y-30638D02*
X61277Y-30565D01*
X61277Y-30565D02*
X61333Y-30503D01*
X61333Y-30503D02*
X61400Y-30454D01*
X61400Y-30454D02*
X61477Y-30420D01*
X61477Y-30420D02*
X61559Y-30403D01*
X61559Y-30403D02*
X61641Y-30403D01*
X61641Y-30403D02*
X61723Y-30420D01*
X61723Y-30420D02*
X61800Y-30454D01*
X61800Y-30454D02*
X61867Y-30503D01*
X61867Y-30503D02*
X61923Y-30565D01*
X61923Y-30565D02*
X61965Y-30638D01*
X61965Y-30638D02*
X61991Y-30717D01*
X61991Y-30717D02*
X62000Y-30800D01*
X55925Y-30400D02*
X56475Y-30400D01*
X56475Y-30400D02*
X56475Y-31200D01*
X56475Y-31200D02*
X55925Y-31200D01*
X55925Y-31200D02*
X55925Y-30400D01*
X56600Y-32800D02*
X56591Y-32883D01*
X56591Y-32883D02*
X56565Y-32962D01*
X56565Y-32962D02*
X56523Y-33035D01*
X56523Y-33035D02*
X56467Y-33097D01*
X56467Y-33097D02*
X56400Y-33146D01*
X56400Y-33146D02*
X56323Y-33180D01*
X56323Y-33180D02*
X56241Y-33197D01*
X56241Y-33197D02*
X56159Y-33197D01*
X56159Y-33197D02*
X56077Y-33180D01*
X56077Y-33180D02*
X56000Y-33146D01*
X56000Y-33146D02*
X55933Y-33097D01*
X55933Y-33097D02*
X55877Y-33035D01*
X55877Y-33035D02*
X55835Y-32962D01*
X55835Y-32962D02*
X55809Y-32883D01*
X55809Y-32883D02*
X55800Y-32800D01*
X55800Y-32800D02*
X55809Y-32717D01*
X55809Y-32717D02*
X55835Y-32638D01*
X55835Y-32638D02*
X55877Y-32565D01*
X55877Y-32565D02*
X55933Y-32503D01*
X55933Y-32503D02*
X56000Y-32454D01*
X56000Y-32454D02*
X56077Y-32420D01*
X56077Y-32420D02*
X56159Y-32403D01*
X56159Y-32403D02*
X56241Y-32403D01*
X56241Y-32403D02*
X56323Y-32420D01*
X56323Y-32420D02*
X56400Y-32454D01*
X56400Y-32454D02*
X56467Y-32503D01*
X56467Y-32503D02*
X56523Y-32565D01*
X56523Y-32565D02*
X56565Y-32638D01*
X56565Y-32638D02*
X56591Y-32717D01*
X56591Y-32717D02*
X56600Y-32800D01*
X53725Y-31625D02*
X54275Y-31625D01*
X54275Y-31625D02*
X54275Y-32175D01*
X54275Y-32175D02*
X53725Y-32175D01*
X53725Y-32175D02*
X53725Y-31625D01*
X54275Y-32900D02*
X54268Y-32957D01*
X54268Y-32957D02*
X54251Y-33011D01*
X54251Y-33011D02*
X54222Y-33061D01*
X54222Y-33061D02*
X54184Y-33104D01*
X54184Y-33104D02*
X54137Y-33138D01*
X54137Y-33138D02*
X54084Y-33161D01*
X54084Y-33161D02*
X54028Y-33173D01*
X54028Y-33173D02*
X53972Y-33173D01*
X53972Y-33173D02*
X53916Y-33161D01*
X53916Y-33161D02*
X53863Y-33138D01*
X53863Y-33138D02*
X53816Y-33104D01*
X53816Y-33104D02*
X53778Y-33061D01*
X53778Y-33061D02*
X53749Y-33011D01*
X53749Y-33011D02*
X53732Y-32957D01*
X53732Y-32957D02*
X53725Y-32900D01*
X53725Y-32900D02*
X53732Y-32843D01*
X53732Y-32843D02*
X53749Y-32789D01*
X53749Y-32789D02*
X53778Y-32739D01*
X53778Y-32739D02*
X53816Y-32696D01*
X53816Y-32696D02*
X53863Y-32662D01*
X53863Y-32662D02*
X53916Y-32639D01*
X53916Y-32639D02*
X53972Y-32627D01*
X53972Y-32627D02*
X54028Y-32627D01*
X54028Y-32627D02*
X54084Y-32639D01*
X54084Y-32639D02*
X54137Y-32662D01*
X54137Y-32662D02*
X54184Y-32696D01*
X54184Y-32696D02*
X54222Y-32739D01*
X54222Y-32739D02*
X54251Y-32789D01*
X54251Y-32789D02*
X54268Y-32843D01*
X54268Y-32843D02*
X54275Y-32900D01*
G54D23*
X59790Y-26234D02*
X60240Y-26234D01*
X60015Y-26434D02*
X60015Y-26034D01*
X60726Y-26500D02*
X61026Y-26500D01*
X60876Y-26500D02*
X60876Y-25900D01*
X60876Y-25967D02*
X60726Y-26100D01*
X61887Y-26500D02*
X61362Y-26500D01*
X61362Y-26500D02*
X61362Y-26300D01*
X61362Y-26300D02*
X61437Y-26234D01*
X61437Y-26234D02*
X61812Y-26234D01*
X61812Y-26234D02*
X61887Y-26167D01*
X61887Y-26167D02*
X61887Y-25967D01*
X61887Y-25967D02*
X61812Y-25900D01*
X61812Y-25900D02*
X61437Y-25900D01*
X61437Y-25900D02*
X61362Y-25967D01*
X62148Y-25900D02*
X62448Y-26500D01*
X62448Y-26500D02*
X62748Y-25900D01*
X46044Y-26234D02*
X46419Y-26234D01*
X48056Y-25400D02*
X48056Y-25000D01*
X48056Y-25000D02*
X48406Y-25400D01*
X48406Y-25400D02*
X48406Y-25000D01*
X48620Y-25267D02*
X48970Y-25267D01*
X48970Y-25267D02*
X48970Y-25178D01*
X48970Y-25178D02*
X48920Y-25134D01*
X48920Y-25134D02*
X48670Y-25134D01*
X48670Y-25134D02*
X48620Y-25178D01*
X48620Y-25178D02*
X48620Y-25356D01*
X48620Y-25356D02*
X48670Y-25400D01*
X48670Y-25400D02*
X48920Y-25400D01*
X48920Y-25400D02*
X48970Y-25356D01*
X49184Y-25488D02*
X49234Y-25533D01*
X49234Y-25533D02*
X49484Y-25533D01*
X49484Y-25533D02*
X49534Y-25488D01*
X49534Y-25488D02*
X49534Y-25178D01*
X49534Y-25178D02*
X49484Y-25134D01*
X49484Y-25134D02*
X49234Y-25134D01*
X49234Y-25134D02*
X49184Y-25178D01*
X49184Y-25178D02*
X49184Y-25356D01*
X49184Y-25356D02*
X49234Y-25400D01*
X49234Y-25400D02*
X49484Y-25400D01*
X49484Y-25400D02*
X49534Y-25356D01*
X49748Y-25134D02*
X50048Y-25134D01*
X50048Y-25134D02*
X50098Y-25178D01*
X50098Y-25178D02*
X50098Y-25400D01*
X50098Y-25400D02*
X49798Y-25400D01*
X49798Y-25400D02*
X49748Y-25356D01*
X49748Y-25356D02*
X49748Y-25312D01*
X49748Y-25312D02*
X49798Y-25267D01*
X49798Y-25267D02*
X50098Y-25267D01*
X50612Y-25356D02*
X50562Y-25400D01*
X50562Y-25400D02*
X50412Y-25400D01*
X50412Y-25400D02*
X50362Y-25356D01*
X50362Y-25356D02*
X50362Y-25000D01*
X50362Y-25134D02*
X50512Y-25134D01*
X51026Y-25000D02*
X51026Y-25045D01*
X51026Y-25178D02*
X51026Y-25356D01*
X51026Y-25356D02*
X51076Y-25400D01*
X51076Y-25400D02*
X51126Y-25400D01*
X51440Y-25134D02*
X51440Y-25267D01*
X51440Y-25267D02*
X51590Y-25400D01*
X51590Y-25400D02*
X51740Y-25267D01*
X51740Y-25267D02*
X51740Y-25134D01*
X52004Y-25267D02*
X52354Y-25267D01*
X52354Y-25267D02*
X52354Y-25178D01*
X52354Y-25178D02*
X52304Y-25134D01*
X52304Y-25134D02*
X52054Y-25134D01*
X52054Y-25134D02*
X52004Y-25178D01*
X52004Y-25178D02*
X52004Y-25356D01*
X52004Y-25356D02*
X52054Y-25400D01*
X52054Y-25400D02*
X52304Y-25400D01*
X52304Y-25400D02*
X52354Y-25356D01*
X54056Y-25400D02*
X54056Y-25000D01*
X54056Y-25000D02*
X54356Y-25000D01*
X54356Y-25000D02*
X54406Y-25045D01*
X54406Y-25045D02*
X54406Y-25178D01*
X54406Y-25178D02*
X54356Y-25223D01*
X54356Y-25223D02*
X54056Y-25223D01*
X54670Y-25400D02*
X54620Y-25356D01*
X54620Y-25356D02*
X54620Y-25178D01*
X54620Y-25178D02*
X54670Y-25134D01*
X54670Y-25134D02*
X54920Y-25134D01*
X54920Y-25134D02*
X54970Y-25178D01*
X54970Y-25178D02*
X54970Y-25356D01*
X54970Y-25356D02*
X54920Y-25400D01*
X54920Y-25400D02*
X54670Y-25400D01*
X55184Y-25356D02*
X55234Y-25400D01*
X55234Y-25400D02*
X55484Y-25400D01*
X55484Y-25400D02*
X55534Y-25356D01*
X55534Y-25356D02*
X55534Y-25312D01*
X55534Y-25312D02*
X55484Y-25267D01*
X55484Y-25267D02*
X55234Y-25267D01*
X55234Y-25267D02*
X55184Y-25223D01*
X55184Y-25223D02*
X55184Y-25178D01*
X55184Y-25178D02*
X55234Y-25134D01*
X55234Y-25134D02*
X55484Y-25134D01*
X55484Y-25134D02*
X55534Y-25178D01*
X55898Y-25000D02*
X55898Y-25045D01*
X55898Y-25178D02*
X55898Y-25356D01*
X55898Y-25356D02*
X55948Y-25400D01*
X55948Y-25400D02*
X55998Y-25400D01*
X56612Y-25356D02*
X56562Y-25400D01*
X56562Y-25400D02*
X56412Y-25400D01*
X56412Y-25400D02*
X56362Y-25356D01*
X56362Y-25356D02*
X56362Y-25000D01*
X56362Y-25134D02*
X56512Y-25134D01*
X57026Y-25000D02*
X57026Y-25045D01*
X57026Y-25178D02*
X57026Y-25356D01*
X57026Y-25356D02*
X57076Y-25400D01*
X57076Y-25400D02*
X57126Y-25400D01*
X57440Y-25134D02*
X57440Y-25267D01*
X57440Y-25267D02*
X57590Y-25400D01*
X57590Y-25400D02*
X57740Y-25267D01*
X57740Y-25267D02*
X57740Y-25134D01*
X58004Y-25267D02*
X58354Y-25267D01*
X58354Y-25267D02*
X58354Y-25178D01*
X58354Y-25178D02*
X58304Y-25134D01*
X58304Y-25134D02*
X58054Y-25134D01*
X58054Y-25134D02*
X58004Y-25178D01*
X58004Y-25178D02*
X58004Y-25356D01*
X58004Y-25356D02*
X58054Y-25400D01*
X58054Y-25400D02*
X58304Y-25400D01*
X58304Y-25400D02*
X58354Y-25356D01*
G54D26*
X49898Y-31600D02*
X50248Y-31600D01*
X50248Y-31600D02*
X49898Y-32000D01*
X50472Y-32000D02*
X50422Y-31956D01*
X50422Y-31956D02*
X50422Y-31823D01*
X50422Y-31823D02*
X50472Y-31778D01*
X50472Y-31778D02*
X50722Y-31778D01*
X50722Y-31778D02*
X50772Y-31734D01*
X50772Y-31734D02*
X50772Y-31645D01*
X50772Y-31645D02*
X50722Y-31600D01*
X50722Y-31600D02*
X50472Y-31600D01*
X50472Y-31600D02*
X50422Y-31645D01*
X50422Y-31645D02*
X50422Y-31734D01*
X50422Y-31734D02*
X50472Y-31778D01*
X50722Y-31778D02*
X50772Y-31823D01*
X50772Y-31823D02*
X50772Y-31956D01*
X50772Y-31956D02*
X50722Y-32000D01*
X50722Y-32000D02*
X50472Y-32000D01*
X50946Y-31600D02*
X50946Y-32000D01*
X50946Y-32000D02*
X51346Y-32000D01*
X51470Y-32000D02*
X51820Y-31600D01*
X51470Y-31956D02*
X51470Y-31645D01*
X51470Y-31645D02*
X51520Y-31600D01*
X51520Y-31600D02*
X51770Y-31600D01*
X51770Y-31600D02*
X51820Y-31645D01*
X51820Y-31645D02*
X51820Y-31956D01*
X51820Y-31956D02*
X51770Y-32000D01*
X51770Y-32000D02*
X51520Y-32000D01*
X51520Y-32000D02*
X51470Y-31956D01*
X51994Y-31912D02*
X51994Y-31956D01*
X51994Y-31956D02*
X52044Y-32000D01*
X52044Y-32000D02*
X52294Y-32000D01*
X52294Y-32000D02*
X52344Y-31956D01*
X52344Y-31956D02*
X52344Y-31823D01*
X52344Y-31823D02*
X52244Y-31734D01*
X52244Y-31734D02*
X51994Y-31734D01*
X51994Y-31734D02*
X51994Y-31600D01*
X51994Y-31600D02*
X52344Y-31600D01*
G54D23*
X56619Y-41667D02*
X56619Y-41600D01*
X56619Y-41600D02*
X56244Y-41600D01*
X56244Y-41600D02*
X56169Y-41667D01*
X56169Y-41667D02*
X56169Y-42134D01*
X56169Y-42134D02*
X56244Y-42200D01*
X56244Y-42200D02*
X56619Y-42200D01*
X56619Y-42200D02*
X56694Y-42134D01*
X56694Y-42134D02*
X56694Y-41934D01*
X56694Y-41934D02*
X56469Y-41934D01*
X57169Y-41600D02*
X57769Y-41600D01*
X57469Y-41600D02*
X57469Y-42200D01*
X59519Y-41667D02*
X59519Y-41600D01*
X59519Y-41600D02*
X59144Y-41600D01*
X59144Y-41600D02*
X59069Y-41667D01*
X59069Y-41667D02*
X59069Y-42134D01*
X59069Y-42134D02*
X59144Y-42200D01*
X59144Y-42200D02*
X59519Y-42200D01*
X59519Y-42200D02*
X59594Y-42134D01*
X59594Y-42134D02*
X59594Y-41934D01*
X59594Y-41934D02*
X59369Y-41934D01*
X60069Y-42200D02*
X60069Y-41600D01*
X60069Y-41600D02*
X60519Y-41600D01*
X60519Y-41600D02*
X60594Y-41667D01*
X60594Y-41667D02*
X60594Y-41867D01*
X60594Y-41867D02*
X60519Y-41934D01*
X60519Y-41934D02*
X60069Y-41934D01*
X60294Y-41934D02*
X60594Y-42200D01*
X44403Y-31078D02*
X44302Y-31214D01*
X44302Y-31214D02*
X43799Y-31214D01*
X43799Y-31214D02*
X43698Y-31078D01*
X43698Y-31078D02*
X43698Y-30122D01*
X43698Y-30122D02*
X43799Y-29985D01*
X43799Y-29985D02*
X44302Y-29985D01*
X44302Y-29985D02*
X44403Y-30122D01*
X45417Y-30122D02*
X45316Y-29985D01*
X45316Y-29985D02*
X44813Y-29985D01*
X44813Y-29985D02*
X44712Y-30122D01*
X44712Y-30122D02*
X44712Y-31078D01*
X44712Y-31078D02*
X44813Y-31214D01*
X44813Y-31214D02*
X45316Y-31214D01*
X45316Y-31214D02*
X45417Y-31078D01*
X45417Y-31078D02*
X45417Y-30668D01*
X45417Y-30668D02*
X45316Y-30532D01*
X45316Y-30532D02*
X44813Y-30532D01*
X44813Y-30532D02*
X44712Y-30668D01*
X41831Y-35524D02*
X41831Y-34276D01*
X41831Y-34276D02*
X41165Y-35247D01*
X41165Y-35247D02*
X42098Y-35247D01*
X42469Y-34276D02*
X43402Y-34276D01*
X43402Y-34276D02*
X42469Y-35524D01*
X43773Y-35524D02*
X44706Y-34276D01*
X43773Y-35386D02*
X43773Y-34415D01*
X43773Y-34415D02*
X43906Y-34276D01*
X43906Y-34276D02*
X44572Y-34276D01*
X44572Y-34276D02*
X44706Y-34415D01*
X44706Y-34415D02*
X44706Y-35386D01*
X44706Y-35386D02*
X44572Y-35524D01*
X44572Y-35524D02*
X43906Y-35524D01*
X43906Y-35524D02*
X43773Y-35386D01*
X45077Y-35524D02*
X46010Y-34276D01*
X45077Y-35386D02*
X45077Y-34415D01*
X45077Y-34415D02*
X45210Y-34276D01*
X45210Y-34276D02*
X45876Y-34276D01*
X45876Y-34276D02*
X46010Y-34415D01*
X46010Y-34415D02*
X46010Y-35386D01*
X46010Y-35386D02*
X45876Y-35524D01*
X45876Y-35524D02*
X45210Y-35524D01*
X45210Y-35524D02*
X45077Y-35386D01*
X46381Y-34692D02*
X46381Y-35247D01*
X46381Y-35247D02*
X46647Y-35524D01*
X46647Y-35524D02*
X47047Y-35524D01*
X47047Y-35524D02*
X47314Y-35247D01*
X47314Y-35247D02*
X47314Y-34692D01*
X47685Y-35524D02*
X47685Y-34276D01*
X47685Y-34276D02*
X48618Y-34276D01*
X47685Y-34831D02*
X48218Y-34831D01*
X47844Y-32634D02*
X48219Y-32634D01*
X40769Y-32634D02*
X41219Y-32634D01*
X40994Y-32834D02*
X40994Y-32434D01*
G54D24*
X54967Y-35441D02*
X55000Y-35479D01*
X55000Y-35479D02*
X55000Y-35666D01*
X55000Y-35666D02*
X54967Y-35704D01*
X54967Y-35704D02*
X54734Y-35704D01*
X54734Y-35704D02*
X54700Y-35666D01*
X54700Y-35666D02*
X54700Y-35479D01*
X54700Y-35479D02*
X54734Y-35441D01*
X55000Y-35246D02*
X55000Y-35096D01*
X55000Y-35171D02*
X54700Y-35171D01*
X54734Y-35171D02*
X54800Y-35246D01*
X53500Y-36088D02*
X53500Y-35963D01*
X53500Y-36025D02*
X53200Y-36025D01*
X53234Y-36025D02*
X53300Y-36088D01*
X53500Y-35823D02*
X53200Y-35604D01*
X53467Y-35823D02*
X53234Y-35823D01*
X53234Y-35823D02*
X53200Y-35792D01*
X53200Y-35792D02*
X53200Y-35636D01*
X53200Y-35636D02*
X53234Y-35604D01*
X53234Y-35604D02*
X53467Y-35604D01*
X53467Y-35604D02*
X53500Y-35636D01*
X53500Y-35636D02*
X53500Y-35792D01*
X53500Y-35792D02*
X53467Y-35823D01*
X53500Y-35496D02*
X53200Y-35277D01*
X53467Y-35496D02*
X53234Y-35496D01*
X53234Y-35496D02*
X53200Y-35465D01*
X53200Y-35465D02*
X53200Y-35309D01*
X53200Y-35309D02*
X53234Y-35277D01*
X53234Y-35277D02*
X53467Y-35277D01*
X53467Y-35277D02*
X53500Y-35309D01*
X53500Y-35309D02*
X53500Y-35465D01*
X53500Y-35465D02*
X53467Y-35496D01*
X53300Y-35169D02*
X53434Y-35169D01*
X53434Y-35169D02*
X53500Y-35107D01*
X53500Y-35107D02*
X53500Y-35013D01*
X53500Y-35013D02*
X53434Y-34950D01*
X53434Y-34950D02*
X53300Y-34950D01*
X53500Y-34842D02*
X53200Y-34842D01*
X53200Y-34842D02*
X53200Y-34623D01*
X53334Y-34842D02*
X53334Y-34717D01*
G54D26*
X54117Y-34324D02*
X54117Y-34099D01*
X54217Y-34211D02*
X54017Y-34211D01*
G54D24*
X57167Y-34741D02*
X57200Y-34779D01*
X57200Y-34779D02*
X57200Y-34966D01*
X57200Y-34966D02*
X57167Y-35004D01*
X57167Y-35004D02*
X56934Y-35004D01*
X56934Y-35004D02*
X56900Y-34966D01*
X56900Y-34966D02*
X56900Y-34779D01*
X56900Y-34779D02*
X56934Y-34741D01*
X57200Y-34358D02*
X57200Y-34621D01*
X57200Y-34621D02*
X57100Y-34621D01*
X57100Y-34621D02*
X57067Y-34583D01*
X57067Y-34583D02*
X57067Y-34396D01*
X57067Y-34396D02*
X57034Y-34358D01*
X57034Y-34358D02*
X56934Y-34358D01*
X56934Y-34358D02*
X56900Y-34396D01*
X56900Y-34396D02*
X56900Y-34583D01*
X56900Y-34583D02*
X56934Y-34621D01*
X55700Y-35061D02*
X55700Y-34936D01*
X55700Y-34998D02*
X55400Y-34998D01*
X55434Y-34998D02*
X55500Y-35061D01*
X55500Y-34796D02*
X55634Y-34796D01*
X55634Y-34796D02*
X55700Y-34734D01*
X55700Y-34734D02*
X55700Y-34640D01*
X55700Y-34640D02*
X55634Y-34577D01*
X55634Y-34577D02*
X55500Y-34577D01*
X55700Y-34469D02*
X55400Y-34469D01*
X55400Y-34469D02*
X55400Y-34250D01*
X55534Y-34469D02*
X55534Y-34344D01*
G54D26*
X56317Y-33574D02*
X56317Y-33349D01*
X56417Y-33461D02*
X56217Y-33461D01*
G54D24*
X57267Y-37641D02*
X57300Y-37679D01*
X57300Y-37679D02*
X57300Y-37866D01*
X57300Y-37866D02*
X57267Y-37904D01*
X57267Y-37904D02*
X57034Y-37904D01*
X57034Y-37904D02*
X57000Y-37866D01*
X57000Y-37866D02*
X57000Y-37679D01*
X57000Y-37679D02*
X57034Y-37641D01*
X57300Y-37333D02*
X57000Y-37333D01*
X57000Y-37333D02*
X57234Y-37521D01*
X57234Y-37521D02*
X57234Y-37258D01*
X55800Y-37961D02*
X55800Y-37836D01*
X55800Y-37898D02*
X55500Y-37898D01*
X55534Y-37898D02*
X55600Y-37961D01*
X55600Y-37696D02*
X55734Y-37696D01*
X55734Y-37696D02*
X55800Y-37634D01*
X55800Y-37634D02*
X55800Y-37540D01*
X55800Y-37540D02*
X55734Y-37477D01*
X55734Y-37477D02*
X55600Y-37477D01*
X55800Y-37369D02*
X55500Y-37369D01*
X55500Y-37369D02*
X55500Y-37150D01*
X55634Y-37369D02*
X55634Y-37244D01*
G54D26*
X56417Y-36474D02*
X56417Y-36249D01*
X56517Y-36361D02*
X56317Y-36361D01*
G54D23*
X51947Y-42200D02*
X51947Y-41600D01*
X51947Y-41600D02*
X52397Y-41600D01*
X52397Y-41600D02*
X52472Y-41667D01*
X52472Y-41667D02*
X52472Y-41867D01*
X52472Y-41867D02*
X52397Y-41934D01*
X52397Y-41934D02*
X51947Y-41934D01*
X52808Y-42200D02*
X52733Y-42134D01*
X52733Y-42134D02*
X52733Y-41667D01*
X52733Y-41667D02*
X52808Y-41600D01*
X52808Y-41600D02*
X53183Y-41600D01*
X53183Y-41600D02*
X53258Y-41667D01*
X53258Y-41667D02*
X53258Y-42134D01*
X53258Y-42134D02*
X53183Y-42200D01*
X53183Y-42200D02*
X52808Y-42200D01*
X53519Y-41600D02*
X53669Y-42200D01*
X53669Y-42200D02*
X53819Y-42000D01*
X53819Y-42000D02*
X53969Y-42200D01*
X53969Y-42200D02*
X54119Y-41600D01*
X54830Y-42200D02*
X54305Y-42200D01*
X54305Y-42200D02*
X54305Y-41600D01*
X54305Y-41600D02*
X54830Y-41600D01*
X54305Y-41867D02*
X54605Y-41867D01*
X55091Y-42200D02*
X55091Y-41600D01*
X55091Y-41600D02*
X55541Y-41600D01*
X55541Y-41600D02*
X55616Y-41667D01*
X55616Y-41667D02*
X55616Y-41867D01*
X55616Y-41867D02*
X55541Y-41934D01*
X55541Y-41934D02*
X55091Y-41934D01*
X55316Y-41934D02*
X55616Y-42200D01*
X47533Y-38084D02*
X47983Y-38084D01*
X47758Y-38284D02*
X47758Y-37884D01*
X48319Y-38217D02*
X48319Y-38284D01*
X48319Y-38284D02*
X48394Y-38350D01*
X48394Y-38350D02*
X48769Y-38350D01*
X48769Y-38350D02*
X48844Y-38284D01*
X48844Y-38284D02*
X48844Y-38084D01*
X48844Y-38084D02*
X48694Y-37950D01*
X48694Y-37950D02*
X48319Y-37950D01*
X48319Y-37950D02*
X48319Y-37750D01*
X48319Y-37750D02*
X48844Y-37750D01*
X49105Y-37750D02*
X49405Y-38350D01*
X49405Y-38350D02*
X49705Y-37750D01*
X46769Y-37817D02*
X46769Y-37750D01*
X46769Y-37750D02*
X46394Y-37750D01*
X46394Y-37750D02*
X46319Y-37817D01*
X46319Y-37817D02*
X46319Y-38284D01*
X46319Y-38284D02*
X46394Y-38350D01*
X46394Y-38350D02*
X46769Y-38350D01*
X46769Y-38350D02*
X46844Y-38284D01*
X46844Y-38284D02*
X46844Y-38084D01*
X46844Y-38084D02*
X46619Y-38084D01*
X44769Y-37817D02*
X44769Y-37750D01*
X44769Y-37750D02*
X44394Y-37750D01*
X44394Y-37750D02*
X44319Y-37817D01*
X44319Y-37817D02*
X44319Y-38284D01*
X44319Y-38284D02*
X44394Y-38350D01*
X44394Y-38350D02*
X44769Y-38350D01*
X44769Y-38350D02*
X44844Y-38284D01*
X44844Y-38284D02*
X44844Y-38084D01*
X44844Y-38084D02*
X44619Y-38084D01*
X40640Y-38084D02*
X41090Y-38084D01*
X40865Y-38284D02*
X40865Y-37884D01*
X41576Y-38350D02*
X41876Y-38350D01*
X41726Y-38350D02*
X41726Y-37750D01*
X41726Y-37817D02*
X41576Y-37950D01*
X42737Y-38350D02*
X42212Y-38350D01*
X42212Y-38350D02*
X42212Y-38150D01*
X42212Y-38150D02*
X42287Y-38084D01*
X42287Y-38084D02*
X42662Y-38084D01*
X42662Y-38084D02*
X42737Y-38017D01*
X42737Y-38017D02*
X42737Y-37817D01*
X42737Y-37817D02*
X42662Y-37750D01*
X42662Y-37750D02*
X42287Y-37750D01*
X42287Y-37750D02*
X42212Y-37817D01*
X42998Y-37750D02*
X43298Y-38350D01*
X43298Y-38350D02*
X43598Y-37750D01*
G54D26*
X51747Y-37825D02*
X51747Y-37275D01*
X51747Y-37275D02*
X52122Y-37275D01*
X52122Y-37275D02*
X52185Y-37337D01*
X52185Y-37337D02*
X52185Y-37520D01*
X52185Y-37520D02*
X52122Y-37581D01*
X52122Y-37581D02*
X51747Y-37581D01*
X51935Y-37581D02*
X52185Y-37825D01*
X52507Y-37825D02*
X52757Y-37825D01*
X52632Y-37825D02*
X52632Y-37275D01*
X52632Y-37337D02*
X52507Y-37459D01*
X51112Y-38703D02*
X51112Y-38764D01*
X51112Y-38764D02*
X51175Y-38825D01*
X51175Y-38825D02*
X51487Y-38825D01*
X51487Y-38825D02*
X51550Y-38764D01*
X51550Y-38764D02*
X51550Y-38581D01*
X51550Y-38581D02*
X51425Y-38459D01*
X51425Y-38459D02*
X51112Y-38459D01*
X51112Y-38459D02*
X51112Y-38275D01*
X51112Y-38275D02*
X51550Y-38275D01*
X52185Y-38337D02*
X52122Y-38275D01*
X52122Y-38275D02*
X51810Y-38275D01*
X51810Y-38275D02*
X51747Y-38337D01*
X51747Y-38337D02*
X51747Y-38764D01*
X51747Y-38764D02*
X51810Y-38825D01*
X51810Y-38825D02*
X52122Y-38825D01*
X52122Y-38825D02*
X52185Y-38764D01*
X52185Y-38764D02*
X52185Y-38581D01*
X52185Y-38581D02*
X52122Y-38520D01*
X52122Y-38520D02*
X51810Y-38520D01*
X51810Y-38520D02*
X51747Y-38581D01*
X52382Y-38825D02*
X52820Y-38275D01*
X52382Y-38764D02*
X52382Y-38337D01*
X52382Y-38337D02*
X52445Y-38275D01*
X52445Y-38275D02*
X52757Y-38275D01*
X52757Y-38275D02*
X52820Y-38337D01*
X52820Y-38337D02*
X52820Y-38764D01*
X52820Y-38764D02*
X52757Y-38825D01*
X52757Y-38825D02*
X52445Y-38825D01*
X52445Y-38825D02*
X52382Y-38764D01*
X53017Y-38825D02*
X53017Y-38275D01*
X53017Y-38275D02*
X53392Y-38275D01*
X53392Y-38275D02*
X53455Y-38337D01*
X53455Y-38337D02*
X53455Y-38520D01*
X53455Y-38520D02*
X53392Y-38581D01*
X53392Y-38581D02*
X53017Y-38581D01*
X53205Y-38581D02*
X53455Y-38825D01*
G54D23*
X66300Y-34842D02*
X65700Y-34842D01*
X65700Y-34917D02*
X65700Y-34467D01*
X65700Y-34467D02*
X65767Y-34392D01*
X65767Y-34392D02*
X66234Y-34392D01*
X66234Y-34392D02*
X66300Y-34467D01*
X66300Y-34467D02*
X66300Y-34917D01*
X66300Y-34131D02*
X65700Y-34131D01*
X65700Y-34131D02*
X65700Y-33681D01*
X65700Y-33681D02*
X65767Y-33606D01*
X65767Y-33606D02*
X65900Y-33606D01*
X65900Y-33606D02*
X65967Y-33681D01*
X65967Y-33681D02*
X65967Y-34131D01*
X65967Y-33681D02*
X66100Y-33606D01*
X66100Y-33606D02*
X66234Y-33606D01*
X66234Y-33606D02*
X66300Y-33681D01*
X66300Y-33681D02*
X66300Y-34131D01*
X66300Y-33270D02*
X66300Y-32895D01*
X66300Y-32895D02*
X66234Y-32820D01*
X66234Y-32820D02*
X65767Y-32820D01*
X65767Y-32820D02*
X65700Y-32895D01*
X65700Y-32895D02*
X65700Y-33270D01*
X65700Y-33270D02*
X65767Y-33345D01*
X65767Y-33345D02*
X65967Y-33345D01*
X65967Y-33345D02*
X66034Y-33270D01*
X66034Y-33270D02*
X66034Y-32895D01*
X66034Y-32895D02*
X65967Y-32820D01*
X63300Y-33131D02*
X62700Y-33131D01*
X62700Y-33131D02*
X62700Y-32681D01*
X62700Y-32681D02*
X62767Y-32606D01*
X62767Y-32606D02*
X62967Y-32606D01*
X62967Y-32606D02*
X63034Y-32681D01*
X63034Y-32681D02*
X63034Y-33131D01*
X63034Y-32906D02*
X63300Y-32606D01*
X62700Y-34131D02*
X62700Y-33531D01*
X62700Y-33831D02*
X63300Y-33831D01*
X60400Y-36036D02*
X59800Y-36036D01*
X59800Y-36036D02*
X60067Y-35811D01*
X60067Y-35811D02*
X59800Y-35586D01*
X59800Y-35586D02*
X60400Y-35586D01*
X60400Y-35416D02*
X59934Y-35416D01*
X59934Y-35416D02*
X59800Y-35304D01*
X59800Y-35304D02*
X59800Y-35135D01*
X59800Y-35135D02*
X59934Y-35022D01*
X59934Y-35022D02*
X60400Y-35022D01*
X60067Y-35416D02*
X60067Y-35022D01*
X60400Y-34796D02*
X59800Y-34402D01*
X59800Y-34796D02*
X60400Y-34402D01*
X60400Y-33782D02*
X60400Y-34176D01*
X60400Y-34176D02*
X60200Y-34176D01*
X60200Y-34176D02*
X60134Y-34120D01*
X60134Y-34120D02*
X60134Y-33839D01*
X60134Y-33839D02*
X60067Y-33782D01*
X60067Y-33782D02*
X59867Y-33782D01*
X59867Y-33782D02*
X59800Y-33839D01*
X59800Y-33839D02*
X59800Y-34120D01*
X59800Y-34120D02*
X59867Y-34176D01*
X59800Y-33556D02*
X59800Y-33162D01*
X59800Y-33162D02*
X59867Y-33162D01*
X59867Y-33162D02*
X60067Y-33387D01*
X60067Y-33387D02*
X60067Y-33219D01*
X60067Y-33219D02*
X60134Y-33162D01*
X60134Y-33162D02*
X60334Y-33162D01*
X60334Y-33162D02*
X60400Y-33219D01*
X60400Y-33219D02*
X60400Y-33500D01*
X60400Y-33500D02*
X60334Y-33556D01*
X60400Y-32542D02*
X60400Y-32936D01*
X60400Y-32936D02*
X60200Y-32936D01*
X60200Y-32936D02*
X60134Y-32880D01*
X60134Y-32880D02*
X60134Y-32599D01*
X60134Y-32599D02*
X60067Y-32542D01*
X60067Y-32542D02*
X59867Y-32542D01*
X59867Y-32542D02*
X59800Y-32599D01*
X59800Y-32599D02*
X59800Y-32880D01*
X59800Y-32880D02*
X59867Y-32936D01*
X62900Y-30774D02*
X62900Y-30474D01*
X62900Y-30624D02*
X62300Y-30624D01*
X62367Y-30624D02*
X62500Y-30774D01*
X62367Y-29613D02*
X62300Y-29688D01*
X62300Y-29688D02*
X62300Y-30063D01*
X62300Y-30063D02*
X62367Y-30138D01*
X62367Y-30138D02*
X62834Y-30138D01*
X62834Y-30138D02*
X62900Y-30063D01*
X62900Y-30063D02*
X62900Y-29688D01*
X62900Y-29688D02*
X62834Y-29613D01*
X62834Y-29613D02*
X62634Y-29613D01*
X62634Y-29613D02*
X62567Y-29688D01*
X62567Y-29688D02*
X62567Y-30063D01*
X62567Y-30063D02*
X62634Y-30138D01*
X57900Y-30381D02*
X57900Y-30081D01*
X57900Y-30231D02*
X57300Y-30231D01*
X57367Y-30231D02*
X57500Y-30381D01*
G54D24*
X56817Y-31841D02*
X56850Y-31879D01*
X56850Y-31879D02*
X56850Y-32066D01*
X56850Y-32066D02*
X56817Y-32104D01*
X56817Y-32104D02*
X56584Y-32104D01*
X56584Y-32104D02*
X56550Y-32066D01*
X56550Y-32066D02*
X56550Y-31879D01*
X56550Y-31879D02*
X56584Y-31841D01*
X56784Y-31721D02*
X56817Y-31721D01*
X56817Y-31721D02*
X56850Y-31683D01*
X56850Y-31683D02*
X56850Y-31496D01*
X56850Y-31496D02*
X56817Y-31458D01*
X56817Y-31458D02*
X56717Y-31458D01*
X56717Y-31458D02*
X56650Y-31533D01*
X56650Y-31533D02*
X56650Y-31721D01*
X56650Y-31721D02*
X56550Y-31721D01*
X56550Y-31721D02*
X56550Y-31458D01*
X55850Y-32161D02*
X55850Y-32036D01*
X55850Y-32098D02*
X55550Y-32098D01*
X55584Y-32098D02*
X55650Y-32161D01*
X55650Y-31896D02*
X55784Y-31896D01*
X55784Y-31896D02*
X55850Y-31834D01*
X55850Y-31834D02*
X55850Y-31740D01*
X55850Y-31740D02*
X55784Y-31677D01*
X55784Y-31677D02*
X55650Y-31677D01*
X55850Y-31569D02*
X55550Y-31569D01*
X55550Y-31569D02*
X55550Y-31350D01*
X55684Y-31569D02*
X55684Y-31444D01*
G54D26*
X56217Y-30524D02*
X56217Y-30299D01*
X56317Y-30411D02*
X56117Y-30411D01*
G54D24*
X54616Y-32441D02*
X54649Y-32479D01*
X54649Y-32479D02*
X54649Y-32666D01*
X54649Y-32666D02*
X54616Y-32704D01*
X54616Y-32704D02*
X54383Y-32704D01*
X54383Y-32704D02*
X54349Y-32666D01*
X54349Y-32666D02*
X54349Y-32479D01*
X54349Y-32479D02*
X54383Y-32441D01*
X54349Y-32321D02*
X54349Y-32058D01*
X54349Y-32058D02*
X54383Y-32058D01*
X54383Y-32058D02*
X54483Y-32208D01*
X54483Y-32208D02*
X54483Y-32096D01*
X54483Y-32096D02*
X54516Y-32058D01*
X54516Y-32058D02*
X54616Y-32058D01*
X54616Y-32058D02*
X54649Y-32096D01*
X54649Y-32096D02*
X54649Y-32283D01*
X54649Y-32283D02*
X54616Y-32321D01*
X53650Y-32761D02*
X53650Y-32636D01*
X53650Y-32698D02*
X53350Y-32698D01*
X53384Y-32698D02*
X53450Y-32761D01*
X53450Y-32496D02*
X53584Y-32496D01*
X53584Y-32496D02*
X53650Y-32434D01*
X53650Y-32434D02*
X53650Y-32340D01*
X53650Y-32340D02*
X53584Y-32277D01*
X53584Y-32277D02*
X53450Y-32277D01*
X53650Y-32169D02*
X53350Y-32169D01*
X53350Y-32169D02*
X53350Y-31950D01*
X53484Y-32169D02*
X53484Y-32044D01*
G54D26*
X54017Y-31624D02*
X54017Y-31399D01*
X54117Y-31511D02*
X53917Y-31511D01*
M02*
