M48
INCH,LZ
T1C0.025
T2C0.032
T3C0.040
T4C0.080
T5C0.120
T6C0.159
%
T1
X1437Y-0867
T2
X1427Y-0972
X1437Y-0972
X1401Y-0972
X1411Y-0972
X1298Y-0821
X1308Y-0821
X1318Y-0821
X1328Y-0821
X1338Y-0821
X1348Y-0821
X1358Y-0821
X1368Y-0821
X1378Y-0821
X1388Y-0821
X1398Y-0821
X1408Y-0821
X1322Y-0897
X1332Y-0897
X1332Y-0887
X1362Y-0908
X1362Y-0918
X1384Y-0901
X1384Y-0911
X1385Y-093
X1385Y-094
X1369Y-0962
X1369Y-0972
X1328Y-0931
X1358Y-0931
X1407Y-0867
X1407Y-0877
X1407Y-0887
X1407Y-0897
X1407Y-0907
X1407Y-0917
X1407Y-0927
X1407Y-0937
X1437Y-0937
X1437Y-0927
X1437Y-0917
X1437Y-0907
X1437Y-0897
X1437Y-0887
X1437Y-0877
X1437Y-0867
X1383Y-0867
X1383Y-0887
X1361Y-0878
X1361Y-0888
T3
X1461Y-08765
X1461Y-08875
X1461Y-0898
X1461Y-0909
X1461Y-092
X1471Y-0882
X1471Y-0893
X1471Y-09035
X1471Y-09145
T4
X1276Y-0971
X1296Y-0971
X1316Y-0971
X1336Y-0971
X1283Y-0885
X1249Y-0886
T5
X1466Y-0948
X1466Y-0848
T6
X1235Y-0819
X1485Y-0819
X1485Y-0977
X1235Y-0977
T0
M30
