999
dxflib 2.2.0.0
  0
SECTION
  2
HEADER
  9
$ACADVER
  1
AC1015
  9
$HANDSEED
  5
FFFF
  9
$DIMASZ
 40
2.5
  9
$PLIMMIN
 10
0.0
 20
0.0
  9
$DIMEXE
 40
1.25
  9
$DIMGAP
 40
0.625
  9
$PLIMMAX
 10
210.0
 20
297.0
  9
$INSUNITS
 70
4
  9
$DIMSTYLE
  2
Standard
  9
$CLAYER
  8
Bearing Plate Bottom
  9
$DIMEXO
 40
0.625
  9
$DIMTXT
 40
2.5
  9
$CLAYER
  8
Bearing Plate Bottom
  0
ENDSEC
  0
SECTION
  2
TABLES
  0
TABLE
  2
VPORT
  5
8
100
AcDbSymbolTable
 70
1
  0
VPORT
  5
30
100
AcDbSymbolTableRecord
100
AcDbViewportTableRecord
  2
*Active
 70
0
 10
0.0
 20
0.0
 11
1.0
 21
1.0
 12
286.3055555555554861
 22
148.5
 13
0.0
 23
0.0
 14
10.0
 24
10.0
 15
10.0
 25
10.0
 16
0.0
 26
0.0
 36
1.0
 17
0.0
 27
0.0
 37
0.0
 40
297.0
 41
1.92798353909465
 42
50.0
 43
0.0
 44
0.0
 50
0.0
 51
0.0
 71
0
 72
100
 73
1
 74
3
 75
1
 76
1
 77
0
 78
0
281
0
 65
1
110
0.0
120
0.0
130
0.0
111
1.0
121
0.0
131
0.0
112
0.0
122
1.0
132
0.0
 79
0
146
0.0
  0
ENDTAB
  0
TABLE
  2
LTYPE
  5
5
100
AcDbSymbolTable
 70
21
  0
LTYPE
  5
14
100
AcDbSymbolTableRecord
100
AcDbLinetypeTableRecord
  2
ByBlock
 70
0
  3

 72
65
 73
0
 40
0.0
  0
LTYPE
  5
15
100
AcDbSymbolTableRecord
100
AcDbLinetypeTableRecord
  2
ByLayer
 70
0
  3

 72
65
 73
0
 40
0.0
  0
LTYPE
  5
16
100
AcDbSymbolTableRecord
100
AcDbLinetypeTableRecord
  2
CONTINUOUS
 70
0
  3
Solid line
 72
65
 73
0
 40
0.0
  0
LTYPE
  5
31
100
AcDbSymbolTableRecord
100
AcDbLinetypeTableRecord
  2
DOT
 70
0
  3
Dot . . . . . . . . . . . . . . . . . . . . . .
 72
65
 73
2
 40
6.3499999999999996
 49
0.0
 74
0
 49
-6.3499999999999996
 74
0
  0
LTYPE
  5
32
100
AcDbSymbolTableRecord
100
AcDbLinetypeTableRecord
  2
DOT2
 70
0
  3
Dot (.5x) .....................................
 72
65
 73
2
 40
3.1749999999999998
 49
0.0
 74
0
 49
-3.1749999999999998
 74
0
  0
LTYPE
  5
33
100
AcDbSymbolTableRecord
100
AcDbLinetypeTableRecord
  2
DOTX2
 70
0
  3
Dot (2x) .  .  .  .  .  .  .  .  .  .  .  .  .
 72
65
 73
2
 40
12.6999999999999993
 49
0.0
 74
0
 49
-12.6999999999999993
 74
0
  0
LTYPE
  5
34
100
AcDbSymbolTableRecord
100
AcDbLinetypeTableRecord
  2
DASHED
 70
0
  3
Dashed __ __ __ __ __ __ __ __ __ __ __ __ __ _
 72
65
 73
2
 40
19.0500000000000007
 49
12.6999999999999993
 74
0
 49
-6.3499999999999996
 74
0
  0
LTYPE
  5
35
100
AcDbSymbolTableRecord
100
AcDbLinetypeTableRecord
  2
DASHED2
 70
0
  3
Dashed (.5x) _ _ _ _ _ _ _ _ _ _ _ _ _ _ _ _ _
 72
65
 73
2
 40
9.5250000000000004
 49
6.3499999999999996
 74
0
 49
-3.1749999999999998
 74
0
  0
LTYPE
  5
36
100
AcDbSymbolTableRecord
100
AcDbLinetypeTableRecord
  2
DASHEDX2
 70
0
  3
Dashed (2x) ____  ____  ____  ____  ____  ___
 72
65
 73
2
 40
38.1000000000000014
 49
25.3999999999999986
 74
0
 49
-12.6999999999999993
 74
0
  0
LTYPE
  5
37
100
AcDbSymbolTableRecord
100
AcDbLinetypeTableRecord
  2
DASHDOT
 70
0
  3
Dash dot __ . __ . __ . __ . __ . __ . __ . __
 72
65
 73
4
 40
25.3999999999999986
 49
12.6999999999999993
 74
0
 49
-6.3499999999999996
 74
0
 49
0.0
 74
0
 49
-6.3499999999999996
 74
0
  0
LTYPE
  5
38
100
AcDbSymbolTableRecord
100
AcDbLinetypeTableRecord
  2
DASHDOT2
 70
0
  3
Dash dot (.5x) _._._._._._._._._._._._._._._.
 72
65
 73
4
 40
12.6999999999999993
 49
6.3499999999999996
 74
0
 49
-3.1749999999999998
 74
0
 49
0.0
 74
0
 49
-3.1749999999999998
 74
0
  0
LTYPE
  5
39
100
AcDbSymbolTableRecord
100
AcDbLinetypeTableRecord
  2
DASHDOTX2
 70
0
  3
Dash dot (2x) ____  .  ____  .  ____  .  ___
 72
65
 73
4
 40
50.7999999999999972
 49
25.3999999999999986
 74
0
 49
-12.6999999999999993
 74
0
 49
0.0
 74
0
 49
-12.6999999999999993
 74
0
  0
LTYPE
  5
3A
100
AcDbSymbolTableRecord
100
AcDbLinetypeTableRecord
  2
DIVIDE
 70
0
  3
Divide ____ . . ____ . . ____ . . ____ . . ____
 72
65
 73
6
 40
31.75
 49
12.6999999999999993
 74
0
 49
-6.3499999999999996
 74
0
 49
0.0
 74
0
 49
-6.3499999999999996
 74
0
 49
0.0
 74
0
 49
-6.3499999999999996
 74
0
  0
LTYPE
  5
3B
100
AcDbSymbolTableRecord
100
AcDbLinetypeTableRecord
  2
DIVIDE2
 70
0
  3
Divide (.5x) __..__..__..__..__..__..__..__.._
 72
65
 73
6
 40
15.875
 49
6.3499999999999996
 74
0
 49
-3.1749999999999998
 74
0
 49
0.0
 74
0
 49
-3.1749999999999998
 74
0
 49
0.0
 74
0
 49
-3.1749999999999998
 74
0
  0
LTYPE
  5
3C
100
AcDbSymbolTableRecord
100
AcDbLinetypeTableRecord
  2
DIVIDEX2
 70
0
  3
Divide (2x) ________  .  .  ________  .  .  _
 72
65
 73
6
 40
63.5
 49
25.3999999999999986
 74
0
 49
-12.6999999999999993
 74
0
 49
0.0
 74
0
 49
-12.6999999999999993
 74
0
 49
0.0
 74
0
 49
-12.6999999999999993
 74
0
  0
LTYPE
  5
3D
100
AcDbSymbolTableRecord
100
AcDbLinetypeTableRecord
  2
CENTER
 70
0
  3
Center ____ _ ____ _ ____ _ ____ _ ____ _ ____
 72
65
 73
4
 40
50.7999999999999972
 49
31.75
 74
0
 49
-6.3499999999999996
 74
0
 49
6.3499999999999996
 74
0
 49
-6.3499999999999996
 74
0
  0
LTYPE
  5
3E
100
AcDbSymbolTableRecord
100
AcDbLinetypeTableRecord
  2
CENTER2
 70
0
  3
Center (.5x) ___ _ ___ _ ___ _ ___ _ ___ _ ___
 72
65
 73
4
 40
28.5749999999999993
 49
19.0500000000000007
 74
0
 49
-3.1749999999999998
 74
0
 49
3.1749999999999998
 74
0
 49
-3.1749999999999998
 74
0
  0
LTYPE
  5
3F
100
AcDbSymbolTableRecord
100
AcDbLinetypeTableRecord
  2
CENTERX2
 70
0
  3
Center (2x) ________  __  ________  __  _____
 72
65
 73
4
 40
101.5999999999999943
 49
63.5
 74
0
 49
-12.6999999999999993
 74
0
 49
12.6999999999999993
 74
0
 49
-12.6999999999999993
 74
0
  0
LTYPE
  5
40
100
AcDbSymbolTableRecord
100
AcDbLinetypeTableRecord
  2
BORDER
 70
0
  3
Border __ __ . __ __ . __ __ . __ __ . __ __ .
 72
65
 73
6
 40
44.4500000000000028
 49
12.6999999999999993
 74
0
 49
-6.3499999999999996
 74
0
 49
12.6999999999999993
 74
0
 49
-6.3499999999999996
 74
0
 49
0.0
 74
0
 49
-6.3499999999999996
 74
0
  0
LTYPE
  5
41
100
AcDbSymbolTableRecord
100
AcDbLinetypeTableRecord
  2
BORDER2
 70
0
  3
Border (.5x) __.__.__.__.__.__.__.__.__.__.__.
 72
65
 73
6
 40
22.2250000000000014
 49
6.3499999999999996
 74
0
 49
-3.1749999999999998
 74
0
 49
6.3499999999999996
 74
0
 49
-3.1749999999999998
 74
0
 49
0.0
 74
0
 49
-3.1749999999999998
 74
0
  0
LTYPE
  5
42
100
AcDbSymbolTableRecord
100
AcDbLinetypeTableRecord
  2
BORDERX2
 70
0
  3
Border (2x) ____  ____  .  ____  ____  .  ___
 72
65
 73
6
 40
88.9000000000000057
 49
25.3999999999999986
 74
0
 49
-12.6999999999999993
 74
0
 49
25.3999999999999986
 74
0
 49
-12.6999999999999993
 74
0
 49
0.0
 74
0
 49
-12.6999999999999993
 74
0
  0
ENDTAB
  0
TABLE
  2
LAYER
  5
2
100
AcDbSymbolTable
 70
13
  0
LAYER
  5
10
100
AcDbSymbolTableRecord
100
AcDbLayerTableRecord
  2
0
 70
0
 62
7
420
0
  6
CONTINUOUS
370
25
390
F
  0
LAYER
  5
43
100
AcDbSymbolTableRecord
100
AcDbLayerTableRecord
  2
Y
 70
0
 62
7
420
0
  6
CONTINUOUS
370
0
390
F
  0
LAYER
  5
44
100
AcDbSymbolTableRecord
100
AcDbLayerTableRecord
  2
X
 70
0
 62
7
420
0
  6
CONTINUOUS
370
0
390
F
  0
LAYER
  5
45
100
AcDbSymbolTableRecord
100
AcDbLayerTableRecord
  2
Holes
 70
0
 62
3
420
65280
  6
DASHED2
370
0
390
F
  0
LAYER
  5
46
100
AcDbSymbolTableRecord
100
AcDbLayerTableRecord
  2
Drawings
 70
0
 62
4
420
65535
  6
CONTINUOUS
370
0
390
F
  0
LAYER
  5
47
100
AcDbSymbolTableRecord
100
AcDbLayerTableRecord
  2
Motor
 70
0
 62
5
420
255
  6
CONTINUOUS
370
0
390
F
  0
LAYER
  5
48
100
AcDbSymbolTableRecord
100
AcDbLayerTableRecord
  2
Rods
 70
0
 62
7
420
0
  6
CONTINUOUS
370
0
390
F
  0
LAYER
  5
49
100
AcDbSymbolTableRecord
100
AcDbLayerTableRecord
  2
Y Kebab
 70
0
 62
1
420
16711680
  6
CONTINUOUS
370
0
390
F
  0
LAYER
  5
4A
100
AcDbSymbolTableRecord
100
AcDbLayerTableRecord
  2
X Kebab
 70
1
 62
-3
420
65280
  6
CONTINUOUS
370
0
390
F
  0
LAYER
  5
4B
100
AcDbSymbolTableRecord
100
AcDbLayerTableRecord
  2
Z Kebab
 70
0
 62
7
420
0
  6
CONTINUOUS
370
0
390
F
  0
LAYER
  5
4C
100
AcDbSymbolTableRecord
100
AcDbLayerTableRecord
  2
Bearing Plate Top
 70
0
 62
7
420
0
  6
CONTINUOUS
370
0
390
F
  0
LAYER
  5
4D
100
AcDbSymbolTableRecord
100
AcDbLayerTableRecord
  2
Bearing Plate Middle
 70
0
 62
7
420
0
  6
CONTINUOUS
370
0
390
F
  0
LAYER
  5
4E
100
AcDbSymbolTableRecord
100
AcDbLayerTableRecord
  2
Bearing Plate Bottom
 70
0
 62
7
420
0
  6
CONTINUOUS
370
0
390
F
  0
ENDTAB
  0
TABLE
  2
STYLE
  5
3
100
AcDbSymbolTable
 70
1
  0
STYLE
  5
11
100
AcDbSymbolTableRecord
100
AcDbTextStyleTableRecord
  2
Standard
 70
0
 40
0.0
 41
0.75
 50
0.0
 71
0
 42
2.5
  3
txt
  4

  0
ENDTAB
  0
TABLE
  2
VIEW
  5
6
100
AcDbSymbolTable
 70
0
  0
ENDTAB
  0
TABLE
  2
UCS
  5
7
100
AcDbSymbolTable
 70
0
  0
ENDTAB
  0
TABLE
  2
APPID
  5
9
100
AcDbSymbolTable
 70
1
  0
APPID
  5
12
100
AcDbSymbolTableRecord
100
AcDbRegAppTableRecord
  2
ACAD
 70
0
  0
ENDTAB
  0
TABLE
  2
DIMSTYLE
  5
A
100
AcDbSymbolTable
 70
1
100
AcDbDimStyleTable
 71
0
  0
DIMSTYLE
105
27
100
AcDbSymbolTableRecord
100
AcDbDimStyleTableRecord
  2
Standard
 41
2.5
 42
0.625
 43
3.75
 44
1.25
 70
0
 73
0
 74
0
 77
1
 78
8
140
2.5
141
2.5
143
0.03937007874016
147
0.625
171
3
172
1
271
2
272
2
274
3
278
44
283
0
284
8
340
11
  0
ENDTAB
  0
TABLE
  2
BLOCK_RECORD
  5
1
100
AcDbSymbolTable
 70
1
  0
BLOCK_RECORD
  5
1F
100
AcDbSymbolTableRecord
100
AcDbBlockTableRecord
  2
*Model_Space
340
22
  0
BLOCK_RECORD
  5
1B
100
AcDbSymbolTableRecord
100
AcDbBlockTableRecord
  2
*Paper_Space
340
1E
  0
BLOCK_RECORD
  5
23
100
AcDbSymbolTableRecord
100
AcDbBlockTableRecord
  2
*Paper_Space0
340
26
  0
ENDTAB
  0
ENDSEC
  0
SECTION
  2
BLOCKS
  0
BLOCK
  5
20
100
AcDbEntity
  8
0
100
AcDbBlockBegin
  2
*Model_Space
 70
0
 10
0.0
 20
0.0
 30
0.0
  3
*Model_Space
  1

  0
ENDBLK
  5
21
100
AcDbEntity
  8
0
100
AcDbBlockEnd
  0
BLOCK
  5
1C
100
AcDbEntity
 67
1
  8
0
100
AcDbBlockBegin
  2
*Paper_Space
 70
0
 10
0.0
 20
0.0
 30
0.0
  3
*Paper_Space
  1

  0
ENDBLK
  5
1D
100
AcDbEntity
 67
1
  8
0
100
AcDbBlockEnd
  0
BLOCK
  5
24
100
AcDbEntity
  8
0
100
AcDbBlockBegin
  2
*Paper_Space0
 70
0
 10
0.0
 20
0.0
 30
0.0
  3
*Paper_Space0
  1

  0
ENDBLK
  5
25
100
AcDbEntity
  8
0
100
AcDbBlockEnd
  0
ENDSEC
  0
SECTION
  2
ENTITIES
  0
LINE
  5
4F
100
AcDbEntity
100
AcDbLine
  8
X
 62
256
370
-1
  6
ByLayer
 10
11.4249999999999936
 20
30.4750000000000156
 30
0.0
 11
11.4249999999999972
 21
49.5250000000000199
 31
0.0
  0
LINE
  5
50
100
AcDbEntity
100
AcDbLine
  8
X
 62
256
370
-1
  6
ByLayer
 10
68.5749999999999886
 20
30.4749999999999659
 30
0.0
 11
68.5750000000000028
 21
49.5250000000000057
 31
0.0
  0
LINE
  5
51
100
AcDbEntity
100
AcDbLine
  8
X
 62
256
370
-1
  6
ByLayer
 10
11.4249999999999972
 20
49.5250000000000199
 30
0.0
 11
68.5750000000000028
 21
49.5250000000000057
 31
0.0
  0
LINE
  5
52
100
AcDbEntity
100
AcDbLine
  8
X
 62
256
370
-1
  6
ByLayer
 10
68.5749999999999886
 20
30.4749999999999659
 30
0.0
 11
11.4249999999999936
 21
30.4750000000000156
 31
0.0
  0
CIRCLE
  5
53
100
AcDbEntity
100
AcDbCircle
  8
X
 62
256
370
-1
  6
ByLayer
 10
40.0
 20
40.0
 30
0.0
 40
4.0
  0
CIRCLE
  5
54
100
AcDbEntity
100
AcDbCircle
  8
X
 62
256
370
-1
  6
ByLayer
 10
59.0499999999999972
 20
39.9999999999999929
 30
0.0
 40
4.0
  0
LINE
  5
55
100
AcDbEntity
100
AcDbLine
  8
X
 62
256
370
-1
  6
DOT2
 10
24.9499999999999957
 20
30.4749999999999979
 30
0.0
 11
24.9499999999999993
 21
49.5250000000000057
 31
0.0
  0
LINE
  5
56
100
AcDbEntity
100
AcDbLine
  8
X
 62
256
370
-1
  6
DOT2
 10
16.9499999999999922
 20
30.4750000000000121
 30
0.0
 11
16.9499999999999957
 21
49.5250000000000057
 31
0.0
  0
LINE
  5
57
100
AcDbEntity
100
AcDbLine
  8
Y
 62
256
370
-1
  6
ByLayer
 10
49.5250000000000057
 20
11.4249999999999972
 30
0.0
 11
30.4749999999999659
 21
11.4250000000000007
 31
0.0
  0
LINE
  5
58
100
AcDbEntity
100
AcDbLine
  8
Y
 62
256
370
-1
  6
ByLayer
 10
49.5250000000000341
 20
68.5749999999999886
 30
0.0
 11
30.4749999999999943
 21
68.5749999999999886
 31
0.0
  0
LINE
  5
59
100
AcDbEntity
100
AcDbLine
  8
Y
 62
256
370
-1
  6
ByLayer
 10
30.4749999999999659
 20
11.4250000000000007
 30
0.0
 11
30.4749999999999943
 21
68.5749999999999886
 31
0.0
  0
LINE
  5
5A
100
AcDbEntity
100
AcDbLine
  8
Y
 62
256
370
-1
  6
ByLayer
 10
49.5250000000000341
 20
68.5749999999999886
 30
0.0
 11
49.5250000000000057
 21
11.4249999999999972
 31
0.0
  0
CIRCLE
  5
5B
100
AcDbEntity
100
AcDbCircle
  8
Y
 62
256
370
-1
  6
ByLayer
 10
40.0
 20
40.0
 30
0.0
 40
4.0
  0
CIRCLE
  5
5C
100
AcDbEntity
100
AcDbCircle
  8
Y
 62
256
370
-1
  6
ByLayer
 10
40.0
 20
59.0500000000000114
 30
0.0
 40
4.0
  0
LINE
  5
5D
100
AcDbEntity
100
AcDbLine
  8
Y
 62
256
370
-1
  6
DOT2
 10
49.5250000000000057
 20
24.9500000000000028
 30
0.0
 11
30.4749999999999943
 21
24.9500000000000028
 31
0.0
  0
LINE
  5
5E
100
AcDbEntity
100
AcDbLine
  8
Y
 62
256
370
-1
  6
DOT2
 10
49.5249999999999773
 20
16.9499999999999886
 30
0.0
 11
30.4749999999999943
 21
16.9499999999999886
 31
0.0
  0
LINE
  5
5F
100
AcDbEntity
100
AcDbLine
  8
Drawings
 62
256
370
-1
  6
ByLayer
 10
40.0
 20
40.0
 30
0.0
 11
75.3553390593273775
 21
75.3553390593273775
 31
0.0
  0
LINE
  5
60
100
AcDbEntity
100
AcDbLine
  8
Drawings
 62
256
370
-1
  6
ByLayer
 10
64.5250000000000341
 20
68.5749999999999744
 30
0.0
 11
64.5250000000000057
 21
11.4249999999999794
 31
0.0
  0
LINE
  5
61
100
AcDbEntity
100
AcDbLine
  8
Drawings
 62
256
370
-1
  6
ByLayer
 10
11.4250000000000025
 20
64.5250000000000199
 30
0.0
 11
68.5750000000000028
 21
64.5250000000000057
 31
0.0
  0
CIRCLE
  5
62
100
AcDbEntity
100
AcDbCircle
  8
Motor
 62
256
370
-1
  6
ByLayer
 10
64.5250000000000341
 20
64.5250000000000057
 30
0.0
 40
3.1749999999999998
  0
CIRCLE
  5
63
100
AcDbEntity
100
AcDbCircle
  8
Motor
 62
256
370
-1
  6
ByLayer
 10
64.5250000000000341
 20
64.5250000000000057
 30
0.0
 40
19.0500000000000007
  0
LINE
  5
64
100
AcDbEntity
100
AcDbLine
  8
Motor
 62
256
370
-1
  6
ByLayer
 10
31.1212756567474997
 20
64.5249999999999915
 30
0.0
 11
64.5250000000000341
 21
97.9287243432524974
 31
0.0
  0
LINE
  5
65
100
AcDbEntity
100
AcDbLine
  8
Motor
 62
256
370
-1
  6
ByLayer
 10
64.5250000000000341
 20
31.1212756567474855
 30
0.0
 11
97.9287243432525401
 21
64.5249999999999915
 31
0.0
  0
LINE
  5
66
100
AcDbEntity
100
AcDbLine
  8
Motor
 62
256
370
-1
  6
ByLayer
 10
64.5250000000000341
 20
97.9287243432524974
 30
0.0
 11
97.9287243432525401
 21
64.5249999999999915
 31
0.0
  0
LINE
  5
67
100
AcDbEntity
100
AcDbLine
  8
Motor
 62
256
370
-1
  6
ByLayer
 10
31.1212756567475282
 20
64.5250000000000057
 30
0.0
 11
64.5250000000000341
 21
31.1212756567474926
 31
0.0
  0
ARC
  5
68
100
AcDbEntity
  8
Motor
 62
256
370
-1
  6
ByLayer
100
AcDbCircle
 10
64.5250000000000341
 20
28.3564881423080877
 30
0.0
 40
3.0
100
AcDbArc
 50
225.0
 51
315.0
  0
LINE
  5
69
100
AcDbEntity
100
AcDbLine
  8
Motor
 62
256
370
-1
  6
ByLayer
 10
66.6463203435596512
 20
26.2351677987484422
 30
0.0
 11
102.8148322012515763
 21
62.4036796564403318
 31
0.0
  0
ARC
  5
6A
100
AcDbEntity
  8
Motor
 62
256
370
-1
  6
ByLayer
100
AcDbCircle
 10
100.6935118576919166
 20
64.5249999999999631
 30
0.0
 40
3.0
100
AcDbArc
 50
315.0000000000002274
 51
45.0
  0
LINE
  5
6B
100
AcDbEntity
100
AcDbLine
  8
Motor
 62
256
370
-1
  6
ByLayer
 10
66.6463203435596654
 20
102.8148322012515337
 30
0.0
 11
102.8148322012515479
 21
66.6463203435596228
 31
0.0
  0
ARC
  5
6C
100
AcDbEntity
  8
Motor
 62
256
370
-1
  6
ByLayer
100
AcDbCircle
 10
64.5250000000000199
 20
100.6935118576919024
 30
0.0
 40
3.0
100
AcDbArc
 50
45.0
 51
135.00000000000054
  0
LINE
  5
6D
100
AcDbEntity
100
AcDbLine
  8
Motor
 62
256
370
-1
  6
ByLayer
 10
26.2351677987484635
 20
66.646320343559637
 30
0.0
 11
62.403679656440346
 21
102.8148322012515195
 31
0.0
  0
LINE
  5
6E
100
AcDbEntity
100
AcDbLine
  8
Motor
 62
256
370
-1
  6
ByLayer
 10
26.2351677987484777
 20
62.4036796564403744
 30
0.0
 11
62.4036796564403602
 21
26.2351677987484493
 31
0.0
  0
ARC
  5
6F
100
AcDbEntity
  8
Motor
 62
256
370
-1
  6
ByLayer
100
AcDbCircle
 10
28.3564881423081232
 20
64.5249999999999915
 30
0.0
 40
3.0
100
AcDbArc
 50
135.0000000000002558
 51
225.0
  0
CIRCLE
  5
70
100
AcDbEntity
100
AcDbCircle
  8
Motor
 62
256
370
-1
  6
ByLayer
 10
31.1212756567474997
 20
64.5249999999999915
 30
0.0
 40
2.54
  0
CIRCLE
  5
71
100
AcDbEntity
100
AcDbCircle
  8
Motor
 62
256
370
-1
  6
ByLayer
 10
64.5250000000000341
 20
97.9287243432524974
 30
0.0
 40
2.54
  0
CIRCLE
  5
72
100
AcDbEntity
100
AcDbCircle
  8
Motor
 62
256
370
-1
  6
ByLayer
 10
97.9287243432525401
 20
64.5249999999999915
 30
0.0
 40
2.54
  0
CIRCLE
  5
73
100
AcDbEntity
100
AcDbCircle
  8
Motor
 62
256
370
-1
  6
ByLayer
 10
64.5250000000000341
 20
31.1212756567474855
 30
0.0
 40
2.54
  0
CIRCLE
  5
74
100
AcDbEntity
100
AcDbCircle
  8
Drawings
 62
256
370
-1
  6
ByLayer
 10
64.5250000000000057
 20
64.5250000000000057
 30
0.0
 40
11.0
  0
LINE
  5
75
100
AcDbEntity
100
AcDbLine
  8
Rods
 62
256
370
-1
  6
ByLayer
 10
120.0
 20
140.0
 30
0.0
 11
120.0
 21
159.0500000000000114
 31
0.0
  0
LINE
  5
76
100
AcDbEntity
100
AcDbLine
  8
Rods
 62
256
370
-1
  6
ByLayer
 10
120.0
 20
140.0
 30
0.0
 11
139.0500000000000114
 21
140.0
 31
0.0
  0
LINE
  5
77
100
AcDbEntity
100
AcDbLine
  8
Rods
 62
256
370
-1
  6
ByLayer
 10
120.0
 20
159.0500000000000114
 30
0.0
 11
139.0500000000000114
 21
159.0500000000000114
 31
0.0
  0
LINE
  5
78
100
AcDbEntity
100
AcDbLine
  8
Rods
 62
256
370
-1
  6
ByLayer
 10
139.0500000000000114
 20
140.0
 30
0.0
 11
139.0500000000000114
 21
159.0500000000000114
 31
0.0
  0
LINE
  5
79
100
AcDbEntity
100
AcDbLine
  8
Rods
 62
256
370
-1
  6
ByLayer
 10
158.1000000000000227
 20
140.0
 30
0.0
 11
158.1000000000000227
 21
159.0500000000000114
 31
0.0
  0
LINE
  5
7A
100
AcDbEntity
100
AcDbLine
  8
Rods
 62
256
370
-1
  6
ByLayer
 10
139.0500000000000114
 20
159.0500000000000114
 30
0.0
 11
158.1000000000000227
 21
159.0500000000000114
 31
0.0
  0
LINE
  5
7B
100
AcDbEntity
100
AcDbLine
  8
Rods
 62
256
370
-1
  6
ByLayer
 10
158.1000000000000227
 20
140.0
 30
0.0
 11
139.0500000000000114
 21
140.0
 31
0.0
  0
LINE
  5
7C
100
AcDbEntity
100
AcDbLine
  8
Rods
 62
256
370
-1
  6
ByLayer
 10
148.5750000000000171
 20
140.0
 30
0.0
 11
148.5750000000000171
 21
159.0500000000000114
 31
0.0
  0
LINE
  5
7D
100
AcDbEntity
100
AcDbLine
  8
Rods
 62
256
370
-1
  6
ByLayer
 10
129.5250000000000057
 20
140.0
 30
0.0
 11
129.5250000000000057
 21
159.0500000000000114
 31
0.0
  0
LINE
  5
7E
100
AcDbEntity
100
AcDbLine
  8
Rods
 62
256
370
-1
  6
ByLayer
 10
120.0
 20
149.5250000000000057
 30
0.0
 11
139.0500000000000114
 21
149.5250000000000057
 31
0.0
  0
LINE
  5
7F
100
AcDbEntity
100
AcDbLine
  8
Rods
 62
256
370
-1
  6
ByLayer
 10
139.0500000000000114
 20
149.5250000000000057
 30
0.0
 11
158.1000000000000227
 21
149.5250000000000057
 31
0.0
  0
CIRCLE
  5
80
100
AcDbEntity
100
AcDbCircle
  8
Rods
 62
256
370
-1
  6
ByLayer
 10
129.5250000000000057
 20
149.5250000000000057
 30
0.0
 40
4.0
  0
CIRCLE
  5
81
100
AcDbEntity
100
AcDbCircle
  8
Rods
 62
256
370
-1
  6
ByLayer
 10
148.5750000000000171
 20
149.5250000000000057
 30
0.0
 40
4.0
  0
LINE
  5
82
100
AcDbEntity
100
AcDbLine
  8
Rods
 62
256
370
-1
  6
ByLayer
 10
125.5250000000000057
 20
153.5250000000000057
 30
0.0
 11
133.5250000000000057
 21
153.5250000000000057
 31
0.0
  0
LINE
  5
83
100
AcDbEntity
100
AcDbLine
  8
Rods
 62
256
370
-1
  6
ByLayer
 10
133.5250000000000057
 20
145.5250000000000057
 30
0.0
 11
133.5250000000000057
 21
153.5250000000000057
 31
0.0
  0
LINE
  5
84
100
AcDbEntity
100
AcDbLine
  8
Rods
 62
256
370
-1
  6
ByLayer
 10
125.5250000000000057
 20
145.5250000000000057
 30
0.0
 11
125.5250000000000057
 21
153.5250000000000057
 31
0.0
  0
LINE
  5
85
100
AcDbEntity
100
AcDbLine
  8
Rods
 62
256
370
-1
  6
ByLayer
 10
125.5250000000000057
 20
145.5250000000000057
 30
0.0
 11
133.5250000000000057
 21
145.5250000000000057
 31
0.0
  0
LINE
  5
86
100
AcDbEntity
100
AcDbLine
  8
Rods
 62
256
370
-1
  6
ByLayer
 10
144.5750000000000171
 20
145.5250000000000057
 30
0.0
 11
152.5750000000000171
 21
145.5250000000000057
 31
0.0
  0
LINE
  5
87
100
AcDbEntity
100
AcDbLine
  8
Rods
 62
256
370
-1
  6
ByLayer
 10
152.5750000000000171
 20
145.5250000000000057
 30
0.0
 11
152.5750000000000171
 21
153.5250000000000057
 31
0.0
  0
LINE
  5
88
100
AcDbEntity
100
AcDbLine
  8
Rods
 62
256
370
-1
  6
ByLayer
 10
144.5750000000000171
 20
145.5250000000000057
 30
0.0
 11
144.5750000000000171
 21
153.5250000000000057
 31
0.0
  0
LINE
  5
89
100
AcDbEntity
100
AcDbLine
  8
Rods
 62
256
370
-1
  6
ByLayer
 10
144.5750000000000171
 20
153.5250000000000057
 30
0.0
 11
152.5750000000000171
 21
153.5250000000000057
 31
0.0
  0
LINE
  5
8A
100
AcDbEntity
100
AcDbLine
  8
Rods
 62
256
370
-1
  6
ByLayer
 10
120.0
 20
132.0
 30
0.0
 11
120.0
 21
151.0500000000000114
 31
0.0
  0
LINE
  5
8B
100
AcDbEntity
100
AcDbLine
  8
Rods
 62
256
370
-1
  6
ByLayer
 10
120.0
 20
132.0
 30
0.0
 11
139.0500000000000114
 21
132.0
 31
0.0
  0
LINE
  5
8C
100
AcDbEntity
100
AcDbLine
  8
Rods
 62
256
370
-1
  6
ByLayer
 10
120.0
 20
151.0500000000000114
 30
0.0
 11
139.0500000000000114
 21
151.0500000000000114
 31
0.0
  0
LINE
  5
8D
100
AcDbEntity
100
AcDbLine
  8
Rods
 62
256
370
-1
  6
ByLayer
 10
139.0500000000000114
 20
132.0
 30
0.0
 11
139.0500000000000114
 21
151.0500000000000114
 31
0.0
  0
LINE
  5
8E
100
AcDbEntity
100
AcDbLine
  8
Rods
 62
256
370
-1
  6
ByLayer
 10
158.1000000000000227
 20
132.0
 30
0.0
 11
158.1000000000000227
 21
151.0500000000000114
 31
0.0
  0
LINE
  5
8F
100
AcDbEntity
100
AcDbLine
  8
Rods
 62
256
370
-1
  6
ByLayer
 10
139.0500000000000114
 20
151.0500000000000114
 30
0.0
 11
158.1000000000000227
 21
151.0500000000000114
 31
0.0
  0
LINE
  5
90
100
AcDbEntity
100
AcDbLine
  8
Rods
 62
256
370
-1
  6
ByLayer
 10
158.1000000000000227
 20
132.0
 30
0.0
 11
139.0500000000000114
 21
132.0
 31
0.0
  0
LINE
  5
91
100
AcDbEntity
100
AcDbLine
  8
Rods
 62
256
370
-1
  6
ByLayer
 10
148.5750000000000171
 20
132.0
 30
0.0
 11
148.5750000000000171
 21
151.0500000000000114
 31
0.0
  0
LINE
  5
92
100
AcDbEntity
100
AcDbLine
  8
Rods
 62
256
370
-1
  6
ByLayer
 10
129.5250000000000057
 20
132.0
 30
0.0
 11
129.5250000000000057
 21
151.0500000000000114
 31
0.0
  0
LINE
  5
93
100
AcDbEntity
100
AcDbLine
  8
Rods
 62
256
370
-1
  6
ByLayer
 10
120.0
 20
141.5250000000000057
 30
0.0
 11
139.0500000000000114
 21
141.5250000000000057
 31
0.0
  0
LINE
  5
94
100
AcDbEntity
100
AcDbLine
  8
Rods
 62
256
370
-1
  6
ByLayer
 10
139.0500000000000114
 20
141.5250000000000057
 30
0.0
 11
158.1000000000000227
 21
141.5250000000000057
 31
0.0
  0
CIRCLE
  5
95
100
AcDbEntity
100
AcDbCircle
  8
Rods
 62
256
370
-1
  6
ByLayer
 10
129.5250000000000057
 20
141.5250000000000057
 30
0.0
 40
4.0
  0
CIRCLE
  5
96
100
AcDbEntity
100
AcDbCircle
  8
Rods
 62
256
370
-1
  6
ByLayer
 10
148.5750000000000171
 20
141.5250000000000057
 30
0.0
 40
4.0
  0
LINE
  5
97
100
AcDbEntity
100
AcDbLine
  8
Rods
 62
256
370
-1
  6
ByLayer
 10
125.5250000000000057
 20
145.5250000000000057
 30
0.0
 11
133.5250000000000057
 21
145.5250000000000057
 31
0.0
  0
LINE
  5
98
100
AcDbEntity
100
AcDbLine
  8
Rods
 62
256
370
-1
  6
ByLayer
 10
133.5250000000000057
 20
137.5250000000000057
 30
0.0
 11
133.5250000000000057
 21
145.5250000000000057
 31
0.0
  0
LINE
  5
99
100
AcDbEntity
100
AcDbLine
  8
Rods
 62
256
370
-1
  6
ByLayer
 10
125.5250000000000057
 20
137.5250000000000057
 30
0.0
 11
125.5250000000000057
 21
145.5250000000000057
 31
0.0
  0
LINE
  5
9A
100
AcDbEntity
100
AcDbLine
  8
Rods
 62
256
370
-1
  6
ByLayer
 10
125.5250000000000057
 20
137.5250000000000057
 30
0.0
 11
133.5250000000000057
 21
137.5250000000000057
 31
0.0
  0
LINE
  5
9B
100
AcDbEntity
100
AcDbLine
  8
Rods
 62
256
370
-1
  6
ByLayer
 10
144.5750000000000171
 20
137.5250000000000057
 30
0.0
 11
152.5750000000000171
 21
137.5250000000000057
 31
0.0
  0
LINE
  5
9C
100
AcDbEntity
100
AcDbLine
  8
Rods
 62
256
370
-1
  6
ByLayer
 10
152.5750000000000171
 20
137.5250000000000057
 30
0.0
 11
152.5750000000000171
 21
145.5250000000000057
 31
0.0
  0
LINE
  5
9D
100
AcDbEntity
100
AcDbLine
  8
Rods
 62
256
370
-1
  6
ByLayer
 10
144.5750000000000171
 20
137.5250000000000057
 30
0.0
 11
144.5750000000000171
 21
145.5250000000000057
 31
0.0
  0
LINE
  5
9E
100
AcDbEntity
100
AcDbLine
  8
Rods
 62
256
370
-1
  6
ByLayer
 10
144.5750000000000171
 20
145.5250000000000057
 30
0.0
 11
152.5750000000000171
 21
145.5250000000000057
 31
0.0
  0
DIMENSION
  5
9F
100
AcDbEntity
  8
Rods
 62
256
370
-1
  6
ByLayer
100
AcDbDimension
 10
116.0
 20
132.0
 30
0.0
 11
114.125
 21
145.5250000000000057
 31
0.0
 70
0
 71
5
 72
0
 41
1.0
 42
0.0
  1

  3
Standard
100
AcDbAlignedDimension
 13
120.0
 23
159.0500000000000114
 33
0.0
 14
120.0
 24
132.0
 34
0.0
 50
90.0
100
AcDbRotatedDimension
  0
LINE
  5
A0
100
AcDbEntity
100
AcDbLine
  8
Y Kebab
 62
256
370
-1
  6
ByLayer
 10
309.3250000000004434
 20
739.3249999999999318
 30
0.0
 11
309.3249999999998749
 21
409.3249999999999318
 31
0.0
  0
LINE
  5
A1
100
AcDbEntity
100
AcDbLine
  8
Y Kebab
 62
256
370
-1
  6
ByLayer
 10
301.3250000000007844
 20
739.3249999999999318
 30
0.0
 11
301.3249999999997613
 21
409.3249999999999318
 31
0.0
  0
LINE
  5
A2
100
AcDbEntity
100
AcDbLine
  8
Y Kebab
 62
256
370
-1
  6
ByLayer
 10
309.3249999999998749
 20
409.3249999999999318
 30
0.0
 11
301.3249999999997613
 21
409.3249999999999318
 31
0.0
  0
LINE
  5
A3
100
AcDbEntity
100
AcDbLine
  8
Y Kebab
 62
256
370
-1
  6
ByLayer
 10
309.3250000000004434
 20
739.3249999999999318
 30
0.0
 11
301.3250000000007844
 21
739.3249999999999318
 31
0.0
  0
LINE
  5
A4
100
AcDbEntity
100
AcDbLine
  8
Y Kebab
 62
256
370
-1
  6
ByLayer
 10
309.325000000000216
 20
732.8249999999999318
 30
0.0
 11
301.3250000000004434
 21
732.8249999999999318
 31
0.0
  0
LINE
  5
A5
100
AcDbEntity
100
AcDbLine
  8
Y Kebab
 62
256
370
-1
  6
ByLayer
 10
309.3250000000001023
 20
731.2249999999999091
 30
0.0
 11
301.3249999999996476
 21
731.2249999999999091
 31
0.0
  0
LINE
  5
A6
100
AcDbEntity
100
AcDbLine
  8
Y Kebab
 62
256
370
-1
  6
ByLayer
 10
309.3250000000001023
 20
723.2249999999999091
 30
0.0
 11
301.325000000000216
 21
723.2249999999999091
 31
0.0
  0
LINE
  5
A7
100
AcDbEntity
100
AcDbLine
  8
Y Kebab
 62
256
370
-1
  6
ByLayer
 10
305.3250000000005571
 20
739.3249999999999318
 30
0.0
 11
305.3249999999998749
 21
409.3249999999999318
 31
0.0
  0
LINE
  5
A8
100
AcDbEntity
100
AcDbLine
  8
Y Kebab
 62
256
370
-1
  6
ByLayer
 10
314.8500000000004206
 20
723.2249999999999091
 30
0.0
 11
314.8500000000000796
 21
704.1749999999998408
 31
0.0
  0
LINE
  5
A9
100
AcDbEntity
100
AcDbLine
  8
Y Kebab
 62
256
370
-1
  6
ByLayer
 10
257.7000000000003297
 20
723.2250000000000227
 30
0.0
 11
257.7000000000002728
 21
704.1749999999998408
 31
0.0
  0
LINE
  5
AA
100
AcDbEntity
100
AcDbLine
  8
Y Kebab
 62
256
370
-1
  6
ByLayer
 10
314.8500000000000796
 20
704.1749999999998408
 30
0.0
 11
257.7000000000002728
 21
704.1749999999998408
 31
0.0
  0
LINE
  5
AB
100
AcDbEntity
100
AcDbLine
  8
Y Kebab
 62
256
370
-1
  6
ByLayer
 10
257.7000000000003297
 20
723.2250000000000227
 30
0.0
 11
314.8500000000004206
 21
723.2249999999999091
 31
0.0
  0
CIRCLE
  5
AC
100
AcDbEntity
100
AcDbCircle
  8
Y Kebab
 62
256
370
-1
  6
ByLayer
 10
286.2750000000000341
 20
713.6999999999999318
 30
0.0
 40
4.0
  0
CIRCLE
  5
AD
100
AcDbEntity
100
AcDbCircle
  8
Y Kebab
 62
256
370
-1
  6
ByLayer
 10
267.2250000000000796
 20
713.6999999999999318
 30
0.0
 40
4.0
  0
LINE
  5
AE
100
AcDbEntity
100
AcDbLine
  8
Y Kebab
 62
256
370
-1
  6
DOT2
 10
301.3249999999997613
 20
723.2249999999999091
 30
0.0
 11
301.3249999999999886
 21
704.1749999999998408
 31
0.0
  0
LINE
  5
AF
100
AcDbEntity
100
AcDbLine
  8
Y Kebab
 62
256
370
-1
  6
DOT2
 10
309.3250000000001023
 20
723.2249999999999091
 30
0.0
 11
309.3249999999999886
 21
704.1749999999998408
 31
0.0
  0
LINE
  5
B0
100
AcDbEntity
100
AcDbLine
  8
Y Kebab
 62
256
370
-1
  6
ByLayer
 10
309.3249999999999886
 20
415.8249999999999318
 30
0.0
 11
301.325000000000216
 21
415.8249999999999318
 31
0.0
  0
LINE
  5
B1
100
AcDbEntity
100
AcDbLine
  8
Y Kebab
 62
256
370
-1
  6
ByLayer
 10
309.3249999999998749
 20
417.4249999999999545
 30
0.0
 11
301.3249999999999886
 21
417.4249999999999545
 31
0.0
  0
LINE
  5
B2
100
AcDbEntity
100
AcDbLine
  8
Y Kebab
 62
256
370
-1
  6
ByLayer
 10
309.3249999999998749
 20
425.4249999999999545
 30
0.0
 11
301.3249999999999886
 21
425.4249999999999545
 31
0.0
  0
LINE
  5
B3
100
AcDbEntity
100
AcDbLine
  8
Y Kebab
 62
256
370
-1
  6
ByLayer
 10
314.8499999999999659
 20
444.4749999999999091
 30
0.0
 11
314.8499999999998522
 21
425.4249999999999545
 31
0.0
  0
LINE
  5
B4
100
AcDbEntity
100
AcDbLine
  8
Y Kebab
 62
256
370
-1
  6
ByLayer
 10
257.6999999999998749
 20
444.4750000000000227
 30
0.0
 11
257.7000000000001023
 21
425.4249999999999545
 31
0.0
  0
LINE
  5
B5
100
AcDbEntity
100
AcDbLine
  8
Y Kebab
 62
256
370
-1
  6
ByLayer
 10
314.8499999999998522
 20
425.4249999999999545
 30
0.0
 11
257.7000000000001023
 21
425.4249999999999545
 31
0.0
  0
LINE
  5
B6
100
AcDbEntity
100
AcDbLine
  8
Y Kebab
 62
256
370
-1
  6
ByLayer
 10
257.6999999999998749
 20
444.4750000000000227
 30
0.0
 11
314.8499999999999659
 21
444.4749999999999091
 31
0.0
  0
CIRCLE
  5
B7
100
AcDbEntity
100
AcDbCircle
  8
Y Kebab
 62
256
370
-1
  6
ByLayer
 10
286.2750000000000341
 20
434.9500000000000455
 30
0.0
 40
4.0
  0
CIRCLE
  5
B8
100
AcDbEntity
100
AcDbCircle
  8
Y Kebab
 62
256
370
-1
  6
ByLayer
 10
267.2249999999998522
 20
434.9500000000000455
 30
0.0
 40
4.0
  0
LINE
  5
B9
100
AcDbEntity
100
AcDbLine
  8
Y Kebab
 62
256
370
-1
  6
DOT2
 10
301.3249999999999886
 20
444.4749999999999091
 30
0.0
 11
301.3249999999999886
 21
425.4249999999999545
 31
0.0
  0
LINE
  5
BA
100
AcDbEntity
100
AcDbLine
  8
Y Kebab
 62
256
370
-1
  6
DOT2
 10
309.3249999999999886
 20
444.4749999999999091
 30
0.0
 11
309.3249999999998749
 21
425.4249999999999545
 31
0.0
  0
LINE
  5
BB
100
AcDbEntity
100
AcDbLine
  8
Y Kebab
 62
256
370
-1
  6
ByLayer
 10
309.3250000000001023
 20
693.2249999999999091
 30
0.0
 11
301.3250000000003297
 21
693.2250000000000227
 31
0.0
  0
LINE
  5
BC
100
AcDbEntity
100
AcDbLine
  8
Y Kebab
 62
256
370
-1
  6
ByLayer
 10
309.325000000000216
 20
686.7249999999999091
 30
0.0
 11
301.3250000000004434
 21
686.7249999999999091
 31
0.0
  0
LINE
  5
BD
100
AcDbEntity
100
AcDbLine
  8
Y Kebab
 62
256
370
-1
  6
ByLayer
 10
309.3249999999999886
 20
685.1249999999998863
 30
0.0
 11
301.3250000000001023
 21
685.1249999999998863
 31
0.0
  0
LINE
  5
BE
100
AcDbEntity
100
AcDbLine
  8
Y Kebab
 62
256
370
-1
  6
ByLayer
 10
314.8499999999999659
 20
685.1249999999998863
 30
0.0
 11
314.8500000000000796
 21
666.0749999999999318
 31
0.0
  0
LINE
  5
BF
100
AcDbEntity
100
AcDbLine
  8
Y Kebab
 62
256
370
-1
  6
ByLayer
 10
257.6999999999999318
 20
685.125
 30
0.0
 11
257.6999999999999886
 21
666.0749999999999318
 31
0.0
  0
LINE
  5
C0
100
AcDbEntity
100
AcDbLine
  8
Y Kebab
 62
256
370
-1
  6
ByLayer
 10
314.8500000000000796
 20
666.0749999999999318
 30
0.0
 11
257.6999999999999886
 21
666.0749999999999318
 31
0.0
  0
LINE
  5
C1
100
AcDbEntity
100
AcDbLine
  8
Y Kebab
 62
256
370
-1
  6
ByLayer
 10
257.6999999999999318
 20
685.125
 30
0.0
 11
314.8499999999999659
 21
685.1249999999998863
 31
0.0
  0
CIRCLE
  5
C2
100
AcDbEntity
100
AcDbCircle
  8
Y Kebab
 62
256
370
-1
  6
ByLayer
 10
286.2750000000000341
 20
675.6000000000000227
 30
0.0
 40
4.0
  0
CIRCLE
  5
C3
100
AcDbEntity
100
AcDbCircle
  8
Y Kebab
 62
256
370
-1
  6
ByLayer
 10
267.225000000000307
 20
675.6000000000000227
 30
0.0
 40
4.0
  0
LINE
  5
C4
100
AcDbEntity
100
AcDbLine
  8
Y Kebab
 62
256
370
-1
  6
DOT2
 10
301.3250000000001023
 20
685.1249999999998863
 30
0.0
 11
301.3250000000003297
 21
666.0749999999999318
 31
0.0
  0
LINE
  5
C5
100
AcDbEntity
100
AcDbLine
  8
Y Kebab
 62
256
370
-1
  6
DOT2
 10
309.3249999999999886
 20
685.1249999999998863
 30
0.0
 11
309.3250000000004434
 21
666.0749999999999318
 31
0.0
  0
LINE
  5
C6
100
AcDbEntity
100
AcDbLine
  8
Y Kebab
 62
256
370
-1
  6
ByLayer
 10
309.3250000000004434
 20
666.0749999999999318
 30
0.0
 11
301.3250000000006708
 21
666.0749999999999318
 31
0.0
  0
LINE
  5
C7
100
AcDbEntity
100
AcDbLine
  8
Y Kebab
 62
256
370
-1
  6
ByLayer
 10
309.3250000000003297
 20
664.4749999999999091
 30
0.0
 11
301.325000000000216
 21
664.4749999999999091
 31
0.0
  0
LINE
  5
C8
100
AcDbEntity
100
AcDbLine
  8
Y Kebab
 62
256
370
-1
  6
ByLayer
 10
309.3250000000003297
 20
657.9749999999999091
 30
0.0
 11
301.325000000000216
 21
657.9749999999999091
 31
0.0
  0
LINE
  5
C9
100
AcDbEntity
100
AcDbLine
  8
Y Kebab
 62
256
370
-1
  6
ByLayer
 10
309.3250000000001023
 20
455.4249999999999545
 30
0.0
 11
301.3249999999999886
 21
455.4249999999999545
 31
0.0
  0
LINE
  5
CA
100
AcDbEntity
100
AcDbLine
  8
Y Kebab
 62
256
370
-1
  6
ByLayer
 10
309.3250000000001023
 20
461.9249999999999545
 30
0.0
 11
301.3250000000001023
 21
461.9249999999999545
 31
0.0
  0
LINE
  5
CB
100
AcDbEntity
100
AcDbLine
  8
Y Kebab
 62
256
370
-1
  6
ByLayer
 10
309.3250000000001023
 20
463.5249999999999773
 30
0.0
 11
301.3250000000001023
 21
463.5249999999999773
 31
0.0
  0
LINE
  5
CC
100
AcDbEntity
100
AcDbLine
  8
Y Kebab
 62
256
370
-1
  6
ByLayer
 10
314.8499999999999659
 20
482.5749999999999318
 30
0.0
 11
314.8500000000000796
 21
463.5249999999998636
 31
0.0
  0
LINE
  5
CD
100
AcDbEntity
100
AcDbLine
  8
Y Kebab
 62
256
370
-1
  6
ByLayer
 10
257.7000000000001023
 20
482.5750000000000455
 30
0.0
 11
257.7000000000001023
 21
463.5249999999999773
 31
0.0
  0
LINE
  5
CE
100
AcDbEntity
100
AcDbLine
  8
Y Kebab
 62
256
370
-1
  6
ByLayer
 10
314.8500000000000796
 20
463.5249999999998636
 30
0.0
 11
257.7000000000001023
 21
463.5249999999999773
 31
0.0
  0
LINE
  5
CF
100
AcDbEntity
100
AcDbLine
  8
Y Kebab
 62
256
370
-1
  6
ByLayer
 10
257.7000000000001023
 20
482.5750000000000455
 30
0.0
 11
314.8499999999999659
 21
482.5749999999999318
 31
0.0
  0
CIRCLE
  5
D0
100
AcDbEntity
100
AcDbCircle
  8
Y Kebab
 62
256
370
-1
  6
ByLayer
 10
286.2750000000000341
 20
473.0499999999999545
 30
0.0
 40
4.0
  0
CIRCLE
  5
D1
100
AcDbEntity
100
AcDbCircle
  8
Y Kebab
 62
256
370
-1
  6
ByLayer
 10
267.2250000000000796
 20
473.0499999999999545
 30
0.0
 40
4.0
  0
LINE
  5
D2
100
AcDbEntity
100
AcDbLine
  8
Y Kebab
 62
256
370
-1
  6
DOT2
 10
301.3250000000001023
 20
482.5749999999999318
 30
0.0
 11
301.3250000000001023
 21
463.5249999999999773
 31
0.0
  0
LINE
  5
D3
100
AcDbEntity
100
AcDbLine
  8
Y Kebab
 62
256
370
-1
  6
DOT2
 10
309.3250000000001023
 20
482.5749999999999318
 30
0.0
 11
309.3250000000001023
 21
463.5249999999998636
 31
0.0
  0
LINE
  5
D4
100
AcDbEntity
100
AcDbLine
  8
Y Kebab
 62
256
370
-1
  6
ByLayer
 10
309.3250000000001023
 20
482.5749999999999318
 30
0.0
 11
301.3250000000001023
 21
482.5749999999999318
 31
0.0
  0
LINE
  5
D5
100
AcDbEntity
100
AcDbLine
  8
Y Kebab
 62
256
370
-1
  6
ByLayer
 10
309.3249999999999886
 20
484.1749999999999545
 30
0.0
 11
301.3250000000001023
 21
484.1749999999999545
 31
0.0
  0
LINE
  5
D6
100
AcDbEntity
100
AcDbLine
  8
Y Kebab
 62
256
370
-1
  6
ByLayer
 10
309.3250000000001023
 20
490.6749999999999545
 30
0.0
 11
301.3249999999999886
 21
490.6749999999999545
 31
0.0
  0
LINE
  5
D7
100
AcDbEntity
100
AcDbLine
  8
Y Kebab
 62
256
370
-1
  6
ByLayer
 10
60.6749999999998693
 20
409.3249999999999886
 30
0.0
 11
60.6750000000004093
 21
739.3250000000000455
 31
0.0
  0
LINE
  5
D8
100
AcDbEntity
100
AcDbLine
  8
Y Kebab
 62
256
370
-1
  6
ByLayer
 10
68.6749999999998408
 20
409.3249999999999886
 30
0.0
 11
68.6750000000005798
 21
739.3250000000000455
 31
0.0
  0
LINE
  5
D9
100
AcDbEntity
100
AcDbLine
  8
Y Kebab
 62
256
370
-1
  6
ByLayer
 10
60.6750000000004093
 20
739.3250000000000455
 30
0.0
 11
68.6750000000005798
 21
739.3250000000000455
 31
0.0
  0
LINE
  5
DA
100
AcDbEntity
100
AcDbLine
  8
Y Kebab
 62
256
370
-1
  6
ByLayer
 10
60.6749999999998693
 20
409.3249999999999886
 30
0.0
 11
68.6749999999998408
 21
409.3249999999999886
 31
0.0
  0
LINE
  5
DB
100
AcDbEntity
100
AcDbLine
  8
Y Kebab
 62
256
370
-1
  6
ByLayer
 10
60.6749999999999545
 20
415.8249999999999886
 30
0.0
 11
68.6749999999997556
 21
415.8249999999999886
 31
0.0
  0
LINE
  5
DC
100
AcDbEntity
100
AcDbLine
  8
Y Kebab
 62
256
370
-1
  6
ByLayer
 10
60.6749999999998408
 20
417.4250000000000114
 30
0.0
 11
68.6750000000000682
 21
417.4250000000000114
 31
0.0
  0
LINE
  5
DD
100
AcDbEntity
100
AcDbLine
  8
Y Kebab
 62
256
370
-1
  6
ByLayer
 10
60.6749999999999829
 20
425.4250000000000114
 30
0.0
 11
68.674999999999784
 21
425.4249999999998977
 31
0.0
  0
LINE
  5
DE
100
AcDbEntity
100
AcDbLine
  8
Y Kebab
 62
256
370
-1
  6
ByLayer
 10
64.6749999999998693
 20
409.3249999999999886
 30
0.0
 11
64.6750000000006082
 21
739.3250000000000455
 31
0.0
  0
LINE
  5
DF
100
AcDbEntity
100
AcDbLine
  8
Y Kebab
 62
256
370
-1
  6
ByLayer
 10
55.1499999999999773
 20
425.4250000000000114
 30
0.0
 11
55.1500000000000057
 21
444.4749999999999659
 31
0.0
  0
LINE
  5
E0
100
AcDbEntity
100
AcDbLine
  8
Y Kebab
 62
256
370
-1
  6
ByLayer
 10
112.2999999999999829
 20
425.4249999999998977
 30
0.0
 11
112.2999999999999829
 21
444.4749999999999659
 31
0.0
  0
LINE
  5
E1
100
AcDbEntity
100
AcDbLine
  8
Y Kebab
 62
256
370
-1
  6
ByLayer
 10
55.1500000000000057
 20
444.4749999999999659
 30
0.0
 11
112.2999999999999829
 21
444.4749999999999659
 31
0.0
  0
LINE
  5
E2
100
AcDbEntity
100
AcDbLine
  8
Y Kebab
 62
256
370
-1
  6
ByLayer
 10
112.2999999999999829
 20
425.4249999999998977
 30
0.0
 11
55.1499999999999773
 21
425.4250000000000114
 31
0.0
  0
CIRCLE
  5
E3
100
AcDbEntity
100
AcDbCircle
  8
Y Kebab
 62
256
370
-1
  6
ByLayer
 10
83.7250000000000512
 20
434.9499999999999886
 30
0.0
 40
4.0
  0
CIRCLE
  5
E4
100
AcDbEntity
100
AcDbCircle
  8
Y Kebab
 62
256
370
-1
  6
ByLayer
 10
102.7750000000000057
 20
434.9499999999999886
 30
0.0
 40
4.0
  0
LINE
  5
E5
100
AcDbEntity
100
AcDbLine
  8
Y Kebab
 62
256
370
-1
  6
DOT2
 10
68.6750000000002103
 20
425.4250000000000114
 30
0.0
 11
68.6750000000000682
 21
444.4749999999999659
 31
0.0
  0
LINE
  5
E6
100
AcDbEntity
100
AcDbLine
  8
Y Kebab
 62
256
370
-1
  6
DOT2
 10
60.6749999999999829
 20
425.4250000000000114
 30
0.0
 11
60.6750000000000966
 21
444.4749999999999659
 31
0.0
  0
LINE
  5
E7
100
AcDbEntity
100
AcDbLine
  8
Y Kebab
 62
256
370
-1
  6
ByLayer
 10
60.675000000000523
 20
732.8250000000000455
 30
0.0
 11
68.6749999999998124
 21
732.8250000000000455
 31
0.0
  0
LINE
  5
E8
100
AcDbEntity
100
AcDbLine
  8
Y Kebab
 62
256
370
-1
  6
ByLayer
 10
60.6750000000001535
 20
731.2249999999999091
 30
0.0
 11
68.6750000000005798
 21
731.2249999999999091
 31
0.0
  0
LINE
  5
E9
100
AcDbEntity
100
AcDbLine
  8
Y Kebab
 62
256
370
-1
  6
ByLayer
 10
60.6750000000000398
 20
723.2249999999999091
 30
0.0
 11
68.6749999999999829
 21
723.2249999999999091
 31
0.0
  0
LINE
  5
EA
100
AcDbEntity
100
AcDbLine
  8
Y Kebab
 62
256
370
-1
  6
ByLayer
 10
55.1500000000002899
 20
704.1749999999999545
 30
0.0
 11
55.1500000000000909
 21
723.2249999999999091
 31
0.0
  0
LINE
  5
EB
100
AcDbEntity
100
AcDbLine
  8
Y Kebab
 62
256
370
-1
  6
ByLayer
 10
112.3000000000000398
 20
704.1749999999999545
 30
0.0
 11
112.3000000000000398
 21
723.2249999999999091
 31
0.0
  0
LINE
  5
EC
100
AcDbEntity
100
AcDbLine
  8
Y Kebab
 62
256
370
-1
  6
ByLayer
 10
55.1500000000000909
 20
723.2249999999999091
 30
0.0
 11
112.3000000000000398
 21
723.2249999999999091
 31
0.0
  0
LINE
  5
ED
100
AcDbEntity
100
AcDbLine
  8
Y Kebab
 62
256
370
-1
  6
ByLayer
 10
112.3000000000000398
 20
704.1749999999999545
 30
0.0
 11
55.1500000000002899
 21
704.1749999999999545
 31
0.0
  0
CIRCLE
  5
EE
100
AcDbEntity
100
AcDbCircle
  8
Y Kebab
 62
256
370
-1
  6
ByLayer
 10
83.7250000000000654
 20
713.6999999999998181
 30
0.0
 40
4.0
  0
CIRCLE
  5
EF
100
AcDbEntity
100
AcDbCircle
  8
Y Kebab
 62
256
370
-1
  6
ByLayer
 10
102.7750000000002757
 20
713.6999999999998181
 30
0.0
 40
4.0
  0
LINE
  5
F0
100
AcDbEntity
100
AcDbLine
  8
Y Kebab
 62
256
370
-1
  6
DOT2
 10
68.6750000000000398
 20
704.1749999999999545
 30
0.0
 11
68.6749999999999829
 21
723.2249999999999091
 31
0.0
  0
LINE
  5
F1
100
AcDbEntity
100
AcDbLine
  8
Y Kebab
 62
256
370
-1
  6
DOT2
 10
60.6750000000002672
 20
704.1749999999999545
 30
0.0
 11
60.6750000000000398
 21
723.2249999999999091
 31
0.0
  0
LINE
  5
F2
100
AcDbEntity
100
AcDbLine
  8
Y Kebab
 62
256
370
-1
  6
ByLayer
 10
60.6749999999999829
 20
455.4249999999998977
 30
0.0
 11
68.6749999999998693
 21
455.4249999999998977
 31
0.0
  0
LINE
  5
F3
100
AcDbEntity
100
AcDbLine
  8
Y Kebab
 62
256
370
-1
  6
ByLayer
 10
60.6749999999999829
 20
461.9249999999998977
 30
0.0
 11
68.6749999999998693
 21
461.9249999999998977
 31
0.0
  0
LINE
  5
F4
100
AcDbEntity
100
AcDbLine
  8
Y Kebab
 62
256
370
-1
  6
ByLayer
 10
60.6749999999999829
 20
463.5249999999999204
 30
0.0
 11
68.6749999999998693
 21
463.5249999999999204
 31
0.0
  0
LINE
  5
F5
100
AcDbEntity
100
AcDbLine
  8
Y Kebab
 62
256
370
-1
  6
ByLayer
 10
55.1500000000000057
 20
463.5249999999999204
 30
0.0
 11
55.1500000000001194
 21
482.5749999999999886
 31
0.0
  0
LINE
  5
F6
100
AcDbEntity
100
AcDbLine
  8
Y Kebab
 62
256
370
-1
  6
ByLayer
 10
112.3000000000000966
 20
463.5249999999998067
 30
0.0
 11
112.2999999999999829
 21
482.5749999999999886
 31
0.0
  0
LINE
  5
F7
100
AcDbEntity
100
AcDbLine
  8
Y Kebab
 62
256
370
-1
  6
ByLayer
 10
55.1500000000001194
 20
482.5749999999999886
 30
0.0
 11
112.2999999999999829
 21
482.5749999999999886
 31
0.0
  0
LINE
  5
F8
100
AcDbEntity
100
AcDbLine
  8
Y Kebab
 62
256
370
-1
  6
ByLayer
 10
112.3000000000000966
 20
463.5249999999998067
 30
0.0
 11
55.1500000000000057
 21
463.5249999999999204
 31
0.0
  0
CIRCLE
  5
F9
100
AcDbEntity
100
AcDbCircle
  8
Y Kebab
 62
256
370
-1
  6
ByLayer
 10
83.7250000000000512
 20
473.0499999999998977
 30
0.0
 40
4.0
  0
CIRCLE
  5
FA
100
AcDbEntity
100
AcDbCircle
  8
Y Kebab
 62
256
370
-1
  6
ByLayer
 10
102.7750000000000057
 20
473.0499999999998977
 30
0.0
 40
4.0
  0
LINE
  5
FB
100
AcDbEntity
100
AcDbLine
  8
Y Kebab
 62
256
370
-1
  6
DOT2
 10
68.6749999999998693
 20
463.5249999999999204
 30
0.0
 11
68.6749999999999829
 21
482.5749999999999886
 31
0.0
  0
LINE
  5
FC
100
AcDbEntity
100
AcDbLine
  8
Y Kebab
 62
256
370
-1
  6
DOT2
 10
60.6749999999999829
 20
463.5249999999999204
 30
0.0
 11
60.6749999999999829
 21
482.5749999999998749
 31
0.0
  0
LINE
  5
FD
100
AcDbEntity
100
AcDbLine
  8
Y Kebab
 62
256
370
-1
  6
ByLayer
 10
60.6749999999999829
 20
482.5749999999998749
 30
0.0
 11
68.6749999999998693
 21
482.5749999999999886
 31
0.0
  0
LINE
  5
FE
100
AcDbEntity
100
AcDbLine
  8
Y Kebab
 62
256
370
-1
  6
ByLayer
 10
60.6749999999999829
 20
484.1750000000000114
 30
0.0
 11
68.6749999999999829
 21
484.1750000000000114
 31
0.0
  0
LINE
  5
FF
100
AcDbEntity
100
AcDbLine
  8
Y Kebab
 62
256
370
-1
  6
ByLayer
 10
60.6749999999999829
 20
490.6749999999998977
 30
0.0
 11
68.6749999999998693
 21
490.6750000000000114
 31
0.0
  0
LINE
  5
100
100
AcDbEntity
100
AcDbLine
  8
Y Kebab
 62
256
370
-1
  6
ByLayer
 10
60.6749999999998124
 20
693.2249999999999091
 30
0.0
 11
68.6750000000002672
 21
693.2249999999999091
 31
0.0
  0
LINE
  5
101
100
AcDbEntity
100
AcDbLine
  8
Y Kebab
 62
256
370
-1
  6
ByLayer
 10
60.6749999999999829
 20
686.7249999999999091
 30
0.0
 11
68.6750000000001535
 21
686.7249999999999091
 31
0.0
  0
LINE
  5
102
100
AcDbEntity
100
AcDbLine
  8
Y Kebab
 62
256
370
-1
  6
ByLayer
 10
60.6750000000001819
 20
685.125
 30
0.0
 11
68.6750000000000966
 21
685.125
 31
0.0
  0
LINE
  5
103
100
AcDbEntity
100
AcDbLine
  8
Y Kebab
 62
256
370
-1
  6
ByLayer
 10
55.1500000000000625
 20
666.0750000000000455
 30
0.0
 11
55.1499999999999204
 21
685.125
 31
0.0
  0
LINE
  5
104
100
AcDbEntity
100
AcDbLine
  8
Y Kebab
 62
256
370
-1
  6
ByLayer
 10
112.2999999999999687
 20
666.0749999999998181
 30
0.0
 11
112.2999999999999972
 21
685.125
 31
0.0
  0
LINE
  5
105
100
AcDbEntity
100
AcDbLine
  8
Y Kebab
 62
256
370
-1
  6
ByLayer
 10
55.1499999999999204
 20
685.125
 30
0.0
 11
112.2999999999999972
 21
685.125
 31
0.0
  0
LINE
  5
106
100
AcDbEntity
100
AcDbLine
  8
Y Kebab
 62
256
370
-1
  6
ByLayer
 10
112.2999999999999687
 20
666.0749999999998181
 30
0.0
 11
55.1500000000000625
 21
666.0750000000000455
 31
0.0
  0
CIRCLE
  5
107
100
AcDbEntity
100
AcDbCircle
  8
Y Kebab
 62
256
370
-1
  6
ByLayer
 10
83.7250000000000654
 20
675.5999999999999091
 30
0.0
 40
4.0
  0
CIRCLE
  5
108
100
AcDbEntity
100
AcDbCircle
  8
Y Kebab
 62
256
370
-1
  6
ByLayer
 10
102.7749999999997641
 20
675.5999999999999091
 30
0.0
 40
4.0
  0
LINE
  5
109
100
AcDbEntity
100
AcDbLine
  8
Y Kebab
 62
256
370
-1
  6
DOT2
 10
68.6749999999998693
 20
666.0750000000000455
 30
0.0
 11
68.6750000000000966
 21
685.125
 31
0.0
  0
LINE
  5
10A
100
AcDbEntity
100
AcDbLine
  8
Y Kebab
 62
256
370
-1
  6
DOT2
 10
60.6749999999997556
 20
666.0750000000000455
 30
0.0
 11
60.6750000000001819
 21
685.125
 31
0.0
  0
LINE
  5
10B
100
AcDbEntity
100
AcDbLine
  8
Y Kebab
 62
256
370
-1
  6
ByLayer
 10
60.6749999999997556
 20
666.0750000000000455
 30
0.0
 11
68.6749999999998693
 21
666.0750000000000455
 31
0.0
  0
LINE
  5
10C
100
AcDbEntity
100
AcDbLine
  8
Y Kebab
 62
256
370
-1
  6
ByLayer
 10
60.6750000000002103
 20
664.4749999999999091
 30
0.0
 11
68.6749999999999261
 21
664.4749999999999091
 31
0.0
  0
LINE
  5
10D
100
AcDbEntity
100
AcDbLine
  8
Y Kebab
 62
256
370
-1
  6
ByLayer
 10
60.6749999999998977
 20
657.9749999999999091
 30
0.0
 11
68.6749999999998408
 21
657.9749999999999091
 31
0.0
  0
LINE
  5
10E
100
AcDbEntity
100
AcDbLine
  8
X Kebab
 62
256
370
-1
  6
ByLayer
 10
350.0
 20
449.9999999999999432
 30
0.0
 11
20.0000000000000213
 21
450.0
 31
0.0
  0
LINE
  5
10F
100
AcDbEntity
100
AcDbLine
  8
X Kebab
 62
256
370
-1
  6
ByLayer
 10
350.0
 20
457.9999999999998295
 30
0.0
 11
20.0000000000000213
 21
458.0
 31
0.0
  0
LINE
  5
110
100
AcDbEntity
100
AcDbLine
  8
X Kebab
 62
256
370
-1
  6
ByLayer
 10
20.0000000000000213
 20
450.0
 30
0.0
 11
20.0000000000000213
 21
458.0
 31
0.0
  0
LINE
  5
111
100
AcDbEntity
100
AcDbLine
  8
X Kebab
 62
256
370
-1
  6
ByLayer
 10
350.0
 20
449.9999999999999432
 30
0.0
 11
350.0
 21
457.9999999999998295
 31
0.0
  0
LINE
  5
112
100
AcDbEntity
100
AcDbLine
  8
X Kebab
 62
256
370
-1
  6
ByLayer
 10
343.5
 20
449.9999999999999432
 30
0.0
 11
343.5
 21
457.9999999999998295
 31
0.0
  0
LINE
  5
113
100
AcDbEntity
100
AcDbLine
  8
X Kebab
 62
256
370
-1
  6
ByLayer
 10
341.8999999999999773
 20
449.9999999999999432
 30
0.0
 11
341.8999999999999773
 21
457.9999999999998295
 31
0.0
  0
LINE
  5
114
100
AcDbEntity
100
AcDbLine
  8
X Kebab
 62
256
370
-1
  6
ByLayer
 10
333.8999999999999773
 20
449.9999999999999432
 30
0.0
 11
333.8999999999999773
 21
457.9999999999998295
 31
0.0
  0
LINE
  5
115
100
AcDbEntity
100
AcDbLine
  8
X Kebab
 62
256
370
-1
  6
ByLayer
 10
350.0
 20
453.9999999999998295
 30
0.0
 11
20.0000000000000213
 21
454.0
 31
0.0
  0
LINE
  5
116
100
AcDbEntity
100
AcDbLine
  8
X Kebab
 62
256
370
-1
  6
ByLayer
 10
333.8999999999999773
 20
444.4749999999999659
 30
0.0
 11
314.8499999999999659
 21
444.4749999999999659
 31
0.0
  0
LINE
  5
117
100
AcDbEntity
100
AcDbLine
  8
X Kebab
 62
256
370
-1
  6
ByLayer
 10
333.9000000000000341
 20
501.6249999999999432
 30
0.0
 11
314.8499999999999659
 21
501.6249999999999432
 31
0.0
  0
LINE
  5
118
100
AcDbEntity
100
AcDbLine
  8
X Kebab
 62
256
370
-1
  6
ByLayer
 10
314.8499999999999659
 20
444.4749999999999659
 30
0.0
 11
314.8499999999999659
 21
501.6249999999999432
 31
0.0
  0
LINE
  5
119
100
AcDbEntity
100
AcDbLine
  8
X Kebab
 62
256
370
-1
  6
ByLayer
 10
333.9000000000000341
 20
501.6249999999999432
 30
0.0
 11
333.8999999999999773
 21
444.4749999999999659
 31
0.0
  0
CIRCLE
  5
11A
100
AcDbEntity
100
AcDbCircle
  8
X Kebab
 62
256
370
-1
  6
ByLayer
 10
324.375
 20
473.0499999999999545
 30
0.0
 40
4.0
  0
CIRCLE
  5
11B
100
AcDbEntity
100
AcDbCircle
  8
X Kebab
 62
256
370
-1
  6
ByLayer
 10
324.375
 20
492.0999999999999659
 30
0.0
 40
4.0
  0
LINE
  5
11C
100
AcDbEntity
100
AcDbLine
  8
X Kebab
 62
256
370
-1
  6
DOT2
 10
333.8999999999999773
 20
457.9999999999999432
 30
0.0
 11
314.8499999999999659
 21
457.9999999999999432
 31
0.0
  0
LINE
  5
11D
100
AcDbEntity
100
AcDbLine
  8
X Kebab
 62
256
370
-1
  6
DOT2
 10
333.8999999999999773
 20
449.9999999999999432
 30
0.0
 11
314.8499999999999659
 21
449.9999999999999432
 31
0.0
  0
LINE
  5
11E
100
AcDbEntity
100
AcDbLine
  8
X Kebab
 62
256
370
-1
  6
ByLayer
 10
26.5000000000000213
 20
450.0
 30
0.0
 11
26.5000000000000213
 21
458.0
 31
0.0
  0
LINE
  5
11F
100
AcDbEntity
100
AcDbLine
  8
X Kebab
 62
256
370
-1
  6
ByLayer
 10
28.1000000000000227
 20
450.0
 30
0.0
 11
28.1000000000000227
 21
458.0
 31
0.0
  0
LINE
  5
120
100
AcDbEntity
100
AcDbLine
  8
X Kebab
 62
256
370
-1
  6
ByLayer
 10
36.1000000000000227
 20
450.0
 30
0.0
 11
36.1000000000000227
 21
458.0
 31
0.0
  0
LINE
  5
121
100
AcDbEntity
100
AcDbLine
  8
X Kebab
 62
256
370
-1
  6
ByLayer
 10
55.1500000000000341
 20
444.4750000000000227
 30
0.0
 11
36.1000000000000227
 21
444.4750000000000227
 31
0.0
  0
LINE
  5
122
100
AcDbEntity
100
AcDbLine
  8
X Kebab
 62
256
370
-1
  6
ByLayer
 10
55.1500000000000909
 20
501.625
 30
0.0
 11
36.1000000000000227
 21
501.625
 31
0.0
  0
LINE
  5
123
100
AcDbEntity
100
AcDbLine
  8
X Kebab
 62
256
370
-1
  6
ByLayer
 10
36.1000000000000227
 20
444.4750000000000227
 30
0.0
 11
36.1000000000000227
 21
501.625
 31
0.0
  0
LINE
  5
124
100
AcDbEntity
100
AcDbLine
  8
X Kebab
 62
256
370
-1
  6
ByLayer
 10
55.1500000000000909
 20
501.625
 30
0.0
 11
55.1500000000000341
 21
444.4750000000000227
 31
0.0
  0
CIRCLE
  5
125
100
AcDbEntity
100
AcDbCircle
  8
X Kebab
 62
256
370
-1
  6
ByLayer
 10
45.6250000000000568
 20
473.0500000000000114
 30
0.0
 40
4.0
  0
CIRCLE
  5
126
100
AcDbEntity
100
AcDbCircle
  8
X Kebab
 62
256
370
-1
  6
ByLayer
 10
45.6250000000000568
 20
492.1000000000000227
 30
0.0
 40
4.0
  0
LINE
  5
127
100
AcDbEntity
100
AcDbLine
  8
X Kebab
 62
256
370
-1
  6
DOT2
 10
55.1500000000000341
 20
458.0
 30
0.0
 11
36.1000000000000227
 21
458.0
 31
0.0
  0
LINE
  5
128
100
AcDbEntity
100
AcDbLine
  8
X Kebab
 62
256
370
-1
  6
DOT2
 10
55.1500000000000341
 20
450.0
 30
0.0
 11
36.1000000000000227
 21
450.0
 31
0.0
  0
LINE
  5
129
100
AcDbEntity
100
AcDbLine
  8
X Kebab
 62
256
370
-1
  6
ByLayer
 10
303.9000000000000341
 20
449.9999999999999432
 30
0.0
 11
303.9000000000000341
 21
457.9999999999998295
 31
0.0
  0
LINE
  5
12A
100
AcDbEntity
100
AcDbLine
  8
X Kebab
 62
256
370
-1
  6
ByLayer
 10
297.4000000000000341
 20
449.9999999999999432
 30
0.0
 11
297.4000000000000341
 21
457.9999999999998295
 31
0.0
  0
LINE
  5
12B
100
AcDbEntity
100
AcDbLine
  8
X Kebab
 62
256
370
-1
  6
ByLayer
 10
295.8000000000000114
 20
449.9999999999999432
 30
0.0
 11
295.8000000000000114
 21
457.9999999999998295
 31
0.0
  0
LINE
  5
12C
100
AcDbEntity
100
AcDbLine
  8
X Kebab
 62
256
370
-1
  6
ByLayer
 10
295.8000000000000114
 20
444.4749999999999659
 30
0.0
 11
276.75
 21
444.4749999999999659
 31
0.0
  0
LINE
  5
12D
100
AcDbEntity
100
AcDbLine
  8
X Kebab
 62
256
370
-1
  6
ByLayer
 10
295.8000000000000682
 20
501.6249999999999432
 30
0.0
 11
276.75
 21
501.6249999999999432
 31
0.0
  0
LINE
  5
12E
100
AcDbEntity
100
AcDbLine
  8
X Kebab
 62
256
370
-1
  6
ByLayer
 10
276.75
 20
444.4749999999999659
 30
0.0
 11
276.75
 21
501.6249999999999432
 31
0.0
  0
LINE
  5
12F
100
AcDbEntity
100
AcDbLine
  8
X Kebab
 62
256
370
-1
  6
ByLayer
 10
295.8000000000000682
 20
501.6249999999999432
 30
0.0
 11
295.8000000000000114
 21
444.4749999999999659
 31
0.0
  0
CIRCLE
  5
130
100
AcDbEntity
100
AcDbCircle
  8
X Kebab
 62
256
370
-1
  6
ByLayer
 10
286.2750000000000341
 20
473.0499999999999545
 30
0.0
 40
4.0
  0
CIRCLE
  5
131
100
AcDbEntity
100
AcDbCircle
  8
X Kebab
 62
256
370
-1
  6
ByLayer
 10
286.2750000000000341
 20
492.0999999999999659
 30
0.0
 40
4.0
  0
LINE
  5
132
100
AcDbEntity
100
AcDbLine
  8
X Kebab
 62
256
370
-1
  6
DOT2
 10
295.8000000000000114
 20
457.9999999999999432
 30
0.0
 11
276.75
 21
457.9999999999999432
 31
0.0
  0
LINE
  5
133
100
AcDbEntity
100
AcDbLine
  8
X Kebab
 62
256
370
-1
  6
DOT2
 10
295.8000000000000114
 20
449.9999999999999432
 30
0.0
 11
276.75
 21
449.9999999999999432
 31
0.0
  0
LINE
  5
134
100
AcDbEntity
100
AcDbLine
  8
X Kebab
 62
256
370
-1
  6
ByLayer
 10
276.75
 20
449.9999999999999432
 30
0.0
 11
276.75
 21
457.9999999999998295
 31
0.0
  0
LINE
  5
135
100
AcDbEntity
100
AcDbLine
  8
X Kebab
 62
256
370
-1
  6
ByLayer
 10
275.1499999999999773
 20
449.9999999999999432
 30
0.0
 11
275.1499999999999773
 21
457.9999999999998295
 31
0.0
  0
LINE
  5
136
100
AcDbEntity
100
AcDbLine
  8
X Kebab
 62
256
370
-1
  6
ByLayer
 10
268.6499999999999773
 20
449.9999999999999432
 30
0.0
 11
268.6499999999999773
 21
457.9999999999998295
 31
0.0
  0
LINE
  5
137
100
AcDbEntity
100
AcDbLine
  8
X Kebab
 62
256
370
-1
  6
ByLayer
 10
66.1000000000000227
 20
449.9999999999998863
 30
0.0
 11
66.1000000000000227
 21
457.9999999999998863
 31
0.0
  0
LINE
  5
138
100
AcDbEntity
100
AcDbLine
  8
X Kebab
 62
256
370
-1
  6
ByLayer
 10
72.6000000000000227
 20
449.9999999999998863
 30
0.0
 11
72.6000000000000227
 21
457.9999999999998863
 31
0.0
  0
LINE
  5
139
100
AcDbEntity
100
AcDbLine
  8
X Kebab
 62
256
370
-1
  6
ByLayer
 10
74.2000000000000313
 20
449.9999999999998863
 30
0.0
 11
74.2000000000000313
 21
457.9999999999998863
 31
0.0
  0
LINE
  5
13A
100
AcDbEntity
100
AcDbLine
  8
X Kebab
 62
256
370
-1
  6
ByLayer
 10
93.2500000000000284
 20
444.4749999999999091
 30
0.0
 11
74.2000000000000171
 21
444.4749999999999091
 31
0.0
  0
LINE
  5
13B
100
AcDbEntity
100
AcDbLine
  8
X Kebab
 62
256
370
-1
  6
ByLayer
 10
93.2500000000000853
 20
501.6249999999998863
 30
0.0
 11
74.2000000000000171
 21
501.6249999999998863
 31
0.0
  0
LINE
  5
13C
100
AcDbEntity
100
AcDbLine
  8
X Kebab
 62
256
370
-1
  6
ByLayer
 10
74.2000000000000171
 20
444.4749999999999091
 30
0.0
 11
74.2000000000000171
 21
501.6249999999998863
 31
0.0
  0
LINE
  5
13D
100
AcDbEntity
100
AcDbLine
  8
X Kebab
 62
256
370
-1
  6
ByLayer
 10
93.2500000000000853
 20
501.6249999999998863
 30
0.0
 11
93.2500000000000284
 21
444.4749999999999091
 31
0.0
  0
CIRCLE
  5
13E
100
AcDbEntity
100
AcDbCircle
  8
X Kebab
 62
256
370
-1
  6
ByLayer
 10
83.7250000000000512
 20
473.0499999999998977
 30
0.0
 40
4.0
  0
CIRCLE
  5
13F
100
AcDbEntity
100
AcDbCircle
  8
X Kebab
 62
256
370
-1
  6
ByLayer
 10
83.7250000000000512
 20
492.0999999999999091
 30
0.0
 40
4.0
  0
LINE
  5
140
100
AcDbEntity
100
AcDbLine
  8
X Kebab
 62
256
370
-1
  6
DOT2
 10
93.2500000000000284
 20
457.9999999999998863
 30
0.0
 11
74.2000000000000171
 21
457.9999999999998863
 31
0.0
  0
LINE
  5
141
100
AcDbEntity
100
AcDbLine
  8
X Kebab
 62
256
370
-1
  6
DOT2
 10
93.2500000000000284
 20
449.9999999999998863
 30
0.0
 11
74.2000000000000171
 21
449.9999999999998863
 31
0.0
  0
LINE
  5
142
100
AcDbEntity
100
AcDbLine
  8
X Kebab
 62
256
370
-1
  6
ByLayer
 10
93.2500000000000284
 20
449.9999999999998863
 30
0.0
 11
93.2500000000000284
 21
457.9999999999998863
 31
0.0
  0
LINE
  5
143
100
AcDbEntity
100
AcDbLine
  8
X Kebab
 62
256
370
-1
  6
ByLayer
 10
94.8500000000000227
 20
449.9999999999998863
 30
0.0
 11
94.8500000000000227
 21
457.9999999999998863
 31
0.0
  0
LINE
  5
144
100
AcDbEntity
100
AcDbLine
  8
X Kebab
 62
256
370
-1
  6
ByLayer
 10
101.3500000000000227
 20
449.9999999999998863
 30
0.0
 11
101.3500000000000227
 21
457.9999999999998863
 31
0.0
  0
LINE
  5
145
100
AcDbEntity
100
AcDbLine
  8
X Kebab
 62
256
370
-1
  6
ByLayer
 10
20.0000000000000568
 20
698.6500000000005457
 30
0.0
 11
350.0000000000000568
 21
698.6499999999998636
 31
0.0
  0
LINE
  5
146
100
AcDbEntity
100
AcDbLine
  8
X Kebab
 62
256
370
-1
  6
ByLayer
 10
20.0000000000000568
 20
690.6500000000005457
 30
0.0
 11
350.0000000000000568
 21
690.6499999999997499
 31
0.0
  0
LINE
  5
147
100
AcDbEntity
100
AcDbLine
  8
X Kebab
 62
256
370
-1
  6
ByLayer
 10
350.0000000000000568
 20
698.6499999999998636
 30
0.0
 11
350.0000000000000568
 21
690.6499999999997499
 31
0.0
  0
LINE
  5
148
100
AcDbEntity
100
AcDbLine
  8
X Kebab
 62
256
370
-1
  6
ByLayer
 10
20.0000000000000568
 20
698.6500000000005457
 30
0.0
 11
20.0000000000000568
 21
690.6500000000005457
 31
0.0
  0
LINE
  5
149
100
AcDbEntity
100
AcDbLine
  8
X Kebab
 62
256
370
-1
  6
ByLayer
 10
26.5000000000000568
 20
698.650000000000432
 30
0.0
 11
26.5000000000000568
 21
690.650000000000432
 31
0.0
  0
LINE
  5
14A
100
AcDbEntity
100
AcDbLine
  8
X Kebab
 62
256
370
-1
  6
ByLayer
 10
28.1000000000000796
 20
698.6500000000000909
 30
0.0
 11
28.1000000000000796
 21
690.6499999999998636
 31
0.0
  0
LINE
  5
14B
100
AcDbEntity
100
AcDbLine
  8
X Kebab
 62
256
370
-1
  6
ByLayer
 10
36.100000000000108
 20
698.6499999999998636
 30
0.0
 11
36.1000000000001364
 21
690.650000000000432
 31
0.0
  0
LINE
  5
14C
100
AcDbEntity
100
AcDbLine
  8
X Kebab
 62
256
370
-1
  6
ByLayer
 10
20.0000000000000568
 20
694.6500000000005457
 30
0.0
 11
350.0000000000000568
 21
694.6499999999998636
 31
0.0
  0
LINE
  5
14D
100
AcDbEntity
100
AcDbLine
  8
X Kebab
 62
256
370
-1
  6
ByLayer
 10
36.100000000000108
 20
704.1750000000001819
 30
0.0
 11
55.1500000000002046
 21
704.1750000000002956
 31
0.0
  0
LINE
  5
14E
100
AcDbEntity
100
AcDbLine
  8
X Kebab
 62
256
370
-1
  6
ByLayer
 10
36.1000000000000512
 20
647.0250000000000909
 30
0.0
 11
55.1500000000000909
 21
647.0250000000000909
 31
0.0
  0
LINE
  5
14F
100
AcDbEntity
100
AcDbLine
  8
X Kebab
 62
256
370
-1
  6
ByLayer
 10
55.1500000000002046
 20
704.1750000000002956
 30
0.0
 11
55.1500000000000909
 21
647.0250000000000909
 31
0.0
  0
LINE
  5
150
100
AcDbEntity
100
AcDbLine
  8
X Kebab
 62
256
370
-1
  6
ByLayer
 10
36.1000000000000512
 20
647.0250000000000909
 30
0.0
 11
36.100000000000108
 21
704.1750000000001819
 31
0.0
  0
CIRCLE
  5
151
100
AcDbEntity
100
AcDbCircle
  8
X Kebab
 62
256
370
-1
  6
ByLayer
 10
45.6250000000000853
 20
675.6000000000000227
 30
0.0
 40
4.0
  0
CIRCLE
  5
152
100
AcDbEntity
100
AcDbCircle
  8
X Kebab
 62
256
370
-1
  6
ByLayer
 10
45.6250000000000853
 20
656.5499999999998408
 30
0.0
 40
4.0
  0
LINE
  5
153
100
AcDbEntity
100
AcDbLine
  8
X Kebab
 62
256
370
-1
  6
DOT2
 10
36.1000000000001364
 20
690.6499999999999773
 30
0.0
 11
55.1500000000001194
 21
690.6499999999999773
 31
0.0
  0
LINE
  5
154
100
AcDbEntity
100
AcDbLine
  8
X Kebab
 62
256
370
-1
  6
DOT2
 10
36.100000000000108
 20
698.6499999999998636
 30
0.0
 11
55.1500000000001194
 21
698.6499999999999773
 31
0.0
  0
LINE
  5
155
100
AcDbEntity
100
AcDbLine
  8
X Kebab
 62
256
370
-1
  6
ByLayer
 10
343.5000000000001137
 20
698.6499999999999773
 30
0.0
 11
343.5000000000000568
 21
690.6500000000002046
 31
0.0
  0
LINE
  5
156
100
AcDbEntity
100
AcDbLine
  8
X Kebab
 62
256
370
-1
  6
ByLayer
 10
341.9000000000000909
 20
698.6499999999998636
 30
0.0
 11
341.9000000000000909
 21
690.6499999999999773
 31
0.0
  0
LINE
  5
157
100
AcDbEntity
100
AcDbLine
  8
X Kebab
 62
256
370
-1
  6
ByLayer
 10
333.9000000000000909
 20
698.6499999999998636
 30
0.0
 11
333.9000000000000909
 21
690.6499999999999773
 31
0.0
  0
LINE
  5
158
100
AcDbEntity
100
AcDbLine
  8
X Kebab
 62
256
370
-1
  6
ByLayer
 10
314.8500000000000796
 20
704.1749999999999545
 30
0.0
 11
333.9000000000000909
 21
704.1749999999998408
 31
0.0
  0
LINE
  5
159
100
AcDbEntity
100
AcDbLine
  8
X Kebab
 62
256
370
-1
  6
ByLayer
 10
314.8500000000000227
 20
647.0249999999998636
 30
0.0
 11
333.9000000000000909
 21
647.0250000000000909
 31
0.0
  0
LINE
  5
15A
100
AcDbEntity
100
AcDbLine
  8
X Kebab
 62
256
370
-1
  6
ByLayer
 10
333.9000000000000909
 20
704.1749999999998408
 30
0.0
 11
333.9000000000000909
 21
647.0250000000000909
 31
0.0
  0
LINE
  5
15B
100
AcDbEntity
100
AcDbLine
  8
X Kebab
 62
256
370
-1
  6
ByLayer
 10
314.8500000000000227
 20
647.0249999999998636
 30
0.0
 11
314.8500000000000796
 21
704.1749999999999545
 31
0.0
  0
CIRCLE
  5
15C
100
AcDbEntity
100
AcDbCircle
  8
X Kebab
 62
256
370
-1
  6
ByLayer
 10
324.375
 20
675.6000000000000227
 30
0.0
 40
4.0
  0
CIRCLE
  5
15D
100
AcDbEntity
100
AcDbCircle
  8
X Kebab
 62
256
370
-1
  6
ByLayer
 10
324.375
 20
656.5499999999998408
 30
0.0
 40
4.0
  0
LINE
  5
15E
100
AcDbEntity
100
AcDbLine
  8
X Kebab
 62
256
370
-1
  6
DOT2
 10
314.8500000000000227
 20
690.6499999999999773
 30
0.0
 11
333.9000000000000909
 21
690.6499999999999773
 31
0.0
  0
LINE
  5
15F
100
AcDbEntity
100
AcDbLine
  8
X Kebab
 62
256
370
-1
  6
DOT2
 10
314.8500000000000796
 20
698.6499999999999773
 30
0.0
 11
333.9000000000000909
 21
698.6499999999998636
 31
0.0
  0
LINE
  5
160
100
AcDbEntity
100
AcDbLine
  8
X Kebab
 62
256
370
-1
  6
ByLayer
 10
66.1000000000000796
 20
698.6500000000002046
 30
0.0
 11
66.1000000000000512
 21
690.650000000000432
 31
0.0
  0
LINE
  5
161
100
AcDbEntity
100
AcDbLine
  8
X Kebab
 62
256
370
-1
  6
ByLayer
 10
72.6000000000000512
 20
698.6500000000003183
 30
0.0
 11
72.6000000000000512
 21
690.650000000000432
 31
0.0
  0
LINE
  5
162
100
AcDbEntity
100
AcDbLine
  8
X Kebab
 62
256
370
-1
  6
ByLayer
 10
74.2000000000000739
 20
698.6499999999999773
 30
0.0
 11
74.2000000000000739
 21
690.6500000000003183
 31
0.0
  0
LINE
  5
163
100
AcDbEntity
100
AcDbLine
  8
X Kebab
 62
256
370
-1
  6
ByLayer
 10
74.2000000000001023
 20
704.1750000000004093
 30
0.0
 11
93.2500000000001137
 21
704.1750000000000682
 31
0.0
  0
LINE
  5
164
100
AcDbEntity
100
AcDbLine
  8
X Kebab
 62
256
370
-1
  6
ByLayer
 10
74.2000000000000171
 20
647.0250000000000909
 30
0.0
 11
93.2500000000000853
 21
647.0250000000000909
 31
0.0
  0
LINE
  5
165
100
AcDbEntity
100
AcDbLine
  8
X Kebab
 62
256
370
-1
  6
ByLayer
 10
93.2500000000001137
 20
704.1750000000000682
 30
0.0
 11
93.2500000000000853
 21
647.0250000000000909
 31
0.0
  0
LINE
  5
166
100
AcDbEntity
100
AcDbLine
  8
X Kebab
 62
256
370
-1
  6
ByLayer
 10
74.2000000000000171
 20
647.0250000000000909
 30
0.0
 11
74.2000000000001023
 21
704.1750000000004093
 31
0.0
  0
CIRCLE
  5
167
100
AcDbEntity
100
AcDbCircle
  8
X Kebab
 62
256
370
-1
  6
ByLayer
 10
83.7250000000000512
 20
675.6000000000000227
 30
0.0
 40
4.0
  0
CIRCLE
  5
168
100
AcDbEntity
100
AcDbCircle
  8
X Kebab
 62
256
370
-1
  6
ByLayer
 10
83.7250000000000512
 20
656.5500000000000682
 30
0.0
 40
4.0
  0
LINE
  5
169
100
AcDbEntity
100
AcDbLine
  8
X Kebab
 62
256
370
-1
  6
DOT2
 10
74.2000000000000739
 20
690.6500000000003183
 30
0.0
 11
93.2500000000000853
 21
690.6500000000000909
 31
0.0
  0
LINE
  5
16A
100
AcDbEntity
100
AcDbLine
  8
X Kebab
 62
256
370
-1
  6
DOT2
 10
74.2000000000000739
 20
698.6499999999999773
 30
0.0
 11
93.2500000000000853
 21
698.6500000000000909
 31
0.0
  0
LINE
  5
16B
100
AcDbEntity
100
AcDbLine
  8
X Kebab
 62
256
370
-1
  6
ByLayer
 10
93.2500000000000853
 20
698.6500000000000909
 30
0.0
 11
93.2500000000000853
 21
690.6500000000000909
 31
0.0
  0
LINE
  5
16C
100
AcDbEntity
100
AcDbLine
  8
X Kebab
 62
256
370
-1
  6
ByLayer
 10
94.850000000000108
 20
698.6499999999998636
 30
0.0
 11
94.850000000000108
 21
690.6499999999998636
 31
0.0
  0
LINE
  5
16D
100
AcDbEntity
100
AcDbLine
  8
X Kebab
 62
256
370
-1
  6
ByLayer
 10
101.3500000000001364
 20
698.6500000000003183
 30
0.0
 11
101.3500000000001364
 21
690.650000000000432
 31
0.0
  0
LINE
  5
16E
100
AcDbEntity
100
AcDbLine
  8
X Kebab
 62
256
370
-1
  6
ByLayer
 10
303.9000000000000909
 20
698.6500000000000909
 30
0.0
 11
303.9000000000000909
 21
690.6499999999999773
 31
0.0
  0
LINE
  5
16F
100
AcDbEntity
100
AcDbLine
  8
X Kebab
 62
256
370
-1
  6
ByLayer
 10
297.4000000000000909
 20
698.6500000000000909
 30
0.0
 11
297.4000000000000909
 21
690.6500000000000909
 31
0.0
  0
LINE
  5
170
100
AcDbEntity
100
AcDbLine
  8
X Kebab
 62
256
370
-1
  6
ByLayer
 10
295.8000000000000682
 20
698.6500000000000909
 30
0.0
 11
295.8000000000000682
 21
690.6500000000000909
 31
0.0
  0
LINE
  5
171
100
AcDbEntity
100
AcDbLine
  8
X Kebab
 62
256
370
-1
  6
ByLayer
 10
276.7500000000000568
 20
704.1749999999999545
 30
0.0
 11
295.8000000000000682
 21
704.1750000000000682
 31
0.0
  0
LINE
  5
172
100
AcDbEntity
100
AcDbLine
  8
X Kebab
 62
256
370
-1
  6
ByLayer
 10
276.75
 20
647.0250000000000909
 30
0.0
 11
295.8000000000000682
 21
647.0250000000000909
 31
0.0
  0
LINE
  5
173
100
AcDbEntity
100
AcDbLine
  8
X Kebab
 62
256
370
-1
  6
ByLayer
 10
295.8000000000000682
 20
704.1750000000000682
 30
0.0
 11
295.8000000000000682
 21
647.0250000000000909
 31
0.0
  0
LINE
  5
174
100
AcDbEntity
100
AcDbLine
  8
X Kebab
 62
256
370
-1
  6
ByLayer
 10
276.75
 20
647.0250000000000909
 30
0.0
 11
276.7500000000000568
 21
704.1749999999999545
 31
0.0
  0
CIRCLE
  5
175
100
AcDbEntity
100
AcDbCircle
  8
X Kebab
 62
256
370
-1
  6
ByLayer
 10
286.2750000000000341
 20
675.6000000000000227
 30
0.0
 40
4.0
  0
CIRCLE
  5
176
100
AcDbEntity
100
AcDbCircle
  8
X Kebab
 62
256
370
-1
  6
ByLayer
 10
286.2750000000000341
 20
656.5500000000000682
 30
0.0
 40
4.0
  0
LINE
  5
177
100
AcDbEntity
100
AcDbLine
  8
X Kebab
 62
256
370
-1
  6
DOT2
 10
276.7500000000001137
 20
690.6500000000000909
 30
0.0
 11
295.8000000000000682
 21
690.6500000000000909
 31
0.0
  0
LINE
  5
178
100
AcDbEntity
100
AcDbLine
  8
X Kebab
 62
256
370
-1
  6
DOT2
 10
276.7500000000001137
 20
698.6500000000000909
 30
0.0
 11
295.8000000000000682
 21
698.6500000000000909
 31
0.0
  0
LINE
  5
179
100
AcDbEntity
100
AcDbLine
  8
X Kebab
 62
256
370
-1
  6
ByLayer
 10
276.7500000000001137
 20
698.6500000000000909
 30
0.0
 11
276.7500000000001137
 21
690.6500000000000909
 31
0.0
  0
LINE
  5
17A
100
AcDbEntity
100
AcDbLine
  8
X Kebab
 62
256
370
-1
  6
ByLayer
 10
275.1500000000000909
 20
698.6499999999999773
 30
0.0
 11
275.1500000000000909
 21
690.6500000000000909
 31
0.0
  0
LINE
  5
17B
100
AcDbEntity
100
AcDbLine
  8
X Kebab
 62
256
370
-1
  6
ByLayer
 10
268.6500000000000909
 20
698.6500000000000909
 30
0.0
 11
268.6500000000000909
 21
690.6499999999999773
 31
0.0
  0
LINE
  5
17C
100
AcDbEntity
100
AcDbLine
  8
X Kebab
 62
256
370
-1
  6
ByLayer
 10
20.0000000000000568
 20
798.6500000000005457
 30
0.0
 11
350.0000000000000568
 21
798.6499999999998636
 31
0.0
  0
LINE
  5
17D
100
AcDbEntity
100
AcDbLine
  8
X Kebab
 62
256
370
-1
  6
ByLayer
 10
20.0000000000000568
 20
790.6500000000005457
 30
0.0
 11
350.0000000000000568
 21
790.6499999999997499
 31
0.0
  0
LINE
  5
17E
100
AcDbEntity
100
AcDbLine
  8
X Kebab
 62
256
370
-1
  6
ByLayer
 10
350.0000000000000568
 20
798.6499999999998636
 30
0.0
 11
350.0000000000000568
 21
790.6499999999997499
 31
0.0
  0
LINE
  5
17F
100
AcDbEntity
100
AcDbLine
  8
X Kebab
 62
256
370
-1
  6
ByLayer
 10
20.0000000000000568
 20
798.6500000000005457
 30
0.0
 11
20.0000000000000568
 21
790.6500000000005457
 31
0.0
  0
LINE
  5
180
100
AcDbEntity
100
AcDbLine
  8
X Kebab
 62
256
370
-1
  6
ByLayer
 10
26.5000000000000568
 20
798.650000000000432
 30
0.0
 11
26.5000000000000568
 21
790.650000000000432
 31
0.0
  0
LINE
  5
181
100
AcDbEntity
100
AcDbLine
  8
X Kebab
 62
256
370
-1
  6
ByLayer
 10
28.1000000000000796
 20
798.6500000000000909
 30
0.0
 11
28.1000000000000796
 21
790.6499999999998636
 31
0.0
  0
LINE
  5
182
100
AcDbEntity
100
AcDbLine
  8
X Kebab
 62
256
370
-1
  6
ByLayer
 10
36.100000000000108
 20
798.6499999999998636
 30
0.0
 11
36.1000000000001364
 21
790.650000000000432
 31
0.0
  0
LINE
  5
183
100
AcDbEntity
100
AcDbLine
  8
X Kebab
 62
256
370
-1
  6
ByLayer
 10
20.0000000000000568
 20
794.6500000000005457
 30
0.0
 11
350.0000000000000568
 21
794.6499999999998636
 31
0.0
  0
LINE
  5
184
100
AcDbEntity
100
AcDbLine
  8
X Kebab
 62
256
370
-1
  6
ByLayer
 10
36.100000000000108
 20
804.1750000000001819
 30
0.0
 11
55.1500000000002046
 21
804.1750000000002956
 31
0.0
  0
LINE
  5
185
100
AcDbEntity
100
AcDbLine
  8
X Kebab
 62
256
370
-1
  6
ByLayer
 10
36.1000000000000512
 20
747.0250000000000909
 30
0.0
 11
55.1500000000000909
 21
747.0250000000000909
 31
0.0
  0
LINE
  5
186
100
AcDbEntity
100
AcDbLine
  8
X Kebab
 62
256
370
-1
  6
ByLayer
 10
55.1500000000002046
 20
804.1750000000002956
 30
0.0
 11
55.1500000000000909
 21
747.0250000000000909
 31
0.0
  0
LINE
  5
187
100
AcDbEntity
100
AcDbLine
  8
X Kebab
 62
256
370
-1
  6
ByLayer
 10
36.1000000000000512
 20
747.0250000000000909
 30
0.0
 11
36.100000000000108
 21
804.1750000000001819
 31
0.0
  0
CIRCLE
  5
188
100
AcDbEntity
100
AcDbCircle
  8
X Kebab
 62
256
370
-1
  6
ByLayer
 10
45.6250000000000853
 20
775.6000000000000227
 30
0.0
 40
4.0
  0
CIRCLE
  5
189
100
AcDbEntity
100
AcDbCircle
  8
X Kebab
 62
256
370
-1
  6
ByLayer
 10
45.6250000000000853
 20
756.5499999999998408
 30
0.0
 40
4.0
  0
LINE
  5
18A
100
AcDbEntity
100
AcDbLine
  8
X Kebab
 62
256
370
-1
  6
DOT2
 10
36.1000000000001364
 20
790.6499999999999773
 30
0.0
 11
55.1500000000001194
 21
790.6499999999999773
 31
0.0
  0
LINE
  5
18B
100
AcDbEntity
100
AcDbLine
  8
X Kebab
 62
256
370
-1
  6
DOT2
 10
36.100000000000108
 20
798.6499999999998636
 30
0.0
 11
55.1500000000001194
 21
798.6499999999999773
 31
0.0
  0
LINE
  5
18C
100
AcDbEntity
100
AcDbLine
  8
X Kebab
 62
256
370
-1
  6
ByLayer
 10
343.5000000000001137
 20
798.6499999999999773
 30
0.0
 11
343.5000000000000568
 21
790.6500000000002046
 31
0.0
  0
LINE
  5
18D
100
AcDbEntity
100
AcDbLine
  8
X Kebab
 62
256
370
-1
  6
ByLayer
 10
341.9000000000000909
 20
798.6499999999998636
 30
0.0
 11
341.9000000000000909
 21
790.6499999999999773
 31
0.0
  0
LINE
  5
18E
100
AcDbEntity
100
AcDbLine
  8
X Kebab
 62
256
370
-1
  6
ByLayer
 10
333.9000000000000909
 20
798.6499999999998636
 30
0.0
 11
333.9000000000000909
 21
790.6499999999999773
 31
0.0
  0
LINE
  5
18F
100
AcDbEntity
100
AcDbLine
  8
X Kebab
 62
256
370
-1
  6
ByLayer
 10
314.8500000000000796
 20
804.1749999999999545
 30
0.0
 11
333.9000000000000909
 21
804.1749999999998408
 31
0.0
  0
LINE
  5
190
100
AcDbEntity
100
AcDbLine
  8
X Kebab
 62
256
370
-1
  6
ByLayer
 10
314.8500000000000227
 20
747.0249999999998636
 30
0.0
 11
333.9000000000000909
 21
747.0250000000000909
 31
0.0
  0
LINE
  5
191
100
AcDbEntity
100
AcDbLine
  8
X Kebab
 62
256
370
-1
  6
ByLayer
 10
333.9000000000000909
 20
804.1749999999998408
 30
0.0
 11
333.9000000000000909
 21
747.0250000000000909
 31
0.0
  0
LINE
  5
192
100
AcDbEntity
100
AcDbLine
  8
X Kebab
 62
256
370
-1
  6
ByLayer
 10
314.8500000000000227
 20
747.0249999999998636
 30
0.0
 11
314.8500000000000796
 21
804.1749999999999545
 31
0.0
  0
CIRCLE
  5
193
100
AcDbEntity
100
AcDbCircle
  8
X Kebab
 62
256
370
-1
  6
ByLayer
 10
324.375
 20
775.6000000000000227
 30
0.0
 40
4.0
  0
CIRCLE
  5
194
100
AcDbEntity
100
AcDbCircle
  8
X Kebab
 62
256
370
-1
  6
ByLayer
 10
324.375
 20
756.5499999999998408
 30
0.0
 40
4.0
  0
LINE
  5
195
100
AcDbEntity
100
AcDbLine
  8
X Kebab
 62
256
370
-1
  6
DOT2
 10
314.8500000000000227
 20
790.6499999999999773
 30
0.0
 11
333.9000000000000909
 21
790.6499999999999773
 31
0.0
  0
LINE
  5
196
100
AcDbEntity
100
AcDbLine
  8
X Kebab
 62
256
370
-1
  6
DOT2
 10
314.8500000000000796
 20
798.6499999999999773
 30
0.0
 11
333.9000000000000909
 21
798.6499999999998636
 31
0.0
  0
LINE
  5
197
100
AcDbEntity
100
AcDbLine
  8
X Kebab
 62
256
370
-1
  6
ByLayer
 10
66.1000000000000796
 20
798.6500000000002046
 30
0.0
 11
66.1000000000000512
 21
790.650000000000432
 31
0.0
  0
LINE
  5
198
100
AcDbEntity
100
AcDbLine
  8
X Kebab
 62
256
370
-1
  6
ByLayer
 10
72.6000000000000512
 20
798.6500000000003183
 30
0.0
 11
72.6000000000000512
 21
790.650000000000432
 31
0.0
  0
LINE
  5
199
100
AcDbEntity
100
AcDbLine
  8
X Kebab
 62
256
370
-1
  6
ByLayer
 10
74.2000000000000739
 20
798.6499999999999773
 30
0.0
 11
74.2000000000000739
 21
790.6500000000003183
 31
0.0
  0
LINE
  5
19A
100
AcDbEntity
100
AcDbLine
  8
X Kebab
 62
256
370
-1
  6
ByLayer
 10
74.2000000000001023
 20
804.1750000000004093
 30
0.0
 11
93.2500000000001137
 21
804.1750000000000682
 31
0.0
  0
LINE
  5
19B
100
AcDbEntity
100
AcDbLine
  8
X Kebab
 62
256
370
-1
  6
ByLayer
 10
74.2000000000000171
 20
747.0250000000000909
 30
0.0
 11
93.2500000000000853
 21
747.0250000000000909
 31
0.0
  0
LINE
  5
19C
100
AcDbEntity
100
AcDbLine
  8
X Kebab
 62
256
370
-1
  6
ByLayer
 10
93.2500000000001137
 20
804.1750000000000682
 30
0.0
 11
93.2500000000000853
 21
747.0250000000000909
 31
0.0
  0
LINE
  5
19D
100
AcDbEntity
100
AcDbLine
  8
X Kebab
 62
256
370
-1
  6
ByLayer
 10
74.2000000000000171
 20
747.0250000000000909
 30
0.0
 11
74.2000000000001023
 21
804.1750000000004093
 31
0.0
  0
CIRCLE
  5
19E
100
AcDbEntity
100
AcDbCircle
  8
X Kebab
 62
256
370
-1
  6
ByLayer
 10
83.7250000000000512
 20
775.6000000000000227
 30
0.0
 40
4.0
  0
CIRCLE
  5
19F
100
AcDbEntity
100
AcDbCircle
  8
X Kebab
 62
256
370
-1
  6
ByLayer
 10
83.7250000000000512
 20
756.5500000000000682
 30
0.0
 40
4.0
  0
LINE
  5
1A0
100
AcDbEntity
100
AcDbLine
  8
X Kebab
 62
256
370
-1
  6
DOT2
 10
74.2000000000000739
 20
790.6500000000003183
 30
0.0
 11
93.2500000000000853
 21
790.6500000000000909
 31
0.0
  0
LINE
  5
1A1
100
AcDbEntity
100
AcDbLine
  8
X Kebab
 62
256
370
-1
  6
DOT2
 10
74.2000000000000739
 20
798.6499999999999773
 30
0.0
 11
93.2500000000000853
 21
798.6500000000000909
 31
0.0
  0
LINE
  5
1A2
100
AcDbEntity
100
AcDbLine
  8
X Kebab
 62
256
370
-1
  6
ByLayer
 10
93.2500000000000853
 20
798.6500000000000909
 30
0.0
 11
93.2500000000000853
 21
790.6500000000000909
 31
0.0
  0
LINE
  5
1A3
100
AcDbEntity
100
AcDbLine
  8
X Kebab
 62
256
370
-1
  6
ByLayer
 10
94.850000000000108
 20
798.6499999999998636
 30
0.0
 11
94.850000000000108
 21
790.6499999999998636
 31
0.0
  0
LINE
  5
1A4
100
AcDbEntity
100
AcDbLine
  8
X Kebab
 62
256
370
-1
  6
ByLayer
 10
101.3500000000001364
 20
798.6500000000003183
 30
0.0
 11
101.3500000000001364
 21
790.650000000000432
 31
0.0
  0
LINE
  5
1A5
100
AcDbEntity
100
AcDbLine
  8
X Kebab
 62
256
370
-1
  6
ByLayer
 10
303.9000000000000909
 20
798.6500000000000909
 30
0.0
 11
303.9000000000000909
 21
790.6499999999999773
 31
0.0
  0
LINE
  5
1A6
100
AcDbEntity
100
AcDbLine
  8
X Kebab
 62
256
370
-1
  6
ByLayer
 10
297.4000000000000909
 20
798.6500000000000909
 30
0.0
 11
297.4000000000000909
 21
790.6500000000000909
 31
0.0
  0
LINE
  5
1A7
100
AcDbEntity
100
AcDbLine
  8
X Kebab
 62
256
370
-1
  6
ByLayer
 10
295.8000000000000682
 20
798.6500000000000909
 30
0.0
 11
295.8000000000000682
 21
790.6500000000000909
 31
0.0
  0
LINE
  5
1A8
100
AcDbEntity
100
AcDbLine
  8
X Kebab
 62
256
370
-1
  6
ByLayer
 10
276.7500000000000568
 20
804.1749999999999545
 30
0.0
 11
295.8000000000000682
 21
804.1750000000000682
 31
0.0
  0
LINE
  5
1A9
100
AcDbEntity
100
AcDbLine
  8
X Kebab
 62
256
370
-1
  6
ByLayer
 10
276.75
 20
747.0250000000000909
 30
0.0
 11
295.8000000000000682
 21
747.0250000000000909
 31
0.0
  0
LINE
  5
1AA
100
AcDbEntity
100
AcDbLine
  8
X Kebab
 62
256
370
-1
  6
ByLayer
 10
295.8000000000000682
 20
804.1750000000000682
 30
0.0
 11
295.8000000000000682
 21
747.0250000000000909
 31
0.0
  0
LINE
  5
1AB
100
AcDbEntity
100
AcDbLine
  8
X Kebab
 62
256
370
-1
  6
ByLayer
 10
276.75
 20
747.0250000000000909
 30
0.0
 11
276.7500000000000568
 21
804.1749999999999545
 31
0.0
  0
CIRCLE
  5
1AC
100
AcDbEntity
100
AcDbCircle
  8
X Kebab
 62
256
370
-1
  6
ByLayer
 10
286.2750000000000341
 20
775.6000000000000227
 30
0.0
 40
4.0
  0
CIRCLE
  5
1AD
100
AcDbEntity
100
AcDbCircle
  8
X Kebab
 62
256
370
-1
  6
ByLayer
 10
286.2750000000000341
 20
756.5500000000000682
 30
0.0
 40
4.0
  0
LINE
  5
1AE
100
AcDbEntity
100
AcDbLine
  8
X Kebab
 62
256
370
-1
  6
DOT2
 10
276.7500000000001137
 20
790.6500000000000909
 30
0.0
 11
295.8000000000000682
 21
790.6500000000000909
 31
0.0
  0
LINE
  5
1AF
100
AcDbEntity
100
AcDbLine
  8
X Kebab
 62
256
370
-1
  6
DOT2
 10
276.7500000000001137
 20
798.6500000000000909
 30
0.0
 11
295.8000000000000682
 21
798.6500000000000909
 31
0.0
  0
LINE
  5
1B0
100
AcDbEntity
100
AcDbLine
  8
X Kebab
 62
256
370
-1
  6
ByLayer
 10
276.7500000000001137
 20
798.6500000000000909
 30
0.0
 11
276.7500000000001137
 21
790.6500000000000909
 31
0.0
  0
LINE
  5
1B1
100
AcDbEntity
100
AcDbLine
  8
X Kebab
 62
256
370
-1
  6
ByLayer
 10
275.1500000000000909
 20
798.6499999999999773
 30
0.0
 11
275.1500000000000909
 21
790.6500000000000909
 31
0.0
  0
LINE
  5
1B2
100
AcDbEntity
100
AcDbLine
  8
X Kebab
 62
256
370
-1
  6
ByLayer
 10
268.6500000000000909
 20
798.6500000000000909
 30
0.0
 11
268.6500000000000909
 21
790.6499999999999773
 31
0.0
  0
LINE
  5
1B3
100
AcDbEntity
100
AcDbLine
  8
Z Kebab
 62
256
370
-1
  6
ByLayer
 10
79.7250000000000512
 20
775.6000000000000227
 30
0.0
 11
79.7250000000000654
 21
1105.5999999999999091
 31
0.0
  0
LINE
  5
1B4
100
AcDbEntity
100
AcDbLine
  8
Z Kebab
 62
256
370
-1
  6
ByLayer
 10
87.7250000000000512
 20
775.6000000000000227
 30
0.0
 11
87.7250000000000654
 21
1105.5999999999999091
 31
0.0
  0
LINE
  5
1B5
100
AcDbEntity
100
AcDbLine
  8
Z Kebab
 62
256
370
-1
  6
ByLayer
 10
282.2750000000000341
 20
775.6000000000000227
 30
0.0
 11
282.2750000000000341
 21
1105.5999999999999091
 31
0.0
  0
LINE
  5
1B6
100
AcDbEntity
100
AcDbLine
  8
Z Kebab
 62
256
370
-1
  6
ByLayer
 10
290.2750000000000341
 20
775.6000000000000227
 30
0.0
 11
290.2750000000000341
 21
1105.5999999999999091
 31
0.0
  0
LINE
  5
1B7
100
AcDbEntity
100
AcDbLine
  8
Z Kebab
 62
256
370
-1
  6
ByLayer
 10
79.7250000000000654
 20
1105.5999999999999091
 30
0.0
 11
87.7250000000000654
 21
1105.5999999999999091
 31
0.0
  0
LINE
  5
1B8
100
AcDbEntity
100
AcDbLine
  8
Z Kebab
 62
256
370
-1
  6
ByLayer
 10
282.2750000000000341
 20
1105.5999999999999091
 30
0.0
 11
290.2750000000000341
 21
1105.5999999999999091
 31
0.0
  0
LINE
  5
1B9
100
AcDbEntity
100
AcDbLine
  8
Z Kebab
 62
256
370
-1
  6
ByLayer
 10
282.2750000000000341
 20
775.6000000000000227
 30
0.0
 11
290.2750000000000341
 21
775.6000000000000227
 31
0.0
  0
LINE
  5
1BA
100
AcDbEntity
100
AcDbLine
  8
Z Kebab
 62
256
370
-1
  6
ByLayer
 10
87.7250000000000512
 20
775.6000000000000227
 30
0.0
 11
79.7250000000000512
 21
775.6000000000000227
 31
0.0
  0
LINE
  5
1BB
100
AcDbEntity
100
AcDbLine
  8
Z Kebab
 62
256
370
-1
  6
ByLayer
 10
87.7250000000000512
 20
782.1000000000000227
 30
0.0
 11
79.7250000000000512
 21
782.1000000000000227
 31
0.0
  0
LINE
  5
1BC
100
AcDbEntity
100
AcDbLine
  8
Z Kebab
 62
256
370
-1
  6
ByLayer
 10
87.7250000000000512
 20
783.7000000000000455
 30
0.0
 11
79.7250000000000512
 21
783.7000000000000455
 31
0.0
  0
LINE
  5
1BD
100
AcDbEntity
100
AcDbLine
  8
Z Kebab
 62
256
370
-1
  6
ByLayer
 10
74.2000000000000455
 20
783.7000000000000455
 30
0.0
 11
74.2000000000000455
 21
802.75
 31
0.0
  0
LINE
  5
1BE
100
AcDbEntity
100
AcDbLine
  8
Z Kebab
 62
256
370
-1
  6
ByLayer
 10
93.2500000000000568
 20
783.7000000000000455
 30
0.0
 11
74.2000000000000455
 21
783.7000000000000455
 31
0.0
  0
LINE
  5
1BF
100
AcDbEntity
100
AcDbLine
  8
Z Kebab
 62
256
370
-1
  6
ByLayer
 10
93.2500000000000568
 20
802.75
 30
0.0
 11
74.2000000000000455
 21
802.75
 31
0.0
  0
LINE
  5
1C0
100
AcDbEntity
100
AcDbLine
  8
Z Kebab
 62
256
370
-1
  6
ByLayer
 10
93.2500000000000568
 20
783.7000000000000455
 30
0.0
 11
93.2500000000000568
 21
802.75
 31
0.0
  0
LINE
  5
1C1
100
AcDbEntity
100
AcDbLine
  8
Z Kebab
 62
256
370
-1
  6
ByLayer
 10
290.2750000000000341
 20
797.2250000000000227
 30
0.0
 11
74.2000000000000171
 21
797.2250000000000227
 31
0.0
  0
LINE
  5
1C2
100
AcDbEntity
100
AcDbLine
  8
Z Kebab
 62
256
370
-1
  6
ByLayer
 10
290.2750000000000341
 20
789.2250000000000227
 30
0.0
 11
74.2000000000000171
 21
789.2250000000000227
 31
0.0
  0
LINE
  5
1C3
100
AcDbEntity
100
AcDbLine
  8
Z Kebab
 62
256
370
-1
  6
ByLayer
 10
276.75
 20
783.7000000000000455
 30
0.0
 11
276.75
 21
802.75
 31
0.0
  0
LINE
  5
1C4
100
AcDbEntity
100
AcDbLine
  8
Z Kebab
 62
256
370
-1
  6
ByLayer
 10
295.8000000000000682
 20
783.7000000000000455
 30
0.0
 11
276.75
 21
783.7000000000000455
 31
0.0
  0
LINE
  5
1C5
100
AcDbEntity
100
AcDbLine
  8
Z Kebab
 62
256
370
-1
  6
ByLayer
 10
295.8000000000000682
 20
802.75
 30
0.0
 11
276.75
 21
802.75
 31
0.0
  0
LINE
  5
1C6
100
AcDbEntity
100
AcDbLine
  8
Z Kebab
 62
256
370
-1
  6
ByLayer
 10
295.8000000000000682
 20
783.7000000000000455
 30
0.0
 11
295.8000000000000682
 21
802.75
 31
0.0
  0
LINE
  5
1C7
100
AcDbEntity
100
AcDbLine
  8
Z Kebab
 62
256
370
-1
  6
ByLayer
 10
290.2750000000000341
 20
805.2250000000000227
 30
0.0
 11
74.2000000000000171
 21
805.2250000000000227
 31
0.0
  0
LINE
  5
1C8
100
AcDbEntity
100
AcDbLine
  8
Z Kebab
 62
256
370
-1
  6
ByLayer
 10
93.2500000000000568
 20
810.75
 30
0.0
 11
74.2000000000000455
 21
810.75
 31
0.0
  0
LINE
  5
1C9
100
AcDbEntity
100
AcDbLine
  8
Z Kebab
 62
256
370
-1
  6
ByLayer
 10
93.2500000000000568
 20
791.7000000000000455
 30
0.0
 11
93.2500000000000568
 21
810.75
 31
0.0
  0
LINE
  5
1CA
100
AcDbEntity
100
AcDbLine
  8
Z Kebab
 62
256
370
-1
  6
ByLayer
 10
93.2500000000000568
 20
791.7000000000000455
 30
0.0
 11
74.2000000000000171
 21
791.7000000000000455
 31
0.0
  0
LINE
  5
1CB
100
AcDbEntity
100
AcDbLine
  8
Z Kebab
 62
256
370
-1
  6
ByLayer
 10
74.2000000000000455
 20
810.75
 30
0.0
 11
74.2000000000000455
 21
791.7000000000000455
 31
0.0
  0
LINE
  5
1CC
100
AcDbEntity
100
AcDbLine
  8
Z Kebab
 62
256
370
-1
  6
ByLayer
 10
295.8000000000000682
 20
810.75
 30
0.0
 11
276.75
 21
810.75
 31
0.0
  0
LINE
  5
1CD
100
AcDbEntity
100
AcDbLine
  8
Z Kebab
 62
256
370
-1
  6
ByLayer
 10
295.8000000000000682
 20
791.7000000000000455
 30
0.0
 11
295.8000000000000682
 21
810.75
 31
0.0
  0
LINE
  5
1CE
100
AcDbEntity
100
AcDbLine
  8
Z Kebab
 62
256
370
-1
  6
ByLayer
 10
295.8000000000000682
 20
791.7000000000000455
 30
0.0
 11
276.75
 21
791.7000000000000455
 31
0.0
  0
LINE
  5
1CF
100
AcDbEntity
100
AcDbLine
  8
Z Kebab
 62
256
370
-1
  6
ByLayer
 10
276.75
 20
810.75
 30
0.0
 11
276.75
 21
791.7000000000000455
 31
0.0
  0
LINE
  5
1D0
100
AcDbEntity
100
AcDbLine
  8
Z Kebab
 62
256
370
-1
  6
ByLayer
 10
93.2500000000000568
 20
829.7999999999999545
 30
0.0
 11
74.2000000000000455
 21
829.7999999999999545
 31
0.0
  0
LINE
  5
1D1
100
AcDbEntity
100
AcDbLine
  8
Z Kebab
 62
256
370
-1
  6
ByLayer
 10
295.8000000000000682
 20
829.7999999999999545
 30
0.0
 11
276.75
 21
829.7999999999999545
 31
0.0
  0
LINE
  5
1D2
100
AcDbEntity
100
AcDbLine
  8
Z Kebab
 62
256
370
-1
  6
ByLayer
 10
295.8000000000000682
 20
848.8499999999999091
 30
0.0
 11
276.75
 21
848.8499999999999091
 31
0.0
  0
LINE
  5
1D3
100
AcDbEntity
100
AcDbLine
  8
Z Kebab
 62
256
370
-1
  6
ByLayer
 10
93.2500000000000568
 20
848.8499999999999091
 30
0.0
 11
74.2000000000000455
 21
848.8499999999999091
 31
0.0
  0
LINE
  5
1D4
100
AcDbEntity
100
AcDbLine
  8
Z Kebab
 62
256
370
-1
  6
ByLayer
 10
74.2000000000000455
 20
848.8499999999999091
 30
0.0
 11
74.2000000000000455
 21
829.7999999999999545
 31
0.0
  0
LINE
  5
1D5
100
AcDbEntity
100
AcDbLine
  8
Z Kebab
 62
256
370
-1
  6
ByLayer
 10
74.2000000000000455
 20
829.7999999999999545
 30
0.0
 11
74.2000000000000455
 21
810.75
 31
0.0
  0
LINE
  5
1D6
100
AcDbEntity
100
AcDbLine
  8
Z Kebab
 62
256
370
-1
  6
ByLayer
 10
93.2500000000000568
 20
810.75
 30
0.0
 11
93.2500000000000568
 21
829.7999999999999545
 31
0.0
  0
LINE
  5
1D7
100
AcDbEntity
100
AcDbLine
  8
Z Kebab
 62
256
370
-1
  6
ByLayer
 10
93.2500000000000568
 20
848.8499999999999091
 30
0.0
 11
93.2500000000000568
 21
829.7999999999999545
 31
0.0
  0
LINE
  5
1D8
100
AcDbEntity
100
AcDbLine
  8
Z Kebab
 62
256
370
-1
  6
ByLayer
 10
295.8000000000000682
 20
848.8499999999999091
 30
0.0
 11
295.8000000000000682
 21
829.7999999999999545
 31
0.0
  0
LINE
  5
1D9
100
AcDbEntity
100
AcDbLine
  8
Z Kebab
 62
256
370
-1
  6
ByLayer
 10
295.8000000000000682
 20
829.7999999999999545
 30
0.0
 11
295.8000000000000682
 21
810.75
 31
0.0
  0
LINE
  5
1DA
100
AcDbEntity
100
AcDbLine
  8
Z Kebab
 62
256
370
-1
  6
ByLayer
 10
276.75
 20
810.75
 30
0.0
 11
276.75
 21
829.7999999999999545
 31
0.0
  0
LINE
  5
1DB
100
AcDbEntity
100
AcDbLine
  8
Z Kebab
 62
256
370
-1
  6
ByLayer
 10
276.75
 20
829.7999999999999545
 30
0.0
 11
276.75
 21
848.8499999999999091
 31
0.0
  0
LINE
  5
1DC
100
AcDbEntity
100
AcDbLine
  8
Z Kebab
 62
256
370
-1
  6
ByLayer
 10
55.1500000000000483
 20
848.8499999999999091
 30
0.0
 11
55.1500000000000483
 21
829.7999999999999545
 31
0.0
  0
LINE
  5
1DD
100
AcDbEntity
100
AcDbLine
  8
Z Kebab
 62
256
370
-1
  6
ByLayer
 10
314.8500000000000796
 20
848.8499999999999091
 30
0.0
 11
314.8500000000000796
 21
829.7999999999999545
 31
0.0
  0
LINE
  5
1DE
100
AcDbEntity
100
AcDbLine
  8
Z Kebab
 62
256
370
-1
  6
ByLayer
 10
112.300000000000054
 20
848.8499999999999091
 30
0.0
 11
112.300000000000054
 21
829.7999999999999545
 31
0.0
  0
LINE
  5
1DF
100
AcDbEntity
100
AcDbLine
  8
Z Kebab
 62
256
370
-1
  6
ByLayer
 10
257.6999999999999886
 20
829.7999999999999545
 30
0.0
 11
257.6999999999999886
 21
848.8499999999999091
 31
0.0
  0
LINE
  5
1E0
100
AcDbEntity
100
AcDbLine
  8
Z Kebab
 62
256
370
-1
  6
ByLayer
 10
55.1500000000000483
 20
848.8499999999999091
 30
0.0
 11
74.2000000000000455
 21
848.8499999999999091
 31
0.0
  0
LINE
  5
1E1
100
AcDbEntity
100
AcDbLine
  8
Z Kebab
 62
256
370
-1
  6
ByLayer
 10
74.2000000000000455
 20
829.7999999999999545
 30
0.0
 11
55.1500000000000483
 21
829.7999999999999545
 31
0.0
  0
LINE
  5
1E2
100
AcDbEntity
100
AcDbLine
  8
Z Kebab
 62
256
370
-1
  6
ByLayer
 10
93.2500000000000568
 20
848.8499999999999091
 30
0.0
 11
112.300000000000054
 21
848.8499999999999091
 31
0.0
  0
LINE
  5
1E3
100
AcDbEntity
100
AcDbLine
  8
Z Kebab
 62
256
370
-1
  6
ByLayer
 10
93.2500000000000568
 20
829.7999999999999545
 30
0.0
 11
112.300000000000054
 21
829.7999999999999545
 31
0.0
  0
LINE
  5
1E4
100
AcDbEntity
100
AcDbLine
  8
Z Kebab
 62
256
370
-1
  6
ByLayer
 10
257.6999999999999886
 20
848.8499999999999091
 30
0.0
 11
276.75
 21
848.8499999999999091
 31
0.0
  0
LINE
  5
1E5
100
AcDbEntity
100
AcDbLine
  8
Z Kebab
 62
256
370
-1
  6
ByLayer
 10
257.6999999999999886
 20
829.7999999999999545
 30
0.0
 11
276.75
 21
829.7999999999999545
 31
0.0
  0
LINE
  5
1E6
100
AcDbEntity
100
AcDbLine
  8
Z Kebab
 62
256
370
-1
  6
ByLayer
 10
314.8500000000000796
 20
829.7999999999999545
 30
0.0
 11
295.8000000000000682
 21
829.7999999999999545
 31
0.0
  0
LINE
  5
1E7
100
AcDbEntity
100
AcDbLine
  8
Z Kebab
 62
256
370
-1
  6
ByLayer
 10
314.8500000000000796
 20
848.8499999999999091
 30
0.0
 11
295.8000000000000682
 21
848.8499999999999091
 31
0.0
  0
LINE
  5
1E8
100
AcDbEntity
100
AcDbLine
  8
Z Kebab
 62
256
370
-1
  6
ByLayer
 10
350.0000000000000568
 20
824.2749999999999773
 30
0.0
 11
20.0000000000000568
 21
824.2749999999999773
 31
0.0
  0
LINE
  5
1E9
100
AcDbEntity
100
AcDbLine
  8
Z Kebab
 62
256
370
-1
  6
ByLayer
 10
350.0000000000000568
 20
816.2749999999999773
 30
0.0
 11
20.0000000000000568
 21
816.2749999999999773
 31
0.0
  0
LINE
  5
1EA
100
AcDbEntity
100
AcDbLine
  8
Z Kebab
 62
256
370
-1
  6
ByLayer
 10
20.0000000000000568
 20
816.2749999999999773
 30
0.0
 11
20.0000000000000568
 21
824.2749999999999773
 31
0.0
  0
LINE
  5
1EB
100
AcDbEntity
100
AcDbLine
  8
Z Kebab
 62
256
370
-1
  6
ByLayer
 10
350.0000000000000568
 20
824.2749999999999773
 30
0.0
 11
350.0000000000000568
 21
816.2749999999999773
 31
0.0
  0
CIRCLE
  5
1EC
100
AcDbEntity
100
AcDbCircle
  8
Z Kebab
 62
256
370
-1
  6
ByLayer
 10
64.6750000000000398
 20
839.3249999999999318
 30
0.0
 40
4.0
  0
CIRCLE
  5
1ED
100
AcDbEntity
100
AcDbCircle
  8
Z Kebab
 62
256
370
-1
  6
ByLayer
 10
305.3250000000001023
 20
839.3249999999999318
 30
0.0
 40
4.0
  0
LINE
  5
1EE
100
AcDbEntity
100
AcDbLine
  8
Drawings
 62
256
370
-1
  6
ByLayer
 10
83.7250000000000512
 20
775.6000000000000227
 30
0.0
 11
83.7250000000000654
 21
1105.5999999999999091
 31
0.0
  0
LINE
  5
1EF
100
AcDbEntity
100
AcDbLine
  8
Drawings
 62
256
370
-1
  6
ByLayer
 10
290.2750000000000341
 20
793.2250000000000227
 30
0.0
 11
74.2000000000000171
 21
793.2250000000000227
 31
0.0
  0
LINE
  5
1F0
100
AcDbEntity
100
AcDbLine
  8
Drawings
 62
256
370
-1
  6
ByLayer
 10
290.2750000000000341
 20
801.2250000000000227
 30
0.0
 11
74.2000000000000171
 21
801.2250000000000227
 31
0.0
  0
LINE
  5
1F1
100
AcDbEntity
100
AcDbLine
  8
Drawings
 62
256
370
-1
  6
ByLayer
 10
314.8500000000000796
 20
839.3249999999999318
 30
0.0
 11
295.8000000000000682
 21
839.3249999999999318
 31
0.0
  0
LINE
  5
1F2
100
AcDbEntity
100
AcDbLine
  8
Drawings
 62
256
370
-1
  6
ByLayer
 10
305.3250000000001023
 20
848.8499999999999091
 30
0.0
 11
305.3250000000001023
 21
829.7999999999999545
 31
0.0
  0
LINE
  5
1F3
100
AcDbEntity
100
AcDbLine
  8
Drawings
 62
256
370
-1
  6
ByLayer
 10
64.6750000000000398
 20
848.8499999999999091
 30
0.0
 11
64.6750000000000398
 21
829.7999999999999545
 31
0.0
  0
LINE
  5
1F4
100
AcDbEntity
100
AcDbLine
  8
Drawings
 62
256
370
-1
  6
ByLayer
 10
55.1500000000000483
 20
839.3249999999999318
 30
0.0
 11
74.2000000000000455
 21
839.3249999999999318
 31
0.0
  0
LINE
  5
1F5
100
AcDbEntity
100
AcDbLine
  8
Z Kebab
 62
256
370
-1
  6
ByLayer
 10
93.2500000000000568
 20
850.4499999999999318
 30
0.0
 11
74.2000000000000455
 21
850.4499999999999318
 31
0.0
  0
LINE
  5
1F6
100
AcDbEntity
100
AcDbLine
  8
Z Kebab
 62
256
370
-1
  6
ByLayer
 10
93.2500000000000568
 20
856.9499999999999318
 30
0.0
 11
74.2000000000000455
 21
856.9499999999999318
 31
0.0
  0
LINE
  5
1F7
100
AcDbEntity
100
AcDbLine
  8
Z Kebab
 62
256
370
-1
  6
ByLayer
 10
93.2500000000000568
 20
863.4499999999999318
 30
0.0
 11
74.2000000000000455
 21
863.4499999999999318
 31
0.0
  0
LINE
  5
1F8
100
AcDbEntity
100
AcDbLine
  8
Z Kebab
 62
256
370
-1
  6
ByLayer
 10
295.8000000000000682
 20
850.4499999999999318
 30
0.0
 11
276.75
 21
850.4499999999999318
 31
0.0
  0
LINE
  5
1F9
100
AcDbEntity
100
AcDbLine
  8
Z Kebab
 62
256
370
-1
  6
ByLayer
 10
295.8000000000000682
 20
856.9499999999999318
 30
0.0
 11
276.75
 21
856.9499999999999318
 31
0.0
  0
LINE
  5
1FA
100
AcDbEntity
100
AcDbLine
  8
Z Kebab
 62
256
370
-1
  6
ByLayer
 10
295.8000000000000682
 20
863.4499999999999318
 30
0.0
 11
276.75
 21
863.4499999999999318
 31
0.0
  0
LINE
  5
1FB
100
AcDbEntity
100
AcDbLine
  8
Z Kebab
 62
256
370
-1
  6
ByLayer
 10
93.2500000000000995
 20
1017.4999999999998863
 30
0.0
 11
74.2000000000000881
 21
1017.4999999999998863
 31
0.0
  0
LINE
  5
1FC
100
AcDbEntity
100
AcDbLine
  8
Z Kebab
 62
256
370
-1
  6
ByLayer
 10
295.8000000000001251
 20
1017.4999999999998863
 30
0.0
 11
276.7500000000000568
 21
1017.4999999999998863
 31
0.0
  0
LINE
  5
1FD
100
AcDbEntity
100
AcDbLine
  8
Z Kebab
 62
256
370
-1
  6
ByLayer
 10
93.2500000000000995
 20
1036.5499999999999545
 30
0.0
 11
74.2000000000000881
 21
1036.5499999999999545
 31
0.0
  0
LINE
  5
1FE
100
AcDbEntity
100
AcDbLine
  8
Z Kebab
 62
256
370
-1
  6
ByLayer
 10
295.8000000000001251
 20
1036.5499999999999545
 30
0.0
 11
276.7500000000000568
 21
1036.5499999999999545
 31
0.0
  0
LINE
  5
1FF
100
AcDbEntity
100
AcDbLine
  8
Z Kebab
 62
256
370
-1
  6
ByLayer
 10
295.8000000000001251
 20
1055.5999999999999091
 30
0.0
 11
276.7500000000000568
 21
1055.5999999999999091
 31
0.0
  0
LINE
  5
200
100
AcDbEntity
100
AcDbLine
  8
Z Kebab
 62
256
370
-1
  6
ByLayer
 10
93.2500000000000995
 20
1055.5999999999999091
 30
0.0
 11
74.2000000000000881
 21
1055.5999999999999091
 31
0.0
  0
LINE
  5
201
100
AcDbEntity
100
AcDbLine
  8
Z Kebab
 62
256
370
-1
  6
ByLayer
 10
93.2500000000000995
 20
1015.8999999999998636
 30
0.0
 11
74.2000000000000881
 21
1015.8999999999998636
 31
0.0
  0
LINE
  5
202
100
AcDbEntity
100
AcDbLine
  8
Z Kebab
 62
256
370
-1
  6
ByLayer
 10
295.8000000000001251
 20
1015.8999999999998636
 30
0.0
 11
276.7500000000000568
 21
1015.8999999999998636
 31
0.0
  0
LINE
  5
203
100
AcDbEntity
100
AcDbLine
  8
Z Kebab
 62
256
370
-1
  6
ByLayer
 10
93.2500000000000995
 20
1009.3999999999998636
 30
0.0
 11
74.2000000000000881
 21
1009.3999999999998636
 31
0.0
  0
LINE
  5
204
100
AcDbEntity
100
AcDbLine
  8
Z Kebab
 62
256
370
-1
  6
ByLayer
 10
93.2500000000000995
 20
1002.8999999999998636
 30
0.0
 11
74.2000000000000881
 21
1002.8999999999998636
 31
0.0
  0
LINE
  5
205
100
AcDbEntity
100
AcDbLine
  8
Z Kebab
 62
256
370
-1
  6
ByLayer
 10
295.8000000000001251
 20
1009.3999999999998636
 30
0.0
 11
276.7500000000000568
 21
1009.3999999999998636
 31
0.0
  0
LINE
  5
206
100
AcDbEntity
100
AcDbLine
  8
Z Kebab
 62
256
370
-1
  6
ByLayer
 10
295.8000000000001251
 20
1002.8999999999998636
 30
0.0
 11
276.7500000000000568
 21
1002.8999999999998636
 31
0.0
  0
LINE
  5
207
100
AcDbEntity
100
AcDbLine
  8
Z Kebab
 62
256
370
-1
  6
ByLayer
 10
74.2000000000000881
 20
1017.4999999999998863
 30
0.0
 11
74.2000000000000881
 21
1036.5499999999999545
 31
0.0
  0
LINE
  5
208
100
AcDbEntity
100
AcDbLine
  8
Z Kebab
 62
256
370
-1
  6
ByLayer
 10
93.2500000000000995
 20
1036.5499999999999545
 30
0.0
 11
93.2500000000000995
 21
1017.4999999999998863
 31
0.0
  0
LINE
  5
209
100
AcDbEntity
100
AcDbLine
  8
Z Kebab
 62
256
370
-1
  6
ByLayer
 10
93.2500000000000995
 20
1036.5499999999999545
 30
0.0
 11
93.2500000000000995
 21
1055.5999999999999091
 31
0.0
  0
LINE
  5
20A
100
AcDbEntity
100
AcDbLine
  8
Z Kebab
 62
256
370
-1
  6
ByLayer
 10
74.2000000000000881
 20
1055.5999999999999091
 30
0.0
 11
74.2000000000000881
 21
1036.5499999999999545
 31
0.0
  0
LINE
  5
20B
100
AcDbEntity
100
AcDbLine
  8
Z Kebab
 62
256
370
-1
  6
ByLayer
 10
276.7500000000000568
 20
1055.5999999999999091
 30
0.0
 11
276.7500000000000568
 21
1036.5499999999999545
 31
0.0
  0
LINE
  5
20C
100
AcDbEntity
100
AcDbLine
  8
Z Kebab
 62
256
370
-1
  6
ByLayer
 10
276.7500000000000568
 20
1036.5499999999999545
 30
0.0
 11
276.7500000000000568
 21
1017.4999999999998863
 31
0.0
  0
LINE
  5
20D
100
AcDbEntity
100
AcDbLine
  8
Z Kebab
 62
256
370
-1
  6
ByLayer
 10
295.8000000000001251
 20
1017.4999999999998863
 30
0.0
 11
295.8000000000001251
 21
1036.5499999999999545
 31
0.0
  0
LINE
  5
20E
100
AcDbEntity
100
AcDbLine
  8
Z Kebab
 62
256
370
-1
  6
ByLayer
 10
295.8000000000001251
 20
1036.5499999999999545
 30
0.0
 11
295.8000000000001251
 21
1055.5999999999999091
 31
0.0
  0
LINE
  5
20F
100
AcDbEntity
100
AcDbLine
  8
Z Kebab
 62
256
370
-1
  6
ByLayer
 10
55.1500000000000909
 20
1055.5999999999999091
 30
0.0
 11
55.1500000000000909
 21
1036.5499999999999545
 31
0.0
  0
LINE
  5
210
100
AcDbEntity
100
AcDbLine
  8
Z Kebab
 62
256
370
-1
  6
ByLayer
 10
112.3000000000000966
 20
1036.5499999999999545
 30
0.0
 11
112.3000000000000966
 21
1055.5999999999999091
 31
0.0
  0
LINE
  5
211
100
AcDbEntity
100
AcDbLine
  8
Z Kebab
 62
256
370
-1
  6
ByLayer
 10
257.7000000000000455
 20
1055.5999999999999091
 30
0.0
 11
257.7000000000000455
 21
1036.5499999999999545
 31
0.0
  0
LINE
  5
212
100
AcDbEntity
100
AcDbLine
  8
Z Kebab
 62
256
370
-1
  6
ByLayer
 10
314.8500000000001364
 20
1036.5499999999999545
 30
0.0
 11
314.8500000000001364
 21
1055.5999999999999091
 31
0.0
  0
LINE
  5
213
100
AcDbEntity
100
AcDbLine
  8
Z Kebab
 62
256
370
-1
  6
ByLayer
 10
55.1500000000000909
 20
1055.5999999999999091
 30
0.0
 11
74.2000000000000881
 21
1055.5999999999999091
 31
0.0
  0
LINE
  5
214
100
AcDbEntity
100
AcDbLine
  8
Z Kebab
 62
256
370
-1
  6
ByLayer
 10
55.1500000000000909
 20
1036.5499999999999545
 30
0.0
 11
74.2000000000000881
 21
1036.5499999999999545
 31
0.0
  0
LINE
  5
215
100
AcDbEntity
100
AcDbLine
  8
Z Kebab
 62
256
370
-1
  6
ByLayer
 10
93.2500000000000995
 20
1036.5499999999999545
 30
0.0
 11
112.3000000000000966
 21
1036.5499999999999545
 31
0.0
  0
LINE
  5
216
100
AcDbEntity
100
AcDbLine
  8
Z Kebab
 62
256
370
-1
  6
ByLayer
 10
112.3000000000000966
 20
1055.5999999999999091
 30
0.0
 11
93.2500000000000995
 21
1055.5999999999999091
 31
0.0
  0
LINE
  5
217
100
AcDbEntity
100
AcDbLine
  8
Z Kebab
 62
256
370
-1
  6
ByLayer
 10
257.7000000000000455
 20
1055.5999999999999091
 30
0.0
 11
276.7500000000000568
 21
1055.5999999999999091
 31
0.0
  0
LINE
  5
218
100
AcDbEntity
100
AcDbLine
  8
Z Kebab
 62
256
370
-1
  6
ByLayer
 10
276.7500000000000568
 20
1036.5499999999999545
 30
0.0
 11
257.7000000000000455
 21
1036.5499999999999545
 31
0.0
  0
LINE
  5
219
100
AcDbEntity
100
AcDbLine
  8
Z Kebab
 62
256
370
-1
  6
ByLayer
 10
314.8500000000001364
 20
1055.5999999999999091
 30
0.0
 11
295.8000000000001251
 21
1055.5999999999999091
 31
0.0
  0
LINE
  5
21A
100
AcDbEntity
100
AcDbLine
  8
Z Kebab
 62
256
370
-1
  6
ByLayer
 10
295.8000000000001251
 20
1036.5499999999999545
 30
0.0
 11
314.8500000000001364
 21
1036.5499999999999545
 31
0.0
  0
LINE
  5
21B
100
AcDbEntity
100
AcDbLine
  8
Drawings
 62
256
370
-1
  6
ByLayer
 10
55.1500000000000909
 20
1046.0749999999998181
 30
0.0
 11
74.2000000000000881
 21
1046.0749999999998181
 31
0.0
  0
LINE
  5
21C
100
AcDbEntity
100
AcDbLine
  8
Drawings
 62
256
370
-1
  6
ByLayer
 10
64.6750000000000966
 20
1055.5999999999999091
 30
0.0
 11
64.6750000000000966
 21
1036.5499999999999545
 31
0.0
  0
LINE
  5
21D
100
AcDbEntity
100
AcDbLine
  8
Drawings
 62
256
370
-1
  6
ByLayer
 10
314.8500000000001364
 20
1046.0749999999998181
 30
0.0
 11
295.8000000000001251
 21
1046.0749999999998181
 31
0.0
  0
LINE
  5
21E
100
AcDbEntity
100
AcDbLine
  8
Drawings
 62
256
370
-1
  6
ByLayer
 10
305.3250000000001592
 20
1036.5499999999999545
 30
0.0
 11
305.3250000000001592
 21
1055.5999999999999091
 31
0.0
  0
LINE
  5
21F
100
AcDbEntity
100
AcDbLine
  8
Drawings
 62
256
370
-1
  6
ByLayer
 10
93.2500000000000995
 20
1027.0250000000000909
 30
0.0
 11
74.2000000000000881
 21
1027.0250000000000909
 31
0.0
  0
LINE
  5
220
100
AcDbEntity
100
AcDbLine
  8
Z Kebab
 62
256
370
-1
  6
ByLayer
 10
350.0000000000000568
 20
1031.0249999999998636
 30
0.0
 11
20.0000000000000568
 21
1031.0249999999998636
 31
0.0
  0
LINE
  5
221
100
AcDbEntity
100
AcDbLine
  8
Z Kebab
 62
256
370
-1
  6
ByLayer
 10
350.0000000000000568
 20
1023.0249999999999773
 30
0.0
 11
20.0000000000000568
 21
1023.0249999999999773
 31
0.0
  0
LINE
  5
222
100
AcDbEntity
100
AcDbLine
  8
Z Kebab
 62
256
370
-1
  6
ByLayer
 10
20.0000000000000568
 20
1031.0249999999998636
 30
0.0
 11
20.0000000000000568
 21
1023.0249999999999773
 31
0.0
  0
LINE
  5
223
100
AcDbEntity
100
AcDbLine
  8
Z Kebab
 62
256
370
-1
  6
ByLayer
 10
350.0000000000000568
 20
1031.0249999999998636
 30
0.0
 11
350.0000000000000568
 21
1023.0249999999999773
 31
0.0
  0
CIRCLE
  5
224
100
AcDbEntity
100
AcDbCircle
  8
Z Kebab
 62
256
370
-1
  6
ByLayer
 10
64.6750000000000966
 20
1046.0749999999998181
 30
0.0
 40
4.0
  0
DIMENSION
  5
225
100
AcDbEntity
  8
Z Kebab
 62
256
370
-1
  6
ByLayer
100
AcDbDimension
 10
286.2750000000000341
 20
425.4249999999999545
 30
0.0
 11
185.0000000000000284
 21
427.2999999999999545
 31
0.0
 70
0
 71
5
 72
0
 41
1.0
 42
0.0
  1

  3
Standard
100
AcDbAlignedDimension
 13
83.7250000000000512
 23
473.0499999999998977
 33
0.0
 14
286.2750000000000341
 24
473.0499999999999545
 34
0.0
 50
0.0
100
AcDbRotatedDimension
  0
LINE
  5
226
100
AcDbEntity
100
AcDbLine
  8
Bearing Plate Top
 62
256
370
-1
  6
ByLayer
 10
30.4749999999999943
 20
68.5749999999999886
 30
0.0
 11
30.474999999999973
 21
30.4749999999999979
 31
0.0
  0
LINE
  5
227
100
AcDbEntity
100
AcDbLine
  8
Bearing Plate Top
 62
256
370
-1
  6
ByLayer
 10
30.474999999999973
 20
30.4749999999999979
 30
0.0
 11
68.5749999999999886
 21
30.4749999999999659
 31
0.0
  0
LINE
  5
228
100
AcDbEntity
100
AcDbLine
  8
Bearing Plate Top
 62
256
370
-1
  6
ByLayer
 10
53.7148952173318719
 20
82.5289338642346593
 30
0.0
 11
30.4749999999999943
 21
68.5749999999999886
 31
0.0
  0
LINE
  5
229
100
AcDbEntity
100
AcDbLine
  8
Bearing Plate Top
 62
256
370
-1
  6
ByLayer
 10
82.5289338642346735
 20
53.7148952173318861
 30
0.0
 11
68.5749999999999886
 21
30.4749999999999659
 31
0.0
  0
ARC
  5
22A
100
AcDbEntity
  8
Bearing Plate Top
 62
256
370
-1
  6
ByLayer
100
AcDbCircle
 10
64.5250000000000057
 20
64.5250000000000057
 30
0.0
 40
21.0
100
AcDbArc
 50
329.0181248418148812
 51
120.9818751581851615
  0
CIRCLE
  5
22B
100
AcDbEntity
100
AcDbCircle
  8
Bearing Plate Top
 62
256
370
-1
  6
ByLayer
 10
64.5250000000000057
 20
64.5250000000000057
 30
0.0
 40
10.9000000000000004
  0
CIRCLE
  5
22C
100
AcDbEntity
100
AcDbCircle
  8
Bearing Plate Top
 62
256
370
-1
  6
ByLayer
 10
40.0
 20
59.0500000000000114
 30
0.0
 40
4.0
  0
CIRCLE
  5
22D
100
AcDbEntity
100
AcDbCircle
  8
Bearing Plate Top
 62
256
370
-1
  6
ByLayer
 10
40.0
 20
40.0
 30
0.0
 40
4.0
  0
CIRCLE
  5
22E
100
AcDbEntity
100
AcDbCircle
  8
Bearing Plate Top
 62
256
370
-1
  6
ByLayer
 10
59.0499999999999972
 20
39.9999999999999929
 30
0.0
 40
4.0
  0
LINE
  5
22F
100
AcDbEntity
100
AcDbLine
  8
Bearing Plate Middle
 62
256
370
-1
  6
ByLayer
 10
30.4750000000000085
 20
68.5749999999999886
 30
0.0
 11
30.4749999999999801
 21
30.4749999999999943
 31
0.0
  0
LINE
  5
230
100
AcDbEntity
100
AcDbLine
  8
Bearing Plate Middle
 62
256
370
-1
  6
ByLayer
 10
30.4749999999999801
 20
30.4749999999999943
 30
0.0
 11
68.5749999999999886
 21
30.4749999999999588
 31
0.0
  0
LINE
  5
231
100
AcDbEntity
100
AcDbLine
  8
Bearing Plate Middle
 62
256
370
-1
  6
ByLayer
 10
53.7148952173318719
 20
82.5289338642346593
 30
0.0
 11
30.4750000000000085
 21
68.5749999999999886
 31
0.0
  0
LINE
  5
232
100
AcDbEntity
100
AcDbLine
  8
Bearing Plate Middle
 62
256
370
-1
  6
ByLayer
 10
82.5289338642346877
 20
53.7148952173318719
 30
0.0
 11
68.5749999999999886
 21
30.4749999999999588
 31
0.0
  0
ARC
  5
233
100
AcDbEntity
  8
Bearing Plate Middle
 62
256
370
-1
  6
ByLayer
100
AcDbCircle
 10
64.5250000000000341
 20
64.5250000000000057
 30
0.0
 40
21.0
100
AcDbArc
 50
329.0181248418148812
 51
120.9818751581851615
  0
CIRCLE
  5
234
100
AcDbEntity
100
AcDbCircle
  8
Bearing Plate Middle
 62
256
370
-1
  6
ByLayer
 10
40.0
 20
59.0499999999999758
 30
0.0
 40
4.0
  0
CIRCLE
  5
235
100
AcDbEntity
100
AcDbCircle
  8
Bearing Plate Middle
 62
256
370
-1
  6
ByLayer
 10
40.0
 20
39.9999999999999929
 30
0.0
 40
4.0
  0
CIRCLE
  5
236
100
AcDbEntity
100
AcDbCircle
  8
Bearing Plate Middle
 62
256
370
-1
  6
ByLayer
 10
59.0500000000000114
 20
39.9999999999999858
 30
0.0
 40
4.0
  0
CIRCLE
  5
237
100
AcDbEntity
100
AcDbCircle
  8
Bearing Plate Middle
 62
256
370
-1
  6
ByLayer
 10
64.5250000000000341
 20
64.5250000000000057
 30
0.0
 40
4.1500000000000004
  0
LINE
  5
238
100
AcDbEntity
100
AcDbLine
  8
Bearing Plate Bottom
 62
256
370
-1
  6
ByLayer
 10
30.4749999999999659
 20
68.5749999999999886
 30
0.0
 11
30.4749999999999659
 21
30.4749999999999943
 31
0.0
  0
LINE
  5
239
100
AcDbEntity
100
AcDbLine
  8
Bearing Plate Bottom
 62
256
370
-1
  6
ByLayer
 10
30.4749999999999659
 20
30.4749999999999943
 30
0.0
 11
68.5749999999999602
 21
30.4749999999999588
 31
0.0
  0
LINE
  5
23A
100
AcDbEntity
100
AcDbLine
  8
Bearing Plate Bottom
 62
256
370
-1
  6
ByLayer
 10
53.7148952173318435
 20
82.5289338642346593
 30
0.0
 11
30.4749999999999659
 21
68.5749999999999886
 31
0.0
  0
LINE
  5
23B
100
AcDbEntity
100
AcDbLine
  8
Bearing Plate Bottom
 62
256
370
-1
  6
ByLayer
 10
82.5289338642346593
 20
53.7148952173318719
 30
0.0
 11
68.5749999999999602
 21
30.4749999999999588
 31
0.0
  0
ARC
  5
23C
100
AcDbEntity
  8
Bearing Plate Bottom
 62
256
370
-1
  6
ByLayer
100
AcDbCircle
 10
64.5249999999999773
 20
64.5250000000000057
 30
0.0
 40
21.0
100
AcDbArc
 50
329.0181248418148812
 51
120.9818751581851615
  0
CIRCLE
  5
23D
100
AcDbEntity
100
AcDbCircle
  8
Bearing Plate Bottom
 62
256
370
-1
  6
ByLayer
 10
64.5249999999999773
 20
64.5250000000000057
 30
0.0
 40
10.9000000000000004
  0
CIRCLE
  5
23E
100
AcDbEntity
100
AcDbCircle
  8
Bearing Plate Bottom
 62
256
370
-1
  6
ByLayer
 10
40.0
 20
59.0499999999999758
 30
0.0
 40
4.0
  0
CIRCLE
  5
23F
100
AcDbEntity
100
AcDbCircle
  8
Bearing Plate Bottom
 62
256
370
-1
  6
ByLayer
 10
40.0
 20
39.9999999999999929
 30
0.0
 40
4.0
  0
CIRCLE
  5
240
100
AcDbEntity
100
AcDbCircle
  8
Bearing Plate Bottom
 62
256
370
-1
  6
ByLayer
 10
59.0499999999999829
 20
39.9999999999999858
 30
0.0
 40
4.0
  0
ENDSEC
  0
SECTION
  2
OBJECTS
  0
DICTIONARY
  5
C
100
AcDbDictionary
280
0
281
1
  3
ACAD_GROUP
350
D
  3
ACAD_LAYOUT
350
1A
  3
ACAD_MLINESTYLE
350
17
  3
ACAD_PLOTSETTINGS
350
19
  3
ACAD_PLOTSTYLENAME
350
E
  3
AcDbVariableDictionary
350
241
  0
DICTIONARY
  5
D
100
AcDbDictionary
280
0
281
1
  0
ACDBDICTIONARYWDFLT
  5
E
100
AcDbDictionary
281
1
  3
Normal
350
F
100
AcDbDictionaryWithDefault
340
F
  0
ACDBPLACEHOLDER
  5
F
  0
DICTIONARY
  5
17
100
AcDbDictionary
280
0
281
1
  3
Standard
350
18
  0
MLINESTYLE
  5
18
100
AcDbMlineStyle
  2
STANDARD
 70
0
  3

 62
256
 51
90.0
 52
90.0
 71
2
 49
0.5
 62
256
  6
BYLAYER
 49
-0.5
 62
256
  6
BYLAYER
  0
DICTIONARY
  5
19
100
AcDbDictionary
280
0
281
1
  0
DICTIONARY
  5
1A
100
AcDbDictionary
281
1
  3
Layout1
350
1E
  3
Layout2
350
26
  3
Model
350
22
  0
LAYOUT
  5
1E
100
AcDbPlotSettings
  1

  2
C:\Program Files\AutoCAD 2002\plotters\DWF ePlot (optimized for plotting).pc3
  4

  6

 40
0.0
 41
0.0
 42
0.0
 43
0.0
 44
0.0
 45
0.0
 46
0.0
 47
0.0
 48
0.0
 49
0.0
140
0.0
141
0.0
142
1.0
143
1.0
 70
688
 72
0
 73
0
 74
5
  7

 75
16
147
1.0
148
0.0
149
0.0
100
AcDbLayout
  1
Layout1
 70
1
 71
1
 10
0.0
 20
0.0
 11
420.0
 21
297.0
 12
0.0
 22
0.0
 32
0.0
 14
100000000000000000000.0
 24
100000000000000000000.0
 34
100000000000000000000.0
 15
-100000000000000000000.0
 25
-100000000000000000000.0
 35
-100000000000000000000.0
146
0.0
 13
0.0
 23
0.0
 33
0.0
 16
1.0
 26
0.0
 36
0.0
 17
0.0
 27
1.0
 37
0.0
 76
0
330
1B
  0
LAYOUT
  5
22
100
AcDbPlotSettings
  1

  2
C:\Program Files\AutoCAD 2002\plotters\DWF ePlot (optimized for plotting).pc3
  4

  6

 40
0.0
 41
0.0
 42
0.0
 43
0.0
 44
0.0
 45
0.0
 46
0.0
 47
0.0
 48
0.0
 49
0.0
140
0.0
141
0.0
142
1.0
143
1.0
 70
1712
 72
0
 73
0
 74
0
  7

 75
0
147
1.0
148
0.0
149
0.0
100
AcDbLayout
  1
Model
 70
1
 71
0
 10
0.0
 20
0.0
 11
12.0
 21
9.0
 12
0.0
 22
0.0
 32
0.0
 14
0.0
 24
0.0
 34
0.0
 15
0.0
 25
0.0
 35
0.0
146
0.0
 13
0.0
 23
0.0
 33
0.0
 16
1.0
 26
0.0
 36
0.0
 17
0.0
 27
1.0
 37
0.0
 76
0
330
1F
  0
LAYOUT
  5
26
100
AcDbPlotSettings
  1

  2
C:\Program Files\AutoCAD 2002\plotters\DWF ePlot (optimized for plotting).pc3
  4

  6

 40
0.0
 41
0.0
 42
0.0
 43
0.0
 44
0.0
 45
0.0
 46
0.0
 47
0.0
 48
0.0
 49
0.0
140
0.0
141
0.0
142
1.0
143
1.0
 70
688
 72
0
 73
0
 74
5
  7

 75
16
147
1.0
148
0.0
149
0.0
100
AcDbLayout
  1
Layout2
 70
1
 71
2
 10
0.0
 20
0.0
 11
12.0
 21
9.0
 12
0.0
 22
0.0
 32
0.0
 14
0.0
 24
0.0
 34
0.0
 15
0.0
 25
0.0
 35
0.0
146
0.0
 13
0.0
 23
0.0
 33
0.0
 16
1.0
 26
0.0
 36
0.0
 17
0.0
 27
1.0
 37
0.0
 76
0
330
23
  0
DICTIONARY
  5
241
100
AcDbDictionary
281
1
  3
DIMASSOC
350
243
  3
HIDETEXT
350
242
  0
DICTIONARYVAR
  5
242
100
DictionaryVariables
280
0
  1
2
  0
DICTIONARYVAR
  5
243
100
DictionaryVariables
280
0
  1
1
  0
ENDSEC
  0
EOF
