999
dxflib 2.2.0.0
  0
SECTION
  2
HEADER
  9
$ACADVER
  1
AC1015
  9
$HANDSEED
  5
FFFF
  9
$DIMASZ
 40
2.5
  9
$PLIMMIN
 10
0.0
 20
0.0
  9
$DIMEXE
 40
1.25
  9
$DIMGAP
 40
0.625
  9
$PLIMMAX
 10
210.0
 20
297.0
  9
$INSUNITS
 70
4
  9
$DIMEXO
 40
0.625
  9
$DIMTXT
 40
2.5
  9
$CLAYER
  8
0
  0
ENDSEC
  0
SECTION
  2
TABLES
  0
TABLE
  2
VPORT
  5
8
100
AcDbSymbolTable
 70
1
  0
VPORT
  5
30
100
AcDbSymbolTableRecord
100
AcDbViewportTableRecord
  2
*Active
 70
0
 10
0.0
 20
0.0
 11
1.0
 21
1.0
 12
286.3055555555554861
 22
148.5
 13
0.0
 23
0.0
 14
10.0
 24
10.0
 15
10.0
 25
10.0
 16
0.0
 26
0.0
 36
1.0
 17
0.0
 27
0.0
 37
0.0
 40
297.0
 41
1.92798353909465
 42
50.0
 43
0.0
 44
0.0
 50
0.0
 51
0.0
 71
0
 72
100
 73
1
 74
3
 75
1
 76
1
 77
0
 78
0
281
0
 65
1
110
0.0
120
0.0
130
0.0
111
1.0
121
0.0
131
0.0
112
0.0
122
1.0
132
0.0
 79
0
146
0.0
  0
ENDTAB
  0
TABLE
  2
LTYPE
  5
5
100
AcDbSymbolTable
 70
21
  0
LTYPE
  5
14
100
AcDbSymbolTableRecord
100
AcDbLinetypeTableRecord
  2
ByBlock
 70
0
  3

 72
65
 73
0
 40
0.0
  0
LTYPE
  5
15
100
AcDbSymbolTableRecord
100
AcDbLinetypeTableRecord
  2
ByLayer
 70
0
  3

 72
65
 73
0
 40
0.0
  0
LTYPE
  5
16
100
AcDbSymbolTableRecord
100
AcDbLinetypeTableRecord
  2
CONTINUOUS
 70
0
  3
Solid line
 72
65
 73
0
 40
0.0
  0
LTYPE
  5
31
100
AcDbSymbolTableRecord
100
AcDbLinetypeTableRecord
  2
DOT
 70
0
  3
Dot . . . . . . . . . . . . . . . . . . . . . .
 72
65
 73
2
 40
6.3499999999999996
 49
0.0
 74
0
 49
-6.3499999999999996
 74
0
  0
LTYPE
  5
32
100
AcDbSymbolTableRecord
100
AcDbLinetypeTableRecord
  2
DOT2
 70
0
  3
Dot (.5x) .....................................
 72
65
 73
2
 40
3.1749999999999998
 49
0.0
 74
0
 49
-3.1749999999999998
 74
0
  0
LTYPE
  5
33
100
AcDbSymbolTableRecord
100
AcDbLinetypeTableRecord
  2
DOTX2
 70
0
  3
Dot (2x) .  .  .  .  .  .  .  .  .  .  .  .  .
 72
65
 73
2
 40
12.6999999999999993
 49
0.0
 74
0
 49
-12.6999999999999993
 74
0
  0
LTYPE
  5
34
100
AcDbSymbolTableRecord
100
AcDbLinetypeTableRecord
  2
DASHED
 70
0
  3
Dashed __ __ __ __ __ __ __ __ __ __ __ __ __ _
 72
65
 73
2
 40
19.0500000000000007
 49
12.6999999999999993
 74
0
 49
-6.3499999999999996
 74
0
  0
LTYPE
  5
35
100
AcDbSymbolTableRecord
100
AcDbLinetypeTableRecord
  2
DASHED2
 70
0
  3
Dashed (.5x) _ _ _ _ _ _ _ _ _ _ _ _ _ _ _ _ _
 72
65
 73
2
 40
9.5250000000000004
 49
6.3499999999999996
 74
0
 49
-3.1749999999999998
 74
0
  0
LTYPE
  5
36
100
AcDbSymbolTableRecord
100
AcDbLinetypeTableRecord
  2
DASHEDX2
 70
0
  3
Dashed (2x) ____  ____  ____  ____  ____  ___
 72
65
 73
2
 40
38.1000000000000014
 49
25.3999999999999986
 74
0
 49
-12.6999999999999993
 74
0
  0
LTYPE
  5
37
100
AcDbSymbolTableRecord
100
AcDbLinetypeTableRecord
  2
DASHDOT
 70
0
  3
Dash dot __ . __ . __ . __ . __ . __ . __ . __
 72
65
 73
4
 40
25.3999999999999986
 49
12.6999999999999993
 74
0
 49
-6.3499999999999996
 74
0
 49
0.0
 74
0
 49
-6.3499999999999996
 74
0
  0
LTYPE
  5
38
100
AcDbSymbolTableRecord
100
AcDbLinetypeTableRecord
  2
DASHDOT2
 70
0
  3
Dash dot (.5x) _._._._._._._._._._._._._._._.
 72
65
 73
4
 40
12.6999999999999993
 49
6.3499999999999996
 74
0
 49
-3.1749999999999998
 74
0
 49
0.0
 74
0
 49
-3.1749999999999998
 74
0
  0
LTYPE
  5
39
100
AcDbSymbolTableRecord
100
AcDbLinetypeTableRecord
  2
DASHDOTX2
 70
0
  3
Dash dot (2x) ____  .  ____  .  ____  .  ___
 72
65
 73
4
 40
50.7999999999999972
 49
25.3999999999999986
 74
0
 49
-12.6999999999999993
 74
0
 49
0.0
 74
0
 49
-12.6999999999999993
 74
0
  0
LTYPE
  5
3A
100
AcDbSymbolTableRecord
100
AcDbLinetypeTableRecord
  2
DIVIDE
 70
0
  3
Divide ____ . . ____ . . ____ . . ____ . . ____
 72
65
 73
6
 40
31.75
 49
12.6999999999999993
 74
0
 49
-6.3499999999999996
 74
0
 49
0.0
 74
0
 49
-6.3499999999999996
 74
0
 49
0.0
 74
0
 49
-6.3499999999999996
 74
0
  0
LTYPE
  5
3B
100
AcDbSymbolTableRecord
100
AcDbLinetypeTableRecord
  2
DIVIDE2
 70
0
  3
Divide (.5x) __..__..__..__..__..__..__..__.._
 72
65
 73
6
 40
15.875
 49
6.3499999999999996
 74
0
 49
-3.1749999999999998
 74
0
 49
0.0
 74
0
 49
-3.1749999999999998
 74
0
 49
0.0
 74
0
 49
-3.1749999999999998
 74
0
  0
LTYPE
  5
3C
100
AcDbSymbolTableRecord
100
AcDbLinetypeTableRecord
  2
DIVIDEX2
 70
0
  3
Divide (2x) ________  .  .  ________  .  .  _
 72
65
 73
6
 40
63.5
 49
25.3999999999999986
 74
0
 49
-12.6999999999999993
 74
0
 49
0.0
 74
0
 49
-12.6999999999999993
 74
0
 49
0.0
 74
0
 49
-12.6999999999999993
 74
0
  0
LTYPE
  5
3D
100
AcDbSymbolTableRecord
100
AcDbLinetypeTableRecord
  2
CENTER
 70
0
  3
Center ____ _ ____ _ ____ _ ____ _ ____ _ ____
 72
65
 73
4
 40
50.7999999999999972
 49
31.75
 74
0
 49
-6.3499999999999996
 74
0
 49
6.3499999999999996
 74
0
 49
-6.3499999999999996
 74
0
  0
LTYPE
  5
3E
100
AcDbSymbolTableRecord
100
AcDbLinetypeTableRecord
  2
CENTER2
 70
0
  3
Center (.5x) ___ _ ___ _ ___ _ ___ _ ___ _ ___
 72
65
 73
4
 40
28.5749999999999993
 49
19.0500000000000007
 74
0
 49
-3.1749999999999998
 74
0
 49
3.1749999999999998
 74
0
 49
-3.1749999999999998
 74
0
  0
LTYPE
  5
3F
100
AcDbSymbolTableRecord
100
AcDbLinetypeTableRecord
  2
CENTERX2
 70
0
  3
Center (2x) ________  __  ________  __  _____
 72
65
 73
4
 40
101.5999999999999943
 49
63.5
 74
0
 49
-12.6999999999999993
 74
0
 49
12.6999999999999993
 74
0
 49
-12.6999999999999993
 74
0
  0
LTYPE
  5
40
100
AcDbSymbolTableRecord
100
AcDbLinetypeTableRecord
  2
BORDER
 70
0
  3
Border __ __ . __ __ . __ __ . __ __ . __ __ .
 72
65
 73
6
 40
44.4500000000000028
 49
12.6999999999999993
 74
0
 49
-6.3499999999999996
 74
0
 49
12.6999999999999993
 74
0
 49
-6.3499999999999996
 74
0
 49
0.0
 74
0
 49
-6.3499999999999996
 74
0
  0
LTYPE
  5
41
100
AcDbSymbolTableRecord
100
AcDbLinetypeTableRecord
  2
BORDER2
 70
0
  3
Border (.5x) __.__.__.__.__.__.__.__.__.__.__.
 72
65
 73
6
 40
22.2250000000000014
 49
6.3499999999999996
 74
0
 49
-3.1749999999999998
 74
0
 49
6.3499999999999996
 74
0
 49
-3.1749999999999998
 74
0
 49
0.0
 74
0
 49
-3.1749999999999998
 74
0
  0
LTYPE
  5
42
100
AcDbSymbolTableRecord
100
AcDbLinetypeTableRecord
  2
BORDERX2
 70
0
  3
Border (2x) ____  ____  .  ____  ____  .  ___
 72
65
 73
6
 40
88.9000000000000057
 49
25.3999999999999986
 74
0
 49
-12.6999999999999993
 74
0
 49
25.3999999999999986
 74
0
 49
-12.6999999999999993
 74
0
 49
0.0
 74
0
 49
-12.6999999999999993
 74
0
  0
ENDTAB
  0
TABLE
  2
LAYER
  5
2
100
AcDbSymbolTable
 70
2
  0
LAYER
  5
10
100
AcDbSymbolTableRecord
100
AcDbLayerTableRecord
  2
0
 70
0
 62
7
420
0
  6
CONTINUOUS
370
0
390
F
  0
LAYER
  5
43
100
AcDbSymbolTableRecord
100
AcDbLayerTableRecord
  2
help
 70
0
 62
4
420
65535
  6
CONTINUOUS
370
0
390
F
  0
ENDTAB
  0
TABLE
  2
STYLE
  5
3
100
AcDbSymbolTable
 70
1
  0
STYLE
  5
11
100
AcDbSymbolTableRecord
100
AcDbTextStyleTableRecord
  2
Standard
 70
0
 40
0.0
 41
0.75
 50
0.0
 71
0
 42
2.5
  3
txt
  4

  0
ENDTAB
  0
TABLE
  2
VIEW
  5
6
100
AcDbSymbolTable
 70
0
  0
ENDTAB
  0
TABLE
  2
UCS
  5
7
100
AcDbSymbolTable
 70
0
  0
ENDTAB
  0
TABLE
  2
APPID
  5
9
100
AcDbSymbolTable
 70
1
  0
APPID
  5
12
100
AcDbSymbolTableRecord
100
AcDbRegAppTableRecord
  2
ACAD
 70
0
  0
ENDTAB
  0
TABLE
  2
DIMSTYLE
  5
A
100
AcDbSymbolTable
 70
1
100
AcDbDimStyleTable
 71
0
  0
DIMSTYLE
105
27
100
AcDbSymbolTableRecord
100
AcDbDimStyleTableRecord
  2
Standard
 41
2.5
 42
0.625
 43
3.75
 44
1.25
 70
0
 73
0
 74
0
 77
1
 78
8
140
2.5
141
2.5
143
0.03937007874016
147
0.625
171
3
172
1
271
2
272
2
274
3
278
44
283
0
284
8
340
11
  0
ENDTAB
  0
TABLE
  2
BLOCK_RECORD
  5
1
100
AcDbSymbolTable
 70
1
  0
BLOCK_RECORD
  5
1F
100
AcDbSymbolTableRecord
100
AcDbBlockTableRecord
  2
*Model_Space
340
22
  0
BLOCK_RECORD
  5
1B
100
AcDbSymbolTableRecord
100
AcDbBlockTableRecord
  2
*Paper_Space
340
1E
  0
BLOCK_RECORD
  5
23
100
AcDbSymbolTableRecord
100
AcDbBlockTableRecord
  2
*Paper_Space0
340
26
  0
BLOCK_RECORD
  5
44
100
AcDbSymbolTableRecord
100
AcDbBlockTableRecord
  2
rb35
340
0
  0
BLOCK_RECORD
  5
45
100
AcDbSymbolTableRecord
100
AcDbBlockTableRecord
  2
rb35-big
340
0
  0
BLOCK_RECORD
  5
46
100
AcDbSymbolTableRecord
100
AcDbBlockTableRecord
  2
rb35-hole
340
0
  0
ENDTAB
  0
ENDSEC
  0
SECTION
  2
BLOCKS
  0
BLOCK
  5
20
100
AcDbEntity
  8
0
100
AcDbBlockBegin
  2
*Model_Space
 70
0
 10
0.0
 20
0.0
 30
0.0
  3
*Model_Space
  1

  0
ENDBLK
  5
21
100
AcDbEntity
  8
0
100
AcDbBlockEnd
  0
BLOCK
  5
1C
100
AcDbEntity
 67
1
  8
0
100
AcDbBlockBegin
  2
*Paper_Space
 70
0
 10
0.0
 20
0.0
 30
0.0
  3
*Paper_Space
  1

  0
ENDBLK
  5
1D
100
AcDbEntity
 67
1
  8
0
100
AcDbBlockEnd
  0
BLOCK
  5
24
100
AcDbEntity
  8
0
100
AcDbBlockBegin
  2
*Paper_Space0
 70
0
 10
0.0
 20
0.0
 30
0.0
  3
*Paper_Space0
  1

  0
ENDBLK
  5
25
100
AcDbEntity
  8
0
100
AcDbBlockEnd
  0
BLOCK
  5
47
100
AcDbEntity
  8
0
100
AcDbBlockBegin
  2
rb35
 70
0
 10
0.0
 20
0.0
 30
0.0
  3
rb35
  1

  0
CIRCLE
  5
48
100
AcDbEntity
100
AcDbCircle
  8
help
 62
256
370
-1
  6
ByLayer
 10
-0.0000000000000004
 20
-7.0
 30
0.0
 40
18.5
  0
CIRCLE
  5
49
100
AcDbEntity
100
AcDbCircle
  8
help
 62
256
370
-1
  6
ByLayer
 10
-0.0000000000000004
 20
-7.0
 30
0.0
 40
15.5
  0
CIRCLE
  5
4A
100
AcDbEntity
100
AcDbCircle
  8
0
 62
256
370
-1
  6
ByLayer
 10
-15.5
 20
-6.9999999999999982
 30
0.0
 40
1.5
  0
CIRCLE
  5
4B
100
AcDbEntity
100
AcDbCircle
  8
0
 62
256
370
-1
  6
ByLayer
 10
7.7499999999999902
 20
-20.4233937586588041
 30
0.0
 40
1.5
  0
CIRCLE
  5
4C
100
AcDbEntity
100
AcDbCircle
  8
0
 62
256
370
-1
  6
ByLayer
 10
7.7500000000000071
 20
6.4233937586587952
 30
0.0
 40
1.5
  0
ENDBLK
  5
4D
100
AcDbEntity
  8
0
100
AcDbBlockEnd
  0
BLOCK
  5
4E
100
AcDbEntity
  8
0
100
AcDbBlockBegin
  2
rb35-big
 70
0
 10
0.0
 20
0.0
 30
0.0
  3
rb35-big
  1

  0
CIRCLE
  5
4F
100
AcDbEntity
100
AcDbCircle
  8
0
 62
256
370
-1
  6
ByLayer
 10
0.0
 20
0.0
 30
0.0
 40
6.0
  0
ENDBLK
  5
50
100
AcDbEntity
  8
0
100
AcDbBlockEnd
  0
BLOCK
  5
51
100
AcDbEntity
  8
0
100
AcDbBlockBegin
  2
rb35-hole
 70
0
 10
0.0
 20
0.0
 30
0.0
  3
rb35-hole
  1

  0
ARC
  5
52
100
AcDbEntity
  8
0
 62
256
370
-1
  6
ByLayer
100
AcDbCircle
 10
0.0
 20
0.0
 30
0.0
 40
3.0
100
AcDbArc
 50
123.5573097619207203
 51
56.4426902380792797
  0
LINE
  5
53
100
AcDbEntity
100
AcDbLine
  8
0
 62
256
370
-1
  6
ByLayer
 10
-1.658312395177699
 20
2.5
 30
0.0
 11
1.6583123951777008
 21
2.5
 31
0.0
  0
ENDBLK
  5
54
100
AcDbEntity
  8
0
100
AcDbBlockEnd
  0
ENDSEC
  0
SECTION
  2
ENTITIES
  0
INSERT
  5
55
100
AcDbEntity
100
AcDbBlockReference
  8
help
 62
256
370
-1
  6
ByLayer
  2
rb35
 10
0.0
 20
0.0
 30
0.0
 44
1.0
 45
1.0
  0
INSERT
  5
56
100
AcDbEntity
100
AcDbBlockReference
  8
0
 62
256
370
-1
  6
ByLayer
  2
rb35-big
 10
0.0
 20
0.0
 30
0.0
  0
LINE
  5
57
100
AcDbEntity
100
AcDbLine
  8
0
 62
256
370
-1
  6
ByLayer
 10
-50.7724064069616929
 20
9.9701247907177439
 30
0.0
 11
-50.0
 21
11.0
 31
0.0
  0
LINE
  5
58
100
AcDbEntity
100
AcDbLine
  8
0
 62
256
370
-1
  6
ByLayer
 10
-49.2275935930383071
 20
9.9701247907177439
 30
0.0
 11
-50.0
 21
11.0
 31
0.0
  0
LINE
  5
59
100
AcDbEntity
100
AcDbLine
  8
0
 62
256
370
-1
  6
ByLayer
 10
-52.4919658190721989
 20
9.6845292274108932
 30
0.0
 11
-51.9101299543362344
 21
10.8328852831342886
 31
0.0
  0
LINE
  5
5A
100
AcDbEntity
100
AcDbLine
  8
0
 62
256
370
-1
  6
ByLayer
 10
-50.9706221829678441
 20
9.9527831573852108
 30
0.0
 11
-51.9101299543362344
 21
10.8328852831342886
 31
0.0
  0
LINE
  5
5B
100
AcDbEntity
100
AcDbLine
  8
0
 62
256
370
-1
  6
ByLayer
 10
-54.1358081107657441
 20
9.1046741441374106
 30
0.0
 11
-53.7622215765823555
 21
10.3366188286449923
 31
0.0
  0
LINE
  5
5C
100
AcDbEntity
100
AcDbLine
  8
0
 62
256
370
-1
  6
ByLayer
 10
-52.6841589090264222
 20
9.6330312441668156
 30
0.0
 11
-53.7622215765823555
 21
10.3366188286449923
 31
0.0
  0
LINE
  5
5D
100
AcDbEntity
100
AcDbLine
  8
0
 62
256
370
-1
  6
ByLayer
 10
-55.6539859658335558
 20
8.2481781441817308
 30
0.0
 11
-55.5
 21
9.5262794416288266
 31
0.0
  0
LINE
  5
5E
100
AcDbEntity
100
AcDbLine
  8
0
 62
256
370
-1
  6
ByLayer
 10
-54.3161388248841845
 20
9.0205845511434237
 30
0.0
 11
-55.5
 21
9.5262794416288266
 31
0.0
  0
LINE
  5
5F
100
AcDbEntity
100
AcDbLine
  8
0
 62
256
370
-1
  6
ByLayer
 10
-57.0003703183844692
 20
7.1410654250946166
 30
0.0
 11
-57.0706637065519331
 21
8.4264888743087578
 31
0.0
  0
LINE
  5
60
100
AcDbEntity
100
AcDbLine
  8
0
 62
256
370
-1
  6
ByLayer
 10
-55.8169750466194685
 20
8.1340519611695665
 30
0.0
 11
-57.0706637065519331
 21
8.4264888743087578
 31
0.0
  0
LINE
  5
61
100
AcDbEntity
100
AcDbLine
  8
0
 62
256
370
-1
  6
ByLayer
 10
-58.1340519611695612
 20
5.8169750466194676
 30
0.0
 11
-58.4264888743087596
 21
7.070663706551934
 31
0.0
  0
LINE
  5
62
100
AcDbEntity
100
AcDbLine
  8
0
 62
256
370
-1
  6
ByLayer
 10
-57.1410654250946166
 20
7.0003703183844683
 30
0.0
 11
-58.4264888743087596
 21
7.070663706551934
 31
0.0
  0
LINE
  5
63
100
AcDbEntity
100
AcDbLine
  8
0
 62
256
370
-1
  6
ByLayer
 10
-59.0205845511434219
 20
4.3161388248841837
 30
0.0
 11
-59.526279441628823
 21
5.5000000000000036
 31
0.0
  0
LINE
  5
64
100
AcDbEntity
100
AcDbLine
  8
0
 62
256
370
-1
  6
ByLayer
 10
-58.248178144181729
 20
5.6539859658335585
 30
0.0
 11
-59.526279441628823
 21
5.5000000000000036
 31
0.0
  0
LINE
  5
65
100
AcDbEntity
100
AcDbLine
  8
0
 62
256
370
-1
  6
ByLayer
 10
-59.6330312441668156
 20
2.6841589090264271
 30
0.0
 11
-60.336618828644994
 21
3.7622215765823577
 31
0.0
  0
LINE
  5
66
100
AcDbEntity
100
AcDbLine
  8
0
 62
256
370
-1
  6
ByLayer
 10
-59.1046741441374053
 20
4.1358081107657476
 30
0.0
 11
-60.336618828644994
 21
3.7622215765823577
 31
0.0
  0
LINE
  5
67
100
AcDbEntity
100
AcDbLine
  8
0
 62
256
370
-1
  6
ByLayer
 10
-59.9527831573852126
 20
0.9706221829678471
 30
0.0
 11
-60.8328852831342886
 21
1.9101299543362329
 31
0.0
  0
LINE
  5
68
100
AcDbEntity
100
AcDbLine
  8
0
 62
256
370
-1
  6
ByLayer
 10
-59.6845292274108914
 20
2.4919658190722029
 30
0.0
 11
-60.8328852831342886
 21
1.9101299543362329
 31
0.0
  0
LINE
  5
69
100
AcDbEntity
100
AcDbLine
  8
0
 62
256
370
-1
  6
ByLayer
 10
-59.9701247907177475
 20
-0.7724064069616917
 30
0.0
 11
-61.0
 21
0.0000000000000013
 31
0.0
  0
LINE
  5
6A
100
AcDbEntity
100
AcDbLine
  8
0
 62
256
370
-1
  6
ByLayer
 10
-59.9701247907177475
 20
0.7724064069616942
 30
0.0
 11
-61.0
 21
0.0000000000000013
 31
0.0
  0
LINE
  5
6B
100
AcDbEntity
100
AcDbLine
  8
0
 62
256
370
-1
  6
ByLayer
 10
-59.6845292274108914
 20
-2.4919658190722007
 30
0.0
 11
-60.8328852831342886
 21
-1.9101299543362302
 31
0.0
  0
LINE
  5
6C
100
AcDbEntity
100
AcDbLine
  8
0
 62
256
370
-1
  6
ByLayer
 10
-59.9527831573852126
 20
-0.9706221829678446
 30
0.0
 11
-60.8328852831342886
 21
-1.9101299543362302
 31
0.0
  0
LINE
  5
6D
100
AcDbEntity
100
AcDbLine
  8
0
 62
256
370
-1
  6
ByLayer
 10
-59.1046741441374124
 20
-4.1358081107657449
 30
0.0
 11
-60.336618828644994
 21
-3.762221576582355
 31
0.0
  0
LINE
  5
6E
100
AcDbEntity
100
AcDbLine
  8
0
 62
256
370
-1
  6
ByLayer
 10
-59.6330312441668156
 20
-2.6841589090264244
 30
0.0
 11
-60.336618828644994
 21
-3.762221576582355
 31
0.0
  0
LINE
  5
6F
100
AcDbEntity
100
AcDbLine
  8
0
 62
256
370
-1
  6
ByLayer
 10
-58.248178144181729
 20
-5.6539859658335567
 30
0.0
 11
-59.5262794416288301
 21
-5.4999999999999973
 31
0.0
  0
LINE
  5
70
100
AcDbEntity
100
AcDbLine
  8
0
 62
256
370
-1
  6
ByLayer
 10
-59.0205845511434219
 20
-4.3161388248841819
 30
0.0
 11
-59.5262794416288301
 21
-5.4999999999999973
 31
0.0
  0
LINE
  5
71
100
AcDbEntity
100
AcDbLine
  8
0
 62
256
370
-1
  6
ByLayer
 10
-57.1410654250946166
 20
-7.0003703183844666
 30
0.0
 11
-58.4264888743087596
 21
-7.0706637065519322
 31
0.0
  0
LINE
  5
72
100
AcDbEntity
100
AcDbLine
  8
0
 62
256
370
-1
  6
ByLayer
 10
-58.1340519611695683
 20
-5.816975046619465
 30
0.0
 11
-58.4264888743087596
 21
-7.0706637065519322
 31
0.0
  0
LINE
  5
73
100
AcDbEntity
100
AcDbLine
  8
0
 62
256
370
-1
  6
ByLayer
 10
-55.8169750466194685
 20
-8.1340519611695612
 30
0.0
 11
-57.0706637065519331
 21
-8.426488874308756
 31
0.0
  0
LINE
  5
74
100
AcDbEntity
100
AcDbLine
  8
0
 62
256
370
-1
  6
ByLayer
 10
-57.0003703183844692
 20
-7.1410654250946148
 30
0.0
 11
-57.0706637065519331
 21
-8.426488874308756
 31
0.0
  0
LINE
  5
75
100
AcDbEntity
100
AcDbLine
  8
0
 62
256
370
-1
  6
ByLayer
 10
-54.3161388248841845
 20
-9.0205845511434219
 30
0.0
 11
-55.4999999999999929
 21
-9.5262794416288283
 31
0.0
  0
LINE
  5
76
100
AcDbEntity
100
AcDbLine
  8
0
 62
256
370
-1
  6
ByLayer
 10
-55.6539859658335558
 20
-8.248178144181729
 30
0.0
 11
-55.4999999999999929
 21
-9.5262794416288283
 31
0.0
  0
LINE
  5
77
100
AcDbEntity
100
AcDbLine
  8
0
 62
256
370
-1
  6
ByLayer
 10
-52.6841589090264293
 20
-9.6330312441668156
 30
0.0
 11
-53.7622215765823555
 21
-10.3366188286449923
 31
0.0
  0
LINE
  5
78
100
AcDbEntity
100
AcDbLine
  8
0
 62
256
370
-1
  6
ByLayer
 10
-54.1358081107657512
 20
-9.1046741441374088
 30
0.0
 11
-53.7622215765823555
 21
-10.3366188286449923
 31
0.0
  0
LINE
  5
79
100
AcDbEntity
100
AcDbLine
  8
0
 62
256
370
-1
  6
ByLayer
 10
-50.9706221829678512
 20
-9.9527831573852108
 30
0.0
 11
-51.9101299543362344
 21
-10.8328852831342886
 31
0.0
  0
LINE
  5
7A
100
AcDbEntity
100
AcDbLine
  8
0
 62
256
370
-1
  6
ByLayer
 10
-52.491965819072206
 20
-9.6845292274108914
 30
0.0
 11
-51.9101299543362344
 21
-10.8328852831342886
 31
0.0
  0
LINE
  5
7B
100
AcDbEntity
100
AcDbLine
  8
0
 62
256
370
-1
  6
ByLayer
 10
-49.2275935930383071
 20
-9.9701247907177439
 30
0.0
 11
-50.0
 21
-11.0
 31
0.0
  0
LINE
  5
7C
100
AcDbEntity
100
AcDbLine
  8
0
 62
256
370
-1
  6
ByLayer
 10
-50.7724064069617
 20
-9.9701247907177422
 30
0.0
 11
-50.0
 21
-11.0
 31
0.0
  0
LINE
  5
7D
100
AcDbEntity
100
AcDbLine
  8
0
 62
256
370
-1
  6
ByLayer
 10
-47.5080341809278011
 20
-9.6845292274108932
 30
0.0
 11
-48.0898700456637727
 21
-10.8328852831342886
 31
0.0
  0
LINE
  5
7E
100
AcDbEntity
100
AcDbLine
  8
0
 62
256
370
-1
  6
ByLayer
 10
-49.029377817032163
 20
-9.9527831573852126
 30
0.0
 11
-48.0898700456637727
 21
-10.8328852831342886
 31
0.0
  0
LINE
  5
7F
100
AcDbEntity
100
AcDbLine
  8
0
 62
256
370
-1
  6
ByLayer
 10
-45.8641918892342559
 20
-9.1046741441374106
 30
0.0
 11
-46.2377784234176517
 21
-10.336618828644994
 31
0.0
  0
LINE
  5
80
100
AcDbEntity
100
AcDbLine
  8
0
 62
256
370
-1
  6
ByLayer
 10
-47.3158410909735778
 20
-9.6330312441668156
 30
0.0
 11
-46.2377784234176517
 21
-10.336618828644994
 31
0.0
  0
LINE
  5
81
100
AcDbEntity
100
AcDbLine
  8
0
 62
256
370
-1
  6
ByLayer
 10
-44.3460140341664442
 20
-8.2481781441817308
 30
0.0
 11
-44.5000000000000071
 21
-9.5262794416288301
 31
0.0
  0
LINE
  5
82
100
AcDbEntity
100
AcDbLine
  8
0
 62
256
370
-1
  6
ByLayer
 10
-45.6838611751158226
 20
-9.0205845511434237
 30
0.0
 11
-44.5000000000000071
 21
-9.5262794416288301
 31
0.0
  0
LINE
  5
83
100
AcDbEntity
100
AcDbLine
  8
0
 62
256
370
-1
  6
ByLayer
 10
-42.9996296816155379
 20
-7.1410654250946202
 30
0.0
 11
-42.9293362934480669
 21
-8.4264888743087596
 31
0.0
  0
LINE
  5
84
100
AcDbEntity
100
AcDbLine
  8
0
 62
256
370
-1
  6
ByLayer
 10
-44.1830249533805315
 20
-8.1340519611695647
 30
0.0
 11
-42.9293362934480669
 21
-8.4264888743087596
 31
0.0
  0
LINE
  5
85
100
AcDbEntity
100
AcDbLine
  8
0
 62
256
370
-1
  6
ByLayer
 10
-41.8659480388304388
 20
-5.8169750466194721
 30
0.0
 11
-41.5735111256912404
 21
-7.0706637065519349
 31
0.0
  0
LINE
  5
86
100
AcDbEntity
100
AcDbLine
  8
0
 62
256
370
-1
  6
ByLayer
 10
-42.8589345749053834
 20
-7.0003703183844666
 30
0.0
 11
-41.5735111256912404
 21
-7.0706637065519349
 31
0.0
  0
LINE
  5
87
100
AcDbEntity
100
AcDbLine
  8
0
 62
256
370
-1
  6
ByLayer
 10
-40.9794154488565852
 20
-4.3161388248841925
 30
0.0
 11
-40.473720558371177
 21
-5.5000000000000053
 31
0.0
  0
LINE
  5
88
100
AcDbEntity
100
AcDbLine
  8
0
 62
256
370
-1
  6
ByLayer
 10
-41.751821855818271
 20
-5.6539859658335603
 30
0.0
 11
-40.473720558371177
 21
-5.5000000000000053
 31
0.0
  0
LINE
  5
89
100
AcDbEntity
100
AcDbLine
  8
0
 62
256
370
-1
  6
ByLayer
 10
-40.3669687558331844
 20
-2.6841589090264368
 30
0.0
 11
-39.6633811713550131
 21
-3.7622215765823634
 31
0.0
  0
LINE
  5
8A
100
AcDbEntity
100
AcDbLine
  8
0
 62
256
370
-1
  6
ByLayer
 10
-40.8953258558625947
 20
-4.1358081107657485
 30
0.0
 11
-39.6633811713550131
 21
-3.7622215765823634
 31
0.0
  0
LINE
  5
8B
100
AcDbEntity
100
AcDbLine
  8
0
 62
256
370
-1
  6
ByLayer
 10
-40.0472168426147874
 20
-0.9706221829678395
 30
0.0
 11
-39.1671147168657114
 21
-1.9101299543362342
 31
0.0
  0
LINE
  5
8C
100
AcDbEntity
100
AcDbLine
  8
0
 62
256
370
-1
  6
ByLayer
 10
-40.3154707725891086
 20
-2.4919658190722043
 30
0.0
 11
-39.1671147168657114
 21
-1.9101299543362342
 31
0.0
  0
LINE
  5
8D
100
AcDbEntity
100
AcDbLine
  8
0
 62
256
370
-1
  6
ByLayer
 10
-40.0298752092822525
 20
0.7724064069616949
 30
0.0
 11
-39.0
 21
-0.0000000000000027
 31
0.0
  0
LINE
  5
8E
100
AcDbEntity
100
AcDbLine
  8
0
 62
256
370
-1
  6
ByLayer
 10
-40.0298752092822596
 20
-0.7724064069616998
 30
0.0
 11
-39.0
 21
-0.0000000000000027
 31
0.0
  0
LINE
  5
8F
100
AcDbEntity
100
AcDbLine
  8
0
 62
256
370
-1
  6
ByLayer
 10
-40.3154707725891086
 20
2.4919658190721994
 30
0.0
 11
-39.1671147168657114
 21
1.9101299543362289
 31
0.0
  0
LINE
  5
90
100
AcDbEntity
100
AcDbLine
  8
0
 62
256
370
-1
  6
ByLayer
 10
-40.0472168426147874
 20
0.9706221829678346
 30
0.0
 11
-39.1671147168657114
 21
1.9101299543362289
 31
0.0
  0
LINE
  5
91
100
AcDbEntity
100
AcDbLine
  8
0
 62
256
370
-1
  6
ByLayer
 10
-40.8953258558625876
 20
4.1358081107657441
 30
0.0
 11
-39.663381171355006
 21
3.7622215765823492
 31
0.0
  0
LINE
  5
92
100
AcDbEntity
100
AcDbLine
  8
0
 62
256
370
-1
  6
ByLayer
 10
-40.3669687558331844
 20
2.6841589090264151
 30
0.0
 11
-39.663381171355006
 21
3.7622215765823492
 31
0.0
  0
LINE
  5
93
100
AcDbEntity
100
AcDbLine
  8
0
 62
256
370
-1
  6
ByLayer
 10
-41.751821855818271
 20
5.6539859658335558
 30
0.0
 11
-40.473720558371177
 21
5.5
 31
0.0
  0
LINE
  5
94
100
AcDbEntity
100
AcDbLine
  8
0
 62
256
370
-1
  6
ByLayer
 10
-40.9794154488565781
 20
4.3161388248841881
 30
0.0
 11
-40.473720558371177
 21
5.5
 31
0.0
  0
LINE
  5
95
100
AcDbEntity
100
AcDbLine
  8
0
 62
256
370
-1
  6
ByLayer
 10
-42.8589345749053763
 20
7.000370318384463
 30
0.0
 11
-41.5735111256912404
 21
7.0706637065519313
 31
0.0
  0
LINE
  5
96
100
AcDbEntity
100
AcDbLine
  8
0
 62
256
370
-1
  6
ByLayer
 10
-41.8659480388304388
 20
5.8169750466194676
 30
0.0
 11
-41.5735111256912404
 21
7.0706637065519313
 31
0.0
  0
LINE
  5
97
100
AcDbEntity
100
AcDbLine
  8
0
 62
256
370
-1
  6
ByLayer
 10
-44.1830249533805244
 20
8.1340519611695612
 30
0.0
 11
-42.9293362934480669
 21
8.426488874308756
 31
0.0
  0
LINE
  5
98
100
AcDbEntity
100
AcDbLine
  8
0
 62
256
370
-1
  6
ByLayer
 10
-42.9996296816155308
 20
7.1410654250946166
 30
0.0
 11
-42.9293362934480669
 21
8.426488874308756
 31
0.0
  0
LINE
  5
99
100
AcDbEntity
100
AcDbLine
  8
0
 62
256
370
-1
  6
ByLayer
 10
-45.6838611751158084
 20
9.0205845511434184
 30
0.0
 11
-44.4999999999999929
 21
9.5262794416288212
 31
0.0
  0
LINE
  5
9A
100
AcDbEntity
100
AcDbLine
  8
0
 62
256
370
-1
  6
ByLayer
 10
-44.3460140341664371
 20
8.248178144181729
 30
0.0
 11
-44.4999999999999929
 21
9.5262794416288212
 31
0.0
  0
LINE
  5
9B
100
AcDbEntity
100
AcDbLine
  8
0
 62
256
370
-1
  6
ByLayer
 10
-47.3158410909735636
 20
9.633031244166812
 30
0.0
 11
-46.2377784234176374
 21
10.3366188286449887
 31
0.0
  0
LINE
  5
9C
100
AcDbEntity
100
AcDbLine
  8
0
 62
256
370
-1
  6
ByLayer
 10
-45.8641918892342488
 20
9.1046741441374088
 30
0.0
 11
-46.2377784234176374
 21
10.3366188286449887
 31
0.0
  0
LINE
  5
9D
100
AcDbEntity
100
AcDbLine
  8
0
 62
256
370
-1
  6
ByLayer
 10
-49.029377817032163
 20
9.9527831573852126
 30
0.0
 11
-48.0898700456637656
 21
10.8328852831342886
 31
0.0
  0
LINE
  5
9E
100
AcDbEntity
100
AcDbLine
  8
0
 62
256
370
-1
  6
ByLayer
 10
-47.508034180927794
 20
9.6845292274108914
 30
0.0
 11
-48.0898700456637656
 21
10.8328852831342886
 31
0.0
  0
ARC
  5
9F
100
AcDbEntity
  8
0
 62
256
370
-1
  6
ByLayer
100
AcDbCircle
 10
-50.0
 20
0.0
 30
0.0
 40
10.0
100
AcDbArc
 50
94.4299751458618459
 51
95.5700248541381541
  0
ARC
  5
A0
100
AcDbEntity
  8
0
 62
256
370
-1
  6
ByLayer
100
AcDbCircle
 10
-50.0
 20
0.0
 30
0.0
 40
10.0
100
AcDbArc
 50
104.4299751458618459
 51
105.5700248541381399
  0
ARC
  5
A1
100
AcDbEntity
  8
0
 62
256
370
-1
  6
ByLayer
100
AcDbCircle
 10
-50.0
 20
0.0
 30
0.0
 40
10.0
100
AcDbArc
 50
114.4299751458618317
 51
115.5700248541381399
  0
ARC
  5
A2
100
AcDbEntity
  8
0
 62
256
370
-1
  6
ByLayer
100
AcDbCircle
 10
-50.0
 20
0.0
 30
0.0
 40
10.0
100
AcDbArc
 50
124.4299751458618459
 51
125.5700248541381541
  0
ARC
  5
A3
100
AcDbEntity
  8
0
 62
256
370
-1
  6
ByLayer
100
AcDbCircle
 10
-50.0
 20
0.0
 30
0.0
 40
10.0
100
AcDbArc
 50
134.4299751458618459
 51
135.5700248541381541
  0
ARC
  5
A4
100
AcDbEntity
  8
0
 62
256
370
-1
  6
ByLayer
100
AcDbCircle
 10
-50.0
 20
0.0
 30
0.0
 40
10.0
100
AcDbArc
 50
144.4299751458618175
 51
145.5700248541381541
  0
ARC
  5
A5
100
AcDbEntity
  8
0
 62
256
370
-1
  6
ByLayer
100
AcDbCircle
 10
-50.0
 20
0.0
 30
0.0
 40
10.0
100
AcDbArc
 50
154.4299751458618459
 51
155.5700248541381541
  0
ARC
  5
A6
100
AcDbEntity
  8
0
 62
256
370
-1
  6
ByLayer
100
AcDbCircle
 10
-50.0
 20
0.0
 30
0.0
 40
10.0
100
AcDbArc
 50
164.4299751458618459
 51
165.5700248541381256
  0
ARC
  5
A7
100
AcDbEntity
  8
0
 62
256
370
-1
  6
ByLayer
100
AcDbCircle
 10
-50.0
 20
0.0
 30
0.0
 40
10.0
100
AcDbArc
 50
174.4299751458618459
 51
175.5700248541381825
  0
ARC
  5
A8
100
AcDbEntity
  8
0
 62
256
370
-1
  6
ByLayer
100
AcDbCircle
 10
-50.0
 20
0.0
 30
0.0
 40
10.0
100
AcDbArc
 50
184.4299751458618175
 51
185.5700248541381541
  0
ARC
  5
A9
100
AcDbEntity
  8
0
 62
256
370
-1
  6
ByLayer
100
AcDbCircle
 10
-50.0
 20
0.0
 30
0.0
 40
10.0
100
AcDbArc
 50
194.4299751458618459
 51
195.5700248541381541
  0
ARC
  5
AA
100
AcDbEntity
  8
0
 62
256
370
-1
  6
ByLayer
100
AcDbCircle
 10
-50.0
 20
0.0
 30
0.0
 40
10.0
100
AcDbArc
 50
204.4299751458618175
 51
205.5700248541381541
  0
ARC
  5
AB
100
AcDbEntity
  8
0
 62
256
370
-1
  6
ByLayer
100
AcDbCircle
 10
-50.0
 20
0.0
 30
0.0
 40
10.0
100
AcDbArc
 50
214.4299751458618459
 51
215.5700248541381256
  0
ARC
  5
AC
100
AcDbEntity
  8
0
 62
256
370
-1
  6
ByLayer
100
AcDbCircle
 10
-50.0
 20
0.0
 30
0.0
 40
10.0
100
AcDbArc
 50
224.4299751458618175
 51
225.5700248541381541
  0
ARC
  5
AD
100
AcDbEntity
  8
0
 62
256
370
-1
  6
ByLayer
100
AcDbCircle
 10
-50.0
 20
0.0
 30
0.0
 40
10.0
100
AcDbArc
 50
234.4299751458618175
 51
235.5700248541381541
  0
ARC
  5
AE
100
AcDbEntity
  8
0
 62
256
370
-1
  6
ByLayer
100
AcDbCircle
 10
-50.0
 20
0.0
 30
0.0
 40
10.0
100
AcDbArc
 50
244.4299751458618175
 51
245.5700248541381541
  0
ARC
  5
AF
100
AcDbEntity
  8
0
 62
256
370
-1
  6
ByLayer
100
AcDbCircle
 10
-50.0
 20
0.0
 30
0.0
 40
10.0
100
AcDbArc
 50
254.4299751458617891
 51
255.5700248541381256
  0
ARC
  5
B0
100
AcDbEntity
  8
0
 62
256
370
-1
  6
ByLayer
100
AcDbCircle
 10
-50.0
 20
0.0
 30
0.0
 40
10.0
100
AcDbArc
 50
84.4299751458618886
 51
85.5700248541381541
  0
ARC
  5
B1
100
AcDbEntity
  8
0
 62
256
370
-1
  6
ByLayer
100
AcDbCircle
 10
-50.0
 20
0.0
 30
0.0
 40
10.0
100
AcDbArc
 50
74.4299751458617749
 51
75.5700248541381114
  0
ARC
  5
B2
100
AcDbEntity
  8
0
 62
256
370
-1
  6
ByLayer
100
AcDbCircle
 10
-50.0
 20
0.0
 30
0.0
 40
10.0
100
AcDbArc
 50
64.4299751458618033
 51
65.5700248541381256
  0
ARC
  5
B3
100
AcDbEntity
  8
0
 62
256
370
-1
  6
ByLayer
100
AcDbCircle
 10
-50.0
 20
0.0
 30
0.0
 40
10.0
100
AcDbArc
 50
54.429975145861782
 51
55.5700248541381256
  0
ARC
  5
B4
100
AcDbEntity
  8
0
 62
256
370
-1
  6
ByLayer
100
AcDbCircle
 10
-50.0
 20
0.0
 30
0.0
 40
10.0
100
AcDbArc
 50
44.4299751458617962
 51
45.570024854138147
  0
ARC
  5
B5
100
AcDbEntity
  8
0
 62
256
370
-1
  6
ByLayer
100
AcDbCircle
 10
-50.0
 20
0.0
 30
0.0
 40
10.0
100
AcDbArc
 50
34.4299751458618388
 51
35.5700248541381896
  0
ARC
  5
B6
100
AcDbEntity
  8
0
 62
256
370
-1
  6
ByLayer
100
AcDbCircle
 10
-50.0
 20
0.0
 30
0.0
 40
10.0
100
AcDbArc
 50
24.4299751458618246
 51
25.5700248541381789
  0
ARC
  5
B7
100
AcDbEntity
  8
0
 62
256
370
-1
  6
ByLayer
100
AcDbCircle
 10
-50.0
 20
0.0
 30
0.0
 40
10.0
100
AcDbArc
 50
14.4299751458618424
 51
15.5700248541381132
  0
ARC
  5
B8
100
AcDbEntity
  8
0
 62
256
370
-1
  6
ByLayer
100
AcDbCircle
 10
-50.0
 20
0.0
 30
0.0
 40
10.0
100
AcDbArc
 50
4.4299751458618282
 51
5.5700248541381105
  0
ARC
  5
B9
100
AcDbEntity
  8
0
 62
256
370
-1
  6
ByLayer
100
AcDbCircle
 10
-50.0
 20
0.0
 30
0.0
 40
10.0
100
AcDbArc
 50
354.4299751458618744
 51
355.5700248541381825
  0
ARC
  5
BA
100
AcDbEntity
  8
0
 62
256
370
-1
  6
ByLayer
100
AcDbCircle
 10
-50.0
 20
0.0
 30
0.0
 40
10.0
100
AcDbArc
 50
344.4299751458618175
 51
345.5700248541381256
  0
ARC
  5
BB
100
AcDbEntity
  8
0
 62
256
370
-1
  6
ByLayer
100
AcDbCircle
 10
-50.0
 20
0.0
 30
0.0
 40
10.0
100
AcDbArc
 50
334.4299751458617607
 51
335.5700248541381256
  0
ARC
  5
BC
100
AcDbEntity
  8
0
 62
256
370
-1
  6
ByLayer
100
AcDbCircle
 10
-50.0
 20
0.0
 30
0.0
 40
10.0
100
AcDbArc
 50
324.4299751458618175
 51
325.5700248541381825
  0
ARC
  5
BD
100
AcDbEntity
  8
0
 62
256
370
-1
  6
ByLayer
100
AcDbCircle
 10
-50.0
 20
0.0
 30
0.0
 40
10.0
100
AcDbArc
 50
314.4299751458618175
 51
315.5700248541381825
  0
ARC
  5
BE
100
AcDbEntity
  8
0
 62
256
370
-1
  6
ByLayer
100
AcDbCircle
 10
-50.0
 20
0.0
 30
0.0
 40
10.0
100
AcDbArc
 50
304.4299751458618175
 51
305.5700248541381825
  0
ARC
  5
BF
100
AcDbEntity
  8
0
 62
256
370
-1
  6
ByLayer
100
AcDbCircle
 10
-50.0
 20
0.0
 30
0.0
 40
10.0
100
AcDbArc
 50
294.4299751458618744
 51
295.5700248541380688
  0
ARC
  5
C0
100
AcDbEntity
  8
0
 62
256
370
-1
  6
ByLayer
100
AcDbCircle
 10
-50.0
 20
0.0
 30
0.0
 40
10.0
100
AcDbArc
 50
284.4299751458618744
 51
285.5700248541381256
  0
ARC
  5
C1
100
AcDbEntity
  8
0
 62
256
370
-1
  6
ByLayer
100
AcDbCircle
 10
-50.0
 20
0.0
 30
0.0
 40
10.0
100
AcDbArc
 50
264.4299751458617607
 51
265.5700248541381256
  0
ARC
  5
C2
100
AcDbEntity
  8
0
 62
256
370
-1
  6
ByLayer
100
AcDbCircle
 10
-50.0
 20
0.0
 30
0.0
 40
10.0
100
AcDbArc
 50
274.4299751458618744
 51
275.5700248541381256
  0
LINE
  5
C3
100
AcDbEntity
100
AcDbLine
  8
0
 62
256
370
-1
  6
ByLayer
 10
-52.7000000000000028
 20
4.2000000000000002
 30
0.0
 11
-47.3000000000000043
 21
4.2000000000000002
 31
0.0
  0
LINE
  5
C4
100
AcDbEntity
100
AcDbLine
  8
0
 62
256
370
-1
  6
ByLayer
 10
-52.7000000000000028
 20
4.2000000000000002
 30
0.0
 11
-52.7000000000000028
 21
1.9000000000000001
 31
0.0
  0
LINE
  5
C5
100
AcDbEntity
100
AcDbLine
  8
0
 62
256
370
-1
  6
ByLayer
 10
-47.3000000000000043
 20
4.2000000000000002
 30
0.0
 11
-47.3000000000000043
 21
1.9000000000000001
 31
0.0
  0
ARC
  5
C6
100
AcDbEntity
  8
0
 62
256
370
-1
  6
ByLayer
100
AcDbCircle
 10
-50.0
 20
0.0
 30
0.0
 40
2.8999999999999972
100
AcDbArc
 50
139.0672754258440591
 51
40.9327245741559551
  0
LINE
  5
C7
100
AcDbEntity
100
AcDbLine
  8
0
 62
256
370
-1
  6
ByLayer
 10
-52.7000000000000028
 20
1.9000000000000001
 30
0.0
 11
-52.1908902300206634
 21
1.9000000000000001
 31
0.0
  0
LINE
  5
C8
100
AcDbEntity
100
AcDbLine
  8
0
 62
256
370
-1
  6
ByLayer
 10
-47.8091097699793366
 20
1.9000000000000001
 30
0.0
 11
-47.3000000000000043
 21
1.9000000000000001
 31
0.0
  0
ENDSEC
  0
SECTION
  2
OBJECTS
  0
DICTIONARY
  5
C
100
AcDbDictionary
280
0
281
1
  3
ACAD_GROUP
350
D
  3
ACAD_LAYOUT
350
1A
  3
ACAD_MLINESTYLE
350
17
  3
ACAD_PLOTSETTINGS
350
19
  3
ACAD_PLOTSTYLENAME
350
E
  3
AcDbVariableDictionary
350
C9
  0
DICTIONARY
  5
D
100
AcDbDictionary
280
0
281
1
  0
ACDBDICTIONARYWDFLT
  5
E
100
AcDbDictionary
281
1
  3
Normal
350
F
100
AcDbDictionaryWithDefault
340
F
  0
ACDBPLACEHOLDER
  5
F
  0
DICTIONARY
  5
17
100
AcDbDictionary
280
0
281
1
  3
Standard
350
18
  0
MLINESTYLE
  5
18
100
AcDbMlineStyle
  2
STANDARD
 70
0
  3

 62
256
 51
90.0
 52
90.0
 71
2
 49
0.5
 62
256
  6
BYLAYER
 49
-0.5
 62
256
  6
BYLAYER
  0
DICTIONARY
  5
19
100
AcDbDictionary
280
0
281
1
  0
DICTIONARY
  5
1A
100
AcDbDictionary
281
1
  3
Layout1
350
1E
  3
Layout2
350
26
  3
Model
350
22
  0
LAYOUT
  5
1E
100
AcDbPlotSettings
  1

  2
C:\Program Files\AutoCAD 2002\plotters\DWF ePlot (optimized for plotting).pc3
  4

  6

 40
0.0
 41
0.0
 42
0.0
 43
0.0
 44
0.0
 45
0.0
 46
0.0
 47
0.0
 48
0.0
 49
0.0
140
0.0
141
0.0
142
1.0
143
1.0
 70
688
 72
0
 73
0
 74
5
  7

 75
16
147
1.0
148
0.0
149
0.0
100
AcDbLayout
  1
Layout1
 70
1
 71
1
 10
0.0
 20
0.0
 11
420.0
 21
297.0
 12
0.0
 22
0.0
 32
0.0
 14
100000000000000000000.0
 24
100000000000000000000.0
 34
100000000000000000000.0
 15
-100000000000000000000.0
 25
-100000000000000000000.0
 35
-100000000000000000000.0
146
0.0
 13
0.0
 23
0.0
 33
0.0
 16
1.0
 26
0.0
 36
0.0
 17
0.0
 27
1.0
 37
0.0
 76
0
330
1B
  0
LAYOUT
  5
22
100
AcDbPlotSettings
  1

  2
C:\Program Files\AutoCAD 2002\plotters\DWF ePlot (optimized for plotting).pc3
  4

  6

 40
0.0
 41
0.0
 42
0.0
 43
0.0
 44
0.0
 45
0.0
 46
0.0
 47
0.0
 48
0.0
 49
0.0
140
0.0
141
0.0
142
1.0
143
1.0
 70
1712
 72
0
 73
0
 74
0
  7

 75
0
147
1.0
148
0.0
149
0.0
100
AcDbLayout
  1
Model
 70
1
 71
0
 10
0.0
 20
0.0
 11
12.0
 21
9.0
 12
0.0
 22
0.0
 32
0.0
 14
0.0
 24
0.0
 34
0.0
 15
0.0
 25
0.0
 35
0.0
146
0.0
 13
0.0
 23
0.0
 33
0.0
 16
1.0
 26
0.0
 36
0.0
 17
0.0
 27
1.0
 37
0.0
 76
0
330
1F
  0
LAYOUT
  5
26
100
AcDbPlotSettings
  1

  2
C:\Program Files\AutoCAD 2002\plotters\DWF ePlot (optimized for plotting).pc3
  4

  6

 40
0.0
 41
0.0
 42
0.0
 43
0.0
 44
0.0
 45
0.0
 46
0.0
 47
0.0
 48
0.0
 49
0.0
140
0.0
141
0.0
142
1.0
143
1.0
 70
688
 72
0
 73
0
 74
5
  7

 75
16
147
1.0
148
0.0
149
0.0
100
AcDbLayout
  1
Layout2
 70
1
 71
2
 10
0.0
 20
0.0
 11
12.0
 21
9.0
 12
0.0
 22
0.0
 32
0.0
 14
0.0
 24
0.0
 34
0.0
 15
0.0
 25
0.0
 35
0.0
146
0.0
 13
0.0
 23
0.0
 33
0.0
 16
1.0
 26
0.0
 36
0.0
 17
0.0
 27
1.0
 37
0.0
 76
0
330
23
  0
DICTIONARY
  5
C9
100
AcDbDictionary
281
1
  3
DIMASSOC
350
CB
  3
HIDETEXT
350
CA
  0
DICTIONARYVAR
  5
CA
100
DictionaryVariables
280
0
  1
2
  0
DICTIONARYVAR
  5
CB
100
DictionaryVariables
280
0
  1
1
  0
ENDSEC
  0
EOF
