999
dxflib 2.1.2.0
  0
SECTION
  2
HEADER
  9
$ACADVER
  1
AC1015
  9
$HANDSEED
  5
FFFF
  9
$DIMASZ
 40
2.5
  9
$PLIMMIN
 10
0.0
 20
0.0
  9
$DIMEXE
 40
1.25
  9
$DIMGAP
 40
0.625
  9
$PLIMMAX
 10
210.0
 20
297.0
  9
$PSVPSCALE
 40
1.0
  9
$PINSBASE
 10
309.1574085234898916
 20
122.9076184228187998
 30
0.0
  9
$INSUNITS
 70
4
  9
$DIMSTYLE
  2
Standard
  9
$CLAYER
  8
Y Drawings
  9
$DIMEXO
 40
0.625
  9
$DIMTXT
 40
2.5
  9
$CLAYER
  8
Y Drawings
  0
ENDSEC
  0
SECTION
  2
TABLES
  0
TABLE
  2
VPORT
  5
8
100
AcDbSymbolTable
 70
1
  0
VPORT
  5
30
100
AcDbSymbolTableRecord
100
AcDbViewportTableRecord
  2
*Active
 70
0
 10
0.0
 20
0.0
 11
1.0
 21
1.0
 12
286.3055555555554861
 22
148.5
 13
0.0
 23
0.0
 14
10.0
 24
10.0
 15
10.0
 25
10.0
 16
0.0
 26
0.0
 36
1.0
 17
0.0
 27
0.0
 37
0.0
 40
297.0
 41
1.92798353909465
 42
50.0
 43
0.0
 44
0.0
 50
0.0
 51
0.0
 71
0
 72
100
 73
1
 74
3
 75
1
 76
1
 77
0
 78
0
281
0
 65
1
110
0.0
120
0.0
130
0.0
111
1.0
121
0.0
131
0.0
112
0.0
122
1.0
132
0.0
 79
0
146
0.0
  0
ENDTAB
  0
TABLE
  2
LTYPE
  5
5
100
AcDbSymbolTable
 70
21
  0
LTYPE
  5
14
100
AcDbSymbolTableRecord
100
AcDbLinetypeTableRecord
  2
ByBlock
 70
0
  3

 72
65
 73
0
 40
0.0
  0
LTYPE
  5
15
100
AcDbSymbolTableRecord
100
AcDbLinetypeTableRecord
  2
ByLayer
 70
0
  3

 72
65
 73
0
 40
0.0
  0
LTYPE
  5
16
100
AcDbSymbolTableRecord
100
AcDbLinetypeTableRecord
  2
CONTINUOUS
 70
0
  3
Solid line
 72
65
 73
0
 40
0.0
  0
LTYPE
  5
31
100
AcDbSymbolTableRecord
100
AcDbLinetypeTableRecord
  2
DOT
 70
0
  3
Dot . . . . . . . . . . . . . . . . . . . . . .
 72
65
 73
2
 40
6.3499999999999996
 49
0.0
 74
0
 49
-6.3499999999999996
 74
0
  0
LTYPE
  5
32
100
AcDbSymbolTableRecord
100
AcDbLinetypeTableRecord
  2
DOT2
 70
0
  3
Dot (.5x) .....................................
 72
65
 73
2
 40
3.1749999999999998
 49
0.0
 74
0
 49
-3.1749999999999998
 74
0
  0
LTYPE
  5
33
100
AcDbSymbolTableRecord
100
AcDbLinetypeTableRecord
  2
DOTX2
 70
0
  3
Dot (2x) .  .  .  .  .  .  .  .  .  .  .  .  .
 72
65
 73
2
 40
12.6999999999999993
 49
0.0
 74
0
 49
-12.6999999999999993
 74
0
  0
LTYPE
  5
34
100
AcDbSymbolTableRecord
100
AcDbLinetypeTableRecord
  2
DASHED
 70
0
  3
Dashed __ __ __ __ __ __ __ __ __ __ __ __ __ _
 72
65
 73
2
 40
19.0500000000000007
 49
12.6999999999999993
 74
0
 49
-6.3499999999999996
 74
0
  0
LTYPE
  5
35
100
AcDbSymbolTableRecord
100
AcDbLinetypeTableRecord
  2
DASHED2
 70
0
  3
Dashed (.5x) _ _ _ _ _ _ _ _ _ _ _ _ _ _ _ _ _
 72
65
 73
2
 40
9.5250000000000004
 49
6.3499999999999996
 74
0
 49
-3.1749999999999998
 74
0
  0
LTYPE
  5
36
100
AcDbSymbolTableRecord
100
AcDbLinetypeTableRecord
  2
DASHEDX2
 70
0
  3
Dashed (2x) ____  ____  ____  ____  ____  ___
 72
65
 73
2
 40
38.1000000000000014
 49
25.3999999999999986
 74
0
 49
-12.6999999999999993
 74
0
  0
LTYPE
  5
37
100
AcDbSymbolTableRecord
100
AcDbLinetypeTableRecord
  2
DASHDOT
 70
0
  3
Dash dot __ . __ . __ . __ . __ . __ . __ . __
 72
65
 73
4
 40
25.3999999999999986
 49
12.6999999999999993
 74
0
 49
-6.3499999999999996
 74
0
 49
0.0
 74
0
 49
-6.3499999999999996
 74
0
  0
LTYPE
  5
38
100
AcDbSymbolTableRecord
100
AcDbLinetypeTableRecord
  2
DASHDOT2
 70
0
  3
Dash dot (.5x) _._._._._._._._._._._._._._._.
 72
65
 73
4
 40
12.6999999999999993
 49
6.3499999999999996
 74
0
 49
-3.1749999999999998
 74
0
 49
0.0
 74
0
 49
-3.1749999999999998
 74
0
  0
LTYPE
  5
39
100
AcDbSymbolTableRecord
100
AcDbLinetypeTableRecord
  2
DASHDOTX2
 70
0
  3
Dash dot (2x) ____  .  ____  .  ____  .  ___
 72
65
 73
4
 40
50.7999999999999972
 49
25.3999999999999986
 74
0
 49
-12.6999999999999993
 74
0
 49
0.0
 74
0
 49
-12.6999999999999993
 74
0
  0
LTYPE
  5
3A
100
AcDbSymbolTableRecord
100
AcDbLinetypeTableRecord
  2
DIVIDE
 70
0
  3
Divide ____ . . ____ . . ____ . . ____ . . ____
 72
65
 73
6
 40
31.75
 49
12.6999999999999993
 74
0
 49
-6.3499999999999996
 74
0
 49
0.0
 74
0
 49
-6.3499999999999996
 74
0
 49
0.0
 74
0
 49
-6.3499999999999996
 74
0
  0
LTYPE
  5
3B
100
AcDbSymbolTableRecord
100
AcDbLinetypeTableRecord
  2
DIVIDE2
 70
0
  3
Divide (.5x) __..__..__..__..__..__..__..__.._
 72
65
 73
6
 40
15.875
 49
6.3499999999999996
 74
0
 49
-3.1749999999999998
 74
0
 49
0.0
 74
0
 49
-3.1749999999999998
 74
0
 49
0.0
 74
0
 49
-3.1749999999999998
 74
0
  0
LTYPE
  5
3C
100
AcDbSymbolTableRecord
100
AcDbLinetypeTableRecord
  2
DIVIDEX2
 70
0
  3
Divide (2x) ________  .  .  ________  .  .  _
 72
65
 73
6
 40
63.5
 49
25.3999999999999986
 74
0
 49
-12.6999999999999993
 74
0
 49
0.0
 74
0
 49
-12.6999999999999993
 74
0
 49
0.0
 74
0
 49
-12.6999999999999993
 74
0
  0
LTYPE
  5
3D
100
AcDbSymbolTableRecord
100
AcDbLinetypeTableRecord
  2
CENTER
 70
0
  3
Center ____ _ ____ _ ____ _ ____ _ ____ _ ____
 72
65
 73
4
 40
50.7999999999999972
 49
31.75
 74
0
 49
-6.3499999999999996
 74
0
 49
6.3499999999999996
 74
0
 49
-6.3499999999999996
 74
0
  0
LTYPE
  5
3E
100
AcDbSymbolTableRecord
100
AcDbLinetypeTableRecord
  2
CENTER2
 70
0
  3
Center (.5x) ___ _ ___ _ ___ _ ___ _ ___ _ ___
 72
65
 73
4
 40
28.5749999999999993
 49
19.0500000000000007
 74
0
 49
-3.1749999999999998
 74
0
 49
3.1749999999999998
 74
0
 49
-3.1749999999999998
 74
0
  0
LTYPE
  5
3F
100
AcDbSymbolTableRecord
100
AcDbLinetypeTableRecord
  2
CENTERX2
 70
0
  3
Center (2x) ________  __  ________  __  _____
 72
65
 73
4
 40
101.5999999999999943
 49
63.5
 74
0
 49
-12.6999999999999993
 74
0
 49
12.6999999999999993
 74
0
 49
-12.6999999999999993
 74
0
  0
LTYPE
  5
40
100
AcDbSymbolTableRecord
100
AcDbLinetypeTableRecord
  2
BORDER
 70
0
  3
Border __ __ . __ __ . __ __ . __ __ . __ __ .
 72
65
 73
6
 40
44.4500000000000028
 49
12.6999999999999993
 74
0
 49
-6.3499999999999996
 74
0
 49
12.6999999999999993
 74
0
 49
-6.3499999999999996
 74
0
 49
0.0
 74
0
 49
-6.3499999999999996
 74
0
  0
LTYPE
  5
41
100
AcDbSymbolTableRecord
100
AcDbLinetypeTableRecord
  2
BORDER2
 70
0
  3
Border (.5x) __.__.__.__.__.__.__.__.__.__.__.
 72
65
 73
6
 40
22.2250000000000014
 49
6.3499999999999996
 74
0
 49
-3.1749999999999998
 74
0
 49
6.3499999999999996
 74
0
 49
-3.1749999999999998
 74
0
 49
0.0
 74
0
 49
-3.1749999999999998
 74
0
  0
LTYPE
  5
42
100
AcDbSymbolTableRecord
100
AcDbLinetypeTableRecord
  2
BORDERX2
 70
0
  3
Border (2x) ____  ____  .  ____  ____  .  ___
 72
65
 73
6
 40
88.9000000000000057
 49
25.3999999999999986
 74
0
 49
-12.6999999999999993
 74
0
 49
25.3999999999999986
 74
0
 49
-12.6999999999999993
 74
0
 49
0.0
 74
0
 49
-12.6999999999999993
 74
0
  0
ENDTAB
  0
TABLE
  2
LAYER
  5
2
100
AcDbSymbolTable
 70
25
  0
LAYER
  5
10
100
AcDbSymbolTableRecord
100
AcDbLayerTableRecord
  2
0
 70
0
 62
7
  6
CONTINUOUS
370
0
390
F
  0
LAYER
  5
43
100
AcDbSymbolTableRecord
100
AcDbLayerTableRecord
  2
Base Drawings
 70
0
 62
4
  6
CONTINUOUS
370
0
390
F
  0
LAYER
  5
44
100
AcDbSymbolTableRecord
100
AcDbLayerTableRecord
  2
Base
 70
0
 62
1
  6
CONTINUOUS
370
0
390
F
  0
LAYER
  5
45
100
AcDbSymbolTableRecord
100
AcDbLayerTableRecord
  2
X Rails
 70
0
 62
81
  6
CONTINUOUS
370
0
390
F
  0
LAYER
  5
46
100
AcDbSymbolTableRecord
100
AcDbLayerTableRecord
  2
X Stage
 70
0
 62
3
  6
CONTINUOUS
370
0
390
F
  0
LAYER
  5
47
100
AcDbSymbolTableRecord
100
AcDbLayerTableRecord
  2
Y Rails
 70
0
 62
171
  6
CONTINUOUS
370
0
390
F
  0
LAYER
  5
48
100
AcDbSymbolTableRecord
100
AcDbLayerTableRecord
  2
Y Stage
 70
0
 62
5
  6
CONTINUOUS
370
0
390
F
  0
LAYER
  5
49
100
AcDbSymbolTableRecord
100
AcDbLayerTableRecord
  2
Y Drawings
 70
0
 62
4
  6
CONTINUOUS
370
0
390
F
  0
LAYER
  5
4A
100
AcDbSymbolTableRecord
100
AcDbLayerTableRecord
  2
X Drive
 70
0
 62
76
  6
CONTINUOUS
370
0
390
F
  0
LAYER
  5
4B
100
AcDbSymbolTableRecord
100
AcDbLayerTableRecord
  2
Y Drive
 70
0
 62
166
  6
CONTINUOUS
370
0
390
F
  0
LAYER
  5
4C
100
AcDbSymbolTableRecord
100
AcDbLayerTableRecord
  2
X Text
 70
0
 62
81
  6
CONTINUOUS
370
0
390
F
  0
LAYER
  5
4D
100
AcDbSymbolTableRecord
100
AcDbLayerTableRecord
  2
Y Text
 70
0
 62
171
  6
CONTINUOUS
370
0
390
F
  0
LAYER
  5
4E
100
AcDbSymbolTableRecord
100
AcDbLayerTableRecord
  2
Base Measurements
 70
0
 62
2
  6
CONTINUOUS
370
0
390
F
  0
LAYER
  5
4F
100
AcDbSymbolTableRecord
100
AcDbLayerTableRecord
  2
X Measurements
 70
0
 62
2
  6
CONTINUOUS
370
0
390
F
  0
LAYER
  5
50
100
AcDbSymbolTableRecord
100
AcDbLayerTableRecord
  2
X Drawings
 70
0
 62
4
  6
CONTINUOUS
370
0
390
F
  0
LAYER
  5
51
100
AcDbSymbolTableRecord
100
AcDbLayerTableRecord
  2
Y Measurements
 70
0
 62
2
  6
CONTINUOUS
370
0
390
F
  0
LAYER
  5
52
100
AcDbSymbolTableRecord
100
AcDbLayerTableRecord
  2
Steel Pipes
 70
0
 62
6
  6
CONTINUOUS
370
0
390
F
  0
LAYER
  5
53
100
AcDbSymbolTableRecord
100
AcDbLayerTableRecord
  2
Drawings
 70
0
 62
2
  6
CONTINUOUS
370
0
390
F
  0
LAYER
  5
54
100
AcDbSymbolTableRecord
100
AcDbLayerTableRecord
  2
Rails
 70
0
 62
3
  6
CONTINUOUS
370
0
390
F
  0
LAYER
  5
55
100
AcDbSymbolTableRecord
100
AcDbLayerTableRecord
  2
Y Rail Support
 70
0
 62
183
  6
CONTINUOUS
370
0
390
F
  0
LAYER
  5
56
100
AcDbSymbolTableRecord
100
AcDbLayerTableRecord
  2
X Rail Support
 70
0
 62
103
  6
CONTINUOUS
370
0
390
F
  0
LAYER
  5
57
100
AcDbSymbolTableRecord
100
AcDbLayerTableRecord
  2
Acrylic
 70
0
 62
1
  6
CONTINUOUS
370
0
390
F
  0
LAYER
  5
58
100
AcDbSymbolTableRecord
100
AcDbLayerTableRecord
  2
Text
 70
0
 62
6
  6
CONTINUOUS
370
0
390
F
  0
LAYER
  5
59
100
AcDbSymbolTableRecord
100
AcDbLayerTableRecord
  2
X Endstops
 70
0
 62
7
  6
CONTINUOUS
370
0
390
F
  0
LAYER
  5
5A
100
AcDbSymbolTableRecord
100
AcDbLayerTableRecord
  2
Y Endstops
 70
0
 62
7
  6
CONTINUOUS
370
0
390
F
  0
ENDTAB
  0
TABLE
  2
STYLE
  5
3
100
AcDbSymbolTable
 70
1
  0
STYLE
  5
11
100
AcDbSymbolTableRecord
100
AcDbTextStyleTableRecord
  2
Standard
 70
0
 40
0.0
 41
0.75
 50
0.0
 71
0
 42
2.5
  3
txt
  4

  0
ENDTAB
  0
TABLE
  2
VIEW
  5
6
100
AcDbSymbolTable
 70
0
  0
ENDTAB
  0
TABLE
  2
UCS
  5
7
100
AcDbSymbolTable
 70
0
  0
ENDTAB
  0
TABLE
  2
APPID
  5
9
100
AcDbSymbolTable
 70
1
  0
APPID
  5
12
100
AcDbSymbolTableRecord
100
AcDbRegAppTableRecord
  2
ACAD
 70
0
  0
ENDTAB
  0
TABLE
  2
DIMSTYLE
  5
A
100
AcDbSymbolTable
 70
1
100
AcDbDimStyleTable
 71
0
  0
DIMSTYLE
105
27
100
AcDbSymbolTableRecord
100
AcDbDimStyleTableRecord
  2
Standard
 41
2.5
 42
0.625
 43
3.75
 44
1.25
 70
0
 73
0
 74
0
 77
1
 78
8
140
2.5
141
2.5
143
0.03937007874016
147
0.625
171
3
172
1
271
2
272
2
274
3
278
44
283
0
284
8
340
11
  0
ENDTAB
  0
TABLE
  2
BLOCK_RECORD
  5
1
100
AcDbSymbolTable
 70
1
  0
BLOCK_RECORD
  5
1F
100
AcDbSymbolTableRecord
100
AcDbBlockTableRecord
  2
*Model_Space
340
22
  0
BLOCK_RECORD
  5
1B
100
AcDbSymbolTableRecord
100
AcDbBlockTableRecord
  2
*Paper_Space
340
1E
  0
BLOCK_RECORD
  5
23
100
AcDbSymbolTableRecord
100
AcDbBlockTableRecord
  2
*Paper_Space0
340
26
  0
ENDTAB
  0
ENDSEC
  0
SECTION
  2
BLOCKS
  0
BLOCK
  5
20
100
AcDbEntity
  8
0
100
AcDbBlockBegin
  2
*Model_Space
 70
0
 10
0.0
 20
0.0
 30
0.0
  3
*Model_Space
  1

  0
ENDBLK
  5
21
100
AcDbEntity
  8
0
100
AcDbBlockEnd
  0
BLOCK
  5
1C
100
AcDbEntity
 67
1
  8
0
100
AcDbBlockBegin
  2
*Paper_Space
 70
0
 10
0.0
 20
0.0
 30
0.0
  3
*Paper_Space
  1

  0
ENDBLK
  5
1D
100
AcDbEntity
 67
1
  8
0
100
AcDbBlockEnd
  0
BLOCK
  5
24
100
AcDbEntity
  8
0
100
AcDbBlockBegin
  2
*Paper_Space0
 70
0
 10
0.0
 20
0.0
 30
0.0
  3
*Paper_Space0
  1

  0
ENDBLK
  5
25
100
AcDbEntity
  8
0
100
AcDbBlockEnd
  0
ENDSEC
  0
SECTION
  2
ENTITIES
  0
LINE
  5
5B
100
AcDbEntity
100
AcDbLine
  8
Base Drawings
 62
256
370
-1
  6
ByLayer
 10
259.9999999999998863
 20
259.0
 30
0.0
 11
259.9999999999999432
 21
-50.0500000000000114
 31
0.0
  0
LINE
  5
5C
100
AcDbEntity
100
AcDbLine
  8
Steel Pipes
 62
256
370
-1
  6
ByLayer
 10
276.6999999999998749
 20
275.6999999999999886
 30
0.0
 11
276.6999999999999318
 21
-50.0500000000000185
 31
0.0
  0
LINE
  5
5D
100
AcDbEntity
100
AcDbLine
  8
Steel Pipes
 62
256
370
-1
  6
ByLayer
 10
243.2999999999998977
 20
242.3000000000000114
 30
0.0
 11
243.2999999999999545
 21
-50.0500000000000043
 31
0.0
  0
LINE
  5
5E
100
AcDbEntity
100
AcDbLine
  8
Steel Pipes
 62
256
370
-1
  6
ByLayer
 10
221.899999999999892
 20
275.6999999999999886
 30
0.0
 11
221.899999999999892
 21
242.3000000000000114
 31
0.0
  0
LINE
  5
5F
100
AcDbEntity
100
AcDbLine
  8
Steel Pipes
 62
256
370
-1
  6
ByLayer
 10
243.2999999999998977
 20
220.9000000000000057
 30
0.0
 11
276.6999999999998749
 21
220.9000000000000057
 31
0.0
  0
LINE
  5
60
100
AcDbEntity
100
AcDbLine
  8
Base Drawings
 62
256
370
-1
  6
ByLayer
 10
10.0
 20
259.0
 30
0.0
 11
10.0
 21
-30.6250000000000036
 31
0.0
  0
LINE
  5
61
100
AcDbEntity
100
AcDbLine
  8
Base Drawings
 62
256
370
-1
  6
ByLayer
 10
9.9999999999999716
 20
319.0
 30
0.0
 11
9.9999999999999716
 21
233.0
 31
0.0
  0
LINE
  5
62
100
AcDbEntity
100
AcDbLine
  8
Steel Pipes
 62
256
370
-1
  6
ByLayer
 10
-28.1000000000000014
 20
275.6999999999999886
 30
0.0
 11
-28.1000000000000014
 21
242.3000000000000114
 31
0.0
  0
LINE
  5
63
100
AcDbEntity
100
AcDbLine
  8
Steel Pipes
 62
256
370
-1
  6
ByLayer
 10
48.1000000000000014
 20
275.6999999999999886
 30
0.0
 11
48.1000000000000014
 21
242.3000000000000114
 31
0.0
  0
LINE
  5
64
100
AcDbEntity
100
AcDbLine
  8
Steel Pipes
 62
256
370
-1
  6
ByLayer
 10
276.6999999999999318
 20
-50.0500000000000185
 30
0.0
 11
243.2999999999999545
 21
-50.0500000000000043
 31
0.0
  0
CIRCLE
  5
65
100
AcDbEntity
100
AcDbCircle
  8
Steel Pipes
 62
256
370
-1
  6
ByLayer
 10
10.0
 20
259.0
 30
0.0
 40
12.6999999999999993
  0
POINT
  5
66
100
AcDbEntity
100
AcDbPoint
  8
Base
 62
256
370
-1
  6
ByLayer
 10
0.0
 20
129.4226952075242707
 30
0.0
  0
ARC
  5
67
100
AcDbEntity
  8
X Stage
 62
256
370
-1
  6
ByLayer
100
AcDbCircle
 10
260.0
 20
139.4226952075242707
 30
0.0
 40
10.0
100
AcDbArc
 50
0.0
 51
90.0
  0
LINE
  5
68
100
AcDbEntity
100
AcDbLine
  8
Base Drawings
 62
256
370
-1
  6
ByLayer
 10
20.0
 20
-31.5773047924757329
 30
0.0
 11
20.0000000000000071
 21
-12.5273047924757339
 31
0.0
  0
LINE
  5
69
100
AcDbEntity
100
AcDbLine
  8
Base Drawings
 62
256
370
-1
  6
ByLayer
 10
250.0
 20
-12.5273047924757215
 30
0.0
 11
250.0
 21
-31.5773047924757222
 31
0.0
  0
LINE
  5
6A
100
AcDbEntity
100
AcDbLine
  8
Base Drawings
 62
256
370
-1
  6
ByLayer
 10
20.0000000000000497
 20
129.4226952075242707
 30
0.0
 11
20.0000000000000426
 21
110.3726952075242593
 31
0.0
  0
LINE
  5
6B
100
AcDbEntity
100
AcDbLine
  8
Base Drawings
 62
256
370
-1
  6
ByLayer
 10
250.0
 20
129.4226952075242707
 30
0.0
 11
250.0
 21
110.3726952075242735
 31
0.0
  0
ARC
  5
6C
100
AcDbEntity
  8
Y Stage
 62
256
370
-1
  6
ByLayer
100
AcDbCircle
 10
260.0
 20
139.4226952075242707
 30
0.0
 40
10.0
100
AcDbArc
 50
0.0
 51
90.0
  0
LINE
  5
6D
100
AcDbEntity
100
AcDbLine
  8
Y Drawings
 62
256
370
-1
  6
ByLayer
 10
230.4749999999999943
 20
139.4226952075242707
 30
0.0
 11
250.0
 21
139.4226952075242707
 31
0.0
  0
LINE
  5
6E
100
AcDbEntity
100
AcDbLine
  8
Y Drawings
 62
256
370
-1
  6
ByLayer
 10
230.4749999999999943
 20
-40.5773047924757293
 30
0.0
 11
250.0
 21
-40.5773047924757293
 31
0.0
  0
LINE
  5
6F
100
AcDbEntity
100
AcDbLine
  8
Y Drawings
 62
256
370
-1
  6
ByLayer
 10
230.4749999999999943
 20
19.4226952075242707
 30
0.0
 11
250.0
 21
19.4226952075242707
 31
0.0
  0
LINE
  5
70
100
AcDbEntity
100
AcDbLine
  8
Y Drawings
 62
256
370
-1
  6
ByLayer
 10
230.4749999999999943
 20
79.4226952075242707
 30
0.0
 11
250.0
 21
79.4226952075242707
 31
0.0
  0
LINE
  5
71
100
AcDbEntity
100
AcDbLine
  8
Y Drawings
 62
256
370
-1
  6
ByLayer
 10
19.524999999999995
 20
139.4226952075242707
 30
0.0
 11
39.0499999999999972
 21
139.4226952075242707
 31
0.0
  0
LINE
  5
72
100
AcDbEntity
100
AcDbLine
  8
Y Drawings
 62
256
370
-1
  6
ByLayer
 10
39.0499999999999829
 20
-40.5773047924757293
 30
0.0
 11
19.5249999999999915
 21
-40.5773047924757293
 31
0.0
  0
LINE
  5
73
100
AcDbEntity
100
AcDbLine
  8
Y Drawings
 62
256
370
-1
  6
ByLayer
 10
19.5249999999999844
 20
79.4226952075242707
 30
0.0
 11
39.0499999999999829
 21
79.4226952075242707
 31
0.0
  0
LINE
  5
74
100
AcDbEntity
100
AcDbLine
  8
Y Drawings
 62
256
370
-1
  6
ByLayer
 10
39.0500000000000043
 20
19.4226952075242707
 30
0.0
 11
19.5250000000000092
 21
19.4226952075242707
 31
0.0
  0
LINE
  5
75
100
AcDbEntity
100
AcDbLine
  8
Y Drawings
 62
256
370
-1
  6
ByLayer
 10
134.7624999999999886
 20
149.4226952075242423
 30
0.0
 11
134.7624999999999886
 21
-50.5773047924757506
 31
0.0
  0
LINE
  5
76
100
AcDbEntity
100
AcDbLine
  8
X Drawings
 62
256
370
-1
  6
ByLayer
 10
270.0
 20
27.4726952075242679
 30
0.0
 11
210.0
 21
27.4726952075242679
 31
0.0
  0
CIRCLE
  5
77
100
AcDbEntity
100
AcDbCircle
  8
Base
 62
256
370
-1
  6
ByLayer
 10
260.0
 20
-22.0523047924757307
 30
0.0
 40
2.0
  0
CIRCLE
  5
78
100
AcDbEntity
100
AcDbCircle
  8
Base
 62
256
370
-1
  6
ByLayer
 10
260.0
 20
119.897695207524265
 30
0.0
 40
2.0
  0
LINE
  5
79
100
AcDbEntity
100
AcDbLine
  8
Base Drawings
 62
256
370
-1
  6
ByLayer
 10
-0.0000000000000018
 20
-60.6273047924757336
 30
0.0
 11
270.0
 21
-60.6273047924757336
 31
0.0
  0
LINE
  5
7A
100
AcDbEntity
100
AcDbLine
  8
X Drawings
 62
256
370
-1
  6
ByLayer
 10
210.0
 20
27.4726952075242679
 30
0.0
 11
210.0
 21
-42.5773047924757293
 31
0.0
  0
CIRCLE
  5
7B
100
AcDbEntity
100
AcDbCircle
  8
X Stage
 62
256
370
-1
  6
ByLayer
 10
60.0
 20
-42.5773047924757293
 30
0.0
 40
3.96875
  0
CIRCLE
  5
7C
100
AcDbEntity
100
AcDbCircle
  8
X Stage
 62
256
370
-1
  6
ByLayer
 10
210.0
 20
-42.5773047924757293
 30
0.0
 40
3.96875
  0
CIRCLE
  5
7D
100
AcDbEntity
100
AcDbCircle
  8
X Stage
 62
256
370
-1
  6
ByLayer
 10
240.4749999999999943
 20
139.4226952075242707
 30
0.0
 40
3.96875
  0
CIRCLE
  5
7E
100
AcDbEntity
100
AcDbCircle
  8
X Stage
 62
256
370
-1
  6
ByLayer
 10
240.4749999999999943
 20
-40.5773047924757293
 30
0.0
 40
3.96875
  0
CIRCLE
  5
7F
100
AcDbEntity
100
AcDbCircle
  8
X Stage
 62
256
370
-1
  6
ByLayer
 10
29.0499999999999901
 20
-40.5773047924757293
 30
0.0
 40
3.96875
  0
CIRCLE
  5
80
100
AcDbEntity
100
AcDbCircle
  8
X Stage
 62
256
370
-1
  6
ByLayer
 10
29.0499999999999972
 20
139.4226952075242707
 30
0.0
 40
3.96875
  0
CIRCLE
  5
81
100
AcDbEntity
100
AcDbCircle
  8
X Text
 62
256
370
-1
  6
ByLayer
 10
60.0
 20
-42.5773047924757293
 30
0.0
 40
7.5650000000000004
  0
CIRCLE
  5
82
100
AcDbEntity
100
AcDbCircle
  8
X Text
 62
256
370
-1
  6
ByLayer
 10
210.0
 20
-42.5773047924757293
 30
0.0
 40
7.5650000000000004
  0
LINE
  5
83
100
AcDbEntity
100
AcDbLine
  8
X Drawings
 62
256
370
-1
  6
ByLayer
 10
276.6999999999999318
 20
27.4726952075242679
 30
0.0
 11
60.0000000000000284
 21
27.4726952075242679
 31
0.0
  0
LINE
  5
84
100
AcDbEntity
100
AcDbLine
  8
X Drawings
 62
256
370
-1
  6
ByLayer
 10
60.0000000000000284
 20
27.4726952075242679
 30
0.0
 11
60.0
 21
-42.5773047924757293
 31
0.0
  0
CIRCLE
  5
85
100
AcDbEntity
100
AcDbCircle
  8
X Drawings
 62
256
370
-1
  6
ByLayer
 10
210.0
 20
-42.5773047924757293
 30
0.0
 40
11.0
  0
CIRCLE
  5
86
100
AcDbEntity
100
AcDbCircle
  8
X Drawings
 62
256
370
-1
  6
ByLayer
 10
60.0
 20
-42.5773047924757293
 30
0.0
 40
11.0
  0
LINE
  5
87
100
AcDbEntity
100
AcDbLine
  8
Y Drawings
 62
256
370
-1
  6
ByLayer
 10
8.5249999999999986
 20
149.4226952075242707
 30
0.0
 11
8.5249999999999808
 21
-176.0773047924757293
 31
0.0
  0
ARC
  5
88
100
AcDbEntity
  8
Y Stage
 62
256
370
-1
  6
ByLayer
100
AcDbCircle
 10
6.5249999999999977
 20
139.4226952075242707
 30
0.0
 40
10.0
100
AcDbArc
 50
90.0
 51
180.0
  0
LINE
  5
89
100
AcDbEntity
100
AcDbLine
  8
Y Drawings
 62
256
370
-1
  6
ByLayer
 10
79.0499999999999972
 20
149.4226952075242707
 30
0.0
 11
79.0500000000000682
 21
-50.5773047924757577
 31
0.0
  0
ARC
  5
8A
100
AcDbEntity
  8
X Stage
 62
256
370
-1
  6
ByLayer
100
AcDbCircle
 10
260.0
 20
-44.5773047924757293
 30
0.0
 40
10.0
100
AcDbArc
 50
270.0
 51
0.0
  0
LINE
  5
8B
100
AcDbEntity
100
AcDbLine
  8
Y Stage
 62
256
370
-1
  6
ByLayer
 10
270.0
 20
139.4226952075242707
 30
0.0
 11
270.0
 21
-44.5773047924757293
 31
0.0
  0
ARC
  5
8C
100
AcDbEntity
  8
Y Stage
 62
256
370
-1
  6
ByLayer
100
AcDbCircle
 10
260.0
 20
-44.5773047924757293
 30
0.0
 40
10.0
100
AcDbArc
 50
270.0
 51
0.0
  0
LINE
  5
8D
100
AcDbEntity
100
AcDbLine
  8
Y Stage
 62
256
370
-1
  6
ByLayer
 10
-3.4750000000000019
 20
139.4226952075242707
 30
0.0
 11
-3.4750000000000116
 21
-44.5773047924757293
 31
0.0
  0
ARC
  5
8E
100
AcDbEntity
  8
Y Stage
 62
256
370
-1
  6
ByLayer
100
AcDbCircle
 10
6.5249999999999879
 20
-44.5773047924757293
 30
0.0
 40
10.0
100
AcDbArc
 50
180.0
 51
270.0
  0
LINE
  5
8F
100
AcDbEntity
100
AcDbLine
  8
X Stage
 62
256
370
-1
  6
ByLayer
 10
6.5249999999999977
 20
149.4226952075242707
 30
0.0
 11
260.0
 21
149.4226952075242707
 31
0.0
  0
ARC
  5
90
100
AcDbEntity
  8
X Stage
 62
256
370
-1
  6
ByLayer
100
AcDbCircle
 10
6.5249999999999977
 20
139.4226952075242707
 30
0.0
 40
10.0
100
AcDbArc
 50
90.0
 51
180.0
  0
LINE
  5
91
100
AcDbEntity
100
AcDbLine
  8
X Stage
 62
256
370
-1
  6
ByLayer
 10
260.0
 20
-54.5773047924757293
 30
0.0
 11
6.5250000000000057
 21
-54.5773047924757293
 31
0.0
  0
ARC
  5
92
100
AcDbEntity
  8
X Stage
 62
256
370
-1
  6
ByLayer
100
AcDbCircle
 10
6.5249999999999977
 20
-44.5773047924757293
 30
0.0
 40
10.0
100
AcDbArc
 50
180.0
 51
270.0000000000000568
  0
LINE
  5
93
100
AcDbEntity
100
AcDbLine
  8
Y Drawings
 62
256
370
-1
  6
ByLayer
 10
16.0500000000000043
 20
19.4226952075242743
 30
0.0
 11
16.0500000000000043
 21
19.4226952075242743
 31
0.0
  0
LINE
  5
94
100
AcDbEntity
100
AcDbLine
  8
X Drive
 62
256
370
-1
  6
ByLayer
 10
-3.4750000000000174
 20
52.0976952075242679
 30
0.0
 11
-3.4750000000000174
 21
45.7476952075242735
 31
0.0
  0
LINE
  5
95
100
AcDbEntity
100
AcDbLine
  8
X Drawings
 62
256
370
-1
  6
ByLayer
 10
-3.4750000000000156
 20
81.4664452075242735
 30
0.0
 11
-3.4750000000000156
 21
16.3789452075242536
 31
0.0
  0
LINE
  5
96
100
AcDbEntity
100
AcDbLine
  8
X Drawings
 62
256
370
-1
  6
ByLayer
 10
6.050000000000006
 20
81.4664452075242735
 30
0.0
 11
6.050000000000006
 21
16.3789452075242679
 31
0.0
  0
LINE
  5
97
100
AcDbEntity
100
AcDbLine
  8
X Drawings
 62
256
370
-1
  6
ByLayer
 10
15.5750000000000064
 20
81.4664452075242735
 30
0.0
 11
15.5750000000000064
 21
16.3789452075242679
 31
0.0
  0
LINE
  5
98
100
AcDbEntity
100
AcDbLine
  8
X Drawings
 62
256
370
-1
  6
ByLayer
 10
-3.4750000000000156
 20
81.4664452075242735
 30
0.0
 11
15.5750000000000028
 21
81.4664452075242735
 31
0.0
  0
LINE
  5
99
100
AcDbEntity
100
AcDbLine
  8
X Drawings
 62
256
370
-1
  6
ByLayer
 10
-3.4750000000000161
 20
71.9414452075242679
 30
0.0
 11
15.5750000000000028
 21
71.9414452075242679
 31
0.0
  0
LINE
  5
9A
100
AcDbEntity
100
AcDbLine
  8
X Drawings
 62
256
370
-1
  6
ByLayer
 10
-3.4750000000000218
 20
25.9039452075242735
 30
0.0
 11
15.5750000000000064
 21
25.9039452075242735
 31
0.0
  0
LINE
  5
9B
100
AcDbEntity
100
AcDbLine
  8
X Drawings
 62
256
370
-1
  6
ByLayer
 10
-3.4750000000000232
 20
16.3789452075242679
 30
0.0
 11
15.5750000000000064
 21
16.3789452075242679
 31
0.0
  0
LINE
  5
9C
100
AcDbEntity
100
AcDbLine
  8
X Drawings
 62
256
370
-1
  6
ByLayer
 10
190.9499999999999886
 20
27.472695207524275
 30
0.0
 11
190.9499999999999886
 21
-42.5773047924757222
 31
0.0
  0
CIRCLE
  5
9D
100
AcDbEntity
100
AcDbCircle
  8
X Drawings
 62
256
370
-1
  6
ByLayer
 10
190.9499999999999886
 20
27.472695207524275
 30
0.0
 40
10.0
  0
CIRCLE
  5
9E
100
AcDbEntity
100
AcDbCircle
  8
X Text
 62
256
370
-1
  6
ByLayer
 10
190.9499999999999886
 20
27.472695207524275
 30
0.0
 40
7.5650000000000004
  0
CIRCLE
  5
9F
100
AcDbEntity
100
AcDbCircle
  8
X Stage
 62
256
370
-1
  6
ByLayer
 10
190.9499999999999886
 20
27.472695207524275
 30
0.0
 40
3.96875
  0
CIRCLE
  5
A0
100
AcDbEntity
100
AcDbCircle
  8
X Drawings
 62
256
370
-1
  6
ByLayer
 10
79.0500000000000398
 20
27.4726952075242679
 30
0.0
 40
11.0
  0
CIRCLE
  5
A1
100
AcDbEntity
100
AcDbCircle
  8
X Text
 62
256
370
-1
  6
ByLayer
 10
79.0500000000000398
 20
27.4726952075242679
 30
0.0
 40
7.5650000000000004
  0
CIRCLE
  5
A2
100
AcDbEntity
100
AcDbCircle
  8
X Stage
 62
256
370
-1
  6
ByLayer
 10
79.0500000000000114
 20
27.4726952075242679
 30
0.0
 40
3.96875
  0
CIRCLE
  5
A3
100
AcDbEntity
100
AcDbCircle
  8
X Stage
 62
256
370
-1
  6
ByLayer
 10
263.6499999999999773
 20
-39.5148047924757435
 30
0.0
 40
2.0
  0
CIRCLE
  5
A4
100
AcDbEntity
100
AcDbCircle
  8
X Stage
 62
256
370
-1
  6
ByLayer
 10
263.6500000000000909
 20
-4.5898047924757606
 30
0.0
 40
2.0
  0
CIRCLE
  5
A5
100
AcDbEntity
100
AcDbCircle
  8
X Stage
 62
256
370
-1
  6
ByLayer
 10
2.8749999999999858
 20
-39.5148047924757293
 30
0.0
 40
2.0
  0
CIRCLE
  5
A6
100
AcDbEntity
100
AcDbCircle
  8
X Stage
 62
256
370
-1
  6
ByLayer
 10
2.8750000000000568
 20
-4.5898047924757464
 30
0.0
 40
2.0
  0
CIRCLE
  5
A7
100
AcDbEntity
100
AcDbCircle
  8
X Stage
 62
256
370
-1
  6
ByLayer
 10
263.6499999999999773
 20
102.4351952075243162
 30
0.0
 40
2.0
  0
CIRCLE
  5
A8
100
AcDbEntity
100
AcDbCircle
  8
X Stage
 62
256
370
-1
  6
ByLayer
 10
263.6500000000000909
 20
137.3601952075242991
 30
0.0
 40
2.0
  0
CIRCLE
  5
A9
100
AcDbEntity
100
AcDbCircle
  8
X Stage
 62
256
370
-1
  6
ByLayer
 10
2.8749999999999574
 20
102.4351952075242593
 30
0.0
 40
2.0
  0
CIRCLE
  5
AA
100
AcDbEntity
100
AcDbCircle
  8
X Stage
 62
256
370
-1
  6
ByLayer
 10
2.8750000000000568
 20
137.3601952075242423
 30
0.0
 40
2.0
  0
LINE
  5
AB
100
AcDbEntity
100
AcDbLine
  8
Y Drawings
 62
256
370
-1
  6
ByLayer
 10
8.5249999999999915
 20
19.4226952075242707
 30
0.0
 11
260.0
 21
19.4226952075242707
 31
0.0
  0
CIRCLE
  5
AC
100
AcDbEntity
100
AcDbCircle
  8
Y Stage
 62
256
370
-1
  6
ByLayer
 10
11.5874999999999897
 20
-48.2273047924756924
 30
0.0
 40
2.0
  0
CIRCLE
  5
AD
100
AcDbEntity
100
AcDbCircle
  8
Y Stage
 62
256
370
-1
  6
ByLayer
 10
46.5124999999999815
 20
-48.2273047924757634
 30
0.0
 40
2.0
  0
CIRCLE
  5
AE
100
AcDbEntity
100
AcDbCircle
  8
Y Stage
 62
256
370
-1
  6
ByLayer
 10
222.5375000000000227
 20
-48.2273047924757208
 30
0.0
 40
2.0
  0
CIRCLE
  5
AF
100
AcDbEntity
100
AcDbCircle
  8
Y Stage
 62
256
370
-1
  6
ByLayer
 10
257.4625000000000341
 20
-48.2273047924757918
 30
0.0
 40
2.0
  0
CIRCLE
  5
B0
100
AcDbEntity
100
AcDbCircle
  8
Y Stage
 62
256
370
-1
  6
ByLayer
 10
223.0124999999999886
 20
143.0726952075242764
 30
0.0
 40
2.0
  0
CIRCLE
  5
B1
100
AcDbEntity
100
AcDbCircle
  8
Y Stage
 62
256
370
-1
  6
ByLayer
 10
257.9375
 20
143.0726952075242195
 30
0.0
 40
2.0
  0
CIRCLE
  5
B2
100
AcDbEntity
100
AcDbCircle
  8
Y Stage
 62
256
370
-1
  6
ByLayer
 10
11.5874999999999968
 20
143.0726952075242764
 30
0.0
 40
2.0
  0
CIRCLE
  5
B3
100
AcDbEntity
100
AcDbCircle
  8
Y Stage
 62
256
370
-1
  6
ByLayer
 10
46.5124999999999886
 20
143.0726952075242195
 30
0.0
 40
2.0
  0
LINE
  5
B4
100
AcDbEntity
100
AcDbLine
  8
Y Stage
 62
256
370
-1
  6
ByLayer
 10
6.5249999999999879
 20
-54.5773047924757293
 30
0.0
 11
188.9999999999993179
 21
-54.5773047924757293
 31
0.0
  0
ARC
  5
B5
100
AcDbEntity
  8
Y Stage
 62
256
370
-1
  6
ByLayer
100
AcDbCircle
 10
188.9999999999993179
 20
-53.5773047924757293
 30
0.0
 40
1.0
100
AcDbArc
 50
270.0
 51
0.0
  0
LINE
  5
B6
100
AcDbEntity
100
AcDbLine
  8
Y Stage
 62
256
370
-1
  6
ByLayer
 10
192.9999999999999716
 20
-54.5773047924757293
 30
0.0
 11
260.0
 21
-54.5773047924757293
 31
0.0
  0
ARC
  5
B7
100
AcDbEntity
  8
Y Stage
 62
256
370
-1
  6
ByLayer
100
AcDbCircle
 10
192.9999999999999716
 20
-53.5773047924757293
 30
0.0
 40
1.0
100
AcDbArc
 50
180.0
 51
270.0
  0
ARC
  5
B8
100
AcDbEntity
  8
Y Stage
 62
256
370
-1
  6
ByLayer
100
AcDbCircle
 10
190.9999999999999716
 20
-47.5773047924757293
 30
0.0
 40
1.0
100
AcDbArc
 50
0.0
 51
90.0
  0
LINE
  5
B9
100
AcDbEntity
100
AcDbLine
  8
Y Stage
 62
256
370
-1
  6
ByLayer
 10
190.9999999999993747
 20
-46.5773047924757293
 30
0.0
 11
190.9999999999999716
 21
-46.5773047924757293
 31
0.0
  0
ARC
  5
BA
100
AcDbEntity
  8
Y Stage
 62
256
370
-1
  6
ByLayer
100
AcDbCircle
 10
190.9999999999993463
 20
-47.5773047924757293
 30
0.0
 40
1.0
100
AcDbArc
 50
89.9999999999983658
 51
180.0
  0
ARC
  5
BB
100
AcDbEntity
  8
Y Stage
 62
256
370
-1
  6
ByLayer
100
AcDbCircle
 10
191.0000000000002558
 20
142.4226952075242707
 30
0.0
 40
1.0
100
AcDbArc
 50
180.0
 51
270.0
  0
LINE
  5
BC
100
AcDbEntity
100
AcDbLine
  8
Y Stage
 62
256
370
-1
  6
ByLayer
 10
191.0000000000002558
 20
141.4226952075242707
 30
0.0
 11
190.9999999999999716
 21
141.4226952075242707
 31
0.0
  0
ARC
  5
BD
100
AcDbEntity
  8
Y Stage
 62
256
370
-1
  6
ByLayer
100
AcDbCircle
 10
190.9999999999999716
 20
142.4226952075242707
 30
0.0
 40
1.0
100
AcDbArc
 50
270.0
 51
0.0
  0
LINE
  5
BE
100
AcDbEntity
100
AcDbLine
  8
Y Stage
 62
256
370
-1
  6
ByLayer
 10
6.5249999999999977
 20
149.4226952075242707
 30
0.0
 11
189.0000000000002558
 21
149.4226952075242707
 31
0.0
  0
LINE
  5
BF
100
AcDbEntity
100
AcDbLine
  8
Y Stage
 62
256
370
-1
  6
ByLayer
 10
190.0000000000002842
 20
148.4226952075242707
 30
0.0
 11
190.0000000000002558
 21
142.4226952075242707
 31
0.0
  0
ARC
  5
C0
100
AcDbEntity
  8
Y Stage
 62
256
370
-1
  6
ByLayer
100
AcDbCircle
 10
189.0000000000002558
 20
148.4226952075242707
 30
0.0
 40
1.0
100
AcDbArc
 50
0.0
 51
90.0
  0
LINE
  5
C1
100
AcDbEntity
100
AcDbLine
  8
Y Stage
 62
256
370
-1
  6
ByLayer
 10
191.9999999999999716
 20
148.4226952075242707
 30
0.0
 11
191.9999999999999716
 21
142.4226952075242707
 31
0.0
  0
LINE
  5
C2
100
AcDbEntity
100
AcDbLine
  8
Y Stage
 62
256
370
-1
  6
ByLayer
 10
192.9999999999999716
 20
149.4226952075242707
 30
0.0
 11
260.0
 21
149.4226952075242707
 31
0.0
  0
ARC
  5
C3
100
AcDbEntity
  8
Y Stage
 62
256
370
-1
  6
ByLayer
100
AcDbCircle
 10
192.9999999999999716
 20
148.4226952075242707
 30
0.0
 40
1.0
100
AcDbArc
 50
90.0
 51
180.0
  0
LINE
  5
C4
100
AcDbEntity
100
AcDbLine
  8
Y Stage
 62
256
370
-1
  6
ByLayer
 10
189.9999999999993463
 20
-47.5773047924757293
 30
0.0
 11
189.9999999999993179
 21
-53.5773047924757293
 31
0.0
  0
LINE
  5
C5
100
AcDbEntity
100
AcDbLine
  8
Y Stage
 62
256
370
-1
  6
ByLayer
 10
191.9999999999999716
 20
-53.5773047924757293
 30
0.0
 11
191.9999999999999716
 21
-47.5773047924757293
 31
0.0
  0
ARC
  5
C6
100
AcDbEntity
  8
X Stage
 62
256
370
-1
  6
ByLayer
100
AcDbCircle
 10
263.0
 20
90.4226952075242707
 30
0.0
 40
1.0
100
AcDbArc
 50
90.0
 51
180.0
  0
LINE
  5
C7
100
AcDbEntity
100
AcDbLine
  8
X Stage
 62
256
370
-1
  6
ByLayer
 10
262.0
 20
90.4226952075242707
 30
0.0
 11
262.0
 21
90.4226952075242707
 31
0.0
  0
ARC
  5
C8
100
AcDbEntity
  8
X Stage
 62
256
370
-1
  6
ByLayer
100
AcDbCircle
 10
263.0
 20
90.4226952075242707
 30
0.0
 40
1.0
100
AcDbArc
 50
180.0
 51
270.0
  0
LINE
  5
C9
100
AcDbEntity
100
AcDbLine
  8
X Stage
 62
256
370
-1
  6
ByLayer
 10
269.0
 20
91.4226952075242707
 30
0.0
 11
263.0
 21
91.4226952075242707
 31
0.0
  0
LINE
  5
CA
100
AcDbEntity
100
AcDbLine
  8
X Stage
 62
256
370
-1
  6
ByLayer
 10
270.0
 20
139.4226952075242707
 30
0.0
 11
270.0
 21
92.4226952075242707
 31
0.0
  0
ARC
  5
CB
100
AcDbEntity
  8
X Stage
 62
256
370
-1
  6
ByLayer
100
AcDbCircle
 10
269.0
 20
92.4226952075242707
 30
0.0
 40
1.0
100
AcDbArc
 50
270.0
 51
0.0
  0
LINE
  5
CC
100
AcDbEntity
100
AcDbLine
  8
X Stage
 62
256
370
-1
  6
ByLayer
 10
269.0
 20
89.4226952075242707
 30
0.0
 11
263.0
 21
89.4226952075242707
 31
0.0
  0
LINE
  5
CD
100
AcDbEntity
100
AcDbLine
  8
X Stage
 62
256
370
-1
  6
ByLayer
 10
270.0
 20
88.4226952075242707
 30
0.0
 11
270.0
 21
-44.5773047924757293
 31
0.0
  0
ARC
  5
CE
100
AcDbEntity
  8
X Stage
 62
256
370
-1
  6
ByLayer
100
AcDbCircle
 10
269.0
 20
88.4226952075242707
 30
0.0
 40
1.0
100
AcDbArc
 50
0.0
 51
90.0
  0
LINE
  5
CF
100
AcDbEntity
100
AcDbLine
  8
X Stage
 62
256
370
-1
  6
ByLayer
 10
-3.4750000000000023
 20
139.4226952075242707
 30
0.0
 11
-3.4750000000000023
 21
92.4226952075242707
 31
0.0
  0
ARC
  5
D0
100
AcDbEntity
  8
X Stage
 62
256
370
-1
  6
ByLayer
100
AcDbCircle
 10
-2.4750000000000023
 20
92.4226952075242707
 30
0.0
 40
1.0
100
AcDbArc
 50
180.0
 51
270.0
  0
LINE
  5
D1
100
AcDbEntity
100
AcDbLine
  8
X Stage
 62
256
370
-1
  6
ByLayer
 10
-3.4750000000000023
 20
88.4226952075242565
 30
0.0
 11
-3.4750000000000023
 21
-44.5773047924757293
 31
0.0
  0
ARC
  5
D2
100
AcDbEntity
  8
X Stage
 62
256
370
-1
  6
ByLayer
100
AcDbCircle
 10
-2.4750000000000023
 20
88.4226952075242565
 30
0.0
 40
1.0
100
AcDbArc
 50
90.0
 51
180.0
  0
LINE
  5
D3
100
AcDbEntity
100
AcDbLine
  8
X Stage
 62
256
370
-1
  6
ByLayer
 10
-2.4750000000000023
 20
91.4226952075242565
 30
0.0
 11
3.5600000000000005
 21
91.4226952075242565
 31
0.0
  0
ARC
  5
D4
100
AcDbEntity
  8
X Stage
 62
256
370
-1
  6
ByLayer
100
AcDbCircle
 10
3.5600000000000005
 20
90.4226952075242565
 30
0.0
 40
1.0
100
AcDbArc
 50
0.0
 51
90.0
  0
LINE
  5
D5
100
AcDbEntity
100
AcDbLine
  8
X Stage
 62
256
370
-1
  6
ByLayer
 10
4.5600000000000005
 20
90.4226952075242565
 30
0.0
 11
4.5600000000000005
 21
90.4226952075242565
 31
0.0
  0
LINE
  5
D6
100
AcDbEntity
100
AcDbLine
  8
X Stage
 62
256
370
-1
  6
ByLayer
 10
-2.4750000000000023
 20
89.4226952075242565
 30
0.0
 11
3.5600000000000005
 21
89.4226952075242565
 31
0.0
  0
ARC
  5
D7
100
AcDbEntity
  8
X Stage
 62
256
370
-1
  6
ByLayer
100
AcDbCircle
 10
3.5600000000000005
 20
90.4226952075242565
 30
0.0
 40
1.0
100
AcDbArc
 50
270.0
 51
0.0
  0
MTEXT
  5
D8
100
AcDbEntity
100
AcDbMText
  8
X Text
 62
256
370
-1
  6
ByLayer
 10
80.0
 20
119.4226952075242707
 30
0.0
 40
4.0
 41
100.0
 71
5
 72
2
  1
"X\~Stage"\PMCB\~v.1.2\Pmake.rrrf.org/mcb-1.2\P
  7
standard
 50
0.0
 73
0
 44
1.0
  0
MTEXT
  5
D9
100
AcDbEntity
100
AcDbMText
  8
Y Text
 62
256
370
-1
  6
ByLayer
 10
190.0
 20
119.4226952075242707
 30
0.0
 40
4.0
 41
100.0
 71
5
 72
2
  1
"Y\~Stage"\PMCB\~v1.2\Pmake.rrrf.org/mcb-1.2
  7
standard
 50
0.0
 73
1
 44
1.0
  0
LINE
  5
DA
100
AcDbEntity
100
AcDbLine
  8
X Rails
 62
256
370
-1
  6
ByLayer
 10
314.6999999999999318
 20
-12.5273047924757286
 30
0.0
 11
314.6999999999999318
 21
-31.5773047924757293
 31
0.0
  0
LINE
  5
DB
100
AcDbEntity
100
AcDbLine
  8
Base Drawings
 62
256
370
-1
  6
ByLayer
 10
314.6999999999999318
 20
48.9226952075242707
 30
0.0
 11
0.0000000000000339
 21
48.9226952075242707
 31
0.0
  0
LINE
  5
DC
100
AcDbEntity
100
AcDbLine
  8
Base Drawings
 62
256
370
-1
  6
ByLayer
 10
295.6999999999998749
 20
129.4226952075242423
 30
0.0
 11
295.6999999999998749
 21
110.3726952075242593
 31
0.0
  0
LINE
  5
DD
100
AcDbEntity
100
AcDbLine
  8
Base Drawings
 62
256
370
-1
  6
ByLayer
 10
295.6999999999999318
 20
-12.5273047924757179
 30
0.0
 11
295.6999999999999318
 21
-31.5773047924757222
 31
0.0
  0
LINE
  5
DE
100
AcDbEntity
100
AcDbLine
  8
X Drive
 62
256
370
-1
  6
ByLayer
 10
-294.7000000000000455
 20
52.0976952075242679
 30
0.0
 11
314.6999999999998181
 21
52.0976952075242679
 31
0.0
  0
LINE
  5
DF
100
AcDbEntity
100
AcDbLine
  8
X Drive
 62
256
370
-1
  6
ByLayer
 10
-294.7000000000000455
 20
45.7476952075242735
 30
0.0
 11
314.6999999999998181
 21
45.7476952075242735
 31
0.0
  0
LINE
  5
E0
100
AcDbEntity
100
AcDbLine
  8
X Drive
 62
256
370
-1
  6
ByLayer
 10
-297.8750000000001137
 20
48.9226952075242707
 30
0.0
 11
317.8749999999997726
 21
48.9226952075242707
 31
0.0
  0
LINE
  5
E1
100
AcDbEntity
100
AcDbLine
  8
X Drive
 62
256
370
-1
  6
ByLayer
 10
317.8749999999997726
 20
45.7476952075242735
 30
0.0
 11
317.8749999999997726
 21
52.0976952075242679
 31
0.0
  0
LINE
  5
E2
100
AcDbEntity
100
AcDbLine
  8
Y Drawings
 62
256
370
-1
  6
ByLayer
 10
19.5249999999999986
 20
168.4226952075242707
 30
0.0
 11
250.0
 21
168.4226952075242707
 31
0.0
  0
LINE
  5
E3
100
AcDbEntity
100
AcDbLine
  8
Y Drawings
 62
256
370
-1
  6
ByLayer
 10
29.0499999999999972
 20
190.5476952075242707
 30
0.0
 11
29.0499999999999865
 21
-145.6023047924757066
 31
0.0
  0
LINE
  5
E4
100
AcDbEntity
100
AcDbLine
  8
Y Drawings
 62
256
370
-1
  6
ByLayer
 10
240.4749999999999943
 20
190.5476952075242707
 30
0.0
 11
240.4749999999999943
 21
-145.6023047924757066
 31
0.0
  0
LINE
  5
E5
100
AcDbEntity
100
AcDbLine
  8
Y Drawings
 62
256
370
-1
  6
ByLayer
 10
250.0
 20
-126.602304792475735
 30
0.0
 11
19.5249999999999915
 21
-126.602304792475735
 31
0.0
  0
LINE
  5
E6
100
AcDbEntity
100
AcDbLine
  8
X Rail Support
 62
256
370
-1
  6
ByLayer
 10
317.8749999999998863
 20
129.4226952075242423
 30
0.0
 11
317.8749999999998863
 21
-31.5773047924757577
 31
0.0
  0
LINE
  5
E7
100
AcDbEntity
100
AcDbLine
  8
X Rail Support
 62
256
370
-1
  6
ByLayer
 10
314.6999999999998749
 20
129.4226952075242423
 30
0.0
 11
314.6999999999999318
 21
-31.5773047924757293
 31
0.0
  0
CIRCLE
  5
E8
100
AcDbEntity
100
AcDbCircle
  8
X Rail Support
 62
256
370
-1
  6
ByLayer
 10
295.6999999999998749
 20
119.897695207524265
 30
0.0
 40
3.9700000000000002
  0
CIRCLE
  5
E9
100
AcDbEntity
100
AcDbCircle
  8
X Rail Support
 62
256
370
-1
  6
ByLayer
 10
295.6999999999999318
 20
-22.0523047924757307
 30
0.0
 40
3.9700000000000002
  0
LINE
  5
EA
100
AcDbEntity
100
AcDbLine
  8
X Rail Support
 62
256
370
-1
  6
ByLayer
 10
279.8749999999998863
 20
129.4226952075242423
 30
0.0
 11
279.8749999999998863
 21
-31.5773047924757435
 31
0.0
  0
LINE
  5
EB
100
AcDbEntity
100
AcDbLine
  8
X Rail Support
 62
256
370
-1
  6
ByLayer
 10
279.8749999999998863
 20
129.4226952075242423
 30
0.0
 11
317.8749999999998863
 21
129.4226952075242423
 31
0.0
  0
LINE
  5
EC
100
AcDbEntity
100
AcDbLine
  8
X Rail Support
 62
256
370
-1
  6
ByLayer
 10
317.8749999999998863
 20
-31.5773047924757577
 30
0.0
 11
279.8749999999998863
 21
-31.5773047924757435
 31
0.0
  0
LINE
  5
ED
100
AcDbEntity
100
AcDbLine
  8
X Rails
 62
256
370
-1
  6
ByLayer
 10
314.6999999999998749
 20
129.4226952075242707
 30
0.0
 11
314.6999999999998749
 21
110.3726952075242593
 31
0.0
  0
LINE
  5
EE
100
AcDbEntity
100
AcDbLine
  8
X Endstops
 62
256
370
-1
  6
ByLayer
 10
300.8148102558630512
 20
76.4526952075242434
 30
0.0
 11
300.8148102558630512
 21
104.392695207524298
 31
0.0
  0
LINE
  5
EF
100
AcDbEntity
100
AcDbLine
  8
X Endstops
 62
256
370
-1
  6
ByLayer
 10
300.8148102558630512
 20
80.8976952075242934
 30
0.0
 11
306.5298102558630831
 21
80.8976952075242934
 31
0.0
  0
LINE
  5
F0
100
AcDbEntity
100
AcDbLine
  8
X Endstops
 62
256
370
-1
  6
ByLayer
 10
300.8148102558630512
 20
99.947695207524248
 30
0.0
 11
306.5298102558630831
 21
99.947695207524248
 31
0.0
  0
LINE
  5
F1
100
AcDbEntity
100
AcDbLine
  8
X Endstops
 62
256
370
-1
  6
ByLayer
 10
287.4798102558630148
 20
76.4526952075243003
 30
0.0
 11
306.5298102558630262
 21
76.4526952075242434
 31
0.0
  0
LINE
  5
F2
100
AcDbEntity
100
AcDbLine
  8
X Endstops
 62
256
370
-1
  6
ByLayer
 10
287.4798102558630717
 20
104.392695207524298
 30
0.0
 11
306.5298102558630831
 21
104.3926952075242411
 31
0.0
  0
LINE
  5
F3
100
AcDbEntity
100
AcDbLine
  8
X Endstops
 62
256
370
-1
  6
ByLayer
 10
306.5298102558630262
 20
76.4526952075242434
 30
0.0
 11
306.5298102558630831
 21
104.3926952075242411
 31
0.0
  0
LINE
  5
F4
100
AcDbEntity
100
AcDbLine
  8
X Endstops
 62
256
370
-1
  6
ByLayer
 10
297.6398102558630967
 20
76.4526952075242434
 30
0.0
 11
297.6398102558630967
 21
104.392695207524298
 31
0.0
  0
LINE
  5
F5
100
AcDbEntity
100
AcDbLine
  8
X Endstops
 62
256
370
-1
  6
ByLayer
 10
303.9898102558630058
 20
76.4526952075242434
 30
0.0
 11
303.9898102558630626
 21
104.392695207524298
 31
0.0
  0
LINE
  5
F6
100
AcDbEntity
100
AcDbLine
  8
X Endstops
 62
256
370
-1
  6
ByLayer
 10
297.6398102558630399
 20
88.7726952075242366
 30
0.0
 11
303.9898102558630626
 21
88.7726952075242366
 31
0.0
  0
LINE
  5
F7
100
AcDbEntity
100
AcDbLine
  8
X Endstops
 62
256
370
-1
  6
ByLayer
 10
297.6398102558630399
 20
92.0726952075243048
 30
0.0
 11
303.9898102558630626
 21
92.072695207524248
 31
0.0
  0
LINE
  5
F8
100
AcDbEntity
100
AcDbLine
  8
X Endstops
 62
256
370
-1
  6
ByLayer
 10
287.4798102558630148
 20
76.4526952075243003
 30
0.0
 11
287.4798102558630717
 21
104.392695207524298
 31
0.0
  0
LINE
  5
F9
100
AcDbEntity
100
AcDbLine
  8
X Endstops
 62
256
370
-1
  6
ByLayer
 10
297.6398102558630399
 20
84.4226952075242707
 30
0.0
 11
303.9898102558630626
 21
84.4226952075242707
 31
0.0
  0
LINE
  5
FA
100
AcDbEntity
100
AcDbLine
  8
X Endstops
 62
256
370
-1
  6
ByLayer
 10
297.6398102558630399
 20
96.4226952075242707
 30
0.0
 11
303.9898102558630626
 21
96.4226952075242707
 31
0.0
  0
LINE
  5
FB
100
AcDbEntity
100
AcDbLine
  8
X Endstops
 62
256
370
-1
  6
ByLayer
 10
287.4798102558630148
 20
90.4226952075242707
 30
0.0
 11
287.4798102558630148
 21
100.4226952075242707
 31
0.0
  0
LINE
  5
FC
100
AcDbEntity
100
AcDbLine
  8
X Endstops
 62
256
370
-1
  6
ByLayer
 10
287.4798102558630148
 20
100.4226952075242707
 30
0.0
 11
290.8148102558630512
 21
100.4226952075242707
 31
0.0
  0
LINE
  5
FD
100
AcDbEntity
100
AcDbLine
  8
X Endstops
 62
256
370
-1
  6
ByLayer
 10
290.8148102558630512
 20
100.4226952075242707
 30
0.0
 11
290.8148102558630512
 21
90.4226952075242707
 31
0.0
  0
LINE
  5
FE
100
AcDbEntity
100
AcDbLine
  8
X Endstops
 62
256
370
-1
  6
ByLayer
 10
290.8148102558630512
 20
90.4226952075242707
 30
0.0
 11
287.4798102558630148
 21
90.4226952075242707
 31
0.0
  0
LINE
  5
FF
100
AcDbEntity
100
AcDbLine
  8
X Endstops
 62
256
370
-1
  6
ByLayer
 10
287.8148102558630512
 20
91.4226952075242707
 30
0.0
 11
287.8148102558630512
 21
99.4226952075242707
 31
0.0
  0
LINE
  5
100
100
AcDbEntity
100
AcDbLine
  8
X Endstops
 62
256
370
-1
  6
ByLayer
 10
287.8148102558630512
 20
99.4226952075242707
 30
0.0
 11
284.8148102558630512
 21
99.4226952075242707
 31
0.0
  0
LINE
  5
101
100
AcDbEntity
100
AcDbLine
  8
X Endstops
 62
256
370
-1
  6
ByLayer
 10
284.8148102558630512
 20
99.4226952075242707
 30
0.0
 11
284.8148102558630512
 21
91.4226952075242707
 31
0.0
  0
LINE
  5
102
100
AcDbEntity
100
AcDbLine
  8
X Endstops
 62
256
370
-1
  6
ByLayer
 10
284.8148102558630512
 20
91.4226952075242707
 30
0.0
 11
287.8148102558630512
 21
91.4226952075242707
 31
0.0
  0
ARC
  5
103
100
AcDbEntity
  8
X Endstops
 62
256
370
-1
  6
ByLayer
100
AcDbCircle
 10
287.8148102558630512
 20
76.4226952075242707
 30
0.0
 40
1.0
100
AcDbArc
 50
180.0
 51
270.0
  0
LINE
  5
104
100
AcDbEntity
100
AcDbLine
  8
X Endstops
 62
256
370
-1
  6
ByLayer
 10
286.8148102558630512
 20
76.4226952075242707
 30
0.0
 11
286.8148102558630512
 21
104.4226952075242707
 31
0.0
  0
ARC
  5
105
100
AcDbEntity
  8
X Endstops
 62
256
370
-1
  6
ByLayer
100
AcDbCircle
 10
287.8148102558630512
 20
104.4226952075242707
 30
0.0
 40
1.0
100
AcDbArc
 50
90.0
 51
180.0
  0
LINE
  5
106
100
AcDbEntity
100
AcDbLine
  8
X Endstops
 62
256
370
-1
  6
ByLayer
 10
287.8148102558630512
 20
105.4226952075242707
 30
0.0
 11
305.8148102558630512
 21
105.4226952075242707
 31
0.0
  0
ARC
  5
107
100
AcDbEntity
  8
X Endstops
 62
256
370
-1
  6
ByLayer
100
AcDbCircle
 10
305.8148102558630512
 20
104.4226952075242707
 30
0.0
 40
1.0
100
AcDbArc
 50
360.0
 51
90.0
  0
LINE
  5
108
100
AcDbEntity
100
AcDbLine
  8
X Endstops
 62
256
370
-1
  6
ByLayer
 10
287.8148102558630512
 20
75.4226952075242707
 30
0.0
 11
305.8148102558630512
 21
75.4226952075242707
 31
0.0
  0
LINE
  5
109
100
AcDbEntity
100
AcDbLine
  8
X Endstops
 62
256
370
-1
  6
ByLayer
 10
306.8148102558630512
 20
76.4226952075242707
 30
0.0
 11
306.8148102558630512
 21
104.4226952075242707
 31
0.0
  0
ARC
  5
10A
100
AcDbEntity
  8
X Endstops
 62
256
370
-1
  6
ByLayer
100
AcDbCircle
 10
305.8148102558630512
 20
76.4226952075242707
 30
0.0
 40
1.0
100
AcDbArc
 50
270.0
 51
360.0
  0
CIRCLE
  5
10B
100
AcDbEntity
100
AcDbCircle
  8
X Endstops
 62
256
370
-1
  6
ByLayer
 10
300.8148102558630512
 20
80.8976952075242934
 30
0.0
 40
1.7
  0
CIRCLE
  5
10C
100
AcDbEntity
100
AcDbCircle
  8
X Endstops
 62
256
370
-1
  6
ByLayer
 10
300.8148102558630512
 20
99.947695207524248
 30
0.0
 40
1.7
  0
MTEXT
  5
10D
100
AcDbEntity
100
AcDbMText
  8
X Endstops
 62
256
370
-1
  6
ByLayer
 10
290.8148102558630512
 20
90.4226952075242707
 30
0.0
 40
3.0
 41
100.0
 71
5
 72
2
  1
Endstop
  7
standard
 50
90.0
 73
0
 44
1.0
  0
LINE
  5
10E
100
AcDbEntity
100
AcDbLine
  8
X Endstops
 62
256
370
-1
  6
ByLayer
 10
297.6398102558630399
 20
90.4226952075242707
 30
0.0
 11
303.9898102558630626
 21
90.4226952075242707
 31
0.0
  0
LINE
  5
10F
100
AcDbEntity
100
AcDbLine
  8
Y Drawings
 62
256
370
-1
  6
ByLayer
 10
190.9999999999999716
 20
-142.4773047924757634
 30
0.0
 11
190.9999999999999716
 21
187.4226952075242991
 31
0.0
  0
LINE
  5
110
100
AcDbEntity
100
AcDbLine
  8
X Drawings
 62
256
370
-1
  6
ByLayer
 10
317.8749999999997726
 20
69.9226952075242707
 30
0.0
 11
317.8749999999997726
 21
27.9226952075242707
 31
0.0
  0
LINE
  5
111
100
AcDbEntity
100
AcDbLine
  8
X Drawings
 62
256
370
-1
  6
ByLayer
 10
317.8749999999997726
 20
27.9226952075242707
 30
0.0
 11
365.8749999999997726
 21
27.9226952075242707
 31
0.0
  0
LINE
  5
112
100
AcDbEntity
100
AcDbLine
  8
X Drawings
 62
256
370
-1
  6
ByLayer
 10
365.8749999999997726
 20
27.9226952075242707
 30
0.0
 11
365.8749999999997726
 21
69.9226952075242707
 31
0.0
  0
LINE
  5
113
100
AcDbEntity
100
AcDbLine
  8
X Drawings
 62
256
370
-1
  6
ByLayer
 10
365.8749999999997726
 20
69.9226952075242707
 30
0.0
 11
317.8749999999997726
 21
69.9226952075242707
 31
0.0
  0
DIMENSION
  5
114
100
AcDbEntity
  8
Y Measurements
 62
256
370
-1
  6
ByLayer
100
AcDbDimension
 10
350.0
 20
-142.4773047924757066
 30
0.0
 11
348.125
 21
22.4726952075242821
 31
0.0
 70
0
 71
5
 72
1
 41
1.0
 42
0.0
  1

  3
Standard
100
AcDbAlignedDimension
 13
250.0
 23
187.4226952075242707
 33
0.0
 14
250.0
 24
-142.4773047924757066
 34
0.0
 50
90.0
100
AcDbRotatedDimension
  0
LINE
  5
115
100
AcDbEntity
100
AcDbLine
  8
X Drawings
 62
256
370
-1
  6
ByLayer
 10
-218.7000000000001023
 20
129.4226952075244412
 30
0.0
 11
-218.7000000000000455
 21
-31.5773047924755339
 31
0.0
  0
LINE
  5
116
100
AcDbEntity
100
AcDbLine
  8
X Rail Support
 62
256
370
-1
  6
ByLayer
 10
-218.7000000000000455
 20
129.4226952075242707
 30
0.0
 11
-218.6999999999999886
 21
-31.5773047924757293
 31
0.0
  0
LINE
  5
117
100
AcDbEntity
100
AcDbLine
  8
X Rail Support
 62
256
370
-1
  6
ByLayer
 10
-221.8750000000000568
 20
129.4226952075242707
 30
0.0
 11
-221.875
 21
-31.5773047924757293
 31
0.0
  0
LINE
  5
118
100
AcDbEntity
100
AcDbLine
  8
X Rail Support
 62
256
370
-1
  6
ByLayer
 10
-183.8750000000000568
 20
129.4226952075242707
 30
0.0
 11
-183.875
 21
-31.57730479247574
 31
0.0
  0
CIRCLE
  5
119
100
AcDbEntity
100
AcDbCircle
  8
X Rail Support
 62
256
370
-1
  6
ByLayer
 10
-199.7000000000000455
 20
119.897695207524265
 30
0.0
 40
3.9700000000000002
  0
CIRCLE
  5
11A
100
AcDbEntity
100
AcDbCircle
  8
X Rail Support
 62
256
370
-1
  6
ByLayer
 10
-199.6999999999999886
 20
-22.0523047924757307
 30
0.0
 40
3.9700000000000002
  0
LINE
  5
11B
100
AcDbEntity
100
AcDbLine
  8
X Rail Support
 62
256
370
-1
  6
ByLayer
 10
-221.8750000000000568
 20
129.4226952075242707
 30
0.0
 11
-183.8750000000000568
 21
129.4226952075242707
 31
0.0
  0
LINE
  5
11C
100
AcDbEntity
100
AcDbLine
  8
X Rail Support
 62
256
370
-1
  6
ByLayer
 10
-221.875
 20
-31.5773047924757293
 30
0.0
 11
-183.875
 21
-31.57730479247574
 31
0.0
  0
LINE
  5
11D
100
AcDbEntity
100
AcDbLine
  8
X Rails
 62
256
370
-1
  6
ByLayer
 10
314.6999999999998749
 20
129.4226952075242707
 30
0.0
 11
-218.7000000000001023
 21
129.4226952075242707
 31
0.0
  0
LINE
  5
11E
100
AcDbEntity
100
AcDbLine
  8
X Rails
 62
256
370
-1
  6
ByLayer
 10
314.6999999999999318
 20
110.3726952075242593
 30
0.0
 11
-218.7000000000001592
 21
110.3726952075242593
 31
0.0
  0
LINE
  5
11F
100
AcDbEntity
100
AcDbLine
  8
X Rails
 62
256
370
-1
  6
ByLayer
 10
-218.7000000000001592
 20
110.3726952075242593
 30
0.0
 11
-218.7000000000001023
 21
129.4226952075242707
 31
0.0
  0
LINE
  5
120
100
AcDbEntity
100
AcDbLine
  8
X Rails
 62
256
370
-1
  6
ByLayer
 10
314.6999999999999318
 20
-12.5273047924757286
 30
0.0
 11
-218.6999999999999886
 21
-12.5273047924757286
 31
0.0
  0
LINE
  5
121
100
AcDbEntity
100
AcDbLine
  8
X Rails
 62
256
370
-1
  6
ByLayer
 10
314.6999999999999318
 20
-31.5773047924757293
 30
0.0
 11
-218.7000000000000455
 21
-31.5773047924757293
 31
0.0
  0
LINE
  5
122
100
AcDbEntity
100
AcDbLine
  8
X Rails
 62
256
370
-1
  6
ByLayer
 10
-218.6999999999999886
 20
-12.5273047924757286
 30
0.0
 11
-218.7000000000000455
 21
-31.5773047924757293
 31
0.0
  0
LINE
  5
123
100
AcDbEntity
100
AcDbLine
  8
Steel Pipes
 62
256
370
-1
  6
ByLayer
 10
-123.641238408353729
 20
275.6999999999999886
 30
0.0
 11
-123.641238408353729
 21
242.3000000000000114
 31
0.0
  0
LINE
  5
124
100
AcDbEntity
100
AcDbLine
  8
Steel Pipes
 62
256
370
-1
  6
ByLayer
 10
-178.4412384083537404
 20
220.9000000000000057
 30
0.0
 11
-145.0412384083537347
 21
220.9000000000000057
 31
0.0
  0
LINE
  5
125
100
AcDbEntity
100
AcDbLine
  8
Steel Pipes
 62
256
370
-1
  6
ByLayer
 10
-178.4412384083536836
 20
-50.0500000000000043
 30
0.0
 11
-145.0412384083537063
 21
-50.0500000000000185
 31
0.0
  0
CIRCLE
  5
126
100
AcDbEntity
100
AcDbCircle
  8
Base
 62
256
370
-1
  6
ByLayer
 10
-161.7412384083536949
 20
-22.052304792475752
 30
0.0
 40
2.0
  0
CIRCLE
  5
127
100
AcDbEntity
100
AcDbCircle
  8
Base
 62
256
370
-1
  6
ByLayer
 10
-161.7412384083536949
 20
119.897695207524265
 30
0.0
 40
2.0
  0
LINE
  5
128
100
AcDbEntity
100
AcDbLine
  8
Steel Pipes
 62
256
370
-1
  6
ByLayer
 10
-145.0412384083537063
 20
242.3000000000000114
 30
0.0
 11
243.2999999999998977
 21
242.3000000000000114
 31
0.0
  0
LINE
  5
129
100
AcDbEntity
100
AcDbLine
  8
Steel Pipes
 62
256
370
-1
  6
ByLayer
 10
-145.0412384083537063
 20
242.3000000000000114
 30
0.0
 11
-145.0412384083537063
 21
-50.0500000000000185
 31
0.0
  0
LINE
  5
12A
100
AcDbEntity
100
AcDbLine
  8
Steel Pipes
 62
256
370
-1
  6
ByLayer
 10
-178.4412384083537404
 20
275.6999999999999886
 30
0.0
 11
276.6999999999998749
 21
275.6999999999999886
 31
0.0
  0
LINE
  5
12B
100
AcDbEntity
100
AcDbLine
  8
Steel Pipes
 62
256
370
-1
  6
ByLayer
 10
-178.4412384083537404
 20
275.6999999999999886
 30
0.0
 11
-178.4412384083536836
 21
-50.0500000000000043
 31
0.0
  0
LINE
  5
12C
100
AcDbEntity
100
AcDbLine
  8
Base Drawings
 62
256
370
-1
  6
ByLayer
 10
-161.7412384083537233
 20
259.0
 30
0.0
 11
259.9999999999998863
 21
259.0
 31
0.0
  0
LINE
  5
12D
100
AcDbEntity
100
AcDbLine
  8
Base Drawings
 62
256
370
-1
  6
ByLayer
 10
-161.7412384083537233
 20
259.0
 30
0.0
 11
-161.7412384083536949
 21
-50.0500000000000114
 31
0.0
  0
LINE
  5
12E
100
AcDbEntity
100
AcDbLine
  8
X Drawings
 62
256
370
-1
  6
ByLayer
 10
276.6999999999999318
 20
-42.5773047924757293
 30
0.0
 11
-178.4412384083536267
 21
-42.5773047924757293
 31
0.0
  0
LINE
  5
12F
100
AcDbEntity
100
AcDbLine
  8
Base Drawings
 62
256
370
-1
  6
ByLayer
 10
314.6999999999998749
 20
119.897695207524265
 30
0.0
 11
-218.6999999999999886
 21
119.897695207524265
 31
0.0
  0
LINE
  5
130
100
AcDbEntity
100
AcDbLine
  8
X Drawings
 62
256
370
-1
  6
ByLayer
 10
314.6999999999998749
 20
90.4226952075242707
 30
0.0
 11
-218.6999999999999886
 21
90.4226952075242707
 31
0.0
  0
LINE
  5
131
100
AcDbEntity
100
AcDbLine
  8
Base Drawings
 62
256
370
-1
  6
ByLayer
 10
314.6999999999999318
 20
-22.0523047924757307
 30
0.0
 11
-218.6999999999999318
 21
-22.0523047924757307
 31
0.0
  0
DIMENSION
  5
132
100
AcDbEntity
  8
X Measurements
 62
256
370
-1
  6
ByLayer
100
AcDbDimension
 10
314.6999999999999318
 20
-200.4536076613995874
 30
0.0
 11
47.9999999999999432
 21
-198.5786076613995874
 31
0.0
 70
0
 71
5
 72
0
 41
1.0
 42
0.0
  1

  3
Standard
100
AcDbAlignedDimension
 13
-218.7000000000000455
 23
-31.5773047924757293
 33
0.0
 14
314.6999999999999318
 24
-31.5773047924757293
 34
0.0
 50
0.0
100
AcDbRotatedDimension
  0
DIMENSION
  5
133
100
AcDbEntity
  8
X Measurements
 62
256
370
-1
  6
ByLayer
100
AcDbDimension
 10
370.0
 20
-31.5773047924757364
 30
0.0
 11
368.125
 21
48.9226952075242707
 31
0.0
 70
0
 71
5
 72
0
 41
1.0
 42
0.0
  1

  3
Standard
100
AcDbAlignedDimension
 13
314.6999999999998749
 23
129.4226952075242707
 33
0.0
 14
314.6999999999999318
 24
-31.5773047924757293
 34
0.0
 50
90.0
100
AcDbRotatedDimension
  0
DIMENSION
  5
134
100
AcDbEntity
  8
Y Measurements
 62
256
370
-1
  6
ByLayer
100
AcDbDimension
 10
250.0
 20
-190.0
 30
0.0
 11
134.7624999999999886
 21
-188.125
 31
0.0
 70
0
 71
5
 72
0
 41
1.0
 42
0.0
  1

  3
Standard
100
AcDbAlignedDimension
 13
19.5249999999999844
 23
-142.477304792475735
 33
0.0
 14
250.0
 24
-142.4773047924757066
 34
0.0
 50
0.0
100
AcDbRotatedDimension
  0
LINE
  5
135
100
AcDbEntity
100
AcDbLine
  8
X Drawings
 62
256
370
-1
  6
ByLayer
 10
-199.6999999999999886
 20
129.4226952075242707
 30
0.0
 11
-199.6999999999999886
 21
-31.5773047924757329
 31
0.0
  0
LINE
  5
136
100
AcDbEntity
100
AcDbLine
  8
X Endstops
 62
256
370
-1
  6
ByLayer
 10
-206.8608688958445896
 20
104.3926952075242696
 30
0.0
 11
-206.8608688958445896
 21
76.4526952075242718
 31
0.0
  0
LINE
  5
137
100
AcDbEntity
100
AcDbLine
  8
X Endstops
 62
256
370
-1
  6
ByLayer
 10
-206.8608688958445896
 20
99.9476952075242764
 30
0.0
 11
-212.5758688958445646
 21
99.9476952075242764
 31
0.0
  0
LINE
  5
138
100
AcDbEntity
100
AcDbLine
  8
X Endstops
 62
256
370
-1
  6
ByLayer
 10
-206.8608688958445896
 20
80.897695207524265
 30
0.0
 11
-212.5758688958445646
 21
80.897695207524265
 31
0.0
  0
LINE
  5
139
100
AcDbEntity
100
AcDbLine
  8
X Endstops
 62
256
370
-1
  6
ByLayer
 10
-193.5258688958446101
 20
104.3926952075242554
 30
0.0
 11
-212.5758688958445646
 21
104.3926952075242696
 31
0.0
  0
LINE
  5
13A
100
AcDbEntity
100
AcDbLine
  8
X Endstops
 62
256
370
-1
  6
ByLayer
 10
-193.5258688958446101
 20
76.4526952075242718
 30
0.0
 11
-212.5758688958445646
 21
76.4526952075242718
 31
0.0
  0
LINE
  5
13B
100
AcDbEntity
100
AcDbLine
  8
X Endstops
 62
256
370
-1
  6
ByLayer
 10
-212.5758688958445646
 20
104.3926952075242696
 30
0.0
 11
-212.5758688958445646
 21
76.4526952075242718
 31
0.0
  0
LINE
  5
13C
100
AcDbEntity
100
AcDbLine
  8
X Endstops
 62
256
370
-1
  6
ByLayer
 10
-203.6858688958445782
 20
104.3926952075242696
 30
0.0
 11
-203.6858688958445782
 21
76.4526952075242718
 31
0.0
  0
LINE
  5
13D
100
AcDbEntity
100
AcDbLine
  8
X Endstops
 62
256
370
-1
  6
ByLayer
 10
-210.035868895844601
 20
104.3926952075242696
 30
0.0
 11
-210.035868895844601
 21
76.4526952075242718
 31
0.0
  0
LINE
  5
13E
100
AcDbEntity
100
AcDbLine
  8
X Endstops
 62
256
370
-1
  6
ByLayer
 10
-203.6858688958445782
 20
92.0726952075242764
 30
0.0
 11
-210.035868895844601
 21
92.0726952075242764
 31
0.0
  0
LINE
  5
13F
100
AcDbEntity
100
AcDbLine
  8
X Endstops
 62
256
370
-1
  6
ByLayer
 10
-203.6858688958445782
 20
88.772695207524265
 30
0.0
 11
-210.035868895844601
 21
88.772695207524265
 31
0.0
  0
LINE
  5
140
100
AcDbEntity
100
AcDbLine
  8
X Endstops
 62
256
370
-1
  6
ByLayer
 10
-193.5258688958446101
 20
104.3926952075242554
 30
0.0
 11
-193.5258688958446101
 21
76.4526952075242718
 31
0.0
  0
LINE
  5
141
100
AcDbEntity
100
AcDbLine
  8
X Endstops
 62
256
370
-1
  6
ByLayer
 10
-203.6858688958445782
 20
96.4226952075242707
 30
0.0
 11
-210.035868895844601
 21
96.4226952075242707
 31
0.0
  0
LINE
  5
142
100
AcDbEntity
100
AcDbLine
  8
X Endstops
 62
256
370
-1
  6
ByLayer
 10
-203.6858688958445782
 20
84.4226952075242707
 30
0.0
 11
-210.035868895844601
 21
84.4226952075242707
 31
0.0
  0
LINE
  5
143
100
AcDbEntity
100
AcDbLine
  8
X Endstops
 62
256
370
-1
  6
ByLayer
 10
-193.5258688958446101
 20
90.4226952075242707
 30
0.0
 11
-193.5258688958446101
 21
80.4226952075242707
 31
0.0
  0
LINE
  5
144
100
AcDbEntity
100
AcDbLine
  8
X Endstops
 62
256
370
-1
  6
ByLayer
 10
-193.5258688958446101
 20
80.4226952075242707
 30
0.0
 11
-196.8608688958445896
 21
80.4226952075242707
 31
0.0
  0
LINE
  5
145
100
AcDbEntity
100
AcDbLine
  8
X Endstops
 62
256
370
-1
  6
ByLayer
 10
-196.8608688958445896
 20
80.4226952075242707
 30
0.0
 11
-196.8608688958445896
 21
90.4226952075242707
 31
0.0
  0
LINE
  5
146
100
AcDbEntity
100
AcDbLine
  8
X Endstops
 62
256
370
-1
  6
ByLayer
 10
-196.8608688958445896
 20
90.4226952075242707
 30
0.0
 11
-193.5258688958446101
 21
90.4226952075242707
 31
0.0
  0
LINE
  5
147
100
AcDbEntity
100
AcDbLine
  8
X Endstops
 62
256
370
-1
  6
ByLayer
 10
-193.8608688958445896
 20
89.4226952075242565
 30
0.0
 11
-193.8608688958445896
 21
81.4226952075242707
 31
0.0
  0
LINE
  5
148
100
AcDbEntity
100
AcDbLine
  8
X Endstops
 62
256
370
-1
  6
ByLayer
 10
-193.8608688958445896
 20
81.4226952075242707
 30
0.0
 11
-190.8608688958445896
 21
81.4226952075242707
 31
0.0
  0
LINE
  5
149
100
AcDbEntity
100
AcDbLine
  8
X Endstops
 62
256
370
-1
  6
ByLayer
 10
-190.8608688958445896
 20
81.4226952075242707
 30
0.0
 11
-190.8608688958445896
 21
89.4226952075242707
 31
0.0
  0
LINE
  5
14A
100
AcDbEntity
100
AcDbLine
  8
X Endstops
 62
256
370
-1
  6
ByLayer
 10
-190.8608688958445896
 20
89.4226952075242707
 30
0.0
 11
-193.8608688958445896
 21
89.4226952075242565
 31
0.0
  0
ARC
  5
14B
100
AcDbEntity
  8
X Endstops
 62
256
370
-1
  6
ByLayer
100
AcDbCircle
 10
-193.8608688958445896
 20
104.4226952075242707
 30
0.0
 40
1.0
100
AcDbArc
 50
360.0
 51
90.0
  0
LINE
  5
14C
100
AcDbEntity
100
AcDbLine
  8
X Endstops
 62
256
370
-1
  6
ByLayer
 10
-192.8608688958445896
 20
104.4226952075242707
 30
0.0
 11
-192.8608688958445896
 21
76.4226952075242707
 31
0.0
  0
ARC
  5
14D
100
AcDbEntity
  8
X Endstops
 62
256
370
-1
  6
ByLayer
100
AcDbCircle
 10
-193.8608688958445896
 20
76.4226952075242707
 30
0.0
 40
1.0
100
AcDbArc
 50
270.0
 51
360.0
  0
LINE
  5
14E
100
AcDbEntity
100
AcDbLine
  8
X Endstops
 62
256
370
-1
  6
ByLayer
 10
-193.8608688958445896
 20
75.4226952075242707
 30
0.0
 11
-211.8608688958445896
 21
75.4226952075242707
 31
0.0
  0
ARC
  5
14F
100
AcDbEntity
  8
X Endstops
 62
256
370
-1
  6
ByLayer
100
AcDbCircle
 10
-211.8608688958445896
 20
76.4226952075242707
 30
0.0
 40
1.0
100
AcDbArc
 50
180.0
 51
270.0
  0
LINE
  5
150
100
AcDbEntity
100
AcDbLine
  8
X Endstops
 62
256
370
-1
  6
ByLayer
 10
-193.8608688958445896
 20
105.4226952075242707
 30
0.0
 11
-211.8608688958445896
 21
105.4226952075242707
 31
0.0
  0
LINE
  5
151
100
AcDbEntity
100
AcDbLine
  8
X Endstops
 62
256
370
-1
  6
ByLayer
 10
-212.8608688958445327
 20
104.4226952075242707
 30
0.0
 11
-212.8608688958445896
 21
76.4226952075242707
 31
0.0
  0
ARC
  5
152
100
AcDbEntity
  8
X Endstops
 62
256
370
-1
  6
ByLayer
100
AcDbCircle
 10
-211.8608688958445896
 20
104.4226952075242707
 30
0.0
 40
1.0
100
AcDbArc
 50
90.0
 51
180.0
  0
CIRCLE
  5
153
100
AcDbEntity
100
AcDbCircle
  8
X Endstops
 62
256
370
-1
  6
ByLayer
 10
-206.8608688958445896
 20
99.9476952075242764
 30
0.0
 40
1.7
  0
CIRCLE
  5
154
100
AcDbEntity
100
AcDbCircle
  8
X Endstops
 62
256
370
-1
  6
ByLayer
 10
-206.8608688958445896
 20
80.897695207524265
 30
0.0
 40
1.7
  0
MTEXT
  5
155
100
AcDbEntity
100
AcDbMText
  8
X Endstops
 62
256
370
-1
  6
ByLayer
 10
-196.8608688958445896
 20
90.4226952075242707
 30
0.0
 40
3.0
 41
100.0
 71
5
 72
2
  1
Endstop
  7
standard
 50
270.0
 73
0
 44
1.0
  0
LINE
  5
156
100
AcDbEntity
100
AcDbLine
  8
X Endstops
 62
256
370
-1
  6
ByLayer
 10
-203.6858688958445782
 20
90.4226952075242707
 30
0.0
 11
-210.035868895844601
 21
90.4226952075242707
 31
0.0
  0
LINE
  5
157
100
AcDbEntity
100
AcDbLine
  8
Y Drawings
 62
256
370
-1
  6
ByLayer
 10
19.5250000000000057
 20
220.5476952075242707
 30
0.0
 11
250.0
 21
220.5476952075242707
 31
0.0
  0
LINE
  5
158
100
AcDbEntity
100
AcDbLine
  8
Y Rails
 62
256
370
-1
  6
ByLayer
 10
230.4749999999999943
 20
217.4226952075242707
 30
0.0
 11
230.4749999999999943
 21
-112.477304792475735
 31
0.0
  0
LINE
  5
159
100
AcDbEntity
100
AcDbLine
  8
Y Rails
 62
256
370
-1
  6
ByLayer
 10
39.0499999999999972
 20
217.4226952075242707
 30
0.0
 11
39.0499999999999829
 21
-112.477304792475735
 31
0.0
  0
LINE
  5
15A
100
AcDbEntity
100
AcDbLine
  8
Y Drive
 62
256
370
-1
  6
ByLayer
 10
131.5874999999999773
 20
-115.602304792475735
 30
0.0
 11
131.5874999999999773
 21
220.5476952075242139
 31
0.0
  0
LINE
  5
15B
100
AcDbEntity
100
AcDbLine
  8
Y Drive
 62
256
370
-1
  6
ByLayer
 10
134.7624999999999886
 20
-115.602304792475735
 30
0.0
 11
134.7624999999999886
 21
220.5476952075242139
 31
0.0
  0
LINE
  5
15C
100
AcDbEntity
100
AcDbLine
  8
Y Drive
 62
256
370
-1
  6
ByLayer
 10
137.9375
 20
-115.602304792475735
 30
0.0
 11
137.9375
 21
220.5476952075242139
 31
0.0
  0
LINE
  5
15D
100
AcDbEntity
100
AcDbLine
  8
Y Rail Support
 62
256
370
-1
  6
ByLayer
 10
19.5250000000000057
 20
217.4226952075242707
 30
0.0
 11
250.0
 21
217.4226952075242707
 31
0.0
  0
LINE
  5
15E
100
AcDbEntity
100
AcDbLine
  8
Y Rail Support
 62
256
370
-1
  6
ByLayer
 10
19.5250000000000057
 20
220.5476952075242707
 30
0.0
 11
250.0
 21
220.5476952075242707
 31
0.0
  0
LINE
  5
15F
100
AcDbEntity
100
AcDbLine
  8
Y Rail Support
 62
256
370
-1
  6
ByLayer
 10
19.5249999999999986
 20
182.5476952075242707
 30
0.0
 11
250.0
 21
182.5476952075242707
 31
0.0
  0
LINE
  5
160
100
AcDbEntity
100
AcDbLine
  8
Y Rail Support
 62
256
370
-1
  6
ByLayer
 10
250.0
 20
-112.477304792475735
 30
0.0
 11
19.5249999999999879
 21
-112.477304792475735
 31
0.0
  0
LINE
  5
161
100
AcDbEntity
100
AcDbLine
  8
Y Rail Support
 62
256
370
-1
  6
ByLayer
 10
250.0
 20
-115.602304792475735
 30
0.0
 11
19.5249999999999879
 21
-115.602304792475735
 31
0.0
  0
LINE
  5
162
100
AcDbEntity
100
AcDbLine
  8
Y Rail Support
 62
256
370
-1
  6
ByLayer
 10
250.0
 20
-77.602304792475735
 30
0.0
 11
19.5249999999999986
 21
-77.602304792475735
 31
0.0
  0
LINE
  5
163
100
AcDbEntity
100
AcDbLine
  8
Y Rail Support
 62
256
370
-1
  6
ByLayer
 10
19.5250000000000057
 20
220.5476952075242707
 30
0.0
 11
19.5249999999999986
 21
182.5476952075242707
 31
0.0
  0
LINE
  5
164
100
AcDbEntity
100
AcDbLine
  8
Y Rail Support
 62
256
370
-1
  6
ByLayer
 10
250.0
 20
220.5476952075242707
 30
0.0
 11
250.0
 21
182.5476952075242707
 31
0.0
  0
CIRCLE
  5
165
100
AcDbEntity
100
AcDbCircle
  8
Y Rail Support
 62
256
370
-1
  6
ByLayer
 10
240.4749999999999943
 20
-96.6023047924757066
 30
0.0
 40
3.9700000000000002
  0
CIRCLE
  5
166
100
AcDbEntity
100
AcDbCircle
  8
Y Rail Support
 62
256
370
-1
  6
ByLayer
 10
29.0499999999999901
 20
-96.6023047924757066
 30
0.0
 40
3.9700000000000002
  0
CIRCLE
  5
167
100
AcDbEntity
100
AcDbCircle
  8
Y Rail Support
 62
256
370
-1
  6
ByLayer
 10
29.0500000000000007
 20
198.4226952075242707
 30
0.0
 40
3.9700000000000002
  0
CIRCLE
  5
168
100
AcDbEntity
100
AcDbCircle
  8
Y Rail Support
 62
256
370
-1
  6
ByLayer
 10
240.4749999999999943
 20
198.4226952075242707
 30
0.0
 40
3.9700000000000002
  0
LINE
  5
169
100
AcDbEntity
100
AcDbLine
  8
Y Rail Support
 62
256
370
-1
  6
ByLayer
 10
19.5249999999999986
 20
-77.602304792475735
 30
0.0
 11
19.5249999999999879
 21
-115.602304792475735
 31
0.0
  0
LINE
  5
16A
100
AcDbEntity
100
AcDbLine
  8
Y Rail Support
 62
256
370
-1
  6
ByLayer
 10
250.0
 20
-77.602304792475735
 30
0.0
 11
250.0
 21
-115.602304792475735
 31
0.0
  0
LINE
  5
16B
100
AcDbEntity
100
AcDbLine
  8
Y Rails
 62
256
370
-1
  6
ByLayer
 10
39.0499999999999972
 20
217.4226952075242707
 30
0.0
 11
19.5250000000000057
 21
217.4226952075242707
 31
0.0
  0
LINE
  5
16C
100
AcDbEntity
100
AcDbLine
  8
Y Rails
 62
256
370
-1
  6
ByLayer
 10
230.4749999999999943
 20
217.4226952075242707
 30
0.0
 11
250.0
 21
217.4226952075242707
 31
0.0
  0
LINE
  5
16D
100
AcDbEntity
100
AcDbLine
  8
Y Rails
 62
256
370
-1
  6
ByLayer
 10
250.0
 20
217.4226952075242707
 30
0.0
 11
250.0
 21
-112.4773047924757066
 31
0.0
  0
LINE
  5
16E
100
AcDbEntity
100
AcDbLine
  8
Y Rails
 62
256
370
-1
  6
ByLayer
 10
230.4749999999999943
 20
-112.477304792475735
 30
0.0
 11
250.0
 21
-112.4773047924757066
 31
0.0
  0
LINE
  5
16F
100
AcDbEntity
100
AcDbLine
  8
Y Endstops
 62
256
370
-1
  6
ByLayer
 10
177.0299999999999443
 20
-96.602304792475735
 30
0.0
 11
204.9699999999999989
 21
-96.602304792475735
 31
0.0
  0
LINE
  5
170
100
AcDbEntity
100
AcDbLine
  8
Y Endstops
 62
256
370
-1
  6
ByLayer
 10
181.4749999999999943
 20
-96.602304792475735
 30
0.0
 11
181.4749999999999943
 21
-102.3173047924757384
 31
0.0
  0
LINE
  5
171
100
AcDbEntity
100
AcDbLine
  8
Y Endstops
 62
256
370
-1
  6
ByLayer
 10
200.5249999999999488
 20
-96.602304792475735
 30
0.0
 11
200.5249999999999488
 21
-102.3173047924757384
 31
0.0
  0
LINE
  5
172
100
AcDbEntity
100
AcDbLine
  8
Y Endstops
 62
256
370
-1
  6
ByLayer
 10
177.0300000000000011
 20
-83.267304792475727
 30
0.0
 11
177.0299999999999443
 21
-102.3173047924757384
 31
0.0
  0
LINE
  5
173
100
AcDbEntity
100
AcDbLine
  8
Y Endstops
 62
256
370
-1
  6
ByLayer
 10
204.9699999999999989
 20
-83.267304792475727
 30
0.0
 11
204.969999999999942
 21
-102.3173047924757384
 31
0.0
  0
LINE
  5
174
100
AcDbEntity
100
AcDbLine
  8
Y Endstops
 62
256
370
-1
  6
ByLayer
 10
177.0299999999999443
 20
-102.3173047924757384
 30
0.0
 11
204.969999999999942
 21
-102.3173047924757384
 31
0.0
  0
LINE
  5
175
100
AcDbEntity
100
AcDbLine
  8
Y Endstops
 62
256
370
-1
  6
ByLayer
 10
177.0299999999999443
 20
-93.427304792475752
 30
0.0
 11
204.9699999999999989
 21
-93.427304792475752
 31
0.0
  0
LINE
  5
176
100
AcDbEntity
100
AcDbLine
  8
Y Endstops
 62
256
370
-1
  6
ByLayer
 10
177.0299999999999443
 20
-99.7773047924757179
 30
0.0
 11
204.9699999999999989
 21
-99.7773047924757464
 31
0.0
  0
LINE
  5
177
100
AcDbEntity
100
AcDbLine
  8
Y Endstops
 62
256
370
-1
  6
ByLayer
 10
189.3499999999999375
 20
-93.4273047924757236
 30
0.0
 11
189.3499999999999375
 21
-99.7773047924757464
 31
0.0
  0
LINE
  5
178
100
AcDbEntity
100
AcDbLine
  8
Y Endstops
 62
256
370
-1
  6
ByLayer
 10
192.6500000000000057
 20
-93.4273047924757236
 30
0.0
 11
192.6499999999999488
 21
-99.7773047924757464
 31
0.0
  0
LINE
  5
179
100
AcDbEntity
100
AcDbLine
  8
Y Endstops
 62
256
370
-1
  6
ByLayer
 10
177.0300000000000011
 20
-83.267304792475727
 30
0.0
 11
204.9699999999999989
 21
-83.267304792475727
 31
0.0
  0
LINE
  5
17A
100
AcDbEntity
100
AcDbLine
  8
Y Endstops
 62
256
370
-1
  6
ByLayer
 10
184.9999999999999716
 20
-93.4273047924757236
 30
0.0
 11
184.9999999999999716
 21
-99.7773047924757179
 31
0.0
  0
LINE
  5
17B
100
AcDbEntity
100
AcDbLine
  8
Y Endstops
 62
256
370
-1
  6
ByLayer
 10
196.9999999999999716
 20
-93.4273047924757236
 30
0.0
 11
196.9999999999999716
 21
-99.7773047924757464
 31
0.0
  0
LINE
  5
17C
100
AcDbEntity
100
AcDbLine
  8
Y Endstops
 62
256
370
-1
  6
ByLayer
 10
190.9999999999999716
 20
-83.267304792475727
 30
0.0
 11
200.9999999999999716
 21
-83.267304792475727
 31
0.0
  0
LINE
  5
17D
100
AcDbEntity
100
AcDbLine
  8
Y Endstops
 62
256
370
-1
  6
ByLayer
 10
200.9999999999999716
 20
-83.267304792475727
 30
0.0
 11
200.9999999999999716
 21
-86.602304792475735
 31
0.0
  0
LINE
  5
17E
100
AcDbEntity
100
AcDbLine
  8
Y Endstops
 62
256
370
-1
  6
ByLayer
 10
200.9999999999999716
 20
-86.602304792475735
 30
0.0
 11
190.9999999999999716
 21
-86.602304792475735
 31
0.0
  0
LINE
  5
17F
100
AcDbEntity
100
AcDbLine
  8
Y Endstops
 62
256
370
-1
  6
ByLayer
 10
190.9999999999999716
 20
-86.602304792475735
 30
0.0
 11
190.9999999999999716
 21
-83.267304792475727
 31
0.0
  0
LINE
  5
180
100
AcDbEntity
100
AcDbLine
  8
Y Endstops
 62
256
370
-1
  6
ByLayer
 10
191.9999999999999716
 20
-83.602304792475735
 30
0.0
 11
199.9999999999999716
 21
-83.602304792475735
 31
0.0
  0
LINE
  5
181
100
AcDbEntity
100
AcDbLine
  8
Y Endstops
 62
256
370
-1
  6
ByLayer
 10
199.9999999999999716
 20
-83.602304792475735
 30
0.0
 11
199.9999999999999716
 21
-80.602304792475735
 31
0.0
  0
LINE
  5
182
100
AcDbEntity
100
AcDbLine
  8
Y Endstops
 62
256
370
-1
  6
ByLayer
 10
199.9999999999999716
 20
-80.602304792475735
 30
0.0
 11
191.9999999999999716
 21
-80.602304792475735
 31
0.0
  0
LINE
  5
183
100
AcDbEntity
100
AcDbLine
  8
Y Endstops
 62
256
370
-1
  6
ByLayer
 10
191.9999999999999716
 20
-80.602304792475735
 30
0.0
 11
191.9999999999999716
 21
-83.602304792475735
 31
0.0
  0
ARC
  5
184
100
AcDbEntity
  8
Y Endstops
 62
256
370
-1
  6
ByLayer
100
AcDbCircle
 10
176.9999999999999716
 20
-83.602304792475735
 30
0.0
 40
1.0
100
AcDbArc
 50
90.0
 51
180.0
  0
LINE
  5
185
100
AcDbEntity
100
AcDbLine
  8
Y Endstops
 62
256
370
-1
  6
ByLayer
 10
176.9999999999999716
 20
-82.602304792475735
 30
0.0
 11
204.9999999999999716
 21
-82.602304792475735
 31
0.0
  0
ARC
  5
186
100
AcDbEntity
  8
Y Endstops
 62
256
370
-1
  6
ByLayer
100
AcDbCircle
 10
204.9999999999999716
 20
-83.602304792475735
 30
0.0
 40
1.0
100
AcDbArc
 50
0.0
 51
90.0
  0
LINE
  5
187
100
AcDbEntity
100
AcDbLine
  8
Y Endstops
 62
256
370
-1
  6
ByLayer
 10
205.9999999999999716
 20
-83.602304792475735
 30
0.0
 11
205.9999999999999716
 21
-101.602304792475735
 31
0.0
  0
ARC
  5
188
100
AcDbEntity
  8
Y Endstops
 62
256
370
-1
  6
ByLayer
100
AcDbCircle
 10
204.9999999999999716
 20
-101.602304792475735
 30
0.0
 40
1.0
100
AcDbArc
 50
270.0
 51
0.0
  0
LINE
  5
189
100
AcDbEntity
100
AcDbLine
  8
Y Endstops
 62
256
370
-1
  6
ByLayer
 10
175.9999999999999716
 20
-83.602304792475735
 30
0.0
 11
175.9999999999999716
 21
-101.602304792475735
 31
0.0
  0
LINE
  5
18A
100
AcDbEntity
100
AcDbLine
  8
Y Endstops
 62
256
370
-1
  6
ByLayer
 10
176.9999999999999716
 20
-102.602304792475735
 30
0.0
 11
204.9999999999999716
 21
-102.602304792475735
 31
0.0
  0
ARC
  5
18B
100
AcDbEntity
  8
Y Endstops
 62
256
370
-1
  6
ByLayer
100
AcDbCircle
 10
176.9999999999999716
 20
-101.602304792475735
 30
0.0
 40
1.0
100
AcDbArc
 50
180.0
 51
270.0
  0
CIRCLE
  5
18C
100
AcDbEntity
100
AcDbCircle
  8
Y Endstops
 62
256
370
-1
  6
ByLayer
 10
181.4749999999999943
 20
-96.602304792475735
 30
0.0
 40
1.7
  0
CIRCLE
  5
18D
100
AcDbEntity
100
AcDbCircle
  8
Y Endstops
 62
256
370
-1
  6
ByLayer
 10
200.5249999999999488
 20
-96.602304792475735
 30
0.0
 40
1.7
  0
MTEXT
  5
18E
100
AcDbEntity
100
AcDbMText
  8
Y Endstops
 62
256
370
-1
  6
ByLayer
 10
190.9999999999999716
 20
-86.602304792475735
 30
0.0
 40
3.0
 41
100.0
 71
5
 72
2
  1
Endstop
  7
standard
 50
0.0
 73
0
 44
1.0
  0
LINE
  5
18F
100
AcDbEntity
100
AcDbLine
  8
Y Endstops
 62
256
370
-1
  6
ByLayer
 10
190.9999999999999716
 20
-93.4273047924757236
 30
0.0
 11
190.9999999999999716
 21
-99.7773047924757464
 31
0.0
  0
LINE
  5
190
100
AcDbEntity
100
AcDbLine
  8
Y Endstops
 62
256
370
-1
  6
ByLayer
 10
204.9699999999999989
 20
198.4226952075242707
 30
0.0
 11
177.0299999999999443
 21
198.4226952075242707
 31
0.0
  0
LINE
  5
191
100
AcDbEntity
100
AcDbLine
  8
Y Endstops
 62
256
370
-1
  6
ByLayer
 10
200.5249999999999488
 20
198.4226952075242707
 30
0.0
 11
200.5249999999999488
 21
204.1376952075242741
 31
0.0
  0
LINE
  5
192
100
AcDbEntity
100
AcDbLine
  8
Y Endstops
 62
256
370
-1
  6
ByLayer
 10
181.4749999999999943
 20
198.4226952075242707
 30
0.0
 11
181.4749999999999943
 21
204.1376952075242741
 31
0.0
  0
LINE
  5
193
100
AcDbEntity
100
AcDbLine
  8
Y Endstops
 62
256
370
-1
  6
ByLayer
 10
204.969999999999942
 20
185.0876952075242627
 30
0.0
 11
204.9699999999999989
 21
204.1376952075242741
 31
0.0
  0
LINE
  5
194
100
AcDbEntity
100
AcDbLine
  8
Y Endstops
 62
256
370
-1
  6
ByLayer
 10
177.0299999999999443
 20
185.0876952075242627
 30
0.0
 11
177.0300000000000011
 21
204.1376952075242741
 31
0.0
  0
LINE
  5
195
100
AcDbEntity
100
AcDbLine
  8
Y Endstops
 62
256
370
-1
  6
ByLayer
 10
204.9699999999999989
 20
204.1376952075242741
 30
0.0
 11
177.0300000000000011
 21
204.1376952075242741
 31
0.0
  0
LINE
  5
196
100
AcDbEntity
100
AcDbLine
  8
Y Endstops
 62
256
370
-1
  6
ByLayer
 10
204.9699999999999989
 20
195.2476952075242878
 30
0.0
 11
177.0299999999999443
 21
195.2476952075242878
 31
0.0
  0
LINE
  5
197
100
AcDbEntity
100
AcDbLine
  8
Y Endstops
 62
256
370
-1
  6
ByLayer
 10
204.9699999999999989
 20
201.5976952075242536
 30
0.0
 11
177.0299999999999443
 21
201.5976952075242821
 31
0.0
  0
LINE
  5
198
100
AcDbEntity
100
AcDbLine
  8
Y Endstops
 62
256
370
-1
  6
ByLayer
 10
192.6500000000000057
 20
195.2476952075242593
 30
0.0
 11
192.6500000000000057
 21
201.5976952075242821
 31
0.0
  0
LINE
  5
199
100
AcDbEntity
100
AcDbLine
  8
Y Endstops
 62
256
370
-1
  6
ByLayer
 10
189.3499999999999375
 20
195.2476952075242593
 30
0.0
 11
189.3499999999999943
 21
201.5976952075242821
 31
0.0
  0
LINE
  5
19A
100
AcDbEntity
100
AcDbLine
  8
Y Endstops
 62
256
370
-1
  6
ByLayer
 10
204.969999999999942
 20
185.0876952075242627
 30
0.0
 11
177.0299999999999443
 21
185.0876952075242627
 31
0.0
  0
LINE
  5
19B
100
AcDbEntity
100
AcDbLine
  8
Y Endstops
 62
256
370
-1
  6
ByLayer
 10
196.9999999999999716
 20
195.2476952075242593
 30
0.0
 11
196.9999999999999716
 21
201.5976952075242821
 31
0.0
  0
LINE
  5
19C
100
AcDbEntity
100
AcDbLine
  8
Y Endstops
 62
256
370
-1
  6
ByLayer
 10
184.9999999999999716
 20
195.2476952075242593
 30
0.0
 11
184.9999999999999716
 21
201.5976952075242821
 31
0.0
  0
LINE
  5
19D
100
AcDbEntity
100
AcDbLine
  8
Y Endstops
 62
256
370
-1
  6
ByLayer
 10
190.9999999999999716
 20
185.0876952075242627
 30
0.0
 11
180.9999999999999716
 21
185.0876952075242627
 31
0.0
  0
LINE
  5
19E
100
AcDbEntity
100
AcDbLine
  8
Y Endstops
 62
256
370
-1
  6
ByLayer
 10
180.9999999999999716
 20
185.0876952075242627
 30
0.0
 11
180.9999999999999716
 21
188.4226952075242707
 31
0.0
  0
LINE
  5
19F
100
AcDbEntity
100
AcDbLine
  8
Y Endstops
 62
256
370
-1
  6
ByLayer
 10
180.9999999999999716
 20
188.4226952075242707
 30
0.0
 11
190.9999999999999716
 21
188.4226952075242707
 31
0.0
  0
LINE
  5
1A0
100
AcDbEntity
100
AcDbLine
  8
Y Endstops
 62
256
370
-1
  6
ByLayer
 10
190.9999999999999716
 20
188.4226952075242707
 30
0.0
 11
190.9999999999999716
 21
185.0876952075242627
 31
0.0
  0
LINE
  5
1A1
100
AcDbEntity
100
AcDbLine
  8
Y Endstops
 62
256
370
-1
  6
ByLayer
 10
189.9999999999999716
 20
185.4226952075242707
 30
0.0
 11
181.9999999999999716
 21
185.4226952075242707
 31
0.0
  0
LINE
  5
1A2
100
AcDbEntity
100
AcDbLine
  8
Y Endstops
 62
256
370
-1
  6
ByLayer
 10
181.9999999999999716
 20
185.4226952075242707
 30
0.0
 11
181.9999999999999716
 21
182.4226952075242707
 31
0.0
  0
LINE
  5
1A3
100
AcDbEntity
100
AcDbLine
  8
Y Endstops
 62
256
370
-1
  6
ByLayer
 10
181.9999999999999716
 20
182.4226952075242707
 30
0.0
 11
189.9999999999999716
 21
182.4226952075242707
 31
0.0
  0
LINE
  5
1A4
100
AcDbEntity
100
AcDbLine
  8
Y Endstops
 62
256
370
-1
  6
ByLayer
 10
189.9999999999999716
 20
182.4226952075242707
 30
0.0
 11
189.9999999999999716
 21
185.4226952075242707
 31
0.0
  0
ARC
  5
1A5
100
AcDbEntity
  8
Y Endstops
 62
256
370
-1
  6
ByLayer
100
AcDbCircle
 10
204.9999999999999716
 20
185.4226952075242707
 30
0.0
 40
1.0
100
AcDbArc
 50
270.0
 51
360.0
  0
LINE
  5
1A6
100
AcDbEntity
100
AcDbLine
  8
Y Endstops
 62
256
370
-1
  6
ByLayer
 10
204.9999999999999716
 20
184.4226952075242707
 30
0.0
 11
176.9999999999999716
 21
184.4226952075242707
 31
0.0
  0
ARC
  5
1A7
100
AcDbEntity
  8
Y Endstops
 62
256
370
-1
  6
ByLayer
100
AcDbCircle
 10
176.9999999999999716
 20
185.4226952075242707
 30
0.0
 40
1.0
100
AcDbArc
 50
180.0
 51
270.0
  0
LINE
  5
1A8
100
AcDbEntity
100
AcDbLine
  8
Y Endstops
 62
256
370
-1
  6
ByLayer
 10
175.9999999999999716
 20
185.4226952075242707
 30
0.0
 11
175.9999999999999716
 21
203.4226952075242707
 31
0.0
  0
ARC
  5
1A9
100
AcDbEntity
  8
Y Endstops
 62
256
370
-1
  6
ByLayer
100
AcDbCircle
 10
176.9999999999999716
 20
203.4226952075242707
 30
0.0
 40
1.0
100
AcDbArc
 50
90.0
 51
180.0
  0
LINE
  5
1AA
100
AcDbEntity
100
AcDbLine
  8
Y Endstops
 62
256
370
-1
  6
ByLayer
 10
205.9999999999999716
 20
185.4226952075242707
 30
0.0
 11
205.9999999999999716
 21
203.4226952075242707
 31
0.0
  0
LINE
  5
1AB
100
AcDbEntity
100
AcDbLine
  8
Y Endstops
 62
256
370
-1
  6
ByLayer
 10
204.9999999999999716
 20
204.4226952075242707
 30
0.0
 11
176.9999999999999716
 21
204.4226952075242991
 31
0.0
  0
ARC
  5
1AC
100
AcDbEntity
  8
Y Endstops
 62
256
370
-1
  6
ByLayer
100
AcDbCircle
 10
204.9999999999999716
 20
203.4226952075242707
 30
0.0
 40
1.0
100
AcDbArc
 50
360.0
 51
90.0
  0
CIRCLE
  5
1AD
100
AcDbEntity
100
AcDbCircle
  8
Y Endstops
 62
256
370
-1
  6
ByLayer
 10
200.5249999999999488
 20
198.4226952075242707
 30
0.0
 40
1.7
  0
CIRCLE
  5
1AE
100
AcDbEntity
100
AcDbCircle
  8
Y Endstops
 62
256
370
-1
  6
ByLayer
 10
181.4749999999999943
 20
198.4226952075242707
 30
0.0
 40
1.7
  0
MTEXT
  5
1AF
100
AcDbEntity
100
AcDbMText
  8
Y Endstops
 62
256
370
-1
  6
ByLayer
 10
190.9999999999999716
 20
188.4226952075242707
 30
0.0
 40
3.0
 41
100.0
 71
5
 72
2
  1
Endstop
  7
standard
 50
180.0
 73
0
 44
1.0
  0
LINE
  5
1B0
100
AcDbEntity
100
AcDbLine
  8
Y Endstops
 62
256
370
-1
  6
ByLayer
 10
190.9999999999999716
 20
195.2476952075242593
 30
0.0
 11
190.9999999999999716
 21
201.5976952075242821
 31
0.0
  0
LINE
  5
1B1
100
AcDbEntity
100
AcDbLine
  8
Y Rails
 62
256
370
-1
  6
ByLayer
 10
39.0499999999999829
 20
-112.477304792475735
 30
0.0
 11
19.5249999999999915
 21
-112.477304792475735
 31
0.0
  0
LINE
  5
1B2
100
AcDbEntity
100
AcDbLine
  8
Y Rails
 62
256
370
-1
  6
ByLayer
 10
19.5250000000000057
 20
217.4226952075242707
 30
0.0
 11
19.5249999999999915
 21
-112.477304792475735
 31
0.0
  0
LINE
  5
1B3
100
AcDbEntity
100
AcDbLine
  8
Y Drawings
 62
256
370
-1
  6
ByLayer
 10
113.7624999999999886
 20
-163.602304792475735
 30
0.0
 11
155.7624999999999886
 21
-163.602304792475735
 31
0.0
  0
LINE
  5
1B4
100
AcDbEntity
100
AcDbLine
  8
Y Drawings
 62
256
370
-1
  6
ByLayer
 10
155.7624999999999886
 20
-163.602304792475735
 30
0.0
 11
155.7624999999999886
 21
-115.602304792475735
 31
0.0
  0
LINE
  5
1B5
100
AcDbEntity
100
AcDbLine
  8
Y Drawings
 62
256
370
-1
  6
ByLayer
 10
155.7624999999999886
 20
-115.602304792475735
 30
0.0
 11
113.7624999999999886
 21
-115.602304792475735
 31
0.0
  0
LINE
  5
1B6
100
AcDbEntity
100
AcDbLine
  8
Y Drawings
 62
256
370
-1
  6
ByLayer
 10
113.7624999999999886
 20
-115.602304792475735
 30
0.0
 11
113.7624999999999886
 21
-163.602304792475735
 31
0.0
  0
LINE
  5
1B7
100
AcDbEntity
100
AcDbLine
  8
Y Drawings
 62
256
370
-1
  6
ByLayer
 10
111.7437499999999915
 20
139.897695207524265
 30
0.0
 11
111.7437499999999915
 21
149.4226952075242707
 31
0.0
  0
LINE
  5
1B8
100
AcDbEntity
100
AcDbLine
  8
Y Drawings
 62
256
370
-1
  6
ByLayer
 10
111.7437499999999915
 20
139.897695207524265
 30
0.0
 11
157.78125
 21
139.897695207524265
 31
0.0
  0
LINE
  5
1B9
100
AcDbEntity
100
AcDbLine
  8
Y Drawings
 62
256
370
-1
  6
ByLayer
 10
157.78125
 20
139.897695207524265
 30
0.0
 11
157.78125
 21
149.4226952075242707
 31
0.0
  0
DIMENSION
  5
1BA
100
AcDbEntity
  8
Y Drawings
 62
256
370
-1
  6
ByLayer
100
AcDbDimension
 10
79.0500000000000114
 20
71.8526952075242775
 30
0.0
 11
54.0500000000000043
 21
73.7276952075242775
 31
0.0
 70
0
 71
5
 72
0
 41
1.0
 42
0.0
  1

  3
Standard
100
AcDbAlignedDimension
 13
29.0499999999999936
 23
79.4226952075242707
 33
0.0
 14
79.0500000000000114
 24
79.4226952075242707
 34
0.0
 50
0.0
100
AcDbRotatedDimension
  0
LINE
  5
1BB
100
AcDbEntity
100
AcDbLine
  8
Y Drawings
 62
256
370
-1
  6
ByLayer
 10
8.5249999999999915
 20
79.4226952075242707
 30
0.0
 11
190.9999999999999432
 21
79.4226952075242707
 31
0.0
  0
CIRCLE
  5
1BC
100
AcDbEntity
100
AcDbCircle
  8
Y Stage
 62
256
370
-1
  6
ByLayer
 10
190.9999999999999147
 20
19.4703904150485414
 30
0.0
 40
3.9700000000000002
  0
CIRCLE
  5
1BD
100
AcDbEntity
100
AcDbCircle
  8
Y Text
 62
256
370
-1
  6
ByLayer
 10
190.9999999999999147
 20
19.4703904150485414
 30
0.0
 40
7.5700000000000003
  0
CIRCLE
  5
1BE
100
AcDbEntity
100
AcDbCircle
  8
Y Stage
 62
256
370
-1
  6
ByLayer
 10
190.9999999999998863
 20
79.4703904150485414
 30
0.0
 40
3.9700000000000002
  0
CIRCLE
  5
1BF
100
AcDbEntity
100
AcDbCircle
  8
Y Text
 62
256
370
-1
  6
ByLayer
 10
190.9999999999998863
 20
79.4703904150485414
 30
0.0
 40
7.5700000000000003
  0
LINE
  5
1C0
100
AcDbEntity
100
AcDbLine
  8
Y Drawings
 62
256
370
-1
  6
ByLayer
 10
-2.4750000000000032
 20
109.4226952075242707
 30
0.0
 11
250.0
 21
109.4226952075242707
 31
0.0
  0
LINE
  5
1C1
100
AcDbEntity
100
AcDbLine
  8
Y Drawings
 62
256
370
-1
  6
ByLayer
 10
-2.4750000000000121
 20
-10.5773047924757293
 30
0.0
 11
260.0
 21
-10.5773047924757293
 31
0.0
  0
CIRCLE
  5
1C2
100
AcDbEntity
100
AcDbCircle
  8
Y Stage
 62
256
370
-1
  6
ByLayer
 10
261.0
 20
-10.5773047924757009
 30
0.0
 40
3.9700000000000002
  0
CIRCLE
  5
1C3
100
AcDbEntity
100
AcDbCircle
  8
Y Text
 62
256
370
-1
  6
ByLayer
 10
261.0
 20
-10.5773047924757009
 30
0.0
 40
7.5700000000000003
  0
CIRCLE
  5
1C4
100
AcDbEntity
100
AcDbCircle
  8
Y Drawings
 62
256
370
-1
  6
ByLayer
 10
261.0
 20
-10.5773047924757009
 30
0.0
 40
11.0
  0
CIRCLE
  5
1C5
100
AcDbEntity
100
AcDbCircle
  8
Y Stage
 62
256
370
-1
  6
ByLayer
 10
261.0
 20
109.4226952075242707
 30
0.0
 40
3.9700000000000002
  0
CIRCLE
  5
1C6
100
AcDbEntity
100
AcDbCircle
  8
Y Text
 62
256
370
-1
  6
ByLayer
 10
261.0
 20
109.4226952075242707
 30
0.0
 40
7.5700000000000003
  0
CIRCLE
  5
1C7
100
AcDbEntity
100
AcDbCircle
  8
Y Drawings
 62
256
370
-1
  6
ByLayer
 10
261.0
 20
109.4226952075242707
 30
0.0
 40
11.0
  0
CIRCLE
  5
1C8
100
AcDbEntity
100
AcDbCircle
  8
X Stage
 62
256
370
-1
  6
ByLayer
 10
6.050000000000006
 20
25.9039452075242735
 30
0.0
 40
2.0
  0
CIRCLE
  5
1C9
100
AcDbEntity
100
AcDbCircle
  8
X Stage
 62
256
370
-1
  6
ByLayer
 10
6.050000000000006
 20
71.9414452075242679
 30
0.0
 40
2.0
  0
CIRCLE
  5
1CA
100
AcDbEntity
100
AcDbCircle
  8
Y Stage
 62
256
370
-1
  6
ByLayer
 10
111.7437499999999915
 20
139.897695207524265
 30
0.0
 40
2.0
  0
CIRCLE
  5
1CB
100
AcDbEntity
100
AcDbCircle
  8
Y Stage
 62
256
370
-1
  6
ByLayer
 10
157.78125
 20
139.897695207524265
 30
0.0
 40
2.0
  0
ENDSEC
  0
SECTION
  2
OBJECTS
  0
DICTIONARY
  5
C
100
AcDbDictionary
280
0
281
1
  3
ACAD_GROUP
350
D
  3
ACAD_LAYOUT
350
1A
  3
ACAD_MLINESTYLE
350
17
  3
ACAD_PLOTSETTINGS
350
19
  3
ACAD_PLOTSTYLENAME
350
E
  3
AcDbVariableDictionary
350
1CC
  0
DICTIONARY
  5
D
100
AcDbDictionary
280
0
281
1
  0
ACDBDICTIONARYWDFLT
  5
E
100
AcDbDictionary
281
1
  3
Normal
350
F
100
AcDbDictionaryWithDefault
340
F
  0
ACDBPLACEHOLDER
  5
F
  0
DICTIONARY
  5
17
100
AcDbDictionary
280
0
281
1
  3
Standard
350
18
  0
MLINESTYLE
  5
18
100
AcDbMlineStyle
  2
STANDARD
 70
0
  3

 62
256
 51
90.0
 52
90.0
 71
2
 49
0.5
 62
256
  6
BYLAYER
 49
-0.5
 62
256
  6
BYLAYER
  0
DICTIONARY
  5
19
100
AcDbDictionary
280
0
281
1
  0
DICTIONARY
  5
1A
100
AcDbDictionary
281
1
  3
Layout1
350
1E
  3
Layout2
350
26
  3
Model
350
22
  0
LAYOUT
  5
1E
100
AcDbPlotSettings
  1

  2
C:\Program Files\AutoCAD 2002\plotters\DWF ePlot (optimized for plotting).pc3
  4

  6

 40
0.0
 41
0.0
 42
0.0
 43
0.0
 44
0.0
 45
0.0
 46
0.0
 47
0.0
 48
0.0
 49
0.0
140
0.0
141
0.0
142
1.0
143
1.0
 70
688
 72
0
 73
0
 74
5
  7

 75
16
147
1.0
148
0.0
149
0.0
100
AcDbLayout
  1
Layout1
 70
1
 71
1
 10
0.0
 20
0.0
 11
420.0
 21
297.0
 12
0.0
 22
0.0
 32
0.0
 14
100000000000000000000.0
 24
100000000000000000000.0
 34
100000000000000000000.0
 15
-100000000000000000000.0
 25
-100000000000000000000.0
 35
-100000000000000000000.0
146
0.0
 13
0.0
 23
0.0
 33
0.0
 16
1.0
 26
0.0
 36
0.0
 17
0.0
 27
1.0
 37
0.0
 76
0
330
1B
  0
LAYOUT
  5
22
100
AcDbPlotSettings
  1

  2
C:\Program Files\AutoCAD 2002\plotters\DWF ePlot (optimized for plotting).pc3
  4

  6

 40
0.0
 41
0.0
 42
0.0
 43
0.0
 44
0.0
 45
0.0
 46
0.0
 47
0.0
 48
0.0
 49
0.0
140
0.0
141
0.0
142
1.0
143
1.0
 70
1712
 72
0
 73
0
 74
0
  7

 75
0
147
1.0
148
0.0
149
0.0
100
AcDbLayout
  1
Model
 70
1
 71
0
 10
0.0
 20
0.0
 11
12.0
 21
9.0
 12
0.0
 22
0.0
 32
0.0
 14
0.0
 24
0.0
 34
0.0
 15
0.0
 25
0.0
 35
0.0
146
0.0
 13
0.0
 23
0.0
 33
0.0
 16
1.0
 26
0.0
 36
0.0
 17
0.0
 27
1.0
 37
0.0
 76
0
330
1F
  0
LAYOUT
  5
26
100
AcDbPlotSettings
  1

  2
C:\Program Files\AutoCAD 2002\plotters\DWF ePlot (optimized for plotting).pc3
  4

  6

 40
0.0
 41
0.0
 42
0.0
 43
0.0
 44
0.0
 45
0.0
 46
0.0
 47
0.0
 48
0.0
 49
0.0
140
0.0
141
0.0
142
1.0
143
1.0
 70
688
 72
0
 73
0
 74
5
  7

 75
16
147
1.0
148
0.0
149
0.0
100
AcDbLayout
  1
Layout2
 70
1
 71
2
 10
0.0
 20
0.0
 11
12.0
 21
9.0
 12
0.0
 22
0.0
 32
0.0
 14
0.0
 24
0.0
 34
0.0
 15
0.0
 25
0.0
 35
0.0
146
0.0
 13
0.0
 23
0.0
 33
0.0
 16
1.0
 26
0.0
 36
0.0
 17
0.0
 27
1.0
 37
0.0
 76
0
330
23
  0
DICTIONARY
  5
1CC
100
AcDbDictionary
281
1
  3
DIMASSOC
350
1CE
  3
HIDETEXT
350
1CD
  0
DICTIONARYVAR
  5
1CD
100
DictionaryVariables
280
0
  1
2
  0
DICTIONARYVAR
  5
1CE
100
DictionaryVariables
280
0
  1
1
  0
ENDSEC
  0
EOF
