999
dxflib 2.1.2.0
  0
SECTION
  2
HEADER
  9
$ACADVER
  1
AC1015
  9
$HANDSEED
  5
FFFF
  9
$DIMASZ
 40
2.5
  9
$PLIMMIN
 10
0.0
 20
0.0
  9
$DIMEXE
 40
1.25
  9
$DIMGAP
 40
0.625
  9
$PLIMMAX
 10
210.0
 20
297.0
  9
$INSUNITS
 70
4
  9
$DIMSTYLE
  2
Standard
  9
$CLAYER
  8
Z Rails
  9
$DIMEXO
 40
0.625
  9
$DIMTXT
 40
2.5
  9
$CLAYER
  8
Z Drawing
  0
ENDSEC
  0
SECTION
  2
TABLES
  0
TABLE
  2
VPORT
  5
8
100
AcDbSymbolTable
 70
1
  0
VPORT
  5
30
100
AcDbSymbolTableRecord
100
AcDbViewportTableRecord
  2
*Active
 70
0
 10
0.0
 20
0.0
 11
1.0
 21
1.0
 12
286.3055555555554861
 22
148.5
 13
0.0
 23
0.0
 14
10.0
 24
10.0
 15
10.0
 25
10.0
 16
0.0
 26
0.0
 36
1.0
 17
0.0
 27
0.0
 37
0.0
 40
297.0
 41
1.92798353909465
 42
50.0
 43
0.0
 44
0.0
 50
0.0
 51
0.0
 71
0
 72
100
 73
1
 74
3
 75
1
 76
1
 77
0
 78
0
281
0
 65
1
110
0.0
120
0.0
130
0.0
111
1.0
121
0.0
131
0.0
112
0.0
122
1.0
132
0.0
 79
0
146
0.0
  0
ENDTAB
  0
TABLE
  2
LTYPE
  5
5
100
AcDbSymbolTable
 70
21
  0
LTYPE
  5
14
100
AcDbSymbolTableRecord
100
AcDbLinetypeTableRecord
  2
ByBlock
 70
0
  3

 72
65
 73
0
 40
0.0
  0
LTYPE
  5
15
100
AcDbSymbolTableRecord
100
AcDbLinetypeTableRecord
  2
ByLayer
 70
0
  3

 72
65
 73
0
 40
0.0
  0
LTYPE
  5
16
100
AcDbSymbolTableRecord
100
AcDbLinetypeTableRecord
  2
CONTINUOUS
 70
0
  3
Solid line
 72
65
 73
0
 40
0.0
  0
LTYPE
  5
31
100
AcDbSymbolTableRecord
100
AcDbLinetypeTableRecord
  2
DOT
 70
0
  3
Dot . . . . . . . . . . . . . . . . . . . . . .
 72
65
 73
2
 40
6.3499999999999996
 49
0.0
 74
0
 49
-6.3499999999999996
 74
0
  0
LTYPE
  5
32
100
AcDbSymbolTableRecord
100
AcDbLinetypeTableRecord
  2
DOT2
 70
0
  3
Dot (.5x) .....................................
 72
65
 73
2
 40
3.1749999999999998
 49
0.0
 74
0
 49
-3.1749999999999998
 74
0
  0
LTYPE
  5
33
100
AcDbSymbolTableRecord
100
AcDbLinetypeTableRecord
  2
DOTX2
 70
0
  3
Dot (2x) .  .  .  .  .  .  .  .  .  .  .  .  .
 72
65
 73
2
 40
12.6999999999999993
 49
0.0
 74
0
 49
-12.6999999999999993
 74
0
  0
LTYPE
  5
34
100
AcDbSymbolTableRecord
100
AcDbLinetypeTableRecord
  2
DASHED
 70
0
  3
Dashed __ __ __ __ __ __ __ __ __ __ __ __ __ _
 72
65
 73
2
 40
19.0500000000000007
 49
12.6999999999999993
 74
0
 49
-6.3499999999999996
 74
0
  0
LTYPE
  5
35
100
AcDbSymbolTableRecord
100
AcDbLinetypeTableRecord
  2
DASHED2
 70
0
  3
Dashed (.5x) _ _ _ _ _ _ _ _ _ _ _ _ _ _ _ _ _
 72
65
 73
2
 40
9.5250000000000004
 49
6.3499999999999996
 74
0
 49
-3.1749999999999998
 74
0
  0
LTYPE
  5
36
100
AcDbSymbolTableRecord
100
AcDbLinetypeTableRecord
  2
DASHEDX2
 70
0
  3
Dashed (2x) ____  ____  ____  ____  ____  ___
 72
65
 73
2
 40
38.1000000000000014
 49
25.3999999999999986
 74
0
 49
-12.6999999999999993
 74
0
  0
LTYPE
  5
37
100
AcDbSymbolTableRecord
100
AcDbLinetypeTableRecord
  2
DASHDOT
 70
0
  3
Dash dot __ . __ . __ . __ . __ . __ . __ . __
 72
65
 73
4
 40
25.3999999999999986
 49
12.6999999999999993
 74
0
 49
-6.3499999999999996
 74
0
 49
0.0
 74
0
 49
-6.3499999999999996
 74
0
  0
LTYPE
  5
38
100
AcDbSymbolTableRecord
100
AcDbLinetypeTableRecord
  2
DASHDOT2
 70
0
  3
Dash dot (.5x) _._._._._._._._._._._._._._._.
 72
65
 73
4
 40
12.6999999999999993
 49
6.3499999999999996
 74
0
 49
-3.1749999999999998
 74
0
 49
0.0
 74
0
 49
-3.1749999999999998
 74
0
  0
LTYPE
  5
39
100
AcDbSymbolTableRecord
100
AcDbLinetypeTableRecord
  2
DASHDOTX2
 70
0
  3
Dash dot (2x) ____  .  ____  .  ____  .  ___
 72
65
 73
4
 40
50.7999999999999972
 49
25.3999999999999986
 74
0
 49
-12.6999999999999993
 74
0
 49
0.0
 74
0
 49
-12.6999999999999993
 74
0
  0
LTYPE
  5
3A
100
AcDbSymbolTableRecord
100
AcDbLinetypeTableRecord
  2
DIVIDE
 70
0
  3
Divide ____ . . ____ . . ____ . . ____ . . ____
 72
65
 73
6
 40
31.75
 49
12.6999999999999993
 74
0
 49
-6.3499999999999996
 74
0
 49
0.0
 74
0
 49
-6.3499999999999996
 74
0
 49
0.0
 74
0
 49
-6.3499999999999996
 74
0
  0
LTYPE
  5
3B
100
AcDbSymbolTableRecord
100
AcDbLinetypeTableRecord
  2
DIVIDE2
 70
0
  3
Divide (.5x) __..__..__..__..__..__..__..__.._
 72
65
 73
6
 40
15.875
 49
6.3499999999999996
 74
0
 49
-3.1749999999999998
 74
0
 49
0.0
 74
0
 49
-3.1749999999999998
 74
0
 49
0.0
 74
0
 49
-3.1749999999999998
 74
0
  0
LTYPE
  5
3C
100
AcDbSymbolTableRecord
100
AcDbLinetypeTableRecord
  2
DIVIDEX2
 70
0
  3
Divide (2x) ________  .  .  ________  .  .  _
 72
65
 73
6
 40
63.5
 49
25.3999999999999986
 74
0
 49
-12.6999999999999993
 74
0
 49
0.0
 74
0
 49
-12.6999999999999993
 74
0
 49
0.0
 74
0
 49
-12.6999999999999993
 74
0
  0
LTYPE
  5
3D
100
AcDbSymbolTableRecord
100
AcDbLinetypeTableRecord
  2
CENTER
 70
0
  3
Center ____ _ ____ _ ____ _ ____ _ ____ _ ____
 72
65
 73
4
 40
50.7999999999999972
 49
31.75
 74
0
 49
-6.3499999999999996
 74
0
 49
6.3499999999999996
 74
0
 49
-6.3499999999999996
 74
0
  0
LTYPE
  5
3E
100
AcDbSymbolTableRecord
100
AcDbLinetypeTableRecord
  2
CENTER2
 70
0
  3
Center (.5x) ___ _ ___ _ ___ _ ___ _ ___ _ ___
 72
65
 73
4
 40
28.5749999999999993
 49
19.0500000000000007
 74
0
 49
-3.1749999999999998
 74
0
 49
3.1749999999999998
 74
0
 49
-3.1749999999999998
 74
0
  0
LTYPE
  5
3F
100
AcDbSymbolTableRecord
100
AcDbLinetypeTableRecord
  2
CENTERX2
 70
0
  3
Center (2x) ________  __  ________  __  _____
 72
65
 73
4
 40
101.5999999999999943
 49
63.5
 74
0
 49
-12.6999999999999993
 74
0
 49
12.6999999999999993
 74
0
 49
-12.6999999999999993
 74
0
  0
LTYPE
  5
40
100
AcDbSymbolTableRecord
100
AcDbLinetypeTableRecord
  2
BORDER
 70
0
  3
Border __ __ . __ __ . __ __ . __ __ . __ __ .
 72
65
 73
6
 40
44.4500000000000028
 49
12.6999999999999993
 74
0
 49
-6.3499999999999996
 74
0
 49
12.6999999999999993
 74
0
 49
-6.3499999999999996
 74
0
 49
0.0
 74
0
 49
-6.3499999999999996
 74
0
  0
LTYPE
  5
41
100
AcDbSymbolTableRecord
100
AcDbLinetypeTableRecord
  2
BORDER2
 70
0
  3
Border (.5x) __.__.__.__.__.__.__.__.__.__.__.
 72
65
 73
6
 40
22.2250000000000014
 49
6.3499999999999996
 74
0
 49
-3.1749999999999998
 74
0
 49
6.3499999999999996
 74
0
 49
-3.1749999999999998
 74
0
 49
0.0
 74
0
 49
-3.1749999999999998
 74
0
  0
LTYPE
  5
42
100
AcDbSymbolTableRecord
100
AcDbLinetypeTableRecord
  2
BORDERX2
 70
0
  3
Border (2x) ____  ____  .  ____  ____  .  ___
 72
65
 73
6
 40
88.9000000000000057
 49
25.3999999999999986
 74
0
 49
-12.6999999999999993
 74
0
 49
25.3999999999999986
 74
0
 49
-12.6999999999999993
 74
0
 49
0.0
 74
0
 49
-12.6999999999999993
 74
0
  0
ENDTAB
  0
TABLE
  2
LAYER
  5
2
100
AcDbSymbolTable
 70
18
  0
LAYER
  5
10
100
AcDbSymbolTableRecord
100
AcDbLayerTableRecord
  2
0
 70
1
 62
-7
  6
CONTINUOUS
370
0
390
F
  0
LAYER
  5
43
100
AcDbSymbolTableRecord
100
AcDbLayerTableRecord
  2
Vertical Base
 70
1
 62
-1
  6
CONTINUOUS
370
0
390
F
  0
LAYER
  5
44
100
AcDbSymbolTableRecord
100
AcDbLayerTableRecord
  2
Z Rails
 70
1
 62
-81
  6
CONTINUOUS
370
0
390
F
  0
LAYER
  5
45
100
AcDbSymbolTableRecord
100
AcDbLayerTableRecord
  2
Z Drawing
 70
1
 62
-7
  6
CONTINUOUS
370
0
390
F
  0
LAYER
  5
46
100
AcDbSymbolTableRecord
100
AcDbLayerTableRecord
  2
Z Stage
 70
1
 62
-3
  6
CONTINUOUS
370
0
390
F
  0
LAYER
  5
47
100
AcDbSymbolTableRecord
100
AcDbLayerTableRecord
  2
Vertical Base Text
 70
1
 62
-34
  6
CONTINUOUS
370
0
390
F
  0
LAYER
  5
48
100
AcDbSymbolTableRecord
100
AcDbLayerTableRecord
  2
Z Text
 70
1
 62
-72
  6
CONTINUOUS
370
0
390
F
  0
LAYER
  5
49
100
AcDbSymbolTableRecord
100
AcDbLayerTableRecord
  2
Z Drive
 70
1
 62
-76
  6
CONTINUOUS
370
0
390
F
  0
LAYER
  5
4A
100
AcDbSymbolTableRecord
100
AcDbLayerTableRecord
  2
Opto Endstop
 70
1
 62
-7
  6
CONTINUOUS
370
0
390
F
  0
LAYER
  5
4B
100
AcDbSymbolTableRecord
100
AcDbLayerTableRecord
  2
Flange Mount
 70
1
 62
-7
  6
CONTINUOUS
370
0
390
F
  0
LAYER
  5
4C
100
AcDbSymbolTableRecord
100
AcDbLayerTableRecord
  2
Vertical Base Drawings
 70
1
 62
-7
  6
CONTINUOUS
370
0
390
F
  0
LAYER
  5
4D
100
AcDbSymbolTableRecord
100
AcDbLayerTableRecord
  2
Vertical Base Measurements
 70
1
 62
-7
  6
CONTINUOUS
370
0
390
F
  0
LAYER
  5
4E
100
AcDbSymbolTableRecord
100
AcDbLayerTableRecord
  2
Z Rail Supports
 70
0
 62
7
  6
CONTINUOUS
370
0
390
F
  0
LAYER
  5
4F
100
AcDbSymbolTableRecord
100
AcDbLayerTableRecord
  2
Z Endstops
 70
0
 62
7
  6
CONTINUOUS
370
0
390
F
  0
LAYER
  5
50
100
AcDbSymbolTableRecord
100
AcDbLayerTableRecord
  2
Drawings
 70
1
 62
-4
  6
CONTINUOUS
370
0
390
F
  0
LAYER
  5
51
100
AcDbSymbolTableRecord
100
AcDbLayerTableRecord
  2
Acrylic
 70
1
 62
-1
  6
CONTINUOUS
370
0
390
F
  0
LAYER
  5
52
100
AcDbSymbolTableRecord
100
AcDbLayerTableRecord
  2
Text
 70
1
 62
-6
  6
CONTINUOUS
370
0
390
F
  0
LAYER
  5
53
100
AcDbSymbolTableRecord
100
AcDbLayerTableRecord
  2
Z Measurements
 70
1
 62
-2
  6
CONTINUOUS
370
0
390
F
  0
ENDTAB
  0
TABLE
  2
STYLE
  5
3
100
AcDbSymbolTable
 70
1
  0
STYLE
  5
11
100
AcDbSymbolTableRecord
100
AcDbTextStyleTableRecord
  2
Standard
 70
0
 40
0.0
 41
0.75
 50
0.0
 71
0
 42
2.5
  3
txt
  4

  0
ENDTAB
  0
TABLE
  2
VIEW
  5
6
100
AcDbSymbolTable
 70
0
  0
ENDTAB
  0
TABLE
  2
UCS
  5
7
100
AcDbSymbolTable
 70
0
  0
ENDTAB
  0
TABLE
  2
APPID
  5
9
100
AcDbSymbolTable
 70
1
  0
APPID
  5
12
100
AcDbSymbolTableRecord
100
AcDbRegAppTableRecord
  2
ACAD
 70
0
  0
ENDTAB
  0
TABLE
  2
DIMSTYLE
  5
A
100
AcDbSymbolTable
 70
1
100
AcDbDimStyleTable
 71
0
  0
DIMSTYLE
105
27
100
AcDbSymbolTableRecord
100
AcDbDimStyleTableRecord
  2
Standard
 41
2.5
 42
0.625
 43
3.75
 44
1.25
 70
0
 73
0
 74
0
 77
1
 78
8
140
2.5
141
2.5
143
0.03937007874016
147
0.625
171
3
172
1
271
2
272
2
274
3
278
44
283
0
284
8
340
11
  0
ENDTAB
  0
TABLE
  2
BLOCK_RECORD
  5
1
100
AcDbSymbolTable
 70
1
  0
BLOCK_RECORD
  5
1F
100
AcDbSymbolTableRecord
100
AcDbBlockTableRecord
  2
*Model_Space
340
22
  0
BLOCK_RECORD
  5
1B
100
AcDbSymbolTableRecord
100
AcDbBlockTableRecord
  2
*Paper_Space
340
1E
  0
BLOCK_RECORD
  5
23
100
AcDbSymbolTableRecord
100
AcDbBlockTableRecord
  2
*Paper_Space0
340
26
  0
ENDTAB
  0
ENDSEC
  0
SECTION
  2
BLOCKS
  0
BLOCK
  5
20
100
AcDbEntity
  8
0
100
AcDbBlockBegin
  2
*Model_Space
 70
0
 10
0.0
 20
0.0
 30
0.0
  3
*Model_Space
  1

  0
ENDBLK
  5
21
100
AcDbEntity
  8
0
100
AcDbBlockEnd
  0
BLOCK
  5
1C
100
AcDbEntity
 67
1
  8
0
100
AcDbBlockBegin
  2
*Paper_Space
 70
0
 10
0.0
 20
0.0
 30
0.0
  3
*Paper_Space
  1

  0
ENDBLK
  5
1D
100
AcDbEntity
 67
1
  8
0
100
AcDbBlockEnd
  0
BLOCK
  5
24
100
AcDbEntity
  8
0
100
AcDbBlockBegin
  2
*Paper_Space0
 70
0
 10
0.0
 20
0.0
 30
0.0
  3
*Paper_Space0
  1

  0
ENDBLK
  5
25
100
AcDbEntity
  8
0
100
AcDbBlockEnd
  0
ENDSEC
  0
SECTION
  2
ENTITIES
  0
LINE
  5
54
100
AcDbEntity
100
AcDbLine
  8
Z Drawing
 62
256
370
-1
  6
ByLayer
 10
-75.0
 20
-95.0
 30
0.0
 11
-35.0
 21
-95.0
 31
0.0
  0
LINE
  5
55
100
AcDbEntity
100
AcDbLine
  8
Z Drawing
 62
256
370
-1
  6
ByLayer
 10
-75.0
 20
115.0
 30
0.0
 11
-5.0
 21
115.0
 31
0.0
  0
LINE
  5
56
100
AcDbEntity
100
AcDbLine
  8
Z Drive
 62
256
370
-1
  6
ByLayer
 10
28.1750000000000114
 20
-115.0
 30
0.0
 11
21.8250000000000171
 21
-115.0
 31
0.0
  0
LINE
  5
57
100
AcDbEntity
100
AcDbLine
  8
Z Drive
 62
256
370
-1
  6
ByLayer
 10
21.8250000000000171
 20
115.0
 30
0.0
 11
28.1750000000000114
 21
115.0
 31
0.0
  0
LINE
  5
58
100
AcDbEntity
100
AcDbLine
  8
Z Drawing
 62
256
370
-1
  6
ByLayer
 10
-75.0
 20
-31.6666667000000075
 30
0.0
 11
-35.0
 21
-31.6666667000000075
 31
0.0
  0
ARC
  5
59
100
AcDbEntity
  8
Z Stage
 62
256
370
-1
  6
ByLayer
100
AcDbCircle
 10
84.9999999999999858
 20
-105.0
 30
0.0
 40
10.0
100
AcDbArc
 50
270.0
 51
0.0
  0
LINE
  5
5A
100
AcDbEntity
100
AcDbLine
  8
Z Stage
 62
256
370
-1
  6
ByLayer
 10
95.0
 20
105.0
 30
0.0
 11
94.9999999999999858
 21
-105.0
 31
0.0
  0
ARC
  5
5B
100
AcDbEntity
  8
Z Stage
 62
256
370
-1
  6
ByLayer
100
AcDbCircle
 10
85.0
 20
105.0
 30
0.0
 40
10.0
100
AcDbArc
 50
0.0
 51
90.0
  0
CIRCLE
  5
5C
100
AcDbEntity
100
AcDbCircle
  8
Vertical Base
 62
256
370
-1
  6
ByLayer
 10
65.4749999999999943
 20
95.0
 30
0.0
 40
3.9700000000000002
  0
CIRCLE
  5
5D
100
AcDbEntity
100
AcDbCircle
  8
Vertical Base
 62
256
370
-1
  6
ByLayer
 10
65.4749999999999943
 20
-95.0
 30
0.0
 40
3.9700000000000002
  0
LINE
  5
5E
100
AcDbEntity
100
AcDbLine
  8
Vertical Base Drawings
 62
256
370
-1
  6
ByLayer
 10
-75.9500000000000028
 20
80.0
 30
0.0
 11
-75.9500000000000028
 21
-80.0
 31
0.0
  0
LINE
  5
5F
100
AcDbEntity
100
AcDbLine
  8
Vertical Base Drawings
 62
256
370
-1
  6
ByLayer
 10
75.9500000000000028
 20
80.0
 30
0.0
 11
75.9500000000000028
 21
-80.0
 31
0.0
  0
LINE
  5
60
100
AcDbEntity
100
AcDbLine
  8
Vertical Base Drawings
 62
256
370
-1
  6
ByLayer
 10
81.9500000000000028
 20
80.0
 30
0.0
 11
81.9500000000000028
 21
-80.0
 31
0.0
  0
LINE
  5
61
100
AcDbEntity
100
AcDbLine
  8
Vertical Base Drawings
 62
256
370
-1
  6
ByLayer
 10
-81.9500000000000028
 20
80.0
 30
0.0
 11
-81.9500000000000028
 21
-80.0
 31
0.0
  0
LINE
  5
62
100
AcDbEntity
100
AcDbLine
  8
Vertical Base
 62
256
370
-1
  6
ByLayer
 10
-81.9500000000000171
 20
50.0000000000000071
 30
0.0
 11
-75.9500000000000171
 21
50.0000000000000071
 31
0.0
  0
LINE
  5
63
100
AcDbEntity
100
AcDbLine
  8
Vertical Base
 62
256
370
-1
  6
ByLayer
 10
-81.9500000000000171
 20
38.8875000000000099
 30
0.0
 11
-75.9500000000000171
 21
38.8875000000000099
 31
0.0
  0
LINE
  5
64
100
AcDbEntity
100
AcDbLine
  8
Vertical Base
 62
256
370
-1
  6
ByLayer
 10
-81.9500000000000171
 20
50.0000000000000071
 30
0.0
 11
-81.9500000000000171
 21
38.8875000000000099
 31
0.0
  0
LINE
  5
65
100
AcDbEntity
100
AcDbLine
  8
Vertical Base
 62
256
370
-1
  6
ByLayer
 10
-75.9500000000000171
 20
38.8875000000000099
 30
0.0
 11
-75.9500000000000171
 21
50.0000000000000071
 31
0.0
  0
LINE
  5
66
100
AcDbEntity
100
AcDbLine
  8
Vertical Base Text
 62
256
370
-1
  6
ByLayer
 10
94.9999999999999858
 20
44.4437500000000014
 30
0.0
 11
81.9500000000000028
 21
44.4437500000000014
 31
0.0
  0
LINE
  5
67
100
AcDbEntity
100
AcDbLine
  8
Vertical Base
 62
256
370
-1
  6
ByLayer
 10
81.9500000000000028
 20
38.8875000000000028
 30
0.0
 11
75.9500000000000028
 21
38.8875000000000028
 31
0.0
  0
LINE
  5
68
100
AcDbEntity
100
AcDbLine
  8
Vertical Base
 62
256
370
-1
  6
ByLayer
 10
81.9500000000000028
 20
50.0
 30
0.0
 11
75.9500000000000028
 21
50.0
 31
0.0
  0
LINE
  5
69
100
AcDbEntity
100
AcDbLine
  8
Vertical Base
 62
256
370
-1
  6
ByLayer
 10
75.9500000000000028
 20
50.0
 30
0.0
 11
75.9500000000000028
 21
38.8875000000000028
 31
0.0
  0
LINE
  5
6A
100
AcDbEntity
100
AcDbLine
  8
Vertical Base
 62
256
370
-1
  6
ByLayer
 10
81.9500000000000028
 20
50.0
 30
0.0
 11
81.9500000000000028
 21
38.8875000000000028
 31
0.0
  0
LINE
  5
6B
100
AcDbEntity
100
AcDbLine
  8
Vertical Base
 62
256
370
-1
  6
ByLayer
 10
-81.9500000000000028
 20
-52.4875000000000043
 30
0.0
 11
-75.9500000000000028
 21
-52.4875000000000043
 31
0.0
  0
LINE
  5
6C
100
AcDbEntity
100
AcDbLine
  8
Vertical Base
 62
256
370
-1
  6
ByLayer
 10
-81.9500000000000028
 20
-63.6000000000000014
 30
0.0
 11
-75.9500000000000028
 21
-63.6000000000000014
 31
0.0
  0
LINE
  5
6D
100
AcDbEntity
100
AcDbLine
  8
Vertical Base
 62
256
370
-1
  6
ByLayer
 10
-81.9500000000000028
 20
-52.4875000000000043
 30
0.0
 11
-81.9500000000000028
 21
-63.6000000000000014
 31
0.0
  0
LINE
  5
6E
100
AcDbEntity
100
AcDbLine
  8
Vertical Base
 62
256
370
-1
  6
ByLayer
 10
-75.9500000000000028
 20
-63.6000000000000014
 30
0.0
 11
-75.9500000000000028
 21
-52.4875000000000043
 31
0.0
  0
LINE
  5
6F
100
AcDbEntity
100
AcDbLine
  8
Vertical Base Text
 62
256
370
-1
  6
ByLayer
 10
95.0
 20
-58.0437500000000099
 30
0.0
 11
81.9500000000000171
 21
-58.0437500000000099
 31
0.0
  0
LINE
  5
70
100
AcDbEntity
100
AcDbLine
  8
Vertical Base
 62
256
370
-1
  6
ByLayer
 10
81.9500000000000171
 20
-63.6000000000000085
 30
0.0
 11
75.9500000000000171
 21
-63.6000000000000085
 31
0.0
  0
LINE
  5
71
100
AcDbEntity
100
AcDbLine
  8
Vertical Base
 62
256
370
-1
  6
ByLayer
 10
81.9500000000000171
 20
-52.4875000000000114
 30
0.0
 11
75.9500000000000171
 21
-52.4875000000000114
 31
0.0
  0
LINE
  5
72
100
AcDbEntity
100
AcDbLine
  8
Vertical Base
 62
256
370
-1
  6
ByLayer
 10
75.9500000000000171
 20
-52.4875000000000114
 30
0.0
 11
75.9500000000000171
 21
-63.6000000000000085
 31
0.0
  0
LINE
  5
73
100
AcDbEntity
100
AcDbLine
  8
Vertical Base
 62
256
370
-1
  6
ByLayer
 10
81.9500000000000171
 20
-52.4875000000000114
 30
0.0
 11
81.9500000000000171
 21
-63.6000000000000085
 31
0.0
  0
DIMENSION
  5
74
100
AcDbEntity
  8
Vertical Base Measurements
 62
256
370
-1
  6
ByLayer
100
AcDbDimension
 10
100.0
 20
-115.0
 30
0.0
 11
98.125
 21
0.0000000000000002
 31
0.0
 70
0
 71
5
 72
1
 41
1.0
 42
0.0
  1

  3
Standard
100
AcDbAlignedDimension
 13
75.0
 23
115.0
 33
0.0
 14
70.0
 24
-115.0
 34
0.0
 50
90.0
100
AcDbRotatedDimension
  0
LINE
  5
75
100
AcDbEntity
100
AcDbLine
  8
Vertical Base Drawings
 62
256
370
-1
  6
ByLayer
 10
-70.0000000000000142
 20
0.0
 30
0.0
 11
74.9999999999999858
 21
0.0
 31
0.0
  0
LINE
  5
76
100
AcDbEntity
100
AcDbLine
  8
Vertical Base Drawings
 62
256
370
-1
  6
ByLayer
 10
8.8624999999999972
 20
115.0000000000000142
 30
0.0
 11
8.8624999999999972
 21
-114.9999999999999858
 31
0.0
  0
LINE
  5
77
100
AcDbEntity
100
AcDbLine
  8
Z Drawing
 62
256
370
-1
  6
ByLayer
 10
-75.0
 20
80.0
 30
0.0
 11
-37.0
 21
80.0
 31
0.0
  0
LINE
  5
78
100
AcDbEntity
100
AcDbLine
  8
Z Rails
 62
256
370
-1
  6
ByLayer
 10
-75.0
 20
115.0
 30
0.0
 11
-75.0
 21
115.0
 31
0.0
  0
CIRCLE
  5
79
100
AcDbEntity
100
AcDbCircle
  8
Vertical Base
 62
256
370
-1
  6
ByLayer
 10
-65.4750000000000085
 20
95.0
 30
0.0
 40
3.9700000000000002
  0
CIRCLE
  5
7A
100
AcDbEntity
100
AcDbCircle
  8
Vertical Base
 62
256
370
-1
  6
ByLayer
 10
-65.4750000000000085
 20
-95.0
 30
0.0
 40
3.9700000000000002
  0
LINE
  5
7B
100
AcDbEntity
100
AcDbLine
  8
Z Drawing
 62
256
370
-1
  6
ByLayer
 10
-75.0
 20
31.6666667000000075
 30
0.0
 11
-56.0499999999999972
 21
31.6666667000000075
 31
0.0
  0
CIRCLE
  5
7C
100
AcDbEntity
100
AcDbCircle
  8
Z Stage
 62
256
370
-1
  6
ByLayer
 10
-86.0
 20
80.0
 30
0.0
 40
3.9700000000000002
  0
LINE
  5
7D
100
AcDbEntity
100
AcDbLine
  8
Z Drawing
 62
256
370
-1
  6
ByLayer
 10
-15.9500000000000028
 20
114.9999999999999858
 30
0.0
 11
-15.9500000000000028
 21
-115.0000000000000142
 31
0.0
  0
LINE
  5
7E
100
AcDbEntity
100
AcDbLine
  8
Z Drawing
 62
256
370
-1
  6
ByLayer
 10
-0.6625000000000014
 20
114.9999999999999858
 30
0.0
 11
-0.6625000000000014
 21
-115.0000000000000142
 31
0.0
  0
LINE
  5
7F
100
AcDbEntity
100
AcDbLine
  8
Z Drawing
 62
256
370
-1
  6
ByLayer
 10
-70.0
 20
0.0
 30
0.0
 11
70.0
 21
0.0
 31
0.0
  0
CIRCLE
  5
80
100
AcDbEntity
100
AcDbCircle
  8
Flange Mount
 62
256
370
-1
  6
ByLayer
 10
-0.6624999999999943
 20
0.0
 30
0.0
 40
40.0
  0
CIRCLE
  5
81
100
AcDbEntity
100
AcDbCircle
  8
Flange Mount
 62
256
370
-1
  6
ByLayer
 10
-0.6624999999999943
 20
0.0
 30
0.0
 40
54.0
  0
CIRCLE
  5
82
100
AcDbEntity
100
AcDbCircle
  8
Flange Mount
 62
256
370
-1
  6
ByLayer
 10
-0.6624999999999943
 20
0.0
 30
0.0
 40
26.0
  0
CIRCLE
  5
83
100
AcDbEntity
100
AcDbCircle
  8
Z Text
 62
256
370
-1
  6
ByLayer
 10
-86.0
 20
80.0
 30
0.0
 40
10.3499999999999996
  0
ARC
  5
84
100
AcDbEntity
  8
Z Stage
 62
256
370
-1
  6
ByLayer
100
AcDbCircle
 10
-90.0
 20
105.0
 30
0.0
 40
10.0
100
AcDbArc
 50
90.0
 51
180.0
  0
LINE
  5
85
100
AcDbEntity
100
AcDbLine
  8
Z Stage
 62
256
370
-1
  6
ByLayer
 10
-100.0
 20
105.0
 30
0.0
 11
-100.0000000000000142
 21
-105.0
 31
0.0
  0
ARC
  5
86
100
AcDbEntity
  8
Z Stage
 62
256
370
-1
  6
ByLayer
100
AcDbCircle
 10
-90.0000000000000142
 20
-105.0
 30
0.0
 40
10.0
100
AcDbArc
 50
180.0
 51
270.0
  0
ARC
  5
87
100
AcDbEntity
  8
Vertical Base
 62
256
370
-1
  6
ByLayer
100
AcDbCircle
 10
-90.0
 20
105.0
 30
0.0
 40
10.0
100
AcDbArc
 50
90.0
 51
180.0
  0
LINE
  5
88
100
AcDbEntity
100
AcDbLine
  8
Vertical Base
 62
256
370
-1
  6
ByLayer
 10
-90.0
 20
115.0
 30
0.0
 11
85.0
 21
115.0
 31
0.0
  0
ARC
  5
89
100
AcDbEntity
  8
Vertical Base
 62
256
370
-1
  6
ByLayer
100
AcDbCircle
 10
85.0
 20
105.0
 30
0.0
 40
10.0
100
AcDbArc
 50
0.0
 51
90.0
  0
LINE
  5
8A
100
AcDbEntity
100
AcDbLine
  8
Vertical Base
 62
256
370
-1
  6
ByLayer
 10
95.0
 20
105.0
 30
0.0
 11
95.0
 21
-105.0
 31
0.0
  0
ARC
  5
8B
100
AcDbEntity
  8
Vertical Base
 62
256
370
-1
  6
ByLayer
100
AcDbCircle
 10
85.0
 20
-105.0
 30
0.0
 40
10.0
100
AcDbArc
 50
270.0
 51
0.0
  0
LINE
  5
8C
100
AcDbEntity
100
AcDbLine
  8
Vertical Base
 62
256
370
-1
  6
ByLayer
 10
-100.0
 20
105.0
 30
0.0
 11
-100.0000000000000142
 21
-105.0
 31
0.0
  0
LINE
  5
8D
100
AcDbEntity
100
AcDbLine
  8
Vertical Base
 62
256
370
-1
  6
ByLayer
 10
-90.0000000000000142
 20
-115.0
 30
0.0
 11
85.0
 21
-115.0
 31
0.0
  0
ARC
  5
8E
100
AcDbEntity
  8
Vertical Base
 62
256
370
-1
  6
ByLayer
100
AcDbCircle
 10
-90.0000000000000142
 20
-105.0
 30
0.0
 40
10.0
100
AcDbArc
 50
180.0
 51
270.0
  0
LINE
  5
8F
100
AcDbEntity
100
AcDbLine
  8
Vertical Base Text
 62
256
370
-1
  6
ByLayer
 10
-100.0
 20
44.4437500000000014
 30
0.0
 11
-81.9500000000000171
 21
44.4437500000000014
 31
0.0
  0
LINE
  5
90
100
AcDbEntity
100
AcDbLine
  8
Vertical Base Text
 62
256
370
-1
  6
ByLayer
 10
-100.0000000000000142
 20
-58.0437500000000099
 30
0.0
 11
-81.9500000000000028
 21
-58.0437500000000099
 31
0.0
  0
CIRCLE
  5
91
100
AcDbEntity
100
AcDbCircle
  8
Z Stage
 62
256
370
-1
  6
ByLayer
 10
-86.0000000000000142
 20
-46.6666667000000075
 30
0.0
 40
3.9700000000000002
  0
CIRCLE
  5
92
100
AcDbEntity
100
AcDbCircle
  8
Z Stage
 62
256
370
-1
  6
ByLayer
 10
-15.9500000000000028
 20
50.0
 30
0.0
 40
3.9700000000000002
  0
CIRCLE
  5
93
100
AcDbEntity
100
AcDbCircle
  8
Z Stage
 62
256
370
-1
  6
ByLayer
 10
-15.9500000000000028
 20
-16.6666667000000217
 30
0.0
 40
3.9700000000000002
  0
CIRCLE
  5
94
100
AcDbEntity
100
AcDbCircle
  8
Z Text
 62
256
370
-1
  6
ByLayer
 10
-86.0000000000000142
 20
-46.6666667000000075
 30
0.0
 40
10.3499999999999996
  0
CIRCLE
  5
95
100
AcDbEntity
100
AcDbCircle
  8
Z Text
 62
256
370
-1
  6
ByLayer
 10
-15.9500000000000028
 20
-16.6666667000000217
 30
0.0
 40
10.3499999999999996
  0
CIRCLE
  5
96
100
AcDbEntity
100
AcDbCircle
  8
Z Text
 62
256
370
-1
  6
ByLayer
 10
-15.9500000000000028
 20
50.0
 30
0.0
 40
10.3499999999999996
  0
DIMENSION
  5
97
100
AcDbEntity
  8
Vertical Base Measurements
 62
256
370
-1
  6
ByLayer
100
AcDbDimension
 10
-100.0
 20
130.0
 30
0.0
 11
-2.5
 21
131.875
 31
0.0
 70
0
 71
5
 72
0
 41
1.0
 42
0.0
  1

  3
Standard
100
AcDbAlignedDimension
 13
95.0
 23
105.0
 33
0.0
 14
-100.0
 24
105.0
 34
0.0
 50
0.0
100
AcDbRotatedDimension
  0
MTEXT
  5
98
100
AcDbEntity
100
AcDbMText
  8
Z Text
 62
256
370
-1
  6
ByLayer
 10
20.0
 20
90.0
 30
0.0
 40
4.0
 41
100.0
 71
5
 72
2
  1
"Z\~Stage"\PMCB\~v1.2\Pmake.rrrf.org/mcb-1.2
  7
standard
 50
0.0
 73
0
 44
1.0
  0
MTEXT
  5
99
100
AcDbEntity
100
AcDbMText
  8
Vertical Base Text
 62
256
370
-1
  6
ByLayer
 10
21.2000000000000064
 20
64.364072593903046
 30
0.0
 40
4.0
 41
100.0
 71
5
 72
2
  1
"Vertical\~Base"\PMCB\~v1.2\Pmake.rrrf.org/mcb-1.2
  7
standard
 50
0.0
 73
1
 44
1.0
  0
LINE
  5
9A
100
AcDbEntity
100
AcDbLine
  8
Z Drawing
 62
256
370
-1
  6
ByLayer
 10
-90.0
 20
102.2999999999999972
 30
0.0
 11
85.0
 21
102.2999999999999972
 31
0.0
  0
LINE
  5
9B
100
AcDbEntity
100
AcDbLine
  8
Z Drawing
 62
256
370
-1
  6
ByLayer
 10
-40.0750000000000099
 20
115.0
 30
0.0
 11
-40.0750000000000099
 21
-115.0
 31
0.0
  0
LINE
  5
9C
100
AcDbEntity
100
AcDbLine
  8
Z Drawing
 62
256
370
-1
  6
ByLayer
 10
-90.875
 20
115.0000000000000142
 30
0.0
 11
-90.875
 21
-114.9999999999999858
 31
0.0
  0
LINE
  5
9D
100
AcDbEntity
100
AcDbLine
  8
Z Drawing
 62
256
370
-1
  6
ByLayer
 10
55.9499999999999957
 20
95.0
 30
0.0
 11
75.0
 21
95.0
 31
0.0
  0
LINE
  5
9E
100
AcDbEntity
100
AcDbLine
  8
Z Drawing
 62
256
370
-1
  6
ByLayer
 10
55.9499999999999957
 20
31.6666667000000075
 30
0.0
 11
75.0
 21
31.6666667000000075
 31
0.0
  0
LINE
  5
9F
100
AcDbEntity
100
AcDbLine
  8
Z Drawing
 62
256
370
-1
  6
ByLayer
 10
55.9499999999999957
 20
-31.6666667000000075
 30
0.0
 11
75.0
 21
-31.6666667000000075
 31
0.0
  0
LINE
  5
A0
100
AcDbEntity
100
AcDbLine
  8
Z Drawing
 62
256
370
-1
  6
ByLayer
 10
55.9499999999999957
 20
-95.0
 30
0.0
 11
75.0
 21
-95.0
 31
0.0
  0
LINE
  5
A1
100
AcDbEntity
100
AcDbLine
  8
0
 62
256
370
-1
  6
ByLayer
 10
-90.875
 20
102.2999999999999972
 30
0.0
 11
-40.0750000000000028
 21
102.2999999999999972
 31
0.0
  0
LINE
  5
A2
100
AcDbEntity
100
AcDbLine
  8
0
 62
256
370
-1
  6
ByLayer
 10
-90.875
 20
102.2999999999999972
 30
0.0
 11
-90.875
 21
115.0
 31
0.0
  0
LINE
  5
A3
100
AcDbEntity
100
AcDbLine
  8
0
 62
256
370
-1
  6
ByLayer
 10
-40.0750000000000028
 20
102.2999999999999972
 30
0.0
 11
-40.0750000000000028
 21
114.9999999999999858
 31
0.0
  0
LINE
  5
A4
100
AcDbEntity
100
AcDbLine
  8
0
 62
256
370
-1
  6
ByLayer
 10
-90.875
 20
115.0
 30
0.0
 11
-40.0750000000000028
 21
114.9999999999999858
 31
0.0
  0
LINE
  5
A5
100
AcDbEntity
100
AcDbLine
  8
0
 62
256
370
-1
  6
ByLayer
 10
40.0749999999999957
 20
102.2999999999999972
 30
0.0
 11
90.875
 21
102.2999999999999972
 31
0.0
  0
LINE
  5
A6
100
AcDbEntity
100
AcDbLine
  8
0
 62
256
370
-1
  6
ByLayer
 10
40.0749999999999957
 20
102.2999999999999972
 30
0.0
 11
40.0749999999999957
 21
115.0
 31
0.0
  0
LINE
  5
A7
100
AcDbEntity
100
AcDbLine
  8
0
 62
256
370
-1
  6
ByLayer
 10
90.875
 20
102.2999999999999972
 30
0.0
 11
90.875
 21
114.9999999999999858
 31
0.0
  0
LINE
  5
A8
100
AcDbEntity
100
AcDbLine
  8
0
 62
256
370
-1
  6
ByLayer
 10
40.0749999999999957
 20
115.0
 30
0.0
 11
90.875
 21
114.9999999999999858
 31
0.0
  0
LINE
  5
A9
100
AcDbEntity
100
AcDbLine
  8
0
 62
256
370
-1
  6
ByLayer
 10
-90.8750000000000142
 20
-115.0
 30
0.0
 11
-40.0750000000000171
 21
-115.0
 31
0.0
  0
LINE
  5
AA
100
AcDbEntity
100
AcDbLine
  8
0
 62
256
370
-1
  6
ByLayer
 10
-90.8750000000000142
 20
-115.0
 30
0.0
 11
-90.8750000000000142
 21
-102.2999999999999972
 31
0.0
  0
LINE
  5
AB
100
AcDbEntity
100
AcDbLine
  8
0
 62
256
370
-1
  6
ByLayer
 10
-40.0750000000000171
 20
-115.0
 30
0.0
 11
-40.0750000000000171
 21
-102.3000000000000114
 31
0.0
  0
LINE
  5
AC
100
AcDbEntity
100
AcDbLine
  8
0
 62
256
370
-1
  6
ByLayer
 10
-90.8750000000000142
 20
-102.2999999999999972
 30
0.0
 11
-40.0750000000000171
 21
-102.3000000000000114
 31
0.0
  0
LINE
  5
AD
100
AcDbEntity
100
AcDbLine
  8
0
 62
256
370
-1
  6
ByLayer
 10
40.0749999999999957
 20
-115.0
 30
0.0
 11
90.875
 21
-115.0
 31
0.0
  0
LINE
  5
AE
100
AcDbEntity
100
AcDbLine
  8
0
 62
256
370
-1
  6
ByLayer
 10
40.0749999999999957
 20
-115.0
 30
0.0
 11
40.0749999999999957
 21
-102.2999999999999972
 31
0.0
  0
LINE
  5
AF
100
AcDbEntity
100
AcDbLine
  8
0
 62
256
370
-1
  6
ByLayer
 10
90.875
 20
-115.0
 30
0.0
 11
90.875
 21
-102.3000000000000114
 31
0.0
  0
LINE
  5
B0
100
AcDbEntity
100
AcDbLine
  8
0
 62
256
370
-1
  6
ByLayer
 10
40.0749999999999957
 20
-102.2999999999999972
 30
0.0
 11
90.875
 21
-102.3000000000000114
 31
0.0
  0
CIRCLE
  5
B1
100
AcDbEntity
100
AcDbCircle
  8
Z Stage
 62
256
370
-1
  6
ByLayer
 10
-82.9375
 20
108.6500000000000057
 30
0.0
 40
2.0
  0
CIRCLE
  5
B2
100
AcDbEntity
100
AcDbCircle
  8
Z Stage
 62
256
370
-1
  6
ByLayer
 10
-48.0125000000000028
 20
108.6500000000000057
 30
0.0
 40
2.0
  0
CIRCLE
  5
B3
100
AcDbEntity
100
AcDbCircle
  8
Z Stage
 62
256
370
-1
  6
ByLayer
 10
48.0124999999999957
 20
108.6500000000000057
 30
0.0
 40
2.0
  0
CIRCLE
  5
B4
100
AcDbEntity
100
AcDbCircle
  8
Z Stage
 62
256
370
-1
  6
ByLayer
 10
82.9375
 20
108.6500000000000057
 30
0.0
 40
2.0
  0
CIRCLE
  5
B5
100
AcDbEntity
100
AcDbCircle
  8
Z Stage
 62
256
370
-1
  6
ByLayer
 10
-82.9375000000000142
 20
-108.6499999999999915
 30
0.0
 40
2.0
  0
CIRCLE
  5
B6
100
AcDbEntity
100
AcDbCircle
  8
Z Stage
 62
256
370
-1
  6
ByLayer
 10
-48.0125000000000171
 20
-108.6499999999999915
 30
0.0
 40
2.0
  0
CIRCLE
  5
B7
100
AcDbEntity
100
AcDbCircle
  8
Z Stage
 62
256
370
-1
  6
ByLayer
 10
48.0124999999999957
 20
-108.6499999999999915
 30
0.0
 40
2.0
  0
CIRCLE
  5
B8
100
AcDbEntity
100
AcDbCircle
  8
Z Stage
 62
256
370
-1
  6
ByLayer
 10
82.9375
 20
-108.6499999999999915
 30
0.0
 40
2.0
  0
ARC
  5
B9
100
AcDbEntity
  8
Z Stage
 62
256
370
-1
  6
ByLayer
100
AcDbCircle
 10
-19.0
 20
-108.0
 30
0.0
 40
1.0
100
AcDbArc
 50
90.0
 51
180.0
  0
LINE
  5
BA
100
AcDbEntity
100
AcDbLine
  8
Z Stage
 62
256
370
-1
  6
ByLayer
 10
-19.0
 20
-107.0
 30
0.0
 11
-18.9999999999893738
 21
-107.0
 31
0.0
  0
ARC
  5
BB
100
AcDbEntity
  8
Z Stage
 62
256
370
-1
  6
ByLayer
100
AcDbCircle
 10
-18.9999999999893738
 20
-108.0000000000000142
 30
0.0
 40
1.0
100
AcDbArc
 50
0.0
 51
90.0
  0
LINE
  5
BC
100
AcDbEntity
100
AcDbLine
  8
Z Stage
 62
256
370
-1
  6
ByLayer
 10
-90.0
 20
115.0
 30
0.0
 11
-21.0
 21
115.0
 31
0.0
  0
ARC
  5
BD
100
AcDbEntity
  8
Z Stage
 62
256
370
-1
  6
ByLayer
100
AcDbCircle
 10
-21.0
 20
114.0
 30
0.0
 40
1.0
100
AcDbArc
 50
0.0
 51
90.0
  0
LINE
  5
BE
100
AcDbEntity
100
AcDbLine
  8
Z Stage
 62
256
370
-1
  6
ByLayer
 10
-17.0
 20
115.0
 30
0.0
 11
85.0
 21
115.0
 31
0.0
  0
ARC
  5
BF
100
AcDbEntity
  8
Z Stage
 62
256
370
-1
  6
ByLayer
100
AcDbCircle
 10
-17.0
 20
114.0
 30
0.0
 40
1.0
100
AcDbArc
 50
90.0
 51
180.0
  0
LINE
  5
C0
100
AcDbEntity
100
AcDbLine
  8
Z Stage
 62
256
370
-1
  6
ByLayer
 10
-18.0
 20
108.0
 30
0.0
 11
-18.0
 21
114.0
 31
0.0
  0
ARC
  5
C1
100
AcDbEntity
  8
Z Stage
 62
256
370
-1
  6
ByLayer
100
AcDbCircle
 10
-19.0
 20
108.0
 30
0.0
 40
1.0
100
AcDbArc
 50
270.0
 51
0.0
  0
LINE
  5
C2
100
AcDbEntity
100
AcDbLine
  8
Z Stage
 62
256
370
-1
  6
ByLayer
 10
-20.0
 20
114.0
 30
0.0
 11
-20.0
 21
108.0
 31
0.0
  0
LINE
  5
C3
100
AcDbEntity
100
AcDbLine
  8
Z Stage
 62
256
370
-1
  6
ByLayer
 10
-19.0
 20
107.0
 30
0.0
 11
-19.0
 21
107.0
 31
0.0
  0
ARC
  5
C4
100
AcDbEntity
  8
Z Stage
 62
256
370
-1
  6
ByLayer
100
AcDbCircle
 10
-19.0
 20
108.0
 30
0.0
 40
1.0
100
AcDbArc
 50
180.0
 51
270.0
  0
LINE
  5
C5
100
AcDbEntity
100
AcDbLine
  8
Z Stage
 62
256
370
-1
  6
ByLayer
 10
-20.0
 20
-108.0
 30
0.0
 11
-20.0
 21
-114.0
 31
0.0
  0
LINE
  5
C6
100
AcDbEntity
100
AcDbLine
  8
Z Stage
 62
256
370
-1
  6
ByLayer
 10
-90.0000000000000142
 20
-115.0
 30
0.0
 11
-21.0
 21
-115.0
 31
0.0
  0
ARC
  5
C7
100
AcDbEntity
  8
Z Stage
 62
256
370
-1
  6
ByLayer
100
AcDbCircle
 10
-21.0
 20
-114.0
 30
0.0
 40
1.0
100
AcDbArc
 50
270.0
 51
0.0
  0
LINE
  5
C8
100
AcDbEntity
100
AcDbLine
  8
Z Stage
 62
256
370
-1
  6
ByLayer
 10
-17.9999999999893738
 20
-107.9999999999999432
 30
0.0
 11
-17.9999999999890861
 21
-114.0000000000000426
 31
0.0
  0
LINE
  5
C9
100
AcDbEntity
100
AcDbLine
  8
Z Stage
 62
256
370
-1
  6
ByLayer
 10
-16.9999999999890861
 20
-115.0
 30
0.0
 11
84.9999999999999858
 21
-115.0
 31
0.0
  0
ARC
  5
CA
100
AcDbEntity
  8
Z Stage
 62
256
370
-1
  6
ByLayer
100
AcDbCircle
 10
-16.9999999999890861
 20
-114.0
 30
0.0
 40
1.0
100
AcDbArc
 50
180.0
 51
270.0
  0
LINE
  5
CB
100
AcDbEntity
100
AcDbLine
  8
Z Drive
 62
256
370
-1
  6
ByLayer
 10
10.0
 20
115.0
 30
0.0
 11
10.0
 21
-115.0
 31
0.0
  0
LINE
  5
CC
100
AcDbEntity
100
AcDbLine
  8
Z Drive
 62
256
370
-1
  6
ByLayer
 10
16.3499999999999943
 20
115.0
 30
0.0
 11
16.3499999999999943
 21
-115.0
 31
0.0
  0
LINE
  5
CD
100
AcDbEntity
100
AcDbLine
  8
Z Drive
 62
256
370
-1
  6
ByLayer
 10
13.1749999999999829
 20
115.0
 30
0.0
 11
13.1749999999999829
 21
-115.0
 31
0.0
  0
LINE
  5
CE
100
AcDbEntity
100
AcDbLine
  8
Z Drawing
 62
256
370
-1
  6
ByLayer
 10
-9.8437500000000213
 20
-51.0
 30
0.0
 11
36.1937499999999588
 21
-51.0
 31
0.0
  0
CIRCLE
  5
CF
100
AcDbEntity
100
AcDbCircle
  8
Z Stage
 62
256
370
-1
  6
ByLayer
 10
36.1937499999999588
 20
-51.0
 30
0.0
 40
2.3799999999999999
  0
CIRCLE
  5
D0
100
AcDbEntity
100
AcDbCircle
  8
Z Stage
 62
256
370
-1
  6
ByLayer
 10
-9.8437500000000249
 20
-51.0
 30
0.0
 40
2.3799999999999999
  0
DIMENSION
  5
D1
100
AcDbEntity
  8
Vertical Base Drawings
 62
256
370
-1
  6
ByLayer
100
AcDbDimension
 10
75.0
 20
-130.0
 30
0.0
 11
0.0000000000000001
 21
-128.125
 31
0.0
 70
0
 71
5
 72
0
 41
1.0
 42
0.0
  1

  3
Standard
100
AcDbAlignedDimension
 13
-75.0000000000000142
 23
-115.0
 33
0.0
 14
75.0
 24
-115.0
 34
0.0
 50
0.0
100
AcDbRotatedDimension
  0
CIRCLE
  5
D2
100
AcDbEntity
100
AcDbCircle
  8
Vertical Base
 62
256
370
-1
  6
ByLayer
 10
-25.3582043329401472
 20
-24.6957043329401529
 30
0.0
 40
6.2999999999999998
  0
CIRCLE
  5
D3
100
AcDbEntity
100
AcDbCircle
  8
Vertical Base
 62
256
370
-1
  6
ByLayer
 10
24.0332043329401799
 20
-24.69570433294016
 30
0.0
 40
6.2999999999999998
  0
CIRCLE
  5
D4
100
AcDbEntity
100
AcDbCircle
  8
Vertical Base
 62
256
370
-1
  6
ByLayer
 10
24.0332043329401834
 20
24.6957043329401849
 30
0.0
 40
6.2999999999999998
  0
CIRCLE
  5
D5
100
AcDbEntity
100
AcDbCircle
  8
Vertical Base
 62
256
370
-1
  6
ByLayer
 10
-25.3582043329401507
 20
24.6957043329401849
 30
0.0
 40
6.2999999999999998
  0
LINE
  5
D6
100
AcDbEntity
100
AcDbLine
  8
Vertical Base Drawings
 62
256
370
-1
  6
ByLayer
 10
-0.6624999999999797
 20
49.3914086658803555
 30
0.0
 11
48.7289086658803541
 21
0.0000000000000036
 31
0.0
  0
LINE
  5
D7
100
AcDbEntity
100
AcDbLine
  8
Vertical Base Drawings
 62
256
370
-1
  6
ByLayer
 10
48.7289086658803541
 20
0.0000000000000036
 30
0.0
 11
-0.6624999999999801
 21
-49.3914086658803342
 31
0.0
  0
LINE
  5
D8
100
AcDbEntity
100
AcDbLine
  8
Vertical Base Drawings
 62
256
370
-1
  6
ByLayer
 10
-50.0539086658803214
 20
0.0000000000000191
 30
0.0
 11
-0.6624999999999801
 21
-49.3914086658803342
 31
0.0
  0
LINE
  5
D9
100
AcDbEntity
100
AcDbLine
  8
Vertical Base Drawings
 62
256
370
-1
  6
ByLayer
 10
-0.6624999999999797
 20
49.3914086658803555
 30
0.0
 11
-50.0539086658803214
 21
0.0000000000000191
 31
0.0
  0
LINE
  5
DA
100
AcDbEntity
100
AcDbLine
  8
Vertical Base Drawings
 62
256
370
-1
  6
ByLayer
 10
-25.3582043329401507
 20
24.6957043329401849
 30
0.0
 11
24.0332043329401834
 21
-24.6957043329401635
 31
0.0
  0
LINE
  5
DB
100
AcDbEntity
100
AcDbLine
  8
Vertical Base Drawings
 62
256
370
-1
  6
ByLayer
 10
24.033204332940187
 20
24.6957043329401813
 30
0.0
 11
-25.3582043329401472
 21
-24.6957043329401529
 31
0.0
  0
CIRCLE
  5
DC
100
AcDbEntity
100
AcDbCircle
  8
Vertical Base Text
 62
256
370
-1
  6
ByLayer
 10
-25.3582043329401507
 20
24.6957043329401849
 30
0.0
 40
10.3499999999999996
  0
CIRCLE
  5
DD
100
AcDbEntity
100
AcDbCircle
  8
Vertical Base Text
 62
256
370
-1
  6
ByLayer
 10
24.033204332940187
 20
24.6957043329401813
 30
0.0
 40
10.3499999999999996
  0
CIRCLE
  5
DE
100
AcDbEntity
100
AcDbCircle
  8
Vertical Base Text
 62
256
370
-1
  6
ByLayer
 10
24.0332043329401834
 20
-24.6957043329401635
 30
0.0
 40
10.3499999999999996
  0
CIRCLE
  5
DF
100
AcDbEntity
100
AcDbCircle
  8
Vertical Base Text
 62
256
370
-1
  6
ByLayer
 10
-25.3582043329401472
 20
-24.6957043329401529
 30
0.0
 40
10.3499999999999996
  0
LINE
  5
E0
100
AcDbEntity
100
AcDbLine
  8
Z Rails
 62
256
370
-1
  6
ByLayer
 10
-75.0
 20
153.0
 30
0.0
 11
-75.0000000000000142
 21
-177.1999999999999886
 31
0.0
  0
LINE
  5
E1
100
AcDbEntity
100
AcDbLine
  8
Z Rails
 62
256
370
-1
  6
ByLayer
 10
-55.9500000000000028
 20
153.0
 30
0.0
 11
-55.9500000000000028
 21
-177.1999999999999886
 31
0.0
  0
LINE
  5
E2
100
AcDbEntity
100
AcDbLine
  8
Z Rails
 62
256
370
-1
  6
ByLayer
 10
55.9499999999999957
 20
153.0
 30
0.0
 11
55.9499999999999957
 21
-177.1999999999999886
 31
0.0
  0
LINE
  5
E3
100
AcDbEntity
100
AcDbLine
  8
Z Rails
 62
256
370
-1
  6
ByLayer
 10
75.0
 20
153.0
 30
0.0
 11
75.0
 21
-177.1999999999999886
 31
0.0
  0
DIMENSION
  5
E4
100
AcDbEntity
  8
Z Measurements
 62
256
370
-1
  6
ByLayer
100
AcDbDimension
 10
74.9999999999999858
 20
-200.0
 30
0.0
 11
-0.0000000000000141
 21
-198.125
 31
0.0
 70
0
 71
5
 72
1
 41
1.0
 42
0.0
  1

  3
Standard
100
AcDbAlignedDimension
 13
-75.0000000000000142
 23
-177.1999999999999886
 33
0.0
 14
74.9999999999999858
 24
-177.1999999999999886
 34
0.0
 50
0.0
100
AcDbRotatedDimension
  0
DIMENSION
  5
E5
100
AcDbEntity
  8
Z Measurements
 62
256
370
-1
  6
ByLayer
100
AcDbDimension
 10
120.0
 20
-177.8249999999999886
 30
0.0
 11
118.125
 21
-12.4124999999999943
 31
0.0
 70
0
 71
5
 72
1
 41
1.0
 42
0.0
  1

  3
Standard
100
AcDbAlignedDimension
 13
75.0
 23
153.0
 33
0.0
 14
74.9999999999999858
 24
-177.8249999999999886
 34
0.0
 50
90.0
100
AcDbRotatedDimension
  0
LINE
  5
E6
100
AcDbEntity
100
AcDbLine
  8
Z Rail Supports
 62
256
370
-1
  6
ByLayer
 10
-75.0
 20
156.1750000000000114
 30
0.0
 11
75.0
 21
156.1750000000000114
 31
0.0
  0
LINE
  5
E7
100
AcDbEntity
100
AcDbLine
  8
Z Rail Supports
 62
256
370
-1
  6
ByLayer
 10
-75.0000000000000142
 20
-180.375
 30
0.0
 11
74.9999999999999858
 21
-180.375
 31
0.0
  0
LINE
  5
E8
100
AcDbEntity
100
AcDbLine
  8
Z Rail Supports
 62
256
370
-1
  6
ByLayer
 10
-75.0
 20
117.6750000000000114
 30
0.0
 11
75.0
 21
117.6750000000000114
 31
0.0
  0
LINE
  5
E9
100
AcDbEntity
100
AcDbLine
  8
Z Rail Supports
 62
256
370
-1
  6
ByLayer
 10
-75.0000000000000142
 20
-141.875
 30
0.0
 11
74.9999999999999858
 21
-141.875
 31
0.0
  0
LINE
  5
EA
100
AcDbEntity
100
AcDbLine
  8
Z Rail Supports
 62
256
370
-1
  6
ByLayer
 10
-75.0000000000000142
 20
-177.1999999999999886
 30
0.0
 11
74.9999999999999858
 21
-177.1999999999999886
 31
0.0
  0
LINE
  5
EB
100
AcDbEntity
100
AcDbLine
  8
Z Rail Supports
 62
256
370
-1
  6
ByLayer
 10
-75.0
 20
153.0
 30
0.0
 11
75.0
 21
153.0
 31
0.0
  0
LINE
  5
EC
100
AcDbEntity
100
AcDbLine
  8
Z Rail Supports
 62
256
370
-1
  6
ByLayer
 10
-75.0
 20
156.1750000000000114
 30
0.0
 11
-75.0
 21
117.6750000000000114
 31
0.0
  0
LINE
  5
ED
100
AcDbEntity
100
AcDbLine
  8
Z Rail Supports
 62
256
370
-1
  6
ByLayer
 10
75.0
 20
156.1750000000000114
 30
0.0
 11
75.0
 21
117.6750000000000114
 31
0.0
  0
LINE
  5
EE
100
AcDbEntity
100
AcDbLine
  8
Z Rail Supports
 62
256
370
-1
  6
ByLayer
 10
74.9999999999999858
 20
-141.875
 30
0.0
 11
74.9999999999999858
 21
-180.375
 31
0.0
  0
LINE
  5
EF
100
AcDbEntity
100
AcDbLine
  8
Z Rail Supports
 62
256
370
-1
  6
ByLayer
 10
-75.0000000000000142
 20
-141.875
 30
0.0
 11
-75.0000000000000142
 21
-180.375
 31
0.0
  0
LINE
  5
F0
100
AcDbEntity
100
AcDbLine
  8
Z Rails
 62
256
370
-1
  6
ByLayer
 10
-75.0
 20
153.0
 30
0.0
 11
-55.9500000000000028
 21
153.0
 31
0.0
  0
LINE
  5
F1
100
AcDbEntity
100
AcDbLine
  8
Z Rails
 62
256
370
-1
  6
ByLayer
 10
75.0
 20
153.0
 30
0.0
 11
55.9499999999999957
 21
153.0
 31
0.0
  0
LINE
  5
F2
100
AcDbEntity
100
AcDbLine
  8
Z Rails
 62
256
370
-1
  6
ByLayer
 10
75.0
 20
-177.1999999999999886
 30
0.0
 11
55.9499999999999957
 21
-177.1999999999999886
 31
0.0
  0
LINE
  5
F3
100
AcDbEntity
100
AcDbLine
  8
Z Rails
 62
256
370
-1
  6
ByLayer
 10
-55.9500000000000028
 20
-177.1999999999999886
 30
0.0
 11
-75.0000000000000142
 21
-177.1999999999999886
 31
0.0
  0
LINE
  5
F4
100
AcDbEntity
100
AcDbLine
  8
Z Drawing
 62
256
370
-1
  6
ByLayer
 10
65.4749999999999943
 20
153.0
 30
0.0
 11
65.4749999999999943
 21
-177.1999999999999886
 31
0.0
  0
LINE
  5
F5
100
AcDbEntity
100
AcDbLine
  8
Z Drawing
 62
256
370
-1
  6
ByLayer
 10
-65.4750000000000085
 20
153.0
 30
0.0
 11
-65.4750000000000085
 21
-177.1999999999999886
 31
0.0
  0
LINE
  5
F6
100
AcDbEntity
100
AcDbLine
  8
Z Drawing
 62
256
370
-1
  6
ByLayer
 10
-75.0000000000000142
 20
-158.1999999999999886
 30
0.0
 11
74.9999999999999858
 21
-158.1999999999999886
 31
0.0
  0
LINE
  5
F7
100
AcDbEntity
100
AcDbLine
  8
Z Drawing
 62
256
370
-1
  6
ByLayer
 10
-75.0
 20
134.0
 30
0.0
 11
75.0
 21
134.0
 31
0.0
  0
CIRCLE
  5
F8
100
AcDbEntity
100
AcDbCircle
  8
Z Rail Supports
 62
256
370
-1
  6
ByLayer
 10
65.4749999999999943
 20
134.0
 30
0.0
 40
3.9700000000000002
  0
CIRCLE
  5
F9
100
AcDbEntity
100
AcDbCircle
  8
Z Rail Supports
 62
256
370
-1
  6
ByLayer
 10
-65.4750000000000085
 20
134.0
 30
0.0
 40
3.9700000000000002
  0
CIRCLE
  5
FA
100
AcDbEntity
100
AcDbCircle
  8
Z Rail Supports
 62
256
370
-1
  6
ByLayer
 10
65.4750000000000085
 20
-158.1999999999999886
 30
0.0
 40
3.9700000000000002
  0
CIRCLE
  5
FB
100
AcDbEntity
100
AcDbCircle
  8
Z Rail Supports
 62
256
370
-1
  6
ByLayer
 10
-65.4750000000000085
 20
-158.1999999999999886
 30
0.0
 40
3.9700000000000002
  0
LINE
  5
FC
100
AcDbEntity
100
AcDbLine
  8
Z Drawing
 62
256
370
-1
  6
ByLayer
 10
-19.0
 20
153.0
 30
0.0
 11
-19.0
 21
-177.1999999999999886
 31
0.0
  0
LINE
  5
FD
100
AcDbEntity
100
AcDbLine
  8
Z Endstops
 62
256
370
-1
  6
ByLayer
 10
-5.0300000000000011
 20
134.0
 30
0.0
 11
-32.9699999999999989
 21
134.0
 31
0.0
  0
LINE
  5
FE
100
AcDbEntity
100
AcDbLine
  8
Z Endstops
 62
256
370
-1
  6
ByLayer
 10
-9.4749999999999943
 20
134.0
 30
0.0
 11
-9.4749999999999943
 21
139.7150000000000034
 31
0.0
  0
LINE
  5
FF
100
AcDbEntity
100
AcDbLine
  8
Z Endstops
 62
256
370
-1
  6
ByLayer
 10
-28.5250000000000057
 20
134.0
 30
0.0
 11
-28.5250000000000057
 21
139.7150000000000034
 31
0.0
  0
LINE
  5
100
100
AcDbEntity
100
AcDbLine
  8
Z Endstops
 62
256
370
-1
  6
ByLayer
 10
-5.0300000000000011
 20
120.6649999999999778
 30
0.0
 11
-5.0300000000000011
 21
139.7150000000000034
 31
0.0
  0
LINE
  5
101
100
AcDbEntity
100
AcDbLine
  8
Z Endstops
 62
256
370
-1
  6
ByLayer
 10
-32.9699999999999989
 20
120.664999999999992
 30
0.0
 11
-32.9699999999999989
 21
139.7150000000000318
 31
0.0
  0
LINE
  5
102
100
AcDbEntity
100
AcDbLine
  8
Z Endstops
 62
256
370
-1
  6
ByLayer
 10
-5.0300000000000011
 20
139.7150000000000034
 30
0.0
 11
-32.9699999999999989
 21
139.7150000000000318
 31
0.0
  0
LINE
  5
103
100
AcDbEntity
100
AcDbLine
  8
Z Endstops
 62
256
370
-1
  6
ByLayer
 10
-5.0300000000000011
 20
130.8249999999999886
 30
0.0
 11
-32.9699999999999989
 21
130.8250000000000171
 31
0.0
  0
LINE
  5
104
100
AcDbEntity
100
AcDbLine
  8
Z Endstops
 62
256
370
-1
  6
ByLayer
 10
-5.0300000000000011
 20
137.1749999999999829
 30
0.0
 11
-32.9699999999999989
 21
137.1750000000000114
 31
0.0
  0
LINE
  5
105
100
AcDbEntity
100
AcDbLine
  8
Z Endstops
 62
256
370
-1
  6
ByLayer
 10
-17.3499999999999943
 20
130.8249999999999886
 30
0.0
 11
-17.3499999999999943
 21
137.1750000000000114
 31
0.0
  0
LINE
  5
106
100
AcDbEntity
100
AcDbLine
  8
Z Endstops
 62
256
370
-1
  6
ByLayer
 10
-20.6500000000000057
 20
130.8249999999999886
 30
0.0
 11
-20.6500000000000057
 21
137.1750000000000114
 31
0.0
  0
LINE
  5
107
100
AcDbEntity
100
AcDbLine
  8
Z Endstops
 62
256
370
-1
  6
ByLayer
 10
-5.0300000000000011
 20
120.6649999999999778
 30
0.0
 11
-32.9699999999999989
 21
120.664999999999992
 31
0.0
  0
LINE
  5
108
100
AcDbEntity
100
AcDbLine
  8
Z Endstops
 62
256
370
-1
  6
ByLayer
 10
-13.0
 20
130.8249999999999886
 30
0.0
 11
-13.0
 21
137.1750000000000114
 31
0.0
  0
LINE
  5
109
100
AcDbEntity
100
AcDbLine
  8
Z Endstops
 62
256
370
-1
  6
ByLayer
 10
-25.0
 20
130.8249999999999886
 30
0.0
 11
-25.0
 21
137.1750000000000114
 31
0.0
  0
LINE
  5
10A
100
AcDbEntity
100
AcDbLine
  8
Z Endstops
 62
256
370
-1
  6
ByLayer
 10
-19.0
 20
120.664999999999992
 30
0.0
 11
-29.0
 21
120.664999999999992
 31
0.0
  0
LINE
  5
10B
100
AcDbEntity
100
AcDbLine
  8
Z Endstops
 62
256
370
-1
  6
ByLayer
 10
-29.0
 20
120.664999999999992
 30
0.0
 11
-29.0
 21
124.0
 31
0.0
  0
LINE
  5
10C
100
AcDbEntity
100
AcDbLine
  8
Z Endstops
 62
256
370
-1
  6
ByLayer
 10
-29.0
 20
124.0
 30
0.0
 11
-19.0
 21
124.0
 31
0.0
  0
LINE
  5
10D
100
AcDbEntity
100
AcDbLine
  8
Z Endstops
 62
256
370
-1
  6
ByLayer
 10
-19.0
 20
124.0
 30
0.0
 11
-19.0
 21
120.664999999999992
 31
0.0
  0
LINE
  5
10E
100
AcDbEntity
100
AcDbLine
  8
Z Endstops
 62
256
370
-1
  6
ByLayer
 10
-20.0
 20
121.0
 30
0.0
 11
-28.0
 21
121.0
 31
0.0
  0
LINE
  5
10F
100
AcDbEntity
100
AcDbLine
  8
Z Endstops
 62
256
370
-1
  6
ByLayer
 10
-28.0
 20
121.0
 30
0.0
 11
-28.0
 21
118.0
 31
0.0
  0
LINE
  5
110
100
AcDbEntity
100
AcDbLine
  8
Z Endstops
 62
256
370
-1
  6
ByLayer
 10
-28.0
 20
118.0
 30
0.0
 11
-20.0
 21
118.0
 31
0.0
  0
LINE
  5
111
100
AcDbEntity
100
AcDbLine
  8
Z Endstops
 62
256
370
-1
  6
ByLayer
 10
-20.0
 20
118.0
 30
0.0
 11
-20.0
 21
121.0
 31
0.0
  0
ARC
  5
112
100
AcDbEntity
  8
Z Endstops
 62
256
370
-1
  6
ByLayer
100
AcDbCircle
 10
-5.0
 20
121.0
 30
0.0
 40
1.0
100
AcDbArc
 50
270.0
 51
360.0
  0
LINE
  5
113
100
AcDbEntity
100
AcDbLine
  8
Z Endstops
 62
256
370
-1
  6
ByLayer
 10
-5.0
 20
120.0
 30
0.0
 11
-33.0
 21
120.0
 31
0.0
  0
ARC
  5
114
100
AcDbEntity
  8
Z Endstops
 62
256
370
-1
  6
ByLayer
100
AcDbCircle
 10
-33.0
 20
121.0
 30
0.0
 40
1.0
100
AcDbArc
 50
180.0
 51
270.0
  0
LINE
  5
115
100
AcDbEntity
100
AcDbLine
  8
Z Endstops
 62
256
370
-1
  6
ByLayer
 10
-34.0
 20
121.0
 30
0.0
 11
-34.0
 21
139.0
 31
0.0
  0
ARC
  5
116
100
AcDbEntity
  8
Z Endstops
 62
256
370
-1
  6
ByLayer
100
AcDbCircle
 10
-33.0
 20
139.0
 30
0.0
 40
1.0
100
AcDbArc
 50
90.0
 51
180.0
  0
LINE
  5
117
100
AcDbEntity
100
AcDbLine
  8
Z Endstops
 62
256
370
-1
  6
ByLayer
 10
-4.0
 20
121.0
 30
0.0
 11
-4.0
 21
139.0
 31
0.0
  0
LINE
  5
118
100
AcDbEntity
100
AcDbLine
  8
Z Endstops
 62
256
370
-1
  6
ByLayer
 10
-5.0
 20
140.0
 30
0.0
 11
-33.0
 21
140.0
 31
0.0
  0
ARC
  5
119
100
AcDbEntity
  8
Z Endstops
 62
256
370
-1
  6
ByLayer
100
AcDbCircle
 10
-5.0
 20
139.0
 30
0.0
 40
1.0
100
AcDbArc
 50
360.0
 51
90.0
  0
CIRCLE
  5
11A
100
AcDbEntity
100
AcDbCircle
  8
Z Endstops
 62
256
370
-1
  6
ByLayer
 10
-9.4749999999999943
 20
134.0
 30
0.0
 40
1.7
  0
CIRCLE
  5
11B
100
AcDbEntity
100
AcDbCircle
  8
Z Endstops
 62
256
370
-1
  6
ByLayer
 10
-28.5250000000000057
 20
134.0
 30
0.0
 40
1.7
  0
MTEXT
  5
11C
100
AcDbEntity
100
AcDbMText
  8
Z Endstops
 62
256
370
-1
  6
ByLayer
 10
-19.0
 20
124.0
 30
0.0
 40
3.0
 41
100.0
 71
5
 72
2
  1
Endstop
  7
standard
 50
180.0
 73
0
 44
1.0
  0
LINE
  5
11D
100
AcDbEntity
100
AcDbLine
  8
Z Endstops
 62
256
370
-1
  6
ByLayer
 10
-19.0
 20
130.8249999999999886
 30
0.0
 11
-19.0
 21
137.1750000000000114
 31
0.0
  0
LINE
  5
11E
100
AcDbEntity
100
AcDbLine
  8
Z Endstops
 62
256
370
-1
  6
ByLayer
 10
-32.9699999999999989
 20
-168.1371963973249422
 30
0.0
 11
-5.0300000000000011
 21
-168.1371963973249422
 31
0.0
  0
LINE
  5
11F
100
AcDbEntity
100
AcDbLine
  8
Z Endstops
 62
256
370
-1
  6
ByLayer
 10
-28.5250000000000057
 20
-168.1371963973249422
 30
0.0
 11
-28.5250000000000057
 21
-173.8521963973249456
 31
0.0
  0
LINE
  5
120
100
AcDbEntity
100
AcDbLine
  8
Z Endstops
 62
256
370
-1
  6
ByLayer
 10
-9.4749999999999943
 20
-168.1371963973249422
 30
0.0
 11
-9.4749999999999943
 21
-173.8521963973249456
 31
0.0
  0
LINE
  5
121
100
AcDbEntity
100
AcDbLine
  8
Z Endstops
 62
256
370
-1
  6
ByLayer
 10
-32.9699999999999989
 20
-154.8021963973249342
 30
0.0
 11
-32.9699999999999989
 21
-173.8521963973249456
 31
0.0
  0
LINE
  5
122
100
AcDbEntity
100
AcDbLine
  8
Z Endstops
 62
256
370
-1
  6
ByLayer
 10
-5.0300000000000011
 20
-154.8021963973249626
 30
0.0
 11
-5.0300000000000011
 21
-173.8521963973249456
 31
0.0
  0
LINE
  5
123
100
AcDbEntity
100
AcDbLine
  8
Z Endstops
 62
256
370
-1
  6
ByLayer
 10
-32.9699999999999989
 20
-173.8521963973249456
 30
0.0
 11
-5.0300000000000011
 21
-173.8521963973249456
 31
0.0
  0
LINE
  5
124
100
AcDbEntity
100
AcDbLine
  8
Z Endstops
 62
256
370
-1
  6
ByLayer
 10
-32.9699999999999989
 20
-164.9621963973249308
 30
0.0
 11
-5.0300000000000011
 21
-164.9621963973249308
 31
0.0
  0
LINE
  5
125
100
AcDbEntity
100
AcDbLine
  8
Z Endstops
 62
256
370
-1
  6
ByLayer
 10
-32.9699999999999989
 20
-171.3121963973249535
 30
0.0
 11
-5.0300000000000011
 21
-171.3121963973249535
 31
0.0
  0
LINE
  5
126
100
AcDbEntity
100
AcDbLine
  8
Z Endstops
 62
256
370
-1
  6
ByLayer
 10
-20.6500000000000057
 20
-164.9621963973249308
 30
0.0
 11
-20.6500000000000057
 21
-171.3121963973249535
 31
0.0
  0
LINE
  5
127
100
AcDbEntity
100
AcDbLine
  8
Z Endstops
 62
256
370
-1
  6
ByLayer
 10
-17.3499999999999943
 20
-164.9621963973249308
 30
0.0
 11
-17.3499999999999943
 21
-171.3121963973249535
 31
0.0
  0
LINE
  5
128
100
AcDbEntity
100
AcDbLine
  8
Z Endstops
 62
256
370
-1
  6
ByLayer
 10
-32.9699999999999989
 20
-154.8021963973249342
 30
0.0
 11
-5.0300000000000011
 21
-154.8021963973249626
 31
0.0
  0
LINE
  5
129
100
AcDbEntity
100
AcDbLine
  8
Z Endstops
 62
256
370
-1
  6
ByLayer
 10
-25.0
 20
-164.9621963973249308
 30
0.0
 11
-25.0
 21
-171.3121963973249535
 31
0.0
  0
LINE
  5
12A
100
AcDbEntity
100
AcDbLine
  8
Z Endstops
 62
256
370
-1
  6
ByLayer
 10
-13.0
 20
-164.9621963973249308
 30
0.0
 11
-13.0
 21
-171.3121963973249535
 31
0.0
  0
LINE
  5
12B
100
AcDbEntity
100
AcDbLine
  8
Z Endstops
 62
256
370
-1
  6
ByLayer
 10
-19.0
 20
-154.8021963973249342
 30
0.0
 11
-9.0
 21
-154.8021963973249626
 31
0.0
  0
LINE
  5
12C
100
AcDbEntity
100
AcDbLine
  8
Z Endstops
 62
256
370
-1
  6
ByLayer
 10
-9.0
 20
-154.8021963973249626
 30
0.0
 11
-9.0
 21
-158.1371963973249422
 31
0.0
  0
LINE
  5
12D
100
AcDbEntity
100
AcDbLine
  8
Z Endstops
 62
256
370
-1
  6
ByLayer
 10
-9.0
 20
-158.1371963973249422
 30
0.0
 11
-19.0
 21
-158.1371963973249422
 31
0.0
  0
LINE
  5
12E
100
AcDbEntity
100
AcDbLine
  8
Z Endstops
 62
256
370
-1
  6
ByLayer
 10
-19.0
 20
-158.1371963973249422
 30
0.0
 11
-19.0
 21
-154.8021963973249342
 31
0.0
  0
LINE
  5
12F
100
AcDbEntity
100
AcDbLine
  8
Z Endstops
 62
256
370
-1
  6
ByLayer
 10
-18.0
 20
-155.1371963973249422
 30
0.0
 11
-10.0
 21
-155.1371963973249422
 31
0.0
  0
LINE
  5
130
100
AcDbEntity
100
AcDbLine
  8
Z Endstops
 62
256
370
-1
  6
ByLayer
 10
-10.0
 20
-155.1371963973249422
 30
0.0
 11
-10.0
 21
-152.1371963973249422
 31
0.0
  0
LINE
  5
131
100
AcDbEntity
100
AcDbLine
  8
Z Endstops
 62
256
370
-1
  6
ByLayer
 10
-10.0
 20
-152.1371963973249422
 30
0.0
 11
-18.0
 21
-152.1371963973249422
 31
0.0
  0
LINE
  5
132
100
AcDbEntity
100
AcDbLine
  8
Z Endstops
 62
256
370
-1
  6
ByLayer
 10
-18.0
 20
-152.1371963973249422
 30
0.0
 11
-18.0
 21
-155.1371963973249422
 31
0.0
  0
ARC
  5
133
100
AcDbEntity
  8
Z Endstops
 62
256
370
-1
  6
ByLayer
100
AcDbCircle
 10
-33.0
 20
-155.1371963973249422
 30
0.0
 40
1.0
100
AcDbArc
 50
90.0
 51
180.0
  0
LINE
  5
134
100
AcDbEntity
100
AcDbLine
  8
Z Endstops
 62
256
370
-1
  6
ByLayer
 10
-33.0
 20
-154.1371963973249422
 30
0.0
 11
-5.0
 21
-154.1371963973249422
 31
0.0
  0
ARC
  5
135
100
AcDbEntity
  8
Z Endstops
 62
256
370
-1
  6
ByLayer
100
AcDbCircle
 10
-5.0
 20
-155.1371963973249422
 30
0.0
 40
1.0
100
AcDbArc
 50
0.0
 51
90.0
  0
LINE
  5
136
100
AcDbEntity
100
AcDbLine
  8
Z Endstops
 62
256
370
-1
  6
ByLayer
 10
-4.0
 20
-155.1371963973249422
 30
0.0
 11
-4.0
 21
-173.1371963973249422
 31
0.0
  0
ARC
  5
137
100
AcDbEntity
  8
Z Endstops
 62
256
370
-1
  6
ByLayer
100
AcDbCircle
 10
-5.0
 20
-173.1371963973249422
 30
0.0
 40
1.0
100
AcDbArc
 50
270.0
 51
0.0
  0
LINE
  5
138
100
AcDbEntity
100
AcDbLine
  8
Z Endstops
 62
256
370
-1
  6
ByLayer
 10
-34.0
 20
-155.1371963973249422
 30
0.0
 11
-34.0
 21
-173.1371963973249422
 31
0.0
  0
LINE
  5
139
100
AcDbEntity
100
AcDbLine
  8
Z Endstops
 62
256
370
-1
  6
ByLayer
 10
-33.0
 20
-174.1371963973249422
 30
0.0
 11
-5.0
 21
-174.1371963973249422
 31
0.0
  0
ARC
  5
13A
100
AcDbEntity
  8
Z Endstops
 62
256
370
-1
  6
ByLayer
100
AcDbCircle
 10
-33.0
 20
-173.1371963973249422
 30
0.0
 40
1.0
100
AcDbArc
 50
180.0
 51
270.0
  0
CIRCLE
  5
13B
100
AcDbEntity
100
AcDbCircle
  8
Z Endstops
 62
256
370
-1
  6
ByLayer
 10
-28.5250000000000057
 20
-168.1371963973249422
 30
0.0
 40
1.7
  0
CIRCLE
  5
13C
100
AcDbEntity
100
AcDbCircle
  8
Z Endstops
 62
256
370
-1
  6
ByLayer
 10
-9.4749999999999943
 20
-168.1371963973249422
 30
0.0
 40
1.7
  0
MTEXT
  5
13D
100
AcDbEntity
100
AcDbMText
  8
Z Endstops
 62
256
370
-1
  6
ByLayer
 10
-19.0
 20
-158.1371963973249422
 30
0.0
 40
3.0
 41
100.0
 71
5
 72
2
  1
Endstop
  7
standard
 50
0.0
 73
0
 44
1.0
  0
LINE
  5
13E
100
AcDbEntity
100
AcDbLine
  8
Z Endstops
 62
256
370
-1
  6
ByLayer
 10
-19.0
 20
-164.9621963973249308
 30
0.0
 11
-19.0
 21
-171.3121963973249535
 31
0.0
  0
LINE
  5
13F
100
AcDbEntity
100
AcDbLine
  8
Vertical Base Drawings
 62
256
370
-1
  6
ByLayer
 10
8.8624999999999972
 20
114.9999999999999858
 30
0.0
 11
8.8624999999999972
 21
-115.0000000000000142
 31
0.0
  0
LINE
  5
140
100
AcDbEntity
100
AcDbLine
  8
Vertical Base Drawings
 62
256
370
-1
  6
ByLayer
 10
-66.9500000000000028
 20
115.0
 30
0.0
 11
-66.9500000000000171
 21
-115.0
 31
0.0
  0
LINE
  5
141
100
AcDbEntity
100
AcDbLine
  8
Vertical Base Drawings
 62
256
370
-1
  6
ByLayer
 10
48.0187499999999972
 20
115.0
 30
0.0
 11
48.0187499999999972
 21
-115.0
 31
0.0
  0
LINE
  5
142
100
AcDbEntity
100
AcDbLine
  8
Vertical Base Drawings
 62
256
370
-1
  6
ByLayer
 10
1.9812499999999993
 20
121.3500000000000369
 30
0.0
 11
1.9812499999999993
 21
-114.9999999999999716
 31
0.0
  0
LINE
  5
143
100
AcDbEntity
100
AcDbLine
  8
Vertical Base Drawings
 62
256
370
-1
  6
ByLayer
 10
-0.9375000000000036
 20
-30.9866098131689682
 30
0.0
 11
45.0999999999999801
 21
-30.9866098131689682
 31
0.0
  0
ENDSEC
  0
SECTION
  2
OBJECTS
  0
DICTIONARY
  5
C
100
AcDbDictionary
280
0
281
1
  3
ACAD_GROUP
350
D
  3
ACAD_LAYOUT
350
1A
  3
ACAD_MLINESTYLE
350
17
  3
ACAD_PLOTSETTINGS
350
19
  3
ACAD_PLOTSTYLENAME
350
E
  3
AcDbVariableDictionary
350
144
  0
DICTIONARY
  5
D
100
AcDbDictionary
280
0
281
1
  0
ACDBDICTIONARYWDFLT
  5
E
100
AcDbDictionary
281
1
  3
Normal
350
F
100
AcDbDictionaryWithDefault
340
F
  0
ACDBPLACEHOLDER
  5
F
  0
DICTIONARY
  5
17
100
AcDbDictionary
280
0
281
1
  3
Standard
350
18
  0
MLINESTYLE
  5
18
100
AcDbMlineStyle
  2
STANDARD
 70
0
  3

 62
256
 51
90.0
 52
90.0
 71
2
 49
0.5
 62
256
  6
BYLAYER
 49
-0.5
 62
256
  6
BYLAYER
  0
DICTIONARY
  5
19
100
AcDbDictionary
280
0
281
1
  0
DICTIONARY
  5
1A
100
AcDbDictionary
281
1
  3
Layout1
350
1E
  3
Layout2
350
26
  3
Model
350
22
  0
LAYOUT
  5
1E
100
AcDbPlotSettings
  1

  2
C:\Program Files\AutoCAD 2002\plotters\DWF ePlot (optimized for plotting).pc3
  4

  6

 40
0.0
 41
0.0
 42
0.0
 43
0.0
 44
0.0
 45
0.0
 46
0.0
 47
0.0
 48
0.0
 49
0.0
140
0.0
141
0.0
142
1.0
143
1.0
 70
688
 72
0
 73
0
 74
5
  7

 75
16
147
1.0
148
0.0
149
0.0
100
AcDbLayout
  1
Layout1
 70
1
 71
1
 10
0.0
 20
0.0
 11
420.0
 21
297.0
 12
0.0
 22
0.0
 32
0.0
 14
100000000000000000000.0
 24
100000000000000000000.0
 34
100000000000000000000.0
 15
-100000000000000000000.0
 25
-100000000000000000000.0
 35
-100000000000000000000.0
146
0.0
 13
0.0
 23
0.0
 33
0.0
 16
1.0
 26
0.0
 36
0.0
 17
0.0
 27
1.0
 37
0.0
 76
0
330
1B
  0
LAYOUT
  5
22
100
AcDbPlotSettings
  1

  2
C:\Program Files\AutoCAD 2002\plotters\DWF ePlot (optimized for plotting).pc3
  4

  6

 40
0.0
 41
0.0
 42
0.0
 43
0.0
 44
0.0
 45
0.0
 46
0.0
 47
0.0
 48
0.0
 49
0.0
140
0.0
141
0.0
142
1.0
143
1.0
 70
1712
 72
0
 73
0
 74
0
  7

 75
0
147
1.0
148
0.0
149
0.0
100
AcDbLayout
  1
Model
 70
1
 71
0
 10
0.0
 20
0.0
 11
12.0
 21
9.0
 12
0.0
 22
0.0
 32
0.0
 14
0.0
 24
0.0
 34
0.0
 15
0.0
 25
0.0
 35
0.0
146
0.0
 13
0.0
 23
0.0
 33
0.0
 16
1.0
 26
0.0
 36
0.0
 17
0.0
 27
1.0
 37
0.0
 76
0
330
1F
  0
LAYOUT
  5
26
100
AcDbPlotSettings
  1

  2
C:\Program Files\AutoCAD 2002\plotters\DWF ePlot (optimized for plotting).pc3
  4

  6

 40
0.0
 41
0.0
 42
0.0
 43
0.0
 44
0.0
 45
0.0
 46
0.0
 47
0.0
 48
0.0
 49
0.0
140
0.0
141
0.0
142
1.0
143
1.0
 70
688
 72
0
 73
0
 74
5
  7

 75
16
147
1.0
148
0.0
149
0.0
100
AcDbLayout
  1
Layout2
 70
1
 71
2
 10
0.0
 20
0.0
 11
12.0
 21
9.0
 12
0.0
 22
0.0
 32
0.0
 14
0.0
 24
0.0
 34
0.0
 15
0.0
 25
0.0
 35
0.0
146
0.0
 13
0.0
 23
0.0
 33
0.0
 16
1.0
 26
0.0
 36
0.0
 17
0.0
 27
1.0
 37
0.0
 76
0
330
23
  0
DICTIONARY
  5
144
100
AcDbDictionary
281
1
  3
DIMASSOC
350
146
  3
HIDETEXT
350
145
  0
DICTIONARYVAR
  5
145
100
DictionaryVariables
280
0
  1
2
  0
DICTIONARYVAR
  5
146
100
DictionaryVariables
280
0
  1
1
  0
ENDSEC
  0
EOF
