999
dxflib 2.1.2.0
  0
SECTION
  2
HEADER
  9
$ACADVER
  1
AC1015
  9
$HANDSEED
  5
FFFF
  9
$DIMASZ
 40
2.5
  9
$PLIMMIN
 10
0.0
 20
0.0
  9
$DIMEXE
 40
1.25
  9
$DIMGAP
 40
0.625
  9
$PLIMMAX
 10
210.0
 20
297.0
  9
$INSUNITS
 70
4
  9
$DIMSTYLE
  2
Standard
  9
$CLAYER
  8
Z Drawing
  9
$DIMEXO
 40
0.625
  9
$DIMTXT
 40
2.5
  9
$CLAYER
  8
Z Drawing
  0
ENDSEC
  0
SECTION
  2
TABLES
  0
TABLE
  2
VPORT
  5
8
100
AcDbSymbolTable
 70
1
  0
VPORT
  5
30
100
AcDbSymbolTableRecord
100
AcDbViewportTableRecord
  2
*Active
 70
0
 10
0.0
 20
0.0
 11
1.0
 21
1.0
 12
286.3055555555554861
 22
148.5
 13
0.0
 23
0.0
 14
10.0
 24
10.0
 15
10.0
 25
10.0
 16
0.0
 26
0.0
 36
1.0
 17
0.0
 27
0.0
 37
0.0
 40
297.0
 41
1.92798353909465
 42
50.0
 43
0.0
 44
0.0
 50
0.0
 51
0.0
 71
0
 72
100
 73
1
 74
3
 75
1
 76
1
 77
0
 78
0
281
0
 65
1
110
0.0
120
0.0
130
0.0
111
1.0
121
0.0
131
0.0
112
0.0
122
1.0
132
0.0
 79
0
146
0.0
  0
ENDTAB
  0
TABLE
  2
LTYPE
  5
5
100
AcDbSymbolTable
 70
21
  0
LTYPE
  5
14
100
AcDbSymbolTableRecord
100
AcDbLinetypeTableRecord
  2
ByBlock
 70
0
  3

 72
65
 73
0
 40
0.0
  0
LTYPE
  5
15
100
AcDbSymbolTableRecord
100
AcDbLinetypeTableRecord
  2
ByLayer
 70
0
  3

 72
65
 73
0
 40
0.0
  0
LTYPE
  5
16
100
AcDbSymbolTableRecord
100
AcDbLinetypeTableRecord
  2
CONTINUOUS
 70
0
  3
Solid line
 72
65
 73
0
 40
0.0
  0
LTYPE
  5
31
100
AcDbSymbolTableRecord
100
AcDbLinetypeTableRecord
  2
DOT
 70
0
  3
Dot . . . . . . . . . . . . . . . . . . . . . .
 72
65
 73
2
 40
6.3499999999999996
 49
0.0
 74
0
 49
-6.3499999999999996
 74
0
  0
LTYPE
  5
32
100
AcDbSymbolTableRecord
100
AcDbLinetypeTableRecord
  2
DOT2
 70
0
  3
Dot (.5x) .....................................
 72
65
 73
2
 40
3.1749999999999998
 49
0.0
 74
0
 49
-3.1749999999999998
 74
0
  0
LTYPE
  5
33
100
AcDbSymbolTableRecord
100
AcDbLinetypeTableRecord
  2
DOTX2
 70
0
  3
Dot (2x) .  .  .  .  .  .  .  .  .  .  .  .  .
 72
65
 73
2
 40
12.6999999999999993
 49
0.0
 74
0
 49
-12.6999999999999993
 74
0
  0
LTYPE
  5
34
100
AcDbSymbolTableRecord
100
AcDbLinetypeTableRecord
  2
DASHED
 70
0
  3
Dashed __ __ __ __ __ __ __ __ __ __ __ __ __ _
 72
65
 73
2
 40
19.0500000000000007
 49
12.6999999999999993
 74
0
 49
-6.3499999999999996
 74
0
  0
LTYPE
  5
35
100
AcDbSymbolTableRecord
100
AcDbLinetypeTableRecord
  2
DASHED2
 70
0
  3
Dashed (.5x) _ _ _ _ _ _ _ _ _ _ _ _ _ _ _ _ _
 72
65
 73
2
 40
9.5250000000000004
 49
6.3499999999999996
 74
0
 49
-3.1749999999999998
 74
0
  0
LTYPE
  5
36
100
AcDbSymbolTableRecord
100
AcDbLinetypeTableRecord
  2
DASHEDX2
 70
0
  3
Dashed (2x) ____  ____  ____  ____  ____  ___
 72
65
 73
2
 40
38.1000000000000014
 49
25.3999999999999986
 74
0
 49
-12.6999999999999993
 74
0
  0
LTYPE
  5
37
100
AcDbSymbolTableRecord
100
AcDbLinetypeTableRecord
  2
DASHDOT
 70
0
  3
Dash dot __ . __ . __ . __ . __ . __ . __ . __
 72
65
 73
4
 40
25.3999999999999986
 49
12.6999999999999993
 74
0
 49
-6.3499999999999996
 74
0
 49
0.0
 74
0
 49
-6.3499999999999996
 74
0
  0
LTYPE
  5
38
100
AcDbSymbolTableRecord
100
AcDbLinetypeTableRecord
  2
DASHDOT2
 70
0
  3
Dash dot (.5x) _._._._._._._._._._._._._._._.
 72
65
 73
4
 40
12.6999999999999993
 49
6.3499999999999996
 74
0
 49
-3.1749999999999998
 74
0
 49
0.0
 74
0
 49
-3.1749999999999998
 74
0
  0
LTYPE
  5
39
100
AcDbSymbolTableRecord
100
AcDbLinetypeTableRecord
  2
DASHDOTX2
 70
0
  3
Dash dot (2x) ____  .  ____  .  ____  .  ___
 72
65
 73
4
 40
50.7999999999999972
 49
25.3999999999999986
 74
0
 49
-12.6999999999999993
 74
0
 49
0.0
 74
0
 49
-12.6999999999999993
 74
0
  0
LTYPE
  5
3A
100
AcDbSymbolTableRecord
100
AcDbLinetypeTableRecord
  2
DIVIDE
 70
0
  3
Divide ____ . . ____ . . ____ . . ____ . . ____
 72
65
 73
6
 40
31.75
 49
12.6999999999999993
 74
0
 49
-6.3499999999999996
 74
0
 49
0.0
 74
0
 49
-6.3499999999999996
 74
0
 49
0.0
 74
0
 49
-6.3499999999999996
 74
0
  0
LTYPE
  5
3B
100
AcDbSymbolTableRecord
100
AcDbLinetypeTableRecord
  2
DIVIDE2
 70
0
  3
Divide (.5x) __..__..__..__..__..__..__..__.._
 72
65
 73
6
 40
15.875
 49
6.3499999999999996
 74
0
 49
-3.1749999999999998
 74
0
 49
0.0
 74
0
 49
-3.1749999999999998
 74
0
 49
0.0
 74
0
 49
-3.1749999999999998
 74
0
  0
LTYPE
  5
3C
100
AcDbSymbolTableRecord
100
AcDbLinetypeTableRecord
  2
DIVIDEX2
 70
0
  3
Divide (2x) ________  .  .  ________  .  .  _
 72
65
 73
6
 40
63.5
 49
25.3999999999999986
 74
0
 49
-12.6999999999999993
 74
0
 49
0.0
 74
0
 49
-12.6999999999999993
 74
0
 49
0.0
 74
0
 49
-12.6999999999999993
 74
0
  0
LTYPE
  5
3D
100
AcDbSymbolTableRecord
100
AcDbLinetypeTableRecord
  2
CENTER
 70
0
  3
Center ____ _ ____ _ ____ _ ____ _ ____ _ ____
 72
65
 73
4
 40
50.7999999999999972
 49
31.75
 74
0
 49
-6.3499999999999996
 74
0
 49
6.3499999999999996
 74
0
 49
-6.3499999999999996
 74
0
  0
LTYPE
  5
3E
100
AcDbSymbolTableRecord
100
AcDbLinetypeTableRecord
  2
CENTER2
 70
0
  3
Center (.5x) ___ _ ___ _ ___ _ ___ _ ___ _ ___
 72
65
 73
4
 40
28.5749999999999993
 49
19.0500000000000007
 74
0
 49
-3.1749999999999998
 74
0
 49
3.1749999999999998
 74
0
 49
-3.1749999999999998
 74
0
  0
LTYPE
  5
3F
100
AcDbSymbolTableRecord
100
AcDbLinetypeTableRecord
  2
CENTERX2
 70
0
  3
Center (2x) ________  __  ________  __  _____
 72
65
 73
4
 40
101.5999999999999943
 49
63.5
 74
0
 49
-12.6999999999999993
 74
0
 49
12.6999999999999993
 74
0
 49
-12.6999999999999993
 74
0
  0
LTYPE
  5
40
100
AcDbSymbolTableRecord
100
AcDbLinetypeTableRecord
  2
BORDER
 70
0
  3
Border __ __ . __ __ . __ __ . __ __ . __ __ .
 72
65
 73
6
 40
44.4500000000000028
 49
12.6999999999999993
 74
0
 49
-6.3499999999999996
 74
0
 49
12.6999999999999993
 74
0
 49
-6.3499999999999996
 74
0
 49
0.0
 74
0
 49
-6.3499999999999996
 74
0
  0
LTYPE
  5
41
100
AcDbSymbolTableRecord
100
AcDbLinetypeTableRecord
  2
BORDER2
 70
0
  3
Border (.5x) __.__.__.__.__.__.__.__.__.__.__.
 72
65
 73
6
 40
22.2250000000000014
 49
6.3499999999999996
 74
0
 49
-3.1749999999999998
 74
0
 49
6.3499999999999996
 74
0
 49
-3.1749999999999998
 74
0
 49
0.0
 74
0
 49
-3.1749999999999998
 74
0
  0
LTYPE
  5
42
100
AcDbSymbolTableRecord
100
AcDbLinetypeTableRecord
  2
BORDERX2
 70
0
  3
Border (2x) ____  ____  .  ____  ____  .  ___
 72
65
 73
6
 40
88.9000000000000057
 49
25.3999999999999986
 74
0
 49
-12.6999999999999993
 74
0
 49
25.3999999999999986
 74
0
 49
-12.6999999999999993
 74
0
 49
0.0
 74
0
 49
-12.6999999999999993
 74
0
  0
ENDTAB
  0
TABLE
  2
LAYER
  5
2
100
AcDbSymbolTable
 70
10
  0
LAYER
  5
10
100
AcDbSymbolTableRecord
100
AcDbLayerTableRecord
  2
0
 70
1
 62
-7
  6
CONTINUOUS
370
0
390
F
  0
LAYER
  5
43
100
AcDbSymbolTableRecord
100
AcDbLayerTableRecord
  2
Vertical Base
 70
1
 62
-1
  6
CONTINUOUS
370
0
390
F
  0
LAYER
  5
44
100
AcDbSymbolTableRecord
100
AcDbLayerTableRecord
  2
Z Rails
 70
0
 62
81
  6
CONTINUOUS
370
0
390
F
  0
LAYER
  5
45
100
AcDbSymbolTableRecord
100
AcDbLayerTableRecord
  2
Z Drawing
 70
0
 62
7
  6
CONTINUOUS
370
0
390
F
  0
LAYER
  5
46
100
AcDbSymbolTableRecord
100
AcDbLayerTableRecord
  2
Z Stage
 70
0
 62
3
  6
CONTINUOUS
370
0
390
F
  0
LAYER
  5
47
100
AcDbSymbolTableRecord
100
AcDbLayerTableRecord
  2
Vertical Base Text
 70
1
 62
-34
  6
CONTINUOUS
370
0
390
F
  0
LAYER
  5
48
100
AcDbSymbolTableRecord
100
AcDbLayerTableRecord
  2
Z Text
 70
1
 62
-72
  6
CONTINUOUS
370
0
390
F
  0
LAYER
  5
49
100
AcDbSymbolTableRecord
100
AcDbLayerTableRecord
  2
Z Drive
 70
0
 62
76
  6
CONTINUOUS
370
0
390
F
  0
LAYER
  5
4A
100
AcDbSymbolTableRecord
100
AcDbLayerTableRecord
  2
Dimensions
 70
1
 62
-2
  6
CONTINUOUS
370
0
390
F
  0
LAYER
  5
4B
100
AcDbSymbolTableRecord
100
AcDbLayerTableRecord
  2
Opto Endstop
 70
1
 62
-7
  6
CONTINUOUS
370
0
390
F
  0
ENDTAB
  0
TABLE
  2
STYLE
  5
3
100
AcDbSymbolTable
 70
1
  0
STYLE
  5
11
100
AcDbSymbolTableRecord
100
AcDbTextStyleTableRecord
  2
Standard
 70
0
 40
0.0
 41
0.75
 50
0.0
 71
0
 42
2.5
  3
txt
  4

  0
ENDTAB
  0
TABLE
  2
VIEW
  5
6
100
AcDbSymbolTable
 70
0
  0
ENDTAB
  0
TABLE
  2
UCS
  5
7
100
AcDbSymbolTable
 70
0
  0
ENDTAB
  0
TABLE
  2
APPID
  5
9
100
AcDbSymbolTable
 70
1
  0
APPID
  5
12
100
AcDbSymbolTableRecord
100
AcDbRegAppTableRecord
  2
ACAD
 70
0
  0
ENDTAB
  0
TABLE
  2
DIMSTYLE
  5
A
100
AcDbSymbolTable
 70
1
100
AcDbDimStyleTable
 71
0
  0
DIMSTYLE
105
27
100
AcDbSymbolTableRecord
100
AcDbDimStyleTableRecord
  2
Standard
 41
2.5
 42
0.625
 43
3.75
 44
1.25
 70
0
 73
0
 74
0
 77
1
 78
8
140
2.5
141
2.5
143
0.03937007874016
147
0.625
171
3
172
1
271
2
272
2
274
3
278
44
283
0
284
8
340
11
  0
ENDTAB
  0
TABLE
  2
BLOCK_RECORD
  5
1
100
AcDbSymbolTable
 70
1
  0
BLOCK_RECORD
  5
1F
100
AcDbSymbolTableRecord
100
AcDbBlockTableRecord
  2
*Model_Space
340
22
  0
BLOCK_RECORD
  5
1B
100
AcDbSymbolTableRecord
100
AcDbBlockTableRecord
  2
*Paper_Space
340
1E
  0
BLOCK_RECORD
  5
23
100
AcDbSymbolTableRecord
100
AcDbBlockTableRecord
  2
*Paper_Space0
340
26
  0
ENDTAB
  0
ENDSEC
  0
SECTION
  2
BLOCKS
  0
BLOCK
  5
20
100
AcDbEntity
  8
0
100
AcDbBlockBegin
  2
*Model_Space
 70
0
 10
0.0
 20
0.0
 30
0.0
  3
*Model_Space
  1

  0
ENDBLK
  5
21
100
AcDbEntity
  8
0
100
AcDbBlockEnd
  0
BLOCK
  5
1C
100
AcDbEntity
 67
1
  8
0
100
AcDbBlockBegin
  2
*Paper_Space
 70
0
 10
0.0
 20
0.0
 30
0.0
  3
*Paper_Space
  1

  0
ENDBLK
  5
1D
100
AcDbEntity
 67
1
  8
0
100
AcDbBlockEnd
  0
BLOCK
  5
24
100
AcDbEntity
  8
0
100
AcDbBlockBegin
  2
*Paper_Space0
 70
0
 10
0.0
 20
0.0
 30
0.0
  3
*Paper_Space0
  1

  0
ENDBLK
  5
25
100
AcDbEntity
  8
0
100
AcDbBlockEnd
  0
ENDSEC
  0
SECTION
  2
ENTITIES
  0
LINE
  5
4C
100
AcDbEntity
100
AcDbLine
  8
Z Rails
 62
256
370
-1
  6
ByLayer
 10
119.0499999999999972
 20
300.0
 30
0.0
 11
119.0499999999999829
 21
70.0
 31
0.0
  0
LINE
  5
4D
100
AcDbEntity
100
AcDbLine
  8
Z Rails
 62
256
370
-1
  6
ByLayer
 10
210.9499999999999886
 20
300.0
 30
0.0
 11
210.9499999999999886
 21
70.0
 31
0.0
  0
LINE
  5
4E
100
AcDbEntity
100
AcDbLine
  8
Z Rails
 62
256
370
-1
  6
ByLayer
 10
100.0
 20
300.0
 30
0.0
 11
99.9999999999999858
 21
70.0
 31
0.0
  0
LINE
  5
4F
100
AcDbEntity
100
AcDbLine
  8
Z Rails
 62
256
370
-1
  6
ByLayer
 10
230.0
 20
300.0
 30
0.0
 11
230.0
 21
70.0
 31
0.0
  0
LINE
  5
50
100
AcDbEntity
100
AcDbLine
  8
Z Rails
 62
256
370
-1
  6
ByLayer
 10
138.0999999999999943
 20
300.0
 30
0.0
 11
138.0999999999999943
 21
70.0
 31
0.0
  0
LINE
  5
51
100
AcDbEntity
100
AcDbLine
  8
Z Rails
 62
256
370
-1
  6
ByLayer
 10
100.0
 20
300.0
 30
0.0
 11
119.0499999999999972
 21
300.0
 31
0.0
  0
LINE
  5
52
100
AcDbEntity
100
AcDbLine
  8
Z Rails
 62
256
370
-1
  6
ByLayer
 10
119.0499999999999972
 20
300.0
 30
0.0
 11
119.0499999999999972
 21
300.0
 31
0.0
  0
LINE
  5
53
100
AcDbEntity
100
AcDbLine
  8
Z Rails
 62
256
370
-1
  6
ByLayer
 10
119.0499999999999972
 20
300.0
 30
0.0
 11
138.0999999999999943
 21
300.0
 31
0.0
  0
LINE
  5
54
100
AcDbEntity
100
AcDbLine
  8
Z Rails
 62
256
370
-1
  6
ByLayer
 10
138.0999999999999943
 20
70.0
 30
0.0
 11
119.0499999999999829
 21
70.0
 31
0.0
  0
LINE
  5
55
100
AcDbEntity
100
AcDbLine
  8
Z Rails
 62
256
370
-1
  6
ByLayer
 10
119.0499999999999829
 20
70.0
 30
0.0
 11
99.9999999999999858
 21
70.0
 31
0.0
  0
LINE
  5
56
100
AcDbEntity
100
AcDbLine
  8
Z Rails
 62
256
370
-1
  6
ByLayer
 10
99.9999999999999858
 20
70.0
 30
0.0
 11
119.0499999999999829
 21
70.0
 31
0.0
  0
LINE
  5
57
100
AcDbEntity
100
AcDbLine
  8
Z Rails
 62
256
370
-1
  6
ByLayer
 10
210.9499999999999886
 20
70.0
 30
0.0
 11
230.0
 21
70.0
 31
0.0
  0
LINE
  5
58
100
AcDbEntity
100
AcDbLine
  8
Z Rails
 62
256
370
-1
  6
ByLayer
 10
230.0
 20
300.0
 30
0.0
 11
210.9499999999999886
 21
300.0
 31
0.0
  0
LINE
  5
59
100
AcDbEntity
100
AcDbLine
  8
Z Drawing
 62
256
370
-1
  6
ByLayer
 10
109.5249999999999915
 20
300.0
 30
0.0
 11
109.5249999999999773
 21
70.0
 31
0.0
  0
LINE
  5
5A
100
AcDbEntity
100
AcDbLine
  8
Z Drawing
 62
256
370
-1
  6
ByLayer
 10
220.4749999999999943
 20
300.0
 30
0.0
 11
220.4749999999999943
 21
70.0
 31
0.0
  0
LINE
  5
5B
100
AcDbEntity
100
AcDbLine
  8
Z Drawing
 62
256
370
-1
  6
ByLayer
 10
100.0
 20
185.0
 30
0.0
 11
230.0
 21
185.0
 31
0.0
  0
LINE
  5
5C
100
AcDbEntity
100
AcDbLine
  8
Z Drawing
 62
256
370
-1
  6
ByLayer
 10
100.0
 20
280.0
 30
0.0
 11
138.0
 21
280.0
 31
0.0
  0
LINE
  5
5D
100
AcDbEntity
100
AcDbLine
  8
Z Drawing
 62
256
370
-1
  6
ByLayer
 10
100.0
 20
90.0
 30
0.0
 11
140.0
 21
90.0
 31
0.0
  0
LINE
  5
5E
100
AcDbEntity
100
AcDbLine
  8
Z Drawing
 62
256
370
-1
  6
ByLayer
 10
210.0
 20
90.0
 30
0.0
 11
230.0
 21
90.0
 31
0.0
  0
LINE
  5
5F
100
AcDbEntity
100
AcDbLine
  8
Z Drawing
 62
256
370
-1
  6
ByLayer
 10
210.0
 20
280.0
 30
0.0
 11
230.0
 21
280.0
 31
0.0
  0
CIRCLE
  5
60
100
AcDbEntity
100
AcDbCircle
  8
Vertical Base
 62
256
370
-1
  6
ByLayer
 10
128.5749999999999886
 20
280.0
 30
0.0
 40
2.0
  0
CIRCLE
  5
61
100
AcDbEntity
100
AcDbCircle
  8
Vertical Base
 62
256
370
-1
  6
ByLayer
 10
220.4749999999999943
 20
280.0
 30
0.0
 40
2.0
  0
CIRCLE
  5
62
100
AcDbEntity
100
AcDbCircle
  8
Vertical Base
 62
256
370
-1
  6
ByLayer
 10
220.4749999999999943
 20
185.0
 30
0.0
 40
2.0
  0
CIRCLE
  5
63
100
AcDbEntity
100
AcDbCircle
  8
Vertical Base
 62
256
370
-1
  6
ByLayer
 10
128.5749999999999886
 20
185.0
 30
0.0
 40
2.0
  0
CIRCLE
  5
64
100
AcDbEntity
100
AcDbCircle
  8
Vertical Base
 62
256
370
-1
  6
ByLayer
 10
220.4749999999999943
 20
90.0
 30
0.0
 40
2.0
  0
CIRCLE
  5
65
100
AcDbEntity
100
AcDbCircle
  8
Vertical Base
 62
256
370
-1
  6
ByLayer
 10
128.5749999999999886
 20
90.0
 30
0.0
 40
2.0
  0
CIRCLE
  5
66
100
AcDbEntity
100
AcDbCircle
  8
Z Stage
 62
256
370
-1
  6
ByLayer
 10
109.5249999999999915
 20
280.0
 30
0.0
 40
2.0
  0
CIRCLE
  5
67
100
AcDbEntity
100
AcDbCircle
  8
Z Stage
 62
256
370
-1
  6
ByLayer
 10
109.5249999999999773
 20
185.0
 30
0.0
 40
2.0
  0
CIRCLE
  5
68
100
AcDbEntity
100
AcDbCircle
  8
Z Stage
 62
256
370
-1
  6
ByLayer
 10
109.5249999999999773
 20
90.0
 30
0.0
 40
2.0
  0
LINE
  5
69
100
AcDbEntity
100
AcDbLine
  8
Z Drawing
 62
256
370
-1
  6
ByLayer
 10
165.0
 20
290.0
 30
0.0
 11
165.0
 21
79.9999999999999858
 31
0.0
  0
LINE
  5
6A
100
AcDbEntity
100
AcDbLine
  8
Z Drawing
 62
256
370
-1
  6
ByLayer
 10
178.0999999999999943
 20
300.0
 30
0.0
 11
178.0999999999999943
 21
69.9999999999999858
 31
0.0
  0
LINE
  5
6B
100
AcDbEntity
100
AcDbLine
  8
Z Drawing
 62
256
370
-1
  6
ByLayer
 10
122.2249999999999943
 20
300.0
 30
0.0
 11
122.2249999999999801
 21
70.0
 31
0.0
  0
LINE
  5
6C
100
AcDbEntity
100
AcDbLine
  8
Z Drawing
 62
256
370
-1
  6
ByLayer
 10
115.875
 20
300.0
 30
0.0
 11
115.8749999999999858
 21
70.0
 31
0.0
  0
DIMENSION
  5
6D
100
AcDbEntity
  8
Dimensions
 62
256
370
-1
  6
ByLayer
100
AcDbDimension
 10
230.0
 20
50.0
 30
0.0
 11
165.0
 21
51.875
 31
0.0
 70
0
 71
5
 72
0
 41
1.0
 42
0.0
  1

  3
Standard
100
AcDbAlignedDimension
 13
99.9999999999999858
 23
80.0
 33
0.0
 14
230.0
 24
80.0
 34
0.0
 50
0.0
100
AcDbRotatedDimension
  0
DIMENSION
  5
6E
100
AcDbEntity
  8
Dimensions
 62
256
370
-1
  6
ByLayer
100
AcDbDimension
 10
250.0
 20
70.0
 30
0.0
 11
248.125
 21
185.0
 31
0.0
 70
0
 71
5
 72
0
 41
1.0
 42
0.0
  1

  3
Standard
100
AcDbAlignedDimension
 13
220.0
 23
300.0
 33
0.0
 14
220.0
 24
70.0
 34
0.0
 50
90.0
100
AcDbRotatedDimension
  0
LINE
  5
6F
100
AcDbEntity
100
AcDbLine
  8
Z Drawing
 62
256
370
-1
  6
ByLayer
 10
100.0
 20
300.0
 30
0.0
 11
170.0
 21
300.0
 31
0.0
  0
LINE
  5
70
100
AcDbEntity
100
AcDbLine
  8
Z Drawing
 62
256
370
-1
  6
ByLayer
 10
109.9999999999999858
 20
250.0
 30
0.0
 11
220.0
 21
250.0
 31
0.0
  0
CIRCLE
  5
71
100
AcDbEntity
100
AcDbCircle
  8
Z Stage
 62
256
370
-1
  6
ByLayer
 10
178.0999999999999943
 20
250.0
 30
0.0
 40
2.0
  0
MTEXT
  5
72
100
AcDbEntity
100
AcDbMText
  8
Vertical Base Text
 62
256
370
-1
  6
ByLayer
 10
173.8666666666666742
 20
168.7640725939030517
 30
0.0
 40
7.0
 41
100.0
 71
5
 72
2
  1
"Vertical\~Base"\PMcWire\~Cartesian\~Bot\~v1.0\Pwww.RepRap.org
  7
standard
 50
90.0
 73
1
 44
1.0
  0
ARC
  5
73
100
AcDbEntity
  8
Z Stage
 62
256
370
-1
  6
ByLayer
100
AcDbCircle
 10
90.0
 20
290.0
 30
0.0
 40
10.0
100
AcDbArc
 50
90.0
 51
180.0
  0
LINE
  5
74
100
AcDbEntity
100
AcDbLine
  8
Z Stage
 62
256
370
-1
  6
ByLayer
 10
90.0
 20
300.0
 30
0.0
 11
240.0
 21
300.0
 31
0.0
  0
ARC
  5
75
100
AcDbEntity
  8
Z Stage
 62
256
370
-1
  6
ByLayer
100
AcDbCircle
 10
240.0
 20
290.0
 30
0.0
 40
10.0
100
AcDbArc
 50
0.0
 51
90.0
  0
LINE
  5
76
100
AcDbEntity
100
AcDbLine
  8
Z Stage
 62
256
370
-1
  6
ByLayer
 10
250.0
 20
290.0
 30
0.0
 11
250.0
 21
80.0
 31
0.0
  0
ARC
  5
77
100
AcDbEntity
  8
Z Stage
 62
256
370
-1
  6
ByLayer
100
AcDbCircle
 10
240.0
 20
80.0
 30
0.0
 40
10.0
100
AcDbArc
 50
270.0
 51
0.0
  0
LINE
  5
78
100
AcDbEntity
100
AcDbLine
  8
Z Stage
 62
256
370
-1
  6
ByLayer
 10
89.9999999999999858
 20
70.0
 30
0.0
 11
240.0
 21
70.0
 31
0.0
  0
LINE
  5
79
100
AcDbEntity
100
AcDbLine
  8
Z Stage
 62
256
370
-1
  6
ByLayer
 10
80.0
 20
290.0
 30
0.0
 11
79.9999999999999858
 21
80.0
 31
0.0
  0
ARC
  5
7A
100
AcDbEntity
  8
Z Stage
 62
256
370
-1
  6
ByLayer
100
AcDbCircle
 10
89.9999999999999858
 20
80.0
 30
0.0
 40
10.0
100
AcDbArc
 50
180.0
 51
270.0
  0
LINE
  5
7B
100
AcDbEntity
100
AcDbLine
  8
Z Drawing
 62
256
370
-1
  6
ByLayer
 10
89.9999999999999858
 20
85.0
 30
0.0
 11
240.0
 21
85.0
 31
0.0
  0
LINE
  5
7C
100
AcDbEntity
100
AcDbLine
  8
Z Drawing
 62
256
370
-1
  6
ByLayer
 10
90.0
 20
285.0
 30
0.0
 11
240.0
 21
285.0
 31
0.0
  0
LINE
  5
7D
100
AcDbEntity
100
AcDbLine
  8
Z Drawing
 62
256
370
-1
  6
ByLayer
 10
90.0
 20
285.0
 30
0.0
 11
89.9999999999999858
 21
85.0
 31
0.0
  0
LINE
  5
7E
100
AcDbEntity
100
AcDbLine
  8
Z Drawing
 62
256
370
-1
  6
ByLayer
 10
240.0
 20
85.0
 30
0.0
 11
240.0
 21
285.0
 31
0.0
  0
CIRCLE
  5
7F
100
AcDbEntity
100
AcDbCircle
  8
Z Stage
 62
256
370
-1
  6
ByLayer
 10
240.0
 20
285.0
 30
0.0
 40
3.1749999999999998
  0
CIRCLE
  5
80
100
AcDbEntity
100
AcDbCircle
  8
Z Stage
 62
256
370
-1
  6
ByLayer
 10
90.0
 20
285.0
 30
0.0
 40
3.1749999999999998
  0
CIRCLE
  5
81
100
AcDbEntity
100
AcDbCircle
  8
Z Stage
 62
256
370
-1
  6
ByLayer
 10
240.0
 20
85.0
 30
0.0
 40
3.1749999999999998
  0
CIRCLE
  5
82
100
AcDbEntity
100
AcDbCircle
  8
Z Stage
 62
256
370
-1
  6
ByLayer
 10
89.9999999999999858
 20
85.0
 30
0.0
 40
3.1749999999999998
  0
ARC
  5
83
100
AcDbEntity
  8
Vertical Base
 62
256
370
-1
  6
ByLayer
100
AcDbCircle
 10
95.0
 20
275.0
 30
0.0
 40
5.0
100
AcDbArc
 50
270.0
 51
0.0
  0
LINE
  5
84
100
AcDbEntity
100
AcDbLine
  8
Vertical Base
 62
256
370
-1
  6
ByLayer
 10
95.0
 20
270.0
 30
0.0
 11
85.0
 21
270.0
 31
0.0
  0
ARC
  5
85
100
AcDbEntity
  8
Vertical Base
 62
256
370
-1
  6
ByLayer
100
AcDbCircle
 10
85.0
 20
265.0
 30
0.0
 40
5.0
100
AcDbArc
 50
90.0
 51
180.0
  0
LINE
  5
86
100
AcDbEntity
100
AcDbLine
  8
Vertical Base
 62
256
370
-1
  6
ByLayer
 10
100.0
 20
275.0
 30
0.0
 11
100.0
 21
295.0
 31
0.0
  0
ARC
  5
87
100
AcDbEntity
  8
Vertical Base
 62
256
370
-1
  6
ByLayer
100
AcDbCircle
 10
105.0
 20
295.0
 30
0.0
 40
5.0
100
AcDbArc
 50
90.0
 51
180.0
  0
LINE
  5
88
100
AcDbEntity
100
AcDbLine
  8
Vertical Base
 62
256
370
-1
  6
ByLayer
 10
105.0
 20
300.0
 30
0.0
 11
225.0
 21
300.0
 31
0.0
  0
ARC
  5
89
100
AcDbEntity
  8
Vertical Base
 62
256
370
-1
  6
ByLayer
100
AcDbCircle
 10
225.0
 20
295.0
 30
0.0
 40
5.0
100
AcDbArc
 50
0.0
 51
90.0
  0
LINE
  5
8A
100
AcDbEntity
100
AcDbLine
  8
Vertical Base
 62
256
370
-1
  6
ByLayer
 10
230.0
 20
275.0
 30
0.0
 11
230.0
 21
295.0
 31
0.0
  0
ARC
  5
8B
100
AcDbEntity
  8
Vertical Base
 62
256
370
-1
  6
ByLayer
100
AcDbCircle
 10
235.0
 20
275.0
 30
0.0
 40
5.0
100
AcDbArc
 50
180.0
 51
270.0
  0
LINE
  5
8C
100
AcDbEntity
100
AcDbLine
  8
Vertical Base
 62
256
370
-1
  6
ByLayer
 10
245.0
 20
270.0
 30
0.0
 11
235.0
 21
270.0
 31
0.0
  0
ARC
  5
8D
100
AcDbEntity
  8
Vertical Base
 62
256
370
-1
  6
ByLayer
100
AcDbCircle
 10
245.0
 20
265.0
 30
0.0
 40
5.0
100
AcDbArc
 50
0.0
 51
90.0
  0
LINE
  5
8E
100
AcDbEntity
100
AcDbLine
  8
Vertical Base
 62
256
370
-1
  6
ByLayer
 10
250.0
 20
265.0
 30
0.0
 11
250.0
 21
105.0
 31
0.0
  0
ARC
  5
8F
100
AcDbEntity
  8
Vertical Base
 62
256
370
-1
  6
ByLayer
100
AcDbCircle
 10
245.0
 20
105.0
 30
0.0
 40
5.0
100
AcDbArc
 50
270.0
 51
0.0
  0
LINE
  5
90
100
AcDbEntity
100
AcDbLine
  8
Vertical Base
 62
256
370
-1
  6
ByLayer
 10
245.0
 20
100.0
 30
0.0
 11
235.0
 21
100.0
 31
0.0
  0
ARC
  5
91
100
AcDbEntity
  8
Vertical Base
 62
256
370
-1
  6
ByLayer
100
AcDbCircle
 10
235.0
 20
95.0
 30
0.0
 40
5.0
100
AcDbArc
 50
90.0
 51
180.0
  0
LINE
  5
92
100
AcDbEntity
100
AcDbLine
  8
Vertical Base
 62
256
370
-1
  6
ByLayer
 10
230.0
 20
95.0
 30
0.0
 11
230.0
 21
75.0
 31
0.0
  0
ARC
  5
93
100
AcDbEntity
  8
Vertical Base
 62
256
370
-1
  6
ByLayer
100
AcDbCircle
 10
225.0
 20
75.0
 30
0.0
 40
5.0
100
AcDbArc
 50
270.0
 51
0.0
  0
LINE
  5
94
100
AcDbEntity
100
AcDbLine
  8
Vertical Base
 62
256
370
-1
  6
ByLayer
 10
105.0
 20
70.0
 30
0.0
 11
225.0
 21
70.0
 31
0.0
  0
ARC
  5
95
100
AcDbEntity
  8
Vertical Base
 62
256
370
-1
  6
ByLayer
100
AcDbCircle
 10
105.0
 20
75.0
 30
0.0
 40
5.0
100
AcDbArc
 50
180.0
 51
270.0
  0
LINE
  5
96
100
AcDbEntity
100
AcDbLine
  8
Vertical Base
 62
256
370
-1
  6
ByLayer
 10
100.0
 20
95.0
 30
0.0
 11
100.0
 21
75.0
 31
0.0
  0
ARC
  5
97
100
AcDbEntity
  8
Vertical Base
 62
256
370
-1
  6
ByLayer
100
AcDbCircle
 10
95.0
 20
95.0
 30
0.0
 40
5.0
100
AcDbArc
 50
0.0
 51
90.0
  0
LINE
  5
98
100
AcDbEntity
100
AcDbLine
  8
Vertical Base
 62
256
370
-1
  6
ByLayer
 10
80.0
 20
265.0
 30
0.0
 11
80.0
 21
105.0
 31
0.0
  0
LINE
  5
99
100
AcDbEntity
100
AcDbLine
  8
Vertical Base
 62
256
370
-1
  6
ByLayer
 10
85.0
 20
100.0
 30
0.0
 11
95.0
 21
100.0
 31
0.0
  0
ARC
  5
9A
100
AcDbEntity
  8
Vertical Base
 62
256
370
-1
  6
ByLayer
100
AcDbCircle
 10
85.0
 20
105.0
 30
0.0
 40
5.0
100
AcDbArc
 50
180.0
 51
270.0
  0
CIRCLE
  5
9B
100
AcDbEntity
100
AcDbCircle
  8
Vertical Base
 62
256
370
-1
  6
ByLayer
 10
148.5945903614458814
 20
280.3871311914326157
 30
0.0
 40
1.7
  0
CIRCLE
  5
9C
100
AcDbEntity
100
AcDbCircle
  8
Vertical Base
 62
256
370
-1
  6
ByLayer
 10
167.6445903614458928
 20
280.3871311914326157
 30
0.0
 40
1.7
  0
LINE
  5
9D
100
AcDbEntity
100
AcDbLine
  8
Z Stage
 62
256
370
-1
  6
ByLayer
 10
157.1195903614458587
 20
276.2121311914326611
 30
0.0
 11
159.1195903614462566
 21
276.2121311914325474
 31
0.0
  0
LINE
  5
9E
100
AcDbEntity
100
AcDbLine
  8
Z Stage
 62
256
370
-1
  6
ByLayer
 10
157.1195903614458587
 20
284.5621311914325702
 30
0.0
 11
157.1195903614458587
 21
276.2121311914326611
 31
0.0
  0
LINE
  5
9F
100
AcDbEntity
100
AcDbLine
  8
Z Stage
 62
256
370
-1
  6
ByLayer
 10
157.1195903614458587
 20
284.5621311914325702
 30
0.0
 11
159.1195903614458587
 21
284.5621311914325702
 31
0.0
  0
LINE
  5
A0
100
AcDbEntity
100
AcDbLine
  8
Z Stage
 62
256
370
-1
  6
ByLayer
 10
159.1195903614458587
 20
284.5621311914325702
 30
0.0
 11
159.1195903614462566
 21
276.2121311914325474
 31
0.0
  0
LINE
  5
A1
100
AcDbEntity
100
AcDbLine
  8
Opto Endstop
 62
256
370
-1
  6
ByLayer
 10
144.1495903614458882
 20
293.722131191432652
 30
0.0
 11
144.1495903614458882
 21
274.6721311914326407
 31
0.0
  0
LINE
  5
A2
100
AcDbEntity
100
AcDbLine
  8
Opto Endstop
 62
256
370
-1
  6
ByLayer
 10
172.0895903614458859
 20
293.7221311914325383
 30
0.0
 11
172.0895903614458291
 21
274.672131191432527
 31
0.0
  0
LINE
  5
A3
100
AcDbEntity
100
AcDbLine
  8
Opto Endstop
 62
256
370
-1
  6
ByLayer
 10
144.1495903614458882
 20
274.6721311914326407
 30
0.0
 11
172.0895903614458291
 21
274.672131191432527
 31
0.0
  0
LINE
  5
A4
100
AcDbEntity
100
AcDbLine
  8
Opto Endstop
 62
256
370
-1
  6
ByLayer
 10
144.1495903614458882
 20
283.562131191432627
 30
0.0
 11
172.0895903614458859
 21
283.5621311914325133
 31
0.0
  0
LINE
  5
A5
100
AcDbEntity
100
AcDbLine
  8
Opto Endstop
 62
256
370
-1
  6
ByLayer
 10
144.1495903614458882
 20
277.2121311914326043
 30
0.0
 11
172.0895903614458859
 21
277.2121311914325474
 31
0.0
  0
LINE
  5
A6
100
AcDbEntity
100
AcDbLine
  8
Opto Endstop
 62
256
370
-1
  6
ByLayer
 10
156.4695903614458814
 20
283.5621311914325702
 30
0.0
 11
156.4695903614458246
 21
277.2121311914326611
 31
0.0
  0
LINE
  5
A7
100
AcDbEntity
100
AcDbLine
  8
Opto Endstop
 62
256
370
-1
  6
ByLayer
 10
159.7695903614458928
 20
283.5621311914325133
 30
0.0
 11
159.7695903614458928
 21
277.2121311914325474
 31
0.0
  0
LINE
  5
A8
100
AcDbEntity
100
AcDbLine
  8
Opto Endstop
 62
256
370
-1
  6
ByLayer
 10
144.1495903614458882
 20
293.722131191432652
 30
0.0
 11
172.0895903614458859
 21
293.7221311914325383
 31
0.0
  0
LINE
  5
A9
100
AcDbEntity
100
AcDbLine
  8
Opto Endstop
 62
256
370
-1
  6
ByLayer
 10
152.1195903614458587
 20
283.562131191432627
 30
0.0
 11
152.1195903614458018
 21
277.2121311914326611
 31
0.0
  0
LINE
  5
AA
100
AcDbEntity
100
AcDbLine
  8
Opto Endstop
 62
256
370
-1
  6
ByLayer
 10
164.1195903614459155
 20
283.5621311914325133
 30
0.0
 11
164.1195903614458587
 21
277.2121311914326043
 31
0.0
  0
LINE
  5
AB
100
AcDbEntity
100
AcDbLine
  8
Opto Endstop
 62
256
370
-1
  6
ByLayer
 10
158.1195903614459155
 20
293.722131191432652
 30
0.0
 11
168.1195903614459155
 21
293.7221311914325952
 31
0.0
  0
LINE
  5
AC
100
AcDbEntity
100
AcDbLine
  8
Opto Endstop
 62
256
370
-1
  6
ByLayer
 10
168.1195903614459155
 20
293.7221311914325952
 30
0.0
 11
168.1195903614459155
 21
290.387131191432502
 31
0.0
  0
LINE
  5
AD
100
AcDbEntity
100
AcDbLine
  8
Opto Endstop
 62
256
370
-1
  6
ByLayer
 10
168.1195903614459155
 20
290.387131191432502
 30
0.0
 11
158.1195903614459155
 21
290.387131191432502
 31
0.0
  0
LINE
  5
AE
100
AcDbEntity
100
AcDbLine
  8
Opto Endstop
 62
256
370
-1
  6
ByLayer
 10
158.1195903614459155
 20
290.387131191432502
 30
0.0
 11
158.1195903614459155
 21
293.722131191432652
 31
0.0
  0
LINE
  5
AF
100
AcDbEntity
100
AcDbLine
  8
Opto Endstop
 62
256
370
-1
  6
ByLayer
 10
159.1195903614456029
 20
293.3871311914326157
 30
0.0
 11
167.1195903614459155
 21
293.3871311914325588
 31
0.0
  0
LINE
  5
B0
100
AcDbEntity
100
AcDbLine
  8
Opto Endstop
 62
256
370
-1
  6
ByLayer
 10
167.1195903614459155
 20
293.3871311914325588
 30
0.0
 11
167.1195903614459155
 21
296.387131191432502
 31
0.0
  0
LINE
  5
B1
100
AcDbEntity
100
AcDbLine
  8
Opto Endstop
 62
256
370
-1
  6
ByLayer
 10
167.1195903614459155
 20
296.387131191432502
 30
0.0
 11
159.119590361445205
 21
296.3871311914326157
 31
0.0
  0
LINE
  5
B2
100
AcDbEntity
100
AcDbLine
  8
Opto Endstop
 62
256
370
-1
  6
ByLayer
 10
159.119590361445205
 20
296.3871311914326157
 30
0.0
 11
159.1195903614456029
 21
293.3871311914326157
 31
0.0
  0
LINE
  5
B3
100
AcDbEntity
100
AcDbLine
  8
Opto Endstop
 62
256
370
-1
  6
ByLayer
 10
158.1195903614458587
 20
283.5621311914325702
 30
0.0
 11
158.1195903614458587
 21
277.2121311914326611
 31
0.0
  0
CIRCLE
  5
B4
100
AcDbEntity
100
AcDbCircle
  8
Z Drawing
 62
256
370
-1
  6
ByLayer
 10
178.0999999999999943
 20
250.0
 30
0.0
 40
10.0
  0
LINE
  5
B5
100
AcDbEntity
100
AcDbLine
  8
Z Drive
 62
256
370
-1
  6
ByLayer
 10
195.5000000000000284
 20
300.0
 30
0.0
 11
195.5000000000000284
 21
70.0
 31
0.0
  0
LINE
  5
B6
100
AcDbEntity
100
AcDbLine
  8
Z Drive
 62
256
370
-1
  6
ByLayer
 10
201.8500000000000227
 20
300.0
 30
0.0
 11
201.8500000000000227
 21
70.0
 31
0.0
  0
LINE
  5
B7
100
AcDbEntity
100
AcDbLine
  8
Z Drive
 62
256
370
-1
  6
ByLayer
 10
198.6750000000000114
 20
300.0
 30
0.0
 11
198.6750000000000114
 21
70.0
 31
0.0
  0
LINE
  5
B8
100
AcDbEntity
100
AcDbLine
  8
Z Drive
 62
256
370
-1
  6
ByLayer
 10
201.8500000000000227
 20
70.0
 30
0.0
 11
195.5000000000000284
 21
70.0
 31
0.0
  0
LINE
  5
B9
100
AcDbEntity
100
AcDbLine
  8
Z Drive
 62
256
370
-1
  6
ByLayer
 10
195.5000000000000284
 20
300.0
 30
0.0
 11
201.8500000000000227
 21
300.0
 31
0.0
  0
LINE
  5
BA
100
AcDbEntity
100
AcDbLine
  8
Z Drive
 62
256
370
-1
  6
ByLayer
 10
193.1150000000000091
 20
184.9999999999999716
 30
0.0
 11
193.1150000000000091
 21
179.4399999999999693
 31
0.0
  0
LINE
  5
BB
100
AcDbEntity
100
AcDbLine
  8
Z Drive
 62
256
370
-1
  6
ByLayer
 10
193.1150000000000091
 20
184.9999999999999716
 30
0.0
 11
204.2350000000000136
 21
184.9999999999999716
 31
0.0
  0
LINE
  5
BC
100
AcDbEntity
100
AcDbLine
  8
Z Drive
 62
256
370
-1
  6
ByLayer
 10
204.2350000000000136
 20
184.9999999999999716
 30
0.0
 11
204.2350000000000136
 21
179.4399999999999693
 31
0.0
  0
LINE
  5
BD
100
AcDbEntity
100
AcDbLine
  8
Z Drive
 62
256
370
-1
  6
ByLayer
 10
193.1150000000000091
 20
179.4399999999999693
 30
0.0
 11
204.2350000000000136
 21
179.4399999999999693
 31
0.0
  0
CIRCLE
  5
BE
100
AcDbEntity
100
AcDbCircle
  8
Z Stage
 62
256
370
-1
  6
ByLayer
 10
192.6705000000000041
 20
182.2199999999999704
 30
0.0
 40
0.4445
  0
CIRCLE
  5
BF
100
AcDbEntity
100
AcDbCircle
  8
Z Stage
 62
256
370
-1
  6
ByLayer
 10
204.6795000000000186
 20
182.2199999999999704
 30
0.0
 40
0.4445
  0
CIRCLE
  5
C0
100
AcDbEntity
100
AcDbCircle
  8
Z Stage
 62
256
370
-1
  6
ByLayer
 10
194.2403293721087039
 20
185.4444999999999766
 30
0.0
 40
0.4445
  0
CIRCLE
  5
C1
100
AcDbEntity
100
AcDbCircle
  8
Z Stage
 62
256
370
-1
  6
ByLayer
 10
203.0829345327877036
 20
185.4444999999999766
 30
0.0
 40
0.4445
  0
LINE
  5
C2
100
AcDbEntity
100
AcDbLine
  8
Z Drawing
 62
256
370
-1
  6
ByLayer
 10
160.0
 20
306.3500000000000227
 30
0.0
 11
160.0
 21
300.0
 31
0.0
  0
LINE
  5
C3
100
AcDbEntity
100
AcDbLine
  8
Z Drawing
 62
256
370
-1
  6
ByLayer
 10
230.0
 20
306.3500000000000227
 30
0.0
 11
230.0
 21
300.0
 31
0.0
  0
LINE
  5
C4
100
AcDbEntity
100
AcDbLine
  8
Z Drawing
 62
256
370
-1
  6
ByLayer
 10
160.0
 20
306.3500000000000227
 30
0.0
 11
230.0
 21
306.3500000000000227
 31
0.0
  0
ENDSEC
  0
SECTION
  2
OBJECTS
  0
DICTIONARY
  5
C
100
AcDbDictionary
280
0
281
1
  3
ACAD_GROUP
350
D
  3
ACAD_LAYOUT
350
1A
  3
ACAD_MLINESTYLE
350
17
  3
ACAD_PLOTSETTINGS
350
19
  3
ACAD_PLOTSTYLENAME
350
E
  3
AcDbVariableDictionary
350
C5
  0
DICTIONARY
  5
D
100
AcDbDictionary
280
0
281
1
  0
ACDBDICTIONARYWDFLT
  5
E
100
AcDbDictionary
281
1
  3
Normal
350
F
100
AcDbDictionaryWithDefault
340
F
  0
ACDBPLACEHOLDER
  5
F
  0
DICTIONARY
  5
17
100
AcDbDictionary
280
0
281
1
  3
Standard
350
18
  0
MLINESTYLE
  5
18
100
AcDbMlineStyle
  2
STANDARD
 70
0
  3

 62
256
 51
90.0
 52
90.0
 71
2
 49
0.5
 62
256
  6
BYLAYER
 49
-0.5
 62
256
  6
BYLAYER
  0
DICTIONARY
  5
19
100
AcDbDictionary
280
0
281
1
  0
DICTIONARY
  5
1A
100
AcDbDictionary
281
1
  3
Layout1
350
1E
  3
Layout2
350
26
  3
Model
350
22
  0
LAYOUT
  5
1E
100
AcDbPlotSettings
  1

  2
C:\Program Files\AutoCAD 2002\plotters\DWF ePlot (optimized for plotting).pc3
  4

  6

 40
0.0
 41
0.0
 42
0.0
 43
0.0
 44
0.0
 45
0.0
 46
0.0
 47
0.0
 48
0.0
 49
0.0
140
0.0
141
0.0
142
1.0
143
1.0
 70
688
 72
0
 73
0
 74
5
  7

 75
16
147
1.0
148
0.0
149
0.0
100
AcDbLayout
  1
Layout1
 70
1
 71
1
 10
0.0
 20
0.0
 11
420.0
 21
297.0
 12
0.0
 22
0.0
 32
0.0
 14
100000000000000000000.0
 24
100000000000000000000.0
 34
100000000000000000000.0
 15
-100000000000000000000.0
 25
-100000000000000000000.0
 35
-100000000000000000000.0
146
0.0
 13
0.0
 23
0.0
 33
0.0
 16
1.0
 26
0.0
 36
0.0
 17
0.0
 27
1.0
 37
0.0
 76
0
330
1B
  0
LAYOUT
  5
22
100
AcDbPlotSettings
  1

  2
C:\Program Files\AutoCAD 2002\plotters\DWF ePlot (optimized for plotting).pc3
  4

  6

 40
0.0
 41
0.0
 42
0.0
 43
0.0
 44
0.0
 45
0.0
 46
0.0
 47
0.0
 48
0.0
 49
0.0
140
0.0
141
0.0
142
1.0
143
1.0
 70
1712
 72
0
 73
0
 74
0
  7

 75
0
147
1.0
148
0.0
149
0.0
100
AcDbLayout
  1
Model
 70
1
 71
0
 10
0.0
 20
0.0
 11
12.0
 21
9.0
 12
0.0
 22
0.0
 32
0.0
 14
0.0
 24
0.0
 34
0.0
 15
0.0
 25
0.0
 35
0.0
146
0.0
 13
0.0
 23
0.0
 33
0.0
 16
1.0
 26
0.0
 36
0.0
 17
0.0
 27
1.0
 37
0.0
 76
0
330
1F
  0
LAYOUT
  5
26
100
AcDbPlotSettings
  1

  2
C:\Program Files\AutoCAD 2002\plotters\DWF ePlot (optimized for plotting).pc3
  4

  6

 40
0.0
 41
0.0
 42
0.0
 43
0.0
 44
0.0
 45
0.0
 46
0.0
 47
0.0
 48
0.0
 49
0.0
140
0.0
141
0.0
142
1.0
143
1.0
 70
688
 72
0
 73
0
 74
5
  7

 75
16
147
1.0
148
0.0
149
0.0
100
AcDbLayout
  1
Layout2
 70
1
 71
2
 10
0.0
 20
0.0
 11
12.0
 21
9.0
 12
0.0
 22
0.0
 32
0.0
 14
0.0
 24
0.0
 34
0.0
 15
0.0
 25
0.0
 35
0.0
146
0.0
 13
0.0
 23
0.0
 33
0.0
 16
1.0
 26
0.0
 36
0.0
 17
0.0
 27
1.0
 37
0.0
 76
0
330
23
  0
DICTIONARY
  5
C5
100
AcDbDictionary
281
1
  3
DIMASSOC
350
C7
  3
HIDETEXT
350
C6
  0
DICTIONARYVAR
  5
C6
100
DictionaryVariables
280
0
  1
2
  0
DICTIONARYVAR
  5
C7
100
DictionaryVariables
280
0
  1
1
  0
ENDSEC
  0
EOF
