G04 (Genere par PCBNEW (2007-01-15)) le 18/3/2007-22:30:45*
G01*
G70*
G90*
%MOIN*%
G04 Gerber Fmt 3.4, Leading zero omitted, Abs format*
%FSLAX34Y34*%
G04 APERTURE LIST*
%ADD10C,0.015000*%
%ADD11R,0.055000X0.055000*%
%ADD12C,0.055000*%
%ADD13C,0.080000*%
%ADD14R,0.080000X0.080000*%
%ADD15R,0.070000X0.070000*%
%ADD16C,0.070000*%
%ADD17C,0.080000*%
%ADD18C,0.040000*%
%ADD19C,0.001000*%
%ADD20C,0.012000*%
%ADD21C,0.015000*%
%ADD22C,0.005000*%
%ADD23C,0.008000*%
%ADD24C,0.010000*%
G04 APERTURE END LIST*
G54D10*
X83100Y-47400D02*
X43100Y-47400D01*
X43100Y-22400D02*
X83100Y-22400D01*
X43100Y-47400D02*
X43100Y-22400D01*
X83100Y-22400D02*
X83100Y-47400D01*
G54D14*
X51200Y-24500D03*
G54D13*
X50200Y-24500D03*
G54D14*
X64900Y-23700D03*
G54D13*
X65900Y-23700D03*
G54D14*
X68200Y-23700D03*
G54D13*
X69200Y-23700D03*
G54D14*
X58900Y-23700D03*
G54D13*
X57900Y-23700D03*
X56900Y-23700D03*
G54D14*
X55200Y-23700D03*
G54D13*
X54200Y-23700D03*
X53200Y-23700D03*
G54D14*
X67800Y-37900D03*
G54D13*
X67800Y-38900D03*
X67800Y-39900D03*
X67800Y-40900D03*
X67800Y-41900D03*
G54D14*
X71700Y-23700D03*
G54D13*
X70700Y-23700D03*
G54D14*
X73700Y-23700D03*
G54D13*
X72700Y-23700D03*
G54D14*
X61500Y-24500D03*
G54D13*
X60500Y-24500D03*
X46700Y-37300D03*
X46700Y-38300D03*
G54D14*
X46700Y-39300D03*
G54D13*
X46700Y-32900D03*
X46700Y-33900D03*
G54D14*
X46700Y-34900D03*
X44600Y-34900D03*
G54D13*
X44600Y-32900D03*
G54D14*
X44600Y-39300D03*
G54D13*
X44600Y-37300D03*
G54D14*
X44600Y-44500D03*
G54D13*
X44600Y-42500D03*
G54D11*
X81500Y-41000D03*
G54D12*
X81500Y-43000D03*
G54D11*
X75800Y-23700D03*
G54D12*
X77800Y-23700D03*
X79800Y-23700D03*
X81800Y-23700D03*
G54D13*
X46700Y-42500D03*
X46700Y-43500D03*
G54D14*
X46700Y-44500D03*
G54D13*
X48500Y-45500D03*
X48500Y-42500D03*
X49000Y-40700D03*
X49000Y-37700D03*
X50400Y-35700D03*
X50400Y-32700D03*
X48200Y-26500D03*
X51200Y-26500D03*
X58900Y-29600D03*
X58900Y-26600D03*
X53400Y-28000D03*
X53400Y-25000D03*
X55900Y-28000D03*
X55900Y-25000D03*
X60800Y-29600D03*
X60800Y-26600D03*
X62900Y-27100D03*
X62900Y-24100D03*
G54D14*
X46400Y-31300D03*
G54D13*
X46400Y-30300D03*
X46400Y-29300D03*
X46400Y-28300D03*
X46400Y-27300D03*
X46400Y-26300D03*
X46400Y-25300D03*
X59000Y-45500D03*
X59000Y-43500D03*
X66200Y-26600D03*
X69200Y-26600D03*
X66200Y-25100D03*
X69200Y-25100D03*
X64100Y-25400D03*
X64100Y-28400D03*
G54D14*
X67300Y-27900D03*
G54D13*
X67300Y-28900D03*
G54D14*
X71400Y-40100D03*
G54D13*
X71900Y-38100D03*
X72400Y-40100D03*
X72900Y-38100D03*
X73400Y-40100D03*
X73900Y-38100D03*
X74400Y-40100D03*
X74900Y-38100D03*
X75400Y-40100D03*
X75900Y-38100D03*
X76400Y-40100D03*
X76900Y-38100D03*
X77400Y-40100D03*
X77900Y-38100D03*
X78400Y-40100D03*
G54D14*
X60500Y-41100D03*
G54D13*
X60500Y-40100D03*
X60500Y-39100D03*
X60500Y-38100D03*
X60500Y-37100D03*
X60500Y-36100D03*
X60500Y-35100D03*
X60500Y-34100D03*
X60500Y-33100D03*
X57500Y-33100D03*
X57500Y-34100D03*
X57500Y-35100D03*
X57500Y-36100D03*
X57500Y-37100D03*
X57500Y-38100D03*
X57500Y-39100D03*
X57500Y-40100D03*
X57500Y-41100D03*
G54D15*
X78400Y-45700D03*
G54D16*
X78400Y-43700D03*
G54D15*
X65000Y-45500D03*
G54D16*
X65000Y-43500D03*
X78500Y-29600D03*
G54D15*
X82500Y-29600D03*
G54D16*
X78500Y-31000D03*
G54D15*
X82500Y-31000D03*
G54D16*
X78500Y-28200D03*
G54D15*
X82500Y-28200D03*
G54D16*
X78500Y-32400D03*
G54D15*
X82500Y-32400D03*
G54D16*
X70300Y-29600D03*
G54D15*
X74300Y-29600D03*
G54D16*
X70300Y-31000D03*
G54D15*
X74300Y-31000D03*
G54D16*
X70300Y-28200D03*
G54D15*
X74300Y-28200D03*
G54D16*
X70300Y-32400D03*
G54D15*
X74300Y-32400D03*
G54D11*
X69200Y-45600D03*
G54D12*
X69200Y-44600D03*
X68200Y-44600D03*
X79800Y-25700D03*
X81800Y-25700D03*
X75800Y-25700D03*
X77800Y-25700D03*
G54D13*
X82100Y-27000D03*
X44094Y-23622D03*
X44094Y-46457D03*
X82100Y-46500D03*
X76600Y-43800D03*
X70900Y-38400D03*
X76400Y-35800D03*
X55800Y-44400D03*
X69200Y-42000D03*
X69200Y-35800D03*
X75900Y-36700D03*
X64000Y-41000D03*
X67000Y-32300D03*
X67000Y-33900D03*
X74400Y-41100D03*
X66100Y-31400D03*
X66100Y-33900D03*
X73400Y-41800D03*
X61700Y-38100D03*
X50200Y-43500D03*
X67300Y-31300D03*
X62400Y-30700D03*
X62500Y-36100D03*
X55900Y-39100D03*
X56500Y-29600D03*
X47700Y-30300D03*
X52500Y-31500D03*
X67000Y-23700D03*
X62500Y-40100D03*
X69100Y-34800D03*
X56300Y-41100D03*
X70700Y-26600D03*
X64300Y-35100D03*
X65100Y-34100D03*
X73100Y-25300D03*
X75400Y-43900D03*
X51300Y-36900D03*
X78400Y-34800D03*
X73000Y-34800D03*
X75700Y-32400D03*
X75700Y-27200D03*
X71900Y-34700D03*
X72400Y-42700D03*
X79500Y-39000D03*
X77000Y-31000D03*
X63200Y-39100D03*
X63200Y-29600D03*
X56500Y-38100D03*
X62900Y-25200D03*
X47700Y-23600D03*
X52800Y-30600D03*
X52200Y-29700D03*
G54D18*
X67800Y-37300D02*
X67800Y-37900D01*
X70800Y-37300D02*
X67800Y-37300D01*
X49800Y-46800D02*
X48500Y-45500D01*
X75300Y-46800D02*
X49800Y-46800D01*
X76500Y-45600D02*
X75300Y-46800D01*
X76500Y-43900D02*
X76500Y-45600D01*
X76600Y-43800D02*
X76500Y-43900D01*
X70800Y-38300D02*
X70800Y-37300D01*
X70900Y-38400D02*
X70800Y-38300D01*
X76400Y-35800D02*
X70200Y-35800D01*
X65900Y-44400D02*
X55800Y-44400D01*
X67400Y-42900D02*
X65900Y-44400D01*
X68300Y-42900D02*
X67400Y-42900D01*
X69200Y-42000D02*
X68300Y-42900D01*
X55800Y-44400D02*
X49300Y-44400D01*
X49200Y-41100D02*
X49000Y-40700D01*
X49300Y-41300D02*
X49200Y-41100D01*
X49300Y-44400D02*
X49300Y-41300D01*
X70200Y-35800D02*
X69200Y-35800D01*
X66600Y-39900D02*
X67800Y-39900D01*
X66600Y-36700D02*
X66600Y-39900D01*
X75900Y-36700D02*
X66600Y-36700D01*
X65200Y-39900D02*
X66600Y-39900D01*
X64000Y-41000D02*
X65100Y-41000D01*
X65200Y-40900D02*
X65200Y-39900D01*
X65100Y-41000D02*
X65200Y-40900D01*
X67000Y-33900D02*
X67000Y-32300D01*
X68700Y-40000D02*
X67800Y-40900D01*
X70000Y-40000D02*
X68700Y-40000D01*
X71100Y-41100D02*
X70000Y-40000D01*
X74400Y-41100D02*
X73700Y-41100D01*
X73700Y-41100D02*
X71100Y-41100D01*
X74400Y-41100D02*
X73700Y-41100D01*
X66100Y-33900D02*
X66100Y-31400D01*
X68900Y-40800D02*
X67800Y-41900D01*
X69900Y-40800D02*
X68900Y-40800D01*
X70900Y-41800D02*
X69900Y-40800D01*
X73400Y-41800D02*
X70900Y-41800D01*
X54100Y-25700D02*
X53400Y-25000D01*
X54600Y-25700D02*
X54100Y-25700D01*
X53000Y-41900D02*
X53000Y-35500D01*
X61700Y-41900D02*
X53000Y-41900D01*
X61700Y-38100D02*
X61700Y-41900D01*
X54600Y-32800D02*
X54600Y-29200D01*
X54600Y-29200D02*
X54600Y-27500D01*
X54600Y-27500D02*
X54600Y-25700D01*
X53000Y-35500D02*
X53000Y-35200D01*
X54600Y-33600D02*
X54600Y-32800D01*
X53000Y-35200D02*
X54600Y-33600D01*
X70000Y-31300D02*
X70300Y-31000D01*
X67400Y-31300D02*
X68700Y-31300D01*
X68700Y-31300D02*
X70000Y-31300D01*
X67300Y-31400D02*
X67400Y-31300D01*
G54D17*
X59000Y-43500D02*
X57300Y-43500D01*
X56700Y-43500D02*
X50200Y-43500D01*
X57300Y-43500D02*
X56700Y-43500D01*
G54D18*
X67300Y-31300D02*
X68700Y-31300D01*
X62400Y-36000D02*
X62400Y-30700D01*
X62500Y-36100D02*
X62400Y-36000D01*
X55800Y-36900D02*
X55800Y-30900D01*
X55800Y-30900D02*
X55800Y-30300D01*
X55800Y-30300D02*
X56500Y-29600D01*
X51000Y-31400D02*
X48100Y-31400D01*
X48100Y-31400D02*
X47700Y-31000D01*
X47700Y-31000D02*
X47700Y-30300D01*
X51000Y-31400D02*
X52300Y-31400D01*
X52300Y-31400D02*
X52500Y-31500D01*
X55900Y-39100D02*
X55900Y-39000D01*
X55800Y-38900D02*
X55800Y-36900D01*
X55900Y-39000D02*
X55800Y-38900D01*
X67200Y-26600D02*
X66200Y-26600D01*
X67200Y-24400D02*
X67200Y-25000D01*
X67200Y-25000D02*
X67200Y-26600D01*
X67200Y-25000D02*
X67200Y-23900D01*
X67200Y-23900D02*
X67000Y-23700D01*
X63900Y-36000D02*
X63900Y-40100D01*
X63900Y-40100D02*
X62500Y-40100D01*
X64100Y-35800D02*
X63900Y-36000D01*
X68100Y-35800D02*
X64100Y-35800D01*
X69100Y-34800D02*
X68100Y-35800D01*
X62500Y-40100D02*
X62500Y-42100D01*
X52200Y-35700D02*
X50400Y-35700D01*
X62500Y-42100D02*
X62500Y-42600D01*
X62500Y-42600D02*
X52200Y-42600D01*
X52200Y-42600D02*
X52200Y-35700D01*
X55200Y-41100D02*
X55800Y-41100D01*
X56300Y-41100D02*
X55800Y-41100D01*
X55200Y-25800D02*
X55200Y-41100D01*
X65400Y-29900D02*
X65400Y-27200D01*
X67600Y-29900D02*
X65400Y-29900D01*
X65400Y-27200D02*
X65400Y-26400D01*
X56800Y-25800D02*
X55200Y-25800D01*
X57100Y-25500D02*
X56800Y-25800D01*
X61500Y-25500D02*
X57100Y-25500D01*
X62200Y-26200D02*
X61500Y-25500D01*
X63500Y-26200D02*
X62200Y-26200D01*
X63700Y-26400D02*
X63500Y-26200D01*
X65400Y-26400D02*
X63700Y-26400D01*
X67600Y-29900D02*
X68600Y-29900D01*
X68800Y-27000D02*
X69200Y-26600D01*
X68800Y-29700D02*
X68800Y-27000D01*
X68600Y-29900D02*
X68800Y-29700D01*
X68100Y-30500D02*
X64800Y-30500D01*
X70700Y-26600D02*
X70600Y-26600D01*
X70600Y-26600D02*
X70600Y-27300D01*
X70500Y-27400D02*
X69400Y-27400D01*
X70600Y-27300D02*
X70500Y-27400D01*
X64800Y-30500D02*
X64300Y-30500D01*
X64300Y-30500D02*
X64300Y-35100D01*
X69400Y-27400D02*
X69400Y-30400D01*
X69300Y-30500D02*
X68100Y-30500D01*
X69400Y-30400D02*
X69300Y-30500D01*
X65100Y-35100D02*
X65100Y-34100D01*
X67500Y-35100D02*
X65100Y-35100D01*
X68700Y-33900D02*
X67500Y-35100D01*
X71000Y-33900D02*
X68700Y-33900D01*
X71000Y-31500D02*
X71000Y-33900D01*
X73100Y-29400D02*
X71000Y-31500D01*
X73100Y-27400D02*
X73100Y-29400D01*
X73100Y-25300D02*
X73100Y-27400D01*
G54D17*
X68200Y-44100D02*
X68200Y-44600D01*
X68900Y-43400D02*
X68200Y-44100D01*
X70600Y-43400D02*
X68900Y-43400D01*
X71200Y-44000D02*
X70600Y-43400D01*
X75300Y-44000D02*
X71200Y-44000D01*
X75400Y-43900D02*
X75300Y-44000D01*
G54D18*
X55900Y-28000D02*
X58900Y-28000D01*
X58900Y-28000D02*
X58900Y-29600D01*
X53400Y-28000D02*
X53400Y-27000D01*
X44100Y-25700D02*
X44100Y-30300D01*
X49200Y-24500D02*
X45400Y-24500D01*
X52200Y-23400D02*
X49200Y-23400D01*
X49200Y-23400D02*
X49200Y-24500D01*
X52200Y-24100D02*
X52200Y-23400D01*
X52200Y-26200D02*
X52200Y-24100D01*
X52600Y-26600D02*
X52200Y-26200D01*
X53000Y-26600D02*
X52600Y-26600D01*
X53400Y-27000D02*
X53000Y-26600D01*
X44100Y-30300D02*
X44100Y-30300D01*
X44100Y-30300D02*
X44700Y-30300D01*
X44700Y-30300D02*
X45200Y-30300D01*
X45200Y-30300D02*
X45100Y-30300D01*
X45900Y-30300D02*
X46400Y-30300D01*
X45100Y-30300D02*
X45900Y-30300D01*
X44700Y-30300D02*
X45200Y-30300D01*
G54D17*
X43700Y-30300D02*
X46400Y-30300D01*
X43700Y-36200D02*
X43700Y-30300D01*
X49100Y-36200D02*
X43700Y-36200D01*
X49300Y-36400D02*
X49100Y-36200D01*
X49300Y-36500D02*
X49300Y-36400D01*
X49700Y-36900D02*
X49300Y-36500D01*
X51300Y-36900D02*
X49700Y-36900D01*
G54D18*
X45400Y-24500D02*
X45300Y-24500D01*
X45300Y-24500D02*
X44100Y-25700D01*
G54D17*
X50200Y-24500D02*
X49800Y-26900D01*
X53800Y-30100D02*
X53800Y-31900D01*
X51400Y-33900D02*
X46700Y-33900D01*
X53800Y-31900D02*
X53000Y-32600D01*
X53000Y-33900D02*
X51400Y-33900D01*
X53000Y-32600D02*
X53000Y-33900D01*
X53800Y-30100D02*
X53400Y-29300D01*
X49900Y-27500D02*
X49800Y-26900D01*
X51500Y-27500D02*
X49900Y-27500D01*
X53400Y-29300D02*
X51500Y-27500D01*
X73000Y-34800D02*
X78400Y-34800D01*
X75700Y-31800D02*
X75700Y-32400D01*
X75700Y-27200D02*
X75700Y-31800D01*
X71900Y-32400D02*
X74300Y-32400D01*
X71900Y-34700D02*
X71900Y-32400D01*
X78500Y-28200D02*
X80800Y-28200D01*
X80800Y-28200D02*
X81000Y-28400D01*
X81000Y-28400D02*
X81000Y-39300D01*
X81000Y-39300D02*
X77600Y-42700D01*
X77600Y-42700D02*
X72400Y-42700D01*
X79750Y-31000D02*
X79800Y-31000D01*
X79800Y-31000D02*
X79600Y-31000D01*
X79600Y-31000D02*
X79500Y-31000D01*
X79500Y-31000D02*
X78500Y-31000D01*
X79750Y-38750D02*
X79750Y-31000D01*
X79500Y-39000D02*
X79750Y-38750D01*
X79800Y-25700D02*
X80100Y-26600D01*
X77000Y-26600D02*
X77000Y-31000D01*
X78600Y-26600D02*
X77000Y-26600D01*
X80100Y-26600D02*
X78600Y-26600D01*
G54D18*
X63200Y-39100D02*
X63200Y-30800D01*
X63200Y-30800D02*
X63200Y-30300D01*
X63200Y-29600D02*
X63200Y-30800D01*
X62900Y-27100D02*
X61900Y-28100D01*
X56500Y-31100D02*
X56500Y-38100D01*
X60700Y-31100D02*
X56500Y-31100D01*
X61800Y-30000D02*
X60700Y-31100D01*
X61800Y-28200D02*
X61800Y-30000D01*
X61900Y-28100D02*
X61800Y-28200D01*
X63600Y-22800D02*
X48400Y-22800D01*
X64000Y-23200D02*
X63600Y-22800D01*
X64000Y-24200D02*
X64000Y-23200D01*
X62900Y-25200D02*
X64000Y-24200D01*
X47700Y-23600D02*
X48400Y-22900D01*
X48400Y-22900D02*
X48400Y-22800D01*
X47700Y-23600D02*
X48400Y-22900D01*
X48400Y-22900D02*
X48400Y-22800D01*
X48900Y-29300D02*
X46400Y-29300D01*
X52800Y-30600D02*
X50300Y-30600D01*
X50300Y-30600D02*
X49000Y-30600D01*
X48900Y-30500D02*
X48900Y-29300D01*
X49000Y-30600D02*
X48900Y-30500D01*
X49900Y-28300D02*
X46400Y-28300D01*
X51000Y-29600D02*
X50300Y-29600D01*
X50300Y-29600D02*
X50300Y-28700D01*
X50300Y-28700D02*
X49900Y-28300D01*
X52200Y-29700D02*
X51000Y-29600D01*
M02*
