G04 (Genere par PCBNEW (2007-02-16)) le 16/4/2007-02:26:34*
G01*
G70*
G90*
%MOIN*%
G04 Gerber Fmt 3.4, Leading zero omitted, Abs format*
%FSLAX34Y34*%
G04 APERTURE LIST*
%ADD10C,0.015000*%
%ADD11R,0.080000X0.080000*%
%ADD12C,0.080000*%
%ADD13C,0.150000*%
%ADD14C,0.060000*%
%ADD15R,0.100000X0.100000*%
%ADD16C,0.100000*%
%ADD17R,0.150000X0.150000*%
%ADD18R,0.055000X0.080000*%
%ADD19C,0.080000*%
%ADD20C,0.040000*%
%ADD21C,0.025000*%
%ADD22C,0.012000*%
%ADD23C,0.005000*%
%ADD24C,0.001000*%
%ADD25C,0.008000*%
G04 APERTURE END LIST*
G54D10*
X37600Y-22600D02*
X67600Y-22600D01*
X37600Y-42600D02*
X37600Y-22600D01*
X67600Y-42600D02*
X37600Y-42600D01*
X67600Y-22600D02*
X67600Y-42600D01*
X67600Y-42600D02*
X67500Y-42600D01*
G54D11*
X65500Y-24500D03*
G54D12*
X63500Y-24500D03*
G54D11*
X61500Y-24500D03*
G54D12*
X59500Y-24500D03*
G54D11*
X53500Y-24500D03*
G54D12*
X51500Y-24500D03*
G54D11*
X57500Y-24500D03*
G54D12*
X55500Y-24500D03*
G54D11*
X49500Y-24500D03*
G54D12*
X47500Y-24500D03*
G54D11*
X45500Y-24500D03*
G54D12*
X43500Y-24500D03*
G54D11*
X41500Y-24500D03*
G54D12*
X39500Y-24500D03*
X48700Y-40900D03*
X48700Y-37900D03*
G54D11*
X50100Y-33800D03*
G54D12*
X51100Y-33800D03*
X51100Y-32800D03*
G54D13*
X64500Y-38900D03*
X64500Y-28900D03*
G54D11*
X64000Y-31750D03*
G54D14*
X64000Y-32850D03*
X64000Y-33900D03*
X64000Y-35000D03*
G54D12*
X64000Y-36100D03*
X65000Y-32300D03*
G54D14*
X65000Y-33400D03*
X65000Y-34450D03*
X65000Y-35550D03*
G54D11*
X58600Y-30800D03*
G54D12*
X58600Y-31800D03*
X58600Y-32800D03*
X58600Y-33800D03*
X58600Y-34800D03*
X58600Y-35800D03*
X58600Y-36800D03*
X58600Y-37800D03*
X61600Y-37800D03*
X61600Y-36800D03*
X61600Y-35800D03*
X61600Y-34800D03*
X61600Y-33800D03*
X61600Y-32800D03*
X61600Y-31800D03*
X61600Y-30800D03*
G54D15*
X43100Y-39900D03*
G54D16*
X41100Y-39900D03*
G54D11*
X59300Y-40900D03*
G54D12*
X60300Y-40900D03*
G54D11*
X56400Y-40900D03*
G54D12*
X57400Y-40900D03*
G54D13*
X43800Y-34200D03*
G54D17*
X43700Y-30800D03*
G54D18*
X56200Y-30800D03*
G54D12*
X56200Y-32800D03*
G54D11*
X54100Y-31800D03*
G54D12*
X54100Y-32800D03*
G54D11*
X54100Y-34900D03*
G54D12*
X54100Y-35900D03*
G54D11*
X56200Y-33800D03*
G54D12*
X56200Y-34800D03*
G54D11*
X46100Y-39900D03*
G54D12*
X46100Y-40900D03*
G54D11*
X56200Y-35900D03*
G54D12*
X56200Y-36900D03*
X60500Y-24500D03*
X56500Y-24500D03*
X52500Y-24500D03*
X64500Y-24500D03*
X48500Y-24500D03*
X44500Y-24500D03*
X40500Y-24500D03*
X61600Y-30800D03*
G54D19*
X39500Y-24500D02*
X39500Y-30200D01*
X39500Y-30200D02*
X39500Y-29900D01*
X39500Y-29900D02*
X43800Y-34200D01*
X43500Y-24500D02*
X43500Y-26400D01*
X39700Y-30200D02*
X39500Y-30200D01*
X43500Y-26400D02*
X39700Y-30200D01*
X47500Y-24500D02*
X47500Y-30500D01*
X47500Y-30500D02*
X43800Y-34200D01*
X51500Y-24500D02*
X51500Y-26500D01*
X51500Y-26500D02*
X50500Y-27500D01*
X50500Y-27500D02*
X47500Y-30500D01*
X55500Y-24500D02*
X55500Y-27300D01*
X55300Y-27500D02*
X54000Y-27500D01*
X54000Y-27500D02*
X50500Y-27500D01*
X55500Y-27300D02*
X55300Y-27500D01*
X59500Y-24500D02*
X59500Y-26300D01*
X58300Y-27500D02*
X56600Y-27500D01*
X56600Y-27500D02*
X54000Y-27500D01*
X59500Y-26300D02*
X58300Y-27500D01*
X63500Y-24500D02*
X63500Y-26000D01*
X56600Y-27600D02*
X56600Y-27500D01*
X61900Y-27600D02*
X56600Y-27600D01*
X63500Y-26000D02*
X61900Y-27600D01*
X59500Y-24500D02*
X60500Y-24500D01*
X51500Y-24500D02*
X52500Y-24500D01*
X43500Y-24500D02*
X44500Y-24500D01*
G54D23*
X67050Y-23150D02*
X67050Y-42050D01*
X67000Y-23150D02*
X67000Y-42050D01*
X66950Y-23150D02*
X66950Y-42050D01*
X66900Y-23150D02*
X66900Y-42050D01*
X66850Y-23150D02*
X66850Y-42050D01*
X66800Y-23150D02*
X66800Y-42050D01*
X66750Y-23150D02*
X66750Y-42050D01*
X66700Y-23150D02*
X66700Y-42050D01*
X66650Y-23150D02*
X66650Y-42050D01*
X66600Y-23150D02*
X66600Y-42050D01*
X66550Y-23150D02*
X66550Y-42050D01*
X66500Y-23150D02*
X66500Y-42050D01*
X66450Y-23150D02*
X66450Y-42050D01*
X66400Y-23150D02*
X66400Y-42050D01*
X66350Y-23150D02*
X66350Y-42050D01*
X66300Y-25350D02*
X66300Y-42050D01*
X66300Y-23150D02*
X66300Y-23650D01*
X66250Y-25350D02*
X66250Y-42050D01*
X66250Y-23150D02*
X66250Y-23650D01*
X66200Y-25350D02*
X66200Y-42050D01*
X66200Y-23150D02*
X66200Y-23650D01*
X66150Y-25350D02*
X66150Y-42050D01*
X66150Y-23150D02*
X66150Y-23650D01*
X66100Y-25350D02*
X66100Y-42050D01*
X66100Y-23150D02*
X66100Y-23650D01*
X66050Y-25350D02*
X66050Y-42050D01*
X66050Y-23150D02*
X66050Y-23650D01*
X66000Y-25350D02*
X66000Y-42050D01*
X66000Y-23150D02*
X66000Y-23650D01*
X65950Y-25350D02*
X65950Y-42050D01*
X65950Y-23150D02*
X65950Y-23650D01*
X65900Y-25350D02*
X65900Y-42050D01*
X65900Y-23150D02*
X65900Y-23650D01*
X65850Y-25350D02*
X65850Y-42050D01*
X65850Y-23150D02*
X65850Y-23650D01*
X65800Y-32550D02*
X65800Y-42050D01*
X65800Y-25350D02*
X65800Y-32050D01*
X65800Y-23150D02*
X65800Y-23650D01*
X65750Y-32650D02*
X65750Y-42050D01*
X65750Y-25350D02*
X65750Y-31950D01*
X65750Y-23150D02*
X65750Y-23650D01*
X65700Y-34650D02*
X65700Y-42050D01*
X65700Y-33600D02*
X65700Y-34250D01*
X65700Y-32750D02*
X65700Y-33200D01*
X65700Y-25350D02*
X65700Y-31850D01*
X65700Y-23150D02*
X65700Y-23650D01*
X65650Y-39150D02*
X65650Y-42050D01*
X65650Y-34800D02*
X65650Y-38650D01*
X65650Y-33750D02*
X65650Y-34100D01*
X65650Y-32850D02*
X65650Y-33050D01*
X65650Y-29150D02*
X65650Y-31750D01*
X65650Y-25350D02*
X65650Y-28650D01*
X65650Y-23150D02*
X65650Y-23650D01*
X65600Y-39350D02*
X65600Y-42050D01*
X65600Y-34900D02*
X65600Y-38450D01*
X65600Y-33850D02*
X65600Y-34000D01*
X65600Y-32900D02*
X65600Y-32950D01*
X65600Y-29350D02*
X65600Y-31700D01*
X65600Y-25350D02*
X65600Y-28450D01*
X65600Y-23150D02*
X65600Y-23650D01*
X65550Y-39450D02*
X65550Y-42050D01*
X65550Y-34950D02*
X65550Y-38350D01*
X65550Y-33900D02*
X65550Y-33950D01*
X65550Y-29450D02*
X65550Y-31650D01*
X65550Y-25350D02*
X65550Y-28350D01*
X65550Y-23150D02*
X65550Y-23650D01*
X65500Y-39550D02*
X65500Y-42050D01*
X65500Y-35000D02*
X65500Y-38250D01*
X65500Y-29550D02*
X65500Y-31600D01*
X65500Y-25350D02*
X65500Y-28250D01*
X65500Y-23150D02*
X65500Y-23650D01*
X65450Y-39600D02*
X65450Y-42050D01*
X65450Y-35050D02*
X65450Y-38200D01*
X65450Y-29600D02*
X65450Y-31600D01*
X65450Y-25350D02*
X65450Y-28200D01*
X65450Y-23150D02*
X65450Y-23650D01*
X65400Y-39700D02*
X65400Y-42050D01*
X65400Y-35100D02*
X65400Y-38100D01*
X65400Y-29700D02*
X65400Y-31550D01*
X65400Y-25350D02*
X65400Y-28100D01*
X65400Y-23150D02*
X65400Y-23650D01*
X65350Y-39750D02*
X65350Y-42050D01*
X65350Y-35100D02*
X65350Y-38050D01*
X65350Y-29750D02*
X65350Y-31550D01*
X65350Y-25350D02*
X65350Y-28050D01*
X65350Y-23150D02*
X65350Y-23650D01*
X65300Y-39800D02*
X65300Y-42050D01*
X65300Y-35150D02*
X65300Y-38000D01*
X65300Y-29800D02*
X65300Y-31500D01*
X65300Y-25350D02*
X65300Y-28000D01*
X65300Y-23150D02*
X65300Y-23650D01*
X65250Y-39850D02*
X65250Y-42050D01*
X65250Y-35150D02*
X65250Y-37950D01*
X65250Y-29850D02*
X65250Y-31500D01*
X65250Y-25350D02*
X65250Y-27950D01*
X65250Y-23150D02*
X65250Y-23650D01*
X65200Y-39850D02*
X65200Y-42050D01*
X65200Y-35150D02*
X65200Y-37950D01*
X65200Y-29850D02*
X65200Y-31450D01*
X65200Y-25350D02*
X65200Y-27950D01*
X65200Y-23150D02*
X65200Y-23650D01*
X65150Y-39900D02*
X65150Y-42050D01*
X65150Y-35200D02*
X65150Y-37900D01*
X65150Y-29900D02*
X65150Y-31450D01*
X65150Y-25350D02*
X65150Y-27900D01*
X65150Y-23150D02*
X65150Y-23650D01*
X65100Y-39950D02*
X65100Y-42050D01*
X65100Y-35200D02*
X65100Y-37850D01*
X65100Y-29950D02*
X65100Y-31450D01*
X65100Y-25350D02*
X65100Y-27850D01*
X65100Y-23150D02*
X65100Y-23650D01*
X65050Y-39950D02*
X65050Y-42050D01*
X65050Y-35200D02*
X65050Y-37850D01*
X65050Y-29950D02*
X65050Y-31450D01*
X65050Y-25350D02*
X65050Y-27850D01*
X65050Y-23150D02*
X65050Y-23650D01*
X65000Y-40000D02*
X65000Y-42050D01*
X65000Y-35200D02*
X65000Y-37800D01*
X65000Y-30000D02*
X65000Y-31450D01*
X65000Y-25350D02*
X65000Y-27800D01*
X65000Y-23150D02*
X65000Y-23650D01*
X64950Y-40000D02*
X64950Y-42050D01*
X64950Y-35200D02*
X64950Y-37800D01*
X64950Y-30000D02*
X64950Y-31450D01*
X64950Y-25350D02*
X64950Y-27800D01*
X64950Y-23150D02*
X64950Y-23650D01*
X64900Y-40050D02*
X64900Y-42050D01*
X64900Y-35200D02*
X64900Y-37750D01*
X64900Y-30050D02*
X64900Y-31450D01*
X64900Y-25350D02*
X64900Y-27750D01*
X64900Y-23150D02*
X64900Y-23650D01*
X64850Y-40050D02*
X64850Y-42050D01*
X64850Y-35200D02*
X64850Y-37750D01*
X64850Y-30050D02*
X64850Y-31450D01*
X64850Y-25350D02*
X64850Y-27750D01*
X64850Y-23150D02*
X64850Y-23650D01*
X64800Y-40050D02*
X64800Y-42050D01*
X64800Y-35150D02*
X64800Y-37750D01*
X64800Y-30050D02*
X64800Y-30900D01*
X64800Y-25350D02*
X64800Y-27750D01*
X64800Y-23150D02*
X64800Y-23650D01*
X64750Y-40050D02*
X64750Y-42050D01*
X64750Y-35150D02*
X64750Y-37750D01*
X64750Y-30050D02*
X64750Y-30900D01*
X64750Y-25350D02*
X64750Y-27750D01*
X64750Y-23150D02*
X64750Y-23650D01*
X64700Y-40100D02*
X64700Y-42050D01*
X64700Y-35200D02*
X64700Y-37700D01*
X64700Y-30100D02*
X64700Y-30900D01*
X64700Y-25350D02*
X64700Y-27700D01*
X64700Y-23150D02*
X64700Y-23650D01*
X64650Y-40100D02*
X64650Y-42050D01*
X64650Y-35350D02*
X64650Y-37700D01*
X64650Y-30100D02*
X64650Y-30900D01*
X64650Y-23150D02*
X64650Y-27700D01*
X64600Y-40100D02*
X64600Y-42050D01*
X64600Y-35450D02*
X64600Y-37700D01*
X64600Y-30100D02*
X64600Y-30900D01*
X64600Y-23150D02*
X64600Y-27700D01*
X64550Y-40100D02*
X64550Y-42050D01*
X64550Y-35500D02*
X64550Y-37700D01*
X64550Y-30100D02*
X64550Y-30900D01*
X64550Y-23150D02*
X64550Y-27700D01*
X64500Y-40100D02*
X64500Y-42050D01*
X64500Y-35550D02*
X64500Y-37700D01*
X64500Y-30100D02*
X64500Y-30900D01*
X64500Y-23150D02*
X64500Y-27700D01*
X64450Y-40100D02*
X64450Y-42050D01*
X64450Y-35600D02*
X64450Y-37700D01*
X64450Y-30100D02*
X64450Y-30900D01*
X64450Y-23150D02*
X64450Y-27700D01*
X64400Y-40100D02*
X64400Y-42050D01*
X64400Y-35650D02*
X64400Y-37700D01*
X64400Y-30100D02*
X64400Y-30900D01*
X64400Y-23150D02*
X64400Y-27700D01*
X64350Y-40100D02*
X64350Y-42050D01*
X64350Y-35650D02*
X64350Y-37700D01*
X64350Y-30100D02*
X64350Y-30900D01*
X64350Y-23150D02*
X64350Y-27700D01*
X64300Y-40100D02*
X64300Y-42050D01*
X64300Y-35700D02*
X64300Y-37700D01*
X64300Y-30100D02*
X64300Y-30900D01*
X64300Y-23150D02*
X64300Y-27700D01*
X64250Y-40050D02*
X64250Y-42050D01*
X64250Y-35700D02*
X64250Y-37750D01*
X64250Y-30050D02*
X64250Y-30900D01*
X64250Y-23150D02*
X64250Y-27750D01*
X64200Y-40050D02*
X64200Y-42050D01*
X64200Y-35700D02*
X64200Y-37750D01*
X64200Y-30050D02*
X64200Y-30900D01*
X64200Y-23150D02*
X64200Y-27750D01*
X64150Y-40050D02*
X64150Y-42050D01*
X64150Y-35750D02*
X64150Y-37750D01*
X64150Y-30050D02*
X64150Y-30900D01*
X64150Y-23150D02*
X64150Y-27750D01*
X64100Y-40050D02*
X64100Y-42050D01*
X64100Y-35750D02*
X64100Y-37750D01*
X64100Y-30050D02*
X64100Y-30900D01*
X64100Y-23150D02*
X64100Y-27750D01*
X64050Y-40000D02*
X64050Y-42050D01*
X64050Y-35750D02*
X64050Y-37800D01*
X64050Y-30000D02*
X64050Y-30900D01*
X64050Y-23150D02*
X64050Y-27800D01*
X64000Y-40000D02*
X64000Y-42050D01*
X64000Y-35750D02*
X64000Y-37800D01*
X64000Y-30000D02*
X64000Y-30900D01*
X64000Y-23150D02*
X64000Y-27800D01*
X63950Y-39950D02*
X63950Y-42050D01*
X63950Y-35750D02*
X63950Y-37850D01*
X63950Y-29950D02*
X63950Y-30900D01*
X63950Y-23150D02*
X63950Y-27850D01*
X63900Y-39950D02*
X63900Y-42050D01*
X63900Y-35750D02*
X63900Y-37850D01*
X63900Y-29950D02*
X63900Y-30900D01*
X63900Y-23150D02*
X63900Y-27850D01*
X63850Y-39900D02*
X63850Y-42050D01*
X63850Y-35750D02*
X63850Y-37900D01*
X63850Y-29900D02*
X63850Y-30900D01*
X63850Y-23150D02*
X63850Y-27900D01*
X63800Y-39850D02*
X63800Y-42050D01*
X63800Y-35700D02*
X63800Y-37950D01*
X63800Y-29850D02*
X63800Y-30900D01*
X63800Y-23150D02*
X63800Y-27950D01*
X63750Y-39850D02*
X63750Y-42050D01*
X63750Y-35700D02*
X63750Y-37950D01*
X63750Y-29850D02*
X63750Y-30900D01*
X63750Y-23150D02*
X63750Y-27950D01*
X63700Y-39800D02*
X63700Y-42050D01*
X63700Y-35700D02*
X63700Y-38000D01*
X63700Y-29800D02*
X63700Y-30900D01*
X63700Y-23150D02*
X63700Y-28000D01*
X63650Y-39750D02*
X63650Y-42050D01*
X63650Y-35650D02*
X63650Y-38050D01*
X63650Y-29750D02*
X63650Y-30900D01*
X63650Y-23150D02*
X63650Y-28050D01*
X63600Y-39700D02*
X63600Y-42050D01*
X63600Y-35650D02*
X63600Y-38100D01*
X63600Y-29700D02*
X63600Y-30900D01*
X63600Y-23150D02*
X63600Y-28100D01*
X63550Y-39600D02*
X63550Y-42050D01*
X63550Y-35600D02*
X63550Y-38200D01*
X63550Y-29600D02*
X63550Y-30900D01*
X63550Y-23150D02*
X63550Y-28200D01*
X63500Y-39550D02*
X63500Y-42050D01*
X63500Y-35550D02*
X63500Y-38250D01*
X63500Y-29550D02*
X63500Y-30900D01*
X63500Y-23150D02*
X63500Y-28250D01*
X63450Y-39450D02*
X63450Y-42050D01*
X63450Y-35500D02*
X63450Y-38350D01*
X63450Y-34400D02*
X63450Y-34500D01*
X63450Y-33350D02*
X63450Y-33400D01*
X63450Y-29450D02*
X63450Y-30900D01*
X63450Y-23150D02*
X63450Y-28350D01*
X63400Y-39350D02*
X63400Y-42050D01*
X63400Y-35450D02*
X63400Y-38450D01*
X63400Y-34350D02*
X63400Y-34550D01*
X63400Y-33300D02*
X63400Y-33450D01*
X63400Y-29350D02*
X63400Y-30900D01*
X63400Y-23150D02*
X63400Y-28450D01*
X63350Y-39150D02*
X63350Y-42050D01*
X63350Y-35350D02*
X63350Y-38650D01*
X63350Y-34250D02*
X63350Y-34650D01*
X63350Y-33200D02*
X63350Y-33550D01*
X63350Y-29150D02*
X63350Y-30900D01*
X63350Y-23150D02*
X63350Y-28650D01*
X63300Y-35200D02*
X63300Y-42050D01*
X63300Y-34100D02*
X63300Y-34800D01*
X63300Y-33050D02*
X63300Y-33700D01*
X63300Y-32600D02*
X63300Y-32650D01*
X63300Y-23150D02*
X63300Y-30900D01*
X63250Y-32600D02*
X63250Y-42050D01*
X63250Y-23150D02*
X63250Y-30900D01*
X63200Y-32600D02*
X63200Y-42050D01*
X63200Y-23150D02*
X63200Y-30900D01*
X63150Y-23150D02*
X63150Y-42050D01*
X63100Y-23150D02*
X63100Y-42050D01*
X63050Y-23150D02*
X63050Y-42050D01*
X63000Y-23150D02*
X63000Y-42050D01*
X62950Y-23150D02*
X62950Y-42050D01*
X62900Y-23150D02*
X62900Y-42050D01*
X62850Y-23150D02*
X62850Y-42050D01*
X62800Y-23150D02*
X62800Y-42050D01*
X62750Y-23150D02*
X62750Y-42050D01*
X62700Y-23150D02*
X62700Y-42050D01*
X62650Y-23150D02*
X62650Y-42050D01*
X62600Y-23150D02*
X62600Y-42050D01*
X62550Y-23150D02*
X62550Y-42050D01*
X62500Y-23150D02*
X62500Y-42050D01*
X62450Y-23150D02*
X62450Y-42050D01*
X62400Y-38050D02*
X62400Y-42050D01*
X62400Y-37050D02*
X62400Y-37550D01*
X62400Y-36050D02*
X62400Y-36550D01*
X62400Y-35050D02*
X62400Y-35550D01*
X62400Y-34050D02*
X62400Y-34550D01*
X62400Y-33050D02*
X62400Y-33550D01*
X62400Y-31050D02*
X62400Y-32550D01*
X62400Y-23150D02*
X62400Y-30550D01*
X62350Y-38150D02*
X62350Y-42050D01*
X62350Y-37150D02*
X62350Y-37450D01*
X62350Y-36150D02*
X62350Y-36450D01*
X62350Y-35150D02*
X62350Y-35450D01*
X62350Y-34150D02*
X62350Y-34450D01*
X62350Y-33150D02*
X62350Y-33450D01*
X62350Y-31150D02*
X62350Y-32450D01*
X62350Y-23150D02*
X62350Y-30450D01*
X62300Y-38250D02*
X62300Y-42050D01*
X62300Y-37250D02*
X62300Y-37350D01*
X62300Y-36250D02*
X62300Y-36350D01*
X62300Y-35250D02*
X62300Y-35350D01*
X62300Y-34250D02*
X62300Y-34350D01*
X62300Y-33250D02*
X62300Y-33350D01*
X62300Y-31250D02*
X62300Y-32350D01*
X62300Y-25350D02*
X62300Y-30350D01*
X62300Y-23150D02*
X62300Y-23650D01*
X62250Y-38350D02*
X62250Y-42050D01*
X62250Y-31350D02*
X62250Y-32250D01*
X62250Y-25350D02*
X62250Y-30250D01*
X62250Y-23150D02*
X62250Y-23650D01*
X62200Y-38400D02*
X62200Y-42050D01*
X62200Y-31400D02*
X62200Y-32200D01*
X62200Y-25350D02*
X62200Y-30200D01*
X62200Y-23150D02*
X62200Y-23650D01*
X62150Y-38450D02*
X62150Y-42050D01*
X62150Y-31450D02*
X62150Y-32150D01*
X62150Y-25350D02*
X62150Y-30150D01*
X62150Y-23150D02*
X62150Y-23650D01*
X62100Y-38500D02*
X62100Y-42050D01*
X62100Y-31500D02*
X62100Y-32100D01*
X62100Y-25350D02*
X62100Y-30100D01*
X62100Y-23150D02*
X62100Y-23650D01*
X62050Y-38500D02*
X62050Y-42050D01*
X62050Y-31500D02*
X62050Y-32100D01*
X62050Y-25350D02*
X62050Y-30100D01*
X62050Y-23150D02*
X62050Y-23650D01*
X62000Y-38550D02*
X62000Y-42050D01*
X62000Y-31550D02*
X62000Y-32050D01*
X62000Y-25350D02*
X62000Y-30050D01*
X62000Y-23150D02*
X62000Y-23650D01*
X61950Y-38550D02*
X61950Y-42050D01*
X61950Y-31550D02*
X61950Y-32050D01*
X61950Y-25350D02*
X61950Y-30050D01*
X61950Y-23150D02*
X61950Y-23650D01*
X61900Y-38600D02*
X61900Y-42050D01*
X61900Y-31600D02*
X61900Y-32000D01*
X61900Y-25350D02*
X61900Y-30000D01*
X61900Y-23150D02*
X61900Y-23650D01*
X61850Y-38600D02*
X61850Y-42050D01*
X61850Y-31600D02*
X61850Y-32000D01*
X61850Y-25350D02*
X61850Y-30000D01*
X61850Y-23150D02*
X61850Y-23650D01*
X61800Y-38650D02*
X61800Y-42050D01*
X61800Y-31650D02*
X61800Y-31950D01*
X61800Y-25350D02*
X61800Y-29950D01*
X61800Y-23150D02*
X61800Y-23650D01*
X61750Y-38650D02*
X61750Y-42050D01*
X61750Y-31650D02*
X61750Y-31950D01*
X61750Y-25350D02*
X61750Y-29950D01*
X61750Y-23150D02*
X61750Y-23650D01*
X61700Y-38650D02*
X61700Y-42050D01*
X61700Y-31650D02*
X61700Y-31950D01*
X61700Y-25350D02*
X61700Y-29950D01*
X61700Y-23150D02*
X61700Y-23650D01*
X61650Y-38650D02*
X61650Y-42050D01*
X61650Y-31650D02*
X61650Y-31950D01*
X61650Y-25350D02*
X61650Y-29950D01*
X61650Y-23150D02*
X61650Y-23650D01*
X61600Y-38650D02*
X61600Y-42050D01*
X61600Y-31650D02*
X61600Y-31950D01*
X61600Y-25350D02*
X61600Y-29950D01*
X61600Y-23150D02*
X61600Y-23650D01*
X61550Y-38650D02*
X61550Y-42050D01*
X61550Y-31650D02*
X61550Y-31950D01*
X61550Y-25350D02*
X61550Y-29950D01*
X61550Y-23150D02*
X61550Y-23650D01*
X61500Y-38650D02*
X61500Y-42050D01*
X61500Y-31650D02*
X61500Y-31950D01*
X61500Y-25350D02*
X61500Y-29950D01*
X61500Y-23150D02*
X61500Y-23650D01*
X61450Y-38650D02*
X61450Y-42050D01*
X61450Y-31650D02*
X61450Y-31950D01*
X61450Y-25350D02*
X61450Y-29950D01*
X61450Y-23150D02*
X61450Y-23650D01*
X61400Y-38650D02*
X61400Y-42050D01*
X61400Y-31650D02*
X61400Y-31950D01*
X61400Y-25350D02*
X61400Y-29950D01*
X61400Y-23150D02*
X61400Y-23650D01*
X61350Y-38600D02*
X61350Y-42050D01*
X61350Y-31600D02*
X61350Y-32000D01*
X61350Y-25350D02*
X61350Y-30000D01*
X61350Y-23150D02*
X61350Y-23650D01*
X61300Y-38600D02*
X61300Y-42050D01*
X61300Y-31600D02*
X61300Y-32000D01*
X61300Y-25350D02*
X61300Y-30000D01*
X61300Y-23150D02*
X61300Y-23650D01*
X61250Y-38550D02*
X61250Y-42050D01*
X61250Y-31550D02*
X61250Y-32050D01*
X61250Y-25350D02*
X61250Y-30050D01*
X61250Y-23150D02*
X61250Y-23650D01*
X61200Y-38550D02*
X61200Y-42050D01*
X61200Y-31550D02*
X61200Y-32050D01*
X61200Y-25350D02*
X61200Y-30050D01*
X61200Y-23150D02*
X61200Y-23650D01*
X61150Y-38500D02*
X61150Y-42050D01*
X61150Y-31500D02*
X61150Y-32100D01*
X61150Y-25350D02*
X61150Y-30100D01*
X61150Y-23150D02*
X61150Y-23650D01*
X61100Y-41150D02*
X61100Y-42050D01*
X61100Y-38500D02*
X61100Y-40650D01*
X61100Y-31500D02*
X61100Y-32100D01*
X61100Y-25350D02*
X61100Y-30100D01*
X61100Y-23150D02*
X61100Y-23650D01*
X61050Y-41250D02*
X61050Y-42050D01*
X61050Y-38450D02*
X61050Y-40550D01*
X61050Y-31450D02*
X61050Y-32150D01*
X61050Y-25350D02*
X61050Y-30150D01*
X61050Y-23150D02*
X61050Y-23650D01*
X61000Y-41350D02*
X61000Y-42050D01*
X61000Y-38400D02*
X61000Y-40450D01*
X61000Y-31400D02*
X61000Y-32200D01*
X61000Y-25350D02*
X61000Y-30200D01*
X61000Y-23150D02*
X61000Y-23650D01*
X60950Y-41450D02*
X60950Y-42050D01*
X60950Y-38350D02*
X60950Y-40350D01*
X60950Y-31350D02*
X60950Y-32250D01*
X60950Y-25350D02*
X60950Y-30250D01*
X60950Y-23150D02*
X60950Y-23650D01*
X60900Y-41500D02*
X60900Y-42050D01*
X60900Y-38250D02*
X60900Y-40300D01*
X60900Y-37250D02*
X60900Y-37350D01*
X60900Y-36250D02*
X60900Y-36350D01*
X60900Y-35250D02*
X60900Y-35350D01*
X60900Y-34250D02*
X60900Y-34350D01*
X60900Y-33250D02*
X60900Y-33350D01*
X60900Y-31250D02*
X60900Y-32350D01*
X60900Y-25350D02*
X60900Y-30350D01*
X60900Y-23150D02*
X60900Y-23650D01*
X60850Y-41550D02*
X60850Y-42050D01*
X60850Y-38150D02*
X60850Y-40250D01*
X60850Y-37150D02*
X60850Y-37450D01*
X60850Y-36150D02*
X60850Y-36450D01*
X60850Y-35150D02*
X60850Y-35450D01*
X60850Y-34150D02*
X60850Y-34450D01*
X60850Y-33150D02*
X60850Y-33450D01*
X60850Y-31150D02*
X60850Y-32450D01*
X60850Y-25350D02*
X60850Y-30450D01*
X60850Y-23150D02*
X60850Y-23650D01*
X60800Y-41600D02*
X60800Y-42050D01*
X60800Y-38050D02*
X60800Y-40200D01*
X60800Y-37050D02*
X60800Y-37550D01*
X60800Y-36050D02*
X60800Y-36550D01*
X60800Y-35050D02*
X60800Y-35550D01*
X60800Y-34050D02*
X60800Y-34550D01*
X60800Y-33050D02*
X60800Y-33550D01*
X60800Y-31050D02*
X60800Y-32550D01*
X60800Y-25350D02*
X60800Y-30550D01*
X60800Y-23150D02*
X60800Y-23650D01*
X60750Y-41600D02*
X60750Y-42050D01*
X60750Y-25350D02*
X60750Y-40200D01*
X60750Y-23150D02*
X60750Y-23650D01*
X60700Y-41650D02*
X60700Y-42050D01*
X60700Y-25350D02*
X60700Y-40150D01*
X60700Y-23150D02*
X60700Y-23650D01*
X60650Y-41650D02*
X60650Y-42050D01*
X60650Y-23150D02*
X60650Y-40150D01*
X60600Y-41700D02*
X60600Y-42050D01*
X60600Y-23150D02*
X60600Y-40100D01*
X60550Y-41700D02*
X60550Y-42050D01*
X60550Y-23150D02*
X60550Y-40100D01*
X60500Y-41750D02*
X60500Y-42050D01*
X60500Y-23150D02*
X60500Y-40050D01*
X60450Y-41750D02*
X60450Y-42050D01*
X60450Y-23150D02*
X60450Y-40050D01*
X60400Y-41750D02*
X60400Y-42050D01*
X60400Y-23150D02*
X60400Y-40050D01*
X60350Y-41750D02*
X60350Y-42050D01*
X60350Y-23150D02*
X60350Y-40050D01*
X60300Y-41750D02*
X60300Y-42050D01*
X60300Y-23150D02*
X60300Y-40050D01*
X60250Y-41750D02*
X60250Y-42050D01*
X60250Y-23150D02*
X60250Y-40050D01*
X60200Y-41750D02*
X60200Y-42050D01*
X60200Y-23150D02*
X60200Y-40050D01*
X60150Y-41750D02*
X60150Y-42050D01*
X60150Y-23150D02*
X60150Y-40050D01*
X60100Y-41750D02*
X60100Y-42050D01*
X60100Y-23150D02*
X60100Y-40050D01*
X60050Y-41700D02*
X60050Y-42050D01*
X60050Y-23150D02*
X60050Y-40100D01*
X60000Y-41700D02*
X60000Y-42050D01*
X60000Y-23150D02*
X60000Y-40100D01*
X59950Y-41650D02*
X59950Y-42050D01*
X59950Y-23150D02*
X59950Y-40150D01*
X59900Y-41650D02*
X59900Y-42050D01*
X59900Y-23150D02*
X59900Y-40150D01*
X59850Y-41600D02*
X59850Y-42050D01*
X59850Y-23150D02*
X59850Y-40200D01*
X59800Y-41600D02*
X59800Y-42050D01*
X59800Y-23150D02*
X59800Y-40200D01*
X59750Y-41550D02*
X59750Y-42050D01*
X59750Y-23150D02*
X59750Y-40250D01*
X59700Y-41500D02*
X59700Y-42050D01*
X59700Y-23150D02*
X59700Y-40300D01*
X59650Y-41450D02*
X59650Y-42050D01*
X59650Y-23150D02*
X59650Y-40350D01*
X59600Y-41350D02*
X59600Y-42050D01*
X59600Y-23150D02*
X59600Y-40450D01*
X59550Y-41250D02*
X59550Y-42050D01*
X59550Y-23150D02*
X59550Y-40550D01*
X59500Y-41150D02*
X59500Y-42050D01*
X59500Y-23150D02*
X59500Y-40650D01*
X59450Y-23150D02*
X59450Y-42050D01*
X59400Y-38050D02*
X59400Y-42050D01*
X59400Y-37050D02*
X59400Y-37550D01*
X59400Y-36050D02*
X59400Y-36550D01*
X59400Y-35050D02*
X59400Y-35550D01*
X59400Y-34050D02*
X59400Y-34550D01*
X59400Y-33050D02*
X59400Y-33550D01*
X59400Y-32050D02*
X59400Y-32550D01*
X59400Y-23150D02*
X59400Y-29950D01*
X59350Y-38150D02*
X59350Y-42050D01*
X59350Y-37150D02*
X59350Y-37450D01*
X59350Y-36150D02*
X59350Y-36450D01*
X59350Y-35150D02*
X59350Y-35450D01*
X59350Y-34150D02*
X59350Y-34450D01*
X59350Y-33150D02*
X59350Y-33450D01*
X59350Y-32150D02*
X59350Y-32450D01*
X59350Y-23150D02*
X59350Y-29950D01*
X59300Y-38250D02*
X59300Y-42050D01*
X59300Y-37250D02*
X59300Y-37350D01*
X59300Y-36250D02*
X59300Y-36350D01*
X59300Y-35250D02*
X59300Y-35350D01*
X59300Y-34250D02*
X59300Y-34350D01*
X59300Y-33250D02*
X59300Y-33350D01*
X59300Y-32250D02*
X59300Y-32350D01*
X59300Y-23150D02*
X59300Y-29950D01*
X59250Y-38350D02*
X59250Y-42050D01*
X59250Y-23150D02*
X59250Y-29950D01*
X59200Y-38400D02*
X59200Y-42050D01*
X59200Y-23150D02*
X59200Y-29950D01*
X59150Y-38450D02*
X59150Y-42050D01*
X59150Y-23150D02*
X59150Y-29950D01*
X59100Y-38500D02*
X59100Y-42050D01*
X59100Y-23150D02*
X59100Y-29950D01*
X59050Y-38500D02*
X59050Y-42050D01*
X59050Y-23150D02*
X59050Y-29950D01*
X59000Y-38550D02*
X59000Y-42050D01*
X59000Y-23150D02*
X59000Y-29950D01*
X58950Y-38550D02*
X58950Y-42050D01*
X58950Y-23150D02*
X58950Y-29950D01*
X58900Y-38600D02*
X58900Y-42050D01*
X58900Y-23150D02*
X58900Y-29950D01*
X58850Y-38600D02*
X58850Y-42050D01*
X58850Y-23150D02*
X58850Y-29950D01*
X58800Y-38650D02*
X58800Y-42050D01*
X58800Y-23150D02*
X58800Y-29950D01*
X58750Y-38650D02*
X58750Y-42050D01*
X58750Y-23150D02*
X58750Y-29950D01*
X58700Y-38650D02*
X58700Y-42050D01*
X58700Y-23150D02*
X58700Y-29950D01*
X58650Y-38650D02*
X58650Y-42050D01*
X58650Y-23150D02*
X58650Y-29950D01*
X58600Y-38650D02*
X58600Y-42050D01*
X58600Y-23150D02*
X58600Y-29950D01*
X58550Y-38650D02*
X58550Y-42050D01*
X58550Y-23150D02*
X58550Y-29950D01*
X58500Y-38650D02*
X58500Y-42050D01*
X58500Y-23150D02*
X58500Y-29950D01*
X58450Y-38650D02*
X58450Y-42050D01*
X58450Y-23150D02*
X58450Y-29950D01*
X58400Y-38650D02*
X58400Y-42050D01*
X58400Y-23150D02*
X58400Y-29950D01*
X58350Y-38600D02*
X58350Y-42050D01*
X58350Y-23150D02*
X58350Y-29950D01*
X58300Y-38600D02*
X58300Y-42050D01*
X58300Y-25350D02*
X58300Y-29950D01*
X58300Y-23150D02*
X58300Y-23650D01*
X58250Y-38550D02*
X58250Y-42050D01*
X58250Y-25350D02*
X58250Y-29950D01*
X58250Y-23150D02*
X58250Y-23650D01*
X58200Y-41150D02*
X58200Y-42050D01*
X58200Y-38550D02*
X58200Y-40650D01*
X58200Y-25350D02*
X58200Y-29950D01*
X58200Y-23150D02*
X58200Y-23650D01*
X58150Y-41250D02*
X58150Y-42050D01*
X58150Y-38500D02*
X58150Y-40550D01*
X58150Y-25350D02*
X58150Y-29950D01*
X58150Y-23150D02*
X58150Y-23650D01*
X58100Y-41350D02*
X58100Y-42050D01*
X58100Y-38500D02*
X58100Y-40450D01*
X58100Y-25350D02*
X58100Y-29950D01*
X58100Y-23150D02*
X58100Y-23650D01*
X58050Y-41450D02*
X58050Y-42050D01*
X58050Y-38450D02*
X58050Y-40350D01*
X58050Y-25350D02*
X58050Y-29950D01*
X58050Y-23150D02*
X58050Y-23650D01*
X58000Y-41500D02*
X58000Y-42050D01*
X58000Y-38400D02*
X58000Y-40300D01*
X58000Y-25350D02*
X58000Y-29950D01*
X58000Y-23150D02*
X58000Y-23650D01*
X57950Y-41550D02*
X57950Y-42050D01*
X57950Y-38350D02*
X57950Y-40250D01*
X57950Y-25350D02*
X57950Y-29950D01*
X57950Y-23150D02*
X57950Y-23650D01*
X57900Y-41600D02*
X57900Y-42050D01*
X57900Y-38250D02*
X57900Y-40200D01*
X57900Y-37250D02*
X57900Y-37350D01*
X57900Y-36250D02*
X57900Y-36350D01*
X57900Y-35250D02*
X57900Y-35350D01*
X57900Y-34250D02*
X57900Y-34350D01*
X57900Y-33250D02*
X57900Y-33350D01*
X57900Y-32250D02*
X57900Y-32350D01*
X57900Y-25350D02*
X57900Y-29950D01*
X57900Y-23150D02*
X57900Y-23650D01*
X57850Y-41600D02*
X57850Y-42050D01*
X57850Y-38150D02*
X57850Y-40200D01*
X57850Y-37150D02*
X57850Y-37450D01*
X57850Y-36150D02*
X57850Y-36450D01*
X57850Y-35150D02*
X57850Y-35450D01*
X57850Y-34150D02*
X57850Y-34450D01*
X57850Y-33150D02*
X57850Y-33450D01*
X57850Y-32150D02*
X57850Y-32450D01*
X57850Y-25350D02*
X57850Y-29950D01*
X57850Y-23150D02*
X57850Y-23650D01*
X57800Y-41650D02*
X57800Y-42050D01*
X57800Y-38050D02*
X57800Y-40150D01*
X57800Y-37050D02*
X57800Y-37550D01*
X57800Y-36050D02*
X57800Y-36550D01*
X57800Y-35050D02*
X57800Y-35550D01*
X57800Y-34050D02*
X57800Y-34550D01*
X57800Y-33050D02*
X57800Y-33550D01*
X57800Y-32050D02*
X57800Y-32550D01*
X57800Y-25350D02*
X57800Y-29950D01*
X57800Y-23150D02*
X57800Y-23650D01*
X57750Y-41650D02*
X57750Y-42050D01*
X57750Y-25350D02*
X57750Y-40150D01*
X57750Y-23150D02*
X57750Y-23650D01*
X57700Y-41700D02*
X57700Y-42050D01*
X57700Y-25350D02*
X57700Y-40100D01*
X57700Y-23150D02*
X57700Y-23650D01*
X57650Y-41700D02*
X57650Y-42050D01*
X57650Y-25350D02*
X57650Y-40100D01*
X57650Y-23150D02*
X57650Y-23650D01*
X57600Y-41750D02*
X57600Y-42050D01*
X57600Y-25350D02*
X57600Y-40050D01*
X57600Y-23150D02*
X57600Y-23650D01*
X57550Y-41750D02*
X57550Y-42050D01*
X57550Y-25350D02*
X57550Y-40050D01*
X57550Y-23150D02*
X57550Y-23650D01*
X57500Y-41750D02*
X57500Y-42050D01*
X57500Y-25350D02*
X57500Y-40050D01*
X57500Y-23150D02*
X57500Y-23650D01*
X57450Y-41750D02*
X57450Y-42050D01*
X57450Y-25350D02*
X57450Y-40050D01*
X57450Y-23150D02*
X57450Y-23650D01*
X57400Y-41750D02*
X57400Y-42050D01*
X57400Y-25350D02*
X57400Y-40050D01*
X57400Y-23150D02*
X57400Y-23650D01*
X57350Y-41750D02*
X57350Y-42050D01*
X57350Y-25350D02*
X57350Y-40050D01*
X57350Y-23150D02*
X57350Y-23650D01*
X57300Y-41750D02*
X57300Y-42050D01*
X57300Y-25350D02*
X57300Y-40050D01*
X57300Y-23150D02*
X57300Y-23650D01*
X57250Y-41750D02*
X57250Y-42050D01*
X57250Y-25350D02*
X57250Y-40050D01*
X57250Y-23150D02*
X57250Y-23650D01*
X57200Y-41750D02*
X57200Y-42050D01*
X57200Y-25350D02*
X57200Y-40050D01*
X57200Y-23150D02*
X57200Y-23650D01*
X57150Y-41700D02*
X57150Y-42050D01*
X57150Y-25350D02*
X57150Y-40100D01*
X57150Y-23150D02*
X57150Y-23650D01*
X57100Y-41700D02*
X57100Y-42050D01*
X57100Y-25350D02*
X57100Y-40100D01*
X57100Y-23150D02*
X57100Y-23650D01*
X57050Y-41650D02*
X57050Y-42050D01*
X57050Y-25350D02*
X57050Y-40150D01*
X57050Y-23150D02*
X57050Y-23650D01*
X57000Y-41650D02*
X57000Y-42050D01*
X57000Y-37150D02*
X57000Y-40150D01*
X57000Y-35050D02*
X57000Y-36650D01*
X57000Y-25350D02*
X57000Y-32550D01*
X57000Y-23150D02*
X57000Y-23650D01*
X56950Y-41600D02*
X56950Y-42050D01*
X56950Y-37250D02*
X56950Y-40200D01*
X56950Y-35150D02*
X56950Y-36550D01*
X56950Y-25350D02*
X56950Y-32450D01*
X56950Y-23150D02*
X56950Y-23650D01*
X56900Y-41600D02*
X56900Y-42050D01*
X56900Y-37350D02*
X56900Y-40200D01*
X56900Y-35250D02*
X56900Y-36450D01*
X56900Y-31650D02*
X56900Y-32350D01*
X56900Y-25350D02*
X56900Y-29950D01*
X56900Y-23150D02*
X56900Y-23650D01*
X56850Y-41550D02*
X56850Y-42050D01*
X56850Y-37450D02*
X56850Y-40250D01*
X56850Y-35350D02*
X56850Y-36350D01*
X56850Y-31650D02*
X56850Y-32250D01*
X56850Y-25350D02*
X56850Y-29950D01*
X56850Y-23150D02*
X56850Y-23650D01*
X56800Y-41500D02*
X56800Y-42050D01*
X56800Y-37500D02*
X56800Y-40300D01*
X56800Y-35400D02*
X56800Y-36300D01*
X56800Y-31650D02*
X56800Y-32200D01*
X56800Y-25350D02*
X56800Y-29950D01*
X56800Y-23150D02*
X56800Y-23650D01*
X56750Y-41450D02*
X56750Y-42050D01*
X56750Y-37550D02*
X56750Y-40350D01*
X56750Y-35450D02*
X56750Y-36250D01*
X56750Y-31650D02*
X56750Y-32150D01*
X56750Y-25350D02*
X56750Y-29950D01*
X56750Y-23150D02*
X56750Y-23650D01*
X56700Y-41350D02*
X56700Y-42050D01*
X56700Y-37600D02*
X56700Y-40450D01*
X56700Y-35500D02*
X56700Y-36200D01*
X56700Y-31650D02*
X56700Y-32100D01*
X56700Y-25350D02*
X56700Y-29950D01*
X56700Y-23150D02*
X56700Y-23650D01*
X56650Y-41250D02*
X56650Y-42050D01*
X56650Y-37600D02*
X56650Y-40550D01*
X56650Y-35500D02*
X56650Y-36200D01*
X56650Y-31650D02*
X56650Y-32100D01*
X56650Y-23150D02*
X56650Y-29950D01*
X56600Y-41150D02*
X56600Y-42050D01*
X56600Y-37650D02*
X56600Y-40650D01*
X56600Y-35550D02*
X56600Y-36150D01*
X56600Y-31650D02*
X56600Y-32050D01*
X56600Y-23150D02*
X56600Y-29950D01*
X56550Y-37650D02*
X56550Y-42050D01*
X56550Y-35550D02*
X56550Y-36150D01*
X56550Y-31650D02*
X56550Y-32050D01*
X56550Y-23150D02*
X56550Y-29950D01*
X56500Y-37700D02*
X56500Y-42050D01*
X56500Y-35600D02*
X56500Y-36100D01*
X56500Y-31650D02*
X56500Y-32000D01*
X56500Y-23150D02*
X56500Y-29950D01*
X56450Y-37700D02*
X56450Y-42050D01*
X56450Y-35600D02*
X56450Y-36100D01*
X56450Y-31650D02*
X56450Y-32000D01*
X56450Y-23150D02*
X56450Y-29950D01*
X56400Y-37750D02*
X56400Y-42050D01*
X56400Y-35650D02*
X56400Y-36050D01*
X56400Y-31650D02*
X56400Y-31950D01*
X56400Y-23150D02*
X56400Y-29950D01*
X56350Y-37750D02*
X56350Y-42050D01*
X56350Y-35650D02*
X56350Y-36050D01*
X56350Y-31650D02*
X56350Y-31950D01*
X56350Y-23150D02*
X56350Y-29950D01*
X56300Y-37750D02*
X56300Y-42050D01*
X56300Y-35650D02*
X56300Y-36050D01*
X56300Y-31650D02*
X56300Y-31950D01*
X56300Y-23150D02*
X56300Y-29950D01*
X56250Y-37750D02*
X56250Y-42050D01*
X56250Y-35650D02*
X56250Y-36050D01*
X56250Y-31650D02*
X56250Y-31950D01*
X56250Y-23150D02*
X56250Y-29950D01*
X56200Y-37750D02*
X56200Y-42050D01*
X56200Y-35650D02*
X56200Y-36050D01*
X56200Y-31650D02*
X56200Y-31950D01*
X56200Y-23150D02*
X56200Y-29950D01*
X56150Y-37750D02*
X56150Y-42050D01*
X56150Y-35650D02*
X56150Y-36050D01*
X56150Y-31650D02*
X56150Y-31950D01*
X56150Y-23150D02*
X56150Y-29950D01*
X56100Y-37750D02*
X56100Y-42050D01*
X56100Y-35650D02*
X56100Y-36050D01*
X56100Y-31650D02*
X56100Y-31950D01*
X56100Y-23150D02*
X56100Y-29950D01*
X56050Y-37750D02*
X56050Y-42050D01*
X56050Y-35650D02*
X56050Y-36050D01*
X56050Y-31650D02*
X56050Y-31950D01*
X56050Y-23150D02*
X56050Y-29950D01*
X56000Y-37750D02*
X56000Y-42050D01*
X56000Y-35650D02*
X56000Y-36050D01*
X56000Y-31650D02*
X56000Y-31950D01*
X56000Y-23150D02*
X56000Y-29950D01*
X55950Y-37700D02*
X55950Y-42050D01*
X55950Y-35600D02*
X55950Y-36100D01*
X55950Y-31650D02*
X55950Y-32000D01*
X55950Y-23150D02*
X55950Y-29950D01*
X55900Y-37700D02*
X55900Y-42050D01*
X55900Y-35600D02*
X55900Y-36100D01*
X55900Y-31650D02*
X55900Y-32000D01*
X55900Y-23150D02*
X55900Y-29950D01*
X55850Y-37650D02*
X55850Y-42050D01*
X55850Y-35550D02*
X55850Y-36150D01*
X55850Y-31650D02*
X55850Y-32050D01*
X55850Y-23150D02*
X55850Y-29950D01*
X55800Y-37650D02*
X55800Y-42050D01*
X55800Y-35550D02*
X55800Y-36150D01*
X55800Y-31650D02*
X55800Y-32050D01*
X55800Y-23150D02*
X55800Y-29950D01*
X55750Y-37600D02*
X55750Y-42050D01*
X55750Y-35500D02*
X55750Y-36200D01*
X55750Y-31650D02*
X55750Y-32100D01*
X55750Y-23150D02*
X55750Y-29950D01*
X55700Y-37600D02*
X55700Y-42050D01*
X55700Y-35500D02*
X55700Y-36200D01*
X55700Y-31650D02*
X55700Y-32100D01*
X55700Y-23150D02*
X55700Y-29950D01*
X55650Y-37550D02*
X55650Y-42050D01*
X55650Y-35450D02*
X55650Y-36250D01*
X55650Y-31650D02*
X55650Y-32150D01*
X55650Y-23150D02*
X55650Y-29950D01*
X55600Y-37550D02*
X55600Y-42050D01*
X55600Y-35400D02*
X55600Y-36300D01*
X55600Y-31650D02*
X55600Y-32200D01*
X55600Y-23150D02*
X55600Y-29950D01*
X55550Y-37550D02*
X55550Y-42050D01*
X55550Y-35350D02*
X55550Y-36350D01*
X55550Y-31650D02*
X55550Y-32250D01*
X55550Y-23150D02*
X55550Y-29950D01*
X55500Y-37550D02*
X55500Y-42050D01*
X55500Y-37350D02*
X55500Y-37450D01*
X55500Y-35250D02*
X55500Y-36450D01*
X55500Y-31650D02*
X55500Y-32350D01*
X55500Y-23150D02*
X55500Y-29950D01*
X55450Y-37550D02*
X55450Y-42050D01*
X55450Y-37250D02*
X55450Y-37450D01*
X55450Y-35150D02*
X55450Y-36550D01*
X55450Y-23150D02*
X55450Y-32450D01*
X55400Y-37550D02*
X55400Y-42050D01*
X55400Y-37150D02*
X55400Y-37450D01*
X55400Y-35050D02*
X55400Y-36650D01*
X55400Y-23150D02*
X55400Y-32550D01*
X55350Y-37550D02*
X55350Y-42050D01*
X55350Y-23150D02*
X55350Y-37450D01*
X55300Y-37550D02*
X55300Y-42050D01*
X55300Y-23150D02*
X55300Y-37450D01*
X55250Y-37550D02*
X55250Y-42050D01*
X55250Y-23150D02*
X55250Y-37450D01*
X55200Y-37550D02*
X55200Y-42050D01*
X55200Y-23150D02*
X55200Y-37450D01*
X55150Y-37550D02*
X55150Y-42050D01*
X55150Y-23150D02*
X55150Y-37450D01*
X55100Y-37550D02*
X55100Y-42050D01*
X55100Y-23150D02*
X55100Y-37450D01*
X55050Y-37550D02*
X55050Y-42050D01*
X55050Y-23150D02*
X55050Y-37450D01*
X55000Y-37550D02*
X55000Y-42050D01*
X55000Y-23150D02*
X55000Y-37450D01*
X54950Y-37550D02*
X54950Y-42050D01*
X54950Y-23150D02*
X54950Y-37450D01*
X54900Y-37550D02*
X54900Y-42050D01*
X54900Y-35750D02*
X54900Y-37450D01*
X54900Y-33050D02*
X54900Y-34050D01*
X54900Y-23150D02*
X54900Y-30950D01*
X54850Y-37550D02*
X54850Y-42050D01*
X54850Y-35750D02*
X54850Y-37450D01*
X54850Y-33150D02*
X54850Y-34050D01*
X54850Y-23150D02*
X54850Y-30950D01*
X54800Y-37550D02*
X54800Y-42050D01*
X54800Y-35750D02*
X54800Y-37450D01*
X54800Y-33250D02*
X54800Y-34050D01*
X54800Y-23150D02*
X54800Y-30950D01*
X54750Y-37550D02*
X54750Y-42050D01*
X54750Y-35750D02*
X54750Y-37450D01*
X54750Y-33350D02*
X54750Y-34050D01*
X54750Y-23150D02*
X54750Y-30950D01*
X54700Y-37550D02*
X54700Y-42050D01*
X54700Y-35750D02*
X54700Y-37450D01*
X54700Y-33400D02*
X54700Y-34050D01*
X54700Y-23150D02*
X54700Y-30950D01*
X54650Y-37550D02*
X54650Y-42050D01*
X54650Y-35750D02*
X54650Y-37450D01*
X54650Y-33450D02*
X54650Y-34050D01*
X54650Y-23150D02*
X54650Y-30950D01*
X54600Y-37550D02*
X54600Y-42050D01*
X54600Y-35750D02*
X54600Y-37450D01*
X54600Y-33500D02*
X54600Y-34050D01*
X54600Y-23150D02*
X54600Y-30950D01*
X54550Y-37550D02*
X54550Y-42050D01*
X54550Y-35750D02*
X54550Y-37450D01*
X54550Y-33500D02*
X54550Y-34050D01*
X54550Y-23150D02*
X54550Y-30950D01*
X54500Y-37550D02*
X54500Y-42050D01*
X54500Y-35750D02*
X54500Y-37450D01*
X54500Y-33550D02*
X54500Y-34050D01*
X54500Y-23150D02*
X54500Y-30950D01*
X54450Y-37550D02*
X54450Y-42050D01*
X54450Y-35750D02*
X54450Y-37450D01*
X54450Y-33550D02*
X54450Y-34050D01*
X54450Y-23150D02*
X54450Y-30950D01*
X54400Y-37550D02*
X54400Y-42050D01*
X54400Y-35750D02*
X54400Y-37450D01*
X54400Y-33600D02*
X54400Y-34050D01*
X54400Y-23150D02*
X54400Y-30950D01*
X54350Y-37550D02*
X54350Y-42050D01*
X54350Y-35750D02*
X54350Y-37450D01*
X54350Y-33600D02*
X54350Y-34050D01*
X54350Y-23150D02*
X54350Y-30950D01*
X54300Y-37550D02*
X54300Y-42050D01*
X54300Y-35750D02*
X54300Y-37450D01*
X54300Y-33650D02*
X54300Y-34050D01*
X54300Y-25350D02*
X54300Y-30950D01*
X54300Y-23150D02*
X54300Y-23650D01*
X54250Y-37550D02*
X54250Y-42050D01*
X54250Y-35750D02*
X54250Y-37450D01*
X54250Y-33650D02*
X54250Y-34050D01*
X54250Y-25350D02*
X54250Y-30950D01*
X54250Y-23150D02*
X54250Y-23650D01*
X54200Y-37550D02*
X54200Y-42050D01*
X54200Y-35750D02*
X54200Y-37450D01*
X54200Y-33650D02*
X54200Y-34050D01*
X54200Y-25350D02*
X54200Y-30950D01*
X54200Y-23150D02*
X54200Y-23650D01*
X54150Y-37550D02*
X54150Y-42050D01*
X54150Y-35750D02*
X54150Y-37450D01*
X54150Y-33650D02*
X54150Y-34050D01*
X54150Y-25350D02*
X54150Y-30950D01*
X54150Y-23150D02*
X54150Y-23650D01*
X54100Y-37550D02*
X54100Y-42050D01*
X54100Y-35750D02*
X54100Y-37450D01*
X54100Y-33650D02*
X54100Y-34050D01*
X54100Y-25350D02*
X54100Y-30950D01*
X54100Y-23150D02*
X54100Y-23650D01*
X54050Y-37550D02*
X54050Y-42050D01*
X54050Y-35750D02*
X54050Y-37450D01*
X54050Y-33650D02*
X54050Y-34050D01*
X54050Y-25350D02*
X54050Y-30950D01*
X54050Y-23150D02*
X54050Y-23650D01*
X54000Y-37550D02*
X54000Y-42050D01*
X54000Y-35750D02*
X54000Y-37450D01*
X54000Y-33650D02*
X54000Y-34050D01*
X54000Y-25350D02*
X54000Y-30950D01*
X54000Y-23150D02*
X54000Y-23650D01*
X53950Y-37550D02*
X53950Y-42050D01*
X53950Y-35750D02*
X53950Y-37450D01*
X53950Y-33650D02*
X53950Y-34050D01*
X53950Y-25350D02*
X53950Y-30950D01*
X53950Y-23150D02*
X53950Y-23650D01*
X53900Y-37550D02*
X53900Y-42050D01*
X53900Y-35750D02*
X53900Y-37450D01*
X53900Y-33650D02*
X53900Y-34050D01*
X53900Y-25350D02*
X53900Y-30950D01*
X53900Y-23150D02*
X53900Y-23650D01*
X53850Y-37550D02*
X53850Y-42050D01*
X53850Y-35750D02*
X53850Y-37450D01*
X53850Y-33600D02*
X53850Y-34050D01*
X53850Y-25350D02*
X53850Y-30950D01*
X53850Y-23150D02*
X53850Y-23650D01*
X53800Y-37550D02*
X53800Y-42050D01*
X53800Y-35750D02*
X53800Y-37450D01*
X53800Y-33600D02*
X53800Y-34050D01*
X53800Y-25350D02*
X53800Y-30950D01*
X53800Y-23150D02*
X53800Y-23650D01*
X53750Y-37550D02*
X53750Y-42050D01*
X53750Y-35750D02*
X53750Y-37450D01*
X53750Y-33550D02*
X53750Y-34050D01*
X53750Y-25350D02*
X53750Y-30950D01*
X53750Y-23150D02*
X53750Y-23650D01*
X53700Y-37550D02*
X53700Y-42050D01*
X53700Y-35750D02*
X53700Y-37450D01*
X53700Y-33550D02*
X53700Y-34050D01*
X53700Y-25350D02*
X53700Y-30950D01*
X53700Y-23150D02*
X53700Y-23650D01*
X53650Y-37550D02*
X53650Y-42050D01*
X53650Y-35750D02*
X53650Y-37450D01*
X53650Y-33500D02*
X53650Y-34050D01*
X53650Y-25350D02*
X53650Y-30950D01*
X53650Y-23150D02*
X53650Y-23650D01*
X53600Y-37550D02*
X53600Y-42050D01*
X53600Y-35750D02*
X53600Y-37450D01*
X53600Y-33500D02*
X53600Y-34050D01*
X53600Y-25350D02*
X53600Y-30950D01*
X53600Y-23150D02*
X53600Y-23650D01*
X53550Y-37550D02*
X53550Y-42050D01*
X53550Y-35750D02*
X53550Y-37450D01*
X53550Y-33450D02*
X53550Y-34050D01*
X53550Y-25350D02*
X53550Y-30950D01*
X53550Y-23150D02*
X53550Y-23650D01*
X53500Y-37550D02*
X53500Y-42050D01*
X53500Y-35750D02*
X53500Y-37450D01*
X53500Y-33400D02*
X53500Y-34050D01*
X53500Y-25350D02*
X53500Y-30950D01*
X53500Y-23150D02*
X53500Y-23650D01*
X53450Y-35750D02*
X53450Y-42050D01*
X53450Y-33350D02*
X53450Y-34050D01*
X53450Y-25350D02*
X53450Y-30950D01*
X53450Y-23150D02*
X53450Y-23650D01*
X53400Y-35750D02*
X53400Y-42050D01*
X53400Y-33250D02*
X53400Y-34050D01*
X53400Y-25350D02*
X53400Y-30950D01*
X53400Y-23150D02*
X53400Y-23650D01*
X53350Y-35750D02*
X53350Y-42050D01*
X53350Y-33150D02*
X53350Y-34050D01*
X53350Y-25350D02*
X53350Y-30950D01*
X53350Y-23150D02*
X53350Y-23650D01*
X53300Y-35750D02*
X53300Y-42050D01*
X53300Y-33050D02*
X53300Y-34050D01*
X53300Y-25350D02*
X53300Y-30950D01*
X53300Y-23150D02*
X53300Y-23650D01*
X53250Y-25350D02*
X53250Y-42050D01*
X53250Y-23150D02*
X53250Y-23650D01*
X53200Y-25350D02*
X53200Y-42050D01*
X53200Y-23150D02*
X53200Y-23650D01*
X53150Y-25350D02*
X53150Y-42050D01*
X53150Y-23150D02*
X53150Y-23650D01*
X53100Y-25350D02*
X53100Y-42050D01*
X53100Y-23150D02*
X53100Y-23650D01*
X53050Y-25350D02*
X53050Y-42050D01*
X53050Y-23150D02*
X53050Y-23650D01*
X53000Y-25350D02*
X53000Y-42050D01*
X53000Y-23150D02*
X53000Y-23650D01*
X52950Y-25350D02*
X52950Y-42050D01*
X52950Y-23150D02*
X52950Y-23650D01*
X52900Y-25350D02*
X52900Y-42050D01*
X52900Y-23150D02*
X52900Y-23650D01*
X52850Y-25350D02*
X52850Y-42050D01*
X52850Y-23150D02*
X52850Y-23650D01*
X52800Y-25350D02*
X52800Y-42050D01*
X52800Y-23150D02*
X52800Y-23650D01*
X52750Y-25350D02*
X52750Y-42050D01*
X52750Y-23150D02*
X52750Y-23650D01*
X52700Y-25350D02*
X52700Y-42050D01*
X52700Y-23150D02*
X52700Y-23650D01*
X52650Y-23150D02*
X52650Y-42050D01*
X52600Y-23150D02*
X52600Y-42050D01*
X52550Y-23150D02*
X52550Y-42050D01*
X52500Y-23150D02*
X52500Y-42050D01*
X52450Y-23150D02*
X52450Y-42050D01*
X52400Y-23150D02*
X52400Y-42050D01*
X52350Y-23150D02*
X52350Y-42050D01*
X52300Y-23150D02*
X52300Y-42050D01*
X52250Y-23150D02*
X52250Y-42050D01*
X52200Y-23150D02*
X52200Y-42050D01*
X52150Y-23150D02*
X52150Y-42050D01*
X52100Y-23150D02*
X52100Y-42050D01*
X52050Y-23150D02*
X52050Y-42050D01*
X52000Y-23150D02*
X52000Y-42050D01*
X51950Y-23150D02*
X51950Y-42050D01*
X51900Y-33050D02*
X51900Y-42050D01*
X51900Y-23150D02*
X51900Y-32550D01*
X51850Y-33150D02*
X51850Y-42050D01*
X51850Y-23150D02*
X51850Y-32450D01*
X51800Y-33250D02*
X51800Y-42050D01*
X51800Y-23150D02*
X51800Y-32350D01*
X51750Y-33350D02*
X51750Y-42050D01*
X51750Y-23150D02*
X51750Y-32250D01*
X51700Y-33400D02*
X51700Y-42050D01*
X51700Y-23150D02*
X51700Y-32200D01*
X51650Y-33450D02*
X51650Y-42050D01*
X51650Y-23150D02*
X51650Y-32150D01*
X51600Y-33500D02*
X51600Y-42050D01*
X51600Y-23150D02*
X51600Y-32100D01*
X51550Y-33500D02*
X51550Y-42050D01*
X51550Y-23150D02*
X51550Y-32100D01*
X51500Y-33550D02*
X51500Y-42050D01*
X51500Y-23150D02*
X51500Y-32050D01*
X51450Y-33550D02*
X51450Y-42050D01*
X51450Y-23150D02*
X51450Y-32050D01*
X51400Y-33600D02*
X51400Y-42050D01*
X51400Y-23150D02*
X51400Y-32000D01*
X51350Y-33600D02*
X51350Y-42050D01*
X51350Y-23150D02*
X51350Y-32000D01*
X51300Y-33650D02*
X51300Y-42050D01*
X51300Y-23150D02*
X51300Y-31950D01*
X51250Y-33650D02*
X51250Y-42050D01*
X51250Y-23150D02*
X51250Y-31950D01*
X51200Y-33650D02*
X51200Y-42050D01*
X51200Y-23150D02*
X51200Y-31950D01*
X51150Y-33650D02*
X51150Y-42050D01*
X51150Y-23150D02*
X51150Y-31950D01*
X51100Y-33650D02*
X51100Y-42050D01*
X51100Y-23150D02*
X51100Y-31950D01*
X51050Y-33650D02*
X51050Y-42050D01*
X51050Y-23150D02*
X51050Y-31950D01*
X51000Y-33650D02*
X51000Y-42050D01*
X51000Y-23150D02*
X51000Y-31950D01*
X50950Y-33650D02*
X50950Y-42050D01*
X50950Y-23150D02*
X50950Y-31950D01*
X50900Y-34650D02*
X50900Y-42050D01*
X50900Y-23150D02*
X50900Y-31950D01*
X50850Y-34650D02*
X50850Y-42050D01*
X50850Y-23150D02*
X50850Y-32000D01*
X50800Y-34650D02*
X50800Y-42050D01*
X50800Y-23150D02*
X50800Y-32000D01*
X50750Y-34650D02*
X50750Y-42050D01*
X50750Y-23150D02*
X50750Y-32050D01*
X50700Y-34650D02*
X50700Y-42050D01*
X50700Y-23150D02*
X50700Y-32050D01*
X50650Y-34650D02*
X50650Y-42050D01*
X50650Y-23150D02*
X50650Y-32100D01*
X50600Y-34650D02*
X50600Y-42050D01*
X50600Y-23150D02*
X50600Y-32100D01*
X50550Y-34650D02*
X50550Y-42050D01*
X50550Y-23150D02*
X50550Y-32150D01*
X50500Y-34650D02*
X50500Y-42050D01*
X50500Y-23150D02*
X50500Y-32200D01*
X50450Y-34650D02*
X50450Y-42050D01*
X50450Y-23150D02*
X50450Y-32250D01*
X50400Y-34650D02*
X50400Y-42050D01*
X50400Y-23150D02*
X50400Y-32350D01*
X50350Y-34650D02*
X50350Y-42050D01*
X50350Y-23150D02*
X50350Y-32450D01*
X50300Y-34650D02*
X50300Y-42050D01*
X50300Y-25350D02*
X50300Y-32550D01*
X50300Y-23150D02*
X50300Y-23650D01*
X50250Y-34650D02*
X50250Y-42050D01*
X50250Y-25350D02*
X50250Y-32950D01*
X50250Y-23150D02*
X50250Y-23650D01*
X50200Y-34650D02*
X50200Y-42050D01*
X50200Y-25350D02*
X50200Y-32950D01*
X50200Y-23150D02*
X50200Y-23650D01*
X50150Y-34650D02*
X50150Y-42050D01*
X50150Y-25350D02*
X50150Y-32950D01*
X50150Y-23150D02*
X50150Y-23650D01*
X50100Y-34650D02*
X50100Y-42050D01*
X50100Y-25350D02*
X50100Y-32950D01*
X50100Y-23150D02*
X50100Y-23650D01*
X50050Y-34650D02*
X50050Y-42050D01*
X50050Y-25350D02*
X50050Y-32950D01*
X50050Y-23150D02*
X50050Y-23650D01*
X50000Y-34650D02*
X50000Y-42050D01*
X50000Y-25350D02*
X50000Y-32950D01*
X50000Y-23150D02*
X50000Y-23650D01*
X49950Y-34650D02*
X49950Y-42050D01*
X49950Y-25350D02*
X49950Y-32950D01*
X49950Y-23150D02*
X49950Y-23650D01*
X49900Y-34650D02*
X49900Y-42050D01*
X49900Y-25350D02*
X49900Y-32950D01*
X49900Y-23150D02*
X49900Y-23650D01*
X49850Y-34650D02*
X49850Y-42050D01*
X49850Y-25350D02*
X49850Y-32950D01*
X49850Y-23150D02*
X49850Y-23650D01*
X49800Y-34650D02*
X49800Y-42050D01*
X49800Y-25350D02*
X49800Y-32950D01*
X49800Y-23150D02*
X49800Y-23650D01*
X49750Y-34650D02*
X49750Y-42050D01*
X49750Y-25350D02*
X49750Y-32950D01*
X49750Y-23150D02*
X49750Y-23650D01*
X49700Y-34650D02*
X49700Y-42050D01*
X49700Y-25350D02*
X49700Y-32950D01*
X49700Y-23150D02*
X49700Y-23650D01*
X49650Y-34650D02*
X49650Y-42050D01*
X49650Y-25350D02*
X49650Y-32950D01*
X49650Y-23150D02*
X49650Y-23650D01*
X49600Y-34650D02*
X49600Y-42050D01*
X49600Y-25350D02*
X49600Y-32950D01*
X49600Y-23150D02*
X49600Y-23650D01*
X49550Y-34650D02*
X49550Y-42050D01*
X49550Y-25350D02*
X49550Y-32950D01*
X49550Y-23150D02*
X49550Y-23650D01*
X49500Y-41150D02*
X49500Y-42050D01*
X49500Y-38150D02*
X49500Y-40650D01*
X49500Y-34650D02*
X49500Y-37650D01*
X49500Y-25350D02*
X49500Y-32950D01*
X49500Y-23150D02*
X49500Y-23650D01*
X49450Y-41250D02*
X49450Y-42050D01*
X49450Y-38250D02*
X49450Y-40550D01*
X49450Y-34650D02*
X49450Y-37550D01*
X49450Y-25350D02*
X49450Y-32950D01*
X49450Y-23150D02*
X49450Y-23650D01*
X49400Y-41350D02*
X49400Y-42050D01*
X49400Y-38350D02*
X49400Y-40450D01*
X49400Y-34650D02*
X49400Y-37450D01*
X49400Y-25350D02*
X49400Y-32950D01*
X49400Y-23150D02*
X49400Y-23650D01*
X49350Y-41450D02*
X49350Y-42050D01*
X49350Y-38450D02*
X49350Y-40350D01*
X49350Y-34650D02*
X49350Y-37350D01*
X49350Y-25350D02*
X49350Y-32950D01*
X49350Y-23150D02*
X49350Y-23650D01*
X49300Y-41500D02*
X49300Y-42050D01*
X49300Y-38500D02*
X49300Y-40300D01*
X49300Y-34650D02*
X49300Y-37300D01*
X49300Y-25350D02*
X49300Y-32950D01*
X49300Y-23150D02*
X49300Y-23650D01*
X49250Y-41550D02*
X49250Y-42050D01*
X49250Y-38550D02*
X49250Y-40250D01*
X49250Y-25350D02*
X49250Y-37250D01*
X49250Y-23150D02*
X49250Y-23650D01*
X49200Y-41600D02*
X49200Y-42050D01*
X49200Y-38600D02*
X49200Y-40200D01*
X49200Y-25350D02*
X49200Y-37200D01*
X49200Y-23150D02*
X49200Y-23650D01*
X49150Y-41600D02*
X49150Y-42050D01*
X49150Y-38600D02*
X49150Y-40200D01*
X49150Y-25350D02*
X49150Y-37200D01*
X49150Y-23150D02*
X49150Y-23650D01*
X49100Y-41650D02*
X49100Y-42050D01*
X49100Y-38650D02*
X49100Y-40150D01*
X49100Y-25350D02*
X49100Y-37150D01*
X49100Y-23150D02*
X49100Y-23650D01*
X49050Y-41650D02*
X49050Y-42050D01*
X49050Y-38650D02*
X49050Y-40150D01*
X49050Y-25350D02*
X49050Y-37150D01*
X49050Y-23150D02*
X49050Y-23650D01*
X49000Y-41700D02*
X49000Y-42050D01*
X49000Y-38700D02*
X49000Y-40100D01*
X49000Y-25350D02*
X49000Y-37100D01*
X49000Y-23150D02*
X49000Y-23650D01*
X48950Y-41700D02*
X48950Y-42050D01*
X48950Y-38700D02*
X48950Y-40100D01*
X48950Y-25350D02*
X48950Y-37100D01*
X48950Y-23150D02*
X48950Y-23650D01*
X48900Y-41750D02*
X48900Y-42050D01*
X48900Y-38750D02*
X48900Y-40050D01*
X48900Y-25350D02*
X48900Y-37050D01*
X48900Y-23150D02*
X48900Y-23650D01*
X48850Y-41750D02*
X48850Y-42050D01*
X48850Y-38750D02*
X48850Y-40050D01*
X48850Y-25350D02*
X48850Y-37050D01*
X48850Y-23150D02*
X48850Y-23650D01*
X48800Y-41750D02*
X48800Y-42050D01*
X48800Y-38750D02*
X48800Y-40050D01*
X48800Y-25350D02*
X48800Y-37050D01*
X48800Y-23150D02*
X48800Y-23650D01*
X48750Y-41750D02*
X48750Y-42050D01*
X48750Y-38750D02*
X48750Y-40050D01*
X48750Y-25350D02*
X48750Y-37050D01*
X48750Y-23150D02*
X48750Y-23650D01*
X48700Y-41750D02*
X48700Y-42050D01*
X48700Y-38750D02*
X48700Y-40050D01*
X48700Y-25350D02*
X48700Y-37050D01*
X48700Y-23150D02*
X48700Y-23650D01*
X48650Y-41750D02*
X48650Y-42050D01*
X48650Y-38750D02*
X48650Y-40050D01*
X48650Y-23150D02*
X48650Y-37050D01*
X48600Y-41750D02*
X48600Y-42050D01*
X48600Y-38750D02*
X48600Y-40050D01*
X48600Y-23150D02*
X48600Y-37050D01*
X48550Y-41750D02*
X48550Y-42050D01*
X48550Y-38750D02*
X48550Y-40050D01*
X48550Y-23150D02*
X48550Y-37050D01*
X48500Y-41750D02*
X48500Y-42050D01*
X48500Y-38750D02*
X48500Y-40050D01*
X48500Y-23150D02*
X48500Y-37050D01*
X48450Y-41700D02*
X48450Y-42050D01*
X48450Y-38700D02*
X48450Y-40100D01*
X48450Y-23150D02*
X48450Y-37100D01*
X48400Y-41700D02*
X48400Y-42050D01*
X48400Y-38700D02*
X48400Y-40100D01*
X48400Y-23150D02*
X48400Y-37100D01*
X48350Y-41650D02*
X48350Y-42050D01*
X48350Y-38650D02*
X48350Y-40150D01*
X48350Y-23150D02*
X48350Y-37150D01*
X48300Y-41650D02*
X48300Y-42050D01*
X48300Y-38650D02*
X48300Y-40150D01*
X48300Y-23150D02*
X48300Y-37150D01*
X48250Y-41600D02*
X48250Y-42050D01*
X48250Y-38600D02*
X48250Y-40200D01*
X48250Y-23150D02*
X48250Y-37200D01*
X48200Y-41600D02*
X48200Y-42050D01*
X48200Y-38600D02*
X48200Y-40200D01*
X48200Y-23150D02*
X48200Y-37200D01*
X48150Y-41550D02*
X48150Y-42050D01*
X48150Y-38550D02*
X48150Y-40250D01*
X48150Y-23150D02*
X48150Y-37250D01*
X48100Y-41500D02*
X48100Y-42050D01*
X48100Y-38500D02*
X48100Y-40300D01*
X48100Y-23150D02*
X48100Y-37300D01*
X48050Y-41450D02*
X48050Y-42050D01*
X48050Y-38450D02*
X48050Y-40350D01*
X48050Y-23150D02*
X48050Y-37350D01*
X48000Y-41350D02*
X48000Y-42050D01*
X48000Y-38350D02*
X48000Y-40450D01*
X48000Y-23150D02*
X48000Y-37450D01*
X47950Y-41250D02*
X47950Y-42050D01*
X47950Y-38250D02*
X47950Y-40550D01*
X47950Y-23150D02*
X47950Y-37550D01*
X47900Y-41150D02*
X47900Y-42050D01*
X47900Y-38150D02*
X47900Y-40650D01*
X47900Y-23150D02*
X47900Y-37650D01*
X47850Y-23150D02*
X47850Y-42050D01*
X47800Y-23150D02*
X47800Y-42050D01*
X47750Y-23150D02*
X47750Y-42050D01*
X47700Y-23150D02*
X47700Y-42050D01*
X47650Y-23150D02*
X47650Y-42050D01*
X47600Y-23150D02*
X47600Y-42050D01*
X47550Y-23150D02*
X47550Y-42050D01*
X47500Y-23150D02*
X47500Y-42050D01*
X47450Y-23150D02*
X47450Y-42050D01*
X47400Y-23150D02*
X47400Y-42050D01*
X47350Y-23150D02*
X47350Y-42050D01*
X47300Y-23150D02*
X47300Y-42050D01*
X47250Y-23150D02*
X47250Y-42050D01*
X47200Y-23150D02*
X47200Y-42050D01*
X47150Y-23150D02*
X47150Y-42050D01*
X47100Y-23150D02*
X47100Y-42050D01*
X47050Y-23150D02*
X47050Y-42050D01*
X47000Y-23150D02*
X47000Y-42050D01*
X46950Y-23150D02*
X46950Y-42050D01*
X46900Y-40750D02*
X46900Y-42050D01*
X46900Y-23150D02*
X46900Y-39050D01*
X46850Y-40750D02*
X46850Y-42050D01*
X46850Y-23150D02*
X46850Y-39050D01*
X46800Y-40750D02*
X46800Y-42050D01*
X46800Y-23150D02*
X46800Y-39050D01*
X46750Y-40750D02*
X46750Y-42050D01*
X46750Y-23150D02*
X46750Y-39050D01*
X46700Y-40750D02*
X46700Y-42050D01*
X46700Y-23150D02*
X46700Y-39050D01*
X46650Y-40750D02*
X46650Y-42050D01*
X46650Y-23150D02*
X46650Y-39050D01*
X46600Y-40750D02*
X46600Y-42050D01*
X46600Y-23150D02*
X46600Y-39050D01*
X46550Y-40750D02*
X46550Y-42050D01*
X46550Y-23150D02*
X46550Y-39050D01*
X46500Y-40750D02*
X46500Y-42050D01*
X46500Y-23150D02*
X46500Y-39050D01*
X46450Y-40750D02*
X46450Y-42050D01*
X46450Y-23150D02*
X46450Y-39050D01*
X46400Y-40750D02*
X46400Y-42050D01*
X46400Y-23150D02*
X46400Y-39050D01*
X46350Y-40750D02*
X46350Y-42050D01*
X46350Y-23150D02*
X46350Y-39050D01*
X46300Y-40750D02*
X46300Y-42050D01*
X46300Y-25350D02*
X46300Y-39050D01*
X46300Y-23150D02*
X46300Y-23650D01*
X46250Y-40750D02*
X46250Y-42050D01*
X46250Y-25350D02*
X46250Y-39050D01*
X46250Y-23150D02*
X46250Y-23650D01*
X46200Y-40750D02*
X46200Y-42050D01*
X46200Y-25350D02*
X46200Y-39050D01*
X46200Y-23150D02*
X46200Y-23650D01*
X46150Y-40750D02*
X46150Y-42050D01*
X46150Y-25350D02*
X46150Y-39050D01*
X46150Y-23150D02*
X46150Y-23650D01*
X46100Y-40750D02*
X46100Y-42050D01*
X46100Y-25350D02*
X46100Y-39050D01*
X46100Y-23150D02*
X46100Y-23650D01*
X46050Y-40750D02*
X46050Y-42050D01*
X46050Y-25350D02*
X46050Y-39050D01*
X46050Y-23150D02*
X46050Y-23650D01*
X46000Y-40750D02*
X46000Y-42050D01*
X46000Y-25350D02*
X46000Y-39050D01*
X46000Y-23150D02*
X46000Y-23650D01*
X45950Y-40750D02*
X45950Y-42050D01*
X45950Y-25350D02*
X45950Y-39050D01*
X45950Y-23150D02*
X45950Y-23650D01*
X45900Y-40750D02*
X45900Y-42050D01*
X45900Y-25350D02*
X45900Y-39050D01*
X45900Y-23150D02*
X45900Y-23650D01*
X45850Y-40750D02*
X45850Y-42050D01*
X45850Y-25350D02*
X45850Y-39050D01*
X45850Y-23150D02*
X45850Y-23650D01*
X45800Y-40750D02*
X45800Y-42050D01*
X45800Y-25350D02*
X45800Y-39050D01*
X45800Y-23150D02*
X45800Y-23650D01*
X45750Y-40750D02*
X45750Y-42050D01*
X45750Y-25350D02*
X45750Y-39050D01*
X45750Y-23150D02*
X45750Y-23650D01*
X45700Y-40750D02*
X45700Y-42050D01*
X45700Y-25350D02*
X45700Y-39050D01*
X45700Y-23150D02*
X45700Y-23650D01*
X45650Y-40750D02*
X45650Y-42050D01*
X45650Y-25350D02*
X45650Y-39050D01*
X45650Y-23150D02*
X45650Y-23650D01*
X45600Y-40750D02*
X45600Y-42050D01*
X45600Y-25350D02*
X45600Y-39050D01*
X45600Y-23150D02*
X45600Y-23650D01*
X45550Y-40750D02*
X45550Y-42050D01*
X45550Y-25350D02*
X45550Y-39050D01*
X45550Y-23150D02*
X45550Y-23650D01*
X45500Y-40750D02*
X45500Y-42050D01*
X45500Y-25350D02*
X45500Y-39050D01*
X45500Y-23150D02*
X45500Y-23650D01*
X45450Y-40750D02*
X45450Y-42050D01*
X45450Y-25350D02*
X45450Y-39050D01*
X45450Y-23150D02*
X45450Y-23650D01*
X45400Y-40750D02*
X45400Y-42050D01*
X45400Y-25350D02*
X45400Y-39050D01*
X45400Y-23150D02*
X45400Y-23650D01*
X45350Y-40750D02*
X45350Y-42050D01*
X45350Y-25350D02*
X45350Y-39050D01*
X45350Y-23150D02*
X45350Y-23650D01*
X45300Y-40750D02*
X45300Y-42050D01*
X45300Y-25350D02*
X45300Y-39050D01*
X45300Y-23150D02*
X45300Y-23650D01*
X45250Y-25350D02*
X45250Y-42050D01*
X45250Y-23150D02*
X45250Y-23650D01*
X45200Y-25350D02*
X45200Y-42050D01*
X45200Y-23150D02*
X45200Y-23650D01*
X45150Y-25350D02*
X45150Y-42050D01*
X45150Y-23150D02*
X45150Y-23650D01*
X45100Y-25350D02*
X45100Y-42050D01*
X45100Y-23150D02*
X45100Y-23650D01*
X45050Y-25350D02*
X45050Y-42050D01*
X45050Y-23150D02*
X45050Y-23650D01*
X45000Y-25350D02*
X45000Y-42050D01*
X45000Y-23150D02*
X45000Y-23650D01*
X44950Y-25350D02*
X44950Y-42050D01*
X44950Y-23150D02*
X44950Y-23650D01*
X44900Y-25350D02*
X44900Y-42050D01*
X44900Y-23150D02*
X44900Y-23650D01*
X44850Y-32000D02*
X44850Y-42050D01*
X44850Y-25350D02*
X44850Y-29600D01*
X44850Y-23150D02*
X44850Y-23650D01*
X44800Y-32000D02*
X44800Y-42050D01*
X44800Y-25350D02*
X44800Y-29600D01*
X44800Y-23150D02*
X44800Y-23650D01*
X44750Y-32000D02*
X44750Y-42050D01*
X44750Y-25350D02*
X44750Y-29600D01*
X44750Y-23150D02*
X44750Y-23650D01*
X44700Y-32000D02*
X44700Y-42050D01*
X44700Y-25350D02*
X44700Y-29600D01*
X44700Y-23150D02*
X44700Y-23650D01*
X44650Y-32000D02*
X44650Y-42050D01*
X44650Y-23150D02*
X44650Y-29600D01*
X44600Y-32000D02*
X44600Y-42050D01*
X44600Y-23150D02*
X44600Y-29600D01*
X44550Y-32000D02*
X44550Y-42050D01*
X44550Y-23150D02*
X44550Y-29600D01*
X44500Y-32000D02*
X44500Y-42050D01*
X44500Y-23150D02*
X44500Y-29600D01*
X44450Y-32000D02*
X44450Y-42050D01*
X44450Y-23150D02*
X44450Y-29600D01*
X44400Y-32000D02*
X44400Y-42050D01*
X44400Y-23150D02*
X44400Y-29600D01*
X44350Y-32000D02*
X44350Y-42050D01*
X44350Y-23150D02*
X44350Y-29600D01*
X44300Y-32000D02*
X44300Y-42050D01*
X44300Y-23150D02*
X44300Y-29600D01*
X44250Y-32000D02*
X44250Y-42050D01*
X44250Y-23150D02*
X44250Y-29600D01*
X44200Y-32000D02*
X44200Y-42050D01*
X44200Y-23150D02*
X44200Y-29600D01*
X44150Y-32000D02*
X44150Y-42050D01*
X44150Y-23150D02*
X44150Y-29600D01*
X44100Y-32000D02*
X44100Y-42050D01*
X44100Y-23150D02*
X44100Y-29600D01*
X44050Y-32000D02*
X44050Y-42050D01*
X44050Y-23150D02*
X44050Y-29600D01*
X44000Y-32000D02*
X44000Y-42050D01*
X44000Y-23150D02*
X44000Y-29600D01*
X43950Y-32000D02*
X43950Y-42050D01*
X43950Y-23150D02*
X43950Y-29600D01*
X43900Y-32000D02*
X43900Y-42050D01*
X43900Y-23150D02*
X43900Y-29600D01*
X43850Y-32000D02*
X43850Y-42050D01*
X43850Y-23150D02*
X43850Y-29600D01*
X43800Y-32000D02*
X43800Y-42050D01*
X43800Y-23150D02*
X43800Y-29600D01*
X43750Y-32000D02*
X43750Y-42050D01*
X43750Y-23150D02*
X43750Y-29600D01*
X43700Y-32000D02*
X43700Y-42050D01*
X43700Y-23150D02*
X43700Y-29600D01*
X43650Y-32000D02*
X43650Y-42050D01*
X43650Y-23150D02*
X43650Y-29600D01*
X43600Y-32000D02*
X43600Y-42050D01*
X43600Y-23150D02*
X43600Y-29600D01*
X43550Y-32000D02*
X43550Y-42050D01*
X43550Y-23150D02*
X43550Y-29600D01*
X43500Y-32000D02*
X43500Y-42050D01*
X43500Y-23150D02*
X43500Y-29600D01*
X43450Y-32000D02*
X43450Y-42050D01*
X43450Y-23150D02*
X43450Y-29600D01*
X43400Y-32000D02*
X43400Y-42050D01*
X43400Y-23150D02*
X43400Y-29600D01*
X43350Y-32000D02*
X43350Y-42050D01*
X43350Y-23150D02*
X43350Y-29600D01*
X43300Y-32000D02*
X43300Y-42050D01*
X43300Y-23150D02*
X43300Y-29600D01*
X43250Y-32000D02*
X43250Y-42050D01*
X43250Y-23150D02*
X43250Y-29600D01*
X43200Y-32000D02*
X43200Y-42050D01*
X43200Y-23150D02*
X43200Y-29600D01*
X43150Y-32000D02*
X43150Y-42050D01*
X43150Y-23150D02*
X43150Y-29600D01*
X43100Y-32000D02*
X43100Y-42050D01*
X43100Y-23150D02*
X43100Y-29600D01*
X43050Y-32000D02*
X43050Y-42050D01*
X43050Y-23150D02*
X43050Y-29600D01*
X43000Y-32000D02*
X43000Y-42050D01*
X43000Y-23150D02*
X43000Y-29600D01*
X42950Y-32000D02*
X42950Y-42050D01*
X42950Y-23150D02*
X42950Y-29600D01*
X42900Y-32000D02*
X42900Y-42050D01*
X42900Y-23150D02*
X42900Y-29600D01*
X42850Y-32000D02*
X42850Y-42050D01*
X42850Y-23150D02*
X42850Y-29600D01*
X42800Y-32000D02*
X42800Y-42050D01*
X42800Y-23150D02*
X42800Y-29600D01*
X42750Y-32000D02*
X42750Y-42050D01*
X42750Y-23150D02*
X42750Y-29600D01*
X42700Y-32000D02*
X42700Y-42050D01*
X42700Y-23150D02*
X42700Y-29600D01*
X42650Y-32000D02*
X42650Y-42050D01*
X42650Y-23150D02*
X42650Y-29600D01*
X42600Y-32000D02*
X42600Y-42050D01*
X42600Y-23150D02*
X42600Y-29600D01*
X42550Y-32000D02*
X42550Y-42050D01*
X42550Y-23150D02*
X42550Y-29600D01*
X42500Y-23150D02*
X42500Y-42050D01*
X42450Y-23150D02*
X42450Y-42050D01*
X42400Y-23150D02*
X42400Y-42050D01*
X42350Y-23150D02*
X42350Y-42050D01*
X42300Y-25350D02*
X42300Y-42050D01*
X42300Y-23150D02*
X42300Y-23650D01*
X42250Y-25350D02*
X42250Y-42050D01*
X42250Y-23150D02*
X42250Y-23650D01*
X42200Y-25350D02*
X42200Y-42050D01*
X42200Y-23150D02*
X42200Y-23650D01*
X42150Y-25350D02*
X42150Y-42050D01*
X42150Y-23150D02*
X42150Y-23650D01*
X42100Y-25350D02*
X42100Y-42050D01*
X42100Y-23150D02*
X42100Y-23650D01*
X42050Y-25350D02*
X42050Y-42050D01*
X42050Y-23150D02*
X42050Y-23650D01*
X42000Y-40150D02*
X42000Y-42050D01*
X42000Y-25350D02*
X42000Y-39650D01*
X42000Y-23150D02*
X42000Y-23650D01*
X41950Y-40300D02*
X41950Y-42050D01*
X41950Y-25350D02*
X41950Y-39500D01*
X41950Y-23150D02*
X41950Y-23650D01*
X41900Y-40400D02*
X41900Y-42050D01*
X41900Y-25350D02*
X41900Y-39400D01*
X41900Y-23150D02*
X41900Y-23650D01*
X41850Y-40450D02*
X41850Y-42050D01*
X41850Y-25350D02*
X41850Y-39350D01*
X41850Y-23150D02*
X41850Y-23650D01*
X41800Y-40550D02*
X41800Y-42050D01*
X41800Y-25350D02*
X41800Y-39250D01*
X41800Y-23150D02*
X41800Y-23650D01*
X41750Y-40600D02*
X41750Y-42050D01*
X41750Y-25350D02*
X41750Y-39200D01*
X41750Y-23150D02*
X41750Y-23650D01*
X41700Y-40650D02*
X41700Y-42050D01*
X41700Y-25350D02*
X41700Y-39150D01*
X41700Y-23150D02*
X41700Y-23650D01*
X41650Y-40650D02*
X41650Y-42050D01*
X41650Y-25350D02*
X41650Y-39150D01*
X41650Y-23150D02*
X41650Y-23650D01*
X41600Y-40700D02*
X41600Y-42050D01*
X41600Y-25350D02*
X41600Y-39100D01*
X41600Y-23150D02*
X41600Y-23650D01*
X41550Y-40750D02*
X41550Y-42050D01*
X41550Y-25350D02*
X41550Y-39050D01*
X41550Y-23150D02*
X41550Y-23650D01*
X41500Y-40750D02*
X41500Y-42050D01*
X41500Y-25350D02*
X41500Y-39050D01*
X41500Y-23150D02*
X41500Y-23650D01*
X41450Y-40800D02*
X41450Y-42050D01*
X41450Y-25350D02*
X41450Y-39000D01*
X41450Y-23150D02*
X41450Y-23650D01*
X41400Y-40800D02*
X41400Y-42050D01*
X41400Y-25350D02*
X41400Y-39000D01*
X41400Y-23150D02*
X41400Y-23650D01*
X41350Y-40800D02*
X41350Y-42050D01*
X41350Y-25350D02*
X41350Y-39000D01*
X41350Y-23150D02*
X41350Y-23650D01*
X41300Y-40850D02*
X41300Y-42050D01*
X41300Y-25350D02*
X41300Y-38950D01*
X41300Y-23150D02*
X41300Y-23650D01*
X41250Y-40850D02*
X41250Y-42050D01*
X41250Y-25350D02*
X41250Y-38950D01*
X41250Y-23150D02*
X41250Y-23650D01*
X41200Y-40850D02*
X41200Y-42050D01*
X41200Y-25350D02*
X41200Y-38950D01*
X41200Y-23150D02*
X41200Y-23650D01*
X41150Y-40850D02*
X41150Y-42050D01*
X41150Y-25350D02*
X41150Y-38950D01*
X41150Y-23150D02*
X41150Y-23650D01*
X41100Y-40850D02*
X41100Y-42050D01*
X41100Y-25350D02*
X41100Y-38950D01*
X41100Y-23150D02*
X41100Y-23650D01*
X41050Y-40850D02*
X41050Y-42050D01*
X41050Y-25350D02*
X41050Y-38950D01*
X41050Y-23150D02*
X41050Y-23650D01*
X41000Y-40850D02*
X41000Y-42050D01*
X41000Y-25350D02*
X41000Y-38950D01*
X41000Y-23150D02*
X41000Y-23650D01*
X40950Y-40850D02*
X40950Y-42050D01*
X40950Y-25350D02*
X40950Y-38950D01*
X40950Y-23150D02*
X40950Y-23650D01*
X40900Y-40850D02*
X40900Y-42050D01*
X40900Y-25350D02*
X40900Y-38950D01*
X40900Y-23150D02*
X40900Y-23650D01*
X40850Y-40800D02*
X40850Y-42050D01*
X40850Y-25350D02*
X40850Y-39000D01*
X40850Y-23150D02*
X40850Y-23650D01*
X40800Y-40800D02*
X40800Y-42050D01*
X40800Y-25350D02*
X40800Y-39000D01*
X40800Y-23150D02*
X40800Y-23650D01*
X40750Y-40800D02*
X40750Y-42050D01*
X40750Y-25350D02*
X40750Y-39000D01*
X40750Y-23150D02*
X40750Y-23650D01*
X40700Y-40750D02*
X40700Y-42050D01*
X40700Y-25350D02*
X40700Y-39050D01*
X40700Y-23150D02*
X40700Y-23650D01*
X40650Y-40750D02*
X40650Y-42050D01*
X40650Y-23150D02*
X40650Y-39050D01*
X40600Y-40700D02*
X40600Y-42050D01*
X40600Y-23150D02*
X40600Y-39100D01*
X40550Y-40650D02*
X40550Y-42050D01*
X40550Y-23150D02*
X40550Y-39150D01*
X40500Y-40650D02*
X40500Y-42050D01*
X40500Y-23150D02*
X40500Y-39150D01*
X40450Y-40600D02*
X40450Y-42050D01*
X40450Y-23150D02*
X40450Y-39200D01*
X40400Y-40550D02*
X40400Y-42050D01*
X40400Y-23150D02*
X40400Y-39250D01*
X40350Y-40450D02*
X40350Y-42050D01*
X40350Y-23150D02*
X40350Y-39350D01*
X40300Y-40400D02*
X40300Y-42050D01*
X40300Y-23150D02*
X40300Y-39400D01*
X40250Y-40300D02*
X40250Y-42050D01*
X40250Y-23150D02*
X40250Y-39500D01*
X40200Y-40150D02*
X40200Y-42050D01*
X40200Y-23150D02*
X40200Y-39650D01*
X40150Y-23150D02*
X40150Y-42050D01*
X40100Y-23150D02*
X40100Y-42050D01*
X40050Y-23150D02*
X40050Y-42050D01*
X40000Y-23150D02*
X40000Y-42050D01*
X39950Y-23150D02*
X39950Y-42050D01*
X39900Y-23150D02*
X39900Y-42050D01*
X39850Y-23150D02*
X39850Y-42050D01*
X39800Y-23150D02*
X39800Y-42050D01*
X39750Y-23150D02*
X39750Y-42050D01*
X39700Y-23150D02*
X39700Y-42050D01*
X39650Y-23150D02*
X39650Y-42050D01*
X39600Y-23150D02*
X39600Y-42050D01*
X39550Y-23150D02*
X39550Y-42050D01*
X39500Y-23150D02*
X39500Y-42050D01*
X39450Y-23150D02*
X39450Y-42050D01*
X39400Y-23150D02*
X39400Y-42050D01*
X39350Y-23150D02*
X39350Y-42050D01*
X39300Y-23150D02*
X39300Y-42050D01*
X39250Y-23150D02*
X39250Y-42050D01*
X39200Y-23150D02*
X39200Y-42050D01*
X39150Y-23150D02*
X39150Y-42050D01*
X39100Y-23150D02*
X39100Y-42050D01*
X39050Y-23150D02*
X39050Y-42050D01*
X39000Y-23150D02*
X39000Y-42050D01*
X38950Y-23150D02*
X38950Y-42050D01*
X38900Y-23150D02*
X38900Y-42050D01*
X38850Y-23150D02*
X38850Y-42050D01*
X38800Y-23150D02*
X38800Y-42050D01*
X38750Y-23150D02*
X38750Y-42050D01*
X38700Y-23150D02*
X38700Y-42050D01*
X38650Y-23150D02*
X38650Y-42050D01*
X38600Y-23150D02*
X38600Y-42050D01*
X38550Y-23150D02*
X38550Y-42050D01*
X38500Y-23150D02*
X38500Y-42050D01*
X38450Y-23150D02*
X38450Y-42050D01*
X38400Y-23150D02*
X38400Y-42050D01*
X38350Y-23150D02*
X38350Y-42050D01*
X38300Y-23150D02*
X38300Y-42050D01*
X38250Y-23150D02*
X38250Y-42050D01*
X38200Y-23150D02*
X38200Y-42050D01*
X38150Y-23150D02*
X38150Y-42050D01*
X38150Y-42050D02*
X67050Y-42050D01*
X38150Y-42000D02*
X67050Y-42000D01*
X38150Y-41950D02*
X67050Y-41950D01*
X38150Y-41900D02*
X67050Y-41900D01*
X38150Y-41850D02*
X67050Y-41850D01*
X38150Y-41800D02*
X67050Y-41800D01*
X38150Y-41750D02*
X67050Y-41750D01*
X60550Y-41700D02*
X67050Y-41700D01*
X57650Y-41700D02*
X60050Y-41700D01*
X48950Y-41700D02*
X57150Y-41700D01*
X38150Y-41700D02*
X48450Y-41700D01*
X60650Y-41650D02*
X67050Y-41650D01*
X57750Y-41650D02*
X59950Y-41650D01*
X49050Y-41650D02*
X57050Y-41650D01*
X38150Y-41650D02*
X48350Y-41650D01*
X60750Y-41600D02*
X67050Y-41600D01*
X57850Y-41600D02*
X59850Y-41600D01*
X49150Y-41600D02*
X56950Y-41600D01*
X38150Y-41600D02*
X48250Y-41600D01*
X60850Y-41550D02*
X67050Y-41550D01*
X57950Y-41550D02*
X59750Y-41550D01*
X49250Y-41550D02*
X56850Y-41550D01*
X38150Y-41550D02*
X48150Y-41550D01*
X60900Y-41500D02*
X67050Y-41500D01*
X58000Y-41500D02*
X59700Y-41500D01*
X49300Y-41500D02*
X56800Y-41500D01*
X38150Y-41500D02*
X48100Y-41500D01*
X60950Y-41450D02*
X67050Y-41450D01*
X58050Y-41450D02*
X59650Y-41450D01*
X49350Y-41450D02*
X56750Y-41450D01*
X38150Y-41450D02*
X48050Y-41450D01*
X61000Y-41400D02*
X67050Y-41400D01*
X58100Y-41400D02*
X59600Y-41400D01*
X49400Y-41400D02*
X56700Y-41400D01*
X38150Y-41400D02*
X48000Y-41400D01*
X61000Y-41350D02*
X67050Y-41350D01*
X58100Y-41350D02*
X59600Y-41350D01*
X49400Y-41350D02*
X56700Y-41350D01*
X38150Y-41350D02*
X48000Y-41350D01*
X61050Y-41300D02*
X67050Y-41300D01*
X58150Y-41300D02*
X59550Y-41300D01*
X49450Y-41300D02*
X56650Y-41300D01*
X38150Y-41300D02*
X47950Y-41300D01*
X61050Y-41250D02*
X67050Y-41250D01*
X58150Y-41250D02*
X59550Y-41250D01*
X49450Y-41250D02*
X56650Y-41250D01*
X38150Y-41250D02*
X47950Y-41250D01*
X61100Y-41200D02*
X67050Y-41200D01*
X58200Y-41200D02*
X59500Y-41200D01*
X49500Y-41200D02*
X56600Y-41200D01*
X38150Y-41200D02*
X47900Y-41200D01*
X61100Y-41150D02*
X67050Y-41150D01*
X58200Y-41150D02*
X59500Y-41150D01*
X49500Y-41150D02*
X56600Y-41150D01*
X38150Y-41150D02*
X47900Y-41150D01*
X61150Y-41100D02*
X67050Y-41100D01*
X58250Y-41100D02*
X59450Y-41100D01*
X49550Y-41100D02*
X56550Y-41100D01*
X38150Y-41100D02*
X47850Y-41100D01*
X61150Y-41050D02*
X67050Y-41050D01*
X58250Y-41050D02*
X59450Y-41050D01*
X49550Y-41050D02*
X56550Y-41050D01*
X38150Y-41050D02*
X47850Y-41050D01*
X61150Y-41000D02*
X67050Y-41000D01*
X58250Y-41000D02*
X59450Y-41000D01*
X49550Y-41000D02*
X56550Y-41000D01*
X38150Y-41000D02*
X47850Y-41000D01*
X61150Y-40950D02*
X67050Y-40950D01*
X58250Y-40950D02*
X59450Y-40950D01*
X49550Y-40950D02*
X56550Y-40950D01*
X38150Y-40950D02*
X47850Y-40950D01*
X61150Y-40900D02*
X67050Y-40900D01*
X58250Y-40900D02*
X59450Y-40900D01*
X49550Y-40900D02*
X56550Y-40900D01*
X38150Y-40900D02*
X47850Y-40900D01*
X61150Y-40850D02*
X67050Y-40850D01*
X58250Y-40850D02*
X59450Y-40850D01*
X49550Y-40850D02*
X56550Y-40850D01*
X38150Y-40850D02*
X47850Y-40850D01*
X61150Y-40800D02*
X67050Y-40800D01*
X58250Y-40800D02*
X59450Y-40800D01*
X49550Y-40800D02*
X56550Y-40800D01*
X41350Y-40800D02*
X47850Y-40800D01*
X38150Y-40800D02*
X40850Y-40800D01*
X61150Y-40750D02*
X67050Y-40750D01*
X58250Y-40750D02*
X59450Y-40750D01*
X49550Y-40750D02*
X56550Y-40750D01*
X41500Y-40750D02*
X47850Y-40750D01*
X38150Y-40750D02*
X40700Y-40750D01*
X61150Y-40700D02*
X67050Y-40700D01*
X58250Y-40700D02*
X59450Y-40700D01*
X49550Y-40700D02*
X56550Y-40700D01*
X46950Y-40700D02*
X47850Y-40700D01*
X41600Y-40700D02*
X45250Y-40700D01*
X38150Y-40700D02*
X40600Y-40700D01*
X61100Y-40650D02*
X67050Y-40650D01*
X58200Y-40650D02*
X59500Y-40650D01*
X49500Y-40650D02*
X56600Y-40650D01*
X46950Y-40650D02*
X47900Y-40650D01*
X41650Y-40650D02*
X45250Y-40650D01*
X38150Y-40650D02*
X40550Y-40650D01*
X61100Y-40600D02*
X67050Y-40600D01*
X58200Y-40600D02*
X59500Y-40600D01*
X49500Y-40600D02*
X56600Y-40600D01*
X46950Y-40600D02*
X47900Y-40600D01*
X41750Y-40600D02*
X45250Y-40600D01*
X38150Y-40600D02*
X40450Y-40600D01*
X61050Y-40550D02*
X67050Y-40550D01*
X58150Y-40550D02*
X59550Y-40550D01*
X49450Y-40550D02*
X56650Y-40550D01*
X46950Y-40550D02*
X47950Y-40550D01*
X41800Y-40550D02*
X45250Y-40550D01*
X38150Y-40550D02*
X40400Y-40550D01*
X61050Y-40500D02*
X67050Y-40500D01*
X58150Y-40500D02*
X59550Y-40500D01*
X49450Y-40500D02*
X56650Y-40500D01*
X46950Y-40500D02*
X47950Y-40500D01*
X41850Y-40500D02*
X45250Y-40500D01*
X38150Y-40500D02*
X40350Y-40500D01*
X61000Y-40450D02*
X67050Y-40450D01*
X58100Y-40450D02*
X59600Y-40450D01*
X49400Y-40450D02*
X56700Y-40450D01*
X46950Y-40450D02*
X48000Y-40450D01*
X41850Y-40450D02*
X45250Y-40450D01*
X38150Y-40450D02*
X40350Y-40450D01*
X61000Y-40400D02*
X67050Y-40400D01*
X58100Y-40400D02*
X59600Y-40400D01*
X49400Y-40400D02*
X56700Y-40400D01*
X46950Y-40400D02*
X48000Y-40400D01*
X41900Y-40400D02*
X45250Y-40400D01*
X38150Y-40400D02*
X40300Y-40400D01*
X60950Y-40350D02*
X67050Y-40350D01*
X58050Y-40350D02*
X59650Y-40350D01*
X49350Y-40350D02*
X56750Y-40350D01*
X46950Y-40350D02*
X48050Y-40350D01*
X41950Y-40350D02*
X45250Y-40350D01*
X38150Y-40350D02*
X40250Y-40350D01*
X60900Y-40300D02*
X67050Y-40300D01*
X58000Y-40300D02*
X59700Y-40300D01*
X49300Y-40300D02*
X56800Y-40300D01*
X46950Y-40300D02*
X48100Y-40300D01*
X41950Y-40300D02*
X45250Y-40300D01*
X38150Y-40300D02*
X40250Y-40300D01*
X60850Y-40250D02*
X67050Y-40250D01*
X57950Y-40250D02*
X59750Y-40250D01*
X49250Y-40250D02*
X56850Y-40250D01*
X46950Y-40250D02*
X48150Y-40250D01*
X42000Y-40250D02*
X45250Y-40250D01*
X38150Y-40250D02*
X40200Y-40250D01*
X60750Y-40200D02*
X67050Y-40200D01*
X57850Y-40200D02*
X59850Y-40200D01*
X49150Y-40200D02*
X56950Y-40200D01*
X46950Y-40200D02*
X48250Y-40200D01*
X42000Y-40200D02*
X45250Y-40200D01*
X38150Y-40200D02*
X40200Y-40200D01*
X60650Y-40150D02*
X67050Y-40150D01*
X57750Y-40150D02*
X59950Y-40150D01*
X49050Y-40150D02*
X57050Y-40150D01*
X46950Y-40150D02*
X48350Y-40150D01*
X42000Y-40150D02*
X45250Y-40150D01*
X38150Y-40150D02*
X40200Y-40150D01*
X60550Y-40100D02*
X67050Y-40100D01*
X57650Y-40100D02*
X60050Y-40100D01*
X48950Y-40100D02*
X57150Y-40100D01*
X46950Y-40100D02*
X48450Y-40100D01*
X42050Y-40100D02*
X45250Y-40100D01*
X38150Y-40100D02*
X40150Y-40100D01*
X64750Y-40050D02*
X67050Y-40050D01*
X46950Y-40050D02*
X64250Y-40050D01*
X42050Y-40050D02*
X45250Y-40050D01*
X38150Y-40050D02*
X40150Y-40050D01*
X64950Y-40000D02*
X67050Y-40000D01*
X46950Y-40000D02*
X64050Y-40000D01*
X42050Y-40000D02*
X45250Y-40000D01*
X38150Y-40000D02*
X40150Y-40000D01*
X65050Y-39950D02*
X67050Y-39950D01*
X46950Y-39950D02*
X63950Y-39950D01*
X42050Y-39950D02*
X45250Y-39950D01*
X38150Y-39950D02*
X40150Y-39950D01*
X65150Y-39900D02*
X67050Y-39900D01*
X46950Y-39900D02*
X63850Y-39900D01*
X42050Y-39900D02*
X45250Y-39900D01*
X38150Y-39900D02*
X40150Y-39900D01*
X65200Y-39850D02*
X67050Y-39850D01*
X46950Y-39850D02*
X63800Y-39850D01*
X42050Y-39850D02*
X45250Y-39850D01*
X38150Y-39850D02*
X40150Y-39850D01*
X65300Y-39800D02*
X67050Y-39800D01*
X46950Y-39800D02*
X63700Y-39800D01*
X42050Y-39800D02*
X45250Y-39800D01*
X38150Y-39800D02*
X40150Y-39800D01*
X65350Y-39750D02*
X67050Y-39750D01*
X46950Y-39750D02*
X63650Y-39750D01*
X42050Y-39750D02*
X45250Y-39750D01*
X38150Y-39750D02*
X40150Y-39750D01*
X65400Y-39700D02*
X67050Y-39700D01*
X46950Y-39700D02*
X63600Y-39700D01*
X42050Y-39700D02*
X45250Y-39700D01*
X38150Y-39700D02*
X40150Y-39700D01*
X65450Y-39650D02*
X67050Y-39650D01*
X46950Y-39650D02*
X63550Y-39650D01*
X42000Y-39650D02*
X45250Y-39650D01*
X38150Y-39650D02*
X40200Y-39650D01*
X65450Y-39600D02*
X67050Y-39600D01*
X46950Y-39600D02*
X63550Y-39600D01*
X42000Y-39600D02*
X45250Y-39600D01*
X38150Y-39600D02*
X40200Y-39600D01*
X65500Y-39550D02*
X67050Y-39550D01*
X46950Y-39550D02*
X63500Y-39550D01*
X42000Y-39550D02*
X45250Y-39550D01*
X38150Y-39550D02*
X40200Y-39550D01*
X65550Y-39500D02*
X67050Y-39500D01*
X46950Y-39500D02*
X63450Y-39500D01*
X41950Y-39500D02*
X45250Y-39500D01*
X38150Y-39500D02*
X40250Y-39500D01*
X65550Y-39450D02*
X67050Y-39450D01*
X46950Y-39450D02*
X63450Y-39450D01*
X41950Y-39450D02*
X45250Y-39450D01*
X38150Y-39450D02*
X40250Y-39450D01*
X65600Y-39400D02*
X67050Y-39400D01*
X46950Y-39400D02*
X63400Y-39400D01*
X41900Y-39400D02*
X45250Y-39400D01*
X38150Y-39400D02*
X40300Y-39400D01*
X65600Y-39350D02*
X67050Y-39350D01*
X46950Y-39350D02*
X63400Y-39350D01*
X41850Y-39350D02*
X45250Y-39350D01*
X38150Y-39350D02*
X40350Y-39350D01*
X65650Y-39300D02*
X67050Y-39300D01*
X46950Y-39300D02*
X63350Y-39300D01*
X41850Y-39300D02*
X45250Y-39300D01*
X38150Y-39300D02*
X40350Y-39300D01*
X65650Y-39250D02*
X67050Y-39250D01*
X46950Y-39250D02*
X63350Y-39250D01*
X41800Y-39250D02*
X45250Y-39250D01*
X38150Y-39250D02*
X40400Y-39250D01*
X65650Y-39200D02*
X67050Y-39200D01*
X46950Y-39200D02*
X63350Y-39200D01*
X41750Y-39200D02*
X45250Y-39200D01*
X38150Y-39200D02*
X40450Y-39200D01*
X65650Y-39150D02*
X67050Y-39150D01*
X46950Y-39150D02*
X63350Y-39150D01*
X41650Y-39150D02*
X45250Y-39150D01*
X38150Y-39150D02*
X40550Y-39150D01*
X65700Y-39100D02*
X67050Y-39100D01*
X46950Y-39100D02*
X63300Y-39100D01*
X41600Y-39100D02*
X45250Y-39100D01*
X38150Y-39100D02*
X40600Y-39100D01*
X65700Y-39050D02*
X67050Y-39050D01*
X41500Y-39050D02*
X63300Y-39050D01*
X38150Y-39050D02*
X40700Y-39050D01*
X65700Y-39000D02*
X67050Y-39000D01*
X41350Y-39000D02*
X63300Y-39000D01*
X38150Y-39000D02*
X40850Y-39000D01*
X65700Y-38950D02*
X67050Y-38950D01*
X38150Y-38950D02*
X63300Y-38950D01*
X65700Y-38900D02*
X67050Y-38900D01*
X38150Y-38900D02*
X63300Y-38900D01*
X65700Y-38850D02*
X67050Y-38850D01*
X38150Y-38850D02*
X63300Y-38850D01*
X65700Y-38800D02*
X67050Y-38800D01*
X38150Y-38800D02*
X63300Y-38800D01*
X65700Y-38750D02*
X67050Y-38750D01*
X38150Y-38750D02*
X63300Y-38750D01*
X65700Y-38700D02*
X67050Y-38700D01*
X48950Y-38700D02*
X63300Y-38700D01*
X38150Y-38700D02*
X48450Y-38700D01*
X65650Y-38650D02*
X67050Y-38650D01*
X49050Y-38650D02*
X63350Y-38650D01*
X38150Y-38650D02*
X48350Y-38650D01*
X65650Y-38600D02*
X67050Y-38600D01*
X61850Y-38600D02*
X63350Y-38600D01*
X58850Y-38600D02*
X61350Y-38600D01*
X49150Y-38600D02*
X58350Y-38600D01*
X38150Y-38600D02*
X48250Y-38600D01*
X65650Y-38550D02*
X67050Y-38550D01*
X61950Y-38550D02*
X63350Y-38550D01*
X58950Y-38550D02*
X61250Y-38550D01*
X49250Y-38550D02*
X58250Y-38550D01*
X38150Y-38550D02*
X48150Y-38550D01*
X65650Y-38500D02*
X67050Y-38500D01*
X62050Y-38500D02*
X63350Y-38500D01*
X59050Y-38500D02*
X61150Y-38500D01*
X49300Y-38500D02*
X58150Y-38500D01*
X38150Y-38500D02*
X48100Y-38500D01*
X65600Y-38450D02*
X67050Y-38450D01*
X62150Y-38450D02*
X63400Y-38450D01*
X59150Y-38450D02*
X61050Y-38450D01*
X49350Y-38450D02*
X58050Y-38450D01*
X38150Y-38450D02*
X48050Y-38450D01*
X65600Y-38400D02*
X67050Y-38400D01*
X62200Y-38400D02*
X63400Y-38400D01*
X59200Y-38400D02*
X61000Y-38400D01*
X49400Y-38400D02*
X58000Y-38400D01*
X38150Y-38400D02*
X48000Y-38400D01*
X65550Y-38350D02*
X67050Y-38350D01*
X62250Y-38350D02*
X63450Y-38350D01*
X59250Y-38350D02*
X60950Y-38350D01*
X49400Y-38350D02*
X57950Y-38350D01*
X38150Y-38350D02*
X48000Y-38350D01*
X65550Y-38300D02*
X67050Y-38300D01*
X62300Y-38300D02*
X63450Y-38300D01*
X59300Y-38300D02*
X60900Y-38300D01*
X49450Y-38300D02*
X57900Y-38300D01*
X38150Y-38300D02*
X47950Y-38300D01*
X65500Y-38250D02*
X67050Y-38250D01*
X62300Y-38250D02*
X63500Y-38250D01*
X59300Y-38250D02*
X60900Y-38250D01*
X49450Y-38250D02*
X57900Y-38250D01*
X38150Y-38250D02*
X47950Y-38250D01*
X65450Y-38200D02*
X67050Y-38200D01*
X62350Y-38200D02*
X63550Y-38200D01*
X59350Y-38200D02*
X60850Y-38200D01*
X49500Y-38200D02*
X57850Y-38200D01*
X38150Y-38200D02*
X47900Y-38200D01*
X65450Y-38150D02*
X67050Y-38150D01*
X62350Y-38150D02*
X63550Y-38150D01*
X59350Y-38150D02*
X60850Y-38150D01*
X49500Y-38150D02*
X57850Y-38150D01*
X38150Y-38150D02*
X47900Y-38150D01*
X65400Y-38100D02*
X67050Y-38100D01*
X62400Y-38100D02*
X63600Y-38100D01*
X59400Y-38100D02*
X60800Y-38100D01*
X49550Y-38100D02*
X57800Y-38100D01*
X38150Y-38100D02*
X47850Y-38100D01*
X65350Y-38050D02*
X67050Y-38050D01*
X62400Y-38050D02*
X63650Y-38050D01*
X59400Y-38050D02*
X60800Y-38050D01*
X49550Y-38050D02*
X57800Y-38050D01*
X38150Y-38050D02*
X47850Y-38050D01*
X65300Y-38000D02*
X67050Y-38000D01*
X62450Y-38000D02*
X63700Y-38000D01*
X59450Y-38000D02*
X60750Y-38000D01*
X49550Y-38000D02*
X57750Y-38000D01*
X38150Y-38000D02*
X47850Y-38000D01*
X65200Y-37950D02*
X67050Y-37950D01*
X62450Y-37950D02*
X63800Y-37950D01*
X59450Y-37950D02*
X60750Y-37950D01*
X49550Y-37950D02*
X57750Y-37950D01*
X38150Y-37950D02*
X47850Y-37950D01*
X65150Y-37900D02*
X67050Y-37900D01*
X62450Y-37900D02*
X63850Y-37900D01*
X59450Y-37900D02*
X60750Y-37900D01*
X49550Y-37900D02*
X57750Y-37900D01*
X38150Y-37900D02*
X47850Y-37900D01*
X65050Y-37850D02*
X67050Y-37850D01*
X62450Y-37850D02*
X63950Y-37850D01*
X59450Y-37850D02*
X60750Y-37850D01*
X49550Y-37850D02*
X57750Y-37850D01*
X38150Y-37850D02*
X47850Y-37850D01*
X64950Y-37800D02*
X67050Y-37800D01*
X62450Y-37800D02*
X64050Y-37800D01*
X59450Y-37800D02*
X60750Y-37800D01*
X49550Y-37800D02*
X57750Y-37800D01*
X38150Y-37800D02*
X47850Y-37800D01*
X64750Y-37750D02*
X67050Y-37750D01*
X62450Y-37750D02*
X64250Y-37750D01*
X59450Y-37750D02*
X60750Y-37750D01*
X49550Y-37750D02*
X57750Y-37750D01*
X38150Y-37750D02*
X47850Y-37750D01*
X62450Y-37700D02*
X67050Y-37700D01*
X59450Y-37700D02*
X60750Y-37700D01*
X56450Y-37700D02*
X57750Y-37700D01*
X49550Y-37700D02*
X55950Y-37700D01*
X38150Y-37700D02*
X47850Y-37700D01*
X62450Y-37650D02*
X67050Y-37650D01*
X59450Y-37650D02*
X60750Y-37650D01*
X56550Y-37650D02*
X57750Y-37650D01*
X49500Y-37650D02*
X55850Y-37650D01*
X38150Y-37650D02*
X47900Y-37650D01*
X62450Y-37600D02*
X67050Y-37600D01*
X59450Y-37600D02*
X60750Y-37600D01*
X56650Y-37600D02*
X57750Y-37600D01*
X49500Y-37600D02*
X55750Y-37600D01*
X38150Y-37600D02*
X47900Y-37600D01*
X62400Y-37550D02*
X67050Y-37550D01*
X59400Y-37550D02*
X60800Y-37550D01*
X56750Y-37550D02*
X57800Y-37550D01*
X49450Y-37550D02*
X55650Y-37550D01*
X38150Y-37550D02*
X47950Y-37550D01*
X62400Y-37500D02*
X67050Y-37500D01*
X59400Y-37500D02*
X60800Y-37500D01*
X56800Y-37500D02*
X57800Y-37500D01*
X49450Y-37500D02*
X53450Y-37500D01*
X38150Y-37500D02*
X47950Y-37500D01*
X62350Y-37450D02*
X67050Y-37450D01*
X59350Y-37450D02*
X60850Y-37450D01*
X56850Y-37450D02*
X57850Y-37450D01*
X49400Y-37450D02*
X55550Y-37450D01*
X38150Y-37450D02*
X48000Y-37450D01*
X62350Y-37400D02*
X67050Y-37400D01*
X59350Y-37400D02*
X60850Y-37400D01*
X56900Y-37400D02*
X57850Y-37400D01*
X49400Y-37400D02*
X55500Y-37400D01*
X38150Y-37400D02*
X48000Y-37400D01*
X62300Y-37350D02*
X67050Y-37350D01*
X59300Y-37350D02*
X60900Y-37350D01*
X56900Y-37350D02*
X57900Y-37350D01*
X49350Y-37350D02*
X55500Y-37350D01*
X38150Y-37350D02*
X48050Y-37350D01*
X62300Y-37300D02*
X67050Y-37300D01*
X59300Y-37300D02*
X60900Y-37300D01*
X56950Y-37300D02*
X57900Y-37300D01*
X49300Y-37300D02*
X55450Y-37300D01*
X38150Y-37300D02*
X48100Y-37300D01*
X62300Y-37250D02*
X67050Y-37250D01*
X59300Y-37250D02*
X60900Y-37250D01*
X56950Y-37250D02*
X57900Y-37250D01*
X49250Y-37250D02*
X55450Y-37250D01*
X38150Y-37250D02*
X48150Y-37250D01*
X62350Y-37200D02*
X67050Y-37200D01*
X59350Y-37200D02*
X60850Y-37200D01*
X57000Y-37200D02*
X57850Y-37200D01*
X49150Y-37200D02*
X55400Y-37200D01*
X38150Y-37200D02*
X48250Y-37200D01*
X62350Y-37150D02*
X67050Y-37150D01*
X59350Y-37150D02*
X60850Y-37150D01*
X57000Y-37150D02*
X57850Y-37150D01*
X49050Y-37150D02*
X55400Y-37150D01*
X38150Y-37150D02*
X48350Y-37150D01*
X62400Y-37100D02*
X67050Y-37100D01*
X59400Y-37100D02*
X60800Y-37100D01*
X57050Y-37100D02*
X57800Y-37100D01*
X48950Y-37100D02*
X55350Y-37100D01*
X38150Y-37100D02*
X48450Y-37100D01*
X62400Y-37050D02*
X67050Y-37050D01*
X59400Y-37050D02*
X60800Y-37050D01*
X57050Y-37050D02*
X57800Y-37050D01*
X38150Y-37050D02*
X55350Y-37050D01*
X62450Y-37000D02*
X67050Y-37000D01*
X59450Y-37000D02*
X60750Y-37000D01*
X57050Y-37000D02*
X57750Y-37000D01*
X38150Y-37000D02*
X55350Y-37000D01*
X62450Y-36950D02*
X67050Y-36950D01*
X59450Y-36950D02*
X60750Y-36950D01*
X57050Y-36950D02*
X57750Y-36950D01*
X38150Y-36950D02*
X55350Y-36950D01*
X62450Y-36900D02*
X67050Y-36900D01*
X59450Y-36900D02*
X60750Y-36900D01*
X57050Y-36900D02*
X57750Y-36900D01*
X38150Y-36900D02*
X55350Y-36900D01*
X62450Y-36850D02*
X67050Y-36850D01*
X59450Y-36850D02*
X60750Y-36850D01*
X57050Y-36850D02*
X57750Y-36850D01*
X38150Y-36850D02*
X55350Y-36850D01*
X62450Y-36800D02*
X67050Y-36800D01*
X59450Y-36800D02*
X60750Y-36800D01*
X57050Y-36800D02*
X57750Y-36800D01*
X38150Y-36800D02*
X55350Y-36800D01*
X62450Y-36750D02*
X67050Y-36750D01*
X59450Y-36750D02*
X60750Y-36750D01*
X57050Y-36750D02*
X57750Y-36750D01*
X38150Y-36750D02*
X55350Y-36750D01*
X62450Y-36700D02*
X67050Y-36700D01*
X59450Y-36700D02*
X60750Y-36700D01*
X57050Y-36700D02*
X57750Y-36700D01*
X38150Y-36700D02*
X55350Y-36700D01*
X62450Y-36650D02*
X67050Y-36650D01*
X59450Y-36650D02*
X60750Y-36650D01*
X57000Y-36650D02*
X57750Y-36650D01*
X38150Y-36650D02*
X55400Y-36650D01*
X62450Y-36600D02*
X67050Y-36600D01*
X59450Y-36600D02*
X60750Y-36600D01*
X57000Y-36600D02*
X57750Y-36600D01*
X38150Y-36600D02*
X55400Y-36600D01*
X62400Y-36550D02*
X67050Y-36550D01*
X59400Y-36550D02*
X60800Y-36550D01*
X56950Y-36550D02*
X57800Y-36550D01*
X38150Y-36550D02*
X55450Y-36550D01*
X62400Y-36500D02*
X67050Y-36500D01*
X59400Y-36500D02*
X60800Y-36500D01*
X56950Y-36500D02*
X57800Y-36500D01*
X38150Y-36500D02*
X55450Y-36500D01*
X62350Y-36450D02*
X67050Y-36450D01*
X59350Y-36450D02*
X60850Y-36450D01*
X56900Y-36450D02*
X57850Y-36450D01*
X38150Y-36450D02*
X55500Y-36450D01*
X62350Y-36400D02*
X67050Y-36400D01*
X59350Y-36400D02*
X60850Y-36400D01*
X56900Y-36400D02*
X57850Y-36400D01*
X38150Y-36400D02*
X55500Y-36400D01*
X62300Y-36350D02*
X67050Y-36350D01*
X59300Y-36350D02*
X60900Y-36350D01*
X56850Y-36350D02*
X57900Y-36350D01*
X38150Y-36350D02*
X55550Y-36350D01*
X62300Y-36300D02*
X67050Y-36300D01*
X59300Y-36300D02*
X60900Y-36300D01*
X56800Y-36300D02*
X57900Y-36300D01*
X38150Y-36300D02*
X55600Y-36300D01*
X62300Y-36250D02*
X67050Y-36250D01*
X59300Y-36250D02*
X60900Y-36250D01*
X56750Y-36250D02*
X57900Y-36250D01*
X38150Y-36250D02*
X55650Y-36250D01*
X62350Y-36200D02*
X67050Y-36200D01*
X59350Y-36200D02*
X60850Y-36200D01*
X56650Y-36200D02*
X57850Y-36200D01*
X38150Y-36200D02*
X55750Y-36200D01*
X62350Y-36150D02*
X67050Y-36150D01*
X59350Y-36150D02*
X60850Y-36150D01*
X56550Y-36150D02*
X57850Y-36150D01*
X38150Y-36150D02*
X55850Y-36150D01*
X62400Y-36100D02*
X67050Y-36100D01*
X59400Y-36100D02*
X60800Y-36100D01*
X56450Y-36100D02*
X57800Y-36100D01*
X38150Y-36100D02*
X55950Y-36100D01*
X62400Y-36050D02*
X67050Y-36050D01*
X59400Y-36050D02*
X60800Y-36050D01*
X38150Y-36050D02*
X57800Y-36050D01*
X62450Y-36000D02*
X67050Y-36000D01*
X59450Y-36000D02*
X60750Y-36000D01*
X38150Y-36000D02*
X57750Y-36000D01*
X62450Y-35950D02*
X67050Y-35950D01*
X59450Y-35950D02*
X60750Y-35950D01*
X38150Y-35950D02*
X57750Y-35950D01*
X62450Y-35900D02*
X67050Y-35900D01*
X59450Y-35900D02*
X60750Y-35900D01*
X38150Y-35900D02*
X57750Y-35900D01*
X62450Y-35850D02*
X67050Y-35850D01*
X59450Y-35850D02*
X60750Y-35850D01*
X38150Y-35850D02*
X57750Y-35850D01*
X62450Y-35800D02*
X67050Y-35800D01*
X59450Y-35800D02*
X60750Y-35800D01*
X38150Y-35800D02*
X57750Y-35800D01*
X62450Y-35750D02*
X67050Y-35750D01*
X59450Y-35750D02*
X60750Y-35750D01*
X38150Y-35750D02*
X57750Y-35750D01*
X64200Y-35700D02*
X67050Y-35700D01*
X62450Y-35700D02*
X63800Y-35700D01*
X59450Y-35700D02*
X60750Y-35700D01*
X54950Y-35700D02*
X57750Y-35700D01*
X38150Y-35700D02*
X53250Y-35700D01*
X64350Y-35650D02*
X67050Y-35650D01*
X62450Y-35650D02*
X63650Y-35650D01*
X59450Y-35650D02*
X60750Y-35650D01*
X54950Y-35650D02*
X57750Y-35650D01*
X38150Y-35650D02*
X53250Y-35650D01*
X64450Y-35600D02*
X67050Y-35600D01*
X62450Y-35600D02*
X63550Y-35600D01*
X59450Y-35600D02*
X60750Y-35600D01*
X56450Y-35600D02*
X57750Y-35600D01*
X54950Y-35600D02*
X55950Y-35600D01*
X38150Y-35600D02*
X53250Y-35600D01*
X64500Y-35550D02*
X67050Y-35550D01*
X62400Y-35550D02*
X63500Y-35550D01*
X59400Y-35550D02*
X60800Y-35550D01*
X56550Y-35550D02*
X57800Y-35550D01*
X54950Y-35550D02*
X55850Y-35550D01*
X38150Y-35550D02*
X53250Y-35550D01*
X64550Y-35500D02*
X67050Y-35500D01*
X62400Y-35500D02*
X63450Y-35500D01*
X59400Y-35500D02*
X60800Y-35500D01*
X56650Y-35500D02*
X57800Y-35500D01*
X54950Y-35500D02*
X55750Y-35500D01*
X38150Y-35500D02*
X53250Y-35500D01*
X64600Y-35450D02*
X67050Y-35450D01*
X62350Y-35450D02*
X63400Y-35450D01*
X59350Y-35450D02*
X60850Y-35450D01*
X56750Y-35450D02*
X57850Y-35450D01*
X54950Y-35450D02*
X55650Y-35450D01*
X38150Y-35450D02*
X53250Y-35450D01*
X64650Y-35400D02*
X67050Y-35400D01*
X62350Y-35400D02*
X63350Y-35400D01*
X59350Y-35400D02*
X60850Y-35400D01*
X56800Y-35400D02*
X57850Y-35400D01*
X54950Y-35400D02*
X55600Y-35400D01*
X38150Y-35400D02*
X53250Y-35400D01*
X64650Y-35350D02*
X67050Y-35350D01*
X62300Y-35350D02*
X63350Y-35350D01*
X59300Y-35350D02*
X60900Y-35350D01*
X56850Y-35350D02*
X57900Y-35350D01*
X54950Y-35350D02*
X55550Y-35350D01*
X38150Y-35350D02*
X53250Y-35350D01*
X64700Y-35300D02*
X67050Y-35300D01*
X62300Y-35300D02*
X63300Y-35300D01*
X59300Y-35300D02*
X60900Y-35300D01*
X56900Y-35300D02*
X57900Y-35300D01*
X54950Y-35300D02*
X55500Y-35300D01*
X38150Y-35300D02*
X53250Y-35300D01*
X64700Y-35250D02*
X67050Y-35250D01*
X62300Y-35250D02*
X63300Y-35250D01*
X59300Y-35250D02*
X60900Y-35250D01*
X56900Y-35250D02*
X57900Y-35250D01*
X54950Y-35250D02*
X55500Y-35250D01*
X38150Y-35250D02*
X53250Y-35250D01*
X64700Y-35200D02*
X67050Y-35200D01*
X62350Y-35200D02*
X63300Y-35200D01*
X59350Y-35200D02*
X60850Y-35200D01*
X56950Y-35200D02*
X57850Y-35200D01*
X54950Y-35200D02*
X55450Y-35200D01*
X38150Y-35200D02*
X53250Y-35200D01*
X65200Y-35150D02*
X67050Y-35150D01*
X64750Y-35150D02*
X64800Y-35150D01*
X62350Y-35150D02*
X63250Y-35150D01*
X59350Y-35150D02*
X60850Y-35150D01*
X56950Y-35150D02*
X57850Y-35150D01*
X54950Y-35150D02*
X55450Y-35150D01*
X38150Y-35150D02*
X53250Y-35150D01*
X65350Y-35100D02*
X67050Y-35100D01*
X62400Y-35100D02*
X63250Y-35100D01*
X59400Y-35100D02*
X60800Y-35100D01*
X57000Y-35100D02*
X57800Y-35100D01*
X54950Y-35100D02*
X55400Y-35100D01*
X38150Y-35100D02*
X53250Y-35100D01*
X65450Y-35050D02*
X67050Y-35050D01*
X62400Y-35050D02*
X63250Y-35050D01*
X59400Y-35050D02*
X60800Y-35050D01*
X57000Y-35050D02*
X57800Y-35050D01*
X54950Y-35050D02*
X55400Y-35050D01*
X38150Y-35050D02*
X53250Y-35050D01*
X65500Y-35000D02*
X67050Y-35000D01*
X62450Y-35000D02*
X63250Y-35000D01*
X59450Y-35000D02*
X60750Y-35000D01*
X57050Y-35000D02*
X57750Y-35000D01*
X54950Y-35000D02*
X55350Y-35000D01*
X38150Y-35000D02*
X53250Y-35000D01*
X65550Y-34950D02*
X67050Y-34950D01*
X62450Y-34950D02*
X63250Y-34950D01*
X59450Y-34950D02*
X60750Y-34950D01*
X57050Y-34950D02*
X57750Y-34950D01*
X54950Y-34950D02*
X55350Y-34950D01*
X38150Y-34950D02*
X53250Y-34950D01*
X65600Y-34900D02*
X67050Y-34900D01*
X62450Y-34900D02*
X63250Y-34900D01*
X59450Y-34900D02*
X60750Y-34900D01*
X57050Y-34900D02*
X57750Y-34900D01*
X54950Y-34900D02*
X55350Y-34900D01*
X38150Y-34900D02*
X53250Y-34900D01*
X65650Y-34850D02*
X67050Y-34850D01*
X62450Y-34850D02*
X63250Y-34850D01*
X59450Y-34850D02*
X60750Y-34850D01*
X57050Y-34850D02*
X57750Y-34850D01*
X54950Y-34850D02*
X55350Y-34850D01*
X38150Y-34850D02*
X53250Y-34850D01*
X65650Y-34800D02*
X67050Y-34800D01*
X62450Y-34800D02*
X63300Y-34800D01*
X59450Y-34800D02*
X60750Y-34800D01*
X57050Y-34800D02*
X57750Y-34800D01*
X54950Y-34800D02*
X55350Y-34800D01*
X38150Y-34800D02*
X53250Y-34800D01*
X65700Y-34750D02*
X67050Y-34750D01*
X62450Y-34750D02*
X63300Y-34750D01*
X59450Y-34750D02*
X60750Y-34750D01*
X57050Y-34750D02*
X57750Y-34750D01*
X54950Y-34750D02*
X55350Y-34750D01*
X38150Y-34750D02*
X53250Y-34750D01*
X65700Y-34700D02*
X67050Y-34700D01*
X62450Y-34700D02*
X63300Y-34700D01*
X59450Y-34700D02*
X60750Y-34700D01*
X57050Y-34700D02*
X57750Y-34700D01*
X54950Y-34700D02*
X55350Y-34700D01*
X38150Y-34700D02*
X53250Y-34700D01*
X65700Y-34650D02*
X67050Y-34650D01*
X62450Y-34650D02*
X63350Y-34650D01*
X59450Y-34650D02*
X60750Y-34650D01*
X57050Y-34650D02*
X57750Y-34650D01*
X54950Y-34650D02*
X55350Y-34650D01*
X38150Y-34650D02*
X53250Y-34650D01*
X65750Y-34600D02*
X67050Y-34600D01*
X62450Y-34600D02*
X63350Y-34600D01*
X59450Y-34600D02*
X60750Y-34600D01*
X57050Y-34600D02*
X57750Y-34600D01*
X54950Y-34600D02*
X55350Y-34600D01*
X50950Y-34600D02*
X53250Y-34600D01*
X38150Y-34600D02*
X49250Y-34600D01*
X65750Y-34550D02*
X67050Y-34550D01*
X62400Y-34550D02*
X63400Y-34550D01*
X59400Y-34550D02*
X60800Y-34550D01*
X57050Y-34550D02*
X57800Y-34550D01*
X54950Y-34550D02*
X55350Y-34550D01*
X50950Y-34550D02*
X53250Y-34550D01*
X38150Y-34550D02*
X49250Y-34550D01*
X65750Y-34500D02*
X67050Y-34500D01*
X62400Y-34500D02*
X63450Y-34500D01*
X59400Y-34500D02*
X60800Y-34500D01*
X57050Y-34500D02*
X57800Y-34500D01*
X54950Y-34500D02*
X55350Y-34500D01*
X50950Y-34500D02*
X53250Y-34500D01*
X38150Y-34500D02*
X49250Y-34500D01*
X65750Y-34450D02*
X67050Y-34450D01*
X62350Y-34450D02*
X63500Y-34450D01*
X59350Y-34450D02*
X60850Y-34450D01*
X57050Y-34450D02*
X57850Y-34450D01*
X54950Y-34450D02*
X55350Y-34450D01*
X50950Y-34450D02*
X53250Y-34450D01*
X38150Y-34450D02*
X49250Y-34450D01*
X65750Y-34400D02*
X67050Y-34400D01*
X62350Y-34400D02*
X63450Y-34400D01*
X59350Y-34400D02*
X60850Y-34400D01*
X57050Y-34400D02*
X57850Y-34400D01*
X54950Y-34400D02*
X55350Y-34400D01*
X50950Y-34400D02*
X53250Y-34400D01*
X38150Y-34400D02*
X49250Y-34400D01*
X65750Y-34350D02*
X67050Y-34350D01*
X62300Y-34350D02*
X63400Y-34350D01*
X59300Y-34350D02*
X60900Y-34350D01*
X57050Y-34350D02*
X57900Y-34350D01*
X54950Y-34350D02*
X55350Y-34350D01*
X50950Y-34350D02*
X53250Y-34350D01*
X38150Y-34350D02*
X49250Y-34350D01*
X65750Y-34300D02*
X67050Y-34300D01*
X62300Y-34300D02*
X63350Y-34300D01*
X59300Y-34300D02*
X60900Y-34300D01*
X57050Y-34300D02*
X57900Y-34300D01*
X54950Y-34300D02*
X55350Y-34300D01*
X50950Y-34300D02*
X53250Y-34300D01*
X38150Y-34300D02*
X49250Y-34300D01*
X65700Y-34250D02*
X67050Y-34250D01*
X62300Y-34250D02*
X63350Y-34250D01*
X59300Y-34250D02*
X60900Y-34250D01*
X57050Y-34250D02*
X57900Y-34250D01*
X54950Y-34250D02*
X55350Y-34250D01*
X50950Y-34250D02*
X53250Y-34250D01*
X38150Y-34250D02*
X49250Y-34250D01*
X65700Y-34200D02*
X67050Y-34200D01*
X62350Y-34200D02*
X63300Y-34200D01*
X59350Y-34200D02*
X60850Y-34200D01*
X57050Y-34200D02*
X57850Y-34200D01*
X54950Y-34200D02*
X55350Y-34200D01*
X50950Y-34200D02*
X53250Y-34200D01*
X38150Y-34200D02*
X49250Y-34200D01*
X65700Y-34150D02*
X67050Y-34150D01*
X62350Y-34150D02*
X63300Y-34150D01*
X59350Y-34150D02*
X60850Y-34150D01*
X57050Y-34150D02*
X57850Y-34150D01*
X54950Y-34150D02*
X55350Y-34150D01*
X50950Y-34150D02*
X53250Y-34150D01*
X38150Y-34150D02*
X49250Y-34150D01*
X65650Y-34100D02*
X67050Y-34100D01*
X62400Y-34100D02*
X63300Y-34100D01*
X59400Y-34100D02*
X60800Y-34100D01*
X57050Y-34100D02*
X57800Y-34100D01*
X54950Y-34100D02*
X55350Y-34100D01*
X50950Y-34100D02*
X53250Y-34100D01*
X38150Y-34100D02*
X49250Y-34100D01*
X65650Y-34050D02*
X67050Y-34050D01*
X62400Y-34050D02*
X63250Y-34050D01*
X59400Y-34050D02*
X60800Y-34050D01*
X57050Y-34050D02*
X57800Y-34050D01*
X50950Y-34050D02*
X55350Y-34050D01*
X38150Y-34050D02*
X49250Y-34050D01*
X65600Y-34000D02*
X67050Y-34000D01*
X62450Y-34000D02*
X63250Y-34000D01*
X59450Y-34000D02*
X60750Y-34000D01*
X57050Y-34000D02*
X57750Y-34000D01*
X50950Y-34000D02*
X55350Y-34000D01*
X38150Y-34000D02*
X49250Y-34000D01*
X65550Y-33950D02*
X67050Y-33950D01*
X62450Y-33950D02*
X63250Y-33950D01*
X59450Y-33950D02*
X60750Y-33950D01*
X57050Y-33950D02*
X57750Y-33950D01*
X50950Y-33950D02*
X55350Y-33950D01*
X38150Y-33950D02*
X49250Y-33950D01*
X65550Y-33900D02*
X67050Y-33900D01*
X62450Y-33900D02*
X63250Y-33900D01*
X59450Y-33900D02*
X60750Y-33900D01*
X57050Y-33900D02*
X57750Y-33900D01*
X50950Y-33900D02*
X55350Y-33900D01*
X38150Y-33900D02*
X49250Y-33900D01*
X65600Y-33850D02*
X67050Y-33850D01*
X62450Y-33850D02*
X63250Y-33850D01*
X59450Y-33850D02*
X60750Y-33850D01*
X57050Y-33850D02*
X57750Y-33850D01*
X50950Y-33850D02*
X55350Y-33850D01*
X38150Y-33850D02*
X49250Y-33850D01*
X65650Y-33800D02*
X67050Y-33800D01*
X62450Y-33800D02*
X63250Y-33800D01*
X59450Y-33800D02*
X60750Y-33800D01*
X57050Y-33800D02*
X57750Y-33800D01*
X50950Y-33800D02*
X55350Y-33800D01*
X38150Y-33800D02*
X49250Y-33800D01*
X65650Y-33750D02*
X67050Y-33750D01*
X62450Y-33750D02*
X63250Y-33750D01*
X59450Y-33750D02*
X60750Y-33750D01*
X57050Y-33750D02*
X57750Y-33750D01*
X50950Y-33750D02*
X55350Y-33750D01*
X38150Y-33750D02*
X49250Y-33750D01*
X65700Y-33700D02*
X67050Y-33700D01*
X62450Y-33700D02*
X63300Y-33700D01*
X59450Y-33700D02*
X60750Y-33700D01*
X57050Y-33700D02*
X57750Y-33700D01*
X50950Y-33700D02*
X55350Y-33700D01*
X38150Y-33700D02*
X49250Y-33700D01*
X65700Y-33650D02*
X67050Y-33650D01*
X62450Y-33650D02*
X63300Y-33650D01*
X59450Y-33650D02*
X60750Y-33650D01*
X57050Y-33650D02*
X57750Y-33650D01*
X50950Y-33650D02*
X55350Y-33650D01*
X38150Y-33650D02*
X49250Y-33650D01*
X65700Y-33600D02*
X67050Y-33600D01*
X62450Y-33600D02*
X63300Y-33600D01*
X59450Y-33600D02*
X60750Y-33600D01*
X57050Y-33600D02*
X57750Y-33600D01*
X54350Y-33600D02*
X55350Y-33600D01*
X51350Y-33600D02*
X53850Y-33600D01*
X38150Y-33600D02*
X49250Y-33600D01*
X65750Y-33550D02*
X67050Y-33550D01*
X62400Y-33550D02*
X63350Y-33550D01*
X59400Y-33550D02*
X60800Y-33550D01*
X57050Y-33550D02*
X57800Y-33550D01*
X54450Y-33550D02*
X55350Y-33550D01*
X51450Y-33550D02*
X53750Y-33550D01*
X38150Y-33550D02*
X49250Y-33550D01*
X65750Y-33500D02*
X67050Y-33500D01*
X62400Y-33500D02*
X63350Y-33500D01*
X59400Y-33500D02*
X60800Y-33500D01*
X57050Y-33500D02*
X57800Y-33500D01*
X54550Y-33500D02*
X55350Y-33500D01*
X51550Y-33500D02*
X53650Y-33500D01*
X38150Y-33500D02*
X49250Y-33500D01*
X65750Y-33450D02*
X67050Y-33450D01*
X62350Y-33450D02*
X63400Y-33450D01*
X59350Y-33450D02*
X60850Y-33450D01*
X57050Y-33450D02*
X57850Y-33450D01*
X54650Y-33450D02*
X55350Y-33450D01*
X51650Y-33450D02*
X53550Y-33450D01*
X38150Y-33450D02*
X49250Y-33450D01*
X65750Y-33400D02*
X67050Y-33400D01*
X62350Y-33400D02*
X63450Y-33400D01*
X59350Y-33400D02*
X60850Y-33400D01*
X57050Y-33400D02*
X57850Y-33400D01*
X54700Y-33400D02*
X55350Y-33400D01*
X51700Y-33400D02*
X53500Y-33400D01*
X38150Y-33400D02*
X49250Y-33400D01*
X65750Y-33350D02*
X67050Y-33350D01*
X62300Y-33350D02*
X63450Y-33350D01*
X59300Y-33350D02*
X60900Y-33350D01*
X57050Y-33350D02*
X57900Y-33350D01*
X54750Y-33350D02*
X55350Y-33350D01*
X51750Y-33350D02*
X53450Y-33350D01*
X38150Y-33350D02*
X49250Y-33350D01*
X65750Y-33300D02*
X67050Y-33300D01*
X62300Y-33300D02*
X63400Y-33300D01*
X59300Y-33300D02*
X60900Y-33300D01*
X57050Y-33300D02*
X57900Y-33300D01*
X54800Y-33300D02*
X55350Y-33300D01*
X51800Y-33300D02*
X53400Y-33300D01*
X38150Y-33300D02*
X49250Y-33300D01*
X65750Y-33250D02*
X67050Y-33250D01*
X62300Y-33250D02*
X63350Y-33250D01*
X59300Y-33250D02*
X60900Y-33250D01*
X57050Y-33250D02*
X57900Y-33250D01*
X54800Y-33250D02*
X55350Y-33250D01*
X51800Y-33250D02*
X53400Y-33250D01*
X38150Y-33250D02*
X49250Y-33250D01*
X65700Y-33200D02*
X67050Y-33200D01*
X62350Y-33200D02*
X63350Y-33200D01*
X59350Y-33200D02*
X60850Y-33200D01*
X57050Y-33200D02*
X57850Y-33200D01*
X54850Y-33200D02*
X55350Y-33200D01*
X51850Y-33200D02*
X53350Y-33200D01*
X38150Y-33200D02*
X49250Y-33200D01*
X65700Y-33150D02*
X67050Y-33150D01*
X62350Y-33150D02*
X63300Y-33150D01*
X59350Y-33150D02*
X60850Y-33150D01*
X57050Y-33150D02*
X57850Y-33150D01*
X54850Y-33150D02*
X55350Y-33150D01*
X51850Y-33150D02*
X53350Y-33150D01*
X38150Y-33150D02*
X49250Y-33150D01*
X65700Y-33100D02*
X67050Y-33100D01*
X62400Y-33100D02*
X63300Y-33100D01*
X59400Y-33100D02*
X60800Y-33100D01*
X57050Y-33100D02*
X57800Y-33100D01*
X54900Y-33100D02*
X55350Y-33100D01*
X51900Y-33100D02*
X53300Y-33100D01*
X38150Y-33100D02*
X49250Y-33100D01*
X65650Y-33050D02*
X67050Y-33050D01*
X62400Y-33050D02*
X63300Y-33050D01*
X59400Y-33050D02*
X60800Y-33050D01*
X57050Y-33050D02*
X57800Y-33050D01*
X54900Y-33050D02*
X55350Y-33050D01*
X51900Y-33050D02*
X53300Y-33050D01*
X38150Y-33050D02*
X49250Y-33050D01*
X65650Y-33000D02*
X67050Y-33000D01*
X62450Y-33000D02*
X63250Y-33000D01*
X59450Y-33000D02*
X60750Y-33000D01*
X57050Y-33000D02*
X57750Y-33000D01*
X54950Y-33000D02*
X55350Y-33000D01*
X51950Y-33000D02*
X53250Y-33000D01*
X38150Y-33000D02*
X49250Y-33000D01*
X65600Y-32950D02*
X67050Y-32950D01*
X62450Y-32950D02*
X63250Y-32950D01*
X59450Y-32950D02*
X60750Y-32950D01*
X57050Y-32950D02*
X57750Y-32950D01*
X54950Y-32950D02*
X55350Y-32950D01*
X51950Y-32950D02*
X53250Y-32950D01*
X38150Y-32950D02*
X50250Y-32950D01*
X65600Y-32900D02*
X67050Y-32900D01*
X62450Y-32900D02*
X63250Y-32900D01*
X59450Y-32900D02*
X60750Y-32900D01*
X57050Y-32900D02*
X57750Y-32900D01*
X54950Y-32900D02*
X55350Y-32900D01*
X51950Y-32900D02*
X53250Y-32900D01*
X38150Y-32900D02*
X50250Y-32900D01*
X65650Y-32850D02*
X67050Y-32850D01*
X62450Y-32850D02*
X63250Y-32850D01*
X59450Y-32850D02*
X60750Y-32850D01*
X57050Y-32850D02*
X57750Y-32850D01*
X54950Y-32850D02*
X55350Y-32850D01*
X51950Y-32850D02*
X53250Y-32850D01*
X38150Y-32850D02*
X50250Y-32850D01*
X65700Y-32800D02*
X67050Y-32800D01*
X62450Y-32800D02*
X63250Y-32800D01*
X59450Y-32800D02*
X60750Y-32800D01*
X57050Y-32800D02*
X57750Y-32800D01*
X54950Y-32800D02*
X55350Y-32800D01*
X51950Y-32800D02*
X53250Y-32800D01*
X38150Y-32800D02*
X50250Y-32800D01*
X65700Y-32750D02*
X67050Y-32750D01*
X62450Y-32750D02*
X63250Y-32750D01*
X59450Y-32750D02*
X60750Y-32750D01*
X57050Y-32750D02*
X57750Y-32750D01*
X54950Y-32750D02*
X55350Y-32750D01*
X51950Y-32750D02*
X53250Y-32750D01*
X38150Y-32750D02*
X50250Y-32750D01*
X65750Y-32700D02*
X67050Y-32700D01*
X62450Y-32700D02*
X63250Y-32700D01*
X59450Y-32700D02*
X60750Y-32700D01*
X57050Y-32700D02*
X57750Y-32700D01*
X54950Y-32700D02*
X55350Y-32700D01*
X51950Y-32700D02*
X53250Y-32700D01*
X38150Y-32700D02*
X50250Y-32700D01*
X65750Y-32650D02*
X67050Y-32650D01*
X62450Y-32650D02*
X63300Y-32650D01*
X59450Y-32650D02*
X60750Y-32650D01*
X57050Y-32650D02*
X57750Y-32650D01*
X54950Y-32650D02*
X55350Y-32650D01*
X51950Y-32650D02*
X53250Y-32650D01*
X38150Y-32650D02*
X50250Y-32650D01*
X65800Y-32600D02*
X67050Y-32600D01*
X62450Y-32600D02*
X63300Y-32600D01*
X59450Y-32600D02*
X60750Y-32600D01*
X57050Y-32600D02*
X57750Y-32600D01*
X54950Y-32600D02*
X55350Y-32600D01*
X51950Y-32600D02*
X53250Y-32600D01*
X38150Y-32600D02*
X50250Y-32600D01*
X65800Y-32550D02*
X67050Y-32550D01*
X62400Y-32550D02*
X63150Y-32550D01*
X59400Y-32550D02*
X60800Y-32550D01*
X57000Y-32550D02*
X57800Y-32550D01*
X54950Y-32550D02*
X55400Y-32550D01*
X51900Y-32550D02*
X53250Y-32550D01*
X38150Y-32550D02*
X50300Y-32550D01*
X65850Y-32500D02*
X67050Y-32500D01*
X62400Y-32500D02*
X63150Y-32500D01*
X59400Y-32500D02*
X60800Y-32500D01*
X57000Y-32500D02*
X57800Y-32500D01*
X54950Y-32500D02*
X55400Y-32500D01*
X51900Y-32500D02*
X53250Y-32500D01*
X38150Y-32500D02*
X50300Y-32500D01*
X65850Y-32450D02*
X67050Y-32450D01*
X62350Y-32450D02*
X63150Y-32450D01*
X59350Y-32450D02*
X60850Y-32450D01*
X56950Y-32450D02*
X57850Y-32450D01*
X54950Y-32450D02*
X55450Y-32450D01*
X51850Y-32450D02*
X53250Y-32450D01*
X38150Y-32450D02*
X50350Y-32450D01*
X65850Y-32400D02*
X67050Y-32400D01*
X62350Y-32400D02*
X63150Y-32400D01*
X59350Y-32400D02*
X60850Y-32400D01*
X56950Y-32400D02*
X57850Y-32400D01*
X54950Y-32400D02*
X55450Y-32400D01*
X51850Y-32400D02*
X53250Y-32400D01*
X38150Y-32400D02*
X50350Y-32400D01*
X65850Y-32350D02*
X67050Y-32350D01*
X62300Y-32350D02*
X63150Y-32350D01*
X59300Y-32350D02*
X60900Y-32350D01*
X56900Y-32350D02*
X57900Y-32350D01*
X54950Y-32350D02*
X55500Y-32350D01*
X51800Y-32350D02*
X53250Y-32350D01*
X38150Y-32350D02*
X50400Y-32350D01*
X65850Y-32300D02*
X67050Y-32300D01*
X62300Y-32300D02*
X63150Y-32300D01*
X59300Y-32300D02*
X60900Y-32300D01*
X56900Y-32300D02*
X57900Y-32300D01*
X54950Y-32300D02*
X55500Y-32300D01*
X51800Y-32300D02*
X53250Y-32300D01*
X38150Y-32300D02*
X50400Y-32300D01*
X65850Y-32250D02*
X67050Y-32250D01*
X62250Y-32250D02*
X63150Y-32250D01*
X59300Y-32250D02*
X60950Y-32250D01*
X56850Y-32250D02*
X57900Y-32250D01*
X54950Y-32250D02*
X55550Y-32250D01*
X51750Y-32250D02*
X53250Y-32250D01*
X38150Y-32250D02*
X50450Y-32250D01*
X65850Y-32200D02*
X67050Y-32200D01*
X62200Y-32200D02*
X63150Y-32200D01*
X59350Y-32200D02*
X61000Y-32200D01*
X56800Y-32200D02*
X57850Y-32200D01*
X54950Y-32200D02*
X55600Y-32200D01*
X51700Y-32200D02*
X53250Y-32200D01*
X38150Y-32200D02*
X50500Y-32200D01*
X65850Y-32150D02*
X67050Y-32150D01*
X62150Y-32150D02*
X63150Y-32150D01*
X59350Y-32150D02*
X61050Y-32150D01*
X56750Y-32150D02*
X57850Y-32150D01*
X54950Y-32150D02*
X55650Y-32150D01*
X51650Y-32150D02*
X53250Y-32150D01*
X38150Y-32150D02*
X50550Y-32150D01*
X65850Y-32100D02*
X67050Y-32100D01*
X62050Y-32100D02*
X63150Y-32100D01*
X59400Y-32100D02*
X61150Y-32100D01*
X56650Y-32100D02*
X57800Y-32100D01*
X54950Y-32100D02*
X55750Y-32100D01*
X51550Y-32100D02*
X53250Y-32100D01*
X38150Y-32100D02*
X50650Y-32100D01*
X65800Y-32050D02*
X67050Y-32050D01*
X61950Y-32050D02*
X63150Y-32050D01*
X59400Y-32050D02*
X61250Y-32050D01*
X56550Y-32050D02*
X57800Y-32050D01*
X54950Y-32050D02*
X55850Y-32050D01*
X51450Y-32050D02*
X53250Y-32050D01*
X38150Y-32050D02*
X50750Y-32050D01*
X65800Y-32000D02*
X67050Y-32000D01*
X61850Y-32000D02*
X63150Y-32000D01*
X59450Y-32000D02*
X61350Y-32000D01*
X56450Y-32000D02*
X57750Y-32000D01*
X54950Y-32000D02*
X55950Y-32000D01*
X51350Y-32000D02*
X53250Y-32000D01*
X38150Y-32000D02*
X50850Y-32000D01*
X65750Y-31950D02*
X67050Y-31950D01*
X59450Y-31950D02*
X63150Y-31950D01*
X54950Y-31950D02*
X57750Y-31950D01*
X44900Y-31950D02*
X53250Y-31950D01*
X38150Y-31950D02*
X42500Y-31950D01*
X65750Y-31900D02*
X67050Y-31900D01*
X59450Y-31900D02*
X63150Y-31900D01*
X54950Y-31900D02*
X57750Y-31900D01*
X44900Y-31900D02*
X53250Y-31900D01*
X38150Y-31900D02*
X42500Y-31900D01*
X65700Y-31850D02*
X67050Y-31850D01*
X59450Y-31850D02*
X63150Y-31850D01*
X54950Y-31850D02*
X57750Y-31850D01*
X44900Y-31850D02*
X53250Y-31850D01*
X38150Y-31850D02*
X42500Y-31850D01*
X65700Y-31800D02*
X67050Y-31800D01*
X59450Y-31800D02*
X63150Y-31800D01*
X54950Y-31800D02*
X57750Y-31800D01*
X44900Y-31800D02*
X53250Y-31800D01*
X38150Y-31800D02*
X42500Y-31800D01*
X65650Y-31750D02*
X67050Y-31750D01*
X59450Y-31750D02*
X63150Y-31750D01*
X54950Y-31750D02*
X57750Y-31750D01*
X44900Y-31750D02*
X53250Y-31750D01*
X38150Y-31750D02*
X42500Y-31750D01*
X65600Y-31700D02*
X67050Y-31700D01*
X59450Y-31700D02*
X63150Y-31700D01*
X54950Y-31700D02*
X57750Y-31700D01*
X44900Y-31700D02*
X53250Y-31700D01*
X38150Y-31700D02*
X42500Y-31700D01*
X65550Y-31650D02*
X67050Y-31650D01*
X59450Y-31650D02*
X63150Y-31650D01*
X54950Y-31650D02*
X57750Y-31650D01*
X44900Y-31650D02*
X53250Y-31650D01*
X38150Y-31650D02*
X42500Y-31650D01*
X65450Y-31600D02*
X67050Y-31600D01*
X61850Y-31600D02*
X63150Y-31600D01*
X59450Y-31600D02*
X61350Y-31600D01*
X56950Y-31600D02*
X57750Y-31600D01*
X54950Y-31600D02*
X55450Y-31600D01*
X44900Y-31600D02*
X53250Y-31600D01*
X38150Y-31600D02*
X42500Y-31600D01*
X65350Y-31550D02*
X67050Y-31550D01*
X61950Y-31550D02*
X63150Y-31550D01*
X59450Y-31550D02*
X61250Y-31550D01*
X56950Y-31550D02*
X57750Y-31550D01*
X54950Y-31550D02*
X55450Y-31550D01*
X44900Y-31550D02*
X53250Y-31550D01*
X38150Y-31550D02*
X42500Y-31550D01*
X65250Y-31500D02*
X67050Y-31500D01*
X62050Y-31500D02*
X63150Y-31500D01*
X59450Y-31500D02*
X61150Y-31500D01*
X56950Y-31500D02*
X57750Y-31500D01*
X54950Y-31500D02*
X55450Y-31500D01*
X44900Y-31500D02*
X53250Y-31500D01*
X38150Y-31500D02*
X42500Y-31500D01*
X64850Y-31450D02*
X67050Y-31450D01*
X62150Y-31450D02*
X63150Y-31450D01*
X59450Y-31450D02*
X61050Y-31450D01*
X56950Y-31450D02*
X57750Y-31450D01*
X54950Y-31450D02*
X55450Y-31450D01*
X44900Y-31450D02*
X53250Y-31450D01*
X38150Y-31450D02*
X42500Y-31450D01*
X64850Y-31400D02*
X67050Y-31400D01*
X62200Y-31400D02*
X63150Y-31400D01*
X59450Y-31400D02*
X61000Y-31400D01*
X56950Y-31400D02*
X57750Y-31400D01*
X54950Y-31400D02*
X55450Y-31400D01*
X44900Y-31400D02*
X53250Y-31400D01*
X38150Y-31400D02*
X42500Y-31400D01*
X64850Y-31350D02*
X67050Y-31350D01*
X62250Y-31350D02*
X63150Y-31350D01*
X59450Y-31350D02*
X60950Y-31350D01*
X56950Y-31350D02*
X57750Y-31350D01*
X54950Y-31350D02*
X55450Y-31350D01*
X44900Y-31350D02*
X53250Y-31350D01*
X38150Y-31350D02*
X42500Y-31350D01*
X64850Y-31300D02*
X67050Y-31300D01*
X62300Y-31300D02*
X63150Y-31300D01*
X59450Y-31300D02*
X60900Y-31300D01*
X56950Y-31300D02*
X57750Y-31300D01*
X54950Y-31300D02*
X55450Y-31300D01*
X44900Y-31300D02*
X53250Y-31300D01*
X38150Y-31300D02*
X42500Y-31300D01*
X64850Y-31250D02*
X67050Y-31250D01*
X62300Y-31250D02*
X63150Y-31250D01*
X59450Y-31250D02*
X60900Y-31250D01*
X56950Y-31250D02*
X57750Y-31250D01*
X54950Y-31250D02*
X55450Y-31250D01*
X44900Y-31250D02*
X53250Y-31250D01*
X38150Y-31250D02*
X42500Y-31250D01*
X64850Y-31200D02*
X67050Y-31200D01*
X62350Y-31200D02*
X63150Y-31200D01*
X59450Y-31200D02*
X60850Y-31200D01*
X56950Y-31200D02*
X57750Y-31200D01*
X54950Y-31200D02*
X55450Y-31200D01*
X44900Y-31200D02*
X53250Y-31200D01*
X38150Y-31200D02*
X42500Y-31200D01*
X64850Y-31150D02*
X67050Y-31150D01*
X62350Y-31150D02*
X63150Y-31150D01*
X59450Y-31150D02*
X60850Y-31150D01*
X56950Y-31150D02*
X57750Y-31150D01*
X54950Y-31150D02*
X55450Y-31150D01*
X44900Y-31150D02*
X53250Y-31150D01*
X38150Y-31150D02*
X42500Y-31150D01*
X64850Y-31100D02*
X67050Y-31100D01*
X62400Y-31100D02*
X63150Y-31100D01*
X59450Y-31100D02*
X60800Y-31100D01*
X56950Y-31100D02*
X57750Y-31100D01*
X54950Y-31100D02*
X55450Y-31100D01*
X44900Y-31100D02*
X53250Y-31100D01*
X38150Y-31100D02*
X42500Y-31100D01*
X64850Y-31050D02*
X67050Y-31050D01*
X62400Y-31050D02*
X63150Y-31050D01*
X59450Y-31050D02*
X60800Y-31050D01*
X56950Y-31050D02*
X57750Y-31050D01*
X54950Y-31050D02*
X55450Y-31050D01*
X44900Y-31050D02*
X53250Y-31050D01*
X38150Y-31050D02*
X42500Y-31050D01*
X64850Y-31000D02*
X67050Y-31000D01*
X62450Y-31000D02*
X63150Y-31000D01*
X59450Y-31000D02*
X60750Y-31000D01*
X56950Y-31000D02*
X57750Y-31000D01*
X54950Y-31000D02*
X55450Y-31000D01*
X44900Y-31000D02*
X53250Y-31000D01*
X38150Y-31000D02*
X42500Y-31000D01*
X64850Y-30950D02*
X67050Y-30950D01*
X62450Y-30950D02*
X63150Y-30950D01*
X59450Y-30950D02*
X60750Y-30950D01*
X56950Y-30950D02*
X57750Y-30950D01*
X44900Y-30950D02*
X55450Y-30950D01*
X38150Y-30950D02*
X42500Y-30950D01*
X62450Y-30900D02*
X67050Y-30900D01*
X59450Y-30900D02*
X60750Y-30900D01*
X56950Y-30900D02*
X57750Y-30900D01*
X44900Y-30900D02*
X55450Y-30900D01*
X38150Y-30900D02*
X42500Y-30900D01*
X62450Y-30850D02*
X67050Y-30850D01*
X59450Y-30850D02*
X60750Y-30850D01*
X56950Y-30850D02*
X57750Y-30850D01*
X44900Y-30850D02*
X55450Y-30850D01*
X38150Y-30850D02*
X42500Y-30850D01*
X62450Y-30800D02*
X67050Y-30800D01*
X59450Y-30800D02*
X60750Y-30800D01*
X56950Y-30800D02*
X57750Y-30800D01*
X44900Y-30800D02*
X55450Y-30800D01*
X38150Y-30800D02*
X42500Y-30800D01*
X62450Y-30750D02*
X67050Y-30750D01*
X59450Y-30750D02*
X60750Y-30750D01*
X56950Y-30750D02*
X57750Y-30750D01*
X44900Y-30750D02*
X55450Y-30750D01*
X38150Y-30750D02*
X42500Y-30750D01*
X62450Y-30700D02*
X67050Y-30700D01*
X59450Y-30700D02*
X60750Y-30700D01*
X56950Y-30700D02*
X57750Y-30700D01*
X44900Y-30700D02*
X55450Y-30700D01*
X38150Y-30700D02*
X42500Y-30700D01*
X62450Y-30650D02*
X67050Y-30650D01*
X59450Y-30650D02*
X60750Y-30650D01*
X56950Y-30650D02*
X57750Y-30650D01*
X44900Y-30650D02*
X55450Y-30650D01*
X38150Y-30650D02*
X42500Y-30650D01*
X62450Y-30600D02*
X67050Y-30600D01*
X59450Y-30600D02*
X60750Y-30600D01*
X56950Y-30600D02*
X57750Y-30600D01*
X44900Y-30600D02*
X55450Y-30600D01*
X38150Y-30600D02*
X42500Y-30600D01*
X62400Y-30550D02*
X67050Y-30550D01*
X59450Y-30550D02*
X60800Y-30550D01*
X56950Y-30550D02*
X57750Y-30550D01*
X44900Y-30550D02*
X55450Y-30550D01*
X38150Y-30550D02*
X42500Y-30550D01*
X62400Y-30500D02*
X67050Y-30500D01*
X59450Y-30500D02*
X60800Y-30500D01*
X56950Y-30500D02*
X57750Y-30500D01*
X44900Y-30500D02*
X55450Y-30500D01*
X38150Y-30500D02*
X42500Y-30500D01*
X62350Y-30450D02*
X67050Y-30450D01*
X59450Y-30450D02*
X60850Y-30450D01*
X56950Y-30450D02*
X57750Y-30450D01*
X44900Y-30450D02*
X55450Y-30450D01*
X38150Y-30450D02*
X42500Y-30450D01*
X62350Y-30400D02*
X67050Y-30400D01*
X59450Y-30400D02*
X60850Y-30400D01*
X56950Y-30400D02*
X57750Y-30400D01*
X44900Y-30400D02*
X55450Y-30400D01*
X38150Y-30400D02*
X42500Y-30400D01*
X62300Y-30350D02*
X67050Y-30350D01*
X59450Y-30350D02*
X60900Y-30350D01*
X56950Y-30350D02*
X57750Y-30350D01*
X44900Y-30350D02*
X55450Y-30350D01*
X38150Y-30350D02*
X42500Y-30350D01*
X62300Y-30300D02*
X67050Y-30300D01*
X59450Y-30300D02*
X60900Y-30300D01*
X56950Y-30300D02*
X57750Y-30300D01*
X44900Y-30300D02*
X55450Y-30300D01*
X38150Y-30300D02*
X42500Y-30300D01*
X62250Y-30250D02*
X67050Y-30250D01*
X59450Y-30250D02*
X60950Y-30250D01*
X56950Y-30250D02*
X57750Y-30250D01*
X44900Y-30250D02*
X55450Y-30250D01*
X38150Y-30250D02*
X42500Y-30250D01*
X62200Y-30200D02*
X67050Y-30200D01*
X59450Y-30200D02*
X61000Y-30200D01*
X56950Y-30200D02*
X57750Y-30200D01*
X44900Y-30200D02*
X55450Y-30200D01*
X38150Y-30200D02*
X42500Y-30200D01*
X62150Y-30150D02*
X67050Y-30150D01*
X59450Y-30150D02*
X61050Y-30150D01*
X56950Y-30150D02*
X57750Y-30150D01*
X44900Y-30150D02*
X55450Y-30150D01*
X38150Y-30150D02*
X42500Y-30150D01*
X62050Y-30100D02*
X67050Y-30100D01*
X59450Y-30100D02*
X61150Y-30100D01*
X56950Y-30100D02*
X57750Y-30100D01*
X44900Y-30100D02*
X55450Y-30100D01*
X38150Y-30100D02*
X42500Y-30100D01*
X64750Y-30050D02*
X67050Y-30050D01*
X61950Y-30050D02*
X64250Y-30050D01*
X59450Y-30050D02*
X61250Y-30050D01*
X56950Y-30050D02*
X57750Y-30050D01*
X44900Y-30050D02*
X55450Y-30050D01*
X38150Y-30050D02*
X42500Y-30050D01*
X64950Y-30000D02*
X67050Y-30000D01*
X61850Y-30000D02*
X64050Y-30000D01*
X59450Y-30000D02*
X61350Y-30000D01*
X56950Y-30000D02*
X57750Y-30000D01*
X44900Y-30000D02*
X55450Y-30000D01*
X38150Y-30000D02*
X42500Y-30000D01*
X65050Y-29950D02*
X67050Y-29950D01*
X44900Y-29950D02*
X63950Y-29950D01*
X38150Y-29950D02*
X42500Y-29950D01*
X65150Y-29900D02*
X67050Y-29900D01*
X44900Y-29900D02*
X63850Y-29900D01*
X38150Y-29900D02*
X42500Y-29900D01*
X65200Y-29850D02*
X67050Y-29850D01*
X44900Y-29850D02*
X63800Y-29850D01*
X38150Y-29850D02*
X42500Y-29850D01*
X65300Y-29800D02*
X67050Y-29800D01*
X44900Y-29800D02*
X63700Y-29800D01*
X38150Y-29800D02*
X42500Y-29800D01*
X65350Y-29750D02*
X67050Y-29750D01*
X44900Y-29750D02*
X63650Y-29750D01*
X38150Y-29750D02*
X42500Y-29750D01*
X65400Y-29700D02*
X67050Y-29700D01*
X44900Y-29700D02*
X63600Y-29700D01*
X38150Y-29700D02*
X42500Y-29700D01*
X65450Y-29650D02*
X67050Y-29650D01*
X44900Y-29650D02*
X63550Y-29650D01*
X38150Y-29650D02*
X42500Y-29650D01*
X65450Y-29600D02*
X67050Y-29600D01*
X38150Y-29600D02*
X63550Y-29600D01*
X65500Y-29550D02*
X67050Y-29550D01*
X38150Y-29550D02*
X63500Y-29550D01*
X65550Y-29500D02*
X67050Y-29500D01*
X38150Y-29500D02*
X63450Y-29500D01*
X65550Y-29450D02*
X67050Y-29450D01*
X38150Y-29450D02*
X63450Y-29450D01*
X65600Y-29400D02*
X67050Y-29400D01*
X38150Y-29400D02*
X63400Y-29400D01*
X65600Y-29350D02*
X67050Y-29350D01*
X38150Y-29350D02*
X63400Y-29350D01*
X65650Y-29300D02*
X67050Y-29300D01*
X38150Y-29300D02*
X63350Y-29300D01*
X65650Y-29250D02*
X67050Y-29250D01*
X38150Y-29250D02*
X63350Y-29250D01*
X65650Y-29200D02*
X67050Y-29200D01*
X38150Y-29200D02*
X63350Y-29200D01*
X65650Y-29150D02*
X67050Y-29150D01*
X38150Y-29150D02*
X63350Y-29150D01*
X65700Y-29100D02*
X67050Y-29100D01*
X38150Y-29100D02*
X63300Y-29100D01*
X65700Y-29050D02*
X67050Y-29050D01*
X38150Y-29050D02*
X63300Y-29050D01*
X65700Y-29000D02*
X67050Y-29000D01*
X38150Y-29000D02*
X63300Y-29000D01*
X65700Y-28950D02*
X67050Y-28950D01*
X38150Y-28950D02*
X63300Y-28950D01*
X65700Y-28900D02*
X67050Y-28900D01*
X38150Y-28900D02*
X63300Y-28900D01*
X65700Y-28850D02*
X67050Y-28850D01*
X38150Y-28850D02*
X63300Y-28850D01*
X65700Y-28800D02*
X67050Y-28800D01*
X38150Y-28800D02*
X63300Y-28800D01*
X65700Y-28750D02*
X67050Y-28750D01*
X38150Y-28750D02*
X63300Y-28750D01*
X65700Y-28700D02*
X67050Y-28700D01*
X38150Y-28700D02*
X63300Y-28700D01*
X65650Y-28650D02*
X67050Y-28650D01*
X38150Y-28650D02*
X63350Y-28650D01*
X65650Y-28600D02*
X67050Y-28600D01*
X38150Y-28600D02*
X63350Y-28600D01*
X65650Y-28550D02*
X67050Y-28550D01*
X38150Y-28550D02*
X63350Y-28550D01*
X65650Y-28500D02*
X67050Y-28500D01*
X38150Y-28500D02*
X63350Y-28500D01*
X65600Y-28450D02*
X67050Y-28450D01*
X38150Y-28450D02*
X63400Y-28450D01*
X65600Y-28400D02*
X67050Y-28400D01*
X38150Y-28400D02*
X63400Y-28400D01*
X65550Y-28350D02*
X67050Y-28350D01*
X38150Y-28350D02*
X63450Y-28350D01*
X65550Y-28300D02*
X67050Y-28300D01*
X38150Y-28300D02*
X63450Y-28300D01*
X65500Y-28250D02*
X67050Y-28250D01*
X38150Y-28250D02*
X63500Y-28250D01*
X65450Y-28200D02*
X67050Y-28200D01*
X38150Y-28200D02*
X63550Y-28200D01*
X65450Y-28150D02*
X67050Y-28150D01*
X38150Y-28150D02*
X63550Y-28150D01*
X65400Y-28100D02*
X67050Y-28100D01*
X38150Y-28100D02*
X63600Y-28100D01*
X65350Y-28050D02*
X67050Y-28050D01*
X38150Y-28050D02*
X63650Y-28050D01*
X65300Y-28000D02*
X67050Y-28000D01*
X38150Y-28000D02*
X63700Y-28000D01*
X65200Y-27950D02*
X67050Y-27950D01*
X38150Y-27950D02*
X63800Y-27950D01*
X65150Y-27900D02*
X67050Y-27900D01*
X38150Y-27900D02*
X63850Y-27900D01*
X65050Y-27850D02*
X67050Y-27850D01*
X38150Y-27850D02*
X63950Y-27850D01*
X64950Y-27800D02*
X67050Y-27800D01*
X38150Y-27800D02*
X64050Y-27800D01*
X64750Y-27750D02*
X67050Y-27750D01*
X38150Y-27750D02*
X64250Y-27750D01*
X38150Y-27700D02*
X67050Y-27700D01*
X38150Y-27650D02*
X67050Y-27650D01*
X38150Y-27600D02*
X67050Y-27600D01*
X38150Y-27550D02*
X67050Y-27550D01*
X38150Y-27500D02*
X67050Y-27500D01*
X38150Y-27450D02*
X67050Y-27450D01*
X38150Y-27400D02*
X67050Y-27400D01*
X38150Y-27350D02*
X67050Y-27350D01*
X38150Y-27300D02*
X67050Y-27300D01*
X38150Y-27250D02*
X67050Y-27250D01*
X38150Y-27200D02*
X67050Y-27200D01*
X38150Y-27150D02*
X67050Y-27150D01*
X38150Y-27100D02*
X67050Y-27100D01*
X38150Y-27050D02*
X67050Y-27050D01*
X38150Y-27000D02*
X67050Y-27000D01*
X38150Y-26950D02*
X67050Y-26950D01*
X38150Y-26900D02*
X67050Y-26900D01*
X38150Y-26850D02*
X67050Y-26850D01*
X38150Y-26800D02*
X67050Y-26800D01*
X38150Y-26750D02*
X67050Y-26750D01*
X38150Y-26700D02*
X67050Y-26700D01*
X38150Y-26650D02*
X67050Y-26650D01*
X38150Y-26600D02*
X67050Y-26600D01*
X38150Y-26550D02*
X67050Y-26550D01*
X38150Y-26500D02*
X67050Y-26500D01*
X38150Y-26450D02*
X67050Y-26450D01*
X38150Y-26400D02*
X67050Y-26400D01*
X38150Y-26350D02*
X67050Y-26350D01*
X38150Y-26300D02*
X67050Y-26300D01*
X38150Y-26250D02*
X67050Y-26250D01*
X38150Y-26200D02*
X67050Y-26200D01*
X38150Y-26150D02*
X67050Y-26150D01*
X38150Y-26100D02*
X67050Y-26100D01*
X38150Y-26050D02*
X67050Y-26050D01*
X38150Y-26000D02*
X67050Y-26000D01*
X38150Y-25950D02*
X67050Y-25950D01*
X38150Y-25900D02*
X67050Y-25900D01*
X38150Y-25850D02*
X67050Y-25850D01*
X38150Y-25800D02*
X67050Y-25800D01*
X38150Y-25750D02*
X67050Y-25750D01*
X38150Y-25700D02*
X67050Y-25700D01*
X38150Y-25650D02*
X67050Y-25650D01*
X38150Y-25600D02*
X67050Y-25600D01*
X38150Y-25550D02*
X67050Y-25550D01*
X38150Y-25500D02*
X67050Y-25500D01*
X38150Y-25450D02*
X67050Y-25450D01*
X38150Y-25400D02*
X67050Y-25400D01*
X38150Y-25350D02*
X67050Y-25350D01*
X66350Y-25300D02*
X67050Y-25300D01*
X62350Y-25300D02*
X64650Y-25300D01*
X58350Y-25300D02*
X60650Y-25300D01*
X54350Y-25300D02*
X56650Y-25300D01*
X50350Y-25300D02*
X52650Y-25300D01*
X46350Y-25300D02*
X48650Y-25300D01*
X42350Y-25300D02*
X44650Y-25300D01*
X38150Y-25300D02*
X40650Y-25300D01*
X66350Y-25250D02*
X67050Y-25250D01*
X62350Y-25250D02*
X64650Y-25250D01*
X58350Y-25250D02*
X60650Y-25250D01*
X54350Y-25250D02*
X56650Y-25250D01*
X50350Y-25250D02*
X52650Y-25250D01*
X46350Y-25250D02*
X48650Y-25250D01*
X42350Y-25250D02*
X44650Y-25250D01*
X38150Y-25250D02*
X40650Y-25250D01*
X66350Y-25200D02*
X67050Y-25200D01*
X62350Y-25200D02*
X64650Y-25200D01*
X58350Y-25200D02*
X60650Y-25200D01*
X54350Y-25200D02*
X56650Y-25200D01*
X50350Y-25200D02*
X52650Y-25200D01*
X46350Y-25200D02*
X48650Y-25200D01*
X42350Y-25200D02*
X44650Y-25200D01*
X38150Y-25200D02*
X40650Y-25200D01*
X66350Y-25150D02*
X67050Y-25150D01*
X62350Y-25150D02*
X64650Y-25150D01*
X58350Y-25150D02*
X60650Y-25150D01*
X54350Y-25150D02*
X56650Y-25150D01*
X50350Y-25150D02*
X52650Y-25150D01*
X46350Y-25150D02*
X48650Y-25150D01*
X42350Y-25150D02*
X44650Y-25150D01*
X38150Y-25150D02*
X40650Y-25150D01*
X66350Y-25100D02*
X67050Y-25100D01*
X62350Y-25100D02*
X64650Y-25100D01*
X58350Y-25100D02*
X60650Y-25100D01*
X54350Y-25100D02*
X56650Y-25100D01*
X50350Y-25100D02*
X52650Y-25100D01*
X46350Y-25100D02*
X48650Y-25100D01*
X42350Y-25100D02*
X44650Y-25100D01*
X38150Y-25100D02*
X40650Y-25100D01*
X66350Y-25050D02*
X67050Y-25050D01*
X62350Y-25050D02*
X64650Y-25050D01*
X58350Y-25050D02*
X60650Y-25050D01*
X54350Y-25050D02*
X56650Y-25050D01*
X50350Y-25050D02*
X52650Y-25050D01*
X46350Y-25050D02*
X48650Y-25050D01*
X42350Y-25050D02*
X44650Y-25050D01*
X38150Y-25050D02*
X40650Y-25050D01*
X66350Y-25000D02*
X67050Y-25000D01*
X62350Y-25000D02*
X64650Y-25000D01*
X58350Y-25000D02*
X60650Y-25000D01*
X54350Y-25000D02*
X56650Y-25000D01*
X50350Y-25000D02*
X52650Y-25000D01*
X46350Y-25000D02*
X48650Y-25000D01*
X42350Y-25000D02*
X44650Y-25000D01*
X38150Y-25000D02*
X40650Y-25000D01*
X66350Y-24950D02*
X67050Y-24950D01*
X62350Y-24950D02*
X64650Y-24950D01*
X58350Y-24950D02*
X60650Y-24950D01*
X54350Y-24950D02*
X56650Y-24950D01*
X50350Y-24950D02*
X52650Y-24950D01*
X46350Y-24950D02*
X48650Y-24950D01*
X42350Y-24950D02*
X44650Y-24950D01*
X38150Y-24950D02*
X40650Y-24950D01*
X66350Y-24900D02*
X67050Y-24900D01*
X62350Y-24900D02*
X64650Y-24900D01*
X58350Y-24900D02*
X60650Y-24900D01*
X54350Y-24900D02*
X56650Y-24900D01*
X50350Y-24900D02*
X52650Y-24900D01*
X46350Y-24900D02*
X48650Y-24900D01*
X42350Y-24900D02*
X44650Y-24900D01*
X38150Y-24900D02*
X40650Y-24900D01*
X66350Y-24850D02*
X67050Y-24850D01*
X62350Y-24850D02*
X64650Y-24850D01*
X58350Y-24850D02*
X60650Y-24850D01*
X54350Y-24850D02*
X56650Y-24850D01*
X50350Y-24850D02*
X52650Y-24850D01*
X46350Y-24850D02*
X48650Y-24850D01*
X42350Y-24850D02*
X44650Y-24850D01*
X38150Y-24850D02*
X40650Y-24850D01*
X66350Y-24800D02*
X67050Y-24800D01*
X62350Y-24800D02*
X64650Y-24800D01*
X58350Y-24800D02*
X60650Y-24800D01*
X54350Y-24800D02*
X56650Y-24800D01*
X50350Y-24800D02*
X52650Y-24800D01*
X46350Y-24800D02*
X48650Y-24800D01*
X42350Y-24800D02*
X44650Y-24800D01*
X38150Y-24800D02*
X40650Y-24800D01*
X66350Y-24750D02*
X67050Y-24750D01*
X62350Y-24750D02*
X64650Y-24750D01*
X58350Y-24750D02*
X60650Y-24750D01*
X54350Y-24750D02*
X56650Y-24750D01*
X50350Y-24750D02*
X52650Y-24750D01*
X46350Y-24750D02*
X48650Y-24750D01*
X42350Y-24750D02*
X44650Y-24750D01*
X38150Y-24750D02*
X40650Y-24750D01*
X66350Y-24700D02*
X67050Y-24700D01*
X62350Y-24700D02*
X64650Y-24700D01*
X58350Y-24700D02*
X60650Y-24700D01*
X54350Y-24700D02*
X56650Y-24700D01*
X50350Y-24700D02*
X52650Y-24700D01*
X46350Y-24700D02*
X48650Y-24700D01*
X42350Y-24700D02*
X44650Y-24700D01*
X38150Y-24700D02*
X40650Y-24700D01*
X66350Y-24650D02*
X67050Y-24650D01*
X62350Y-24650D02*
X64650Y-24650D01*
X58350Y-24650D02*
X60650Y-24650D01*
X54350Y-24650D02*
X56650Y-24650D01*
X50350Y-24650D02*
X52650Y-24650D01*
X46350Y-24650D02*
X48650Y-24650D01*
X42350Y-24650D02*
X44650Y-24650D01*
X38150Y-24650D02*
X40650Y-24650D01*
X66350Y-24600D02*
X67050Y-24600D01*
X62350Y-24600D02*
X64650Y-24600D01*
X58350Y-24600D02*
X60650Y-24600D01*
X54350Y-24600D02*
X56650Y-24600D01*
X50350Y-24600D02*
X52650Y-24600D01*
X46350Y-24600D02*
X48650Y-24600D01*
X42350Y-24600D02*
X44650Y-24600D01*
X38150Y-24600D02*
X40650Y-24600D01*
X66350Y-24550D02*
X67050Y-24550D01*
X62350Y-24550D02*
X64650Y-24550D01*
X58350Y-24550D02*
X60650Y-24550D01*
X54350Y-24550D02*
X56650Y-24550D01*
X50350Y-24550D02*
X52650Y-24550D01*
X46350Y-24550D02*
X48650Y-24550D01*
X42350Y-24550D02*
X44650Y-24550D01*
X38150Y-24550D02*
X40650Y-24550D01*
X66350Y-24500D02*
X67050Y-24500D01*
X62350Y-24500D02*
X64650Y-24500D01*
X58350Y-24500D02*
X60650Y-24500D01*
X54350Y-24500D02*
X56650Y-24500D01*
X50350Y-24500D02*
X52650Y-24500D01*
X46350Y-24500D02*
X48650Y-24500D01*
X42350Y-24500D02*
X44650Y-24500D01*
X38150Y-24500D02*
X40650Y-24500D01*
X66350Y-24450D02*
X67050Y-24450D01*
X62350Y-24450D02*
X64650Y-24450D01*
X58350Y-24450D02*
X60650Y-24450D01*
X54350Y-24450D02*
X56650Y-24450D01*
X50350Y-24450D02*
X52650Y-24450D01*
X46350Y-24450D02*
X48650Y-24450D01*
X42350Y-24450D02*
X44650Y-24450D01*
X38150Y-24450D02*
X40650Y-24450D01*
X66350Y-24400D02*
X67050Y-24400D01*
X62350Y-24400D02*
X64650Y-24400D01*
X58350Y-24400D02*
X60650Y-24400D01*
X54350Y-24400D02*
X56650Y-24400D01*
X50350Y-24400D02*
X52650Y-24400D01*
X46350Y-24400D02*
X48650Y-24400D01*
X42350Y-24400D02*
X44650Y-24400D01*
X38150Y-24400D02*
X40650Y-24400D01*
X66350Y-24350D02*
X67050Y-24350D01*
X62350Y-24350D02*
X64650Y-24350D01*
X58350Y-24350D02*
X60650Y-24350D01*
X54350Y-24350D02*
X56650Y-24350D01*
X50350Y-24350D02*
X52650Y-24350D01*
X46350Y-24350D02*
X48650Y-24350D01*
X42350Y-24350D02*
X44650Y-24350D01*
X38150Y-24350D02*
X40650Y-24350D01*
X66350Y-24300D02*
X67050Y-24300D01*
X62350Y-24300D02*
X64650Y-24300D01*
X58350Y-24300D02*
X60650Y-24300D01*
X54350Y-24300D02*
X56650Y-24300D01*
X50350Y-24300D02*
X52650Y-24300D01*
X46350Y-24300D02*
X48650Y-24300D01*
X42350Y-24300D02*
X44650Y-24300D01*
X38150Y-24300D02*
X40650Y-24300D01*
X66350Y-24250D02*
X67050Y-24250D01*
X62350Y-24250D02*
X64650Y-24250D01*
X58350Y-24250D02*
X60650Y-24250D01*
X54350Y-24250D02*
X56650Y-24250D01*
X50350Y-24250D02*
X52650Y-24250D01*
X46350Y-24250D02*
X48650Y-24250D01*
X42350Y-24250D02*
X44650Y-24250D01*
X38150Y-24250D02*
X40650Y-24250D01*
X66350Y-24200D02*
X67050Y-24200D01*
X62350Y-24200D02*
X64650Y-24200D01*
X58350Y-24200D02*
X60650Y-24200D01*
X54350Y-24200D02*
X56650Y-24200D01*
X50350Y-24200D02*
X52650Y-24200D01*
X46350Y-24200D02*
X48650Y-24200D01*
X42350Y-24200D02*
X44650Y-24200D01*
X38150Y-24200D02*
X40650Y-24200D01*
X66350Y-24150D02*
X67050Y-24150D01*
X62350Y-24150D02*
X64650Y-24150D01*
X58350Y-24150D02*
X60650Y-24150D01*
X54350Y-24150D02*
X56650Y-24150D01*
X50350Y-24150D02*
X52650Y-24150D01*
X46350Y-24150D02*
X48650Y-24150D01*
X42350Y-24150D02*
X44650Y-24150D01*
X38150Y-24150D02*
X40650Y-24150D01*
X66350Y-24100D02*
X67050Y-24100D01*
X62350Y-24100D02*
X64650Y-24100D01*
X58350Y-24100D02*
X60650Y-24100D01*
X54350Y-24100D02*
X56650Y-24100D01*
X50350Y-24100D02*
X52650Y-24100D01*
X46350Y-24100D02*
X48650Y-24100D01*
X42350Y-24100D02*
X44650Y-24100D01*
X38150Y-24100D02*
X40650Y-24100D01*
X66350Y-24050D02*
X67050Y-24050D01*
X62350Y-24050D02*
X64650Y-24050D01*
X58350Y-24050D02*
X60650Y-24050D01*
X54350Y-24050D02*
X56650Y-24050D01*
X50350Y-24050D02*
X52650Y-24050D01*
X46350Y-24050D02*
X48650Y-24050D01*
X42350Y-24050D02*
X44650Y-24050D01*
X38150Y-24050D02*
X40650Y-24050D01*
X66350Y-24000D02*
X67050Y-24000D01*
X62350Y-24000D02*
X64650Y-24000D01*
X58350Y-24000D02*
X60650Y-24000D01*
X54350Y-24000D02*
X56650Y-24000D01*
X50350Y-24000D02*
X52650Y-24000D01*
X46350Y-24000D02*
X48650Y-24000D01*
X42350Y-24000D02*
X44650Y-24000D01*
X38150Y-24000D02*
X40650Y-24000D01*
X66350Y-23950D02*
X67050Y-23950D01*
X62350Y-23950D02*
X64650Y-23950D01*
X58350Y-23950D02*
X60650Y-23950D01*
X54350Y-23950D02*
X56650Y-23950D01*
X50350Y-23950D02*
X52650Y-23950D01*
X46350Y-23950D02*
X48650Y-23950D01*
X42350Y-23950D02*
X44650Y-23950D01*
X38150Y-23950D02*
X40650Y-23950D01*
X66350Y-23900D02*
X67050Y-23900D01*
X62350Y-23900D02*
X64650Y-23900D01*
X58350Y-23900D02*
X60650Y-23900D01*
X54350Y-23900D02*
X56650Y-23900D01*
X50350Y-23900D02*
X52650Y-23900D01*
X46350Y-23900D02*
X48650Y-23900D01*
X42350Y-23900D02*
X44650Y-23900D01*
X38150Y-23900D02*
X40650Y-23900D01*
X66350Y-23850D02*
X67050Y-23850D01*
X62350Y-23850D02*
X64650Y-23850D01*
X58350Y-23850D02*
X60650Y-23850D01*
X54350Y-23850D02*
X56650Y-23850D01*
X50350Y-23850D02*
X52650Y-23850D01*
X46350Y-23850D02*
X48650Y-23850D01*
X42350Y-23850D02*
X44650Y-23850D01*
X38150Y-23850D02*
X40650Y-23850D01*
X66350Y-23800D02*
X67050Y-23800D01*
X62350Y-23800D02*
X64650Y-23800D01*
X58350Y-23800D02*
X60650Y-23800D01*
X54350Y-23800D02*
X56650Y-23800D01*
X50350Y-23800D02*
X52650Y-23800D01*
X46350Y-23800D02*
X48650Y-23800D01*
X42350Y-23800D02*
X44650Y-23800D01*
X38150Y-23800D02*
X40650Y-23800D01*
X66350Y-23750D02*
X67050Y-23750D01*
X62350Y-23750D02*
X64650Y-23750D01*
X58350Y-23750D02*
X60650Y-23750D01*
X54350Y-23750D02*
X56650Y-23750D01*
X50350Y-23750D02*
X52650Y-23750D01*
X46350Y-23750D02*
X48650Y-23750D01*
X42350Y-23750D02*
X44650Y-23750D01*
X38150Y-23750D02*
X40650Y-23750D01*
X66350Y-23700D02*
X67050Y-23700D01*
X62350Y-23700D02*
X64650Y-23700D01*
X58350Y-23700D02*
X60650Y-23700D01*
X54350Y-23700D02*
X56650Y-23700D01*
X50350Y-23700D02*
X52650Y-23700D01*
X46350Y-23700D02*
X48650Y-23700D01*
X42350Y-23700D02*
X44650Y-23700D01*
X38150Y-23700D02*
X40650Y-23700D01*
X38150Y-23650D02*
X67050Y-23650D01*
X38150Y-23600D02*
X67050Y-23600D01*
X38150Y-23550D02*
X67050Y-23550D01*
X38150Y-23500D02*
X67050Y-23500D01*
X38150Y-23450D02*
X67050Y-23450D01*
X38150Y-23400D02*
X67050Y-23400D01*
X38150Y-23350D02*
X67050Y-23350D01*
X38150Y-23300D02*
X67050Y-23300D01*
X38150Y-23250D02*
X67050Y-23250D01*
X38150Y-23200D02*
X67050Y-23200D01*
X38150Y-23150D02*
X67050Y-23150D01*
M02*
