G04 (Genere par PCBNEW (2007-02-16)) le 16/4/2007-02:26:34*
G01*
G70*
G90*
%MOIN*%
G04 Gerber Fmt 3.4, Leading zero omitted, Abs format*
%FSLAX34Y34*%
G04 APERTURE LIST*
%ADD10C,0.015000*%
%ADD11R,0.080000X0.080000*%
%ADD12C,0.080000*%
%ADD13C,0.150000*%
%ADD14C,0.060000*%
%ADD15R,0.100000X0.100000*%
%ADD16C,0.100000*%
%ADD17R,0.150000X0.150000*%
%ADD18R,0.055000X0.080000*%
%ADD19C,0.080000*%
%ADD20C,0.040000*%
%ADD21C,0.025000*%
%ADD22C,0.012000*%
%ADD23C,0.005000*%
%ADD24C,0.001000*%
%ADD25C,0.008000*%
G04 APERTURE END LIST*
G54D10*
X37600Y-22600D02*
X67600Y-22600D01*
X37600Y-42600D02*
X37600Y-22600D01*
X67600Y-42600D02*
X37600Y-42600D01*
X67600Y-22600D02*
X67600Y-42600D01*
X67600Y-42600D02*
X67500Y-42600D01*
X49338Y-28300D02*
X49338Y-27500D01*
X49338Y-27500D02*
X49863Y-27500D01*
X49863Y-27500D02*
X49951Y-27589D01*
X49951Y-27589D02*
X49951Y-27856D01*
X49951Y-27856D02*
X49863Y-27945D01*
X49863Y-27945D02*
X49338Y-27945D01*
X50353Y-28300D02*
X50265Y-28212D01*
X50265Y-28212D02*
X50265Y-27856D01*
X50265Y-27856D02*
X50353Y-27767D01*
X50353Y-27767D02*
X50790Y-27767D01*
X50790Y-27767D02*
X50878Y-27856D01*
X50878Y-27856D02*
X50878Y-28212D01*
X50878Y-28212D02*
X50790Y-28300D01*
X50790Y-28300D02*
X50353Y-28300D01*
X51192Y-27767D02*
X51192Y-28123D01*
X51192Y-28123D02*
X51367Y-28300D01*
X51367Y-28300D02*
X51542Y-28123D01*
X51542Y-28123D02*
X51717Y-28300D01*
X51717Y-28300D02*
X51892Y-28123D01*
X51892Y-28123D02*
X51892Y-27767D01*
X52119Y-28034D02*
X52732Y-28034D01*
X52732Y-28034D02*
X52732Y-27856D01*
X52732Y-27856D02*
X52644Y-27767D01*
X52644Y-27767D02*
X52207Y-27767D01*
X52207Y-27767D02*
X52119Y-27856D01*
X52119Y-27856D02*
X52119Y-28212D01*
X52119Y-28212D02*
X52207Y-28300D01*
X52207Y-28300D02*
X52644Y-28300D01*
X52644Y-28300D02*
X52732Y-28212D01*
X53046Y-28300D02*
X53046Y-27767D01*
X53046Y-27945D02*
X53221Y-27767D01*
X53221Y-27767D02*
X53484Y-27767D01*
X53484Y-27767D02*
X53659Y-27945D01*
X54586Y-28212D02*
X54498Y-28300D01*
X54498Y-28300D02*
X54061Y-28300D01*
X54061Y-28300D02*
X53973Y-28212D01*
X53973Y-28212D02*
X53973Y-27589D01*
X53973Y-27589D02*
X54061Y-27500D01*
X54061Y-27500D02*
X54498Y-27500D01*
X54498Y-27500D02*
X54586Y-27589D01*
X54988Y-28300D02*
X54900Y-28212D01*
X54900Y-28212D02*
X54900Y-27856D01*
X54900Y-27856D02*
X54988Y-27767D01*
X54988Y-27767D02*
X55425Y-27767D01*
X55425Y-27767D02*
X55513Y-27856D01*
X55513Y-27856D02*
X55513Y-28212D01*
X55513Y-28212D02*
X55425Y-28300D01*
X55425Y-28300D02*
X54988Y-28300D01*
X55827Y-28300D02*
X55827Y-27767D01*
X55827Y-27856D02*
X55915Y-27767D01*
X55915Y-27767D02*
X56090Y-27767D01*
X56090Y-27767D02*
X56177Y-27856D01*
X56177Y-27856D02*
X56177Y-28300D01*
X56177Y-27856D02*
X56265Y-27767D01*
X56265Y-27767D02*
X56440Y-27767D01*
X56440Y-27767D02*
X56527Y-27856D01*
X56527Y-27856D02*
X56527Y-28300D01*
X56754Y-28300D02*
X56754Y-27767D01*
X56754Y-27856D02*
X56842Y-27767D01*
X56842Y-27767D02*
X57017Y-27767D01*
X57017Y-27767D02*
X57104Y-27856D01*
X57104Y-27856D02*
X57104Y-28300D01*
X57104Y-27856D02*
X57192Y-27767D01*
X57192Y-27767D02*
X57367Y-27767D01*
X57367Y-27767D02*
X57454Y-27856D01*
X57454Y-27856D02*
X57454Y-28300D01*
X57681Y-28212D02*
X57769Y-28300D01*
X57769Y-28300D02*
X58206Y-28300D01*
X58206Y-28300D02*
X58294Y-28212D01*
X58294Y-28212D02*
X58294Y-28123D01*
X58294Y-28123D02*
X58206Y-28034D01*
X58206Y-28034D02*
X57769Y-28034D01*
X57769Y-28034D02*
X57681Y-27945D01*
X57681Y-27945D02*
X57681Y-27856D01*
X57681Y-27856D02*
X57769Y-27767D01*
X57769Y-27767D02*
X58206Y-27767D01*
X58206Y-27767D02*
X58294Y-27856D01*
X59535Y-27767D02*
X59535Y-28034D01*
X59535Y-28034D02*
X59798Y-28300D01*
X59798Y-28300D02*
X60060Y-28034D01*
X60060Y-28034D02*
X60060Y-27767D01*
X60637Y-28300D02*
X60987Y-28300D01*
X60812Y-28300D02*
X60812Y-27500D01*
X60812Y-27589D02*
X60637Y-27767D01*
X61652Y-28300D02*
X61652Y-28212D01*
X62491Y-28300D02*
X62841Y-28300D01*
X62666Y-28300D02*
X62666Y-27500D01*
X62666Y-27589D02*
X62491Y-27767D01*
G54D22*
X50632Y-29500D02*
X50632Y-28700D01*
X50632Y-28700D02*
X51082Y-28700D01*
X51082Y-28700D02*
X51157Y-28789D01*
X51157Y-28789D02*
X51157Y-29056D01*
X51157Y-29056D02*
X51082Y-29145D01*
X51082Y-29145D02*
X50632Y-29145D01*
X50857Y-29145D02*
X51157Y-29500D01*
X51418Y-29234D02*
X51943Y-29234D01*
X51943Y-29234D02*
X51943Y-29056D01*
X51943Y-29056D02*
X51868Y-28967D01*
X51868Y-28967D02*
X51493Y-28967D01*
X51493Y-28967D02*
X51418Y-29056D01*
X51418Y-29056D02*
X51418Y-29412D01*
X51418Y-29412D02*
X51493Y-29500D01*
X51493Y-29500D02*
X51868Y-29500D01*
X51868Y-29500D02*
X51943Y-29412D01*
X52204Y-29766D02*
X52204Y-28967D01*
X52204Y-29056D02*
X52279Y-28967D01*
X52279Y-28967D02*
X52654Y-28967D01*
X52654Y-28967D02*
X52729Y-29056D01*
X52729Y-29056D02*
X52729Y-29412D01*
X52729Y-29412D02*
X52654Y-29500D01*
X52654Y-29500D02*
X52279Y-29500D01*
X52279Y-29500D02*
X52204Y-29412D01*
X52990Y-29500D02*
X52990Y-28700D01*
X52990Y-28700D02*
X53440Y-28700D01*
X53440Y-28700D02*
X53515Y-28789D01*
X53515Y-28789D02*
X53515Y-29056D01*
X53515Y-29056D02*
X53440Y-29145D01*
X53440Y-29145D02*
X52990Y-29145D01*
X53215Y-29145D02*
X53515Y-29500D01*
X53776Y-28967D02*
X54226Y-28967D01*
X54226Y-28967D02*
X54301Y-29056D01*
X54301Y-29056D02*
X54301Y-29500D01*
X54301Y-29500D02*
X53851Y-29500D01*
X53851Y-29500D02*
X53776Y-29412D01*
X53776Y-29412D02*
X53776Y-29323D01*
X53776Y-29323D02*
X53851Y-29234D01*
X53851Y-29234D02*
X54301Y-29234D01*
X54562Y-29766D02*
X54562Y-28967D01*
X54562Y-29056D02*
X54637Y-28967D01*
X54637Y-28967D02*
X55012Y-28967D01*
X55012Y-28967D02*
X55087Y-29056D01*
X55087Y-29056D02*
X55087Y-29412D01*
X55087Y-29412D02*
X55012Y-29500D01*
X55012Y-29500D02*
X54637Y-29500D01*
X54637Y-29500D02*
X54562Y-29412D01*
X55573Y-29500D02*
X55573Y-29412D01*
X56209Y-29500D02*
X56134Y-29412D01*
X56134Y-29412D02*
X56134Y-29056D01*
X56134Y-29056D02*
X56209Y-28967D01*
X56209Y-28967D02*
X56584Y-28967D01*
X56584Y-28967D02*
X56659Y-29056D01*
X56659Y-29056D02*
X56659Y-29412D01*
X56659Y-29412D02*
X56584Y-29500D01*
X56584Y-29500D02*
X56209Y-29500D01*
X56920Y-29500D02*
X56920Y-28967D01*
X56920Y-29145D02*
X57070Y-28967D01*
X57070Y-28967D02*
X57295Y-28967D01*
X57295Y-28967D02*
X57445Y-29145D01*
X57706Y-29677D02*
X57781Y-29766D01*
X57781Y-29766D02*
X58156Y-29766D01*
X58156Y-29766D02*
X58231Y-29677D01*
X58231Y-29677D02*
X58231Y-29056D01*
X58231Y-29056D02*
X58156Y-28967D01*
X58156Y-28967D02*
X57781Y-28967D01*
X57781Y-28967D02*
X57706Y-29056D01*
X57706Y-29056D02*
X57706Y-29412D01*
X57706Y-29412D02*
X57781Y-29500D01*
X57781Y-29500D02*
X58156Y-29500D01*
X58156Y-29500D02*
X58231Y-29412D01*
G54D23*
X66500Y-25500D02*
X66500Y-23500D01*
X66500Y-23500D02*
X62500Y-23500D01*
X62500Y-23500D02*
X62500Y-25500D01*
X62500Y-25500D02*
X66500Y-25500D01*
X62500Y-25500D02*
X62500Y-23500D01*
X62500Y-23500D02*
X58500Y-23500D01*
X58500Y-23500D02*
X58500Y-25500D01*
X58500Y-25500D02*
X62500Y-25500D01*
X54500Y-25500D02*
X54500Y-23500D01*
X54500Y-23500D02*
X50500Y-23500D01*
X50500Y-23500D02*
X50500Y-25500D01*
X50500Y-25500D02*
X54500Y-25500D01*
X58500Y-25500D02*
X58500Y-23500D01*
X58500Y-23500D02*
X54500Y-23500D01*
X54500Y-23500D02*
X54500Y-25500D01*
X54500Y-25500D02*
X58500Y-25500D01*
X50500Y-25500D02*
X50500Y-23500D01*
X50500Y-23500D02*
X46500Y-23500D01*
X46500Y-23500D02*
X46500Y-25500D01*
X46500Y-25500D02*
X50500Y-25500D01*
X46500Y-25500D02*
X46500Y-23500D01*
X46500Y-23500D02*
X42500Y-23500D01*
X42500Y-23500D02*
X42500Y-25500D01*
X42500Y-25500D02*
X46500Y-25500D01*
X42500Y-25500D02*
X42500Y-23500D01*
X42500Y-23500D02*
X38500Y-23500D01*
X38500Y-23500D02*
X38500Y-25500D01*
X38500Y-25500D02*
X42500Y-25500D01*
G54D22*
X48700Y-40900D02*
X48700Y-40700D01*
X48700Y-37900D02*
X48700Y-38100D01*
X48700Y-38100D02*
X48300Y-38100D01*
X48300Y-38100D02*
X48300Y-40700D01*
X48300Y-40700D02*
X49100Y-40700D01*
X49100Y-40700D02*
X49100Y-38100D01*
X49100Y-38100D02*
X48700Y-38100D01*
X48500Y-40700D02*
X48300Y-40500D01*
G54D23*
X49350Y-33550D02*
X50850Y-32050D01*
X49351Y-33550D02*
X49430Y-33804D01*
X49430Y-33804D02*
X49560Y-34036D01*
X49560Y-34036D02*
X49736Y-34236D01*
X49736Y-34236D02*
X49950Y-34395D01*
X49950Y-34395D02*
X50192Y-34507D01*
X50192Y-34507D02*
X50451Y-34565D01*
X50451Y-34565D02*
X50718Y-34569D01*
X50718Y-34569D02*
X50850Y-34549D01*
X50350Y-34549D02*
X50616Y-34574D01*
X50616Y-34574D02*
X50880Y-34543D01*
X50880Y-34543D02*
X51132Y-34457D01*
X51132Y-34457D02*
X51361Y-34321D01*
X51361Y-34321D02*
X51557Y-34141D01*
X51557Y-34141D02*
X51711Y-33923D01*
X51711Y-33923D02*
X51816Y-33679D01*
X51816Y-33679D02*
X51849Y-33550D01*
X51849Y-33550D02*
X51874Y-33284D01*
X51874Y-33284D02*
X51843Y-33020D01*
X51843Y-33020D02*
X51757Y-32768D01*
X51757Y-32768D02*
X51621Y-32539D01*
X51621Y-32539D02*
X51441Y-32343D01*
X51441Y-32343D02*
X51223Y-32189D01*
X51223Y-32189D02*
X50979Y-32084D01*
X50979Y-32084D02*
X50850Y-32051D01*
G54D10*
X67600Y-27600D02*
X63600Y-27600D01*
X67600Y-40300D02*
X63600Y-40300D01*
X67600Y-27600D02*
X67600Y-40300D01*
G54D22*
X63600Y-27550D02*
X63600Y-40350D01*
X67600Y-30350D02*
X67600Y-37550D01*
G54D10*
X60600Y-29800D02*
X60600Y-29800D01*
X60600Y-29800D02*
X60600Y-30300D01*
X60600Y-30300D02*
X59600Y-30300D01*
X59600Y-30300D02*
X59600Y-29800D01*
X61100Y-29800D02*
X61100Y-38800D01*
X61100Y-38800D02*
X59100Y-38800D01*
X59100Y-38800D02*
X59100Y-29800D01*
X59100Y-29800D02*
X61100Y-29800D01*
G54D22*
X40100Y-38900D02*
X44100Y-38900D01*
X40100Y-38400D02*
X40100Y-41400D01*
X40100Y-41400D02*
X44100Y-41400D01*
X44100Y-41400D02*
X44100Y-38400D01*
X44100Y-38400D02*
X40100Y-38400D01*
X58800Y-41400D02*
X58800Y-40400D01*
X58800Y-40400D02*
X60800Y-40400D01*
X60800Y-40400D02*
X60800Y-41400D01*
X60800Y-41400D02*
X58800Y-41400D01*
X55900Y-41400D02*
X55900Y-40400D01*
X55900Y-40400D02*
X57900Y-40400D01*
X57900Y-40400D02*
X57900Y-41400D01*
X57900Y-41400D02*
X55900Y-41400D01*
G54D23*
X48575Y-32500D02*
X48470Y-33492D01*
X48470Y-33492D02*
X48162Y-34442D01*
X48162Y-34442D02*
X47663Y-35306D01*
X47663Y-35306D02*
X46995Y-36048D01*
X46995Y-36048D02*
X46187Y-36635D01*
X46187Y-36635D02*
X45275Y-37041D01*
X45275Y-37041D02*
X44299Y-37248D01*
X44299Y-37248D02*
X43301Y-37248D01*
X43301Y-37248D02*
X42325Y-37041D01*
X42325Y-37041D02*
X41413Y-36635D01*
X41413Y-36635D02*
X40605Y-36048D01*
X40605Y-36048D02*
X39937Y-35306D01*
X39937Y-35306D02*
X39438Y-34442D01*
X39438Y-34442D02*
X39130Y-33492D01*
X39130Y-33492D02*
X39025Y-32500D01*
X39025Y-32500D02*
X39130Y-31508D01*
X39130Y-31508D02*
X39438Y-30558D01*
X39438Y-30558D02*
X39937Y-29694D01*
X39937Y-29694D02*
X40605Y-28952D01*
X40605Y-28952D02*
X41413Y-28365D01*
X41413Y-28365D02*
X42325Y-27959D01*
X42325Y-27959D02*
X43301Y-27752D01*
X43301Y-27752D02*
X44299Y-27752D01*
X44299Y-27752D02*
X45275Y-27959D01*
X45275Y-27959D02*
X46187Y-28365D01*
X46187Y-28365D02*
X46995Y-28952D01*
X46995Y-28952D02*
X47663Y-29694D01*
X47663Y-29694D02*
X48162Y-30558D01*
X48162Y-30558D02*
X48470Y-31508D01*
X48470Y-31508D02*
X48575Y-32500D01*
X55200Y-32300D02*
X55200Y-31300D01*
X57200Y-32300D02*
X57200Y-31300D01*
X57200Y-31300D02*
X57178Y-31092D01*
X57178Y-31092D02*
X57114Y-30893D01*
X57114Y-30893D02*
X57009Y-30712D01*
X57009Y-30712D02*
X56869Y-30557D01*
X56869Y-30557D02*
X56700Y-30434D01*
X56700Y-30434D02*
X56509Y-30349D01*
X56509Y-30349D02*
X56305Y-30305D01*
X56305Y-30305D02*
X56200Y-30300D01*
X56200Y-30300D02*
X55992Y-30322D01*
X55992Y-30322D02*
X55793Y-30386D01*
X55793Y-30386D02*
X55612Y-30491D01*
X55612Y-30491D02*
X55457Y-30631D01*
X55457Y-30631D02*
X55334Y-30800D01*
X55334Y-30800D02*
X55249Y-30991D01*
X55249Y-30991D02*
X55205Y-31195D01*
X55205Y-31195D02*
X55200Y-31300D01*
X55200Y-32300D02*
X55222Y-32508D01*
X55222Y-32508D02*
X55286Y-32707D01*
X55286Y-32707D02*
X55391Y-32888D01*
X55391Y-32888D02*
X55531Y-33043D01*
X55531Y-33043D02*
X55700Y-33166D01*
X55700Y-33166D02*
X55891Y-33251D01*
X55891Y-33251D02*
X56095Y-33295D01*
X56095Y-33295D02*
X56200Y-33300D01*
X56200Y-33300D02*
X56408Y-33278D01*
X56408Y-33278D02*
X56607Y-33214D01*
X56607Y-33214D02*
X56788Y-33109D01*
X56788Y-33109D02*
X56943Y-32969D01*
X56943Y-32969D02*
X57066Y-32800D01*
X57066Y-32800D02*
X57151Y-32609D01*
X57151Y-32609D02*
X57195Y-32405D01*
X57195Y-32405D02*
X57200Y-32300D01*
X55101Y-32300D02*
X55079Y-32508D01*
X55079Y-32508D02*
X55014Y-32707D01*
X55014Y-32707D02*
X54909Y-32888D01*
X54909Y-32888D02*
X54769Y-33043D01*
X54769Y-33043D02*
X54600Y-33166D01*
X54600Y-33166D02*
X54409Y-33252D01*
X54409Y-33252D02*
X54204Y-33295D01*
X54204Y-33295D02*
X53996Y-33295D01*
X53996Y-33295D02*
X53791Y-33252D01*
X53791Y-33252D02*
X53600Y-33166D01*
X53600Y-33166D02*
X53431Y-33043D01*
X53431Y-33043D02*
X53291Y-32888D01*
X53291Y-32888D02*
X53186Y-32707D01*
X53186Y-32707D02*
X53121Y-32508D01*
X53121Y-32508D02*
X53099Y-32300D01*
X53099Y-32300D02*
X53121Y-32092D01*
X53121Y-32092D02*
X53186Y-31893D01*
X53186Y-31893D02*
X53291Y-31712D01*
X53291Y-31712D02*
X53431Y-31557D01*
X53431Y-31557D02*
X53600Y-31434D01*
X53600Y-31434D02*
X53791Y-31348D01*
X53791Y-31348D02*
X53996Y-31305D01*
X53996Y-31305D02*
X54204Y-31305D01*
X54204Y-31305D02*
X54409Y-31348D01*
X54409Y-31348D02*
X54600Y-31434D01*
X54600Y-31434D02*
X54769Y-31557D01*
X54769Y-31557D02*
X54909Y-31712D01*
X54909Y-31712D02*
X55014Y-31893D01*
X55014Y-31893D02*
X55079Y-32092D01*
X55079Y-32092D02*
X55101Y-32300D01*
X55101Y-35400D02*
X55079Y-35608D01*
X55079Y-35608D02*
X55014Y-35807D01*
X55014Y-35807D02*
X54909Y-35988D01*
X54909Y-35988D02*
X54769Y-36143D01*
X54769Y-36143D02*
X54600Y-36266D01*
X54600Y-36266D02*
X54409Y-36352D01*
X54409Y-36352D02*
X54204Y-36395D01*
X54204Y-36395D02*
X53996Y-36395D01*
X53996Y-36395D02*
X53791Y-36352D01*
X53791Y-36352D02*
X53600Y-36266D01*
X53600Y-36266D02*
X53431Y-36143D01*
X53431Y-36143D02*
X53291Y-35988D01*
X53291Y-35988D02*
X53186Y-35807D01*
X53186Y-35807D02*
X53121Y-35608D01*
X53121Y-35608D02*
X53099Y-35400D01*
X53099Y-35400D02*
X53121Y-35192D01*
X53121Y-35192D02*
X53186Y-34993D01*
X53186Y-34993D02*
X53291Y-34812D01*
X53291Y-34812D02*
X53431Y-34657D01*
X53431Y-34657D02*
X53600Y-34534D01*
X53600Y-34534D02*
X53791Y-34448D01*
X53791Y-34448D02*
X53996Y-34405D01*
X53996Y-34405D02*
X54204Y-34405D01*
X54204Y-34405D02*
X54409Y-34448D01*
X54409Y-34448D02*
X54600Y-34534D01*
X54600Y-34534D02*
X54769Y-34657D01*
X54769Y-34657D02*
X54909Y-34812D01*
X54909Y-34812D02*
X55014Y-34993D01*
X55014Y-34993D02*
X55079Y-35192D01*
X55079Y-35192D02*
X55101Y-35400D01*
X57201Y-34300D02*
X57179Y-34508D01*
X57179Y-34508D02*
X57114Y-34707D01*
X57114Y-34707D02*
X57009Y-34888D01*
X57009Y-34888D02*
X56869Y-35043D01*
X56869Y-35043D02*
X56700Y-35166D01*
X56700Y-35166D02*
X56509Y-35252D01*
X56509Y-35252D02*
X56304Y-35295D01*
X56304Y-35295D02*
X56096Y-35295D01*
X56096Y-35295D02*
X55891Y-35252D01*
X55891Y-35252D02*
X55700Y-35166D01*
X55700Y-35166D02*
X55531Y-35043D01*
X55531Y-35043D02*
X55391Y-34888D01*
X55391Y-34888D02*
X55286Y-34707D01*
X55286Y-34707D02*
X55221Y-34508D01*
X55221Y-34508D02*
X55199Y-34300D01*
X55199Y-34300D02*
X55221Y-34092D01*
X55221Y-34092D02*
X55286Y-33893D01*
X55286Y-33893D02*
X55391Y-33712D01*
X55391Y-33712D02*
X55531Y-33557D01*
X55531Y-33557D02*
X55700Y-33434D01*
X55700Y-33434D02*
X55891Y-33348D01*
X55891Y-33348D02*
X56096Y-33305D01*
X56096Y-33305D02*
X56304Y-33305D01*
X56304Y-33305D02*
X56509Y-33348D01*
X56509Y-33348D02*
X56700Y-33434D01*
X56700Y-33434D02*
X56869Y-33557D01*
X56869Y-33557D02*
X57009Y-33712D01*
X57009Y-33712D02*
X57114Y-33893D01*
X57114Y-33893D02*
X57179Y-34092D01*
X57179Y-34092D02*
X57201Y-34300D01*
G54D22*
X47100Y-40400D02*
X47023Y-40782D01*
X47023Y-40782D02*
X46807Y-41107D01*
X46807Y-41107D02*
X46482Y-41323D01*
X46482Y-41323D02*
X46100Y-41400D01*
X46100Y-41400D02*
X45718Y-41323D01*
X45718Y-41323D02*
X45393Y-41107D01*
X45393Y-41107D02*
X45177Y-40782D01*
X45177Y-40782D02*
X45100Y-40400D01*
X45100Y-40400D02*
X45177Y-40018D01*
X45177Y-40018D02*
X45393Y-39693D01*
X45393Y-39693D02*
X45718Y-39477D01*
X45718Y-39477D02*
X46100Y-39400D01*
X46100Y-39400D02*
X46482Y-39477D01*
X46482Y-39477D02*
X46807Y-39693D01*
X46807Y-39693D02*
X47023Y-40018D01*
X47023Y-40018D02*
X47100Y-40400D01*
X46350Y-41400D02*
X46350Y-41150D01*
X46350Y-41150D02*
X45850Y-41150D01*
X45850Y-41150D02*
X45850Y-41400D01*
G54D23*
X57201Y-36400D02*
X57179Y-36608D01*
X57179Y-36608D02*
X57114Y-36807D01*
X57114Y-36807D02*
X57009Y-36988D01*
X57009Y-36988D02*
X56869Y-37143D01*
X56869Y-37143D02*
X56700Y-37266D01*
X56700Y-37266D02*
X56509Y-37352D01*
X56509Y-37352D02*
X56304Y-37395D01*
X56304Y-37395D02*
X56096Y-37395D01*
X56096Y-37395D02*
X55891Y-37352D01*
X55891Y-37352D02*
X55700Y-37266D01*
X55700Y-37266D02*
X55531Y-37143D01*
X55531Y-37143D02*
X55391Y-36988D01*
X55391Y-36988D02*
X55286Y-36807D01*
X55286Y-36807D02*
X55221Y-36608D01*
X55221Y-36608D02*
X55199Y-36400D01*
X55199Y-36400D02*
X55221Y-36192D01*
X55221Y-36192D02*
X55286Y-35993D01*
X55286Y-35993D02*
X55391Y-35812D01*
X55391Y-35812D02*
X55531Y-35657D01*
X55531Y-35657D02*
X55700Y-35534D01*
X55700Y-35534D02*
X55891Y-35448D01*
X55891Y-35448D02*
X56096Y-35405D01*
X56096Y-35405D02*
X56304Y-35405D01*
X56304Y-35405D02*
X56509Y-35448D01*
X56509Y-35448D02*
X56700Y-35534D01*
X56700Y-35534D02*
X56869Y-35657D01*
X56869Y-35657D02*
X57009Y-35812D01*
X57009Y-35812D02*
X57114Y-35993D01*
X57114Y-35993D02*
X57179Y-36192D01*
X57179Y-36192D02*
X57201Y-36400D01*
G54D24*
X65900Y-24100D02*
X65900Y-24900D01*
X65900Y-24900D02*
X65100Y-24900D01*
X65100Y-24900D02*
X65100Y-24100D01*
X65100Y-24100D02*
X65900Y-24100D01*
X63900Y-24500D02*
X63891Y-24583D01*
X63891Y-24583D02*
X63865Y-24662D01*
X63865Y-24662D02*
X63823Y-24735D01*
X63823Y-24735D02*
X63767Y-24797D01*
X63767Y-24797D02*
X63700Y-24846D01*
X63700Y-24846D02*
X63623Y-24880D01*
X63623Y-24880D02*
X63541Y-24897D01*
X63541Y-24897D02*
X63459Y-24897D01*
X63459Y-24897D02*
X63377Y-24880D01*
X63377Y-24880D02*
X63300Y-24846D01*
X63300Y-24846D02*
X63233Y-24797D01*
X63233Y-24797D02*
X63177Y-24735D01*
X63177Y-24735D02*
X63135Y-24662D01*
X63135Y-24662D02*
X63109Y-24583D01*
X63109Y-24583D02*
X63100Y-24500D01*
X63100Y-24500D02*
X63109Y-24417D01*
X63109Y-24417D02*
X63135Y-24338D01*
X63135Y-24338D02*
X63177Y-24265D01*
X63177Y-24265D02*
X63233Y-24203D01*
X63233Y-24203D02*
X63300Y-24154D01*
X63300Y-24154D02*
X63377Y-24120D01*
X63377Y-24120D02*
X63459Y-24103D01*
X63459Y-24103D02*
X63541Y-24103D01*
X63541Y-24103D02*
X63623Y-24120D01*
X63623Y-24120D02*
X63700Y-24154D01*
X63700Y-24154D02*
X63767Y-24203D01*
X63767Y-24203D02*
X63823Y-24265D01*
X63823Y-24265D02*
X63865Y-24338D01*
X63865Y-24338D02*
X63891Y-24417D01*
X63891Y-24417D02*
X63900Y-24500D01*
X61900Y-24100D02*
X61900Y-24900D01*
X61900Y-24900D02*
X61100Y-24900D01*
X61100Y-24900D02*
X61100Y-24100D01*
X61100Y-24100D02*
X61900Y-24100D01*
X59900Y-24500D02*
X59891Y-24583D01*
X59891Y-24583D02*
X59865Y-24662D01*
X59865Y-24662D02*
X59823Y-24735D01*
X59823Y-24735D02*
X59767Y-24797D01*
X59767Y-24797D02*
X59700Y-24846D01*
X59700Y-24846D02*
X59623Y-24880D01*
X59623Y-24880D02*
X59541Y-24897D01*
X59541Y-24897D02*
X59459Y-24897D01*
X59459Y-24897D02*
X59377Y-24880D01*
X59377Y-24880D02*
X59300Y-24846D01*
X59300Y-24846D02*
X59233Y-24797D01*
X59233Y-24797D02*
X59177Y-24735D01*
X59177Y-24735D02*
X59135Y-24662D01*
X59135Y-24662D02*
X59109Y-24583D01*
X59109Y-24583D02*
X59100Y-24500D01*
X59100Y-24500D02*
X59109Y-24417D01*
X59109Y-24417D02*
X59135Y-24338D01*
X59135Y-24338D02*
X59177Y-24265D01*
X59177Y-24265D02*
X59233Y-24203D01*
X59233Y-24203D02*
X59300Y-24154D01*
X59300Y-24154D02*
X59377Y-24120D01*
X59377Y-24120D02*
X59459Y-24103D01*
X59459Y-24103D02*
X59541Y-24103D01*
X59541Y-24103D02*
X59623Y-24120D01*
X59623Y-24120D02*
X59700Y-24154D01*
X59700Y-24154D02*
X59767Y-24203D01*
X59767Y-24203D02*
X59823Y-24265D01*
X59823Y-24265D02*
X59865Y-24338D01*
X59865Y-24338D02*
X59891Y-24417D01*
X59891Y-24417D02*
X59900Y-24500D01*
X53900Y-24100D02*
X53900Y-24900D01*
X53900Y-24900D02*
X53100Y-24900D01*
X53100Y-24900D02*
X53100Y-24100D01*
X53100Y-24100D02*
X53900Y-24100D01*
X51900Y-24500D02*
X51891Y-24583D01*
X51891Y-24583D02*
X51865Y-24662D01*
X51865Y-24662D02*
X51823Y-24735D01*
X51823Y-24735D02*
X51767Y-24797D01*
X51767Y-24797D02*
X51700Y-24846D01*
X51700Y-24846D02*
X51623Y-24880D01*
X51623Y-24880D02*
X51541Y-24897D01*
X51541Y-24897D02*
X51459Y-24897D01*
X51459Y-24897D02*
X51377Y-24880D01*
X51377Y-24880D02*
X51300Y-24846D01*
X51300Y-24846D02*
X51233Y-24797D01*
X51233Y-24797D02*
X51177Y-24735D01*
X51177Y-24735D02*
X51135Y-24662D01*
X51135Y-24662D02*
X51109Y-24583D01*
X51109Y-24583D02*
X51100Y-24500D01*
X51100Y-24500D02*
X51109Y-24417D01*
X51109Y-24417D02*
X51135Y-24338D01*
X51135Y-24338D02*
X51177Y-24265D01*
X51177Y-24265D02*
X51233Y-24203D01*
X51233Y-24203D02*
X51300Y-24154D01*
X51300Y-24154D02*
X51377Y-24120D01*
X51377Y-24120D02*
X51459Y-24103D01*
X51459Y-24103D02*
X51541Y-24103D01*
X51541Y-24103D02*
X51623Y-24120D01*
X51623Y-24120D02*
X51700Y-24154D01*
X51700Y-24154D02*
X51767Y-24203D01*
X51767Y-24203D02*
X51823Y-24265D01*
X51823Y-24265D02*
X51865Y-24338D01*
X51865Y-24338D02*
X51891Y-24417D01*
X51891Y-24417D02*
X51900Y-24500D01*
X57900Y-24100D02*
X57900Y-24900D01*
X57900Y-24900D02*
X57100Y-24900D01*
X57100Y-24900D02*
X57100Y-24100D01*
X57100Y-24100D02*
X57900Y-24100D01*
X55900Y-24500D02*
X55891Y-24583D01*
X55891Y-24583D02*
X55865Y-24662D01*
X55865Y-24662D02*
X55823Y-24735D01*
X55823Y-24735D02*
X55767Y-24797D01*
X55767Y-24797D02*
X55700Y-24846D01*
X55700Y-24846D02*
X55623Y-24880D01*
X55623Y-24880D02*
X55541Y-24897D01*
X55541Y-24897D02*
X55459Y-24897D01*
X55459Y-24897D02*
X55377Y-24880D01*
X55377Y-24880D02*
X55300Y-24846D01*
X55300Y-24846D02*
X55233Y-24797D01*
X55233Y-24797D02*
X55177Y-24735D01*
X55177Y-24735D02*
X55135Y-24662D01*
X55135Y-24662D02*
X55109Y-24583D01*
X55109Y-24583D02*
X55100Y-24500D01*
X55100Y-24500D02*
X55109Y-24417D01*
X55109Y-24417D02*
X55135Y-24338D01*
X55135Y-24338D02*
X55177Y-24265D01*
X55177Y-24265D02*
X55233Y-24203D01*
X55233Y-24203D02*
X55300Y-24154D01*
X55300Y-24154D02*
X55377Y-24120D01*
X55377Y-24120D02*
X55459Y-24103D01*
X55459Y-24103D02*
X55541Y-24103D01*
X55541Y-24103D02*
X55623Y-24120D01*
X55623Y-24120D02*
X55700Y-24154D01*
X55700Y-24154D02*
X55767Y-24203D01*
X55767Y-24203D02*
X55823Y-24265D01*
X55823Y-24265D02*
X55865Y-24338D01*
X55865Y-24338D02*
X55891Y-24417D01*
X55891Y-24417D02*
X55900Y-24500D01*
X49900Y-24100D02*
X49900Y-24900D01*
X49900Y-24900D02*
X49100Y-24900D01*
X49100Y-24900D02*
X49100Y-24100D01*
X49100Y-24100D02*
X49900Y-24100D01*
X47900Y-24500D02*
X47891Y-24583D01*
X47891Y-24583D02*
X47865Y-24662D01*
X47865Y-24662D02*
X47823Y-24735D01*
X47823Y-24735D02*
X47767Y-24797D01*
X47767Y-24797D02*
X47700Y-24846D01*
X47700Y-24846D02*
X47623Y-24880D01*
X47623Y-24880D02*
X47541Y-24897D01*
X47541Y-24897D02*
X47459Y-24897D01*
X47459Y-24897D02*
X47377Y-24880D01*
X47377Y-24880D02*
X47300Y-24846D01*
X47300Y-24846D02*
X47233Y-24797D01*
X47233Y-24797D02*
X47177Y-24735D01*
X47177Y-24735D02*
X47135Y-24662D01*
X47135Y-24662D02*
X47109Y-24583D01*
X47109Y-24583D02*
X47100Y-24500D01*
X47100Y-24500D02*
X47109Y-24417D01*
X47109Y-24417D02*
X47135Y-24338D01*
X47135Y-24338D02*
X47177Y-24265D01*
X47177Y-24265D02*
X47233Y-24203D01*
X47233Y-24203D02*
X47300Y-24154D01*
X47300Y-24154D02*
X47377Y-24120D01*
X47377Y-24120D02*
X47459Y-24103D01*
X47459Y-24103D02*
X47541Y-24103D01*
X47541Y-24103D02*
X47623Y-24120D01*
X47623Y-24120D02*
X47700Y-24154D01*
X47700Y-24154D02*
X47767Y-24203D01*
X47767Y-24203D02*
X47823Y-24265D01*
X47823Y-24265D02*
X47865Y-24338D01*
X47865Y-24338D02*
X47891Y-24417D01*
X47891Y-24417D02*
X47900Y-24500D01*
X45900Y-24100D02*
X45900Y-24900D01*
X45900Y-24900D02*
X45100Y-24900D01*
X45100Y-24900D02*
X45100Y-24100D01*
X45100Y-24100D02*
X45900Y-24100D01*
X43900Y-24500D02*
X43891Y-24583D01*
X43891Y-24583D02*
X43865Y-24662D01*
X43865Y-24662D02*
X43823Y-24735D01*
X43823Y-24735D02*
X43767Y-24797D01*
X43767Y-24797D02*
X43700Y-24846D01*
X43700Y-24846D02*
X43623Y-24880D01*
X43623Y-24880D02*
X43541Y-24897D01*
X43541Y-24897D02*
X43459Y-24897D01*
X43459Y-24897D02*
X43377Y-24880D01*
X43377Y-24880D02*
X43300Y-24846D01*
X43300Y-24846D02*
X43233Y-24797D01*
X43233Y-24797D02*
X43177Y-24735D01*
X43177Y-24735D02*
X43135Y-24662D01*
X43135Y-24662D02*
X43109Y-24583D01*
X43109Y-24583D02*
X43100Y-24500D01*
X43100Y-24500D02*
X43109Y-24417D01*
X43109Y-24417D02*
X43135Y-24338D01*
X43135Y-24338D02*
X43177Y-24265D01*
X43177Y-24265D02*
X43233Y-24203D01*
X43233Y-24203D02*
X43300Y-24154D01*
X43300Y-24154D02*
X43377Y-24120D01*
X43377Y-24120D02*
X43459Y-24103D01*
X43459Y-24103D02*
X43541Y-24103D01*
X43541Y-24103D02*
X43623Y-24120D01*
X43623Y-24120D02*
X43700Y-24154D01*
X43700Y-24154D02*
X43767Y-24203D01*
X43767Y-24203D02*
X43823Y-24265D01*
X43823Y-24265D02*
X43865Y-24338D01*
X43865Y-24338D02*
X43891Y-24417D01*
X43891Y-24417D02*
X43900Y-24500D01*
X41900Y-24100D02*
X41900Y-24900D01*
X41900Y-24900D02*
X41100Y-24900D01*
X41100Y-24900D02*
X41100Y-24100D01*
X41100Y-24100D02*
X41900Y-24100D01*
X39900Y-24500D02*
X39891Y-24583D01*
X39891Y-24583D02*
X39865Y-24662D01*
X39865Y-24662D02*
X39823Y-24735D01*
X39823Y-24735D02*
X39767Y-24797D01*
X39767Y-24797D02*
X39700Y-24846D01*
X39700Y-24846D02*
X39623Y-24880D01*
X39623Y-24880D02*
X39541Y-24897D01*
X39541Y-24897D02*
X39459Y-24897D01*
X39459Y-24897D02*
X39377Y-24880D01*
X39377Y-24880D02*
X39300Y-24846D01*
X39300Y-24846D02*
X39233Y-24797D01*
X39233Y-24797D02*
X39177Y-24735D01*
X39177Y-24735D02*
X39135Y-24662D01*
X39135Y-24662D02*
X39109Y-24583D01*
X39109Y-24583D02*
X39100Y-24500D01*
X39100Y-24500D02*
X39109Y-24417D01*
X39109Y-24417D02*
X39135Y-24338D01*
X39135Y-24338D02*
X39177Y-24265D01*
X39177Y-24265D02*
X39233Y-24203D01*
X39233Y-24203D02*
X39300Y-24154D01*
X39300Y-24154D02*
X39377Y-24120D01*
X39377Y-24120D02*
X39459Y-24103D01*
X39459Y-24103D02*
X39541Y-24103D01*
X39541Y-24103D02*
X39623Y-24120D01*
X39623Y-24120D02*
X39700Y-24154D01*
X39700Y-24154D02*
X39767Y-24203D01*
X39767Y-24203D02*
X39823Y-24265D01*
X39823Y-24265D02*
X39865Y-24338D01*
X39865Y-24338D02*
X39891Y-24417D01*
X39891Y-24417D02*
X39900Y-24500D01*
X49100Y-40900D02*
X49091Y-40983D01*
X49091Y-40983D02*
X49065Y-41062D01*
X49065Y-41062D02*
X49023Y-41135D01*
X49023Y-41135D02*
X48967Y-41197D01*
X48967Y-41197D02*
X48900Y-41246D01*
X48900Y-41246D02*
X48823Y-41280D01*
X48823Y-41280D02*
X48741Y-41297D01*
X48741Y-41297D02*
X48659Y-41297D01*
X48659Y-41297D02*
X48577Y-41280D01*
X48577Y-41280D02*
X48500Y-41246D01*
X48500Y-41246D02*
X48433Y-41197D01*
X48433Y-41197D02*
X48377Y-41135D01*
X48377Y-41135D02*
X48335Y-41062D01*
X48335Y-41062D02*
X48309Y-40983D01*
X48309Y-40983D02*
X48300Y-40900D01*
X48300Y-40900D02*
X48309Y-40817D01*
X48309Y-40817D02*
X48335Y-40738D01*
X48335Y-40738D02*
X48377Y-40665D01*
X48377Y-40665D02*
X48433Y-40603D01*
X48433Y-40603D02*
X48500Y-40554D01*
X48500Y-40554D02*
X48577Y-40520D01*
X48577Y-40520D02*
X48659Y-40503D01*
X48659Y-40503D02*
X48741Y-40503D01*
X48741Y-40503D02*
X48823Y-40520D01*
X48823Y-40520D02*
X48900Y-40554D01*
X48900Y-40554D02*
X48967Y-40603D01*
X48967Y-40603D02*
X49023Y-40665D01*
X49023Y-40665D02*
X49065Y-40738D01*
X49065Y-40738D02*
X49091Y-40817D01*
X49091Y-40817D02*
X49100Y-40900D01*
X49100Y-37900D02*
X49091Y-37983D01*
X49091Y-37983D02*
X49065Y-38062D01*
X49065Y-38062D02*
X49023Y-38135D01*
X49023Y-38135D02*
X48967Y-38197D01*
X48967Y-38197D02*
X48900Y-38246D01*
X48900Y-38246D02*
X48823Y-38280D01*
X48823Y-38280D02*
X48741Y-38297D01*
X48741Y-38297D02*
X48659Y-38297D01*
X48659Y-38297D02*
X48577Y-38280D01*
X48577Y-38280D02*
X48500Y-38246D01*
X48500Y-38246D02*
X48433Y-38197D01*
X48433Y-38197D02*
X48377Y-38135D01*
X48377Y-38135D02*
X48335Y-38062D01*
X48335Y-38062D02*
X48309Y-37983D01*
X48309Y-37983D02*
X48300Y-37900D01*
X48300Y-37900D02*
X48309Y-37817D01*
X48309Y-37817D02*
X48335Y-37738D01*
X48335Y-37738D02*
X48377Y-37665D01*
X48377Y-37665D02*
X48433Y-37603D01*
X48433Y-37603D02*
X48500Y-37554D01*
X48500Y-37554D02*
X48577Y-37520D01*
X48577Y-37520D02*
X48659Y-37503D01*
X48659Y-37503D02*
X48741Y-37503D01*
X48741Y-37503D02*
X48823Y-37520D01*
X48823Y-37520D02*
X48900Y-37554D01*
X48900Y-37554D02*
X48967Y-37603D01*
X48967Y-37603D02*
X49023Y-37665D01*
X49023Y-37665D02*
X49065Y-37738D01*
X49065Y-37738D02*
X49091Y-37817D01*
X49091Y-37817D02*
X49100Y-37900D01*
X50500Y-33400D02*
X50500Y-34200D01*
X50500Y-34200D02*
X49700Y-34200D01*
X49700Y-34200D02*
X49700Y-33400D01*
X49700Y-33400D02*
X50500Y-33400D01*
X51500Y-33800D02*
X51491Y-33883D01*
X51491Y-33883D02*
X51465Y-33962D01*
X51465Y-33962D02*
X51423Y-34035D01*
X51423Y-34035D02*
X51367Y-34097D01*
X51367Y-34097D02*
X51300Y-34146D01*
X51300Y-34146D02*
X51223Y-34180D01*
X51223Y-34180D02*
X51141Y-34197D01*
X51141Y-34197D02*
X51059Y-34197D01*
X51059Y-34197D02*
X50977Y-34180D01*
X50977Y-34180D02*
X50900Y-34146D01*
X50900Y-34146D02*
X50833Y-34097D01*
X50833Y-34097D02*
X50777Y-34035D01*
X50777Y-34035D02*
X50735Y-33962D01*
X50735Y-33962D02*
X50709Y-33883D01*
X50709Y-33883D02*
X50700Y-33800D01*
X50700Y-33800D02*
X50709Y-33717D01*
X50709Y-33717D02*
X50735Y-33638D01*
X50735Y-33638D02*
X50777Y-33565D01*
X50777Y-33565D02*
X50833Y-33503D01*
X50833Y-33503D02*
X50900Y-33454D01*
X50900Y-33454D02*
X50977Y-33420D01*
X50977Y-33420D02*
X51059Y-33403D01*
X51059Y-33403D02*
X51141Y-33403D01*
X51141Y-33403D02*
X51223Y-33420D01*
X51223Y-33420D02*
X51300Y-33454D01*
X51300Y-33454D02*
X51367Y-33503D01*
X51367Y-33503D02*
X51423Y-33565D01*
X51423Y-33565D02*
X51465Y-33638D01*
X51465Y-33638D02*
X51491Y-33717D01*
X51491Y-33717D02*
X51500Y-33800D01*
X51500Y-32800D02*
X51491Y-32883D01*
X51491Y-32883D02*
X51465Y-32962D01*
X51465Y-32962D02*
X51423Y-33035D01*
X51423Y-33035D02*
X51367Y-33097D01*
X51367Y-33097D02*
X51300Y-33146D01*
X51300Y-33146D02*
X51223Y-33180D01*
X51223Y-33180D02*
X51141Y-33197D01*
X51141Y-33197D02*
X51059Y-33197D01*
X51059Y-33197D02*
X50977Y-33180D01*
X50977Y-33180D02*
X50900Y-33146D01*
X50900Y-33146D02*
X50833Y-33097D01*
X50833Y-33097D02*
X50777Y-33035D01*
X50777Y-33035D02*
X50735Y-32962D01*
X50735Y-32962D02*
X50709Y-32883D01*
X50709Y-32883D02*
X50700Y-32800D01*
X50700Y-32800D02*
X50709Y-32717D01*
X50709Y-32717D02*
X50735Y-32638D01*
X50735Y-32638D02*
X50777Y-32565D01*
X50777Y-32565D02*
X50833Y-32503D01*
X50833Y-32503D02*
X50900Y-32454D01*
X50900Y-32454D02*
X50977Y-32420D01*
X50977Y-32420D02*
X51059Y-32403D01*
X51059Y-32403D02*
X51141Y-32403D01*
X51141Y-32403D02*
X51223Y-32420D01*
X51223Y-32420D02*
X51300Y-32454D01*
X51300Y-32454D02*
X51367Y-32503D01*
X51367Y-32503D02*
X51423Y-32565D01*
X51423Y-32565D02*
X51465Y-32638D01*
X51465Y-32638D02*
X51491Y-32717D01*
X51491Y-32717D02*
X51500Y-32800D01*
X65250Y-38900D02*
X65233Y-39055D01*
X65233Y-39055D02*
X65185Y-39205D01*
X65185Y-39205D02*
X65106Y-39340D01*
X65106Y-39340D02*
X65001Y-39457D01*
X65001Y-39457D02*
X64875Y-39549D01*
X64875Y-39549D02*
X64731Y-39613D01*
X64731Y-39613D02*
X64578Y-39645D01*
X64578Y-39645D02*
X64422Y-39645D01*
X64422Y-39645D02*
X64269Y-39613D01*
X64269Y-39613D02*
X64125Y-39549D01*
X64125Y-39549D02*
X63999Y-39457D01*
X63999Y-39457D02*
X63894Y-39340D01*
X63894Y-39340D02*
X63815Y-39205D01*
X63815Y-39205D02*
X63767Y-39055D01*
X63767Y-39055D02*
X63750Y-38900D01*
X63750Y-38900D02*
X63767Y-38745D01*
X63767Y-38745D02*
X63815Y-38595D01*
X63815Y-38595D02*
X63894Y-38460D01*
X63894Y-38460D02*
X63999Y-38343D01*
X63999Y-38343D02*
X64125Y-38251D01*
X64125Y-38251D02*
X64269Y-38187D01*
X64269Y-38187D02*
X64422Y-38155D01*
X64422Y-38155D02*
X64578Y-38155D01*
X64578Y-38155D02*
X64731Y-38187D01*
X64731Y-38187D02*
X64875Y-38251D01*
X64875Y-38251D02*
X65001Y-38343D01*
X65001Y-38343D02*
X65106Y-38460D01*
X65106Y-38460D02*
X65185Y-38595D01*
X65185Y-38595D02*
X65233Y-38745D01*
X65233Y-38745D02*
X65250Y-38900D01*
X65250Y-28900D02*
X65233Y-29055D01*
X65233Y-29055D02*
X65185Y-29205D01*
X65185Y-29205D02*
X65106Y-29340D01*
X65106Y-29340D02*
X65001Y-29457D01*
X65001Y-29457D02*
X64875Y-29549D01*
X64875Y-29549D02*
X64731Y-29613D01*
X64731Y-29613D02*
X64578Y-29645D01*
X64578Y-29645D02*
X64422Y-29645D01*
X64422Y-29645D02*
X64269Y-29613D01*
X64269Y-29613D02*
X64125Y-29549D01*
X64125Y-29549D02*
X63999Y-29457D01*
X63999Y-29457D02*
X63894Y-29340D01*
X63894Y-29340D02*
X63815Y-29205D01*
X63815Y-29205D02*
X63767Y-29055D01*
X63767Y-29055D02*
X63750Y-28900D01*
X63750Y-28900D02*
X63767Y-28745D01*
X63767Y-28745D02*
X63815Y-28595D01*
X63815Y-28595D02*
X63894Y-28460D01*
X63894Y-28460D02*
X63999Y-28343D01*
X63999Y-28343D02*
X64125Y-28251D01*
X64125Y-28251D02*
X64269Y-28187D01*
X64269Y-28187D02*
X64422Y-28155D01*
X64422Y-28155D02*
X64578Y-28155D01*
X64578Y-28155D02*
X64731Y-28187D01*
X64731Y-28187D02*
X64875Y-28251D01*
X64875Y-28251D02*
X65001Y-28343D01*
X65001Y-28343D02*
X65106Y-28460D01*
X65106Y-28460D02*
X65185Y-28595D01*
X65185Y-28595D02*
X65233Y-28745D01*
X65233Y-28745D02*
X65250Y-28900D01*
X63600Y-31350D02*
X64400Y-31350D01*
X64400Y-31350D02*
X64400Y-32150D01*
X64400Y-32150D02*
X63600Y-32150D01*
X63600Y-32150D02*
X63600Y-31350D01*
X64300Y-32850D02*
X64293Y-32912D01*
X64293Y-32912D02*
X64274Y-32972D01*
X64274Y-32972D02*
X64242Y-33026D01*
X64242Y-33026D02*
X64200Y-33072D01*
X64200Y-33072D02*
X64150Y-33109D01*
X64150Y-33109D02*
X64092Y-33135D01*
X64092Y-33135D02*
X64031Y-33148D01*
X64031Y-33148D02*
X63969Y-33148D01*
X63969Y-33148D02*
X63908Y-33135D01*
X63908Y-33135D02*
X63850Y-33109D01*
X63850Y-33109D02*
X63800Y-33072D01*
X63800Y-33072D02*
X63758Y-33026D01*
X63758Y-33026D02*
X63726Y-32972D01*
X63726Y-32972D02*
X63707Y-32912D01*
X63707Y-32912D02*
X63700Y-32850D01*
X63700Y-32850D02*
X63707Y-32788D01*
X63707Y-32788D02*
X63726Y-32728D01*
X63726Y-32728D02*
X63758Y-32674D01*
X63758Y-32674D02*
X63800Y-32628D01*
X63800Y-32628D02*
X63850Y-32591D01*
X63850Y-32591D02*
X63908Y-32565D01*
X63908Y-32565D02*
X63969Y-32552D01*
X63969Y-32552D02*
X64031Y-32552D01*
X64031Y-32552D02*
X64092Y-32565D01*
X64092Y-32565D02*
X64150Y-32591D01*
X64150Y-32591D02*
X64200Y-32628D01*
X64200Y-32628D02*
X64242Y-32674D01*
X64242Y-32674D02*
X64274Y-32728D01*
X64274Y-32728D02*
X64293Y-32788D01*
X64293Y-32788D02*
X64300Y-32850D01*
X64300Y-33900D02*
X64293Y-33962D01*
X64293Y-33962D02*
X64274Y-34022D01*
X64274Y-34022D02*
X64242Y-34076D01*
X64242Y-34076D02*
X64200Y-34122D01*
X64200Y-34122D02*
X64150Y-34159D01*
X64150Y-34159D02*
X64092Y-34185D01*
X64092Y-34185D02*
X64031Y-34198D01*
X64031Y-34198D02*
X63969Y-34198D01*
X63969Y-34198D02*
X63908Y-34185D01*
X63908Y-34185D02*
X63850Y-34159D01*
X63850Y-34159D02*
X63800Y-34122D01*
X63800Y-34122D02*
X63758Y-34076D01*
X63758Y-34076D02*
X63726Y-34022D01*
X63726Y-34022D02*
X63707Y-33962D01*
X63707Y-33962D02*
X63700Y-33900D01*
X63700Y-33900D02*
X63707Y-33838D01*
X63707Y-33838D02*
X63726Y-33778D01*
X63726Y-33778D02*
X63758Y-33724D01*
X63758Y-33724D02*
X63800Y-33678D01*
X63800Y-33678D02*
X63850Y-33641D01*
X63850Y-33641D02*
X63908Y-33615D01*
X63908Y-33615D02*
X63969Y-33602D01*
X63969Y-33602D02*
X64031Y-33602D01*
X64031Y-33602D02*
X64092Y-33615D01*
X64092Y-33615D02*
X64150Y-33641D01*
X64150Y-33641D02*
X64200Y-33678D01*
X64200Y-33678D02*
X64242Y-33724D01*
X64242Y-33724D02*
X64274Y-33778D01*
X64274Y-33778D02*
X64293Y-33838D01*
X64293Y-33838D02*
X64300Y-33900D01*
X64300Y-35000D02*
X64293Y-35062D01*
X64293Y-35062D02*
X64274Y-35122D01*
X64274Y-35122D02*
X64242Y-35176D01*
X64242Y-35176D02*
X64200Y-35222D01*
X64200Y-35222D02*
X64150Y-35259D01*
X64150Y-35259D02*
X64092Y-35285D01*
X64092Y-35285D02*
X64031Y-35298D01*
X64031Y-35298D02*
X63969Y-35298D01*
X63969Y-35298D02*
X63908Y-35285D01*
X63908Y-35285D02*
X63850Y-35259D01*
X63850Y-35259D02*
X63800Y-35222D01*
X63800Y-35222D02*
X63758Y-35176D01*
X63758Y-35176D02*
X63726Y-35122D01*
X63726Y-35122D02*
X63707Y-35062D01*
X63707Y-35062D02*
X63700Y-35000D01*
X63700Y-35000D02*
X63707Y-34938D01*
X63707Y-34938D02*
X63726Y-34878D01*
X63726Y-34878D02*
X63758Y-34824D01*
X63758Y-34824D02*
X63800Y-34778D01*
X63800Y-34778D02*
X63850Y-34741D01*
X63850Y-34741D02*
X63908Y-34715D01*
X63908Y-34715D02*
X63969Y-34702D01*
X63969Y-34702D02*
X64031Y-34702D01*
X64031Y-34702D02*
X64092Y-34715D01*
X64092Y-34715D02*
X64150Y-34741D01*
X64150Y-34741D02*
X64200Y-34778D01*
X64200Y-34778D02*
X64242Y-34824D01*
X64242Y-34824D02*
X64274Y-34878D01*
X64274Y-34878D02*
X64293Y-34938D01*
X64293Y-34938D02*
X64300Y-35000D01*
X64400Y-36100D02*
X64391Y-36183D01*
X64391Y-36183D02*
X64365Y-36262D01*
X64365Y-36262D02*
X64323Y-36335D01*
X64323Y-36335D02*
X64267Y-36397D01*
X64267Y-36397D02*
X64200Y-36446D01*
X64200Y-36446D02*
X64123Y-36480D01*
X64123Y-36480D02*
X64041Y-36497D01*
X64041Y-36497D02*
X63959Y-36497D01*
X63959Y-36497D02*
X63877Y-36480D01*
X63877Y-36480D02*
X63800Y-36446D01*
X63800Y-36446D02*
X63733Y-36397D01*
X63733Y-36397D02*
X63677Y-36335D01*
X63677Y-36335D02*
X63635Y-36262D01*
X63635Y-36262D02*
X63609Y-36183D01*
X63609Y-36183D02*
X63600Y-36100D01*
X63600Y-36100D02*
X63609Y-36017D01*
X63609Y-36017D02*
X63635Y-35938D01*
X63635Y-35938D02*
X63677Y-35865D01*
X63677Y-35865D02*
X63733Y-35803D01*
X63733Y-35803D02*
X63800Y-35754D01*
X63800Y-35754D02*
X63877Y-35720D01*
X63877Y-35720D02*
X63959Y-35703D01*
X63959Y-35703D02*
X64041Y-35703D01*
X64041Y-35703D02*
X64123Y-35720D01*
X64123Y-35720D02*
X64200Y-35754D01*
X64200Y-35754D02*
X64267Y-35803D01*
X64267Y-35803D02*
X64323Y-35865D01*
X64323Y-35865D02*
X64365Y-35938D01*
X64365Y-35938D02*
X64391Y-36017D01*
X64391Y-36017D02*
X64400Y-36100D01*
X65400Y-32300D02*
X65391Y-32383D01*
X65391Y-32383D02*
X65365Y-32462D01*
X65365Y-32462D02*
X65323Y-32535D01*
X65323Y-32535D02*
X65267Y-32597D01*
X65267Y-32597D02*
X65200Y-32646D01*
X65200Y-32646D02*
X65123Y-32680D01*
X65123Y-32680D02*
X65041Y-32697D01*
X65041Y-32697D02*
X64959Y-32697D01*
X64959Y-32697D02*
X64877Y-32680D01*
X64877Y-32680D02*
X64800Y-32646D01*
X64800Y-32646D02*
X64733Y-32597D01*
X64733Y-32597D02*
X64677Y-32535D01*
X64677Y-32535D02*
X64635Y-32462D01*
X64635Y-32462D02*
X64609Y-32383D01*
X64609Y-32383D02*
X64600Y-32300D01*
X64600Y-32300D02*
X64609Y-32217D01*
X64609Y-32217D02*
X64635Y-32138D01*
X64635Y-32138D02*
X64677Y-32065D01*
X64677Y-32065D02*
X64733Y-32003D01*
X64733Y-32003D02*
X64800Y-31954D01*
X64800Y-31954D02*
X64877Y-31920D01*
X64877Y-31920D02*
X64959Y-31903D01*
X64959Y-31903D02*
X65041Y-31903D01*
X65041Y-31903D02*
X65123Y-31920D01*
X65123Y-31920D02*
X65200Y-31954D01*
X65200Y-31954D02*
X65267Y-32003D01*
X65267Y-32003D02*
X65323Y-32065D01*
X65323Y-32065D02*
X65365Y-32138D01*
X65365Y-32138D02*
X65391Y-32217D01*
X65391Y-32217D02*
X65400Y-32300D01*
X65300Y-33400D02*
X65293Y-33462D01*
X65293Y-33462D02*
X65274Y-33522D01*
X65274Y-33522D02*
X65242Y-33576D01*
X65242Y-33576D02*
X65200Y-33622D01*
X65200Y-33622D02*
X65150Y-33659D01*
X65150Y-33659D02*
X65092Y-33685D01*
X65092Y-33685D02*
X65031Y-33698D01*
X65031Y-33698D02*
X64969Y-33698D01*
X64969Y-33698D02*
X64908Y-33685D01*
X64908Y-33685D02*
X64850Y-33659D01*
X64850Y-33659D02*
X64800Y-33622D01*
X64800Y-33622D02*
X64758Y-33576D01*
X64758Y-33576D02*
X64726Y-33522D01*
X64726Y-33522D02*
X64707Y-33462D01*
X64707Y-33462D02*
X64700Y-33400D01*
X64700Y-33400D02*
X64707Y-33338D01*
X64707Y-33338D02*
X64726Y-33278D01*
X64726Y-33278D02*
X64758Y-33224D01*
X64758Y-33224D02*
X64800Y-33178D01*
X64800Y-33178D02*
X64850Y-33141D01*
X64850Y-33141D02*
X64908Y-33115D01*
X64908Y-33115D02*
X64969Y-33102D01*
X64969Y-33102D02*
X65031Y-33102D01*
X65031Y-33102D02*
X65092Y-33115D01*
X65092Y-33115D02*
X65150Y-33141D01*
X65150Y-33141D02*
X65200Y-33178D01*
X65200Y-33178D02*
X65242Y-33224D01*
X65242Y-33224D02*
X65274Y-33278D01*
X65274Y-33278D02*
X65293Y-33338D01*
X65293Y-33338D02*
X65300Y-33400D01*
X65300Y-34450D02*
X65293Y-34512D01*
X65293Y-34512D02*
X65274Y-34572D01*
X65274Y-34572D02*
X65242Y-34626D01*
X65242Y-34626D02*
X65200Y-34672D01*
X65200Y-34672D02*
X65150Y-34709D01*
X65150Y-34709D02*
X65092Y-34735D01*
X65092Y-34735D02*
X65031Y-34748D01*
X65031Y-34748D02*
X64969Y-34748D01*
X64969Y-34748D02*
X64908Y-34735D01*
X64908Y-34735D02*
X64850Y-34709D01*
X64850Y-34709D02*
X64800Y-34672D01*
X64800Y-34672D02*
X64758Y-34626D01*
X64758Y-34626D02*
X64726Y-34572D01*
X64726Y-34572D02*
X64707Y-34512D01*
X64707Y-34512D02*
X64700Y-34450D01*
X64700Y-34450D02*
X64707Y-34388D01*
X64707Y-34388D02*
X64726Y-34328D01*
X64726Y-34328D02*
X64758Y-34274D01*
X64758Y-34274D02*
X64800Y-34228D01*
X64800Y-34228D02*
X64850Y-34191D01*
X64850Y-34191D02*
X64908Y-34165D01*
X64908Y-34165D02*
X64969Y-34152D01*
X64969Y-34152D02*
X65031Y-34152D01*
X65031Y-34152D02*
X65092Y-34165D01*
X65092Y-34165D02*
X65150Y-34191D01*
X65150Y-34191D02*
X65200Y-34228D01*
X65200Y-34228D02*
X65242Y-34274D01*
X65242Y-34274D02*
X65274Y-34328D01*
X65274Y-34328D02*
X65293Y-34388D01*
X65293Y-34388D02*
X65300Y-34450D01*
X65300Y-35550D02*
X65293Y-35612D01*
X65293Y-35612D02*
X65274Y-35672D01*
X65274Y-35672D02*
X65242Y-35726D01*
X65242Y-35726D02*
X65200Y-35772D01*
X65200Y-35772D02*
X65150Y-35809D01*
X65150Y-35809D02*
X65092Y-35835D01*
X65092Y-35835D02*
X65031Y-35848D01*
X65031Y-35848D02*
X64969Y-35848D01*
X64969Y-35848D02*
X64908Y-35835D01*
X64908Y-35835D02*
X64850Y-35809D01*
X64850Y-35809D02*
X64800Y-35772D01*
X64800Y-35772D02*
X64758Y-35726D01*
X64758Y-35726D02*
X64726Y-35672D01*
X64726Y-35672D02*
X64707Y-35612D01*
X64707Y-35612D02*
X64700Y-35550D01*
X64700Y-35550D02*
X64707Y-35488D01*
X64707Y-35488D02*
X64726Y-35428D01*
X64726Y-35428D02*
X64758Y-35374D01*
X64758Y-35374D02*
X64800Y-35328D01*
X64800Y-35328D02*
X64850Y-35291D01*
X64850Y-35291D02*
X64908Y-35265D01*
X64908Y-35265D02*
X64969Y-35252D01*
X64969Y-35252D02*
X65031Y-35252D01*
X65031Y-35252D02*
X65092Y-35265D01*
X65092Y-35265D02*
X65150Y-35291D01*
X65150Y-35291D02*
X65200Y-35328D01*
X65200Y-35328D02*
X65242Y-35374D01*
X65242Y-35374D02*
X65274Y-35428D01*
X65274Y-35428D02*
X65293Y-35488D01*
X65293Y-35488D02*
X65300Y-35550D01*
X58200Y-30400D02*
X59000Y-30400D01*
X59000Y-30400D02*
X59000Y-31200D01*
X59000Y-31200D02*
X58200Y-31200D01*
X58200Y-31200D02*
X58200Y-30400D01*
X59000Y-31800D02*
X58991Y-31883D01*
X58991Y-31883D02*
X58965Y-31962D01*
X58965Y-31962D02*
X58923Y-32035D01*
X58923Y-32035D02*
X58867Y-32097D01*
X58867Y-32097D02*
X58800Y-32146D01*
X58800Y-32146D02*
X58723Y-32180D01*
X58723Y-32180D02*
X58641Y-32197D01*
X58641Y-32197D02*
X58559Y-32197D01*
X58559Y-32197D02*
X58477Y-32180D01*
X58477Y-32180D02*
X58400Y-32146D01*
X58400Y-32146D02*
X58333Y-32097D01*
X58333Y-32097D02*
X58277Y-32035D01*
X58277Y-32035D02*
X58235Y-31962D01*
X58235Y-31962D02*
X58209Y-31883D01*
X58209Y-31883D02*
X58200Y-31800D01*
X58200Y-31800D02*
X58209Y-31717D01*
X58209Y-31717D02*
X58235Y-31638D01*
X58235Y-31638D02*
X58277Y-31565D01*
X58277Y-31565D02*
X58333Y-31503D01*
X58333Y-31503D02*
X58400Y-31454D01*
X58400Y-31454D02*
X58477Y-31420D01*
X58477Y-31420D02*
X58559Y-31403D01*
X58559Y-31403D02*
X58641Y-31403D01*
X58641Y-31403D02*
X58723Y-31420D01*
X58723Y-31420D02*
X58800Y-31454D01*
X58800Y-31454D02*
X58867Y-31503D01*
X58867Y-31503D02*
X58923Y-31565D01*
X58923Y-31565D02*
X58965Y-31638D01*
X58965Y-31638D02*
X58991Y-31717D01*
X58991Y-31717D02*
X59000Y-31800D01*
X59000Y-32800D02*
X58991Y-32883D01*
X58991Y-32883D02*
X58965Y-32962D01*
X58965Y-32962D02*
X58923Y-33035D01*
X58923Y-33035D02*
X58867Y-33097D01*
X58867Y-33097D02*
X58800Y-33146D01*
X58800Y-33146D02*
X58723Y-33180D01*
X58723Y-33180D02*
X58641Y-33197D01*
X58641Y-33197D02*
X58559Y-33197D01*
X58559Y-33197D02*
X58477Y-33180D01*
X58477Y-33180D02*
X58400Y-33146D01*
X58400Y-33146D02*
X58333Y-33097D01*
X58333Y-33097D02*
X58277Y-33035D01*
X58277Y-33035D02*
X58235Y-32962D01*
X58235Y-32962D02*
X58209Y-32883D01*
X58209Y-32883D02*
X58200Y-32800D01*
X58200Y-32800D02*
X58209Y-32717D01*
X58209Y-32717D02*
X58235Y-32638D01*
X58235Y-32638D02*
X58277Y-32565D01*
X58277Y-32565D02*
X58333Y-32503D01*
X58333Y-32503D02*
X58400Y-32454D01*
X58400Y-32454D02*
X58477Y-32420D01*
X58477Y-32420D02*
X58559Y-32403D01*
X58559Y-32403D02*
X58641Y-32403D01*
X58641Y-32403D02*
X58723Y-32420D01*
X58723Y-32420D02*
X58800Y-32454D01*
X58800Y-32454D02*
X58867Y-32503D01*
X58867Y-32503D02*
X58923Y-32565D01*
X58923Y-32565D02*
X58965Y-32638D01*
X58965Y-32638D02*
X58991Y-32717D01*
X58991Y-32717D02*
X59000Y-32800D01*
X59000Y-33800D02*
X58991Y-33883D01*
X58991Y-33883D02*
X58965Y-33962D01*
X58965Y-33962D02*
X58923Y-34035D01*
X58923Y-34035D02*
X58867Y-34097D01*
X58867Y-34097D02*
X58800Y-34146D01*
X58800Y-34146D02*
X58723Y-34180D01*
X58723Y-34180D02*
X58641Y-34197D01*
X58641Y-34197D02*
X58559Y-34197D01*
X58559Y-34197D02*
X58477Y-34180D01*
X58477Y-34180D02*
X58400Y-34146D01*
X58400Y-34146D02*
X58333Y-34097D01*
X58333Y-34097D02*
X58277Y-34035D01*
X58277Y-34035D02*
X58235Y-33962D01*
X58235Y-33962D02*
X58209Y-33883D01*
X58209Y-33883D02*
X58200Y-33800D01*
X58200Y-33800D02*
X58209Y-33717D01*
X58209Y-33717D02*
X58235Y-33638D01*
X58235Y-33638D02*
X58277Y-33565D01*
X58277Y-33565D02*
X58333Y-33503D01*
X58333Y-33503D02*
X58400Y-33454D01*
X58400Y-33454D02*
X58477Y-33420D01*
X58477Y-33420D02*
X58559Y-33403D01*
X58559Y-33403D02*
X58641Y-33403D01*
X58641Y-33403D02*
X58723Y-33420D01*
X58723Y-33420D02*
X58800Y-33454D01*
X58800Y-33454D02*
X58867Y-33503D01*
X58867Y-33503D02*
X58923Y-33565D01*
X58923Y-33565D02*
X58965Y-33638D01*
X58965Y-33638D02*
X58991Y-33717D01*
X58991Y-33717D02*
X59000Y-33800D01*
X59000Y-34800D02*
X58991Y-34883D01*
X58991Y-34883D02*
X58965Y-34962D01*
X58965Y-34962D02*
X58923Y-35035D01*
X58923Y-35035D02*
X58867Y-35097D01*
X58867Y-35097D02*
X58800Y-35146D01*
X58800Y-35146D02*
X58723Y-35180D01*
X58723Y-35180D02*
X58641Y-35197D01*
X58641Y-35197D02*
X58559Y-35197D01*
X58559Y-35197D02*
X58477Y-35180D01*
X58477Y-35180D02*
X58400Y-35146D01*
X58400Y-35146D02*
X58333Y-35097D01*
X58333Y-35097D02*
X58277Y-35035D01*
X58277Y-35035D02*
X58235Y-34962D01*
X58235Y-34962D02*
X58209Y-34883D01*
X58209Y-34883D02*
X58200Y-34800D01*
X58200Y-34800D02*
X58209Y-34717D01*
X58209Y-34717D02*
X58235Y-34638D01*
X58235Y-34638D02*
X58277Y-34565D01*
X58277Y-34565D02*
X58333Y-34503D01*
X58333Y-34503D02*
X58400Y-34454D01*
X58400Y-34454D02*
X58477Y-34420D01*
X58477Y-34420D02*
X58559Y-34403D01*
X58559Y-34403D02*
X58641Y-34403D01*
X58641Y-34403D02*
X58723Y-34420D01*
X58723Y-34420D02*
X58800Y-34454D01*
X58800Y-34454D02*
X58867Y-34503D01*
X58867Y-34503D02*
X58923Y-34565D01*
X58923Y-34565D02*
X58965Y-34638D01*
X58965Y-34638D02*
X58991Y-34717D01*
X58991Y-34717D02*
X59000Y-34800D01*
X59000Y-35800D02*
X58991Y-35883D01*
X58991Y-35883D02*
X58965Y-35962D01*
X58965Y-35962D02*
X58923Y-36035D01*
X58923Y-36035D02*
X58867Y-36097D01*
X58867Y-36097D02*
X58800Y-36146D01*
X58800Y-36146D02*
X58723Y-36180D01*
X58723Y-36180D02*
X58641Y-36197D01*
X58641Y-36197D02*
X58559Y-36197D01*
X58559Y-36197D02*
X58477Y-36180D01*
X58477Y-36180D02*
X58400Y-36146D01*
X58400Y-36146D02*
X58333Y-36097D01*
X58333Y-36097D02*
X58277Y-36035D01*
X58277Y-36035D02*
X58235Y-35962D01*
X58235Y-35962D02*
X58209Y-35883D01*
X58209Y-35883D02*
X58200Y-35800D01*
X58200Y-35800D02*
X58209Y-35717D01*
X58209Y-35717D02*
X58235Y-35638D01*
X58235Y-35638D02*
X58277Y-35565D01*
X58277Y-35565D02*
X58333Y-35503D01*
X58333Y-35503D02*
X58400Y-35454D01*
X58400Y-35454D02*
X58477Y-35420D01*
X58477Y-35420D02*
X58559Y-35403D01*
X58559Y-35403D02*
X58641Y-35403D01*
X58641Y-35403D02*
X58723Y-35420D01*
X58723Y-35420D02*
X58800Y-35454D01*
X58800Y-35454D02*
X58867Y-35503D01*
X58867Y-35503D02*
X58923Y-35565D01*
X58923Y-35565D02*
X58965Y-35638D01*
X58965Y-35638D02*
X58991Y-35717D01*
X58991Y-35717D02*
X59000Y-35800D01*
X59000Y-36800D02*
X58991Y-36883D01*
X58991Y-36883D02*
X58965Y-36962D01*
X58965Y-36962D02*
X58923Y-37035D01*
X58923Y-37035D02*
X58867Y-37097D01*
X58867Y-37097D02*
X58800Y-37146D01*
X58800Y-37146D02*
X58723Y-37180D01*
X58723Y-37180D02*
X58641Y-37197D01*
X58641Y-37197D02*
X58559Y-37197D01*
X58559Y-37197D02*
X58477Y-37180D01*
X58477Y-37180D02*
X58400Y-37146D01*
X58400Y-37146D02*
X58333Y-37097D01*
X58333Y-37097D02*
X58277Y-37035D01*
X58277Y-37035D02*
X58235Y-36962D01*
X58235Y-36962D02*
X58209Y-36883D01*
X58209Y-36883D02*
X58200Y-36800D01*
X58200Y-36800D02*
X58209Y-36717D01*
X58209Y-36717D02*
X58235Y-36638D01*
X58235Y-36638D02*
X58277Y-36565D01*
X58277Y-36565D02*
X58333Y-36503D01*
X58333Y-36503D02*
X58400Y-36454D01*
X58400Y-36454D02*
X58477Y-36420D01*
X58477Y-36420D02*
X58559Y-36403D01*
X58559Y-36403D02*
X58641Y-36403D01*
X58641Y-36403D02*
X58723Y-36420D01*
X58723Y-36420D02*
X58800Y-36454D01*
X58800Y-36454D02*
X58867Y-36503D01*
X58867Y-36503D02*
X58923Y-36565D01*
X58923Y-36565D02*
X58965Y-36638D01*
X58965Y-36638D02*
X58991Y-36717D01*
X58991Y-36717D02*
X59000Y-36800D01*
X59000Y-37800D02*
X58991Y-37883D01*
X58991Y-37883D02*
X58965Y-37962D01*
X58965Y-37962D02*
X58923Y-38035D01*
X58923Y-38035D02*
X58867Y-38097D01*
X58867Y-38097D02*
X58800Y-38146D01*
X58800Y-38146D02*
X58723Y-38180D01*
X58723Y-38180D02*
X58641Y-38197D01*
X58641Y-38197D02*
X58559Y-38197D01*
X58559Y-38197D02*
X58477Y-38180D01*
X58477Y-38180D02*
X58400Y-38146D01*
X58400Y-38146D02*
X58333Y-38097D01*
X58333Y-38097D02*
X58277Y-38035D01*
X58277Y-38035D02*
X58235Y-37962D01*
X58235Y-37962D02*
X58209Y-37883D01*
X58209Y-37883D02*
X58200Y-37800D01*
X58200Y-37800D02*
X58209Y-37717D01*
X58209Y-37717D02*
X58235Y-37638D01*
X58235Y-37638D02*
X58277Y-37565D01*
X58277Y-37565D02*
X58333Y-37503D01*
X58333Y-37503D02*
X58400Y-37454D01*
X58400Y-37454D02*
X58477Y-37420D01*
X58477Y-37420D02*
X58559Y-37403D01*
X58559Y-37403D02*
X58641Y-37403D01*
X58641Y-37403D02*
X58723Y-37420D01*
X58723Y-37420D02*
X58800Y-37454D01*
X58800Y-37454D02*
X58867Y-37503D01*
X58867Y-37503D02*
X58923Y-37565D01*
X58923Y-37565D02*
X58965Y-37638D01*
X58965Y-37638D02*
X58991Y-37717D01*
X58991Y-37717D02*
X59000Y-37800D01*
X62000Y-37800D02*
X61991Y-37883D01*
X61991Y-37883D02*
X61965Y-37962D01*
X61965Y-37962D02*
X61923Y-38035D01*
X61923Y-38035D02*
X61867Y-38097D01*
X61867Y-38097D02*
X61800Y-38146D01*
X61800Y-38146D02*
X61723Y-38180D01*
X61723Y-38180D02*
X61641Y-38197D01*
X61641Y-38197D02*
X61559Y-38197D01*
X61559Y-38197D02*
X61477Y-38180D01*
X61477Y-38180D02*
X61400Y-38146D01*
X61400Y-38146D02*
X61333Y-38097D01*
X61333Y-38097D02*
X61277Y-38035D01*
X61277Y-38035D02*
X61235Y-37962D01*
X61235Y-37962D02*
X61209Y-37883D01*
X61209Y-37883D02*
X61200Y-37800D01*
X61200Y-37800D02*
X61209Y-37717D01*
X61209Y-37717D02*
X61235Y-37638D01*
X61235Y-37638D02*
X61277Y-37565D01*
X61277Y-37565D02*
X61333Y-37503D01*
X61333Y-37503D02*
X61400Y-37454D01*
X61400Y-37454D02*
X61477Y-37420D01*
X61477Y-37420D02*
X61559Y-37403D01*
X61559Y-37403D02*
X61641Y-37403D01*
X61641Y-37403D02*
X61723Y-37420D01*
X61723Y-37420D02*
X61800Y-37454D01*
X61800Y-37454D02*
X61867Y-37503D01*
X61867Y-37503D02*
X61923Y-37565D01*
X61923Y-37565D02*
X61965Y-37638D01*
X61965Y-37638D02*
X61991Y-37717D01*
X61991Y-37717D02*
X62000Y-37800D01*
X62000Y-36800D02*
X61991Y-36883D01*
X61991Y-36883D02*
X61965Y-36962D01*
X61965Y-36962D02*
X61923Y-37035D01*
X61923Y-37035D02*
X61867Y-37097D01*
X61867Y-37097D02*
X61800Y-37146D01*
X61800Y-37146D02*
X61723Y-37180D01*
X61723Y-37180D02*
X61641Y-37197D01*
X61641Y-37197D02*
X61559Y-37197D01*
X61559Y-37197D02*
X61477Y-37180D01*
X61477Y-37180D02*
X61400Y-37146D01*
X61400Y-37146D02*
X61333Y-37097D01*
X61333Y-37097D02*
X61277Y-37035D01*
X61277Y-37035D02*
X61235Y-36962D01*
X61235Y-36962D02*
X61209Y-36883D01*
X61209Y-36883D02*
X61200Y-36800D01*
X61200Y-36800D02*
X61209Y-36717D01*
X61209Y-36717D02*
X61235Y-36638D01*
X61235Y-36638D02*
X61277Y-36565D01*
X61277Y-36565D02*
X61333Y-36503D01*
X61333Y-36503D02*
X61400Y-36454D01*
X61400Y-36454D02*
X61477Y-36420D01*
X61477Y-36420D02*
X61559Y-36403D01*
X61559Y-36403D02*
X61641Y-36403D01*
X61641Y-36403D02*
X61723Y-36420D01*
X61723Y-36420D02*
X61800Y-36454D01*
X61800Y-36454D02*
X61867Y-36503D01*
X61867Y-36503D02*
X61923Y-36565D01*
X61923Y-36565D02*
X61965Y-36638D01*
X61965Y-36638D02*
X61991Y-36717D01*
X61991Y-36717D02*
X62000Y-36800D01*
X62000Y-35800D02*
X61991Y-35883D01*
X61991Y-35883D02*
X61965Y-35962D01*
X61965Y-35962D02*
X61923Y-36035D01*
X61923Y-36035D02*
X61867Y-36097D01*
X61867Y-36097D02*
X61800Y-36146D01*
X61800Y-36146D02*
X61723Y-36180D01*
X61723Y-36180D02*
X61641Y-36197D01*
X61641Y-36197D02*
X61559Y-36197D01*
X61559Y-36197D02*
X61477Y-36180D01*
X61477Y-36180D02*
X61400Y-36146D01*
X61400Y-36146D02*
X61333Y-36097D01*
X61333Y-36097D02*
X61277Y-36035D01*
X61277Y-36035D02*
X61235Y-35962D01*
X61235Y-35962D02*
X61209Y-35883D01*
X61209Y-35883D02*
X61200Y-35800D01*
X61200Y-35800D02*
X61209Y-35717D01*
X61209Y-35717D02*
X61235Y-35638D01*
X61235Y-35638D02*
X61277Y-35565D01*
X61277Y-35565D02*
X61333Y-35503D01*
X61333Y-35503D02*
X61400Y-35454D01*
X61400Y-35454D02*
X61477Y-35420D01*
X61477Y-35420D02*
X61559Y-35403D01*
X61559Y-35403D02*
X61641Y-35403D01*
X61641Y-35403D02*
X61723Y-35420D01*
X61723Y-35420D02*
X61800Y-35454D01*
X61800Y-35454D02*
X61867Y-35503D01*
X61867Y-35503D02*
X61923Y-35565D01*
X61923Y-35565D02*
X61965Y-35638D01*
X61965Y-35638D02*
X61991Y-35717D01*
X61991Y-35717D02*
X62000Y-35800D01*
X62000Y-34800D02*
X61991Y-34883D01*
X61991Y-34883D02*
X61965Y-34962D01*
X61965Y-34962D02*
X61923Y-35035D01*
X61923Y-35035D02*
X61867Y-35097D01*
X61867Y-35097D02*
X61800Y-35146D01*
X61800Y-35146D02*
X61723Y-35180D01*
X61723Y-35180D02*
X61641Y-35197D01*
X61641Y-35197D02*
X61559Y-35197D01*
X61559Y-35197D02*
X61477Y-35180D01*
X61477Y-35180D02*
X61400Y-35146D01*
X61400Y-35146D02*
X61333Y-35097D01*
X61333Y-35097D02*
X61277Y-35035D01*
X61277Y-35035D02*
X61235Y-34962D01*
X61235Y-34962D02*
X61209Y-34883D01*
X61209Y-34883D02*
X61200Y-34800D01*
X61200Y-34800D02*
X61209Y-34717D01*
X61209Y-34717D02*
X61235Y-34638D01*
X61235Y-34638D02*
X61277Y-34565D01*
X61277Y-34565D02*
X61333Y-34503D01*
X61333Y-34503D02*
X61400Y-34454D01*
X61400Y-34454D02*
X61477Y-34420D01*
X61477Y-34420D02*
X61559Y-34403D01*
X61559Y-34403D02*
X61641Y-34403D01*
X61641Y-34403D02*
X61723Y-34420D01*
X61723Y-34420D02*
X61800Y-34454D01*
X61800Y-34454D02*
X61867Y-34503D01*
X61867Y-34503D02*
X61923Y-34565D01*
X61923Y-34565D02*
X61965Y-34638D01*
X61965Y-34638D02*
X61991Y-34717D01*
X61991Y-34717D02*
X62000Y-34800D01*
X62000Y-33800D02*
X61991Y-33883D01*
X61991Y-33883D02*
X61965Y-33962D01*
X61965Y-33962D02*
X61923Y-34035D01*
X61923Y-34035D02*
X61867Y-34097D01*
X61867Y-34097D02*
X61800Y-34146D01*
X61800Y-34146D02*
X61723Y-34180D01*
X61723Y-34180D02*
X61641Y-34197D01*
X61641Y-34197D02*
X61559Y-34197D01*
X61559Y-34197D02*
X61477Y-34180D01*
X61477Y-34180D02*
X61400Y-34146D01*
X61400Y-34146D02*
X61333Y-34097D01*
X61333Y-34097D02*
X61277Y-34035D01*
X61277Y-34035D02*
X61235Y-33962D01*
X61235Y-33962D02*
X61209Y-33883D01*
X61209Y-33883D02*
X61200Y-33800D01*
X61200Y-33800D02*
X61209Y-33717D01*
X61209Y-33717D02*
X61235Y-33638D01*
X61235Y-33638D02*
X61277Y-33565D01*
X61277Y-33565D02*
X61333Y-33503D01*
X61333Y-33503D02*
X61400Y-33454D01*
X61400Y-33454D02*
X61477Y-33420D01*
X61477Y-33420D02*
X61559Y-33403D01*
X61559Y-33403D02*
X61641Y-33403D01*
X61641Y-33403D02*
X61723Y-33420D01*
X61723Y-33420D02*
X61800Y-33454D01*
X61800Y-33454D02*
X61867Y-33503D01*
X61867Y-33503D02*
X61923Y-33565D01*
X61923Y-33565D02*
X61965Y-33638D01*
X61965Y-33638D02*
X61991Y-33717D01*
X61991Y-33717D02*
X62000Y-33800D01*
X62000Y-32800D02*
X61991Y-32883D01*
X61991Y-32883D02*
X61965Y-32962D01*
X61965Y-32962D02*
X61923Y-33035D01*
X61923Y-33035D02*
X61867Y-33097D01*
X61867Y-33097D02*
X61800Y-33146D01*
X61800Y-33146D02*
X61723Y-33180D01*
X61723Y-33180D02*
X61641Y-33197D01*
X61641Y-33197D02*
X61559Y-33197D01*
X61559Y-33197D02*
X61477Y-33180D01*
X61477Y-33180D02*
X61400Y-33146D01*
X61400Y-33146D02*
X61333Y-33097D01*
X61333Y-33097D02*
X61277Y-33035D01*
X61277Y-33035D02*
X61235Y-32962D01*
X61235Y-32962D02*
X61209Y-32883D01*
X61209Y-32883D02*
X61200Y-32800D01*
X61200Y-32800D02*
X61209Y-32717D01*
X61209Y-32717D02*
X61235Y-32638D01*
X61235Y-32638D02*
X61277Y-32565D01*
X61277Y-32565D02*
X61333Y-32503D01*
X61333Y-32503D02*
X61400Y-32454D01*
X61400Y-32454D02*
X61477Y-32420D01*
X61477Y-32420D02*
X61559Y-32403D01*
X61559Y-32403D02*
X61641Y-32403D01*
X61641Y-32403D02*
X61723Y-32420D01*
X61723Y-32420D02*
X61800Y-32454D01*
X61800Y-32454D02*
X61867Y-32503D01*
X61867Y-32503D02*
X61923Y-32565D01*
X61923Y-32565D02*
X61965Y-32638D01*
X61965Y-32638D02*
X61991Y-32717D01*
X61991Y-32717D02*
X62000Y-32800D01*
X62000Y-31800D02*
X61991Y-31883D01*
X61991Y-31883D02*
X61965Y-31962D01*
X61965Y-31962D02*
X61923Y-32035D01*
X61923Y-32035D02*
X61867Y-32097D01*
X61867Y-32097D02*
X61800Y-32146D01*
X61800Y-32146D02*
X61723Y-32180D01*
X61723Y-32180D02*
X61641Y-32197D01*
X61641Y-32197D02*
X61559Y-32197D01*
X61559Y-32197D02*
X61477Y-32180D01*
X61477Y-32180D02*
X61400Y-32146D01*
X61400Y-32146D02*
X61333Y-32097D01*
X61333Y-32097D02*
X61277Y-32035D01*
X61277Y-32035D02*
X61235Y-31962D01*
X61235Y-31962D02*
X61209Y-31883D01*
X61209Y-31883D02*
X61200Y-31800D01*
X61200Y-31800D02*
X61209Y-31717D01*
X61209Y-31717D02*
X61235Y-31638D01*
X61235Y-31638D02*
X61277Y-31565D01*
X61277Y-31565D02*
X61333Y-31503D01*
X61333Y-31503D02*
X61400Y-31454D01*
X61400Y-31454D02*
X61477Y-31420D01*
X61477Y-31420D02*
X61559Y-31403D01*
X61559Y-31403D02*
X61641Y-31403D01*
X61641Y-31403D02*
X61723Y-31420D01*
X61723Y-31420D02*
X61800Y-31454D01*
X61800Y-31454D02*
X61867Y-31503D01*
X61867Y-31503D02*
X61923Y-31565D01*
X61923Y-31565D02*
X61965Y-31638D01*
X61965Y-31638D02*
X61991Y-31717D01*
X61991Y-31717D02*
X62000Y-31800D01*
X62000Y-30800D02*
X61991Y-30883D01*
X61991Y-30883D02*
X61965Y-30962D01*
X61965Y-30962D02*
X61923Y-31035D01*
X61923Y-31035D02*
X61867Y-31097D01*
X61867Y-31097D02*
X61800Y-31146D01*
X61800Y-31146D02*
X61723Y-31180D01*
X61723Y-31180D02*
X61641Y-31197D01*
X61641Y-31197D02*
X61559Y-31197D01*
X61559Y-31197D02*
X61477Y-31180D01*
X61477Y-31180D02*
X61400Y-31146D01*
X61400Y-31146D02*
X61333Y-31097D01*
X61333Y-31097D02*
X61277Y-31035D01*
X61277Y-31035D02*
X61235Y-30962D01*
X61235Y-30962D02*
X61209Y-30883D01*
X61209Y-30883D02*
X61200Y-30800D01*
X61200Y-30800D02*
X61209Y-30717D01*
X61209Y-30717D02*
X61235Y-30638D01*
X61235Y-30638D02*
X61277Y-30565D01*
X61277Y-30565D02*
X61333Y-30503D01*
X61333Y-30503D02*
X61400Y-30454D01*
X61400Y-30454D02*
X61477Y-30420D01*
X61477Y-30420D02*
X61559Y-30403D01*
X61559Y-30403D02*
X61641Y-30403D01*
X61641Y-30403D02*
X61723Y-30420D01*
X61723Y-30420D02*
X61800Y-30454D01*
X61800Y-30454D02*
X61867Y-30503D01*
X61867Y-30503D02*
X61923Y-30565D01*
X61923Y-30565D02*
X61965Y-30638D01*
X61965Y-30638D02*
X61991Y-30717D01*
X61991Y-30717D02*
X62000Y-30800D01*
X43600Y-39400D02*
X43600Y-40400D01*
X43600Y-40400D02*
X42600Y-40400D01*
X42600Y-40400D02*
X42600Y-39400D01*
X42600Y-39400D02*
X43600Y-39400D01*
X41600Y-39900D02*
X41589Y-40003D01*
X41589Y-40003D02*
X41556Y-40103D01*
X41556Y-40103D02*
X41504Y-40193D01*
X41504Y-40193D02*
X41434Y-40271D01*
X41434Y-40271D02*
X41350Y-40333D01*
X41350Y-40333D02*
X41254Y-40375D01*
X41254Y-40375D02*
X41152Y-40397D01*
X41152Y-40397D02*
X41048Y-40397D01*
X41048Y-40397D02*
X40946Y-40375D01*
X40946Y-40375D02*
X40850Y-40333D01*
X40850Y-40333D02*
X40766Y-40271D01*
X40766Y-40271D02*
X40696Y-40193D01*
X40696Y-40193D02*
X40644Y-40103D01*
X40644Y-40103D02*
X40611Y-40003D01*
X40611Y-40003D02*
X40600Y-39900D01*
X40600Y-39900D02*
X40611Y-39797D01*
X40611Y-39797D02*
X40644Y-39697D01*
X40644Y-39697D02*
X40696Y-39607D01*
X40696Y-39607D02*
X40766Y-39529D01*
X40766Y-39529D02*
X40850Y-39467D01*
X40850Y-39467D02*
X40946Y-39425D01*
X40946Y-39425D02*
X41048Y-39403D01*
X41048Y-39403D02*
X41152Y-39403D01*
X41152Y-39403D02*
X41254Y-39425D01*
X41254Y-39425D02*
X41350Y-39467D01*
X41350Y-39467D02*
X41434Y-39529D01*
X41434Y-39529D02*
X41504Y-39607D01*
X41504Y-39607D02*
X41556Y-39697D01*
X41556Y-39697D02*
X41589Y-39797D01*
X41589Y-39797D02*
X41600Y-39900D01*
X58900Y-41300D02*
X58900Y-40500D01*
X58900Y-40500D02*
X59700Y-40500D01*
X59700Y-40500D02*
X59700Y-41300D01*
X59700Y-41300D02*
X58900Y-41300D01*
X60700Y-40900D02*
X60691Y-40983D01*
X60691Y-40983D02*
X60665Y-41062D01*
X60665Y-41062D02*
X60623Y-41135D01*
X60623Y-41135D02*
X60567Y-41197D01*
X60567Y-41197D02*
X60500Y-41246D01*
X60500Y-41246D02*
X60423Y-41280D01*
X60423Y-41280D02*
X60341Y-41297D01*
X60341Y-41297D02*
X60259Y-41297D01*
X60259Y-41297D02*
X60177Y-41280D01*
X60177Y-41280D02*
X60100Y-41246D01*
X60100Y-41246D02*
X60033Y-41197D01*
X60033Y-41197D02*
X59977Y-41135D01*
X59977Y-41135D02*
X59935Y-41062D01*
X59935Y-41062D02*
X59909Y-40983D01*
X59909Y-40983D02*
X59900Y-40900D01*
X59900Y-40900D02*
X59909Y-40817D01*
X59909Y-40817D02*
X59935Y-40738D01*
X59935Y-40738D02*
X59977Y-40665D01*
X59977Y-40665D02*
X60033Y-40603D01*
X60033Y-40603D02*
X60100Y-40554D01*
X60100Y-40554D02*
X60177Y-40520D01*
X60177Y-40520D02*
X60259Y-40503D01*
X60259Y-40503D02*
X60341Y-40503D01*
X60341Y-40503D02*
X60423Y-40520D01*
X60423Y-40520D02*
X60500Y-40554D01*
X60500Y-40554D02*
X60567Y-40603D01*
X60567Y-40603D02*
X60623Y-40665D01*
X60623Y-40665D02*
X60665Y-40738D01*
X60665Y-40738D02*
X60691Y-40817D01*
X60691Y-40817D02*
X60700Y-40900D01*
X56000Y-41300D02*
X56000Y-40500D01*
X56000Y-40500D02*
X56800Y-40500D01*
X56800Y-40500D02*
X56800Y-41300D01*
X56800Y-41300D02*
X56000Y-41300D01*
X57800Y-40900D02*
X57791Y-40983D01*
X57791Y-40983D02*
X57765Y-41062D01*
X57765Y-41062D02*
X57723Y-41135D01*
X57723Y-41135D02*
X57667Y-41197D01*
X57667Y-41197D02*
X57600Y-41246D01*
X57600Y-41246D02*
X57523Y-41280D01*
X57523Y-41280D02*
X57441Y-41297D01*
X57441Y-41297D02*
X57359Y-41297D01*
X57359Y-41297D02*
X57277Y-41280D01*
X57277Y-41280D02*
X57200Y-41246D01*
X57200Y-41246D02*
X57133Y-41197D01*
X57133Y-41197D02*
X57077Y-41135D01*
X57077Y-41135D02*
X57035Y-41062D01*
X57035Y-41062D02*
X57009Y-40983D01*
X57009Y-40983D02*
X57000Y-40900D01*
X57000Y-40900D02*
X57009Y-40817D01*
X57009Y-40817D02*
X57035Y-40738D01*
X57035Y-40738D02*
X57077Y-40665D01*
X57077Y-40665D02*
X57133Y-40603D01*
X57133Y-40603D02*
X57200Y-40554D01*
X57200Y-40554D02*
X57277Y-40520D01*
X57277Y-40520D02*
X57359Y-40503D01*
X57359Y-40503D02*
X57441Y-40503D01*
X57441Y-40503D02*
X57523Y-40520D01*
X57523Y-40520D02*
X57600Y-40554D01*
X57600Y-40554D02*
X57667Y-40603D01*
X57667Y-40603D02*
X57723Y-40665D01*
X57723Y-40665D02*
X57765Y-40738D01*
X57765Y-40738D02*
X57791Y-40817D01*
X57791Y-40817D02*
X57800Y-40900D01*
X44550Y-34200D02*
X44533Y-34355D01*
X44533Y-34355D02*
X44485Y-34505D01*
X44485Y-34505D02*
X44406Y-34640D01*
X44406Y-34640D02*
X44301Y-34757D01*
X44301Y-34757D02*
X44175Y-34849D01*
X44175Y-34849D02*
X44031Y-34913D01*
X44031Y-34913D02*
X43878Y-34945D01*
X43878Y-34945D02*
X43722Y-34945D01*
X43722Y-34945D02*
X43569Y-34913D01*
X43569Y-34913D02*
X43425Y-34849D01*
X43425Y-34849D02*
X43299Y-34757D01*
X43299Y-34757D02*
X43194Y-34640D01*
X43194Y-34640D02*
X43115Y-34505D01*
X43115Y-34505D02*
X43067Y-34355D01*
X43067Y-34355D02*
X43050Y-34200D01*
X43050Y-34200D02*
X43067Y-34045D01*
X43067Y-34045D02*
X43115Y-33895D01*
X43115Y-33895D02*
X43194Y-33760D01*
X43194Y-33760D02*
X43299Y-33643D01*
X43299Y-33643D02*
X43425Y-33551D01*
X43425Y-33551D02*
X43569Y-33487D01*
X43569Y-33487D02*
X43722Y-33455D01*
X43722Y-33455D02*
X43878Y-33455D01*
X43878Y-33455D02*
X44031Y-33487D01*
X44031Y-33487D02*
X44175Y-33551D01*
X44175Y-33551D02*
X44301Y-33643D01*
X44301Y-33643D02*
X44406Y-33760D01*
X44406Y-33760D02*
X44485Y-33895D01*
X44485Y-33895D02*
X44533Y-34045D01*
X44533Y-34045D02*
X44550Y-34200D01*
X42950Y-30050D02*
X44450Y-30050D01*
X44450Y-30050D02*
X44450Y-31550D01*
X44450Y-31550D02*
X42950Y-31550D01*
X42950Y-31550D02*
X42950Y-30050D01*
X55925Y-30400D02*
X56475Y-30400D01*
X56475Y-30400D02*
X56475Y-31200D01*
X56475Y-31200D02*
X55925Y-31200D01*
X55925Y-31200D02*
X55925Y-30400D01*
X56600Y-32800D02*
X56591Y-32883D01*
X56591Y-32883D02*
X56565Y-32962D01*
X56565Y-32962D02*
X56523Y-33035D01*
X56523Y-33035D02*
X56467Y-33097D01*
X56467Y-33097D02*
X56400Y-33146D01*
X56400Y-33146D02*
X56323Y-33180D01*
X56323Y-33180D02*
X56241Y-33197D01*
X56241Y-33197D02*
X56159Y-33197D01*
X56159Y-33197D02*
X56077Y-33180D01*
X56077Y-33180D02*
X56000Y-33146D01*
X56000Y-33146D02*
X55933Y-33097D01*
X55933Y-33097D02*
X55877Y-33035D01*
X55877Y-33035D02*
X55835Y-32962D01*
X55835Y-32962D02*
X55809Y-32883D01*
X55809Y-32883D02*
X55800Y-32800D01*
X55800Y-32800D02*
X55809Y-32717D01*
X55809Y-32717D02*
X55835Y-32638D01*
X55835Y-32638D02*
X55877Y-32565D01*
X55877Y-32565D02*
X55933Y-32503D01*
X55933Y-32503D02*
X56000Y-32454D01*
X56000Y-32454D02*
X56077Y-32420D01*
X56077Y-32420D02*
X56159Y-32403D01*
X56159Y-32403D02*
X56241Y-32403D01*
X56241Y-32403D02*
X56323Y-32420D01*
X56323Y-32420D02*
X56400Y-32454D01*
X56400Y-32454D02*
X56467Y-32503D01*
X56467Y-32503D02*
X56523Y-32565D01*
X56523Y-32565D02*
X56565Y-32638D01*
X56565Y-32638D02*
X56591Y-32717D01*
X56591Y-32717D02*
X56600Y-32800D01*
X53700Y-31400D02*
X54500Y-31400D01*
X54500Y-31400D02*
X54500Y-32200D01*
X54500Y-32200D02*
X53700Y-32200D01*
X53700Y-32200D02*
X53700Y-31400D01*
X54500Y-32800D02*
X54491Y-32883D01*
X54491Y-32883D02*
X54465Y-32962D01*
X54465Y-32962D02*
X54423Y-33035D01*
X54423Y-33035D02*
X54367Y-33097D01*
X54367Y-33097D02*
X54300Y-33146D01*
X54300Y-33146D02*
X54223Y-33180D01*
X54223Y-33180D02*
X54141Y-33197D01*
X54141Y-33197D02*
X54059Y-33197D01*
X54059Y-33197D02*
X53977Y-33180D01*
X53977Y-33180D02*
X53900Y-33146D01*
X53900Y-33146D02*
X53833Y-33097D01*
X53833Y-33097D02*
X53777Y-33035D01*
X53777Y-33035D02*
X53735Y-32962D01*
X53735Y-32962D02*
X53709Y-32883D01*
X53709Y-32883D02*
X53700Y-32800D01*
X53700Y-32800D02*
X53709Y-32717D01*
X53709Y-32717D02*
X53735Y-32638D01*
X53735Y-32638D02*
X53777Y-32565D01*
X53777Y-32565D02*
X53833Y-32503D01*
X53833Y-32503D02*
X53900Y-32454D01*
X53900Y-32454D02*
X53977Y-32420D01*
X53977Y-32420D02*
X54059Y-32403D01*
X54059Y-32403D02*
X54141Y-32403D01*
X54141Y-32403D02*
X54223Y-32420D01*
X54223Y-32420D02*
X54300Y-32454D01*
X54300Y-32454D02*
X54367Y-32503D01*
X54367Y-32503D02*
X54423Y-32565D01*
X54423Y-32565D02*
X54465Y-32638D01*
X54465Y-32638D02*
X54491Y-32717D01*
X54491Y-32717D02*
X54500Y-32800D01*
X53700Y-34500D02*
X54500Y-34500D01*
X54500Y-34500D02*
X54500Y-35300D01*
X54500Y-35300D02*
X53700Y-35300D01*
X53700Y-35300D02*
X53700Y-34500D01*
X54500Y-35900D02*
X54491Y-35983D01*
X54491Y-35983D02*
X54465Y-36062D01*
X54465Y-36062D02*
X54423Y-36135D01*
X54423Y-36135D02*
X54367Y-36197D01*
X54367Y-36197D02*
X54300Y-36246D01*
X54300Y-36246D02*
X54223Y-36280D01*
X54223Y-36280D02*
X54141Y-36297D01*
X54141Y-36297D02*
X54059Y-36297D01*
X54059Y-36297D02*
X53977Y-36280D01*
X53977Y-36280D02*
X53900Y-36246D01*
X53900Y-36246D02*
X53833Y-36197D01*
X53833Y-36197D02*
X53777Y-36135D01*
X53777Y-36135D02*
X53735Y-36062D01*
X53735Y-36062D02*
X53709Y-35983D01*
X53709Y-35983D02*
X53700Y-35900D01*
X53700Y-35900D02*
X53709Y-35817D01*
X53709Y-35817D02*
X53735Y-35738D01*
X53735Y-35738D02*
X53777Y-35665D01*
X53777Y-35665D02*
X53833Y-35603D01*
X53833Y-35603D02*
X53900Y-35554D01*
X53900Y-35554D02*
X53977Y-35520D01*
X53977Y-35520D02*
X54059Y-35503D01*
X54059Y-35503D02*
X54141Y-35503D01*
X54141Y-35503D02*
X54223Y-35520D01*
X54223Y-35520D02*
X54300Y-35554D01*
X54300Y-35554D02*
X54367Y-35603D01*
X54367Y-35603D02*
X54423Y-35665D01*
X54423Y-35665D02*
X54465Y-35738D01*
X54465Y-35738D02*
X54491Y-35817D01*
X54491Y-35817D02*
X54500Y-35900D01*
X55800Y-33400D02*
X56600Y-33400D01*
X56600Y-33400D02*
X56600Y-34200D01*
X56600Y-34200D02*
X55800Y-34200D01*
X55800Y-34200D02*
X55800Y-33400D01*
X56600Y-34800D02*
X56591Y-34883D01*
X56591Y-34883D02*
X56565Y-34962D01*
X56565Y-34962D02*
X56523Y-35035D01*
X56523Y-35035D02*
X56467Y-35097D01*
X56467Y-35097D02*
X56400Y-35146D01*
X56400Y-35146D02*
X56323Y-35180D01*
X56323Y-35180D02*
X56241Y-35197D01*
X56241Y-35197D02*
X56159Y-35197D01*
X56159Y-35197D02*
X56077Y-35180D01*
X56077Y-35180D02*
X56000Y-35146D01*
X56000Y-35146D02*
X55933Y-35097D01*
X55933Y-35097D02*
X55877Y-35035D01*
X55877Y-35035D02*
X55835Y-34962D01*
X55835Y-34962D02*
X55809Y-34883D01*
X55809Y-34883D02*
X55800Y-34800D01*
X55800Y-34800D02*
X55809Y-34717D01*
X55809Y-34717D02*
X55835Y-34638D01*
X55835Y-34638D02*
X55877Y-34565D01*
X55877Y-34565D02*
X55933Y-34503D01*
X55933Y-34503D02*
X56000Y-34454D01*
X56000Y-34454D02*
X56077Y-34420D01*
X56077Y-34420D02*
X56159Y-34403D01*
X56159Y-34403D02*
X56241Y-34403D01*
X56241Y-34403D02*
X56323Y-34420D01*
X56323Y-34420D02*
X56400Y-34454D01*
X56400Y-34454D02*
X56467Y-34503D01*
X56467Y-34503D02*
X56523Y-34565D01*
X56523Y-34565D02*
X56565Y-34638D01*
X56565Y-34638D02*
X56591Y-34717D01*
X56591Y-34717D02*
X56600Y-34800D01*
X45700Y-39500D02*
X46500Y-39500D01*
X46500Y-39500D02*
X46500Y-40300D01*
X46500Y-40300D02*
X45700Y-40300D01*
X45700Y-40300D02*
X45700Y-39500D01*
X46500Y-40900D02*
X46491Y-40983D01*
X46491Y-40983D02*
X46465Y-41062D01*
X46465Y-41062D02*
X46423Y-41135D01*
X46423Y-41135D02*
X46367Y-41197D01*
X46367Y-41197D02*
X46300Y-41246D01*
X46300Y-41246D02*
X46223Y-41280D01*
X46223Y-41280D02*
X46141Y-41297D01*
X46141Y-41297D02*
X46059Y-41297D01*
X46059Y-41297D02*
X45977Y-41280D01*
X45977Y-41280D02*
X45900Y-41246D01*
X45900Y-41246D02*
X45833Y-41197D01*
X45833Y-41197D02*
X45777Y-41135D01*
X45777Y-41135D02*
X45735Y-41062D01*
X45735Y-41062D02*
X45709Y-40983D01*
X45709Y-40983D02*
X45700Y-40900D01*
X45700Y-40900D02*
X45709Y-40817D01*
X45709Y-40817D02*
X45735Y-40738D01*
X45735Y-40738D02*
X45777Y-40665D01*
X45777Y-40665D02*
X45833Y-40603D01*
X45833Y-40603D02*
X45900Y-40554D01*
X45900Y-40554D02*
X45977Y-40520D01*
X45977Y-40520D02*
X46059Y-40503D01*
X46059Y-40503D02*
X46141Y-40503D01*
X46141Y-40503D02*
X46223Y-40520D01*
X46223Y-40520D02*
X46300Y-40554D01*
X46300Y-40554D02*
X46367Y-40603D01*
X46367Y-40603D02*
X46423Y-40665D01*
X46423Y-40665D02*
X46465Y-40738D01*
X46465Y-40738D02*
X46491Y-40817D01*
X46491Y-40817D02*
X46500Y-40900D01*
X55800Y-35500D02*
X56600Y-35500D01*
X56600Y-35500D02*
X56600Y-36300D01*
X56600Y-36300D02*
X55800Y-36300D01*
X55800Y-36300D02*
X55800Y-35500D01*
X56600Y-36900D02*
X56591Y-36983D01*
X56591Y-36983D02*
X56565Y-37062D01*
X56565Y-37062D02*
X56523Y-37135D01*
X56523Y-37135D02*
X56467Y-37197D01*
X56467Y-37197D02*
X56400Y-37246D01*
X56400Y-37246D02*
X56323Y-37280D01*
X56323Y-37280D02*
X56241Y-37297D01*
X56241Y-37297D02*
X56159Y-37297D01*
X56159Y-37297D02*
X56077Y-37280D01*
X56077Y-37280D02*
X56000Y-37246D01*
X56000Y-37246D02*
X55933Y-37197D01*
X55933Y-37197D02*
X55877Y-37135D01*
X55877Y-37135D02*
X55835Y-37062D01*
X55835Y-37062D02*
X55809Y-36983D01*
X55809Y-36983D02*
X55800Y-36900D01*
X55800Y-36900D02*
X55809Y-36817D01*
X55809Y-36817D02*
X55835Y-36738D01*
X55835Y-36738D02*
X55877Y-36665D01*
X55877Y-36665D02*
X55933Y-36603D01*
X55933Y-36603D02*
X56000Y-36554D01*
X56000Y-36554D02*
X56077Y-36520D01*
X56077Y-36520D02*
X56159Y-36503D01*
X56159Y-36503D02*
X56241Y-36503D01*
X56241Y-36503D02*
X56323Y-36520D01*
X56323Y-36520D02*
X56400Y-36554D01*
X56400Y-36554D02*
X56467Y-36603D01*
X56467Y-36603D02*
X56523Y-36665D01*
X56523Y-36665D02*
X56565Y-36738D01*
X56565Y-36738D02*
X56591Y-36817D01*
X56591Y-36817D02*
X56600Y-36900D01*
G54D22*
X63344Y-26534D02*
X63719Y-26534D01*
X64344Y-26534D02*
X64719Y-26534D01*
X65269Y-26534D02*
X65719Y-26534D01*
X65494Y-26734D02*
X65494Y-26334D01*
X59344Y-26534D02*
X59719Y-26534D01*
X60344Y-26534D02*
X60719Y-26534D01*
X61269Y-26534D02*
X61719Y-26534D01*
X61494Y-26734D02*
X61494Y-26334D01*
X51344Y-26534D02*
X51719Y-26534D01*
X52344Y-26534D02*
X52719Y-26534D01*
X53269Y-26534D02*
X53719Y-26534D01*
X53494Y-26734D02*
X53494Y-26334D01*
X55344Y-26534D02*
X55719Y-26534D01*
X56344Y-26534D02*
X56719Y-26534D01*
X57269Y-26534D02*
X57719Y-26534D01*
X57494Y-26734D02*
X57494Y-26334D01*
X47344Y-26534D02*
X47719Y-26534D01*
X48344Y-26534D02*
X48719Y-26534D01*
X49269Y-26534D02*
X49719Y-26534D01*
X49494Y-26734D02*
X49494Y-26334D01*
X43344Y-26534D02*
X43719Y-26534D01*
X44344Y-26534D02*
X44719Y-26534D01*
X45269Y-26534D02*
X45719Y-26534D01*
X45494Y-26734D02*
X45494Y-26334D01*
X39344Y-26534D02*
X39719Y-26534D01*
X40344Y-26534D02*
X40719Y-26534D01*
X41269Y-26534D02*
X41719Y-26534D01*
X41494Y-26734D02*
X41494Y-26334D01*
G54D25*
X48975Y-39903D02*
X48425Y-39903D01*
X48425Y-39903D02*
X48425Y-39528D01*
X48425Y-39528D02*
X48487Y-39465D01*
X48487Y-39465D02*
X48670Y-39465D01*
X48670Y-39465D02*
X48731Y-39528D01*
X48731Y-39528D02*
X48731Y-39903D01*
X48731Y-39715D02*
X48975Y-39465D01*
X48975Y-39143D02*
X48975Y-38893D01*
X48975Y-39018D02*
X48425Y-39018D01*
X48487Y-39018D02*
X48609Y-39143D01*
X49853Y-40538D02*
X49914Y-40538D01*
X49914Y-40538D02*
X49975Y-40475D01*
X49975Y-40475D02*
X49975Y-40163D01*
X49975Y-40163D02*
X49914Y-40100D01*
X49914Y-40100D02*
X49731Y-40100D01*
X49731Y-40100D02*
X49609Y-40225D01*
X49609Y-40225D02*
X49609Y-40538D01*
X49609Y-40538D02*
X49425Y-40538D01*
X49425Y-40538D02*
X49425Y-40100D01*
X49487Y-39465D02*
X49425Y-39528D01*
X49425Y-39528D02*
X49425Y-39840D01*
X49425Y-39840D02*
X49487Y-39903D01*
X49487Y-39903D02*
X49914Y-39903D01*
X49914Y-39903D02*
X49975Y-39840D01*
X49975Y-39840D02*
X49975Y-39528D01*
X49975Y-39528D02*
X49914Y-39465D01*
X49914Y-39465D02*
X49731Y-39465D01*
X49731Y-39465D02*
X49670Y-39528D01*
X49670Y-39528D02*
X49670Y-39840D01*
X49670Y-39840D02*
X49731Y-39903D01*
X49975Y-39268D02*
X49425Y-38830D01*
X49914Y-39268D02*
X49487Y-39268D01*
X49487Y-39268D02*
X49425Y-39205D01*
X49425Y-39205D02*
X49425Y-38893D01*
X49425Y-38893D02*
X49487Y-38830D01*
X49487Y-38830D02*
X49914Y-38830D01*
X49914Y-38830D02*
X49975Y-38893D01*
X49975Y-38893D02*
X49975Y-39205D01*
X49975Y-39205D02*
X49914Y-39268D01*
X49975Y-38633D02*
X49425Y-38633D01*
X49425Y-38633D02*
X49425Y-38258D01*
X49425Y-38258D02*
X49487Y-38195D01*
X49487Y-38195D02*
X49670Y-38195D01*
X49670Y-38195D02*
X49731Y-38258D01*
X49731Y-38258D02*
X49731Y-38633D01*
X49731Y-38445D02*
X49975Y-38195D01*
X47898Y-32100D02*
X48248Y-32100D01*
X48248Y-32100D02*
X47898Y-32500D01*
X48472Y-32500D02*
X48422Y-32456D01*
X48422Y-32456D02*
X48422Y-32323D01*
X48422Y-32323D02*
X48472Y-32278D01*
X48472Y-32278D02*
X48722Y-32278D01*
X48722Y-32278D02*
X48772Y-32234D01*
X48772Y-32234D02*
X48772Y-32145D01*
X48772Y-32145D02*
X48722Y-32100D01*
X48722Y-32100D02*
X48472Y-32100D01*
X48472Y-32100D02*
X48422Y-32145D01*
X48422Y-32145D02*
X48422Y-32234D01*
X48422Y-32234D02*
X48472Y-32278D01*
X48722Y-32278D02*
X48772Y-32323D01*
X48772Y-32323D02*
X48772Y-32456D01*
X48772Y-32456D02*
X48722Y-32500D01*
X48722Y-32500D02*
X48472Y-32500D01*
X48946Y-32100D02*
X48946Y-32500D01*
X48946Y-32500D02*
X49346Y-32500D01*
X49470Y-32500D02*
X49820Y-32100D01*
X49470Y-32456D02*
X49470Y-32145D01*
X49470Y-32145D02*
X49520Y-32100D01*
X49520Y-32100D02*
X49770Y-32100D01*
X49770Y-32100D02*
X49820Y-32145D01*
X49820Y-32145D02*
X49820Y-32456D01*
X49820Y-32456D02*
X49770Y-32500D01*
X49770Y-32500D02*
X49520Y-32500D01*
X49520Y-32500D02*
X49470Y-32456D01*
X49994Y-32412D02*
X49994Y-32456D01*
X49994Y-32456D02*
X50044Y-32500D01*
X50044Y-32500D02*
X50294Y-32500D01*
X50294Y-32500D02*
X50344Y-32456D01*
X50344Y-32456D02*
X50344Y-32323D01*
X50344Y-32323D02*
X50244Y-32234D01*
X50244Y-32234D02*
X49994Y-32234D01*
X49994Y-32234D02*
X49994Y-32100D01*
X49994Y-32100D02*
X50344Y-32100D01*
G54D22*
X66300Y-34842D02*
X65700Y-34842D01*
X65700Y-34917D02*
X65700Y-34467D01*
X65700Y-34467D02*
X65767Y-34392D01*
X65767Y-34392D02*
X66234Y-34392D01*
X66234Y-34392D02*
X66300Y-34467D01*
X66300Y-34467D02*
X66300Y-34917D01*
X66300Y-34131D02*
X65700Y-34131D01*
X65700Y-34131D02*
X65700Y-33681D01*
X65700Y-33681D02*
X65767Y-33606D01*
X65767Y-33606D02*
X65900Y-33606D01*
X65900Y-33606D02*
X65967Y-33681D01*
X65967Y-33681D02*
X65967Y-34131D01*
X65967Y-33681D02*
X66100Y-33606D01*
X66100Y-33606D02*
X66234Y-33606D01*
X66234Y-33606D02*
X66300Y-33681D01*
X66300Y-33681D02*
X66300Y-34131D01*
X66300Y-33270D02*
X66300Y-32895D01*
X66300Y-32895D02*
X66234Y-32820D01*
X66234Y-32820D02*
X65767Y-32820D01*
X65767Y-32820D02*
X65700Y-32895D01*
X65700Y-32895D02*
X65700Y-33270D01*
X65700Y-33270D02*
X65767Y-33345D01*
X65767Y-33345D02*
X65967Y-33345D01*
X65967Y-33345D02*
X66034Y-33270D01*
X66034Y-33270D02*
X66034Y-32895D01*
X66034Y-32895D02*
X65967Y-32820D01*
X63300Y-33131D02*
X62700Y-33131D01*
X62700Y-33131D02*
X62700Y-32681D01*
X62700Y-32681D02*
X62767Y-32606D01*
X62767Y-32606D02*
X62967Y-32606D01*
X62967Y-32606D02*
X63034Y-32681D01*
X63034Y-32681D02*
X63034Y-33131D01*
X63034Y-32906D02*
X63300Y-32606D01*
X62700Y-34131D02*
X62700Y-33531D01*
X62700Y-33831D02*
X63300Y-33831D01*
X60400Y-36036D02*
X59800Y-36036D01*
X59800Y-36036D02*
X60067Y-35811D01*
X60067Y-35811D02*
X59800Y-35586D01*
X59800Y-35586D02*
X60400Y-35586D01*
X60400Y-35416D02*
X59934Y-35416D01*
X59934Y-35416D02*
X59800Y-35304D01*
X59800Y-35304D02*
X59800Y-35135D01*
X59800Y-35135D02*
X59934Y-35022D01*
X59934Y-35022D02*
X60400Y-35022D01*
X60067Y-35416D02*
X60067Y-35022D01*
X60400Y-34796D02*
X59800Y-34402D01*
X59800Y-34796D02*
X60400Y-34402D01*
X60400Y-33782D02*
X60400Y-34176D01*
X60400Y-34176D02*
X60200Y-34176D01*
X60200Y-34176D02*
X60134Y-34120D01*
X60134Y-34120D02*
X60134Y-33839D01*
X60134Y-33839D02*
X60067Y-33782D01*
X60067Y-33782D02*
X59867Y-33782D01*
X59867Y-33782D02*
X59800Y-33839D01*
X59800Y-33839D02*
X59800Y-34120D01*
X59800Y-34120D02*
X59867Y-34176D01*
X59800Y-33556D02*
X59800Y-33162D01*
X59800Y-33162D02*
X59867Y-33162D01*
X59867Y-33162D02*
X60067Y-33387D01*
X60067Y-33387D02*
X60067Y-33219D01*
X60067Y-33219D02*
X60134Y-33162D01*
X60134Y-33162D02*
X60334Y-33162D01*
X60334Y-33162D02*
X60400Y-33219D01*
X60400Y-33219D02*
X60400Y-33500D01*
X60400Y-33500D02*
X60334Y-33556D01*
X60400Y-32542D02*
X60400Y-32936D01*
X60400Y-32936D02*
X60200Y-32936D01*
X60200Y-32936D02*
X60134Y-32880D01*
X60134Y-32880D02*
X60134Y-32599D01*
X60134Y-32599D02*
X60067Y-32542D01*
X60067Y-32542D02*
X59867Y-32542D01*
X59867Y-32542D02*
X59800Y-32599D01*
X59800Y-32599D02*
X59800Y-32880D01*
X59800Y-32880D02*
X59867Y-32936D01*
X62900Y-30774D02*
X62900Y-30474D01*
X62900Y-30624D02*
X62300Y-30624D01*
X62367Y-30624D02*
X62500Y-30774D01*
X62367Y-29613D02*
X62300Y-29688D01*
X62300Y-29688D02*
X62300Y-30063D01*
X62300Y-30063D02*
X62367Y-30138D01*
X62367Y-30138D02*
X62834Y-30138D01*
X62834Y-30138D02*
X62900Y-30063D01*
X62900Y-30063D02*
X62900Y-29688D01*
X62900Y-29688D02*
X62834Y-29613D01*
X62834Y-29613D02*
X62634Y-29613D01*
X62634Y-29613D02*
X62567Y-29688D01*
X62567Y-29688D02*
X62567Y-30063D01*
X62567Y-30063D02*
X62634Y-30138D01*
X57900Y-30381D02*
X57900Y-30081D01*
X57900Y-30231D02*
X57300Y-30231D01*
X57367Y-30231D02*
X57500Y-30381D01*
X42944Y-41934D02*
X43319Y-41934D01*
X40869Y-41934D02*
X41319Y-41934D01*
X41094Y-42134D02*
X41094Y-41734D01*
X59676Y-42200D02*
X59676Y-41600D01*
X59676Y-41600D02*
X60126Y-41600D01*
X60126Y-41600D02*
X60201Y-41667D01*
X60201Y-41667D02*
X60201Y-41867D01*
X60201Y-41867D02*
X60126Y-41934D01*
X60126Y-41934D02*
X59676Y-41934D01*
X59901Y-41934D02*
X60201Y-42200D01*
X60462Y-42200D02*
X60987Y-41800D01*
X60462Y-41800D02*
X60987Y-42200D01*
X56776Y-41600D02*
X57376Y-41600D01*
X57076Y-41600D02*
X57076Y-42200D01*
X57562Y-42200D02*
X58087Y-41800D01*
X57562Y-41800D02*
X58087Y-42200D01*
X46278Y-32597D02*
X46414Y-32698D01*
X46414Y-32698D02*
X46414Y-33201D01*
X46414Y-33201D02*
X46278Y-33302D01*
X46278Y-33302D02*
X45322Y-33302D01*
X45322Y-33302D02*
X45185Y-33201D01*
X45185Y-33201D02*
X45185Y-32698D01*
X45185Y-32698D02*
X45322Y-32597D01*
X45322Y-31583D02*
X45185Y-31684D01*
X45185Y-31684D02*
X45185Y-32187D01*
X45185Y-32187D02*
X45322Y-32288D01*
X45322Y-32288D02*
X46278Y-32288D01*
X46278Y-32288D02*
X46414Y-32187D01*
X46414Y-32187D02*
X46414Y-31684D01*
X46414Y-31684D02*
X46278Y-31583D01*
X46278Y-31583D02*
X45868Y-31583D01*
X45868Y-31583D02*
X45732Y-31684D01*
X45732Y-31684D02*
X45732Y-32187D01*
X45732Y-32187D02*
X45868Y-32288D01*
X42124Y-35769D02*
X40876Y-35769D01*
X40876Y-35769D02*
X41847Y-36435D01*
X41847Y-36435D02*
X41847Y-35502D01*
X40876Y-35131D02*
X40876Y-34198D01*
X40876Y-34198D02*
X42124Y-35131D01*
X42124Y-33827D02*
X40876Y-32894D01*
X41986Y-33827D02*
X41015Y-33827D01*
X41015Y-33827D02*
X40876Y-33694D01*
X40876Y-33694D02*
X40876Y-33028D01*
X40876Y-33028D02*
X41015Y-32894D01*
X41015Y-32894D02*
X41986Y-32894D01*
X41986Y-32894D02*
X42124Y-33028D01*
X42124Y-33028D02*
X42124Y-33694D01*
X42124Y-33694D02*
X41986Y-33827D01*
X42124Y-32523D02*
X40876Y-31590D01*
X41986Y-32523D02*
X41015Y-32523D01*
X41015Y-32523D02*
X40876Y-32390D01*
X40876Y-32390D02*
X40876Y-31724D01*
X40876Y-31724D02*
X41015Y-31590D01*
X41015Y-31590D02*
X41986Y-31590D01*
X41986Y-31590D02*
X42124Y-31724D01*
X42124Y-31724D02*
X42124Y-32390D01*
X42124Y-32390D02*
X41986Y-32523D01*
X41292Y-31219D02*
X41847Y-31219D01*
X41847Y-31219D02*
X42124Y-30953D01*
X42124Y-30953D02*
X42124Y-30553D01*
X42124Y-30553D02*
X41847Y-30286D01*
X41847Y-30286D02*
X41292Y-30286D01*
X42124Y-29915D02*
X40876Y-29915D01*
X40876Y-29915D02*
X40876Y-28982D01*
X41431Y-29915D02*
X41431Y-29382D01*
G54D23*
X56817Y-31841D02*
X56850Y-31879D01*
X56850Y-31879D02*
X56850Y-32066D01*
X56850Y-32066D02*
X56817Y-32104D01*
X56817Y-32104D02*
X56584Y-32104D01*
X56584Y-32104D02*
X56550Y-32066D01*
X56550Y-32066D02*
X56550Y-31879D01*
X56550Y-31879D02*
X56584Y-31841D01*
X56784Y-31721D02*
X56817Y-31721D01*
X56817Y-31721D02*
X56850Y-31683D01*
X56850Y-31683D02*
X56850Y-31496D01*
X56850Y-31496D02*
X56817Y-31458D01*
X56817Y-31458D02*
X56717Y-31458D01*
X56717Y-31458D02*
X56650Y-31533D01*
X56650Y-31533D02*
X56650Y-31721D01*
X56650Y-31721D02*
X56550Y-31721D01*
X56550Y-31721D02*
X56550Y-31458D01*
X55850Y-32161D02*
X55850Y-32036D01*
X55850Y-32098D02*
X55550Y-32098D01*
X55584Y-32098D02*
X55650Y-32161D01*
X55650Y-31896D02*
X55784Y-31896D01*
X55784Y-31896D02*
X55850Y-31834D01*
X55850Y-31834D02*
X55850Y-31740D01*
X55850Y-31740D02*
X55784Y-31677D01*
X55784Y-31677D02*
X55650Y-31677D01*
X55850Y-31569D02*
X55550Y-31569D01*
X55550Y-31569D02*
X55550Y-31350D01*
X55684Y-31569D02*
X55684Y-31444D01*
G54D25*
X56217Y-30524D02*
X56217Y-30299D01*
X56317Y-30411D02*
X56117Y-30411D01*
G54D23*
X55017Y-32341D02*
X55050Y-32379D01*
X55050Y-32379D02*
X55050Y-32566D01*
X55050Y-32566D02*
X55017Y-32604D01*
X55017Y-32604D02*
X54784Y-32604D01*
X54784Y-32604D02*
X54750Y-32566D01*
X54750Y-32566D02*
X54750Y-32379D01*
X54750Y-32379D02*
X54784Y-32341D01*
X54750Y-32221D02*
X54750Y-31958D01*
X54750Y-31958D02*
X54784Y-31958D01*
X54784Y-31958D02*
X54884Y-32108D01*
X54884Y-32108D02*
X54884Y-31996D01*
X54884Y-31996D02*
X54917Y-31958D01*
X54917Y-31958D02*
X55017Y-31958D01*
X55017Y-31958D02*
X55050Y-31996D01*
X55050Y-31996D02*
X55050Y-32183D01*
X55050Y-32183D02*
X55017Y-32221D01*
X53450Y-32661D02*
X53450Y-32536D01*
X53450Y-32598D02*
X53150Y-32598D01*
X53184Y-32598D02*
X53250Y-32661D01*
X53250Y-32396D02*
X53384Y-32396D01*
X53384Y-32396D02*
X53450Y-32334D01*
X53450Y-32334D02*
X53450Y-32240D01*
X53450Y-32240D02*
X53384Y-32177D01*
X53384Y-32177D02*
X53250Y-32177D01*
X53450Y-32069D02*
X53150Y-32069D01*
X53150Y-32069D02*
X53150Y-31850D01*
X53284Y-32069D02*
X53284Y-31944D01*
G54D25*
X54117Y-31324D02*
X54117Y-31099D01*
X54217Y-31211D02*
X54017Y-31211D01*
G54D23*
X54716Y-35441D02*
X54749Y-35479D01*
X54749Y-35479D02*
X54749Y-35666D01*
X54749Y-35666D02*
X54716Y-35704D01*
X54716Y-35704D02*
X54483Y-35704D01*
X54483Y-35704D02*
X54449Y-35666D01*
X54449Y-35666D02*
X54449Y-35479D01*
X54449Y-35479D02*
X54483Y-35441D01*
X54749Y-35246D02*
X54749Y-35096D01*
X54749Y-35171D02*
X54449Y-35171D01*
X54483Y-35171D02*
X54549Y-35246D01*
X53750Y-36088D02*
X53750Y-35963D01*
X53750Y-36025D02*
X53450Y-36025D01*
X53484Y-36025D02*
X53550Y-36088D01*
X53750Y-35823D02*
X53450Y-35604D01*
X53717Y-35823D02*
X53484Y-35823D01*
X53484Y-35823D02*
X53450Y-35792D01*
X53450Y-35792D02*
X53450Y-35636D01*
X53450Y-35636D02*
X53484Y-35604D01*
X53484Y-35604D02*
X53717Y-35604D01*
X53717Y-35604D02*
X53750Y-35636D01*
X53750Y-35636D02*
X53750Y-35792D01*
X53750Y-35792D02*
X53717Y-35823D01*
X53750Y-35496D02*
X53450Y-35277D01*
X53717Y-35496D02*
X53484Y-35496D01*
X53484Y-35496D02*
X53450Y-35465D01*
X53450Y-35465D02*
X53450Y-35309D01*
X53450Y-35309D02*
X53484Y-35277D01*
X53484Y-35277D02*
X53717Y-35277D01*
X53717Y-35277D02*
X53750Y-35309D01*
X53750Y-35309D02*
X53750Y-35465D01*
X53750Y-35465D02*
X53717Y-35496D01*
X53550Y-35169D02*
X53684Y-35169D01*
X53684Y-35169D02*
X53750Y-35107D01*
X53750Y-35107D02*
X53750Y-35013D01*
X53750Y-35013D02*
X53684Y-34950D01*
X53684Y-34950D02*
X53550Y-34950D01*
X53750Y-34842D02*
X53450Y-34842D01*
X53450Y-34842D02*
X53450Y-34623D01*
X53584Y-34842D02*
X53584Y-34717D01*
G54D25*
X54117Y-34624D02*
X54117Y-34399D01*
X54217Y-34511D02*
X54017Y-34511D01*
G54D23*
X56816Y-34341D02*
X56849Y-34379D01*
X56849Y-34379D02*
X56849Y-34566D01*
X56849Y-34566D02*
X56816Y-34604D01*
X56816Y-34604D02*
X56583Y-34604D01*
X56583Y-34604D02*
X56549Y-34566D01*
X56549Y-34566D02*
X56549Y-34379D01*
X56549Y-34379D02*
X56583Y-34341D01*
X56849Y-33958D02*
X56849Y-34221D01*
X56849Y-34221D02*
X56749Y-34221D01*
X56749Y-34221D02*
X56716Y-34183D01*
X56716Y-34183D02*
X56716Y-33996D01*
X56716Y-33996D02*
X56683Y-33958D01*
X56683Y-33958D02*
X56583Y-33958D01*
X56583Y-33958D02*
X56549Y-33996D01*
X56549Y-33996D02*
X56549Y-34183D01*
X56549Y-34183D02*
X56583Y-34221D01*
X55850Y-34661D02*
X55850Y-34536D01*
X55850Y-34598D02*
X55550Y-34598D01*
X55584Y-34598D02*
X55650Y-34661D01*
X55650Y-34396D02*
X55784Y-34396D01*
X55784Y-34396D02*
X55850Y-34334D01*
X55850Y-34334D02*
X55850Y-34240D01*
X55850Y-34240D02*
X55784Y-34177D01*
X55784Y-34177D02*
X55650Y-34177D01*
X55850Y-34069D02*
X55550Y-34069D01*
X55550Y-34069D02*
X55550Y-33850D01*
X55684Y-34069D02*
X55684Y-33944D01*
G54D25*
X56217Y-33524D02*
X56217Y-33299D01*
X56317Y-33411D02*
X56117Y-33411D01*
G54D22*
X47300Y-41417D02*
X47900Y-41417D01*
X47900Y-41417D02*
X47900Y-40817D01*
X47900Y-40106D02*
X47900Y-40631D01*
X47900Y-40631D02*
X47300Y-40631D01*
X47300Y-40631D02*
X47300Y-40106D01*
X47567Y-40631D02*
X47567Y-40331D01*
X47900Y-39770D02*
X47300Y-39770D01*
X47300Y-39845D02*
X47300Y-39395D01*
X47300Y-39395D02*
X47367Y-39320D01*
X47367Y-39320D02*
X47834Y-39320D01*
X47834Y-39320D02*
X47900Y-39395D01*
X47900Y-39395D02*
X47900Y-39845D01*
G54D23*
X56816Y-36441D02*
X56849Y-36479D01*
X56849Y-36479D02*
X56849Y-36666D01*
X56849Y-36666D02*
X56816Y-36704D01*
X56816Y-36704D02*
X56583Y-36704D01*
X56583Y-36704D02*
X56549Y-36666D01*
X56549Y-36666D02*
X56549Y-36479D01*
X56549Y-36479D02*
X56583Y-36441D01*
X56849Y-36133D02*
X56549Y-36133D01*
X56549Y-36133D02*
X56783Y-36321D01*
X56783Y-36321D02*
X56783Y-36058D01*
X55850Y-36761D02*
X55850Y-36636D01*
X55850Y-36698D02*
X55550Y-36698D01*
X55584Y-36698D02*
X55650Y-36761D01*
X55650Y-36496D02*
X55784Y-36496D01*
X55784Y-36496D02*
X55850Y-36434D01*
X55850Y-36434D02*
X55850Y-36340D01*
X55850Y-36340D02*
X55784Y-36277D01*
X55784Y-36277D02*
X55650Y-36277D01*
X55850Y-36169D02*
X55550Y-36169D01*
X55550Y-36169D02*
X55550Y-35950D01*
X55684Y-36169D02*
X55684Y-36044D01*
G54D25*
X56217Y-35624D02*
X56217Y-35399D01*
X56317Y-35511D02*
X56117Y-35511D01*
M02*
