G75*
G70*
%OFA0B0*%
%FSLAX24Y24*%
%IPPOS*%
%LPD*%
%AMOC8*
5,1,8,0,0,1.08239X$1,22.5*
%
%ADD10OC8,0.0560*%
%ADD11C,0.0600*%
%ADD12C,0.0520*%
%ADD13OC8,0.0600*%
%ADD14OC8,0.0574*%
%ADD15C,0.0250*%
%ADD16C,0.0400*%
%ADD17C,0.0396*%
%ADD18C,0.0160*%
D10*
X012084Y017635D03*
X013084Y017635D03*
X013084Y018635D03*
X012084Y018635D03*
X012084Y019635D03*
X013084Y019635D03*
X013084Y020635D03*
X012084Y020635D03*
X012084Y021635D03*
X013084Y021635D03*
X012834Y030685D03*
X011834Y030685D03*
X011834Y031685D03*
X012834Y031685D03*
X013834Y031685D03*
X014834Y031685D03*
X014834Y030685D03*
X013834Y030685D03*
X015834Y030685D03*
X015834Y031685D03*
X021584Y031685D03*
X022584Y031685D03*
X023584Y031685D03*
X023584Y030685D03*
X022584Y030685D03*
X021584Y030685D03*
X024584Y030685D03*
X025584Y030685D03*
X025584Y031685D03*
X024584Y031685D03*
X031334Y031685D03*
X032334Y031685D03*
X032334Y030685D03*
X031334Y030685D03*
X033334Y030685D03*
X034334Y030685D03*
X035334Y030685D03*
X035334Y031685D03*
X034334Y031685D03*
X033334Y031685D03*
X036984Y021885D03*
X037984Y021885D03*
X037984Y020885D03*
X036984Y020885D03*
X036984Y019885D03*
X037984Y019885D03*
D11*
X034484Y016485D02*
X034484Y015885D01*
X033484Y015885D02*
X033484Y016485D01*
X032484Y016485D02*
X032484Y015885D01*
X031484Y015885D02*
X031484Y016485D01*
X030484Y016485D02*
X030484Y015885D01*
X029484Y015885D02*
X029484Y016485D01*
X028484Y016485D02*
X028484Y015885D01*
X027484Y015885D02*
X027484Y016485D01*
X023484Y016485D02*
X023484Y015885D01*
X022484Y015885D02*
X022484Y016485D01*
X021484Y016485D02*
X021484Y015885D01*
X020484Y015885D02*
X020484Y016485D01*
X019484Y016485D02*
X019484Y015885D01*
X018484Y015885D02*
X018484Y016485D01*
X017484Y016485D02*
X017484Y015885D01*
X016484Y015885D02*
X016484Y016485D01*
X015484Y016485D02*
X015484Y015885D01*
X012734Y013910D02*
X012134Y013910D01*
X012134Y012910D02*
X012734Y012910D01*
X010759Y012910D02*
X010159Y012910D01*
X010159Y013910D02*
X010759Y013910D01*
X008809Y013985D02*
X008209Y013985D01*
X008209Y012985D02*
X008809Y012985D01*
X009234Y010010D02*
X009234Y009410D01*
X008234Y009410D02*
X008234Y010010D01*
X007234Y010010D02*
X007234Y009410D01*
X006234Y009410D02*
X006234Y010010D01*
X003984Y009885D02*
X003384Y009885D01*
X003384Y008885D02*
X003984Y008885D01*
X003984Y007885D02*
X003384Y007885D01*
X003384Y006885D02*
X003984Y006885D01*
X003984Y005885D02*
X003384Y005885D01*
X003384Y010885D02*
X003984Y010885D01*
X019284Y007335D02*
X019284Y006735D01*
X020284Y006735D02*
X020284Y007335D01*
X021284Y007335D02*
X021284Y006735D01*
X022284Y006735D02*
X022284Y007335D01*
X023284Y007335D02*
X023284Y006735D01*
X024284Y006735D02*
X024284Y007335D01*
X024284Y005835D02*
X024284Y005235D01*
X023284Y005235D02*
X023284Y005835D01*
X022284Y005835D02*
X022284Y005235D01*
X021284Y005235D02*
X021284Y005835D01*
X020284Y005835D02*
X020284Y005235D01*
X019284Y005235D02*
X019284Y005835D01*
X019284Y004260D02*
X019284Y003660D01*
X020284Y003660D02*
X020284Y004260D01*
X021284Y004260D02*
X021284Y003660D01*
X022284Y003660D02*
X022284Y004260D01*
X023284Y004260D02*
X023284Y003660D01*
X024284Y003660D02*
X024284Y004260D01*
X024284Y002735D02*
X024284Y002135D01*
X023284Y002135D02*
X023284Y002735D01*
X022284Y002735D02*
X022284Y002135D01*
X021284Y002135D02*
X021284Y002735D01*
X020284Y002735D02*
X020284Y002135D01*
X019284Y002135D02*
X019284Y002735D01*
X012164Y024395D02*
X011564Y024395D01*
X009604Y024395D02*
X009004Y024395D01*
X009004Y026175D02*
X009604Y026175D01*
X011564Y026175D02*
X012164Y026175D01*
X015484Y025885D02*
X015484Y026485D01*
X016484Y026485D02*
X016484Y025885D01*
X017484Y025885D02*
X017484Y026485D01*
X018484Y026485D02*
X018484Y025885D01*
X019484Y025885D02*
X019484Y026485D01*
X020484Y026485D02*
X020484Y025885D01*
X021484Y025885D02*
X021484Y026485D01*
X022484Y026485D02*
X022484Y025885D01*
X023484Y025885D02*
X023484Y026485D01*
X026484Y026485D02*
X026484Y025885D01*
X027484Y025885D02*
X027484Y026485D01*
X028484Y026485D02*
X028484Y025885D01*
X029484Y025885D02*
X029484Y026485D01*
X030484Y026485D02*
X030484Y025885D01*
X031484Y025885D02*
X031484Y026485D01*
X032484Y026485D02*
X032484Y025885D01*
X033484Y025885D02*
X033484Y026485D01*
X034484Y026485D02*
X034484Y025885D01*
D12*
X018550Y021042D03*
X017206Y019699D03*
D13*
X025484Y026185D03*
X026484Y016185D03*
D14*
X009026Y006490D03*
X009026Y005702D03*
X008042Y005702D03*
X008042Y006490D03*
D15*
X008042Y005702D02*
X007984Y005685D01*
X006484Y005685D01*
X006484Y009685D01*
X006234Y009710D01*
X010184Y006035D02*
X010584Y006035D01*
X010184Y006035D02*
X009234Y005085D01*
X008684Y005085D01*
X008084Y005685D01*
X008042Y005702D01*
X011484Y010685D02*
X014984Y007185D01*
X016484Y007185D01*
X022484Y013185D01*
X022484Y013685D01*
X022984Y013685D01*
X022484Y013685D02*
X022484Y016185D01*
X023484Y013185D02*
X025984Y013185D01*
X027984Y015185D01*
X028034Y015010D01*
X023484Y013185D02*
X017984Y007685D01*
X018009Y007660D01*
X013484Y012685D02*
X014984Y014185D01*
X010534Y016885D02*
X009284Y018135D01*
X009304Y026175D02*
X009284Y026185D01*
X008884Y026185D01*
X012434Y030085D02*
X011834Y030685D01*
X012434Y030085D02*
X014034Y030085D01*
X014634Y030685D01*
X014834Y030685D01*
X021584Y030685D02*
X021784Y030685D01*
X022384Y030085D01*
X023984Y030085D01*
X024034Y029985D01*
X025484Y028535D01*
X025484Y026185D01*
X023984Y030085D02*
X024584Y030685D01*
X031334Y030685D02*
X031534Y030685D01*
X032134Y030085D01*
X033734Y030085D01*
X034334Y030685D01*
X036034Y016585D02*
X038284Y016585D01*
X036034Y016585D02*
X034484Y015035D01*
X033484Y015035D01*
X033434Y014935D01*
X033434Y012935D01*
X027634Y007135D01*
X026484Y007135D01*
D16*
X026484Y007135D03*
X028484Y006385D03*
X024984Y008685D03*
X022984Y008685D03*
X025734Y011335D03*
X025734Y012335D03*
X028284Y011335D03*
X028184Y009885D03*
X030034Y010235D03*
X028434Y013985D03*
X033484Y015035D03*
X038284Y016585D03*
X030784Y021435D03*
X029484Y019835D03*
X027684Y021035D03*
X026384Y020735D03*
X027084Y019635D03*
X026034Y018685D03*
X021284Y021035D03*
X016434Y024185D03*
X009284Y018135D03*
X010534Y016885D03*
X013484Y016985D03*
X014984Y014185D03*
X015734Y013635D03*
X013484Y012685D03*
X011484Y010685D03*
X015034Y008785D03*
X018034Y011435D03*
X018034Y012435D03*
X019584Y012985D03*
X022984Y013685D03*
X010584Y006035D03*
X007484Y029185D03*
X010484Y031185D03*
X016334Y032535D03*
X017084Y031185D03*
D17*
X025734Y023110D03*
X024109Y022860D03*
X024059Y021885D03*
X023459Y020860D03*
X024084Y020735D03*
X025459Y021035D03*
X024359Y018735D03*
X025009Y017985D03*
X025709Y018035D03*
X025409Y018660D03*
X026659Y018760D03*
X025384Y017285D03*
X024034Y017585D03*
X023659Y017985D03*
X021859Y018935D03*
X021109Y019035D03*
X020709Y019560D03*
X021159Y019960D03*
X020734Y020485D03*
X020359Y020985D03*
X028034Y015010D03*
X028809Y014985D03*
X032159Y014935D03*
X033534Y019260D03*
X034484Y019435D03*
X034484Y020335D03*
X033559Y020785D03*
X030259Y020810D03*
X029359Y021010D03*
X030209Y022060D03*
X038934Y017960D03*
X019934Y013935D03*
X019984Y012385D03*
X018309Y007960D03*
X015984Y007710D03*
X015709Y004535D03*
X010984Y011260D03*
X011809Y012060D03*
X014384Y011860D03*
X004834Y004835D03*
D18*
X000622Y000185D02*
X000184Y000185D01*
X000184Y034485D01*
X000463Y034485D01*
X000419Y034379D01*
X000419Y034188D01*
X000419Y000492D01*
X000492Y000315D01*
X000622Y000185D01*
X000598Y000210D02*
X000184Y000210D01*
X000184Y000368D02*
X000470Y000368D01*
X000419Y000527D02*
X000184Y000527D01*
X000184Y000685D02*
X000419Y000685D01*
X000419Y000844D02*
X000184Y000844D01*
X000184Y001002D02*
X000419Y001002D01*
X000419Y001161D02*
X000184Y001161D01*
X000184Y001320D02*
X000419Y001320D01*
X000419Y001478D02*
X000184Y001478D01*
X000184Y001637D02*
X000419Y001637D01*
X000419Y001795D02*
X000184Y001795D01*
X000184Y001954D02*
X000419Y001954D01*
X000419Y002112D02*
X000184Y002112D01*
X000184Y002271D02*
X000419Y002271D01*
X000419Y002429D02*
X000184Y002429D01*
X000184Y002588D02*
X000419Y002588D01*
X000419Y002746D02*
X000184Y002746D01*
X000184Y002905D02*
X000419Y002905D01*
X000419Y003064D02*
X000184Y003064D01*
X000184Y003222D02*
X000419Y003222D01*
X000419Y003381D02*
X000184Y003381D01*
X000184Y003539D02*
X000419Y003539D01*
X000419Y003698D02*
X000184Y003698D01*
X000184Y003856D02*
X000419Y003856D01*
X000419Y004015D02*
X000184Y004015D01*
X000184Y004173D02*
X000419Y004173D01*
X000419Y004332D02*
X000184Y004332D01*
X000184Y004490D02*
X000419Y004490D01*
X000419Y004649D02*
X000184Y004649D01*
X000184Y004807D02*
X000419Y004807D01*
X000419Y004966D02*
X000184Y004966D01*
X000184Y005125D02*
X000419Y005125D01*
X000419Y005283D02*
X000184Y005283D01*
X000184Y005442D02*
X000419Y005442D01*
X000419Y005600D02*
X000184Y005600D01*
X000184Y005759D02*
X000419Y005759D01*
X000419Y005917D02*
X000184Y005917D01*
X000184Y006076D02*
X000419Y006076D01*
X000419Y006234D02*
X000184Y006234D01*
X000184Y006393D02*
X000419Y006393D01*
X000419Y006551D02*
X000184Y006551D01*
X000184Y006710D02*
X000419Y006710D01*
X000419Y006869D02*
X000184Y006869D01*
X000184Y007027D02*
X000419Y007027D01*
X000419Y007186D02*
X000184Y007186D01*
X000184Y007344D02*
X000419Y007344D01*
X000419Y007503D02*
X000184Y007503D01*
X000184Y007661D02*
X000419Y007661D01*
X000419Y007820D02*
X000184Y007820D01*
X000184Y007978D02*
X000419Y007978D01*
X000419Y008137D02*
X000184Y008137D01*
X000184Y008295D02*
X000419Y008295D01*
X000419Y008454D02*
X000184Y008454D01*
X000184Y008613D02*
X000419Y008613D01*
X000419Y008771D02*
X000184Y008771D01*
X000184Y008930D02*
X000419Y008930D01*
X000419Y009088D02*
X000184Y009088D01*
X000184Y009247D02*
X000419Y009247D01*
X000419Y009405D02*
X000184Y009405D01*
X000184Y009564D02*
X000419Y009564D01*
X000419Y009722D02*
X000184Y009722D01*
X000184Y009881D02*
X000419Y009881D01*
X000419Y010039D02*
X000184Y010039D01*
X000184Y010198D02*
X000419Y010198D01*
X000419Y010356D02*
X000184Y010356D01*
X000184Y010515D02*
X000419Y010515D01*
X000419Y010674D02*
X000184Y010674D01*
X000184Y010832D02*
X000419Y010832D01*
X000419Y010991D02*
X000184Y010991D01*
X000184Y011149D02*
X000419Y011149D01*
X000419Y011308D02*
X000184Y011308D01*
X000184Y011466D02*
X000419Y011466D01*
X000419Y011625D02*
X000184Y011625D01*
X000184Y011783D02*
X000419Y011783D01*
X000419Y011942D02*
X000184Y011942D01*
X000184Y012100D02*
X000419Y012100D01*
X000419Y012259D02*
X000184Y012259D01*
X000184Y012418D02*
X000419Y012418D01*
X000419Y012576D02*
X000184Y012576D01*
X000184Y012735D02*
X000419Y012735D01*
X000419Y012893D02*
X000184Y012893D01*
X000184Y013052D02*
X000419Y013052D01*
X000419Y013210D02*
X000184Y013210D01*
X000184Y013369D02*
X000419Y013369D01*
X000419Y013527D02*
X000184Y013527D01*
X000184Y013686D02*
X000419Y013686D01*
X000419Y013844D02*
X000184Y013844D01*
X000184Y014003D02*
X000419Y014003D01*
X000419Y014162D02*
X000184Y014162D01*
X000184Y014320D02*
X000419Y014320D01*
X000419Y014479D02*
X000184Y014479D01*
X000184Y014637D02*
X000419Y014637D01*
X000419Y014796D02*
X000184Y014796D01*
X000184Y014954D02*
X000419Y014954D01*
X000419Y015113D02*
X000184Y015113D01*
X000184Y015271D02*
X000419Y015271D01*
X000419Y015430D02*
X000184Y015430D01*
X000184Y015588D02*
X000419Y015588D01*
X000419Y015747D02*
X000184Y015747D01*
X000184Y015906D02*
X000419Y015906D01*
X000419Y016064D02*
X000184Y016064D01*
X000184Y016223D02*
X000419Y016223D01*
X000419Y016381D02*
X000184Y016381D01*
X000184Y016540D02*
X000419Y016540D01*
X000419Y016698D02*
X000184Y016698D01*
X000184Y016857D02*
X000419Y016857D01*
X000419Y017015D02*
X000184Y017015D01*
X000184Y017174D02*
X000419Y017174D01*
X000419Y017332D02*
X000184Y017332D01*
X000184Y017491D02*
X000419Y017491D01*
X000419Y017649D02*
X000184Y017649D01*
X000184Y017808D02*
X000419Y017808D01*
X000419Y017967D02*
X000184Y017967D01*
X000184Y018125D02*
X000419Y018125D01*
X000419Y018284D02*
X000184Y018284D01*
X000184Y018442D02*
X000419Y018442D01*
X000419Y018601D02*
X000184Y018601D01*
X000184Y018759D02*
X000419Y018759D01*
X000419Y018918D02*
X000184Y018918D01*
X000184Y019076D02*
X000419Y019076D01*
X000419Y019235D02*
X000184Y019235D01*
X000184Y019393D02*
X000419Y019393D01*
X000419Y019552D02*
X000184Y019552D01*
X000184Y019711D02*
X000419Y019711D01*
X000419Y019869D02*
X000184Y019869D01*
X000184Y020028D02*
X000419Y020028D01*
X000419Y020186D02*
X000184Y020186D01*
X000184Y020345D02*
X000419Y020345D01*
X000419Y020503D02*
X000184Y020503D01*
X000184Y020662D02*
X000419Y020662D01*
X000419Y020820D02*
X000184Y020820D01*
X000184Y020979D02*
X000419Y020979D01*
X000419Y021137D02*
X000184Y021137D01*
X000184Y021296D02*
X000419Y021296D01*
X000419Y021455D02*
X000184Y021455D01*
X000184Y021613D02*
X000419Y021613D01*
X000419Y021772D02*
X000184Y021772D01*
X000184Y021930D02*
X000419Y021930D01*
X000419Y022089D02*
X000184Y022089D01*
X000184Y022247D02*
X000419Y022247D01*
X000419Y022406D02*
X000184Y022406D01*
X000184Y022564D02*
X000419Y022564D01*
X000419Y022723D02*
X000184Y022723D01*
X000184Y022881D02*
X000419Y022881D01*
X000419Y023040D02*
X000184Y023040D01*
X000184Y023199D02*
X000419Y023199D01*
X000419Y023357D02*
X000184Y023357D01*
X000184Y023516D02*
X000419Y023516D01*
X000419Y023674D02*
X000184Y023674D01*
X000184Y023833D02*
X000419Y023833D01*
X000419Y023991D02*
X000184Y023991D01*
X000184Y024150D02*
X000419Y024150D01*
X000419Y024308D02*
X000184Y024308D01*
X000184Y024467D02*
X000419Y024467D01*
X000419Y024625D02*
X000184Y024625D01*
X000184Y024784D02*
X000419Y024784D01*
X000419Y024942D02*
X000184Y024942D01*
X000184Y025101D02*
X000419Y025101D01*
X000419Y025260D02*
X000184Y025260D01*
X000184Y025418D02*
X000419Y025418D01*
X000419Y025577D02*
X000184Y025577D01*
X000184Y025735D02*
X000419Y025735D01*
X000419Y025894D02*
X000184Y025894D01*
X000184Y026052D02*
X000419Y026052D01*
X000419Y026211D02*
X000184Y026211D01*
X000184Y026369D02*
X000419Y026369D01*
X000419Y026528D02*
X000184Y026528D01*
X000184Y026686D02*
X000419Y026686D01*
X000419Y026845D02*
X000184Y026845D01*
X000184Y027004D02*
X000419Y027004D01*
X000419Y027162D02*
X000184Y027162D01*
X000184Y027321D02*
X000419Y027321D01*
X000419Y027479D02*
X000184Y027479D01*
X000184Y027638D02*
X000419Y027638D01*
X000419Y027796D02*
X000184Y027796D01*
X000184Y027955D02*
X000419Y027955D01*
X000419Y028113D02*
X000184Y028113D01*
X000184Y028272D02*
X000419Y028272D01*
X000419Y028430D02*
X000184Y028430D01*
X000184Y028589D02*
X000419Y028589D01*
X000419Y028748D02*
X000184Y028748D01*
X000184Y028906D02*
X000419Y028906D01*
X000419Y029065D02*
X000184Y029065D01*
X000184Y029223D02*
X000419Y029223D01*
X000419Y029382D02*
X000184Y029382D01*
X000184Y029540D02*
X000419Y029540D01*
X000419Y029699D02*
X000184Y029699D01*
X000184Y029857D02*
X000419Y029857D01*
X000419Y030016D02*
X000184Y030016D01*
X000184Y030174D02*
X000419Y030174D01*
X000419Y030333D02*
X000184Y030333D01*
X000184Y030491D02*
X000419Y030491D01*
X000419Y030650D02*
X000184Y030650D01*
X000184Y030809D02*
X000419Y030809D01*
X000419Y030967D02*
X000184Y030967D01*
X000184Y031126D02*
X000419Y031126D01*
X000419Y031284D02*
X000184Y031284D01*
X000184Y031443D02*
X000419Y031443D01*
X000419Y031601D02*
X000184Y031601D01*
X000184Y031760D02*
X000419Y031760D01*
X000419Y031918D02*
X000184Y031918D01*
X000184Y032077D02*
X000419Y032077D01*
X000419Y032235D02*
X000184Y032235D01*
X000184Y032394D02*
X000419Y032394D01*
X000419Y032553D02*
X000184Y032553D01*
X000184Y032711D02*
X000419Y032711D01*
X000419Y032870D02*
X000184Y032870D01*
X000184Y033028D02*
X000419Y033028D01*
X000419Y033187D02*
X000184Y033187D01*
X000184Y033345D02*
X000419Y033345D01*
X000419Y033504D02*
X000184Y033504D01*
X000184Y033662D02*
X000419Y033662D01*
X000419Y033821D02*
X000184Y033821D01*
X000184Y033979D02*
X000419Y033979D01*
X000419Y034138D02*
X000184Y034138D01*
X000184Y034297D02*
X000419Y034297D01*
X000451Y034455D02*
X000184Y034455D01*
X003732Y033803D02*
X003998Y033414D01*
X004145Y032936D01*
X004145Y032435D01*
X003998Y031956D01*
X003716Y031543D01*
X003716Y031543D01*
X003716Y031543D01*
X003324Y031230D01*
X002858Y031047D01*
X002359Y031010D01*
X002359Y031010D01*
X001870Y031121D01*
X001437Y031372D01*
X001437Y031372D01*
X001379Y031434D01*
X001379Y003437D01*
X001437Y003499D01*
X001870Y003749D01*
X001870Y003749D01*
X002359Y003861D01*
X002858Y003823D01*
X003010Y003763D01*
X002868Y003905D01*
X002540Y003905D01*
X002428Y003905D01*
X002326Y003948D01*
X001826Y004448D01*
X001747Y004527D01*
X001704Y004630D01*
X001704Y025130D01*
X001704Y025241D01*
X001747Y025344D01*
X001826Y025423D01*
X001928Y025465D01*
X008464Y025465D01*
X008497Y025544D01*
X008576Y025623D01*
X008678Y025665D01*
X008824Y025665D01*
X008698Y025718D01*
X008546Y025869D01*
X008464Y026068D01*
X008464Y026283D01*
X008546Y026481D01*
X008698Y026633D01*
X008897Y026715D01*
X009558Y026715D01*
X007488Y028785D01*
X007405Y028785D01*
X007258Y028846D01*
X007145Y028959D01*
X007084Y029106D01*
X007084Y029265D01*
X007145Y029412D01*
X007258Y029524D01*
X007405Y029585D01*
X007564Y029585D01*
X007711Y029524D01*
X007823Y029412D01*
X007884Y029265D01*
X007884Y029181D01*
X011043Y026022D01*
X011024Y026068D01*
X011024Y026283D01*
X011106Y026481D01*
X011258Y026633D01*
X011457Y026715D01*
X012272Y026715D01*
X012470Y026633D01*
X012622Y026481D01*
X012704Y026283D01*
X012704Y026068D01*
X012622Y025869D01*
X012470Y025718D01*
X012344Y025665D01*
X015034Y025665D01*
X014984Y025786D01*
X014984Y026585D01*
X015060Y026769D01*
X015197Y026905D01*
X014428Y026905D01*
X014326Y026948D01*
X014247Y027027D01*
X010488Y030785D01*
X010405Y030785D01*
X010258Y030846D01*
X010145Y030959D01*
X010084Y031106D01*
X010084Y031265D01*
X010145Y031412D01*
X010258Y031524D01*
X010405Y031585D01*
X010488Y031585D01*
X012326Y033423D01*
X012428Y033465D01*
X012540Y033465D01*
X035040Y033465D01*
X035143Y033423D01*
X035221Y033344D01*
X037600Y030965D01*
X039540Y030965D01*
X039643Y030923D01*
X039721Y030844D01*
X039764Y030741D01*
X039764Y030630D01*
X039764Y016630D01*
X039721Y016527D01*
X039643Y016448D01*
X028643Y005448D01*
X028540Y005405D01*
X028428Y005405D01*
X024928Y005405D01*
X024826Y005448D01*
X024824Y005449D01*
X024824Y005128D01*
X024742Y004929D01*
X024590Y004778D01*
X024518Y004748D01*
X024590Y004718D01*
X024742Y004566D01*
X024824Y004368D01*
X024824Y003553D01*
X024742Y003354D01*
X024590Y003203D01*
X024579Y003198D01*
X024590Y003193D01*
X024742Y003041D01*
X024824Y002843D01*
X024824Y002028D01*
X024742Y001829D01*
X024590Y001678D01*
X024392Y001595D01*
X024177Y001595D01*
X023978Y001678D01*
X023826Y001829D01*
X023784Y001931D01*
X023742Y001829D01*
X023590Y001678D01*
X023392Y001595D01*
X023177Y001595D01*
X022978Y001678D01*
X022826Y001829D01*
X022762Y001984D01*
X022708Y001852D01*
X022567Y001711D01*
X022384Y001635D01*
X022330Y001635D01*
X021762Y001067D01*
X026102Y001067D01*
X025896Y001289D01*
X025679Y001740D01*
X025604Y002235D01*
X025679Y002730D01*
X025679Y002731D01*
X025896Y003182D01*
X026237Y003549D01*
X026670Y003799D01*
X026670Y003799D01*
X027159Y003911D01*
X027658Y003873D01*
X028124Y003690D01*
X028516Y003378D01*
X028798Y002964D01*
X028945Y002486D01*
X028945Y001985D01*
X028798Y001506D01*
X028516Y001093D01*
X028516Y001093D01*
X028516Y001093D01*
X028484Y001067D01*
X040389Y001067D01*
X040389Y031482D01*
X040074Y031230D01*
X039608Y031047D01*
X039109Y031010D01*
X039109Y031010D01*
X038620Y031121D01*
X038187Y031372D01*
X038187Y031372D01*
X037846Y031739D01*
X037629Y032190D01*
X037554Y032685D01*
X037629Y033181D01*
X037846Y033632D01*
X038005Y033803D01*
X003732Y033803D01*
X003829Y033662D02*
X037875Y033662D01*
X037784Y033504D02*
X003937Y033504D01*
X003998Y033414D02*
X003998Y033414D01*
X004019Y033345D02*
X012248Y033345D01*
X012090Y033187D02*
X004068Y033187D01*
X004117Y033028D02*
X011931Y033028D01*
X011772Y032870D02*
X004145Y032870D01*
X004145Y032936D02*
X004145Y032936D01*
X004145Y032711D02*
X011614Y032711D01*
X011455Y032553D02*
X004145Y032553D01*
X004145Y032435D02*
X004145Y032435D01*
X004133Y032394D02*
X011297Y032394D01*
X011138Y032235D02*
X004084Y032235D01*
X004035Y032077D02*
X010980Y032077D01*
X010821Y031918D02*
X003972Y031918D01*
X003998Y031956D02*
X003998Y031956D01*
X003864Y031760D02*
X010663Y031760D01*
X010504Y031601D02*
X003756Y031601D01*
X003590Y031443D02*
X010176Y031443D01*
X010092Y031284D02*
X003392Y031284D01*
X003324Y031230D02*
X003324Y031230D01*
X003057Y031126D02*
X010084Y031126D01*
X010142Y030967D02*
X001379Y030967D01*
X001379Y030809D02*
X010348Y030809D01*
X010623Y030650D02*
X001379Y030650D01*
X001379Y030491D02*
X010782Y030491D01*
X010941Y030333D02*
X001379Y030333D01*
X001379Y030174D02*
X011099Y030174D01*
X011258Y030016D02*
X001379Y030016D01*
X001379Y029857D02*
X011416Y029857D01*
X011575Y029699D02*
X001379Y029699D01*
X001379Y029540D02*
X007296Y029540D01*
X007132Y029382D02*
X001379Y029382D01*
X001379Y029223D02*
X007084Y029223D01*
X007101Y029065D02*
X001379Y029065D01*
X001379Y028906D02*
X007198Y028906D01*
X007526Y028748D02*
X001379Y028748D01*
X001379Y028589D02*
X007685Y028589D01*
X007843Y028430D02*
X001379Y028430D01*
X001379Y028272D02*
X008002Y028272D01*
X008160Y028113D02*
X001379Y028113D01*
X001379Y027955D02*
X008319Y027955D01*
X008477Y027796D02*
X001379Y027796D01*
X001379Y027638D02*
X008636Y027638D01*
X008794Y027479D02*
X001379Y027479D01*
X001379Y027321D02*
X008953Y027321D01*
X009111Y027162D02*
X001379Y027162D01*
X001379Y027004D02*
X009270Y027004D01*
X009429Y026845D02*
X001379Y026845D01*
X001379Y026686D02*
X008827Y026686D01*
X008593Y026528D02*
X001379Y026528D01*
X001379Y026369D02*
X008500Y026369D01*
X008464Y026211D02*
X001379Y026211D01*
X001379Y026052D02*
X008471Y026052D01*
X008536Y025894D02*
X001379Y025894D01*
X001379Y025735D02*
X008681Y025735D01*
X008529Y025577D02*
X001379Y025577D01*
X001379Y025418D02*
X001821Y025418D01*
X001712Y025260D02*
X001379Y025260D01*
X001379Y025101D02*
X001704Y025101D01*
X001704Y024942D02*
X001379Y024942D01*
X001379Y024784D02*
X001704Y024784D01*
X001704Y024625D02*
X001379Y024625D01*
X001379Y024467D02*
X001704Y024467D01*
X001704Y024308D02*
X001379Y024308D01*
X001379Y024150D02*
X001704Y024150D01*
X001704Y023991D02*
X001379Y023991D01*
X001379Y023833D02*
X001704Y023833D01*
X001704Y023674D02*
X001379Y023674D01*
X001379Y023516D02*
X001704Y023516D01*
X001704Y023357D02*
X001379Y023357D01*
X001379Y023199D02*
X001704Y023199D01*
X001704Y023040D02*
X001379Y023040D01*
X001379Y022881D02*
X001704Y022881D01*
X001704Y022723D02*
X001379Y022723D01*
X001379Y022564D02*
X001704Y022564D01*
X001704Y022406D02*
X001379Y022406D01*
X001379Y022247D02*
X001704Y022247D01*
X001704Y022089D02*
X001379Y022089D01*
X001379Y021930D02*
X001704Y021930D01*
X001704Y021772D02*
X001379Y021772D01*
X001379Y021613D02*
X001704Y021613D01*
X001704Y021455D02*
X001379Y021455D01*
X001379Y021296D02*
X001704Y021296D01*
X001704Y021137D02*
X001379Y021137D01*
X001379Y020979D02*
X001704Y020979D01*
X001704Y020820D02*
X001379Y020820D01*
X001379Y020662D02*
X001704Y020662D01*
X001704Y020503D02*
X001379Y020503D01*
X001379Y020345D02*
X001704Y020345D01*
X001704Y020186D02*
X001379Y020186D01*
X001379Y020028D02*
X001704Y020028D01*
X001704Y019869D02*
X001379Y019869D01*
X001379Y019711D02*
X001704Y019711D01*
X001704Y019552D02*
X001379Y019552D01*
X001379Y019393D02*
X001704Y019393D01*
X001704Y019235D02*
X001379Y019235D01*
X001379Y019076D02*
X001704Y019076D01*
X001704Y018918D02*
X001379Y018918D01*
X001379Y018759D02*
X001704Y018759D01*
X001704Y018601D02*
X001379Y018601D01*
X001379Y018442D02*
X001704Y018442D01*
X001704Y018284D02*
X001379Y018284D01*
X001379Y018125D02*
X001704Y018125D01*
X001704Y017967D02*
X001379Y017967D01*
X001379Y017808D02*
X001704Y017808D01*
X001704Y017649D02*
X001379Y017649D01*
X001379Y017491D02*
X001704Y017491D01*
X001704Y017332D02*
X001379Y017332D01*
X001379Y017174D02*
X001704Y017174D01*
X001704Y017015D02*
X001379Y017015D01*
X001379Y016857D02*
X001704Y016857D01*
X001704Y016698D02*
X001379Y016698D01*
X001379Y016540D02*
X001704Y016540D01*
X001704Y016381D02*
X001379Y016381D01*
X001379Y016223D02*
X001704Y016223D01*
X001704Y016064D02*
X001379Y016064D01*
X001379Y015906D02*
X001704Y015906D01*
X001704Y015747D02*
X001379Y015747D01*
X001379Y015588D02*
X001704Y015588D01*
X001704Y015430D02*
X001379Y015430D01*
X001379Y015271D02*
X001704Y015271D01*
X001704Y015113D02*
X001379Y015113D01*
X001379Y014954D02*
X001704Y014954D01*
X001704Y014796D02*
X001379Y014796D01*
X001379Y014637D02*
X001704Y014637D01*
X001704Y014479D02*
X001379Y014479D01*
X001379Y014320D02*
X001704Y014320D01*
X001704Y014162D02*
X001379Y014162D01*
X001379Y014003D02*
X001704Y014003D01*
X001704Y013844D02*
X001379Y013844D01*
X001379Y013686D02*
X001704Y013686D01*
X001704Y013527D02*
X001379Y013527D01*
X001379Y013369D02*
X001704Y013369D01*
X001704Y013210D02*
X001379Y013210D01*
X001379Y013052D02*
X001704Y013052D01*
X001704Y012893D02*
X001379Y012893D01*
X001379Y012735D02*
X001704Y012735D01*
X001704Y012576D02*
X001379Y012576D01*
X001379Y012418D02*
X001704Y012418D01*
X001704Y012259D02*
X001379Y012259D01*
X001379Y012100D02*
X001704Y012100D01*
X001704Y011942D02*
X001379Y011942D01*
X001379Y011783D02*
X001704Y011783D01*
X001704Y011625D02*
X001379Y011625D01*
X001379Y011466D02*
X001704Y011466D01*
X001704Y011308D02*
X001379Y011308D01*
X001379Y011149D02*
X001704Y011149D01*
X001704Y010991D02*
X001379Y010991D01*
X001379Y010832D02*
X001704Y010832D01*
X001704Y010674D02*
X001379Y010674D01*
X001379Y010515D02*
X001704Y010515D01*
X001704Y010356D02*
X001379Y010356D01*
X001379Y010198D02*
X001704Y010198D01*
X001704Y010039D02*
X001379Y010039D01*
X001379Y009881D02*
X001704Y009881D01*
X001704Y009722D02*
X001379Y009722D01*
X001379Y009564D02*
X001704Y009564D01*
X001704Y009405D02*
X001379Y009405D01*
X001379Y009247D02*
X001704Y009247D01*
X001704Y009088D02*
X001379Y009088D01*
X001379Y008930D02*
X001704Y008930D01*
X001704Y008771D02*
X001379Y008771D01*
X001379Y008613D02*
X001704Y008613D01*
X001704Y008454D02*
X001379Y008454D01*
X001379Y008295D02*
X001704Y008295D01*
X001704Y008137D02*
X001379Y008137D01*
X001379Y007978D02*
X001704Y007978D01*
X001704Y007820D02*
X001379Y007820D01*
X001379Y007661D02*
X001704Y007661D01*
X001704Y007503D02*
X001379Y007503D01*
X001379Y007344D02*
X001704Y007344D01*
X001704Y007186D02*
X001379Y007186D01*
X001379Y007027D02*
X001704Y007027D01*
X001704Y006869D02*
X001379Y006869D01*
X001379Y006710D02*
X001704Y006710D01*
X001704Y006551D02*
X001379Y006551D01*
X001379Y006393D02*
X001704Y006393D01*
X001704Y006234D02*
X001379Y006234D01*
X001379Y006076D02*
X001704Y006076D01*
X001704Y005917D02*
X001379Y005917D01*
X001379Y005759D02*
X001704Y005759D01*
X001704Y005600D02*
X001379Y005600D01*
X001379Y005442D02*
X001704Y005442D01*
X001704Y005283D02*
X001379Y005283D01*
X001379Y005125D02*
X001704Y005125D01*
X001704Y004966D02*
X001379Y004966D01*
X001379Y004807D02*
X001704Y004807D01*
X001704Y004649D02*
X001379Y004649D01*
X001379Y004490D02*
X001783Y004490D01*
X001942Y004332D02*
X001379Y004332D01*
X001379Y004173D02*
X002100Y004173D01*
X002259Y004015D02*
X001379Y004015D01*
X001379Y003856D02*
X002339Y003856D01*
X002359Y003861D02*
X002359Y003861D01*
X002417Y003856D02*
X002917Y003856D01*
X002858Y003823D02*
X002858Y003823D01*
X002984Y004185D02*
X002484Y004185D01*
X001984Y004685D01*
X001984Y025185D01*
X011484Y025185D01*
X016984Y025185D01*
X017484Y025685D01*
X017484Y026185D01*
X016984Y025685D01*
X016984Y025635D01*
X016734Y025385D01*
X008734Y025385D01*
X008905Y024895D02*
X009704Y024895D01*
X009887Y024819D01*
X010028Y024679D01*
X010033Y024665D01*
X011135Y024665D01*
X011140Y024679D01*
X011281Y024819D01*
X011465Y024895D01*
X012264Y024895D01*
X012447Y024819D01*
X012588Y024679D01*
X012664Y024495D01*
X012664Y024296D01*
X012588Y024112D01*
X012447Y023971D01*
X012264Y023895D01*
X011814Y023895D01*
X011814Y022101D01*
X011869Y022155D01*
X012299Y022155D01*
X012604Y021851D01*
X012604Y021420D01*
X012299Y021115D01*
X011869Y021115D01*
X011814Y021170D01*
X011814Y021044D01*
X011885Y021115D01*
X012283Y021115D01*
X012564Y020834D01*
X012564Y020437D01*
X012283Y020155D01*
X012260Y020155D01*
X012321Y020094D01*
X012334Y020065D01*
X012376Y020023D01*
X012426Y020073D01*
X012697Y020344D01*
X012604Y020437D01*
X012604Y020834D01*
X012885Y021115D01*
X013283Y021115D01*
X013564Y020834D01*
X013564Y020611D01*
X018352Y025399D01*
X018205Y025460D01*
X016823Y024078D01*
X016773Y023959D01*
X016661Y023846D01*
X016542Y023797D01*
X014143Y021398D01*
X014040Y021355D01*
X013928Y021355D01*
X013483Y021355D01*
X013283Y021155D01*
X012885Y021155D01*
X012604Y021437D01*
X012604Y021834D01*
X012885Y022115D01*
X013283Y022115D01*
X013483Y021915D01*
X013868Y021915D01*
X016041Y024088D01*
X016034Y024106D01*
X016034Y024265D01*
X016095Y024412D01*
X016208Y024524D01*
X016355Y024585D01*
X016514Y024585D01*
X016531Y024578D01*
X016858Y024905D01*
X011540Y024905D01*
X002264Y024905D01*
X002264Y004801D01*
X002600Y004465D01*
X003040Y004465D01*
X003143Y004423D01*
X003221Y004344D01*
X006100Y001465D01*
X021368Y001465D01*
X021829Y001927D01*
X021784Y002036D01*
X021708Y001852D01*
X021567Y001711D01*
X021384Y001635D01*
X021185Y001635D01*
X021001Y001711D01*
X020860Y001852D01*
X020784Y002036D01*
X020708Y001852D01*
X020567Y001711D01*
X020384Y001635D01*
X020185Y001635D01*
X020001Y001711D01*
X019860Y001852D01*
X019784Y002036D01*
X019708Y001852D01*
X019567Y001711D01*
X019384Y001635D01*
X019185Y001635D01*
X019001Y001711D01*
X018860Y001852D01*
X018784Y002036D01*
X018784Y002835D01*
X018860Y003019D01*
X019001Y003159D01*
X019094Y003198D01*
X019001Y003236D01*
X018860Y003377D01*
X018784Y003561D01*
X018784Y004360D01*
X018860Y004544D01*
X019001Y004684D01*
X019155Y004748D01*
X019001Y004811D01*
X018860Y004952D01*
X018784Y005136D01*
X018784Y005935D01*
X018860Y006119D01*
X019001Y006259D01*
X019064Y006285D01*
X019001Y006311D01*
X018860Y006452D01*
X018784Y006636D01*
X018784Y007435D01*
X018860Y007619D01*
X019001Y007759D01*
X019185Y007835D01*
X019384Y007835D01*
X019567Y007759D01*
X019708Y007619D01*
X019784Y007435D01*
X019860Y007619D01*
X020001Y007759D01*
X020185Y007835D01*
X020384Y007835D01*
X020567Y007759D01*
X020708Y007619D01*
X020784Y007435D01*
X020784Y006636D01*
X020708Y006452D01*
X020567Y006311D01*
X020504Y006285D01*
X020567Y006259D01*
X020708Y006119D01*
X020784Y005935D01*
X020784Y005136D01*
X020708Y004952D01*
X020567Y004811D01*
X020414Y004748D01*
X020567Y004684D01*
X020708Y004544D01*
X020784Y004360D01*
X020784Y003561D01*
X020708Y003377D01*
X020567Y003236D01*
X020474Y003198D01*
X020567Y003159D01*
X020708Y003019D01*
X020784Y002835D01*
X020784Y002036D01*
X020784Y002835D01*
X020860Y003019D01*
X021001Y003159D01*
X021094Y003198D01*
X021001Y003236D01*
X020860Y003377D01*
X020784Y003561D01*
X020784Y004360D01*
X020860Y004544D01*
X021001Y004684D01*
X021155Y004748D01*
X021001Y004811D01*
X020860Y004952D01*
X020784Y005136D01*
X020784Y005935D01*
X020860Y006119D01*
X021001Y006259D01*
X021064Y006285D01*
X021001Y006311D01*
X020860Y006452D01*
X020784Y006636D01*
X020784Y007435D01*
X020860Y007619D01*
X021001Y007759D01*
X021185Y007835D01*
X021204Y007835D01*
X021204Y008130D01*
X021204Y008241D01*
X021247Y008344D01*
X021326Y008423D01*
X021428Y008465D01*
X022642Y008465D01*
X022584Y008606D01*
X022584Y008765D01*
X022645Y008912D01*
X022758Y009024D01*
X022905Y009085D01*
X023064Y009085D01*
X023211Y009024D01*
X023270Y008965D01*
X024698Y008965D01*
X024758Y009024D01*
X024905Y009085D01*
X025064Y009085D01*
X025211Y009024D01*
X025323Y008912D01*
X025384Y008765D01*
X025384Y008606D01*
X025323Y008459D01*
X025211Y008346D01*
X025064Y008285D01*
X024905Y008285D01*
X024758Y008346D01*
X024698Y008405D01*
X024660Y008405D01*
X025143Y007923D01*
X025221Y007844D01*
X025264Y007741D01*
X025264Y005965D01*
X028368Y005965D01*
X028393Y005990D01*
X028258Y006046D01*
X028198Y006105D01*
X026640Y006105D01*
X026528Y006105D01*
X026426Y006148D01*
X025576Y006998D01*
X025497Y007077D01*
X025454Y007180D01*
X025454Y011050D01*
X025395Y011109D01*
X025334Y011256D01*
X025334Y011415D01*
X025395Y011562D01*
X025508Y011674D01*
X025655Y011735D01*
X025814Y011735D01*
X025961Y011674D01*
X026073Y011562D01*
X026134Y011415D01*
X026134Y011256D01*
X026073Y011109D01*
X026014Y011050D01*
X026014Y007351D01*
X026073Y007292D01*
X026111Y007385D01*
X026235Y007508D01*
X026397Y007575D01*
X026572Y007575D01*
X026733Y007508D01*
X026741Y007500D01*
X027483Y007500D01*
X029858Y009875D01*
X029808Y009896D01*
X029748Y009955D01*
X029440Y009955D01*
X029328Y009955D01*
X029226Y009998D01*
X028288Y010935D01*
X028205Y010935D01*
X028058Y010996D01*
X027945Y011109D01*
X027884Y011256D01*
X027884Y011415D01*
X027945Y011562D01*
X028058Y011674D01*
X028205Y011735D01*
X028364Y011735D01*
X028511Y011674D01*
X028623Y011562D01*
X028684Y011415D01*
X028684Y011331D01*
X029500Y010515D01*
X029748Y010515D01*
X029808Y010574D01*
X029955Y010635D01*
X030114Y010635D01*
X030261Y010574D01*
X030373Y010462D01*
X030394Y010411D01*
X033069Y013087D01*
X033069Y014876D01*
X033065Y014889D01*
X033065Y014896D01*
X033044Y014948D01*
X033044Y015123D01*
X033111Y015285D01*
X033235Y015408D01*
X033282Y015428D01*
X033201Y015461D01*
X033060Y015602D01*
X032984Y015786D01*
X032908Y015602D01*
X032767Y015461D01*
X032584Y015385D01*
X032385Y015385D01*
X032201Y015461D01*
X032060Y015602D01*
X031984Y015786D01*
X031908Y015602D01*
X031767Y015461D01*
X031584Y015385D01*
X031385Y015385D01*
X031201Y015461D01*
X031060Y015602D01*
X030984Y015786D01*
X030908Y015602D01*
X030767Y015461D01*
X030584Y015385D01*
X030385Y015385D01*
X030201Y015461D01*
X030060Y015602D01*
X029984Y015786D01*
X029908Y015602D01*
X029767Y015461D01*
X029584Y015385D01*
X029385Y015385D01*
X029201Y015461D01*
X029060Y015602D01*
X028984Y015786D01*
X028908Y015602D01*
X028767Y015461D01*
X028714Y015439D01*
X028714Y015420D01*
X028722Y015423D01*
X028896Y015423D01*
X029057Y015357D01*
X029109Y015305D01*
X031910Y015305D01*
X031911Y015307D01*
X032072Y015373D01*
X032246Y015373D01*
X032407Y015307D01*
X032531Y015184D01*
X032597Y015022D01*
X032597Y014848D01*
X032531Y014687D01*
X032407Y014564D01*
X032246Y014497D01*
X032072Y014497D01*
X031911Y014564D01*
X031810Y014665D01*
X029109Y014665D01*
X029057Y014614D01*
X028896Y014547D01*
X028722Y014547D01*
X028714Y014551D01*
X028714Y014271D01*
X028773Y014212D01*
X028834Y014065D01*
X028834Y013906D01*
X028773Y013759D01*
X028661Y013646D01*
X028514Y013585D01*
X028355Y013585D01*
X028208Y013646D01*
X028095Y013759D01*
X028034Y013906D01*
X028034Y014065D01*
X028095Y014212D01*
X028154Y014271D01*
X028154Y014586D01*
X028121Y014572D01*
X027947Y014572D01*
X027905Y014590D01*
X026294Y012979D01*
X026191Y012876D01*
X026057Y012820D01*
X023635Y012820D01*
X018747Y007932D01*
X018747Y007873D01*
X018681Y007712D01*
X018557Y007589D01*
X018396Y007522D01*
X018347Y007522D01*
X018319Y007454D01*
X018216Y007351D01*
X018179Y007336D01*
X018179Y004472D01*
X018130Y004354D01*
X018040Y004264D01*
X017923Y004215D01*
X017795Y004215D01*
X016009Y004215D01*
X015957Y004164D01*
X015796Y004097D01*
X015622Y004097D01*
X015461Y004164D01*
X015338Y004287D01*
X015271Y004448D01*
X015271Y004622D01*
X015338Y004784D01*
X015461Y004907D01*
X015622Y004973D01*
X015796Y004973D01*
X015957Y004907D01*
X016009Y004855D01*
X017539Y004855D01*
X017539Y007447D01*
X017539Y007574D01*
X017588Y007692D01*
X017619Y007723D01*
X017619Y007758D01*
X017652Y007837D01*
X016691Y006876D01*
X016557Y006820D01*
X016411Y006820D01*
X014911Y006820D01*
X014777Y006876D01*
X014675Y006979D01*
X011408Y010245D01*
X011397Y010245D01*
X011235Y010312D01*
X011111Y010436D01*
X011044Y010598D01*
X011044Y010773D01*
X011085Y010871D01*
X011063Y010862D01*
X010905Y010862D01*
X010759Y010923D01*
X010701Y010980D01*
X010290Y010980D01*
X010178Y010980D01*
X010076Y011023D01*
X008613Y012485D01*
X008110Y012485D01*
X007926Y012561D01*
X007866Y012621D01*
X004410Y009165D01*
X004484Y008985D01*
X004484Y008786D01*
X004408Y008602D01*
X004267Y008461D01*
X004136Y008407D01*
X004290Y008343D01*
X004442Y008191D01*
X004524Y007993D01*
X004524Y007778D01*
X004442Y007579D01*
X004290Y007428D01*
X004136Y007364D01*
X004267Y007309D01*
X004408Y007169D01*
X004484Y006985D01*
X004484Y006786D01*
X004408Y006602D01*
X004267Y006461D01*
X004136Y006407D01*
X004290Y006343D01*
X004442Y006191D01*
X004524Y005993D01*
X004524Y005778D01*
X004442Y005579D01*
X004290Y005428D01*
X004092Y005345D01*
X003277Y005345D01*
X003078Y005428D01*
X003014Y005492D01*
X003014Y005115D01*
X004551Y005115D01*
X004609Y005173D01*
X004755Y005233D01*
X004913Y005233D01*
X005060Y005173D01*
X005172Y005061D01*
X005232Y004915D01*
X005232Y004823D01*
X005373Y005164D01*
X005636Y005426D01*
X005979Y005568D01*
X006138Y005568D01*
X006119Y005613D01*
X006119Y005758D01*
X006119Y008874D01*
X005928Y008953D01*
X005776Y009104D01*
X005694Y009303D01*
X005694Y010118D01*
X005776Y010316D01*
X005928Y010468D01*
X006127Y010550D01*
X006342Y010550D01*
X006540Y010468D01*
X006692Y010316D01*
X006756Y010162D01*
X006810Y010294D01*
X006951Y010434D01*
X007135Y010510D01*
X007334Y010510D01*
X007390Y010487D01*
X007826Y010923D01*
X007928Y010965D01*
X008040Y010965D01*
X010040Y010965D01*
X010143Y010923D01*
X010221Y010844D01*
X010264Y010741D01*
X010264Y010630D01*
X010264Y006630D01*
X010221Y006527D01*
X010143Y006448D01*
X010083Y006389D01*
X010111Y006400D01*
X010257Y006400D01*
X010327Y006400D01*
X010335Y006408D01*
X010497Y006475D01*
X010672Y006475D01*
X010833Y006408D01*
X010957Y006285D01*
X011024Y006123D01*
X011024Y005948D01*
X010957Y005786D01*
X010833Y005662D01*
X010672Y005595D01*
X010497Y005595D01*
X010335Y005662D01*
X010331Y005666D01*
X009544Y004879D01*
X009544Y004879D01*
X009441Y004776D01*
X009307Y004720D01*
X008757Y004720D01*
X008611Y004720D01*
X008477Y004776D01*
X008078Y005175D01*
X007824Y005175D01*
X007679Y005320D01*
X006798Y005320D01*
X006955Y005164D01*
X007097Y004821D01*
X007097Y004450D01*
X006955Y004107D01*
X006692Y003845D01*
X006350Y003703D01*
X005979Y003703D01*
X005636Y003845D01*
X005373Y004107D01*
X005231Y004450D01*
X005231Y004754D01*
X005172Y004610D01*
X005060Y004498D01*
X004913Y004437D01*
X004755Y004437D01*
X004609Y004498D01*
X004551Y004555D01*
X002790Y004555D01*
X002678Y004555D01*
X002576Y004598D01*
X002497Y004677D01*
X002454Y004780D01*
X002454Y006830D01*
X002454Y006941D01*
X002497Y007044D01*
X002576Y007123D01*
X002678Y007165D01*
X002959Y007165D01*
X002960Y007169D01*
X003101Y007309D01*
X003232Y007364D01*
X003078Y007428D01*
X002926Y007579D01*
X002844Y007778D01*
X002844Y007993D01*
X002926Y008191D01*
X003078Y008343D01*
X003232Y008407D01*
X003101Y008461D01*
X002960Y008602D01*
X002884Y008786D01*
X002884Y008985D01*
X002960Y009169D01*
X003101Y009309D01*
X003285Y009385D01*
X003101Y009461D01*
X002960Y009602D01*
X002884Y009786D01*
X002884Y009985D01*
X002960Y010169D01*
X003101Y010309D01*
X003285Y010385D01*
X003101Y010461D01*
X002960Y010602D01*
X002884Y010786D01*
X002884Y010985D01*
X002960Y011169D01*
X003101Y011309D01*
X003285Y011385D01*
X004084Y011385D01*
X004267Y011309D01*
X004408Y011169D01*
X004484Y010985D01*
X004484Y010786D01*
X004408Y010602D01*
X004267Y010461D01*
X004084Y010385D01*
X004267Y010309D01*
X004315Y010262D01*
X007697Y013644D01*
X007776Y013723D01*
X007777Y013723D01*
X007709Y013886D01*
X007709Y014085D01*
X007785Y014269D01*
X007926Y014409D01*
X008110Y014485D01*
X008638Y014485D01*
X010598Y016445D01*
X010447Y016445D01*
X010285Y016512D01*
X010161Y016636D01*
X010094Y016798D01*
X010094Y016809D01*
X009208Y017695D01*
X009197Y017695D01*
X009035Y017762D01*
X008911Y017886D01*
X008844Y018048D01*
X008844Y018223D01*
X008911Y018385D01*
X009035Y018508D01*
X009197Y018575D01*
X009372Y018575D01*
X009533Y018508D01*
X009657Y018385D01*
X009724Y018223D01*
X009724Y018212D01*
X010610Y017325D01*
X010622Y017325D01*
X010783Y017258D01*
X010907Y017135D01*
X010974Y016973D01*
X010974Y016821D01*
X011376Y017223D01*
X011478Y017265D01*
X011590Y017265D01*
X011719Y017265D01*
X011564Y017420D01*
X011564Y017851D01*
X011869Y018155D01*
X012299Y018155D01*
X012604Y017851D01*
X012604Y017420D01*
X012449Y017265D01*
X012775Y017265D01*
X012604Y017437D01*
X012604Y017834D01*
X012885Y018115D01*
X013068Y018115D01*
X013108Y018155D01*
X012885Y018155D01*
X012604Y018437D01*
X012604Y018834D01*
X012697Y018927D01*
X012647Y018977D01*
X012376Y019248D01*
X012283Y019155D01*
X011885Y019155D01*
X011604Y019437D01*
X011604Y019834D01*
X011697Y019927D01*
X011376Y020248D01*
X011297Y020327D01*
X011254Y020430D01*
X011254Y023998D01*
X011147Y024105D01*
X010021Y024105D01*
X009887Y023971D01*
X009704Y023895D01*
X008905Y023895D01*
X008721Y023971D01*
X008580Y024112D01*
X008504Y024296D01*
X008504Y024495D01*
X008580Y024679D01*
X008721Y024819D01*
X008905Y024895D01*
X008686Y024784D02*
X002264Y024784D01*
X002264Y024625D02*
X008558Y024625D01*
X008504Y024467D02*
X002264Y024467D01*
X002264Y024308D02*
X008504Y024308D01*
X008565Y024150D02*
X002264Y024150D01*
X002264Y023991D02*
X008701Y023991D01*
X009304Y024395D02*
X009334Y024385D01*
X011734Y024385D01*
X011864Y024395D01*
X011834Y024385D01*
X011534Y024085D01*
X011534Y020485D01*
X012084Y019935D01*
X012084Y019635D01*
X012371Y020028D02*
X012380Y020028D01*
X012314Y020186D02*
X012539Y020186D01*
X012472Y020345D02*
X012696Y020345D01*
X012604Y020503D02*
X012564Y020503D01*
X012564Y020662D02*
X012604Y020662D01*
X012604Y020820D02*
X012564Y020820D01*
X012419Y020979D02*
X012749Y020979D01*
X012745Y021296D02*
X012480Y021296D01*
X012604Y021455D02*
X012604Y021455D01*
X012604Y021613D02*
X012604Y021613D01*
X012604Y021772D02*
X012604Y021772D01*
X012525Y021930D02*
X012700Y021930D01*
X012859Y022089D02*
X012366Y022089D01*
X011814Y022247D02*
X014200Y022247D01*
X014042Y022089D02*
X013310Y022089D01*
X013468Y021930D02*
X013883Y021930D01*
X013984Y021635D02*
X016484Y024135D01*
X016434Y024185D01*
X016484Y024135D02*
X018484Y026135D01*
X018484Y026185D01*
X017984Y026211D02*
X017984Y026211D01*
X017984Y026369D02*
X017984Y026369D01*
X017984Y026528D02*
X017984Y026528D01*
X017984Y026585D02*
X018060Y026769D01*
X018201Y026909D01*
X018352Y026972D01*
X016847Y028477D01*
X016804Y028580D01*
X016804Y028691D01*
X016804Y030900D01*
X016745Y030959D01*
X016684Y031106D01*
X016684Y031265D01*
X016745Y031412D01*
X016858Y031524D01*
X016922Y031551D01*
X016338Y032135D01*
X016255Y032135D01*
X016108Y032196D01*
X015995Y032309D01*
X015934Y032456D01*
X015934Y032615D01*
X015995Y032762D01*
X016108Y032874D01*
X016182Y032905D01*
X012600Y032905D01*
X011860Y032165D01*
X012033Y032165D01*
X012314Y031884D01*
X012314Y031487D01*
X012033Y031205D01*
X011635Y031205D01*
X011354Y031487D01*
X011354Y031659D01*
X010884Y031189D01*
X010884Y031181D01*
X011314Y030751D01*
X011314Y030901D01*
X011619Y031205D01*
X012049Y031205D01*
X012354Y030901D01*
X012354Y030681D01*
X012354Y030884D01*
X012635Y031165D01*
X013033Y031165D01*
X013314Y030884D01*
X013314Y030487D01*
X013278Y030450D01*
X013390Y030450D01*
X013354Y030487D01*
X013354Y030884D01*
X013635Y031165D01*
X014033Y031165D01*
X014314Y030884D01*
X014314Y030881D01*
X014314Y030881D01*
X014314Y030901D01*
X014619Y031205D01*
X015049Y031205D01*
X015334Y030921D01*
X015599Y031185D01*
X015314Y031470D01*
X015314Y031901D01*
X015619Y032205D01*
X016049Y032205D01*
X016354Y031901D01*
X016354Y031470D01*
X016069Y031185D01*
X016354Y030901D01*
X016354Y030470D01*
X016049Y030165D01*
X015619Y030165D01*
X015334Y030450D01*
X015049Y030165D01*
X014630Y030165D01*
X014344Y029879D01*
X014241Y029776D01*
X014107Y029720D01*
X012507Y029720D01*
X012361Y029720D01*
X012333Y029732D01*
X014600Y027465D01*
X015928Y027465D01*
X016040Y027465D01*
X016143Y027423D01*
X016580Y026985D01*
X016584Y026985D01*
X016767Y026909D01*
X016908Y026769D01*
X016984Y026585D01*
X017060Y026769D01*
X017201Y026909D01*
X017385Y026985D01*
X017584Y026985D01*
X017767Y026909D01*
X017908Y026769D01*
X017984Y026585D01*
X017984Y026031D01*
X017984Y026031D01*
X017984Y026585D01*
X018026Y026686D02*
X017942Y026686D01*
X017832Y026845D02*
X018137Y026845D01*
X018320Y027004D02*
X016562Y027004D01*
X016403Y027162D02*
X018161Y027162D01*
X018003Y027321D02*
X016245Y027321D01*
X015984Y027185D02*
X016484Y026685D01*
X016484Y026185D01*
X015984Y026211D02*
X015984Y026211D01*
X015984Y026369D02*
X015984Y026369D01*
X015984Y026528D02*
X015984Y026528D01*
X015984Y026585D02*
X016044Y026729D01*
X015868Y026905D01*
X015771Y026905D01*
X015908Y026769D01*
X015984Y026585D01*
X015984Y025786D01*
X015934Y025665D01*
X016034Y025665D01*
X015984Y025786D01*
X015984Y026585D01*
X016026Y026686D02*
X015942Y026686D01*
X015929Y026845D02*
X015831Y026845D01*
X015984Y027185D02*
X014484Y027185D01*
X010484Y031185D01*
X012484Y033185D01*
X034984Y033185D01*
X037484Y030685D01*
X039484Y030685D01*
X039484Y016685D01*
X028484Y005685D01*
X024984Y005685D01*
X024984Y007685D01*
X024484Y008185D01*
X021484Y008185D01*
X021484Y007185D01*
X021284Y007035D01*
X020784Y007027D02*
X020784Y007027D01*
X020784Y006869D02*
X020784Y006869D01*
X020784Y006710D02*
X020784Y006710D01*
X020819Y006551D02*
X020749Y006551D01*
X020649Y006393D02*
X020919Y006393D01*
X020976Y006234D02*
X020592Y006234D01*
X020726Y006076D02*
X020843Y006076D01*
X020784Y005917D02*
X020784Y005917D01*
X020784Y005759D02*
X020784Y005759D01*
X020784Y005600D02*
X020784Y005600D01*
X020784Y005442D02*
X020784Y005442D01*
X020784Y005283D02*
X020784Y005283D01*
X020789Y005125D02*
X020779Y005125D01*
X020714Y004966D02*
X020854Y004966D01*
X021011Y004807D02*
X020558Y004807D01*
X020603Y004649D02*
X020966Y004649D01*
X020838Y004490D02*
X020730Y004490D01*
X020784Y004332D02*
X020784Y004332D01*
X020784Y004173D02*
X020784Y004173D01*
X020784Y004015D02*
X020784Y004015D01*
X020784Y003856D02*
X020784Y003856D01*
X020784Y003698D02*
X020784Y003698D01*
X020793Y003539D02*
X020775Y003539D01*
X020709Y003381D02*
X020859Y003381D01*
X021036Y003222D02*
X020533Y003222D01*
X020663Y003064D02*
X020905Y003064D01*
X020813Y002905D02*
X020755Y002905D01*
X020784Y002746D02*
X020784Y002746D01*
X020784Y002588D02*
X020784Y002588D01*
X020784Y002429D02*
X020784Y002429D01*
X020784Y002271D02*
X020784Y002271D01*
X020784Y002112D02*
X020784Y002112D01*
X020818Y001954D02*
X020750Y001954D01*
X020651Y001795D02*
X020917Y001795D01*
X021182Y001637D02*
X020387Y001637D01*
X020182Y001637D02*
X019387Y001637D01*
X019182Y001637D02*
X005929Y001637D01*
X005770Y001795D02*
X018917Y001795D01*
X018818Y001954D02*
X005612Y001954D01*
X005453Y002112D02*
X018784Y002112D01*
X018784Y002271D02*
X005295Y002271D01*
X005136Y002429D02*
X018784Y002429D01*
X018784Y002588D02*
X004978Y002588D01*
X004819Y002746D02*
X018784Y002746D01*
X018813Y002905D02*
X004660Y002905D01*
X004502Y003064D02*
X018905Y003064D01*
X019036Y003222D02*
X004343Y003222D01*
X004185Y003381D02*
X018859Y003381D01*
X018793Y003539D02*
X004026Y003539D01*
X003868Y003698D02*
X018784Y003698D01*
X018784Y003856D02*
X011444Y003856D01*
X011433Y003845D02*
X011090Y003703D01*
X010719Y003703D01*
X010376Y003845D01*
X010113Y004107D01*
X009971Y004450D01*
X009971Y004821D01*
X010113Y005164D01*
X010376Y005426D01*
X010719Y005568D01*
X011090Y005568D01*
X011433Y005426D01*
X011695Y005164D01*
X011837Y004821D01*
X011837Y004450D01*
X011695Y004107D01*
X011433Y003845D01*
X011603Y004015D02*
X018784Y004015D01*
X018784Y004173D02*
X015967Y004173D01*
X015709Y004535D02*
X017859Y004535D01*
X017859Y007510D01*
X018009Y007660D01*
X018309Y007960D01*
X018309Y007985D01*
X018725Y007820D02*
X019147Y007820D01*
X019421Y007820D02*
X020147Y007820D01*
X020421Y007820D02*
X021147Y007820D01*
X021204Y007978D02*
X018793Y007978D01*
X018952Y008137D02*
X021204Y008137D01*
X021227Y008295D02*
X019110Y008295D01*
X019269Y008454D02*
X021401Y008454D01*
X021764Y007905D02*
X021764Y007483D01*
X021784Y007435D01*
X021784Y006636D01*
X021708Y006452D01*
X021567Y006311D01*
X021504Y006285D01*
X021567Y006259D01*
X021708Y006119D01*
X021784Y005935D01*
X021784Y005136D01*
X021708Y004952D01*
X021567Y004811D01*
X021414Y004748D01*
X021567Y004684D01*
X021708Y004544D01*
X021784Y004360D01*
X021784Y003561D01*
X021708Y003377D01*
X021567Y003236D01*
X021474Y003198D01*
X021567Y003159D01*
X021708Y003019D01*
X021784Y002835D01*
X021784Y002036D01*
X021784Y002835D01*
X021860Y003019D01*
X022001Y003159D01*
X022094Y003198D01*
X022001Y003236D01*
X021860Y003377D01*
X021784Y003561D01*
X021784Y004360D01*
X021860Y004544D01*
X022001Y004684D01*
X022155Y004748D01*
X022001Y004811D01*
X021860Y004952D01*
X021784Y005136D01*
X021784Y005935D01*
X021860Y006119D01*
X022001Y006259D01*
X022064Y006285D01*
X022001Y006311D01*
X021860Y006452D01*
X021784Y006636D01*
X021784Y007435D01*
X021860Y007619D01*
X022001Y007759D01*
X022185Y007835D01*
X022384Y007835D01*
X022567Y007759D01*
X022708Y007619D01*
X022762Y007487D01*
X022826Y007641D01*
X022978Y007793D01*
X023177Y007875D01*
X023392Y007875D01*
X023590Y007793D01*
X023742Y007641D01*
X023784Y007539D01*
X023826Y007641D01*
X023978Y007793D01*
X024177Y007875D01*
X024392Y007875D01*
X024403Y007871D01*
X024368Y007905D01*
X021764Y007905D01*
X021764Y007820D02*
X022147Y007820D01*
X022421Y007820D02*
X023043Y007820D01*
X022846Y007661D02*
X022665Y007661D01*
X022756Y007503D02*
X022769Y007503D01*
X023526Y007820D02*
X024043Y007820D01*
X023846Y007661D02*
X023722Y007661D01*
X024770Y008295D02*
X024880Y008295D01*
X024928Y008137D02*
X025454Y008137D01*
X025454Y008295D02*
X025088Y008295D01*
X025318Y008454D02*
X025454Y008454D01*
X025454Y008613D02*
X025384Y008613D01*
X025382Y008771D02*
X025454Y008771D01*
X025454Y008930D02*
X025306Y008930D01*
X025454Y009088D02*
X019903Y009088D01*
X019745Y008930D02*
X022663Y008930D01*
X022587Y008771D02*
X019586Y008771D01*
X019427Y008613D02*
X022584Y008613D01*
X022984Y008685D02*
X024984Y008685D01*
X025454Y009247D02*
X020062Y009247D01*
X020220Y009405D02*
X025454Y009405D01*
X025454Y009564D02*
X020379Y009564D01*
X020537Y009722D02*
X025454Y009722D01*
X025454Y009881D02*
X020696Y009881D01*
X020854Y010039D02*
X025454Y010039D01*
X025454Y010198D02*
X021013Y010198D01*
X021171Y010356D02*
X025454Y010356D01*
X025454Y010515D02*
X021330Y010515D01*
X021489Y010674D02*
X025454Y010674D01*
X025454Y010832D02*
X021647Y010832D01*
X021806Y010991D02*
X025454Y010991D01*
X025378Y011149D02*
X021964Y011149D01*
X022123Y011308D02*
X025334Y011308D01*
X025355Y011466D02*
X022281Y011466D01*
X022440Y011625D02*
X025458Y011625D01*
X025639Y011942D02*
X022757Y011942D01*
X022915Y012100D02*
X025403Y012100D01*
X025395Y012109D02*
X025334Y012256D01*
X025334Y012415D01*
X025395Y012562D01*
X025508Y012674D01*
X025655Y012735D01*
X025814Y012735D01*
X025961Y012674D01*
X026073Y012562D01*
X026134Y012415D01*
X026134Y012331D01*
X028180Y010285D01*
X028264Y010285D01*
X028411Y010224D01*
X028523Y010112D01*
X028584Y009965D01*
X028584Y009806D01*
X028523Y009659D01*
X028411Y009546D01*
X028264Y009485D01*
X028105Y009485D01*
X027958Y009546D01*
X027845Y009659D01*
X027784Y009806D01*
X027784Y009889D01*
X025738Y011935D01*
X025655Y011935D01*
X025508Y011996D01*
X025395Y012109D01*
X025334Y012259D02*
X023074Y012259D01*
X023233Y012418D02*
X025335Y012418D01*
X025409Y012576D02*
X023391Y012576D01*
X023550Y012735D02*
X025653Y012735D01*
X025815Y012735D02*
X029448Y012735D01*
X029448Y012733D02*
X029342Y012989D01*
X029342Y013266D01*
X029448Y013522D01*
X029644Y013718D01*
X029900Y013824D01*
X030177Y013824D01*
X030433Y013718D01*
X030629Y013522D01*
X030735Y013266D01*
X030735Y012989D01*
X030629Y012733D01*
X030433Y012537D01*
X030177Y012431D01*
X029900Y012431D01*
X029644Y012537D01*
X029448Y012733D01*
X029382Y012893D02*
X026208Y012893D01*
X026367Y013052D02*
X029342Y013052D01*
X029342Y013210D02*
X026525Y013210D01*
X026684Y013369D02*
X029385Y013369D01*
X029453Y013527D02*
X026842Y013527D01*
X027001Y013686D02*
X028168Y013686D01*
X028060Y013844D02*
X027159Y013844D01*
X027318Y014003D02*
X028034Y014003D01*
X028074Y014162D02*
X027476Y014162D01*
X027635Y014320D02*
X028154Y014320D01*
X028154Y014479D02*
X027794Y014479D01*
X028434Y013985D02*
X028434Y016135D01*
X028484Y016185D01*
X028484Y016235D01*
X026034Y018685D01*
X026038Y018285D02*
X026022Y018285D01*
X026047Y018261D01*
X026107Y018115D01*
X026107Y017958D01*
X027179Y016887D01*
X027201Y016909D01*
X027352Y016972D01*
X026038Y018285D01*
X026040Y018284D02*
X026024Y018284D01*
X026103Y018125D02*
X026198Y018125D01*
X026107Y017967D02*
X026357Y017967D01*
X026257Y017808D02*
X026516Y017808D01*
X026416Y017649D02*
X026674Y017649D01*
X026574Y017491D02*
X026833Y017491D01*
X026733Y017332D02*
X026991Y017332D01*
X026891Y017174D02*
X027150Y017174D01*
X027050Y017015D02*
X027308Y017015D01*
X027783Y017332D02*
X027941Y017332D01*
X027942Y017174D02*
X028100Y017174D01*
X028100Y017015D02*
X028258Y017015D01*
X028316Y016957D02*
X028205Y016911D01*
X026749Y018367D01*
X026861Y018413D01*
X028316Y016957D01*
X028733Y017332D02*
X028991Y017332D01*
X028891Y017174D02*
X029150Y017174D01*
X029050Y017015D02*
X029308Y017015D01*
X029352Y016972D02*
X027088Y019235D01*
X027005Y019235D01*
X026858Y019296D01*
X026745Y019409D01*
X026684Y019556D01*
X026684Y019715D01*
X026745Y019862D01*
X026858Y019974D01*
X027005Y020035D01*
X027164Y020035D01*
X027311Y019974D01*
X027423Y019862D01*
X027484Y019715D01*
X027484Y019631D01*
X030205Y016911D01*
X030352Y016972D01*
X026868Y020455D01*
X026670Y020455D01*
X026611Y020396D01*
X026464Y020335D01*
X026305Y020335D01*
X026158Y020396D01*
X026045Y020509D01*
X025984Y020656D01*
X025984Y020815D01*
X026045Y020962D01*
X026158Y021074D01*
X026305Y021135D01*
X026464Y021135D01*
X026611Y021074D01*
X026670Y021015D01*
X026928Y021015D01*
X027040Y021015D01*
X027143Y020973D01*
X031205Y016911D01*
X031352Y016972D01*
X027688Y020635D01*
X027605Y020635D01*
X027458Y020696D01*
X027345Y020809D01*
X027284Y020956D01*
X027284Y021115D01*
X027301Y021155D01*
X025884Y021155D01*
X025897Y021122D01*
X025897Y020948D01*
X025831Y020787D01*
X025707Y020664D01*
X025546Y020597D01*
X025372Y020597D01*
X025211Y020664D01*
X025160Y020715D01*
X024650Y020715D01*
X025668Y019698D01*
X025746Y019619D01*
X025789Y019516D01*
X025789Y019216D01*
X025789Y019105D01*
X025746Y019002D01*
X025689Y018944D01*
X025708Y018925D01*
X025808Y019024D01*
X025955Y019085D01*
X026114Y019085D01*
X026261Y019024D01*
X026315Y018970D01*
X026322Y018986D01*
X026434Y019098D01*
X026580Y019158D01*
X026738Y019158D01*
X026885Y019098D01*
X026942Y019040D01*
X026965Y019040D01*
X027068Y018998D01*
X029179Y016887D01*
X029201Y016909D01*
X029352Y016972D01*
X029783Y017332D02*
X029991Y017332D01*
X029941Y017174D02*
X030150Y017174D01*
X030100Y017015D02*
X030308Y017015D01*
X030783Y017332D02*
X030991Y017332D01*
X030942Y017174D02*
X031150Y017174D01*
X031100Y017015D02*
X031308Y017015D01*
X031783Y017332D02*
X033204Y017332D01*
X033204Y017174D02*
X031942Y017174D01*
X032100Y017015D02*
X033204Y017015D01*
X033204Y016911D02*
X033204Y019027D01*
X033197Y019035D01*
X033136Y019181D01*
X033136Y019340D01*
X033197Y019486D01*
X033266Y019555D01*
X029770Y019555D01*
X029711Y019496D01*
X029646Y019469D01*
X032205Y016911D01*
X032385Y016985D01*
X032584Y016985D01*
X032767Y016909D01*
X032908Y016769D01*
X032984Y016585D01*
X032984Y015786D01*
X032984Y016585D01*
X033060Y016769D01*
X033201Y016909D01*
X033204Y016911D01*
X033148Y016857D02*
X032820Y016857D01*
X032937Y016698D02*
X033031Y016698D01*
X032984Y016540D02*
X032984Y016540D01*
X032984Y016381D02*
X032984Y016381D01*
X032984Y016223D02*
X032984Y016223D01*
X032984Y016064D02*
X032984Y016064D01*
X032984Y015906D02*
X032984Y015906D01*
X033000Y015747D02*
X032968Y015747D01*
X032894Y015588D02*
X033074Y015588D01*
X033277Y015430D02*
X032691Y015430D01*
X032443Y015271D02*
X033106Y015271D01*
X033044Y015113D02*
X032560Y015113D01*
X032597Y014954D02*
X033044Y014954D01*
X033069Y014796D02*
X032575Y014796D01*
X032481Y014637D02*
X033069Y014637D01*
X033069Y014479D02*
X028714Y014479D01*
X028714Y014320D02*
X033069Y014320D01*
X033069Y014162D02*
X028794Y014162D01*
X028834Y014003D02*
X033069Y014003D01*
X033069Y013844D02*
X028809Y013844D01*
X028700Y013686D02*
X029612Y013686D01*
X030466Y013686D02*
X033069Y013686D01*
X033069Y013527D02*
X030624Y013527D01*
X030693Y013369D02*
X033069Y013369D01*
X033069Y013210D02*
X030735Y013210D01*
X030735Y013052D02*
X033034Y013052D01*
X032876Y012893D02*
X030695Y012893D01*
X030630Y012735D02*
X032717Y012735D01*
X032559Y012576D02*
X030472Y012576D01*
X029605Y012576D02*
X026059Y012576D01*
X026133Y012418D02*
X032400Y012418D01*
X032242Y012259D02*
X026206Y012259D01*
X026365Y012100D02*
X032083Y012100D01*
X031925Y011942D02*
X026523Y011942D01*
X026682Y011783D02*
X031766Y011783D01*
X031607Y011625D02*
X028560Y011625D01*
X028663Y011466D02*
X031449Y011466D01*
X031290Y011308D02*
X028708Y011308D01*
X028866Y011149D02*
X031132Y011149D01*
X030973Y010991D02*
X029025Y010991D01*
X029183Y010832D02*
X030815Y010832D01*
X030656Y010674D02*
X029342Y010674D01*
X029384Y010235D02*
X028284Y011335D01*
X028008Y011625D02*
X026841Y011625D01*
X026999Y011466D02*
X027905Y011466D01*
X027884Y011308D02*
X027158Y011308D01*
X027316Y011149D02*
X027928Y011149D01*
X028071Y010991D02*
X027475Y010991D01*
X027633Y010832D02*
X028391Y010832D01*
X028550Y010674D02*
X027792Y010674D01*
X027950Y010515D02*
X028708Y010515D01*
X028867Y010356D02*
X028109Y010356D01*
X028437Y010198D02*
X029026Y010198D01*
X029184Y010039D02*
X028553Y010039D01*
X028584Y009881D02*
X029845Y009881D01*
X029705Y009722D02*
X028550Y009722D01*
X028428Y009564D02*
X029546Y009564D01*
X029388Y009405D02*
X026014Y009405D01*
X026014Y009247D02*
X029229Y009247D01*
X029071Y009088D02*
X026014Y009088D01*
X026014Y008930D02*
X028912Y008930D01*
X028754Y008771D02*
X026014Y008771D01*
X026014Y008613D02*
X028595Y008613D01*
X028437Y008454D02*
X026014Y008454D01*
X026014Y008295D02*
X028278Y008295D01*
X028119Y008137D02*
X026014Y008137D01*
X026014Y007978D02*
X027961Y007978D01*
X027802Y007820D02*
X026014Y007820D01*
X026014Y007661D02*
X027644Y007661D01*
X027485Y007503D02*
X026739Y007503D01*
X026229Y007503D02*
X026014Y007503D01*
X026021Y007344D02*
X026094Y007344D01*
X025734Y007235D02*
X025734Y011335D01*
X026010Y011625D02*
X026049Y011625D01*
X026113Y011466D02*
X026207Y011466D01*
X026134Y011308D02*
X026366Y011308D01*
X026524Y011149D02*
X026090Y011149D01*
X026014Y010991D02*
X026683Y010991D01*
X026841Y010832D02*
X026014Y010832D01*
X026014Y010674D02*
X027000Y010674D01*
X027159Y010515D02*
X026014Y010515D01*
X026014Y010356D02*
X027317Y010356D01*
X027476Y010198D02*
X026014Y010198D01*
X026014Y010039D02*
X027634Y010039D01*
X027784Y009881D02*
X026014Y009881D01*
X026014Y009722D02*
X027819Y009722D01*
X027940Y009564D02*
X026014Y009564D01*
X025454Y007978D02*
X025087Y007978D01*
X025143Y007923D02*
X025143Y007923D01*
X025231Y007820D02*
X025454Y007820D01*
X025454Y007661D02*
X025264Y007661D01*
X025264Y007503D02*
X025454Y007503D01*
X025454Y007344D02*
X025264Y007344D01*
X025264Y007186D02*
X025454Y007186D01*
X025546Y007027D02*
X025264Y007027D01*
X025264Y006869D02*
X025705Y006869D01*
X025864Y006710D02*
X025264Y006710D01*
X025264Y006551D02*
X026022Y006551D01*
X026181Y006393D02*
X025264Y006393D01*
X025264Y006234D02*
X026339Y006234D01*
X026584Y006385D02*
X025734Y007235D01*
X026641Y006724D02*
X026700Y006665D01*
X028198Y006665D01*
X028258Y006724D01*
X028405Y006785D01*
X028564Y006785D01*
X028711Y006724D01*
X028823Y006612D01*
X028879Y006476D01*
X039204Y016801D01*
X039204Y017611D01*
X039182Y017589D01*
X039021Y017522D01*
X038847Y017522D01*
X038686Y017589D01*
X038563Y017712D01*
X038496Y017873D01*
X038496Y018047D01*
X038563Y018209D01*
X038639Y018285D01*
X038639Y022315D01*
X038289Y022315D01*
X038504Y022101D01*
X038504Y021670D01*
X038199Y021365D01*
X037769Y021365D01*
X037464Y021670D01*
X037464Y022101D01*
X037679Y022315D01*
X037233Y022315D01*
X037464Y022084D01*
X037464Y021687D01*
X037183Y021405D01*
X036785Y021405D01*
X036504Y021687D01*
X036504Y022084D01*
X036735Y022315D01*
X031642Y022315D01*
X031115Y021789D01*
X031031Y021754D01*
X031123Y021662D01*
X031184Y021515D01*
X031184Y021356D01*
X031123Y021209D01*
X031011Y021096D01*
X030936Y021065D01*
X033276Y021065D01*
X033334Y021123D01*
X033480Y021183D01*
X033638Y021183D01*
X033785Y021123D01*
X033897Y021011D01*
X033957Y020865D01*
X033957Y020706D01*
X033920Y020615D01*
X034201Y020615D01*
X034259Y020673D01*
X034405Y020733D01*
X034563Y020733D01*
X034710Y020673D01*
X034822Y020561D01*
X034882Y020415D01*
X034882Y020256D01*
X034824Y020115D01*
X036278Y020115D01*
X036390Y020115D01*
X036493Y020073D01*
X036504Y020061D01*
X036504Y020084D01*
X036785Y020365D01*
X037183Y020365D01*
X037464Y020084D01*
X037464Y019761D01*
X037504Y019801D01*
X037504Y020084D01*
X037785Y020365D01*
X038183Y020365D01*
X038464Y020084D01*
X038464Y019687D01*
X038183Y019405D01*
X037900Y019405D01*
X037643Y019148D01*
X037540Y019105D01*
X037428Y019105D01*
X036728Y019105D01*
X036626Y019148D01*
X036547Y019227D01*
X036218Y019555D01*
X034865Y019555D01*
X034882Y019515D01*
X034882Y019356D01*
X034822Y019210D01*
X034764Y019152D01*
X034764Y016911D01*
X034767Y016909D01*
X034908Y016769D01*
X034984Y016585D01*
X034984Y016051D01*
X035827Y016895D01*
X035961Y016950D01*
X036107Y016950D01*
X038027Y016950D01*
X038035Y016958D01*
X038197Y017025D01*
X038372Y017025D01*
X038533Y016958D01*
X038657Y016835D01*
X038724Y016673D01*
X038724Y016498D01*
X038657Y016336D01*
X038533Y016212D01*
X038372Y016145D01*
X038197Y016145D01*
X038035Y016212D01*
X038027Y016220D01*
X036185Y016220D01*
X034794Y014829D01*
X034691Y014726D01*
X034557Y014670D01*
X033799Y014670D01*
X033799Y013008D01*
X033799Y012863D01*
X033744Y012729D01*
X027944Y006929D01*
X027841Y006826D01*
X027707Y006770D01*
X026741Y006770D01*
X026733Y006762D01*
X026641Y006724D01*
X026655Y006710D02*
X028243Y006710D01*
X028042Y007027D02*
X029430Y007027D01*
X029271Y006869D02*
X027884Y006869D01*
X028201Y007186D02*
X029588Y007186D01*
X029747Y007344D02*
X028359Y007344D01*
X028518Y007503D02*
X029906Y007503D01*
X030064Y007661D02*
X028676Y007661D01*
X028835Y007820D02*
X030223Y007820D01*
X030381Y007978D02*
X028993Y007978D01*
X029152Y008137D02*
X030540Y008137D01*
X030698Y008295D02*
X029310Y008295D01*
X029469Y008454D02*
X030857Y008454D01*
X031015Y008613D02*
X029627Y008613D01*
X029786Y008771D02*
X031174Y008771D01*
X031332Y008930D02*
X029945Y008930D01*
X030103Y009088D02*
X031491Y009088D01*
X031650Y009247D02*
X030262Y009247D01*
X030420Y009405D02*
X031808Y009405D01*
X031967Y009564D02*
X030579Y009564D01*
X030737Y009722D02*
X032125Y009722D01*
X032284Y009881D02*
X030896Y009881D01*
X031054Y010039D02*
X032442Y010039D01*
X032601Y010198D02*
X031213Y010198D01*
X031371Y010356D02*
X032759Y010356D01*
X032918Y010515D02*
X031530Y010515D01*
X031689Y010674D02*
X033076Y010674D01*
X033235Y010832D02*
X031847Y010832D01*
X032006Y010991D02*
X033394Y010991D01*
X033552Y011149D02*
X032164Y011149D01*
X032323Y011308D02*
X033711Y011308D01*
X033869Y011466D02*
X032481Y011466D01*
X032640Y011625D02*
X034028Y011625D01*
X034186Y011783D02*
X032798Y011783D01*
X032957Y011942D02*
X034345Y011942D01*
X034503Y012100D02*
X033115Y012100D01*
X033274Y012259D02*
X034662Y012259D01*
X034820Y012418D02*
X033433Y012418D01*
X033591Y012576D02*
X034979Y012576D01*
X035137Y012735D02*
X033746Y012735D01*
X033799Y012893D02*
X035296Y012893D01*
X035455Y013052D02*
X033799Y013052D01*
X033799Y013210D02*
X035613Y013210D01*
X035772Y013369D02*
X033799Y013369D01*
X033799Y013527D02*
X035930Y013527D01*
X036089Y013686D02*
X033799Y013686D01*
X033799Y013844D02*
X036247Y013844D01*
X036406Y014003D02*
X033799Y014003D01*
X033799Y014162D02*
X036564Y014162D01*
X036723Y014320D02*
X033799Y014320D01*
X033799Y014479D02*
X036881Y014479D01*
X037040Y014637D02*
X033799Y014637D01*
X033741Y015400D02*
X034333Y015400D01*
X034338Y015405D01*
X034201Y015461D01*
X034060Y015602D01*
X033984Y015786D01*
X033908Y015602D01*
X033767Y015461D01*
X033686Y015428D01*
X033733Y015408D01*
X033741Y015400D01*
X033691Y015430D02*
X034277Y015430D01*
X034074Y015588D02*
X033894Y015588D01*
X033968Y015747D02*
X034000Y015747D01*
X033984Y015786D02*
X033984Y016585D01*
X034060Y016769D01*
X034201Y016909D01*
X034204Y016911D01*
X034204Y019152D01*
X034147Y019210D01*
X034086Y019356D01*
X034086Y019515D01*
X034103Y019555D01*
X033802Y019555D01*
X033872Y019486D01*
X033932Y019340D01*
X033932Y019181D01*
X033872Y019035D01*
X033764Y018927D01*
X033764Y016911D01*
X033767Y016909D01*
X033908Y016769D01*
X033984Y016585D01*
X033984Y015786D01*
X033984Y015906D02*
X033984Y015906D01*
X033984Y016064D02*
X033984Y016064D01*
X033984Y016223D02*
X033984Y016223D01*
X033984Y016381D02*
X033984Y016381D01*
X033984Y016540D02*
X033984Y016540D01*
X034031Y016698D02*
X033937Y016698D01*
X033820Y016857D02*
X034148Y016857D01*
X034204Y017015D02*
X033764Y017015D01*
X033764Y017174D02*
X034204Y017174D01*
X034204Y017332D02*
X033764Y017332D01*
X033764Y017491D02*
X034204Y017491D01*
X034204Y017649D02*
X033764Y017649D01*
X033764Y017808D02*
X034204Y017808D01*
X034204Y017967D02*
X033764Y017967D01*
X033764Y018125D02*
X034204Y018125D01*
X034204Y018284D02*
X033764Y018284D01*
X033764Y018442D02*
X034204Y018442D01*
X034204Y018601D02*
X033764Y018601D01*
X033764Y018759D02*
X034204Y018759D01*
X034204Y018918D02*
X033764Y018918D01*
X033889Y019076D02*
X034204Y019076D01*
X034136Y019235D02*
X033932Y019235D01*
X033910Y019393D02*
X034086Y019393D01*
X034102Y019552D02*
X033805Y019552D01*
X033534Y019260D02*
X033484Y019210D01*
X033484Y016185D01*
X032484Y016185D02*
X032484Y016235D01*
X027684Y021035D01*
X027541Y020662D02*
X027454Y020662D01*
X027340Y020820D02*
X027295Y020820D01*
X027284Y020979D02*
X027128Y020979D01*
X027293Y021137D02*
X025891Y021137D01*
X025897Y020979D02*
X026062Y020979D01*
X025986Y020820D02*
X025844Y020820D01*
X025984Y020662D02*
X025702Y020662D01*
X026051Y020503D02*
X024862Y020503D01*
X025021Y020345D02*
X026282Y020345D01*
X026486Y020345D02*
X026979Y020345D01*
X027137Y020186D02*
X025179Y020186D01*
X025338Y020028D02*
X026986Y020028D01*
X027182Y020028D02*
X027296Y020028D01*
X027416Y019869D02*
X027454Y019869D01*
X027484Y019711D02*
X027613Y019711D01*
X027563Y019552D02*
X027772Y019552D01*
X027722Y019393D02*
X027930Y019393D01*
X027880Y019235D02*
X028089Y019235D01*
X028039Y019076D02*
X028247Y019076D01*
X028198Y018918D02*
X028406Y018918D01*
X028356Y018759D02*
X028564Y018759D01*
X028515Y018601D02*
X028723Y018601D01*
X028673Y018442D02*
X028881Y018442D01*
X028832Y018284D02*
X029040Y018284D01*
X028990Y018125D02*
X029198Y018125D01*
X029149Y017967D02*
X029357Y017967D01*
X029307Y017808D02*
X029516Y017808D01*
X029466Y017649D02*
X029674Y017649D01*
X029624Y017491D02*
X029833Y017491D01*
X030149Y017967D02*
X030357Y017967D01*
X030307Y017808D02*
X030515Y017808D01*
X030466Y017649D02*
X030674Y017649D01*
X030624Y017491D02*
X030833Y017491D01*
X031307Y017808D02*
X033204Y017808D01*
X033204Y017649D02*
X031466Y017649D01*
X031624Y017491D02*
X033204Y017491D01*
X033204Y017967D02*
X031149Y017967D01*
X030990Y018125D02*
X033204Y018125D01*
X033204Y018284D02*
X030832Y018284D01*
X030673Y018442D02*
X033204Y018442D01*
X033204Y018601D02*
X030515Y018601D01*
X030356Y018759D02*
X033204Y018759D01*
X033204Y018918D02*
X030198Y018918D01*
X030039Y019076D02*
X033179Y019076D01*
X033136Y019235D02*
X029880Y019235D01*
X029722Y019393D02*
X033158Y019393D01*
X033263Y019552D02*
X029766Y019552D01*
X029484Y019835D02*
X036334Y019835D01*
X036784Y019385D01*
X037484Y019385D01*
X037984Y019885D01*
X038330Y019552D02*
X038639Y019552D01*
X038639Y019711D02*
X038464Y019711D01*
X038464Y019869D02*
X038639Y019869D01*
X038639Y020028D02*
X038464Y020028D01*
X038362Y020186D02*
X038639Y020186D01*
X038639Y020345D02*
X038204Y020345D01*
X038183Y020405D02*
X037785Y020405D01*
X037504Y020687D01*
X037504Y021084D01*
X037785Y021365D01*
X038183Y021365D01*
X038464Y021084D01*
X038464Y020687D01*
X038183Y020405D01*
X038281Y020503D02*
X038639Y020503D01*
X038639Y020662D02*
X038439Y020662D01*
X038464Y020820D02*
X038639Y020820D01*
X038639Y020979D02*
X038464Y020979D01*
X038411Y021137D02*
X038639Y021137D01*
X038639Y021296D02*
X038252Y021296D01*
X038289Y021455D02*
X038639Y021455D01*
X038639Y021613D02*
X038447Y021613D01*
X038504Y021772D02*
X038639Y021772D01*
X038639Y021930D02*
X038504Y021930D01*
X038504Y022089D02*
X038639Y022089D01*
X038639Y022247D02*
X038358Y022247D01*
X038934Y022635D02*
X038959Y022660D01*
X038959Y017985D01*
X038934Y017960D01*
X038625Y017649D02*
X034764Y017649D01*
X034764Y017491D02*
X039204Y017491D01*
X039204Y017332D02*
X034764Y017332D01*
X034764Y017174D02*
X039204Y017174D01*
X039204Y017015D02*
X038396Y017015D01*
X038172Y017015D02*
X034764Y017015D01*
X034820Y016857D02*
X035789Y016857D01*
X035631Y016698D02*
X034937Y016698D01*
X034984Y016540D02*
X035472Y016540D01*
X035314Y016381D02*
X034984Y016381D01*
X034984Y016223D02*
X035155Y016223D01*
X034997Y016064D02*
X034984Y016064D01*
X034484Y016185D02*
X034484Y019435D01*
X034867Y019552D02*
X036221Y019552D01*
X036380Y019393D02*
X034882Y019393D01*
X034832Y019235D02*
X036539Y019235D01*
X037464Y019869D02*
X037504Y019869D01*
X037504Y020028D02*
X037464Y020028D01*
X037362Y020186D02*
X037606Y020186D01*
X037765Y020345D02*
X037204Y020345D01*
X037183Y020405D02*
X036785Y020405D01*
X036504Y020687D01*
X036504Y021084D01*
X036785Y021365D01*
X037183Y021365D01*
X037464Y021084D01*
X037464Y020687D01*
X037183Y020405D01*
X037281Y020503D02*
X037687Y020503D01*
X037529Y020662D02*
X037439Y020662D01*
X037464Y020820D02*
X037504Y020820D01*
X037504Y020979D02*
X037464Y020979D01*
X037411Y021137D02*
X037557Y021137D01*
X037716Y021296D02*
X037252Y021296D01*
X037232Y021455D02*
X037680Y021455D01*
X037521Y021613D02*
X037391Y021613D01*
X037464Y021772D02*
X037464Y021772D01*
X037464Y021930D02*
X037464Y021930D01*
X037464Y022089D02*
X037459Y022089D01*
X037611Y022247D02*
X037301Y022247D01*
X036667Y022247D02*
X031574Y022247D01*
X031415Y022089D02*
X036509Y022089D01*
X036504Y021930D02*
X031256Y021930D01*
X031073Y021772D02*
X036504Y021772D01*
X036578Y021613D02*
X031143Y021613D01*
X031184Y021455D02*
X036736Y021455D01*
X036716Y021296D02*
X031159Y021296D01*
X031052Y021137D02*
X033369Y021137D01*
X033749Y021137D02*
X036557Y021137D01*
X036504Y020979D02*
X033910Y020979D01*
X033957Y020820D02*
X036504Y020820D01*
X036529Y020662D02*
X034721Y020662D01*
X034845Y020503D02*
X036687Y020503D01*
X036765Y020345D02*
X034882Y020345D01*
X034853Y020186D02*
X036606Y020186D01*
X037730Y019235D02*
X038639Y019235D01*
X038639Y019393D02*
X037888Y019393D01*
X038639Y019076D02*
X034764Y019076D01*
X034764Y018918D02*
X038639Y018918D01*
X038639Y018759D02*
X034764Y018759D01*
X034764Y018601D02*
X038639Y018601D01*
X038639Y018442D02*
X034764Y018442D01*
X034764Y018284D02*
X038638Y018284D01*
X038528Y018125D02*
X034764Y018125D01*
X034764Y017967D02*
X038496Y017967D01*
X038523Y017808D02*
X034764Y017808D01*
X036029Y016064D02*
X038467Y016064D01*
X038544Y016223D02*
X038625Y016223D01*
X038676Y016381D02*
X038784Y016381D01*
X038724Y016540D02*
X038943Y016540D01*
X039101Y016698D02*
X038714Y016698D01*
X038635Y016857D02*
X039204Y016857D01*
X039764Y016857D02*
X040389Y016857D01*
X040389Y017015D02*
X039764Y017015D01*
X039764Y017174D02*
X040389Y017174D01*
X040389Y017332D02*
X039764Y017332D01*
X039764Y017491D02*
X040389Y017491D01*
X040389Y017649D02*
X039764Y017649D01*
X039764Y017808D02*
X040389Y017808D01*
X040389Y017967D02*
X039764Y017967D01*
X039764Y018125D02*
X040389Y018125D01*
X040389Y018284D02*
X039764Y018284D01*
X039764Y018442D02*
X040389Y018442D01*
X040389Y018601D02*
X039764Y018601D01*
X039764Y018759D02*
X040389Y018759D01*
X040389Y018918D02*
X039764Y018918D01*
X039764Y019076D02*
X040389Y019076D01*
X040389Y019235D02*
X039764Y019235D01*
X039764Y019393D02*
X040389Y019393D01*
X040389Y019552D02*
X039764Y019552D01*
X039764Y019711D02*
X040389Y019711D01*
X040389Y019869D02*
X039764Y019869D01*
X039764Y020028D02*
X040389Y020028D01*
X040389Y020186D02*
X039764Y020186D01*
X039764Y020345D02*
X040389Y020345D01*
X040389Y020503D02*
X039764Y020503D01*
X039764Y020662D02*
X040389Y020662D01*
X040389Y020820D02*
X039764Y020820D01*
X039764Y020979D02*
X040389Y020979D01*
X040389Y021137D02*
X039764Y021137D01*
X039764Y021296D02*
X040389Y021296D01*
X040389Y021455D02*
X039764Y021455D01*
X039764Y021613D02*
X040389Y021613D01*
X040389Y021772D02*
X039764Y021772D01*
X039764Y021930D02*
X040389Y021930D01*
X040389Y022089D02*
X039764Y022089D01*
X039764Y022247D02*
X040389Y022247D01*
X040389Y022406D02*
X039764Y022406D01*
X039764Y022564D02*
X040389Y022564D01*
X040389Y022723D02*
X039764Y022723D01*
X039764Y022881D02*
X040389Y022881D01*
X040389Y023040D02*
X039764Y023040D01*
X039764Y023199D02*
X040389Y023199D01*
X040389Y023357D02*
X039764Y023357D01*
X039764Y023516D02*
X040389Y023516D01*
X040389Y023674D02*
X039764Y023674D01*
X039764Y023833D02*
X040389Y023833D01*
X040389Y023991D02*
X039764Y023991D01*
X039764Y024150D02*
X040389Y024150D01*
X040389Y024308D02*
X039764Y024308D01*
X039764Y024467D02*
X040389Y024467D01*
X040389Y024625D02*
X039764Y024625D01*
X039764Y024784D02*
X040389Y024784D01*
X040389Y024942D02*
X039764Y024942D01*
X039764Y025101D02*
X040389Y025101D01*
X040389Y025260D02*
X039764Y025260D01*
X039764Y025418D02*
X040389Y025418D01*
X040389Y025577D02*
X039764Y025577D01*
X039764Y025735D02*
X040389Y025735D01*
X040389Y025894D02*
X039764Y025894D01*
X039764Y026052D02*
X040389Y026052D01*
X040389Y026211D02*
X039764Y026211D01*
X039764Y026369D02*
X040389Y026369D01*
X040389Y026528D02*
X039764Y026528D01*
X039764Y026686D02*
X040389Y026686D01*
X040389Y026845D02*
X039764Y026845D01*
X039764Y027004D02*
X040389Y027004D01*
X040389Y027162D02*
X039764Y027162D01*
X039764Y027321D02*
X040389Y027321D01*
X040389Y027479D02*
X039764Y027479D01*
X039764Y027638D02*
X040389Y027638D01*
X040389Y027796D02*
X039764Y027796D01*
X039764Y027955D02*
X040389Y027955D01*
X040389Y028113D02*
X039764Y028113D01*
X039764Y028272D02*
X040389Y028272D01*
X040389Y028430D02*
X039764Y028430D01*
X039764Y028589D02*
X040389Y028589D01*
X040389Y028748D02*
X039764Y028748D01*
X039764Y028906D02*
X040389Y028906D01*
X040389Y029065D02*
X039764Y029065D01*
X039764Y029223D02*
X040389Y029223D01*
X040389Y029382D02*
X039764Y029382D01*
X039764Y029540D02*
X040389Y029540D01*
X040389Y029699D02*
X039764Y029699D01*
X039764Y029857D02*
X040389Y029857D01*
X040389Y030016D02*
X039764Y030016D01*
X039764Y030174D02*
X040389Y030174D01*
X040389Y030333D02*
X039764Y030333D01*
X039764Y030491D02*
X040389Y030491D01*
X040389Y030650D02*
X039764Y030650D01*
X039736Y030809D02*
X040389Y030809D01*
X040389Y030967D02*
X037598Y030967D01*
X037440Y031126D02*
X038613Y031126D01*
X038620Y031121D02*
X038620Y031121D01*
X038339Y031284D02*
X037281Y031284D01*
X037123Y031443D02*
X038121Y031443D01*
X037974Y031601D02*
X036964Y031601D01*
X036806Y031760D02*
X037836Y031760D01*
X037846Y031739D02*
X037846Y031739D01*
X037760Y031918D02*
X036647Y031918D01*
X036488Y032077D02*
X037683Y032077D01*
X037629Y032190D02*
X037629Y032190D01*
X037622Y032235D02*
X036330Y032235D01*
X036171Y032394D02*
X037598Y032394D01*
X037574Y032553D02*
X036013Y032553D01*
X035854Y032711D02*
X037558Y032711D01*
X037554Y032685D02*
X037554Y032685D01*
X037582Y032870D02*
X035696Y032870D01*
X035537Y033028D02*
X037606Y033028D01*
X037632Y033187D02*
X035379Y033187D01*
X035220Y033345D02*
X037708Y033345D01*
X036164Y031609D02*
X036164Y027641D01*
X036164Y027530D01*
X036121Y027427D01*
X034984Y026289D01*
X034984Y025786D01*
X034908Y025602D01*
X034767Y025461D01*
X034584Y025385D01*
X034385Y025385D01*
X034201Y025461D01*
X034060Y025602D01*
X033984Y025786D01*
X033908Y025602D01*
X033767Y025461D01*
X033584Y025385D01*
X033385Y025385D01*
X033201Y025461D01*
X033060Y025602D01*
X032984Y025786D01*
X032908Y025602D01*
X032767Y025461D01*
X032584Y025385D01*
X032385Y025385D01*
X032201Y025461D01*
X032060Y025602D01*
X031984Y025786D01*
X031908Y025602D01*
X031767Y025461D01*
X031584Y025385D01*
X031385Y025385D01*
X031201Y025461D01*
X031060Y025602D01*
X030984Y025786D01*
X030908Y025602D01*
X030767Y025461D01*
X030584Y025385D01*
X030385Y025385D01*
X030201Y025461D01*
X030060Y025602D01*
X029984Y025786D01*
X029908Y025602D01*
X029767Y025461D01*
X029584Y025385D01*
X029385Y025385D01*
X029201Y025461D01*
X029060Y025602D01*
X028984Y025786D01*
X028908Y025602D01*
X028767Y025461D01*
X028764Y025460D01*
X028764Y024705D01*
X028721Y024602D01*
X028643Y024523D01*
X026993Y022873D01*
X026890Y022830D01*
X026778Y022830D01*
X026017Y022830D01*
X025960Y022773D01*
X025813Y022712D01*
X025655Y022712D01*
X025509Y022773D01*
X025397Y022885D01*
X025336Y023031D01*
X025336Y023190D01*
X025397Y023336D01*
X025509Y023448D01*
X025655Y023508D01*
X025813Y023508D01*
X025960Y023448D01*
X026017Y023390D01*
X026718Y023390D01*
X028204Y024876D01*
X028204Y025460D01*
X028201Y025461D01*
X028060Y025602D01*
X027984Y025786D01*
X027908Y025602D01*
X027767Y025461D01*
X027584Y025385D01*
X027385Y025385D01*
X027201Y025461D01*
X027060Y025602D01*
X026984Y025786D01*
X026908Y025602D01*
X026767Y025461D01*
X026584Y025385D01*
X026385Y025385D01*
X026201Y025461D01*
X026060Y025602D01*
X025984Y025786D01*
X025984Y025922D01*
X025708Y025645D01*
X025260Y025645D01*
X024944Y025962D01*
X024944Y026409D01*
X025119Y026584D01*
X025119Y028384D01*
X023785Y029718D01*
X023783Y029720D01*
X022311Y029720D01*
X022177Y029776D01*
X022075Y029879D01*
X021788Y030165D01*
X021369Y030165D01*
X021064Y030470D01*
X021064Y030901D01*
X021369Y031205D01*
X021799Y031205D01*
X022104Y030901D01*
X022104Y030882D01*
X022104Y030881D01*
X022104Y030884D01*
X022385Y031165D01*
X022783Y031165D01*
X023064Y030884D01*
X023064Y030487D01*
X023028Y030450D01*
X023140Y030450D01*
X023104Y030487D01*
X023104Y030884D01*
X023197Y030977D01*
X022926Y031248D01*
X022876Y031298D01*
X022783Y031205D01*
X022385Y031205D01*
X022104Y031487D01*
X022104Y031884D01*
X022385Y032165D01*
X022783Y032165D01*
X022876Y032073D01*
X023497Y032694D01*
X023576Y032773D01*
X023678Y032815D01*
X025828Y032815D01*
X025940Y032815D01*
X026043Y032773D01*
X029643Y029173D01*
X029721Y029094D01*
X029764Y028991D01*
X029764Y026911D01*
X029767Y026909D01*
X029908Y026769D01*
X029984Y026585D01*
X030060Y026769D01*
X030201Y026909D01*
X030204Y026911D01*
X030204Y031591D01*
X030247Y031694D01*
X030326Y031773D01*
X030976Y032423D01*
X031078Y032465D01*
X031190Y032465D01*
X031590Y032465D01*
X031693Y032423D01*
X031771Y032344D01*
X032043Y032073D01*
X032135Y032165D01*
X032533Y032165D01*
X032814Y031884D01*
X032814Y031487D01*
X032533Y031205D01*
X032135Y031205D01*
X031905Y031436D01*
X031876Y031448D01*
X031814Y031509D01*
X031814Y031487D01*
X031533Y031205D01*
X031135Y031205D01*
X030854Y031487D01*
X030854Y031509D01*
X030764Y031419D01*
X030764Y026911D01*
X030767Y026909D01*
X030908Y026769D01*
X030984Y026585D01*
X030984Y025786D01*
X030984Y026585D01*
X031060Y026769D01*
X031201Y026909D01*
X031385Y026985D01*
X031584Y026985D01*
X031767Y026909D01*
X031908Y026769D01*
X031984Y026585D01*
X031984Y025786D01*
X031984Y026585D01*
X032060Y026769D01*
X032201Y026909D01*
X032385Y026985D01*
X032584Y026985D01*
X032767Y026909D01*
X032908Y026769D01*
X032984Y026585D01*
X032984Y025786D01*
X032984Y026585D01*
X033060Y026769D01*
X033201Y026909D01*
X033385Y026985D01*
X033584Y026985D01*
X033767Y026909D01*
X033908Y026769D01*
X033984Y026585D01*
X033984Y025786D01*
X033984Y026585D01*
X034060Y026769D01*
X034201Y026909D01*
X034385Y026985D01*
X034584Y026985D01*
X034767Y026909D01*
X034790Y026887D01*
X035604Y027701D01*
X035604Y030220D01*
X035549Y030165D01*
X035119Y030165D01*
X034834Y030450D01*
X034549Y030165D01*
X034330Y030165D01*
X033941Y029776D01*
X033807Y029720D01*
X033661Y029720D01*
X032061Y029720D01*
X031927Y029776D01*
X031825Y029879D01*
X031538Y030165D01*
X031119Y030165D01*
X030814Y030470D01*
X030814Y030901D01*
X031119Y031205D01*
X031549Y031205D01*
X031854Y030901D01*
X031854Y030882D01*
X031854Y030881D01*
X031854Y030884D01*
X032135Y031165D01*
X032533Y031165D01*
X032814Y030884D01*
X032814Y030487D01*
X032778Y030450D01*
X032890Y030450D01*
X032854Y030487D01*
X032854Y030884D01*
X033135Y031165D01*
X033533Y031165D01*
X033814Y030884D01*
X033814Y030681D01*
X033814Y030682D01*
X033814Y030901D01*
X034119Y031205D01*
X034549Y031205D01*
X034834Y030921D01*
X035099Y031185D01*
X034814Y031470D01*
X034814Y031519D01*
X034814Y031487D01*
X034533Y031205D01*
X034135Y031205D01*
X033854Y031487D01*
X033854Y031884D01*
X034135Y032165D01*
X034533Y032165D01*
X034601Y032098D01*
X034897Y032394D01*
X031721Y032394D01*
X031880Y032235D02*
X034738Y032235D01*
X034897Y032394D02*
X034976Y032473D01*
X035078Y032515D01*
X035258Y032515D01*
X034868Y032905D01*
X016486Y032905D01*
X016561Y032874D01*
X016673Y032762D01*
X016734Y032615D01*
X016734Y032531D01*
X021593Y027673D01*
X021671Y027594D01*
X021714Y027491D01*
X021714Y026931D01*
X021767Y026909D01*
X021908Y026769D01*
X021984Y026585D01*
X022060Y026769D01*
X022201Y026909D01*
X022385Y026985D01*
X022584Y026985D01*
X022767Y026909D01*
X022908Y026769D01*
X022984Y026585D01*
X023060Y026769D01*
X023201Y026909D01*
X023385Y026985D01*
X023584Y026985D01*
X023767Y026909D01*
X023908Y026769D01*
X023984Y026585D01*
X023984Y025786D01*
X023908Y025602D01*
X023767Y025461D01*
X023584Y025385D01*
X023385Y025385D01*
X023201Y025461D01*
X023060Y025602D01*
X022984Y025786D01*
X022908Y025602D01*
X022767Y025461D01*
X022584Y025385D01*
X022385Y025385D01*
X022201Y025461D01*
X022060Y025602D01*
X021984Y025786D01*
X021908Y025602D01*
X021767Y025461D01*
X021584Y025385D01*
X021385Y025385D01*
X021205Y025460D01*
X013564Y017819D01*
X013564Y017437D01*
X013513Y017385D01*
X013564Y017385D01*
X013711Y017324D01*
X013823Y017212D01*
X013884Y017065D01*
X013884Y016906D01*
X013823Y016759D01*
X013711Y016646D01*
X013564Y016585D01*
X013405Y016585D01*
X013258Y016646D01*
X013198Y016705D01*
X011650Y016705D01*
X009223Y014278D01*
X009233Y014269D01*
X009309Y014085D01*
X009309Y013886D01*
X009259Y013765D01*
X009678Y013765D01*
X009659Y013811D01*
X009659Y014010D01*
X009735Y014194D01*
X009876Y014334D01*
X010060Y014410D01*
X010859Y014410D01*
X011042Y014334D01*
X011183Y014194D01*
X011259Y014010D01*
X011259Y013811D01*
X011185Y013631D01*
X011684Y013131D01*
X011710Y013194D01*
X011851Y013334D01*
X012035Y013410D01*
X011851Y013486D01*
X011710Y013627D01*
X011634Y013811D01*
X011634Y014010D01*
X011710Y014194D01*
X011851Y014334D01*
X012035Y014410D01*
X012263Y014410D01*
X012276Y014423D01*
X017099Y019246D01*
X016946Y019309D01*
X016816Y019438D01*
X016746Y019607D01*
X016746Y019790D01*
X016816Y019959D01*
X016946Y020089D01*
X017115Y020159D01*
X017298Y020159D01*
X017467Y020089D01*
X017596Y019959D01*
X017660Y019807D01*
X018442Y020589D01*
X018289Y020652D01*
X018160Y020782D01*
X018090Y020951D01*
X018090Y021134D01*
X018160Y021303D01*
X018289Y021432D01*
X018458Y021502D01*
X018641Y021502D01*
X018810Y021432D01*
X018940Y021303D01*
X019003Y021150D01*
X019526Y021673D01*
X019628Y021715D01*
X019740Y021715D01*
X023699Y021715D01*
X023661Y021806D01*
X023661Y021965D01*
X023722Y022111D01*
X023829Y022218D01*
X023829Y022577D01*
X023772Y022635D01*
X023711Y022781D01*
X023711Y022940D01*
X023772Y023086D01*
X023884Y023198D01*
X024030Y023258D01*
X024188Y023258D01*
X024335Y023198D01*
X024447Y023086D01*
X024507Y022940D01*
X024507Y022781D01*
X024447Y022635D01*
X024389Y022577D01*
X024389Y022118D01*
X024397Y022111D01*
X024457Y021965D01*
X024457Y021806D01*
X024420Y021715D01*
X029935Y021715D01*
X029838Y021812D01*
X029771Y021973D01*
X029771Y022147D01*
X029838Y022309D01*
X029961Y022432D01*
X030122Y022498D01*
X030296Y022498D01*
X030457Y022432D01*
X030509Y022380D01*
X030802Y022380D01*
X031238Y022817D01*
X031328Y022907D01*
X031445Y022955D01*
X038835Y022955D01*
X038895Y022980D01*
X039023Y022980D01*
X039140Y022932D01*
X039204Y022868D01*
X039204Y030405D01*
X037540Y030405D01*
X037428Y030405D01*
X037326Y030448D01*
X036164Y031609D01*
X036164Y031601D02*
X036172Y031601D01*
X036164Y031443D02*
X036331Y031443D01*
X036489Y031284D02*
X036164Y031284D01*
X036164Y031126D02*
X036648Y031126D01*
X036806Y030967D02*
X036164Y030967D01*
X036164Y030809D02*
X036965Y030809D01*
X037124Y030650D02*
X036164Y030650D01*
X036164Y030491D02*
X037282Y030491D01*
X036164Y030333D02*
X039204Y030333D01*
X039204Y030174D02*
X036164Y030174D01*
X036164Y030016D02*
X039204Y030016D01*
X039204Y029857D02*
X036164Y029857D01*
X036164Y029699D02*
X039204Y029699D01*
X039204Y029540D02*
X036164Y029540D01*
X036164Y029382D02*
X039204Y029382D01*
X039204Y029223D02*
X036164Y029223D01*
X036164Y029065D02*
X039204Y029065D01*
X039204Y028906D02*
X036164Y028906D01*
X036164Y028748D02*
X039204Y028748D01*
X039204Y028589D02*
X036164Y028589D01*
X036164Y028430D02*
X039204Y028430D01*
X039204Y028272D02*
X036164Y028272D01*
X036164Y028113D02*
X039204Y028113D01*
X039204Y027955D02*
X036164Y027955D01*
X036164Y027796D02*
X039204Y027796D01*
X039204Y027638D02*
X036164Y027638D01*
X036143Y027479D02*
X039204Y027479D01*
X039204Y027321D02*
X036015Y027321D01*
X035857Y027162D02*
X039204Y027162D01*
X039204Y027004D02*
X035698Y027004D01*
X035540Y026845D02*
X039204Y026845D01*
X039204Y026686D02*
X035381Y026686D01*
X035223Y026528D02*
X039204Y026528D01*
X039204Y026369D02*
X035064Y026369D01*
X034984Y026211D02*
X039204Y026211D01*
X039204Y026052D02*
X034984Y026052D01*
X034984Y025894D02*
X039204Y025894D01*
X039204Y025735D02*
X034963Y025735D01*
X034883Y025577D02*
X039204Y025577D01*
X039204Y025418D02*
X034663Y025418D01*
X034306Y025418D02*
X033663Y025418D01*
X033883Y025577D02*
X034086Y025577D01*
X034005Y025735D02*
X033963Y025735D01*
X033984Y025894D02*
X033984Y025894D01*
X033984Y026052D02*
X033984Y026052D01*
X033984Y026211D02*
X033984Y026211D01*
X033984Y026369D02*
X033984Y026369D01*
X033984Y026528D02*
X033984Y026528D01*
X034026Y026686D02*
X033942Y026686D01*
X033832Y026845D02*
X034137Y026845D01*
X034484Y026185D02*
X035884Y027585D01*
X035884Y031885D01*
X035534Y032235D01*
X035134Y032235D01*
X034584Y031685D01*
X034334Y031685D01*
X033854Y031760D02*
X033814Y031760D01*
X033814Y031884D02*
X033814Y031487D01*
X033533Y031205D01*
X033135Y031205D01*
X032854Y031487D01*
X032854Y031884D01*
X033135Y032165D01*
X033533Y032165D01*
X033814Y031884D01*
X033780Y031918D02*
X033888Y031918D01*
X034047Y032077D02*
X033621Y032077D01*
X033814Y031601D02*
X033854Y031601D01*
X033898Y031443D02*
X033770Y031443D01*
X033612Y031284D02*
X034056Y031284D01*
X034039Y031126D02*
X033573Y031126D01*
X033731Y030967D02*
X033881Y030967D01*
X033814Y030809D02*
X033814Y030809D01*
X033096Y031126D02*
X032573Y031126D01*
X032612Y031284D02*
X033056Y031284D01*
X032898Y031443D02*
X032770Y031443D01*
X032814Y031601D02*
X032854Y031601D01*
X032854Y031760D02*
X032814Y031760D01*
X032780Y031918D02*
X032888Y031918D01*
X033047Y032077D02*
X032621Y032077D01*
X032334Y031685D02*
X032034Y031685D01*
X031534Y032185D01*
X031134Y032185D01*
X030484Y031535D01*
X030484Y026185D01*
X029984Y026211D02*
X029984Y026211D01*
X029984Y026369D02*
X029984Y026369D01*
X029984Y026528D02*
X029984Y026528D01*
X029984Y026585D02*
X029984Y025786D01*
X029984Y026585D01*
X030026Y026686D02*
X029942Y026686D01*
X029832Y026845D02*
X030137Y026845D01*
X030204Y027004D02*
X029764Y027004D01*
X029764Y027162D02*
X030204Y027162D01*
X030204Y027321D02*
X029764Y027321D01*
X029764Y027479D02*
X030204Y027479D01*
X030204Y027638D02*
X029764Y027638D01*
X029764Y027796D02*
X030204Y027796D01*
X030204Y027955D02*
X029764Y027955D01*
X029764Y028113D02*
X030204Y028113D01*
X030204Y028272D02*
X029764Y028272D01*
X029764Y028430D02*
X030204Y028430D01*
X030204Y028589D02*
X029764Y028589D01*
X029764Y028748D02*
X030204Y028748D01*
X030204Y028906D02*
X029764Y028906D01*
X029734Y029065D02*
X030204Y029065D01*
X030204Y029223D02*
X029592Y029223D01*
X029434Y029382D02*
X030204Y029382D01*
X030204Y029540D02*
X029275Y029540D01*
X029117Y029699D02*
X030204Y029699D01*
X030204Y029857D02*
X028958Y029857D01*
X028800Y030016D02*
X030204Y030016D01*
X030204Y030174D02*
X028641Y030174D01*
X028482Y030333D02*
X030204Y030333D01*
X030204Y030491D02*
X028324Y030491D01*
X028165Y030650D02*
X030204Y030650D01*
X030204Y030809D02*
X028007Y030809D01*
X027848Y030967D02*
X030204Y030967D01*
X030204Y031126D02*
X027690Y031126D01*
X027531Y031284D02*
X030204Y031284D01*
X030204Y031443D02*
X027373Y031443D01*
X027214Y031601D02*
X030208Y031601D01*
X030313Y031760D02*
X027056Y031760D01*
X026897Y031918D02*
X030471Y031918D01*
X030630Y032077D02*
X026738Y032077D01*
X026580Y032235D02*
X030788Y032235D01*
X030947Y032394D02*
X026421Y032394D01*
X026263Y032553D02*
X035221Y032553D01*
X035062Y032711D02*
X026104Y032711D01*
X025884Y032535D02*
X029484Y028935D01*
X029484Y026185D01*
X029984Y026052D02*
X029984Y026052D01*
X029984Y025894D02*
X029984Y025894D01*
X030005Y025735D02*
X029963Y025735D01*
X029883Y025577D02*
X030086Y025577D01*
X030306Y025418D02*
X029663Y025418D01*
X029306Y025418D02*
X028764Y025418D01*
X028764Y025260D02*
X039204Y025260D01*
X039204Y025101D02*
X028764Y025101D01*
X028764Y024942D02*
X039204Y024942D01*
X039204Y024784D02*
X028764Y024784D01*
X028731Y024625D02*
X039204Y024625D01*
X039204Y024467D02*
X028587Y024467D01*
X028428Y024308D02*
X039204Y024308D01*
X039204Y024150D02*
X028269Y024150D01*
X028111Y023991D02*
X039204Y023991D01*
X039204Y023833D02*
X027952Y023833D01*
X027794Y023674D02*
X039204Y023674D01*
X039204Y023516D02*
X027635Y023516D01*
X027477Y023357D02*
X039204Y023357D01*
X039204Y023199D02*
X027318Y023199D01*
X027160Y023040D02*
X039204Y023040D01*
X039204Y022881D02*
X039191Y022881D01*
X038934Y022635D02*
X031509Y022635D01*
X030934Y022060D01*
X030209Y022060D01*
X030509Y021740D02*
X030524Y021740D01*
X030498Y021715D01*
X030484Y021715D01*
X030509Y021740D01*
X030784Y021435D02*
X019684Y021435D01*
X012434Y014185D01*
X012434Y013910D01*
X012331Y014479D02*
X009423Y014479D01*
X009582Y014637D02*
X012490Y014637D01*
X012649Y014796D02*
X009740Y014796D01*
X009899Y014954D02*
X012807Y014954D01*
X012966Y015113D02*
X010058Y015113D01*
X010216Y015271D02*
X013124Y015271D01*
X013283Y015430D02*
X010375Y015430D01*
X010533Y015588D02*
X013441Y015588D01*
X013600Y015747D02*
X010692Y015747D01*
X010850Y015906D02*
X013758Y015906D01*
X013917Y016064D02*
X011009Y016064D01*
X011167Y016223D02*
X014075Y016223D01*
X014234Y016381D02*
X011326Y016381D01*
X011484Y016540D02*
X014393Y016540D01*
X014551Y016698D02*
X013763Y016698D01*
X013864Y016857D02*
X014710Y016857D01*
X014868Y017015D02*
X013884Y017015D01*
X013839Y017174D02*
X015027Y017174D01*
X015185Y017332D02*
X013691Y017332D01*
X013564Y017491D02*
X015344Y017491D01*
X015502Y017649D02*
X013564Y017649D01*
X013564Y017808D02*
X015661Y017808D01*
X015819Y017967D02*
X013711Y017967D01*
X013870Y018125D02*
X015978Y018125D01*
X016136Y018284D02*
X014028Y018284D01*
X014187Y018442D02*
X016295Y018442D01*
X016454Y018601D02*
X014345Y018601D01*
X014504Y018759D02*
X016612Y018759D01*
X016771Y018918D02*
X014663Y018918D01*
X014821Y019076D02*
X016929Y019076D01*
X017088Y019235D02*
X014980Y019235D01*
X015138Y019393D02*
X016861Y019393D01*
X016769Y019552D02*
X015297Y019552D01*
X015455Y019711D02*
X016746Y019711D01*
X016779Y019869D02*
X015614Y019869D01*
X015772Y020028D02*
X016885Y020028D01*
X017528Y020028D02*
X017881Y020028D01*
X018039Y020186D02*
X015931Y020186D01*
X016089Y020345D02*
X018198Y020345D01*
X018356Y020503D02*
X016248Y020503D01*
X016407Y020662D02*
X018280Y020662D01*
X018144Y020820D02*
X016565Y020820D01*
X016724Y020979D02*
X018090Y020979D01*
X018091Y021137D02*
X016882Y021137D01*
X017041Y021296D02*
X018157Y021296D01*
X018343Y021455D02*
X017199Y021455D01*
X017358Y021613D02*
X019466Y021613D01*
X019307Y021455D02*
X018757Y021455D01*
X018943Y021296D02*
X019149Y021296D01*
X019624Y020979D02*
X019957Y020979D01*
X019961Y020983D02*
X019961Y021065D01*
X019999Y021155D01*
X019800Y021155D01*
X015616Y016972D01*
X015767Y016909D01*
X015827Y016849D01*
X019961Y020983D01*
X019991Y021137D02*
X019782Y021137D01*
X019798Y020820D02*
X019465Y020820D01*
X019307Y020662D02*
X019640Y020662D01*
X019481Y020503D02*
X019148Y020503D01*
X018989Y020345D02*
X019323Y020345D01*
X019164Y020186D02*
X018831Y020186D01*
X018672Y020028D02*
X019005Y020028D01*
X018847Y019869D02*
X018514Y019869D01*
X018355Y019711D02*
X018688Y019711D01*
X018530Y019552D02*
X018197Y019552D01*
X018038Y019393D02*
X018371Y019393D01*
X018213Y019235D02*
X017880Y019235D01*
X017721Y019076D02*
X018054Y019076D01*
X017896Y018918D02*
X017563Y018918D01*
X017404Y018759D02*
X017737Y018759D01*
X017579Y018601D02*
X017245Y018601D01*
X017087Y018442D02*
X017420Y018442D01*
X017261Y018284D02*
X016928Y018284D01*
X016770Y018125D02*
X017103Y018125D01*
X016944Y017967D02*
X016611Y017967D01*
X016453Y017808D02*
X016786Y017808D01*
X016627Y017649D02*
X016294Y017649D01*
X016136Y017491D02*
X016469Y017491D01*
X016310Y017332D02*
X015977Y017332D01*
X015819Y017174D02*
X016152Y017174D01*
X015993Y017015D02*
X015660Y017015D01*
X015820Y016857D02*
X015835Y016857D01*
X016484Y016810D02*
X016659Y016810D01*
X020884Y021035D01*
X021284Y021035D01*
X021141Y020662D02*
X021092Y020662D01*
X021082Y020686D02*
X021132Y020565D01*
X021132Y020406D01*
X021112Y020358D01*
X021238Y020358D01*
X021385Y020298D01*
X021497Y020186D01*
X021557Y020040D01*
X021557Y019881D01*
X021497Y019735D01*
X021385Y019623D01*
X021238Y019562D01*
X021107Y019562D01*
X021107Y019481D01*
X021087Y019433D01*
X021188Y019433D01*
X021335Y019373D01*
X021447Y019261D01*
X021471Y019202D01*
X021503Y019215D01*
X021576Y019215D01*
X021634Y019273D01*
X021780Y019333D01*
X021938Y019333D01*
X022085Y019273D01*
X022197Y019161D01*
X022257Y019015D01*
X022257Y018856D01*
X022197Y018710D01*
X022085Y018598D01*
X021938Y018537D01*
X021839Y018537D01*
X021839Y016837D01*
X021908Y016769D01*
X021962Y016637D01*
X022026Y016791D01*
X022178Y016943D01*
X022377Y017025D01*
X022592Y017025D01*
X022790Y016943D01*
X022942Y016791D01*
X022984Y016689D01*
X023026Y016791D01*
X023178Y016943D01*
X023377Y017025D01*
X023592Y017025D01*
X023790Y016943D01*
X023942Y016791D01*
X024024Y016593D01*
X024024Y015778D01*
X023942Y015579D01*
X023790Y015428D01*
X023592Y015345D01*
X023377Y015345D01*
X023178Y015428D01*
X023026Y015579D01*
X022984Y015681D01*
X022942Y015579D01*
X022849Y015487D01*
X022849Y014106D01*
X022897Y014125D01*
X023072Y014125D01*
X023233Y014058D01*
X023357Y013935D01*
X023424Y013773D01*
X023424Y013598D01*
X023403Y013547D01*
X023411Y013550D01*
X023557Y013550D01*
X025833Y013550D01*
X027173Y014890D01*
X025020Y014890D01*
X024903Y014939D01*
X024813Y015029D01*
X024738Y015104D01*
X024689Y015222D01*
X024689Y015349D01*
X024689Y017347D01*
X024590Y017305D01*
X024317Y017305D01*
X024260Y017248D01*
X024113Y017187D01*
X023955Y017187D01*
X023809Y017248D01*
X023697Y017360D01*
X023636Y017506D01*
X023636Y017587D01*
X023580Y017587D01*
X023434Y017648D01*
X023322Y017760D01*
X023261Y017906D01*
X023261Y018065D01*
X023322Y018211D01*
X023434Y018323D01*
X023580Y018383D01*
X023661Y018383D01*
X023961Y018683D01*
X023961Y018815D01*
X024022Y018961D01*
X024134Y019073D01*
X024280Y019133D01*
X024438Y019133D01*
X024585Y019073D01*
X024697Y018961D01*
X024757Y018815D01*
X024757Y018804D01*
X025229Y019276D01*
X025229Y019344D01*
X024215Y020359D01*
X024163Y020337D01*
X024005Y020337D01*
X023859Y020398D01*
X023747Y020510D01*
X023741Y020523D01*
X023707Y020489D01*
X023546Y020422D01*
X023372Y020422D01*
X023211Y020489D01*
X023088Y020612D01*
X023021Y020773D01*
X023021Y020947D01*
X023088Y021109D01*
X023135Y021155D01*
X021667Y021155D01*
X021684Y021115D01*
X021684Y020956D01*
X021623Y020809D01*
X021511Y020696D01*
X021364Y020635D01*
X021205Y020635D01*
X021082Y020686D01*
X021132Y020503D02*
X023197Y020503D01*
X023067Y020662D02*
X021428Y020662D01*
X021628Y020820D02*
X023021Y020820D01*
X023034Y020979D02*
X021684Y020979D01*
X021675Y021137D02*
X023117Y021137D01*
X023459Y020860D02*
X023784Y021185D01*
X024309Y021185D01*
X024459Y021035D01*
X025459Y021035D01*
X025216Y020662D02*
X024704Y020662D01*
X024234Y020735D02*
X025509Y019460D01*
X025509Y019160D01*
X024534Y018185D01*
X024534Y017585D01*
X024034Y017585D01*
X024009Y017585D01*
X024084Y017660D01*
X024154Y017967D02*
X024254Y017967D01*
X024254Y017925D02*
X024254Y018184D01*
X024057Y017988D01*
X024057Y017983D01*
X024113Y017983D01*
X024254Y017925D01*
X024254Y018125D02*
X024195Y018125D01*
X023659Y017985D02*
X024359Y018685D01*
X024359Y018735D01*
X023961Y018759D02*
X022217Y018759D01*
X022257Y018918D02*
X024004Y018918D01*
X024142Y019076D02*
X022232Y019076D01*
X022123Y019235D02*
X025188Y019235D01*
X025180Y019393D02*
X021285Y019393D01*
X021457Y019235D02*
X021596Y019235D01*
X021559Y018935D02*
X021859Y018935D01*
X021559Y018935D02*
X021559Y016260D01*
X021484Y016185D01*
X020984Y016223D02*
X020984Y016223D01*
X020984Y016381D02*
X020984Y016381D01*
X020984Y016540D02*
X020984Y016540D01*
X020984Y016585D02*
X020984Y015786D01*
X020908Y015602D01*
X020767Y015461D01*
X020714Y015439D01*
X020714Y012080D01*
X020671Y011977D01*
X020593Y011898D01*
X019493Y010798D01*
X019390Y010755D01*
X019278Y010755D01*
X013510Y010755D01*
X013625Y010640D01*
X016015Y010640D01*
X016118Y010598D01*
X016196Y010519D01*
X016221Y010494D01*
X016264Y010391D01*
X016264Y010280D01*
X016264Y007993D01*
X016322Y007936D01*
X016382Y007790D01*
X016382Y007631D01*
X016360Y007577D01*
X022119Y013337D01*
X022119Y013613D01*
X022119Y013758D01*
X022119Y015487D01*
X022026Y015579D01*
X021962Y015734D01*
X021908Y015602D01*
X021767Y015461D01*
X021584Y015385D01*
X021385Y015385D01*
X021201Y015461D01*
X021060Y015602D01*
X020984Y015786D01*
X020984Y016585D01*
X020908Y016769D01*
X020767Y016909D01*
X020739Y016921D01*
X020739Y017091D01*
X020696Y017194D01*
X020618Y017273D01*
X020064Y017826D01*
X020064Y017994D01*
X020821Y018752D01*
X020823Y018755D01*
X020826Y018755D01*
X020884Y018698D01*
X021030Y018637D01*
X021188Y018637D01*
X021279Y018675D01*
X021279Y016942D01*
X021201Y016909D01*
X021060Y016769D01*
X020984Y016585D01*
X021031Y016698D02*
X020937Y016698D01*
X020820Y016857D02*
X021148Y016857D01*
X021279Y017015D02*
X020739Y017015D01*
X020705Y017174D02*
X021279Y017174D01*
X021279Y017332D02*
X020558Y017332D01*
X020399Y017491D02*
X021279Y017491D01*
X021279Y017649D02*
X020241Y017649D01*
X020082Y017808D02*
X021279Y017808D01*
X021279Y017967D02*
X020064Y017967D01*
X020195Y018125D02*
X021279Y018125D01*
X021279Y018284D02*
X020353Y018284D01*
X020512Y018442D02*
X021279Y018442D01*
X021279Y018601D02*
X020670Y018601D01*
X020584Y018910D02*
X019784Y018110D01*
X019784Y017710D01*
X020459Y017035D01*
X020459Y016210D01*
X020484Y016185D01*
X020434Y016135D01*
X020434Y012135D01*
X019334Y011035D01*
X013284Y011035D01*
X011634Y012685D01*
X011634Y012785D01*
X010984Y013435D01*
X010934Y013435D01*
X010459Y013910D01*
X011056Y014320D02*
X011837Y014320D01*
X011697Y014162D02*
X011196Y014162D01*
X011259Y014003D02*
X011634Y014003D01*
X011634Y013844D02*
X011259Y013844D01*
X011207Y013686D02*
X011686Y013686D01*
X011810Y013527D02*
X011288Y013527D01*
X011447Y013369D02*
X011934Y013369D01*
X012035Y013410D02*
X012834Y013410D01*
X013017Y013334D01*
X013158Y013194D01*
X013220Y013044D01*
X013235Y013058D01*
X013397Y013125D01*
X013408Y013125D01*
X014544Y014262D01*
X014544Y014273D01*
X014611Y014435D01*
X014735Y014558D01*
X014897Y014625D01*
X015072Y014625D01*
X015233Y014558D01*
X015357Y014435D01*
X015424Y014273D01*
X015424Y014098D01*
X015357Y013936D01*
X015233Y013812D01*
X015072Y013745D01*
X015060Y013745D01*
X013924Y012609D01*
X013924Y012598D01*
X013857Y012436D01*
X013733Y012312D01*
X013572Y012245D01*
X013495Y012245D01*
X013600Y012140D01*
X014101Y012140D01*
X014159Y012198D01*
X014305Y012258D01*
X014463Y012258D01*
X014610Y012198D01*
X014722Y012086D01*
X014782Y011940D01*
X014782Y011781D01*
X014722Y011635D01*
X014610Y011523D01*
X014463Y011462D01*
X014305Y011462D01*
X014159Y011523D01*
X014101Y011580D01*
X013540Y011580D01*
X013428Y011580D01*
X013326Y011623D01*
X012538Y012410D01*
X012305Y012410D01*
X013400Y011315D01*
X017651Y011315D01*
X017634Y011356D01*
X017634Y011439D01*
X015831Y013243D01*
X015814Y013235D01*
X015655Y013235D01*
X015508Y013296D01*
X015395Y013409D01*
X015334Y013556D01*
X015334Y013715D01*
X015395Y013862D01*
X015454Y013921D01*
X015454Y015330D01*
X015454Y015385D01*
X015385Y015385D01*
X015201Y015461D01*
X015060Y015602D01*
X014984Y015786D01*
X014984Y016339D01*
X012990Y014345D01*
X013017Y014334D01*
X013158Y014194D01*
X013234Y014010D01*
X013234Y013811D01*
X013158Y013627D01*
X013017Y013486D01*
X012834Y013410D01*
X012035Y013410D01*
X011727Y013210D02*
X011605Y013210D01*
X011245Y012778D02*
X011183Y012627D01*
X011161Y012605D01*
X011476Y012290D01*
X011555Y012369D01*
X011397Y012527D01*
X011354Y012630D01*
X011354Y012669D01*
X011245Y012778D01*
X011228Y012735D02*
X011289Y012735D01*
X011376Y012576D02*
X011189Y012576D01*
X011348Y012418D02*
X011506Y012418D01*
X011809Y012060D02*
X013509Y010360D01*
X015959Y010360D01*
X015984Y010335D01*
X015984Y007710D01*
X015620Y007550D02*
X015586Y007631D01*
X015586Y007790D01*
X015647Y007936D01*
X015704Y007993D01*
X015704Y010080D01*
X013685Y010080D01*
X014700Y009065D01*
X014748Y009065D01*
X014808Y009124D01*
X014955Y009185D01*
X015114Y009185D01*
X015261Y009124D01*
X015373Y009012D01*
X015434Y008865D01*
X015434Y008706D01*
X015373Y008559D01*
X015261Y008446D01*
X015114Y008385D01*
X014955Y008385D01*
X014808Y008446D01*
X014748Y008505D01*
X014640Y008505D01*
X014528Y008505D01*
X014426Y008548D01*
X010563Y012410D01*
X010060Y012410D01*
X009876Y012486D01*
X009735Y012627D01*
X009659Y012811D01*
X009659Y013010D01*
X009734Y013190D01*
X009718Y013205D01*
X009259Y013205D01*
X009309Y013085D01*
X009309Y012886D01*
X009233Y012702D01*
X009211Y012680D01*
X010350Y011540D01*
X010701Y011540D01*
X010759Y011598D01*
X010905Y011658D01*
X011063Y011658D01*
X011210Y011598D01*
X011322Y011486D01*
X011382Y011340D01*
X011382Y011181D01*
X011351Y011107D01*
X011397Y011125D01*
X011572Y011125D01*
X011733Y011058D01*
X011857Y010935D01*
X011924Y010773D01*
X011924Y010761D01*
X015135Y007550D01*
X015620Y007550D01*
X015586Y007661D02*
X015024Y007661D01*
X014866Y007820D02*
X015599Y007820D01*
X015689Y007978D02*
X014707Y007978D01*
X014549Y008137D02*
X015704Y008137D01*
X015704Y008295D02*
X014390Y008295D01*
X014232Y008454D02*
X014800Y008454D01*
X014584Y008785D02*
X015034Y008785D01*
X015407Y008930D02*
X015704Y008930D01*
X015704Y009088D02*
X015297Y009088D01*
X015434Y008771D02*
X015704Y008771D01*
X015704Y008613D02*
X015395Y008613D01*
X015268Y008454D02*
X015704Y008454D01*
X016264Y008454D02*
X017237Y008454D01*
X017395Y008613D02*
X016264Y008613D01*
X016264Y008771D02*
X017554Y008771D01*
X017712Y008930D02*
X016264Y008930D01*
X016264Y009088D02*
X017871Y009088D01*
X018029Y009247D02*
X016264Y009247D01*
X016264Y009405D02*
X018188Y009405D01*
X018346Y009564D02*
X016264Y009564D01*
X016264Y009722D02*
X018505Y009722D01*
X018663Y009881D02*
X016264Y009881D01*
X016264Y010039D02*
X018822Y010039D01*
X018981Y010198D02*
X016264Y010198D01*
X016264Y010356D02*
X019139Y010356D01*
X019298Y010515D02*
X016200Y010515D01*
X015704Y010039D02*
X013726Y010039D01*
X013884Y009881D02*
X015704Y009881D01*
X015704Y009722D02*
X014043Y009722D01*
X014202Y009564D02*
X015704Y009564D01*
X015704Y009405D02*
X014360Y009405D01*
X014519Y009247D02*
X015704Y009247D01*
X014771Y009088D02*
X014677Y009088D01*
X014584Y008785D02*
X010459Y012910D01*
X010384Y012935D01*
X009834Y013485D01*
X007934Y013485D01*
X004334Y009885D01*
X003684Y009885D01*
X003838Y009385D02*
X003285Y009385D01*
X003838Y009385D01*
X003838Y009385D01*
X004491Y009247D02*
X005717Y009247D01*
X005694Y009405D02*
X004650Y009405D01*
X004808Y009564D02*
X005694Y009564D01*
X005694Y009722D02*
X004967Y009722D01*
X005126Y009881D02*
X005694Y009881D01*
X005694Y010039D02*
X005284Y010039D01*
X005443Y010198D02*
X005727Y010198D01*
X005817Y010356D02*
X005601Y010356D01*
X005760Y010515D02*
X006041Y010515D01*
X005918Y010674D02*
X007576Y010674D01*
X007735Y010832D02*
X006077Y010832D01*
X006235Y010991D02*
X010154Y010991D01*
X010226Y010832D02*
X011069Y010832D01*
X011044Y010674D02*
X010264Y010674D01*
X010264Y010515D02*
X011078Y010515D01*
X011191Y010356D02*
X010264Y010356D01*
X010264Y010198D02*
X011455Y010198D01*
X011614Y010039D02*
X010264Y010039D01*
X010264Y009881D02*
X011772Y009881D01*
X011931Y009722D02*
X010264Y009722D01*
X010264Y009564D02*
X012090Y009564D01*
X012248Y009405D02*
X010264Y009405D01*
X010264Y009247D02*
X012407Y009247D01*
X012565Y009088D02*
X010264Y009088D01*
X010264Y008930D02*
X012724Y008930D01*
X012882Y008771D02*
X010264Y008771D01*
X010264Y008613D02*
X013041Y008613D01*
X013199Y008454D02*
X010264Y008454D01*
X010264Y008295D02*
X013358Y008295D01*
X013516Y008137D02*
X010264Y008137D01*
X010264Y007978D02*
X013675Y007978D01*
X013834Y007820D02*
X010264Y007820D01*
X010264Y007661D02*
X013992Y007661D01*
X014151Y007503D02*
X010264Y007503D01*
X010264Y007344D02*
X014309Y007344D01*
X014468Y007186D02*
X010264Y007186D01*
X010264Y007027D02*
X014626Y007027D01*
X014795Y006869D02*
X010264Y006869D01*
X010264Y006710D02*
X017539Y006710D01*
X017539Y006869D02*
X016673Y006869D01*
X016842Y007027D02*
X017539Y007027D01*
X017539Y007186D02*
X017001Y007186D01*
X017159Y007344D02*
X017539Y007344D01*
X017539Y007503D02*
X017318Y007503D01*
X017476Y007661D02*
X017575Y007661D01*
X017635Y007820D02*
X017645Y007820D01*
X018200Y007344D02*
X018784Y007344D01*
X018784Y007186D02*
X018179Y007186D01*
X018179Y007027D02*
X018784Y007027D01*
X018784Y006869D02*
X018179Y006869D01*
X018179Y006710D02*
X018784Y006710D01*
X018819Y006551D02*
X018179Y006551D01*
X018179Y006393D02*
X018919Y006393D01*
X018976Y006234D02*
X018179Y006234D01*
X018179Y006076D02*
X018843Y006076D01*
X018784Y005917D02*
X018179Y005917D01*
X018179Y005759D02*
X018784Y005759D01*
X018784Y005600D02*
X018179Y005600D01*
X018179Y005442D02*
X018784Y005442D01*
X018784Y005283D02*
X018179Y005283D01*
X018179Y005125D02*
X018789Y005125D01*
X018854Y004966D02*
X018179Y004966D01*
X018179Y004807D02*
X019011Y004807D01*
X018966Y004649D02*
X018179Y004649D01*
X018179Y004490D02*
X018838Y004490D01*
X018784Y004332D02*
X018108Y004332D01*
X017539Y004966D02*
X015814Y004966D01*
X015604Y004966D02*
X011777Y004966D01*
X011837Y004807D02*
X015362Y004807D01*
X015282Y004649D02*
X011837Y004649D01*
X011837Y004490D02*
X015271Y004490D01*
X015319Y004332D02*
X011788Y004332D01*
X011722Y004173D02*
X015452Y004173D01*
X017539Y005125D02*
X011711Y005125D01*
X011576Y005283D02*
X017539Y005283D01*
X017539Y005442D02*
X011395Y005442D01*
X010930Y005759D02*
X017539Y005759D01*
X017539Y005917D02*
X011011Y005917D01*
X011024Y006076D02*
X017539Y006076D01*
X017539Y006234D02*
X010978Y006234D01*
X010849Y006393D02*
X017539Y006393D01*
X017539Y006551D02*
X010232Y006551D01*
X010094Y006393D02*
X010088Y006393D01*
X009984Y006685D02*
X009984Y010685D01*
X007984Y010685D01*
X006984Y009685D01*
X007234Y009710D01*
X007734Y009822D02*
X007734Y009822D01*
X007734Y010039D01*
X007734Y009822D01*
X007734Y009881D02*
X007734Y009881D01*
X007734Y010039D02*
X007734Y010039D01*
X007984Y009685D02*
X008234Y009710D01*
X007984Y009685D02*
X008984Y008685D01*
X008984Y006685D01*
X009026Y006490D01*
X008704Y006856D02*
X008704Y008569D01*
X008354Y008919D01*
X008334Y008910D01*
X008135Y008910D01*
X007951Y008986D01*
X007810Y009127D01*
X007734Y009311D01*
X007734Y009557D01*
X007734Y009557D01*
X007734Y009311D01*
X007658Y009127D01*
X007517Y008986D01*
X007334Y008910D01*
X007135Y008910D01*
X006951Y008986D01*
X006849Y009088D01*
X006849Y009088D01*
X006849Y006050D01*
X007645Y006050D01*
X007690Y006096D01*
X007515Y006271D01*
X007515Y006708D01*
X007824Y007017D01*
X008260Y007017D01*
X008562Y006714D01*
X008704Y006856D01*
X008704Y006869D02*
X008408Y006869D01*
X008704Y007027D02*
X006849Y007027D01*
X006849Y006869D02*
X007676Y006869D01*
X007517Y006710D02*
X006849Y006710D01*
X006849Y006551D02*
X007515Y006551D01*
X007515Y006393D02*
X006849Y006393D01*
X006849Y006234D02*
X007552Y006234D01*
X007670Y006076D02*
X006849Y006076D01*
X006119Y006076D02*
X004490Y006076D01*
X004524Y005917D02*
X006119Y005917D01*
X006119Y005759D02*
X004516Y005759D01*
X004451Y005600D02*
X006124Y005600D01*
X005673Y005442D02*
X004304Y005442D01*
X004560Y005125D02*
X003014Y005125D01*
X003014Y005283D02*
X005493Y005283D01*
X005357Y005125D02*
X005108Y005125D01*
X005211Y004966D02*
X005291Y004966D01*
X005231Y004649D02*
X005188Y004649D01*
X005231Y004490D02*
X005042Y004490D01*
X005280Y004332D02*
X003234Y004332D01*
X003392Y004173D02*
X005346Y004173D01*
X005466Y004015D02*
X003551Y004015D01*
X003709Y003856D02*
X005624Y003856D01*
X004627Y004490D02*
X002575Y004490D01*
X002525Y004649D02*
X002416Y004649D01*
X002454Y004807D02*
X002264Y004807D01*
X002264Y004966D02*
X002454Y004966D01*
X002454Y005125D02*
X002264Y005125D01*
X002264Y005283D02*
X002454Y005283D01*
X002454Y005442D02*
X002264Y005442D01*
X002264Y005600D02*
X002454Y005600D01*
X002454Y005759D02*
X002264Y005759D01*
X002264Y005917D02*
X002454Y005917D01*
X002454Y006076D02*
X002264Y006076D01*
X002264Y006234D02*
X002454Y006234D01*
X002454Y006393D02*
X002264Y006393D01*
X002264Y006551D02*
X002454Y006551D01*
X002454Y006710D02*
X002264Y006710D01*
X002264Y006869D02*
X002454Y006869D01*
X002490Y007027D02*
X002264Y007027D01*
X002264Y007186D02*
X002977Y007186D01*
X003185Y007344D02*
X002264Y007344D01*
X002264Y007503D02*
X003003Y007503D01*
X002892Y007661D02*
X002264Y007661D01*
X002264Y007820D02*
X002844Y007820D01*
X002844Y007978D02*
X002264Y007978D01*
X002264Y008137D02*
X002904Y008137D01*
X003031Y008295D02*
X002264Y008295D01*
X002264Y008454D02*
X003119Y008454D01*
X002956Y008613D02*
X002264Y008613D01*
X002264Y008771D02*
X002890Y008771D01*
X002884Y008930D02*
X002264Y008930D01*
X002264Y009088D02*
X002927Y009088D01*
X003038Y009247D02*
X002264Y009247D01*
X002264Y009405D02*
X003237Y009405D01*
X002999Y009564D02*
X002264Y009564D01*
X002264Y009722D02*
X002910Y009722D01*
X002884Y009881D02*
X002264Y009881D01*
X002264Y010039D02*
X002907Y010039D01*
X002990Y010198D02*
X002264Y010198D01*
X002264Y010356D02*
X003215Y010356D01*
X003285Y010385D02*
X004084Y010385D01*
X003285Y010385D01*
X003047Y010515D02*
X002264Y010515D01*
X002264Y010674D02*
X002931Y010674D01*
X002884Y010832D02*
X002264Y010832D01*
X002264Y010991D02*
X002887Y010991D01*
X002952Y011149D02*
X002264Y011149D01*
X002264Y011308D02*
X003099Y011308D01*
X002264Y011466D02*
X005519Y011466D01*
X005361Y011308D02*
X004269Y011308D01*
X004416Y011149D02*
X005202Y011149D01*
X005044Y010991D02*
X004482Y010991D01*
X004484Y010832D02*
X004885Y010832D01*
X004726Y010674D02*
X004438Y010674D01*
X004321Y010515D02*
X004568Y010515D01*
X004409Y010356D02*
X004153Y010356D01*
X004441Y009088D02*
X005793Y009088D01*
X005984Y008930D02*
X004484Y008930D01*
X004478Y008771D02*
X006119Y008771D01*
X006119Y008613D02*
X004412Y008613D01*
X004249Y008454D02*
X006119Y008454D01*
X006119Y008295D02*
X004338Y008295D01*
X004464Y008137D02*
X006119Y008137D01*
X006119Y007978D02*
X004524Y007978D01*
X004524Y007820D02*
X006119Y007820D01*
X006119Y007661D02*
X004476Y007661D01*
X004365Y007503D02*
X006119Y007503D01*
X006119Y007344D02*
X004183Y007344D01*
X004391Y007186D02*
X006119Y007186D01*
X006119Y007027D02*
X004467Y007027D01*
X004484Y006869D02*
X006119Y006869D01*
X006119Y006710D02*
X004453Y006710D01*
X004357Y006551D02*
X006119Y006551D01*
X006119Y006393D02*
X004170Y006393D01*
X004399Y006234D02*
X006119Y006234D01*
X006835Y005283D02*
X007716Y005283D01*
X008129Y005125D02*
X006971Y005125D01*
X007037Y004966D02*
X008287Y004966D01*
X008446Y004807D02*
X007097Y004807D01*
X007097Y004649D02*
X009971Y004649D01*
X009971Y004807D02*
X009472Y004807D01*
X009631Y004966D02*
X010032Y004966D01*
X010097Y005125D02*
X009789Y005125D01*
X009948Y005283D02*
X010233Y005283D01*
X010107Y005442D02*
X010413Y005442D01*
X010485Y005600D02*
X010265Y005600D01*
X010683Y005600D02*
X017539Y005600D01*
X019414Y004748D02*
X019567Y004684D01*
X019708Y004544D01*
X019784Y004360D01*
X019860Y004544D01*
X020001Y004684D01*
X020155Y004748D01*
X020001Y004811D01*
X019860Y004952D01*
X019784Y005136D01*
X019708Y004952D01*
X019567Y004811D01*
X019414Y004748D01*
X019558Y004807D02*
X020011Y004807D01*
X019966Y004649D02*
X019603Y004649D01*
X019730Y004490D02*
X019838Y004490D01*
X019784Y004360D02*
X019784Y003561D01*
X019708Y003377D01*
X019567Y003236D01*
X019474Y003198D01*
X019567Y003159D01*
X019708Y003019D01*
X019784Y002835D01*
X019860Y003019D01*
X020001Y003159D01*
X020094Y003198D01*
X020001Y003236D01*
X019860Y003377D01*
X019784Y003561D01*
X019784Y004360D01*
X019784Y004332D02*
X019784Y004332D01*
X019784Y004173D02*
X019784Y004173D01*
X019784Y004015D02*
X019784Y004015D01*
X019784Y003856D02*
X019784Y003856D01*
X019784Y003698D02*
X019784Y003698D01*
X019793Y003539D02*
X019775Y003539D01*
X019709Y003381D02*
X019859Y003381D01*
X020036Y003222D02*
X019533Y003222D01*
X019663Y003064D02*
X019905Y003064D01*
X019813Y002905D02*
X019755Y002905D01*
X019784Y002835D02*
X019784Y002036D01*
X019784Y002835D01*
X019784Y002746D02*
X019784Y002746D01*
X019784Y002588D02*
X019784Y002588D01*
X019784Y002429D02*
X019784Y002429D01*
X019784Y002271D02*
X019784Y002271D01*
X019784Y002112D02*
X019784Y002112D01*
X019818Y001954D02*
X019750Y001954D01*
X019651Y001795D02*
X019917Y001795D01*
X021387Y001637D02*
X021539Y001637D01*
X021651Y001795D02*
X021698Y001795D01*
X021750Y001954D02*
X021818Y001954D01*
X021784Y002112D02*
X021784Y002112D01*
X021784Y002271D02*
X021784Y002271D01*
X021784Y002429D02*
X021784Y002429D01*
X021784Y002588D02*
X021784Y002588D01*
X021784Y002746D02*
X021784Y002746D01*
X021813Y002905D02*
X021755Y002905D01*
X021663Y003064D02*
X021905Y003064D01*
X022036Y003222D02*
X021533Y003222D01*
X021709Y003381D02*
X021859Y003381D01*
X021793Y003539D02*
X021775Y003539D01*
X021784Y003698D02*
X021784Y003698D01*
X021784Y003856D02*
X021784Y003856D01*
X021784Y004015D02*
X021784Y004015D01*
X021784Y004173D02*
X021784Y004173D01*
X021784Y004332D02*
X021784Y004332D01*
X021838Y004490D02*
X021730Y004490D01*
X021603Y004649D02*
X021966Y004649D01*
X022011Y004807D02*
X021558Y004807D01*
X021714Y004966D02*
X021854Y004966D01*
X021789Y005125D02*
X021779Y005125D01*
X021784Y005283D02*
X021784Y005283D01*
X021784Y005442D02*
X021784Y005442D01*
X021784Y005600D02*
X021784Y005600D01*
X021784Y005759D02*
X021784Y005759D01*
X021784Y005917D02*
X021784Y005917D01*
X021843Y006076D02*
X021726Y006076D01*
X021592Y006234D02*
X021976Y006234D01*
X021919Y006393D02*
X021649Y006393D01*
X021749Y006551D02*
X021819Y006551D01*
X021784Y006710D02*
X021784Y006710D01*
X021784Y006869D02*
X021784Y006869D01*
X021784Y007027D02*
X021784Y007027D01*
X021784Y007186D02*
X021784Y007186D01*
X021784Y007344D02*
X021784Y007344D01*
X021764Y007503D02*
X021812Y007503D01*
X021764Y007661D02*
X021903Y007661D01*
X020903Y007661D02*
X020665Y007661D01*
X020756Y007503D02*
X020812Y007503D01*
X020784Y007344D02*
X020784Y007344D01*
X020784Y007186D02*
X020784Y007186D01*
X020064Y006285D02*
X020001Y006311D01*
X019860Y006452D01*
X019784Y006636D01*
X019708Y006452D01*
X019567Y006311D01*
X019504Y006285D01*
X019567Y006259D01*
X019708Y006119D01*
X019784Y005935D01*
X019860Y006119D01*
X020001Y006259D01*
X020064Y006285D01*
X019976Y006234D02*
X019592Y006234D01*
X019649Y006393D02*
X019919Y006393D01*
X019819Y006551D02*
X019749Y006551D01*
X019784Y006636D02*
X019784Y007435D01*
X019784Y006636D01*
X019784Y006710D02*
X019784Y006710D01*
X019784Y006869D02*
X019784Y006869D01*
X019784Y007027D02*
X019784Y007027D01*
X019784Y007186D02*
X019784Y007186D01*
X019784Y007344D02*
X019784Y007344D01*
X019812Y007503D02*
X019756Y007503D01*
X019665Y007661D02*
X019903Y007661D01*
X018903Y007661D02*
X018630Y007661D01*
X018812Y007503D02*
X018339Y007503D01*
X017078Y008295D02*
X016264Y008295D01*
X016264Y008137D02*
X016919Y008137D01*
X016761Y007978D02*
X016279Y007978D01*
X016370Y007820D02*
X016602Y007820D01*
X016444Y007661D02*
X016382Y007661D01*
X014361Y008613D02*
X014073Y008613D01*
X014202Y008771D02*
X013915Y008771D01*
X014044Y008930D02*
X013756Y008930D01*
X013885Y009088D02*
X013597Y009088D01*
X013727Y009247D02*
X013439Y009247D01*
X013568Y009405D02*
X013280Y009405D01*
X013410Y009564D02*
X013122Y009564D01*
X013251Y009722D02*
X012963Y009722D01*
X013093Y009881D02*
X012805Y009881D01*
X012934Y010039D02*
X012646Y010039D01*
X012776Y010198D02*
X012488Y010198D01*
X012617Y010356D02*
X012329Y010356D01*
X012459Y010515D02*
X012171Y010515D01*
X012300Y010674D02*
X012012Y010674D01*
X011900Y010832D02*
X012141Y010832D01*
X011983Y010991D02*
X011801Y010991D01*
X011824Y011149D02*
X011369Y011149D01*
X011382Y011308D02*
X011666Y011308D01*
X011507Y011466D02*
X011330Y011466D01*
X011349Y011625D02*
X011144Y011625D01*
X011190Y011783D02*
X010107Y011783D01*
X010266Y011625D02*
X010824Y011625D01*
X011032Y011942D02*
X009948Y011942D01*
X009790Y012100D02*
X010873Y012100D01*
X010715Y012259D02*
X009631Y012259D01*
X009473Y012418D02*
X010042Y012418D01*
X009786Y012576D02*
X009314Y012576D01*
X009246Y012735D02*
X009691Y012735D01*
X009659Y012893D02*
X009309Y012893D01*
X009309Y013052D02*
X009676Y013052D01*
X010305Y013410D02*
X010305Y013410D01*
X010563Y013410D01*
X010305Y013410D01*
X010563Y013410D02*
X010563Y013410D01*
X009659Y013844D02*
X009292Y013844D01*
X009309Y014003D02*
X009659Y014003D01*
X009722Y014162D02*
X009277Y014162D01*
X009265Y014320D02*
X009862Y014320D01*
X009107Y014954D02*
X002264Y014954D01*
X002264Y014796D02*
X008949Y014796D01*
X008790Y014637D02*
X002264Y014637D01*
X002264Y014479D02*
X008093Y014479D01*
X007837Y014320D02*
X002264Y014320D01*
X002264Y014162D02*
X007741Y014162D01*
X007709Y014003D02*
X002264Y014003D01*
X002264Y013844D02*
X007726Y013844D01*
X007739Y013686D02*
X002264Y013686D01*
X002264Y013527D02*
X007580Y013527D01*
X007422Y013369D02*
X002264Y013369D01*
X002264Y013210D02*
X007263Y013210D01*
X007105Y013052D02*
X002264Y013052D01*
X002264Y012893D02*
X006946Y012893D01*
X006787Y012735D02*
X002264Y012735D01*
X002264Y012576D02*
X006629Y012576D01*
X006470Y012418D02*
X002264Y012418D01*
X002264Y012259D02*
X006312Y012259D01*
X006153Y012100D02*
X002264Y012100D01*
X002264Y011942D02*
X005995Y011942D01*
X005836Y011783D02*
X002264Y011783D01*
X002264Y011625D02*
X005678Y011625D01*
X006394Y011149D02*
X009949Y011149D01*
X009791Y011308D02*
X006552Y011308D01*
X006711Y011466D02*
X009632Y011466D01*
X009474Y011625D02*
X006870Y011625D01*
X007028Y011783D02*
X009315Y011783D01*
X009157Y011942D02*
X007187Y011942D01*
X007345Y012100D02*
X008998Y012100D01*
X008840Y012259D02*
X007504Y012259D01*
X007662Y012418D02*
X008681Y012418D01*
X007911Y012576D02*
X007821Y012576D01*
X007834Y012985D02*
X008509Y012985D01*
X010234Y011260D01*
X010984Y011260D01*
X009704Y010405D02*
X009704Y010287D01*
X009692Y010316D01*
X009603Y010405D01*
X009704Y010405D01*
X009704Y010356D02*
X009652Y010356D01*
X008866Y010405D02*
X008776Y010316D01*
X008712Y010162D01*
X008658Y010294D01*
X008546Y010405D01*
X008866Y010405D01*
X008817Y010356D02*
X008595Y010356D01*
X008698Y010198D02*
X008727Y010198D01*
X007734Y009405D02*
X007734Y009405D01*
X007761Y009247D02*
X007708Y009247D01*
X007619Y009088D02*
X007849Y009088D01*
X008088Y008930D02*
X007380Y008930D01*
X007088Y008930D02*
X006849Y008930D01*
X006849Y008771D02*
X008502Y008771D01*
X008661Y008613D02*
X006849Y008613D01*
X006849Y008454D02*
X008704Y008454D01*
X008704Y008295D02*
X006849Y008295D01*
X006849Y008137D02*
X008704Y008137D01*
X008704Y007978D02*
X006849Y007978D01*
X006849Y007820D02*
X008704Y007820D01*
X008704Y007661D02*
X006849Y007661D01*
X006849Y007503D02*
X008704Y007503D01*
X008704Y007344D02*
X006849Y007344D01*
X006849Y007186D02*
X008704Y007186D01*
X009264Y007186D02*
X009704Y007186D01*
X009704Y007344D02*
X009264Y007344D01*
X009264Y007503D02*
X009704Y007503D01*
X009704Y007661D02*
X009264Y007661D01*
X009264Y007820D02*
X009704Y007820D01*
X009704Y007978D02*
X009264Y007978D01*
X009264Y008137D02*
X009704Y008137D01*
X009704Y008295D02*
X009264Y008295D01*
X009264Y008454D02*
X009704Y008454D01*
X009704Y008613D02*
X009264Y008613D01*
X009264Y008630D02*
X009264Y006941D01*
X009513Y006691D01*
X009513Y006610D01*
X009704Y006801D01*
X009704Y009134D01*
X009692Y009104D01*
X009540Y008953D01*
X009342Y008870D01*
X009195Y008870D01*
X009221Y008844D01*
X009264Y008741D01*
X009264Y008630D01*
X009252Y008771D02*
X009704Y008771D01*
X009704Y008930D02*
X009485Y008930D01*
X009676Y009088D02*
X009704Y009088D01*
X009704Y007027D02*
X009264Y007027D01*
X009336Y006869D02*
X009704Y006869D01*
X009613Y006710D02*
X009495Y006710D01*
X009984Y006685D02*
X008984Y005685D01*
X009026Y005702D01*
X008711Y006076D02*
X008414Y006076D01*
X008394Y006096D02*
X008562Y005927D01*
X008731Y006096D01*
X008562Y006265D01*
X008394Y006096D01*
X008532Y006234D02*
X008593Y006234D01*
X009971Y004490D02*
X007097Y004490D01*
X007048Y004332D02*
X010020Y004332D01*
X010086Y004173D02*
X006982Y004173D01*
X006863Y004015D02*
X010206Y004015D01*
X010364Y003856D02*
X006704Y003856D01*
X004834Y004835D02*
X002734Y004835D01*
X002734Y006885D01*
X003684Y006885D01*
X003232Y006407D02*
X003101Y006461D01*
X003014Y006548D01*
X003014Y006279D01*
X003078Y006343D01*
X003232Y006407D01*
X003199Y006393D02*
X003014Y006393D01*
X003014Y005442D02*
X003064Y005442D01*
X002984Y004185D02*
X005984Y001185D01*
X021484Y001185D01*
X022484Y002185D01*
X022284Y002435D01*
X022762Y002887D02*
X022826Y003041D01*
X022978Y003193D01*
X022990Y003198D01*
X022978Y003203D01*
X022826Y003354D01*
X022762Y003509D01*
X022708Y003377D01*
X022567Y003236D01*
X022474Y003198D01*
X022567Y003159D01*
X022708Y003019D01*
X022762Y002887D01*
X022770Y002905D02*
X022755Y002905D01*
X022663Y003064D02*
X022849Y003064D01*
X022959Y003222D02*
X022533Y003222D01*
X022709Y003381D02*
X022816Y003381D01*
X023579Y003198D02*
X023590Y003193D01*
X023742Y003041D01*
X023784Y002939D01*
X023826Y003041D01*
X023978Y003193D01*
X023990Y003198D01*
X023978Y003203D01*
X023826Y003354D01*
X023784Y003456D01*
X023742Y003354D01*
X023590Y003203D01*
X023579Y003198D01*
X023609Y003222D02*
X023959Y003222D01*
X023849Y003064D02*
X023720Y003064D01*
X023753Y003381D02*
X023816Y003381D01*
X024609Y003222D02*
X025933Y003222D01*
X025896Y003182D02*
X025896Y003182D01*
X025839Y003064D02*
X024720Y003064D01*
X024798Y002905D02*
X025763Y002905D01*
X025686Y002746D02*
X024824Y002746D01*
X024824Y002588D02*
X025657Y002588D01*
X025633Y002429D02*
X024824Y002429D01*
X024824Y002271D02*
X025609Y002271D01*
X025623Y002112D02*
X024824Y002112D01*
X024793Y001954D02*
X025647Y001954D01*
X025671Y001795D02*
X024708Y001795D01*
X024491Y001637D02*
X025729Y001637D01*
X025679Y001740D02*
X025679Y001740D01*
X025805Y001478D02*
X022173Y001478D01*
X022014Y001320D02*
X025881Y001320D01*
X025896Y001289D02*
X025896Y001289D01*
X026015Y001161D02*
X021856Y001161D01*
X021381Y001478D02*
X006087Y001478D01*
X005706Y001067D02*
X004059Y002714D01*
X004145Y002436D01*
X004145Y002436D01*
X004145Y001935D01*
X003998Y001456D01*
X003732Y001067D01*
X005706Y001067D01*
X005613Y001161D02*
X003796Y001161D01*
X003904Y001320D02*
X005454Y001320D01*
X005295Y001478D02*
X004004Y001478D01*
X003998Y001456D02*
X003998Y001456D01*
X004053Y001637D02*
X005137Y001637D01*
X004978Y001795D02*
X004102Y001795D01*
X004145Y001935D02*
X004145Y001935D01*
X004145Y001954D02*
X004820Y001954D01*
X004661Y002112D02*
X004145Y002112D01*
X004145Y002271D02*
X004503Y002271D01*
X004344Y002429D02*
X004145Y002429D01*
X004186Y002588D02*
X004098Y002588D01*
X001781Y003698D02*
X001379Y003698D01*
X001379Y003539D02*
X001506Y003539D01*
X001437Y003499D02*
X001437Y003499D01*
X003684Y008885D02*
X003734Y008885D01*
X007834Y012985D01*
X008509Y013985D02*
X008534Y013985D01*
X011534Y016985D01*
X013484Y016985D01*
X013206Y016698D02*
X011643Y016698D01*
X011327Y017174D02*
X010868Y017174D01*
X010956Y017015D02*
X011168Y017015D01*
X011010Y016857D02*
X010974Y016857D01*
X010603Y017332D02*
X011652Y017332D01*
X011564Y017491D02*
X010445Y017491D01*
X010286Y017649D02*
X011564Y017649D01*
X011564Y017808D02*
X010128Y017808D01*
X009969Y017967D02*
X011680Y017967D01*
X011839Y018125D02*
X009811Y018125D01*
X009699Y018284D02*
X011757Y018284D01*
X011885Y018155D02*
X011604Y018437D01*
X011604Y018834D01*
X011885Y019115D01*
X012283Y019115D01*
X012564Y018834D01*
X012564Y018437D01*
X012283Y018155D01*
X011885Y018155D01*
X011604Y018442D02*
X009599Y018442D01*
X008969Y018442D02*
X002264Y018442D01*
X002264Y018284D02*
X008869Y018284D01*
X008844Y018125D02*
X002264Y018125D01*
X002264Y017967D02*
X008878Y017967D01*
X008989Y017808D02*
X002264Y017808D01*
X002264Y017649D02*
X009254Y017649D01*
X009412Y017491D02*
X002264Y017491D01*
X002264Y017332D02*
X009571Y017332D01*
X009729Y017174D02*
X002264Y017174D01*
X002264Y017015D02*
X009888Y017015D01*
X010046Y016857D02*
X002264Y016857D01*
X002264Y016698D02*
X010135Y016698D01*
X010258Y016540D02*
X002264Y016540D01*
X002264Y016381D02*
X010534Y016381D01*
X010375Y016223D02*
X002264Y016223D01*
X002264Y016064D02*
X010217Y016064D01*
X010058Y015906D02*
X002264Y015906D01*
X002264Y015747D02*
X009900Y015747D01*
X009741Y015588D02*
X002264Y015588D01*
X002264Y015430D02*
X009583Y015430D01*
X009424Y015271D02*
X002264Y015271D01*
X002264Y015113D02*
X009266Y015113D01*
X012434Y012910D02*
X013484Y011860D01*
X014384Y011860D01*
X014707Y012100D02*
X016973Y012100D01*
X017132Y011942D02*
X014781Y011942D01*
X014782Y011783D02*
X017290Y011783D01*
X017449Y011625D02*
X014712Y011625D01*
X014473Y011466D02*
X017607Y011466D01*
X018034Y011435D02*
X015784Y013685D01*
X015734Y013635D01*
X015734Y015385D01*
X016484Y016135D01*
X016484Y016185D01*
X016484Y016810D01*
X016939Y016694D02*
X016984Y016585D01*
X016984Y015786D01*
X016908Y015602D01*
X016767Y015461D01*
X016584Y015385D01*
X016385Y015385D01*
X016205Y015460D01*
X016014Y015269D01*
X016014Y013921D01*
X016073Y013862D01*
X016122Y013743D01*
X018030Y011835D01*
X018114Y011835D01*
X018261Y011774D01*
X018373Y011662D01*
X018434Y011515D01*
X018434Y011356D01*
X018417Y011315D01*
X019218Y011315D01*
X019894Y011992D01*
X019759Y012048D01*
X019647Y012160D01*
X019586Y012306D01*
X019586Y012465D01*
X019636Y012585D01*
X019505Y012585D01*
X019358Y012646D01*
X019245Y012759D01*
X019184Y012906D01*
X019184Y013065D01*
X019245Y013212D01*
X019304Y013271D01*
X019304Y014919D01*
X018764Y015460D01*
X018584Y015385D01*
X018385Y015385D01*
X018314Y015415D01*
X018314Y012721D01*
X018373Y012662D01*
X018434Y012515D01*
X018434Y012356D01*
X018373Y012209D01*
X018261Y012096D01*
X018114Y012035D01*
X017955Y012035D01*
X017808Y012096D01*
X017695Y012209D01*
X017634Y012356D01*
X017634Y012515D01*
X017695Y012662D01*
X017754Y012721D01*
X017754Y015456D01*
X017584Y015385D01*
X017385Y015385D01*
X017201Y015461D01*
X017060Y015602D01*
X016984Y015786D01*
X016984Y016585D01*
X017060Y016769D01*
X017201Y016909D01*
X017204Y016911D01*
X017204Y016959D01*
X016939Y016694D01*
X016943Y016698D02*
X017031Y016698D01*
X016984Y016540D02*
X016984Y016540D01*
X016984Y016381D02*
X016984Y016381D01*
X016984Y016223D02*
X016984Y016223D01*
X016984Y016064D02*
X016984Y016064D01*
X016984Y015906D02*
X016984Y015906D01*
X017000Y015747D02*
X016968Y015747D01*
X016894Y015588D02*
X017074Y015588D01*
X017277Y015430D02*
X016691Y015430D01*
X016277Y015430D02*
X016175Y015430D01*
X016016Y015271D02*
X017754Y015271D01*
X017754Y015113D02*
X016014Y015113D01*
X016014Y014954D02*
X017754Y014954D01*
X017754Y014796D02*
X016014Y014796D01*
X016014Y014637D02*
X017754Y014637D01*
X017754Y014479D02*
X016014Y014479D01*
X016014Y014320D02*
X017754Y014320D01*
X017754Y014162D02*
X016014Y014162D01*
X016014Y014003D02*
X017754Y014003D01*
X017754Y013844D02*
X016080Y013844D01*
X016179Y013686D02*
X017754Y013686D01*
X017754Y013527D02*
X016338Y013527D01*
X016497Y013369D02*
X017754Y013369D01*
X017754Y013210D02*
X016655Y013210D01*
X016814Y013052D02*
X017754Y013052D01*
X017754Y012893D02*
X016972Y012893D01*
X017131Y012735D02*
X017754Y012735D01*
X017659Y012576D02*
X017289Y012576D01*
X017448Y012418D02*
X017634Y012418D01*
X017606Y012259D02*
X017674Y012259D01*
X017765Y012100D02*
X017803Y012100D01*
X017923Y011942D02*
X019845Y011942D01*
X019706Y012100D02*
X018265Y012100D01*
X018394Y012259D02*
X019606Y012259D01*
X019586Y012418D02*
X018434Y012418D01*
X018409Y012576D02*
X019632Y012576D01*
X019934Y012435D02*
X019984Y012385D01*
X019934Y012435D02*
X019934Y013935D01*
X020046Y014320D02*
X020154Y014320D01*
X020154Y014275D02*
X020154Y015508D01*
X020060Y015602D01*
X019984Y015786D01*
X019908Y015602D01*
X019767Y015461D01*
X019616Y015399D01*
X019821Y015194D01*
X019864Y015091D01*
X019864Y014980D01*
X019864Y014333D01*
X020013Y014333D01*
X020154Y014275D01*
X020154Y014479D02*
X019864Y014479D01*
X019864Y014637D02*
X020154Y014637D01*
X020154Y014796D02*
X019864Y014796D01*
X019864Y014954D02*
X020154Y014954D01*
X020154Y015113D02*
X019855Y015113D01*
X019744Y015271D02*
X020154Y015271D01*
X020154Y015430D02*
X019691Y015430D01*
X019894Y015588D02*
X020074Y015588D01*
X020000Y015747D02*
X019968Y015747D01*
X019984Y015786D02*
X019984Y016585D01*
X019908Y016769D01*
X019767Y016909D01*
X019739Y016921D01*
X019739Y017359D01*
X020179Y016919D01*
X020179Y016887D01*
X020060Y016769D01*
X019984Y016585D01*
X019984Y015786D01*
X019984Y015906D02*
X019984Y015906D01*
X019984Y016064D02*
X019984Y016064D01*
X019984Y016223D02*
X019984Y016223D01*
X019984Y016381D02*
X019984Y016381D01*
X019984Y016540D02*
X019984Y016540D01*
X020031Y016698D02*
X019937Y016698D01*
X019820Y016857D02*
X020148Y016857D01*
X020083Y017015D02*
X019739Y017015D01*
X019739Y017174D02*
X019925Y017174D01*
X019766Y017332D02*
X019739Y017332D01*
X019179Y017332D02*
X018764Y017332D01*
X018764Y017174D02*
X019179Y017174D01*
X019179Y017015D02*
X018764Y017015D01*
X018764Y016911D02*
X018767Y016909D01*
X018908Y016769D01*
X018984Y016585D01*
X019060Y016769D01*
X019179Y016887D01*
X019179Y018184D01*
X018764Y017769D01*
X018764Y016911D01*
X018820Y016857D02*
X019148Y016857D01*
X019031Y016698D02*
X018937Y016698D01*
X018984Y016585D02*
X018984Y016031D01*
X018984Y016585D01*
X018984Y016540D02*
X018984Y016540D01*
X018984Y016381D02*
X018984Y016381D01*
X018984Y016223D02*
X018984Y016223D01*
X018984Y016064D02*
X018984Y016064D01*
X018984Y016031D02*
X018984Y016031D01*
X019459Y016210D02*
X019484Y016185D01*
X019459Y016210D02*
X019459Y018310D01*
X020709Y019560D01*
X021107Y019552D02*
X025021Y019552D01*
X024863Y019711D02*
X021472Y019711D01*
X021552Y019869D02*
X024704Y019869D01*
X024546Y020028D02*
X021557Y020028D01*
X021496Y020186D02*
X024387Y020186D01*
X024229Y020345D02*
X024181Y020345D01*
X023987Y020345D02*
X021271Y020345D01*
X021159Y019960D02*
X020559Y019960D01*
X020534Y019985D01*
X020534Y019935D01*
X018484Y017885D01*
X018484Y016185D01*
X018484Y016135D01*
X019584Y015035D01*
X019584Y012985D01*
X019269Y012735D02*
X018314Y012735D01*
X018314Y012893D02*
X019189Y012893D01*
X019184Y013052D02*
X018314Y013052D01*
X018314Y013210D02*
X019244Y013210D01*
X019304Y013369D02*
X018314Y013369D01*
X018314Y013527D02*
X019304Y013527D01*
X019304Y013686D02*
X018314Y013686D01*
X018314Y013844D02*
X019304Y013844D01*
X019304Y014003D02*
X018314Y014003D01*
X018314Y014162D02*
X019304Y014162D01*
X019304Y014320D02*
X018314Y014320D01*
X018314Y014479D02*
X019304Y014479D01*
X019304Y014637D02*
X018314Y014637D01*
X018314Y014796D02*
X019304Y014796D01*
X019269Y014954D02*
X018314Y014954D01*
X018314Y015113D02*
X019111Y015113D01*
X018952Y015271D02*
X018314Y015271D01*
X018691Y015430D02*
X018794Y015430D01*
X018034Y015585D02*
X017484Y016135D01*
X017484Y016185D01*
X017484Y017235D01*
X020734Y020485D01*
X020359Y020985D02*
X015559Y016185D01*
X015484Y016185D01*
X015984Y016214D02*
X015984Y016031D01*
X015984Y016031D01*
X015984Y016214D01*
X015984Y016214D01*
X015984Y016064D02*
X015984Y016064D01*
X015277Y015430D02*
X014075Y015430D01*
X014233Y015588D02*
X015074Y015588D01*
X015000Y015747D02*
X014392Y015747D01*
X014550Y015906D02*
X014984Y015906D01*
X014984Y016064D02*
X014709Y016064D01*
X014867Y016223D02*
X014984Y016223D01*
X015454Y015271D02*
X013916Y015271D01*
X013757Y015113D02*
X015454Y015113D01*
X015454Y014954D02*
X013599Y014954D01*
X013440Y014796D02*
X015454Y014796D01*
X015454Y014637D02*
X013282Y014637D01*
X013123Y014479D02*
X014655Y014479D01*
X014564Y014320D02*
X013031Y014320D01*
X013171Y014162D02*
X014444Y014162D01*
X014286Y014003D02*
X013234Y014003D01*
X013234Y013844D02*
X014127Y013844D01*
X013969Y013686D02*
X013182Y013686D01*
X013058Y013527D02*
X013810Y013527D01*
X013651Y013369D02*
X012934Y013369D01*
X013141Y013210D02*
X013493Y013210D01*
X013228Y013052D02*
X013217Y013052D01*
X013915Y012576D02*
X016497Y012576D01*
X016339Y012735D02*
X014050Y012735D01*
X014208Y012893D02*
X016180Y012893D01*
X016022Y013052D02*
X014367Y013052D01*
X014525Y013210D02*
X015863Y013210D01*
X015435Y013369D02*
X014684Y013369D01*
X014842Y013527D02*
X015346Y013527D01*
X015334Y013686D02*
X015001Y013686D01*
X015265Y013844D02*
X015388Y013844D01*
X015385Y014003D02*
X015454Y014003D01*
X015454Y014162D02*
X015424Y014162D01*
X015405Y014320D02*
X015454Y014320D01*
X015454Y014479D02*
X015313Y014479D01*
X016656Y012418D02*
X013839Y012418D01*
X013605Y012259D02*
X016815Y012259D01*
X018034Y012435D02*
X018034Y015585D01*
X017754Y015430D02*
X017691Y015430D01*
X017984Y016031D02*
X017984Y016585D01*
X018060Y016769D01*
X018201Y016909D01*
X018204Y016911D01*
X018204Y017559D01*
X017764Y017119D01*
X017764Y016911D01*
X017767Y016909D01*
X017908Y016769D01*
X017984Y016585D01*
X017984Y016031D01*
X017984Y016031D01*
X017984Y016064D02*
X017984Y016064D01*
X017984Y016223D02*
X017984Y016223D01*
X017984Y016381D02*
X017984Y016381D01*
X017984Y016540D02*
X017984Y016540D01*
X018031Y016698D02*
X017937Y016698D01*
X017820Y016857D02*
X018148Y016857D01*
X018204Y017015D02*
X017764Y017015D01*
X017819Y017174D02*
X018204Y017174D01*
X018204Y017332D02*
X017977Y017332D01*
X018136Y017491D02*
X018204Y017491D01*
X018764Y017491D02*
X019179Y017491D01*
X019179Y017649D02*
X018764Y017649D01*
X018803Y017808D02*
X019179Y017808D01*
X019179Y017967D02*
X018961Y017967D01*
X019120Y018125D02*
X019179Y018125D01*
X020584Y018910D02*
X020584Y018935D01*
X020684Y019035D01*
X021109Y019035D01*
X021839Y018442D02*
X023720Y018442D01*
X023879Y018601D02*
X022088Y018601D01*
X021839Y018284D02*
X023394Y018284D01*
X023286Y018125D02*
X021839Y018125D01*
X021839Y017967D02*
X023261Y017967D01*
X023302Y017808D02*
X021839Y017808D01*
X021839Y017649D02*
X023432Y017649D01*
X023642Y017491D02*
X021839Y017491D01*
X021839Y017332D02*
X023724Y017332D01*
X023616Y017015D02*
X024689Y017015D01*
X024689Y016857D02*
X023876Y016857D01*
X023980Y016698D02*
X024689Y016698D01*
X024689Y016540D02*
X024024Y016540D01*
X024024Y016381D02*
X024689Y016381D01*
X024689Y016223D02*
X024024Y016223D01*
X024024Y016064D02*
X024689Y016064D01*
X024689Y015906D02*
X024024Y015906D01*
X024011Y015747D02*
X024689Y015747D01*
X024689Y015588D02*
X023946Y015588D01*
X023792Y015430D02*
X024689Y015430D01*
X024689Y015271D02*
X022849Y015271D01*
X022849Y015113D02*
X024734Y015113D01*
X024813Y015029D02*
X024813Y015029D01*
X024888Y014954D02*
X022849Y014954D01*
X022849Y014796D02*
X027078Y014796D01*
X026920Y014637D02*
X022849Y014637D01*
X022849Y014479D02*
X026761Y014479D01*
X026603Y014320D02*
X022849Y014320D01*
X022849Y014162D02*
X026444Y014162D01*
X026286Y014003D02*
X023289Y014003D01*
X023394Y013844D02*
X026127Y013844D01*
X025969Y013686D02*
X023424Y013686D01*
X023028Y013245D02*
X022897Y013245D01*
X022849Y013265D01*
X022849Y013113D01*
X022816Y013034D01*
X023028Y013245D01*
X022993Y013210D02*
X022849Y013210D01*
X022834Y013052D02*
X022824Y013052D01*
X022119Y013369D02*
X020714Y013369D01*
X020714Y013527D02*
X022119Y013527D01*
X022119Y013686D02*
X020714Y013686D01*
X020714Y013844D02*
X022119Y013844D01*
X022119Y014003D02*
X020714Y014003D01*
X020714Y014162D02*
X022119Y014162D01*
X022119Y014320D02*
X020714Y014320D01*
X020714Y014479D02*
X022119Y014479D01*
X022119Y014637D02*
X020714Y014637D01*
X020714Y014796D02*
X022119Y014796D01*
X022119Y014954D02*
X020714Y014954D01*
X020714Y015113D02*
X022119Y015113D01*
X022119Y015271D02*
X020714Y015271D01*
X020714Y015430D02*
X021277Y015430D01*
X021074Y015588D02*
X020894Y015588D01*
X020968Y015747D02*
X021000Y015747D01*
X020984Y015906D02*
X020984Y015906D01*
X020984Y016064D02*
X020984Y016064D01*
X021691Y015430D02*
X022119Y015430D01*
X022023Y015588D02*
X021894Y015588D01*
X022849Y015430D02*
X023176Y015430D01*
X023023Y015588D02*
X022946Y015588D01*
X022988Y016698D02*
X022980Y016698D01*
X022876Y016857D02*
X023092Y016857D01*
X023353Y017015D02*
X022616Y017015D01*
X022353Y017015D02*
X021839Y017015D01*
X021839Y016857D02*
X022092Y016857D01*
X021988Y016698D02*
X021937Y016698D01*
X021839Y017174D02*
X024689Y017174D01*
X024689Y017332D02*
X024655Y017332D01*
X025384Y017285D02*
X025409Y017310D01*
X025409Y018660D01*
X025709Y018035D02*
X025709Y017960D01*
X027484Y016185D01*
X026984Y016223D02*
X026984Y016223D01*
X026984Y016289D02*
X026984Y016289D01*
X026984Y015786D01*
X027060Y015602D01*
X027132Y015530D01*
X025329Y015530D01*
X025329Y016887D01*
X025463Y016887D01*
X025610Y016948D01*
X025722Y017060D01*
X025782Y017206D01*
X025782Y017365D01*
X025722Y017511D01*
X025689Y017543D01*
X025689Y017584D01*
X026588Y016685D01*
X026277Y016685D01*
X025984Y016392D01*
X025984Y015978D01*
X026277Y015685D01*
X026691Y015685D01*
X026984Y015978D01*
X026984Y016289D01*
X026984Y016064D02*
X026984Y016064D01*
X026984Y015906D02*
X026911Y015906D01*
X027000Y015747D02*
X026753Y015747D01*
X027074Y015588D02*
X025329Y015588D01*
X025329Y015747D02*
X026215Y015747D01*
X026057Y015906D02*
X025329Y015906D01*
X025329Y016064D02*
X025984Y016064D01*
X025984Y016223D02*
X025329Y016223D01*
X025329Y016381D02*
X025984Y016381D01*
X026131Y016540D02*
X025329Y016540D01*
X025329Y016698D02*
X026575Y016698D01*
X026417Y016857D02*
X025329Y016857D01*
X025677Y017015D02*
X026258Y017015D01*
X026100Y017174D02*
X025769Y017174D01*
X025782Y017332D02*
X025941Y017332D01*
X025783Y017491D02*
X025730Y017491D01*
X025009Y017985D02*
X025009Y015285D01*
X025084Y015210D01*
X027834Y015210D01*
X028034Y015010D01*
X028151Y015511D02*
X028060Y015602D01*
X027984Y015786D01*
X027984Y016339D01*
X027984Y016339D01*
X027984Y015786D01*
X027908Y015602D01*
X027836Y015530D01*
X027863Y015530D01*
X027864Y015531D01*
X027911Y015550D01*
X027933Y015550D01*
X027954Y015556D01*
X028005Y015550D01*
X028057Y015550D01*
X028077Y015542D01*
X028098Y015540D01*
X028143Y015515D01*
X028151Y015511D01*
X028074Y015588D02*
X027894Y015588D01*
X027968Y015747D02*
X028000Y015747D01*
X027984Y015906D02*
X027984Y015906D01*
X027984Y016064D02*
X027984Y016064D01*
X027984Y016223D02*
X027984Y016223D01*
X028984Y016223D02*
X028984Y016223D01*
X028984Y016289D02*
X028984Y016289D01*
X028984Y015786D01*
X028984Y016289D01*
X028984Y016064D02*
X028984Y016064D01*
X028984Y015906D02*
X028984Y015906D01*
X029000Y015747D02*
X028968Y015747D01*
X028894Y015588D02*
X029074Y015588D01*
X029277Y015430D02*
X028714Y015430D01*
X028809Y014985D02*
X032109Y014985D01*
X032159Y014935D01*
X031838Y014637D02*
X029081Y014637D01*
X029691Y015430D02*
X030277Y015430D01*
X030074Y015588D02*
X029894Y015588D01*
X029968Y015747D02*
X030000Y015747D01*
X029984Y015786D02*
X029984Y016339D01*
X029984Y016339D01*
X029984Y015786D01*
X029984Y015906D02*
X029984Y015906D01*
X029984Y016064D02*
X029984Y016064D01*
X029984Y016223D02*
X029984Y016223D01*
X030484Y016235D02*
X030484Y016185D01*
X030484Y016235D02*
X027084Y019635D01*
X027089Y019235D02*
X025789Y019235D01*
X025789Y019393D02*
X026760Y019393D01*
X026686Y019552D02*
X025774Y019552D01*
X025655Y019711D02*
X026684Y019711D01*
X026752Y019869D02*
X025496Y019869D01*
X025777Y019076D02*
X025933Y019076D01*
X026135Y019076D02*
X026412Y019076D01*
X026659Y018760D02*
X026909Y018760D01*
X029484Y016185D01*
X030691Y015430D02*
X031277Y015430D01*
X031074Y015588D02*
X030894Y015588D01*
X030968Y015747D02*
X031000Y015747D01*
X030984Y015786D02*
X030984Y016339D01*
X030984Y016339D01*
X030984Y015786D01*
X030984Y015906D02*
X030984Y015906D01*
X030984Y016064D02*
X030984Y016064D01*
X030984Y016223D02*
X030984Y016223D01*
X031484Y016235D02*
X031484Y016185D01*
X031484Y016235D02*
X026984Y020735D01*
X026384Y020735D01*
X027612Y020503D02*
X027820Y020503D01*
X027771Y020345D02*
X027979Y020345D01*
X027929Y020186D02*
X028137Y020186D01*
X028088Y020028D02*
X028296Y020028D01*
X028246Y019869D02*
X028454Y019869D01*
X028405Y019711D02*
X028613Y019711D01*
X028563Y019552D02*
X028771Y019552D01*
X028722Y019393D02*
X028930Y019393D01*
X028880Y019235D02*
X029089Y019235D01*
X029039Y019076D02*
X029247Y019076D01*
X029198Y018918D02*
X029406Y018918D01*
X029356Y018759D02*
X029564Y018759D01*
X029515Y018601D02*
X029723Y018601D01*
X029673Y018442D02*
X029881Y018442D01*
X029832Y018284D02*
X030040Y018284D01*
X029990Y018125D02*
X030198Y018125D01*
X028833Y017491D02*
X028574Y017491D01*
X028674Y017649D02*
X028416Y017649D01*
X028516Y017808D02*
X028257Y017808D01*
X028357Y017967D02*
X028099Y017967D01*
X028198Y018125D02*
X027940Y018125D01*
X028040Y018284D02*
X027782Y018284D01*
X027881Y018442D02*
X027623Y018442D01*
X027723Y018601D02*
X027465Y018601D01*
X027564Y018759D02*
X027306Y018759D01*
X027406Y018918D02*
X027148Y018918D01*
X027247Y019076D02*
X026906Y019076D01*
X026832Y018284D02*
X026990Y018284D01*
X026990Y018125D02*
X027148Y018125D01*
X027149Y017967D02*
X027307Y017967D01*
X027307Y017808D02*
X027466Y017808D01*
X027466Y017649D02*
X027624Y017649D01*
X027624Y017491D02*
X027783Y017491D01*
X025029Y019076D02*
X024576Y019076D01*
X024714Y018918D02*
X024871Y018918D01*
X024234Y020735D02*
X024084Y020735D01*
X023753Y020503D02*
X023722Y020503D01*
X023675Y021772D02*
X017516Y021772D01*
X017675Y021930D02*
X023661Y021930D01*
X023712Y022089D02*
X017833Y022089D01*
X017992Y022247D02*
X023829Y022247D01*
X023829Y022406D02*
X018151Y022406D01*
X018309Y022564D02*
X023829Y022564D01*
X023735Y022723D02*
X018468Y022723D01*
X018626Y022881D02*
X023711Y022881D01*
X023753Y023040D02*
X018785Y023040D01*
X018943Y023199D02*
X023885Y023199D01*
X024109Y022860D02*
X024109Y021935D01*
X024059Y021885D01*
X024443Y021772D02*
X029878Y021772D01*
X029789Y021930D02*
X024457Y021930D01*
X024406Y022089D02*
X029771Y022089D01*
X029812Y022247D02*
X024389Y022247D01*
X024389Y022406D02*
X029935Y022406D01*
X030483Y022406D02*
X030827Y022406D01*
X030986Y022564D02*
X024389Y022564D01*
X024483Y022723D02*
X025629Y022723D01*
X025839Y022723D02*
X031144Y022723D01*
X031303Y022881D02*
X027001Y022881D01*
X026834Y023110D02*
X028484Y024760D01*
X028484Y026185D01*
X027984Y026211D02*
X027984Y026211D01*
X027984Y026369D02*
X027984Y026369D01*
X027984Y026528D02*
X027984Y026528D01*
X027984Y026585D02*
X028060Y026769D01*
X028201Y026909D01*
X028385Y026985D01*
X028584Y026985D01*
X028767Y026909D01*
X028908Y026769D01*
X028984Y026585D01*
X028984Y025786D01*
X028984Y026585D01*
X029060Y026769D01*
X029201Y026909D01*
X029204Y026911D01*
X029204Y028819D01*
X027764Y030259D01*
X027764Y026911D01*
X027767Y026909D01*
X027908Y026769D01*
X027984Y026585D01*
X027984Y025786D01*
X027984Y026585D01*
X028026Y026686D02*
X027942Y026686D01*
X027832Y026845D02*
X028137Y026845D01*
X027764Y027004D02*
X029204Y027004D01*
X029204Y027162D02*
X027764Y027162D01*
X027764Y027321D02*
X029204Y027321D01*
X029204Y027479D02*
X027764Y027479D01*
X027764Y027638D02*
X029204Y027638D01*
X029204Y027796D02*
X027764Y027796D01*
X027764Y027955D02*
X029204Y027955D01*
X029204Y028113D02*
X027764Y028113D01*
X027764Y028272D02*
X029204Y028272D01*
X029204Y028430D02*
X027764Y028430D01*
X027764Y028589D02*
X029204Y028589D01*
X029204Y028748D02*
X027764Y028748D01*
X027764Y028906D02*
X029117Y028906D01*
X028959Y029065D02*
X027764Y029065D01*
X027764Y029223D02*
X028800Y029223D01*
X028642Y029382D02*
X027764Y029382D01*
X027764Y029540D02*
X028483Y029540D01*
X028325Y029699D02*
X027764Y029699D01*
X027764Y029857D02*
X028166Y029857D01*
X028008Y030016D02*
X027764Y030016D01*
X027764Y030174D02*
X027849Y030174D01*
X027484Y030535D02*
X027484Y026185D01*
X026984Y026211D02*
X026984Y026211D01*
X026984Y026369D02*
X026984Y026369D01*
X026984Y026528D02*
X026984Y026528D01*
X026984Y026585D02*
X026984Y025786D01*
X026984Y026585D01*
X026908Y026769D01*
X026767Y026909D01*
X026584Y026985D01*
X026385Y026985D01*
X026201Y026909D01*
X026060Y026769D01*
X025984Y026585D01*
X025984Y026449D01*
X025849Y026584D01*
X025849Y028463D01*
X025849Y028608D01*
X025794Y028742D01*
X024475Y030060D01*
X024580Y030165D01*
X024799Y030165D01*
X025084Y030450D01*
X025369Y030165D01*
X025799Y030165D01*
X026104Y030470D01*
X026104Y030901D01*
X025819Y031185D01*
X026104Y031470D01*
X026104Y031519D01*
X027204Y030419D01*
X027204Y026911D01*
X027201Y026909D01*
X027060Y026769D01*
X026984Y026585D01*
X027026Y026686D02*
X026942Y026686D01*
X026832Y026845D02*
X027137Y026845D01*
X027204Y027004D02*
X025849Y027004D01*
X025849Y027162D02*
X027204Y027162D01*
X027204Y027321D02*
X025849Y027321D01*
X025849Y027479D02*
X027204Y027479D01*
X027204Y027638D02*
X025849Y027638D01*
X025849Y027796D02*
X027204Y027796D01*
X027204Y027955D02*
X025849Y027955D01*
X025849Y028113D02*
X027204Y028113D01*
X027204Y028272D02*
X025849Y028272D01*
X025849Y028430D02*
X027204Y028430D01*
X027204Y028589D02*
X025849Y028589D01*
X025788Y028748D02*
X027204Y028748D01*
X027204Y028906D02*
X025630Y028906D01*
X025471Y029065D02*
X027204Y029065D01*
X027204Y029223D02*
X025312Y029223D01*
X025154Y029382D02*
X027204Y029382D01*
X027204Y029540D02*
X024995Y029540D01*
X024837Y029699D02*
X027204Y029699D01*
X027204Y029857D02*
X024678Y029857D01*
X024520Y030016D02*
X027204Y030016D01*
X027204Y030174D02*
X025809Y030174D01*
X025967Y030333D02*
X027204Y030333D01*
X027132Y030491D02*
X026104Y030491D01*
X026104Y030650D02*
X026974Y030650D01*
X026815Y030809D02*
X026104Y030809D01*
X026038Y030967D02*
X026656Y030967D01*
X026498Y031126D02*
X025879Y031126D01*
X025918Y031284D02*
X026339Y031284D01*
X026181Y031443D02*
X026077Y031443D01*
X025349Y031185D02*
X025064Y031470D01*
X025064Y031901D01*
X025119Y031955D01*
X024993Y031955D01*
X025064Y031884D01*
X025064Y031487D01*
X024783Y031205D01*
X024385Y031205D01*
X024293Y031298D01*
X024021Y031027D01*
X023971Y030977D01*
X024064Y030884D01*
X024064Y030681D01*
X024064Y030682D01*
X024064Y030901D01*
X024369Y031205D01*
X024799Y031205D01*
X025084Y030921D01*
X025349Y031185D01*
X025289Y031126D02*
X024879Y031126D01*
X024862Y031284D02*
X025250Y031284D01*
X025091Y031443D02*
X025020Y031443D01*
X025064Y031601D02*
X025064Y031601D01*
X025064Y031760D02*
X025064Y031760D01*
X025082Y031918D02*
X025030Y031918D01*
X024584Y031685D02*
X024284Y031685D01*
X023784Y031185D01*
X023384Y031185D01*
X023084Y031485D01*
X023084Y031885D01*
X023734Y032535D01*
X025884Y032535D01*
X025784Y032235D02*
X027484Y030535D01*
X025784Y032235D02*
X024434Y032235D01*
X023884Y031685D01*
X023584Y031685D01*
X023876Y032073D02*
X024058Y032255D01*
X023850Y032255D01*
X023760Y032165D01*
X023783Y032165D01*
X023876Y032073D01*
X023880Y032077D02*
X023871Y032077D01*
X023830Y032235D02*
X024038Y032235D01*
X023355Y032553D02*
X016734Y032553D01*
X016694Y032711D02*
X023514Y032711D01*
X023197Y032394D02*
X016871Y032394D01*
X017030Y032235D02*
X023038Y032235D01*
X022880Y032077D02*
X022871Y032077D01*
X022297Y032077D02*
X021871Y032077D01*
X021783Y032165D02*
X022064Y031884D01*
X022064Y031487D01*
X021783Y031205D01*
X021385Y031205D01*
X021104Y031487D01*
X021104Y031884D01*
X021385Y032165D01*
X021783Y032165D01*
X022030Y031918D02*
X022138Y031918D01*
X022104Y031760D02*
X022064Y031760D01*
X022064Y031601D02*
X022104Y031601D01*
X022148Y031443D02*
X022020Y031443D01*
X021862Y031284D02*
X022306Y031284D01*
X022346Y031126D02*
X021879Y031126D01*
X022038Y030967D02*
X022187Y030967D01*
X022823Y031126D02*
X023048Y031126D01*
X022981Y030967D02*
X023187Y030967D01*
X023104Y030809D02*
X023064Y030809D01*
X023064Y030650D02*
X023104Y030650D01*
X023104Y030491D02*
X023064Y030491D01*
X023981Y030967D02*
X024131Y030967D01*
X024120Y031126D02*
X024289Y031126D01*
X024306Y031284D02*
X024279Y031284D01*
X024064Y030809D02*
X024064Y030809D01*
X024809Y030174D02*
X025360Y030174D01*
X025201Y030333D02*
X024967Y030333D01*
X025038Y030967D02*
X025131Y030967D01*
X023805Y029699D02*
X019567Y029699D01*
X019725Y029540D02*
X023963Y029540D01*
X024122Y029382D02*
X019884Y029382D01*
X020042Y029223D02*
X024280Y029223D01*
X024439Y029065D02*
X020201Y029065D01*
X020359Y028906D02*
X024597Y028906D01*
X024756Y028748D02*
X020518Y028748D01*
X020676Y028589D02*
X024914Y028589D01*
X025073Y028430D02*
X020835Y028430D01*
X020994Y028272D02*
X025119Y028272D01*
X025119Y028113D02*
X021152Y028113D01*
X021311Y027955D02*
X025119Y027955D01*
X025119Y027796D02*
X021469Y027796D01*
X021628Y027638D02*
X025119Y027638D01*
X025119Y027479D02*
X021714Y027479D01*
X021714Y027321D02*
X025119Y027321D01*
X025119Y027162D02*
X021714Y027162D01*
X021714Y027004D02*
X025119Y027004D01*
X025119Y026845D02*
X023832Y026845D01*
X023942Y026686D02*
X025119Y026686D01*
X025063Y026528D02*
X023984Y026528D01*
X023984Y026369D02*
X024944Y026369D01*
X024944Y026211D02*
X023984Y026211D01*
X023984Y026052D02*
X024944Y026052D01*
X025012Y025894D02*
X023984Y025894D01*
X023963Y025735D02*
X025171Y025735D01*
X025798Y025735D02*
X026005Y025735D01*
X025984Y025894D02*
X025956Y025894D01*
X026086Y025577D02*
X023883Y025577D01*
X023663Y025418D02*
X026306Y025418D01*
X026663Y025418D02*
X027306Y025418D01*
X027086Y025577D02*
X026883Y025577D01*
X026963Y025735D02*
X027005Y025735D01*
X026984Y025894D02*
X026984Y025894D01*
X026984Y026052D02*
X026984Y026052D01*
X027663Y025418D02*
X028204Y025418D01*
X028204Y025260D02*
X021004Y025260D01*
X021163Y025418D02*
X021306Y025418D01*
X021663Y025418D02*
X022306Y025418D01*
X022086Y025577D02*
X021883Y025577D01*
X021963Y025735D02*
X022005Y025735D01*
X021984Y025786D02*
X021984Y026585D01*
X021984Y025786D01*
X021984Y025894D02*
X021984Y025894D01*
X021984Y026052D02*
X021984Y026052D01*
X021984Y026211D02*
X021984Y026211D01*
X021984Y026369D02*
X021984Y026369D01*
X021984Y026528D02*
X021984Y026528D01*
X022026Y026686D02*
X021942Y026686D01*
X021832Y026845D02*
X022137Y026845D01*
X022832Y026845D02*
X023137Y026845D01*
X023026Y026686D02*
X022942Y026686D01*
X022984Y026585D02*
X022984Y025786D01*
X022984Y026585D01*
X022984Y026528D02*
X022984Y026528D01*
X022984Y026369D02*
X022984Y026369D01*
X022984Y026211D02*
X022984Y026211D01*
X022984Y026052D02*
X022984Y026052D01*
X022984Y025894D02*
X022984Y025894D01*
X023005Y025735D02*
X022963Y025735D01*
X022883Y025577D02*
X023086Y025577D01*
X023306Y025418D02*
X022663Y025418D01*
X021484Y026135D02*
X021484Y026185D01*
X021434Y026235D01*
X021434Y027435D01*
X016334Y032535D01*
X015960Y032394D02*
X012089Y032394D01*
X012247Y032553D02*
X015934Y032553D01*
X015974Y032711D02*
X012406Y032711D01*
X012564Y032870D02*
X016103Y032870D01*
X016565Y032870D02*
X034904Y032870D01*
X034814Y031519D02*
X034814Y031519D01*
X034841Y031443D02*
X034770Y031443D01*
X034612Y031284D02*
X035000Y031284D01*
X035039Y031126D02*
X034629Y031126D01*
X034788Y030967D02*
X034881Y030967D01*
X035569Y031185D02*
X035604Y031220D01*
X035604Y031151D01*
X035569Y031185D01*
X035604Y030174D02*
X035559Y030174D01*
X035604Y030016D02*
X034181Y030016D01*
X034022Y029857D02*
X035604Y029857D01*
X035604Y029699D02*
X030764Y029699D01*
X030764Y029857D02*
X031846Y029857D01*
X031687Y030016D02*
X030764Y030016D01*
X030764Y030174D02*
X031110Y030174D01*
X030951Y030333D02*
X030764Y030333D01*
X030764Y030491D02*
X030814Y030491D01*
X030814Y030650D02*
X030764Y030650D01*
X030764Y030809D02*
X030814Y030809D01*
X030764Y030967D02*
X030881Y030967D01*
X030764Y031126D02*
X031039Y031126D01*
X031056Y031284D02*
X030764Y031284D01*
X030787Y031443D02*
X030898Y031443D01*
X031612Y031284D02*
X032056Y031284D01*
X032096Y031126D02*
X031629Y031126D01*
X031788Y030967D02*
X031937Y030967D01*
X031888Y031443D02*
X031770Y031443D01*
X032038Y032077D02*
X032047Y032077D01*
X032731Y030967D02*
X032937Y030967D01*
X032854Y030809D02*
X032814Y030809D01*
X032814Y030650D02*
X032854Y030650D01*
X032854Y030491D02*
X032814Y030491D01*
X034559Y030174D02*
X035110Y030174D01*
X034951Y030333D02*
X034717Y030333D01*
X035604Y029540D02*
X030764Y029540D01*
X030764Y029382D02*
X035604Y029382D01*
X035604Y029223D02*
X030764Y029223D01*
X030764Y029065D02*
X035604Y029065D01*
X035604Y028906D02*
X030764Y028906D01*
X030764Y028748D02*
X035604Y028748D01*
X035604Y028589D02*
X030764Y028589D01*
X030764Y028430D02*
X035604Y028430D01*
X035604Y028272D02*
X030764Y028272D01*
X030764Y028113D02*
X035604Y028113D01*
X035604Y027955D02*
X030764Y027955D01*
X030764Y027796D02*
X035604Y027796D01*
X035541Y027638D02*
X030764Y027638D01*
X030764Y027479D02*
X035382Y027479D01*
X035223Y027321D02*
X030764Y027321D01*
X030764Y027162D02*
X035065Y027162D01*
X034906Y027004D02*
X030764Y027004D01*
X030832Y026845D02*
X031137Y026845D01*
X031026Y026686D02*
X030942Y026686D01*
X030984Y026528D02*
X030984Y026528D01*
X030984Y026369D02*
X030984Y026369D01*
X030984Y026211D02*
X030984Y026211D01*
X030984Y026052D02*
X030984Y026052D01*
X030984Y025894D02*
X030984Y025894D01*
X031005Y025735D02*
X030963Y025735D01*
X030883Y025577D02*
X031086Y025577D01*
X031306Y025418D02*
X030663Y025418D01*
X031663Y025418D02*
X032306Y025418D01*
X032086Y025577D02*
X031883Y025577D01*
X031963Y025735D02*
X032005Y025735D01*
X031984Y025894D02*
X031984Y025894D01*
X031984Y026052D02*
X031984Y026052D01*
X031984Y026211D02*
X031984Y026211D01*
X031984Y026369D02*
X031984Y026369D01*
X031984Y026528D02*
X031984Y026528D01*
X032026Y026686D02*
X031942Y026686D01*
X031832Y026845D02*
X032137Y026845D01*
X032832Y026845D02*
X033137Y026845D01*
X033026Y026686D02*
X032942Y026686D01*
X032984Y026528D02*
X032984Y026528D01*
X032984Y026369D02*
X032984Y026369D01*
X032984Y026211D02*
X032984Y026211D01*
X032984Y026052D02*
X032984Y026052D01*
X032984Y025894D02*
X032984Y025894D01*
X033005Y025735D02*
X032963Y025735D01*
X032883Y025577D02*
X033086Y025577D01*
X033306Y025418D02*
X032663Y025418D01*
X029086Y025577D02*
X028883Y025577D01*
X028963Y025735D02*
X029005Y025735D01*
X028984Y025894D02*
X028984Y025894D01*
X028984Y026052D02*
X028984Y026052D01*
X028984Y026211D02*
X028984Y026211D01*
X028984Y026369D02*
X028984Y026369D01*
X028984Y026528D02*
X028984Y026528D01*
X029026Y026686D02*
X028942Y026686D01*
X028832Y026845D02*
X029137Y026845D01*
X027984Y026052D02*
X027984Y026052D01*
X027984Y025894D02*
X027984Y025894D01*
X028005Y025735D02*
X027963Y025735D01*
X027883Y025577D02*
X028086Y025577D01*
X028204Y025101D02*
X020846Y025101D01*
X020687Y024942D02*
X028204Y024942D01*
X028112Y024784D02*
X020529Y024784D01*
X020370Y024625D02*
X027953Y024625D01*
X027795Y024467D02*
X020212Y024467D01*
X020053Y024308D02*
X027636Y024308D01*
X027478Y024150D02*
X019894Y024150D01*
X019736Y023991D02*
X027319Y023991D01*
X027161Y023833D02*
X019577Y023833D01*
X019419Y023674D02*
X027002Y023674D01*
X026843Y023516D02*
X019260Y023516D01*
X019102Y023357D02*
X025418Y023357D01*
X025340Y023199D02*
X024333Y023199D01*
X024466Y023040D02*
X025336Y023040D01*
X025400Y022881D02*
X024507Y022881D01*
X025734Y023110D02*
X026834Y023110D01*
X028067Y021155D02*
X028988Y021155D01*
X028961Y021090D01*
X028961Y020931D01*
X029022Y020785D01*
X029134Y020673D01*
X029280Y020612D01*
X029361Y020612D01*
X029858Y020115D01*
X029770Y020115D01*
X029711Y020174D01*
X029564Y020235D01*
X029405Y020235D01*
X029258Y020174D01*
X029145Y020062D01*
X029118Y019997D01*
X028084Y021031D01*
X028084Y021115D01*
X028067Y021155D01*
X028075Y021137D02*
X028981Y021137D01*
X028961Y020979D02*
X028136Y020979D01*
X028295Y020820D02*
X029007Y020820D01*
X029160Y020662D02*
X028454Y020662D01*
X028612Y020503D02*
X029470Y020503D01*
X029629Y020345D02*
X028771Y020345D01*
X028929Y020186D02*
X029286Y020186D01*
X029131Y020028D02*
X029088Y020028D01*
X029682Y020186D02*
X029787Y020186D01*
X030034Y020335D02*
X029359Y021010D01*
X029757Y021008D02*
X029865Y020900D01*
X029922Y021036D01*
X030034Y021148D01*
X030052Y021155D01*
X029730Y021155D01*
X029757Y021090D01*
X029757Y021008D01*
X029786Y020979D02*
X029898Y020979D01*
X030023Y021137D02*
X029737Y021137D01*
X030259Y020810D02*
X030284Y020785D01*
X033559Y020785D01*
X033939Y020662D02*
X034248Y020662D01*
X034484Y020335D02*
X030034Y020335D01*
X030567Y021065D02*
X030632Y021065D01*
X030558Y021096D01*
X030498Y021155D01*
X030466Y021155D01*
X030485Y021148D01*
X030567Y021065D01*
X030516Y021137D02*
X030495Y021137D01*
X031984Y016339D02*
X031984Y015786D01*
X031984Y016339D01*
X031984Y016339D01*
X031984Y016223D02*
X031984Y016223D01*
X031984Y016064D02*
X031984Y016064D01*
X031984Y015906D02*
X031984Y015906D01*
X032000Y015747D02*
X031968Y015747D01*
X031894Y015588D02*
X032074Y015588D01*
X032277Y015430D02*
X031691Y015430D01*
X034761Y014796D02*
X037199Y014796D01*
X037357Y014954D02*
X034919Y014954D01*
X035078Y015113D02*
X037516Y015113D01*
X037674Y015271D02*
X035236Y015271D01*
X035395Y015430D02*
X037833Y015430D01*
X037991Y015588D02*
X035553Y015588D01*
X035712Y015747D02*
X038150Y015747D01*
X038308Y015906D02*
X035870Y015906D01*
X037515Y014320D02*
X040389Y014320D01*
X040389Y014162D02*
X037356Y014162D01*
X037198Y014003D02*
X040389Y014003D01*
X040389Y013844D02*
X037039Y013844D01*
X036881Y013686D02*
X040389Y013686D01*
X040389Y013527D02*
X036722Y013527D01*
X036564Y013369D02*
X040389Y013369D01*
X040389Y013210D02*
X036405Y013210D01*
X036246Y013052D02*
X040389Y013052D01*
X040389Y012893D02*
X036088Y012893D01*
X035929Y012735D02*
X040389Y012735D01*
X040389Y012576D02*
X035771Y012576D01*
X035612Y012418D02*
X040389Y012418D01*
X040389Y012259D02*
X035454Y012259D01*
X035295Y012100D02*
X040389Y012100D01*
X040389Y011942D02*
X035137Y011942D01*
X034978Y011783D02*
X040389Y011783D01*
X040389Y011625D02*
X034820Y011625D01*
X034661Y011466D02*
X040389Y011466D01*
X040389Y011308D02*
X034502Y011308D01*
X034344Y011149D02*
X040389Y011149D01*
X040389Y010991D02*
X034185Y010991D01*
X034027Y010832D02*
X040389Y010832D01*
X040389Y010674D02*
X033868Y010674D01*
X033710Y010515D02*
X040389Y010515D01*
X040389Y010356D02*
X033551Y010356D01*
X033393Y010198D02*
X040389Y010198D01*
X040389Y010039D02*
X033234Y010039D01*
X033076Y009881D02*
X040389Y009881D01*
X040389Y009722D02*
X032917Y009722D01*
X032759Y009564D02*
X040389Y009564D01*
X040389Y009405D02*
X032600Y009405D01*
X032441Y009247D02*
X040389Y009247D01*
X040389Y009088D02*
X032283Y009088D01*
X032124Y008930D02*
X040389Y008930D01*
X040389Y008771D02*
X031966Y008771D01*
X031807Y008613D02*
X040389Y008613D01*
X040389Y008454D02*
X031649Y008454D01*
X031490Y008295D02*
X040389Y008295D01*
X040389Y008137D02*
X031332Y008137D01*
X031173Y007978D02*
X040389Y007978D01*
X040389Y007820D02*
X031015Y007820D01*
X030856Y007661D02*
X040389Y007661D01*
X040389Y007503D02*
X030697Y007503D01*
X030539Y007344D02*
X040389Y007344D01*
X040389Y007186D02*
X030380Y007186D01*
X030222Y007027D02*
X040389Y007027D01*
X040389Y006869D02*
X030063Y006869D01*
X029905Y006710D02*
X040389Y006710D01*
X040389Y006551D02*
X029746Y006551D01*
X029588Y006393D02*
X040389Y006393D01*
X040389Y006234D02*
X029429Y006234D01*
X029271Y006076D02*
X040389Y006076D01*
X040389Y005917D02*
X029112Y005917D01*
X028953Y005759D02*
X040389Y005759D01*
X040389Y005600D02*
X030334Y005600D01*
X030196Y005657D02*
X030488Y005536D01*
X030711Y005313D01*
X030832Y005021D01*
X030832Y004704D01*
X030711Y004412D01*
X030488Y004189D01*
X030196Y004068D01*
X029879Y004068D01*
X029587Y004189D01*
X029364Y004412D01*
X029242Y004704D01*
X029242Y005021D01*
X029364Y005313D01*
X029587Y005536D01*
X029879Y005657D01*
X030196Y005657D01*
X030582Y005442D02*
X040389Y005442D01*
X040389Y005283D02*
X030724Y005283D01*
X030789Y005125D02*
X040389Y005125D01*
X040389Y004966D02*
X030832Y004966D01*
X030832Y004807D02*
X040389Y004807D01*
X040389Y004649D02*
X030809Y004649D01*
X030744Y004490D02*
X040389Y004490D01*
X040389Y004332D02*
X030631Y004332D01*
X030451Y004173D02*
X040389Y004173D01*
X040389Y004015D02*
X024824Y004015D01*
X024824Y004173D02*
X029624Y004173D01*
X029444Y004332D02*
X024824Y004332D01*
X024773Y004490D02*
X029331Y004490D01*
X029265Y004649D02*
X024659Y004649D01*
X024620Y004807D02*
X029242Y004807D01*
X029242Y004966D02*
X024757Y004966D01*
X024823Y005125D02*
X029286Y005125D01*
X029351Y005283D02*
X024824Y005283D01*
X024841Y005442D02*
X024824Y005442D01*
X024704Y006179D02*
X024704Y006392D01*
X024598Y006285D01*
X024704Y006179D01*
X024704Y006234D02*
X024649Y006234D01*
X025264Y006076D02*
X028228Y006076D01*
X028484Y006385D02*
X026584Y006385D01*
X028725Y006710D02*
X029113Y006710D01*
X028954Y006551D02*
X028848Y006551D01*
X028795Y005600D02*
X029741Y005600D01*
X029492Y005442D02*
X028627Y005442D01*
X027701Y003856D02*
X040389Y003856D01*
X040389Y003698D02*
X028105Y003698D01*
X028124Y003690D02*
X028124Y003690D01*
X028314Y003539D02*
X040389Y003539D01*
X040389Y003381D02*
X028512Y003381D01*
X028516Y003378D02*
X028516Y003378D01*
X028622Y003222D02*
X040389Y003222D01*
X040389Y003064D02*
X028730Y003064D01*
X028816Y002905D02*
X040389Y002905D01*
X040389Y002746D02*
X028865Y002746D01*
X028914Y002588D02*
X040389Y002588D01*
X040389Y002429D02*
X028945Y002429D01*
X028945Y002271D02*
X040389Y002271D01*
X040389Y002112D02*
X028945Y002112D01*
X028936Y001954D02*
X040389Y001954D01*
X040389Y001795D02*
X028887Y001795D01*
X028838Y001637D02*
X040389Y001637D01*
X040389Y001478D02*
X028778Y001478D01*
X028670Y001320D02*
X040389Y001320D01*
X040389Y001161D02*
X028562Y001161D01*
X026081Y003381D02*
X024753Y003381D01*
X024818Y003539D02*
X026228Y003539D01*
X026237Y003549D02*
X026237Y003549D01*
X026495Y003698D02*
X024824Y003698D01*
X024824Y003856D02*
X026920Y003856D01*
X027159Y003911D02*
X027159Y003911D01*
X027658Y003873D02*
X027658Y003873D01*
X024077Y001637D02*
X023491Y001637D01*
X023708Y001795D02*
X023861Y001795D01*
X023077Y001637D02*
X022387Y001637D01*
X022651Y001795D02*
X022861Y001795D01*
X022775Y001954D02*
X022750Y001954D01*
X022762Y004412D02*
X022826Y004566D01*
X022978Y004718D01*
X023050Y004748D01*
X022978Y004778D01*
X022826Y004929D01*
X022762Y005084D01*
X022708Y004952D01*
X022567Y004811D01*
X022414Y004748D01*
X022567Y004684D01*
X022708Y004544D01*
X022762Y004412D01*
X022795Y004490D02*
X022730Y004490D01*
X022603Y004649D02*
X022909Y004649D01*
X022948Y004807D02*
X022558Y004807D01*
X022714Y004966D02*
X022811Y004966D01*
X023518Y004748D02*
X023590Y004718D01*
X023742Y004566D01*
X023784Y004464D01*
X023826Y004566D01*
X023978Y004718D01*
X024050Y004748D01*
X023978Y004778D01*
X023826Y004929D01*
X023784Y005031D01*
X023742Y004929D01*
X023590Y004778D01*
X023518Y004748D01*
X023620Y004807D02*
X023948Y004807D01*
X023909Y004649D02*
X023659Y004649D01*
X023773Y004490D02*
X023795Y004490D01*
X023811Y004966D02*
X023757Y004966D01*
X023784Y006039D02*
X023826Y006141D01*
X023970Y006285D01*
X023826Y006429D01*
X023784Y006531D01*
X023742Y006429D01*
X023598Y006285D01*
X023742Y006141D01*
X023784Y006039D01*
X023799Y006076D02*
X023769Y006076D01*
X023649Y006234D02*
X023919Y006234D01*
X023863Y006393D02*
X023705Y006393D01*
X022970Y006285D02*
X022826Y006141D01*
X022762Y005987D01*
X022708Y006119D01*
X022567Y006259D01*
X022504Y006285D01*
X022567Y006311D01*
X022708Y006452D01*
X022762Y006584D01*
X022826Y006429D01*
X022970Y006285D01*
X022919Y006234D02*
X022592Y006234D01*
X022649Y006393D02*
X022863Y006393D01*
X022776Y006551D02*
X022749Y006551D01*
X022726Y006076D02*
X022799Y006076D01*
X019843Y006076D02*
X019726Y006076D01*
X019784Y005935D02*
X019784Y005136D01*
X019784Y005935D01*
X019784Y005917D02*
X019784Y005917D01*
X019784Y005759D02*
X019784Y005759D01*
X019784Y005600D02*
X019784Y005600D01*
X019784Y005442D02*
X019784Y005442D01*
X019784Y005283D02*
X019784Y005283D01*
X019789Y005125D02*
X019779Y005125D01*
X019714Y004966D02*
X019854Y004966D01*
X019456Y010674D02*
X013592Y010674D01*
X013249Y011466D02*
X014295Y011466D01*
X013324Y011625D02*
X013091Y011625D01*
X013165Y011783D02*
X012932Y011783D01*
X013007Y011942D02*
X012773Y011942D01*
X012848Y012100D02*
X012615Y012100D01*
X012689Y012259D02*
X012456Y012259D01*
X007418Y010515D02*
X006427Y010515D01*
X006652Y010356D02*
X006873Y010356D01*
X006771Y010198D02*
X006741Y010198D01*
X012517Y017332D02*
X012708Y017332D01*
X012604Y017491D02*
X012604Y017491D01*
X012604Y017649D02*
X012604Y017649D01*
X012604Y017808D02*
X012604Y017808D01*
X012488Y017967D02*
X012737Y017967D01*
X012757Y018284D02*
X012411Y018284D01*
X012330Y018125D02*
X013078Y018125D01*
X013084Y017735D02*
X021484Y026135D01*
X020984Y026211D02*
X020984Y026211D01*
X020984Y026369D02*
X020984Y026369D01*
X020984Y026528D02*
X020984Y026528D01*
X020984Y026585D02*
X021060Y026769D01*
X021154Y026862D01*
X021154Y027319D01*
X017450Y031024D01*
X017423Y030959D01*
X017364Y030900D01*
X017364Y028751D01*
X019205Y026911D01*
X019385Y026985D01*
X019584Y026985D01*
X019767Y026909D01*
X019908Y026769D01*
X019984Y026585D01*
X020060Y026769D01*
X020201Y026909D01*
X020385Y026985D01*
X020584Y026985D01*
X020767Y026909D01*
X020908Y026769D01*
X020984Y026585D01*
X020984Y026031D01*
X020984Y026031D01*
X020984Y026585D01*
X021026Y026686D02*
X020942Y026686D01*
X020832Y026845D02*
X021137Y026845D01*
X021154Y027004D02*
X019112Y027004D01*
X018953Y027162D02*
X021154Y027162D01*
X021153Y027321D02*
X018795Y027321D01*
X018636Y027479D02*
X020994Y027479D01*
X020836Y027638D02*
X018478Y027638D01*
X018319Y027796D02*
X020677Y027796D01*
X020519Y027955D02*
X018161Y027955D01*
X018002Y028113D02*
X020360Y028113D01*
X020202Y028272D02*
X017844Y028272D01*
X017685Y028430D02*
X020043Y028430D01*
X019885Y028589D02*
X017526Y028589D01*
X017368Y028748D02*
X019726Y028748D01*
X019567Y028906D02*
X017364Y028906D01*
X017364Y029065D02*
X019409Y029065D01*
X019250Y029223D02*
X017364Y029223D01*
X017364Y029382D02*
X019092Y029382D01*
X018933Y029540D02*
X017364Y029540D01*
X017364Y029699D02*
X018775Y029699D01*
X018616Y029857D02*
X017364Y029857D01*
X017364Y030016D02*
X018458Y030016D01*
X018299Y030174D02*
X017364Y030174D01*
X017364Y030333D02*
X018141Y030333D01*
X017982Y030491D02*
X017364Y030491D01*
X017364Y030650D02*
X017823Y030650D01*
X017665Y030809D02*
X017364Y030809D01*
X017427Y030967D02*
X017506Y030967D01*
X017084Y031185D02*
X017084Y028635D01*
X019484Y026235D01*
X019484Y026185D01*
X019484Y026135D01*
X013084Y019735D01*
X013084Y019635D01*
X013564Y019611D02*
X013564Y019819D01*
X019205Y025460D01*
X019352Y025399D01*
X013564Y019611D01*
X013564Y019711D02*
X013663Y019711D01*
X013614Y019869D02*
X013822Y019869D01*
X013772Y020028D02*
X013981Y020028D01*
X013931Y020186D02*
X014139Y020186D01*
X014089Y020345D02*
X014298Y020345D01*
X014248Y020503D02*
X014456Y020503D01*
X014407Y020662D02*
X014615Y020662D01*
X014565Y020820D02*
X014773Y020820D01*
X014724Y020979D02*
X014932Y020979D01*
X014882Y021137D02*
X015090Y021137D01*
X015041Y021296D02*
X015249Y021296D01*
X015199Y021455D02*
X015407Y021455D01*
X015358Y021613D02*
X015566Y021613D01*
X015516Y021772D02*
X015724Y021772D01*
X015675Y021930D02*
X015883Y021930D01*
X015833Y022089D02*
X016042Y022089D01*
X015992Y022247D02*
X016200Y022247D01*
X016151Y022406D02*
X016359Y022406D01*
X016309Y022564D02*
X016517Y022564D01*
X016468Y022723D02*
X016676Y022723D01*
X016626Y022881D02*
X016834Y022881D01*
X016785Y023040D02*
X016993Y023040D01*
X016943Y023199D02*
X017151Y023199D01*
X017102Y023357D02*
X017310Y023357D01*
X017260Y023516D02*
X017468Y023516D01*
X017419Y023674D02*
X017627Y023674D01*
X017577Y023833D02*
X017786Y023833D01*
X017736Y023991D02*
X017944Y023991D01*
X017894Y024150D02*
X018103Y024150D01*
X018053Y024308D02*
X018261Y024308D01*
X018212Y024467D02*
X018420Y024467D01*
X018370Y024625D02*
X018578Y024625D01*
X018529Y024784D02*
X018737Y024784D01*
X018687Y024942D02*
X018895Y024942D01*
X018846Y025101D02*
X019054Y025101D01*
X019004Y025260D02*
X019212Y025260D01*
X019163Y025418D02*
X019306Y025418D01*
X019846Y025101D02*
X020054Y025101D01*
X020004Y025260D02*
X020212Y025260D01*
X020163Y025418D02*
X020306Y025418D01*
X020352Y025399D02*
X020205Y025460D01*
X013643Y018898D01*
X013542Y018856D01*
X013564Y018834D01*
X013564Y018611D01*
X020352Y025399D01*
X019895Y024942D02*
X019687Y024942D01*
X019737Y024784D02*
X019529Y024784D01*
X019578Y024625D02*
X019370Y024625D01*
X019420Y024467D02*
X019212Y024467D01*
X019261Y024308D02*
X019053Y024308D01*
X019103Y024150D02*
X018894Y024150D01*
X018944Y023991D02*
X018736Y023991D01*
X018786Y023833D02*
X018577Y023833D01*
X018627Y023674D02*
X018419Y023674D01*
X018468Y023516D02*
X018260Y023516D01*
X018310Y023357D02*
X018102Y023357D01*
X018151Y023199D02*
X017943Y023199D01*
X017993Y023040D02*
X017785Y023040D01*
X017834Y022881D02*
X017626Y022881D01*
X017676Y022723D02*
X017468Y022723D01*
X017517Y022564D02*
X017309Y022564D01*
X017359Y022406D02*
X017151Y022406D01*
X017200Y022247D02*
X016992Y022247D01*
X017042Y022089D02*
X016833Y022089D01*
X016883Y021930D02*
X016675Y021930D01*
X016724Y021772D02*
X016516Y021772D01*
X016566Y021613D02*
X016358Y021613D01*
X016407Y021455D02*
X016199Y021455D01*
X016249Y021296D02*
X016041Y021296D01*
X016090Y021137D02*
X015882Y021137D01*
X015932Y020979D02*
X015724Y020979D01*
X015773Y020820D02*
X015565Y020820D01*
X015615Y020662D02*
X015407Y020662D01*
X015456Y020503D02*
X015248Y020503D01*
X015298Y020345D02*
X015089Y020345D01*
X015139Y020186D02*
X014931Y020186D01*
X014980Y020028D02*
X014772Y020028D01*
X014822Y019869D02*
X014614Y019869D01*
X014663Y019711D02*
X014455Y019711D01*
X014505Y019552D02*
X014297Y019552D01*
X014346Y019393D02*
X014138Y019393D01*
X014188Y019235D02*
X013980Y019235D01*
X014029Y019076D02*
X013821Y019076D01*
X013871Y018918D02*
X013663Y018918D01*
X013712Y018759D02*
X013564Y018759D01*
X013484Y019135D02*
X020484Y026135D01*
X020484Y026185D01*
X019984Y026211D02*
X019984Y026211D01*
X019984Y026369D02*
X019984Y026369D01*
X019984Y026528D02*
X019984Y026528D01*
X019984Y026585D02*
X019984Y026031D01*
X019984Y026031D01*
X019984Y026585D01*
X020026Y026686D02*
X019942Y026686D01*
X019832Y026845D02*
X020137Y026845D01*
X019984Y026052D02*
X019984Y026052D01*
X020984Y026052D02*
X020984Y026052D01*
X018984Y026052D02*
X018984Y026052D01*
X018984Y026031D02*
X018984Y026339D01*
X018984Y026339D01*
X018984Y026031D01*
X018984Y026031D01*
X018984Y026211D02*
X018984Y026211D01*
X017984Y026052D02*
X017984Y026052D01*
X018163Y025418D02*
X018306Y025418D01*
X018212Y025260D02*
X018004Y025260D01*
X018054Y025101D02*
X017846Y025101D01*
X017895Y024942D02*
X017687Y024942D01*
X017737Y024784D02*
X017529Y024784D01*
X017578Y024625D02*
X017370Y024625D01*
X017420Y024467D02*
X017212Y024467D01*
X017261Y024308D02*
X017053Y024308D01*
X017103Y024150D02*
X016894Y024150D01*
X016944Y023991D02*
X016787Y023991D01*
X016786Y023833D02*
X016628Y023833D01*
X016627Y023674D02*
X016419Y023674D01*
X016468Y023516D02*
X016260Y023516D01*
X016310Y023357D02*
X016102Y023357D01*
X016151Y023199D02*
X015943Y023199D01*
X015993Y023040D02*
X015785Y023040D01*
X015834Y022881D02*
X015626Y022881D01*
X015676Y022723D02*
X015468Y022723D01*
X015517Y022564D02*
X015309Y022564D01*
X015359Y022406D02*
X015151Y022406D01*
X015200Y022247D02*
X014992Y022247D01*
X015042Y022089D02*
X014833Y022089D01*
X014883Y021930D02*
X014675Y021930D01*
X014724Y021772D02*
X014516Y021772D01*
X014566Y021613D02*
X014358Y021613D01*
X014407Y021455D02*
X014199Y021455D01*
X014249Y021296D02*
X013424Y021296D01*
X013419Y020979D02*
X013932Y020979D01*
X014090Y021137D02*
X012322Y021137D01*
X011847Y021137D02*
X011814Y021137D01*
X011254Y021137D02*
X002264Y021137D01*
X002264Y020979D02*
X011254Y020979D01*
X011254Y020820D02*
X002264Y020820D01*
X002264Y020662D02*
X011254Y020662D01*
X011254Y020503D02*
X002264Y020503D01*
X002264Y020345D02*
X011289Y020345D01*
X011437Y020186D02*
X002264Y020186D01*
X002264Y020028D02*
X011596Y020028D01*
X011639Y019869D02*
X002264Y019869D01*
X002264Y019711D02*
X011604Y019711D01*
X011604Y019552D02*
X002264Y019552D01*
X002264Y019393D02*
X011647Y019393D01*
X011806Y019235D02*
X002264Y019235D01*
X002264Y019076D02*
X011846Y019076D01*
X011688Y018918D02*
X002264Y018918D01*
X002264Y018759D02*
X011604Y018759D01*
X011604Y018601D02*
X002264Y018601D01*
X002264Y021296D02*
X011254Y021296D01*
X011254Y021455D02*
X002264Y021455D01*
X002264Y021613D02*
X011254Y021613D01*
X011254Y021772D02*
X002264Y021772D01*
X002264Y021930D02*
X011254Y021930D01*
X011254Y022089D02*
X002264Y022089D01*
X002264Y022247D02*
X011254Y022247D01*
X011254Y022406D02*
X002264Y022406D01*
X002264Y022564D02*
X011254Y022564D01*
X011254Y022723D02*
X002264Y022723D01*
X002264Y022881D02*
X011254Y022881D01*
X011254Y023040D02*
X002264Y023040D01*
X002264Y023199D02*
X011254Y023199D01*
X011254Y023357D02*
X002264Y023357D01*
X002264Y023516D02*
X011254Y023516D01*
X011254Y023674D02*
X002264Y023674D01*
X002264Y023833D02*
X011254Y023833D01*
X011254Y023991D02*
X009907Y023991D01*
X009923Y024784D02*
X011246Y024784D01*
X011484Y025185D02*
X007484Y029185D01*
X007884Y029223D02*
X012050Y029223D01*
X011892Y029382D02*
X007836Y029382D01*
X007672Y029540D02*
X011733Y029540D01*
X012367Y029699D02*
X016804Y029699D01*
X016804Y029857D02*
X014322Y029857D01*
X014481Y030016D02*
X016804Y030016D01*
X016804Y030174D02*
X016059Y030174D01*
X016217Y030333D02*
X016804Y030333D01*
X016804Y030491D02*
X016354Y030491D01*
X016354Y030650D02*
X016804Y030650D01*
X016804Y030809D02*
X016354Y030809D01*
X016288Y030967D02*
X016742Y030967D01*
X016684Y031126D02*
X016129Y031126D01*
X016168Y031284D02*
X016692Y031284D01*
X016776Y031443D02*
X016327Y031443D01*
X016354Y031601D02*
X016872Y031601D01*
X016714Y031760D02*
X016354Y031760D01*
X016336Y031918D02*
X016555Y031918D01*
X016397Y032077D02*
X016178Y032077D01*
X016068Y032235D02*
X011930Y032235D01*
X012121Y032077D02*
X012547Y032077D01*
X012635Y032165D02*
X013033Y032165D01*
X013314Y031884D01*
X013314Y031487D01*
X013033Y031205D01*
X012635Y031205D01*
X012354Y031487D01*
X012354Y031884D01*
X012635Y032165D01*
X012388Y031918D02*
X012280Y031918D01*
X012314Y031760D02*
X012354Y031760D01*
X012354Y031601D02*
X012314Y031601D01*
X012270Y031443D02*
X012398Y031443D01*
X012556Y031284D02*
X012112Y031284D01*
X012129Y031126D02*
X012596Y031126D01*
X012437Y030967D02*
X012288Y030967D01*
X012354Y030809D02*
X012354Y030809D01*
X012354Y030681D02*
X012354Y030681D01*
X013073Y031126D02*
X013596Y031126D01*
X013635Y031205D02*
X014033Y031205D01*
X014314Y031487D01*
X014314Y031884D01*
X014033Y032165D01*
X013635Y032165D01*
X013354Y031884D01*
X013354Y031487D01*
X013635Y031205D01*
X013556Y031284D02*
X013112Y031284D01*
X013270Y031443D02*
X013398Y031443D01*
X013354Y031601D02*
X013314Y031601D01*
X013314Y031760D02*
X013354Y031760D01*
X013388Y031918D02*
X013280Y031918D01*
X013121Y032077D02*
X013547Y032077D01*
X014121Y032077D02*
X014547Y032077D01*
X014635Y032165D02*
X015033Y032165D01*
X015314Y031884D01*
X015314Y031487D01*
X015033Y031205D01*
X014635Y031205D01*
X014354Y031487D01*
X014354Y031884D01*
X014635Y032165D01*
X014388Y031918D02*
X014280Y031918D01*
X014314Y031760D02*
X014354Y031760D01*
X014354Y031601D02*
X014314Y031601D01*
X014270Y031443D02*
X014398Y031443D01*
X014556Y031284D02*
X014112Y031284D01*
X014073Y031126D02*
X014539Y031126D01*
X014381Y030967D02*
X014231Y030967D01*
X013437Y030967D02*
X013231Y030967D01*
X013314Y030809D02*
X013354Y030809D01*
X013354Y030650D02*
X013314Y030650D01*
X013314Y030491D02*
X013354Y030491D01*
X012525Y029540D02*
X016804Y029540D01*
X016804Y029382D02*
X012684Y029382D01*
X012842Y029223D02*
X016804Y029223D01*
X016804Y029065D02*
X013001Y029065D01*
X013159Y028906D02*
X016804Y028906D01*
X016804Y028748D02*
X013318Y028748D01*
X013476Y028589D02*
X016804Y028589D01*
X016893Y028430D02*
X013635Y028430D01*
X013794Y028272D02*
X017052Y028272D01*
X017210Y028113D02*
X013952Y028113D01*
X014111Y027955D02*
X017369Y027955D01*
X017527Y027796D02*
X014269Y027796D01*
X014428Y027638D02*
X017686Y027638D01*
X017844Y027479D02*
X014586Y027479D01*
X014111Y027162D02*
X009903Y027162D01*
X009745Y027321D02*
X013953Y027321D01*
X013794Y027479D02*
X009586Y027479D01*
X009428Y027638D02*
X013636Y027638D01*
X013477Y027796D02*
X009269Y027796D01*
X009111Y027955D02*
X013319Y027955D01*
X013160Y028113D02*
X008952Y028113D01*
X008793Y028272D02*
X013002Y028272D01*
X012843Y028430D02*
X008635Y028430D01*
X008476Y028589D02*
X012685Y028589D01*
X012526Y028748D02*
X008318Y028748D01*
X008159Y028906D02*
X012367Y028906D01*
X012209Y029065D02*
X008001Y029065D01*
X010062Y027004D02*
X014270Y027004D01*
X015026Y026686D02*
X012341Y026686D01*
X012575Y026528D02*
X014984Y026528D01*
X014984Y026369D02*
X012668Y026369D01*
X012704Y026211D02*
X014984Y026211D01*
X014984Y026052D02*
X012698Y026052D01*
X012632Y025894D02*
X014984Y025894D01*
X015005Y025735D02*
X012488Y025735D01*
X012483Y024784D02*
X016737Y024784D01*
X016578Y024625D02*
X012610Y024625D01*
X012664Y024467D02*
X016150Y024467D01*
X016052Y024308D02*
X012664Y024308D01*
X012604Y024150D02*
X016034Y024150D01*
X015944Y023991D02*
X012467Y023991D01*
X011814Y023833D02*
X015786Y023833D01*
X015627Y023674D02*
X011814Y023674D01*
X011814Y023516D02*
X015468Y023516D01*
X015310Y023357D02*
X011814Y023357D01*
X011814Y023199D02*
X015151Y023199D01*
X014993Y023040D02*
X011814Y023040D01*
X011814Y022881D02*
X014834Y022881D01*
X014676Y022723D02*
X011814Y022723D01*
X011814Y022564D02*
X014517Y022564D01*
X014359Y022406D02*
X011814Y022406D01*
X013084Y021635D02*
X013984Y021635D01*
X013773Y020820D02*
X013564Y020820D01*
X013564Y020662D02*
X013615Y020662D01*
X013084Y020635D02*
X013084Y020335D01*
X012584Y019835D01*
X012584Y019435D01*
X012884Y019135D01*
X013484Y019135D01*
X012688Y018918D02*
X012480Y018918D01*
X012547Y019076D02*
X012322Y019076D01*
X012362Y019235D02*
X012389Y019235D01*
X012564Y018759D02*
X012604Y018759D01*
X012604Y018601D02*
X012564Y018601D01*
X012564Y018442D02*
X012604Y018442D01*
X013084Y017735D02*
X013084Y017635D01*
X017101Y016857D02*
X017148Y016857D01*
X017634Y019869D02*
X017722Y019869D01*
X020284Y020985D02*
X020359Y020985D01*
X016005Y025735D02*
X015963Y025735D01*
X015984Y025894D02*
X015984Y025894D01*
X015984Y026052D02*
X015984Y026052D01*
X016984Y026081D02*
X016984Y026081D01*
X016984Y026585D01*
X016984Y026081D01*
X016984Y026211D02*
X016984Y026211D01*
X016984Y026369D02*
X016984Y026369D01*
X016984Y026528D02*
X016984Y026528D01*
X017026Y026686D02*
X016942Y026686D01*
X016832Y026845D02*
X017137Y026845D01*
X015137Y026845D02*
X010220Y026845D01*
X010379Y026686D02*
X011387Y026686D01*
X011153Y026528D02*
X010537Y026528D01*
X010696Y026369D02*
X011060Y026369D01*
X011024Y026211D02*
X010855Y026211D01*
X011013Y026052D02*
X011031Y026052D01*
X010608Y025665D02*
X010144Y026129D01*
X010144Y026068D01*
X010062Y025869D01*
X009910Y025718D01*
X009784Y025665D01*
X010608Y025665D01*
X010538Y025735D02*
X009928Y025735D01*
X010072Y025894D02*
X010380Y025894D01*
X010221Y026052D02*
X010138Y026052D01*
X015059Y030174D02*
X015610Y030174D01*
X015451Y030333D02*
X015217Y030333D01*
X015288Y030967D02*
X015381Y030967D01*
X015539Y031126D02*
X015129Y031126D01*
X015112Y031284D02*
X015500Y031284D01*
X015341Y031443D02*
X015270Y031443D01*
X015314Y031601D02*
X015314Y031601D01*
X015314Y031760D02*
X015314Y031760D01*
X015332Y031918D02*
X015280Y031918D01*
X015121Y032077D02*
X015490Y032077D01*
X017188Y032077D02*
X021297Y032077D01*
X021138Y031918D02*
X017347Y031918D01*
X017506Y031760D02*
X021104Y031760D01*
X021104Y031601D02*
X017664Y031601D01*
X017823Y031443D02*
X021148Y031443D01*
X021306Y031284D02*
X017981Y031284D01*
X018140Y031126D02*
X021289Y031126D01*
X021131Y030967D02*
X018298Y030967D01*
X018457Y030809D02*
X021064Y030809D01*
X021064Y030650D02*
X018615Y030650D01*
X018774Y030491D02*
X021064Y030491D01*
X021201Y030333D02*
X018932Y030333D01*
X019091Y030174D02*
X021360Y030174D01*
X021937Y030016D02*
X019250Y030016D01*
X019408Y029857D02*
X022096Y029857D01*
X022862Y031284D02*
X022889Y031284D01*
X025849Y026845D02*
X026137Y026845D01*
X026026Y026686D02*
X025849Y026686D01*
X025905Y026528D02*
X025984Y026528D01*
X038942Y015747D02*
X040389Y015747D01*
X040389Y015906D02*
X039100Y015906D01*
X039259Y016064D02*
X040389Y016064D01*
X040389Y016223D02*
X039417Y016223D01*
X039576Y016381D02*
X040389Y016381D01*
X040389Y016540D02*
X039727Y016540D01*
X039764Y016698D02*
X040389Y016698D01*
X040389Y015588D02*
X038783Y015588D01*
X038625Y015430D02*
X040389Y015430D01*
X040389Y015271D02*
X038466Y015271D01*
X038308Y015113D02*
X040389Y015113D01*
X040389Y014954D02*
X038149Y014954D01*
X037990Y014796D02*
X040389Y014796D01*
X040389Y014637D02*
X037832Y014637D01*
X037673Y014479D02*
X040389Y014479D01*
X030498Y010515D02*
X030320Y010515D01*
X030034Y010235D02*
X029384Y010235D01*
X028184Y009885D02*
X025734Y012335D01*
X025890Y011783D02*
X022598Y011783D01*
X021517Y012735D02*
X020714Y012735D01*
X020714Y012893D02*
X021676Y012893D01*
X021834Y013052D02*
X020714Y013052D01*
X020714Y013210D02*
X021993Y013210D01*
X021359Y012576D02*
X020714Y012576D01*
X020714Y012418D02*
X021200Y012418D01*
X021042Y012259D02*
X020714Y012259D01*
X020714Y012100D02*
X020883Y012100D01*
X020725Y011942D02*
X020637Y011942D01*
X020566Y011783D02*
X020478Y011783D01*
X020407Y011625D02*
X020320Y011625D01*
X020249Y011466D02*
X020161Y011466D01*
X020090Y011308D02*
X020002Y011308D01*
X019932Y011149D02*
X019844Y011149D01*
X019773Y010991D02*
X019685Y010991D01*
X019615Y010832D02*
X019527Y010832D01*
X019369Y011466D02*
X018434Y011466D01*
X018389Y011625D02*
X019528Y011625D01*
X019686Y011783D02*
X018239Y011783D01*
X011314Y030809D02*
X011257Y030809D01*
X011381Y030967D02*
X011098Y030967D01*
X010940Y031126D02*
X011539Y031126D01*
X011556Y031284D02*
X010979Y031284D01*
X011137Y031443D02*
X011398Y031443D01*
X011354Y031601D02*
X011296Y031601D01*
X002858Y031047D02*
X002858Y031047D01*
X001870Y031121D02*
X001870Y031121D01*
X001863Y031126D02*
X001379Y031126D01*
X001379Y031284D02*
X001589Y031284D01*
X001437Y031372D02*
X001437Y031372D01*
X039608Y031047D02*
X039608Y031047D01*
X039807Y031126D02*
X040389Y031126D01*
X040389Y031284D02*
X040142Y031284D01*
X040074Y031230D02*
X040074Y031230D01*
X040340Y031443D02*
X040389Y031443D01*
X041246Y000285D02*
X041146Y000185D01*
X041284Y000185D01*
X041284Y000285D01*
X041246Y000285D01*
X041284Y000210D02*
X041170Y000210D01*
M02*
