%
M48
M72
T01C0.0236
T02C0.0240
T03C0.0320
T04C0.0360
T05C0.0374
T06C0.0400
T07C0.0433
T08C0.0630
T09C0.0906
T10C0.1181
%
T01
X9315Y14935
X12665Y14985
X13440Y15010
X16090Y17285
X16465Y17985
X15765Y18035
X16065Y18660
X17115Y18735
X17815Y17985
X17440Y17585
X19615Y18935
X20365Y19035
X20765Y19560
X20315Y19960
X20740Y20485
X21115Y20985
X18015Y20860
X17390Y20735
X16015Y21035
X17415Y21885
X17365Y22860
X15740Y23110
X12115Y21010
X11215Y20810
X11265Y22060
X7915Y20785
X6990Y20335
X6990Y19435
X7940Y19260
X2540Y17960
X14815Y18760
X21540Y13935
X21490Y12385
X23165Y7960
X25490Y7710
X25765Y4535
X30490Y11260
X29665Y12060
X27090Y11860
X36640Y4835
T02
X30890Y6035
X26440Y8785
X23440Y11435
X23440Y12435
X21890Y12985
X18490Y13685
X15740Y12335
X15740Y11335
X13290Y9885
X13190Y11335
X11440Y10235
X14990Y7135
X12990Y6385
X16490Y8685
X18490Y8685
X13040Y13985
X7990Y15035
X3190Y16585
X10690Y21435
X11990Y19835
X13790Y21035
X15090Y20735
X14390Y19635
X15440Y18685
X20190Y21035
X25040Y24185
X32190Y18135
X30940Y16885
X27990Y16985
X26490Y14185
X25740Y13635
X27990Y12685
X29990Y10685
X33990Y29185
X30990Y31185
X25140Y32535
X24390Y31185
T03
X22924Y21042
X24268Y19699
T04
X28390Y19635
X29390Y19635
X29390Y18635
X28390Y18635
X28390Y17635
X29390Y17635
X29390Y20635
X28390Y20635
X28390Y21635
X29390Y21635
X29640Y30685
X28640Y30685
X27640Y30685
X26640Y30685
X25640Y30685
X25640Y31685
X26640Y31685
X27640Y31685
X28640Y31685
X29640Y31685
X19890Y31685
X18890Y31685
X17890Y31685
X17890Y30685
X18890Y30685
X19890Y30685
X16890Y30685
X15890Y30685
X15890Y31685
X16890Y31685
X10140Y31685
X9140Y31685
X9140Y30685
X10140Y30685
X8140Y30685
X7140Y30685
X6140Y30685
X6140Y31685
X7140Y31685
X8140Y31685
X4490Y21885
X3490Y21885
X3490Y20885
X4490Y20885
X4490Y19885
X3490Y19885
T05
X32448Y6490
X32448Y5702
X33432Y5702
X33432Y6490
T06
X33240Y9710
X34240Y9710
X35240Y9710
X37790Y9885
X37790Y8885
X37790Y7885
X37790Y6885
X37790Y5885
X32240Y9710
X32965Y12985
X32965Y13985
X31015Y13910
X31015Y12910
X29040Y12910
X29040Y13910
X25990Y16185
X24990Y16185
X23990Y16185
X22990Y16185
X21990Y16185
X20990Y16185
X19990Y16185
X18990Y16185
X17990Y16185
X14990Y16185
X13990Y16185
X12990Y16185
X11990Y16185
X10990Y16185
X9990Y16185
X8990Y16185
X7990Y16185
X6990Y16185
X17190Y7035
X18190Y7035
X19190Y7035
X20190Y7035
X21190Y7035
X22190Y7035
X22190Y5535
X21190Y5535
X20190Y5535
X19190Y5535
X18190Y5535
X17190Y5535
X17190Y3960
X18190Y3960
X19190Y3960
X20190Y3960
X21190Y3960
X22190Y3960
X22190Y2435
X21190Y2435
X20190Y2435
X19190Y2435
X18190Y2435
X17190Y2435
X37790Y10885
X32170Y24395
X32170Y26175
X29610Y26175
X29610Y24395
X25990Y26185
X24990Y26185
X23990Y26185
X22990Y26185
X21990Y26185
X20990Y26185
X19990Y26185
X18990Y26185
X17990Y26185
X15990Y26185
X14990Y26185
X13990Y26185
X12990Y26185
X11990Y26185
X10990Y26185
X9990Y26185
X8990Y26185
X7990Y26185
X6990Y26185
T07
X11435Y13128
T08
X11437Y4863
T09
X30570Y4635
X35310Y4635
T10
X38990Y2185
X14190Y2235
X2240Y32685
X38990Y32685
M30
