G75*
G70*
%OFA0B0*%
%FSLAX24Y24*%
%IPPOS*%
%LPD*%
%AMOC8*
5,1,8,0,0,1.08239X$1,22.5*
%
%ADD10R,0.0630X0.0710*%
%ADD11OC8,0.0560*%
%ADD12R,0.0709X0.0630*%
%ADD13C,0.0600*%
%ADD14R,0.0591X0.0591*%
%ADD15R,0.0630X0.0709*%
%ADD16R,0.1181X0.0630*%
%ADD17R,0.0710X0.0630*%
%ADD18R,0.0591X0.0394*%
%ADD19R,0.0591X0.0276*%
%ADD20R,0.1181X0.0787*%
%ADD21R,0.0197X0.0591*%
%ADD22R,0.0591X0.0197*%
%ADD23C,0.0520*%
%ADD24R,0.0866X0.0236*%
%ADD25OC8,0.0600*%
%ADD26R,0.0591X0.0787*%
%ADD27R,0.1496X0.0787*%
%ADD28R,0.0591X0.0157*%
%ADD29OC8,0.0574*%
%ADD30C,0.0250*%
%ADD31C,0.0400*%
%ADD32C,0.0160*%
%ADD33C,0.0396*%
D10*
X007530Y014335D03*
X008650Y014335D03*
X010080Y014335D03*
X011200Y014335D03*
X005850Y017285D03*
X004730Y017285D03*
X003700Y017285D03*
X002580Y017285D03*
X032180Y020985D03*
X033300Y020985D03*
D11*
X029390Y020635D03*
X028390Y020635D03*
X028390Y019635D03*
X029390Y019635D03*
X029390Y018635D03*
X028390Y018635D03*
X028390Y017635D03*
X029390Y017635D03*
X029390Y021635D03*
X028390Y021635D03*
X028640Y030685D03*
X029640Y030685D03*
X029640Y031685D03*
X028640Y031685D03*
X027640Y031685D03*
X026640Y031685D03*
X026640Y030685D03*
X027640Y030685D03*
X025640Y030685D03*
X025640Y031685D03*
X019890Y031685D03*
X018890Y031685D03*
X017890Y031685D03*
X017890Y030685D03*
X018890Y030685D03*
X019890Y030685D03*
X016890Y030685D03*
X015890Y030685D03*
X015890Y031685D03*
X016890Y031685D03*
X010140Y031685D03*
X009140Y031685D03*
X009140Y030685D03*
X010140Y030685D03*
X008140Y030685D03*
X007140Y030685D03*
X006140Y030685D03*
X006140Y031685D03*
X007140Y031685D03*
X008140Y031685D03*
X004490Y021885D03*
X003490Y021885D03*
X003490Y020885D03*
X004490Y020885D03*
X004490Y019885D03*
X003490Y019885D03*
D12*
X001390Y017437D03*
X001390Y016334D03*
X003090Y024634D03*
X003090Y025737D03*
X025940Y023337D03*
X025940Y022234D03*
X025940Y020137D03*
X025940Y019034D03*
X028640Y008287D03*
X028640Y007184D03*
D13*
X032240Y009410D02*
X032240Y010010D01*
X033240Y010010D02*
X033240Y009410D01*
X034240Y009410D02*
X034240Y010010D01*
X035240Y010010D02*
X035240Y009410D01*
X037490Y009885D02*
X038090Y009885D01*
X038090Y008885D02*
X037490Y008885D01*
X037490Y007885D02*
X038090Y007885D01*
X038090Y006885D02*
X037490Y006885D01*
X037490Y005885D02*
X038090Y005885D01*
X038090Y010885D02*
X037490Y010885D01*
X033265Y012985D02*
X032665Y012985D01*
X032665Y013985D02*
X033265Y013985D01*
X031315Y013910D02*
X030715Y013910D01*
X030715Y012910D02*
X031315Y012910D01*
X029340Y012910D02*
X028740Y012910D01*
X028740Y013910D02*
X029340Y013910D01*
X025990Y015885D02*
X025990Y016485D01*
X024990Y016485D02*
X024990Y015885D01*
X023990Y015885D02*
X023990Y016485D01*
X022990Y016485D02*
X022990Y015885D01*
X021990Y015885D02*
X021990Y016485D01*
X020990Y016485D02*
X020990Y015885D01*
X019990Y015885D02*
X019990Y016485D01*
X018990Y016485D02*
X018990Y015885D01*
X017990Y015885D02*
X017990Y016485D01*
X013990Y016485D02*
X013990Y015885D01*
X012990Y015885D02*
X012990Y016485D01*
X011990Y016485D02*
X011990Y015885D01*
X010990Y015885D02*
X010990Y016485D01*
X009990Y016485D02*
X009990Y015885D01*
X008990Y015885D02*
X008990Y016485D01*
X007990Y016485D02*
X007990Y015885D01*
X006990Y015885D02*
X006990Y016485D01*
X017190Y007335D02*
X017190Y006735D01*
X018190Y006735D02*
X018190Y007335D01*
X019190Y007335D02*
X019190Y006735D01*
X020190Y006735D02*
X020190Y007335D01*
X021190Y007335D02*
X021190Y006735D01*
X022190Y006735D02*
X022190Y007335D01*
X022190Y005835D02*
X022190Y005235D01*
X021190Y005235D02*
X021190Y005835D01*
X020190Y005835D02*
X020190Y005235D01*
X019190Y005235D02*
X019190Y005835D01*
X018190Y005835D02*
X018190Y005235D01*
X017190Y005235D02*
X017190Y005835D01*
X017190Y004260D02*
X017190Y003660D01*
X018190Y003660D02*
X018190Y004260D01*
X019190Y004260D02*
X019190Y003660D01*
X020190Y003660D02*
X020190Y004260D01*
X021190Y004260D02*
X021190Y003660D01*
X022190Y003660D02*
X022190Y004260D01*
X022190Y002735D02*
X022190Y002135D01*
X021190Y002135D02*
X021190Y002735D01*
X020190Y002735D02*
X020190Y002135D01*
X019190Y002135D02*
X019190Y002735D01*
X018190Y002735D02*
X018190Y002135D01*
X017190Y002135D02*
X017190Y002735D01*
X029310Y024395D02*
X029910Y024395D01*
X031870Y024395D02*
X032470Y024395D01*
X032470Y026175D02*
X031870Y026175D01*
X029910Y026175D02*
X029310Y026175D01*
X025990Y025885D02*
X025990Y026485D01*
X024990Y026485D02*
X024990Y025885D01*
X023990Y025885D02*
X023990Y026485D01*
X022990Y026485D02*
X022990Y025885D01*
X021990Y025885D02*
X021990Y026485D01*
X020990Y026485D02*
X020990Y025885D01*
X019990Y025885D02*
X019990Y026485D01*
X018990Y026485D02*
X018990Y025885D01*
X017990Y025885D02*
X017990Y026485D01*
X014990Y026485D02*
X014990Y025885D01*
X013990Y025885D02*
X013990Y026485D01*
X012990Y026485D02*
X012990Y025885D01*
X011990Y025885D02*
X011990Y026485D01*
X010990Y026485D02*
X010990Y025885D01*
X009990Y025885D02*
X009990Y026485D01*
X008990Y026485D02*
X008990Y025885D01*
X007990Y025885D02*
X007990Y026485D01*
X006990Y026485D02*
X006990Y025885D01*
D14*
X006029Y016085D03*
X004651Y016085D03*
X003829Y016085D03*
X002451Y016085D03*
D15*
X032239Y019335D03*
X033341Y019335D03*
D16*
X033656Y016785D03*
X031924Y016785D03*
X019281Y009610D03*
X017549Y009610D03*
D17*
X016390Y010776D03*
X016390Y011895D03*
X015090Y011895D03*
X015090Y010776D03*
X013840Y010776D03*
X013840Y011895D03*
X013790Y013226D03*
X013790Y014345D03*
X015090Y014345D03*
X015090Y013226D03*
X016390Y013226D03*
X016390Y014345D03*
X018965Y012695D03*
X018965Y011576D03*
X024440Y012526D03*
X024440Y013645D03*
X025740Y012795D03*
X025740Y011676D03*
X032790Y030026D03*
X032790Y031145D03*
X034440Y031220D03*
X034440Y030101D03*
D18*
X012536Y012448D03*
X012536Y011779D03*
X012536Y010822D03*
X012536Y009838D03*
X012536Y008853D03*
X012536Y007869D03*
X012536Y006885D03*
X012536Y005901D03*
X012536Y004916D03*
D19*
X012536Y012960D03*
X012536Y013432D03*
D20*
X001591Y014141D03*
X001630Y002330D03*
D21*
X015140Y019702D03*
X015455Y019702D03*
X015770Y019702D03*
X016085Y019702D03*
X016400Y019702D03*
X016715Y019702D03*
X017030Y019702D03*
X017345Y019702D03*
X017660Y019702D03*
X017975Y019702D03*
X018290Y019702D03*
X018290Y024269D03*
X017975Y024269D03*
X017660Y024269D03*
X017345Y024269D03*
X017030Y024269D03*
X016715Y024269D03*
X016400Y024269D03*
X016085Y024269D03*
X015770Y024269D03*
X015455Y024269D03*
X015140Y024269D03*
D22*
X014431Y023560D03*
X014431Y023245D03*
X014431Y022930D03*
X014431Y022615D03*
X014431Y022300D03*
X014431Y021985D03*
X014431Y021670D03*
X014431Y021355D03*
X014431Y021040D03*
X014431Y020726D03*
X014431Y020411D03*
X018998Y020411D03*
X018998Y020726D03*
X018998Y021040D03*
X018998Y021355D03*
X018998Y021670D03*
X018998Y021985D03*
X018998Y022300D03*
X018998Y022615D03*
X018998Y022930D03*
X018998Y023245D03*
X018998Y023560D03*
D23*
X022924Y021042D03*
X024268Y019699D03*
D24*
X022664Y012960D03*
X022664Y012460D03*
X022664Y011960D03*
X022664Y011460D03*
X020616Y011460D03*
X020616Y011960D03*
X020616Y012460D03*
X020616Y012960D03*
D25*
X014990Y016185D03*
X015990Y026185D03*
D26*
X015495Y006395D03*
X014590Y006395D03*
X013684Y006395D03*
D27*
X014590Y008876D03*
D28*
X024213Y008749D03*
X024213Y008493D03*
X024213Y008237D03*
X024213Y007981D03*
X024213Y007725D03*
X024213Y007469D03*
X024213Y007213D03*
X024213Y006957D03*
X024213Y006701D03*
X024213Y006446D03*
X024213Y006190D03*
X024213Y005934D03*
X024213Y005678D03*
X024213Y005422D03*
X027067Y005422D03*
X027067Y005678D03*
X027067Y005934D03*
X027067Y006190D03*
X027067Y006446D03*
X027067Y006701D03*
X027067Y006957D03*
X027067Y007213D03*
X027067Y007469D03*
X027067Y007725D03*
X027067Y007981D03*
X027067Y008237D03*
X027067Y008493D03*
X027067Y008749D03*
D29*
X032448Y006490D03*
X032448Y005702D03*
X033432Y005702D03*
X033432Y006490D03*
D30*
X033340Y006585D01*
X030227Y009698D01*
X026940Y012985D01*
X028065Y014110D01*
X027990Y014185D01*
X028065Y014110D02*
X030740Y016785D01*
X030940Y016785D01*
X030940Y016885D01*
X030940Y016785D02*
X031924Y016785D01*
X032190Y018135D02*
X032190Y019235D01*
X032239Y019335D01*
X032240Y019335D01*
X032240Y019935D01*
X033290Y020985D01*
X033300Y020985D01*
X033490Y021185D01*
X033490Y029685D01*
X032990Y030185D01*
X032790Y030026D01*
X032990Y030185D02*
X033990Y031185D01*
X034490Y031185D01*
X034440Y031220D01*
X029640Y030685D02*
X029640Y026185D01*
X029610Y026175D01*
X029540Y026085D01*
X028640Y025185D01*
X028640Y022335D01*
X028590Y022235D01*
X026040Y022235D01*
X025940Y022234D01*
X025940Y020137D01*
X028590Y022235D02*
X029190Y021635D01*
X029390Y021635D01*
X029440Y021535D01*
X029990Y020985D01*
X029990Y017635D01*
X033390Y017635D01*
X033390Y019335D01*
X033341Y019335D01*
X033390Y017635D02*
X033390Y017035D01*
X033640Y016785D01*
X033656Y016785D01*
X033990Y016685D01*
X038990Y011685D01*
X038990Y006685D01*
X037990Y005685D01*
X037790Y005885D01*
X037490Y005685D01*
X033490Y005685D01*
X033432Y005702D01*
X033432Y006490D02*
X033440Y006535D01*
X036290Y006535D01*
X037640Y007885D01*
X037790Y007885D01*
X032240Y009710D02*
X031990Y009685D01*
X029990Y010685D02*
X027990Y012685D01*
X026940Y012985D02*
X026390Y012435D01*
X026390Y012285D01*
X025840Y011735D01*
X025740Y011676D01*
X025740Y011635D01*
X025340Y011635D01*
X024640Y010935D01*
X021140Y010935D01*
X020640Y011435D01*
X020616Y011460D01*
X020540Y011435D01*
X017990Y009685D02*
X017549Y009610D01*
X017490Y009685D01*
X017490Y012685D01*
X018490Y013685D01*
X018990Y016185D02*
X017990Y016185D01*
X016390Y010785D02*
X015190Y010785D01*
X015090Y010776D01*
X015090Y010785D01*
X013940Y010785D01*
X013840Y010776D01*
X013840Y010785D01*
X012540Y010785D01*
X012536Y010822D01*
X012290Y010735D01*
X009990Y010735D01*
X005165Y015560D01*
X005690Y016085D01*
X006029Y016085D01*
X005165Y015560D02*
X005090Y015485D01*
X002440Y015485D01*
X002440Y016085D01*
X002451Y016085D01*
X002440Y015485D02*
X002440Y014985D01*
X001640Y014185D01*
X001591Y014141D01*
X001640Y014035D01*
X001640Y002335D01*
X001630Y002330D01*
X011940Y008535D02*
X012490Y007985D01*
X012536Y007869D01*
X012540Y007835D01*
X013640Y006735D01*
X013640Y006435D01*
X013684Y006395D01*
X013540Y006385D01*
X014990Y007135D02*
X015540Y006585D01*
X015495Y006395D01*
X015490Y006685D01*
X016990Y006685D01*
X017190Y007035D01*
X016990Y006685D02*
X016990Y005685D01*
X017190Y005535D01*
X016990Y005185D01*
X016990Y004185D01*
X017190Y003960D01*
X016990Y003685D01*
X016990Y002685D01*
X017190Y002435D01*
X017990Y002685D02*
X018190Y002435D01*
X017990Y002685D02*
X017990Y003685D01*
X018190Y003960D01*
X017990Y004185D01*
X017990Y005185D01*
X018190Y005535D01*
X017990Y005685D01*
X017990Y006685D01*
X018190Y007035D01*
X017990Y007185D01*
X017990Y009685D01*
X017549Y009610D02*
X016990Y009685D01*
X016490Y010185D01*
X016490Y010685D01*
X016390Y010776D01*
X016390Y010785D01*
X012536Y010822D02*
X012440Y010735D01*
X011940Y010235D01*
X011940Y008535D01*
X015495Y006395D02*
X015540Y006435D01*
X024440Y013645D02*
X024490Y013685D01*
X024490Y014185D01*
X026490Y014185D01*
X024490Y014185D02*
X024490Y014685D01*
X029290Y017585D02*
X029390Y017635D01*
X029990Y017635D01*
X029610Y026175D02*
X029740Y026185D01*
X032140Y026185D01*
X032170Y026175D01*
X026640Y030685D02*
X025640Y030685D01*
X019890Y030685D01*
X016890Y030685D02*
X015890Y030685D01*
X010140Y030685D01*
X007140Y030685D02*
X006140Y030685D01*
X006090Y030585D01*
X002440Y026935D01*
X002440Y023835D01*
X003440Y022835D01*
X003440Y021985D01*
X003490Y021885D01*
X001390Y019785D01*
X001390Y017437D01*
X002580Y017285D02*
X002590Y017285D01*
X002590Y017185D01*
X003190Y016585D01*
X007990Y015035D02*
X008590Y014435D01*
X008650Y014335D01*
X009215Y014335D01*
X010080Y014335D01*
X028640Y008287D02*
X028640Y008285D01*
X030890Y006035D01*
X025640Y030685D02*
X025640Y031685D01*
X015890Y031685D02*
X015890Y030685D01*
X006140Y030685D02*
X006140Y031685D01*
D31*
X010690Y021435D03*
X011990Y019835D03*
X013790Y021035D03*
X015090Y020735D03*
X014390Y019635D03*
X015440Y018685D03*
X020190Y021035D03*
X025040Y024185D03*
X032190Y018135D03*
X030940Y016885D03*
X027990Y016985D03*
X026490Y014185D03*
X025740Y013635D03*
X027990Y012685D03*
X029990Y010685D03*
X026440Y008785D03*
X023440Y011435D03*
X023440Y012435D03*
X021890Y012985D03*
X018490Y013685D03*
X015740Y012335D03*
X015740Y011335D03*
X013290Y009885D03*
X013190Y011335D03*
X011440Y010235D03*
X014990Y007135D03*
X012990Y006385D03*
X016490Y008685D03*
X018490Y008685D03*
X013040Y013985D03*
X007990Y015035D03*
X003190Y016585D03*
X024390Y031185D03*
X025140Y032535D03*
X030990Y031185D03*
X033990Y029185D03*
X030890Y006035D03*
D32*
X001085Y001756D02*
X001085Y001067D01*
X012990Y001067D01*
X012958Y001093D01*
X012958Y001093D01*
X012676Y001506D01*
X012676Y001506D01*
X012529Y001985D01*
X012529Y001985D01*
X012529Y002486D01*
X012529Y002486D01*
X012676Y002964D01*
X012676Y002964D01*
X012958Y003378D01*
X012958Y003378D01*
X013350Y003690D01*
X013350Y003690D01*
X013816Y003873D01*
X013816Y003873D01*
X014315Y003911D01*
X014315Y003911D01*
X014804Y003799D01*
X014804Y003799D01*
X015237Y003549D01*
X015237Y003549D01*
X015578Y003182D01*
X015578Y003182D01*
X015795Y002731D01*
X015795Y002730D01*
X015870Y002235D01*
X015870Y002235D01*
X015795Y001740D01*
X015578Y001289D01*
X015372Y001067D01*
X037742Y001067D01*
X037476Y001456D01*
X037476Y001456D01*
X037329Y001935D01*
X037329Y001935D01*
X037329Y002436D01*
X037329Y002436D01*
X037476Y002914D01*
X037476Y002914D01*
X037758Y003328D01*
X037758Y003328D01*
X037758Y003328D01*
X038150Y003640D01*
X038150Y003640D01*
X038616Y003823D01*
X038616Y003823D01*
X039115Y003861D01*
X039115Y003861D01*
X039604Y003749D01*
X039604Y003749D01*
X040037Y003499D01*
X040095Y003437D01*
X040095Y031434D01*
X040037Y031372D01*
X039604Y031122D01*
X039604Y031121D01*
X039115Y031010D01*
X038616Y031047D01*
X038150Y031230D01*
X038150Y031230D01*
X037758Y031543D01*
X037758Y031543D01*
X037476Y031956D01*
X037476Y031956D01*
X037329Y032435D01*
X037329Y032435D01*
X037329Y032936D01*
X037329Y032936D01*
X037476Y033414D01*
X037476Y033414D01*
X037742Y033803D01*
X003469Y033803D01*
X003628Y033632D01*
X003628Y033632D01*
X003845Y033181D01*
X003845Y033180D01*
X003920Y032685D01*
X003845Y032190D01*
X003845Y032190D01*
X003628Y031739D01*
X003628Y031739D01*
X003287Y031372D01*
X003287Y031372D01*
X002854Y031121D01*
X002854Y031121D01*
X002365Y031010D01*
X002365Y031010D01*
X001866Y031047D01*
X001866Y031047D01*
X001400Y031230D01*
X001400Y031230D01*
X001085Y031482D01*
X001085Y017931D01*
X001312Y017931D01*
X001312Y017514D01*
X001467Y017514D01*
X001467Y017931D01*
X001670Y017931D01*
X001670Y018322D01*
X001670Y018449D01*
X001719Y018567D01*
X002970Y019818D01*
X002970Y020101D01*
X003246Y020377D01*
X003219Y020404D01*
X003206Y020433D01*
X002970Y020670D01*
X002970Y021101D01*
X003275Y021405D01*
X003705Y021405D01*
X003990Y021121D01*
X004255Y021385D01*
X003970Y021670D01*
X003970Y022101D01*
X004121Y022252D01*
X002909Y023464D01*
X002819Y023554D01*
X002770Y023672D01*
X002770Y024079D01*
X002688Y024079D01*
X002600Y024116D01*
X002532Y024183D01*
X002496Y024271D01*
X002496Y024997D01*
X002532Y025085D01*
X002600Y025153D01*
X002679Y025185D01*
X002600Y025218D01*
X002532Y025286D01*
X002496Y025374D01*
X002496Y026099D01*
X002532Y026187D01*
X002600Y026255D01*
X002688Y026291D01*
X003492Y026291D01*
X003580Y026255D01*
X003648Y026187D01*
X003684Y026099D01*
X003684Y026055D01*
X006326Y026055D01*
X006450Y026055D01*
X006450Y026593D01*
X006532Y026791D01*
X006684Y026943D01*
X006882Y027025D01*
X007097Y027025D01*
X007296Y026943D01*
X007448Y026791D01*
X007490Y026689D01*
X007532Y026791D01*
X007684Y026943D01*
X007820Y026999D01*
X007820Y030270D01*
X007620Y030470D01*
X007620Y030901D01*
X007896Y031177D01*
X007869Y031204D01*
X007856Y031233D01*
X007640Y031450D01*
X007355Y031165D01*
X006925Y031165D01*
X006620Y031470D01*
X006620Y031901D01*
X006925Y032205D01*
X007355Y032205D01*
X007640Y031921D01*
X007925Y032205D01*
X008355Y032205D01*
X008640Y031921D01*
X008925Y032205D01*
X009355Y032205D01*
X009640Y031921D01*
X009925Y032205D01*
X010355Y032205D01*
X010660Y031901D01*
X010660Y031470D01*
X010355Y031165D01*
X009925Y031165D01*
X009640Y031450D01*
X009375Y031185D01*
X009660Y030901D01*
X009660Y030470D01*
X009460Y030270D01*
X009460Y027218D01*
X009720Y026958D01*
X009882Y027025D01*
X010097Y027025D01*
X010296Y026943D01*
X010448Y026791D01*
X010490Y026689D01*
X010532Y026791D01*
X010684Y026943D01*
X010882Y027025D01*
X011097Y027025D01*
X011296Y026943D01*
X011448Y026791D01*
X011490Y026689D01*
X011532Y026791D01*
X011684Y026943D01*
X011882Y027025D01*
X012097Y027025D01*
X012296Y026943D01*
X012448Y026791D01*
X012490Y026689D01*
X012532Y026791D01*
X012684Y026943D01*
X012882Y027025D01*
X013097Y027025D01*
X013260Y026958D01*
X013559Y027257D01*
X013676Y027305D01*
X013804Y027305D01*
X013807Y027305D01*
X016727Y030225D01*
X016699Y030225D01*
X016430Y030495D01*
X016430Y030675D01*
X016880Y030675D01*
X016880Y030695D01*
X016430Y030695D01*
X016430Y030876D01*
X016699Y031145D01*
X016880Y031145D01*
X016880Y030696D01*
X016900Y030696D01*
X016900Y031145D01*
X017080Y031145D01*
X017350Y030876D01*
X017350Y030848D01*
X017370Y030868D01*
X017370Y030901D01*
X017655Y031185D01*
X017390Y031450D01*
X017105Y031165D01*
X016675Y031165D01*
X016370Y031470D01*
X016370Y031901D01*
X016675Y032205D01*
X017105Y032205D01*
X017390Y031921D01*
X017675Y032205D01*
X018105Y032205D01*
X018390Y031921D01*
X018675Y032205D01*
X019105Y032205D01*
X019390Y031921D01*
X019675Y032205D01*
X020105Y032205D01*
X020410Y031901D01*
X020410Y031470D01*
X020105Y031165D01*
X019675Y031165D01*
X019390Y031450D01*
X019173Y031233D01*
X019161Y031204D01*
X019134Y031177D01*
X019410Y030901D01*
X019410Y030470D01*
X019210Y030270D01*
X019210Y026979D01*
X019296Y026943D01*
X019448Y026791D01*
X019490Y026689D01*
X019532Y026791D01*
X019684Y026943D01*
X019882Y027025D01*
X020097Y027025D01*
X020296Y026943D01*
X020448Y026791D01*
X020490Y026689D01*
X020532Y026791D01*
X020684Y026943D01*
X020882Y027025D01*
X021097Y027025D01*
X021260Y026958D01*
X021559Y027257D01*
X021676Y027305D01*
X021804Y027305D01*
X023557Y027305D01*
X026477Y030225D01*
X026449Y030225D01*
X026180Y030495D01*
X026180Y030675D01*
X026630Y030675D01*
X026630Y030695D01*
X026180Y030695D01*
X026180Y030876D01*
X026449Y031145D01*
X026630Y031145D01*
X026630Y030696D01*
X026650Y030696D01*
X026650Y031145D01*
X026830Y031145D01*
X027100Y030876D01*
X027100Y030848D01*
X027120Y030868D01*
X027120Y030901D01*
X027196Y030977D01*
X027169Y031004D01*
X026931Y031241D01*
X026855Y031165D01*
X026425Y031165D01*
X026120Y031470D01*
X026120Y031901D01*
X026135Y031915D01*
X026060Y031915D01*
X026100Y031876D01*
X026100Y031695D01*
X025650Y031695D01*
X025650Y031675D01*
X025650Y031225D01*
X025830Y031225D01*
X026100Y031495D01*
X026100Y031675D01*
X025650Y031675D01*
X025630Y031675D01*
X025630Y031225D01*
X025449Y031225D01*
X025180Y031495D01*
X025180Y031523D01*
X024830Y031173D01*
X024830Y031098D01*
X024763Y030936D01*
X024639Y030812D01*
X024477Y030745D01*
X024302Y030745D01*
X024141Y030812D01*
X024017Y030936D01*
X023950Y031098D01*
X023950Y031273D01*
X024017Y031435D01*
X024141Y031558D01*
X024302Y031625D01*
X024377Y031625D01*
X024907Y032155D01*
X024891Y032162D01*
X024767Y032286D01*
X024700Y032448D01*
X024700Y032623D01*
X024767Y032785D01*
X024891Y032908D01*
X025052Y032975D01*
X025227Y032975D01*
X025389Y032908D01*
X025442Y032855D01*
X027554Y032855D01*
X027671Y032807D01*
X027761Y032717D01*
X028349Y032129D01*
X028425Y032205D01*
X028855Y032205D01*
X029140Y031921D01*
X029425Y032205D01*
X029855Y032205D01*
X030160Y031901D01*
X030160Y031470D01*
X029855Y031165D01*
X029425Y031165D01*
X029140Y031450D01*
X028923Y031233D01*
X028911Y031204D01*
X028884Y031177D01*
X029160Y030901D01*
X029160Y030470D01*
X028960Y030270D01*
X028960Y027849D01*
X028960Y027722D01*
X028911Y027604D01*
X025480Y024173D01*
X025480Y024098D01*
X025413Y023936D01*
X025289Y023812D01*
X025127Y023745D01*
X024952Y023745D01*
X024791Y023812D01*
X024667Y023936D01*
X024600Y024098D01*
X024600Y024273D01*
X024649Y024392D01*
X021656Y021399D01*
X021539Y021350D01*
X021411Y021350D01*
X021369Y021350D01*
X021486Y021234D01*
X021553Y021072D01*
X021553Y020898D01*
X021486Y020737D01*
X021363Y020614D01*
X021202Y020547D01*
X021178Y020547D01*
X021178Y020398D01*
X021111Y020237D01*
X020988Y020114D01*
X020827Y020047D01*
X020753Y020047D01*
X020753Y019998D01*
X020852Y019998D01*
X021013Y019932D01*
X021136Y019809D01*
X021166Y019737D01*
X022424Y020995D01*
X022424Y021142D01*
X022500Y021326D01*
X022641Y021466D01*
X022825Y021542D01*
X022944Y021542D01*
X025009Y023607D01*
X025126Y023655D01*
X025254Y023655D01*
X025346Y023655D01*
X025346Y023699D01*
X025382Y023787D01*
X025450Y023855D01*
X025538Y023891D01*
X026342Y023891D01*
X026430Y023855D01*
X026498Y023787D01*
X026534Y023699D01*
X026534Y022974D01*
X026498Y022886D01*
X026430Y022818D01*
X026342Y022782D01*
X025538Y022782D01*
X025450Y022818D01*
X025382Y022886D01*
X025346Y022974D01*
X025346Y023015D01*
X025322Y023015D01*
X023424Y021117D01*
X023424Y020943D01*
X023348Y020759D01*
X023207Y020619D01*
X023024Y020542D01*
X022877Y020542D01*
X020640Y018305D01*
X022422Y018305D01*
X023768Y019651D01*
X023768Y019798D01*
X023844Y019982D01*
X023984Y020123D01*
X024168Y020199D01*
X024367Y020199D01*
X024551Y020123D01*
X024692Y019982D01*
X024768Y019798D01*
X024768Y019710D01*
X025122Y019355D01*
X025346Y019355D01*
X025346Y019397D01*
X025382Y019485D01*
X025450Y019553D01*
X025538Y019589D01*
X026342Y019589D01*
X026430Y019553D01*
X026498Y019485D01*
X026534Y019397D01*
X026534Y019082D01*
X027859Y020407D01*
X027876Y020414D01*
X027870Y020420D01*
X027870Y020851D01*
X028155Y021135D01*
X027870Y021420D01*
X027870Y021851D01*
X028175Y022155D01*
X028605Y022155D01*
X028910Y021851D01*
X028910Y021420D01*
X028625Y021135D01*
X028881Y020879D01*
X028909Y020907D01*
X028938Y020919D01*
X029175Y021155D01*
X029605Y021155D01*
X029910Y020851D01*
X029910Y020420D01*
X029625Y020135D01*
X029910Y019851D01*
X029910Y019420D01*
X029625Y019135D01*
X029910Y018851D01*
X029910Y018420D01*
X029605Y018115D01*
X029175Y018115D01*
X028890Y018400D01*
X028625Y018135D01*
X028910Y017851D01*
X028910Y017420D01*
X028605Y017115D01*
X028412Y017115D01*
X028430Y017073D01*
X028430Y016898D01*
X028363Y016736D01*
X028239Y016612D01*
X028077Y016545D01*
X027902Y016545D01*
X027741Y016612D01*
X027688Y016665D01*
X026500Y016665D01*
X026530Y016593D01*
X026530Y015778D01*
X026448Y015579D01*
X026296Y015428D01*
X026097Y015345D01*
X025882Y015345D01*
X025684Y015428D01*
X025532Y015579D01*
X025490Y015681D01*
X025448Y015579D01*
X025296Y015428D01*
X025097Y015345D01*
X024882Y015345D01*
X024684Y015428D01*
X024532Y015579D01*
X024490Y015681D01*
X024448Y015579D01*
X024296Y015428D01*
X024097Y015345D01*
X023882Y015345D01*
X023684Y015428D01*
X023532Y015579D01*
X023490Y015681D01*
X023448Y015579D01*
X023296Y015428D01*
X023097Y015345D01*
X022882Y015345D01*
X022684Y015428D01*
X022532Y015579D01*
X022490Y015681D01*
X022448Y015579D01*
X022296Y015428D01*
X022097Y015345D01*
X021885Y015345D01*
X021885Y014210D01*
X021911Y014184D01*
X021978Y014022D01*
X021978Y013848D01*
X021911Y013687D01*
X021788Y013564D01*
X021627Y013497D01*
X021453Y013497D01*
X021292Y013564D01*
X021169Y013687D01*
X021102Y013848D01*
X021102Y014022D01*
X021169Y014184D01*
X021245Y014260D01*
X021245Y015407D01*
X021097Y015345D01*
X020882Y015345D01*
X020684Y015428D01*
X020532Y015579D01*
X020490Y015681D01*
X020448Y015579D01*
X020296Y015428D01*
X020097Y015345D01*
X019882Y015345D01*
X019684Y015428D01*
X019532Y015579D01*
X019457Y015760D01*
X019397Y015613D01*
X019262Y015478D01*
X019085Y015405D01*
X019010Y015405D01*
X019010Y016165D01*
X018970Y016165D01*
X018970Y015405D01*
X018894Y015405D01*
X018718Y015478D01*
X018583Y015613D01*
X018510Y015790D01*
X018510Y016165D01*
X018970Y016165D01*
X018970Y016205D01*
X018510Y016205D01*
X018510Y016581D01*
X018583Y016757D01*
X018718Y016892D01*
X018894Y016965D01*
X018970Y016965D01*
X018970Y016206D01*
X019010Y016206D01*
X019010Y016965D01*
X019085Y016965D01*
X019262Y016892D01*
X019397Y016757D01*
X019457Y016611D01*
X019532Y016791D01*
X019670Y016929D01*
X019670Y016965D01*
X016389Y016965D01*
X016338Y016914D01*
X016177Y016847D01*
X016003Y016847D01*
X015842Y016914D01*
X015790Y016965D01*
X014712Y016965D01*
X014761Y016917D01*
X014797Y016831D01*
X014902Y016725D01*
X015214Y016725D01*
X015530Y016409D01*
X015530Y015962D01*
X015223Y015655D01*
X015980Y014897D01*
X015987Y014900D01*
X016793Y014900D01*
X016881Y014864D01*
X016948Y014796D01*
X016985Y014708D01*
X016985Y013982D01*
X016948Y013894D01*
X016881Y013827D01*
X016793Y013790D01*
X015987Y013790D01*
X015899Y013827D01*
X015832Y013894D01*
X015795Y013982D01*
X015795Y014178D01*
X015685Y014288D01*
X015685Y013982D01*
X015648Y013894D01*
X015581Y013827D01*
X015493Y013790D01*
X014687Y013790D01*
X014599Y013827D01*
X014532Y013894D01*
X014495Y013982D01*
X014495Y014178D01*
X014385Y014288D01*
X014385Y013982D01*
X014348Y013894D01*
X014281Y013827D01*
X014193Y013790D01*
X013435Y013790D01*
X013431Y013780D01*
X014193Y013780D01*
X014281Y013744D01*
X014348Y013676D01*
X014385Y013588D01*
X014385Y012863D01*
X014348Y012775D01*
X014281Y012707D01*
X014193Y012671D01*
X014110Y012671D01*
X014110Y012450D01*
X014243Y012450D01*
X014331Y012414D01*
X014398Y012346D01*
X014435Y012258D01*
X014435Y011532D01*
X014398Y011444D01*
X014331Y011377D01*
X014243Y011340D01*
X013747Y011340D01*
X013678Y011270D01*
X013762Y011270D01*
X013762Y010853D01*
X013762Y010698D01*
X013305Y010698D01*
X013305Y010386D01*
X013366Y010325D01*
X013202Y010325D01*
X013041Y010258D01*
X012994Y010211D01*
X012967Y010238D01*
X012879Y010275D01*
X012193Y010275D01*
X012105Y010238D01*
X012037Y010171D01*
X012001Y010082D01*
X012001Y009593D01*
X012037Y009505D01*
X012105Y009437D01*
X012193Y009401D01*
X012879Y009401D01*
X012967Y009437D01*
X013035Y009505D01*
X013039Y009514D01*
X013041Y009512D01*
X013202Y009445D01*
X013377Y009445D01*
X013539Y009512D01*
X013663Y009636D01*
X013730Y009798D01*
X013730Y009973D01*
X013663Y010135D01*
X013539Y010258D01*
X013485Y010281D01*
X013762Y010281D01*
X013762Y010698D01*
X013917Y010698D01*
X013917Y010281D01*
X014269Y010281D01*
X014375Y010386D01*
X014375Y010698D01*
X013918Y010698D01*
X013918Y010853D01*
X014375Y010853D01*
X014375Y011165D01*
X014269Y011270D01*
X013917Y011270D01*
X013917Y010853D01*
X013762Y010853D01*
X013305Y010853D01*
X013305Y010907D01*
X013277Y010895D01*
X013102Y010895D01*
X013011Y010933D01*
X013011Y010840D01*
X012555Y010840D01*
X012555Y010803D01*
X013011Y010803D01*
X013011Y010551D01*
X012906Y010445D01*
X012554Y010445D01*
X012554Y010803D01*
X012517Y010803D01*
X012517Y010445D01*
X012166Y010445D01*
X012061Y010551D01*
X012061Y010803D01*
X012517Y010803D01*
X012517Y010840D01*
X012061Y010840D01*
X012061Y011093D01*
X012166Y011199D01*
X012517Y011199D01*
X012517Y010841D01*
X012554Y010841D01*
X012554Y011199D01*
X012770Y011199D01*
X012750Y011248D01*
X012750Y011342D01*
X012193Y011342D01*
X012105Y011378D01*
X012037Y011446D01*
X012001Y011534D01*
X012001Y012023D01*
X012037Y012111D01*
X012039Y012113D01*
X012037Y012115D01*
X012001Y012203D01*
X012001Y012244D01*
X011961Y012204D01*
X011871Y012114D01*
X011754Y012065D01*
X009554Y012065D01*
X009426Y012065D01*
X009309Y012114D01*
X007682Y013740D01*
X007167Y013740D01*
X007079Y013777D01*
X007012Y013844D01*
X002362Y013844D01*
X002362Y013686D02*
X007737Y013686D01*
X007895Y013527D02*
X001085Y013527D01*
X001085Y013567D02*
X001511Y013567D01*
X001511Y014061D01*
X001671Y014061D01*
X001671Y014221D01*
X001511Y014221D01*
X001511Y014715D01*
X001085Y014715D01*
X001085Y015779D01*
X001792Y015779D01*
X001880Y015816D01*
X001948Y015883D01*
X001976Y015951D01*
X001976Y015716D01*
X002081Y015610D01*
X002383Y015610D01*
X002383Y016017D01*
X002519Y016017D01*
X002519Y015610D01*
X002821Y015610D01*
X002926Y015716D01*
X002926Y016018D01*
X002519Y016018D01*
X002519Y016153D01*
X002926Y016153D01*
X002926Y016227D01*
X002941Y016212D01*
X003102Y016145D01*
X003277Y016145D01*
X003294Y016152D01*
X003294Y015742D01*
X003330Y015654D01*
X003398Y015587D01*
X003486Y015550D01*
X004172Y015550D01*
X004240Y015578D01*
X004308Y015550D01*
X004994Y015550D01*
X005082Y015587D01*
X005150Y015654D01*
X005186Y015742D01*
X005186Y016428D01*
X005150Y016517D01*
X005082Y016584D01*
X005010Y016614D01*
X005010Y016690D01*
X005093Y016690D01*
X005181Y016727D01*
X005248Y016794D01*
X005285Y016883D01*
X005285Y017688D01*
X005248Y017776D01*
X005181Y017844D01*
X005093Y017880D01*
X004367Y017880D01*
X004279Y017844D01*
X004215Y017779D01*
X004151Y017844D01*
X004062Y017880D01*
X003337Y017880D01*
X003249Y017844D01*
X003181Y017776D01*
X003145Y017688D01*
X003145Y017147D01*
X003135Y017156D01*
X003135Y017688D01*
X003098Y017776D01*
X003031Y017844D01*
X002975Y017867D01*
X002978Y017873D01*
X002978Y018047D01*
X002911Y018209D01*
X002788Y018332D01*
X002627Y018398D01*
X002456Y018398D01*
X003422Y019365D01*
X003705Y019365D01*
X003781Y019441D01*
X005389Y017834D01*
X005331Y017776D01*
X005295Y017688D01*
X005295Y016883D01*
X005331Y016794D01*
X005399Y016727D01*
X005487Y016690D01*
X006032Y016690D01*
X006162Y016561D01*
X006097Y016561D01*
X006097Y016153D01*
X005961Y016153D01*
X005961Y016018D01*
X005554Y016018D01*
X005554Y015716D01*
X005659Y015610D01*
X005961Y015610D01*
X005961Y016017D01*
X006097Y016017D01*
X006097Y015610D01*
X006399Y015610D01*
X006484Y015695D01*
X006532Y015579D01*
X006684Y015428D01*
X006882Y015345D01*
X007097Y015345D01*
X007170Y015375D01*
X007170Y014930D01*
X007167Y014930D01*
X007079Y014894D01*
X007012Y014826D01*
X006975Y014738D01*
X006975Y013933D01*
X007012Y013844D01*
X006975Y014003D02*
X002362Y014003D01*
X002362Y014061D02*
X001671Y014061D01*
X001671Y013567D01*
X002256Y013567D01*
X002362Y013673D01*
X002362Y014061D01*
X002362Y014221D02*
X001671Y014221D01*
X001671Y014715D01*
X002256Y014715D01*
X002362Y014609D01*
X002362Y014221D01*
X002362Y014320D02*
X006975Y014320D01*
X006975Y014162D02*
X001671Y014162D01*
X001671Y014320D02*
X001511Y014320D01*
X001511Y014479D02*
X001671Y014479D01*
X001671Y014637D02*
X001511Y014637D01*
X001085Y014796D02*
X006999Y014796D01*
X006975Y014637D02*
X002334Y014637D01*
X002362Y014479D02*
X006975Y014479D01*
X007170Y014954D02*
X001085Y014954D01*
X001085Y015113D02*
X007170Y015113D01*
X007170Y015271D02*
X001085Y015271D01*
X001085Y015430D02*
X006682Y015430D01*
X006528Y015588D02*
X005084Y015588D01*
X005186Y015747D02*
X005554Y015747D01*
X005554Y015906D02*
X005186Y015906D01*
X005186Y016064D02*
X005961Y016064D01*
X005961Y016153D02*
X005554Y016153D01*
X005554Y016455D01*
X005659Y016561D01*
X005961Y016561D01*
X005961Y016153D01*
X005961Y016223D02*
X006097Y016223D01*
X006097Y016381D02*
X005961Y016381D01*
X005961Y016540D02*
X006097Y016540D01*
X005638Y016540D02*
X005127Y016540D01*
X005112Y016698D02*
X005468Y016698D01*
X005306Y016857D02*
X005274Y016857D01*
X005285Y017015D02*
X005295Y017015D01*
X005285Y017174D02*
X005295Y017174D01*
X005285Y017332D02*
X005295Y017332D01*
X005285Y017491D02*
X005295Y017491D01*
X005285Y017649D02*
X005295Y017649D01*
X005363Y017808D02*
X005217Y017808D01*
X005256Y017967D02*
X002978Y017967D01*
X002946Y018125D02*
X005098Y018125D01*
X004939Y018284D02*
X002836Y018284D01*
X002658Y018601D02*
X004622Y018601D01*
X004463Y018759D02*
X002816Y018759D01*
X002975Y018918D02*
X004305Y018918D01*
X004146Y019076D02*
X003133Y019076D01*
X003292Y019235D02*
X003988Y019235D01*
X003829Y019393D02*
X003733Y019393D01*
X003990Y019685D02*
X005790Y017885D01*
X010340Y017885D01*
X011990Y016235D01*
X011990Y016185D01*
X011990Y016135D01*
X012740Y015385D01*
X013740Y015385D01*
X014740Y014385D01*
X015090Y014385D01*
X015090Y014345D01*
X015685Y014162D02*
X015795Y014162D01*
X015795Y014003D02*
X015685Y014003D01*
X015598Y013844D02*
X015881Y013844D01*
X015899Y013744D02*
X015832Y013676D01*
X015795Y013588D01*
X015795Y012863D01*
X015832Y012775D01*
X015833Y012773D01*
X015827Y012775D01*
X015652Y012775D01*
X015647Y012773D01*
X015648Y012775D01*
X015685Y012863D01*
X015685Y013588D01*
X015648Y013676D01*
X015581Y013744D01*
X015493Y013780D01*
X014687Y013780D01*
X014599Y013744D01*
X014532Y013676D01*
X014495Y013588D01*
X014495Y012863D01*
X014532Y012775D01*
X014599Y012707D01*
X014687Y012671D01*
X014770Y012671D01*
X014770Y012450D01*
X014687Y012450D01*
X014599Y012414D01*
X014532Y012346D01*
X014495Y012258D01*
X014495Y011532D01*
X014532Y011444D01*
X014599Y011377D01*
X014687Y011340D01*
X015182Y011340D01*
X015252Y011270D01*
X015167Y011270D01*
X015167Y010853D01*
X015012Y010853D01*
X015012Y010698D01*
X014555Y010698D01*
X014555Y010386D01*
X014660Y010281D01*
X015012Y010281D01*
X015012Y010698D01*
X015167Y010698D01*
X015167Y010281D01*
X015519Y010281D01*
X015625Y010386D01*
X015625Y010698D01*
X015168Y010698D01*
X015168Y010853D01*
X015625Y010853D01*
X015625Y010907D01*
X015652Y010895D01*
X015827Y010895D01*
X015855Y010907D01*
X015855Y010853D01*
X016312Y010853D01*
X016312Y010698D01*
X015855Y010698D01*
X015855Y010386D01*
X015960Y010281D01*
X016312Y010281D01*
X016312Y010698D01*
X016467Y010698D01*
X016467Y010281D01*
X016819Y010281D01*
X016925Y010386D01*
X016925Y010698D01*
X016468Y010698D01*
X016468Y010853D01*
X016925Y010853D01*
X016925Y011165D01*
X016819Y011270D01*
X016467Y011270D01*
X016467Y010853D01*
X016312Y010853D01*
X016312Y011270D01*
X016180Y011270D01*
X016180Y011340D01*
X016793Y011340D01*
X016881Y011377D01*
X016948Y011444D01*
X016985Y011532D01*
X016985Y012258D01*
X016948Y012346D01*
X016881Y012414D01*
X016793Y012450D01*
X016710Y012450D01*
X016710Y012671D01*
X016793Y012671D01*
X016881Y012707D01*
X016948Y012775D01*
X016985Y012863D01*
X016985Y013588D01*
X016948Y013676D01*
X016881Y013744D01*
X016793Y013780D01*
X015987Y013780D01*
X015899Y013744D01*
X015841Y013686D02*
X015639Y013686D01*
X015685Y013527D02*
X015795Y013527D01*
X015795Y013369D02*
X015685Y013369D01*
X015685Y013210D02*
X015795Y013210D01*
X015795Y013052D02*
X015685Y013052D01*
X015685Y012893D02*
X015795Y012893D01*
X016390Y013226D02*
X016390Y011895D01*
X016390Y011935D01*
X015990Y012335D01*
X015740Y012335D01*
X015090Y011895D02*
X015090Y013226D01*
X014541Y013686D02*
X014339Y013686D01*
X014298Y013844D02*
X014581Y013844D01*
X014495Y014003D02*
X014385Y014003D01*
X014385Y014162D02*
X014495Y014162D01*
X014495Y013527D02*
X014385Y013527D01*
X014385Y013369D02*
X014495Y013369D01*
X014495Y013210D02*
X014385Y013210D01*
X014385Y013052D02*
X014495Y013052D01*
X014495Y012893D02*
X014385Y012893D01*
X014308Y012735D02*
X014571Y012735D01*
X014770Y012576D02*
X014110Y012576D01*
X014321Y012418D02*
X014609Y012418D01*
X014496Y012259D02*
X014434Y012259D01*
X014435Y012100D02*
X014495Y012100D01*
X014495Y011942D02*
X014435Y011942D01*
X014435Y011783D02*
X014495Y011783D01*
X014495Y011625D02*
X014435Y011625D01*
X014407Y011466D02*
X014522Y011466D01*
X014660Y011270D02*
X014555Y011165D01*
X014555Y010853D01*
X015012Y010853D01*
X015012Y011270D01*
X014660Y011270D01*
X014555Y011149D02*
X014375Y011149D01*
X014375Y010991D02*
X014555Y010991D01*
X014555Y010674D02*
X014375Y010674D01*
X014375Y010515D02*
X014555Y010515D01*
X014584Y010356D02*
X014345Y010356D01*
X013917Y010356D02*
X013762Y010356D01*
X013762Y010515D02*
X013917Y010515D01*
X013917Y010674D02*
X013762Y010674D01*
X013762Y010832D02*
X012555Y010832D01*
X012517Y010832D02*
X001085Y010832D01*
X001085Y010674D02*
X011348Y010674D01*
X011352Y010675D02*
X011191Y010608D01*
X011067Y010485D01*
X011000Y010323D01*
X011000Y010148D01*
X011067Y009986D01*
X011120Y009933D01*
X011120Y007122D01*
X011169Y007004D01*
X011259Y006914D01*
X012009Y006164D01*
X012001Y006145D01*
X012001Y005656D01*
X012037Y005568D01*
X012105Y005500D01*
X012193Y005464D01*
X012879Y005464D01*
X012967Y005500D01*
X013035Y005568D01*
X013071Y005656D01*
X013071Y005945D01*
X013077Y005945D01*
X013209Y006000D01*
X013209Y005927D01*
X013315Y005821D01*
X013617Y005821D01*
X013617Y006327D01*
X013752Y006327D01*
X013752Y005821D01*
X014054Y005821D01*
X014095Y005862D01*
X014159Y005798D01*
X014247Y005761D01*
X014933Y005761D01*
X015021Y005798D01*
X015043Y005820D01*
X015064Y005798D01*
X015152Y005761D01*
X015838Y005761D01*
X015927Y005798D01*
X015994Y005866D01*
X016031Y005954D01*
X016031Y006320D01*
X016625Y006320D01*
X016625Y005731D01*
X016618Y005706D01*
X016625Y005659D01*
X016625Y005613D01*
X016635Y005588D01*
X016639Y005562D01*
X016650Y005543D01*
X016650Y005326D01*
X016637Y005303D01*
X016634Y005280D01*
X016625Y005258D01*
X016625Y005209D01*
X016619Y005159D01*
X016625Y005136D01*
X016625Y004196D01*
X016621Y004134D01*
X016625Y004124D01*
X016625Y004113D01*
X016649Y004056D01*
X016650Y004052D01*
X016650Y003833D01*
X016642Y003799D01*
X016625Y003758D01*
X016625Y003729D01*
X016618Y003700D01*
X016625Y003657D01*
X016625Y002705D01*
X016619Y002653D01*
X016625Y002634D01*
X016625Y002613D01*
X016645Y002564D01*
X016650Y002547D01*
X016650Y002028D01*
X016732Y001829D01*
X016884Y001678D01*
X017082Y001595D01*
X017297Y001595D01*
X017496Y001678D01*
X017648Y001829D01*
X017722Y002010D01*
X017783Y001863D01*
X017918Y001728D01*
X018094Y001655D01*
X018170Y001655D01*
X018170Y002415D01*
X018210Y002415D01*
X018210Y001655D01*
X018285Y001655D01*
X018462Y001728D01*
X018597Y001863D01*
X018657Y002010D01*
X018732Y001829D01*
X018884Y001678D01*
X019082Y001595D01*
X019297Y001595D01*
X019496Y001678D01*
X019648Y001829D01*
X019690Y001931D01*
X019732Y001829D01*
X019884Y001678D01*
X020082Y001595D01*
X020297Y001595D01*
X020496Y001678D01*
X020648Y001829D01*
X020690Y001931D01*
X020732Y001829D01*
X020884Y001678D01*
X021082Y001595D01*
X021297Y001595D01*
X021496Y001678D01*
X021648Y001829D01*
X021690Y001931D01*
X021732Y001829D01*
X021884Y001678D01*
X022082Y001595D01*
X022297Y001595D01*
X022496Y001678D01*
X022648Y001829D01*
X022730Y002028D01*
X022730Y002843D01*
X022648Y003041D01*
X022496Y003193D01*
X022484Y003198D01*
X022496Y003203D01*
X022648Y003354D01*
X022730Y003553D01*
X022730Y004368D01*
X022648Y004566D01*
X022496Y004718D01*
X022424Y004748D01*
X022496Y004778D01*
X022648Y004929D01*
X022730Y005128D01*
X022730Y005943D01*
X022648Y006141D01*
X022504Y006285D01*
X022648Y006429D01*
X022730Y006628D01*
X022730Y007443D01*
X022648Y007641D01*
X022496Y007793D01*
X022310Y007870D01*
X022310Y009249D01*
X022261Y009367D01*
X022171Y009457D01*
X021050Y010577D01*
X021067Y010570D01*
X021213Y010570D01*
X022845Y010570D01*
X022845Y008260D01*
X022794Y008209D01*
X022727Y008047D01*
X022727Y007873D01*
X022794Y007712D01*
X022917Y007589D01*
X023078Y007522D01*
X023252Y007522D01*
X023413Y007589D01*
X023464Y007640D01*
X023677Y007640D01*
X023677Y007599D01*
X023678Y007597D01*
X023677Y007596D01*
X023677Y007343D01*
X023714Y007254D01*
X023737Y007231D01*
X023737Y007213D01*
X023737Y007196D01*
X023714Y007172D01*
X023677Y007084D01*
X023677Y006831D01*
X023678Y006829D01*
X023677Y006828D01*
X023677Y006575D01*
X023678Y006574D01*
X023677Y006572D01*
X023677Y006510D01*
X023358Y006510D01*
X023231Y006510D01*
X023113Y006461D01*
X023084Y006432D01*
X022994Y006342D01*
X022945Y006224D01*
X022945Y004124D01*
X022945Y003997D01*
X022994Y003879D01*
X025609Y001264D01*
X025726Y001215D01*
X025854Y001215D01*
X036332Y001215D01*
X036359Y001189D01*
X036476Y001140D01*
X036576Y001140D01*
X036704Y001140D01*
X036821Y001189D01*
X036911Y001279D01*
X036960Y001397D01*
X036960Y004536D01*
X037011Y004587D01*
X037078Y004748D01*
X037078Y004922D01*
X037011Y005084D01*
X036888Y005207D01*
X036727Y005273D01*
X036553Y005273D01*
X036392Y005207D01*
X036269Y005084D01*
X036202Y004922D01*
X036202Y004920D01*
X036101Y005164D01*
X035838Y005426D01*
X035496Y005568D01*
X035124Y005568D01*
X034782Y005426D01*
X034519Y005164D01*
X034377Y004821D01*
X034377Y004450D01*
X034519Y004107D01*
X034782Y003845D01*
X035124Y003703D01*
X035496Y003703D01*
X035838Y003845D01*
X036101Y004107D01*
X036243Y004450D01*
X036243Y004649D01*
X036243Y004649D01*
X036269Y004587D01*
X036320Y004536D01*
X036320Y001855D01*
X025922Y001855D01*
X023585Y004193D01*
X023585Y005870D01*
X023677Y005870D01*
X023677Y005807D01*
X023678Y005806D01*
X023677Y005804D01*
X023677Y005551D01*
X023678Y005550D01*
X023677Y005548D01*
X023677Y005295D01*
X023714Y005207D01*
X023781Y005140D01*
X023870Y005103D01*
X024556Y005103D01*
X024644Y005140D01*
X024711Y005207D01*
X024748Y005295D01*
X024748Y005548D01*
X024747Y005550D01*
X024748Y005551D01*
X024748Y005804D01*
X024747Y005806D01*
X024748Y005807D01*
X024748Y006060D01*
X024747Y006062D01*
X024748Y006063D01*
X024748Y006316D01*
X024747Y006318D01*
X024748Y006319D01*
X024748Y006572D01*
X024747Y006574D01*
X024748Y006575D01*
X024748Y006828D01*
X024747Y006829D01*
X024748Y006831D01*
X024748Y007084D01*
X024711Y007172D01*
X024688Y007196D01*
X024688Y007213D01*
X024670Y007213D01*
X024670Y007213D01*
X024670Y007213D01*
X024688Y007213D01*
X024688Y007231D01*
X024711Y007254D01*
X024748Y007343D01*
X024748Y007405D01*
X025176Y007405D01*
X025242Y007339D01*
X025403Y007272D01*
X025577Y007272D01*
X025738Y007339D01*
X025861Y007462D01*
X025928Y007623D01*
X025928Y007797D01*
X025861Y007959D01*
X025738Y008082D01*
X025577Y008148D01*
X025403Y008148D01*
X025242Y008082D01*
X025205Y008045D01*
X024748Y008045D01*
X024748Y008107D01*
X024747Y008109D01*
X024748Y008110D01*
X024748Y008363D01*
X024747Y008365D01*
X024748Y008366D01*
X024748Y008465D01*
X026138Y008465D01*
X026191Y008412D01*
X026352Y008345D01*
X026527Y008345D01*
X026539Y008350D01*
X026568Y008278D01*
X026592Y008255D01*
X026592Y008237D01*
X026609Y008237D01*
X026610Y008237D01*
X026592Y008237D01*
X026592Y008084D01*
X026592Y007981D01*
X026592Y007963D01*
X026568Y007940D01*
X026532Y007852D01*
X026532Y007599D01*
X026532Y007597D01*
X026532Y007596D01*
X026532Y007343D01*
X026532Y007341D01*
X026532Y007340D01*
X026532Y007087D01*
X026559Y007021D01*
X025854Y007021D01*
X025726Y007021D01*
X025609Y006973D01*
X025519Y006883D01*
X025507Y006855D01*
X025494Y006842D01*
X025445Y006724D01*
X025445Y004835D01*
X025394Y004784D01*
X025327Y004622D01*
X025327Y004448D01*
X025394Y004287D01*
X025517Y004164D01*
X025678Y004097D01*
X025852Y004097D01*
X026013Y004164D01*
X026136Y004287D01*
X026203Y004448D01*
X026203Y004622D01*
X026136Y004784D01*
X026085Y004835D01*
X026085Y006381D01*
X026532Y006381D01*
X026532Y006319D01*
X026568Y006231D01*
X026592Y006207D01*
X026592Y006190D01*
X026609Y006190D01*
X026610Y006190D01*
X026609Y006189D01*
X026592Y006189D01*
X026592Y006172D01*
X026568Y006148D01*
X026532Y006060D01*
X026532Y005807D01*
X026532Y005806D01*
X026532Y005804D01*
X026532Y005551D01*
X026532Y005550D01*
X026532Y005548D01*
X026532Y005295D01*
X026568Y005207D01*
X026636Y005140D01*
X026724Y005103D01*
X027000Y005103D01*
X027003Y005102D01*
X027171Y005102D01*
X029194Y003079D01*
X029284Y002989D01*
X029401Y002940D01*
X031476Y002940D01*
X031604Y002940D01*
X031721Y002989D01*
X032621Y003889D01*
X032711Y003979D01*
X032760Y004097D01*
X032760Y005269D01*
X032975Y005484D01*
X032975Y005499D01*
X033239Y005235D01*
X033418Y005235D01*
X033418Y005689D01*
X033446Y005689D01*
X033446Y005716D01*
X033899Y005716D01*
X033899Y005896D01*
X033741Y006054D01*
X033858Y006170D01*
X036217Y006170D01*
X036363Y006170D01*
X036497Y006226D01*
X036979Y006708D01*
X037032Y006579D01*
X037184Y006428D01*
X037364Y006353D01*
X037218Y006292D01*
X037083Y006157D01*
X037010Y005981D01*
X037010Y005905D01*
X037770Y005905D01*
X037770Y005865D01*
X037810Y005865D01*
X037810Y005405D01*
X038185Y005405D01*
X038362Y005478D01*
X038497Y005613D01*
X038570Y005790D01*
X038570Y005865D01*
X037810Y005865D01*
X037810Y005905D01*
X038570Y005905D01*
X038570Y005981D01*
X038497Y006157D01*
X038362Y006292D01*
X038215Y006353D01*
X038396Y006428D01*
X038548Y006579D01*
X038630Y006778D01*
X038630Y006993D01*
X038548Y007191D01*
X038396Y007343D01*
X038294Y007385D01*
X038396Y007428D01*
X038548Y007579D01*
X038630Y007778D01*
X038630Y007993D01*
X038548Y008191D01*
X038396Y008343D01*
X038294Y008385D01*
X038396Y008428D01*
X038548Y008579D01*
X038630Y008778D01*
X038630Y008993D01*
X038548Y009191D01*
X038396Y009343D01*
X038294Y009385D01*
X038396Y009428D01*
X038548Y009579D01*
X038630Y009778D01*
X038630Y009993D01*
X038548Y010191D01*
X038396Y010343D01*
X038294Y010385D01*
X038396Y010428D01*
X038548Y010579D01*
X038630Y010778D01*
X038630Y010993D01*
X038548Y011191D01*
X038396Y011343D01*
X038197Y011425D01*
X037382Y011425D01*
X037184Y011343D01*
X037046Y011205D01*
X032122Y011205D01*
X030957Y012370D01*
X031422Y012370D01*
X031621Y012453D01*
X031773Y012604D01*
X031855Y012803D01*
X031855Y013018D01*
X031773Y013216D01*
X031621Y013368D01*
X031519Y013410D01*
X031621Y013453D01*
X031773Y013604D01*
X031855Y013803D01*
X031855Y014018D01*
X031773Y014216D01*
X031621Y014368D01*
X031422Y014450D01*
X030607Y014450D01*
X030409Y014368D01*
X030257Y014216D01*
X030175Y014018D01*
X030175Y013803D01*
X030257Y013604D01*
X030409Y013453D01*
X030511Y013410D01*
X030409Y013368D01*
X030257Y013216D01*
X030214Y013113D01*
X030171Y013157D01*
X030054Y013205D01*
X029926Y013205D01*
X029802Y013205D01*
X029798Y013216D01*
X029646Y013368D01*
X029544Y013410D01*
X029646Y013453D01*
X029798Y013604D01*
X029880Y013803D01*
X029880Y014018D01*
X029798Y014216D01*
X029646Y014368D01*
X029447Y014450D01*
X028921Y014450D01*
X030891Y016420D01*
X031013Y016420D01*
X031094Y016420D01*
X031130Y016334D01*
X031197Y016267D01*
X031285Y016230D01*
X032562Y016230D01*
X032650Y016267D01*
X032718Y016334D01*
X032754Y016423D01*
X032754Y017148D01*
X032718Y017236D01*
X032650Y017304D01*
X032562Y017340D01*
X031285Y017340D01*
X031197Y017304D01*
X031163Y017269D01*
X031027Y017325D01*
X030852Y017325D01*
X030691Y017258D01*
X030567Y017135D01*
X030554Y017103D01*
X030533Y017095D01*
X027989Y014550D01*
X027917Y014550D01*
X027783Y014495D01*
X027680Y014392D01*
X027625Y014258D01*
X027625Y014187D01*
X026733Y013295D01*
X026630Y013192D01*
X026335Y012896D01*
X026335Y013158D01*
X026298Y013246D01*
X026231Y013314D01*
X026143Y013350D01*
X026077Y013350D01*
X026113Y013386D01*
X026180Y013548D01*
X026180Y013723D01*
X026113Y013885D01*
X025989Y014008D01*
X025827Y014075D01*
X025652Y014075D01*
X025491Y014008D01*
X025367Y013885D01*
X025300Y013723D01*
X025300Y013548D01*
X025367Y013386D01*
X025403Y013350D01*
X025337Y013350D01*
X025249Y013314D01*
X025182Y013246D01*
X025145Y013158D01*
X025145Y012432D01*
X025182Y012344D01*
X025249Y012277D01*
X025337Y012240D01*
X025829Y012240D01*
X025819Y012230D01*
X025337Y012230D01*
X025249Y012194D01*
X025182Y012126D01*
X025145Y012038D01*
X025145Y011950D01*
X025133Y011945D01*
X024489Y011300D01*
X023860Y011300D01*
X023880Y011348D01*
X023880Y011523D01*
X023813Y011685D01*
X023689Y011808D01*
X023570Y011858D01*
X023432Y011995D01*
X023527Y011995D01*
X023689Y012062D01*
X023742Y012115D01*
X023865Y012115D01*
X023882Y012075D01*
X023949Y012007D01*
X024037Y011971D01*
X024843Y011971D01*
X024931Y012007D01*
X024998Y012075D01*
X025035Y012163D01*
X025035Y012888D01*
X024998Y012976D01*
X024931Y013044D01*
X024843Y013080D01*
X024037Y013080D01*
X023949Y013044D01*
X023882Y012976D01*
X023845Y012888D01*
X023845Y012755D01*
X023742Y012755D01*
X023689Y012808D01*
X023527Y012875D01*
X023352Y012875D01*
X023337Y012869D01*
X023337Y013126D01*
X023300Y013214D01*
X023233Y013282D01*
X023144Y013318D01*
X022183Y013318D01*
X022180Y013317D01*
X022139Y013358D01*
X021977Y013425D01*
X021802Y013425D01*
X021641Y013358D01*
X021517Y013235D01*
X021450Y013073D01*
X021450Y012898D01*
X021481Y012823D01*
X021403Y012823D01*
X021242Y012757D01*
X021226Y012741D01*
X021214Y012753D01*
X021229Y012768D01*
X021229Y012960D01*
X020617Y012960D01*
X020617Y012961D01*
X021229Y012961D01*
X021229Y013153D01*
X021124Y013258D01*
X020616Y013258D01*
X020109Y013258D01*
X020003Y013153D01*
X020003Y013005D01*
X019926Y013005D01*
X019560Y013005D01*
X019560Y013058D01*
X019523Y013146D01*
X019456Y013214D01*
X019368Y013250D01*
X018562Y013250D01*
X018474Y013214D01*
X018407Y013146D01*
X018370Y013058D01*
X018370Y012518D01*
X017809Y011957D01*
X017719Y011867D01*
X017670Y011749D01*
X017670Y011249D01*
X017670Y011122D01*
X017719Y011004D01*
X018582Y010140D01*
X018555Y010129D01*
X018487Y010061D01*
X018451Y009973D01*
X018451Y009599D01*
X018319Y009467D01*
X018319Y009533D01*
X017626Y009533D01*
X017626Y009115D01*
X018170Y009115D01*
X018170Y008988D01*
X018117Y008935D01*
X018050Y008773D01*
X018050Y008598D01*
X018117Y008436D01*
X018241Y008312D01*
X018402Y008245D01*
X018577Y008245D01*
X018739Y008312D01*
X018863Y008436D01*
X018930Y008598D01*
X018930Y008773D01*
X018863Y008935D01*
X018810Y008988D01*
X018810Y009053D01*
X018813Y009055D01*
X019919Y009055D01*
X020008Y009092D01*
X020075Y009159D01*
X020112Y009248D01*
X020112Y009865D01*
X020170Y009865D01*
X020170Y008249D01*
X020170Y008122D01*
X020219Y008004D01*
X020383Y007840D01*
X020297Y007875D01*
X020082Y007875D01*
X019884Y007793D01*
X019732Y007641D01*
X019690Y007539D01*
X019648Y007641D01*
X019496Y007793D01*
X019297Y007875D01*
X019082Y007875D01*
X018884Y007793D01*
X018732Y007641D01*
X018657Y007461D01*
X018597Y007607D01*
X018462Y007742D01*
X018285Y007815D01*
X018210Y007815D01*
X018210Y007056D01*
X018170Y007056D01*
X018170Y007815D01*
X018094Y007815D01*
X017918Y007742D01*
X017783Y007607D01*
X017722Y007461D01*
X017648Y007641D01*
X017496Y007793D01*
X017297Y007875D01*
X017082Y007875D01*
X016884Y007793D01*
X016732Y007641D01*
X016650Y007443D01*
X016650Y007050D01*
X015591Y007050D01*
X015430Y007211D01*
X015430Y007223D01*
X015363Y007385D01*
X015239Y007508D01*
X015077Y007575D01*
X014902Y007575D01*
X014741Y007508D01*
X014617Y007385D01*
X014550Y007223D01*
X014550Y007048D01*
X014558Y007029D01*
X014247Y007029D01*
X014159Y006992D01*
X014095Y006928D01*
X014054Y006969D01*
X013752Y006969D01*
X013752Y006463D01*
X013617Y006463D01*
X013617Y006969D01*
X013315Y006969D01*
X013209Y006863D01*
X013209Y006771D01*
X013077Y006825D01*
X013071Y006825D01*
X013071Y007130D01*
X013035Y007218D01*
X012967Y007285D01*
X012879Y007322D01*
X012193Y007322D01*
X012105Y007285D01*
X012037Y007218D01*
X012001Y007130D01*
X012001Y007077D01*
X011760Y007318D01*
X011760Y009933D01*
X011813Y009986D01*
X011880Y010148D01*
X011880Y010323D01*
X011813Y010485D01*
X011689Y010608D01*
X011527Y010675D01*
X011352Y010675D01*
X011532Y010674D02*
X012061Y010674D01*
X012096Y010515D02*
X011782Y010515D01*
X011866Y010356D02*
X013334Y010356D01*
X013305Y010515D02*
X012976Y010515D01*
X013011Y010674D02*
X013305Y010674D01*
X013762Y010991D02*
X013917Y010991D01*
X013917Y011149D02*
X013762Y011149D01*
X013715Y011308D02*
X015215Y011308D01*
X015167Y011149D02*
X015012Y011149D01*
X015012Y010991D02*
X015167Y010991D01*
X015168Y010832D02*
X016312Y010832D01*
X016468Y010832D02*
X017891Y010832D01*
X018049Y010674D02*
X016925Y010674D01*
X016925Y010515D02*
X018208Y010515D01*
X018366Y010356D02*
X016895Y010356D01*
X016884Y010105D02*
X016778Y010000D01*
X016778Y009688D01*
X017471Y009688D01*
X017471Y009533D01*
X016778Y009533D01*
X016778Y009221D01*
X016884Y009115D01*
X017471Y009115D01*
X017471Y009533D01*
X017626Y009533D01*
X017626Y009688D01*
X017471Y009688D01*
X017471Y010105D01*
X016884Y010105D01*
X016818Y010039D02*
X013702Y010039D01*
X013730Y009881D02*
X016778Y009881D01*
X016778Y009722D02*
X013699Y009722D01*
X013591Y009564D02*
X017471Y009564D01*
X017626Y009564D02*
X018416Y009564D01*
X018319Y009688D02*
X018319Y010000D01*
X018214Y010105D01*
X017626Y010105D01*
X017626Y009688D01*
X018319Y009688D01*
X018319Y009722D02*
X018451Y009722D01*
X018451Y009881D02*
X018319Y009881D01*
X018280Y010039D02*
X018478Y010039D01*
X018525Y010198D02*
X013600Y010198D01*
X013290Y009885D02*
X012540Y009885D01*
X012536Y009838D01*
X012890Y009405D02*
X013639Y009405D01*
X013638Y009405D02*
X013602Y009317D01*
X013602Y009205D01*
X013016Y009205D01*
X012967Y009254D01*
X012879Y009290D01*
X012193Y009290D01*
X012105Y009254D01*
X012037Y009186D01*
X012001Y009098D01*
X012001Y008609D01*
X012037Y008521D01*
X012105Y008453D01*
X012193Y008417D01*
X012879Y008417D01*
X012967Y008453D01*
X013035Y008521D01*
X013053Y008565D01*
X013602Y008565D01*
X013602Y008434D01*
X013638Y008346D01*
X013706Y008278D01*
X013794Y008242D01*
X015386Y008242D01*
X015474Y008278D01*
X015541Y008346D01*
X015549Y008365D01*
X016188Y008365D01*
X016241Y008312D01*
X016402Y008245D01*
X016577Y008245D01*
X016739Y008312D01*
X016863Y008436D01*
X016930Y008598D01*
X016930Y008773D01*
X016863Y008935D01*
X016739Y009058D01*
X016577Y009125D01*
X016402Y009125D01*
X016241Y009058D01*
X016188Y009005D01*
X015578Y009005D01*
X015578Y009317D01*
X015541Y009405D01*
X016778Y009405D01*
X016778Y009247D02*
X015578Y009247D01*
X015578Y009088D02*
X016313Y009088D01*
X016667Y009088D02*
X018170Y009088D01*
X018115Y008930D02*
X016865Y008930D01*
X016930Y008771D02*
X018050Y008771D01*
X018050Y008613D02*
X016930Y008613D01*
X016870Y008454D02*
X018109Y008454D01*
X018281Y008295D02*
X016698Y008295D01*
X016281Y008295D02*
X015491Y008295D01*
X014990Y008685D02*
X014590Y008876D01*
X014590Y008885D01*
X012540Y008885D01*
X012536Y008853D01*
X012104Y008454D02*
X011760Y008454D01*
X011760Y008613D02*
X012001Y008613D01*
X012001Y008771D02*
X011760Y008771D01*
X011760Y008930D02*
X012001Y008930D01*
X012001Y009088D02*
X011760Y009088D01*
X011760Y009247D02*
X012098Y009247D01*
X012182Y009405D02*
X011760Y009405D01*
X011760Y009564D02*
X012013Y009564D01*
X012001Y009722D02*
X011760Y009722D01*
X011760Y009881D02*
X012001Y009881D01*
X012001Y010039D02*
X011835Y010039D01*
X011880Y010198D02*
X012065Y010198D01*
X012517Y010515D02*
X012554Y010515D01*
X012554Y010674D02*
X012517Y010674D01*
X012517Y010991D02*
X012554Y010991D01*
X012554Y011149D02*
X012517Y011149D01*
X012750Y011308D02*
X001085Y011308D01*
X001085Y011466D02*
X012029Y011466D01*
X012001Y011625D02*
X001085Y011625D01*
X001085Y011783D02*
X012001Y011783D01*
X012001Y011942D02*
X001085Y011942D01*
X001085Y012100D02*
X009341Y012100D01*
X009164Y012259D02*
X001085Y012259D01*
X001085Y012418D02*
X009005Y012418D01*
X008847Y012576D02*
X001085Y012576D01*
X001085Y012735D02*
X008688Y012735D01*
X008529Y012893D02*
X001085Y012893D01*
X001085Y013052D02*
X008371Y013052D01*
X008212Y013210D02*
X001085Y013210D01*
X001085Y013369D02*
X008054Y013369D01*
X007540Y014335D02*
X007530Y014335D01*
X007490Y014385D01*
X007490Y016735D01*
X007740Y016985D01*
X009240Y016985D01*
X009990Y016235D01*
X009990Y016185D01*
X010040Y015385D02*
X009740Y015385D01*
X008990Y016135D01*
X008990Y016185D01*
X009315Y014935D02*
X009315Y014435D01*
X009215Y014335D01*
X010040Y015385D02*
X011040Y014385D01*
X011140Y014385D01*
X011200Y014335D01*
X011240Y014335D01*
X012140Y013435D01*
X012490Y013435D01*
X012536Y013432D01*
X012536Y012960D02*
X012490Y012935D01*
X012240Y012935D01*
X011690Y012385D01*
X009490Y012385D01*
X007540Y014335D01*
X006097Y015747D02*
X005961Y015747D01*
X005961Y015906D02*
X006097Y015906D01*
X005554Y016223D02*
X005186Y016223D01*
X005186Y016381D02*
X005554Y016381D01*
X004690Y016085D02*
X004690Y017285D01*
X004730Y017285D01*
X004244Y017808D02*
X004186Y017808D01*
X003740Y017285D02*
X003700Y017285D01*
X003740Y017285D02*
X003790Y017235D01*
X003790Y016085D01*
X003829Y016085D01*
X003294Y016064D02*
X002519Y016064D01*
X002519Y016153D02*
X002383Y016153D01*
X002383Y016561D01*
X002081Y016561D01*
X001984Y016464D01*
X001984Y016477D01*
X002171Y016664D01*
X002203Y016696D01*
X002217Y016690D01*
X002569Y016690D01*
X002699Y016561D01*
X002519Y016561D01*
X002519Y016153D01*
X002519Y016223D02*
X002383Y016223D01*
X002383Y016381D02*
X002519Y016381D01*
X002519Y016540D02*
X002383Y016540D01*
X002060Y016540D02*
X002047Y016540D01*
X001990Y016935D02*
X001990Y018385D01*
X003490Y019885D01*
X002970Y019869D02*
X001085Y019869D01*
X001085Y019711D02*
X002863Y019711D01*
X002704Y019552D02*
X001085Y019552D01*
X001085Y019393D02*
X002545Y019393D01*
X002387Y019235D02*
X001085Y019235D01*
X001085Y019076D02*
X002228Y019076D01*
X002070Y018918D02*
X001085Y018918D01*
X001085Y018759D02*
X001911Y018759D01*
X001753Y018601D02*
X001085Y018601D01*
X001085Y018442D02*
X001670Y018442D01*
X001670Y018284D02*
X001085Y018284D01*
X001085Y018125D02*
X001670Y018125D01*
X001670Y017967D02*
X001085Y017967D01*
X001312Y017808D02*
X001467Y017808D01*
X001467Y017649D02*
X001312Y017649D01*
X001312Y017359D02*
X001467Y017359D01*
X001467Y016942D01*
X001544Y016942D01*
X001491Y016889D01*
X001085Y016889D01*
X001085Y016942D01*
X001312Y016942D01*
X001312Y017359D01*
X001312Y017332D02*
X001467Y017332D01*
X001467Y017174D02*
X001312Y017174D01*
X001312Y017015D02*
X001467Y017015D01*
X001990Y016935D02*
X001390Y016335D01*
X001390Y016334D01*
X001085Y015747D02*
X001976Y015747D01*
X001976Y015906D02*
X001957Y015906D01*
X002383Y015906D02*
X002519Y015906D01*
X002519Y015747D02*
X002383Y015747D01*
X002926Y015747D02*
X003294Y015747D01*
X003294Y015906D02*
X002926Y015906D01*
X002926Y016223D02*
X002930Y016223D01*
X003396Y015588D02*
X001085Y015588D01*
X001511Y014003D02*
X001671Y014003D01*
X001671Y013844D02*
X001511Y013844D01*
X001511Y013686D02*
X001671Y013686D01*
X001085Y013567D02*
X001085Y002904D01*
X001551Y002904D01*
X001551Y002410D01*
X001710Y002410D01*
X001710Y002904D01*
X002296Y002904D01*
X002401Y002798D01*
X002401Y002410D01*
X001711Y002410D01*
X001711Y002250D01*
X002401Y002250D01*
X002401Y001862D01*
X002296Y001756D01*
X001710Y001756D01*
X001710Y002250D01*
X001551Y002250D01*
X001551Y001756D01*
X001085Y001756D01*
X001085Y001637D02*
X012636Y001637D01*
X012587Y001795D02*
X002335Y001795D01*
X002401Y001954D02*
X012538Y001954D01*
X012529Y002112D02*
X002401Y002112D01*
X002401Y002429D02*
X012529Y002429D01*
X012529Y002271D02*
X001711Y002271D01*
X001710Y002429D02*
X001551Y002429D01*
X001551Y002588D02*
X001710Y002588D01*
X001710Y002746D02*
X001551Y002746D01*
X001085Y002905D02*
X012658Y002905D01*
X012609Y002746D02*
X002401Y002746D01*
X002401Y002588D02*
X012560Y002588D01*
X012744Y003064D02*
X001085Y003064D01*
X001085Y003222D02*
X012852Y003222D01*
X012962Y003381D02*
X001085Y003381D01*
X001085Y003539D02*
X013160Y003539D01*
X013369Y003698D02*
X001085Y003698D01*
X001085Y003856D02*
X013773Y003856D01*
X014554Y003856D02*
X016650Y003856D01*
X016650Y004015D02*
X001085Y004015D01*
X001085Y004173D02*
X011023Y004173D01*
X010986Y004189D02*
X011278Y004068D01*
X011595Y004068D01*
X011887Y004189D01*
X012111Y004412D01*
X012146Y004499D01*
X012193Y004480D01*
X012879Y004480D01*
X012967Y004516D01*
X013035Y004584D01*
X013071Y004672D01*
X013071Y005161D01*
X013035Y005249D01*
X012967Y005317D01*
X012879Y005353D01*
X012193Y005353D01*
X012106Y005317D01*
X011887Y005536D01*
X011595Y005657D01*
X011278Y005657D01*
X010986Y005536D01*
X010763Y005313D01*
X010642Y005021D01*
X010642Y004704D01*
X010763Y004412D01*
X010986Y004189D01*
X010843Y004332D02*
X001085Y004332D01*
X001085Y004490D02*
X010730Y004490D01*
X010665Y004649D02*
X001085Y004649D01*
X001085Y004807D02*
X010642Y004807D01*
X010642Y004966D02*
X001085Y004966D01*
X001085Y005125D02*
X010685Y005125D01*
X010750Y005283D02*
X001085Y005283D01*
X001085Y005442D02*
X010892Y005442D01*
X011140Y005600D02*
X001085Y005600D01*
X001085Y005759D02*
X012001Y005759D01*
X012001Y005917D02*
X001085Y005917D01*
X001085Y006076D02*
X012001Y006076D01*
X011938Y006234D02*
X001085Y006234D01*
X001085Y006393D02*
X011780Y006393D01*
X011621Y006551D02*
X001085Y006551D01*
X001085Y006710D02*
X011463Y006710D01*
X011304Y006869D02*
X001085Y006869D01*
X001085Y007027D02*
X011159Y007027D01*
X011120Y007186D02*
X001085Y007186D01*
X001085Y007344D02*
X011120Y007344D01*
X011120Y007503D02*
X001085Y007503D01*
X001085Y007661D02*
X011120Y007661D01*
X011120Y007820D02*
X001085Y007820D01*
X001085Y007978D02*
X011120Y007978D01*
X011120Y008137D02*
X001085Y008137D01*
X001085Y008295D02*
X011120Y008295D01*
X011120Y008454D02*
X001085Y008454D01*
X001085Y008613D02*
X011120Y008613D01*
X011120Y008771D02*
X001085Y008771D01*
X001085Y008930D02*
X011120Y008930D01*
X011120Y009088D02*
X001085Y009088D01*
X001085Y009247D02*
X011120Y009247D01*
X011120Y009405D02*
X001085Y009405D01*
X001085Y009564D02*
X011120Y009564D01*
X011120Y009722D02*
X001085Y009722D01*
X001085Y009881D02*
X011120Y009881D01*
X011045Y010039D02*
X001085Y010039D01*
X001085Y010198D02*
X011000Y010198D01*
X011014Y010356D02*
X001085Y010356D01*
X001085Y010515D02*
X011097Y010515D01*
X011440Y010235D02*
X011440Y007185D01*
X012490Y006135D01*
X012490Y005935D01*
X012536Y005901D01*
X013071Y005917D02*
X013219Y005917D01*
X013071Y005759D02*
X016625Y005759D01*
X016625Y005917D02*
X016016Y005917D01*
X016031Y006076D02*
X016625Y006076D01*
X016625Y006234D02*
X016031Y006234D01*
X016630Y005600D02*
X013048Y005600D01*
X013001Y005283D02*
X016634Y005283D01*
X016625Y005125D02*
X013071Y005125D01*
X013071Y004966D02*
X016625Y004966D01*
X016625Y004807D02*
X013071Y004807D01*
X013062Y004649D02*
X016625Y004649D01*
X016625Y004490D02*
X012905Y004490D01*
X012167Y004490D02*
X012143Y004490D01*
X012030Y004332D02*
X016625Y004332D01*
X016624Y004173D02*
X011850Y004173D01*
X011982Y005442D02*
X016650Y005442D01*
X017424Y004748D02*
X017496Y004778D01*
X017648Y004929D01*
X017722Y005110D01*
X017783Y004963D01*
X017918Y004828D01*
X018094Y004755D01*
X018170Y004755D01*
X018170Y005515D01*
X018210Y005515D01*
X018210Y004755D01*
X018285Y004755D01*
X018462Y004828D01*
X018597Y004963D01*
X018657Y005110D01*
X018670Y005080D01*
X018670Y004416D01*
X018657Y004386D01*
X018597Y004532D01*
X018462Y004667D01*
X018285Y004740D01*
X018210Y004740D01*
X018210Y003981D01*
X018170Y003981D01*
X018170Y004740D01*
X018094Y004740D01*
X017918Y004667D01*
X017783Y004532D01*
X017722Y004386D01*
X017648Y004566D01*
X017496Y004718D01*
X017424Y004748D01*
X017526Y004807D02*
X017969Y004807D01*
X017900Y004649D02*
X017565Y004649D01*
X017679Y004490D02*
X017766Y004490D01*
X018170Y004490D02*
X018210Y004490D01*
X018210Y004332D02*
X018170Y004332D01*
X018170Y004173D02*
X018210Y004173D01*
X018210Y004015D02*
X018170Y004015D01*
X018170Y003940D02*
X018210Y003940D01*
X018210Y003215D01*
X018210Y002456D01*
X018170Y002456D01*
X018170Y003215D01*
X018170Y003940D01*
X018170Y003856D02*
X018210Y003856D01*
X018210Y003698D02*
X018170Y003698D01*
X018170Y003539D02*
X018210Y003539D01*
X018210Y003381D02*
X018170Y003381D01*
X018170Y003222D02*
X018210Y003222D01*
X018210Y003064D02*
X018170Y003064D01*
X018170Y002905D02*
X018210Y002905D01*
X018210Y002746D02*
X018170Y002746D01*
X018170Y002588D02*
X018210Y002588D01*
X018210Y002271D02*
X018170Y002271D01*
X018170Y002112D02*
X018210Y002112D01*
X018210Y001954D02*
X018170Y001954D01*
X018170Y001795D02*
X018210Y001795D01*
X018529Y001795D02*
X018766Y001795D01*
X018681Y001954D02*
X018634Y001954D01*
X018983Y001637D02*
X017397Y001637D01*
X017613Y001795D02*
X017851Y001795D01*
X017746Y001954D02*
X017699Y001954D01*
X016983Y001637D02*
X015745Y001637D01*
X015804Y001795D02*
X016766Y001795D01*
X016681Y001954D02*
X015827Y001954D01*
X015851Y002112D02*
X016650Y002112D01*
X016650Y002271D02*
X015865Y002271D01*
X015841Y002429D02*
X016650Y002429D01*
X016635Y002588D02*
X015817Y002588D01*
X015788Y002746D02*
X016625Y002746D01*
X016625Y002905D02*
X015711Y002905D01*
X015635Y003064D02*
X016625Y003064D01*
X016625Y003222D02*
X015541Y003222D01*
X015393Y003381D02*
X016625Y003381D01*
X016625Y003539D02*
X015246Y003539D01*
X014979Y003698D02*
X016618Y003698D01*
X018170Y004649D02*
X018210Y004649D01*
X018210Y004807D02*
X018170Y004807D01*
X018170Y004966D02*
X018210Y004966D01*
X018210Y005125D02*
X018170Y005125D01*
X018170Y005283D02*
X018210Y005283D01*
X018210Y005442D02*
X018170Y005442D01*
X018170Y005556D02*
X018170Y006255D01*
X018170Y007015D01*
X018210Y007015D01*
X018210Y006255D01*
X018210Y005556D01*
X018170Y005556D01*
X018170Y005600D02*
X018210Y005600D01*
X018210Y005759D02*
X018170Y005759D01*
X018170Y005917D02*
X018210Y005917D01*
X018210Y006076D02*
X018170Y006076D01*
X018170Y006234D02*
X018210Y006234D01*
X018210Y006393D02*
X018170Y006393D01*
X018170Y006551D02*
X018210Y006551D01*
X018210Y006710D02*
X018170Y006710D01*
X018170Y006869D02*
X018210Y006869D01*
X018210Y007186D02*
X018170Y007186D01*
X018170Y007344D02*
X018210Y007344D01*
X018210Y007503D02*
X018170Y007503D01*
X018170Y007661D02*
X018210Y007661D01*
X018543Y007661D02*
X018752Y007661D01*
X018675Y007503D02*
X018640Y007503D01*
X018948Y007820D02*
X017431Y007820D01*
X017628Y007661D02*
X017837Y007661D01*
X017740Y007503D02*
X017705Y007503D01*
X016948Y007820D02*
X013011Y007820D01*
X013011Y007851D02*
X012555Y007851D01*
X012555Y007888D01*
X013011Y007888D01*
X013011Y008141D01*
X012906Y008246D01*
X012554Y008246D01*
X012554Y007888D01*
X012517Y007888D01*
X012517Y007851D01*
X012061Y007851D01*
X012061Y007598D01*
X012166Y007492D01*
X012517Y007492D01*
X012517Y007851D01*
X012554Y007851D01*
X012554Y007492D01*
X012906Y007492D01*
X013011Y007598D01*
X013011Y007851D01*
X013011Y007978D02*
X020244Y007978D01*
X020170Y008137D02*
X013011Y008137D01*
X012968Y008454D02*
X013602Y008454D01*
X013689Y008295D02*
X011760Y008295D01*
X011760Y008137D02*
X012061Y008137D01*
X012061Y008141D02*
X012061Y007888D01*
X012517Y007888D01*
X012517Y008246D01*
X012166Y008246D01*
X012061Y008141D01*
X012061Y007978D02*
X011760Y007978D01*
X011760Y007820D02*
X012061Y007820D01*
X012061Y007661D02*
X011760Y007661D01*
X011760Y007503D02*
X012156Y007503D01*
X012024Y007186D02*
X011892Y007186D01*
X011760Y007344D02*
X014600Y007344D01*
X014550Y007186D02*
X013048Y007186D01*
X013071Y007027D02*
X014243Y007027D01*
X013752Y006869D02*
X013617Y006869D01*
X013617Y006710D02*
X013752Y006710D01*
X013752Y006551D02*
X013617Y006551D01*
X013616Y006463D02*
X013430Y006463D01*
X013430Y006327D01*
X013616Y006327D01*
X013616Y006463D01*
X013616Y006393D02*
X013430Y006393D01*
X013617Y006234D02*
X013752Y006234D01*
X013752Y006076D02*
X013617Y006076D01*
X013617Y005917D02*
X013752Y005917D01*
X012990Y006385D02*
X012540Y006835D01*
X012536Y006885D01*
X013071Y006869D02*
X013214Y006869D01*
X012916Y007503D02*
X014735Y007503D01*
X015245Y007503D02*
X016675Y007503D01*
X016650Y007344D02*
X015380Y007344D01*
X015456Y007186D02*
X016650Y007186D01*
X016752Y007661D02*
X013011Y007661D01*
X012554Y007661D02*
X012517Y007661D01*
X012517Y007503D02*
X012554Y007503D01*
X012554Y007820D02*
X012517Y007820D01*
X012517Y007978D02*
X012554Y007978D01*
X012554Y008137D02*
X012517Y008137D01*
X012974Y009247D02*
X013602Y009247D01*
X013638Y009405D02*
X013706Y009473D01*
X013794Y009509D01*
X015386Y009509D01*
X015474Y009473D01*
X015541Y009405D01*
X014990Y008685D02*
X016490Y008685D01*
X017471Y009247D02*
X017626Y009247D01*
X017626Y009405D02*
X017471Y009405D01*
X017471Y009722D02*
X017626Y009722D01*
X017626Y009881D02*
X017471Y009881D01*
X017471Y010039D02*
X017626Y010039D01*
X018490Y009185D02*
X018490Y008685D01*
X018870Y008454D02*
X020170Y008454D01*
X020170Y008613D02*
X018930Y008613D01*
X018930Y008771D02*
X020170Y008771D01*
X020170Y008930D02*
X018865Y008930D01*
X018490Y009185D02*
X018990Y009685D01*
X019281Y009610D01*
X018990Y010185D02*
X020490Y010185D01*
X020490Y008185D01*
X020990Y007685D01*
X020990Y007185D01*
X021190Y007035D01*
X020990Y006685D01*
X020990Y005685D01*
X021190Y005535D01*
X020990Y005185D01*
X020990Y004185D01*
X021190Y003960D01*
X020990Y003685D01*
X020990Y002685D01*
X021190Y002435D01*
X021613Y001795D02*
X021766Y001795D01*
X021983Y001637D02*
X021397Y001637D01*
X020983Y001637D02*
X020397Y001637D01*
X020613Y001795D02*
X020766Y001795D01*
X019983Y001637D02*
X019397Y001637D01*
X019613Y001795D02*
X019766Y001795D01*
X020190Y002435D02*
X019990Y002685D01*
X019990Y003685D01*
X020190Y003960D01*
X019990Y004185D01*
X019990Y005185D01*
X020190Y005535D01*
X019990Y005685D01*
X019990Y006685D01*
X020190Y007035D01*
X019752Y007661D02*
X019628Y007661D01*
X019431Y007820D02*
X019948Y007820D01*
X020170Y008295D02*
X018698Y008295D01*
X019190Y007035D02*
X018990Y006685D01*
X018990Y005685D01*
X019190Y005535D01*
X018990Y005185D01*
X018990Y004185D01*
X019190Y003960D01*
X018990Y003685D01*
X018990Y002685D01*
X019190Y002435D01*
X018670Y004490D02*
X018614Y004490D01*
X018670Y004649D02*
X018480Y004649D01*
X018411Y004807D02*
X018670Y004807D01*
X018670Y004966D02*
X018598Y004966D01*
X017782Y004966D02*
X017663Y004966D01*
X015669Y001478D02*
X025395Y001478D01*
X025553Y001320D02*
X015593Y001320D01*
X015459Y001161D02*
X036426Y001161D01*
X036540Y001460D02*
X036640Y001460D01*
X036640Y004835D01*
X037037Y004649D02*
X040095Y004649D01*
X040095Y004807D02*
X037078Y004807D01*
X037060Y004966D02*
X040095Y004966D01*
X040095Y005125D02*
X036970Y005125D01*
X037218Y005478D02*
X037394Y005405D01*
X037770Y005405D01*
X037770Y005865D01*
X037010Y005865D01*
X037010Y005790D01*
X037083Y005613D01*
X037218Y005478D01*
X037307Y005442D02*
X035801Y005442D01*
X035981Y005283D02*
X040095Y005283D01*
X040095Y005442D02*
X038273Y005442D01*
X038484Y005600D02*
X040095Y005600D01*
X040095Y005759D02*
X038557Y005759D01*
X038570Y005917D02*
X040095Y005917D01*
X040095Y006076D02*
X038531Y006076D01*
X038420Y006234D02*
X040095Y006234D01*
X040095Y006393D02*
X038312Y006393D01*
X038520Y006551D02*
X040095Y006551D01*
X040095Y006710D02*
X038602Y006710D01*
X038630Y006869D02*
X040095Y006869D01*
X040095Y007027D02*
X038616Y007027D01*
X038550Y007186D02*
X040095Y007186D01*
X040095Y007344D02*
X038393Y007344D01*
X038471Y007503D02*
X040095Y007503D01*
X040095Y007661D02*
X038582Y007661D01*
X038630Y007820D02*
X040095Y007820D01*
X040095Y007978D02*
X038630Y007978D01*
X038570Y008137D02*
X040095Y008137D01*
X040095Y008295D02*
X038443Y008295D01*
X038422Y008454D02*
X040095Y008454D01*
X040095Y008613D02*
X038561Y008613D01*
X038627Y008771D02*
X040095Y008771D01*
X040095Y008930D02*
X038630Y008930D01*
X038590Y009088D02*
X040095Y009088D01*
X040095Y009247D02*
X038492Y009247D01*
X038342Y009405D02*
X040095Y009405D01*
X040095Y009564D02*
X038532Y009564D01*
X038607Y009722D02*
X040095Y009722D01*
X040095Y009881D02*
X038630Y009881D01*
X038611Y010039D02*
X040095Y010039D01*
X040095Y010198D02*
X038541Y010198D01*
X038363Y010356D02*
X040095Y010356D01*
X040095Y010515D02*
X038483Y010515D01*
X038587Y010674D02*
X040095Y010674D01*
X040095Y010832D02*
X038630Y010832D01*
X038630Y010991D02*
X040095Y010991D01*
X040095Y011149D02*
X038565Y011149D01*
X038431Y011308D02*
X040095Y011308D01*
X040095Y011466D02*
X031861Y011466D01*
X031703Y011625D02*
X040095Y011625D01*
X040095Y011783D02*
X031544Y011783D01*
X031386Y011942D02*
X040095Y011942D01*
X040095Y012100D02*
X031227Y012100D01*
X031069Y012259D02*
X040095Y012259D01*
X040095Y012418D02*
X031536Y012418D01*
X031744Y012576D02*
X032310Y012576D01*
X032359Y012528D02*
X032207Y012679D01*
X032125Y012878D01*
X032125Y013093D01*
X032207Y013291D01*
X032359Y013443D01*
X032461Y013485D01*
X032359Y013528D01*
X032207Y013679D01*
X032125Y013878D01*
X032125Y014093D01*
X032207Y014291D01*
X032359Y014443D01*
X032557Y014525D01*
X033372Y014525D01*
X033571Y014443D01*
X033723Y014291D01*
X033805Y014093D01*
X033805Y013878D01*
X033723Y013679D01*
X033571Y013528D01*
X033469Y013485D01*
X033571Y013443D01*
X033723Y013291D01*
X033805Y013093D01*
X033805Y012878D01*
X033723Y012679D01*
X033571Y012528D01*
X033372Y012445D01*
X032557Y012445D01*
X032359Y012528D01*
X032184Y012735D02*
X031827Y012735D01*
X031855Y012893D02*
X032125Y012893D01*
X032125Y013052D02*
X031841Y013052D01*
X031775Y013210D02*
X032174Y013210D01*
X032285Y013369D02*
X031619Y013369D01*
X031696Y013527D02*
X032359Y013527D01*
X032204Y013686D02*
X031806Y013686D01*
X031855Y013844D02*
X032139Y013844D01*
X032125Y014003D02*
X031855Y014003D01*
X031795Y014162D02*
X032153Y014162D01*
X032236Y014320D02*
X031669Y014320D01*
X032445Y014479D02*
X028949Y014479D01*
X029108Y014637D02*
X040095Y014637D01*
X040095Y014479D02*
X033485Y014479D01*
X033694Y014320D02*
X040095Y014320D01*
X040095Y014162D02*
X033776Y014162D01*
X033805Y014003D02*
X040095Y014003D01*
X040095Y013844D02*
X033791Y013844D01*
X033725Y013686D02*
X040095Y013686D01*
X040095Y013527D02*
X033570Y013527D01*
X033645Y013369D02*
X040095Y013369D01*
X040095Y013210D02*
X033756Y013210D01*
X033805Y013052D02*
X040095Y013052D01*
X040095Y012893D02*
X033805Y012893D01*
X033746Y012735D02*
X040095Y012735D01*
X040095Y012576D02*
X033619Y012576D01*
X032020Y011308D02*
X037149Y011308D01*
X037046Y010565D02*
X037184Y010428D01*
X037286Y010385D01*
X037184Y010343D01*
X037032Y010191D01*
X036950Y009993D01*
X036950Y009778D01*
X037032Y009579D01*
X037184Y009428D01*
X037286Y009385D01*
X037184Y009343D01*
X037032Y009191D01*
X036950Y008993D01*
X036950Y008778D01*
X037032Y008579D01*
X037184Y008428D01*
X037286Y008385D01*
X037184Y008343D01*
X037032Y008191D01*
X036950Y007993D01*
X036950Y007778D01*
X036969Y007731D01*
X036139Y006900D01*
X033767Y006900D01*
X033650Y007017D01*
X033425Y007017D01*
X031076Y009365D01*
X031700Y009365D01*
X031700Y009303D01*
X031782Y009104D01*
X031934Y008953D01*
X032132Y008870D01*
X032347Y008870D01*
X032546Y008953D01*
X032698Y009104D01*
X032740Y009206D01*
X032782Y009104D01*
X032934Y008953D01*
X033132Y008870D01*
X033347Y008870D01*
X033546Y008953D01*
X033698Y009104D01*
X033740Y009206D01*
X033782Y009104D01*
X033934Y008953D01*
X034132Y008870D01*
X034347Y008870D01*
X034546Y008953D01*
X034698Y009104D01*
X034772Y009285D01*
X034833Y009138D01*
X034968Y009003D01*
X035144Y008930D01*
X035220Y008930D01*
X035220Y009690D01*
X035260Y009690D01*
X035260Y008930D01*
X035335Y008930D01*
X035512Y009003D01*
X035647Y009138D01*
X035720Y009315D01*
X035720Y009690D01*
X035260Y009690D01*
X035260Y009730D01*
X035720Y009730D01*
X035720Y010106D01*
X035647Y010282D01*
X035512Y010417D01*
X035335Y010490D01*
X035260Y010490D01*
X035260Y009731D01*
X035220Y009731D01*
X035220Y010490D01*
X035144Y010490D01*
X034968Y010417D01*
X034833Y010282D01*
X034772Y010136D01*
X034698Y010316D01*
X034546Y010468D01*
X034347Y010550D01*
X034132Y010550D01*
X033934Y010468D01*
X033782Y010316D01*
X033740Y010214D01*
X033698Y010316D01*
X033546Y010468D01*
X033347Y010550D01*
X033132Y010550D01*
X032934Y010468D01*
X032782Y010316D01*
X032740Y010214D01*
X032698Y010316D01*
X032546Y010468D01*
X032347Y010550D01*
X032132Y010550D01*
X031934Y010468D01*
X031782Y010316D01*
X031700Y010118D01*
X031700Y010005D01*
X030436Y010005D01*
X030434Y010007D01*
X027456Y012985D01*
X028222Y013751D01*
X028282Y013604D01*
X028434Y013453D01*
X028536Y013410D01*
X028434Y013368D01*
X028282Y013216D01*
X028200Y013018D01*
X028200Y012803D01*
X028282Y012604D01*
X028434Y012453D01*
X028632Y012370D01*
X029355Y012370D01*
X029294Y012309D01*
X029227Y012147D01*
X029227Y011973D01*
X029294Y011812D01*
X029417Y011689D01*
X029578Y011622D01*
X029675Y011622D01*
X030052Y011246D01*
X030052Y011173D01*
X030119Y011012D01*
X030242Y010889D01*
X030403Y010822D01*
X030577Y010822D01*
X030738Y010889D01*
X030861Y011012D01*
X030928Y011173D01*
X030928Y011347D01*
X030861Y011509D01*
X030738Y011632D01*
X030577Y011698D01*
X030504Y011698D01*
X030103Y012100D01*
X030103Y012147D01*
X030036Y012309D01*
X029913Y012432D01*
X029752Y012498D01*
X029692Y012498D01*
X029759Y012565D01*
X029857Y012565D01*
X031719Y010704D01*
X031809Y010614D01*
X031926Y010565D01*
X037046Y010565D01*
X037097Y010515D02*
X034433Y010515D01*
X034657Y010356D02*
X034907Y010356D01*
X034798Y010198D02*
X034747Y010198D01*
X035220Y010198D02*
X035260Y010198D01*
X035260Y010356D02*
X035220Y010356D01*
X035220Y010039D02*
X035260Y010039D01*
X035260Y009881D02*
X035220Y009881D01*
X035260Y009722D02*
X036973Y009722D01*
X036950Y009881D02*
X035720Y009881D01*
X035720Y010039D02*
X036969Y010039D01*
X037039Y010198D02*
X035682Y010198D01*
X035573Y010356D02*
X037216Y010356D01*
X037790Y010885D02*
X031990Y010885D01*
X029990Y012885D01*
X029040Y012885D01*
X029040Y012910D01*
X029644Y013369D02*
X030411Y013369D01*
X030334Y013527D02*
X029721Y013527D01*
X029831Y013686D02*
X030223Y013686D01*
X030175Y013844D02*
X029880Y013844D01*
X029880Y014003D02*
X030175Y014003D01*
X030234Y014162D02*
X029820Y014162D01*
X029694Y014320D02*
X030361Y014320D01*
X029584Y015113D02*
X040095Y015113D01*
X040095Y015271D02*
X029742Y015271D01*
X029901Y015430D02*
X040095Y015430D01*
X040095Y015588D02*
X030059Y015588D01*
X030218Y015747D02*
X040095Y015747D01*
X040095Y015906D02*
X030376Y015906D01*
X030535Y016064D02*
X040095Y016064D01*
X040095Y016223D02*
X030693Y016223D01*
X030852Y016381D02*
X031110Y016381D01*
X030454Y017015D02*
X028430Y017015D01*
X028413Y016857D02*
X030295Y016857D01*
X030137Y016698D02*
X028325Y016698D01*
X027990Y016985D02*
X019990Y016985D01*
X019990Y016185D01*
X019463Y015747D02*
X019452Y015747D01*
X019528Y015588D02*
X019372Y015588D01*
X019145Y015430D02*
X019682Y015430D01*
X020298Y015430D02*
X020682Y015430D01*
X020528Y015588D02*
X020451Y015588D01*
X021245Y015271D02*
X015606Y015271D01*
X015448Y015430D02*
X017835Y015430D01*
X017894Y015405D02*
X017718Y015478D01*
X017583Y015613D01*
X017510Y015790D01*
X017510Y016165D01*
X017970Y016165D01*
X018010Y016165D01*
X018010Y015405D01*
X018085Y015405D01*
X018262Y015478D01*
X018397Y015613D01*
X018470Y015790D01*
X018470Y016165D01*
X018010Y016165D01*
X018010Y016205D01*
X018470Y016205D01*
X018470Y016581D01*
X018397Y016757D01*
X018262Y016892D01*
X018085Y016965D01*
X018010Y016965D01*
X018010Y016206D01*
X017970Y016206D01*
X017970Y016965D01*
X017894Y016965D01*
X017718Y016892D01*
X017583Y016757D01*
X017510Y016581D01*
X017510Y016205D01*
X017970Y016205D01*
X017970Y016165D01*
X017970Y015405D01*
X017894Y015405D01*
X017970Y015430D02*
X018010Y015430D01*
X018145Y015430D02*
X018835Y015430D01*
X018970Y015430D02*
X019010Y015430D01*
X019010Y015588D02*
X018970Y015588D01*
X018970Y015747D02*
X019010Y015747D01*
X019010Y015906D02*
X018970Y015906D01*
X018970Y016064D02*
X019010Y016064D01*
X019010Y016223D02*
X018970Y016223D01*
X018970Y016381D02*
X019010Y016381D01*
X019010Y016540D02*
X018970Y016540D01*
X018970Y016698D02*
X019010Y016698D01*
X019010Y016857D02*
X018970Y016857D01*
X018683Y016857D02*
X018297Y016857D01*
X018421Y016698D02*
X018559Y016698D01*
X018510Y016540D02*
X018470Y016540D01*
X018470Y016381D02*
X018510Y016381D01*
X018510Y016223D02*
X018470Y016223D01*
X018470Y016064D02*
X018510Y016064D01*
X018510Y015906D02*
X018470Y015906D01*
X018452Y015747D02*
X018528Y015747D01*
X018608Y015588D02*
X018372Y015588D01*
X018010Y015588D02*
X017970Y015588D01*
X017970Y015747D02*
X018010Y015747D01*
X018010Y015906D02*
X017970Y015906D01*
X017970Y016064D02*
X018010Y016064D01*
X018010Y016223D02*
X017970Y016223D01*
X017970Y016381D02*
X018010Y016381D01*
X018010Y016540D02*
X017970Y016540D01*
X017970Y016698D02*
X018010Y016698D01*
X018010Y016857D02*
X017970Y016857D01*
X017683Y016857D02*
X016200Y016857D01*
X015980Y016857D02*
X014786Y016857D01*
X014490Y016735D02*
X013990Y017235D01*
X014040Y017285D01*
X016090Y017285D01*
X025590Y017285D01*
X027440Y019135D01*
X028590Y019135D01*
X029090Y019635D01*
X029390Y019635D01*
X029733Y020028D02*
X031883Y020028D01*
X031875Y020008D02*
X031875Y019929D01*
X031788Y019893D01*
X031720Y019826D01*
X031684Y019737D01*
X031684Y018933D01*
X031720Y018845D01*
X031788Y018778D01*
X031825Y018762D01*
X031825Y018393D01*
X031817Y018385D01*
X031750Y018223D01*
X031750Y018048D01*
X031817Y017886D01*
X031941Y017762D01*
X032102Y017695D01*
X032277Y017695D01*
X032439Y017762D01*
X032563Y017886D01*
X032630Y018048D01*
X032630Y018223D01*
X032563Y018385D01*
X032555Y018393D01*
X032555Y018741D01*
X032601Y018741D01*
X032690Y018778D01*
X032757Y018845D01*
X032794Y018933D01*
X032794Y019737D01*
X032757Y019826D01*
X032702Y019881D01*
X033211Y020390D01*
X033662Y020390D01*
X033751Y020427D01*
X033818Y020494D01*
X033855Y020583D01*
X033855Y021112D01*
X033855Y021113D01*
X033855Y021117D01*
X033857Y021122D01*
X033855Y021191D01*
X033855Y028765D01*
X033902Y028745D01*
X034077Y028745D01*
X034239Y028812D01*
X034363Y028936D01*
X034430Y029098D01*
X034430Y029273D01*
X034363Y029435D01*
X034310Y029488D01*
X034310Y029546D01*
X034843Y029546D01*
X034931Y029582D01*
X034998Y029650D01*
X035035Y029738D01*
X035035Y030463D01*
X034998Y030551D01*
X034931Y030619D01*
X034843Y030655D01*
X034037Y030655D01*
X033949Y030619D01*
X033882Y030551D01*
X033845Y030463D01*
X033845Y029993D01*
X033809Y029957D01*
X033772Y029920D01*
X033697Y029995D01*
X033506Y030185D01*
X034001Y030680D01*
X034037Y030665D01*
X034843Y030665D01*
X034931Y030702D01*
X034998Y030769D01*
X035035Y030857D01*
X035035Y031583D01*
X034998Y031671D01*
X034931Y031739D01*
X034843Y031775D01*
X034037Y031775D01*
X033949Y031739D01*
X033882Y031671D01*
X033845Y031583D01*
X033845Y031520D01*
X033783Y031495D01*
X033680Y031392D01*
X033385Y031096D01*
X033385Y031508D01*
X033348Y031596D01*
X033281Y031664D01*
X033193Y031700D01*
X032387Y031700D01*
X032299Y031664D01*
X032232Y031596D01*
X032195Y031508D01*
X032195Y031505D01*
X031292Y031505D01*
X031239Y031558D01*
X031077Y031625D01*
X030902Y031625D01*
X030741Y031558D01*
X030617Y031435D01*
X030550Y031273D01*
X030550Y031098D01*
X030617Y030936D01*
X030741Y030812D01*
X030902Y030745D01*
X031077Y030745D01*
X031239Y030812D01*
X031292Y030865D01*
X032195Y030865D01*
X032195Y030782D01*
X032232Y030694D01*
X032299Y030627D01*
X032387Y030590D01*
X032879Y030590D01*
X032869Y030580D01*
X032387Y030580D01*
X032299Y030544D01*
X032232Y030476D01*
X032195Y030388D01*
X032195Y029663D01*
X032232Y029575D01*
X032299Y029507D01*
X032387Y029471D01*
X033125Y029471D01*
X033125Y021580D01*
X032937Y021580D01*
X032849Y021544D01*
X032781Y021476D01*
X032745Y021388D01*
X032745Y020956D01*
X032735Y020947D01*
X032735Y021388D01*
X032698Y021476D01*
X032631Y021544D01*
X032543Y021580D01*
X032510Y021580D01*
X032510Y023855D01*
X032577Y023855D01*
X032776Y023938D01*
X032928Y024089D01*
X033010Y024288D01*
X033010Y024503D01*
X032928Y024701D01*
X032776Y024853D01*
X032577Y024935D01*
X031762Y024935D01*
X031564Y024853D01*
X031412Y024701D01*
X031330Y024503D01*
X031330Y024288D01*
X031412Y024089D01*
X031564Y023938D01*
X031762Y023855D01*
X031870Y023855D01*
X031870Y021580D01*
X031817Y021580D01*
X031729Y021544D01*
X031662Y021476D01*
X031625Y021388D01*
X031625Y020583D01*
X031662Y020494D01*
X031729Y020427D01*
X031817Y020390D01*
X032179Y020390D01*
X031930Y020142D01*
X031875Y020008D01*
X031764Y019869D02*
X029891Y019869D01*
X029910Y019711D02*
X031684Y019711D01*
X031684Y019552D02*
X029910Y019552D01*
X029883Y019393D02*
X031684Y019393D01*
X031684Y019235D02*
X029725Y019235D01*
X029684Y019076D02*
X031684Y019076D01*
X031690Y018918D02*
X029843Y018918D01*
X029910Y018759D02*
X031825Y018759D01*
X031825Y018601D02*
X029910Y018601D01*
X029910Y018442D02*
X031825Y018442D01*
X031775Y018284D02*
X029774Y018284D01*
X029615Y018125D02*
X031750Y018125D01*
X031784Y017967D02*
X029709Y017967D01*
X029580Y018095D02*
X029850Y017826D01*
X029850Y017645D01*
X029400Y017645D01*
X029400Y017625D01*
X029400Y017175D01*
X029580Y017175D01*
X029850Y017445D01*
X029850Y017625D01*
X029400Y017625D01*
X029380Y017625D01*
X029380Y017175D01*
X029199Y017175D01*
X028930Y017445D01*
X028930Y017625D01*
X029380Y017625D01*
X029380Y017645D01*
X028930Y017645D01*
X028930Y017826D01*
X029199Y018095D01*
X029380Y018095D01*
X029380Y017646D01*
X029400Y017646D01*
X029400Y018095D01*
X029580Y018095D01*
X029400Y017967D02*
X029380Y017967D01*
X029380Y017808D02*
X029400Y017808D01*
X029400Y017649D02*
X029380Y017649D01*
X029290Y017585D02*
X029290Y017285D01*
X026690Y014685D01*
X024490Y014685D01*
X024440Y014685D01*
X024517Y014140D02*
X024517Y013723D01*
X024362Y013723D01*
X024362Y013568D01*
X023905Y013568D01*
X023905Y013256D01*
X024010Y013150D01*
X024362Y013150D01*
X024362Y013567D01*
X024517Y013567D01*
X024517Y013150D01*
X024869Y013150D01*
X024975Y013256D01*
X024975Y013568D01*
X024518Y013568D01*
X024518Y013723D01*
X024975Y013723D01*
X024975Y014035D01*
X024869Y014140D01*
X024517Y014140D01*
X024517Y014003D02*
X024362Y014003D01*
X024362Y014140D02*
X024010Y014140D01*
X023905Y014035D01*
X023905Y013723D01*
X024362Y013723D01*
X024362Y014140D01*
X024362Y013844D02*
X024517Y013844D01*
X024518Y013686D02*
X025300Y013686D01*
X025308Y013527D02*
X024975Y013527D01*
X024975Y013369D02*
X025384Y013369D01*
X025167Y013210D02*
X024929Y013210D01*
X024912Y013052D02*
X025145Y013052D01*
X025145Y012893D02*
X025033Y012893D01*
X025035Y012735D02*
X025145Y012735D01*
X025145Y012576D02*
X025035Y012576D01*
X025035Y012418D02*
X025151Y012418D01*
X025035Y012259D02*
X025292Y012259D01*
X025171Y012100D02*
X025009Y012100D01*
X025130Y011942D02*
X023486Y011942D01*
X023714Y011783D02*
X024972Y011783D01*
X024813Y011625D02*
X023838Y011625D01*
X023880Y011466D02*
X024655Y011466D01*
X024496Y011308D02*
X023863Y011308D01*
X023440Y011435D02*
X023440Y011535D01*
X023040Y011935D01*
X022690Y011935D01*
X022664Y011960D01*
X022690Y012435D02*
X023440Y012435D01*
X024440Y012435D01*
X024440Y012526D01*
X023847Y012893D02*
X023337Y012893D01*
X023337Y013052D02*
X023968Y013052D01*
X023950Y013210D02*
X023302Y013210D01*
X023905Y013369D02*
X022114Y013369D01*
X021910Y013686D02*
X024362Y013686D01*
X024362Y013527D02*
X024517Y013527D01*
X024517Y013369D02*
X024362Y013369D01*
X024362Y013210D02*
X024517Y013210D01*
X024975Y013844D02*
X025350Y013844D01*
X025485Y014003D02*
X024975Y014003D01*
X025740Y013635D02*
X025740Y012795D01*
X026335Y013052D02*
X026490Y013052D01*
X026630Y013192D02*
X026630Y013192D01*
X026649Y013210D02*
X026313Y013210D01*
X026096Y013369D02*
X026807Y013369D01*
X026733Y013295D02*
X026733Y013295D01*
X026966Y013527D02*
X026171Y013527D01*
X026180Y013686D02*
X027124Y013686D01*
X027283Y013844D02*
X026130Y013844D01*
X025994Y014003D02*
X027441Y014003D01*
X027600Y014162D02*
X021920Y014162D01*
X021885Y014320D02*
X027651Y014320D01*
X027767Y014479D02*
X021885Y014479D01*
X021885Y014637D02*
X028076Y014637D01*
X028234Y014796D02*
X021885Y014796D01*
X021885Y014954D02*
X028393Y014954D01*
X028551Y015113D02*
X021885Y015113D01*
X021885Y015271D02*
X028710Y015271D01*
X028868Y015430D02*
X026298Y015430D01*
X026451Y015588D02*
X029027Y015588D01*
X029185Y015747D02*
X026517Y015747D01*
X026530Y015906D02*
X029344Y015906D01*
X029502Y016064D02*
X026530Y016064D01*
X026530Y016223D02*
X029661Y016223D01*
X029820Y016381D02*
X026530Y016381D01*
X026530Y016540D02*
X029978Y016540D01*
X029737Y017332D02*
X031266Y017332D01*
X030606Y017174D02*
X028664Y017174D01*
X028822Y017332D02*
X029042Y017332D01*
X028930Y017491D02*
X028910Y017491D01*
X028910Y017649D02*
X028930Y017649D01*
X028930Y017808D02*
X028910Y017808D01*
X028794Y017967D02*
X029071Y017967D01*
X029165Y018125D02*
X028635Y018125D01*
X028774Y018284D02*
X029006Y018284D01*
X029380Y017491D02*
X029400Y017491D01*
X029400Y017332D02*
X029380Y017332D01*
X029850Y017491D02*
X040095Y017491D01*
X040095Y017649D02*
X029850Y017649D01*
X029850Y017808D02*
X031895Y017808D01*
X032485Y017808D02*
X040095Y017808D01*
X040095Y017967D02*
X032596Y017967D01*
X032630Y018125D02*
X040095Y018125D01*
X040095Y018284D02*
X032605Y018284D01*
X032555Y018442D02*
X040095Y018442D01*
X040095Y018601D02*
X032555Y018601D01*
X032646Y018759D02*
X040095Y018759D01*
X040095Y018918D02*
X033836Y018918D01*
X033836Y018906D02*
X033836Y019258D01*
X033419Y019258D01*
X033419Y019413D01*
X033836Y019413D01*
X033836Y019764D01*
X033731Y019870D01*
X033419Y019870D01*
X033419Y019413D01*
X033264Y019413D01*
X033264Y019870D01*
X032952Y019870D01*
X032846Y019764D01*
X032846Y019413D01*
X033263Y019413D01*
X033263Y019258D01*
X032846Y019258D01*
X032846Y018906D01*
X032952Y018801D01*
X033264Y018801D01*
X033264Y019258D01*
X033419Y019258D01*
X033419Y018801D01*
X033731Y018801D01*
X033836Y018906D01*
X033836Y019076D02*
X040095Y019076D01*
X040095Y019235D02*
X033836Y019235D01*
X033836Y019552D02*
X040095Y019552D01*
X040095Y019711D02*
X033836Y019711D01*
X033731Y019869D02*
X040095Y019869D01*
X040095Y020028D02*
X032848Y020028D01*
X032951Y019869D02*
X032714Y019869D01*
X032794Y019711D02*
X032846Y019711D01*
X032846Y019552D02*
X032794Y019552D01*
X032794Y019393D02*
X033263Y019393D01*
X033419Y019393D02*
X040095Y019393D01*
X040095Y020186D02*
X033007Y020186D01*
X033165Y020345D02*
X040095Y020345D01*
X040095Y020503D02*
X033822Y020503D01*
X033855Y020662D02*
X040095Y020662D01*
X040095Y020820D02*
X033855Y020820D01*
X033855Y020979D02*
X040095Y020979D01*
X040095Y021137D02*
X033856Y021137D01*
X033855Y021296D02*
X040095Y021296D01*
X040095Y021455D02*
X033855Y021455D01*
X033855Y021613D02*
X040095Y021613D01*
X040095Y021772D02*
X033855Y021772D01*
X033855Y021930D02*
X040095Y021930D01*
X040095Y022089D02*
X033855Y022089D01*
X033855Y022247D02*
X040095Y022247D01*
X040095Y022406D02*
X033855Y022406D01*
X033855Y022564D02*
X040095Y022564D01*
X040095Y022723D02*
X033855Y022723D01*
X033855Y022881D02*
X040095Y022881D01*
X040095Y023040D02*
X033855Y023040D01*
X033855Y023199D02*
X040095Y023199D01*
X040095Y023357D02*
X033855Y023357D01*
X033855Y023516D02*
X040095Y023516D01*
X040095Y023674D02*
X033855Y023674D01*
X033855Y023833D02*
X040095Y023833D01*
X040095Y023991D02*
X033855Y023991D01*
X033855Y024150D02*
X040095Y024150D01*
X040095Y024308D02*
X033855Y024308D01*
X033855Y024467D02*
X040095Y024467D01*
X040095Y024625D02*
X033855Y024625D01*
X033855Y024784D02*
X040095Y024784D01*
X040095Y024942D02*
X033855Y024942D01*
X033855Y025101D02*
X040095Y025101D01*
X040095Y025260D02*
X033855Y025260D01*
X033855Y025418D02*
X040095Y025418D01*
X040095Y025577D02*
X033855Y025577D01*
X033855Y025735D02*
X040095Y025735D01*
X040095Y025894D02*
X033855Y025894D01*
X033855Y026052D02*
X040095Y026052D01*
X040095Y026211D02*
X033855Y026211D01*
X033855Y026369D02*
X040095Y026369D01*
X040095Y026528D02*
X033855Y026528D01*
X033855Y026686D02*
X040095Y026686D01*
X040095Y026845D02*
X033855Y026845D01*
X033855Y027004D02*
X040095Y027004D01*
X040095Y027162D02*
X033855Y027162D01*
X033855Y027321D02*
X040095Y027321D01*
X040095Y027479D02*
X033855Y027479D01*
X033855Y027638D02*
X040095Y027638D01*
X040095Y027796D02*
X033855Y027796D01*
X033855Y027955D02*
X040095Y027955D01*
X040095Y028113D02*
X033855Y028113D01*
X033855Y028272D02*
X040095Y028272D01*
X040095Y028430D02*
X033855Y028430D01*
X033855Y028589D02*
X040095Y028589D01*
X040095Y028748D02*
X034083Y028748D01*
X033897Y028748D02*
X033855Y028748D01*
X034333Y028906D02*
X040095Y028906D01*
X040095Y029065D02*
X034416Y029065D01*
X034430Y029223D02*
X040095Y029223D01*
X040095Y029382D02*
X034385Y029382D01*
X034310Y029540D02*
X040095Y029540D01*
X040095Y029699D02*
X035019Y029699D01*
X035035Y029857D02*
X040095Y029857D01*
X040095Y030016D02*
X035035Y030016D01*
X035035Y030174D02*
X040095Y030174D01*
X040095Y030333D02*
X035035Y030333D01*
X035023Y030491D02*
X040095Y030491D01*
X040095Y030650D02*
X034856Y030650D01*
X035015Y030809D02*
X040095Y030809D01*
X040095Y030967D02*
X035035Y030967D01*
X035035Y031126D02*
X038417Y031126D01*
X038082Y031284D02*
X035035Y031284D01*
X035035Y031443D02*
X037884Y031443D01*
X037758Y031543D02*
X037758Y031543D01*
X037718Y031601D02*
X035027Y031601D01*
X034879Y031760D02*
X037610Y031760D01*
X037502Y031918D02*
X030142Y031918D01*
X030160Y031760D02*
X034000Y031760D01*
X033853Y031601D02*
X033343Y031601D01*
X033385Y031443D02*
X033731Y031443D01*
X033573Y031284D02*
X033385Y031284D01*
X033385Y031126D02*
X033414Y031126D01*
X032790Y031145D02*
X032490Y031185D01*
X030990Y031185D01*
X030604Y030967D02*
X030009Y030967D01*
X030100Y030876D02*
X029830Y031145D01*
X029650Y031145D01*
X029650Y030696D01*
X029630Y030696D01*
X029630Y031145D01*
X029449Y031145D01*
X029180Y030876D01*
X029180Y030695D01*
X029630Y030695D01*
X029630Y030675D01*
X029650Y030675D01*
X029650Y030225D01*
X029830Y030225D01*
X030100Y030495D01*
X030100Y030675D01*
X029650Y030675D01*
X029650Y030695D01*
X030100Y030695D01*
X030100Y030876D01*
X030100Y030809D02*
X030750Y030809D01*
X030550Y031126D02*
X029850Y031126D01*
X029650Y031126D02*
X029630Y031126D01*
X029630Y030967D02*
X029650Y030967D01*
X029650Y030809D02*
X029630Y030809D01*
X029630Y030675D02*
X029180Y030675D01*
X029180Y030495D01*
X029449Y030225D01*
X029630Y030225D01*
X029630Y030675D01*
X029630Y030650D02*
X029650Y030650D01*
X029650Y030491D02*
X029630Y030491D01*
X029630Y030333D02*
X029650Y030333D01*
X029938Y030333D02*
X032195Y030333D01*
X032195Y030174D02*
X028960Y030174D01*
X028960Y030016D02*
X032195Y030016D01*
X032195Y029857D02*
X028960Y029857D01*
X028960Y029699D02*
X032195Y029699D01*
X032266Y029540D02*
X028960Y029540D01*
X028960Y029382D02*
X033125Y029382D01*
X033125Y029223D02*
X028960Y029223D01*
X028960Y029065D02*
X033125Y029065D01*
X033125Y028906D02*
X028960Y028906D01*
X028960Y028748D02*
X033125Y028748D01*
X033125Y028589D02*
X028960Y028589D01*
X028960Y028430D02*
X033125Y028430D01*
X033125Y028272D02*
X028960Y028272D01*
X028960Y028113D02*
X033125Y028113D01*
X033125Y027955D02*
X028960Y027955D01*
X028960Y027796D02*
X033125Y027796D01*
X033125Y027638D02*
X028925Y027638D01*
X028786Y027479D02*
X033125Y027479D01*
X033125Y027321D02*
X028628Y027321D01*
X028469Y027162D02*
X033125Y027162D01*
X033125Y027004D02*
X028311Y027004D01*
X028152Y026845D02*
X033125Y026845D01*
X033125Y026686D02*
X027994Y026686D01*
X027835Y026528D02*
X028984Y026528D01*
X029038Y026582D02*
X028903Y026447D01*
X028830Y026271D01*
X028830Y026195D01*
X029590Y026195D01*
X029590Y026155D01*
X029630Y026155D01*
X029630Y025695D01*
X030005Y025695D01*
X030182Y025768D01*
X030317Y025903D01*
X030390Y026080D01*
X030390Y026155D01*
X029630Y026155D01*
X029630Y026195D01*
X030390Y026195D01*
X030390Y026271D01*
X030317Y026447D01*
X030182Y026582D01*
X030005Y026655D01*
X029630Y026655D01*
X029630Y026196D01*
X029590Y026196D01*
X029590Y026655D01*
X029214Y026655D01*
X029038Y026582D01*
X028871Y026369D02*
X027676Y026369D01*
X027518Y026211D02*
X028830Y026211D01*
X028830Y026155D02*
X028830Y026080D01*
X028903Y025903D01*
X029038Y025768D01*
X029214Y025695D01*
X029590Y025695D01*
X029590Y026155D01*
X028830Y026155D01*
X028841Y026052D02*
X027359Y026052D01*
X027201Y025894D02*
X028913Y025894D01*
X029118Y025735D02*
X027042Y025735D01*
X026884Y025577D02*
X033125Y025577D01*
X033125Y025735D02*
X032662Y025735D01*
X032742Y025768D02*
X032877Y025903D01*
X032950Y026080D01*
X032950Y026155D01*
X032190Y026155D01*
X032190Y025695D01*
X032565Y025695D01*
X032742Y025768D01*
X032867Y025894D02*
X033125Y025894D01*
X033125Y026052D02*
X032938Y026052D01*
X032950Y026195D02*
X032950Y026271D01*
X032877Y026447D01*
X032742Y026582D01*
X032565Y026655D01*
X032190Y026655D01*
X032190Y026196D01*
X032150Y026196D01*
X032150Y026655D01*
X031774Y026655D01*
X031598Y026582D01*
X031463Y026447D01*
X031390Y026271D01*
X031390Y026195D01*
X032150Y026195D01*
X032150Y026155D01*
X032190Y026155D01*
X032190Y026195D01*
X032950Y026195D01*
X032950Y026211D02*
X033125Y026211D01*
X033125Y026369D02*
X032909Y026369D01*
X032796Y026528D02*
X033125Y026528D01*
X032190Y026528D02*
X032150Y026528D01*
X032150Y026369D02*
X032190Y026369D01*
X032190Y026211D02*
X032150Y026211D01*
X032150Y026155D02*
X031390Y026155D01*
X031390Y026080D01*
X031463Y025903D01*
X031598Y025768D01*
X031774Y025695D01*
X032150Y025695D01*
X032150Y026155D01*
X032150Y026052D02*
X032190Y026052D01*
X032190Y025894D02*
X032150Y025894D01*
X032150Y025735D02*
X032190Y025735D01*
X031678Y025735D02*
X030102Y025735D01*
X030307Y025894D02*
X031473Y025894D01*
X031401Y026052D02*
X030378Y026052D01*
X030390Y026211D02*
X031390Y026211D01*
X031431Y026369D02*
X030349Y026369D01*
X030236Y026528D02*
X031544Y026528D01*
X033125Y025418D02*
X026725Y025418D01*
X026567Y025260D02*
X033125Y025260D01*
X033125Y025101D02*
X026408Y025101D01*
X026250Y024942D02*
X033125Y024942D01*
X033125Y024784D02*
X032845Y024784D01*
X032959Y024625D02*
X033125Y024625D01*
X033125Y024467D02*
X033010Y024467D01*
X033010Y024308D02*
X033125Y024308D01*
X033125Y024150D02*
X032953Y024150D01*
X032829Y023991D02*
X033125Y023991D01*
X033125Y023833D02*
X032510Y023833D01*
X032510Y023674D02*
X033125Y023674D01*
X033125Y023516D02*
X032510Y023516D01*
X032510Y023357D02*
X033125Y023357D01*
X033125Y023199D02*
X032510Y023199D01*
X032510Y023040D02*
X033125Y023040D01*
X033125Y022881D02*
X032510Y022881D01*
X032510Y022723D02*
X033125Y022723D01*
X033125Y022564D02*
X032510Y022564D01*
X032510Y022406D02*
X033125Y022406D01*
X033125Y022247D02*
X032510Y022247D01*
X032510Y022089D02*
X033125Y022089D01*
X033125Y021930D02*
X032510Y021930D01*
X032510Y021772D02*
X033125Y021772D01*
X033125Y021613D02*
X032510Y021613D01*
X032707Y021455D02*
X032772Y021455D01*
X032745Y021296D02*
X032735Y021296D01*
X032735Y021137D02*
X032745Y021137D01*
X032735Y020979D02*
X032745Y020979D01*
X032190Y020985D02*
X032180Y020985D01*
X032190Y020985D02*
X032190Y024385D01*
X032170Y024395D01*
X031870Y023833D02*
X026452Y023833D01*
X026534Y023674D02*
X031870Y023674D01*
X031870Y023516D02*
X026534Y023516D01*
X026534Y023357D02*
X031870Y023357D01*
X031870Y023199D02*
X026534Y023199D01*
X026534Y023040D02*
X031870Y023040D01*
X031870Y022881D02*
X026494Y022881D01*
X026369Y022729D02*
X026017Y022729D01*
X026017Y022312D01*
X025862Y022312D01*
X025862Y022729D01*
X025511Y022729D01*
X025406Y022624D01*
X025406Y022312D01*
X025862Y022312D01*
X025862Y022157D01*
X025406Y022157D01*
X025406Y021845D01*
X025511Y021739D01*
X025862Y021739D01*
X025862Y022156D01*
X026017Y022156D01*
X026017Y021739D01*
X026369Y021739D01*
X026474Y021845D01*
X026474Y022157D01*
X026018Y022157D01*
X026018Y022312D01*
X026474Y022312D01*
X026474Y022624D01*
X026369Y022729D01*
X026375Y022723D02*
X031870Y022723D01*
X031870Y022564D02*
X026474Y022564D01*
X026474Y022406D02*
X031870Y022406D01*
X031870Y022247D02*
X026018Y022247D01*
X025862Y022247D02*
X024554Y022247D01*
X024396Y022089D02*
X025406Y022089D01*
X025406Y021930D02*
X024237Y021930D01*
X024079Y021772D02*
X025479Y021772D01*
X025862Y021772D02*
X026017Y021772D01*
X026017Y021930D02*
X025862Y021930D01*
X025862Y022089D02*
X026017Y022089D01*
X026017Y022406D02*
X025862Y022406D01*
X025862Y022564D02*
X026017Y022564D01*
X026017Y022723D02*
X025862Y022723D01*
X025505Y022723D02*
X025030Y022723D01*
X025189Y022881D02*
X025386Y022881D01*
X025406Y022564D02*
X024871Y022564D01*
X024713Y022406D02*
X025406Y022406D01*
X026474Y022089D02*
X028108Y022089D01*
X027949Y021930D02*
X026474Y021930D01*
X026401Y021772D02*
X027870Y021772D01*
X027870Y021613D02*
X023920Y021613D01*
X023762Y021455D02*
X027870Y021455D01*
X027994Y021296D02*
X023603Y021296D01*
X023445Y021137D02*
X028152Y021137D01*
X027998Y020979D02*
X023424Y020979D01*
X023373Y020820D02*
X027870Y020820D01*
X027870Y020662D02*
X023251Y020662D01*
X022838Y020503D02*
X025406Y020503D01*
X025406Y020526D02*
X025406Y020214D01*
X025862Y020214D01*
X025862Y020059D01*
X025406Y020059D01*
X025406Y019747D01*
X025511Y019642D01*
X025862Y019642D01*
X025862Y020059D01*
X026017Y020059D01*
X026017Y019642D01*
X026369Y019642D01*
X026474Y019747D01*
X026474Y020059D01*
X026018Y020059D01*
X026018Y020214D01*
X026474Y020214D01*
X026474Y020526D01*
X026369Y020631D01*
X026017Y020631D01*
X026017Y020214D01*
X025862Y020214D01*
X025862Y020631D01*
X025511Y020631D01*
X025406Y020526D01*
X025406Y020345D02*
X022679Y020345D01*
X022520Y020186D02*
X024138Y020186D01*
X024398Y020186D02*
X025862Y020186D01*
X026018Y020186D02*
X027638Y020186D01*
X027480Y020028D02*
X026474Y020028D01*
X026474Y019869D02*
X027321Y019869D01*
X027163Y019711D02*
X026438Y019711D01*
X026431Y019552D02*
X027004Y019552D01*
X026846Y019393D02*
X026534Y019393D01*
X026534Y019235D02*
X026687Y019235D01*
X025940Y019035D02*
X025940Y019034D01*
X025940Y019035D02*
X024990Y019035D01*
X024340Y019685D01*
X024268Y019699D01*
X022554Y017985D01*
X017815Y017985D01*
X017365Y018235D02*
X017640Y018510D01*
X020392Y018510D01*
X022924Y021042D01*
X022940Y021085D01*
X025190Y023335D01*
X025940Y023335D01*
X025940Y023337D01*
X025346Y023674D02*
X023931Y023674D01*
X023773Y023516D02*
X024918Y023516D01*
X024759Y023357D02*
X023614Y023357D01*
X023456Y023199D02*
X024601Y023199D01*
X024442Y023040D02*
X023297Y023040D01*
X023139Y022881D02*
X024283Y022881D01*
X024125Y022723D02*
X022980Y022723D01*
X022821Y022564D02*
X023966Y022564D01*
X023808Y022406D02*
X022663Y022406D01*
X022504Y022247D02*
X023649Y022247D01*
X023491Y022089D02*
X022346Y022089D01*
X022187Y021930D02*
X023332Y021930D01*
X023174Y021772D02*
X022029Y021772D01*
X021870Y021613D02*
X023015Y021613D01*
X022629Y021455D02*
X021712Y021455D01*
X021475Y021670D02*
X025990Y026185D01*
X028140Y028335D01*
X028140Y030885D01*
X028640Y031385D01*
X028640Y031685D01*
X028984Y032077D02*
X029296Y032077D01*
X029147Y031443D02*
X029133Y031443D01*
X028974Y031284D02*
X029306Y031284D01*
X029430Y031126D02*
X028935Y031126D01*
X029093Y030967D02*
X029271Y030967D01*
X029180Y030809D02*
X029160Y030809D01*
X029160Y030650D02*
X029180Y030650D01*
X029183Y030491D02*
X029160Y030491D01*
X029023Y030333D02*
X029342Y030333D01*
X028640Y030685D02*
X028640Y027785D01*
X025040Y024185D01*
X025436Y023991D02*
X028950Y023991D01*
X029004Y023938D02*
X029202Y023855D01*
X030017Y023855D01*
X030216Y023938D01*
X030368Y024089D01*
X030450Y024288D01*
X030450Y024503D01*
X030368Y024701D01*
X030216Y024853D01*
X030017Y024935D01*
X029202Y024935D01*
X029004Y024853D01*
X028852Y024701D01*
X028770Y024503D01*
X028770Y024288D01*
X028852Y024089D01*
X029004Y023938D01*
X028827Y024150D02*
X025480Y024150D01*
X025615Y024308D02*
X028770Y024308D01*
X028770Y024467D02*
X025774Y024467D01*
X025932Y024625D02*
X028821Y024625D01*
X028935Y024784D02*
X026091Y024784D01*
X025427Y023833D02*
X025309Y023833D01*
X024770Y023833D02*
X024090Y023833D01*
X024248Y023991D02*
X024644Y023991D01*
X024600Y024150D02*
X024407Y024150D01*
X024565Y024308D02*
X024615Y024308D01*
X024990Y026185D02*
X021420Y022615D01*
X018998Y022615D01*
X018988Y022310D02*
X018998Y022300D01*
X018988Y022310D02*
X016765Y022310D01*
X016715Y022010D01*
X016715Y019702D01*
X017030Y019702D02*
X017030Y019325D01*
X016615Y018910D01*
X016615Y018485D01*
X016640Y018460D01*
X016715Y018460D01*
X016940Y018235D01*
X017365Y018235D01*
X017115Y018735D02*
X017345Y018965D01*
X017345Y019702D01*
X017340Y019635D01*
X017340Y019685D02*
X017345Y019702D01*
X017660Y019702D02*
X017660Y019040D01*
X017915Y018785D01*
X018715Y018785D01*
X018915Y018985D01*
X019590Y018985D01*
X019615Y018960D01*
X019615Y018935D01*
X019740Y019310D02*
X020090Y019310D01*
X020365Y019035D01*
X020935Y018601D02*
X022717Y018601D01*
X022876Y018759D02*
X021094Y018759D01*
X021252Y018918D02*
X023034Y018918D01*
X023193Y019076D02*
X021411Y019076D01*
X021569Y019235D02*
X023351Y019235D01*
X023510Y019393D02*
X021728Y019393D01*
X021886Y019552D02*
X023668Y019552D01*
X023768Y019711D02*
X022045Y019711D01*
X022203Y019869D02*
X023797Y019869D01*
X023889Y020028D02*
X022362Y020028D01*
X021774Y020345D02*
X021156Y020345D01*
X021178Y020503D02*
X021932Y020503D01*
X022091Y020662D02*
X021411Y020662D01*
X021521Y020820D02*
X022250Y020820D01*
X022408Y020979D02*
X021553Y020979D01*
X021526Y021137D02*
X022424Y021137D01*
X022488Y021296D02*
X021424Y021296D01*
X021475Y021670D02*
X018998Y021670D01*
X018998Y021355D02*
X020745Y021355D01*
X021115Y020985D01*
X020740Y020485D02*
X020190Y020485D01*
X019940Y020735D01*
X019040Y020735D01*
X018998Y020726D01*
X019040Y021035D02*
X018998Y021040D01*
X019040Y021035D02*
X020190Y021035D01*
X019890Y020385D02*
X020315Y019960D01*
X019965Y019560D02*
X019823Y019702D01*
X018290Y019702D01*
X017975Y019702D02*
X017975Y019170D01*
X017965Y019160D01*
X018540Y019160D01*
X018715Y019335D01*
X019715Y019335D01*
X019740Y019310D01*
X019965Y019560D02*
X020765Y019560D01*
X021076Y019869D02*
X021298Y019869D01*
X021457Y020028D02*
X020753Y020028D01*
X021060Y020186D02*
X021615Y020186D01*
X019890Y020385D02*
X019040Y020385D01*
X018998Y020411D01*
X018463Y020345D02*
X017592Y020345D01*
X017638Y020364D02*
X017761Y020487D01*
X017763Y020492D01*
X017767Y020489D01*
X017928Y020422D01*
X018102Y020422D01*
X018263Y020489D01*
X018386Y020612D01*
X018453Y020773D01*
X018453Y020947D01*
X018386Y021109D01*
X018335Y021160D01*
X018335Y021665D01*
X018463Y021665D01*
X018463Y021524D01*
X018468Y021513D01*
X018463Y021502D01*
X018463Y021209D01*
X018468Y021198D01*
X018463Y021187D01*
X018463Y020894D01*
X018468Y020883D01*
X018463Y020872D01*
X018463Y020579D01*
X018468Y020568D01*
X018463Y020557D01*
X018463Y020264D01*
X018482Y020218D01*
X018436Y020237D01*
X018144Y020237D01*
X018132Y020232D01*
X018121Y020237D01*
X017829Y020237D01*
X017817Y020232D01*
X017806Y020237D01*
X017514Y020237D01*
X017502Y020232D01*
X017491Y020237D01*
X017199Y020237D01*
X017187Y020232D01*
X017176Y020237D01*
X016884Y020237D01*
X016795Y020201D01*
X016772Y020177D01*
X016720Y020177D01*
X016720Y020587D01*
X016720Y020714D01*
X016671Y020832D01*
X016453Y021050D01*
X016453Y021122D01*
X016386Y021284D01*
X016263Y021407D01*
X016102Y021473D01*
X015928Y021473D01*
X015767Y021407D01*
X015644Y021284D01*
X015577Y021122D01*
X015577Y020948D01*
X015644Y020787D01*
X015767Y020664D01*
X015928Y020597D01*
X016000Y020597D01*
X016080Y020518D01*
X016080Y020237D01*
X015939Y020237D01*
X015927Y020232D01*
X015916Y020237D01*
X015624Y020237D01*
X015613Y020232D01*
X015601Y020237D01*
X015309Y020237D01*
X015298Y020232D01*
X015286Y020237D01*
X014994Y020237D01*
X014947Y020218D01*
X014967Y020264D01*
X014967Y020310D01*
X015002Y020295D01*
X015177Y020295D01*
X015339Y020362D01*
X015463Y020486D01*
X015530Y020648D01*
X015530Y020823D01*
X015463Y020985D01*
X015339Y021108D01*
X015177Y021175D01*
X015002Y021175D01*
X014967Y021161D01*
X014967Y021187D01*
X014962Y021198D01*
X014967Y021209D01*
X014967Y021502D01*
X014962Y021513D01*
X014967Y021524D01*
X014967Y021817D01*
X014930Y021905D01*
X014907Y021928D01*
X014907Y021985D01*
X014832Y021985D01*
X014831Y021985D01*
X014831Y021986D01*
X014907Y021986D01*
X014907Y022042D01*
X014930Y022066D01*
X014967Y022154D01*
X014967Y022446D01*
X014962Y022458D01*
X014967Y022469D01*
X014967Y022761D01*
X014962Y022773D01*
X014967Y022784D01*
X014967Y023076D01*
X014962Y023088D01*
X014967Y023099D01*
X014967Y023391D01*
X014962Y023403D01*
X014967Y023414D01*
X014967Y023706D01*
X014947Y023753D01*
X014994Y023734D01*
X015286Y023734D01*
X015298Y023738D01*
X015309Y023734D01*
X015450Y023734D01*
X015450Y023440D01*
X015369Y023359D01*
X015302Y023197D01*
X015302Y023023D01*
X015369Y022862D01*
X015492Y022739D01*
X015653Y022672D01*
X015827Y022672D01*
X015988Y022739D01*
X016111Y022862D01*
X016178Y023023D01*
X016178Y023197D01*
X016111Y023359D01*
X016090Y023380D01*
X016090Y023734D01*
X016231Y023734D01*
X016242Y023738D01*
X016254Y023734D01*
X016546Y023734D01*
X016634Y023770D01*
X016658Y023794D01*
X016710Y023794D01*
X016710Y023259D01*
X016710Y023132D01*
X016759Y023014D01*
X016927Y022846D01*
X016927Y022773D01*
X016994Y022612D01*
X017117Y022489D01*
X017278Y022422D01*
X017452Y022422D01*
X017613Y022489D01*
X017736Y022612D01*
X017803Y022773D01*
X017803Y022947D01*
X017736Y023109D01*
X017613Y023232D01*
X017452Y023298D01*
X017379Y023298D01*
X017350Y023328D01*
X017350Y023734D01*
X017491Y023734D01*
X017502Y023738D01*
X017514Y023734D01*
X017806Y023734D01*
X017817Y023738D01*
X017829Y023734D01*
X018121Y023734D01*
X018132Y023738D01*
X018144Y023734D01*
X018436Y023734D01*
X018482Y023753D01*
X018463Y023706D01*
X018463Y023414D01*
X018468Y023403D01*
X018463Y023391D01*
X018463Y023099D01*
X018468Y023088D01*
X018463Y023076D01*
X018463Y022784D01*
X018468Y022773D01*
X018463Y022761D01*
X018463Y022469D01*
X018500Y022381D01*
X018523Y022357D01*
X018523Y022305D01*
X018026Y022305D01*
X017909Y022257D01*
X017819Y022167D01*
X017786Y022134D01*
X017663Y022257D01*
X017502Y022323D01*
X017328Y022323D01*
X017167Y022257D01*
X017044Y022134D01*
X016977Y021972D01*
X016977Y021798D01*
X017044Y021637D01*
X017095Y021586D01*
X017095Y021060D01*
X017019Y020984D01*
X016952Y020822D01*
X016952Y020648D01*
X017019Y020487D01*
X017142Y020364D01*
X017303Y020297D01*
X017477Y020297D01*
X017638Y020364D01*
X017390Y020735D02*
X017415Y020760D01*
X017415Y021885D01*
X017025Y022089D02*
X014940Y022089D01*
X014967Y022247D02*
X017157Y022247D01*
X017041Y022564D02*
X014967Y022564D01*
X014967Y022406D02*
X018489Y022406D01*
X018463Y022564D02*
X017688Y022564D01*
X017782Y022723D02*
X018463Y022723D01*
X018463Y022881D02*
X017803Y022881D01*
X017765Y023040D02*
X018463Y023040D01*
X018463Y023199D02*
X017646Y023199D01*
X017350Y023357D02*
X018463Y023357D01*
X018463Y023516D02*
X017350Y023516D01*
X017350Y023674D02*
X018463Y023674D01*
X018998Y023560D02*
X019040Y023585D01*
X019440Y023585D01*
X021990Y026135D01*
X021990Y026185D01*
X021740Y026985D02*
X020990Y026235D01*
X020990Y026185D01*
X020990Y026135D01*
X019140Y024285D01*
X018290Y024285D01*
X018290Y024269D01*
X017990Y024285D02*
X017990Y024685D01*
X018690Y025385D01*
X019240Y025385D01*
X019990Y026135D01*
X019990Y026185D01*
X020394Y026845D02*
X020586Y026845D01*
X020830Y027004D02*
X020150Y027004D01*
X019830Y027004D02*
X019210Y027004D01*
X019210Y027162D02*
X021464Y027162D01*
X021306Y027004D02*
X021150Y027004D01*
X021740Y026985D02*
X023690Y026985D01*
X027390Y030685D01*
X027640Y030685D01*
X027186Y030967D02*
X027009Y030967D01*
X027047Y031126D02*
X026850Y031126D01*
X026650Y031126D02*
X026630Y031126D01*
X026630Y030967D02*
X026650Y030967D01*
X026650Y030809D02*
X026630Y030809D01*
X026430Y031126D02*
X025850Y031126D01*
X025830Y031145D02*
X025650Y031145D01*
X025650Y030696D01*
X025630Y030696D01*
X025630Y031145D01*
X025449Y031145D01*
X025180Y030876D01*
X025180Y030695D01*
X025630Y030695D01*
X025630Y030675D01*
X025650Y030675D01*
X025650Y030225D01*
X025830Y030225D01*
X026100Y030495D01*
X026100Y030675D01*
X025650Y030675D01*
X025650Y030695D01*
X026100Y030695D01*
X026100Y030876D01*
X025830Y031145D01*
X025889Y031284D02*
X026306Y031284D01*
X026147Y031443D02*
X026048Y031443D01*
X026100Y031601D02*
X026120Y031601D01*
X026120Y031760D02*
X026100Y031760D01*
X025650Y031601D02*
X025630Y031601D01*
X025630Y031443D02*
X025650Y031443D01*
X025650Y031284D02*
X025630Y031284D01*
X025630Y031126D02*
X025650Y031126D01*
X025650Y030967D02*
X025630Y030967D01*
X025630Y030809D02*
X025650Y030809D01*
X025630Y030675D02*
X025180Y030675D01*
X025180Y030495D01*
X025449Y030225D01*
X025630Y030225D01*
X025630Y030675D01*
X025630Y030650D02*
X025650Y030650D01*
X025650Y030491D02*
X025630Y030491D01*
X025630Y030333D02*
X025650Y030333D01*
X025938Y030333D02*
X026342Y030333D01*
X026426Y030174D02*
X019210Y030174D01*
X019210Y030016D02*
X026268Y030016D01*
X026109Y029857D02*
X019210Y029857D01*
X019210Y029699D02*
X025951Y029699D01*
X025792Y029540D02*
X019210Y029540D01*
X019210Y029382D02*
X025634Y029382D01*
X025475Y029223D02*
X019210Y029223D01*
X019210Y029065D02*
X025317Y029065D01*
X025158Y028906D02*
X019210Y028906D01*
X019210Y028748D02*
X025000Y028748D01*
X024841Y028589D02*
X019210Y028589D01*
X019210Y028430D02*
X024682Y028430D01*
X024524Y028272D02*
X019210Y028272D01*
X019210Y028113D02*
X024365Y028113D01*
X024207Y027955D02*
X019210Y027955D01*
X019210Y027796D02*
X024048Y027796D01*
X023890Y027638D02*
X019210Y027638D01*
X019210Y027479D02*
X023731Y027479D01*
X023573Y027321D02*
X019210Y027321D01*
X019394Y026845D02*
X019586Y026845D01*
X018990Y026185D02*
X017790Y024985D01*
X017715Y024985D01*
X017660Y024930D01*
X017660Y024269D01*
X017975Y024269D02*
X017990Y024285D01*
X017345Y024269D02*
X017340Y024285D01*
X017340Y025535D01*
X017990Y026185D01*
X018390Y026585D01*
X018390Y030885D01*
X018890Y031385D01*
X018890Y031685D01*
X019234Y032077D02*
X019546Y032077D01*
X020234Y032077D02*
X024829Y032077D01*
X024818Y032235D02*
X003852Y032235D01*
X003876Y032394D02*
X024722Y032394D01*
X024700Y032553D02*
X003900Y032553D01*
X003916Y032711D02*
X024736Y032711D01*
X024852Y032870D02*
X003892Y032870D01*
X003868Y033028D02*
X037357Y033028D01*
X037329Y032870D02*
X025428Y032870D01*
X025140Y032535D02*
X027490Y032535D01*
X028140Y031885D01*
X028140Y031485D01*
X027840Y031185D01*
X027440Y031185D01*
X026940Y031685D01*
X026640Y031685D01*
X026790Y032235D02*
X025440Y032235D01*
X024390Y031185D01*
X024776Y030967D02*
X025271Y030967D01*
X025180Y030809D02*
X024630Y030809D01*
X024830Y031126D02*
X025430Y031126D01*
X025391Y031284D02*
X024941Y031284D01*
X025100Y031443D02*
X025232Y031443D01*
X024512Y031760D02*
X020410Y031760D01*
X020410Y031601D02*
X024244Y031601D01*
X024025Y031443D02*
X020383Y031443D01*
X020224Y031284D02*
X023955Y031284D01*
X023950Y031126D02*
X020100Y031126D01*
X020080Y031145D02*
X019900Y031145D01*
X019900Y030696D01*
X019880Y030696D01*
X019880Y031145D01*
X019699Y031145D01*
X019430Y030876D01*
X019430Y030695D01*
X019880Y030695D01*
X019880Y030675D01*
X019900Y030675D01*
X019900Y030225D01*
X020080Y030225D01*
X020350Y030495D01*
X020350Y030675D01*
X019900Y030675D01*
X019900Y030695D01*
X020350Y030695D01*
X020350Y030876D01*
X020080Y031145D01*
X019900Y031126D02*
X019880Y031126D01*
X019880Y030967D02*
X019900Y030967D01*
X019900Y030809D02*
X019880Y030809D01*
X019880Y030675D02*
X019430Y030675D01*
X019430Y030495D01*
X019699Y030225D01*
X019880Y030225D01*
X019880Y030675D01*
X019880Y030650D02*
X019900Y030650D01*
X019900Y030491D02*
X019880Y030491D01*
X019880Y030333D02*
X019900Y030333D01*
X020188Y030333D02*
X025342Y030333D01*
X025183Y030491D02*
X020347Y030491D01*
X020350Y030650D02*
X025180Y030650D01*
X026009Y030967D02*
X026271Y030967D01*
X026180Y030809D02*
X026100Y030809D01*
X026100Y030650D02*
X026180Y030650D01*
X026183Y030491D02*
X026097Y030491D01*
X027340Y031685D02*
X026790Y032235D01*
X027340Y031685D02*
X027640Y031685D01*
X028242Y032235D02*
X037390Y032235D01*
X037439Y032077D02*
X029984Y032077D01*
X030160Y031601D02*
X030844Y031601D01*
X030625Y031443D02*
X030133Y031443D01*
X029974Y031284D02*
X030555Y031284D01*
X031135Y031601D02*
X032237Y031601D01*
X032195Y030809D02*
X031230Y030809D01*
X032276Y030650D02*
X030100Y030650D01*
X030097Y030491D02*
X032247Y030491D01*
X033517Y030174D02*
X033845Y030174D01*
X033845Y030016D02*
X033676Y030016D01*
X033654Y030333D02*
X033845Y030333D01*
X033857Y030491D02*
X033812Y030491D01*
X033971Y030650D02*
X034024Y030650D01*
X034490Y030185D02*
X034440Y030101D01*
X034490Y030185D02*
X033990Y029685D01*
X033990Y029185D01*
X037341Y032394D02*
X028084Y032394D01*
X027925Y032553D02*
X037329Y032553D01*
X037329Y032711D02*
X027767Y032711D01*
X024670Y031918D02*
X020392Y031918D01*
X019556Y031284D02*
X019224Y031284D01*
X019185Y031126D02*
X019680Y031126D01*
X019521Y030967D02*
X019343Y030967D01*
X019410Y030809D02*
X019430Y030809D01*
X019430Y030650D02*
X019410Y030650D01*
X019410Y030491D02*
X019433Y030491D01*
X019273Y030333D02*
X019592Y030333D01*
X018890Y030685D02*
X018890Y026285D01*
X018990Y026185D01*
X018070Y027025D02*
X017882Y027025D01*
X017684Y026943D01*
X017532Y026791D01*
X017450Y026593D01*
X017450Y026098D01*
X017069Y025717D01*
X017020Y025599D01*
X017020Y025472D01*
X017020Y024804D01*
X016884Y024804D01*
X016795Y024768D01*
X016772Y024744D01*
X016720Y024744D01*
X016720Y024839D01*
X016671Y024957D01*
X015922Y025705D01*
X015970Y025705D01*
X015970Y026165D01*
X016010Y026165D01*
X016010Y025705D01*
X016189Y025705D01*
X016470Y025987D01*
X016470Y026165D01*
X016010Y026165D01*
X016010Y026205D01*
X016470Y026205D01*
X016470Y026384D01*
X016189Y026665D01*
X016010Y026665D01*
X016010Y026206D01*
X015970Y026206D01*
X015970Y026665D01*
X015791Y026665D01*
X015530Y026404D01*
X015530Y026593D01*
X015448Y026791D01*
X015296Y026943D01*
X015097Y027025D01*
X014882Y027025D01*
X014684Y026943D01*
X014532Y026791D01*
X014490Y026689D01*
X014448Y026791D01*
X014323Y026916D01*
X017624Y030216D01*
X017675Y030165D01*
X018070Y030165D01*
X018070Y027025D01*
X018070Y027162D02*
X014569Y027162D01*
X014411Y027004D02*
X014830Y027004D01*
X014586Y026845D02*
X014394Y026845D01*
X013940Y026985D02*
X013740Y026985D01*
X012990Y026235D01*
X012990Y026185D01*
X012586Y026845D02*
X012394Y026845D01*
X012150Y027004D02*
X012830Y027004D01*
X013150Y027004D02*
X013306Y027004D01*
X013464Y027162D02*
X009516Y027162D01*
X009460Y027321D02*
X013823Y027321D01*
X013981Y027479D02*
X009460Y027479D01*
X009460Y027638D02*
X014140Y027638D01*
X014298Y027796D02*
X009460Y027796D01*
X009460Y027955D02*
X014457Y027955D01*
X014615Y028113D02*
X009460Y028113D01*
X009460Y028272D02*
X014774Y028272D01*
X014932Y028430D02*
X009460Y028430D01*
X009460Y028589D02*
X015091Y028589D01*
X015250Y028748D02*
X009460Y028748D01*
X009460Y028906D02*
X015408Y028906D01*
X015567Y029065D02*
X009460Y029065D01*
X009460Y029223D02*
X015725Y029223D01*
X015884Y029382D02*
X009460Y029382D01*
X009460Y029540D02*
X016042Y029540D01*
X016201Y029699D02*
X009460Y029699D01*
X009460Y029857D02*
X016359Y029857D01*
X016518Y030016D02*
X009460Y030016D01*
X009460Y030174D02*
X016676Y030174D01*
X016592Y030333D02*
X016188Y030333D01*
X016080Y030225D02*
X016350Y030495D01*
X016350Y030675D01*
X015900Y030675D01*
X015900Y030225D01*
X016080Y030225D01*
X015880Y030225D02*
X015880Y030675D01*
X015900Y030675D01*
X015900Y030695D01*
X016350Y030695D01*
X016350Y030876D01*
X016080Y031145D01*
X015900Y031145D01*
X015900Y030696D01*
X015880Y030696D01*
X015880Y031145D01*
X015699Y031145D01*
X015430Y030876D01*
X015430Y030695D01*
X015880Y030695D01*
X015880Y030675D01*
X015430Y030675D01*
X015430Y030495D01*
X015699Y030225D01*
X015880Y030225D01*
X015880Y030333D02*
X015900Y030333D01*
X015900Y030491D02*
X015880Y030491D01*
X015880Y030650D02*
X015900Y030650D01*
X015900Y030809D02*
X015880Y030809D01*
X015880Y030967D02*
X015900Y030967D01*
X015900Y031126D02*
X015880Y031126D01*
X015880Y031225D02*
X015699Y031225D01*
X015430Y031495D01*
X015430Y031675D01*
X015880Y031675D01*
X015900Y031675D01*
X015900Y031225D01*
X016080Y031225D01*
X016350Y031495D01*
X016350Y031675D01*
X015900Y031675D01*
X015900Y031695D01*
X016350Y031695D01*
X016350Y031876D01*
X016080Y032145D01*
X015900Y032145D01*
X015900Y031696D01*
X015880Y031696D01*
X015880Y032145D01*
X015699Y032145D01*
X015430Y031876D01*
X015430Y031695D01*
X015880Y031695D01*
X015880Y031675D01*
X015880Y031225D01*
X015880Y031284D02*
X015900Y031284D01*
X015900Y031443D02*
X015880Y031443D01*
X015880Y031601D02*
X015900Y031601D01*
X015900Y031760D02*
X015880Y031760D01*
X015880Y031918D02*
X015900Y031918D01*
X015900Y032077D02*
X015880Y032077D01*
X015631Y032077D02*
X010484Y032077D01*
X010642Y031918D02*
X015472Y031918D01*
X015430Y031760D02*
X010660Y031760D01*
X010660Y031601D02*
X015430Y031601D01*
X015482Y031443D02*
X010633Y031443D01*
X010474Y031284D02*
X015641Y031284D01*
X015680Y031126D02*
X010350Y031126D01*
X010330Y031145D02*
X010150Y031145D01*
X010150Y030696D01*
X010130Y030696D01*
X010130Y031145D01*
X009949Y031145D01*
X009680Y030876D01*
X009680Y030695D01*
X010130Y030695D01*
X010130Y030675D01*
X010150Y030675D01*
X010150Y030225D01*
X010330Y030225D01*
X010600Y030495D01*
X010600Y030675D01*
X010150Y030675D01*
X010150Y030695D01*
X010600Y030695D01*
X010600Y030876D01*
X010330Y031145D01*
X010150Y031126D02*
X010130Y031126D01*
X010130Y030967D02*
X010150Y030967D01*
X010150Y030809D02*
X010130Y030809D01*
X010130Y030675D02*
X009680Y030675D01*
X009680Y030495D01*
X009949Y030225D01*
X010130Y030225D01*
X010130Y030675D01*
X010130Y030650D02*
X010150Y030650D01*
X010150Y030491D02*
X010130Y030491D01*
X010130Y030333D02*
X010150Y030333D01*
X010438Y030333D02*
X015592Y030333D01*
X015433Y030491D02*
X010597Y030491D01*
X010600Y030650D02*
X015430Y030650D01*
X015430Y030809D02*
X010600Y030809D01*
X010509Y030967D02*
X015521Y030967D01*
X016100Y031126D02*
X016680Y031126D01*
X016880Y031126D02*
X016900Y031126D01*
X016900Y030967D02*
X016880Y030967D01*
X016880Y030809D02*
X016900Y030809D01*
X017100Y031126D02*
X017595Y031126D01*
X017556Y031284D02*
X017224Y031284D01*
X017383Y031443D02*
X017397Y031443D01*
X017436Y030967D02*
X017259Y030967D01*
X017640Y030685D02*
X013940Y026985D01*
X013990Y026185D02*
X013990Y026135D01*
X014740Y025385D01*
X015340Y025385D01*
X016090Y024635D01*
X016090Y024285D01*
X016085Y024269D01*
X015770Y024269D02*
X015770Y023140D01*
X015740Y023110D01*
X015949Y022723D02*
X016948Y022723D01*
X016891Y022881D02*
X016119Y022881D01*
X016178Y023040D02*
X016748Y023040D01*
X016710Y023199D02*
X016178Y023199D01*
X016112Y023357D02*
X016710Y023357D01*
X016710Y023516D02*
X016090Y023516D01*
X016090Y023674D02*
X016710Y023674D01*
X017030Y023195D02*
X017365Y022860D01*
X017030Y023195D02*
X017030Y024269D01*
X016715Y024269D02*
X016715Y022360D01*
X016765Y022310D01*
X016715Y022010D02*
X014431Y021985D01*
X014431Y021670D02*
X012180Y021670D01*
X012166Y021672D01*
X012152Y021676D01*
X012139Y021684D01*
X012129Y021694D01*
X012121Y021707D01*
X012117Y021721D01*
X012115Y021735D01*
X012115Y021010D01*
X011690Y020810D02*
X012240Y020260D01*
X013340Y021360D01*
X014427Y021360D01*
X014431Y021355D01*
X014431Y021040D02*
X014390Y021035D01*
X013790Y021035D01*
X014431Y020726D02*
X014440Y020735D01*
X015090Y020735D01*
X015269Y021137D02*
X015583Y021137D01*
X015577Y020979D02*
X015465Y020979D01*
X015530Y020820D02*
X015630Y020820D01*
X015530Y020662D02*
X015772Y020662D01*
X015470Y020503D02*
X016080Y020503D01*
X016080Y020345D02*
X015297Y020345D01*
X015140Y019702D02*
X015140Y019086D01*
X014815Y018760D01*
X015440Y018685D02*
X015440Y019685D01*
X015455Y019702D01*
X015770Y019702D02*
X015770Y018040D01*
X015765Y018035D01*
X016400Y018050D02*
X016465Y017985D01*
X016400Y018050D02*
X016400Y019702D01*
X016400Y020650D01*
X016015Y021035D01*
X016148Y021455D02*
X017095Y021455D01*
X017095Y021296D02*
X016374Y021296D01*
X016447Y021137D02*
X017095Y021137D01*
X017017Y020979D02*
X016524Y020979D01*
X016676Y020820D02*
X016952Y020820D01*
X016952Y020662D02*
X016720Y020662D01*
X016720Y020503D02*
X017012Y020503D01*
X017188Y020345D02*
X016720Y020345D01*
X016720Y020186D02*
X016781Y020186D01*
X016085Y019702D02*
X016085Y018680D01*
X016065Y018660D01*
X017440Y017585D02*
X014240Y017585D01*
X011990Y019835D01*
X011690Y020810D02*
X011215Y020810D01*
X010690Y021435D02*
X006390Y025735D01*
X003090Y025735D01*
X003090Y025737D01*
X002496Y025735D02*
X001085Y025735D01*
X001085Y025577D02*
X002496Y025577D01*
X002496Y025418D02*
X001085Y025418D01*
X001085Y025260D02*
X002558Y025260D01*
X002548Y025101D02*
X001085Y025101D01*
X001085Y024942D02*
X002496Y024942D01*
X002496Y024784D02*
X001085Y024784D01*
X001085Y024625D02*
X002496Y024625D01*
X002496Y024467D02*
X001085Y024467D01*
X001085Y024308D02*
X002496Y024308D01*
X002566Y024150D02*
X001085Y024150D01*
X001085Y023991D02*
X002770Y023991D01*
X002770Y023833D02*
X001085Y023833D01*
X001085Y023674D02*
X002770Y023674D01*
X002857Y023516D02*
X001085Y023516D01*
X001085Y023357D02*
X003016Y023357D01*
X003174Y023199D02*
X001085Y023199D01*
X001085Y023040D02*
X003333Y023040D01*
X003491Y022881D02*
X001085Y022881D01*
X001085Y022723D02*
X003650Y022723D01*
X003808Y022564D02*
X001085Y022564D01*
X001085Y022406D02*
X003967Y022406D01*
X004116Y022247D02*
X003779Y022247D01*
X003680Y022345D02*
X003950Y022076D01*
X003950Y021895D01*
X003500Y021895D01*
X003500Y021875D01*
X003500Y021425D01*
X003680Y021425D01*
X003950Y021695D01*
X003950Y021875D01*
X003500Y021875D01*
X003480Y021875D01*
X003480Y021425D01*
X003299Y021425D01*
X003030Y021695D01*
X003030Y021875D01*
X003480Y021875D01*
X003480Y021895D01*
X003030Y021895D01*
X003030Y022076D01*
X003299Y022345D01*
X003480Y022345D01*
X003480Y021896D01*
X003500Y021896D01*
X003500Y022345D01*
X003680Y022345D01*
X003500Y022247D02*
X003480Y022247D01*
X003480Y022089D02*
X003500Y022089D01*
X003500Y021930D02*
X003480Y021930D01*
X003480Y021772D02*
X003500Y021772D01*
X003500Y021613D02*
X003480Y021613D01*
X003480Y021455D02*
X003500Y021455D01*
X003710Y021455D02*
X004185Y021455D01*
X004165Y021296D02*
X003815Y021296D01*
X003973Y021137D02*
X004007Y021137D01*
X004490Y020885D02*
X005115Y021510D01*
X005115Y021535D01*
X005165Y021485D01*
X008765Y021485D01*
X009340Y020910D01*
X009340Y020885D01*
X013990Y016235D01*
X013990Y016185D01*
X014240Y016185D01*
X016040Y014385D01*
X016390Y014385D01*
X016390Y014345D01*
X016985Y014320D02*
X021245Y014320D01*
X021245Y014479D02*
X016985Y014479D01*
X016985Y014637D02*
X021245Y014637D01*
X021245Y014796D02*
X016948Y014796D01*
X016985Y014162D02*
X021159Y014162D01*
X021102Y014003D02*
X016985Y014003D01*
X016898Y013844D02*
X021103Y013844D01*
X021170Y013686D02*
X016939Y013686D01*
X016985Y013527D02*
X021380Y013527D01*
X021700Y013527D02*
X023905Y013527D01*
X023905Y013844D02*
X021976Y013844D01*
X021978Y014003D02*
X023905Y014003D01*
X022664Y012960D02*
X022640Y012985D01*
X021890Y012985D01*
X021666Y013369D02*
X016985Y013369D01*
X016985Y013210D02*
X018471Y013210D01*
X018370Y013052D02*
X016985Y013052D01*
X016985Y012893D02*
X018370Y012893D01*
X018370Y012735D02*
X016908Y012735D01*
X016710Y012576D02*
X018370Y012576D01*
X018270Y012418D02*
X016871Y012418D01*
X016984Y012259D02*
X018111Y012259D01*
X017953Y012100D02*
X016985Y012100D01*
X016985Y011942D02*
X017794Y011942D01*
X017684Y011783D02*
X016985Y011783D01*
X016985Y011625D02*
X017670Y011625D01*
X017670Y011466D02*
X016957Y011466D01*
X016925Y011149D02*
X017670Y011149D01*
X017670Y011308D02*
X016180Y011308D01*
X016312Y011149D02*
X016467Y011149D01*
X016467Y010991D02*
X016312Y010991D01*
X016312Y010674D02*
X016467Y010674D01*
X016467Y010515D02*
X016312Y010515D01*
X016312Y010356D02*
X016467Y010356D01*
X015884Y010356D02*
X015595Y010356D01*
X015625Y010515D02*
X015855Y010515D01*
X015855Y010674D02*
X015625Y010674D01*
X015167Y010674D02*
X015012Y010674D01*
X015012Y010832D02*
X013918Y010832D01*
X013290Y011335D02*
X013840Y011885D01*
X013840Y011895D01*
X013790Y011935D01*
X013790Y013226D01*
X013040Y013985D02*
X013040Y012135D01*
X012690Y011785D01*
X012540Y011785D01*
X012536Y011779D01*
X012033Y012100D02*
X011838Y012100D01*
X012117Y011149D02*
X001085Y011149D01*
X001085Y010991D02*
X012061Y010991D01*
X013190Y011335D02*
X013290Y011335D01*
X015090Y011885D02*
X015090Y011895D01*
X015090Y011885D02*
X015640Y011335D01*
X015740Y011335D01*
X015167Y010515D02*
X015012Y010515D01*
X015012Y010356D02*
X015167Y010356D01*
X016925Y010991D02*
X017732Y010991D01*
X017990Y011185D02*
X018990Y010185D01*
X019990Y010685D02*
X020490Y010685D01*
X021990Y009185D01*
X021990Y007185D01*
X022190Y007035D01*
X021990Y006685D01*
X021990Y005685D01*
X022190Y005535D01*
X021990Y005185D01*
X021990Y004185D01*
X022190Y003960D01*
X021990Y003685D01*
X021990Y002685D01*
X022190Y002435D01*
X022730Y002429D02*
X024443Y002429D01*
X024285Y002588D02*
X022730Y002588D01*
X022730Y002746D02*
X024126Y002746D01*
X023968Y002905D02*
X022704Y002905D01*
X022625Y003064D02*
X023809Y003064D01*
X023651Y003222D02*
X022515Y003222D01*
X022659Y003381D02*
X023492Y003381D01*
X023334Y003539D02*
X022724Y003539D01*
X022730Y003698D02*
X023175Y003698D01*
X023016Y003856D02*
X022730Y003856D01*
X022730Y004015D02*
X022945Y004015D01*
X022945Y004173D02*
X022730Y004173D01*
X022730Y004332D02*
X022945Y004332D01*
X022945Y004490D02*
X022679Y004490D01*
X022565Y004649D02*
X022945Y004649D01*
X022945Y004807D02*
X022526Y004807D01*
X022663Y004966D02*
X022945Y004966D01*
X022945Y005125D02*
X022728Y005125D01*
X022730Y005283D02*
X022945Y005283D01*
X022945Y005442D02*
X022730Y005442D01*
X022730Y005600D02*
X022945Y005600D01*
X022945Y005759D02*
X022730Y005759D01*
X022730Y005917D02*
X022945Y005917D01*
X022945Y006076D02*
X022675Y006076D01*
X022555Y006234D02*
X022949Y006234D01*
X023045Y006393D02*
X022611Y006393D01*
X022698Y006551D02*
X023677Y006551D01*
X023677Y006710D02*
X022730Y006710D01*
X022730Y006869D02*
X023677Y006869D01*
X023677Y007027D02*
X022730Y007027D01*
X022730Y007186D02*
X023728Y007186D01*
X023737Y007213D02*
X023755Y007213D01*
X023755Y007213D01*
X023755Y007213D01*
X023737Y007213D01*
X023677Y007344D02*
X022730Y007344D01*
X022705Y007503D02*
X023677Y007503D01*
X024213Y007725D02*
X025475Y007725D01*
X025490Y007710D01*
X025878Y007503D02*
X026532Y007503D01*
X026532Y007661D02*
X025928Y007661D01*
X025919Y007820D02*
X026532Y007820D01*
X026592Y007978D02*
X025841Y007978D01*
X025605Y008137D02*
X026592Y008137D01*
X026592Y007981D02*
X026610Y007981D01*
X026609Y007981D01*
X026592Y007981D01*
X026561Y008295D02*
X024748Y008295D01*
X024748Y008137D02*
X025375Y008137D01*
X024748Y008454D02*
X026149Y008454D01*
X026440Y008785D02*
X024240Y008785D01*
X024213Y008749D01*
X024085Y009067D02*
X023885Y009067D01*
X023885Y009490D01*
X027026Y009490D01*
X027154Y009490D01*
X027271Y009539D01*
X027361Y009629D01*
X027410Y009747D01*
X027410Y011561D01*
X027461Y011612D01*
X027528Y011773D01*
X027528Y011881D01*
X029918Y009491D01*
X032392Y007017D01*
X032229Y007017D01*
X031921Y006708D01*
X031921Y006669D01*
X031182Y005930D01*
X028997Y005930D01*
X028979Y005949D01*
X028960Y005957D01*
X028960Y006629D01*
X029042Y006629D01*
X029130Y006666D01*
X029198Y006733D01*
X029234Y006821D01*
X029234Y007547D01*
X029198Y007635D01*
X029130Y007703D01*
X029042Y007739D01*
X028238Y007739D01*
X028150Y007703D01*
X028082Y007635D01*
X028046Y007547D01*
X028046Y006821D01*
X028082Y006733D01*
X028150Y006666D01*
X028238Y006629D01*
X028320Y006629D01*
X028320Y006254D01*
X027575Y006254D01*
X027602Y006319D01*
X027602Y006572D01*
X027602Y006574D01*
X027602Y006575D01*
X027602Y006828D01*
X027566Y006916D01*
X027542Y006940D01*
X027542Y006957D01*
X027525Y006957D01*
X027525Y006957D01*
X027525Y006958D01*
X027542Y006958D01*
X027542Y006975D01*
X027566Y006999D01*
X027602Y007087D01*
X027602Y007340D01*
X027602Y007341D01*
X027602Y007343D01*
X027602Y007596D01*
X027602Y007597D01*
X027602Y007599D01*
X027602Y007852D01*
X027566Y007940D01*
X027542Y007963D01*
X027542Y007981D01*
X027542Y008084D01*
X027542Y008237D01*
X027542Y008255D01*
X027566Y008278D01*
X027602Y008366D01*
X027602Y008619D01*
X027602Y008621D01*
X027602Y008622D01*
X027602Y008875D01*
X027566Y008963D01*
X027498Y009031D01*
X027410Y009067D01*
X026780Y009067D01*
X026689Y009158D01*
X026527Y009225D01*
X026352Y009225D01*
X026191Y009158D01*
X026138Y009105D01*
X024279Y009105D01*
X024256Y009111D01*
X024216Y009105D01*
X024176Y009105D01*
X024154Y009096D01*
X024130Y009093D01*
X024096Y009072D01*
X024085Y009067D01*
X024123Y009088D02*
X023885Y009088D01*
X023885Y009247D02*
X030162Y009247D01*
X030004Y009405D02*
X023885Y009405D01*
X023565Y009810D02*
X027090Y009810D01*
X027090Y011860D01*
X027467Y011625D02*
X027784Y011625D01*
X027626Y011783D02*
X027528Y011783D01*
X027410Y011466D02*
X027943Y011466D01*
X028101Y011308D02*
X027410Y011308D01*
X027410Y011149D02*
X028260Y011149D01*
X028418Y010991D02*
X027410Y010991D01*
X027410Y010832D02*
X028577Y010832D01*
X028735Y010674D02*
X027410Y010674D01*
X027410Y010515D02*
X028894Y010515D01*
X029053Y010356D02*
X027410Y010356D01*
X027410Y010198D02*
X029211Y010198D01*
X029370Y010039D02*
X027410Y010039D01*
X027410Y009881D02*
X029528Y009881D01*
X029687Y009722D02*
X027400Y009722D01*
X027296Y009564D02*
X029845Y009564D01*
X030227Y009685D02*
X030227Y009698D01*
X030227Y009685D02*
X031990Y009685D01*
X031700Y010039D02*
X030402Y010039D01*
X030243Y010198D02*
X031733Y010198D01*
X031822Y010356D02*
X030085Y010356D01*
X029926Y010515D02*
X032047Y010515D01*
X031749Y010674D02*
X029768Y010674D01*
X029609Y010832D02*
X030379Y010832D01*
X030601Y010832D02*
X031591Y010832D01*
X031432Y010991D02*
X030840Y010991D01*
X030918Y011149D02*
X031273Y011149D01*
X031115Y011308D02*
X030928Y011308D01*
X030956Y011466D02*
X030879Y011466D01*
X030798Y011625D02*
X030745Y011625D01*
X030639Y011783D02*
X030419Y011783D01*
X030481Y011942D02*
X030261Y011942D01*
X030322Y012100D02*
X030103Y012100D01*
X030057Y012259D02*
X030164Y012259D01*
X030005Y012418D02*
X029927Y012418D01*
X029690Y012060D02*
X030490Y011260D01*
X030140Y010991D02*
X029451Y010991D01*
X029292Y011149D02*
X030062Y011149D01*
X029990Y011308D02*
X029134Y011308D01*
X028975Y011466D02*
X029831Y011466D01*
X029571Y011625D02*
X028817Y011625D01*
X028658Y011783D02*
X029322Y011783D01*
X029240Y011942D02*
X028499Y011942D01*
X028341Y012100D02*
X029227Y012100D01*
X029273Y012259D02*
X028182Y012259D01*
X028024Y012418D02*
X028519Y012418D01*
X028310Y012576D02*
X027865Y012576D01*
X027707Y012735D02*
X028228Y012735D01*
X028200Y012893D02*
X027548Y012893D01*
X027522Y013052D02*
X028214Y013052D01*
X028280Y013210D02*
X027681Y013210D01*
X027840Y013369D02*
X028436Y013369D01*
X028359Y013527D02*
X027998Y013527D01*
X028157Y013686D02*
X028248Y013686D01*
X029266Y014796D02*
X040095Y014796D01*
X040095Y014954D02*
X029425Y014954D01*
X029800Y013210D02*
X030255Y013210D01*
X029690Y012060D02*
X029665Y012060D01*
X032433Y010515D02*
X033047Y010515D01*
X032822Y010356D02*
X032657Y010356D01*
X033433Y010515D02*
X034047Y010515D01*
X033822Y010356D02*
X033657Y010356D01*
X033681Y009088D02*
X033798Y009088D01*
X033989Y008930D02*
X033490Y008930D01*
X032989Y008930D02*
X032490Y008930D01*
X032681Y009088D02*
X032798Y009088D01*
X031989Y008930D02*
X031512Y008930D01*
X031353Y009088D02*
X031798Y009088D01*
X031723Y009247D02*
X031195Y009247D01*
X031670Y008771D02*
X036953Y008771D01*
X036950Y008930D02*
X034490Y008930D01*
X034681Y009088D02*
X034883Y009088D01*
X034788Y009247D02*
X034757Y009247D01*
X035220Y009247D02*
X035260Y009247D01*
X035260Y009405D02*
X035220Y009405D01*
X035220Y009564D02*
X035260Y009564D01*
X035720Y009564D02*
X037048Y009564D01*
X037238Y009405D02*
X035720Y009405D01*
X035692Y009247D02*
X037088Y009247D01*
X036989Y009088D02*
X035597Y009088D01*
X035260Y009088D02*
X035220Y009088D01*
X036900Y007661D02*
X032780Y007661D01*
X032939Y007503D02*
X036741Y007503D01*
X036583Y007344D02*
X033097Y007344D01*
X033256Y007186D02*
X036424Y007186D01*
X036265Y007027D02*
X033414Y007027D01*
X032382Y007027D02*
X029234Y007027D01*
X029234Y006869D02*
X032081Y006869D01*
X031923Y006710D02*
X029174Y006710D01*
X028960Y006551D02*
X031803Y006551D01*
X031645Y006393D02*
X028960Y006393D01*
X028960Y006234D02*
X031486Y006234D01*
X031328Y006076D02*
X028960Y006076D01*
X028640Y005934D02*
X028640Y007184D01*
X029234Y007186D02*
X032223Y007186D01*
X032065Y007344D02*
X029234Y007344D01*
X029234Y007503D02*
X031906Y007503D01*
X031748Y007661D02*
X029171Y007661D01*
X029069Y007792D02*
X029174Y007897D01*
X029174Y008209D01*
X028718Y008209D01*
X028718Y008364D01*
X029174Y008364D01*
X029174Y008676D01*
X029069Y008781D01*
X028717Y008781D01*
X028717Y008364D01*
X028562Y008364D01*
X028562Y008209D01*
X028106Y008209D01*
X028106Y007897D01*
X028211Y007792D01*
X028562Y007792D01*
X028562Y008209D01*
X028717Y008209D01*
X028717Y007792D01*
X029069Y007792D01*
X029097Y007820D02*
X031589Y007820D01*
X031431Y007978D02*
X029174Y007978D01*
X029174Y008137D02*
X031272Y008137D01*
X031114Y008295D02*
X028718Y008295D01*
X028640Y008287D02*
X028640Y008237D01*
X027067Y008237D01*
X027067Y007981D01*
X027865Y007981D01*
X027865Y006960D01*
X027865Y006190D01*
X027067Y006190D01*
X027067Y005934D02*
X028640Y005934D01*
X028797Y005678D02*
X027067Y005678D01*
X027067Y005422D02*
X027303Y005422D01*
X029465Y003260D01*
X031540Y003260D01*
X032440Y004160D01*
X032440Y005694D01*
X032448Y005702D01*
X032774Y005283D02*
X033191Y005283D01*
X033032Y005442D02*
X032932Y005442D01*
X032760Y005125D02*
X034503Y005125D01*
X034437Y004966D02*
X032760Y004966D01*
X032760Y004807D02*
X034377Y004807D01*
X034377Y004649D02*
X032760Y004649D01*
X032760Y004490D02*
X034377Y004490D01*
X034426Y004332D02*
X032760Y004332D01*
X032760Y004173D02*
X034492Y004173D01*
X034611Y004015D02*
X032726Y004015D01*
X032588Y003856D02*
X034770Y003856D01*
X035850Y003856D02*
X036320Y003856D01*
X036320Y003698D02*
X032430Y003698D01*
X032271Y003539D02*
X036320Y003539D01*
X036320Y003381D02*
X032113Y003381D01*
X031954Y003222D02*
X036320Y003222D01*
X036320Y003064D02*
X031796Y003064D01*
X029209Y003064D02*
X024714Y003064D01*
X024556Y003222D02*
X029051Y003222D01*
X028892Y003381D02*
X024397Y003381D01*
X024239Y003539D02*
X028734Y003539D01*
X028575Y003698D02*
X024080Y003698D01*
X023922Y003856D02*
X028416Y003856D01*
X028258Y004015D02*
X023763Y004015D01*
X023604Y004173D02*
X025507Y004173D01*
X025375Y004332D02*
X023585Y004332D01*
X023585Y004490D02*
X025327Y004490D01*
X025338Y004649D02*
X023585Y004649D01*
X023585Y004807D02*
X025418Y004807D01*
X025445Y004966D02*
X023585Y004966D01*
X023585Y005125D02*
X023818Y005125D01*
X023683Y005283D02*
X023585Y005283D01*
X023585Y005442D02*
X023677Y005442D01*
X023677Y005600D02*
X023585Y005600D01*
X023585Y005759D02*
X023677Y005759D01*
X023265Y006160D02*
X023265Y004060D01*
X025790Y001535D01*
X036540Y001535D01*
X036540Y001460D01*
X036753Y001161D02*
X037678Y001161D01*
X037570Y001320D02*
X036928Y001320D01*
X036960Y001478D02*
X037470Y001478D01*
X037421Y001637D02*
X036960Y001637D01*
X036960Y001795D02*
X037372Y001795D01*
X037329Y001954D02*
X036960Y001954D01*
X036960Y002112D02*
X037329Y002112D01*
X037329Y002271D02*
X036960Y002271D01*
X036960Y002429D02*
X037329Y002429D01*
X037376Y002588D02*
X036960Y002588D01*
X036960Y002746D02*
X037425Y002746D01*
X037473Y002905D02*
X036960Y002905D01*
X036960Y003064D02*
X037578Y003064D01*
X037686Y003222D02*
X036960Y003222D01*
X036960Y003381D02*
X037824Y003381D01*
X038023Y003539D02*
X036960Y003539D01*
X036960Y003698D02*
X038296Y003698D01*
X039057Y003856D02*
X036960Y003856D01*
X036960Y004015D02*
X040095Y004015D01*
X040095Y004173D02*
X036960Y004173D01*
X036960Y004332D02*
X040095Y004332D01*
X040095Y004490D02*
X036960Y004490D01*
X036320Y004490D02*
X036243Y004490D01*
X036194Y004332D02*
X036320Y004332D01*
X036320Y004173D02*
X036128Y004173D01*
X036009Y004015D02*
X036320Y004015D01*
X036220Y004966D02*
X036183Y004966D01*
X036117Y005125D02*
X036310Y005125D01*
X037096Y005600D02*
X033899Y005600D01*
X033899Y005689D02*
X033446Y005689D01*
X033446Y005235D01*
X033625Y005235D01*
X033899Y005509D01*
X033899Y005689D01*
X033899Y005759D02*
X037023Y005759D01*
X037010Y005917D02*
X033877Y005917D01*
X033763Y006076D02*
X037049Y006076D01*
X037160Y006234D02*
X036505Y006234D01*
X036664Y006393D02*
X037268Y006393D01*
X037060Y006551D02*
X036822Y006551D01*
X037770Y005759D02*
X037810Y005759D01*
X037810Y005600D02*
X037770Y005600D01*
X037770Y005442D02*
X037810Y005442D01*
X039135Y003856D02*
X040095Y003856D01*
X040095Y003698D02*
X039693Y003698D01*
X039967Y003539D02*
X040095Y003539D01*
X036320Y002905D02*
X024873Y002905D01*
X025031Y002746D02*
X036320Y002746D01*
X036320Y002588D02*
X025190Y002588D01*
X025348Y002429D02*
X036320Y002429D01*
X036320Y002271D02*
X025507Y002271D01*
X025666Y002112D02*
X036320Y002112D01*
X036320Y001954D02*
X025824Y001954D01*
X025236Y001637D02*
X022397Y001637D01*
X022613Y001795D02*
X025078Y001795D01*
X024919Y001954D02*
X022699Y001954D01*
X022730Y002112D02*
X024760Y002112D01*
X024602Y002271D02*
X022730Y002271D01*
X024607Y005125D02*
X025445Y005125D01*
X025445Y005283D02*
X024743Y005283D01*
X024748Y005442D02*
X025445Y005442D01*
X025445Y005600D02*
X024748Y005600D01*
X024748Y005759D02*
X025445Y005759D01*
X025445Y005917D02*
X024748Y005917D01*
X024748Y006076D02*
X025445Y006076D01*
X025445Y006234D02*
X024748Y006234D01*
X024748Y006393D02*
X025445Y006393D01*
X025445Y006551D02*
X024748Y006551D01*
X024748Y006710D02*
X025445Y006710D01*
X025513Y006869D02*
X024748Y006869D01*
X024748Y007027D02*
X026557Y007027D01*
X026532Y007186D02*
X024698Y007186D01*
X024748Y007344D02*
X025236Y007344D01*
X025540Y007235D02*
X024213Y007235D01*
X024213Y007213D01*
X024213Y007960D02*
X023165Y007960D01*
X023165Y010935D01*
X024640Y010935D01*
X023871Y012100D02*
X023727Y012100D01*
X022690Y012435D02*
X022664Y012460D01*
X022664Y011460D02*
X022564Y011360D01*
X022465Y011360D01*
X021490Y012335D01*
X021490Y012385D01*
X021452Y012893D02*
X021229Y012893D01*
X021229Y013052D02*
X021450Y013052D01*
X021507Y013210D02*
X021172Y013210D01*
X020616Y013210D02*
X020616Y013210D01*
X020616Y013258D02*
X020616Y012961D01*
X020616Y012961D01*
X020162Y012961D01*
X020163Y012960D01*
X020616Y012960D01*
X020616Y012961D01*
X020616Y013258D01*
X020616Y013052D02*
X020616Y013052D01*
X020616Y012960D02*
X020465Y012960D01*
X020465Y013685D01*
X018490Y013685D01*
X019459Y013210D02*
X020061Y013210D01*
X020003Y013052D02*
X019560Y013052D01*
X019990Y012685D02*
X020190Y012485D01*
X020590Y012485D01*
X020616Y012460D01*
X020616Y011960D02*
X020590Y011935D01*
X020190Y011935D01*
X019840Y011585D01*
X018990Y011585D01*
X018965Y011576D01*
X018990Y011685D01*
X019990Y010685D01*
X020112Y009722D02*
X020170Y009722D01*
X020170Y009564D02*
X020112Y009564D01*
X020112Y009405D02*
X020170Y009405D01*
X020170Y009247D02*
X020111Y009247D01*
X020170Y009088D02*
X019998Y009088D01*
X021271Y010356D02*
X022845Y010356D01*
X022845Y010198D02*
X021430Y010198D01*
X021588Y010039D02*
X022845Y010039D01*
X022845Y009881D02*
X021747Y009881D01*
X021905Y009722D02*
X022845Y009722D01*
X022845Y009564D02*
X022064Y009564D01*
X022223Y009405D02*
X022845Y009405D01*
X022845Y009247D02*
X022310Y009247D01*
X022310Y009088D02*
X022845Y009088D01*
X022845Y008930D02*
X022310Y008930D01*
X022310Y008771D02*
X022845Y008771D01*
X022845Y008613D02*
X022310Y008613D01*
X022310Y008454D02*
X022845Y008454D01*
X022845Y008295D02*
X022310Y008295D01*
X022310Y008137D02*
X022764Y008137D01*
X022727Y007978D02*
X022310Y007978D01*
X022431Y007820D02*
X022749Y007820D01*
X022844Y007661D02*
X022628Y007661D01*
X023540Y008237D02*
X023540Y008260D01*
X023565Y008260D01*
X023565Y009810D01*
X022845Y010515D02*
X021113Y010515D01*
X019990Y012685D02*
X018990Y012685D01*
X018965Y012695D01*
X018940Y012635D01*
X018990Y012685D02*
X017990Y011685D01*
X017990Y011185D01*
X021540Y013935D02*
X021565Y013960D01*
X021565Y015485D01*
X021990Y015910D01*
X021990Y016185D01*
X022451Y015588D02*
X022528Y015588D01*
X022682Y015430D02*
X022298Y015430D01*
X021245Y015113D02*
X015765Y015113D01*
X015924Y014954D02*
X021245Y014954D01*
X023298Y015430D02*
X023682Y015430D01*
X023528Y015588D02*
X023451Y015588D01*
X024298Y015430D02*
X024682Y015430D01*
X024528Y015588D02*
X024451Y015588D01*
X025298Y015430D02*
X025682Y015430D01*
X025528Y015588D02*
X025451Y015588D01*
X025490Y017585D02*
X017440Y017585D01*
X017559Y016698D02*
X015241Y016698D01*
X015399Y016540D02*
X017510Y016540D01*
X017510Y016381D02*
X015530Y016381D01*
X015530Y016223D02*
X017510Y016223D01*
X017510Y016064D02*
X015530Y016064D01*
X015474Y015906D02*
X017510Y015906D01*
X017528Y015747D02*
X015315Y015747D01*
X015289Y015588D02*
X017608Y015588D01*
X019297Y016857D02*
X019598Y016857D01*
X019494Y016698D02*
X019421Y016698D01*
X020776Y018442D02*
X022558Y018442D01*
X024240Y019685D02*
X024268Y019699D01*
X024768Y019711D02*
X025442Y019711D01*
X025449Y019552D02*
X024926Y019552D01*
X025084Y019393D02*
X025346Y019393D01*
X025862Y019711D02*
X026017Y019711D01*
X026017Y019869D02*
X025862Y019869D01*
X025862Y020028D02*
X026017Y020028D01*
X026017Y020345D02*
X025862Y020345D01*
X025862Y020503D02*
X026017Y020503D01*
X026474Y020503D02*
X027870Y020503D01*
X027797Y020345D02*
X026474Y020345D01*
X025406Y020028D02*
X024646Y020028D01*
X024738Y019869D02*
X025406Y019869D01*
X025490Y017585D02*
X028040Y020135D01*
X028590Y020135D01*
X029090Y020635D01*
X029390Y020635D01*
X029782Y020979D02*
X031625Y020979D01*
X031625Y021137D02*
X029623Y021137D01*
X029580Y021175D02*
X029400Y021175D01*
X029400Y021625D01*
X029380Y021625D01*
X029380Y021175D01*
X029199Y021175D01*
X028930Y021445D01*
X028930Y021625D01*
X029380Y021625D01*
X029380Y021645D01*
X028930Y021645D01*
X028930Y021826D01*
X029199Y022095D01*
X029380Y022095D01*
X029380Y021646D01*
X029400Y021646D01*
X029400Y022095D01*
X029580Y022095D01*
X029850Y021826D01*
X029850Y021645D01*
X029400Y021645D01*
X029400Y021625D01*
X029850Y021625D01*
X029850Y021445D01*
X029580Y021175D01*
X029701Y021296D02*
X031625Y021296D01*
X031653Y021455D02*
X029850Y021455D01*
X029850Y021613D02*
X031870Y021613D01*
X031870Y021772D02*
X029850Y021772D01*
X029746Y021930D02*
X031870Y021930D01*
X031870Y022089D02*
X029587Y022089D01*
X029400Y022089D02*
X029380Y022089D01*
X029380Y021930D02*
X029400Y021930D01*
X029400Y021772D02*
X029380Y021772D01*
X029380Y021613D02*
X029400Y021613D01*
X029400Y021455D02*
X029380Y021455D01*
X029380Y021296D02*
X029400Y021296D01*
X029157Y021137D02*
X028627Y021137D01*
X028782Y020979D02*
X028998Y020979D01*
X029079Y021296D02*
X028786Y021296D01*
X028910Y021455D02*
X028930Y021455D01*
X028930Y021613D02*
X028910Y021613D01*
X028910Y021772D02*
X028930Y021772D01*
X028830Y021930D02*
X029034Y021930D01*
X029193Y022089D02*
X028672Y022089D01*
X029910Y020820D02*
X031625Y020820D01*
X031625Y020662D02*
X029910Y020662D01*
X029910Y020503D02*
X031658Y020503D01*
X031975Y020186D02*
X029676Y020186D01*
X029835Y020345D02*
X032133Y020345D01*
X033264Y019869D02*
X033419Y019869D01*
X033419Y019711D02*
X033264Y019711D01*
X033264Y019552D02*
X033419Y019552D01*
X033419Y019235D02*
X033264Y019235D01*
X033264Y019076D02*
X033419Y019076D01*
X033419Y018918D02*
X033264Y018918D01*
X032846Y018918D02*
X032787Y018918D01*
X032794Y019076D02*
X032846Y019076D01*
X032846Y019235D02*
X032794Y019235D01*
X032581Y017332D02*
X040095Y017332D01*
X040095Y017174D02*
X034427Y017174D01*
X034427Y017175D02*
X034321Y017280D01*
X033734Y017280D01*
X033734Y016863D01*
X034427Y016863D01*
X034427Y017175D01*
X034427Y017015D02*
X040095Y017015D01*
X040095Y016857D02*
X033734Y016857D01*
X033734Y016863D02*
X033734Y016708D01*
X034427Y016708D01*
X034427Y016396D01*
X034321Y016290D01*
X033734Y016290D01*
X033734Y016708D01*
X033579Y016708D01*
X033579Y016290D01*
X032991Y016290D01*
X032886Y016396D01*
X032886Y016708D01*
X033578Y016708D01*
X033578Y016863D01*
X032886Y016863D01*
X032886Y017175D01*
X032991Y017280D01*
X033579Y017280D01*
X033579Y016863D01*
X033734Y016863D01*
X033734Y017015D02*
X033579Y017015D01*
X033578Y016857D02*
X032754Y016857D01*
X032754Y017015D02*
X032886Y017015D01*
X032886Y017174D02*
X032744Y017174D01*
X032754Y016698D02*
X032886Y016698D01*
X032886Y016540D02*
X032754Y016540D01*
X032737Y016381D02*
X032900Y016381D01*
X033579Y016381D02*
X033734Y016381D01*
X033734Y016540D02*
X033579Y016540D01*
X033579Y016698D02*
X033734Y016698D01*
X033734Y017174D02*
X033579Y017174D01*
X034412Y016381D02*
X040095Y016381D01*
X040095Y016540D02*
X034427Y016540D01*
X034427Y016698D02*
X040095Y016698D01*
X031510Y023991D02*
X030269Y023991D01*
X030393Y024150D02*
X031387Y024150D01*
X031330Y024308D02*
X030450Y024308D01*
X030450Y024467D02*
X031330Y024467D01*
X031381Y024625D02*
X030399Y024625D01*
X030285Y024784D02*
X031495Y024784D01*
X029630Y025735D02*
X029590Y025735D01*
X029590Y025894D02*
X029630Y025894D01*
X029630Y026052D02*
X029590Y026052D01*
X029590Y026211D02*
X029630Y026211D01*
X029630Y026369D02*
X029590Y026369D01*
X029590Y026528D02*
X029630Y026528D01*
X024150Y030809D02*
X020350Y030809D01*
X020259Y030967D02*
X024004Y030967D01*
X019397Y031443D02*
X019383Y031443D01*
X018546Y032077D02*
X018234Y032077D01*
X017546Y032077D02*
X017234Y032077D01*
X016546Y032077D02*
X016149Y032077D01*
X016307Y031918D02*
X016388Y031918D01*
X016370Y031760D02*
X016350Y031760D01*
X016350Y031601D02*
X016370Y031601D01*
X016397Y031443D02*
X016298Y031443D01*
X016139Y031284D02*
X016556Y031284D01*
X016521Y030967D02*
X016259Y030967D01*
X016350Y030809D02*
X016430Y030809D01*
X016430Y030650D02*
X016350Y030650D01*
X016347Y030491D02*
X016433Y030491D01*
X017106Y029699D02*
X018070Y029699D01*
X018070Y029857D02*
X017264Y029857D01*
X017423Y030016D02*
X018070Y030016D01*
X017665Y030174D02*
X017581Y030174D01*
X017640Y030685D02*
X017890Y030685D01*
X018070Y029540D02*
X016947Y029540D01*
X016789Y029382D02*
X018070Y029382D01*
X018070Y029223D02*
X016630Y029223D01*
X016472Y029065D02*
X018070Y029065D01*
X018070Y028906D02*
X016313Y028906D01*
X016155Y028748D02*
X018070Y028748D01*
X018070Y028589D02*
X015996Y028589D01*
X015838Y028430D02*
X018070Y028430D01*
X018070Y028272D02*
X015679Y028272D01*
X015520Y028113D02*
X018070Y028113D01*
X018070Y027955D02*
X015362Y027955D01*
X015203Y027796D02*
X018070Y027796D01*
X018070Y027638D02*
X015045Y027638D01*
X014886Y027479D02*
X018070Y027479D01*
X018070Y027321D02*
X014728Y027321D01*
X015150Y027004D02*
X017830Y027004D01*
X017586Y026845D02*
X015394Y026845D01*
X015491Y026686D02*
X017489Y026686D01*
X017450Y026528D02*
X016326Y026528D01*
X016470Y026369D02*
X017450Y026369D01*
X017450Y026211D02*
X016470Y026211D01*
X016470Y026052D02*
X017404Y026052D01*
X017246Y025894D02*
X016377Y025894D01*
X016219Y025735D02*
X017087Y025735D01*
X017020Y025577D02*
X016051Y025577D01*
X016010Y025735D02*
X015970Y025735D01*
X015970Y025894D02*
X016010Y025894D01*
X016010Y026052D02*
X015970Y026052D01*
X015990Y026185D02*
X016715Y025460D01*
X016715Y024269D01*
X016400Y024269D02*
X016400Y024775D01*
X014990Y026185D01*
X015530Y026528D02*
X015654Y026528D01*
X015970Y026528D02*
X016010Y026528D01*
X016010Y026369D02*
X015970Y026369D01*
X015970Y026211D02*
X016010Y026211D01*
X016210Y025418D02*
X017020Y025418D01*
X017020Y025260D02*
X016368Y025260D01*
X016527Y025101D02*
X017020Y025101D01*
X017020Y024942D02*
X016677Y024942D01*
X016720Y024784D02*
X016835Y024784D01*
X015440Y024685D02*
X015440Y024285D01*
X015455Y024269D01*
X015140Y024285D02*
X015140Y024269D01*
X015140Y024285D02*
X012840Y024285D01*
X010990Y026135D01*
X010990Y026185D01*
X011394Y026845D02*
X011586Y026845D01*
X011830Y027004D02*
X011150Y027004D01*
X010830Y027004D02*
X010150Y027004D01*
X010394Y026845D02*
X010586Y026845D01*
X009830Y027004D02*
X009674Y027004D01*
X009140Y027085D02*
X009990Y026235D01*
X009990Y026185D01*
X009990Y026135D01*
X012540Y023585D01*
X014390Y023585D01*
X014431Y023560D01*
X014431Y023245D02*
X014390Y023235D01*
X011890Y023235D01*
X008990Y026135D01*
X008990Y026185D01*
X008640Y026535D01*
X008640Y030885D01*
X008140Y031385D01*
X008140Y031685D01*
X008484Y032077D02*
X008796Y032077D01*
X009484Y032077D02*
X009796Y032077D01*
X009647Y031443D02*
X009633Y031443D01*
X009474Y031284D02*
X009806Y031284D01*
X009930Y031126D02*
X009435Y031126D01*
X009593Y030967D02*
X009771Y030967D01*
X009680Y030809D02*
X009660Y030809D01*
X009660Y030650D02*
X009680Y030650D01*
X009683Y030491D02*
X009660Y030491D01*
X009523Y030333D02*
X009842Y030333D01*
X009140Y030685D02*
X009140Y027085D01*
X008140Y026085D02*
X007990Y026185D01*
X007990Y026135D01*
X011190Y022935D01*
X014390Y022935D01*
X014431Y022930D01*
X014431Y022615D02*
X010560Y022615D01*
X006990Y026185D01*
X006450Y026211D02*
X003624Y026211D01*
X002556Y026211D02*
X001085Y026211D01*
X001085Y026369D02*
X006450Y026369D01*
X006450Y026528D02*
X001085Y026528D01*
X001085Y026686D02*
X006489Y026686D01*
X006586Y026845D02*
X001085Y026845D01*
X001085Y027004D02*
X006830Y027004D01*
X007150Y027004D02*
X007820Y027004D01*
X007820Y027162D02*
X001085Y027162D01*
X001085Y027321D02*
X007820Y027321D01*
X007820Y027479D02*
X001085Y027479D01*
X001085Y027638D02*
X007820Y027638D01*
X007820Y027796D02*
X001085Y027796D01*
X001085Y027955D02*
X007820Y027955D01*
X007820Y028113D02*
X001085Y028113D01*
X001085Y028272D02*
X007820Y028272D01*
X007820Y028430D02*
X001085Y028430D01*
X001085Y028589D02*
X007820Y028589D01*
X007820Y028748D02*
X001085Y028748D01*
X001085Y028906D02*
X007820Y028906D01*
X007820Y029065D02*
X001085Y029065D01*
X001085Y029223D02*
X007820Y029223D01*
X007820Y029382D02*
X001085Y029382D01*
X001085Y029540D02*
X007820Y029540D01*
X007820Y029699D02*
X001085Y029699D01*
X001085Y029857D02*
X007820Y029857D01*
X007820Y030016D02*
X001085Y030016D01*
X001085Y030174D02*
X007820Y030174D01*
X007757Y030333D02*
X007438Y030333D01*
X007330Y030225D02*
X007600Y030495D01*
X007600Y030675D01*
X007150Y030675D01*
X007150Y030225D01*
X007330Y030225D01*
X007130Y030225D02*
X007130Y030675D01*
X007150Y030675D01*
X007150Y030695D01*
X007600Y030695D01*
X007600Y030876D01*
X007330Y031145D01*
X007150Y031145D01*
X007150Y030696D01*
X007130Y030696D01*
X007130Y031145D01*
X006949Y031145D01*
X006680Y030876D01*
X006680Y030695D01*
X007130Y030695D01*
X007130Y030675D01*
X006680Y030675D01*
X006680Y030495D01*
X006949Y030225D01*
X007130Y030225D01*
X007130Y030333D02*
X007150Y030333D01*
X007150Y030491D02*
X007130Y030491D01*
X007130Y030650D02*
X007150Y030650D01*
X007150Y030809D02*
X007130Y030809D01*
X007130Y030967D02*
X007150Y030967D01*
X007150Y031126D02*
X007130Y031126D01*
X006930Y031126D02*
X006350Y031126D01*
X006330Y031145D02*
X006150Y031145D01*
X006150Y030696D01*
X006130Y030696D01*
X006130Y031145D01*
X005949Y031145D01*
X005680Y030876D01*
X005680Y030695D01*
X006130Y030695D01*
X006130Y030675D01*
X006150Y030675D01*
X006150Y030225D01*
X006330Y030225D01*
X006600Y030495D01*
X006600Y030675D01*
X006150Y030675D01*
X006150Y030695D01*
X006600Y030695D01*
X006600Y030876D01*
X006330Y031145D01*
X006330Y031225D02*
X006150Y031225D01*
X006150Y031675D01*
X006130Y031675D01*
X006130Y031225D01*
X005949Y031225D01*
X005680Y031495D01*
X005680Y031675D01*
X006130Y031675D01*
X006130Y031695D01*
X005680Y031695D01*
X005680Y031876D01*
X005949Y032145D01*
X006130Y032145D01*
X006130Y031696D01*
X006150Y031696D01*
X006150Y032145D01*
X006330Y032145D01*
X006600Y031876D01*
X006600Y031695D01*
X006150Y031695D01*
X006150Y031675D01*
X006600Y031675D01*
X006600Y031495D01*
X006330Y031225D01*
X006389Y031284D02*
X006806Y031284D01*
X006647Y031443D02*
X006548Y031443D01*
X006600Y031601D02*
X006620Y031601D01*
X006620Y031760D02*
X006600Y031760D01*
X006638Y031918D02*
X006557Y031918D01*
X006399Y032077D02*
X006796Y032077D01*
X006150Y032077D02*
X006130Y032077D01*
X006130Y031918D02*
X006150Y031918D01*
X006150Y031760D02*
X006130Y031760D01*
X006130Y031601D02*
X006150Y031601D01*
X006150Y031443D02*
X006130Y031443D01*
X006130Y031284D02*
X006150Y031284D01*
X006150Y031126D02*
X006130Y031126D01*
X006130Y030967D02*
X006150Y030967D01*
X006150Y030809D02*
X006130Y030809D01*
X006130Y030675D02*
X005680Y030675D01*
X005680Y030495D01*
X005949Y030225D01*
X006130Y030225D01*
X006130Y030675D01*
X006130Y030650D02*
X006150Y030650D01*
X006150Y030491D02*
X006130Y030491D01*
X006130Y030333D02*
X006150Y030333D01*
X006438Y030333D02*
X006842Y030333D01*
X006683Y030491D02*
X006597Y030491D01*
X006600Y030650D02*
X006680Y030650D01*
X006680Y030809D02*
X006600Y030809D01*
X006509Y030967D02*
X006771Y030967D01*
X007350Y031126D02*
X007845Y031126D01*
X007806Y031284D02*
X007474Y031284D01*
X007633Y031443D02*
X007647Y031443D01*
X007686Y030967D02*
X007509Y030967D01*
X007600Y030809D02*
X007620Y030809D01*
X007620Y030650D02*
X007600Y030650D01*
X007597Y030491D02*
X007620Y030491D01*
X008140Y030685D02*
X008140Y026085D01*
X007586Y026845D02*
X007394Y026845D01*
X005842Y030333D02*
X001085Y030333D01*
X001085Y030491D02*
X005683Y030491D01*
X005680Y030650D02*
X001085Y030650D01*
X001085Y030809D02*
X005680Y030809D01*
X005771Y030967D02*
X001085Y030967D01*
X001085Y031126D02*
X001667Y031126D01*
X001332Y031284D02*
X001085Y031284D01*
X001085Y031443D02*
X001134Y031443D01*
X002861Y031126D02*
X005930Y031126D01*
X005891Y031284D02*
X003136Y031284D01*
X003287Y031372D02*
X003287Y031372D01*
X003353Y031443D02*
X005732Y031443D01*
X005680Y031601D02*
X003500Y031601D01*
X003638Y031760D02*
X005680Y031760D01*
X005722Y031918D02*
X003714Y031918D01*
X003791Y032077D02*
X005881Y032077D01*
X007484Y032077D02*
X007796Y032077D01*
X003842Y033187D02*
X037406Y033187D01*
X037455Y033345D02*
X003766Y033345D01*
X003690Y033504D02*
X037537Y033504D01*
X037645Y033662D02*
X003600Y033662D01*
X002496Y026052D02*
X001085Y026052D01*
X001085Y025894D02*
X002496Y025894D01*
X003090Y024634D02*
X003090Y023735D01*
X004490Y022335D01*
X004490Y021885D01*
X004540Y021835D01*
X009390Y021835D01*
X013990Y017235D01*
X014490Y016735D02*
X014490Y016685D01*
X014990Y016185D01*
X013440Y015010D02*
X012690Y015010D01*
X012665Y014985D01*
X012740Y014385D02*
X010990Y016135D01*
X010990Y016185D01*
X012915Y016235D02*
X010790Y018360D01*
X005965Y018360D01*
X005940Y018385D01*
X005940Y018435D01*
X004490Y019885D01*
X003990Y019685D02*
X003990Y020085D01*
X003490Y020585D01*
X003490Y020885D01*
X003137Y020503D02*
X001085Y020503D01*
X001085Y020345D02*
X003214Y020345D01*
X003055Y020186D02*
X001085Y020186D01*
X001085Y020028D02*
X002970Y020028D01*
X002978Y020662D02*
X001085Y020662D01*
X001085Y020820D02*
X002970Y020820D01*
X002970Y020979D02*
X001085Y020979D01*
X001085Y021137D02*
X003007Y021137D01*
X003165Y021296D02*
X001085Y021296D01*
X001085Y021455D02*
X003270Y021455D01*
X003112Y021613D02*
X001085Y021613D01*
X001085Y021772D02*
X003030Y021772D01*
X003030Y021930D02*
X001085Y021930D01*
X001085Y022089D02*
X003043Y022089D01*
X003201Y022247D02*
X001085Y022247D01*
X003868Y021613D02*
X004027Y021613D01*
X003970Y021772D02*
X003950Y021772D01*
X003950Y021930D02*
X003970Y021930D01*
X003970Y022089D02*
X003937Y022089D01*
X006990Y020335D02*
X006990Y019435D01*
X007940Y019260D02*
X007940Y020760D01*
X007915Y020785D01*
X011265Y022060D02*
X011505Y022300D01*
X014431Y022300D01*
X014907Y021930D02*
X016977Y021930D01*
X016988Y021772D02*
X014967Y021772D01*
X014967Y021613D02*
X017068Y021613D01*
X017673Y022247D02*
X017899Y022247D01*
X018090Y021985D02*
X018998Y021985D01*
X018463Y021613D02*
X018335Y021613D01*
X018335Y021455D02*
X018463Y021455D01*
X018463Y021296D02*
X018335Y021296D01*
X018357Y021137D02*
X018463Y021137D01*
X018463Y020979D02*
X018440Y020979D01*
X018453Y020820D02*
X018463Y020820D01*
X018463Y020662D02*
X018407Y020662D01*
X018463Y020503D02*
X018277Y020503D01*
X018015Y020860D02*
X018015Y021910D01*
X018090Y021985D01*
X018998Y022930D02*
X020735Y022930D01*
X023990Y026185D01*
X022990Y026185D02*
X022990Y026135D01*
X020090Y023235D01*
X019040Y023235D01*
X018998Y023245D01*
X015882Y021455D02*
X014967Y021455D01*
X014967Y021296D02*
X015656Y021296D01*
X014431Y020411D02*
X014390Y020385D01*
X014390Y019635D01*
X014967Y022723D02*
X015531Y022723D01*
X015361Y022881D02*
X014967Y022881D01*
X014967Y023040D02*
X015302Y023040D01*
X015302Y023199D02*
X014967Y023199D01*
X014967Y023357D02*
X015368Y023357D01*
X015450Y023516D02*
X014967Y023516D01*
X014967Y023674D02*
X015450Y023674D01*
X015440Y024685D02*
X015040Y025085D01*
X013040Y025085D01*
X011990Y026135D01*
X011990Y026185D01*
X004781Y018442D02*
X002499Y018442D01*
X002540Y017960D02*
X002540Y017326D01*
X002580Y017285D01*
X003135Y017332D02*
X003145Y017332D01*
X003135Y017174D02*
X003145Y017174D01*
X003135Y017491D02*
X003145Y017491D01*
X003135Y017649D02*
X003145Y017649D01*
X003213Y017808D02*
X003067Y017808D01*
X004651Y016085D02*
X004690Y016085D01*
X005850Y017285D02*
X005890Y017285D01*
X006990Y016185D01*
X012740Y014385D02*
X013790Y014385D01*
X013790Y014345D01*
X012990Y016185D02*
X012990Y016235D01*
X012915Y016235D01*
X023540Y008237D02*
X024213Y008237D01*
X024213Y007981D02*
X024213Y007960D01*
X025540Y007235D02*
X025540Y006935D01*
X025515Y006935D01*
X025515Y006957D01*
X027067Y006957D01*
X027067Y006960D01*
X027865Y006960D01*
X028046Y007027D02*
X027578Y007027D01*
X027586Y006869D02*
X028046Y006869D01*
X028105Y006710D02*
X027602Y006710D01*
X027602Y006551D02*
X028320Y006551D01*
X028320Y006393D02*
X027602Y006393D01*
X027067Y006701D02*
X025790Y006701D01*
X025790Y006660D01*
X025765Y006660D01*
X025765Y004535D01*
X026155Y004332D02*
X027941Y004332D01*
X028099Y004173D02*
X026022Y004173D01*
X026203Y004490D02*
X027782Y004490D01*
X027624Y004649D02*
X026192Y004649D01*
X026112Y004807D02*
X027465Y004807D01*
X027307Y004966D02*
X026085Y004966D01*
X026085Y005125D02*
X026673Y005125D01*
X026537Y005283D02*
X026085Y005283D01*
X026085Y005442D02*
X026532Y005442D01*
X026532Y005600D02*
X026085Y005600D01*
X026085Y005759D02*
X026532Y005759D01*
X026532Y005917D02*
X026085Y005917D01*
X026085Y006076D02*
X026538Y006076D01*
X026567Y006234D02*
X026085Y006234D01*
X025743Y007344D02*
X026532Y007344D01*
X027067Y008044D02*
X027067Y008174D01*
X027067Y008174D01*
X027067Y008044D01*
X027067Y008044D01*
X027067Y008137D02*
X027067Y008137D01*
X027524Y008237D02*
X027525Y008237D01*
X027542Y008237D01*
X027524Y008237D01*
X027573Y008295D02*
X028562Y008295D01*
X028562Y008364D02*
X028106Y008364D01*
X028106Y008676D01*
X028211Y008781D01*
X028562Y008781D01*
X028562Y008364D01*
X028562Y008454D02*
X028717Y008454D01*
X028717Y008613D02*
X028562Y008613D01*
X028562Y008771D02*
X028717Y008771D01*
X029079Y008771D02*
X030638Y008771D01*
X030797Y008613D02*
X029174Y008613D01*
X029174Y008454D02*
X030955Y008454D01*
X030479Y008930D02*
X027580Y008930D01*
X027602Y008771D02*
X028201Y008771D01*
X028106Y008613D02*
X027602Y008613D01*
X027602Y008454D02*
X028106Y008454D01*
X028106Y008137D02*
X027542Y008137D01*
X027542Y007981D02*
X027524Y007981D01*
X027525Y007981D01*
X027542Y007981D01*
X027542Y007978D02*
X028106Y007978D01*
X028183Y007820D02*
X027602Y007820D01*
X027602Y007661D02*
X028108Y007661D01*
X028046Y007503D02*
X027602Y007503D01*
X027602Y007344D02*
X028046Y007344D01*
X028046Y007186D02*
X027602Y007186D01*
X028562Y007820D02*
X028717Y007820D01*
X028717Y007978D02*
X028562Y007978D01*
X028562Y008137D02*
X028717Y008137D01*
X030321Y009088D02*
X026759Y009088D01*
X024213Y006190D02*
X023294Y006190D01*
X023265Y006160D01*
X028797Y005678D02*
X028865Y005610D01*
X031315Y005610D01*
X032194Y006490D01*
X032448Y006490D01*
X033418Y005600D02*
X033446Y005600D01*
X033446Y005442D02*
X033418Y005442D01*
X033418Y005283D02*
X033446Y005283D01*
X033673Y005283D02*
X034639Y005283D01*
X034819Y005442D02*
X033832Y005442D01*
X032622Y007820D02*
X036950Y007820D01*
X036950Y007978D02*
X032463Y007978D01*
X032305Y008137D02*
X037010Y008137D01*
X037136Y008295D02*
X032146Y008295D01*
X031987Y008454D02*
X037158Y008454D01*
X037018Y008613D02*
X031829Y008613D01*
X012958Y001093D02*
X012958Y001093D01*
X012912Y001161D02*
X001085Y001161D01*
X001085Y001320D02*
X012804Y001320D01*
X012696Y001478D02*
X001085Y001478D01*
X001551Y001795D02*
X001710Y001795D01*
X001710Y001954D02*
X001551Y001954D01*
X001551Y002112D02*
X001710Y002112D01*
X011733Y005600D02*
X012024Y005600D01*
X039611Y031126D02*
X040095Y031126D01*
X040095Y031284D02*
X039885Y031284D01*
D33*
X021115Y020985D03*
X020740Y020485D03*
X020315Y019960D03*
X020765Y019560D03*
X020365Y019035D03*
X019615Y018935D03*
X017815Y017985D03*
X017440Y017585D03*
X016465Y017985D03*
X015765Y018035D03*
X016065Y018660D03*
X017115Y018735D03*
X016090Y017285D03*
X014815Y018760D03*
X016015Y021035D03*
X017390Y020735D03*
X018015Y020860D03*
X017415Y021885D03*
X017365Y022860D03*
X015740Y023110D03*
X012115Y021010D03*
X011215Y020810D03*
X011265Y022060D03*
X007915Y020785D03*
X006990Y020335D03*
X006990Y019435D03*
X007940Y019260D03*
X009315Y014935D03*
X012665Y014985D03*
X013440Y015010D03*
X021540Y013935D03*
X021490Y012385D03*
X023165Y007960D03*
X025490Y007710D03*
X025765Y004535D03*
X030490Y011260D03*
X029665Y012060D03*
X027090Y011860D03*
X036640Y004835D03*
X002540Y017960D03*
M02*
