<?xml version="1.0" encoding="ISO-8859-1" standalone="no"?>
<!DOCTYPE svg PUBLIC "-//W3C//DTD SVG 1.1//EN" "http://www.w3.org/Graphics/SVG/1.1/DTD/svg11.dtd">
<svg version="1.1" baseProfile="full" id="body" width="8in" height="8in" viewBox="0 0 1 1" preserveAspectRatio="none" xmlns="http://www.w3.org/2000/svg" xmlns:xlink="http://www.w3.org/1999/xlink" xmlns:ev="http://www.w3.org/2001/xml-events">
<title>SVG drawing</title>
<desc>This was produced by version 4.2 of GNU libplot, a free library for exporting 2-D vector graphics.</desc>
<rect id="background" x="0" y="0" width="1" height="1" stroke="none" fill="white"/>
<g id="content" transform="translate(-0.03125,1.1875) scale(1,-1) scale(0.0017361) " xml:space="preserve" stroke="black" stroke-linecap="butt" stroke-linejoin="miter" stroke-miterlimit="10.433" stroke-dasharray="none" stroke-dashoffset="0" stroke-opacity="1" fill="none" fill-rule="even-odd" fill-opacity="1" font-style="normal" font-variant="normal" font-weight="normal" font-stretch="normal" font-size-adjust="none" letter-spacing="normal" word-spacing="normal" text-anchor="start">
<line x1="307.04" y1="96.078" x2="288.32" y2="96.078" stroke-width="0" />
<line x1="286.88" y1="114.32" x2="336.32" y2="114.32" stroke-width="0" />
<path d="M302.81,102.29 L302.81,102.41 L302.8,102.54 L302.78,102.67 L302.76,102.79 L302.73,102.92 L302.7,103.04 L302.66,103.15 L302.61,103.27 L302.56,103.38 L302.51,103.49 L302.45,103.6 L302.38,103.7 L302.31,103.8 L302.23,103.89 L302.16,103.98 L302.07,104.07 L301.98,104.16 L301.89,104.23 L301.8,104.31 L301.7,104.38 L301.6,104.45 L301.49,104.51 L301.38,104.56 L301.27,104.61 L301.15,104.66 L301.04,104.7 L300.92,104.73 L300.79,104.76 L300.67,104.78 L300.54,104.8 L300.41,104.81 L300.29,104.81 C298.89,104.81,297.76,103.68,297.76,102.29 C297.76,100.89,298.89,99.758,300.29,99.758 C301.68,99.758,302.81,100.89,302.81,102.29 Z " stroke-width="0" />
<line x1="262.16" y1="138.8" x2="245.6" y2="138.8" stroke-width="0" />
<line x1="240.08" y1="145.04" x2="292.4" y2="145.04" stroke-width="0" />
<line x1="275.12" y1="87.441" x2="240.08" y2="87.441" stroke-width="0" />
<polygon points="247.28,129.68 249.2,129.68 249.2,132.8 247.28,132.8 " stroke="fuchsia" stroke-width="0" />
<polyline points="250.16,130.16 250.88,129.68 251.84,129.68 252.32,130.16 250.16,132.32 250.88,132.8 251.84,132.8 252.32,132.32 " stroke="fuchsia" stroke-width="0" />
<polyline points="253.28,129.68 254.96,129.68 255.44,130.16 255.44,130.64 254.96,131.36 253.76,131.36 " stroke="fuchsia" stroke-width="0" />
<polyline points="254.96,131.36 255.44,131.84 255.44,132.32 254.96,132.8 253.28,132.8 " stroke="fuchsia" stroke-width="0" />
<line x1="253.76" y1="132.8" x2="253.76" y2="129.68" stroke="fuchsia" stroke-width="0" />
<polyline points="256.4,132.32 256.88,132.8 256.88,129.68 " stroke="fuchsia" stroke-width="0" />
<line x1="256.4" y1="129.68" x2="257.36" y2="129.68" stroke="fuchsia" stroke-width="0" />
<line x1="245.6" y1="133.28" x2="262.16" y2="133.28" stroke-width="0" />
<line x1="240.08" y1="127.28" x2="292.4" y2="127.28" stroke-width="0" />
<line x1="251.12" y1="94.879" x2="256.4" y2="94.879" stroke-width="0" />
<line x1="240.08" y1="107.6" x2="240.08" y2="87.441" stroke-width="0" />
<line x1="245.6" y1="107.6" x2="240.08" y2="107.6" stroke-width="0" />
<line x1="249.2" y1="102.56" x2="249.2" y2="107.6" stroke-width="0" />
<line x1="251.12" y1="102.56" x2="249.2" y2="102.56" stroke-width="0" />
<line x1="251.12" y1="94.879" x2="251.12" y2="102.56" stroke-width="0" />
<line x1="245.6" y1="113.12" x2="251.12" y2="113.12" stroke-width="0" />
<line x1="245.6" y1="107.6" x2="245.6" y2="113.12" stroke-width="0" />
<line x1="251.12" y1="107.6" x2="251.12" y2="113.12" stroke-width="0" />
<line x1="251.12" y1="107.6" x2="249.2" y2="107.6" stroke-width="0" />
<line x1="240.08" y1="145.04" x2="240.08" y2="127.28" stroke-width="0" />
<line x1="245.6" y1="133.28" x2="245.6" y2="138.8" stroke-width="0" />
<line x1="286.88" y1="107.6" x2="286.88" y2="114.32" stroke-width="0" />
<path d="M275.13,87.566 C280.89,87.566,286.12,90.922,288.52,96.152 " stroke-width="0" />
<path d="M268.7,103.42 L268.71,103.09 L268.74,102.76 L268.78,102.44 L268.83,102.12 L268.91,101.81 L268.99,101.51 L269.09,101.21 L269.21,100.92 L269.34,100.63 L269.48,100.35 L269.63,100.08 L269.8,99.823 L269.98,99.571 L270.17,99.328 L270.37,99.095 L270.59,98.872 L270.81,98.659 L271.04,98.457 L271.29,98.266 L271.54,98.086 L271.8,97.919 L272.07,97.764 L272.35,97.622 L272.63,97.494 L272.92,97.378 L273.22,97.277 L273.53,97.191 L273.84,97.119 L274.15,97.062 L274.48,97.021 L274.8,96.997 L275.13,96.988 C278.68,96.988,281.57,99.867,281.57,103.42 " stroke-width="0" />
<polygon points="258.8,102.56 260.72,102.56 260.72,105.68 258.8,105.68 " stroke="fuchsia" stroke-width="0" />
<polyline points="261.92,103.04 262.4,102.56 263.36,102.56 263.84,103.04 261.92,105.2 262.4,105.68 263.36,105.68 263.84,105.2 " stroke="fuchsia" stroke-width="0" />
<polyline points="264.8,102.56 266.48,102.56 266.96,103.04 266.96,103.52 266.48,104.24 265.52,104.24 " stroke="fuchsia" stroke-width="0" />
<polyline points="266.48,104.24 266.96,104.72 266.96,105.2 266.48,105.68 264.8,105.68 " stroke="fuchsia" stroke-width="0" />
<line x1="265.52" y1="105.68" x2="265.52" y2="102.56" stroke="fuchsia" stroke-width="0" />
<polyline points="267.92,105.2 268.4,105.68 268.4,102.56 " stroke="fuchsia" stroke-width="0" />
<line x1="267.92" y1="102.56" x2="269.12" y2="102.56" stroke="fuchsia" stroke-width="0" />
<line x1="262.16" y1="107.6" x2="268.64" y2="107.6" stroke-width="0" />
<line x1="258.32" y1="102.56" x2="258.32" y2="107.6" stroke-width="0" />
<polyline points="256.4,94.879 256.4,102.56 258.32,102.56 " stroke-width="0" />
<line x1="256.4" y1="113.12" x2="262.16" y2="113.12" stroke-width="0" />
<line x1="256.4" y1="107.6" x2="256.4" y2="113.12" stroke-width="0" />
<line x1="256.4" y1="107.6" x2="258.32" y2="107.6" stroke-width="0" />
<line x1="262.16" y1="107.6" x2="262.16" y2="113.12" stroke-width="0" />
<line x1="268.64" y1="103.28" x2="268.64" y2="107.6" stroke-width="0" />
<polyline points="281.36,103.28 281.36,107.6 286.88,107.6 " stroke-width="0" />
<line x1="262.16" y1="133.28" x2="262.16" y2="138.8" stroke-width="0" />
<line x1="286.88" y1="133.28" x2="286.88" y2="138.8" stroke-width="0" />
<line x1="286.88" y1="133.28" x2="292.4" y2="133.28" stroke-width="0" />
<line x1="292.4" y1="127.28" x2="292.4" y2="133.28" stroke-width="0" />
<line x1="292.4" y1="138.8" x2="286.88" y2="138.8" stroke-width="0" />
<line x1="292.4" y1="138.8" x2="292.4" y2="145.04" stroke-width="0" />
<polyline points="336.32,114.32 336.32,96.078 322.4,96.078 " stroke-width="0" />
<line x1="309.92" y1="108.32" x2="319.28" y2="108.32" stroke-width="0" />
<line x1="307.04" y1="105.2" x2="307.04" y2="96.078" stroke-width="0" />
<path d="M310.16,108.41 H310.16 C308.47,108.41,307.1,107.04,307.1,105.35 " stroke-width="0" />
<line x1="322.4" y1="105.2" x2="322.4" y2="96.078" stroke-width="0" />
<path d="M322.57,105.35 C322.57,107.04,321.2,108.41,319.51,108.41 " stroke-width="0" />
<path d="M331.91,102.29 L331.9,102.41 L331.89,102.54 L331.88,102.67 L331.85,102.79 L331.83,102.92 L331.79,103.04 L331.75,103.15 L331.71,103.27 L331.66,103.38 L331.6,103.49 L331.54,103.6 L331.47,103.7 L331.4,103.8 L331.33,103.89 L331.25,103.98 L331.17,104.07 L331.08,104.16 L330.99,104.23 L330.89,104.31 L330.79,104.38 L330.69,104.45 L330.58,104.51 L330.48,104.56 L330.36,104.61 L330.25,104.66 L330.13,104.7 L330.01,104.73 L329.89,104.76 L329.77,104.78 L329.64,104.8 L329.51,104.81 L329.38,104.81 C327.99,104.81,326.86,103.68,326.86,102.29 C326.86,100.89,327.99,99.758,329.38,99.758 C330.77,99.758,331.91,100.89,331.91,102.29 Z " stroke-width="0" />
</g>
</svg>
