<?xml version="1.0" encoding="ISO-8859-1" standalone="no"?>
<!DOCTYPE svg PUBLIC "-//W3C//DTD SVG 1.1//EN" "http://www.w3.org/Graphics/SVG/1.1/DTD/svg11.dtd">
<svg version="1.1" baseProfile="full" id="body" width="8in" height="8in" viewBox="0 0 1 1" preserveAspectRatio="none" xmlns="http://www.w3.org/2000/svg" xmlns:xlink="http://www.w3.org/1999/xlink" xmlns:ev="http://www.w3.org/2001/xml-events">
<title>SVG drawing</title>
<desc>This was produced by version 4.2 of GNU libplot, a free library for exporting 2-D vector graphics.</desc>
<rect id="background" x="0" y="0" width="1" height="1" stroke="none" fill="white"/>
<g id="content" transform="translate(-0.03125,1.1875) scale(1,-1) scale(0.0017361) " xml:space="preserve" stroke="black" stroke-linecap="butt" stroke-linejoin="miter" stroke-miterlimit="10.433" stroke-dasharray="none" stroke-dashoffset="0" stroke-opacity="1" fill="none" fill-rule="even-odd" fill-opacity="1" font-style="normal" font-variant="normal" font-weight="normal" font-stretch="normal" font-size-adjust="none" letter-spacing="normal" word-spacing="normal" text-anchor="start">
<line x1="92.719" y1="177.44" x2="89.359" y2="177.44" stroke-width="0" />
<line x1="89.359" y1="166.16" x2="92.719" y2="166.16" stroke-width="0" />
<line x1="92.719" y1="159.68" x2="89.359" y2="159.68" stroke-width="0" />
<line x1="89.359" y1="148.16" x2="92.719" y2="148.16" stroke-width="0" />
<line x1="89.359" y1="136.64" x2="92.719" y2="136.64" stroke-width="0" />
<line x1="92.719" y1="133.52" x2="89.359" y2="133.52" stroke-width="0" />
<line x1="92.719" y1="140" x2="73.039" y2="154.64" stroke-width="0" />
<line x1="89.359" y1="122" x2="92.719" y2="122" stroke-width="0" />
<line x1="101.84" y1="117.44" x2="66.32" y2="117.44" stroke-width="0" />
<line x1="87.68" y1="73.039" x2="98.48" y2="73.039" stroke-width="0" />
<line x1="66.559" y1="159.68" x2="86.238" y2="144.8" stroke-width="0" />
<polyline points="67.762,100.16 68.48,100.88 69.441,100.88 " stroke="fuchsia" stroke-width="0" />
<line x1="68.48" y1="100.88" x2="67.762" y2="101.36" stroke="fuchsia" stroke-width="0" />
<polyline points="69.441,102.08 67.762,102.08 68.961,102.56 67.762,103.28 69.441,103.28 " stroke="fuchsia" stroke-width="0" />
<polyline points="69.441,103.76 69.441,104.72 69.199,104.96 68.961,104.96 68.48,104.72 68.48,104.24 " stroke="fuchsia" stroke-width="0" />
<polyline points="68.48,104.72 68.238,104.96 68,104.96 67.762,104.72 67.762,103.76 " stroke="fuchsia" stroke-width="0" />
<line x1="67.762" y1="104.24" x2="69.441" y2="104.24" stroke="fuchsia" stroke-width="0" />
<polyline points="68,105.68 67.762,105.92 67.762,106.64 68,106.88 68.238,106.88 68.48,106.64 68.48,106.4 " stroke="fuchsia" stroke-width="0" />
<polyline points="68.48,106.64 68.961,106.88 69.199,106.88 69.441,106.64 69.441,105.92 69.199,105.68 " stroke="fuchsia" stroke-width="0" />
<line x1="85.762" y1="99.199" x2="85.762" y2="101.12" stroke-width="0" />
<line x1="82.398" y1="101.12" x2="82.398" y2="99.199" stroke-width="0" />
<line x1="66.32" y1="117.44" x2="66.32" y2="76.398" stroke-width="0" />
<line x1="80.48" y1="73.039" x2="80.48" y2="76.398" stroke-width="0" />
<line x1="87.68" y1="76.398" x2="87.68" y2="73.039" stroke-width="0" />
<polyline points="70.879,75.441 71.359,74.48 71.359,73.52 " stroke="fuchsia" stroke-width="0" />
<line x1="71.359" y1="74.48" x2="72.078" y2="75.441" stroke="fuchsia" stroke-width="0" />
<polyline points="72.559,73.52 72.559,75.441 73.281,74.238 73.762,75.441 73.762,73.52 " stroke="fuchsia" stroke-width="0" />
<polyline points="74.48,73.52 75.441,73.52 75.68,73.762 75.68,74.238 75.441,74.48 74.719,74.48 " stroke="fuchsia" stroke-width="0" />
<polyline points="75.441,74.48 75.68,74.719 75.68,74.961 75.441,75.441 74.48,75.441 " stroke="fuchsia" stroke-width="0" />
<line x1="74.719" y1="75.441" x2="74.719" y2="73.52" stroke="fuchsia" stroke-width="0" />
<polyline points="76.16,74.961 76.641,75.441 77.121,75.441 77.359,74.961 77.359,74.719 77.121,74.48 76.641,74.48 76.16,74.238 76.16,73.52 77.359,73.52 " stroke="fuchsia" stroke-width="0" />
<polyline points="69.68,76.398 69.68,73.039 80.48,73.039 " stroke-width="0" />
<line x1="70.879" y1="99.199" x2="67.762" y2="99.199" stroke-width="0" />
<line x1="67.762" y1="95.84" x2="70.879" y2="95.84" stroke-width="0" />
<path d="M74.758,85.824 L74.755,85.945 L74.746,86.064 L74.731,86.181 L74.71,86.296 L74.684,86.41 L74.652,86.521 L74.615,86.63 L74.573,86.737 L74.526,86.84 L74.474,86.942 L74.417,87.04 L74.356,87.135 L74.29,87.227 L74.22,87.316 L74.146,87.401 L74.068,87.483 L73.987,87.561 L73.901,87.635 L73.812,87.704 L73.72,87.77 L73.625,87.831 L73.526,87.888 L73.425,87.94 L73.321,87.987 L73.214,88.029 L73.105,88.066 L72.993,88.098 L72.88,88.124 L72.764,88.145 L72.646,88.16 L72.527,88.169 L72.406,88.172 C71.109,88.172,70.055,87.117,70.055,85.824 C70.055,84.527,71.109,83.473,72.406,83.473 C73.703,83.473,74.758,84.527,74.758,85.824 Z " stroke-width="0" />
<line x1="66.32" y1="76.398" x2="69.68" y2="76.398" stroke-width="0" />
<line x1="67.762" y1="99.199" x2="67.762" y2="95.84" stroke-width="0" />
<line x1="80.48" y1="76.398" x2="87.68" y2="76.398" stroke-width="0" />
<line x1="70.879" y1="95.84" x2="70.879" y2="99.199" stroke-width="0" />
<line x1="85.762" y1="93.68" x2="85.762" y2="95.84" stroke-width="0" />
<polyline points="82.398,95.84 82.398,93.68 85.762,93.68 " stroke-width="0" />
<polyline points="80.48,99.199 80.48,95.84 82.398,95.84 " stroke-width="0" />
<line x1="82.398" y1="99.199" x2="80.48" y2="99.199" stroke-width="0" />
<line x1="87.68" y1="95.84" x2="87.68" y2="99.199" stroke-width="0" />
<line x1="85.762" y1="95.84" x2="87.68" y2="95.84" stroke-width="0" />
<line x1="87.68" y1="99.199" x2="85.762" y2="99.199" stroke-width="0" />
<line x1="66.559" y1="133.52" x2="66.559" y2="122" stroke-width="0" />
<line x1="69.922" y1="118.88" x2="89.359" y2="118.88" stroke-width="0" />
<path d="M74.758,109.33 L74.755,109.45 L74.746,109.57 L74.731,109.69 L74.71,109.81 L74.684,109.92 L74.652,110.03 L74.615,110.14 L74.573,110.25 L74.526,110.35 L74.474,110.45 L74.417,110.55 L74.356,110.65 L74.29,110.74 L74.22,110.83 L74.146,110.91 L74.068,110.99 L73.987,111.07 L73.901,111.15 L73.812,111.22 L73.72,111.28 L73.625,111.34 L73.526,111.4 L73.425,111.45 L73.321,111.5 L73.214,111.54 L73.105,111.58 L72.993,111.61 L72.88,111.64 L72.764,111.66 L72.646,111.67 L72.527,111.68 L72.406,111.68 C71.109,111.68,70.055,110.63,70.055,109.33 C70.055,108.04,71.109,106.98,72.406,106.98 C73.703,106.98,74.758,108.04,74.758,109.33 Z " stroke-width="0" />
<line x1="69.922" y1="122" x2="69.922" y2="118.88" stroke-width="0" />
<line x1="66.559" y1="122" x2="69.922" y2="122" stroke-width="0" />
<polyline points="83.359,101.36 84.078,102.08 85.039,102.08 " stroke="fuchsia" stroke-width="0" />
<line x1="84.078" y1="102.08" x2="83.359" y2="102.56" stroke="fuchsia" stroke-width="0" />
<polyline points="85.039,103.28 83.359,103.28 84.559,104 83.359,104.48 85.039,104.48 " stroke="fuchsia" stroke-width="0" />
<polyline points="85.039,105.2 85.039,105.92 84.801,106.4 84.559,106.4 84.078,105.92 84.078,105.44 " stroke="fuchsia" stroke-width="0" />
<polyline points="84.078,105.92 83.84,106.4 83.602,106.4 83.359,105.92 83.359,105.2 " stroke="fuchsia" stroke-width="0" />
<line x1="83.359" y1="105.44" x2="85.039" y2="105.44" stroke="fuchsia" stroke-width="0" />
<polyline points="84.559,108.08 84.559,106.88 83.359,107.84 85.039,107.84 " stroke="fuchsia" stroke-width="0" />
<line x1="85.762" y1="101.12" x2="82.398" y2="101.12" stroke-width="0" />
<polyline points="83.121,127.04 82.641,126.56 82.16,126.56 81.922,127.04 81.922,127.28 82.16,127.52 82.641,127.52 83.121,127.76 83.121,128.48 81.922,128.48 " stroke="fuchsia" stroke-width="0" />
<line x1="81.199" y1="128.48" x2="80" y2="126.56" stroke="fuchsia" stroke-width="0" />
<line x1="81.199" y1="126.56" x2="80" y2="128.48" stroke="fuchsia" stroke-width="0" />
<line x1="89.359" y1="118.88" x2="89.359" y2="122" stroke-width="0" />
<line x1="73.039" y1="154.64" x2="69.922" y2="154.64" stroke-width="0" />
<line x1="66.559" y1="151.52" x2="66.559" y2="140" stroke-width="0" />
<polyline points="69.922,140 69.922,133.52 66.559,133.52 " stroke-width="0" />
<line x1="66.559" y1="140" x2="69.922" y2="140" stroke-width="0" />
<polyline points="69.441,149.6 68.48,149.12 67.52,149.12 " stroke="fuchsia" stroke-width="0" />
<line x1="68.48" y1="149.12" x2="69.441" y2="148.4" stroke="fuchsia" stroke-width="0" />
<polyline points="67.52,147.92 69.441,147.92 68.238,147.2 69.441,146.72 67.52,146.72 " stroke="fuchsia" stroke-width="0" />
<polyline points="67.52,146 67.52,145.04 67.762,144.8 68.238,144.8 68.48,145.04 68.48,145.76 " stroke="fuchsia" stroke-width="0" />
<polyline points="68.48,145.04 68.719,144.8 69.199,144.8 69.441,145.04 69.441,146 " stroke="fuchsia" stroke-width="0" />
<line x1="69.441" y1="145.76" x2="67.52" y2="145.76" stroke="fuchsia" stroke-width="0" />
<polyline points="67.762,144.32 67.52,143.84 67.52,143.36 67.762,143.12 68.48,143.12 68.719,143.36 68.719,144.32 69.441,144.32 69.441,143.12 " stroke="fuchsia" stroke-width="0" />
<polyline points="69.922,154.64 69.922,151.52 66.559,151.52 " stroke-width="0" />
<line x1="89.359" y1="133.52" x2="89.359" y2="136.64" stroke-width="0" />
<line x1="89.359" y1="144.8" x2="89.359" y2="148.16" stroke-width="0" />
<line x1="86.238" y1="144.8" x2="89.359" y2="144.8" stroke-width="0" />
<line x1="89.359" y1="180.8" x2="69.922" y2="180.8" stroke-width="0" />
<polyline points="67.52,166.64 68.48,167.12 69.441,167.12 " stroke="fuchsia" stroke-width="0" />
<line x1="68.48" y1="167.12" x2="67.52" y2="167.84" stroke="fuchsia" stroke-width="0" />
<polyline points="69.441,168.32 67.52,168.32 68.719,169.04 67.52,169.52 69.441,169.52 " stroke="fuchsia" stroke-width="0" />
<polyline points="69.441,170.24 69.441,171.2 69.199,171.44 68.719,171.44 68.48,171.2 68.48,170.48 " stroke="fuchsia" stroke-width="0" />
<polyline points="68.48,171.2 68.238,171.44 68,171.44 67.52,171.2 67.52,170.24 " stroke="fuchsia" stroke-width="0" />
<line x1="67.52" y1="170.48" x2="69.441" y2="170.48" stroke="fuchsia" stroke-width="0" />
<polyline points="68.48,171.92 68.48,172.88 68.719,173.12 69.199,173.12 69.441,172.88 69.441,172.4 69.199,171.92 68.238,171.92 67.52,172.64 67.52,172.88 " stroke="fuchsia" stroke-width="0" />
<line x1="66.559" y1="177.44" x2="66.559" y2="166.16" stroke-width="0" />
<polyline points="69.922,166.16 69.922,162.8 66.559,162.8 66.559,159.68 " stroke-width="0" />
<line x1="66.559" y1="166.16" x2="69.922" y2="166.16" stroke-width="0" />
<polyline points="69.922,180.8 69.922,177.44 66.559,177.44 " stroke-width="0" />
<line x1="89.359" y1="159.68" x2="89.359" y2="166.16" stroke-width="0" />
<polyline points="76.398,172.64 76.641,172.88 77.121,172.88 77.602,172.64 77.602,172.4 77.121,172.16 76.641,172.16 76.398,171.68 76.398,171.2 77.602,171.2 " stroke="fuchsia" stroke-width="0" />
<line x1="78.078" y1="171.2" x2="79.281" y2="172.88" stroke="fuchsia" stroke-width="0" />
<line x1="78.078" y1="172.88" x2="79.281" y2="171.2" stroke="fuchsia" stroke-width="0" />
<line x1="89.359" y1="177.44" x2="89.359" y2="180.8" stroke-width="0" />
<line x1="149.6" y1="157.52" x2="149.6" y2="154.16" stroke-width="0" />
<path d="M105.81,157.65 L105.79,157.45 L105.78,157.25 L105.76,157.04 L105.75,156.84 L105.74,156.64 L105.74,156.43 L105.73,156.23 L105.73,156.03 C105.73,146.29,113.63,138.4,123.38,138.4 C133.12,138.4,141.02,146.29,141.02,156.03 C141.02,156.57,141,157.11,140.95,157.65 " stroke-width="0" />
<line x1="97.039" y1="157.52" x2="97.039" y2="154.16" stroke-width="0" />
<line x1="92.719" y1="148.16" x2="92.719" y2="159.68" stroke-width="0" />
<polyline points="89.84,149.84 90.801,150.56 91.762,150.56 " stroke="fuchsia" stroke-width="0" />
<line x1="90.801" y1="150.56" x2="89.84" y2="151.04" stroke="fuchsia" stroke-width="0" />
<polyline points="91.762,151.76 89.84,151.76 91.039,152.24 89.84,152.96 91.762,152.96 " stroke="fuchsia" stroke-width="0" />
<polyline points="91.762,153.44 91.762,154.4 91.52,154.64 91.039,154.64 90.801,154.4 90.801,153.92 " stroke="fuchsia" stroke-width="0" />
<polyline points="90.801,154.4 90.559,154.64 90.32,154.64 89.84,154.4 89.84,153.44 " stroke="fuchsia" stroke-width="0" />
<line x1="89.84" y1="153.92" x2="91.762" y2="153.92" stroke="fuchsia" stroke-width="0" />
<polyline points="91.52,155.36 91.762,155.6 91.762,156.32 91.52,156.56 90.801,156.56 90.559,156.32 90.559,155.36 89.84,155.36 89.84,156.56 " stroke="fuchsia" stroke-width="0" />
<line x1="153.68" y1="100.4" x2="153.68" y2="111.92" stroke-width="0" />
<path d="M148.41,95.738 L148.39,96.646 L148.32,97.541 L148.21,98.424 L148.05,99.292 L147.85,100.15 L147.62,100.98 L147.34,101.8 L147.02,102.6 L146.67,103.38 L146.28,104.14 L145.86,104.88 L145.4,105.6 L144.9,106.29 L144.38,106.95 L143.83,107.59 L143.24,108.21 L142.63,108.79 L141.99,109.34 L141.32,109.87 L140.63,110.36 L139.91,110.82 L139.18,111.24 L138.41,111.63 L137.63,111.99 L136.83,112.3 L136.01,112.58 L135.17,112.82 L134.32,113.01 L133.45,113.17 L132.57,113.28 L131.67,113.35 L130.77,113.37 C121.02,113.37,113.12,105.48,113.12,95.738 C113.12,86.004,121.02,78.109,130.77,78.109 C140.51,78.109,148.41,86.004,148.41,95.738 Z " stroke-width="0" />
<line x1="107.6" y1="100.4" x2="107.6" y2="111.92" stroke-width="0" />
<line x1="101.84" y1="76.398" x2="101.84" y2="117.44" stroke-width="0" />
<line x1="152" y1="69.441" x2="109.28" y2="69.441" stroke-width="0" />
<path d="M111.81,74.445 L111.81,74.566 L111.8,74.685 L111.78,74.803 L111.76,74.919 L111.74,75.032 L111.71,75.144 L111.67,75.253 L111.63,75.36 L111.58,75.464 L111.53,75.565 L111.47,75.664 L111.41,75.759 L111.34,75.852 L111.27,75.94 L111.2,76.026 L111.12,76.107 L111.04,76.185 L110.96,76.259 L110.87,76.329 L110.77,76.395 L110.68,76.456 L110.58,76.513 L110.48,76.565 L110.37,76.612 L110.27,76.654 L110.16,76.691 L110.05,76.723 L109.93,76.749 L109.82,76.77 L109.7,76.785 L109.58,76.794 L109.46,76.797 C108.16,76.797,107.11,75.742,107.11,74.445 C107.11,73.148,108.16,72.094,109.46,72.094 C110.76,72.094,111.81,73.148,111.81,74.445 Z " stroke-width="0" />
<path d="M104.48,74.445 C104.48,71.699,106.71,69.473,109.46,69.473 " stroke-width="0" />
<line x1="98.48" y1="73.039" x2="98.48" y2="76.398" stroke-width="0" />
<line x1="116.24" y1="73.281" x2="127.04" y2="73.281" stroke-width="0" />
<polyline points="127.04,70.16 116.24,70.16 116.24,73.281 " stroke-width="0" />
<line x1="127.04" y1="73.281" x2="127.04" y2="70.16" stroke-width="0" />
<polyline points="108.56,84.078 109.52,84.801 110.48,84.801 " stroke="fuchsia" stroke-width="0" />
<line x1="109.52" y1="84.801" x2="108.56" y2="85.281" stroke="fuchsia" stroke-width="0" />
<polyline points="110.48,86 108.56,86 109.76,86.48 108.56,87.199 110.48,87.199 " stroke="fuchsia" stroke-width="0" />
<polyline points="110.48,87.68 110.48,88.641 110,88.879 109.76,88.879 109.52,88.641 109.52,87.922 " stroke="fuchsia" stroke-width="0" />
<polyline points="109.52,88.641 109.28,88.879 108.8,88.879 108.56,88.641 108.56,87.68 " stroke="fuchsia" stroke-width="0" />
<line x1="108.56" y1="87.922" x2="110.48" y2="87.922" stroke="fuchsia" stroke-width="0" />
<polyline points="110,89.602 110.48,89.84 110.48,90.559 110,90.801 109.52,90.801 109.28,90.559 109.28,89.602 108.56,89.602 108.56,90.801 " stroke="fuchsia" stroke-width="0" />
<line x1="107.6" y1="93.922" x2="107.6" y2="82.641" stroke-width="0" />
<path d="M99.645,85.824 L99.64,86.015 L99.625,86.203 L99.602,86.389 L99.569,86.571 L99.528,86.75 L99.477,86.926 L99.419,87.099 L99.353,87.267 L99.278,87.431 L99.196,87.591 L99.107,87.746 L99.01,87.897 L98.907,88.042 L98.796,88.182 L98.68,88.317 L98.557,88.445 L98.428,88.568 L98.293,88.685 L98.153,88.795 L98.007,88.898 L97.857,88.994 L97.701,89.084 L97.541,89.166 L97.377,89.24 L97.209,89.306 L97.036,89.365 L96.86,89.414 L96.681,89.456 L96.498,89.488 L96.313,89.512 L96.124,89.526 L95.934,89.531 C93.887,89.531,92.223,87.871,92.223,85.824 C92.223,83.777,93.887,82.117,95.934,82.117 C97.98,82.117,99.645,83.777,99.645,85.824 Z " stroke-width="0" />
<line x1="98.48" y1="76.398" x2="101.84" y2="76.398" stroke-width="0" />
<line x1="104.48" y1="82.641" x2="104.48" y2="74.238" stroke-width="0" />
<line x1="107.6" y1="82.641" x2="104.48" y2="82.641" stroke-width="0" />
<line x1="97.039" y1="95.84" x2="100.4" y2="95.84" stroke-width="0" />
<polyline points="100.4,99.199 97.039,99.199 97.039,95.84 " stroke-width="0" />
<polyline points="104.48,100.4 104.48,93.922 107.6,93.922 " stroke-width="0" />
<line x1="100.4" y1="95.84" x2="100.4" y2="99.199" stroke-width="0" />
<line x1="104.48" y1="100.4" x2="107.6" y2="100.4" stroke-width="0" />
<polyline points="117.92,75.68 118.64,74.719 118.64,73.762 " stroke="fuchsia" stroke-width="0" />
<line x1="118.64" y1="74.719" x2="119.12" y2="75.68" stroke="fuchsia" stroke-width="0" />
<polyline points="119.84,73.762 119.84,75.68 120.32,74.48 121.04,75.68 121.04,73.762 " stroke="fuchsia" stroke-width="0" />
<polyline points="121.52,73.762 122.48,73.762 122.72,74.238 122.72,74.48 122.48,74.719 122,74.719 " stroke="fuchsia" stroke-width="0" />
<polyline points="122.48,74.719 122.72,74.961 122.72,75.441 122.48,75.68 121.52,75.68 " stroke="fuchsia" stroke-width="0" />
<line x1="122" y1="75.68" x2="122" y2="73.762" stroke="fuchsia" stroke-width="0" />
<polyline points="123.44,75.441 123.68,75.68 123.68,73.762 " stroke="fuchsia" stroke-width="0" />
<line x1="123.44" y1="73.762" x2="123.92" y2="73.762" stroke="fuchsia" stroke-width="0" />
<path d="M154.43,74.445 L154.43,74.566 L154.42,74.685 L154.4,74.803 L154.38,74.919 L154.36,75.032 L154.32,75.144 L154.29,75.253 L154.24,75.36 L154.2,75.464 L154.15,75.565 L154.09,75.664 L154.03,75.759 L153.96,75.852 L153.89,75.94 L153.82,76.026 L153.74,76.107 L153.66,76.185 L153.57,76.259 L153.48,76.329 L153.39,76.395 L153.3,76.456 L153.2,76.513 L153.1,76.565 L152.99,76.612 L152.89,76.654 L152.78,76.691 L152.67,76.723 L152.55,76.749 L152.44,76.77 L152.32,76.785 L152.2,76.794 L152.08,76.797 C150.78,76.797,149.72,75.742,149.72,74.445 C149.72,73.148,150.78,72.094,152.08,72.094 C153.38,72.094,154.43,73.148,154.43,74.445 Z " stroke-width="0" />
<path d="M152.08,69.473 C154.82,69.473,157.05,71.699,157.05,74.445 " stroke-width="0" />
<line x1="134.48" y1="73.281" x2="145.04" y2="73.281" stroke-width="0" />
<polyline points="145.04,70.16 134.48,70.16 134.48,73.281 " stroke-width="0" />
<line x1="145.04" y1="73.281" x2="145.04" y2="70.16" stroke-width="0" />
<polyline points="153.68,93.922 153.68,82.641 157.04,82.641 157.04,74.238 " stroke-width="0" />
<line x1="157.04" y1="93.922" x2="153.68" y2="93.922" stroke-width="0" />
<line x1="157.04" y1="100.4" x2="153.68" y2="100.4" stroke-width="0" />
<line x1="157.04" y1="100.4" x2="157.04" y2="93.922" stroke-width="0" />
<line x1="136.4" y1="133.76" x2="127.04" y2="133.76" stroke-width="0" />
<line x1="109.28" y1="122" x2="152" y2="122" stroke-width="0" />
<line x1="102.08" y1="128.48" x2="102.08" y2="134.96" stroke-width="0" />
<line x1="104" y1="124.64" x2="104" y2="129.2" stroke-width="0" />
<line x1="104" y1="134.96" x2="104" y2="124.64" stroke-width="0" />
<line x1="98.719" y1="134.96" x2="98.719" y2="128.48" stroke-width="0" />
<polyline points="96.559,129.2 96.559,124.64 96.559,134.96 " stroke-width="0" />
<polyline points="96.801,124.88 97.762,125.36 98.719,125.36 " stroke="fuchsia" stroke-width="0" />
<line x1="97.762" y1="125.36" x2="96.801" y2="126.08" stroke="fuchsia" stroke-width="0" />
<polyline points="98.719,126.8 96.801,126.8 98,127.28 96.801,128 98.719,128 " stroke="fuchsia" stroke-width="0" />
<polyline points="98.719,128.48 98.719,129.44 98.238,129.68 98,129.68 97.762,129.44 97.762,128.72 " stroke="fuchsia" stroke-width="0" />
<polyline points="97.762,129.44 97.281,129.68 97.039,129.68 96.801,129.44 96.801,128.48 " stroke="fuchsia" stroke-width="0" />
<line x1="96.801" y1="128.72" x2="98.719" y2="128.72" stroke="fuchsia" stroke-width="0" />
<polyline points="98,131.6 98,130.4 96.801,131.12 98.719,131.12 " stroke="fuchsia" stroke-width="0" />
<line x1="119.6" y1="133.76" x2="119.6" y2="125.84" stroke-width="0" />
<line x1="127.04" y1="125.84" x2="127.04" y2="133.76" stroke-width="0" />
<line x1="121.52" y1="124.88" x2="121.52" y2="129.68" stroke-width="0" />
<line x1="124.88" y1="129.68" x2="124.88" y2="124.88" stroke-width="0" />
<polyline points="91.762,133.04 90.801,132.32 89.84,132.32 " stroke="fuchsia" stroke-width="0" />
<line x1="90.801" y1="132.32" x2="91.762" y2="131.84" stroke="fuchsia" stroke-width="0" />
<polyline points="89.84,131.12 91.762,131.12 90.559,130.64 91.762,129.92 89.84,129.92 " stroke="fuchsia" stroke-width="0" />
<polyline points="89.84,129.44 89.84,128.48 90.32,128.24 90.559,128.24 90.801,128.48 90.801,128.96 " stroke="fuchsia" stroke-width="0" />
<polyline points="90.801,128.48 91.039,128.24 91.52,128.24 91.762,128.48 91.762,129.44 " stroke="fuchsia" stroke-width="0" />
<line x1="91.762" y1="128.96" x2="89.84" y2="128.96" stroke="fuchsia" stroke-width="0" />
<polyline points="90.801,127.52 90.801,126.56 90.559,126.32 90.32,126.32 89.84,126.56 89.84,127.28 90.32,127.52 91.039,127.52 91.762,127.04 91.762,126.56 " stroke="fuchsia" stroke-width="0" />
<line x1="92.719" y1="122" x2="92.719" y2="133.52" stroke-width="0" />
<path d="M111.81,117.03 L111.81,117.15 L111.8,117.27 L111.78,117.39 L111.76,117.5 L111.74,117.62 L111.71,117.73 L111.67,117.84 L111.63,117.95 L111.58,118.05 L111.53,118.15 L111.47,118.25 L111.41,118.35 L111.34,118.44 L111.27,118.53 L111.2,118.61 L111.12,118.69 L111.04,118.77 L110.96,118.85 L110.87,118.92 L110.77,118.98 L110.68,119.04 L110.58,119.1 L110.48,119.15 L110.37,119.2 L110.27,119.24 L110.16,119.28 L110.05,119.31 L109.93,119.34 L109.82,119.36 L109.7,119.37 L109.58,119.38 L109.46,119.38 C108.16,119.38,107.11,118.33,107.11,117.03 C107.11,115.73,108.16,114.68,109.46,114.68 C110.76,114.68,111.81,115.73,111.81,117.03 Z " stroke-width="0" />
<path d="M109.46,122 C106.71,122,104.48,119.78,104.48,117.03 " stroke-width="0" />
<line x1="104.48" y1="116.96" x2="104.48" y2="111.92" stroke-width="0" />
<path d="M98.285,109.33 L98.282,109.45 L98.273,109.57 L98.258,109.69 L98.237,109.81 L98.211,109.92 L98.179,110.03 L98.142,110.14 L98.1,110.25 L98.053,110.35 L98.001,110.45 L97.944,110.55 L97.883,110.65 L97.817,110.74 L97.747,110.83 L97.673,110.91 L97.595,110.99 L97.513,111.07 L97.428,111.15 L97.339,111.22 L97.247,111.28 L97.151,111.34 L97.052,111.4 L96.951,111.45 L96.847,111.5 L96.74,111.54 L96.63,111.58 L96.518,111.61 L96.404,111.64 L96.288,111.66 L96.171,111.67 L96.051,111.68 L95.93,111.68 C94.633,111.68,93.578,110.63,93.578,109.33 C93.578,108.04,94.633,106.98,95.93,106.98 C97.23,106.98,98.285,108.04,98.285,109.33 Z " stroke-width="0" />
<line x1="107.6" y1="111.92" x2="104.48" y2="111.92" stroke-width="0" />
<line x1="98.719" y1="128.48" x2="102.08" y2="128.48" stroke-width="0" />
<line x1="97.52" y1="123.68" x2="103.28" y2="123.68" stroke-width="0" />
<line x1="96.559" y1="124.64" x2="97.52" y2="123.68" stroke-width="0" />
<polygon points="103.28,123.68 104,124.64 " stroke-width="0" />
<line x1="119.6" y1="125.84" x2="120.56" y2="124.88" stroke-width="0" />
<line x1="121.52" y1="124.88" x2="120.56" y2="124.88" stroke-width="0" />
<line x1="126.08" y1="124.88" x2="127.04" y2="125.84" stroke-width="0" />
<line x1="124.88" y1="124.88" x2="126.08" y2="124.88" stroke-width="0" />
<line x1="110.24" y1="130.4" x2="106.88" y2="130.4" stroke-width="0" />
<polyline points="97.039,142.88 97.039,139.52 101.84,139.52 " stroke-width="0" />
<line x1="96.559" y1="134.96" x2="98.719" y2="134.96" stroke-width="0" />
<line x1="92.719" y1="136.64" x2="92.719" y2="140" stroke-width="0" />
<polyline points="107.12,131.6 108.08,132.08 109.04,132.08 " stroke="fuchsia" stroke-width="0" />
<line x1="108.08" y1="132.08" x2="107.12" y2="132.8" stroke="fuchsia" stroke-width="0" />
<polyline points="109.04,133.28 107.12,133.28 108.32,134 107.12,134.48 109.04,134.48 " stroke="fuchsia" stroke-width="0" />
<polyline points="109.04,135.2 109.04,135.92 108.8,136.4 108.32,136.4 108.08,135.92 108.08,135.44 " stroke="fuchsia" stroke-width="0" />
<polyline points="108.08,135.92 107.84,136.4 107.6,136.4 107.12,135.92 107.12,135.2 " stroke="fuchsia" stroke-width="0" />
<line x1="107.12" y1="135.44" x2="109.04" y2="135.44" stroke="fuchsia" stroke-width="0" />
<polyline points="107.6,136.88 107.12,137.12 107.12,137.84 107.6,138.08 107.84,138.08 108.08,137.84 108.08,137.6 " stroke="fuchsia" stroke-width="0" />
<polyline points="108.08,137.84 108.32,138.08 108.8,138.08 109.04,137.84 109.04,137.12 108.8,136.88 " stroke="fuchsia" stroke-width="0" />
<path d="M107.05,134.73 C107.05,137.48,104.82,139.7,102.07,139.7 " stroke-width="0" />
<line x1="102.08" y1="134.96" x2="104" y2="134.96" stroke-width="0" />
<line x1="106.88" y1="130.4" x2="106.88" y2="134.72" stroke-width="0" />
<line x1="97.039" y1="154.16" x2="100.16" y2="154.16" stroke-width="0" />
<line x1="100.16" y1="142.88" x2="97.039" y2="142.88" stroke-width="0" />
<polyline points="100.64,142.88 101.6,143.36 102.32,143.36 " stroke="fuchsia" stroke-width="0" />
<line x1="101.6" y1="143.36" x2="100.64" y2="144.08" stroke="fuchsia" stroke-width="0" />
<polyline points="102.32,144.56 100.64,144.56 101.84,145.28 100.64,145.76 102.32,145.76 " stroke="fuchsia" stroke-width="0" />
<polyline points="102.32,146.48 102.32,147.44 102.08,147.68 101.84,147.68 101.6,147.44 101.6,146.72 " stroke="fuchsia" stroke-width="0" />
<polyline points="101.6,147.44 101.12,147.68 100.88,147.68 100.64,147.44 100.64,146.48 " stroke="fuchsia" stroke-width="0" />
<line x1="100.64" y1="146.72" x2="102.32" y2="146.72" stroke="fuchsia" stroke-width="0" />
<polyline points="101.6,148.16 101.6,149.12 101.84,149.36 102.08,149.36 102.32,149.12 102.32,148.64 102.08,148.16 101.12,148.16 100.64,148.88 100.64,149.12 " stroke="fuchsia" stroke-width="0" />
<line x1="100.16" y1="154.16" x2="100.16" y2="142.88" stroke-width="0" />
<polyline points="119.6,133.76 110.24,133.76 110.24,130.4 " stroke-width="0" />
<polyline points="122.72,130.16 123.44,130.88 124.4,130.88 " stroke="fuchsia" stroke-width="0" />
<line x1="123.44" y1="130.88" x2="122.72" y2="131.36" stroke="fuchsia" stroke-width="0" />
<polyline points="124.4,132.08 122.72,132.08 123.92,132.56 122.72,133.28 124.4,133.28 " stroke="fuchsia" stroke-width="0" />
<polyline points="124.4,133.76 124.4,134.72 124.16,134.96 123.92,134.96 123.44,134.72 123.44,134 " stroke="fuchsia" stroke-width="0" />
<polyline points="123.44,134.72 123.2,134.96 122.96,134.96 122.72,134.72 122.72,133.76 " stroke="fuchsia" stroke-width="0" />
<line x1="122.72" y1="134" x2="124.4" y2="134" stroke="fuchsia" stroke-width="0" />
<polyline points="123.92,136.88 123.92,135.68 122.72,136.4 124.4,136.4 " stroke="fuchsia" stroke-width="0" />
<line x1="121.52" y1="129.68" x2="124.88" y2="129.68" stroke-width="0" />
<line x1="157.04" y1="116.96" x2="157.04" y2="111.92" stroke-width="0" />
<path d="M154.43,117.03 L154.43,117.15 L154.42,117.27 L154.4,117.39 L154.38,117.5 L154.36,117.62 L154.32,117.73 L154.29,117.84 L154.24,117.95 L154.2,118.05 L154.15,118.15 L154.09,118.25 L154.03,118.35 L153.96,118.44 L153.89,118.53 L153.82,118.61 L153.74,118.69 L153.66,118.77 L153.57,118.85 L153.48,118.92 L153.39,118.98 L153.3,119.04 L153.2,119.1 L153.1,119.15 L152.99,119.2 L152.89,119.24 L152.78,119.28 L152.67,119.31 L152.55,119.34 L152.44,119.36 L152.32,119.37 L152.2,119.38 L152.08,119.38 C150.78,119.38,149.72,118.33,149.72,117.03 C149.72,115.73,150.78,114.68,152.08,114.68 C153.38,114.68,154.43,115.73,154.43,117.03 Z " stroke-width="0" />
<line x1="153.68" y1="111.92" x2="157.04" y2="111.92" stroke-width="0" />
<path d="M157.05,117.03 C157.05,119.78,154.82,122,152.08,122 " stroke-width="0" />
<line x1="149.6" y1="154.16" x2="146.24" y2="154.16" stroke-width="0" />
<line x1="146.24" y1="142.88" x2="149.6" y2="142.88" stroke-width="0" />
<line x1="149.6" y1="139.52" x2="144.56" y2="139.52" stroke-width="0" />
<polyline points="139.52,130.4 136.4,130.4 136.4,133.76 " stroke-width="0" />
<path d="M144.69,139.7 C141.94,139.7,139.71,137.48,139.71,134.73 " stroke-width="0" />
<path d="M144.69,139.7 C141.94,139.7,139.71,137.48,139.71,134.73 " stroke-width="0" />
<line x1="139.52" y1="134.72" x2="139.52" y2="130.4" stroke-width="0" />
<polyline points="143.6,144.8 144.56,145.52 145.52,145.52 " stroke="fuchsia" stroke-width="0" />
<line x1="144.56" y1="145.52" x2="143.6" y2="146" stroke="fuchsia" stroke-width="0" />
<polyline points="145.52,146.72 143.6,146.72 144.8,147.2 143.6,147.92 145.52,147.92 " stroke="fuchsia" stroke-width="0" />
<polyline points="145.52,148.4 145.52,149.36 145.28,149.6 144.8,149.6 144.56,149.36 144.56,148.88 " stroke="fuchsia" stroke-width="0" />
<polyline points="144.56,149.36 144.32,149.6 143.84,149.6 143.6,149.36 143.6,148.4 " stroke="fuchsia" stroke-width="0" />
<line x1="143.6" y1="148.88" x2="145.52" y2="148.88" stroke="fuchsia" stroke-width="0" />
<polyline points="144.56,150.32 144.56,151.28 144.8,151.52 145.28,151.52 145.52,151.28 145.52,150.56 145.28,150.32 144.32,150.32 143.6,150.8 143.6,151.28 " stroke="fuchsia" stroke-width="0" />
<line x1="146.24" y1="154.16" x2="146.24" y2="142.88" stroke-width="0" />
<line x1="149.6" y1="142.88" x2="149.6" y2="139.52" stroke-width="0" />
<line x1="92.719" y1="166.16" x2="92.719" y2="177.44" stroke-width="0" />
<line x1="105.68" y1="157.52" x2="97.039" y2="157.52" stroke-width="0" />
<line x1="140.72" y1="157.52" x2="149.6" y2="157.52" stroke-width="0" />
</g>
</svg>
