M48
;DRILL file {PCBNEW (2006-08-28)} date 4/6/2007-04:54:57
;FORMAT={2:4 / absolute / inches / suppress trailing zeros}
R,T
VER,1
FMAT,2
INCH,LZ
TCST,OFF
ICI,OFF
ATC,ON
T1C0.025
T2C0.032
T3C0.040
T4C0.080
T5C0.120
T6C0.159
%
M47
G05
M72
T1
X0616Y0308
T2
X0606Y0413
X0616Y0413
X058Y0413
X059Y0413
X0477Y0262
X0487Y0262
X0497Y0262
X0507Y0262
X0517Y0262
X0527Y0262
X0537Y0262
X0547Y0262
X0557Y0262
X0567Y0262
X0577Y0262
X0587Y0262
X0501Y0338
X0511Y0338
X0511Y0328
X0541Y0349
X0541Y0359
X0563Y0342
X0563Y0352
X0564Y0371
X0564Y0381
X0548Y0403
X0548Y0413
X0507Y0372
X0537Y0372
X0586Y0308
X0586Y0318
X0586Y0328
X0586Y0338
X0586Y0348
X0586Y0358
X0586Y0368
X0586Y0378
X0616Y0378
X0616Y0368
X0616Y0358
X0616Y0348
X0616Y0338
X0616Y0328
X0616Y0318
X0616Y0308
X0562Y0308
X0562Y0328
X054Y0319
X054Y0329
T3
X064Y03175
X064Y03285
X064Y0339
X064Y035
X064Y0361
X065Y0323
X065Y0334
X065Y03445
X065Y03555
T4
X0455Y0412
X0475Y0412
X0495Y0412
X0515Y0412
X0462Y0326
X0428Y0327
T5
X0645Y0389
X0645Y0289
T6
X0414Y026
X0664Y026
X0664Y0418
X0414Y0418
T0
M30
