G04 (Genere par PCBNEW (2007-02-16)) le 6/5/2007-15:43:11*
G01*
G70*
G90*
%MOIN*%
G04 Gerber Fmt 3.4, Leading zero omitted, Abs format*
%FSLAX34Y34*%
G04 APERTURE LIST*
%ADD10C,0.015000*%
%ADD11R,0.055000X0.055000*%
%ADD12C,0.055000*%
%ADD13R,0.080000X0.080000*%
%ADD14C,0.080000*%
%ADD15C,0.150000*%
%ADD16R,0.150000X0.150000*%
%ADD17C,0.060000*%
%ADD18R,0.055000X0.080000*%
%ADD19C,0.040000*%
%ADD20C,0.080000*%
%ADD21C,0.025000*%
%ADD22C,0.010000*%
%ADD23C,0.012000*%
%ADD24C,0.005000*%
%ADD25C,0.001000*%
%ADD26C,0.008000*%
G04 APERTURE END LIST*
G54D10*
X39200Y-24400D02*
X39200Y-42600D01*
X67600Y-24400D02*
X67600Y-42600D01*
X65000Y-26200D02*
X64919Y-26500D01*
X64919Y-26500D02*
X64700Y-26719D01*
X64700Y-26719D02*
X64400Y-26800D01*
X64400Y-26800D02*
X64100Y-26719D01*
X64100Y-26719D02*
X63881Y-26500D01*
X63881Y-26500D02*
X63800Y-26200D01*
X63800Y-26200D02*
X63881Y-25900D01*
X63881Y-25900D02*
X64100Y-25681D01*
X64100Y-25681D02*
X64400Y-25600D01*
X64400Y-25600D02*
X64700Y-25681D01*
X64700Y-25681D02*
X64919Y-25900D01*
X64919Y-25900D02*
X65000Y-26200D01*
X41600Y-26200D02*
X41519Y-26500D01*
X41519Y-26500D02*
X41300Y-26719D01*
X41300Y-26719D02*
X41000Y-26800D01*
X41000Y-26800D02*
X40700Y-26719D01*
X40700Y-26719D02*
X40481Y-26500D01*
X40481Y-26500D02*
X40400Y-26200D01*
X40400Y-26200D02*
X40481Y-25900D01*
X40481Y-25900D02*
X40700Y-25681D01*
X40700Y-25681D02*
X41000Y-25600D01*
X41000Y-25600D02*
X41300Y-25681D01*
X41300Y-25681D02*
X41519Y-25900D01*
X41519Y-25900D02*
X41600Y-26200D01*
X39200Y-24400D02*
X67600Y-24400D01*
X39200Y-42600D02*
X67600Y-42600D01*
X67600Y-42600D02*
X67500Y-42600D01*
G54D11*
X47700Y-26200D03*
G54D12*
X48700Y-26200D03*
X49700Y-26200D03*
X50700Y-26200D03*
X51700Y-26200D03*
X52700Y-26200D03*
X53700Y-26200D03*
X54700Y-26200D03*
X55700Y-26200D03*
X56700Y-26200D03*
X57700Y-26200D03*
X58700Y-26200D03*
G54D13*
X50100Y-33800D03*
G54D14*
X51100Y-33800D03*
X51100Y-32800D03*
G54D13*
X56400Y-40900D03*
G54D14*
X57400Y-40900D03*
G54D13*
X59300Y-40900D03*
G54D14*
X60300Y-40900D03*
G54D15*
X46200Y-32600D03*
G54D16*
X42800Y-32700D03*
G54D13*
X54100Y-34900D03*
G54D14*
X54100Y-35900D03*
G54D13*
X56300Y-34200D03*
G54D14*
X56300Y-35200D03*
G54D13*
X56400Y-37100D03*
G54D14*
X56400Y-38100D03*
G54D13*
X53750Y-39900D03*
G54D14*
X53750Y-40900D03*
G54D16*
X42550Y-40550D03*
G54D15*
X44550Y-40550D03*
X46550Y-40550D03*
X48550Y-40550D03*
G54D14*
X50750Y-37550D03*
X53750Y-37550D03*
G54D15*
X64500Y-38900D03*
X64500Y-28900D03*
G54D13*
X64000Y-31750D03*
G54D17*
X64000Y-32850D03*
X64000Y-33900D03*
X64000Y-35000D03*
G54D14*
X64000Y-36100D03*
X65000Y-32300D03*
G54D17*
X65000Y-33400D03*
X65000Y-34450D03*
X65000Y-35550D03*
G54D13*
X58600Y-30800D03*
G54D14*
X58600Y-31800D03*
X58600Y-32800D03*
X58600Y-33800D03*
X58600Y-34800D03*
X58600Y-35800D03*
X58600Y-36800D03*
X58600Y-37800D03*
X61600Y-37800D03*
X61600Y-36800D03*
X61600Y-35800D03*
X61600Y-34800D03*
X61600Y-33800D03*
X61600Y-32800D03*
X61600Y-31800D03*
X61600Y-30800D03*
G54D18*
X56200Y-30800D03*
G54D14*
X56200Y-32800D03*
G54D11*
X54000Y-31900D03*
G54D12*
X54000Y-32900D03*
G54D14*
X63500Y-41000D03*
X61600Y-30800D03*
G54D20*
X43900Y-30100D02*
X42788Y-31212D01*
X50500Y-30100D02*
X43900Y-30100D01*
X53900Y-26700D02*
X50500Y-30100D01*
X53900Y-26400D02*
X53900Y-26700D01*
X53700Y-26200D02*
X53900Y-26400D01*
X54700Y-26200D02*
X53700Y-26200D01*
X55700Y-26200D02*
X54700Y-26200D01*
X56700Y-26200D02*
X55700Y-26200D01*
X57700Y-26200D02*
X56700Y-26200D01*
X58700Y-26200D02*
X57700Y-26200D01*
G54D19*
X42788Y-33732D02*
X45670Y-36614D01*
X45670Y-36614D02*
X47286Y-36614D01*
G54D20*
X42550Y-40550D02*
X42550Y-33803D01*
G54D19*
X47286Y-36614D02*
X50100Y-33800D01*
X42800Y-32700D02*
X42788Y-33732D01*
G54D20*
X42550Y-33803D02*
X42800Y-32700D01*
X42788Y-31212D02*
X42800Y-32700D01*
G54D19*
X56400Y-40900D02*
X56400Y-40200D01*
X59300Y-40100D02*
X59300Y-40900D01*
X58700Y-39500D02*
X59300Y-40100D01*
X57100Y-39500D02*
X58700Y-39500D01*
X56400Y-40200D02*
X57100Y-39500D01*
X59300Y-40900D02*
X59300Y-40300D01*
X63500Y-41000D02*
X63500Y-41000D01*
X61500Y-39500D02*
X63500Y-41000D01*
X60100Y-39500D02*
X61500Y-39500D01*
X59300Y-40300D02*
X60100Y-39500D01*
G54D22*
X66800Y-25200D02*
X66800Y-41800D01*
X66700Y-25200D02*
X66700Y-41800D01*
X66600Y-25200D02*
X66600Y-41800D01*
X66500Y-25200D02*
X66500Y-41800D01*
X66400Y-25200D02*
X66400Y-41800D01*
X66300Y-25200D02*
X66300Y-41800D01*
X66200Y-25200D02*
X66200Y-41800D01*
X66100Y-25200D02*
X66100Y-41800D01*
X66000Y-32700D02*
X66000Y-41800D01*
X66000Y-25200D02*
X66000Y-31900D01*
X65900Y-35900D02*
X65900Y-41800D01*
X65900Y-34800D02*
X65900Y-35200D01*
X65900Y-33800D02*
X65900Y-34100D01*
X65900Y-32900D02*
X65900Y-33000D01*
X65900Y-25200D02*
X65900Y-31700D01*
X65800Y-39500D02*
X65800Y-41800D01*
X65800Y-36100D02*
X65800Y-38300D01*
X65800Y-29500D02*
X65800Y-31600D01*
X65800Y-25200D02*
X65800Y-28300D01*
X65700Y-39700D02*
X65700Y-41800D01*
X65700Y-36200D02*
X65700Y-38100D01*
X65700Y-29700D02*
X65700Y-31500D01*
X65700Y-26400D02*
X65700Y-28100D01*
X65700Y-25200D02*
X65700Y-26000D01*
X65600Y-39800D02*
X65600Y-41800D01*
X65600Y-36300D02*
X65600Y-38000D01*
X65600Y-29800D02*
X65600Y-31400D01*
X65600Y-26700D02*
X65600Y-28000D01*
X65600Y-25200D02*
X65600Y-25700D01*
X65500Y-39900D02*
X65500Y-41800D01*
X65500Y-36400D02*
X65500Y-37900D01*
X65500Y-29900D02*
X65500Y-31300D01*
X65500Y-26800D02*
X65500Y-27900D01*
X65500Y-25200D02*
X65500Y-25600D01*
X65400Y-40000D02*
X65400Y-41800D01*
X65400Y-36500D02*
X65400Y-37800D01*
X65400Y-30000D02*
X65400Y-31300D01*
X65400Y-26900D02*
X65400Y-27800D01*
X65400Y-25200D02*
X65400Y-25500D01*
X65300Y-40100D02*
X65300Y-41800D01*
X65300Y-36500D02*
X65300Y-37700D01*
X65300Y-30100D02*
X65300Y-31200D01*
X65300Y-27100D02*
X65300Y-27700D01*
X65300Y-25200D02*
X65300Y-25300D01*
X65200Y-40200D02*
X65200Y-41800D01*
X65200Y-36500D02*
X65200Y-37600D01*
X65200Y-30200D02*
X65200Y-31200D01*
X65200Y-27200D02*
X65200Y-27600D01*
X65100Y-40200D02*
X65100Y-41800D01*
X65100Y-36500D02*
X65100Y-37600D01*
X65100Y-30200D02*
X65100Y-31200D01*
X65100Y-27300D02*
X65100Y-27600D01*
X65000Y-40300D02*
X65000Y-41800D01*
X65000Y-36500D02*
X65000Y-37500D01*
X65000Y-30300D02*
X65000Y-30600D01*
X65000Y-27400D02*
X65000Y-27500D01*
X64900Y-40300D02*
X64900Y-41800D01*
X64900Y-36700D02*
X64900Y-37500D01*
X64900Y-30300D02*
X64900Y-30600D01*
X64800Y-40300D02*
X64800Y-41800D01*
X64800Y-36800D02*
X64800Y-37500D01*
X64800Y-30300D02*
X64800Y-30600D01*
X64700Y-40300D02*
X64700Y-41800D01*
X64700Y-36900D02*
X64700Y-37500D01*
X64700Y-30300D02*
X64700Y-30600D01*
X64600Y-40300D02*
X64600Y-41800D01*
X64600Y-37000D02*
X64600Y-37500D01*
X64600Y-30300D02*
X64600Y-30600D01*
X64500Y-41400D02*
X64500Y-41800D01*
X64500Y-40300D02*
X64500Y-40600D01*
X64500Y-37100D02*
X64500Y-37500D01*
X64500Y-30300D02*
X64500Y-30600D01*
X64400Y-41600D02*
X64400Y-41800D01*
X64400Y-40300D02*
X64400Y-40400D01*
X64400Y-37100D02*
X64400Y-37500D01*
X64400Y-30300D02*
X64400Y-30600D01*
X64300Y-41700D02*
X64300Y-41800D01*
X64300Y-37200D02*
X64300Y-37500D01*
X64300Y-30300D02*
X64300Y-30600D01*
X64200Y-37200D02*
X64200Y-37500D01*
X64200Y-30300D02*
X64200Y-30600D01*
X64100Y-37200D02*
X64100Y-37500D01*
X64100Y-30300D02*
X64100Y-30600D01*
X64100Y-27400D02*
X64100Y-27500D01*
X64000Y-37200D02*
X64000Y-37500D01*
X64000Y-30300D02*
X64000Y-30600D01*
X64000Y-27400D02*
X64000Y-27500D01*
X63900Y-37200D02*
X63900Y-37600D01*
X63900Y-30200D02*
X63900Y-30600D01*
X63900Y-27400D02*
X63900Y-27600D01*
X63800Y-37200D02*
X63800Y-37600D01*
X63800Y-30200D02*
X63800Y-30600D01*
X63800Y-27300D02*
X63800Y-27600D01*
X63700Y-37200D02*
X63700Y-37700D01*
X63700Y-30100D02*
X63700Y-30600D01*
X63700Y-27300D02*
X63700Y-27700D01*
X63600Y-37100D02*
X63600Y-37800D01*
X63600Y-30000D02*
X63600Y-30600D01*
X63600Y-27300D02*
X63600Y-27800D01*
X63500Y-37100D02*
X63500Y-37900D01*
X63500Y-29900D02*
X63500Y-30600D01*
X63500Y-27200D02*
X63500Y-27900D01*
X63400Y-37000D02*
X63400Y-38000D01*
X63400Y-29800D02*
X63400Y-30600D01*
X63400Y-27100D02*
X63400Y-28000D01*
X63400Y-25200D02*
X63400Y-25300D01*
X63300Y-36900D02*
X63300Y-38100D01*
X63300Y-29700D02*
X63300Y-30600D01*
X63300Y-27000D02*
X63300Y-28100D01*
X63300Y-25200D02*
X63300Y-25400D01*
X63200Y-39500D02*
X63200Y-39700D01*
X63200Y-36800D02*
X63200Y-38300D01*
X63200Y-29500D02*
X63200Y-30600D01*
X63200Y-26700D02*
X63200Y-28300D01*
X63200Y-25200D02*
X63200Y-25700D01*
X63100Y-36700D02*
X63100Y-39600D01*
X63100Y-35400D02*
X63100Y-35500D01*
X63100Y-34300D02*
X63100Y-34600D01*
X63100Y-33200D02*
X63100Y-33500D01*
X63100Y-25200D02*
X63100Y-30600D01*
X63000Y-36500D02*
X63000Y-39500D01*
X63000Y-32900D02*
X63000Y-35700D01*
X63000Y-25200D02*
X63000Y-30600D01*
X62900Y-25200D02*
X62900Y-39400D01*
X62800Y-25200D02*
X62800Y-39400D01*
X62700Y-25200D02*
X62700Y-39300D01*
X62600Y-38200D02*
X62600Y-39200D01*
X62600Y-37200D02*
X62600Y-37400D01*
X62600Y-36200D02*
X62600Y-36400D01*
X62600Y-35200D02*
X62600Y-35400D01*
X62600Y-34200D02*
X62600Y-34400D01*
X62600Y-33200D02*
X62600Y-33400D01*
X62600Y-32200D02*
X62600Y-32400D01*
X62600Y-31200D02*
X62600Y-31400D01*
X62600Y-25200D02*
X62600Y-30400D01*
X62500Y-38400D02*
X62500Y-39100D01*
X62500Y-25200D02*
X62500Y-30200D01*
X62400Y-38500D02*
X62400Y-39100D01*
X62400Y-25200D02*
X62400Y-30100D01*
X62300Y-38600D02*
X62300Y-39000D01*
X62300Y-25200D02*
X62300Y-30000D01*
X62200Y-38700D02*
X62200Y-38900D01*
X62200Y-25200D02*
X62200Y-29900D01*
X62100Y-25200D02*
X62100Y-29800D01*
X62000Y-25200D02*
X62000Y-29800D01*
X61900Y-25200D02*
X61900Y-29700D01*
X61800Y-25200D02*
X61800Y-29700D01*
X61700Y-25200D02*
X61700Y-29700D01*
X61600Y-25200D02*
X61600Y-29700D01*
X61500Y-25200D02*
X61500Y-29700D01*
X61400Y-25200D02*
X61400Y-29700D01*
X61300Y-25200D02*
X61300Y-29700D01*
X61200Y-25200D02*
X61200Y-29800D01*
X61100Y-25200D02*
X61100Y-29800D01*
X61000Y-25200D02*
X61000Y-29900D01*
X60900Y-25200D02*
X60900Y-30000D01*
X60800Y-38500D02*
X60800Y-38600D01*
X60800Y-25200D02*
X60800Y-30100D01*
X60700Y-38400D02*
X60700Y-38600D01*
X60700Y-25200D02*
X60700Y-30200D01*
X60600Y-38200D02*
X60600Y-38600D01*
X60600Y-37200D02*
X60600Y-37400D01*
X60600Y-36200D02*
X60600Y-36400D01*
X60600Y-35200D02*
X60600Y-35400D01*
X60600Y-34200D02*
X60600Y-34400D01*
X60600Y-33200D02*
X60600Y-33400D01*
X60600Y-32200D02*
X60600Y-32400D01*
X60600Y-31200D02*
X60600Y-31400D01*
X60600Y-25200D02*
X60600Y-30400D01*
X60500Y-25200D02*
X60500Y-38600D01*
X60400Y-25200D02*
X60400Y-38600D01*
X60300Y-25200D02*
X60300Y-38600D01*
X60200Y-25200D02*
X60200Y-38600D01*
X60100Y-25200D02*
X60100Y-38600D01*
X60000Y-25200D02*
X60000Y-38600D01*
X59900Y-25200D02*
X59900Y-38600D01*
X59800Y-25200D02*
X59800Y-38700D01*
X59700Y-25200D02*
X59700Y-38700D01*
X59600Y-38200D02*
X59600Y-38800D01*
X59600Y-37200D02*
X59600Y-37400D01*
X59600Y-36200D02*
X59600Y-36400D01*
X59600Y-35200D02*
X59600Y-35400D01*
X59600Y-34200D02*
X59600Y-34400D01*
X59600Y-33200D02*
X59600Y-33400D01*
X59600Y-32200D02*
X59600Y-32400D01*
X59600Y-25200D02*
X59600Y-29700D01*
X59500Y-38400D02*
X59500Y-38800D01*
X59500Y-25200D02*
X59500Y-29700D01*
X59400Y-38500D02*
X59400Y-38900D01*
X59400Y-25200D02*
X59400Y-29700D01*
X59300Y-38600D02*
X59300Y-38800D01*
X59300Y-25200D02*
X59300Y-29700D01*
X59200Y-38700D02*
X59200Y-38800D01*
X59200Y-25200D02*
X59200Y-29700D01*
X59100Y-25200D02*
X59100Y-29700D01*
X59000Y-25200D02*
X59000Y-29700D01*
X58900Y-25200D02*
X58900Y-29700D01*
X58800Y-25200D02*
X58800Y-29700D01*
X58700Y-25200D02*
X58700Y-29700D01*
X58600Y-25200D02*
X58600Y-29700D01*
X58500Y-25200D02*
X58500Y-29700D01*
X58400Y-25200D02*
X58400Y-29700D01*
X58300Y-25200D02*
X58300Y-29700D01*
X58200Y-25200D02*
X58200Y-29700D01*
X58100Y-25200D02*
X58100Y-29700D01*
X58000Y-25200D02*
X58000Y-29700D01*
X57900Y-25200D02*
X57900Y-29700D01*
X57800Y-38500D02*
X57800Y-38600D01*
X57800Y-25200D02*
X57800Y-29700D01*
X57700Y-38400D02*
X57700Y-38600D01*
X57700Y-25200D02*
X57700Y-29700D01*
X57600Y-38200D02*
X57600Y-38600D01*
X57600Y-37200D02*
X57600Y-37400D01*
X57600Y-36200D02*
X57600Y-36400D01*
X57600Y-35200D02*
X57600Y-35400D01*
X57600Y-34200D02*
X57600Y-34400D01*
X57600Y-33200D02*
X57600Y-33400D01*
X57600Y-32200D02*
X57600Y-32400D01*
X57600Y-25200D02*
X57600Y-29700D01*
X57500Y-25200D02*
X57500Y-38600D01*
X57400Y-38500D02*
X57400Y-38600D01*
X57400Y-25200D02*
X57400Y-36000D01*
X57300Y-35600D02*
X57300Y-36000D01*
X57300Y-25200D02*
X57300Y-33100D01*
X57200Y-35800D02*
X57200Y-36000D01*
X57200Y-25200D02*
X57200Y-32400D01*
X57100Y-35900D02*
X57100Y-36000D01*
X57100Y-31900D02*
X57100Y-32200D01*
X57100Y-25200D02*
X57100Y-29700D01*
X57000Y-31900D02*
X57000Y-32100D01*
X57000Y-25200D02*
X57000Y-29700D01*
X56900Y-31900D02*
X56900Y-32000D01*
X56900Y-25200D02*
X56900Y-29700D01*
X56800Y-25200D02*
X56800Y-29700D01*
X56700Y-25200D02*
X56700Y-29700D01*
X56600Y-25200D02*
X56600Y-29700D01*
X56500Y-25200D02*
X56500Y-29700D01*
X56400Y-25200D02*
X56400Y-29700D01*
X56300Y-25200D02*
X56300Y-29700D01*
X56200Y-25200D02*
X56200Y-29700D01*
X56100Y-25200D02*
X56100Y-29700D01*
X56000Y-39100D02*
X56000Y-39300D01*
X56000Y-25200D02*
X56000Y-29700D01*
X55900Y-39100D02*
X55900Y-39400D01*
X55900Y-25200D02*
X55900Y-29700D01*
X55800Y-39000D02*
X55800Y-39500D01*
X55800Y-25200D02*
X55800Y-29700D01*
X55700Y-38900D02*
X55700Y-39700D01*
X55700Y-25200D02*
X55700Y-29700D01*
X55600Y-38800D02*
X55600Y-39800D01*
X55600Y-25200D02*
X55600Y-29700D01*
X55500Y-38700D02*
X55500Y-39800D01*
X55500Y-35900D02*
X55500Y-36000D01*
X55500Y-31900D02*
X55500Y-32000D01*
X55500Y-25200D02*
X55500Y-29700D01*
X55400Y-38500D02*
X55400Y-39800D01*
X55400Y-35800D02*
X55400Y-36000D01*
X55400Y-31900D02*
X55400Y-32100D01*
X55400Y-25200D02*
X55400Y-29700D01*
X55300Y-35600D02*
X55300Y-41800D01*
X55300Y-31900D02*
X55300Y-32200D01*
X55300Y-25200D02*
X55300Y-29700D01*
X55200Y-33200D02*
X55200Y-41800D01*
X55200Y-25200D02*
X55200Y-32400D01*
X55100Y-36300D02*
X55100Y-41800D01*
X55100Y-25200D02*
X55100Y-33800D01*
X55000Y-36500D02*
X55000Y-41800D01*
X55000Y-25200D02*
X55000Y-33800D01*
X54900Y-36600D02*
X54900Y-41800D01*
X54900Y-33200D02*
X54900Y-33800D01*
X54900Y-25200D02*
X54900Y-30900D01*
X54800Y-41000D02*
X54800Y-41800D01*
X54800Y-36700D02*
X54800Y-38800D01*
X54800Y-33400D02*
X54800Y-33800D01*
X54800Y-25200D02*
X54800Y-30900D01*
X54700Y-41400D02*
X54700Y-41800D01*
X54700Y-38000D02*
X54700Y-38800D01*
X54700Y-36800D02*
X54700Y-37100D01*
X54700Y-33600D02*
X54700Y-33800D01*
X54700Y-25200D02*
X54700Y-30900D01*
X54600Y-41600D02*
X54600Y-41800D01*
X54600Y-38200D02*
X54600Y-38800D01*
X54600Y-33700D02*
X54600Y-33800D01*
X54600Y-25200D02*
X54600Y-30900D01*
X54500Y-41700D02*
X54500Y-41800D01*
X54500Y-38300D02*
X54500Y-38800D01*
X54500Y-33700D02*
X54500Y-33800D01*
X54500Y-25200D02*
X54500Y-30900D01*
X54400Y-38400D02*
X54400Y-38800D01*
X54400Y-25200D02*
X54400Y-30900D01*
X54300Y-38500D02*
X54300Y-38800D01*
X54300Y-25200D02*
X54300Y-30900D01*
X54200Y-38500D02*
X54200Y-38800D01*
X54200Y-25200D02*
X54200Y-30900D01*
X54100Y-38600D02*
X54100Y-38800D01*
X54100Y-25200D02*
X54100Y-30900D01*
X54000Y-38600D02*
X54000Y-38800D01*
X54000Y-25200D02*
X54000Y-30900D01*
X53900Y-38600D02*
X53900Y-38800D01*
X53900Y-25200D02*
X53900Y-30900D01*
X53800Y-38600D02*
X53800Y-38800D01*
X53800Y-25200D02*
X53800Y-30900D01*
X53700Y-38600D02*
X53700Y-38800D01*
X53700Y-25200D02*
X53700Y-30900D01*
X53600Y-38600D02*
X53600Y-38800D01*
X53600Y-26500D02*
X53600Y-30900D01*
X53600Y-25200D02*
X53600Y-25900D01*
X53500Y-38600D02*
X53500Y-38800D01*
X53500Y-33700D02*
X53500Y-33800D01*
X53500Y-26700D02*
X53500Y-30900D01*
X53500Y-25200D02*
X53500Y-25700D01*
X53400Y-38600D02*
X53400Y-38800D01*
X53400Y-33700D02*
X53400Y-33800D01*
X53400Y-26900D02*
X53400Y-30900D01*
X53400Y-25200D02*
X53400Y-25500D01*
X53300Y-38500D02*
X53300Y-38800D01*
X53300Y-33600D02*
X53300Y-33800D01*
X53300Y-27000D02*
X53300Y-30900D01*
X53300Y-25200D02*
X53300Y-25400D01*
X53200Y-38500D02*
X53200Y-38800D01*
X53200Y-36500D02*
X53200Y-36600D01*
X53200Y-33400D02*
X53200Y-33800D01*
X53200Y-27000D02*
X53200Y-30900D01*
X53200Y-25200D02*
X53200Y-25400D01*
X53100Y-38400D02*
X53100Y-38800D01*
X53100Y-36300D02*
X53100Y-36700D01*
X53100Y-33200D02*
X53100Y-33800D01*
X53100Y-27100D02*
X53100Y-30900D01*
X53100Y-25200D02*
X53100Y-25300D01*
X53000Y-41700D02*
X53000Y-41800D01*
X53000Y-38300D02*
X53000Y-38800D01*
X53000Y-27100D02*
X53000Y-36800D01*
X53000Y-25200D02*
X53000Y-25300D01*
X52900Y-41600D02*
X52900Y-41800D01*
X52900Y-38200D02*
X52900Y-38800D01*
X52900Y-27200D02*
X52900Y-36900D01*
X52800Y-41400D02*
X52800Y-41800D01*
X52800Y-38000D02*
X52800Y-38800D01*
X52800Y-27200D02*
X52800Y-37100D01*
X52700Y-41000D02*
X52700Y-41800D01*
X52700Y-27200D02*
X52700Y-38800D01*
X52600Y-27200D02*
X52600Y-41800D01*
X52500Y-27200D02*
X52500Y-41800D01*
X52400Y-27100D02*
X52400Y-41800D01*
X52400Y-25200D02*
X52400Y-25300D01*
X52300Y-27100D02*
X52300Y-41800D01*
X52300Y-25200D02*
X52300Y-25300D01*
X52200Y-27000D02*
X52200Y-41800D01*
X52200Y-25200D02*
X52200Y-25400D01*
X52100Y-34200D02*
X52100Y-41800D01*
X52100Y-33200D02*
X52100Y-33400D01*
X52100Y-27100D02*
X52100Y-32400D01*
X52100Y-25200D02*
X52100Y-25300D01*
X52000Y-34400D02*
X52000Y-41800D01*
X52000Y-27100D02*
X52000Y-32200D01*
X52000Y-25200D02*
X52000Y-25300D01*
X51900Y-34500D02*
X51900Y-41800D01*
X51900Y-27200D02*
X51900Y-32100D01*
X51800Y-34600D02*
X51800Y-41800D01*
X51800Y-27200D02*
X51800Y-32000D01*
X51700Y-34700D02*
X51700Y-41800D01*
X51700Y-27200D02*
X51700Y-31900D01*
X51600Y-34800D02*
X51600Y-41800D01*
X51600Y-27200D02*
X51600Y-31800D01*
X51500Y-34800D02*
X51500Y-41800D01*
X51500Y-27200D02*
X51500Y-31800D01*
X51400Y-34900D02*
X51400Y-41800D01*
X51400Y-27100D02*
X51400Y-31700D01*
X51400Y-25200D02*
X51400Y-25300D01*
X51300Y-34900D02*
X51300Y-41800D01*
X51300Y-27100D02*
X51300Y-31700D01*
X51300Y-25200D02*
X51300Y-25300D01*
X51200Y-34900D02*
X51200Y-41800D01*
X51200Y-27000D02*
X51200Y-31700D01*
X51200Y-25200D02*
X51200Y-25400D01*
X51100Y-34900D02*
X51100Y-41800D01*
X51100Y-27100D02*
X51100Y-31700D01*
X51100Y-25200D02*
X51100Y-25300D01*
X51000Y-34900D02*
X51000Y-41800D01*
X51000Y-27100D02*
X51000Y-31700D01*
X51000Y-25200D02*
X51000Y-25300D01*
X50900Y-34900D02*
X50900Y-41800D01*
X50900Y-27200D02*
X50900Y-31700D01*
X50800Y-34900D02*
X50800Y-41800D01*
X50800Y-27200D02*
X50800Y-31700D01*
X50700Y-34800D02*
X50700Y-41800D01*
X50700Y-27200D02*
X50700Y-31800D01*
X50600Y-34800D02*
X50600Y-41800D01*
X50600Y-27200D02*
X50600Y-31800D01*
X50500Y-34700D02*
X50500Y-41800D01*
X50500Y-27200D02*
X50500Y-31900D01*
X50400Y-34600D02*
X50400Y-41800D01*
X50400Y-27100D02*
X50400Y-32000D01*
X50400Y-25200D02*
X50400Y-25300D01*
X50300Y-34500D02*
X50300Y-41800D01*
X50300Y-27100D02*
X50300Y-32100D01*
X50300Y-25200D02*
X50300Y-25300D01*
X50200Y-34400D02*
X50200Y-41800D01*
X50200Y-27000D02*
X50200Y-32200D01*
X50200Y-25200D02*
X50200Y-25400D01*
X50100Y-34200D02*
X50100Y-41800D01*
X50100Y-33200D02*
X50100Y-33400D01*
X50100Y-27100D02*
X50100Y-32400D01*
X50100Y-25200D02*
X50100Y-25300D01*
X50000Y-27100D02*
X50000Y-41800D01*
X50000Y-25200D02*
X50000Y-25300D01*
X49900Y-41000D02*
X49900Y-41800D01*
X49900Y-27200D02*
X49900Y-40100D01*
X49800Y-41200D02*
X49800Y-41800D01*
X49800Y-27200D02*
X49800Y-39900D01*
X49700Y-41400D02*
X49700Y-41800D01*
X49700Y-27200D02*
X49700Y-39700D01*
X49600Y-41500D02*
X49600Y-41800D01*
X49600Y-27200D02*
X49600Y-39600D01*
X49500Y-41600D02*
X49500Y-41800D01*
X49500Y-27200D02*
X49500Y-39500D01*
X49400Y-41700D02*
X49400Y-41800D01*
X49400Y-27100D02*
X49400Y-39400D01*
X49400Y-25200D02*
X49400Y-25300D01*
X49300Y-27100D02*
X49300Y-39300D01*
X49300Y-25200D02*
X49300Y-25300D01*
X49200Y-27000D02*
X49200Y-39300D01*
X49200Y-25200D02*
X49200Y-25400D01*
X49100Y-27100D02*
X49100Y-39200D01*
X49100Y-25200D02*
X49100Y-25300D01*
X49000Y-27100D02*
X49000Y-39200D01*
X49000Y-25200D02*
X49000Y-25300D01*
X48900Y-27200D02*
X48900Y-39100D01*
X48800Y-27200D02*
X48800Y-39100D01*
X48700Y-27200D02*
X48700Y-39100D01*
X48600Y-27200D02*
X48600Y-39100D01*
X48500Y-27200D02*
X48500Y-39100D01*
X48400Y-27200D02*
X48400Y-39100D01*
X48300Y-27200D02*
X48300Y-39100D01*
X48200Y-27200D02*
X48200Y-39100D01*
X48100Y-27200D02*
X48100Y-39200D01*
X48000Y-27200D02*
X48000Y-39200D01*
X47900Y-27200D02*
X47900Y-39300D01*
X47800Y-27200D02*
X47800Y-39300D01*
X47700Y-27200D02*
X47700Y-39400D01*
X47600Y-27200D02*
X47600Y-39500D01*
X47500Y-33200D02*
X47500Y-39500D01*
X47500Y-27200D02*
X47500Y-32000D01*
X47400Y-33400D02*
X47400Y-39400D01*
X47400Y-27200D02*
X47400Y-31800D01*
X47300Y-33500D02*
X47300Y-39300D01*
X47300Y-27200D02*
X47300Y-31700D01*
X47200Y-33600D02*
X47200Y-39300D01*
X47200Y-27200D02*
X47200Y-31600D01*
X47100Y-33700D02*
X47100Y-39200D01*
X47100Y-27200D02*
X47100Y-31500D01*
X47000Y-33800D02*
X47000Y-39200D01*
X47000Y-27200D02*
X47000Y-31400D01*
X46900Y-33900D02*
X46900Y-39100D01*
X46900Y-27200D02*
X46900Y-31300D01*
X46800Y-33900D02*
X46800Y-39100D01*
X46800Y-27200D02*
X46800Y-31300D01*
X46700Y-34000D02*
X46700Y-39100D01*
X46700Y-25200D02*
X46700Y-31200D01*
X46600Y-34000D02*
X46600Y-39100D01*
X46600Y-25200D02*
X46600Y-31200D01*
X46500Y-34000D02*
X46500Y-39100D01*
X46500Y-25200D02*
X46500Y-31200D01*
X46400Y-34000D02*
X46400Y-39100D01*
X46400Y-25200D02*
X46400Y-31200D01*
X46300Y-34000D02*
X46300Y-39100D01*
X46300Y-25200D02*
X46300Y-31200D01*
X46200Y-34000D02*
X46200Y-39100D01*
X46200Y-25200D02*
X46200Y-31200D01*
X46100Y-34000D02*
X46100Y-39200D01*
X46100Y-25200D02*
X46100Y-31200D01*
X46000Y-34000D02*
X46000Y-39200D01*
X46000Y-25200D02*
X46000Y-31200D01*
X45900Y-34000D02*
X45900Y-39300D01*
X45900Y-25200D02*
X45900Y-31200D01*
X45800Y-34000D02*
X45800Y-39300D01*
X45800Y-25200D02*
X45800Y-31200D01*
X45700Y-34000D02*
X45700Y-39400D01*
X45700Y-25200D02*
X45700Y-31200D01*
X45600Y-33900D02*
X45600Y-39500D01*
X45600Y-25200D02*
X45600Y-31300D01*
X45500Y-33900D02*
X45500Y-39500D01*
X45500Y-25200D02*
X45500Y-31300D01*
X45400Y-33800D02*
X45400Y-39400D01*
X45400Y-25200D02*
X45400Y-31400D01*
X45300Y-33700D02*
X45300Y-39300D01*
X45300Y-25200D02*
X45300Y-31500D01*
X45200Y-33600D02*
X45200Y-39300D01*
X45200Y-25200D02*
X45200Y-31600D01*
X45100Y-33500D02*
X45100Y-39200D01*
X45100Y-25200D02*
X45100Y-31700D01*
X45000Y-33400D02*
X45000Y-39200D01*
X45000Y-25200D02*
X45000Y-31800D01*
X44900Y-33200D02*
X44900Y-39100D01*
X44900Y-25200D02*
X44900Y-32000D01*
X44800Y-25200D02*
X44800Y-39100D01*
X44700Y-25200D02*
X44700Y-39100D01*
X44600Y-25200D02*
X44600Y-39100D01*
X44500Y-25200D02*
X44500Y-39100D01*
X44400Y-25200D02*
X44400Y-39100D01*
X44300Y-25200D02*
X44300Y-39100D01*
X44200Y-25200D02*
X44200Y-39100D01*
X44100Y-25200D02*
X44100Y-39200D01*
X44000Y-25200D02*
X44000Y-39200D01*
X43900Y-25200D02*
X43900Y-39300D01*
X43800Y-25200D02*
X43800Y-39300D01*
X43700Y-41700D02*
X43700Y-41800D01*
X43700Y-25200D02*
X43700Y-39400D01*
X43600Y-41600D02*
X43600Y-41800D01*
X43600Y-25200D02*
X43600Y-39500D01*
X43500Y-41500D02*
X43500Y-41800D01*
X43500Y-25200D02*
X43500Y-39600D01*
X43400Y-41400D02*
X43400Y-41800D01*
X43400Y-25200D02*
X43400Y-39700D01*
X43300Y-41200D02*
X43300Y-41800D01*
X43300Y-25200D02*
X43300Y-39900D01*
X43200Y-41000D02*
X43200Y-41800D01*
X43200Y-25200D02*
X43200Y-40100D01*
X43100Y-25200D02*
X43100Y-41800D01*
X43000Y-25200D02*
X43000Y-41800D01*
X42900Y-25200D02*
X42900Y-41800D01*
X42800Y-25200D02*
X42800Y-41800D01*
X42700Y-25200D02*
X42700Y-41800D01*
X42600Y-25200D02*
X42600Y-41800D01*
X42500Y-25200D02*
X42500Y-41800D01*
X42400Y-25200D02*
X42400Y-41800D01*
X42300Y-26400D02*
X42300Y-41800D01*
X42300Y-25200D02*
X42300Y-26000D01*
X42200Y-26700D02*
X42200Y-41800D01*
X42200Y-25200D02*
X42200Y-25700D01*
X42100Y-26800D02*
X42100Y-41800D01*
X42100Y-25200D02*
X42100Y-25600D01*
X42000Y-26900D02*
X42000Y-41800D01*
X42000Y-25200D02*
X42000Y-25500D01*
X41900Y-27100D02*
X41900Y-41800D01*
X41900Y-25200D02*
X41900Y-25300D01*
X41800Y-27200D02*
X41800Y-41800D01*
X41700Y-27300D02*
X41700Y-41800D01*
X41600Y-27400D02*
X41600Y-41800D01*
X41500Y-27500D02*
X41500Y-41800D01*
X41400Y-27500D02*
X41400Y-41800D01*
X41300Y-27500D02*
X41300Y-41800D01*
X41200Y-27500D02*
X41200Y-41800D01*
X41100Y-27500D02*
X41100Y-41800D01*
X41000Y-27500D02*
X41000Y-41800D01*
X40900Y-27500D02*
X40900Y-41800D01*
X40800Y-27500D02*
X40800Y-41800D01*
X40700Y-27400D02*
X40700Y-41800D01*
X40600Y-27400D02*
X40600Y-41800D01*
X40500Y-27400D02*
X40500Y-41800D01*
X40400Y-27300D02*
X40400Y-41800D01*
X40300Y-27300D02*
X40300Y-41800D01*
X40200Y-27300D02*
X40200Y-41800D01*
X40100Y-27200D02*
X40100Y-41800D01*
X40000Y-27100D02*
X40000Y-41800D01*
X64200Y-41800D02*
X66800Y-41800D01*
X54300Y-41800D02*
X55300Y-41800D01*
X49200Y-41800D02*
X53200Y-41800D01*
X40000Y-41800D02*
X43900Y-41800D01*
X64300Y-41700D02*
X66800Y-41700D01*
X54500Y-41700D02*
X55300Y-41700D01*
X49400Y-41700D02*
X53000Y-41700D01*
X40000Y-41700D02*
X43700Y-41700D01*
X64400Y-41600D02*
X66800Y-41600D01*
X54600Y-41600D02*
X55300Y-41600D01*
X49500Y-41600D02*
X52900Y-41600D01*
X40000Y-41600D02*
X43600Y-41600D01*
X64500Y-41500D02*
X66800Y-41500D01*
X54700Y-41500D02*
X55300Y-41500D01*
X49600Y-41500D02*
X52800Y-41500D01*
X40000Y-41500D02*
X43500Y-41500D01*
X64500Y-41400D02*
X66800Y-41400D01*
X54700Y-41400D02*
X55300Y-41400D01*
X49700Y-41400D02*
X52800Y-41400D01*
X40000Y-41400D02*
X43400Y-41400D01*
X64600Y-41300D02*
X66800Y-41300D01*
X54800Y-41300D02*
X55300Y-41300D01*
X49800Y-41300D02*
X52700Y-41300D01*
X40000Y-41300D02*
X43300Y-41300D01*
X64600Y-41200D02*
X66800Y-41200D01*
X54800Y-41200D02*
X55300Y-41200D01*
X49800Y-41200D02*
X52700Y-41200D01*
X40000Y-41200D02*
X43300Y-41200D01*
X64600Y-41100D02*
X66800Y-41100D01*
X54800Y-41100D02*
X55300Y-41100D01*
X49900Y-41100D02*
X52700Y-41100D01*
X40000Y-41100D02*
X43200Y-41100D01*
X64600Y-41000D02*
X66800Y-41000D01*
X54800Y-41000D02*
X55300Y-41000D01*
X49900Y-41000D02*
X52700Y-41000D01*
X40000Y-41000D02*
X43200Y-41000D01*
X64600Y-40900D02*
X66800Y-40900D01*
X54900Y-40900D02*
X55300Y-40900D01*
X50000Y-40900D02*
X52600Y-40900D01*
X40000Y-40900D02*
X43100Y-40900D01*
X64600Y-40800D02*
X66800Y-40800D01*
X54900Y-40800D02*
X55300Y-40800D01*
X50000Y-40800D02*
X52600Y-40800D01*
X40000Y-40800D02*
X43100Y-40800D01*
X64600Y-40700D02*
X66800Y-40700D01*
X54900Y-40700D02*
X55300Y-40700D01*
X50000Y-40700D02*
X52600Y-40700D01*
X40000Y-40700D02*
X43100Y-40700D01*
X64500Y-40600D02*
X66800Y-40600D01*
X54900Y-40600D02*
X55300Y-40600D01*
X50000Y-40600D02*
X52600Y-40600D01*
X40000Y-40600D02*
X43100Y-40600D01*
X64500Y-40500D02*
X66800Y-40500D01*
X54900Y-40500D02*
X55300Y-40500D01*
X50000Y-40500D02*
X52600Y-40500D01*
X40000Y-40500D02*
X43100Y-40500D01*
X64400Y-40400D02*
X66800Y-40400D01*
X54900Y-40400D02*
X55300Y-40400D01*
X50000Y-40400D02*
X52600Y-40400D01*
X40000Y-40400D02*
X43100Y-40400D01*
X64300Y-40300D02*
X66800Y-40300D01*
X54900Y-40300D02*
X55300Y-40300D01*
X50000Y-40300D02*
X52600Y-40300D01*
X40000Y-40300D02*
X43100Y-40300D01*
X65100Y-40200D02*
X66800Y-40200D01*
X54900Y-40200D02*
X55300Y-40200D01*
X50000Y-40200D02*
X52600Y-40200D01*
X40000Y-40200D02*
X43100Y-40200D01*
X65300Y-40100D02*
X66800Y-40100D01*
X54900Y-40100D02*
X55300Y-40100D01*
X49900Y-40100D02*
X52600Y-40100D01*
X40000Y-40100D02*
X43200Y-40100D01*
X65400Y-40000D02*
X66800Y-40000D01*
X54900Y-40000D02*
X55300Y-40000D01*
X49900Y-40000D02*
X52600Y-40000D01*
X40000Y-40000D02*
X43200Y-40000D01*
X65500Y-39900D02*
X66800Y-39900D01*
X54900Y-39900D02*
X55300Y-39900D01*
X49800Y-39900D02*
X52600Y-39900D01*
X40000Y-39900D02*
X43300Y-39900D01*
X65600Y-39800D02*
X66800Y-39800D01*
X54900Y-39800D02*
X55600Y-39800D01*
X49800Y-39800D02*
X52600Y-39800D01*
X40000Y-39800D02*
X43300Y-39800D01*
X65700Y-39700D02*
X66800Y-39700D01*
X63200Y-39700D02*
X63300Y-39700D01*
X54900Y-39700D02*
X55700Y-39700D01*
X49700Y-39700D02*
X52600Y-39700D01*
X40000Y-39700D02*
X43400Y-39700D01*
X65800Y-39600D02*
X66800Y-39600D01*
X63100Y-39600D02*
X63200Y-39600D01*
X54900Y-39600D02*
X55700Y-39600D01*
X49600Y-39600D02*
X52600Y-39600D01*
X40000Y-39600D02*
X43500Y-39600D01*
X65800Y-39500D02*
X66800Y-39500D01*
X63000Y-39500D02*
X63200Y-39500D01*
X54900Y-39500D02*
X55800Y-39500D01*
X49500Y-39500D02*
X52600Y-39500D01*
X47500Y-39500D02*
X47600Y-39500D01*
X45500Y-39500D02*
X45600Y-39500D01*
X40000Y-39500D02*
X43600Y-39500D01*
X65900Y-39400D02*
X66800Y-39400D01*
X62800Y-39400D02*
X63100Y-39400D01*
X54900Y-39400D02*
X55900Y-39400D01*
X49400Y-39400D02*
X52600Y-39400D01*
X47400Y-39400D02*
X47700Y-39400D01*
X45400Y-39400D02*
X45700Y-39400D01*
X40000Y-39400D02*
X43700Y-39400D01*
X65900Y-39300D02*
X66800Y-39300D01*
X62700Y-39300D02*
X63100Y-39300D01*
X54900Y-39300D02*
X56000Y-39300D01*
X49200Y-39300D02*
X52600Y-39300D01*
X47200Y-39300D02*
X47900Y-39300D01*
X45200Y-39300D02*
X45900Y-39300D01*
X40000Y-39300D02*
X43900Y-39300D01*
X65900Y-39200D02*
X66800Y-39200D01*
X62600Y-39200D02*
X63100Y-39200D01*
X54900Y-39200D02*
X56100Y-39200D01*
X49000Y-39200D02*
X52600Y-39200D01*
X47000Y-39200D02*
X48100Y-39200D01*
X45000Y-39200D02*
X46100Y-39200D01*
X40000Y-39200D02*
X44100Y-39200D01*
X65900Y-39100D02*
X66800Y-39100D01*
X62400Y-39100D02*
X63100Y-39100D01*
X54900Y-39100D02*
X56000Y-39100D01*
X40000Y-39100D02*
X52600Y-39100D01*
X65900Y-39000D02*
X66800Y-39000D01*
X62300Y-39000D02*
X63100Y-39000D01*
X54900Y-39000D02*
X55800Y-39000D01*
X40000Y-39000D02*
X52600Y-39000D01*
X65900Y-38900D02*
X66800Y-38900D01*
X62200Y-38900D02*
X63100Y-38900D01*
X54900Y-38900D02*
X55700Y-38900D01*
X40000Y-38900D02*
X52600Y-38900D01*
X65900Y-38800D02*
X66800Y-38800D01*
X62000Y-38800D02*
X63100Y-38800D01*
X59200Y-38800D02*
X59600Y-38800D01*
X40000Y-38800D02*
X55600Y-38800D01*
X65900Y-38700D02*
X66800Y-38700D01*
X62200Y-38700D02*
X63100Y-38700D01*
X59200Y-38700D02*
X59800Y-38700D01*
X40000Y-38700D02*
X55500Y-38700D01*
X65900Y-38600D02*
X66800Y-38600D01*
X62300Y-38600D02*
X63100Y-38600D01*
X59300Y-38600D02*
X60900Y-38600D01*
X57400Y-38600D02*
X57900Y-38600D01*
X40000Y-38600D02*
X55400Y-38600D01*
X65900Y-38500D02*
X66800Y-38500D01*
X62400Y-38500D02*
X63100Y-38500D01*
X59400Y-38500D02*
X60800Y-38500D01*
X57400Y-38500D02*
X57800Y-38500D01*
X54200Y-38500D02*
X55400Y-38500D01*
X40000Y-38500D02*
X53300Y-38500D01*
X65900Y-38400D02*
X66800Y-38400D01*
X62500Y-38400D02*
X63100Y-38400D01*
X59500Y-38400D02*
X60700Y-38400D01*
X57500Y-38400D02*
X57700Y-38400D01*
X54400Y-38400D02*
X55300Y-38400D01*
X40000Y-38400D02*
X53100Y-38400D01*
X65800Y-38300D02*
X66800Y-38300D01*
X62600Y-38300D02*
X63200Y-38300D01*
X59600Y-38300D02*
X60600Y-38300D01*
X57500Y-38300D02*
X57600Y-38300D01*
X54500Y-38300D02*
X55300Y-38300D01*
X40000Y-38300D02*
X53000Y-38300D01*
X65800Y-38200D02*
X66800Y-38200D01*
X62600Y-38200D02*
X63200Y-38200D01*
X59600Y-38200D02*
X60600Y-38200D01*
X57500Y-38200D02*
X57600Y-38200D01*
X54600Y-38200D02*
X55300Y-38200D01*
X40000Y-38200D02*
X52900Y-38200D01*
X65700Y-38100D02*
X66800Y-38100D01*
X62700Y-38100D02*
X63300Y-38100D01*
X59700Y-38100D02*
X60500Y-38100D01*
X54700Y-38100D02*
X55300Y-38100D01*
X40000Y-38100D02*
X52800Y-38100D01*
X65600Y-38000D02*
X66800Y-38000D01*
X62700Y-38000D02*
X63400Y-38000D01*
X59700Y-38000D02*
X60500Y-38000D01*
X54700Y-38000D02*
X55300Y-38000D01*
X40000Y-38000D02*
X52800Y-38000D01*
X65500Y-37900D02*
X66800Y-37900D01*
X62700Y-37900D02*
X63500Y-37900D01*
X59700Y-37900D02*
X60500Y-37900D01*
X54800Y-37900D02*
X55300Y-37900D01*
X40000Y-37900D02*
X52700Y-37900D01*
X65400Y-37800D02*
X66800Y-37800D01*
X62700Y-37800D02*
X63600Y-37800D01*
X59700Y-37800D02*
X60500Y-37800D01*
X54800Y-37800D02*
X55300Y-37800D01*
X40000Y-37800D02*
X52700Y-37800D01*
X65300Y-37700D02*
X66800Y-37700D01*
X62700Y-37700D02*
X63700Y-37700D01*
X59700Y-37700D02*
X60500Y-37700D01*
X54800Y-37700D02*
X55300Y-37700D01*
X40000Y-37700D02*
X52700Y-37700D01*
X65100Y-37600D02*
X66800Y-37600D01*
X62700Y-37600D02*
X63900Y-37600D01*
X59700Y-37600D02*
X60500Y-37600D01*
X54800Y-37600D02*
X55300Y-37600D01*
X40000Y-37600D02*
X52700Y-37600D01*
X62700Y-37500D02*
X66800Y-37500D01*
X59700Y-37500D02*
X60500Y-37500D01*
X54800Y-37500D02*
X55300Y-37500D01*
X40000Y-37500D02*
X52700Y-37500D01*
X62600Y-37400D02*
X66800Y-37400D01*
X59600Y-37400D02*
X60600Y-37400D01*
X57500Y-37400D02*
X57600Y-37400D01*
X54800Y-37400D02*
X55300Y-37400D01*
X40000Y-37400D02*
X52700Y-37400D01*
X62600Y-37300D02*
X66800Y-37300D01*
X59600Y-37300D02*
X60600Y-37300D01*
X57500Y-37300D02*
X57600Y-37300D01*
X54800Y-37300D02*
X55300Y-37300D01*
X40000Y-37300D02*
X52700Y-37300D01*
X62600Y-37200D02*
X66800Y-37200D01*
X59600Y-37200D02*
X60600Y-37200D01*
X57500Y-37200D02*
X57600Y-37200D01*
X54800Y-37200D02*
X55300Y-37200D01*
X40000Y-37200D02*
X52700Y-37200D01*
X64400Y-37100D02*
X66800Y-37100D01*
X62700Y-37100D02*
X63600Y-37100D01*
X59700Y-37100D02*
X60500Y-37100D01*
X54700Y-37100D02*
X55300Y-37100D01*
X40000Y-37100D02*
X52800Y-37100D01*
X64600Y-37000D02*
X66800Y-37000D01*
X62700Y-37000D02*
X63400Y-37000D01*
X59700Y-37000D02*
X60500Y-37000D01*
X54700Y-37000D02*
X55300Y-37000D01*
X40000Y-37000D02*
X52800Y-37000D01*
X64700Y-36900D02*
X66800Y-36900D01*
X62700Y-36900D02*
X63300Y-36900D01*
X59700Y-36900D02*
X60500Y-36900D01*
X54600Y-36900D02*
X55300Y-36900D01*
X40000Y-36900D02*
X52900Y-36900D01*
X64800Y-36800D02*
X66800Y-36800D01*
X62700Y-36800D02*
X63200Y-36800D01*
X59700Y-36800D02*
X60500Y-36800D01*
X54700Y-36800D02*
X55300Y-36800D01*
X40000Y-36800D02*
X53000Y-36800D01*
X64900Y-36700D02*
X66800Y-36700D01*
X62700Y-36700D02*
X63100Y-36700D01*
X59700Y-36700D02*
X60500Y-36700D01*
X54800Y-36700D02*
X55300Y-36700D01*
X40000Y-36700D02*
X53100Y-36700D01*
X65000Y-36600D02*
X66800Y-36600D01*
X62700Y-36600D02*
X63000Y-36600D01*
X59700Y-36600D02*
X60500Y-36600D01*
X54900Y-36600D02*
X55300Y-36600D01*
X40000Y-36600D02*
X53300Y-36600D01*
X65000Y-36500D02*
X66800Y-36500D01*
X62700Y-36500D02*
X63000Y-36500D01*
X59700Y-36500D02*
X60500Y-36500D01*
X55000Y-36500D02*
X55300Y-36500D01*
X40000Y-36500D02*
X53200Y-36500D01*
X65500Y-36400D02*
X66800Y-36400D01*
X62600Y-36400D02*
X62900Y-36400D01*
X59600Y-36400D02*
X60600Y-36400D01*
X57500Y-36400D02*
X57600Y-36400D01*
X55100Y-36400D02*
X55300Y-36400D01*
X40000Y-36400D02*
X53100Y-36400D01*
X65600Y-36300D02*
X66800Y-36300D01*
X62600Y-36300D02*
X62900Y-36300D01*
X59600Y-36300D02*
X60600Y-36300D01*
X57500Y-36300D02*
X57600Y-36300D01*
X55100Y-36300D02*
X55300Y-36300D01*
X40000Y-36300D02*
X53100Y-36300D01*
X65700Y-36200D02*
X66800Y-36200D01*
X62600Y-36200D02*
X62900Y-36200D01*
X59600Y-36200D02*
X60600Y-36200D01*
X57500Y-36200D02*
X57600Y-36200D01*
X55200Y-36200D02*
X55300Y-36200D01*
X40000Y-36200D02*
X53000Y-36200D01*
X65800Y-36100D02*
X66800Y-36100D01*
X62700Y-36100D02*
X62900Y-36100D01*
X59700Y-36100D02*
X60500Y-36100D01*
X55200Y-36100D02*
X55300Y-36100D01*
X40000Y-36100D02*
X53000Y-36100D01*
X65900Y-36000D02*
X66800Y-36000D01*
X62700Y-36000D02*
X62900Y-36000D01*
X59700Y-36000D02*
X60500Y-36000D01*
X57000Y-36000D02*
X57500Y-36000D01*
X55200Y-36000D02*
X55600Y-36000D01*
X40000Y-36000D02*
X53000Y-36000D01*
X65900Y-35900D02*
X66800Y-35900D01*
X62700Y-35900D02*
X62900Y-35900D01*
X59700Y-35900D02*
X60500Y-35900D01*
X57100Y-35900D02*
X57500Y-35900D01*
X55200Y-35900D02*
X55500Y-35900D01*
X40000Y-35900D02*
X53000Y-35900D01*
X66000Y-35800D02*
X66800Y-35800D01*
X62700Y-35800D02*
X62900Y-35800D01*
X59700Y-35800D02*
X60500Y-35800D01*
X57200Y-35800D02*
X57500Y-35800D01*
X55200Y-35800D02*
X55400Y-35800D01*
X40000Y-35800D02*
X53000Y-35800D01*
X66000Y-35700D02*
X66800Y-35700D01*
X62700Y-35700D02*
X63000Y-35700D01*
X59700Y-35700D02*
X60500Y-35700D01*
X57300Y-35700D02*
X57500Y-35700D01*
X55200Y-35700D02*
X55300Y-35700D01*
X40000Y-35700D02*
X53000Y-35700D01*
X66000Y-35600D02*
X66800Y-35600D01*
X62700Y-35600D02*
X63000Y-35600D01*
X59700Y-35600D02*
X60500Y-35600D01*
X57300Y-35600D02*
X57500Y-35600D01*
X55200Y-35600D02*
X55300Y-35600D01*
X40000Y-35600D02*
X53000Y-35600D01*
X66000Y-35500D02*
X66800Y-35500D01*
X62700Y-35500D02*
X63100Y-35500D01*
X59700Y-35500D02*
X60500Y-35500D01*
X57400Y-35500D02*
X57500Y-35500D01*
X40000Y-35500D02*
X53000Y-35500D01*
X66000Y-35400D02*
X66800Y-35400D01*
X62600Y-35400D02*
X63100Y-35400D01*
X59600Y-35400D02*
X60600Y-35400D01*
X57400Y-35400D02*
X57600Y-35400D01*
X40000Y-35400D02*
X53000Y-35400D01*
X66000Y-35300D02*
X66800Y-35300D01*
X62600Y-35300D02*
X63000Y-35300D01*
X59600Y-35300D02*
X60600Y-35300D01*
X57400Y-35300D02*
X57600Y-35300D01*
X40000Y-35300D02*
X53000Y-35300D01*
X65900Y-35200D02*
X66800Y-35200D01*
X62600Y-35200D02*
X63000Y-35200D01*
X59600Y-35200D02*
X60600Y-35200D01*
X57400Y-35200D02*
X57600Y-35200D01*
X40000Y-35200D02*
X53000Y-35200D01*
X65900Y-35100D02*
X66800Y-35100D01*
X62700Y-35100D02*
X63000Y-35100D01*
X59700Y-35100D02*
X60500Y-35100D01*
X57400Y-35100D02*
X57500Y-35100D01*
X40000Y-35100D02*
X53000Y-35100D01*
X65800Y-35000D02*
X66800Y-35000D01*
X62700Y-35000D02*
X63000Y-35000D01*
X59700Y-35000D02*
X60500Y-35000D01*
X57400Y-35000D02*
X57500Y-35000D01*
X40000Y-35000D02*
X53000Y-35000D01*
X65900Y-34900D02*
X66800Y-34900D01*
X62700Y-34900D02*
X63000Y-34900D01*
X59700Y-34900D02*
X60500Y-34900D01*
X57400Y-34900D02*
X57500Y-34900D01*
X40000Y-34900D02*
X53000Y-34900D01*
X65900Y-34800D02*
X66800Y-34800D01*
X62700Y-34800D02*
X63000Y-34800D01*
X59700Y-34800D02*
X60500Y-34800D01*
X57400Y-34800D02*
X57500Y-34800D01*
X51500Y-34800D02*
X53000Y-34800D01*
X40000Y-34800D02*
X50700Y-34800D01*
X66000Y-34700D02*
X66800Y-34700D01*
X62700Y-34700D02*
X63000Y-34700D01*
X59700Y-34700D02*
X60500Y-34700D01*
X57400Y-34700D02*
X57500Y-34700D01*
X51700Y-34700D02*
X53000Y-34700D01*
X40000Y-34700D02*
X50500Y-34700D01*
X66000Y-34600D02*
X66800Y-34600D01*
X62700Y-34600D02*
X63100Y-34600D01*
X59700Y-34600D02*
X60500Y-34600D01*
X57400Y-34600D02*
X57500Y-34600D01*
X51800Y-34600D02*
X53000Y-34600D01*
X40000Y-34600D02*
X50400Y-34600D01*
X66000Y-34500D02*
X66800Y-34500D01*
X62700Y-34500D02*
X63100Y-34500D01*
X59700Y-34500D02*
X60500Y-34500D01*
X57400Y-34500D02*
X57500Y-34500D01*
X51900Y-34500D02*
X53000Y-34500D01*
X40000Y-34500D02*
X50300Y-34500D01*
X66000Y-34400D02*
X66800Y-34400D01*
X62600Y-34400D02*
X63100Y-34400D01*
X59600Y-34400D02*
X60600Y-34400D01*
X57400Y-34400D02*
X57600Y-34400D01*
X52000Y-34400D02*
X53000Y-34400D01*
X40000Y-34400D02*
X50200Y-34400D01*
X66000Y-34300D02*
X66800Y-34300D01*
X62600Y-34300D02*
X63100Y-34300D01*
X59600Y-34300D02*
X60600Y-34300D01*
X57400Y-34300D02*
X57600Y-34300D01*
X52100Y-34300D02*
X53000Y-34300D01*
X40000Y-34300D02*
X50100Y-34300D01*
X66000Y-34200D02*
X66800Y-34200D01*
X62600Y-34200D02*
X63000Y-34200D01*
X59600Y-34200D02*
X60600Y-34200D01*
X57400Y-34200D02*
X57600Y-34200D01*
X52100Y-34200D02*
X53000Y-34200D01*
X40000Y-34200D02*
X50100Y-34200D01*
X65900Y-34100D02*
X66800Y-34100D01*
X62700Y-34100D02*
X63000Y-34100D01*
X59700Y-34100D02*
X60500Y-34100D01*
X57400Y-34100D02*
X57500Y-34100D01*
X52200Y-34100D02*
X53000Y-34100D01*
X40000Y-34100D02*
X50000Y-34100D01*
X65900Y-34000D02*
X66800Y-34000D01*
X62700Y-34000D02*
X63000Y-34000D01*
X59700Y-34000D02*
X60500Y-34000D01*
X57400Y-34000D02*
X57500Y-34000D01*
X52200Y-34000D02*
X53000Y-34000D01*
X40000Y-34000D02*
X50000Y-34000D01*
X65900Y-33900D02*
X66800Y-33900D01*
X62700Y-33900D02*
X63000Y-33900D01*
X59700Y-33900D02*
X60500Y-33900D01*
X57400Y-33900D02*
X57500Y-33900D01*
X52200Y-33900D02*
X53000Y-33900D01*
X46800Y-33900D02*
X50000Y-33900D01*
X40000Y-33900D02*
X45600Y-33900D01*
X65900Y-33800D02*
X66800Y-33800D01*
X62700Y-33800D02*
X63000Y-33800D01*
X59700Y-33800D02*
X60500Y-33800D01*
X57400Y-33800D02*
X57500Y-33800D01*
X54300Y-33800D02*
X55200Y-33800D01*
X52200Y-33800D02*
X53700Y-33800D01*
X47000Y-33800D02*
X50000Y-33800D01*
X40000Y-33800D02*
X45400Y-33800D01*
X66000Y-33700D02*
X66800Y-33700D01*
X62700Y-33700D02*
X63000Y-33700D01*
X59700Y-33700D02*
X60500Y-33700D01*
X57400Y-33700D02*
X57500Y-33700D01*
X54500Y-33700D02*
X55200Y-33700D01*
X52200Y-33700D02*
X53500Y-33700D01*
X47100Y-33700D02*
X50000Y-33700D01*
X40000Y-33700D02*
X45300Y-33700D01*
X66000Y-33600D02*
X66800Y-33600D01*
X62700Y-33600D02*
X63000Y-33600D01*
X59700Y-33600D02*
X60500Y-33600D01*
X57400Y-33600D02*
X57500Y-33600D01*
X54700Y-33600D02*
X55200Y-33600D01*
X52200Y-33600D02*
X53300Y-33600D01*
X47200Y-33600D02*
X50000Y-33600D01*
X40000Y-33600D02*
X45200Y-33600D01*
X66000Y-33500D02*
X66800Y-33500D01*
X62700Y-33500D02*
X63100Y-33500D01*
X59700Y-33500D02*
X60500Y-33500D01*
X57400Y-33500D02*
X57500Y-33500D01*
X54800Y-33500D02*
X55200Y-33500D01*
X52200Y-33500D02*
X53200Y-33500D01*
X47300Y-33500D02*
X50000Y-33500D01*
X40000Y-33500D02*
X45100Y-33500D01*
X66000Y-33400D02*
X66800Y-33400D01*
X62600Y-33400D02*
X63100Y-33400D01*
X59600Y-33400D02*
X60600Y-33400D01*
X57400Y-33400D02*
X57600Y-33400D01*
X54800Y-33400D02*
X55200Y-33400D01*
X52100Y-33400D02*
X53200Y-33400D01*
X47400Y-33400D02*
X50100Y-33400D01*
X40000Y-33400D02*
X45000Y-33400D01*
X66000Y-33300D02*
X66800Y-33300D01*
X62600Y-33300D02*
X63100Y-33300D01*
X59600Y-33300D02*
X60600Y-33300D01*
X57400Y-33300D02*
X57600Y-33300D01*
X54900Y-33300D02*
X55200Y-33300D01*
X52100Y-33300D02*
X53100Y-33300D01*
X47500Y-33300D02*
X50100Y-33300D01*
X40000Y-33300D02*
X44900Y-33300D01*
X66000Y-33200D02*
X66800Y-33200D01*
X62600Y-33200D02*
X63100Y-33200D01*
X59600Y-33200D02*
X60600Y-33200D01*
X57400Y-33200D02*
X57600Y-33200D01*
X54900Y-33200D02*
X55200Y-33200D01*
X52100Y-33200D02*
X53100Y-33200D01*
X47500Y-33200D02*
X50100Y-33200D01*
X40000Y-33200D02*
X44900Y-33200D01*
X66000Y-33100D02*
X66800Y-33100D01*
X62700Y-33100D02*
X63000Y-33100D01*
X59700Y-33100D02*
X60500Y-33100D01*
X57300Y-33100D02*
X57500Y-33100D01*
X55000Y-33100D02*
X55100Y-33100D01*
X52200Y-33100D02*
X53000Y-33100D01*
X47600Y-33100D02*
X50000Y-33100D01*
X40000Y-33100D02*
X44800Y-33100D01*
X65900Y-33000D02*
X66800Y-33000D01*
X62700Y-33000D02*
X63000Y-33000D01*
X59700Y-33000D02*
X60500Y-33000D01*
X57300Y-33000D02*
X57500Y-33000D01*
X55000Y-33000D02*
X55100Y-33000D01*
X52200Y-33000D02*
X53000Y-33000D01*
X47600Y-33000D02*
X50000Y-33000D01*
X40000Y-33000D02*
X44800Y-33000D01*
X65900Y-32900D02*
X66800Y-32900D01*
X62700Y-32900D02*
X63000Y-32900D01*
X59700Y-32900D02*
X60500Y-32900D01*
X57300Y-32900D02*
X57500Y-32900D01*
X55000Y-32900D02*
X55100Y-32900D01*
X52200Y-32900D02*
X53000Y-32900D01*
X47600Y-32900D02*
X50000Y-32900D01*
X40000Y-32900D02*
X44800Y-32900D01*
X66000Y-32800D02*
X66800Y-32800D01*
X62700Y-32800D02*
X62900Y-32800D01*
X59700Y-32800D02*
X60500Y-32800D01*
X57300Y-32800D02*
X57500Y-32800D01*
X55000Y-32800D02*
X55100Y-32800D01*
X52200Y-32800D02*
X53000Y-32800D01*
X47600Y-32800D02*
X50000Y-32800D01*
X40000Y-32800D02*
X44800Y-32800D01*
X66000Y-32700D02*
X66800Y-32700D01*
X62700Y-32700D02*
X62900Y-32700D01*
X59700Y-32700D02*
X60500Y-32700D01*
X57300Y-32700D02*
X57500Y-32700D01*
X55000Y-32700D02*
X55100Y-32700D01*
X52200Y-32700D02*
X53000Y-32700D01*
X47600Y-32700D02*
X50000Y-32700D01*
X40000Y-32700D02*
X44800Y-32700D01*
X66100Y-32600D02*
X66800Y-32600D01*
X62700Y-32600D02*
X62900Y-32600D01*
X59700Y-32600D02*
X60500Y-32600D01*
X57300Y-32600D02*
X57500Y-32600D01*
X55000Y-32600D02*
X55100Y-32600D01*
X52200Y-32600D02*
X53000Y-32600D01*
X47600Y-32600D02*
X50000Y-32600D01*
X40000Y-32600D02*
X44800Y-32600D01*
X66100Y-32500D02*
X66800Y-32500D01*
X62700Y-32500D02*
X62900Y-32500D01*
X59700Y-32500D02*
X60500Y-32500D01*
X57300Y-32500D02*
X57500Y-32500D01*
X55000Y-32500D02*
X55100Y-32500D01*
X52200Y-32500D02*
X53000Y-32500D01*
X47600Y-32500D02*
X50000Y-32500D01*
X40000Y-32500D02*
X44800Y-32500D01*
X66100Y-32400D02*
X66800Y-32400D01*
X62600Y-32400D02*
X62900Y-32400D01*
X59600Y-32400D02*
X60600Y-32400D01*
X57200Y-32400D02*
X57600Y-32400D01*
X55000Y-32400D02*
X55200Y-32400D01*
X52100Y-32400D02*
X53000Y-32400D01*
X47600Y-32400D02*
X50100Y-32400D01*
X40000Y-32400D02*
X44800Y-32400D01*
X66100Y-32300D02*
X66800Y-32300D01*
X62600Y-32300D02*
X62900Y-32300D01*
X59600Y-32300D02*
X60600Y-32300D01*
X57200Y-32300D02*
X57600Y-32300D01*
X55000Y-32300D02*
X55200Y-32300D01*
X52100Y-32300D02*
X53000Y-32300D01*
X47600Y-32300D02*
X50100Y-32300D01*
X40000Y-32300D02*
X44800Y-32300D01*
X66100Y-32200D02*
X66800Y-32200D01*
X62600Y-32200D02*
X62900Y-32200D01*
X59600Y-32200D02*
X60600Y-32200D01*
X57100Y-32200D02*
X57600Y-32200D01*
X55000Y-32200D02*
X55300Y-32200D01*
X52000Y-32200D02*
X53000Y-32200D01*
X47600Y-32200D02*
X50200Y-32200D01*
X40000Y-32200D02*
X44800Y-32200D01*
X66100Y-32100D02*
X66800Y-32100D01*
X62700Y-32100D02*
X62900Y-32100D01*
X59700Y-32100D02*
X60500Y-32100D01*
X57000Y-32100D02*
X57500Y-32100D01*
X55000Y-32100D02*
X55400Y-32100D01*
X51900Y-32100D02*
X53000Y-32100D01*
X47600Y-32100D02*
X50300Y-32100D01*
X40000Y-32100D02*
X44800Y-32100D01*
X66100Y-32000D02*
X66800Y-32000D01*
X62700Y-32000D02*
X62900Y-32000D01*
X59700Y-32000D02*
X60500Y-32000D01*
X56900Y-32000D02*
X57500Y-32000D01*
X55000Y-32000D02*
X55500Y-32000D01*
X51800Y-32000D02*
X53000Y-32000D01*
X47500Y-32000D02*
X50400Y-32000D01*
X40000Y-32000D02*
X44900Y-32000D01*
X66000Y-31900D02*
X66800Y-31900D01*
X62700Y-31900D02*
X62900Y-31900D01*
X59700Y-31900D02*
X60500Y-31900D01*
X56800Y-31900D02*
X57500Y-31900D01*
X55000Y-31900D02*
X55600Y-31900D01*
X51700Y-31900D02*
X53000Y-31900D01*
X47500Y-31900D02*
X50500Y-31900D01*
X40000Y-31900D02*
X44900Y-31900D01*
X66000Y-31800D02*
X66800Y-31800D01*
X62700Y-31800D02*
X62900Y-31800D01*
X59700Y-31800D02*
X60500Y-31800D01*
X57200Y-31800D02*
X57500Y-31800D01*
X55000Y-31800D02*
X55200Y-31800D01*
X51500Y-31800D02*
X53000Y-31800D01*
X47400Y-31800D02*
X50700Y-31800D01*
X40000Y-31800D02*
X45000Y-31800D01*
X65900Y-31700D02*
X66800Y-31700D01*
X62700Y-31700D02*
X62900Y-31700D01*
X59700Y-31700D02*
X60500Y-31700D01*
X57200Y-31700D02*
X57500Y-31700D01*
X55000Y-31700D02*
X55200Y-31700D01*
X47300Y-31700D02*
X53000Y-31700D01*
X40000Y-31700D02*
X45100Y-31700D01*
X65800Y-31600D02*
X66800Y-31600D01*
X62700Y-31600D02*
X62900Y-31600D01*
X59700Y-31600D02*
X60500Y-31600D01*
X57200Y-31600D02*
X57500Y-31600D01*
X55000Y-31600D02*
X55200Y-31600D01*
X47200Y-31600D02*
X53000Y-31600D01*
X40000Y-31600D02*
X45200Y-31600D01*
X65700Y-31500D02*
X66800Y-31500D01*
X62700Y-31500D02*
X62900Y-31500D01*
X59700Y-31500D02*
X60500Y-31500D01*
X57200Y-31500D02*
X57500Y-31500D01*
X55000Y-31500D02*
X55200Y-31500D01*
X47100Y-31500D02*
X53000Y-31500D01*
X40000Y-31500D02*
X45300Y-31500D01*
X65600Y-31400D02*
X66800Y-31400D01*
X62600Y-31400D02*
X62900Y-31400D01*
X59700Y-31400D02*
X60600Y-31400D01*
X57200Y-31400D02*
X57500Y-31400D01*
X55000Y-31400D02*
X55200Y-31400D01*
X47000Y-31400D02*
X53000Y-31400D01*
X40000Y-31400D02*
X45400Y-31400D01*
X65400Y-31300D02*
X66800Y-31300D01*
X62600Y-31300D02*
X62900Y-31300D01*
X59700Y-31300D02*
X60600Y-31300D01*
X57200Y-31300D02*
X57500Y-31300D01*
X55000Y-31300D02*
X55200Y-31300D01*
X46800Y-31300D02*
X53000Y-31300D01*
X40000Y-31300D02*
X45600Y-31300D01*
X65100Y-31200D02*
X66800Y-31200D01*
X62600Y-31200D02*
X62900Y-31200D01*
X59700Y-31200D02*
X60600Y-31200D01*
X57200Y-31200D02*
X57500Y-31200D01*
X55000Y-31200D02*
X55200Y-31200D01*
X40000Y-31200D02*
X53000Y-31200D01*
X65100Y-31100D02*
X66800Y-31100D01*
X62700Y-31100D02*
X62900Y-31100D01*
X59700Y-31100D02*
X60500Y-31100D01*
X57200Y-31100D02*
X57500Y-31100D01*
X55000Y-31100D02*
X55200Y-31100D01*
X40000Y-31100D02*
X53000Y-31100D01*
X65100Y-31000D02*
X66800Y-31000D01*
X62700Y-31000D02*
X62900Y-31000D01*
X59700Y-31000D02*
X60500Y-31000D01*
X57200Y-31000D02*
X57500Y-31000D01*
X55000Y-31000D02*
X55200Y-31000D01*
X40000Y-31000D02*
X53000Y-31000D01*
X65100Y-30900D02*
X66800Y-30900D01*
X62700Y-30900D02*
X62900Y-30900D01*
X59700Y-30900D02*
X60500Y-30900D01*
X57200Y-30900D02*
X57500Y-30900D01*
X40000Y-30900D02*
X55200Y-30900D01*
X65100Y-30800D02*
X66800Y-30800D01*
X62700Y-30800D02*
X62900Y-30800D01*
X59700Y-30800D02*
X60500Y-30800D01*
X57200Y-30800D02*
X57500Y-30800D01*
X40000Y-30800D02*
X55200Y-30800D01*
X65100Y-30700D02*
X66800Y-30700D01*
X62700Y-30700D02*
X62900Y-30700D01*
X59700Y-30700D02*
X60500Y-30700D01*
X57200Y-30700D02*
X57500Y-30700D01*
X40000Y-30700D02*
X55200Y-30700D01*
X62700Y-30600D02*
X66800Y-30600D01*
X59700Y-30600D02*
X60500Y-30600D01*
X57200Y-30600D02*
X57500Y-30600D01*
X40000Y-30600D02*
X55200Y-30600D01*
X62700Y-30500D02*
X66800Y-30500D01*
X59700Y-30500D02*
X60500Y-30500D01*
X57200Y-30500D02*
X57500Y-30500D01*
X40000Y-30500D02*
X55200Y-30500D01*
X62600Y-30400D02*
X66800Y-30400D01*
X59700Y-30400D02*
X60600Y-30400D01*
X57200Y-30400D02*
X57500Y-30400D01*
X40000Y-30400D02*
X55200Y-30400D01*
X62600Y-30300D02*
X66800Y-30300D01*
X59700Y-30300D02*
X60600Y-30300D01*
X57200Y-30300D02*
X57500Y-30300D01*
X40000Y-30300D02*
X55200Y-30300D01*
X65100Y-30200D02*
X66800Y-30200D01*
X62500Y-30200D02*
X63900Y-30200D01*
X59700Y-30200D02*
X60700Y-30200D01*
X57200Y-30200D02*
X57500Y-30200D01*
X40000Y-30200D02*
X55200Y-30200D01*
X65300Y-30100D02*
X66800Y-30100D01*
X62400Y-30100D02*
X63700Y-30100D01*
X59700Y-30100D02*
X60800Y-30100D01*
X57200Y-30100D02*
X57500Y-30100D01*
X40000Y-30100D02*
X55200Y-30100D01*
X65400Y-30000D02*
X66800Y-30000D01*
X62300Y-30000D02*
X63600Y-30000D01*
X59700Y-30000D02*
X60900Y-30000D01*
X57200Y-30000D02*
X57500Y-30000D01*
X40000Y-30000D02*
X55200Y-30000D01*
X65500Y-29900D02*
X66800Y-29900D01*
X62200Y-29900D02*
X63500Y-29900D01*
X59700Y-29900D02*
X61000Y-29900D01*
X57200Y-29900D02*
X57500Y-29900D01*
X40000Y-29900D02*
X55200Y-29900D01*
X65600Y-29800D02*
X66800Y-29800D01*
X62000Y-29800D02*
X63400Y-29800D01*
X59700Y-29800D02*
X61200Y-29800D01*
X57200Y-29800D02*
X57500Y-29800D01*
X40000Y-29800D02*
X55200Y-29800D01*
X65700Y-29700D02*
X66800Y-29700D01*
X40000Y-29700D02*
X63300Y-29700D01*
X65800Y-29600D02*
X66800Y-29600D01*
X40000Y-29600D02*
X63200Y-29600D01*
X65800Y-29500D02*
X66800Y-29500D01*
X40000Y-29500D02*
X63200Y-29500D01*
X65900Y-29400D02*
X66800Y-29400D01*
X40000Y-29400D02*
X63100Y-29400D01*
X65900Y-29300D02*
X66800Y-29300D01*
X40000Y-29300D02*
X63100Y-29300D01*
X65900Y-29200D02*
X66800Y-29200D01*
X40000Y-29200D02*
X63100Y-29200D01*
X65900Y-29100D02*
X66800Y-29100D01*
X40000Y-29100D02*
X63100Y-29100D01*
X65900Y-29000D02*
X66800Y-29000D01*
X40000Y-29000D02*
X63100Y-29000D01*
X65900Y-28900D02*
X66800Y-28900D01*
X40000Y-28900D02*
X63100Y-28900D01*
X65900Y-28800D02*
X66800Y-28800D01*
X40000Y-28800D02*
X63100Y-28800D01*
X65900Y-28700D02*
X66800Y-28700D01*
X40000Y-28700D02*
X63100Y-28700D01*
X65900Y-28600D02*
X66800Y-28600D01*
X40000Y-28600D02*
X63100Y-28600D01*
X65900Y-28500D02*
X66800Y-28500D01*
X40000Y-28500D02*
X63100Y-28500D01*
X65900Y-28400D02*
X66800Y-28400D01*
X40000Y-28400D02*
X63100Y-28400D01*
X65800Y-28300D02*
X66800Y-28300D01*
X40000Y-28300D02*
X63200Y-28300D01*
X65800Y-28200D02*
X66800Y-28200D01*
X40000Y-28200D02*
X63200Y-28200D01*
X65700Y-28100D02*
X66800Y-28100D01*
X40000Y-28100D02*
X63300Y-28100D01*
X65600Y-28000D02*
X66800Y-28000D01*
X40000Y-28000D02*
X63400Y-28000D01*
X65500Y-27900D02*
X66800Y-27900D01*
X40000Y-27900D02*
X63500Y-27900D01*
X65400Y-27800D02*
X66800Y-27800D01*
X40000Y-27800D02*
X63600Y-27800D01*
X65300Y-27700D02*
X66800Y-27700D01*
X40000Y-27700D02*
X63700Y-27700D01*
X65100Y-27600D02*
X66800Y-27600D01*
X40000Y-27600D02*
X63900Y-27600D01*
X40000Y-27500D02*
X66800Y-27500D01*
X65000Y-27400D02*
X66800Y-27400D01*
X41600Y-27400D02*
X64100Y-27400D01*
X40000Y-27400D02*
X40700Y-27400D01*
X65100Y-27300D02*
X66800Y-27300D01*
X41700Y-27300D02*
X63800Y-27300D01*
X40000Y-27300D02*
X40400Y-27300D01*
X65200Y-27200D02*
X66800Y-27200D01*
X41800Y-27200D02*
X63500Y-27200D01*
X40000Y-27200D02*
X40100Y-27200D01*
X65300Y-27100D02*
X66800Y-27100D01*
X53000Y-27100D02*
X63400Y-27100D01*
X52000Y-27100D02*
X52400Y-27100D01*
X51000Y-27100D02*
X51400Y-27100D01*
X50000Y-27100D02*
X50400Y-27100D01*
X49000Y-27100D02*
X49400Y-27100D01*
X41900Y-27100D02*
X46700Y-27100D01*
X65400Y-27000D02*
X66800Y-27000D01*
X53200Y-27000D02*
X63300Y-27000D01*
X42000Y-27000D02*
X46700Y-27000D01*
X65400Y-26900D02*
X66800Y-26900D01*
X53400Y-26900D02*
X63200Y-26900D01*
X42000Y-26900D02*
X46700Y-26900D01*
X65500Y-26800D02*
X66800Y-26800D01*
X53500Y-26800D02*
X63200Y-26800D01*
X42100Y-26800D02*
X46700Y-26800D01*
X65600Y-26700D02*
X66800Y-26700D01*
X53500Y-26700D02*
X63200Y-26700D01*
X42200Y-26700D02*
X46700Y-26700D01*
X65700Y-26600D02*
X66800Y-26600D01*
X53600Y-26600D02*
X63100Y-26600D01*
X42300Y-26600D02*
X46700Y-26600D01*
X65700Y-26500D02*
X66800Y-26500D01*
X53600Y-26500D02*
X63100Y-26500D01*
X42300Y-26500D02*
X46700Y-26500D01*
X65700Y-26400D02*
X66800Y-26400D01*
X53700Y-26400D02*
X63100Y-26400D01*
X42300Y-26400D02*
X46700Y-26400D01*
X65800Y-26300D02*
X66800Y-26300D01*
X53700Y-26300D02*
X63100Y-26300D01*
X42400Y-26300D02*
X46700Y-26300D01*
X65800Y-26200D02*
X66800Y-26200D01*
X53700Y-26200D02*
X63100Y-26200D01*
X42400Y-26200D02*
X46700Y-26200D01*
X65800Y-26100D02*
X66800Y-26100D01*
X53700Y-26100D02*
X63100Y-26100D01*
X42400Y-26100D02*
X46700Y-26100D01*
X65700Y-26000D02*
X66800Y-26000D01*
X53700Y-26000D02*
X63100Y-26000D01*
X42300Y-26000D02*
X46700Y-26000D01*
X65700Y-25900D02*
X66800Y-25900D01*
X53600Y-25900D02*
X63100Y-25900D01*
X42300Y-25900D02*
X46700Y-25900D01*
X65700Y-25800D02*
X66800Y-25800D01*
X53600Y-25800D02*
X63100Y-25800D01*
X42300Y-25800D02*
X46700Y-25800D01*
X65600Y-25700D02*
X66800Y-25700D01*
X53500Y-25700D02*
X63200Y-25700D01*
X42200Y-25700D02*
X46700Y-25700D01*
X65500Y-25600D02*
X66800Y-25600D01*
X53500Y-25600D02*
X63200Y-25600D01*
X42100Y-25600D02*
X46700Y-25600D01*
X65400Y-25500D02*
X66800Y-25500D01*
X53400Y-25500D02*
X63200Y-25500D01*
X42000Y-25500D02*
X46700Y-25500D01*
X65400Y-25400D02*
X66800Y-25400D01*
X53200Y-25400D02*
X63300Y-25400D01*
X42000Y-25400D02*
X46700Y-25400D01*
X65300Y-25300D02*
X66800Y-25300D01*
X53000Y-25300D02*
X63400Y-25300D01*
X52000Y-25300D02*
X52400Y-25300D01*
X51000Y-25300D02*
X51400Y-25300D01*
X50000Y-25300D02*
X50400Y-25300D01*
X49000Y-25300D02*
X49400Y-25300D01*
X41900Y-25300D02*
X46700Y-25300D01*
X65200Y-25200D02*
X66800Y-25200D01*
X41800Y-25200D02*
X63500Y-25200D01*
M02*
