999
dxflib 2.2.0.0
  0
SECTION
  2
HEADER
  9
$ACADVER
  1
AC1015
  9
$HANDSEED
  5
FFFF
  9
$DIMASZ
 40
2.5
  9
$PLIMMIN
 10
0.0
 20
0.0
  9
$DIMEXE
 40
1.25
  9
$DIMGAP
 40
0.625
  9
$PLIMMAX
 10
210.0
 20
297.0
  9
$INSUNITS
 70
4
  9
$DIMEXO
 40
0.625
  9
$DIMTXT
 40
2.5
  9
$CLAYER
  8
0
  0
ENDSEC
  0
SECTION
  2
TABLES
  0
TABLE
  2
VPORT
  5
8
100
AcDbSymbolTable
 70
1
  0
VPORT
  5
30
100
AcDbSymbolTableRecord
100
AcDbViewportTableRecord
  2
*Active
 70
0
 10
0.0
 20
0.0
 11
1.0
 21
1.0
 12
286.3055555555554861
 22
148.5
 13
0.0
 23
0.0
 14
10.0
 24
10.0
 15
10.0
 25
10.0
 16
0.0
 26
0.0
 36
1.0
 17
0.0
 27
0.0
 37
0.0
 40
297.0
 41
1.92798353909465
 42
50.0
 43
0.0
 44
0.0
 50
0.0
 51
0.0
 71
0
 72
100
 73
1
 74
3
 75
1
 76
1
 77
0
 78
0
281
0
 65
1
110
0.0
120
0.0
130
0.0
111
1.0
121
0.0
131
0.0
112
0.0
122
1.0
132
0.0
 79
0
146
0.0
  0
ENDTAB
  0
TABLE
  2
LTYPE
  5
5
100
AcDbSymbolTable
 70
21
  0
LTYPE
  5
14
100
AcDbSymbolTableRecord
100
AcDbLinetypeTableRecord
  2
ByBlock
 70
0
  3

 72
65
 73
0
 40
0.0
  0
LTYPE
  5
15
100
AcDbSymbolTableRecord
100
AcDbLinetypeTableRecord
  2
ByLayer
 70
0
  3

 72
65
 73
0
 40
0.0
  0
LTYPE
  5
16
100
AcDbSymbolTableRecord
100
AcDbLinetypeTableRecord
  2
CONTINUOUS
 70
0
  3
Solid line
 72
65
 73
0
 40
0.0
  0
LTYPE
  5
31
100
AcDbSymbolTableRecord
100
AcDbLinetypeTableRecord
  2
DOT
 70
0
  3
Dot . . . . . . . . . . . . . . . . . . . . . .
 72
65
 73
2
 40
6.3499999999999996
 49
0.0
 74
0
 49
-6.3499999999999996
 74
0
  0
LTYPE
  5
32
100
AcDbSymbolTableRecord
100
AcDbLinetypeTableRecord
  2
DOT2
 70
0
  3
Dot (.5x) .....................................
 72
65
 73
2
 40
3.1749999999999998
 49
0.0
 74
0
 49
-3.1749999999999998
 74
0
  0
LTYPE
  5
33
100
AcDbSymbolTableRecord
100
AcDbLinetypeTableRecord
  2
DOTX2
 70
0
  3
Dot (2x) .  .  .  .  .  .  .  .  .  .  .  .  .
 72
65
 73
2
 40
12.6999999999999993
 49
0.0
 74
0
 49
-12.6999999999999993
 74
0
  0
LTYPE
  5
34
100
AcDbSymbolTableRecord
100
AcDbLinetypeTableRecord
  2
DASHED
 70
0
  3
Dashed __ __ __ __ __ __ __ __ __ __ __ __ __ _
 72
65
 73
2
 40
19.0500000000000007
 49
12.6999999999999993
 74
0
 49
-6.3499999999999996
 74
0
  0
LTYPE
  5
35
100
AcDbSymbolTableRecord
100
AcDbLinetypeTableRecord
  2
DASHED2
 70
0
  3
Dashed (.5x) _ _ _ _ _ _ _ _ _ _ _ _ _ _ _ _ _
 72
65
 73
2
 40
9.5250000000000004
 49
6.3499999999999996
 74
0
 49
-3.1749999999999998
 74
0
  0
LTYPE
  5
36
100
AcDbSymbolTableRecord
100
AcDbLinetypeTableRecord
  2
DASHEDX2
 70
0
  3
Dashed (2x) ____  ____  ____  ____  ____  ___
 72
65
 73
2
 40
38.1000000000000014
 49
25.3999999999999986
 74
0
 49
-12.6999999999999993
 74
0
  0
LTYPE
  5
37
100
AcDbSymbolTableRecord
100
AcDbLinetypeTableRecord
  2
DASHDOT
 70
0
  3
Dash dot __ . __ . __ . __ . __ . __ . __ . __
 72
65
 73
4
 40
25.3999999999999986
 49
12.6999999999999993
 74
0
 49
-6.3499999999999996
 74
0
 49
0.0
 74
0
 49
-6.3499999999999996
 74
0
  0
LTYPE
  5
38
100
AcDbSymbolTableRecord
100
AcDbLinetypeTableRecord
  2
DASHDOT2
 70
0
  3
Dash dot (.5x) _._._._._._._._._._._._._._._.
 72
65
 73
4
 40
12.6999999999999993
 49
6.3499999999999996
 74
0
 49
-3.1749999999999998
 74
0
 49
0.0
 74
0
 49
-3.1749999999999998
 74
0
  0
LTYPE
  5
39
100
AcDbSymbolTableRecord
100
AcDbLinetypeTableRecord
  2
DASHDOTX2
 70
0
  3
Dash dot (2x) ____  .  ____  .  ____  .  ___
 72
65
 73
4
 40
50.7999999999999972
 49
25.3999999999999986
 74
0
 49
-12.6999999999999993
 74
0
 49
0.0
 74
0
 49
-12.6999999999999993
 74
0
  0
LTYPE
  5
3A
100
AcDbSymbolTableRecord
100
AcDbLinetypeTableRecord
  2
DIVIDE
 70
0
  3
Divide ____ . . ____ . . ____ . . ____ . . ____
 72
65
 73
6
 40
31.75
 49
12.6999999999999993
 74
0
 49
-6.3499999999999996
 74
0
 49
0.0
 74
0
 49
-6.3499999999999996
 74
0
 49
0.0
 74
0
 49
-6.3499999999999996
 74
0
  0
LTYPE
  5
3B
100
AcDbSymbolTableRecord
100
AcDbLinetypeTableRecord
  2
DIVIDE2
 70
0
  3
Divide (.5x) __..__..__..__..__..__..__..__.._
 72
65
 73
6
 40
15.875
 49
6.3499999999999996
 74
0
 49
-3.1749999999999998
 74
0
 49
0.0
 74
0
 49
-3.1749999999999998
 74
0
 49
0.0
 74
0
 49
-3.1749999999999998
 74
0
  0
LTYPE
  5
3C
100
AcDbSymbolTableRecord
100
AcDbLinetypeTableRecord
  2
DIVIDEX2
 70
0
  3
Divide (2x) ________  .  .  ________  .  .  _
 72
65
 73
6
 40
63.5
 49
25.3999999999999986
 74
0
 49
-12.6999999999999993
 74
0
 49
0.0
 74
0
 49
-12.6999999999999993
 74
0
 49
0.0
 74
0
 49
-12.6999999999999993
 74
0
  0
LTYPE
  5
3D
100
AcDbSymbolTableRecord
100
AcDbLinetypeTableRecord
  2
CENTER
 70
0
  3
Center ____ _ ____ _ ____ _ ____ _ ____ _ ____
 72
65
 73
4
 40
50.7999999999999972
 49
31.75
 74
0
 49
-6.3499999999999996
 74
0
 49
6.3499999999999996
 74
0
 49
-6.3499999999999996
 74
0
  0
LTYPE
  5
3E
100
AcDbSymbolTableRecord
100
AcDbLinetypeTableRecord
  2
CENTER2
 70
0
  3
Center (.5x) ___ _ ___ _ ___ _ ___ _ ___ _ ___
 72
65
 73
4
 40
28.5749999999999993
 49
19.0500000000000007
 74
0
 49
-3.1749999999999998
 74
0
 49
3.1749999999999998
 74
0
 49
-3.1749999999999998
 74
0
  0
LTYPE
  5
3F
100
AcDbSymbolTableRecord
100
AcDbLinetypeTableRecord
  2
CENTERX2
 70
0
  3
Center (2x) ________  __  ________  __  _____
 72
65
 73
4
 40
101.5999999999999943
 49
63.5
 74
0
 49
-12.6999999999999993
 74
0
 49
12.6999999999999993
 74
0
 49
-12.6999999999999993
 74
0
  0
LTYPE
  5
40
100
AcDbSymbolTableRecord
100
AcDbLinetypeTableRecord
  2
BORDER
 70
0
  3
Border __ __ . __ __ . __ __ . __ __ . __ __ .
 72
65
 73
6
 40
44.4500000000000028
 49
12.6999999999999993
 74
0
 49
-6.3499999999999996
 74
0
 49
12.6999999999999993
 74
0
 49
-6.3499999999999996
 74
0
 49
0.0
 74
0
 49
-6.3499999999999996
 74
0
  0
LTYPE
  5
41
100
AcDbSymbolTableRecord
100
AcDbLinetypeTableRecord
  2
BORDER2
 70
0
  3
Border (.5x) __.__.__.__.__.__.__.__.__.__.__.
 72
65
 73
6
 40
22.2250000000000014
 49
6.3499999999999996
 74
0
 49
-3.1749999999999998
 74
0
 49
6.3499999999999996
 74
0
 49
-3.1749999999999998
 74
0
 49
0.0
 74
0
 49
-3.1749999999999998
 74
0
  0
LTYPE
  5
42
100
AcDbSymbolTableRecord
100
AcDbLinetypeTableRecord
  2
BORDERX2
 70
0
  3
Border (2x) ____  ____  .  ____  ____  .  ___
 72
65
 73
6
 40
88.9000000000000057
 49
25.3999999999999986
 74
0
 49
-12.6999999999999993
 74
0
 49
25.3999999999999986
 74
0
 49
-12.6999999999999993
 74
0
 49
0.0
 74
0
 49
-12.6999999999999993
 74
0
  0
ENDTAB
  0
TABLE
  2
LAYER
  5
2
100
AcDbSymbolTable
 70
1
  0
LAYER
  5
10
100
AcDbSymbolTableRecord
100
AcDbLayerTableRecord
  2
0
 70
0
 62
7
420
0
  6
CONTINUOUS
370
25
390
F
  0
ENDTAB
  0
TABLE
  2
STYLE
  5
3
100
AcDbSymbolTable
 70
1
  0
STYLE
  5
11
100
AcDbSymbolTableRecord
100
AcDbTextStyleTableRecord
  2
Standard
 70
0
 40
0.0
 41
0.75
 50
0.0
 71
0
 42
2.5
  3
txt
  4

  0
ENDTAB
  0
TABLE
  2
VIEW
  5
6
100
AcDbSymbolTable
 70
0
  0
ENDTAB
  0
TABLE
  2
UCS
  5
7
100
AcDbSymbolTable
 70
0
  0
ENDTAB
  0
TABLE
  2
APPID
  5
9
100
AcDbSymbolTable
 70
1
  0
APPID
  5
12
100
AcDbSymbolTableRecord
100
AcDbRegAppTableRecord
  2
ACAD
 70
0
  0
ENDTAB
  0
TABLE
  2
DIMSTYLE
  5
A
100
AcDbSymbolTable
 70
1
100
AcDbDimStyleTable
 71
0
  0
DIMSTYLE
105
27
100
AcDbSymbolTableRecord
100
AcDbDimStyleTableRecord
  2
Standard
 41
2.5
 42
0.625
 43
3.75
 44
1.25
 70
0
 73
0
 74
0
 77
1
 78
8
140
2.5
141
2.5
143
0.03937007874016
147
0.625
171
3
172
1
271
2
272
2
274
3
278
44
283
0
284
8
340
11
  0
ENDTAB
  0
TABLE
  2
BLOCK_RECORD
  5
1
100
AcDbSymbolTable
 70
1
  0
BLOCK_RECORD
  5
1F
100
AcDbSymbolTableRecord
100
AcDbBlockTableRecord
  2
*Model_Space
340
22
  0
BLOCK_RECORD
  5
1B
100
AcDbSymbolTableRecord
100
AcDbBlockTableRecord
  2
*Paper_Space
340
1E
  0
BLOCK_RECORD
  5
23
100
AcDbSymbolTableRecord
100
AcDbBlockTableRecord
  2
*Paper_Space0
340
26
  0
ENDTAB
  0
ENDSEC
  0
SECTION
  2
BLOCKS
  0
BLOCK
  5
20
100
AcDbEntity
  8
0
100
AcDbBlockBegin
  2
*Model_Space
 70
0
 10
0.0
 20
0.0
 30
0.0
  3
*Model_Space
  1

  0
ENDBLK
  5
21
100
AcDbEntity
  8
0
100
AcDbBlockEnd
  0
BLOCK
  5
1C
100
AcDbEntity
 67
1
  8
0
100
AcDbBlockBegin
  2
*Paper_Space
 70
0
 10
0.0
 20
0.0
 30
0.0
  3
*Paper_Space
  1

  0
ENDBLK
  5
1D
100
AcDbEntity
 67
1
  8
0
100
AcDbBlockEnd
  0
BLOCK
  5
24
100
AcDbEntity
  8
0
100
AcDbBlockBegin
  2
*Paper_Space0
 70
0
 10
0.0
 20
0.0
 30
0.0
  3
*Paper_Space0
  1

  0
ENDBLK
  5
25
100
AcDbEntity
  8
0
100
AcDbBlockEnd
  0
ENDSEC
  0
SECTION
  2
ENTITIES
  0
LWPOLYLINE
  5
43
  8
0
 62
256
370
5
  6
ByLayer
100
AcDbEntity
100
AcDbPolyline
 90
355
 70
0
 10
17.6167109144476264
 20
9.0839251412609627
 10
17.6475572144317852
 20
8.2642209365873533
 10
17.6731215012874578
 20
7.3806058038168789
 10
17.6938831012477742
 20
6.4297361877301036
 10
17.710321340545871
 20
5.4082685331075897
 10
17.7229155454148888
 20
4.3128592847298988
 10
17.7321450420879643
 20
3.1401648873775923
 10
17.7384891567982308
 20
1.8868417858312363
 10
17.7424272157788181
 20
0.5495464248713897
 10
17.7444385452628737
 20
-0.8750647507213836
 10
17.7450024714835308
 20
-2.3903352961665543
 10
17.744444517977243
 20
-3.8019579331114963
 10
17.7425641145977302
 20
-5.1311651434337557
 10
17.73905144705396
 20
-6.3806212892152345
 10
17.7335967010549211
 20
-7.5529907325378387
 10
17.7258900623095741
 20
-8.6509378354834627
 10
17.7156217165269112
 20
-9.6771269601340162
 10
17.7024818494158858
 20
-10.634222468571398
 10
17.686160646685483
 20
-11.5248887228775097
 10
17.6663482940446741
 20
-12.3517900851342475
 10
17.64273497720243
 20
-13.1175909174235237
 10
17.6150108818677396
 20
-13.8249555818272398
 10
17.5828661937495561
 20
-14.4765484404272868
 10
17.5459910985568683
 20
-15.0750338553055787
 10
17.5040757819986439
 20
-15.6230761885440099
 10
17.4568104297838538
 20
-16.1233398022244891
 10
17.4038852276214797
 20
-16.5784890584289109
 10
17.3449903612204928
 20
-16.9911883192391819
 10
17.279816016289864
 20
-17.364101946737204
 10
17.208052378538568
 20
-17.699894303004875
 10
17.1293896336755829
 20
-18.0012297501241001
 10
17.0435179674098798
 20
-18.2707726501767844
 10
16.9501275654504333
 20
-18.5111873652448224
 10
16.848908613506218
 20
-18.7251382574101228
 10
16.7395512972862015
 20
-18.9152896887545836
 10
16.6217458024993689
 20
-19.0843060213601099
 10
16.4951823148546843
 20
-19.2348516173085997
 10
16.3595510200611294
 20
-19.3695908386819617
 10
16.2145421038276751
 20
-19.4911880475620869
 10
16.0598457518632891
 20
-19.6023076060308874
 10
15.8951521498769566
 20
-19.7056138761702648
 10
15.7201514835776415
 20
-19.8037712200621137
 10
15.5460229816660007
 20
-19.8889023573450174
 10
15.3630266229394525
 20
-19.9631148815907196
 10
15.172023962124241
 20
-20.0266294020873374
 10
14.9738765539466065
 20
-20.0796665281229849
 10
14.7694459531327791
 20
-20.1224468689858043
 10
14.5595937144089991
 20
-20.1551910339639093
 10
14.3451813925014999
 20
-20.1781196323454104
 10
14.1270705421365239
 20
-20.1914532734184462
 10
13.9061227180403044
 20
-20.1954125664711306
 10
13.6831994749390784
 20
-20.1902181207915881
 10
13.4591623675590881
 20
-20.1760905456679467
 10
13.2348729506265617
 20
-20.1532504503883168
 10
13.0111927788677413
 20
-20.1219184442408334
 10
12.7889834070088639
 20
-20.0823151365136034
 10
12.5691063897761648
 20
-20.0346611364947655
 10
12.352423281895879
 20
-19.97917705347243
 10
12.1397956380942489
 20
-19.9160834967347213
 10
11.9320850130975078
 20
-19.8456010755697676
 10
11.7301529616318909
 20
-19.7679503992656862
 10
11.5348610384236387
 20
-19.6833520771106016
 10
11.3470707981989865
 20
-19.5920267183926384
 10
11.167643795684171
 20
-19.4941949323999104
 10
10.9974415856054311
 20
-19.3900773284205457
 10
10.8373257226890001
 20
-19.2798945157426651
 10
10.6881577616611168
 20
-19.1638671036543933
 10
10.550799257248018
 20
-19.0422157014438511
 10
10.4261117641759427
 20
-18.9151609183991631
 10
10.314956837171124
 20
-18.7829233638084467
 10
10.2181960309598008
 20
-18.6457236469598264
 10
10.1366909002682117
 20
-18.5037823771414232
 10
10.0713029998225885
 20
-18.3573201636413614
 10
10.057582308522818
 20
-18.3009639034193583
 10
10.0440418310957575
 20
-18.2045713480670273
 10
10.030699850242069
 20
-18.0692325728095611
 10
10.017574648662416
 20
-17.8960376528721596
 10
10.0046845090574674
 20
-17.6860766634800193
 10
9.9920477141278834
 20
-17.4404396798583328
 10
9.9796825465743293
 20
-17.1602167772322929
 10
9.9676072890974687
 20
-16.8464980308271031
 10
9.9558402243979653
 20
-16.500373515867949
 10
9.9443996351764863
 20
-16.1229333075800341
 10
9.9333038041336952
 20
-15.7152674811885529
 10
9.9225710139702574
 20
-15.2784661119186946
 10
9.9122195473868349
 20
-14.8136192749956557
 10
9.9022676870840893
 20
-14.3218170456446376
 10
9.8927337157626898
 20
-13.8041494990908298
 10
9.8836359161232998
 20
-13.2617067105594284
 10
9.8749925708665831
 20
-12.6955787552756316
 10
9.8668219626932014
 20
-12.106855708464634
 10
9.8591423743038256
 20
-11.4966276453516265
 10
9.851972088399112
 20
-10.8659846411618055
 10
9.8453293876797314
 20
-10.2160167711203727
 10
9.839232554846344
 20
-9.5478141104525172
 10
9.833699872599615
 20
-8.8624667343834371
 10
9.8287496236402099
 20
-8.1610647181383271
 10
9.8244000906687923
 20
-7.444698136942379
 10
9.8206695563860258
 20
-6.7144570660207945
 10
9.8175763034925794
 20
-5.9714315805987637
 10
9.8151386146891095
 20
-5.2167117559014837
 10
9.8133747726762852
 20
-4.4513876671541501
 10
9.8123030601547718
 20
-3.6765493895819583
 10
9.8119417598252294
 20
-2.8932869984100864
 10
9.8119417598254604
 20
11.8948588619841757
 10
6.904279323387529
 20
11.8948588619841757
 10
3.9966198458193953
 20
11.8948588619844031
 10
3.8771894916419574
 20
-3.1727434048420946
 10
3.7577635757691019
 20
-18.2403456716651817
 10
2.5862758815037563
 20
-19.2476264302003948
 10
2.4347735519686964
 20
-19.3723542133573865
 10
2.2802003767911918
 20
-19.4887668109705814
 10
2.1227681381108292
 20
-19.5968642230399759
 10
1.9626886180671976
 20
-19.69664644956557
 10
1.800173598799883
 20
-19.7881134905473708
 10
1.6354348624484747
 20
-19.8712653459853783
 10
1.4686841911525579
 20
-19.946102015879589
 10
1.3001333670517223
 20
-20.0126235002300064
 10
1.1299941722855542
 20
-20.0708297990366269
 10
0.9584783889936417
 20
-20.1207209122994577
 10
0.7857977993155723
 20
-20.1622968400184952
 10
0.612164185390933
 20
-20.195557582193743
 10
0.4377893293593119
 20
-20.2205031388251975
 10
0.2628850133602962
 20
-20.2371335099128657
 10
0.0876630195334735
 20
-20.2454486954567408
 10
-0.0876648699815684
 20
-20.2454486954568296
 10
-0.2628868730452424
 20
-20.2371335099131322
 10
-0.4377912075179606
 20
-20.2205031388256415
 10
-0.6121660912601357
 20
-20.1955575821943718
 10
-0.7857997421321798
 20
-20.1622968400193123
 10
-0.958480377994506
 20
-20.1207209123004702
 10
-1.1299962167075261
 20
-20.0708297990378455
 10
-1.3001354761316533
 20
-20.0126235002314345
 10
-1.4686863741272993
 20
-19.9461020158812374
 10
-1.6354371285548768
 20
-19.8712653459872648
 10
-1.8001759572747984
 20
-19.788113490549506
 10
-1.9626910781474769
 20
-19.6966464495679752
 10
-2.1227707090333241
 20
-19.5968642230426582
 10
-2.2802030677927529
 20
-19.4887668109735621
 10
-2.4347763722861755
 20
-19.3723542133606905
 10
-2.5862788403740078
 20
-19.2476264302040363
 10
-3.7577665346391282
 20
-18.2403456716624532
 10
-3.8771924505113029
 20
-3.1727434048420928
 10
-3.9966228046894212
 20
11.8948588619841775
 10
-6.9042808028220799
 20
11.8948588619844067
 10
-9.8119432392602448
 20
11.8948588619841757
 10
-9.8119432392600174
 20
-2.8932869984096206
 10
-9.8123045351201377
 20
-3.6765493895815298
 10
-9.8133762348292706
 20
-4.4513876671537895
 10
-9.8151400565806384
 20
-5.2167117559012013
 10
-9.8175777185674686
 20
-5.9714315805985683
 10
-9.8206709389829818
 20
-6.7144570660206897
 10
-9.8244014360204073
 20
-7.444698136942371
 10
-9.8287509278729619
 20
-8.1610647181384106
 10
-9.8337011327338804
 20
-8.862466734383613
 10
-9.8392337687963742
 20
-9.5478141104527747
 10
-9.8453305542536782
 20
-10.2160167711207031
 10
-9.8519732072990145
 20
-10.8659846411621999
 10
-9.8591434461256053
 20
-11.4966276453520653
 10
-9.866822988926673
 20
-12.1068557084651012
 10
-9.8749935538954485
 20
-12.6955787552761077
 10
-9.8836368592251507
 20
-13.2617067105598885
 10
-9.8927346231090016
 20
-13.8041494990912454
 10
-9.9022685637402326
 20
-14.3218170456449805
 10
-9.9122203993120657
 20
-14.8136192749958937
 10
-9.9225718480177214
 20
-15.2784661119187888
 10
-9.9333046280504274
 20
-15.7152674811884658
 10
-9.9444004576034075
 20
-16.1229333075797285
 10
-9.9558410548698859
 20
-16.500373515867377
 10
-9.9676081380430865
 20
-16.8464980308262149
 10
-9.9796834253162334
 20
-17.1602167772310423
 10
-9.9920486348825506
 20
-17.4404396798566594
 10
-10.0046854849352638
 20
-17.6860766634778699
 10
-10.0175756936675988
 20
-17.8960376528694809
 10
-10.0307009792727762
 20
-18.0692325728062855
 10
-10.0440430599440198
 20
-18.2045713480630873
 10
-10.0575836538745591
 20
-18.3009639034146936
 10
-10.0713044792576145
 20
-18.3573201636359009
 10
-10.1373140887113209
 20
-18.5042506845046368
 10
-10.2202938860159982
 20
-18.6466999568946576
 10
-10.3193077467802894
 20
-18.7844352018223724
 10
-10.4334195466128463
 20
-18.9172236403042113
 10
-10.5616931611223173
 20
-19.0448324933565729
 10
-10.7031924659173576
 20
-19.167028981995891
 10
-10.856981336606605
 20
-19.2835803272385604
 10
-11.022123648798722
 20
-19.3942537501010079
 10
-11.1976832781023461
 20
-19.4988164715996533
 10
-11.3827241001261328
 20
-19.5970357127509054
 10
-11.5763099904787357
 20
-19.6886786945711805
 10
-11.7775048247687941
 20
-19.7735126380768946
 10
-11.9853724786049671
 20
-19.8513047642844604
 10
-12.1989768275958959
 20
-19.9218222942103012
 10
-12.4173817473502339
 20
-19.9848324488708222
 10
-12.6396511134766314
 20
-20.0401024492824433
 10
-12.8648488015837348
 20
-20.0873995164615842
 10
-13.0920386872801959
 20
-20.1264908714246538
 10
-13.3202846461746631
 20
-20.1571437351880682
 10
-13.5486505538757847
 20
-20.1791253287682437
 10
-13.7762002859922124
 20
-20.1922028731816035
 10
-14.0019977181325928
 20
-20.1961435894445493
 10
-14.2251067259055759
 20
-20.1907146985735082
 10
-14.4445911849198154
 20
-20.1756834215848855
 10
-14.6595149707839543
 20
-20.1508169794951044
 10
-14.8689419591066425
 20
-20.1158825933205776
 10
-15.0719360254965373
 20
-20.0706474840777211
 10
-15.2675610455622799
 20
-20.0148788727829476
 10
-15.4548808949125203
 20
-19.9483439804526768
 10
-15.6329594491559121
 20
-19.8708100281033211
 10
-15.8008605839011054
 20
-19.7820442367512932
 10
-15.8008605839011054
 20
-19.7820442367512932
 10
-15.9676052509979538
 20
-19.6803871951291605
 10
-16.1246215866688836
 20
-19.5733495060454743
 10
-16.2721985189051317
 20
-19.4584003480968875
 10
-16.4106249756979459
 20
-19.3330088998800704
 10
-16.5401898850385649
 20
-19.1946443399916866
 10
-16.6611821749182383
 20
-19.0407758470284065
 10
-16.7738907733281906
 20
-18.8688725995868829
 10
-16.8786046082596783
 20
-18.6764037762637862
 10
-16.975612607703944
 20
-18.4608385556557764
 10
-17.0652036996522192
 20
-18.2196461163595274
 10
-17.1476668120957605
 20
-17.9502956369716991
 10
-17.2232908730257996
 20
-17.6502562960889442
 10
-17.292364810433579
 20
-17.3169972723079439
 10
-17.355177552310348
 20
-16.9479877442253475
 10
-17.4120180266473383
 20
-16.5406968904378324
 10
-17.4631751614357995
 20
-16.0925938895420479
 10
-17.5089378846669703
 20
-15.6011479201346717
 10
-17.5495951243320967
 20
-15.0638281608123616
 10
-17.5854358084224138
 20
-14.4781037901717831
 10
-17.6167488649291641
 20
-13.8414439868095958
 10
-17.6438232218436042
 20
-13.151317929322472
 10
-17.6669478071569586
 20
-12.4051947963070699
 10
-17.6864115488604767
 20
-11.6005437663600564
 10
-17.702503374945401
 20
-10.7348340180780912
 10
-17.7155122134029668
 20
-9.8055347300578433
 10
-17.7257269922244234
 20
-8.8101150808959758
 10
-17.7334366394010168
 20
-7.7460442491891506
 10
-17.7389300829239787
 20
-6.6107914135340327
 10
-17.7424962507845585
 20
-5.4018257525272864
 10
-17.7444240709739915
 20
-4.1166164447655769
 10
-17.7450024714835308
 20
-2.7526326688455378
 10
-17.7443942395820358
 20
-1.2524354916102587
 10
-17.7422891342460787
 20
0.1595066662611073
 10
-17.7382665410284055
 20
1.4864106295475636
 10
-17.7319058454817586
 20
2.731493223028115
 10
-17.7227864331588769
 20
3.8979712714817634
 10
-17.7104876896125063
 20
4.9890615996875152
 10
-17.6945890003953856
 20
6.0079810324243725
 10
-17.6746697510602608
 20
6.9579463944713407
 10
-17.6503093271598601
 20
7.8421745106074194
 10
-17.621087114246933
 20
8.6638822056116194
 10
-17.5865824978742324
 20
9.4262863042629412
 10
-17.5463748635944832
 20
10.1326036313403893
 10
-17.5000435969604382
 20
10.7860510116229662
 10
-17.4471680835248293
 20
11.3898452698896779
 10
-17.3873277088404095
 20
11.9472032309195288
 10
-17.3201018584599069
 20
12.4613417194915197
 10
-17.2450699179360747
 20
12.9354775603846566
 10
-17.1618112728216481
 20
13.3728275783779438
 10
-17.069905308669366
 20
13.7766085982503874
 10
-16.9689314110319778
 20
14.1500374447809811
 10
-16.8584689654622224
 20
14.4963309427487452
 10
-16.7380973575128422
 20
14.8187059169326716
 10
-16.6073959727365761
 20
15.1203791921117663
 10
-16.4659441966861628
 20
15.4045675930650336
 10
-16.3133214149143519
 20
15.674487944571478
 10
-16.1491070129738752
 20
15.9333570714101036
 10
-15.9728803764174874
 20
16.1843917983599184
 10
-15.7842208907979167
 20
16.4308089501999177
 10
-15.5827079416679126
 20
16.6758253517091148
 10
-15.3679209145802158
 20
16.9226578276665052
 10
-15.1394391950875598
 20
17.1745232028511055
 10
-14.8960609188699369
 20
17.4340167244850903
 10
-14.6568551682778931
 20
17.6786539730734518
 10
-14.4196986152646751
 20
17.9088653809383551
 10
-14.1824679317835454
 20
18.1250813804019835
 10
-13.9430397897877452
 20
18.3277324037865093
 10
-13.6992908612305282
 20
18.5172488834140978
 10
-13.449097818065141
 20
18.6940612516069251
 10
-13.1903373322448356
 20
18.8585999406871707
 10
-12.9208860757228621
 20
19.0112953829769964
 10
-12.6386207204524705
 20
19.1525780107985852
 10
-12.3414179383869147
 20
19.2828782564741132
 10
-12.0271544014794394
 20
19.4026265523257386
 10
-11.6937067816832929
 20
19.512253330675648
 10
-11.3389517509517344
 20
19.6121890238460104
 10
-10.9607659812380049
 20
19.702864064158998
 10
-10.5570261444953584
 20
19.78470888393678
 10
-10.1256089126770483
 20
19.8581539155015356
 10
-9.6643909577363196
 20
19.9236295911754375
 10
-9.1712489516264242
 20
19.9815663432806545
 10
-8.6440595663006103
 20
20.0323946041393626
 10
-8.0806994737121336
 20
20.0765448060737377
 10
-7.4790453458142387
 20
20.1144473814059452
 10
-6.8369738545601768
 20
20.1465327624581683
 10
-6.1523616719032006
 20
20.1732313815525686
 10
-5.4230854697965576
 20
20.1949736710113328
 10
-4.6470219201934979
 20
20.2121900631566191
 10
-3.8220476950472739
 20
20.2253109903106107
 10
-2.9460394663111344
 20
20.2347668847954836
 10
-2.0168739059383296
 20
20.2409881789333994
 10
-1.0324276858821091
 20
20.2444053050465378
 10
0.0094225219042983
 20
20.2454486954570712
 10
1.0148806197642151
 20
20.244404665618287
 10
1.9661479272736047
 20
20.2410247216894703
 10
2.8652088717474058
 20
20.2349370820519496
 10
3.7140478805005568
 20
20.2257699650870642
 10
4.5146493808479953
 20
20.2131515891761282
 10
5.2689978001046622
 20
20.1967101727004739
 10
5.9790775655854942
 20
20.1760739340414226
 10
6.6468731046054303
 20
20.1508710915803029
 10
7.2743688444794055
 20
20.1207298636984397
 10
7.8635492125223632
 20
20.0852784687771724
 10
8.4163986360492444
 20
20.0441451251978151
 10
8.9349015423749805
 20
19.9969580513416965
 10
9.4210423588145122
 20
19.9433454655901414
 10
9.876805512682779
 20
19.882935586324475
 10
10.3041754312947198
 20
19.8153566319260364
 10
10.7051365419652722
 20
19.7402368207761327
 10
11.0816732720093718
 20
19.6572043712561104
 10
11.4357700487419649
 20
19.5658875017472802
 10
11.7694112994779836
 20
19.4659144306309742
 10
12.0845814515323653
 20
19.3569133762885208
 10
12.3832649322200545
 20
19.2385125571012487
 10
12.6674461688559852
 20
19.1103401914504758
 10
12.9391095887550982
 20
18.9720244977175376
 10
13.2002396192323292
 20
18.8231936942837557
 10
13.4528206876026175
 20
18.6634759995304549
 10
13.698837221180904
 20
18.4924996318389674
 10
13.940273647282126
 20
18.3098928095906217
 10
14.1791143932212211
 20
18.1152837511667322
 10
14.4173438863131267
 20
17.9083006749486344
 10
14.6569465538727837
 20
17.688571799317657
 10
14.8999068232151348
 20
17.4557253426551142
 10
15.1523997587520185
 20
17.2057893723255688
 10
15.3895448302645566
 20
16.962157133507354
 10
15.6118213639858787
 20
16.7214850709810214
 10
15.8197086861491236
 20
16.4804296295271406
 10
16.0136861229874299
 20
16.2356472539262668
 10
16.1942330007339379
 20
15.9837943889589766
 10
16.3618286456217703
 20
15.7215274794058146
 10
16.5169523838840746
 20
15.4455029700473556
 10
16.6600835417539841
 20
15.1523773056641566
 10
16.7917014454646321
 20
14.8388069310367854
 10
16.9122854212491625
 20
14.5014482909458025
 10
17.022314795340705
 20
14.1369578301717667
 10
17.1222688939723966
 20
13.7419919934952421
 10
17.212627043377374
 20
13.313207225696793
 10
17.2938685697887706
 20
12.84725997155698
 10
17.3664727994397232
 20
12.3408066758563635
 10
17.4309190585633722
 20
11.7905037833755113
 10
17.4876866733928509
 20
11.193007738894984
 10
17.5372549701612961
 20
10.5449749871953387
 10
17.5801032751018411
 20
9.8430619730571447
 10
17.6167109144476264
 20
9.0839251412609627
  0
ENDSEC
  0
SECTION
  2
OBJECTS
  0
DICTIONARY
  5
C
100
AcDbDictionary
280
0
281
1
  3
ACAD_GROUP
350
D
  3
ACAD_LAYOUT
350
1A
  3
ACAD_MLINESTYLE
350
17
  3
ACAD_PLOTSETTINGS
350
19
  3
ACAD_PLOTSTYLENAME
350
E
  3
AcDbVariableDictionary
350
44
  0
DICTIONARY
  5
D
100
AcDbDictionary
280
0
281
1
  0
ACDBDICTIONARYWDFLT
  5
E
100
AcDbDictionary
281
1
  3
Normal
350
F
100
AcDbDictionaryWithDefault
340
F
  0
ACDBPLACEHOLDER
  5
F
  0
DICTIONARY
  5
17
100
AcDbDictionary
280
0
281
1
  3
Standard
350
18
  0
MLINESTYLE
  5
18
100
AcDbMlineStyle
  2
STANDARD
 70
0
  3

 62
256
 51
90.0
 52
90.0
 71
2
 49
0.5
 62
256
  6
BYLAYER
 49
-0.5
 62
256
  6
BYLAYER
  0
DICTIONARY
  5
19
100
AcDbDictionary
280
0
281
1
  0
DICTIONARY
  5
1A
100
AcDbDictionary
281
1
  3
Layout1
350
1E
  3
Layout2
350
26
  3
Model
350
22
  0
LAYOUT
  5
1E
100
AcDbPlotSettings
  1

  2
C:\Program Files\AutoCAD 2002\plotters\DWF ePlot (optimized for plotting).pc3
  4

  6

 40
0.0
 41
0.0
 42
0.0
 43
0.0
 44
0.0
 45
0.0
 46
0.0
 47
0.0
 48
0.0
 49
0.0
140
0.0
141
0.0
142
1.0
143
1.0
 70
688
 72
0
 73
0
 74
5
  7

 75
16
147
1.0
148
0.0
149
0.0
100
AcDbLayout
  1
Layout1
 70
1
 71
1
 10
0.0
 20
0.0
 11
420.0
 21
297.0
 12
0.0
 22
0.0
 32
0.0
 14
100000000000000000000.0
 24
100000000000000000000.0
 34
100000000000000000000.0
 15
-100000000000000000000.0
 25
-100000000000000000000.0
 35
-100000000000000000000.0
146
0.0
 13
0.0
 23
0.0
 33
0.0
 16
1.0
 26
0.0
 36
0.0
 17
0.0
 27
1.0
 37
0.0
 76
0
330
1B
  0
LAYOUT
  5
22
100
AcDbPlotSettings
  1

  2
C:\Program Files\AutoCAD 2002\plotters\DWF ePlot (optimized for plotting).pc3
  4

  6

 40
0.0
 41
0.0
 42
0.0
 43
0.0
 44
0.0
 45
0.0
 46
0.0
 47
0.0
 48
0.0
 49
0.0
140
0.0
141
0.0
142
1.0
143
1.0
 70
1712
 72
0
 73
0
 74
0
  7

 75
0
147
1.0
148
0.0
149
0.0
100
AcDbLayout
  1
Model
 70
1
 71
0
 10
0.0
 20
0.0
 11
12.0
 21
9.0
 12
0.0
 22
0.0
 32
0.0
 14
0.0
 24
0.0
 34
0.0
 15
0.0
 25
0.0
 35
0.0
146
0.0
 13
0.0
 23
0.0
 33
0.0
 16
1.0
 26
0.0
 36
0.0
 17
0.0
 27
1.0
 37
0.0
 76
0
330
1F
  0
LAYOUT
  5
26
100
AcDbPlotSettings
  1

  2
C:\Program Files\AutoCAD 2002\plotters\DWF ePlot (optimized for plotting).pc3
  4

  6

 40
0.0
 41
0.0
 42
0.0
 43
0.0
 44
0.0
 45
0.0
 46
0.0
 47
0.0
 48
0.0
 49
0.0
140
0.0
141
0.0
142
1.0
143
1.0
 70
688
 72
0
 73
0
 74
5
  7

 75
16
147
1.0
148
0.0
149
0.0
100
AcDbLayout
  1
Layout2
 70
1
 71
2
 10
0.0
 20
0.0
 11
12.0
 21
9.0
 12
0.0
 22
0.0
 32
0.0
 14
0.0
 24
0.0
 34
0.0
 15
0.0
 25
0.0
 35
0.0
146
0.0
 13
0.0
 23
0.0
 33
0.0
 16
1.0
 26
0.0
 36
0.0
 17
0.0
 27
1.0
 37
0.0
 76
0
330
23
  0
DICTIONARY
  5
44
100
AcDbDictionary
281
1
  3
DIMASSOC
350
46
  3
HIDETEXT
350
45
  0
DICTIONARYVAR
  5
45
100
DictionaryVariables
280
0
  1
2
  0
DICTIONARYVAR
  5
46
100
DictionaryVariables
280
0
  1
1
  0
ENDSEC
  0
EOF
