G75*
G70*
%OFA0B0*%
%FSLAX24Y24*%
%IPPOS*%
%LPD*%
%AMOC8*
5,1,8,0,0,1.08239X$1,22.5*
%
%ADD10OC8,0.0600*%
%ADD11C,0.0680*%
D10*
X007262Y002769D03*
X009262Y002769D03*
X014512Y004769D03*
X016512Y004769D03*
X021512Y004769D03*
X023512Y004769D03*
X028512Y004769D03*
X030512Y004769D03*
D11*
X006312Y001769D02*
X005712Y001769D01*
X005712Y002769D02*
X006312Y002769D01*
X006312Y003769D02*
X005712Y003769D01*
X005712Y004769D02*
X006312Y004769D01*
X006312Y005769D02*
X005712Y005769D01*
X005712Y006769D02*
X006312Y006769D01*
X007712Y006769D02*
X008312Y006769D01*
X009712Y006019D02*
X010312Y006019D01*
X012712Y005769D02*
X013312Y005769D01*
X013312Y006769D02*
X012712Y006769D01*
X014962Y006769D02*
X015562Y006769D01*
X015562Y007769D02*
X014962Y007769D01*
X013312Y007769D02*
X012712Y007769D01*
X012712Y008769D02*
X013312Y008769D01*
X014962Y008769D02*
X015562Y008769D01*
X019712Y008769D02*
X020312Y008769D01*
X022212Y008769D02*
X022812Y008769D01*
X022812Y007769D02*
X022212Y007769D01*
X020312Y007769D02*
X019712Y007769D01*
X019712Y006769D02*
X020312Y006769D01*
X022212Y006769D02*
X022812Y006769D01*
X020312Y005769D02*
X019712Y005769D01*
X019712Y004769D02*
X020312Y004769D01*
X020312Y003769D02*
X019712Y003769D01*
X019712Y002769D02*
X020312Y002769D01*
X020312Y001769D02*
X019712Y001769D01*
X013312Y001769D02*
X012712Y001769D01*
X012712Y002769D02*
X013312Y002769D01*
X013312Y003769D02*
X012712Y003769D01*
X012712Y004769D02*
X013312Y004769D01*
X010312Y005019D02*
X009712Y005019D01*
X008312Y007769D02*
X007712Y007769D01*
X006312Y007769D02*
X005712Y007769D01*
X005712Y008769D02*
X006312Y008769D01*
X007712Y008769D02*
X008312Y008769D01*
X010012Y010219D02*
X010012Y010819D01*
X011012Y010819D02*
X011012Y010219D01*
X012012Y010219D02*
X012012Y010819D01*
X013012Y010819D02*
X013012Y010219D01*
X017012Y010219D02*
X017012Y010819D01*
X018012Y010819D02*
X018012Y010219D01*
X019012Y010219D02*
X019012Y010819D01*
X020012Y010819D02*
X020012Y010219D01*
X024012Y010219D02*
X024012Y010819D01*
X025012Y010819D02*
X025012Y010219D01*
X026012Y010219D02*
X026012Y010819D01*
X027012Y010819D02*
X027012Y010219D01*
X027312Y008769D02*
X026712Y008769D01*
X029212Y008769D02*
X029812Y008769D01*
X029812Y007769D02*
X029212Y007769D01*
X027312Y007769D02*
X026712Y007769D01*
X026712Y006769D02*
X027312Y006769D01*
X029212Y006769D02*
X029812Y006769D01*
X027312Y005769D02*
X026712Y005769D01*
X026712Y004769D02*
X027312Y004769D01*
X027312Y003769D02*
X026712Y003769D01*
X026712Y002769D02*
X027312Y002769D01*
X027312Y001769D02*
X026712Y001769D01*
M02*
