M48
INCH,TZ
T1C0.025
T2C0.032
T3C0.040
%
G05
T1
X81890Y-23622
X44094Y-23622
X44094Y-46457
X81890Y-46457
X50200Y-43500
X67300Y-31300
X76600Y-43800
X70900Y-38400
X76400Y-35800
X55800Y-44400
X69200Y-42000
X69200Y-35800
X62500Y-40100
X69100Y-34800
X78400Y-34800
X73000Y-34800
X62400Y-30700
X62500Y-36100
X75400Y-43900
X51300Y-36900
X61700Y-38100
X63200Y-39100
X63200Y-29600
X56500Y-38100
X62900Y-25200
X47700Y-23600
X67000Y-23700
X55900Y-39100
X56500Y-29600
X47700Y-30300
X52400Y-31300
X53300Y-30600
X52300Y-29600
X56300Y-41100
X70700Y-26600
X64300Y-35100
X65100Y-34100
X74200Y-26300
X75700Y-32400
X75700Y-27200
X71900Y-34700
X72400Y-42700
X66100Y-31400
X66100Y-33900
X73400Y-41800
X67000Y-32300
X67000Y-33900
X74400Y-41100
X75900Y-36700
X64000Y-41000
X79500Y-39000
X77000Y-31000
T2
X48500Y-45500
X48500Y-42500
X48500Y-40300
X48500Y-37300
X50400Y-35700
X50400Y-32700
X44700Y-44500
X44700Y-43500
X44700Y-39300
X44700Y-38300
X44700Y-34900
X44700Y-33900
X51200Y-24500
X50200Y-24500
X48200Y-26500
X51200Y-26500
X58900Y-23700
X57900Y-23700
X56900Y-23700
X58900Y-29600
X58900Y-26600
X53400Y-28000
X53400Y-25000
X55900Y-28000
X55900Y-25000
X55200Y-23700
X54200Y-23700
X53200Y-23700
X60800Y-29600
X60800Y-26600
X62900Y-27100
X62900Y-24100
X64900Y-23700
X65900Y-23700
X46400Y-31300
X46400Y-30300
X46400Y-29300
X46400Y-28300
X46400Y-27300
X46400Y-26300
X46400Y-25300
X59000Y-45500
X59000Y-43500
X61500Y-24500
X60500Y-24500
X68200Y-23700
X69200Y-23700
X66200Y-26600
X69200Y-26600
X66200Y-25100
X69200Y-25100
X64100Y-25400
X64100Y-28400
X67300Y-27900
X67300Y-28900
X71700Y-23700
X70700Y-23700
X74200Y-23700
X73200Y-23700
X71400Y-40100
X71900Y-38100
X72400Y-40100
X72900Y-38100
X73400Y-40100
X73900Y-38100
X74400Y-40100
X74900Y-38100
X75400Y-40100
X75900Y-38100
X76400Y-40100
X76900Y-38100
X77400Y-40100
X77900Y-38100
X78400Y-40100
X67800Y-37900
X67800Y-38900
X67800Y-39900
X67800Y-40900
X67800Y-41900
X60500Y-41100
X60500Y-40100
X60500Y-39100
X60500Y-38100
X60500Y-37100
X60500Y-36100
X60500Y-35100
X60500Y-34100
X60500Y-33100
X57500Y-33100
X57500Y-34100
X57500Y-35100
X57500Y-36100
X57500Y-37100
X57500Y-38100
X57500Y-39100
X57500Y-40100
X57500Y-41100
X81400Y-41000
X81400Y-42000
X76700Y-23700
X77700Y-23700
X78700Y-23700
X79700Y-23700
X69200Y-45600
X69200Y-44600
X68200Y-44600
X78700Y-25000
X80700Y-25000
X75700Y-25000
X77700Y-25000
T3
X46700Y-42500
X46700Y-43500
X46700Y-44500
X46700Y-37300
X46700Y-38300
X46700Y-39300
X46700Y-32900
X46700Y-33900
X46700Y-34900
X78400Y-45700
X78400Y-43700
X65000Y-45500
X65000Y-43500
X78500Y-29600
X82500Y-29600
X78500Y-31000
X82500Y-31000
X78500Y-28200
X82500Y-28200
X78500Y-32400
X82500Y-32400
X70300Y-29600
X74300Y-29600
X70300Y-31000
X74300Y-31000
X70300Y-28200
X74300Y-28200
X70300Y-32400
X74300Y-32400
T0
M30
