G04 (Genere par PCBNEW (2007-01-15)) le 17/3/2007-20:11:10*
G01*
G70*
G90*
%MOIN*%
G04 Gerber Fmt 3.4, Leading zero omitted, Abs format*
%FSLAX34Y34*%
G04 APERTURE LIST*
%ADD10C,0.015000*%
%ADD11R,0.055000X0.080000*%
%ADD12C,0.080000*%
%ADD13C,0.400000*%
%ADD14R,0.400000X0.400000*%
%ADD15C,0.150000*%
%ADD16R,0.080000X0.080000*%
%ADD17C,0.060000*%
%ADD18R,0.100000X0.100000*%
%ADD19C,0.100000*%
%ADD20R,0.055000X0.055000*%
%ADD21C,0.055000*%
%ADD22C,0.040000*%
%ADD23C,0.080000*%
%ADD24C,0.005000*%
%ADD25C,0.012000*%
%ADD26C,0.001000*%
%ADD27C,0.008000*%
%ADD28C,0.010000*%
%ADD29C,0.090000*%
%ADD30R,0.090000X0.090000*%
%ADD31R,0.070000X0.070000*%
%ADD32C,0.070000*%
G04 APERTURE END LIST*
G54D10*
X42700Y-47700D02*
X83500Y-47700D01*
X83500Y-22100D02*
X83500Y-47700D01*
X42700Y-22100D02*
X83500Y-22100D01*
X42700Y-47700D02*
X42700Y-22100D01*
G54D12*
X51100Y-45500D03*
X51100Y-42500D03*
X51100Y-40300D03*
X51100Y-37300D03*
X51100Y-35300D03*
X51100Y-32300D03*
G54D29*
X49000Y-42500D03*
X49000Y-43500D03*
G54D30*
X49000Y-44500D03*
G54D16*
X46500Y-44500D03*
G54D12*
X46500Y-43500D03*
G54D29*
X49000Y-37300D03*
X49000Y-38300D03*
G54D30*
X49000Y-39300D03*
G54D16*
X46500Y-39300D03*
G54D12*
X46500Y-38300D03*
G54D29*
X49000Y-32300D03*
X49000Y-33300D03*
G54D30*
X49000Y-34300D03*
G54D16*
X46500Y-34300D03*
G54D12*
X46500Y-33300D03*
G54D16*
X51200Y-24100D03*
G54D12*
X50200Y-24100D03*
X48200Y-25800D03*
X51200Y-25800D03*
G54D16*
X58900Y-23700D03*
G54D12*
X57900Y-23700D03*
X56900Y-23700D03*
X58900Y-28100D03*
X58900Y-25100D03*
X54200Y-28000D03*
X54200Y-25000D03*
X55900Y-28000D03*
X55900Y-25000D03*
G54D16*
X55200Y-23700D03*
G54D12*
X54200Y-23700D03*
X53200Y-23700D03*
X60800Y-29600D03*
X60800Y-26600D03*
X63400Y-29300D03*
X63400Y-26300D03*
G54D16*
X65500Y-23700D03*
G54D12*
X66500Y-23700D03*
G54D16*
X46500Y-29700D03*
G54D12*
X46500Y-28700D03*
X46500Y-27700D03*
X46500Y-26700D03*
X46500Y-25700D03*
X46500Y-24700D03*
X46500Y-23700D03*
X59000Y-45500D03*
X59000Y-43500D03*
G54D16*
X61800Y-24100D03*
G54D12*
X60800Y-24100D03*
G54D16*
X68200Y-23700D03*
G54D12*
X69200Y-23700D03*
X66200Y-26600D03*
X69200Y-26600D03*
X66200Y-25100D03*
X69200Y-25100D03*
X64400Y-24600D03*
X64400Y-27600D03*
G54D16*
X66200Y-28600D03*
G54D12*
X67200Y-28600D03*
G54D16*
X71700Y-23700D03*
G54D12*
X70700Y-23700D03*
G54D16*
X74200Y-23700D03*
G54D12*
X73200Y-23700D03*
G54D16*
X71400Y-40100D03*
G54D12*
X71900Y-38100D03*
X72400Y-40100D03*
X72900Y-38100D03*
X73400Y-40100D03*
X73900Y-38100D03*
X74400Y-40100D03*
X74900Y-38100D03*
X75400Y-40100D03*
X75900Y-38100D03*
X76400Y-40100D03*
X76900Y-38100D03*
X77400Y-40100D03*
X77900Y-38100D03*
X78400Y-40100D03*
G54D16*
X67800Y-37900D03*
G54D12*
X67800Y-38900D03*
X67800Y-39900D03*
X67800Y-40900D03*
X67800Y-41900D03*
G54D16*
X60500Y-41100D03*
G54D12*
X60500Y-40100D03*
X60500Y-39100D03*
X60500Y-38100D03*
X60500Y-37100D03*
X60500Y-36100D03*
X60500Y-35100D03*
X60500Y-34100D03*
X60500Y-33100D03*
X57500Y-33100D03*
X57500Y-34100D03*
X57500Y-35100D03*
X57500Y-36100D03*
X57500Y-37100D03*
X57500Y-38100D03*
X57500Y-39100D03*
X57500Y-40100D03*
X57500Y-41100D03*
G54D31*
X78400Y-45700D03*
G54D32*
X78400Y-43700D03*
G54D31*
X65000Y-45500D03*
G54D32*
X65000Y-43500D03*
X78500Y-29600D03*
G54D31*
X82500Y-29600D03*
G54D32*
X78500Y-31000D03*
G54D31*
X82500Y-31000D03*
G54D32*
X78500Y-28200D03*
G54D31*
X82500Y-28200D03*
G54D32*
X78500Y-32400D03*
G54D31*
X82500Y-32400D03*
G54D32*
X70300Y-29600D03*
G54D31*
X74300Y-29600D03*
G54D32*
X70300Y-31000D03*
G54D31*
X74300Y-31000D03*
G54D32*
X70300Y-28200D03*
G54D31*
X74300Y-28200D03*
G54D32*
X70300Y-32400D03*
G54D31*
X74300Y-32400D03*
G54D20*
X81400Y-41000D03*
G54D21*
X81400Y-42000D03*
G54D20*
X76700Y-23700D03*
G54D21*
X77700Y-23700D03*
X78700Y-23700D03*
X79700Y-23700D03*
G54D20*
X69200Y-45600D03*
G54D21*
X69200Y-44600D03*
X68200Y-44600D03*
X78700Y-25000D03*
X80700Y-25000D03*
X75700Y-25000D03*
X77700Y-25000D03*
G54D12*
X82200Y-23400D03*
X82200Y-46400D03*
X44000Y-23400D03*
X44000Y-46400D03*
X73900Y-37100D03*
X75200Y-44300D03*
X69200Y-35700D03*
X76300Y-35700D03*
X55800Y-44400D03*
X69200Y-42000D03*
X69100Y-34700D03*
X62500Y-40100D03*
X52800Y-43100D03*
X67200Y-31300D03*
X78400Y-34800D03*
X73000Y-34800D03*
X62400Y-30700D03*
X62500Y-36100D03*
X51400Y-27500D03*
X73300Y-44000D03*
X64400Y-24600D03*
X61700Y-38100D03*
X63200Y-30300D03*
X63200Y-39100D03*
X56500Y-38100D03*
X56500Y-31100D03*
X52800Y-25000D03*
X55700Y-39100D03*
X63000Y-23000D03*
X59400Y-29500D03*
X53200Y-31400D03*
X53200Y-30300D03*
X56300Y-41100D03*
X64100Y-35100D03*
X69100Y-30500D03*
X65100Y-34100D03*
X74200Y-26300D03*
X75700Y-32400D03*
X75700Y-27200D03*
X71900Y-34700D03*
X72400Y-42700D03*
X66100Y-31400D03*
X66100Y-33900D03*
X73400Y-41800D03*
X67000Y-32300D03*
X67000Y-33900D03*
X74400Y-41100D03*
X75900Y-36700D03*
X64000Y-41000D03*
X79500Y-39000D03*
X77000Y-31000D03*
G54D22*
X51100Y-46800D02*
X51100Y-45400D01*
X72400Y-46800D02*
X52300Y-46800D01*
X52300Y-46800D02*
X51100Y-46800D01*
X51100Y-45500D02*
X51100Y-46800D01*
X51100Y-46800D02*
X52300Y-46800D01*
X68000Y-37700D02*
X67800Y-37900D01*
X70200Y-37700D02*
X68000Y-37700D01*
X70600Y-37100D02*
X70200Y-37700D01*
X73900Y-37100D02*
X70600Y-37100D01*
X72700Y-46800D02*
X72400Y-46800D01*
X75200Y-44300D02*
X72700Y-46800D01*
X76300Y-35700D02*
X69200Y-35700D01*
X65900Y-44400D02*
X55800Y-44400D01*
X67400Y-42900D02*
X65900Y-44400D01*
X68300Y-42900D02*
X67400Y-42900D01*
X69200Y-42000D02*
X68300Y-42900D01*
X51100Y-40300D02*
X51100Y-40900D01*
X52000Y-44400D02*
X55800Y-44400D01*
X52000Y-41800D02*
X52000Y-44400D01*
X51100Y-40900D02*
X52000Y-41800D01*
X65000Y-35900D02*
X64100Y-36800D01*
X65000Y-35800D02*
X65000Y-35900D01*
X63400Y-40100D02*
X62500Y-40100D01*
X68100Y-35800D02*
X65000Y-35800D01*
X69100Y-34700D02*
X68100Y-35800D01*
X62500Y-40100D02*
X62500Y-42000D01*
X53400Y-35300D02*
X51100Y-35300D01*
X53400Y-42400D02*
X53400Y-42100D01*
X53400Y-42100D02*
X53400Y-35300D01*
X53500Y-42500D02*
X53400Y-42400D01*
X61900Y-42500D02*
X53500Y-42500D01*
X53400Y-42400D02*
X53400Y-42100D01*
X61900Y-42500D02*
X62500Y-42500D01*
X62500Y-42500D02*
X62500Y-42000D01*
X64100Y-36800D02*
X64100Y-40100D01*
X64100Y-40100D02*
X63400Y-40100D01*
X70000Y-31300D02*
X70300Y-31000D01*
X67400Y-31300D02*
X70000Y-31300D01*
X67300Y-31400D02*
X67400Y-31300D01*
G54D23*
X52800Y-43100D02*
X53100Y-43400D01*
X58900Y-43400D02*
X59000Y-43500D01*
X53100Y-43400D02*
X58900Y-43400D01*
X49000Y-34300D02*
X49000Y-34400D01*
X45500Y-23700D02*
X46500Y-23700D01*
X45500Y-35700D02*
X45500Y-23700D01*
X47700Y-35700D02*
X45500Y-35700D01*
X49000Y-34400D02*
X47700Y-35700D01*
G54D22*
X67200Y-31300D02*
X70000Y-31300D01*
X70000Y-31300D02*
X70300Y-31000D01*
G54D23*
X73000Y-34800D02*
X78400Y-34800D01*
G54D22*
X62400Y-36000D02*
X62400Y-30700D01*
X62500Y-36100D02*
X62400Y-36000D01*
G54D23*
X68200Y-44100D02*
X68200Y-44600D01*
X68900Y-43400D02*
X68200Y-44100D01*
X70600Y-43400D02*
X68900Y-43400D01*
X71200Y-44000D02*
X70600Y-43400D01*
X72600Y-44000D02*
X71200Y-44000D01*
X55900Y-28000D02*
X58800Y-28000D01*
X58800Y-28000D02*
X58900Y-28100D01*
X47400Y-26700D02*
X46500Y-26700D01*
X47700Y-27000D02*
X47400Y-26700D01*
X50900Y-27000D02*
X47700Y-27000D01*
X51400Y-27500D02*
X50900Y-27000D01*
X73300Y-44000D02*
X72600Y-44000D01*
G54D22*
X64400Y-24600D02*
X64400Y-24100D01*
X64400Y-24100D02*
X61800Y-24100D01*
X54200Y-26200D02*
X54200Y-25000D01*
X53200Y-27200D02*
X54200Y-26200D01*
X53200Y-28600D02*
X53200Y-27200D01*
X54000Y-29400D02*
X53200Y-28600D01*
X54000Y-41100D02*
X54000Y-29400D01*
X61700Y-38100D02*
X61700Y-41900D01*
X61700Y-41900D02*
X54800Y-41900D01*
X54800Y-41900D02*
X54000Y-41900D01*
X54000Y-41900D02*
X54000Y-41100D01*
X63200Y-39100D02*
X63200Y-30300D01*
X56500Y-31600D02*
X56500Y-38100D01*
X60700Y-31100D02*
X56500Y-31100D01*
X61800Y-30000D02*
X60700Y-31100D01*
X61800Y-29000D02*
X61800Y-30000D01*
X63400Y-29300D02*
X63000Y-28900D01*
X61900Y-28900D02*
X61800Y-29000D01*
X63000Y-28900D02*
X61900Y-28900D01*
X56500Y-31600D02*
X56500Y-31100D01*
X52800Y-25000D02*
X47400Y-25000D01*
X47400Y-25000D02*
X46700Y-25700D01*
X46700Y-25700D02*
X46500Y-25700D01*
X66200Y-28100D02*
X66200Y-26600D01*
X66200Y-26600D02*
X66200Y-28600D01*
X55700Y-30400D02*
X55700Y-39100D01*
X48400Y-22800D02*
X47800Y-23400D01*
X47800Y-23400D02*
X46500Y-24700D01*
X62800Y-22800D02*
X48400Y-22800D01*
X63000Y-23000D02*
X62800Y-22800D01*
X55700Y-29500D02*
X55700Y-30400D01*
X59400Y-29500D02*
X55700Y-29500D01*
X50300Y-29700D02*
X46500Y-29700D01*
X52000Y-31400D02*
X50300Y-29700D01*
X53200Y-31400D02*
X52000Y-31400D01*
X51600Y-28700D02*
X46500Y-28700D01*
X53200Y-30300D02*
X51600Y-28700D01*
X55000Y-41000D02*
X55100Y-41100D01*
X55000Y-25800D02*
X55000Y-41000D01*
X65200Y-25800D02*
X64100Y-25800D01*
X62800Y-25800D02*
X55000Y-25800D01*
X69200Y-26600D02*
X68200Y-26600D01*
X68200Y-29900D02*
X65800Y-29900D01*
X68200Y-26600D02*
X68200Y-29900D01*
X56300Y-41100D02*
X55100Y-41100D01*
X64100Y-25800D02*
X64000Y-25800D01*
X63200Y-25400D02*
X62800Y-25800D01*
X63600Y-25400D02*
X63200Y-25400D01*
X64000Y-25800D02*
X63600Y-25400D01*
X65800Y-29900D02*
X65300Y-29900D01*
X65200Y-29800D02*
X65200Y-25800D01*
X65300Y-29900D02*
X65200Y-29800D01*
X64100Y-30600D02*
X64100Y-35100D01*
X64200Y-30500D02*
X64100Y-30600D01*
X69100Y-30500D02*
X64200Y-30500D01*
X65100Y-35100D02*
X65100Y-34100D01*
X67500Y-35100D02*
X65100Y-35100D01*
X68700Y-33900D02*
X67500Y-35100D01*
X71000Y-33900D02*
X68700Y-33900D01*
X71000Y-31500D02*
X71000Y-33900D01*
X73100Y-29400D02*
X71000Y-31500D01*
X73100Y-27400D02*
X73100Y-29400D01*
X74200Y-26300D02*
X73100Y-27400D01*
G54D23*
X75700Y-27200D02*
X75700Y-32400D01*
X71900Y-34700D02*
X71900Y-32400D01*
X71900Y-32400D02*
X74300Y-32400D01*
X78500Y-28200D02*
X80800Y-28200D01*
X77600Y-42700D02*
X72400Y-42700D01*
X81000Y-39300D02*
X77600Y-42700D01*
X81000Y-28400D02*
X81000Y-39300D01*
X80800Y-28200D02*
X81000Y-28400D01*
G54D22*
X66100Y-33900D02*
X66100Y-31400D01*
X68900Y-40800D02*
X67800Y-41900D01*
X69600Y-40800D02*
X68900Y-40800D01*
X73400Y-41800D02*
X71300Y-41800D01*
X71300Y-41800D02*
X70200Y-41800D01*
X70100Y-41300D02*
X69600Y-40800D01*
X70100Y-41700D02*
X70100Y-41300D01*
X70200Y-41800D02*
X70100Y-41700D01*
X67000Y-33900D02*
X67000Y-32300D01*
X68700Y-40000D02*
X67800Y-40900D01*
X69800Y-40000D02*
X68700Y-40000D01*
X74400Y-41100D02*
X73700Y-41100D01*
X73700Y-41100D02*
X71300Y-41100D01*
X71300Y-41100D02*
X70900Y-41100D01*
X74400Y-41100D02*
X73700Y-41100D01*
X69800Y-40000D02*
X70900Y-41100D01*
X66600Y-39900D02*
X67800Y-39900D01*
X66600Y-36700D02*
X66600Y-39900D01*
X68800Y-36700D02*
X66600Y-36700D01*
X65200Y-39900D02*
X66600Y-39900D01*
X64000Y-41000D02*
X65100Y-41000D01*
X65200Y-40900D02*
X65200Y-39900D01*
X65100Y-41000D02*
X65200Y-40900D01*
X69800Y-36700D02*
X68800Y-36700D01*
X69800Y-36400D02*
X69800Y-36700D01*
X75800Y-36400D02*
X69800Y-36400D01*
X75900Y-36700D02*
X75800Y-36400D01*
G54D23*
X79750Y-31000D02*
X79800Y-31000D01*
X79800Y-31000D02*
X79600Y-31000D01*
X79600Y-31000D02*
X79500Y-31000D01*
X79500Y-31000D02*
X78500Y-31000D01*
X79750Y-38750D02*
X79750Y-31000D01*
X79500Y-39000D02*
X79750Y-38750D01*
X78700Y-25000D02*
X78700Y-26500D01*
X77000Y-26600D02*
X77000Y-31000D01*
X78600Y-26600D02*
X77000Y-26600D01*
X78700Y-26500D02*
X78600Y-26600D01*
M02*
