G04 (Genere par PCBNEW (2007-01-15)) le 18/3/2007-19:20:38*
G01*
G70*
G90*
%MOIN*%
G04 Gerber Fmt 3.4, Leading zero omitted, Abs format*
%FSLAX34Y34*%
G04 APERTURE LIST*
%ADD10C,0.015000*%
%ADD11C,0.080000*%
%ADD12R,0.080000X0.080000*%
%ADD13R,0.070000X0.070000*%
%ADD14C,0.070000*%
%ADD15R,0.055000X0.055000*%
%ADD16C,0.055000*%
%ADD17C,0.040000*%
%ADD18C,0.080000*%
%ADD19C,0.010000*%
%ADD20C,0.005000*%
%ADD21C,0.015000*%
%ADD22C,0.001000*%
G04 APERTURE END LIST*
G54D10*
X83100Y-47400D02*
X43100Y-47400D01*
X43100Y-22400D02*
X83100Y-22400D01*
X43100Y-47400D02*
X43100Y-22400D01*
X83100Y-22400D02*
X83100Y-47400D01*
G54D22*
X46800Y-30300D02*
X46791Y-30383D01*
X46791Y-30383D02*
X46765Y-30462D01*
X46765Y-30462D02*
X46723Y-30535D01*
X46723Y-30535D02*
X46667Y-30597D01*
X46667Y-30597D02*
X46600Y-30646D01*
X46600Y-30646D02*
X46523Y-30680D01*
X46523Y-30680D02*
X46441Y-30697D01*
X46441Y-30697D02*
X46359Y-30697D01*
X46359Y-30697D02*
X46277Y-30680D01*
X46277Y-30680D02*
X46200Y-30646D01*
X46200Y-30646D02*
X46133Y-30597D01*
X46133Y-30597D02*
X46077Y-30535D01*
X46077Y-30535D02*
X46035Y-30462D01*
X46035Y-30462D02*
X46009Y-30383D01*
X46009Y-30383D02*
X46000Y-30300D01*
X46000Y-30300D02*
X46009Y-30217D01*
X46009Y-30217D02*
X46035Y-30138D01*
X46035Y-30138D02*
X46077Y-30065D01*
X46077Y-30065D02*
X46133Y-30003D01*
X46133Y-30003D02*
X46200Y-29954D01*
X46200Y-29954D02*
X46277Y-29920D01*
X46277Y-29920D02*
X46359Y-29903D01*
X46359Y-29903D02*
X46441Y-29903D01*
X46441Y-29903D02*
X46523Y-29920D01*
X46523Y-29920D02*
X46600Y-29954D01*
X46600Y-29954D02*
X46667Y-30003D01*
X46667Y-30003D02*
X46723Y-30065D01*
X46723Y-30065D02*
X46765Y-30138D01*
X46765Y-30138D02*
X46791Y-30217D01*
X46791Y-30217D02*
X46800Y-30300D01*
X46800Y-29300D02*
X46791Y-29383D01*
X46791Y-29383D02*
X46765Y-29462D01*
X46765Y-29462D02*
X46723Y-29535D01*
X46723Y-29535D02*
X46667Y-29597D01*
X46667Y-29597D02*
X46600Y-29646D01*
X46600Y-29646D02*
X46523Y-29680D01*
X46523Y-29680D02*
X46441Y-29697D01*
X46441Y-29697D02*
X46359Y-29697D01*
X46359Y-29697D02*
X46277Y-29680D01*
X46277Y-29680D02*
X46200Y-29646D01*
X46200Y-29646D02*
X46133Y-29597D01*
X46133Y-29597D02*
X46077Y-29535D01*
X46077Y-29535D02*
X46035Y-29462D01*
X46035Y-29462D02*
X46009Y-29383D01*
X46009Y-29383D02*
X46000Y-29300D01*
X46000Y-29300D02*
X46009Y-29217D01*
X46009Y-29217D02*
X46035Y-29138D01*
X46035Y-29138D02*
X46077Y-29065D01*
X46077Y-29065D02*
X46133Y-29003D01*
X46133Y-29003D02*
X46200Y-28954D01*
X46200Y-28954D02*
X46277Y-28920D01*
X46277Y-28920D02*
X46359Y-28903D01*
X46359Y-28903D02*
X46441Y-28903D01*
X46441Y-28903D02*
X46523Y-28920D01*
X46523Y-28920D02*
X46600Y-28954D01*
X46600Y-28954D02*
X46667Y-29003D01*
X46667Y-29003D02*
X46723Y-29065D01*
X46723Y-29065D02*
X46765Y-29138D01*
X46765Y-29138D02*
X46791Y-29217D01*
X46791Y-29217D02*
X46800Y-29300D01*
X46800Y-28300D02*
X46791Y-28383D01*
X46791Y-28383D02*
X46765Y-28462D01*
X46765Y-28462D02*
X46723Y-28535D01*
X46723Y-28535D02*
X46667Y-28597D01*
X46667Y-28597D02*
X46600Y-28646D01*
X46600Y-28646D02*
X46523Y-28680D01*
X46523Y-28680D02*
X46441Y-28697D01*
X46441Y-28697D02*
X46359Y-28697D01*
X46359Y-28697D02*
X46277Y-28680D01*
X46277Y-28680D02*
X46200Y-28646D01*
X46200Y-28646D02*
X46133Y-28597D01*
X46133Y-28597D02*
X46077Y-28535D01*
X46077Y-28535D02*
X46035Y-28462D01*
X46035Y-28462D02*
X46009Y-28383D01*
X46009Y-28383D02*
X46000Y-28300D01*
X46000Y-28300D02*
X46009Y-28217D01*
X46009Y-28217D02*
X46035Y-28138D01*
X46035Y-28138D02*
X46077Y-28065D01*
X46077Y-28065D02*
X46133Y-28003D01*
X46133Y-28003D02*
X46200Y-27954D01*
X46200Y-27954D02*
X46277Y-27920D01*
X46277Y-27920D02*
X46359Y-27903D01*
X46359Y-27903D02*
X46441Y-27903D01*
X46441Y-27903D02*
X46523Y-27920D01*
X46523Y-27920D02*
X46600Y-27954D01*
X46600Y-27954D02*
X46667Y-28003D01*
X46667Y-28003D02*
X46723Y-28065D01*
X46723Y-28065D02*
X46765Y-28138D01*
X46765Y-28138D02*
X46791Y-28217D01*
X46791Y-28217D02*
X46800Y-28300D01*
X46800Y-27300D02*
X46791Y-27383D01*
X46791Y-27383D02*
X46765Y-27462D01*
X46765Y-27462D02*
X46723Y-27535D01*
X46723Y-27535D02*
X46667Y-27597D01*
X46667Y-27597D02*
X46600Y-27646D01*
X46600Y-27646D02*
X46523Y-27680D01*
X46523Y-27680D02*
X46441Y-27697D01*
X46441Y-27697D02*
X46359Y-27697D01*
X46359Y-27697D02*
X46277Y-27680D01*
X46277Y-27680D02*
X46200Y-27646D01*
X46200Y-27646D02*
X46133Y-27597D01*
X46133Y-27597D02*
X46077Y-27535D01*
X46077Y-27535D02*
X46035Y-27462D01*
X46035Y-27462D02*
X46009Y-27383D01*
X46009Y-27383D02*
X46000Y-27300D01*
X46000Y-27300D02*
X46009Y-27217D01*
X46009Y-27217D02*
X46035Y-27138D01*
X46035Y-27138D02*
X46077Y-27065D01*
X46077Y-27065D02*
X46133Y-27003D01*
X46133Y-27003D02*
X46200Y-26954D01*
X46200Y-26954D02*
X46277Y-26920D01*
X46277Y-26920D02*
X46359Y-26903D01*
X46359Y-26903D02*
X46441Y-26903D01*
X46441Y-26903D02*
X46523Y-26920D01*
X46523Y-26920D02*
X46600Y-26954D01*
X46600Y-26954D02*
X46667Y-27003D01*
X46667Y-27003D02*
X46723Y-27065D01*
X46723Y-27065D02*
X46765Y-27138D01*
X46765Y-27138D02*
X46791Y-27217D01*
X46791Y-27217D02*
X46800Y-27300D01*
X46800Y-26300D02*
X46791Y-26383D01*
X46791Y-26383D02*
X46765Y-26462D01*
X46765Y-26462D02*
X46723Y-26535D01*
X46723Y-26535D02*
X46667Y-26597D01*
X46667Y-26597D02*
X46600Y-26646D01*
X46600Y-26646D02*
X46523Y-26680D01*
X46523Y-26680D02*
X46441Y-26697D01*
X46441Y-26697D02*
X46359Y-26697D01*
X46359Y-26697D02*
X46277Y-26680D01*
X46277Y-26680D02*
X46200Y-26646D01*
X46200Y-26646D02*
X46133Y-26597D01*
X46133Y-26597D02*
X46077Y-26535D01*
X46077Y-26535D02*
X46035Y-26462D01*
X46035Y-26462D02*
X46009Y-26383D01*
X46009Y-26383D02*
X46000Y-26300D01*
X46000Y-26300D02*
X46009Y-26217D01*
X46009Y-26217D02*
X46035Y-26138D01*
X46035Y-26138D02*
X46077Y-26065D01*
X46077Y-26065D02*
X46133Y-26003D01*
X46133Y-26003D02*
X46200Y-25954D01*
X46200Y-25954D02*
X46277Y-25920D01*
X46277Y-25920D02*
X46359Y-25903D01*
X46359Y-25903D02*
X46441Y-25903D01*
X46441Y-25903D02*
X46523Y-25920D01*
X46523Y-25920D02*
X46600Y-25954D01*
X46600Y-25954D02*
X46667Y-26003D01*
X46667Y-26003D02*
X46723Y-26065D01*
X46723Y-26065D02*
X46765Y-26138D01*
X46765Y-26138D02*
X46791Y-26217D01*
X46791Y-26217D02*
X46800Y-26300D01*
X46800Y-25300D02*
X46791Y-25383D01*
X46791Y-25383D02*
X46765Y-25462D01*
X46765Y-25462D02*
X46723Y-25535D01*
X46723Y-25535D02*
X46667Y-25597D01*
X46667Y-25597D02*
X46600Y-25646D01*
X46600Y-25646D02*
X46523Y-25680D01*
X46523Y-25680D02*
X46441Y-25697D01*
X46441Y-25697D02*
X46359Y-25697D01*
X46359Y-25697D02*
X46277Y-25680D01*
X46277Y-25680D02*
X46200Y-25646D01*
X46200Y-25646D02*
X46133Y-25597D01*
X46133Y-25597D02*
X46077Y-25535D01*
X46077Y-25535D02*
X46035Y-25462D01*
X46035Y-25462D02*
X46009Y-25383D01*
X46009Y-25383D02*
X46000Y-25300D01*
X46000Y-25300D02*
X46009Y-25217D01*
X46009Y-25217D02*
X46035Y-25138D01*
X46035Y-25138D02*
X46077Y-25065D01*
X46077Y-25065D02*
X46133Y-25003D01*
X46133Y-25003D02*
X46200Y-24954D01*
X46200Y-24954D02*
X46277Y-24920D01*
X46277Y-24920D02*
X46359Y-24903D01*
X46359Y-24903D02*
X46441Y-24903D01*
X46441Y-24903D02*
X46523Y-24920D01*
X46523Y-24920D02*
X46600Y-24954D01*
X46600Y-24954D02*
X46667Y-25003D01*
X46667Y-25003D02*
X46723Y-25065D01*
X46723Y-25065D02*
X46765Y-25138D01*
X46765Y-25138D02*
X46791Y-25217D01*
X46791Y-25217D02*
X46800Y-25300D01*
M02*
