G04 (Genere par PCBNEW (2007-01-15)) le 17/3/2007-18:05:06*
G01*
G70*
G90*
%MOIN*%
G04 Gerber Fmt 3.4, Leading zero omitted, Abs format*
%FSLAX34Y34*%
G04 APERTURE LIST*
%ADD10C,0.015000*%
%ADD11C,0.080000*%
%ADD12C,0.090000*%
%ADD13R,0.090000X0.090000*%
%ADD14R,0.080000X0.080000*%
%ADD15R,0.070000X0.070000*%
%ADD16C,0.070000*%
%ADD17R,0.055000X0.055000*%
%ADD18C,0.055000*%
%ADD19C,0.040000*%
%ADD20C,0.080000*%
%ADD21C,0.015000*%
%ADD22C,0.001000*%
%ADD23C,0.012000*%
%ADD24C,0.005000*%
%ADD25C,0.008000*%
%ADD26C,0.010000*%
G04 APERTURE END LIST*
G54D10*
X42700Y-47700D02*
X83500Y-47700D01*
X83500Y-22100D02*
X83500Y-47700D01*
X42700Y-22100D02*
X83500Y-22100D01*
X42700Y-47700D02*
X42700Y-22100D01*
G54D23*
X51100Y-45500D02*
X51100Y-45300D01*
X51100Y-42500D02*
X51100Y-42700D01*
X51100Y-42700D02*
X50700Y-42700D01*
X50700Y-42700D02*
X50700Y-45300D01*
X50700Y-45300D02*
X51500Y-45300D01*
X51500Y-45300D02*
X51500Y-42700D01*
X51500Y-42700D02*
X51100Y-42700D01*
X50900Y-45300D02*
X50700Y-45100D01*
X51100Y-40300D02*
X51100Y-40100D01*
X51100Y-37300D02*
X51100Y-37500D01*
X51100Y-37500D02*
X50700Y-37500D01*
X50700Y-37500D02*
X50700Y-40100D01*
X50700Y-40100D02*
X51500Y-40100D01*
X51500Y-40100D02*
X51500Y-37500D01*
X51500Y-37500D02*
X51100Y-37500D01*
X50900Y-40100D02*
X50700Y-39900D01*
X51100Y-35300D02*
X51100Y-35100D01*
X51100Y-32300D02*
X51100Y-32500D01*
X51100Y-32500D02*
X50700Y-32500D01*
X50700Y-32500D02*
X50700Y-35100D01*
X50700Y-35100D02*
X51500Y-35100D01*
X51500Y-35100D02*
X51500Y-32500D01*
X51500Y-32500D02*
X51100Y-32500D01*
X50900Y-35100D02*
X50700Y-34900D01*
G54D10*
X49750Y-41500D02*
X50000Y-41500D01*
X50000Y-41500D02*
X50000Y-45500D01*
X50000Y-45500D02*
X49750Y-45500D01*
X48250Y-41500D02*
X49750Y-41500D01*
X49750Y-41500D02*
X49750Y-45500D01*
X49750Y-45500D02*
X48250Y-45500D01*
X48250Y-45500D02*
X48250Y-41500D01*
G54D23*
X47000Y-45000D02*
X46000Y-45000D01*
X46000Y-45000D02*
X46000Y-43000D01*
X46000Y-43000D02*
X47000Y-43000D01*
X47000Y-43000D02*
X47000Y-45000D01*
G54D10*
X49750Y-36300D02*
X50000Y-36300D01*
X50000Y-36300D02*
X50000Y-40300D01*
X50000Y-40300D02*
X49750Y-40300D01*
X48250Y-36300D02*
X49750Y-36300D01*
X49750Y-36300D02*
X49750Y-40300D01*
X49750Y-40300D02*
X48250Y-40300D01*
X48250Y-40300D02*
X48250Y-36300D01*
G54D23*
X47000Y-39800D02*
X46000Y-39800D01*
X46000Y-39800D02*
X46000Y-37800D01*
X46000Y-37800D02*
X47000Y-37800D01*
X47000Y-37800D02*
X47000Y-39800D01*
G54D10*
X49750Y-31300D02*
X50000Y-31300D01*
X50000Y-31300D02*
X50000Y-35300D01*
X50000Y-35300D02*
X49750Y-35300D01*
X48250Y-31300D02*
X49750Y-31300D01*
X49750Y-31300D02*
X49750Y-35300D01*
X49750Y-35300D02*
X48250Y-35300D01*
X48250Y-35300D02*
X48250Y-31300D01*
G54D23*
X47000Y-34800D02*
X46000Y-34800D01*
X46000Y-34800D02*
X46000Y-32800D01*
X46000Y-32800D02*
X47000Y-32800D01*
X47000Y-32800D02*
X47000Y-34800D01*
X51700Y-24100D02*
X51623Y-24482D01*
X51623Y-24482D02*
X51407Y-24807D01*
X51407Y-24807D02*
X51082Y-25023D01*
X51082Y-25023D02*
X50700Y-25100D01*
X50700Y-25100D02*
X50318Y-25023D01*
X50318Y-25023D02*
X49993Y-24807D01*
X49993Y-24807D02*
X49777Y-24482D01*
X49777Y-24482D02*
X49700Y-24100D01*
X49700Y-24100D02*
X49777Y-23718D01*
X49777Y-23718D02*
X49993Y-23393D01*
X49993Y-23393D02*
X50318Y-23177D01*
X50318Y-23177D02*
X50700Y-23100D01*
X50700Y-23100D02*
X51082Y-23177D01*
X51082Y-23177D02*
X51407Y-23393D01*
X51407Y-23393D02*
X51623Y-23718D01*
X51623Y-23718D02*
X51700Y-24100D01*
X49700Y-24350D02*
X49950Y-24350D01*
X49950Y-24350D02*
X49950Y-23850D01*
X49950Y-23850D02*
X49700Y-23850D01*
X48200Y-25800D02*
X48400Y-25800D01*
X51200Y-25800D02*
X51000Y-25800D01*
X51000Y-25800D02*
X51000Y-25400D01*
X51000Y-25400D02*
X48400Y-25400D01*
X48400Y-25400D02*
X48400Y-26200D01*
X48400Y-26200D02*
X51000Y-26200D01*
X51000Y-26200D02*
X51000Y-25800D01*
X48400Y-25600D02*
X48600Y-25400D01*
X59400Y-23200D02*
X59400Y-24200D01*
X59400Y-24200D02*
X56400Y-24200D01*
X56400Y-24200D02*
X56400Y-23200D01*
X56400Y-23200D02*
X59400Y-23200D01*
X58400Y-24200D02*
X58400Y-23200D01*
X58900Y-28100D02*
X58900Y-27900D01*
X58900Y-25100D02*
X58900Y-25300D01*
X58900Y-25300D02*
X58500Y-25300D01*
X58500Y-25300D02*
X58500Y-27900D01*
X58500Y-27900D02*
X59300Y-27900D01*
X59300Y-27900D02*
X59300Y-25300D01*
X59300Y-25300D02*
X58900Y-25300D01*
X58700Y-27900D02*
X58500Y-27700D01*
X54200Y-28000D02*
X54200Y-27800D01*
X54200Y-25000D02*
X54200Y-25200D01*
X54200Y-25200D02*
X53800Y-25200D01*
X53800Y-25200D02*
X53800Y-27800D01*
X53800Y-27800D02*
X54600Y-27800D01*
X54600Y-27800D02*
X54600Y-25200D01*
X54600Y-25200D02*
X54200Y-25200D01*
X54000Y-27800D02*
X53800Y-27600D01*
X55900Y-28000D02*
X55900Y-27800D01*
X55900Y-25000D02*
X55900Y-25200D01*
X55900Y-25200D02*
X55500Y-25200D01*
X55500Y-25200D02*
X55500Y-27800D01*
X55500Y-27800D02*
X56300Y-27800D01*
X56300Y-27800D02*
X56300Y-25200D01*
X56300Y-25200D02*
X55900Y-25200D01*
X55700Y-27800D02*
X55500Y-27600D01*
X55700Y-23200D02*
X55700Y-24200D01*
X55700Y-24200D02*
X52700Y-24200D01*
X52700Y-24200D02*
X52700Y-23200D01*
X52700Y-23200D02*
X55700Y-23200D01*
X54700Y-24200D02*
X54700Y-23200D01*
X60800Y-29600D02*
X60800Y-29400D01*
X60800Y-26600D02*
X60800Y-26800D01*
X60800Y-26800D02*
X60400Y-26800D01*
X60400Y-26800D02*
X60400Y-29400D01*
X60400Y-29400D02*
X61200Y-29400D01*
X61200Y-29400D02*
X61200Y-26800D01*
X61200Y-26800D02*
X60800Y-26800D01*
X60600Y-29400D02*
X60400Y-29200D01*
X63400Y-29300D02*
X63400Y-29100D01*
X63400Y-26300D02*
X63400Y-26500D01*
X63400Y-26500D02*
X63000Y-26500D01*
X63000Y-26500D02*
X63000Y-29100D01*
X63000Y-29100D02*
X63800Y-29100D01*
X63800Y-29100D02*
X63800Y-26500D01*
X63800Y-26500D02*
X63400Y-26500D01*
X63200Y-29100D02*
X63000Y-28900D01*
X65000Y-24200D02*
X65000Y-23200D01*
X65000Y-23200D02*
X67000Y-23200D01*
X67000Y-23200D02*
X67000Y-24200D01*
X67000Y-24200D02*
X65000Y-24200D01*
X46000Y-30200D02*
X46000Y-30200D01*
X46000Y-30200D02*
X46000Y-23200D01*
X46000Y-23200D02*
X47000Y-23200D01*
X47000Y-23200D02*
X47000Y-30200D01*
X47000Y-30200D02*
X46000Y-30200D01*
X47000Y-29200D02*
X47000Y-29200D01*
X47000Y-29200D02*
X46000Y-29200D01*
X58600Y-45900D02*
X58600Y-43100D01*
X58600Y-43100D02*
X59400Y-43100D01*
X59400Y-43100D02*
X59400Y-45900D01*
X59400Y-45900D02*
X58600Y-45900D01*
X58800Y-45900D02*
X58600Y-45700D01*
X62300Y-24100D02*
X62223Y-24482D01*
X62223Y-24482D02*
X62007Y-24807D01*
X62007Y-24807D02*
X61682Y-25023D01*
X61682Y-25023D02*
X61300Y-25100D01*
X61300Y-25100D02*
X60918Y-25023D01*
X60918Y-25023D02*
X60593Y-24807D01*
X60593Y-24807D02*
X60377Y-24482D01*
X60377Y-24482D02*
X60300Y-24100D01*
X60300Y-24100D02*
X60377Y-23718D01*
X60377Y-23718D02*
X60593Y-23393D01*
X60593Y-23393D02*
X60918Y-23177D01*
X60918Y-23177D02*
X61300Y-23100D01*
X61300Y-23100D02*
X61682Y-23177D01*
X61682Y-23177D02*
X62007Y-23393D01*
X62007Y-23393D02*
X62223Y-23718D01*
X62223Y-23718D02*
X62300Y-24100D01*
X60300Y-24350D02*
X60550Y-24350D01*
X60550Y-24350D02*
X60550Y-23850D01*
X60550Y-23850D02*
X60300Y-23850D01*
X67700Y-24200D02*
X67700Y-23200D01*
X67700Y-23200D02*
X69700Y-23200D01*
X69700Y-23200D02*
X69700Y-24200D01*
X69700Y-24200D02*
X67700Y-24200D01*
X69200Y-26600D02*
X69000Y-26600D01*
X66200Y-26600D02*
X66400Y-26600D01*
X66400Y-26600D02*
X66400Y-27000D01*
X66400Y-27000D02*
X69000Y-27000D01*
X69000Y-27000D02*
X69000Y-26200D01*
X69000Y-26200D02*
X66400Y-26200D01*
X66400Y-26200D02*
X66400Y-26600D01*
X69000Y-26800D02*
X68800Y-27000D01*
X69200Y-25100D02*
X69000Y-25100D01*
X66200Y-25100D02*
X66400Y-25100D01*
X66400Y-25100D02*
X66400Y-25500D01*
X66400Y-25500D02*
X69000Y-25500D01*
X69000Y-25500D02*
X69000Y-24700D01*
X69000Y-24700D02*
X66400Y-24700D01*
X66400Y-24700D02*
X66400Y-25100D01*
X69000Y-25300D02*
X68800Y-25500D01*
X64400Y-27600D02*
X64400Y-27400D01*
X64400Y-24600D02*
X64400Y-24800D01*
X64400Y-24800D02*
X64000Y-24800D01*
X64000Y-24800D02*
X64000Y-27400D01*
X64000Y-27400D02*
X64800Y-27400D01*
X64800Y-27400D02*
X64800Y-24800D01*
X64800Y-24800D02*
X64400Y-24800D01*
X64200Y-27400D02*
X64000Y-27200D01*
G54D24*
X67701Y-28600D02*
X67679Y-28808D01*
X67679Y-28808D02*
X67614Y-29007D01*
X67614Y-29007D02*
X67509Y-29188D01*
X67509Y-29188D02*
X67369Y-29343D01*
X67369Y-29343D02*
X67200Y-29466D01*
X67200Y-29466D02*
X67009Y-29552D01*
X67009Y-29552D02*
X66804Y-29595D01*
X66804Y-29595D02*
X66596Y-29595D01*
X66596Y-29595D02*
X66391Y-29552D01*
X66391Y-29552D02*
X66200Y-29466D01*
X66200Y-29466D02*
X66031Y-29343D01*
X66031Y-29343D02*
X65891Y-29188D01*
X65891Y-29188D02*
X65786Y-29007D01*
X65786Y-29007D02*
X65721Y-28808D01*
X65721Y-28808D02*
X65699Y-28600D01*
X65699Y-28600D02*
X65721Y-28392D01*
X65721Y-28392D02*
X65786Y-28193D01*
X65786Y-28193D02*
X65891Y-28012D01*
X65891Y-28012D02*
X66031Y-27857D01*
X66031Y-27857D02*
X66200Y-27734D01*
X66200Y-27734D02*
X66391Y-27648D01*
X66391Y-27648D02*
X66596Y-27605D01*
X66596Y-27605D02*
X66804Y-27605D01*
X66804Y-27605D02*
X67009Y-27648D01*
X67009Y-27648D02*
X67200Y-27734D01*
X67200Y-27734D02*
X67369Y-27857D01*
X67369Y-27857D02*
X67509Y-28012D01*
X67509Y-28012D02*
X67614Y-28193D01*
X67614Y-28193D02*
X67679Y-28392D01*
X67679Y-28392D02*
X67701Y-28600D01*
G54D23*
X72200Y-23200D02*
X72200Y-24200D01*
X72200Y-24200D02*
X70200Y-24200D01*
X70200Y-24200D02*
X70200Y-23200D01*
X70200Y-23200D02*
X72200Y-23200D01*
X74700Y-23200D02*
X74700Y-24200D01*
X74700Y-24200D02*
X72700Y-24200D01*
X72700Y-24200D02*
X72700Y-23200D01*
X72700Y-23200D02*
X74700Y-23200D01*
X67300Y-37400D02*
X68300Y-37400D01*
X68300Y-37400D02*
X68300Y-42400D01*
X68300Y-42400D02*
X67300Y-42400D01*
X67300Y-42400D02*
X67300Y-37400D01*
X67300Y-38400D02*
X68300Y-38400D01*
G54D10*
X58500Y-42100D02*
X58500Y-41600D01*
X58500Y-41600D02*
X59500Y-41600D01*
X59500Y-41600D02*
X59500Y-42100D01*
X58000Y-42100D02*
X58000Y-32100D01*
X58000Y-32100D02*
X60000Y-32100D01*
X60000Y-32100D02*
X60000Y-42100D01*
X60000Y-42100D02*
X58000Y-42100D01*
G54D23*
X80595Y-44700D02*
X80547Y-45156D01*
X80547Y-45156D02*
X80405Y-45592D01*
X80405Y-45592D02*
X80175Y-45990D01*
X80175Y-45990D02*
X79868Y-46331D01*
X79868Y-46331D02*
X79497Y-46600D01*
X79497Y-46600D02*
X79078Y-46787D01*
X79078Y-46787D02*
X78629Y-46882D01*
X78629Y-46882D02*
X78171Y-46882D01*
X78171Y-46882D02*
X77722Y-46787D01*
X77722Y-46787D02*
X77303Y-46600D01*
X77303Y-46600D02*
X76932Y-46331D01*
X76932Y-46331D02*
X76625Y-45990D01*
X76625Y-45990D02*
X76395Y-45592D01*
X76395Y-45592D02*
X76253Y-45156D01*
X76253Y-45156D02*
X76205Y-44700D01*
X76205Y-44700D02*
X76253Y-44244D01*
X76253Y-44244D02*
X76395Y-43808D01*
X76395Y-43808D02*
X76625Y-43410D01*
X76625Y-43410D02*
X76932Y-43069D01*
X76932Y-43069D02*
X77303Y-42800D01*
X77303Y-42800D02*
X77722Y-42613D01*
X77722Y-42613D02*
X78171Y-42518D01*
X78171Y-42518D02*
X78629Y-42518D01*
X78629Y-42518D02*
X79078Y-42613D01*
X79078Y-42613D02*
X79497Y-42800D01*
X79497Y-42800D02*
X79868Y-43069D01*
X79868Y-43069D02*
X80175Y-43410D01*
X80175Y-43410D02*
X80405Y-43808D01*
X80405Y-43808D02*
X80547Y-44244D01*
X80547Y-44244D02*
X80595Y-44700D01*
X67195Y-44500D02*
X67147Y-44956D01*
X67147Y-44956D02*
X67005Y-45392D01*
X67005Y-45392D02*
X66775Y-45790D01*
X66775Y-45790D02*
X66468Y-46131D01*
X66468Y-46131D02*
X66097Y-46400D01*
X66097Y-46400D02*
X65678Y-46587D01*
X65678Y-46587D02*
X65229Y-46682D01*
X65229Y-46682D02*
X64771Y-46682D01*
X64771Y-46682D02*
X64322Y-46587D01*
X64322Y-46587D02*
X63903Y-46400D01*
X63903Y-46400D02*
X63532Y-46131D01*
X63532Y-46131D02*
X63225Y-45790D01*
X63225Y-45790D02*
X62995Y-45392D01*
X62995Y-45392D02*
X62853Y-44956D01*
X62853Y-44956D02*
X62805Y-44500D01*
X62805Y-44500D02*
X62853Y-44044D01*
X62853Y-44044D02*
X62995Y-43608D01*
X62995Y-43608D02*
X63225Y-43210D01*
X63225Y-43210D02*
X63532Y-42869D01*
X63532Y-42869D02*
X63903Y-42600D01*
X63903Y-42600D02*
X64322Y-42413D01*
X64322Y-42413D02*
X64771Y-42318D01*
X64771Y-42318D02*
X65229Y-42318D01*
X65229Y-42318D02*
X65678Y-42413D01*
X65678Y-42413D02*
X66097Y-42600D01*
X66097Y-42600D02*
X66468Y-42869D01*
X66468Y-42869D02*
X66775Y-43210D01*
X66775Y-43210D02*
X67005Y-43608D01*
X67005Y-43608D02*
X67147Y-44044D01*
X67147Y-44044D02*
X67195Y-44500D01*
X79000Y-29100D02*
X82000Y-29100D01*
X82000Y-29100D02*
X82000Y-30100D01*
X82000Y-30100D02*
X79000Y-30100D01*
X79000Y-30100D02*
X79000Y-29100D01*
X81750Y-29100D02*
X81750Y-30100D01*
X81500Y-30100D02*
X81500Y-29100D01*
X79000Y-29600D02*
X78500Y-29600D01*
X82000Y-29600D02*
X82500Y-29600D01*
X79000Y-30500D02*
X82000Y-30500D01*
X82000Y-30500D02*
X82000Y-31500D01*
X82000Y-31500D02*
X79000Y-31500D01*
X79000Y-31500D02*
X79000Y-30500D01*
X81750Y-30500D02*
X81750Y-31500D01*
X81500Y-31500D02*
X81500Y-30500D01*
X79000Y-31000D02*
X78500Y-31000D01*
X82000Y-31000D02*
X82500Y-31000D01*
X79000Y-27700D02*
X82000Y-27700D01*
X82000Y-27700D02*
X82000Y-28700D01*
X82000Y-28700D02*
X79000Y-28700D01*
X79000Y-28700D02*
X79000Y-27700D01*
X81750Y-27700D02*
X81750Y-28700D01*
X81500Y-28700D02*
X81500Y-27700D01*
X79000Y-28200D02*
X78500Y-28200D01*
X82000Y-28200D02*
X82500Y-28200D01*
X79000Y-31900D02*
X82000Y-31900D01*
X82000Y-31900D02*
X82000Y-32900D01*
X82000Y-32900D02*
X79000Y-32900D01*
X79000Y-32900D02*
X79000Y-31900D01*
X81750Y-31900D02*
X81750Y-32900D01*
X81500Y-32900D02*
X81500Y-31900D01*
X79000Y-32400D02*
X78500Y-32400D01*
X82000Y-32400D02*
X82500Y-32400D01*
X70800Y-29100D02*
X73800Y-29100D01*
X73800Y-29100D02*
X73800Y-30100D01*
X73800Y-30100D02*
X70800Y-30100D01*
X70800Y-30100D02*
X70800Y-29100D01*
X73550Y-29100D02*
X73550Y-30100D01*
X73300Y-30100D02*
X73300Y-29100D01*
X70800Y-29600D02*
X70300Y-29600D01*
X73800Y-29600D02*
X74300Y-29600D01*
X70800Y-30500D02*
X73800Y-30500D01*
X73800Y-30500D02*
X73800Y-31500D01*
X73800Y-31500D02*
X70800Y-31500D01*
X70800Y-31500D02*
X70800Y-30500D01*
X73550Y-30500D02*
X73550Y-31500D01*
X73300Y-31500D02*
X73300Y-30500D01*
X70800Y-31000D02*
X70300Y-31000D01*
X73800Y-31000D02*
X74300Y-31000D01*
X70800Y-27700D02*
X73800Y-27700D01*
X73800Y-27700D02*
X73800Y-28700D01*
X73800Y-28700D02*
X70800Y-28700D01*
X70800Y-28700D02*
X70800Y-27700D01*
X73550Y-27700D02*
X73550Y-28700D01*
X73300Y-28700D02*
X73300Y-27700D01*
X70800Y-28200D02*
X70300Y-28200D01*
X73800Y-28200D02*
X74300Y-28200D01*
X70800Y-31900D02*
X73800Y-31900D01*
X73800Y-31900D02*
X73800Y-32900D01*
X73800Y-32900D02*
X70800Y-32900D01*
X70800Y-32900D02*
X70800Y-31900D01*
X73550Y-31900D02*
X73550Y-32900D01*
X73300Y-32900D02*
X73300Y-31900D01*
X70800Y-32400D02*
X70300Y-32400D01*
X73800Y-32400D02*
X74300Y-32400D01*
X80900Y-40500D02*
X81900Y-40500D01*
X81900Y-40500D02*
X81900Y-42500D01*
X81900Y-42500D02*
X80900Y-42500D01*
X80900Y-42500D02*
X80900Y-40500D01*
X76200Y-23200D02*
X76200Y-23200D01*
X76200Y-24200D02*
X76200Y-23200D01*
X76200Y-23200D02*
X76200Y-23200D01*
X76200Y-23200D02*
X80200Y-23200D01*
X80200Y-23200D02*
X80200Y-24200D01*
X80200Y-24200D02*
X76200Y-24200D01*
X77200Y-24200D02*
X77200Y-23200D01*
X67700Y-44600D02*
X69200Y-46100D01*
X69200Y-46100D02*
X69700Y-46100D01*
X69700Y-46100D02*
X70200Y-45600D01*
X70200Y-45600D02*
X70200Y-44600D01*
X70200Y-44600D02*
X69200Y-43600D01*
X69200Y-43600D02*
X68200Y-43600D01*
X68200Y-43600D02*
X67700Y-44100D01*
X67700Y-44100D02*
X67700Y-44600D01*
X78300Y-24600D02*
X81100Y-24600D01*
X81100Y-24600D02*
X81100Y-25400D01*
X81100Y-25400D02*
X78300Y-25400D01*
X78300Y-25400D02*
X78300Y-24600D01*
X78300Y-24800D02*
X78500Y-24600D01*
X75300Y-24600D02*
X78100Y-24600D01*
X78100Y-24600D02*
X78100Y-25400D01*
X78100Y-25400D02*
X75300Y-25400D01*
X75300Y-25400D02*
X75300Y-24600D01*
X75300Y-24800D02*
X75500Y-24600D01*
G54D22*
X51500Y-45500D02*
X51491Y-45583D01*
X51491Y-45583D02*
X51465Y-45662D01*
X51465Y-45662D02*
X51423Y-45735D01*
X51423Y-45735D02*
X51367Y-45797D01*
X51367Y-45797D02*
X51300Y-45846D01*
X51300Y-45846D02*
X51223Y-45880D01*
X51223Y-45880D02*
X51141Y-45897D01*
X51141Y-45897D02*
X51059Y-45897D01*
X51059Y-45897D02*
X50977Y-45880D01*
X50977Y-45880D02*
X50900Y-45846D01*
X50900Y-45846D02*
X50833Y-45797D01*
X50833Y-45797D02*
X50777Y-45735D01*
X50777Y-45735D02*
X50735Y-45662D01*
X50735Y-45662D02*
X50709Y-45583D01*
X50709Y-45583D02*
X50700Y-45500D01*
X50700Y-45500D02*
X50709Y-45417D01*
X50709Y-45417D02*
X50735Y-45338D01*
X50735Y-45338D02*
X50777Y-45265D01*
X50777Y-45265D02*
X50833Y-45203D01*
X50833Y-45203D02*
X50900Y-45154D01*
X50900Y-45154D02*
X50977Y-45120D01*
X50977Y-45120D02*
X51059Y-45103D01*
X51059Y-45103D02*
X51141Y-45103D01*
X51141Y-45103D02*
X51223Y-45120D01*
X51223Y-45120D02*
X51300Y-45154D01*
X51300Y-45154D02*
X51367Y-45203D01*
X51367Y-45203D02*
X51423Y-45265D01*
X51423Y-45265D02*
X51465Y-45338D01*
X51465Y-45338D02*
X51491Y-45417D01*
X51491Y-45417D02*
X51500Y-45500D01*
X51500Y-42500D02*
X51491Y-42583D01*
X51491Y-42583D02*
X51465Y-42662D01*
X51465Y-42662D02*
X51423Y-42735D01*
X51423Y-42735D02*
X51367Y-42797D01*
X51367Y-42797D02*
X51300Y-42846D01*
X51300Y-42846D02*
X51223Y-42880D01*
X51223Y-42880D02*
X51141Y-42897D01*
X51141Y-42897D02*
X51059Y-42897D01*
X51059Y-42897D02*
X50977Y-42880D01*
X50977Y-42880D02*
X50900Y-42846D01*
X50900Y-42846D02*
X50833Y-42797D01*
X50833Y-42797D02*
X50777Y-42735D01*
X50777Y-42735D02*
X50735Y-42662D01*
X50735Y-42662D02*
X50709Y-42583D01*
X50709Y-42583D02*
X50700Y-42500D01*
X50700Y-42500D02*
X50709Y-42417D01*
X50709Y-42417D02*
X50735Y-42338D01*
X50735Y-42338D02*
X50777Y-42265D01*
X50777Y-42265D02*
X50833Y-42203D01*
X50833Y-42203D02*
X50900Y-42154D01*
X50900Y-42154D02*
X50977Y-42120D01*
X50977Y-42120D02*
X51059Y-42103D01*
X51059Y-42103D02*
X51141Y-42103D01*
X51141Y-42103D02*
X51223Y-42120D01*
X51223Y-42120D02*
X51300Y-42154D01*
X51300Y-42154D02*
X51367Y-42203D01*
X51367Y-42203D02*
X51423Y-42265D01*
X51423Y-42265D02*
X51465Y-42338D01*
X51465Y-42338D02*
X51491Y-42417D01*
X51491Y-42417D02*
X51500Y-42500D01*
X51500Y-40300D02*
X51491Y-40383D01*
X51491Y-40383D02*
X51465Y-40462D01*
X51465Y-40462D02*
X51423Y-40535D01*
X51423Y-40535D02*
X51367Y-40597D01*
X51367Y-40597D02*
X51300Y-40646D01*
X51300Y-40646D02*
X51223Y-40680D01*
X51223Y-40680D02*
X51141Y-40697D01*
X51141Y-40697D02*
X51059Y-40697D01*
X51059Y-40697D02*
X50977Y-40680D01*
X50977Y-40680D02*
X50900Y-40646D01*
X50900Y-40646D02*
X50833Y-40597D01*
X50833Y-40597D02*
X50777Y-40535D01*
X50777Y-40535D02*
X50735Y-40462D01*
X50735Y-40462D02*
X50709Y-40383D01*
X50709Y-40383D02*
X50700Y-40300D01*
X50700Y-40300D02*
X50709Y-40217D01*
X50709Y-40217D02*
X50735Y-40138D01*
X50735Y-40138D02*
X50777Y-40065D01*
X50777Y-40065D02*
X50833Y-40003D01*
X50833Y-40003D02*
X50900Y-39954D01*
X50900Y-39954D02*
X50977Y-39920D01*
X50977Y-39920D02*
X51059Y-39903D01*
X51059Y-39903D02*
X51141Y-39903D01*
X51141Y-39903D02*
X51223Y-39920D01*
X51223Y-39920D02*
X51300Y-39954D01*
X51300Y-39954D02*
X51367Y-40003D01*
X51367Y-40003D02*
X51423Y-40065D01*
X51423Y-40065D02*
X51465Y-40138D01*
X51465Y-40138D02*
X51491Y-40217D01*
X51491Y-40217D02*
X51500Y-40300D01*
X51500Y-37300D02*
X51491Y-37383D01*
X51491Y-37383D02*
X51465Y-37462D01*
X51465Y-37462D02*
X51423Y-37535D01*
X51423Y-37535D02*
X51367Y-37597D01*
X51367Y-37597D02*
X51300Y-37646D01*
X51300Y-37646D02*
X51223Y-37680D01*
X51223Y-37680D02*
X51141Y-37697D01*
X51141Y-37697D02*
X51059Y-37697D01*
X51059Y-37697D02*
X50977Y-37680D01*
X50977Y-37680D02*
X50900Y-37646D01*
X50900Y-37646D02*
X50833Y-37597D01*
X50833Y-37597D02*
X50777Y-37535D01*
X50777Y-37535D02*
X50735Y-37462D01*
X50735Y-37462D02*
X50709Y-37383D01*
X50709Y-37383D02*
X50700Y-37300D01*
X50700Y-37300D02*
X50709Y-37217D01*
X50709Y-37217D02*
X50735Y-37138D01*
X50735Y-37138D02*
X50777Y-37065D01*
X50777Y-37065D02*
X50833Y-37003D01*
X50833Y-37003D02*
X50900Y-36954D01*
X50900Y-36954D02*
X50977Y-36920D01*
X50977Y-36920D02*
X51059Y-36903D01*
X51059Y-36903D02*
X51141Y-36903D01*
X51141Y-36903D02*
X51223Y-36920D01*
X51223Y-36920D02*
X51300Y-36954D01*
X51300Y-36954D02*
X51367Y-37003D01*
X51367Y-37003D02*
X51423Y-37065D01*
X51423Y-37065D02*
X51465Y-37138D01*
X51465Y-37138D02*
X51491Y-37217D01*
X51491Y-37217D02*
X51500Y-37300D01*
X51500Y-35300D02*
X51491Y-35383D01*
X51491Y-35383D02*
X51465Y-35462D01*
X51465Y-35462D02*
X51423Y-35535D01*
X51423Y-35535D02*
X51367Y-35597D01*
X51367Y-35597D02*
X51300Y-35646D01*
X51300Y-35646D02*
X51223Y-35680D01*
X51223Y-35680D02*
X51141Y-35697D01*
X51141Y-35697D02*
X51059Y-35697D01*
X51059Y-35697D02*
X50977Y-35680D01*
X50977Y-35680D02*
X50900Y-35646D01*
X50900Y-35646D02*
X50833Y-35597D01*
X50833Y-35597D02*
X50777Y-35535D01*
X50777Y-35535D02*
X50735Y-35462D01*
X50735Y-35462D02*
X50709Y-35383D01*
X50709Y-35383D02*
X50700Y-35300D01*
X50700Y-35300D02*
X50709Y-35217D01*
X50709Y-35217D02*
X50735Y-35138D01*
X50735Y-35138D02*
X50777Y-35065D01*
X50777Y-35065D02*
X50833Y-35003D01*
X50833Y-35003D02*
X50900Y-34954D01*
X50900Y-34954D02*
X50977Y-34920D01*
X50977Y-34920D02*
X51059Y-34903D01*
X51059Y-34903D02*
X51141Y-34903D01*
X51141Y-34903D02*
X51223Y-34920D01*
X51223Y-34920D02*
X51300Y-34954D01*
X51300Y-34954D02*
X51367Y-35003D01*
X51367Y-35003D02*
X51423Y-35065D01*
X51423Y-35065D02*
X51465Y-35138D01*
X51465Y-35138D02*
X51491Y-35217D01*
X51491Y-35217D02*
X51500Y-35300D01*
X51500Y-32300D02*
X51491Y-32383D01*
X51491Y-32383D02*
X51465Y-32462D01*
X51465Y-32462D02*
X51423Y-32535D01*
X51423Y-32535D02*
X51367Y-32597D01*
X51367Y-32597D02*
X51300Y-32646D01*
X51300Y-32646D02*
X51223Y-32680D01*
X51223Y-32680D02*
X51141Y-32697D01*
X51141Y-32697D02*
X51059Y-32697D01*
X51059Y-32697D02*
X50977Y-32680D01*
X50977Y-32680D02*
X50900Y-32646D01*
X50900Y-32646D02*
X50833Y-32597D01*
X50833Y-32597D02*
X50777Y-32535D01*
X50777Y-32535D02*
X50735Y-32462D01*
X50735Y-32462D02*
X50709Y-32383D01*
X50709Y-32383D02*
X50700Y-32300D01*
X50700Y-32300D02*
X50709Y-32217D01*
X50709Y-32217D02*
X50735Y-32138D01*
X50735Y-32138D02*
X50777Y-32065D01*
X50777Y-32065D02*
X50833Y-32003D01*
X50833Y-32003D02*
X50900Y-31954D01*
X50900Y-31954D02*
X50977Y-31920D01*
X50977Y-31920D02*
X51059Y-31903D01*
X51059Y-31903D02*
X51141Y-31903D01*
X51141Y-31903D02*
X51223Y-31920D01*
X51223Y-31920D02*
X51300Y-31954D01*
X51300Y-31954D02*
X51367Y-32003D01*
X51367Y-32003D02*
X51423Y-32065D01*
X51423Y-32065D02*
X51465Y-32138D01*
X51465Y-32138D02*
X51491Y-32217D01*
X51491Y-32217D02*
X51500Y-32300D01*
X49450Y-42500D02*
X49440Y-42593D01*
X49440Y-42593D02*
X49411Y-42683D01*
X49411Y-42683D02*
X49364Y-42764D01*
X49364Y-42764D02*
X49301Y-42834D01*
X49301Y-42834D02*
X49225Y-42889D01*
X49225Y-42889D02*
X49139Y-42927D01*
X49139Y-42927D02*
X49047Y-42947D01*
X49047Y-42947D02*
X48953Y-42947D01*
X48953Y-42947D02*
X48861Y-42927D01*
X48861Y-42927D02*
X48775Y-42889D01*
X48775Y-42889D02*
X48699Y-42834D01*
X48699Y-42834D02*
X48636Y-42764D01*
X48636Y-42764D02*
X48589Y-42683D01*
X48589Y-42683D02*
X48560Y-42593D01*
X48560Y-42593D02*
X48550Y-42500D01*
X48550Y-42500D02*
X48560Y-42407D01*
X48560Y-42407D02*
X48589Y-42317D01*
X48589Y-42317D02*
X48636Y-42236D01*
X48636Y-42236D02*
X48699Y-42166D01*
X48699Y-42166D02*
X48775Y-42111D01*
X48775Y-42111D02*
X48861Y-42073D01*
X48861Y-42073D02*
X48953Y-42053D01*
X48953Y-42053D02*
X49047Y-42053D01*
X49047Y-42053D02*
X49139Y-42073D01*
X49139Y-42073D02*
X49225Y-42111D01*
X49225Y-42111D02*
X49301Y-42166D01*
X49301Y-42166D02*
X49364Y-42236D01*
X49364Y-42236D02*
X49411Y-42317D01*
X49411Y-42317D02*
X49440Y-42407D01*
X49440Y-42407D02*
X49450Y-42500D01*
X49450Y-43500D02*
X49440Y-43593D01*
X49440Y-43593D02*
X49411Y-43683D01*
X49411Y-43683D02*
X49364Y-43764D01*
X49364Y-43764D02*
X49301Y-43834D01*
X49301Y-43834D02*
X49225Y-43889D01*
X49225Y-43889D02*
X49139Y-43927D01*
X49139Y-43927D02*
X49047Y-43947D01*
X49047Y-43947D02*
X48953Y-43947D01*
X48953Y-43947D02*
X48861Y-43927D01*
X48861Y-43927D02*
X48775Y-43889D01*
X48775Y-43889D02*
X48699Y-43834D01*
X48699Y-43834D02*
X48636Y-43764D01*
X48636Y-43764D02*
X48589Y-43683D01*
X48589Y-43683D02*
X48560Y-43593D01*
X48560Y-43593D02*
X48550Y-43500D01*
X48550Y-43500D02*
X48560Y-43407D01*
X48560Y-43407D02*
X48589Y-43317D01*
X48589Y-43317D02*
X48636Y-43236D01*
X48636Y-43236D02*
X48699Y-43166D01*
X48699Y-43166D02*
X48775Y-43111D01*
X48775Y-43111D02*
X48861Y-43073D01*
X48861Y-43073D02*
X48953Y-43053D01*
X48953Y-43053D02*
X49047Y-43053D01*
X49047Y-43053D02*
X49139Y-43073D01*
X49139Y-43073D02*
X49225Y-43111D01*
X49225Y-43111D02*
X49301Y-43166D01*
X49301Y-43166D02*
X49364Y-43236D01*
X49364Y-43236D02*
X49411Y-43317D01*
X49411Y-43317D02*
X49440Y-43407D01*
X49440Y-43407D02*
X49450Y-43500D01*
X48550Y-44950D02*
X48550Y-44050D01*
X48550Y-44050D02*
X49450Y-44050D01*
X49450Y-44050D02*
X49450Y-44950D01*
X49450Y-44950D02*
X48550Y-44950D01*
X46900Y-44900D02*
X46100Y-44900D01*
X46100Y-44900D02*
X46100Y-44100D01*
X46100Y-44100D02*
X46900Y-44100D01*
X46900Y-44100D02*
X46900Y-44900D01*
X46900Y-43500D02*
X46891Y-43583D01*
X46891Y-43583D02*
X46865Y-43662D01*
X46865Y-43662D02*
X46823Y-43735D01*
X46823Y-43735D02*
X46767Y-43797D01*
X46767Y-43797D02*
X46700Y-43846D01*
X46700Y-43846D02*
X46623Y-43880D01*
X46623Y-43880D02*
X46541Y-43897D01*
X46541Y-43897D02*
X46459Y-43897D01*
X46459Y-43897D02*
X46377Y-43880D01*
X46377Y-43880D02*
X46300Y-43846D01*
X46300Y-43846D02*
X46233Y-43797D01*
X46233Y-43797D02*
X46177Y-43735D01*
X46177Y-43735D02*
X46135Y-43662D01*
X46135Y-43662D02*
X46109Y-43583D01*
X46109Y-43583D02*
X46100Y-43500D01*
X46100Y-43500D02*
X46109Y-43417D01*
X46109Y-43417D02*
X46135Y-43338D01*
X46135Y-43338D02*
X46177Y-43265D01*
X46177Y-43265D02*
X46233Y-43203D01*
X46233Y-43203D02*
X46300Y-43154D01*
X46300Y-43154D02*
X46377Y-43120D01*
X46377Y-43120D02*
X46459Y-43103D01*
X46459Y-43103D02*
X46541Y-43103D01*
X46541Y-43103D02*
X46623Y-43120D01*
X46623Y-43120D02*
X46700Y-43154D01*
X46700Y-43154D02*
X46767Y-43203D01*
X46767Y-43203D02*
X46823Y-43265D01*
X46823Y-43265D02*
X46865Y-43338D01*
X46865Y-43338D02*
X46891Y-43417D01*
X46891Y-43417D02*
X46900Y-43500D01*
X49450Y-37300D02*
X49440Y-37393D01*
X49440Y-37393D02*
X49411Y-37483D01*
X49411Y-37483D02*
X49364Y-37564D01*
X49364Y-37564D02*
X49301Y-37634D01*
X49301Y-37634D02*
X49225Y-37689D01*
X49225Y-37689D02*
X49139Y-37727D01*
X49139Y-37727D02*
X49047Y-37747D01*
X49047Y-37747D02*
X48953Y-37747D01*
X48953Y-37747D02*
X48861Y-37727D01*
X48861Y-37727D02*
X48775Y-37689D01*
X48775Y-37689D02*
X48699Y-37634D01*
X48699Y-37634D02*
X48636Y-37564D01*
X48636Y-37564D02*
X48589Y-37483D01*
X48589Y-37483D02*
X48560Y-37393D01*
X48560Y-37393D02*
X48550Y-37300D01*
X48550Y-37300D02*
X48560Y-37207D01*
X48560Y-37207D02*
X48589Y-37117D01*
X48589Y-37117D02*
X48636Y-37036D01*
X48636Y-37036D02*
X48699Y-36966D01*
X48699Y-36966D02*
X48775Y-36911D01*
X48775Y-36911D02*
X48861Y-36873D01*
X48861Y-36873D02*
X48953Y-36853D01*
X48953Y-36853D02*
X49047Y-36853D01*
X49047Y-36853D02*
X49139Y-36873D01*
X49139Y-36873D02*
X49225Y-36911D01*
X49225Y-36911D02*
X49301Y-36966D01*
X49301Y-36966D02*
X49364Y-37036D01*
X49364Y-37036D02*
X49411Y-37117D01*
X49411Y-37117D02*
X49440Y-37207D01*
X49440Y-37207D02*
X49450Y-37300D01*
X49450Y-38300D02*
X49440Y-38393D01*
X49440Y-38393D02*
X49411Y-38483D01*
X49411Y-38483D02*
X49364Y-38564D01*
X49364Y-38564D02*
X49301Y-38634D01*
X49301Y-38634D02*
X49225Y-38689D01*
X49225Y-38689D02*
X49139Y-38727D01*
X49139Y-38727D02*
X49047Y-38747D01*
X49047Y-38747D02*
X48953Y-38747D01*
X48953Y-38747D02*
X48861Y-38727D01*
X48861Y-38727D02*
X48775Y-38689D01*
X48775Y-38689D02*
X48699Y-38634D01*
X48699Y-38634D02*
X48636Y-38564D01*
X48636Y-38564D02*
X48589Y-38483D01*
X48589Y-38483D02*
X48560Y-38393D01*
X48560Y-38393D02*
X48550Y-38300D01*
X48550Y-38300D02*
X48560Y-38207D01*
X48560Y-38207D02*
X48589Y-38117D01*
X48589Y-38117D02*
X48636Y-38036D01*
X48636Y-38036D02*
X48699Y-37966D01*
X48699Y-37966D02*
X48775Y-37911D01*
X48775Y-37911D02*
X48861Y-37873D01*
X48861Y-37873D02*
X48953Y-37853D01*
X48953Y-37853D02*
X49047Y-37853D01*
X49047Y-37853D02*
X49139Y-37873D01*
X49139Y-37873D02*
X49225Y-37911D01*
X49225Y-37911D02*
X49301Y-37966D01*
X49301Y-37966D02*
X49364Y-38036D01*
X49364Y-38036D02*
X49411Y-38117D01*
X49411Y-38117D02*
X49440Y-38207D01*
X49440Y-38207D02*
X49450Y-38300D01*
X48550Y-39750D02*
X48550Y-38850D01*
X48550Y-38850D02*
X49450Y-38850D01*
X49450Y-38850D02*
X49450Y-39750D01*
X49450Y-39750D02*
X48550Y-39750D01*
X46900Y-39700D02*
X46100Y-39700D01*
X46100Y-39700D02*
X46100Y-38900D01*
X46100Y-38900D02*
X46900Y-38900D01*
X46900Y-38900D02*
X46900Y-39700D01*
X46900Y-38300D02*
X46891Y-38383D01*
X46891Y-38383D02*
X46865Y-38462D01*
X46865Y-38462D02*
X46823Y-38535D01*
X46823Y-38535D02*
X46767Y-38597D01*
X46767Y-38597D02*
X46700Y-38646D01*
X46700Y-38646D02*
X46623Y-38680D01*
X46623Y-38680D02*
X46541Y-38697D01*
X46541Y-38697D02*
X46459Y-38697D01*
X46459Y-38697D02*
X46377Y-38680D01*
X46377Y-38680D02*
X46300Y-38646D01*
X46300Y-38646D02*
X46233Y-38597D01*
X46233Y-38597D02*
X46177Y-38535D01*
X46177Y-38535D02*
X46135Y-38462D01*
X46135Y-38462D02*
X46109Y-38383D01*
X46109Y-38383D02*
X46100Y-38300D01*
X46100Y-38300D02*
X46109Y-38217D01*
X46109Y-38217D02*
X46135Y-38138D01*
X46135Y-38138D02*
X46177Y-38065D01*
X46177Y-38065D02*
X46233Y-38003D01*
X46233Y-38003D02*
X46300Y-37954D01*
X46300Y-37954D02*
X46377Y-37920D01*
X46377Y-37920D02*
X46459Y-37903D01*
X46459Y-37903D02*
X46541Y-37903D01*
X46541Y-37903D02*
X46623Y-37920D01*
X46623Y-37920D02*
X46700Y-37954D01*
X46700Y-37954D02*
X46767Y-38003D01*
X46767Y-38003D02*
X46823Y-38065D01*
X46823Y-38065D02*
X46865Y-38138D01*
X46865Y-38138D02*
X46891Y-38217D01*
X46891Y-38217D02*
X46900Y-38300D01*
X49450Y-32300D02*
X49440Y-32393D01*
X49440Y-32393D02*
X49411Y-32483D01*
X49411Y-32483D02*
X49364Y-32564D01*
X49364Y-32564D02*
X49301Y-32634D01*
X49301Y-32634D02*
X49225Y-32689D01*
X49225Y-32689D02*
X49139Y-32727D01*
X49139Y-32727D02*
X49047Y-32747D01*
X49047Y-32747D02*
X48953Y-32747D01*
X48953Y-32747D02*
X48861Y-32727D01*
X48861Y-32727D02*
X48775Y-32689D01*
X48775Y-32689D02*
X48699Y-32634D01*
X48699Y-32634D02*
X48636Y-32564D01*
X48636Y-32564D02*
X48589Y-32483D01*
X48589Y-32483D02*
X48560Y-32393D01*
X48560Y-32393D02*
X48550Y-32300D01*
X48550Y-32300D02*
X48560Y-32207D01*
X48560Y-32207D02*
X48589Y-32117D01*
X48589Y-32117D02*
X48636Y-32036D01*
X48636Y-32036D02*
X48699Y-31966D01*
X48699Y-31966D02*
X48775Y-31911D01*
X48775Y-31911D02*
X48861Y-31873D01*
X48861Y-31873D02*
X48953Y-31853D01*
X48953Y-31853D02*
X49047Y-31853D01*
X49047Y-31853D02*
X49139Y-31873D01*
X49139Y-31873D02*
X49225Y-31911D01*
X49225Y-31911D02*
X49301Y-31966D01*
X49301Y-31966D02*
X49364Y-32036D01*
X49364Y-32036D02*
X49411Y-32117D01*
X49411Y-32117D02*
X49440Y-32207D01*
X49440Y-32207D02*
X49450Y-32300D01*
X49450Y-33300D02*
X49440Y-33393D01*
X49440Y-33393D02*
X49411Y-33483D01*
X49411Y-33483D02*
X49364Y-33564D01*
X49364Y-33564D02*
X49301Y-33634D01*
X49301Y-33634D02*
X49225Y-33689D01*
X49225Y-33689D02*
X49139Y-33727D01*
X49139Y-33727D02*
X49047Y-33747D01*
X49047Y-33747D02*
X48953Y-33747D01*
X48953Y-33747D02*
X48861Y-33727D01*
X48861Y-33727D02*
X48775Y-33689D01*
X48775Y-33689D02*
X48699Y-33634D01*
X48699Y-33634D02*
X48636Y-33564D01*
X48636Y-33564D02*
X48589Y-33483D01*
X48589Y-33483D02*
X48560Y-33393D01*
X48560Y-33393D02*
X48550Y-33300D01*
X48550Y-33300D02*
X48560Y-33207D01*
X48560Y-33207D02*
X48589Y-33117D01*
X48589Y-33117D02*
X48636Y-33036D01*
X48636Y-33036D02*
X48699Y-32966D01*
X48699Y-32966D02*
X48775Y-32911D01*
X48775Y-32911D02*
X48861Y-32873D01*
X48861Y-32873D02*
X48953Y-32853D01*
X48953Y-32853D02*
X49047Y-32853D01*
X49047Y-32853D02*
X49139Y-32873D01*
X49139Y-32873D02*
X49225Y-32911D01*
X49225Y-32911D02*
X49301Y-32966D01*
X49301Y-32966D02*
X49364Y-33036D01*
X49364Y-33036D02*
X49411Y-33117D01*
X49411Y-33117D02*
X49440Y-33207D01*
X49440Y-33207D02*
X49450Y-33300D01*
X48550Y-34750D02*
X48550Y-33850D01*
X48550Y-33850D02*
X49450Y-33850D01*
X49450Y-33850D02*
X49450Y-34750D01*
X49450Y-34750D02*
X48550Y-34750D01*
X46900Y-34700D02*
X46100Y-34700D01*
X46100Y-34700D02*
X46100Y-33900D01*
X46100Y-33900D02*
X46900Y-33900D01*
X46900Y-33900D02*
X46900Y-34700D01*
X46900Y-33300D02*
X46891Y-33383D01*
X46891Y-33383D02*
X46865Y-33462D01*
X46865Y-33462D02*
X46823Y-33535D01*
X46823Y-33535D02*
X46767Y-33597D01*
X46767Y-33597D02*
X46700Y-33646D01*
X46700Y-33646D02*
X46623Y-33680D01*
X46623Y-33680D02*
X46541Y-33697D01*
X46541Y-33697D02*
X46459Y-33697D01*
X46459Y-33697D02*
X46377Y-33680D01*
X46377Y-33680D02*
X46300Y-33646D01*
X46300Y-33646D02*
X46233Y-33597D01*
X46233Y-33597D02*
X46177Y-33535D01*
X46177Y-33535D02*
X46135Y-33462D01*
X46135Y-33462D02*
X46109Y-33383D01*
X46109Y-33383D02*
X46100Y-33300D01*
X46100Y-33300D02*
X46109Y-33217D01*
X46109Y-33217D02*
X46135Y-33138D01*
X46135Y-33138D02*
X46177Y-33065D01*
X46177Y-33065D02*
X46233Y-33003D01*
X46233Y-33003D02*
X46300Y-32954D01*
X46300Y-32954D02*
X46377Y-32920D01*
X46377Y-32920D02*
X46459Y-32903D01*
X46459Y-32903D02*
X46541Y-32903D01*
X46541Y-32903D02*
X46623Y-32920D01*
X46623Y-32920D02*
X46700Y-32954D01*
X46700Y-32954D02*
X46767Y-33003D01*
X46767Y-33003D02*
X46823Y-33065D01*
X46823Y-33065D02*
X46865Y-33138D01*
X46865Y-33138D02*
X46891Y-33217D01*
X46891Y-33217D02*
X46900Y-33300D01*
X51600Y-23700D02*
X51600Y-24500D01*
X51600Y-24500D02*
X50800Y-24500D01*
X50800Y-24500D02*
X50800Y-23700D01*
X50800Y-23700D02*
X51600Y-23700D01*
X50600Y-24100D02*
X50591Y-24183D01*
X50591Y-24183D02*
X50565Y-24262D01*
X50565Y-24262D02*
X50523Y-24335D01*
X50523Y-24335D02*
X50467Y-24397D01*
X50467Y-24397D02*
X50400Y-24446D01*
X50400Y-24446D02*
X50323Y-24480D01*
X50323Y-24480D02*
X50241Y-24497D01*
X50241Y-24497D02*
X50159Y-24497D01*
X50159Y-24497D02*
X50077Y-24480D01*
X50077Y-24480D02*
X50000Y-24446D01*
X50000Y-24446D02*
X49933Y-24397D01*
X49933Y-24397D02*
X49877Y-24335D01*
X49877Y-24335D02*
X49835Y-24262D01*
X49835Y-24262D02*
X49809Y-24183D01*
X49809Y-24183D02*
X49800Y-24100D01*
X49800Y-24100D02*
X49809Y-24017D01*
X49809Y-24017D02*
X49835Y-23938D01*
X49835Y-23938D02*
X49877Y-23865D01*
X49877Y-23865D02*
X49933Y-23803D01*
X49933Y-23803D02*
X50000Y-23754D01*
X50000Y-23754D02*
X50077Y-23720D01*
X50077Y-23720D02*
X50159Y-23703D01*
X50159Y-23703D02*
X50241Y-23703D01*
X50241Y-23703D02*
X50323Y-23720D01*
X50323Y-23720D02*
X50400Y-23754D01*
X50400Y-23754D02*
X50467Y-23803D01*
X50467Y-23803D02*
X50523Y-23865D01*
X50523Y-23865D02*
X50565Y-23938D01*
X50565Y-23938D02*
X50591Y-24017D01*
X50591Y-24017D02*
X50600Y-24100D01*
X48600Y-25800D02*
X48591Y-25883D01*
X48591Y-25883D02*
X48565Y-25962D01*
X48565Y-25962D02*
X48523Y-26035D01*
X48523Y-26035D02*
X48467Y-26097D01*
X48467Y-26097D02*
X48400Y-26146D01*
X48400Y-26146D02*
X48323Y-26180D01*
X48323Y-26180D02*
X48241Y-26197D01*
X48241Y-26197D02*
X48159Y-26197D01*
X48159Y-26197D02*
X48077Y-26180D01*
X48077Y-26180D02*
X48000Y-26146D01*
X48000Y-26146D02*
X47933Y-26097D01*
X47933Y-26097D02*
X47877Y-26035D01*
X47877Y-26035D02*
X47835Y-25962D01*
X47835Y-25962D02*
X47809Y-25883D01*
X47809Y-25883D02*
X47800Y-25800D01*
X47800Y-25800D02*
X47809Y-25717D01*
X47809Y-25717D02*
X47835Y-25638D01*
X47835Y-25638D02*
X47877Y-25565D01*
X47877Y-25565D02*
X47933Y-25503D01*
X47933Y-25503D02*
X48000Y-25454D01*
X48000Y-25454D02*
X48077Y-25420D01*
X48077Y-25420D02*
X48159Y-25403D01*
X48159Y-25403D02*
X48241Y-25403D01*
X48241Y-25403D02*
X48323Y-25420D01*
X48323Y-25420D02*
X48400Y-25454D01*
X48400Y-25454D02*
X48467Y-25503D01*
X48467Y-25503D02*
X48523Y-25565D01*
X48523Y-25565D02*
X48565Y-25638D01*
X48565Y-25638D02*
X48591Y-25717D01*
X48591Y-25717D02*
X48600Y-25800D01*
X51600Y-25800D02*
X51591Y-25883D01*
X51591Y-25883D02*
X51565Y-25962D01*
X51565Y-25962D02*
X51523Y-26035D01*
X51523Y-26035D02*
X51467Y-26097D01*
X51467Y-26097D02*
X51400Y-26146D01*
X51400Y-26146D02*
X51323Y-26180D01*
X51323Y-26180D02*
X51241Y-26197D01*
X51241Y-26197D02*
X51159Y-26197D01*
X51159Y-26197D02*
X51077Y-26180D01*
X51077Y-26180D02*
X51000Y-26146D01*
X51000Y-26146D02*
X50933Y-26097D01*
X50933Y-26097D02*
X50877Y-26035D01*
X50877Y-26035D02*
X50835Y-25962D01*
X50835Y-25962D02*
X50809Y-25883D01*
X50809Y-25883D02*
X50800Y-25800D01*
X50800Y-25800D02*
X50809Y-25717D01*
X50809Y-25717D02*
X50835Y-25638D01*
X50835Y-25638D02*
X50877Y-25565D01*
X50877Y-25565D02*
X50933Y-25503D01*
X50933Y-25503D02*
X51000Y-25454D01*
X51000Y-25454D02*
X51077Y-25420D01*
X51077Y-25420D02*
X51159Y-25403D01*
X51159Y-25403D02*
X51241Y-25403D01*
X51241Y-25403D02*
X51323Y-25420D01*
X51323Y-25420D02*
X51400Y-25454D01*
X51400Y-25454D02*
X51467Y-25503D01*
X51467Y-25503D02*
X51523Y-25565D01*
X51523Y-25565D02*
X51565Y-25638D01*
X51565Y-25638D02*
X51591Y-25717D01*
X51591Y-25717D02*
X51600Y-25800D01*
X59300Y-23300D02*
X59300Y-24100D01*
X59300Y-24100D02*
X58500Y-24100D01*
X58500Y-24100D02*
X58500Y-23300D01*
X58500Y-23300D02*
X59300Y-23300D01*
X58300Y-23700D02*
X58291Y-23783D01*
X58291Y-23783D02*
X58265Y-23862D01*
X58265Y-23862D02*
X58223Y-23935D01*
X58223Y-23935D02*
X58167Y-23997D01*
X58167Y-23997D02*
X58100Y-24046D01*
X58100Y-24046D02*
X58023Y-24080D01*
X58023Y-24080D02*
X57941Y-24097D01*
X57941Y-24097D02*
X57859Y-24097D01*
X57859Y-24097D02*
X57777Y-24080D01*
X57777Y-24080D02*
X57700Y-24046D01*
X57700Y-24046D02*
X57633Y-23997D01*
X57633Y-23997D02*
X57577Y-23935D01*
X57577Y-23935D02*
X57535Y-23862D01*
X57535Y-23862D02*
X57509Y-23783D01*
X57509Y-23783D02*
X57500Y-23700D01*
X57500Y-23700D02*
X57509Y-23617D01*
X57509Y-23617D02*
X57535Y-23538D01*
X57535Y-23538D02*
X57577Y-23465D01*
X57577Y-23465D02*
X57633Y-23403D01*
X57633Y-23403D02*
X57700Y-23354D01*
X57700Y-23354D02*
X57777Y-23320D01*
X57777Y-23320D02*
X57859Y-23303D01*
X57859Y-23303D02*
X57941Y-23303D01*
X57941Y-23303D02*
X58023Y-23320D01*
X58023Y-23320D02*
X58100Y-23354D01*
X58100Y-23354D02*
X58167Y-23403D01*
X58167Y-23403D02*
X58223Y-23465D01*
X58223Y-23465D02*
X58265Y-23538D01*
X58265Y-23538D02*
X58291Y-23617D01*
X58291Y-23617D02*
X58300Y-23700D01*
X57300Y-23700D02*
X57291Y-23783D01*
X57291Y-23783D02*
X57265Y-23862D01*
X57265Y-23862D02*
X57223Y-23935D01*
X57223Y-23935D02*
X57167Y-23997D01*
X57167Y-23997D02*
X57100Y-24046D01*
X57100Y-24046D02*
X57023Y-24080D01*
X57023Y-24080D02*
X56941Y-24097D01*
X56941Y-24097D02*
X56859Y-24097D01*
X56859Y-24097D02*
X56777Y-24080D01*
X56777Y-24080D02*
X56700Y-24046D01*
X56700Y-24046D02*
X56633Y-23997D01*
X56633Y-23997D02*
X56577Y-23935D01*
X56577Y-23935D02*
X56535Y-23862D01*
X56535Y-23862D02*
X56509Y-23783D01*
X56509Y-23783D02*
X56500Y-23700D01*
X56500Y-23700D02*
X56509Y-23617D01*
X56509Y-23617D02*
X56535Y-23538D01*
X56535Y-23538D02*
X56577Y-23465D01*
X56577Y-23465D02*
X56633Y-23403D01*
X56633Y-23403D02*
X56700Y-23354D01*
X56700Y-23354D02*
X56777Y-23320D01*
X56777Y-23320D02*
X56859Y-23303D01*
X56859Y-23303D02*
X56941Y-23303D01*
X56941Y-23303D02*
X57023Y-23320D01*
X57023Y-23320D02*
X57100Y-23354D01*
X57100Y-23354D02*
X57167Y-23403D01*
X57167Y-23403D02*
X57223Y-23465D01*
X57223Y-23465D02*
X57265Y-23538D01*
X57265Y-23538D02*
X57291Y-23617D01*
X57291Y-23617D02*
X57300Y-23700D01*
X59300Y-28100D02*
X59291Y-28183D01*
X59291Y-28183D02*
X59265Y-28262D01*
X59265Y-28262D02*
X59223Y-28335D01*
X59223Y-28335D02*
X59167Y-28397D01*
X59167Y-28397D02*
X59100Y-28446D01*
X59100Y-28446D02*
X59023Y-28480D01*
X59023Y-28480D02*
X58941Y-28497D01*
X58941Y-28497D02*
X58859Y-28497D01*
X58859Y-28497D02*
X58777Y-28480D01*
X58777Y-28480D02*
X58700Y-28446D01*
X58700Y-28446D02*
X58633Y-28397D01*
X58633Y-28397D02*
X58577Y-28335D01*
X58577Y-28335D02*
X58535Y-28262D01*
X58535Y-28262D02*
X58509Y-28183D01*
X58509Y-28183D02*
X58500Y-28100D01*
X58500Y-28100D02*
X58509Y-28017D01*
X58509Y-28017D02*
X58535Y-27938D01*
X58535Y-27938D02*
X58577Y-27865D01*
X58577Y-27865D02*
X58633Y-27803D01*
X58633Y-27803D02*
X58700Y-27754D01*
X58700Y-27754D02*
X58777Y-27720D01*
X58777Y-27720D02*
X58859Y-27703D01*
X58859Y-27703D02*
X58941Y-27703D01*
X58941Y-27703D02*
X59023Y-27720D01*
X59023Y-27720D02*
X59100Y-27754D01*
X59100Y-27754D02*
X59167Y-27803D01*
X59167Y-27803D02*
X59223Y-27865D01*
X59223Y-27865D02*
X59265Y-27938D01*
X59265Y-27938D02*
X59291Y-28017D01*
X59291Y-28017D02*
X59300Y-28100D01*
X59300Y-25100D02*
X59291Y-25183D01*
X59291Y-25183D02*
X59265Y-25262D01*
X59265Y-25262D02*
X59223Y-25335D01*
X59223Y-25335D02*
X59167Y-25397D01*
X59167Y-25397D02*
X59100Y-25446D01*
X59100Y-25446D02*
X59023Y-25480D01*
X59023Y-25480D02*
X58941Y-25497D01*
X58941Y-25497D02*
X58859Y-25497D01*
X58859Y-25497D02*
X58777Y-25480D01*
X58777Y-25480D02*
X58700Y-25446D01*
X58700Y-25446D02*
X58633Y-25397D01*
X58633Y-25397D02*
X58577Y-25335D01*
X58577Y-25335D02*
X58535Y-25262D01*
X58535Y-25262D02*
X58509Y-25183D01*
X58509Y-25183D02*
X58500Y-25100D01*
X58500Y-25100D02*
X58509Y-25017D01*
X58509Y-25017D02*
X58535Y-24938D01*
X58535Y-24938D02*
X58577Y-24865D01*
X58577Y-24865D02*
X58633Y-24803D01*
X58633Y-24803D02*
X58700Y-24754D01*
X58700Y-24754D02*
X58777Y-24720D01*
X58777Y-24720D02*
X58859Y-24703D01*
X58859Y-24703D02*
X58941Y-24703D01*
X58941Y-24703D02*
X59023Y-24720D01*
X59023Y-24720D02*
X59100Y-24754D01*
X59100Y-24754D02*
X59167Y-24803D01*
X59167Y-24803D02*
X59223Y-24865D01*
X59223Y-24865D02*
X59265Y-24938D01*
X59265Y-24938D02*
X59291Y-25017D01*
X59291Y-25017D02*
X59300Y-25100D01*
X54600Y-28000D02*
X54591Y-28083D01*
X54591Y-28083D02*
X54565Y-28162D01*
X54565Y-28162D02*
X54523Y-28235D01*
X54523Y-28235D02*
X54467Y-28297D01*
X54467Y-28297D02*
X54400Y-28346D01*
X54400Y-28346D02*
X54323Y-28380D01*
X54323Y-28380D02*
X54241Y-28397D01*
X54241Y-28397D02*
X54159Y-28397D01*
X54159Y-28397D02*
X54077Y-28380D01*
X54077Y-28380D02*
X54000Y-28346D01*
X54000Y-28346D02*
X53933Y-28297D01*
X53933Y-28297D02*
X53877Y-28235D01*
X53877Y-28235D02*
X53835Y-28162D01*
X53835Y-28162D02*
X53809Y-28083D01*
X53809Y-28083D02*
X53800Y-28000D01*
X53800Y-28000D02*
X53809Y-27917D01*
X53809Y-27917D02*
X53835Y-27838D01*
X53835Y-27838D02*
X53877Y-27765D01*
X53877Y-27765D02*
X53933Y-27703D01*
X53933Y-27703D02*
X54000Y-27654D01*
X54000Y-27654D02*
X54077Y-27620D01*
X54077Y-27620D02*
X54159Y-27603D01*
X54159Y-27603D02*
X54241Y-27603D01*
X54241Y-27603D02*
X54323Y-27620D01*
X54323Y-27620D02*
X54400Y-27654D01*
X54400Y-27654D02*
X54467Y-27703D01*
X54467Y-27703D02*
X54523Y-27765D01*
X54523Y-27765D02*
X54565Y-27838D01*
X54565Y-27838D02*
X54591Y-27917D01*
X54591Y-27917D02*
X54600Y-28000D01*
X54600Y-25000D02*
X54591Y-25083D01*
X54591Y-25083D02*
X54565Y-25162D01*
X54565Y-25162D02*
X54523Y-25235D01*
X54523Y-25235D02*
X54467Y-25297D01*
X54467Y-25297D02*
X54400Y-25346D01*
X54400Y-25346D02*
X54323Y-25380D01*
X54323Y-25380D02*
X54241Y-25397D01*
X54241Y-25397D02*
X54159Y-25397D01*
X54159Y-25397D02*
X54077Y-25380D01*
X54077Y-25380D02*
X54000Y-25346D01*
X54000Y-25346D02*
X53933Y-25297D01*
X53933Y-25297D02*
X53877Y-25235D01*
X53877Y-25235D02*
X53835Y-25162D01*
X53835Y-25162D02*
X53809Y-25083D01*
X53809Y-25083D02*
X53800Y-25000D01*
X53800Y-25000D02*
X53809Y-24917D01*
X53809Y-24917D02*
X53835Y-24838D01*
X53835Y-24838D02*
X53877Y-24765D01*
X53877Y-24765D02*
X53933Y-24703D01*
X53933Y-24703D02*
X54000Y-24654D01*
X54000Y-24654D02*
X54077Y-24620D01*
X54077Y-24620D02*
X54159Y-24603D01*
X54159Y-24603D02*
X54241Y-24603D01*
X54241Y-24603D02*
X54323Y-24620D01*
X54323Y-24620D02*
X54400Y-24654D01*
X54400Y-24654D02*
X54467Y-24703D01*
X54467Y-24703D02*
X54523Y-24765D01*
X54523Y-24765D02*
X54565Y-24838D01*
X54565Y-24838D02*
X54591Y-24917D01*
X54591Y-24917D02*
X54600Y-25000D01*
X56300Y-28000D02*
X56291Y-28083D01*
X56291Y-28083D02*
X56265Y-28162D01*
X56265Y-28162D02*
X56223Y-28235D01*
X56223Y-28235D02*
X56167Y-28297D01*
X56167Y-28297D02*
X56100Y-28346D01*
X56100Y-28346D02*
X56023Y-28380D01*
X56023Y-28380D02*
X55941Y-28397D01*
X55941Y-28397D02*
X55859Y-28397D01*
X55859Y-28397D02*
X55777Y-28380D01*
X55777Y-28380D02*
X55700Y-28346D01*
X55700Y-28346D02*
X55633Y-28297D01*
X55633Y-28297D02*
X55577Y-28235D01*
X55577Y-28235D02*
X55535Y-28162D01*
X55535Y-28162D02*
X55509Y-28083D01*
X55509Y-28083D02*
X55500Y-28000D01*
X55500Y-28000D02*
X55509Y-27917D01*
X55509Y-27917D02*
X55535Y-27838D01*
X55535Y-27838D02*
X55577Y-27765D01*
X55577Y-27765D02*
X55633Y-27703D01*
X55633Y-27703D02*
X55700Y-27654D01*
X55700Y-27654D02*
X55777Y-27620D01*
X55777Y-27620D02*
X55859Y-27603D01*
X55859Y-27603D02*
X55941Y-27603D01*
X55941Y-27603D02*
X56023Y-27620D01*
X56023Y-27620D02*
X56100Y-27654D01*
X56100Y-27654D02*
X56167Y-27703D01*
X56167Y-27703D02*
X56223Y-27765D01*
X56223Y-27765D02*
X56265Y-27838D01*
X56265Y-27838D02*
X56291Y-27917D01*
X56291Y-27917D02*
X56300Y-28000D01*
X56300Y-25000D02*
X56291Y-25083D01*
X56291Y-25083D02*
X56265Y-25162D01*
X56265Y-25162D02*
X56223Y-25235D01*
X56223Y-25235D02*
X56167Y-25297D01*
X56167Y-25297D02*
X56100Y-25346D01*
X56100Y-25346D02*
X56023Y-25380D01*
X56023Y-25380D02*
X55941Y-25397D01*
X55941Y-25397D02*
X55859Y-25397D01*
X55859Y-25397D02*
X55777Y-25380D01*
X55777Y-25380D02*
X55700Y-25346D01*
X55700Y-25346D02*
X55633Y-25297D01*
X55633Y-25297D02*
X55577Y-25235D01*
X55577Y-25235D02*
X55535Y-25162D01*
X55535Y-25162D02*
X55509Y-25083D01*
X55509Y-25083D02*
X55500Y-25000D01*
X55500Y-25000D02*
X55509Y-24917D01*
X55509Y-24917D02*
X55535Y-24838D01*
X55535Y-24838D02*
X55577Y-24765D01*
X55577Y-24765D02*
X55633Y-24703D01*
X55633Y-24703D02*
X55700Y-24654D01*
X55700Y-24654D02*
X55777Y-24620D01*
X55777Y-24620D02*
X55859Y-24603D01*
X55859Y-24603D02*
X55941Y-24603D01*
X55941Y-24603D02*
X56023Y-24620D01*
X56023Y-24620D02*
X56100Y-24654D01*
X56100Y-24654D02*
X56167Y-24703D01*
X56167Y-24703D02*
X56223Y-24765D01*
X56223Y-24765D02*
X56265Y-24838D01*
X56265Y-24838D02*
X56291Y-24917D01*
X56291Y-24917D02*
X56300Y-25000D01*
X55600Y-23300D02*
X55600Y-24100D01*
X55600Y-24100D02*
X54800Y-24100D01*
X54800Y-24100D02*
X54800Y-23300D01*
X54800Y-23300D02*
X55600Y-23300D01*
X54600Y-23700D02*
X54591Y-23783D01*
X54591Y-23783D02*
X54565Y-23862D01*
X54565Y-23862D02*
X54523Y-23935D01*
X54523Y-23935D02*
X54467Y-23997D01*
X54467Y-23997D02*
X54400Y-24046D01*
X54400Y-24046D02*
X54323Y-24080D01*
X54323Y-24080D02*
X54241Y-24097D01*
X54241Y-24097D02*
X54159Y-24097D01*
X54159Y-24097D02*
X54077Y-24080D01*
X54077Y-24080D02*
X54000Y-24046D01*
X54000Y-24046D02*
X53933Y-23997D01*
X53933Y-23997D02*
X53877Y-23935D01*
X53877Y-23935D02*
X53835Y-23862D01*
X53835Y-23862D02*
X53809Y-23783D01*
X53809Y-23783D02*
X53800Y-23700D01*
X53800Y-23700D02*
X53809Y-23617D01*
X53809Y-23617D02*
X53835Y-23538D01*
X53835Y-23538D02*
X53877Y-23465D01*
X53877Y-23465D02*
X53933Y-23403D01*
X53933Y-23403D02*
X54000Y-23354D01*
X54000Y-23354D02*
X54077Y-23320D01*
X54077Y-23320D02*
X54159Y-23303D01*
X54159Y-23303D02*
X54241Y-23303D01*
X54241Y-23303D02*
X54323Y-23320D01*
X54323Y-23320D02*
X54400Y-23354D01*
X54400Y-23354D02*
X54467Y-23403D01*
X54467Y-23403D02*
X54523Y-23465D01*
X54523Y-23465D02*
X54565Y-23538D01*
X54565Y-23538D02*
X54591Y-23617D01*
X54591Y-23617D02*
X54600Y-23700D01*
X53600Y-23700D02*
X53591Y-23783D01*
X53591Y-23783D02*
X53565Y-23862D01*
X53565Y-23862D02*
X53523Y-23935D01*
X53523Y-23935D02*
X53467Y-23997D01*
X53467Y-23997D02*
X53400Y-24046D01*
X53400Y-24046D02*
X53323Y-24080D01*
X53323Y-24080D02*
X53241Y-24097D01*
X53241Y-24097D02*
X53159Y-24097D01*
X53159Y-24097D02*
X53077Y-24080D01*
X53077Y-24080D02*
X53000Y-24046D01*
X53000Y-24046D02*
X52933Y-23997D01*
X52933Y-23997D02*
X52877Y-23935D01*
X52877Y-23935D02*
X52835Y-23862D01*
X52835Y-23862D02*
X52809Y-23783D01*
X52809Y-23783D02*
X52800Y-23700D01*
X52800Y-23700D02*
X52809Y-23617D01*
X52809Y-23617D02*
X52835Y-23538D01*
X52835Y-23538D02*
X52877Y-23465D01*
X52877Y-23465D02*
X52933Y-23403D01*
X52933Y-23403D02*
X53000Y-23354D01*
X53000Y-23354D02*
X53077Y-23320D01*
X53077Y-23320D02*
X53159Y-23303D01*
X53159Y-23303D02*
X53241Y-23303D01*
X53241Y-23303D02*
X53323Y-23320D01*
X53323Y-23320D02*
X53400Y-23354D01*
X53400Y-23354D02*
X53467Y-23403D01*
X53467Y-23403D02*
X53523Y-23465D01*
X53523Y-23465D02*
X53565Y-23538D01*
X53565Y-23538D02*
X53591Y-23617D01*
X53591Y-23617D02*
X53600Y-23700D01*
X61200Y-29600D02*
X61191Y-29683D01*
X61191Y-29683D02*
X61165Y-29762D01*
X61165Y-29762D02*
X61123Y-29835D01*
X61123Y-29835D02*
X61067Y-29897D01*
X61067Y-29897D02*
X61000Y-29946D01*
X61000Y-29946D02*
X60923Y-29980D01*
X60923Y-29980D02*
X60841Y-29997D01*
X60841Y-29997D02*
X60759Y-29997D01*
X60759Y-29997D02*
X60677Y-29980D01*
X60677Y-29980D02*
X60600Y-29946D01*
X60600Y-29946D02*
X60533Y-29897D01*
X60533Y-29897D02*
X60477Y-29835D01*
X60477Y-29835D02*
X60435Y-29762D01*
X60435Y-29762D02*
X60409Y-29683D01*
X60409Y-29683D02*
X60400Y-29600D01*
X60400Y-29600D02*
X60409Y-29517D01*
X60409Y-29517D02*
X60435Y-29438D01*
X60435Y-29438D02*
X60477Y-29365D01*
X60477Y-29365D02*
X60533Y-29303D01*
X60533Y-29303D02*
X60600Y-29254D01*
X60600Y-29254D02*
X60677Y-29220D01*
X60677Y-29220D02*
X60759Y-29203D01*
X60759Y-29203D02*
X60841Y-29203D01*
X60841Y-29203D02*
X60923Y-29220D01*
X60923Y-29220D02*
X61000Y-29254D01*
X61000Y-29254D02*
X61067Y-29303D01*
X61067Y-29303D02*
X61123Y-29365D01*
X61123Y-29365D02*
X61165Y-29438D01*
X61165Y-29438D02*
X61191Y-29517D01*
X61191Y-29517D02*
X61200Y-29600D01*
X61200Y-26600D02*
X61191Y-26683D01*
X61191Y-26683D02*
X61165Y-26762D01*
X61165Y-26762D02*
X61123Y-26835D01*
X61123Y-26835D02*
X61067Y-26897D01*
X61067Y-26897D02*
X61000Y-26946D01*
X61000Y-26946D02*
X60923Y-26980D01*
X60923Y-26980D02*
X60841Y-26997D01*
X60841Y-26997D02*
X60759Y-26997D01*
X60759Y-26997D02*
X60677Y-26980D01*
X60677Y-26980D02*
X60600Y-26946D01*
X60600Y-26946D02*
X60533Y-26897D01*
X60533Y-26897D02*
X60477Y-26835D01*
X60477Y-26835D02*
X60435Y-26762D01*
X60435Y-26762D02*
X60409Y-26683D01*
X60409Y-26683D02*
X60400Y-26600D01*
X60400Y-26600D02*
X60409Y-26517D01*
X60409Y-26517D02*
X60435Y-26438D01*
X60435Y-26438D02*
X60477Y-26365D01*
X60477Y-26365D02*
X60533Y-26303D01*
X60533Y-26303D02*
X60600Y-26254D01*
X60600Y-26254D02*
X60677Y-26220D01*
X60677Y-26220D02*
X60759Y-26203D01*
X60759Y-26203D02*
X60841Y-26203D01*
X60841Y-26203D02*
X60923Y-26220D01*
X60923Y-26220D02*
X61000Y-26254D01*
X61000Y-26254D02*
X61067Y-26303D01*
X61067Y-26303D02*
X61123Y-26365D01*
X61123Y-26365D02*
X61165Y-26438D01*
X61165Y-26438D02*
X61191Y-26517D01*
X61191Y-26517D02*
X61200Y-26600D01*
X63800Y-29300D02*
X63791Y-29383D01*
X63791Y-29383D02*
X63765Y-29462D01*
X63765Y-29462D02*
X63723Y-29535D01*
X63723Y-29535D02*
X63667Y-29597D01*
X63667Y-29597D02*
X63600Y-29646D01*
X63600Y-29646D02*
X63523Y-29680D01*
X63523Y-29680D02*
X63441Y-29697D01*
X63441Y-29697D02*
X63359Y-29697D01*
X63359Y-29697D02*
X63277Y-29680D01*
X63277Y-29680D02*
X63200Y-29646D01*
X63200Y-29646D02*
X63133Y-29597D01*
X63133Y-29597D02*
X63077Y-29535D01*
X63077Y-29535D02*
X63035Y-29462D01*
X63035Y-29462D02*
X63009Y-29383D01*
X63009Y-29383D02*
X63000Y-29300D01*
X63000Y-29300D02*
X63009Y-29217D01*
X63009Y-29217D02*
X63035Y-29138D01*
X63035Y-29138D02*
X63077Y-29065D01*
X63077Y-29065D02*
X63133Y-29003D01*
X63133Y-29003D02*
X63200Y-28954D01*
X63200Y-28954D02*
X63277Y-28920D01*
X63277Y-28920D02*
X63359Y-28903D01*
X63359Y-28903D02*
X63441Y-28903D01*
X63441Y-28903D02*
X63523Y-28920D01*
X63523Y-28920D02*
X63600Y-28954D01*
X63600Y-28954D02*
X63667Y-29003D01*
X63667Y-29003D02*
X63723Y-29065D01*
X63723Y-29065D02*
X63765Y-29138D01*
X63765Y-29138D02*
X63791Y-29217D01*
X63791Y-29217D02*
X63800Y-29300D01*
X63800Y-26300D02*
X63791Y-26383D01*
X63791Y-26383D02*
X63765Y-26462D01*
X63765Y-26462D02*
X63723Y-26535D01*
X63723Y-26535D02*
X63667Y-26597D01*
X63667Y-26597D02*
X63600Y-26646D01*
X63600Y-26646D02*
X63523Y-26680D01*
X63523Y-26680D02*
X63441Y-26697D01*
X63441Y-26697D02*
X63359Y-26697D01*
X63359Y-26697D02*
X63277Y-26680D01*
X63277Y-26680D02*
X63200Y-26646D01*
X63200Y-26646D02*
X63133Y-26597D01*
X63133Y-26597D02*
X63077Y-26535D01*
X63077Y-26535D02*
X63035Y-26462D01*
X63035Y-26462D02*
X63009Y-26383D01*
X63009Y-26383D02*
X63000Y-26300D01*
X63000Y-26300D02*
X63009Y-26217D01*
X63009Y-26217D02*
X63035Y-26138D01*
X63035Y-26138D02*
X63077Y-26065D01*
X63077Y-26065D02*
X63133Y-26003D01*
X63133Y-26003D02*
X63200Y-25954D01*
X63200Y-25954D02*
X63277Y-25920D01*
X63277Y-25920D02*
X63359Y-25903D01*
X63359Y-25903D02*
X63441Y-25903D01*
X63441Y-25903D02*
X63523Y-25920D01*
X63523Y-25920D02*
X63600Y-25954D01*
X63600Y-25954D02*
X63667Y-26003D01*
X63667Y-26003D02*
X63723Y-26065D01*
X63723Y-26065D02*
X63765Y-26138D01*
X63765Y-26138D02*
X63791Y-26217D01*
X63791Y-26217D02*
X63800Y-26300D01*
X65100Y-24100D02*
X65100Y-23300D01*
X65100Y-23300D02*
X65900Y-23300D01*
X65900Y-23300D02*
X65900Y-24100D01*
X65900Y-24100D02*
X65100Y-24100D01*
X66900Y-23700D02*
X66891Y-23783D01*
X66891Y-23783D02*
X66865Y-23862D01*
X66865Y-23862D02*
X66823Y-23935D01*
X66823Y-23935D02*
X66767Y-23997D01*
X66767Y-23997D02*
X66700Y-24046D01*
X66700Y-24046D02*
X66623Y-24080D01*
X66623Y-24080D02*
X66541Y-24097D01*
X66541Y-24097D02*
X66459Y-24097D01*
X66459Y-24097D02*
X66377Y-24080D01*
X66377Y-24080D02*
X66300Y-24046D01*
X66300Y-24046D02*
X66233Y-23997D01*
X66233Y-23997D02*
X66177Y-23935D01*
X66177Y-23935D02*
X66135Y-23862D01*
X66135Y-23862D02*
X66109Y-23783D01*
X66109Y-23783D02*
X66100Y-23700D01*
X66100Y-23700D02*
X66109Y-23617D01*
X66109Y-23617D02*
X66135Y-23538D01*
X66135Y-23538D02*
X66177Y-23465D01*
X66177Y-23465D02*
X66233Y-23403D01*
X66233Y-23403D02*
X66300Y-23354D01*
X66300Y-23354D02*
X66377Y-23320D01*
X66377Y-23320D02*
X66459Y-23303D01*
X66459Y-23303D02*
X66541Y-23303D01*
X66541Y-23303D02*
X66623Y-23320D01*
X66623Y-23320D02*
X66700Y-23354D01*
X66700Y-23354D02*
X66767Y-23403D01*
X66767Y-23403D02*
X66823Y-23465D01*
X66823Y-23465D02*
X66865Y-23538D01*
X66865Y-23538D02*
X66891Y-23617D01*
X66891Y-23617D02*
X66900Y-23700D01*
X46900Y-30100D02*
X46100Y-30100D01*
X46100Y-30100D02*
X46100Y-29300D01*
X46100Y-29300D02*
X46900Y-29300D01*
X46900Y-29300D02*
X46900Y-30100D01*
X46900Y-28700D02*
X46891Y-28783D01*
X46891Y-28783D02*
X46865Y-28862D01*
X46865Y-28862D02*
X46823Y-28935D01*
X46823Y-28935D02*
X46767Y-28997D01*
X46767Y-28997D02*
X46700Y-29046D01*
X46700Y-29046D02*
X46623Y-29080D01*
X46623Y-29080D02*
X46541Y-29097D01*
X46541Y-29097D02*
X46459Y-29097D01*
X46459Y-29097D02*
X46377Y-29080D01*
X46377Y-29080D02*
X46300Y-29046D01*
X46300Y-29046D02*
X46233Y-28997D01*
X46233Y-28997D02*
X46177Y-28935D01*
X46177Y-28935D02*
X46135Y-28862D01*
X46135Y-28862D02*
X46109Y-28783D01*
X46109Y-28783D02*
X46100Y-28700D01*
X46100Y-28700D02*
X46109Y-28617D01*
X46109Y-28617D02*
X46135Y-28538D01*
X46135Y-28538D02*
X46177Y-28465D01*
X46177Y-28465D02*
X46233Y-28403D01*
X46233Y-28403D02*
X46300Y-28354D01*
X46300Y-28354D02*
X46377Y-28320D01*
X46377Y-28320D02*
X46459Y-28303D01*
X46459Y-28303D02*
X46541Y-28303D01*
X46541Y-28303D02*
X46623Y-28320D01*
X46623Y-28320D02*
X46700Y-28354D01*
X46700Y-28354D02*
X46767Y-28403D01*
X46767Y-28403D02*
X46823Y-28465D01*
X46823Y-28465D02*
X46865Y-28538D01*
X46865Y-28538D02*
X46891Y-28617D01*
X46891Y-28617D02*
X46900Y-28700D01*
X46900Y-27700D02*
X46891Y-27783D01*
X46891Y-27783D02*
X46865Y-27862D01*
X46865Y-27862D02*
X46823Y-27935D01*
X46823Y-27935D02*
X46767Y-27997D01*
X46767Y-27997D02*
X46700Y-28046D01*
X46700Y-28046D02*
X46623Y-28080D01*
X46623Y-28080D02*
X46541Y-28097D01*
X46541Y-28097D02*
X46459Y-28097D01*
X46459Y-28097D02*
X46377Y-28080D01*
X46377Y-28080D02*
X46300Y-28046D01*
X46300Y-28046D02*
X46233Y-27997D01*
X46233Y-27997D02*
X46177Y-27935D01*
X46177Y-27935D02*
X46135Y-27862D01*
X46135Y-27862D02*
X46109Y-27783D01*
X46109Y-27783D02*
X46100Y-27700D01*
X46100Y-27700D02*
X46109Y-27617D01*
X46109Y-27617D02*
X46135Y-27538D01*
X46135Y-27538D02*
X46177Y-27465D01*
X46177Y-27465D02*
X46233Y-27403D01*
X46233Y-27403D02*
X46300Y-27354D01*
X46300Y-27354D02*
X46377Y-27320D01*
X46377Y-27320D02*
X46459Y-27303D01*
X46459Y-27303D02*
X46541Y-27303D01*
X46541Y-27303D02*
X46623Y-27320D01*
X46623Y-27320D02*
X46700Y-27354D01*
X46700Y-27354D02*
X46767Y-27403D01*
X46767Y-27403D02*
X46823Y-27465D01*
X46823Y-27465D02*
X46865Y-27538D01*
X46865Y-27538D02*
X46891Y-27617D01*
X46891Y-27617D02*
X46900Y-27700D01*
X46900Y-26700D02*
X46891Y-26783D01*
X46891Y-26783D02*
X46865Y-26862D01*
X46865Y-26862D02*
X46823Y-26935D01*
X46823Y-26935D02*
X46767Y-26997D01*
X46767Y-26997D02*
X46700Y-27046D01*
X46700Y-27046D02*
X46623Y-27080D01*
X46623Y-27080D02*
X46541Y-27097D01*
X46541Y-27097D02*
X46459Y-27097D01*
X46459Y-27097D02*
X46377Y-27080D01*
X46377Y-27080D02*
X46300Y-27046D01*
X46300Y-27046D02*
X46233Y-26997D01*
X46233Y-26997D02*
X46177Y-26935D01*
X46177Y-26935D02*
X46135Y-26862D01*
X46135Y-26862D02*
X46109Y-26783D01*
X46109Y-26783D02*
X46100Y-26700D01*
X46100Y-26700D02*
X46109Y-26617D01*
X46109Y-26617D02*
X46135Y-26538D01*
X46135Y-26538D02*
X46177Y-26465D01*
X46177Y-26465D02*
X46233Y-26403D01*
X46233Y-26403D02*
X46300Y-26354D01*
X46300Y-26354D02*
X46377Y-26320D01*
X46377Y-26320D02*
X46459Y-26303D01*
X46459Y-26303D02*
X46541Y-26303D01*
X46541Y-26303D02*
X46623Y-26320D01*
X46623Y-26320D02*
X46700Y-26354D01*
X46700Y-26354D02*
X46767Y-26403D01*
X46767Y-26403D02*
X46823Y-26465D01*
X46823Y-26465D02*
X46865Y-26538D01*
X46865Y-26538D02*
X46891Y-26617D01*
X46891Y-26617D02*
X46900Y-26700D01*
X46900Y-25700D02*
X46891Y-25783D01*
X46891Y-25783D02*
X46865Y-25862D01*
X46865Y-25862D02*
X46823Y-25935D01*
X46823Y-25935D02*
X46767Y-25997D01*
X46767Y-25997D02*
X46700Y-26046D01*
X46700Y-26046D02*
X46623Y-26080D01*
X46623Y-26080D02*
X46541Y-26097D01*
X46541Y-26097D02*
X46459Y-26097D01*
X46459Y-26097D02*
X46377Y-26080D01*
X46377Y-26080D02*
X46300Y-26046D01*
X46300Y-26046D02*
X46233Y-25997D01*
X46233Y-25997D02*
X46177Y-25935D01*
X46177Y-25935D02*
X46135Y-25862D01*
X46135Y-25862D02*
X46109Y-25783D01*
X46109Y-25783D02*
X46100Y-25700D01*
X46100Y-25700D02*
X46109Y-25617D01*
X46109Y-25617D02*
X46135Y-25538D01*
X46135Y-25538D02*
X46177Y-25465D01*
X46177Y-25465D02*
X46233Y-25403D01*
X46233Y-25403D02*
X46300Y-25354D01*
X46300Y-25354D02*
X46377Y-25320D01*
X46377Y-25320D02*
X46459Y-25303D01*
X46459Y-25303D02*
X46541Y-25303D01*
X46541Y-25303D02*
X46623Y-25320D01*
X46623Y-25320D02*
X46700Y-25354D01*
X46700Y-25354D02*
X46767Y-25403D01*
X46767Y-25403D02*
X46823Y-25465D01*
X46823Y-25465D02*
X46865Y-25538D01*
X46865Y-25538D02*
X46891Y-25617D01*
X46891Y-25617D02*
X46900Y-25700D01*
X46900Y-24700D02*
X46891Y-24783D01*
X46891Y-24783D02*
X46865Y-24862D01*
X46865Y-24862D02*
X46823Y-24935D01*
X46823Y-24935D02*
X46767Y-24997D01*
X46767Y-24997D02*
X46700Y-25046D01*
X46700Y-25046D02*
X46623Y-25080D01*
X46623Y-25080D02*
X46541Y-25097D01*
X46541Y-25097D02*
X46459Y-25097D01*
X46459Y-25097D02*
X46377Y-25080D01*
X46377Y-25080D02*
X46300Y-25046D01*
X46300Y-25046D02*
X46233Y-24997D01*
X46233Y-24997D02*
X46177Y-24935D01*
X46177Y-24935D02*
X46135Y-24862D01*
X46135Y-24862D02*
X46109Y-24783D01*
X46109Y-24783D02*
X46100Y-24700D01*
X46100Y-24700D02*
X46109Y-24617D01*
X46109Y-24617D02*
X46135Y-24538D01*
X46135Y-24538D02*
X46177Y-24465D01*
X46177Y-24465D02*
X46233Y-24403D01*
X46233Y-24403D02*
X46300Y-24354D01*
X46300Y-24354D02*
X46377Y-24320D01*
X46377Y-24320D02*
X46459Y-24303D01*
X46459Y-24303D02*
X46541Y-24303D01*
X46541Y-24303D02*
X46623Y-24320D01*
X46623Y-24320D02*
X46700Y-24354D01*
X46700Y-24354D02*
X46767Y-24403D01*
X46767Y-24403D02*
X46823Y-24465D01*
X46823Y-24465D02*
X46865Y-24538D01*
X46865Y-24538D02*
X46891Y-24617D01*
X46891Y-24617D02*
X46900Y-24700D01*
X46900Y-23700D02*
X46891Y-23783D01*
X46891Y-23783D02*
X46865Y-23862D01*
X46865Y-23862D02*
X46823Y-23935D01*
X46823Y-23935D02*
X46767Y-23997D01*
X46767Y-23997D02*
X46700Y-24046D01*
X46700Y-24046D02*
X46623Y-24080D01*
X46623Y-24080D02*
X46541Y-24097D01*
X46541Y-24097D02*
X46459Y-24097D01*
X46459Y-24097D02*
X46377Y-24080D01*
X46377Y-24080D02*
X46300Y-24046D01*
X46300Y-24046D02*
X46233Y-23997D01*
X46233Y-23997D02*
X46177Y-23935D01*
X46177Y-23935D02*
X46135Y-23862D01*
X46135Y-23862D02*
X46109Y-23783D01*
X46109Y-23783D02*
X46100Y-23700D01*
X46100Y-23700D02*
X46109Y-23617D01*
X46109Y-23617D02*
X46135Y-23538D01*
X46135Y-23538D02*
X46177Y-23465D01*
X46177Y-23465D02*
X46233Y-23403D01*
X46233Y-23403D02*
X46300Y-23354D01*
X46300Y-23354D02*
X46377Y-23320D01*
X46377Y-23320D02*
X46459Y-23303D01*
X46459Y-23303D02*
X46541Y-23303D01*
X46541Y-23303D02*
X46623Y-23320D01*
X46623Y-23320D02*
X46700Y-23354D01*
X46700Y-23354D02*
X46767Y-23403D01*
X46767Y-23403D02*
X46823Y-23465D01*
X46823Y-23465D02*
X46865Y-23538D01*
X46865Y-23538D02*
X46891Y-23617D01*
X46891Y-23617D02*
X46900Y-23700D01*
X59400Y-45500D02*
X59391Y-45583D01*
X59391Y-45583D02*
X59365Y-45662D01*
X59365Y-45662D02*
X59323Y-45735D01*
X59323Y-45735D02*
X59267Y-45797D01*
X59267Y-45797D02*
X59200Y-45846D01*
X59200Y-45846D02*
X59123Y-45880D01*
X59123Y-45880D02*
X59041Y-45897D01*
X59041Y-45897D02*
X58959Y-45897D01*
X58959Y-45897D02*
X58877Y-45880D01*
X58877Y-45880D02*
X58800Y-45846D01*
X58800Y-45846D02*
X58733Y-45797D01*
X58733Y-45797D02*
X58677Y-45735D01*
X58677Y-45735D02*
X58635Y-45662D01*
X58635Y-45662D02*
X58609Y-45583D01*
X58609Y-45583D02*
X58600Y-45500D01*
X58600Y-45500D02*
X58609Y-45417D01*
X58609Y-45417D02*
X58635Y-45338D01*
X58635Y-45338D02*
X58677Y-45265D01*
X58677Y-45265D02*
X58733Y-45203D01*
X58733Y-45203D02*
X58800Y-45154D01*
X58800Y-45154D02*
X58877Y-45120D01*
X58877Y-45120D02*
X58959Y-45103D01*
X58959Y-45103D02*
X59041Y-45103D01*
X59041Y-45103D02*
X59123Y-45120D01*
X59123Y-45120D02*
X59200Y-45154D01*
X59200Y-45154D02*
X59267Y-45203D01*
X59267Y-45203D02*
X59323Y-45265D01*
X59323Y-45265D02*
X59365Y-45338D01*
X59365Y-45338D02*
X59391Y-45417D01*
X59391Y-45417D02*
X59400Y-45500D01*
X59400Y-43500D02*
X59391Y-43583D01*
X59391Y-43583D02*
X59365Y-43662D01*
X59365Y-43662D02*
X59323Y-43735D01*
X59323Y-43735D02*
X59267Y-43797D01*
X59267Y-43797D02*
X59200Y-43846D01*
X59200Y-43846D02*
X59123Y-43880D01*
X59123Y-43880D02*
X59041Y-43897D01*
X59041Y-43897D02*
X58959Y-43897D01*
X58959Y-43897D02*
X58877Y-43880D01*
X58877Y-43880D02*
X58800Y-43846D01*
X58800Y-43846D02*
X58733Y-43797D01*
X58733Y-43797D02*
X58677Y-43735D01*
X58677Y-43735D02*
X58635Y-43662D01*
X58635Y-43662D02*
X58609Y-43583D01*
X58609Y-43583D02*
X58600Y-43500D01*
X58600Y-43500D02*
X58609Y-43417D01*
X58609Y-43417D02*
X58635Y-43338D01*
X58635Y-43338D02*
X58677Y-43265D01*
X58677Y-43265D02*
X58733Y-43203D01*
X58733Y-43203D02*
X58800Y-43154D01*
X58800Y-43154D02*
X58877Y-43120D01*
X58877Y-43120D02*
X58959Y-43103D01*
X58959Y-43103D02*
X59041Y-43103D01*
X59041Y-43103D02*
X59123Y-43120D01*
X59123Y-43120D02*
X59200Y-43154D01*
X59200Y-43154D02*
X59267Y-43203D01*
X59267Y-43203D02*
X59323Y-43265D01*
X59323Y-43265D02*
X59365Y-43338D01*
X59365Y-43338D02*
X59391Y-43417D01*
X59391Y-43417D02*
X59400Y-43500D01*
X62200Y-23700D02*
X62200Y-24500D01*
X62200Y-24500D02*
X61400Y-24500D01*
X61400Y-24500D02*
X61400Y-23700D01*
X61400Y-23700D02*
X62200Y-23700D01*
X61200Y-24100D02*
X61191Y-24183D01*
X61191Y-24183D02*
X61165Y-24262D01*
X61165Y-24262D02*
X61123Y-24335D01*
X61123Y-24335D02*
X61067Y-24397D01*
X61067Y-24397D02*
X61000Y-24446D01*
X61000Y-24446D02*
X60923Y-24480D01*
X60923Y-24480D02*
X60841Y-24497D01*
X60841Y-24497D02*
X60759Y-24497D01*
X60759Y-24497D02*
X60677Y-24480D01*
X60677Y-24480D02*
X60600Y-24446D01*
X60600Y-24446D02*
X60533Y-24397D01*
X60533Y-24397D02*
X60477Y-24335D01*
X60477Y-24335D02*
X60435Y-24262D01*
X60435Y-24262D02*
X60409Y-24183D01*
X60409Y-24183D02*
X60400Y-24100D01*
X60400Y-24100D02*
X60409Y-24017D01*
X60409Y-24017D02*
X60435Y-23938D01*
X60435Y-23938D02*
X60477Y-23865D01*
X60477Y-23865D02*
X60533Y-23803D01*
X60533Y-23803D02*
X60600Y-23754D01*
X60600Y-23754D02*
X60677Y-23720D01*
X60677Y-23720D02*
X60759Y-23703D01*
X60759Y-23703D02*
X60841Y-23703D01*
X60841Y-23703D02*
X60923Y-23720D01*
X60923Y-23720D02*
X61000Y-23754D01*
X61000Y-23754D02*
X61067Y-23803D01*
X61067Y-23803D02*
X61123Y-23865D01*
X61123Y-23865D02*
X61165Y-23938D01*
X61165Y-23938D02*
X61191Y-24017D01*
X61191Y-24017D02*
X61200Y-24100D01*
X67800Y-24100D02*
X67800Y-23300D01*
X67800Y-23300D02*
X68600Y-23300D01*
X68600Y-23300D02*
X68600Y-24100D01*
X68600Y-24100D02*
X67800Y-24100D01*
X69600Y-23700D02*
X69591Y-23783D01*
X69591Y-23783D02*
X69565Y-23862D01*
X69565Y-23862D02*
X69523Y-23935D01*
X69523Y-23935D02*
X69467Y-23997D01*
X69467Y-23997D02*
X69400Y-24046D01*
X69400Y-24046D02*
X69323Y-24080D01*
X69323Y-24080D02*
X69241Y-24097D01*
X69241Y-24097D02*
X69159Y-24097D01*
X69159Y-24097D02*
X69077Y-24080D01*
X69077Y-24080D02*
X69000Y-24046D01*
X69000Y-24046D02*
X68933Y-23997D01*
X68933Y-23997D02*
X68877Y-23935D01*
X68877Y-23935D02*
X68835Y-23862D01*
X68835Y-23862D02*
X68809Y-23783D01*
X68809Y-23783D02*
X68800Y-23700D01*
X68800Y-23700D02*
X68809Y-23617D01*
X68809Y-23617D02*
X68835Y-23538D01*
X68835Y-23538D02*
X68877Y-23465D01*
X68877Y-23465D02*
X68933Y-23403D01*
X68933Y-23403D02*
X69000Y-23354D01*
X69000Y-23354D02*
X69077Y-23320D01*
X69077Y-23320D02*
X69159Y-23303D01*
X69159Y-23303D02*
X69241Y-23303D01*
X69241Y-23303D02*
X69323Y-23320D01*
X69323Y-23320D02*
X69400Y-23354D01*
X69400Y-23354D02*
X69467Y-23403D01*
X69467Y-23403D02*
X69523Y-23465D01*
X69523Y-23465D02*
X69565Y-23538D01*
X69565Y-23538D02*
X69591Y-23617D01*
X69591Y-23617D02*
X69600Y-23700D01*
X66600Y-26600D02*
X66591Y-26683D01*
X66591Y-26683D02*
X66565Y-26762D01*
X66565Y-26762D02*
X66523Y-26835D01*
X66523Y-26835D02*
X66467Y-26897D01*
X66467Y-26897D02*
X66400Y-26946D01*
X66400Y-26946D02*
X66323Y-26980D01*
X66323Y-26980D02*
X66241Y-26997D01*
X66241Y-26997D02*
X66159Y-26997D01*
X66159Y-26997D02*
X66077Y-26980D01*
X66077Y-26980D02*
X66000Y-26946D01*
X66000Y-26946D02*
X65933Y-26897D01*
X65933Y-26897D02*
X65877Y-26835D01*
X65877Y-26835D02*
X65835Y-26762D01*
X65835Y-26762D02*
X65809Y-26683D01*
X65809Y-26683D02*
X65800Y-26600D01*
X65800Y-26600D02*
X65809Y-26517D01*
X65809Y-26517D02*
X65835Y-26438D01*
X65835Y-26438D02*
X65877Y-26365D01*
X65877Y-26365D02*
X65933Y-26303D01*
X65933Y-26303D02*
X66000Y-26254D01*
X66000Y-26254D02*
X66077Y-26220D01*
X66077Y-26220D02*
X66159Y-26203D01*
X66159Y-26203D02*
X66241Y-26203D01*
X66241Y-26203D02*
X66323Y-26220D01*
X66323Y-26220D02*
X66400Y-26254D01*
X66400Y-26254D02*
X66467Y-26303D01*
X66467Y-26303D02*
X66523Y-26365D01*
X66523Y-26365D02*
X66565Y-26438D01*
X66565Y-26438D02*
X66591Y-26517D01*
X66591Y-26517D02*
X66600Y-26600D01*
X69600Y-26600D02*
X69591Y-26683D01*
X69591Y-26683D02*
X69565Y-26762D01*
X69565Y-26762D02*
X69523Y-26835D01*
X69523Y-26835D02*
X69467Y-26897D01*
X69467Y-26897D02*
X69400Y-26946D01*
X69400Y-26946D02*
X69323Y-26980D01*
X69323Y-26980D02*
X69241Y-26997D01*
X69241Y-26997D02*
X69159Y-26997D01*
X69159Y-26997D02*
X69077Y-26980D01*
X69077Y-26980D02*
X69000Y-26946D01*
X69000Y-26946D02*
X68933Y-26897D01*
X68933Y-26897D02*
X68877Y-26835D01*
X68877Y-26835D02*
X68835Y-26762D01*
X68835Y-26762D02*
X68809Y-26683D01*
X68809Y-26683D02*
X68800Y-26600D01*
X68800Y-26600D02*
X68809Y-26517D01*
X68809Y-26517D02*
X68835Y-26438D01*
X68835Y-26438D02*
X68877Y-26365D01*
X68877Y-26365D02*
X68933Y-26303D01*
X68933Y-26303D02*
X69000Y-26254D01*
X69000Y-26254D02*
X69077Y-26220D01*
X69077Y-26220D02*
X69159Y-26203D01*
X69159Y-26203D02*
X69241Y-26203D01*
X69241Y-26203D02*
X69323Y-26220D01*
X69323Y-26220D02*
X69400Y-26254D01*
X69400Y-26254D02*
X69467Y-26303D01*
X69467Y-26303D02*
X69523Y-26365D01*
X69523Y-26365D02*
X69565Y-26438D01*
X69565Y-26438D02*
X69591Y-26517D01*
X69591Y-26517D02*
X69600Y-26600D01*
X66600Y-25100D02*
X66591Y-25183D01*
X66591Y-25183D02*
X66565Y-25262D01*
X66565Y-25262D02*
X66523Y-25335D01*
X66523Y-25335D02*
X66467Y-25397D01*
X66467Y-25397D02*
X66400Y-25446D01*
X66400Y-25446D02*
X66323Y-25480D01*
X66323Y-25480D02*
X66241Y-25497D01*
X66241Y-25497D02*
X66159Y-25497D01*
X66159Y-25497D02*
X66077Y-25480D01*
X66077Y-25480D02*
X66000Y-25446D01*
X66000Y-25446D02*
X65933Y-25397D01*
X65933Y-25397D02*
X65877Y-25335D01*
X65877Y-25335D02*
X65835Y-25262D01*
X65835Y-25262D02*
X65809Y-25183D01*
X65809Y-25183D02*
X65800Y-25100D01*
X65800Y-25100D02*
X65809Y-25017D01*
X65809Y-25017D02*
X65835Y-24938D01*
X65835Y-24938D02*
X65877Y-24865D01*
X65877Y-24865D02*
X65933Y-24803D01*
X65933Y-24803D02*
X66000Y-24754D01*
X66000Y-24754D02*
X66077Y-24720D01*
X66077Y-24720D02*
X66159Y-24703D01*
X66159Y-24703D02*
X66241Y-24703D01*
X66241Y-24703D02*
X66323Y-24720D01*
X66323Y-24720D02*
X66400Y-24754D01*
X66400Y-24754D02*
X66467Y-24803D01*
X66467Y-24803D02*
X66523Y-24865D01*
X66523Y-24865D02*
X66565Y-24938D01*
X66565Y-24938D02*
X66591Y-25017D01*
X66591Y-25017D02*
X66600Y-25100D01*
X69600Y-25100D02*
X69591Y-25183D01*
X69591Y-25183D02*
X69565Y-25262D01*
X69565Y-25262D02*
X69523Y-25335D01*
X69523Y-25335D02*
X69467Y-25397D01*
X69467Y-25397D02*
X69400Y-25446D01*
X69400Y-25446D02*
X69323Y-25480D01*
X69323Y-25480D02*
X69241Y-25497D01*
X69241Y-25497D02*
X69159Y-25497D01*
X69159Y-25497D02*
X69077Y-25480D01*
X69077Y-25480D02*
X69000Y-25446D01*
X69000Y-25446D02*
X68933Y-25397D01*
X68933Y-25397D02*
X68877Y-25335D01*
X68877Y-25335D02*
X68835Y-25262D01*
X68835Y-25262D02*
X68809Y-25183D01*
X68809Y-25183D02*
X68800Y-25100D01*
X68800Y-25100D02*
X68809Y-25017D01*
X68809Y-25017D02*
X68835Y-24938D01*
X68835Y-24938D02*
X68877Y-24865D01*
X68877Y-24865D02*
X68933Y-24803D01*
X68933Y-24803D02*
X69000Y-24754D01*
X69000Y-24754D02*
X69077Y-24720D01*
X69077Y-24720D02*
X69159Y-24703D01*
X69159Y-24703D02*
X69241Y-24703D01*
X69241Y-24703D02*
X69323Y-24720D01*
X69323Y-24720D02*
X69400Y-24754D01*
X69400Y-24754D02*
X69467Y-24803D01*
X69467Y-24803D02*
X69523Y-24865D01*
X69523Y-24865D02*
X69565Y-24938D01*
X69565Y-24938D02*
X69591Y-25017D01*
X69591Y-25017D02*
X69600Y-25100D01*
X64800Y-24600D02*
X64791Y-24683D01*
X64791Y-24683D02*
X64765Y-24762D01*
X64765Y-24762D02*
X64723Y-24835D01*
X64723Y-24835D02*
X64667Y-24897D01*
X64667Y-24897D02*
X64600Y-24946D01*
X64600Y-24946D02*
X64523Y-24980D01*
X64523Y-24980D02*
X64441Y-24997D01*
X64441Y-24997D02*
X64359Y-24997D01*
X64359Y-24997D02*
X64277Y-24980D01*
X64277Y-24980D02*
X64200Y-24946D01*
X64200Y-24946D02*
X64133Y-24897D01*
X64133Y-24897D02*
X64077Y-24835D01*
X64077Y-24835D02*
X64035Y-24762D01*
X64035Y-24762D02*
X64009Y-24683D01*
X64009Y-24683D02*
X64000Y-24600D01*
X64000Y-24600D02*
X64009Y-24517D01*
X64009Y-24517D02*
X64035Y-24438D01*
X64035Y-24438D02*
X64077Y-24365D01*
X64077Y-24365D02*
X64133Y-24303D01*
X64133Y-24303D02*
X64200Y-24254D01*
X64200Y-24254D02*
X64277Y-24220D01*
X64277Y-24220D02*
X64359Y-24203D01*
X64359Y-24203D02*
X64441Y-24203D01*
X64441Y-24203D02*
X64523Y-24220D01*
X64523Y-24220D02*
X64600Y-24254D01*
X64600Y-24254D02*
X64667Y-24303D01*
X64667Y-24303D02*
X64723Y-24365D01*
X64723Y-24365D02*
X64765Y-24438D01*
X64765Y-24438D02*
X64791Y-24517D01*
X64791Y-24517D02*
X64800Y-24600D01*
X64800Y-27600D02*
X64791Y-27683D01*
X64791Y-27683D02*
X64765Y-27762D01*
X64765Y-27762D02*
X64723Y-27835D01*
X64723Y-27835D02*
X64667Y-27897D01*
X64667Y-27897D02*
X64600Y-27946D01*
X64600Y-27946D02*
X64523Y-27980D01*
X64523Y-27980D02*
X64441Y-27997D01*
X64441Y-27997D02*
X64359Y-27997D01*
X64359Y-27997D02*
X64277Y-27980D01*
X64277Y-27980D02*
X64200Y-27946D01*
X64200Y-27946D02*
X64133Y-27897D01*
X64133Y-27897D02*
X64077Y-27835D01*
X64077Y-27835D02*
X64035Y-27762D01*
X64035Y-27762D02*
X64009Y-27683D01*
X64009Y-27683D02*
X64000Y-27600D01*
X64000Y-27600D02*
X64009Y-27517D01*
X64009Y-27517D02*
X64035Y-27438D01*
X64035Y-27438D02*
X64077Y-27365D01*
X64077Y-27365D02*
X64133Y-27303D01*
X64133Y-27303D02*
X64200Y-27254D01*
X64200Y-27254D02*
X64277Y-27220D01*
X64277Y-27220D02*
X64359Y-27203D01*
X64359Y-27203D02*
X64441Y-27203D01*
X64441Y-27203D02*
X64523Y-27220D01*
X64523Y-27220D02*
X64600Y-27254D01*
X64600Y-27254D02*
X64667Y-27303D01*
X64667Y-27303D02*
X64723Y-27365D01*
X64723Y-27365D02*
X64765Y-27438D01*
X64765Y-27438D02*
X64791Y-27517D01*
X64791Y-27517D02*
X64800Y-27600D01*
X65800Y-29000D02*
X65800Y-28200D01*
X65800Y-28200D02*
X66600Y-28200D01*
X66600Y-28200D02*
X66600Y-29000D01*
X66600Y-29000D02*
X65800Y-29000D01*
X67600Y-28600D02*
X67591Y-28683D01*
X67591Y-28683D02*
X67565Y-28762D01*
X67565Y-28762D02*
X67523Y-28835D01*
X67523Y-28835D02*
X67467Y-28897D01*
X67467Y-28897D02*
X67400Y-28946D01*
X67400Y-28946D02*
X67323Y-28980D01*
X67323Y-28980D02*
X67241Y-28997D01*
X67241Y-28997D02*
X67159Y-28997D01*
X67159Y-28997D02*
X67077Y-28980D01*
X67077Y-28980D02*
X67000Y-28946D01*
X67000Y-28946D02*
X66933Y-28897D01*
X66933Y-28897D02*
X66877Y-28835D01*
X66877Y-28835D02*
X66835Y-28762D01*
X66835Y-28762D02*
X66809Y-28683D01*
X66809Y-28683D02*
X66800Y-28600D01*
X66800Y-28600D02*
X66809Y-28517D01*
X66809Y-28517D02*
X66835Y-28438D01*
X66835Y-28438D02*
X66877Y-28365D01*
X66877Y-28365D02*
X66933Y-28303D01*
X66933Y-28303D02*
X67000Y-28254D01*
X67000Y-28254D02*
X67077Y-28220D01*
X67077Y-28220D02*
X67159Y-28203D01*
X67159Y-28203D02*
X67241Y-28203D01*
X67241Y-28203D02*
X67323Y-28220D01*
X67323Y-28220D02*
X67400Y-28254D01*
X67400Y-28254D02*
X67467Y-28303D01*
X67467Y-28303D02*
X67523Y-28365D01*
X67523Y-28365D02*
X67565Y-28438D01*
X67565Y-28438D02*
X67591Y-28517D01*
X67591Y-28517D02*
X67600Y-28600D01*
X72100Y-23300D02*
X72100Y-24100D01*
X72100Y-24100D02*
X71300Y-24100D01*
X71300Y-24100D02*
X71300Y-23300D01*
X71300Y-23300D02*
X72100Y-23300D01*
X71100Y-23700D02*
X71091Y-23783D01*
X71091Y-23783D02*
X71065Y-23862D01*
X71065Y-23862D02*
X71023Y-23935D01*
X71023Y-23935D02*
X70967Y-23997D01*
X70967Y-23997D02*
X70900Y-24046D01*
X70900Y-24046D02*
X70823Y-24080D01*
X70823Y-24080D02*
X70741Y-24097D01*
X70741Y-24097D02*
X70659Y-24097D01*
X70659Y-24097D02*
X70577Y-24080D01*
X70577Y-24080D02*
X70500Y-24046D01*
X70500Y-24046D02*
X70433Y-23997D01*
X70433Y-23997D02*
X70377Y-23935D01*
X70377Y-23935D02*
X70335Y-23862D01*
X70335Y-23862D02*
X70309Y-23783D01*
X70309Y-23783D02*
X70300Y-23700D01*
X70300Y-23700D02*
X70309Y-23617D01*
X70309Y-23617D02*
X70335Y-23538D01*
X70335Y-23538D02*
X70377Y-23465D01*
X70377Y-23465D02*
X70433Y-23403D01*
X70433Y-23403D02*
X70500Y-23354D01*
X70500Y-23354D02*
X70577Y-23320D01*
X70577Y-23320D02*
X70659Y-23303D01*
X70659Y-23303D02*
X70741Y-23303D01*
X70741Y-23303D02*
X70823Y-23320D01*
X70823Y-23320D02*
X70900Y-23354D01*
X70900Y-23354D02*
X70967Y-23403D01*
X70967Y-23403D02*
X71023Y-23465D01*
X71023Y-23465D02*
X71065Y-23538D01*
X71065Y-23538D02*
X71091Y-23617D01*
X71091Y-23617D02*
X71100Y-23700D01*
X74600Y-23300D02*
X74600Y-24100D01*
X74600Y-24100D02*
X73800Y-24100D01*
X73800Y-24100D02*
X73800Y-23300D01*
X73800Y-23300D02*
X74600Y-23300D01*
X73600Y-23700D02*
X73591Y-23783D01*
X73591Y-23783D02*
X73565Y-23862D01*
X73565Y-23862D02*
X73523Y-23935D01*
X73523Y-23935D02*
X73467Y-23997D01*
X73467Y-23997D02*
X73400Y-24046D01*
X73400Y-24046D02*
X73323Y-24080D01*
X73323Y-24080D02*
X73241Y-24097D01*
X73241Y-24097D02*
X73159Y-24097D01*
X73159Y-24097D02*
X73077Y-24080D01*
X73077Y-24080D02*
X73000Y-24046D01*
X73000Y-24046D02*
X72933Y-23997D01*
X72933Y-23997D02*
X72877Y-23935D01*
X72877Y-23935D02*
X72835Y-23862D01*
X72835Y-23862D02*
X72809Y-23783D01*
X72809Y-23783D02*
X72800Y-23700D01*
X72800Y-23700D02*
X72809Y-23617D01*
X72809Y-23617D02*
X72835Y-23538D01*
X72835Y-23538D02*
X72877Y-23465D01*
X72877Y-23465D02*
X72933Y-23403D01*
X72933Y-23403D02*
X73000Y-23354D01*
X73000Y-23354D02*
X73077Y-23320D01*
X73077Y-23320D02*
X73159Y-23303D01*
X73159Y-23303D02*
X73241Y-23303D01*
X73241Y-23303D02*
X73323Y-23320D01*
X73323Y-23320D02*
X73400Y-23354D01*
X73400Y-23354D02*
X73467Y-23403D01*
X73467Y-23403D02*
X73523Y-23465D01*
X73523Y-23465D02*
X73565Y-23538D01*
X73565Y-23538D02*
X73591Y-23617D01*
X73591Y-23617D02*
X73600Y-23700D01*
X71000Y-40500D02*
X71000Y-39700D01*
X71000Y-39700D02*
X71800Y-39700D01*
X71800Y-39700D02*
X71800Y-40500D01*
X71800Y-40500D02*
X71000Y-40500D01*
X72300Y-38100D02*
X72291Y-38183D01*
X72291Y-38183D02*
X72265Y-38262D01*
X72265Y-38262D02*
X72223Y-38335D01*
X72223Y-38335D02*
X72167Y-38397D01*
X72167Y-38397D02*
X72100Y-38446D01*
X72100Y-38446D02*
X72023Y-38480D01*
X72023Y-38480D02*
X71941Y-38497D01*
X71941Y-38497D02*
X71859Y-38497D01*
X71859Y-38497D02*
X71777Y-38480D01*
X71777Y-38480D02*
X71700Y-38446D01*
X71700Y-38446D02*
X71633Y-38397D01*
X71633Y-38397D02*
X71577Y-38335D01*
X71577Y-38335D02*
X71535Y-38262D01*
X71535Y-38262D02*
X71509Y-38183D01*
X71509Y-38183D02*
X71500Y-38100D01*
X71500Y-38100D02*
X71509Y-38017D01*
X71509Y-38017D02*
X71535Y-37938D01*
X71535Y-37938D02*
X71577Y-37865D01*
X71577Y-37865D02*
X71633Y-37803D01*
X71633Y-37803D02*
X71700Y-37754D01*
X71700Y-37754D02*
X71777Y-37720D01*
X71777Y-37720D02*
X71859Y-37703D01*
X71859Y-37703D02*
X71941Y-37703D01*
X71941Y-37703D02*
X72023Y-37720D01*
X72023Y-37720D02*
X72100Y-37754D01*
X72100Y-37754D02*
X72167Y-37803D01*
X72167Y-37803D02*
X72223Y-37865D01*
X72223Y-37865D02*
X72265Y-37938D01*
X72265Y-37938D02*
X72291Y-38017D01*
X72291Y-38017D02*
X72300Y-38100D01*
X72800Y-40100D02*
X72791Y-40183D01*
X72791Y-40183D02*
X72765Y-40262D01*
X72765Y-40262D02*
X72723Y-40335D01*
X72723Y-40335D02*
X72667Y-40397D01*
X72667Y-40397D02*
X72600Y-40446D01*
X72600Y-40446D02*
X72523Y-40480D01*
X72523Y-40480D02*
X72441Y-40497D01*
X72441Y-40497D02*
X72359Y-40497D01*
X72359Y-40497D02*
X72277Y-40480D01*
X72277Y-40480D02*
X72200Y-40446D01*
X72200Y-40446D02*
X72133Y-40397D01*
X72133Y-40397D02*
X72077Y-40335D01*
X72077Y-40335D02*
X72035Y-40262D01*
X72035Y-40262D02*
X72009Y-40183D01*
X72009Y-40183D02*
X72000Y-40100D01*
X72000Y-40100D02*
X72009Y-40017D01*
X72009Y-40017D02*
X72035Y-39938D01*
X72035Y-39938D02*
X72077Y-39865D01*
X72077Y-39865D02*
X72133Y-39803D01*
X72133Y-39803D02*
X72200Y-39754D01*
X72200Y-39754D02*
X72277Y-39720D01*
X72277Y-39720D02*
X72359Y-39703D01*
X72359Y-39703D02*
X72441Y-39703D01*
X72441Y-39703D02*
X72523Y-39720D01*
X72523Y-39720D02*
X72600Y-39754D01*
X72600Y-39754D02*
X72667Y-39803D01*
X72667Y-39803D02*
X72723Y-39865D01*
X72723Y-39865D02*
X72765Y-39938D01*
X72765Y-39938D02*
X72791Y-40017D01*
X72791Y-40017D02*
X72800Y-40100D01*
X73300Y-38100D02*
X73291Y-38183D01*
X73291Y-38183D02*
X73265Y-38262D01*
X73265Y-38262D02*
X73223Y-38335D01*
X73223Y-38335D02*
X73167Y-38397D01*
X73167Y-38397D02*
X73100Y-38446D01*
X73100Y-38446D02*
X73023Y-38480D01*
X73023Y-38480D02*
X72941Y-38497D01*
X72941Y-38497D02*
X72859Y-38497D01*
X72859Y-38497D02*
X72777Y-38480D01*
X72777Y-38480D02*
X72700Y-38446D01*
X72700Y-38446D02*
X72633Y-38397D01*
X72633Y-38397D02*
X72577Y-38335D01*
X72577Y-38335D02*
X72535Y-38262D01*
X72535Y-38262D02*
X72509Y-38183D01*
X72509Y-38183D02*
X72500Y-38100D01*
X72500Y-38100D02*
X72509Y-38017D01*
X72509Y-38017D02*
X72535Y-37938D01*
X72535Y-37938D02*
X72577Y-37865D01*
X72577Y-37865D02*
X72633Y-37803D01*
X72633Y-37803D02*
X72700Y-37754D01*
X72700Y-37754D02*
X72777Y-37720D01*
X72777Y-37720D02*
X72859Y-37703D01*
X72859Y-37703D02*
X72941Y-37703D01*
X72941Y-37703D02*
X73023Y-37720D01*
X73023Y-37720D02*
X73100Y-37754D01*
X73100Y-37754D02*
X73167Y-37803D01*
X73167Y-37803D02*
X73223Y-37865D01*
X73223Y-37865D02*
X73265Y-37938D01*
X73265Y-37938D02*
X73291Y-38017D01*
X73291Y-38017D02*
X73300Y-38100D01*
X73800Y-40100D02*
X73791Y-40183D01*
X73791Y-40183D02*
X73765Y-40262D01*
X73765Y-40262D02*
X73723Y-40335D01*
X73723Y-40335D02*
X73667Y-40397D01*
X73667Y-40397D02*
X73600Y-40446D01*
X73600Y-40446D02*
X73523Y-40480D01*
X73523Y-40480D02*
X73441Y-40497D01*
X73441Y-40497D02*
X73359Y-40497D01*
X73359Y-40497D02*
X73277Y-40480D01*
X73277Y-40480D02*
X73200Y-40446D01*
X73200Y-40446D02*
X73133Y-40397D01*
X73133Y-40397D02*
X73077Y-40335D01*
X73077Y-40335D02*
X73035Y-40262D01*
X73035Y-40262D02*
X73009Y-40183D01*
X73009Y-40183D02*
X73000Y-40100D01*
X73000Y-40100D02*
X73009Y-40017D01*
X73009Y-40017D02*
X73035Y-39938D01*
X73035Y-39938D02*
X73077Y-39865D01*
X73077Y-39865D02*
X73133Y-39803D01*
X73133Y-39803D02*
X73200Y-39754D01*
X73200Y-39754D02*
X73277Y-39720D01*
X73277Y-39720D02*
X73359Y-39703D01*
X73359Y-39703D02*
X73441Y-39703D01*
X73441Y-39703D02*
X73523Y-39720D01*
X73523Y-39720D02*
X73600Y-39754D01*
X73600Y-39754D02*
X73667Y-39803D01*
X73667Y-39803D02*
X73723Y-39865D01*
X73723Y-39865D02*
X73765Y-39938D01*
X73765Y-39938D02*
X73791Y-40017D01*
X73791Y-40017D02*
X73800Y-40100D01*
X74300Y-38100D02*
X74291Y-38183D01*
X74291Y-38183D02*
X74265Y-38262D01*
X74265Y-38262D02*
X74223Y-38335D01*
X74223Y-38335D02*
X74167Y-38397D01*
X74167Y-38397D02*
X74100Y-38446D01*
X74100Y-38446D02*
X74023Y-38480D01*
X74023Y-38480D02*
X73941Y-38497D01*
X73941Y-38497D02*
X73859Y-38497D01*
X73859Y-38497D02*
X73777Y-38480D01*
X73777Y-38480D02*
X73700Y-38446D01*
X73700Y-38446D02*
X73633Y-38397D01*
X73633Y-38397D02*
X73577Y-38335D01*
X73577Y-38335D02*
X73535Y-38262D01*
X73535Y-38262D02*
X73509Y-38183D01*
X73509Y-38183D02*
X73500Y-38100D01*
X73500Y-38100D02*
X73509Y-38017D01*
X73509Y-38017D02*
X73535Y-37938D01*
X73535Y-37938D02*
X73577Y-37865D01*
X73577Y-37865D02*
X73633Y-37803D01*
X73633Y-37803D02*
X73700Y-37754D01*
X73700Y-37754D02*
X73777Y-37720D01*
X73777Y-37720D02*
X73859Y-37703D01*
X73859Y-37703D02*
X73941Y-37703D01*
X73941Y-37703D02*
X74023Y-37720D01*
X74023Y-37720D02*
X74100Y-37754D01*
X74100Y-37754D02*
X74167Y-37803D01*
X74167Y-37803D02*
X74223Y-37865D01*
X74223Y-37865D02*
X74265Y-37938D01*
X74265Y-37938D02*
X74291Y-38017D01*
X74291Y-38017D02*
X74300Y-38100D01*
X74800Y-40100D02*
X74791Y-40183D01*
X74791Y-40183D02*
X74765Y-40262D01*
X74765Y-40262D02*
X74723Y-40335D01*
X74723Y-40335D02*
X74667Y-40397D01*
X74667Y-40397D02*
X74600Y-40446D01*
X74600Y-40446D02*
X74523Y-40480D01*
X74523Y-40480D02*
X74441Y-40497D01*
X74441Y-40497D02*
X74359Y-40497D01*
X74359Y-40497D02*
X74277Y-40480D01*
X74277Y-40480D02*
X74200Y-40446D01*
X74200Y-40446D02*
X74133Y-40397D01*
X74133Y-40397D02*
X74077Y-40335D01*
X74077Y-40335D02*
X74035Y-40262D01*
X74035Y-40262D02*
X74009Y-40183D01*
X74009Y-40183D02*
X74000Y-40100D01*
X74000Y-40100D02*
X74009Y-40017D01*
X74009Y-40017D02*
X74035Y-39938D01*
X74035Y-39938D02*
X74077Y-39865D01*
X74077Y-39865D02*
X74133Y-39803D01*
X74133Y-39803D02*
X74200Y-39754D01*
X74200Y-39754D02*
X74277Y-39720D01*
X74277Y-39720D02*
X74359Y-39703D01*
X74359Y-39703D02*
X74441Y-39703D01*
X74441Y-39703D02*
X74523Y-39720D01*
X74523Y-39720D02*
X74600Y-39754D01*
X74600Y-39754D02*
X74667Y-39803D01*
X74667Y-39803D02*
X74723Y-39865D01*
X74723Y-39865D02*
X74765Y-39938D01*
X74765Y-39938D02*
X74791Y-40017D01*
X74791Y-40017D02*
X74800Y-40100D01*
X75300Y-38100D02*
X75291Y-38183D01*
X75291Y-38183D02*
X75265Y-38262D01*
X75265Y-38262D02*
X75223Y-38335D01*
X75223Y-38335D02*
X75167Y-38397D01*
X75167Y-38397D02*
X75100Y-38446D01*
X75100Y-38446D02*
X75023Y-38480D01*
X75023Y-38480D02*
X74941Y-38497D01*
X74941Y-38497D02*
X74859Y-38497D01*
X74859Y-38497D02*
X74777Y-38480D01*
X74777Y-38480D02*
X74700Y-38446D01*
X74700Y-38446D02*
X74633Y-38397D01*
X74633Y-38397D02*
X74577Y-38335D01*
X74577Y-38335D02*
X74535Y-38262D01*
X74535Y-38262D02*
X74509Y-38183D01*
X74509Y-38183D02*
X74500Y-38100D01*
X74500Y-38100D02*
X74509Y-38017D01*
X74509Y-38017D02*
X74535Y-37938D01*
X74535Y-37938D02*
X74577Y-37865D01*
X74577Y-37865D02*
X74633Y-37803D01*
X74633Y-37803D02*
X74700Y-37754D01*
X74700Y-37754D02*
X74777Y-37720D01*
X74777Y-37720D02*
X74859Y-37703D01*
X74859Y-37703D02*
X74941Y-37703D01*
X74941Y-37703D02*
X75023Y-37720D01*
X75023Y-37720D02*
X75100Y-37754D01*
X75100Y-37754D02*
X75167Y-37803D01*
X75167Y-37803D02*
X75223Y-37865D01*
X75223Y-37865D02*
X75265Y-37938D01*
X75265Y-37938D02*
X75291Y-38017D01*
X75291Y-38017D02*
X75300Y-38100D01*
X75800Y-40100D02*
X75791Y-40183D01*
X75791Y-40183D02*
X75765Y-40262D01*
X75765Y-40262D02*
X75723Y-40335D01*
X75723Y-40335D02*
X75667Y-40397D01*
X75667Y-40397D02*
X75600Y-40446D01*
X75600Y-40446D02*
X75523Y-40480D01*
X75523Y-40480D02*
X75441Y-40497D01*
X75441Y-40497D02*
X75359Y-40497D01*
X75359Y-40497D02*
X75277Y-40480D01*
X75277Y-40480D02*
X75200Y-40446D01*
X75200Y-40446D02*
X75133Y-40397D01*
X75133Y-40397D02*
X75077Y-40335D01*
X75077Y-40335D02*
X75035Y-40262D01*
X75035Y-40262D02*
X75009Y-40183D01*
X75009Y-40183D02*
X75000Y-40100D01*
X75000Y-40100D02*
X75009Y-40017D01*
X75009Y-40017D02*
X75035Y-39938D01*
X75035Y-39938D02*
X75077Y-39865D01*
X75077Y-39865D02*
X75133Y-39803D01*
X75133Y-39803D02*
X75200Y-39754D01*
X75200Y-39754D02*
X75277Y-39720D01*
X75277Y-39720D02*
X75359Y-39703D01*
X75359Y-39703D02*
X75441Y-39703D01*
X75441Y-39703D02*
X75523Y-39720D01*
X75523Y-39720D02*
X75600Y-39754D01*
X75600Y-39754D02*
X75667Y-39803D01*
X75667Y-39803D02*
X75723Y-39865D01*
X75723Y-39865D02*
X75765Y-39938D01*
X75765Y-39938D02*
X75791Y-40017D01*
X75791Y-40017D02*
X75800Y-40100D01*
X76300Y-38100D02*
X76291Y-38183D01*
X76291Y-38183D02*
X76265Y-38262D01*
X76265Y-38262D02*
X76223Y-38335D01*
X76223Y-38335D02*
X76167Y-38397D01*
X76167Y-38397D02*
X76100Y-38446D01*
X76100Y-38446D02*
X76023Y-38480D01*
X76023Y-38480D02*
X75941Y-38497D01*
X75941Y-38497D02*
X75859Y-38497D01*
X75859Y-38497D02*
X75777Y-38480D01*
X75777Y-38480D02*
X75700Y-38446D01*
X75700Y-38446D02*
X75633Y-38397D01*
X75633Y-38397D02*
X75577Y-38335D01*
X75577Y-38335D02*
X75535Y-38262D01*
X75535Y-38262D02*
X75509Y-38183D01*
X75509Y-38183D02*
X75500Y-38100D01*
X75500Y-38100D02*
X75509Y-38017D01*
X75509Y-38017D02*
X75535Y-37938D01*
X75535Y-37938D02*
X75577Y-37865D01*
X75577Y-37865D02*
X75633Y-37803D01*
X75633Y-37803D02*
X75700Y-37754D01*
X75700Y-37754D02*
X75777Y-37720D01*
X75777Y-37720D02*
X75859Y-37703D01*
X75859Y-37703D02*
X75941Y-37703D01*
X75941Y-37703D02*
X76023Y-37720D01*
X76023Y-37720D02*
X76100Y-37754D01*
X76100Y-37754D02*
X76167Y-37803D01*
X76167Y-37803D02*
X76223Y-37865D01*
X76223Y-37865D02*
X76265Y-37938D01*
X76265Y-37938D02*
X76291Y-38017D01*
X76291Y-38017D02*
X76300Y-38100D01*
X76800Y-40100D02*
X76791Y-40183D01*
X76791Y-40183D02*
X76765Y-40262D01*
X76765Y-40262D02*
X76723Y-40335D01*
X76723Y-40335D02*
X76667Y-40397D01*
X76667Y-40397D02*
X76600Y-40446D01*
X76600Y-40446D02*
X76523Y-40480D01*
X76523Y-40480D02*
X76441Y-40497D01*
X76441Y-40497D02*
X76359Y-40497D01*
X76359Y-40497D02*
X76277Y-40480D01*
X76277Y-40480D02*
X76200Y-40446D01*
X76200Y-40446D02*
X76133Y-40397D01*
X76133Y-40397D02*
X76077Y-40335D01*
X76077Y-40335D02*
X76035Y-40262D01*
X76035Y-40262D02*
X76009Y-40183D01*
X76009Y-40183D02*
X76000Y-40100D01*
X76000Y-40100D02*
X76009Y-40017D01*
X76009Y-40017D02*
X76035Y-39938D01*
X76035Y-39938D02*
X76077Y-39865D01*
X76077Y-39865D02*
X76133Y-39803D01*
X76133Y-39803D02*
X76200Y-39754D01*
X76200Y-39754D02*
X76277Y-39720D01*
X76277Y-39720D02*
X76359Y-39703D01*
X76359Y-39703D02*
X76441Y-39703D01*
X76441Y-39703D02*
X76523Y-39720D01*
X76523Y-39720D02*
X76600Y-39754D01*
X76600Y-39754D02*
X76667Y-39803D01*
X76667Y-39803D02*
X76723Y-39865D01*
X76723Y-39865D02*
X76765Y-39938D01*
X76765Y-39938D02*
X76791Y-40017D01*
X76791Y-40017D02*
X76800Y-40100D01*
X77300Y-38100D02*
X77291Y-38183D01*
X77291Y-38183D02*
X77265Y-38262D01*
X77265Y-38262D02*
X77223Y-38335D01*
X77223Y-38335D02*
X77167Y-38397D01*
X77167Y-38397D02*
X77100Y-38446D01*
X77100Y-38446D02*
X77023Y-38480D01*
X77023Y-38480D02*
X76941Y-38497D01*
X76941Y-38497D02*
X76859Y-38497D01*
X76859Y-38497D02*
X76777Y-38480D01*
X76777Y-38480D02*
X76700Y-38446D01*
X76700Y-38446D02*
X76633Y-38397D01*
X76633Y-38397D02*
X76577Y-38335D01*
X76577Y-38335D02*
X76535Y-38262D01*
X76535Y-38262D02*
X76509Y-38183D01*
X76509Y-38183D02*
X76500Y-38100D01*
X76500Y-38100D02*
X76509Y-38017D01*
X76509Y-38017D02*
X76535Y-37938D01*
X76535Y-37938D02*
X76577Y-37865D01*
X76577Y-37865D02*
X76633Y-37803D01*
X76633Y-37803D02*
X76700Y-37754D01*
X76700Y-37754D02*
X76777Y-37720D01*
X76777Y-37720D02*
X76859Y-37703D01*
X76859Y-37703D02*
X76941Y-37703D01*
X76941Y-37703D02*
X77023Y-37720D01*
X77023Y-37720D02*
X77100Y-37754D01*
X77100Y-37754D02*
X77167Y-37803D01*
X77167Y-37803D02*
X77223Y-37865D01*
X77223Y-37865D02*
X77265Y-37938D01*
X77265Y-37938D02*
X77291Y-38017D01*
X77291Y-38017D02*
X77300Y-38100D01*
X77800Y-40100D02*
X77791Y-40183D01*
X77791Y-40183D02*
X77765Y-40262D01*
X77765Y-40262D02*
X77723Y-40335D01*
X77723Y-40335D02*
X77667Y-40397D01*
X77667Y-40397D02*
X77600Y-40446D01*
X77600Y-40446D02*
X77523Y-40480D01*
X77523Y-40480D02*
X77441Y-40497D01*
X77441Y-40497D02*
X77359Y-40497D01*
X77359Y-40497D02*
X77277Y-40480D01*
X77277Y-40480D02*
X77200Y-40446D01*
X77200Y-40446D02*
X77133Y-40397D01*
X77133Y-40397D02*
X77077Y-40335D01*
X77077Y-40335D02*
X77035Y-40262D01*
X77035Y-40262D02*
X77009Y-40183D01*
X77009Y-40183D02*
X77000Y-40100D01*
X77000Y-40100D02*
X77009Y-40017D01*
X77009Y-40017D02*
X77035Y-39938D01*
X77035Y-39938D02*
X77077Y-39865D01*
X77077Y-39865D02*
X77133Y-39803D01*
X77133Y-39803D02*
X77200Y-39754D01*
X77200Y-39754D02*
X77277Y-39720D01*
X77277Y-39720D02*
X77359Y-39703D01*
X77359Y-39703D02*
X77441Y-39703D01*
X77441Y-39703D02*
X77523Y-39720D01*
X77523Y-39720D02*
X77600Y-39754D01*
X77600Y-39754D02*
X77667Y-39803D01*
X77667Y-39803D02*
X77723Y-39865D01*
X77723Y-39865D02*
X77765Y-39938D01*
X77765Y-39938D02*
X77791Y-40017D01*
X77791Y-40017D02*
X77800Y-40100D01*
X78300Y-38100D02*
X78291Y-38183D01*
X78291Y-38183D02*
X78265Y-38262D01*
X78265Y-38262D02*
X78223Y-38335D01*
X78223Y-38335D02*
X78167Y-38397D01*
X78167Y-38397D02*
X78100Y-38446D01*
X78100Y-38446D02*
X78023Y-38480D01*
X78023Y-38480D02*
X77941Y-38497D01*
X77941Y-38497D02*
X77859Y-38497D01*
X77859Y-38497D02*
X77777Y-38480D01*
X77777Y-38480D02*
X77700Y-38446D01*
X77700Y-38446D02*
X77633Y-38397D01*
X77633Y-38397D02*
X77577Y-38335D01*
X77577Y-38335D02*
X77535Y-38262D01*
X77535Y-38262D02*
X77509Y-38183D01*
X77509Y-38183D02*
X77500Y-38100D01*
X77500Y-38100D02*
X77509Y-38017D01*
X77509Y-38017D02*
X77535Y-37938D01*
X77535Y-37938D02*
X77577Y-37865D01*
X77577Y-37865D02*
X77633Y-37803D01*
X77633Y-37803D02*
X77700Y-37754D01*
X77700Y-37754D02*
X77777Y-37720D01*
X77777Y-37720D02*
X77859Y-37703D01*
X77859Y-37703D02*
X77941Y-37703D01*
X77941Y-37703D02*
X78023Y-37720D01*
X78023Y-37720D02*
X78100Y-37754D01*
X78100Y-37754D02*
X78167Y-37803D01*
X78167Y-37803D02*
X78223Y-37865D01*
X78223Y-37865D02*
X78265Y-37938D01*
X78265Y-37938D02*
X78291Y-38017D01*
X78291Y-38017D02*
X78300Y-38100D01*
X78800Y-40100D02*
X78791Y-40183D01*
X78791Y-40183D02*
X78765Y-40262D01*
X78765Y-40262D02*
X78723Y-40335D01*
X78723Y-40335D02*
X78667Y-40397D01*
X78667Y-40397D02*
X78600Y-40446D01*
X78600Y-40446D02*
X78523Y-40480D01*
X78523Y-40480D02*
X78441Y-40497D01*
X78441Y-40497D02*
X78359Y-40497D01*
X78359Y-40497D02*
X78277Y-40480D01*
X78277Y-40480D02*
X78200Y-40446D01*
X78200Y-40446D02*
X78133Y-40397D01*
X78133Y-40397D02*
X78077Y-40335D01*
X78077Y-40335D02*
X78035Y-40262D01*
X78035Y-40262D02*
X78009Y-40183D01*
X78009Y-40183D02*
X78000Y-40100D01*
X78000Y-40100D02*
X78009Y-40017D01*
X78009Y-40017D02*
X78035Y-39938D01*
X78035Y-39938D02*
X78077Y-39865D01*
X78077Y-39865D02*
X78133Y-39803D01*
X78133Y-39803D02*
X78200Y-39754D01*
X78200Y-39754D02*
X78277Y-39720D01*
X78277Y-39720D02*
X78359Y-39703D01*
X78359Y-39703D02*
X78441Y-39703D01*
X78441Y-39703D02*
X78523Y-39720D01*
X78523Y-39720D02*
X78600Y-39754D01*
X78600Y-39754D02*
X78667Y-39803D01*
X78667Y-39803D02*
X78723Y-39865D01*
X78723Y-39865D02*
X78765Y-39938D01*
X78765Y-39938D02*
X78791Y-40017D01*
X78791Y-40017D02*
X78800Y-40100D01*
X67400Y-37500D02*
X68200Y-37500D01*
X68200Y-37500D02*
X68200Y-38300D01*
X68200Y-38300D02*
X67400Y-38300D01*
X67400Y-38300D02*
X67400Y-37500D01*
X68200Y-38900D02*
X68191Y-38983D01*
X68191Y-38983D02*
X68165Y-39062D01*
X68165Y-39062D02*
X68123Y-39135D01*
X68123Y-39135D02*
X68067Y-39197D01*
X68067Y-39197D02*
X68000Y-39246D01*
X68000Y-39246D02*
X67923Y-39280D01*
X67923Y-39280D02*
X67841Y-39297D01*
X67841Y-39297D02*
X67759Y-39297D01*
X67759Y-39297D02*
X67677Y-39280D01*
X67677Y-39280D02*
X67600Y-39246D01*
X67600Y-39246D02*
X67533Y-39197D01*
X67533Y-39197D02*
X67477Y-39135D01*
X67477Y-39135D02*
X67435Y-39062D01*
X67435Y-39062D02*
X67409Y-38983D01*
X67409Y-38983D02*
X67400Y-38900D01*
X67400Y-38900D02*
X67409Y-38817D01*
X67409Y-38817D02*
X67435Y-38738D01*
X67435Y-38738D02*
X67477Y-38665D01*
X67477Y-38665D02*
X67533Y-38603D01*
X67533Y-38603D02*
X67600Y-38554D01*
X67600Y-38554D02*
X67677Y-38520D01*
X67677Y-38520D02*
X67759Y-38503D01*
X67759Y-38503D02*
X67841Y-38503D01*
X67841Y-38503D02*
X67923Y-38520D01*
X67923Y-38520D02*
X68000Y-38554D01*
X68000Y-38554D02*
X68067Y-38603D01*
X68067Y-38603D02*
X68123Y-38665D01*
X68123Y-38665D02*
X68165Y-38738D01*
X68165Y-38738D02*
X68191Y-38817D01*
X68191Y-38817D02*
X68200Y-38900D01*
X68200Y-39900D02*
X68191Y-39983D01*
X68191Y-39983D02*
X68165Y-40062D01*
X68165Y-40062D02*
X68123Y-40135D01*
X68123Y-40135D02*
X68067Y-40197D01*
X68067Y-40197D02*
X68000Y-40246D01*
X68000Y-40246D02*
X67923Y-40280D01*
X67923Y-40280D02*
X67841Y-40297D01*
X67841Y-40297D02*
X67759Y-40297D01*
X67759Y-40297D02*
X67677Y-40280D01*
X67677Y-40280D02*
X67600Y-40246D01*
X67600Y-40246D02*
X67533Y-40197D01*
X67533Y-40197D02*
X67477Y-40135D01*
X67477Y-40135D02*
X67435Y-40062D01*
X67435Y-40062D02*
X67409Y-39983D01*
X67409Y-39983D02*
X67400Y-39900D01*
X67400Y-39900D02*
X67409Y-39817D01*
X67409Y-39817D02*
X67435Y-39738D01*
X67435Y-39738D02*
X67477Y-39665D01*
X67477Y-39665D02*
X67533Y-39603D01*
X67533Y-39603D02*
X67600Y-39554D01*
X67600Y-39554D02*
X67677Y-39520D01*
X67677Y-39520D02*
X67759Y-39503D01*
X67759Y-39503D02*
X67841Y-39503D01*
X67841Y-39503D02*
X67923Y-39520D01*
X67923Y-39520D02*
X68000Y-39554D01*
X68000Y-39554D02*
X68067Y-39603D01*
X68067Y-39603D02*
X68123Y-39665D01*
X68123Y-39665D02*
X68165Y-39738D01*
X68165Y-39738D02*
X68191Y-39817D01*
X68191Y-39817D02*
X68200Y-39900D01*
X68200Y-40900D02*
X68191Y-40983D01*
X68191Y-40983D02*
X68165Y-41062D01*
X68165Y-41062D02*
X68123Y-41135D01*
X68123Y-41135D02*
X68067Y-41197D01*
X68067Y-41197D02*
X68000Y-41246D01*
X68000Y-41246D02*
X67923Y-41280D01*
X67923Y-41280D02*
X67841Y-41297D01*
X67841Y-41297D02*
X67759Y-41297D01*
X67759Y-41297D02*
X67677Y-41280D01*
X67677Y-41280D02*
X67600Y-41246D01*
X67600Y-41246D02*
X67533Y-41197D01*
X67533Y-41197D02*
X67477Y-41135D01*
X67477Y-41135D02*
X67435Y-41062D01*
X67435Y-41062D02*
X67409Y-40983D01*
X67409Y-40983D02*
X67400Y-40900D01*
X67400Y-40900D02*
X67409Y-40817D01*
X67409Y-40817D02*
X67435Y-40738D01*
X67435Y-40738D02*
X67477Y-40665D01*
X67477Y-40665D02*
X67533Y-40603D01*
X67533Y-40603D02*
X67600Y-40554D01*
X67600Y-40554D02*
X67677Y-40520D01*
X67677Y-40520D02*
X67759Y-40503D01*
X67759Y-40503D02*
X67841Y-40503D01*
X67841Y-40503D02*
X67923Y-40520D01*
X67923Y-40520D02*
X68000Y-40554D01*
X68000Y-40554D02*
X68067Y-40603D01*
X68067Y-40603D02*
X68123Y-40665D01*
X68123Y-40665D02*
X68165Y-40738D01*
X68165Y-40738D02*
X68191Y-40817D01*
X68191Y-40817D02*
X68200Y-40900D01*
X68200Y-41900D02*
X68191Y-41983D01*
X68191Y-41983D02*
X68165Y-42062D01*
X68165Y-42062D02*
X68123Y-42135D01*
X68123Y-42135D02*
X68067Y-42197D01*
X68067Y-42197D02*
X68000Y-42246D01*
X68000Y-42246D02*
X67923Y-42280D01*
X67923Y-42280D02*
X67841Y-42297D01*
X67841Y-42297D02*
X67759Y-42297D01*
X67759Y-42297D02*
X67677Y-42280D01*
X67677Y-42280D02*
X67600Y-42246D01*
X67600Y-42246D02*
X67533Y-42197D01*
X67533Y-42197D02*
X67477Y-42135D01*
X67477Y-42135D02*
X67435Y-42062D01*
X67435Y-42062D02*
X67409Y-41983D01*
X67409Y-41983D02*
X67400Y-41900D01*
X67400Y-41900D02*
X67409Y-41817D01*
X67409Y-41817D02*
X67435Y-41738D01*
X67435Y-41738D02*
X67477Y-41665D01*
X67477Y-41665D02*
X67533Y-41603D01*
X67533Y-41603D02*
X67600Y-41554D01*
X67600Y-41554D02*
X67677Y-41520D01*
X67677Y-41520D02*
X67759Y-41503D01*
X67759Y-41503D02*
X67841Y-41503D01*
X67841Y-41503D02*
X67923Y-41520D01*
X67923Y-41520D02*
X68000Y-41554D01*
X68000Y-41554D02*
X68067Y-41603D01*
X68067Y-41603D02*
X68123Y-41665D01*
X68123Y-41665D02*
X68165Y-41738D01*
X68165Y-41738D02*
X68191Y-41817D01*
X68191Y-41817D02*
X68200Y-41900D01*
X60900Y-41500D02*
X60100Y-41500D01*
X60100Y-41500D02*
X60100Y-40700D01*
X60100Y-40700D02*
X60900Y-40700D01*
X60900Y-40700D02*
X60900Y-41500D01*
X60900Y-40100D02*
X60891Y-40183D01*
X60891Y-40183D02*
X60865Y-40262D01*
X60865Y-40262D02*
X60823Y-40335D01*
X60823Y-40335D02*
X60767Y-40397D01*
X60767Y-40397D02*
X60700Y-40446D01*
X60700Y-40446D02*
X60623Y-40480D01*
X60623Y-40480D02*
X60541Y-40497D01*
X60541Y-40497D02*
X60459Y-40497D01*
X60459Y-40497D02*
X60377Y-40480D01*
X60377Y-40480D02*
X60300Y-40446D01*
X60300Y-40446D02*
X60233Y-40397D01*
X60233Y-40397D02*
X60177Y-40335D01*
X60177Y-40335D02*
X60135Y-40262D01*
X60135Y-40262D02*
X60109Y-40183D01*
X60109Y-40183D02*
X60100Y-40100D01*
X60100Y-40100D02*
X60109Y-40017D01*
X60109Y-40017D02*
X60135Y-39938D01*
X60135Y-39938D02*
X60177Y-39865D01*
X60177Y-39865D02*
X60233Y-39803D01*
X60233Y-39803D02*
X60300Y-39754D01*
X60300Y-39754D02*
X60377Y-39720D01*
X60377Y-39720D02*
X60459Y-39703D01*
X60459Y-39703D02*
X60541Y-39703D01*
X60541Y-39703D02*
X60623Y-39720D01*
X60623Y-39720D02*
X60700Y-39754D01*
X60700Y-39754D02*
X60767Y-39803D01*
X60767Y-39803D02*
X60823Y-39865D01*
X60823Y-39865D02*
X60865Y-39938D01*
X60865Y-39938D02*
X60891Y-40017D01*
X60891Y-40017D02*
X60900Y-40100D01*
X60900Y-39100D02*
X60891Y-39183D01*
X60891Y-39183D02*
X60865Y-39262D01*
X60865Y-39262D02*
X60823Y-39335D01*
X60823Y-39335D02*
X60767Y-39397D01*
X60767Y-39397D02*
X60700Y-39446D01*
X60700Y-39446D02*
X60623Y-39480D01*
X60623Y-39480D02*
X60541Y-39497D01*
X60541Y-39497D02*
X60459Y-39497D01*
X60459Y-39497D02*
X60377Y-39480D01*
X60377Y-39480D02*
X60300Y-39446D01*
X60300Y-39446D02*
X60233Y-39397D01*
X60233Y-39397D02*
X60177Y-39335D01*
X60177Y-39335D02*
X60135Y-39262D01*
X60135Y-39262D02*
X60109Y-39183D01*
X60109Y-39183D02*
X60100Y-39100D01*
X60100Y-39100D02*
X60109Y-39017D01*
X60109Y-39017D02*
X60135Y-38938D01*
X60135Y-38938D02*
X60177Y-38865D01*
X60177Y-38865D02*
X60233Y-38803D01*
X60233Y-38803D02*
X60300Y-38754D01*
X60300Y-38754D02*
X60377Y-38720D01*
X60377Y-38720D02*
X60459Y-38703D01*
X60459Y-38703D02*
X60541Y-38703D01*
X60541Y-38703D02*
X60623Y-38720D01*
X60623Y-38720D02*
X60700Y-38754D01*
X60700Y-38754D02*
X60767Y-38803D01*
X60767Y-38803D02*
X60823Y-38865D01*
X60823Y-38865D02*
X60865Y-38938D01*
X60865Y-38938D02*
X60891Y-39017D01*
X60891Y-39017D02*
X60900Y-39100D01*
X60900Y-38100D02*
X60891Y-38183D01*
X60891Y-38183D02*
X60865Y-38262D01*
X60865Y-38262D02*
X60823Y-38335D01*
X60823Y-38335D02*
X60767Y-38397D01*
X60767Y-38397D02*
X60700Y-38446D01*
X60700Y-38446D02*
X60623Y-38480D01*
X60623Y-38480D02*
X60541Y-38497D01*
X60541Y-38497D02*
X60459Y-38497D01*
X60459Y-38497D02*
X60377Y-38480D01*
X60377Y-38480D02*
X60300Y-38446D01*
X60300Y-38446D02*
X60233Y-38397D01*
X60233Y-38397D02*
X60177Y-38335D01*
X60177Y-38335D02*
X60135Y-38262D01*
X60135Y-38262D02*
X60109Y-38183D01*
X60109Y-38183D02*
X60100Y-38100D01*
X60100Y-38100D02*
X60109Y-38017D01*
X60109Y-38017D02*
X60135Y-37938D01*
X60135Y-37938D02*
X60177Y-37865D01*
X60177Y-37865D02*
X60233Y-37803D01*
X60233Y-37803D02*
X60300Y-37754D01*
X60300Y-37754D02*
X60377Y-37720D01*
X60377Y-37720D02*
X60459Y-37703D01*
X60459Y-37703D02*
X60541Y-37703D01*
X60541Y-37703D02*
X60623Y-37720D01*
X60623Y-37720D02*
X60700Y-37754D01*
X60700Y-37754D02*
X60767Y-37803D01*
X60767Y-37803D02*
X60823Y-37865D01*
X60823Y-37865D02*
X60865Y-37938D01*
X60865Y-37938D02*
X60891Y-38017D01*
X60891Y-38017D02*
X60900Y-38100D01*
X60900Y-37100D02*
X60891Y-37183D01*
X60891Y-37183D02*
X60865Y-37262D01*
X60865Y-37262D02*
X60823Y-37335D01*
X60823Y-37335D02*
X60767Y-37397D01*
X60767Y-37397D02*
X60700Y-37446D01*
X60700Y-37446D02*
X60623Y-37480D01*
X60623Y-37480D02*
X60541Y-37497D01*
X60541Y-37497D02*
X60459Y-37497D01*
X60459Y-37497D02*
X60377Y-37480D01*
X60377Y-37480D02*
X60300Y-37446D01*
X60300Y-37446D02*
X60233Y-37397D01*
X60233Y-37397D02*
X60177Y-37335D01*
X60177Y-37335D02*
X60135Y-37262D01*
X60135Y-37262D02*
X60109Y-37183D01*
X60109Y-37183D02*
X60100Y-37100D01*
X60100Y-37100D02*
X60109Y-37017D01*
X60109Y-37017D02*
X60135Y-36938D01*
X60135Y-36938D02*
X60177Y-36865D01*
X60177Y-36865D02*
X60233Y-36803D01*
X60233Y-36803D02*
X60300Y-36754D01*
X60300Y-36754D02*
X60377Y-36720D01*
X60377Y-36720D02*
X60459Y-36703D01*
X60459Y-36703D02*
X60541Y-36703D01*
X60541Y-36703D02*
X60623Y-36720D01*
X60623Y-36720D02*
X60700Y-36754D01*
X60700Y-36754D02*
X60767Y-36803D01*
X60767Y-36803D02*
X60823Y-36865D01*
X60823Y-36865D02*
X60865Y-36938D01*
X60865Y-36938D02*
X60891Y-37017D01*
X60891Y-37017D02*
X60900Y-37100D01*
X60900Y-36100D02*
X60891Y-36183D01*
X60891Y-36183D02*
X60865Y-36262D01*
X60865Y-36262D02*
X60823Y-36335D01*
X60823Y-36335D02*
X60767Y-36397D01*
X60767Y-36397D02*
X60700Y-36446D01*
X60700Y-36446D02*
X60623Y-36480D01*
X60623Y-36480D02*
X60541Y-36497D01*
X60541Y-36497D02*
X60459Y-36497D01*
X60459Y-36497D02*
X60377Y-36480D01*
X60377Y-36480D02*
X60300Y-36446D01*
X60300Y-36446D02*
X60233Y-36397D01*
X60233Y-36397D02*
X60177Y-36335D01*
X60177Y-36335D02*
X60135Y-36262D01*
X60135Y-36262D02*
X60109Y-36183D01*
X60109Y-36183D02*
X60100Y-36100D01*
X60100Y-36100D02*
X60109Y-36017D01*
X60109Y-36017D02*
X60135Y-35938D01*
X60135Y-35938D02*
X60177Y-35865D01*
X60177Y-35865D02*
X60233Y-35803D01*
X60233Y-35803D02*
X60300Y-35754D01*
X60300Y-35754D02*
X60377Y-35720D01*
X60377Y-35720D02*
X60459Y-35703D01*
X60459Y-35703D02*
X60541Y-35703D01*
X60541Y-35703D02*
X60623Y-35720D01*
X60623Y-35720D02*
X60700Y-35754D01*
X60700Y-35754D02*
X60767Y-35803D01*
X60767Y-35803D02*
X60823Y-35865D01*
X60823Y-35865D02*
X60865Y-35938D01*
X60865Y-35938D02*
X60891Y-36017D01*
X60891Y-36017D02*
X60900Y-36100D01*
X60900Y-35100D02*
X60891Y-35183D01*
X60891Y-35183D02*
X60865Y-35262D01*
X60865Y-35262D02*
X60823Y-35335D01*
X60823Y-35335D02*
X60767Y-35397D01*
X60767Y-35397D02*
X60700Y-35446D01*
X60700Y-35446D02*
X60623Y-35480D01*
X60623Y-35480D02*
X60541Y-35497D01*
X60541Y-35497D02*
X60459Y-35497D01*
X60459Y-35497D02*
X60377Y-35480D01*
X60377Y-35480D02*
X60300Y-35446D01*
X60300Y-35446D02*
X60233Y-35397D01*
X60233Y-35397D02*
X60177Y-35335D01*
X60177Y-35335D02*
X60135Y-35262D01*
X60135Y-35262D02*
X60109Y-35183D01*
X60109Y-35183D02*
X60100Y-35100D01*
X60100Y-35100D02*
X60109Y-35017D01*
X60109Y-35017D02*
X60135Y-34938D01*
X60135Y-34938D02*
X60177Y-34865D01*
X60177Y-34865D02*
X60233Y-34803D01*
X60233Y-34803D02*
X60300Y-34754D01*
X60300Y-34754D02*
X60377Y-34720D01*
X60377Y-34720D02*
X60459Y-34703D01*
X60459Y-34703D02*
X60541Y-34703D01*
X60541Y-34703D02*
X60623Y-34720D01*
X60623Y-34720D02*
X60700Y-34754D01*
X60700Y-34754D02*
X60767Y-34803D01*
X60767Y-34803D02*
X60823Y-34865D01*
X60823Y-34865D02*
X60865Y-34938D01*
X60865Y-34938D02*
X60891Y-35017D01*
X60891Y-35017D02*
X60900Y-35100D01*
X60900Y-34100D02*
X60891Y-34183D01*
X60891Y-34183D02*
X60865Y-34262D01*
X60865Y-34262D02*
X60823Y-34335D01*
X60823Y-34335D02*
X60767Y-34397D01*
X60767Y-34397D02*
X60700Y-34446D01*
X60700Y-34446D02*
X60623Y-34480D01*
X60623Y-34480D02*
X60541Y-34497D01*
X60541Y-34497D02*
X60459Y-34497D01*
X60459Y-34497D02*
X60377Y-34480D01*
X60377Y-34480D02*
X60300Y-34446D01*
X60300Y-34446D02*
X60233Y-34397D01*
X60233Y-34397D02*
X60177Y-34335D01*
X60177Y-34335D02*
X60135Y-34262D01*
X60135Y-34262D02*
X60109Y-34183D01*
X60109Y-34183D02*
X60100Y-34100D01*
X60100Y-34100D02*
X60109Y-34017D01*
X60109Y-34017D02*
X60135Y-33938D01*
X60135Y-33938D02*
X60177Y-33865D01*
X60177Y-33865D02*
X60233Y-33803D01*
X60233Y-33803D02*
X60300Y-33754D01*
X60300Y-33754D02*
X60377Y-33720D01*
X60377Y-33720D02*
X60459Y-33703D01*
X60459Y-33703D02*
X60541Y-33703D01*
X60541Y-33703D02*
X60623Y-33720D01*
X60623Y-33720D02*
X60700Y-33754D01*
X60700Y-33754D02*
X60767Y-33803D01*
X60767Y-33803D02*
X60823Y-33865D01*
X60823Y-33865D02*
X60865Y-33938D01*
X60865Y-33938D02*
X60891Y-34017D01*
X60891Y-34017D02*
X60900Y-34100D01*
X60900Y-33100D02*
X60891Y-33183D01*
X60891Y-33183D02*
X60865Y-33262D01*
X60865Y-33262D02*
X60823Y-33335D01*
X60823Y-33335D02*
X60767Y-33397D01*
X60767Y-33397D02*
X60700Y-33446D01*
X60700Y-33446D02*
X60623Y-33480D01*
X60623Y-33480D02*
X60541Y-33497D01*
X60541Y-33497D02*
X60459Y-33497D01*
X60459Y-33497D02*
X60377Y-33480D01*
X60377Y-33480D02*
X60300Y-33446D01*
X60300Y-33446D02*
X60233Y-33397D01*
X60233Y-33397D02*
X60177Y-33335D01*
X60177Y-33335D02*
X60135Y-33262D01*
X60135Y-33262D02*
X60109Y-33183D01*
X60109Y-33183D02*
X60100Y-33100D01*
X60100Y-33100D02*
X60109Y-33017D01*
X60109Y-33017D02*
X60135Y-32938D01*
X60135Y-32938D02*
X60177Y-32865D01*
X60177Y-32865D02*
X60233Y-32803D01*
X60233Y-32803D02*
X60300Y-32754D01*
X60300Y-32754D02*
X60377Y-32720D01*
X60377Y-32720D02*
X60459Y-32703D01*
X60459Y-32703D02*
X60541Y-32703D01*
X60541Y-32703D02*
X60623Y-32720D01*
X60623Y-32720D02*
X60700Y-32754D01*
X60700Y-32754D02*
X60767Y-32803D01*
X60767Y-32803D02*
X60823Y-32865D01*
X60823Y-32865D02*
X60865Y-32938D01*
X60865Y-32938D02*
X60891Y-33017D01*
X60891Y-33017D02*
X60900Y-33100D01*
X57900Y-33100D02*
X57891Y-33183D01*
X57891Y-33183D02*
X57865Y-33262D01*
X57865Y-33262D02*
X57823Y-33335D01*
X57823Y-33335D02*
X57767Y-33397D01*
X57767Y-33397D02*
X57700Y-33446D01*
X57700Y-33446D02*
X57623Y-33480D01*
X57623Y-33480D02*
X57541Y-33497D01*
X57541Y-33497D02*
X57459Y-33497D01*
X57459Y-33497D02*
X57377Y-33480D01*
X57377Y-33480D02*
X57300Y-33446D01*
X57300Y-33446D02*
X57233Y-33397D01*
X57233Y-33397D02*
X57177Y-33335D01*
X57177Y-33335D02*
X57135Y-33262D01*
X57135Y-33262D02*
X57109Y-33183D01*
X57109Y-33183D02*
X57100Y-33100D01*
X57100Y-33100D02*
X57109Y-33017D01*
X57109Y-33017D02*
X57135Y-32938D01*
X57135Y-32938D02*
X57177Y-32865D01*
X57177Y-32865D02*
X57233Y-32803D01*
X57233Y-32803D02*
X57300Y-32754D01*
X57300Y-32754D02*
X57377Y-32720D01*
X57377Y-32720D02*
X57459Y-32703D01*
X57459Y-32703D02*
X57541Y-32703D01*
X57541Y-32703D02*
X57623Y-32720D01*
X57623Y-32720D02*
X57700Y-32754D01*
X57700Y-32754D02*
X57767Y-32803D01*
X57767Y-32803D02*
X57823Y-32865D01*
X57823Y-32865D02*
X57865Y-32938D01*
X57865Y-32938D02*
X57891Y-33017D01*
X57891Y-33017D02*
X57900Y-33100D01*
X57900Y-34100D02*
X57891Y-34183D01*
X57891Y-34183D02*
X57865Y-34262D01*
X57865Y-34262D02*
X57823Y-34335D01*
X57823Y-34335D02*
X57767Y-34397D01*
X57767Y-34397D02*
X57700Y-34446D01*
X57700Y-34446D02*
X57623Y-34480D01*
X57623Y-34480D02*
X57541Y-34497D01*
X57541Y-34497D02*
X57459Y-34497D01*
X57459Y-34497D02*
X57377Y-34480D01*
X57377Y-34480D02*
X57300Y-34446D01*
X57300Y-34446D02*
X57233Y-34397D01*
X57233Y-34397D02*
X57177Y-34335D01*
X57177Y-34335D02*
X57135Y-34262D01*
X57135Y-34262D02*
X57109Y-34183D01*
X57109Y-34183D02*
X57100Y-34100D01*
X57100Y-34100D02*
X57109Y-34017D01*
X57109Y-34017D02*
X57135Y-33938D01*
X57135Y-33938D02*
X57177Y-33865D01*
X57177Y-33865D02*
X57233Y-33803D01*
X57233Y-33803D02*
X57300Y-33754D01*
X57300Y-33754D02*
X57377Y-33720D01*
X57377Y-33720D02*
X57459Y-33703D01*
X57459Y-33703D02*
X57541Y-33703D01*
X57541Y-33703D02*
X57623Y-33720D01*
X57623Y-33720D02*
X57700Y-33754D01*
X57700Y-33754D02*
X57767Y-33803D01*
X57767Y-33803D02*
X57823Y-33865D01*
X57823Y-33865D02*
X57865Y-33938D01*
X57865Y-33938D02*
X57891Y-34017D01*
X57891Y-34017D02*
X57900Y-34100D01*
X57900Y-35100D02*
X57891Y-35183D01*
X57891Y-35183D02*
X57865Y-35262D01*
X57865Y-35262D02*
X57823Y-35335D01*
X57823Y-35335D02*
X57767Y-35397D01*
X57767Y-35397D02*
X57700Y-35446D01*
X57700Y-35446D02*
X57623Y-35480D01*
X57623Y-35480D02*
X57541Y-35497D01*
X57541Y-35497D02*
X57459Y-35497D01*
X57459Y-35497D02*
X57377Y-35480D01*
X57377Y-35480D02*
X57300Y-35446D01*
X57300Y-35446D02*
X57233Y-35397D01*
X57233Y-35397D02*
X57177Y-35335D01*
X57177Y-35335D02*
X57135Y-35262D01*
X57135Y-35262D02*
X57109Y-35183D01*
X57109Y-35183D02*
X57100Y-35100D01*
X57100Y-35100D02*
X57109Y-35017D01*
X57109Y-35017D02*
X57135Y-34938D01*
X57135Y-34938D02*
X57177Y-34865D01*
X57177Y-34865D02*
X57233Y-34803D01*
X57233Y-34803D02*
X57300Y-34754D01*
X57300Y-34754D02*
X57377Y-34720D01*
X57377Y-34720D02*
X57459Y-34703D01*
X57459Y-34703D02*
X57541Y-34703D01*
X57541Y-34703D02*
X57623Y-34720D01*
X57623Y-34720D02*
X57700Y-34754D01*
X57700Y-34754D02*
X57767Y-34803D01*
X57767Y-34803D02*
X57823Y-34865D01*
X57823Y-34865D02*
X57865Y-34938D01*
X57865Y-34938D02*
X57891Y-35017D01*
X57891Y-35017D02*
X57900Y-35100D01*
X57900Y-36100D02*
X57891Y-36183D01*
X57891Y-36183D02*
X57865Y-36262D01*
X57865Y-36262D02*
X57823Y-36335D01*
X57823Y-36335D02*
X57767Y-36397D01*
X57767Y-36397D02*
X57700Y-36446D01*
X57700Y-36446D02*
X57623Y-36480D01*
X57623Y-36480D02*
X57541Y-36497D01*
X57541Y-36497D02*
X57459Y-36497D01*
X57459Y-36497D02*
X57377Y-36480D01*
X57377Y-36480D02*
X57300Y-36446D01*
X57300Y-36446D02*
X57233Y-36397D01*
X57233Y-36397D02*
X57177Y-36335D01*
X57177Y-36335D02*
X57135Y-36262D01*
X57135Y-36262D02*
X57109Y-36183D01*
X57109Y-36183D02*
X57100Y-36100D01*
X57100Y-36100D02*
X57109Y-36017D01*
X57109Y-36017D02*
X57135Y-35938D01*
X57135Y-35938D02*
X57177Y-35865D01*
X57177Y-35865D02*
X57233Y-35803D01*
X57233Y-35803D02*
X57300Y-35754D01*
X57300Y-35754D02*
X57377Y-35720D01*
X57377Y-35720D02*
X57459Y-35703D01*
X57459Y-35703D02*
X57541Y-35703D01*
X57541Y-35703D02*
X57623Y-35720D01*
X57623Y-35720D02*
X57700Y-35754D01*
X57700Y-35754D02*
X57767Y-35803D01*
X57767Y-35803D02*
X57823Y-35865D01*
X57823Y-35865D02*
X57865Y-35938D01*
X57865Y-35938D02*
X57891Y-36017D01*
X57891Y-36017D02*
X57900Y-36100D01*
X57900Y-37100D02*
X57891Y-37183D01*
X57891Y-37183D02*
X57865Y-37262D01*
X57865Y-37262D02*
X57823Y-37335D01*
X57823Y-37335D02*
X57767Y-37397D01*
X57767Y-37397D02*
X57700Y-37446D01*
X57700Y-37446D02*
X57623Y-37480D01*
X57623Y-37480D02*
X57541Y-37497D01*
X57541Y-37497D02*
X57459Y-37497D01*
X57459Y-37497D02*
X57377Y-37480D01*
X57377Y-37480D02*
X57300Y-37446D01*
X57300Y-37446D02*
X57233Y-37397D01*
X57233Y-37397D02*
X57177Y-37335D01*
X57177Y-37335D02*
X57135Y-37262D01*
X57135Y-37262D02*
X57109Y-37183D01*
X57109Y-37183D02*
X57100Y-37100D01*
X57100Y-37100D02*
X57109Y-37017D01*
X57109Y-37017D02*
X57135Y-36938D01*
X57135Y-36938D02*
X57177Y-36865D01*
X57177Y-36865D02*
X57233Y-36803D01*
X57233Y-36803D02*
X57300Y-36754D01*
X57300Y-36754D02*
X57377Y-36720D01*
X57377Y-36720D02*
X57459Y-36703D01*
X57459Y-36703D02*
X57541Y-36703D01*
X57541Y-36703D02*
X57623Y-36720D01*
X57623Y-36720D02*
X57700Y-36754D01*
X57700Y-36754D02*
X57767Y-36803D01*
X57767Y-36803D02*
X57823Y-36865D01*
X57823Y-36865D02*
X57865Y-36938D01*
X57865Y-36938D02*
X57891Y-37017D01*
X57891Y-37017D02*
X57900Y-37100D01*
X57900Y-38100D02*
X57891Y-38183D01*
X57891Y-38183D02*
X57865Y-38262D01*
X57865Y-38262D02*
X57823Y-38335D01*
X57823Y-38335D02*
X57767Y-38397D01*
X57767Y-38397D02*
X57700Y-38446D01*
X57700Y-38446D02*
X57623Y-38480D01*
X57623Y-38480D02*
X57541Y-38497D01*
X57541Y-38497D02*
X57459Y-38497D01*
X57459Y-38497D02*
X57377Y-38480D01*
X57377Y-38480D02*
X57300Y-38446D01*
X57300Y-38446D02*
X57233Y-38397D01*
X57233Y-38397D02*
X57177Y-38335D01*
X57177Y-38335D02*
X57135Y-38262D01*
X57135Y-38262D02*
X57109Y-38183D01*
X57109Y-38183D02*
X57100Y-38100D01*
X57100Y-38100D02*
X57109Y-38017D01*
X57109Y-38017D02*
X57135Y-37938D01*
X57135Y-37938D02*
X57177Y-37865D01*
X57177Y-37865D02*
X57233Y-37803D01*
X57233Y-37803D02*
X57300Y-37754D01*
X57300Y-37754D02*
X57377Y-37720D01*
X57377Y-37720D02*
X57459Y-37703D01*
X57459Y-37703D02*
X57541Y-37703D01*
X57541Y-37703D02*
X57623Y-37720D01*
X57623Y-37720D02*
X57700Y-37754D01*
X57700Y-37754D02*
X57767Y-37803D01*
X57767Y-37803D02*
X57823Y-37865D01*
X57823Y-37865D02*
X57865Y-37938D01*
X57865Y-37938D02*
X57891Y-38017D01*
X57891Y-38017D02*
X57900Y-38100D01*
X57900Y-39100D02*
X57891Y-39183D01*
X57891Y-39183D02*
X57865Y-39262D01*
X57865Y-39262D02*
X57823Y-39335D01*
X57823Y-39335D02*
X57767Y-39397D01*
X57767Y-39397D02*
X57700Y-39446D01*
X57700Y-39446D02*
X57623Y-39480D01*
X57623Y-39480D02*
X57541Y-39497D01*
X57541Y-39497D02*
X57459Y-39497D01*
X57459Y-39497D02*
X57377Y-39480D01*
X57377Y-39480D02*
X57300Y-39446D01*
X57300Y-39446D02*
X57233Y-39397D01*
X57233Y-39397D02*
X57177Y-39335D01*
X57177Y-39335D02*
X57135Y-39262D01*
X57135Y-39262D02*
X57109Y-39183D01*
X57109Y-39183D02*
X57100Y-39100D01*
X57100Y-39100D02*
X57109Y-39017D01*
X57109Y-39017D02*
X57135Y-38938D01*
X57135Y-38938D02*
X57177Y-38865D01*
X57177Y-38865D02*
X57233Y-38803D01*
X57233Y-38803D02*
X57300Y-38754D01*
X57300Y-38754D02*
X57377Y-38720D01*
X57377Y-38720D02*
X57459Y-38703D01*
X57459Y-38703D02*
X57541Y-38703D01*
X57541Y-38703D02*
X57623Y-38720D01*
X57623Y-38720D02*
X57700Y-38754D01*
X57700Y-38754D02*
X57767Y-38803D01*
X57767Y-38803D02*
X57823Y-38865D01*
X57823Y-38865D02*
X57865Y-38938D01*
X57865Y-38938D02*
X57891Y-39017D01*
X57891Y-39017D02*
X57900Y-39100D01*
X57900Y-40100D02*
X57891Y-40183D01*
X57891Y-40183D02*
X57865Y-40262D01*
X57865Y-40262D02*
X57823Y-40335D01*
X57823Y-40335D02*
X57767Y-40397D01*
X57767Y-40397D02*
X57700Y-40446D01*
X57700Y-40446D02*
X57623Y-40480D01*
X57623Y-40480D02*
X57541Y-40497D01*
X57541Y-40497D02*
X57459Y-40497D01*
X57459Y-40497D02*
X57377Y-40480D01*
X57377Y-40480D02*
X57300Y-40446D01*
X57300Y-40446D02*
X57233Y-40397D01*
X57233Y-40397D02*
X57177Y-40335D01*
X57177Y-40335D02*
X57135Y-40262D01*
X57135Y-40262D02*
X57109Y-40183D01*
X57109Y-40183D02*
X57100Y-40100D01*
X57100Y-40100D02*
X57109Y-40017D01*
X57109Y-40017D02*
X57135Y-39938D01*
X57135Y-39938D02*
X57177Y-39865D01*
X57177Y-39865D02*
X57233Y-39803D01*
X57233Y-39803D02*
X57300Y-39754D01*
X57300Y-39754D02*
X57377Y-39720D01*
X57377Y-39720D02*
X57459Y-39703D01*
X57459Y-39703D02*
X57541Y-39703D01*
X57541Y-39703D02*
X57623Y-39720D01*
X57623Y-39720D02*
X57700Y-39754D01*
X57700Y-39754D02*
X57767Y-39803D01*
X57767Y-39803D02*
X57823Y-39865D01*
X57823Y-39865D02*
X57865Y-39938D01*
X57865Y-39938D02*
X57891Y-40017D01*
X57891Y-40017D02*
X57900Y-40100D01*
X57900Y-41100D02*
X57891Y-41183D01*
X57891Y-41183D02*
X57865Y-41262D01*
X57865Y-41262D02*
X57823Y-41335D01*
X57823Y-41335D02*
X57767Y-41397D01*
X57767Y-41397D02*
X57700Y-41446D01*
X57700Y-41446D02*
X57623Y-41480D01*
X57623Y-41480D02*
X57541Y-41497D01*
X57541Y-41497D02*
X57459Y-41497D01*
X57459Y-41497D02*
X57377Y-41480D01*
X57377Y-41480D02*
X57300Y-41446D01*
X57300Y-41446D02*
X57233Y-41397D01*
X57233Y-41397D02*
X57177Y-41335D01*
X57177Y-41335D02*
X57135Y-41262D01*
X57135Y-41262D02*
X57109Y-41183D01*
X57109Y-41183D02*
X57100Y-41100D01*
X57100Y-41100D02*
X57109Y-41017D01*
X57109Y-41017D02*
X57135Y-40938D01*
X57135Y-40938D02*
X57177Y-40865D01*
X57177Y-40865D02*
X57233Y-40803D01*
X57233Y-40803D02*
X57300Y-40754D01*
X57300Y-40754D02*
X57377Y-40720D01*
X57377Y-40720D02*
X57459Y-40703D01*
X57459Y-40703D02*
X57541Y-40703D01*
X57541Y-40703D02*
X57623Y-40720D01*
X57623Y-40720D02*
X57700Y-40754D01*
X57700Y-40754D02*
X57767Y-40803D01*
X57767Y-40803D02*
X57823Y-40865D01*
X57823Y-40865D02*
X57865Y-40938D01*
X57865Y-40938D02*
X57891Y-41017D01*
X57891Y-41017D02*
X57900Y-41100D01*
X78750Y-46050D02*
X78050Y-46050D01*
X78050Y-46050D02*
X78050Y-45350D01*
X78050Y-45350D02*
X78750Y-45350D01*
X78750Y-45350D02*
X78750Y-46050D01*
X78750Y-43700D02*
X78742Y-43772D01*
X78742Y-43772D02*
X78719Y-43842D01*
X78719Y-43842D02*
X78683Y-43905D01*
X78683Y-43905D02*
X78634Y-43960D01*
X78634Y-43960D02*
X78575Y-44003D01*
X78575Y-44003D02*
X78508Y-44032D01*
X78508Y-44032D02*
X78436Y-44048D01*
X78436Y-44048D02*
X78364Y-44048D01*
X78364Y-44048D02*
X78292Y-44032D01*
X78292Y-44032D02*
X78225Y-44003D01*
X78225Y-44003D02*
X78166Y-43960D01*
X78166Y-43960D02*
X78117Y-43905D01*
X78117Y-43905D02*
X78081Y-43842D01*
X78081Y-43842D02*
X78058Y-43772D01*
X78058Y-43772D02*
X78050Y-43700D01*
X78050Y-43700D02*
X78058Y-43628D01*
X78058Y-43628D02*
X78081Y-43558D01*
X78081Y-43558D02*
X78117Y-43495D01*
X78117Y-43495D02*
X78166Y-43440D01*
X78166Y-43440D02*
X78225Y-43397D01*
X78225Y-43397D02*
X78292Y-43368D01*
X78292Y-43368D02*
X78364Y-43352D01*
X78364Y-43352D02*
X78436Y-43352D01*
X78436Y-43352D02*
X78508Y-43368D01*
X78508Y-43368D02*
X78575Y-43397D01*
X78575Y-43397D02*
X78634Y-43440D01*
X78634Y-43440D02*
X78683Y-43495D01*
X78683Y-43495D02*
X78719Y-43558D01*
X78719Y-43558D02*
X78742Y-43628D01*
X78742Y-43628D02*
X78750Y-43700D01*
X65350Y-45850D02*
X64650Y-45850D01*
X64650Y-45850D02*
X64650Y-45150D01*
X64650Y-45150D02*
X65350Y-45150D01*
X65350Y-45150D02*
X65350Y-45850D01*
X65350Y-43500D02*
X65342Y-43572D01*
X65342Y-43572D02*
X65319Y-43642D01*
X65319Y-43642D02*
X65283Y-43705D01*
X65283Y-43705D02*
X65234Y-43760D01*
X65234Y-43760D02*
X65175Y-43803D01*
X65175Y-43803D02*
X65108Y-43832D01*
X65108Y-43832D02*
X65036Y-43848D01*
X65036Y-43848D02*
X64964Y-43848D01*
X64964Y-43848D02*
X64892Y-43832D01*
X64892Y-43832D02*
X64825Y-43803D01*
X64825Y-43803D02*
X64766Y-43760D01*
X64766Y-43760D02*
X64717Y-43705D01*
X64717Y-43705D02*
X64681Y-43642D01*
X64681Y-43642D02*
X64658Y-43572D01*
X64658Y-43572D02*
X64650Y-43500D01*
X64650Y-43500D02*
X64658Y-43428D01*
X64658Y-43428D02*
X64681Y-43358D01*
X64681Y-43358D02*
X64717Y-43295D01*
X64717Y-43295D02*
X64766Y-43240D01*
X64766Y-43240D02*
X64825Y-43197D01*
X64825Y-43197D02*
X64892Y-43168D01*
X64892Y-43168D02*
X64964Y-43152D01*
X64964Y-43152D02*
X65036Y-43152D01*
X65036Y-43152D02*
X65108Y-43168D01*
X65108Y-43168D02*
X65175Y-43197D01*
X65175Y-43197D02*
X65234Y-43240D01*
X65234Y-43240D02*
X65283Y-43295D01*
X65283Y-43295D02*
X65319Y-43358D01*
X65319Y-43358D02*
X65342Y-43428D01*
X65342Y-43428D02*
X65350Y-43500D01*
X78850Y-29600D02*
X78842Y-29672D01*
X78842Y-29672D02*
X78819Y-29742D01*
X78819Y-29742D02*
X78783Y-29805D01*
X78783Y-29805D02*
X78734Y-29860D01*
X78734Y-29860D02*
X78675Y-29903D01*
X78675Y-29903D02*
X78608Y-29932D01*
X78608Y-29932D02*
X78536Y-29948D01*
X78536Y-29948D02*
X78464Y-29948D01*
X78464Y-29948D02*
X78392Y-29932D01*
X78392Y-29932D02*
X78325Y-29903D01*
X78325Y-29903D02*
X78266Y-29860D01*
X78266Y-29860D02*
X78217Y-29805D01*
X78217Y-29805D02*
X78181Y-29742D01*
X78181Y-29742D02*
X78158Y-29672D01*
X78158Y-29672D02*
X78150Y-29600D01*
X78150Y-29600D02*
X78158Y-29528D01*
X78158Y-29528D02*
X78181Y-29458D01*
X78181Y-29458D02*
X78217Y-29395D01*
X78217Y-29395D02*
X78266Y-29340D01*
X78266Y-29340D02*
X78325Y-29297D01*
X78325Y-29297D02*
X78392Y-29268D01*
X78392Y-29268D02*
X78464Y-29252D01*
X78464Y-29252D02*
X78536Y-29252D01*
X78536Y-29252D02*
X78608Y-29268D01*
X78608Y-29268D02*
X78675Y-29297D01*
X78675Y-29297D02*
X78734Y-29340D01*
X78734Y-29340D02*
X78783Y-29395D01*
X78783Y-29395D02*
X78819Y-29458D01*
X78819Y-29458D02*
X78842Y-29528D01*
X78842Y-29528D02*
X78850Y-29600D01*
X82150Y-29950D02*
X82150Y-29250D01*
X82150Y-29250D02*
X82850Y-29250D01*
X82850Y-29250D02*
X82850Y-29950D01*
X82850Y-29950D02*
X82150Y-29950D01*
X78850Y-31000D02*
X78842Y-31072D01*
X78842Y-31072D02*
X78819Y-31142D01*
X78819Y-31142D02*
X78783Y-31205D01*
X78783Y-31205D02*
X78734Y-31260D01*
X78734Y-31260D02*
X78675Y-31303D01*
X78675Y-31303D02*
X78608Y-31332D01*
X78608Y-31332D02*
X78536Y-31348D01*
X78536Y-31348D02*
X78464Y-31348D01*
X78464Y-31348D02*
X78392Y-31332D01*
X78392Y-31332D02*
X78325Y-31303D01*
X78325Y-31303D02*
X78266Y-31260D01*
X78266Y-31260D02*
X78217Y-31205D01*
X78217Y-31205D02*
X78181Y-31142D01*
X78181Y-31142D02*
X78158Y-31072D01*
X78158Y-31072D02*
X78150Y-31000D01*
X78150Y-31000D02*
X78158Y-30928D01*
X78158Y-30928D02*
X78181Y-30858D01*
X78181Y-30858D02*
X78217Y-30795D01*
X78217Y-30795D02*
X78266Y-30740D01*
X78266Y-30740D02*
X78325Y-30697D01*
X78325Y-30697D02*
X78392Y-30668D01*
X78392Y-30668D02*
X78464Y-30652D01*
X78464Y-30652D02*
X78536Y-30652D01*
X78536Y-30652D02*
X78608Y-30668D01*
X78608Y-30668D02*
X78675Y-30697D01*
X78675Y-30697D02*
X78734Y-30740D01*
X78734Y-30740D02*
X78783Y-30795D01*
X78783Y-30795D02*
X78819Y-30858D01*
X78819Y-30858D02*
X78842Y-30928D01*
X78842Y-30928D02*
X78850Y-31000D01*
X82150Y-31350D02*
X82150Y-30650D01*
X82150Y-30650D02*
X82850Y-30650D01*
X82850Y-30650D02*
X82850Y-31350D01*
X82850Y-31350D02*
X82150Y-31350D01*
X78850Y-28200D02*
X78842Y-28272D01*
X78842Y-28272D02*
X78819Y-28342D01*
X78819Y-28342D02*
X78783Y-28405D01*
X78783Y-28405D02*
X78734Y-28460D01*
X78734Y-28460D02*
X78675Y-28503D01*
X78675Y-28503D02*
X78608Y-28532D01*
X78608Y-28532D02*
X78536Y-28548D01*
X78536Y-28548D02*
X78464Y-28548D01*
X78464Y-28548D02*
X78392Y-28532D01*
X78392Y-28532D02*
X78325Y-28503D01*
X78325Y-28503D02*
X78266Y-28460D01*
X78266Y-28460D02*
X78217Y-28405D01*
X78217Y-28405D02*
X78181Y-28342D01*
X78181Y-28342D02*
X78158Y-28272D01*
X78158Y-28272D02*
X78150Y-28200D01*
X78150Y-28200D02*
X78158Y-28128D01*
X78158Y-28128D02*
X78181Y-28058D01*
X78181Y-28058D02*
X78217Y-27995D01*
X78217Y-27995D02*
X78266Y-27940D01*
X78266Y-27940D02*
X78325Y-27897D01*
X78325Y-27897D02*
X78392Y-27868D01*
X78392Y-27868D02*
X78464Y-27852D01*
X78464Y-27852D02*
X78536Y-27852D01*
X78536Y-27852D02*
X78608Y-27868D01*
X78608Y-27868D02*
X78675Y-27897D01*
X78675Y-27897D02*
X78734Y-27940D01*
X78734Y-27940D02*
X78783Y-27995D01*
X78783Y-27995D02*
X78819Y-28058D01*
X78819Y-28058D02*
X78842Y-28128D01*
X78842Y-28128D02*
X78850Y-28200D01*
X82150Y-28550D02*
X82150Y-27850D01*
X82150Y-27850D02*
X82850Y-27850D01*
X82850Y-27850D02*
X82850Y-28550D01*
X82850Y-28550D02*
X82150Y-28550D01*
X78850Y-32400D02*
X78842Y-32472D01*
X78842Y-32472D02*
X78819Y-32542D01*
X78819Y-32542D02*
X78783Y-32605D01*
X78783Y-32605D02*
X78734Y-32660D01*
X78734Y-32660D02*
X78675Y-32703D01*
X78675Y-32703D02*
X78608Y-32732D01*
X78608Y-32732D02*
X78536Y-32748D01*
X78536Y-32748D02*
X78464Y-32748D01*
X78464Y-32748D02*
X78392Y-32732D01*
X78392Y-32732D02*
X78325Y-32703D01*
X78325Y-32703D02*
X78266Y-32660D01*
X78266Y-32660D02*
X78217Y-32605D01*
X78217Y-32605D02*
X78181Y-32542D01*
X78181Y-32542D02*
X78158Y-32472D01*
X78158Y-32472D02*
X78150Y-32400D01*
X78150Y-32400D02*
X78158Y-32328D01*
X78158Y-32328D02*
X78181Y-32258D01*
X78181Y-32258D02*
X78217Y-32195D01*
X78217Y-32195D02*
X78266Y-32140D01*
X78266Y-32140D02*
X78325Y-32097D01*
X78325Y-32097D02*
X78392Y-32068D01*
X78392Y-32068D02*
X78464Y-32052D01*
X78464Y-32052D02*
X78536Y-32052D01*
X78536Y-32052D02*
X78608Y-32068D01*
X78608Y-32068D02*
X78675Y-32097D01*
X78675Y-32097D02*
X78734Y-32140D01*
X78734Y-32140D02*
X78783Y-32195D01*
X78783Y-32195D02*
X78819Y-32258D01*
X78819Y-32258D02*
X78842Y-32328D01*
X78842Y-32328D02*
X78850Y-32400D01*
X82150Y-32750D02*
X82150Y-32050D01*
X82150Y-32050D02*
X82850Y-32050D01*
X82850Y-32050D02*
X82850Y-32750D01*
X82850Y-32750D02*
X82150Y-32750D01*
X70650Y-29600D02*
X70642Y-29672D01*
X70642Y-29672D02*
X70619Y-29742D01*
X70619Y-29742D02*
X70583Y-29805D01*
X70583Y-29805D02*
X70534Y-29860D01*
X70534Y-29860D02*
X70475Y-29903D01*
X70475Y-29903D02*
X70408Y-29932D01*
X70408Y-29932D02*
X70336Y-29948D01*
X70336Y-29948D02*
X70264Y-29948D01*
X70264Y-29948D02*
X70192Y-29932D01*
X70192Y-29932D02*
X70125Y-29903D01*
X70125Y-29903D02*
X70066Y-29860D01*
X70066Y-29860D02*
X70017Y-29805D01*
X70017Y-29805D02*
X69981Y-29742D01*
X69981Y-29742D02*
X69958Y-29672D01*
X69958Y-29672D02*
X69950Y-29600D01*
X69950Y-29600D02*
X69958Y-29528D01*
X69958Y-29528D02*
X69981Y-29458D01*
X69981Y-29458D02*
X70017Y-29395D01*
X70017Y-29395D02*
X70066Y-29340D01*
X70066Y-29340D02*
X70125Y-29297D01*
X70125Y-29297D02*
X70192Y-29268D01*
X70192Y-29268D02*
X70264Y-29252D01*
X70264Y-29252D02*
X70336Y-29252D01*
X70336Y-29252D02*
X70408Y-29268D01*
X70408Y-29268D02*
X70475Y-29297D01*
X70475Y-29297D02*
X70534Y-29340D01*
X70534Y-29340D02*
X70583Y-29395D01*
X70583Y-29395D02*
X70619Y-29458D01*
X70619Y-29458D02*
X70642Y-29528D01*
X70642Y-29528D02*
X70650Y-29600D01*
X73950Y-29950D02*
X73950Y-29250D01*
X73950Y-29250D02*
X74650Y-29250D01*
X74650Y-29250D02*
X74650Y-29950D01*
X74650Y-29950D02*
X73950Y-29950D01*
X70650Y-31000D02*
X70642Y-31072D01*
X70642Y-31072D02*
X70619Y-31142D01*
X70619Y-31142D02*
X70583Y-31205D01*
X70583Y-31205D02*
X70534Y-31260D01*
X70534Y-31260D02*
X70475Y-31303D01*
X70475Y-31303D02*
X70408Y-31332D01*
X70408Y-31332D02*
X70336Y-31348D01*
X70336Y-31348D02*
X70264Y-31348D01*
X70264Y-31348D02*
X70192Y-31332D01*
X70192Y-31332D02*
X70125Y-31303D01*
X70125Y-31303D02*
X70066Y-31260D01*
X70066Y-31260D02*
X70017Y-31205D01*
X70017Y-31205D02*
X69981Y-31142D01*
X69981Y-31142D02*
X69958Y-31072D01*
X69958Y-31072D02*
X69950Y-31000D01*
X69950Y-31000D02*
X69958Y-30928D01*
X69958Y-30928D02*
X69981Y-30858D01*
X69981Y-30858D02*
X70017Y-30795D01*
X70017Y-30795D02*
X70066Y-30740D01*
X70066Y-30740D02*
X70125Y-30697D01*
X70125Y-30697D02*
X70192Y-30668D01*
X70192Y-30668D02*
X70264Y-30652D01*
X70264Y-30652D02*
X70336Y-30652D01*
X70336Y-30652D02*
X70408Y-30668D01*
X70408Y-30668D02*
X70475Y-30697D01*
X70475Y-30697D02*
X70534Y-30740D01*
X70534Y-30740D02*
X70583Y-30795D01*
X70583Y-30795D02*
X70619Y-30858D01*
X70619Y-30858D02*
X70642Y-30928D01*
X70642Y-30928D02*
X70650Y-31000D01*
X73950Y-31350D02*
X73950Y-30650D01*
X73950Y-30650D02*
X74650Y-30650D01*
X74650Y-30650D02*
X74650Y-31350D01*
X74650Y-31350D02*
X73950Y-31350D01*
X70650Y-28200D02*
X70642Y-28272D01*
X70642Y-28272D02*
X70619Y-28342D01*
X70619Y-28342D02*
X70583Y-28405D01*
X70583Y-28405D02*
X70534Y-28460D01*
X70534Y-28460D02*
X70475Y-28503D01*
X70475Y-28503D02*
X70408Y-28532D01*
X70408Y-28532D02*
X70336Y-28548D01*
X70336Y-28548D02*
X70264Y-28548D01*
X70264Y-28548D02*
X70192Y-28532D01*
X70192Y-28532D02*
X70125Y-28503D01*
X70125Y-28503D02*
X70066Y-28460D01*
X70066Y-28460D02*
X70017Y-28405D01*
X70017Y-28405D02*
X69981Y-28342D01*
X69981Y-28342D02*
X69958Y-28272D01*
X69958Y-28272D02*
X69950Y-28200D01*
X69950Y-28200D02*
X69958Y-28128D01*
X69958Y-28128D02*
X69981Y-28058D01*
X69981Y-28058D02*
X70017Y-27995D01*
X70017Y-27995D02*
X70066Y-27940D01*
X70066Y-27940D02*
X70125Y-27897D01*
X70125Y-27897D02*
X70192Y-27868D01*
X70192Y-27868D02*
X70264Y-27852D01*
X70264Y-27852D02*
X70336Y-27852D01*
X70336Y-27852D02*
X70408Y-27868D01*
X70408Y-27868D02*
X70475Y-27897D01*
X70475Y-27897D02*
X70534Y-27940D01*
X70534Y-27940D02*
X70583Y-27995D01*
X70583Y-27995D02*
X70619Y-28058D01*
X70619Y-28058D02*
X70642Y-28128D01*
X70642Y-28128D02*
X70650Y-28200D01*
X73950Y-28550D02*
X73950Y-27850D01*
X73950Y-27850D02*
X74650Y-27850D01*
X74650Y-27850D02*
X74650Y-28550D01*
X74650Y-28550D02*
X73950Y-28550D01*
X70650Y-32400D02*
X70642Y-32472D01*
X70642Y-32472D02*
X70619Y-32542D01*
X70619Y-32542D02*
X70583Y-32605D01*
X70583Y-32605D02*
X70534Y-32660D01*
X70534Y-32660D02*
X70475Y-32703D01*
X70475Y-32703D02*
X70408Y-32732D01*
X70408Y-32732D02*
X70336Y-32748D01*
X70336Y-32748D02*
X70264Y-32748D01*
X70264Y-32748D02*
X70192Y-32732D01*
X70192Y-32732D02*
X70125Y-32703D01*
X70125Y-32703D02*
X70066Y-32660D01*
X70066Y-32660D02*
X70017Y-32605D01*
X70017Y-32605D02*
X69981Y-32542D01*
X69981Y-32542D02*
X69958Y-32472D01*
X69958Y-32472D02*
X69950Y-32400D01*
X69950Y-32400D02*
X69958Y-32328D01*
X69958Y-32328D02*
X69981Y-32258D01*
X69981Y-32258D02*
X70017Y-32195D01*
X70017Y-32195D02*
X70066Y-32140D01*
X70066Y-32140D02*
X70125Y-32097D01*
X70125Y-32097D02*
X70192Y-32068D01*
X70192Y-32068D02*
X70264Y-32052D01*
X70264Y-32052D02*
X70336Y-32052D01*
X70336Y-32052D02*
X70408Y-32068D01*
X70408Y-32068D02*
X70475Y-32097D01*
X70475Y-32097D02*
X70534Y-32140D01*
X70534Y-32140D02*
X70583Y-32195D01*
X70583Y-32195D02*
X70619Y-32258D01*
X70619Y-32258D02*
X70642Y-32328D01*
X70642Y-32328D02*
X70650Y-32400D01*
X73950Y-32750D02*
X73950Y-32050D01*
X73950Y-32050D02*
X74650Y-32050D01*
X74650Y-32050D02*
X74650Y-32750D01*
X74650Y-32750D02*
X73950Y-32750D01*
X81125Y-40725D02*
X81675Y-40725D01*
X81675Y-40725D02*
X81675Y-41275D01*
X81675Y-41275D02*
X81125Y-41275D01*
X81125Y-41275D02*
X81125Y-40725D01*
X81675Y-42000D02*
X81668Y-42057D01*
X81668Y-42057D02*
X81651Y-42111D01*
X81651Y-42111D02*
X81622Y-42161D01*
X81622Y-42161D02*
X81584Y-42204D01*
X81584Y-42204D02*
X81537Y-42238D01*
X81537Y-42238D02*
X81484Y-42261D01*
X81484Y-42261D02*
X81428Y-42273D01*
X81428Y-42273D02*
X81372Y-42273D01*
X81372Y-42273D02*
X81316Y-42261D01*
X81316Y-42261D02*
X81263Y-42238D01*
X81263Y-42238D02*
X81216Y-42204D01*
X81216Y-42204D02*
X81178Y-42161D01*
X81178Y-42161D02*
X81149Y-42111D01*
X81149Y-42111D02*
X81132Y-42057D01*
X81132Y-42057D02*
X81125Y-42000D01*
X81125Y-42000D02*
X81132Y-41943D01*
X81132Y-41943D02*
X81149Y-41889D01*
X81149Y-41889D02*
X81178Y-41839D01*
X81178Y-41839D02*
X81216Y-41796D01*
X81216Y-41796D02*
X81263Y-41762D01*
X81263Y-41762D02*
X81316Y-41739D01*
X81316Y-41739D02*
X81372Y-41727D01*
X81372Y-41727D02*
X81428Y-41727D01*
X81428Y-41727D02*
X81484Y-41739D01*
X81484Y-41739D02*
X81537Y-41762D01*
X81537Y-41762D02*
X81584Y-41796D01*
X81584Y-41796D02*
X81622Y-41839D01*
X81622Y-41839D02*
X81651Y-41889D01*
X81651Y-41889D02*
X81668Y-41943D01*
X81668Y-41943D02*
X81675Y-42000D01*
X76425Y-23975D02*
X76425Y-23425D01*
X76425Y-23425D02*
X76975Y-23425D01*
X76975Y-23425D02*
X76975Y-23975D01*
X76975Y-23975D02*
X76425Y-23975D01*
X77975Y-23700D02*
X77968Y-23757D01*
X77968Y-23757D02*
X77951Y-23811D01*
X77951Y-23811D02*
X77922Y-23861D01*
X77922Y-23861D02*
X77884Y-23904D01*
X77884Y-23904D02*
X77837Y-23938D01*
X77837Y-23938D02*
X77784Y-23961D01*
X77784Y-23961D02*
X77728Y-23973D01*
X77728Y-23973D02*
X77672Y-23973D01*
X77672Y-23973D02*
X77616Y-23961D01*
X77616Y-23961D02*
X77563Y-23938D01*
X77563Y-23938D02*
X77516Y-23904D01*
X77516Y-23904D02*
X77478Y-23861D01*
X77478Y-23861D02*
X77449Y-23811D01*
X77449Y-23811D02*
X77432Y-23757D01*
X77432Y-23757D02*
X77425Y-23700D01*
X77425Y-23700D02*
X77432Y-23643D01*
X77432Y-23643D02*
X77449Y-23589D01*
X77449Y-23589D02*
X77478Y-23539D01*
X77478Y-23539D02*
X77516Y-23496D01*
X77516Y-23496D02*
X77563Y-23462D01*
X77563Y-23462D02*
X77616Y-23439D01*
X77616Y-23439D02*
X77672Y-23427D01*
X77672Y-23427D02*
X77728Y-23427D01*
X77728Y-23427D02*
X77784Y-23439D01*
X77784Y-23439D02*
X77837Y-23462D01*
X77837Y-23462D02*
X77884Y-23496D01*
X77884Y-23496D02*
X77922Y-23539D01*
X77922Y-23539D02*
X77951Y-23589D01*
X77951Y-23589D02*
X77968Y-23643D01*
X77968Y-23643D02*
X77975Y-23700D01*
X78975Y-23700D02*
X78968Y-23757D01*
X78968Y-23757D02*
X78951Y-23811D01*
X78951Y-23811D02*
X78922Y-23861D01*
X78922Y-23861D02*
X78884Y-23904D01*
X78884Y-23904D02*
X78837Y-23938D01*
X78837Y-23938D02*
X78784Y-23961D01*
X78784Y-23961D02*
X78728Y-23973D01*
X78728Y-23973D02*
X78672Y-23973D01*
X78672Y-23973D02*
X78616Y-23961D01*
X78616Y-23961D02*
X78563Y-23938D01*
X78563Y-23938D02*
X78516Y-23904D01*
X78516Y-23904D02*
X78478Y-23861D01*
X78478Y-23861D02*
X78449Y-23811D01*
X78449Y-23811D02*
X78432Y-23757D01*
X78432Y-23757D02*
X78425Y-23700D01*
X78425Y-23700D02*
X78432Y-23643D01*
X78432Y-23643D02*
X78449Y-23589D01*
X78449Y-23589D02*
X78478Y-23539D01*
X78478Y-23539D02*
X78516Y-23496D01*
X78516Y-23496D02*
X78563Y-23462D01*
X78563Y-23462D02*
X78616Y-23439D01*
X78616Y-23439D02*
X78672Y-23427D01*
X78672Y-23427D02*
X78728Y-23427D01*
X78728Y-23427D02*
X78784Y-23439D01*
X78784Y-23439D02*
X78837Y-23462D01*
X78837Y-23462D02*
X78884Y-23496D01*
X78884Y-23496D02*
X78922Y-23539D01*
X78922Y-23539D02*
X78951Y-23589D01*
X78951Y-23589D02*
X78968Y-23643D01*
X78968Y-23643D02*
X78975Y-23700D01*
X79975Y-23700D02*
X79968Y-23757D01*
X79968Y-23757D02*
X79951Y-23811D01*
X79951Y-23811D02*
X79922Y-23861D01*
X79922Y-23861D02*
X79884Y-23904D01*
X79884Y-23904D02*
X79837Y-23938D01*
X79837Y-23938D02*
X79784Y-23961D01*
X79784Y-23961D02*
X79728Y-23973D01*
X79728Y-23973D02*
X79672Y-23973D01*
X79672Y-23973D02*
X79616Y-23961D01*
X79616Y-23961D02*
X79563Y-23938D01*
X79563Y-23938D02*
X79516Y-23904D01*
X79516Y-23904D02*
X79478Y-23861D01*
X79478Y-23861D02*
X79449Y-23811D01*
X79449Y-23811D02*
X79432Y-23757D01*
X79432Y-23757D02*
X79425Y-23700D01*
X79425Y-23700D02*
X79432Y-23643D01*
X79432Y-23643D02*
X79449Y-23589D01*
X79449Y-23589D02*
X79478Y-23539D01*
X79478Y-23539D02*
X79516Y-23496D01*
X79516Y-23496D02*
X79563Y-23462D01*
X79563Y-23462D02*
X79616Y-23439D01*
X79616Y-23439D02*
X79672Y-23427D01*
X79672Y-23427D02*
X79728Y-23427D01*
X79728Y-23427D02*
X79784Y-23439D01*
X79784Y-23439D02*
X79837Y-23462D01*
X79837Y-23462D02*
X79884Y-23496D01*
X79884Y-23496D02*
X79922Y-23539D01*
X79922Y-23539D02*
X79951Y-23589D01*
X79951Y-23589D02*
X79968Y-23643D01*
X79968Y-23643D02*
X79975Y-23700D01*
X68925Y-45325D02*
X69475Y-45325D01*
X69475Y-45325D02*
X69475Y-45875D01*
X69475Y-45875D02*
X68925Y-45875D01*
X68925Y-45875D02*
X68925Y-45325D01*
X69475Y-44600D02*
X69468Y-44657D01*
X69468Y-44657D02*
X69451Y-44711D01*
X69451Y-44711D02*
X69422Y-44761D01*
X69422Y-44761D02*
X69384Y-44804D01*
X69384Y-44804D02*
X69337Y-44838D01*
X69337Y-44838D02*
X69284Y-44861D01*
X69284Y-44861D02*
X69228Y-44873D01*
X69228Y-44873D02*
X69172Y-44873D01*
X69172Y-44873D02*
X69116Y-44861D01*
X69116Y-44861D02*
X69063Y-44838D01*
X69063Y-44838D02*
X69016Y-44804D01*
X69016Y-44804D02*
X68978Y-44761D01*
X68978Y-44761D02*
X68949Y-44711D01*
X68949Y-44711D02*
X68932Y-44657D01*
X68932Y-44657D02*
X68925Y-44600D01*
X68925Y-44600D02*
X68932Y-44543D01*
X68932Y-44543D02*
X68949Y-44489D01*
X68949Y-44489D02*
X68978Y-44439D01*
X68978Y-44439D02*
X69016Y-44396D01*
X69016Y-44396D02*
X69063Y-44362D01*
X69063Y-44362D02*
X69116Y-44339D01*
X69116Y-44339D02*
X69172Y-44327D01*
X69172Y-44327D02*
X69228Y-44327D01*
X69228Y-44327D02*
X69284Y-44339D01*
X69284Y-44339D02*
X69337Y-44362D01*
X69337Y-44362D02*
X69384Y-44396D01*
X69384Y-44396D02*
X69422Y-44439D01*
X69422Y-44439D02*
X69451Y-44489D01*
X69451Y-44489D02*
X69468Y-44543D01*
X69468Y-44543D02*
X69475Y-44600D01*
X68475Y-44600D02*
X68468Y-44657D01*
X68468Y-44657D02*
X68451Y-44711D01*
X68451Y-44711D02*
X68422Y-44761D01*
X68422Y-44761D02*
X68384Y-44804D01*
X68384Y-44804D02*
X68337Y-44838D01*
X68337Y-44838D02*
X68284Y-44861D01*
X68284Y-44861D02*
X68228Y-44873D01*
X68228Y-44873D02*
X68172Y-44873D01*
X68172Y-44873D02*
X68116Y-44861D01*
X68116Y-44861D02*
X68063Y-44838D01*
X68063Y-44838D02*
X68016Y-44804D01*
X68016Y-44804D02*
X67978Y-44761D01*
X67978Y-44761D02*
X67949Y-44711D01*
X67949Y-44711D02*
X67932Y-44657D01*
X67932Y-44657D02*
X67925Y-44600D01*
X67925Y-44600D02*
X67932Y-44543D01*
X67932Y-44543D02*
X67949Y-44489D01*
X67949Y-44489D02*
X67978Y-44439D01*
X67978Y-44439D02*
X68016Y-44396D01*
X68016Y-44396D02*
X68063Y-44362D01*
X68063Y-44362D02*
X68116Y-44339D01*
X68116Y-44339D02*
X68172Y-44327D01*
X68172Y-44327D02*
X68228Y-44327D01*
X68228Y-44327D02*
X68284Y-44339D01*
X68284Y-44339D02*
X68337Y-44362D01*
X68337Y-44362D02*
X68384Y-44396D01*
X68384Y-44396D02*
X68422Y-44439D01*
X68422Y-44439D02*
X68451Y-44489D01*
X68451Y-44489D02*
X68468Y-44543D01*
X68468Y-44543D02*
X68475Y-44600D01*
X78975Y-25000D02*
X78968Y-25057D01*
X78968Y-25057D02*
X78951Y-25111D01*
X78951Y-25111D02*
X78922Y-25161D01*
X78922Y-25161D02*
X78884Y-25204D01*
X78884Y-25204D02*
X78837Y-25238D01*
X78837Y-25238D02*
X78784Y-25261D01*
X78784Y-25261D02*
X78728Y-25273D01*
X78728Y-25273D02*
X78672Y-25273D01*
X78672Y-25273D02*
X78616Y-25261D01*
X78616Y-25261D02*
X78563Y-25238D01*
X78563Y-25238D02*
X78516Y-25204D01*
X78516Y-25204D02*
X78478Y-25161D01*
X78478Y-25161D02*
X78449Y-25111D01*
X78449Y-25111D02*
X78432Y-25057D01*
X78432Y-25057D02*
X78425Y-25000D01*
X78425Y-25000D02*
X78432Y-24943D01*
X78432Y-24943D02*
X78449Y-24889D01*
X78449Y-24889D02*
X78478Y-24839D01*
X78478Y-24839D02*
X78516Y-24796D01*
X78516Y-24796D02*
X78563Y-24762D01*
X78563Y-24762D02*
X78616Y-24739D01*
X78616Y-24739D02*
X78672Y-24727D01*
X78672Y-24727D02*
X78728Y-24727D01*
X78728Y-24727D02*
X78784Y-24739D01*
X78784Y-24739D02*
X78837Y-24762D01*
X78837Y-24762D02*
X78884Y-24796D01*
X78884Y-24796D02*
X78922Y-24839D01*
X78922Y-24839D02*
X78951Y-24889D01*
X78951Y-24889D02*
X78968Y-24943D01*
X78968Y-24943D02*
X78975Y-25000D01*
X80975Y-25000D02*
X80968Y-25057D01*
X80968Y-25057D02*
X80951Y-25111D01*
X80951Y-25111D02*
X80922Y-25161D01*
X80922Y-25161D02*
X80884Y-25204D01*
X80884Y-25204D02*
X80837Y-25238D01*
X80837Y-25238D02*
X80784Y-25261D01*
X80784Y-25261D02*
X80728Y-25273D01*
X80728Y-25273D02*
X80672Y-25273D01*
X80672Y-25273D02*
X80616Y-25261D01*
X80616Y-25261D02*
X80563Y-25238D01*
X80563Y-25238D02*
X80516Y-25204D01*
X80516Y-25204D02*
X80478Y-25161D01*
X80478Y-25161D02*
X80449Y-25111D01*
X80449Y-25111D02*
X80432Y-25057D01*
X80432Y-25057D02*
X80425Y-25000D01*
X80425Y-25000D02*
X80432Y-24943D01*
X80432Y-24943D02*
X80449Y-24889D01*
X80449Y-24889D02*
X80478Y-24839D01*
X80478Y-24839D02*
X80516Y-24796D01*
X80516Y-24796D02*
X80563Y-24762D01*
X80563Y-24762D02*
X80616Y-24739D01*
X80616Y-24739D02*
X80672Y-24727D01*
X80672Y-24727D02*
X80728Y-24727D01*
X80728Y-24727D02*
X80784Y-24739D01*
X80784Y-24739D02*
X80837Y-24762D01*
X80837Y-24762D02*
X80884Y-24796D01*
X80884Y-24796D02*
X80922Y-24839D01*
X80922Y-24839D02*
X80951Y-24889D01*
X80951Y-24889D02*
X80968Y-24943D01*
X80968Y-24943D02*
X80975Y-25000D01*
X75975Y-25000D02*
X75968Y-25057D01*
X75968Y-25057D02*
X75951Y-25111D01*
X75951Y-25111D02*
X75922Y-25161D01*
X75922Y-25161D02*
X75884Y-25204D01*
X75884Y-25204D02*
X75837Y-25238D01*
X75837Y-25238D02*
X75784Y-25261D01*
X75784Y-25261D02*
X75728Y-25273D01*
X75728Y-25273D02*
X75672Y-25273D01*
X75672Y-25273D02*
X75616Y-25261D01*
X75616Y-25261D02*
X75563Y-25238D01*
X75563Y-25238D02*
X75516Y-25204D01*
X75516Y-25204D02*
X75478Y-25161D01*
X75478Y-25161D02*
X75449Y-25111D01*
X75449Y-25111D02*
X75432Y-25057D01*
X75432Y-25057D02*
X75425Y-25000D01*
X75425Y-25000D02*
X75432Y-24943D01*
X75432Y-24943D02*
X75449Y-24889D01*
X75449Y-24889D02*
X75478Y-24839D01*
X75478Y-24839D02*
X75516Y-24796D01*
X75516Y-24796D02*
X75563Y-24762D01*
X75563Y-24762D02*
X75616Y-24739D01*
X75616Y-24739D02*
X75672Y-24727D01*
X75672Y-24727D02*
X75728Y-24727D01*
X75728Y-24727D02*
X75784Y-24739D01*
X75784Y-24739D02*
X75837Y-24762D01*
X75837Y-24762D02*
X75884Y-24796D01*
X75884Y-24796D02*
X75922Y-24839D01*
X75922Y-24839D02*
X75951Y-24889D01*
X75951Y-24889D02*
X75968Y-24943D01*
X75968Y-24943D02*
X75975Y-25000D01*
X77975Y-25000D02*
X77968Y-25057D01*
X77968Y-25057D02*
X77951Y-25111D01*
X77951Y-25111D02*
X77922Y-25161D01*
X77922Y-25161D02*
X77884Y-25204D01*
X77884Y-25204D02*
X77837Y-25238D01*
X77837Y-25238D02*
X77784Y-25261D01*
X77784Y-25261D02*
X77728Y-25273D01*
X77728Y-25273D02*
X77672Y-25273D01*
X77672Y-25273D02*
X77616Y-25261D01*
X77616Y-25261D02*
X77563Y-25238D01*
X77563Y-25238D02*
X77516Y-25204D01*
X77516Y-25204D02*
X77478Y-25161D01*
X77478Y-25161D02*
X77449Y-25111D01*
X77449Y-25111D02*
X77432Y-25057D01*
X77432Y-25057D02*
X77425Y-25000D01*
X77425Y-25000D02*
X77432Y-24943D01*
X77432Y-24943D02*
X77449Y-24889D01*
X77449Y-24889D02*
X77478Y-24839D01*
X77478Y-24839D02*
X77516Y-24796D01*
X77516Y-24796D02*
X77563Y-24762D01*
X77563Y-24762D02*
X77616Y-24739D01*
X77616Y-24739D02*
X77672Y-24727D01*
X77672Y-24727D02*
X77728Y-24727D01*
X77728Y-24727D02*
X77784Y-24739D01*
X77784Y-24739D02*
X77837Y-24762D01*
X77837Y-24762D02*
X77884Y-24796D01*
X77884Y-24796D02*
X77922Y-24839D01*
X77922Y-24839D02*
X77951Y-24889D01*
X77951Y-24889D02*
X77968Y-24943D01*
X77968Y-24943D02*
X77975Y-25000D01*
G54D25*
X51375Y-44503D02*
X50825Y-44503D01*
X50825Y-44503D02*
X50825Y-44128D01*
X50825Y-44128D02*
X50887Y-44065D01*
X50887Y-44065D02*
X51070Y-44065D01*
X51070Y-44065D02*
X51131Y-44128D01*
X51131Y-44128D02*
X51131Y-44503D01*
X51131Y-44315D02*
X51375Y-44065D01*
X50887Y-43430D02*
X50825Y-43493D01*
X50825Y-43493D02*
X50825Y-43805D01*
X50825Y-43805D02*
X50887Y-43868D01*
X50887Y-43868D02*
X51314Y-43868D01*
X51314Y-43868D02*
X51375Y-43805D01*
X51375Y-43805D02*
X51375Y-43493D01*
X51375Y-43493D02*
X51314Y-43430D01*
X51314Y-43430D02*
X51131Y-43430D01*
X51131Y-43430D02*
X51070Y-43493D01*
X51070Y-43493D02*
X51070Y-43805D01*
X51070Y-43805D02*
X51131Y-43868D01*
X51375Y-39303D02*
X50825Y-39303D01*
X50825Y-39303D02*
X50825Y-38928D01*
X50825Y-38928D02*
X50887Y-38865D01*
X50887Y-38865D02*
X51070Y-38865D01*
X51070Y-38865D02*
X51131Y-38928D01*
X51131Y-38928D02*
X51131Y-39303D01*
X51131Y-39115D02*
X51375Y-38865D01*
X51375Y-38605D02*
X51375Y-38293D01*
X51375Y-38293D02*
X51314Y-38230D01*
X51314Y-38230D02*
X50887Y-38230D01*
X50887Y-38230D02*
X50825Y-38293D01*
X50825Y-38293D02*
X50825Y-38605D01*
X50825Y-38605D02*
X50887Y-38668D01*
X50887Y-38668D02*
X51070Y-38668D01*
X51070Y-38668D02*
X51131Y-38605D01*
X51131Y-38605D02*
X51131Y-38293D01*
X51131Y-38293D02*
X51070Y-38230D01*
X51375Y-34303D02*
X50825Y-34303D01*
X50825Y-34303D02*
X50825Y-33928D01*
X50825Y-33928D02*
X50887Y-33865D01*
X50887Y-33865D02*
X51070Y-33865D01*
X51070Y-33865D02*
X51131Y-33928D01*
X51131Y-33928D02*
X51131Y-34303D01*
X51131Y-34115D02*
X51375Y-33865D01*
X51253Y-33668D02*
X51314Y-33668D01*
X51314Y-33668D02*
X51375Y-33605D01*
X51375Y-33605D02*
X51375Y-33293D01*
X51375Y-33293D02*
X51314Y-33230D01*
X51314Y-33230D02*
X51131Y-33230D01*
X51131Y-33230D02*
X51009Y-33355D01*
X51009Y-33355D02*
X51009Y-33668D01*
X51009Y-33668D02*
X50825Y-33668D01*
X50825Y-33668D02*
X50825Y-33230D01*
X47984Y-43916D02*
X47517Y-43916D01*
X47517Y-43916D02*
X47450Y-43866D01*
X47450Y-43866D02*
X47450Y-43616D01*
X47450Y-43616D02*
X47517Y-43566D01*
X47517Y-43566D02*
X47984Y-43566D01*
X47984Y-43566D02*
X48050Y-43616D01*
X48050Y-43616D02*
X48050Y-43866D01*
X48050Y-43866D02*
X47984Y-43916D01*
X47784Y-43666D02*
X48050Y-43566D01*
X47450Y-43392D02*
X47450Y-43042D01*
X47450Y-43042D02*
X47517Y-43042D01*
X47517Y-43042D02*
X47717Y-43242D01*
X47717Y-43242D02*
X47717Y-43092D01*
X47717Y-43092D02*
X47784Y-43042D01*
X47784Y-43042D02*
X47984Y-43042D01*
X47984Y-43042D02*
X48050Y-43092D01*
X48050Y-43092D02*
X48050Y-43342D01*
X48050Y-43342D02*
X47984Y-43392D01*
X47786Y-40700D02*
X48186Y-40700D01*
X47986Y-40700D02*
X47986Y-41300D01*
X48360Y-41300D02*
X48560Y-41300D01*
X48460Y-41300D02*
X48460Y-40700D01*
X48360Y-40700D02*
X48560Y-40700D01*
X48834Y-41300D02*
X48834Y-40700D01*
X48834Y-40700D02*
X49134Y-40700D01*
X49134Y-40700D02*
X49184Y-40767D01*
X49184Y-40767D02*
X49184Y-40967D01*
X49184Y-40967D02*
X49134Y-41034D01*
X49134Y-41034D02*
X48834Y-41034D01*
X49458Y-41300D02*
X49658Y-41300D01*
X49558Y-41300D02*
X49558Y-40700D01*
X49558Y-40767D02*
X49458Y-40900D01*
X49982Y-41300D02*
X50182Y-41300D01*
X50082Y-41300D02*
X50082Y-40700D01*
X50082Y-40767D02*
X49982Y-40900D01*
X50406Y-41300D02*
X50756Y-40700D01*
X50406Y-41234D02*
X50406Y-40767D01*
X50406Y-40767D02*
X50456Y-40700D01*
X50456Y-40700D02*
X50706Y-40700D01*
X50706Y-40700D02*
X50756Y-40767D01*
X50756Y-40767D02*
X50756Y-41234D01*
X50756Y-41234D02*
X50706Y-41300D01*
X50706Y-41300D02*
X50456Y-41300D01*
X50456Y-41300D02*
X50406Y-41234D01*
G54D23*
X45840Y-44476D02*
X45159Y-44476D01*
X45159Y-44476D02*
X45159Y-44155D01*
X45159Y-44155D02*
X45235Y-44101D01*
X45235Y-44101D02*
X45462Y-44101D01*
X45462Y-44101D02*
X45538Y-44155D01*
X45538Y-44155D02*
X45538Y-44476D01*
X45159Y-43881D02*
X45159Y-43506D01*
X45159Y-43506D02*
X45840Y-43881D01*
G54D25*
X47984Y-38716D02*
X47517Y-38716D01*
X47517Y-38716D02*
X47450Y-38666D01*
X47450Y-38666D02*
X47450Y-38416D01*
X47450Y-38416D02*
X47517Y-38366D01*
X47517Y-38366D02*
X47984Y-38366D01*
X47984Y-38366D02*
X48050Y-38416D01*
X48050Y-38416D02*
X48050Y-38666D01*
X48050Y-38666D02*
X47984Y-38716D01*
X47784Y-38466D02*
X48050Y-38366D01*
X48050Y-37842D02*
X48050Y-38192D01*
X48050Y-38192D02*
X47850Y-38192D01*
X47850Y-38192D02*
X47784Y-38142D01*
X47784Y-38142D02*
X47784Y-37892D01*
X47784Y-37892D02*
X47717Y-37842D01*
X47717Y-37842D02*
X47517Y-37842D01*
X47517Y-37842D02*
X47450Y-37892D01*
X47450Y-37892D02*
X47450Y-38142D01*
X47450Y-38142D02*
X47517Y-38192D01*
X47786Y-35500D02*
X48186Y-35500D01*
X47986Y-35500D02*
X47986Y-36100D01*
X48360Y-36100D02*
X48560Y-36100D01*
X48460Y-36100D02*
X48460Y-35500D01*
X48360Y-35500D02*
X48560Y-35500D01*
X48834Y-36100D02*
X48834Y-35500D01*
X48834Y-35500D02*
X49134Y-35500D01*
X49134Y-35500D02*
X49184Y-35567D01*
X49184Y-35567D02*
X49184Y-35767D01*
X49184Y-35767D02*
X49134Y-35834D01*
X49134Y-35834D02*
X48834Y-35834D01*
X49458Y-36100D02*
X49658Y-36100D01*
X49558Y-36100D02*
X49558Y-35500D01*
X49558Y-35567D02*
X49458Y-35700D01*
X49982Y-36100D02*
X50182Y-36100D01*
X50082Y-36100D02*
X50082Y-35500D01*
X50082Y-35567D02*
X49982Y-35700D01*
X50406Y-36100D02*
X50756Y-35500D01*
X50406Y-36034D02*
X50406Y-35567D01*
X50406Y-35567D02*
X50456Y-35500D01*
X50456Y-35500D02*
X50706Y-35500D01*
X50706Y-35500D02*
X50756Y-35567D01*
X50756Y-35567D02*
X50756Y-36034D01*
X50756Y-36034D02*
X50706Y-36100D01*
X50706Y-36100D02*
X50456Y-36100D01*
X50456Y-36100D02*
X50406Y-36034D01*
G54D23*
X45840Y-39276D02*
X45159Y-39276D01*
X45159Y-39276D02*
X45159Y-38955D01*
X45159Y-38955D02*
X45235Y-38901D01*
X45235Y-38901D02*
X45462Y-38901D01*
X45462Y-38901D02*
X45538Y-38955D01*
X45538Y-38955D02*
X45538Y-39276D01*
X45235Y-38306D02*
X45159Y-38360D01*
X45159Y-38360D02*
X45159Y-38627D01*
X45159Y-38627D02*
X45235Y-38681D01*
X45235Y-38681D02*
X45765Y-38681D01*
X45765Y-38681D02*
X45840Y-38627D01*
X45840Y-38627D02*
X45840Y-38360D01*
X45840Y-38360D02*
X45765Y-38306D01*
X45765Y-38306D02*
X45538Y-38306D01*
X45538Y-38306D02*
X45462Y-38360D01*
X45462Y-38360D02*
X45462Y-38627D01*
X45462Y-38627D02*
X45538Y-38681D01*
G54D25*
X47984Y-33716D02*
X47517Y-33716D01*
X47517Y-33716D02*
X47450Y-33666D01*
X47450Y-33666D02*
X47450Y-33416D01*
X47450Y-33416D02*
X47517Y-33366D01*
X47517Y-33366D02*
X47984Y-33366D01*
X47984Y-33366D02*
X48050Y-33416D01*
X48050Y-33416D02*
X48050Y-33666D01*
X48050Y-33666D02*
X47984Y-33716D01*
X47784Y-33466D02*
X48050Y-33366D01*
X48050Y-33092D02*
X48050Y-32892D01*
X48050Y-32992D02*
X47450Y-32992D01*
X47517Y-32992D02*
X47650Y-33092D01*
X47786Y-30500D02*
X48186Y-30500D01*
X47986Y-30500D02*
X47986Y-31100D01*
X48360Y-31100D02*
X48560Y-31100D01*
X48460Y-31100D02*
X48460Y-30500D01*
X48360Y-30500D02*
X48560Y-30500D01*
X48834Y-31100D02*
X48834Y-30500D01*
X48834Y-30500D02*
X49134Y-30500D01*
X49134Y-30500D02*
X49184Y-30567D01*
X49184Y-30567D02*
X49184Y-30767D01*
X49184Y-30767D02*
X49134Y-30834D01*
X49134Y-30834D02*
X48834Y-30834D01*
X49458Y-31100D02*
X49658Y-31100D01*
X49558Y-31100D02*
X49558Y-30500D01*
X49558Y-30567D02*
X49458Y-30700D01*
X49982Y-31100D02*
X50182Y-31100D01*
X50082Y-31100D02*
X50082Y-30500D01*
X50082Y-30567D02*
X49982Y-30700D01*
X50406Y-31100D02*
X50756Y-30500D01*
X50406Y-31034D02*
X50406Y-30567D01*
X50406Y-30567D02*
X50456Y-30500D01*
X50456Y-30500D02*
X50706Y-30500D01*
X50706Y-30500D02*
X50756Y-30567D01*
X50756Y-30567D02*
X50756Y-31034D01*
X50756Y-31034D02*
X50706Y-31100D01*
X50706Y-31100D02*
X50456Y-31100D01*
X50456Y-31100D02*
X50406Y-31034D01*
G54D23*
X45840Y-34276D02*
X45159Y-34276D01*
X45159Y-34276D02*
X45159Y-33955D01*
X45159Y-33955D02*
X45235Y-33901D01*
X45235Y-33901D02*
X45462Y-33901D01*
X45462Y-33901D02*
X45538Y-33955D01*
X45538Y-33955D02*
X45538Y-34276D01*
X45840Y-33413D02*
X45159Y-33413D01*
X45159Y-33413D02*
X45689Y-33681D01*
X45689Y-33681D02*
X45689Y-33306D01*
X49758Y-25900D02*
X49758Y-25300D01*
X49683Y-25300D02*
X50133Y-25300D01*
X50133Y-25300D02*
X50208Y-25367D01*
X50208Y-25367D02*
X50208Y-25834D01*
X50208Y-25834D02*
X50133Y-25900D01*
X50133Y-25900D02*
X49683Y-25900D01*
X50619Y-25900D02*
X50919Y-25900D01*
X50769Y-25900D02*
X50769Y-25300D01*
X50769Y-25367D02*
X50619Y-25500D01*
X51255Y-25900D02*
X51780Y-25300D01*
X51255Y-25834D02*
X51255Y-25367D01*
X51255Y-25367D02*
X51330Y-25300D01*
X51330Y-25300D02*
X51705Y-25300D01*
X51705Y-25300D02*
X51780Y-25367D01*
X51780Y-25367D02*
X51780Y-25834D01*
X51780Y-25834D02*
X51705Y-25900D01*
X51705Y-25900D02*
X51330Y-25900D01*
X51330Y-25900D02*
X51255Y-25834D01*
G54D25*
X48880Y-26075D02*
X48880Y-25525D01*
X48880Y-25525D02*
X49255Y-25525D01*
X49255Y-25525D02*
X49318Y-25587D01*
X49318Y-25587D02*
X49318Y-25770D01*
X49318Y-25770D02*
X49255Y-25831D01*
X49255Y-25831D02*
X48880Y-25831D01*
X49068Y-25831D02*
X49318Y-26075D01*
X49640Y-26075D02*
X49890Y-26075D01*
X49765Y-26075D02*
X49765Y-25525D01*
X49765Y-25587D02*
X49640Y-25709D01*
X50588Y-26075D02*
X50150Y-26075D01*
X50150Y-26075D02*
X50150Y-25892D01*
X50150Y-25892D02*
X50213Y-25831D01*
X50213Y-25831D02*
X50525Y-25831D01*
X50525Y-25831D02*
X50588Y-25770D01*
X50588Y-25770D02*
X50588Y-25587D01*
X50588Y-25587D02*
X50525Y-25525D01*
X50525Y-25525D02*
X50213Y-25525D01*
X50213Y-25525D02*
X50150Y-25587D01*
G54D23*
X57427Y-25052D02*
X57427Y-24347D01*
X57745Y-24347D02*
X57427Y-24661D01*
X57427Y-24661D02*
X57798Y-25052D01*
X58389Y-25052D02*
X58018Y-25052D01*
X58018Y-25052D02*
X58018Y-24817D01*
X58018Y-24817D02*
X58071Y-24739D01*
X58071Y-24739D02*
X58336Y-24739D01*
X58336Y-24739D02*
X58389Y-24661D01*
X58389Y-24661D02*
X58389Y-24426D01*
X58389Y-24426D02*
X58336Y-24347D01*
X58336Y-24347D02*
X58071Y-24347D01*
X58071Y-24347D02*
X58018Y-24426D01*
G54D25*
X59175Y-27103D02*
X58625Y-27103D01*
X58625Y-27103D02*
X58625Y-26728D01*
X58625Y-26728D02*
X58687Y-26665D01*
X58687Y-26665D02*
X58870Y-26665D01*
X58870Y-26665D02*
X58931Y-26728D01*
X58931Y-26728D02*
X58931Y-27103D01*
X58931Y-26915D02*
X59175Y-26665D01*
X58625Y-26468D02*
X58625Y-26030D01*
X58625Y-26030D02*
X59175Y-26468D01*
X54475Y-27003D02*
X53925Y-27003D01*
X53925Y-27003D02*
X53925Y-26628D01*
X53925Y-26628D02*
X53987Y-26565D01*
X53987Y-26565D02*
X54170Y-26565D01*
X54170Y-26565D02*
X54231Y-26628D01*
X54231Y-26628D02*
X54231Y-27003D01*
X54231Y-26815D02*
X54475Y-26565D01*
X54475Y-25930D02*
X54475Y-26368D01*
X54475Y-26368D02*
X54292Y-26368D01*
X54292Y-26368D02*
X54231Y-26305D01*
X54231Y-26305D02*
X54231Y-25993D01*
X54231Y-25993D02*
X54170Y-25930D01*
X54170Y-25930D02*
X53987Y-25930D01*
X53987Y-25930D02*
X53925Y-25993D01*
X53925Y-25993D02*
X53925Y-26305D01*
X53925Y-26305D02*
X53987Y-26368D01*
X56175Y-27003D02*
X55625Y-27003D01*
X55625Y-27003D02*
X55625Y-26628D01*
X55625Y-26628D02*
X55687Y-26565D01*
X55687Y-26565D02*
X55870Y-26565D01*
X55870Y-26565D02*
X55931Y-26628D01*
X55931Y-26628D02*
X55931Y-27003D01*
X55931Y-26815D02*
X56175Y-26565D01*
X56175Y-26305D02*
X56114Y-26368D01*
X56114Y-26368D02*
X55931Y-26368D01*
X55931Y-26368D02*
X55870Y-26305D01*
X55870Y-26305D02*
X55870Y-25993D01*
X55870Y-25993D02*
X55809Y-25930D01*
X55809Y-25930D02*
X55687Y-25930D01*
X55687Y-25930D02*
X55625Y-25993D01*
X55625Y-25993D02*
X55625Y-26305D01*
X55625Y-26305D02*
X55687Y-26368D01*
X55687Y-26368D02*
X55809Y-26368D01*
X55809Y-26368D02*
X55870Y-26305D01*
X55870Y-25993D02*
X55931Y-25930D01*
X55931Y-25930D02*
X56114Y-25930D01*
X56114Y-25930D02*
X56175Y-25993D01*
X56175Y-25993D02*
X56175Y-26305D01*
G54D23*
X53727Y-25052D02*
X53727Y-24347D01*
X54045Y-24347D02*
X53727Y-24661D01*
X53727Y-24661D02*
X54098Y-25052D01*
X54424Y-25052D02*
X54636Y-25052D01*
X54530Y-25052D02*
X54530Y-24347D01*
X54530Y-24426D02*
X54424Y-24582D01*
G54D25*
X61075Y-28603D02*
X60525Y-28603D01*
X60525Y-28603D02*
X60525Y-28228D01*
X60525Y-28228D02*
X60587Y-28165D01*
X60587Y-28165D02*
X60770Y-28165D01*
X60770Y-28165D02*
X60831Y-28228D01*
X60831Y-28228D02*
X60831Y-28603D01*
X60831Y-28415D02*
X61075Y-28165D01*
X61075Y-27655D02*
X60525Y-27655D01*
X60525Y-27655D02*
X60953Y-27968D01*
X60953Y-27968D02*
X60953Y-27530D01*
X63675Y-28303D02*
X63125Y-28303D01*
X63125Y-28303D02*
X63125Y-27928D01*
X63125Y-27928D02*
X63187Y-27865D01*
X63187Y-27865D02*
X63370Y-27865D01*
X63370Y-27865D02*
X63431Y-27928D01*
X63431Y-27928D02*
X63431Y-28303D01*
X63431Y-28115D02*
X63675Y-27865D01*
X63675Y-27543D02*
X63675Y-27293D01*
X63675Y-27418D02*
X63125Y-27418D01*
X63187Y-27418D02*
X63309Y-27543D01*
G54D23*
X65524Y-23040D02*
X65524Y-22359D01*
X65524Y-22359D02*
X65845Y-22359D01*
X65845Y-22359D02*
X65899Y-22435D01*
X65899Y-22435D02*
X65899Y-22662D01*
X65899Y-22662D02*
X65845Y-22738D01*
X65845Y-22738D02*
X65524Y-22738D01*
X66494Y-23040D02*
X66119Y-23040D01*
X66119Y-23040D02*
X66119Y-22813D01*
X66119Y-22813D02*
X66173Y-22738D01*
X66173Y-22738D02*
X66440Y-22738D01*
X66440Y-22738D02*
X66494Y-22662D01*
X66494Y-22662D02*
X66494Y-22435D01*
X66494Y-22435D02*
X66440Y-22359D01*
X66440Y-22359D02*
X66173Y-22359D01*
X66173Y-22359D02*
X66119Y-22435D01*
X45840Y-27473D02*
X45159Y-27473D01*
X45159Y-27473D02*
X45159Y-27152D01*
X45159Y-27152D02*
X45235Y-27098D01*
X45235Y-27098D02*
X45462Y-27098D01*
X45462Y-27098D02*
X45538Y-27152D01*
X45538Y-27152D02*
X45538Y-27473D01*
X45840Y-26771D02*
X45840Y-26557D01*
X45840Y-26664D02*
X45159Y-26664D01*
X45235Y-26664D02*
X45386Y-26771D01*
X45840Y-26176D02*
X45840Y-25962D01*
X45840Y-26069D02*
X45159Y-26069D01*
X45235Y-26069D02*
X45386Y-26176D01*
G54D25*
X59156Y-44566D02*
X59200Y-44616D01*
X59200Y-44616D02*
X59200Y-44866D01*
X59200Y-44866D02*
X59156Y-44916D01*
X59156Y-44916D02*
X58845Y-44916D01*
X58845Y-44916D02*
X58800Y-44866D01*
X58800Y-44866D02*
X58800Y-44616D01*
X58800Y-44616D02*
X58845Y-44566D01*
X59200Y-44142D02*
X58800Y-44142D01*
X58800Y-44142D02*
X59112Y-44392D01*
X59112Y-44392D02*
X59112Y-44042D01*
G54D23*
X60751Y-25900D02*
X60751Y-25300D01*
X60676Y-25300D02*
X61126Y-25300D01*
X61126Y-25300D02*
X61201Y-25367D01*
X61201Y-25367D02*
X61201Y-25834D01*
X61201Y-25834D02*
X61126Y-25900D01*
X61126Y-25900D02*
X60676Y-25900D01*
X61537Y-25900D02*
X61912Y-25900D01*
X61912Y-25900D02*
X61987Y-25834D01*
X61987Y-25834D02*
X61987Y-25367D01*
X61987Y-25367D02*
X61912Y-25300D01*
X61912Y-25300D02*
X61537Y-25300D01*
X61537Y-25300D02*
X61462Y-25367D01*
X61462Y-25367D02*
X61462Y-25567D01*
X61462Y-25567D02*
X61537Y-25634D01*
X61537Y-25634D02*
X61912Y-25634D01*
X61912Y-25634D02*
X61987Y-25567D01*
X68224Y-23040D02*
X68224Y-22359D01*
X68224Y-22359D02*
X68545Y-22359D01*
X68545Y-22359D02*
X68599Y-22435D01*
X68599Y-22435D02*
X68599Y-22662D01*
X68599Y-22662D02*
X68545Y-22738D01*
X68545Y-22738D02*
X68224Y-22738D01*
X68819Y-22359D02*
X69194Y-22359D01*
X69194Y-22359D02*
X69194Y-22435D01*
X69194Y-22435D02*
X68980Y-22662D01*
X68980Y-22662D02*
X69140Y-22662D01*
X69140Y-22662D02*
X69194Y-22738D01*
X69194Y-22738D02*
X69194Y-22965D01*
X69194Y-22965D02*
X69140Y-23040D01*
X69140Y-23040D02*
X68873Y-23040D01*
X68873Y-23040D02*
X68819Y-22965D01*
G54D25*
X67197Y-26875D02*
X67197Y-26325D01*
X67197Y-26325D02*
X67572Y-26325D01*
X67572Y-26325D02*
X67635Y-26387D01*
X67635Y-26387D02*
X67635Y-26570D01*
X67635Y-26570D02*
X67572Y-26631D01*
X67572Y-26631D02*
X67197Y-26631D01*
X67385Y-26631D02*
X67635Y-26875D01*
X67832Y-26325D02*
X68270Y-26325D01*
X68270Y-26325D02*
X68270Y-26387D01*
X68270Y-26387D02*
X68020Y-26570D01*
X68020Y-26570D02*
X68207Y-26570D01*
X68207Y-26570D02*
X68270Y-26631D01*
X68270Y-26631D02*
X68270Y-26814D01*
X68270Y-26814D02*
X68207Y-26875D01*
X68207Y-26875D02*
X67895Y-26875D01*
X67895Y-26875D02*
X67832Y-26814D01*
X66880Y-25375D02*
X66880Y-24825D01*
X66880Y-24825D02*
X67255Y-24825D01*
X67255Y-24825D02*
X67318Y-24887D01*
X67318Y-24887D02*
X67318Y-25070D01*
X67318Y-25070D02*
X67255Y-25131D01*
X67255Y-25131D02*
X66880Y-25131D01*
X67068Y-25131D02*
X67318Y-25375D01*
X67640Y-25375D02*
X67890Y-25375D01*
X67765Y-25375D02*
X67765Y-24825D01*
X67765Y-24887D02*
X67640Y-25009D01*
X68275Y-25375D02*
X68525Y-25375D01*
X68400Y-25375D02*
X68400Y-24825D01*
X68400Y-24887D02*
X68275Y-25009D01*
X64675Y-26920D02*
X64125Y-26920D01*
X64125Y-26920D02*
X64125Y-26545D01*
X64125Y-26545D02*
X64187Y-26482D01*
X64187Y-26482D02*
X64370Y-26482D01*
X64370Y-26482D02*
X64431Y-26545D01*
X64431Y-26545D02*
X64431Y-26920D01*
X64431Y-26732D02*
X64675Y-26482D01*
X64675Y-26160D02*
X64675Y-25910D01*
X64675Y-26035D02*
X64125Y-26035D01*
X64187Y-26035D02*
X64309Y-26160D01*
X64675Y-25650D02*
X64125Y-25212D01*
X64614Y-25650D02*
X64187Y-25650D01*
X64187Y-25650D02*
X64125Y-25587D01*
X64125Y-25587D02*
X64125Y-25275D01*
X64125Y-25275D02*
X64187Y-25212D01*
X64187Y-25212D02*
X64614Y-25212D01*
X64614Y-25212D02*
X64675Y-25275D01*
X64675Y-25275D02*
X64675Y-25587D01*
X64675Y-25587D02*
X64614Y-25650D01*
G54D24*
X66659Y-28218D02*
X66621Y-28251D01*
X66621Y-28251D02*
X66434Y-28251D01*
X66434Y-28251D02*
X66396Y-28218D01*
X66396Y-28218D02*
X66396Y-27985D01*
X66396Y-27985D02*
X66434Y-27951D01*
X66434Y-27951D02*
X66621Y-27951D01*
X66621Y-27951D02*
X66659Y-27985D01*
X66779Y-27951D02*
X67042Y-27951D01*
X67042Y-27951D02*
X67042Y-27985D01*
X67042Y-27985D02*
X66892Y-28085D01*
X66892Y-28085D02*
X67004Y-28085D01*
X67004Y-28085D02*
X67042Y-28118D01*
X67042Y-28118D02*
X67042Y-28218D01*
X67042Y-28218D02*
X67004Y-28251D01*
X67004Y-28251D02*
X66817Y-28251D01*
X66817Y-28251D02*
X66779Y-28218D01*
X66339Y-29250D02*
X66464Y-29250D01*
X66402Y-29250D02*
X66402Y-28950D01*
X66402Y-28984D02*
X66339Y-29050D01*
X66604Y-29050D02*
X66604Y-29184D01*
X66604Y-29184D02*
X66666Y-29250D01*
X66666Y-29250D02*
X66760Y-29250D01*
X66760Y-29250D02*
X66823Y-29184D01*
X66823Y-29184D02*
X66823Y-29050D01*
X66931Y-29250D02*
X66931Y-28950D01*
X66931Y-28950D02*
X67150Y-28950D01*
X66931Y-29084D02*
X67056Y-29084D01*
G54D25*
X65676Y-28617D02*
X65901Y-28617D01*
X65789Y-28717D02*
X65789Y-28517D01*
G54D23*
X70724Y-25040D02*
X70724Y-24359D01*
X70724Y-24359D02*
X71045Y-24359D01*
X71045Y-24359D02*
X71099Y-24435D01*
X71099Y-24435D02*
X71099Y-24662D01*
X71099Y-24662D02*
X71045Y-24738D01*
X71045Y-24738D02*
X70724Y-24738D01*
X71373Y-25040D02*
X71319Y-24965D01*
X71319Y-24965D02*
X71319Y-24738D01*
X71319Y-24738D02*
X71373Y-24662D01*
X71373Y-24662D02*
X71640Y-24662D01*
X71640Y-24662D02*
X71694Y-24586D01*
X71694Y-24586D02*
X71694Y-24435D01*
X71694Y-24435D02*
X71640Y-24359D01*
X71640Y-24359D02*
X71373Y-24359D01*
X71373Y-24359D02*
X71319Y-24435D01*
X71319Y-24435D02*
X71319Y-24586D01*
X71319Y-24586D02*
X71373Y-24662D01*
X71640Y-24662D02*
X71694Y-24738D01*
X71694Y-24738D02*
X71694Y-24965D01*
X71694Y-24965D02*
X71640Y-25040D01*
X71640Y-25040D02*
X71373Y-25040D01*
X73224Y-25040D02*
X73224Y-24359D01*
X73224Y-24359D02*
X73545Y-24359D01*
X73545Y-24359D02*
X73599Y-24435D01*
X73599Y-24435D02*
X73599Y-24662D01*
X73599Y-24662D02*
X73545Y-24738D01*
X73545Y-24738D02*
X73224Y-24738D01*
X73819Y-24889D02*
X73819Y-24965D01*
X73819Y-24965D02*
X73873Y-25040D01*
X73873Y-25040D02*
X74140Y-25040D01*
X74140Y-25040D02*
X74194Y-24965D01*
X74194Y-24965D02*
X74194Y-24738D01*
X74194Y-24738D02*
X74087Y-24586D01*
X74087Y-24586D02*
X73819Y-24586D01*
X73819Y-24586D02*
X73819Y-24359D01*
X73819Y-24359D02*
X74194Y-24359D01*
X74276Y-36800D02*
X74276Y-37334D01*
X74276Y-37334D02*
X74351Y-37400D01*
X74351Y-37400D02*
X74726Y-37400D01*
X74726Y-37400D02*
X74801Y-37334D01*
X74801Y-37334D02*
X74801Y-36800D01*
X75587Y-37400D02*
X75062Y-37400D01*
X75062Y-37400D02*
X75062Y-37200D01*
X75062Y-37200D02*
X75137Y-37134D01*
X75137Y-37134D02*
X75512Y-37134D01*
X75512Y-37134D02*
X75587Y-37067D01*
X75587Y-37067D02*
X75587Y-36867D01*
X75587Y-36867D02*
X75512Y-36800D01*
X75512Y-36800D02*
X75137Y-36800D01*
X75137Y-36800D02*
X75062Y-36867D01*
X73097Y-38800D02*
X73097Y-39400D01*
X73097Y-39400D02*
X73697Y-39400D01*
X74408Y-39400D02*
X73883Y-39400D01*
X73883Y-39400D02*
X73883Y-39200D01*
X73883Y-39200D02*
X73958Y-39134D01*
X73958Y-39134D02*
X74333Y-39134D01*
X74333Y-39134D02*
X74408Y-39067D01*
X74408Y-39067D02*
X74408Y-38867D01*
X74408Y-38867D02*
X74333Y-38800D01*
X74333Y-38800D02*
X73958Y-38800D01*
X73958Y-38800D02*
X73883Y-38867D01*
X74744Y-39400D02*
X75119Y-39400D01*
X75119Y-39400D02*
X75194Y-39334D01*
X75194Y-39334D02*
X75194Y-38867D01*
X75194Y-38867D02*
X75119Y-38800D01*
X75119Y-38800D02*
X74744Y-38800D01*
X74744Y-38800D02*
X74669Y-38867D01*
X74669Y-38867D02*
X74669Y-39067D01*
X74669Y-39067D02*
X74744Y-39134D01*
X74744Y-39134D02*
X75119Y-39134D01*
X75119Y-39134D02*
X75194Y-39067D01*
X75530Y-39400D02*
X75455Y-39334D01*
X75455Y-39334D02*
X75455Y-39134D01*
X75455Y-39134D02*
X75530Y-39067D01*
X75530Y-39067D02*
X75905Y-39067D01*
X75905Y-39067D02*
X75980Y-39000D01*
X75980Y-39000D02*
X75980Y-38867D01*
X75980Y-38867D02*
X75905Y-38800D01*
X75905Y-38800D02*
X75530Y-38800D01*
X75530Y-38800D02*
X75455Y-38867D01*
X75455Y-38867D02*
X75455Y-39000D01*
X75455Y-39000D02*
X75530Y-39067D01*
X75905Y-39067D02*
X75980Y-39134D01*
X75980Y-39134D02*
X75980Y-39334D01*
X75980Y-39334D02*
X75905Y-39400D01*
X75905Y-39400D02*
X75530Y-39400D01*
X76241Y-39400D02*
X76241Y-38800D01*
X76241Y-38800D02*
X76766Y-39400D01*
X76766Y-39400D02*
X76766Y-38800D01*
X69140Y-40923D02*
X68459Y-40923D01*
X68459Y-40923D02*
X68459Y-40602D01*
X68459Y-40602D02*
X68535Y-40548D01*
X68535Y-40548D02*
X68762Y-40548D01*
X68762Y-40548D02*
X68838Y-40602D01*
X68838Y-40602D02*
X68838Y-40923D01*
X69140Y-40221D02*
X69140Y-40007D01*
X69140Y-40114D02*
X68459Y-40114D01*
X68535Y-40114D02*
X68686Y-40221D01*
X69140Y-39733D02*
X68459Y-39358D01*
X69065Y-39733D02*
X68535Y-39733D01*
X68535Y-39733D02*
X68459Y-39679D01*
X68459Y-39679D02*
X68459Y-39412D01*
X68459Y-39412D02*
X68535Y-39358D01*
X68535Y-39358D02*
X69065Y-39358D01*
X69065Y-39358D02*
X69140Y-39412D01*
X69140Y-39412D02*
X69140Y-39679D01*
X69140Y-39679D02*
X69065Y-39733D01*
X58150Y-40596D02*
X58773Y-40596D01*
X58773Y-40596D02*
X58850Y-40540D01*
X58850Y-40540D02*
X58850Y-40259D01*
X58850Y-40259D02*
X58773Y-40202D01*
X58773Y-40202D02*
X58150Y-40202D01*
X58150Y-39976D02*
X58150Y-39582D01*
X58150Y-39582D02*
X58228Y-39582D01*
X58228Y-39582D02*
X58462Y-39807D01*
X58462Y-39807D02*
X58462Y-39639D01*
X58462Y-39639D02*
X58539Y-39582D01*
X58539Y-39582D02*
X58773Y-39582D01*
X58773Y-39582D02*
X58850Y-39639D01*
X58850Y-39639D02*
X58850Y-39920D01*
X58850Y-39920D02*
X58773Y-39976D01*
X59850Y-37766D02*
X59150Y-37766D01*
X59150Y-37766D02*
X59150Y-37429D01*
X59150Y-37429D02*
X59228Y-37372D01*
X59228Y-37372D02*
X59462Y-37372D01*
X59462Y-37372D02*
X59539Y-37429D01*
X59539Y-37429D02*
X59539Y-37766D01*
X59850Y-37090D02*
X59850Y-36865D01*
X59850Y-36977D02*
X59150Y-36977D01*
X59150Y-37090D02*
X59150Y-36865D01*
X59773Y-36132D02*
X59850Y-36189D01*
X59850Y-36189D02*
X59850Y-36470D01*
X59850Y-36470D02*
X59773Y-36526D01*
X59773Y-36526D02*
X59228Y-36526D01*
X59228Y-36526D02*
X59150Y-36470D01*
X59150Y-36470D02*
X59150Y-36189D01*
X59150Y-36189D02*
X59228Y-36132D01*
X59850Y-35794D02*
X59850Y-35569D01*
X59850Y-35681D02*
X59150Y-35681D01*
X59228Y-35681D02*
X59384Y-35794D01*
X59228Y-34892D02*
X59150Y-34949D01*
X59150Y-34949D02*
X59150Y-35230D01*
X59150Y-35230D02*
X59228Y-35286D01*
X59228Y-35286D02*
X59773Y-35286D01*
X59773Y-35286D02*
X59850Y-35230D01*
X59850Y-35230D02*
X59850Y-34949D01*
X59850Y-34949D02*
X59773Y-34892D01*
X59773Y-34892D02*
X59539Y-34892D01*
X59539Y-34892D02*
X59462Y-34949D01*
X59462Y-34949D02*
X59462Y-35230D01*
X59462Y-35230D02*
X59539Y-35286D01*
X59850Y-34666D02*
X59150Y-34666D01*
X59150Y-34666D02*
X59150Y-34272D01*
X59462Y-34666D02*
X59462Y-34441D01*
X59228Y-33652D02*
X59150Y-33709D01*
X59150Y-33709D02*
X59150Y-33990D01*
X59150Y-33990D02*
X59228Y-34046D01*
X59228Y-34046D02*
X59773Y-34046D01*
X59773Y-34046D02*
X59850Y-33990D01*
X59850Y-33990D02*
X59850Y-33709D01*
X59850Y-33709D02*
X59773Y-33652D01*
X59773Y-33652D02*
X59539Y-33652D01*
X59539Y-33652D02*
X59462Y-33709D01*
X59462Y-33709D02*
X59462Y-33990D01*
X59462Y-33990D02*
X59539Y-34046D01*
X59850Y-33032D02*
X59850Y-33426D01*
X59850Y-33426D02*
X59617Y-33426D01*
X59617Y-33426D02*
X59539Y-33370D01*
X59539Y-33370D02*
X59539Y-33089D01*
X59539Y-33089D02*
X59462Y-33032D01*
X59462Y-33032D02*
X59228Y-33032D01*
X59228Y-33032D02*
X59150Y-33089D01*
X59150Y-33089D02*
X59150Y-33370D01*
X59150Y-33370D02*
X59228Y-33426D01*
X59850Y-32750D02*
X59773Y-32806D01*
X59773Y-32806D02*
X59539Y-32806D01*
X59539Y-32806D02*
X59462Y-32750D01*
X59462Y-32750D02*
X59462Y-32469D01*
X59462Y-32469D02*
X59384Y-32412D01*
X59384Y-32412D02*
X59228Y-32412D01*
X59228Y-32412D02*
X59150Y-32469D01*
X59150Y-32469D02*
X59150Y-32750D01*
X59150Y-32750D02*
X59228Y-32806D01*
X59228Y-32806D02*
X59384Y-32806D01*
X59384Y-32806D02*
X59462Y-32750D01*
X59462Y-32469D02*
X59539Y-32412D01*
X59539Y-32412D02*
X59773Y-32412D01*
X59773Y-32412D02*
X59850Y-32469D01*
X59850Y-32469D02*
X59850Y-32750D01*
G54D26*
X79595Y-44783D02*
X79650Y-44846D01*
X79650Y-44846D02*
X79650Y-45158D01*
X79650Y-45158D02*
X79595Y-45221D01*
X79595Y-45221D02*
X79206Y-45221D01*
X79206Y-45221D02*
X79150Y-45158D01*
X79150Y-45158D02*
X79150Y-44846D01*
X79150Y-44846D02*
X79206Y-44783D01*
X79650Y-44441D02*
X79650Y-44191D01*
X79650Y-44316D02*
X79150Y-44316D01*
X79206Y-44316D02*
X79317Y-44441D01*
X77650Y-47716D02*
X77650Y-47466D01*
X77650Y-47591D02*
X77150Y-47591D01*
X77206Y-47591D02*
X77317Y-47716D01*
X77650Y-47186D02*
X77150Y-46748D01*
X77595Y-47186D02*
X77206Y-47186D01*
X77206Y-47186D02*
X77150Y-47123D01*
X77150Y-47123D02*
X77150Y-46811D01*
X77150Y-46811D02*
X77206Y-46748D01*
X77206Y-46748D02*
X77595Y-46748D01*
X77595Y-46748D02*
X77650Y-46811D01*
X77650Y-46811D02*
X77650Y-47123D01*
X77650Y-47123D02*
X77595Y-47186D01*
X77650Y-46531D02*
X77150Y-46093D01*
X77595Y-46531D02*
X77206Y-46531D01*
X77206Y-46531D02*
X77150Y-46468D01*
X77150Y-46468D02*
X77150Y-46156D01*
X77150Y-46156D02*
X77206Y-46093D01*
X77206Y-46093D02*
X77595Y-46093D01*
X77595Y-46093D02*
X77650Y-46156D01*
X77650Y-46156D02*
X77650Y-46468D01*
X77650Y-46468D02*
X77595Y-46531D01*
X77650Y-45876D02*
X77150Y-45438D01*
X77595Y-45876D02*
X77206Y-45876D01*
X77206Y-45876D02*
X77150Y-45813D01*
X77150Y-45813D02*
X77150Y-45501D01*
X77150Y-45501D02*
X77206Y-45438D01*
X77206Y-45438D02*
X77595Y-45438D01*
X77595Y-45438D02*
X77650Y-45501D01*
X77650Y-45501D02*
X77650Y-45813D01*
X77650Y-45813D02*
X77595Y-45876D01*
X77317Y-45221D02*
X77539Y-45221D01*
X77539Y-45221D02*
X77650Y-45096D01*
X77650Y-45096D02*
X77650Y-44908D01*
X77650Y-44908D02*
X77539Y-44783D01*
X77539Y-44783D02*
X77317Y-44783D01*
X77650Y-44566D02*
X77150Y-44566D01*
X77150Y-44566D02*
X77150Y-44128D01*
X77373Y-44566D02*
X77373Y-44316D01*
X77650Y-43911D02*
X77650Y-43473D01*
X77650Y-42818D02*
X77650Y-43256D01*
X77650Y-43256D02*
X77484Y-43256D01*
X77484Y-43256D02*
X77428Y-43193D01*
X77428Y-43193D02*
X77428Y-42881D01*
X77428Y-42881D02*
X77373Y-42818D01*
X77373Y-42818D02*
X77206Y-42818D01*
X77206Y-42818D02*
X77150Y-42881D01*
X77150Y-42881D02*
X77150Y-43193D01*
X77150Y-43193D02*
X77206Y-43256D01*
X77539Y-42601D02*
X77595Y-42601D01*
X77595Y-42601D02*
X77650Y-42538D01*
X77650Y-42538D02*
X77650Y-42226D01*
X77650Y-42226D02*
X77595Y-42163D01*
X77595Y-42163D02*
X77428Y-42163D01*
X77428Y-42163D02*
X77317Y-42288D01*
X77317Y-42288D02*
X77317Y-42601D01*
X77317Y-42601D02*
X77150Y-42601D01*
X77150Y-42601D02*
X77150Y-42163D01*
X77317Y-41946D02*
X77484Y-41946D01*
X77484Y-41946D02*
X77650Y-41758D01*
X77650Y-41758D02*
X77484Y-41571D01*
X77484Y-41571D02*
X77317Y-41571D01*
X66195Y-44583D02*
X66250Y-44646D01*
X66250Y-44646D02*
X66250Y-44958D01*
X66250Y-44958D02*
X66195Y-45021D01*
X66195Y-45021D02*
X65806Y-45021D01*
X65806Y-45021D02*
X65750Y-44958D01*
X65750Y-44958D02*
X65750Y-44646D01*
X65750Y-44646D02*
X65806Y-44583D01*
X66250Y-43928D02*
X66250Y-44366D01*
X66250Y-44366D02*
X66084Y-44366D01*
X66084Y-44366D02*
X66028Y-44303D01*
X66028Y-44303D02*
X66028Y-43991D01*
X66028Y-43991D02*
X65973Y-43928D01*
X65973Y-43928D02*
X65806Y-43928D01*
X65806Y-43928D02*
X65750Y-43991D01*
X65750Y-43991D02*
X65750Y-44303D01*
X65750Y-44303D02*
X65806Y-44366D01*
X64250Y-47188D02*
X64250Y-46938D01*
X64250Y-47063D02*
X63750Y-47063D01*
X63806Y-47063D02*
X63917Y-47188D01*
X64250Y-46658D02*
X63750Y-46220D01*
X64195Y-46658D02*
X63806Y-46658D01*
X63806Y-46658D02*
X63750Y-46595D01*
X63750Y-46595D02*
X63750Y-46283D01*
X63750Y-46283D02*
X63806Y-46220D01*
X63806Y-46220D02*
X64195Y-46220D01*
X64195Y-46220D02*
X64250Y-46283D01*
X64250Y-46283D02*
X64250Y-46595D01*
X64250Y-46595D02*
X64195Y-46658D01*
X64250Y-46003D02*
X63750Y-45565D01*
X64195Y-46003D02*
X63806Y-46003D01*
X63806Y-46003D02*
X63750Y-45940D01*
X63750Y-45940D02*
X63750Y-45628D01*
X63750Y-45628D02*
X63806Y-45565D01*
X63806Y-45565D02*
X64195Y-45565D01*
X64195Y-45565D02*
X64250Y-45628D01*
X64250Y-45628D02*
X64250Y-45940D01*
X64250Y-45940D02*
X64195Y-46003D01*
X63917Y-45348D02*
X64139Y-45348D01*
X64139Y-45348D02*
X64250Y-45223D01*
X64250Y-45223D02*
X64250Y-45035D01*
X64250Y-45035D02*
X64139Y-44910D01*
X64139Y-44910D02*
X63917Y-44910D01*
X64250Y-44693D02*
X63750Y-44693D01*
X63750Y-44693D02*
X63750Y-44255D01*
X63973Y-44693D02*
X63973Y-44443D01*
X64250Y-44038D02*
X64250Y-43600D01*
X64250Y-43258D02*
X64250Y-43008D01*
X64250Y-43133D02*
X63750Y-43133D01*
X63806Y-43133D02*
X63917Y-43258D01*
X64250Y-42290D02*
X64250Y-42728D01*
X64250Y-42728D02*
X64084Y-42728D01*
X64084Y-42728D02*
X64028Y-42665D01*
X64028Y-42665D02*
X64028Y-42353D01*
X64028Y-42353D02*
X63973Y-42290D01*
X63973Y-42290D02*
X63806Y-42290D01*
X63806Y-42290D02*
X63750Y-42353D01*
X63750Y-42353D02*
X63750Y-42665D01*
X63750Y-42665D02*
X63806Y-42728D01*
X63917Y-42073D02*
X64084Y-42073D01*
X64084Y-42073D02*
X64250Y-41885D01*
X64250Y-41885D02*
X64084Y-41698D01*
X64084Y-41698D02*
X63917Y-41698D01*
G54D25*
X80134Y-29850D02*
X80134Y-29350D01*
X80084Y-29350D02*
X80384Y-29350D01*
X80384Y-29350D02*
X80434Y-29406D01*
X80434Y-29406D02*
X80434Y-29795D01*
X80434Y-29795D02*
X80384Y-29850D01*
X80384Y-29850D02*
X80084Y-29850D01*
X80658Y-29850D02*
X80608Y-29795D01*
X80608Y-29795D02*
X80608Y-29628D01*
X80608Y-29628D02*
X80658Y-29573D01*
X80658Y-29573D02*
X80908Y-29573D01*
X80908Y-29573D02*
X80958Y-29517D01*
X80958Y-29517D02*
X80958Y-29406D01*
X80958Y-29406D02*
X80908Y-29350D01*
X80908Y-29350D02*
X80658Y-29350D01*
X80658Y-29350D02*
X80608Y-29406D01*
X80608Y-29406D02*
X80608Y-29517D01*
X80608Y-29517D02*
X80658Y-29573D01*
X80908Y-29573D02*
X80958Y-29628D01*
X80958Y-29628D02*
X80958Y-29795D01*
X80958Y-29795D02*
X80908Y-29850D01*
X80908Y-29850D02*
X80658Y-29850D01*
X80134Y-31250D02*
X80134Y-30750D01*
X80084Y-30750D02*
X80384Y-30750D01*
X80384Y-30750D02*
X80434Y-30806D01*
X80434Y-30806D02*
X80434Y-31195D01*
X80434Y-31195D02*
X80384Y-31250D01*
X80384Y-31250D02*
X80084Y-31250D01*
X80608Y-30750D02*
X80958Y-30750D01*
X80958Y-30750D02*
X80608Y-31250D01*
X80134Y-28450D02*
X80134Y-27950D01*
X80084Y-27950D02*
X80384Y-27950D01*
X80384Y-27950D02*
X80434Y-28006D01*
X80434Y-28006D02*
X80434Y-28395D01*
X80434Y-28395D02*
X80384Y-28450D01*
X80384Y-28450D02*
X80084Y-28450D01*
X80958Y-28006D02*
X80908Y-27950D01*
X80908Y-27950D02*
X80658Y-27950D01*
X80658Y-27950D02*
X80608Y-28006D01*
X80608Y-28006D02*
X80608Y-28395D01*
X80608Y-28395D02*
X80658Y-28450D01*
X80658Y-28450D02*
X80908Y-28450D01*
X80908Y-28450D02*
X80958Y-28395D01*
X80958Y-28395D02*
X80958Y-28228D01*
X80958Y-28228D02*
X80908Y-28173D01*
X80908Y-28173D02*
X80658Y-28173D01*
X80658Y-28173D02*
X80608Y-28228D01*
X80134Y-32650D02*
X80134Y-32150D01*
X80084Y-32150D02*
X80384Y-32150D01*
X80384Y-32150D02*
X80434Y-32206D01*
X80434Y-32206D02*
X80434Y-32595D01*
X80434Y-32595D02*
X80384Y-32650D01*
X80384Y-32650D02*
X80084Y-32650D01*
X80608Y-32539D02*
X80608Y-32595D01*
X80608Y-32595D02*
X80658Y-32650D01*
X80658Y-32650D02*
X80908Y-32650D01*
X80908Y-32650D02*
X80958Y-32595D01*
X80958Y-32595D02*
X80958Y-32428D01*
X80958Y-32428D02*
X80858Y-32317D01*
X80858Y-32317D02*
X80608Y-32317D01*
X80608Y-32317D02*
X80608Y-32150D01*
X80608Y-32150D02*
X80958Y-32150D01*
X71934Y-29850D02*
X71934Y-29350D01*
X71884Y-29350D02*
X72184Y-29350D01*
X72184Y-29350D02*
X72234Y-29406D01*
X72234Y-29406D02*
X72234Y-29795D01*
X72234Y-29795D02*
X72184Y-29850D01*
X72184Y-29850D02*
X71884Y-29850D01*
X72658Y-29850D02*
X72658Y-29350D01*
X72658Y-29350D02*
X72408Y-29739D01*
X72408Y-29739D02*
X72758Y-29739D01*
X71934Y-31250D02*
X71934Y-30750D01*
X71884Y-30750D02*
X72184Y-30750D01*
X72184Y-30750D02*
X72234Y-30806D01*
X72234Y-30806D02*
X72234Y-31195D01*
X72234Y-31195D02*
X72184Y-31250D01*
X72184Y-31250D02*
X71884Y-31250D01*
X72408Y-30750D02*
X72758Y-30750D01*
X72758Y-30750D02*
X72758Y-30806D01*
X72758Y-30806D02*
X72558Y-30973D01*
X72558Y-30973D02*
X72708Y-30973D01*
X72708Y-30973D02*
X72758Y-31028D01*
X72758Y-31028D02*
X72758Y-31195D01*
X72758Y-31195D02*
X72708Y-31250D01*
X72708Y-31250D02*
X72458Y-31250D01*
X72458Y-31250D02*
X72408Y-31195D01*
X71934Y-28450D02*
X71934Y-27950D01*
X71884Y-27950D02*
X72184Y-27950D01*
X72184Y-27950D02*
X72234Y-28006D01*
X72234Y-28006D02*
X72234Y-28395D01*
X72234Y-28395D02*
X72184Y-28450D01*
X72184Y-28450D02*
X71884Y-28450D01*
X72758Y-28450D02*
X72408Y-28450D01*
X72408Y-28450D02*
X72408Y-28284D01*
X72408Y-28284D02*
X72458Y-28228D01*
X72458Y-28228D02*
X72708Y-28228D01*
X72708Y-28228D02*
X72758Y-28173D01*
X72758Y-28173D02*
X72758Y-28006D01*
X72758Y-28006D02*
X72708Y-27950D01*
X72708Y-27950D02*
X72458Y-27950D01*
X72458Y-27950D02*
X72408Y-28006D01*
X71934Y-32650D02*
X71934Y-32150D01*
X71884Y-32150D02*
X72184Y-32150D01*
X72184Y-32150D02*
X72234Y-32206D01*
X72234Y-32206D02*
X72234Y-32595D01*
X72234Y-32595D02*
X72184Y-32650D01*
X72184Y-32650D02*
X71884Y-32650D01*
X72508Y-32650D02*
X72708Y-32650D01*
X72608Y-32650D02*
X72608Y-32150D01*
X72608Y-32206D02*
X72508Y-32317D01*
G54D23*
X82740Y-41976D02*
X82059Y-41976D01*
X82059Y-41976D02*
X82059Y-41655D01*
X82059Y-41655D02*
X82135Y-41601D01*
X82135Y-41601D02*
X82362Y-41601D01*
X82362Y-41601D02*
X82438Y-41655D01*
X82438Y-41655D02*
X82438Y-41976D01*
X82740Y-41274D02*
X82740Y-41060D01*
X82740Y-41167D02*
X82059Y-41167D01*
X82135Y-41167D02*
X82286Y-41274D01*
X77724Y-23041D02*
X77724Y-22358D01*
X77724Y-22358D02*
X78045Y-22358D01*
X78045Y-22358D02*
X78099Y-22434D01*
X78099Y-22434D02*
X78099Y-22662D01*
X78099Y-22662D02*
X78045Y-22738D01*
X78045Y-22738D02*
X77724Y-22738D01*
X78373Y-23041D02*
X78640Y-23041D01*
X78640Y-23041D02*
X78694Y-22966D01*
X78694Y-22966D02*
X78694Y-22434D01*
X78694Y-22434D02*
X78640Y-22358D01*
X78640Y-22358D02*
X78373Y-22358D01*
X78373Y-22358D02*
X78319Y-22434D01*
X78319Y-22434D02*
X78319Y-22662D01*
X78319Y-22662D02*
X78373Y-22738D01*
X78373Y-22738D02*
X78640Y-22738D01*
X78640Y-22738D02*
X78694Y-22662D01*
G54D25*
X67000Y-45016D02*
X67356Y-45016D01*
X67356Y-45016D02*
X67400Y-44966D01*
X67400Y-44966D02*
X67400Y-44716D01*
X67400Y-44716D02*
X67356Y-44666D01*
X67356Y-44666D02*
X67000Y-44666D01*
X67400Y-44392D02*
X67400Y-44192D01*
X67400Y-44292D02*
X67000Y-44292D01*
X67045Y-44292D02*
X67134Y-44392D01*
X70500Y-45802D02*
X70500Y-45452D01*
X70500Y-45452D02*
X70900Y-45802D01*
X70900Y-45228D02*
X70856Y-45278D01*
X70856Y-45278D02*
X70723Y-45278D01*
X70723Y-45278D02*
X70678Y-45228D01*
X70678Y-45228D02*
X70678Y-44978D01*
X70678Y-44978D02*
X70634Y-44928D01*
X70634Y-44928D02*
X70545Y-44928D01*
X70545Y-44928D02*
X70500Y-44978D01*
X70500Y-44978D02*
X70500Y-45228D01*
X70500Y-45228D02*
X70545Y-45278D01*
X70545Y-45278D02*
X70634Y-45278D01*
X70634Y-45278D02*
X70678Y-45228D01*
X70678Y-44978D02*
X70723Y-44928D01*
X70723Y-44928D02*
X70856Y-44928D01*
X70856Y-44928D02*
X70900Y-44978D01*
X70900Y-44978D02*
X70900Y-45228D01*
X70500Y-44754D02*
X70900Y-44754D01*
X70900Y-44754D02*
X70900Y-44354D01*
X70900Y-44230D02*
X70500Y-43880D01*
X70856Y-44230D02*
X70545Y-44230D01*
X70545Y-44230D02*
X70500Y-44180D01*
X70500Y-44180D02*
X70500Y-43930D01*
X70500Y-43930D02*
X70545Y-43880D01*
X70545Y-43880D02*
X70856Y-43880D01*
X70856Y-43880D02*
X70900Y-43930D01*
X70900Y-43930D02*
X70900Y-44180D01*
X70900Y-44180D02*
X70856Y-44230D01*
X70812Y-43706D02*
X70856Y-43706D01*
X70856Y-43706D02*
X70900Y-43656D01*
X70900Y-43656D02*
X70900Y-43406D01*
X70900Y-43406D02*
X70856Y-43356D01*
X70856Y-43356D02*
X70723Y-43356D01*
X70723Y-43356D02*
X70634Y-43456D01*
X70634Y-43456D02*
X70634Y-43706D01*
X70634Y-43706D02*
X70500Y-43706D01*
X70500Y-43706D02*
X70500Y-43356D01*
X79634Y-25156D02*
X79584Y-25200D01*
X79584Y-25200D02*
X79334Y-25200D01*
X79334Y-25200D02*
X79284Y-25156D01*
X79284Y-25156D02*
X79284Y-24845D01*
X79284Y-24845D02*
X79334Y-24800D01*
X79334Y-24800D02*
X79584Y-24800D01*
X79584Y-24800D02*
X79634Y-24845D01*
X80158Y-24845D02*
X80108Y-24800D01*
X80108Y-24800D02*
X79858Y-24800D01*
X79858Y-24800D02*
X79808Y-24845D01*
X79808Y-24845D02*
X79808Y-25156D01*
X79808Y-25156D02*
X79858Y-25200D01*
X79858Y-25200D02*
X80108Y-25200D01*
X80108Y-25200D02*
X80158Y-25156D01*
X80158Y-25156D02*
X80158Y-25023D01*
X80158Y-25023D02*
X80108Y-24978D01*
X80108Y-24978D02*
X79858Y-24978D01*
X79858Y-24978D02*
X79808Y-25023D01*
X76634Y-25156D02*
X76584Y-25200D01*
X76584Y-25200D02*
X76334Y-25200D01*
X76334Y-25200D02*
X76284Y-25156D01*
X76284Y-25156D02*
X76284Y-24845D01*
X76284Y-24845D02*
X76334Y-24800D01*
X76334Y-24800D02*
X76584Y-24800D01*
X76584Y-24800D02*
X76634Y-24845D01*
X76808Y-25112D02*
X76808Y-25156D01*
X76808Y-25156D02*
X76858Y-25200D01*
X76858Y-25200D02*
X77108Y-25200D01*
X77108Y-25200D02*
X77158Y-25156D01*
X77158Y-25156D02*
X77158Y-25023D01*
X77158Y-25023D02*
X77058Y-24934D01*
X77058Y-24934D02*
X76808Y-24934D01*
X76808Y-24934D02*
X76808Y-24800D01*
X76808Y-24800D02*
X77158Y-24800D01*
M02*
