M48
INCH,LZ
T1C0.025
T2C0.032
T3C0.040
%
G05
T1
X08189Y-023622
X044094Y-023622
X044094Y-046457
X08189Y-046457
X0502Y-0435
X0673Y-0313
X0766Y-0438
X0709Y-0384
X0764Y-0358
X0558Y-0444
X0692Y-042
X0692Y-0358
X0625Y-0401
X0691Y-0348
X0784Y-0348
X073Y-0348
X0624Y-0307
X0625Y-0361
X0754Y-0439
X0513Y-0369
X0617Y-0381
X0632Y-0391
X0632Y-0296
X0565Y-0381
X0629Y-0252
X0477Y-0236
X067Y-0237
X0559Y-0391
X0565Y-0296
X0477Y-0303
X0524Y-0313
X0533Y-0306
X0523Y-0296
X0563Y-0411
X0707Y-0266
X0643Y-0351
X0651Y-0341
X0742Y-0263
X0757Y-0324
X0757Y-0272
X0719Y-0347
X0724Y-0427
X0661Y-0314
X0661Y-0339
X0734Y-0418
X067Y-0323
X067Y-0339
X0744Y-0411
X0759Y-0367
X064Y-041
X0795Y-039
X077Y-031
T2
X0485Y-0455
X0485Y-0425
X0485Y-0403
X0485Y-0373
X0504Y-0357
X0504Y-0327
X0447Y-0445
X0447Y-0435
X0447Y-0393
X0447Y-0383
X0447Y-0349
X0447Y-0339
X0512Y-0245
X0502Y-0245
X0482Y-0265
X0512Y-0265
X0589Y-0237
X0579Y-0237
X0569Y-0237
X0589Y-0296
X0589Y-0266
X0534Y-028
X0534Y-025
X0559Y-028
X0559Y-025
X0552Y-0237
X0542Y-0237
X0532Y-0237
X0608Y-0296
X0608Y-0266
X0629Y-0271
X0629Y-0241
X0649Y-0237
X0659Y-0237
X0464Y-0313
X0464Y-0303
X0464Y-0293
X0464Y-0283
X0464Y-0273
X0464Y-0263
X0464Y-0253
X059Y-0455
X059Y-0435
X0615Y-0245
X0605Y-0245
X0682Y-0237
X0692Y-0237
X0662Y-0266
X0692Y-0266
X0662Y-0251
X0692Y-0251
X0641Y-0254
X0641Y-0284
X0673Y-0279
X0673Y-0289
X0717Y-0237
X0707Y-0237
X0742Y-0237
X0732Y-0237
X0714Y-0401
X0719Y-0381
X0724Y-0401
X0729Y-0381
X0734Y-0401
X0739Y-0381
X0744Y-0401
X0749Y-0381
X0754Y-0401
X0759Y-0381
X0764Y-0401
X0769Y-0381
X0774Y-0401
X0779Y-0381
X0784Y-0401
X0678Y-0379
X0678Y-0389
X0678Y-0399
X0678Y-0409
X0678Y-0419
X0605Y-0411
X0605Y-0401
X0605Y-0391
X0605Y-0381
X0605Y-0371
X0605Y-0361
X0605Y-0351
X0605Y-0341
X0605Y-0331
X0575Y-0331
X0575Y-0341
X0575Y-0351
X0575Y-0361
X0575Y-0371
X0575Y-0381
X0575Y-0391
X0575Y-0401
X0575Y-0411
X0814Y-041
X0814Y-042
X0767Y-0237
X0777Y-0237
X0787Y-0237
X0797Y-0237
X0692Y-0456
X0692Y-0446
X0682Y-0446
X0787Y-025
X0807Y-025
X0757Y-025
X0777Y-025
T3
X0467Y-0425
X0467Y-0435
X0467Y-0445
X0467Y-0373
X0467Y-0383
X0467Y-0393
X0467Y-0329
X0467Y-0339
X0467Y-0349
X0784Y-0457
X0784Y-0437
X065Y-0455
X065Y-0435
X0785Y-0296
X0825Y-0296
X0785Y-031
X0825Y-031
X0785Y-0282
X0825Y-0282
X0785Y-0324
X0825Y-0324
X0703Y-0296
X0743Y-0296
X0703Y-031
X0743Y-031
X0703Y-0282
X0743Y-0282
X0703Y-0324
X0743Y-0324
T0
M30
