%
M48
M72
T01C0.0320
T02C0.0400
%
T01
X9763Y4769
X11763Y4769
X16763Y4769
X18763Y4769
X23763Y4769
X25763Y4769
X31013Y2769
X33013Y2769
T02
X13263Y1769
X13263Y2769
X13263Y3769
X13263Y4769
X13263Y5769
X13263Y6769
X10763Y6769
X10763Y7769
X13263Y7769
X13263Y8769
X10763Y8769
X13263Y10519
X14263Y10519
X15263Y10519
X16263Y10519
X20263Y10519
X21263Y10519
X22263Y10519
X23263Y10519
X27263Y10519
X28263Y10519
X29263Y10519
X30263Y10519
X32263Y8769
X34263Y8769
X34263Y7769
X32263Y7769
X32263Y6769
X34263Y6769
X34263Y5769
X34263Y4769
X34263Y3769
X34263Y2769
X34263Y1769
X27263Y1769
X27263Y2769
X27263Y3769
X27263Y4769
X27263Y5769
X27263Y6769
X25013Y6769
X25013Y7769
X27263Y7769
X27263Y8769
X25013Y8769
X20263Y8769
X17763Y8769
X17763Y7769
X20263Y7769
X20263Y6769
X17763Y6769
X20263Y5769
X20263Y4769
X20263Y3769
X20263Y2769
X20263Y1769
X30263Y5019
X30263Y6019
M30
