G75*
G70*
%OFA0B0*%
%FSLAX24Y24*%
%IPPOS*%
%LPD*%
%AMOC8*
5,1,8,0,0,1.08239X$1,22.5*
%
%ADD10OC8,0.0520*%
%ADD11C,0.0600*%
%ADD12C,0.0320*%
D10*
X009763Y004769D03*
X011763Y004769D03*
X016763Y004769D03*
X018763Y004769D03*
X023763Y004769D03*
X025763Y004769D03*
X031013Y002769D03*
X033013Y002769D03*
D11*
X033963Y002769D02*
X034563Y002769D01*
X034563Y003769D02*
X033963Y003769D01*
X033963Y004769D02*
X034563Y004769D01*
X034563Y005769D02*
X033963Y005769D01*
X033963Y006769D02*
X034563Y006769D01*
X032563Y006769D02*
X031963Y006769D01*
X030563Y006019D02*
X029963Y006019D01*
X027563Y005769D02*
X026963Y005769D01*
X026963Y006769D02*
X027563Y006769D01*
X025313Y006769D02*
X024713Y006769D01*
X024713Y007769D02*
X025313Y007769D01*
X026963Y007769D02*
X027563Y007769D01*
X027563Y008769D02*
X026963Y008769D01*
X025313Y008769D02*
X024713Y008769D01*
X020563Y008769D02*
X019963Y008769D01*
X018063Y008769D02*
X017463Y008769D01*
X017463Y007769D02*
X018063Y007769D01*
X019963Y007769D02*
X020563Y007769D01*
X020563Y006769D02*
X019963Y006769D01*
X018063Y006769D02*
X017463Y006769D01*
X019963Y005769D02*
X020563Y005769D01*
X020563Y004769D02*
X019963Y004769D01*
X019963Y003769D02*
X020563Y003769D01*
X020563Y002769D02*
X019963Y002769D01*
X019963Y001769D02*
X020563Y001769D01*
X026963Y001769D02*
X027563Y001769D01*
X027563Y002769D02*
X026963Y002769D01*
X026963Y003769D02*
X027563Y003769D01*
X027563Y004769D02*
X026963Y004769D01*
X029963Y005019D02*
X030563Y005019D01*
X031963Y007769D02*
X032563Y007769D01*
X033963Y007769D02*
X034563Y007769D01*
X034563Y008769D02*
X033963Y008769D01*
X032563Y008769D02*
X031963Y008769D01*
X030263Y010219D02*
X030263Y010819D01*
X029263Y010819D02*
X029263Y010219D01*
X028263Y010219D02*
X028263Y010819D01*
X027263Y010819D02*
X027263Y010219D01*
X023263Y010219D02*
X023263Y010819D01*
X022263Y010819D02*
X022263Y010219D01*
X021263Y010219D02*
X021263Y010819D01*
X020263Y010819D02*
X020263Y010219D01*
X016263Y010219D02*
X016263Y010819D01*
X015263Y010819D02*
X015263Y010219D01*
X014263Y010219D02*
X014263Y010819D01*
X013263Y010819D02*
X013263Y010219D01*
X012963Y008769D02*
X013563Y008769D01*
X011063Y008769D02*
X010463Y008769D01*
X010463Y007769D02*
X011063Y007769D01*
X012963Y007769D02*
X013563Y007769D01*
X013563Y006769D02*
X012963Y006769D01*
X011063Y006769D02*
X010463Y006769D01*
X012963Y005769D02*
X013563Y005769D01*
X013563Y004769D02*
X012963Y004769D01*
X012963Y003769D02*
X013563Y003769D01*
X013563Y002769D02*
X012963Y002769D01*
X012963Y001769D02*
X013563Y001769D01*
X033963Y001769D02*
X034563Y001769D01*
D12*
X009203Y001079D02*
X001072Y001079D01*
X001072Y011955D01*
X011657Y011955D01*
X011538Y011836D01*
X011453Y011631D01*
X011453Y009171D01*
X011380Y009244D01*
X011174Y009329D01*
X010763Y009329D01*
X010763Y008770D01*
X010762Y008770D01*
X010762Y009329D01*
X010351Y009329D01*
X010145Y009244D01*
X009988Y009086D01*
X009903Y008881D01*
X009903Y008769D01*
X009903Y008658D01*
X009988Y008452D01*
X010074Y008366D01*
X010066Y008363D01*
X009869Y008166D01*
X009763Y007908D01*
X009763Y007630D01*
X009869Y007373D01*
X009913Y007329D01*
X009874Y007329D01*
X009651Y007329D01*
X009445Y007244D01*
X009288Y007086D01*
X009203Y006881D01*
X009203Y005142D01*
X009103Y005042D01*
X009103Y004496D01*
X009203Y004396D01*
X009203Y001079D01*
X009203Y001140D02*
X001072Y001140D01*
X001072Y001459D02*
X009203Y001459D01*
X009203Y001777D02*
X001072Y001777D01*
X001072Y002096D02*
X009203Y002096D01*
X009203Y002414D02*
X001072Y002414D01*
X001072Y002733D02*
X009203Y002733D01*
X009203Y003051D02*
X001072Y003051D01*
X001072Y003370D02*
X009203Y003370D01*
X009203Y003688D02*
X001072Y003688D01*
X001072Y004007D02*
X009203Y004007D01*
X009203Y004325D02*
X001072Y004325D01*
X001072Y004644D02*
X009103Y004644D01*
X009763Y004769D02*
X009763Y000769D01*
X016763Y000769D01*
X023763Y000769D01*
X023763Y004769D01*
X023763Y006769D01*
X025013Y006769D01*
X023651Y007329D02*
X023445Y007244D01*
X023288Y007086D01*
X023203Y006881D01*
X023203Y006658D01*
X023203Y005142D01*
X023103Y005042D01*
X023103Y004496D01*
X023203Y004396D01*
X023203Y001329D01*
X022614Y001329D01*
X022737Y001452D01*
X022822Y001658D01*
X022822Y001881D01*
X022822Y009669D01*
X022866Y009626D01*
X023123Y009519D01*
X023402Y009519D01*
X023659Y009626D01*
X023856Y009823D01*
X023962Y010080D01*
X023962Y010958D01*
X023856Y011216D01*
X023822Y011249D01*
X023822Y011408D01*
X023822Y011631D01*
X023737Y011836D01*
X023618Y011955D01*
X025657Y011955D01*
X025538Y011836D01*
X025453Y011631D01*
X025453Y009317D01*
X025424Y009329D01*
X025013Y009329D01*
X025013Y008770D01*
X025012Y008770D01*
X025012Y009329D01*
X024601Y009329D01*
X024395Y009244D01*
X024238Y009086D01*
X024153Y008881D01*
X024153Y008769D01*
X024153Y008658D01*
X024238Y008452D01*
X024324Y008366D01*
X024316Y008363D01*
X024119Y008166D01*
X024013Y007908D01*
X024013Y007630D01*
X024119Y007373D01*
X024163Y007329D01*
X023651Y007329D01*
X023394Y007192D02*
X022822Y007192D01*
X022822Y007511D02*
X024062Y007511D01*
X024013Y007829D02*
X022822Y007829D01*
X022822Y008148D02*
X024112Y008148D01*
X024232Y008466D02*
X022822Y008466D01*
X022822Y008785D02*
X024153Y008785D01*
X024153Y008769D02*
X025012Y008769D01*
X024153Y008769D01*
X024255Y009104D02*
X022822Y009104D01*
X022822Y009422D02*
X025453Y009422D01*
X025453Y009741D02*
X023774Y009741D01*
X023954Y010059D02*
X025453Y010059D01*
X025453Y010378D02*
X023962Y010378D01*
X023263Y010519D02*
X023263Y011519D01*
X019013Y011519D01*
X019013Y007769D01*
X017763Y007769D01*
X017066Y008363D02*
X016869Y008166D01*
X016763Y007908D01*
X016763Y007630D01*
X016869Y007373D01*
X016913Y007329D01*
X016651Y007329D01*
X016445Y007244D01*
X016288Y007086D01*
X016203Y006881D01*
X016203Y006658D01*
X016203Y005142D01*
X016103Y005042D01*
X016103Y004496D01*
X016203Y004396D01*
X016203Y001329D01*
X015614Y001329D01*
X015737Y001452D01*
X015822Y001658D01*
X015822Y001881D01*
X015822Y009669D01*
X015866Y009626D01*
X016123Y009519D01*
X016402Y009519D01*
X016659Y009626D01*
X016856Y009823D01*
X016962Y010080D01*
X016962Y010958D01*
X016856Y011216D01*
X016822Y011249D01*
X016822Y011408D01*
X016822Y011631D01*
X016737Y011836D01*
X016618Y011955D01*
X018657Y011955D01*
X018538Y011836D01*
X018453Y011631D01*
X018453Y009171D01*
X018380Y009244D01*
X018174Y009329D01*
X017763Y009329D01*
X017763Y008770D01*
X017762Y008770D01*
X017762Y009329D01*
X017351Y009329D01*
X017145Y009244D01*
X016988Y009086D01*
X016903Y008881D01*
X016903Y008769D01*
X016903Y008658D01*
X016988Y008452D01*
X017074Y008366D01*
X017066Y008363D01*
X016982Y008466D02*
X015822Y008466D01*
X015822Y008148D02*
X016862Y008148D01*
X016763Y007829D02*
X015822Y007829D01*
X015822Y007511D02*
X016812Y007511D01*
X016394Y007192D02*
X015822Y007192D01*
X015822Y006874D02*
X016203Y006874D01*
X016763Y006769D02*
X017763Y006769D01*
X016763Y006769D02*
X016763Y004769D01*
X016763Y000769D01*
X016203Y001459D02*
X015740Y001459D01*
X015822Y001777D02*
X016203Y001777D01*
X016203Y002096D02*
X015822Y002096D01*
X015822Y002414D02*
X016203Y002414D01*
X016203Y002733D02*
X015822Y002733D01*
X015822Y003051D02*
X016203Y003051D01*
X016203Y003370D02*
X015822Y003370D01*
X015822Y003688D02*
X016203Y003688D01*
X016203Y004007D02*
X015822Y004007D01*
X015822Y004325D02*
X016203Y004325D01*
X016103Y004644D02*
X015822Y004644D01*
X015822Y004963D02*
X016103Y004963D01*
X016203Y005281D02*
X015822Y005281D01*
X015822Y005600D02*
X016203Y005600D01*
X016203Y005918D02*
X015822Y005918D01*
X015822Y006237D02*
X016203Y006237D01*
X016203Y006555D02*
X015822Y006555D01*
X013263Y006769D02*
X013263Y005769D01*
X010763Y006769D02*
X009763Y006769D01*
X009763Y004769D01*
X009103Y004963D02*
X001072Y004963D01*
X001072Y005281D02*
X009203Y005281D01*
X009203Y005600D02*
X001072Y005600D01*
X001072Y005918D02*
X009203Y005918D01*
X009203Y006237D02*
X001072Y006237D01*
X001072Y006555D02*
X009203Y006555D01*
X009203Y006874D02*
X001072Y006874D01*
X001072Y007192D02*
X009394Y007192D01*
X009812Y007511D02*
X001072Y007511D01*
X001072Y007829D02*
X009763Y007829D01*
X009862Y008148D02*
X001072Y008148D01*
X001072Y008466D02*
X009982Y008466D01*
X009903Y008769D02*
X010762Y008769D01*
X010762Y008769D01*
X009903Y008769D01*
X009903Y008785D02*
X001072Y008785D01*
X001072Y009104D02*
X010005Y009104D01*
X010762Y009104D02*
X010763Y009104D01*
X010762Y008785D02*
X010763Y008785D01*
X010763Y008769D02*
X010763Y012269D01*
X017763Y012269D01*
X025013Y012269D01*
X031763Y012269D01*
X031763Y010019D01*
X030263Y008519D01*
X030263Y006019D01*
X030263Y006019D01*
X031122Y006019D01*
X031122Y005908D01*
X031037Y005702D01*
X030951Y005616D01*
X030959Y005613D01*
X031156Y005416D01*
X031262Y005158D01*
X031262Y004880D01*
X031156Y004623D01*
X030959Y004426D01*
X030822Y004369D01*
X030822Y003429D01*
X031286Y003429D01*
X031672Y003042D01*
X031672Y002496D01*
X031286Y002109D01*
X030822Y002109D01*
X030822Y001079D01*
X033799Y001079D01*
X033566Y001176D01*
X033533Y001209D01*
X032374Y001209D01*
X032151Y001209D01*
X031945Y001294D01*
X031788Y001452D01*
X031703Y001658D01*
X031703Y006119D01*
X031566Y006176D01*
X031369Y006373D01*
X031263Y006630D01*
X031263Y006908D01*
X031369Y007166D01*
X031473Y007269D01*
X031369Y007373D01*
X031263Y007630D01*
X031263Y007908D01*
X031369Y008166D01*
X031473Y008269D01*
X031369Y008373D01*
X031263Y008630D01*
X031263Y008908D01*
X031369Y009166D01*
X031566Y009363D01*
X031823Y009469D01*
X032702Y009469D01*
X032959Y009363D01*
X032992Y009329D01*
X033533Y009329D01*
X033566Y009363D01*
X033823Y009469D01*
X034702Y009469D01*
X034959Y009363D01*
X035156Y009166D01*
X035262Y008908D01*
X035262Y008630D01*
X035156Y008373D01*
X035052Y008269D01*
X035156Y008166D01*
X035262Y007908D01*
X035262Y007630D01*
X035156Y007373D01*
X035052Y007269D01*
X035156Y007166D01*
X035262Y006908D01*
X035262Y006630D01*
X035156Y006373D01*
X035052Y006269D01*
X035156Y006166D01*
X035262Y005908D01*
X035262Y005630D01*
X035156Y005373D01*
X035052Y005269D01*
X035156Y005166D01*
X035262Y004908D01*
X035262Y004630D01*
X035156Y004373D01*
X035052Y004269D01*
X035156Y004166D01*
X035262Y003908D01*
X035262Y003630D01*
X035156Y003373D01*
X035052Y003269D01*
X035156Y003166D01*
X035262Y002908D01*
X035262Y002630D01*
X035156Y002373D01*
X035052Y002269D01*
X035156Y002166D01*
X035262Y001908D01*
X035262Y001630D01*
X035156Y001373D01*
X034959Y001176D01*
X034726Y001079D01*
X039073Y001079D01*
X039073Y011955D01*
X030618Y011955D01*
X030737Y011836D01*
X030822Y011631D01*
X030822Y011408D01*
X030822Y011249D01*
X030856Y011216D01*
X030962Y010958D01*
X030962Y010080D01*
X030856Y009823D01*
X030659Y009626D01*
X030402Y009519D01*
X030123Y009519D01*
X029866Y009626D01*
X029822Y009669D01*
X029822Y007381D01*
X029822Y007158D01*
X029737Y006952D01*
X029322Y006537D01*
X029322Y005303D01*
X029369Y005416D01*
X029566Y005613D01*
X029574Y005616D01*
X029488Y005702D01*
X029403Y005908D01*
X029403Y006019D01*
X030262Y006019D01*
X030262Y006019D01*
X029403Y006019D01*
X029403Y006131D01*
X029488Y006336D01*
X029645Y006494D01*
X029851Y006579D01*
X030262Y006579D01*
X030262Y006020D01*
X030263Y006020D01*
X030263Y006579D01*
X030674Y006579D01*
X030880Y006494D01*
X031037Y006336D01*
X031122Y006131D01*
X031122Y006019D01*
X030263Y006019D01*
X030262Y006237D02*
X030263Y006237D01*
X031079Y006237D02*
X031505Y006237D01*
X031703Y005918D02*
X031122Y005918D01*
X030972Y005600D02*
X031703Y005600D01*
X031703Y005281D02*
X031212Y005281D01*
X031262Y004963D02*
X031703Y004963D01*
X031703Y004644D02*
X031165Y004644D01*
X030822Y004325D02*
X031703Y004325D01*
X031703Y004007D02*
X030822Y004007D01*
X030822Y003688D02*
X031703Y003688D01*
X031703Y003370D02*
X031345Y003370D01*
X031664Y003051D02*
X031703Y003051D01*
X031013Y002769D02*
X030263Y002769D01*
X030263Y005019D01*
X029553Y005600D02*
X029322Y005600D01*
X029322Y005918D02*
X029403Y005918D01*
X029446Y006237D02*
X029322Y006237D01*
X029341Y006555D02*
X029794Y006555D01*
X029659Y006874D02*
X031263Y006874D01*
X031293Y006555D02*
X030732Y006555D01*
X030263Y006555D02*
X030262Y006555D01*
X029263Y007269D02*
X028763Y006769D01*
X028763Y001769D01*
X027263Y001769D01*
X027263Y002769D02*
X027263Y003769D01*
X027263Y004769D01*
X025763Y004769D01*
X023203Y004325D02*
X022822Y004325D01*
X022822Y004644D02*
X023103Y004644D01*
X023103Y004963D02*
X022822Y004963D01*
X022822Y005281D02*
X023203Y005281D01*
X023203Y005600D02*
X022822Y005600D01*
X022822Y005918D02*
X023203Y005918D01*
X023203Y006237D02*
X022822Y006237D01*
X022822Y006555D02*
X023203Y006555D01*
X023203Y006874D02*
X022822Y006874D01*
X020263Y006769D02*
X020263Y005769D01*
X020263Y004769D02*
X018763Y004769D01*
X020263Y004769D02*
X020263Y003769D01*
X020263Y002769D01*
X022822Y002733D02*
X023203Y002733D01*
X023203Y002414D02*
X022822Y002414D01*
X022822Y002096D02*
X023203Y002096D01*
X023203Y001777D02*
X022822Y001777D01*
X022263Y001769D02*
X020263Y001769D01*
X022263Y001769D02*
X022263Y010519D01*
X021263Y010519D02*
X021263Y007769D01*
X020263Y007769D01*
X020263Y008769D02*
X020263Y010519D01*
X018453Y010378D02*
X016962Y010378D01*
X016954Y010059D02*
X018453Y010059D01*
X018453Y009741D02*
X016774Y009741D01*
X015822Y009422D02*
X018453Y009422D01*
X017763Y009104D02*
X017762Y009104D01*
X017762Y008785D02*
X017763Y008785D01*
X017762Y008769D02*
X017762Y008769D01*
X016903Y008769D01*
X017762Y008769D01*
X017763Y008769D02*
X017763Y012269D01*
X018461Y011652D02*
X016814Y011652D01*
X016263Y011519D02*
X012013Y011519D01*
X012013Y007769D01*
X010763Y007769D01*
X013263Y007769D02*
X014263Y007769D01*
X014263Y010519D01*
X015263Y010519D02*
X015263Y001769D01*
X013263Y001769D01*
X013263Y002769D02*
X013263Y003769D01*
X013263Y004769D01*
X011763Y004769D01*
X022822Y004007D02*
X023203Y004007D01*
X023203Y003688D02*
X022822Y003688D01*
X022822Y003370D02*
X023203Y003370D01*
X023203Y003051D02*
X022822Y003051D01*
X022740Y001459D02*
X023203Y001459D01*
X023763Y000769D02*
X030263Y000769D01*
X030263Y002769D01*
X031591Y002414D02*
X031703Y002414D01*
X031703Y002096D02*
X030822Y002096D01*
X030822Y001777D02*
X031703Y001777D01*
X031785Y001459D02*
X030822Y001459D01*
X030822Y001140D02*
X033652Y001140D01*
X034873Y001140D02*
X039073Y001140D01*
X039073Y001459D02*
X035191Y001459D01*
X035262Y001777D02*
X039073Y001777D01*
X039073Y002096D02*
X035185Y002096D01*
X035173Y002414D02*
X039073Y002414D01*
X039073Y002733D02*
X035262Y002733D01*
X034263Y002769D02*
X033013Y002769D01*
X031703Y002733D02*
X031672Y002733D01*
X032263Y001769D02*
X032263Y006769D01*
X031396Y007192D02*
X029822Y007192D01*
X029822Y007511D02*
X031312Y007511D01*
X031263Y007829D02*
X029822Y007829D01*
X029822Y008148D02*
X031362Y008148D01*
X031330Y008466D02*
X029822Y008466D01*
X029822Y008785D02*
X031263Y008785D01*
X031343Y009104D02*
X029822Y009104D01*
X029822Y009422D02*
X031710Y009422D01*
X030774Y009741D02*
X039073Y009741D01*
X039073Y009422D02*
X034815Y009422D01*
X035182Y009104D02*
X039073Y009104D01*
X039073Y008785D02*
X035262Y008785D01*
X034263Y008769D02*
X032263Y008769D01*
X032815Y009422D02*
X033710Y009422D01*
X030954Y010059D02*
X039073Y010059D01*
X039073Y010378D02*
X030962Y010378D01*
X030263Y010519D02*
X030263Y011519D01*
X026013Y011519D01*
X026013Y007769D01*
X025013Y007769D01*
X027263Y007769D02*
X028263Y007769D01*
X028263Y010519D01*
X029263Y010519D02*
X029263Y007269D01*
X027263Y006769D02*
X027263Y005769D01*
X032263Y007769D02*
X034263Y007769D01*
X035213Y007511D02*
X039073Y007511D01*
X039073Y007192D02*
X035129Y007192D01*
X035262Y006874D02*
X039073Y006874D01*
X039073Y006555D02*
X035232Y006555D01*
X034263Y006769D02*
X034263Y005769D01*
X035250Y005600D02*
X039073Y005600D01*
X039073Y005281D02*
X035064Y005281D01*
X035240Y004963D02*
X039073Y004963D01*
X039073Y004644D02*
X035262Y004644D01*
X035109Y004325D02*
X039073Y004325D01*
X039073Y004007D02*
X035222Y004007D01*
X035262Y003688D02*
X039073Y003688D01*
X039073Y003370D02*
X035153Y003370D01*
X035203Y003051D02*
X039073Y003051D01*
X034263Y002769D02*
X034263Y003769D01*
X034263Y004769D01*
X035258Y005918D02*
X039073Y005918D01*
X039073Y006237D02*
X035085Y006237D01*
X035262Y007829D02*
X039073Y007829D01*
X039073Y008148D02*
X035163Y008148D01*
X035195Y008466D02*
X039073Y008466D01*
X039073Y010696D02*
X030962Y010696D01*
X030939Y011015D02*
X039073Y011015D01*
X039073Y011333D02*
X030822Y011333D01*
X030814Y011652D02*
X039073Y011652D01*
X027263Y010519D02*
X027263Y008769D01*
X025013Y008785D02*
X025012Y008785D01*
X025012Y008769D02*
X025012Y008769D01*
X025013Y008769D02*
X025013Y012269D01*
X025461Y011652D02*
X023814Y011652D01*
X023822Y011333D02*
X025453Y011333D01*
X025453Y011015D02*
X023939Y011015D01*
X023962Y010696D02*
X025453Y010696D01*
X025012Y009104D02*
X025013Y009104D01*
X018453Y010696D02*
X016962Y010696D01*
X016939Y011015D02*
X018453Y011015D01*
X018453Y011333D02*
X016822Y011333D01*
X016263Y011519D02*
X016263Y010519D01*
X013263Y010519D02*
X013263Y008769D01*
X011453Y009422D02*
X001072Y009422D01*
X001072Y009741D02*
X011453Y009741D01*
X011453Y010059D02*
X001072Y010059D01*
X001072Y010378D02*
X011453Y010378D01*
X011453Y010696D02*
X001072Y010696D01*
X001072Y011015D02*
X011453Y011015D01*
X011453Y011333D02*
X001072Y011333D01*
X001072Y011652D02*
X011461Y011652D01*
X015822Y009104D02*
X017005Y009104D01*
X016903Y008785D02*
X015822Y008785D01*
X032263Y001769D02*
X034263Y001769D01*
M02*
