G75*
G70*
%OFA0B0*%
%FSLAX24Y24*%
%IPPOS*%
%LPD*%
%AMOC8*
5,1,8,0,0,1.08239X$1,22.5*
%
%ADD10C,0.0000*%
%ADD11C,0.0080*%
%ADD12C,0.0030*%
%ADD13C,0.0040*%
%ADD14C,0.0050*%
%ADD15C,0.0060*%
D10*
X000513Y000519D02*
X000513Y012515D01*
X039633Y012515D01*
X039633Y000519D01*
X000513Y000519D01*
D11*
X021859Y008059D02*
X021859Y008519D01*
X022166Y008826D01*
X022166Y008980D01*
X021859Y008519D02*
X021553Y008826D01*
X021553Y008980D01*
X015166Y009230D02*
X014553Y008309D01*
X015166Y008309D02*
X014553Y009230D01*
X007270Y010713D02*
X007117Y010559D01*
X006656Y010559D01*
X006349Y010559D02*
X005889Y010559D01*
X005736Y010713D01*
X005889Y010866D01*
X006349Y010866D01*
X006349Y011019D02*
X006349Y010559D01*
X005429Y010559D02*
X005122Y010866D01*
X005275Y010866D02*
X005429Y011019D01*
X005429Y011326D01*
X005275Y011480D01*
X004815Y011480D01*
X004815Y010559D01*
X004508Y010713D02*
X004354Y010559D01*
X003894Y010559D01*
X003434Y010559D02*
X003127Y010559D01*
X002973Y010713D01*
X002973Y011019D01*
X003127Y011173D01*
X003434Y011173D01*
X003587Y011019D01*
X003587Y010866D01*
X002973Y010866D01*
X002666Y011019D02*
X002513Y010866D01*
X002053Y010866D01*
X002359Y010866D02*
X002666Y010559D01*
X002053Y010559D02*
X002053Y011480D01*
X002513Y011480D01*
X002666Y011326D01*
X002666Y011019D01*
X003894Y011173D02*
X004354Y011173D01*
X004508Y011019D01*
X004508Y010713D01*
X004815Y010866D02*
X005275Y010866D01*
X005889Y011173D02*
X006196Y011173D01*
X006349Y011019D01*
X006656Y011173D02*
X007117Y011173D01*
X007270Y011019D01*
X007270Y010713D01*
X006656Y010252D02*
X006656Y011173D01*
X003894Y011173D02*
X003894Y010252D01*
X028553Y009230D02*
X029166Y009230D01*
X029166Y009076D01*
X028553Y008463D01*
X028553Y008309D01*
X029166Y008309D01*
X033303Y009809D02*
X033916Y009809D01*
X033303Y009809D02*
X033303Y010730D01*
X033916Y010730D01*
X033609Y010269D02*
X033303Y010269D01*
D12*
X031511Y009154D02*
X031264Y009154D01*
X031264Y008969D01*
X031388Y009031D01*
X031449Y009031D01*
X031511Y008969D01*
X031511Y008846D01*
X031449Y008784D01*
X031326Y008784D01*
X031264Y008846D01*
X031143Y008784D02*
X030896Y008784D01*
X031019Y008784D02*
X031019Y009154D01*
X030896Y009031D01*
X030774Y009093D02*
X030713Y009154D01*
X030528Y009154D01*
X030528Y008784D01*
X030713Y008784D01*
X030774Y008846D01*
X030774Y009093D01*
X030713Y008154D02*
X030528Y008154D01*
X030528Y007784D01*
X030713Y007784D01*
X030774Y007846D01*
X030774Y008093D01*
X030713Y008154D01*
X030896Y008093D02*
X030958Y008154D01*
X031081Y008154D01*
X031143Y008093D01*
X031143Y008031D01*
X031081Y007969D01*
X031143Y007908D01*
X031143Y007846D01*
X031081Y007784D01*
X030958Y007784D01*
X030896Y007846D01*
X031019Y007969D02*
X031081Y007969D01*
X031264Y007846D02*
X031511Y008093D01*
X031511Y007846D01*
X031449Y007784D01*
X031326Y007784D01*
X031264Y007846D01*
X031264Y008093D01*
X031326Y008154D01*
X031449Y008154D01*
X031511Y008093D01*
X030699Y007154D02*
X030514Y007154D01*
X030514Y006784D01*
X030699Y006784D01*
X030761Y006846D01*
X030761Y007093D01*
X030699Y007154D01*
X030393Y007154D02*
X030393Y006784D01*
X030146Y007154D01*
X030146Y006784D01*
X030024Y006846D02*
X030024Y006969D01*
X029901Y006969D01*
X030024Y006846D02*
X029963Y006784D01*
X029839Y006784D01*
X029778Y006846D01*
X029778Y007093D01*
X029839Y007154D01*
X029963Y007154D01*
X030024Y007093D01*
X031778Y006154D02*
X031963Y006154D01*
X032024Y006093D01*
X032024Y005846D01*
X031963Y005784D01*
X031778Y005784D01*
X031778Y006154D01*
X032146Y006031D02*
X032269Y006154D01*
X032269Y005784D01*
X032146Y005784D02*
X032393Y005784D01*
X032514Y005969D02*
X032761Y005969D01*
X032699Y005784D02*
X032699Y006154D01*
X032514Y005969D01*
X030761Y004343D02*
X030699Y004404D01*
X030514Y004404D01*
X030514Y004034D01*
X030699Y004034D01*
X030761Y004096D01*
X030761Y004343D01*
X030393Y004343D02*
X030331Y004404D01*
X030146Y004404D01*
X030146Y004034D01*
X030331Y004034D01*
X030393Y004096D01*
X030393Y004343D01*
X030024Y004404D02*
X030024Y004158D01*
X029901Y004034D01*
X029778Y004158D01*
X029778Y004404D01*
X024261Y006596D02*
X024261Y006843D01*
X024199Y006904D01*
X024014Y006904D01*
X024014Y006534D01*
X024199Y006534D01*
X024261Y006596D01*
X023893Y006596D02*
X023893Y006843D01*
X023831Y006904D01*
X023646Y006904D01*
X023646Y006534D01*
X023831Y006534D01*
X023893Y006596D01*
X023524Y006658D02*
X023524Y006904D01*
X023524Y006658D02*
X023401Y006534D01*
X023278Y006658D01*
X023278Y006904D01*
X023339Y007534D02*
X023278Y007596D01*
X023339Y007534D02*
X023463Y007534D01*
X023524Y007596D01*
X023524Y007658D01*
X023463Y007719D01*
X023339Y007719D01*
X023278Y007781D01*
X023278Y007843D01*
X023339Y007904D01*
X023463Y007904D01*
X023524Y007843D01*
X023646Y007904D02*
X023769Y007904D01*
X023708Y007904D02*
X023708Y007534D01*
X023769Y007534D02*
X023646Y007534D01*
X023891Y007596D02*
X023953Y007534D01*
X024076Y007534D01*
X024138Y007596D01*
X024138Y007719D01*
X024015Y007719D01*
X023891Y007596D02*
X023891Y007843D01*
X023953Y007904D01*
X024076Y007904D01*
X024138Y007843D01*
X024199Y008534D02*
X024014Y008534D01*
X024014Y008904D01*
X024199Y008904D01*
X024261Y008843D01*
X024261Y008596D01*
X024199Y008534D01*
X023893Y008534D02*
X023893Y008904D01*
X023646Y008904D02*
X023893Y008534D01*
X023646Y008534D02*
X023646Y008904D01*
X023524Y008843D02*
X023463Y008904D01*
X023339Y008904D01*
X023278Y008843D01*
X023278Y008596D01*
X023339Y008534D01*
X023463Y008534D01*
X023524Y008596D01*
X023524Y008719D01*
X023401Y008719D01*
X017011Y008596D02*
X017011Y008843D01*
X016949Y008904D01*
X016764Y008904D01*
X016764Y008534D01*
X016949Y008534D01*
X017011Y008596D01*
X016643Y008534D02*
X016643Y008904D01*
X016396Y008904D02*
X016643Y008534D01*
X016396Y008534D02*
X016396Y008904D01*
X016274Y008843D02*
X016213Y008904D01*
X016089Y008904D01*
X016028Y008843D01*
X016028Y008596D01*
X016089Y008534D01*
X016213Y008534D01*
X016274Y008596D01*
X016274Y008719D01*
X016151Y008719D01*
X016089Y007904D02*
X016028Y007843D01*
X016028Y007781D01*
X016089Y007719D01*
X016213Y007719D01*
X016274Y007658D01*
X016274Y007596D01*
X016213Y007534D01*
X016089Y007534D01*
X016028Y007596D01*
X016396Y007534D02*
X016519Y007534D01*
X016458Y007534D02*
X016458Y007904D01*
X016519Y007904D02*
X016396Y007904D01*
X016274Y007843D02*
X016213Y007904D01*
X016089Y007904D01*
X016641Y007843D02*
X016641Y007596D01*
X016703Y007534D01*
X016826Y007534D01*
X016888Y007596D01*
X016888Y007719D01*
X016765Y007719D01*
X016888Y007843D02*
X016826Y007904D01*
X016703Y007904D01*
X016641Y007843D01*
X016581Y006904D02*
X016396Y006904D01*
X016396Y006534D01*
X016581Y006534D01*
X016643Y006596D01*
X016643Y006843D01*
X016581Y006904D01*
X016764Y006904D02*
X016949Y006904D01*
X017011Y006843D01*
X017011Y006596D01*
X016949Y006534D01*
X016764Y006534D01*
X016764Y006904D01*
X016274Y006904D02*
X016274Y006658D01*
X016151Y006534D01*
X016028Y006658D01*
X016028Y006904D01*
X010011Y006843D02*
X010011Y006596D01*
X009949Y006534D01*
X009764Y006534D01*
X009764Y006904D01*
X009949Y006904D01*
X010011Y006843D01*
X009643Y006843D02*
X009581Y006904D01*
X009396Y006904D01*
X009396Y006534D01*
X009581Y006534D01*
X009643Y006596D01*
X009643Y006843D01*
X009274Y006904D02*
X009274Y006658D01*
X009151Y006534D01*
X009028Y006658D01*
X009028Y006904D01*
X009089Y007534D02*
X009028Y007596D01*
X009089Y007534D02*
X009213Y007534D01*
X009274Y007596D01*
X009274Y007658D01*
X009213Y007719D01*
X009089Y007719D01*
X009028Y007781D01*
X009028Y007843D01*
X009089Y007904D01*
X009213Y007904D01*
X009274Y007843D01*
X009396Y007904D02*
X009519Y007904D01*
X009458Y007904D02*
X009458Y007534D01*
X009519Y007534D02*
X009396Y007534D01*
X009641Y007596D02*
X009703Y007534D01*
X009826Y007534D01*
X009888Y007596D01*
X009888Y007719D01*
X009765Y007719D01*
X009641Y007596D02*
X009641Y007843D01*
X009703Y007904D01*
X009826Y007904D01*
X009888Y007843D01*
X009949Y008534D02*
X010011Y008596D01*
X010011Y008843D01*
X009949Y008904D01*
X009764Y008904D01*
X009764Y008534D01*
X009949Y008534D01*
X009643Y008534D02*
X009643Y008904D01*
X009396Y008904D02*
X009643Y008534D01*
X009396Y008534D02*
X009396Y008904D01*
X009274Y008843D02*
X009213Y008904D01*
X009089Y008904D01*
X009028Y008843D01*
X009028Y008596D01*
X009089Y008534D01*
X009213Y008534D01*
X009274Y008596D01*
X009274Y008719D01*
X009151Y008719D01*
X012778Y011284D02*
X012963Y011284D01*
X013024Y011346D01*
X013024Y011593D01*
X012963Y011654D01*
X012778Y011654D01*
X012778Y011284D01*
X013146Y011469D02*
X013393Y011469D01*
X013514Y011346D02*
X013514Y011284D01*
X013514Y011346D02*
X013761Y011593D01*
X013761Y011654D01*
X013514Y011654D01*
X013331Y011654D02*
X013146Y011469D01*
X013331Y011284D02*
X013331Y011654D01*
X013778Y011784D02*
X013963Y011784D01*
X014024Y011846D01*
X014024Y012093D01*
X013963Y012154D01*
X013778Y012154D01*
X013778Y011784D01*
X014146Y011969D02*
X014393Y011969D01*
X014514Y011908D02*
X014514Y011846D01*
X014576Y011784D01*
X014699Y011784D01*
X014761Y011846D01*
X014761Y011908D01*
X014699Y011969D01*
X014576Y011969D01*
X014514Y012031D01*
X014514Y012093D01*
X014576Y012154D01*
X014699Y012154D01*
X014761Y012093D01*
X014761Y012031D01*
X014699Y011969D01*
X014576Y011969D02*
X014514Y011908D01*
X014331Y011784D02*
X014331Y012154D01*
X014146Y011969D01*
X014778Y011654D02*
X014963Y011654D01*
X015024Y011593D01*
X015024Y011346D01*
X014963Y011284D01*
X014778Y011284D01*
X014778Y011654D01*
X015146Y011469D02*
X015393Y011469D01*
X015514Y011469D02*
X015699Y011469D01*
X015761Y011408D01*
X015761Y011346D01*
X015699Y011284D01*
X015576Y011284D01*
X015514Y011346D01*
X015514Y011469D01*
X015638Y011593D01*
X015761Y011654D01*
X015778Y011784D02*
X015963Y011784D01*
X016024Y011846D01*
X016024Y012093D01*
X015963Y012154D01*
X015778Y012154D01*
X015778Y011784D01*
X016146Y011969D02*
X016393Y011969D01*
X016514Y011969D02*
X016638Y012031D01*
X016699Y012031D01*
X016761Y011969D01*
X016761Y011846D01*
X016699Y011784D01*
X016576Y011784D01*
X016514Y011846D01*
X016514Y011969D02*
X016514Y012154D01*
X016761Y012154D01*
X016331Y012154D02*
X016146Y011969D01*
X016331Y011784D02*
X016331Y012154D01*
X015331Y011654D02*
X015146Y011469D01*
X015331Y011284D02*
X015331Y011654D01*
X019778Y011654D02*
X019778Y011284D01*
X019963Y011284D01*
X020024Y011346D01*
X020024Y011593D01*
X019963Y011654D01*
X019778Y011654D01*
X020146Y011469D02*
X020393Y011469D01*
X020514Y011593D02*
X020576Y011654D01*
X020699Y011654D01*
X020761Y011593D01*
X020761Y011531D01*
X020514Y011284D01*
X020761Y011284D01*
X020331Y011284D02*
X020331Y011654D01*
X020146Y011469D01*
X020528Y011784D02*
X020713Y011784D01*
X020774Y011846D01*
X020774Y012093D01*
X020713Y012154D01*
X020528Y012154D01*
X020528Y011784D01*
X020896Y011969D02*
X021143Y011969D01*
X021264Y011846D02*
X021326Y011784D01*
X021449Y011784D01*
X021511Y011846D01*
X021511Y011908D01*
X021449Y011969D01*
X021388Y011969D01*
X021449Y011969D02*
X021511Y012031D01*
X021511Y012093D01*
X021449Y012154D01*
X021326Y012154D01*
X021264Y012093D01*
X021081Y012154D02*
X020896Y011969D01*
X021081Y011784D02*
X021081Y012154D01*
X021778Y011654D02*
X021963Y011654D01*
X022024Y011593D01*
X022024Y011346D01*
X021963Y011284D01*
X021778Y011284D01*
X021778Y011654D01*
X022146Y011469D02*
X022393Y011469D01*
X022514Y011346D02*
X022514Y011593D01*
X022576Y011654D01*
X022699Y011654D01*
X022761Y011593D01*
X022514Y011346D01*
X022576Y011284D01*
X022699Y011284D01*
X022761Y011346D01*
X022761Y011593D01*
X022331Y011654D02*
X022146Y011469D01*
X022331Y011284D02*
X022331Y011654D01*
X022778Y011784D02*
X022963Y011784D01*
X023024Y011846D01*
X023024Y012093D01*
X022963Y012154D01*
X022778Y012154D01*
X022778Y011784D01*
X023146Y011969D02*
X023393Y011969D01*
X023514Y011969D02*
X023761Y011969D01*
X023699Y011784D02*
X023699Y012154D01*
X023514Y011969D01*
X023331Y011784D02*
X023331Y012154D01*
X023146Y011969D01*
X026778Y011654D02*
X026778Y011284D01*
X026963Y011284D01*
X027024Y011346D01*
X027024Y011593D01*
X026963Y011654D01*
X026778Y011654D01*
X027146Y011593D02*
X027208Y011654D01*
X027331Y011654D01*
X027393Y011593D01*
X027393Y011531D01*
X027331Y011469D01*
X027393Y011408D01*
X027393Y011346D01*
X027331Y011284D01*
X027208Y011284D01*
X027146Y011346D01*
X027269Y011469D02*
X027331Y011469D01*
X027514Y011469D02*
X027699Y011654D01*
X027699Y011284D01*
X027761Y011469D02*
X027514Y011469D01*
X027778Y011784D02*
X027963Y011784D01*
X028024Y011846D01*
X028024Y012093D01*
X027963Y012154D01*
X027778Y012154D01*
X027778Y011784D01*
X028146Y011846D02*
X028208Y011784D01*
X028331Y011784D01*
X028393Y011846D01*
X028393Y011908D01*
X028331Y011969D01*
X028269Y011969D01*
X028331Y011969D02*
X028393Y012031D01*
X028393Y012093D01*
X028331Y012154D01*
X028208Y012154D01*
X028146Y012093D01*
X028514Y012154D02*
X028514Y011969D01*
X028638Y012031D01*
X028699Y012031D01*
X028761Y011969D01*
X028761Y011846D01*
X028699Y011784D01*
X028576Y011784D01*
X028514Y011846D01*
X028778Y011654D02*
X028963Y011654D01*
X029024Y011593D01*
X029024Y011346D01*
X028963Y011284D01*
X028778Y011284D01*
X028778Y011654D01*
X029146Y011593D02*
X029208Y011654D01*
X029331Y011654D01*
X029393Y011593D01*
X029393Y011531D01*
X029331Y011469D01*
X029393Y011408D01*
X029393Y011346D01*
X029331Y011284D01*
X029208Y011284D01*
X029146Y011346D01*
X029269Y011469D02*
X029331Y011469D01*
X029514Y011346D02*
X029576Y011284D01*
X029699Y011284D01*
X029761Y011346D01*
X029761Y011408D01*
X029699Y011469D01*
X029638Y011469D01*
X029699Y011469D02*
X029761Y011531D01*
X029761Y011593D01*
X029699Y011654D01*
X029576Y011654D01*
X029514Y011593D01*
X029778Y011784D02*
X029963Y011784D01*
X030024Y011846D01*
X030024Y012093D01*
X029963Y012154D01*
X029778Y012154D01*
X029778Y011784D01*
X030146Y011846D02*
X030208Y011784D01*
X030331Y011784D01*
X030393Y011846D01*
X030393Y011908D01*
X030331Y011969D01*
X030269Y011969D01*
X030331Y011969D02*
X030393Y012031D01*
X030393Y012093D01*
X030331Y012154D01*
X030208Y012154D01*
X030146Y012093D01*
X030514Y012154D02*
X030761Y012154D01*
X030761Y012093D01*
X030514Y011846D01*
X030514Y011784D01*
X028761Y012154D02*
X028514Y012154D01*
D13*
X008708Y009346D02*
X008708Y008962D01*
X008631Y008886D01*
X008554Y008886D01*
X008477Y009039D02*
X008401Y009116D01*
X008401Y009269D01*
X008477Y009346D01*
X008708Y009346D01*
X008247Y009346D02*
X008170Y009346D01*
X008017Y009193D01*
X008017Y009346D02*
X008017Y009039D01*
X007864Y009116D02*
X007864Y009269D01*
X007787Y009346D01*
X007633Y009346D01*
X007557Y009269D01*
X007557Y009116D01*
X007633Y009039D01*
X007787Y009039D01*
X007864Y009116D01*
X007403Y009116D02*
X007403Y009039D01*
X007327Y009039D01*
X007327Y009116D01*
X007403Y009116D01*
X007173Y009116D02*
X007096Y009039D01*
X006866Y009039D01*
X006713Y009039D02*
X006483Y009039D01*
X006406Y009116D01*
X006483Y009193D01*
X006713Y009193D01*
X006713Y009269D02*
X006713Y009039D01*
X006866Y008886D02*
X006866Y009346D01*
X007096Y009346D01*
X007173Y009269D01*
X007173Y009116D01*
X006713Y009269D02*
X006636Y009346D01*
X006483Y009346D01*
X006252Y009346D02*
X006176Y009346D01*
X006022Y009193D01*
X006022Y009346D02*
X006022Y009039D01*
X005869Y009116D02*
X005792Y009039D01*
X005562Y009039D01*
X005562Y008886D02*
X005562Y009346D01*
X005792Y009346D01*
X005869Y009269D01*
X005869Y009116D01*
X005408Y009193D02*
X005101Y009193D01*
X005101Y009269D02*
X005101Y009116D01*
X005178Y009039D01*
X005332Y009039D01*
X005408Y009193D02*
X005408Y009269D01*
X005332Y009346D01*
X005178Y009346D01*
X005101Y009269D01*
X004948Y009346D02*
X004871Y009346D01*
X004718Y009193D01*
X004718Y009346D02*
X004718Y009039D01*
X004258Y009039D02*
X004564Y009499D01*
X004104Y009499D02*
X003797Y009039D01*
X003644Y009039D02*
X003567Y009039D01*
X003567Y009116D01*
X003644Y009116D01*
X003644Y009039D01*
X003414Y009116D02*
X003337Y009039D01*
X003107Y009039D01*
X003107Y008886D02*
X003107Y009346D01*
X003337Y009346D01*
X003414Y009269D01*
X003414Y009116D01*
X002953Y009039D02*
X002876Y009116D01*
X002876Y009423D01*
X002800Y009346D02*
X002953Y009346D01*
X002646Y009346D02*
X002493Y009346D01*
X002570Y009423D02*
X002570Y009116D01*
X002646Y009039D01*
X002339Y009039D02*
X002339Y009269D01*
X002263Y009346D01*
X002109Y009346D01*
X002033Y009269D01*
X002033Y009499D02*
X002033Y009039D01*
X003567Y009269D02*
X003567Y009346D01*
X003644Y009346D01*
X003644Y009269D01*
X003567Y009269D01*
X002570Y008326D02*
X002570Y008249D01*
X002570Y008096D02*
X002570Y007789D01*
X002646Y007789D02*
X002493Y007789D01*
X002339Y007789D02*
X002033Y007789D01*
X002033Y008249D01*
X002493Y008096D02*
X002570Y008096D01*
X002800Y008019D02*
X002800Y007866D01*
X002876Y007789D01*
X003107Y007789D01*
X003260Y007866D02*
X003260Y008019D01*
X003337Y008096D01*
X003490Y008096D01*
X003567Y008019D01*
X003567Y007943D01*
X003260Y007943D01*
X003260Y007866D02*
X003337Y007789D01*
X003490Y007789D01*
X003720Y007789D02*
X003720Y008096D01*
X003951Y008096D01*
X004027Y008019D01*
X004027Y007789D01*
X004181Y007866D02*
X004258Y007789D01*
X004488Y007789D01*
X004641Y007866D02*
X004718Y007789D01*
X004871Y007789D01*
X004948Y007943D02*
X004641Y007943D01*
X004641Y008019D02*
X004641Y007866D01*
X004641Y008019D02*
X004718Y008096D01*
X004871Y008096D01*
X004948Y008019D01*
X004948Y007943D01*
X005562Y007866D02*
X005639Y007789D01*
X005792Y007789D01*
X005869Y007866D01*
X005869Y008019D01*
X005715Y008019D01*
X005562Y007866D02*
X005562Y008173D01*
X005639Y008249D01*
X005792Y008249D01*
X005869Y008173D01*
X006022Y008249D02*
X006252Y008249D01*
X006329Y008173D01*
X006329Y008019D01*
X006252Y007943D01*
X006022Y007943D01*
X006022Y007789D02*
X006022Y008249D01*
X006483Y008249D02*
X006483Y007789D01*
X006789Y007789D01*
X007403Y008096D02*
X007557Y007789D01*
X007710Y008096D01*
X007864Y008173D02*
X007940Y008249D01*
X008094Y008249D01*
X008171Y008173D01*
X008171Y008096D01*
X007864Y007789D01*
X008171Y007789D01*
X006713Y007076D02*
X006713Y006999D01*
X006713Y006846D02*
X006713Y006539D01*
X006789Y006539D02*
X006636Y006539D01*
X006943Y006616D02*
X007020Y006693D01*
X007250Y006693D01*
X007250Y006769D02*
X007250Y006539D01*
X007020Y006539D01*
X006943Y006616D01*
X007173Y006846D02*
X007250Y006769D01*
X007173Y006846D02*
X007020Y006846D01*
X006713Y006846D02*
X006636Y006846D01*
X006483Y006846D02*
X006406Y006846D01*
X006252Y006693D01*
X006252Y006846D02*
X006252Y006539D01*
X006099Y006539D02*
X005869Y006539D01*
X005792Y006616D01*
X005792Y006769D01*
X005869Y006846D01*
X006099Y006846D01*
X006099Y006999D02*
X006099Y006539D01*
X005639Y006539D02*
X005639Y006846D01*
X005485Y006999D01*
X005332Y006846D01*
X005332Y006539D01*
X005332Y006769D02*
X005639Y006769D01*
X004718Y006769D02*
X004641Y006769D01*
X004641Y006846D01*
X004718Y006846D01*
X004718Y006769D01*
X004718Y006616D02*
X004718Y006539D01*
X004641Y006539D01*
X004641Y006616D01*
X004718Y006616D01*
X004488Y006539D02*
X004488Y006769D01*
X004411Y006846D01*
X004181Y006846D01*
X004181Y006539D01*
X004027Y006539D02*
X003797Y006539D01*
X003720Y006616D01*
X003720Y006769D01*
X003797Y006846D01*
X004027Y006846D01*
X004027Y006462D01*
X003951Y006386D01*
X003874Y006386D01*
X003567Y006539D02*
X003414Y006539D01*
X003490Y006539D02*
X003490Y006846D01*
X003414Y006846D01*
X003260Y006846D02*
X003030Y006846D01*
X002953Y006769D01*
X003030Y006693D01*
X003183Y006693D01*
X003260Y006616D01*
X003183Y006539D01*
X002953Y006539D01*
X002800Y006693D02*
X002493Y006693D01*
X002493Y006769D02*
X002570Y006846D01*
X002723Y006846D01*
X002800Y006769D01*
X002800Y006693D01*
X002723Y006539D02*
X002570Y006539D01*
X002493Y006616D01*
X002493Y006769D01*
X002339Y006616D02*
X002339Y006923D01*
X002263Y006999D01*
X002033Y006999D01*
X002033Y006539D01*
X002263Y006539D01*
X002339Y006616D01*
X003490Y006999D02*
X003490Y007076D01*
X004181Y007866D02*
X004181Y008019D01*
X004258Y008096D01*
X004488Y008096D01*
X003107Y008096D02*
X002876Y008096D01*
X002800Y008019D01*
X007403Y006846D02*
X007403Y006539D01*
X007710Y006539D02*
X007710Y006769D01*
X007633Y006846D01*
X007403Y006846D01*
X008477Y009039D02*
X008708Y009039D01*
X003797Y004499D02*
X003797Y004039D01*
X003720Y004039D02*
X003874Y004039D01*
X004027Y004116D02*
X004104Y004039D01*
X004334Y004039D01*
X004334Y004346D01*
X004027Y004346D02*
X004027Y004116D01*
X003567Y004116D02*
X003490Y004039D01*
X003337Y004039D01*
X003260Y004116D01*
X003260Y004269D01*
X003337Y004346D01*
X003490Y004346D01*
X003567Y004269D01*
X003567Y004116D01*
X003107Y004039D02*
X002953Y004039D01*
X003030Y004039D02*
X003030Y004499D01*
X002953Y004499D01*
X002800Y004269D02*
X002723Y004346D01*
X002570Y004346D01*
X002493Y004269D01*
X002493Y004116D01*
X002570Y004039D01*
X002723Y004039D01*
X002800Y004116D01*
X002800Y004269D01*
X002339Y004269D02*
X002339Y004423D01*
X002263Y004499D01*
X002033Y004499D01*
X002033Y004039D01*
X002033Y004193D02*
X002263Y004193D01*
X002339Y004269D01*
X003720Y004499D02*
X003797Y004499D01*
X004948Y004269D02*
X005025Y004346D01*
X005255Y004346D01*
X005408Y004346D02*
X005562Y004346D01*
X005485Y004423D02*
X005485Y004116D01*
X005562Y004039D01*
X005715Y004116D02*
X005715Y004269D01*
X005792Y004346D01*
X005945Y004346D01*
X006022Y004269D01*
X006022Y004193D01*
X005715Y004193D01*
X005715Y004116D02*
X005792Y004039D01*
X005945Y004039D01*
X006176Y004039D02*
X006406Y004039D01*
X006483Y004116D01*
X006483Y004269D01*
X006406Y004346D01*
X006176Y004346D01*
X006176Y003886D01*
X006636Y003886D02*
X006636Y004346D01*
X006866Y004346D01*
X006943Y004269D01*
X006943Y004116D01*
X006866Y004039D01*
X006636Y004039D01*
X007096Y004116D02*
X007096Y004269D01*
X007173Y004346D01*
X007327Y004346D01*
X007403Y004269D01*
X007403Y004193D01*
X007096Y004193D01*
X007096Y004116D02*
X007173Y004039D01*
X007327Y004039D01*
X007557Y004039D02*
X007557Y004346D01*
X007557Y004193D02*
X007710Y004346D01*
X007787Y004346D01*
X007940Y004269D02*
X008017Y004346D01*
X008247Y004346D01*
X008171Y004193D02*
X008017Y004193D01*
X007940Y004269D01*
X008171Y004193D02*
X008247Y004116D01*
X008171Y004039D01*
X007940Y004039D01*
X007710Y003499D02*
X007710Y003039D01*
X007557Y003039D02*
X007864Y003039D01*
X008017Y003039D02*
X008094Y003039D01*
X008094Y003116D01*
X008017Y003116D01*
X008017Y003039D01*
X008247Y003116D02*
X008554Y003423D01*
X008554Y003116D01*
X008477Y003039D01*
X008324Y003039D01*
X008247Y003116D01*
X008247Y003423D01*
X008324Y003499D01*
X008477Y003499D01*
X008554Y003423D01*
X007710Y003499D02*
X007557Y003346D01*
X007403Y003193D02*
X007403Y003499D01*
X007096Y003499D02*
X007096Y003193D01*
X007250Y003039D01*
X007403Y003193D01*
X006483Y003193D02*
X006176Y003193D01*
X006176Y003269D02*
X006176Y003116D01*
X006252Y003039D01*
X006406Y003039D01*
X006483Y003193D02*
X006483Y003269D01*
X006406Y003346D01*
X006252Y003346D01*
X006176Y003269D01*
X006022Y003346D02*
X005792Y003346D01*
X005715Y003269D01*
X005715Y003116D01*
X005792Y003039D01*
X006022Y003039D01*
X006022Y003499D01*
X005485Y003499D02*
X005485Y003576D01*
X005485Y003346D02*
X005485Y003039D01*
X005408Y003039D02*
X005562Y003039D01*
X005255Y003116D02*
X005178Y003193D01*
X005025Y003193D01*
X004948Y003269D01*
X005025Y003346D01*
X005255Y003346D01*
X005408Y003346D02*
X005485Y003346D01*
X005255Y003116D02*
X005178Y003039D01*
X004948Y003039D01*
X004334Y003039D02*
X004181Y003039D01*
X004258Y003039D02*
X004258Y003499D01*
X004181Y003499D01*
X003951Y003346D02*
X004027Y003269D01*
X004027Y003039D01*
X003797Y003039D01*
X003720Y003116D01*
X003797Y003193D01*
X004027Y003193D01*
X003951Y003346D02*
X003797Y003346D01*
X003567Y003269D02*
X003567Y003039D01*
X003260Y003039D02*
X003260Y003346D01*
X003490Y003346D01*
X003567Y003269D01*
X003107Y003346D02*
X002876Y003346D01*
X002800Y003269D01*
X002800Y003116D01*
X002876Y003039D01*
X003107Y003039D01*
X003107Y002962D02*
X003107Y003346D01*
X002570Y003346D02*
X002570Y003039D01*
X002646Y003039D02*
X002493Y003039D01*
X002339Y003116D02*
X002339Y003193D01*
X002263Y003269D01*
X002109Y003269D01*
X002033Y003346D01*
X002033Y003423D01*
X002109Y003499D01*
X002263Y003499D01*
X002339Y003423D01*
X002493Y003346D02*
X002570Y003346D01*
X002570Y003499D02*
X002570Y003576D01*
X002339Y003116D02*
X002263Y003039D01*
X002109Y003039D01*
X002033Y003116D01*
X002953Y002886D02*
X003030Y002886D01*
X003107Y002962D01*
X004948Y004039D02*
X005178Y004039D01*
X005255Y004116D01*
X005178Y004193D01*
X005025Y004193D01*
X004948Y004269D01*
D14*
X010859Y004284D02*
X010859Y003944D01*
X010859Y004058D02*
X011029Y004058D01*
X011086Y004114D01*
X011086Y004228D01*
X011029Y004284D01*
X010859Y004284D01*
X010973Y004058D02*
X011086Y003944D01*
X011218Y003944D02*
X011445Y003944D01*
X011332Y003944D02*
X011332Y004284D01*
X011218Y004171D01*
X017859Y004284D02*
X017859Y003944D01*
X017859Y004058D02*
X018029Y004058D01*
X018086Y004114D01*
X018086Y004228D01*
X018029Y004284D01*
X017859Y004284D01*
X017973Y004058D02*
X018086Y003944D01*
X018218Y003944D02*
X018445Y004171D01*
X018445Y004228D01*
X018389Y004284D01*
X018275Y004284D01*
X018218Y004228D01*
X018218Y003944D02*
X018445Y003944D01*
X024859Y003944D02*
X024859Y004284D01*
X025029Y004284D01*
X025086Y004228D01*
X025086Y004114D01*
X025029Y004058D01*
X024859Y004058D01*
X024973Y004058D02*
X025086Y003944D01*
X025218Y004001D02*
X025275Y003944D01*
X025389Y003944D01*
X025445Y004001D01*
X025445Y004058D01*
X025389Y004114D01*
X025332Y004114D01*
X025389Y004114D02*
X025445Y004171D01*
X025445Y004228D01*
X025389Y004284D01*
X025275Y004284D01*
X025218Y004228D01*
X029067Y004664D02*
X029067Y004814D01*
X029067Y004739D02*
X029442Y004739D01*
X029518Y004664D01*
X029518Y004589D01*
X029442Y004514D01*
X029367Y004974D02*
X029367Y005200D01*
X029292Y005275D01*
X029142Y005275D01*
X029067Y005200D01*
X029067Y004974D01*
X029518Y004974D01*
X029518Y005435D02*
X029518Y005735D01*
X029518Y005585D02*
X029067Y005585D01*
X029217Y005435D01*
X032109Y002284D02*
X032279Y002284D01*
X032336Y002228D01*
X032336Y002114D01*
X032279Y002058D01*
X032109Y002058D01*
X032223Y002058D02*
X032336Y001944D01*
X032109Y001944D02*
X032109Y002284D01*
X032468Y002114D02*
X032695Y002114D01*
X032639Y001944D02*
X032639Y002284D01*
X032468Y002114D01*
D15*
X032513Y002419D02*
X032463Y002469D01*
X031563Y002469D01*
X031513Y002419D01*
X031413Y002419D01*
X031396Y002421D01*
X031379Y002425D01*
X031363Y002432D01*
X031349Y002442D01*
X031336Y002455D01*
X031326Y002469D01*
X031319Y002485D01*
X031315Y002502D01*
X031313Y002519D01*
X032513Y002419D02*
X032613Y002419D01*
X032630Y002421D01*
X032647Y002425D01*
X032663Y002432D01*
X032677Y002442D01*
X032690Y002455D01*
X032700Y002469D01*
X032707Y002485D01*
X032711Y002502D01*
X032713Y002519D01*
X033763Y002519D02*
X033763Y003019D01*
X034013Y003269D01*
X033763Y003519D01*
X033763Y004019D01*
X034013Y004269D01*
X033763Y004519D01*
X033763Y005019D01*
X034013Y005269D01*
X033763Y005519D01*
X033763Y006019D01*
X034013Y006269D01*
X033763Y006519D01*
X033763Y007019D01*
X034013Y007269D01*
X033763Y007519D01*
X033763Y008019D01*
X034013Y008269D01*
X033763Y008519D01*
X033763Y009019D01*
X034013Y009269D01*
X034513Y009269D01*
X034763Y009019D01*
X034763Y008519D01*
X034513Y008269D01*
X034763Y008019D01*
X034763Y007519D01*
X034513Y007269D01*
X034013Y007269D01*
X034513Y007269D02*
X034763Y007019D01*
X034763Y006519D01*
X034513Y006269D01*
X034763Y006019D01*
X034763Y005519D01*
X034513Y005269D01*
X034763Y005019D01*
X034763Y004519D01*
X034513Y004269D01*
X034013Y004269D01*
X034513Y004269D02*
X034763Y004019D01*
X034763Y003519D01*
X034513Y003269D01*
X034763Y003019D01*
X034763Y002519D01*
X034513Y002269D01*
X034763Y002019D01*
X034763Y001519D01*
X034513Y001269D01*
X034013Y001269D01*
X033763Y001519D01*
X033763Y002019D01*
X034013Y002269D01*
X033763Y002519D01*
X034013Y002269D02*
X034513Y002269D01*
X032713Y003019D02*
X032711Y003036D01*
X032707Y003053D01*
X032700Y003069D01*
X032690Y003083D01*
X032677Y003096D01*
X032663Y003106D01*
X032647Y003113D01*
X032630Y003117D01*
X032613Y003119D01*
X032513Y003119D01*
X032463Y003069D01*
X031563Y003069D01*
X031513Y003119D01*
X031413Y003119D01*
X031396Y003117D01*
X031379Y003113D01*
X031363Y003106D01*
X031349Y003096D01*
X031336Y003083D01*
X031326Y003069D01*
X031319Y003053D01*
X031315Y003036D01*
X031313Y003019D01*
X034013Y003269D02*
X034513Y003269D01*
X030763Y004769D02*
X030513Y004519D01*
X030013Y004519D01*
X029763Y004769D01*
X029763Y005269D01*
X030013Y005519D01*
X029763Y005769D01*
X029763Y006269D01*
X030013Y006519D01*
X030513Y006519D01*
X030763Y006269D01*
X030763Y005769D01*
X030513Y005519D01*
X030763Y005269D01*
X030763Y004769D01*
X030513Y005519D02*
X030013Y005519D01*
X031763Y006519D02*
X032013Y006269D01*
X032513Y006269D01*
X032763Y006519D01*
X032763Y007019D01*
X032513Y007269D01*
X032763Y007519D01*
X032763Y008019D01*
X032513Y008269D01*
X032763Y008519D01*
X032763Y009019D01*
X032513Y009269D01*
X032013Y009269D01*
X031763Y009019D01*
X031763Y008519D01*
X032013Y008269D01*
X032513Y008269D01*
X032013Y008269D02*
X031763Y008019D01*
X031763Y007519D01*
X032013Y007269D01*
X032513Y007269D01*
X032013Y007269D02*
X031763Y007019D01*
X031763Y006519D01*
X034013Y006269D02*
X034513Y006269D01*
X034513Y005269D02*
X034013Y005269D01*
X027763Y005019D02*
X027763Y004519D01*
X027513Y004269D01*
X027013Y004269D01*
X026763Y004519D01*
X026763Y005019D01*
X027013Y005269D01*
X026763Y005519D01*
X026763Y006019D01*
X027013Y006269D01*
X026763Y006519D01*
X026763Y007019D01*
X027013Y007269D01*
X026763Y007519D01*
X026763Y008019D01*
X027013Y008269D01*
X026763Y008519D01*
X026763Y009019D01*
X027013Y009269D01*
X027513Y009269D01*
X027763Y009019D01*
X027763Y008519D01*
X027513Y008269D01*
X027763Y008019D01*
X027763Y007519D01*
X027513Y007269D01*
X027013Y007269D01*
X027513Y007269D02*
X027763Y007019D01*
X027763Y006519D01*
X027513Y006269D01*
X027763Y006019D01*
X027763Y005519D01*
X027513Y005269D01*
X027763Y005019D01*
X027513Y005269D02*
X027013Y005269D01*
X025363Y005119D02*
X025263Y005119D01*
X025213Y005069D01*
X024313Y005069D01*
X024263Y005119D01*
X024163Y005119D01*
X024146Y005117D01*
X024129Y005113D01*
X024113Y005106D01*
X024099Y005096D01*
X024086Y005083D01*
X024076Y005069D01*
X024069Y005053D01*
X024065Y005036D01*
X024063Y005019D01*
X025363Y005119D02*
X025380Y005117D01*
X025397Y005113D01*
X025413Y005106D01*
X025427Y005096D01*
X025440Y005083D01*
X025450Y005069D01*
X025457Y005053D01*
X025461Y005036D01*
X025463Y005019D01*
X025463Y004519D02*
X025461Y004502D01*
X025457Y004485D01*
X025450Y004469D01*
X025440Y004455D01*
X025427Y004442D01*
X025413Y004432D01*
X025397Y004425D01*
X025380Y004421D01*
X025363Y004419D01*
X025263Y004419D01*
X025213Y004469D01*
X024313Y004469D01*
X024263Y004419D01*
X024163Y004419D01*
X024146Y004421D01*
X024129Y004425D01*
X024113Y004432D01*
X024099Y004442D01*
X024086Y004455D01*
X024076Y004469D01*
X024069Y004485D01*
X024065Y004502D01*
X024063Y004519D01*
X026763Y004019D02*
X026763Y003519D01*
X027013Y003269D01*
X026763Y003019D01*
X026763Y002519D01*
X027013Y002269D01*
X026763Y002019D01*
X026763Y001519D01*
X027013Y001269D01*
X027513Y001269D01*
X027763Y001519D01*
X027763Y002019D01*
X027513Y002269D01*
X027013Y002269D01*
X027513Y002269D02*
X027763Y002519D01*
X027763Y003019D01*
X027513Y003269D01*
X027013Y003269D01*
X027513Y003269D02*
X027763Y003519D01*
X027763Y004019D01*
X027513Y004269D01*
X027013Y004269D02*
X026763Y004019D01*
X020763Y004019D02*
X020763Y003519D01*
X020513Y003269D01*
X020763Y003019D01*
X020763Y002519D01*
X020513Y002269D01*
X020763Y002019D01*
X020763Y001519D01*
X020513Y001269D01*
X020013Y001269D01*
X019763Y001519D01*
X019763Y002019D01*
X020013Y002269D01*
X019763Y002519D01*
X019763Y003019D01*
X020013Y003269D01*
X019763Y003519D01*
X019763Y004019D01*
X020013Y004269D01*
X019763Y004519D01*
X019763Y005019D01*
X020013Y005269D01*
X019763Y005519D01*
X019763Y006019D01*
X020013Y006269D01*
X019763Y006519D01*
X019763Y007019D01*
X020013Y007269D01*
X019763Y007519D01*
X019763Y008019D01*
X020013Y008269D01*
X019763Y008519D01*
X019763Y009019D01*
X020013Y009269D01*
X020513Y009269D01*
X020763Y009019D01*
X020763Y008519D01*
X020513Y008269D01*
X020763Y008019D01*
X020763Y007519D01*
X020513Y007269D01*
X020013Y007269D01*
X020513Y007269D02*
X020763Y007019D01*
X020763Y006519D01*
X020513Y006269D01*
X020763Y006019D01*
X020763Y005519D01*
X020513Y005269D01*
X020763Y005019D01*
X020763Y004519D01*
X020513Y004269D01*
X020013Y004269D01*
X020513Y004269D02*
X020763Y004019D01*
X020513Y003269D02*
X020013Y003269D01*
X020013Y002269D02*
X020513Y002269D01*
X018363Y004419D02*
X018263Y004419D01*
X018213Y004469D01*
X017313Y004469D01*
X017263Y004419D01*
X017163Y004419D01*
X017146Y004421D01*
X017129Y004425D01*
X017113Y004432D01*
X017099Y004442D01*
X017086Y004455D01*
X017076Y004469D01*
X017069Y004485D01*
X017065Y004502D01*
X017063Y004519D01*
X018363Y004419D02*
X018380Y004421D01*
X018397Y004425D01*
X018413Y004432D01*
X018427Y004442D01*
X018440Y004455D01*
X018450Y004469D01*
X018457Y004485D01*
X018461Y004502D01*
X018463Y004519D01*
X018463Y005019D02*
X018461Y005036D01*
X018457Y005053D01*
X018450Y005069D01*
X018440Y005083D01*
X018427Y005096D01*
X018413Y005106D01*
X018397Y005113D01*
X018380Y005117D01*
X018363Y005119D01*
X018263Y005119D01*
X018213Y005069D01*
X017313Y005069D01*
X017263Y005119D01*
X017163Y005119D01*
X017146Y005117D01*
X017129Y005113D01*
X017113Y005106D01*
X017099Y005096D01*
X017086Y005083D01*
X017076Y005069D01*
X017069Y005053D01*
X017065Y005036D01*
X017063Y005019D01*
X020013Y005269D02*
X020513Y005269D01*
X020513Y006269D02*
X020013Y006269D01*
X018263Y006519D02*
X018263Y007019D01*
X018013Y007269D01*
X018263Y007519D01*
X018263Y008019D01*
X018013Y008269D01*
X018263Y008519D01*
X018263Y009019D01*
X018013Y009269D01*
X017513Y009269D01*
X017263Y009019D01*
X017263Y008519D01*
X017513Y008269D01*
X018013Y008269D01*
X017513Y008269D02*
X017263Y008019D01*
X017263Y007519D01*
X017513Y007269D01*
X018013Y007269D01*
X017513Y007269D02*
X017263Y007019D01*
X017263Y006519D01*
X017513Y006269D01*
X018013Y006269D01*
X018263Y006519D01*
X013763Y006519D02*
X013513Y006269D01*
X013763Y006019D01*
X013763Y005519D01*
X013513Y005269D01*
X013763Y005019D01*
X013763Y004519D01*
X013513Y004269D01*
X013013Y004269D01*
X012763Y004519D01*
X012763Y005019D01*
X013013Y005269D01*
X012763Y005519D01*
X012763Y006019D01*
X013013Y006269D01*
X012763Y006519D01*
X012763Y007019D01*
X013013Y007269D01*
X012763Y007519D01*
X012763Y008019D01*
X013013Y008269D01*
X012763Y008519D01*
X012763Y009019D01*
X013013Y009269D01*
X013513Y009269D01*
X013763Y009019D01*
X013763Y008519D01*
X013513Y008269D01*
X013763Y008019D01*
X013763Y007519D01*
X013513Y007269D01*
X013013Y007269D01*
X013513Y007269D02*
X013763Y007019D01*
X013763Y006519D01*
X013513Y006269D02*
X013013Y006269D01*
X011263Y006519D02*
X011263Y007019D01*
X011013Y007269D01*
X011263Y007519D01*
X011263Y008019D01*
X011013Y008269D01*
X011263Y008519D01*
X011263Y009019D01*
X011013Y009269D01*
X010513Y009269D01*
X010263Y009019D01*
X010263Y008519D01*
X010513Y008269D01*
X011013Y008269D01*
X010513Y008269D02*
X010263Y008019D01*
X010263Y007519D01*
X010513Y007269D01*
X011013Y007269D01*
X010513Y007269D02*
X010263Y007019D01*
X010263Y006519D01*
X010513Y006269D01*
X011013Y006269D01*
X011263Y006519D01*
X013013Y005269D02*
X013513Y005269D01*
X011363Y005119D02*
X011263Y005119D01*
X011213Y005069D01*
X010313Y005069D01*
X010263Y005119D01*
X010163Y005119D01*
X010146Y005117D01*
X010129Y005113D01*
X010113Y005106D01*
X010099Y005096D01*
X010086Y005083D01*
X010076Y005069D01*
X010069Y005053D01*
X010065Y005036D01*
X010063Y005019D01*
X010063Y004519D02*
X010065Y004502D01*
X010069Y004485D01*
X010076Y004469D01*
X010086Y004455D01*
X010099Y004442D01*
X010113Y004432D01*
X010129Y004425D01*
X010146Y004421D01*
X010163Y004419D01*
X010263Y004419D01*
X010313Y004469D01*
X011213Y004469D01*
X011263Y004419D01*
X011363Y004419D01*
X011380Y004421D01*
X011397Y004425D01*
X011413Y004432D01*
X011427Y004442D01*
X011440Y004455D01*
X011450Y004469D01*
X011457Y004485D01*
X011461Y004502D01*
X011463Y004519D01*
X011463Y005019D02*
X011461Y005036D01*
X011457Y005053D01*
X011450Y005069D01*
X011440Y005083D01*
X011427Y005096D01*
X011413Y005106D01*
X011397Y005113D01*
X011380Y005117D01*
X011363Y005119D01*
X012763Y004019D02*
X013013Y004269D01*
X013513Y004269D02*
X013763Y004019D01*
X013763Y003519D01*
X013513Y003269D01*
X013763Y003019D01*
X013763Y002519D01*
X013513Y002269D01*
X013763Y002019D01*
X013763Y001519D01*
X013513Y001269D01*
X013013Y001269D01*
X012763Y001519D01*
X012763Y002019D01*
X013013Y002269D01*
X012763Y002519D01*
X012763Y003019D01*
X013013Y003269D01*
X012763Y003519D01*
X012763Y004019D01*
X013013Y003269D02*
X013513Y003269D01*
X013513Y002269D02*
X013013Y002269D01*
X024513Y006519D02*
X024763Y006269D01*
X025263Y006269D01*
X025513Y006519D01*
X025513Y007019D01*
X025263Y007269D01*
X025513Y007519D01*
X025513Y008019D01*
X025263Y008269D01*
X025513Y008519D01*
X025513Y009019D01*
X025263Y009269D01*
X024763Y009269D01*
X024513Y009019D01*
X024513Y008519D01*
X024763Y008269D01*
X025263Y008269D01*
X024763Y008269D02*
X024513Y008019D01*
X024513Y007519D01*
X024763Y007269D01*
X025263Y007269D01*
X024763Y007269D02*
X024513Y007019D01*
X024513Y006519D01*
X027013Y006269D02*
X027513Y006269D01*
X027513Y008269D02*
X027013Y008269D01*
X027013Y010019D02*
X026763Y010269D01*
X026763Y010769D01*
X027013Y011019D01*
X027513Y011019D01*
X027763Y010769D01*
X028013Y011019D01*
X028513Y011019D01*
X028763Y010769D01*
X029013Y011019D01*
X029513Y011019D01*
X029763Y010769D01*
X030013Y011019D01*
X030513Y011019D01*
X030763Y010769D01*
X030763Y010269D01*
X030513Y010019D01*
X030013Y010019D01*
X029763Y010269D01*
X029513Y010019D01*
X029013Y010019D01*
X028763Y010269D01*
X028763Y010769D01*
X029763Y010769D02*
X029763Y010269D01*
X028763Y010269D02*
X028513Y010019D01*
X028013Y010019D01*
X027763Y010269D01*
X027513Y010019D01*
X027013Y010019D01*
X027763Y010269D02*
X027763Y010769D01*
X023763Y010769D02*
X023763Y010269D01*
X023513Y010019D01*
X023013Y010019D01*
X022763Y010269D01*
X022513Y010019D01*
X022013Y010019D01*
X021763Y010269D01*
X021763Y010769D01*
X022013Y011019D01*
X022513Y011019D01*
X022763Y010769D01*
X023013Y011019D01*
X023513Y011019D01*
X023763Y010769D01*
X022763Y010769D02*
X022763Y010269D01*
X021763Y010269D02*
X021513Y010019D01*
X021013Y010019D01*
X020763Y010269D01*
X020513Y010019D01*
X020013Y010019D01*
X019763Y010269D01*
X019763Y010769D01*
X020013Y011019D01*
X020513Y011019D01*
X020763Y010769D01*
X021013Y011019D01*
X021513Y011019D01*
X021763Y010769D01*
X020763Y010769D02*
X020763Y010269D01*
X016763Y010269D02*
X016513Y010019D01*
X016013Y010019D01*
X015763Y010269D01*
X015513Y010019D01*
X015013Y010019D01*
X014763Y010269D01*
X014763Y010769D01*
X015013Y011019D01*
X015513Y011019D01*
X015763Y010769D01*
X016013Y011019D01*
X016513Y011019D01*
X016763Y010769D01*
X016763Y010269D01*
X015763Y010269D02*
X015763Y010769D01*
X014763Y010769D02*
X014513Y011019D01*
X014013Y011019D01*
X013763Y010769D01*
X013513Y011019D01*
X013013Y011019D01*
X012763Y010769D01*
X012763Y010269D01*
X013013Y010019D01*
X013513Y010019D01*
X013763Y010269D01*
X013763Y010769D01*
X013763Y010269D02*
X014013Y010019D01*
X014513Y010019D01*
X014763Y010269D01*
X013513Y008269D02*
X013013Y008269D01*
X020013Y008269D02*
X020513Y008269D01*
X034013Y008269D02*
X034513Y008269D01*
M02*
