999
dxflib 2.2.0.0
  0
SECTION
  2
HEADER
  9
$ACADVER
  1
AC1015
  9
$HANDSEED
  5
FFFF
  9
$DIMASZ
 40
2.5
  9
$PLIMMIN
 10
0.0
 20
0.0
  9
$DIMEXE
 40
1.25
  9
$DIMGAP
 40
0.625
  9
$PLIMMAX
 10
210.0
 20
297.0
  9
$INSUNITS
 70
4
  9
$DIMSTYLE
  2
Standard
  9
$CLAYER
  8
0
  9
$DIMEXO
 40
0.625
  9
$DIMTXT
 40
2.5
  9
$CLAYER
  8
Rotor Gear
  0
ENDSEC
  0
SECTION
  2
TABLES
  0
TABLE
  2
VPORT
  5
8
100
AcDbSymbolTable
 70
1
  0
VPORT
  5
30
100
AcDbSymbolTableRecord
100
AcDbViewportTableRecord
  2
*Active
 70
0
 10
0.0
 20
0.0
 11
1.0
 21
1.0
 12
286.3055555555554861
 22
148.5
 13
0.0
 23
0.0
 14
10.0
 24
10.0
 15
10.0
 25
10.0
 16
0.0
 26
0.0
 36
1.0
 17
0.0
 27
0.0
 37
0.0
 40
297.0
 41
1.92798353909465
 42
50.0
 43
0.0
 44
0.0
 50
0.0
 51
0.0
 71
0
 72
100
 73
1
 74
3
 75
1
 76
1
 77
0
 78
0
281
0
 65
1
110
0.0
120
0.0
130
0.0
111
1.0
121
0.0
131
0.0
112
0.0
122
1.0
132
0.0
 79
0
146
0.0
  0
ENDTAB
  0
TABLE
  2
LTYPE
  5
5
100
AcDbSymbolTable
 70
21
  0
LTYPE
  5
14
100
AcDbSymbolTableRecord
100
AcDbLinetypeTableRecord
  2
ByBlock
 70
0
  3

 72
65
 73
0
 40
0.0
  0
LTYPE
  5
15
100
AcDbSymbolTableRecord
100
AcDbLinetypeTableRecord
  2
ByLayer
 70
0
  3

 72
65
 73
0
 40
0.0
  0
LTYPE
  5
16
100
AcDbSymbolTableRecord
100
AcDbLinetypeTableRecord
  2
CONTINUOUS
 70
0
  3
Solid line
 72
65
 73
0
 40
0.0
  0
LTYPE
  5
31
100
AcDbSymbolTableRecord
100
AcDbLinetypeTableRecord
  2
DOT
 70
0
  3
Dot . . . . . . . . . . . . . . . . . . . . . .
 72
65
 73
2
 40
6.3499999999999996
 49
0.0
 74
0
 49
-6.3499999999999996
 74
0
  0
LTYPE
  5
32
100
AcDbSymbolTableRecord
100
AcDbLinetypeTableRecord
  2
DOT2
 70
0
  3
Dot (.5x) .....................................
 72
65
 73
2
 40
3.1749999999999998
 49
0.0
 74
0
 49
-3.1749999999999998
 74
0
  0
LTYPE
  5
33
100
AcDbSymbolTableRecord
100
AcDbLinetypeTableRecord
  2
DOTX2
 70
0
  3
Dot (2x) .  .  .  .  .  .  .  .  .  .  .  .  .
 72
65
 73
2
 40
12.6999999999999993
 49
0.0
 74
0
 49
-12.6999999999999993
 74
0
  0
LTYPE
  5
34
100
AcDbSymbolTableRecord
100
AcDbLinetypeTableRecord
  2
DASHED
 70
0
  3
Dashed __ __ __ __ __ __ __ __ __ __ __ __ __ _
 72
65
 73
2
 40
19.0500000000000007
 49
12.6999999999999993
 74
0
 49
-6.3499999999999996
 74
0
  0
LTYPE
  5
35
100
AcDbSymbolTableRecord
100
AcDbLinetypeTableRecord
  2
DASHED2
 70
0
  3
Dashed (.5x) _ _ _ _ _ _ _ _ _ _ _ _ _ _ _ _ _
 72
65
 73
2
 40
9.5250000000000004
 49
6.3499999999999996
 74
0
 49
-3.1749999999999998
 74
0
  0
LTYPE
  5
36
100
AcDbSymbolTableRecord
100
AcDbLinetypeTableRecord
  2
DASHEDX2
 70
0
  3
Dashed (2x) ____  ____  ____  ____  ____  ___
 72
65
 73
2
 40
38.1000000000000014
 49
25.3999999999999986
 74
0
 49
-12.6999999999999993
 74
0
  0
LTYPE
  5
37
100
AcDbSymbolTableRecord
100
AcDbLinetypeTableRecord
  2
DASHDOT
 70
0
  3
Dash dot __ . __ . __ . __ . __ . __ . __ . __
 72
65
 73
4
 40
25.3999999999999986
 49
12.6999999999999993
 74
0
 49
-6.3499999999999996
 74
0
 49
0.0
 74
0
 49
-6.3499999999999996
 74
0
  0
LTYPE
  5
38
100
AcDbSymbolTableRecord
100
AcDbLinetypeTableRecord
  2
DASHDOT2
 70
0
  3
Dash dot (.5x) _._._._._._._._._._._._._._._.
 72
65
 73
4
 40
12.6999999999999993
 49
6.3499999999999996
 74
0
 49
-3.1749999999999998
 74
0
 49
0.0
 74
0
 49
-3.1749999999999998
 74
0
  0
LTYPE
  5
39
100
AcDbSymbolTableRecord
100
AcDbLinetypeTableRecord
  2
DASHDOTX2
 70
0
  3
Dash dot (2x) ____  .  ____  .  ____  .  ___
 72
65
 73
4
 40
50.7999999999999972
 49
25.3999999999999986
 74
0
 49
-12.6999999999999993
 74
0
 49
0.0
 74
0
 49
-12.6999999999999993
 74
0
  0
LTYPE
  5
3A
100
AcDbSymbolTableRecord
100
AcDbLinetypeTableRecord
  2
DIVIDE
 70
0
  3
Divide ____ . . ____ . . ____ . . ____ . . ____
 72
65
 73
6
 40
31.75
 49
12.6999999999999993
 74
0
 49
-6.3499999999999996
 74
0
 49
0.0
 74
0
 49
-6.3499999999999996
 74
0
 49
0.0
 74
0
 49
-6.3499999999999996
 74
0
  0
LTYPE
  5
3B
100
AcDbSymbolTableRecord
100
AcDbLinetypeTableRecord
  2
DIVIDE2
 70
0
  3
Divide (.5x) __..__..__..__..__..__..__..__.._
 72
65
 73
6
 40
15.875
 49
6.3499999999999996
 74
0
 49
-3.1749999999999998
 74
0
 49
0.0
 74
0
 49
-3.1749999999999998
 74
0
 49
0.0
 74
0
 49
-3.1749999999999998
 74
0
  0
LTYPE
  5
3C
100
AcDbSymbolTableRecord
100
AcDbLinetypeTableRecord
  2
DIVIDEX2
 70
0
  3
Divide (2x) ________  .  .  ________  .  .  _
 72
65
 73
6
 40
63.5
 49
25.3999999999999986
 74
0
 49
-12.6999999999999993
 74
0
 49
0.0
 74
0
 49
-12.6999999999999993
 74
0
 49
0.0
 74
0
 49
-12.6999999999999993
 74
0
  0
LTYPE
  5
3D
100
AcDbSymbolTableRecord
100
AcDbLinetypeTableRecord
  2
CENTER
 70
0
  3
Center ____ _ ____ _ ____ _ ____ _ ____ _ ____
 72
65
 73
4
 40
50.7999999999999972
 49
31.75
 74
0
 49
-6.3499999999999996
 74
0
 49
6.3499999999999996
 74
0
 49
-6.3499999999999996
 74
0
  0
LTYPE
  5
3E
100
AcDbSymbolTableRecord
100
AcDbLinetypeTableRecord
  2
CENTER2
 70
0
  3
Center (.5x) ___ _ ___ _ ___ _ ___ _ ___ _ ___
 72
65
 73
4
 40
28.5749999999999993
 49
19.0500000000000007
 74
0
 49
-3.1749999999999998
 74
0
 49
3.1749999999999998
 74
0
 49
-3.1749999999999998
 74
0
  0
LTYPE
  5
3F
100
AcDbSymbolTableRecord
100
AcDbLinetypeTableRecord
  2
CENTERX2
 70
0
  3
Center (2x) ________  __  ________  __  _____
 72
65
 73
4
 40
101.5999999999999943
 49
63.5
 74
0
 49
-12.6999999999999993
 74
0
 49
12.6999999999999993
 74
0
 49
-12.6999999999999993
 74
0
  0
LTYPE
  5
40
100
AcDbSymbolTableRecord
100
AcDbLinetypeTableRecord
  2
BORDER
 70
0
  3
Border __ __ . __ __ . __ __ . __ __ . __ __ .
 72
65
 73
6
 40
44.4500000000000028
 49
12.6999999999999993
 74
0
 49
-6.3499999999999996
 74
0
 49
12.6999999999999993
 74
0
 49
-6.3499999999999996
 74
0
 49
0.0
 74
0
 49
-6.3499999999999996
 74
0
  0
LTYPE
  5
41
100
AcDbSymbolTableRecord
100
AcDbLinetypeTableRecord
  2
BORDER2
 70
0
  3
Border (.5x) __.__.__.__.__.__.__.__.__.__.__.
 72
65
 73
6
 40
22.2250000000000014
 49
6.3499999999999996
 74
0
 49
-3.1749999999999998
 74
0
 49
6.3499999999999996
 74
0
 49
-3.1749999999999998
 74
0
 49
0.0
 74
0
 49
-3.1749999999999998
 74
0
  0
LTYPE
  5
42
100
AcDbSymbolTableRecord
100
AcDbLinetypeTableRecord
  2
BORDERX2
 70
0
  3
Border (2x) ____  ____  .  ____  ____  .  ___
 72
65
 73
6
 40
88.9000000000000057
 49
25.3999999999999986
 74
0
 49
-12.6999999999999993
 74
0
 49
25.3999999999999986
 74
0
 49
-12.6999999999999993
 74
0
 49
0.0
 74
0
 49
-12.6999999999999993
 74
0
  0
ENDTAB
  0
TABLE
  2
LAYER
  5
2
100
AcDbSymbolTable
 70
25
  0
LAYER
  5
10
100
AcDbSymbolTableRecord
100
AcDbLayerTableRecord
  2
0
 70
0
 62
7
420
16777215
  6
CONTINUOUS
370
0
390
F
  0
LAYER
  5
43
100
AcDbSymbolTableRecord
100
AcDbLayerTableRecord
  2
Rotor Plate
 70
0
 62
7
420
16777215
  6
CONTINUOUS
370
0
390
F
  0
LAYER
  5
44
100
AcDbSymbolTableRecord
100
AcDbLayerTableRecord
  2
Layer 8
 70
0
 62
7
420
16777215
  6
CONTINUOUS
370
0
390
F
  0
LAYER
  5
45
100
AcDbSymbolTableRecord
100
AcDbLayerTableRecord
  2
Layer 7
 70
0
 62
7
420
16777215
  6
CONTINUOUS
370
0
390
F
  0
LAYER
  5
46
100
AcDbSymbolTableRecord
100
AcDbLayerTableRecord
  2
Layer 6
 70
0
 62
7
420
16777215
  6
CONTINUOUS
370
0
390
F
  0
LAYER
  5
47
100
AcDbSymbolTableRecord
100
AcDbLayerTableRecord
  2
Layer 4
 70
0
 62
7
420
16777215
  6
CONTINUOUS
370
0
390
F
  0
LAYER
  5
48
100
AcDbSymbolTableRecord
100
AcDbLayerTableRecord
  2
Layer 3
 70
0
 62
7
420
16777215
  6
CONTINUOUS
370
0
390
F
  0
LAYER
  5
49
100
AcDbSymbolTableRecord
100
AcDbLayerTableRecord
  2
Layer 2
 70
0
 62
7
420
16777215
  6
CONTINUOUS
370
0
390
F
  0
LAYER
  5
4A
100
AcDbSymbolTableRecord
100
AcDbLayerTableRecord
  2
Layer 1
 70
0
 62
7
420
16777215
  6
CONTINUOUS
370
0
390
F
  0
LAYER
  5
4B
100
AcDbSymbolTableRecord
100
AcDbLayerTableRecord
  2
Motor Gear
 70
0
 62
7
420
16777215
  6
CONTINUOUS
370
0
390
F
  0
LAYER
  5
4C
100
AcDbSymbolTableRecord
100
AcDbLayerTableRecord
  2
Rotor Gear
 70
0
 62
7
420
16777215
  6
CONTINUOUS
370
0
390
F
  0
LAYER
  5
4D
100
AcDbSymbolTableRecord
100
AcDbLayerTableRecord
  2
Layer 8 Text
 70
0
 62
4
420
65535
  6
CONTINUOUS
370
0
390
F
  0
LAYER
  5
4E
100
AcDbSymbolTableRecord
100
AcDbLayerTableRecord
  2
Layer 7 Text
 70
0
 62
4
420
65535
  6
CONTINUOUS
370
0
390
F
  0
LAYER
  5
4F
100
AcDbSymbolTableRecord
100
AcDbLayerTableRecord
  2
Layer 6 Text
 70
0
 62
4
420
65535
  6
CONTINUOUS
370
0
390
F
  0
LAYER
  5
50
100
AcDbSymbolTableRecord
100
AcDbLayerTableRecord
  2
Layer 4 Text
 70
0
 62
4
420
65535
  6
CONTINUOUS
370
0
390
F
  0
LAYER
  5
51
100
AcDbSymbolTableRecord
100
AcDbLayerTableRecord
  2
Layer 3 Text
 70
0
 62
4
420
65535
  6
CONTINUOUS
370
0
390
F
  0
LAYER
  5
52
100
AcDbSymbolTableRecord
100
AcDbLayerTableRecord
  2
Layer 2 Text
 70
0
 62
4
420
65535
  6
CONTINUOUS
370
0
390
F
  0
LAYER
  5
53
100
AcDbSymbolTableRecord
100
AcDbLayerTableRecord
  2
Layer 1 Text
 70
0
 62
4
420
65535
  6
CONTINUOUS
370
0
390
F
  0
LAYER
  5
54
100
AcDbSymbolTableRecord
100
AcDbLayerTableRecord
  2
Motor Gear Text
 70
0
 62
4
420
65535
  6
CONTINUOUS
370
0
390
F
  0
LAYER
  5
55
100
AcDbSymbolTableRecord
100
AcDbLayerTableRecord
  2
Rotor Gear Text
 70
0
 62
4
420
65535
  6
CONTINUOUS
370
0
390
F
  0
LAYER
  5
56
100
AcDbSymbolTableRecord
100
AcDbLayerTableRecord
  2
Rotor Plate Text
 70
0
 62
4
420
65535
  6
CONTINUOUS
370
0
390
F
  0
LAYER
  5
57
100
AcDbSymbolTableRecord
100
AcDbLayerTableRecord
  2
Layer 5
 70
0
 62
7
420
16777215
  6
CONTINUOUS
370
0
390
F
  0
LAYER
  5
58
100
AcDbSymbolTableRecord
100
AcDbLayerTableRecord
  2
Layer 5 Text
 70
0
 62
4
420
65535
  6
CONTINUOUS
370
0
390
F
  0
LAYER
  5
59
100
AcDbSymbolTableRecord
100
AcDbLayerTableRecord
  2
Drive Retainer
 70
0
 62
7
420
0
  6
CONTINUOUS
370
0
390
F
  0
LAYER
  5
5A
100
AcDbSymbolTableRecord
100
AcDbLayerTableRecord
  2
Drive Retainer Text
 70
0
 62
4
420
65535
  6
CONTINUOUS
370
0
390
F
  0
ENDTAB
  0
TABLE
  2
STYLE
  5
3
100
AcDbSymbolTable
 70
1
  0
STYLE
  5
11
100
AcDbSymbolTableRecord
100
AcDbTextStyleTableRecord
  2
Standard
 70
0
 40
0.0
 41
0.75
 50
0.0
 71
0
 42
2.5
  3
txt
  4

  0
ENDTAB
  0
TABLE
  2
VIEW
  5
6
100
AcDbSymbolTable
 70
0
  0
ENDTAB
  0
TABLE
  2
UCS
  5
7
100
AcDbSymbolTable
 70
0
  0
ENDTAB
  0
TABLE
  2
APPID
  5
9
100
AcDbSymbolTable
 70
1
  0
APPID
  5
12
100
AcDbSymbolTableRecord
100
AcDbRegAppTableRecord
  2
ACAD
 70
0
  0
ENDTAB
  0
TABLE
  2
DIMSTYLE
  5
A
100
AcDbSymbolTable
 70
1
100
AcDbDimStyleTable
 71
0
  0
DIMSTYLE
105
27
100
AcDbSymbolTableRecord
100
AcDbDimStyleTableRecord
  2
Standard
 41
2.5
 42
0.625
 43
3.75
 44
1.25
 70
0
 73
0
 74
0
 77
1
 78
8
140
2.5
141
2.5
143
0.03937007874016
147
0.625
171
3
172
1
271
2
272
2
274
3
278
44
283
0
284
8
340
11
  0
ENDTAB
  0
TABLE
  2
BLOCK_RECORD
  5
1
100
AcDbSymbolTable
 70
1
  0
BLOCK_RECORD
  5
1F
100
AcDbSymbolTableRecord
100
AcDbBlockTableRecord
  2
*Model_Space
340
22
  0
BLOCK_RECORD
  5
1B
100
AcDbSymbolTableRecord
100
AcDbBlockTableRecord
  2
*Paper_Space
340
1E
  0
BLOCK_RECORD
  5
23
100
AcDbSymbolTableRecord
100
AcDbBlockTableRecord
  2
*Paper_Space0
340
26
  0
ENDTAB
  0
ENDSEC
  0
SECTION
  2
BLOCKS
  0
BLOCK
  5
20
100
AcDbEntity
  8
0
100
AcDbBlockBegin
  2
*Model_Space
 70
0
 10
0.0
 20
0.0
 30
0.0
  3
*Model_Space
  1

  0
ENDBLK
  5
21
100
AcDbEntity
  8
0
100
AcDbBlockEnd
  0
BLOCK
  5
1C
100
AcDbEntity
 67
1
  8
0
100
AcDbBlockBegin
  2
*Paper_Space
 70
0
 10
0.0
 20
0.0
 30
0.0
  3
*Paper_Space
  1

  0
ENDBLK
  5
1D
100
AcDbEntity
 67
1
  8
0
100
AcDbBlockEnd
  0
BLOCK
  5
24
100
AcDbEntity
  8
0
100
AcDbBlockBegin
  2
*Paper_Space0
 70
0
 10
0.0
 20
0.0
 30
0.0
  3
*Paper_Space0
  1

  0
ENDBLK
  5
25
100
AcDbEntity
  8
0
100
AcDbBlockEnd
  0
ENDSEC
  0
SECTION
  2
ENTITIES
  0
CIRCLE
  5
5B
100
AcDbEntity
100
AcDbCircle
  8
Layer 7
 62
256
370
-1
  6
ByLayer
 10
69.4999850054044543
 20
91.4731265266271834
 30
0.0
 40
1.4299999999999999
  0
CIRCLE
  5
5C
100
AcDbEntity
100
AcDbCircle
  8
Layer 7
 62
256
370
-1
  6
ByLayer
 10
69.4999850054044259
 20
73.8731265266271464
 30
0.0
 40
1.4299999999999999
  0
CIRCLE
  5
5D
100
AcDbEntity
100
AcDbCircle
  8
Layer 7
 62
256
370
-1
  6
ByLayer
 10
69.4999850054044543
 20
91.4731265266271834
 30
0.0
 40
1.4299999999999999
  0
CIRCLE
  5
5E
100
AcDbEntity
100
AcDbCircle
  8
Layer 7
 62
256
370
-1
  6
ByLayer
 10
69.4999850054044259
 20
73.8731265266271464
 30
0.0
 40
1.4299999999999999
  0
ARC
  5
5F
100
AcDbEntity
  8
Layer 7
 62
256
370
-1
  6
ByLayer
100
AcDbCircle
 10
98.0
 20
98.0
 30
0.0
 40
2.0
100
AcDbArc
 50
0.0
 51
90.0
  0
LINE
  5
60
100
AcDbEntity
100
AcDbLine
  8
Layer 7
 62
256
370
-1
  6
ByLayer
 10
98.0
 20
100.0
 30
0.0
 11
2.0
 21
100.0
 31
0.0
  0
ARC
  5
61
100
AcDbEntity
  8
Layer 7
 62
256
370
-1
  6
ByLayer
100
AcDbCircle
 10
2.0
 20
98.0
 30
0.0
 40
2.0
100
AcDbArc
 50
90.0
 51
180.0
  0
LINE
  5
62
100
AcDbEntity
100
AcDbLine
  8
Layer 7
 62
256
370
-1
  6
ByLayer
 10
0.0
 20
98.0
 30
0.0
 11
0.0
 21
2.0
 31
0.0
  0
ARC
  5
63
100
AcDbEntity
  8
Layer 7
 62
256
370
-1
  6
ByLayer
100
AcDbCircle
 10
2.0
 20
2.0
 30
0.0
 40
2.0
100
AcDbArc
 50
180.0
 51
270.0
  0
LINE
  5
64
100
AcDbEntity
100
AcDbLine
  8
Layer 7
 62
256
370
-1
  6
ByLayer
 10
2.0
 20
0.0
 30
0.0
 11
98.0
 21
0.0
 31
0.0
  0
ARC
  5
65
100
AcDbEntity
  8
Layer 7
 62
256
370
-1
  6
ByLayer
100
AcDbCircle
 10
98.0
 20
2.0
 30
0.0
 40
2.0
100
AcDbArc
 50
270.0
 51
0.0
  0
MTEXT
  5
66
100
AcDbEntity
100
AcDbMText
  8
Layer 7 Text
 62
256
370
-1
  6
ByLayer
 10
10.0
 20
83.0
 30
0.0
 40
3.0
 41
100.0
 71
1
 72
2
  1
Layer\~7
  7
standard
 50
0.0
 73
0
 44
1.0
  0
CIRCLE
  5
67
100
AcDbEntity
100
AcDbCircle
  8
Layer 7
 62
256
370
-1
  6
ByLayer
 10
92.5
 20
50.0
 30
0.0
 40
2.3999999999999999
  0
CIRCLE
  5
68
100
AcDbEntity
100
AcDbCircle
  8
Layer 7
 62
256
370
-1
  6
ByLayer
 10
92.5
 20
7.4999999999999991
 30
0.0
 40
2.3999999999999999
  0
CIRCLE
  5
69
100
AcDbEntity
100
AcDbCircle
  8
Layer 7
 62
256
370
-1
  6
ByLayer
 10
7.4999999999999991
 20
7.5
 30
0.0
 40
2.3999999999999999
  0
CIRCLE
  5
6A
100
AcDbEntity
100
AcDbCircle
  8
Layer 7
 62
256
370
-1
  6
ByLayer
 10
7.5
 20
50.0
 30
0.0
 40
2.3999999999999999
  0
CIRCLE
  5
6B
100
AcDbEntity
100
AcDbCircle
  8
Layer 7
 62
256
370
-1
  6
ByLayer
 10
7.5
 20
92.5
 30
0.0
 40
2.3999999999999999
  0
CIRCLE
  5
6C
100
AcDbEntity
100
AcDbCircle
  8
Layer 7
 62
256
370
-1
  6
ByLayer
 10
92.5
 20
92.5
 30
0.0
 40
2.3999999999999999
  0
CIRCLE
  5
6D
100
AcDbEntity
100
AcDbCircle
  8
Layer 7
 62
256
370
-1
  6
ByLayer
 10
49.9999850054043975
 20
34.7798160249545276
 30
0.0
 40
27.0
  0
CIRCLE
  5
6E
100
AcDbEntity
100
AcDbCircle
  8
Layer 7
 62
256
370
-1
  6
ByLayer
 10
32.0
 20
4.0
 30
0.0
 40
1.4299999999999999
  0
CIRCLE
  5
6F
100
AcDbEntity
100
AcDbCircle
  8
Layer 7
 62
256
370
-1
  6
ByLayer
 10
68.0
 20
4.0
 30
0.0
 40
1.4299999999999999
  0
ARC
  5
70
100
AcDbEntity
  8
Layer 1
 62
256
370
-1
  6
ByLayer
100
AcDbCircle
 10
30.5
 20
270.5
 30
0.0
 40
0.5
100
AcDbArc
 50
180.0
 51
270.0
  0
LINE
  5
71
100
AcDbEntity
100
AcDbLine
  8
Layer 1
 62
256
370
-1
  6
ByLayer
 10
30.0
 20
299.5
 30
0.0
 11
30.0
 21
270.5
 31
0.0
  0
ARC
  5
72
100
AcDbEntity
  8
Layer 1
 62
256
370
-1
  6
ByLayer
100
AcDbCircle
 10
29.5
 20
299.5
 30
0.0
 40
0.5
100
AcDbArc
 50
0.0
 51
90.0
  0
LINE
  5
73
100
AcDbEntity
100
AcDbLine
  8
Layer 1
 62
256
370
-1
  6
ByLayer
 10
99.5
 20
270.0
 30
0.0
 11
30.5
 21
270.0
 31
0.0
  0
ARC
  5
74
100
AcDbEntity
  8
Layer 1
 62
256
370
-1
  6
ByLayer
100
AcDbCircle
 10
99.5
 20
269.5
 30
0.0
 40
0.5
100
AcDbArc
 50
0.0
 51
90.0
  0
LINE
  5
75
100
AcDbEntity
100
AcDbLine
  8
Layer 1
 62
256
370
-1
  6
ByLayer
 10
29.5
 20
300.0
 30
0.0
 11
2.0
 21
300.0
 31
0.0
  0
ARC
  5
76
100
AcDbEntity
  8
Layer 1
 62
256
370
-1
  6
ByLayer
100
AcDbCircle
 10
2.0
 20
298.0
 30
0.0
 40
2.0
100
AcDbArc
 50
90.0
 51
180.0
  0
LINE
  5
77
100
AcDbEntity
100
AcDbLine
  8
Layer 1
 62
256
370
-1
  6
ByLayer
 10
0.0
 20
298.0
 30
0.0
 11
0.0
 21
202.0
 31
0.0
  0
ARC
  5
78
100
AcDbEntity
  8
Layer 1
 62
256
370
-1
  6
ByLayer
100
AcDbCircle
 10
2.0
 20
202.0
 30
0.0
 40
2.0
100
AcDbArc
 50
180.0
 51
270.0
  0
ARC
  5
79
100
AcDbEntity
  8
Layer 1
 62
256
370
-1
  6
ByLayer
100
AcDbCircle
 10
98.0
 20
202.0
 30
0.0
 40
2.0
100
AcDbArc
 50
270.0
 51
0.0
  0
MTEXT
  5
7A
100
AcDbEntity
100
AcDbMText
  8
Layer 1 Text
 62
256
370
-1
  6
ByLayer
 10
10.0
 20
283.0
 30
0.0
 40
3.0
 41
100.0
 71
1
 72
2
  1
Layer\~1
  7
standard
 50
0.0
 73
0
 44
1.0
  0
CIRCLE
  5
7B
100
AcDbEntity
100
AcDbCircle
  8
Layer 1
 62
256
370
-1
  6
ByLayer
 10
49.9999850054043975
 20
234.7798160249545276
 30
0.0
 40
10.9000000000000004
  0
CIRCLE
  5
7C
100
AcDbEntity
100
AcDbCircle
  8
Layer 1
 62
256
370
-1
  6
ByLayer
 10
7.5
 20
292.5
 30
0.0
 40
2.3999999999999999
  0
CIRCLE
  5
7D
100
AcDbEntity
100
AcDbCircle
  8
Layer 1
 62
256
370
-1
  6
ByLayer
 10
7.5
 20
250.0
 30
0.0
 40
2.3999999999999999
  0
CIRCLE
  5
7E
100
AcDbEntity
100
AcDbCircle
  8
Layer 1
 62
256
370
-1
  6
ByLayer
 10
7.5
 20
207.5
 30
0.0
 40
2.3999999999999999
  0
CIRCLE
  5
7F
100
AcDbEntity
100
AcDbCircle
  8
Layer 1
 62
256
370
-1
  6
ByLayer
 10
92.5
 20
207.5
 30
0.0
 40
2.3999999999999999
  0
CIRCLE
  5
80
100
AcDbEntity
100
AcDbCircle
  8
Layer 1
 62
256
370
-1
  6
ByLayer
 10
92.5
 20
250.0
 30
0.0
 40
2.3999999999999999
  0
CIRCLE
  5
81
100
AcDbEntity
100
AcDbCircle
  8
Layer 1
 62
256
370
-1
  6
ByLayer
 10
32.0
 20
204.0
 30
0.0
 40
2.7999999999999998
  0
CIRCLE
  5
82
100
AcDbEntity
100
AcDbCircle
  8
Layer 1
 62
256
370
-1
  6
ByLayer
 10
68.0
 20
204.0
 30
0.0
 40
2.7999999999999998
  0
MTEXT
  5
83
100
AcDbEntity
100
AcDbMText
  8
Layer 1 Text
 62
256
370
-1
  6
ByLayer
 10
93.0
 20
228.0
 30
0.0
 40
3.0
 41
100.0
 71
5
 72
2
  1
ZachHoeken.com
  7
standard
 50
90.0
 73
0
 44
1.0
  0
CIRCLE
  5
84
100
AcDbEntity
100
AcDbCircle
  8
Layer 1
 62
256
370
-1
  6
ByLayer
 10
49.9999850054043975
 20
254.7798160249545276
 30
0.0
 40
1.4299999999999999
  0
CIRCLE
  5
85
100
AcDbEntity
100
AcDbCircle
  8
Layer 1
 62
256
370
-1
  6
ByLayer
 10
32.6794769297156193
 20
224.7798160249545276
 30
0.0
 40
1.4299999999999999
  0
CIRCLE
  5
86
100
AcDbEntity
100
AcDbCircle
  8
Layer 1
 62
256
370
-1
  6
ByLayer
 10
67.3204930810931614
 20
224.7798160249545276
 30
0.0
 40
1.4299999999999999
  0
MTEXT
  5
87
100
AcDbEntity
100
AcDbMText
  8
Layer 1 Text
 62
256
370
-1
  6
ByLayer
 10
86.0
 20
233.0
 30
0.0
 40
3.0
 41
100.0
 71
5
 72
2
  1
Peristaltic\~Pump\~v1.3
  7
standard
 50
90.0
 73
0
 44
1.0
  0
ARC
  5
88
100
AcDbEntity
  8
Layer 2
 62
256
370
-1
  6
ByLayer
100
AcDbCircle
 10
130.5
 20
270.5
 30
0.0
 40
0.5
100
AcDbArc
 50
180.0
 51
270.0
  0
LINE
  5
89
100
AcDbEntity
100
AcDbLine
  8
Layer 2
 62
256
370
-1
  6
ByLayer
 10
130.0
 20
299.5
 30
0.0
 11
130.0
 21
270.5
 31
0.0
  0
ARC
  5
8A
100
AcDbEntity
  8
Layer 2
 62
256
370
-1
  6
ByLayer
100
AcDbCircle
 10
129.5
 20
299.5
 30
0.0
 40
0.5
100
AcDbArc
 50
0.0
 51
90.0
  0
LINE
  5
8B
100
AcDbEntity
100
AcDbLine
  8
Layer 2
 62
256
370
-1
  6
ByLayer
 10
199.5
 20
270.0
 30
0.0
 11
130.5
 21
270.0
 31
0.0
  0
ARC
  5
8C
100
AcDbEntity
  8
Layer 2
 62
256
370
-1
  6
ByLayer
100
AcDbCircle
 10
199.5
 20
269.5
 30
0.0
 40
0.5
100
AcDbArc
 50
0.0
 51
90.0
  0
ARC
  5
8D
100
AcDbEntity
  8
Layer 2
 62
256
370
-1
  6
ByLayer
100
AcDbCircle
 10
198.0
 20
202.0
 30
0.0
 40
2.0
100
AcDbArc
 50
270.0
 51
360.0
  0
ARC
  5
8E
100
AcDbEntity
  8
Layer 2
 62
256
370
-1
  6
ByLayer
100
AcDbCircle
 10
102.0
 20
202.0
 30
0.0
 40
2.0
100
AcDbArc
 50
180.0
 51
270.0
  0
LINE
  5
8F
100
AcDbEntity
100
AcDbLine
  8
Layer 2
 62
256
370
-1
  6
ByLayer
 10
100.0
 20
298.0
 30
0.0
 11
100.0
 21
202.0
 31
0.0
  0
LINE
  5
90
100
AcDbEntity
100
AcDbLine
  8
Layer 2
 62
256
370
-1
  6
ByLayer
 10
129.5
 20
300.0
 30
0.0
 11
102.0
 21
300.0
 31
0.0
  0
ARC
  5
91
100
AcDbEntity
  8
Layer 2
 62
256
370
-1
  6
ByLayer
100
AcDbCircle
 10
102.0
 20
298.0
 30
0.0
 40
2.0
100
AcDbArc
 50
90.0
 51
180.0
  0
CIRCLE
  5
92
100
AcDbEntity
100
AcDbCircle
  8
Layer 2
 62
256
370
-1
  6
ByLayer
 10
149.9999850054043975
 20
234.7798160249545276
 30
0.0
 40
8.0
  0
MTEXT
  5
93
100
AcDbEntity
100
AcDbMText
  8
Layer 2 Text
 62
256
370
-1
  6
ByLayer
 10
110.0
 20
283.0
 30
0.0
 40
3.0
 41
100.0
 71
1
 72
2
  1
Layer\~2
  7
standard
 50
0.0
 73
0
 44
1.0
  0
CIRCLE
  5
94
100
AcDbEntity
100
AcDbCircle
  8
Layer 2
 62
256
370
-1
  6
ByLayer
 10
192.5
 20
250.0
 30
0.0
 40
2.3999999999999999
  0
CIRCLE
  5
95
100
AcDbEntity
100
AcDbCircle
  8
Layer 2
 62
256
370
-1
  6
ByLayer
 10
192.5
 20
207.5
 30
0.0
 40
2.3999999999999999
  0
CIRCLE
  5
96
100
AcDbEntity
100
AcDbCircle
  8
Layer 2
 62
256
370
-1
  6
ByLayer
 10
107.5
 20
207.5
 30
0.0
 40
2.3999999999999999
  0
CIRCLE
  5
97
100
AcDbEntity
100
AcDbCircle
  8
Layer 2
 62
256
370
-1
  6
ByLayer
 10
107.5
 20
250.0
 30
0.0
 40
2.3999999999999999
  0
CIRCLE
  5
98
100
AcDbEntity
100
AcDbCircle
  8
Layer 2
 62
256
370
-1
  6
ByLayer
 10
107.5
 20
292.5
 30
0.0
 40
2.3999999999999999
  0
CIRCLE
  5
99
100
AcDbEntity
100
AcDbCircle
  8
Layer 2
 62
256
370
-1
  6
ByLayer
 10
132.0
 20
204.0
 30
0.0
 40
2.7999999999999998
  0
CIRCLE
  5
9A
100
AcDbEntity
100
AcDbCircle
  8
Layer 2
 62
256
370
-1
  6
ByLayer
 10
168.0
 20
204.0
 30
0.0
 40
2.7999999999999998
  0
LINE
  5
9B
100
AcDbEntity
100
AcDbLine
  8
Layer 2
 62
256
370
-1
  6
ByLayer
 10
146.8245590054044101
 20
254.7798160249545276
 30
0.0
 11
148.4122720054043896
 21
257.5298160249545276
 31
0.0
  0
LINE
  5
9C
100
AcDbEntity
100
AcDbLine
  8
Layer 2
 62
256
370
-1
  6
ByLayer
 10
148.4122720054043896
 20
257.5298160249545276
 30
0.0
 11
151.5876980054044054
 21
257.5298160249545276
 31
0.0
  0
LINE
  5
9D
100
AcDbEntity
100
AcDbLine
  8
Layer 2
 62
256
370
-1
  6
ByLayer
 10
151.5876980054044054
 20
257.5298160249545276
 30
0.0
 11
153.1754110054043849
 21
254.7798160249545276
 31
0.0
  0
LINE
  5
9E
100
AcDbEntity
100
AcDbLine
  8
Layer 2
 62
256
370
-1
  6
ByLayer
 10
151.587698005404377
 20
252.0298160249545276
 30
0.0
 11
153.1754110054043849
 21
254.7798160249545276
 31
0.0
  0
LINE
  5
9F
100
AcDbEntity
100
AcDbLine
  8
Layer 2
 62
256
370
-1
  6
ByLayer
 10
148.4122720054043896
 20
252.0298160249545276
 30
0.0
 11
151.587698005404377
 21
252.0298160249545276
 31
0.0
  0
LINE
  5
A0
100
AcDbEntity
100
AcDbLine
  8
Layer 2
 62
256
370
-1
  6
ByLayer
 10
146.8245590054044101
 20
254.7798160249545276
 30
0.0
 11
148.4122720054043896
 21
252.0298160249545276
 31
0.0
  0
LINE
  5
A1
100
AcDbEntity
100
AcDbLine
  8
Layer 2
 62
256
370
-1
  6
ByLayer
 10
164.145067081093174
 20
224.7798160249545276
 30
0.0
 11
165.7327800810931535
 21
227.5298160249545276
 31
0.0
  0
LINE
  5
A2
100
AcDbEntity
100
AcDbLine
  8
Layer 2
 62
256
370
-1
  6
ByLayer
 10
165.7327800810931535
 20
227.5298160249545276
 30
0.0
 11
168.9082060810931694
 21
227.5298160249545276
 31
0.0
  0
LINE
  5
A3
100
AcDbEntity
100
AcDbLine
  8
Layer 2
 62
256
370
-1
  6
ByLayer
 10
168.9082060810931694
 20
227.5298160249545276
 30
0.0
 11
170.4959190810931489
 21
224.7798160249545276
 31
0.0
  0
LINE
  5
A4
100
AcDbEntity
100
AcDbLine
  8
Layer 2
 62
256
370
-1
  6
ByLayer
 10
168.9082060810931409
 20
222.0298160249545276
 30
0.0
 11
170.4959190810931489
 21
224.7798160249545276
 31
0.0
  0
LINE
  5
A5
100
AcDbEntity
100
AcDbLine
  8
Layer 2
 62
256
370
-1
  6
ByLayer
 10
165.7327800810931535
 20
222.0298160249545276
 30
0.0
 11
168.9082060810931409
 21
222.0298160249545276
 31
0.0
  0
LINE
  5
A6
100
AcDbEntity
100
AcDbLine
  8
Layer 2
 62
256
370
-1
  6
ByLayer
 10
164.145067081093174
 20
224.7798160249545276
 30
0.0
 11
165.7327800810931535
 21
222.0298160249545276
 31
0.0
  0
LINE
  5
A7
100
AcDbEntity
100
AcDbLine
  8
Layer 2
 62
256
370
-1
  6
ByLayer
 10
129.5040509297156177
 20
224.7798160249545276
 30
0.0
 11
131.0917639297156256
 21
227.5298160249545276
 31
0.0
  0
LINE
  5
A8
100
AcDbEntity
100
AcDbLine
  8
Layer 2
 62
256
370
-1
  6
ByLayer
 10
131.0917639297156256
 20
227.5298160249545276
 30
0.0
 11
134.2671899297156415
 21
227.5298160249545276
 31
0.0
  0
LINE
  5
A9
100
AcDbEntity
100
AcDbLine
  8
Layer 2
 62
256
370
-1
  6
ByLayer
 10
134.2671899297156415
 20
227.5298160249545276
 30
0.0
 11
135.8549029297155926
 21
224.7798160249545276
 31
0.0
  0
LINE
  5
AA
100
AcDbEntity
100
AcDbLine
  8
Layer 2
 62
256
370
-1
  6
ByLayer
 10
134.2671899297155846
 20
222.0298160249545276
 30
0.0
 11
135.8549029297155926
 21
224.7798160249545276
 31
0.0
  0
LINE
  5
AB
100
AcDbEntity
100
AcDbLine
  8
Layer 2
 62
256
370
-1
  6
ByLayer
 10
131.0917639297156256
 20
222.029816024954556
 30
0.0
 11
134.2671899297155846
 21
222.0298160249545276
 31
0.0
  0
LINE
  5
AC
100
AcDbEntity
100
AcDbLine
  8
Layer 2
 62
256
370
-1
  6
ByLayer
 10
129.5040509297156177
 20
224.7798160249545276
 30
0.0
 11
131.0917639297156256
 21
222.029816024954556
 31
0.0
  0
CIRCLE
  5
AD
100
AcDbEntity
100
AcDbCircle
  8
Layer 3
 62
256
370
-1
  6
ByLayer
 10
249.9999850054043975
 20
282.6731265266270725
 30
0.0
 40
4.8250000000000002
  0
CIRCLE
  5
AE
100
AcDbEntity
100
AcDbCircle
  8
Layer 3
 62
256
370
-1
  6
ByLayer
 10
269.4999850054044828
 20
291.4731265266271976
 30
0.0
 40
1.4299999999999999
  0
CIRCLE
  5
AF
100
AcDbEntity
100
AcDbCircle
  8
Layer 3
 62
256
370
-1
  6
ByLayer
 10
269.4999850054044259
 20
273.8731265266271748
 30
0.0
 40
1.4299999999999999
  0
ARC
  5
B0
100
AcDbEntity
  8
Layer 3
 62
256
370
-1
  6
ByLayer
100
AcDbCircle
 10
202.0
 20
298.0
 30
0.0
 40
2.0
100
AcDbArc
 50
90.0
 51
180.0
  0
ARC
  5
B1
100
AcDbEntity
  8
Layer 3
 62
256
370
-1
  6
ByLayer
100
AcDbCircle
 10
298.0
 20
202.0
 30
0.0
 40
2.0
100
AcDbArc
 50
270.0
 51
0.0
  0
LINE
  5
B2
100
AcDbEntity
100
AcDbLine
  8
Layer 3
 62
256
370
-1
  6
ByLayer
 10
200.0
 20
298.0
 30
0.0
 11
200.0
 21
202.0
 31
0.0
  0
ARC
  5
B3
100
AcDbEntity
  8
Layer 3
 62
256
370
-1
  6
ByLayer
100
AcDbCircle
 10
202.0
 20
202.0
 30
0.0
 40
2.0
100
AcDbArc
 50
180.0
 51
270.0
  0
LINE
  5
B4
100
AcDbEntity
100
AcDbLine
  8
Layer 3
 62
256
370
-1
  6
ByLayer
 10
274.7999850054043804
 20
271.5731265266270498
 30
0.0
 11
274.7999850054043804
 21
298.0
 31
0.0
  0
LINE
  5
B5
100
AcDbEntity
100
AcDbLine
  8
Layer 3
 62
256
370
-1
  6
ByLayer
 10
272.7999850054043804
 20
300.0
 30
0.0
 11
202.0
 21
300.0
 31
0.0
  0
ARC
  5
B6
100
AcDbEntity
  8
Layer 3
 62
256
370
-1
  6
ByLayer
100
AcDbCircle
 10
272.7999850054043804
 20
298.0
 30
0.0
 40
2.0
100
AcDbArc
 50
0.0
 51
90.0
  0
LINE
  5
B7
100
AcDbEntity
100
AcDbLine
  8
Layer 3
 62
256
370
-1
  6
ByLayer
 10
274.7999850054043804
 20
271.5731265266270498
 30
0.0
 11
298.0
 21
271.5731265266271066
 31
0.0
  0
LINE
  5
B8
100
AcDbEntity
100
AcDbLine
  8
Layer 3
 62
256
370
-1
  6
ByLayer
 10
300.0
 20
202.0
 30
0.0
 11
300.0
 21
269.5731265266271066
 31
0.0
  0
ARC
  5
B9
100
AcDbEntity
  8
Layer 3
 62
256
370
-1
  6
ByLayer
100
AcDbCircle
 10
298.0
 20
269.5731265266271066
 30
0.0
 40
2.0
100
AcDbArc
 50
0.0
 51
90.0
  0
MTEXT
  5
BA
100
AcDbEntity
100
AcDbMText
  8
Layer 3 Text
 62
256
370
-1
  6
ByLayer
 10
210.0
 20
283.0
 30
0.0
 40
3.0
 41
100.0
 71
1
 72
2
  1
Layer\~3
  7
standard
 50
0.0
 73
0
 44
1.0
  0
CIRCLE
  5
BB
100
AcDbEntity
100
AcDbCircle
  8
Layer 3
 62
256
370
-1
  6
ByLayer
 10
292.5
 20
250.0
 30
0.0
 40
2.3999999999999999
  0
CIRCLE
  5
BC
100
AcDbEntity
100
AcDbCircle
  8
Layer 3
 62
256
370
-1
  6
ByLayer
 10
292.5
 20
207.5
 30
0.0
 40
2.3999999999999999
  0
CIRCLE
  5
BD
100
AcDbEntity
100
AcDbCircle
  8
Layer 3
 62
256
370
-1
  6
ByLayer
 10
207.5
 20
207.5
 30
0.0
 40
2.3999999999999999
  0
CIRCLE
  5
BE
100
AcDbEntity
100
AcDbCircle
  8
Layer 3
 62
256
370
-1
  6
ByLayer
 10
207.5
 20
250.0
 30
0.0
 40
2.3999999999999999
  0
CIRCLE
  5
BF
100
AcDbEntity
100
AcDbCircle
  8
Layer 3
 62
256
370
-1
  6
ByLayer
 10
207.5
 20
292.5
 30
0.0
 40
2.3999999999999999
  0
CIRCLE
  5
C0
100
AcDbEntity
100
AcDbCircle
  8
Layer 3
 62
256
370
-1
  6
ByLayer
 10
232.0
 20
204.0
 30
0.0
 40
1.4299999999999999
  0
CIRCLE
  5
C1
100
AcDbEntity
100
AcDbCircle
  8
Layer 3
 62
256
370
-1
  6
ByLayer
 10
268.0
 20
204.0
 30
0.0
 40
1.4299999999999999
  0
CIRCLE
  5
C2
100
AcDbEntity
100
AcDbCircle
  8
Layer 4
 62
256
370
-1
  6
ByLayer
 10
49.9999850054043975
 20
182.6731265266270725
 30
0.0
 40
4.8250000000000002
  0
ARC
  5
C3
100
AcDbEntity
  8
Layer 4
 62
256
370
-1
  6
ByLayer
100
AcDbCircle
 10
98.0
 20
102.0
 30
0.0
 40
2.0
100
AcDbArc
 50
270.0
 51
0.0
  0
LINE
  5
C4
100
AcDbEntity
100
AcDbLine
  8
Layer 4
 62
256
370
-1
  6
ByLayer
 10
100.0
 20
102.0
 30
0.0
 11
100.0
 21
198.0
 31
0.0
  0
ARC
  5
C5
100
AcDbEntity
  8
Layer 4
 62
256
370
-1
  6
ByLayer
100
AcDbCircle
 10
98.0
 20
198.0
 30
0.0
 40
2.0
100
AcDbArc
 50
0.0
 51
90.0
  0
LINE
  5
C6
100
AcDbEntity
100
AcDbLine
  8
Layer 4
 62
256
370
-1
  6
ByLayer
 10
98.0
 20
200.0
 30
0.0
 11
2.0
 21
200.0
 31
0.0
  0
ARC
  5
C7
100
AcDbEntity
  8
Layer 4
 62
256
370
-1
  6
ByLayer
100
AcDbCircle
 10
2.0
 20
198.0
 30
0.0
 40
2.0
100
AcDbArc
 50
90.0
 51
180.0
  0
LINE
  5
C8
100
AcDbEntity
100
AcDbLine
  8
Layer 4
 62
256
370
-1
  6
ByLayer
 10
0.0
 20
198.0
 30
0.0
 11
0.0
 21
101.9999999999999716
 31
0.0
  0
ARC
  5
C9
100
AcDbEntity
  8
Layer 4
 62
256
370
-1
  6
ByLayer
100
AcDbCircle
 10
2.0
 20
101.9999999999999858
 30
0.0
 40
2.0
100
AcDbArc
 50
180.0
 51
270.0
  0
MTEXT
  5
CA
100
AcDbEntity
100
AcDbMText
  8
Layer 4 Text
 62
256
370
-1
  6
ByLayer
 10
10.0
 20
183.0
 30
0.0
 40
3.0
 41
100.0
 71
1
 72
2
  1
Layer\~4
  7
standard
 50
0.0
 73
0
 44
1.0
  0
LINE
  5
CB
100
AcDbEntity
100
AcDbLine
  8
Layer 4
 62
256
370
-1
  6
ByLayer
 10
66.3245590054045095
 20
191.4731265266272544
 30
0.0
 11
67.9122720054044891
 21
194.2231265266272544
 31
0.0
  0
LINE
  5
CC
100
AcDbEntity
100
AcDbLine
  8
Layer 4
 62
256
370
-1
  6
ByLayer
 10
67.9122720054044891
 20
194.2231265266272544
 30
0.0
 11
71.0876980054045049
 21
194.2231265266272544
 31
0.0
  0
LINE
  5
CD
100
AcDbEntity
100
AcDbLine
  8
Layer 4
 62
256
370
-1
  6
ByLayer
 10
71.0876980054045049
 20
194.2231265266272544
 30
0.0
 11
72.6754110054044844
 21
191.4731265266272544
 31
0.0
  0
LINE
  5
CE
100
AcDbEntity
100
AcDbLine
  8
Layer 4
 62
256
370
-1
  6
ByLayer
 10
71.0876980054044765
 20
188.7231265266272544
 30
0.0
 11
72.6754110054044844
 21
191.4731265266272544
 31
0.0
  0
LINE
  5
CF
100
AcDbEntity
100
AcDbLine
  8
Layer 4
 62
256
370
-1
  6
ByLayer
 10
67.9122720054044891
 20
188.7231265266272544
 30
0.0
 11
71.0876980054044765
 21
188.7231265266272544
 31
0.0
  0
LINE
  5
D0
100
AcDbEntity
100
AcDbLine
  8
Layer 4
 62
256
370
-1
  6
ByLayer
 10
66.3245590054045095
 20
191.4731265266272544
 30
0.0
 11
67.9122720054044891
 21
188.7231265266272544
 31
0.0
  0
LINE
  5
D1
100
AcDbEntity
100
AcDbLine
  8
Layer 4
 62
256
370
-1
  6
ByLayer
 10
66.3245590054044385
 20
173.873126526627118
 30
0.0
 11
67.912272005404418
 21
176.6231265266271464
 31
0.0
  0
LINE
  5
D2
100
AcDbEntity
100
AcDbLine
  8
Layer 4
 62
256
370
-1
  6
ByLayer
 10
67.912272005404418
 20
176.6231265266271464
 30
0.0
 11
71.0876980054044338
 21
176.6231265266271464
 31
0.0
  0
LINE
  5
D3
100
AcDbEntity
100
AcDbLine
  8
Layer 4
 62
256
370
-1
  6
ByLayer
 10
71.0876980054044338
 20
176.6231265266271464
 30
0.0
 11
72.6754110054044133
 21
173.873126526627118
 31
0.0
  0
LINE
  5
D4
100
AcDbEntity
100
AcDbLine
  8
Layer 4
 62
256
370
-1
  6
ByLayer
 10
71.0876980054044054
 20
171.1231265266271464
 30
0.0
 11
72.6754110054044133
 21
173.873126526627118
 31
0.0
  0
LINE
  5
D5
100
AcDbEntity
100
AcDbLine
  8
Layer 4
 62
256
370
-1
  6
ByLayer
 10
67.912272005404418
 20
171.1231265266271748
 30
0.0
 11
71.0876980054044054
 21
171.1231265266271464
 31
0.0
  0
LINE
  5
D6
100
AcDbEntity
100
AcDbLine
  8
Layer 4
 62
256
370
-1
  6
ByLayer
 10
66.3245590054044385
 20
173.873126526627118
 30
0.0
 11
67.912272005404418
 21
171.1231265266271748
 31
0.0
  0
CIRCLE
  5
D7
100
AcDbEntity
100
AcDbCircle
  8
Layer 4
 62
256
370
-1
  6
ByLayer
 10
7.5
 20
192.5
 30
0.0
 40
2.3999999999999999
  0
CIRCLE
  5
D8
100
AcDbEntity
100
AcDbCircle
  8
Layer 4
 62
256
370
-1
  6
ByLayer
 10
7.5
 20
150.0
 30
0.0
 40
2.3999999999999999
  0
CIRCLE
  5
D9
100
AcDbEntity
100
AcDbCircle
  8
Layer 4
 62
256
370
-1
  6
ByLayer
 10
7.5
 20
107.5
 30
0.0
 40
2.3999999999999999
  0
CIRCLE
  5
DA
100
AcDbEntity
100
AcDbCircle
  8
Layer 4
 62
256
370
-1
  6
ByLayer
 10
92.5
 20
107.5
 30
0.0
 40
2.3999999999999999
  0
CIRCLE
  5
DB
100
AcDbEntity
100
AcDbCircle
  8
Layer 4
 62
256
370
-1
  6
ByLayer
 10
92.5
 20
150.0
 30
0.0
 40
2.3999999999999999
  0
CIRCLE
  5
DC
100
AcDbEntity
100
AcDbCircle
  8
Layer 4
 62
256
370
-1
  6
ByLayer
 10
92.5
 20
192.5
 30
0.0
 40
2.3999999999999999
  0
ARC
  5
DD
100
AcDbEntity
  8
Layer 4
 62
256
370
-1
  6
ByLayer
100
AcDbCircle
 10
49.9999850054043975
 20
134.7798160249545276
 30
0.0
 40
32.0
100
AcDbArc
 50
0.0
 51
180.0
  0
LINE
  5
DE
100
AcDbEntity
100
AcDbLine
  8
Layer 4
 62
256
370
-1
  6
ByLayer
 10
81.9999850054043975
 20
134.7798160249545276
 30
0.0
 11
81.9999850054043975
 21
100.0
 31
0.0
  0
LINE
  5
DF
100
AcDbEntity
100
AcDbLine
  8
Layer 4
 62
256
370
-1
  6
ByLayer
 10
17.9997196385934544
 20
134.7798160249545276
 30
0.0
 11
17.9997196385934544
 21
100.0
 31
0.0
  0
CIRCLE
  5
E0
100
AcDbEntity
100
AcDbCircle
  8
Layer 4
 62
256
370
-1
  6
ByLayer
 10
32.0
 20
104.0
 30
0.0
 40
1.4299999999999999
  0
CIRCLE
  5
E1
100
AcDbEntity
100
AcDbCircle
  8
Layer 4
 62
256
370
-1
  6
ByLayer
 10
68.0
 20
104.0
 30
0.0
 40
1.4299999999999999
  0
LINE
  5
E2
100
AcDbEntity
100
AcDbLine
  8
Layer 4
 62
256
370
-1
  6
ByLayer
 10
27.4997196385934544
 20
113.4552279064682097
 30
0.0
 11
27.4997196385934508
 21
99.9999999999999858
 31
0.0
  0
LINE
  5
E3
100
AcDbEntity
100
AcDbLine
  8
Layer 4
 62
256
370
-1
  6
ByLayer
 10
72.4999850054043975
 20
113.4549479128184117
 30
0.0
 11
72.4999850054043975
 21
100.0
 31
0.0
  0
ARC
  5
E4
100
AcDbEntity
  8
Layer 4
 62
256
370
-1
  6
ByLayer
100
AcDbCircle
 10
49.9999850054043975
 20
134.7798160249545276
 30
0.0
 40
31.0
100
AcDbArc
 50
223.4633105045682555
 51
316.535976501661878
  0
MTEXT
  5
E5
100
AcDbEntity
100
AcDbMText
  8
Layer 4 Text
 62
256
370
-1
  6
ByLayer
 10
50.0
 20
102.0
 30
0.0
 40
2.0
 41
100.0
 71
5
 72
2
  1
Layer\~4
  7
standard
 50
0.0
 73
0
 44
1.0
  0
CIRCLE
  5
E6
100
AcDbEntity
100
AcDbCircle
  8
Layer 5
 62
256
370
-1
  6
ByLayer
 10
149.9999850054043975
 20
182.6731265266270725
 30
0.0
 40
4.8250000000000002
  0
CIRCLE
  5
E7
100
AcDbEntity
100
AcDbCircle
  8
Layer 5
 62
256
370
-1
  6
ByLayer
 10
169.4999850054044828
 20
191.4731265266272544
 30
0.0
 40
1.4299999999999999
  0
CIRCLE
  5
E8
100
AcDbEntity
100
AcDbCircle
  8
Layer 5
 62
256
370
-1
  6
ByLayer
 10
169.4999850054044259
 20
173.873126526627118
 30
0.0
 40
1.4299999999999999
  0
ARC
  5
E9
100
AcDbEntity
  8
Layer 5
 62
256
370
-1
  6
ByLayer
100
AcDbCircle
 10
198.0
 20
101.9999999999999716
 30
0.0
 40
2.0
100
AcDbArc
 50
270.0
 51
0.0
  0
LINE
  5
EA
100
AcDbEntity
100
AcDbLine
  8
Layer 5
 62
256
370
-1
  6
ByLayer
 10
199.9999999999999432
 20
101.9999999999999432
 30
0.0
 11
200.0
 21
198.0000000000004263
 31
0.0
  0
ARC
  5
EB
100
AcDbEntity
  8
Layer 5
 62
256
370
-1
  6
ByLayer
100
AcDbCircle
 10
198.0
 20
198.0000000000004263
 30
0.0
 40
2.0
100
AcDbArc
 50
0.0
 51
90.0
  0
LINE
  5
EC
100
AcDbEntity
100
AcDbLine
  8
Layer 5
 62
256
370
-1
  6
ByLayer
 10
198.0
 20
200.0
 30
0.0
 11
102.0
 21
200.0
 31
0.0
  0
ARC
  5
ED
100
AcDbEntity
  8
Layer 5
 62
256
370
-1
  6
ByLayer
100
AcDbCircle
 10
102.0
 20
198.0
 30
0.0
 40
2.0
100
AcDbArc
 50
90.0
 51
180.0
  0
ARC
  5
EE
100
AcDbEntity
  8
Layer 5
 62
256
370
-1
  6
ByLayer
100
AcDbCircle
 10
101.9999999999999716
 20
101.9999999999999858
 30
0.0
 40
2.0
100
AcDbArc
 50
180.0
 51
270.0
  0
MTEXT
  5
EF
100
AcDbEntity
100
AcDbMText
  8
Layer 5 Text
 62
256
370
-1
  6
ByLayer
 10
110.0
 20
183.0
 30
0.0
 40
3.0
 41
100.0
 71
1
 72
2
  1
Layer\~5
  7
standard
 50
0.0
 73
0
 44
1.0
  0
CIRCLE
  5
F0
100
AcDbEntity
100
AcDbCircle
  8
Layer 5
 62
256
370
-1
  6
ByLayer
 10
107.5
 20
192.5
 30
0.0
 40
2.3999999999999999
  0
CIRCLE
  5
F1
100
AcDbEntity
100
AcDbCircle
  8
Layer 5
 62
256
370
-1
  6
ByLayer
 10
107.4999999999999716
 20
150.0
 30
0.0
 40
2.3999999999999999
  0
CIRCLE
  5
F2
100
AcDbEntity
100
AcDbCircle
  8
Layer 5
 62
256
370
-1
  6
ByLayer
 10
107.4999999999999432
 20
107.4999999999999858
 30
0.0
 40
2.3999999999999999
  0
CIRCLE
  5
F3
100
AcDbEntity
100
AcDbCircle
  8
Layer 5
 62
256
370
-1
  6
ByLayer
 10
192.5
 20
107.4999999999999716
 30
0.0
 40
2.3999999999999999
  0
CIRCLE
  5
F4
100
AcDbEntity
100
AcDbCircle
  8
Layer 5
 62
256
370
-1
  6
ByLayer
 10
192.5
 20
149.9999999999999432
 30
0.0
 40
2.3999999999999999
  0
CIRCLE
  5
F5
100
AcDbEntity
100
AcDbCircle
  8
Layer 5
 62
256
370
-1
  6
ByLayer
 10
192.5
 20
192.5
 30
0.0
 40
2.3999999999999999
  0
ARC
  5
F6
100
AcDbEntity
  8
Layer 5
 62
256
370
-1
  6
ByLayer
100
AcDbCircle
 10
149.9999850054043975
 20
134.7798160249545276
 30
0.0
 40
32.0002653668109431
100
AcDbArc
 50
0.0
 51
180.0
  0
LINE
  5
F7
100
AcDbEntity
100
AcDbLine
  8
Layer 5
 62
256
370
-1
  6
ByLayer
 10
117.9997196385934615
 20
134.7798160249545276
 30
0.0
 11
117.9997196385934615
 21
100.0
 31
0.0
  0
LINE
  5
F8
100
AcDbEntity
100
AcDbLine
  8
Layer 5
 62
256
370
-1
  6
ByLayer
 10
182.0002503722153335
 20
134.7798160249545276
 30
0.0
 11
181.9999850054043975
 21
100.0
 31
0.0
  0
CIRCLE
  5
F9
100
AcDbEntity
100
AcDbCircle
  8
Layer 5
 62
256
370
-1
  6
ByLayer
 10
132.0
 20
104.0
 30
0.0
 40
1.4299999999999999
  0
CIRCLE
  5
FA
100
AcDbEntity
100
AcDbCircle
  8
Layer 5
 62
256
370
-1
  6
ByLayer
 10
168.0
 20
104.0
 30
0.0
 40
1.4299999999999999
  0
LINE
  5
FB
100
AcDbEntity
100
AcDbLine
  8
Layer 5
 62
256
370
-1
  6
ByLayer
 10
127.4997196385934615
 20
113.4552279064682097
 30
0.0
 11
127.4997196385934473
 21
99.9999999999999858
 31
0.0
  0
LINE
  5
FC
100
AcDbEntity
100
AcDbLine
  8
Layer 5
 62
256
370
-1
  6
ByLayer
 10
172.4999850054043975
 20
113.4549479128184117
 30
0.0
 11
172.4999850054043975
 21
100.0
 31
0.0
  0
ARC
  5
FD
100
AcDbEntity
  8
Layer 5
 62
256
370
-1
  6
ByLayer
100
AcDbCircle
 10
149.9999850054043975
 20
134.7798160249545276
 30
0.0
 40
31.0
100
AcDbArc
 50
223.4633105045682555
 51
316.535976501661878
  0
MTEXT
  5
FE
100
AcDbEntity
100
AcDbMText
  8
Layer 5 Text
 62
256
370
-1
  6
ByLayer
 10
150.0
 20
102.0
 30
0.0
 40
2.0
 41
100.0
 71
5
 72
2
  1
Layer\~5
  7
standard
 50
0.0
 73
0
 44
1.0
  0
ARC
  5
FF
100
AcDbEntity
  8
Layer 6
 62
256
370
-1
  6
ByLayer
100
AcDbCircle
 10
298.0
 20
198.0
 30
0.0
 40
2.0
100
AcDbArc
 50
0.0
 51
90.0
  0
LINE
  5
100
100
AcDbEntity
100
AcDbLine
  8
Layer 6
 62
256
370
-1
  6
ByLayer
 10
298.0
 20
200.0
 30
0.0
 11
202.0
 21
200.0
 31
0.0
  0
ARC
  5
101
100
AcDbEntity
  8
Layer 6
 62
256
370
-1
  6
ByLayer
100
AcDbCircle
 10
202.0
 20
198.0
 30
0.0
 40
2.0
100
AcDbArc
 50
90.0
 51
180.0
  0
ARC
  5
102
100
AcDbEntity
  8
Layer 6
 62
256
370
-1
  6
ByLayer
100
AcDbCircle
 10
202.0
 20
102.0
 30
0.0
 40
2.0
100
AcDbArc
 50
180.0
 51
270.0
  0
LINE
  5
103
100
AcDbEntity
100
AcDbLine
  8
Layer 6
 62
256
370
-1
  6
ByLayer
 10
300.0
 20
102.0
 30
0.0
 11
300.0
 21
198.0
 31
0.0
  0
ARC
  5
104
100
AcDbEntity
  8
Layer 6
 62
256
370
-1
  6
ByLayer
100
AcDbCircle
 10
298.0
 20
102.0
 30
0.0
 40
2.0
100
AcDbArc
 50
270.0
 51
0.0
  0
MTEXT
  5
105
100
AcDbEntity
100
AcDbMText
  8
Layer 6 Text
 62
256
370
-1
  6
ByLayer
 10
210.0
 20
183.0
 30
0.0
 40
3.0
 41
100.0
 71
1
 72
2
  1
Layer\~6
  7
standard
 50
0.0
 73
0
 44
1.0
  0
CIRCLE
  5
106
100
AcDbEntity
100
AcDbCircle
  8
Layer 6
 62
256
370
-1
  6
ByLayer
 10
269.4999850054044828
 20
191.4731265266271976
 30
0.0
 40
1.4299999999999999
  0
CIRCLE
  5
107
100
AcDbEntity
100
AcDbCircle
  8
Layer 6
 62
256
370
-1
  6
ByLayer
 10
269.4999850054044259
 20
173.8731265266271464
 30
0.0
 40
1.4299999999999999
  0
CIRCLE
  5
108
100
AcDbEntity
100
AcDbCircle
  8
Layer 6
 62
256
370
-1
  6
ByLayer
 10
207.5
 20
192.5
 30
0.0
 40
2.3999999999999999
  0
CIRCLE
  5
109
100
AcDbEntity
100
AcDbCircle
  8
Layer 6
 62
256
370
-1
  6
ByLayer
 10
207.5
 20
150.0
 30
0.0
 40
2.3999999999999999
  0
CIRCLE
  5
10A
100
AcDbEntity
100
AcDbCircle
  8
Layer 6
 62
256
370
-1
  6
ByLayer
 10
207.5
 20
107.5
 30
0.0
 40
2.3999999999999999
  0
CIRCLE
  5
10B
100
AcDbEntity
100
AcDbCircle
  8
Layer 6
 62
256
370
-1
  6
ByLayer
 10
292.5
 20
107.5
 30
0.0
 40
2.3999999999999999
  0
CIRCLE
  5
10C
100
AcDbEntity
100
AcDbCircle
  8
Layer 6
 62
256
370
-1
  6
ByLayer
 10
292.5
 20
150.0
 30
0.0
 40
2.3999999999999999
  0
CIRCLE
  5
10D
100
AcDbEntity
100
AcDbCircle
  8
Layer 6
 62
256
370
-1
  6
ByLayer
 10
292.5
 20
192.5
 30
0.0
 40
2.3999999999999999
  0
LINE
  5
10E
100
AcDbEntity
100
AcDbLine
  8
Layer 6
 62
256
370
-1
  6
ByLayer
 10
227.4997196385934615
 20
99.9999999999999858
 30
0.0
 11
272.4999850054043691
 21
100.0
 31
0.0
  0
ARC
  5
10F
100
AcDbEntity
  8
Layer 6
 62
256
370
-1
  6
ByLayer
100
AcDbCircle
 10
249.9999850054043975
 20
134.7798160249545276
 30
0.0
 40
32.0002653668109431
100
AcDbArc
 50
0.0
 51
180.0
  0
LINE
  5
110
100
AcDbEntity
100
AcDbLine
  8
Layer 6
 62
256
370
-1
  6
ByLayer
 10
217.9997196385934615
 20
134.7798160249544708
 30
0.0
 11
217.9997196385934615
 21
100.0000000000000142
 31
0.0
  0
LINE
  5
111
100
AcDbEntity
100
AcDbLine
  8
Layer 6
 62
256
370
-1
  6
ByLayer
 10
282.0002503722153051
 20
134.7798160249544708
 30
0.0
 11
281.9999850054043691
 21
100.0
 31
0.0
  0
LINE
  5
112
100
AcDbEntity
100
AcDbLine
  8
Layer 6
 62
256
370
-1
  6
ByLayer
 10
202.0
 20
100.0
 30
0.0
 11
217.9997196385934615
 21
100.0000000000000142
 31
0.0
  0
LINE
  5
113
100
AcDbEntity
100
AcDbLine
  8
Layer 6
 62
256
370
-1
  6
ByLayer
 10
281.9999850054043691
 20
100.0
 30
0.0
 11
298.0
 21
100.0
 31
0.0
  0
CIRCLE
  5
114
100
AcDbEntity
100
AcDbCircle
  8
Layer 6
 62
256
370
-1
  6
ByLayer
 10
232.0
 20
104.0
 30
0.0
 40
1.4299999999999999
  0
CIRCLE
  5
115
100
AcDbEntity
100
AcDbCircle
  8
Layer 6
 62
256
370
-1
  6
ByLayer
 10
268.0
 20
104.0
 30
0.0
 40
1.4299999999999999
  0
LINE
  5
116
100
AcDbEntity
100
AcDbLine
  8
Layer 6
 62
256
370
-1
  6
ByLayer
 10
227.4997196385934615
 20
113.4552279064681954
 30
0.0
 11
227.4997196385934615
 21
99.9999999999999858
 31
0.0
  0
LINE
  5
117
100
AcDbEntity
100
AcDbLine
  8
Layer 6
 62
256
370
-1
  6
ByLayer
 10
272.4999850054043691
 20
113.4549479128183975
 30
0.0
 11
272.4999850054043691
 21
100.0
 31
0.0
  0
ARC
  5
118
100
AcDbEntity
  8
Layer 6
 62
256
370
-1
  6
ByLayer
100
AcDbCircle
 10
249.9999850054043975
 20
134.7798160249545276
 30
0.0
 40
31.0
100
AcDbArc
 50
223.4633105045683124
 51
316.5359765016618212
  0
MTEXT
  5
119
100
AcDbEntity
100
AcDbMText
  8
Layer 6 Text
 62
256
370
-1
  6
ByLayer
 10
250.0
 20
102.0
 30
0.0
 40
2.0
 41
100.0
 71
5
 72
2
  1
Layer\~6
  7
standard
 50
0.0
 73
0
 44
1.0
  0
ARC
  5
11A
100
AcDbEntity
  8
Layer 8
 62
256
370
-1
  6
ByLayer
100
AcDbCircle
 10
198.0
 20
98.0
 30
0.0
 40
2.0
100
AcDbArc
 50
0.0
 51
90.0
  0
LINE
  5
11B
100
AcDbEntity
100
AcDbLine
  8
Layer 8
 62
256
370
-1
  6
ByLayer
 10
200.0
 20
2.0
 30
0.0
 11
200.0
 21
98.0
 31
0.0
  0
ARC
  5
11C
100
AcDbEntity
  8
Layer 8
 62
256
370
-1
  6
ByLayer
100
AcDbCircle
 10
198.0
 20
2.0
 30
0.0
 40
2.0
100
AcDbArc
 50
270.0
 51
0.0
  0
LINE
  5
11D
100
AcDbEntity
100
AcDbLine
  8
Layer 8
 62
256
370
-1
  6
ByLayer
 10
102.0
 20
0.0
 30
0.0
 11
198.0
 21
0.0
 31
0.0
  0
ARC
  5
11E
100
AcDbEntity
  8
Layer 8
 62
256
370
-1
  6
ByLayer
100
AcDbCircle
 10
102.0
 20
2.0
 30
0.0
 40
2.0
100
AcDbArc
 50
180.0
 51
270.0
  0
LINE
  5
11F
100
AcDbEntity
100
AcDbLine
  8
Layer 8
 62
256
370
-1
  6
ByLayer
 10
100.0
 20
98.0
 30
0.0
 11
100.0
 21
2.0
 31
0.0
  0
LINE
  5
120
100
AcDbEntity
100
AcDbLine
  8
Layer 8
 62
256
370
-1
  6
ByLayer
 10
198.0
 20
100.0
 30
0.0
 11
102.0
 21
100.0
 31
0.0
  0
ARC
  5
121
100
AcDbEntity
  8
Layer 8
 62
256
370
-1
  6
ByLayer
100
AcDbCircle
 10
102.0
 20
98.0
 30
0.0
 40
2.0
100
AcDbArc
 50
90.0
 51
180.0
  0
MTEXT
  5
122
100
AcDbEntity
100
AcDbMText
  8
Layer 8 Text
 62
256
370
-1
  6
ByLayer
 10
110.0
 20
83.0
 30
0.0
 40
3.0
 41
100.0
 71
1
 72
2
  1
Layer\~8
  7
standard
 50
0.0
 73
0
 44
1.0
  0
CIRCLE
  5
123
100
AcDbEntity
100
AcDbCircle
  8
Layer 8
 62
256
370
-1
  6
ByLayer
 10
149.9999850054043975
 20
34.7798160249545276
 30
0.0
 40
10.9000000000000004
  0
CIRCLE
  5
124
100
AcDbEntity
100
AcDbCircle
  8
Layer 8
 62
256
370
-1
  6
ByLayer
 10
107.5
 20
92.5
 30
0.0
 40
2.3999999999999999
  0
CIRCLE
  5
125
100
AcDbEntity
100
AcDbCircle
  8
Layer 8
 62
256
370
-1
  6
ByLayer
 10
107.5
 20
50.0
 30
0.0
 40
2.3999999999999999
  0
CIRCLE
  5
126
100
AcDbEntity
100
AcDbCircle
  8
Layer 8
 62
256
370
-1
  6
ByLayer
 10
107.5
 20
7.5
 30
0.0
 40
2.3999999999999999
  0
CIRCLE
  5
127
100
AcDbEntity
100
AcDbCircle
  8
Layer 8
 62
256
370
-1
  6
ByLayer
 10
192.5
 20
7.5
 30
0.0
 40
2.3999999999999999
  0
CIRCLE
  5
128
100
AcDbEntity
100
AcDbCircle
  8
Layer 8
 62
256
370
-1
  6
ByLayer
 10
192.5
 20
50.0
 30
0.0
 40
2.3999999999999999
  0
CIRCLE
  5
129
100
AcDbEntity
100
AcDbCircle
  8
Layer 8
 62
256
370
-1
  6
ByLayer
 10
192.5
 20
92.5
 30
0.0
 40
2.3999999999999999
  0
CIRCLE
  5
12A
100
AcDbEntity
100
AcDbCircle
  8
Layer 8
 62
256
370
-1
  6
ByLayer
 10
132.0
 20
4.0
 30
0.0
 40
1.4299999999999999
  0
CIRCLE
  5
12B
100
AcDbEntity
100
AcDbCircle
  8
Layer 8
 62
256
370
-1
  6
ByLayer
 10
168.0
 20
4.0
 30
0.0
 40
1.4299999999999999
  0
LINE
  5
12C
100
AcDbEntity
100
AcDbLine
  8
Motor Gear
 62
256
370
-1
  6
ByLayer
 10
64.6194256063309354
 20
135.957085784037929
 30
0.0
 11
64.9867851611464005
 21
135.9866167673471296
 31
0.0
  0
LINE
  5
12D
100
AcDbEntity
100
AcDbLine
  8
Motor Gear
 62
256
370
-1
  6
ByLayer
 10
64.9867851611464005
 20
135.9866167673471296
 30
0.0
 11
65.9659235658242835
 21
135.8261848563640228
 31
0.0
  0
LINE
  5
12E
100
AcDbEntity
100
AcDbLine
  8
Motor Gear
 62
256
370
-1
  6
ByLayer
 10
65.9659235658242835
 20
135.8261848563640228
 30
0.0
 11
67.3268734733729275
 21
135.2567139842479378
 31
0.0
  0
LINE
  5
12F
100
AcDbEntity
100
AcDbLine
  8
Motor Gear
 62
256
370
-1
  6
ByLayer
 10
67.3268734733729275
 20
135.2567139842479378
 30
0.0
 11
67.3268734733729275
 21
134.3029180656611743
 31
0.0
  0
LINE
  5
130
100
AcDbEntity
100
AcDbLine
  8
Motor Gear
 62
256
370
-1
  6
ByLayer
 10
67.3268734733729275
 20
134.3029180656611743
 30
0.0
 11
65.9659235658242835
 21
133.7334471935450324
 31
0.0
  0
LINE
  5
131
100
AcDbEntity
100
AcDbLine
  8
Motor Gear
 62
256
370
-1
  6
ByLayer
 10
65.9659235658242835
 20
133.7334471935450324
 30
0.0
 11
64.9867851611464005
 21
133.5730152825619257
 31
0.0
  0
LINE
  5
132
100
AcDbEntity
100
AcDbLine
  8
Motor Gear
 62
256
370
-1
  6
ByLayer
 10
64.9867851611464005
 20
133.5730152825619257
 30
0.0
 11
64.6194256063309354
 21
133.6025462658711831
 31
0.0
  0
LINE
  5
133
100
AcDbEntity
100
AcDbLine
  8
Motor Gear
 62
256
370
-1
  6
ByLayer
 10
64.6194256063309354
 20
133.6025462658711831
 30
0.0
 11
64.4261105784571555
 21
132.1331058202641771
 31
0.0
  0
LINE
  5
134
100
AcDbEntity
100
AcDbLine
  8
Motor Gear
 62
256
370
-1
  6
ByLayer
 10
64.4261105784571555
 20
132.1331058202641771
 30
0.0
 11
64.7884445303029963
 21
132.0667124992841082
 31
0.0
  0
LINE
  5
135
100
AcDbEntity
100
AcDbLine
  8
Motor Gear
 62
256
370
-1
  6
ByLayer
 10
64.7884445303029963
 20
132.0667124992841082
 30
0.0
 11
65.6926026010118846
 21
131.6583021095798358
 31
0.0
  0
LINE
  5
136
100
AcDbEntity
100
AcDbLine
  8
Motor Gear
 62
256
370
-1
  6
ByLayer
 10
65.6926026010118846
 20
131.6583021095798358
 30
0.0
 11
66.8600289463638831
 21
130.7560290110420169
 31
0.0
  0
LINE
  5
137
100
AcDbEntity
100
AcDbLine
  8
Motor Gear
 62
256
370
-1
  6
ByLayer
 10
66.8600289463638831
 20
130.7560290110420169
 30
0.0
 11
66.6130975919471666
 21
129.8344868958022289
 31
0.0
  0
LINE
  5
138
100
AcDbEntity
100
AcDbLine
  8
Motor Gear
 62
256
370
-1
  6
ByLayer
 10
66.6130975919471666
 20
129.8344868958022289
 30
0.0
 11
65.1509877585867514
 21
129.6367740942725391
 31
0.0
  0
LINE
  5
139
100
AcDbEntity
100
AcDbLine
  8
Motor Gear
 62
256
370
-1
  6
ByLayer
 10
65.1509877585867514
 20
129.6367740942725391
 30
0.0
 11
64.1636808937956573
 21
129.7352119421616408
 31
0.0
  0
LINE
  5
13A
100
AcDbEntity
100
AcDbLine
  8
Motor Gear
 62
256
370
-1
  6
ByLayer
 10
64.1636808937956573
 20
129.7352119421616408
 30
0.0
 11
63.8166367378717041
 21
129.8587822575889277
 31
0.0
  0
LINE
  5
13B
100
AcDbEntity
100
AcDbLine
  8
Motor Gear
 62
256
370
-1
  6
ByLayer
 10
63.8166367378717041
 20
129.8587822575889277
 30
0.0
 11
63.2494693908024601
 21
128.4896638899271011
 31
0.0
  0
LINE
  5
13C
100
AcDbEntity
100
AcDbLine
  8
Motor Gear
 62
256
370
-1
  6
ByLayer
 10
63.2494693908024601
 20
128.4896638899271011
 30
0.0
 11
63.5822716172241087
 21
128.3315355039909207
 31
0.0
  0
LINE
  5
13D
100
AcDbEntity
100
AcDbLine
  8
Motor Gear
 62
256
370
-1
  6
ByLayer
 10
63.5822716172241087
 20
128.3315355039909207
 30
0.0
 11
64.3500838622986464
 21
127.7032119416942493
 31
0.0
  0
LINE
  5
13E
100
AcDbEntity
100
AcDbLine
  8
Motor Gear
 62
256
370
-1
  6
ByLayer
 10
64.3500838622986464
 20
127.7032119416942493
 30
0.0
 11
65.2439792242853116
 21
126.5295021084001945
 31
0.0
  0
LINE
  5
13F
100
AcDbEntity
100
AcDbLine
  8
Motor Gear
 62
256
370
-1
  6
ByLayer
 10
65.2439792242853116
 20
126.5295021084001945
 30
0.0
 11
64.7670812649919583
 21
125.7032564681359474
 31
0.0
  0
LINE
  5
140
100
AcDbEntity
100
AcDbLine
  8
Motor Gear
 62
256
370
-1
  6
ByLayer
 10
64.7670812649919583
 20
125.7032564681359474
 30
0.0
 11
63.3037150308891796
 21
125.8907058188284083
 31
0.0
  0
LINE
  5
141
100
AcDbEntity
100
AcDbLine
  8
Motor Gear
 62
256
370
-1
  6
ByLayer
 10
63.3037150308891796
 20
125.8907058188284083
 30
0.0
 11
62.3754708748315068
 21
126.2413106426567282
 31
0.0
  0
LINE
  5
142
100
AcDbEntity
100
AcDbLine
  8
Motor Gear
 62
256
370
-1
  6
ByLayer
 10
62.3754708748315068
 20
126.2413106426567282
 30
0.0
 11
62.0721996317190872
 21
126.4505425536510188
 31
0.0
  0
LINE
  5
143
100
AcDbEntity
100
AcDbLine
  8
Motor Gear
 62
256
370
-1
  6
ByLayer
 10
62.0721996317190872
 20
126.4505425536510188
 30
0.0
 11
61.1699265331813251
 21
125.2747392138629863
 31
0.0
  0
LINE
  5
144
100
AcDbEntity
100
AcDbLine
  8
Motor Gear
 62
256
370
-1
  6
ByLayer
 10
61.1699265331813251
 20
125.2747392138629863
 30
0.0
 11
61.4505773681252947
 21
125.0359763195594667
 31
0.0
  0
LINE
  5
145
100
AcDbEntity
100
AcDbLine
  8
Motor Gear
 62
256
370
-1
  6
ByLayer
 10
61.4505773681252947
 20
125.0359763195594667
 30
0.0
 11
62.0294738432120312
 21
124.2302553546246173
 31
0.0
  0
LINE
  5
146
100
AcDbEntity
100
AcDbLine
  8
Motor Gear
 62
256
370
-1
  6
ByLayer
 10
62.0294738432120312
 20
124.2302553546246173
 30
0.0
 11
62.5893105780346843
 21
122.8651162077429291
 31
0.0
  0
LINE
  5
147
100
AcDbEntity
100
AcDbLine
  8
Motor Gear
 62
256
370
-1
  6
ByLayer
 10
62.5893105780346843
 20
122.8651162077429291
 30
0.0
 11
61.9146998172116128
 21
122.1905054469198575
 31
0.0
  0
LINE
  5
148
100
AcDbEntity
100
AcDbLine
  8
Motor Gear
 62
256
370
-1
  6
ByLayer
 10
61.9146998172116128
 20
122.1905054469198575
 30
0.0
 11
60.5495606703299245
 21
122.750342181742468
 31
0.0
  0
LINE
  5
149
100
AcDbEntity
100
AcDbLine
  8
Motor Gear
 62
256
370
-1
  6
ByLayer
 10
60.5495606703299245
 20
122.750342181742468
 30
0.0
 11
59.7438397053950894
 21
123.3292386568292756
 31
0.0
  0
LINE
  5
14A
100
AcDbEntity
100
AcDbLine
  8
Motor Gear
 62
256
370
-1
  6
ByLayer
 10
59.7438397053950894
 20
123.3292386568292756
 30
0.0
 11
59.5050768110915271
 21
123.6098894917732167
 31
0.0
  0
LINE
  5
14B
100
AcDbEntity
100
AcDbLine
  8
Motor Gear
 62
256
370
-1
  6
ByLayer
 10
59.5050768110915271
 20
123.6098894917732167
 30
0.0
 11
58.3292734713034804
 21
122.7076163932354262
 31
0.0
  0
LINE
  5
14C
100
AcDbEntity
100
AcDbLine
  8
Motor Gear
 62
256
370
-1
  6
ByLayer
 10
58.3292734713034804
 20
122.7076163932354262
 30
0.0
 11
58.5385053822977852
 21
122.4043451501230066
 31
0.0
  0
LINE
  5
14D
100
AcDbEntity
100
AcDbLine
  8
Motor Gear
 62
256
370
-1
  6
ByLayer
 10
58.5385053822977852
 20
122.4043451501230066
 30
0.0
 11
58.8891102061261051
 21
121.4761009940653622
 31
0.0
  0
LINE
  5
14E
100
AcDbEntity
100
AcDbLine
  8
Motor Gear
 62
256
370
-1
  6
ByLayer
 10
58.8891102061261051
 20
121.4761009940653622
 30
0.0
 11
59.0765595568185802
 21
120.0127347599625551
 31
0.0
  0
LINE
  5
14F
100
AcDbEntity
100
AcDbLine
  8
Motor Gear
 62
256
370
-1
  6
ByLayer
 10
59.0765595568185802
 20
120.0127347599625551
 30
0.0
 11
58.2503139165543189
 21
119.5358368006691734
 31
0.0
  0
LINE
  5
150
100
AcDbEntity
100
AcDbLine
  8
Motor Gear
 62
256
370
-1
  6
ByLayer
 10
58.2503139165543189
 20
119.5358368006691734
 30
0.0
 11
57.0766040832602641
 21
120.4297321626558528
 31
0.0
  0
LINE
  5
151
100
AcDbEntity
100
AcDbLine
  8
Motor Gear
 62
256
370
-1
  6
ByLayer
 10
57.0766040832602641
 20
120.4297321626558528
 30
0.0
 11
56.4482805209636069
 21
121.1975444077304047
 31
0.0
  0
LINE
  5
152
100
AcDbEntity
100
AcDbLine
  8
Motor Gear
 62
256
370
-1
  6
ByLayer
 10
56.4482805209636069
 20
121.1975444077304047
 30
0.0
 11
56.2901521350274265
 21
121.5303466341520533
 31
0.0
  0
LINE
  5
153
100
AcDbEntity
100
AcDbLine
  8
Motor Gear
 62
256
370
-1
  6
ByLayer
 10
56.2901521350274265
 20
121.5303466341520533
 30
0.0
 11
54.9210337673655999
 21
120.9631792870828519
 31
0.0
  0
LINE
  5
154
100
AcDbEntity
100
AcDbLine
  8
Motor Gear
 62
256
370
-1
  6
ByLayer
 10
54.9210337673655999
 20
120.9631792870828519
 30
0.0
 11
55.0446040827928869
 21
120.6161351311588561
 31
0.0
  0
LINE
  5
155
100
AcDbEntity
100
AcDbLine
  8
Motor Gear
 62
256
370
-1
  6
ByLayer
 10
55.0446040827928869
 20
120.6161351311588561
 30
0.0
 11
55.1430419306819601
 21
119.628828266367762
 31
0.0
  0
LINE
  5
156
100
AcDbEntity
100
AcDbLine
  8
Motor Gear
 62
256
370
-1
  6
ByLayer
 10
55.1430419306819601
 20
119.628828266367762
 30
0.0
 11
54.9453291291522419
 21
118.1667184330073752
 31
0.0
  0
LINE
  5
157
100
AcDbEntity
100
AcDbLine
  8
Motor Gear
 62
256
370
-1
  6
ByLayer
 10
54.9453291291522419
 20
118.1667184330073752
 30
0.0
 11
54.0237870139124823
 21
117.9197870785906446
 31
0.0
  0
LINE
  5
158
100
AcDbEntity
100
AcDbLine
  8
Motor Gear
 62
256
370
-1
  6
ByLayer
 10
54.0237870139124823
 20
117.9197870785906446
 30
0.0
 11
53.1215139153746918
 21
119.087213423942643
 31
0.0
  0
LINE
  5
159
100
AcDbEntity
100
AcDbLine
  8
Motor Gear
 62
256
370
-1
  6
ByLayer
 10
53.1215139153746918
 20
119.087213423942643
 30
0.0
 11
52.713103525670391
 21
119.9913714946515171
 31
0.0
  0
LINE
  5
15A
100
AcDbEntity
100
AcDbLine
  8
Motor Gear
 62
256
370
-1
  6
ByLayer
 10
52.713103525670391
 20
119.9913714946515171
 30
0.0
 11
52.646710204690379
 21
120.3537054464973721
 31
0.0
  0
LINE
  5
15B
100
AcDbEntity
100
AcDbLine
  8
Motor Gear
 62
256
370
-1
  6
ByLayer
 10
52.646710204690379
 20
120.3537054464973721
 30
0.0
 11
51.1772697590834014
 21
120.1603904186236065
 31
0.0
  0
LINE
  5
15C
100
AcDbEntity
100
AcDbLine
  8
Motor Gear
 62
256
370
-1
  6
ByLayer
 10
51.1772697590834014
 20
120.1603904186236065
 30
0.0
 11
51.2068007423925735
 21
119.7930308638081414
 31
0.0
  0
LINE
  5
15D
100
AcDbEntity
100
AcDbLine
  8
Motor Gear
 62
256
370
-1
  6
ByLayer
 10
51.2068007423925735
 20
119.7930308638081414
 30
0.0
 11
51.0463688314094952
 21
118.8138924591302583
 31
0.0
  0
LINE
  5
15E
100
AcDbEntity
100
AcDbLine
  8
Motor Gear
 62
256
370
-1
  6
ByLayer
 10
51.0463688314094952
 20
118.8138924591302583
 30
0.0
 11
50.4768979592933533
 21
117.4529425515816001
 31
0.0
  0
LINE
  5
15F
100
AcDbEntity
100
AcDbLine
  8
Motor Gear
 62
256
370
-1
  6
ByLayer
 10
50.4768979592933533
 20
117.4529425515816001
 30
0.0
 11
49.5231020407066467
 21
117.4529425515816001
 31
0.0
  0
LINE
  5
160
100
AcDbEntity
100
AcDbLine
  8
Motor Gear
 62
256
370
-1
  6
ByLayer
 10
49.5231020407066467
 20
117.4529425515816001
 30
0.0
 11
48.9536311685905048
 21
118.8138924591302583
 31
0.0
  0
LINE
  5
161
100
AcDbEntity
100
AcDbLine
  8
Motor Gear
 62
256
370
-1
  6
ByLayer
 10
48.9536311685905048
 20
118.8138924591302583
 30
0.0
 11
48.7931992576074265
 21
119.7930308638081414
 31
0.0
  0
LINE
  5
162
100
AcDbEntity
100
AcDbLine
  8
Motor Gear
 62
256
370
-1
  6
ByLayer
 10
48.7931992576074265
 20
119.7930308638081414
 30
0.0
 11
48.8227302409165986
 21
120.1603904186236065
 31
0.0
  0
LINE
  5
163
100
AcDbEntity
100
AcDbLine
  8
Motor Gear
 62
256
370
-1
  6
ByLayer
 10
48.8227302409165986
 20
120.1603904186236065
 30
0.0
 11
47.353289795309621
 21
120.3537054464973721
 31
0.0
  0
LINE
  5
164
100
AcDbEntity
100
AcDbLine
  8
Motor Gear
 62
256
370
-1
  6
ByLayer
 10
47.353289795309621
 20
120.3537054464973721
 30
0.0
 11
47.286896474329609
 21
119.9913714946515171
 31
0.0
  0
LINE
  5
165
100
AcDbEntity
100
AcDbLine
  8
Motor Gear
 62
256
370
-1
  6
ByLayer
 10
47.286896474329609
 20
119.9913714946515171
 30
0.0
 11
46.8784860846252798
 21
119.087213423942643
 31
0.0
  0
LINE
  5
166
100
AcDbEntity
100
AcDbLine
  8
Motor Gear
 62
256
370
-1
  6
ByLayer
 10
46.8784860846252798
 20
119.087213423942643
 30
0.0
 11
45.9762129860875177
 21
117.9197870785906588
 31
0.0
  0
LINE
  5
167
100
AcDbEntity
100
AcDbLine
  8
Motor Gear
 62
256
370
-1
  6
ByLayer
 10
45.9762129860875177
 20
117.9197870785906588
 30
0.0
 11
45.0546708708477297
 21
118.1667184330073752
 31
0.0
  0
LINE
  5
168
100
AcDbEntity
100
AcDbLine
  8
Motor Gear
 62
256
370
-1
  6
ByLayer
 10
45.0546708708477297
 20
118.1667184330073752
 30
0.0
 11
44.8569580693180114
 21
119.628828266367762
 31
0.0
  0
LINE
  5
169
100
AcDbEntity
100
AcDbLine
  8
Motor Gear
 62
256
370
-1
  6
ByLayer
 10
44.8569580693180114
 20
119.628828266367762
 30
0.0
 11
44.9553959172070847
 21
120.6161351311588703
 31
0.0
  0
LINE
  5
16A
100
AcDbEntity
100
AcDbLine
  8
Motor Gear
 62
256
370
-1
  6
ByLayer
 10
44.9553959172070847
 20
120.6161351311588703
 30
0.0
 11
45.0789662326343716
 21
120.9631792870828519
 31
0.0
  0
LINE
  5
16B
100
AcDbEntity
100
AcDbLine
  8
Motor Gear
 62
256
370
-1
  6
ByLayer
 10
45.0789662326343716
 20
120.9631792870828519
 30
0.0
 11
43.7098478649725735
 21
121.5303466341520533
 31
0.0
  0
LINE
  5
16C
100
AcDbEntity
100
AcDbLine
  8
Motor Gear
 62
256
370
-1
  6
ByLayer
 10
43.7098478649725735
 20
121.5303466341520533
 30
0.0
 11
43.5517194790363931
 21
121.1975444077304047
 31
0.0
  0
LINE
  5
16D
100
AcDbEntity
100
AcDbLine
  8
Motor Gear
 62
256
370
-1
  6
ByLayer
 10
43.5517194790363931
 20
121.1975444077304047
 30
0.0
 11
42.9233959167397074
 21
120.4297321626558528
 31
0.0
  0
LINE
  5
16E
100
AcDbEntity
100
AcDbLine
  8
Motor Gear
 62
256
370
-1
  6
ByLayer
 10
42.9233959167397074
 20
120.4297321626558528
 30
0.0
 11
41.7496860834456527
 21
119.5358368006691734
 31
0.0
  0
LINE
  5
16F
100
AcDbEntity
100
AcDbLine
  8
Motor Gear
 62
256
370
-1
  6
ByLayer
 10
41.7496860834456527
 20
119.5358368006691734
 30
0.0
 11
40.9234404431814198
 21
120.0127347599625551
 31
0.0
  0
LINE
  5
170
100
AcDbEntity
100
AcDbLine
  8
Motor Gear
 62
256
370
-1
  6
ByLayer
 10
40.9234404431814198
 20
120.0127347599625551
 30
0.0
 11
41.1108897938738664
 21
121.4761009940653622
 31
0.0
  0
LINE
  5
171
100
AcDbEntity
100
AcDbLine
  8
Motor Gear
 62
256
370
-1
  6
ByLayer
 10
41.1108897938738664
 20
121.4761009940653622
 30
0.0
 11
41.4614946177021864
 21
122.4043451501230066
 31
0.0
  0
LINE
  5
172
100
AcDbEntity
100
AcDbLine
  8
Motor Gear
 62
256
370
-1
  6
ByLayer
 10
41.4614946177021864
 20
122.4043451501230066
 30
0.0
 11
41.6707265286965196
 21
122.7076163932354262
 31
0.0
  0
LINE
  5
173
100
AcDbEntity
100
AcDbLine
  8
Motor Gear
 62
256
370
-1
  6
ByLayer
 10
41.6707265286965196
 20
122.7076163932354262
 30
0.0
 11
40.4949231889084444
 21
123.6098894917732167
 31
0.0
  0
LINE
  5
174
100
AcDbEntity
100
AcDbLine
  8
Motor Gear
 62
256
370
-1
  6
ByLayer
 10
40.4949231889084444
 20
123.6098894917732167
 30
0.0
 11
40.2561602946049106
 21
123.3292386568292756
 31
0.0
  0
LINE
  5
175
100
AcDbEntity
100
AcDbLine
  8
Motor Gear
 62
256
370
-1
  6
ByLayer
 10
40.2561602946049106
 20
123.3292386568292756
 30
0.0
 11
39.4504393296700755
 21
122.7503421817424822
 31
0.0
  0
LINE
  5
176
100
AcDbEntity
100
AcDbLine
  8
Motor Gear
 62
256
370
-1
  6
ByLayer
 10
39.4504393296700755
 20
122.7503421817424822
 30
0.0
 11
38.0853001827883872
 21
122.1905054469198575
 31
0.0
  0
LINE
  5
177
100
AcDbEntity
100
AcDbLine
  8
Motor Gear
 62
256
370
-1
  6
ByLayer
 10
38.0853001827883872
 20
122.1905054469198575
 30
0.0
 11
37.4106894219652872
 21
122.8651162077429291
 31
0.0
  0
LINE
  5
178
100
AcDbEntity
100
AcDbLine
  8
Motor Gear
 62
256
370
-1
  6
ByLayer
 10
37.4106894219652872
 20
122.8651162077429291
 30
0.0
 11
37.9705261567879404
 21
124.2302553546246173
 31
0.0
  0
LINE
  5
179
100
AcDbEntity
100
AcDbLine
  8
Motor Gear
 62
256
370
-1
  6
ByLayer
 10
37.9705261567879404
 20
124.2302553546246173
 30
0.0
 11
38.5494226318747053
 21
125.0359763195594809
 31
0.0
  0
LINE
  5
17A
100
AcDbEntity
100
AcDbLine
  8
Motor Gear
 62
256
370
-1
  6
ByLayer
 10
38.5494226318747053
 20
125.0359763195594809
 30
0.0
 11
38.8300734668186749
 21
125.2747392138629863
 31
0.0
  0
LINE
  5
17B
100
AcDbEntity
100
AcDbLine
  8
Motor Gear
 62
256
370
-1
  6
ByLayer
 10
38.8300734668186749
 20
125.2747392138629863
 30
0.0
 11
37.9278003682809128
 21
126.450542553651033
 31
0.0
  0
LINE
  5
17C
100
AcDbEntity
100
AcDbLine
  8
Motor Gear
 62
256
370
-1
  6
ByLayer
 10
37.9278003682809128
 20
126.450542553651033
 30
0.0
 11
37.6245291251684648
 21
126.2413106426567566
 31
0.0
  0
LINE
  5
17D
100
AcDbEntity
100
AcDbLine
  8
Motor Gear
 62
256
370
-1
  6
ByLayer
 10
37.6245291251684648
 20
126.2413106426567566
 30
0.0
 11
36.6962849691108204
 21
125.8907058188284225
 31
0.0
  0
LINE
  5
17E
100
AcDbEntity
100
AcDbLine
  8
Motor Gear
 62
256
370
-1
  6
ByLayer
 10
36.6962849691108204
 20
125.8907058188284225
 30
0.0
 11
35.2329187350080133
 21
125.7032564681359617
 31
0.0
  0
LINE
  5
17F
100
AcDbEntity
100
AcDbLine
  8
Motor Gear
 62
256
370
-1
  6
ByLayer
 10
35.2329187350080133
 20
125.7032564681359617
 30
0.0
 11
34.75602077571466
 21
126.5295021084001945
 31
0.0
  0
LINE
  5
180
100
AcDbEntity
100
AcDbLine
  8
Motor Gear
 62
256
370
-1
  6
ByLayer
 10
34.75602077571466
 20
126.5295021084001945
 30
0.0
 11
35.6499161377013252
 21
127.7032119416942493
 31
0.0
  0
LINE
  5
181
100
AcDbEntity
100
AcDbLine
  8
Motor Gear
 62
256
370
-1
  6
ByLayer
 10
35.6499161377013252
 20
127.7032119416942493
 30
0.0
 11
36.4177283827758913
 21
128.3315355039909207
 31
0.0
  0
LINE
  5
182
100
AcDbEntity
100
AcDbLine
  8
Motor Gear
 62
256
370
-1
  6
ByLayer
 10
36.4177283827758913
 20
128.3315355039909207
 30
0.0
 11
36.7505306091975399
 21
128.4896638899271011
 31
0.0
  0
LINE
  5
183
100
AcDbEntity
100
AcDbLine
  8
Motor Gear
 62
256
370
-1
  6
ByLayer
 10
36.7505306091975399
 20
128.4896638899271011
 30
0.0
 11
36.1833632621282959
 21
129.8587822575889277
 31
0.0
  0
LINE
  5
184
100
AcDbEntity
100
AcDbLine
  8
Motor Gear
 62
256
370
-1
  6
ByLayer
 10
36.1833632621282959
 20
129.8587822575889277
 30
0.0
 11
35.8363191062043143
 21
129.7352119421616408
 31
0.0
  0
LINE
  5
185
100
AcDbEntity
100
AcDbLine
  8
Motor Gear
 62
256
370
-1
  6
ByLayer
 10
35.8363191062043143
 20
129.7352119421616408
 30
0.0
 11
34.8490122414132202
 21
129.6367740942725391
 31
0.0
  0
LINE
  5
186
100
AcDbEntity
100
AcDbLine
  8
Motor Gear
 62
256
370
-1
  6
ByLayer
 10
34.8490122414132202
 20
129.6367740942725391
 30
0.0
 11
33.3869024080528334
 21
129.8344868958022289
 31
0.0
  0
LINE
  5
187
100
AcDbEntity
100
AcDbLine
  8
Motor Gear
 62
256
370
-1
  6
ByLayer
 10
33.3869024080528334
 20
129.8344868958022289
 30
0.0
 11
33.1399710536361169
 21
130.7560290110420738
 31
0.0
  0
LINE
  5
188
100
AcDbEntity
100
AcDbLine
  8
Motor Gear
 62
256
370
-1
  6
ByLayer
 10
33.1399710536361169
 20
130.7560290110420738
 30
0.0
 11
34.3073973989881154
 21
131.6583021095798358
 31
0.0
  0
LINE
  5
189
100
AcDbEntity
100
AcDbLine
  8
Motor Gear
 62
256
370
-1
  6
ByLayer
 10
34.3073973989881154
 20
131.6583021095798358
 30
0.0
 11
35.2115554696970037
 21
132.0667124992841082
 31
0.0
  0
LINE
  5
18A
100
AcDbEntity
100
AcDbLine
  8
Motor Gear
 62
256
370
-1
  6
ByLayer
 10
35.2115554696970037
 20
132.0667124992841082
 30
0.0
 11
35.5738894215428445
 21
132.1331058202641771
 31
0.0
  0
LINE
  5
18B
100
AcDbEntity
100
AcDbLine
  8
Motor Gear
 62
256
370
-1
  6
ByLayer
 10
35.5738894215428445
 20
132.1331058202641771
 30
0.0
 11
35.3805743936690646
 21
133.6025462658711831
 31
0.0
  0
LINE
  5
18C
100
AcDbEntity
100
AcDbLine
  8
Motor Gear
 62
256
370
-1
  6
ByLayer
 10
35.3805743936690646
 20
133.6025462658711831
 30
0.0
 11
35.0132148388535995
 21
133.5730152825619257
 31
0.0
  0
LINE
  5
18D
100
AcDbEntity
100
AcDbLine
  8
Motor Gear
 62
256
370
-1
  6
ByLayer
 10
35.0132148388535995
 20
133.5730152825619257
 30
0.0
 11
34.0340764341756881
 21
133.7334471935450324
 31
0.0
  0
LINE
  5
18E
100
AcDbEntity
100
AcDbLine
  8
Motor Gear
 62
256
370
-1
  6
ByLayer
 10
34.0340764341756881
 20
133.7334471935450324
 30
0.0
 11
32.6731265266270725
 21
134.3029180656611743
 31
0.0
  0
LINE
  5
18F
100
AcDbEntity
100
AcDbLine
  8
Motor Gear
 62
256
370
-1
  6
ByLayer
 10
32.6731265266270725
 20
134.3029180656611743
 30
0.0
 11
32.6731265266270725
 21
135.2567139842479378
 31
0.0
  0
LINE
  5
190
100
AcDbEntity
100
AcDbLine
  8
Motor Gear
 62
256
370
-1
  6
ByLayer
 10
32.6731265266270725
 20
135.2567139842479378
 30
0.0
 11
34.0340764341756881
 21
135.8261848563640228
 31
0.0
  0
LINE
  5
191
100
AcDbEntity
100
AcDbLine
  8
Motor Gear
 62
256
370
-1
  6
ByLayer
 10
34.0340764341756881
 20
135.8261848563640228
 30
0.0
 11
35.0132148388535995
 21
135.9866167673471296
 31
0.0
  0
LINE
  5
192
100
AcDbEntity
100
AcDbLine
  8
Motor Gear
 62
256
370
-1
  6
ByLayer
 10
35.0132148388535995
 20
135.9866167673471296
 30
0.0
 11
35.3805743936690646
 21
135.957085784037929
 31
0.0
  0
LINE
  5
193
100
AcDbEntity
100
AcDbLine
  8
Motor Gear
 62
256
370
-1
  6
ByLayer
 10
35.3805743936690646
 20
135.957085784037929
 30
0.0
 11
35.5738894215428445
 21
137.426526229644935
 31
0.0
  0
LINE
  5
194
100
AcDbEntity
100
AcDbLine
  8
Motor Gear
 62
256
370
-1
  6
ByLayer
 10
35.5738894215428445
 20
137.426526229644935
 30
0.0
 11
35.2115554696970037
 21
137.4929195506249471
 31
0.0
  0
LINE
  5
195
100
AcDbEntity
100
AcDbLine
  8
Motor Gear
 62
256
370
-1
  6
ByLayer
 10
35.2115554696970037
 20
137.4929195506249471
 30
0.0
 11
34.3073973989881154
 21
137.9013299403292194
 31
0.0
  0
LINE
  5
196
100
AcDbEntity
100
AcDbLine
  8
Motor Gear
 62
256
370
-1
  6
ByLayer
 10
34.3073973989881154
 20
137.9013299403292194
 30
0.0
 11
33.1399710536361169
 21
138.8036030388669815
 31
0.0
  0
LINE
  5
197
100
AcDbEntity
100
AcDbLine
  8
Motor Gear
 62
256
370
-1
  6
ByLayer
 10
33.1399710536361169
 20
138.8036030388669815
 30
0.0
 11
33.3869024080528334
 21
139.7251451541068263
 31
0.0
  0
LINE
  5
198
100
AcDbEntity
100
AcDbLine
  8
Motor Gear
 62
256
370
-1
  6
ByLayer
 10
33.3869024080528334
 20
139.7251451541068263
 30
0.0
 11
34.8490122414132202
 21
139.9228579556365162
 31
0.0
  0
LINE
  5
199
100
AcDbEntity
100
AcDbLine
  8
Motor Gear
 62
256
370
-1
  6
ByLayer
 10
34.8490122414132202
 20
139.9228579556365162
 30
0.0
 11
35.8363191062043143
 21
139.8244201077474145
 31
0.0
  0
LINE
  5
19A
100
AcDbEntity
100
AcDbLine
  8
Motor Gear
 62
256
370
-1
  6
ByLayer
 10
35.8363191062043143
 20
139.8244201077474145
 30
0.0
 11
36.1833632621282959
 21
139.700849792320156
 31
0.0
  0
LINE
  5
19B
100
AcDbEntity
100
AcDbLine
  8
Motor Gear
 62
256
370
-1
  6
ByLayer
 10
36.1833632621282959
 20
139.700849792320156
 30
0.0
 11
36.7505306091975399
 21
141.0699681599819542
 31
0.0
  0
LINE
  5
19C
100
AcDbEntity
100
AcDbLine
  8
Motor Gear
 62
256
370
-1
  6
ByLayer
 10
36.7505306091975399
 20
141.0699681599819542
 30
0.0
 11
36.4177283827758913
 21
141.228096545918163
 31
0.0
  0
LINE
  5
19D
100
AcDbEntity
100
AcDbLine
  8
Motor Gear
 62
256
370
-1
  6
ByLayer
 10
36.4177283827758913
 20
141.228096545918163
 30
0.0
 11
35.6499161377013252
 21
141.8564201082148202
 31
0.0
  0
LINE
  5
19E
100
AcDbEntity
100
AcDbLine
  8
Motor Gear
 62
256
370
-1
  6
ByLayer
 10
35.6499161377013252
 20
141.8564201082148202
 30
0.0
 11
34.75602077571466
 21
143.0301299415089034
 31
0.0
  0
LINE
  5
19F
100
AcDbEntity
100
AcDbLine
  8
Motor Gear
 62
256
370
-1
  6
ByLayer
 10
34.75602077571466
 20
143.0301299415089034
 30
0.0
 11
35.2329187350080133
 21
143.8563755817731362
 31
0.0
  0
LINE
  5
1A0
100
AcDbEntity
100
AcDbLine
  8
Motor Gear
 62
256
370
-1
  6
ByLayer
 10
35.2329187350080133
 20
143.8563755817731362
 30
0.0
 11
36.6962849691108204
 21
143.6689262310806612
 31
0.0
  0
LINE
  5
1A1
100
AcDbEntity
100
AcDbLine
  8
Motor Gear
 62
256
370
-1
  6
ByLayer
 10
36.6962849691108204
 20
143.6689262310806612
 30
0.0
 11
37.6245291251684648
 21
143.3183214072523128
 31
0.0
  0
LINE
  5
1A2
100
AcDbEntity
100
AcDbLine
  8
Motor Gear
 62
256
370
-1
  6
ByLayer
 10
37.6245291251684648
 20
143.3183214072523128
 30
0.0
 11
37.9278003682809128
 21
143.1090894962580364
 31
0.0
  0
LINE
  5
1A3
100
AcDbEntity
100
AcDbLine
  8
Motor Gear
 62
256
370
-1
  6
ByLayer
 10
37.9278003682809128
 20
143.1090894962580364
 30
0.0
 11
38.8300734668186749
 21
144.2848928360460832
 31
0.0
  0
LINE
  5
1A4
100
AcDbEntity
100
AcDbLine
  8
Motor Gear
 62
256
370
-1
  6
ByLayer
 10
38.8300734668186749
 20
144.2848928360460832
 30
0.0
 11
38.5494226318747053
 21
144.523655730349617
 31
0.0
  0
LINE
  5
1A5
100
AcDbEntity
100
AcDbLine
  8
Motor Gear
 62
256
370
-1
  6
ByLayer
 10
38.5494226318747053
 20
144.523655730349617
 30
0.0
 11
37.9705261567879688
 21
145.3293766952844521
 31
0.0
  0
LINE
  5
1A6
100
AcDbEntity
100
AcDbLine
  8
Motor Gear
 62
256
370
-1
  6
ByLayer
 10
37.9705261567879688
 20
145.3293766952844521
 30
0.0
 11
37.4106894219652872
 21
146.6945158421661404
 31
0.0
  0
LINE
  5
1A7
100
AcDbEntity
100
AcDbLine
  8
Motor Gear
 62
256
370
-1
  6
ByLayer
 10
37.4106894219652872
 20
146.6945158421661404
 30
0.0
 11
38.0853001827883872
 21
147.3691266029891835
 31
0.0
  0
LINE
  5
1A8
100
AcDbEntity
100
AcDbLine
  8
Motor Gear
 62
256
370
-1
  6
ByLayer
 10
38.0853001827883872
 20
147.3691266029891835
 30
0.0
 11
39.4504393296700755
 21
146.8092898681666156
 31
0.0
  0
LINE
  5
1A9
100
AcDbEntity
100
AcDbLine
  8
Motor Gear
 62
256
370
-1
  6
ByLayer
 10
39.4504393296700755
 20
146.8092898681666156
 30
0.0
 11
40.2561602946049391
 21
146.2303933930797939
 31
0.0
  0
LINE
  5
1AA
100
AcDbEntity
100
AcDbLine
  8
Motor Gear
 62
256
370
-1
  6
ByLayer
 10
40.2561602946049391
 20
146.2303933930797939
 30
0.0
 11
40.4949231889084444
 21
145.9497425581358243
 31
0.0
  0
LINE
  5
1AB
100
AcDbEntity
100
AcDbLine
  8
Motor Gear
 62
256
370
-1
  6
ByLayer
 10
40.4949231889084444
 20
145.9497425581358243
 30
0.0
 11
41.6707265286965196
 21
146.8520156566736432
 31
0.0
  0
LINE
  5
1AC
100
AcDbEntity
100
AcDbLine
  8
Motor Gear
 62
256
370
-1
  6
ByLayer
 10
41.6707265286965196
 20
146.8520156566736432
 30
0.0
 11
41.4614946177021864
 21
147.1552868997860628
 31
0.0
  0
LINE
  5
1AD
100
AcDbEntity
100
AcDbLine
  8
Motor Gear
 62
256
370
-1
  6
ByLayer
 10
41.4614946177021864
 20
147.1552868997860628
 30
0.0
 11
41.1108897938738664
 21
148.0835310558437072
 31
0.0
  0
LINE
  5
1AE
100
AcDbEntity
100
AcDbLine
  8
Motor Gear
 62
256
370
-1
  6
ByLayer
 10
41.1108897938738664
 20
148.0835310558437072
 30
0.0
 11
40.9234404431814198
 21
149.5468972899465143
 31
0.0
  0
LINE
  5
1AF
100
AcDbEntity
100
AcDbLine
  8
Motor Gear
 62
256
370
-1
  6
ByLayer
 10
40.9234404431814198
 20
149.5468972899465143
 30
0.0
 11
41.7496860834456527
 21
150.0237952492398676
 31
0.0
  0
LINE
  5
1B0
100
AcDbEntity
100
AcDbLine
  8
Motor Gear
 62
256
370
-1
  6
ByLayer
 10
41.7496860834456527
 20
150.0237952492398676
 30
0.0
 11
42.9233959167397359
 21
149.1298998872532025
 31
0.0
  0
LINE
  5
1B1
100
AcDbEntity
100
AcDbLine
  8
Motor Gear
 62
256
370
-1
  6
ByLayer
 10
42.9233959167397359
 20
149.1298998872532025
 30
0.0
 11
43.5517194790363931
 21
148.3620876421786647
 31
0.0
  0
LINE
  5
1B2
100
AcDbEntity
100
AcDbLine
  8
Motor Gear
 62
256
370
-1
  6
ByLayer
 10
43.5517194790363931
 20
148.3620876421786647
 30
0.0
 11
43.7098478649725735
 21
148.0292854157569877
 31
0.0
  0
LINE
  5
1B3
100
AcDbEntity
100
AcDbLine
  8
Motor Gear
 62
256
370
-1
  6
ByLayer
 10
43.7098478649725735
 20
148.0292854157569877
 30
0.0
 11
45.0789662326344001
 21
148.5964527628262317
 31
0.0
  0
LINE
  5
1B4
100
AcDbEntity
100
AcDbLine
  8
Motor Gear
 62
256
370
-1
  6
ByLayer
 10
45.0789662326344001
 20
148.5964527628262317
 30
0.0
 11
44.9553959172070847
 21
148.9434969187502134
 31
0.0
  0
LINE
  5
1B5
100
AcDbEntity
100
AcDbLine
  8
Motor Gear
 62
256
370
-1
  6
ByLayer
 10
44.9553959172070847
 20
148.9434969187502134
 30
0.0
 11
44.8569580693180114
 21
149.9308037835413074
 31
0.0
  0
LINE
  5
1B6
100
AcDbEntity
100
AcDbLine
  8
Motor Gear
 62
256
370
-1
  6
ByLayer
 10
44.8569580693180114
 20
149.9308037835413074
 30
0.0
 11
45.0546708708477297
 21
151.3929136169016942
 31
0.0
  0
LINE
  5
1B7
100
AcDbEntity
100
AcDbLine
  8
Motor Gear
 62
256
370
-1
  6
ByLayer
 10
45.0546708708477297
 20
151.3929136169016942
 30
0.0
 11
45.9762129860875177
 21
151.6398449713184391
 31
0.0
  0
LINE
  5
1B8
100
AcDbEntity
100
AcDbLine
  8
Motor Gear
 62
256
370
-1
  6
ByLayer
 10
45.9762129860875177
 20
151.6398449713184391
 30
0.0
 11
46.8784860846252798
 21
150.4724186259664407
 31
0.0
  0
LINE
  5
1B9
100
AcDbEntity
100
AcDbLine
  8
Motor Gear
 62
256
370
-1
  6
ByLayer
 10
46.8784860846252798
 20
150.4724186259664407
 30
0.0
 11
47.2868964743295805
 21
149.5682605552575524
 31
0.0
  0
LINE
  5
1BA
100
AcDbEntity
100
AcDbLine
  8
Motor Gear
 62
256
370
-1
  6
ByLayer
 10
47.2868964743295805
 20
149.5682605552575524
 30
0.0
 11
47.353289795309621
 21
149.2059266034116831
 31
0.0
  0
LINE
  5
1BB
100
AcDbEntity
100
AcDbLine
  8
Motor Gear
 62
256
370
-1
  6
ByLayer
 10
47.353289795309621
 20
149.2059266034116831
 30
0.0
 11
48.8227302409165986
 21
149.399241631285463
 31
0.0
  0
LINE
  5
1BC
100
AcDbEntity
100
AcDbLine
  8
Motor Gear
 62
256
370
-1
  6
ByLayer
 10
48.8227302409165986
 20
149.399241631285463
 30
0.0
 11
48.7931992576074265
 21
149.7666011861008997
 31
0.0
  0
LINE
  5
1BD
100
AcDbEntity
100
AcDbLine
  8
Motor Gear
 62
256
370
-1
  6
ByLayer
 10
48.7931992576074265
 20
149.7666011861008997
 30
0.0
 11
48.9536311685905048
 21
150.7457395907787827
 31
0.0
  0
LINE
  5
1BE
100
AcDbEntity
100
AcDbLine
  8
Motor Gear
 62
256
370
-1
  6
ByLayer
 10
48.9536311685905048
 20
150.7457395907787827
 30
0.0
 11
49.5231020407066467
 21
152.1066894983274551
 31
0.0
  0
LINE
  5
1BF
100
AcDbEntity
100
AcDbLine
  8
Motor Gear
 62
256
370
-1
  6
ByLayer
 10
49.5231020407066467
 20
152.1066894983274551
 30
0.0
 11
50.4768979592933533
 21
152.1066894983274551
 31
0.0
  0
LINE
  5
1C0
100
AcDbEntity
100
AcDbLine
  8
Motor Gear
 62
256
370
-1
  6
ByLayer
 10
50.4768979592933533
 20
152.1066894983274551
 30
0.0
 11
51.0463688314094952
 21
150.7457395907787827
 31
0.0
  0
LINE
  5
1C1
100
AcDbEntity
100
AcDbLine
  8
Motor Gear
 62
256
370
-1
  6
ByLayer
 10
51.0463688314094952
 20
150.7457395907787827
 30
0.0
 11
51.2068007423925735
 21
149.7666011861008997
 31
0.0
  0
LINE
  5
1C2
100
AcDbEntity
100
AcDbLine
  8
Motor Gear
 62
256
370
-1
  6
ByLayer
 10
51.2068007423925735
 20
149.7666011861008997
 30
0.0
 11
51.1772697590833729
 21
149.399241631285463
 31
0.0
  0
LINE
  5
1C3
100
AcDbEntity
100
AcDbLine
  8
Motor Gear
 62
256
370
-1
  6
ByLayer
 10
51.1772697590833729
 20
149.399241631285463
 30
0.0
 11
52.646710204690379
 21
149.2059266034116831
 31
0.0
  0
LINE
  5
1C4
100
AcDbEntity
100
AcDbLine
  8
Motor Gear
 62
256
370
-1
  6
ByLayer
 10
52.646710204690379
 20
149.2059266034116831
 30
0.0
 11
52.713103525670391
 21
149.5682605552575524
 31
0.0
  0
LINE
  5
1C5
100
AcDbEntity
100
AcDbLine
  8
Motor Gear
 62
256
370
-1
  6
ByLayer
 10
52.713103525670391
 20
149.5682605552575524
 30
0.0
 11
53.1215139153747202
 21
150.4724186259664407
 31
0.0
  0
LINE
  5
1C6
100
AcDbEntity
100
AcDbLine
  8
Motor Gear
 62
256
370
-1
  6
ByLayer
 10
53.1215139153747202
 20
150.4724186259664407
 30
0.0
 11
54.0237870139124823
 21
151.6398449713184391
 31
0.0
  0
LINE
  5
1C7
100
AcDbEntity
100
AcDbLine
  8
Motor Gear
 62
256
370
-1
  6
ByLayer
 10
54.0237870139124823
 20
151.6398449713184391
 30
0.0
 11
54.9453291291522419
 21
151.3929136169016942
 31
0.0
  0
LINE
  5
1C8
100
AcDbEntity
100
AcDbLine
  8
Motor Gear
 62
256
370
-1
  6
ByLayer
 10
54.9453291291522419
 20
151.3929136169016942
 30
0.0
 11
55.1430419306819601
 21
149.9308037835413074
 31
0.0
  0
LINE
  5
1C9
100
AcDbEntity
100
AcDbLine
  8
Motor Gear
 62
256
370
-1
  6
ByLayer
 10
55.1430419306819601
 20
149.9308037835413074
 30
0.0
 11
55.0446040827929153
 21
148.9434969187502134
 31
0.0
  0
LINE
  5
1CA
100
AcDbEntity
100
AcDbLine
  8
Motor Gear
 62
256
370
-1
  6
ByLayer
 10
55.0446040827929153
 20
148.9434969187502134
 30
0.0
 11
54.9210337673655999
 21
148.5964527628262317
 31
0.0
  0
LINE
  5
1CB
100
AcDbEntity
100
AcDbLine
  8
Motor Gear
 62
256
370
-1
  6
ByLayer
 10
54.9210337673655999
 20
148.5964527628262317
 30
0.0
 11
56.2901521350274265
 21
148.0292854157569877
 31
0.0
  0
LINE
  5
1CC
100
AcDbEntity
100
AcDbLine
  8
Motor Gear
 62
256
370
-1
  6
ByLayer
 10
56.2901521350274265
 20
148.0292854157569877
 30
0.0
 11
56.4482805209636069
 21
148.3620876421786647
 31
0.0
  0
LINE
  5
1CD
100
AcDbEntity
100
AcDbLine
  8
Motor Gear
 62
256
370
-1
  6
ByLayer
 10
56.4482805209636069
 20
148.3620876421786647
 30
0.0
 11
57.0766040832602926
 21
149.1298998872532025
 31
0.0
  0
LINE
  5
1CE
100
AcDbEntity
100
AcDbLine
  8
Motor Gear
 62
256
370
-1
  6
ByLayer
 10
57.0766040832602926
 20
149.1298998872532025
 30
0.0
 11
58.2503139165543473
 21
150.0237952492398676
 31
0.0
  0
LINE
  5
1CF
100
AcDbEntity
100
AcDbLine
  8
Motor Gear
 62
256
370
-1
  6
ByLayer
 10
58.2503139165543473
 20
150.0237952492398676
 30
0.0
 11
59.0765595568185802
 21
149.5468972899465143
 31
0.0
  0
LINE
  5
1D0
100
AcDbEntity
100
AcDbLine
  8
Motor Gear
 62
256
370
-1
  6
ByLayer
 10
59.0765595568185802
 20
149.5468972899465143
 30
0.0
 11
58.8891102061261051
 21
148.0835310558437072
 31
0.0
  0
LINE
  5
1D1
100
AcDbEntity
100
AcDbLine
  8
Motor Gear
 62
256
370
-1
  6
ByLayer
 10
58.8891102061261051
 20
148.0835310558437072
 30
0.0
 11
58.5385053822978136
 21
147.1552868997860628
 31
0.0
  0
LINE
  5
1D2
100
AcDbEntity
100
AcDbLine
  8
Motor Gear
 62
256
370
-1
  6
ByLayer
 10
58.5385053822978136
 20
147.1552868997860628
 30
0.0
 11
58.3292734713034804
 21
146.8520156566736432
 31
0.0
  0
LINE
  5
1D3
100
AcDbEntity
100
AcDbLine
  8
Motor Gear
 62
256
370
-1
  6
ByLayer
 10
58.3292734713034804
 20
146.8520156566736432
 30
0.0
 11
59.5050768110915271
 21
145.9497425581358243
 31
0.0
  0
LINE
  5
1D4
100
AcDbEntity
100
AcDbLine
  8
Motor Gear
 62
256
370
-1
  6
ByLayer
 10
59.5050768110915271
 20
145.9497425581358243
 30
0.0
 11
59.7438397053950609
 21
146.2303933930797939
 31
0.0
  0
LINE
  5
1D5
100
AcDbEntity
100
AcDbLine
  8
Motor Gear
 62
256
370
-1
  6
ByLayer
 10
59.7438397053950609
 20
146.2303933930797939
 30
0.0
 11
60.5495606703299245
 21
146.8092898681666156
 31
0.0
  0
LINE
  5
1D6
100
AcDbEntity
100
AcDbLine
  8
Motor Gear
 62
256
370
-1
  6
ByLayer
 10
60.5495606703299245
 20
146.8092898681666156
 30
0.0
 11
61.9146998172116128
 21
147.3691266029891835
 31
0.0
  0
LINE
  5
1D7
100
AcDbEntity
100
AcDbLine
  8
Motor Gear
 62
256
370
-1
  6
ByLayer
 10
61.9146998172116128
 20
147.3691266029891835
 30
0.0
 11
62.5893105780346843
 21
146.6945158421661404
 31
0.0
  0
LINE
  5
1D8
100
AcDbEntity
100
AcDbLine
  8
Motor Gear
 62
256
370
-1
  6
ByLayer
 10
62.5893105780346843
 20
146.6945158421661404
 30
0.0
 11
62.0294738432120596
 21
145.3293766952844521
 31
0.0
  0
LINE
  5
1D9
100
AcDbEntity
100
AcDbLine
  8
Motor Gear
 62
256
370
-1
  6
ByLayer
 10
62.0294738432120596
 20
145.3293766952844521
 30
0.0
 11
61.4505773681252947
 21
144.523655730349617
 31
0.0
  0
LINE
  5
1DA
100
AcDbEntity
100
AcDbLine
  8
Motor Gear
 62
256
370
-1
  6
ByLayer
 10
61.4505773681252947
 20
144.523655730349617
 30
0.0
 11
61.1699265331813251
 21
144.2848928360460832
 31
0.0
  0
LINE
  5
1DB
100
AcDbEntity
100
AcDbLine
  8
Motor Gear
 62
256
370
-1
  6
ByLayer
 10
61.1699265331813251
 20
144.2848928360460832
 30
0.0
 11
62.0721996317190872
 21
143.1090894962580364
 31
0.0
  0
LINE
  5
1DC
100
AcDbEntity
100
AcDbLine
  8
Motor Gear
 62
256
370
-1
  6
ByLayer
 10
62.0721996317190872
 20
143.1090894962580364
 30
0.0
 11
62.3754708748315068
 21
143.3183214072523128
 31
0.0
  0
LINE
  5
1DD
100
AcDbEntity
100
AcDbLine
  8
Motor Gear
 62
256
370
-1
  6
ByLayer
 10
62.3754708748315068
 20
143.3183214072523128
 30
0.0
 11
63.3037150308891796
 21
143.6689262310806612
 31
0.0
  0
LINE
  5
1DE
100
AcDbEntity
100
AcDbLine
  8
Motor Gear
 62
256
370
-1
  6
ByLayer
 10
63.3037150308891796
 20
143.6689262310806612
 30
0.0
 11
64.7670812649919583
 21
143.8563755817731362
 31
0.0
  0
LINE
  5
1DF
100
AcDbEntity
100
AcDbLine
  8
Motor Gear
 62
256
370
-1
  6
ByLayer
 10
64.7670812649919583
 20
143.8563755817731362
 30
0.0
 11
65.2439792242853116
 21
143.0301299415089034
 31
0.0
  0
LINE
  5
1E0
100
AcDbEntity
100
AcDbLine
  8
Motor Gear
 62
256
370
-1
  6
ByLayer
 10
65.2439792242853116
 20
143.0301299415089034
 30
0.0
 11
64.3500838622986464
 21
141.8564201082148202
 31
0.0
  0
LINE
  5
1E1
100
AcDbEntity
100
AcDbLine
  8
Motor Gear
 62
256
370
-1
  6
ByLayer
 10
64.3500838622986464
 20
141.8564201082148202
 30
0.0
 11
63.5822716172241087
 21
141.228096545918163
 31
0.0
  0
LINE
  5
1E2
100
AcDbEntity
100
AcDbLine
  8
Motor Gear
 62
256
370
-1
  6
ByLayer
 10
63.5822716172241087
 20
141.228096545918163
 30
0.0
 11
63.2494693908024601
 21
141.0699681599819542
 31
0.0
  0
LINE
  5
1E3
100
AcDbEntity
100
AcDbLine
  8
Motor Gear
 62
256
370
-1
  6
ByLayer
 10
63.2494693908024601
 20
141.0699681599819542
 30
0.0
 11
63.8166367378717041
 21
139.700849792320156
 31
0.0
  0
LINE
  5
1E4
100
AcDbEntity
100
AcDbLine
  8
Motor Gear
 62
256
370
-1
  6
ByLayer
 10
63.8166367378717041
 20
139.700849792320156
 30
0.0
 11
64.1636808937956573
 21
139.8244201077474145
 31
0.0
  0
LINE
  5
1E5
100
AcDbEntity
100
AcDbLine
  8
Motor Gear
 62
256
370
-1
  6
ByLayer
 10
64.1636808937956573
 20
139.8244201077474145
 30
0.0
 11
65.1509877585867514
 21
139.9228579556365162
 31
0.0
  0
LINE
  5
1E6
100
AcDbEntity
100
AcDbLine
  8
Motor Gear
 62
256
370
-1
  6
ByLayer
 10
65.1509877585867514
 20
139.9228579556365162
 30
0.0
 11
66.6130975919471666
 21
139.7251451541068263
 31
0.0
  0
LINE
  5
1E7
100
AcDbEntity
100
AcDbLine
  8
Motor Gear
 62
256
370
-1
  6
ByLayer
 10
66.6130975919471666
 20
139.7251451541068263
 30
0.0
 11
66.8600289463638831
 21
138.8036030388669815
 31
0.0
  0
LINE
  5
1E8
100
AcDbEntity
100
AcDbLine
  8
Motor Gear
 62
256
370
-1
  6
ByLayer
 10
66.8600289463638831
 20
138.8036030388669815
 30
0.0
 11
65.6926026010118846
 21
137.9013299403292194
 31
0.0
  0
LINE
  5
1E9
100
AcDbEntity
100
AcDbLine
  8
Motor Gear
 62
256
370
-1
  6
ByLayer
 10
65.6926026010118846
 20
137.9013299403292194
 30
0.0
 11
64.7884445303029963
 21
137.4929195506249471
 31
0.0
  0
LINE
  5
1EA
100
AcDbEntity
100
AcDbLine
  8
Motor Gear
 62
256
370
-1
  6
ByLayer
 10
64.7884445303029963
 20
137.4929195506249471
 30
0.0
 11
64.4261105784571555
 21
137.426526229644935
 31
0.0
  0
LINE
  5
1EB
100
AcDbEntity
100
AcDbLine
  8
Motor Gear
 62
256
370
-1
  6
ByLayer
 10
64.4261105784571555
 20
137.426526229644935
 30
0.0
 11
64.6194256063309354
 21
135.957085784037929
 31
0.0
  0
LINE
  5
1EC
100
AcDbEntity
100
AcDbLine
  8
Motor Gear
 62
256
370
-1
  6
ByLayer
 10
52.5405754879497522
 20
136.9248160249545094
 30
0.0
 11
47.459394522859057
 21
136.9248160249545094
 31
0.0
  0
ARC
  5
1ED
100
AcDbEntity
  8
Motor Gear
 62
256
370
-1
  6
ByLayer
100
AcDbCircle
 10
49.9999850054043975
 20
134.7798160249545276
 30
0.0
 40
3.3250000000000002
100
AcDbArc
 50
319.8258680010101784
 51
40.1741319989898216
  0
ARC
  5
1EE
100
AcDbEntity
  8
Motor Gear
 62
256
370
-1
  6
ByLayer
100
AcDbCircle
 10
49.9999850054043975
 20
134.7798160249545276
 30
0.0
 40
3.3250000000000002
100
AcDbArc
 50
139.8258680010101784
 51
220.1741319989898216
  0
LINE
  5
1EF
100
AcDbEntity
100
AcDbLine
  8
Motor Gear
 62
256
370
-1
  6
ByLayer
 10
52.5405754879497522
 20
132.6348160249545174
 30
0.0
 11
47.4593945228590428
 21
132.6348160249545174
 31
0.0
  0
MTEXT
  5
1F0
100
AcDbEntity
100
AcDbMText
  8
Motor Gear Text
 62
256
370
-1
  6
ByLayer
 10
50.0
 20
130.1066894983274551
 30
0.0
 40
3.0
 41
100.0
 71
5
 72
2
  1
Motor\~Gear
  7
standard
 50
0.0
 73
0
 44
1.0
  0
MTEXT
  5
1F1
100
AcDbEntity
100
AcDbMText
  8
Rotor Plate Text
 62
256
370
-1
  6
ByLayer
 10
150.0
 20
116.0
 30
0.0
 40
3.0
 41
100.0
 71
5
 72
2
  1
Rotor\~Plate
  7
standard
 50
0.0
 73
0
 44
1.0
  0
CIRCLE
  5
1F2
100
AcDbEntity
100
AcDbCircle
  8
Rotor Plate Text
 62
256
370
-1
  6
ByLayer
 10
149.9999850054043975
 20
153.7798160249545276
 30
0.0
 40
8.0
  0
CIRCLE
  5
1F3
100
AcDbEntity
100
AcDbCircle
  8
Rotor Plate
 62
256
370
-1
  6
ByLayer
 10
149.9999850054043975
 20
134.7798160249545276
 30
0.0
 40
27.0
  0
CIRCLE
  5
1F4
100
AcDbEntity
100
AcDbCircle
  8
Rotor Plate
 62
256
370
-1
  6
ByLayer
 10
149.9999850054043975
 20
153.7798160249545276
 30
0.0
 40
3.9300000000000002
  0
CIRCLE
  5
1F5
100
AcDbEntity
100
AcDbCircle
  8
Rotor Plate
 62
256
370
-1
  6
ByLayer
 10
133.5455023335000533
 20
125.2798160249545276
 30
0.0
 40
3.9300000000000002
  0
CIRCLE
  5
1F6
100
AcDbEntity
100
AcDbCircle
  8
Rotor Plate
 62
256
370
-1
  6
ByLayer
 10
166.4544676773087417
 20
125.2798160249545276
 30
0.0
 40
3.9300000000000002
  0
CIRCLE
  5
1F7
100
AcDbEntity
100
AcDbCircle
  8
Rotor Plate Text
 62
256
370
-1
  6
ByLayer
 10
133.5455023335000533
 20
125.2798160249545276
 30
0.0
 40
8.0
  0
CIRCLE
  5
1F8
100
AcDbEntity
100
AcDbCircle
  8
Rotor Plate Text
 62
256
370
-1
  6
ByLayer
 10
166.4544676773087417
 20
125.2798160249545276
 30
0.0
 40
8.0
  0
CIRCLE
  5
1F9
100
AcDbEntity
100
AcDbCircle
  8
Rotor Plate
 62
256
370
-1
  6
ByLayer
 10
149.9999850054043975
 20
134.7798160249545276
 30
0.0
 40
3.9300000000000002
  0
LINE
  5
1FA
100
AcDbEntity
100
AcDbLine
  8
Rotor Gear
 62
256
370
-1
  6
ByLayer
 10
280.6358124498556208
 20
51.3800205816266882
 30
0.0
 11
281.9831489993306377
 21
51.0470090787671893
 31
0.0
  0
LINE
  5
1FB
100
AcDbEntity
100
AcDbLine
  8
Rotor Gear
 62
256
370
-1
  6
ByLayer
 10
281.9831489993306377
 20
51.0470090787671893
 30
0.0
 11
283.3296477009390628
 21
50.5152376500734661
 31
0.0
  0
LINE
  5
1FC
100
AcDbEntity
100
AcDbLine
  8
Rotor Gear
 62
256
370
-1
  6
ByLayer
 10
283.3296477009390628
 20
50.5152376500734661
 30
0.0
 11
283.3296477009390628
 21
49.4847857017844532
 31
0.0
  0
LINE
  5
1FD
100
AcDbEntity
100
AcDbLine
  8
Rotor Gear
 62
256
370
-1
  6
ByLayer
 10
283.3296477009390628
 20
49.4847857017844532
 30
0.0
 11
281.9831489993306377
 21
48.9530142730907656
 31
0.0
  0
LINE
  5
1FE
100
AcDbEntity
100
AcDbLine
  8
Rotor Gear
 62
256
370
-1
  6
ByLayer
 10
281.9831489993306377
 20
48.9530142730907656
 30
0.0
 11
280.6358124498556208
 21
48.6200027702312596
 31
0.0
  0
LINE
  5
1FF
100
AcDbEntity
100
AcDbLine
  8
Rotor Gear
 62
256
370
-1
  6
ByLayer
 10
280.6358124498556208
 20
48.6200027702312596
 30
0.0
 11
280.5539207986308838
 21
47.3694283729120613
 31
0.0
  0
LINE
  5
200
100
AcDbEntity
100
AcDbLine
  8
Rotor Gear
 62
256
370
-1
  6
ByLayer
 10
280.5539207986308838
 20
47.3694283729120613
 30
0.0
 11
281.846174602267638
 21
46.8634179831852791
 31
0.0
  0
LINE
  5
201
100
AcDbEntity
100
AcDbLine
  8
Rotor Gear
 62
256
370
-1
  6
ByLayer
 10
281.846174602267638
 20
46.8634179831852791
 30
0.0
 11
283.1118280348406984
 21
46.1605326397954414
 31
0.0
  0
LINE
  5
202
100
AcDbEntity
100
AcDbLine
  8
Rotor Gear
 62
256
370
-1
  6
ByLayer
 10
283.1118280348406984
 20
46.1605326397954414
 30
0.0
 11
282.9771579049396451
 21
45.1386684466105166
 31
0.0
  0
LINE
  5
203
100
AcDbEntity
100
AcDbLine
  8
Rotor Gear
 62
256
370
-1
  6
ByLayer
 10
282.9771579049396451
 20
45.1386684466105166
 30
0.0
 11
281.5728536374551823
 21
44.7872257749155906
 31
0.0
  0
LINE
  5
204
100
AcDbEntity
100
AcDbLine
  8
Rotor Gear
 62
256
370
-1
  6
ByLayer
 10
281.5728536374551823
 20
44.7872257749155906
 30
0.0
 11
280.1936818375090752
 21
44.6328673333215846
 31
0.0
  0
LINE
  5
205
100
AcDbEntity
100
AcDbLine
  8
Rotor Gear
 62
256
370
-1
  6
ByLayer
 10
280.1936818375090752
 20
44.6328673333215846
 30
0.0
 11
279.9492640266921626
 21
43.4038654777513955
 31
0.0
  0
LINE
  5
206
100
AcDbEntity
100
AcDbLine
  8
Rotor Gear
 62
256
370
-1
  6
ByLayer
 10
279.9492640266921626
 20
43.4038654777513955
 30
0.0
 11
281.1642332291979756
 21
42.7334439562613966
 31
0.0
  0
LINE
  5
207
100
AcDbEntity
100
AcDbLine
  8
Rotor Gear
 62
256
370
-1
  6
ByLayer
 10
281.1642332291979756
 20
42.7334439562613966
 30
0.0
 11
282.3272610587790155
 21
41.871383102630837
 31
0.0
  0
LINE
  5
208
100
AcDbEntity
100
AcDbLine
  8
Rotor Gear
 62
256
370
-1
  6
ByLayer
 10
282.3272610587790155
 20
41.871383102630837
 30
0.0
 11
282.060642134784473
 21
40.8759085198415661
 31
0.0
  0
LINE
  5
209
100
AcDbEntity
100
AcDbLine
  8
Rotor Gear
 62
256
370
-1
  6
ByLayer
 10
282.060642134784473
 20
40.8759085198415661
 30
0.0
 11
280.622408368219908
 21
40.7108688166496435
 31
0.0
  0
LINE
  5
20A
100
AcDbEntity
100
AcDbLine
  8
Rotor Gear
 62
256
370
-1
  6
ByLayer
 10
280.622408368219908
 20
40.7108688166496435
 30
0.0
 11
279.2348595738376957
 21
40.7378869984740177
 31
0.0
  0
LINE
  5
20B
100
AcDbEntity
100
AcDbLine
  8
Rotor Gear
 62
256
370
-1
  6
ByLayer
 10
279.2348595738376957
 20
40.7378869984740177
 30
0.0
 11
278.831894082093811
 21
39.5511923785350277
 31
0.0
  0
LINE
  5
20C
100
AcDbEntity
100
AcDbLine
  8
Rotor Gear
 62
256
370
-1
  6
ByLayer
 10
278.831894082093811
 20
39.5511923785350277
 30
0.0
 11
279.9492640266921626
 21
38.7278780926313644
 31
0.0
  0
LINE
  5
20D
100
AcDbEntity
100
AcDbLine
  8
Rotor Gear
 62
256
370
-1
  6
ByLayer
 10
279.9492640266921626
 20
38.7278780926313644
 30
0.0
 11
280.98976866515045
 21
37.7213029532533
 31
0.0
  0
LINE
  5
20E
100
AcDbEntity
100
AcDbLine
  8
Rotor Gear
 62
256
370
-1
  6
ByLayer
 10
280.98976866515045
 20
37.7213029532533
 30
0.0
 11
280.5953901863954911
 21
36.7691827303997769
 31
0.0
  0
LINE
  5
20F
100
AcDbEntity
100
AcDbLine
  8
Rotor Gear
 62
256
370
-1
  6
ByLayer
 10
280.5953901863954911
 20
36.7691827303997769
 30
0.0
 11
279.147941577528286
 21
36.7932680736335485
 31
0.0
  0
LINE
  5
210
100
AcDbEntity
100
AcDbLine
  8
Rotor Gear
 62
256
370
-1
  6
ByLayer
 10
279.147941577528286
 20
36.7932680736335485
 30
0.0
 11
277.7756818369529128
 21
37.0010343074475898
 31
0.0
  0
LINE
  5
211
100
AcDbEntity
100
AcDbLine
  8
Rotor Gear
 62
256
370
-1
  6
ByLayer
 10
277.7756818369529128
 20
37.0010343074475898
 30
0.0
 11
277.2215000186436669
 21
35.8773816170221806
 31
0.0
  0
LINE
  5
212
100
AcDbEntity
100
AcDbLine
  8
Rotor Gear
 62
256
370
-1
  6
ByLayer
 10
277.2215000186436669
 20
35.8773816170221806
 30
0.0
 11
278.2217916700796536
 21
34.9152079618843345
 31
0.0
  0
LINE
  5
213
100
AcDbEntity
100
AcDbLine
  8
Rotor Gear
 62
256
370
-1
  6
ByLayer
 10
278.2217916700796536
 20
34.9152079618843345
 30
0.0
 11
279.1219705200084036
 21
33.7815018391746094
 31
0.0
  0
LINE
  5
214
100
AcDbEntity
100
AcDbLine
  8
Rotor Gear
 62
256
370
-1
  6
ByLayer
 10
279.1219705200084036
 20
33.7815018391746094
 30
0.0
 11
278.6067445458639327
 21
32.8888628779303502
 31
0.0
  0
LINE
  5
215
100
AcDbEntity
100
AcDbLine
  8
Rotor Gear
 62
256
370
-1
  6
ByLayer
 10
278.6067445458639327
 20
32.8888628779303502
 30
0.0
 11
277.1747942672414524
 21
33.1016547147139875
 31
0.0
  0
LINE
  5
216
100
AcDbEntity
100
AcDbLine
  8
Rotor Gear
 62
256
370
-1
  6
ByLayer
 10
277.1747942672414524
 20
33.1016547147139875
 30
0.0
 11
275.8412810943930253
 21
33.4868176090511724
 31
0.0
  0
LINE
  5
217
100
AcDbEntity
100
AcDbLine
  8
Rotor Gear
 62
256
370
-1
  6
ByLayer
 10
275.8412810943930253
 20
33.4868176090511724
 30
0.0
 11
275.145307810373879
 21
32.4450565698505144
 31
0.0
  0
LINE
  5
218
100
AcDbEntity
100
AcDbLine
  8
Rotor Gear
 62
256
370
-1
  6
ByLayer
 10
275.145307810373879
 20
32.4450565698505144
 30
0.0
 11
276.0113478847846409
 21
31.3605690000278301
 31
0.0
  0
LINE
  5
219
100
AcDbEntity
100
AcDbLine
  8
Rotor Gear
 62
256
370
-1
  6
ByLayer
 10
276.0113478847846409
 20
31.3605690000278301
 30
0.0
 11
276.7559118923770143
 21
30.1190009106884382
 31
0.0
  0
LINE
  5
21A
100
AcDbEntity
100
AcDbLine
  8
Rotor Gear
 62
256
370
-1
  6
ByLayer
 10
276.7559118923770143
 20
30.1190009106884382
 30
0.0
 11
276.1284254358319004
 21
29.3013415412981608
 31
0.0
  0
LINE
  5
21B
100
AcDbEntity
100
AcDbLine
  8
Rotor Gear
 62
256
370
-1
  6
ByLayer
 10
276.1284254358319004
 20
29.3013415412981608
 30
0.0
 11
274.7364781256787865
 21
29.6992799458423917
 31
0.0
  0
LINE
  5
21C
100
AcDbEntity
100
AcDbLine
  8
Rotor Gear
 62
256
370
-1
  6
ByLayer
 10
274.7364781256787865
 20
29.6992799458423917
 30
0.0
 11
273.4649597580394129
 21
30.2551374598848817
 31
0.0
  0
LINE
  5
21D
100
AcDbEntity
100
AcDbLine
  8
Rotor Gear
 62
256
370
-1
  6
ByLayer
 10
273.4649597580394129
 20
30.2551374598848817
 30
0.0
 11
272.6387133756600747
 21
29.313070669315703
 31
0.0
  0
LINE
  5
21E
100
AcDbEntity
100
AcDbLine
  8
Rotor Gear
 62
256
370
-1
  6
ByLayer
 10
272.6387133756600747
 20
29.313070669315703
 30
0.0
 11
273.3558406485523165
 21
28.1249096300813903
 31
0.0
  0
LINE
  5
21F
100
AcDbEntity
100
AcDbLine
  8
Rotor Gear
 62
256
370
-1
  6
ByLayer
 10
273.3558406485523165
 20
28.1249096300813903
 30
0.0
 11
273.9320135614863148
 21
26.7968420973083887
 31
0.0
  0
LINE
  5
220
100
AcDbEntity
100
AcDbLine
  8
Rotor Gear
 62
256
370
-1
  6
ByLayer
 10
273.9320135614863148
 20
26.7968420973083887
 30
0.0
 11
273.2031579026916006
 21
26.0679864385136817
 31
0.0
  0
LINE
  5
221
100
AcDbEntity
100
AcDbLine
  8
Rotor Gear
 62
256
370
-1
  6
ByLayer
 10
273.2031579026916006
 20
26.0679864385136817
 30
0.0
 11
271.8750903699186097
 21
26.6441593514476764
 31
0.0
  0
LINE
  5
222
100
AcDbEntity
100
AcDbLine
  8
Rotor Gear
 62
256
370
-1
  6
ByLayer
 10
271.8750903699186097
 20
26.6441593514476764
 30
0.0
 11
270.6869293306842792
 21
27.3612866243399182
 31
0.0
  0
LINE
  5
223
100
AcDbEntity
100
AcDbLine
  8
Rotor Gear
 62
256
370
-1
  6
ByLayer
 10
270.6869293306842792
 20
27.3612866243399182
 30
0.0
 11
269.7448625401150935
 21
26.5350402419606048
 31
0.0
  0
LINE
  5
224
100
AcDbEntity
100
AcDbLine
  8
Rotor Gear
 62
256
370
-1
  6
ByLayer
 10
269.7448625401150935
 20
26.5350402419606048
 30
0.0
 11
270.3007200541576367
 21
25.2635218743212242
 31
0.0
  0
LINE
  5
225
100
AcDbEntity
100
AcDbLine
  8
Rotor Gear
 62
256
370
-1
  6
ByLayer
 10
270.3007200541576367
 20
25.2635218743212242
 30
0.0
 11
270.6986584587018569
 21
23.8715745641680499
 31
0.0
  0
LINE
  5
226
100
AcDbEntity
100
AcDbLine
  8
Rotor Gear
 62
256
370
-1
  6
ByLayer
 10
270.6986584587018569
 20
23.8715745641680499
 30
0.0
 11
269.8809990893115582
 21
23.2440881076229999
 31
0.0
  0
LINE
  5
227
100
AcDbEntity
100
AcDbLine
  8
Rotor Gear
 62
256
370
-1
  6
ByLayer
 10
269.8809990893115582
 20
23.2440881076229999
 30
0.0
 11
268.6394309999722054
 21
23.988652115215416
 31
0.0
  0
LINE
  5
228
100
AcDbEntity
100
AcDbLine
  8
Rotor Gear
 62
256
370
-1
  6
ByLayer
 10
268.6394309999722054
 20
23.988652115215416
 30
0.0
 11
267.5549434301494784
 21
24.8546921896261033
 31
0.0
  0
LINE
  5
229
100
AcDbEntity
100
AcDbLine
  8
Rotor Gear
 62
256
370
-1
  6
ByLayer
 10
267.5549434301494784
 20
24.8546921896261033
 30
0.0
 11
266.5131823909488276
 21
24.1587189056070173
 31
0.0
  0
LINE
  5
22A
100
AcDbEntity
100
AcDbLine
  8
Rotor Gear
 62
256
370
-1
  6
ByLayer
 10
266.5131823909488276
 20
24.1587189056070173
 30
0.0
 11
266.898345285286041
 21
22.8252057327585831
 31
0.0
  0
LINE
  5
22B
100
AcDbEntity
100
AcDbLine
  8
Rotor Gear
 62
256
370
-1
  6
ByLayer
 10
266.898345285286041
 20
22.8252057327585831
 30
0.0
 11
267.1111371220696356
 21
21.3932554541361029
 31
0.0
  0
LINE
  5
22C
100
AcDbEntity
100
AcDbLine
  8
Rotor Gear
 62
256
370
-1
  6
ByLayer
 10
267.1111371220696356
 20
21.3932554541361029
 30
0.0
 11
266.2184981608253338
 21
20.8780294799916
 31
0.0
  0
LINE
  5
22D
100
AcDbEntity
100
AcDbLine
  8
Rotor Gear
 62
256
370
-1
  6
ByLayer
 10
266.2184981608253338
 20
20.8780294799916
 30
0.0
 11
265.0847920381156655
 21
21.7782083299203393
 31
0.0
  0
LINE
  5
22E
100
AcDbEntity
100
AcDbLine
  8
Rotor Gear
 62
256
370
-1
  6
ByLayer
 10
265.0847920381156655
 20
21.7782083299203393
 30
0.0
 11
264.122618382977862
 21
22.7784999813563473
 31
0.0
  0
LINE
  5
22F
100
AcDbEntity
100
AcDbLine
  8
Rotor Gear
 62
256
370
-1
  6
ByLayer
 10
264.122618382977862
 20
22.7784999813563473
 30
0.0
 11
262.9989656925524741
 21
22.2243181630470694
 31
0.0
  0
LINE
  5
230
100
AcDbEntity
100
AcDbLine
  8
Rotor Gear
 62
256
370
-1
  6
ByLayer
 10
262.9989656925524741
 20
22.2243181630470694
 30
0.0
 11
263.2067319263664444
 21
20.8520584224717282
 31
0.0
  0
LINE
  5
231
100
AcDbEntity
100
AcDbLine
  8
Rotor Gear
 62
256
370
-1
  6
ByLayer
 10
263.2067319263664444
 20
20.8520584224717282
 30
0.0
 11
263.230817269600152
 21
19.4046098136044769
 31
0.0
  0
LINE
  5
232
100
AcDbEntity
100
AcDbLine
  8
Rotor Gear
 62
256
370
-1
  6
ByLayer
 10
263.230817269600152
 20
19.4046098136044769
 30
0.0
 11
262.278697046746629
 21
19.0102313348495819
 31
0.0
  0
LINE
  5
233
100
AcDbEntity
100
AcDbLine
  8
Rotor Gear
 62
256
370
-1
  6
ByLayer
 10
262.278697046746629
 20
19.0102313348495819
 30
0.0
 11
261.2721219073686143
 21
20.0507359733078161
 31
0.0
  0
LINE
  5
234
100
AcDbEntity
100
AcDbLine
  8
Rotor Gear
 62
256
370
-1
  6
ByLayer
 10
261.2721219073686143
 20
20.0507359733078161
 30
0.0
 11
260.4488076214649936
 21
21.1681059179061748
 31
0.0
  0
LINE
  5
235
100
AcDbEntity
100
AcDbLine
  8
Rotor Gear
 62
256
370
-1
  6
ByLayer
 10
260.4488076214649936
 20
21.1681059179061748
 30
0.0
 11
259.262113001525961
 21
20.7651404261623149
 31
0.0
  0
LINE
  5
236
100
AcDbEntity
100
AcDbLine
  8
Rotor Gear
 62
256
370
-1
  6
ByLayer
 10
259.262113001525961
 20
20.7651404261623149
 30
0.0
 11
259.2891311833503778
 21
19.3775916317800885
 31
0.0
  0
LINE
  5
237
100
AcDbEntity
100
AcDbLine
  8
Rotor Gear
 62
256
370
-1
  6
ByLayer
 10
259.2891311833503778
 20
19.3775916317800885
 30
0.0
 11
259.1240914801584267
 21
17.939357865215527
 31
0.0
  0
LINE
  5
238
100
AcDbEntity
100
AcDbLine
  8
Rotor Gear
 62
256
370
-1
  6
ByLayer
 10
259.1240914801584267
 20
17.939357865215527
 30
0.0
 11
258.1286168973691701
 21
17.6727389412209916
 31
0.0
  0
LINE
  5
239
100
AcDbEntity
100
AcDbLine
  8
Rotor Gear
 62
256
370
-1
  6
ByLayer
 10
258.1286168973691701
 20
17.6727389412209916
 30
0.0
 11
257.2665560437386603
 21
18.8357667708020422
 31
0.0
  0
LINE
  5
23A
100
AcDbEntity
100
AcDbLine
  8
Rotor Gear
 62
256
370
-1
  6
ByLayer
 10
257.2665560437386603
 20
18.8357667708020422
 30
0.0
 11
256.5961345222485761
 21
20.0507359733078196
 31
0.0
  0
LINE
  5
23B
100
AcDbEntity
100
AcDbLine
  8
Rotor Gear
 62
256
370
-1
  6
ByLayer
 10
256.5961345222485761
 20
20.0507359733078196
 30
0.0
 11
255.3671326666783727
 21
19.8063181624909603
 31
0.0
  0
LINE
  5
23C
100
AcDbEntity
100
AcDbLine
  8
Rotor Gear
 62
256
370
-1
  6
ByLayer
 10
255.3671326666783727
 20
19.8063181624909603
 30
0.0
 11
255.212774225084388
 21
18.4271463625447893
 31
0.0
  0
LINE
  5
23D
100
AcDbEntity
100
AcDbLine
  8
Rotor Gear
 62
256
370
-1
  6
ByLayer
 10
255.212774225084388
 20
18.4271463625447893
 30
0.0
 11
254.8613315533894763
 21
17.0228420950603905
 31
0.0
  0
LINE
  5
23E
100
AcDbEntity
100
AcDbLine
  8
Rotor Gear
 62
256
370
-1
  6
ByLayer
 10
254.8613315533894763
 20
17.0228420950603905
 30
0.0
 11
253.8394673602045373
 21
16.8881719651592874
 31
0.0
  0
LINE
  5
23F
100
AcDbEntity
100
AcDbLine
  8
Rotor Gear
 62
256
370
-1
  6
ByLayer
 10
253.8394673602045373
 20
16.8881719651592874
 30
0.0
 11
253.1365820168146854
 21
18.1538253977323905
 31
0.0
  0
LINE
  5
240
100
AcDbEntity
100
AcDbLine
  8
Rotor Gear
 62
256
370
-1
  6
ByLayer
 10
253.1365820168146854
 20
18.1538253977323905
 30
0.0
 11
252.6305716270879316
 21
19.4460792013691233
 31
0.0
  0
LINE
  5
241
100
AcDbEntity
100
AcDbLine
  8
Rotor Gear
 62
256
370
-1
  6
ByLayer
 10
252.6305716270879316
 20
19.4460792013691233
 30
0.0
 11
251.3799972297687191
 21
19.3641875501443614
 31
0.0
  0
LINE
  5
242
100
AcDbEntity
100
AcDbLine
  8
Rotor Gear
 62
256
370
-1
  6
ByLayer
 10
251.3799972297687191
 20
19.3641875501443614
 30
0.0
 11
251.0469857269092131
 21
18.0168510006693481
 31
0.0
  0
LINE
  5
243
100
AcDbEntity
100
AcDbLine
  8
Rotor Gear
 62
256
370
-1
  6
ByLayer
 10
251.0469857269092131
 20
18.0168510006693481
 30
0.0
 11
250.5152142982154544
 21
16.6703522990609372
 31
0.0
  0
LINE
  5
244
100
AcDbEntity
100
AcDbLine
  8
Rotor Gear
 62
256
370
-1
  6
ByLayer
 10
250.5152142982154544
 20
16.6703522990609372
 30
0.0
 11
249.484762349926541
 21
16.6703522990609372
 31
0.0
  0
LINE
  5
245
100
AcDbEntity
100
AcDbLine
  8
Rotor Gear
 62
256
370
-1
  6
ByLayer
 10
249.484762349926541
 20
16.6703522990609372
 30
0.0
 11
248.9529909212327823
 21
18.0168510006693481
 31
0.0
  0
LINE
  5
246
100
AcDbEntity
100
AcDbLine
  8
Rotor Gear
 62
256
370
-1
  6
ByLayer
 10
248.9529909212327823
 20
18.0168510006693481
 30
0.0
 11
248.6199794183732763
 21
19.364187550144365
 31
0.0
  0
LINE
  5
247
100
AcDbEntity
100
AcDbLine
  8
Rotor Gear
 62
256
370
-1
  6
ByLayer
 10
248.6199794183732763
 20
19.364187550144365
 30
0.0
 11
247.3694050210540638
 21
19.4460792013691233
 31
0.0
  0
LINE
  5
248
100
AcDbEntity
100
AcDbLine
  8
Rotor Gear
 62
256
370
-1
  6
ByLayer
 10
247.3694050210540638
 20
19.4460792013691233
 30
0.0
 11
246.8633946313273384
 21
18.1538253977323905
 31
0.0
  0
LINE
  5
249
100
AcDbEntity
100
AcDbLine
  8
Rotor Gear
 62
256
370
-1
  6
ByLayer
 10
246.8633946313273384
 20
18.1538253977323905
 30
0.0
 11
246.1605092879374865
 21
16.8881719651592874
 31
0.0
  0
LINE
  5
24A
100
AcDbEntity
100
AcDbLine
  8
Rotor Gear
 62
256
370
-1
  6
ByLayer
 10
246.1605092879374865
 20
16.8881719651592874
 30
0.0
 11
245.1386450947525191
 21
17.0228420950603905
 31
0.0
  0
LINE
  5
24B
100
AcDbEntity
100
AcDbLine
  8
Rotor Gear
 62
256
370
-1
  6
ByLayer
 10
245.1386450947525191
 20
17.0228420950603905
 30
0.0
 11
244.7872024230576073
 21
18.4271463625447929
 31
0.0
  0
LINE
  5
24C
100
AcDbEntity
100
AcDbLine
  8
Rotor Gear
 62
256
370
-1
  6
ByLayer
 10
244.7872024230576073
 20
18.4271463625447929
 30
0.0
 11
244.6328439814636511
 21
19.8063181624909603
 31
0.0
  0
LINE
  5
24D
100
AcDbEntity
100
AcDbLine
  8
Rotor Gear
 62
256
370
-1
  6
ByLayer
 10
244.6328439814636511
 20
19.8063181624909603
 30
0.0
 11
243.4038421258933909
 21
20.0507359733078268
 31
0.0
  0
LINE
  5
24E
100
AcDbEntity
100
AcDbLine
  8
Rotor Gear
 62
256
370
-1
  6
ByLayer
 10
243.4038421258933909
 20
20.0507359733078268
 30
0.0
 11
242.733420604403392
 21
18.8357667708020422
 31
0.0
  0
LINE
  5
24F
100
AcDbEntity
100
AcDbLine
  8
Rotor Gear
 62
256
370
-1
  6
ByLayer
 10
242.733420604403392
 20
18.8357667708020422
 30
0.0
 11
241.8713597507728537
 21
17.6727389412209916
 31
0.0
  0
LINE
  5
250
100
AcDbEntity
100
AcDbLine
  8
Rotor Gear
 62
256
370
-1
  6
ByLayer
 10
241.8713597507728537
 20
17.6727389412209916
 30
0.0
 11
240.8758851679835971
 21
17.939357865215527
 31
0.0
  0
LINE
  5
251
100
AcDbEntity
100
AcDbLine
  8
Rotor Gear
 62
256
370
-1
  6
ByLayer
 10
240.8758851679835971
 20
17.939357865215527
 30
0.0
 11
240.7108454647916176
 21
19.377591631780092
 31
0.0
  0
LINE
  5
252
100
AcDbEntity
100
AcDbLine
  8
Rotor Gear
 62
256
370
-1
  6
ByLayer
 10
240.7108454647916176
 20
19.377591631780092
 30
0.0
 11
240.7378636466160629
 21
20.7651404261623149
 31
0.0
  0
LINE
  5
253
100
AcDbEntity
100
AcDbLine
  8
Rotor Gear
 62
256
370
-1
  6
ByLayer
 10
240.7378636466160629
 20
20.7651404261623149
 30
0.0
 11
239.5511690266770302
 21
21.1681059179061855
 31
0.0
  0
LINE
  5
254
100
AcDbEntity
100
AcDbLine
  8
Rotor Gear
 62
256
370
-1
  6
ByLayer
 10
239.5511690266770302
 20
21.1681059179061855
 30
0.0
 11
238.7278547407734095
 21
20.0507359733078196
 31
0.0
  0
LINE
  5
255
100
AcDbEntity
100
AcDbLine
  8
Rotor Gear
 62
256
370
-1
  6
ByLayer
 10
238.7278547407734095
 20
20.0507359733078196
 30
0.0
 11
237.721279601395338
 21
19.0102313348495855
 31
0.0
  0
LINE
  5
256
100
AcDbEntity
100
AcDbLine
  8
Rotor Gear
 62
256
370
-1
  6
ByLayer
 10
237.721279601395338
 20
19.0102313348495855
 30
0.0
 11
236.7691593785418434
 21
19.4046098136044805
 31
0.0
  0
LINE
  5
257
100
AcDbEntity
100
AcDbLine
  8
Rotor Gear
 62
256
370
-1
  6
ByLayer
 10
236.7691593785418434
 20
19.4046098136044805
 30
0.0
 11
236.7932447217755794
 21
20.8520584224717318
 31
0.0
  0
LINE
  5
258
100
AcDbEntity
100
AcDbLine
  8
Rotor Gear
 62
256
370
-1
  6
ByLayer
 10
236.7932447217755794
 20
20.8520584224717318
 30
0.0
 11
237.0010109555895781
 21
22.2243181630470801
 31
0.0
  0
LINE
  5
259
100
AcDbEntity
100
AcDbLine
  8
Rotor Gear
 62
256
370
-1
  6
ByLayer
 10
237.0010109555895781
 20
22.2243181630470801
 30
0.0
 11
235.8773582651641618
 21
22.7784999813563509
 31
0.0
  0
LINE
  5
25A
100
AcDbEntity
100
AcDbLine
  8
Rotor Gear
 62
256
370
-1
  6
ByLayer
 10
235.8773582651641618
 20
22.7784999813563509
 30
0.0
 11
234.9151846100263583
 21
21.7782083299203428
 31
0.0
  0
LINE
  5
25B
100
AcDbEntity
100
AcDbLine
  8
Rotor Gear
 62
256
370
-1
  6
ByLayer
 10
234.9151846100263583
 20
21.7782083299203428
 30
0.0
 11
233.7814784873166616
 21
20.8780294799916
 31
0.0
  0
LINE
  5
25C
100
AcDbEntity
100
AcDbLine
  8
Rotor Gear
 62
256
370
-1
  6
ByLayer
 10
233.7814784873166616
 20
20.8780294799916
 30
0.0
 11
232.8888395260723598
 21
21.3932554541361029
 31
0.0
  0
LINE
  5
25D
100
AcDbEntity
100
AcDbLine
  8
Rotor Gear
 62
256
370
-1
  6
ByLayer
 10
232.8888395260723598
 20
21.3932554541361029
 30
0.0
 11
233.1016313628560113
 21
22.8252057327585938
 31
0.0
  0
LINE
  5
25E
100
AcDbEntity
100
AcDbLine
  8
Rotor Gear
 62
256
370
-1
  6
ByLayer
 10
233.1016313628560113
 20
22.8252057327585938
 30
0.0
 11
233.4867942571931962
 21
24.1587189056070244
 31
0.0
  0
LINE
  5
25F
100
AcDbEntity
100
AcDbLine
  8
Rotor Gear
 62
256
370
-1
  6
ByLayer
 10
233.4867942571931962
 20
24.1587189056070244
 30
0.0
 11
232.4450332179925454
 21
24.8546921896261104
 31
0.0
  0
LINE
  5
260
100
AcDbEntity
100
AcDbLine
  8
Rotor Gear
 62
256
370
-1
  6
ByLayer
 10
232.4450332179925454
 20
24.8546921896261104
 30
0.0
 11
231.3605456481698468
 21
23.9886521152154231
 31
0.0
  0
LINE
  5
261
100
AcDbEntity
100
AcDbLine
  8
Rotor Gear
 62
256
370
-1
  6
ByLayer
 10
231.3605456481698468
 20
23.9886521152154231
 30
0.0
 11
230.1189775588304656
 21
23.2440881076230106
 31
0.0
  0
LINE
  5
262
100
AcDbEntity
100
AcDbLine
  8
Rotor Gear
 62
256
370
-1
  6
ByLayer
 10
230.1189775588304656
 20
23.2440881076230106
 30
0.0
 11
229.3013181894401669
 21
23.871574564168057
 31
0.0
  0
LINE
  5
263
100
AcDbEntity
100
AcDbLine
  8
Rotor Gear
 62
256
370
-1
  6
ByLayer
 10
229.3013181894401669
 20
23.871574564168057
 30
0.0
 11
229.6992565939843871
 21
25.2635218743212349
 31
0.0
  0
LINE
  5
264
100
AcDbEntity
100
AcDbLine
  8
Rotor Gear
 62
256
370
-1
  6
ByLayer
 10
229.6992565939843871
 20
25.2635218743212349
 30
0.0
 11
230.2551141080269019
 21
26.5350402419606084
 31
0.0
  0
LINE
  5
265
100
AcDbEntity
100
AcDbLine
  8
Rotor Gear
 62
256
370
-1
  6
ByLayer
 10
230.2551141080269019
 20
26.5350402419606084
 30
0.0
 11
229.3130473174577162
 21
27.3612866243399289
 31
0.0
  0
LINE
  5
266
100
AcDbEntity
100
AcDbLine
  8
Rotor Gear
 62
256
370
-1
  6
ByLayer
 10
229.3130473174577162
 20
27.3612866243399289
 30
0.0
 11
228.1248862782234141
 21
26.6441593514476871
 31
0.0
  0
LINE
  5
267
100
AcDbEntity
100
AcDbLine
  8
Rotor Gear
 62
256
370
-1
  6
ByLayer
 10
228.1248862782234141
 20
26.6441593514476871
 30
0.0
 11
226.7968187454504232
 21
26.0679864385136817
 31
0.0
  0
LINE
  5
268
100
AcDbEntity
100
AcDbLine
  8
Rotor Gear
 62
256
370
-1
  6
ByLayer
 10
226.7968187454504232
 20
26.0679864385136817
 30
0.0
 11
226.067963086655709
 21
26.7968420973083923
 31
0.0
  0
LINE
  5
269
100
AcDbEntity
100
AcDbLine
  8
Rotor Gear
 62
256
370
-1
  6
ByLayer
 10
226.067963086655709
 20
26.7968420973083923
 30
0.0
 11
226.6441359995897074
 21
28.124909630081401
 31
0.0
  0
LINE
  5
26A
100
AcDbEntity
100
AcDbLine
  8
Rotor Gear
 62
256
370
-1
  6
ByLayer
 10
226.6441359995897074
 20
28.124909630081401
 30
0.0
 11
227.3612632724819207
 21
29.3130706693157066
 31
0.0
  0
LINE
  5
26B
100
AcDbEntity
100
AcDbLine
  8
Rotor Gear
 62
256
370
-1
  6
ByLayer
 10
227.3612632724819207
 20
29.3130706693157066
 30
0.0
 11
226.5350168901026393
 21
30.2551374598848781
 31
0.0
  0
LINE
  5
26C
100
AcDbEntity
100
AcDbLine
  8
Rotor Gear
 62
256
370
-1
  6
ByLayer
 10
226.5350168901026393
 20
30.2551374598848781
 30
0.0
 11
225.2634985224632374
 21
29.6992799458423988
 31
0.0
  0
LINE
  5
26D
100
AcDbEntity
100
AcDbLine
  8
Rotor Gear
 62
256
370
-1
  6
ByLayer
 10
225.2634985224632374
 20
29.6992799458423988
 30
0.0
 11
223.8715512123100666
 21
29.3013415412981821
 31
0.0
  0
LINE
  5
26E
100
AcDbEntity
100
AcDbLine
  8
Rotor Gear
 62
256
370
-1
  6
ByLayer
 10
223.8715512123100666
 20
29.3013415412981821
 30
0.0
 11
223.2440647557650095
 21
30.1190009106884453
 31
0.0
  0
LINE
  5
26F
100
AcDbEntity
100
AcDbLine
  8
Rotor Gear
 62
256
370
-1
  6
ByLayer
 10
223.2440647557650095
 20
30.1190009106884453
 30
0.0
 11
223.9886287633574113
 21
31.3605690000278372
 31
0.0
  0
LINE
  5
270
100
AcDbEntity
100
AcDbLine
  8
Rotor Gear
 62
256
370
-1
  6
ByLayer
 10
223.9886287633574113
 20
31.3605690000278372
 30
0.0
 11
224.8546688377681164
 21
32.4450565698505216
 31
0.0
  0
LINE
  5
271
100
AcDbEntity
100
AcDbLine
  8
Rotor Gear
 62
256
370
-1
  6
ByLayer
 10
224.8546688377681164
 20
32.4450565698505216
 30
0.0
 11
224.1586955537490269
 21
33.4868176090511867
 31
0.0
  0
LINE
  5
272
100
AcDbEntity
100
AcDbLine
  8
Rotor Gear
 62
256
370
-1
  6
ByLayer
 10
224.1586955537490269
 20
33.4868176090511867
 30
0.0
 11
222.8251823809005714
 21
33.1016547147139875
 31
0.0
  0
LINE
  5
273
100
AcDbEntity
100
AcDbLine
  8
Rotor Gear
 62
256
370
-1
  6
ByLayer
 10
222.8251823809005714
 20
33.1016547147139875
 30
0.0
 11
221.3932321022780911
 21
32.888862877930336
 31
0.0
  0
LINE
  5
274
100
AcDbEntity
100
AcDbLine
  8
Rotor Gear
 62
256
370
-1
  6
ByLayer
 10
221.3932321022780911
 20
32.888862877930336
 30
0.0
 11
220.8780061281336202
 21
33.7815018391746094
 31
0.0
  0
LINE
  5
275
100
AcDbEntity
100
AcDbLine
  8
Rotor Gear
 62
256
370
-1
  6
ByLayer
 10
220.8780061281336202
 20
33.7815018391746094
 30
0.0
 11
221.7781849780623702
 21
34.9152079618843416
 31
0.0
  0
LINE
  5
276
100
AcDbEntity
100
AcDbLine
  8
Rotor Gear
 62
256
370
-1
  6
ByLayer
 10
221.7781849780623702
 20
34.9152079618843416
 30
0.0
 11
222.7784766294983569
 21
35.8773816170221806
 31
0.0
  0
LINE
  5
277
100
AcDbEntity
100
AcDbLine
  8
Rotor Gear
 62
256
370
-1
  6
ByLayer
 10
222.7784766294983569
 20
35.8773816170221806
 30
0.0
 11
222.2242948111890826
 21
37.0010343074475898
 31
0.0
  0
LINE
  5
278
100
AcDbEntity
100
AcDbLine
  8
Rotor Gear
 62
256
370
-1
  6
ByLayer
 10
222.2242948111890826
 20
37.0010343074475898
 30
0.0
 11
220.8520350706137378
 21
36.7932680736335556
 31
0.0
  0
LINE
  5
279
100
AcDbEntity
100
AcDbLine
  8
Rotor Gear
 62
256
370
-1
  6
ByLayer
 10
220.8520350706137378
 20
36.7932680736335556
 30
0.0
 11
219.4045864617465043
 21
36.7691827303997982
 31
0.0
  0
LINE
  5
27A
100
AcDbEntity
100
AcDbLine
  8
Rotor Gear
 62
256
370
-1
  6
ByLayer
 10
219.4045864617465043
 20
36.7691827303997982
 30
0.0
 11
219.0102079829915738
 21
37.7213029532532929
 31
0.0
  0
LINE
  5
27B
100
AcDbEntity
100
AcDbLine
  8
Rotor Gear
 62
256
370
-1
  6
ByLayer
 10
219.0102079829915738
 20
37.7213029532532929
 30
0.0
 11
220.0507126214498328
 21
38.7278780926313786
 31
0.0
  0
LINE
  5
27C
100
AcDbEntity
100
AcDbLine
  8
Rotor Gear
 62
256
370
-1
  6
ByLayer
 10
220.0507126214498328
 20
38.7278780926313786
 30
0.0
 11
221.1680825660481844
 21
39.5511923785350419
 31
0.0
  0
LINE
  5
27D
100
AcDbEntity
100
AcDbLine
  8
Rotor Gear
 62
256
370
-1
  6
ByLayer
 10
221.1680825660481844
 20
39.5511923785350419
 30
0.0
 11
220.7651170743043281
 21
40.737886998474039
 31
0.0
  0
LINE
  5
27E
100
AcDbEntity
100
AcDbLine
  8
Rotor Gear
 62
256
370
-1
  6
ByLayer
 10
220.7651170743043281
 20
40.737886998474039
 30
0.0
 11
219.3775682799221158
 21
40.7108688166496648
 31
0.0
  0
LINE
  5
27F
100
AcDbEntity
100
AcDbLine
  8
Rotor Gear
 62
256
370
-1
  6
ByLayer
 10
219.3775682799221158
 20
40.7108688166496648
 30
0.0
 11
217.9393345133575508
 21
40.8759085198415804
 31
0.0
  0
LINE
  5
280
100
AcDbEntity
100
AcDbLine
  8
Rotor Gear
 62
256
370
-1
  6
ByLayer
 10
217.9393345133575508
 20
40.8759085198415804
 30
0.0
 11
217.6727155893630083
 21
41.8713831026308299
 31
0.0
  0
LINE
  5
281
100
AcDbEntity
100
AcDbLine
  8
Rotor Gear
 62
256
370
-1
  6
ByLayer
 10
217.6727155893630083
 20
41.8713831026308299
 30
0.0
 11
218.8357434189440482
 21
42.7334439562614108
 31
0.0
  0
LINE
  5
282
100
AcDbEntity
100
AcDbLine
  8
Rotor Gear
 62
256
370
-1
  6
ByLayer
 10
218.8357434189440482
 20
42.7334439562614108
 30
0.0
 11
220.0507126214498328
 21
43.4038654777514026
 31
0.0
  0
LINE
  5
283
100
AcDbEntity
100
AcDbLine
  8
Rotor Gear
 62
256
370
-1
  6
ByLayer
 10
220.0507126214498328
 20
43.4038654777514026
 30
0.0
 11
219.8062948106329486
 21
44.632867333321613
 31
0.0
  0
LINE
  5
284
100
AcDbEntity
100
AcDbLine
  8
Rotor Gear
 62
256
370
-1
  6
ByLayer
 10
219.8062948106329486
 20
44.632867333321613
 30
0.0
 11
218.4271230106868131
 21
44.7872257749155978
 31
0.0
  0
LINE
  5
285
100
AcDbEntity
100
AcDbLine
  8
Rotor Gear
 62
256
370
-1
  6
ByLayer
 10
218.4271230106868131
 20
44.7872257749155978
 30
0.0
 11
217.0228187432024072
 21
45.1386684466105166
 31
0.0
  0
LINE
  5
286
100
AcDbEntity
100
AcDbLine
  8
Rotor Gear
 62
256
370
-1
  6
ByLayer
 10
217.0228187432024072
 20
45.1386684466105166
 30
0.0
 11
216.888148613301297
 21
46.1605326397954556
 31
0.0
  0
LINE
  5
287
100
AcDbEntity
100
AcDbLine
  8
Rotor Gear
 62
256
370
-1
  6
ByLayer
 10
216.888148613301297
 20
46.1605326397954556
 30
0.0
 11
218.1538020458744143
 21
46.8634179831852933
 31
0.0
  0
LINE
  5
288
100
AcDbEntity
100
AcDbLine
  8
Rotor Gear
 62
256
370
-1
  6
ByLayer
 10
218.1538020458744143
 20
46.8634179831852933
 30
0.0
 11
219.44605584951114
 21
47.3694283729120826
 31
0.0
  0
LINE
  5
289
100
AcDbEntity
100
AcDbLine
  8
Rotor Gear
 62
256
370
-1
  6
ByLayer
 10
219.44605584951114
 20
47.3694283729120826
 30
0.0
 11
219.3641641982863746
 21
48.6200027702312596
 31
0.0
  0
LINE
  5
28A
100
AcDbEntity
100
AcDbLine
  8
Rotor Gear
 62
256
370
-1
  6
ByLayer
 10
219.3641641982863746
 20
48.6200027702312596
 30
0.0
 11
218.0168276488113577
 21
48.9530142730907798
 31
0.0
  0
LINE
  5
28B
100
AcDbEntity
100
AcDbLine
  8
Rotor Gear
 62
256
370
-1
  6
ByLayer
 10
218.0168276488113577
 20
48.9530142730907798
 30
0.0
 11
216.670328947202961
 21
49.4847857017844603
 31
0.0
  0
LINE
  5
28C
100
AcDbEntity
100
AcDbLine
  8
Rotor Gear
 62
256
370
-1
  6
ByLayer
 10
216.670328947202961
 20
49.4847857017844603
 30
0.0
 11
216.670328947202961
 21
50.5152376500734945
 31
0.0
  0
LINE
  5
28D
100
AcDbEntity
100
AcDbLine
  8
Rotor Gear
 62
256
370
-1
  6
ByLayer
 10
216.670328947202961
 20
50.5152376500734945
 30
0.0
 11
218.0168276488113577
 21
51.0470090787671893
 31
0.0
  0
LINE
  5
28E
100
AcDbEntity
100
AcDbLine
  8
Rotor Gear
 62
256
370
-1
  6
ByLayer
 10
218.0168276488113577
 20
51.0470090787671893
 30
0.0
 11
219.3641641982863746
 21
51.3800205816266953
 31
0.0
  0
LINE
  5
28F
100
AcDbEntity
100
AcDbLine
  8
Rotor Gear
 62
256
370
-1
  6
ByLayer
 10
219.3641641982863746
 20
51.3800205816266953
 30
0.0
 11
219.44605584951114
 21
52.6305949789459291
 31
0.0
  0
LINE
  5
290
100
AcDbEntity
100
AcDbLine
  8
Rotor Gear
 62
256
370
-1
  6
ByLayer
 10
219.44605584951114
 20
52.6305949789459291
 30
0.0
 11
218.1538020458744143
 21
53.1366053686726758
 31
0.0
  0
LINE
  5
291
100
AcDbEntity
100
AcDbLine
  8
Rotor Gear
 62
256
370
-1
  6
ByLayer
 10
218.1538020458744143
 20
53.1366053686726758
 30
0.0
 11
216.888148613301297
 21
53.8394907120625703
 31
0.0
  0
LINE
  5
292
100
AcDbEntity
100
AcDbLine
  8
Rotor Gear
 62
256
370
-1
  6
ByLayer
 10
216.888148613301297
 20
53.8394907120625703
 30
0.0
 11
217.0228187432024072
 21
54.861354905247417
 31
0.0
  0
LINE
  5
293
100
AcDbEntity
100
AcDbLine
  8
Rotor Gear
 62
256
370
-1
  6
ByLayer
 10
217.0228187432024072
 20
54.861354905247417
 30
0.0
 11
218.4271230106868131
 21
55.2127975769424353
 31
0.0
  0
LINE
  5
294
100
AcDbEntity
100
AcDbLine
  8
Rotor Gear
 62
256
370
-1
  6
ByLayer
 10
218.4271230106868131
 20
55.2127975769424353
 30
0.0
 11
219.8062948106329486
 21
55.367156018536356
 31
0.0
  0
LINE
  5
295
100
AcDbEntity
100
AcDbLine
  8
Rotor Gear
 62
256
370
-1
  6
ByLayer
 10
219.8062948106329486
 20
55.367156018536356
 30
0.0
 11
220.0507126214498328
 21
56.5961578741066091
 31
0.0
  0
LINE
  5
296
100
AcDbEntity
100
AcDbLine
  8
Rotor Gear
 62
256
370
-1
  6
ByLayer
 10
220.0507126214498328
 20
56.5961578741066091
 30
0.0
 11
218.8357434189440482
 21
57.2665793955965867
 31
0.0
  0
LINE
  5
297
100
AcDbEntity
100
AcDbLine
  8
Rotor Gear
 62
256
370
-1
  6
ByLayer
 10
218.8357434189440482
 20
57.2665793955965867
 30
0.0
 11
217.6727155893630083
 21
58.1286402492271534
 31
0.0
  0
LINE
  5
298
100
AcDbEntity
100
AcDbLine
  8
Rotor Gear
 62
256
370
-1
  6
ByLayer
 10
217.6727155893630083
 20
58.1286402492271534
 30
0.0
 11
217.9393345133575508
 21
59.1241148320164314
 31
0.0
  0
LINE
  5
299
100
AcDbEntity
100
AcDbLine
  8
Rotor Gear
 62
256
370
-1
  6
ByLayer
 10
217.9393345133575508
 20
59.1241148320164314
 30
0.0
 11
219.3775682799221158
 21
59.2891545352083185
 31
0.0
  0
LINE
  5
29A
100
AcDbEntity
100
AcDbLine
  8
Rotor Gear
 62
256
370
-1
  6
ByLayer
 10
219.3775682799221158
 20
59.2891545352083185
 30
0.0
 11
220.7651170743043281
 21
59.2621363533839514
 31
0.0
  0
LINE
  5
29B
100
AcDbEntity
100
AcDbLine
  8
Rotor Gear
 62
256
370
-1
  6
ByLayer
 10
220.7651170743043281
 20
59.2621363533839514
 30
0.0
 11
221.1680825660481844
 21
60.4488309733229769
 31
0.0
  0
LINE
  5
29C
100
AcDbEntity
100
AcDbLine
  8
Rotor Gear
 62
256
370
-1
  6
ByLayer
 10
221.1680825660481844
 20
60.4488309733229769
 30
0.0
 11
220.0507126214498328
 21
61.2721452592266189
 31
0.0
  0
LINE
  5
29D
100
AcDbEntity
100
AcDbLine
  8
Rotor Gear
 62
256
370
-1
  6
ByLayer
 10
220.0507126214498328
 20
61.2721452592266189
 30
0.0
 11
219.0102079829916022
 21
62.2787203986046976
 31
0.0
  0
LINE
  5
29E
100
AcDbEntity
100
AcDbLine
  8
Rotor Gear
 62
256
370
-1
  6
ByLayer
 10
219.0102079829916022
 20
62.2787203986046976
 30
0.0
 11
219.4045864617465043
 21
63.2308406214581922
 31
0.0
  0
LINE
  5
29F
100
AcDbEntity
100
AcDbLine
  8
Rotor Gear
 62
256
370
-1
  6
ByLayer
 10
219.4045864617465043
 20
63.2308406214581922
 30
0.0
 11
220.8520350706137378
 21
63.2067552782244277
 31
0.0
  0
LINE
  5
2A0
100
AcDbEntity
100
AcDbLine
  8
Rotor Gear
 62
256
370
-1
  6
ByLayer
 10
220.8520350706137378
 20
63.2067552782244277
 30
0.0
 11
222.2242948111890826
 21
62.9989890444103935
 31
0.0
  0
LINE
  5
2A1
100
AcDbEntity
100
AcDbLine
  8
Rotor Gear
 62
256
370
-1
  6
ByLayer
 10
222.2242948111890826
 20
62.9989890444103935
 30
0.0
 11
222.7784766294983569
 21
64.1226417348358098
 31
0.0
  0
LINE
  5
2A2
100
AcDbEntity
100
AcDbLine
  8
Rotor Gear
 62
256
370
-1
  6
ByLayer
 10
222.7784766294983569
 20
64.1226417348358098
 30
0.0
 11
221.7781849780623702
 21
65.0848153899736417
 31
0.0
  0
LINE
  5
2A3
100
AcDbEntity
100
AcDbLine
  8
Rotor Gear
 62
256
370
-1
  6
ByLayer
 10
221.7781849780623702
 20
65.0848153899736417
 30
0.0
 11
220.8780061281336202
 21
66.2185215126833953
 31
0.0
  0
LINE
  5
2A4
100
AcDbEntity
100
AcDbLine
  8
Rotor Gear
 62
256
370
-1
  6
ByLayer
 10
220.8780061281336202
 20
66.2185215126833953
 30
0.0
 11
221.3932321022781196
 21
67.1111604739276402
 31
0.0
  0
LINE
  5
2A5
100
AcDbEntity
100
AcDbLine
  8
Rotor Gear
 62
256
370
-1
  6
ByLayer
 10
221.3932321022781196
 20
67.1111604739276402
 30
0.0
 11
222.8251823809005998
 21
66.8983686371440172
 31
0.0
  0
LINE
  5
2A6
100
AcDbEntity
100
AcDbLine
  8
Rotor Gear
 62
256
370
-1
  6
ByLayer
 10
222.8251823809005998
 20
66.8983686371440172
 30
0.0
 11
224.1586955537490269
 21
66.5132057428068038
 31
0.0
  0
LINE
  5
2A7
100
AcDbEntity
100
AcDbLine
  8
Rotor Gear
 62
256
370
-1
  6
ByLayer
 10
224.1586955537490269
 20
66.5132057428068038
 30
0.0
 11
224.8546688377681164
 21
67.5549667820074546
 31
0.0
  0
LINE
  5
2A8
100
AcDbEntity
100
AcDbLine
  8
Rotor Gear
 62
256
370
-1
  6
ByLayer
 10
224.8546688377681164
 20
67.5549667820074546
 30
0.0
 11
223.9886287633574398
 21
68.6394543518301532
 31
0.0
  0
LINE
  5
2A9
100
AcDbEntity
100
AcDbLine
  8
Rotor Gear
 62
256
370
-1
  6
ByLayer
 10
223.9886287633574398
 20
68.6394543518301532
 30
0.0
 11
223.2440647557650095
 21
69.8810224411695344
 31
0.0
  0
LINE
  5
2AA
100
AcDbEntity
100
AcDbLine
  8
Rotor Gear
 62
256
370
-1
  6
ByLayer
 10
223.2440647557650095
 20
69.8810224411695344
 30
0.0
 11
223.871551212310095
 21
70.6986818105598047
 31
0.0
  0
LINE
  5
2AB
100
AcDbEntity
100
AcDbLine
  8
Rotor Gear
 62
256
370
-1
  6
ByLayer
 10
223.871551212310095
 20
70.6986818105598047
 30
0.0
 11
225.2634985224632374
 21
70.3007434060156129
 31
0.0
  0
LINE
  5
2AC
100
AcDbEntity
100
AcDbLine
  8
Rotor Gear
 62
256
370
-1
  6
ByLayer
 10
225.2634985224632374
 20
70.3007434060156129
 30
0.0
 11
226.5350168901026393
 21
69.7448858919730981
 31
0.0
  0
LINE
  5
2AD
100
AcDbEntity
100
AcDbLine
  8
Rotor Gear
 62
256
370
-1
  6
ByLayer
 10
226.5350168901026393
 20
69.7448858919730981
 30
0.0
 11
227.3612632724819207
 21
70.6869526825422838
 31
0.0
  0
LINE
  5
2AE
100
AcDbEntity
100
AcDbLine
  8
Rotor Gear
 62
256
370
-1
  6
ByLayer
 10
227.3612632724819207
 20
70.6869526825422838
 30
0.0
 11
226.6441359995897074
 21
71.8751137217765859
 31
0.0
  0
LINE
  5
2AF
100
AcDbEntity
100
AcDbLine
  8
Rotor Gear
 62
256
370
-1
  6
ByLayer
 10
226.6441359995897074
 20
71.8751137217765859
 30
0.0
 11
226.067963086655709
 21
73.2031812545496052
 31
0.0
  0
LINE
  5
2B0
100
AcDbEntity
100
AcDbLine
  8
Rotor Gear
 62
256
370
-1
  6
ByLayer
 10
226.067963086655709
 20
73.2031812545496052
 30
0.0
 11
226.7968187454504232
 21
73.932036913344291
 31
0.0
  0
LINE
  5
2B1
100
AcDbEntity
100
AcDbLine
  8
Rotor Gear
 62
256
370
-1
  6
ByLayer
 10
226.7968187454504232
 20
73.932036913344291
 30
0.0
 11
228.1248862782234141
 21
73.3558640004102926
 31
0.0
  0
LINE
  5
2B2
100
AcDbEntity
100
AcDbLine
  8
Rotor Gear
 62
256
370
-1
  6
ByLayer
 10
228.1248862782234141
 20
73.3558640004102926
 30
0.0
 11
229.3130473174577162
 21
72.6387367275180793
 31
0.0
  0
LINE
  5
2B3
100
AcDbEntity
100
AcDbLine
  8
Rotor Gear
 62
256
370
-1
  6
ByLayer
 10
229.3130473174577162
 20
72.6387367275180793
 30
0.0
 11
230.2551141080269019
 21
73.4649831098973891
 31
0.0
  0
LINE
  5
2B4
100
AcDbEntity
100
AcDbLine
  8
Rotor Gear
 62
256
370
-1
  6
ByLayer
 10
230.2551141080269019
 20
73.4649831098973891
 30
0.0
 11
229.6992565939844155
 21
74.7365014775367626
 31
0.0
  0
LINE
  5
2B5
100
AcDbEntity
100
AcDbLine
  8
Rotor Gear
 62
256
370
-1
  6
ByLayer
 10
229.6992565939844155
 20
74.7365014775367626
 30
0.0
 11
229.3013181894401953
 21
76.1284487876899334
 31
0.0
  0
LINE
  5
2B6
100
AcDbEntity
100
AcDbLine
  8
Rotor Gear
 62
256
370
-1
  6
ByLayer
 10
229.3013181894401953
 20
76.1284487876899334
 30
0.0
 11
230.1189775588304656
 21
76.7559352442349905
 31
0.0
  0
LINE
  5
2B7
100
AcDbEntity
100
AcDbLine
  8
Rotor Gear
 62
256
370
-1
  6
ByLayer
 10
230.1189775588304656
 20
76.7559352442349905
 30
0.0
 11
231.3605456481698468
 21
76.0113712366425602
 31
0.0
  0
LINE
  5
2B8
100
AcDbEntity
100
AcDbLine
  8
Rotor Gear
 62
256
370
-1
  6
ByLayer
 10
231.3605456481698468
 20
76.0113712366425602
 30
0.0
 11
232.4450332179925454
 21
75.1453311622318836
 31
0.0
  0
LINE
  5
2B9
100
AcDbEntity
100
AcDbLine
  8
Rotor Gear
 62
256
370
-1
  6
ByLayer
 10
232.4450332179925454
 20
75.1453311622318836
 30
0.0
 11
233.4867942571931962
 21
75.8413044462509731
 31
0.0
  0
LINE
  5
2BA
100
AcDbEntity
100
AcDbLine
  8
Rotor Gear
 62
256
370
-1
  6
ByLayer
 10
233.4867942571931962
 20
75.8413044462509731
 30
0.0
 11
233.1016313628560113
 21
77.1748176190994002
 31
0.0
  0
LINE
  5
2BB
100
AcDbEntity
100
AcDbLine
  8
Rotor Gear
 62
256
370
-1
  6
ByLayer
 10
233.1016313628560113
 20
77.1748176190994002
 30
0.0
 11
232.8888395260723598
 21
78.6067678977218804
 31
0.0
  0
LINE
  5
2BC
100
AcDbEntity
100
AcDbLine
  8
Rotor Gear
 62
256
370
-1
  6
ByLayer
 10
232.8888395260723598
 20
78.6067678977218804
 30
0.0
 11
233.7814784873166332
 21
79.1219938718663798
 31
0.0
  0
LINE
  5
2BD
100
AcDbEntity
100
AcDbLine
  8
Rotor Gear
 62
256
370
-1
  6
ByLayer
 10
233.7814784873166332
 20
79.1219938718663798
 30
0.0
 11
234.9151846100263583
 21
78.2218150219376298
 31
0.0
  0
LINE
  5
2BE
100
AcDbEntity
100
AcDbLine
  8
Rotor Gear
 62
256
370
-1
  6
ByLayer
 10
234.9151846100263583
 20
78.2218150219376298
 30
0.0
 11
235.8773582651641902
 21
77.2215233705016431
 31
0.0
  0
LINE
  5
2BF
100
AcDbEntity
100
AcDbLine
  8
Rotor Gear
 62
256
370
-1
  6
ByLayer
 10
235.8773582651641902
 20
77.2215233705016431
 30
0.0
 11
237.0010109555896065
 21
77.7757051888109174
 31
0.0
  0
LINE
  5
2C0
100
AcDbEntity
100
AcDbLine
  8
Rotor Gear
 62
256
370
-1
  6
ByLayer
 10
237.0010109555896065
 20
77.7757051888109174
 30
0.0
 11
236.7932447217755794
 21
79.1479649293862622
 31
0.0
  0
LINE
  5
2C1
100
AcDbEntity
100
AcDbLine
  8
Rotor Gear
 62
256
370
-1
  6
ByLayer
 10
236.7932447217755794
 20
79.1479649293862622
 30
0.0
 11
236.7691593785418434
 21
80.5954135382535242
 31
0.0
  0
LINE
  5
2C2
100
AcDbEntity
100
AcDbLine
  8
Rotor Gear
 62
256
370
-1
  6
ByLayer
 10
236.7691593785418434
 20
80.5954135382535242
 30
0.0
 11
237.721279601395338
 21
80.9897920170084262
 31
0.0
  0
LINE
  5
2C3
100
AcDbEntity
100
AcDbLine
  8
Rotor Gear
 62
256
370
-1
  6
ByLayer
 10
237.721279601395338
 20
80.9897920170084262
 30
0.0
 11
238.7278547407734095
 21
79.9492873785501672
 31
0.0
  0
LINE
  5
2C4
100
AcDbEntity
100
AcDbLine
  8
Rotor Gear
 62
256
370
-1
  6
ByLayer
 10
238.7278547407734095
 20
79.9492873785501672
 30
0.0
 11
239.5511690266770586
 21
78.8319174339518156
 31
0.0
  0
LINE
  5
2C5
100
AcDbEntity
100
AcDbLine
  8
Rotor Gear
 62
256
370
-1
  6
ByLayer
 10
239.5511690266770586
 20
78.8319174339518156
 30
0.0
 11
240.7378636466160344
 21
79.2348829256956719
 31
0.0
  0
LINE
  5
2C6
100
AcDbEntity
100
AcDbLine
  8
Rotor Gear
 62
256
370
-1
  6
ByLayer
 10
240.7378636466160344
 20
79.2348829256956719
 30
0.0
 11
240.710845464791646
 21
80.6224317200778842
 31
0.0
  0
LINE
  5
2C7
100
AcDbEntity
100
AcDbLine
  8
Rotor Gear
 62
256
370
-1
  6
ByLayer
 10
240.710845464791646
 20
80.6224317200778842
 30
0.0
 11
240.8758851679835971
 21
82.0606654866424492
 31
0.0
  0
LINE
  5
2C8
100
AcDbEntity
100
AcDbLine
  8
Rotor Gear
 62
256
370
-1
  6
ByLayer
 10
240.8758851679835971
 20
82.0606654866424492
 30
0.0
 11
241.8713597507728537
 21
82.3272844106369632
 31
0.0
  0
LINE
  5
2C9
100
AcDbEntity
100
AcDbLine
  8
Rotor Gear
 62
256
370
-1
  6
ByLayer
 10
241.8713597507728537
 20
82.3272844106369632
 30
0.0
 11
242.7334206044034204
 21
81.1642565810559802
 31
0.0
  0
LINE
  5
2CA
100
AcDbEntity
100
AcDbLine
  8
Rotor Gear
 62
256
370
-1
  6
ByLayer
 10
242.7334206044034204
 20
81.1642565810559802
 30
0.0
 11
243.4038421258934193
 21
79.9492873785501672
 31
0.0
  0
LINE
  5
2CB
100
AcDbEntity
100
AcDbLine
  8
Rotor Gear
 62
256
370
-1
  6
ByLayer
 10
243.4038421258934193
 20
79.9492873785501672
 30
0.0
 11
244.6328439814636511
 21
80.193705189367023
 31
0.0
  0
LINE
  5
2CC
100
AcDbEntity
100
AcDbLine
  8
Rotor Gear
 62
256
370
-1
  6
ByLayer
 10
244.6328439814636511
 20
80.193705189367023
 30
0.0
 11
244.7872024230576073
 21
81.5728769893132153
 31
0.0
  0
LINE
  5
2CD
100
AcDbEntity
100
AcDbLine
  8
Rotor Gear
 62
256
370
-1
  6
ByLayer
 10
244.7872024230576073
 20
81.5728769893132153
 30
0.0
 11
245.1386450947525475
 21
82.9771812567975928
 31
0.0
  0
LINE
  5
2CE
100
AcDbEntity
100
AcDbLine
  8
Rotor Gear
 62
256
370
-1
  6
ByLayer
 10
245.1386450947525475
 20
82.9771812567975928
 30
0.0
 11
246.1605092879374581
 21
83.111851386698703
 31
0.0
  0
LINE
  5
2CF
100
AcDbEntity
100
AcDbLine
  8
Rotor Gear
 62
256
370
-1
  6
ByLayer
 10
246.1605092879374581
 20
83.111851386698703
 30
0.0
 11
246.8633946313273384
 21
81.8461979541255857
 31
0.0
  0
LINE
  5
2D0
100
AcDbEntity
100
AcDbLine
  8
Rotor Gear
 62
256
370
-1
  6
ByLayer
 10
246.8633946313273384
 20
81.8461979541255857
 30
0.0
 11
247.3694050210540922
 21
80.55394415048886
 31
0.0
  0
LINE
  5
2D1
100
AcDbEntity
100
AcDbLine
  8
Rotor Gear
 62
256
370
-1
  6
ByLayer
 10
247.3694050210540922
 20
80.55394415048886
 30
0.0
 11
248.6199794183732763
 21
80.6358358017136254
 31
0.0
  0
LINE
  5
2D2
100
AcDbEntity
100
AcDbLine
  8
Rotor Gear
 62
256
370
-1
  6
ByLayer
 10
248.6199794183732763
 20
80.6358358017136254
 30
0.0
 11
248.9529909212327823
 21
81.9831723511886423
 31
0.0
  0
LINE
  5
2D3
100
AcDbEntity
100
AcDbLine
  8
Rotor Gear
 62
256
370
-1
  6
ByLayer
 10
248.9529909212327823
 20
81.9831723511886423
 30
0.0
 11
249.484762349926541
 21
83.329671052797039
 31
0.0
  0
LINE
  5
2D4
100
AcDbEntity
100
AcDbLine
  8
Rotor Gear
 62
256
370
-1
  6
ByLayer
 10
249.484762349926541
 20
83.329671052797039
 30
0.0
 11
250.5152142982154828
 21
83.329671052797039
 31
0.0
  0
LINE
  5
2D5
100
AcDbEntity
100
AcDbLine
  8
Rotor Gear
 62
256
370
-1
  6
ByLayer
 10
250.5152142982154828
 20
83.329671052797039
 30
0.0
 11
251.0469857269092131
 21
81.9831723511886423
 31
0.0
  0
LINE
  5
2D6
100
AcDbEntity
100
AcDbLine
  8
Rotor Gear
 62
256
370
-1
  6
ByLayer
 10
251.0469857269092131
 20
81.9831723511886423
 30
0.0
 11
251.3799972297687475
 21
80.6358358017136254
 31
0.0
  0
LINE
  5
2D7
100
AcDbEntity
100
AcDbLine
  8
Rotor Gear
 62
256
370
-1
  6
ByLayer
 10
251.3799972297687475
 20
80.6358358017136254
 30
0.0
 11
252.6305716270879316
 21
80.55394415048886
 31
0.0
  0
LINE
  5
2D8
100
AcDbEntity
100
AcDbLine
  8
Rotor Gear
 62
256
370
-1
  6
ByLayer
 10
252.6305716270879316
 20
80.55394415048886
 30
0.0
 11
253.1365820168146854
 21
81.8461979541255857
 31
0.0
  0
LINE
  5
2D9
100
AcDbEntity
100
AcDbLine
  8
Rotor Gear
 62
256
370
-1
  6
ByLayer
 10
253.1365820168146854
 20
81.8461979541255857
 30
0.0
 11
253.8394673602045657
 21
83.111851386698703
 31
0.0
  0
LINE
  5
2DA
100
AcDbEntity
100
AcDbLine
  8
Rotor Gear
 62
256
370
-1
  6
ByLayer
 10
253.8394673602045657
 20
83.111851386698703
 30
0.0
 11
254.8613315533894763
 21
82.9771812567975928
 31
0.0
  0
LINE
  5
2DB
100
AcDbEntity
100
AcDbLine
  8
Rotor Gear
 62
256
370
-1
  6
ByLayer
 10
254.8613315533894763
 20
82.9771812567975928
 30
0.0
 11
255.2127742250844165
 21
81.5728769893132153
 31
0.0
  0
LINE
  5
2DC
100
AcDbEntity
100
AcDbLine
  8
Rotor Gear
 62
256
370
-1
  6
ByLayer
 10
255.2127742250844165
 20
81.5728769893132153
 30
0.0
 11
255.3671326666783727
 21
80.193705189367023
 31
0.0
  0
LINE
  5
2DD
100
AcDbEntity
100
AcDbLine
  8
Rotor Gear
 62
256
370
-1
  6
ByLayer
 10
255.3671326666783727
 20
80.193705189367023
 30
0.0
 11
256.5961345222485761
 21
79.9492873785501672
 31
0.0
  0
LINE
  5
2DE
100
AcDbEntity
100
AcDbLine
  8
Rotor Gear
 62
256
370
-1
  6
ByLayer
 10
256.5961345222485761
 20
79.9492873785501672
 30
0.0
 11
257.2665560437386034
 21
81.1642565810559802
 31
0.0
  0
LINE
  5
2DF
100
AcDbEntity
100
AcDbLine
  8
Rotor Gear
 62
256
370
-1
  6
ByLayer
 10
257.2665560437386034
 20
81.1642565810559802
 30
0.0
 11
258.1286168973691701
 21
82.3272844106369632
 31
0.0
  0
LINE
  5
2E0
100
AcDbEntity
100
AcDbLine
  8
Rotor Gear
 62
256
370
-1
  6
ByLayer
 10
258.1286168973691701
 20
82.3272844106369632
 30
0.0
 11
259.1240914801584267
 21
82.0606654866424492
 31
0.0
  0
LINE
  5
2E1
100
AcDbEntity
100
AcDbLine
  8
Rotor Gear
 62
256
370
-1
  6
ByLayer
 10
259.1240914801584267
 20
82.0606654866424492
 30
0.0
 11
259.2891311833503778
 21
80.6224317200778842
 31
0.0
  0
LINE
  5
2E2
100
AcDbEntity
100
AcDbLine
  8
Rotor Gear
 62
256
370
-1
  6
ByLayer
 10
259.2891311833503778
 20
80.6224317200778842
 30
0.0
 11
259.2621130015260178
 21
79.2348829256956719
 31
0.0
  0
LINE
  5
2E3
100
AcDbEntity
100
AcDbLine
  8
Rotor Gear
 62
256
370
-1
  6
ByLayer
 10
259.2621130015260178
 20
79.2348829256956719
 30
0.0
 11
260.4488076214649936
 21
78.8319174339518156
 31
0.0
  0
LINE
  5
2E4
100
AcDbEntity
100
AcDbLine
  8
Rotor Gear
 62
256
370
-1
  6
ByLayer
 10
260.4488076214649936
 20
78.8319174339518156
 30
0.0
 11
261.2721219073686143
 21
79.9492873785501672
 31
0.0
  0
LINE
  5
2E5
100
AcDbEntity
100
AcDbLine
  8
Rotor Gear
 62
256
370
-1
  6
ByLayer
 10
261.2721219073686143
 20
79.9492873785501672
 30
0.0
 11
262.2786970467466858
 21
80.9897920170084262
 31
0.0
  0
LINE
  5
2E6
100
AcDbEntity
100
AcDbLine
  8
Rotor Gear
 62
256
370
-1
  6
ByLayer
 10
262.2786970467466858
 20
80.9897920170084262
 30
0.0
 11
263.230817269600152
 21
80.5954135382534957
 31
0.0
  0
LINE
  5
2E7
100
AcDbEntity
100
AcDbLine
  8
Rotor Gear
 62
256
370
-1
  6
ByLayer
 10
263.230817269600152
 20
80.5954135382534957
 30
0.0
 11
263.2067319263664444
 21
79.1479649293862622
 31
0.0
  0
LINE
  5
2E8
100
AcDbEntity
100
AcDbLine
  8
Rotor Gear
 62
256
370
-1
  6
ByLayer
 10
263.2067319263664444
 20
79.1479649293862622
 30
0.0
 11
262.9989656925524173
 21
77.7757051888109174
 31
0.0
  0
LINE
  5
2E9
100
AcDbEntity
100
AcDbLine
  8
Rotor Gear
 62
256
370
-1
  6
ByLayer
 10
262.9989656925524173
 20
77.7757051888109174
 30
0.0
 11
264.122618382977862
 21
77.2215233705016431
 31
0.0
  0
LINE
  5
2EA
100
AcDbEntity
100
AcDbLine
  8
Rotor Gear
 62
256
370
-1
  6
ByLayer
 10
264.122618382977862
 20
77.2215233705016431
 30
0.0
 11
265.0847920381156655
 21
78.2218150219376298
 31
0.0
  0
LINE
  5
2EB
100
AcDbEntity
100
AcDbLine
  8
Rotor Gear
 62
256
370
-1
  6
ByLayer
 10
265.0847920381156655
 20
78.2218150219376298
 30
0.0
 11
266.2184981608253906
 21
79.1219938718663798
 31
0.0
  0
LINE
  5
2EC
100
AcDbEntity
100
AcDbLine
  8
Rotor Gear
 62
256
370
-1
  6
ByLayer
 10
266.2184981608253906
 20
79.1219938718663798
 30
0.0
 11
267.1111371220696356
 21
78.6067678977218804
 31
0.0
  0
LINE
  5
2ED
100
AcDbEntity
100
AcDbLine
  8
Rotor Gear
 62
256
370
-1
  6
ByLayer
 10
267.1111371220696356
 20
78.6067678977218804
 30
0.0
 11
266.898345285286041
 21
77.1748176190994002
 31
0.0
  0
LINE
  5
2EE
100
AcDbEntity
100
AcDbLine
  8
Rotor Gear
 62
256
370
-1
  6
ByLayer
 10
266.898345285286041
 20
77.1748176190994002
 30
0.0
 11
266.5131823909488276
 21
75.8413044462509731
 31
0.0
  0
LINE
  5
2EF
100
AcDbEntity
100
AcDbLine
  8
Rotor Gear
 62
256
370
-1
  6
ByLayer
 10
266.5131823909488276
 20
75.8413044462509731
 30
0.0
 11
267.5549434301494784
 21
75.1453311622318836
 31
0.0
  0
LINE
  5
2F0
100
AcDbEntity
100
AcDbLine
  8
Rotor Gear
 62
256
370
-1
  6
ByLayer
 10
267.5549434301494784
 20
75.1453311622318836
 30
0.0
 11
268.6394309999722054
 21
76.0113712366425602
 31
0.0
  0
LINE
  5
2F1
100
AcDbEntity
100
AcDbLine
  8
Rotor Gear
 62
256
370
-1
  6
ByLayer
 10
268.6394309999722054
 20
76.0113712366425602
 30
0.0
 11
269.8809990893115582
 21
76.7559352442349905
 31
0.0
  0
LINE
  5
2F2
100
AcDbEntity
100
AcDbLine
  8
Rotor Gear
 62
256
370
-1
  6
ByLayer
 10
269.8809990893115582
 20
76.7559352442349905
 30
0.0
 11
270.6986584587018569
 21
76.1284487876899334
 31
0.0
  0
LINE
  5
2F3
100
AcDbEntity
100
AcDbLine
  8
Rotor Gear
 62
256
370
-1
  6
ByLayer
 10
270.6986584587018569
 20
76.1284487876899334
 30
0.0
 11
270.3007200541576367
 21
74.7365014775367626
 31
0.0
  0
LINE
  5
2F4
100
AcDbEntity
100
AcDbLine
  8
Rotor Gear
 62
256
370
-1
  6
ByLayer
 10
270.3007200541576367
 20
74.7365014775367626
 30
0.0
 11
269.7448625401151503
 21
73.4649831098973891
 31
0.0
  0
LINE
  5
2F5
100
AcDbEntity
100
AcDbLine
  8
Rotor Gear
 62
256
370
-1
  6
ByLayer
 10
269.7448625401151503
 20
73.4649831098973891
 30
0.0
 11
270.6869293306842792
 21
72.6387367275180793
 31
0.0
  0
LINE
  5
2F6
100
AcDbEntity
100
AcDbLine
  8
Rotor Gear
 62
256
370
-1
  6
ByLayer
 10
270.6869293306842792
 20
72.6387367275180793
 30
0.0
 11
271.8750903699186097
 21
73.3558640004102926
 31
0.0
  0
LINE
  5
2F7
100
AcDbEntity
100
AcDbLine
  8
Rotor Gear
 62
256
370
-1
  6
ByLayer
 10
271.8750903699186097
 20
73.3558640004102926
 30
0.0
 11
273.2031579026916006
 21
73.932036913344291
 31
0.0
  0
LINE
  5
2F8
100
AcDbEntity
100
AcDbLine
  8
Rotor Gear
 62
256
370
-1
  6
ByLayer
 10
273.2031579026916006
 20
73.932036913344291
 30
0.0
 11
273.9320135614863148
 21
73.2031812545496052
 31
0.0
  0
LINE
  5
2F9
100
AcDbEntity
100
AcDbLine
  8
Rotor Gear
 62
256
370
-1
  6
ByLayer
 10
273.9320135614863148
 20
73.2031812545496052
 30
0.0
 11
273.3558406485523165
 21
71.8751137217765859
 31
0.0
  0
LINE
  5
2FA
100
AcDbEntity
100
AcDbLine
  8
Rotor Gear
 62
256
370
-1
  6
ByLayer
 10
273.3558406485523165
 20
71.8751137217765859
 30
0.0
 11
272.6387133756601315
 21
70.6869526825422838
 31
0.0
  0
LINE
  5
2FB
100
AcDbEntity
100
AcDbLine
  8
Rotor Gear
 62
256
370
-1
  6
ByLayer
 10
272.6387133756601315
 20
70.6869526825422838
 30
0.0
 11
273.4649597580394129
 21
69.7448858919730981
 31
0.0
  0
LINE
  5
2FC
100
AcDbEntity
100
AcDbLine
  8
Rotor Gear
 62
256
370
-1
  6
ByLayer
 10
273.4649597580394129
 20
69.7448858919730981
 30
0.0
 11
274.7364781256787865
 21
70.3007434060155845
 31
0.0
  0
LINE
  5
2FD
100
AcDbEntity
100
AcDbLine
  8
Rotor Gear
 62
256
370
-1
  6
ByLayer
 10
274.7364781256787865
 20
70.3007434060155845
 30
0.0
 11
276.1284254358319004
 21
70.6986818105598047
 31
0.0
  0
LINE
  5
2FE
100
AcDbEntity
100
AcDbLine
  8
Rotor Gear
 62
256
370
-1
  6
ByLayer
 10
276.1284254358319004
 20
70.6986818105598047
 30
0.0
 11
276.7559118923770143
 21
69.8810224411695344
 31
0.0
  0
LINE
  5
2FF
100
AcDbEntity
100
AcDbLine
  8
Rotor Gear
 62
256
370
-1
  6
ByLayer
 10
276.7559118923770143
 20
69.8810224411695344
 30
0.0
 11
276.0113478847846409
 21
68.6394543518301532
 31
0.0
  0
LINE
  5
300
100
AcDbEntity
100
AcDbLine
  8
Rotor Gear
 62
256
370
-1
  6
ByLayer
 10
276.0113478847846409
 20
68.6394543518301532
 30
0.0
 11
275.145307810373879
 21
67.5549667820074546
 31
0.0
  0
LINE
  5
301
100
AcDbEntity
100
AcDbLine
  8
Rotor Gear
 62
256
370
-1
  6
ByLayer
 10
275.145307810373879
 20
67.5549667820074546
 30
0.0
 11
275.8412810943930253
 21
66.5132057428068038
 31
0.0
  0
LINE
  5
302
100
AcDbEntity
100
AcDbLine
  8
Rotor Gear
 62
256
370
-1
  6
ByLayer
 10
275.8412810943930253
 20
66.5132057428068038
 30
0.0
 11
277.1747942672414524
 21
66.8983686371439887
 31
0.0
  0
LINE
  5
303
100
AcDbEntity
100
AcDbLine
  8
Rotor Gear
 62
256
370
-1
  6
ByLayer
 10
277.1747942672414524
 20
66.8983686371439887
 30
0.0
 11
278.6067445458639327
 21
67.1111604739276402
 31
0.0
  0
LINE
  5
304
100
AcDbEntity
100
AcDbLine
  8
Rotor Gear
 62
256
370
-1
  6
ByLayer
 10
278.6067445458639327
 20
67.1111604739276402
 30
0.0
 11
279.1219705200084036
 21
66.2185215126833953
 31
0.0
  0
LINE
  5
305
100
AcDbEntity
100
AcDbLine
  8
Rotor Gear
 62
256
370
-1
  6
ByLayer
 10
279.1219705200084036
 20
66.2185215126833953
 30
0.0
 11
278.2217916700796536
 21
65.0848153899736417
 31
0.0
  0
LINE
  5
306
100
AcDbEntity
100
AcDbLine
  8
Rotor Gear
 62
256
370
-1
  6
ByLayer
 10
278.2217916700796536
 20
65.0848153899736417
 30
0.0
 11
277.2215000186436669
 21
64.1226417348358098
 31
0.0
  0
LINE
  5
307
100
AcDbEntity
100
AcDbLine
  8
Rotor Gear
 62
256
370
-1
  6
ByLayer
 10
277.2215000186436669
 20
64.1226417348358098
 30
0.0
 11
277.7756818369529128
 21
62.9989890444104077
 31
0.0
  0
LINE
  5
308
100
AcDbEntity
100
AcDbLine
  8
Rotor Gear
 62
256
370
-1
  6
ByLayer
 10
277.7756818369529128
 20
62.9989890444104077
 30
0.0
 11
279.147941577528286
 21
63.2067552782244277
 31
0.0
  0
LINE
  5
309
100
AcDbEntity
100
AcDbLine
  8
Rotor Gear
 62
256
370
-1
  6
ByLayer
 10
279.147941577528286
 20
63.2067552782244277
 30
0.0
 11
280.595390186395548
 21
63.2308406214581922
 31
0.0
  0
LINE
  5
30A
100
AcDbEntity
100
AcDbLine
  8
Rotor Gear
 62
256
370
-1
  6
ByLayer
 10
280.595390186395548
 20
63.2308406214581922
 30
0.0
 11
280.98976866515045
 21
62.2787203986046833
 31
0.0
  0
LINE
  5
30B
100
AcDbEntity
100
AcDbLine
  8
Rotor Gear
 62
256
370
-1
  6
ByLayer
 10
280.98976866515045
 20
62.2787203986046833
 30
0.0
 11
279.9492640266921626
 21
61.2721452592266118
 31
0.0
  0
LINE
  5
30C
100
AcDbEntity
100
AcDbLine
  8
Rotor Gear
 62
256
370
-1
  6
ByLayer
 10
279.9492640266921626
 20
61.2721452592266118
 30
0.0
 11
278.831894082093811
 21
60.4488309733229698
 31
0.0
  0
LINE
  5
30D
100
AcDbEntity
100
AcDbLine
  8
Rotor Gear
 62
256
370
-1
  6
ByLayer
 10
278.831894082093811
 20
60.4488309733229698
 30
0.0
 11
279.2348595738376957
 21
59.2621363533839514
 31
0.0
  0
LINE
  5
30E
100
AcDbEntity
100
AcDbLine
  8
Rotor Gear
 62
256
370
-1
  6
ByLayer
 10
279.2348595738376957
 20
59.2621363533839514
 30
0.0
 11
280.622408368219908
 21
59.2891545352083185
 31
0.0
  0
LINE
  5
30F
100
AcDbEntity
100
AcDbLine
  8
Rotor Gear
 62
256
370
-1
  6
ByLayer
 10
280.622408368219908
 20
59.2891545352083185
 30
0.0
 11
282.060642134784473
 21
59.1241148320164314
 31
0.0
  0
LINE
  5
310
100
AcDbEntity
100
AcDbLine
  8
Rotor Gear
 62
256
370
-1
  6
ByLayer
 10
282.060642134784473
 20
59.1241148320164314
 30
0.0
 11
282.3272610587790155
 21
58.1286402492271534
 31
0.0
  0
LINE
  5
311
100
AcDbEntity
100
AcDbLine
  8
Rotor Gear
 62
256
370
-1
  6
ByLayer
 10
282.3272610587790155
 20
58.1286402492271534
 30
0.0
 11
281.1642332291979756
 21
57.2665793955965867
 31
0.0
  0
LINE
  5
312
100
AcDbEntity
100
AcDbLine
  8
Rotor Gear
 62
256
370
-1
  6
ByLayer
 10
281.1642332291979756
 20
57.2665793955965867
 30
0.0
 11
279.9492640266921626
 21
56.596157874106602
 31
0.0
  0
LINE
  5
313
100
AcDbEntity
100
AcDbLine
  8
Rotor Gear
 62
256
370
-1
  6
ByLayer
 10
279.9492640266921626
 20
56.596157874106602
 30
0.0
 11
280.1936818375090752
 21
55.3671560185363489
 31
0.0
  0
LINE
  5
314
100
AcDbEntity
100
AcDbLine
  8
Rotor Gear
 62
256
370
-1
  6
ByLayer
 10
280.1936818375090752
 20
55.3671560185363489
 30
0.0
 11
281.5728536374551823
 21
55.2127975769424282
 31
0.0
  0
LINE
  5
315
100
AcDbEntity
100
AcDbLine
  8
Rotor Gear
 62
256
370
-1
  6
ByLayer
 10
281.5728536374551823
 20
55.2127975769424282
 30
0.0
 11
282.9771579049396451
 21
54.861354905247417
 31
0.0
  0
LINE
  5
316
100
AcDbEntity
100
AcDbLine
  8
Rotor Gear
 62
256
370
-1
  6
ByLayer
 10
282.9771579049396451
 20
54.861354905247417
 30
0.0
 11
283.1118280348406984
 21
53.8394907120625632
 31
0.0
  0
LINE
  5
317
100
AcDbEntity
100
AcDbLine
  8
Rotor Gear
 62
256
370
-1
  6
ByLayer
 10
283.1118280348406984
 20
53.8394907120625632
 30
0.0
 11
281.846174602267638
 21
53.1366053686726687
 31
0.0
  0
LINE
  5
318
100
AcDbEntity
100
AcDbLine
  8
Rotor Gear
 62
256
370
-1
  6
ByLayer
 10
281.846174602267638
 20
53.1366053686726687
 30
0.0
 11
280.5539207986308838
 21
52.6305949789459291
 31
0.0
  0
LINE
  5
319
100
AcDbEntity
100
AcDbLine
  8
Rotor Gear
 62
256
370
-1
  6
ByLayer
 10
280.5539207986308838
 20
52.6305949789459291
 30
0.0
 11
280.6358124498556208
 21
51.3800205816266882
 31
0.0
  0
LINE
  5
31A
100
AcDbEntity
100
AcDbLine
  8
Rotor Gear
 62
256
370
0
  6
ByLayer
 10
248.2119098002813757
 20
57.0276074713235772
 30
0.0
 11
255.192041498132312
 21
55.0623352728760409
 31
0.0
  0
LINE
  5
31B
100
AcDbEntity
100
AcDbLine
  8
Rotor Gear
 62
256
370
0
  6
ByLayer
 10
255.192041498132312
 20
55.0623352728760409
 30
0.0
 11
256.9801316978508794
 21
48.0347278015524495
 31
0.0
  0
LINE
  5
31C
100
AcDbEntity
100
AcDbLine
  8
Rotor Gear
 62
256
370
0
  6
ByLayer
 10
244.8079585018676596
 20
44.937664727123952
 30
0.0
 11
243.0198683021491206
 21
51.9652721984475576
 31
0.0
  0
LINE
  5
31D
100
AcDbEntity
100
AcDbLine
  8
Rotor Gear
 62
256
370
0
  6
ByLayer
 10
243.0198683021490922
 20
51.9652721984475008
 30
0.0
 11
248.2119098002813757
 21
57.0276074713235204
 31
0.0
  0
LINE
  5
31E
100
AcDbEntity
100
AcDbLine
  8
Rotor Gear
 62
256
370
0
  6
ByLayer
 10
256.9801316978508225
 20
48.0347278015523926
 30
0.0
 11
251.7880901997185106
 21
42.9723925286762451
 31
0.0
  0
LINE
  5
31F
100
AcDbEntity
100
AcDbLine
  8
Rotor Gear
 62
256
370
0
  6
ByLayer
 10
251.7880901997185106
 20
42.9723925286762451
 30
0.0
 11
244.8079585018676312
 21
44.9376647271238951
 31
0.0
  0
MTEXT
  5
320
100
AcDbEntity
100
AcDbMText
  8
Rotor Gear Text
 62
256
370
-1
  6
ByLayer
 10
250.0000149945956025
 20
35.2201839750454724
 30
0.0
 40
3.0
 41
100.0
 71
5
 72
2
  1
Rotor\~Gear
  7
standard
 50
0.0
 73
0
 44
1.0
  0
CIRCLE
  5
321
100
AcDbEntity
100
AcDbCircle
  8
Drive Retainer
 62
256
370
-1
  6
ByLayer
 10
249.9999850054043975
 20
234.7798160249545276
 30
0.0
 40
28.0
  0
CIRCLE
  5
322
100
AcDbEntity
100
AcDbCircle
  8
Drive Retainer
 62
256
370
-1
  6
ByLayer
 10
249.9999850054043975
 20
254.7798160249545276
 30
0.0
 40
1.4299999999999999
  0
CIRCLE
  5
323
100
AcDbEntity
100
AcDbCircle
  8
Drive Retainer
 62
256
370
-1
  6
ByLayer
 10
232.6794769297156336
 20
224.7798160249545276
 30
0.0
 40
1.4299999999999999
  0
CIRCLE
  5
324
100
AcDbEntity
100
AcDbCircle
  8
Drive Retainer
 62
256
370
-1
  6
ByLayer
 10
267.3204930810931614
 20
224.7798160249545276
 30
0.0
 40
1.4299999999999999
  0
MTEXT
  5
325
100
AcDbEntity
100
AcDbMText
  8
Drive Retainer Text
 62
256
370
-1
  6
ByLayer
 10
250.0
 20
247.0
 30
0.0
 40
3.0
 41
100.0
 71
5
 72
2
  1
Drive\~Retainer
  7
standard
 50
0.0
 73
0
 44
1.0
  0
CIRCLE
  5
326
100
AcDbEntity
100
AcDbCircle
  8
Drive Retainer
 62
256
370
-1
  6
ByLayer
 10
249.9999850054043975
 20
234.7798160249545276
 30
0.0
 40
8.0
  0
ENDSEC
  0
SECTION
  2
OBJECTS
  0
DICTIONARY
  5
C
100
AcDbDictionary
280
0
281
1
  3
ACAD_GROUP
350
D
  3
ACAD_LAYOUT
350
1A
  3
ACAD_MLINESTYLE
350
17
  3
ACAD_PLOTSETTINGS
350
19
  3
ACAD_PLOTSTYLENAME
350
E
  3
AcDbVariableDictionary
350
327
  0
DICTIONARY
  5
D
100
AcDbDictionary
280
0
281
1
  0
ACDBDICTIONARYWDFLT
  5
E
100
AcDbDictionary
281
1
  3
Normal
350
F
100
AcDbDictionaryWithDefault
340
F
  0
ACDBPLACEHOLDER
  5
F
  0
DICTIONARY
  5
17
100
AcDbDictionary
280
0
281
1
  3
Standard
350
18
  0
MLINESTYLE
  5
18
100
AcDbMlineStyle
  2
STANDARD
 70
0
  3

 62
256
 51
90.0
 52
90.0
 71
2
 49
0.5
 62
256
  6
BYLAYER
 49
-0.5
 62
256
  6
BYLAYER
  0
DICTIONARY
  5
19
100
AcDbDictionary
280
0
281
1
  0
DICTIONARY
  5
1A
100
AcDbDictionary
281
1
  3
Layout1
350
1E
  3
Layout2
350
26
  3
Model
350
22
  0
LAYOUT
  5
1E
100
AcDbPlotSettings
  1

  2
C:\Program Files\AutoCAD 2002\plotters\DWF ePlot (optimized for plotting).pc3
  4

  6

 40
0.0
 41
0.0
 42
0.0
 43
0.0
 44
0.0
 45
0.0
 46
0.0
 47
0.0
 48
0.0
 49
0.0
140
0.0
141
0.0
142
1.0
143
1.0
 70
688
 72
0
 73
0
 74
5
  7

 75
16
147
1.0
148
0.0
149
0.0
100
AcDbLayout
  1
Layout1
 70
1
 71
1
 10
0.0
 20
0.0
 11
420.0
 21
297.0
 12
0.0
 22
0.0
 32
0.0
 14
100000000000000000000.0
 24
100000000000000000000.0
 34
100000000000000000000.0
 15
-100000000000000000000.0
 25
-100000000000000000000.0
 35
-100000000000000000000.0
146
0.0
 13
0.0
 23
0.0
 33
0.0
 16
1.0
 26
0.0
 36
0.0
 17
0.0
 27
1.0
 37
0.0
 76
0
330
1B
  0
LAYOUT
  5
22
100
AcDbPlotSettings
  1

  2
C:\Program Files\AutoCAD 2002\plotters\DWF ePlot (optimized for plotting).pc3
  4

  6

 40
0.0
 41
0.0
 42
0.0
 43
0.0
 44
0.0
 45
0.0
 46
0.0
 47
0.0
 48
0.0
 49
0.0
140
0.0
141
0.0
142
1.0
143
1.0
 70
1712
 72
0
 73
0
 74
0
  7

 75
0
147
1.0
148
0.0
149
0.0
100
AcDbLayout
  1
Model
 70
1
 71
0
 10
0.0
 20
0.0
 11
12.0
 21
9.0
 12
0.0
 22
0.0
 32
0.0
 14
0.0
 24
0.0
 34
0.0
 15
0.0
 25
0.0
 35
0.0
146
0.0
 13
0.0
 23
0.0
 33
0.0
 16
1.0
 26
0.0
 36
0.0
 17
0.0
 27
1.0
 37
0.0
 76
0
330
1F
  0
LAYOUT
  5
26
100
AcDbPlotSettings
  1

  2
C:\Program Files\AutoCAD 2002\plotters\DWF ePlot (optimized for plotting).pc3
  4

  6

 40
0.0
 41
0.0
 42
0.0
 43
0.0
 44
0.0
 45
0.0
 46
0.0
 47
0.0
 48
0.0
 49
0.0
140
0.0
141
0.0
142
1.0
143
1.0
 70
688
 72
0
 73
0
 74
5
  7

 75
16
147
1.0
148
0.0
149
0.0
100
AcDbLayout
  1
Layout2
 70
1
 71
2
 10
0.0
 20
0.0
 11
12.0
 21
9.0
 12
0.0
 22
0.0
 32
0.0
 14
0.0
 24
0.0
 34
0.0
 15
0.0
 25
0.0
 35
0.0
146
0.0
 13
0.0
 23
0.0
 33
0.0
 16
1.0
 26
0.0
 36
0.0
 17
0.0
 27
1.0
 37
0.0
 76
0
330
23
  0
DICTIONARY
  5
327
100
AcDbDictionary
281
1
  3
DIMASSOC
350
329
  3
HIDETEXT
350
328
  0
DICTIONARYVAR
  5
328
100
DictionaryVariables
280
0
  1
2
  0
DICTIONARYVAR
  5
329
100
DictionaryVariables
280
0
  1
1
  0
ENDSEC
  0
EOF
