999
dxflib 2.2.0.0
  0
SECTION
  2
HEADER
  9
$ACADVER
  1
AC1015
  9
$HANDSEED
  5
FFFF
  9
$DIMASZ
 40
2.5
  9
$PLIMMIN
 10
0.0
 20
0.0
  9
$DIMEXE
 40
1.25
  9
$DIMGAP
 40
0.625
  9
$PLIMMAX
 10
210.0
 20
297.0
  9
$INSUNITS
 70
4
  9
$DIMSTYLE
  2
Standard
  9
$CLAYER
  8
Rotor Gear
  9
$DIMEXO
 40
0.625
  9
$DIMTXT
 40
2.5
  9
$CLAYER
  8
Rotor Gear
  0
ENDSEC
  0
SECTION
  2
TABLES
  0
TABLE
  2
VPORT
  5
8
100
AcDbSymbolTable
 70
1
  0
VPORT
  5
30
100
AcDbSymbolTableRecord
100
AcDbViewportTableRecord
  2
*Active
 70
0
 10
0.0
 20
0.0
 11
1.0
 21
1.0
 12
286.3055555555554861
 22
148.5
 13
0.0
 23
0.0
 14
10.0
 24
10.0
 15
10.0
 25
10.0
 16
0.0
 26
0.0
 36
1.0
 17
0.0
 27
0.0
 37
0.0
 40
297.0
 41
1.92798353909465
 42
50.0
 43
0.0
 44
0.0
 50
0.0
 51
0.0
 71
0
 72
100
 73
1
 74
3
 75
1
 76
1
 77
0
 78
0
281
0
 65
1
110
0.0
120
0.0
130
0.0
111
1.0
121
0.0
131
0.0
112
0.0
122
1.0
132
0.0
 79
0
146
0.0
  0
ENDTAB
  0
TABLE
  2
LTYPE
  5
5
100
AcDbSymbolTable
 70
21
  0
LTYPE
  5
14
100
AcDbSymbolTableRecord
100
AcDbLinetypeTableRecord
  2
ByBlock
 70
0
  3

 72
65
 73
0
 40
0.0
  0
LTYPE
  5
15
100
AcDbSymbolTableRecord
100
AcDbLinetypeTableRecord
  2
ByLayer
 70
0
  3

 72
65
 73
0
 40
0.0
  0
LTYPE
  5
16
100
AcDbSymbolTableRecord
100
AcDbLinetypeTableRecord
  2
CONTINUOUS
 70
0
  3
Solid line
 72
65
 73
0
 40
0.0
  0
LTYPE
  5
31
100
AcDbSymbolTableRecord
100
AcDbLinetypeTableRecord
  2
DOT
 70
0
  3
Dot . . . . . . . . . . . . . . . . . . . . . .
 72
65
 73
2
 40
6.3499999999999996
 49
0.0
 74
0
 49
-6.3499999999999996
 74
0
  0
LTYPE
  5
32
100
AcDbSymbolTableRecord
100
AcDbLinetypeTableRecord
  2
DOT2
 70
0
  3
Dot (.5x) .....................................
 72
65
 73
2
 40
3.1749999999999998
 49
0.0
 74
0
 49
-3.1749999999999998
 74
0
  0
LTYPE
  5
33
100
AcDbSymbolTableRecord
100
AcDbLinetypeTableRecord
  2
DOTX2
 70
0
  3
Dot (2x) .  .  .  .  .  .  .  .  .  .  .  .  .
 72
65
 73
2
 40
12.6999999999999993
 49
0.0
 74
0
 49
-12.6999999999999993
 74
0
  0
LTYPE
  5
34
100
AcDbSymbolTableRecord
100
AcDbLinetypeTableRecord
  2
DASHED
 70
0
  3
Dashed __ __ __ __ __ __ __ __ __ __ __ __ __ _
 72
65
 73
2
 40
19.0500000000000007
 49
12.6999999999999993
 74
0
 49
-6.3499999999999996
 74
0
  0
LTYPE
  5
35
100
AcDbSymbolTableRecord
100
AcDbLinetypeTableRecord
  2
DASHED2
 70
0
  3
Dashed (.5x) _ _ _ _ _ _ _ _ _ _ _ _ _ _ _ _ _
 72
65
 73
2
 40
9.5250000000000004
 49
6.3499999999999996
 74
0
 49
-3.1749999999999998
 74
0
  0
LTYPE
  5
36
100
AcDbSymbolTableRecord
100
AcDbLinetypeTableRecord
  2
DASHEDX2
 70
0
  3
Dashed (2x) ____  ____  ____  ____  ____  ___
 72
65
 73
2
 40
38.1000000000000014
 49
25.3999999999999986
 74
0
 49
-12.6999999999999993
 74
0
  0
LTYPE
  5
37
100
AcDbSymbolTableRecord
100
AcDbLinetypeTableRecord
  2
DASHDOT
 70
0
  3
Dash dot __ . __ . __ . __ . __ . __ . __ . __
 72
65
 73
4
 40
25.3999999999999986
 49
12.6999999999999993
 74
0
 49
-6.3499999999999996
 74
0
 49
0.0
 74
0
 49
-6.3499999999999996
 74
0
  0
LTYPE
  5
38
100
AcDbSymbolTableRecord
100
AcDbLinetypeTableRecord
  2
DASHDOT2
 70
0
  3
Dash dot (.5x) _._._._._._._._._._._._._._._.
 72
65
 73
4
 40
12.6999999999999993
 49
6.3499999999999996
 74
0
 49
-3.1749999999999998
 74
0
 49
0.0
 74
0
 49
-3.1749999999999998
 74
0
  0
LTYPE
  5
39
100
AcDbSymbolTableRecord
100
AcDbLinetypeTableRecord
  2
DASHDOTX2
 70
0
  3
Dash dot (2x) ____  .  ____  .  ____  .  ___
 72
65
 73
4
 40
50.7999999999999972
 49
25.3999999999999986
 74
0
 49
-12.6999999999999993
 74
0
 49
0.0
 74
0
 49
-12.6999999999999993
 74
0
  0
LTYPE
  5
3A
100
AcDbSymbolTableRecord
100
AcDbLinetypeTableRecord
  2
DIVIDE
 70
0
  3
Divide ____ . . ____ . . ____ . . ____ . . ____
 72
65
 73
6
 40
31.75
 49
12.6999999999999993
 74
0
 49
-6.3499999999999996
 74
0
 49
0.0
 74
0
 49
-6.3499999999999996
 74
0
 49
0.0
 74
0
 49
-6.3499999999999996
 74
0
  0
LTYPE
  5
3B
100
AcDbSymbolTableRecord
100
AcDbLinetypeTableRecord
  2
DIVIDE2
 70
0
  3
Divide (.5x) __..__..__..__..__..__..__..__.._
 72
65
 73
6
 40
15.875
 49
6.3499999999999996
 74
0
 49
-3.1749999999999998
 74
0
 49
0.0
 74
0
 49
-3.1749999999999998
 74
0
 49
0.0
 74
0
 49
-3.1749999999999998
 74
0
  0
LTYPE
  5
3C
100
AcDbSymbolTableRecord
100
AcDbLinetypeTableRecord
  2
DIVIDEX2
 70
0
  3
Divide (2x) ________  .  .  ________  .  .  _
 72
65
 73
6
 40
63.5
 49
25.3999999999999986
 74
0
 49
-12.6999999999999993
 74
0
 49
0.0
 74
0
 49
-12.6999999999999993
 74
0
 49
0.0
 74
0
 49
-12.6999999999999993
 74
0
  0
LTYPE
  5
3D
100
AcDbSymbolTableRecord
100
AcDbLinetypeTableRecord
  2
CENTER
 70
0
  3
Center ____ _ ____ _ ____ _ ____ _ ____ _ ____
 72
65
 73
4
 40
50.7999999999999972
 49
31.75
 74
0
 49
-6.3499999999999996
 74
0
 49
6.3499999999999996
 74
0
 49
-6.3499999999999996
 74
0
  0
LTYPE
  5
3E
100
AcDbSymbolTableRecord
100
AcDbLinetypeTableRecord
  2
CENTER2
 70
0
  3
Center (.5x) ___ _ ___ _ ___ _ ___ _ ___ _ ___
 72
65
 73
4
 40
28.5749999999999993
 49
19.0500000000000007
 74
0
 49
-3.1749999999999998
 74
0
 49
3.1749999999999998
 74
0
 49
-3.1749999999999998
 74
0
  0
LTYPE
  5
3F
100
AcDbSymbolTableRecord
100
AcDbLinetypeTableRecord
  2
CENTERX2
 70
0
  3
Center (2x) ________  __  ________  __  _____
 72
65
 73
4
 40
101.5999999999999943
 49
63.5
 74
0
 49
-12.6999999999999993
 74
0
 49
12.6999999999999993
 74
0
 49
-12.6999999999999993
 74
0
  0
LTYPE
  5
40
100
AcDbSymbolTableRecord
100
AcDbLinetypeTableRecord
  2
BORDER
 70
0
  3
Border __ __ . __ __ . __ __ . __ __ . __ __ .
 72
65
 73
6
 40
44.4500000000000028
 49
12.6999999999999993
 74
0
 49
-6.3499999999999996
 74
0
 49
12.6999999999999993
 74
0
 49
-6.3499999999999996
 74
0
 49
0.0
 74
0
 49
-6.3499999999999996
 74
0
  0
LTYPE
  5
41
100
AcDbSymbolTableRecord
100
AcDbLinetypeTableRecord
  2
BORDER2
 70
0
  3
Border (.5x) __.__.__.__.__.__.__.__.__.__.__.
 72
65
 73
6
 40
22.2250000000000014
 49
6.3499999999999996
 74
0
 49
-3.1749999999999998
 74
0
 49
6.3499999999999996
 74
0
 49
-3.1749999999999998
 74
0
 49
0.0
 74
0
 49
-3.1749999999999998
 74
0
  0
LTYPE
  5
42
100
AcDbSymbolTableRecord
100
AcDbLinetypeTableRecord
  2
BORDERX2
 70
0
  3
Border (2x) ____  ____  .  ____  ____  .  ___
 72
65
 73
6
 40
88.9000000000000057
 49
25.3999999999999986
 74
0
 49
-12.6999999999999993
 74
0
 49
25.3999999999999986
 74
0
 49
-12.6999999999999993
 74
0
 49
0.0
 74
0
 49
-12.6999999999999993
 74
0
  0
ENDTAB
  0
TABLE
  2
LAYER
  5
2
100
AcDbSymbolTable
 70
25
  0
LAYER
  5
10
100
AcDbSymbolTableRecord
100
AcDbLayerTableRecord
  2
0
 70
0
 62
7
420
16777215
  6
CONTINUOUS
370
0
390
F
  0
LAYER
  5
43
100
AcDbSymbolTableRecord
100
AcDbLayerTableRecord
  2
Rotor Plate
 70
0
 62
7
420
16777215
  6
CONTINUOUS
370
0
390
F
  0
LAYER
  5
44
100
AcDbSymbolTableRecord
100
AcDbLayerTableRecord
  2
Layer 8
 70
0
 62
7
420
16777215
  6
CONTINUOUS
370
0
390
F
  0
LAYER
  5
45
100
AcDbSymbolTableRecord
100
AcDbLayerTableRecord
  2
Layer 7
 70
0
 62
7
420
16777215
  6
CONTINUOUS
370
0
390
F
  0
LAYER
  5
46
100
AcDbSymbolTableRecord
100
AcDbLayerTableRecord
  2
Layer 6
 70
0
 62
7
420
16777215
  6
CONTINUOUS
370
0
390
F
  0
LAYER
  5
47
100
AcDbSymbolTableRecord
100
AcDbLayerTableRecord
  2
Layer 4
 70
0
 62
7
420
16777215
  6
CONTINUOUS
370
0
390
F
  0
LAYER
  5
48
100
AcDbSymbolTableRecord
100
AcDbLayerTableRecord
  2
Layer 3
 70
0
 62
7
420
16777215
  6
CONTINUOUS
370
0
390
F
  0
LAYER
  5
49
100
AcDbSymbolTableRecord
100
AcDbLayerTableRecord
  2
Layer 2
 70
0
 62
7
420
16777215
  6
CONTINUOUS
370
0
390
F
  0
LAYER
  5
4A
100
AcDbSymbolTableRecord
100
AcDbLayerTableRecord
  2
Layer 1
 70
0
 62
7
420
16777215
  6
CONTINUOUS
370
0
390
F
  0
LAYER
  5
4B
100
AcDbSymbolTableRecord
100
AcDbLayerTableRecord
  2
Motor Gear
 70
0
 62
7
420
16777215
  6
CONTINUOUS
370
0
390
F
  0
LAYER
  5
4C
100
AcDbSymbolTableRecord
100
AcDbLayerTableRecord
  2
Rotor Gear
 70
0
 62
7
420
16777215
  6
CONTINUOUS
370
0
390
F
  0
LAYER
  5
4D
100
AcDbSymbolTableRecord
100
AcDbLayerTableRecord
  2
Layer 8 Text
 70
0
 62
4
420
65535
  6
CONTINUOUS
370
0
390
F
  0
LAYER
  5
4E
100
AcDbSymbolTableRecord
100
AcDbLayerTableRecord
  2
Layer 7 Text
 70
0
 62
4
420
65535
  6
CONTINUOUS
370
0
390
F
  0
LAYER
  5
4F
100
AcDbSymbolTableRecord
100
AcDbLayerTableRecord
  2
Layer 6 Text
 70
0
 62
4
420
65535
  6
CONTINUOUS
370
0
390
F
  0
LAYER
  5
50
100
AcDbSymbolTableRecord
100
AcDbLayerTableRecord
  2
Layer 4 Text
 70
0
 62
4
420
65535
  6
CONTINUOUS
370
0
390
F
  0
LAYER
  5
51
100
AcDbSymbolTableRecord
100
AcDbLayerTableRecord
  2
Layer 3 Text
 70
0
 62
4
420
65535
  6
CONTINUOUS
370
0
390
F
  0
LAYER
  5
52
100
AcDbSymbolTableRecord
100
AcDbLayerTableRecord
  2
Layer 2 Text
 70
0
 62
4
420
65535
  6
CONTINUOUS
370
0
390
F
  0
LAYER
  5
53
100
AcDbSymbolTableRecord
100
AcDbLayerTableRecord
  2
Layer 1 Text
 70
0
 62
4
420
65535
  6
CONTINUOUS
370
0
390
F
  0
LAYER
  5
54
100
AcDbSymbolTableRecord
100
AcDbLayerTableRecord
  2
Motor Gear Text
 70
0
 62
4
420
65535
  6
CONTINUOUS
370
0
390
F
  0
LAYER
  5
55
100
AcDbSymbolTableRecord
100
AcDbLayerTableRecord
  2
Rotor Gear Text
 70
0
 62
4
420
65535
  6
CONTINUOUS
370
0
390
F
  0
LAYER
  5
56
100
AcDbSymbolTableRecord
100
AcDbLayerTableRecord
  2
Rotor Plate Text
 70
0
 62
4
420
65535
  6
CONTINUOUS
370
0
390
F
  0
LAYER
  5
57
100
AcDbSymbolTableRecord
100
AcDbLayerTableRecord
  2
Layer 5
 70
0
 62
7
420
16777215
  6
CONTINUOUS
370
0
390
F
  0
LAYER
  5
58
100
AcDbSymbolTableRecord
100
AcDbLayerTableRecord
  2
Layer 5 Text
 70
0
 62
4
420
65535
  6
CONTINUOUS
370
0
390
F
  0
LAYER
  5
59
100
AcDbSymbolTableRecord
100
AcDbLayerTableRecord
  2
Drive Retainer
 70
0
 62
7
420
0
  6
CONTINUOUS
370
0
390
F
  0
LAYER
  5
5A
100
AcDbSymbolTableRecord
100
AcDbLayerTableRecord
  2
Drive Retainer Text
 70
0
 62
4
420
65535
  6
CONTINUOUS
370
0
390
F
  0
ENDTAB
  0
TABLE
  2
STYLE
  5
3
100
AcDbSymbolTable
 70
1
  0
STYLE
  5
11
100
AcDbSymbolTableRecord
100
AcDbTextStyleTableRecord
  2
Standard
 70
0
 40
0.0
 41
0.75
 50
0.0
 71
0
 42
2.5
  3
txt
  4

  0
ENDTAB
  0
TABLE
  2
VIEW
  5
6
100
AcDbSymbolTable
 70
0
  0
ENDTAB
  0
TABLE
  2
UCS
  5
7
100
AcDbSymbolTable
 70
0
  0
ENDTAB
  0
TABLE
  2
APPID
  5
9
100
AcDbSymbolTable
 70
1
  0
APPID
  5
12
100
AcDbSymbolTableRecord
100
AcDbRegAppTableRecord
  2
ACAD
 70
0
  0
ENDTAB
  0
TABLE
  2
DIMSTYLE
  5
A
100
AcDbSymbolTable
 70
1
100
AcDbDimStyleTable
 71
0
  0
DIMSTYLE
105
27
100
AcDbSymbolTableRecord
100
AcDbDimStyleTableRecord
  2
Standard
 41
2.5
 42
0.625
 43
3.75
 44
1.25
 70
0
 73
0
 74
0
 77
1
 78
8
140
2.5
141
2.5
143
0.03937007874016
147
0.625
171
3
172
1
271
2
272
2
274
3
278
44
283
0
284
8
340
11
  0
ENDTAB
  0
TABLE
  2
BLOCK_RECORD
  5
1
100
AcDbSymbolTable
 70
1
  0
BLOCK_RECORD
  5
1F
100
AcDbSymbolTableRecord
100
AcDbBlockTableRecord
  2
*Model_Space
340
22
  0
BLOCK_RECORD
  5
1B
100
AcDbSymbolTableRecord
100
AcDbBlockTableRecord
  2
*Paper_Space
340
1E
  0
BLOCK_RECORD
  5
23
100
AcDbSymbolTableRecord
100
AcDbBlockTableRecord
  2
*Paper_Space0
340
26
  0
ENDTAB
  0
ENDSEC
  0
SECTION
  2
BLOCKS
  0
BLOCK
  5
20
100
AcDbEntity
  8
0
100
AcDbBlockBegin
  2
*Model_Space
 70
0
 10
0.0
 20
0.0
 30
0.0
  3
*Model_Space
  1

  0
ENDBLK
  5
21
100
AcDbEntity
  8
0
100
AcDbBlockEnd
  0
BLOCK
  5
1C
100
AcDbEntity
 67
1
  8
0
100
AcDbBlockBegin
  2
*Paper_Space
 70
0
 10
0.0
 20
0.0
 30
0.0
  3
*Paper_Space
  1

  0
ENDBLK
  5
1D
100
AcDbEntity
 67
1
  8
0
100
AcDbBlockEnd
  0
BLOCK
  5
24
100
AcDbEntity
  8
0
100
AcDbBlockBegin
  2
*Paper_Space0
 70
0
 10
0.0
 20
0.0
 30
0.0
  3
*Paper_Space0
  1

  0
ENDBLK
  5
25
100
AcDbEntity
  8
0
100
AcDbBlockEnd
  0
ENDSEC
  0
SECTION
  2
ENTITIES
  0
ARC
  5
5B
100
AcDbEntity
  8
Layer 1
 62
256
370
-1
  6
ByLayer
100
AcDbCircle
 10
30.4999999999999964
 20
270.5
 30
0.0
 40
0.5
100
AcDbArc
 50
180.0
 51
270.0
  0
LINE
  5
5C
100
AcDbEntity
100
AcDbLine
  8
Layer 1
 62
256
370
-1
  6
ByLayer
 10
29.9999999999999964
 20
299.5
 30
0.0
 11
30.0
 21
270.5
 31
0.0
  0
ARC
  5
5D
100
AcDbEntity
  8
Layer 1
 62
256
370
-1
  6
ByLayer
100
AcDbCircle
 10
29.4999999999999964
 20
299.5
 30
0.0
 40
0.5
100
AcDbArc
 50
0.0
 51
90.0
  0
LINE
  5
5E
100
AcDbEntity
100
AcDbLine
  8
Layer 1
 62
256
370
-1
  6
ByLayer
 10
99.5
 20
270.0
 30
0.0
 11
30.4999999999999964
 21
270.0
 31
0.0
  0
ARC
  5
5F
100
AcDbEntity
  8
Layer 1
 62
256
370
-1
  6
ByLayer
100
AcDbCircle
 10
99.5
 20
269.5
 30
0.0
 40
0.5
100
AcDbArc
 50
0.0
 51
90.0
  0
LINE
  5
60
100
AcDbEntity
100
AcDbLine
  8
Layer 1
 62
256
370
-1
  6
ByLayer
 10
29.5
 20
300.0
 30
0.0
 11
1.9999999999999929
 21
300.0
 31
0.0
  0
ARC
  5
61
100
AcDbEntity
  8
Layer 1
 62
256
370
-1
  6
ByLayer
100
AcDbCircle
 10
2.0000000000000071
 20
298.0
 30
0.0
 40
2.0
100
AcDbArc
 50
90.0
 51
180.0
  0
LINE
  5
62
100
AcDbEntity
100
AcDbLine
  8
Layer 1
 62
256
370
-1
  6
ByLayer
 10
0.0000000000000071
 20
298.0
 30
0.0
 11
-0.0000000000000071
 21
202.0
 31
0.0
  0
ARC
  5
63
100
AcDbEntity
  8
Layer 1
 62
256
370
-1
  6
ByLayer
100
AcDbCircle
 10
2.0
 20
202.0
 30
0.0
 40
2.0
100
AcDbArc
 50
180.0
 51
270.0
  0
ARC
  5
64
100
AcDbEntity
  8
Layer 1
 62
256
370
-1
  6
ByLayer
100
AcDbCircle
 10
97.9999999999999858
 20
202.0
 30
0.0
 40
2.0
100
AcDbArc
 50
270.0
 51
0.0
  0
MTEXT
  5
65
100
AcDbEntity
100
AcDbMText
  8
Layer 1 Text
 62
256
370
-1
  6
ByLayer
 10
10.0
 20
283.0
 30
0.0
 40
3.0
 41
100.0
 71
1
 72
2
  1
Layer\~1
  7
standard
 50
0.0
 73
0
 44
1.0
  0
CIRCLE
  5
66
100
AcDbEntity
100
AcDbCircle
  8
Layer 1
 62
256
370
-1
  6
ByLayer
 10
49.9999850054043904
 20
234.7798160249545276
 30
0.0
 40
10.9000000000000004
  0
CIRCLE
  5
67
100
AcDbEntity
100
AcDbCircle
  8
Layer 1
 62
256
370
-1
  6
ByLayer
 10
7.5
 20
292.5
 30
0.0
 40
2.3999999999999999
  0
CIRCLE
  5
68
100
AcDbEntity
100
AcDbCircle
  8
Layer 1
 62
256
370
-1
  6
ByLayer
 10
7.5
 20
250.0
 30
0.0
 40
2.3999999999999999
  0
CIRCLE
  5
69
100
AcDbEntity
100
AcDbCircle
  8
Layer 1
 62
256
370
-1
  6
ByLayer
 10
7.4999999999999929
 20
207.5
 30
0.0
 40
2.3999999999999999
  0
CIRCLE
  5
6A
100
AcDbEntity
100
AcDbCircle
  8
Layer 1
 62
256
370
-1
  6
ByLayer
 10
92.5
 20
207.5
 30
0.0
 40
2.3999999999999999
  0
CIRCLE
  5
6B
100
AcDbEntity
100
AcDbCircle
  8
Layer 1
 62
256
370
-1
  6
ByLayer
 10
92.5
 20
250.0
 30
0.0
 40
2.3999999999999999
  0
CIRCLE
  5
6C
100
AcDbEntity
100
AcDbCircle
  8
Layer 1
 62
256
370
-1
  6
ByLayer
 10
49.9999850054043975
 20
254.7798160249545276
 30
0.0
 40
1.4299999999999999
  0
CIRCLE
  5
6D
100
AcDbEntity
100
AcDbCircle
  8
Layer 1
 62
256
370
-1
  6
ByLayer
 10
32.6794769297156122
 20
224.7798160249545276
 30
0.0
 40
1.4299999999999999
  0
CIRCLE
  5
6E
100
AcDbEntity
100
AcDbCircle
  8
Layer 1
 62
256
370
-1
  6
ByLayer
 10
67.3204930810931614
 20
224.7798160249545276
 30
0.0
 40
1.4299999999999999
  0
CIRCLE
  5
6F
100
AcDbEntity
100
AcDbCircle
  8
Layer 1
 62
256
370
-1
  6
ByLayer
 10
31.4999999999999929
 20
204.0
 30
0.0
 40
2.7999999999999998
  0
CIRCLE
  5
70
100
AcDbEntity
100
AcDbCircle
  8
Layer 1
 62
256
370
-1
  6
ByLayer
 10
68.4999999999999858
 20
204.0
 30
0.0
 40
2.7999999999999998
  0
MTEXT
  5
71
100
AcDbEntity
100
AcDbMText
  8
Layer 1 Text
 62
256
370
-1
  6
ByLayer
 10
4.0
 20
277.0
 30
0.0
 40
3.0
 41
100.0
 71
1
 72
0
  1
Peristaltic
  7
standard
 50
0.0
 73
1
 44
1.0
  0
MTEXT
  5
72
100
AcDbEntity
100
AcDbMText
  8
Layer 1 Text
 62
256
370
-1
  6
ByLayer
 10
4.0000000000000071
 20
272.0
 30
0.0
 40
3.0
 41
100.0
 71
1
 72
0
  1
Pump\~v1.3
  7
standard
 50
0.0
 73
1
 44
1.0
  0
MTEXT
  5
73
100
AcDbEntity
100
AcDbMText
  8
Layer 1 Text
 62
256
370
-1
  6
ByLayer
 10
4.0
 20
265.0
 30
0.0
 40
3.0
 41
100.0
 71
1
 72
0
  1
ZachHoeken.com
  7
standard
 50
0.0
 73
1
 44
1.0
  0
ARC
  5
74
100
AcDbEntity
  8
Layer 2
 62
256
370
-1
  6
ByLayer
100
AcDbCircle
 10
130.5
 20
270.5
 30
0.0
 40
0.5
100
AcDbArc
 50
180.0
 51
270.0
  0
LINE
  5
75
100
AcDbEntity
100
AcDbLine
  8
Layer 2
 62
256
370
-1
  6
ByLayer
 10
130.0
 20
299.5
 30
0.0
 11
130.0
 21
270.5
 31
0.0
  0
ARC
  5
76
100
AcDbEntity
  8
Layer 2
 62
256
370
-1
  6
ByLayer
100
AcDbCircle
 10
129.5
 20
299.5
 30
0.0
 40
0.5
100
AcDbArc
 50
0.0
 51
90.0
  0
LINE
  5
77
100
AcDbEntity
100
AcDbLine
  8
Layer 2
 62
256
370
-1
  6
ByLayer
 10
199.5
 20
270.0
 30
0.0
 11
130.5
 21
270.0
 31
0.0
  0
ARC
  5
78
100
AcDbEntity
  8
Layer 2
 62
256
370
-1
  6
ByLayer
100
AcDbCircle
 10
199.5
 20
269.5
 30
0.0
 40
0.5
100
AcDbArc
 50
0.0
 51
90.0
  0
ARC
  5
79
100
AcDbEntity
  8
Layer 2
 62
256
370
-1
  6
ByLayer
100
AcDbCircle
 10
198.0
 20
202.0
 30
0.0
 40
2.0
100
AcDbArc
 50
270.0
 51
360.0
  0
LINE
  5
7A
100
AcDbEntity
100
AcDbLine
  8
Layer 2
 62
256
370
-1
  6
ByLayer
 10
101.9999999999999716
 20
200.0
 30
0.0
 11
198.0
 21
200.0
 31
0.0
  0
ARC
  5
7B
100
AcDbEntity
  8
Layer 2
 62
256
370
-1
  6
ByLayer
100
AcDbCircle
 10
102.0
 20
202.0
 30
0.0
 40
2.0
100
AcDbArc
 50
180.0
 51
270.0
  0
LINE
  5
7C
100
AcDbEntity
100
AcDbLine
  8
Layer 2
 62
256
370
-1
  6
ByLayer
 10
100.0
 20
298.0
 30
0.0
 11
100.0
 21
202.0
 31
0.0
  0
LINE
  5
7D
100
AcDbEntity
100
AcDbLine
  8
Layer 2
 62
256
370
-1
  6
ByLayer
 10
129.5
 20
300.0
 30
0.0
 11
102.0
 21
300.0
 31
0.0
  0
ARC
  5
7E
100
AcDbEntity
  8
Layer 2
 62
256
370
-1
  6
ByLayer
100
AcDbCircle
 10
102.0
 20
298.0
 30
0.0
 40
2.0
100
AcDbArc
 50
90.0
 51
180.0
  0
CIRCLE
  5
7F
100
AcDbEntity
100
AcDbCircle
  8
Layer 2
 62
256
370
-1
  6
ByLayer
 10
149.9999850054043975
 20
234.7798160249545276
 30
0.0
 40
8.0
  0
MTEXT
  5
80
100
AcDbEntity
100
AcDbMText
  8
Layer 2 Text
 62
256
370
-1
  6
ByLayer
 10
110.0
 20
283.0
 30
0.0
 40
3.0
 41
100.0
 71
1
 72
2
  1
Layer\~2
  7
standard
 50
0.0
 73
0
 44
1.0
  0
CIRCLE
  5
81
100
AcDbEntity
100
AcDbCircle
  8
Layer 2
 62
256
370
-1
  6
ByLayer
 10
192.5
 20
250.0
 30
0.0
 40
2.3999999999999999
  0
CIRCLE
  5
82
100
AcDbEntity
100
AcDbCircle
  8
Layer 2
 62
256
370
-1
  6
ByLayer
 10
192.5
 20
207.5
 30
0.0
 40
2.3999999999999999
  0
CIRCLE
  5
83
100
AcDbEntity
100
AcDbCircle
  8
Layer 2
 62
256
370
-1
  6
ByLayer
 10
107.5
 20
207.5
 30
0.0
 40
2.3999999999999999
  0
CIRCLE
  5
84
100
AcDbEntity
100
AcDbCircle
  8
Layer 2
 62
256
370
-1
  6
ByLayer
 10
107.5
 20
250.0
 30
0.0
 40
2.3999999999999999
  0
CIRCLE
  5
85
100
AcDbEntity
100
AcDbCircle
  8
Layer 2
 62
256
370
-1
  6
ByLayer
 10
107.5
 20
292.5
 30
0.0
 40
2.3999999999999999
  0
LINE
  5
86
100
AcDbEntity
100
AcDbLine
  8
Layer 2
 62
256
370
-1
  6
ByLayer
 10
146.8245590054044101
 20
254.7798160249545276
 30
0.0
 11
148.4122720054043896
 21
257.5298160249545276
 31
0.0
  0
LINE
  5
87
100
AcDbEntity
100
AcDbLine
  8
Layer 2
 62
256
370
-1
  6
ByLayer
 10
148.4122720054043896
 20
257.5298160249545276
 30
0.0
 11
151.5876980054044054
 21
257.5298160249545276
 31
0.0
  0
LINE
  5
88
100
AcDbEntity
100
AcDbLine
  8
Layer 2
 62
256
370
-1
  6
ByLayer
 10
151.5876980054044054
 20
257.5298160249545276
 30
0.0
 11
153.1754110054043849
 21
254.7798160249545276
 31
0.0
  0
LINE
  5
89
100
AcDbEntity
100
AcDbLine
  8
Layer 2
 62
256
370
-1
  6
ByLayer
 10
151.587698005404377
 20
252.0298160249545276
 30
0.0
 11
153.1754110054043849
 21
254.7798160249545276
 31
0.0
  0
LINE
  5
8A
100
AcDbEntity
100
AcDbLine
  8
Layer 2
 62
256
370
-1
  6
ByLayer
 10
148.4122720054043896
 20
252.0298160249545276
 30
0.0
 11
151.587698005404377
 21
252.0298160249545276
 31
0.0
  0
LINE
  5
8B
100
AcDbEntity
100
AcDbLine
  8
Layer 2
 62
256
370
-1
  6
ByLayer
 10
146.8245590054044101
 20
254.7798160249545276
 30
0.0
 11
148.4122720054043896
 21
252.0298160249545276
 31
0.0
  0
LINE
  5
8C
100
AcDbEntity
100
AcDbLine
  8
Layer 2
 62
256
370
-1
  6
ByLayer
 10
164.145067081093174
 20
224.7798160249545276
 30
0.0
 11
165.7327800810931535
 21
227.5298160249545276
 31
0.0
  0
LINE
  5
8D
100
AcDbEntity
100
AcDbLine
  8
Layer 2
 62
256
370
-1
  6
ByLayer
 10
165.7327800810931535
 20
227.5298160249545276
 30
0.0
 11
168.9082060810931694
 21
227.5298160249544992
 31
0.0
  0
LINE
  5
8E
100
AcDbEntity
100
AcDbLine
  8
Layer 2
 62
256
370
-1
  6
ByLayer
 10
168.9082060810931694
 20
227.5298160249544992
 30
0.0
 11
170.4959190810931489
 21
224.7798160249545276
 31
0.0
  0
LINE
  5
8F
100
AcDbEntity
100
AcDbLine
  8
Layer 2
 62
256
370
-1
  6
ByLayer
 10
168.9082060810931125
 20
222.0298160249545276
 30
0.0
 11
170.4959190810931489
 21
224.7798160249545276
 31
0.0
  0
LINE
  5
90
100
AcDbEntity
100
AcDbLine
  8
Layer 2
 62
256
370
-1
  6
ByLayer
 10
165.7327800810931535
 20
222.0298160249545276
 30
0.0
 11
168.9082060810931125
 21
222.0298160249545276
 31
0.0
  0
LINE
  5
91
100
AcDbEntity
100
AcDbLine
  8
Layer 2
 62
256
370
-1
  6
ByLayer
 10
164.145067081093174
 20
224.7798160249545276
 30
0.0
 11
165.7327800810931535
 21
222.0298160249545276
 31
0.0
  0
LINE
  5
92
100
AcDbEntity
100
AcDbLine
  8
Layer 2
 62
256
370
-1
  6
ByLayer
 10
129.5040509297156461
 20
224.7798160249545276
 30
0.0
 11
131.0917639297155972
 21
227.5298160249545276
 31
0.0
  0
LINE
  5
93
100
AcDbEntity
100
AcDbLine
  8
Layer 2
 62
256
370
-1
  6
ByLayer
 10
131.0917639297155972
 20
227.5298160249545276
 30
0.0
 11
134.2671899297156131
 21
227.529816024954556
 31
0.0
  0
LINE
  5
94
100
AcDbEntity
100
AcDbLine
  8
Layer 2
 62
256
370
-1
  6
ByLayer
 10
134.2671899297156131
 20
227.529816024954556
 30
0.0
 11
135.8549029297155926
 21
224.7798160249545276
 31
0.0
  0
LINE
  5
95
100
AcDbEntity
100
AcDbLine
  8
Layer 2
 62
256
370
-1
  6
ByLayer
 10
134.2671899297156131
 20
222.0298160249545276
 30
0.0
 11
135.8549029297155926
 21
224.7798160249545276
 31
0.0
  0
LINE
  5
96
100
AcDbEntity
100
AcDbLine
  8
Layer 2
 62
256
370
-1
  6
ByLayer
 10
131.0917639297156256
 20
222.0298160249545276
 30
0.0
 11
134.2671899297156131
 21
222.0298160249545276
 31
0.0
  0
LINE
  5
97
100
AcDbEntity
100
AcDbLine
  8
Layer 2
 62
256
370
-1
  6
ByLayer
 10
129.5040509297156461
 20
224.7798160249545276
 30
0.0
 11
131.0917639297156256
 21
222.0298160249545276
 31
0.0
  0
CIRCLE
  5
98
100
AcDbEntity
100
AcDbCircle
  8
Layer 2
 62
256
370
-1
  6
ByLayer
 10
131.5
 20
204.0
 30
0.0
 40
2.7999999999999998
  0
CIRCLE
  5
99
100
AcDbEntity
100
AcDbCircle
  8
Layer 2
 62
256
370
-1
  6
ByLayer
 10
168.5
 20
204.0
 30
0.0
 40
2.7999999999999998
  0
CIRCLE
  5
9A
100
AcDbEntity
100
AcDbCircle
  8
Layer 3
 62
256
370
-1
  6
ByLayer
 10
249.9999850054043975
 20
282.6731265266270725
 30
0.0
 40
4.8250000000000002
  0
CIRCLE
  5
9B
100
AcDbEntity
100
AcDbCircle
  8
Layer 3
 62
256
370
-1
  6
ByLayer
 10
269.4999850054044259
 20
291.4731265266271976
 30
0.0
 40
1.4299999999999999
  0
CIRCLE
  5
9C
100
AcDbEntity
100
AcDbCircle
  8
Layer 3
 62
256
370
-1
  6
ByLayer
 10
269.4999850054044259
 20
273.873126526627118
 30
0.0
 40
1.4299999999999999
  0
ARC
  5
9D
100
AcDbEntity
  8
Layer 3
 62
256
370
-1
  6
ByLayer
100
AcDbCircle
 10
202.0
 20
298.0
 30
0.0
 40
2.0
100
AcDbArc
 50
90.0
 51
180.0
  0
ARC
  5
9E
100
AcDbEntity
  8
Layer 3
 62
256
370
-1
  6
ByLayer
100
AcDbCircle
 10
298.0
 20
202.0
 30
0.0
 40
2.0
100
AcDbArc
 50
270.0
 51
0.0
  0
LINE
  5
9F
100
AcDbEntity
100
AcDbLine
  8
Layer 3
 62
256
370
-1
  6
ByLayer
 10
200.0
 20
298.0
 30
0.0
 11
200.0
 21
202.0
 31
0.0
  0
ARC
  5
A0
100
AcDbEntity
  8
Layer 3
 62
256
370
-1
  6
ByLayer
100
AcDbCircle
 10
202.0
 20
202.0
 30
0.0
 40
2.0
100
AcDbArc
 50
180.0
 51
270.0
  0
LINE
  5
A1
100
AcDbEntity
100
AcDbLine
  8
Layer 3
 62
256
370
-1
  6
ByLayer
 10
274.7999850054043804
 20
271.5731265266270498
 30
0.0
 11
274.7999850054043804
 21
298.0
 31
0.0
  0
LINE
  5
A2
100
AcDbEntity
100
AcDbLine
  8
Layer 3
 62
256
370
-1
  6
ByLayer
 10
272.7999850054043804
 20
300.0
 30
0.0
 11
202.0
 21
300.0
 31
0.0
  0
ARC
  5
A3
100
AcDbEntity
  8
Layer 3
 62
256
370
-1
  6
ByLayer
100
AcDbCircle
 10
272.7999850054043804
 20
298.0
 30
0.0
 40
2.0
100
AcDbArc
 50
0.0
 51
90.0
  0
LINE
  5
A4
100
AcDbEntity
100
AcDbLine
  8
Layer 3
 62
256
370
-1
  6
ByLayer
 10
274.7999850054043804
 20
271.5731265266270498
 30
0.0
 11
298.0
 21
271.5731265266271066
 31
0.0
  0
LINE
  5
A5
100
AcDbEntity
100
AcDbLine
  8
Layer 3
 62
256
370
-1
  6
ByLayer
 10
300.0
 20
201.9999999999999716
 30
0.0
 11
300.0
 21
269.5731265266271066
 31
0.0
  0
ARC
  5
A6
100
AcDbEntity
  8
Layer 3
 62
256
370
-1
  6
ByLayer
100
AcDbCircle
 10
298.0
 20
269.5731265266270498
 30
0.0
 40
2.0
100
AcDbArc
 50
0.0
 51
90.0
  0
MTEXT
  5
A7
100
AcDbEntity
100
AcDbMText
  8
Layer 3 Text
 62
256
370
-1
  6
ByLayer
 10
210.0
 20
283.0
 30
0.0
 40
3.0
 41
100.0
 71
1
 72
2
  1
Layer\~3
  7
standard
 50
0.0
 73
0
 44
1.0
  0
CIRCLE
  5
A8
100
AcDbEntity
100
AcDbCircle
  8
Layer 3
 62
256
370
-1
  6
ByLayer
 10
292.5
 20
250.0
 30
0.0
 40
2.3999999999999999
  0
CIRCLE
  5
A9
100
AcDbEntity
100
AcDbCircle
  8
Layer 3
 62
256
370
-1
  6
ByLayer
 10
292.5
 20
207.5
 30
0.0
 40
2.3999999999999999
  0
CIRCLE
  5
AA
100
AcDbEntity
100
AcDbCircle
  8
Layer 3
 62
256
370
-1
  6
ByLayer
 10
207.5
 20
207.5
 30
0.0
 40
2.3999999999999999
  0
CIRCLE
  5
AB
100
AcDbEntity
100
AcDbCircle
  8
Layer 3
 62
256
370
-1
  6
ByLayer
 10
207.5
 20
250.0
 30
0.0
 40
2.3999999999999999
  0
CIRCLE
  5
AC
100
AcDbEntity
100
AcDbCircle
  8
Layer 3
 62
256
370
-1
  6
ByLayer
 10
207.5
 20
292.5
 30
0.0
 40
2.3999999999999999
  0
CIRCLE
  5
AD
100
AcDbEntity
100
AcDbCircle
  8
Layer 3
 62
256
370
-1
  6
ByLayer
 10
231.5
 20
204.0
 30
0.0
 40
1.4299999999999999
  0
CIRCLE
  5
AE
100
AcDbEntity
100
AcDbCircle
  8
Layer 3
 62
256
370
-1
  6
ByLayer
 10
268.5
 20
204.0
 30
0.0
 40
1.4299999999999999
  0
CIRCLE
  5
AF
100
AcDbEntity
100
AcDbCircle
  8
Layer 4
 62
256
370
-1
  6
ByLayer
 10
49.9999850054043975
 20
182.6731265266270725
 30
0.0
 40
4.8250000000000002
  0
ARC
  5
B0
100
AcDbEntity
  8
Layer 4
 62
256
370
-1
  6
ByLayer
100
AcDbCircle
 10
97.9999999999999858
 20
102.0
 30
0.0
 40
2.0
100
AcDbArc
 50
270.0
 51
0.0
  0
ARC
  5
B1
100
AcDbEntity
  8
Layer 4
 62
256
370
-1
  6
ByLayer
100
AcDbCircle
 10
98.0
 20
198.0
 30
0.0
 40
2.0
100
AcDbArc
 50
0.0
 51
90.0
  0
LINE
  5
B2
100
AcDbEntity
100
AcDbLine
  8
Layer 4
 62
256
370
-1
  6
ByLayer
 10
98.0
 20
200.0
 30
0.0
 11
1.9999999999999929
 21
200.0
 31
0.0
  0
ARC
  5
B3
100
AcDbEntity
  8
Layer 4
 62
256
370
-1
  6
ByLayer
100
AcDbCircle
 10
2.0
 20
198.0
 30
0.0
 40
2.0
100
AcDbArc
 50
90.0
 51
180.0
  0
LINE
  5
B4
100
AcDbEntity
100
AcDbLine
  8
Layer 4
 62
256
370
-1
  6
ByLayer
 10
0.0000000000000071
 20
198.0
 30
0.0
 11
-0.0000000000000142
 21
101.9999999999999858
 31
0.0
  0
ARC
  5
B5
100
AcDbEntity
  8
Layer 4
 62
256
370
-1
  6
ByLayer
100
AcDbCircle
 10
1.9999999999999858
 20
102.0
 30
0.0
 40
2.0
100
AcDbArc
 50
180.0
 51
270.0
  0
MTEXT
  5
B6
100
AcDbEntity
100
AcDbMText
  8
Layer 4 Text
 62
256
370
-1
  6
ByLayer
 10
10.0
 20
183.0
 30
0.0
 40
3.0
 41
100.0
 71
1
 72
2
  1
Layer\~4
  7
standard
 50
0.0
 73
0
 44
1.0
  0
LINE
  5
B7
100
AcDbEntity
100
AcDbLine
  8
Layer 4
 62
256
370
-1
  6
ByLayer
 10
66.3245590054045095
 20
191.4731265266272544
 30
0.0
 11
67.9122720054044891
 21
194.2231265266272544
 31
0.0
  0
LINE
  5
B8
100
AcDbEntity
100
AcDbLine
  8
Layer 4
 62
256
370
-1
  6
ByLayer
 10
67.9122720054044891
 20
194.2231265266272544
 30
0.0
 11
71.0876980054045049
 21
194.2231265266272544
 31
0.0
  0
LINE
  5
B9
100
AcDbEntity
100
AcDbLine
  8
Layer 4
 62
256
370
-1
  6
ByLayer
 10
71.0876980054045049
 20
194.2231265266272544
 30
0.0
 11
72.6754110054044844
 21
191.4731265266272544
 31
0.0
  0
LINE
  5
BA
100
AcDbEntity
100
AcDbLine
  8
Layer 4
 62
256
370
-1
  6
ByLayer
 10
71.0876980054044765
 20
188.7231265266272544
 30
0.0
 11
72.6754110054044844
 21
191.4731265266272544
 31
0.0
  0
LINE
  5
BB
100
AcDbEntity
100
AcDbLine
  8
Layer 4
 62
256
370
-1
  6
ByLayer
 10
67.9122720054044891
 20
188.7231265266272828
 30
0.0
 11
71.0876980054044765
 21
188.7231265266272544
 31
0.0
  0
LINE
  5
BC
100
AcDbEntity
100
AcDbLine
  8
Layer 4
 62
256
370
-1
  6
ByLayer
 10
66.3245590054045095
 20
191.4731265266272544
 30
0.0
 11
67.9122720054044891
 21
188.7231265266272828
 31
0.0
  0
LINE
  5
BD
100
AcDbEntity
100
AcDbLine
  8
Layer 4
 62
256
370
-1
  6
ByLayer
 10
66.3245590054044385
 20
173.8731265266271464
 30
0.0
 11
67.912272005404418
 21
176.6231265266271464
 31
0.0
  0
LINE
  5
BE
100
AcDbEntity
100
AcDbLine
  8
Layer 4
 62
256
370
-1
  6
ByLayer
 10
67.912272005404418
 20
176.6231265266271464
 30
0.0
 11
71.0876980054044338
 21
176.6231265266271464
 31
0.0
  0
LINE
  5
BF
100
AcDbEntity
100
AcDbLine
  8
Layer 4
 62
256
370
-1
  6
ByLayer
 10
71.0876980054044338
 20
176.6231265266271464
 30
0.0
 11
72.6754110054044133
 21
173.8731265266271464
 31
0.0
  0
LINE
  5
C0
100
AcDbEntity
100
AcDbLine
  8
Layer 4
 62
256
370
-1
  6
ByLayer
 10
71.0876980054044054
 20
171.1231265266271464
 30
0.0
 11
72.6754110054044133
 21
173.8731265266271464
 31
0.0
  0
LINE
  5
C1
100
AcDbEntity
100
AcDbLine
  8
Layer 4
 62
256
370
-1
  6
ByLayer
 10
67.912272005404418
 20
171.1231265266271748
 30
0.0
 11
71.0876980054044054
 21
171.1231265266271464
 31
0.0
  0
LINE
  5
C2
100
AcDbEntity
100
AcDbLine
  8
Layer 4
 62
256
370
-1
  6
ByLayer
 10
66.3245590054044385
 20
173.8731265266271464
 30
0.0
 11
67.912272005404418
 21
171.1231265266271748
 31
0.0
  0
CIRCLE
  5
C3
100
AcDbEntity
100
AcDbCircle
  8
Layer 4
 62
256
370
-1
  6
ByLayer
 10
7.5
 20
192.5
 30
0.0
 40
2.3999999999999999
  0
CIRCLE
  5
C4
100
AcDbEntity
100
AcDbCircle
  8
Layer 4
 62
256
370
-1
  6
ByLayer
 10
7.5
 20
150.0
 30
0.0
 40
2.3999999999999999
  0
CIRCLE
  5
C5
100
AcDbEntity
100
AcDbCircle
  8
Layer 4
 62
256
370
-1
  6
ByLayer
 10
7.5
 20
107.5
 30
0.0
 40
2.3999999999999999
  0
CIRCLE
  5
C6
100
AcDbEntity
100
AcDbCircle
  8
Layer 4
 62
256
370
-1
  6
ByLayer
 10
92.4999999999999858
 20
107.5
 30
0.0
 40
2.3999999999999999
  0
CIRCLE
  5
C7
100
AcDbEntity
100
AcDbCircle
  8
Layer 4
 62
256
370
-1
  6
ByLayer
 10
92.5
 20
150.0
 30
0.0
 40
2.3999999999999999
  0
CIRCLE
  5
C8
100
AcDbEntity
100
AcDbCircle
  8
Layer 4
 62
256
370
-1
  6
ByLayer
 10
49.9999850054043904
 20
134.7798160249545276
 30
0.0
 40
32.5
  0
CIRCLE
  5
C9
100
AcDbEntity
100
AcDbCircle
  8
Layer 4
 62
256
370
-1
  6
ByLayer
 10
31.4999999999999964
 20
104.0
 30
0.0
 40
1.4299999999999999
  0
CIRCLE
  5
CA
100
AcDbEntity
100
AcDbCircle
  8
Layer 4
 62
256
370
-1
  6
ByLayer
 10
68.4999999999999858
 20
104.0
 30
0.0
 40
1.4299999999999999
  0
CIRCLE
  5
CB
100
AcDbEntity
100
AcDbCircle
  8
Layer 5
 62
256
370
-1
  6
ByLayer
 10
149.9999850054043975
 20
182.6731265266268736
 30
0.0
 40
4.8250000000000002
  0
CIRCLE
  5
CC
100
AcDbEntity
100
AcDbCircle
  8
Layer 5
 62
256
370
-1
  6
ByLayer
 10
169.4999850054045112
 20
191.473126526627027
 30
0.0
 40
1.4299999999999999
  0
CIRCLE
  5
CD
100
AcDbEntity
100
AcDbCircle
  8
Layer 5
 62
256
370
-1
  6
ByLayer
 10
169.4999850054044259
 20
173.8731265266269475
 30
0.0
 40
1.4299999999999999
  0
ARC
  5
CE
100
AcDbEntity
  8
Layer 5
 62
256
370
-1
  6
ByLayer
100
AcDbCircle
 10
198.0000000000000284
 20
101.9999999999997868
 30
0.0
 40
2.0
100
AcDbArc
 50
270.0
 51
0.0
  0
ARC
  5
CF
100
AcDbEntity
  8
Layer 5
 62
256
370
-1
  6
ByLayer
100
AcDbCircle
 10
198.0
 20
198.0000000000002274
 30
0.0
 40
2.0
100
AcDbArc
 50
0.0
 51
90.0
  0
ARC
  5
D0
100
AcDbEntity
  8
Layer 5
 62
256
370
-1
  6
ByLayer
100
AcDbCircle
 10
102.0
 20
197.999999999999801
 30
0.0
 40
2.0
100
AcDbArc
 50
90.0
 51
180.0
  0
LINE
  5
D1
100
AcDbEntity
100
AcDbLine
  8
Layer 5
 62
256
370
-1
  6
ByLayer
 10
100.0000000000000142
 20
197.999999999999801
 30
0.0
 11
99.9999999999999716
 21
101.999999999999801
 31
0.0
  0
ARC
  5
D2
100
AcDbEntity
  8
Layer 5
 62
256
370
-1
  6
ByLayer
100
AcDbCircle
 10
101.9999999999999858
 20
101.9999999999997868
 30
0.0
 40
2.0
100
AcDbArc
 50
180.0
 51
270.0
  0
MTEXT
  5
D3
100
AcDbEntity
100
AcDbMText
  8
Layer 5 Text
 62
256
370
-1
  6
ByLayer
 10
110.0000000000000284
 20
182.999999999999801
 30
0.0
 40
3.0
 41
100.0
 71
1
 72
2
  1
Layer\~5
  7
standard
 50
0.0
 73
1
 44
1.0
  0
CIRCLE
  5
D4
100
AcDbEntity
100
AcDbCircle
  8
Layer 5
 62
256
370
-1
  6
ByLayer
 10
107.5000000000000142
 20
192.499999999999801
 30
0.0
 40
2.3999999999999999
  0
CIRCLE
  5
D5
100
AcDbEntity
100
AcDbCircle
  8
Layer 5
 62
256
370
-1
  6
ByLayer
 10
107.4999999999999858
 20
150.0
 30
0.0
 40
2.3999999999999999
  0
CIRCLE
  5
D6
100
AcDbEntity
100
AcDbCircle
  8
Layer 5
 62
256
370
-1
  6
ByLayer
 10
107.4999999999999432
 20
107.499999999999801
 30
0.0
 40
2.3999999999999999
  0
CIRCLE
  5
D7
100
AcDbEntity
100
AcDbCircle
  8
Layer 5
 62
256
370
-1
  6
ByLayer
 10
192.5
 20
107.4999999999997584
 30
0.0
 40
2.3999999999999999
  0
CIRCLE
  5
D8
100
AcDbEntity
100
AcDbCircle
  8
Layer 5
 62
256
370
-1
  6
ByLayer
 10
192.5
 20
150.0
 30
0.0
 40
2.3999999999999999
  0
MTEXT
  5
D9
100
AcDbEntity
100
AcDbMText
  8
Layer 5 Text
 62
256
370
-1
  6
ByLayer
 10
150.0
 20
101.999999999999801
 30
0.0
 40
2.0
 41
100.0
 71
5
 72
2
  1
Layer\~5
  7
standard
 50
0.0
 73
1
 44
1.0
  0
ARC
  5
DA
100
AcDbEntity
  8
Layer 5
 62
256
370
-1
  6
ByLayer
100
AcDbCircle
 10
149.9999850054043975
 20
134.7798160249543287
 30
0.0
 40
32.5
100
AcDbArc
 50
0.0
 51
180.0
  0
LINE
  5
DB
100
AcDbEntity
100
AcDbLine
  8
Layer 5
 62
256
370
-1
  6
ByLayer
 10
126.9997196385934615
 20
113.9954999896291099
 30
0.0
 11
126.9997196385934757
 21
99.9999999999997726
 31
0.0
  0
LINE
  5
DC
100
AcDbEntity
100
AcDbLine
  8
Layer 5
 62
256
370
-1
  6
ByLayer
 10
117.4999850054043975
 20
134.7798160249543287
 30
0.0
 11
117.4999850054043975
 21
99.9999999999998153
 31
0.0
  0
LINE
  5
DD
100
AcDbEntity
100
AcDbLine
  8
Layer 5
 62
256
370
-1
  6
ByLayer
 10
117.4999850054043975
 20
99.9999999999998153
 30
0.0
 11
102.0
 21
99.999999999999801
 31
0.0
  0
LINE
  5
DE
100
AcDbEntity
100
AcDbLine
  8
Layer 5
 62
256
370
-1
  6
ByLayer
 10
172.9999850054043975
 20
113.9952063341277864
 30
0.0
 11
172.9999850054043975
 21
99.999999999999801
 31
0.0
  0
ARC
  5
DF
100
AcDbEntity
  8
Layer 5
 62
256
370
-1
  6
ByLayer
100
AcDbCircle
 10
149.9999850054043975
 20
134.7798160249543287
 30
0.0
 40
31.0
100
AcDbArc
 50
222.1027173436243629
 51
317.8965511292541919
  0
LINE
  5
E0
100
AcDbEntity
100
AcDbLine
  8
Layer 5
 62
256
370
-1
  6
ByLayer
 10
182.4997196385934615
 20
99.9999999999997868
 30
0.0
 11
197.9999999999999716
 21
99.9999999999997442
 31
0.0
  0
LINE
  5
E1
100
AcDbEntity
100
AcDbLine
  8
Layer 5
 62
256
370
-1
  6
ByLayer
 10
182.4999850054044259
 20
134.7798160249543287
 30
0.0
 11
182.4997196385934615
 21
99.9999999999997868
 31
0.0
  0
CIRCLE
  5
E2
100
AcDbEntity
100
AcDbCircle
  8
Layer 5
 62
256
370
-1
  6
ByLayer
 10
131.5
 20
103.999999999999801
 30
0.0
 40
1.4299999999999999
  0
CIRCLE
  5
E3
100
AcDbEntity
100
AcDbCircle
  8
Layer 5
 62
256
370
-1
  6
ByLayer
 10
168.5
 20
103.999999999999801
 30
0.0
 40
1.4299999999999999
  0
ARC
  5
E4
100
AcDbEntity
  8
Layer 6
 62
256
370
-1
  6
ByLayer
100
AcDbCircle
 10
298.0
 20
198.0
 30
0.0
 40
2.0
100
AcDbArc
 50
0.0
 51
90.0
  0
LINE
  5
E5
100
AcDbEntity
100
AcDbLine
  8
Layer 6
 62
256
370
-1
  6
ByLayer
 10
298.0
 20
200.0
 30
0.0
 11
202.0
 21
200.0
 31
0.0
  0
ARC
  5
E6
100
AcDbEntity
  8
Layer 6
 62
256
370
-1
  6
ByLayer
100
AcDbCircle
 10
202.0
 20
198.0
 30
0.0
 40
2.0
100
AcDbArc
 50
90.0
 51
180.0
  0
LINE
  5
E7
100
AcDbEntity
100
AcDbLine
  8
Layer 6
 62
256
370
-1
  6
ByLayer
 10
200.0
 20
198.0
 30
0.0
 11
200.0
 21
102.0000000000000284
 31
0.0
  0
ARC
  5
E8
100
AcDbEntity
  8
Layer 6
 62
256
370
-1
  6
ByLayer
100
AcDbCircle
 10
202.0
 20
102.0000000000000142
 30
0.0
 40
2.0
100
AcDbArc
 50
180.0
 51
270.0
  0
LINE
  5
E9
100
AcDbEntity
100
AcDbLine
  8
Layer 6
 62
256
370
-1
  6
ByLayer
 10
300.0
 20
101.9999999999999858
 30
0.0
 11
300.0
 21
198.0
 31
0.0
  0
ARC
  5
EA
100
AcDbEntity
  8
Layer 6
 62
256
370
-1
  6
ByLayer
100
AcDbCircle
 10
298.0
 20
102.0
 30
0.0
 40
2.0
100
AcDbArc
 50
270.0
 51
0.0
  0
MTEXT
  5
EB
100
AcDbEntity
100
AcDbMText
  8
Layer 6 Text
 62
256
370
-1
  6
ByLayer
 10
210.0
 20
183.0
 30
0.0
 40
3.0
 41
100.0
 71
1
 72
2
  1
Layer\~6
  7
standard
 50
0.0
 73
1
 44
1.0
  0
CIRCLE
  5
EC
100
AcDbEntity
100
AcDbCircle
  8
Layer 6
 62
256
370
-1
  6
ByLayer
 10
269.4999850054044828
 20
191.4731265266271976
 30
0.0
 40
1.4299999999999999
  0
CIRCLE
  5
ED
100
AcDbEntity
100
AcDbCircle
  8
Layer 6
 62
256
370
-1
  6
ByLayer
 10
269.4999850054044259
 20
173.8731265266271464
 30
0.0
 40
1.4299999999999999
  0
CIRCLE
  5
EE
100
AcDbEntity
100
AcDbCircle
  8
Layer 6
 62
256
370
-1
  6
ByLayer
 10
207.5
 20
192.5
 30
0.0
 40
2.3999999999999999
  0
CIRCLE
  5
EF
100
AcDbEntity
100
AcDbCircle
  8
Layer 6
 62
256
370
-1
  6
ByLayer
 10
207.5
 20
150.0
 30
0.0
 40
2.3999999999999999
  0
CIRCLE
  5
F0
100
AcDbEntity
100
AcDbCircle
  8
Layer 6
 62
256
370
-1
  6
ByLayer
 10
207.5
 20
107.5
 30
0.0
 40
2.3999999999999999
  0
CIRCLE
  5
F1
100
AcDbEntity
100
AcDbCircle
  8
Layer 6
 62
256
370
-1
  6
ByLayer
 10
292.5
 20
107.5
 30
0.0
 40
2.3999999999999999
  0
CIRCLE
  5
F2
100
AcDbEntity
100
AcDbCircle
  8
Layer 6
 62
256
370
-1
  6
ByLayer
 10
292.5
 20
150.0
 30
0.0
 40
2.3999999999999999
  0
MTEXT
  5
F3
100
AcDbEntity
100
AcDbMText
  8
Layer 6 Text
 62
256
370
-1
  6
ByLayer
 10
250.0
 20
102.0
 30
0.0
 40
2.0
 41
100.0
 71
5
 72
2
  1
Layer\~6
  7
standard
 50
0.0
 73
1
 44
1.0
  0
ARC
  5
F4
100
AcDbEntity
  8
Layer 6
 62
256
370
-1
  6
ByLayer
100
AcDbCircle
 10
249.9999850054043975
 20
134.7798160249545276
 30
0.0
 40
32.5
100
AcDbArc
 50
0.0
 51
180.0
  0
ARC
  5
F5
100
AcDbEntity
  8
Layer 6
 62
256
370
-1
  6
ByLayer
100
AcDbCircle
 10
249.9999850054043975
 20
134.7798160249545276
 30
0.0
 40
31.0
100
AcDbArc
 50
222.1027173436243629
 51
316.5359765016618212
  0
LINE
  5
F6
100
AcDbEntity
100
AcDbLine
  8
Layer 6
 62
256
370
-1
  6
ByLayer
 10
226.999719638593433
 20
113.9954999896293373
 30
0.0
 11
226.9997196385934615
 21
99.9999999999999858
 31
0.0
  0
LINE
  5
F7
100
AcDbEntity
100
AcDbLine
  8
Layer 6
 62
256
370
-1
  6
ByLayer
 10
272.9999850054044259
 20
113.4549479128184117
 30
0.0
 11
272.9999850054044259
 21
100.0000000000000142
 31
0.0
  0
LINE
  5
F8
100
AcDbEntity
100
AcDbLine
  8
Layer 6
 62
256
370
-1
  6
ByLayer
 10
226.9997196385934615
 20
99.9999999999999858
 30
0.0
 11
272.9999850054044259
 21
100.0000000000000142
 31
0.0
  0
LINE
  5
F9
100
AcDbEntity
100
AcDbLine
  8
Layer 6
 62
256
370
-1
  6
ByLayer
 10
282.499719638593433
 20
100.0
 30
0.0
 11
298.0
 21
100.0
 31
0.0
  0
LINE
  5
FA
100
AcDbEntity
100
AcDbLine
  8
Layer 6
 62
256
370
-1
  6
ByLayer
 10
282.4999850054043691
 20
134.7798160249544992
 30
0.0
 11
282.499719638593433
 21
100.0
 31
0.0
  0
LINE
  5
FB
100
AcDbEntity
100
AcDbLine
  8
Layer 6
 62
256
370
-1
  6
ByLayer
 10
217.4999850054043975
 20
134.779816024954556
 30
0.0
 11
217.4999850054043975
 21
100.0000000000000284
 31
0.0
  0
LINE
  5
FC
100
AcDbEntity
100
AcDbLine
  8
Layer 6
 62
256
370
-1
  6
ByLayer
 10
202.0
 20
100.0000000000000284
 30
0.0
 11
217.4999850054043975
 21
100.0000000000000284
 31
0.0
  0
CIRCLE
  5
FD
100
AcDbEntity
100
AcDbCircle
  8
Layer 6
 62
256
370
-1
  6
ByLayer
 10
231.5
 20
104.0
 30
0.0
 40
1.4299999999999999
  0
CIRCLE
  5
FE
100
AcDbEntity
100
AcDbCircle
  8
Layer 6
 62
256
370
-1
  6
ByLayer
 10
268.5
 20
104.0
 30
0.0
 40
1.4299999999999999
  0
CIRCLE
  5
FF
100
AcDbEntity
100
AcDbCircle
  8
Layer 7
 62
256
370
-1
  6
ByLayer
 10
69.4999850054044543
 20
91.4731265266271834
 30
0.0
 40
1.4299999999999999
  0
CIRCLE
  5
100
100
AcDbEntity
100
AcDbCircle
  8
Layer 7
 62
256
370
-1
  6
ByLayer
 10
69.4999850054044259
 20
73.8731265266271464
 30
0.0
 40
1.4299999999999999
  0
CIRCLE
  5
101
100
AcDbEntity
100
AcDbCircle
  8
Layer 7
 62
256
370
-1
  6
ByLayer
 10
69.4999850054044543
 20
91.4731265266271834
 30
0.0
 40
1.4299999999999999
  0
CIRCLE
  5
102
100
AcDbEntity
100
AcDbCircle
  8
Layer 7
 62
256
370
-1
  6
ByLayer
 10
69.4999850054044259
 20
73.8731265266271464
 30
0.0
 40
1.4299999999999999
  0
ARC
  5
103
100
AcDbEntity
  8
Layer 7
 62
256
370
-1
  6
ByLayer
100
AcDbCircle
 10
98.0
 20
98.0
 30
0.0
 40
2.0
100
AcDbArc
 50
0.0
 51
90.0
  0
LINE
  5
104
100
AcDbEntity
100
AcDbLine
  8
Layer 7
 62
256
370
-1
  6
ByLayer
 10
98.0
 20
100.0
 30
0.0
 11
1.9999999999999929
 21
100.0
 31
0.0
  0
ARC
  5
105
100
AcDbEntity
  8
Layer 7
 62
256
370
-1
  6
ByLayer
100
AcDbCircle
 10
2.0000000000000071
 20
98.0
 30
0.0
 40
2.0
100
AcDbArc
 50
90.0
 51
180.0
  0
LINE
  5
106
100
AcDbEntity
100
AcDbLine
  8
Layer 7
 62
256
370
-1
  6
ByLayer
 10
0.0000000000000071
 20
98.0000000000000142
 30
0.0
 11
-0.0000000000000071
 21
2.0
 31
0.0
  0
ARC
  5
107
100
AcDbEntity
  8
Layer 7
 62
256
370
-1
  6
ByLayer
100
AcDbCircle
 10
2.0
 20
2.0000000000000142
 30
0.0
 40
2.0
100
AcDbArc
 50
180.0
 51
270.0
  0
LINE
  5
108
100
AcDbEntity
100
AcDbLine
  8
Layer 7
 62
256
370
-1
  6
ByLayer
 10
1.9999999999999787
 20
0.0000000000000142
 30
0.0
 11
98.0
 21
-0.0000000000000071
 31
0.0
  0
ARC
  5
109
100
AcDbEntity
  8
Layer 7
 62
256
370
-1
  6
ByLayer
100
AcDbCircle
 10
97.9999999999999858
 20
1.9999999999999929
 30
0.0
 40
2.0
100
AcDbArc
 50
270.0
 51
0.0
  0
MTEXT
  5
10A
100
AcDbEntity
100
AcDbMText
  8
Layer 7 Text
 62
256
370
-1
  6
ByLayer
 10
10.0
 20
83.0
 30
0.0
 40
3.0
 41
100.0
 71
1
 72
2
  1
Layer\~7
  7
standard
 50
0.0
 73
1
 44
1.0
  0
CIRCLE
  5
10B
100
AcDbEntity
100
AcDbCircle
  8
Layer 7
 62
256
370
-1
  6
ByLayer
 10
49.9999850054043904
 20
34.7798160249545276
 30
0.0
 40
27.0
  0
CIRCLE
  5
10C
100
AcDbEntity
100
AcDbCircle
  8
Layer 7
 62
256
370
-1
  6
ByLayer
 10
92.5
 20
50.0
 30
0.0
 40
4.6200000000000001
  0
CIRCLE
  5
10D
100
AcDbEntity
100
AcDbCircle
  8
Layer 7
 62
256
370
-1
  6
ByLayer
 10
92.5
 20
7.4999999999999858
 30
0.0
 40
4.6200000000000001
  0
CIRCLE
  5
10E
100
AcDbEntity
100
AcDbCircle
  8
Layer 7
 62
256
370
-1
  6
ByLayer
 10
7.4999999999999929
 20
7.5000000000000071
 30
0.0
 40
4.6200000000000001
  0
CIRCLE
  5
10F
100
AcDbEntity
100
AcDbCircle
  8
Layer 7
 62
256
370
-1
  6
ByLayer
 10
7.5
 20
50.0000000000000071
 30
0.0
 40
4.6200000000000001
  0
CIRCLE
  5
110
100
AcDbEntity
100
AcDbCircle
  8
Layer 7
 62
256
370
-1
  6
ByLayer
 10
7.5
 20
92.5
 30
0.0
 40
4.6200000000000001
  0
CIRCLE
  5
111
100
AcDbEntity
100
AcDbCircle
  8
Layer 7
 62
256
370
-1
  6
ByLayer
 10
31.4999999999999929
 20
3.9999999999999929
 30
0.0
 40
3.1800000000000002
  0
CIRCLE
  5
112
100
AcDbEntity
100
AcDbCircle
  8
Layer 7
 62
256
370
-1
  6
ByLayer
 10
68.4999999999999858
 20
3.9999999999999929
 30
0.0
 40
3.1800000000000002
  0
ARC
  5
113
100
AcDbEntity
  8
Layer 8
 62
256
370
-1
  6
ByLayer
100
AcDbCircle
 10
198.0
 20
98.0
 30
0.0
 40
2.0
100
AcDbArc
 50
0.0
 51
90.0
  0
LINE
  5
114
100
AcDbEntity
100
AcDbLine
  8
Layer 8
 62
256
370
-1
  6
ByLayer
 10
200.0
 20
1.9999999999999787
 30
0.0
 11
200.0
 21
98.0
 31
0.0
  0
ARC
  5
115
100
AcDbEntity
  8
Layer 8
 62
256
370
-1
  6
ByLayer
100
AcDbCircle
 10
198.0
 20
1.9999999999999929
 30
0.0
 40
2.0
100
AcDbArc
 50
270.0
 51
0.0
  0
LINE
  5
116
100
AcDbEntity
100
AcDbLine
  8
Layer 8
 62
256
370
-1
  6
ByLayer
 10
101.9999999999999716
 20
0.0000000000000142
 30
0.0
 11
198.0
 21
-0.0000000000000071
 31
0.0
  0
ARC
  5
117
100
AcDbEntity
  8
Layer 8
 62
256
370
-1
  6
ByLayer
100
AcDbCircle
 10
102.0
 20
2.0000000000000142
 30
0.0
 40
2.0
100
AcDbArc
 50
180.0
 51
270.0
  0
LINE
  5
118
100
AcDbEntity
100
AcDbLine
  8
Layer 8
 62
256
370
-1
  6
ByLayer
 10
100.0
 20
98.0000000000000142
 30
0.0
 11
100.0
 21
2.0
 31
0.0
  0
LINE
  5
119
100
AcDbEntity
100
AcDbLine
  8
Layer 8
 62
256
370
-1
  6
ByLayer
 10
198.0
 20
100.0
 30
0.0
 11
102.0
 21
100.0
 31
0.0
  0
ARC
  5
11A
100
AcDbEntity
  8
Layer 8
 62
256
370
-1
  6
ByLayer
100
AcDbCircle
 10
102.0
 20
98.0
 30
0.0
 40
2.0
100
AcDbArc
 50
90.0
 51
180.0
  0
MTEXT
  5
11B
100
AcDbEntity
100
AcDbMText
  8
Layer 8 Text
 62
256
370
-1
  6
ByLayer
 10
110.0
 20
83.0
 30
0.0
 40
3.0
 41
100.0
 71
1
 72
2
  1
Layer\~8
  7
standard
 50
0.0
 73
1
 44
1.0
  0
CIRCLE
  5
11C
100
AcDbEntity
100
AcDbCircle
  8
Layer 8
 62
256
370
-1
  6
ByLayer
 10
149.9999850054043975
 20
34.7798160249545276
 30
0.0
 40
10.9000000000000004
  0
CIRCLE
  5
11D
100
AcDbEntity
100
AcDbCircle
  8
Layer 8
 62
256
370
-1
  6
ByLayer
 10
107.5
 20
92.5
 30
0.0
 40
2.3999999999999999
  0
CIRCLE
  5
11E
100
AcDbEntity
100
AcDbCircle
  8
Layer 8
 62
256
370
-1
  6
ByLayer
 10
107.5
 20
50.0000000000000071
 30
0.0
 40
2.3999999999999999
  0
CIRCLE
  5
11F
100
AcDbEntity
100
AcDbCircle
  8
Layer 8
 62
256
370
-1
  6
ByLayer
 10
107.5
 20
7.5000000000000071
 30
0.0
 40
2.3999999999999999
  0
CIRCLE
  5
120
100
AcDbEntity
100
AcDbCircle
  8
Layer 8
 62
256
370
-1
  6
ByLayer
 10
192.5
 20
7.4999999999999858
 30
0.0
 40
2.3999999999999999
  0
CIRCLE
  5
121
100
AcDbEntity
100
AcDbCircle
  8
Layer 8
 62
256
370
-1
  6
ByLayer
 10
192.5
 20
50.0
 30
0.0
 40
2.3999999999999999
  0
CIRCLE
  5
122
100
AcDbEntity
100
AcDbCircle
  8
Layer 8
 62
256
370
-1
  6
ByLayer
 10
131.5
 20
3.9999999999999929
 30
0.0
 40
1.4299999999999999
  0
CIRCLE
  5
123
100
AcDbEntity
100
AcDbCircle
  8
Layer 8
 62
256
370
-1
  6
ByLayer
 10
168.5
 20
3.9999999999999929
 30
0.0
 40
1.4299999999999999
  0
CIRCLE
  5
124
100
AcDbEntity
100
AcDbCircle
  8
Drive Retainer
 62
256
370
-1
  6
ByLayer
 10
249.9999850054043975
 20
234.7798160249545276
 30
0.0
 40
28.0
  0
CIRCLE
  5
125
100
AcDbEntity
100
AcDbCircle
  8
Drive Retainer
 62
256
370
-1
  6
ByLayer
 10
249.9999850054043975
 20
254.7798160249545276
 30
0.0
 40
1.4299999999999999
  0
CIRCLE
  5
126
100
AcDbEntity
100
AcDbCircle
  8
Drive Retainer
 62
256
370
-1
  6
ByLayer
 10
232.6794769297156051
 20
224.7798160249545276
 30
0.0
 40
1.4299999999999999
  0
CIRCLE
  5
127
100
AcDbEntity
100
AcDbCircle
  8
Drive Retainer
 62
256
370
-1
  6
ByLayer
 10
267.3204930810931614
 20
224.7798160249545276
 30
0.0
 40
1.4299999999999999
  0
MTEXT
  5
128
100
AcDbEntity
100
AcDbMText
  8
Drive Retainer Text
 62
256
370
-1
  6
ByLayer
 10
250.0
 20
247.0
 30
0.0
 40
3.0
 41
100.0
 71
5
 72
2
  1
Drive\~Retainer
  7
standard
 50
0.0
 73
1
 44
1.0
  0
CIRCLE
  5
129
100
AcDbEntity
100
AcDbCircle
  8
Drive Retainer
 62
256
370
-1
  6
ByLayer
 10
249.9999850054043975
 20
234.7798160249545276
 30
0.0
 40
8.0
  0
LINE
  5
12A
100
AcDbEntity
100
AcDbLine
  8
Motor Gear
 62
256
370
-1
  6
ByLayer
 10
64.6194106117353329
 20
135.9570857840379006
 30
0.0
 11
64.986770166550798
 21
135.9866167673471011
 31
0.0
  0
LINE
  5
12B
100
AcDbEntity
100
AcDbLine
  8
Motor Gear
 62
256
370
-1
  6
ByLayer
 10
64.986770166550798
 20
135.9866167673471011
 30
0.0
 11
65.965908571228681
 21
135.8261848563639944
 31
0.0
  0
LINE
  5
12C
100
AcDbEntity
100
AcDbLine
  8
Motor Gear
 62
256
370
-1
  6
ByLayer
 10
65.965908571228681
 20
135.8261848563639944
 30
0.0
 11
67.326858478777325
 21
135.2567139842479662
 31
0.0
  0
LINE
  5
12D
100
AcDbEntity
100
AcDbLine
  8
Motor Gear
 62
256
370
-1
  6
ByLayer
 10
67.326858478777325
 20
135.2567139842479662
 30
0.0
 11
67.326858478777325
 21
134.302918065661089
 31
0.0
  0
LINE
  5
12E
100
AcDbEntity
100
AcDbLine
  8
Motor Gear
 62
256
370
-1
  6
ByLayer
 10
67.326858478777325
 20
134.302918065661089
 30
0.0
 11
65.965908571228681
 21
133.733447193545004
 31
0.0
  0
LINE
  5
12F
100
AcDbEntity
100
AcDbLine
  8
Motor Gear
 62
256
370
-1
  6
ByLayer
 10
65.965908571228681
 20
133.733447193545004
 30
0.0
 11
64.986770166550798
 21
133.5730152825618973
 31
0.0
  0
LINE
  5
130
100
AcDbEntity
100
AcDbLine
  8
Motor Gear
 62
256
370
-1
  6
ByLayer
 10
64.986770166550798
 20
133.5730152825618973
 30
0.0
 11
64.6194106117353329
 21
133.6025462658711547
 31
0.0
  0
LINE
  5
131
100
AcDbEntity
100
AcDbLine
  8
Motor Gear
 62
256
370
-1
  6
ByLayer
 10
64.6194106117353329
 20
133.6025462658711547
 30
0.0
 11
64.4260955838615388
 21
132.1331058202641202
 31
0.0
  0
LINE
  5
132
100
AcDbEntity
100
AcDbLine
  8
Motor Gear
 62
256
370
-1
  6
ByLayer
 10
64.4260955838615388
 20
132.1331058202641202
 30
0.0
 11
64.7884295357073938
 21
132.0667124992841082
 31
0.0
  0
LINE
  5
133
100
AcDbEntity
100
AcDbLine
  8
Motor Gear
 62
256
370
-1
  6
ByLayer
 10
64.7884295357073938
 20
132.0667124992841082
 30
0.0
 11
65.6925876064162821
 21
131.6583021095798074
 31
0.0
  0
LINE
  5
134
100
AcDbEntity
100
AcDbLine
  8
Motor Gear
 62
256
370
-1
  6
ByLayer
 10
65.6925876064162821
 20
131.6583021095798074
 30
0.0
 11
66.8600139517682805
 21
130.7560290110420169
 31
0.0
  0
LINE
  5
135
100
AcDbEntity
100
AcDbLine
  8
Motor Gear
 62
256
370
-1
  6
ByLayer
 10
66.8600139517682805
 20
130.7560290110420169
 30
0.0
 11
66.6130825973515641
 21
129.8344868958022289
 31
0.0
  0
LINE
  5
136
100
AcDbEntity
100
AcDbLine
  8
Motor Gear
 62
256
370
-1
  6
ByLayer
 10
66.6130825973515641
 20
129.8344868958022289
 30
0.0
 11
65.1509727639911489
 21
129.6367740942725391
 31
0.0
  0
LINE
  5
137
100
AcDbEntity
100
AcDbLine
  8
Motor Gear
 62
256
370
-1
  6
ByLayer
 10
65.1509727639911489
 20
129.6367740942725391
 30
0.0
 11
64.1636658992000406
 21
129.7352119421616123
 31
0.0
  0
LINE
  5
138
100
AcDbEntity
100
AcDbLine
  8
Motor Gear
 62
256
370
-1
  6
ByLayer
 10
64.1636658992000406
 20
129.7352119421616123
 30
0.0
 11
63.8166217432760945
 21
129.8587822575888993
 31
0.0
  0
LINE
  5
139
100
AcDbEntity
100
AcDbLine
  8
Motor Gear
 62
256
370
-1
  6
ByLayer
 10
63.8166217432760945
 20
129.8587822575888993
 30
0.0
 11
63.2494543962068505
 21
128.4896638899271011
 31
0.0
  0
LINE
  5
13A
100
AcDbEntity
100
AcDbLine
  8
Motor Gear
 62
256
370
-1
  6
ByLayer
 10
63.2494543962068505
 20
128.4896638899271011
 30
0.0
 11
63.5822566226284991
 21
128.3315355039909207
 31
0.0
  0
LINE
  5
13B
100
AcDbEntity
100
AcDbLine
  8
Motor Gear
 62
256
370
-1
  6
ByLayer
 10
63.5822566226284991
 20
128.3315355039909207
 30
0.0
 11
64.3500688677030439
 21
127.7032119416942351
 31
0.0
  0
LINE
  5
13C
100
AcDbEntity
100
AcDbLine
  8
Motor Gear
 62
256
370
-1
  6
ByLayer
 10
64.3500688677030439
 20
127.7032119416942351
 30
0.0
 11
65.2439642296897091
 21
126.5295021084001803
 31
0.0
  0
LINE
  5
13D
100
AcDbEntity
100
AcDbLine
  8
Motor Gear
 62
256
370
-1
  6
ByLayer
 10
65.2439642296897091
 20
126.5295021084001803
 30
0.0
 11
64.7670662703963558
 21
125.7032564681359332
 31
0.0
  0
LINE
  5
13E
100
AcDbEntity
100
AcDbLine
  8
Motor Gear
 62
256
370
-1
  6
ByLayer
 10
64.7670662703963558
 20
125.7032564681359332
 30
0.0
 11
63.3037000362935629
 21
125.8907058188283941
 31
0.0
  0
LINE
  5
13F
100
AcDbEntity
100
AcDbLine
  8
Motor Gear
 62
256
370
-1
  6
ByLayer
 10
63.3037000362935629
 20
125.8907058188283941
 30
0.0
 11
62.37545588023589
 21
126.241310642656714
 31
0.0
  0
LINE
  5
140
100
AcDbEntity
100
AcDbLine
  8
Motor Gear
 62
256
370
-1
  6
ByLayer
 10
62.37545588023589
 20
126.241310642656714
 30
0.0
 11
62.0721846371234705
 21
126.4505425536509904
 31
0.0
  0
LINE
  5
141
100
AcDbEntity
100
AcDbLine
  8
Motor Gear
 62
256
370
-1
  6
ByLayer
 10
62.0721846371234705
 20
126.4505425536509904
 30
0.0
 11
61.1699115385857155
 21
125.2747392138629721
 31
0.0
  0
LINE
  5
142
100
AcDbEntity
100
AcDbLine
  8
Motor Gear
 62
256
370
-1
  6
ByLayer
 10
61.1699115385857155
 20
125.2747392138629721
 30
0.0
 11
61.450562373529678
 21
125.0359763195594383
 31
0.0
  0
LINE
  5
143
100
AcDbEntity
100
AcDbLine
  8
Motor Gear
 62
256
370
-1
  6
ByLayer
 10
61.450562373529678
 20
125.0359763195594383
 30
0.0
 11
62.0294588486164145
 21
124.2302553546246031
 31
0.0
  0
LINE
  5
144
100
AcDbEntity
100
AcDbLine
  8
Motor Gear
 62
256
370
-1
  6
ByLayer
 10
62.0294588486164145
 20
124.2302553546246031
 30
0.0
 11
62.5892955834390676
 21
122.8651162077429149
 31
0.0
  0
LINE
  5
145
100
AcDbEntity
100
AcDbLine
  8
Motor Gear
 62
256
370
-1
  6
ByLayer
 10
62.5892955834390676
 20
122.8651162077429149
 30
0.0
 11
61.9146848226160031
 21
122.1905054469198433
 31
0.0
  0
LINE
  5
146
100
AcDbEntity
100
AcDbLine
  8
Motor Gear
 62
256
370
-1
  6
ByLayer
 10
61.9146848226160031
 20
122.1905054469198433
 30
0.0
 11
60.5495456757343078
 21
122.7503421817424538
 31
0.0
  0
LINE
  5
147
100
AcDbEntity
100
AcDbLine
  8
Motor Gear
 62
256
370
-1
  6
ByLayer
 10
60.5495456757343078
 20
122.7503421817424538
 30
0.0
 11
59.7438247107994798
 21
123.3292386568292613
 31
0.0
  0
LINE
  5
148
100
AcDbEntity
100
AcDbLine
  8
Motor Gear
 62
256
370
-1
  6
ByLayer
 10
59.7438247107994798
 20
123.3292386568292613
 30
0.0
 11
59.5050618164959175
 21
123.6098894917732025
 31
0.0
  0
LINE
  5
149
100
AcDbEntity
100
AcDbLine
  8
Motor Gear
 62
256
370
-1
  6
ByLayer
 10
59.5050618164959175
 20
123.6098894917732025
 30
0.0
 11
58.3292584767078708
 21
122.707616393235412
 31
0.0
  0
LINE
  5
14A
100
AcDbEntity
100
AcDbLine
  8
Motor Gear
 62
256
370
-1
  6
ByLayer
 10
58.3292584767078708
 20
122.707616393235412
 30
0.0
 11
58.5384903877021756
 21
122.4043451501229924
 31
0.0
  0
LINE
  5
14B
100
AcDbEntity
100
AcDbLine
  8
Motor Gear
 62
256
370
-1
  6
ByLayer
 10
58.5384903877021756
 20
122.4043451501229924
 30
0.0
 11
58.8890952115304884
 21
121.476100994065348
 31
0.0
  0
LINE
  5
14C
100
AcDbEntity
100
AcDbLine
  8
Motor Gear
 62
256
370
-1
  6
ByLayer
 10
58.8890952115304884
 20
121.476100994065348
 30
0.0
 11
59.0765445622229635
 21
120.0127347599625409
 31
0.0
  0
LINE
  5
14D
100
AcDbEntity
100
AcDbLine
  8
Motor Gear
 62
256
370
-1
  6
ByLayer
 10
59.0765445622229635
 20
120.0127347599625409
 30
0.0
 11
58.2502989219587022
 21
119.5358368006691592
 31
0.0
  0
LINE
  5
14E
100
AcDbEntity
100
AcDbLine
  8
Motor Gear
 62
256
370
-1
  6
ByLayer
 10
58.2502989219587022
 20
119.5358368006691592
 30
0.0
 11
57.0765890886646545
 21
120.4297321626558386
 31
0.0
  0
LINE
  5
14F
100
AcDbEntity
100
AcDbLine
  8
Motor Gear
 62
256
370
-1
  6
ByLayer
 10
57.0765890886646545
 20
120.4297321626558386
 30
0.0
 11
56.4482655263680044
 21
121.1975444077303905
 31
0.0
  0
LINE
  5
150
100
AcDbEntity
100
AcDbLine
  8
Motor Gear
 62
256
370
-1
  6
ByLayer
 10
56.4482655263680044
 20
121.1975444077303905
 30
0.0
 11
56.2901371404318169
 21
121.5303466341520391
 31
0.0
  0
LINE
  5
151
100
AcDbEntity
100
AcDbLine
  8
Motor Gear
 62
256
370
-1
  6
ByLayer
 10
56.2901371404318169
 20
121.5303466341520391
 30
0.0
 11
54.9210187727699832
 21
120.9631792870828377
 31
0.0
  0
LINE
  5
152
100
AcDbEntity
100
AcDbLine
  8
Motor Gear
 62
256
370
-1
  6
ByLayer
 10
54.9210187727699832
 20
120.9631792870828377
 30
0.0
 11
55.0445890881972701
 21
120.6161351311588419
 31
0.0
  0
LINE
  5
153
100
AcDbEntity
100
AcDbLine
  8
Motor Gear
 62
256
370
-1
  6
ByLayer
 10
55.0445890881972701
 20
120.6161351311588419
 30
0.0
 11
55.1430269360863434
 21
119.6288282663677478
 31
0.0
  0
LINE
  5
154
100
AcDbEntity
100
AcDbLine
  8
Motor Gear
 62
256
370
-1
  6
ByLayer
 10
55.1430269360863434
 20
119.6288282663677478
 30
0.0
 11
54.9453141345566252
 21
118.166718433007361
 31
0.0
  0
LINE
  5
155
100
AcDbEntity
100
AcDbLine
  8
Motor Gear
 62
256
370
-1
  6
ByLayer
 10
54.9453141345566252
 20
118.166718433007361
 30
0.0
 11
54.0237720193168656
 21
117.9197870785906304
 31
0.0
  0
LINE
  5
156
100
AcDbEntity
100
AcDbLine
  8
Motor Gear
 62
256
370
-1
  6
ByLayer
 10
54.0237720193168656
 20
117.9197870785906304
 30
0.0
 11
53.1214989207790822
 21
119.0872134239426288
 31
0.0
  0
LINE
  5
157
100
AcDbEntity
100
AcDbLine
  8
Motor Gear
 62
256
370
-1
  6
ByLayer
 10
53.1214989207790822
 20
119.0872134239426288
 30
0.0
 11
52.7130885310747743
 21
119.9913714946515029
 31
0.0
  0
LINE
  5
158
100
AcDbEntity
100
AcDbLine
  8
Motor Gear
 62
256
370
-1
  6
ByLayer
 10
52.7130885310747743
 20
119.9913714946515029
 30
0.0
 11
52.6466952100947694
 21
120.3537054464973579
 31
0.0
  0
LINE
  5
159
100
AcDbEntity
100
AcDbLine
  8
Motor Gear
 62
256
370
-1
  6
ByLayer
 10
52.6466952100947694
 20
120.3537054464973579
 30
0.0
 11
51.1772547644877847
 21
120.1603904186235923
 31
0.0
  0
LINE
  5
15A
100
AcDbEntity
100
AcDbLine
  8
Motor Gear
 62
256
370
-1
  6
ByLayer
 10
51.1772547644877847
 20
120.1603904186235923
 30
0.0
 11
51.2067857477969497
 21
119.7930308638081272
 31
0.0
  0
LINE
  5
15B
100
AcDbEntity
100
AcDbLine
  8
Motor Gear
 62
256
370
-1
  6
ByLayer
 10
51.2067857477969497
 20
119.7930308638081272
 30
0.0
 11
51.0463538368138856
 21
118.8138924591302441
 31
0.0
  0
LINE
  5
15C
100
AcDbEntity
100
AcDbLine
  8
Motor Gear
 62
256
370
-1
  6
ByLayer
 10
51.0463538368138856
 20
118.8138924591302441
 30
0.0
 11
50.4768829646977437
 21
117.4529425515815859
 31
0.0
  0
LINE
  5
15D
100
AcDbEntity
100
AcDbLine
  8
Motor Gear
 62
256
370
-1
  6
ByLayer
 10
50.4768829646977437
 20
117.4529425515815859
 30
0.0
 11
49.52308704611103
 21
117.4529425515815859
 31
0.0
  0
LINE
  5
15E
100
AcDbEntity
100
AcDbLine
  8
Motor Gear
 62
256
370
-1
  6
ByLayer
 10
49.52308704611103
 20
117.4529425515815859
 30
0.0
 11
48.9536161739948881
 21
118.8138924591302441
 31
0.0
  0
LINE
  5
15F
100
AcDbEntity
100
AcDbLine
  8
Motor Gear
 62
256
370
-1
  6
ByLayer
 10
48.9536161739948881
 20
118.8138924591302441
 30
0.0
 11
48.7931842630118098
 21
119.7930308638081272
 31
0.0
  0
LINE
  5
160
100
AcDbEntity
100
AcDbLine
  8
Motor Gear
 62
256
370
-1
  6
ByLayer
 10
48.7931842630118098
 20
119.7930308638081272
 30
0.0
 11
48.8227152463209961
 21
120.1603904186235923
 31
0.0
  0
LINE
  5
161
100
AcDbEntity
100
AcDbLine
  8
Motor Gear
 62
256
370
-1
  6
ByLayer
 10
48.8227152463209961
 20
120.1603904186235923
 30
0.0
 11
47.3532748007140043
 21
120.3537054464973579
 31
0.0
  0
LINE
  5
162
100
AcDbEntity
100
AcDbLine
  8
Motor Gear
 62
256
370
-1
  6
ByLayer
 10
47.3532748007140043
 20
120.3537054464973579
 30
0.0
 11
47.2868814797340065
 21
119.9913714946515029
 31
0.0
  0
LINE
  5
163
100
AcDbEntity
100
AcDbLine
  8
Motor Gear
 62
256
370
-1
  6
ByLayer
 10
47.2868814797340065
 20
119.9913714946515029
 30
0.0
 11
46.8784710900296631
 21
119.0872134239426288
 31
0.0
  0
LINE
  5
164
100
AcDbEntity
100
AcDbLine
  8
Motor Gear
 62
256
370
-1
  6
ByLayer
 10
46.8784710900296631
 20
119.0872134239426288
 30
0.0
 11
45.976197991491901
 21
117.9197870785906446
 31
0.0
  0
LINE
  5
165
100
AcDbEntity
100
AcDbLine
  8
Motor Gear
 62
256
370
-1
  6
ByLayer
 10
45.976197991491901
 20
117.9197870785906446
 30
0.0
 11
45.054655876252113
 21
118.166718433007361
 31
0.0
  0
LINE
  5
166
100
AcDbEntity
100
AcDbLine
  8
Motor Gear
 62
256
370
-1
  6
ByLayer
 10
45.054655876252113
 20
118.166718433007361
 30
0.0
 11
44.8569430747224018
 21
119.6288282663677478
 31
0.0
  0
LINE
  5
167
100
AcDbEntity
100
AcDbLine
  8
Motor Gear
 62
256
370
-1
  6
ByLayer
 10
44.8569430747224018
 20
119.6288282663677478
 30
0.0
 11
44.955380922611468
 21
120.6161351311588561
 31
0.0
  0
LINE
  5
168
100
AcDbEntity
100
AcDbLine
  8
Motor Gear
 62
256
370
-1
  6
ByLayer
 10
44.955380922611468
 20
120.6161351311588561
 30
0.0
 11
45.078951238038762
 21
120.9631792870828377
 31
0.0
  0
LINE
  5
169
100
AcDbEntity
100
AcDbLine
  8
Motor Gear
 62
256
370
-1
  6
ByLayer
 10
45.078951238038762
 20
120.9631792870828377
 30
0.0
 11
43.7098328703769567
 21
121.5303466341520391
 31
0.0
  0
LINE
  5
16A
100
AcDbEntity
100
AcDbLine
  8
Motor Gear
 62
256
370
-1
  6
ByLayer
 10
43.7098328703769567
 20
121.5303466341520391
 30
0.0
 11
43.5517044844407764
 21
121.1975444077303905
 31
0.0
  0
LINE
  5
16B
100
AcDbEntity
100
AcDbLine
  8
Motor Gear
 62
256
370
-1
  6
ByLayer
 10
43.5517044844407764
 20
121.1975444077303905
 30
0.0
 11
42.9233809221440907
 21
120.4297321626558386
 31
0.0
  0
LINE
  5
16C
100
AcDbEntity
100
AcDbLine
  8
Motor Gear
 62
256
370
-1
  6
ByLayer
 10
42.9233809221440907
 20
120.4297321626558386
 30
0.0
 11
41.749671088850036
 21
119.5358368006691592
 31
0.0
  0
LINE
  5
16D
100
AcDbEntity
100
AcDbLine
  8
Motor Gear
 62
256
370
-1
  6
ByLayer
 10
41.749671088850036
 20
119.5358368006691592
 30
0.0
 11
40.9234254485858102
 21
120.0127347599625409
 31
0.0
  0
LINE
  5
16E
100
AcDbEntity
100
AcDbLine
  8
Motor Gear
 62
256
370
-1
  6
ByLayer
 10
40.9234254485858102
 20
120.0127347599625409
 30
0.0
 11
41.1108747992782497
 21
121.476100994065348
 31
0.0
  0
LINE
  5
16F
100
AcDbEntity
100
AcDbLine
  8
Motor Gear
 62
256
370
-1
  6
ByLayer
 10
41.1108747992782497
 20
121.476100994065348
 30
0.0
 11
41.4614796231065839
 21
122.4043451501229924
 31
0.0
  0
LINE
  5
170
100
AcDbEntity
100
AcDbLine
  8
Motor Gear
 62
256
370
-1
  6
ByLayer
 10
41.4614796231065839
 20
122.4043451501229924
 30
0.0
 11
41.6707115341009029
 21
122.707616393235412
 31
0.0
  0
LINE
  5
171
100
AcDbEntity
100
AcDbLine
  8
Motor Gear
 62
256
370
-1
  6
ByLayer
 10
41.6707115341009029
 20
122.707616393235412
 30
0.0
 11
40.4949081943128348
 21
123.6098894917732025
 31
0.0
  0
LINE
  5
172
100
AcDbEntity
100
AcDbLine
  8
Motor Gear
 62
256
370
-1
  6
ByLayer
 10
40.4949081943128348
 20
123.6098894917732025
 30
0.0
 11
40.2561453000092939
 21
123.3292386568292613
 31
0.0
  0
LINE
  5
173
100
AcDbEntity
100
AcDbLine
  8
Motor Gear
 62
256
370
-1
  6
ByLayer
 10
40.2561453000092939
 20
123.3292386568292613
 30
0.0
 11
39.4504243350744588
 21
122.750342181742468
 31
0.0
  0
LINE
  5
174
100
AcDbEntity
100
AcDbLine
  8
Motor Gear
 62
256
370
-1
  6
ByLayer
 10
39.4504243350744588
 20
122.750342181742468
 30
0.0
 11
38.0852851881927705
 21
122.1905054469198433
 31
0.0
  0
LINE
  5
175
100
AcDbEntity
100
AcDbLine
  8
Motor Gear
 62
256
370
-1
  6
ByLayer
 10
38.0852851881927705
 20
122.1905054469198433
 30
0.0
 11
37.4106744273696705
 21
122.8651162077429149
 31
0.0
  0
LINE
  5
176
100
AcDbEntity
100
AcDbLine
  8
Motor Gear
 62
256
370
-1
  6
ByLayer
 10
37.4106744273696705
 20
122.8651162077429149
 30
0.0
 11
37.9705111621923308
 21
124.2302553546246031
 31
0.0
  0
LINE
  5
177
100
AcDbEntity
100
AcDbLine
  8
Motor Gear
 62
256
370
-1
  6
ByLayer
 10
37.9705111621923308
 20
124.2302553546246031
 30
0.0
 11
38.5494076372790886
 21
125.0359763195594667
 31
0.0
  0
LINE
  5
178
100
AcDbEntity
100
AcDbLine
  8
Motor Gear
 62
256
370
-1
  6
ByLayer
 10
38.5494076372790886
 20
125.0359763195594667
 30
0.0
 11
38.8300584722230653
 21
125.2747392138629721
 31
0.0
  0
LINE
  5
179
100
AcDbEntity
100
AcDbLine
  8
Motor Gear
 62
256
370
-1
  6
ByLayer
 10
38.8300584722230653
 20
125.2747392138629721
 30
0.0
 11
37.9277853736853032
 21
126.4505425536510188
 31
0.0
  0
LINE
  5
17A
100
AcDbEntity
100
AcDbLine
  8
Motor Gear
 62
256
370
-1
  6
ByLayer
 10
37.9277853736853032
 20
126.4505425536510188
 30
0.0
 11
37.6245141305728481
 21
126.2413106426567424
 31
0.0
  0
LINE
  5
17B
100
AcDbEntity
100
AcDbLine
  8
Motor Gear
 62
256
370
-1
  6
ByLayer
 10
37.6245141305728481
 20
126.2413106426567424
 30
0.0
 11
36.6962699745152037
 21
125.8907058188284225
 31
0.0
  0
LINE
  5
17C
100
AcDbEntity
100
AcDbLine
  8
Motor Gear
 62
256
370
-1
  6
ByLayer
 10
36.6962699745152037
 20
125.8907058188284225
 30
0.0
 11
35.2329037404124037
 21
125.7032564681359474
 31
0.0
  0
LINE
  5
17D
100
AcDbEntity
100
AcDbLine
  8
Motor Gear
 62
256
370
-1
  6
ByLayer
 10
35.2329037404124037
 20
125.7032564681359474
 30
0.0
 11
34.7560057811190433
 21
126.5295021084001803
 31
0.0
  0
LINE
  5
17E
100
AcDbEntity
100
AcDbLine
  8
Motor Gear
 62
256
370
-1
  6
ByLayer
 10
34.7560057811190433
 20
126.5295021084001803
 30
0.0
 11
35.6499011431057156
 21
127.7032119416942351
 31
0.0
  0
LINE
  5
17F
100
AcDbEntity
100
AcDbLine
  8
Motor Gear
 62
256
370
-1
  6
ByLayer
 10
35.6499011431057156
 20
127.7032119416942351
 30
0.0
 11
36.4177133881802817
 21
128.3315355039909207
 31
0.0
  0
LINE
  5
180
100
AcDbEntity
100
AcDbLine
  8
Motor Gear
 62
256
370
-1
  6
ByLayer
 10
36.4177133881802817
 20
128.3315355039909207
 30
0.0
 11
36.7505156146019232
 21
128.4896638899271011
 31
0.0
  0
LINE
  5
181
100
AcDbEntity
100
AcDbLine
  8
Motor Gear
 62
256
370
-1
  6
ByLayer
 10
36.7505156146019232
 20
128.4896638899271011
 30
0.0
 11
36.1833482675326863
 21
129.8587822575888993
 31
0.0
  0
LINE
  5
182
100
AcDbEntity
100
AcDbLine
  8
Motor Gear
 62
256
370
-1
  6
ByLayer
 10
36.1833482675326863
 20
129.8587822575888993
 30
0.0
 11
35.8363041116087047
 21
129.7352119421616408
 31
0.0
  0
LINE
  5
183
100
AcDbEntity
100
AcDbLine
  8
Motor Gear
 62
256
370
-1
  6
ByLayer
 10
35.8363041116087047
 20
129.7352119421616408
 30
0.0
 11
34.8489972468176106
 21
129.6367740942725391
 31
0.0
  0
LINE
  5
184
100
AcDbEntity
100
AcDbLine
  8
Motor Gear
 62
256
370
-1
  6
ByLayer
 10
34.8489972468176106
 20
129.6367740942725391
 30
0.0
 11
33.3868874134572167
 21
129.8344868958022289
 31
0.0
  0
LINE
  5
185
100
AcDbEntity
100
AcDbLine
  8
Motor Gear
 62
256
370
-1
  6
ByLayer
 10
33.3868874134572167
 20
129.8344868958022289
 30
0.0
 11
33.1399560590405073
 21
130.7560290110420453
 31
0.0
  0
LINE
  5
186
100
AcDbEntity
100
AcDbLine
  8
Motor Gear
 62
256
370
-1
  6
ByLayer
 10
33.1399560590405073
 20
130.7560290110420453
 30
0.0
 11
34.3073824043925057
 21
131.6583021095798358
 31
0.0
  0
LINE
  5
187
100
AcDbEntity
100
AcDbLine
  8
Motor Gear
 62
256
370
-1
  6
ByLayer
 10
34.3073824043925057
 20
131.6583021095798358
 30
0.0
 11
35.2115404751013941
 21
132.0667124992841082
 31
0.0
  0
LINE
  5
188
100
AcDbEntity
100
AcDbLine
  8
Motor Gear
 62
256
370
-1
  6
ByLayer
 10
35.2115404751013941
 20
132.0667124992841082
 30
0.0
 11
35.5738744269472349
 21
132.1331058202641486
 31
0.0
  0
LINE
  5
189
100
AcDbEntity
100
AcDbLine
  8
Motor Gear
 62
256
370
-1
  6
ByLayer
 10
35.5738744269472349
 20
132.1331058202641486
 30
0.0
 11
35.380559399073455
 21
133.6025462658711831
 31
0.0
  0
LINE
  5
18A
100
AcDbEntity
100
AcDbLine
  8
Motor Gear
 62
256
370
-1
  6
ByLayer
 10
35.380559399073455
 20
133.6025462658711831
 30
0.0
 11
35.0131998442579899
 21
133.5730152825618973
 31
0.0
  0
LINE
  5
18B
100
AcDbEntity
100
AcDbLine
  8
Motor Gear
 62
256
370
-1
  6
ByLayer
 10
35.0131998442579899
 20
133.5730152825618973
 30
0.0
 11
34.0340614395800785
 21
133.733447193545004
 31
0.0
  0
LINE
  5
18C
100
AcDbEntity
100
AcDbLine
  8
Motor Gear
 62
256
370
-1
  6
ByLayer
 10
34.0340614395800785
 20
133.733447193545004
 30
0.0
 11
32.6731115320314629
 21
134.302918065661089
 31
0.0
  0
LINE
  5
18D
100
AcDbEntity
100
AcDbLine
  8
Motor Gear
 62
256
370
-1
  6
ByLayer
 10
32.6731115320314629
 20
134.302918065661089
 30
0.0
 11
32.6731115320314629
 21
135.2567139842479662
 31
0.0
  0
LINE
  5
18E
100
AcDbEntity
100
AcDbLine
  8
Motor Gear
 62
256
370
-1
  6
ByLayer
 10
32.6731115320314629
 20
135.2567139842479662
 30
0.0
 11
34.0340614395800785
 21
135.8261848563639944
 31
0.0
  0
LINE
  5
18F
100
AcDbEntity
100
AcDbLine
  8
Motor Gear
 62
256
370
-1
  6
ByLayer
 10
34.0340614395800785
 20
135.8261848563639944
 30
0.0
 11
35.0131998442579899
 21
135.9866167673471011
 31
0.0
  0
LINE
  5
190
100
AcDbEntity
100
AcDbLine
  8
Motor Gear
 62
256
370
-1
  6
ByLayer
 10
35.0131998442579899
 20
135.9866167673471011
 30
0.0
 11
35.380559399073455
 21
135.957085784037929
 31
0.0
  0
LINE
  5
191
100
AcDbEntity
100
AcDbLine
  8
Motor Gear
 62
256
370
-1
  6
ByLayer
 10
35.380559399073455
 20
135.957085784037929
 30
0.0
 11
35.5738744269472349
 21
137.426526229644935
 31
0.0
  0
LINE
  5
192
100
AcDbEntity
100
AcDbLine
  8
Motor Gear
 62
256
370
-1
  6
ByLayer
 10
35.5738744269472349
 20
137.426526229644935
 30
0.0
 11
35.2115404751013941
 21
137.4929195506249187
 31
0.0
  0
LINE
  5
193
100
AcDbEntity
100
AcDbLine
  8
Motor Gear
 62
256
370
-1
  6
ByLayer
 10
35.2115404751013941
 20
137.4929195506249187
 30
0.0
 11
34.3073824043925057
 21
137.9013299403292194
 31
0.0
  0
LINE
  5
194
100
AcDbEntity
100
AcDbLine
  8
Motor Gear
 62
256
370
-1
  6
ByLayer
 10
34.3073824043925057
 20
137.9013299403292194
 30
0.0
 11
33.1399560590405073
 21
138.8036030388669815
 31
0.0
  0
LINE
  5
195
100
AcDbEntity
100
AcDbLine
  8
Motor Gear
 62
256
370
-1
  6
ByLayer
 10
33.1399560590405073
 20
138.8036030388669815
 30
0.0
 11
33.3868874134572238
 21
139.7251451541067979
 31
0.0
  0
LINE
  5
196
100
AcDbEntity
100
AcDbLine
  8
Motor Gear
 62
256
370
-1
  6
ByLayer
 10
33.3868874134572238
 20
139.7251451541067979
 30
0.0
 11
34.8489972468176106
 21
139.9228579556364878
 31
0.0
  0
LINE
  5
197
100
AcDbEntity
100
AcDbLine
  8
Motor Gear
 62
256
370
-1
  6
ByLayer
 10
34.8489972468176106
 20
139.9228579556364878
 30
0.0
 11
35.8363041116087047
 21
139.8244201077474145
 31
0.0
  0
LINE
  5
198
100
AcDbEntity
100
AcDbLine
  8
Motor Gear
 62
256
370
-1
  6
ByLayer
 10
35.8363041116087047
 20
139.8244201077474145
 30
0.0
 11
36.1833482675326863
 21
139.700849792320156
 31
0.0
  0
LINE
  5
199
100
AcDbEntity
100
AcDbLine
  8
Motor Gear
 62
256
370
-1
  6
ByLayer
 10
36.1833482675326863
 20
139.700849792320156
 30
0.0
 11
36.7505156146019303
 21
141.0699681599819542
 31
0.0
  0
LINE
  5
19A
100
AcDbEntity
100
AcDbLine
  8
Motor Gear
 62
256
370
-1
  6
ByLayer
 10
36.7505156146019303
 20
141.0699681599819542
 30
0.0
 11
36.4177133881802817
 21
141.2280965459181346
 31
0.0
  0
LINE
  5
19B
100
AcDbEntity
100
AcDbLine
  8
Motor Gear
 62
256
370
-1
  6
ByLayer
 10
36.4177133881802817
 20
141.2280965459181346
 30
0.0
 11
35.6499011431057156
 21
141.8564201082147918
 31
0.0
  0
LINE
  5
19C
100
AcDbEntity
100
AcDbLine
  8
Motor Gear
 62
256
370
-1
  6
ByLayer
 10
35.6499011431057156
 20
141.8564201082147918
 30
0.0
 11
34.7560057811190504
 21
143.0301299415088749
 31
0.0
  0
LINE
  5
19D
100
AcDbEntity
100
AcDbLine
  8
Motor Gear
 62
256
370
-1
  6
ByLayer
 10
34.7560057811190504
 20
143.0301299415088749
 30
0.0
 11
35.2329037404124037
 21
143.8563755817731078
 31
0.0
  0
LINE
  5
19E
100
AcDbEntity
100
AcDbLine
  8
Motor Gear
 62
256
370
-1
  6
ByLayer
 10
35.2329037404124037
 20
143.8563755817731078
 30
0.0
 11
36.6962699745152108
 21
143.6689262310806328
 31
0.0
  0
LINE
  5
19F
100
AcDbEntity
100
AcDbLine
  8
Motor Gear
 62
256
370
-1
  6
ByLayer
 10
36.6962699745152108
 20
143.6689262310806328
 30
0.0
 11
37.6245141305728552
 21
143.3183214072523128
 31
0.0
  0
LINE
  5
1A0
100
AcDbEntity
100
AcDbLine
  8
Motor Gear
 62
256
370
-1
  6
ByLayer
 10
37.6245141305728552
 20
143.3183214072523128
 30
0.0
 11
37.9277853736853032
 21
143.109089496258008
 31
0.0
  0
LINE
  5
1A1
100
AcDbEntity
100
AcDbLine
  8
Motor Gear
 62
256
370
-1
  6
ByLayer
 10
37.9277853736853032
 20
143.109089496258008
 30
0.0
 11
38.8300584722230653
 21
144.2848928360460548
 31
0.0
  0
LINE
  5
1A2
100
AcDbEntity
100
AcDbLine
  8
Motor Gear
 62
256
370
-1
  6
ByLayer
 10
38.8300584722230653
 20
144.2848928360460548
 30
0.0
 11
38.5494076372790957
 21
144.5236557303495886
 31
0.0
  0
LINE
  5
1A3
100
AcDbEntity
100
AcDbLine
  8
Motor Gear
 62
256
370
-1
  6
ByLayer
 10
38.5494076372790957
 20
144.5236557303495886
 30
0.0
 11
37.9705111621923592
 21
145.3293766952844521
 31
0.0
  0
LINE
  5
1A4
100
AcDbEntity
100
AcDbLine
  8
Motor Gear
 62
256
370
-1
  6
ByLayer
 10
37.9705111621923592
 20
145.3293766952844521
 30
0.0
 11
37.4106744273696776
 21
146.694515842166112
 31
0.0
  0
LINE
  5
1A5
100
AcDbEntity
100
AcDbLine
  8
Motor Gear
 62
256
370
-1
  6
ByLayer
 10
37.4106744273696776
 20
146.694515842166112
 30
0.0
 11
38.0852851881927705
 21
147.3691266029891835
 31
0.0
  0
LINE
  5
1A6
100
AcDbEntity
100
AcDbLine
  8
Motor Gear
 62
256
370
-1
  6
ByLayer
 10
38.0852851881927705
 20
147.3691266029891835
 30
0.0
 11
39.4504243350744659
 21
146.8092898681665872
 31
0.0
  0
LINE
  5
1A7
100
AcDbEntity
100
AcDbLine
  8
Motor Gear
 62
256
370
-1
  6
ByLayer
 10
39.4504243350744659
 20
146.8092898681665872
 30
0.0
 11
40.2561453000093294
 21
146.2303933930797655
 31
0.0
  0
LINE
  5
1A8
100
AcDbEntity
100
AcDbLine
  8
Motor Gear
 62
256
370
-1
  6
ByLayer
 10
40.2561453000093294
 20
146.2303933930797655
 30
0.0
 11
40.4949081943128348
 21
145.9497425581358243
 31
0.0
  0
LINE
  5
1A9
100
AcDbEntity
100
AcDbLine
  8
Motor Gear
 62
256
370
-1
  6
ByLayer
 10
40.4949081943128348
 20
145.9497425581358243
 30
0.0
 11
41.67071153410091
 21
146.8520156566736148
 31
0.0
  0
LINE
  5
1AA
100
AcDbEntity
100
AcDbLine
  8
Motor Gear
 62
256
370
-1
  6
ByLayer
 10
41.67071153410091
 20
146.8520156566736148
 30
0.0
 11
41.4614796231065768
 21
147.1552868997860344
 31
0.0
  0
LINE
  5
1AB
100
AcDbEntity
100
AcDbLine
  8
Motor Gear
 62
256
370
-1
  6
ByLayer
 10
41.4614796231065768
 20
147.1552868997860344
 30
0.0
 11
41.1108747992782568
 21
148.0835310558436788
 31
0.0
  0
LINE
  5
1AC
100
AcDbEntity
100
AcDbLine
  8
Motor Gear
 62
256
370
-1
  6
ByLayer
 10
41.1108747992782568
 20
148.0835310558436788
 30
0.0
 11
40.9234254485858102
 21
149.5468972899464859
 31
0.0
  0
LINE
  5
1AD
100
AcDbEntity
100
AcDbLine
  8
Motor Gear
 62
256
370
-1
  6
ByLayer
 10
40.9234254485858102
 20
149.5468972899464859
 30
0.0
 11
41.7496710888500431
 21
150.0237952492398676
 31
0.0
  0
LINE
  5
1AE
100
AcDbEntity
100
AcDbLine
  8
Motor Gear
 62
256
370
-1
  6
ByLayer
 10
41.7496710888500431
 20
150.0237952492398676
 30
0.0
 11
42.9233809221441263
 21
149.1298998872532025
 31
0.0
  0
LINE
  5
1AF
100
AcDbEntity
100
AcDbLine
  8
Motor Gear
 62
256
370
-1
  6
ByLayer
 10
42.9233809221441263
 20
149.1298998872532025
 30
0.0
 11
43.5517044844407835
 21
148.3620876421786363
 31
0.0
  0
LINE
  5
1B0
100
AcDbEntity
100
AcDbLine
  8
Motor Gear
 62
256
370
-1
  6
ByLayer
 10
43.5517044844407835
 20
148.3620876421786363
 30
0.0
 11
43.7098328703769639
 21
148.0292854157569877
 31
0.0
  0
LINE
  5
1B1
100
AcDbEntity
100
AcDbLine
  8
Motor Gear
 62
256
370
-1
  6
ByLayer
 10
43.7098328703769639
 20
148.0292854157569877
 30
0.0
 11
45.0789512380387904
 21
148.5964527628262033
 31
0.0
  0
LINE
  5
1B2
100
AcDbEntity
100
AcDbLine
  8
Motor Gear
 62
256
370
-1
  6
ByLayer
 10
45.0789512380387904
 20
148.5964527628262033
 30
0.0
 11
44.9553809226114751
 21
148.9434969187501849
 31
0.0
  0
LINE
  5
1B3
100
AcDbEntity
100
AcDbLine
  8
Motor Gear
 62
256
370
-1
  6
ByLayer
 10
44.9553809226114751
 20
148.9434969187501849
 30
0.0
 11
44.8569430747224018
 21
149.930803783541279
 31
0.0
  0
LINE
  5
1B4
100
AcDbEntity
100
AcDbLine
  8
Motor Gear
 62
256
370
-1
  6
ByLayer
 10
44.8569430747224018
 20
149.930803783541279
 30
0.0
 11
45.0546558762521201
 21
151.3929136169016942
 31
0.0
  0
LINE
  5
1B5
100
AcDbEntity
100
AcDbLine
  8
Motor Gear
 62
256
370
-1
  6
ByLayer
 10
45.0546558762521201
 20
151.3929136169016942
 30
0.0
 11
45.9761979914919081
 21
151.6398449713184107
 31
0.0
  0
LINE
  5
1B6
100
AcDbEntity
100
AcDbLine
  8
Motor Gear
 62
256
370
-1
  6
ByLayer
 10
45.9761979914919081
 20
151.6398449713184107
 30
0.0
 11
46.8784710900296702
 21
150.4724186259664123
 31
0.0
  0
LINE
  5
1B7
100
AcDbEntity
100
AcDbLine
  8
Motor Gear
 62
256
370
-1
  6
ByLayer
 10
46.8784710900296702
 20
150.4724186259664123
 30
0.0
 11
47.2868814797339709
 21
149.5682605552575524
 31
0.0
  0
LINE
  5
1B8
100
AcDbEntity
100
AcDbLine
  8
Motor Gear
 62
256
370
-1
  6
ByLayer
 10
47.2868814797339709
 20
149.5682605552575524
 30
0.0
 11
47.3532748007140114
 21
149.2059266034116831
 31
0.0
  0
LINE
  5
1B9
100
AcDbEntity
100
AcDbLine
  8
Motor Gear
 62
256
370
-1
  6
ByLayer
 10
47.3532748007140114
 20
149.2059266034116831
 30
0.0
 11
48.822715246320989
 21
149.399241631285463
 31
0.0
  0
LINE
  5
1BA
100
AcDbEntity
100
AcDbLine
  8
Motor Gear
 62
256
370
-1
  6
ByLayer
 10
48.822715246320989
 20
149.399241631285463
 30
0.0
 11
48.7931842630118169
 21
149.7666011861008997
 31
0.0
  0
LINE
  5
1BB
100
AcDbEntity
100
AcDbLine
  8
Motor Gear
 62
256
370
-1
  6
ByLayer
 10
48.7931842630118169
 20
149.7666011861008997
 30
0.0
 11
48.9536161739948952
 21
150.7457395907787827
 31
0.0
  0
LINE
  5
1BC
100
AcDbEntity
100
AcDbLine
  8
Motor Gear
 62
256
370
-1
  6
ByLayer
 10
48.9536161739948952
 20
150.7457395907787827
 30
0.0
 11
49.5230870461110371
 21
152.1066894983274551
 31
0.0
  0
LINE
  5
1BD
100
AcDbEntity
100
AcDbLine
  8
Motor Gear
 62
256
370
-1
  6
ByLayer
 10
49.5230870461110371
 20
152.1066894983274551
 30
0.0
 11
50.4768829646977437
 21
152.1066894983274551
 31
0.0
  0
LINE
  5
1BE
100
AcDbEntity
100
AcDbLine
  8
Motor Gear
 62
256
370
-1
  6
ByLayer
 10
50.4768829646977437
 20
152.1066894983274551
 30
0.0
 11
51.0463538368138856
 21
150.7457395907787827
 31
0.0
  0
LINE
  5
1BF
100
AcDbEntity
100
AcDbLine
  8
Motor Gear
 62
256
370
-1
  6
ByLayer
 10
51.0463538368138856
 20
150.7457395907787827
 30
0.0
 11
51.2067857477969639
 21
149.7666011861008997
 31
0.0
  0
LINE
  5
1C0
100
AcDbEntity
100
AcDbLine
  8
Motor Gear
 62
256
370
-1
  6
ByLayer
 10
51.2067857477969639
 20
149.7666011861008997
 30
0.0
 11
51.1772547644877633
 21
149.399241631285463
 31
0.0
  0
LINE
  5
1C1
100
AcDbEntity
100
AcDbLine
  8
Motor Gear
 62
256
370
-1
  6
ByLayer
 10
51.1772547644877633
 20
149.399241631285463
 30
0.0
 11
52.6466952100947694
 21
149.2059266034116831
 31
0.0
  0
LINE
  5
1C2
100
AcDbEntity
100
AcDbLine
  8
Motor Gear
 62
256
370
-1
  6
ByLayer
 10
52.6466952100947694
 20
149.2059266034116831
 30
0.0
 11
52.7130885310747814
 21
149.5682605552575524
 31
0.0
  0
LINE
  5
1C3
100
AcDbEntity
100
AcDbLine
  8
Motor Gear
 62
256
370
-1
  6
ByLayer
 10
52.7130885310747814
 20
149.5682605552575524
 30
0.0
 11
53.1214989207791106
 21
150.4724186259664123
 31
0.0
  0
LINE
  5
1C4
100
AcDbEntity
100
AcDbLine
  8
Motor Gear
 62
256
370
-1
  6
ByLayer
 10
53.1214989207791106
 20
150.4724186259664123
 30
0.0
 11
54.0237720193168727
 21
151.6398449713184107
 31
0.0
  0
LINE
  5
1C5
100
AcDbEntity
100
AcDbLine
  8
Motor Gear
 62
256
370
-1
  6
ByLayer
 10
54.0237720193168727
 20
151.6398449713184107
 30
0.0
 11
54.9453141345566323
 21
151.3929136169016942
 31
0.0
  0
LINE
  5
1C6
100
AcDbEntity
100
AcDbLine
  8
Motor Gear
 62
256
370
-1
  6
ByLayer
 10
54.9453141345566323
 20
151.3929136169016942
 30
0.0
 11
55.1430269360863505
 21
149.930803783541279
 31
0.0
  0
LINE
  5
1C7
100
AcDbEntity
100
AcDbLine
  8
Motor Gear
 62
256
370
-1
  6
ByLayer
 10
55.1430269360863505
 20
149.930803783541279
 30
0.0
 11
55.0445890881973057
 21
148.9434969187501849
 31
0.0
  0
LINE
  5
1C8
100
AcDbEntity
100
AcDbLine
  8
Motor Gear
 62
256
370
-1
  6
ByLayer
 10
55.0445890881973057
 20
148.9434969187501849
 30
0.0
 11
54.9210187727699903
 21
148.5964527628262033
 31
0.0
  0
LINE
  5
1C9
100
AcDbEntity
100
AcDbLine
  8
Motor Gear
 62
256
370
-1
  6
ByLayer
 10
54.9210187727699903
 20
148.5964527628262033
 30
0.0
 11
56.2901371404318169
 21
148.0292854157569877
 31
0.0
  0
LINE
  5
1CA
100
AcDbEntity
100
AcDbLine
  8
Motor Gear
 62
256
370
-1
  6
ByLayer
 10
56.2901371404318169
 20
148.0292854157569877
 30
0.0
 11
56.4482655263679973
 21
148.3620876421786363
 31
0.0
  0
LINE
  5
1CB
100
AcDbEntity
100
AcDbLine
  8
Motor Gear
 62
256
370
-1
  6
ByLayer
 10
56.4482655263679973
 20
148.3620876421786363
 30
0.0
 11
57.0765890886646829
 21
149.1298998872532025
 31
0.0
  0
LINE
  5
1CC
100
AcDbEntity
100
AcDbLine
  8
Motor Gear
 62
256
370
-1
  6
ByLayer
 10
57.0765890886646829
 20
149.1298998872532025
 30
0.0
 11
58.2502989219587377
 21
150.0237952492398676
 31
0.0
  0
LINE
  5
1CD
100
AcDbEntity
100
AcDbLine
  8
Motor Gear
 62
256
370
-1
  6
ByLayer
 10
58.2502989219587377
 20
150.0237952492398676
 30
0.0
 11
59.0765445622229706
 21
149.5468972899464859
 31
0.0
  0
LINE
  5
1CE
100
AcDbEntity
100
AcDbLine
  8
Motor Gear
 62
256
370
-1
  6
ByLayer
 10
59.0765445622229706
 20
149.5468972899464859
 30
0.0
 11
58.8890952115304955
 21
148.0835310558437072
 31
0.0
  0
LINE
  5
1CF
100
AcDbEntity
100
AcDbLine
  8
Motor Gear
 62
256
370
-1
  6
ByLayer
 10
58.8890952115304955
 20
148.0835310558437072
 30
0.0
 11
58.538490387702204
 21
147.1552868997860344
 31
0.0
  0
LINE
  5
1D0
100
AcDbEntity
100
AcDbLine
  8
Motor Gear
 62
256
370
-1
  6
ByLayer
 10
58.538490387702204
 20
147.1552868997860344
 30
0.0
 11
58.3292584767078708
 21
146.8520156566736148
 31
0.0
  0
LINE
  5
1D1
100
AcDbEntity
100
AcDbLine
  8
Motor Gear
 62
256
370
-1
  6
ByLayer
 10
58.3292584767078708
 20
146.8520156566736148
 30
0.0
 11
59.5050618164959175
 21
145.9497425581358243
 31
0.0
  0
LINE
  5
1D2
100
AcDbEntity
100
AcDbLine
  8
Motor Gear
 62
256
370
-1
  6
ByLayer
 10
59.5050618164959175
 20
145.9497425581358243
 30
0.0
 11
59.7438247107994513
 21
146.2303933930797939
 31
0.0
  0
LINE
  5
1D3
100
AcDbEntity
100
AcDbLine
  8
Motor Gear
 62
256
370
-1
  6
ByLayer
 10
59.7438247107994513
 20
146.2303933930797939
 30
0.0
 11
60.5495456757343149
 21
146.8092898681665872
 31
0.0
  0
LINE
  5
1D4
100
AcDbEntity
100
AcDbLine
  8
Motor Gear
 62
256
370
-1
  6
ByLayer
 10
60.5495456757343149
 20
146.8092898681665872
 30
0.0
 11
61.9146848226160031
 21
147.3691266029891835
 31
0.0
  0
LINE
  5
1D5
100
AcDbEntity
100
AcDbLine
  8
Motor Gear
 62
256
370
-1
  6
ByLayer
 10
61.9146848226160031
 20
147.3691266029891835
 30
0.0
 11
62.5892955834390747
 21
146.694515842166112
 31
0.0
  0
LINE
  5
1D6
100
AcDbEntity
100
AcDbLine
  8
Motor Gear
 62
256
370
-1
  6
ByLayer
 10
62.5892955834390747
 20
146.694515842166112
 30
0.0
 11
62.02945884861645
 21
145.3293766952844521
 31
0.0
  0
LINE
  5
1D7
100
AcDbEntity
100
AcDbLine
  8
Motor Gear
 62
256
370
-1
  6
ByLayer
 10
62.02945884861645
 20
145.3293766952844521
 30
0.0
 11
61.4505623735296851
 21
144.5236557303495886
 31
0.0
  0
LINE
  5
1D8
100
AcDbEntity
100
AcDbLine
  8
Motor Gear
 62
256
370
-1
  6
ByLayer
 10
61.4505623735296851
 20
144.5236557303495886
 30
0.0
 11
61.1699115385857155
 21
144.2848928360460548
 31
0.0
  0
LINE
  5
1D9
100
AcDbEntity
100
AcDbLine
  8
Motor Gear
 62
256
370
-1
  6
ByLayer
 10
61.1699115385857155
 20
144.2848928360460548
 30
0.0
 11
62.0721846371234776
 21
143.1090894962580364
 31
0.0
  0
LINE
  5
1DA
100
AcDbEntity
100
AcDbLine
  8
Motor Gear
 62
256
370
-1
  6
ByLayer
 10
62.0721846371234776
 20
143.1090894962580364
 30
0.0
 11
62.3754558802358972
 21
143.3183214072523128
 31
0.0
  0
LINE
  5
1DB
100
AcDbEntity
100
AcDbLine
  8
Motor Gear
 62
256
370
-1
  6
ByLayer
 10
62.3754558802358972
 20
143.3183214072523128
 30
0.0
 11
63.30370003629357
 21
143.6689262310806328
 31
0.0
  0
LINE
  5
1DC
100
AcDbEntity
100
AcDbLine
  8
Motor Gear
 62
256
370
-1
  6
ByLayer
 10
63.30370003629357
 20
143.6689262310806328
 30
0.0
 11
64.7670662703963558
 21
143.8563755817731078
 31
0.0
  0
LINE
  5
1DD
100
AcDbEntity
100
AcDbLine
  8
Motor Gear
 62
256
370
-1
  6
ByLayer
 10
64.7670662703963558
 20
143.8563755817731078
 30
0.0
 11
65.2439642296897091
 21
143.0301299415088749
 31
0.0
  0
LINE
  5
1DE
100
AcDbEntity
100
AcDbLine
  8
Motor Gear
 62
256
370
-1
  6
ByLayer
 10
65.2439642296897091
 20
143.0301299415088749
 30
0.0
 11
64.3500688677030439
 21
141.8564201082147918
 31
0.0
  0
LINE
  5
1DF
100
AcDbEntity
100
AcDbLine
  8
Motor Gear
 62
256
370
-1
  6
ByLayer
 10
64.3500688677030439
 20
141.8564201082147918
 30
0.0
 11
63.5822566226284991
 21
141.2280965459181346
 31
0.0
  0
LINE
  5
1E0
100
AcDbEntity
100
AcDbLine
  8
Motor Gear
 62
256
370
-1
  6
ByLayer
 10
63.5822566226284991
 20
141.2280965459181346
 30
0.0
 11
63.2494543962068505
 21
141.0699681599819542
 31
0.0
  0
LINE
  5
1E1
100
AcDbEntity
100
AcDbLine
  8
Motor Gear
 62
256
370
-1
  6
ByLayer
 10
63.2494543962068505
 20
141.0699681599819542
 30
0.0
 11
63.8166217432760945
 21
139.700849792320156
 31
0.0
  0
LINE
  5
1E2
100
AcDbEntity
100
AcDbLine
  8
Motor Gear
 62
256
370
-1
  6
ByLayer
 10
63.8166217432760945
 20
139.700849792320156
 30
0.0
 11
64.1636658992000548
 21
139.8244201077474145
 31
0.0
  0
LINE
  5
1E3
100
AcDbEntity
100
AcDbLine
  8
Motor Gear
 62
256
370
-1
  6
ByLayer
 10
64.1636658992000548
 20
139.8244201077474145
 30
0.0
 11
65.1509727639911489
 21
139.9228579556364878
 31
0.0
  0
LINE
  5
1E4
100
AcDbEntity
100
AcDbLine
  8
Motor Gear
 62
256
370
-1
  6
ByLayer
 10
65.1509727639911489
 20
139.9228579556364878
 30
0.0
 11
66.6130825973515641
 21
139.7251451541067979
 31
0.0
  0
LINE
  5
1E5
100
AcDbEntity
100
AcDbLine
  8
Motor Gear
 62
256
370
-1
  6
ByLayer
 10
66.6130825973515641
 20
139.7251451541067979
 30
0.0
 11
66.8600139517682805
 21
138.8036030388669815
 31
0.0
  0
LINE
  5
1E6
100
AcDbEntity
100
AcDbLine
  8
Motor Gear
 62
256
370
-1
  6
ByLayer
 10
66.8600139517682805
 20
138.8036030388669815
 30
0.0
 11
65.6925876064162821
 21
137.9013299403292194
 31
0.0
  0
LINE
  5
1E7
100
AcDbEntity
100
AcDbLine
  8
Motor Gear
 62
256
370
-1
  6
ByLayer
 10
65.6925876064162821
 20
137.9013299403292194
 30
0.0
 11
64.7884295357073938
 21
137.4929195506249187
 31
0.0
  0
LINE
  5
1E8
100
AcDbEntity
100
AcDbLine
  8
Motor Gear
 62
256
370
-1
  6
ByLayer
 10
64.7884295357073938
 20
137.4929195506249187
 30
0.0
 11
64.426095583861553
 21
137.426526229644935
 31
0.0
  0
LINE
  5
1E9
100
AcDbEntity
100
AcDbLine
  8
Motor Gear
 62
256
370
-1
  6
ByLayer
 10
64.426095583861553
 20
137.426526229644935
 30
0.0
 11
64.6194106117353329
 21
135.9570857840379006
 31
0.0
  0
LINE
  5
1EA
100
AcDbEntity
100
AcDbLine
  8
Motor Gear
 62
256
370
-1
  6
ByLayer
 10
52.5405604933541426
 20
136.9248160249545094
 30
0.0
 11
47.4593795282634474
 21
136.9248160249545094
 31
0.0
  0
ARC
  5
1EB
100
AcDbEntity
  8
Motor Gear
 62
256
370
-1
  6
ByLayer
100
AcDbCircle
 10
49.9999700108087879
 20
134.7798160249545276
 30
0.0
 40
3.3250000000000002
100
AcDbArc
 50
319.8258680010101784
 51
40.1741319989898216
  0
ARC
  5
1EC
100
AcDbEntity
  8
Motor Gear
 62
256
370
-1
  6
ByLayer
100
AcDbCircle
 10
49.9999700108087879
 20
134.7798160249545276
 30
0.0
 40
3.3250000000000002
100
AcDbArc
 50
139.8258680010101784
 51
220.1741319989898216
  0
LINE
  5
1ED
100
AcDbEntity
100
AcDbLine
  8
Motor Gear
 62
256
370
-1
  6
ByLayer
 10
52.5405604933541426
 20
132.634816024954489
 30
0.0
 11
47.4593795282634332
 21
132.6348160249545174
 31
0.0
  0
MTEXT
  5
1EE
100
AcDbEntity
100
AcDbMText
  8
Motor Gear Text
 62
256
370
-1
  6
ByLayer
 10
49.9999850054043904
 20
130.1066894983274551
 30
0.0
 40
3.0
 41
100.0
 71
5
 72
2
  1
Motor\~Gear
  7
standard
 50
0.0
 73
1
 44
1.0
  0
LINE
  5
1EF
100
AcDbEntity
100
AcDbLine
  8
Rotor Gear
 62
256
370
-1
  6
ByLayer
 10
280.6358241257846657
 20
51.3800089056977143
 30
0.0
 11
281.9831606752596826
 21
51.0469974028381728
 31
0.0
  0
LINE
  5
1F0
100
AcDbEntity
100
AcDbLine
  8
Rotor Gear
 62
256
370
-1
  6
ByLayer
 10
281.9831606752596826
 20
51.0469974028381728
 30
0.0
 11
283.3296593768680509
 21
50.5152259741444141
 31
0.0
  0
LINE
  5
1F1
100
AcDbEntity
100
AcDbLine
  8
Rotor Gear
 62
256
370
-1
  6
ByLayer
 10
283.3296593768680509
 20
50.5152259741444141
 30
0.0
 11
283.3296593768680509
 21
49.4847740258555859
 31
0.0
  0
LINE
  5
1F2
100
AcDbEntity
100
AcDbLine
  8
Rotor Gear
 62
256
370
-1
  6
ByLayer
 10
283.3296593768680509
 20
49.4847740258555859
 30
0.0
 11
281.9831606752596826
 21
48.9530025971618272
 31
0.0
  0
LINE
  5
1F3
100
AcDbEntity
100
AcDbLine
  8
Rotor Gear
 62
256
370
-1
  6
ByLayer
 10
281.9831606752596826
 20
48.9530025971618272
 30
0.0
 11
280.6358241257846657
 21
48.6199910943022715
 31
0.0
  0
LINE
  5
1F4
100
AcDbEntity
100
AcDbLine
  8
Rotor Gear
 62
256
370
-1
  6
ByLayer
 10
280.6358241257846657
 20
48.6199910943022715
 30
0.0
 11
280.5539324745598719
 21
47.3694166969830377
 31
0.0
  0
LINE
  5
1F5
100
AcDbEntity
100
AcDbLine
  8
Rotor Gear
 62
256
370
-1
  6
ByLayer
 10
280.5539324745598719
 20
47.3694166969830377
 30
0.0
 11
281.8461862781965692
 21
46.863406307256291
 31
0.0
  0
LINE
  5
1F6
100
AcDbEntity
100
AcDbLine
  8
Rotor Gear
 62
256
370
-1
  6
ByLayer
 10
281.8461862781965692
 20
46.863406307256291
 30
0.0
 11
283.1118397107696865
 21
46.1605209638664746
 31
0.0
  0
LINE
  5
1F7
100
AcDbEntity
100
AcDbLine
  8
Rotor Gear
 62
256
370
-1
  6
ByLayer
 10
283.1118397107696865
 20
46.1605209638664746
 30
0.0
 11
282.9771695808685763
 21
45.1386567706815001
 31
0.0
  0
LINE
  5
1F8
100
AcDbEntity
100
AcDbLine
  8
Rotor Gear
 62
256
370
-1
  6
ByLayer
 10
282.9771695808685763
 20
45.1386567706815001
 30
0.0
 11
281.5728653133842272
 21
44.7872140989865883
 31
0.0
  0
LINE
  5
1F9
100
AcDbEntity
100
AcDbLine
  8
Rotor Gear
 62
256
370
-1
  6
ByLayer
 10
281.5728653133842272
 20
44.7872140989865883
 30
0.0
 11
280.1936935134380633
 21
44.6328556573926036
 31
0.0
  0
LINE
  5
1FA
100
AcDbEntity
100
AcDbLine
  8
Rotor Gear
 62
256
370
-1
  6
ByLayer
 10
280.1936935134380633
 20
44.6328556573926036
 30
0.0
 11
279.9492757026211507
 21
43.4038538018223932
 31
0.0
  0
LINE
  5
1FB
100
AcDbEntity
100
AcDbLine
  8
Rotor Gear
 62
256
370
-1
  6
ByLayer
 10
279.9492757026211507
 20
43.4038538018223932
 30
0.0
 11
281.1642449051269637
 21
42.7334322803323872
 31
0.0
  0
LINE
  5
1FC
100
AcDbEntity
100
AcDbLine
  8
Rotor Gear
 62
256
370
-1
  6
ByLayer
 10
281.1642449051269637
 20
42.7334322803323872
 30
0.0
 11
282.3272727347080036
 21
41.8713714267018275
 31
0.0
  0
LINE
  5
1FD
100
AcDbEntity
100
AcDbLine
  8
Rotor Gear
 62
256
370
-1
  6
ByLayer
 10
282.3272727347080036
 20
41.8713714267018275
 30
0.0
 11
282.0606538107134611
 21
40.8758968439125638
 31
0.0
  0
LINE
  5
1FE
100
AcDbEntity
100
AcDbLine
  8
Rotor Gear
 62
256
370
-1
  6
ByLayer
 10
282.0606538107134611
 20
40.8758968439125638
 30
0.0
 11
280.6224200441488961
 21
40.7108571407206483
 31
0.0
  0
LINE
  5
1FF
100
AcDbEntity
100
AcDbLine
  8
Rotor Gear
 62
256
370
-1
  6
ByLayer
 10
280.6224200441488961
 20
40.7108571407206483
 30
0.0
 11
279.2348712497666838
 21
40.7378753225450225
 31
0.0
  0
LINE
  5
200
100
AcDbEntity
100
AcDbLine
  8
Rotor Gear
 62
256
370
-1
  6
ByLayer
 10
279.2348712497666838
 20
40.7378753225450225
 30
0.0
 11
278.8319057580227991
 21
39.5511807026060467
 31
0.0
  0
LINE
  5
201
100
AcDbEntity
100
AcDbLine
  8
Rotor Gear
 62
256
370
-1
  6
ByLayer
 10
278.8319057580227991
 20
39.5511807026060467
 30
0.0
 11
279.9492757026212075
 21
38.7278664167023834
 31
0.0
  0
LINE
  5
202
100
AcDbEntity
100
AcDbLine
  8
Rotor Gear
 62
256
370
-1
  6
ByLayer
 10
279.9492757026212075
 20
38.7278664167023834
 30
0.0
 11
280.9897803410793813
 21
37.7212912773242977
 31
0.0
  0
LINE
  5
203
100
AcDbEntity
100
AcDbLine
  8
Rotor Gear
 62
256
370
-1
  6
ByLayer
 10
280.9897803410793813
 20
37.7212912773242977
 30
0.0
 11
280.5954018623244792
 21
36.7691710544707746
 31
0.0
  0
LINE
  5
204
100
AcDbEntity
100
AcDbLine
  8
Rotor Gear
 62
256
370
-1
  6
ByLayer
 10
280.5954018623244792
 20
36.7691710544707746
 30
0.0
 11
279.1479532534572741
 21
36.7932563977045533
 31
0.0
  0
LINE
  5
205
100
AcDbEntity
100
AcDbLine
  8
Rotor Gear
 62
256
370
-1
  6
ByLayer
 10
279.1479532534572741
 20
36.7932563977045533
 30
0.0
 11
277.7756935128819009
 21
37.0010226315185875
 31
0.0
  0
LINE
  5
206
100
AcDbEntity
100
AcDbLine
  8
Rotor Gear
 62
256
370
-1
  6
ByLayer
 10
277.7756935128819009
 20
37.0010226315185875
 30
0.0
 11
277.221511694572655
 21
35.8773699410931783
 31
0.0
  0
LINE
  5
207
100
AcDbEntity
100
AcDbLine
  8
Rotor Gear
 62
256
370
-1
  6
ByLayer
 10
277.221511694572655
 20
35.8773699410931783
 30
0.0
 11
278.2218033460086417
 21
34.9151962859553393
 31
0.0
  0
LINE
  5
208
100
AcDbEntity
100
AcDbLine
  8
Rotor Gear
 62
256
370
-1
  6
ByLayer
 10
278.2218033460086417
 20
34.9151962859553393
 30
0.0
 11
279.1219821959373917
 21
33.7814901632456284
 31
0.0
  0
LINE
  5
209
100
AcDbEntity
100
AcDbLine
  8
Rotor Gear
 62
256
370
-1
  6
ByLayer
 10
279.1219821959373917
 20
33.7814901632456284
 30
0.0
 11
278.6067562217929208
 21
32.888851202001355
 31
0.0
  0
LINE
  5
20A
100
AcDbEntity
100
AcDbLine
  8
Rotor Gear
 62
256
370
-1
  6
ByLayer
 10
278.6067562217929208
 20
32.888851202001355
 30
0.0
 11
277.1748059431704405
 21
33.1016430387849852
 31
0.0
  0
LINE
  5
20B
100
AcDbEntity
100
AcDbLine
  8
Rotor Gear
 62
256
370
-1
  6
ByLayer
 10
277.1748059431704405
 20
33.1016430387849852
 30
0.0
 11
275.8412927703219566
 21
33.4868059331221701
 31
0.0
  0
LINE
  5
20C
100
AcDbEntity
100
AcDbLine
  8
Rotor Gear
 62
256
370
-1
  6
ByLayer
 10
275.8412927703219566
 20
33.4868059331221701
 30
0.0
 11
275.1453194863028671
 21
32.4450448939215264
 31
0.0
  0
LINE
  5
20D
100
AcDbEntity
100
AcDbLine
  8
Rotor Gear
 62
256
370
-1
  6
ByLayer
 10
275.1453194863028671
 20
32.4450448939215264
 30
0.0
 11
276.0113595607135721
 21
31.3605573240988456
 31
0.0
  0
LINE
  5
20E
100
AcDbEntity
100
AcDbLine
  8
Rotor Gear
 62
256
370
-1
  6
ByLayer
 10
276.0113595607135721
 20
31.3605573240988456
 30
0.0
 11
276.7559235683060024
 21
30.1189892347594537
 31
0.0
  0
LINE
  5
20F
100
AcDbEntity
100
AcDbLine
  8
Rotor Gear
 62
256
370
-1
  6
ByLayer
 10
276.7559235683060024
 20
30.1189892347594537
 30
0.0
 11
276.1284371117609453
 21
29.3013298653691763
 31
0.0
  0
LINE
  5
210
100
AcDbEntity
100
AcDbLine
  8
Rotor Gear
 62
256
370
-1
  6
ByLayer
 10
276.1284371117609453
 20
29.3013298653691763
 30
0.0
 11
274.7364898016077746
 21
29.6992682699133965
 31
0.0
  0
LINE
  5
211
100
AcDbEntity
100
AcDbLine
  8
Rotor Gear
 62
256
370
-1
  6
ByLayer
 10
274.7364898016077746
 20
29.6992682699133965
 30
0.0
 11
273.4649714339683442
 21
30.2551257839558794
 31
0.0
  0
LINE
  5
212
100
AcDbEntity
100
AcDbLine
  8
Rotor Gear
 62
256
370
-1
  6
ByLayer
 10
273.4649714339683442
 20
30.2551257839558794
 30
0.0
 11
272.6387250515890628
 21
29.3130589933867149
 31
0.0
  0
LINE
  5
213
100
AcDbEntity
100
AcDbLine
  8
Rotor Gear
 62
256
370
-1
  6
ByLayer
 10
272.6387250515890628
 20
29.3130589933867149
 30
0.0
 11
273.3558523244813045
 21
28.1248979541524093
 31
0.0
  0
LINE
  5
214
100
AcDbEntity
100
AcDbLine
  8
Rotor Gear
 62
256
370
-1
  6
ByLayer
 10
273.3558523244813045
 20
28.1248979541524093
 30
0.0
 11
273.9320252374153029
 21
26.7968304213793935
 31
0.0
  0
LINE
  5
215
100
AcDbEntity
100
AcDbLine
  8
Rotor Gear
 62
256
370
-1
  6
ByLayer
 10
273.9320252374153029
 20
26.7968304213793935
 30
0.0
 11
273.2031695786205887
 21
26.0679747625846936
 31
0.0
  0
LINE
  5
216
100
AcDbEntity
100
AcDbLine
  8
Rotor Gear
 62
256
370
-1
  6
ByLayer
 10
273.2031695786205887
 20
26.0679747625846936
 30
0.0
 11
271.8751020458475978
 21
26.6441476755186777
 31
0.0
  0
LINE
  5
217
100
AcDbEntity
100
AcDbLine
  8
Rotor Gear
 62
256
370
-1
  6
ByLayer
 10
271.8751020458475978
 20
26.6441476755186777
 30
0.0
 11
270.6869410066132673
 21
27.3612749484109337
 31
0.0
  0
LINE
  5
218
100
AcDbEntity
100
AcDbLine
  8
Rotor Gear
 62
256
370
-1
  6
ByLayer
 10
270.6869410066132673
 20
27.3612749484109337
 30
0.0
 11
269.7448742160440815
 21
26.5350285660316025
 31
0.0
  0
LINE
  5
219
100
AcDbEntity
100
AcDbLine
  8
Rotor Gear
 62
256
370
-1
  6
ByLayer
 10
269.7448742160440815
 20
26.5350285660316025
 30
0.0
 11
270.3007317300865679
 21
25.2635101983922254
 31
0.0
  0
LINE
  5
21A
100
AcDbEntity
100
AcDbLine
  8
Rotor Gear
 62
256
370
-1
  6
ByLayer
 10
270.3007317300865679
 20
25.2635101983922254
 30
0.0
 11
270.6986701346307882
 21
23.871562888239044
 31
0.0
  0
LINE
  5
21B
100
AcDbEntity
100
AcDbLine
  8
Rotor Gear
 62
256
370
-1
  6
ByLayer
 10
270.6986701346307882
 20
23.871562888239044
 30
0.0
 11
269.8810107652404895
 21
23.2440764316940083
 31
0.0
  0
LINE
  5
21C
100
AcDbEntity
100
AcDbLine
  8
Rotor Gear
 62
256
370
-1
  6
ByLayer
 10
269.8810107652404895
 20
23.2440764316940083
 30
0.0
 11
268.6394426759011367
 21
23.9886404392864208
 31
0.0
  0
LINE
  5
21D
100
AcDbEntity
100
AcDbLine
  8
Rotor Gear
 62
256
370
-1
  6
ByLayer
 10
268.6394426759011367
 20
23.9886404392864208
 30
0.0
 11
267.5549551060784097
 21
24.8546805136971116
 31
0.0
  0
LINE
  5
21E
100
AcDbEntity
100
AcDbLine
  8
Rotor Gear
 62
256
370
-1
  6
ByLayer
 10
267.5549551060784097
 20
24.8546805136971116
 30
0.0
 11
266.5131940668778157
 21
24.1587072296780256
 31
0.0
  0
LINE
  5
21F
100
AcDbEntity
100
AcDbLine
  8
Rotor Gear
 62
256
370
-1
  6
ByLayer
 10
266.5131940668778157
 20
24.1587072296780256
 30
0.0
 11
266.8983569612149722
 21
22.8251940568295844
 31
0.0
  0
LINE
  5
220
100
AcDbEntity
100
AcDbLine
  8
Rotor Gear
 62
256
370
-1
  6
ByLayer
 10
266.8983569612149722
 20
22.8251940568295844
 30
0.0
 11
267.1111487979986236
 21
21.3932437782071112
 31
0.0
  0
LINE
  5
221
100
AcDbEntity
100
AcDbLine
  8
Rotor Gear
 62
256
370
-1
  6
ByLayer
 10
267.1111487979986236
 20
21.3932437782071112
 30
0.0
 11
266.2185098367543787
 21
20.8780178040626119
 31
0.0
  0
LINE
  5
222
100
AcDbEntity
100
AcDbLine
  8
Rotor Gear
 62
256
370
-1
  6
ByLayer
 10
266.2185098367543787
 20
20.8780178040626119
 30
0.0
 11
265.0848037140445967
 21
21.7781966539913476
 31
0.0
  0
LINE
  5
223
100
AcDbEntity
100
AcDbLine
  8
Rotor Gear
 62
256
370
-1
  6
ByLayer
 10
265.0848037140445967
 20
21.7781966539913476
 30
0.0
 11
264.1226300589067932
 21
22.7784883054273521
 31
0.0
  0
LINE
  5
224
100
AcDbEntity
100
AcDbLine
  8
Rotor Gear
 62
256
370
-1
  6
ByLayer
 10
264.1226300589067932
 20
22.7784883054273521
 30
0.0
 11
262.9989773684814054
 21
22.2243064871180813
 31
0.0
  0
LINE
  5
225
100
AcDbEntity
100
AcDbLine
  8
Rotor Gear
 62
256
370
-1
  6
ByLayer
 10
262.9989773684814054
 20
22.2243064871180813
 30
0.0
 11
263.2067436022954325
 21
20.8520467465427402
 31
0.0
  0
LINE
  5
226
100
AcDbEntity
100
AcDbLine
  8
Rotor Gear
 62
256
370
-1
  6
ByLayer
 10
263.2067436022954325
 20
20.8520467465427402
 30
0.0
 11
263.2308289455291401
 21
19.4045981376754817
 31
0.0
  0
LINE
  5
227
100
AcDbEntity
100
AcDbLine
  8
Rotor Gear
 62
256
370
-1
  6
ByLayer
 10
263.2308289455291401
 20
19.4045981376754817
 30
0.0
 11
262.2787087226756171
 21
19.0102196589205832
 31
0.0
  0
LINE
  5
228
100
AcDbEntity
100
AcDbLine
  8
Rotor Gear
 62
256
370
-1
  6
ByLayer
 10
262.2787087226756171
 20
19.0102196589205832
 30
0.0
 11
261.2721335832975456
 21
20.0507242973788209
 31
0.0
  0
LINE
  5
229
100
AcDbEntity
100
AcDbLine
  8
Rotor Gear
 62
256
370
-1
  6
ByLayer
 10
261.2721335832975456
 20
20.0507242973788209
 30
0.0
 11
260.4488192973939249
 21
21.1680942419771831
 31
0.0
  0
LINE
  5
22A
100
AcDbEntity
100
AcDbLine
  8
Rotor Gear
 62
256
370
-1
  6
ByLayer
 10
260.4488192973939249
 20
21.1680942419771831
 30
0.0
 11
259.2621246774549491
 21
20.7651287502333233
 31
0.0
  0
LINE
  5
22B
100
AcDbEntity
100
AcDbLine
  8
Rotor Gear
 62
256
370
-1
  6
ByLayer
 10
259.2621246774549491
 20
20.7651287502333233
 30
0.0
 11
259.2891428592793659
 21
19.3775799558511004
 31
0.0
  0
LINE
  5
22C
100
AcDbEntity
100
AcDbLine
  8
Rotor Gear
 62
256
370
-1
  6
ByLayer
 10
259.2891428592793659
 20
19.3775799558511004
 30
0.0
 11
259.1241031560874148
 21
17.9393461892865318
 31
0.0
  0
LINE
  5
22D
100
AcDbEntity
100
AcDbLine
  8
Rotor Gear
 62
256
370
-1
  6
ByLayer
 10
259.1241031560874148
 20
17.9393461892865318
 30
0.0
 11
258.1286285732981014
 21
17.6727272652920036
 31
0.0
  0
LINE
  5
22E
100
AcDbEntity
100
AcDbLine
  8
Rotor Gear
 62
256
370
-1
  6
ByLayer
 10
258.1286285732981014
 20
17.6727272652920036
 30
0.0
 11
257.2665677196676484
 21
18.8357550948730541
 31
0.0
  0
LINE
  5
22F
100
AcDbEntity
100
AcDbLine
  8
Rotor Gear
 62
256
370
-1
  6
ByLayer
 10
257.2665677196676484
 20
18.8357550948730541
 30
0.0
 11
256.5961461981775642
 21
20.0507242973788316
 31
0.0
  0
LINE
  5
230
100
AcDbEntity
100
AcDbLine
  8
Rotor Gear
 62
256
370
-1
  6
ByLayer
 10
256.5961461981775642
 20
20.0507242973788316
 30
0.0
 11
255.3671443426073608
 21
19.8063064865619722
 31
0.0
  0
LINE
  5
231
100
AcDbEntity
100
AcDbLine
  8
Rotor Gear
 62
256
370
-1
  6
ByLayer
 10
255.3671443426073608
 20
19.8063064865619722
 30
0.0
 11
255.2127859010133761
 21
18.4271346866158012
 31
0.0
  0
LINE
  5
232
100
AcDbEntity
100
AcDbLine
  8
Rotor Gear
 62
256
370
-1
  6
ByLayer
 10
255.2127859010133761
 20
18.4271346866158012
 30
0.0
 11
254.8613432293184644
 21
17.0228304191314024
 31
0.0
  0
LINE
  5
233
100
AcDbEntity
100
AcDbLine
  8
Rotor Gear
 62
256
370
-1
  6
ByLayer
 10
254.8613432293184644
 20
17.0228304191314024
 30
0.0
 11
253.8394790361335254
 21
16.8881602892302993
 31
0.0
  0
LINE
  5
234
100
AcDbEntity
100
AcDbLine
  8
Rotor Gear
 62
256
370
-1
  6
ByLayer
 10
253.8394790361335254
 20
16.8881602892302993
 30
0.0
 11
253.1365936927436735
 21
18.1538137218033988
 31
0.0
  0
LINE
  5
235
100
AcDbEntity
100
AcDbLine
  8
Rotor Gear
 62
256
370
-1
  6
ByLayer
 10
253.1365936927436735
 20
18.1538137218033988
 30
0.0
 11
252.6305833030168913
 21
19.4460675254401352
 31
0.0
  0
LINE
  5
236
100
AcDbEntity
100
AcDbLine
  8
Rotor Gear
 62
256
370
-1
  6
ByLayer
 10
252.6305833030168913
 20
19.4460675254401352
 30
0.0
 11
251.3800089056976788
 21
19.3641758742153733
 31
0.0
  0
LINE
  5
237
100
AcDbEntity
100
AcDbLine
  8
Rotor Gear
 62
256
370
-1
  6
ByLayer
 10
251.3800089056976788
 20
19.3641758742153733
 30
0.0
 11
251.0469974028381728
 21
18.01683932474036
 31
0.0
  0
LINE
  5
238
100
AcDbEntity
100
AcDbLine
  8
Rotor Gear
 62
256
370
-1
  6
ByLayer
 10
251.0469974028381728
 20
18.01683932474036
 30
0.0
 11
250.5152259741444425
 21
16.6703406231319491
 31
0.0
  0
LINE
  5
239
100
AcDbEntity
100
AcDbLine
  8
Rotor Gear
 62
256
370
-1
  6
ByLayer
 10
250.5152259741444425
 20
16.6703406231319491
 30
0.0
 11
249.4847740258555291
 21
16.6703406231319491
 31
0.0
  0
LINE
  5
23A
100
AcDbEntity
100
AcDbLine
  8
Rotor Gear
 62
256
370
-1
  6
ByLayer
 10
249.4847740258555291
 20
16.6703406231319491
 30
0.0
 11
248.9530025971617704
 21
18.01683932474036
 31
0.0
  0
LINE
  5
23B
100
AcDbEntity
100
AcDbLine
  8
Rotor Gear
 62
256
370
-1
  6
ByLayer
 10
248.9530025971617704
 20
18.01683932474036
 30
0.0
 11
248.619991094302236
 21
19.3641758742153769
 31
0.0
  0
LINE
  5
23C
100
AcDbEntity
100
AcDbLine
  8
Rotor Gear
 62
256
370
-1
  6
ByLayer
 10
248.619991094302236
 20
19.3641758742153769
 30
0.0
 11
247.3694166969830235
 21
19.4460675254401387
 31
0.0
  0
LINE
  5
23D
100
AcDbEntity
100
AcDbLine
  8
Rotor Gear
 62
256
370
-1
  6
ByLayer
 10
247.3694166969830235
 20
19.4460675254401387
 30
0.0
 11
246.8634063072563265
 21
18.1538137218034024
 31
0.0
  0
LINE
  5
23E
100
AcDbEntity
100
AcDbLine
  8
Rotor Gear
 62
256
370
-1
  6
ByLayer
 10
246.8634063072563265
 20
18.1538137218034024
 30
0.0
 11
246.1605209638664746
 21
16.8881602892302993
 31
0.0
  0
LINE
  5
23F
100
AcDbEntity
100
AcDbLine
  8
Rotor Gear
 62
256
370
-1
  6
ByLayer
 10
246.1605209638664746
 20
16.8881602892302993
 30
0.0
 11
245.1386567706815072
 21
17.0228304191314024
 31
0.0
  0
LINE
  5
240
100
AcDbEntity
100
AcDbLine
  8
Rotor Gear
 62
256
370
-1
  6
ByLayer
 10
245.1386567706815072
 20
17.0228304191314024
 30
0.0
 11
244.7872140989865954
 21
18.4271346866158083
 31
0.0
  0
LINE
  5
241
100
AcDbEntity
100
AcDbLine
  8
Rotor Gear
 62
256
370
-1
  6
ByLayer
 10
244.7872140989865954
 20
18.4271346866158083
 30
0.0
 11
244.6328556573926392
 21
19.8063064865619758
 31
0.0
  0
LINE
  5
242
100
AcDbEntity
100
AcDbLine
  8
Rotor Gear
 62
256
370
-1
  6
ByLayer
 10
244.6328556573926392
 20
19.8063064865619758
 30
0.0
 11
243.403853801822379
 21
20.0507242973788387
 31
0.0
  0
LINE
  5
243
100
AcDbEntity
100
AcDbLine
  8
Rotor Gear
 62
256
370
-1
  6
ByLayer
 10
243.403853801822379
 20
20.0507242973788387
 30
0.0
 11
242.7334322803323801
 21
18.8357550948730577
 31
0.0
  0
LINE
  5
244
100
AcDbEntity
100
AcDbLine
  8
Rotor Gear
 62
256
370
-1
  6
ByLayer
 10
242.7334322803323801
 20
18.8357550948730577
 30
0.0
 11
241.8713714267018418
 21
17.6727272652920036
 31
0.0
  0
LINE
  5
245
100
AcDbEntity
100
AcDbLine
  8
Rotor Gear
 62
256
370
-1
  6
ByLayer
 10
241.8713714267018418
 20
17.6727272652920036
 30
0.0
 11
240.8758968439125852
 21
17.9393461892865389
 31
0.0
  0
LINE
  5
246
100
AcDbEntity
100
AcDbLine
  8
Rotor Gear
 62
256
370
-1
  6
ByLayer
 10
240.8758968439125852
 20
17.9393461892865389
 30
0.0
 11
240.7108571407206057
 21
19.3775799558511039
 31
0.0
  0
LINE
  5
247
100
AcDbEntity
100
AcDbLine
  8
Rotor Gear
 62
256
370
-1
  6
ByLayer
 10
240.7108571407206057
 20
19.3775799558511039
 30
0.0
 11
240.7378753225450509
 21
20.7651287502333268
 31
0.0
  0
LINE
  5
248
100
AcDbEntity
100
AcDbLine
  8
Rotor Gear
 62
256
370
-1
  6
ByLayer
 10
240.7378753225450509
 20
20.7651287502333268
 30
0.0
 11
239.5511807026059898
 21
21.1680942419772045
 31
0.0
  0
LINE
  5
249
100
AcDbEntity
100
AcDbLine
  8
Rotor Gear
 62
256
370
-1
  6
ByLayer
 10
239.5511807026059898
 20
21.1680942419772045
 30
0.0
 11
238.7278664167023976
 21
20.0507242973788316
 31
0.0
  0
LINE
  5
24A
100
AcDbEntity
100
AcDbLine
  8
Rotor Gear
 62
256
370
-1
  6
ByLayer
 10
238.7278664167023976
 20
20.0507242973788316
 30
0.0
 11
237.7212912773242977
 21
19.0102196589206045
 31
0.0
  0
LINE
  5
24B
100
AcDbEntity
100
AcDbLine
  8
Rotor Gear
 62
256
370
-1
  6
ByLayer
 10
237.7212912773242977
 20
19.0102196589206045
 30
0.0
 11
236.7691710544708315
 21
19.4045981376754924
 31
0.0
  0
LINE
  5
24C
100
AcDbEntity
100
AcDbLine
  8
Rotor Gear
 62
256
370
-1
  6
ByLayer
 10
236.7691710544708315
 20
19.4045981376754924
 30
0.0
 11
236.7932563977045675
 21
20.8520467465427437
 31
0.0
  0
LINE
  5
24D
100
AcDbEntity
100
AcDbLine
  8
Rotor Gear
 62
256
370
-1
  6
ByLayer
 10
236.7932563977045675
 20
20.8520467465427437
 30
0.0
 11
237.0010226315185662
 21
22.224306487118092
 31
0.0
  0
LINE
  5
24E
100
AcDbEntity
100
AcDbLine
  8
Rotor Gear
 62
256
370
-1
  6
ByLayer
 10
237.0010226315185662
 20
22.224306487118092
 30
0.0
 11
235.8773699410931215
 21
22.7784883054273735
 31
0.0
  0
LINE
  5
24F
100
AcDbEntity
100
AcDbLine
  8
Rotor Gear
 62
256
370
-1
  6
ByLayer
 10
235.8773699410931215
 20
22.7784883054273735
 30
0.0
 11
234.9151962859553464
 21
21.7781966539913618
 31
0.0
  0
LINE
  5
250
100
AcDbEntity
100
AcDbLine
  8
Rotor Gear
 62
256
370
-1
  6
ByLayer
 10
234.9151962859553464
 20
21.7781966539913618
 30
0.0
 11
233.7814901632456213
 21
20.878017804062619
 31
0.0
  0
LINE
  5
251
100
AcDbEntity
100
AcDbLine
  8
Rotor Gear
 62
256
370
-1
  6
ByLayer
 10
233.7814901632456213
 20
20.878017804062619
 30
0.0
 11
232.8888512020013479
 21
21.3932437782071148
 31
0.0
  0
LINE
  5
252
100
AcDbEntity
100
AcDbLine
  8
Rotor Gear
 62
256
370
-1
  6
ByLayer
 10
232.8888512020013479
 20
21.3932437782071148
 30
0.0
 11
233.1016430387849709
 21
22.8251940568296163
 31
0.0
  0
LINE
  5
253
100
AcDbEntity
100
AcDbLine
  8
Rotor Gear
 62
256
370
-1
  6
ByLayer
 10
233.1016430387849709
 20
22.8251940568296163
 30
0.0
 11
233.4868059331221843
 21
24.1587072296780363
 31
0.0
  0
LINE
  5
254
100
AcDbEntity
100
AcDbLine
  8
Rotor Gear
 62
256
370
-1
  6
ByLayer
 10
233.4868059331221843
 20
24.1587072296780363
 30
0.0
 11
232.4450448939215335
 21
24.8546805136971258
 31
0.0
  0
LINE
  5
255
100
AcDbEntity
100
AcDbLine
  8
Rotor Gear
 62
256
370
-1
  6
ByLayer
 10
232.4450448939215335
 20
24.8546805136971258
 30
0.0
 11
231.3605573240988065
 21
23.9886404392864492
 31
0.0
  0
LINE
  5
256
100
AcDbEntity
100
AcDbLine
  8
Rotor Gear
 62
256
370
-1
  6
ByLayer
 10
231.3605573240988065
 20
23.9886404392864492
 30
0.0
 11
230.1189892347594537
 21
23.2440764316940296
 31
0.0
  0
LINE
  5
257
100
AcDbEntity
100
AcDbLine
  8
Rotor Gear
 62
256
370
-1
  6
ByLayer
 10
230.1189892347594537
 20
23.2440764316940296
 30
0.0
 11
229.301329865369155
 21
23.8715628882390796
 31
0.0
  0
LINE
  5
258
100
AcDbEntity
100
AcDbLine
  8
Rotor Gear
 62
256
370
-1
  6
ByLayer
 10
229.301329865369155
 20
23.8715628882390796
 30
0.0
 11
229.6992682699133468
 21
25.2635101983922645
 31
0.0
  0
LINE
  5
259
100
AcDbEntity
100
AcDbLine
  8
Rotor Gear
 62
256
370
-1
  6
ByLayer
 10
229.6992682699133468
 20
25.2635101983922645
 30
0.0
 11
230.2551257839558616
 21
26.5350285660316345
 31
0.0
  0
LINE
  5
25A
100
AcDbEntity
100
AcDbLine
  8
Rotor Gear
 62
256
370
-1
  6
ByLayer
 10
230.2551257839558616
 20
26.5350285660316345
 30
0.0
 11
229.3130589933867043
 21
27.3612749484109443
 31
0.0
  0
LINE
  5
25B
100
AcDbEntity
100
AcDbLine
  8
Rotor Gear
 62
256
370
-1
  6
ByLayer
 10
229.3130589933867043
 20
27.3612749484109443
 30
0.0
 11
228.1248979541524022
 21
26.644147675518699
 31
0.0
  0
LINE
  5
25C
100
AcDbEntity
100
AcDbLine
  8
Rotor Gear
 62
256
370
-1
  6
ByLayer
 10
228.1248979541524022
 20
26.644147675518699
 30
0.0
 11
226.7968304213794113
 21
26.0679747625846936
 31
0.0
  0
LINE
  5
25D
100
AcDbEntity
100
AcDbLine
  8
Rotor Gear
 62
256
370
-1
  6
ByLayer
 10
226.7968304213794113
 20
26.0679747625846936
 30
0.0
 11
226.0679747625846971
 21
26.7968304213794042
 31
0.0
  0
LINE
  5
25E
100
AcDbEntity
100
AcDbLine
  8
Rotor Gear
 62
256
370
-1
  6
ByLayer
 10
226.0679747625846971
 20
26.7968304213794042
 30
0.0
 11
226.6441476755186955
 21
28.12489795415242
 31
0.0
  0
LINE
  5
25F
100
AcDbEntity
100
AcDbLine
  8
Rotor Gear
 62
256
370
-1
  6
ByLayer
 10
226.6441476755186955
 20
28.12489795415242
 30
0.0
 11
227.3612749484109088
 21
29.3130589933867185
 31
0.0
  0
LINE
  5
260
100
AcDbEntity
100
AcDbLine
  8
Rotor Gear
 62
256
370
-1
  6
ByLayer
 10
227.3612749484109088
 20
29.3130589933867185
 30
0.0
 11
226.5350285660316274
 21
30.2551257839558936
 31
0.0
  0
LINE
  5
261
100
AcDbEntity
100
AcDbLine
  8
Rotor Gear
 62
256
370
-1
  6
ByLayer
 10
226.5350285660316274
 20
30.2551257839558936
 30
0.0
 11
225.2635101983922254
 21
29.6992682699134214
 31
0.0
  0
LINE
  5
262
100
AcDbEntity
100
AcDbLine
  8
Rotor Gear
 62
256
370
-1
  6
ByLayer
 10
225.2635101983922254
 20
29.6992682699134214
 30
0.0
 11
223.8715628882390547
 21
29.3013298653692047
 31
0.0
  0
LINE
  5
263
100
AcDbEntity
100
AcDbLine
  8
Rotor Gear
 62
256
370
-1
  6
ByLayer
 10
223.8715628882390547
 20
29.3013298653692047
 30
0.0
 11
223.2440764316939976
 21
30.1189892347594537
 31
0.0
  0
LINE
  5
264
100
AcDbEntity
100
AcDbLine
  8
Rotor Gear
 62
256
370
-1
  6
ByLayer
 10
223.2440764316939976
 20
30.1189892347594537
 30
0.0
 11
223.9886404392863994
 21
31.3605573240988527
 31
0.0
  0
LINE
  5
265
100
AcDbEntity
100
AcDbLine
  8
Rotor Gear
 62
256
370
-1
  6
ByLayer
 10
223.9886404392863994
 20
31.3605573240988527
 30
0.0
 11
224.8546805136971045
 21
32.4450448939215477
 31
0.0
  0
LINE
  5
266
100
AcDbEntity
100
AcDbLine
  8
Rotor Gear
 62
256
370
-1
  6
ByLayer
 10
224.8546805136971045
 20
32.4450448939215477
 30
0.0
 11
224.158707229678015
 21
33.4868059331221986
 31
0.0
  0
LINE
  5
267
100
AcDbEntity
100
AcDbLine
  8
Rotor Gear
 62
256
370
-1
  6
ByLayer
 10
224.158707229678015
 20
33.4868059331221986
 30
0.0
 11
222.8251940568295595
 21
33.1016430387849994
 31
0.0
  0
LINE
  5
268
100
AcDbEntity
100
AcDbLine
  8
Rotor Gear
 62
256
370
-1
  6
ByLayer
 10
222.8251940568295595
 20
33.1016430387849994
 30
0.0
 11
221.3932437782070792
 21
32.8888512020013479
 31
0.0
  0
LINE
  5
269
100
AcDbEntity
100
AcDbLine
  8
Rotor Gear
 62
256
370
-1
  6
ByLayer
 10
221.3932437782070792
 20
32.8888512020013479
 30
0.0
 11
220.8780178040626083
 21
33.7814901632456355
 31
0.0
  0
LINE
  5
26A
100
AcDbEntity
100
AcDbLine
  8
Rotor Gear
 62
256
370
-1
  6
ByLayer
 10
220.8780178040626083
 20
33.7814901632456355
 30
0.0
 11
221.7781966539913583
 21
34.9151962859553606
 31
0.0
  0
LINE
  5
26B
100
AcDbEntity
100
AcDbLine
  8
Rotor Gear
 62
256
370
-1
  6
ByLayer
 10
221.7781966539913583
 20
34.9151962859553606
 30
0.0
 11
222.778488305427345
 21
35.8773699410931854
 31
0.0
  0
LINE
  5
26C
100
AcDbEntity
100
AcDbLine
  8
Rotor Gear
 62
256
370
-1
  6
ByLayer
 10
222.778488305427345
 20
35.8773699410931854
 30
0.0
 11
222.2243064871180707
 21
37.0010226315186088
 31
0.0
  0
LINE
  5
26D
100
AcDbEntity
100
AcDbLine
  8
Rotor Gear
 62
256
370
-1
  6
ByLayer
 10
222.2243064871180707
 20
37.0010226315186088
 30
0.0
 11
220.8520467465427259
 21
36.7932563977045817
 31
0.0
  0
LINE
  5
26E
100
AcDbEntity
100
AcDbLine
  8
Rotor Gear
 62
256
370
-1
  6
ByLayer
 10
220.8520467465427259
 20
36.7932563977045817
 30
0.0
 11
219.4045981376754924
 21
36.7691710544708243
 31
0.0
  0
LINE
  5
26F
100
AcDbEntity
100
AcDbLine
  8
Rotor Gear
 62
256
370
-1
  6
ByLayer
 10
219.4045981376754924
 20
36.7691710544708243
 30
0.0
 11
219.0102196589205619
 21
37.7212912773242977
 31
0.0
  0
LINE
  5
270
100
AcDbEntity
100
AcDbLine
  8
Rotor Gear
 62
256
370
-1
  6
ByLayer
 10
219.0102196589205619
 20
37.7212912773242977
 30
0.0
 11
220.0507242973788209
 21
38.7278664167024118
 31
0.0
  0
LINE
  5
271
100
AcDbEntity
100
AcDbLine
  8
Rotor Gear
 62
256
370
-1
  6
ByLayer
 10
220.0507242973788209
 20
38.7278664167024118
 30
0.0
 11
221.1680942419771725
 21
39.5511807026060538
 31
0.0
  0
LINE
  5
272
100
AcDbEntity
100
AcDbLine
  8
Rotor Gear
 62
256
370
-1
  6
ByLayer
 10
221.1680942419771725
 20
39.5511807026060538
 30
0.0
 11
220.7651287502333162
 21
40.7378753225450581
 31
0.0
  0
LINE
  5
273
100
AcDbEntity
100
AcDbLine
  8
Rotor Gear
 62
256
370
-1
  6
ByLayer
 10
220.7651287502333162
 20
40.7378753225450581
 30
0.0
 11
219.3775799558511039
 21
40.7108571407206767
 31
0.0
  0
LINE
  5
274
100
AcDbEntity
100
AcDbLine
  8
Rotor Gear
 62
256
370
-1
  6
ByLayer
 10
219.3775799558511039
 20
40.7108571407206767
 30
0.0
 11
217.9393461892865389
 21
40.8758968439126207
 31
0.0
  0
LINE
  5
275
100
AcDbEntity
100
AcDbLine
  8
Rotor Gear
 62
256
370
-1
  6
ByLayer
 10
217.9393461892865389
 20
40.8758968439126207
 30
0.0
 11
217.6727272652919964
 21
41.8713714267018418
 31
0.0
  0
LINE
  5
276
100
AcDbEntity
100
AcDbLine
  8
Rotor Gear
 62
256
370
-1
  6
ByLayer
 10
217.6727272652919964
 20
41.8713714267018418
 30
0.0
 11
218.8357550948730363
 21
42.7334322803324298
 31
0.0
  0
LINE
  5
277
100
AcDbEntity
100
AcDbLine
  8
Rotor Gear
 62
256
370
-1
  6
ByLayer
 10
218.8357550948730363
 20
42.7334322803324298
 30
0.0
 11
220.0507242973788209
 21
43.4038538018224216
 31
0.0
  0
LINE
  5
278
100
AcDbEntity
100
AcDbLine
  8
Rotor Gear
 62
256
370
-1
  6
ByLayer
 10
220.0507242973788209
 20
43.4038538018224216
 30
0.0
 11
219.8063064865619367
 21
44.6328556573926321
 31
0.0
  0
LINE
  5
279
100
AcDbEntity
100
AcDbLine
  8
Rotor Gear
 62
256
370
-1
  6
ByLayer
 10
219.8063064865619367
 20
44.6328556573926321
 30
0.0
 11
218.4271346866158012
 21
44.7872140989865883
 31
0.0
  0
LINE
  5
27A
100
AcDbEntity
100
AcDbLine
  8
Rotor Gear
 62
256
370
-1
  6
ByLayer
 10
218.4271346866158012
 20
44.7872140989865883
 30
0.0
 11
217.0228304191313953
 21
45.1386567706815143
 31
0.0
  0
LINE
  5
27B
100
AcDbEntity
100
AcDbLine
  8
Rotor Gear
 62
256
370
-1
  6
ByLayer
 10
217.0228304191313953
 20
45.1386567706815143
 30
0.0
 11
216.8881602892302851
 21
46.1605209638664817
 31
0.0
  0
LINE
  5
27C
100
AcDbEntity
100
AcDbLine
  8
Rotor Gear
 62
256
370
-1
  6
ByLayer
 10
216.8881602892302851
 20
46.1605209638664817
 30
0.0
 11
218.1538137218034024
 21
46.8634063072562981
 31
0.0
  0
LINE
  5
27D
100
AcDbEntity
100
AcDbLine
  8
Rotor Gear
 62
256
370
-1
  6
ByLayer
 10
218.1538137218034024
 20
46.8634063072562981
 30
0.0
 11
219.4460675254401281
 21
47.3694166969831016
 31
0.0
  0
LINE
  5
27E
100
AcDbEntity
100
AcDbLine
  8
Rotor Gear
 62
256
370
-1
  6
ByLayer
 10
219.4460675254401281
 20
47.3694166969831016
 30
0.0
 11
219.3641758742153627
 21
48.6199910943022928
 31
0.0
  0
LINE
  5
27F
100
AcDbEntity
100
AcDbLine
  8
Rotor Gear
 62
256
370
-1
  6
ByLayer
 10
219.3641758742153627
 20
48.6199910943022928
 30
0.0
 11
218.0168393247403458
 21
48.9530025971618414
 31
0.0
  0
LINE
  5
280
100
AcDbEntity
100
AcDbLine
  8
Rotor Gear
 62
256
370
-1
  6
ByLayer
 10
218.0168393247403458
 20
48.9530025971618414
 30
0.0
 11
216.6703406231319491
 21
49.4847740258556001
 31
0.0
  0
LINE
  5
281
100
AcDbEntity
100
AcDbLine
  8
Rotor Gear
 62
256
370
-1
  6
ByLayer
 10
216.6703406231319491
 20
49.4847740258556001
 30
0.0
 11
216.6703406231319491
 21
50.515225974144407
 31
0.0
  0
LINE
  5
282
100
AcDbEntity
100
AcDbLine
  8
Rotor Gear
 62
256
370
-1
  6
ByLayer
 10
216.6703406231319491
 20
50.515225974144407
 30
0.0
 11
218.0168393247403458
 21
51.0469974028381657
 31
0.0
  0
LINE
  5
283
100
AcDbEntity
100
AcDbLine
  8
Rotor Gear
 62
256
370
-1
  6
ByLayer
 10
218.0168393247403458
 20
51.0469974028381657
 30
0.0
 11
219.3641758742153627
 21
51.3800089056977143
 31
0.0
  0
LINE
  5
284
100
AcDbEntity
100
AcDbLine
  8
Rotor Gear
 62
256
370
-1
  6
ByLayer
 10
219.3641758742153627
 20
51.3800089056977143
 30
0.0
 11
219.4460675254401281
 21
52.6305833030169481
 31
0.0
  0
LINE
  5
285
100
AcDbEntity
100
AcDbLine
  8
Rotor Gear
 62
256
370
-1
  6
ByLayer
 10
219.4460675254401281
 20
52.6305833030169481
 30
0.0
 11
218.1538137218034024
 21
53.136593692743709
 31
0.0
  0
LINE
  5
286
100
AcDbEntity
100
AcDbLine
  8
Rotor Gear
 62
256
370
-1
  6
ByLayer
 10
218.1538137218034024
 20
53.136593692743709
 30
0.0
 11
216.8881602892302851
 21
53.8394790361336035
 31
0.0
  0
LINE
  5
287
100
AcDbEntity
100
AcDbLine
  8
Rotor Gear
 62
256
370
-1
  6
ByLayer
 10
216.8881602892302851
 20
53.8394790361336035
 30
0.0
 11
217.0228304191313953
 21
54.861343229318436
 31
0.0
  0
LINE
  5
288
100
AcDbEntity
100
AcDbLine
  8
Rotor Gear
 62
256
370
-1
  6
ByLayer
 10
217.0228304191313953
 20
54.861343229318436
 30
0.0
 11
218.4271346866158012
 21
55.2127859010134614
 31
0.0
  0
LINE
  5
289
100
AcDbEntity
100
AcDbLine
  8
Rotor Gear
 62
256
370
-1
  6
ByLayer
 10
218.4271346866158012
 20
55.2127859010134614
 30
0.0
 11
219.8063064865619367
 21
55.3671443426073751
 31
0.0
  0
LINE
  5
28A
100
AcDbEntity
100
AcDbLine
  8
Rotor Gear
 62
256
370
-1
  6
ByLayer
 10
219.8063064865619367
 20
55.3671443426073751
 30
0.0
 11
220.0507242973788209
 21
56.596146198177621
 31
0.0
  0
LINE
  5
28B
100
AcDbEntity
100
AcDbLine
  8
Rotor Gear
 62
256
370
-1
  6
ByLayer
 10
220.0507242973788209
 20
56.596146198177621
 30
0.0
 11
218.8357550948730363
 21
57.2665677196675915
 31
0.0
  0
LINE
  5
28C
100
AcDbEntity
100
AcDbLine
  8
Rotor Gear
 62
256
370
-1
  6
ByLayer
 10
218.8357550948730363
 20
57.2665677196675915
 30
0.0
 11
217.6727272652919964
 21
58.1286285732981653
 31
0.0
  0
LINE
  5
28D
100
AcDbEntity
100
AcDbLine
  8
Rotor Gear
 62
256
370
-1
  6
ByLayer
 10
217.6727272652919964
 20
58.1286285732981653
 30
0.0
 11
217.9393461892865389
 21
59.1241031560874362
 31
0.0
  0
LINE
  5
28E
100
AcDbEntity
100
AcDbLine
  8
Rotor Gear
 62
256
370
-1
  6
ByLayer
 10
217.9393461892865389
 20
59.1241031560874362
 30
0.0
 11
219.3775799558511039
 21
59.2891428592793304
 31
0.0
  0
LINE
  5
28F
100
AcDbEntity
100
AcDbLine
  8
Rotor Gear
 62
256
370
-1
  6
ByLayer
 10
219.3775799558511039
 20
59.2891428592793304
 30
0.0
 11
220.7651287502333162
 21
59.2621246774549633
 31
0.0
  0
LINE
  5
290
100
AcDbEntity
100
AcDbLine
  8
Rotor Gear
 62
256
370
-1
  6
ByLayer
 10
220.7651287502333162
 20
59.2621246774549633
 30
0.0
 11
221.1680942419771725
 21
60.448819297393996
 31
0.0
  0
LINE
  5
291
100
AcDbEntity
100
AcDbLine
  8
Rotor Gear
 62
256
370
-1
  6
ByLayer
 10
221.1680942419771725
 20
60.448819297393996
 30
0.0
 11
220.0507242973788209
 21
61.2721335832976379
 31
0.0
  0
LINE
  5
292
100
AcDbEntity
100
AcDbLine
  8
Rotor Gear
 62
256
370
-1
  6
ByLayer
 10
220.0507242973788209
 20
61.2721335832976379
 30
0.0
 11
219.0102196589205903
 21
62.2787087226757166
 31
0.0
  0
LINE
  5
293
100
AcDbEntity
100
AcDbLine
  8
Rotor Gear
 62
256
370
-1
  6
ByLayer
 10
219.0102196589205903
 20
62.2787087226757166
 30
0.0
 11
219.4045981376754924
 21
63.230828945529197
 31
0.0
  0
LINE
  5
294
100
AcDbEntity
100
AcDbLine
  8
Rotor Gear
 62
256
370
-1
  6
ByLayer
 10
219.4045981376754924
 20
63.230828945529197
 30
0.0
 11
220.8520467465427259
 21
63.2067436022954254
 31
0.0
  0
LINE
  5
295
100
AcDbEntity
100
AcDbLine
  8
Rotor Gear
 62
256
370
-1
  6
ByLayer
 10
220.8520467465427259
 20
63.2067436022954254
 30
0.0
 11
222.2243064871180707
 21
62.9989773684814125
 31
0.0
  0
LINE
  5
296
100
AcDbEntity
100
AcDbLine
  8
Rotor Gear
 62
256
370
-1
  6
ByLayer
 10
222.2243064871180707
 20
62.9989773684814125
 30
0.0
 11
222.778488305427345
 21
64.1226300589068217
 31
0.0
  0
LINE
  5
297
100
AcDbEntity
100
AcDbLine
  8
Rotor Gear
 62
256
370
-1
  6
ByLayer
 10
222.778488305427345
 20
64.1226300589068217
 30
0.0
 11
221.7781966539913583
 21
65.0848037140446394
 31
0.0
  0
LINE
  5
298
100
AcDbEntity
100
AcDbLine
  8
Rotor Gear
 62
256
370
-1
  6
ByLayer
 10
221.7781966539913583
 20
65.0848037140446394
 30
0.0
 11
220.8780178040626083
 21
66.2185098367544072
 31
0.0
  0
LINE
  5
299
100
AcDbEntity
100
AcDbLine
  8
Rotor Gear
 62
256
370
-1
  6
ByLayer
 10
220.8780178040626083
 20
66.2185098367544072
 30
0.0
 11
221.3932437782071077
 21
67.1111487979986521
 31
0.0
  0
LINE
  5
29A
100
AcDbEntity
100
AcDbLine
  8
Rotor Gear
 62
256
370
-1
  6
ByLayer
 10
221.3932437782071077
 20
67.1111487979986521
 30
0.0
 11
222.8251940568295879
 21
66.8983569612150148
 31
0.0
  0
LINE
  5
29B
100
AcDbEntity
100
AcDbLine
  8
Rotor Gear
 62
256
370
-1
  6
ByLayer
 10
222.8251940568295879
 20
66.8983569612150148
 30
0.0
 11
224.158707229678015
 21
66.5131940668778299
 31
0.0
  0
LINE
  5
29C
100
AcDbEntity
100
AcDbLine
  8
Rotor Gear
 62
256
370
-1
  6
ByLayer
 10
224.158707229678015
 20
66.5131940668778299
 30
0.0
 11
224.8546805136971045
 21
67.5549551060784665
 31
0.0
  0
LINE
  5
29D
100
AcDbEntity
100
AcDbLine
  8
Rotor Gear
 62
256
370
-1
  6
ByLayer
 10
224.8546805136971045
 20
67.5549551060784665
 30
0.0
 11
223.9886404392864279
 21
68.6394426759011651
 31
0.0
  0
LINE
  5
29E
100
AcDbEntity
100
AcDbLine
  8
Rotor Gear
 62
256
370
-1
  6
ByLayer
 10
223.9886404392864279
 20
68.6394426759011651
 30
0.0
 11
223.2440764316939976
 21
69.8810107652405463
 31
0.0
  0
LINE
  5
29F
100
AcDbEntity
100
AcDbLine
  8
Rotor Gear
 62
256
370
-1
  6
ByLayer
 10
223.2440764316939976
 20
69.8810107652405463
 30
0.0
 11
223.8715628882390831
 21
70.6986701346308166
 31
0.0
  0
LINE
  5
2A0
100
AcDbEntity
100
AcDbLine
  8
Rotor Gear
 62
256
370
-1
  6
ByLayer
 10
223.8715628882390831
 20
70.6986701346308166
 30
0.0
 11
225.2635101983922254
 21
70.3007317300866248
 31
0.0
  0
LINE
  5
2A1
100
AcDbEntity
100
AcDbLine
  8
Rotor Gear
 62
256
370
-1
  6
ByLayer
 10
225.2635101983922254
 20
70.3007317300866248
 30
0.0
 11
226.5350285660316274
 21
69.74487421604411
 31
0.0
  0
LINE
  5
2A2
100
AcDbEntity
100
AcDbLine
  8
Rotor Gear
 62
256
370
-1
  6
ByLayer
 10
226.5350285660316274
 20
69.74487421604411
 30
0.0
 11
227.3612749484109088
 21
70.6869410066132957
 31
0.0
  0
LINE
  5
2A3
100
AcDbEntity
100
AcDbLine
  8
Rotor Gear
 62
256
370
-1
  6
ByLayer
 10
227.3612749484109088
 20
70.6869410066132957
 30
0.0
 11
226.6441476755186955
 21
71.8751020458475978
 31
0.0
  0
LINE
  5
2A4
100
AcDbEntity
100
AcDbLine
  8
Rotor Gear
 62
256
370
-1
  6
ByLayer
 10
226.6441476755186955
 20
71.8751020458475978
 30
0.0
 11
226.0679747625846971
 21
73.2031695786206029
 31
0.0
  0
LINE
  5
2A5
100
AcDbEntity
100
AcDbLine
  8
Rotor Gear
 62
256
370
-1
  6
ByLayer
 10
226.0679747625846971
 20
73.2031695786206029
 30
0.0
 11
226.7968304213794113
 21
73.9320252374153171
 31
0.0
  0
LINE
  5
2A6
100
AcDbEntity
100
AcDbLine
  8
Rotor Gear
 62
256
370
-1
  6
ByLayer
 10
226.7968304213794113
 20
73.9320252374153171
 30
0.0
 11
228.1248979541524022
 21
73.3558523244813045
 31
0.0
  0
LINE
  5
2A7
100
AcDbEntity
100
AcDbLine
  8
Rotor Gear
 62
256
370
-1
  6
ByLayer
 10
228.1248979541524022
 20
73.3558523244813045
 30
0.0
 11
229.3130589933867043
 21
72.6387250515890912
 31
0.0
  0
LINE
  5
2A8
100
AcDbEntity
100
AcDbLine
  8
Rotor Gear
 62
256
370
-1
  6
ByLayer
 10
229.3130589933867043
 20
72.6387250515890912
 30
0.0
 11
230.25512578395589
 21
73.464971433968401
 31
0.0
  0
LINE
  5
2A9
100
AcDbEntity
100
AcDbLine
  8
Rotor Gear
 62
256
370
-1
  6
ByLayer
 10
230.25512578395589
 20
73.464971433968401
 30
0.0
 11
229.6992682699134036
 21
74.7364898016077746
 31
0.0
  0
LINE
  5
2AA
100
AcDbEntity
100
AcDbLine
  8
Rotor Gear
 62
256
370
-1
  6
ByLayer
 10
229.6992682699134036
 20
74.7364898016077746
 30
0.0
 11
229.3013298653691834
 21
76.1284371117609453
 31
0.0
  0
LINE
  5
2AB
100
AcDbEntity
100
AcDbLine
  8
Rotor Gear
 62
256
370
-1
  6
ByLayer
 10
229.3013298653691834
 20
76.1284371117609453
 30
0.0
 11
230.1189892347594537
 21
76.7559235683060024
 31
0.0
  0
LINE
  5
2AC
100
AcDbEntity
100
AcDbLine
  8
Rotor Gear
 62
256
370
-1
  6
ByLayer
 10
230.1189892347594537
 20
76.7559235683060024
 30
0.0
 11
231.3605573240988349
 21
76.0113595607135721
 31
0.0
  0
LINE
  5
2AD
100
AcDbEntity
100
AcDbLine
  8
Rotor Gear
 62
256
370
-1
  6
ByLayer
 10
231.3605573240988349
 20
76.0113595607135721
 30
0.0
 11
232.4450448939215335
 21
75.1453194863028955
 31
0.0
  0
LINE
  5
2AE
100
AcDbEntity
100
AcDbLine
  8
Rotor Gear
 62
256
370
-1
  6
ByLayer
 10
232.4450448939215335
 20
75.1453194863028955
 30
0.0
 11
233.4868059331221843
 21
75.841292770321985
 31
0.0
  0
LINE
  5
2AF
100
AcDbEntity
100
AcDbLine
  8
Rotor Gear
 62
256
370
-1
  6
ByLayer
 10
233.4868059331221843
 20
75.841292770321985
 30
0.0
 11
233.1016430387849994
 21
77.1748059431704121
 31
0.0
  0
LINE
  5
2B0
100
AcDbEntity
100
AcDbLine
  8
Rotor Gear
 62
256
370
-1
  6
ByLayer
 10
233.1016430387849994
 20
77.1748059431704121
 30
0.0
 11
232.8888512020013479
 21
78.6067562217928923
 31
0.0
  0
LINE
  5
2B1
100
AcDbEntity
100
AcDbLine
  8
Rotor Gear
 62
256
370
-1
  6
ByLayer
 10
232.8888512020013479
 20
78.6067562217928923
 30
0.0
 11
233.7814901632456213
 21
79.1219821959373917
 31
0.0
  0
LINE
  5
2B2
100
AcDbEntity
100
AcDbLine
  8
Rotor Gear
 62
256
370
-1
  6
ByLayer
 10
233.7814901632456213
 20
79.1219821959373917
 30
0.0
 11
234.9151962859553464
 21
78.2218033460086417
 31
0.0
  0
LINE
  5
2B3
100
AcDbEntity
100
AcDbLine
  8
Rotor Gear
 62
256
370
-1
  6
ByLayer
 10
234.9151962859553464
 20
78.2218033460086417
 30
0.0
 11
235.8773699410931783
 21
77.221511694572655
 31
0.0
  0
LINE
  5
2B4
100
AcDbEntity
100
AcDbLine
  8
Rotor Gear
 62
256
370
-1
  6
ByLayer
 10
235.8773699410931783
 20
77.221511694572655
 30
0.0
 11
237.0010226315185946
 21
77.7756935128819293
 31
0.0
  0
LINE
  5
2B5
100
AcDbEntity
100
AcDbLine
  8
Rotor Gear
 62
256
370
-1
  6
ByLayer
 10
237.0010226315185946
 20
77.7756935128819293
 30
0.0
 11
236.7932563977045675
 21
79.1479532534572741
 31
0.0
  0
LINE
  5
2B6
100
AcDbEntity
100
AcDbLine
  8
Rotor Gear
 62
256
370
-1
  6
ByLayer
 10
236.7932563977045675
 20
79.1479532534572741
 30
0.0
 11
236.7691710544708315
 21
80.5954018623245361
 31
0.0
  0
LINE
  5
2B7
100
AcDbEntity
100
AcDbLine
  8
Rotor Gear
 62
256
370
-1
  6
ByLayer
 10
236.7691710544708315
 20
80.5954018623245361
 30
0.0
 11
237.7212912773243261
 21
80.9897803410794381
 31
0.0
  0
LINE
  5
2B8
100
AcDbEntity
100
AcDbLine
  8
Rotor Gear
 62
256
370
-1
  6
ByLayer
 10
237.7212912773243261
 20
80.9897803410794381
 30
0.0
 11
238.7278664167023976
 21
79.9492757026211791
 31
0.0
  0
LINE
  5
2B9
100
AcDbEntity
100
AcDbLine
  8
Rotor Gear
 62
256
370
-1
  6
ByLayer
 10
238.7278664167023976
 20
79.9492757026211791
 30
0.0
 11
239.5511807026060467
 21
78.8319057580228275
 31
0.0
  0
LINE
  5
2BA
100
AcDbEntity
100
AcDbLine
  8
Rotor Gear
 62
256
370
-1
  6
ByLayer
 10
239.5511807026060467
 20
78.8319057580228275
 30
0.0
 11
240.7378753225450225
 21
79.2348712497666838
 31
0.0
  0
LINE
  5
2BB
100
AcDbEntity
100
AcDbLine
  8
Rotor Gear
 62
256
370
-1
  6
ByLayer
 10
240.7378753225450225
 20
79.2348712497666838
 30
0.0
 11
240.7108571407206341
 21
80.6224200441488961
 31
0.0
  0
LINE
  5
2BC
100
AcDbEntity
100
AcDbLine
  8
Rotor Gear
 62
256
370
-1
  6
ByLayer
 10
240.7108571407206341
 20
80.6224200441488961
 30
0.0
 11
240.8758968439125852
 21
82.0606538107134611
 31
0.0
  0
LINE
  5
2BD
100
AcDbEntity
100
AcDbLine
  8
Rotor Gear
 62
256
370
-1
  6
ByLayer
 10
240.8758968439125852
 20
82.0606538107134611
 30
0.0
 11
241.8713714267018418
 21
82.3272727347079751
 31
0.0
  0
LINE
  5
2BE
100
AcDbEntity
100
AcDbLine
  8
Rotor Gear
 62
256
370
-1
  6
ByLayer
 10
241.8713714267018418
 20
82.3272727347079751
 30
0.0
 11
242.7334322803324085
 21
81.1642449051269921
 31
0.0
  0
LINE
  5
2BF
100
AcDbEntity
100
AcDbLine
  8
Rotor Gear
 62
256
370
-1
  6
ByLayer
 10
242.7334322803324085
 20
81.1642449051269921
 30
0.0
 11
243.4038538018224074
 21
79.9492757026211791
 31
0.0
  0
LINE
  5
2C0
100
AcDbEntity
100
AcDbLine
  8
Rotor Gear
 62
256
370
-1
  6
ByLayer
 10
243.4038538018224074
 20
79.9492757026211791
 30
0.0
 11
244.6328556573926392
 21
80.1936935134380349
 31
0.0
  0
LINE
  5
2C1
100
AcDbEntity
100
AcDbLine
  8
Rotor Gear
 62
256
370
-1
  6
ByLayer
 10
244.6328556573926392
 20
80.1936935134380349
 30
0.0
 11
244.7872140989865954
 21
81.5728653133842272
 31
0.0
  0
LINE
  5
2C2
100
AcDbEntity
100
AcDbLine
  8
Rotor Gear
 62
256
370
-1
  6
ByLayer
 10
244.7872140989865954
 20
81.5728653133842272
 30
0.0
 11
245.1386567706815356
 21
82.9771695808686047
 31
0.0
  0
LINE
  5
2C3
100
AcDbEntity
100
AcDbLine
  8
Rotor Gear
 62
256
370
-1
  6
ByLayer
 10
245.1386567706815356
 20
82.9771695808686047
 30
0.0
 11
246.1605209638664462
 21
83.1118397107697149
 31
0.0
  0
LINE
  5
2C4
100
AcDbEntity
100
AcDbLine
  8
Rotor Gear
 62
256
370
-1
  6
ByLayer
 10
246.1605209638664462
 20
83.1118397107697149
 30
0.0
 11
246.8634063072563265
 21
81.8461862781965976
 31
0.0
  0
LINE
  5
2C5
100
AcDbEntity
100
AcDbLine
  8
Rotor Gear
 62
256
370
-1
  6
ByLayer
 10
246.8634063072563265
 20
81.8461862781965976
 30
0.0
 11
247.3694166969830803
 21
80.5539324745598719
 31
0.0
  0
LINE
  5
2C6
100
AcDbEntity
100
AcDbLine
  8
Rotor Gear
 62
256
370
-1
  6
ByLayer
 10
247.3694166969830803
 20
80.5539324745598719
 30
0.0
 11
248.6199910943022644
 21
80.6358241257846373
 31
0.0
  0
LINE
  5
2C7
100
AcDbEntity
100
AcDbLine
  8
Rotor Gear
 62
256
370
-1
  6
ByLayer
 10
248.6199910943022644
 20
80.6358241257846373
 30
0.0
 11
248.9530025971617704
 21
81.9831606752596542
 31
0.0
  0
LINE
  5
2C8
100
AcDbEntity
100
AcDbLine
  8
Rotor Gear
 62
256
370
-1
  6
ByLayer
 10
248.9530025971617704
 20
81.9831606752596542
 30
0.0
 11
249.4847740258555291
 21
83.3296593768680509
 31
0.0
  0
LINE
  5
2C9
100
AcDbEntity
100
AcDbLine
  8
Rotor Gear
 62
256
370
-1
  6
ByLayer
 10
249.4847740258555291
 20
83.3296593768680509
 30
0.0
 11
250.5152259741444709
 21
83.3296593768680509
 31
0.0
  0
LINE
  5
2CA
100
AcDbEntity
100
AcDbLine
  8
Rotor Gear
 62
256
370
-1
  6
ByLayer
 10
250.5152259741444709
 20
83.3296593768680509
 30
0.0
 11
251.0469974028382012
 21
81.9831606752596542
 31
0.0
  0
LINE
  5
2CB
100
AcDbEntity
100
AcDbLine
  8
Rotor Gear
 62
256
370
-1
  6
ByLayer
 10
251.0469974028382012
 20
81.9831606752596542
 30
0.0
 11
251.3800089056977356
 21
80.6358241257846373
 31
0.0
  0
LINE
  5
2CC
100
AcDbEntity
100
AcDbLine
  8
Rotor Gear
 62
256
370
-1
  6
ByLayer
 10
251.3800089056977356
 20
80.6358241257846373
 30
0.0
 11
252.6305833030169197
 21
80.5539324745598719
 31
0.0
  0
LINE
  5
2CD
100
AcDbEntity
100
AcDbLine
  8
Rotor Gear
 62
256
370
-1
  6
ByLayer
 10
252.6305833030169197
 20
80.5539324745598719
 30
0.0
 11
253.1365936927436735
 21
81.8461862781965976
 31
0.0
  0
LINE
  5
2CE
100
AcDbEntity
100
AcDbLine
  8
Rotor Gear
 62
256
370
-1
  6
ByLayer
 10
253.1365936927436735
 20
81.8461862781965976
 30
0.0
 11
253.8394790361335538
 21
83.1118397107697149
 31
0.0
  0
LINE
  5
2CF
100
AcDbEntity
100
AcDbLine
  8
Rotor Gear
 62
256
370
-1
  6
ByLayer
 10
253.8394790361335538
 20
83.1118397107697149
 30
0.0
 11
254.8613432293184644
 21
82.9771695808686047
 31
0.0
  0
LINE
  5
2D0
100
AcDbEntity
100
AcDbLine
  8
Rotor Gear
 62
256
370
-1
  6
ByLayer
 10
254.8613432293184644
 20
82.9771695808686047
 30
0.0
 11
255.2127859010134046
 21
81.5728653133842272
 31
0.0
  0
LINE
  5
2D1
100
AcDbEntity
100
AcDbLine
  8
Rotor Gear
 62
256
370
-1
  6
ByLayer
 10
255.2127859010134046
 20
81.5728653133842272
 30
0.0
 11
255.3671443426073608
 21
80.1936935134380349
 31
0.0
  0
LINE
  5
2D2
100
AcDbEntity
100
AcDbLine
  8
Rotor Gear
 62
256
370
-1
  6
ByLayer
 10
255.3671443426073608
 20
80.1936935134380349
 30
0.0
 11
256.596146198177621
 21
79.9492757026211791
 31
0.0
  0
LINE
  5
2D3
100
AcDbEntity
100
AcDbLine
  8
Rotor Gear
 62
256
370
-1
  6
ByLayer
 10
256.596146198177621
 20
79.9492757026211791
 30
0.0
 11
257.2665677196675915
 21
81.1642449051269921
 31
0.0
  0
LINE
  5
2D4
100
AcDbEntity
100
AcDbLine
  8
Rotor Gear
 62
256
370
-1
  6
ByLayer
 10
257.2665677196675915
 20
81.1642449051269921
 30
0.0
 11
258.1286285732981582
 21
82.3272727347079751
 31
0.0
  0
LINE
  5
2D5
100
AcDbEntity
100
AcDbLine
  8
Rotor Gear
 62
256
370
-1
  6
ByLayer
 10
258.1286285732981582
 20
82.3272727347079751
 30
0.0
 11
259.1241031560874148
 21
82.0606538107134611
 31
0.0
  0
LINE
  5
2D6
100
AcDbEntity
100
AcDbLine
  8
Rotor Gear
 62
256
370
-1
  6
ByLayer
 10
259.1241031560874148
 20
82.0606538107134611
 30
0.0
 11
259.2891428592793659
 21
80.6224200441488961
 31
0.0
  0
LINE
  5
2D7
100
AcDbEntity
100
AcDbLine
  8
Rotor Gear
 62
256
370
-1
  6
ByLayer
 10
259.2891428592793659
 20
80.6224200441488961
 30
0.0
 11
259.2621246774550059
 21
79.2348712497666838
 31
0.0
  0
LINE
  5
2D8
100
AcDbEntity
100
AcDbLine
  8
Rotor Gear
 62
256
370
-1
  6
ByLayer
 10
259.2621246774550059
 20
79.2348712497666838
 30
0.0
 11
260.4488192973939249
 21
78.8319057580228275
 31
0.0
  0
LINE
  5
2D9
100
AcDbEntity
100
AcDbLine
  8
Rotor Gear
 62
256
370
-1
  6
ByLayer
 10
260.4488192973939249
 20
78.8319057580228275
 30
0.0
 11
261.2721335832976024
 21
79.9492757026211791
 31
0.0
  0
LINE
  5
2DA
100
AcDbEntity
100
AcDbLine
  8
Rotor Gear
 62
256
370
-1
  6
ByLayer
 10
261.2721335832976024
 20
79.9492757026211791
 30
0.0
 11
262.2787087226756739
 21
80.9897803410794381
 31
0.0
  0
LINE
  5
2DB
100
AcDbEntity
100
AcDbLine
  8
Rotor Gear
 62
256
370
-1
  6
ByLayer
 10
262.2787087226756739
 20
80.9897803410794381
 30
0.0
 11
263.2308289455291401
 21
80.5954018623245076
 31
0.0
  0
LINE
  5
2DC
100
AcDbEntity
100
AcDbLine
  8
Rotor Gear
 62
256
370
-1
  6
ByLayer
 10
263.2308289455291401
 20
80.5954018623245076
 30
0.0
 11
263.2067436022954325
 21
79.1479532534572741
 31
0.0
  0
LINE
  5
2DD
100
AcDbEntity
100
AcDbLine
  8
Rotor Gear
 62
256
370
-1
  6
ByLayer
 10
263.2067436022954325
 20
79.1479532534572741
 30
0.0
 11
262.9989773684814054
 21
77.7756935128819293
 31
0.0
  0
LINE
  5
2DE
100
AcDbEntity
100
AcDbLine
  8
Rotor Gear
 62
256
370
-1
  6
ByLayer
 10
262.9989773684814054
 20
77.7756935128819293
 30
0.0
 11
264.1226300589068501
 21
77.221511694572655
 31
0.0
  0
LINE
  5
2DF
100
AcDbEntity
100
AcDbLine
  8
Rotor Gear
 62
256
370
-1
  6
ByLayer
 10
264.1226300589068501
 20
77.221511694572655
 30
0.0
 11
265.0848037140446536
 21
78.2218033460086417
 31
0.0
  0
LINE
  5
2E0
100
AcDbEntity
100
AcDbLine
  8
Rotor Gear
 62
256
370
-1
  6
ByLayer
 10
265.0848037140446536
 20
78.2218033460086417
 30
0.0
 11
266.2185098367543787
 21
79.1219821959373917
 31
0.0
  0
LINE
  5
2E1
100
AcDbEntity
100
AcDbLine
  8
Rotor Gear
 62
256
370
-1
  6
ByLayer
 10
266.2185098367543787
 20
79.1219821959373917
 30
0.0
 11
267.1111487979986805
 21
78.6067562217928923
 31
0.0
  0
LINE
  5
2E2
100
AcDbEntity
100
AcDbLine
  8
Rotor Gear
 62
256
370
-1
  6
ByLayer
 10
267.1111487979986805
 20
78.6067562217928923
 30
0.0
 11
266.8983569612149722
 21
77.1748059431704121
 31
0.0
  0
LINE
  5
2E3
100
AcDbEntity
100
AcDbLine
  8
Rotor Gear
 62
256
370
-1
  6
ByLayer
 10
266.8983569612149722
 20
77.1748059431704121
 30
0.0
 11
266.5131940668778157
 21
75.841292770321985
 31
0.0
  0
LINE
  5
2E4
100
AcDbEntity
100
AcDbLine
  8
Rotor Gear
 62
256
370
-1
  6
ByLayer
 10
266.5131940668778157
 20
75.841292770321985
 30
0.0
 11
267.5549551060784665
 21
75.1453194863028955
 31
0.0
  0
LINE
  5
2E5
100
AcDbEntity
100
AcDbLine
  8
Rotor Gear
 62
256
370
-1
  6
ByLayer
 10
267.5549551060784665
 20
75.1453194863028955
 30
0.0
 11
268.6394426759011367
 21
76.0113595607135721
 31
0.0
  0
LINE
  5
2E6
100
AcDbEntity
100
AcDbLine
  8
Rotor Gear
 62
256
370
-1
  6
ByLayer
 10
268.6394426759011367
 20
76.0113595607135721
 30
0.0
 11
269.8810107652404895
 21
76.7559235683060024
 31
0.0
  0
LINE
  5
2E7
100
AcDbEntity
100
AcDbLine
  8
Rotor Gear
 62
256
370
-1
  6
ByLayer
 10
269.8810107652404895
 20
76.7559235683060024
 30
0.0
 11
270.6986701346307882
 21
76.1284371117609453
 31
0.0
  0
LINE
  5
2E8
100
AcDbEntity
100
AcDbLine
  8
Rotor Gear
 62
256
370
-1
  6
ByLayer
 10
270.6986701346307882
 20
76.1284371117609453
 30
0.0
 11
270.3007317300866248
 21
74.7364898016077746
 31
0.0
  0
LINE
  5
2E9
100
AcDbEntity
100
AcDbLine
  8
Rotor Gear
 62
256
370
-1
  6
ByLayer
 10
270.3007317300866248
 20
74.7364898016077746
 30
0.0
 11
269.7448742160440815
 21
73.464971433968401
 31
0.0
  0
LINE
  5
2EA
100
AcDbEntity
100
AcDbLine
  8
Rotor Gear
 62
256
370
-1
  6
ByLayer
 10
269.7448742160440815
 20
73.464971433968401
 30
0.0
 11
270.6869410066132673
 21
72.6387250515890912
 31
0.0
  0
LINE
  5
2EB
100
AcDbEntity
100
AcDbLine
  8
Rotor Gear
 62
256
370
-1
  6
ByLayer
 10
270.6869410066132673
 20
72.6387250515890912
 30
0.0
 11
271.8751020458475978
 21
73.3558523244813045
 31
0.0
  0
LINE
  5
2EC
100
AcDbEntity
100
AcDbLine
  8
Rotor Gear
 62
256
370
-1
  6
ByLayer
 10
271.8751020458475978
 20
73.3558523244813045
 30
0.0
 11
273.2031695786205887
 21
73.9320252374153029
 31
0.0
  0
LINE
  5
2ED
100
AcDbEntity
100
AcDbLine
  8
Rotor Gear
 62
256
370
-1
  6
ByLayer
 10
273.2031695786205887
 20
73.9320252374153029
 30
0.0
 11
273.9320252374153029
 21
73.2031695786206029
 31
0.0
  0
LINE
  5
2EE
100
AcDbEntity
100
AcDbLine
  8
Rotor Gear
 62
256
370
-1
  6
ByLayer
 10
273.9320252374153029
 20
73.2031695786206029
 30
0.0
 11
273.3558523244813045
 21
71.8751020458475836
 31
0.0
  0
LINE
  5
2EF
100
AcDbEntity
100
AcDbLine
  8
Rotor Gear
 62
256
370
-1
  6
ByLayer
 10
273.3558523244813045
 20
71.8751020458475836
 30
0.0
 11
272.6387250515890628
 21
70.6869410066132815
 31
0.0
  0
LINE
  5
2F0
100
AcDbEntity
100
AcDbLine
  8
Rotor Gear
 62
256
370
-1
  6
ByLayer
 10
272.6387250515890628
 20
70.6869410066132815
 30
0.0
 11
273.4649714339683442
 21
69.74487421604411
 31
0.0
  0
LINE
  5
2F1
100
AcDbEntity
100
AcDbLine
  8
Rotor Gear
 62
256
370
-1
  6
ByLayer
 10
273.4649714339683442
 20
69.74487421604411
 30
0.0
 11
274.7364898016077746
 21
70.3007317300866106
 31
0.0
  0
LINE
  5
2F2
100
AcDbEntity
100
AcDbLine
  8
Rotor Gear
 62
256
370
-1
  6
ByLayer
 10
274.7364898016077746
 20
70.3007317300866106
 30
0.0
 11
276.1284371117609453
 21
70.6986701346308166
 31
0.0
  0
LINE
  5
2F3
100
AcDbEntity
100
AcDbLine
  8
Rotor Gear
 62
256
370
-1
  6
ByLayer
 10
276.1284371117609453
 20
70.6986701346308166
 30
0.0
 11
276.7559235683060024
 21
69.8810107652405463
 31
0.0
  0
LINE
  5
2F4
100
AcDbEntity
100
AcDbLine
  8
Rotor Gear
 62
256
370
-1
  6
ByLayer
 10
276.7559235683060024
 20
69.8810107652405463
 30
0.0
 11
276.0113595607135721
 21
68.6394426759011793
 31
0.0
  0
LINE
  5
2F5
100
AcDbEntity
100
AcDbLine
  8
Rotor Gear
 62
256
370
-1
  6
ByLayer
 10
276.0113595607135721
 20
68.6394426759011793
 30
0.0
 11
275.1453194863029239
 21
67.5549551060784523
 31
0.0
  0
LINE
  5
2F6
100
AcDbEntity
100
AcDbLine
  8
Rotor Gear
 62
256
370
-1
  6
ByLayer
 10
275.1453194863029239
 20
67.5549551060784523
 30
0.0
 11
275.8412927703219566
 21
66.5131940668778299
 31
0.0
  0
LINE
  5
2F7
100
AcDbEntity
100
AcDbLine
  8
Rotor Gear
 62
256
370
-1
  6
ByLayer
 10
275.8412927703219566
 20
66.5131940668778299
 30
0.0
 11
277.1748059431704405
 21
66.8983569612150006
 31
0.0
  0
LINE
  5
2F8
100
AcDbEntity
100
AcDbLine
  8
Rotor Gear
 62
256
370
-1
  6
ByLayer
 10
277.1748059431704405
 20
66.8983569612150006
 30
0.0
 11
278.6067562217929208
 21
67.1111487979986663
 31
0.0
  0
LINE
  5
2F9
100
AcDbEntity
100
AcDbLine
  8
Rotor Gear
 62
256
370
-1
  6
ByLayer
 10
278.6067562217929208
 20
67.1111487979986663
 30
0.0
 11
279.1219821959373917
 21
66.2185098367544072
 31
0.0
  0
LINE
  5
2FA
100
AcDbEntity
100
AcDbLine
  8
Rotor Gear
 62
256
370
-1
  6
ByLayer
 10
279.1219821959373917
 20
66.2185098367544072
 30
0.0
 11
278.2218033460086417
 21
65.0848037140446394
 31
0.0
  0
LINE
  5
2FB
100
AcDbEntity
100
AcDbLine
  8
Rotor Gear
 62
256
370
-1
  6
ByLayer
 10
278.2218033460086417
 20
65.0848037140446394
 30
0.0
 11
277.221511694572655
 21
64.1226300589068217
 31
0.0
  0
LINE
  5
2FC
100
AcDbEntity
100
AcDbLine
  8
Rotor Gear
 62
256
370
-1
  6
ByLayer
 10
277.221511694572655
 20
64.1226300589068217
 30
0.0
 11
277.7756935128819578
 21
62.9989773684814267
 31
0.0
  0
LINE
  5
2FD
100
AcDbEntity
100
AcDbLine
  8
Rotor Gear
 62
256
370
-1
  6
ByLayer
 10
277.7756935128819578
 20
62.9989773684814267
 30
0.0
 11
279.1479532534572741
 21
63.2067436022954325
 31
0.0
  0
LINE
  5
2FE
100
AcDbEntity
100
AcDbLine
  8
Rotor Gear
 62
256
370
-1
  6
ByLayer
 10
279.1479532534572741
 20
63.2067436022954325
 30
0.0
 11
280.5954018623244792
 21
63.2308289455292041
 31
0.0
  0
LINE
  5
2FF
100
AcDbEntity
100
AcDbLine
  8
Rotor Gear
 62
256
370
-1
  6
ByLayer
 10
280.5954018623244792
 20
63.2308289455292041
 30
0.0
 11
280.9897803410793813
 21
62.2787087226757023
 31
0.0
  0
LINE
  5
300
100
AcDbEntity
100
AcDbLine
  8
Rotor Gear
 62
256
370
-1
  6
ByLayer
 10
280.9897803410793813
 20
62.2787087226757023
 30
0.0
 11
279.9492757026212075
 21
61.2721335832976166
 31
0.0
  0
LINE
  5
301
100
AcDbEntity
100
AcDbLine
  8
Rotor Gear
 62
256
370
-1
  6
ByLayer
 10
279.9492757026212075
 20
61.2721335832976166
 30
0.0
 11
278.8319057580227991
 21
60.4488192973939817
 31
0.0
  0
LINE
  5
302
100
AcDbEntity
100
AcDbLine
  8
Rotor Gear
 62
256
370
-1
  6
ByLayer
 10
278.8319057580227991
 20
60.4488192973939817
 30
0.0
 11
279.2348712497666838
 21
59.2621246774549562
 31
0.0
  0
LINE
  5
303
100
AcDbEntity
100
AcDbLine
  8
Rotor Gear
 62
256
370
-1
  6
ByLayer
 10
279.2348712497666838
 20
59.2621246774549562
 30
0.0
 11
280.6224200441488961
 21
59.2891428592793304
 31
0.0
  0
LINE
  5
304
100
AcDbEntity
100
AcDbLine
  8
Rotor Gear
 62
256
370
-1
  6
ByLayer
 10
280.6224200441488961
 20
59.2891428592793304
 30
0.0
 11
282.0606538107134611
 21
59.1241031560874362
 31
0.0
  0
LINE
  5
305
100
AcDbEntity
100
AcDbLine
  8
Rotor Gear
 62
256
370
-1
  6
ByLayer
 10
282.0606538107134611
 20
59.1241031560874362
 30
0.0
 11
282.3272727347080036
 21
58.1286285732981653
 31
0.0
  0
LINE
  5
306
100
AcDbEntity
100
AcDbLine
  8
Rotor Gear
 62
256
370
-1
  6
ByLayer
 10
282.3272727347080036
 20
58.1286285732981653
 30
0.0
 11
281.1642449051269637
 21
57.2665677196675915
 31
0.0
  0
LINE
  5
307
100
AcDbEntity
100
AcDbLine
  8
Rotor Gear
 62
256
370
-1
  6
ByLayer
 10
281.1642449051269637
 20
57.2665677196675915
 30
0.0
 11
279.9492757026212075
 21
56.5961461981776068
 31
0.0
  0
LINE
  5
308
100
AcDbEntity
100
AcDbLine
  8
Rotor Gear
 62
256
370
-1
  6
ByLayer
 10
279.9492757026212075
 20
56.5961461981776068
 30
0.0
 11
280.1936935134380633
 21
55.3671443426073608
 31
0.0
  0
LINE
  5
309
100
AcDbEntity
100
AcDbLine
  8
Rotor Gear
 62
256
370
-1
  6
ByLayer
 10
280.1936935134380633
 20
55.3671443426073608
 30
0.0
 11
281.5728653133842272
 21
55.2127859010134614
 31
0.0
  0
LINE
  5
30A
100
AcDbEntity
100
AcDbLine
  8
Rotor Gear
 62
256
370
-1
  6
ByLayer
 10
281.5728653133842272
 20
55.2127859010134614
 30
0.0
 11
282.9771695808685763
 21
54.861343229318436
 31
0.0
  0
LINE
  5
30B
100
AcDbEntity
100
AcDbLine
  8
Rotor Gear
 62
256
370
-1
  6
ByLayer
 10
282.9771695808685763
 20
54.861343229318436
 30
0.0
 11
283.1118397107696865
 21
53.8394790361335964
 31
0.0
  0
LINE
  5
30C
100
AcDbEntity
100
AcDbLine
  8
Rotor Gear
 62
256
370
-1
  6
ByLayer
 10
283.1118397107696865
 20
53.8394790361335964
 30
0.0
 11
281.8461862781965692
 21
53.1365936927437019
 31
0.0
  0
LINE
  5
30D
100
AcDbEntity
100
AcDbLine
  8
Rotor Gear
 62
256
370
-1
  6
ByLayer
 10
281.8461862781965692
 20
53.1365936927437019
 30
0.0
 11
280.5539324745598719
 21
52.6305833030169481
 31
0.0
  0
LINE
  5
30E
100
AcDbEntity
100
AcDbLine
  8
Rotor Gear
 62
256
370
-1
  6
ByLayer
 10
280.5539324745598719
 20
52.6305833030169481
 30
0.0
 11
280.6358241257846657
 21
51.3800089056977143
 31
0.0
  0
LINE
  5
30F
100
AcDbEntity
100
AcDbLine
  8
Rotor Gear
 62
256
370
0
  6
ByLayer
 10
248.2119214762103638
 20
57.0275957953945891
 30
0.0
 11
255.1920531740613001
 21
55.0623235969470528
 31
0.0
  0
LINE
  5
310
100
AcDbEntity
100
AcDbLine
  8
Rotor Gear
 62
256
370
0
  6
ByLayer
 10
255.1920531740613001
 20
55.0623235969470528
 30
0.0
 11
256.9801433737798675
 21
48.0347161256234614
 31
0.0
  0
LINE
  5
311
100
AcDbEntity
100
AcDbLine
  8
Rotor Gear
 62
256
370
0
  6
ByLayer
 10
244.8079701777966477
 20
44.9376530511949639
 30
0.0
 11
243.0198799780781087
 21
51.9652605225185695
 31
0.0
  0
LINE
  5
312
100
AcDbEntity
100
AcDbLine
  8
Rotor Gear
 62
256
370
0
  6
ByLayer
 10
243.0198799780780803
 20
51.9652605225185127
 30
0.0
 11
248.2119214762103638
 21
57.0275957953945323
 31
0.0
  0
LINE
  5
313
100
AcDbEntity
100
AcDbLine
  8
Rotor Gear
 62
256
370
0
  6
ByLayer
 10
256.9801433737798106
 20
48.0347161256234045
 30
0.0
 11
251.7881018756474987
 21
42.9723808527472571
 31
0.0
  0
LINE
  5
314
100
AcDbEntity
100
AcDbLine
  8
Rotor Gear
 62
256
370
0
  6
ByLayer
 10
251.7881018756474987
 20
42.9723808527472571
 30
0.0
 11
244.8079701777966193
 21
44.9376530511949071
 31
0.0
  0
MTEXT
  5
315
100
AcDbEntity
100
AcDbMText
  8
Rotor Gear Text
 62
256
370
-1
  6
ByLayer
 10
250.0000266705245906
 20
35.2201722991164843
 30
0.0
 40
3.0
 41
100.0
 71
5
 72
2
  1
Rotor\~Gear
  7
standard
 50
0.0
 73
1
 44
1.0
  0
MTEXT
  5
316
100
AcDbEntity
100
AcDbMText
  8
Rotor Plate Text
 62
256
370
-1
  6
ByLayer
 10
250.0
 20
116.0
 30
0.0
 40
3.0
 41
100.0
 71
5
 72
2
  1
Rotor\~Plate
  7
standard
 50
0.0
 73
1
 44
1.0
  0
CIRCLE
  5
317
100
AcDbEntity
100
AcDbCircle
  8
Rotor Plate Text
 62
256
370
-1
  6
ByLayer
 10
249.9999850054043975
 20
153.7798160249545276
 30
0.0
 40
8.0
  0
CIRCLE
  5
318
100
AcDbEntity
100
AcDbCircle
  8
Rotor Plate
 62
256
370
-1
  6
ByLayer
 10
249.9999850054043975
 20
134.7798160249545276
 30
0.0
 40
27.0
  0
CIRCLE
  5
319
100
AcDbEntity
100
AcDbCircle
  8
Rotor Plate
 62
256
370
-1
  6
ByLayer
 10
249.9999850054043975
 20
153.7798160249545276
 30
0.0
 40
3.9300000000000002
  0
CIRCLE
  5
31A
100
AcDbEntity
100
AcDbCircle
  8
Rotor Plate
 62
256
370
-1
  6
ByLayer
 10
233.5455023335000533
 20
125.2798160249545418
 30
0.0
 40
3.9300000000000002
  0
CIRCLE
  5
31B
100
AcDbEntity
100
AcDbCircle
  8
Rotor Plate
 62
256
370
-1
  6
ByLayer
 10
266.4544676773087417
 20
125.2798160249545134
 30
0.0
 40
3.9300000000000002
  0
CIRCLE
  5
31C
100
AcDbEntity
100
AcDbCircle
  8
Rotor Plate Text
 62
256
370
-1
  6
ByLayer
 10
233.5455023335000533
 20
125.2798160249545418
 30
0.0
 40
8.0
  0
CIRCLE
  5
31D
100
AcDbEntity
100
AcDbCircle
  8
Rotor Plate Text
 62
256
370
-1
  6
ByLayer
 10
266.4544676773087417
 20
125.2798160249545134
 30
0.0
 40
8.0
  0
CIRCLE
  5
31E
100
AcDbEntity
100
AcDbCircle
  8
Rotor Plate
 62
256
370
-1
  6
ByLayer
 10
249.9999850054043975
 20
134.7798160249545276
 30
0.0
 40
3.9300000000000002
  0
ENDSEC
  0
SECTION
  2
OBJECTS
  0
DICTIONARY
  5
C
100
AcDbDictionary
280
0
281
1
  3
ACAD_GROUP
350
D
  3
ACAD_LAYOUT
350
1A
  3
ACAD_MLINESTYLE
350
17
  3
ACAD_PLOTSETTINGS
350
19
  3
ACAD_PLOTSTYLENAME
350
E
  3
AcDbVariableDictionary
350
31F
  0
DICTIONARY
  5
D
100
AcDbDictionary
280
0
281
1
  0
ACDBDICTIONARYWDFLT
  5
E
100
AcDbDictionary
281
1
  3
Normal
350
F
100
AcDbDictionaryWithDefault
340
F
  0
ACDBPLACEHOLDER
  5
F
  0
DICTIONARY
  5
17
100
AcDbDictionary
280
0
281
1
  3
Standard
350
18
  0
MLINESTYLE
  5
18
100
AcDbMlineStyle
  2
STANDARD
 70
0
  3

 62
256
 51
90.0
 52
90.0
 71
2
 49
0.5
 62
256
  6
BYLAYER
 49
-0.5
 62
256
  6
BYLAYER
  0
DICTIONARY
  5
19
100
AcDbDictionary
280
0
281
1
  0
DICTIONARY
  5
1A
100
AcDbDictionary
281
1
  3
Layout1
350
1E
  3
Layout2
350
26
  3
Model
350
22
  0
LAYOUT
  5
1E
100
AcDbPlotSettings
  1

  2
C:\Program Files\AutoCAD 2002\plotters\DWF ePlot (optimized for plotting).pc3
  4

  6

 40
0.0
 41
0.0
 42
0.0
 43
0.0
 44
0.0
 45
0.0
 46
0.0
 47
0.0
 48
0.0
 49
0.0
140
0.0
141
0.0
142
1.0
143
1.0
 70
688
 72
0
 73
0
 74
5
  7

 75
16
147
1.0
148
0.0
149
0.0
100
AcDbLayout
  1
Layout1
 70
1
 71
1
 10
0.0
 20
0.0
 11
420.0
 21
297.0
 12
0.0
 22
0.0
 32
0.0
 14
100000000000000000000.0
 24
100000000000000000000.0
 34
100000000000000000000.0
 15
-100000000000000000000.0
 25
-100000000000000000000.0
 35
-100000000000000000000.0
146
0.0
 13
0.0
 23
0.0
 33
0.0
 16
1.0
 26
0.0
 36
0.0
 17
0.0
 27
1.0
 37
0.0
 76
0
330
1B
  0
LAYOUT
  5
22
100
AcDbPlotSettings
  1

  2
C:\Program Files\AutoCAD 2002\plotters\DWF ePlot (optimized for plotting).pc3
  4

  6

 40
0.0
 41
0.0
 42
0.0
 43
0.0
 44
0.0
 45
0.0
 46
0.0
 47
0.0
 48
0.0
 49
0.0
140
0.0
141
0.0
142
1.0
143
1.0
 70
1712
 72
0
 73
0
 74
0
  7

 75
0
147
1.0
148
0.0
149
0.0
100
AcDbLayout
  1
Model
 70
1
 71
0
 10
0.0
 20
0.0
 11
12.0
 21
9.0
 12
0.0
 22
0.0
 32
0.0
 14
0.0
 24
0.0
 34
0.0
 15
0.0
 25
0.0
 35
0.0
146
0.0
 13
0.0
 23
0.0
 33
0.0
 16
1.0
 26
0.0
 36
0.0
 17
0.0
 27
1.0
 37
0.0
 76
0
330
1F
  0
LAYOUT
  5
26
100
AcDbPlotSettings
  1

  2
C:\Program Files\AutoCAD 2002\plotters\DWF ePlot (optimized for plotting).pc3
  4

  6

 40
0.0
 41
0.0
 42
0.0
 43
0.0
 44
0.0
 45
0.0
 46
0.0
 47
0.0
 48
0.0
 49
0.0
140
0.0
141
0.0
142
1.0
143
1.0
 70
688
 72
0
 73
0
 74
5
  7

 75
16
147
1.0
148
0.0
149
0.0
100
AcDbLayout
  1
Layout2
 70
1
 71
2
 10
0.0
 20
0.0
 11
12.0
 21
9.0
 12
0.0
 22
0.0
 32
0.0
 14
0.0
 24
0.0
 34
0.0
 15
0.0
 25
0.0
 35
0.0
146
0.0
 13
0.0
 23
0.0
 33
0.0
 16
1.0
 26
0.0
 36
0.0
 17
0.0
 27
1.0
 37
0.0
 76
0
330
23
  0
DICTIONARY
  5
31F
100
AcDbDictionary
281
1
  3
DIMASSOC
350
321
  3
HIDETEXT
350
320
  0
DICTIONARYVAR
  5
320
100
DictionaryVariables
280
0
  1
2
  0
DICTIONARYVAR
  5
321
100
DictionaryVariables
280
0
  1
1
  0
ENDSEC
  0
EOF
