999
dxflib 2.2.0.0
  0
SECTION
  2
HEADER
  9
$ACADVER
  1
AC1015
  9
$HANDSEED
  5
FFFF
  9
$DIMASZ
 40
2.5
  9
$PLIMMIN
 10
0.0
 20
0.0
  9
$DIMEXE
 40
1.25
  9
$DIMGAP
 40
0.625
  9
$PLIMMAX
 10
210.0
 20
297.0
  9
$INSUNITS
 70
4
  9
$DIMSTYLE
  2
Standard
  9
$CLAYER
  8
Layer 6
  9
$DIMEXO
 40
0.625
  9
$DIMTXT
 40
2.5
  9
$CLAYER
  8
Layer 4
  0
ENDSEC
  0
SECTION
  2
TABLES
  0
TABLE
  2
VPORT
  5
8
100
AcDbSymbolTable
 70
1
  0
VPORT
  5
30
100
AcDbSymbolTableRecord
100
AcDbViewportTableRecord
  2
*Active
 70
0
 10
0.0
 20
0.0
 11
1.0
 21
1.0
 12
286.3055555555554861
 22
148.5
 13
0.0
 23
0.0
 14
10.0
 24
10.0
 15
10.0
 25
10.0
 16
0.0
 26
0.0
 36
1.0
 17
0.0
 27
0.0
 37
0.0
 40
297.0
 41
1.92798353909465
 42
50.0
 43
0.0
 44
0.0
 50
0.0
 51
0.0
 71
0
 72
100
 73
1
 74
3
 75
1
 76
1
 77
0
 78
0
281
0
 65
1
110
0.0
120
0.0
130
0.0
111
1.0
121
0.0
131
0.0
112
0.0
122
1.0
132
0.0
 79
0
146
0.0
  0
ENDTAB
  0
TABLE
  2
LTYPE
  5
5
100
AcDbSymbolTable
 70
21
  0
LTYPE
  5
14
100
AcDbSymbolTableRecord
100
AcDbLinetypeTableRecord
  2
ByBlock
 70
0
  3

 72
65
 73
0
 40
0.0
  0
LTYPE
  5
15
100
AcDbSymbolTableRecord
100
AcDbLinetypeTableRecord
  2
ByLayer
 70
0
  3

 72
65
 73
0
 40
0.0
  0
LTYPE
  5
16
100
AcDbSymbolTableRecord
100
AcDbLinetypeTableRecord
  2
CONTINUOUS
 70
0
  3
Solid line
 72
65
 73
0
 40
0.0
  0
LTYPE
  5
31
100
AcDbSymbolTableRecord
100
AcDbLinetypeTableRecord
  2
DOT
 70
0
  3
Dot . . . . . . . . . . . . . . . . . . . . . .
 72
65
 73
2
 40
6.3499999999999996
 49
0.0
 74
0
 49
-6.3499999999999996
 74
0
  0
LTYPE
  5
32
100
AcDbSymbolTableRecord
100
AcDbLinetypeTableRecord
  2
DOT2
 70
0
  3
Dot (.5x) .....................................
 72
65
 73
2
 40
3.1749999999999998
 49
0.0
 74
0
 49
-3.1749999999999998
 74
0
  0
LTYPE
  5
33
100
AcDbSymbolTableRecord
100
AcDbLinetypeTableRecord
  2
DOTX2
 70
0
  3
Dot (2x) .  .  .  .  .  .  .  .  .  .  .  .  .
 72
65
 73
2
 40
12.6999999999999993
 49
0.0
 74
0
 49
-12.6999999999999993
 74
0
  0
LTYPE
  5
34
100
AcDbSymbolTableRecord
100
AcDbLinetypeTableRecord
  2
DASHED
 70
0
  3
Dashed __ __ __ __ __ __ __ __ __ __ __ __ __ _
 72
65
 73
2
 40
19.0500000000000007
 49
12.6999999999999993
 74
0
 49
-6.3499999999999996
 74
0
  0
LTYPE
  5
35
100
AcDbSymbolTableRecord
100
AcDbLinetypeTableRecord
  2
DASHED2
 70
0
  3
Dashed (.5x) _ _ _ _ _ _ _ _ _ _ _ _ _ _ _ _ _
 72
65
 73
2
 40
9.5250000000000004
 49
6.3499999999999996
 74
0
 49
-3.1749999999999998
 74
0
  0
LTYPE
  5
36
100
AcDbSymbolTableRecord
100
AcDbLinetypeTableRecord
  2
DASHEDX2
 70
0
  3
Dashed (2x) ____  ____  ____  ____  ____  ___
 72
65
 73
2
 40
38.1000000000000014
 49
25.3999999999999986
 74
0
 49
-12.6999999999999993
 74
0
  0
LTYPE
  5
37
100
AcDbSymbolTableRecord
100
AcDbLinetypeTableRecord
  2
DASHDOT
 70
0
  3
Dash dot __ . __ . __ . __ . __ . __ . __ . __
 72
65
 73
4
 40
25.3999999999999986
 49
12.6999999999999993
 74
0
 49
-6.3499999999999996
 74
0
 49
0.0
 74
0
 49
-6.3499999999999996
 74
0
  0
LTYPE
  5
38
100
AcDbSymbolTableRecord
100
AcDbLinetypeTableRecord
  2
DASHDOT2
 70
0
  3
Dash dot (.5x) _._._._._._._._._._._._._._._.
 72
65
 73
4
 40
12.6999999999999993
 49
6.3499999999999996
 74
0
 49
-3.1749999999999998
 74
0
 49
0.0
 74
0
 49
-3.1749999999999998
 74
0
  0
LTYPE
  5
39
100
AcDbSymbolTableRecord
100
AcDbLinetypeTableRecord
  2
DASHDOTX2
 70
0
  3
Dash dot (2x) ____  .  ____  .  ____  .  ___
 72
65
 73
4
 40
50.7999999999999972
 49
25.3999999999999986
 74
0
 49
-12.6999999999999993
 74
0
 49
0.0
 74
0
 49
-12.6999999999999993
 74
0
  0
LTYPE
  5
3A
100
AcDbSymbolTableRecord
100
AcDbLinetypeTableRecord
  2
DIVIDE
 70
0
  3
Divide ____ . . ____ . . ____ . . ____ . . ____
 72
65
 73
6
 40
31.75
 49
12.6999999999999993
 74
0
 49
-6.3499999999999996
 74
0
 49
0.0
 74
0
 49
-6.3499999999999996
 74
0
 49
0.0
 74
0
 49
-6.3499999999999996
 74
0
  0
LTYPE
  5
3B
100
AcDbSymbolTableRecord
100
AcDbLinetypeTableRecord
  2
DIVIDE2
 70
0
  3
Divide (.5x) __..__..__..__..__..__..__..__.._
 72
65
 73
6
 40
15.875
 49
6.3499999999999996
 74
0
 49
-3.1749999999999998
 74
0
 49
0.0
 74
0
 49
-3.1749999999999998
 74
0
 49
0.0
 74
0
 49
-3.1749999999999998
 74
0
  0
LTYPE
  5
3C
100
AcDbSymbolTableRecord
100
AcDbLinetypeTableRecord
  2
DIVIDEX2
 70
0
  3
Divide (2x) ________  .  .  ________  .  .  _
 72
65
 73
6
 40
63.5
 49
25.3999999999999986
 74
0
 49
-12.6999999999999993
 74
0
 49
0.0
 74
0
 49
-12.6999999999999993
 74
0
 49
0.0
 74
0
 49
-12.6999999999999993
 74
0
  0
LTYPE
  5
3D
100
AcDbSymbolTableRecord
100
AcDbLinetypeTableRecord
  2
CENTER
 70
0
  3
Center ____ _ ____ _ ____ _ ____ _ ____ _ ____
 72
65
 73
4
 40
50.7999999999999972
 49
31.75
 74
0
 49
-6.3499999999999996
 74
0
 49
6.3499999999999996
 74
0
 49
-6.3499999999999996
 74
0
  0
LTYPE
  5
3E
100
AcDbSymbolTableRecord
100
AcDbLinetypeTableRecord
  2
CENTER2
 70
0
  3
Center (.5x) ___ _ ___ _ ___ _ ___ _ ___ _ ___
 72
65
 73
4
 40
28.5749999999999993
 49
19.0500000000000007
 74
0
 49
-3.1749999999999998
 74
0
 49
3.1749999999999998
 74
0
 49
-3.1749999999999998
 74
0
  0
LTYPE
  5
3F
100
AcDbSymbolTableRecord
100
AcDbLinetypeTableRecord
  2
CENTERX2
 70
0
  3
Center (2x) ________  __  ________  __  _____
 72
65
 73
4
 40
101.5999999999999943
 49
63.5
 74
0
 49
-12.6999999999999993
 74
0
 49
12.6999999999999993
 74
0
 49
-12.6999999999999993
 74
0
  0
LTYPE
  5
40
100
AcDbSymbolTableRecord
100
AcDbLinetypeTableRecord
  2
BORDER
 70
0
  3
Border __ __ . __ __ . __ __ . __ __ . __ __ .
 72
65
 73
6
 40
44.4500000000000028
 49
12.6999999999999993
 74
0
 49
-6.3499999999999996
 74
0
 49
12.6999999999999993
 74
0
 49
-6.3499999999999996
 74
0
 49
0.0
 74
0
 49
-6.3499999999999996
 74
0
  0
LTYPE
  5
41
100
AcDbSymbolTableRecord
100
AcDbLinetypeTableRecord
  2
BORDER2
 70
0
  3
Border (.5x) __.__.__.__.__.__.__.__.__.__.__.
 72
65
 73
6
 40
22.2250000000000014
 49
6.3499999999999996
 74
0
 49
-3.1749999999999998
 74
0
 49
6.3499999999999996
 74
0
 49
-3.1749999999999998
 74
0
 49
0.0
 74
0
 49
-3.1749999999999998
 74
0
  0
LTYPE
  5
42
100
AcDbSymbolTableRecord
100
AcDbLinetypeTableRecord
  2
BORDERX2
 70
0
  3
Border (2x) ____  ____  .  ____  ____  .  ___
 72
65
 73
6
 40
88.9000000000000057
 49
25.3999999999999986
 74
0
 49
-12.6999999999999993
 74
0
 49
25.3999999999999986
 74
0
 49
-12.6999999999999993
 74
0
 49
0.0
 74
0
 49
-12.6999999999999993
 74
0
  0
ENDTAB
  0
TABLE
  2
LAYER
  5
2
100
AcDbSymbolTable
 70
30
  0
LAYER
  5
10
100
AcDbSymbolTableRecord
100
AcDbLayerTableRecord
  2
0
 70
0
 62
7
420
16777215
  6
CONTINUOUS
370
0
390
F
  0
LAYER
  5
43
100
AcDbSymbolTableRecord
100
AcDbLayerTableRecord
  2
Drawings
 70
0
 62
5
420
255
  6
CONTINUOUS
370
0
390
F
  0
LAYER
  5
44
100
AcDbSymbolTableRecord
100
AcDbLayerTableRecord
  2
Rotor Plate
 70
0
 62
7
420
16777215
  6
CONTINUOUS
370
0
390
F
  0
LAYER
  5
45
100
AcDbSymbolTableRecord
100
AcDbLayerTableRecord
  2
Bearings
 70
0
 62
3
420
65280
  6
CONTINUOUS
370
0
390
F
  0
LAYER
  5
46
100
AcDbSymbolTableRecord
100
AcDbLayerTableRecord
  2
M8 Nut
 70
0
 62
3
420
65280
  6
CONTINUOUS
370
0
390
F
  0
LAYER
  5
47
100
AcDbSymbolTableRecord
100
AcDbLayerTableRecord
  2
Layer 8
 70
0
 62
7
420
16777215
  6
CONTINUOUS
370
0
390
F
  0
LAYER
  5
48
100
AcDbSymbolTableRecord
100
AcDbLayerTableRecord
  2
Layer 7
 70
0
 62
7
420
16777215
  6
CONTINUOUS
370
0
390
F
  0
LAYER
  5
49
100
AcDbSymbolTableRecord
100
AcDbLayerTableRecord
  2
Layer 6
 70
0
 62
7
420
16777215
  6
CONTINUOUS
370
0
390
F
  0
LAYER
  5
4A
100
AcDbSymbolTableRecord
100
AcDbLayerTableRecord
  2
Layer 4
 70
0
 62
7
420
16777215
  6
CONTINUOUS
370
0
390
F
  0
LAYER
  5
4B
100
AcDbSymbolTableRecord
100
AcDbLayerTableRecord
  2
Layer 3
 70
0
 62
7
420
16777215
  6
CONTINUOUS
370
0
390
F
  0
LAYER
  5
4C
100
AcDbSymbolTableRecord
100
AcDbLayerTableRecord
  2
Layer 2
 70
0
 62
7
420
16777215
  6
CONTINUOUS
370
0
390
F
  0
LAYER
  5
4D
100
AcDbSymbolTableRecord
100
AcDbLayerTableRecord
  2
Layer 1
 70
0
 62
7
420
16777215
  6
CONTINUOUS
370
0
390
F
  0
LAYER
  5
4E
100
AcDbSymbolTableRecord
100
AcDbLayerTableRecord
  2
Motor Gear
 70
0
 62
7
420
16777215
  6
CONTINUOUS
370
0
390
F
  0
LAYER
  5
4F
100
AcDbSymbolTableRecord
100
AcDbLayerTableRecord
  2
Rotor Gear
 70
0
 62
7
420
16777215
  6
CONTINUOUS
370
0
390
F
  0
LAYER
  5
50
100
AcDbSymbolTableRecord
100
AcDbLayerTableRecord
  2
Motor
 70
0
 62
3
420
65280
  6
CONTINUOUS
370
0
390
F
  0
LAYER
  5
51
100
AcDbSymbolTableRecord
100
AcDbLayerTableRecord
  2
Original Nut
 70
0
 62
5
420
255
  6
CONTINUOUS
370
0
390
F
  0
LAYER
  5
52
100
AcDbSymbolTableRecord
100
AcDbLayerTableRecord
  2
Layer 8 Text
 70
0
 62
4
420
65535
  6
CONTINUOUS
370
0
390
F
  0
LAYER
  5
53
100
AcDbSymbolTableRecord
100
AcDbLayerTableRecord
  2
Layer 7 Text
 70
0
 62
4
420
65535
  6
CONTINUOUS
370
0
390
F
  0
LAYER
  5
54
100
AcDbSymbolTableRecord
100
AcDbLayerTableRecord
  2
Layer 6 Text
 70
0
 62
4
420
65535
  6
CONTINUOUS
370
0
390
F
  0
LAYER
  5
55
100
AcDbSymbolTableRecord
100
AcDbLayerTableRecord
  2
Layer 4 Text
 70
0
 62
4
420
65535
  6
CONTINUOUS
370
0
390
F
  0
LAYER
  5
56
100
AcDbSymbolTableRecord
100
AcDbLayerTableRecord
  2
Layer 3 Text
 70
0
 62
4
420
65535
  6
CONTINUOUS
370
0
390
F
  0
LAYER
  5
57
100
AcDbSymbolTableRecord
100
AcDbLayerTableRecord
  2
Layer 2 Text
 70
0
 62
4
420
65535
  6
CONTINUOUS
370
0
390
F
  0
LAYER
  5
58
100
AcDbSymbolTableRecord
100
AcDbLayerTableRecord
  2
Layer 1 Text
 70
0
 62
4
420
65535
  6
CONTINUOUS
370
0
390
F
  0
LAYER
  5
59
100
AcDbSymbolTableRecord
100
AcDbLayerTableRecord
  2
Motor Gear Text
 70
0
 62
4
420
65535
  6
CONTINUOUS
370
0
390
F
  0
LAYER
  5
5A
100
AcDbSymbolTableRecord
100
AcDbLayerTableRecord
  2
Rotor Gear Text
 70
0
 62
4
420
65535
  6
CONTINUOUS
370
0
390
F
  0
LAYER
  5
5B
100
AcDbSymbolTableRecord
100
AcDbLayerTableRecord
  2
Rotor Plate Text
 70
0
 62
4
420
65535
  6
CONTINUOUS
370
0
390
F
  0
LAYER
  5
5C
100
AcDbSymbolTableRecord
100
AcDbLayerTableRecord
  2
Layer 5
 70
0
 62
7
420
16777215
  6
CONTINUOUS
370
0
390
F
  0
LAYER
  5
5D
100
AcDbSymbolTableRecord
100
AcDbLayerTableRecord
  2
Layer 5 Text
 70
0
 62
4
420
65535
  6
CONTINUOUS
370
0
390
F
  0
LAYER
  5
5E
100
AcDbSymbolTableRecord
100
AcDbLayerTableRecord
  2
Drive Retainer
 70
0
 62
7
420
0
  6
CONTINUOUS
370
0
390
F
  0
LAYER
  5
5F
100
AcDbSymbolTableRecord
100
AcDbLayerTableRecord
  2
Drive Retainer Text
 70
0
 62
4
420
65535
  6
CONTINUOUS
370
0
390
F
  0
ENDTAB
  0
TABLE
  2
STYLE
  5
3
100
AcDbSymbolTable
 70
1
  0
STYLE
  5
11
100
AcDbSymbolTableRecord
100
AcDbTextStyleTableRecord
  2
Standard
 70
0
 40
0.0
 41
0.75
 50
0.0
 71
0
 42
2.5
  3
txt
  4

  0
ENDTAB
  0
TABLE
  2
VIEW
  5
6
100
AcDbSymbolTable
 70
0
  0
ENDTAB
  0
TABLE
  2
UCS
  5
7
100
AcDbSymbolTable
 70
0
  0
ENDTAB
  0
TABLE
  2
APPID
  5
9
100
AcDbSymbolTable
 70
1
  0
APPID
  5
12
100
AcDbSymbolTableRecord
100
AcDbRegAppTableRecord
  2
ACAD
 70
0
  0
ENDTAB
  0
TABLE
  2
DIMSTYLE
  5
A
100
AcDbSymbolTable
 70
1
100
AcDbDimStyleTable
 71
0
  0
DIMSTYLE
105
27
100
AcDbSymbolTableRecord
100
AcDbDimStyleTableRecord
  2
Standard
 41
2.5
 42
0.625
 43
3.75
 44
1.25
 70
0
 73
0
 74
0
 77
1
 78
8
140
2.5
141
2.5
143
0.03937007874016
147
0.625
171
3
172
1
271
2
272
2
274
3
278
44
283
0
284
8
340
11
  0
ENDTAB
  0
TABLE
  2
BLOCK_RECORD
  5
1
100
AcDbSymbolTable
 70
1
  0
BLOCK_RECORD
  5
1F
100
AcDbSymbolTableRecord
100
AcDbBlockTableRecord
  2
*Model_Space
340
22
  0
BLOCK_RECORD
  5
1B
100
AcDbSymbolTableRecord
100
AcDbBlockTableRecord
  2
*Paper_Space
340
1E
  0
BLOCK_RECORD
  5
23
100
AcDbSymbolTableRecord
100
AcDbBlockTableRecord
  2
*Paper_Space0
340
26
  0
ENDTAB
  0
ENDSEC
  0
SECTION
  2
BLOCKS
  0
BLOCK
  5
20
100
AcDbEntity
  8
0
100
AcDbBlockBegin
  2
*Model_Space
 70
0
 10
0.0
 20
0.0
 30
0.0
  3
*Model_Space
  1

  0
ENDBLK
  5
21
100
AcDbEntity
  8
0
100
AcDbBlockEnd
  0
BLOCK
  5
1C
100
AcDbEntity
 67
1
  8
0
100
AcDbBlockBegin
  2
*Paper_Space
 70
0
 10
0.0
 20
0.0
 30
0.0
  3
*Paper_Space
  1

  0
ENDBLK
  5
1D
100
AcDbEntity
 67
1
  8
0
100
AcDbBlockEnd
  0
BLOCK
  5
24
100
AcDbEntity
  8
0
100
AcDbBlockBegin
  2
*Paper_Space0
 70
0
 10
0.0
 20
0.0
 30
0.0
  3
*Paper_Space0
  1

  0
ENDBLK
  5
25
100
AcDbEntity
  8
0
100
AcDbBlockEnd
  0
ENDSEC
  0
SECTION
  2
ENTITIES
  0
CIRCLE
  5
60
100
AcDbEntity
100
AcDbCircle
  8
Drawings
 62
256
370
-1
  6
ByLayer
 10
49.9999850054043975
 20
34.7798160249545276
 30
0.0
 40
15.0
  0
CIRCLE
  5
61
100
AcDbEntity
100
AcDbCircle
  8
Bearings
 62
256
370
-1
  6
ByLayer
 10
49.9999850054043975
 20
53.7798160249545276
 30
0.0
 40
11.0
  0
LINE
  5
62
100
AcDbEntity
100
AcDbLine
  8
M8 Nut
 62
256
370
-1
  6
ByLayer
 10
42.4944320054043985
 20
34.7798160249545347
 30
0.0
 11
46.2472080054043886
 21
41.2798160249545276
 31
0.0
  0
LINE
  5
63
100
AcDbEntity
100
AcDbLine
  8
M8 Nut
 62
256
370
-1
  6
ByLayer
 10
46.2472080054043886
 20
41.2798160249545276
 30
0.0
 11
53.7527620054044064
 21
41.2798160249545276
 31
0.0
  0
LINE
  5
64
100
AcDbEntity
100
AcDbLine
  8
M8 Nut
 62
256
370
-1
  6
ByLayer
 10
53.7527620054044064
 20
41.2798160249545276
 30
0.0
 11
57.5055380054043965
 21
34.7798160249545276
 31
0.0
  0
LINE
  5
65
100
AcDbEntity
100
AcDbLine
  8
M8 Nut
 62
256
370
-1
  6
ByLayer
 10
42.4944320054043985
 20
34.7798160249545347
 30
0.0
 11
46.2472080054043886
 21
28.2798160249545347
 31
0.0
  0
LINE
  5
66
100
AcDbEntity
100
AcDbLine
  8
M8 Nut
 62
256
370
-1
  6
ByLayer
 10
46.2472080054043886
 20
28.2798160249545347
 30
0.0
 11
53.7527620054043993
 21
28.2798160249545276
 31
0.0
  0
LINE
  5
67
100
AcDbEntity
100
AcDbLine
  8
M8 Nut
 62
256
370
-1
  6
ByLayer
 10
53.7527620054043993
 20
28.2798160249545276
 30
0.0
 11
57.5055380054043965
 21
34.7798160249545276
 31
0.0
  0
CIRCLE
  5
68
100
AcDbEntity
100
AcDbCircle
  8
M8 Nut
 62
256
370
-1
  6
ByLayer
 10
49.9999850054043975
 20
34.7798160249545276
 30
0.0
 40
6.5
  0
CIRCLE
  5
69
100
AcDbEntity
100
AcDbCircle
  8
Drawings
 62
256
370
-1
  6
ByLayer
 10
49.9999850054043975
 20
34.7798160249545276
 30
0.0
 40
8.0
  0
LINE
  5
6A
100
AcDbEntity
100
AcDbLine
  8
Drawings
 62
256
370
-1
  6
ByLayer
 10
47.4999850054043975
 20
82.6731265266270583
 30
0.0
 11
52.4999850054043975
 21
82.6731265266270583
 31
0.0
  0
LINE
  5
6B
100
AcDbEntity
100
AcDbLine
  8
Rotor Gear
 62
256
370
-1
  6
ByLayer
 10
80.6357974552600467
 20
36.1598366065812158
 30
0.0
 11
81.9831340047350636
 21
35.8268251037217169
 31
0.0
  0
LINE
  5
6C
100
AcDbEntity
100
AcDbLine
  8
Rotor Gear
 62
256
370
-1
  6
ByLayer
 10
81.9831340047350636
 20
35.8268251037217169
 30
0.0
 11
83.3296327063434603
 21
35.2950536750279937
 31
0.0
  0
LINE
  5
6D
100
AcDbEntity
100
AcDbLine
  8
Rotor Gear
 62
256
370
-1
  6
ByLayer
 10
83.3296327063434603
 20
35.2950536750279937
 30
0.0
 11
83.3296327063434603
 21
34.2646017267389809
 31
0.0
  0
LINE
  5
6E
100
AcDbEntity
100
AcDbLine
  8
Rotor Gear
 62
256
370
-1
  6
ByLayer
 10
83.3296327063434603
 20
34.2646017267389809
 30
0.0
 11
81.9831340047350636
 21
33.7328302980452932
 31
0.0
  0
LINE
  5
6F
100
AcDbEntity
100
AcDbLine
  8
Rotor Gear
 62
256
370
-1
  6
ByLayer
 10
81.9831340047350636
 20
33.7328302980452932
 30
0.0
 11
80.6357974552600467
 21
33.3998187951857872
 31
0.0
  0
LINE
  5
70
100
AcDbEntity
100
AcDbLine
  8
Rotor Gear
 62
256
370
-1
  6
ByLayer
 10
80.6357974552600467
 20
33.3998187951857872
 30
0.0
 11
80.5539058040352813
 21
32.1492443978665889
 31
0.0
  0
LINE
  5
71
100
AcDbEntity
100
AcDbLine
  8
Rotor Gear
 62
256
370
-1
  6
ByLayer
 10
80.5539058040352813
 20
32.1492443978665889
 30
0.0
 11
81.846159607672007
 21
31.6432340081398067
 31
0.0
  0
LINE
  5
72
100
AcDbEntity
100
AcDbLine
  8
Rotor Gear
 62
256
370
-1
  6
ByLayer
 10
81.846159607672007
 20
31.6432340081398067
 30
0.0
 11
83.1118130402450959
 21
30.940348664749969
 31
0.0
  0
LINE
  5
73
100
AcDbEntity
100
AcDbLine
  8
Rotor Gear
 62
256
370
-1
  6
ByLayer
 10
83.1118130402450959
 20
30.940348664749969
 30
0.0
 11
82.9771429103440141
 21
29.9184844715650442
 31
0.0
  0
LINE
  5
74
100
AcDbEntity
100
AcDbLine
  8
Rotor Gear
 62
256
370
-1
  6
ByLayer
 10
82.9771429103440141
 20
29.9184844715650442
 30
0.0
 11
81.5728386428596082
 21
29.5670417998701183
 31
0.0
  0
LINE
  5
75
100
AcDbEntity
100
AcDbLine
  8
Rotor Gear
 62
256
370
-1
  6
ByLayer
 10
81.5728386428596082
 20
29.5670417998701183
 30
0.0
 11
80.1936668429134727
 21
29.4126833582761122
 31
0.0
  0
LINE
  5
76
100
AcDbEntity
100
AcDbLine
  8
Rotor Gear
 62
256
370
-1
  6
ByLayer
 10
80.1936668429134727
 20
29.4126833582761122
 30
0.0
 11
79.9492490320965885
 21
28.1836815027059231
 31
0.0
  0
LINE
  5
77
100
AcDbEntity
100
AcDbLine
  8
Rotor Gear
 62
256
370
-1
  6
ByLayer
 10
79.9492490320965885
 20
28.1836815027059231
 30
0.0
 11
81.1642182346023731
 21
27.5132599812159242
 31
0.0
  0
LINE
  5
78
100
AcDbEntity
100
AcDbLine
  8
Rotor Gear
 62
256
370
-1
  6
ByLayer
 10
81.1642182346023731
 20
27.5132599812159242
 30
0.0
 11
82.327246064183413
 21
26.6511991275853646
 31
0.0
  0
LINE
  5
79
100
AcDbEntity
100
AcDbLine
  8
Rotor Gear
 62
256
370
-1
  6
ByLayer
 10
82.327246064183413
 20
26.6511991275853646
 30
0.0
 11
82.0606271401888705
 21
25.6557245447960938
 31
0.0
  0
LINE
  5
7A
100
AcDbEntity
100
AcDbLine
  8
Rotor Gear
 62
256
370
-1
  6
ByLayer
 10
82.0606271401888705
 20
25.6557245447960938
 30
0.0
 11
80.6223933736243055
 21
25.4906848416041711
 31
0.0
  0
LINE
  5
7B
100
AcDbEntity
100
AcDbLine
  8
Rotor Gear
 62
256
370
-1
  6
ByLayer
 10
80.6223933736243055
 20
25.4906848416041711
 30
0.0
 11
79.2348445792420932
 21
25.5177030234285454
 31
0.0
  0
LINE
  5
7C
100
AcDbEntity
100
AcDbLine
  8
Rotor Gear
 62
256
370
-1
  6
ByLayer
 10
79.2348445792420932
 20
25.5177030234285454
 30
0.0
 11
78.8318790874982085
 21
24.3310084034895553
 31
0.0
  0
LINE
  5
7D
100
AcDbEntity
100
AcDbLine
  8
Rotor Gear
 62
256
370
-1
  6
ByLayer
 10
78.8318790874982085
 20
24.3310084034895553
 30
0.0
 11
79.9492490320965885
 21
23.507694117585892
 31
0.0
  0
LINE
  5
7E
100
AcDbEntity
100
AcDbLine
  8
Rotor Gear
 62
256
370
-1
  6
ByLayer
 10
79.9492490320965885
 20
23.507694117585892
 30
0.0
 11
80.9897536705548191
 21
22.5011189782078276
 31
0.0
  0
LINE
  5
7F
100
AcDbEntity
100
AcDbLine
  8
Rotor Gear
 62
256
370
-1
  6
ByLayer
 10
80.9897536705548191
 20
22.5011189782078276
 30
0.0
 11
80.5953751917998886
 21
21.5489987553543045
 31
0.0
  0
LINE
  5
80
100
AcDbEntity
100
AcDbLine
  8
Rotor Gear
 62
256
370
-1
  6
ByLayer
 10
80.5953751917998886
 20
21.5489987553543045
 30
0.0
 11
79.1479265829326835
 21
21.5730840985880761
 31
0.0
  0
LINE
  5
81
100
AcDbEntity
100
AcDbLine
  8
Rotor Gear
 62
256
370
-1
  6
ByLayer
 10
79.1479265829326835
 20
21.5730840985880761
 30
0.0
 11
77.7756668423573387
 21
21.7808503324021174
 31
0.0
  0
LINE
  5
82
100
AcDbEntity
100
AcDbLine
  8
Rotor Gear
 62
256
370
-1
  6
ByLayer
 10
77.7756668423573387
 20
21.7808503324021174
 30
0.0
 11
77.2214850240480644
 21
20.6571976419767083
 31
0.0
  0
LINE
  5
83
100
AcDbEntity
100
AcDbLine
  8
Rotor Gear
 62
256
370
-1
  6
ByLayer
 10
77.2214850240480644
 20
20.6571976419767083
 30
0.0
 11
78.2217766754840511
 21
19.6950239868388621
 31
0.0
  0
LINE
  5
84
100
AcDbEntity
100
AcDbLine
  8
Rotor Gear
 62
256
370
-1
  6
ByLayer
 10
78.2217766754840511
 20
19.6950239868388621
 30
0.0
 11
79.1219555254128011
 21
18.5613178641291405
 31
0.0
  0
LINE
  5
85
100
AcDbEntity
100
AcDbLine
  8
Rotor Gear
 62
256
370
-1
  6
ByLayer
 10
79.1219555254128011
 20
18.5613178641291405
 30
0.0
 11
78.6067295512683302
 21
17.6686789028848743
 31
0.0
  0
LINE
  5
86
100
AcDbEntity
100
AcDbLine
  8
Rotor Gear
 62
256
370
-1
  6
ByLayer
 10
78.6067295512683302
 20
17.6686789028848743
 30
0.0
 11
77.1747792726458499
 21
17.8814707396685186
 31
0.0
  0
LINE
  5
87
100
AcDbEntity
100
AcDbLine
  8
Rotor Gear
 62
256
370
-1
  6
ByLayer
 10
77.1747792726458499
 20
17.8814707396685186
 30
0.0
 11
75.8412660997973944
 21
18.2666336340057001
 31
0.0
  0
LINE
  5
88
100
AcDbEntity
100
AcDbLine
  8
Rotor Gear
 62
256
370
-1
  6
ByLayer
 10
75.8412660997973944
 20
18.2666336340057001
 30
0.0
 11
75.1452928157782765
 21
17.2248725948050421
 31
0.0
  0
LINE
  5
89
100
AcDbEntity
100
AcDbLine
  8
Rotor Gear
 62
256
370
-1
  6
ByLayer
 10
75.1452928157782765
 20
17.2248725948050421
 30
0.0
 11
76.01133289018901
 21
16.1403850249823577
 31
0.0
  0
LINE
  5
8A
100
AcDbEntity
100
AcDbLine
  8
Rotor Gear
 62
256
370
-1
  6
ByLayer
 10
76.01133289018901
 20
16.1403850249823577
 30
0.0
 11
76.7558968977814118
 21
14.8988169356429658
 31
0.0
  0
LINE
  5
8B
100
AcDbEntity
100
AcDbLine
  8
Rotor Gear
 62
256
370
-1
  6
ByLayer
 10
76.7558968977814118
 20
14.8988169356429658
 30
0.0
 11
76.1284104412363263
 21
14.0811575662526884
 31
0.0
  0
LINE
  5
8C
100
AcDbEntity
100
AcDbLine
  8
Rotor Gear
 62
256
370
-1
  6
ByLayer
 10
76.1284104412363263
 20
14.0811575662526884
 30
0.0
 11
74.736463131083184
 21
14.4790959707969193
 31
0.0
  0
LINE
  5
8D
100
AcDbEntity
100
AcDbLine
  8
Rotor Gear
 62
256
370
-1
  6
ByLayer
 10
74.736463131083184
 20
14.4790959707969193
 30
0.0
 11
73.464944763443782
 21
15.0349534848394093
 31
0.0
  0
LINE
  5
8E
100
AcDbEntity
100
AcDbLine
  8
Rotor Gear
 62
256
370
-1
  6
ByLayer
 10
73.464944763443782
 20
15.0349534848394093
 30
0.0
 11
72.6386983810644722
 21
14.0928866942702307
 31
0.0
  0
LINE
  5
8F
100
AcDbEntity
100
AcDbLine
  8
Rotor Gear
 62
256
370
-1
  6
ByLayer
 10
72.6386983810644722
 20
14.0928866942702307
 30
0.0
 11
73.3558256539567139
 21
12.904725655035918
 31
0.0
  0
LINE
  5
90
100
AcDbEntity
100
AcDbLine
  8
Rotor Gear
 62
256
370
-1
  6
ByLayer
 10
73.3558256539567139
 20
12.904725655035918
 30
0.0
 11
73.9319985668907123
 21
11.5766581222629164
 31
0.0
  0
LINE
  5
91
100
AcDbEntity
100
AcDbLine
  8
Rotor Gear
 62
256
370
-1
  6
ByLayer
 10
73.9319985668907123
 20
11.5766581222629164
 30
0.0
 11
73.2031429080959981
 21
10.8478024634682093
 31
0.0
  0
LINE
  5
92
100
AcDbEntity
100
AcDbLine
  8
Rotor Gear
 62
256
370
-1
  6
ByLayer
 10
73.2031429080959981
 20
10.8478024634682093
 30
0.0
 11
71.8750753753230072
 21
11.4239753764022041
 31
0.0
  0
LINE
  5
93
100
AcDbEntity
100
AcDbLine
  8
Rotor Gear
 62
256
370
-1
  6
ByLayer
 10
71.8750753753230072
 20
11.4239753764022041
 30
0.0
 11
70.6869143360886767
 21
12.1411026492944458
 31
0.0
  0
LINE
  5
94
100
AcDbEntity
100
AcDbLine
  8
Rotor Gear
 62
256
370
-1
  6
ByLayer
 10
70.6869143360886767
 20
12.1411026492944458
 30
0.0
 11
69.744847545519491
 21
11.3148562669151325
 31
0.0
  0
LINE
  5
95
100
AcDbEntity
100
AcDbLine
  8
Rotor Gear
 62
256
370
-1
  6
ByLayer
 10
69.744847545519491
 20
11.3148562669151325
 30
0.0
 11
70.3007050595620058
 21
10.0433378992757518
 31
0.0
  0
LINE
  5
96
100
AcDbEntity
100
AcDbLine
  8
Rotor Gear
 62
256
370
-1
  6
ByLayer
 10
70.3007050595620058
 20
10.0433378992757518
 30
0.0
 11
70.698643464106226
 21
8.6513905891225775
 31
0.0
  0
LINE
  5
97
100
AcDbEntity
100
AcDbLine
  8
Rotor Gear
 62
256
370
-1
  6
ByLayer
 10
70.698643464106226
 20
8.6513905891225775
 30
0.0
 11
69.8809840947159273
 21
8.0239041325775275
 31
0.0
  0
LINE
  5
98
100
AcDbEntity
100
AcDbLine
  8
Rotor Gear
 62
256
370
-1
  6
ByLayer
 10
69.8809840947159273
 20
8.0239041325775275
 30
0.0
 11
68.6394160053765745
 21
8.7684681401699436
 31
0.0
  0
LINE
  5
99
100
AcDbEntity
100
AcDbLine
  8
Rotor Gear
 62
256
370
-1
  6
ByLayer
 10
68.6394160053765745
 20
8.7684681401699436
 30
0.0
 11
67.5549284355538475
 21
9.6345082145806309
 31
0.0
  0
LINE
  5
9A
100
AcDbEntity
100
AcDbLine
  8
Rotor Gear
 62
256
370
-1
  6
ByLayer
 10
67.5549284355538475
 20
9.6345082145806309
 30
0.0
 11
66.5131673963532251
 21
8.9385349305615449
 31
0.0
  0
LINE
  5
9B
100
AcDbEntity
100
AcDbLine
  8
Rotor Gear
 62
256
370
-1
  6
ByLayer
 10
66.5131673963532251
 20
8.9385349305615449
 30
0.0
 11
66.89833029069041
 21
7.6050217577131107
 31
0.0
  0
LINE
  5
9C
100
AcDbEntity
100
AcDbLine
  8
Rotor Gear
 62
256
370
-1
  6
ByLayer
 10
66.89833029069041
 20
7.6050217577131107
 30
0.0
 11
67.1111221274740615
 21
6.1730714790906305
 31
0.0
  0
LINE
  5
9D
100
AcDbEntity
100
AcDbLine
  8
Rotor Gear
 62
256
370
-1
  6
ByLayer
 10
67.1111221274740615
 20
6.1730714790906305
 30
0.0
 11
66.2184831662297597
 21
5.6578455049461276
 31
0.0
  0
LINE
  5
9E
100
AcDbEntity
100
AcDbLine
  8
Rotor Gear
 62
256
370
-1
  6
ByLayer
 10
66.2184831662297597
 20
5.6578455049461276
 30
0.0
 11
65.0847770435200346
 21
6.5580243548748669
 31
0.0
  0
LINE
  5
9F
100
AcDbEntity
100
AcDbLine
  8
Rotor Gear
 62
256
370
-1
  6
ByLayer
 10
65.0847770435200346
 20
6.5580243548748669
 30
0.0
 11
64.1226033883822311
 21
7.558316006310875
 31
0.0
  0
LINE
  5
A0
100
AcDbEntity
100
AcDbLine
  8
Rotor Gear
 62
256
370
-1
  6
ByLayer
 10
64.1226033883822311
 20
7.558316006310875
 30
0.0
 11
62.9989506979568432
 21
7.004134188001597
 31
0.0
  0
LINE
  5
A1
100
AcDbEntity
100
AcDbLine
  8
Rotor Gear
 62
256
370
-1
  6
ByLayer
 10
62.9989506979568432
 20
7.004134188001597
 30
0.0
 11
63.2067169317708419
 21
5.6318744474262559
 31
0.0
  0
LINE
  5
A2
100
AcDbEntity
100
AcDbLine
  8
Rotor Gear
 62
256
370
-1
  6
ByLayer
 10
63.2067169317708419
 20
5.6318744474262559
 30
0.0
 11
63.230802275004578
 21
4.1844258385590045
 31
0.0
  0
LINE
  5
A3
100
AcDbEntity
100
AcDbLine
  8
Rotor Gear
 62
256
370
-1
  6
ByLayer
 10
63.230802275004578
 20
4.1844258385590045
 30
0.0
 11
62.2786820521510549
 21
3.7900473598041096
 31
0.0
  0
LINE
  5
A4
100
AcDbEntity
100
AcDbLine
  8
Rotor Gear
 62
256
370
-1
  6
ByLayer
 10
62.2786820521510549
 20
3.7900473598041096
 30
0.0
 11
61.2721069127729834
 21
4.8305519982623437
 31
0.0
  0
LINE
  5
A5
100
AcDbEntity
100
AcDbLine
  8
Rotor Gear
 62
256
370
-1
  6
ByLayer
 10
61.2721069127729834
 20
4.8305519982623437
 30
0.0
 11
60.4487926268693627
 21
5.9479219428607024
 31
0.0
  0
LINE
  5
A6
100
AcDbEntity
100
AcDbLine
  8
Rotor Gear
 62
256
370
-1
  6
ByLayer
 10
60.4487926268693627
 20
5.9479219428607024
 30
0.0
 11
59.2620980069303585
 21
5.5449564511168425
 31
0.0
  0
LINE
  5
A7
100
AcDbEntity
100
AcDbLine
  8
Rotor Gear
 62
256
370
-1
  6
ByLayer
 10
59.2620980069303585
 20
5.5449564511168425
 30
0.0
 11
59.2891161887547753
 21
4.1574076567346161
 31
0.0
  0
LINE
  5
A8
100
AcDbEntity
100
AcDbLine
  8
Rotor Gear
 62
256
370
-1
  6
ByLayer
 10
59.2891161887547753
 20
4.1574076567346161
 30
0.0
 11
59.1240764855628242
 21
2.7191738901700546
 31
0.0
  0
LINE
  5
A9
100
AcDbEntity
100
AcDbLine
  8
Rotor Gear
 62
256
370
-1
  6
ByLayer
 10
59.1240764855628242
 20
2.7191738901700546
 30
0.0
 11
58.1286019027735392
 21
2.4525549661755193
 31
0.0
  0
LINE
  5
AA
100
AcDbEntity
100
AcDbLine
  8
Rotor Gear
 62
256
370
-1
  6
ByLayer
 10
58.1286019027735392
 20
2.4525549661755193
 30
0.0
 11
57.2665410491430293
 21
3.6155827957565698
 31
0.0
  0
LINE
  5
AB
100
AcDbEntity
100
AcDbLine
  8
Rotor Gear
 62
256
370
-1
  6
ByLayer
 10
57.2665410491430293
 20
3.6155827957565698
 30
0.0
 11
56.596119527653002
 21
4.8305519982623473
 31
0.0
  0
LINE
  5
AC
100
AcDbEntity
100
AcDbLine
  8
Rotor Gear
 62
256
370
-1
  6
ByLayer
 10
56.596119527653002
 20
4.8305519982623473
 30
0.0
 11
55.3671176720827702
 21
4.586134187445488
 31
0.0
  0
LINE
  5
AD
100
AcDbEntity
100
AcDbLine
  8
Rotor Gear
 62
256
370
-1
  6
ByLayer
 10
55.3671176720827702
 20
4.586134187445488
 30
0.0
 11
55.2127592304887855
 21
3.2069623874993169
 31
0.0
  0
LINE
  5
AE
100
AcDbEntity
100
AcDbLine
  8
Rotor Gear
 62
256
370
-1
  6
ByLayer
 10
55.2127592304887855
 20
3.2069623874993169
 30
0.0
 11
54.8613165587938738
 21
1.8026581200149181
 31
0.0
  0
LINE
  5
AF
100
AcDbEntity
100
AcDbLine
  8
Rotor Gear
 62
256
370
-1
  6
ByLayer
 10
54.8613165587938738
 20
1.8026581200149181
 30
0.0
 11
53.8394523656089348
 21
1.667987990113815
 31
0.0
  0
LINE
  5
B0
100
AcDbEntity
100
AcDbLine
  8
Rotor Gear
 62
256
370
-1
  6
ByLayer
 10
53.8394523656089348
 20
1.667987990113815
 30
0.0
 11
53.1365670222190829
 21
2.9336414226869181
 31
0.0
  0
LINE
  5
B1
100
AcDbEntity
100
AcDbLine
  8
Rotor Gear
 62
256
370
-1
  6
ByLayer
 10
53.1365670222190829
 20
2.9336414226869181
 30
0.0
 11
52.6305566324923291
 21
4.2258952263236509
 31
0.0
  0
LINE
  5
B2
100
AcDbEntity
100
AcDbLine
  8
Rotor Gear
 62
256
370
-1
  6
ByLayer
 10
52.6305566324923291
 20
4.2258952263236509
 30
0.0
 11
51.3799822351731166
 21
4.1440035750988891
 31
0.0
  0
LINE
  5
B3
100
AcDbEntity
100
AcDbLine
  8
Rotor Gear
 62
256
370
-1
  6
ByLayer
 10
51.3799822351731166
 20
4.1440035750988891
 30
0.0
 11
51.0469707323136106
 21
2.7966670256238757
 31
0.0
  0
LINE
  5
B4
100
AcDbEntity
100
AcDbLine
  8
Rotor Gear
 62
256
370
-1
  6
ByLayer
 10
51.0469707323136106
 20
2.7966670256238757
 30
0.0
 11
50.5151993036198519
 21
1.4501683240154648
 31
0.0
  0
LINE
  5
B5
100
AcDbEntity
100
AcDbLine
  8
Rotor Gear
 62
256
370
-1
  6
ByLayer
 10
50.5151993036198519
 20
1.4501683240154648
 30
0.0
 11
49.4847473553309385
 21
1.4501683240154648
 31
0.0
  0
LINE
  5
B6
100
AcDbEntity
100
AcDbLine
  8
Rotor Gear
 62
256
370
-1
  6
ByLayer
 10
49.4847473553309385
 20
1.4501683240154648
 30
0.0
 11
48.9529759266371798
 21
2.7966670256238757
 31
0.0
  0
LINE
  5
B7
100
AcDbEntity
100
AcDbLine
  8
Rotor Gear
 62
256
370
-1
  6
ByLayer
 10
48.9529759266371798
 20
2.7966670256238757
 30
0.0
 11
48.6199644237776738
 21
4.1440035750988926
 31
0.0
  0
LINE
  5
B8
100
AcDbEntity
100
AcDbLine
  8
Rotor Gear
 62
256
370
-1
  6
ByLayer
 10
48.6199644237776738
 20
4.1440035750988926
 30
0.0
 11
47.3693900264584613
 21
4.2258952263236509
 31
0.0
  0
LINE
  5
B9
100
AcDbEntity
100
AcDbLine
  8
Rotor Gear
 62
256
370
-1
  6
ByLayer
 10
47.3693900264584613
 20
4.2258952263236509
 30
0.0
 11
46.8633796367317359
 21
2.9336414226869181
 31
0.0
  0
LINE
  5
BA
100
AcDbEntity
100
AcDbLine
  8
Rotor Gear
 62
256
370
-1
  6
ByLayer
 10
46.8633796367317359
 20
2.9336414226869181
 30
0.0
 11
46.160494293341884
 21
1.667987990113815
 31
0.0
  0
LINE
  5
BB
100
AcDbEntity
100
AcDbLine
  8
Rotor Gear
 62
256
370
-1
  6
ByLayer
 10
46.160494293341884
 20
1.667987990113815
 30
0.0
 11
45.1386301001569166
 21
1.8026581200149181
 31
0.0
  0
LINE
  5
BC
100
AcDbEntity
100
AcDbLine
  8
Rotor Gear
 62
256
370
-1
  6
ByLayer
 10
45.1386301001569166
 20
1.8026581200149181
 30
0.0
 11
44.7871874284620048
 21
3.2069623874993205
 31
0.0
  0
LINE
  5
BD
100
AcDbEntity
100
AcDbLine
  8
Rotor Gear
 62
256
370
-1
  6
ByLayer
 10
44.7871874284620048
 20
3.2069623874993205
 30
0.0
 11
44.6328289868680486
 21
4.586134187445488
 31
0.0
  0
LINE
  5
BE
100
AcDbEntity
100
AcDbLine
  8
Rotor Gear
 62
256
370
-1
  6
ByLayer
 10
44.6328289868680486
 20
4.586134187445488
 30
0.0
 11
43.4038271312977884
 21
4.8305519982623544
 31
0.0
  0
LINE
  5
BF
100
AcDbEntity
100
AcDbLine
  8
Rotor Gear
 62
256
370
-1
  6
ByLayer
 10
43.4038271312977884
 20
4.8305519982623544
 30
0.0
 11
42.7334056098077895
 21
3.6155827957565698
 31
0.0
  0
LINE
  5
C0
100
AcDbEntity
100
AcDbLine
  8
Rotor Gear
 62
256
370
-1
  6
ByLayer
 10
42.7334056098077895
 20
3.6155827957565698
 30
0.0
 11
41.8713447561772512
 21
2.4525549661755193
 31
0.0
  0
LINE
  5
C1
100
AcDbEntity
100
AcDbLine
  8
Rotor Gear
 62
256
370
-1
  6
ByLayer
 10
41.8713447561772512
 20
2.4525549661755193
 30
0.0
 11
40.8758701733879946
 21
2.7191738901700546
 31
0.0
  0
LINE
  5
C2
100
AcDbEntity
100
AcDbLine
  8
Rotor Gear
 62
256
370
-1
  6
ByLayer
 10
40.8758701733879946
 20
2.7191738901700546
 30
0.0
 11
40.7108304701960151
 21
4.1574076567346196
 31
0.0
  0
LINE
  5
C3
100
AcDbEntity
100
AcDbLine
  8
Rotor Gear
 62
256
370
-1
  6
ByLayer
 10
40.7108304701960151
 20
4.1574076567346196
 30
0.0
 11
40.7378486520204603
 21
5.5449564511168425
 31
0.0
  0
LINE
  5
C4
100
AcDbEntity
100
AcDbLine
  8
Rotor Gear
 62
256
370
-1
  6
ByLayer
 10
40.7378486520204603
 20
5.5449564511168425
 30
0.0
 11
39.5511540320814277
 21
5.9479219428607131
 31
0.0
  0
LINE
  5
C5
100
AcDbEntity
100
AcDbLine
  8
Rotor Gear
 62
256
370
-1
  6
ByLayer
 10
39.5511540320814277
 20
5.9479219428607131
 30
0.0
 11
38.727839746177807
 21
4.8305519982623473
 31
0.0
  0
LINE
  5
C6
100
AcDbEntity
100
AcDbLine
  8
Rotor Gear
 62
256
370
-1
  6
ByLayer
 10
38.727839746177807
 20
4.8305519982623473
 30
0.0
 11
37.7212646067997355
 21
3.7900473598041131
 31
0.0
  0
LINE
  5
C7
100
AcDbEntity
100
AcDbLine
  8
Rotor Gear
 62
256
370
-1
  6
ByLayer
 10
37.7212646067997355
 20
3.7900473598041131
 30
0.0
 11
36.7691443839462409
 21
4.1844258385590081
 31
0.0
  0
LINE
  5
C8
100
AcDbEntity
100
AcDbLine
  8
Rotor Gear
 62
256
370
-1
  6
ByLayer
 10
36.7691443839462409
 20
4.1844258385590081
 30
0.0
 11
36.7932297271799769
 21
5.6318744474262594
 31
0.0
  0
LINE
  5
C9
100
AcDbEntity
100
AcDbLine
  8
Rotor Gear
 62
256
370
-1
  6
ByLayer
 10
36.7932297271799769
 20
5.6318744474262594
 30
0.0
 11
37.0009959609939756
 21
7.0041341880016077
 31
0.0
  0
LINE
  5
CA
100
AcDbEntity
100
AcDbLine
  8
Rotor Gear
 62
256
370
-1
  6
ByLayer
 10
37.0009959609939756
 20
7.0041341880016077
 30
0.0
 11
35.8773432705685593
 21
7.5583160063108785
 31
0.0
  0
LINE
  5
CB
100
AcDbEntity
100
AcDbLine
  8
Rotor Gear
 62
256
370
-1
  6
ByLayer
 10
35.8773432705685593
 20
7.5583160063108785
 30
0.0
 11
34.9151696154307558
 21
6.5580243548748705
 31
0.0
  0
LINE
  5
CC
100
AcDbEntity
100
AcDbLine
  8
Rotor Gear
 62
256
370
-1
  6
ByLayer
 10
34.9151696154307558
 20
6.5580243548748705
 30
0.0
 11
33.7814634927210591
 21
5.6578455049461276
 31
0.0
  0
LINE
  5
CD
100
AcDbEntity
100
AcDbLine
  8
Rotor Gear
 62
256
370
-1
  6
ByLayer
 10
33.7814634927210591
 20
5.6578455049461276
 30
0.0
 11
32.8888245314767573
 21
6.1730714790906305
 31
0.0
  0
LINE
  5
CE
100
AcDbEntity
100
AcDbLine
  8
Rotor Gear
 62
256
370
-1
  6
ByLayer
 10
32.8888245314767573
 20
6.1730714790906305
 30
0.0
 11
33.1016163682604088
 21
7.6050217577131214
 31
0.0
  0
LINE
  5
CF
100
AcDbEntity
100
AcDbLine
  8
Rotor Gear
 62
256
370
-1
  6
ByLayer
 10
33.1016163682604088
 20
7.6050217577131214
 30
0.0
 11
33.4867792625975937
 21
8.938534930561552
 31
0.0
  0
LINE
  5
D0
100
AcDbEntity
100
AcDbLine
  8
Rotor Gear
 62
256
370
-1
  6
ByLayer
 10
33.4867792625975937
 20
8.938534930561552
 30
0.0
 11
32.4450182233969429
 21
9.634508214580638
 31
0.0
  0
LINE
  5
D1
100
AcDbEntity
100
AcDbLine
  8
Rotor Gear
 62
256
370
-1
  6
ByLayer
 10
32.4450182233969429
 20
9.634508214580638
 30
0.0
 11
31.3605306535742443
 21
8.7684681401699507
 31
0.0
  0
LINE
  5
D2
100
AcDbEntity
100
AcDbLine
  8
Rotor Gear
 62
256
370
-1
  6
ByLayer
 10
31.3605306535742443
 20
8.7684681401699507
 30
0.0
 11
30.1189625642348631
 21
8.0239041325775382
 31
0.0
  0
LINE
  5
D3
100
AcDbEntity
100
AcDbLine
  8
Rotor Gear
 62
256
370
-1
  6
ByLayer
 10
30.1189625642348631
 20
8.0239041325775382
 30
0.0
 11
29.3013031948445644
 21
8.6513905891225846
 31
0.0
  0
LINE
  5
D4
100
AcDbEntity
100
AcDbLine
  8
Rotor Gear
 62
256
370
-1
  6
ByLayer
 10
29.3013031948445644
 20
8.6513905891225846
 30
0.0
 11
29.6992415993887846
 21
10.0433378992757625
 31
0.0
  0
LINE
  5
D5
100
AcDbEntity
100
AcDbLine
  8
Rotor Gear
 62
256
370
-1
  6
ByLayer
 10
29.6992415993887846
 20
10.0433378992757625
 30
0.0
 11
30.2550991134312994
 21
11.314856266915136
 31
0.0
  0
LINE
  5
D6
100
AcDbEntity
100
AcDbLine
  8
Rotor Gear
 62
256
370
-1
  6
ByLayer
 10
30.2550991134312994
 20
11.314856266915136
 30
0.0
 11
29.3130323228621137
 21
12.1411026492944565
 31
0.0
  0
LINE
  5
D7
100
AcDbEntity
100
AcDbLine
  8
Rotor Gear
 62
256
370
-1
  6
ByLayer
 10
29.3130323228621137
 20
12.1411026492944565
 30
0.0
 11
28.1248712836278116
 21
11.4239753764022147
 31
0.0
  0
LINE
  5
D8
100
AcDbEntity
100
AcDbLine
  8
Rotor Gear
 62
256
370
-1
  6
ByLayer
 10
28.1248712836278116
 20
11.4239753764022147
 30
0.0
 11
26.7968037508548207
 21
10.8478024634682093
 31
0.0
  0
LINE
  5
D9
100
AcDbEntity
100
AcDbLine
  8
Rotor Gear
 62
256
370
-1
  6
ByLayer
 10
26.7968037508548207
 20
10.8478024634682093
 30
0.0
 11
26.0679480920601065
 21
11.5766581222629199
 31
0.0
  0
LINE
  5
DA
100
AcDbEntity
100
AcDbLine
  8
Rotor Gear
 62
256
370
-1
  6
ByLayer
 10
26.0679480920601065
 20
11.5766581222629199
 30
0.0
 11
26.6441210049941049
 21
12.9047256550359286
 31
0.0
  0
LINE
  5
DB
100
AcDbEntity
100
AcDbLine
  8
Rotor Gear
 62
256
370
-1
  6
ByLayer
 10
26.6441210049941049
 20
12.9047256550359286
 30
0.0
 11
27.3612482778863182
 21
14.0928866942702342
 31
0.0
  0
LINE
  5
DC
100
AcDbEntity
100
AcDbLine
  8
Rotor Gear
 62
256
370
-1
  6
ByLayer
 10
27.3612482778863182
 20
14.0928866942702342
 30
0.0
 11
26.5350018955070368
 21
15.0349534848394057
 31
0.0
  0
LINE
  5
DD
100
AcDbEntity
100
AcDbLine
  8
Rotor Gear
 62
256
370
-1
  6
ByLayer
 10
26.5350018955070368
 20
15.0349534848394057
 30
0.0
 11
25.2634835278676348
 21
14.4790959707969265
 31
0.0
  0
LINE
  5
DE
100
AcDbEntity
100
AcDbLine
  8
Rotor Gear
 62
256
370
-1
  6
ByLayer
 10
25.2634835278676348
 20
14.4790959707969265
 30
0.0
 11
23.8715362177144641
 21
14.0811575662527098
 31
0.0
  0
LINE
  5
DF
100
AcDbEntity
100
AcDbLine
  8
Rotor Gear
 62
256
370
-1
  6
ByLayer
 10
23.8715362177144641
 20
14.0811575662527098
 30
0.0
 11
23.244049761169407
 21
14.8988169356429729
 31
0.0
  0
LINE
  5
E0
100
AcDbEntity
100
AcDbLine
  8
Rotor Gear
 62
256
370
-1
  6
ByLayer
 10
23.244049761169407
 20
14.8988169356429729
 30
0.0
 11
23.9886137687618088
 21
16.1403850249823648
 31
0.0
  0
LINE
  5
E1
100
AcDbEntity
100
AcDbLine
  8
Rotor Gear
 62
256
370
-1
  6
ByLayer
 10
23.9886137687618088
 20
16.1403850249823648
 30
0.0
 11
24.8546538431725139
 21
17.2248725948050527
 31
0.0
  0
LINE
  5
E2
100
AcDbEntity
100
AcDbLine
  8
Rotor Gear
 62
256
370
-1
  6
ByLayer
 10
24.8546538431725139
 20
17.2248725948050527
 30
0.0
 11
24.1586805591534244
 21
18.2666336340057107
 31
0.0
  0
LINE
  5
E3
100
AcDbEntity
100
AcDbLine
  8
Rotor Gear
 62
256
370
-1
  6
ByLayer
 10
24.1586805591534244
 20
18.2666336340057107
 30
0.0
 11
22.8251673863049689
 21
17.8814707396685151
 31
0.0
  0
LINE
  5
E4
100
AcDbEntity
100
AcDbLine
  8
Rotor Gear
 62
256
370
-1
  6
ByLayer
 10
22.8251673863049689
 20
17.8814707396685151
 30
0.0
 11
21.3932171076824886
 21
17.6686789028848672
 31
0.0
  0
LINE
  5
E5
100
AcDbEntity
100
AcDbLine
  8
Rotor Gear
 62
256
370
-1
  6
ByLayer
 10
21.3932171076824886
 20
17.6686789028848672
 30
0.0
 11
20.8779911335380177
 21
18.561317864129137
 31
0.0
  0
LINE
  5
E6
100
AcDbEntity
100
AcDbLine
  8
Rotor Gear
 62
256
370
-1
  6
ByLayer
 10
20.8779911335380177
 20
18.561317864129137
 30
0.0
 11
21.7781699834667677
 21
19.6950239868388692
 31
0.0
  0
LINE
  5
E7
100
AcDbEntity
100
AcDbLine
  8
Rotor Gear
 62
256
370
-1
  6
ByLayer
 10
21.7781699834667677
 20
19.6950239868388692
 30
0.0
 11
22.7784616349027544
 21
20.6571976419767083
 31
0.0
  0
LINE
  5
E8
100
AcDbEntity
100
AcDbLine
  8
Rotor Gear
 62
256
370
-1
  6
ByLayer
 10
22.7784616349027544
 20
20.6571976419767083
 30
0.0
 11
22.2242798165934801
 21
21.7808503324021174
 31
0.0
  0
LINE
  5
E9
100
AcDbEntity
100
AcDbLine
  8
Rotor Gear
 62
256
370
-1
  6
ByLayer
 10
22.2242798165934801
 20
21.7808503324021174
 30
0.0
 11
20.8520200760181353
 21
21.5730840985880832
 31
0.0
  0
LINE
  5
EA
100
AcDbEntity
100
AcDbLine
  8
Rotor Gear
 62
256
370
-1
  6
ByLayer
 10
20.8520200760181353
 20
21.5730840985880832
 30
0.0
 11
19.4045714671509018
 21
21.5489987553543259
 31
0.0
  0
LINE
  5
EB
100
AcDbEntity
100
AcDbLine
  8
Rotor Gear
 62
256
370
-1
  6
ByLayer
 10
19.4045714671509018
 20
21.5489987553543259
 30
0.0
 11
19.0101929883959713
 21
22.5011189782078205
 31
0.0
  0
LINE
  5
EC
100
AcDbEntity
100
AcDbLine
  8
Rotor Gear
 62
256
370
-1
  6
ByLayer
 10
19.0101929883959713
 20
22.5011189782078205
 30
0.0
 11
20.0506976268542303
 21
23.5076941175859062
 31
0.0
  0
LINE
  5
ED
100
AcDbEntity
100
AcDbLine
  8
Rotor Gear
 62
256
370
-1
  6
ByLayer
 10
20.0506976268542303
 20
23.5076941175859062
 30
0.0
 11
21.1680675714525819
 21
24.3310084034895695
 31
0.0
  0
LINE
  5
EE
100
AcDbEntity
100
AcDbLine
  8
Rotor Gear
 62
256
370
-1
  6
ByLayer
 10
21.1680675714525819
 20
24.3310084034895695
 30
0.0
 11
20.7651020797087256
 21
25.5177030234285667
 31
0.0
  0
LINE
  5
EF
100
AcDbEntity
100
AcDbLine
  8
Rotor Gear
 62
256
370
-1
  6
ByLayer
 10
20.7651020797087256
 20
25.5177030234285667
 30
0.0
 11
19.3775532853265133
 21
25.4906848416041925
 31
0.0
  0
LINE
  5
F0
100
AcDbEntity
100
AcDbLine
  8
Rotor Gear
 62
256
370
-1
  6
ByLayer
 10
19.3775532853265133
 20
25.4906848416041925
 30
0.0
 11
17.9393195187619483
 21
25.655724544796108
 31
0.0
  0
LINE
  5
F1
100
AcDbEntity
100
AcDbLine
  8
Rotor Gear
 62
256
370
-1
  6
ByLayer
 10
17.9393195187619483
 20
25.655724544796108
 30
0.0
 11
17.6727005947674058
 21
26.6511991275853575
 31
0.0
  0
LINE
  5
F2
100
AcDbEntity
100
AcDbLine
  8
Rotor Gear
 62
256
370
-1
  6
ByLayer
 10
17.6727005947674058
 20
26.6511991275853575
 30
0.0
 11
18.8357284243484457
 21
27.5132599812159384
 31
0.0
  0
LINE
  5
F3
100
AcDbEntity
100
AcDbLine
  8
Rotor Gear
 62
256
370
-1
  6
ByLayer
 10
18.8357284243484457
 20
27.5132599812159384
 30
0.0
 11
20.0506976268542303
 21
28.1836815027059302
 31
0.0
  0
LINE
  5
F4
100
AcDbEntity
100
AcDbLine
  8
Rotor Gear
 62
256
370
-1
  6
ByLayer
 10
20.0506976268542303
 20
28.1836815027059302
 30
0.0
 11
19.8062798160373461
 21
29.4126833582761407
 31
0.0
  0
LINE
  5
F5
100
AcDbEntity
100
AcDbLine
  8
Rotor Gear
 62
256
370
-1
  6
ByLayer
 10
19.8062798160373461
 20
29.4126833582761407
 30
0.0
 11
18.4271080160912106
 21
29.5670417998701254
 31
0.0
  0
LINE
  5
F6
100
AcDbEntity
100
AcDbLine
  8
Rotor Gear
 62
256
370
-1
  6
ByLayer
 10
18.4271080160912106
 20
29.5670417998701254
 30
0.0
 11
17.0228037486068047
 21
29.9184844715650442
 31
0.0
  0
LINE
  5
F7
100
AcDbEntity
100
AcDbLine
  8
Rotor Gear
 62
256
370
-1
  6
ByLayer
 10
17.0228037486068047
 20
29.9184844715650442
 30
0.0
 11
16.8881336187056945
 21
30.9403486647499832
 31
0.0
  0
LINE
  5
F8
100
AcDbEntity
100
AcDbLine
  8
Rotor Gear
 62
256
370
-1
  6
ByLayer
 10
16.8881336187056945
 20
30.9403486647499832
 30
0.0
 11
18.1537870512788118
 21
31.6432340081398209
 31
0.0
  0
LINE
  5
F9
100
AcDbEntity
100
AcDbLine
  8
Rotor Gear
 62
256
370
-1
  6
ByLayer
 10
18.1537870512788118
 20
31.6432340081398209
 30
0.0
 11
19.4460408549155375
 21
32.1492443978666103
 31
0.0
  0
LINE
  5
FA
100
AcDbEntity
100
AcDbLine
  8
Rotor Gear
 62
256
370
-1
  6
ByLayer
 10
19.4460408549155375
 20
32.1492443978666103
 30
0.0
 11
19.3641492036907721
 21
33.3998187951857872
 31
0.0
  0
LINE
  5
FB
100
AcDbEntity
100
AcDbLine
  8
Rotor Gear
 62
256
370
-1
  6
ByLayer
 10
19.3641492036907721
 20
33.3998187951857872
 30
0.0
 11
18.0168126542157552
 21
33.7328302980453074
 31
0.0
  0
LINE
  5
FC
100
AcDbEntity
100
AcDbLine
  8
Rotor Gear
 62
256
370
-1
  6
ByLayer
 10
18.0168126542157552
 20
33.7328302980453074
 30
0.0
 11
16.6703139526073585
 21
34.264601726738988
 31
0.0
  0
LINE
  5
FD
100
AcDbEntity
100
AcDbLine
  8
Rotor Gear
 62
256
370
-1
  6
ByLayer
 10
16.6703139526073585
 20
34.264601726738988
 30
0.0
 11
16.6703139526073585
 21
35.2950536750280222
 31
0.0
  0
LINE
  5
FE
100
AcDbEntity
100
AcDbLine
  8
Rotor Gear
 62
256
370
-1
  6
ByLayer
 10
16.6703139526073585
 20
35.2950536750280222
 30
0.0
 11
18.0168126542157552
 21
35.8268251037217169
 31
0.0
  0
LINE
  5
FF
100
AcDbEntity
100
AcDbLine
  8
Rotor Gear
 62
256
370
-1
  6
ByLayer
 10
18.0168126542157552
 20
35.8268251037217169
 30
0.0
 11
19.3641492036907721
 21
36.1598366065812229
 31
0.0
  0
LINE
  5
100
100
AcDbEntity
100
AcDbLine
  8
Rotor Gear
 62
256
370
-1
  6
ByLayer
 10
19.3641492036907721
 20
36.1598366065812229
 30
0.0
 11
19.4460408549155375
 21
37.4104110039004567
 31
0.0
  0
LINE
  5
101
100
AcDbEntity
100
AcDbLine
  8
Rotor Gear
 62
256
370
-1
  6
ByLayer
 10
19.4460408549155375
 20
37.4104110039004567
 30
0.0
 11
18.1537870512788118
 21
37.9164213936272034
 31
0.0
  0
LINE
  5
102
100
AcDbEntity
100
AcDbLine
  8
Rotor Gear
 62
256
370
-1
  6
ByLayer
 10
18.1537870512788118
 20
37.9164213936272034
 30
0.0
 11
16.8881336187056945
 21
38.6193067370170979
 31
0.0
  0
LINE
  5
103
100
AcDbEntity
100
AcDbLine
  8
Rotor Gear
 62
256
370
-1
  6
ByLayer
 10
16.8881336187056945
 20
38.6193067370170979
 30
0.0
 11
17.0228037486068047
 21
39.6411709302019446
 31
0.0
  0
LINE
  5
104
100
AcDbEntity
100
AcDbLine
  8
Rotor Gear
 62
256
370
-1
  6
ByLayer
 10
17.0228037486068047
 20
39.6411709302019446
 30
0.0
 11
18.4271080160912106
 21
39.9926136018969629
 31
0.0
  0
LINE
  5
105
100
AcDbEntity
100
AcDbLine
  8
Rotor Gear
 62
256
370
-1
  6
ByLayer
 10
18.4271080160912106
 20
39.9926136018969629
 30
0.0
 11
19.8062798160373461
 21
40.1469720434908837
 31
0.0
  0
LINE
  5
106
100
AcDbEntity
100
AcDbLine
  8
Rotor Gear
 62
256
370
-1
  6
ByLayer
 10
19.8062798160373461
 20
40.1469720434908837
 30
0.0
 11
20.0506976268542303
 21
41.3759738990611368
 31
0.0
  0
LINE
  5
107
100
AcDbEntity
100
AcDbLine
  8
Rotor Gear
 62
256
370
-1
  6
ByLayer
 10
20.0506976268542303
 20
41.3759738990611368
 30
0.0
 11
18.8357284243484457
 21
42.0463954205511143
 31
0.0
  0
LINE
  5
108
100
AcDbEntity
100
AcDbLine
  8
Rotor Gear
 62
256
370
-1
  6
ByLayer
 10
18.8357284243484457
 20
42.0463954205511143
 30
0.0
 11
17.6727005947674058
 21
42.9084562741816811
 31
0.0
  0
LINE
  5
109
100
AcDbEntity
100
AcDbLine
  8
Rotor Gear
 62
256
370
-1
  6
ByLayer
 10
17.6727005947674058
 20
42.9084562741816811
 30
0.0
 11
17.9393195187619483
 21
43.903930856970959
 31
0.0
  0
LINE
  5
10A
100
AcDbEntity
100
AcDbLine
  8
Rotor Gear
 62
256
370
-1
  6
ByLayer
 10
17.9393195187619483
 20
43.903930856970959
 30
0.0
 11
19.3775532853265133
 21
44.0689705601628461
 31
0.0
  0
LINE
  5
10B
100
AcDbEntity
100
AcDbLine
  8
Rotor Gear
 62
256
370
-1
  6
ByLayer
 10
19.3775532853265133
 20
44.0689705601628461
 30
0.0
 11
20.7651020797087256
 21
44.041952378338479
 31
0.0
  0
LINE
  5
10C
100
AcDbEntity
100
AcDbLine
  8
Rotor Gear
 62
256
370
-1
  6
ByLayer
 10
20.7651020797087256
 20
44.041952378338479
 30
0.0
 11
21.1680675714525819
 21
45.2286469982775046
 31
0.0
  0
LINE
  5
10D
100
AcDbEntity
100
AcDbLine
  8
Rotor Gear
 62
256
370
-1
  6
ByLayer
 10
21.1680675714525819
 20
45.2286469982775046
 30
0.0
 11
20.0506976268542303
 21
46.0519612841811465
 31
0.0
  0
LINE
  5
10E
100
AcDbEntity
100
AcDbLine
  8
Rotor Gear
 62
256
370
-1
  6
ByLayer
 10
20.0506976268542303
 20
46.0519612841811465
 30
0.0
 11
19.0101929883959997
 21
47.0585364235592252
 31
0.0
  0
LINE
  5
10F
100
AcDbEntity
100
AcDbLine
  8
Rotor Gear
 62
256
370
-1
  6
ByLayer
 10
19.0101929883959997
 20
47.0585364235592252
 30
0.0
 11
19.4045714671509018
 21
48.0106566464127198
 31
0.0
  0
LINE
  5
110
100
AcDbEntity
100
AcDbLine
  8
Rotor Gear
 62
256
370
-1
  6
ByLayer
 10
19.4045714671509018
 20
48.0106566464127198
 30
0.0
 11
20.8520200760181353
 21
47.9865713031789554
 31
0.0
  0
LINE
  5
111
100
AcDbEntity
100
AcDbLine
  8
Rotor Gear
 62
256
370
-1
  6
ByLayer
 10
20.8520200760181353
 20
47.9865713031789554
 30
0.0
 11
22.2242798165934801
 21
47.7788050693649211
 31
0.0
  0
LINE
  5
112
100
AcDbEntity
100
AcDbLine
  8
Rotor Gear
 62
256
370
-1
  6
ByLayer
 10
22.2242798165934801
 20
47.7788050693649211
 30
0.0
 11
22.7784616349027544
 21
48.9024577597903374
 31
0.0
  0
LINE
  5
113
100
AcDbEntity
100
AcDbLine
  8
Rotor Gear
 62
256
370
-1
  6
ByLayer
 10
22.7784616349027544
 20
48.9024577597903374
 30
0.0
 11
21.7781699834667677
 21
49.8646314149281622
 31
0.0
  0
LINE
  5
114
100
AcDbEntity
100
AcDbLine
  8
Rotor Gear
 62
256
370
-1
  6
ByLayer
 10
21.7781699834667677
 20
49.8646314149281622
 30
0.0
 11
20.8779911335380177
 21
50.9983375376379158
 31
0.0
  0
LINE
  5
115
100
AcDbEntity
100
AcDbLine
  8
Rotor Gear
 62
256
370
-1
  6
ByLayer
 10
20.8779911335380177
 20
50.9983375376379158
 30
0.0
 11
21.3932171076825171
 21
51.8909764988821749
 31
0.0
  0
LINE
  5
116
100
AcDbEntity
100
AcDbLine
  8
Rotor Gear
 62
256
370
-1
  6
ByLayer
 10
21.3932171076825171
 20
51.8909764988821749
 30
0.0
 11
22.8251673863049973
 21
51.6781846620985377
 31
0.0
  0
LINE
  5
117
100
AcDbEntity
100
AcDbLine
  8
Rotor Gear
 62
256
370
-1
  6
ByLayer
 10
22.8251673863049973
 20
51.6781846620985377
 30
0.0
 11
24.1586805591534244
 21
51.2930217677613385
 31
0.0
  0
LINE
  5
118
100
AcDbEntity
100
AcDbLine
  8
Rotor Gear
 62
256
370
-1
  6
ByLayer
 10
24.1586805591534244
 20
51.2930217677613385
 30
0.0
 11
24.8546538431725139
 21
52.3347828069619894
 31
0.0
  0
LINE
  5
119
100
AcDbEntity
100
AcDbLine
  8
Rotor Gear
 62
256
370
-1
  6
ByLayer
 10
24.8546538431725139
 20
52.3347828069619894
 30
0.0
 11
23.9886137687618373
 21
53.4192703767846879
 31
0.0
  0
LINE
  5
11A
100
AcDbEntity
100
AcDbLine
  8
Rotor Gear
 62
256
370
-1
  6
ByLayer
 10
23.9886137687618373
 20
53.4192703767846879
 30
0.0
 11
23.244049761169407
 21
54.6608384661240692
 31
0.0
  0
LINE
  5
11B
100
AcDbEntity
100
AcDbLine
  8
Rotor Gear
 62
256
370
-1
  6
ByLayer
 10
23.244049761169407
 20
54.6608384661240692
 30
0.0
 11
23.8715362177144925
 21
55.4784978355143394
 31
0.0
  0
LINE
  5
11C
100
AcDbEntity
100
AcDbLine
  8
Rotor Gear
 62
256
370
-1
  6
ByLayer
 10
23.8715362177144925
 20
55.4784978355143394
 30
0.0
 11
25.2634835278676348
 21
55.0805594309701334
 31
0.0
  0
LINE
  5
11D
100
AcDbEntity
100
AcDbLine
  8
Rotor Gear
 62
256
370
-1
  6
ByLayer
 10
25.2634835278676348
 20
55.0805594309701334
 30
0.0
 11
26.5350018955070368
 21
54.5247019169276328
 31
0.0
  0
LINE
  5
11E
100
AcDbEntity
100
AcDbLine
  8
Rotor Gear
 62
256
370
-1
  6
ByLayer
 10
26.5350018955070368
 20
54.5247019169276328
 30
0.0
 11
27.3612482778863182
 21
55.4667687074968043
 31
0.0
  0
LINE
  5
11F
100
AcDbEntity
100
AcDbLine
  8
Rotor Gear
 62
256
370
-1
  6
ByLayer
 10
27.3612482778863182
 20
55.4667687074968043
 30
0.0
 11
26.6441210049941049
 21
56.6549297467311206
 31
0.0
  0
LINE
  5
120
100
AcDbEntity
100
AcDbLine
  8
Rotor Gear
 62
256
370
-1
  6
ByLayer
 10
26.6441210049941049
 20
56.6549297467311206
 30
0.0
 11
26.0679480920601065
 21
57.9829972795041257
 31
0.0
  0
LINE
  5
121
100
AcDbEntity
100
AcDbLine
  8
Rotor Gear
 62
256
370
-1
  6
ByLayer
 10
26.0679480920601065
 20
57.9829972795041257
 30
0.0
 11
26.7968037508548207
 21
58.7118529382988257
 31
0.0
  0
LINE
  5
122
100
AcDbEntity
100
AcDbLine
  8
Rotor Gear
 62
256
370
-1
  6
ByLayer
 10
26.7968037508548207
 20
58.7118529382988257
 30
0.0
 11
28.1248712836278116
 21
58.1356800253648274
 31
0.0
  0
LINE
  5
123
100
AcDbEntity
100
AcDbLine
  8
Rotor Gear
 62
256
370
-1
  6
ByLayer
 10
28.1248712836278116
 20
58.1356800253648274
 30
0.0
 11
29.3130323228621137
 21
57.4185527524725998
 31
0.0
  0
LINE
  5
124
100
AcDbEntity
100
AcDbLine
  8
Rotor Gear
 62
256
370
-1
  6
ByLayer
 10
29.3130323228621137
 20
57.4185527524725998
 30
0.0
 11
30.2550991134312994
 21
58.2447991348519096
 31
0.0
  0
LINE
  5
125
100
AcDbEntity
100
AcDbLine
  8
Rotor Gear
 62
256
370
-1
  6
ByLayer
 10
30.2550991134312994
 20
58.2447991348519096
 30
0.0
 11
29.699241599388813
 21
59.5163175024912903
 31
0.0
  0
LINE
  5
126
100
AcDbEntity
100
AcDbLine
  8
Rotor Gear
 62
256
370
-1
  6
ByLayer
 10
29.699241599388813
 20
59.5163175024912903
 30
0.0
 11
29.3013031948445928
 21
60.908264812644461
 31
0.0
  0
LINE
  5
127
100
AcDbEntity
100
AcDbLine
  8
Rotor Gear
 62
256
370
-1
  6
ByLayer
 10
29.3013031948445928
 20
60.908264812644461
 30
0.0
 11
30.1189625642348631
 21
61.5357512691895181
 31
0.0
  0
LINE
  5
128
100
AcDbEntity
100
AcDbLine
  8
Rotor Gear
 62
256
370
-1
  6
ByLayer
 10
30.1189625642348631
 20
61.5357512691895181
 30
0.0
 11
31.3605306535742443
 21
60.7911872615970879
 31
0.0
  0
LINE
  5
129
100
AcDbEntity
100
AcDbLine
  8
Rotor Gear
 62
256
370
-1
  6
ByLayer
 10
31.3605306535742443
 20
60.7911872615970879
 30
0.0
 11
32.4450182233969429
 21
59.9251471871864112
 31
0.0
  0
LINE
  5
12A
100
AcDbEntity
100
AcDbLine
  8
Rotor Gear
 62
256
370
-1
  6
ByLayer
 10
32.4450182233969429
 20
59.9251471871864112
 30
0.0
 11
33.4867792625975937
 21
60.6211204712055007
 31
0.0
  0
LINE
  5
12B
100
AcDbEntity
100
AcDbLine
  8
Rotor Gear
 62
256
370
-1
  6
ByLayer
 10
33.4867792625975937
 20
60.6211204712055007
 30
0.0
 11
33.1016163682604088
 21
61.9546336440539278
 31
0.0
  0
LINE
  5
12C
100
AcDbEntity
100
AcDbLine
  8
Rotor Gear
 62
256
370
-1
  6
ByLayer
 10
33.1016163682604088
 20
61.9546336440539278
 30
0.0
 11
32.8888245314767573
 21
63.3865839226764081
 31
0.0
  0
LINE
  5
12D
100
AcDbEntity
100
AcDbLine
  8
Rotor Gear
 62
256
370
-1
  6
ByLayer
 10
32.8888245314767573
 20
63.3865839226764081
 30
0.0
 11
33.7814634927210307
 21
63.9018098968209074
 31
0.0
  0
LINE
  5
12E
100
AcDbEntity
100
AcDbLine
  8
Rotor Gear
 62
256
370
-1
  6
ByLayer
 10
33.7814634927210307
 20
63.9018098968209074
 30
0.0
 11
34.9151696154307558
 21
63.0016310468921574
 31
0.0
  0
LINE
  5
12F
100
AcDbEntity
100
AcDbLine
  8
Rotor Gear
 62
256
370
-1
  6
ByLayer
 10
34.9151696154307558
 20
63.0016310468921574
 30
0.0
 11
35.8773432705685877
 21
62.0013393954561707
 31
0.0
  0
LINE
  5
130
100
AcDbEntity
100
AcDbLine
  8
Rotor Gear
 62
256
370
-1
  6
ByLayer
 10
35.8773432705685877
 20
62.0013393954561707
 30
0.0
 11
37.000995960994004
 21
62.5555212137654451
 31
0.0
  0
LINE
  5
131
100
AcDbEntity
100
AcDbLine
  8
Rotor Gear
 62
256
370
-1
  6
ByLayer
 10
37.000995960994004
 20
62.5555212137654451
 30
0.0
 11
36.7932297271799769
 21
63.9277809543407898
 31
0.0
  0
LINE
  5
132
100
AcDbEntity
100
AcDbLine
  8
Rotor Gear
 62
256
370
-1
  6
ByLayer
 10
36.7932297271799769
 20
63.9277809543407898
 30
0.0
 11
36.7691443839462409
 21
65.3752295632080518
 31
0.0
  0
LINE
  5
133
100
AcDbEntity
100
AcDbLine
  8
Rotor Gear
 62
256
370
-1
  6
ByLayer
 10
36.7691443839462409
 20
65.3752295632080518
 30
0.0
 11
37.7212646067997355
 21
65.7696080419629538
 31
0.0
  0
LINE
  5
134
100
AcDbEntity
100
AcDbLine
  8
Rotor Gear
 62
256
370
-1
  6
ByLayer
 10
37.7212646067997355
 20
65.7696080419629538
 30
0.0
 11
38.727839746177807
 21
64.7291034035046948
 31
0.0
  0
LINE
  5
135
100
AcDbEntity
100
AcDbLine
  8
Rotor Gear
 62
256
370
-1
  6
ByLayer
 10
38.727839746177807
 20
64.7291034035046948
 30
0.0
 11
39.5511540320814561
 21
63.6117334589063432
 31
0.0
  0
LINE
  5
136
100
AcDbEntity
100
AcDbLine
  8
Rotor Gear
 62
256
370
-1
  6
ByLayer
 10
39.5511540320814561
 20
63.6117334589063432
 30
0.0
 11
40.7378486520204319
 21
64.0146989506501995
 31
0.0
  0
LINE
  5
137
100
AcDbEntity
100
AcDbLine
  8
Rotor Gear
 62
256
370
-1
  6
ByLayer
 10
40.7378486520204319
 20
64.0146989506501995
 30
0.0
 11
40.7108304701960435
 21
65.4022477450324118
 31
0.0
  0
LINE
  5
138
100
AcDbEntity
100
AcDbLine
  8
Rotor Gear
 62
256
370
-1
  6
ByLayer
 10
40.7108304701960435
 20
65.4022477450324118
 30
0.0
 11
40.8758701733879946
 21
66.8404815115969768
 31
0.0
  0
LINE
  5
139
100
AcDbEntity
100
AcDbLine
  8
Rotor Gear
 62
256
370
-1
  6
ByLayer
 10
40.8758701733879946
 20
66.8404815115969768
 30
0.0
 11
41.8713447561772512
 21
67.1071004355914909
 31
0.0
  0
LINE
  5
13A
100
AcDbEntity
100
AcDbLine
  8
Rotor Gear
 62
256
370
-1
  6
ByLayer
 10
41.8713447561772512
 20
67.1071004355914909
 30
0.0
 11
42.7334056098078179
 21
65.9440726060105078
 31
0.0
  0
LINE
  5
13B
100
AcDbEntity
100
AcDbLine
  8
Rotor Gear
 62
256
370
-1
  6
ByLayer
 10
42.7334056098078179
 20
65.9440726060105078
 30
0.0
 11
43.4038271312978168
 21
64.7291034035046948
 31
0.0
  0
LINE
  5
13C
100
AcDbEntity
100
AcDbLine
  8
Rotor Gear
 62
256
370
-1
  6
ByLayer
 10
43.4038271312978168
 20
64.7291034035046948
 30
0.0
 11
44.6328289868680486
 21
64.9735212143215506
 31
0.0
  0
LINE
  5
13D
100
AcDbEntity
100
AcDbLine
  8
Rotor Gear
 62
256
370
-1
  6
ByLayer
 10
44.6328289868680486
 20
64.9735212143215506
 30
0.0
 11
44.7871874284620048
 21
66.3526930142677429
 31
0.0
  0
LINE
  5
13E
100
AcDbEntity
100
AcDbLine
  8
Rotor Gear
 62
256
370
-1
  6
ByLayer
 10
44.7871874284620048
 20
66.3526930142677429
 30
0.0
 11
45.138630100156945
 21
67.7569972817521204
 31
0.0
  0
LINE
  5
13F
100
AcDbEntity
100
AcDbLine
  8
Rotor Gear
 62
256
370
-1
  6
ByLayer
 10
45.138630100156945
 20
67.7569972817521204
 30
0.0
 11
46.1604942933418556
 21
67.8916674116532306
 31
0.0
  0
LINE
  5
140
100
AcDbEntity
100
AcDbLine
  8
Rotor Gear
 62
256
370
-1
  6
ByLayer
 10
46.1604942933418556
 20
67.8916674116532306
 30
0.0
 11
46.8633796367317359
 21
66.6260139790801134
 31
0.0
  0
LINE
  5
141
100
AcDbEntity
100
AcDbLine
  8
Rotor Gear
 62
256
370
-1
  6
ByLayer
 10
46.8633796367317359
 20
66.6260139790801134
 30
0.0
 11
47.3693900264584897
 21
65.3337601754433877
 31
0.0
  0
LINE
  5
142
100
AcDbEntity
100
AcDbLine
  8
Rotor Gear
 62
256
370
-1
  6
ByLayer
 10
47.3693900264584897
 20
65.3337601754433877
 30
0.0
 11
48.6199644237776738
 21
65.415651826668153
 31
0.0
  0
LINE
  5
143
100
AcDbEntity
100
AcDbLine
  8
Rotor Gear
 62
256
370
-1
  6
ByLayer
 10
48.6199644237776738
 20
65.415651826668153
 30
0.0
 11
48.9529759266371798
 21
66.7629883761431699
 31
0.0
  0
LINE
  5
144
100
AcDbEntity
100
AcDbLine
  8
Rotor Gear
 62
256
370
-1
  6
ByLayer
 10
48.9529759266371798
 20
66.7629883761431699
 30
0.0
 11
49.4847473553309385
 21
68.1094870777515666
 31
0.0
  0
LINE
  5
145
100
AcDbEntity
100
AcDbLine
  8
Rotor Gear
 62
256
370
-1
  6
ByLayer
 10
49.4847473553309385
 20
68.1094870777515666
 30
0.0
 11
50.5151993036198803
 21
68.1094870777515666
 31
0.0
  0
LINE
  5
146
100
AcDbEntity
100
AcDbLine
  8
Rotor Gear
 62
256
370
-1
  6
ByLayer
 10
50.5151993036198803
 20
68.1094870777515666
 30
0.0
 11
51.0469707323136106
 21
66.7629883761431699
 31
0.0
  0
LINE
  5
147
100
AcDbEntity
100
AcDbLine
  8
Rotor Gear
 62
256
370
-1
  6
ByLayer
 10
51.0469707323136106
 20
66.7629883761431699
 30
0.0
 11
51.379982235173145
 21
65.415651826668153
 31
0.0
  0
LINE
  5
148
100
AcDbEntity
100
AcDbLine
  8
Rotor Gear
 62
256
370
-1
  6
ByLayer
 10
51.379982235173145
 20
65.415651826668153
 30
0.0
 11
52.6305566324923291
 21
65.3337601754433877
 31
0.0
  0
LINE
  5
149
100
AcDbEntity
100
AcDbLine
  8
Rotor Gear
 62
256
370
-1
  6
ByLayer
 10
52.6305566324923291
 20
65.3337601754433877
 30
0.0
 11
53.1365670222190829
 21
66.6260139790801134
 31
0.0
  0
LINE
  5
14A
100
AcDbEntity
100
AcDbLine
  8
Rotor Gear
 62
256
370
-1
  6
ByLayer
 10
53.1365670222190829
 20
66.6260139790801134
 30
0.0
 11
53.8394523656089632
 21
67.8916674116532306
 31
0.0
  0
LINE
  5
14B
100
AcDbEntity
100
AcDbLine
  8
Rotor Gear
 62
256
370
-1
  6
ByLayer
 10
53.8394523656089632
 20
67.8916674116532306
 30
0.0
 11
54.8613165587938738
 21
67.7569972817521204
 31
0.0
  0
LINE
  5
14C
100
AcDbEntity
100
AcDbLine
  8
Rotor Gear
 62
256
370
-1
  6
ByLayer
 10
54.8613165587938738
 20
67.7569972817521204
 30
0.0
 11
55.212759230488814
 21
66.3526930142677429
 31
0.0
  0
LINE
  5
14D
100
AcDbEntity
100
AcDbLine
  8
Rotor Gear
 62
256
370
-1
  6
ByLayer
 10
55.212759230488814
 20
66.3526930142677429
 30
0.0
 11
55.3671176720827702
 21
64.9735212143215506
 31
0.0
  0
LINE
  5
14E
100
AcDbEntity
100
AcDbLine
  8
Rotor Gear
 62
256
370
-1
  6
ByLayer
 10
55.3671176720827702
 20
64.9735212143215506
 30
0.0
 11
56.596119527653002
 21
64.7291034035046948
 31
0.0
  0
LINE
  5
14F
100
AcDbEntity
100
AcDbLine
  8
Rotor Gear
 62
256
370
-1
  6
ByLayer
 10
56.596119527653002
 20
64.7291034035046948
 30
0.0
 11
57.2665410491430009
 21
65.9440726060105078
 31
0.0
  0
LINE
  5
150
100
AcDbEntity
100
AcDbLine
  8
Rotor Gear
 62
256
370
-1
  6
ByLayer
 10
57.2665410491430009
 20
65.9440726060105078
 30
0.0
 11
58.1286019027735676
 21
67.1071004355914909
 31
0.0
  0
LINE
  5
151
100
AcDbEntity
100
AcDbLine
  8
Rotor Gear
 62
256
370
-1
  6
ByLayer
 10
58.1286019027735676
 20
67.1071004355914909
 30
0.0
 11
59.1240764855628242
 21
66.8404815115969768
 31
0.0
  0
LINE
  5
152
100
AcDbEntity
100
AcDbLine
  8
Rotor Gear
 62
256
370
-1
  6
ByLayer
 10
59.1240764855628242
 20
66.8404815115969768
 30
0.0
 11
59.2891161887547753
 21
65.4022477450324118
 31
0.0
  0
LINE
  5
153
100
AcDbEntity
100
AcDbLine
  8
Rotor Gear
 62
256
370
-1
  6
ByLayer
 10
59.2891161887547753
 20
65.4022477450324118
 30
0.0
 11
59.2620980069303869
 21
64.0146989506501995
 31
0.0
  0
LINE
  5
154
100
AcDbEntity
100
AcDbLine
  8
Rotor Gear
 62
256
370
-1
  6
ByLayer
 10
59.2620980069303869
 20
64.0146989506501995
 30
0.0
 11
60.4487926268693627
 21
63.6117334589063432
 31
0.0
  0
LINE
  5
155
100
AcDbEntity
100
AcDbLine
  8
Rotor Gear
 62
256
370
-1
  6
ByLayer
 10
60.4487926268693627
 20
63.6117334589063432
 30
0.0
 11
61.2721069127730118
 21
64.7291034035046948
 31
0.0
  0
LINE
  5
156
100
AcDbEntity
100
AcDbLine
  8
Rotor Gear
 62
256
370
-1
  6
ByLayer
 10
61.2721069127730118
 20
64.7291034035046948
 30
0.0
 11
62.2786820521510833
 21
65.7696080419629538
 31
0.0
  0
LINE
  5
157
100
AcDbEntity
100
AcDbLine
  8
Rotor Gear
 62
256
370
-1
  6
ByLayer
 10
62.2786820521510833
 20
65.7696080419629538
 30
0.0
 11
63.230802275004578
 21
65.3752295632080234
 31
0.0
  0
LINE
  5
158
100
AcDbEntity
100
AcDbLine
  8
Rotor Gear
 62
256
370
-1
  6
ByLayer
 10
63.230802275004578
 20
65.3752295632080234
 30
0.0
 11
63.2067169317708419
 21
63.9277809543407898
 31
0.0
  0
LINE
  5
159
100
AcDbEntity
100
AcDbLine
  8
Rotor Gear
 62
256
370
-1
  6
ByLayer
 10
63.2067169317708419
 20
63.9277809543407898
 30
0.0
 11
62.9989506979568148
 21
62.5555212137654451
 31
0.0
  0
LINE
  5
15A
100
AcDbEntity
100
AcDbLine
  8
Rotor Gear
 62
256
370
-1
  6
ByLayer
 10
62.9989506979568148
 20
62.5555212137654451
 30
0.0
 11
64.1226033883822595
 21
62.0013393954561707
 31
0.0
  0
LINE
  5
15B
100
AcDbEntity
100
AcDbLine
  8
Rotor Gear
 62
256
370
-1
  6
ByLayer
 10
64.1226033883822595
 20
62.0013393954561707
 30
0.0
 11
65.084777043520063
 21
63.0016310468921574
 31
0.0
  0
LINE
  5
15C
100
AcDbEntity
100
AcDbLine
  8
Rotor Gear
 62
256
370
-1
  6
ByLayer
 10
65.084777043520063
 20
63.0016310468921574
 30
0.0
 11
66.2184831662297881
 21
63.9018098968209074
 31
0.0
  0
LINE
  5
15D
100
AcDbEntity
100
AcDbLine
  8
Rotor Gear
 62
256
370
-1
  6
ByLayer
 10
66.2184831662297881
 20
63.9018098968209074
 30
0.0
 11
67.1111221274740615
 21
63.3865839226764081
 31
0.0
  0
LINE
  5
15E
100
AcDbEntity
100
AcDbLine
  8
Rotor Gear
 62
256
370
-1
  6
ByLayer
 10
67.1111221274740615
 20
63.3865839226764081
 30
0.0
 11
66.89833029069041
 21
61.9546336440539278
 31
0.0
  0
LINE
  5
15F
100
AcDbEntity
100
AcDbLine
  8
Rotor Gear
 62
256
370
-1
  6
ByLayer
 10
66.89833029069041
 20
61.9546336440539278
 30
0.0
 11
66.5131673963532251
 21
60.6211204712055007
 31
0.0
  0
LINE
  5
160
100
AcDbEntity
100
AcDbLine
  8
Rotor Gear
 62
256
370
-1
  6
ByLayer
 10
66.5131673963532251
 20
60.6211204712055007
 30
0.0
 11
67.5549284355538759
 21
59.9251471871864112
 31
0.0
  0
LINE
  5
161
100
AcDbEntity
100
AcDbLine
  8
Rotor Gear
 62
256
370
-1
  6
ByLayer
 10
67.5549284355538759
 20
59.9251471871864112
 30
0.0
 11
68.6394160053765745
 21
60.7911872615970879
 31
0.0
  0
LINE
  5
162
100
AcDbEntity
100
AcDbLine
  8
Rotor Gear
 62
256
370
-1
  6
ByLayer
 10
68.6394160053765745
 20
60.7911872615970879
 30
0.0
 11
69.8809840947159273
 21
61.5357512691895181
 31
0.0
  0
LINE
  5
163
100
AcDbEntity
100
AcDbLine
  8
Rotor Gear
 62
256
370
-1
  6
ByLayer
 10
69.8809840947159273
 20
61.5357512691895181
 30
0.0
 11
70.698643464106226
 21
60.908264812644461
 31
0.0
  0
LINE
  5
164
100
AcDbEntity
100
AcDbLine
  8
Rotor Gear
 62
256
370
-1
  6
ByLayer
 10
70.698643464106226
 20
60.908264812644461
 30
0.0
 11
70.3007050595620342
 21
59.5163175024912903
 31
0.0
  0
LINE
  5
165
100
AcDbEntity
100
AcDbLine
  8
Rotor Gear
 62
256
370
-1
  6
ByLayer
 10
70.3007050595620342
 20
59.5163175024912903
 30
0.0
 11
69.7448475455195194
 21
58.2447991348519096
 31
0.0
  0
LINE
  5
166
100
AcDbEntity
100
AcDbLine
  8
Rotor Gear
 62
256
370
-1
  6
ByLayer
 10
69.7448475455195194
 20
58.2447991348519096
 30
0.0
 11
70.6869143360886767
 21
57.4185527524725998
 31
0.0
  0
LINE
  5
167
100
AcDbEntity
100
AcDbLine
  8
Rotor Gear
 62
256
370
-1
  6
ByLayer
 10
70.6869143360886767
 20
57.4185527524725998
 30
0.0
 11
71.8750753753230072
 21
58.1356800253648274
 31
0.0
  0
LINE
  5
168
100
AcDbEntity
100
AcDbLine
  8
Rotor Gear
 62
256
370
-1
  6
ByLayer
 10
71.8750753753230072
 20
58.1356800253648274
 30
0.0
 11
73.2031429080959981
 21
58.7118529382988257
 31
0.0
  0
LINE
  5
169
100
AcDbEntity
100
AcDbLine
  8
Rotor Gear
 62
256
370
-1
  6
ByLayer
 10
73.2031429080959981
 20
58.7118529382988257
 30
0.0
 11
73.9319985668907123
 21
57.9829972795041257
 31
0.0
  0
LINE
  5
16A
100
AcDbEntity
100
AcDbLine
  8
Rotor Gear
 62
256
370
-1
  6
ByLayer
 10
73.9319985668907123
 20
57.9829972795041257
 30
0.0
 11
73.3558256539567139
 21
56.6549297467311064
 31
0.0
  0
LINE
  5
16B
100
AcDbEntity
100
AcDbLine
  8
Rotor Gear
 62
256
370
-1
  6
ByLayer
 10
73.3558256539567139
 20
56.6549297467311064
 30
0.0
 11
72.6386983810645006
 21
55.4667687074968043
 31
0.0
  0
LINE
  5
16C
100
AcDbEntity
100
AcDbLine
  8
Rotor Gear
 62
256
370
-1
  6
ByLayer
 10
72.6386983810645006
 20
55.4667687074968043
 30
0.0
 11
73.464944763443782
 21
54.5247019169276328
 31
0.0
  0
LINE
  5
16D
100
AcDbEntity
100
AcDbLine
  8
Rotor Gear
 62
256
370
-1
  6
ByLayer
 10
73.464944763443782
 20
54.5247019169276328
 30
0.0
 11
74.736463131083184
 21
55.0805594309701192
 31
0.0
  0
LINE
  5
16E
100
AcDbEntity
100
AcDbLine
  8
Rotor Gear
 62
256
370
-1
  6
ByLayer
 10
74.736463131083184
 20
55.0805594309701192
 30
0.0
 11
76.1284104412363263
 21
55.4784978355143394
 31
0.0
  0
LINE
  5
16F
100
AcDbEntity
100
AcDbLine
  8
Rotor Gear
 62
256
370
-1
  6
ByLayer
 10
76.1284104412363263
 20
55.4784978355143394
 30
0.0
 11
76.7558968977814118
 21
54.6608384661240692
 31
0.0
  0
LINE
  5
170
100
AcDbEntity
100
AcDbLine
  8
Rotor Gear
 62
256
370
-1
  6
ByLayer
 10
76.7558968977814118
 20
54.6608384661240692
 30
0.0
 11
76.01133289018901
 21
53.4192703767846879
 31
0.0
  0
LINE
  5
171
100
AcDbEntity
100
AcDbLine
  8
Rotor Gear
 62
256
370
-1
  6
ByLayer
 10
76.01133289018901
 20
53.4192703767846879
 30
0.0
 11
75.1452928157783049
 21
52.3347828069619752
 31
0.0
  0
LINE
  5
172
100
AcDbEntity
100
AcDbLine
  8
Rotor Gear
 62
256
370
-1
  6
ByLayer
 10
75.1452928157783049
 20
52.3347828069619752
 30
0.0
 11
75.8412660997973944
 21
51.2930217677613385
 31
0.0
  0
LINE
  5
173
100
AcDbEntity
100
AcDbLine
  8
Rotor Gear
 62
256
370
-1
  6
ByLayer
 10
75.8412660997973944
 20
51.2930217677613385
 30
0.0
 11
77.1747792726458499
 21
51.6781846620985235
 31
0.0
  0
LINE
  5
174
100
AcDbEntity
100
AcDbLine
  8
Rotor Gear
 62
256
370
-1
  6
ByLayer
 10
77.1747792726458499
 20
51.6781846620985235
 30
0.0
 11
78.6067295512683302
 21
51.8909764988821749
 31
0.0
  0
LINE
  5
175
100
AcDbEntity
100
AcDbLine
  8
Rotor Gear
 62
256
370
-1
  6
ByLayer
 10
78.6067295512683302
 20
51.8909764988821749
 30
0.0
 11
79.1219555254128011
 21
50.9983375376379158
 31
0.0
  0
LINE
  5
176
100
AcDbEntity
100
AcDbLine
  8
Rotor Gear
 62
256
370
-1
  6
ByLayer
 10
79.1219555254128011
 20
50.9983375376379158
 30
0.0
 11
78.2217766754840511
 21
49.8646314149281622
 31
0.0
  0
LINE
  5
177
100
AcDbEntity
100
AcDbLine
  8
Rotor Gear
 62
256
370
-1
  6
ByLayer
 10
78.2217766754840511
 20
49.8646314149281622
 30
0.0
 11
77.2214850240480644
 21
48.9024577597903374
 31
0.0
  0
LINE
  5
178
100
AcDbEntity
100
AcDbLine
  8
Rotor Gear
 62
256
370
-1
  6
ByLayer
 10
77.2214850240480644
 20
48.9024577597903374
 30
0.0
 11
77.7756668423573387
 21
47.7788050693649353
 31
0.0
  0
LINE
  5
179
100
AcDbEntity
100
AcDbLine
  8
Rotor Gear
 62
256
370
-1
  6
ByLayer
 10
77.7756668423573387
 20
47.7788050693649353
 30
0.0
 11
79.1479265829326835
 21
47.9865713031789554
 31
0.0
  0
LINE
  5
17A
100
AcDbEntity
100
AcDbLine
  8
Rotor Gear
 62
256
370
-1
  6
ByLayer
 10
79.1479265829326835
 20
47.9865713031789554
 30
0.0
 11
80.595375191799917
 21
48.0106566464127198
 31
0.0
  0
LINE
  5
17B
100
AcDbEntity
100
AcDbLine
  8
Rotor Gear
 62
256
370
-1
  6
ByLayer
 10
80.595375191799917
 20
48.0106566464127198
 30
0.0
 11
80.9897536705548191
 21
47.058536423559211
 31
0.0
  0
LINE
  5
17C
100
AcDbEntity
100
AcDbLine
  8
Rotor Gear
 62
256
370
-1
  6
ByLayer
 10
80.9897536705548191
 20
47.058536423559211
 30
0.0
 11
79.9492490320965885
 21
46.0519612841811394
 31
0.0
  0
LINE
  5
17D
100
AcDbEntity
100
AcDbLine
  8
Rotor Gear
 62
256
370
-1
  6
ByLayer
 10
79.9492490320965885
 20
46.0519612841811394
 30
0.0
 11
78.8318790874982085
 21
45.2286469982774975
 31
0.0
  0
LINE
  5
17E
100
AcDbEntity
100
AcDbLine
  8
Rotor Gear
 62
256
370
-1
  6
ByLayer
 10
78.8318790874982085
 20
45.2286469982774975
 30
0.0
 11
79.2348445792420932
 21
44.041952378338479
 31
0.0
  0
LINE
  5
17F
100
AcDbEntity
100
AcDbLine
  8
Rotor Gear
 62
256
370
-1
  6
ByLayer
 10
79.2348445792420932
 20
44.041952378338479
 30
0.0
 11
80.6223933736243055
 21
44.0689705601628461
 31
0.0
  0
LINE
  5
180
100
AcDbEntity
100
AcDbLine
  8
Rotor Gear
 62
256
370
-1
  6
ByLayer
 10
80.6223933736243055
 20
44.0689705601628461
 30
0.0
 11
82.0606271401888705
 21
43.903930856970959
 31
0.0
  0
LINE
  5
181
100
AcDbEntity
100
AcDbLine
  8
Rotor Gear
 62
256
370
-1
  6
ByLayer
 10
82.0606271401888705
 20
43.903930856970959
 30
0.0
 11
82.327246064183413
 21
42.9084562741816811
 31
0.0
  0
LINE
  5
182
100
AcDbEntity
100
AcDbLine
  8
Rotor Gear
 62
256
370
-1
  6
ByLayer
 10
82.327246064183413
 20
42.9084562741816811
 30
0.0
 11
81.1642182346023731
 21
42.0463954205511143
 31
0.0
  0
LINE
  5
183
100
AcDbEntity
100
AcDbLine
  8
Rotor Gear
 62
256
370
-1
  6
ByLayer
 10
81.1642182346023731
 20
42.0463954205511143
 30
0.0
 11
79.9492490320965885
 21
41.3759738990611297
 31
0.0
  0
LINE
  5
184
100
AcDbEntity
100
AcDbLine
  8
Rotor Gear
 62
256
370
-1
  6
ByLayer
 10
79.9492490320965885
 20
41.3759738990611297
 30
0.0
 11
80.1936668429134727
 21
40.1469720434908766
 31
0.0
  0
LINE
  5
185
100
AcDbEntity
100
AcDbLine
  8
Rotor Gear
 62
256
370
-1
  6
ByLayer
 10
80.1936668429134727
 20
40.1469720434908766
 30
0.0
 11
81.5728386428596082
 21
39.9926136018969558
 31
0.0
  0
LINE
  5
186
100
AcDbEntity
100
AcDbLine
  8
Rotor Gear
 62
256
370
-1
  6
ByLayer
 10
81.5728386428596082
 20
39.9926136018969558
 30
0.0
 11
82.9771429103440141
 21
39.6411709302019446
 31
0.0
  0
LINE
  5
187
100
AcDbEntity
100
AcDbLine
  8
Rotor Gear
 62
256
370
-1
  6
ByLayer
 10
82.9771429103440141
 20
39.6411709302019446
 30
0.0
 11
83.1118130402450959
 21
38.6193067370170908
 31
0.0
  0
LINE
  5
188
100
AcDbEntity
100
AcDbLine
  8
Rotor Gear
 62
256
370
-1
  6
ByLayer
 10
83.1118130402450959
 20
38.6193067370170908
 30
0.0
 11
81.846159607672007
 21
37.9164213936271963
 31
0.0
  0
LINE
  5
189
100
AcDbEntity
100
AcDbLine
  8
Rotor Gear
 62
256
370
-1
  6
ByLayer
 10
81.846159607672007
 20
37.9164213936271963
 30
0.0
 11
80.5539058040352813
 21
37.4104110039004567
 31
0.0
  0
LINE
  5
18A
100
AcDbEntity
100
AcDbLine
  8
Rotor Gear
 62
256
370
-1
  6
ByLayer
 10
80.5539058040352813
 20
37.4104110039004567
 30
0.0
 11
80.6357974552600467
 21
36.1598366065812158
 31
0.0
  0
LINE
  5
18B
100
AcDbEntity
100
AcDbLine
  8
Motor Gear
 62
256
370
-1
  6
ByLayer
 10
64.6194256063309354
 20
83.8503962857104597
 30
0.0
 11
64.9867851611464005
 21
83.879927269019646
 31
0.0
  0
LINE
  5
18C
100
AcDbEntity
100
AcDbLine
  8
Motor Gear
 62
256
370
-1
  6
ByLayer
 10
64.9867851611464005
 20
83.879927269019646
 30
0.0
 11
65.9659235658242835
 21
83.7194953580365677
 31
0.0
  0
LINE
  5
18D
100
AcDbEntity
100
AcDbLine
  8
Motor Gear
 62
256
370
-1
  6
ByLayer
 10
65.9659235658242835
 20
83.7194953580365677
 30
0.0
 11
67.3268734733729275
 21
83.1500244859204543
 31
0.0
  0
LINE
  5
18E
100
AcDbEntity
100
AcDbLine
  8
Motor Gear
 62
256
370
-1
  6
ByLayer
 10
67.3268734733729275
 20
83.1500244859204543
 30
0.0
 11
67.3268734733729275
 21
82.1962285673336908
 31
0.0
  0
LINE
  5
18F
100
AcDbEntity
100
AcDbLine
  8
Motor Gear
 62
256
370
-1
  6
ByLayer
 10
67.3268734733729275
 20
82.1962285673336908
 30
0.0
 11
65.9659235658242835
 21
81.6267576952175489
 31
0.0
  0
LINE
  5
190
100
AcDbEntity
100
AcDbLine
  8
Motor Gear
 62
256
370
-1
  6
ByLayer
 10
65.9659235658242835
 20
81.6267576952175489
 30
0.0
 11
64.9867851611464005
 21
81.4663257842344422
 31
0.0
  0
LINE
  5
191
100
AcDbEntity
100
AcDbLine
  8
Motor Gear
 62
256
370
-1
  6
ByLayer
 10
64.9867851611464005
 20
81.4663257842344422
 30
0.0
 11
64.6194256063309354
 21
81.4958567675436996
 31
0.0
  0
LINE
  5
192
100
AcDbEntity
100
AcDbLine
  8
Motor Gear
 62
256
370
-1
  6
ByLayer
 10
64.6194256063309354
 20
81.4958567675436996
 30
0.0
 11
64.4261105784571555
 21
80.0264163219366935
 31
0.0
  0
LINE
  5
193
100
AcDbEntity
100
AcDbLine
  8
Motor Gear
 62
256
370
-1
  6
ByLayer
 10
64.4261105784571555
 20
80.0264163219366935
 30
0.0
 11
64.7884445303029963
 21
79.960023000956653
 31
0.0
  0
LINE
  5
194
100
AcDbEntity
100
AcDbLine
  8
Motor Gear
 62
256
370
-1
  6
ByLayer
 10
64.7884445303029963
 20
79.960023000956653
 30
0.0
 11
65.6926026010118846
 21
79.5516126112523523
 31
0.0
  0
LINE
  5
195
100
AcDbEntity
100
AcDbLine
  8
Motor Gear
 62
256
370
-1
  6
ByLayer
 10
65.6926026010118846
 20
79.5516126112523523
 30
0.0
 11
66.8600289463638831
 21
78.6493395127145618
 31
0.0
  0
LINE
  5
196
100
AcDbEntity
100
AcDbLine
  8
Motor Gear
 62
256
370
-1
  6
ByLayer
 10
66.8600289463638831
 20
78.6493395127145618
 30
0.0
 11
66.6130975919471666
 21
77.7277973974747738
 31
0.0
  0
LINE
  5
197
100
AcDbEntity
100
AcDbLine
  8
Motor Gear
 62
256
370
-1
  6
ByLayer
 10
66.6130975919471666
 20
77.7277973974747738
 30
0.0
 11
65.1509877585867514
 21
77.5300845959450839
 31
0.0
  0
LINE
  5
198
100
AcDbEntity
100
AcDbLine
  8
Motor Gear
 62
256
370
-1
  6
ByLayer
 10
65.1509877585867514
 20
77.5300845959450839
 30
0.0
 11
64.1636808937956573
 21
77.6285224438341572
 31
0.0
  0
LINE
  5
199
100
AcDbEntity
100
AcDbLine
  8
Motor Gear
 62
256
370
-1
  6
ByLayer
 10
64.1636808937956573
 20
77.6285224438341572
 30
0.0
 11
63.8166367378717041
 21
77.7520927592614441
 31
0.0
  0
LINE
  5
19A
100
AcDbEntity
100
AcDbLine
  8
Motor Gear
 62
256
370
-1
  6
ByLayer
 10
63.8166367378717041
 20
77.7520927592614441
 30
0.0
 11
63.2494693908024601
 21
76.3829743915996318
 31
0.0
  0
LINE
  5
19B
100
AcDbEntity
100
AcDbLine
  8
Motor Gear
 62
256
370
-1
  6
ByLayer
 10
63.2494693908024601
 20
76.3829743915996318
 30
0.0
 11
63.5822716172241087
 21
76.2248460056634514
 31
0.0
  0
LINE
  5
19C
100
AcDbEntity
100
AcDbLine
  8
Motor Gear
 62
256
370
-1
  6
ByLayer
 10
63.5822716172241087
 20
76.2248460056634514
 30
0.0
 11
64.3500838622986464
 21
75.59652244336678
 31
0.0
  0
LINE
  5
19D
100
AcDbEntity
100
AcDbLine
  8
Motor Gear
 62
256
370
-1
  6
ByLayer
 10
64.3500838622986464
 20
75.59652244336678
 30
0.0
 11
65.2439792242853116
 21
74.4228126100727252
 31
0.0
  0
LINE
  5
19E
100
AcDbEntity
100
AcDbLine
  8
Motor Gear
 62
256
370
-1
  6
ByLayer
 10
65.2439792242853116
 20
74.4228126100727252
 30
0.0
 11
64.7670812649919583
 21
73.5965669698084781
 31
0.0
  0
LINE
  5
19F
100
AcDbEntity
100
AcDbLine
  8
Motor Gear
 62
256
370
-1
  6
ByLayer
 10
64.7670812649919583
 20
73.5965669698084781
 30
0.0
 11
63.3037150308891796
 21
73.7840163205009389
 31
0.0
  0
LINE
  5
1A0
100
AcDbEntity
100
AcDbLine
  8
Motor Gear
 62
256
370
-1
  6
ByLayer
 10
63.3037150308891796
 20
73.7840163205009389
 30
0.0
 11
62.3754708748315068
 21
74.1346211443292589
 31
0.0
  0
LINE
  5
1A1
100
AcDbEntity
100
AcDbLine
  8
Motor Gear
 62
256
370
-1
  6
ByLayer
 10
62.3754708748315068
 20
74.1346211443292589
 30
0.0
 11
62.0721996317190872
 21
74.3438530553235495
 31
0.0
  0
LINE
  5
1A2
100
AcDbEntity
100
AcDbLine
  8
Motor Gear
 62
256
370
-1
  6
ByLayer
 10
62.0721996317190872
 20
74.3438530553235495
 30
0.0
 11
61.1699265331813251
 21
73.168049715535517
 31
0.0
  0
LINE
  5
1A3
100
AcDbEntity
100
AcDbLine
  8
Motor Gear
 62
256
370
-1
  6
ByLayer
 10
61.1699265331813251
 20
73.168049715535517
 30
0.0
 11
61.4505773681252947
 21
72.9292868212319974
 31
0.0
  0
LINE
  5
1A4
100
AcDbEntity
100
AcDbLine
  8
Motor Gear
 62
256
370
-1
  6
ByLayer
 10
61.4505773681252947
 20
72.9292868212319974
 30
0.0
 11
62.0294738432120312
 21
72.123565856297148
 31
0.0
  0
LINE
  5
1A5
100
AcDbEntity
100
AcDbLine
  8
Motor Gear
 62
256
370
-1
  6
ByLayer
 10
62.0294738432120312
 20
72.123565856297148
 30
0.0
 11
62.5893105780346843
 21
70.7584267094154598
 31
0.0
  0
LINE
  5
1A6
100
AcDbEntity
100
AcDbLine
  8
Motor Gear
 62
256
370
-1
  6
ByLayer
 10
62.5893105780346843
 20
70.7584267094154598
 30
0.0
 11
61.9146998172116128
 21
70.0838159485923882
 31
0.0
  0
LINE
  5
1A7
100
AcDbEntity
100
AcDbLine
  8
Motor Gear
 62
256
370
-1
  6
ByLayer
 10
61.9146998172116128
 20
70.0838159485923882
 30
0.0
 11
60.5495606703299245
 21
70.6436526834149987
 31
0.0
  0
LINE
  5
1A8
100
AcDbEntity
100
AcDbLine
  8
Motor Gear
 62
256
370
-1
  6
ByLayer
 10
60.5495606703299245
 20
70.6436526834149987
 30
0.0
 11
59.7438397053950894
 21
71.2225491585018062
 31
0.0
  0
LINE
  5
1A9
100
AcDbEntity
100
AcDbLine
  8
Motor Gear
 62
256
370
-1
  6
ByLayer
 10
59.7438397053950894
 20
71.2225491585018062
 30
0.0
 11
59.5050768110915271
 21
71.5031999934457474
 31
0.0
  0
LINE
  5
1AA
100
AcDbEntity
100
AcDbLine
  8
Motor Gear
 62
256
370
-1
  6
ByLayer
 10
59.5050768110915271
 20
71.5031999934457474
 30
0.0
 11
58.3292734713034804
 21
70.6009268949079569
 31
0.0
  0
LINE
  5
1AB
100
AcDbEntity
100
AcDbLine
  8
Motor Gear
 62
256
370
-1
  6
ByLayer
 10
58.3292734713034804
 20
70.6009268949079569
 30
0.0
 11
58.5385053822977852
 21
70.2976556517955373
 31
0.0
  0
LINE
  5
1AC
100
AcDbEntity
100
AcDbLine
  8
Motor Gear
 62
256
370
-1
  6
ByLayer
 10
58.5385053822977852
 20
70.2976556517955373
 30
0.0
 11
58.8891102061261051
 21
69.3694114957378929
 31
0.0
  0
LINE
  5
1AD
100
AcDbEntity
100
AcDbLine
  8
Motor Gear
 62
256
370
-1
  6
ByLayer
 10
58.8891102061261051
 20
69.3694114957378929
 30
0.0
 11
59.0765595568185802
 21
67.9060452616350858
 31
0.0
  0
LINE
  5
1AE
100
AcDbEntity
100
AcDbLine
  8
Motor Gear
 62
256
370
-1
  6
ByLayer
 10
59.0765595568185802
 20
67.9060452616350858
 30
0.0
 11
58.2503139165543189
 21
67.4291473023417041
 31
0.0
  0
LINE
  5
1AF
100
AcDbEntity
100
AcDbLine
  8
Motor Gear
 62
256
370
-1
  6
ByLayer
 10
58.2503139165543189
 20
67.4291473023417041
 30
0.0
 11
57.0766040832602641
 21
68.3230426643283835
 31
0.0
  0
LINE
  5
1B0
100
AcDbEntity
100
AcDbLine
  8
Motor Gear
 62
256
370
-1
  6
ByLayer
 10
57.0766040832602641
 20
68.3230426643283835
 30
0.0
 11
56.4482805209636069
 21
69.0908549094029354
 31
0.0
  0
LINE
  5
1B1
100
AcDbEntity
100
AcDbLine
  8
Motor Gear
 62
256
370
-1
  6
ByLayer
 10
56.4482805209636069
 20
69.0908549094029354
 30
0.0
 11
56.2901521350274265
 21
69.423657135824584
 31
0.0
  0
LINE
  5
1B2
100
AcDbEntity
100
AcDbLine
  8
Motor Gear
 62
256
370
-1
  6
ByLayer
 10
56.2901521350274265
 20
69.423657135824584
 30
0.0
 11
54.9210337673655999
 21
68.8564897887553826
 31
0.0
  0
LINE
  5
1B3
100
AcDbEntity
100
AcDbLine
  8
Motor Gear
 62
256
370
-1
  6
ByLayer
 10
54.9210337673655999
 20
68.8564897887553826
 30
0.0
 11
55.0446040827928869
 21
68.5094456328313868
 31
0.0
  0
LINE
  5
1B4
100
AcDbEntity
100
AcDbLine
  8
Motor Gear
 62
256
370
-1
  6
ByLayer
 10
55.0446040827928869
 20
68.5094456328313868
 30
0.0
 11
55.1430419306819601
 21
67.5221387680402927
 31
0.0
  0
LINE
  5
1B5
100
AcDbEntity
100
AcDbLine
  8
Motor Gear
 62
256
370
-1
  6
ByLayer
 10
55.1430419306819601
 20
67.5221387680402927
 30
0.0
 11
54.9453291291522419
 21
66.0600289346799059
 31
0.0
  0
LINE
  5
1B6
100
AcDbEntity
100
AcDbLine
  8
Motor Gear
 62
256
370
-1
  6
ByLayer
 10
54.9453291291522419
 20
66.0600289346799059
 30
0.0
 11
54.0237870139124823
 21
65.8130975802631752
 31
0.0
  0
LINE
  5
1B7
100
AcDbEntity
100
AcDbLine
  8
Motor Gear
 62
256
370
-1
  6
ByLayer
 10
54.0237870139124823
 20
65.8130975802631752
 30
0.0
 11
53.1215139153746918
 21
66.9805239256151737
 31
0.0
  0
LINE
  5
1B8
100
AcDbEntity
100
AcDbLine
  8
Motor Gear
 62
256
370
-1
  6
ByLayer
 10
53.1215139153746918
 20
66.9805239256151737
 30
0.0
 11
52.713103525670391
 21
67.8846819963240478
 31
0.0
  0
LINE
  5
1B9
100
AcDbEntity
100
AcDbLine
  8
Motor Gear
 62
256
370
-1
  6
ByLayer
 10
52.713103525670391
 20
67.8846819963240478
 30
0.0
 11
52.646710204690379
 21
68.2470159481699028
 31
0.0
  0
LINE
  5
1BA
100
AcDbEntity
100
AcDbLine
  8
Motor Gear
 62
256
370
-1
  6
ByLayer
 10
52.646710204690379
 20
68.2470159481699028
 30
0.0
 11
51.1772697590834014
 21
68.0537009202961372
 31
0.0
  0
LINE
  5
1BB
100
AcDbEntity
100
AcDbLine
  8
Motor Gear
 62
256
370
-1
  6
ByLayer
 10
51.1772697590834014
 20
68.0537009202961372
 30
0.0
 11
51.2068007423925735
 21
67.686341365480672
 31
0.0
  0
LINE
  5
1BC
100
AcDbEntity
100
AcDbLine
  8
Motor Gear
 62
256
370
-1
  6
ByLayer
 10
51.2068007423925735
 20
67.686341365480672
 30
0.0
 11
51.0463688314094952
 21
66.707202960802789
 31
0.0
  0
LINE
  5
1BD
100
AcDbEntity
100
AcDbLine
  8
Motor Gear
 62
256
370
-1
  6
ByLayer
 10
51.0463688314094952
 20
66.707202960802789
 30
0.0
 11
50.4768979592933533
 21
65.3462530532541308
 31
0.0
  0
LINE
  5
1BE
100
AcDbEntity
100
AcDbLine
  8
Motor Gear
 62
256
370
-1
  6
ByLayer
 10
50.4768979592933533
 20
65.3462530532541308
 30
0.0
 11
49.5231020407066467
 21
65.3462530532541308
 31
0.0
  0
LINE
  5
1BF
100
AcDbEntity
100
AcDbLine
  8
Motor Gear
 62
256
370
-1
  6
ByLayer
 10
49.5231020407066467
 20
65.3462530532541308
 30
0.0
 11
48.9536311685905048
 21
66.707202960802789
 31
0.0
  0
LINE
  5
1C0
100
AcDbEntity
100
AcDbLine
  8
Motor Gear
 62
256
370
-1
  6
ByLayer
 10
48.9536311685905048
 20
66.707202960802789
 30
0.0
 11
48.7931992576074265
 21
67.686341365480672
 31
0.0
  0
LINE
  5
1C1
100
AcDbEntity
100
AcDbLine
  8
Motor Gear
 62
256
370
-1
  6
ByLayer
 10
48.7931992576074265
 20
67.686341365480672
 30
0.0
 11
48.8227302409165986
 21
68.0537009202961372
 31
0.0
  0
LINE
  5
1C2
100
AcDbEntity
100
AcDbLine
  8
Motor Gear
 62
256
370
-1
  6
ByLayer
 10
48.8227302409165986
 20
68.0537009202961372
 30
0.0
 11
47.353289795309621
 21
68.2470159481699028
 31
0.0
  0
LINE
  5
1C3
100
AcDbEntity
100
AcDbLine
  8
Motor Gear
 62
256
370
-1
  6
ByLayer
 10
47.353289795309621
 20
68.2470159481699028
 30
0.0
 11
47.286896474329609
 21
67.8846819963240478
 31
0.0
  0
LINE
  5
1C4
100
AcDbEntity
100
AcDbLine
  8
Motor Gear
 62
256
370
-1
  6
ByLayer
 10
47.286896474329609
 20
67.8846819963240478
 30
0.0
 11
46.8784860846252798
 21
66.9805239256151737
 31
0.0
  0
LINE
  5
1C5
100
AcDbEntity
100
AcDbLine
  8
Motor Gear
 62
256
370
-1
  6
ByLayer
 10
46.8784860846252798
 20
66.9805239256151737
 30
0.0
 11
45.9762129860875177
 21
65.8130975802631895
 31
0.0
  0
LINE
  5
1C6
100
AcDbEntity
100
AcDbLine
  8
Motor Gear
 62
256
370
-1
  6
ByLayer
 10
45.9762129860875177
 20
65.8130975802631895
 30
0.0
 11
45.0546708708477297
 21
66.0600289346799059
 31
0.0
  0
LINE
  5
1C7
100
AcDbEntity
100
AcDbLine
  8
Motor Gear
 62
256
370
-1
  6
ByLayer
 10
45.0546708708477297
 20
66.0600289346799059
 30
0.0
 11
44.8569580693180114
 21
67.5221387680402927
 31
0.0
  0
LINE
  5
1C8
100
AcDbEntity
100
AcDbLine
  8
Motor Gear
 62
256
370
-1
  6
ByLayer
 10
44.8569580693180114
 20
67.5221387680402927
 30
0.0
 11
44.9553959172070847
 21
68.509445632831401
 31
0.0
  0
LINE
  5
1C9
100
AcDbEntity
100
AcDbLine
  8
Motor Gear
 62
256
370
-1
  6
ByLayer
 10
44.9553959172070847
 20
68.509445632831401
 30
0.0
 11
45.0789662326343716
 21
68.8564897887553826
 31
0.0
  0
LINE
  5
1CA
100
AcDbEntity
100
AcDbLine
  8
Motor Gear
 62
256
370
-1
  6
ByLayer
 10
45.0789662326343716
 20
68.8564897887553826
 30
0.0
 11
43.7098478649725735
 21
69.423657135824584
 31
0.0
  0
LINE
  5
1CB
100
AcDbEntity
100
AcDbLine
  8
Motor Gear
 62
256
370
-1
  6
ByLayer
 10
43.7098478649725735
 20
69.423657135824584
 30
0.0
 11
43.5517194790363931
 21
69.0908549094029354
 31
0.0
  0
LINE
  5
1CC
100
AcDbEntity
100
AcDbLine
  8
Motor Gear
 62
256
370
-1
  6
ByLayer
 10
43.5517194790363931
 20
69.0908549094029354
 30
0.0
 11
42.9233959167397074
 21
68.3230426643283835
 31
0.0
  0
LINE
  5
1CD
100
AcDbEntity
100
AcDbLine
  8
Motor Gear
 62
256
370
-1
  6
ByLayer
 10
42.9233959167397074
 20
68.3230426643283835
 30
0.0
 11
41.7496860834456527
 21
67.4291473023417041
 31
0.0
  0
LINE
  5
1CE
100
AcDbEntity
100
AcDbLine
  8
Motor Gear
 62
256
370
-1
  6
ByLayer
 10
41.7496860834456527
 20
67.4291473023417041
 30
0.0
 11
40.9234404431814198
 21
67.9060452616350858
 31
0.0
  0
LINE
  5
1CF
100
AcDbEntity
100
AcDbLine
  8
Motor Gear
 62
256
370
-1
  6
ByLayer
 10
40.9234404431814198
 20
67.9060452616350858
 30
0.0
 11
41.1108897938738664
 21
69.3694114957378929
 31
0.0
  0
LINE
  5
1D0
100
AcDbEntity
100
AcDbLine
  8
Motor Gear
 62
256
370
-1
  6
ByLayer
 10
41.1108897938738664
 20
69.3694114957378929
 30
0.0
 11
41.4614946177021864
 21
70.2976556517955373
 31
0.0
  0
LINE
  5
1D1
100
AcDbEntity
100
AcDbLine
  8
Motor Gear
 62
256
370
-1
  6
ByLayer
 10
41.4614946177021864
 20
70.2976556517955373
 30
0.0
 11
41.6707265286965196
 21
70.6009268949079569
 31
0.0
  0
LINE
  5
1D2
100
AcDbEntity
100
AcDbLine
  8
Motor Gear
 62
256
370
-1
  6
ByLayer
 10
41.6707265286965196
 20
70.6009268949079569
 30
0.0
 11
40.4949231889084444
 21
71.5031999934457474
 31
0.0
  0
LINE
  5
1D3
100
AcDbEntity
100
AcDbLine
  8
Motor Gear
 62
256
370
-1
  6
ByLayer
 10
40.4949231889084444
 20
71.5031999934457474
 30
0.0
 11
40.2561602946049106
 21
71.2225491585018062
 31
0.0
  0
LINE
  5
1D4
100
AcDbEntity
100
AcDbLine
  8
Motor Gear
 62
256
370
-1
  6
ByLayer
 10
40.2561602946049106
 20
71.2225491585018062
 30
0.0
 11
39.4504393296700755
 21
70.6436526834150129
 31
0.0
  0
LINE
  5
1D5
100
AcDbEntity
100
AcDbLine
  8
Motor Gear
 62
256
370
-1
  6
ByLayer
 10
39.4504393296700755
 20
70.6436526834150129
 30
0.0
 11
38.0853001827883872
 21
70.0838159485923882
 31
0.0
  0
LINE
  5
1D6
100
AcDbEntity
100
AcDbLine
  8
Motor Gear
 62
256
370
-1
  6
ByLayer
 10
38.0853001827883872
 20
70.0838159485923882
 30
0.0
 11
37.4106894219652872
 21
70.7584267094154598
 31
0.0
  0
LINE
  5
1D7
100
AcDbEntity
100
AcDbLine
  8
Motor Gear
 62
256
370
-1
  6
ByLayer
 10
37.4106894219652872
 20
70.7584267094154598
 30
0.0
 11
37.9705261567879404
 21
72.123565856297148
 31
0.0
  0
LINE
  5
1D8
100
AcDbEntity
100
AcDbLine
  8
Motor Gear
 62
256
370
-1
  6
ByLayer
 10
37.9705261567879404
 20
72.123565856297148
 30
0.0
 11
38.5494226318747053
 21
72.9292868212320116
 31
0.0
  0
LINE
  5
1D9
100
AcDbEntity
100
AcDbLine
  8
Motor Gear
 62
256
370
-1
  6
ByLayer
 10
38.5494226318747053
 20
72.9292868212320116
 30
0.0
 11
38.8300734668186749
 21
73.168049715535517
 31
0.0
  0
LINE
  5
1DA
100
AcDbEntity
100
AcDbLine
  8
Motor Gear
 62
256
370
-1
  6
ByLayer
 10
38.8300734668186749
 20
73.168049715535517
 30
0.0
 11
37.9278003682809128
 21
74.3438530553235637
 31
0.0
  0
LINE
  5
1DB
100
AcDbEntity
100
AcDbLine
  8
Motor Gear
 62
256
370
-1
  6
ByLayer
 10
37.9278003682809128
 20
74.3438530553235637
 30
0.0
 11
37.6245291251684648
 21
74.1346211443292873
 31
0.0
  0
LINE
  5
1DC
100
AcDbEntity
100
AcDbLine
  8
Motor Gear
 62
256
370
-1
  6
ByLayer
 10
37.6245291251684648
 20
74.1346211443292873
 30
0.0
 11
36.6962849691108204
 21
73.7840163205009532
 31
0.0
  0
LINE
  5
1DD
100
AcDbEntity
100
AcDbLine
  8
Motor Gear
 62
256
370
-1
  6
ByLayer
 10
36.6962849691108204
 20
73.7840163205009532
 30
0.0
 11
35.2329187350080133
 21
73.5965669698084923
 31
0.0
  0
LINE
  5
1DE
100
AcDbEntity
100
AcDbLine
  8
Motor Gear
 62
256
370
-1
  6
ByLayer
 10
35.2329187350080133
 20
73.5965669698084923
 30
0.0
 11
34.75602077571466
 21
74.4228126100727252
 31
0.0
  0
LINE
  5
1DF
100
AcDbEntity
100
AcDbLine
  8
Motor Gear
 62
256
370
-1
  6
ByLayer
 10
34.75602077571466
 20
74.4228126100727252
 30
0.0
 11
35.6499161377013252
 21
75.59652244336678
 31
0.0
  0
LINE
  5
1E0
100
AcDbEntity
100
AcDbLine
  8
Motor Gear
 62
256
370
-1
  6
ByLayer
 10
35.6499161377013252
 20
75.59652244336678
 30
0.0
 11
36.4177283827758913
 21
76.2248460056634514
 31
0.0
  0
LINE
  5
1E1
100
AcDbEntity
100
AcDbLine
  8
Motor Gear
 62
256
370
-1
  6
ByLayer
 10
36.4177283827758913
 20
76.2248460056634514
 30
0.0
 11
36.7505306091975399
 21
76.3829743915996318
 31
0.0
  0
LINE
  5
1E2
100
AcDbEntity
100
AcDbLine
  8
Motor Gear
 62
256
370
-1
  6
ByLayer
 10
36.7505306091975399
 20
76.3829743915996318
 30
0.0
 11
36.1833632621282959
 21
77.7520927592614441
 31
0.0
  0
LINE
  5
1E3
100
AcDbEntity
100
AcDbLine
  8
Motor Gear
 62
256
370
-1
  6
ByLayer
 10
36.1833632621282959
 20
77.7520927592614441
 30
0.0
 11
35.8363191062043143
 21
77.6285224438341714
 31
0.0
  0
LINE
  5
1E4
100
AcDbEntity
100
AcDbLine
  8
Motor Gear
 62
256
370
-1
  6
ByLayer
 10
35.8363191062043143
 20
77.6285224438341714
 30
0.0
 11
34.8490122414132202
 21
77.5300845959450839
 31
0.0
  0
LINE
  5
1E5
100
AcDbEntity
100
AcDbLine
  8
Motor Gear
 62
256
370
-1
  6
ByLayer
 10
34.8490122414132202
 20
77.5300845959450839
 30
0.0
 11
33.3869024080528334
 21
77.7277973974747738
 31
0.0
  0
LINE
  5
1E6
100
AcDbEntity
100
AcDbLine
  8
Motor Gear
 62
256
370
-1
  6
ByLayer
 10
33.3869024080528334
 20
77.7277973974747738
 30
0.0
 11
33.1399710536361169
 21
78.6493395127145902
 31
0.0
  0
LINE
  5
1E7
100
AcDbEntity
100
AcDbLine
  8
Motor Gear
 62
256
370
-1
  6
ByLayer
 10
33.1399710536361169
 20
78.6493395127145902
 30
0.0
 11
34.3073973989881154
 21
79.5516126112523665
 31
0.0
  0
LINE
  5
1E8
100
AcDbEntity
100
AcDbLine
  8
Motor Gear
 62
256
370
-1
  6
ByLayer
 10
34.3073973989881154
 20
79.5516126112523665
 30
0.0
 11
35.2115554696970037
 21
79.960023000956653
 31
0.0
  0
LINE
  5
1E9
100
AcDbEntity
100
AcDbLine
  8
Motor Gear
 62
256
370
-1
  6
ByLayer
 10
35.2115554696970037
 20
79.960023000956653
 30
0.0
 11
35.5738894215428445
 21
80.0264163219366935
 31
0.0
  0
LINE
  5
1EA
100
AcDbEntity
100
AcDbLine
  8
Motor Gear
 62
256
370
-1
  6
ByLayer
 10
35.5738894215428445
 20
80.0264163219366935
 30
0.0
 11
35.3805743936690646
 21
81.4958567675436996
 31
0.0
  0
LINE
  5
1EB
100
AcDbEntity
100
AcDbLine
  8
Motor Gear
 62
256
370
-1
  6
ByLayer
 10
35.3805743936690646
 20
81.4958567675436996
 30
0.0
 11
35.0132148388535995
 21
81.4663257842344564
 31
0.0
  0
LINE
  5
1EC
100
AcDbEntity
100
AcDbLine
  8
Motor Gear
 62
256
370
-1
  6
ByLayer
 10
35.0132148388535995
 20
81.4663257842344564
 30
0.0
 11
34.0340764341756881
 21
81.6267576952175631
 31
0.0
  0
LINE
  5
1ED
100
AcDbEntity
100
AcDbLine
  8
Motor Gear
 62
256
370
-1
  6
ByLayer
 10
34.0340764341756881
 20
81.6267576952175631
 30
0.0
 11
32.6731265266270725
 21
82.1962285673336908
 31
0.0
  0
LINE
  5
1EE
100
AcDbEntity
100
AcDbLine
  8
Motor Gear
 62
256
370
-1
  6
ByLayer
 10
32.6731265266270725
 20
82.1962285673336908
 30
0.0
 11
32.6731265266270725
 21
83.1500244859204543
 31
0.0
  0
LINE
  5
1EF
100
AcDbEntity
100
AcDbLine
  8
Motor Gear
 62
256
370
-1
  6
ByLayer
 10
32.6731265266270725
 20
83.1500244859204543
 30
0.0
 11
34.0340764341756881
 21
83.7194953580365677
 31
0.0
  0
LINE
  5
1F0
100
AcDbEntity
100
AcDbLine
  8
Motor Gear
 62
256
370
-1
  6
ByLayer
 10
34.0340764341756881
 20
83.7194953580365677
 30
0.0
 11
35.0132148388535995
 21
83.879927269019646
 31
0.0
  0
LINE
  5
1F1
100
AcDbEntity
100
AcDbLine
  8
Motor Gear
 62
256
370
-1
  6
ByLayer
 10
35.0132148388535995
 20
83.879927269019646
 30
0.0
 11
35.3805743936690646
 21
83.8503962857104739
 31
0.0
  0
LINE
  5
1F2
100
AcDbEntity
100
AcDbLine
  8
Motor Gear
 62
256
370
-1
  6
ByLayer
 10
35.3805743936690646
 20
83.8503962857104739
 30
0.0
 11
35.5738894215428445
 21
85.3198367313174799
 31
0.0
  0
LINE
  5
1F3
100
AcDbEntity
100
AcDbLine
  8
Motor Gear
 62
256
370
-1
  6
ByLayer
 10
35.5738894215428445
 20
85.3198367313174799
 30
0.0
 11
35.2115554696970037
 21
85.3862300522974778
 31
0.0
  0
LINE
  5
1F4
100
AcDbEntity
100
AcDbLine
  8
Motor Gear
 62
256
370
-1
  6
ByLayer
 10
35.2115554696970037
 20
85.3862300522974778
 30
0.0
 11
34.3073973989881154
 21
85.7946404420017643
 31
0.0
  0
LINE
  5
1F5
100
AcDbEntity
100
AcDbLine
  8
Motor Gear
 62
256
370
-1
  6
ByLayer
 10
34.3073973989881154
 20
85.7946404420017643
 30
0.0
 11
33.1399710536361169
 21
86.6969135405395264
 31
0.0
  0
LINE
  5
1F6
100
AcDbEntity
100
AcDbLine
  8
Motor Gear
 62
256
370
-1
  6
ByLayer
 10
33.1399710536361169
 20
86.6969135405395264
 30
0.0
 11
33.3869024080528334
 21
87.6184556557793428
 31
0.0
  0
LINE
  5
1F7
100
AcDbEntity
100
AcDbLine
  8
Motor Gear
 62
256
370
-1
  6
ByLayer
 10
33.3869024080528334
 20
87.6184556557793428
 30
0.0
 11
34.8490122414132202
 21
87.8161684573090326
 31
0.0
  0
LINE
  5
1F8
100
AcDbEntity
100
AcDbLine
  8
Motor Gear
 62
256
370
-1
  6
ByLayer
 10
34.8490122414132202
 20
87.8161684573090326
 30
0.0
 11
35.8363191062043143
 21
87.7177306094199594
 31
0.0
  0
LINE
  5
1F9
100
AcDbEntity
100
AcDbLine
  8
Motor Gear
 62
256
370
-1
  6
ByLayer
 10
35.8363191062043143
 20
87.7177306094199594
 30
0.0
 11
36.1833632621282959
 21
87.5941602939926867
 31
0.0
  0
LINE
  5
1FA
100
AcDbEntity
100
AcDbLine
  8
Motor Gear
 62
256
370
-1
  6
ByLayer
 10
36.1833632621282959
 20
87.5941602939926867
 30
0.0
 11
36.7505306091975399
 21
88.963278661654499
 31
0.0
  0
LINE
  5
1FB
100
AcDbEntity
100
AcDbLine
  8
Motor Gear
 62
256
370
-1
  6
ByLayer
 10
36.7505306091975399
 20
88.963278661654499
 30
0.0
 11
36.4177283827758913
 21
89.1214070475906794
 31
0.0
  0
LINE
  5
1FC
100
AcDbEntity
100
AcDbLine
  8
Motor Gear
 62
256
370
-1
  6
ByLayer
 10
36.4177283827758913
 20
89.1214070475906794
 30
0.0
 11
35.6499161377013252
 21
89.7497306098873366
 31
0.0
  0
LINE
  5
1FD
100
AcDbEntity
100
AcDbLine
  8
Motor Gear
 62
256
370
-1
  6
ByLayer
 10
35.6499161377013252
 20
89.7497306098873366
 30
0.0
 11
34.75602077571466
 21
90.9234404431814198
 31
0.0
  0
LINE
  5
1FE
100
AcDbEntity
100
AcDbLine
  8
Motor Gear
 62
256
370
-1
  6
ByLayer
 10
34.75602077571466
 20
90.9234404431814198
 30
0.0
 11
35.2329187350080133
 21
91.7496860834456527
 31
0.0
  0
LINE
  5
1FF
100
AcDbEntity
100
AcDbLine
  8
Motor Gear
 62
256
370
-1
  6
ByLayer
 10
35.2329187350080133
 20
91.7496860834456527
 30
0.0
 11
36.6962849691108204
 21
91.5622367327531776
 31
0.0
  0
LINE
  5
200
100
AcDbEntity
100
AcDbLine
  8
Motor Gear
 62
256
370
-1
  6
ByLayer
 10
36.6962849691108204
 20
91.5622367327531776
 30
0.0
 11
37.6245291251684648
 21
91.2116319089248577
 31
0.0
  0
LINE
  5
201
100
AcDbEntity
100
AcDbLine
  8
Motor Gear
 62
256
370
-1
  6
ByLayer
 10
37.6245291251684648
 20
91.2116319089248577
 30
0.0
 11
37.9278003682809128
 21
91.0023999979305671
 31
0.0
  0
LINE
  5
202
100
AcDbEntity
100
AcDbLine
  8
Motor Gear
 62
256
370
-1
  6
ByLayer
 10
37.9278003682809128
 20
91.0023999979305671
 30
0.0
 11
38.8300734668186749
 21
92.1782033377185996
 31
0.0
  0
LINE
  5
203
100
AcDbEntity
100
AcDbLine
  8
Motor Gear
 62
256
370
-1
  6
ByLayer
 10
38.8300734668186749
 20
92.1782033377185996
 30
0.0
 11
38.5494226318747053
 21
92.4169662320221335
 31
0.0
  0
LINE
  5
204
100
AcDbEntity
100
AcDbLine
  8
Motor Gear
 62
256
370
-1
  6
ByLayer
 10
38.5494226318747053
 20
92.4169662320221335
 30
0.0
 11
37.9705261567879688
 21
93.222687196956997
 31
0.0
  0
LINE
  5
205
100
AcDbEntity
100
AcDbLine
  8
Motor Gear
 62
256
370
-1
  6
ByLayer
 10
37.9705261567879688
 20
93.222687196956997
 30
0.0
 11
37.4106894219652872
 21
94.5878263438386568
 31
0.0
  0
LINE
  5
206
100
AcDbEntity
100
AcDbLine
  8
Motor Gear
 62
256
370
-1
  6
ByLayer
 10
37.4106894219652872
 20
94.5878263438386568
 30
0.0
 11
38.0853001827883872
 21
95.2624371046617284
 31
0.0
  0
LINE
  5
207
100
AcDbEntity
100
AcDbLine
  8
Motor Gear
 62
256
370
-1
  6
ByLayer
 10
38.0853001827883872
 20
95.2624371046617284
 30
0.0
 11
39.4504393296700755
 21
94.7026003698391321
 31
0.0
  0
LINE
  5
208
100
AcDbEntity
100
AcDbLine
  8
Motor Gear
 62
256
370
-1
  6
ByLayer
 10
39.4504393296700755
 20
94.7026003698391321
 30
0.0
 11
40.2561602946049391
 21
94.1237038947523246
 31
0.0
  0
LINE
  5
209
100
AcDbEntity
100
AcDbLine
  8
Motor Gear
 62
256
370
-1
  6
ByLayer
 10
40.2561602946049391
 20
94.1237038947523246
 30
0.0
 11
40.4949231889084444
 21
93.8430530598083692
 31
0.0
  0
LINE
  5
20A
100
AcDbEntity
100
AcDbLine
  8
Motor Gear
 62
256
370
-1
  6
ByLayer
 10
40.4949231889084444
 20
93.8430530598083692
 30
0.0
 11
41.6707265286965196
 21
94.7453261583461597
 31
0.0
  0
LINE
  5
20B
100
AcDbEntity
100
AcDbLine
  8
Motor Gear
 62
256
370
-1
  6
ByLayer
 10
41.6707265286965196
 20
94.7453261583461597
 30
0.0
 11
41.4614946177021864
 21
95.0485974014585793
 31
0.0
  0
LINE
  5
20C
100
AcDbEntity
100
AcDbLine
  8
Motor Gear
 62
256
370
-1
  6
ByLayer
 10
41.4614946177021864
 20
95.0485974014585793
 30
0.0
 11
41.1108897938738664
 21
95.9768415575162379
 31
0.0
  0
LINE
  5
20D
100
AcDbEntity
100
AcDbLine
  8
Motor Gear
 62
256
370
-1
  6
ByLayer
 10
41.1108897938738664
 20
95.9768415575162379
 30
0.0
 11
40.9234404431814198
 21
97.4402077916190308
 31
0.0
  0
LINE
  5
20E
100
AcDbEntity
100
AcDbLine
  8
Motor Gear
 62
256
370
-1
  6
ByLayer
 10
40.9234404431814198
 20
97.4402077916190308
 30
0.0
 11
41.7496860834456527
 21
97.9171057509124125
 31
0.0
  0
LINE
  5
20F
100
AcDbEntity
100
AcDbLine
  8
Motor Gear
 62
256
370
-1
  6
ByLayer
 10
41.7496860834456527
 20
97.9171057509124125
 30
0.0
 11
42.9233959167397359
 21
97.0232103889257473
 31
0.0
  0
LINE
  5
210
100
AcDbEntity
100
AcDbLine
  8
Motor Gear
 62
256
370
-1
  6
ByLayer
 10
42.9233959167397359
 20
97.0232103889257473
 30
0.0
 11
43.5517194790363931
 21
96.2553981438511812
 31
0.0
  0
LINE
  5
211
100
AcDbEntity
100
AcDbLine
  8
Motor Gear
 62
256
370
-1
  6
ByLayer
 10
43.5517194790363931
 20
96.2553981438511812
 30
0.0
 11
43.7098478649725735
 21
95.9225959174295326
 31
0.0
  0
LINE
  5
212
100
AcDbEntity
100
AcDbLine
  8
Motor Gear
 62
256
370
-1
  6
ByLayer
 10
43.7098478649725735
 20
95.9225959174295326
 30
0.0
 11
45.0789662326344001
 21
96.4897632644987482
 31
0.0
  0
LINE
  5
213
100
AcDbEntity
100
AcDbLine
  8
Motor Gear
 62
256
370
-1
  6
ByLayer
 10
45.0789662326344001
 20
96.4897632644987482
 30
0.0
 11
44.9553959172070847
 21
96.8368074204227298
 31
0.0
  0
LINE
  5
214
100
AcDbEntity
100
AcDbLine
  8
Motor Gear
 62
256
370
-1
  6
ByLayer
 10
44.9553959172070847
 20
96.8368074204227298
 30
0.0
 11
44.8569580693180114
 21
97.8241142852138239
 31
0.0
  0
LINE
  5
215
100
AcDbEntity
100
AcDbLine
  8
Motor Gear
 62
256
370
-1
  6
ByLayer
 10
44.8569580693180114
 20
97.8241142852138239
 30
0.0
 11
45.0546708708477297
 21
99.2862241185742249
 31
0.0
  0
LINE
  5
216
100
AcDbEntity
100
AcDbLine
  8
Motor Gear
 62
256
370
-1
  6
ByLayer
 10
45.0546708708477297
 20
99.2862241185742249
 30
0.0
 11
45.9762129860875177
 21
99.5331554729909556
 31
0.0
  0
LINE
  5
217
100
AcDbEntity
100
AcDbLine
  8
Motor Gear
 62
256
370
-1
  6
ByLayer
 10
45.9762129860875177
 20
99.5331554729909556
 30
0.0
 11
46.8784860846252798
 21
98.3657291276389572
 31
0.0
  0
LINE
  5
218
100
AcDbEntity
100
AcDbLine
  8
Motor Gear
 62
256
370
-1
  6
ByLayer
 10
46.8784860846252798
 20
98.3657291276389572
 30
0.0
 11
47.2868964743295805
 21
97.4615710569300973
 31
0.0
  0
LINE
  5
219
100
AcDbEntity
100
AcDbLine
  8
Motor Gear
 62
256
370
-1
  6
ByLayer
 10
47.2868964743295805
 20
97.4615710569300973
 30
0.0
 11
47.353289795309621
 21
97.099237105084228
 31
0.0
  0
LINE
  5
21A
100
AcDbEntity
100
AcDbLine
  8
Motor Gear
 62
256
370
-1
  6
ByLayer
 10
47.353289795309621
 20
97.099237105084228
 30
0.0
 11
48.8227302409165986
 21
97.2925521329580079
 31
0.0
  0
LINE
  5
21B
100
AcDbEntity
100
AcDbLine
  8
Motor Gear
 62
256
370
-1
  6
ByLayer
 10
48.8227302409165986
 20
97.2925521329580079
 30
0.0
 11
48.7931992576074265
 21
97.6599116877734446
 31
0.0
  0
LINE
  5
21C
100
AcDbEntity
100
AcDbLine
  8
Motor Gear
 62
256
370
-1
  6
ByLayer
 10
48.7931992576074265
 20
97.6599116877734446
 30
0.0
 11
48.9536311685905048
 21
98.6390500924513276
 31
0.0
  0
LINE
  5
21D
100
AcDbEntity
100
AcDbLine
  8
Motor Gear
 62
256
370
-1
  6
ByLayer
 10
48.9536311685905048
 20
98.6390500924513276
 30
0.0
 11
49.5231020407066467
 21
100.0
 31
0.0
  0
LINE
  5
21E
100
AcDbEntity
100
AcDbLine
  8
Motor Gear
 62
256
370
-1
  6
ByLayer
 10
49.5231020407066467
 20
100.0
 30
0.0
 11
50.4768979592933533
 21
100.0
 31
0.0
  0
LINE
  5
21F
100
AcDbEntity
100
AcDbLine
  8
Motor Gear
 62
256
370
-1
  6
ByLayer
 10
50.4768979592933533
 20
100.0
 30
0.0
 11
51.0463688314094952
 21
98.6390500924513276
 31
0.0
  0
LINE
  5
220
100
AcDbEntity
100
AcDbLine
  8
Motor Gear
 62
256
370
-1
  6
ByLayer
 10
51.0463688314094952
 20
98.6390500924513276
 30
0.0
 11
51.2068007423925735
 21
97.6599116877734446
 31
0.0
  0
LINE
  5
221
100
AcDbEntity
100
AcDbLine
  8
Motor Gear
 62
256
370
-1
  6
ByLayer
 10
51.2068007423925735
 20
97.6599116877734446
 30
0.0
 11
51.1772697590833729
 21
97.2925521329580079
 31
0.0
  0
LINE
  5
222
100
AcDbEntity
100
AcDbLine
  8
Motor Gear
 62
256
370
-1
  6
ByLayer
 10
51.1772697590833729
 20
97.2925521329580079
 30
0.0
 11
52.646710204690379
 21
97.099237105084228
 31
0.0
  0
LINE
  5
223
100
AcDbEntity
100
AcDbLine
  8
Motor Gear
 62
256
370
-1
  6
ByLayer
 10
52.646710204690379
 20
97.099237105084228
 30
0.0
 11
52.713103525670391
 21
97.4615710569300973
 31
0.0
  0
LINE
  5
224
100
AcDbEntity
100
AcDbLine
  8
Motor Gear
 62
256
370
-1
  6
ByLayer
 10
52.713103525670391
 20
97.4615710569300973
 30
0.0
 11
53.1215139153747202
 21
98.3657291276389572
 31
0.0
  0
LINE
  5
225
100
AcDbEntity
100
AcDbLine
  8
Motor Gear
 62
256
370
-1
  6
ByLayer
 10
53.1215139153747202
 20
98.3657291276389572
 30
0.0
 11
54.0237870139124823
 21
99.5331554729909556
 31
0.0
  0
LINE
  5
226
100
AcDbEntity
100
AcDbLine
  8
Motor Gear
 62
256
370
-1
  6
ByLayer
 10
54.0237870139124823
 20
99.5331554729909556
 30
0.0
 11
54.9453291291522419
 21
99.2862241185742249
 31
0.0
  0
LINE
  5
227
100
AcDbEntity
100
AcDbLine
  8
Motor Gear
 62
256
370
-1
  6
ByLayer
 10
54.9453291291522419
 20
99.2862241185742249
 30
0.0
 11
55.1430419306819601
 21
97.8241142852138239
 31
0.0
  0
LINE
  5
228
100
AcDbEntity
100
AcDbLine
  8
Motor Gear
 62
256
370
-1
  6
ByLayer
 10
55.1430419306819601
 20
97.8241142852138239
 30
0.0
 11
55.0446040827929153
 21
96.8368074204227298
 31
0.0
  0
LINE
  5
229
100
AcDbEntity
100
AcDbLine
  8
Motor Gear
 62
256
370
-1
  6
ByLayer
 10
55.0446040827929153
 20
96.8368074204227298
 30
0.0
 11
54.9210337673655999
 21
96.4897632644987482
 31
0.0
  0
LINE
  5
22A
100
AcDbEntity
100
AcDbLine
  8
Motor Gear
 62
256
370
-1
  6
ByLayer
 10
54.9210337673655999
 20
96.4897632644987482
 30
0.0
 11
56.2901521350274265
 21
95.9225959174295326
 31
0.0
  0
LINE
  5
22B
100
AcDbEntity
100
AcDbLine
  8
Motor Gear
 62
256
370
-1
  6
ByLayer
 10
56.2901521350274265
 20
95.9225959174295326
 30
0.0
 11
56.4482805209636069
 21
96.2553981438511812
 31
0.0
  0
LINE
  5
22C
100
AcDbEntity
100
AcDbLine
  8
Motor Gear
 62
256
370
-1
  6
ByLayer
 10
56.4482805209636069
 20
96.2553981438511812
 30
0.0
 11
57.0766040832602926
 21
97.0232103889257473
 31
0.0
  0
LINE
  5
22D
100
AcDbEntity
100
AcDbLine
  8
Motor Gear
 62
256
370
-1
  6
ByLayer
 10
57.0766040832602926
 20
97.0232103889257473
 30
0.0
 11
58.2503139165543473
 21
97.9171057509124125
 31
0.0
  0
LINE
  5
22E
100
AcDbEntity
100
AcDbLine
  8
Motor Gear
 62
256
370
-1
  6
ByLayer
 10
58.2503139165543473
 20
97.9171057509124125
 30
0.0
 11
59.0765595568185802
 21
97.4402077916190308
 31
0.0
  0
LINE
  5
22F
100
AcDbEntity
100
AcDbLine
  8
Motor Gear
 62
256
370
-1
  6
ByLayer
 10
59.0765595568185802
 20
97.4402077916190308
 30
0.0
 11
58.8891102061261051
 21
95.9768415575162379
 31
0.0
  0
LINE
  5
230
100
AcDbEntity
100
AcDbLine
  8
Motor Gear
 62
256
370
-1
  6
ByLayer
 10
58.8891102061261051
 20
95.9768415575162379
 30
0.0
 11
58.5385053822978136
 21
95.0485974014585793
 31
0.0
  0
LINE
  5
231
100
AcDbEntity
100
AcDbLine
  8
Motor Gear
 62
256
370
-1
  6
ByLayer
 10
58.5385053822978136
 20
95.0485974014585793
 30
0.0
 11
58.3292734713034804
 21
94.7453261583461597
 31
0.0
  0
LINE
  5
232
100
AcDbEntity
100
AcDbLine
  8
Motor Gear
 62
256
370
-1
  6
ByLayer
 10
58.3292734713034804
 20
94.7453261583461597
 30
0.0
 11
59.5050768110915271
 21
93.8430530598083692
 31
0.0
  0
LINE
  5
233
100
AcDbEntity
100
AcDbLine
  8
Motor Gear
 62
256
370
-1
  6
ByLayer
 10
59.5050768110915271
 20
93.8430530598083692
 30
0.0
 11
59.7438397053950609
 21
94.1237038947523246
 31
0.0
  0
LINE
  5
234
100
AcDbEntity
100
AcDbLine
  8
Motor Gear
 62
256
370
-1
  6
ByLayer
 10
59.7438397053950609
 20
94.1237038947523246
 30
0.0
 11
60.5495606703299245
 21
94.7026003698391321
 31
0.0
  0
LINE
  5
235
100
AcDbEntity
100
AcDbLine
  8
Motor Gear
 62
256
370
-1
  6
ByLayer
 10
60.5495606703299245
 20
94.7026003698391321
 30
0.0
 11
61.9146998172116128
 21
95.2624371046617284
 31
0.0
  0
LINE
  5
236
100
AcDbEntity
100
AcDbLine
  8
Motor Gear
 62
256
370
-1
  6
ByLayer
 10
61.9146998172116128
 20
95.2624371046617284
 30
0.0
 11
62.5893105780346843
 21
94.5878263438386568
 31
0.0
  0
LINE
  5
237
100
AcDbEntity
100
AcDbLine
  8
Motor Gear
 62
256
370
-1
  6
ByLayer
 10
62.5893105780346843
 20
94.5878263438386568
 30
0.0
 11
62.0294738432120596
 21
93.2226871969569828
 31
0.0
  0
LINE
  5
238
100
AcDbEntity
100
AcDbLine
  8
Motor Gear
 62
256
370
-1
  6
ByLayer
 10
62.0294738432120596
 20
93.2226871969569828
 30
0.0
 11
61.4505773681252947
 21
92.4169662320221335
 31
0.0
  0
LINE
  5
239
100
AcDbEntity
100
AcDbLine
  8
Motor Gear
 62
256
370
-1
  6
ByLayer
 10
61.4505773681252947
 20
92.4169662320221335
 30
0.0
 11
61.1699265331813251
 21
92.1782033377185996
 31
0.0
  0
LINE
  5
23A
100
AcDbEntity
100
AcDbLine
  8
Motor Gear
 62
256
370
-1
  6
ByLayer
 10
61.1699265331813251
 20
92.1782033377185996
 30
0.0
 11
62.0721996317190872
 21
91.0023999979305671
 31
0.0
  0
LINE
  5
23B
100
AcDbEntity
100
AcDbLine
  8
Motor Gear
 62
256
370
-1
  6
ByLayer
 10
62.0721996317190872
 20
91.0023999979305671
 30
0.0
 11
62.3754708748315068
 21
91.2116319089248577
 31
0.0
  0
LINE
  5
23C
100
AcDbEntity
100
AcDbLine
  8
Motor Gear
 62
256
370
-1
  6
ByLayer
 10
62.3754708748315068
 20
91.2116319089248577
 30
0.0
 11
63.3037150308891796
 21
91.5622367327531776
 31
0.0
  0
LINE
  5
23D
100
AcDbEntity
100
AcDbLine
  8
Motor Gear
 62
256
370
-1
  6
ByLayer
 10
63.3037150308891796
 20
91.5622367327531776
 30
0.0
 11
64.7670812649919583
 21
91.7496860834456527
 31
0.0
  0
LINE
  5
23E
100
AcDbEntity
100
AcDbLine
  8
Motor Gear
 62
256
370
-1
  6
ByLayer
 10
64.7670812649919583
 20
91.7496860834456527
 30
0.0
 11
65.2439792242853116
 21
90.9234404431814198
 31
0.0
  0
LINE
  5
23F
100
AcDbEntity
100
AcDbLine
  8
Motor Gear
 62
256
370
-1
  6
ByLayer
 10
65.2439792242853116
 20
90.9234404431814198
 30
0.0
 11
64.3500838622986464
 21
89.7497306098873366
 31
0.0
  0
LINE
  5
240
100
AcDbEntity
100
AcDbLine
  8
Motor Gear
 62
256
370
-1
  6
ByLayer
 10
64.3500838622986464
 20
89.7497306098873366
 30
0.0
 11
63.5822716172241087
 21
89.1214070475906794
 31
0.0
  0
LINE
  5
241
100
AcDbEntity
100
AcDbLine
  8
Motor Gear
 62
256
370
-1
  6
ByLayer
 10
63.5822716172241087
 20
89.1214070475906794
 30
0.0
 11
63.2494693908024601
 21
88.963278661654499
 31
0.0
  0
LINE
  5
242
100
AcDbEntity
100
AcDbLine
  8
Motor Gear
 62
256
370
-1
  6
ByLayer
 10
63.2494693908024601
 20
88.963278661654499
 30
0.0
 11
63.8166367378717041
 21
87.5941602939926867
 31
0.0
  0
LINE
  5
243
100
AcDbEntity
100
AcDbLine
  8
Motor Gear
 62
256
370
-1
  6
ByLayer
 10
63.8166367378717041
 20
87.5941602939926867
 30
0.0
 11
64.1636808937956573
 21
87.7177306094199594
 31
0.0
  0
LINE
  5
244
100
AcDbEntity
100
AcDbLine
  8
Motor Gear
 62
256
370
-1
  6
ByLayer
 10
64.1636808937956573
 20
87.7177306094199594
 30
0.0
 11
65.1509877585867514
 21
87.8161684573090326
 31
0.0
  0
LINE
  5
245
100
AcDbEntity
100
AcDbLine
  8
Motor Gear
 62
256
370
-1
  6
ByLayer
 10
65.1509877585867514
 20
87.8161684573090326
 30
0.0
 11
66.6130975919471666
 21
87.6184556557793428
 31
0.0
  0
LINE
  5
246
100
AcDbEntity
100
AcDbLine
  8
Motor Gear
 62
256
370
-1
  6
ByLayer
 10
66.6130975919471666
 20
87.6184556557793428
 30
0.0
 11
66.8600289463638831
 21
86.6969135405395264
 31
0.0
  0
LINE
  5
247
100
AcDbEntity
100
AcDbLine
  8
Motor Gear
 62
256
370
-1
  6
ByLayer
 10
66.8600289463638831
 20
86.6969135405395264
 30
0.0
 11
65.6926026010118846
 21
85.7946404420017643
 31
0.0
  0
LINE
  5
248
100
AcDbEntity
100
AcDbLine
  8
Motor Gear
 62
256
370
-1
  6
ByLayer
 10
65.6926026010118846
 20
85.7946404420017643
 30
0.0
 11
64.7884445303029963
 21
85.3862300522974778
 31
0.0
  0
LINE
  5
249
100
AcDbEntity
100
AcDbLine
  8
Motor Gear
 62
256
370
-1
  6
ByLayer
 10
64.7884445303029963
 20
85.3862300522974778
 30
0.0
 11
64.4261105784571555
 21
85.3198367313174799
 31
0.0
  0
LINE
  5
24A
100
AcDbEntity
100
AcDbLine
  8
Motor Gear
 62
256
370
-1
  6
ByLayer
 10
64.4261105784571555
 20
85.3198367313174799
 30
0.0
 11
64.6194256063309354
 21
83.8503962857104597
 31
0.0
  0
LINE
  5
24B
100
AcDbEntity
100
AcDbLine
  8
Drawings
 62
256
370
-1
  6
ByLayer
 10
7.5
 20
100.0
 30
0.0
 11
7.5
 21
-0.0000000000000018
 31
0.0
  0
LINE
  5
24C
100
AcDbEntity
100
AcDbLine
  8
Drawings
 62
256
370
-1
  6
ByLayer
 10
100.0
 20
92.5
 30
0.0
 11
-0.0000000000000014
 21
92.5
 31
0.0
  0
LINE
  5
24D
100
AcDbEntity
100
AcDbLine
  8
Drawings
 62
256
370
-1
  6
ByLayer
 10
92.5
 20
0.0000000000000009
 30
0.0
 11
92.5
 21
100.0
 31
0.0
  0
LINE
  5
24E
100
AcDbEntity
100
AcDbLine
  8
Drawings
 62
256
370
-1
  6
ByLayer
 10
0.0000000000000005
 20
7.5
 30
0.0
 11
100.0
 21
7.5
 31
0.0
  0
LINE
  5
24F
100
AcDbEntity
100
AcDbLine
  8
Drawings
 62
256
370
-1
  6
ByLayer
 10
99.9999999999999858
 20
50.0
 30
0.0
 11
-0.0000000000000092
 21
50.0
 31
0.0
  0
ARC
  5
250
100
AcDbEntity
  8
Layer 2
 62
256
370
-1
  6
ByLayer
100
AcDbCircle
 10
30.5
 20
70.5
 30
0.0
 40
0.5
100
AcDbArc
 50
180.0
 51
270.0
  0
LINE
  5
251
100
AcDbEntity
100
AcDbLine
  8
Layer 2
 62
256
370
-1
  6
ByLayer
 10
30.0
 20
99.5
 30
0.0
 11
30.0
 21
70.5
 31
0.0
  0
ARC
  5
252
100
AcDbEntity
  8
Layer 2
 62
256
370
-1
  6
ByLayer
100
AcDbCircle
 10
29.5
 20
99.5
 30
0.0
 40
0.5
100
AcDbArc
 50
0.0
 51
90.0
  0
LINE
  5
253
100
AcDbEntity
100
AcDbLine
  8
Layer 2
 62
256
370
-1
  6
ByLayer
 10
99.5
 20
70.0
 30
0.0
 11
30.5
 21
70.0
 31
0.0
  0
ARC
  5
254
100
AcDbEntity
  8
Layer 2
 62
256
370
-1
  6
ByLayer
100
AcDbCircle
 10
99.5
 20
69.5
 30
0.0
 40
0.5
100
AcDbArc
 50
0.0
 51
90.0
  0
ARC
  5
255
100
AcDbEntity
  8
Layer 1
 62
256
370
-1
  6
ByLayer
100
AcDbCircle
 10
30.5
 20
70.5
 30
0.0
 40
0.5
100
AcDbArc
 50
180.0
 51
270.0
  0
LINE
  5
256
100
AcDbEntity
100
AcDbLine
  8
Layer 1
 62
256
370
-1
  6
ByLayer
 10
30.0
 20
99.5
 30
0.0
 11
30.0
 21
70.5
 31
0.0
  0
ARC
  5
257
100
AcDbEntity
  8
Layer 1
 62
256
370
-1
  6
ByLayer
100
AcDbCircle
 10
29.5
 20
99.5
 30
0.0
 40
0.5
100
AcDbArc
 50
0.0
 51
90.0
  0
LINE
  5
258
100
AcDbEntity
100
AcDbLine
  8
Layer 1
 62
256
370
-1
  6
ByLayer
 10
99.5
 20
70.0
 30
0.0
 11
30.5
 21
70.0
 31
0.0
  0
ARC
  5
259
100
AcDbEntity
  8
Layer 1
 62
256
370
-1
  6
ByLayer
100
AcDbCircle
 10
99.5
 20
69.5
 30
0.0
 40
0.5
100
AcDbArc
 50
0.0
 51
90.0
  0
CIRCLE
  5
25A
100
AcDbEntity
100
AcDbCircle
  8
Motor
 62
256
370
-1
  6
ByLayer
 10
49.9999850054043975
 20
82.6731265266270583
 30
0.0
 40
4.8499999999999996
  0
CIRCLE
  5
25B
100
AcDbEntity
100
AcDbCircle
  8
Motor
 62
256
370
-1
  6
ByLayer
 10
69.4999850054044259
 20
73.8731265266271464
 30
0.0
 40
1.425
  0
CIRCLE
  5
25C
100
AcDbEntity
100
AcDbCircle
  8
Motor
 62
256
370
-1
  6
ByLayer
 10
60.4999850054043975
 20
82.6731265266270583
 30
0.0
 40
1.3999999999999999
  0
ARC
  5
25D
100
AcDbEntity
  8
Motor
 62
256
370
-1
  6
ByLayer
100
AcDbCircle
 10
43.4999850054043975
 20
88.7731265266270668
 30
0.0
 40
5.0
100
AcDbArc
 50
90.0
 51
180.0
  0
ARC
  5
25E
100
AcDbEntity
  8
Motor
 62
256
370
-1
  6
ByLayer
100
AcDbCircle
 10
43.4999850054043975
 20
76.573126526627064
 30
0.0
 40
5.0
100
AcDbArc
 50
180.0
 51
270.0
  0
LINE
  5
25F
100
AcDbEntity
100
AcDbLine
  8
Motor
 62
256
370
-1
  6
ByLayer
 10
74.7999850054043947
 20
71.5731265266270498
 30
0.0
 11
74.7999850054043947
 21
93.7731265266270668
 31
0.0
  0
LINE
  5
260
100
AcDbEntity
100
AcDbLine
  8
Motor
 62
256
370
-1
  6
ByLayer
 10
43.4999850054043975
 20
93.7731265266270668
 30
0.0
 11
86.8999850054044032
 21
93.7731265266270526
 31
0.0
  0
LINE
  5
261
100
AcDbEntity
100
AcDbLine
  8
Motor
 62
256
370
-1
  6
ByLayer
 10
43.4999850054043904
 20
71.573126526627064
 30
0.0
 11
86.8999850054044032
 21
71.573126526627064
 31
0.0
  0
LINE
  5
262
100
AcDbEntity
100
AcDbLine
  8
Motor
 62
256
370
-1
  6
ByLayer
 10
86.8999850054044032
 20
71.573126526627064
 30
0.0
 11
86.8999850054044032
 21
93.7731265266270526
 31
0.0
  0
ARC
  5
263
100
AcDbEntity
  8
Motor
 62
256
370
-1
  6
ByLayer
100
AcDbCircle
 10
97.6999850054044003
 20
90.5731265266270498
 30
0.0
 40
2.0
100
AcDbArc
 50
0.0
 51
90.0
  0
LINE
  5
264
100
AcDbEntity
100
AcDbLine
  8
Motor
 62
256
370
-1
  6
ByLayer
 10
99.6999850054043861
 20
74.7731265266270242
 30
0.0
 11
99.6999850054044003
 21
90.573126526627064
 31
0.0
  0
ARC
  5
265
100
AcDbEntity
  8
Motor
 62
256
370
-1
  6
ByLayer
100
AcDbCircle
 10
97.6999850054044003
 20
74.7731265266270668
 30
0.0
 40
2.0
100
AcDbArc
 50
270.0
 51
0.0
  0
LINE
  5
266
100
AcDbEntity
100
AcDbLine
  8
Motor
 62
256
370
-1
  6
ByLayer
 10
86.8999850054044032
 20
92.573126526627064
 30
0.0
 11
97.6999850054044003
 21
92.5731265266270498
 31
0.0
  0
LINE
  5
267
100
AcDbEntity
100
AcDbLine
  8
Motor
 62
256
370
-1
  6
ByLayer
 10
86.8999850054044032
 20
72.7731265266270526
 30
0.0
 11
97.6999850054043861
 21
72.7731265266270384
 31
0.0
  0
LINE
  5
268
100
AcDbEntity
100
AcDbLine
  8
Motor
 62
256
370
-1
  6
ByLayer
 10
100.9999850054043975
 20
74.7731265266270952
 30
0.0
 11
100.9999850054043975
 21
90.5731265266270356
 31
0.0
  0
LINE
  5
269
100
AcDbEntity
100
AcDbLine
  8
Motor
 62
256
370
-1
  6
ByLayer
 10
100.9999850054043975
 20
90.5731265266270356
 30
0.0
 11
99.6999850054044003
 21
90.573126526627064
 31
0.0
  0
LINE
  5
26A
100
AcDbEntity
100
AcDbLine
  8
Motor
 62
256
370
-1
  6
ByLayer
 10
100.9999850054043975
 20
74.7731265266270952
 30
0.0
 11
99.6999850054043861
 21
74.7731265266270242
 31
0.0
  0
LINE
  5
26B
100
AcDbEntity
100
AcDbLine
  8
Motor
 62
256
370
-1
  6
ByLayer
 10
100.9999850054043975
 20
83.673126526627243
 30
0.0
 11
102.9999850054043975
 21
83.6731265266269446
 31
0.0
  0
LINE
  5
26C
100
AcDbEntity
100
AcDbLine
  8
Motor
 62
256
370
-1
  6
ByLayer
 10
102.9999850054043975
 20
81.6731265266271578
 30
0.0
 11
102.9999850054043975
 21
83.6731265266269446
 31
0.0
  0
LINE
  5
26D
100
AcDbEntity
100
AcDbLine
  8
Motor
 62
256
370
-1
  6
ByLayer
 10
100.9999850054043975
 20
81.6731265266268451
 30
0.0
 11
102.9999850054043975
 21
81.6731265266271578
 31
0.0
  0
ARC
  5
26E
100
AcDbEntity
  8
Motor
 62
256
370
-1
  6
ByLayer
100
AcDbCircle
 10
34.9999850054043975
 20
82.6731265266270583
 30
0.0
 40
2.5
100
AcDbArc
 50
90.0
 51
270.0
  0
CIRCLE
  5
26F
100
AcDbEntity
100
AcDbCircle
  8
Motor
 62
256
370
-1
  6
ByLayer
 10
34.9999850054043975
 20
82.6731265266270583
 30
0.0
 40
1.5
  0
LINE
  5
270
100
AcDbEntity
100
AcDbLine
  8
Motor
 62
256
370
-1
  6
ByLayer
 10
34.6624614714488359
 20
85.1502373162418849
 30
0.0
 11
38.0674897121955098
 21
85.6141960418078014
 31
0.0
  0
LINE
  5
271
100
AcDbEntity
100
AcDbLine
  8
Motor
 62
256
370
-1
  6
ByLayer
 10
38.4999850054043975
 20
86.109618199730761
 30
0.0
 11
38.4999850054043975
 21
88.7731265266270668
 31
0.0
  0
ARC
  5
272
100
AcDbEntity
  8
Motor
 62
256
370
-1
  6
ByLayer
100
AcDbCircle
 10
37.9999850054043975
 20
86.109618199730761
 30
0.0
 40
0.5
100
AcDbArc
 50
277.7591642305927166
 51
0.0
  0
LINE
  5
273
100
AcDbEntity
100
AcDbLine
  8
Motor
 62
256
370
-1
  6
ByLayer
 10
34.6624614714488359
 20
80.1960157370122317
 30
0.0
 11
38.0674897121955098
 21
79.7320570114463152
 31
0.0
  0
LINE
  5
274
100
AcDbEntity
100
AcDbLine
  8
Motor
 62
256
370
-1
  6
ByLayer
 10
38.4999850054043975
 20
76.5731265266270498
 30
0.0
 11
38.4999850054043975
 21
79.2366348535233556
 31
0.0
  0
ARC
  5
275
100
AcDbEntity
  8
Motor
 62
256
370
-1
  6
ByLayer
100
AcDbCircle
 10
37.9999850054043975
 20
79.2366348535233556
 30
0.0
 40
0.5
100
AcDbArc
 50
0.0
 51
82.2408357694072834
  0
LINE
  5
276
100
AcDbEntity
100
AcDbLine
  8
Motor Gear
 62
256
370
-1
  6
ByLayer
 10
52.5405754879497522
 20
84.8181265266270543
 30
0.0
 11
47.459394522859057
 21
84.8181265266270543
 31
0.0
  0
ARC
  5
277
100
AcDbEntity
  8
Motor Gear
 62
256
370
-1
  6
ByLayer
100
AcDbCircle
 10
49.9999850054043975
 20
82.6731265266270583
 30
0.0
 40
3.3250000000000002
100
AcDbArc
 50
319.8258680010101784
 51
40.1741319989898216
  0
ARC
  5
278
100
AcDbEntity
  8
Motor Gear
 62
256
370
-1
  6
ByLayer
100
AcDbCircle
 10
49.9999850054043975
 20
82.6731265266270583
 30
0.0
 40
3.3250000000000002
100
AcDbArc
 50
139.8258680010101784
 51
220.1741319989898216
  0
LINE
  5
279
100
AcDbEntity
100
AcDbLine
  8
Motor Gear
 62
256
370
-1
  6
ByLayer
 10
52.5405754879497522
 20
80.5281265266270481
 30
0.0
 11
47.4593945228590428
 21
80.5281265266270481
 31
0.0
  0
CIRCLE
  5
27A
100
AcDbEntity
100
AcDbCircle
  8
Layer 3
 62
256
370
-1
  6
ByLayer
 10
49.9999850054043975
 20
82.6731265266270583
 30
0.0
 40
4.8250000000000002
  0
CIRCLE
  5
27B
100
AcDbEntity
100
AcDbCircle
  8
Layer 4
 62
256
370
-1
  6
ByLayer
 10
49.9999850054043975
 20
82.6731265266270583
 30
0.0
 40
4.8250000000000002
  0
CIRCLE
  5
27C
100
AcDbEntity
100
AcDbCircle
  8
Layer 7
 62
256
370
-1
  6
ByLayer
 10
69.4999850054044543
 20
91.4731265266271834
 30
0.0
 40
1.4299999999999999
  0
CIRCLE
  5
27D
100
AcDbEntity
100
AcDbCircle
  8
Layer 7
 62
256
370
-1
  6
ByLayer
 10
69.4999850054044259
 20
73.8731265266271464
 30
0.0
 40
1.4299999999999999
  0
CIRCLE
  5
27E
100
AcDbEntity
100
AcDbCircle
  8
Layer 7
 62
256
370
-1
  6
ByLayer
 10
69.4999850054044543
 20
91.4731265266271834
 30
0.0
 40
1.4299999999999999
  0
CIRCLE
  5
27F
100
AcDbEntity
100
AcDbCircle
  8
Layer 7
 62
256
370
-1
  6
ByLayer
 10
69.4999850054044259
 20
73.8731265266271464
 30
0.0
 40
1.4299999999999999
  0
CIRCLE
  5
280
100
AcDbEntity
100
AcDbCircle
  8
Layer 3
 62
256
370
-1
  6
ByLayer
 10
69.4999850054044543
 20
91.4731265266271834
 30
0.0
 40
1.4299999999999999
  0
CIRCLE
  5
281
100
AcDbEntity
100
AcDbCircle
  8
Layer 3
 62
256
370
-1
  6
ByLayer
 10
69.4999850054044259
 20
73.8731265266271464
 30
0.0
 40
1.4299999999999999
  0
LINE
  5
282
100
AcDbEntity
100
AcDbLine
  8
Original Nut
 62
256
370
-1
  6
ByLayer
 10
44.7087325232313404
 20
29.6207482309406274
 30
0.0
 11
42.8864749948557389
 21
36.782641195346919
 31
0.0
  0
LINE
  5
283
100
AcDbEntity
100
AcDbLine
  8
Original Nut
 62
256
370
-1
  6
ByLayer
 10
51.8222425337800132
 20
27.6179230605482147
 30
0.0
 11
44.7087325232313546
 21
29.6207482309407126
 31
0.0
  0
LINE
  5
284
100
AcDbEntity
100
AcDbLine
  8
Original Nut
 62
256
370
-1
  6
ByLayer
 10
57.113495015953049
 20
32.7769908545621149
 30
0.0
 11
51.8222425337799848
 21
27.6179230605482147
 31
0.0
  0
LINE
  5
285
100
AcDbEntity
100
AcDbLine
  8
Original Nut
 62
256
370
-1
  6
ByLayer
 10
55.2912374875774475
 20
39.9388838189683284
 30
0.0
 11
57.113495015953049
 21
32.7769908545621149
 31
0.0
  0
LINE
  5
286
100
AcDbEntity
100
AcDbLine
  8
Original Nut
 62
256
370
-1
  6
ByLayer
 10
48.1777274770287534
 20
41.9417089893607127
 30
0.0
 11
55.2912374875774333
 21
39.9388838189683284
 31
0.0
  0
LINE
  5
287
100
AcDbEntity
100
AcDbLine
  8
Original Nut
 62
256
370
-1
  6
ByLayer
 10
42.8864749948557176
 20
36.782641195346919
 30
0.0
 11
48.1777274770287391
 21
41.9417089893607127
 31
0.0
  0
LINE
  5
288
100
AcDbEntity
100
AcDbLine
  8
Rotor Gear
 62
256
370
0
  6
ByLayer
 10
48.2118948056857874
 20
41.8074234962781048
 30
0.0
 11
55.1920265035367095
 21
39.8421512978305685
 31
0.0
  0
LINE
  5
289
100
AcDbEntity
100
AcDbLine
  8
Rotor Gear
 62
256
370
0
  6
ByLayer
 10
55.1920265035367095
 20
39.8421512978305685
 30
0.0
 11
56.9801167032552627
 21
32.8145438265069771
 31
0.0
  0
LINE
  5
28A
100
AcDbEntity
100
AcDbLine
  8
Rotor Gear
 62
256
370
0
  6
ByLayer
 10
44.8079435072720571
 20
29.7174807520784796
 30
0.0
 11
43.0198533075535181
 21
36.7450882234020852
 31
0.0
  0
LINE
  5
28B
100
AcDbEntity
100
AcDbLine
  8
Rotor Gear
 62
256
370
0
  6
ByLayer
 10
43.0198533075534897
 20
36.7450882234020284
 30
0.0
 11
48.211894805685759
 21
41.807423496278048
 31
0.0
  0
LINE
  5
28C
100
AcDbEntity
100
AcDbLine
  8
Rotor Gear
 62
256
370
0
  6
ByLayer
 10
56.9801167032552343
 20
32.8145438265069203
 30
0.0
 11
51.7880752051229081
 21
27.7522085536307728
 31
0.0
  0
LINE
  5
28D
100
AcDbEntity
100
AcDbLine
  8
Rotor Gear
 62
256
370
0
  6
ByLayer
 10
51.7880752051229081
 20
27.7522085536307728
 30
0.0
 11
44.8079435072720287
 21
29.7174807520784228
 31
0.0
  0
CIRCLE
  5
28E
100
AcDbEntity
100
AcDbCircle
  8
Drawings
 62
256
370
-1
  6
ByLayer
 10
49.9999850054043975
 20
82.6731265266270583
 30
0.0
 40
16.0000360908632864
  0
CIRCLE
  5
28F
100
AcDbEntity
100
AcDbCircle
  8
Drawings
 62
256
370
-1
  6
ByLayer
 10
49.9999850054043975
 20
34.7798160249545276
 30
0.0
 40
32.0002653668109431
  0
MTEXT
  5
290
100
AcDbEntity
100
AcDbMText
  8
Motor Gear Text
 62
256
370
-1
  6
ByLayer
 10
50.0
 20
78.0
 30
0.0
 40
3.0
 41
100.0
 71
5
 72
2
  1
Motor\~Gear
  7
standard
 50
0.0
 73
0
 44
1.0
  0
MTEXT
  5
291
100
AcDbEntity
100
AcDbMText
  8
Rotor Gear Text
 62
256
370
-1
  6
ByLayer
 10
50.0
 20
20.0
 30
0.0
 40
3.0
 41
100.0
 71
5
 72
2
  1
Rotor\~Gear
  7
standard
 50
0.0
 73
0
 44
1.0
  0
MTEXT
  5
292
100
AcDbEntity
100
AcDbMText
  8
Rotor Plate Text
 62
256
370
-1
  6
ByLayer
 10
50.0
 20
16.0
 30
0.0
 40
3.0
 41
100.0
 71
5
 72
2
  1
Rotor\~Plate
  7
standard
 50
0.0
 73
0
 44
1.0
  0
ARC
  5
293
100
AcDbEntity
  8
Layer 8
 62
256
370
-1
  6
ByLayer
100
AcDbCircle
 10
98.0
 20
98.0
 30
0.0
 40
2.0
100
AcDbArc
 50
0.0
 51
90.0
  0
LINE
  5
294
100
AcDbEntity
100
AcDbLine
  8
Layer 8
 62
256
370
-1
  6
ByLayer
 10
100.0
 20
2.0
 30
0.0
 11
100.0
 21
98.0
 31
0.0
  0
ARC
  5
295
100
AcDbEntity
  8
Layer 8
 62
256
370
-1
  6
ByLayer
100
AcDbCircle
 10
98.0
 20
2.0
 30
0.0
 40
2.0
100
AcDbArc
 50
270.0
 51
0.0
  0
LINE
  5
296
100
AcDbEntity
100
AcDbLine
  8
Layer 8
 62
256
370
-1
  6
ByLayer
 10
2.0
 20
0.0
 30
0.0
 11
98.0
 21
0.0
 31
0.0
  0
ARC
  5
297
100
AcDbEntity
  8
Layer 8
 62
256
370
-1
  6
ByLayer
100
AcDbCircle
 10
2.0
 20
2.0
 30
0.0
 40
2.0
100
AcDbArc
 50
180.0
 51
270.0
  0
LINE
  5
298
100
AcDbEntity
100
AcDbLine
  8
Layer 8
 62
256
370
-1
  6
ByLayer
 10
0.0
 20
98.0
 30
0.0
 11
0.0
 21
2.0
 31
0.0
  0
LINE
  5
299
100
AcDbEntity
100
AcDbLine
  8
Layer 8
 62
256
370
-1
  6
ByLayer
 10
98.0
 20
100.0
 30
0.0
 11
2.0
 21
100.0
 31
0.0
  0
ARC
  5
29A
100
AcDbEntity
  8
Layer 8
 62
256
370
-1
  6
ByLayer
100
AcDbCircle
 10
2.0
 20
98.0
 30
0.0
 40
2.0
100
AcDbArc
 50
90.0
 51
180.0
  0
ARC
  5
29B
100
AcDbEntity
  8
Layer 7
 62
256
370
-1
  6
ByLayer
100
AcDbCircle
 10
98.0
 20
98.0
 30
0.0
 40
2.0
100
AcDbArc
 50
0.0
 51
90.0
  0
LINE
  5
29C
100
AcDbEntity
100
AcDbLine
  8
Layer 7
 62
256
370
-1
  6
ByLayer
 10
98.0
 20
100.0
 30
0.0
 11
2.0
 21
100.0
 31
0.0
  0
ARC
  5
29D
100
AcDbEntity
  8
Layer 7
 62
256
370
-1
  6
ByLayer
100
AcDbCircle
 10
2.0
 20
98.0
 30
0.0
 40
2.0
100
AcDbArc
 50
90.0
 51
180.0
  0
LINE
  5
29E
100
AcDbEntity
100
AcDbLine
  8
Layer 7
 62
256
370
-1
  6
ByLayer
 10
0.0
 20
98.0
 30
0.0
 11
0.0
 21
2.0
 31
0.0
  0
ARC
  5
29F
100
AcDbEntity
  8
Layer 7
 62
256
370
-1
  6
ByLayer
100
AcDbCircle
 10
2.0
 20
2.0
 30
0.0
 40
2.0
100
AcDbArc
 50
180.0
 51
270.0
  0
LINE
  5
2A0
100
AcDbEntity
100
AcDbLine
  8
Layer 7
 62
256
370
-1
  6
ByLayer
 10
2.0
 20
0.0
 30
0.0
 11
98.0
 21
0.0
 31
0.0
  0
LINE
  5
2A1
100
AcDbEntity
100
AcDbLine
  8
Layer 7
 62
256
370
-1
  6
ByLayer
 10
100.0
 20
2.0
 30
0.0
 11
100.0
 21
98.0
 31
0.0
  0
ARC
  5
2A2
100
AcDbEntity
  8
Layer 7
 62
256
370
-1
  6
ByLayer
100
AcDbCircle
 10
98.0
 20
2.0
 30
0.0
 40
2.0
100
AcDbArc
 50
270.0
 51
0.0
  0
ARC
  5
2A3
100
AcDbEntity
  8
Layer 6
 62
256
370
-1
  6
ByLayer
100
AcDbCircle
 10
98.0
 20
98.0
 30
0.0
 40
2.0
100
AcDbArc
 50
0.0
 51
90.0
  0
LINE
  5
2A4
100
AcDbEntity
100
AcDbLine
  8
Layer 6
 62
256
370
-1
  6
ByLayer
 10
98.0
 20
100.0
 30
0.0
 11
2.0
 21
100.0
 31
0.0
  0
ARC
  5
2A5
100
AcDbEntity
  8
Layer 6
 62
256
370
-1
  6
ByLayer
100
AcDbCircle
 10
2.0
 20
98.0
 30
0.0
 40
2.0
100
AcDbArc
 50
90.0
 51
180.0
  0
LINE
  5
2A6
100
AcDbEntity
100
AcDbLine
  8
Layer 6
 62
256
370
-1
  6
ByLayer
 10
0.0
 20
98.0
 30
0.0
 11
0.0
 21
2.0
 31
0.0
  0
ARC
  5
2A7
100
AcDbEntity
  8
Layer 6
 62
256
370
-1
  6
ByLayer
100
AcDbCircle
 10
2.0
 20
2.0
 30
0.0
 40
2.0
100
AcDbArc
 50
180.0
 51
270.0
  0
LINE
  5
2A8
100
AcDbEntity
100
AcDbLine
  8
Layer 6
 62
256
370
-1
  6
ByLayer
 10
100.0
 20
2.0
 30
0.0
 11
100.0
 21
98.0
 31
0.0
  0
ARC
  5
2A9
100
AcDbEntity
  8
Layer 6
 62
256
370
-1
  6
ByLayer
100
AcDbCircle
 10
98.0
 20
2.0
 30
0.0
 40
2.0
100
AcDbArc
 50
270.0
 51
0.0
  0
ARC
  5
2AA
100
AcDbEntity
  8
Layer 4
 62
256
370
-1
  6
ByLayer
100
AcDbCircle
 10
98.0
 20
2.0000000000000009
 30
0.0
 40
2.0
100
AcDbArc
 50
270.0
 51
0.0
  0
LINE
  5
2AB
100
AcDbEntity
100
AcDbLine
  8
Layer 4
 62
256
370
-1
  6
ByLayer
 10
100.0
 20
2.0000000000000009
 30
0.0
 11
100.0
 21
98.0
 31
0.0
  0
ARC
  5
2AC
100
AcDbEntity
  8
Layer 4
 62
256
370
-1
  6
ByLayer
100
AcDbCircle
 10
98.0
 20
98.0
 30
0.0
 40
2.0
100
AcDbArc
 50
0.0
 51
90.0
  0
LINE
  5
2AD
100
AcDbEntity
100
AcDbLine
  8
Layer 4
 62
256
370
-1
  6
ByLayer
 10
98.0
 20
100.0
 30
0.0
 11
2.0
 21
100.0
 31
0.0
  0
ARC
  5
2AE
100
AcDbEntity
  8
Layer 4
 62
256
370
-1
  6
ByLayer
100
AcDbCircle
 10
2.0
 20
98.0
 30
0.0
 40
2.0
100
AcDbArc
 50
90.0
 51
180.0
  0
LINE
  5
2AF
100
AcDbEntity
100
AcDbLine
  8
Layer 4
 62
256
370
-1
  6
ByLayer
 10
0.0
 20
98.0
 30
0.0
 11
0.0
 21
1.9999999999999716
 31
0.0
  0
ARC
  5
2B0
100
AcDbEntity
  8
Layer 4
 62
256
370
-1
  6
ByLayer
100
AcDbCircle
 10
2.0
 20
1.9999999999999858
 30
0.0
 40
2.0
100
AcDbArc
 50
180.0
 51
270.0
  0
ARC
  5
2B1
100
AcDbEntity
  8
Layer 3
 62
256
370
-1
  6
ByLayer
100
AcDbCircle
 10
2.0
 20
98.0
 30
0.0
 40
2.0
100
AcDbArc
 50
90.0
 51
180.0
  0
ARC
  5
2B2
100
AcDbEntity
  8
Layer 3
 62
256
370
-1
  6
ByLayer
100
AcDbCircle
 10
98.0
 20
2.0
 30
0.0
 40
2.0
100
AcDbArc
 50
270.0
 51
0.0
  0
LINE
  5
2B3
100
AcDbEntity
100
AcDbLine
  8
Layer 3
 62
256
370
-1
  6
ByLayer
 10
0.0
 20
98.0
 30
0.0
 11
0.0
 21
2.0
 31
0.0
  0
ARC
  5
2B4
100
AcDbEntity
  8
Layer 3
 62
256
370
-1
  6
ByLayer
100
AcDbCircle
 10
2.0
 20
2.0
 30
0.0
 40
2.0
100
AcDbArc
 50
180.0
 51
270.0
  0
LINE
  5
2B5
100
AcDbEntity
100
AcDbLine
  8
Layer 2
 62
256
370
-1
  6
ByLayer
 10
100.0
 20
1.9999999999999996
 30
0.0
 11
100.0
 21
69.5
 31
0.0
  0
ARC
  5
2B6
100
AcDbEntity
  8
Layer 2
 62
256
370
-1
  6
ByLayer
100
AcDbCircle
 10
98.0
 20
1.9999999999999998
 30
0.0
 40
2.0
100
AcDbArc
 50
270.0
 51
360.0
  0
LINE
  5
2B7
100
AcDbEntity
100
AcDbLine
  8
Layer 2
 62
256
370
-1
  6
ByLayer
 10
2.0
 20
0.0
 30
0.0
 11
98.0
 21
0.0
 31
0.0
  0
ARC
  5
2B8
100
AcDbEntity
  8
Layer 2
 62
256
370
-1
  6
ByLayer
100
AcDbCircle
 10
2.0
 20
2.0
 30
0.0
 40
2.0
100
AcDbArc
 50
180.0
 51
270.0
  0
LINE
  5
2B9
100
AcDbEntity
100
AcDbLine
  8
Layer 2
 62
256
370
-1
  6
ByLayer
 10
0.0
 20
98.0
 30
0.0
 11
0.0
 21
2.0
 31
0.0
  0
LINE
  5
2BA
100
AcDbEntity
100
AcDbLine
  8
Layer 2
 62
256
370
-1
  6
ByLayer
 10
29.5
 20
100.0
 30
0.0
 11
2.0
 21
100.0
 31
0.0
  0
ARC
  5
2BB
100
AcDbEntity
  8
Layer 2
 62
256
370
-1
  6
ByLayer
100
AcDbCircle
 10
2.0
 20
98.0
 30
0.0
 40
2.0
100
AcDbArc
 50
90.0
 51
180.0
  0
LINE
  5
2BC
100
AcDbEntity
100
AcDbLine
  8
Layer 1
 62
256
370
-1
  6
ByLayer
 10
29.5
 20
100.0
 30
0.0
 11
2.0
 21
100.0
 31
0.0
  0
ARC
  5
2BD
100
AcDbEntity
  8
Layer 1
 62
256
370
-1
  6
ByLayer
100
AcDbCircle
 10
2.0
 20
98.0
 30
0.0
 40
2.0
100
AcDbArc
 50
90.0
 51
180.0
  0
LINE
  5
2BE
100
AcDbEntity
100
AcDbLine
  8
Layer 1
 62
256
370
-1
  6
ByLayer
 10
0.0
 20
98.0
 30
0.0
 11
0.0
 21
2.0
 31
0.0
  0
ARC
  5
2BF
100
AcDbEntity
  8
Layer 1
 62
256
370
-1
  6
ByLayer
100
AcDbCircle
 10
2.0
 20
2.0
 30
0.0
 40
2.0
100
AcDbArc
 50
180.0
 51
270.0
  0
LINE
  5
2C0
100
AcDbEntity
100
AcDbLine
  8
Layer 1
 62
256
370
-1
  6
ByLayer
 10
2.0
 20
0.0
 30
0.0
 11
98.0
 21
0.0
 31
0.0
  0
LINE
  5
2C1
100
AcDbEntity
100
AcDbLine
  8
Layer 1
 62
256
370
-1
  6
ByLayer
 10
100.0
 20
2.0
 30
0.0
 11
100.0
 21
69.5
 31
0.0
  0
ARC
  5
2C2
100
AcDbEntity
  8
Layer 1
 62
256
370
-1
  6
ByLayer
100
AcDbCircle
 10
98.0
 20
2.0
 30
0.0
 40
2.0
100
AcDbArc
 50
270.0
 51
0.0
  0
LINE
  5
2C3
100
AcDbEntity
100
AcDbLine
  8
Layer 3
 62
256
370
-1
  6
ByLayer
 10
74.7999850054043947
 20
71.5731265266270498
 30
0.0
 11
74.7999850054043947
 21
98.0
 31
0.0
  0
LINE
  5
2C4
100
AcDbEntity
100
AcDbLine
  8
Layer 3
 62
256
370
-1
  6
ByLayer
 10
72.7999850054043947
 20
100.0
 30
0.0
 11
2.0
 21
100.0
 31
0.0
  0
ARC
  5
2C5
100
AcDbEntity
  8
Layer 3
 62
256
370
-1
  6
ByLayer
100
AcDbCircle
 10
72.7999850054043947
 20
98.0
 30
0.0
 40
2.0
100
AcDbArc
 50
0.0
 51
90.0
  0
LINE
  5
2C6
100
AcDbEntity
100
AcDbLine
  8
Layer 3
 62
256
370
-1
  6
ByLayer
 10
74.7999850054043947
 20
71.5731265266270498
 30
0.0
 11
98.0
 21
71.5731265266270782
 31
0.0
  0
LINE
  5
2C7
100
AcDbEntity
100
AcDbLine
  8
Layer 3
 62
256
370
-1
  6
ByLayer
 10
100.0
 20
2.0
 30
0.0
 11
100.0
 21
69.5731265266270782
 31
0.0
  0
ARC
  5
2C8
100
AcDbEntity
  8
Layer 3
 62
256
370
-1
  6
ByLayer
100
AcDbCircle
 10
98.0
 20
69.5731265266270782
 30
0.0
 40
2.0
100
AcDbArc
 50
0.0
 51
90.0
  0
CIRCLE
  5
2C9
100
AcDbEntity
100
AcDbCircle
  8
Layer 2
 62
256
370
-1
  6
ByLayer
 10
49.9999850054043975
 20
34.7798160249545276
 30
0.0
 40
8.0
  0
MTEXT
  5
2CA
100
AcDbEntity
100
AcDbMText
  8
Layer 1 Text
 62
256
370
-1
  6
ByLayer
 10
10.0
 20
83.0
 30
0.0
 40
3.0
 41
100.0
 71
1
 72
2
  1
Layer\~1
  7
standard
 50
0.0
 73
0
 44
1.0
  0
MTEXT
  5
2CB
100
AcDbEntity
100
AcDbMText
  8
Layer 2 Text
 62
256
370
-1
  6
ByLayer
 10
10.0
 20
83.0
 30
0.0
 40
3.0
 41
100.0
 71
1
 72
2
  1
Layer\~2
  7
standard
 50
0.0
 73
0
 44
1.0
  0
MTEXT
  5
2CC
100
AcDbEntity
100
AcDbMText
  8
Layer 3 Text
 62
256
370
-1
  6
ByLayer
 10
10.0
 20
83.0
 30
0.0
 40
3.0
 41
100.0
 71
1
 72
2
  1
Layer\~3
  7
standard
 50
0.0
 73
0
 44
1.0
  0
MTEXT
  5
2CD
100
AcDbEntity
100
AcDbMText
  8
Layer 4 Text
 62
256
370
-1
  6
ByLayer
 10
10.0
 20
83.0
 30
0.0
 40
3.0
 41
100.0
 71
1
 72
2
  1
Layer\~4
  7
standard
 50
0.0
 73
0
 44
1.0
  0
CIRCLE
  5
2CE
100
AcDbEntity
100
AcDbCircle
  8
Layer 5
 62
256
370
-1
  6
ByLayer
 10
49.9999850054043975
 20
82.6731265266270725
 30
0.0
 40
4.8250000000000002
  0
CIRCLE
  5
2CF
100
AcDbEntity
100
AcDbCircle
  8
Layer 5
 62
256
370
-1
  6
ByLayer
 10
69.4999850054044828
 20
91.4731265266272402
 30
0.0
 40
1.4299999999999999
  0
CIRCLE
  5
2D0
100
AcDbEntity
100
AcDbCircle
  8
Layer 5
 62
256
370
-1
  6
ByLayer
 10
69.4999850054044259
 20
73.8731265266271322
 30
0.0
 40
1.4299999999999999
  0
ARC
  5
2D1
100
AcDbEntity
  8
Layer 5
 62
256
370
-1
  6
ByLayer
100
AcDbCircle
 10
98.0
 20
1.9999999999999716
 30
0.0
 40
2.0
100
AcDbArc
 50
270.0
 51
0.0
  0
LINE
  5
2D2
100
AcDbEntity
100
AcDbLine
  8
Layer 5
 62
256
370
-1
  6
ByLayer
 10
99.9999999999999432
 20
1.9999999999999432
 30
0.0
 11
100.0
 21
98.0000000000004263
 31
0.0
  0
ARC
  5
2D3
100
AcDbEntity
  8
Layer 5
 62
256
370
-1
  6
ByLayer
100
AcDbCircle
 10
98.0
 20
98.0000000000004263
 30
0.0
 40
2.0
100
AcDbArc
 50
0.0
 51
90.0
  0
LINE
  5
2D4
100
AcDbEntity
100
AcDbLine
  8
Layer 5
 62
256
370
-1
  6
ByLayer
 10
98.0
 20
100.0
 30
0.0
 11
2.0
 21
100.0
 31
0.0
  0
ARC
  5
2D5
100
AcDbEntity
  8
Layer 5
 62
256
370
-1
  6
ByLayer
100
AcDbCircle
 10
2.0
 20
98.0
 30
0.0
 40
2.0
100
AcDbArc
 50
90.0
 51
180.0
  0
LINE
  5
2D6
100
AcDbEntity
100
AcDbLine
  8
Layer 5
 62
256
370
-1
  6
ByLayer
 10
0.0
 20
98.0
 30
0.0
 11
-0.0000000000000284
 21
1.9999999999999716
 31
0.0
  0
ARC
  5
2D7
100
AcDbEntity
  8
Layer 5
 62
256
370
-1
  6
ByLayer
100
AcDbCircle
 10
1.9999999999999716
 20
1.9999999999999858
 30
0.0
 40
2.0
100
AcDbArc
 50
180.0
 51
270.0
  0
MTEXT
  5
2D8
100
AcDbEntity
100
AcDbMText
  8
Layer 5 Text
 62
256
370
-1
  6
ByLayer
 10
10.0
 20
83.0
 30
0.0
 40
3.0
 41
100.0
 71
1
 72
2
  1
Layer\~5
  7
standard
 50
0.0
 73
0
 44
1.0
  0
MTEXT
  5
2D9
100
AcDbEntity
100
AcDbMText
  8
Layer 6 Text
 62
256
370
-1
  6
ByLayer
 10
10.0
 20
83.0
 30
0.0
 40
3.0
 41
100.0
 71
1
 72
2
  1
Layer\~6
  7
standard
 50
0.0
 73
0
 44
1.0
  0
MTEXT
  5
2DA
100
AcDbEntity
100
AcDbMText
  8
Layer 7 Text
 62
256
370
-1
  6
ByLayer
 10
10.0
 20
83.0
 30
0.0
 40
3.0
 41
100.0
 71
1
 72
2
  1
Layer\~7
  7
standard
 50
0.0
 73
0
 44
1.0
  0
MTEXT
  5
2DB
100
AcDbEntity
100
AcDbMText
  8
Layer 8 Text
 62
256
370
-1
  6
ByLayer
 10
10.0
 20
83.0
 30
0.0
 40
3.0
 41
100.0
 71
1
 72
2
  1
Layer\~8
  7
standard
 50
0.0
 73
0
 44
1.0
  0
LINE
  5
2DC
100
AcDbEntity
100
AcDbLine
  8
Drawings
 62
256
370
-1
  6
ByLayer
 10
67.9122720054044891
 20
94.2231265266272544
 30
0.0
 11
71.0876980054044765
 21
88.7231265266272544
 31
0.0
  0
LINE
  5
2DD
100
AcDbEntity
100
AcDbLine
  8
Drawings
 62
256
370
-1
  6
ByLayer
 10
71.0876980054045049
 20
94.2231265266272544
 30
0.0
 11
67.9122720054044891
 21
88.7231265266272686
 31
0.0
  0
LINE
  5
2DE
100
AcDbEntity
100
AcDbLine
  8
Drawings
 62
256
370
-1
  6
ByLayer
 10
66.3245590054041685
 20
91.4731265266272402
 30
0.0
 11
72.6754110054040723
 21
91.4731265266272402
 31
0.0
  0
LINE
  5
2DF
100
AcDbEntity
100
AcDbLine
  8
Drawings
 62
256
370
-1
  6
ByLayer
 10
67.912272005404418
 20
76.6231265266271464
 30
0.0
 11
71.0876980054044054
 21
71.1231265266271464
 31
0.0
  0
LINE
  5
2E0
100
AcDbEntity
100
AcDbLine
  8
Drawings
 62
256
370
-1
  6
ByLayer
 10
71.0876980054044338
 20
76.6231265266271464
 30
0.0
 11
67.912272005404418
 21
71.1231265266271606
 31
0.0
  0
LINE
  5
2E1
100
AcDbEntity
100
AcDbLine
  8
Drawings
 62
256
370
-1
  6
ByLayer
 10
66.3245590054040974
 20
73.8731265266271322
 30
0.0
 11
72.6754110054040012
 21
73.8731265266271322
 31
0.0
  0
CIRCLE
  5
2E2
100
AcDbEntity
100
AcDbCircle
  8
Rotor Plate Text
 62
256
370
-1
  6
ByLayer
 10
49.9999850054043975
 20
53.7798160249545276
 30
0.0
 40
8.0
  0
LINE
  5
2E3
100
AcDbEntity
100
AcDbLine
  8
Layer 4
 62
256
370
-1
  6
ByLayer
 10
66.3245590054045095
 20
91.4731265266272402
 30
0.0
 11
67.9122720054044891
 21
94.2231265266272544
 31
0.0
  0
LINE
  5
2E4
100
AcDbEntity
100
AcDbLine
  8
Layer 4
 62
256
370
-1
  6
ByLayer
 10
67.9122720054044891
 20
94.2231265266272544
 30
0.0
 11
71.0876980054045049
 21
94.2231265266272544
 31
0.0
  0
LINE
  5
2E5
100
AcDbEntity
100
AcDbLine
  8
Layer 4
 62
256
370
-1
  6
ByLayer
 10
71.0876980054045049
 20
94.2231265266272544
 30
0.0
 11
72.6754110054044844
 21
91.4731265266272402
 31
0.0
  0
LINE
  5
2E6
100
AcDbEntity
100
AcDbLine
  8
Layer 4
 62
256
370
-1
  6
ByLayer
 10
71.0876980054044765
 20
88.7231265266272544
 30
0.0
 11
72.6754110054044844
 21
91.4731265266272402
 31
0.0
  0
LINE
  5
2E7
100
AcDbEntity
100
AcDbLine
  8
Layer 4
 62
256
370
-1
  6
ByLayer
 10
67.9122720054044891
 20
88.7231265266272686
 30
0.0
 11
71.0876980054044765
 21
88.7231265266272544
 31
0.0
  0
LINE
  5
2E8
100
AcDbEntity
100
AcDbLine
  8
Layer 4
 62
256
370
-1
  6
ByLayer
 10
66.3245590054045095
 20
91.4731265266272402
 30
0.0
 11
67.9122720054044891
 21
88.7231265266272686
 31
0.0
  0
LINE
  5
2E9
100
AcDbEntity
100
AcDbLine
  8
Layer 4
 62
256
370
-1
  6
ByLayer
 10
66.3245590054044385
 20
73.8731265266271322
 30
0.0
 11
67.912272005404418
 21
76.6231265266271464
 31
0.0
  0
LINE
  5
2EA
100
AcDbEntity
100
AcDbLine
  8
Layer 4
 62
256
370
-1
  6
ByLayer
 10
67.912272005404418
 20
76.6231265266271464
 30
0.0
 11
71.0876980054044338
 21
76.6231265266271464
 31
0.0
  0
LINE
  5
2EB
100
AcDbEntity
100
AcDbLine
  8
Layer 4
 62
256
370
-1
  6
ByLayer
 10
71.0876980054044338
 20
76.6231265266271464
 30
0.0
 11
72.6754110054044133
 21
73.8731265266271322
 31
0.0
  0
LINE
  5
2EC
100
AcDbEntity
100
AcDbLine
  8
Layer 4
 62
256
370
-1
  6
ByLayer
 10
71.0876980054044054
 20
71.1231265266271464
 30
0.0
 11
72.6754110054044133
 21
73.8731265266271322
 31
0.0
  0
LINE
  5
2ED
100
AcDbEntity
100
AcDbLine
  8
Layer 4
 62
256
370
-1
  6
ByLayer
 10
67.912272005404418
 20
71.1231265266271606
 30
0.0
 11
71.0876980054044054
 21
71.1231265266271464
 31
0.0
  0
LINE
  5
2EE
100
AcDbEntity
100
AcDbLine
  8
Layer 4
 62
256
370
-1
  6
ByLayer
 10
66.3245590054044385
 20
73.8731265266271322
 30
0.0
 11
67.912272005404418
 21
71.1231265266271606
 31
0.0
  0
CIRCLE
  5
2EF
100
AcDbEntity
100
AcDbCircle
  8
Layer 6
 62
256
370
-1
  6
ByLayer
 10
69.4999850054044543
 20
91.4731265266271834
 30
0.0
 40
1.4299999999999999
  0
CIRCLE
  5
2F0
100
AcDbEntity
100
AcDbCircle
  8
Layer 6
 62
256
370
-1
  6
ByLayer
 10
69.4999850054044259
 20
73.8731265266271464
 30
0.0
 40
1.4299999999999999
  0
CIRCLE
  5
2F1
100
AcDbEntity
100
AcDbCircle
  8
Rotor Plate
 62
256
370
-1
  6
ByLayer
 10
49.9999850054043975
 20
34.7798160249545276
 30
0.0
 40
27.0
  0
LINE
  5
2F2
100
AcDbEntity
100
AcDbLine
  8
Drawings
 62
256
370
-1
  6
ByLayer
 10
49.9999850054043975
 20
0.0
 30
0.0
 11
49.9999850054043975
 21
94.7798160249545276
 31
0.0
  0
CIRCLE
  5
2F3
100
AcDbEntity
100
AcDbCircle
  8
Bearings
 62
256
370
-1
  6
ByLayer
 10
66.4544676773087275
 20
25.2798160249545205
 30
0.0
 40
11.0
  0
CIRCLE
  5
2F4
100
AcDbEntity
100
AcDbCircle
  8
Bearings
 62
256
370
-1
  6
ByLayer
 10
33.5455023335000604
 20
25.2798160249545347
 30
0.0
 40
11.0
  0
CIRCLE
  5
2F5
100
AcDbEntity
100
AcDbCircle
  8
Rotor Plate
 62
256
370
-1
  6
ByLayer
 10
49.9999850054043975
 20
53.7798160249545276
 30
0.0
 40
3.9300000000000002
  0
CIRCLE
  5
2F6
100
AcDbEntity
100
AcDbCircle
  8
Rotor Plate
 62
256
370
-1
  6
ByLayer
 10
33.5455023335000604
 20
25.2798160249545347
 30
0.0
 40
3.9300000000000002
  0
CIRCLE
  5
2F7
100
AcDbEntity
100
AcDbCircle
  8
Rotor Plate
 62
256
370
-1
  6
ByLayer
 10
66.4544676773087275
 20
25.2798160249545205
 30
0.0
 40
3.9300000000000002
  0
CIRCLE
  5
2F8
100
AcDbEntity
100
AcDbCircle
  8
Rotor Plate Text
 62
256
370
-1
  6
ByLayer
 10
33.5455023335000604
 20
25.2798160249545347
 30
0.0
 40
8.0
  0
CIRCLE
  5
2F9
100
AcDbEntity
100
AcDbCircle
  8
Rotor Plate Text
 62
256
370
-1
  6
ByLayer
 10
66.4544676773087275
 20
25.2798160249545205
 30
0.0
 40
8.0
  0
CIRCLE
  5
2FA
100
AcDbEntity
100
AcDbCircle
  8
Rotor Plate
 62
256
370
-1
  6
ByLayer
 10
49.9999850054043975
 20
34.7798160249545276
 30
0.0
 40
3.9300000000000002
  0
LINE
  5
2FB
100
AcDbEntity
100
AcDbLine
  8
Drawings
 62
256
370
-1
  6
ByLayer
 10
49.9999850054043975
 20
34.7798160249545276
 30
0.0
 11
21.4211466805179178
 21
18.2798160249545383
 31
0.0
  0
CIRCLE
  5
2FC
100
AcDbEntity
100
AcDbCircle
  8
Layer 3
 62
256
370
-1
  6
ByLayer
 10
49.9999850054043975
 20
34.7798160249545276
 30
0.0
 40
28.0
  0
LINE
  5
2FD
100
AcDbEntity
100
AcDbLine
  8
Layer 3
 62
256
370
-1
  6
ByLayer
 10
1.9999999999999996
 20
0.0
 30
0.0
 11
98.0
 21
0.0
 31
0.0
  0
CIRCLE
  5
2FE
100
AcDbEntity
100
AcDbCircle
  8
Layer 1
 62
256
370
-1
  6
ByLayer
 10
49.9999850054043975
 20
34.7798160249545276
 30
0.0
 40
10.9000000000000004
  0
CIRCLE
  5
2FF
100
AcDbEntity
100
AcDbCircle
  8
Layer 8
 62
256
370
-1
  6
ByLayer
 10
49.9999850054043975
 20
34.7798160249545276
 30
0.0
 40
10.9000000000000004
  0
CIRCLE
  5
300
100
AcDbEntity
100
AcDbCircle
  8
Layer 8
 62
256
370
-1
  6
ByLayer
 10
7.5
 20
92.5
 30
0.0
 40
2.3999999999999999
  0
CIRCLE
  5
301
100
AcDbEntity
100
AcDbCircle
  8
Layer 8
 62
256
370
-1
  6
ByLayer
 10
7.5
 20
50.0
 30
0.0
 40
2.3999999999999999
  0
CIRCLE
  5
302
100
AcDbEntity
100
AcDbCircle
  8
Layer 8
 62
256
370
-1
  6
ByLayer
 10
7.4999999999999991
 20
7.5
 30
0.0
 40
2.3999999999999999
  0
CIRCLE
  5
303
100
AcDbEntity
100
AcDbCircle
  8
Layer 8
 62
256
370
-1
  6
ByLayer
 10
92.5
 20
7.5
 30
0.0
 40
2.3999999999999999
  0
CIRCLE
  5
304
100
AcDbEntity
100
AcDbCircle
  8
Layer 8
 62
256
370
-1
  6
ByLayer
 10
92.5
 20
50.0
 30
0.0
 40
2.3999999999999999
  0
CIRCLE
  5
305
100
AcDbEntity
100
AcDbCircle
  8
Layer 6
 62
256
370
-1
  6
ByLayer
 10
7.5
 20
92.5
 30
0.0
 40
2.3999999999999999
  0
CIRCLE
  5
306
100
AcDbEntity
100
AcDbCircle
  8
Layer 6
 62
256
370
-1
  6
ByLayer
 10
7.5
 20
50.0
 30
0.0
 40
2.3999999999999999
  0
CIRCLE
  5
307
100
AcDbEntity
100
AcDbCircle
  8
Layer 6
 62
256
370
-1
  6
ByLayer
 10
7.5
 20
7.5
 30
0.0
 40
2.3999999999999999
  0
CIRCLE
  5
308
100
AcDbEntity
100
AcDbCircle
  8
Layer 6
 62
256
370
-1
  6
ByLayer
 10
92.5
 20
7.4999999999999991
 30
0.0
 40
2.3999999999999999
  0
CIRCLE
  5
309
100
AcDbEntity
100
AcDbCircle
  8
Layer 6
 62
256
370
-1
  6
ByLayer
 10
92.5
 20
50.0
 30
0.0
 40
2.3999999999999999
  0
CIRCLE
  5
30A
100
AcDbEntity
100
AcDbCircle
  8
Layer 4
 62
256
370
-1
  6
ByLayer
 10
7.5
 20
92.5
 30
0.0
 40
2.3999999999999999
  0
CIRCLE
  5
30B
100
AcDbEntity
100
AcDbCircle
  8
Layer 4
 62
256
370
-1
  6
ByLayer
 10
7.5
 20
50.0
 30
0.0
 40
2.3999999999999999
  0
CIRCLE
  5
30C
100
AcDbEntity
100
AcDbCircle
  8
Layer 4
 62
256
370
-1
  6
ByLayer
 10
7.5
 20
7.5
 30
0.0
 40
2.3999999999999999
  0
CIRCLE
  5
30D
100
AcDbEntity
100
AcDbCircle
  8
Layer 4
 62
256
370
-1
  6
ByLayer
 10
92.5
 20
7.5
 30
0.0
 40
2.3999999999999999
  0
CIRCLE
  5
30E
100
AcDbEntity
100
AcDbCircle
  8
Layer 4
 62
256
370
-1
  6
ByLayer
 10
92.5
 20
50.0
 30
0.0
 40
2.3999999999999999
  0
CIRCLE
  5
30F
100
AcDbEntity
100
AcDbCircle
  8
Layer 3
 62
256
370
-1
  6
ByLayer
 10
92.5
 20
50.0
 30
0.0
 40
2.3999999999999999
  0
CIRCLE
  5
310
100
AcDbEntity
100
AcDbCircle
  8
Layer 3
 62
256
370
-1
  6
ByLayer
 10
92.5
 20
7.5
 30
0.0
 40
2.3999999999999999
  0
CIRCLE
  5
311
100
AcDbEntity
100
AcDbCircle
  8
Layer 3
 62
256
370
-1
  6
ByLayer
 10
7.5
 20
7.5
 30
0.0
 40
2.3999999999999999
  0
CIRCLE
  5
312
100
AcDbEntity
100
AcDbCircle
  8
Layer 3
 62
256
370
-1
  6
ByLayer
 10
7.5
 20
50.0
 30
0.0
 40
2.3999999999999999
  0
CIRCLE
  5
313
100
AcDbEntity
100
AcDbCircle
  8
Layer 3
 62
256
370
-1
  6
ByLayer
 10
7.5
 20
92.5
 30
0.0
 40
2.3999999999999999
  0
CIRCLE
  5
314
100
AcDbEntity
100
AcDbCircle
  8
Layer 2
 62
256
370
-1
  6
ByLayer
 10
92.5
 20
50.0
 30
0.0
 40
2.3999999999999999
  0
CIRCLE
  5
315
100
AcDbEntity
100
AcDbCircle
  8
Layer 2
 62
256
370
-1
  6
ByLayer
 10
92.5
 20
7.4999999999999991
 30
0.0
 40
2.3999999999999999
  0
CIRCLE
  5
316
100
AcDbEntity
100
AcDbCircle
  8
Layer 2
 62
256
370
-1
  6
ByLayer
 10
7.4999999999999991
 20
7.5
 30
0.0
 40
2.3999999999999999
  0
CIRCLE
  5
317
100
AcDbEntity
100
AcDbCircle
  8
Layer 2
 62
256
370
-1
  6
ByLayer
 10
7.5
 20
50.0
 30
0.0
 40
2.3999999999999999
  0
CIRCLE
  5
318
100
AcDbEntity
100
AcDbCircle
  8
Layer 2
 62
256
370
-1
  6
ByLayer
 10
7.5
 20
92.5
 30
0.0
 40
2.3999999999999999
  0
CIRCLE
  5
319
100
AcDbEntity
100
AcDbCircle
  8
Layer 1
 62
256
370
-1
  6
ByLayer
 10
7.5
 20
92.5
 30
0.0
 40
2.3999999999999999
  0
CIRCLE
  5
31A
100
AcDbEntity
100
AcDbCircle
  8
Layer 1
 62
256
370
-1
  6
ByLayer
 10
7.5
 20
50.0
 30
0.0
 40
2.3999999999999999
  0
CIRCLE
  5
31B
100
AcDbEntity
100
AcDbCircle
  8
Layer 1
 62
256
370
-1
  6
ByLayer
 10
7.5
 20
7.5
 30
0.0
 40
2.3999999999999999
  0
CIRCLE
  5
31C
100
AcDbEntity
100
AcDbCircle
  8
Layer 1
 62
256
370
-1
  6
ByLayer
 10
92.5
 20
7.5
 30
0.0
 40
2.3999999999999999
  0
CIRCLE
  5
31D
100
AcDbEntity
100
AcDbCircle
  8
Layer 1
 62
256
370
-1
  6
ByLayer
 10
92.5
 20
50.0
 30
0.0
 40
2.3999999999999999
  0
CIRCLE
  5
31E
100
AcDbEntity
100
AcDbCircle
  8
Layer 5
 62
256
370
-1
  6
ByLayer
 10
7.5
 20
92.5
 30
0.0
 40
2.3999999999999999
  0
CIRCLE
  5
31F
100
AcDbEntity
100
AcDbCircle
  8
Layer 5
 62
256
370
-1
  6
ByLayer
 10
7.4999999999999716
 20
49.9999999999999929
 30
0.0
 40
2.3999999999999999
  0
CIRCLE
  5
320
100
AcDbEntity
100
AcDbCircle
  8
Layer 5
 62
256
370
-1
  6
ByLayer
 10
7.4999999999999432
 20
7.4999999999999858
 30
0.0
 40
2.3999999999999999
  0
CIRCLE
  5
321
100
AcDbEntity
100
AcDbCircle
  8
Layer 5
 62
256
370
-1
  6
ByLayer
 10
92.5
 20
7.4999999999999716
 30
0.0
 40
2.3999999999999999
  0
CIRCLE
  5
322
100
AcDbEntity
100
AcDbCircle
  8
Layer 5
 62
256
370
-1
  6
ByLayer
 10
92.5
 20
49.9999999999999574
 30
0.0
 40
2.3999999999999999
  0
CIRCLE
  5
323
100
AcDbEntity
100
AcDbCircle
  8
Layer 7
 62
256
370
-1
  6
ByLayer
 10
49.9999850054043975
 20
34.7798160249545276
 30
0.0
 40
27.0
  0
LINE
  5
324
100
AcDbEntity
100
AcDbLine
  8
Drawings
 62
256
370
-1
  6
ByLayer
 10
14.9999850054043975
 20
34.7798160249545276
 30
0.0
 11
84.9999850054043975
 21
34.7798160249545276
 31
0.0
  0
MTEXT
  5
325
100
AcDbEntity
100
AcDbMText
  8
Layer 5 Text
 62
256
370
-1
  6
ByLayer
 10
50.0
 20
2.0
 30
0.0
 40
2.0
 41
100.0
 71
5
 72
2
  1
Layer\~5
  7
standard
 50
0.0
 73
0
 44
1.0
  0
MTEXT
  5
326
100
AcDbEntity
100
AcDbMText
  8
Layer 6 Text
 62
256
370
-1
  6
ByLayer
 10
50.0
 20
2.0
 30
0.0
 40
2.0
 41
100.0
 71
5
 72
2
  1
Layer\~6
  7
standard
 50
0.0
 73
0
 44
1.0
  0
CIRCLE
  5
327
100
AcDbEntity
100
AcDbCircle
  8
Drive Retainer
 62
256
370
-1
  6
ByLayer
 10
49.9999850054043975
 20
34.7798160249545276
 30
0.0
 40
28.0
  0
CIRCLE
  5
328
100
AcDbEntity
100
AcDbCircle
  8
Drawings
 62
256
370
-1
  6
ByLayer
 10
49.9999850054043975
 20
34.7798160249545276
 30
0.0
 40
20.0
  0
CIRCLE
  5
329
100
AcDbEntity
100
AcDbCircle
  8
Drive Retainer
 62
256
370
-1
  6
ByLayer
 10
49.9999850054043975
 20
54.7798160249545205
 30
0.0
 40
1.4299999999999999
  0
CIRCLE
  5
32A
100
AcDbEntity
100
AcDbCircle
  8
Drive Retainer
 62
256
370
-1
  6
ByLayer
 10
32.6794769297156193
 20
24.7798160249545347
 30
0.0
 40
1.4299999999999999
  0
LINE
  5
32B
100
AcDbEntity
100
AcDbLine
  8
Drawings
 62
256
370
-1
  6
ByLayer
 10
49.9999850054043975
 20
34.7798160249545276
 30
0.0
 11
67.3204930810931614
 21
24.7798160249545205
 31
0.0
  0
CIRCLE
  5
32C
100
AcDbEntity
100
AcDbCircle
  8
Drive Retainer
 62
256
370
-1
  6
ByLayer
 10
67.3204930810931614
 20
24.7798160249545205
 30
0.0
 40
1.4299999999999999
  0
CIRCLE
  5
32D
100
AcDbEntity
100
AcDbCircle
  8
Layer 1
 62
256
370
-1
  6
ByLayer
 10
49.9999850054043975
 20
54.7798160249545205
 30
0.0
 40
1.4299999999999999
  0
CIRCLE
  5
32E
100
AcDbEntity
100
AcDbCircle
  8
Layer 1
 62
256
370
-1
  6
ByLayer
 10
32.6794769297156193
 20
24.7798160249545347
 30
0.0
 40
1.4299999999999999
  0
CIRCLE
  5
32F
100
AcDbEntity
100
AcDbCircle
  8
Layer 1
 62
256
370
-1
  6
ByLayer
 10
67.3204930810931614
 20
24.7798160249545205
 30
0.0
 40
1.4299999999999999
  0
LINE
  5
330
100
AcDbEntity
100
AcDbLine
  8
Layer 2
 62
256
370
-1
  6
ByLayer
 10
46.8245590054044101
 20
54.7798160249545205
 30
0.0
 11
48.4122720054043896
 21
57.5298160249545205
 31
0.0
  0
LINE
  5
331
100
AcDbEntity
100
AcDbLine
  8
Layer 2
 62
256
370
-1
  6
ByLayer
 10
48.4122720054043896
 20
57.5298160249545205
 30
0.0
 11
51.5876980054044054
 21
57.5298160249545205
 31
0.0
  0
LINE
  5
332
100
AcDbEntity
100
AcDbLine
  8
Layer 2
 62
256
370
-1
  6
ByLayer
 10
51.5876980054044054
 20
57.5298160249545205
 30
0.0
 11
53.1754110054043849
 21
54.7798160249545205
 31
0.0
  0
LINE
  5
333
100
AcDbEntity
100
AcDbLine
  8
Layer 2
 62
256
370
-1
  6
ByLayer
 10
51.587698005404377
 20
52.0298160249545205
 30
0.0
 11
53.1754110054043849
 21
54.7798160249545205
 31
0.0
  0
LINE
  5
334
100
AcDbEntity
100
AcDbLine
  8
Layer 2
 62
256
370
-1
  6
ByLayer
 10
48.4122720054043896
 20
52.0298160249545347
 30
0.0
 11
51.587698005404377
 21
52.0298160249545205
 31
0.0
  0
LINE
  5
335
100
AcDbEntity
100
AcDbLine
  8
Layer 2
 62
256
370
-1
  6
ByLayer
 10
46.8245590054044101
 20
54.7798160249545205
 30
0.0
 11
48.4122720054043896
 21
52.0298160249545347
 31
0.0
  0
LINE
  5
336
100
AcDbEntity
100
AcDbLine
  8
Layer 2
 62
256
370
-1
  6
ByLayer
 10
64.145067081093174
 20
24.7798160249545205
 30
0.0
 11
65.7327800810931535
 21
27.5298160249545205
 31
0.0
  0
LINE
  5
337
100
AcDbEntity
100
AcDbLine
  8
Layer 2
 62
256
370
-1
  6
ByLayer
 10
65.7327800810931535
 20
27.5298160249545205
 30
0.0
 11
68.9082060810931694
 21
27.5298160249545205
 31
0.0
  0
LINE
  5
338
100
AcDbEntity
100
AcDbLine
  8
Layer 2
 62
256
370
-1
  6
ByLayer
 10
68.9082060810931694
 20
27.5298160249545205
 30
0.0
 11
70.4959190810931489
 21
24.7798160249545205
 31
0.0
  0
LINE
  5
339
100
AcDbEntity
100
AcDbLine
  8
Layer 2
 62
256
370
-1
  6
ByLayer
 10
68.9082060810931409
 20
22.0298160249545205
 30
0.0
 11
70.4959190810931489
 21
24.7798160249545205
 31
0.0
  0
LINE
  5
33A
100
AcDbEntity
100
AcDbLine
  8
Layer 2
 62
256
370
-1
  6
ByLayer
 10
65.7327800810931535
 20
22.0298160249545347
 30
0.0
 11
68.9082060810931409
 21
22.0298160249545205
 31
0.0
  0
LINE
  5
33B
100
AcDbEntity
100
AcDbLine
  8
Layer 2
 62
256
370
-1
  6
ByLayer
 10
64.145067081093174
 20
24.7798160249545205
 30
0.0
 11
65.7327800810931535
 21
22.0298160249545347
 31
0.0
  0
LINE
  5
33C
100
AcDbEntity
100
AcDbLine
  8
Layer 2
 62
256
370
-1
  6
ByLayer
 10
29.5040509297156319
 20
24.7798160249545347
 30
0.0
 11
31.0917639297156114
 21
27.5298160249545347
 31
0.0
  0
LINE
  5
33D
100
AcDbEntity
100
AcDbLine
  8
Layer 2
 62
256
370
-1
  6
ByLayer
 10
31.0917639297156114
 20
27.5298160249545347
 30
0.0
 11
34.2671899297156273
 21
27.5298160249545347
 31
0.0
  0
LINE
  5
33E
100
AcDbEntity
100
AcDbLine
  8
Layer 2
 62
256
370
-1
  6
ByLayer
 10
34.2671899297156273
 20
27.5298160249545347
 30
0.0
 11
35.8549029297156068
 21
24.7798160249545347
 31
0.0
  0
LINE
  5
33F
100
AcDbEntity
100
AcDbLine
  8
Layer 2
 62
256
370
-1
  6
ByLayer
 10
34.2671899297155989
 20
22.0298160249545347
 30
0.0
 11
35.8549029297156068
 21
24.7798160249545347
 31
0.0
  0
LINE
  5
340
100
AcDbEntity
100
AcDbLine
  8
Layer 2
 62
256
370
-1
  6
ByLayer
 10
31.0917639297156114
 20
22.0298160249545489
 30
0.0
 11
34.2671899297155989
 21
22.0298160249545347
 31
0.0
  0
LINE
  5
341
100
AcDbEntity
100
AcDbLine
  8
Layer 2
 62
256
370
-1
  6
ByLayer
 10
29.5040509297156319
 20
24.7798160249545347
 30
0.0
 11
31.0917639297156114
 21
22.0298160249545489
 31
0.0
  0
MTEXT
  5
342
100
AcDbEntity
100
AcDbMText
  8
Drive Retainer Text
 62
256
370
-1
  6
ByLayer
 10
50.0
 20
47.0
 30
0.0
 40
3.0
 41
100.0
 71
5
 72
2
  1
Drive\~Retainer
  7
standard
 50
0.0
 73
0
 44
1.0
  0
CIRCLE
  5
343
100
AcDbEntity
100
AcDbCircle
  8
Drive Retainer
 62
256
370
-1
  6
ByLayer
 10
49.9999850054043975
 20
34.7798160249545276
 30
0.0
 40
8.0
  0
CIRCLE
  5
344
100
AcDbEntity
100
AcDbCircle
  8
Layer 7
 62
256
370
-1
  6
ByLayer
 10
92.5
 20
50.0
 30
0.0
 40
4.6200000000000001
  0
CIRCLE
  5
345
100
AcDbEntity
100
AcDbCircle
  8
Layer 7
 62
256
370
-1
  6
ByLayer
 10
92.5
 20
7.4999999999999991
 30
0.0
 40
4.6200000000000001
  0
CIRCLE
  5
346
100
AcDbEntity
100
AcDbCircle
  8
Layer 7
 62
256
370
-1
  6
ByLayer
 10
7.4999999999999991
 20
7.5
 30
0.0
 40
4.6200000000000001
  0
CIRCLE
  5
347
100
AcDbEntity
100
AcDbCircle
  8
Layer 7
 62
256
370
-1
  6
ByLayer
 10
7.5
 20
50.0
 30
0.0
 40
4.6200000000000001
  0
CIRCLE
  5
348
100
AcDbEntity
100
AcDbCircle
  8
Layer 7
 62
256
370
-1
  6
ByLayer
 10
7.5
 20
92.5
 30
0.0
 40
4.6200000000000001
  0
ARC
  5
349
100
AcDbEntity
  8
Layer 5
 62
256
370
-1
  6
ByLayer
100
AcDbCircle
 10
49.9999850054043975
 20
34.7798160249545276
 30
0.0
 40
32.5
100
AcDbArc
 50
0.0
 51
180.0
  0
LINE
  5
34A
100
AcDbEntity
100
AcDbLine
  8
Layer 5
 62
256
370
-1
  6
ByLayer
 10
26.9997196385934544
 20
13.9954999896293089
 30
0.0
 11
26.9997196385934508
 21
-0.0000000000000132
 31
0.0
  0
LINE
  5
34B
100
AcDbEntity
100
AcDbLine
  8
Layer 5
 62
256
370
-1
  6
ByLayer
 10
17.4999850054043975
 20
34.7798160249545347
 30
0.0
 11
17.4999850054043975
 21
0.0000000000000071
 31
0.0
  0
LINE
  5
34C
100
AcDbEntity
100
AcDbLine
  8
Layer 5
 62
256
370
-1
  6
ByLayer
 10
17.4999850054043975
 20
0.0000000000000071
 30
0.0
 11
2.0000000000000013
 21
-0.0000000000000142
 31
0.0
  0
LINE
  5
34D
100
AcDbEntity
100
AcDbLine
  8
Layer 5
 62
256
370
-1
  6
ByLayer
 10
26.9997196385934508
 20
-0.0000000000000132
 30
0.0
 11
72.9999850054043975
 21
-0.0000000000000007
 31
0.0
  0
LINE
  5
34E
100
AcDbEntity
100
AcDbLine
  8
Layer 5
 62
256
370
-1
  6
ByLayer
 10
72.9999850054043975
 20
13.9952063341280013
 30
0.0
 11
72.9999850054043975
 21
-0.0000000000000007
 31
0.0
  0
ARC
  5
34F
100
AcDbEntity
  8
Layer 5
 62
256
370
-1
  6
ByLayer
100
AcDbCircle
 10
49.9999850054043975
 20
34.7798160249545276
 30
0.0
 40
31.0
100
AcDbArc
 50
222.1027173436243629
 51
317.8965511292541919
  0
LINE
  5
350
100
AcDbEntity
100
AcDbLine
  8
Layer 5
 62
256
370
-1
  6
ByLayer
 10
82.4997196385934615
 20
0.0
 30
0.0
 11
98.0
 21
0.0000000000000009
 31
0.0
  0
LINE
  5
351
100
AcDbEntity
100
AcDbLine
  8
Layer 5
 62
256
370
-1
  6
ByLayer
 10
82.4999850054043975
 20
34.7798160249545276
 30
0.0
 11
82.4997196385934615
 21
0.0
 31
0.0
  0
CIRCLE
  5
352
100
AcDbEntity
100
AcDbCircle
  8
Layer 4
 62
256
370
-1
  6
ByLayer
 10
49.9999850054043975
 20
34.7798160249545276
 30
0.0
 40
32.5
  0
ARC
  5
353
100
AcDbEntity
  8
Layer 6
 62
256
370
-1
  6
ByLayer
100
AcDbCircle
 10
49.9999850054043975
 20
34.7798160249545276
 30
0.0
 40
32.5
100
AcDbArc
 50
0.0
 51
180.0
  0
ARC
  5
354
100
AcDbEntity
  8
Layer 6
 62
256
370
-1
  6
ByLayer
100
AcDbCircle
 10
49.9999850054043975
 20
34.7798160249545276
 30
0.0
 40
31.0
100
AcDbArc
 50
222.1027173436243629
 51
316.5359765016618212
  0
LINE
  5
355
100
AcDbEntity
100
AcDbLine
  8
Layer 6
 62
256
370
-1
  6
ByLayer
 10
26.9997196385934615
 20
13.9954999896293018
 30
0.0
 11
26.9997196385934615
 21
-0.0000000000000142
 31
0.0
  0
LINE
  5
356
100
AcDbEntity
100
AcDbLine
  8
Layer 6
 62
256
370
-1
  6
ByLayer
 10
72.9999850054043975
 20
13.4549479128183993
 30
0.0
 11
72.9999850054043975
 21
0.0
 31
0.0
  0
LINE
  5
357
100
AcDbEntity
100
AcDbLine
  8
Layer 6
 62
256
370
-1
  6
ByLayer
 10
26.9997196385934615
 20
-0.0000000000000142
 30
0.0
 11
72.9999850054043975
 21
0.0
 31
0.0
  0
LINE
  5
358
100
AcDbEntity
100
AcDbLine
  8
Layer 6
 62
256
370
-1
  6
ByLayer
 10
82.4997196385934615
 20
-0.0000000000000069
 30
0.0
 11
98.0
 21
0.0
 31
0.0
  0
LINE
  5
359
100
AcDbEntity
100
AcDbLine
  8
Layer 6
 62
256
370
-1
  6
ByLayer
 10
82.4999850054043975
 20
34.7798160249545276
 30
0.0
 11
82.4997196385934615
 21
-0.0000000000000069
 31
0.0
  0
LINE
  5
35A
100
AcDbEntity
100
AcDbLine
  8
Layer 6
 62
256
370
-1
  6
ByLayer
 10
17.4999850054043975
 20
34.7798160249545347
 30
0.0
 11
17.4999850054043975
 21
0.0000000000000142
 31
0.0
  0
LINE
  5
35B
100
AcDbEntity
100
AcDbLine
  8
Layer 6
 62
256
370
-1
  6
ByLayer
 10
1.9999999999999996
 20
0.0
 30
0.0
 11
17.4999850054043975
 21
0.0000000000000142
 31
0.0
  0
CIRCLE
  5
35C
100
AcDbEntity
100
AcDbCircle
  8
Layer 4
 62
256
370
-1
  6
ByLayer
 10
31.5
 20
3.9999999999999929
 30
0.0
 40
1.4299999999999999
  0
CIRCLE
  5
35D
100
AcDbEntity
100
AcDbCircle
  8
Layer 3
 62
256
370
-1
  6
ByLayer
 10
31.5
 20
3.9999999999999929
 30
0.0
 40
1.4299999999999999
  0
CIRCLE
  5
35E
100
AcDbEntity
100
AcDbCircle
  8
Layer 2
 62
256
370
-1
  6
ByLayer
 10
31.5
 20
3.9999999999999929
 30
0.0
 40
2.7999999999999998
  0
CIRCLE
  5
35F
100
AcDbEntity
100
AcDbCircle
  8
Layer 1
 62
256
370
-1
  6
ByLayer
 10
31.5
 20
3.9999999999999929
 30
0.0
 40
2.7999999999999998
  0
CIRCLE
  5
360
100
AcDbEntity
100
AcDbCircle
  8
Layer 5
 62
256
370
-1
  6
ByLayer
 10
31.5
 20
3.9999999999999929
 30
0.0
 40
1.4299999999999999
  0
CIRCLE
  5
361
100
AcDbEntity
100
AcDbCircle
  8
Layer 6
 62
256
370
-1
  6
ByLayer
 10
31.5
 20
4.0
 30
0.0
 40
1.4299999999999999
  0
CIRCLE
  5
362
100
AcDbEntity
100
AcDbCircle
  8
Layer 8
 62
256
370
-1
  6
ByLayer
 10
31.5
 20
3.9999999999999929
 30
0.0
 40
1.4299999999999999
  0
CIRCLE
  5
363
100
AcDbEntity
100
AcDbCircle
  8
Layer 7
 62
256
370
-1
  6
ByLayer
 10
31.5
 20
3.9999999999999929
 30
0.0
 40
3.1800000000000002
  0
CIRCLE
  5
364
100
AcDbEntity
100
AcDbCircle
  8
Layer 4
 62
256
370
-1
  6
ByLayer
 10
68.5
 20
4.0
 30
0.0
 40
1.4299999999999999
  0
CIRCLE
  5
365
100
AcDbEntity
100
AcDbCircle
  8
Layer 3
 62
256
370
-1
  6
ByLayer
 10
68.5
 20
4.0
 30
0.0
 40
1.4299999999999999
  0
CIRCLE
  5
366
100
AcDbEntity
100
AcDbCircle
  8
Layer 2
 62
256
370
-1
  6
ByLayer
 10
68.5
 20
4.0
 30
0.0
 40
2.7999999999999998
  0
CIRCLE
  5
367
100
AcDbEntity
100
AcDbCircle
  8
Layer 1
 62
256
370
-1
  6
ByLayer
 10
68.5
 20
4.0
 30
0.0
 40
2.7999999999999998
  0
CIRCLE
  5
368
100
AcDbEntity
100
AcDbCircle
  8
Layer 5
 62
256
370
-1
  6
ByLayer
 10
68.5
 20
4.0
 30
0.0
 40
1.4299999999999999
  0
CIRCLE
  5
369
100
AcDbEntity
100
AcDbCircle
  8
Layer 6
 62
256
370
-1
  6
ByLayer
 10
68.4999999999999716
 20
3.9999999999999929
 30
0.0
 40
1.4299999999999999
  0
CIRCLE
  5
36A
100
AcDbEntity
100
AcDbCircle
  8
Layer 8
 62
256
370
-1
  6
ByLayer
 10
68.5
 20
4.0
 30
0.0
 40
1.4299999999999999
  0
CIRCLE
  5
36B
100
AcDbEntity
100
AcDbCircle
  8
Layer 7
 62
256
370
-1
  6
ByLayer
 10
68.5
 20
4.0
 30
0.0
 40
3.1800000000000002
  0
MTEXT
  5
36C
100
AcDbEntity
100
AcDbMText
  8
0
 62
256
370
-1
  6
ByLayer
 10
50.0
 20
120.0
 30
0.0
 40
6.0
 41
100.0
 71
5
 72
2
  1
Peristaltic\~Pump\~v1.3
  7
standard
 50
0.0
 73
0
 44
1.0
  0
MTEXT
  5
36D
100
AcDbEntity
100
AcDbMText
  8
Layer 1 Text
 62
256
370
-1
  6
ByLayer
 10
4.0
 20
77.0
 30
0.0
 40
3.0
 41
100.0
 71
1
 72
0
  1
Peristaltic
  7
standard
 50
0.0
 73
1
 44
1.0
  0
MTEXT
  5
36E
100
AcDbEntity
100
AcDbMText
  8
Layer 1 Text
 62
256
370
-1
  6
ByLayer
 10
4.0
 20
72.0
 30
0.0
 40
3.0
 41
100.0
 71
1
 72
0
  1
Pump\~v1.3
  7
standard
 50
0.0
 73
1
 44
1.0
  0
MTEXT
  5
36F
100
AcDbEntity
100
AcDbMText
  8
Layer 1 Text
 62
256
370
-1
  6
ByLayer
 10
4.0
 20
65.0
 30
0.0
 40
3.0
 41
100.0
 71
1
 72
0
  1
ZachHoeken.com
  7
standard
 50
0.0
 73
1
 44
1.0
  0
LINE
  5
370
100
AcDbEntity
100
AcDbLine
  8
Layer 4
 62
256
370
-1
  6
ByLayer
 10
98.0
 20
0.0000000000000009
 30
0.0
 11
1.9999999999999996
 21
-0.0000000000000142
 31
0.0
  0
MTEXT
  5
371
100
AcDbEntity
100
AcDbMText
  8
0
 62
256
370
-1
  6
ByLayer
 10
50.0
 20
110.0
 30
0.0
 40
4.0
 41
100.0
 71
2
 72
2
  1
Cut\~from\~1/4"\~Acrylic\P
  7
standard
 50
0.0
 73
0
 44
1.0
  0
ENDSEC
  0
SECTION
  2
OBJECTS
  0
DICTIONARY
  5
C
100
AcDbDictionary
280
0
281
1
  3
ACAD_GROUP
350
D
  3
ACAD_LAYOUT
350
1A
  3
ACAD_MLINESTYLE
350
17
  3
ACAD_PLOTSETTINGS
350
19
  3
ACAD_PLOTSTYLENAME
350
E
  3
AcDbVariableDictionary
350
372
  0
DICTIONARY
  5
D
100
AcDbDictionary
280
0
281
1
  0
ACDBDICTIONARYWDFLT
  5
E
100
AcDbDictionary
281
1
  3
Normal
350
F
100
AcDbDictionaryWithDefault
340
F
  0
ACDBPLACEHOLDER
  5
F
  0
DICTIONARY
  5
17
100
AcDbDictionary
280
0
281
1
  3
Standard
350
18
  0
MLINESTYLE
  5
18
100
AcDbMlineStyle
  2
STANDARD
 70
0
  3

 62
256
 51
90.0
 52
90.0
 71
2
 49
0.5
 62
256
  6
BYLAYER
 49
-0.5
 62
256
  6
BYLAYER
  0
DICTIONARY
  5
19
100
AcDbDictionary
280
0
281
1
  0
DICTIONARY
  5
1A
100
AcDbDictionary
281
1
  3
Layout1
350
1E
  3
Layout2
350
26
  3
Model
350
22
  0
LAYOUT
  5
1E
100
AcDbPlotSettings
  1

  2
C:\Program Files\AutoCAD 2002\plotters\DWF ePlot (optimized for plotting).pc3
  4

  6

 40
0.0
 41
0.0
 42
0.0
 43
0.0
 44
0.0
 45
0.0
 46
0.0
 47
0.0
 48
0.0
 49
0.0
140
0.0
141
0.0
142
1.0
143
1.0
 70
688
 72
0
 73
0
 74
5
  7

 75
16
147
1.0
148
0.0
149
0.0
100
AcDbLayout
  1
Layout1
 70
1
 71
1
 10
0.0
 20
0.0
 11
420.0
 21
297.0
 12
0.0
 22
0.0
 32
0.0
 14
100000000000000000000.0
 24
100000000000000000000.0
 34
100000000000000000000.0
 15
-100000000000000000000.0
 25
-100000000000000000000.0
 35
-100000000000000000000.0
146
0.0
 13
0.0
 23
0.0
 33
0.0
 16
1.0
 26
0.0
 36
0.0
 17
0.0
 27
1.0
 37
0.0
 76
0
330
1B
  0
LAYOUT
  5
22
100
AcDbPlotSettings
  1

  2
C:\Program Files\AutoCAD 2002\plotters\DWF ePlot (optimized for plotting).pc3
  4

  6

 40
0.0
 41
0.0
 42
0.0
 43
0.0
 44
0.0
 45
0.0
 46
0.0
 47
0.0
 48
0.0
 49
0.0
140
0.0
141
0.0
142
1.0
143
1.0
 70
1712
 72
0
 73
0
 74
0
  7

 75
0
147
1.0
148
0.0
149
0.0
100
AcDbLayout
  1
Model
 70
1
 71
0
 10
0.0
 20
0.0
 11
12.0
 21
9.0
 12
0.0
 22
0.0
 32
0.0
 14
0.0
 24
0.0
 34
0.0
 15
0.0
 25
0.0
 35
0.0
146
0.0
 13
0.0
 23
0.0
 33
0.0
 16
1.0
 26
0.0
 36
0.0
 17
0.0
 27
1.0
 37
0.0
 76
0
330
1F
  0
LAYOUT
  5
26
100
AcDbPlotSettings
  1

  2
C:\Program Files\AutoCAD 2002\plotters\DWF ePlot (optimized for plotting).pc3
  4

  6

 40
0.0
 41
0.0
 42
0.0
 43
0.0
 44
0.0
 45
0.0
 46
0.0
 47
0.0
 48
0.0
 49
0.0
140
0.0
141
0.0
142
1.0
143
1.0
 70
688
 72
0
 73
0
 74
5
  7

 75
16
147
1.0
148
0.0
149
0.0
100
AcDbLayout
  1
Layout2
 70
1
 71
2
 10
0.0
 20
0.0
 11
12.0
 21
9.0
 12
0.0
 22
0.0
 32
0.0
 14
0.0
 24
0.0
 34
0.0
 15
0.0
 25
0.0
 35
0.0
146
0.0
 13
0.0
 23
0.0
 33
0.0
 16
1.0
 26
0.0
 36
0.0
 17
0.0
 27
1.0
 37
0.0
 76
0
330
23
  0
DICTIONARY
  5
372
100
AcDbDictionary
281
1
  3
DIMASSOC
350
374
  3
HIDETEXT
350
373
  0
DICTIONARYVAR
  5
373
100
DictionaryVariables
280
0
  1
2
  0
DICTIONARYVAR
  5
374
100
DictionaryVariables
280
0
  1
1
  0
ENDSEC
  0
EOF
