999
dxflib 2.2.0.0
  0
SECTION
  2
HEADER
  9
$ACADVER
  1
AC1015
  9
$HANDSEED
  5
FFFF
  9
$DIMASZ
 40
2.5
  9
$PLIMMIN
 10
0.0
 20
0.0
  9
$DIMEXE
 40
1.25
  9
$DIMGAP
 40
0.625
  9
$PLIMMAX
 10
210.0
 20
297.0
  9
$INSUNITS
 70
4
  9
$DIMSTYLE
  2
Standard
  9
$CLAYER
  8
Filament Guide Middle
  9
$DIMEXO
 40
0.625
  9
$DIMTXT
 40
2.5
  9
$CLAYER
  8
Filament Guide Middle
  0
ENDSEC
  0
SECTION
  2
TABLES
  0
TABLE
  2
VPORT
  5
8
100
AcDbSymbolTable
 70
1
  0
VPORT
  5
30
100
AcDbSymbolTableRecord
100
AcDbViewportTableRecord
  2
*Active
 70
0
 10
0.0
 20
0.0
 11
1.0
 21
1.0
 12
286.3055555555554861
 22
148.5
 13
0.0
 23
0.0
 14
10.0
 24
10.0
 15
10.0
 25
10.0
 16
0.0
 26
0.0
 36
1.0
 17
0.0
 27
0.0
 37
0.0
 40
297.0
 41
1.92798353909465
 42
50.0
 43
0.0
 44
0.0
 50
0.0
 51
0.0
 71
0
 72
100
 73
1
 74
3
 75
1
 76
1
 77
0
 78
0
281
0
 65
1
110
0.0
120
0.0
130
0.0
111
1.0
121
0.0
131
0.0
112
0.0
122
1.0
132
0.0
 79
0
146
0.0
  0
ENDTAB
  0
TABLE
  2
LTYPE
  5
5
100
AcDbSymbolTable
 70
21
  0
LTYPE
  5
14
100
AcDbSymbolTableRecord
100
AcDbLinetypeTableRecord
  2
ByBlock
 70
0
  3

 72
65
 73
0
 40
0.0
  0
LTYPE
  5
15
100
AcDbSymbolTableRecord
100
AcDbLinetypeTableRecord
  2
ByLayer
 70
0
  3

 72
65
 73
0
 40
0.0
  0
LTYPE
  5
16
100
AcDbSymbolTableRecord
100
AcDbLinetypeTableRecord
  2
CONTINUOUS
 70
0
  3
Solid line
 72
65
 73
0
 40
0.0
  0
LTYPE
  5
31
100
AcDbSymbolTableRecord
100
AcDbLinetypeTableRecord
  2
DOT
 70
0
  3
Dot . . . . . . . . . . . . . . . . . . . . . .
 72
65
 73
2
 40
6.3499999999999996
 49
0.0
 74
0
 49
-6.3499999999999996
 74
0
  0
LTYPE
  5
32
100
AcDbSymbolTableRecord
100
AcDbLinetypeTableRecord
  2
DOT2
 70
0
  3
Dot (.5x) .....................................
 72
65
 73
2
 40
3.1749999999999998
 49
0.0
 74
0
 49
-3.1749999999999998
 74
0
  0
LTYPE
  5
33
100
AcDbSymbolTableRecord
100
AcDbLinetypeTableRecord
  2
DOTX2
 70
0
  3
Dot (2x) .  .  .  .  .  .  .  .  .  .  .  .  .
 72
65
 73
2
 40
12.6999999999999993
 49
0.0
 74
0
 49
-12.6999999999999993
 74
0
  0
LTYPE
  5
34
100
AcDbSymbolTableRecord
100
AcDbLinetypeTableRecord
  2
DASHED
 70
0
  3
Dashed __ __ __ __ __ __ __ __ __ __ __ __ __ _
 72
65
 73
2
 40
19.0500000000000007
 49
12.6999999999999993
 74
0
 49
-6.3499999999999996
 74
0
  0
LTYPE
  5
35
100
AcDbSymbolTableRecord
100
AcDbLinetypeTableRecord
  2
DASHED2
 70
0
  3
Dashed (.5x) _ _ _ _ _ _ _ _ _ _ _ _ _ _ _ _ _
 72
65
 73
2
 40
9.5250000000000004
 49
6.3499999999999996
 74
0
 49
-3.1749999999999998
 74
0
  0
LTYPE
  5
36
100
AcDbSymbolTableRecord
100
AcDbLinetypeTableRecord
  2
DASHEDX2
 70
0
  3
Dashed (2x) ____  ____  ____  ____  ____  ___
 72
65
 73
2
 40
38.1000000000000014
 49
25.3999999999999986
 74
0
 49
-12.6999999999999993
 74
0
  0
LTYPE
  5
37
100
AcDbSymbolTableRecord
100
AcDbLinetypeTableRecord
  2
DASHDOT
 70
0
  3
Dash dot __ . __ . __ . __ . __ . __ . __ . __
 72
65
 73
4
 40
25.3999999999999986
 49
12.6999999999999993
 74
0
 49
-6.3499999999999996
 74
0
 49
0.0
 74
0
 49
-6.3499999999999996
 74
0
  0
LTYPE
  5
38
100
AcDbSymbolTableRecord
100
AcDbLinetypeTableRecord
  2
DASHDOT2
 70
0
  3
Dash dot (.5x) _._._._._._._._._._._._._._._.
 72
65
 73
4
 40
12.6999999999999993
 49
6.3499999999999996
 74
0
 49
-3.1749999999999998
 74
0
 49
0.0
 74
0
 49
-3.1749999999999998
 74
0
  0
LTYPE
  5
39
100
AcDbSymbolTableRecord
100
AcDbLinetypeTableRecord
  2
DASHDOTX2
 70
0
  3
Dash dot (2x) ____  .  ____  .  ____  .  ___
 72
65
 73
4
 40
50.7999999999999972
 49
25.3999999999999986
 74
0
 49
-12.6999999999999993
 74
0
 49
0.0
 74
0
 49
-12.6999999999999993
 74
0
  0
LTYPE
  5
3A
100
AcDbSymbolTableRecord
100
AcDbLinetypeTableRecord
  2
DIVIDE
 70
0
  3
Divide ____ . . ____ . . ____ . . ____ . . ____
 72
65
 73
6
 40
31.75
 49
12.6999999999999993
 74
0
 49
-6.3499999999999996
 74
0
 49
0.0
 74
0
 49
-6.3499999999999996
 74
0
 49
0.0
 74
0
 49
-6.3499999999999996
 74
0
  0
LTYPE
  5
3B
100
AcDbSymbolTableRecord
100
AcDbLinetypeTableRecord
  2
DIVIDE2
 70
0
  3
Divide (.5x) __..__..__..__..__..__..__..__.._
 72
65
 73
6
 40
15.875
 49
6.3499999999999996
 74
0
 49
-3.1749999999999998
 74
0
 49
0.0
 74
0
 49
-3.1749999999999998
 74
0
 49
0.0
 74
0
 49
-3.1749999999999998
 74
0
  0
LTYPE
  5
3C
100
AcDbSymbolTableRecord
100
AcDbLinetypeTableRecord
  2
DIVIDEX2
 70
0
  3
Divide (2x) ________  .  .  ________  .  .  _
 72
65
 73
6
 40
63.5
 49
25.3999999999999986
 74
0
 49
-12.6999999999999993
 74
0
 49
0.0
 74
0
 49
-12.6999999999999993
 74
0
 49
0.0
 74
0
 49
-12.6999999999999993
 74
0
  0
LTYPE
  5
3D
100
AcDbSymbolTableRecord
100
AcDbLinetypeTableRecord
  2
CENTER
 70
0
  3
Center ____ _ ____ _ ____ _ ____ _ ____ _ ____
 72
65
 73
4
 40
50.7999999999999972
 49
31.75
 74
0
 49
-6.3499999999999996
 74
0
 49
6.3499999999999996
 74
0
 49
-6.3499999999999996
 74
0
  0
LTYPE
  5
3E
100
AcDbSymbolTableRecord
100
AcDbLinetypeTableRecord
  2
CENTER2
 70
0
  3
Center (.5x) ___ _ ___ _ ___ _ ___ _ ___ _ ___
 72
65
 73
4
 40
28.5749999999999993
 49
19.0500000000000007
 74
0
 49
-3.1749999999999998
 74
0
 49
3.1749999999999998
 74
0
 49
-3.1749999999999998
 74
0
  0
LTYPE
  5
3F
100
AcDbSymbolTableRecord
100
AcDbLinetypeTableRecord
  2
CENTERX2
 70
0
  3
Center (2x) ________  __  ________  __  _____
 72
65
 73
4
 40
101.5999999999999943
 49
63.5
 74
0
 49
-12.6999999999999993
 74
0
 49
12.6999999999999993
 74
0
 49
-12.6999999999999993
 74
0
  0
LTYPE
  5
40
100
AcDbSymbolTableRecord
100
AcDbLinetypeTableRecord
  2
BORDER
 70
0
  3
Border __ __ . __ __ . __ __ . __ __ . __ __ .
 72
65
 73
6
 40
44.4500000000000028
 49
12.6999999999999993
 74
0
 49
-6.3499999999999996
 74
0
 49
12.6999999999999993
 74
0
 49
-6.3499999999999996
 74
0
 49
0.0
 74
0
 49
-6.3499999999999996
 74
0
  0
LTYPE
  5
41
100
AcDbSymbolTableRecord
100
AcDbLinetypeTableRecord
  2
BORDER2
 70
0
  3
Border (.5x) __.__.__.__.__.__.__.__.__.__.__.
 72
65
 73
6
 40
22.2250000000000014
 49
6.3499999999999996
 74
0
 49
-3.1749999999999998
 74
0
 49
6.3499999999999996
 74
0
 49
-3.1749999999999998
 74
0
 49
0.0
 74
0
 49
-3.1749999999999998
 74
0
  0
LTYPE
  5
42
100
AcDbSymbolTableRecord
100
AcDbLinetypeTableRecord
  2
BORDERX2
 70
0
  3
Border (2x) ____  ____  .  ____  ____  .  ___
 72
65
 73
6
 40
88.9000000000000057
 49
25.3999999999999986
 74
0
 49
-12.6999999999999993
 74
0
 49
25.3999999999999986
 74
0
 49
-12.6999999999999993
 74
0
 49
0.0
 74
0
 49
-12.6999999999999993
 74
0
  0
ENDTAB
  0
TABLE
  2
LAYER
  5
2
100
AcDbSymbolTable
 70
17
  0
LAYER
  5
10
100
AcDbSymbolTableRecord
100
AcDbLayerTableRecord
  2
0
 70
0
 62
7
420
0
  6
CONTINUOUS
370
0
390
F
  0
LAYER
  5
43
100
AcDbSymbolTableRecord
100
AcDbLayerTableRecord
  2
Drawings
 70
0
 62
5
420
255
  6
CONTINUOUS
370
0
390
F
  0
LAYER
  5
44
100
AcDbSymbolTableRecord
100
AcDbLayerTableRecord
  2
Motor Plate
 70
0
 62
7
420
0
  6
CONTINUOUS
370
0
390
F
  0
LAYER
  5
45
100
AcDbSymbolTableRecord
100
AcDbLayerTableRecord
  2
Motor Plate Text
 70
0
 62
4
420
65535
  6
CONTINUOUS
370
0
390
F
  0
LAYER
  5
46
100
AcDbSymbolTableRecord
100
AcDbLayerTableRecord
  2
Idler Wheel
 70
0
 62
7
420
0
  6
CONTINUOUS
370
0
390
F
  0
LAYER
  5
47
100
AcDbSymbolTableRecord
100
AcDbLayerTableRecord
  2
Idler Wheel Text
 70
0
 62
4
420
65535
  6
CONTINUOUS
370
0
390
F
  0
LAYER
  5
48
100
AcDbSymbolTableRecord
100
AcDbLayerTableRecord
  2
Spacer Plate
 70
0
 62
7
420
0
  6
CONTINUOUS
370
0
390
F
  0
LAYER
  5
49
100
AcDbSymbolTableRecord
100
AcDbLayerTableRecord
  2
Spacer Plate Text
 70
0
 62
4
420
65535
  6
CONTINUOUS
370
0
390
F
  0
LAYER
  5
4A
100
AcDbSymbolTableRecord
100
AcDbLayerTableRecord
  2
Filament Guide Bottom
 70
0
 62
7
420
0
  6
CONTINUOUS
370
0
390
F
  0
LAYER
  5
4B
100
AcDbSymbolTableRecord
100
AcDbLayerTableRecord
  2
Filament Guide Middle
 70
0
 62
7
420
0
  6
CONTINUOUS
370
0
390
F
  0
LAYER
  5
4C
100
AcDbSymbolTableRecord
100
AcDbLayerTableRecord
  2
Text
 70
0
 62
7
420
0
  6
CONTINUOUS
370
0
390
F
  0
LAYER
  5
4D
100
AcDbSymbolTableRecord
100
AcDbLayerTableRecord
  2
Retainer Plate
 70
0
 62
7
420
0
  6
CONTINUOUS
370
0
390
F
  0
LAYER
  5
4E
100
AcDbSymbolTableRecord
100
AcDbLayerTableRecord
  2
Retainer Plate Text
 70
0
 62
4
420
65535
  6
CONTINUOUS
370
0
390
F
  0
LAYER
  5
4F
100
AcDbSymbolTableRecord
100
AcDbLayerTableRecord
  2
Filament Guide Bottom Text
 70
0
 62
4
420
65535
  6
CONTINUOUS
370
0
390
F
  0
LAYER
  5
50
100
AcDbSymbolTableRecord
100
AcDbLayerTableRecord
  2
Filament Guide Middle Text
 70
0
 62
4
420
65535
  6
CONTINUOUS
370
0
390
F
  0
LAYER
  5
51
100
AcDbSymbolTableRecord
100
AcDbLayerTableRecord
  2
Filament Guide Top
 70
0
 62
7
420
0
  6
CONTINUOUS
370
0
390
F
  0
LAYER
  5
52
100
AcDbSymbolTableRecord
100
AcDbLayerTableRecord
  2
Filament Guide Top Text
 70
0
 62
4
420
65535
  6
CONTINUOUS
370
0
390
F
  0
ENDTAB
  0
TABLE
  2
STYLE
  5
3
100
AcDbSymbolTable
 70
1
  0
STYLE
  5
11
100
AcDbSymbolTableRecord
100
AcDbTextStyleTableRecord
  2
Standard
 70
0
 40
0.0
 41
0.75
 50
0.0
 71
0
 42
2.5
  3
txt
  4

  0
ENDTAB
  0
TABLE
  2
VIEW
  5
6
100
AcDbSymbolTable
 70
0
  0
ENDTAB
  0
TABLE
  2
UCS
  5
7
100
AcDbSymbolTable
 70
0
  0
ENDTAB
  0
TABLE
  2
APPID
  5
9
100
AcDbSymbolTable
 70
1
  0
APPID
  5
12
100
AcDbSymbolTableRecord
100
AcDbRegAppTableRecord
  2
ACAD
 70
0
  0
ENDTAB
  0
TABLE
  2
DIMSTYLE
  5
A
100
AcDbSymbolTable
 70
1
100
AcDbDimStyleTable
 71
0
  0
DIMSTYLE
105
27
100
AcDbSymbolTableRecord
100
AcDbDimStyleTableRecord
  2
Standard
 41
2.5
 42
0.625
 43
3.75
 44
1.25
 70
0
 73
0
 74
0
 77
1
 78
8
140
2.5
141
2.5
143
0.03937007874016
147
0.625
171
3
172
1
271
2
272
2
274
3
278
44
283
0
284
8
340
11
  0
ENDTAB
  0
TABLE
  2
BLOCK_RECORD
  5
1
100
AcDbSymbolTable
 70
1
  0
BLOCK_RECORD
  5
1F
100
AcDbSymbolTableRecord
100
AcDbBlockTableRecord
  2
*Model_Space
340
22
  0
BLOCK_RECORD
  5
1B
100
AcDbSymbolTableRecord
100
AcDbBlockTableRecord
  2
*Paper_Space
340
1E
  0
BLOCK_RECORD
  5
23
100
AcDbSymbolTableRecord
100
AcDbBlockTableRecord
  2
*Paper_Space0
340
26
  0
ENDTAB
  0
ENDSEC
  0
SECTION
  2
BLOCKS
  0
BLOCK
  5
20
100
AcDbEntity
  8
0
100
AcDbBlockBegin
  2
*Model_Space
 70
0
 10
0.0
 20
0.0
 30
0.0
  3
*Model_Space
  1

  0
ENDBLK
  5
21
100
AcDbEntity
  8
0
100
AcDbBlockEnd
  0
BLOCK
  5
1C
100
AcDbEntity
 67
1
  8
0
100
AcDbBlockBegin
  2
*Paper_Space
 70
0
 10
0.0
 20
0.0
 30
0.0
  3
*Paper_Space
  1

  0
ENDBLK
  5
1D
100
AcDbEntity
 67
1
  8
0
100
AcDbBlockEnd
  0
BLOCK
  5
24
100
AcDbEntity
  8
0
100
AcDbBlockBegin
  2
*Paper_Space0
 70
0
 10
0.0
 20
0.0
 30
0.0
  3
*Paper_Space0
  1

  0
ENDBLK
  5
25
100
AcDbEntity
  8
0
100
AcDbBlockEnd
  0
ENDSEC
  0
SECTION
  2
ENTITIES
  0
CIRCLE
  5
53
100
AcDbEntity
100
AcDbCircle
  8
Drawings
 62
256
370
-1
  6
ByLayer
 10
50.0
 20
27.4999745962155657
 30
0.0
 40
18.5
  0
CIRCLE
  5
54
100
AcDbEntity
100
AcDbCircle
  8
Motor Plate
 62
256
370
-1
  6
ByLayer
 10
34.75
 20
27.4999745962155728
 30
0.0
 40
1.3999999999999999
  0
CIRCLE
  5
55
100
AcDbEntity
100
AcDbCircle
  8
Motor Plate
 62
256
370
-1
  6
ByLayer
 10
65.25
 20
27.4999745962155764
 30
0.0
 40
1.3999999999999999
  0
MTEXT
  5
56
100
AcDbEntity
100
AcDbMText
  8
Idler Wheel Text
 62
256
370
-1
  6
ByLayer
 10
79.0
 20
13.0
 30
0.0
 40
3.0
 41
100.0
 71
5
 72
2
  1
Wheel
  7
standard
 50
0.0
 73
1
 44
1.0
  0
MTEXT
  5
57
100
AcDbEntity
100
AcDbMText
  8
Idler Wheel Text
 62
256
370
-1
  6
ByLayer
 10
79.0
 20
42.0
 30
0.0
 40
3.0
 41
100.0
 71
5
 72
2
  1
Idler
  7
standard
 50
0.0
 73
1
 44
1.0
  0
CIRCLE
  5
58
100
AcDbEntity
100
AcDbCircle
  8
Idler Wheel
 62
256
370
-1
  6
ByLayer
 10
78.5
 20
27.4999745962155657
 30
0.0
 40
20.0
  0
CIRCLE
  5
59
100
AcDbEntity
100
AcDbCircle
  8
Motor Plate
 62
256
370
-1
  6
ByLayer
 10
35.0
 20
5.0
 30
0.0
 40
1.3999999999999999
  0
CIRCLE
  5
5A
100
AcDbEntity
100
AcDbCircle
  8
Motor Plate
 62
256
370
-1
  6
ByLayer
 10
42.5000000000000284
 20
40.7499745962155799
 30
0.0
 40
1.3999999999999999
  0
CIRCLE
  5
5B
100
AcDbEntity
100
AcDbCircle
  8
Motor Plate
 62
256
370
-1
  6
ByLayer
 10
42.4999999999999858
 20
14.2499745962155799
 30
0.0
 40
1.3999999999999999
  0
CIRCLE
  5
5C
100
AcDbEntity
100
AcDbCircle
  8
Motor Plate
 62
256
370
-1
  6
ByLayer
 10
50.0
 20
5.0
 30
0.0
 40
1.3999999999999999
  0
CIRCLE
  5
5D
100
AcDbEntity
100
AcDbCircle
  8
Motor Plate
 62
256
370
-1
  6
ByLayer
 10
63.0000000000000071
 20
5.0000000000000018
 30
0.0
 40
1.3999999999999999
  0
CIRCLE
  5
5E
100
AcDbEntity
100
AcDbCircle
  8
Idler Wheel
 62
256
370
-1
  6
ByLayer
 10
78.5
 20
27.4999745962155657
 30
0.0
 40
10.9499999999999993
  0
CIRCLE
  5
5F
100
AcDbEntity
100
AcDbCircle
  8
Spacer Plate
 62
256
370
-1
  6
ByLayer
 10
35.0
 20
5.0
 30
0.0
 40
1.3999999999999999
  0
CIRCLE
  5
60
100
AcDbEntity
100
AcDbCircle
  8
Spacer Plate
 62
256
370
-1
  6
ByLayer
 10
50.0
 20
5.0
 30
0.0
 40
1.3999999999999999
  0
CIRCLE
  5
61
100
AcDbEntity
100
AcDbCircle
  8
Spacer Plate
 62
256
370
-1
  6
ByLayer
 10
63.0000000000000071
 20
5.0000000000000018
 30
0.0
 40
1.3999999999999999
  0
CIRCLE
  5
62
100
AcDbEntity
100
AcDbCircle
  8
Spacer Plate
 62
256
370
-1
  6
ByLayer
 10
42.5000000000000284
 20
40.7499745962155799
 30
0.0
 40
3.0
  0
CIRCLE
  5
63
100
AcDbEntity
100
AcDbCircle
  8
Spacer Plate
 62
256
370
-1
  6
ByLayer
 10
34.75
 20
27.4999745962155728
 30
0.0
 40
3.0
  0
CIRCLE
  5
64
100
AcDbEntity
100
AcDbCircle
  8
Spacer Plate
 62
256
370
-1
  6
ByLayer
 10
42.4999999999999858
 20
14.2499745962155799
 30
0.0
 40
3.0
  0
CIRCLE
  5
65
100
AcDbEntity
100
AcDbCircle
  8
Spacer Plate
 62
256
370
-1
  6
ByLayer
 10
65.25
 20
27.4999745962155764
 30
0.0
 40
3.0
  0
CIRCLE
  5
66
100
AcDbEntity
100
AcDbCircle
  8
Filament Guide Bottom
 62
256
370
-1
  6
ByLayer
 10
35.0
 20
5.0
 30
0.0
 40
1.3999999999999999
  0
CIRCLE
  5
67
100
AcDbEntity
100
AcDbCircle
  8
Filament Guide Bottom
 62
256
370
-1
  6
ByLayer
 10
50.0
 20
5.0
 30
0.0
 40
1.3999999999999999
  0
CIRCLE
  5
68
100
AcDbEntity
100
AcDbCircle
  8
Filament Guide Bottom
 62
256
370
-1
  6
ByLayer
 10
63.0000000000000071
 20
5.0000000000000018
 30
0.0
 40
1.3999999999999999
  0
CIRCLE
  5
69
100
AcDbEntity
100
AcDbCircle
  8
Filament Guide Middle
 62
256
370
-1
  6
ByLayer
 10
35.0
 20
5.0000000000000036
 30
0.0
 40
1.3999999999999999
  0
CIRCLE
  5
6A
100
AcDbEntity
100
AcDbCircle
  8
Filament Guide Middle
 62
256
370
-1
  6
ByLayer
 10
50.0
 20
4.9999999999999929
 30
0.0
 40
1.3999999999999999
  0
CIRCLE
  5
6B
100
AcDbEntity
100
AcDbCircle
  8
Filament Guide Middle
 62
256
370
-1
  6
ByLayer
 10
63.0
 20
4.9999999999999893
 30
0.0
 40
1.3999999999999999
  0
LINE
  5
6C
100
AcDbEntity
100
AcDbLine
  8
Filament Guide Bottom
 62
256
370
-1
  6
ByLayer
 10
105.0
 20
0.0
 30
0.0
 11
30.0
 21
0.0
 31
0.0
  0
LINE
  5
6D
100
AcDbEntity
100
AcDbLine
  8
Filament Guide Middle
 62
256
370
-1
  6
ByLayer
 10
30.0
 20
0.0
 30
0.0
 11
30.0
 21
49.9999999999999929
 31
0.0
  0
ARC
  5
6E
100
AcDbEntity
  8
Filament Guide Middle
 62
256
370
-1
  6
ByLayer
100
AcDbCircle
 10
35.0
 20
49.9999999999999858
 30
0.0
 40
5.0
100
AcDbArc
 50
90.0
 51
180.0
  0
LINE
  5
6F
100
AcDbEntity
100
AcDbLine
  8
Filament Guide Middle
 62
256
370
-1
  6
ByLayer
 10
105.0
 20
49.9999999999999858
 30
0.0
 11
105.0
 21
-0.0000000000000286
 31
0.0
  0
ARC
  5
70
100
AcDbEntity
  8
Filament Guide Middle
 62
256
370
-1
  6
ByLayer
100
AcDbCircle
 10
100.0
 20
49.9999999999999858
 30
0.0
 40
5.0
100
AcDbArc
 50
0.0
 51
90.0
  0
LINE
  5
71
100
AcDbEntity
100
AcDbLine
  8
Motor Plate
 62
256
370
-1
  6
ByLayer
 10
30.0
 20
50.0
 30
0.0
 11
30.0
 21
0.0
 31
0.0
  0
ARC
  5
72
100
AcDbEntity
  8
Motor Plate
 62
256
370
-1
  6
ByLayer
100
AcDbCircle
 10
35.0
 20
50.0
 30
0.0
 40
5.0
100
AcDbArc
 50
90.0
 51
180.0
  0
LINE
  5
73
100
AcDbEntity
100
AcDbLine
  8
Motor Plate
 62
256
370
-1
  6
ByLayer
 10
35.0
 20
55.0
 30
0.0
 11
100.0
 21
55.0
 31
0.0
  0
ARC
  5
74
100
AcDbEntity
  8
Motor Plate
 62
256
370
-1
  6
ByLayer
100
AcDbCircle
 10
100.0
 20
50.0
 30
0.0
 40
5.0
100
AcDbArc
 50
0.0
 51
90.0
  0
LINE
  5
75
100
AcDbEntity
100
AcDbLine
  8
Motor Plate
 62
256
370
-1
  6
ByLayer
 10
105.0
 20
50.0
 30
0.0
 11
105.0
 21
0.0
 31
0.0
  0
LINE
  5
76
100
AcDbEntity
100
AcDbLine
  8
Motor Plate
 62
256
370
-1
  6
ByLayer
 10
30.0
 20
0.0
 30
0.0
 11
105.0
 21
0.0
 31
0.0
  0
LINE
  5
77
100
AcDbEntity
100
AcDbLine
  8
Spacer Plate
 62
256
370
-1
  6
ByLayer
 10
30.0
 20
0.0
 30
0.0
 11
105.0
 21
0.0
 31
0.0
  0
LINE
  5
78
100
AcDbEntity
100
AcDbLine
  8
Spacer Plate
 62
256
370
-1
  6
ByLayer
 10
30.0
 20
50.0
 30
0.0
 11
30.0
 21
0.0
 31
0.0
  0
ARC
  5
79
100
AcDbEntity
  8
Spacer Plate
 62
256
370
-1
  6
ByLayer
100
AcDbCircle
 10
35.0
 20
50.0
 30
0.0
 40
5.0
100
AcDbArc
 50
90.0
 51
180.0
  0
LINE
  5
7A
100
AcDbEntity
100
AcDbLine
  8
Spacer Plate
 62
256
370
-1
  6
ByLayer
 10
100.0
 20
55.0
 30
0.0
 11
35.0
 21
55.0
 31
0.0
  0
LINE
  5
7B
100
AcDbEntity
100
AcDbLine
  8
Spacer Plate
 62
256
370
-1
  6
ByLayer
 10
105.0
 20
0.0
 30
0.0
 11
105.0
 21
50.0
 31
0.0
  0
ARC
  5
7C
100
AcDbEntity
  8
Spacer Plate
 62
256
370
-1
  6
ByLayer
100
AcDbCircle
 10
100.0
 20
50.0
 30
0.0
 40
5.0
100
AcDbArc
 50
0.0
 51
90.0
  0
LINE
  5
7D
100
AcDbEntity
100
AcDbLine
  8
Filament Guide Bottom
 62
256
370
-1
  6
ByLayer
 10
30.0
 20
0.0
 30
0.0
 11
30.0
 21
50.0
 31
0.0
  0
ARC
  5
7E
100
AcDbEntity
  8
Filament Guide Bottom
 62
256
370
-1
  6
ByLayer
100
AcDbCircle
 10
35.0
 20
50.0
 30
0.0
 40
5.0
100
AcDbArc
 50
90.0
 51
180.0
  0
LINE
  5
7F
100
AcDbEntity
100
AcDbLine
  8
Filament Guide Bottom
 62
256
370
-1
  6
ByLayer
 10
35.0
 20
55.0
 30
0.0
 11
100.0
 21
55.0
 31
0.0
  0
LINE
  5
80
100
AcDbEntity
100
AcDbLine
  8
Filament Guide Bottom
 62
256
370
-1
  6
ByLayer
 10
105.0
 20
50.0
 30
0.0
 11
105.0
 21
0.0
 31
0.0
  0
ARC
  5
81
100
AcDbEntity
  8
Filament Guide Bottom
 62
256
370
-1
  6
ByLayer
100
AcDbCircle
 10
100.0
 20
50.0
 30
0.0
 40
5.0
100
AcDbArc
 50
0.0
 51
90.0
  0
LINE
  5
82
100
AcDbEntity
100
AcDbLine
  8
Drawings
 62
256
370
-1
  6
ByLayer
 10
100.0
 20
5.0
 30
0.0
 11
100.0
 21
50.0
 31
0.0
  0
CIRCLE
  5
83
100
AcDbEntity
100
AcDbCircle
  8
Motor Plate
 62
256
370
-1
  6
ByLayer
 10
100.0
 20
50.0
 30
0.0
 40
1.3999999999999999
  0
CIRCLE
  5
84
100
AcDbEntity
100
AcDbCircle
  8
Spacer Plate
 62
256
370
-1
  6
ByLayer
 10
100.0
 20
50.0
 30
0.0
 40
1.3999999999999999
  0
CIRCLE
  5
85
100
AcDbEntity
100
AcDbCircle
  8
Filament Guide Bottom
 62
256
370
-1
  6
ByLayer
 10
100.0
 20
50.0
 30
0.0
 40
1.3999999999999999
  0
CIRCLE
  5
86
100
AcDbEntity
100
AcDbCircle
  8
Filament Guide Middle
 62
256
370
-1
  6
ByLayer
 10
100.0
 20
49.9999999999999858
 30
0.0
 40
1.3999999999999999
  0
CIRCLE
  5
87
100
AcDbEntity
100
AcDbCircle
  8
Motor Plate
 62
256
370
-1
  6
ByLayer
 10
100.0
 20
5.0
 30
0.0
 40
1.3999999999999999
  0
CIRCLE
  5
88
100
AcDbEntity
100
AcDbCircle
  8
Spacer Plate
 62
256
370
-1
  6
ByLayer
 10
100.0
 20
5.0
 30
0.0
 40
1.3999999999999999
  0
CIRCLE
  5
89
100
AcDbEntity
100
AcDbCircle
  8
Filament Guide Bottom
 62
256
370
-1
  6
ByLayer
 10
100.0
 20
5.0
 30
0.0
 40
1.3999999999999999
  0
CIRCLE
  5
8A
100
AcDbEntity
100
AcDbCircle
  8
Filament Guide Middle
 62
256
370
-1
  6
ByLayer
 10
100.0
 20
4.9999999999999787
 30
0.0
 40
1.3999999999999999
  0
LINE
  5
8B
100
AcDbEntity
100
AcDbLine
  8
Drawings
 62
256
370
-1
  6
ByLayer
 10
35.0
 20
5.0
 30
0.0
 11
100.0
 21
5.0
 31
0.0
  0
LINE
  5
8C
100
AcDbEntity
100
AcDbLine
  8
Drawings
 62
256
370
-1
  6
ByLayer
 10
100.0
 20
50.0
 30
0.0
 11
35.0
 21
50.0
 31
0.0
  0
LINE
  5
8D
100
AcDbEntity
100
AcDbLine
  8
Drawings
 62
256
370
-1
  6
ByLayer
 10
35.0
 20
50.0
 30
0.0
 11
35.0
 21
5.0
 31
0.0
  0
CIRCLE
  5
8E
100
AcDbEntity
100
AcDbCircle
  8
Motor Plate
 62
256
370
-1
  6
ByLayer
 10
35.0
 20
50.0000000000000142
 30
0.0
 40
1.3999999999999999
  0
CIRCLE
  5
8F
100
AcDbEntity
100
AcDbCircle
  8
Spacer Plate
 62
256
370
-1
  6
ByLayer
 10
35.0
 20
50.0000000000000142
 30
0.0
 40
1.3999999999999999
  0
CIRCLE
  5
90
100
AcDbEntity
100
AcDbCircle
  8
Filament Guide Bottom
 62
256
370
-1
  6
ByLayer
 10
35.0
 20
50.0000000000000142
 30
0.0
 40
1.3999999999999999
  0
CIRCLE
  5
91
100
AcDbEntity
100
AcDbCircle
  8
Filament Guide Middle
 62
256
370
-1
  6
ByLayer
 10
35.0
 20
50.0
 30
0.0
 40
1.3999999999999999
  0
LINE
  5
92
100
AcDbEntity
100
AcDbLine
  8
Retainer Plate
 62
256
370
-1
  6
ByLayer
 10
105.0
 20
0.0
 30
0.0
 11
30.0
 21
0.0
 31
0.0
  0
LINE
  5
93
100
AcDbEntity
100
AcDbLine
  8
Retainer Plate
 62
256
370
-1
  6
ByLayer
 10
30.0
 20
0.0
 30
0.0
 11
30.0
 21
49.9999999999999929
 31
0.0
  0
ARC
  5
94
100
AcDbEntity
  8
Retainer Plate
 62
256
370
-1
  6
ByLayer
100
AcDbCircle
 10
35.0
 20
49.9999999999999858
 30
0.0
 40
5.0
100
AcDbArc
 50
90.0
 51
180.0
  0
LINE
  5
95
100
AcDbEntity
100
AcDbLine
  8
Retainer Plate
 62
256
370
-1
  6
ByLayer
 10
35.0
 20
54.9999999999999858
 30
0.0
 11
100.0
 21
55.0
 31
0.0
  0
LINE
  5
96
100
AcDbEntity
100
AcDbLine
  8
Retainer Plate
 62
256
370
-1
  6
ByLayer
 10
105.0
 20
50.0
 30
0.0
 11
105.0
 21
0.0
 31
0.0
  0
ARC
  5
97
100
AcDbEntity
  8
Retainer Plate
 62
256
370
-1
  6
ByLayer
100
AcDbCircle
 10
100.0
 20
50.0
 30
0.0
 40
5.0
100
AcDbArc
 50
0.0
 51
90.0
  0
CIRCLE
  5
98
100
AcDbEntity
100
AcDbCircle
  8
Retainer Plate
 62
256
370
-1
  6
ByLayer
 10
35.0
 20
49.9999999999999858
 30
0.0
 40
1.3999999999999999
  0
CIRCLE
  5
99
100
AcDbEntity
100
AcDbCircle
  8
Retainer Plate
 62
256
370
-1
  6
ByLayer
 10
35.0
 20
5.0
 30
0.0
 40
1.3999999999999999
  0
CIRCLE
  5
9A
100
AcDbEntity
100
AcDbCircle
  8
Retainer Plate
 62
256
370
-1
  6
ByLayer
 10
50.0
 20
5.0
 30
0.0
 40
1.3999999999999999
  0
CIRCLE
  5
9B
100
AcDbEntity
100
AcDbCircle
  8
Retainer Plate
 62
256
370
-1
  6
ByLayer
 10
63.0000000000000071
 20
5.0000000000000018
 30
0.0
 40
1.3999999999999999
  0
CIRCLE
  5
9C
100
AcDbEntity
100
AcDbCircle
  8
Retainer Plate
 62
256
370
-1
  6
ByLayer
 10
100.0
 20
5.0
 30
0.0
 40
1.3999999999999999
  0
CIRCLE
  5
9D
100
AcDbEntity
100
AcDbCircle
  8
Retainer Plate
 62
256
370
-1
  6
ByLayer
 10
100.0
 20
50.0
 30
0.0
 40
1.3999999999999999
  0
ARC
  5
9E
100
AcDbEntity
  8
Motor Plate
 62
256
370
-1
  6
ByLayer
100
AcDbCircle
 10
76.5
 20
27.4999745962155693
 30
0.0
 40
4.0
100
AcDbArc
 50
90.0
 51
270.0
  0
LINE
  5
9F
100
AcDbEntity
100
AcDbLine
  8
Motor Plate
 62
256
370
-1
  6
ByLayer
 10
80.5
 20
23.4999745962155693
 30
0.0
 11
76.5
 21
23.4999745962155693
 31
0.0
  0
LINE
  5
A0
100
AcDbEntity
100
AcDbLine
  8
Motor Plate
 62
256
370
-1
  6
ByLayer
 10
76.5
 20
31.4999745962155693
 30
0.0
 11
80.5
 21
31.4999745962155693
 31
0.0
  0
ARC
  5
A1
100
AcDbEntity
  8
Motor Plate
 62
256
370
-1
  6
ByLayer
100
AcDbCircle
 10
80.5
 20
27.4999745962155693
 30
0.0
 40
4.0
100
AcDbArc
 50
270.0
 51
90.0
  0
ARC
  5
A2
100
AcDbEntity
  8
Spacer Plate
 62
256
370
-1
  6
ByLayer
100
AcDbCircle
 10
76.5
 20
27.4999745962155693
 30
0.0
 40
4.0
100
AcDbArc
 50
90.0
 51
270.0
  0
LINE
  5
A3
100
AcDbEntity
100
AcDbLine
  8
Spacer Plate
 62
256
370
-1
  6
ByLayer
 10
80.5
 20
23.4999745962155693
 30
0.0
 11
76.5
 21
23.4999745962155693
 31
0.0
  0
LINE
  5
A4
100
AcDbEntity
100
AcDbLine
  8
Spacer Plate
 62
256
370
-1
  6
ByLayer
 10
76.5
 20
31.4999745962155693
 30
0.0
 11
80.5
 21
31.4999745962155693
 31
0.0
  0
ARC
  5
A5
100
AcDbEntity
  8
Spacer Plate
 62
256
370
-1
  6
ByLayer
100
AcDbCircle
 10
80.5
 20
27.4999745962155693
 30
0.0
 40
4.0
100
AcDbArc
 50
270.0
 51
90.0
  0
ARC
  5
A6
100
AcDbEntity
  8
Retainer Plate
 62
256
370
-1
  6
ByLayer
100
AcDbCircle
 10
76.5
 20
27.4999745962155693
 30
0.0
 40
4.0
100
AcDbArc
 50
90.0
 51
270.0
  0
LINE
  5
A7
100
AcDbEntity
100
AcDbLine
  8
Retainer Plate
 62
256
370
-1
  6
ByLayer
 10
80.5
 20
23.4999745962155693
 30
0.0
 11
76.5
 21
23.4999745962155693
 31
0.0
  0
LINE
  5
A8
100
AcDbEntity
100
AcDbLine
  8
Retainer Plate
 62
256
370
-1
  6
ByLayer
 10
76.5
 20
31.4999745962155693
 30
0.0
 11
80.5
 21
31.4999745962155693
 31
0.0
  0
ARC
  5
A9
100
AcDbEntity
  8
Retainer Plate
 62
256
370
-1
  6
ByLayer
100
AcDbCircle
 10
80.5
 20
27.4999745962155693
 30
0.0
 40
4.0
100
AcDbArc
 50
270.0
 51
90.0
  0
MTEXT
  5
AA
100
AcDbEntity
100
AcDbMText
  8
Retainer Plate
 62
256
370
-1
  6
ByLayer
 10
30.0
 20
96.0
 30
0.0
 40
4.0
 41
100.0
 71
1
 72
2
  1
Pinch\~Wheel\~Extruder\~v1.0
  7
standard
 50
0.0
 73
1
 44
1.0
  0
LINE
  5
AB
100
AcDbEntity
100
AcDbLine
  8
Drawings
 62
256
370
-1
  6
ByLayer
 10
50.0
 20
-0.0000000000000073
 30
0.0
 11
50.0000000000000071
 21
55.0
 31
0.0
  0
LINE
  5
AC
100
AcDbEntity
100
AcDbLine
  8
Drawings
 62
256
370
-1
  6
ByLayer
 10
56.5000000000000071
 20
-0.0000000000000101
 30
0.0
 11
56.5000000000000142
 21
55.0
 31
0.0
  0
LINE
  5
AD
100
AcDbEntity
100
AcDbLine
  8
Drawings
 62
256
370
-1
  6
ByLayer
 10
58.0000000000000071
 20
-0.0000000000000104
 30
0.0
 11
58.0000000000000142
 21
55.0
 31
0.0
  0
LINE
  5
AE
100
AcDbEntity
100
AcDbLine
  8
Drawings
 62
256
370
-1
  6
ByLayer
 10
55.0000000000000071
 20
-0.0000000000000096
 30
0.0
 11
55.0000000000000142
 21
55.0
 31
0.0
  0
LINE
  5
AF
100
AcDbEntity
100
AcDbLine
  8
Drawings
 62
256
370
-1
  6
ByLayer
 10
63.0000000000000071
 20
-0.0000000000000126
 30
0.0
 11
63.0000000000000142
 21
55.0
 31
0.0
  0
LINE
  5
B0
100
AcDbEntity
100
AcDbLine
  8
Drawings
 62
256
370
-1
  6
ByLayer
 10
76.5
 20
-0.0000000000000176
 30
0.0
 11
76.5
 21
54.9999999999999929
 31
0.0
  0
LINE
  5
B1
100
AcDbEntity
100
AcDbLine
  8
Drawings
 62
256
370
-1
  6
ByLayer
 10
78.5
 20
-0.0000000000000184
 30
0.0
 11
78.5
 21
54.9999999999999929
 31
0.0
  0
LINE
  5
B2
100
AcDbEntity
100
AcDbLine
  8
Drawings
 62
256
370
-1
  6
ByLayer
 10
80.5
 20
-0.0000000000000193
 30
0.0
 11
80.5
 21
54.9999999999999929
 31
0.0
  0
LINE
  5
B3
100
AcDbEntity
100
AcDbLine
  8
Drawings
 62
256
370
-1
  6
ByLayer
 10
67.5
 20
50.0
 30
0.0
 11
67.5
 21
-0.0000000000000153
 31
0.0
  0
LINE
  5
B4
100
AcDbEntity
100
AcDbLine
  8
Drawings
 62
256
370
-1
  6
ByLayer
 10
30.0
 20
27.4999745962155693
 30
0.0
 11
100.0
 21
27.4999745962155693
 31
0.0
  0
MTEXT
  5
B5
100
AcDbEntity
100
AcDbMText
  8
Retainer Plate Text
 62
256
370
-1
  6
ByLayer
 10
67.5
 20
50.0
 30
0.0
 40
3.0
 41
100.0
 71
5
 72
2
  1
Pinch\~Wheel\~Extruder\~v1.0
  7
standard
 50
0.0
 73
1
 44
1.0
  0
MTEXT
  5
B6
100
AcDbEntity
100
AcDbMText
  8
Motor Plate Text
 62
256
370
-1
  6
ByLayer
 10
67.5
 20
50.0
 30
0.0
 40
3.0
 41
100.0
 71
5
 72
2
  1
Motor\~Plate
  7
standard
 50
0.0
 73
1
 44
1.0
  0
MTEXT
  5
B7
100
AcDbEntity
100
AcDbMText
  8
Spacer Plate Text
 62
256
370
-1
  6
ByLayer
 10
67.5
 20
50.0
 30
0.0
 40
3.0
 41
100.0
 71
5
 72
2
  1
Spacer\~Plate
  7
standard
 50
0.0
 73
1
 44
1.0
  0
MTEXT
  5
B8
100
AcDbEntity
100
AcDbMText
  8
Filament Guide Bottom Text
 62
256
370
-1
  6
ByLayer
 10
55.0000000000000142
 20
50.0
 30
0.0
 40
2.0
 41
100.0
 71
5
 72
2
  1
Filament\~Guide\~Bottom
  7
standard
 50
0.0
 73
1
 44
1.0
  0
MTEXT
  5
B9
100
AcDbEntity
100
AcDbMText
  8
Filament Guide Middle Text
 62
256
370
-1
  6
ByLayer
 10
80.0
 20
52.0
 30
0.0
 40
2.0
 41
100.0
 71
5
 72
2
  1
Filament\~Guide\~Middle
  7
standard
 50
0.0
 73
1
 44
1.0
  0
MTEXT
  5
BA
100
AcDbEntity
100
AcDbMText
  8
Filament Guide Middle Text
 62
256
370
-1
  6
ByLayer
 10
43.0
 20
43.0
 30
0.0
 40
2.0
 41
100.0
 71
5
 72
2
  1
Filament\~Guide\PMiddle
  7
standard
 50
0.0
 73
1
 44
1.0
  0
MTEXT
  5
BB
100
AcDbEntity
100
AcDbMText
  8
Filament Guide Top Text
 62
256
370
-1
  6
ByLayer
 10
55.0000000000000426
 20
49.9999999999999858
 30
0.0
 40
2.0
 41
100.0
 71
5
 72
2
  1
Filament\~Guide\~Top
  7
standard
 50
0.0
 73
1
 44
1.0
  0
CIRCLE
  5
BC
100
AcDbEntity
100
AcDbCircle
  8
Filament Guide Top
 62
256
370
-1
  6
ByLayer
 10
35.0000000000000142
 20
4.9999999999999787
 30
0.0
 40
1.3999999999999999
  0
CIRCLE
  5
BD
100
AcDbEntity
100
AcDbCircle
  8
Filament Guide Top
 62
256
370
-1
  6
ByLayer
 10
49.9999999999999858
 20
4.9999999999999964
 30
0.0
 40
1.3999999999999999
  0
CIRCLE
  5
BE
100
AcDbEntity
100
AcDbCircle
  8
Filament Guide Top
 62
256
370
-1
  6
ByLayer
 10
63.0000000000000142
 20
4.9999999999999822
 30
0.0
 40
1.3999999999999999
  0
LINE
  5
BF
100
AcDbEntity
100
AcDbLine
  8
Filament Guide Top
 62
256
370
-1
  6
ByLayer
 10
105.0000000000000142
 20
-0.000000000000032
 30
0.0
 11
30.0
 21
0.0
 31
0.0
  0
LINE
  5
C0
100
AcDbEntity
100
AcDbLine
  8
Filament Guide Top
 62
256
370
-1
  6
ByLayer
 10
30.0
 20
0.0
 30
0.0
 11
30.0000000000000142
 21
49.9999999999999858
 31
0.0
  0
ARC
  5
C1
100
AcDbEntity
  8
Filament Guide Top
 62
256
370
-1
  6
ByLayer
100
AcDbCircle
 10
35.0000000000000142
 20
50.0
 30
0.0
 40
5.0
100
AcDbArc
 50
90.0
 51
180.0
  0
LINE
  5
C2
100
AcDbEntity
100
AcDbLine
  8
Filament Guide Top
 62
256
370
-1
  6
ByLayer
 10
35.0000000000000142
 20
54.9999999999999858
 30
0.0
 11
100.0000000000000142
 21
54.9999999999999858
 31
0.0
  0
LINE
  5
C3
100
AcDbEntity
100
AcDbLine
  8
Filament Guide Top
 62
256
370
-1
  6
ByLayer
 10
105.0000000000000142
 20
50.0
 30
0.0
 11
105.0000000000000142
 21
-0.000000000000032
 31
0.0
  0
ARC
  5
C4
100
AcDbEntity
  8
Filament Guide Top
 62
256
370
-1
  6
ByLayer
100
AcDbCircle
 10
100.0000000000000142
 20
49.9999999999999858
 30
0.0
 40
5.0
100
AcDbArc
 50
0.0
 51
90.0
  0
CIRCLE
  5
C5
100
AcDbEntity
100
AcDbCircle
  8
Filament Guide Top
 62
256
370
-1
  6
ByLayer
 10
100.0000000000000142
 20
49.9999999999999858
 30
0.0
 40
1.3999999999999999
  0
CIRCLE
  5
C6
100
AcDbEntity
100
AcDbCircle
  8
Filament Guide Top
 62
256
370
-1
  6
ByLayer
 10
100.0000000000000142
 20
4.999999999999968
 30
0.0
 40
1.3999999999999999
  0
CIRCLE
  5
C7
100
AcDbEntity
100
AcDbCircle
  8
Filament Guide Top
 62
256
370
-1
  6
ByLayer
 10
35.0000000000000142
 20
50.0
 30
0.0
 40
1.3999999999999999
  0
CIRCLE
  5
C8
100
AcDbEntity
100
AcDbCircle
  8
Filament Guide Bottom
 62
256
370
-1
  6
ByLayer
 10
78.5
 20
27.4999745962155657
 30
0.0
 40
22.5
  0
CIRCLE
  5
C9
100
AcDbEntity
100
AcDbCircle
  8
Filament Guide Top
 62
256
370
-1
  6
ByLayer
 10
78.5000000000000142
 20
27.4999745961640336
 30
0.0
 40
22.5
  0
MTEXT
  5
CA
100
AcDbEntity
100
AcDbMText
  8
Retainer Plate Text
 62
256
370
-1
  6
ByLayer
 10
41.0
 20
47.0
 30
0.0
 40
2.0
 41
100.0
 71
1
 72
2
  1
make.rrrf.org/pwe-1.0
  7
standard
 50
0.0
 73
1
 44
1.0
  0
MTEXT
  5
CB
100
AcDbEntity
100
AcDbMText
  8
Retainer Plate Text
 62
256
370
-1
  6
ByLayer
 10
41.0
 20
40.0
 30
0.0
 40
2.0
 41
100.0
 71
1
 72
2
  1
Retainer\~Plate
  7
standard
 50
0.0
 73
1
 44
1.0
  0
CIRCLE
  5
CC
100
AcDbEntity
100
AcDbCircle
  8
Motor Plate
 62
256
370
-1
  6
ByLayer
 10
50.0
 20
27.4999745962155657
 30
0.0
 40
9.1999999999999993
  0
CIRCLE
  5
CD
100
AcDbEntity
100
AcDbCircle
  8
Spacer Plate
 62
256
370
-1
  6
ByLayer
 10
50.0
 20
27.4999745962155657
 30
0.0
 40
9.1999999999999993
  0
CIRCLE
  5
CE
100
AcDbEntity
100
AcDbCircle
  8
Filament Guide Top
 62
256
370
-1
  6
ByLayer
 10
50.0000000000000142
 20
27.4999745966338551
 30
0.0
 40
9.1999999999999993
  0
CIRCLE
  5
CF
100
AcDbEntity
100
AcDbCircle
  8
Filament Guide Bottom
 62
256
370
-1
  6
ByLayer
 10
50.0
 20
27.4999745962155764
 30
0.0
 40
9.1999999999999993
  0
CIRCLE
  5
D0
100
AcDbEntity
100
AcDbCircle
  8
Drawings
 62
256
370
-1
  6
ByLayer
 10
50.0
 20
27.4999745962155657
 30
0.0
 40
6.25
  0
CIRCLE
  5
D1
100
AcDbEntity
100
AcDbCircle
  8
Retainer Plate
 62
256
370
-1
  6
ByLayer
 10
50.0000000000000071
 20
27.4999745962155693
 30
0.0
 40
3.1000000000000001
  0
MTEXT
  5
D2
100
AcDbEntity
100
AcDbMText
  8
Text
 62
256
370
-1
  6
ByLayer
 10
30.0
 20
90.0
 30
0.0
 40
3.0
 41
100.0
 71
1
 72
2
  3
Motor\~Plate\~-\~1/4"\~acrylic\PSpacer\~Plate\~-\~1/8"\~acrylic\PFilament\~Guide\~Bottom\~-\~1/8"\~acrylic\PFilament\~Guide\~Middle\~-\~3/16"\~acrylic\PFilament\~Guide\~Top\~-\~1/8"\~acrylic\PRetainer\~Plate\~-\~1/8"\~acrylic\PIdler\~Wheel\~-\~3/16"\
  1
~acrylic
  7
standard
 50
0.0
 73
1
 44
1.0
  0
ARC
  5
D3
100
AcDbEntity
  8
Filament Guide Middle
 62
256
370
-1
  6
ByLayer
100
AcDbCircle
 10
50.0
 20
27.4999745962155764
 30
0.0
 40
9.1999999999999993
100
AcDbArc
 50
52.3082545151324112
 51
288.8844545022288344
  0
ARC
  5
D4
100
AcDbEntity
  8
Filament Guide Middle
 62
256
370
-1
  6
ByLayer
100
AcDbCircle
 10
53.6250000000000071
 20
16.9028346518721087
 30
0.0
 40
2.0
100
AcDbArc
 50
0.0
 51
108.8844545022291044
  0
ARC
  5
D5
100
AcDbEntity
  8
Filament Guide Middle
 62
256
370
-1
  6
ByLayer
100
AcDbCircle
 10
78.5
 20
27.4999745962155657
 30
0.0
 40
22.5
100
AcDbArc
 50
217.5752445249090101
 51
150.7179120016043612
  0
ARC
  5
D6
100
AcDbEntity
  8
Filament Guide Middle
 62
256
370
-1
  6
ByLayer
100
AcDbCircle
 10
59.8750000000000071
 20
13.169609108901561
 30
0.0
 40
1.0
100
AcDbArc
 50
37.5752445249096709
 51
180.0
  0
LINE
  5
D7
100
AcDbEntity
100
AcDbLine
  8
Filament Guide Middle
 62
256
370
-1
  6
ByLayer
 10
30.0
 20
0.0
 30
0.0
 11
55.625
 21
-0.0000000000000097
 31
0.0
  0
LINE
  5
D8
100
AcDbEntity
100
AcDbLine
  8
Filament Guide Middle
 62
256
370
-1
  6
ByLayer
 10
55.6250000000000071
 20
16.9028346518721087
 30
0.0
 11
55.625
 21
-0.0000000000000097
 31
0.0
  0
LINE
  5
D9
100
AcDbEntity
100
AcDbLine
  8
Filament Guide Middle
 62
256
370
-1
  6
ByLayer
 10
58.8750000000000071
 20
-0.0000000000000105
 30
0.0
 11
105.0
 21
-0.0000000000000286
 31
0.0
  0
LINE
  5
DA
100
AcDbEntity
100
AcDbLine
  8
Filament Guide Middle
 62
256
370
-1
  6
ByLayer
 10
58.8750000000000071
 20
13.169609108901561
 30
0.0
 11
58.8750000000000071
 21
-0.0000000000000105
 31
0.0
  0
LINE
  5
DB
100
AcDbEntity
100
AcDbLine
  8
Filament Guide Middle
 62
256
370
-1
  6
ByLayer
 10
55.6250000000000142
 20
54.9999999999999858
 30
0.0
 11
55.6250000000000142
 21
34.7800415601932968
 31
0.0
  0
LINE
  5
DC
100
AcDbEntity
100
AcDbLine
  8
Filament Guide Middle
 62
256
370
-1
  6
ByLayer
 10
35.0
 20
54.9999999999999858
 30
0.0
 11
55.6250000000000142
 21
54.9999999999999858
 31
0.0
  0
LINE
  5
DD
100
AcDbEntity
100
AcDbLine
  8
Filament Guide Middle
 62
256
370
-1
  6
ByLayer
 10
58.8750000000000142
 20
54.9999999999999858
 30
0.0
 11
100.0
 21
54.9999999999999858
 31
0.0
  0
LINE
  5
DE
100
AcDbEntity
100
AcDbLine
  8
Filament Guide Middle
 62
256
370
-1
  6
ByLayer
 10
58.8750000000000142
 20
54.9999999999999858
 30
0.0
 11
58.8750000000000142
 21
38.5049450641450761
 31
0.0
  0
ENDSEC
  0
SECTION
  2
OBJECTS
  0
DICTIONARY
  5
C
100
AcDbDictionary
280
0
281
1
  3
ACAD_GROUP
350
D
  3
ACAD_LAYOUT
350
1A
  3
ACAD_MLINESTYLE
350
17
  3
ACAD_PLOTSETTINGS
350
19
  3
ACAD_PLOTSTYLENAME
350
E
  3
AcDbVariableDictionary
350
DF
  0
DICTIONARY
  5
D
100
AcDbDictionary
280
0
281
1
  0
ACDBDICTIONARYWDFLT
  5
E
100
AcDbDictionary
281
1
  3
Normal
350
F
100
AcDbDictionaryWithDefault
340
F
  0
ACDBPLACEHOLDER
  5
F
  0
DICTIONARY
  5
17
100
AcDbDictionary
280
0
281
1
  3
Standard
350
18
  0
MLINESTYLE
  5
18
100
AcDbMlineStyle
  2
STANDARD
 70
0
  3

 62
256
 51
90.0
 52
90.0
 71
2
 49
0.5
 62
256
  6
BYLAYER
 49
-0.5
 62
256
  6
BYLAYER
  0
DICTIONARY
  5
19
100
AcDbDictionary
280
0
281
1
  0
DICTIONARY
  5
1A
100
AcDbDictionary
281
1
  3
Layout1
350
1E
  3
Layout2
350
26
  3
Model
350
22
  0
LAYOUT
  5
1E
100
AcDbPlotSettings
  1

  2
C:\Program Files\AutoCAD 2002\plotters\DWF ePlot (optimized for plotting).pc3
  4

  6

 40
0.0
 41
0.0
 42
0.0
 43
0.0
 44
0.0
 45
0.0
 46
0.0
 47
0.0
 48
0.0
 49
0.0
140
0.0
141
0.0
142
1.0
143
1.0
 70
688
 72
0
 73
0
 74
5
  7

 75
16
147
1.0
148
0.0
149
0.0
100
AcDbLayout
  1
Layout1
 70
1
 71
1
 10
0.0
 20
0.0
 11
420.0
 21
297.0
 12
0.0
 22
0.0
 32
0.0
 14
100000000000000000000.0
 24
100000000000000000000.0
 34
100000000000000000000.0
 15
-100000000000000000000.0
 25
-100000000000000000000.0
 35
-100000000000000000000.0
146
0.0
 13
0.0
 23
0.0
 33
0.0
 16
1.0
 26
0.0
 36
0.0
 17
0.0
 27
1.0
 37
0.0
 76
0
330
1B
  0
LAYOUT
  5
22
100
AcDbPlotSettings
  1

  2
C:\Program Files\AutoCAD 2002\plotters\DWF ePlot (optimized for plotting).pc3
  4

  6

 40
0.0
 41
0.0
 42
0.0
 43
0.0
 44
0.0
 45
0.0
 46
0.0
 47
0.0
 48
0.0
 49
0.0
140
0.0
141
0.0
142
1.0
143
1.0
 70
1712
 72
0
 73
0
 74
0
  7

 75
0
147
1.0
148
0.0
149
0.0
100
AcDbLayout
  1
Model
 70
1
 71
0
 10
0.0
 20
0.0
 11
12.0
 21
9.0
 12
0.0
 22
0.0
 32
0.0
 14
0.0
 24
0.0
 34
0.0
 15
0.0
 25
0.0
 35
0.0
146
0.0
 13
0.0
 23
0.0
 33
0.0
 16
1.0
 26
0.0
 36
0.0
 17
0.0
 27
1.0
 37
0.0
 76
0
330
1F
  0
LAYOUT
  5
26
100
AcDbPlotSettings
  1

  2
C:\Program Files\AutoCAD 2002\plotters\DWF ePlot (optimized for plotting).pc3
  4

  6

 40
0.0
 41
0.0
 42
0.0
 43
0.0
 44
0.0
 45
0.0
 46
0.0
 47
0.0
 48
0.0
 49
0.0
140
0.0
141
0.0
142
1.0
143
1.0
 70
688
 72
0
 73
0
 74
5
  7

 75
16
147
1.0
148
0.0
149
0.0
100
AcDbLayout
  1
Layout2
 70
1
 71
2
 10
0.0
 20
0.0
 11
12.0
 21
9.0
 12
0.0
 22
0.0
 32
0.0
 14
0.0
 24
0.0
 34
0.0
 15
0.0
 25
0.0
 35
0.0
146
0.0
 13
0.0
 23
0.0
 33
0.0
 16
1.0
 26
0.0
 36
0.0
 17
0.0
 27
1.0
 37
0.0
 76
0
330
23
  0
DICTIONARY
  5
DF
100
AcDbDictionary
281
1
  3
DIMASSOC
350
E1
  3
HIDETEXT
350
E0
  0
DICTIONARYVAR
  5
E0
100
DictionaryVariables
280
0
  1
2
  0
DICTIONARYVAR
  5
E1
100
DictionaryVariables
280
0
  1
1
  0
ENDSEC
  0
EOF
