999
dxflib 2.2.0.0
  0
SECTION
  2
HEADER
  9
$ACADVER
  1
AC1015
  9
$HANDSEED
  5
FFFF
  9
$DIMASZ
 40
2.5
  9
$PLIMMIN
 10
0.0
 20
0.0
  9
$DIMEXE
 40
1.25
  9
$DIMGAP
 40
0.625
  9
$PLIMMAX
 10
210.0
 20
297.0
  9
$INSUNITS
 70
4
  9
$DIMSTYLE
  2
Standard
  9
$CLAYER
  8
Bearings
  9
$DIMEXO
 40
0.625
  9
$DIMTXT
 40
2.5
  9
$CLAYER
  8
Rotor Plate
  0
ENDSEC
  0
SECTION
  2
TABLES
  0
TABLE
  2
VPORT
  5
8
100
AcDbSymbolTable
 70
1
  0
VPORT
  5
30
100
AcDbSymbolTableRecord
100
AcDbViewportTableRecord
  2
*Active
 70
0
 10
0.0
 20
0.0
 11
1.0
 21
1.0
 12
286.3055555555554861
 22
148.5
 13
0.0
 23
0.0
 14
10.0
 24
10.0
 15
10.0
 25
10.0
 16
0.0
 26
0.0
 36
1.0
 17
0.0
 27
0.0
 37
0.0
 40
297.0
 41
1.92798353909465
 42
50.0
 43
0.0
 44
0.0
 50
0.0
 51
0.0
 71
0
 72
100
 73
1
 74
3
 75
1
 76
1
 77
0
 78
0
281
0
 65
1
110
0.0
120
0.0
130
0.0
111
1.0
121
0.0
131
0.0
112
0.0
122
1.0
132
0.0
 79
0
146
0.0
  0
ENDTAB
  0
TABLE
  2
LTYPE
  5
5
100
AcDbSymbolTable
 70
21
  0
LTYPE
  5
14
100
AcDbSymbolTableRecord
100
AcDbLinetypeTableRecord
  2
ByBlock
 70
0
  3

 72
65
 73
0
 40
0.0
  0
LTYPE
  5
15
100
AcDbSymbolTableRecord
100
AcDbLinetypeTableRecord
  2
ByLayer
 70
0
  3

 72
65
 73
0
 40
0.0
  0
LTYPE
  5
16
100
AcDbSymbolTableRecord
100
AcDbLinetypeTableRecord
  2
CONTINUOUS
 70
0
  3
Solid line
 72
65
 73
0
 40
0.0
  0
LTYPE
  5
31
100
AcDbSymbolTableRecord
100
AcDbLinetypeTableRecord
  2
DOT
 70
0
  3
Dot . . . . . . . . . . . . . . . . . . . . . .
 72
65
 73
2
 40
6.3499999999999996
 49
0.0
 74
0
 49
-6.3499999999999996
 74
0
  0
LTYPE
  5
32
100
AcDbSymbolTableRecord
100
AcDbLinetypeTableRecord
  2
DOT2
 70
0
  3
Dot (.5x) .....................................
 72
65
 73
2
 40
3.1749999999999998
 49
0.0
 74
0
 49
-3.1749999999999998
 74
0
  0
LTYPE
  5
33
100
AcDbSymbolTableRecord
100
AcDbLinetypeTableRecord
  2
DOTX2
 70
0
  3
Dot (2x) .  .  .  .  .  .  .  .  .  .  .  .  .
 72
65
 73
2
 40
12.6999999999999993
 49
0.0
 74
0
 49
-12.6999999999999993
 74
0
  0
LTYPE
  5
34
100
AcDbSymbolTableRecord
100
AcDbLinetypeTableRecord
  2
DASHED
 70
0
  3
Dashed __ __ __ __ __ __ __ __ __ __ __ __ __ _
 72
65
 73
2
 40
19.0500000000000007
 49
12.6999999999999993
 74
0
 49
-6.3499999999999996
 74
0
  0
LTYPE
  5
35
100
AcDbSymbolTableRecord
100
AcDbLinetypeTableRecord
  2
DASHED2
 70
0
  3
Dashed (.5x) _ _ _ _ _ _ _ _ _ _ _ _ _ _ _ _ _
 72
65
 73
2
 40
9.5250000000000004
 49
6.3499999999999996
 74
0
 49
-3.1749999999999998
 74
0
  0
LTYPE
  5
36
100
AcDbSymbolTableRecord
100
AcDbLinetypeTableRecord
  2
DASHEDX2
 70
0
  3
Dashed (2x) ____  ____  ____  ____  ____  ___
 72
65
 73
2
 40
38.1000000000000014
 49
25.3999999999999986
 74
0
 49
-12.6999999999999993
 74
0
  0
LTYPE
  5
37
100
AcDbSymbolTableRecord
100
AcDbLinetypeTableRecord
  2
DASHDOT
 70
0
  3
Dash dot __ . __ . __ . __ . __ . __ . __ . __
 72
65
 73
4
 40
25.3999999999999986
 49
12.6999999999999993
 74
0
 49
-6.3499999999999996
 74
0
 49
0.0
 74
0
 49
-6.3499999999999996
 74
0
  0
LTYPE
  5
38
100
AcDbSymbolTableRecord
100
AcDbLinetypeTableRecord
  2
DASHDOT2
 70
0
  3
Dash dot (.5x) _._._._._._._._._._._._._._._.
 72
65
 73
4
 40
12.6999999999999993
 49
6.3499999999999996
 74
0
 49
-3.1749999999999998
 74
0
 49
0.0
 74
0
 49
-3.1749999999999998
 74
0
  0
LTYPE
  5
39
100
AcDbSymbolTableRecord
100
AcDbLinetypeTableRecord
  2
DASHDOTX2
 70
0
  3
Dash dot (2x) ____  .  ____  .  ____  .  ___
 72
65
 73
4
 40
50.7999999999999972
 49
25.3999999999999986
 74
0
 49
-12.6999999999999993
 74
0
 49
0.0
 74
0
 49
-12.6999999999999993
 74
0
  0
LTYPE
  5
3A
100
AcDbSymbolTableRecord
100
AcDbLinetypeTableRecord
  2
DIVIDE
 70
0
  3
Divide ____ . . ____ . . ____ . . ____ . . ____
 72
65
 73
6
 40
31.75
 49
12.6999999999999993
 74
0
 49
-6.3499999999999996
 74
0
 49
0.0
 74
0
 49
-6.3499999999999996
 74
0
 49
0.0
 74
0
 49
-6.3499999999999996
 74
0
  0
LTYPE
  5
3B
100
AcDbSymbolTableRecord
100
AcDbLinetypeTableRecord
  2
DIVIDE2
 70
0
  3
Divide (.5x) __..__..__..__..__..__..__..__.._
 72
65
 73
6
 40
15.875
 49
6.3499999999999996
 74
0
 49
-3.1749999999999998
 74
0
 49
0.0
 74
0
 49
-3.1749999999999998
 74
0
 49
0.0
 74
0
 49
-3.1749999999999998
 74
0
  0
LTYPE
  5
3C
100
AcDbSymbolTableRecord
100
AcDbLinetypeTableRecord
  2
DIVIDEX2
 70
0
  3
Divide (2x) ________  .  .  ________  .  .  _
 72
65
 73
6
 40
63.5
 49
25.3999999999999986
 74
0
 49
-12.6999999999999993
 74
0
 49
0.0
 74
0
 49
-12.6999999999999993
 74
0
 49
0.0
 74
0
 49
-12.6999999999999993
 74
0
  0
LTYPE
  5
3D
100
AcDbSymbolTableRecord
100
AcDbLinetypeTableRecord
  2
CENTER
 70
0
  3
Center ____ _ ____ _ ____ _ ____ _ ____ _ ____
 72
65
 73
4
 40
50.7999999999999972
 49
31.75
 74
0
 49
-6.3499999999999996
 74
0
 49
6.3499999999999996
 74
0
 49
-6.3499999999999996
 74
0
  0
LTYPE
  5
3E
100
AcDbSymbolTableRecord
100
AcDbLinetypeTableRecord
  2
CENTER2
 70
0
  3
Center (.5x) ___ _ ___ _ ___ _ ___ _ ___ _ ___
 72
65
 73
4
 40
28.5749999999999993
 49
19.0500000000000007
 74
0
 49
-3.1749999999999998
 74
0
 49
3.1749999999999998
 74
0
 49
-3.1749999999999998
 74
0
  0
LTYPE
  5
3F
100
AcDbSymbolTableRecord
100
AcDbLinetypeTableRecord
  2
CENTERX2
 70
0
  3
Center (2x) ________  __  ________  __  _____
 72
65
 73
4
 40
101.5999999999999943
 49
63.5
 74
0
 49
-12.6999999999999993
 74
0
 49
12.6999999999999993
 74
0
 49
-12.6999999999999993
 74
0
  0
LTYPE
  5
40
100
AcDbSymbolTableRecord
100
AcDbLinetypeTableRecord
  2
BORDER
 70
0
  3
Border __ __ . __ __ . __ __ . __ __ . __ __ .
 72
65
 73
6
 40
44.4500000000000028
 49
12.6999999999999993
 74
0
 49
-6.3499999999999996
 74
0
 49
12.6999999999999993
 74
0
 49
-6.3499999999999996
 74
0
 49
0.0
 74
0
 49
-6.3499999999999996
 74
0
  0
LTYPE
  5
41
100
AcDbSymbolTableRecord
100
AcDbLinetypeTableRecord
  2
BORDER2
 70
0
  3
Border (.5x) __.__.__.__.__.__.__.__.__.__.__.
 72
65
 73
6
 40
22.2250000000000014
 49
6.3499999999999996
 74
0
 49
-3.1749999999999998
 74
0
 49
6.3499999999999996
 74
0
 49
-3.1749999999999998
 74
0
 49
0.0
 74
0
 49
-3.1749999999999998
 74
0
  0
LTYPE
  5
42
100
AcDbSymbolTableRecord
100
AcDbLinetypeTableRecord
  2
BORDERX2
 70
0
  3
Border (2x) ____  ____  .  ____  ____  .  ___
 72
65
 73
6
 40
88.9000000000000057
 49
25.3999999999999986
 74
0
 49
-12.6999999999999993
 74
0
 49
25.3999999999999986
 74
0
 49
-12.6999999999999993
 74
0
 49
0.0
 74
0
 49
-12.6999999999999993
 74
0
  0
ENDTAB
  0
TABLE
  2
LAYER
  5
2
100
AcDbSymbolTable
 70
23
  0
LAYER
  5
10
100
AcDbSymbolTableRecord
100
AcDbLayerTableRecord
  2
0
 70
0
 62
7
420
16777215
  6
CONTINUOUS
370
0
390
F
  0
LAYER
  5
43
100
AcDbSymbolTableRecord
100
AcDbLayerTableRecord
  2
Rotor Plate
 70
0
 62
7
420
16777215
  6
CONTINUOUS
370
0
390
F
  0
LAYER
  5
44
100
AcDbSymbolTableRecord
100
AcDbLayerTableRecord
  2
Layer 8
 70
0
 62
7
420
16777215
  6
CONTINUOUS
370
0
390
F
  0
LAYER
  5
45
100
AcDbSymbolTableRecord
100
AcDbLayerTableRecord
  2
Layer 7
 70
0
 62
7
420
16777215
  6
CONTINUOUS
370
0
390
F
  0
LAYER
  5
46
100
AcDbSymbolTableRecord
100
AcDbLayerTableRecord
  2
Layer 6
 70
0
 62
7
420
16777215
  6
CONTINUOUS
370
0
390
F
  0
LAYER
  5
47
100
AcDbSymbolTableRecord
100
AcDbLayerTableRecord
  2
Layer 4
 70
0
 62
7
420
16777215
  6
CONTINUOUS
370
0
390
F
  0
LAYER
  5
48
100
AcDbSymbolTableRecord
100
AcDbLayerTableRecord
  2
Layer 3
 70
0
 62
7
420
16777215
  6
CONTINUOUS
370
0
390
F
  0
LAYER
  5
49
100
AcDbSymbolTableRecord
100
AcDbLayerTableRecord
  2
Layer 2
 70
0
 62
7
420
16777215
  6
CONTINUOUS
370
0
390
F
  0
LAYER
  5
4A
100
AcDbSymbolTableRecord
100
AcDbLayerTableRecord
  2
Layer 1
 70
0
 62
7
420
16777215
  6
CONTINUOUS
370
0
390
F
  0
LAYER
  5
4B
100
AcDbSymbolTableRecord
100
AcDbLayerTableRecord
  2
Motor Gear
 70
0
 62
7
420
16777215
  6
CONTINUOUS
370
0
390
F
  0
LAYER
  5
4C
100
AcDbSymbolTableRecord
100
AcDbLayerTableRecord
  2
Rotor Gear
 70
0
 62
7
420
16777215
  6
CONTINUOUS
370
0
390
F
  0
LAYER
  5
4D
100
AcDbSymbolTableRecord
100
AcDbLayerTableRecord
  2
Layer 8 Text
 70
0
 62
4
420
65535
  6
CONTINUOUS
370
0
390
F
  0
LAYER
  5
4E
100
AcDbSymbolTableRecord
100
AcDbLayerTableRecord
  2
Layer 7 Text
 70
0
 62
4
420
65535
  6
CONTINUOUS
370
0
390
F
  0
LAYER
  5
4F
100
AcDbSymbolTableRecord
100
AcDbLayerTableRecord
  2
Layer 6 Text
 70
0
 62
4
420
65535
  6
CONTINUOUS
370
0
390
F
  0
LAYER
  5
50
100
AcDbSymbolTableRecord
100
AcDbLayerTableRecord
  2
Layer 4 Text
 70
0
 62
4
420
65535
  6
CONTINUOUS
370
0
390
F
  0
LAYER
  5
51
100
AcDbSymbolTableRecord
100
AcDbLayerTableRecord
  2
Layer 3 Text
 70
0
 62
4
420
65535
  6
CONTINUOUS
370
0
390
F
  0
LAYER
  5
52
100
AcDbSymbolTableRecord
100
AcDbLayerTableRecord
  2
Layer 2 Text
 70
0
 62
4
420
65535
  6
CONTINUOUS
370
0
390
F
  0
LAYER
  5
53
100
AcDbSymbolTableRecord
100
AcDbLayerTableRecord
  2
Layer 1 Text
 70
0
 62
4
420
65535
  6
CONTINUOUS
370
0
390
F
  0
LAYER
  5
54
100
AcDbSymbolTableRecord
100
AcDbLayerTableRecord
  2
Motor Gear Text
 70
0
 62
4
420
65535
  6
CONTINUOUS
370
0
390
F
  0
LAYER
  5
55
100
AcDbSymbolTableRecord
100
AcDbLayerTableRecord
  2
Rotor Gear Text
 70
0
 62
4
420
65535
  6
CONTINUOUS
370
0
390
F
  0
LAYER
  5
56
100
AcDbSymbolTableRecord
100
AcDbLayerTableRecord
  2
Rotor Plate Text
 70
0
 62
4
420
65535
  6
CONTINUOUS
370
0
390
F
  0
LAYER
  5
57
100
AcDbSymbolTableRecord
100
AcDbLayerTableRecord
  2
Layer 5
 70
0
 62
7
420
16777215
  6
CONTINUOUS
370
0
390
F
  0
LAYER
  5
58
100
AcDbSymbolTableRecord
100
AcDbLayerTableRecord
  2
Layer 5 Text
 70
0
 62
4
420
65535
  6
CONTINUOUS
370
0
390
F
  0
ENDTAB
  0
TABLE
  2
STYLE
  5
3
100
AcDbSymbolTable
 70
1
  0
STYLE
  5
11
100
AcDbSymbolTableRecord
100
AcDbTextStyleTableRecord
  2
Standard
 70
0
 40
0.0
 41
0.75
 50
0.0
 71
0
 42
2.5
  3
txt
  4

  0
ENDTAB
  0
TABLE
  2
VIEW
  5
6
100
AcDbSymbolTable
 70
0
  0
ENDTAB
  0
TABLE
  2
UCS
  5
7
100
AcDbSymbolTable
 70
0
  0
ENDTAB
  0
TABLE
  2
APPID
  5
9
100
AcDbSymbolTable
 70
1
  0
APPID
  5
12
100
AcDbSymbolTableRecord
100
AcDbRegAppTableRecord
  2
ACAD
 70
0
  0
ENDTAB
  0
TABLE
  2
DIMSTYLE
  5
A
100
AcDbSymbolTable
 70
1
100
AcDbDimStyleTable
 71
0
  0
DIMSTYLE
105
27
100
AcDbSymbolTableRecord
100
AcDbDimStyleTableRecord
  2
Standard
 41
2.5
 42
0.625
 43
3.75
 44
1.25
 70
0
 73
0
 74
0
 77
1
 78
8
140
2.5
141
2.5
143
0.03937007874016
147
0.625
171
3
172
1
271
2
272
2
274
3
278
44
283
0
284
8
340
11
  0
ENDTAB
  0
TABLE
  2
BLOCK_RECORD
  5
1
100
AcDbSymbolTable
 70
1
  0
BLOCK_RECORD
  5
1F
100
AcDbSymbolTableRecord
100
AcDbBlockTableRecord
  2
*Model_Space
340
22
  0
BLOCK_RECORD
  5
1B
100
AcDbSymbolTableRecord
100
AcDbBlockTableRecord
  2
*Paper_Space
340
1E
  0
BLOCK_RECORD
  5
23
100
AcDbSymbolTableRecord
100
AcDbBlockTableRecord
  2
*Paper_Space0
340
26
  0
ENDTAB
  0
ENDSEC
  0
SECTION
  2
BLOCKS
  0
BLOCK
  5
20
100
AcDbEntity
  8
0
100
AcDbBlockBegin
  2
*Model_Space
 70
0
 10
0.0
 20
0.0
 30
0.0
  3
*Model_Space
  1

  0
ENDBLK
  5
21
100
AcDbEntity
  8
0
100
AcDbBlockEnd
  0
BLOCK
  5
1C
100
AcDbEntity
 67
1
  8
0
100
AcDbBlockBegin
  2
*Paper_Space
 70
0
 10
0.0
 20
0.0
 30
0.0
  3
*Paper_Space
  1

  0
ENDBLK
  5
1D
100
AcDbEntity
 67
1
  8
0
100
AcDbBlockEnd
  0
BLOCK
  5
24
100
AcDbEntity
  8
0
100
AcDbBlockBegin
  2
*Paper_Space0
 70
0
 10
0.0
 20
0.0
 30
0.0
  3
*Paper_Space0
  1

  0
ENDBLK
  5
25
100
AcDbEntity
  8
0
100
AcDbBlockEnd
  0
ENDSEC
  0
SECTION
  2
ENTITIES
  0
CIRCLE
  5
59
100
AcDbEntity
100
AcDbCircle
  8
Layer 7
 62
256
370
-1
  6
ByLayer
 10
69.4999850054044543
 20
91.4731265266271834
 30
0.0
 40
1.4299999999999999
  0
CIRCLE
  5
5A
100
AcDbEntity
100
AcDbCircle
  8
Layer 7
 62
256
370
-1
  6
ByLayer
 10
69.4999850054044259
 20
73.8731265266271464
 30
0.0
 40
1.4299999999999999
  0
CIRCLE
  5
5B
100
AcDbEntity
100
AcDbCircle
  8
Layer 7
 62
256
370
-1
  6
ByLayer
 10
69.4999850054044543
 20
91.4731265266271834
 30
0.0
 40
1.4299999999999999
  0
CIRCLE
  5
5C
100
AcDbEntity
100
AcDbCircle
  8
Layer 7
 62
256
370
-1
  6
ByLayer
 10
69.4999850054044259
 20
73.8731265266271464
 30
0.0
 40
1.4299999999999999
  0
ARC
  5
5D
100
AcDbEntity
  8
Layer 7
 62
256
370
-1
  6
ByLayer
100
AcDbCircle
 10
98.0
 20
98.0
 30
0.0
 40
2.0
100
AcDbArc
 50
0.0
 51
90.0
  0
LINE
  5
5E
100
AcDbEntity
100
AcDbLine
  8
Layer 7
 62
256
370
-1
  6
ByLayer
 10
98.0
 20
100.0
 30
0.0
 11
2.0
 21
100.0
 31
0.0
  0
ARC
  5
5F
100
AcDbEntity
  8
Layer 7
 62
256
370
-1
  6
ByLayer
100
AcDbCircle
 10
2.0
 20
98.0
 30
0.0
 40
2.0
100
AcDbArc
 50
90.0
 51
180.0
  0
LINE
  5
60
100
AcDbEntity
100
AcDbLine
  8
Layer 7
 62
256
370
-1
  6
ByLayer
 10
0.0
 20
98.0
 30
0.0
 11
0.0
 21
2.0
 31
0.0
  0
ARC
  5
61
100
AcDbEntity
  8
Layer 7
 62
256
370
-1
  6
ByLayer
100
AcDbCircle
 10
2.0
 20
2.0
 30
0.0
 40
2.0
100
AcDbArc
 50
180.0
 51
270.0
  0
LINE
  5
62
100
AcDbEntity
100
AcDbLine
  8
Layer 7
 62
256
370
-1
  6
ByLayer
 10
2.0
 20
0.0
 30
0.0
 11
98.0
 21
0.0
 31
0.0
  0
LINE
  5
63
100
AcDbEntity
100
AcDbLine
  8
Layer 7
 62
256
370
-1
  6
ByLayer
 10
100.0
 20
2.0
 30
0.0
 11
100.0
 21
98.0
 31
0.0
  0
ARC
  5
64
100
AcDbEntity
  8
Layer 7
 62
256
370
-1
  6
ByLayer
100
AcDbCircle
 10
98.0
 20
2.0
 30
0.0
 40
2.0
100
AcDbArc
 50
270.0
 51
0.0
  0
CIRCLE
  5
65
100
AcDbEntity
100
AcDbCircle
  8
Layer 7
 62
256
370
-1
  6
ByLayer
 10
49.9999850054043975
 20
34.7798160249545276
 30
0.0
 40
8.0
  0
MTEXT
  5
66
100
AcDbEntity
100
AcDbMText
  8
Layer 7 Text
 62
256
370
-1
  6
ByLayer
 10
10.0
 20
83.0
 30
0.0
 40
3.0
 41
100.0
 71
1
 72
2
  1
Layer\~7
  7
standard
 50
0.0
 73
0
 44
1.0
  0
CIRCLE
  5
67
100
AcDbEntity
100
AcDbCircle
  8
Layer 7
 62
256
370
-1
  6
ByLayer
 10
92.5
 20
50.0
 30
0.0
 40
2.4300000000000002
  0
CIRCLE
  5
68
100
AcDbEntity
100
AcDbCircle
  8
Layer 7
 62
256
370
-1
  6
ByLayer
 10
92.5
 20
7.4999999999999991
 30
0.0
 40
2.4300000000000002
  0
CIRCLE
  5
69
100
AcDbEntity
100
AcDbCircle
  8
Layer 7
 62
256
370
-1
  6
ByLayer
 10
7.4999999999999991
 20
7.5
 30
0.0
 40
2.4300000000000002
  0
CIRCLE
  5
6A
100
AcDbEntity
100
AcDbCircle
  8
Layer 7
 62
256
370
-1
  6
ByLayer
 10
7.5
 20
50.0
 30
0.0
 40
2.4300000000000002
  0
CIRCLE
  5
6B
100
AcDbEntity
100
AcDbCircle
  8
Layer 7
 62
256
370
-1
  6
ByLayer
 10
7.5
 20
92.5
 30
0.0
 40
2.4300000000000002
  0
CIRCLE
  5
6C
100
AcDbEntity
100
AcDbCircle
  8
Layer 7
 62
256
370
-1
  6
ByLayer
 10
92.5
 20
92.5
 30
0.0
 40
2.4300000000000002
  0
CIRCLE
  5
6D
100
AcDbEntity
100
AcDbCircle
  8
Layer 1
 62
256
370
-1
  6
ByLayer
 10
49.9999850054043975
 20
234.7798160249545276
 30
0.0
 40
11.0
  0
ARC
  5
6E
100
AcDbEntity
  8
Layer 1
 62
256
370
-1
  6
ByLayer
100
AcDbCircle
 10
30.5
 20
270.5
 30
0.0
 40
0.5
100
AcDbArc
 50
180.0
 51
270.0
  0
LINE
  5
6F
100
AcDbEntity
100
AcDbLine
  8
Layer 1
 62
256
370
-1
  6
ByLayer
 10
30.0
 20
299.5
 30
0.0
 11
30.0
 21
270.5
 31
0.0
  0
ARC
  5
70
100
AcDbEntity
  8
Layer 1
 62
256
370
-1
  6
ByLayer
100
AcDbCircle
 10
29.5
 20
299.5
 30
0.0
 40
0.5
100
AcDbArc
 50
0.0
 51
90.0
  0
LINE
  5
71
100
AcDbEntity
100
AcDbLine
  8
Layer 1
 62
256
370
-1
  6
ByLayer
 10
99.5
 20
270.0
 30
0.0
 11
30.5
 21
270.0
 31
0.0
  0
ARC
  5
72
100
AcDbEntity
  8
Layer 1
 62
256
370
-1
  6
ByLayer
100
AcDbCircle
 10
99.5
 20
269.5
 30
0.0
 40
0.5
100
AcDbArc
 50
0.0
 51
90.0
  0
LINE
  5
73
100
AcDbEntity
100
AcDbLine
  8
Layer 1
 62
256
370
-1
  6
ByLayer
 10
29.5
 20
300.0
 30
0.0
 11
2.0
 21
300.0
 31
0.0
  0
ARC
  5
74
100
AcDbEntity
  8
Layer 1
 62
256
370
-1
  6
ByLayer
100
AcDbCircle
 10
2.0
 20
298.0
 30
0.0
 40
2.0
100
AcDbArc
 50
90.0
 51
180.0
  0
LINE
  5
75
100
AcDbEntity
100
AcDbLine
  8
Layer 1
 62
256
370
-1
  6
ByLayer
 10
0.0
 20
298.0
 30
0.0
 11
0.0
 21
202.0
 31
0.0
  0
ARC
  5
76
100
AcDbEntity
  8
Layer 1
 62
256
370
-1
  6
ByLayer
100
AcDbCircle
 10
2.0
 20
202.0
 30
0.0
 40
2.0
100
AcDbArc
 50
180.0
 51
270.0
  0
ARC
  5
77
100
AcDbEntity
  8
Layer 1
 62
256
370
-1
  6
ByLayer
100
AcDbCircle
 10
98.0
 20
202.0
 30
0.0
 40
2.0
100
AcDbArc
 50
270.0
 51
0.0
  0
MTEXT
  5
78
100
AcDbEntity
100
AcDbMText
  8
Layer 1 Text
 62
256
370
-1
  6
ByLayer
 10
10.0
 20
283.0
 30
0.0
 40
3.0
 41
100.0
 71
1
 72
2
  1
Layer\~1
  7
standard
 50
0.0
 73
0
 44
1.0
  0
CIRCLE
  5
79
100
AcDbEntity
100
AcDbCircle
  8
Layer 1
 62
256
370
-1
  6
ByLayer
 10
7.5
 20
292.5
 30
0.0
 40
2.4300000000000002
  0
CIRCLE
  5
7A
100
AcDbEntity
100
AcDbCircle
  8
Layer 1
 62
256
370
-1
  6
ByLayer
 10
7.5
 20
250.0
 30
0.0
 40
2.4300000000000002
  0
CIRCLE
  5
7B
100
AcDbEntity
100
AcDbCircle
  8
Layer 1
 62
256
370
-1
  6
ByLayer
 10
7.5
 20
207.5
 30
0.0
 40
2.4300000000000002
  0
CIRCLE
  5
7C
100
AcDbEntity
100
AcDbCircle
  8
Layer 1
 62
256
370
-1
  6
ByLayer
 10
92.5
 20
207.5
 30
0.0
 40
2.4300000000000002
  0
CIRCLE
  5
7D
100
AcDbEntity
100
AcDbCircle
  8
Layer 1
 62
256
370
-1
  6
ByLayer
 10
92.5
 20
250.0
 30
0.0
 40
2.4300000000000002
  0
ARC
  5
7E
100
AcDbEntity
  8
Layer 2
 62
256
370
-1
  6
ByLayer
100
AcDbCircle
 10
130.5
 20
270.5
 30
0.0
 40
0.5
100
AcDbArc
 50
180.0
 51
270.0
  0
LINE
  5
7F
100
AcDbEntity
100
AcDbLine
  8
Layer 2
 62
256
370
-1
  6
ByLayer
 10
130.0
 20
299.5
 30
0.0
 11
130.0
 21
270.5
 31
0.0
  0
ARC
  5
80
100
AcDbEntity
  8
Layer 2
 62
256
370
-1
  6
ByLayer
100
AcDbCircle
 10
129.5
 20
299.5
 30
0.0
 40
0.5
100
AcDbArc
 50
0.0
 51
90.0
  0
LINE
  5
81
100
AcDbEntity
100
AcDbLine
  8
Layer 2
 62
256
370
-1
  6
ByLayer
 10
199.5
 20
270.0
 30
0.0
 11
130.5
 21
270.0
 31
0.0
  0
ARC
  5
82
100
AcDbEntity
  8
Layer 2
 62
256
370
-1
  6
ByLayer
100
AcDbCircle
 10
199.5
 20
269.5
 30
0.0
 40
0.5
100
AcDbArc
 50
0.0
 51
90.0
  0
ARC
  5
83
100
AcDbEntity
  8
Layer 2
 62
256
370
-1
  6
ByLayer
100
AcDbCircle
 10
198.0
 20
202.0
 30
0.0
 40
2.0
100
AcDbArc
 50
270.0
 51
360.0
  0
ARC
  5
84
100
AcDbEntity
  8
Layer 2
 62
256
370
-1
  6
ByLayer
100
AcDbCircle
 10
102.0
 20
202.0
 30
0.0
 40
2.0
100
AcDbArc
 50
180.0
 51
270.0
  0
LINE
  5
85
100
AcDbEntity
100
AcDbLine
  8
Layer 2
 62
256
370
-1
  6
ByLayer
 10
100.0
 20
298.0
 30
0.0
 11
100.0
 21
202.0
 31
0.0
  0
LINE
  5
86
100
AcDbEntity
100
AcDbLine
  8
Layer 2
 62
256
370
-1
  6
ByLayer
 10
129.5
 20
300.0
 30
0.0
 11
102.0
 21
300.0
 31
0.0
  0
ARC
  5
87
100
AcDbEntity
  8
Layer 2
 62
256
370
-1
  6
ByLayer
100
AcDbCircle
 10
102.0
 20
298.0
 30
0.0
 40
2.0
100
AcDbArc
 50
90.0
 51
180.0
  0
CIRCLE
  5
88
100
AcDbEntity
100
AcDbCircle
  8
Layer 2
 62
256
370
-1
  6
ByLayer
 10
149.9999850054043975
 20
234.7798160249545276
 30
0.0
 40
8.0
  0
MTEXT
  5
89
100
AcDbEntity
100
AcDbMText
  8
Layer 2 Text
 62
256
370
-1
  6
ByLayer
 10
110.0
 20
283.0
 30
0.0
 40
3.0
 41
100.0
 71
1
 72
2
  1
Layer\~2
  7
standard
 50
0.0
 73
0
 44
1.0
  0
CIRCLE
  5
8A
100
AcDbEntity
100
AcDbCircle
  8
Layer 2
 62
256
370
-1
  6
ByLayer
 10
192.5
 20
250.0
 30
0.0
 40
2.4300000000000002
  0
CIRCLE
  5
8B
100
AcDbEntity
100
AcDbCircle
  8
Layer 2
 62
256
370
-1
  6
ByLayer
 10
192.5
 20
207.5
 30
0.0
 40
2.4300000000000002
  0
CIRCLE
  5
8C
100
AcDbEntity
100
AcDbCircle
  8
Layer 2
 62
256
370
-1
  6
ByLayer
 10
107.5
 20
207.5
 30
0.0
 40
2.4300000000000002
  0
CIRCLE
  5
8D
100
AcDbEntity
100
AcDbCircle
  8
Layer 2
 62
256
370
-1
  6
ByLayer
 10
107.5
 20
250.0
 30
0.0
 40
2.4300000000000002
  0
CIRCLE
  5
8E
100
AcDbEntity
100
AcDbCircle
  8
Layer 2
 62
256
370
-1
  6
ByLayer
 10
107.5
 20
292.5
 30
0.0
 40
2.4300000000000002
  0
CIRCLE
  5
8F
100
AcDbEntity
100
AcDbCircle
  8
Layer 3
 62
256
370
-1
  6
ByLayer
 10
249.9999850054043975
 20
282.6731265266270725
 30
0.0
 40
4.8250000000000002
  0
CIRCLE
  5
90
100
AcDbEntity
100
AcDbCircle
  8
Layer 3
 62
256
370
-1
  6
ByLayer
 10
269.4999850054044828
 20
291.4731265266271976
 30
0.0
 40
1.4299999999999999
  0
CIRCLE
  5
91
100
AcDbEntity
100
AcDbCircle
  8
Layer 3
 62
256
370
-1
  6
ByLayer
 10
269.4999850054044259
 20
273.8731265266271748
 30
0.0
 40
1.4299999999999999
  0
ARC
  5
92
100
AcDbEntity
  8
Layer 3
 62
256
370
-1
  6
ByLayer
100
AcDbCircle
 10
202.0
 20
298.0
 30
0.0
 40
2.0
100
AcDbArc
 50
90.0
 51
180.0
  0
ARC
  5
93
100
AcDbEntity
  8
Layer 3
 62
256
370
-1
  6
ByLayer
100
AcDbCircle
 10
298.0
 20
202.0
 30
0.0
 40
2.0
100
AcDbArc
 50
270.0
 51
0.0
  0
LINE
  5
94
100
AcDbEntity
100
AcDbLine
  8
Layer 3
 62
256
370
-1
  6
ByLayer
 10
200.0
 20
298.0
 30
0.0
 11
200.0
 21
202.0
 31
0.0
  0
ARC
  5
95
100
AcDbEntity
  8
Layer 3
 62
256
370
-1
  6
ByLayer
100
AcDbCircle
 10
202.0
 20
202.0
 30
0.0
 40
2.0
100
AcDbArc
 50
180.0
 51
270.0
  0
LINE
  5
96
100
AcDbEntity
100
AcDbLine
  8
Layer 3
 62
256
370
-1
  6
ByLayer
 10
274.7999850054043804
 20
271.5731265266270498
 30
0.0
 11
274.7999850054043804
 21
298.0
 31
0.0
  0
LINE
  5
97
100
AcDbEntity
100
AcDbLine
  8
Layer 3
 62
256
370
-1
  6
ByLayer
 10
272.7999850054043804
 20
300.0
 30
0.0
 11
202.0
 21
300.0
 31
0.0
  0
ARC
  5
98
100
AcDbEntity
  8
Layer 3
 62
256
370
-1
  6
ByLayer
100
AcDbCircle
 10
272.7999850054043804
 20
298.0
 30
0.0
 40
2.0
100
AcDbArc
 50
0.0
 51
90.0
  0
LINE
  5
99
100
AcDbEntity
100
AcDbLine
  8
Layer 3
 62
256
370
-1
  6
ByLayer
 10
274.7999850054043804
 20
271.5731265266270498
 30
0.0
 11
298.0
 21
271.5731265266271066
 31
0.0
  0
LINE
  5
9A
100
AcDbEntity
100
AcDbLine
  8
Layer 3
 62
256
370
-1
  6
ByLayer
 10
300.0
 20
202.0
 30
0.0
 11
300.0
 21
269.5731265266271066
 31
0.0
  0
ARC
  5
9B
100
AcDbEntity
  8
Layer 3
 62
256
370
-1
  6
ByLayer
100
AcDbCircle
 10
298.0
 20
269.5731265266271066
 30
0.0
 40
2.0
100
AcDbArc
 50
0.0
 51
90.0
  0
MTEXT
  5
9C
100
AcDbEntity
100
AcDbMText
  8
Layer 3 Text
 62
256
370
-1
  6
ByLayer
 10
210.0
 20
283.0
 30
0.0
 40
3.0
 41
100.0
 71
1
 72
2
  1
Layer\~3
  7
standard
 50
0.0
 73
0
 44
1.0
  0
ARC
  5
9D
100
AcDbEntity
  8
Layer 3
 62
256
370
-1
  6
ByLayer
100
AcDbCircle
 10
237.9999850054043975
 20
200.8386905280002566
 30
0.0
 40
2.0
100
AcDbArc
 50
0.0
 51
70.528779365509422
  0
LINE
  5
9E
100
AcDbEntity
100
AcDbLine
  8
Layer 3
 62
256
370
-1
  6
ByLayer
 10
259.9999850054043691
 20
200.0
 30
0.0
 11
259.9999850054043691
 21
200.8386905280002281
 31
0.0
  0
ARC
  5
9F
100
AcDbEntity
  8
Layer 3
 62
256
370
-1
  6
ByLayer
100
AcDbCircle
 10
249.9999850054043975
 20
234.7798160249545276
 30
0.0
 40
34.0
100
AcDbArc
 50
289.4712206344906917
 51
250.5287793655092514
  0
ARC
  5
A0
100
AcDbEntity
  8
Layer 3
 62
256
370
-1
  6
ByLayer
100
AcDbCircle
 10
261.9999850054043691
 20
200.8386905280002281
 30
0.0
 40
2.0
100
AcDbArc
 50
109.4712206344910044
 51
180.0
  0
LINE
  5
A1
100
AcDbEntity
100
AcDbLine
  8
Layer 3
 62
256
370
-1
  6
ByLayer
 10
239.9999850054043975
 20
200.0
 30
0.0
 11
239.9999850054043975
 21
200.8386905280002566
 31
0.0
  0
CIRCLE
  5
A2
100
AcDbEntity
100
AcDbCircle
  8
Layer 3
 62
256
370
-1
  6
ByLayer
 10
292.5
 20
250.0
 30
0.0
 40
2.4300000000000002
  0
CIRCLE
  5
A3
100
AcDbEntity
100
AcDbCircle
  8
Layer 3
 62
256
370
-1
  6
ByLayer
 10
292.5
 20
207.5
 30
0.0
 40
2.4300000000000002
  0
CIRCLE
  5
A4
100
AcDbEntity
100
AcDbCircle
  8
Layer 3
 62
256
370
-1
  6
ByLayer
 10
207.5
 20
207.5
 30
0.0
 40
2.4300000000000002
  0
CIRCLE
  5
A5
100
AcDbEntity
100
AcDbCircle
  8
Layer 3
 62
256
370
-1
  6
ByLayer
 10
207.5
 20
250.0
 30
0.0
 40
2.4300000000000002
  0
CIRCLE
  5
A6
100
AcDbEntity
100
AcDbCircle
  8
Layer 3
 62
256
370
-1
  6
ByLayer
 10
207.5
 20
292.5
 30
0.0
 40
2.4300000000000002
  0
CIRCLE
  5
A7
100
AcDbEntity
100
AcDbCircle
  8
Layer 4
 62
256
370
-1
  6
ByLayer
 10
49.9999850054043975
 20
182.6731265266270725
 30
0.0
 40
4.8250000000000002
  0
ARC
  5
A8
100
AcDbEntity
  8
Layer 4
 62
256
370
-1
  6
ByLayer
100
AcDbCircle
 10
98.0
 20
102.0
 30
0.0
 40
2.0
100
AcDbArc
 50
270.0
 51
0.0
  0
ARC
  5
A9
100
AcDbEntity
  8
Layer 4
 62
256
370
-1
  6
ByLayer
100
AcDbCircle
 10
98.0
 20
198.0
 30
0.0
 40
2.0
100
AcDbArc
 50
0.0
 51
90.0
  0
LINE
  5
AA
100
AcDbEntity
100
AcDbLine
  8
Layer 4
 62
256
370
-1
  6
ByLayer
 10
98.0
 20
200.0
 30
0.0
 11
2.0
 21
200.0
 31
0.0
  0
ARC
  5
AB
100
AcDbEntity
  8
Layer 4
 62
256
370
-1
  6
ByLayer
100
AcDbCircle
 10
2.0
 20
198.0
 30
0.0
 40
2.0
100
AcDbArc
 50
90.0
 51
180.0
  0
LINE
  5
AC
100
AcDbEntity
100
AcDbLine
  8
Layer 4
 62
256
370
-1
  6
ByLayer
 10
0.0
 20
198.0
 30
0.0
 11
0.0
 21
101.9999999999999716
 31
0.0
  0
ARC
  5
AD
100
AcDbEntity
  8
Layer 4
 62
256
370
-1
  6
ByLayer
100
AcDbCircle
 10
2.0
 20
101.9999999999999858
 30
0.0
 40
2.0
100
AcDbArc
 50
180.0
 51
270.0
  0
MTEXT
  5
AE
100
AcDbEntity
100
AcDbMText
  8
Layer 4 Text
 62
256
370
-1
  6
ByLayer
 10
10.0
 20
183.0
 30
0.0
 40
3.0
 41
100.0
 71
1
 72
2
  1
Layer\~4
  7
standard
 50
0.0
 73
0
 44
1.0
  0
LINE
  5
AF
100
AcDbEntity
100
AcDbLine
  8
Layer 4
 62
256
370
-1
  6
ByLayer
 10
66.3245590054045095
 20
191.4731265266272544
 30
0.0
 11
67.9122720054044891
 21
194.2231265266272544
 31
0.0
  0
LINE
  5
B0
100
AcDbEntity
100
AcDbLine
  8
Layer 4
 62
256
370
-1
  6
ByLayer
 10
67.9122720054044891
 20
194.2231265266272544
 30
0.0
 11
71.0876980054045049
 21
194.2231265266272544
 31
0.0
  0
LINE
  5
B1
100
AcDbEntity
100
AcDbLine
  8
Layer 4
 62
256
370
-1
  6
ByLayer
 10
71.0876980054045049
 20
194.2231265266272544
 30
0.0
 11
72.6754110054044844
 21
191.4731265266272544
 31
0.0
  0
LINE
  5
B2
100
AcDbEntity
100
AcDbLine
  8
Layer 4
 62
256
370
-1
  6
ByLayer
 10
71.0876980054044765
 20
188.7231265266272544
 30
0.0
 11
72.6754110054044844
 21
191.4731265266272544
 31
0.0
  0
LINE
  5
B3
100
AcDbEntity
100
AcDbLine
  8
Layer 4
 62
256
370
-1
  6
ByLayer
 10
67.9122720054044891
 20
188.7231265266272544
 30
0.0
 11
71.0876980054044765
 21
188.7231265266272544
 31
0.0
  0
LINE
  5
B4
100
AcDbEntity
100
AcDbLine
  8
Layer 4
 62
256
370
-1
  6
ByLayer
 10
66.3245590054045095
 20
191.4731265266272544
 30
0.0
 11
67.9122720054044891
 21
188.7231265266272544
 31
0.0
  0
LINE
  5
B5
100
AcDbEntity
100
AcDbLine
  8
Layer 4
 62
256
370
-1
  6
ByLayer
 10
66.3245590054044385
 20
173.873126526627118
 30
0.0
 11
67.912272005404418
 21
176.6231265266271464
 31
0.0
  0
LINE
  5
B6
100
AcDbEntity
100
AcDbLine
  8
Layer 4
 62
256
370
-1
  6
ByLayer
 10
67.912272005404418
 20
176.6231265266271464
 30
0.0
 11
71.0876980054044338
 21
176.6231265266271464
 31
0.0
  0
LINE
  5
B7
100
AcDbEntity
100
AcDbLine
  8
Layer 4
 62
256
370
-1
  6
ByLayer
 10
71.0876980054044338
 20
176.6231265266271464
 30
0.0
 11
72.6754110054044133
 21
173.873126526627118
 31
0.0
  0
LINE
  5
B8
100
AcDbEntity
100
AcDbLine
  8
Layer 4
 62
256
370
-1
  6
ByLayer
 10
71.0876980054044054
 20
171.1231265266271464
 30
0.0
 11
72.6754110054044133
 21
173.873126526627118
 31
0.0
  0
LINE
  5
B9
100
AcDbEntity
100
AcDbLine
  8
Layer 4
 62
256
370
-1
  6
ByLayer
 10
67.912272005404418
 20
171.1231265266271748
 30
0.0
 11
71.0876980054044054
 21
171.1231265266271464
 31
0.0
  0
LINE
  5
BA
100
AcDbEntity
100
AcDbLine
  8
Layer 4
 62
256
370
-1
  6
ByLayer
 10
66.3245590054044385
 20
173.873126526627118
 30
0.0
 11
67.912272005404418
 21
171.1231265266271748
 31
0.0
  0
LINE
  5
BB
100
AcDbEntity
100
AcDbLine
  8
Layer 4
 62
256
370
-1
  6
ByLayer
 10
39.9999850054043975
 20
100.0
 30
0.0
 11
39.9999850054043975
 21
100.8386905280002424
 31
0.0
  0
ARC
  5
BC
100
AcDbEntity
  8
Layer 4
 62
256
370
-1
  6
ByLayer
100
AcDbCircle
 10
37.9999850054043975
 20
100.8386905280002424
 30
0.0
 40
2.0
100
AcDbArc
 50
0.0
 51
70.528779365509422
  0
LINE
  5
BD
100
AcDbEntity
100
AcDbLine
  8
Layer 4
 62
256
370
-1
  6
ByLayer
 10
59.9999850054043975
 20
100.0000000000000142
 30
0.0
 11
59.9999850054043975
 21
100.8386905280002424
 31
0.0
  0
ARC
  5
BE
100
AcDbEntity
  8
Layer 4
 62
256
370
-1
  6
ByLayer
100
AcDbCircle
 10
61.9999850054043975
 20
100.8386905280002424
 30
0.0
 40
2.0
100
AcDbArc
 50
109.4712206344910186
 51
180.0
  0
ARC
  5
BF
100
AcDbEntity
  8
Layer 4
 62
256
370
-1
  6
ByLayer
100
AcDbCircle
 10
49.9999850054043975
 20
134.7798160249545276
 30
0.0
 40
34.0
100
AcDbArc
 50
289.4712206344906917
 51
250.5287793655093083
  0
CIRCLE
  5
C0
100
AcDbEntity
100
AcDbCircle
  8
Layer 4
 62
256
370
-1
  6
ByLayer
 10
7.5
 20
192.5
 30
0.0
 40
2.4300000000000002
  0
CIRCLE
  5
C1
100
AcDbEntity
100
AcDbCircle
  8
Layer 4
 62
256
370
-1
  6
ByLayer
 10
7.5
 20
150.0
 30
0.0
 40
2.4300000000000002
  0
CIRCLE
  5
C2
100
AcDbEntity
100
AcDbCircle
  8
Layer 4
 62
256
370
-1
  6
ByLayer
 10
7.5
 20
107.5
 30
0.0
 40
2.4300000000000002
  0
CIRCLE
  5
C3
100
AcDbEntity
100
AcDbCircle
  8
Layer 4
 62
256
370
-1
  6
ByLayer
 10
92.5
 20
107.5
 30
0.0
 40
2.4300000000000002
  0
CIRCLE
  5
C4
100
AcDbEntity
100
AcDbCircle
  8
Layer 4
 62
256
370
-1
  6
ByLayer
 10
92.5
 20
150.0
 30
0.0
 40
2.4300000000000002
  0
CIRCLE
  5
C5
100
AcDbEntity
100
AcDbCircle
  8
Layer 4
 62
256
370
-1
  6
ByLayer
 10
92.5
 20
192.5
 30
0.0
 40
2.4300000000000002
  0
CIRCLE
  5
C6
100
AcDbEntity
100
AcDbCircle
  8
Layer 5
 62
256
370
-1
  6
ByLayer
 10
149.9999850054043975
 20
182.6731265266270725
 30
0.0
 40
4.8250000000000002
  0
CIRCLE
  5
C7
100
AcDbEntity
100
AcDbCircle
  8
Layer 5
 62
256
370
-1
  6
ByLayer
 10
169.4999850054044828
 20
191.4731265266272544
 30
0.0
 40
1.4299999999999999
  0
CIRCLE
  5
C8
100
AcDbEntity
100
AcDbCircle
  8
Layer 5
 62
256
370
-1
  6
ByLayer
 10
169.4999850054044259
 20
173.873126526627118
 30
0.0
 40
1.4299999999999999
  0
ARC
  5
C9
100
AcDbEntity
  8
Layer 5
 62
256
370
-1
  6
ByLayer
100
AcDbCircle
 10
198.0
 20
101.9999999999999716
 30
0.0
 40
2.0
100
AcDbArc
 50
270.0
 51
0.0
  0
LINE
  5
CA
100
AcDbEntity
100
AcDbLine
  8
Layer 5
 62
256
370
-1
  6
ByLayer
 10
199.9999999999999432
 20
101.9999999999999432
 30
0.0
 11
200.0
 21
198.0000000000004263
 31
0.0
  0
ARC
  5
CB
100
AcDbEntity
  8
Layer 5
 62
256
370
-1
  6
ByLayer
100
AcDbCircle
 10
198.0
 20
198.0000000000004263
 30
0.0
 40
2.0
100
AcDbArc
 50
0.0
 51
90.0
  0
LINE
  5
CC
100
AcDbEntity
100
AcDbLine
  8
Layer 5
 62
256
370
-1
  6
ByLayer
 10
198.0
 20
200.0
 30
0.0
 11
102.0
 21
200.0
 31
0.0
  0
ARC
  5
CD
100
AcDbEntity
  8
Layer 5
 62
256
370
-1
  6
ByLayer
100
AcDbCircle
 10
102.0
 20
198.0
 30
0.0
 40
2.0
100
AcDbArc
 50
90.0
 51
180.0
  0
LINE
  5
CE
100
AcDbEntity
100
AcDbLine
  8
Layer 5
 62
256
370
-1
  6
ByLayer
 10
100.0
 20
198.0
 30
0.0
 11
99.9999999999999716
 21
101.9999999999999716
 31
0.0
  0
ARC
  5
CF
100
AcDbEntity
  8
Layer 5
 62
256
370
-1
  6
ByLayer
100
AcDbCircle
 10
101.9999999999999716
 20
101.9999999999999858
 30
0.0
 40
2.0
100
AcDbArc
 50
180.0
 51
270.0
  0
MTEXT
  5
D0
100
AcDbEntity
100
AcDbMText
  8
Layer 5 Text
 62
256
370
-1
  6
ByLayer
 10
110.0
 20
183.0
 30
0.0
 40
3.0
 41
100.0
 71
1
 72
2
  1
Layer\~5
  7
standard
 50
0.0
 73
0
 44
1.0
  0
LINE
  5
D1
100
AcDbEntity
100
AcDbLine
  8
Layer 5
 62
256
370
-1
  6
ByLayer
 10
139.9999850054043975
 20
100.0
 30
0.0
 11
139.9999850054043975
 21
100.8386905280002424
 31
0.0
  0
ARC
  5
D2
100
AcDbEntity
  8
Layer 5
 62
256
370
-1
  6
ByLayer
100
AcDbCircle
 10
137.9999850054043975
 20
100.8386905280002424
 30
0.0
 40
2.0
100
AcDbArc
 50
0.0
 51
70.528779365509422
  0
LINE
  5
D3
100
AcDbEntity
100
AcDbLine
  8
Layer 5
 62
256
370
-1
  6
ByLayer
 10
159.9999850054043975
 20
100.0
 30
0.0
 11
159.9999850054043975
 21
100.8386905280002424
 31
0.0
  0
ARC
  5
D4
100
AcDbEntity
  8
Layer 5
 62
256
370
-1
  6
ByLayer
100
AcDbCircle
 10
161.9999850054043975
 20
100.8386905280002424
 30
0.0
 40
2.0
100
AcDbArc
 50
109.4712206344910044
 51
180.0
  0
ARC
  5
D5
100
AcDbEntity
  8
Layer 5
 62
256
370
-1
  6
ByLayer
100
AcDbCircle
 10
149.9999850054043975
 20
134.7798160249545276
 30
0.0
 40
34.0
100
AcDbArc
 50
289.4712206344906917
 51
250.5287793655093083
  0
CIRCLE
  5
D6
100
AcDbEntity
100
AcDbCircle
  8
Layer 5
 62
256
370
-1
  6
ByLayer
 10
107.5
 20
192.5
 30
0.0
 40
2.4300000000000002
  0
CIRCLE
  5
D7
100
AcDbEntity
100
AcDbCircle
  8
Layer 5
 62
256
370
-1
  6
ByLayer
 10
107.4999999999999716
 20
150.0
 30
0.0
 40
2.4300000000000002
  0
CIRCLE
  5
D8
100
AcDbEntity
100
AcDbCircle
  8
Layer 5
 62
256
370
-1
  6
ByLayer
 10
107.4999999999999432
 20
107.4999999999999858
 30
0.0
 40
2.4300000000000002
  0
CIRCLE
  5
D9
100
AcDbEntity
100
AcDbCircle
  8
Layer 5
 62
256
370
-1
  6
ByLayer
 10
192.5
 20
107.4999999999999716
 30
0.0
 40
2.4300000000000002
  0
CIRCLE
  5
DA
100
AcDbEntity
100
AcDbCircle
  8
Layer 5
 62
256
370
-1
  6
ByLayer
 10
192.5
 20
149.9999999999999432
 30
0.0
 40
2.4300000000000002
  0
CIRCLE
  5
DB
100
AcDbEntity
100
AcDbCircle
  8
Layer 5
 62
256
370
-1
  6
ByLayer
 10
192.5
 20
192.5
 30
0.0
 40
2.4300000000000002
  0
ARC
  5
DC
100
AcDbEntity
  8
Layer 6
 62
256
370
-1
  6
ByLayer
100
AcDbCircle
 10
298.0
 20
198.0
 30
0.0
 40
2.0
100
AcDbArc
 50
0.0
 51
90.0
  0
LINE
  5
DD
100
AcDbEntity
100
AcDbLine
  8
Layer 6
 62
256
370
-1
  6
ByLayer
 10
298.0
 20
200.0
 30
0.0
 11
202.0
 21
200.0
 31
0.0
  0
ARC
  5
DE
100
AcDbEntity
  8
Layer 6
 62
256
370
-1
  6
ByLayer
100
AcDbCircle
 10
202.0
 20
198.0
 30
0.0
 40
2.0
100
AcDbArc
 50
90.0
 51
180.0
  0
ARC
  5
DF
100
AcDbEntity
  8
Layer 6
 62
256
370
-1
  6
ByLayer
100
AcDbCircle
 10
202.0
 20
102.0
 30
0.0
 40
2.0
100
AcDbArc
 50
180.0
 51
270.0
  0
LINE
  5
E0
100
AcDbEntity
100
AcDbLine
  8
Layer 6
 62
256
370
-1
  6
ByLayer
 10
300.0
 20
102.0
 30
0.0
 11
300.0
 21
198.0
 31
0.0
  0
ARC
  5
E1
100
AcDbEntity
  8
Layer 6
 62
256
370
-1
  6
ByLayer
100
AcDbCircle
 10
298.0
 20
102.0
 30
0.0
 40
2.0
100
AcDbArc
 50
270.0
 51
0.0
  0
MTEXT
  5
E2
100
AcDbEntity
100
AcDbMText
  8
Layer 6 Text
 62
256
370
-1
  6
ByLayer
 10
210.0
 20
183.0
 30
0.0
 40
3.0
 41
100.0
 71
1
 72
2
  1
Layer\~6
  7
standard
 50
0.0
 73
0
 44
1.0
  0
CIRCLE
  5
E3
100
AcDbEntity
100
AcDbCircle
  8
Layer 6
 62
256
370
-1
  6
ByLayer
 10
269.4999850054044828
 20
191.4731265266271976
 30
0.0
 40
1.4299999999999999
  0
CIRCLE
  5
E4
100
AcDbEntity
100
AcDbCircle
  8
Layer 6
 62
256
370
-1
  6
ByLayer
 10
269.4999850054044259
 20
173.8731265266271464
 30
0.0
 40
1.4299999999999999
  0
ARC
  5
E5
100
AcDbEntity
  8
Layer 6
 62
256
370
-1
  6
ByLayer
100
AcDbCircle
 10
237.9999850054043975
 20
100.8386905280002424
 30
0.0
 40
2.0
100
AcDbArc
 50
0.0
 51
70.528779365509422
  0
LINE
  5
E6
100
AcDbEntity
100
AcDbLine
  8
Layer 6
 62
256
370
-1
  6
ByLayer
 10
259.9999850054043691
 20
100.0
 30
0.0
 11
259.9999850054043691
 21
100.8386905280002424
 31
0.0
  0
ARC
  5
E7
100
AcDbEntity
  8
Layer 6
 62
256
370
-1
  6
ByLayer
100
AcDbCircle
 10
249.9999850054043975
 20
134.7798160249545276
 30
0.0
 40
34.0
100
AcDbArc
 50
289.4712206344906917
 51
250.5287793655092514
  0
ARC
  5
E8
100
AcDbEntity
  8
Layer 6
 62
256
370
-1
  6
ByLayer
100
AcDbCircle
 10
261.9999850054043691
 20
100.8386905280002424
 30
0.0
 40
2.0
100
AcDbArc
 50
109.4712206344910044
 51
180.0
  0
LINE
  5
E9
100
AcDbEntity
100
AcDbLine
  8
Layer 6
 62
256
370
-1
  6
ByLayer
 10
239.9999850054043975
 20
100.0
 30
0.0
 11
239.9999850054043975
 21
100.8386905280002424
 31
0.0
  0
LINE
  5
EA
100
AcDbEntity
100
AcDbLine
  8
Layer 6
 62
256
370
-1
  6
ByLayer
 10
202.0
 20
100.0
 30
0.0
 11
239.9999850054043975
 21
100.0
 31
0.0
  0
LINE
  5
EB
100
AcDbEntity
100
AcDbLine
  8
Layer 6
 62
256
370
-1
  6
ByLayer
 10
259.9999850054043691
 20
100.0
 30
0.0
 11
298.0
 21
100.0
 31
0.0
  0
CIRCLE
  5
EC
100
AcDbEntity
100
AcDbCircle
  8
Layer 6
 62
256
370
-1
  6
ByLayer
 10
207.5
 20
192.5
 30
0.0
 40
2.4300000000000002
  0
CIRCLE
  5
ED
100
AcDbEntity
100
AcDbCircle
  8
Layer 6
 62
256
370
-1
  6
ByLayer
 10
207.5
 20
150.0
 30
0.0
 40
2.4300000000000002
  0
CIRCLE
  5
EE
100
AcDbEntity
100
AcDbCircle
  8
Layer 6
 62
256
370
-1
  6
ByLayer
 10
207.5
 20
107.5
 30
0.0
 40
2.4300000000000002
  0
CIRCLE
  5
EF
100
AcDbEntity
100
AcDbCircle
  8
Layer 6
 62
256
370
-1
  6
ByLayer
 10
292.5
 20
107.5
 30
0.0
 40
2.4300000000000002
  0
CIRCLE
  5
F0
100
AcDbEntity
100
AcDbCircle
  8
Layer 6
 62
256
370
-1
  6
ByLayer
 10
292.5
 20
150.0
 30
0.0
 40
2.4300000000000002
  0
CIRCLE
  5
F1
100
AcDbEntity
100
AcDbCircle
  8
Layer 6
 62
256
370
-1
  6
ByLayer
 10
292.5
 20
192.5
 30
0.0
 40
2.4300000000000002
  0
CIRCLE
  5
F2
100
AcDbEntity
100
AcDbCircle
  8
Layer 8
 62
256
370
-1
  6
ByLayer
 10
149.9999850054043975
 20
34.7798160249545276
 30
0.0
 40
11.0
  0
ARC
  5
F3
100
AcDbEntity
  8
Layer 8
 62
256
370
-1
  6
ByLayer
100
AcDbCircle
 10
198.0
 20
98.0
 30
0.0
 40
2.0
100
AcDbArc
 50
0.0
 51
90.0
  0
LINE
  5
F4
100
AcDbEntity
100
AcDbLine
  8
Layer 8
 62
256
370
-1
  6
ByLayer
 10
200.0
 20
2.0
 30
0.0
 11
200.0
 21
98.0
 31
0.0
  0
ARC
  5
F5
100
AcDbEntity
  8
Layer 8
 62
256
370
-1
  6
ByLayer
100
AcDbCircle
 10
198.0
 20
2.0
 30
0.0
 40
2.0
100
AcDbArc
 50
270.0
 51
0.0
  0
LINE
  5
F6
100
AcDbEntity
100
AcDbLine
  8
Layer 8
 62
256
370
-1
  6
ByLayer
 10
102.0
 20
0.0
 30
0.0
 11
198.0
 21
0.0
 31
0.0
  0
ARC
  5
F7
100
AcDbEntity
  8
Layer 8
 62
256
370
-1
  6
ByLayer
100
AcDbCircle
 10
102.0
 20
2.0
 30
0.0
 40
2.0
100
AcDbArc
 50
180.0
 51
270.0
  0
LINE
  5
F8
100
AcDbEntity
100
AcDbLine
  8
Layer 8
 62
256
370
-1
  6
ByLayer
 10
100.0
 20
98.0
 30
0.0
 11
100.0
 21
2.0
 31
0.0
  0
LINE
  5
F9
100
AcDbEntity
100
AcDbLine
  8
Layer 8
 62
256
370
-1
  6
ByLayer
 10
198.0
 20
100.0
 30
0.0
 11
102.0
 21
100.0
 31
0.0
  0
ARC
  5
FA
100
AcDbEntity
  8
Layer 8
 62
256
370
-1
  6
ByLayer
100
AcDbCircle
 10
102.0
 20
98.0
 30
0.0
 40
2.0
100
AcDbArc
 50
90.0
 51
180.0
  0
MTEXT
  5
FB
100
AcDbEntity
100
AcDbMText
  8
Layer 8 Text
 62
256
370
-1
  6
ByLayer
 10
110.0
 20
83.0
 30
0.0
 40
3.0
 41
100.0
 71
1
 72
2
  1
Layer\~8
  7
standard
 50
0.0
 73
0
 44
1.0
  0
CIRCLE
  5
FC
100
AcDbEntity
100
AcDbCircle
  8
Layer 8
 62
256
370
-1
  6
ByLayer
 10
107.5
 20
92.5
 30
0.0
 40
2.4300000000000002
  0
CIRCLE
  5
FD
100
AcDbEntity
100
AcDbCircle
  8
Layer 8
 62
256
370
-1
  6
ByLayer
 10
107.5
 20
50.0
 30
0.0
 40
2.4300000000000002
  0
CIRCLE
  5
FE
100
AcDbEntity
100
AcDbCircle
  8
Layer 8
 62
256
370
-1
  6
ByLayer
 10
107.5
 20
7.5
 30
0.0
 40
2.4300000000000002
  0
CIRCLE
  5
FF
100
AcDbEntity
100
AcDbCircle
  8
Layer 8
 62
256
370
-1
  6
ByLayer
 10
192.5
 20
7.5
 30
0.0
 40
2.4300000000000002
  0
CIRCLE
  5
100
100
AcDbEntity
100
AcDbCircle
  8
Layer 8
 62
256
370
-1
  6
ByLayer
 10
192.5
 20
50.0
 30
0.0
 40
2.4300000000000002
  0
CIRCLE
  5
101
100
AcDbEntity
100
AcDbCircle
  8
Layer 8
 62
256
370
-1
  6
ByLayer
 10
192.5
 20
92.5
 30
0.0
 40
2.4300000000000002
  0
LINE
  5
102
100
AcDbEntity
100
AcDbLine
  8
Motor Gear
 62
256
370
-1
  6
ByLayer
 10
64.6194256063309354
 20
135.957085784037929
 30
0.0
 11
64.9867851611464005
 21
135.9866167673471296
 31
0.0
  0
LINE
  5
103
100
AcDbEntity
100
AcDbLine
  8
Motor Gear
 62
256
370
-1
  6
ByLayer
 10
64.9867851611464005
 20
135.9866167673471296
 30
0.0
 11
65.9659235658242835
 21
135.8261848563640228
 31
0.0
  0
LINE
  5
104
100
AcDbEntity
100
AcDbLine
  8
Motor Gear
 62
256
370
-1
  6
ByLayer
 10
65.9659235658242835
 20
135.8261848563640228
 30
0.0
 11
67.3268734733729275
 21
135.2567139842479378
 31
0.0
  0
LINE
  5
105
100
AcDbEntity
100
AcDbLine
  8
Motor Gear
 62
256
370
-1
  6
ByLayer
 10
67.3268734733729275
 20
135.2567139842479378
 30
0.0
 11
67.3268734733729275
 21
134.3029180656611743
 31
0.0
  0
LINE
  5
106
100
AcDbEntity
100
AcDbLine
  8
Motor Gear
 62
256
370
-1
  6
ByLayer
 10
67.3268734733729275
 20
134.3029180656611743
 30
0.0
 11
65.9659235658242835
 21
133.7334471935450324
 31
0.0
  0
LINE
  5
107
100
AcDbEntity
100
AcDbLine
  8
Motor Gear
 62
256
370
-1
  6
ByLayer
 10
65.9659235658242835
 20
133.7334471935450324
 30
0.0
 11
64.9867851611464005
 21
133.5730152825619257
 31
0.0
  0
LINE
  5
108
100
AcDbEntity
100
AcDbLine
  8
Motor Gear
 62
256
370
-1
  6
ByLayer
 10
64.9867851611464005
 20
133.5730152825619257
 30
0.0
 11
64.6194256063309354
 21
133.6025462658711831
 31
0.0
  0
LINE
  5
109
100
AcDbEntity
100
AcDbLine
  8
Motor Gear
 62
256
370
-1
  6
ByLayer
 10
64.6194256063309354
 20
133.6025462658711831
 30
0.0
 11
64.4261105784571555
 21
132.1331058202641771
 31
0.0
  0
LINE
  5
10A
100
AcDbEntity
100
AcDbLine
  8
Motor Gear
 62
256
370
-1
  6
ByLayer
 10
64.4261105784571555
 20
132.1331058202641771
 30
0.0
 11
64.7884445303029963
 21
132.0667124992841082
 31
0.0
  0
LINE
  5
10B
100
AcDbEntity
100
AcDbLine
  8
Motor Gear
 62
256
370
-1
  6
ByLayer
 10
64.7884445303029963
 20
132.0667124992841082
 30
0.0
 11
65.6926026010118846
 21
131.6583021095798358
 31
0.0
  0
LINE
  5
10C
100
AcDbEntity
100
AcDbLine
  8
Motor Gear
 62
256
370
-1
  6
ByLayer
 10
65.6926026010118846
 20
131.6583021095798358
 30
0.0
 11
66.8600289463638831
 21
130.7560290110420169
 31
0.0
  0
LINE
  5
10D
100
AcDbEntity
100
AcDbLine
  8
Motor Gear
 62
256
370
-1
  6
ByLayer
 10
66.8600289463638831
 20
130.7560290110420169
 30
0.0
 11
66.6130975919471666
 21
129.8344868958022289
 31
0.0
  0
LINE
  5
10E
100
AcDbEntity
100
AcDbLine
  8
Motor Gear
 62
256
370
-1
  6
ByLayer
 10
66.6130975919471666
 20
129.8344868958022289
 30
0.0
 11
65.1509877585867514
 21
129.6367740942725391
 31
0.0
  0
LINE
  5
10F
100
AcDbEntity
100
AcDbLine
  8
Motor Gear
 62
256
370
-1
  6
ByLayer
 10
65.1509877585867514
 20
129.6367740942725391
 30
0.0
 11
64.1636808937956573
 21
129.7352119421616408
 31
0.0
  0
LINE
  5
110
100
AcDbEntity
100
AcDbLine
  8
Motor Gear
 62
256
370
-1
  6
ByLayer
 10
64.1636808937956573
 20
129.7352119421616408
 30
0.0
 11
63.8166367378717041
 21
129.8587822575889277
 31
0.0
  0
LINE
  5
111
100
AcDbEntity
100
AcDbLine
  8
Motor Gear
 62
256
370
-1
  6
ByLayer
 10
63.8166367378717041
 20
129.8587822575889277
 30
0.0
 11
63.2494693908024601
 21
128.4896638899271011
 31
0.0
  0
LINE
  5
112
100
AcDbEntity
100
AcDbLine
  8
Motor Gear
 62
256
370
-1
  6
ByLayer
 10
63.2494693908024601
 20
128.4896638899271011
 30
0.0
 11
63.5822716172241087
 21
128.3315355039909207
 31
0.0
  0
LINE
  5
113
100
AcDbEntity
100
AcDbLine
  8
Motor Gear
 62
256
370
-1
  6
ByLayer
 10
63.5822716172241087
 20
128.3315355039909207
 30
0.0
 11
64.3500838622986464
 21
127.7032119416942493
 31
0.0
  0
LINE
  5
114
100
AcDbEntity
100
AcDbLine
  8
Motor Gear
 62
256
370
-1
  6
ByLayer
 10
64.3500838622986464
 20
127.7032119416942493
 30
0.0
 11
65.2439792242853116
 21
126.5295021084001945
 31
0.0
  0
LINE
  5
115
100
AcDbEntity
100
AcDbLine
  8
Motor Gear
 62
256
370
-1
  6
ByLayer
 10
65.2439792242853116
 20
126.5295021084001945
 30
0.0
 11
64.7670812649919583
 21
125.7032564681359474
 31
0.0
  0
LINE
  5
116
100
AcDbEntity
100
AcDbLine
  8
Motor Gear
 62
256
370
-1
  6
ByLayer
 10
64.7670812649919583
 20
125.7032564681359474
 30
0.0
 11
63.3037150308891796
 21
125.8907058188284083
 31
0.0
  0
LINE
  5
117
100
AcDbEntity
100
AcDbLine
  8
Motor Gear
 62
256
370
-1
  6
ByLayer
 10
63.3037150308891796
 20
125.8907058188284083
 30
0.0
 11
62.3754708748315068
 21
126.2413106426567282
 31
0.0
  0
LINE
  5
118
100
AcDbEntity
100
AcDbLine
  8
Motor Gear
 62
256
370
-1
  6
ByLayer
 10
62.3754708748315068
 20
126.2413106426567282
 30
0.0
 11
62.0721996317190872
 21
126.4505425536510188
 31
0.0
  0
LINE
  5
119
100
AcDbEntity
100
AcDbLine
  8
Motor Gear
 62
256
370
-1
  6
ByLayer
 10
62.0721996317190872
 20
126.4505425536510188
 30
0.0
 11
61.1699265331813251
 21
125.2747392138629863
 31
0.0
  0
LINE
  5
11A
100
AcDbEntity
100
AcDbLine
  8
Motor Gear
 62
256
370
-1
  6
ByLayer
 10
61.1699265331813251
 20
125.2747392138629863
 30
0.0
 11
61.4505773681252947
 21
125.0359763195594667
 31
0.0
  0
LINE
  5
11B
100
AcDbEntity
100
AcDbLine
  8
Motor Gear
 62
256
370
-1
  6
ByLayer
 10
61.4505773681252947
 20
125.0359763195594667
 30
0.0
 11
62.0294738432120312
 21
124.2302553546246173
 31
0.0
  0
LINE
  5
11C
100
AcDbEntity
100
AcDbLine
  8
Motor Gear
 62
256
370
-1
  6
ByLayer
 10
62.0294738432120312
 20
124.2302553546246173
 30
0.0
 11
62.5893105780346843
 21
122.8651162077429291
 31
0.0
  0
LINE
  5
11D
100
AcDbEntity
100
AcDbLine
  8
Motor Gear
 62
256
370
-1
  6
ByLayer
 10
62.5893105780346843
 20
122.8651162077429291
 30
0.0
 11
61.9146998172116128
 21
122.1905054469198575
 31
0.0
  0
LINE
  5
11E
100
AcDbEntity
100
AcDbLine
  8
Motor Gear
 62
256
370
-1
  6
ByLayer
 10
61.9146998172116128
 20
122.1905054469198575
 30
0.0
 11
60.5495606703299245
 21
122.750342181742468
 31
0.0
  0
LINE
  5
11F
100
AcDbEntity
100
AcDbLine
  8
Motor Gear
 62
256
370
-1
  6
ByLayer
 10
60.5495606703299245
 20
122.750342181742468
 30
0.0
 11
59.7438397053950894
 21
123.3292386568292756
 31
0.0
  0
LINE
  5
120
100
AcDbEntity
100
AcDbLine
  8
Motor Gear
 62
256
370
-1
  6
ByLayer
 10
59.7438397053950894
 20
123.3292386568292756
 30
0.0
 11
59.5050768110915271
 21
123.6098894917732167
 31
0.0
  0
LINE
  5
121
100
AcDbEntity
100
AcDbLine
  8
Motor Gear
 62
256
370
-1
  6
ByLayer
 10
59.5050768110915271
 20
123.6098894917732167
 30
0.0
 11
58.3292734713034804
 21
122.7076163932354262
 31
0.0
  0
LINE
  5
122
100
AcDbEntity
100
AcDbLine
  8
Motor Gear
 62
256
370
-1
  6
ByLayer
 10
58.3292734713034804
 20
122.7076163932354262
 30
0.0
 11
58.5385053822977852
 21
122.4043451501230066
 31
0.0
  0
LINE
  5
123
100
AcDbEntity
100
AcDbLine
  8
Motor Gear
 62
256
370
-1
  6
ByLayer
 10
58.5385053822977852
 20
122.4043451501230066
 30
0.0
 11
58.8891102061261051
 21
121.4761009940653622
 31
0.0
  0
LINE
  5
124
100
AcDbEntity
100
AcDbLine
  8
Motor Gear
 62
256
370
-1
  6
ByLayer
 10
58.8891102061261051
 20
121.4761009940653622
 30
0.0
 11
59.0765595568185802
 21
120.0127347599625551
 31
0.0
  0
LINE
  5
125
100
AcDbEntity
100
AcDbLine
  8
Motor Gear
 62
256
370
-1
  6
ByLayer
 10
59.0765595568185802
 20
120.0127347599625551
 30
0.0
 11
58.2503139165543189
 21
119.5358368006691734
 31
0.0
  0
LINE
  5
126
100
AcDbEntity
100
AcDbLine
  8
Motor Gear
 62
256
370
-1
  6
ByLayer
 10
58.2503139165543189
 20
119.5358368006691734
 30
0.0
 11
57.0766040832602641
 21
120.4297321626558528
 31
0.0
  0
LINE
  5
127
100
AcDbEntity
100
AcDbLine
  8
Motor Gear
 62
256
370
-1
  6
ByLayer
 10
57.0766040832602641
 20
120.4297321626558528
 30
0.0
 11
56.4482805209636069
 21
121.1975444077304047
 31
0.0
  0
LINE
  5
128
100
AcDbEntity
100
AcDbLine
  8
Motor Gear
 62
256
370
-1
  6
ByLayer
 10
56.4482805209636069
 20
121.1975444077304047
 30
0.0
 11
56.2901521350274265
 21
121.5303466341520533
 31
0.0
  0
LINE
  5
129
100
AcDbEntity
100
AcDbLine
  8
Motor Gear
 62
256
370
-1
  6
ByLayer
 10
56.2901521350274265
 20
121.5303466341520533
 30
0.0
 11
54.9210337673655999
 21
120.9631792870828519
 31
0.0
  0
LINE
  5
12A
100
AcDbEntity
100
AcDbLine
  8
Motor Gear
 62
256
370
-1
  6
ByLayer
 10
54.9210337673655999
 20
120.9631792870828519
 30
0.0
 11
55.0446040827928869
 21
120.6161351311588561
 31
0.0
  0
LINE
  5
12B
100
AcDbEntity
100
AcDbLine
  8
Motor Gear
 62
256
370
-1
  6
ByLayer
 10
55.0446040827928869
 20
120.6161351311588561
 30
0.0
 11
55.1430419306819601
 21
119.628828266367762
 31
0.0
  0
LINE
  5
12C
100
AcDbEntity
100
AcDbLine
  8
Motor Gear
 62
256
370
-1
  6
ByLayer
 10
55.1430419306819601
 20
119.628828266367762
 30
0.0
 11
54.9453291291522419
 21
118.1667184330073752
 31
0.0
  0
LINE
  5
12D
100
AcDbEntity
100
AcDbLine
  8
Motor Gear
 62
256
370
-1
  6
ByLayer
 10
54.9453291291522419
 20
118.1667184330073752
 30
0.0
 11
54.0237870139124823
 21
117.9197870785906446
 31
0.0
  0
LINE
  5
12E
100
AcDbEntity
100
AcDbLine
  8
Motor Gear
 62
256
370
-1
  6
ByLayer
 10
54.0237870139124823
 20
117.9197870785906446
 30
0.0
 11
53.1215139153746918
 21
119.087213423942643
 31
0.0
  0
LINE
  5
12F
100
AcDbEntity
100
AcDbLine
  8
Motor Gear
 62
256
370
-1
  6
ByLayer
 10
53.1215139153746918
 20
119.087213423942643
 30
0.0
 11
52.713103525670391
 21
119.9913714946515171
 31
0.0
  0
LINE
  5
130
100
AcDbEntity
100
AcDbLine
  8
Motor Gear
 62
256
370
-1
  6
ByLayer
 10
52.713103525670391
 20
119.9913714946515171
 30
0.0
 11
52.646710204690379
 21
120.3537054464973721
 31
0.0
  0
LINE
  5
131
100
AcDbEntity
100
AcDbLine
  8
Motor Gear
 62
256
370
-1
  6
ByLayer
 10
52.646710204690379
 20
120.3537054464973721
 30
0.0
 11
51.1772697590834014
 21
120.1603904186236065
 31
0.0
  0
LINE
  5
132
100
AcDbEntity
100
AcDbLine
  8
Motor Gear
 62
256
370
-1
  6
ByLayer
 10
51.1772697590834014
 20
120.1603904186236065
 30
0.0
 11
51.2068007423925735
 21
119.7930308638081414
 31
0.0
  0
LINE
  5
133
100
AcDbEntity
100
AcDbLine
  8
Motor Gear
 62
256
370
-1
  6
ByLayer
 10
51.2068007423925735
 20
119.7930308638081414
 30
0.0
 11
51.0463688314094952
 21
118.8138924591302583
 31
0.0
  0
LINE
  5
134
100
AcDbEntity
100
AcDbLine
  8
Motor Gear
 62
256
370
-1
  6
ByLayer
 10
51.0463688314094952
 20
118.8138924591302583
 30
0.0
 11
50.4768979592933533
 21
117.4529425515816001
 31
0.0
  0
LINE
  5
135
100
AcDbEntity
100
AcDbLine
  8
Motor Gear
 62
256
370
-1
  6
ByLayer
 10
50.4768979592933533
 20
117.4529425515816001
 30
0.0
 11
49.5231020407066467
 21
117.4529425515816001
 31
0.0
  0
LINE
  5
136
100
AcDbEntity
100
AcDbLine
  8
Motor Gear
 62
256
370
-1
  6
ByLayer
 10
49.5231020407066467
 20
117.4529425515816001
 30
0.0
 11
48.9536311685905048
 21
118.8138924591302583
 31
0.0
  0
LINE
  5
137
100
AcDbEntity
100
AcDbLine
  8
Motor Gear
 62
256
370
-1
  6
ByLayer
 10
48.9536311685905048
 20
118.8138924591302583
 30
0.0
 11
48.7931992576074265
 21
119.7930308638081414
 31
0.0
  0
LINE
  5
138
100
AcDbEntity
100
AcDbLine
  8
Motor Gear
 62
256
370
-1
  6
ByLayer
 10
48.7931992576074265
 20
119.7930308638081414
 30
0.0
 11
48.8227302409165986
 21
120.1603904186236065
 31
0.0
  0
LINE
  5
139
100
AcDbEntity
100
AcDbLine
  8
Motor Gear
 62
256
370
-1
  6
ByLayer
 10
48.8227302409165986
 20
120.1603904186236065
 30
0.0
 11
47.353289795309621
 21
120.3537054464973721
 31
0.0
  0
LINE
  5
13A
100
AcDbEntity
100
AcDbLine
  8
Motor Gear
 62
256
370
-1
  6
ByLayer
 10
47.353289795309621
 20
120.3537054464973721
 30
0.0
 11
47.286896474329609
 21
119.9913714946515171
 31
0.0
  0
LINE
  5
13B
100
AcDbEntity
100
AcDbLine
  8
Motor Gear
 62
256
370
-1
  6
ByLayer
 10
47.286896474329609
 20
119.9913714946515171
 30
0.0
 11
46.8784860846252798
 21
119.087213423942643
 31
0.0
  0
LINE
  5
13C
100
AcDbEntity
100
AcDbLine
  8
Motor Gear
 62
256
370
-1
  6
ByLayer
 10
46.8784860846252798
 20
119.087213423942643
 30
0.0
 11
45.9762129860875177
 21
117.9197870785906588
 31
0.0
  0
LINE
  5
13D
100
AcDbEntity
100
AcDbLine
  8
Motor Gear
 62
256
370
-1
  6
ByLayer
 10
45.9762129860875177
 20
117.9197870785906588
 30
0.0
 11
45.0546708708477297
 21
118.1667184330073752
 31
0.0
  0
LINE
  5
13E
100
AcDbEntity
100
AcDbLine
  8
Motor Gear
 62
256
370
-1
  6
ByLayer
 10
45.0546708708477297
 20
118.1667184330073752
 30
0.0
 11
44.8569580693180114
 21
119.628828266367762
 31
0.0
  0
LINE
  5
13F
100
AcDbEntity
100
AcDbLine
  8
Motor Gear
 62
256
370
-1
  6
ByLayer
 10
44.8569580693180114
 20
119.628828266367762
 30
0.0
 11
44.9553959172070847
 21
120.6161351311588703
 31
0.0
  0
LINE
  5
140
100
AcDbEntity
100
AcDbLine
  8
Motor Gear
 62
256
370
-1
  6
ByLayer
 10
44.9553959172070847
 20
120.6161351311588703
 30
0.0
 11
45.0789662326343716
 21
120.9631792870828519
 31
0.0
  0
LINE
  5
141
100
AcDbEntity
100
AcDbLine
  8
Motor Gear
 62
256
370
-1
  6
ByLayer
 10
45.0789662326343716
 20
120.9631792870828519
 30
0.0
 11
43.7098478649725735
 21
121.5303466341520533
 31
0.0
  0
LINE
  5
142
100
AcDbEntity
100
AcDbLine
  8
Motor Gear
 62
256
370
-1
  6
ByLayer
 10
43.7098478649725735
 20
121.5303466341520533
 30
0.0
 11
43.5517194790363931
 21
121.1975444077304047
 31
0.0
  0
LINE
  5
143
100
AcDbEntity
100
AcDbLine
  8
Motor Gear
 62
256
370
-1
  6
ByLayer
 10
43.5517194790363931
 20
121.1975444077304047
 30
0.0
 11
42.9233959167397074
 21
120.4297321626558528
 31
0.0
  0
LINE
  5
144
100
AcDbEntity
100
AcDbLine
  8
Motor Gear
 62
256
370
-1
  6
ByLayer
 10
42.9233959167397074
 20
120.4297321626558528
 30
0.0
 11
41.7496860834456527
 21
119.5358368006691734
 31
0.0
  0
LINE
  5
145
100
AcDbEntity
100
AcDbLine
  8
Motor Gear
 62
256
370
-1
  6
ByLayer
 10
41.7496860834456527
 20
119.5358368006691734
 30
0.0
 11
40.9234404431814198
 21
120.0127347599625551
 31
0.0
  0
LINE
  5
146
100
AcDbEntity
100
AcDbLine
  8
Motor Gear
 62
256
370
-1
  6
ByLayer
 10
40.9234404431814198
 20
120.0127347599625551
 30
0.0
 11
41.1108897938738664
 21
121.4761009940653622
 31
0.0
  0
LINE
  5
147
100
AcDbEntity
100
AcDbLine
  8
Motor Gear
 62
256
370
-1
  6
ByLayer
 10
41.1108897938738664
 20
121.4761009940653622
 30
0.0
 11
41.4614946177021864
 21
122.4043451501230066
 31
0.0
  0
LINE
  5
148
100
AcDbEntity
100
AcDbLine
  8
Motor Gear
 62
256
370
-1
  6
ByLayer
 10
41.4614946177021864
 20
122.4043451501230066
 30
0.0
 11
41.6707265286965196
 21
122.7076163932354262
 31
0.0
  0
LINE
  5
149
100
AcDbEntity
100
AcDbLine
  8
Motor Gear
 62
256
370
-1
  6
ByLayer
 10
41.6707265286965196
 20
122.7076163932354262
 30
0.0
 11
40.4949231889084444
 21
123.6098894917732167
 31
0.0
  0
LINE
  5
14A
100
AcDbEntity
100
AcDbLine
  8
Motor Gear
 62
256
370
-1
  6
ByLayer
 10
40.4949231889084444
 20
123.6098894917732167
 30
0.0
 11
40.2561602946049106
 21
123.3292386568292756
 31
0.0
  0
LINE
  5
14B
100
AcDbEntity
100
AcDbLine
  8
Motor Gear
 62
256
370
-1
  6
ByLayer
 10
40.2561602946049106
 20
123.3292386568292756
 30
0.0
 11
39.4504393296700755
 21
122.7503421817424822
 31
0.0
  0
LINE
  5
14C
100
AcDbEntity
100
AcDbLine
  8
Motor Gear
 62
256
370
-1
  6
ByLayer
 10
39.4504393296700755
 20
122.7503421817424822
 30
0.0
 11
38.0853001827883872
 21
122.1905054469198575
 31
0.0
  0
LINE
  5
14D
100
AcDbEntity
100
AcDbLine
  8
Motor Gear
 62
256
370
-1
  6
ByLayer
 10
38.0853001827883872
 20
122.1905054469198575
 30
0.0
 11
37.4106894219652872
 21
122.8651162077429291
 31
0.0
  0
LINE
  5
14E
100
AcDbEntity
100
AcDbLine
  8
Motor Gear
 62
256
370
-1
  6
ByLayer
 10
37.4106894219652872
 20
122.8651162077429291
 30
0.0
 11
37.9705261567879404
 21
124.2302553546246173
 31
0.0
  0
LINE
  5
14F
100
AcDbEntity
100
AcDbLine
  8
Motor Gear
 62
256
370
-1
  6
ByLayer
 10
37.9705261567879404
 20
124.2302553546246173
 30
0.0
 11
38.5494226318747053
 21
125.0359763195594809
 31
0.0
  0
LINE
  5
150
100
AcDbEntity
100
AcDbLine
  8
Motor Gear
 62
256
370
-1
  6
ByLayer
 10
38.5494226318747053
 20
125.0359763195594809
 30
0.0
 11
38.8300734668186749
 21
125.2747392138629863
 31
0.0
  0
LINE
  5
151
100
AcDbEntity
100
AcDbLine
  8
Motor Gear
 62
256
370
-1
  6
ByLayer
 10
38.8300734668186749
 20
125.2747392138629863
 30
0.0
 11
37.9278003682809128
 21
126.450542553651033
 31
0.0
  0
LINE
  5
152
100
AcDbEntity
100
AcDbLine
  8
Motor Gear
 62
256
370
-1
  6
ByLayer
 10
37.9278003682809128
 20
126.450542553651033
 30
0.0
 11
37.6245291251684648
 21
126.2413106426567566
 31
0.0
  0
LINE
  5
153
100
AcDbEntity
100
AcDbLine
  8
Motor Gear
 62
256
370
-1
  6
ByLayer
 10
37.6245291251684648
 20
126.2413106426567566
 30
0.0
 11
36.6962849691108204
 21
125.8907058188284225
 31
0.0
  0
LINE
  5
154
100
AcDbEntity
100
AcDbLine
  8
Motor Gear
 62
256
370
-1
  6
ByLayer
 10
36.6962849691108204
 20
125.8907058188284225
 30
0.0
 11
35.2329187350080133
 21
125.7032564681359617
 31
0.0
  0
LINE
  5
155
100
AcDbEntity
100
AcDbLine
  8
Motor Gear
 62
256
370
-1
  6
ByLayer
 10
35.2329187350080133
 20
125.7032564681359617
 30
0.0
 11
34.75602077571466
 21
126.5295021084001945
 31
0.0
  0
LINE
  5
156
100
AcDbEntity
100
AcDbLine
  8
Motor Gear
 62
256
370
-1
  6
ByLayer
 10
34.75602077571466
 20
126.5295021084001945
 30
0.0
 11
35.6499161377013252
 21
127.7032119416942493
 31
0.0
  0
LINE
  5
157
100
AcDbEntity
100
AcDbLine
  8
Motor Gear
 62
256
370
-1
  6
ByLayer
 10
35.6499161377013252
 20
127.7032119416942493
 30
0.0
 11
36.4177283827758913
 21
128.3315355039909207
 31
0.0
  0
LINE
  5
158
100
AcDbEntity
100
AcDbLine
  8
Motor Gear
 62
256
370
-1
  6
ByLayer
 10
36.4177283827758913
 20
128.3315355039909207
 30
0.0
 11
36.7505306091975399
 21
128.4896638899271011
 31
0.0
  0
LINE
  5
159
100
AcDbEntity
100
AcDbLine
  8
Motor Gear
 62
256
370
-1
  6
ByLayer
 10
36.7505306091975399
 20
128.4896638899271011
 30
0.0
 11
36.1833632621282959
 21
129.8587822575889277
 31
0.0
  0
LINE
  5
15A
100
AcDbEntity
100
AcDbLine
  8
Motor Gear
 62
256
370
-1
  6
ByLayer
 10
36.1833632621282959
 20
129.8587822575889277
 30
0.0
 11
35.8363191062043143
 21
129.7352119421616408
 31
0.0
  0
LINE
  5
15B
100
AcDbEntity
100
AcDbLine
  8
Motor Gear
 62
256
370
-1
  6
ByLayer
 10
35.8363191062043143
 20
129.7352119421616408
 30
0.0
 11
34.8490122414132202
 21
129.6367740942725391
 31
0.0
  0
LINE
  5
15C
100
AcDbEntity
100
AcDbLine
  8
Motor Gear
 62
256
370
-1
  6
ByLayer
 10
34.8490122414132202
 20
129.6367740942725391
 30
0.0
 11
33.3869024080528334
 21
129.8344868958022289
 31
0.0
  0
LINE
  5
15D
100
AcDbEntity
100
AcDbLine
  8
Motor Gear
 62
256
370
-1
  6
ByLayer
 10
33.3869024080528334
 20
129.8344868958022289
 30
0.0
 11
33.1399710536361169
 21
130.7560290110420738
 31
0.0
  0
LINE
  5
15E
100
AcDbEntity
100
AcDbLine
  8
Motor Gear
 62
256
370
-1
  6
ByLayer
 10
33.1399710536361169
 20
130.7560290110420738
 30
0.0
 11
34.3073973989881154
 21
131.6583021095798358
 31
0.0
  0
LINE
  5
15F
100
AcDbEntity
100
AcDbLine
  8
Motor Gear
 62
256
370
-1
  6
ByLayer
 10
34.3073973989881154
 20
131.6583021095798358
 30
0.0
 11
35.2115554696970037
 21
132.0667124992841082
 31
0.0
  0
LINE
  5
160
100
AcDbEntity
100
AcDbLine
  8
Motor Gear
 62
256
370
-1
  6
ByLayer
 10
35.2115554696970037
 20
132.0667124992841082
 30
0.0
 11
35.5738894215428445
 21
132.1331058202641771
 31
0.0
  0
LINE
  5
161
100
AcDbEntity
100
AcDbLine
  8
Motor Gear
 62
256
370
-1
  6
ByLayer
 10
35.5738894215428445
 20
132.1331058202641771
 30
0.0
 11
35.3805743936690646
 21
133.6025462658711831
 31
0.0
  0
LINE
  5
162
100
AcDbEntity
100
AcDbLine
  8
Motor Gear
 62
256
370
-1
  6
ByLayer
 10
35.3805743936690646
 20
133.6025462658711831
 30
0.0
 11
35.0132148388535995
 21
133.5730152825619257
 31
0.0
  0
LINE
  5
163
100
AcDbEntity
100
AcDbLine
  8
Motor Gear
 62
256
370
-1
  6
ByLayer
 10
35.0132148388535995
 20
133.5730152825619257
 30
0.0
 11
34.0340764341756881
 21
133.7334471935450324
 31
0.0
  0
LINE
  5
164
100
AcDbEntity
100
AcDbLine
  8
Motor Gear
 62
256
370
-1
  6
ByLayer
 10
34.0340764341756881
 20
133.7334471935450324
 30
0.0
 11
32.6731265266270725
 21
134.3029180656611743
 31
0.0
  0
LINE
  5
165
100
AcDbEntity
100
AcDbLine
  8
Motor Gear
 62
256
370
-1
  6
ByLayer
 10
32.6731265266270725
 20
134.3029180656611743
 30
0.0
 11
32.6731265266270725
 21
135.2567139842479378
 31
0.0
  0
LINE
  5
166
100
AcDbEntity
100
AcDbLine
  8
Motor Gear
 62
256
370
-1
  6
ByLayer
 10
32.6731265266270725
 20
135.2567139842479378
 30
0.0
 11
34.0340764341756881
 21
135.8261848563640228
 31
0.0
  0
LINE
  5
167
100
AcDbEntity
100
AcDbLine
  8
Motor Gear
 62
256
370
-1
  6
ByLayer
 10
34.0340764341756881
 20
135.8261848563640228
 30
0.0
 11
35.0132148388535995
 21
135.9866167673471296
 31
0.0
  0
LINE
  5
168
100
AcDbEntity
100
AcDbLine
  8
Motor Gear
 62
256
370
-1
  6
ByLayer
 10
35.0132148388535995
 20
135.9866167673471296
 30
0.0
 11
35.3805743936690646
 21
135.957085784037929
 31
0.0
  0
LINE
  5
169
100
AcDbEntity
100
AcDbLine
  8
Motor Gear
 62
256
370
-1
  6
ByLayer
 10
35.3805743936690646
 20
135.957085784037929
 30
0.0
 11
35.5738894215428445
 21
137.426526229644935
 31
0.0
  0
LINE
  5
16A
100
AcDbEntity
100
AcDbLine
  8
Motor Gear
 62
256
370
-1
  6
ByLayer
 10
35.5738894215428445
 20
137.426526229644935
 30
0.0
 11
35.2115554696970037
 21
137.4929195506249471
 31
0.0
  0
LINE
  5
16B
100
AcDbEntity
100
AcDbLine
  8
Motor Gear
 62
256
370
-1
  6
ByLayer
 10
35.2115554696970037
 20
137.4929195506249471
 30
0.0
 11
34.3073973989881154
 21
137.9013299403292194
 31
0.0
  0
LINE
  5
16C
100
AcDbEntity
100
AcDbLine
  8
Motor Gear
 62
256
370
-1
  6
ByLayer
 10
34.3073973989881154
 20
137.9013299403292194
 30
0.0
 11
33.1399710536361169
 21
138.8036030388669815
 31
0.0
  0
LINE
  5
16D
100
AcDbEntity
100
AcDbLine
  8
Motor Gear
 62
256
370
-1
  6
ByLayer
 10
33.1399710536361169
 20
138.8036030388669815
 30
0.0
 11
33.3869024080528334
 21
139.7251451541068263
 31
0.0
  0
LINE
  5
16E
100
AcDbEntity
100
AcDbLine
  8
Motor Gear
 62
256
370
-1
  6
ByLayer
 10
33.3869024080528334
 20
139.7251451541068263
 30
0.0
 11
34.8490122414132202
 21
139.9228579556365162
 31
0.0
  0
LINE
  5
16F
100
AcDbEntity
100
AcDbLine
  8
Motor Gear
 62
256
370
-1
  6
ByLayer
 10
34.8490122414132202
 20
139.9228579556365162
 30
0.0
 11
35.8363191062043143
 21
139.8244201077474145
 31
0.0
  0
LINE
  5
170
100
AcDbEntity
100
AcDbLine
  8
Motor Gear
 62
256
370
-1
  6
ByLayer
 10
35.8363191062043143
 20
139.8244201077474145
 30
0.0
 11
36.1833632621282959
 21
139.700849792320156
 31
0.0
  0
LINE
  5
171
100
AcDbEntity
100
AcDbLine
  8
Motor Gear
 62
256
370
-1
  6
ByLayer
 10
36.1833632621282959
 20
139.700849792320156
 30
0.0
 11
36.7505306091975399
 21
141.0699681599819542
 31
0.0
  0
LINE
  5
172
100
AcDbEntity
100
AcDbLine
  8
Motor Gear
 62
256
370
-1
  6
ByLayer
 10
36.7505306091975399
 20
141.0699681599819542
 30
0.0
 11
36.4177283827758913
 21
141.228096545918163
 31
0.0
  0
LINE
  5
173
100
AcDbEntity
100
AcDbLine
  8
Motor Gear
 62
256
370
-1
  6
ByLayer
 10
36.4177283827758913
 20
141.228096545918163
 30
0.0
 11
35.6499161377013252
 21
141.8564201082148202
 31
0.0
  0
LINE
  5
174
100
AcDbEntity
100
AcDbLine
  8
Motor Gear
 62
256
370
-1
  6
ByLayer
 10
35.6499161377013252
 20
141.8564201082148202
 30
0.0
 11
34.75602077571466
 21
143.0301299415089034
 31
0.0
  0
LINE
  5
175
100
AcDbEntity
100
AcDbLine
  8
Motor Gear
 62
256
370
-1
  6
ByLayer
 10
34.75602077571466
 20
143.0301299415089034
 30
0.0
 11
35.2329187350080133
 21
143.8563755817731362
 31
0.0
  0
LINE
  5
176
100
AcDbEntity
100
AcDbLine
  8
Motor Gear
 62
256
370
-1
  6
ByLayer
 10
35.2329187350080133
 20
143.8563755817731362
 30
0.0
 11
36.6962849691108204
 21
143.6689262310806612
 31
0.0
  0
LINE
  5
177
100
AcDbEntity
100
AcDbLine
  8
Motor Gear
 62
256
370
-1
  6
ByLayer
 10
36.6962849691108204
 20
143.6689262310806612
 30
0.0
 11
37.6245291251684648
 21
143.3183214072523128
 31
0.0
  0
LINE
  5
178
100
AcDbEntity
100
AcDbLine
  8
Motor Gear
 62
256
370
-1
  6
ByLayer
 10
37.6245291251684648
 20
143.3183214072523128
 30
0.0
 11
37.9278003682809128
 21
143.1090894962580364
 31
0.0
  0
LINE
  5
179
100
AcDbEntity
100
AcDbLine
  8
Motor Gear
 62
256
370
-1
  6
ByLayer
 10
37.9278003682809128
 20
143.1090894962580364
 30
0.0
 11
38.8300734668186749
 21
144.2848928360460832
 31
0.0
  0
LINE
  5
17A
100
AcDbEntity
100
AcDbLine
  8
Motor Gear
 62
256
370
-1
  6
ByLayer
 10
38.8300734668186749
 20
144.2848928360460832
 30
0.0
 11
38.5494226318747053
 21
144.523655730349617
 31
0.0
  0
LINE
  5
17B
100
AcDbEntity
100
AcDbLine
  8
Motor Gear
 62
256
370
-1
  6
ByLayer
 10
38.5494226318747053
 20
144.523655730349617
 30
0.0
 11
37.9705261567879688
 21
145.3293766952844521
 31
0.0
  0
LINE
  5
17C
100
AcDbEntity
100
AcDbLine
  8
Motor Gear
 62
256
370
-1
  6
ByLayer
 10
37.9705261567879688
 20
145.3293766952844521
 30
0.0
 11
37.4106894219652872
 21
146.6945158421661404
 31
0.0
  0
LINE
  5
17D
100
AcDbEntity
100
AcDbLine
  8
Motor Gear
 62
256
370
-1
  6
ByLayer
 10
37.4106894219652872
 20
146.6945158421661404
 30
0.0
 11
38.0853001827883872
 21
147.3691266029891835
 31
0.0
  0
LINE
  5
17E
100
AcDbEntity
100
AcDbLine
  8
Motor Gear
 62
256
370
-1
  6
ByLayer
 10
38.0853001827883872
 20
147.3691266029891835
 30
0.0
 11
39.4504393296700755
 21
146.8092898681666156
 31
0.0
  0
LINE
  5
17F
100
AcDbEntity
100
AcDbLine
  8
Motor Gear
 62
256
370
-1
  6
ByLayer
 10
39.4504393296700755
 20
146.8092898681666156
 30
0.0
 11
40.2561602946049391
 21
146.2303933930797939
 31
0.0
  0
LINE
  5
180
100
AcDbEntity
100
AcDbLine
  8
Motor Gear
 62
256
370
-1
  6
ByLayer
 10
40.2561602946049391
 20
146.2303933930797939
 30
0.0
 11
40.4949231889084444
 21
145.9497425581358243
 31
0.0
  0
LINE
  5
181
100
AcDbEntity
100
AcDbLine
  8
Motor Gear
 62
256
370
-1
  6
ByLayer
 10
40.4949231889084444
 20
145.9497425581358243
 30
0.0
 11
41.6707265286965196
 21
146.8520156566736432
 31
0.0
  0
LINE
  5
182
100
AcDbEntity
100
AcDbLine
  8
Motor Gear
 62
256
370
-1
  6
ByLayer
 10
41.6707265286965196
 20
146.8520156566736432
 30
0.0
 11
41.4614946177021864
 21
147.1552868997860628
 31
0.0
  0
LINE
  5
183
100
AcDbEntity
100
AcDbLine
  8
Motor Gear
 62
256
370
-1
  6
ByLayer
 10
41.4614946177021864
 20
147.1552868997860628
 30
0.0
 11
41.1108897938738664
 21
148.0835310558437072
 31
0.0
  0
LINE
  5
184
100
AcDbEntity
100
AcDbLine
  8
Motor Gear
 62
256
370
-1
  6
ByLayer
 10
41.1108897938738664
 20
148.0835310558437072
 30
0.0
 11
40.9234404431814198
 21
149.5468972899465143
 31
0.0
  0
LINE
  5
185
100
AcDbEntity
100
AcDbLine
  8
Motor Gear
 62
256
370
-1
  6
ByLayer
 10
40.9234404431814198
 20
149.5468972899465143
 30
0.0
 11
41.7496860834456527
 21
150.0237952492398676
 31
0.0
  0
LINE
  5
186
100
AcDbEntity
100
AcDbLine
  8
Motor Gear
 62
256
370
-1
  6
ByLayer
 10
41.7496860834456527
 20
150.0237952492398676
 30
0.0
 11
42.9233959167397359
 21
149.1298998872532025
 31
0.0
  0
LINE
  5
187
100
AcDbEntity
100
AcDbLine
  8
Motor Gear
 62
256
370
-1
  6
ByLayer
 10
42.9233959167397359
 20
149.1298998872532025
 30
0.0
 11
43.5517194790363931
 21
148.3620876421786647
 31
0.0
  0
LINE
  5
188
100
AcDbEntity
100
AcDbLine
  8
Motor Gear
 62
256
370
-1
  6
ByLayer
 10
43.5517194790363931
 20
148.3620876421786647
 30
0.0
 11
43.7098478649725735
 21
148.0292854157569877
 31
0.0
  0
LINE
  5
189
100
AcDbEntity
100
AcDbLine
  8
Motor Gear
 62
256
370
-1
  6
ByLayer
 10
43.7098478649725735
 20
148.0292854157569877
 30
0.0
 11
45.0789662326344001
 21
148.5964527628262317
 31
0.0
  0
LINE
  5
18A
100
AcDbEntity
100
AcDbLine
  8
Motor Gear
 62
256
370
-1
  6
ByLayer
 10
45.0789662326344001
 20
148.5964527628262317
 30
0.0
 11
44.9553959172070847
 21
148.9434969187502134
 31
0.0
  0
LINE
  5
18B
100
AcDbEntity
100
AcDbLine
  8
Motor Gear
 62
256
370
-1
  6
ByLayer
 10
44.9553959172070847
 20
148.9434969187502134
 30
0.0
 11
44.8569580693180114
 21
149.9308037835413074
 31
0.0
  0
LINE
  5
18C
100
AcDbEntity
100
AcDbLine
  8
Motor Gear
 62
256
370
-1
  6
ByLayer
 10
44.8569580693180114
 20
149.9308037835413074
 30
0.0
 11
45.0546708708477297
 21
151.3929136169016942
 31
0.0
  0
LINE
  5
18D
100
AcDbEntity
100
AcDbLine
  8
Motor Gear
 62
256
370
-1
  6
ByLayer
 10
45.0546708708477297
 20
151.3929136169016942
 30
0.0
 11
45.9762129860875177
 21
151.6398449713184391
 31
0.0
  0
LINE
  5
18E
100
AcDbEntity
100
AcDbLine
  8
Motor Gear
 62
256
370
-1
  6
ByLayer
 10
45.9762129860875177
 20
151.6398449713184391
 30
0.0
 11
46.8784860846252798
 21
150.4724186259664407
 31
0.0
  0
LINE
  5
18F
100
AcDbEntity
100
AcDbLine
  8
Motor Gear
 62
256
370
-1
  6
ByLayer
 10
46.8784860846252798
 20
150.4724186259664407
 30
0.0
 11
47.2868964743295805
 21
149.5682605552575524
 31
0.0
  0
LINE
  5
190
100
AcDbEntity
100
AcDbLine
  8
Motor Gear
 62
256
370
-1
  6
ByLayer
 10
47.2868964743295805
 20
149.5682605552575524
 30
0.0
 11
47.353289795309621
 21
149.2059266034116831
 31
0.0
  0
LINE
  5
191
100
AcDbEntity
100
AcDbLine
  8
Motor Gear
 62
256
370
-1
  6
ByLayer
 10
47.353289795309621
 20
149.2059266034116831
 30
0.0
 11
48.8227302409165986
 21
149.399241631285463
 31
0.0
  0
LINE
  5
192
100
AcDbEntity
100
AcDbLine
  8
Motor Gear
 62
256
370
-1
  6
ByLayer
 10
48.8227302409165986
 20
149.399241631285463
 30
0.0
 11
48.7931992576074265
 21
149.7666011861008997
 31
0.0
  0
LINE
  5
193
100
AcDbEntity
100
AcDbLine
  8
Motor Gear
 62
256
370
-1
  6
ByLayer
 10
48.7931992576074265
 20
149.7666011861008997
 30
0.0
 11
48.9536311685905048
 21
150.7457395907787827
 31
0.0
  0
LINE
  5
194
100
AcDbEntity
100
AcDbLine
  8
Motor Gear
 62
256
370
-1
  6
ByLayer
 10
48.9536311685905048
 20
150.7457395907787827
 30
0.0
 11
49.5231020407066467
 21
152.1066894983274551
 31
0.0
  0
LINE
  5
195
100
AcDbEntity
100
AcDbLine
  8
Motor Gear
 62
256
370
-1
  6
ByLayer
 10
49.5231020407066467
 20
152.1066894983274551
 30
0.0
 11
50.4768979592933533
 21
152.1066894983274551
 31
0.0
  0
LINE
  5
196
100
AcDbEntity
100
AcDbLine
  8
Motor Gear
 62
256
370
-1
  6
ByLayer
 10
50.4768979592933533
 20
152.1066894983274551
 30
0.0
 11
51.0463688314094952
 21
150.7457395907787827
 31
0.0
  0
LINE
  5
197
100
AcDbEntity
100
AcDbLine
  8
Motor Gear
 62
256
370
-1
  6
ByLayer
 10
51.0463688314094952
 20
150.7457395907787827
 30
0.0
 11
51.2068007423925735
 21
149.7666011861008997
 31
0.0
  0
LINE
  5
198
100
AcDbEntity
100
AcDbLine
  8
Motor Gear
 62
256
370
-1
  6
ByLayer
 10
51.2068007423925735
 20
149.7666011861008997
 30
0.0
 11
51.1772697590833729
 21
149.399241631285463
 31
0.0
  0
LINE
  5
199
100
AcDbEntity
100
AcDbLine
  8
Motor Gear
 62
256
370
-1
  6
ByLayer
 10
51.1772697590833729
 20
149.399241631285463
 30
0.0
 11
52.646710204690379
 21
149.2059266034116831
 31
0.0
  0
LINE
  5
19A
100
AcDbEntity
100
AcDbLine
  8
Motor Gear
 62
256
370
-1
  6
ByLayer
 10
52.646710204690379
 20
149.2059266034116831
 30
0.0
 11
52.713103525670391
 21
149.5682605552575524
 31
0.0
  0
LINE
  5
19B
100
AcDbEntity
100
AcDbLine
  8
Motor Gear
 62
256
370
-1
  6
ByLayer
 10
52.713103525670391
 20
149.5682605552575524
 30
0.0
 11
53.1215139153747202
 21
150.4724186259664407
 31
0.0
  0
LINE
  5
19C
100
AcDbEntity
100
AcDbLine
  8
Motor Gear
 62
256
370
-1
  6
ByLayer
 10
53.1215139153747202
 20
150.4724186259664407
 30
0.0
 11
54.0237870139124823
 21
151.6398449713184391
 31
0.0
  0
LINE
  5
19D
100
AcDbEntity
100
AcDbLine
  8
Motor Gear
 62
256
370
-1
  6
ByLayer
 10
54.0237870139124823
 20
151.6398449713184391
 30
0.0
 11
54.9453291291522419
 21
151.3929136169016942
 31
0.0
  0
LINE
  5
19E
100
AcDbEntity
100
AcDbLine
  8
Motor Gear
 62
256
370
-1
  6
ByLayer
 10
54.9453291291522419
 20
151.3929136169016942
 30
0.0
 11
55.1430419306819601
 21
149.9308037835413074
 31
0.0
  0
LINE
  5
19F
100
AcDbEntity
100
AcDbLine
  8
Motor Gear
 62
256
370
-1
  6
ByLayer
 10
55.1430419306819601
 20
149.9308037835413074
 30
0.0
 11
55.0446040827929153
 21
148.9434969187502134
 31
0.0
  0
LINE
  5
1A0
100
AcDbEntity
100
AcDbLine
  8
Motor Gear
 62
256
370
-1
  6
ByLayer
 10
55.0446040827929153
 20
148.9434969187502134
 30
0.0
 11
54.9210337673655999
 21
148.5964527628262317
 31
0.0
  0
LINE
  5
1A1
100
AcDbEntity
100
AcDbLine
  8
Motor Gear
 62
256
370
-1
  6
ByLayer
 10
54.9210337673655999
 20
148.5964527628262317
 30
0.0
 11
56.2901521350274265
 21
148.0292854157569877
 31
0.0
  0
LINE
  5
1A2
100
AcDbEntity
100
AcDbLine
  8
Motor Gear
 62
256
370
-1
  6
ByLayer
 10
56.2901521350274265
 20
148.0292854157569877
 30
0.0
 11
56.4482805209636069
 21
148.3620876421786647
 31
0.0
  0
LINE
  5
1A3
100
AcDbEntity
100
AcDbLine
  8
Motor Gear
 62
256
370
-1
  6
ByLayer
 10
56.4482805209636069
 20
148.3620876421786647
 30
0.0
 11
57.0766040832602926
 21
149.1298998872532025
 31
0.0
  0
LINE
  5
1A4
100
AcDbEntity
100
AcDbLine
  8
Motor Gear
 62
256
370
-1
  6
ByLayer
 10
57.0766040832602926
 20
149.1298998872532025
 30
0.0
 11
58.2503139165543473
 21
150.0237952492398676
 31
0.0
  0
LINE
  5
1A5
100
AcDbEntity
100
AcDbLine
  8
Motor Gear
 62
256
370
-1
  6
ByLayer
 10
58.2503139165543473
 20
150.0237952492398676
 30
0.0
 11
59.0765595568185802
 21
149.5468972899465143
 31
0.0
  0
LINE
  5
1A6
100
AcDbEntity
100
AcDbLine
  8
Motor Gear
 62
256
370
-1
  6
ByLayer
 10
59.0765595568185802
 20
149.5468972899465143
 30
0.0
 11
58.8891102061261051
 21
148.0835310558437072
 31
0.0
  0
LINE
  5
1A7
100
AcDbEntity
100
AcDbLine
  8
Motor Gear
 62
256
370
-1
  6
ByLayer
 10
58.8891102061261051
 20
148.0835310558437072
 30
0.0
 11
58.5385053822978136
 21
147.1552868997860628
 31
0.0
  0
LINE
  5
1A8
100
AcDbEntity
100
AcDbLine
  8
Motor Gear
 62
256
370
-1
  6
ByLayer
 10
58.5385053822978136
 20
147.1552868997860628
 30
0.0
 11
58.3292734713034804
 21
146.8520156566736432
 31
0.0
  0
LINE
  5
1A9
100
AcDbEntity
100
AcDbLine
  8
Motor Gear
 62
256
370
-1
  6
ByLayer
 10
58.3292734713034804
 20
146.8520156566736432
 30
0.0
 11
59.5050768110915271
 21
145.9497425581358243
 31
0.0
  0
LINE
  5
1AA
100
AcDbEntity
100
AcDbLine
  8
Motor Gear
 62
256
370
-1
  6
ByLayer
 10
59.5050768110915271
 20
145.9497425581358243
 30
0.0
 11
59.7438397053950609
 21
146.2303933930797939
 31
0.0
  0
LINE
  5
1AB
100
AcDbEntity
100
AcDbLine
  8
Motor Gear
 62
256
370
-1
  6
ByLayer
 10
59.7438397053950609
 20
146.2303933930797939
 30
0.0
 11
60.5495606703299245
 21
146.8092898681666156
 31
0.0
  0
LINE
  5
1AC
100
AcDbEntity
100
AcDbLine
  8
Motor Gear
 62
256
370
-1
  6
ByLayer
 10
60.5495606703299245
 20
146.8092898681666156
 30
0.0
 11
61.9146998172116128
 21
147.3691266029891835
 31
0.0
  0
LINE
  5
1AD
100
AcDbEntity
100
AcDbLine
  8
Motor Gear
 62
256
370
-1
  6
ByLayer
 10
61.9146998172116128
 20
147.3691266029891835
 30
0.0
 11
62.5893105780346843
 21
146.6945158421661404
 31
0.0
  0
LINE
  5
1AE
100
AcDbEntity
100
AcDbLine
  8
Motor Gear
 62
256
370
-1
  6
ByLayer
 10
62.5893105780346843
 20
146.6945158421661404
 30
0.0
 11
62.0294738432120596
 21
145.3293766952844521
 31
0.0
  0
LINE
  5
1AF
100
AcDbEntity
100
AcDbLine
  8
Motor Gear
 62
256
370
-1
  6
ByLayer
 10
62.0294738432120596
 20
145.3293766952844521
 30
0.0
 11
61.4505773681252947
 21
144.523655730349617
 31
0.0
  0
LINE
  5
1B0
100
AcDbEntity
100
AcDbLine
  8
Motor Gear
 62
256
370
-1
  6
ByLayer
 10
61.4505773681252947
 20
144.523655730349617
 30
0.0
 11
61.1699265331813251
 21
144.2848928360460832
 31
0.0
  0
LINE
  5
1B1
100
AcDbEntity
100
AcDbLine
  8
Motor Gear
 62
256
370
-1
  6
ByLayer
 10
61.1699265331813251
 20
144.2848928360460832
 30
0.0
 11
62.0721996317190872
 21
143.1090894962580364
 31
0.0
  0
LINE
  5
1B2
100
AcDbEntity
100
AcDbLine
  8
Motor Gear
 62
256
370
-1
  6
ByLayer
 10
62.0721996317190872
 20
143.1090894962580364
 30
0.0
 11
62.3754708748315068
 21
143.3183214072523128
 31
0.0
  0
LINE
  5
1B3
100
AcDbEntity
100
AcDbLine
  8
Motor Gear
 62
256
370
-1
  6
ByLayer
 10
62.3754708748315068
 20
143.3183214072523128
 30
0.0
 11
63.3037150308891796
 21
143.6689262310806612
 31
0.0
  0
LINE
  5
1B4
100
AcDbEntity
100
AcDbLine
  8
Motor Gear
 62
256
370
-1
  6
ByLayer
 10
63.3037150308891796
 20
143.6689262310806612
 30
0.0
 11
64.7670812649919583
 21
143.8563755817731362
 31
0.0
  0
LINE
  5
1B5
100
AcDbEntity
100
AcDbLine
  8
Motor Gear
 62
256
370
-1
  6
ByLayer
 10
64.7670812649919583
 20
143.8563755817731362
 30
0.0
 11
65.2439792242853116
 21
143.0301299415089034
 31
0.0
  0
LINE
  5
1B6
100
AcDbEntity
100
AcDbLine
  8
Motor Gear
 62
256
370
-1
  6
ByLayer
 10
65.2439792242853116
 20
143.0301299415089034
 30
0.0
 11
64.3500838622986464
 21
141.8564201082148202
 31
0.0
  0
LINE
  5
1B7
100
AcDbEntity
100
AcDbLine
  8
Motor Gear
 62
256
370
-1
  6
ByLayer
 10
64.3500838622986464
 20
141.8564201082148202
 30
0.0
 11
63.5822716172241087
 21
141.228096545918163
 31
0.0
  0
LINE
  5
1B8
100
AcDbEntity
100
AcDbLine
  8
Motor Gear
 62
256
370
-1
  6
ByLayer
 10
63.5822716172241087
 20
141.228096545918163
 30
0.0
 11
63.2494693908024601
 21
141.0699681599819542
 31
0.0
  0
LINE
  5
1B9
100
AcDbEntity
100
AcDbLine
  8
Motor Gear
 62
256
370
-1
  6
ByLayer
 10
63.2494693908024601
 20
141.0699681599819542
 30
0.0
 11
63.8166367378717041
 21
139.700849792320156
 31
0.0
  0
LINE
  5
1BA
100
AcDbEntity
100
AcDbLine
  8
Motor Gear
 62
256
370
-1
  6
ByLayer
 10
63.8166367378717041
 20
139.700849792320156
 30
0.0
 11
64.1636808937956573
 21
139.8244201077474145
 31
0.0
  0
LINE
  5
1BB
100
AcDbEntity
100
AcDbLine
  8
Motor Gear
 62
256
370
-1
  6
ByLayer
 10
64.1636808937956573
 20
139.8244201077474145
 30
0.0
 11
65.1509877585867514
 21
139.9228579556365162
 31
0.0
  0
LINE
  5
1BC
100
AcDbEntity
100
AcDbLine
  8
Motor Gear
 62
256
370
-1
  6
ByLayer
 10
65.1509877585867514
 20
139.9228579556365162
 30
0.0
 11
66.6130975919471666
 21
139.7251451541068263
 31
0.0
  0
LINE
  5
1BD
100
AcDbEntity
100
AcDbLine
  8
Motor Gear
 62
256
370
-1
  6
ByLayer
 10
66.6130975919471666
 20
139.7251451541068263
 30
0.0
 11
66.8600289463638831
 21
138.8036030388669815
 31
0.0
  0
LINE
  5
1BE
100
AcDbEntity
100
AcDbLine
  8
Motor Gear
 62
256
370
-1
  6
ByLayer
 10
66.8600289463638831
 20
138.8036030388669815
 30
0.0
 11
65.6926026010118846
 21
137.9013299403292194
 31
0.0
  0
LINE
  5
1BF
100
AcDbEntity
100
AcDbLine
  8
Motor Gear
 62
256
370
-1
  6
ByLayer
 10
65.6926026010118846
 20
137.9013299403292194
 30
0.0
 11
64.7884445303029963
 21
137.4929195506249471
 31
0.0
  0
LINE
  5
1C0
100
AcDbEntity
100
AcDbLine
  8
Motor Gear
 62
256
370
-1
  6
ByLayer
 10
64.7884445303029963
 20
137.4929195506249471
 30
0.0
 11
64.4261105784571555
 21
137.426526229644935
 31
0.0
  0
LINE
  5
1C1
100
AcDbEntity
100
AcDbLine
  8
Motor Gear
 62
256
370
-1
  6
ByLayer
 10
64.4261105784571555
 20
137.426526229644935
 30
0.0
 11
64.6194256063309354
 21
135.957085784037929
 31
0.0
  0
LINE
  5
1C2
100
AcDbEntity
100
AcDbLine
  8
Motor Gear
 62
256
370
-1
  6
ByLayer
 10
52.5405754879497522
 20
136.9248160249545094
 30
0.0
 11
47.459394522859057
 21
136.9248160249545094
 31
0.0
  0
ARC
  5
1C3
100
AcDbEntity
  8
Motor Gear
 62
256
370
-1
  6
ByLayer
100
AcDbCircle
 10
49.9999850054043975
 20
134.7798160249545276
 30
0.0
 40
3.3250000000000002
100
AcDbArc
 50
319.8258680010101784
 51
40.1741319989898216
  0
ARC
  5
1C4
100
AcDbEntity
  8
Motor Gear
 62
256
370
-1
  6
ByLayer
100
AcDbCircle
 10
49.9999850054043975
 20
134.7798160249545276
 30
0.0
 40
3.3250000000000002
100
AcDbArc
 50
139.8258680010101784
 51
220.1741319989898216
  0
LINE
  5
1C5
100
AcDbEntity
100
AcDbLine
  8
Motor Gear
 62
256
370
-1
  6
ByLayer
 10
52.5405754879497522
 20
132.6348160249545174
 30
0.0
 11
47.4593945228590428
 21
132.6348160249545174
 31
0.0
  0
MTEXT
  5
1C6
100
AcDbEntity
100
AcDbMText
  8
Motor Gear Text
 62
256
370
-1
  6
ByLayer
 10
50.0
 20
130.1066894983274551
 30
0.0
 40
3.0
 41
100.0
 71
5
 72
2
  1
Motor\~Gear
  7
standard
 50
0.0
 73
0
 44
1.0
  0
LINE
  5
1C7
100
AcDbEntity
100
AcDbLine
  8
Rotor Gear
 62
256
370
-1
  6
ByLayer
 10
280.6357974552600467
 20
51.1598366065812158
 30
0.0
 11
281.9831340047350636
 21
50.8268251037217169
 31
0.0
  0
LINE
  5
1C8
100
AcDbEntity
100
AcDbLine
  8
Rotor Gear
 62
256
370
-1
  6
ByLayer
 10
281.9831340047350636
 20
50.8268251037217169
 30
0.0
 11
283.3296327063434319
 21
50.2950536750279937
 31
0.0
  0
LINE
  5
1C9
100
AcDbEntity
100
AcDbLine
  8
Rotor Gear
 62
256
370
-1
  6
ByLayer
 10
283.3296327063434319
 20
50.2950536750279937
 30
0.0
 11
283.3296327063434319
 21
49.2646017267389809
 31
0.0
  0
LINE
  5
1CA
100
AcDbEntity
100
AcDbLine
  8
Rotor Gear
 62
256
370
-1
  6
ByLayer
 10
283.3296327063434319
 20
49.2646017267389809
 30
0.0
 11
281.9831340047350636
 21
48.7328302980452932
 31
0.0
  0
LINE
  5
1CB
100
AcDbEntity
100
AcDbLine
  8
Rotor Gear
 62
256
370
-1
  6
ByLayer
 10
281.9831340047350636
 20
48.7328302980452932
 30
0.0
 11
280.6357974552600467
 21
48.3998187951857872
 31
0.0
  0
LINE
  5
1CC
100
AcDbEntity
100
AcDbLine
  8
Rotor Gear
 62
256
370
-1
  6
ByLayer
 10
280.6357974552600467
 20
48.3998187951857872
 30
0.0
 11
280.5539058040352529
 21
47.1492443978665889
 31
0.0
  0
LINE
  5
1CD
100
AcDbEntity
100
AcDbLine
  8
Rotor Gear
 62
256
370
-1
  6
ByLayer
 10
280.5539058040352529
 20
47.1492443978665889
 30
0.0
 11
281.846159607672007
 21
46.6432340081398067
 31
0.0
  0
LINE
  5
1CE
100
AcDbEntity
100
AcDbLine
  8
Rotor Gear
 62
256
370
-1
  6
ByLayer
 10
281.846159607672007
 20
46.6432340081398067
 30
0.0
 11
283.1118130402451243
 21
45.940348664749969
 31
0.0
  0
LINE
  5
1CF
100
AcDbEntity
100
AcDbLine
  8
Rotor Gear
 62
256
370
-1
  6
ByLayer
 10
283.1118130402451243
 20
45.940348664749969
 30
0.0
 11
282.9771429103440141
 21
44.9184844715650442
 31
0.0
  0
LINE
  5
1D0
100
AcDbEntity
100
AcDbLine
  8
Rotor Gear
 62
256
370
-1
  6
ByLayer
 10
282.9771429103440141
 20
44.9184844715650442
 30
0.0
 11
281.5728386428596082
 21
44.5670417998701183
 31
0.0
  0
LINE
  5
1D1
100
AcDbEntity
100
AcDbLine
  8
Rotor Gear
 62
256
370
-1
  6
ByLayer
 10
281.5728386428596082
 20
44.5670417998701183
 30
0.0
 11
280.1936668429134443
 21
44.4126833582761122
 31
0.0
  0
LINE
  5
1D2
100
AcDbEntity
100
AcDbLine
  8
Rotor Gear
 62
256
370
-1
  6
ByLayer
 10
280.1936668429134443
 20
44.4126833582761122
 30
0.0
 11
279.9492490320965885
 21
43.1836815027059231
 31
0.0
  0
LINE
  5
1D3
100
AcDbEntity
100
AcDbLine
  8
Rotor Gear
 62
256
370
-1
  6
ByLayer
 10
279.9492490320965885
 20
43.1836815027059231
 30
0.0
 11
281.1642182346023446
 21
42.5132599812159242
 31
0.0
  0
LINE
  5
1D4
100
AcDbEntity
100
AcDbLine
  8
Rotor Gear
 62
256
370
-1
  6
ByLayer
 10
281.1642182346023446
 20
42.5132599812159242
 30
0.0
 11
282.3272460641834414
 21
41.6511991275853646
 31
0.0
  0
LINE
  5
1D5
100
AcDbEntity
100
AcDbLine
  8
Rotor Gear
 62
256
370
-1
  6
ByLayer
 10
282.3272460641834414
 20
41.6511991275853646
 30
0.0
 11
282.0606271401888989
 21
40.6557245447960938
 31
0.0
  0
LINE
  5
1D6
100
AcDbEntity
100
AcDbLine
  8
Rotor Gear
 62
256
370
-1
  6
ByLayer
 10
282.0606271401888989
 20
40.6557245447960938
 30
0.0
 11
280.622393373624277
 21
40.4906848416041711
 31
0.0
  0
LINE
  5
1D7
100
AcDbEntity
100
AcDbLine
  8
Rotor Gear
 62
256
370
-1
  6
ByLayer
 10
280.622393373624277
 20
40.4906848416041711
 30
0.0
 11
279.2348445792421217
 21
40.5177030234285454
 31
0.0
  0
LINE
  5
1D8
100
AcDbEntity
100
AcDbLine
  8
Rotor Gear
 62
256
370
-1
  6
ByLayer
 10
279.2348445792421217
 20
40.5177030234285454
 30
0.0
 11
278.8318790874982369
 21
39.3310084034895553
 31
0.0
  0
LINE
  5
1D9
100
AcDbEntity
100
AcDbLine
  8
Rotor Gear
 62
256
370
-1
  6
ByLayer
 10
278.8318790874982369
 20
39.3310084034895553
 30
0.0
 11
279.9492490320965885
 21
38.507694117585892
 31
0.0
  0
LINE
  5
1DA
100
AcDbEntity
100
AcDbLine
  8
Rotor Gear
 62
256
370
-1
  6
ByLayer
 10
279.9492490320965885
 20
38.507694117585892
 30
0.0
 11
280.9897536705548191
 21
37.5011189782078276
 31
0.0
  0
LINE
  5
1DB
100
AcDbEntity
100
AcDbLine
  8
Rotor Gear
 62
256
370
-1
  6
ByLayer
 10
280.9897536705548191
 20
37.5011189782078276
 30
0.0
 11
280.595375191799917
 21
36.5489987553543045
 31
0.0
  0
LINE
  5
1DC
100
AcDbEntity
100
AcDbLine
  8
Rotor Gear
 62
256
370
-1
  6
ByLayer
 10
280.595375191799917
 20
36.5489987553543045
 30
0.0
 11
279.147926582932655
 21
36.5730840985880761
 31
0.0
  0
LINE
  5
1DD
100
AcDbEntity
100
AcDbLine
  8
Rotor Gear
 62
256
370
-1
  6
ByLayer
 10
279.147926582932655
 20
36.5730840985880761
 30
0.0
 11
277.7756668423573387
 21
36.7808503324021174
 31
0.0
  0
LINE
  5
1DE
100
AcDbEntity
100
AcDbLine
  8
Rotor Gear
 62
256
370
-1
  6
ByLayer
 10
277.7756668423573387
 20
36.7808503324021174
 30
0.0
 11
277.2214850240480928
 21
35.6571976419767083
 31
0.0
  0
LINE
  5
1DF
100
AcDbEntity
100
AcDbLine
  8
Rotor Gear
 62
256
370
-1
  6
ByLayer
 10
277.2214850240480928
 20
35.6571976419767083
 30
0.0
 11
278.2217766754840795
 21
34.6950239868388621
 31
0.0
  0
LINE
  5
1E0
100
AcDbEntity
100
AcDbLine
  8
Rotor Gear
 62
256
370
-1
  6
ByLayer
 10
278.2217766754840795
 20
34.6950239868388621
 30
0.0
 11
279.1219555254127727
 21
33.561317864129137
 31
0.0
  0
LINE
  5
1E1
100
AcDbEntity
100
AcDbLine
  8
Rotor Gear
 62
256
370
-1
  6
ByLayer
 10
279.1219555254127727
 20
33.561317864129137
 30
0.0
 11
278.6067295512683586
 21
32.6686789028848779
 31
0.0
  0
LINE
  5
1E2
100
AcDbEntity
100
AcDbLine
  8
Rotor Gear
 62
256
370
-1
  6
ByLayer
 10
278.6067295512683586
 20
32.6686789028848779
 30
0.0
 11
277.1747792726458783
 21
32.8814707396685151
 31
0.0
  0
LINE
  5
1E3
100
AcDbEntity
100
AcDbLine
  8
Rotor Gear
 62
256
370
-1
  6
ByLayer
 10
277.1747792726458783
 20
32.8814707396685151
 30
0.0
 11
275.8412660997973944
 21
33.2666336340057001
 31
0.0
  0
LINE
  5
1E4
100
AcDbEntity
100
AcDbLine
  8
Rotor Gear
 62
256
370
-1
  6
ByLayer
 10
275.8412660997973944
 20
33.2666336340057001
 30
0.0
 11
275.145292815778248
 21
32.2248725948050421
 31
0.0
  0
LINE
  5
1E5
100
AcDbEntity
100
AcDbLine
  8
Rotor Gear
 62
256
370
-1
  6
ByLayer
 10
275.145292815778248
 20
32.2248725948050421
 30
0.0
 11
276.01133289018901
 21
31.1403850249823577
 31
0.0
  0
LINE
  5
1E6
100
AcDbEntity
100
AcDbLine
  8
Rotor Gear
 62
256
370
-1
  6
ByLayer
 10
276.01133289018901
 20
31.1403850249823577
 30
0.0
 11
276.7558968977814402
 21
29.8988169356429658
 31
0.0
  0
LINE
  5
1E7
100
AcDbEntity
100
AcDbLine
  8
Rotor Gear
 62
256
370
-1
  6
ByLayer
 10
276.7558968977814402
 20
29.8988169356429658
 30
0.0
 11
276.1284104412363263
 21
29.0811575662526884
 31
0.0
  0
LINE
  5
1E8
100
AcDbEntity
100
AcDbLine
  8
Rotor Gear
 62
256
370
-1
  6
ByLayer
 10
276.1284104412363263
 20
29.0811575662526884
 30
0.0
 11
274.7364631310831555
 21
29.4790959707969193
 31
0.0
  0
LINE
  5
1E9
100
AcDbEntity
100
AcDbLine
  8
Rotor Gear
 62
256
370
-1
  6
ByLayer
 10
274.7364631310831555
 20
29.4790959707969193
 30
0.0
 11
273.464944763443782
 21
30.0349534848394093
 31
0.0
  0
LINE
  5
1EA
100
AcDbEntity
100
AcDbLine
  8
Rotor Gear
 62
256
370
-1
  6
ByLayer
 10
273.464944763443782
 20
30.0349534848394093
 30
0.0
 11
272.6386983810645006
 21
29.0928866942702307
 31
0.0
  0
LINE
  5
1EB
100
AcDbEntity
100
AcDbLine
  8
Rotor Gear
 62
256
370
-1
  6
ByLayer
 10
272.6386983810645006
 20
29.0928866942702307
 30
0.0
 11
273.3558256539566855
 21
27.904725655035918
 31
0.0
  0
LINE
  5
1EC
100
AcDbEntity
100
AcDbLine
  8
Rotor Gear
 62
256
370
-1
  6
ByLayer
 10
273.3558256539566855
 20
27.904725655035918
 30
0.0
 11
273.9319985668906838
 21
26.5766581222629164
 31
0.0
  0
LINE
  5
1ED
100
AcDbEntity
100
AcDbLine
  8
Rotor Gear
 62
256
370
-1
  6
ByLayer
 10
273.9319985668906838
 20
26.5766581222629164
 30
0.0
 11
273.2031429080959697
 21
25.8478024634682093
 31
0.0
  0
LINE
  5
1EE
100
AcDbEntity
100
AcDbLine
  8
Rotor Gear
 62
256
370
-1
  6
ByLayer
 10
273.2031429080959697
 20
25.8478024634682093
 30
0.0
 11
271.8750753753230356
 21
26.4239753764022041
 31
0.0
  0
LINE
  5
1EF
100
AcDbEntity
100
AcDbLine
  8
Rotor Gear
 62
256
370
-1
  6
ByLayer
 10
271.8750753753230356
 20
26.4239753764022041
 30
0.0
 11
270.6869143360886483
 21
27.1411026492944458
 31
0.0
  0
LINE
  5
1F0
100
AcDbEntity
100
AcDbLine
  8
Rotor Gear
 62
256
370
-1
  6
ByLayer
 10
270.6869143360886483
 20
27.1411026492944458
 30
0.0
 11
269.7448475455195194
 21
26.3148562669151325
 31
0.0
  0
LINE
  5
1F1
100
AcDbEntity
100
AcDbLine
  8
Rotor Gear
 62
256
370
-1
  6
ByLayer
 10
269.7448475455195194
 20
26.3148562669151325
 30
0.0
 11
270.3007050595620058
 21
25.0433378992757518
 31
0.0
  0
LINE
  5
1F2
100
AcDbEntity
100
AcDbLine
  8
Rotor Gear
 62
256
370
-1
  6
ByLayer
 10
270.3007050595620058
 20
25.0433378992757518
 30
0.0
 11
270.698643464106226
 21
23.6513905891225775
 31
0.0
  0
LINE
  5
1F3
100
AcDbEntity
100
AcDbLine
  8
Rotor Gear
 62
256
370
-1
  6
ByLayer
 10
270.698643464106226
 20
23.6513905891225775
 30
0.0
 11
269.8809840947159273
 21
23.0239041325775275
 31
0.0
  0
LINE
  5
1F4
100
AcDbEntity
100
AcDbLine
  8
Rotor Gear
 62
256
370
-1
  6
ByLayer
 10
269.8809840947159273
 20
23.0239041325775275
 30
0.0
 11
268.6394160053765745
 21
23.7684681401699436
 31
0.0
  0
LINE
  5
1F5
100
AcDbEntity
100
AcDbLine
  8
Rotor Gear
 62
256
370
-1
  6
ByLayer
 10
268.6394160053765745
 20
23.7684681401699436
 30
0.0
 11
267.5549284355538475
 21
24.6345082145806309
 31
0.0
  0
LINE
  5
1F6
100
AcDbEntity
100
AcDbLine
  8
Rotor Gear
 62
256
370
-1
  6
ByLayer
 10
267.5549284355538475
 20
24.6345082145806309
 30
0.0
 11
266.5131673963531966
 21
23.9385349305615449
 31
0.0
  0
LINE
  5
1F7
100
AcDbEntity
100
AcDbLine
  8
Rotor Gear
 62
256
370
-1
  6
ByLayer
 10
266.5131673963531966
 20
23.9385349305615449
 30
0.0
 11
266.89833029069041
 21
22.6050217577131107
 31
0.0
  0
LINE
  5
1F8
100
AcDbEntity
100
AcDbLine
  8
Rotor Gear
 62
256
370
-1
  6
ByLayer
 10
266.89833029069041
 20
22.6050217577131107
 30
0.0
 11
267.1111221274740615
 21
21.1730714790906305
 31
0.0
  0
LINE
  5
1F9
100
AcDbEntity
100
AcDbLine
  8
Rotor Gear
 62
256
370
-1
  6
ByLayer
 10
267.1111221274740615
 20
21.1730714790906305
 30
0.0
 11
266.2184831662297597
 21
20.6578455049461276
 31
0.0
  0
LINE
  5
1FA
100
AcDbEntity
100
AcDbLine
  8
Rotor Gear
 62
256
370
-1
  6
ByLayer
 10
266.2184831662297597
 20
20.6578455049461276
 30
0.0
 11
265.0847770435200346
 21
21.5580243548748669
 31
0.0
  0
LINE
  5
1FB
100
AcDbEntity
100
AcDbLine
  8
Rotor Gear
 62
256
370
-1
  6
ByLayer
 10
265.0847770435200346
 20
21.5580243548748669
 30
0.0
 11
264.1226033883822311
 21
22.558316006310875
 31
0.0
  0
LINE
  5
1FC
100
AcDbEntity
100
AcDbLine
  8
Rotor Gear
 62
256
370
-1
  6
ByLayer
 10
264.1226033883822311
 20
22.558316006310875
 30
0.0
 11
262.9989506979568432
 21
22.004134188001597
 31
0.0
  0
LINE
  5
1FD
100
AcDbEntity
100
AcDbLine
  8
Rotor Gear
 62
256
370
-1
  6
ByLayer
 10
262.9989506979568432
 20
22.004134188001597
 30
0.0
 11
263.2067169317708704
 21
20.6318744474262559
 31
0.0
  0
LINE
  5
1FE
100
AcDbEntity
100
AcDbLine
  8
Rotor Gear
 62
256
370
-1
  6
ByLayer
 10
263.2067169317708704
 20
20.6318744474262559
 30
0.0
 11
263.230802275004578
 21
19.1844258385590045
 31
0.0
  0
LINE
  5
1FF
100
AcDbEntity
100
AcDbLine
  8
Rotor Gear
 62
256
370
-1
  6
ByLayer
 10
263.230802275004578
 20
19.1844258385590045
 30
0.0
 11
262.2786820521510549
 21
18.7900473598041096
 31
0.0
  0
LINE
  5
200
100
AcDbEntity
100
AcDbLine
  8
Rotor Gear
 62
256
370
-1
  6
ByLayer
 10
262.2786820521510549
 20
18.7900473598041096
 30
0.0
 11
261.2721069127729834
 21
19.8305519982623437
 31
0.0
  0
LINE
  5
201
100
AcDbEntity
100
AcDbLine
  8
Rotor Gear
 62
256
370
-1
  6
ByLayer
 10
261.2721069127729834
 20
19.8305519982623437
 30
0.0
 11
260.4487926268693627
 21
20.9479219428607024
 31
0.0
  0
LINE
  5
202
100
AcDbEntity
100
AcDbLine
  8
Rotor Gear
 62
256
370
-1
  6
ByLayer
 10
260.4487926268693627
 20
20.9479219428607024
 30
0.0
 11
259.2620980069303869
 21
20.5449564511168425
 31
0.0
  0
LINE
  5
203
100
AcDbEntity
100
AcDbLine
  8
Rotor Gear
 62
256
370
-1
  6
ByLayer
 10
259.2620980069303869
 20
20.5449564511168425
 30
0.0
 11
259.2891161887547469
 21
19.1574076567346161
 31
0.0
  0
LINE
  5
204
100
AcDbEntity
100
AcDbLine
  8
Rotor Gear
 62
256
370
-1
  6
ByLayer
 10
259.2891161887547469
 20
19.1574076567346161
 30
0.0
 11
259.1240764855627958
 21
17.7191738901700546
 31
0.0
  0
LINE
  5
205
100
AcDbEntity
100
AcDbLine
  8
Rotor Gear
 62
256
370
-1
  6
ByLayer
 10
259.1240764855627958
 20
17.7191738901700546
 30
0.0
 11
258.1286019027735392
 21
17.4525549661755193
 31
0.0
  0
LINE
  5
206
100
AcDbEntity
100
AcDbLine
  8
Rotor Gear
 62
256
370
-1
  6
ByLayer
 10
258.1286019027735392
 20
17.4525549661755193
 30
0.0
 11
257.2665410491430293
 21
18.6155827957565698
 31
0.0
  0
LINE
  5
207
100
AcDbEntity
100
AcDbLine
  8
Rotor Gear
 62
256
370
-1
  6
ByLayer
 10
257.2665410491430293
 20
18.6155827957565698
 30
0.0
 11
256.596119527653002
 21
19.8305519982623473
 31
0.0
  0
LINE
  5
208
100
AcDbEntity
100
AcDbLine
  8
Rotor Gear
 62
256
370
-1
  6
ByLayer
 10
256.596119527653002
 20
19.8305519982623473
 30
0.0
 11
255.3671176720827702
 21
19.586134187445488
 31
0.0
  0
LINE
  5
209
100
AcDbEntity
100
AcDbLine
  8
Rotor Gear
 62
256
370
-1
  6
ByLayer
 10
255.3671176720827702
 20
19.586134187445488
 30
0.0
 11
255.2127592304887855
 21
18.2069623874993169
 31
0.0
  0
LINE
  5
20A
100
AcDbEntity
100
AcDbLine
  8
Rotor Gear
 62
256
370
-1
  6
ByLayer
 10
255.2127592304887855
 20
18.2069623874993169
 30
0.0
 11
254.8613165587938738
 21
16.8026581200149181
 31
0.0
  0
LINE
  5
20B
100
AcDbEntity
100
AcDbLine
  8
Rotor Gear
 62
256
370
-1
  6
ByLayer
 10
254.8613165587938738
 20
16.8026581200149181
 30
0.0
 11
253.8394523656089348
 21
16.667987990113815
 31
0.0
  0
LINE
  5
20C
100
AcDbEntity
100
AcDbLine
  8
Rotor Gear
 62
256
370
-1
  6
ByLayer
 10
253.8394523656089348
 20
16.667987990113815
 30
0.0
 11
253.1365670222190829
 21
17.9336414226869181
 31
0.0
  0
LINE
  5
20D
100
AcDbEntity
100
AcDbLine
  8
Rotor Gear
 62
256
370
-1
  6
ByLayer
 10
253.1365670222190829
 20
17.9336414226869181
 30
0.0
 11
252.6305566324923291
 21
19.2258952263236509
 31
0.0
  0
LINE
  5
20E
100
AcDbEntity
100
AcDbLine
  8
Rotor Gear
 62
256
370
-1
  6
ByLayer
 10
252.6305566324923291
 20
19.2258952263236509
 30
0.0
 11
251.3799822351731166
 21
19.1440035750988891
 31
0.0
  0
LINE
  5
20F
100
AcDbEntity
100
AcDbLine
  8
Rotor Gear
 62
256
370
-1
  6
ByLayer
 10
251.3799822351731166
 20
19.1440035750988891
 30
0.0
 11
251.0469707323136106
 21
17.7966670256238757
 31
0.0
  0
LINE
  5
210
100
AcDbEntity
100
AcDbLine
  8
Rotor Gear
 62
256
370
-1
  6
ByLayer
 10
251.0469707323136106
 20
17.7966670256238757
 30
0.0
 11
250.5151993036198519
 21
16.4501683240154648
 31
0.0
  0
LINE
  5
211
100
AcDbEntity
100
AcDbLine
  8
Rotor Gear
 62
256
370
-1
  6
ByLayer
 10
250.5151993036198519
 20
16.4501683240154648
 30
0.0
 11
249.4847473553309385
 21
16.4501683240154648
 31
0.0
  0
LINE
  5
212
100
AcDbEntity
100
AcDbLine
  8
Rotor Gear
 62
256
370
-1
  6
ByLayer
 10
249.4847473553309385
 20
16.4501683240154648
 30
0.0
 11
248.9529759266371798
 21
17.7966670256238757
 31
0.0
  0
LINE
  5
213
100
AcDbEntity
100
AcDbLine
  8
Rotor Gear
 62
256
370
-1
  6
ByLayer
 10
248.9529759266371798
 20
17.7966670256238757
 30
0.0
 11
248.6199644237776738
 21
19.1440035750988926
 31
0.0
  0
LINE
  5
214
100
AcDbEntity
100
AcDbLine
  8
Rotor Gear
 62
256
370
-1
  6
ByLayer
 10
248.6199644237776738
 20
19.1440035750988926
 30
0.0
 11
247.3693900264584613
 21
19.2258952263236509
 31
0.0
  0
LINE
  5
215
100
AcDbEntity
100
AcDbLine
  8
Rotor Gear
 62
256
370
-1
  6
ByLayer
 10
247.3693900264584613
 20
19.2258952263236509
 30
0.0
 11
246.8633796367317359
 21
17.9336414226869181
 31
0.0
  0
LINE
  5
216
100
AcDbEntity
100
AcDbLine
  8
Rotor Gear
 62
256
370
-1
  6
ByLayer
 10
246.8633796367317359
 20
17.9336414226869181
 30
0.0
 11
246.160494293341884
 21
16.667987990113815
 31
0.0
  0
LINE
  5
217
100
AcDbEntity
100
AcDbLine
  8
Rotor Gear
 62
256
370
-1
  6
ByLayer
 10
246.160494293341884
 20
16.667987990113815
 30
0.0
 11
245.1386301001569166
 21
16.8026581200149181
 31
0.0
  0
LINE
  5
218
100
AcDbEntity
100
AcDbLine
  8
Rotor Gear
 62
256
370
-1
  6
ByLayer
 10
245.1386301001569166
 20
16.8026581200149181
 30
0.0
 11
244.7871874284620048
 21
18.2069623874993205
 31
0.0
  0
LINE
  5
219
100
AcDbEntity
100
AcDbLine
  8
Rotor Gear
 62
256
370
-1
  6
ByLayer
 10
244.7871874284620048
 20
18.2069623874993205
 30
0.0
 11
244.6328289868680486
 21
19.586134187445488
 31
0.0
  0
LINE
  5
21A
100
AcDbEntity
100
AcDbLine
  8
Rotor Gear
 62
256
370
-1
  6
ByLayer
 10
244.6328289868680486
 20
19.586134187445488
 30
0.0
 11
243.4038271312977884
 21
19.8305519982623544
 31
0.0
  0
LINE
  5
21B
100
AcDbEntity
100
AcDbLine
  8
Rotor Gear
 62
256
370
-1
  6
ByLayer
 10
243.4038271312977884
 20
19.8305519982623544
 30
0.0
 11
242.7334056098077895
 21
18.6155827957565698
 31
0.0
  0
LINE
  5
21C
100
AcDbEntity
100
AcDbLine
  8
Rotor Gear
 62
256
370
-1
  6
ByLayer
 10
242.7334056098077895
 20
18.6155827957565698
 30
0.0
 11
241.8713447561772512
 21
17.4525549661755193
 31
0.0
  0
LINE
  5
21D
100
AcDbEntity
100
AcDbLine
  8
Rotor Gear
 62
256
370
-1
  6
ByLayer
 10
241.8713447561772512
 20
17.4525549661755193
 30
0.0
 11
240.8758701733879946
 21
17.7191738901700546
 31
0.0
  0
LINE
  5
21E
100
AcDbEntity
100
AcDbLine
  8
Rotor Gear
 62
256
370
-1
  6
ByLayer
 10
240.8758701733879946
 20
17.7191738901700546
 30
0.0
 11
240.7108304701960151
 21
19.1574076567346196
 31
0.0
  0
LINE
  5
21F
100
AcDbEntity
100
AcDbLine
  8
Rotor Gear
 62
256
370
-1
  6
ByLayer
 10
240.7108304701960151
 20
19.1574076567346196
 30
0.0
 11
240.7378486520204603
 21
20.5449564511168425
 31
0.0
  0
LINE
  5
220
100
AcDbEntity
100
AcDbLine
  8
Rotor Gear
 62
256
370
-1
  6
ByLayer
 10
240.7378486520204603
 20
20.5449564511168425
 30
0.0
 11
239.5511540320814277
 21
20.9479219428607131
 31
0.0
  0
LINE
  5
221
100
AcDbEntity
100
AcDbLine
  8
Rotor Gear
 62
256
370
-1
  6
ByLayer
 10
239.5511540320814277
 20
20.9479219428607131
 30
0.0
 11
238.727839746177807
 21
19.8305519982623473
 31
0.0
  0
LINE
  5
222
100
AcDbEntity
100
AcDbLine
  8
Rotor Gear
 62
256
370
-1
  6
ByLayer
 10
238.727839746177807
 20
19.8305519982623473
 30
0.0
 11
237.7212646067997355
 21
18.7900473598041131
 31
0.0
  0
LINE
  5
223
100
AcDbEntity
100
AcDbLine
  8
Rotor Gear
 62
256
370
-1
  6
ByLayer
 10
237.7212646067997355
 20
18.7900473598041131
 30
0.0
 11
236.7691443839462409
 21
19.1844258385590081
 31
0.0
  0
LINE
  5
224
100
AcDbEntity
100
AcDbLine
  8
Rotor Gear
 62
256
370
-1
  6
ByLayer
 10
236.7691443839462409
 20
19.1844258385590081
 30
0.0
 11
236.7932297271799769
 21
20.6318744474262594
 31
0.0
  0
LINE
  5
225
100
AcDbEntity
100
AcDbLine
  8
Rotor Gear
 62
256
370
-1
  6
ByLayer
 10
236.7932297271799769
 20
20.6318744474262594
 30
0.0
 11
237.0009959609939756
 21
22.0041341880016077
 31
0.0
  0
LINE
  5
226
100
AcDbEntity
100
AcDbLine
  8
Rotor Gear
 62
256
370
-1
  6
ByLayer
 10
237.0009959609939756
 20
22.0041341880016077
 30
0.0
 11
235.8773432705685593
 21
22.5583160063108785
 31
0.0
  0
LINE
  5
227
100
AcDbEntity
100
AcDbLine
  8
Rotor Gear
 62
256
370
-1
  6
ByLayer
 10
235.8773432705685593
 20
22.5583160063108785
 30
0.0
 11
234.9151696154307558
 21
21.5580243548748705
 31
0.0
  0
LINE
  5
228
100
AcDbEntity
100
AcDbLine
  8
Rotor Gear
 62
256
370
-1
  6
ByLayer
 10
234.9151696154307558
 20
21.5580243548748705
 30
0.0
 11
233.7814634927210591
 21
20.6578455049461276
 31
0.0
  0
LINE
  5
229
100
AcDbEntity
100
AcDbLine
  8
Rotor Gear
 62
256
370
-1
  6
ByLayer
 10
233.7814634927210591
 20
20.6578455049461276
 30
0.0
 11
232.8888245314767573
 21
21.1730714790906305
 31
0.0
  0
LINE
  5
22A
100
AcDbEntity
100
AcDbLine
  8
Rotor Gear
 62
256
370
-1
  6
ByLayer
 10
232.8888245314767573
 20
21.1730714790906305
 30
0.0
 11
233.1016163682604088
 21
22.6050217577131214
 31
0.0
  0
LINE
  5
22B
100
AcDbEntity
100
AcDbLine
  8
Rotor Gear
 62
256
370
-1
  6
ByLayer
 10
233.1016163682604088
 20
22.6050217577131214
 30
0.0
 11
233.4867792625975937
 21
23.938534930561552
 31
0.0
  0
LINE
  5
22C
100
AcDbEntity
100
AcDbLine
  8
Rotor Gear
 62
256
370
-1
  6
ByLayer
 10
233.4867792625975937
 20
23.938534930561552
 30
0.0
 11
232.4450182233969429
 21
24.634508214580638
 31
0.0
  0
LINE
  5
22D
100
AcDbEntity
100
AcDbLine
  8
Rotor Gear
 62
256
370
-1
  6
ByLayer
 10
232.4450182233969429
 20
24.634508214580638
 30
0.0
 11
231.3605306535742443
 21
23.7684681401699507
 31
0.0
  0
LINE
  5
22E
100
AcDbEntity
100
AcDbLine
  8
Rotor Gear
 62
256
370
-1
  6
ByLayer
 10
231.3605306535742443
 20
23.7684681401699507
 30
0.0
 11
230.1189625642348631
 21
23.0239041325775382
 31
0.0
  0
LINE
  5
22F
100
AcDbEntity
100
AcDbLine
  8
Rotor Gear
 62
256
370
-1
  6
ByLayer
 10
230.1189625642348631
 20
23.0239041325775382
 30
0.0
 11
229.3013031948445644
 21
23.6513905891225846
 31
0.0
  0
LINE
  5
230
100
AcDbEntity
100
AcDbLine
  8
Rotor Gear
 62
256
370
-1
  6
ByLayer
 10
229.3013031948445644
 20
23.6513905891225846
 30
0.0
 11
229.6992415993887846
 21
25.0433378992757625
 31
0.0
  0
LINE
  5
231
100
AcDbEntity
100
AcDbLine
  8
Rotor Gear
 62
256
370
-1
  6
ByLayer
 10
229.6992415993887846
 20
25.0433378992757625
 30
0.0
 11
230.2550991134312994
 21
26.314856266915136
 31
0.0
  0
LINE
  5
232
100
AcDbEntity
100
AcDbLine
  8
Rotor Gear
 62
256
370
-1
  6
ByLayer
 10
230.2550991134312994
 20
26.314856266915136
 30
0.0
 11
229.3130323228621137
 21
27.1411026492944565
 31
0.0
  0
LINE
  5
233
100
AcDbEntity
100
AcDbLine
  8
Rotor Gear
 62
256
370
-1
  6
ByLayer
 10
229.3130323228621137
 20
27.1411026492944565
 30
0.0
 11
228.1248712836278116
 21
26.4239753764022147
 31
0.0
  0
LINE
  5
234
100
AcDbEntity
100
AcDbLine
  8
Rotor Gear
 62
256
370
-1
  6
ByLayer
 10
228.1248712836278116
 20
26.4239753764022147
 30
0.0
 11
226.7968037508548207
 21
25.8478024634682093
 31
0.0
  0
LINE
  5
235
100
AcDbEntity
100
AcDbLine
  8
Rotor Gear
 62
256
370
-1
  6
ByLayer
 10
226.7968037508548207
 20
25.8478024634682093
 30
0.0
 11
226.0679480920601065
 21
26.5766581222629199
 31
0.0
  0
LINE
  5
236
100
AcDbEntity
100
AcDbLine
  8
Rotor Gear
 62
256
370
-1
  6
ByLayer
 10
226.0679480920601065
 20
26.5766581222629199
 30
0.0
 11
226.6441210049941049
 21
27.9047256550359286
 31
0.0
  0
LINE
  5
237
100
AcDbEntity
100
AcDbLine
  8
Rotor Gear
 62
256
370
-1
  6
ByLayer
 10
226.6441210049941049
 20
27.9047256550359286
 30
0.0
 11
227.3612482778863182
 21
29.0928866942702342
 31
0.0
  0
LINE
  5
238
100
AcDbEntity
100
AcDbLine
  8
Rotor Gear
 62
256
370
-1
  6
ByLayer
 10
227.3612482778863182
 20
29.0928866942702342
 30
0.0
 11
226.5350018955070368
 21
30.0349534848394057
 31
0.0
  0
LINE
  5
239
100
AcDbEntity
100
AcDbLine
  8
Rotor Gear
 62
256
370
-1
  6
ByLayer
 10
226.5350018955070368
 20
30.0349534848394057
 30
0.0
 11
225.2634835278676348
 21
29.4790959707969265
 31
0.0
  0
LINE
  5
23A
100
AcDbEntity
100
AcDbLine
  8
Rotor Gear
 62
256
370
-1
  6
ByLayer
 10
225.2634835278676348
 20
29.4790959707969265
 30
0.0
 11
223.8715362177144641
 21
29.0811575662527098
 31
0.0
  0
LINE
  5
23B
100
AcDbEntity
100
AcDbLine
  8
Rotor Gear
 62
256
370
-1
  6
ByLayer
 10
223.8715362177144641
 20
29.0811575662527098
 30
0.0
 11
223.244049761169407
 21
29.8988169356429729
 31
0.0
  0
LINE
  5
23C
100
AcDbEntity
100
AcDbLine
  8
Rotor Gear
 62
256
370
-1
  6
ByLayer
 10
223.244049761169407
 20
29.8988169356429729
 30
0.0
 11
223.9886137687618088
 21
31.1403850249823648
 31
0.0
  0
LINE
  5
23D
100
AcDbEntity
100
AcDbLine
  8
Rotor Gear
 62
256
370
-1
  6
ByLayer
 10
223.9886137687618088
 20
31.1403850249823648
 30
0.0
 11
224.8546538431725139
 21
32.2248725948050492
 31
0.0
  0
LINE
  5
23E
100
AcDbEntity
100
AcDbLine
  8
Rotor Gear
 62
256
370
-1
  6
ByLayer
 10
224.8546538431725139
 20
32.2248725948050492
 30
0.0
 11
224.1586805591534244
 21
33.2666336340057143
 31
0.0
  0
LINE
  5
23F
100
AcDbEntity
100
AcDbLine
  8
Rotor Gear
 62
256
370
-1
  6
ByLayer
 10
224.1586805591534244
 20
33.2666336340057143
 30
0.0
 11
222.8251673863049689
 21
32.8814707396685151
 31
0.0
  0
LINE
  5
240
100
AcDbEntity
100
AcDbLine
  8
Rotor Gear
 62
256
370
-1
  6
ByLayer
 10
222.8251673863049689
 20
32.8814707396685151
 30
0.0
 11
221.3932171076824886
 21
32.6686789028848636
 31
0.0
  0
LINE
  5
241
100
AcDbEntity
100
AcDbLine
  8
Rotor Gear
 62
256
370
-1
  6
ByLayer
 10
221.3932171076824886
 20
32.6686789028848636
 30
0.0
 11
220.8779911335380177
 21
33.561317864129137
 31
0.0
  0
LINE
  5
242
100
AcDbEntity
100
AcDbLine
  8
Rotor Gear
 62
256
370
-1
  6
ByLayer
 10
220.8779911335380177
 20
33.561317864129137
 30
0.0
 11
221.7781699834667677
 21
34.6950239868388692
 31
0.0
  0
LINE
  5
243
100
AcDbEntity
100
AcDbLine
  8
Rotor Gear
 62
256
370
-1
  6
ByLayer
 10
221.7781699834667677
 20
34.6950239868388692
 30
0.0
 11
222.7784616349027544
 21
35.6571976419767083
 31
0.0
  0
LINE
  5
244
100
AcDbEntity
100
AcDbLine
  8
Rotor Gear
 62
256
370
-1
  6
ByLayer
 10
222.7784616349027544
 20
35.6571976419767083
 30
0.0
 11
222.2242798165934801
 21
36.7808503324021174
 31
0.0
  0
LINE
  5
245
100
AcDbEntity
100
AcDbLine
  8
Rotor Gear
 62
256
370
-1
  6
ByLayer
 10
222.2242798165934801
 20
36.7808503324021174
 30
0.0
 11
220.8520200760181353
 21
36.5730840985880832
 31
0.0
  0
LINE
  5
246
100
AcDbEntity
100
AcDbLine
  8
Rotor Gear
 62
256
370
-1
  6
ByLayer
 10
220.8520200760181353
 20
36.5730840985880832
 30
0.0
 11
219.4045714671509018
 21
36.5489987553543259
 31
0.0
  0
LINE
  5
247
100
AcDbEntity
100
AcDbLine
  8
Rotor Gear
 62
256
370
-1
  6
ByLayer
 10
219.4045714671509018
 20
36.5489987553543259
 30
0.0
 11
219.0101929883959713
 21
37.5011189782078205
 31
0.0
  0
LINE
  5
248
100
AcDbEntity
100
AcDbLine
  8
Rotor Gear
 62
256
370
-1
  6
ByLayer
 10
219.0101929883959713
 20
37.5011189782078205
 30
0.0
 11
220.0506976268542303
 21
38.5076941175859062
 31
0.0
  0
LINE
  5
249
100
AcDbEntity
100
AcDbLine
  8
Rotor Gear
 62
256
370
-1
  6
ByLayer
 10
220.0506976268542303
 20
38.5076941175859062
 30
0.0
 11
221.1680675714525819
 21
39.3310084034895695
 31
0.0
  0
LINE
  5
24A
100
AcDbEntity
100
AcDbLine
  8
Rotor Gear
 62
256
370
-1
  6
ByLayer
 10
221.1680675714525819
 20
39.3310084034895695
 30
0.0
 11
220.7651020797087256
 21
40.5177030234285667
 31
0.0
  0
LINE
  5
24B
100
AcDbEntity
100
AcDbLine
  8
Rotor Gear
 62
256
370
-1
  6
ByLayer
 10
220.7651020797087256
 20
40.5177030234285667
 30
0.0
 11
219.3775532853265133
 21
40.4906848416041925
 31
0.0
  0
LINE
  5
24C
100
AcDbEntity
100
AcDbLine
  8
Rotor Gear
 62
256
370
-1
  6
ByLayer
 10
219.3775532853265133
 20
40.4906848416041925
 30
0.0
 11
217.9393195187619483
 21
40.655724544796108
 31
0.0
  0
LINE
  5
24D
100
AcDbEntity
100
AcDbLine
  8
Rotor Gear
 62
256
370
-1
  6
ByLayer
 10
217.9393195187619483
 20
40.655724544796108
 30
0.0
 11
217.6727005947674058
 21
41.6511991275853575
 31
0.0
  0
LINE
  5
24E
100
AcDbEntity
100
AcDbLine
  8
Rotor Gear
 62
256
370
-1
  6
ByLayer
 10
217.6727005947674058
 20
41.6511991275853575
 30
0.0
 11
218.8357284243484457
 21
42.5132599812159384
 31
0.0
  0
LINE
  5
24F
100
AcDbEntity
100
AcDbLine
  8
Rotor Gear
 62
256
370
-1
  6
ByLayer
 10
218.8357284243484457
 20
42.5132599812159384
 30
0.0
 11
220.0506976268542303
 21
43.1836815027059302
 31
0.0
  0
LINE
  5
250
100
AcDbEntity
100
AcDbLine
  8
Rotor Gear
 62
256
370
-1
  6
ByLayer
 10
220.0506976268542303
 20
43.1836815027059302
 30
0.0
 11
219.8062798160373461
 21
44.4126833582761407
 31
0.0
  0
LINE
  5
251
100
AcDbEntity
100
AcDbLine
  8
Rotor Gear
 62
256
370
-1
  6
ByLayer
 10
219.8062798160373461
 20
44.4126833582761407
 30
0.0
 11
218.4271080160912106
 21
44.5670417998701254
 31
0.0
  0
LINE
  5
252
100
AcDbEntity
100
AcDbLine
  8
Rotor Gear
 62
256
370
-1
  6
ByLayer
 10
218.4271080160912106
 20
44.5670417998701254
 30
0.0
 11
217.0228037486068047
 21
44.9184844715650442
 31
0.0
  0
LINE
  5
253
100
AcDbEntity
100
AcDbLine
  8
Rotor Gear
 62
256
370
-1
  6
ByLayer
 10
217.0228037486068047
 20
44.9184844715650442
 30
0.0
 11
216.8881336187056945
 21
45.9403486647499832
 31
0.0
  0
LINE
  5
254
100
AcDbEntity
100
AcDbLine
  8
Rotor Gear
 62
256
370
-1
  6
ByLayer
 10
216.8881336187056945
 20
45.9403486647499832
 30
0.0
 11
218.1537870512788118
 21
46.6432340081398209
 31
0.0
  0
LINE
  5
255
100
AcDbEntity
100
AcDbLine
  8
Rotor Gear
 62
256
370
-1
  6
ByLayer
 10
218.1537870512788118
 20
46.6432340081398209
 30
0.0
 11
219.4460408549155375
 21
47.1492443978666103
 31
0.0
  0
LINE
  5
256
100
AcDbEntity
100
AcDbLine
  8
Rotor Gear
 62
256
370
-1
  6
ByLayer
 10
219.4460408549155375
 20
47.1492443978666103
 30
0.0
 11
219.3641492036907721
 21
48.3998187951857872
 31
0.0
  0
LINE
  5
257
100
AcDbEntity
100
AcDbLine
  8
Rotor Gear
 62
256
370
-1
  6
ByLayer
 10
219.3641492036907721
 20
48.3998187951857872
 30
0.0
 11
218.0168126542157552
 21
48.7328302980453074
 31
0.0
  0
LINE
  5
258
100
AcDbEntity
100
AcDbLine
  8
Rotor Gear
 62
256
370
-1
  6
ByLayer
 10
218.0168126542157552
 20
48.7328302980453074
 30
0.0
 11
216.6703139526073585
 21
49.264601726738988
 31
0.0
  0
LINE
  5
259
100
AcDbEntity
100
AcDbLine
  8
Rotor Gear
 62
256
370
-1
  6
ByLayer
 10
216.6703139526073585
 20
49.264601726738988
 30
0.0
 11
216.6703139526073585
 21
50.2950536750280222
 31
0.0
  0
LINE
  5
25A
100
AcDbEntity
100
AcDbLine
  8
Rotor Gear
 62
256
370
-1
  6
ByLayer
 10
216.6703139526073585
 20
50.2950536750280222
 30
0.0
 11
218.0168126542157552
 21
50.8268251037217169
 31
0.0
  0
LINE
  5
25B
100
AcDbEntity
100
AcDbLine
  8
Rotor Gear
 62
256
370
-1
  6
ByLayer
 10
218.0168126542157552
 20
50.8268251037217169
 30
0.0
 11
219.3641492036907721
 21
51.1598366065812229
 31
0.0
  0
LINE
  5
25C
100
AcDbEntity
100
AcDbLine
  8
Rotor Gear
 62
256
370
-1
  6
ByLayer
 10
219.3641492036907721
 20
51.1598366065812229
 30
0.0
 11
219.4460408549155375
 21
52.4104110039004567
 31
0.0
  0
LINE
  5
25D
100
AcDbEntity
100
AcDbLine
  8
Rotor Gear
 62
256
370
-1
  6
ByLayer
 10
219.4460408549155375
 20
52.4104110039004567
 30
0.0
 11
218.1537870512788118
 21
52.9164213936272034
 31
0.0
  0
LINE
  5
25E
100
AcDbEntity
100
AcDbLine
  8
Rotor Gear
 62
256
370
-1
  6
ByLayer
 10
218.1537870512788118
 20
52.9164213936272034
 30
0.0
 11
216.8881336187056945
 21
53.6193067370170979
 31
0.0
  0
LINE
  5
25F
100
AcDbEntity
100
AcDbLine
  8
Rotor Gear
 62
256
370
-1
  6
ByLayer
 10
216.8881336187056945
 20
53.6193067370170979
 30
0.0
 11
217.0228037486068047
 21
54.6411709302019446
 31
0.0
  0
LINE
  5
260
100
AcDbEntity
100
AcDbLine
  8
Rotor Gear
 62
256
370
-1
  6
ByLayer
 10
217.0228037486068047
 20
54.6411709302019446
 30
0.0
 11
218.4271080160912106
 21
54.9926136018969629
 31
0.0
  0
LINE
  5
261
100
AcDbEntity
100
AcDbLine
  8
Rotor Gear
 62
256
370
-1
  6
ByLayer
 10
218.4271080160912106
 20
54.9926136018969629
 30
0.0
 11
219.8062798160373461
 21
55.1469720434908837
 31
0.0
  0
LINE
  5
262
100
AcDbEntity
100
AcDbLine
  8
Rotor Gear
 62
256
370
-1
  6
ByLayer
 10
219.8062798160373461
 20
55.1469720434908837
 30
0.0
 11
220.0506976268542303
 21
56.3759738990611368
 31
0.0
  0
LINE
  5
263
100
AcDbEntity
100
AcDbLine
  8
Rotor Gear
 62
256
370
-1
  6
ByLayer
 10
220.0506976268542303
 20
56.3759738990611368
 30
0.0
 11
218.8357284243484457
 21
57.0463954205511143
 31
0.0
  0
LINE
  5
264
100
AcDbEntity
100
AcDbLine
  8
Rotor Gear
 62
256
370
-1
  6
ByLayer
 10
218.8357284243484457
 20
57.0463954205511143
 30
0.0
 11
217.6727005947674058
 21
57.9084562741816811
 31
0.0
  0
LINE
  5
265
100
AcDbEntity
100
AcDbLine
  8
Rotor Gear
 62
256
370
-1
  6
ByLayer
 10
217.6727005947674058
 20
57.9084562741816811
 30
0.0
 11
217.9393195187619483
 21
58.903930856970959
 31
0.0
  0
LINE
  5
266
100
AcDbEntity
100
AcDbLine
  8
Rotor Gear
 62
256
370
-1
  6
ByLayer
 10
217.9393195187619483
 20
58.903930856970959
 30
0.0
 11
219.3775532853265133
 21
59.0689705601628461
 31
0.0
  0
LINE
  5
267
100
AcDbEntity
100
AcDbLine
  8
Rotor Gear
 62
256
370
-1
  6
ByLayer
 10
219.3775532853265133
 20
59.0689705601628461
 30
0.0
 11
220.7651020797087256
 21
59.041952378338479
 31
0.0
  0
LINE
  5
268
100
AcDbEntity
100
AcDbLine
  8
Rotor Gear
 62
256
370
-1
  6
ByLayer
 10
220.7651020797087256
 20
59.041952378338479
 30
0.0
 11
221.1680675714525819
 21
60.2286469982775046
 31
0.0
  0
LINE
  5
269
100
AcDbEntity
100
AcDbLine
  8
Rotor Gear
 62
256
370
-1
  6
ByLayer
 10
221.1680675714525819
 20
60.2286469982775046
 30
0.0
 11
220.0506976268542303
 21
61.0519612841811465
 31
0.0
  0
LINE
  5
26A
100
AcDbEntity
100
AcDbLine
  8
Rotor Gear
 62
256
370
-1
  6
ByLayer
 10
220.0506976268542303
 20
61.0519612841811465
 30
0.0
 11
219.0101929883959997
 21
62.0585364235592252
 31
0.0
  0
LINE
  5
26B
100
AcDbEntity
100
AcDbLine
  8
Rotor Gear
 62
256
370
-1
  6
ByLayer
 10
219.0101929883959997
 20
62.0585364235592252
 30
0.0
 11
219.4045714671509018
 21
63.0106566464127198
 31
0.0
  0
LINE
  5
26C
100
AcDbEntity
100
AcDbLine
  8
Rotor Gear
 62
256
370
-1
  6
ByLayer
 10
219.4045714671509018
 20
63.0106566464127198
 30
0.0
 11
220.8520200760181353
 21
62.9865713031789554
 31
0.0
  0
LINE
  5
26D
100
AcDbEntity
100
AcDbLine
  8
Rotor Gear
 62
256
370
-1
  6
ByLayer
 10
220.8520200760181353
 20
62.9865713031789554
 30
0.0
 11
222.2242798165934801
 21
62.7788050693649211
 31
0.0
  0
LINE
  5
26E
100
AcDbEntity
100
AcDbLine
  8
Rotor Gear
 62
256
370
-1
  6
ByLayer
 10
222.2242798165934801
 20
62.7788050693649211
 30
0.0
 11
222.7784616349027544
 21
63.9024577597903374
 31
0.0
  0
LINE
  5
26F
100
AcDbEntity
100
AcDbLine
  8
Rotor Gear
 62
256
370
-1
  6
ByLayer
 10
222.7784616349027544
 20
63.9024577597903374
 30
0.0
 11
221.7781699834667677
 21
64.8646314149281693
 31
0.0
  0
LINE
  5
270
100
AcDbEntity
100
AcDbLine
  8
Rotor Gear
 62
256
370
-1
  6
ByLayer
 10
221.7781699834667677
 20
64.8646314149281693
 30
0.0
 11
220.8779911335380177
 21
65.9983375376379229
 31
0.0
  0
LINE
  5
271
100
AcDbEntity
100
AcDbLine
  8
Rotor Gear
 62
256
370
-1
  6
ByLayer
 10
220.8779911335380177
 20
65.9983375376379229
 30
0.0
 11
221.3932171076825171
 21
66.8909764988821678
 31
0.0
  0
LINE
  5
272
100
AcDbEntity
100
AcDbLine
  8
Rotor Gear
 62
256
370
-1
  6
ByLayer
 10
221.3932171076825171
 20
66.8909764988821678
 30
0.0
 11
222.8251673863049973
 21
66.6781846620985448
 31
0.0
  0
LINE
  5
273
100
AcDbEntity
100
AcDbLine
  8
Rotor Gear
 62
256
370
-1
  6
ByLayer
 10
222.8251673863049973
 20
66.6781846620985448
 30
0.0
 11
224.1586805591534244
 21
66.2930217677613314
 31
0.0
  0
LINE
  5
274
100
AcDbEntity
100
AcDbLine
  8
Rotor Gear
 62
256
370
-1
  6
ByLayer
 10
224.1586805591534244
 20
66.2930217677613314
 30
0.0
 11
224.8546538431725139
 21
67.3347828069619823
 31
0.0
  0
LINE
  5
275
100
AcDbEntity
100
AcDbLine
  8
Rotor Gear
 62
256
370
-1
  6
ByLayer
 10
224.8546538431725139
 20
67.3347828069619823
 30
0.0
 11
223.9886137687618373
 21
68.4192703767846808
 31
0.0
  0
LINE
  5
276
100
AcDbEntity
100
AcDbLine
  8
Rotor Gear
 62
256
370
-1
  6
ByLayer
 10
223.9886137687618373
 20
68.4192703767846808
 30
0.0
 11
223.244049761169407
 21
69.6608384661240621
 31
0.0
  0
LINE
  5
277
100
AcDbEntity
100
AcDbLine
  8
Rotor Gear
 62
256
370
-1
  6
ByLayer
 10
223.244049761169407
 20
69.6608384661240621
 30
0.0
 11
223.8715362177144925
 21
70.4784978355143323
 31
0.0
  0
LINE
  5
278
100
AcDbEntity
100
AcDbLine
  8
Rotor Gear
 62
256
370
-1
  6
ByLayer
 10
223.8715362177144925
 20
70.4784978355143323
 30
0.0
 11
225.2634835278676348
 21
70.0805594309701405
 31
0.0
  0
LINE
  5
279
100
AcDbEntity
100
AcDbLine
  8
Rotor Gear
 62
256
370
-1
  6
ByLayer
 10
225.2634835278676348
 20
70.0805594309701405
 30
0.0
 11
226.5350018955070368
 21
69.5247019169276257
 31
0.0
  0
LINE
  5
27A
100
AcDbEntity
100
AcDbLine
  8
Rotor Gear
 62
256
370
-1
  6
ByLayer
 10
226.5350018955070368
 20
69.5247019169276257
 30
0.0
 11
227.3612482778863182
 21
70.4667687074968114
 31
0.0
  0
LINE
  5
27B
100
AcDbEntity
100
AcDbLine
  8
Rotor Gear
 62
256
370
-1
  6
ByLayer
 10
227.3612482778863182
 20
70.4667687074968114
 30
0.0
 11
226.6441210049941049
 21
71.6549297467311135
 31
0.0
  0
LINE
  5
27C
100
AcDbEntity
100
AcDbLine
  8
Rotor Gear
 62
256
370
-1
  6
ByLayer
 10
226.6441210049941049
 20
71.6549297467311135
 30
0.0
 11
226.0679480920601065
 21
72.9829972795041328
 31
0.0
  0
LINE
  5
27D
100
AcDbEntity
100
AcDbLine
  8
Rotor Gear
 62
256
370
-1
  6
ByLayer
 10
226.0679480920601065
 20
72.9829972795041328
 30
0.0
 11
226.7968037508548207
 21
73.7118529382988186
 31
0.0
  0
LINE
  5
27E
100
AcDbEntity
100
AcDbLine
  8
Rotor Gear
 62
256
370
-1
  6
ByLayer
 10
226.7968037508548207
 20
73.7118529382988186
 30
0.0
 11
228.1248712836278116
 21
73.1356800253648203
 31
0.0
  0
LINE
  5
27F
100
AcDbEntity
100
AcDbLine
  8
Rotor Gear
 62
256
370
-1
  6
ByLayer
 10
228.1248712836278116
 20
73.1356800253648203
 30
0.0
 11
229.3130323228621137
 21
72.4185527524726069
 31
0.0
  0
LINE
  5
280
100
AcDbEntity
100
AcDbLine
  8
Rotor Gear
 62
256
370
-1
  6
ByLayer
 10
229.3130323228621137
 20
72.4185527524726069
 30
0.0
 11
230.2550991134312994
 21
73.2447991348519167
 31
0.0
  0
LINE
  5
281
100
AcDbEntity
100
AcDbLine
  8
Rotor Gear
 62
256
370
-1
  6
ByLayer
 10
230.2550991134312994
 20
73.2447991348519167
 30
0.0
 11
229.699241599388813
 21
74.5163175024912903
 31
0.0
  0
LINE
  5
282
100
AcDbEntity
100
AcDbLine
  8
Rotor Gear
 62
256
370
-1
  6
ByLayer
 10
229.699241599388813
 20
74.5163175024912903
 30
0.0
 11
229.3013031948445928
 21
75.908264812644461
 31
0.0
  0
LINE
  5
283
100
AcDbEntity
100
AcDbLine
  8
Rotor Gear
 62
256
370
-1
  6
ByLayer
 10
229.3013031948445928
 20
75.908264812644461
 30
0.0
 11
230.1189625642348631
 21
76.5357512691895181
 31
0.0
  0
LINE
  5
284
100
AcDbEntity
100
AcDbLine
  8
Rotor Gear
 62
256
370
-1
  6
ByLayer
 10
230.1189625642348631
 20
76.5357512691895181
 30
0.0
 11
231.3605306535742443
 21
75.7911872615970879
 31
0.0
  0
LINE
  5
285
100
AcDbEntity
100
AcDbLine
  8
Rotor Gear
 62
256
370
-1
  6
ByLayer
 10
231.3605306535742443
 20
75.7911872615970879
 30
0.0
 11
232.4450182233969429
 21
74.9251471871864112
 31
0.0
  0
LINE
  5
286
100
AcDbEntity
100
AcDbLine
  8
Rotor Gear
 62
256
370
-1
  6
ByLayer
 10
232.4450182233969429
 20
74.9251471871864112
 30
0.0
 11
233.4867792625975937
 21
75.6211204712055007
 31
0.0
  0
LINE
  5
287
100
AcDbEntity
100
AcDbLine
  8
Rotor Gear
 62
256
370
-1
  6
ByLayer
 10
233.4867792625975937
 20
75.6211204712055007
 30
0.0
 11
233.1016163682604088
 21
76.9546336440539278
 31
0.0
  0
LINE
  5
288
100
AcDbEntity
100
AcDbLine
  8
Rotor Gear
 62
256
370
-1
  6
ByLayer
 10
233.1016163682604088
 20
76.9546336440539278
 30
0.0
 11
232.8888245314767573
 21
78.3865839226764081
 31
0.0
  0
LINE
  5
289
100
AcDbEntity
100
AcDbLine
  8
Rotor Gear
 62
256
370
-1
  6
ByLayer
 10
232.8888245314767573
 20
78.3865839226764081
 30
0.0
 11
233.7814634927210307
 21
78.9018098968209074
 31
0.0
  0
LINE
  5
28A
100
AcDbEntity
100
AcDbLine
  8
Rotor Gear
 62
256
370
-1
  6
ByLayer
 10
233.7814634927210307
 20
78.9018098968209074
 30
0.0
 11
234.9151696154307558
 21
78.0016310468921574
 31
0.0
  0
LINE
  5
28B
100
AcDbEntity
100
AcDbLine
  8
Rotor Gear
 62
256
370
-1
  6
ByLayer
 10
234.9151696154307558
 20
78.0016310468921574
 30
0.0
 11
235.8773432705685877
 21
77.0013393954561707
 31
0.0
  0
LINE
  5
28C
100
AcDbEntity
100
AcDbLine
  8
Rotor Gear
 62
256
370
-1
  6
ByLayer
 10
235.8773432705685877
 20
77.0013393954561707
 30
0.0
 11
237.000995960994004
 21
77.5555212137654451
 31
0.0
  0
LINE
  5
28D
100
AcDbEntity
100
AcDbLine
  8
Rotor Gear
 62
256
370
-1
  6
ByLayer
 10
237.000995960994004
 20
77.5555212137654451
 30
0.0
 11
236.7932297271799769
 21
78.9277809543407898
 31
0.0
  0
LINE
  5
28E
100
AcDbEntity
100
AcDbLine
  8
Rotor Gear
 62
256
370
-1
  6
ByLayer
 10
236.7932297271799769
 20
78.9277809543407898
 30
0.0
 11
236.7691443839462409
 21
80.3752295632080518
 31
0.0
  0
LINE
  5
28F
100
AcDbEntity
100
AcDbLine
  8
Rotor Gear
 62
256
370
-1
  6
ByLayer
 10
236.7691443839462409
 20
80.3752295632080518
 30
0.0
 11
237.7212646067997355
 21
80.7696080419629538
 31
0.0
  0
LINE
  5
290
100
AcDbEntity
100
AcDbLine
  8
Rotor Gear
 62
256
370
-1
  6
ByLayer
 10
237.7212646067997355
 20
80.7696080419629538
 30
0.0
 11
238.727839746177807
 21
79.7291034035046948
 31
0.0
  0
LINE
  5
291
100
AcDbEntity
100
AcDbLine
  8
Rotor Gear
 62
256
370
-1
  6
ByLayer
 10
238.727839746177807
 20
79.7291034035046948
 30
0.0
 11
239.5511540320814561
 21
78.6117334589063432
 31
0.0
  0
LINE
  5
292
100
AcDbEntity
100
AcDbLine
  8
Rotor Gear
 62
256
370
-1
  6
ByLayer
 10
239.5511540320814561
 20
78.6117334589063432
 30
0.0
 11
240.7378486520204319
 21
79.0146989506501995
 31
0.0
  0
LINE
  5
293
100
AcDbEntity
100
AcDbLine
  8
Rotor Gear
 62
256
370
-1
  6
ByLayer
 10
240.7378486520204319
 20
79.0146989506501995
 30
0.0
 11
240.7108304701960435
 21
80.4022477450324118
 31
0.0
  0
LINE
  5
294
100
AcDbEntity
100
AcDbLine
  8
Rotor Gear
 62
256
370
-1
  6
ByLayer
 10
240.7108304701960435
 20
80.4022477450324118
 30
0.0
 11
240.8758701733879946
 21
81.8404815115969768
 31
0.0
  0
LINE
  5
295
100
AcDbEntity
100
AcDbLine
  8
Rotor Gear
 62
256
370
-1
  6
ByLayer
 10
240.8758701733879946
 20
81.8404815115969768
 30
0.0
 11
241.8713447561772512
 21
82.1071004355914909
 31
0.0
  0
LINE
  5
296
100
AcDbEntity
100
AcDbLine
  8
Rotor Gear
 62
256
370
-1
  6
ByLayer
 10
241.8713447561772512
 20
82.1071004355914909
 30
0.0
 11
242.7334056098078179
 21
80.9440726060105078
 31
0.0
  0
LINE
  5
297
100
AcDbEntity
100
AcDbLine
  8
Rotor Gear
 62
256
370
-1
  6
ByLayer
 10
242.7334056098078179
 20
80.9440726060105078
 30
0.0
 11
243.4038271312978168
 21
79.7291034035046948
 31
0.0
  0
LINE
  5
298
100
AcDbEntity
100
AcDbLine
  8
Rotor Gear
 62
256
370
-1
  6
ByLayer
 10
243.4038271312978168
 20
79.7291034035046948
 30
0.0
 11
244.6328289868680486
 21
79.9735212143215506
 31
0.0
  0
LINE
  5
299
100
AcDbEntity
100
AcDbLine
  8
Rotor Gear
 62
256
370
-1
  6
ByLayer
 10
244.6328289868680486
 20
79.9735212143215506
 30
0.0
 11
244.7871874284620048
 21
81.3526930142677429
 31
0.0
  0
LINE
  5
29A
100
AcDbEntity
100
AcDbLine
  8
Rotor Gear
 62
256
370
-1
  6
ByLayer
 10
244.7871874284620048
 20
81.3526930142677429
 30
0.0
 11
245.138630100156945
 21
82.7569972817521204
 31
0.0
  0
LINE
  5
29B
100
AcDbEntity
100
AcDbLine
  8
Rotor Gear
 62
256
370
-1
  6
ByLayer
 10
245.138630100156945
 20
82.7569972817521204
 30
0.0
 11
246.1604942933418556
 21
82.8916674116532306
 31
0.0
  0
LINE
  5
29C
100
AcDbEntity
100
AcDbLine
  8
Rotor Gear
 62
256
370
-1
  6
ByLayer
 10
246.1604942933418556
 20
82.8916674116532306
 30
0.0
 11
246.8633796367317359
 21
81.6260139790801134
 31
0.0
  0
LINE
  5
29D
100
AcDbEntity
100
AcDbLine
  8
Rotor Gear
 62
256
370
-1
  6
ByLayer
 10
246.8633796367317359
 20
81.6260139790801134
 30
0.0
 11
247.3693900264584897
 21
80.3337601754433877
 31
0.0
  0
LINE
  5
29E
100
AcDbEntity
100
AcDbLine
  8
Rotor Gear
 62
256
370
-1
  6
ByLayer
 10
247.3693900264584897
 20
80.3337601754433877
 30
0.0
 11
248.6199644237776738
 21
80.415651826668153
 31
0.0
  0
LINE
  5
29F
100
AcDbEntity
100
AcDbLine
  8
Rotor Gear
 62
256
370
-1
  6
ByLayer
 10
248.6199644237776738
 20
80.415651826668153
 30
0.0
 11
248.9529759266371798
 21
81.7629883761431699
 31
0.0
  0
LINE
  5
2A0
100
AcDbEntity
100
AcDbLine
  8
Rotor Gear
 62
256
370
-1
  6
ByLayer
 10
248.9529759266371798
 20
81.7629883761431699
 30
0.0
 11
249.4847473553309385
 21
83.1094870777515666
 31
0.0
  0
LINE
  5
2A1
100
AcDbEntity
100
AcDbLine
  8
Rotor Gear
 62
256
370
-1
  6
ByLayer
 10
249.4847473553309385
 20
83.1094870777515666
 30
0.0
 11
250.5151993036198803
 21
83.1094870777515666
 31
0.0
  0
LINE
  5
2A2
100
AcDbEntity
100
AcDbLine
  8
Rotor Gear
 62
256
370
-1
  6
ByLayer
 10
250.5151993036198803
 20
83.1094870777515666
 30
0.0
 11
251.0469707323136106
 21
81.7629883761431699
 31
0.0
  0
LINE
  5
2A3
100
AcDbEntity
100
AcDbLine
  8
Rotor Gear
 62
256
370
-1
  6
ByLayer
 10
251.0469707323136106
 20
81.7629883761431699
 30
0.0
 11
251.379982235173145
 21
80.415651826668153
 31
0.0
  0
LINE
  5
2A4
100
AcDbEntity
100
AcDbLine
  8
Rotor Gear
 62
256
370
-1
  6
ByLayer
 10
251.379982235173145
 20
80.415651826668153
 30
0.0
 11
252.6305566324923291
 21
80.3337601754433877
 31
0.0
  0
LINE
  5
2A5
100
AcDbEntity
100
AcDbLine
  8
Rotor Gear
 62
256
370
-1
  6
ByLayer
 10
252.6305566324923291
 20
80.3337601754433877
 30
0.0
 11
253.1365670222190829
 21
81.6260139790801134
 31
0.0
  0
LINE
  5
2A6
100
AcDbEntity
100
AcDbLine
  8
Rotor Gear
 62
256
370
-1
  6
ByLayer
 10
253.1365670222190829
 20
81.6260139790801134
 30
0.0
 11
253.8394523656089632
 21
82.8916674116532306
 31
0.0
  0
LINE
  5
2A7
100
AcDbEntity
100
AcDbLine
  8
Rotor Gear
 62
256
370
-1
  6
ByLayer
 10
253.8394523656089632
 20
82.8916674116532306
 30
0.0
 11
254.8613165587938738
 21
82.7569972817521204
 31
0.0
  0
LINE
  5
2A8
100
AcDbEntity
100
AcDbLine
  8
Rotor Gear
 62
256
370
-1
  6
ByLayer
 10
254.8613165587938738
 20
82.7569972817521204
 30
0.0
 11
255.212759230488814
 21
81.3526930142677429
 31
0.0
  0
LINE
  5
2A9
100
AcDbEntity
100
AcDbLine
  8
Rotor Gear
 62
256
370
-1
  6
ByLayer
 10
255.212759230488814
 20
81.3526930142677429
 30
0.0
 11
255.3671176720827702
 21
79.9735212143215506
 31
0.0
  0
LINE
  5
2AA
100
AcDbEntity
100
AcDbLine
  8
Rotor Gear
 62
256
370
-1
  6
ByLayer
 10
255.3671176720827702
 20
79.9735212143215506
 30
0.0
 11
256.596119527653002
 21
79.7291034035046948
 31
0.0
  0
LINE
  5
2AB
100
AcDbEntity
100
AcDbLine
  8
Rotor Gear
 62
256
370
-1
  6
ByLayer
 10
256.596119527653002
 20
79.7291034035046948
 30
0.0
 11
257.2665410491430293
 21
80.9440726060105078
 31
0.0
  0
LINE
  5
2AC
100
AcDbEntity
100
AcDbLine
  8
Rotor Gear
 62
256
370
-1
  6
ByLayer
 10
257.2665410491430293
 20
80.9440726060105078
 30
0.0
 11
258.1286019027735392
 21
82.1071004355914909
 31
0.0
  0
LINE
  5
2AD
100
AcDbEntity
100
AcDbLine
  8
Rotor Gear
 62
256
370
-1
  6
ByLayer
 10
258.1286019027735392
 20
82.1071004355914909
 30
0.0
 11
259.1240764855627958
 21
81.8404815115969768
 31
0.0
  0
LINE
  5
2AE
100
AcDbEntity
100
AcDbLine
  8
Rotor Gear
 62
256
370
-1
  6
ByLayer
 10
259.1240764855627958
 20
81.8404815115969768
 30
0.0
 11
259.2891161887547469
 21
80.4022477450324118
 31
0.0
  0
LINE
  5
2AF
100
AcDbEntity
100
AcDbLine
  8
Rotor Gear
 62
256
370
-1
  6
ByLayer
 10
259.2891161887547469
 20
80.4022477450324118
 30
0.0
 11
259.2620980069303869
 21
79.0146989506501995
 31
0.0
  0
LINE
  5
2B0
100
AcDbEntity
100
AcDbLine
  8
Rotor Gear
 62
256
370
-1
  6
ByLayer
 10
259.2620980069303869
 20
79.0146989506501995
 30
0.0
 11
260.4487926268693627
 21
78.6117334589063432
 31
0.0
  0
LINE
  5
2B1
100
AcDbEntity
100
AcDbLine
  8
Rotor Gear
 62
256
370
-1
  6
ByLayer
 10
260.4487926268693627
 20
78.6117334589063432
 30
0.0
 11
261.2721069127729834
 21
79.7291034035046948
 31
0.0
  0
LINE
  5
2B2
100
AcDbEntity
100
AcDbLine
  8
Rotor Gear
 62
256
370
-1
  6
ByLayer
 10
261.2721069127729834
 20
79.7291034035046948
 30
0.0
 11
262.2786820521511117
 21
80.7696080419629538
 31
0.0
  0
LINE
  5
2B3
100
AcDbEntity
100
AcDbLine
  8
Rotor Gear
 62
256
370
-1
  6
ByLayer
 10
262.2786820521511117
 20
80.7696080419629538
 30
0.0
 11
263.230802275004578
 21
80.3752295632080234
 31
0.0
  0
LINE
  5
2B4
100
AcDbEntity
100
AcDbLine
  8
Rotor Gear
 62
256
370
-1
  6
ByLayer
 10
263.230802275004578
 20
80.3752295632080234
 30
0.0
 11
263.2067169317708704
 21
78.9277809543407898
 31
0.0
  0
LINE
  5
2B5
100
AcDbEntity
100
AcDbLine
  8
Rotor Gear
 62
256
370
-1
  6
ByLayer
 10
263.2067169317708704
 20
78.9277809543407898
 30
0.0
 11
262.9989506979568432
 21
77.5555212137654451
 31
0.0
  0
LINE
  5
2B6
100
AcDbEntity
100
AcDbLine
  8
Rotor Gear
 62
256
370
-1
  6
ByLayer
 10
262.9989506979568432
 20
77.5555212137654451
 30
0.0
 11
264.1226033883822311
 21
77.0013393954561707
 31
0.0
  0
LINE
  5
2B7
100
AcDbEntity
100
AcDbLine
  8
Rotor Gear
 62
256
370
-1
  6
ByLayer
 10
264.1226033883822311
 20
77.0013393954561707
 30
0.0
 11
265.0847770435200346
 21
78.0016310468921574
 31
0.0
  0
LINE
  5
2B8
100
AcDbEntity
100
AcDbLine
  8
Rotor Gear
 62
256
370
-1
  6
ByLayer
 10
265.0847770435200346
 20
78.0016310468921574
 30
0.0
 11
266.2184831662298166
 21
78.9018098968209074
 31
0.0
  0
LINE
  5
2B9
100
AcDbEntity
100
AcDbLine
  8
Rotor Gear
 62
256
370
-1
  6
ByLayer
 10
266.2184831662298166
 20
78.9018098968209074
 30
0.0
 11
267.1111221274740615
 21
78.3865839226764081
 31
0.0
  0
LINE
  5
2BA
100
AcDbEntity
100
AcDbLine
  8
Rotor Gear
 62
256
370
-1
  6
ByLayer
 10
267.1111221274740615
 20
78.3865839226764081
 30
0.0
 11
266.89833029069041
 21
76.9546336440539278
 31
0.0
  0
LINE
  5
2BB
100
AcDbEntity
100
AcDbLine
  8
Rotor Gear
 62
256
370
-1
  6
ByLayer
 10
266.89833029069041
 20
76.9546336440539278
 30
0.0
 11
266.5131673963531966
 21
75.6211204712055007
 31
0.0
  0
LINE
  5
2BC
100
AcDbEntity
100
AcDbLine
  8
Rotor Gear
 62
256
370
-1
  6
ByLayer
 10
266.5131673963531966
 20
75.6211204712055007
 30
0.0
 11
267.5549284355538475
 21
74.9251471871864112
 31
0.0
  0
LINE
  5
2BD
100
AcDbEntity
100
AcDbLine
  8
Rotor Gear
 62
256
370
-1
  6
ByLayer
 10
267.5549284355538475
 20
74.9251471871864112
 30
0.0
 11
268.6394160053765745
 21
75.7911872615970879
 31
0.0
  0
LINE
  5
2BE
100
AcDbEntity
100
AcDbLine
  8
Rotor Gear
 62
256
370
-1
  6
ByLayer
 10
268.6394160053765745
 20
75.7911872615970879
 30
0.0
 11
269.8809840947159273
 21
76.5357512691895181
 31
0.0
  0
LINE
  5
2BF
100
AcDbEntity
100
AcDbLine
  8
Rotor Gear
 62
256
370
-1
  6
ByLayer
 10
269.8809840947159273
 20
76.5357512691895181
 30
0.0
 11
270.698643464106226
 21
75.908264812644461
 31
0.0
  0
LINE
  5
2C0
100
AcDbEntity
100
AcDbLine
  8
Rotor Gear
 62
256
370
-1
  6
ByLayer
 10
270.698643464106226
 20
75.908264812644461
 30
0.0
 11
270.3007050595620058
 21
74.5163175024912903
 31
0.0
  0
LINE
  5
2C1
100
AcDbEntity
100
AcDbLine
  8
Rotor Gear
 62
256
370
-1
  6
ByLayer
 10
270.3007050595620058
 20
74.5163175024912903
 30
0.0
 11
269.7448475455195194
 21
73.2447991348519167
 31
0.0
  0
LINE
  5
2C2
100
AcDbEntity
100
AcDbLine
  8
Rotor Gear
 62
256
370
-1
  6
ByLayer
 10
269.7448475455195194
 20
73.2447991348519167
 30
0.0
 11
270.6869143360886483
 21
72.4185527524726069
 31
0.0
  0
LINE
  5
2C3
100
AcDbEntity
100
AcDbLine
  8
Rotor Gear
 62
256
370
-1
  6
ByLayer
 10
270.6869143360886483
 20
72.4185527524726069
 30
0.0
 11
271.8750753753230356
 21
73.1356800253648203
 31
0.0
  0
LINE
  5
2C4
100
AcDbEntity
100
AcDbLine
  8
Rotor Gear
 62
256
370
-1
  6
ByLayer
 10
271.8750753753230356
 20
73.1356800253648203
 30
0.0
 11
273.2031429080959697
 21
73.7118529382988186
 31
0.0
  0
LINE
  5
2C5
100
AcDbEntity
100
AcDbLine
  8
Rotor Gear
 62
256
370
-1
  6
ByLayer
 10
273.2031429080959697
 20
73.7118529382988186
 30
0.0
 11
273.9319985668906838
 21
72.9829972795041328
 31
0.0
  0
LINE
  5
2C6
100
AcDbEntity
100
AcDbLine
  8
Rotor Gear
 62
256
370
-1
  6
ByLayer
 10
273.9319985668906838
 20
72.9829972795041328
 30
0.0
 11
273.3558256539566855
 21
71.6549297467311135
 31
0.0
  0
LINE
  5
2C7
100
AcDbEntity
100
AcDbLine
  8
Rotor Gear
 62
256
370
-1
  6
ByLayer
 10
273.3558256539566855
 20
71.6549297467311135
 30
0.0
 11
272.6386983810645006
 21
70.4667687074968114
 31
0.0
  0
LINE
  5
2C8
100
AcDbEntity
100
AcDbLine
  8
Rotor Gear
 62
256
370
-1
  6
ByLayer
 10
272.6386983810645006
 20
70.4667687074968114
 30
0.0
 11
273.464944763443782
 21
69.5247019169276257
 31
0.0
  0
LINE
  5
2C9
100
AcDbEntity
100
AcDbLine
  8
Rotor Gear
 62
256
370
-1
  6
ByLayer
 10
273.464944763443782
 20
69.5247019169276257
 30
0.0
 11
274.7364631310831555
 21
70.0805594309701121
 31
0.0
  0
LINE
  5
2CA
100
AcDbEntity
100
AcDbLine
  8
Rotor Gear
 62
256
370
-1
  6
ByLayer
 10
274.7364631310831555
 20
70.0805594309701121
 30
0.0
 11
276.1284104412363263
 21
70.4784978355143323
 31
0.0
  0
LINE
  5
2CB
100
AcDbEntity
100
AcDbLine
  8
Rotor Gear
 62
256
370
-1
  6
ByLayer
 10
276.1284104412363263
 20
70.4784978355143323
 30
0.0
 11
276.7558968977814402
 21
69.6608384661240621
 31
0.0
  0
LINE
  5
2CC
100
AcDbEntity
100
AcDbLine
  8
Rotor Gear
 62
256
370
-1
  6
ByLayer
 10
276.7558968977814402
 20
69.6608384661240621
 30
0.0
 11
276.01133289018901
 21
68.4192703767846808
 31
0.0
  0
LINE
  5
2CD
100
AcDbEntity
100
AcDbLine
  8
Rotor Gear
 62
256
370
-1
  6
ByLayer
 10
276.01133289018901
 20
68.4192703767846808
 30
0.0
 11
275.1452928157783049
 21
67.3347828069619823
 31
0.0
  0
LINE
  5
2CE
100
AcDbEntity
100
AcDbLine
  8
Rotor Gear
 62
256
370
-1
  6
ByLayer
 10
275.1452928157783049
 20
67.3347828069619823
 30
0.0
 11
275.8412660997973944
 21
66.2930217677613314
 31
0.0
  0
LINE
  5
2CF
100
AcDbEntity
100
AcDbLine
  8
Rotor Gear
 62
256
370
-1
  6
ByLayer
 10
275.8412660997973944
 20
66.2930217677613314
 30
0.0
 11
277.1747792726458783
 21
66.6781846620985164
 31
0.0
  0
LINE
  5
2D0
100
AcDbEntity
100
AcDbLine
  8
Rotor Gear
 62
256
370
-1
  6
ByLayer
 10
277.1747792726458783
 20
66.6781846620985164
 30
0.0
 11
278.6067295512683586
 21
66.8909764988821678
 31
0.0
  0
LINE
  5
2D1
100
AcDbEntity
100
AcDbLine
  8
Rotor Gear
 62
256
370
-1
  6
ByLayer
 10
278.6067295512683586
 20
66.8909764988821678
 30
0.0
 11
279.1219555254127727
 21
65.9983375376379229
 31
0.0
  0
LINE
  5
2D2
100
AcDbEntity
100
AcDbLine
  8
Rotor Gear
 62
256
370
-1
  6
ByLayer
 10
279.1219555254127727
 20
65.9983375376379229
 30
0.0
 11
278.2217766754840795
 21
64.8646314149281693
 31
0.0
  0
LINE
  5
2D3
100
AcDbEntity
100
AcDbLine
  8
Rotor Gear
 62
256
370
-1
  6
ByLayer
 10
278.2217766754840795
 20
64.8646314149281693
 30
0.0
 11
277.2214850240480928
 21
63.9024577597903374
 31
0.0
  0
LINE
  5
2D4
100
AcDbEntity
100
AcDbLine
  8
Rotor Gear
 62
256
370
-1
  6
ByLayer
 10
277.2214850240480928
 20
63.9024577597903374
 30
0.0
 11
277.7756668423573387
 21
62.7788050693649353
 31
0.0
  0
LINE
  5
2D5
100
AcDbEntity
100
AcDbLine
  8
Rotor Gear
 62
256
370
-1
  6
ByLayer
 10
277.7756668423573387
 20
62.7788050693649353
 30
0.0
 11
279.147926582932655
 21
62.9865713031789554
 31
0.0
  0
LINE
  5
2D6
100
AcDbEntity
100
AcDbLine
  8
Rotor Gear
 62
256
370
-1
  6
ByLayer
 10
279.147926582932655
 20
62.9865713031789554
 30
0.0
 11
280.595375191799917
 21
63.0106566464127198
 31
0.0
  0
LINE
  5
2D7
100
AcDbEntity
100
AcDbLine
  8
Rotor Gear
 62
256
370
-1
  6
ByLayer
 10
280.595375191799917
 20
63.0106566464127198
 30
0.0
 11
280.9897536705548191
 21
62.058536423559211
 31
0.0
  0
LINE
  5
2D8
100
AcDbEntity
100
AcDbLine
  8
Rotor Gear
 62
256
370
-1
  6
ByLayer
 10
280.9897536705548191
 20
62.058536423559211
 30
0.0
 11
279.9492490320965885
 21
61.0519612841811394
 31
0.0
  0
LINE
  5
2D9
100
AcDbEntity
100
AcDbLine
  8
Rotor Gear
 62
256
370
-1
  6
ByLayer
 10
279.9492490320965885
 20
61.0519612841811394
 30
0.0
 11
278.8318790874982369
 21
60.2286469982774975
 31
0.0
  0
LINE
  5
2DA
100
AcDbEntity
100
AcDbLine
  8
Rotor Gear
 62
256
370
-1
  6
ByLayer
 10
278.8318790874982369
 20
60.2286469982774975
 30
0.0
 11
279.2348445792421217
 21
59.041952378338479
 31
0.0
  0
LINE
  5
2DB
100
AcDbEntity
100
AcDbLine
  8
Rotor Gear
 62
256
370
-1
  6
ByLayer
 10
279.2348445792421217
 20
59.041952378338479
 30
0.0
 11
280.622393373624277
 21
59.0689705601628461
 31
0.0
  0
LINE
  5
2DC
100
AcDbEntity
100
AcDbLine
  8
Rotor Gear
 62
256
370
-1
  6
ByLayer
 10
280.622393373624277
 20
59.0689705601628461
 30
0.0
 11
282.0606271401888989
 21
58.903930856970959
 31
0.0
  0
LINE
  5
2DD
100
AcDbEntity
100
AcDbLine
  8
Rotor Gear
 62
256
370
-1
  6
ByLayer
 10
282.0606271401888989
 20
58.903930856970959
 30
0.0
 11
282.3272460641834414
 21
57.9084562741816811
 31
0.0
  0
LINE
  5
2DE
100
AcDbEntity
100
AcDbLine
  8
Rotor Gear
 62
256
370
-1
  6
ByLayer
 10
282.3272460641834414
 20
57.9084562741816811
 30
0.0
 11
281.1642182346023446
 21
57.0463954205511143
 31
0.0
  0
LINE
  5
2DF
100
AcDbEntity
100
AcDbLine
  8
Rotor Gear
 62
256
370
-1
  6
ByLayer
 10
281.1642182346023446
 20
57.0463954205511143
 30
0.0
 11
279.9492490320965885
 21
56.3759738990611297
 31
0.0
  0
LINE
  5
2E0
100
AcDbEntity
100
AcDbLine
  8
Rotor Gear
 62
256
370
-1
  6
ByLayer
 10
279.9492490320965885
 20
56.3759738990611297
 30
0.0
 11
280.1936668429134443
 21
55.1469720434908766
 31
0.0
  0
LINE
  5
2E1
100
AcDbEntity
100
AcDbLine
  8
Rotor Gear
 62
256
370
-1
  6
ByLayer
 10
280.1936668429134443
 20
55.1469720434908766
 30
0.0
 11
281.5728386428596082
 21
54.9926136018969558
 31
0.0
  0
LINE
  5
2E2
100
AcDbEntity
100
AcDbLine
  8
Rotor Gear
 62
256
370
-1
  6
ByLayer
 10
281.5728386428596082
 20
54.9926136018969558
 30
0.0
 11
282.9771429103440141
 21
54.6411709302019446
 31
0.0
  0
LINE
  5
2E3
100
AcDbEntity
100
AcDbLine
  8
Rotor Gear
 62
256
370
-1
  6
ByLayer
 10
282.9771429103440141
 20
54.6411709302019446
 30
0.0
 11
283.1118130402451243
 21
53.6193067370170908
 31
0.0
  0
LINE
  5
2E4
100
AcDbEntity
100
AcDbLine
  8
Rotor Gear
 62
256
370
-1
  6
ByLayer
 10
283.1118130402451243
 20
53.6193067370170908
 30
0.0
 11
281.846159607672007
 21
52.9164213936271963
 31
0.0
  0
LINE
  5
2E5
100
AcDbEntity
100
AcDbLine
  8
Rotor Gear
 62
256
370
-1
  6
ByLayer
 10
281.846159607672007
 20
52.9164213936271963
 30
0.0
 11
280.5539058040352529
 21
52.4104110039004567
 31
0.0
  0
LINE
  5
2E6
100
AcDbEntity
100
AcDbLine
  8
Rotor Gear
 62
256
370
-1
  6
ByLayer
 10
280.5539058040352529
 20
52.4104110039004567
 30
0.0
 11
280.6357974552600467
 21
51.1598366065812158
 31
0.0
  0
LINE
  5
2E7
100
AcDbEntity
100
AcDbLine
  8
Rotor Gear
 62
256
370
0
  6
ByLayer
 10
248.2118948056858017
 20
56.8074234962781048
 30
0.0
 11
255.1920265035367095
 21
54.8421512978305685
 31
0.0
  0
LINE
  5
2E8
100
AcDbEntity
100
AcDbLine
  8
Rotor Gear
 62
256
370
0
  6
ByLayer
 10
255.1920265035367095
 20
54.8421512978305685
 30
0.0
 11
256.9801167032552485
 21
47.8145438265069771
 31
0.0
  0
LINE
  5
2E9
100
AcDbEntity
100
AcDbLine
  8
Rotor Gear
 62
256
370
0
  6
ByLayer
 10
244.8079435072720571
 20
44.7174807520784796
 30
0.0
 11
243.0198533075535181
 21
51.7450882234020852
 31
0.0
  0
LINE
  5
2EA
100
AcDbEntity
100
AcDbLine
  8
Rotor Gear
 62
256
370
0
  6
ByLayer
 10
243.0198533075534897
 20
51.7450882234020284
 30
0.0
 11
248.2118948056857448
 21
56.807423496278048
 31
0.0
  0
LINE
  5
2EB
100
AcDbEntity
100
AcDbLine
  8
Rotor Gear
 62
256
370
0
  6
ByLayer
 10
256.9801167032552485
 20
47.8145438265069203
 30
0.0
 11
251.7880752051229081
 21
42.7522085536307728
 31
0.0
  0
LINE
  5
2EC
100
AcDbEntity
100
AcDbLine
  8
Rotor Gear
 62
256
370
0
  6
ByLayer
 10
251.7880752051229081
 20
42.7522085536307728
 30
0.0
 11
244.8079435072720287
 21
44.7174807520784228
 31
0.0
  0
MTEXT
  5
2ED
100
AcDbEntity
100
AcDbMText
  8
Rotor Gear Text
 62
256
370
-1
  6
ByLayer
 10
250.0
 20
35.0
 30
0.0
 40
3.0
 41
100.0
 71
5
 72
2
  1
Rotor\~Gear
  7
standard
 50
0.0
 73
0
 44
1.0
  0
MTEXT
  5
2EE
100
AcDbEntity
100
AcDbMText
  8
Rotor Plate Text
 62
256
370
-1
  6
ByLayer
 10
150.0
 20
116.0
 30
0.0
 40
3.0
 41
100.0
 71
5
 72
2
  1
Rotor\~Plate
  7
standard
 50
0.0
 73
0
 44
1.0
  0
CIRCLE
  5
2EF
100
AcDbEntity
100
AcDbCircle
  8
Rotor Plate Text
 62
256
370
-1
  6
ByLayer
 10
149.9999850054043975
 20
153.7798160249545276
 30
0.0
 40
8.0
  0
CIRCLE
  5
2F0
100
AcDbEntity
100
AcDbCircle
  8
Rotor Plate
 62
256
370
-1
  6
ByLayer
 10
149.9999850054043975
 20
134.7798160249545276
 30
0.0
 40
27.0
  0
CIRCLE
  5
2F1
100
AcDbEntity
100
AcDbCircle
  8
Rotor Plate
 62
256
370
-1
  6
ByLayer
 10
149.9999850054043975
 20
153.7798160249545276
 30
0.0
 40
3.9300000000000002
  0
CIRCLE
  5
2F2
100
AcDbEntity
100
AcDbCircle
  8
Rotor Plate
 62
256
370
-1
  6
ByLayer
 10
133.5455023335000533
 20
125.2798160249545276
 30
0.0
 40
3.9300000000000002
  0
CIRCLE
  5
2F3
100
AcDbEntity
100
AcDbCircle
  8
Rotor Plate
 62
256
370
-1
  6
ByLayer
 10
166.4544676773087417
 20
125.2798160249545276
 30
0.0
 40
3.9300000000000002
  0
CIRCLE
  5
2F4
100
AcDbEntity
100
AcDbCircle
  8
Rotor Plate Text
 62
256
370
-1
  6
ByLayer
 10
166.4544676773087417
 20
125.2798160249545276
 30
0.0
 40
8.0
  0
CIRCLE
  5
2F5
100
AcDbEntity
100
AcDbCircle
  8
Rotor Plate Text
 62
256
370
-1
  6
ByLayer
 10
133.5455023335000533
 20
125.2798160249545276
 30
0.0
 40
8.0
  0
CIRCLE
  5
2F6
100
AcDbEntity
100
AcDbCircle
  8
Rotor Plate
 62
256
370
-1
  6
ByLayer
 10
149.9999850054043691
 20
134.7798160249545276
 30
0.0
 40
3.9300000000000002
  0
ENDSEC
  0
SECTION
  2
OBJECTS
  0
DICTIONARY
  5
C
100
AcDbDictionary
280
0
281
1
  3
ACAD_GROUP
350
D
  3
ACAD_LAYOUT
350
1A
  3
ACAD_MLINESTYLE
350
17
  3
ACAD_PLOTSETTINGS
350
19
  3
ACAD_PLOTSTYLENAME
350
E
  3
AcDbVariableDictionary
350
2F7
  0
DICTIONARY
  5
D
100
AcDbDictionary
280
0
281
1
  0
ACDBDICTIONARYWDFLT
  5
E
100
AcDbDictionary
281
1
  3
Normal
350
F
100
AcDbDictionaryWithDefault
340
F
  0
ACDBPLACEHOLDER
  5
F
  0
DICTIONARY
  5
17
100
AcDbDictionary
280
0
281
1
  3
Standard
350
18
  0
MLINESTYLE
  5
18
100
AcDbMlineStyle
  2
STANDARD
 70
0
  3

 62
256
 51
90.0
 52
90.0
 71
2
 49
0.5
 62
256
  6
BYLAYER
 49
-0.5
 62
256
  6
BYLAYER
  0
DICTIONARY
  5
19
100
AcDbDictionary
280
0
281
1
  0
DICTIONARY
  5
1A
100
AcDbDictionary
281
1
  3
Layout1
350
1E
  3
Layout2
350
26
  3
Model
350
22
  0
LAYOUT
  5
1E
100
AcDbPlotSettings
  1

  2
C:\Program Files\AutoCAD 2002\plotters\DWF ePlot (optimized for plotting).pc3
  4

  6

 40
0.0
 41
0.0
 42
0.0
 43
0.0
 44
0.0
 45
0.0
 46
0.0
 47
0.0
 48
0.0
 49
0.0
140
0.0
141
0.0
142
1.0
143
1.0
 70
688
 72
0
 73
0
 74
5
  7

 75
16
147
1.0
148
0.0
149
0.0
100
AcDbLayout
  1
Layout1
 70
1
 71
1
 10
0.0
 20
0.0
 11
420.0
 21
297.0
 12
0.0
 22
0.0
 32
0.0
 14
100000000000000000000.0
 24
100000000000000000000.0
 34
100000000000000000000.0
 15
-100000000000000000000.0
 25
-100000000000000000000.0
 35
-100000000000000000000.0
146
0.0
 13
0.0
 23
0.0
 33
0.0
 16
1.0
 26
0.0
 36
0.0
 17
0.0
 27
1.0
 37
0.0
 76
0
330
1B
  0
LAYOUT
  5
22
100
AcDbPlotSettings
  1

  2
C:\Program Files\AutoCAD 2002\plotters\DWF ePlot (optimized for plotting).pc3
  4

  6

 40
0.0
 41
0.0
 42
0.0
 43
0.0
 44
0.0
 45
0.0
 46
0.0
 47
0.0
 48
0.0
 49
0.0
140
0.0
141
0.0
142
1.0
143
1.0
 70
1712
 72
0
 73
0
 74
0
  7

 75
0
147
1.0
148
0.0
149
0.0
100
AcDbLayout
  1
Model
 70
1
 71
0
 10
0.0
 20
0.0
 11
12.0
 21
9.0
 12
0.0
 22
0.0
 32
0.0
 14
0.0
 24
0.0
 34
0.0
 15
0.0
 25
0.0
 35
0.0
146
0.0
 13
0.0
 23
0.0
 33
0.0
 16
1.0
 26
0.0
 36
0.0
 17
0.0
 27
1.0
 37
0.0
 76
0
330
1F
  0
LAYOUT
  5
26
100
AcDbPlotSettings
  1

  2
C:\Program Files\AutoCAD 2002\plotters\DWF ePlot (optimized for plotting).pc3
  4

  6

 40
0.0
 41
0.0
 42
0.0
 43
0.0
 44
0.0
 45
0.0
 46
0.0
 47
0.0
 48
0.0
 49
0.0
140
0.0
141
0.0
142
1.0
143
1.0
 70
688
 72
0
 73
0
 74
5
  7

 75
16
147
1.0
148
0.0
149
0.0
100
AcDbLayout
  1
Layout2
 70
1
 71
2
 10
0.0
 20
0.0
 11
12.0
 21
9.0
 12
0.0
 22
0.0
 32
0.0
 14
0.0
 24
0.0
 34
0.0
 15
0.0
 25
0.0
 35
0.0
146
0.0
 13
0.0
 23
0.0
 33
0.0
 16
1.0
 26
0.0
 36
0.0
 17
0.0
 27
1.0
 37
0.0
 76
0
330
23
  0
DICTIONARY
  5
2F7
100
AcDbDictionary
281
1
  3
DIMASSOC
350
2F9
  3
HIDETEXT
350
2F8
  0
DICTIONARYVAR
  5
2F8
100
DictionaryVariables
280
0
  1
2
  0
DICTIONARYVAR
  5
2F9
100
DictionaryVariables
280
0
  1
1
  0
ENDSEC
  0
EOF
