G04 (Genere par PCBNEW (2007-02-16)) le 2/6/2007-00:34:15*
G01*
G70*
G90*
%MOIN*%
G04 Gerber Fmt 3.4, Leading zero omitted, Abs format*
%FSLAX34Y34*%
G04 APERTURE LIST*
%ADD10C,0.015000*%
%ADD11R,0.080000X0.080000*%
%ADD12C,0.080000*%
%ADD13R,0.055000X0.055000*%
%ADD14C,0.055000*%
%ADD15R,0.070000X0.070000*%
%ADD16C,0.070000*%
%ADD17R,0.100000X0.100000*%
%ADD18C,0.100000*%
%ADD19C,0.080000*%
%ADD20C,0.040000*%
%ADD21C,0.070000*%
%ADD22C,0.025000*%
%ADD23C,0.001000*%
%ADD24R,0.075000X0.075000*%
%ADD25C,0.075000*%
%ADD26R,0.090000X0.090000*%
%ADD27C,0.090000*%
%ADD28R,0.120000X0.120000*%
%ADD29C,0.120000*%
%ADD30C,0.160000*%
G04 APERTURE END LIST*
G54D10*
X83700Y-21500D02*
X42400Y-21500D01*
X42400Y-47800D02*
X83700Y-47800D01*
X42400Y-21500D02*
X42400Y-47800D01*
X83700Y-47800D02*
X83700Y-21500D01*
G54D23*
X44800Y-23000D02*
X44782Y-23166D01*
X44782Y-23166D02*
X44730Y-23325D01*
X44730Y-23325D02*
X44647Y-23470D01*
X44647Y-23470D02*
X44535Y-23594D01*
X44535Y-23594D02*
X44400Y-23692D01*
X44400Y-23692D02*
X44247Y-23760D01*
X44247Y-23760D02*
X44083Y-23795D01*
X44083Y-23795D02*
X43917Y-23795D01*
X43917Y-23795D02*
X43753Y-23760D01*
X43753Y-23760D02*
X43600Y-23692D01*
X43600Y-23692D02*
X43465Y-23594D01*
X43465Y-23594D02*
X43353Y-23470D01*
X43353Y-23470D02*
X43270Y-23325D01*
X43270Y-23325D02*
X43218Y-23166D01*
X43218Y-23166D02*
X43200Y-23000D01*
X43200Y-23000D02*
X43218Y-22834D01*
X43218Y-22834D02*
X43270Y-22675D01*
X43270Y-22675D02*
X43353Y-22530D01*
X43353Y-22530D02*
X43465Y-22406D01*
X43465Y-22406D02*
X43600Y-22308D01*
X43600Y-22308D02*
X43753Y-22240D01*
X43753Y-22240D02*
X43917Y-22205D01*
X43917Y-22205D02*
X44083Y-22205D01*
X44083Y-22205D02*
X44247Y-22240D01*
X44247Y-22240D02*
X44400Y-22308D01*
X44400Y-22308D02*
X44535Y-22406D01*
X44535Y-22406D02*
X44647Y-22530D01*
X44647Y-22530D02*
X44730Y-22675D01*
X44730Y-22675D02*
X44782Y-22834D01*
X44782Y-22834D02*
X44800Y-23000D01*
X45000Y-30300D02*
X44991Y-30383D01*
X44991Y-30383D02*
X44965Y-30462D01*
X44965Y-30462D02*
X44923Y-30535D01*
X44923Y-30535D02*
X44867Y-30597D01*
X44867Y-30597D02*
X44800Y-30646D01*
X44800Y-30646D02*
X44723Y-30680D01*
X44723Y-30680D02*
X44641Y-30697D01*
X44641Y-30697D02*
X44559Y-30697D01*
X44559Y-30697D02*
X44477Y-30680D01*
X44477Y-30680D02*
X44400Y-30646D01*
X44400Y-30646D02*
X44333Y-30597D01*
X44333Y-30597D02*
X44277Y-30535D01*
X44277Y-30535D02*
X44235Y-30462D01*
X44235Y-30462D02*
X44209Y-30383D01*
X44209Y-30383D02*
X44200Y-30300D01*
X44200Y-30300D02*
X44209Y-30217D01*
X44209Y-30217D02*
X44235Y-30138D01*
X44235Y-30138D02*
X44277Y-30065D01*
X44277Y-30065D02*
X44333Y-30003D01*
X44333Y-30003D02*
X44400Y-29954D01*
X44400Y-29954D02*
X44477Y-29920D01*
X44477Y-29920D02*
X44559Y-29903D01*
X44559Y-29903D02*
X44641Y-29903D01*
X44641Y-29903D02*
X44723Y-29920D01*
X44723Y-29920D02*
X44800Y-29954D01*
X44800Y-29954D02*
X44867Y-30003D01*
X44867Y-30003D02*
X44923Y-30065D01*
X44923Y-30065D02*
X44965Y-30138D01*
X44965Y-30138D02*
X44991Y-30217D01*
X44991Y-30217D02*
X45000Y-30300D01*
X45000Y-29300D02*
X44991Y-29383D01*
X44991Y-29383D02*
X44965Y-29462D01*
X44965Y-29462D02*
X44923Y-29535D01*
X44923Y-29535D02*
X44867Y-29597D01*
X44867Y-29597D02*
X44800Y-29646D01*
X44800Y-29646D02*
X44723Y-29680D01*
X44723Y-29680D02*
X44641Y-29697D01*
X44641Y-29697D02*
X44559Y-29697D01*
X44559Y-29697D02*
X44477Y-29680D01*
X44477Y-29680D02*
X44400Y-29646D01*
X44400Y-29646D02*
X44333Y-29597D01*
X44333Y-29597D02*
X44277Y-29535D01*
X44277Y-29535D02*
X44235Y-29462D01*
X44235Y-29462D02*
X44209Y-29383D01*
X44209Y-29383D02*
X44200Y-29300D01*
X44200Y-29300D02*
X44209Y-29217D01*
X44209Y-29217D02*
X44235Y-29138D01*
X44235Y-29138D02*
X44277Y-29065D01*
X44277Y-29065D02*
X44333Y-29003D01*
X44333Y-29003D02*
X44400Y-28954D01*
X44400Y-28954D02*
X44477Y-28920D01*
X44477Y-28920D02*
X44559Y-28903D01*
X44559Y-28903D02*
X44641Y-28903D01*
X44641Y-28903D02*
X44723Y-28920D01*
X44723Y-28920D02*
X44800Y-28954D01*
X44800Y-28954D02*
X44867Y-29003D01*
X44867Y-29003D02*
X44923Y-29065D01*
X44923Y-29065D02*
X44965Y-29138D01*
X44965Y-29138D02*
X44991Y-29217D01*
X44991Y-29217D02*
X45000Y-29300D01*
X45000Y-28300D02*
X44991Y-28383D01*
X44991Y-28383D02*
X44965Y-28462D01*
X44965Y-28462D02*
X44923Y-28535D01*
X44923Y-28535D02*
X44867Y-28597D01*
X44867Y-28597D02*
X44800Y-28646D01*
X44800Y-28646D02*
X44723Y-28680D01*
X44723Y-28680D02*
X44641Y-28697D01*
X44641Y-28697D02*
X44559Y-28697D01*
X44559Y-28697D02*
X44477Y-28680D01*
X44477Y-28680D02*
X44400Y-28646D01*
X44400Y-28646D02*
X44333Y-28597D01*
X44333Y-28597D02*
X44277Y-28535D01*
X44277Y-28535D02*
X44235Y-28462D01*
X44235Y-28462D02*
X44209Y-28383D01*
X44209Y-28383D02*
X44200Y-28300D01*
X44200Y-28300D02*
X44209Y-28217D01*
X44209Y-28217D02*
X44235Y-28138D01*
X44235Y-28138D02*
X44277Y-28065D01*
X44277Y-28065D02*
X44333Y-28003D01*
X44333Y-28003D02*
X44400Y-27954D01*
X44400Y-27954D02*
X44477Y-27920D01*
X44477Y-27920D02*
X44559Y-27903D01*
X44559Y-27903D02*
X44641Y-27903D01*
X44641Y-27903D02*
X44723Y-27920D01*
X44723Y-27920D02*
X44800Y-27954D01*
X44800Y-27954D02*
X44867Y-28003D01*
X44867Y-28003D02*
X44923Y-28065D01*
X44923Y-28065D02*
X44965Y-28138D01*
X44965Y-28138D02*
X44991Y-28217D01*
X44991Y-28217D02*
X45000Y-28300D01*
X45000Y-27300D02*
X44991Y-27383D01*
X44991Y-27383D02*
X44965Y-27462D01*
X44965Y-27462D02*
X44923Y-27535D01*
X44923Y-27535D02*
X44867Y-27597D01*
X44867Y-27597D02*
X44800Y-27646D01*
X44800Y-27646D02*
X44723Y-27680D01*
X44723Y-27680D02*
X44641Y-27697D01*
X44641Y-27697D02*
X44559Y-27697D01*
X44559Y-27697D02*
X44477Y-27680D01*
X44477Y-27680D02*
X44400Y-27646D01*
X44400Y-27646D02*
X44333Y-27597D01*
X44333Y-27597D02*
X44277Y-27535D01*
X44277Y-27535D02*
X44235Y-27462D01*
X44235Y-27462D02*
X44209Y-27383D01*
X44209Y-27383D02*
X44200Y-27300D01*
X44200Y-27300D02*
X44209Y-27217D01*
X44209Y-27217D02*
X44235Y-27138D01*
X44235Y-27138D02*
X44277Y-27065D01*
X44277Y-27065D02*
X44333Y-27003D01*
X44333Y-27003D02*
X44400Y-26954D01*
X44400Y-26954D02*
X44477Y-26920D01*
X44477Y-26920D02*
X44559Y-26903D01*
X44559Y-26903D02*
X44641Y-26903D01*
X44641Y-26903D02*
X44723Y-26920D01*
X44723Y-26920D02*
X44800Y-26954D01*
X44800Y-26954D02*
X44867Y-27003D01*
X44867Y-27003D02*
X44923Y-27065D01*
X44923Y-27065D02*
X44965Y-27138D01*
X44965Y-27138D02*
X44991Y-27217D01*
X44991Y-27217D02*
X45000Y-27300D01*
X45000Y-26300D02*
X44991Y-26383D01*
X44991Y-26383D02*
X44965Y-26462D01*
X44965Y-26462D02*
X44923Y-26535D01*
X44923Y-26535D02*
X44867Y-26597D01*
X44867Y-26597D02*
X44800Y-26646D01*
X44800Y-26646D02*
X44723Y-26680D01*
X44723Y-26680D02*
X44641Y-26697D01*
X44641Y-26697D02*
X44559Y-26697D01*
X44559Y-26697D02*
X44477Y-26680D01*
X44477Y-26680D02*
X44400Y-26646D01*
X44400Y-26646D02*
X44333Y-26597D01*
X44333Y-26597D02*
X44277Y-26535D01*
X44277Y-26535D02*
X44235Y-26462D01*
X44235Y-26462D02*
X44209Y-26383D01*
X44209Y-26383D02*
X44200Y-26300D01*
X44200Y-26300D02*
X44209Y-26217D01*
X44209Y-26217D02*
X44235Y-26138D01*
X44235Y-26138D02*
X44277Y-26065D01*
X44277Y-26065D02*
X44333Y-26003D01*
X44333Y-26003D02*
X44400Y-25954D01*
X44400Y-25954D02*
X44477Y-25920D01*
X44477Y-25920D02*
X44559Y-25903D01*
X44559Y-25903D02*
X44641Y-25903D01*
X44641Y-25903D02*
X44723Y-25920D01*
X44723Y-25920D02*
X44800Y-25954D01*
X44800Y-25954D02*
X44867Y-26003D01*
X44867Y-26003D02*
X44923Y-26065D01*
X44923Y-26065D02*
X44965Y-26138D01*
X44965Y-26138D02*
X44991Y-26217D01*
X44991Y-26217D02*
X45000Y-26300D01*
X45000Y-25300D02*
X44991Y-25383D01*
X44991Y-25383D02*
X44965Y-25462D01*
X44965Y-25462D02*
X44923Y-25535D01*
X44923Y-25535D02*
X44867Y-25597D01*
X44867Y-25597D02*
X44800Y-25646D01*
X44800Y-25646D02*
X44723Y-25680D01*
X44723Y-25680D02*
X44641Y-25697D01*
X44641Y-25697D02*
X44559Y-25697D01*
X44559Y-25697D02*
X44477Y-25680D01*
X44477Y-25680D02*
X44400Y-25646D01*
X44400Y-25646D02*
X44333Y-25597D01*
X44333Y-25597D02*
X44277Y-25535D01*
X44277Y-25535D02*
X44235Y-25462D01*
X44235Y-25462D02*
X44209Y-25383D01*
X44209Y-25383D02*
X44200Y-25300D01*
X44200Y-25300D02*
X44209Y-25217D01*
X44209Y-25217D02*
X44235Y-25138D01*
X44235Y-25138D02*
X44277Y-25065D01*
X44277Y-25065D02*
X44333Y-25003D01*
X44333Y-25003D02*
X44400Y-24954D01*
X44400Y-24954D02*
X44477Y-24920D01*
X44477Y-24920D02*
X44559Y-24903D01*
X44559Y-24903D02*
X44641Y-24903D01*
X44641Y-24903D02*
X44723Y-24920D01*
X44723Y-24920D02*
X44800Y-24954D01*
X44800Y-24954D02*
X44867Y-25003D01*
X44867Y-25003D02*
X44923Y-25065D01*
X44923Y-25065D02*
X44965Y-25138D01*
X44965Y-25138D02*
X44991Y-25217D01*
X44991Y-25217D02*
X45000Y-25300D01*
X44800Y-46400D02*
X44782Y-46566D01*
X44782Y-46566D02*
X44730Y-46725D01*
X44730Y-46725D02*
X44647Y-46870D01*
X44647Y-46870D02*
X44535Y-46994D01*
X44535Y-46994D02*
X44400Y-47092D01*
X44400Y-47092D02*
X44247Y-47160D01*
X44247Y-47160D02*
X44083Y-47195D01*
X44083Y-47195D02*
X43917Y-47195D01*
X43917Y-47195D02*
X43753Y-47160D01*
X43753Y-47160D02*
X43600Y-47092D01*
X43600Y-47092D02*
X43465Y-46994D01*
X43465Y-46994D02*
X43353Y-46870D01*
X43353Y-46870D02*
X43270Y-46725D01*
X43270Y-46725D02*
X43218Y-46566D01*
X43218Y-46566D02*
X43200Y-46400D01*
X43200Y-46400D02*
X43218Y-46234D01*
X43218Y-46234D02*
X43270Y-46075D01*
X43270Y-46075D02*
X43353Y-45930D01*
X43353Y-45930D02*
X43465Y-45806D01*
X43465Y-45806D02*
X43600Y-45708D01*
X43600Y-45708D02*
X43753Y-45640D01*
X43753Y-45640D02*
X43917Y-45605D01*
X43917Y-45605D02*
X44083Y-45605D01*
X44083Y-45605D02*
X44247Y-45640D01*
X44247Y-45640D02*
X44400Y-45708D01*
X44400Y-45708D02*
X44535Y-45806D01*
X44535Y-45806D02*
X44647Y-45930D01*
X44647Y-45930D02*
X44730Y-46075D01*
X44730Y-46075D02*
X44782Y-46234D01*
X44782Y-46234D02*
X44800Y-46400D01*
X83000Y-23000D02*
X82982Y-23166D01*
X82982Y-23166D02*
X82930Y-23325D01*
X82930Y-23325D02*
X82847Y-23470D01*
X82847Y-23470D02*
X82735Y-23594D01*
X82735Y-23594D02*
X82600Y-23692D01*
X82600Y-23692D02*
X82447Y-23760D01*
X82447Y-23760D02*
X82283Y-23795D01*
X82283Y-23795D02*
X82117Y-23795D01*
X82117Y-23795D02*
X81953Y-23760D01*
X81953Y-23760D02*
X81800Y-23692D01*
X81800Y-23692D02*
X81665Y-23594D01*
X81665Y-23594D02*
X81553Y-23470D01*
X81553Y-23470D02*
X81470Y-23325D01*
X81470Y-23325D02*
X81418Y-23166D01*
X81418Y-23166D02*
X81400Y-23000D01*
X81400Y-23000D02*
X81418Y-22834D01*
X81418Y-22834D02*
X81470Y-22675D01*
X81470Y-22675D02*
X81553Y-22530D01*
X81553Y-22530D02*
X81665Y-22406D01*
X81665Y-22406D02*
X81800Y-22308D01*
X81800Y-22308D02*
X81953Y-22240D01*
X81953Y-22240D02*
X82117Y-22205D01*
X82117Y-22205D02*
X82283Y-22205D01*
X82283Y-22205D02*
X82447Y-22240D01*
X82447Y-22240D02*
X82600Y-22308D01*
X82600Y-22308D02*
X82735Y-22406D01*
X82735Y-22406D02*
X82847Y-22530D01*
X82847Y-22530D02*
X82930Y-22675D01*
X82930Y-22675D02*
X82982Y-22834D01*
X82982Y-22834D02*
X83000Y-23000D01*
M02*
