<?xml version="1.0" encoding="ISO-8859-1" standalone="no"?>
<!DOCTYPE svg PUBLIC "-//W3C//DTD SVG 1.1//EN" "http://www.w3.org/Graphics/SVG/1.1/DTD/svg11.dtd">
<svg version="1.1" baseProfile="full" id="body" width="8in" height="8in" viewBox="0 0 1 1" preserveAspectRatio="none" xmlns="http://www.w3.org/2000/svg" xmlns:xlink="http://www.w3.org/1999/xlink" xmlns:ev="http://www.w3.org/2001/xml-events">
<title>SVG drawing</title>
<desc>This was produced by version 4.2 of GNU libplot, a free library for exporting 2-D vector graphics.</desc>
<rect id="background" x="0" y="0" width="1" height="1" stroke="none" fill="white"/>
<g id="content" transform="translate(-0.03125,1.1875) scale(1,-1) scale(0.0017361) " xml:space="preserve" stroke="black" stroke-linecap="butt" stroke-linejoin="miter" stroke-miterlimit="10.433" stroke-dasharray="none" stroke-dashoffset="0" stroke-opacity="1" fill="none" fill-rule="even-odd" fill-opacity="1" font-style="normal" font-variant="normal" font-weight="normal" font-stretch="normal" font-size-adjust="none" letter-spacing="normal" word-spacing="normal" text-anchor="start">
<polyline points="171.68,134 173.12,134 171.68,131.84 173.12,131.84 " stroke="fuchsia" stroke-width="0" />
<polyline points="173.84,131.84 173.84,134 174.56,132.56 175.28,134 175.28,131.84 " stroke="fuchsia" stroke-width="0" />
<polyline points="176,131.84 177.2,131.84 177.44,132.32 177.44,132.56 177.2,133.04 176.48,133.04 " stroke="fuchsia" stroke-width="0" />
<polyline points="177.2,133.04 177.44,133.28 177.44,133.76 177.2,134 176,134 " stroke="fuchsia" stroke-width="0" />
<line x1="176.48" y1="134" x2="176.48" y2="131.84" stroke="fuchsia" stroke-width="0" />
<polyline points="178.16,133.76 178.64,134 179.36,134 179.84,133.76 179.84,133.28 179.36,133.04 178.88,133.04 " stroke="fuchsia" stroke-width="0" />
<polyline points="179.36,133.04 179.84,132.56 179.84,132.32 179.36,131.84 178.64,131.84 178.16,132.32 " stroke="fuchsia" stroke-width="0" />
<line x1="200.48" y1="122.72" x2="164.24" y2="120.8" stroke-width="0" />
<line x1="132.56" y1="50.48" x2="200.48" y2="50.48" stroke-width="0" />
<path d="M148.55,73.508 L148.92,72.871 L149.3,72.25 L149.7,71.645 L150.12,71.056 L150.56,70.483 L151.02,69.927 L151.49,69.389 L151.98,68.867 L152.49,68.363 L153.01,67.877 L153.54,67.41 L154.1,66.961 L154.66,66.531 L155.24,66.12 L155.83,65.728 L156.43,65.357 L157.05,65.006 L157.68,64.675 L158.32,64.364 L158.97,64.075 L159.62,63.807 L160.29,63.561 L160.97,63.337 L161.65,63.135 L162.35,62.956 L163.05,62.799 L163.75,62.666 L164.47,62.557 L165.19,62.471 L165.91,62.409 L166.64,62.372 L167.37,62.359 C179.21,62.359,188.82,71.961,188.82,83.801 C188.82,95.637,179.21,105.24,167.37,105.24 C155.53,105.24,145.92,95.637,145.92,83.801 C145.92,82.73,146,81.652,146.16,80.594 " stroke-width="0" />
<path d="M173.58,147.53 L173.57,147.68 L173.56,147.82 L173.55,147.97 L173.52,148.11 L173.49,148.24 L173.45,148.38 L173.4,148.51 L173.35,148.64 L173.3,148.77 L173.23,148.89 L173.16,149.01 L173.09,149.13 L173.01,149.24 L172.92,149.35 L172.83,149.45 L172.74,149.55 L172.64,149.64 L172.54,149.73 L172.43,149.82 L172.32,149.9 L172.2,149.97 L172.08,150.04 L171.96,150.1 L171.83,150.16 L171.7,150.21 L171.57,150.26 L171.43,150.3 L171.29,150.33 L171.15,150.35 L171.01,150.37 L170.87,150.38 L170.72,150.39 C169.14,150.39,167.86,149.1,167.86,147.53 C167.86,145.95,169.14,144.67,170.72,144.67 C172.3,144.67,173.58,145.95,173.58,147.53 Z " stroke-width="0" />
<line x1="194.24" y1="161.36" x2="164.48" y2="161.36" stroke-width="0" />
<line x1="165.2" y1="124.4" x2="193.28" y2="124.4" stroke-width="0" />
<polyline points="70.641,105.44 71.121,104 68.48,104.72 68.961,103.28 " stroke="fuchsia" stroke-width="0" />
<polyline points="69.199,102.56 71.359,103.28 70.16,102.08 71.84,101.84 69.68,101.12 " stroke="fuchsia" stroke-width="0" />
<polyline points="69.922,100.4 70.398,99.441 70.879,99.199 71.121,99.441 71.359,99.922 71.121,100.4 " stroke="fuchsia" stroke-width="0" />
<polyline points="71.359,99.922 71.84,99.68 72.32,99.68 72.559,100.16 72.078,101.12 " stroke="fuchsia" stroke-width="0" />
<line x1="72.32" y1="100.88" x2="70.16" y2="100.16" stroke="fuchsia" stroke-width="0" />
<polyline points="72.559,98.961 73.039,98.719 73.281,98 73.039,97.762 72.559,97.52 72.078,97.762 72.078,98 " stroke="fuchsia" stroke-width="0" />
<polyline points="72.078,97.762 71.84,97.281 71.602,97.281 71.121,97.281 70.879,98 71.121,98.48 " stroke="fuchsia" stroke-width="0" />
<path d="M68.641,81.453 L68.949,81.31 L69.262,81.176 L69.577,81.051 L69.896,80.935 L70.218,80.828 L70.542,80.73 L70.869,80.641 L71.198,80.561 L71.53,80.49 L71.863,80.429 L72.198,80.377 L72.534,80.334 L72.872,80.301 L73.211,80.277 L73.55,80.263 L73.891,80.258 C74.633,80.258,75.383,80.328,76.117,80.465 " stroke-width="0" />
<line x1="71.121" y1="93.441" x2="68.961" y2="92.48" stroke-width="0" />
<line x1="80.238" y1="120.32" x2="67.039" y2="117.44" stroke-width="0" />
<line x1="68.961" y1="92.48" x2="70.16" y2="88.879" stroke-width="0" />
<line x1="77.602" y1="74.961" x2="51.922" y2="65.602" stroke-width="0" />
<line x1="57.441" y1="50.48" x2="125.36" y2="50.48" stroke-width="0" />
<line x1="51.922" y1="65.602" x2="57.441" y2="50.48" stroke-width="0" />
<path d="M69.176,57.91 L69.172,58.057 L69.161,58.202 L69.143,58.345 L69.118,58.486 L69.086,58.624 L69.047,58.76 L69.002,58.893 L68.951,59.023 L68.894,59.149 L68.83,59.273 L68.762,59.392 L68.687,59.508 L68.607,59.621 L68.522,59.729 L68.433,59.832 L68.338,59.932 L68.239,60.026 L68.135,60.116 L68.027,60.201 L67.915,60.281 L67.799,60.355 L67.679,60.424 L67.556,60.487 L67.429,60.545 L67.299,60.596 L67.166,60.641 L67.031,60.679 L66.892,60.711 L66.752,60.737 L66.609,60.755 L66.463,60.766 L66.316,60.77 C64.738,60.77,63.457,59.488,63.457,57.91 C63.457,56.336,64.738,55.055,66.316,55.055 C67.895,55.055,69.176,56.336,69.176,57.91 Z " stroke-width="0" />
<line x1="58.879" y1="107.84" x2="68.48" y2="81.441" stroke-width="0" />
<path d="M69.176,109.7 L69.172,109.85 L69.161,110 L69.143,110.14 L69.118,110.28 L69.086,110.42 L69.047,110.55 L69.002,110.69 L68.951,110.82 L68.894,110.94 L68.83,111.07 L68.762,111.19 L68.687,111.3 L68.607,111.41 L68.522,111.52 L68.433,111.62 L68.338,111.72 L68.239,111.82 L68.135,111.91 L68.027,111.99 L67.915,112.07 L67.799,112.15 L67.679,112.22 L67.556,112.28 L67.429,112.34 L67.299,112.39 L67.166,112.43 L67.031,112.47 L66.892,112.5 L66.752,112.53 L66.609,112.55 L66.463,112.56 L66.316,112.56 C64.738,112.56,63.453,111.28,63.453,109.7 C63.453,108.12,64.738,106.84,66.316,106.84 C67.895,106.84,69.176,108.12,69.176,109.7 Z " stroke-width="0" />
<line x1="67.039" y1="117.44" x2="62.238" y2="116.48" stroke-width="0" />
<line x1="58.879" y1="107.84" x2="58.879" y2="111.44" stroke-width="0" />
<path d="M62.312,116.61 C60.32,115.79,59.012,113.84,59.008,111.68 " stroke-width="0" />
<line x1="125.36" y1="50.48" x2="125.36" y2="122.72" stroke-width="0" />
<line x1="107.6" y1="70.398" x2="108.8" y2="66.559" stroke-width="0" />
<line x1="112.64" y1="68" x2="111.2" y2="71.602" stroke-width="0" />
<line x1="148.4" y1="73.281" x2="127.04" y2="65.602" stroke-width="0" />
<path d="M108.44,59.324 L108.43,59.55 L108.42,59.773 L108.39,59.993 L108.35,60.21 L108.3,60.422 L108.24,60.631 L108.17,60.835 L108.09,61.035 L108,61.23 L107.91,61.419 L107.8,61.603 L107.69,61.782 L107.56,61.954 L107.43,62.121 L107.29,62.28 L107.15,62.433 L107,62.579 L106.84,62.717 L106.67,62.848 L106.5,62.971 L106.32,63.085 L106.13,63.191 L105.94,63.288 L105.75,63.377 L105.55,63.455 L105.35,63.525 L105.14,63.584 L104.92,63.633 L104.71,63.672 L104.49,63.7 L104.27,63.717 L104.04,63.723 C101.61,63.723,99.637,61.75,99.637,59.324 C99.637,56.898,101.61,54.926,104.04,54.926 C106.46,54.926,108.44,56.898,108.44,59.324 Z " stroke-width="0" />
<path d="M120.98,57.914 L120.98,58.061 L120.97,58.206 L120.95,58.349 L120.93,58.49 L120.89,58.628 L120.86,58.764 L120.81,58.897 L120.76,59.027 L120.7,59.153 L120.64,59.277 L120.57,59.396 L120.5,59.512 L120.42,59.624 L120.33,59.732 L120.24,59.836 L120.15,59.936 L120.05,60.03 L119.94,60.12 L119.84,60.205 L119.72,60.285 L119.61,60.359 L119.49,60.428 L119.36,60.491 L119.24,60.549 L119.11,60.6 L118.97,60.645 L118.84,60.683 L118.7,60.715 L118.56,60.74 L118.42,60.759 L118.27,60.77 L118.12,60.773 C116.55,60.773,115.27,59.492,115.27,57.914 C115.27,56.34,116.55,55.059,118.12,55.059 C119.7,55.059,120.98,56.34,120.98,57.914 Z " stroke-width="0" />
<line x1="108.8" y1="66.559" x2="112.64" y2="68" stroke-width="0" />
<line x1="127.04" y1="65.602" x2="132.56" y2="50.48" stroke-width="0" />
<path d="M144.33,57.902 L144.32,58.049 L144.31,58.194 L144.3,58.338 L144.27,58.478 L144.24,58.617 L144.2,58.752 L144.15,58.885 L144.1,59.015 L144.05,59.142 L143.98,59.265 L143.91,59.385 L143.84,59.501 L143.76,59.613 L143.67,59.721 L143.58,59.824 L143.49,59.924 L143.39,60.019 L143.29,60.108 L143.18,60.193 L143.07,60.273 L142.95,60.348 L142.83,60.416 L142.71,60.48 L142.58,60.537 L142.45,60.588 L142.32,60.633 L142.18,60.672 L142.04,60.704 L141.9,60.729 L141.76,60.747 L141.62,60.758 L141.47,60.762 C139.89,60.762,138.61,59.48,138.61,57.902 C138.61,56.324,139.89,55.043,141.47,55.043 C143.05,55.043,144.33,56.324,144.33,57.902 Z " stroke-width="0" />
<line x1="121.04" y1="148.64" x2="125.12" y2="148.64" stroke-width="0" />
<line x1="133.04" y1="152.72" x2="121.04" y2="152.72" stroke-width="0" />
<line x1="121.04" y1="126.08" x2="128.96" y2="126.08" stroke-width="0" />
<line x1="143.36" y1="140.72" x2="121.04" y2="140.72" stroke-width="0" />
<polyline points="125.36,122.72 89.121,120.8 80.238,120.32 " stroke-width="0" />
<polyline points="90.32,75.68 91.762,76.16 91.039,73.762 92.48,74.238 " stroke="fuchsia" stroke-width="0" />
<polyline points="93.199,74.48 92.48,76.398 93.68,75.199 93.68,76.879 94.398,74.961 " stroke="fuchsia" stroke-width="0" />
<polyline points="95.121,75.199 96.32,75.441 96.559,75.922 96.32,76.398 95.84,76.398 95.121,76.16 " stroke="fuchsia" stroke-width="0" />
<polyline points="95.84,76.398 96.078,76.879 96.078,77.359 95.602,77.602 94.398,77.121 " stroke="fuchsia" stroke-width="0" />
<line x1="94.879" y1="77.359" x2="95.602" y2="75.199" stroke="fuchsia" stroke-width="0" />
<polyline points="98.48,77.121 97.039,76.641 97.52,78.32 98.238,76.16 " stroke="fuchsia" stroke-width="0" />
<line x1="92.238" y1="68.961" x2="106.16" y2="74" stroke-width="0" />
<line x1="91.039" y1="72.801" x2="104.72" y2="77.84" stroke-width="0" />
<path d="M96.621,83.809 L96.615,84.035 L96.598,84.258 L96.57,84.478 L96.532,84.694 L96.482,84.907 L96.423,85.115 L96.354,85.32 L96.275,85.519 L96.187,85.714 L96.089,85.904 L95.983,86.088 L95.869,86.266 L95.746,86.439 L95.615,86.605 L95.477,86.765 L95.331,86.917 L95.178,87.063 L95.018,87.202 L94.852,87.332 L94.679,87.455 L94.501,87.569 L94.316,87.675 L94.127,87.773 L93.932,87.861 L93.732,87.94 L93.527,88.009 L93.318,88.068 L93.106,88.118 L92.889,88.156 L92.669,88.184 L92.445,88.201 L92.219,88.207 C89.793,88.207,87.82,86.234,87.82,83.809 C87.82,81.383,89.793,79.414,92.219,79.414 C94.648,79.414,96.621,81.383,96.621,83.809 Z " stroke-width="0" />
<polyline points="78.32,95.121 79.762,95.602 79.281,92.961 80.48,93.441 " stroke="fuchsia" stroke-width="0" />
<polyline points="81.199,93.68 80.48,95.84 81.68,94.641 81.922,96.32 82.641,94.16 " stroke="fuchsia" stroke-width="0" />
<polyline points="83.359,94.398 84.32,94.879 84.559,95.121 84.559,95.602 84.078,95.84 83.359,95.602 " stroke="fuchsia" stroke-width="0" />
<polyline points="84.078,95.84 84.32,96.32 84.078,96.559 83.602,96.801 82.641,96.559 " stroke="fuchsia" stroke-width="0" />
<line x1="82.879" y1="96.559" x2="83.602" y2="94.641" stroke="fuchsia" stroke-width="0" />
<polyline points="84.801,96.801 85.039,97.281 85.762,97.52 86.238,97.281 86.238,97.039 86,96.559 85.762,96.32 " stroke="fuchsia" stroke-width="0" />
<polyline points="86,96.559 86.48,96.32 86.719,96.078 86.48,95.602 85.762,95.359 85.281,95.359 " stroke="fuchsia" stroke-width="0" />
<line x1="70.398" y1="95.84" x2="71.121" y2="93.441" stroke-width="0" />
<line x1="78.801" y1="92" x2="77.359" y2="95.602" stroke-width="0" />
<path d="M78.668,79.051 L78.637,79.131 L78.603,79.21 L78.566,79.287 L78.526,79.362 L78.484,79.435 L78.439,79.507 L78.391,79.576 L78.341,79.643 L78.289,79.708 L78.234,79.771 L78.177,79.832 L78.118,79.89 L78.057,79.947 L77.994,80 L77.929,80.052 L77.862,80.101 L77.793,80.147 L77.723,80.191 L77.651,80.232 L77.577,80.27 L77.502,80.306 L77.426,80.339 L77.348,80.368 L77.269,80.396 L77.189,80.42 L77.107,80.441 L77.025,80.459 L76.942,80.473 L76.858,80.485 L76.773,80.493 L76.688,80.498 L76.602,80.5 C76.441,80.5,76.273,80.48,76.121,80.445 " stroke-width="0" />
<path d="M77.766,75.105 L77.846,75.137 L77.925,75.171 L78.002,75.208 L78.077,75.247 L78.15,75.29 L78.221,75.335 L78.29,75.382 L78.357,75.432 L78.422,75.485 L78.485,75.539 L78.546,75.596 L78.604,75.655 L78.66,75.716 L78.714,75.78 L78.765,75.845 L78.813,75.912 L78.86,75.98 L78.903,76.051 L78.944,76.123 L78.982,76.196 L79.018,76.271 L79.05,76.348 L79.08,76.426 L79.107,76.505 L79.131,76.585 L79.152,76.666 L79.17,76.748 L79.184,76.831 L79.196,76.915 L79.204,77 L79.209,77.086 L79.211,77.172 C79.211,77.426,79.164,77.684,79.078,77.922 " stroke-width="0" />
<line x1="78.559" y1="79.039" x2="79.039" y2="77.84" stroke-width="0" />
<line x1="73.52" y1="87.199" x2="77.121" y2="88.641" stroke-width="0" />
<polyline points="70.16,88.879 72.559,89.602 73.52,87.199 " stroke-width="0" />
<polyline points="77.121,88.641 76.398,91.039 78.801,92 " stroke-width="0" />
<line x1="92.238" y1="68.961" x2="91.039" y2="72.801" stroke-width="0" />
<path d="M85.297,110.67 L85.293,110.82 L85.282,110.96 L85.264,111.11 L85.239,111.25 L85.207,111.38 L85.168,111.52 L85.123,111.65 L85.072,111.78 L85.015,111.91 L84.952,112.03 L84.883,112.15 L84.808,112.27 L84.729,112.38 L84.644,112.49 L84.554,112.59 L84.459,112.69 L84.36,112.78 L84.256,112.87 L84.148,112.96 L84.036,113.04 L83.92,113.11 L83.8,113.18 L83.677,113.24 L83.55,113.3 L83.42,113.35 L83.287,113.4 L83.152,113.44 L83.013,113.47 L82.873,113.49 L82.73,113.51 L82.585,113.52 L82.438,113.53 C80.859,113.53,79.578,112.25,79.578,110.67 C79.578,109.09,80.859,107.81,82.438,107.81 C84.016,107.81,85.297,109.09,85.297,110.67 Z " stroke-width="0" />
<line x1="77.359" y1="95.602" x2="74.961" y2="94.879" stroke-width="0" />
<line x1="74" y1="97.039" x2="70.398" y2="95.84" stroke-width="0" />
<line x1="74.961" y1="94.879" x2="74" y2="97.039" stroke-width="0" />
<line x1="111.2" y1="71.602" x2="107.6" y2="70.398" stroke-width="0" />
<line x1="104.72" y1="77.84" x2="99.68" y2="91.52" stroke-width="0" />
<line x1="108.56" y1="79.039" x2="103.52" y2="92.961" stroke-width="0" />
<line x1="104.72" y1="77.84" x2="108.56" y2="79.039" stroke-width="0" />
<line x1="106.16" y1="74" x2="104.72" y2="77.84" stroke-width="0" />
<line x1="103.52" y1="92.961" x2="99.68" y2="91.52" stroke-width="0" />
<polyline points="99.441,90.801 99.922,89.359 97.281,90.078 97.762,88.641 " stroke="fuchsia" stroke-width="0" />
<polyline points="98,87.922 100.16,88.879 98.961,87.68 100.64,87.441 98.48,86.719 " stroke="fuchsia" stroke-width="0" />
<polyline points="98.719,86 99.199,85.039 99.68,84.801 99.922,84.801 100.16,85.281 99.922,86 " stroke="fuchsia" stroke-width="0" />
<polyline points="100.16,85.281 100.64,85.039 101.12,85.281 101.36,85.762 100.88,86.719 " stroke="fuchsia" stroke-width="0" />
<line x1="101.12" y1="86.238" x2="98.961" y2="85.52" stroke="fuchsia" stroke-width="0" />
<polyline points="101.36,84.559 101.84,84.32 102.08,83.602 101.84,83.121 101.36,83.121 100.88,83.121 100.64,83.84 100.16,84.078 99.441,83.84 100.16,82.398 " stroke="fuchsia" stroke-width="0" />
<line x1="116" y1="81.922" x2="112.16" y2="80.48" stroke-width="0" />
<line x1="117.2" y1="78.078" x2="116" y2="81.922" stroke-width="0" />
<line x1="113.6" y1="76.879" x2="117.2" y2="78.078" stroke-width="0" />
<line x1="112.16" y1="80.48" x2="113.6" y2="76.879" stroke-width="0" />
<path d="M110.6,112.39 L110.59,112.62 L110.58,112.84 L110.55,113.06 L110.51,113.28 L110.46,113.49 L110.4,113.7 L110.33,113.9 L110.25,114.1 L110.16,114.3 L110.07,114.49 L109.96,114.67 L109.85,114.85 L109.72,115.02 L109.59,115.19 L109.45,115.35 L109.31,115.5 L109.16,115.65 L109,115.78 L108.83,115.91 L108.66,116.04 L108.48,116.15 L108.29,116.26 L108.1,116.35 L107.91,116.44 L107.71,116.52 L107.51,116.59 L107.3,116.65 L107.08,116.7 L106.87,116.74 L106.65,116.77 L106.43,116.78 L106.2,116.79 C103.77,116.79,101.8,114.82,101.8,112.39 C101.8,109.96,103.77,108,106.2,108 C108.62,108,110.6,109.96,110.6,112.39 Z " stroke-width="0" />
<path d="M120.99,109.7 L120.98,109.85 L120.97,109.99 L120.96,110.13 L120.93,110.27 L120.9,110.41 L120.86,110.55 L120.81,110.68 L120.76,110.81 L120.71,110.94 L120.64,111.06 L120.57,111.18 L120.5,111.3 L120.42,111.41 L120.33,111.52 L120.24,111.62 L120.15,111.72 L120.05,111.82 L119.95,111.91 L119.84,111.99 L119.73,112.07 L119.61,112.14 L119.49,112.21 L119.37,112.28 L119.24,112.33 L119.11,112.39 L118.98,112.43 L118.84,112.47 L118.7,112.5 L118.56,112.53 L118.42,112.54 L118.28,112.56 L118.13,112.56 C116.55,112.56,115.27,111.28,115.27,109.7 C115.27,108.12,116.55,106.84,118.13,106.84 C119.71,106.84,120.99,108.12,120.99,109.7 Z " stroke-width="0" />
<line x1="92" y1="154.64" x2="116.48" y2="150.8" stroke-width="0" />
<line x1="116.48" y1="124.16" x2="88.16" y2="124.16" stroke-width="0" />
<line x1="84.078" y1="142.88" x2="84.078" y2="150.8" stroke-width="0" />
<polyline points="80.719,128.72 80.719,130.16 83.121,128.72 83.121,130.16 " stroke="fuchsia" stroke-width="0" />
<polyline points="83.121,131.12 80.719,131.12 82.398,131.84 80.719,132.56 83.121,132.56 " stroke="fuchsia" stroke-width="0" />
<polyline points="83.121,133.28 83.121,134.24 82.641,134.72 82.398,134.72 81.922,134.24 81.922,133.52 " stroke="fuchsia" stroke-width="0" />
<polyline points="81.922,134.24 81.68,134.72 81.199,134.72 80.719,134.24 80.719,133.28 " stroke="fuchsia" stroke-width="0" />
<line x1="80.719" y1="133.52" x2="83.121" y2="133.52" stroke="fuchsia" stroke-width="0" />
<polyline points="81.199,135.44 80.719,135.68 80.719,136.4 81.199,136.88 81.68,136.88 81.922,136.4 81.922,135.68 82.398,135.44 83.121,135.44 83.121,136.88 " stroke="fuchsia" stroke-width="0" />
<line x1="80.238" y1="142.88" x2="84.078" y2="142.88" stroke-width="0" />
<polyline points="88.16,128 80.238,128 80.238,142.88 " stroke-width="0" />
<line x1="88.16" y1="124.16" x2="88.16" y2="128" stroke-width="0" />
<line x1="84.078" y1="150.8" x2="80.238" y2="150.8" stroke-width="0" />
<line x1="80.238" y1="154.64" x2="92" y2="154.64" stroke-width="0" />
<line x1="80.238" y1="150.8" x2="80.238" y2="154.64" stroke-width="0" />
<polyline points="102.32,146.72 102.32,142.88 116.48,142.88 " stroke-width="0" />
<path d="M108.73,132.95 L108.72,133.09 L108.71,133.24 L108.69,133.38 L108.67,133.52 L108.64,133.66 L108.6,133.79 L108.55,133.93 L108.5,134.06 L108.44,134.18 L108.38,134.31 L108.31,134.43 L108.24,134.54 L108.16,134.66 L108.07,134.76 L107.98,134.87 L107.89,134.97 L107.79,135.06 L107.69,135.15 L107.58,135.24 L107.47,135.32 L107.35,135.39 L107.23,135.46 L107.11,135.52 L106.98,135.58 L106.85,135.63 L106.72,135.68 L106.58,135.71 L106.44,135.75 L106.3,135.77 L106.16,135.79 L106.01,135.8 L105.87,135.8 C104.29,135.8,103.01,134.52,103.01,132.95 C103.01,131.37,104.29,130.09,105.87,130.09 C107.44,130.09,108.73,131.37,108.73,132.95 Z " stroke-width="0" />
<line x1="116.48" y1="142.88" x2="116.48" y2="124.16" stroke-width="0" />
<line x1="121.04" y1="140.72" x2="121.04" y2="126.08" stroke-width="0" />
<polyline points="103.52,150.08 105.2,150.08 103.52,147.92 105.2,147.92 " stroke="fuchsia" stroke-width="0" />
<polyline points="105.92,147.92 105.92,150.08 106.64,148.64 107.36,150.08 107.36,147.92 " stroke="fuchsia" stroke-width="0" />
<polyline points="108.08,147.92 109.04,147.92 109.52,148.4 109.52,148.64 109.04,149.12 108.32,149.12 " stroke="fuchsia" stroke-width="0" />
<polyline points="109.04,149.12 109.52,149.36 109.52,149.84 109.04,150.08 108.08,150.08 " stroke="fuchsia" stroke-width="0" />
<line x1="108.32" y1="150.08" x2="108.32" y2="147.92" stroke="fuchsia" stroke-width="0" />
<polyline points="110.24,149.84 110.48,150.08 110.48,147.92 " stroke="fuchsia" stroke-width="0" />
<line x1="110.24" y1="147.92" x2="110.96" y2="147.92" stroke="fuchsia" stroke-width="0" />
<line x1="116.48" y1="146.72" x2="102.32" y2="146.72" stroke-width="0" />
<line x1="116.48" y1="150.8" x2="116.48" y2="146.72" stroke-width="0" />
<line x1="121.04" y1="152.72" x2="121.04" y2="148.64" stroke-width="0" />
<polyline points="164.24,120.8 155.36,120.32 142.16,117.44 " stroke-width="0" />
<line x1="137.36" y1="94.398" x2="135.92" y2="95.359" stroke-width="0" />
<line x1="134.72" y1="89.359" x2="134.72" y2="95.359" stroke-width="0" />
<line x1="130.64" y1="95.359" x2="130.64" y2="89.359" stroke-width="0" />
<line x1="128.24" y1="94.398" x2="129.44" y2="95.359" stroke-width="0" />
<line x1="134" y1="107.84" x2="143.6" y2="81.441" stroke-width="0" />
<line x1="129.44" y1="83.359" x2="135.92" y2="83.359" stroke-width="0" />
<line x1="130.64" y1="89.359" x2="134.72" y2="89.359" stroke-width="0" />
<line x1="130.64" y1="77.602" x2="134.72" y2="77.602" stroke-width="0" />
<line x1="129.44" y1="83.359" x2="135.92" y2="83.359" stroke-width="0" />
<polyline points="132.08,78.559 131.6,79.039 131.6,79.762 132.08,80 132.32,80 132.8,79.762 132.8,79.039 133.04,78.559 133.76,78.559 133.76,80 " stroke="fuchsia" stroke-width="0" />
<line x1="133.76" y1="80.719" x2="131.6" y2="82.16" stroke="fuchsia" stroke-width="0" />
<line x1="131.6" y1="80.719" x2="133.76" y2="82.16" stroke="fuchsia" stroke-width="0" />
<line x1="128.24" y1="82.398" x2="128.24" y2="72.559" stroke-width="0" />
<polyline points="128.48,73.281 128.48,74.719 130.64,73.281 130.64,74.719 " stroke="fuchsia" stroke-width="0" />
<polyline points="130.64,75.441 128.48,75.441 129.92,76.16 128.48,76.879 130.64,76.879 " stroke="fuchsia" stroke-width="0" />
<polyline points="130.64,77.602 130.64,78.801 130.4,79.039 129.92,79.039 129.68,78.801 129.68,78.078 " stroke="fuchsia" stroke-width="0" />
<polyline points="129.68,78.801 129.2,79.039 128.96,79.039 128.48,78.801 128.48,77.602 " stroke="fuchsia" stroke-width="0" />
<line x1="128.48" y1="78.078" x2="130.64" y2="78.078" stroke="fuchsia" stroke-width="0" />
<polyline points="128.96,79.762 128.48,80.238 128.48,80.961 128.96,81.199 129.2,81.199 129.68,80.961 129.68,80.48 " stroke="fuchsia" stroke-width="0" />
<polyline points="129.68,80.961 129.92,81.199 130.4,81.199 130.64,80.961 130.64,80.238 130.4,79.762 " stroke="fuchsia" stroke-width="0" />
<line x1="129.44" y1="71.602" x2="130.64" y2="71.602" stroke-width="0" />
<line x1="128.24" y1="72.559" x2="129.44" y2="71.602" stroke-width="0" />
<line x1="130.64" y1="71.602" x2="130.64" y2="77.602" stroke-width="0" />
<polyline points="133.52,88.398 133.76,87.922 133.76,87.199 133.52,86.961 133.04,86.961 132.8,87.199 132.8,87.922 132.32,88.398 131.6,88.398 131.6,86.961 " stroke="fuchsia" stroke-width="0" />
<line x1="131.6" y1="86.238" x2="133.76" y2="84.801" stroke="fuchsia" stroke-width="0" />
<line x1="133.76" y1="86.238" x2="131.6" y2="84.801" stroke="fuchsia" stroke-width="0" />
<line x1="128.24" y1="84.559" x2="129.44" y2="83.359" stroke-width="0" />
<line x1="128.24" y1="84.559" x2="128.24" y2="94.398" stroke-width="0" />
<line x1="128.24" y1="82.398" x2="129.44" y2="83.359" stroke-width="0" />
<line x1="137.36" y1="72.559" x2="137.36" y2="82.398" stroke-width="0" />
<line x1="137.36" y1="75.441" x2="137.36" y2="79.52" stroke-width="0" />
<line x1="134.72" y1="71.602" x2="135.92" y2="71.602" stroke-width="0" />
<line x1="134.72" y1="77.602" x2="134.72" y2="71.602" stroke-width="0" />
<line x1="137.36" y1="72.559" x2="135.92" y2="71.602" stroke-width="0" />
<path d="M143.79,81.445 C144.55,81.082,145.35,80.793,146.16,80.594 " stroke-width="0" />
<polyline points="137.12,93.68 137.12,92.238 134.72,93.68 134.72,92.238 " stroke="fuchsia" stroke-width="0" />
<polyline points="134.72,91.52 137.12,91.52 135.44,90.801 137.12,90.078 134.72,90.078 " stroke="fuchsia" stroke-width="0" />
<polyline points="134.72,89.359 134.72,88.16 135.2,87.922 135.44,87.922 135.92,88.16 135.92,88.879 " stroke="fuchsia" stroke-width="0" />
<polyline points="135.92,88.16 136.4,87.922 136.64,87.922 137.12,88.16 137.12,89.359 " stroke="fuchsia" stroke-width="0" />
<line x1="137.12" y1="88.879" x2="134.72" y2="88.879" stroke="fuchsia" stroke-width="0" />
<polyline points="136.64,87.199 137.12,86.719 137.12,86 136.64,85.762 136.4,85.762 135.92,86 135.92,86.48 " stroke="fuchsia" stroke-width="0" />
<polyline points="135.92,86 135.44,85.762 135.2,85.762 134.72,86 134.72,86.719 135.2,87.199 " stroke="fuchsia" stroke-width="0" />
<line x1="137.36" y1="84.559" x2="135.92" y2="83.359" stroke-width="0" />
<line x1="137.36" y1="94.398" x2="137.36" y2="84.559" stroke-width="0" />
<line x1="137.36" y1="91.281" x2="137.36" y2="87.441" stroke-width="0" />
<line x1="137.36" y1="82.398" x2="135.92" y2="83.359" stroke-width="0" />
<path d="M137.46,116.59 C135.47,115.77,134.16,113.82,134.16,111.66 " stroke-width="0" />
<line x1="129.44" y1="95.359" x2="130.64" y2="95.359" stroke-width="0" />
<line x1="134" y1="107.84" x2="134" y2="111.44" stroke-width="0" />
<path d="M144.33,109.69 L144.32,109.84 L144.31,109.98 L144.29,110.13 L144.27,110.27 L144.24,110.41 L144.2,110.54 L144.15,110.67 L144.1,110.8 L144.05,110.93 L143.98,111.05 L143.91,111.17 L143.84,111.29 L143.76,111.4 L143.67,111.51 L143.58,111.61 L143.49,111.71 L143.39,111.81 L143.28,111.9 L143.18,111.98 L143.06,112.06 L142.95,112.14 L142.83,112.21 L142.7,112.27 L142.58,112.33 L142.45,112.38 L142.32,112.42 L142.18,112.46 L142.04,112.49 L141.9,112.52 L141.76,112.54 L141.61,112.55 L141.46,112.55 C139.89,112.55,138.6,111.27,138.6,109.69 C138.6,108.11,139.89,106.83,141.46,106.83 C143.04,106.83,144.33,108.11,144.33,109.69 Z " stroke-width="0" />
<line x1="134.72" y1="95.359" x2="135.92" y2="95.359" stroke-width="0" />
<line x1="142.16" y1="117.44" x2="137.36" y2="116.48" stroke-width="0" />
<path d="M160.45,110.66 L160.45,110.81 L160.43,110.95 L160.42,111.1 L160.39,111.24 L160.36,111.37 L160.32,111.51 L160.28,111.64 L160.22,111.77 L160.17,111.9 L160.1,112.02 L160.03,112.14 L159.96,112.26 L159.88,112.37 L159.8,112.48 L159.71,112.58 L159.61,112.68 L159.51,112.78 L159.41,112.87 L159.3,112.95 L159.19,113.03 L159.07,113.11 L158.95,113.17 L158.83,113.24 L158.7,113.3 L158.57,113.35 L158.44,113.39 L158.3,113.43 L158.17,113.46 L158.03,113.49 L157.88,113.51 L157.74,113.52 L157.59,113.52 C156.01,113.52,154.73,112.24,154.73,110.66 C154.73,109.08,156.01,107.8,157.59,107.8 C159.17,107.8,160.45,109.08,160.45,110.66 Z " stroke-width="0" />
<line x1="157.52" y1="148.64" x2="133.04" y2="152.72" stroke-width="0" />
<line x1="128.96" y1="122" x2="157.52" y2="122" stroke-width="0" />
<polyline points="126.56,147.68 128.24,147.68 126.56,145.52 128.24,145.52 " stroke="fuchsia" stroke-width="0" />
<polyline points="128.96,145.52 128.96,147.68 129.68,146.24 130.4,147.68 130.4,145.52 " stroke="fuchsia" stroke-width="0" />
<polyline points="131.12,145.52 132.08,145.52 132.56,146 132.56,146.24 132.08,146.72 131.36,146.72 " stroke="fuchsia" stroke-width="0" />
<polyline points="132.08,146.72 132.56,146.96 132.56,147.44 132.08,147.68 131.12,147.68 " stroke="fuchsia" stroke-width="0" />
<line x1="131.36" y1="147.68" x2="131.36" y2="145.52" stroke="fuchsia" stroke-width="0" />
<polyline points="133.28,147.44 133.52,147.68 133.52,145.52 " stroke="fuchsia" stroke-width="0" />
<line x1="133.28" y1="145.52" x2="134" y2="145.52" stroke="fuchsia" stroke-width="0" />
<polyline points="125.12,148.64 125.12,144.8 143.36,144.8 " stroke-width="0" />
<polyline points="122.48,127.28 122.48,128.72 124.64,127.28 124.64,128.72 " stroke="fuchsia" stroke-width="0" />
<polyline points="124.64,129.44 122.48,129.44 123.92,130.16 122.48,130.88 124.64,130.88 " stroke="fuchsia" stroke-width="0" />
<polyline points="124.64,131.6 124.64,132.8 124.16,133.04 123.92,133.04 123.44,132.8 123.44,132.08 " stroke="fuchsia" stroke-width="0" />
<polyline points="123.44,132.8 123.2,133.04 122.72,133.04 122.48,132.8 122.48,131.6 " stroke="fuchsia" stroke-width="0" />
<line x1="122.48" y1="132.08" x2="124.64" y2="132.08" stroke="fuchsia" stroke-width="0" />
<polyline points="123.92,135.2 123.92,133.76 122.48,134.96 124.64,134.96 " stroke="fuchsia" stroke-width="0" />
<line x1="128.96" y1="126.08" x2="128.96" y2="122" stroke-width="0" />
<line x1="143.36" y1="144.8" x2="143.36" y2="140.72" stroke-width="0" />
<line x1="157.52" y1="122" x2="157.52" y2="148.64" stroke-width="0" />
<line x1="160.88" y1="148.88" x2="158.96" y2="135.44" stroke-width="0" />
<path d="M159.02,135.9 L159.02,135.88 L159.01,135.86 L159.01,135.84 L159,135.83 L159,135.81 L159,135.79 L158.99,135.77 L158.99,135.75 L158.99,135.73 L158.99,135.71 L158.98,135.69 L158.98,135.68 L158.98,135.66 L158.98,135.64 L158.98,135.62 L158.98,135.6 C158.98,134.98,159.48,134.48,160.1,134.48 C160.31,134.48,160.53,134.54,160.71,134.66 " stroke-width="0" />
<line x1="160.4" y1="134.48" x2="165.92" y2="137.12" stroke-width="0" />
<line x1="170.72" y1="133.76" x2="170.48" y2="129.44" stroke-width="0" />
<line x1="170" y1="128.72" x2="165.2" y2="126.32" stroke-width="0" />
<path d="M165.25,126.53 L165.22,126.51 L165.19,126.49 L165.16,126.47 L165.13,126.45 L165.1,126.42 L165.07,126.4 L165.04,126.38 L165.02,126.35 L164.99,126.33 L164.97,126.3 L164.94,126.27 L164.92,126.24 L164.9,126.21 L164.88,126.18 L164.86,126.15 L164.84,126.12 L164.82,126.09 L164.8,126.06 L164.79,126.03 L164.77,125.99 L164.76,125.96 L164.75,125.92 L164.73,125.89 L164.72,125.85 L164.71,125.82 L164.71,125.78 L164.7,125.75 L164.69,125.71 L164.69,125.67 L164.69,125.64 L164.68,125.6 L164.68,125.56 C164.68,125.14,164.92,124.76,165.3,124.57 " stroke-width="0" />
<path d="M170.02,128.75 C170.22,128.99,170.41,129.25,170.56,129.52 " stroke-width="0" />
<line x1="166.88" y1="136.88" x2="170.48" y2="134.48" stroke-width="0" />
<path d="M167.03,137.09 L166.91,137.1 L166.8,137.12 L166.69,137.13 L166.57,137.15 L166.46,137.16 L166.34,137.16 L166.28,137.16 L166.23,137.17 L166.17,137.17 L166.11,137.17 C166.11,137.17,166.09,137.17,166.09,137.17 " stroke-width="0" />
<path d="M170.93,133.78 C170.82,134.07,170.69,134.37,170.53,134.64 " stroke-width="0" />
<line x1="164.48" y1="161.36" x2="160.88" y2="148.88" stroke-width="0" />
<line x1="200.48" y1="50.48" x2="200.48" y2="122.72" stroke-width="0" />
<path d="M183.59,59.312 L183.58,59.539 L183.57,59.762 L183.54,59.982 L183.5,60.198 L183.45,60.411 L183.39,60.619 L183.32,60.823 L183.24,61.023 L183.16,61.218 L183.06,61.408 L182.95,61.592 L182.84,61.77 L182.72,61.943 L182.58,62.109 L182.45,62.269 L182.3,62.421 L182.15,62.567 L181.99,62.705 L181.82,62.836 L181.65,62.959 L181.47,63.073 L181.29,63.179 L181.1,63.277 L180.9,63.365 L180.7,63.444 L180.5,63.513 L180.29,63.572 L180.08,63.621 L179.86,63.66 L179.64,63.688 L179.42,63.705 L179.19,63.711 C176.76,63.711,174.79,61.738,174.79,59.312 C174.79,56.887,176.76,54.918,179.19,54.918 C181.62,54.918,183.59,56.887,183.59,59.312 Z " stroke-width="0" />
<path d="M196.14,57.906 L196.13,58.053 L196.12,58.198 L196.1,58.341 L196.08,58.482 L196.05,58.62 L196.01,58.756 L195.96,58.889 L195.91,59.019 L195.85,59.145 L195.79,59.269 L195.72,59.388 L195.65,59.504 L195.57,59.617 L195.48,59.725 L195.39,59.828 L195.3,59.928 L195.2,60.022 L195.1,60.112 L194.99,60.197 L194.88,60.277 L194.76,60.351 L194.64,60.42 L194.52,60.483 L194.39,60.541 L194.26,60.592 L194.13,60.637 L193.99,60.676 L193.85,60.707 L193.71,60.733 L193.57,60.751 L193.42,60.762 L193.28,60.766 C191.7,60.766,190.42,59.484,190.42,57.906 C190.42,56.328,191.7,55.047,193.28,55.047 C194.85,55.047,196.14,56.328,196.14,57.906 Z " stroke-width="0" />
<path d="M213.18,120.16 L212.93,120.09 L212.7,120.01 L212.46,119.92 L212.24,119.82 L212.02,119.71 L211.8,119.59 L211.59,119.46 L211.38,119.33 L211.19,119.19 L210.99,119.04 L210.81,118.88 L210.63,118.72 L210.46,118.55 L210.3,118.37 L210.14,118.19 L209.99,118 L209.85,117.8 L209.71,117.6 L209.59,117.4 L209.47,117.19 L209.36,116.97 L209.26,116.75 L209.16,116.52 L209.08,116.29 L209.01,116.06 L208.94,115.83 L208.89,115.59 L208.84,115.34 L208.8,115.1 L208.78,114.85 L208.76,114.6 L208.76,114.34 C208.76,113.56,208.91,112.79,209.21,112.07 " stroke-width="0" />
<line x1="202.4" y1="130.88" x2="202.4" y2="103.52" stroke-width="0" />
<line x1="212.96" y1="120.08" x2="212.96" y2="142.64" stroke-width="0" />
<path d="M185.75,112.38 L185.74,112.61 L185.73,112.83 L185.7,113.05 L185.66,113.27 L185.61,113.48 L185.55,113.69 L185.48,113.89 L185.4,114.09 L185.32,114.29 L185.22,114.48 L185.11,114.66 L185,114.84 L184.87,115.01 L184.74,115.18 L184.61,115.34 L184.46,115.49 L184.31,115.64 L184.15,115.78 L183.98,115.91 L183.81,116.03 L183.63,116.14 L183.45,116.25 L183.26,116.35 L183.06,116.43 L182.86,116.51 L182.66,116.58 L182.45,116.64 L182.23,116.69 L182.02,116.73 L181.8,116.76 L181.57,116.78 L181.35,116.78 C178.92,116.78,176.95,114.81,176.95,112.38 C176.95,109.96,178.92,107.98,181.35,107.98 C183.78,107.98,185.75,109.96,185.75,112.38 Z " stroke-width="0" />
<path d="M196.14,109.69 L196.13,109.84 L196.12,109.98 L196.1,110.12 L196.08,110.26 L196.05,110.4 L196.01,110.54 L195.96,110.67 L195.91,110.8 L195.85,110.93 L195.79,111.05 L195.72,111.17 L195.65,111.29 L195.57,111.4 L195.48,111.51 L195.39,111.61 L195.3,111.71 L195.2,111.8 L195.1,111.89 L194.99,111.98 L194.88,112.06 L194.76,112.13 L194.64,112.2 L194.52,112.26 L194.39,112.32 L194.26,112.37 L194.13,112.42 L193.99,112.46 L193.85,112.49 L193.71,112.51 L193.57,112.53 L193.42,112.54 L193.28,112.55 C191.7,112.55,190.42,111.27,190.42,109.69 C190.42,108.11,191.7,106.83,193.28,106.83 C194.85,106.83,196.14,108.11,196.14,109.69 Z " stroke-width="0" />
<line x1="205.76" y1="103.52" x2="205.76" y2="109.04" stroke-width="0" />
<line x1="202.4" y1="103.52" x2="205.76" y2="103.52" stroke-width="0" />
<path d="M205.92,109.05 C207.62,109.05,209.05,110.35,209.2,112.05 " stroke-width="0" />
<path d="M203.71,147.53 L203.71,147.76 L203.69,147.98 L203.66,148.2 L203.63,148.42 L203.58,148.63 L203.52,148.84 L203.45,149.04 L203.37,149.24 L203.28,149.44 L203.18,149.63 L203.08,149.81 L202.96,149.99 L202.84,150.16 L202.71,150.33 L202.57,150.49 L202.43,150.64 L202.27,150.79 L202.11,150.92 L201.95,151.06 L201.77,151.18 L201.6,151.29 L201.41,151.4 L201.22,151.5 L201.03,151.58 L200.83,151.66 L200.62,151.73 L200.41,151.79 L200.2,151.84 L199.99,151.88 L199.77,151.91 L199.54,151.92 L199.32,151.93 C196.89,151.93,194.92,149.96,194.92,147.53 C194.92,145.1,196.89,143.13,199.32,143.13 C201.74,143.13,203.71,145.1,203.71,147.53 Z " stroke-width="0" />
<line x1="209.12" y1="157.28" x2="194.24" y2="157.28" stroke-width="0" />
<line x1="199.04" y1="133.04" x2="200.24" y2="133.04" stroke-width="0" />
<polyline points="183.68,138.32 183.68,139.76 185.84,138.32 185.84,139.76 " stroke="fuchsia" stroke-width="0" />
<polyline points="185.84,140.48 183.68,140.48 185.12,141.2 183.68,141.92 185.84,141.92 " stroke="fuchsia" stroke-width="0" />
<polyline points="185.84,142.64 185.84,143.84 185.36,144.08 185.12,144.08 184.64,143.84 184.64,143.12 " stroke="fuchsia" stroke-width="0" />
<polyline points="184.64,143.84 184.4,144.08 183.92,144.08 183.68,143.84 183.68,142.64 " stroke="fuchsia" stroke-width="0" />
<line x1="183.68" y1="143.12" x2="185.84" y2="143.12" stroke="fuchsia" stroke-width="0" />
<polyline points="183.92,144.8 183.68,145.28 183.68,146 183.92,146.48 184.4,146.48 184.64,146 184.64,145.52 " stroke="fuchsia" stroke-width="0" />
<polyline points="184.64,146 185.12,146.48 185.36,146.48 185.84,146 185.84,145.28 185.36,144.8 " stroke="fuchsia" stroke-width="0" />
<line x1="186.8" y1="137.6" x2="182.96" y2="137.6" stroke-width="0" />
<line x1="182.96" y1="128.72" x2="186.8" y2="128.72" stroke-width="0" />
<polyline points="180.32,135.2 180.32,131.12 182.96,131.12 182.96,128.72 " stroke-width="0" />
<line x1="182.96" y1="135.2" x2="180.32" y2="135.2" stroke-width="0" />
<line x1="182.96" y1="137.6" x2="182.96" y2="135.2" stroke-width="0" />
<line x1="189.44" y1="131.12" x2="189.44" y2="135.2" stroke-width="0" />
<path d="M199.15,133.18 C198.05,133.18,197.11,132.35,196.97,131.26 " stroke-width="0" />
<polyline points="186.8,128.72 186.8,131.12 189.44,131.12 " stroke-width="0" />
<path d="M193.46,124.58 C195.31,126.38,196.54,128.72,196.95,131.26 " stroke-width="0" />
<line x1="186.8" y1="135.2" x2="186.8" y2="137.6" stroke-width="0" />
<line x1="189.44" y1="135.2" x2="186.8" y2="135.2" stroke-width="0" />
<line x1="194.24" y1="161.36" x2="194.24" y2="157.28" stroke-width="0" />
<line x1="209.12" y1="142.64" x2="209.12" y2="157.28" stroke-width="0" />
<line x1="212.96" y1="142.64" x2="209.12" y2="142.64" stroke-width="0" />
<path d="M202.55,130.98 C202.55,132.19,201.57,133.18,200.35,133.18 " stroke-width="0" />
<polyline points="171.44,155.12 172.64,155.12 173.12,155.36 173.12,155.84 172.64,156.32 171.92,156.32 " stroke="fuchsia" stroke-width="0" />
<polyline points="172.64,156.32 173.12,156.56 173.12,157.04 172.64,157.28 171.44,157.28 " stroke="fuchsia" stroke-width="0" />
<line x1="171.92" y1="157.28" x2="171.92" y2="155.12" stroke="fuchsia" stroke-width="0" />
<polyline points="173.84,155.12 173.84,155.84 174.56,157.28 175.28,155.84 175.28,155.12 " stroke="fuchsia" stroke-width="0" />
<line x1="173.84" y1="155.84" x2="175.28" y2="155.84" stroke="fuchsia" stroke-width="0" />
<polyline points="176,155.36 176.24,155.12 176.96,155.12 177.44,155.36 176,157.04 176.24,157.28 176.96,157.28 177.44,157.04 " stroke="fuchsia" stroke-width="0" />
<polyline points="178.16,155.12 178.16,157.28 179.6,157.28 " stroke="fuchsia" stroke-width="0" />
<line x1="178.16" y1="156.32" x2="178.88" y2="156.32" stroke="fuchsia" stroke-width="0" />
<line x1="178.16" y1="155.12" x2="179.6" y2="155.12" stroke="fuchsia" stroke-width="0" />
<line x1="149.6" y1="57.68" x2="151.04" y2="57.68" stroke="fuchsia" stroke-width="0" />
<line x1="150.32" y1="57.68" x2="150.32" y2="55.281" stroke="fuchsia" stroke-width="0" />
<polygon points="151.76,55.281 153.2,55.281 153.2,57.68 151.76,57.68 " stroke="fuchsia" stroke-width="0" />
<polyline points="153.92,55.281 153.92,57.68 155.12,57.68 155.36,57.199 155.36,56.719 155.12,56.48 153.92,56.48 " stroke="fuchsia" stroke-width="0" />
<polyline points="76.16,56.238 76.16,58.398 76.879,56.961 77.602,58.398 77.602,56.238 " stroke="fuchsia" stroke-width="0" />
<line x1="78.32" y1="58.398" x2="79.039" y2="58.398" stroke="fuchsia" stroke-width="0" />
<line x1="78.559" y1="58.398" x2="78.559" y2="56.238" stroke="fuchsia" stroke-width="0" />
<line x1="78.32" y1="56.238" x2="79.039" y2="56.238" stroke="fuchsia" stroke-width="0" />
<polyline points="79.762,56.238 80.961,56.238 81.199,56.719 81.199,58.16 80.961,58.398 79.762,58.398 " stroke="fuchsia" stroke-width="0" />
<line x1="80.238" y1="58.398" x2="80.238" y2="56.238" stroke="fuchsia" stroke-width="0" />
</g>
</svg>
