G75*
G70*
%OFA0B0*%
%FSLAX24Y24*%
%IPPOS*%
%LPD*%
%AMOC8*
5,1,8,0,0,1.08239X$1,22.5*
%
%ADD10C,0.0000*%
%ADD11C,0.0060*%
%ADD12C,0.0040*%
%ADD13C,0.0050*%
%ADD14C,0.0030*%
%ADD15C,0.0020*%
%ADD16C,0.0160*%
%ADD17C,0.0080*%
%ADD18R,0.0300X0.0340*%
%ADD19C,0.0120*%
%ADD20C,0.0240*%
%ADD21R,0.0128X0.0167*%
%ADD22R,0.0138X0.0138*%
%ADD23C,0.0070*%
%ADD24R,0.0167X0.0128*%
D10*
X000546Y000483D02*
X000546Y029129D01*
X028316Y029229D01*
X028316Y000483D01*
X000546Y000483D01*
X001640Y002131D02*
X001642Y002179D01*
X001648Y002227D01*
X001658Y002274D01*
X001671Y002320D01*
X001689Y002365D01*
X001709Y002409D01*
X001734Y002451D01*
X001762Y002490D01*
X001792Y002527D01*
X001826Y002561D01*
X001863Y002593D01*
X001901Y002622D01*
X001942Y002647D01*
X001985Y002669D01*
X002030Y002687D01*
X002076Y002701D01*
X002123Y002712D01*
X002171Y002719D01*
X002219Y002722D01*
X002267Y002721D01*
X002315Y002716D01*
X002363Y002707D01*
X002409Y002695D01*
X002454Y002678D01*
X002498Y002658D01*
X002540Y002635D01*
X002580Y002608D01*
X002618Y002578D01*
X002653Y002545D01*
X002685Y002509D01*
X002715Y002471D01*
X002741Y002430D01*
X002763Y002387D01*
X002783Y002343D01*
X002798Y002298D01*
X002810Y002251D01*
X002818Y002203D01*
X002822Y002155D01*
X002822Y002107D01*
X002818Y002059D01*
X002810Y002011D01*
X002798Y001964D01*
X002783Y001919D01*
X002763Y001875D01*
X002741Y001832D01*
X002715Y001791D01*
X002685Y001753D01*
X002653Y001717D01*
X002618Y001684D01*
X002580Y001654D01*
X002540Y001627D01*
X002498Y001604D01*
X002454Y001584D01*
X002409Y001567D01*
X002363Y001555D01*
X002315Y001546D01*
X002267Y001541D01*
X002219Y001540D01*
X002171Y001543D01*
X002123Y001550D01*
X002076Y001561D01*
X002030Y001575D01*
X001985Y001593D01*
X001942Y001615D01*
X001901Y001640D01*
X001863Y001669D01*
X001826Y001701D01*
X001792Y001735D01*
X001762Y001772D01*
X001734Y001811D01*
X001709Y001853D01*
X001689Y001897D01*
X001671Y001942D01*
X001658Y001988D01*
X001648Y002035D01*
X001642Y002083D01*
X001640Y002131D01*
X001540Y027481D02*
X001542Y027529D01*
X001548Y027577D01*
X001558Y027624D01*
X001571Y027670D01*
X001589Y027715D01*
X001609Y027759D01*
X001634Y027801D01*
X001662Y027840D01*
X001692Y027877D01*
X001726Y027911D01*
X001763Y027943D01*
X001801Y027972D01*
X001842Y027997D01*
X001885Y028019D01*
X001930Y028037D01*
X001976Y028051D01*
X002023Y028062D01*
X002071Y028069D01*
X002119Y028072D01*
X002167Y028071D01*
X002215Y028066D01*
X002263Y028057D01*
X002309Y028045D01*
X002354Y028028D01*
X002398Y028008D01*
X002440Y027985D01*
X002480Y027958D01*
X002518Y027928D01*
X002553Y027895D01*
X002585Y027859D01*
X002615Y027821D01*
X002641Y027780D01*
X002663Y027737D01*
X002683Y027693D01*
X002698Y027648D01*
X002710Y027601D01*
X002718Y027553D01*
X002722Y027505D01*
X002722Y027457D01*
X002718Y027409D01*
X002710Y027361D01*
X002698Y027314D01*
X002683Y027269D01*
X002663Y027225D01*
X002641Y027182D01*
X002615Y027141D01*
X002585Y027103D01*
X002553Y027067D01*
X002518Y027034D01*
X002480Y027004D01*
X002440Y026977D01*
X002398Y026954D01*
X002354Y026934D01*
X002309Y026917D01*
X002263Y026905D01*
X002215Y026896D01*
X002167Y026891D01*
X002119Y026890D01*
X002071Y026893D01*
X002023Y026900D01*
X001976Y026911D01*
X001930Y026925D01*
X001885Y026943D01*
X001842Y026965D01*
X001801Y026990D01*
X001763Y027019D01*
X001726Y027051D01*
X001692Y027085D01*
X001662Y027122D01*
X001634Y027161D01*
X001609Y027203D01*
X001589Y027247D01*
X001571Y027292D01*
X001558Y027338D01*
X001548Y027385D01*
X001542Y027433D01*
X001540Y027481D01*
X026090Y027581D02*
X026092Y027629D01*
X026098Y027677D01*
X026108Y027724D01*
X026121Y027770D01*
X026139Y027815D01*
X026159Y027859D01*
X026184Y027901D01*
X026212Y027940D01*
X026242Y027977D01*
X026276Y028011D01*
X026313Y028043D01*
X026351Y028072D01*
X026392Y028097D01*
X026435Y028119D01*
X026480Y028137D01*
X026526Y028151D01*
X026573Y028162D01*
X026621Y028169D01*
X026669Y028172D01*
X026717Y028171D01*
X026765Y028166D01*
X026813Y028157D01*
X026859Y028145D01*
X026904Y028128D01*
X026948Y028108D01*
X026990Y028085D01*
X027030Y028058D01*
X027068Y028028D01*
X027103Y027995D01*
X027135Y027959D01*
X027165Y027921D01*
X027191Y027880D01*
X027213Y027837D01*
X027233Y027793D01*
X027248Y027748D01*
X027260Y027701D01*
X027268Y027653D01*
X027272Y027605D01*
X027272Y027557D01*
X027268Y027509D01*
X027260Y027461D01*
X027248Y027414D01*
X027233Y027369D01*
X027213Y027325D01*
X027191Y027282D01*
X027165Y027241D01*
X027135Y027203D01*
X027103Y027167D01*
X027068Y027134D01*
X027030Y027104D01*
X026990Y027077D01*
X026948Y027054D01*
X026904Y027034D01*
X026859Y027017D01*
X026813Y027005D01*
X026765Y026996D01*
X026717Y026991D01*
X026669Y026990D01*
X026621Y026993D01*
X026573Y027000D01*
X026526Y027011D01*
X026480Y027025D01*
X026435Y027043D01*
X026392Y027065D01*
X026351Y027090D01*
X026313Y027119D01*
X026276Y027151D01*
X026242Y027185D01*
X026212Y027222D01*
X026184Y027261D01*
X026159Y027303D01*
X026139Y027347D01*
X026121Y027392D01*
X026108Y027438D01*
X026098Y027485D01*
X026092Y027533D01*
X026090Y027581D01*
X026140Y002081D02*
X026142Y002129D01*
X026148Y002177D01*
X026158Y002224D01*
X026171Y002270D01*
X026189Y002315D01*
X026209Y002359D01*
X026234Y002401D01*
X026262Y002440D01*
X026292Y002477D01*
X026326Y002511D01*
X026363Y002543D01*
X026401Y002572D01*
X026442Y002597D01*
X026485Y002619D01*
X026530Y002637D01*
X026576Y002651D01*
X026623Y002662D01*
X026671Y002669D01*
X026719Y002672D01*
X026767Y002671D01*
X026815Y002666D01*
X026863Y002657D01*
X026909Y002645D01*
X026954Y002628D01*
X026998Y002608D01*
X027040Y002585D01*
X027080Y002558D01*
X027118Y002528D01*
X027153Y002495D01*
X027185Y002459D01*
X027215Y002421D01*
X027241Y002380D01*
X027263Y002337D01*
X027283Y002293D01*
X027298Y002248D01*
X027310Y002201D01*
X027318Y002153D01*
X027322Y002105D01*
X027322Y002057D01*
X027318Y002009D01*
X027310Y001961D01*
X027298Y001914D01*
X027283Y001869D01*
X027263Y001825D01*
X027241Y001782D01*
X027215Y001741D01*
X027185Y001703D01*
X027153Y001667D01*
X027118Y001634D01*
X027080Y001604D01*
X027040Y001577D01*
X026998Y001554D01*
X026954Y001534D01*
X026909Y001517D01*
X026863Y001505D01*
X026815Y001496D01*
X026767Y001491D01*
X026719Y001490D01*
X026671Y001493D01*
X026623Y001500D01*
X026576Y001511D01*
X026530Y001525D01*
X026485Y001543D01*
X026442Y001565D01*
X026401Y001590D01*
X026363Y001619D01*
X026326Y001651D01*
X026292Y001685D01*
X026262Y001722D01*
X026234Y001761D01*
X026209Y001803D01*
X026189Y001847D01*
X026171Y001892D01*
X026158Y001938D01*
X026148Y001985D01*
X026142Y002033D01*
X026140Y002081D01*
D11*
X025381Y002081D02*
X025383Y002154D01*
X025389Y002227D01*
X025399Y002299D01*
X025413Y002371D01*
X025430Y002442D01*
X025452Y002512D01*
X025477Y002581D01*
X025506Y002648D01*
X025538Y002713D01*
X025574Y002777D01*
X025614Y002839D01*
X025656Y002898D01*
X025702Y002955D01*
X025751Y003009D01*
X025803Y003061D01*
X025857Y003110D01*
X025914Y003156D01*
X025973Y003198D01*
X026035Y003238D01*
X026099Y003274D01*
X026164Y003306D01*
X026231Y003335D01*
X026300Y003360D01*
X026370Y003382D01*
X026441Y003399D01*
X026513Y003413D01*
X026585Y003423D01*
X026658Y003429D01*
X026731Y003431D01*
X026804Y003429D01*
X026877Y003423D01*
X026949Y003413D01*
X027021Y003399D01*
X027092Y003382D01*
X027162Y003360D01*
X027231Y003335D01*
X027298Y003306D01*
X027363Y003274D01*
X027427Y003238D01*
X027489Y003198D01*
X027548Y003156D01*
X027605Y003110D01*
X027659Y003061D01*
X027711Y003009D01*
X027760Y002955D01*
X027806Y002898D01*
X027848Y002839D01*
X027888Y002777D01*
X027924Y002713D01*
X027956Y002648D01*
X027985Y002581D01*
X028010Y002512D01*
X028032Y002442D01*
X028049Y002371D01*
X028063Y002299D01*
X028073Y002227D01*
X028079Y002154D01*
X028081Y002081D01*
X028079Y002008D01*
X028073Y001935D01*
X028063Y001863D01*
X028049Y001791D01*
X028032Y001720D01*
X028010Y001650D01*
X027985Y001581D01*
X027956Y001514D01*
X027924Y001449D01*
X027888Y001385D01*
X027848Y001323D01*
X027806Y001264D01*
X027760Y001207D01*
X027711Y001153D01*
X027659Y001101D01*
X027605Y001052D01*
X027548Y001006D01*
X027489Y000964D01*
X027427Y000924D01*
X027363Y000888D01*
X027298Y000856D01*
X027231Y000827D01*
X027162Y000802D01*
X027092Y000780D01*
X027021Y000763D01*
X026949Y000749D01*
X026877Y000739D01*
X026804Y000733D01*
X026731Y000731D01*
X026658Y000733D01*
X026585Y000739D01*
X026513Y000749D01*
X026441Y000763D01*
X026370Y000780D01*
X026300Y000802D01*
X026231Y000827D01*
X026164Y000856D01*
X026099Y000888D01*
X026035Y000924D01*
X025973Y000964D01*
X025914Y001006D01*
X025857Y001052D01*
X025803Y001101D01*
X025751Y001153D01*
X025702Y001207D01*
X025656Y001264D01*
X025614Y001323D01*
X025574Y001385D01*
X025538Y001449D01*
X025506Y001514D01*
X025477Y001581D01*
X025452Y001650D01*
X025430Y001720D01*
X025413Y001791D01*
X025399Y001863D01*
X025389Y001935D01*
X025383Y002008D01*
X025381Y002081D01*
X024331Y003731D02*
X024131Y003731D01*
X024131Y004781D01*
X024331Y004681D01*
X024731Y004681D01*
X024831Y004781D01*
X024131Y004781D01*
X024131Y005181D01*
X024331Y005281D01*
X024731Y005281D01*
X024831Y005181D01*
X024131Y005181D01*
X024131Y006781D01*
X024331Y006681D01*
X024731Y006681D01*
X024831Y006781D01*
X024131Y006781D01*
X024131Y007181D01*
X024331Y007281D01*
X024731Y007281D01*
X024831Y007181D01*
X024131Y007181D01*
X024131Y008781D01*
X024331Y008681D01*
X024731Y008681D01*
X024731Y007281D01*
X024831Y007181D02*
X024831Y008781D01*
X024731Y008681D01*
X024831Y008781D02*
X024831Y009181D01*
X024731Y009281D01*
X024731Y010681D01*
X024831Y010781D01*
X024131Y010781D01*
X024331Y010681D01*
X024731Y010681D01*
X024831Y010781D02*
X024831Y011181D01*
X024731Y011281D01*
X024331Y011281D01*
X024131Y011181D01*
X024831Y011181D01*
X024831Y011981D01*
X026931Y011981D01*
X026931Y011811D01*
X027431Y012231D02*
X024331Y012231D01*
X024331Y011281D01*
X024131Y011181D02*
X024131Y010781D01*
X024131Y009181D01*
X024331Y009281D01*
X024731Y009281D01*
X024831Y009181D02*
X024131Y009181D01*
X024131Y008781D01*
X024831Y008781D01*
X024831Y009181D02*
X024831Y010781D01*
X024731Y011281D02*
X024731Y011981D01*
X024831Y011981D01*
X024331Y012231D02*
X024131Y012231D01*
X024131Y011181D01*
X024331Y010681D02*
X024331Y009281D01*
X024331Y008681D02*
X024331Y007281D01*
X024831Y007181D02*
X024831Y006781D01*
X024831Y005181D01*
X024831Y004781D01*
X024831Y003981D01*
X024731Y003981D01*
X024731Y004681D01*
X024331Y004681D02*
X024331Y003731D01*
X027431Y003731D01*
X027431Y012231D01*
X027331Y010981D02*
X027329Y010920D01*
X027324Y010860D01*
X027315Y010799D01*
X027303Y010740D01*
X027287Y010681D01*
X027268Y010623D01*
X027246Y010567D01*
X027220Y010511D01*
X027191Y010458D01*
X027160Y010406D01*
X027125Y010356D01*
X027087Y010308D01*
X027047Y010263D01*
X027004Y010219D01*
X026959Y010179D01*
X026911Y010141D01*
X026931Y010131D02*
X026931Y009831D01*
X026911Y009821D02*
X026959Y009783D01*
X027004Y009743D01*
X027047Y009699D01*
X027087Y009654D01*
X027125Y009606D01*
X027160Y009556D01*
X027191Y009504D01*
X027220Y009451D01*
X027246Y009395D01*
X027268Y009339D01*
X027287Y009281D01*
X027303Y009222D01*
X027315Y009163D01*
X027324Y009102D01*
X027329Y009042D01*
X027331Y008981D01*
X026931Y008131D02*
X026931Y007831D01*
X026911Y007821D02*
X026959Y007783D01*
X027004Y007743D01*
X027047Y007699D01*
X027087Y007654D01*
X027125Y007606D01*
X027160Y007556D01*
X027191Y007504D01*
X027220Y007451D01*
X027246Y007395D01*
X027268Y007339D01*
X027287Y007281D01*
X027303Y007222D01*
X027315Y007163D01*
X027324Y007102D01*
X027329Y007042D01*
X027331Y006981D01*
X026931Y006131D02*
X026931Y005831D01*
X026911Y005821D02*
X026959Y005783D01*
X027004Y005743D01*
X027047Y005699D01*
X027087Y005654D01*
X027125Y005606D01*
X027160Y005556D01*
X027191Y005504D01*
X027220Y005451D01*
X027246Y005395D01*
X027268Y005339D01*
X027287Y005281D01*
X027303Y005222D01*
X027315Y005163D01*
X027324Y005102D01*
X027329Y005042D01*
X027331Y004981D01*
X026931Y004151D02*
X026931Y003981D01*
X024831Y003981D01*
X024731Y005281D02*
X024731Y006681D01*
X024331Y006681D02*
X024331Y005281D01*
X026911Y004141D02*
X026959Y004179D01*
X027004Y004219D01*
X027047Y004263D01*
X027087Y004308D01*
X027125Y004356D01*
X027160Y004406D01*
X027191Y004458D01*
X027220Y004511D01*
X027246Y004567D01*
X027268Y004623D01*
X027287Y004681D01*
X027303Y004740D01*
X027315Y004799D01*
X027324Y004860D01*
X027329Y004920D01*
X027331Y004981D01*
X026911Y006141D02*
X026959Y006179D01*
X027004Y006219D01*
X027047Y006263D01*
X027087Y006308D01*
X027125Y006356D01*
X027160Y006406D01*
X027191Y006458D01*
X027220Y006511D01*
X027246Y006567D01*
X027268Y006623D01*
X027287Y006681D01*
X027303Y006740D01*
X027315Y006799D01*
X027324Y006860D01*
X027329Y006920D01*
X027331Y006981D01*
X026911Y008141D02*
X026959Y008179D01*
X027004Y008219D01*
X027047Y008263D01*
X027087Y008308D01*
X027125Y008356D01*
X027160Y008406D01*
X027191Y008458D01*
X027220Y008511D01*
X027246Y008567D01*
X027268Y008623D01*
X027287Y008681D01*
X027303Y008740D01*
X027315Y008799D01*
X027324Y008860D01*
X027329Y008920D01*
X027331Y008981D01*
X027331Y010981D02*
X027329Y011042D01*
X027324Y011102D01*
X027315Y011163D01*
X027303Y011222D01*
X027287Y011281D01*
X027268Y011339D01*
X027246Y011395D01*
X027220Y011451D01*
X027191Y011504D01*
X027160Y011556D01*
X027125Y011606D01*
X027087Y011654D01*
X027047Y011699D01*
X027004Y011743D01*
X026959Y011783D01*
X026911Y011821D01*
X022988Y016532D02*
X022561Y016532D01*
X022431Y017481D02*
X022931Y017481D01*
X023181Y017731D01*
X023181Y018231D01*
X022931Y018481D01*
X022431Y018481D01*
X022181Y018231D01*
X022181Y017731D01*
X022431Y017481D01*
X022181Y017731D02*
X021931Y017481D01*
X021431Y017481D01*
X021181Y017731D01*
X020931Y017481D01*
X020431Y017481D01*
X020181Y017731D01*
X019931Y017481D01*
X019431Y017481D01*
X019181Y017731D01*
X018931Y017481D01*
X018431Y017481D01*
X018181Y017731D01*
X017931Y017481D01*
X017431Y017481D01*
X017181Y017731D01*
X017181Y018231D01*
X017431Y018481D01*
X017931Y018481D01*
X018181Y018231D01*
X018431Y018481D01*
X018931Y018481D01*
X019181Y018231D01*
X019181Y017731D01*
X019181Y018231D02*
X019431Y018481D01*
X019931Y018481D01*
X020181Y018231D01*
X020431Y018481D01*
X020931Y018481D01*
X021181Y018231D01*
X021431Y018481D01*
X021931Y018481D01*
X022181Y018231D01*
X021181Y018231D02*
X021181Y017731D01*
X020181Y017731D02*
X020181Y018231D01*
X018181Y018231D02*
X018181Y017731D01*
X015381Y017931D02*
X015381Y017431D01*
X015131Y017181D01*
X015381Y016931D01*
X015381Y016431D01*
X015131Y016181D01*
X014631Y016181D01*
X014381Y016431D01*
X014381Y016931D01*
X014631Y017181D01*
X014381Y017431D01*
X014381Y017931D01*
X014631Y018181D01*
X014381Y018431D01*
X014381Y018931D01*
X014631Y019181D01*
X015131Y019181D01*
X015381Y018931D01*
X015381Y018431D01*
X015131Y018181D01*
X015381Y017931D01*
X015131Y018181D02*
X014631Y018181D01*
X013831Y017931D02*
X013831Y017431D01*
X013581Y017181D01*
X013831Y016931D01*
X013831Y016431D01*
X013581Y016181D01*
X013081Y016181D01*
X012831Y016431D01*
X012831Y016931D01*
X013081Y017181D01*
X012831Y017431D01*
X012831Y017931D01*
X013081Y018181D01*
X012831Y018431D01*
X012831Y018931D01*
X013081Y019181D01*
X013581Y019181D01*
X013831Y018931D01*
X013831Y018431D01*
X013581Y018181D01*
X013831Y017931D01*
X013581Y018181D02*
X013081Y018181D01*
X012431Y018331D02*
X012431Y018981D01*
X012331Y019081D01*
X012081Y019081D01*
X011331Y019081D01*
X011481Y018931D02*
X012081Y018931D01*
X012081Y019081D01*
X011231Y018331D02*
X011231Y018031D01*
X010931Y018031D01*
X010931Y017881D01*
X010781Y017731D01*
X010481Y017731D01*
X010481Y017431D01*
X010781Y017431D01*
X010931Y017281D01*
X010931Y017131D01*
X010931Y016831D01*
X011231Y016831D01*
X011231Y017131D01*
X011231Y017281D01*
X011381Y017431D01*
X011681Y017431D01*
X011681Y017731D01*
X011381Y017731D01*
X011231Y017881D01*
X011231Y018031D01*
X010931Y018031D02*
X010931Y018331D01*
X011231Y018331D01*
X010681Y018931D02*
X010081Y018931D01*
X010081Y019081D01*
X009831Y019081D01*
X009731Y018981D01*
X009731Y018331D01*
X009731Y017831D02*
X009731Y016481D01*
X009831Y016381D01*
X012331Y016381D01*
X012431Y016481D01*
X012431Y017831D01*
X013081Y017181D02*
X013581Y017181D01*
X014631Y017181D02*
X015131Y017181D01*
X011231Y017131D02*
X010931Y017131D01*
X009181Y016581D02*
X009181Y016081D01*
X008931Y015831D01*
X009181Y015581D01*
X009181Y015081D01*
X008931Y014831D01*
X008431Y014831D01*
X008181Y015081D01*
X008181Y015581D01*
X008431Y015831D01*
X008181Y016081D01*
X008181Y016581D01*
X008431Y016831D01*
X008931Y016831D01*
X009181Y016581D01*
X008931Y015831D02*
X008431Y015831D01*
X008431Y014831D02*
X008181Y014581D01*
X008181Y014081D01*
X008431Y013831D01*
X008181Y013581D01*
X008181Y013081D01*
X008431Y012831D01*
X008931Y012831D01*
X009181Y013081D01*
X009181Y013581D01*
X008931Y013831D01*
X008431Y013831D01*
X008931Y013831D02*
X009181Y014081D01*
X009181Y014581D01*
X008931Y014831D01*
X010331Y012331D02*
X006831Y012331D01*
X006831Y011831D01*
X006731Y011831D01*
X006731Y011331D01*
X006831Y011331D01*
X006831Y009581D01*
X006731Y009581D01*
X006731Y009081D01*
X006831Y009081D01*
X006831Y007331D01*
X006731Y007331D01*
X006731Y006831D01*
X006831Y006831D01*
X006831Y006331D01*
X010331Y006331D01*
X010331Y007831D01*
X010281Y007831D01*
X010281Y008331D01*
X010331Y008331D01*
X010331Y008531D01*
X009931Y008531D01*
X009831Y008531D01*
X009831Y006831D01*
X007331Y006831D01*
X007331Y011831D01*
X009831Y011831D01*
X009831Y010131D01*
X009931Y010131D01*
X010331Y010131D01*
X010331Y008531D01*
X009831Y008531D02*
X009531Y008531D01*
X009531Y010131D01*
X009831Y010131D01*
X010331Y010131D02*
X010331Y012331D01*
X011901Y010411D02*
X011901Y007791D01*
X012041Y007651D01*
X014661Y007651D01*
X014661Y010411D01*
X011901Y010411D01*
X012060Y007951D02*
X012062Y007974D01*
X012068Y007997D01*
X012077Y008018D01*
X012090Y008038D01*
X012106Y008055D01*
X012124Y008069D01*
X012144Y008080D01*
X012166Y008088D01*
X012189Y008092D01*
X012213Y008092D01*
X012236Y008088D01*
X012258Y008080D01*
X012278Y008069D01*
X012296Y008055D01*
X012312Y008038D01*
X012325Y008018D01*
X012334Y007997D01*
X012340Y007974D01*
X012342Y007951D01*
X012340Y007928D01*
X012334Y007905D01*
X012325Y007884D01*
X012312Y007864D01*
X012296Y007847D01*
X012278Y007833D01*
X012258Y007822D01*
X012236Y007814D01*
X012213Y007810D01*
X012189Y007810D01*
X012166Y007814D01*
X012144Y007822D01*
X012124Y007833D01*
X012106Y007847D01*
X012090Y007864D01*
X012077Y007884D01*
X012068Y007905D01*
X012062Y007928D01*
X012060Y007951D01*
X011431Y005031D02*
X010931Y005031D01*
X010931Y004931D01*
X008181Y004931D01*
X008181Y005031D01*
X007681Y005031D01*
X007681Y004931D01*
X004931Y004931D01*
X004931Y005031D01*
X004431Y005031D01*
X004431Y004931D01*
X003931Y004931D01*
X003931Y001431D01*
X005681Y001431D01*
X005681Y001481D01*
X006181Y001481D01*
X006181Y001431D01*
X007131Y001431D01*
X007131Y001831D01*
X007131Y001931D01*
X004431Y001931D01*
X004431Y004431D01*
X011431Y004431D01*
X011431Y001931D01*
X009731Y001931D01*
X009131Y001931D01*
X008731Y001931D01*
X008731Y001831D01*
X008731Y001431D01*
X007131Y001431D01*
X007215Y001202D02*
X006895Y001202D01*
X006895Y000561D01*
X007215Y000561D01*
X007322Y000668D01*
X007322Y001095D01*
X007215Y001202D01*
X006677Y000988D02*
X006677Y000561D01*
X006677Y000882D02*
X006250Y000882D01*
X006250Y000988D02*
X006250Y000561D01*
X006033Y000668D02*
X006033Y001202D01*
X006250Y000988D02*
X006464Y001202D01*
X006677Y000988D01*
X006033Y000668D02*
X005926Y000561D01*
X005713Y000561D01*
X005606Y000668D01*
X005606Y001202D01*
X005388Y001095D02*
X005388Y000668D01*
X005282Y000561D01*
X005068Y000561D01*
X004961Y000668D01*
X004961Y001095D01*
X005068Y001202D01*
X005282Y001202D01*
X005388Y001095D01*
X005175Y000775D02*
X005388Y000561D01*
X007131Y001931D02*
X007131Y002231D01*
X008731Y002231D01*
X008731Y001931D01*
X008931Y001631D02*
X009131Y001631D01*
X009731Y001631D01*
X009731Y001831D01*
X009731Y001931D01*
X009731Y001631D02*
X009931Y001631D01*
X010081Y001431D01*
X011931Y001431D01*
X011931Y004931D01*
X011431Y004931D01*
X011431Y005031D01*
X013881Y004381D02*
X016281Y004381D01*
X016331Y004379D01*
X016380Y004373D01*
X016429Y004364D01*
X016477Y004351D01*
X016524Y004334D01*
X016569Y004314D01*
X016613Y004290D01*
X016655Y004263D01*
X016695Y004232D01*
X016732Y004199D01*
X016766Y004163D01*
X016798Y004125D01*
X016827Y004084D01*
X016852Y004042D01*
X016874Y003997D01*
X016893Y003951D01*
X016908Y003903D01*
X016919Y003855D01*
X016927Y003806D01*
X016931Y003756D01*
X016931Y003706D01*
X016927Y003656D01*
X016919Y003607D01*
X016908Y003559D01*
X016893Y003511D01*
X016874Y003465D01*
X016852Y003420D01*
X016827Y003378D01*
X016798Y003337D01*
X016766Y003299D01*
X016732Y003263D01*
X016695Y003230D01*
X016655Y003199D01*
X016613Y003172D01*
X016569Y003148D01*
X016524Y003128D01*
X016477Y003111D01*
X016429Y003098D01*
X016380Y003089D01*
X016331Y003083D01*
X016281Y003081D01*
X013881Y003081D01*
X013831Y003083D01*
X013782Y003089D01*
X013733Y003098D01*
X013685Y003111D01*
X013638Y003128D01*
X013593Y003148D01*
X013549Y003172D01*
X013507Y003199D01*
X013467Y003230D01*
X013430Y003263D01*
X013396Y003299D01*
X013364Y003337D01*
X013335Y003378D01*
X013310Y003420D01*
X013288Y003465D01*
X013269Y003511D01*
X013254Y003559D01*
X013243Y003607D01*
X013235Y003656D01*
X013231Y003706D01*
X013231Y003756D01*
X013235Y003806D01*
X013243Y003855D01*
X013254Y003903D01*
X013269Y003951D01*
X013288Y003997D01*
X013310Y004042D01*
X013335Y004084D01*
X013364Y004125D01*
X013396Y004163D01*
X013430Y004199D01*
X013467Y004232D01*
X013507Y004263D01*
X013549Y004290D01*
X013593Y004314D01*
X013638Y004334D01*
X013685Y004351D01*
X013733Y004364D01*
X013782Y004373D01*
X013831Y004379D01*
X013881Y004381D01*
X014581Y003731D02*
X014831Y003731D01*
X014831Y004031D01*
X014981Y004031D02*
X015181Y004031D01*
X015181Y003431D01*
X014981Y003431D01*
X014981Y004031D01*
X014831Y003731D02*
X014831Y003431D01*
X015331Y003431D02*
X015331Y003731D01*
X015581Y003731D01*
X015331Y003731D02*
X015331Y004031D01*
X011189Y001202D02*
X010762Y001202D01*
X010762Y000561D01*
X011189Y000561D01*
X010976Y000882D02*
X010762Y000882D01*
X010545Y000882D02*
X010545Y001095D01*
X010438Y001202D01*
X010118Y001202D01*
X010118Y000561D01*
X010118Y000775D02*
X010438Y000775D01*
X010545Y000882D01*
X010331Y000775D02*
X010545Y000561D01*
X009900Y000668D02*
X009900Y001202D01*
X009473Y001202D02*
X009473Y000668D01*
X009580Y000561D01*
X009793Y000561D01*
X009900Y000668D01*
X009256Y001202D02*
X008829Y001202D01*
X009042Y001202D02*
X009042Y000561D01*
X008611Y000561D02*
X008611Y000988D01*
X008398Y001202D01*
X008184Y000988D01*
X008184Y000561D01*
X007967Y000561D02*
X007753Y000775D01*
X007860Y000775D02*
X007540Y000775D01*
X007540Y000561D02*
X007540Y001202D01*
X007860Y001202D01*
X007967Y001095D01*
X007967Y000882D01*
X007860Y000775D01*
X008184Y000882D02*
X008611Y000882D01*
X008731Y001431D02*
X008781Y001431D01*
X008931Y001631D01*
X009131Y001631D02*
X009131Y001831D01*
X009131Y001931D01*
X004581Y006681D02*
X004581Y007031D01*
X004581Y007981D01*
X004581Y008381D01*
X003781Y008731D02*
X003681Y008731D01*
X003681Y008831D01*
X003081Y008831D01*
X003081Y008731D01*
X002981Y008731D01*
X002181Y008381D02*
X002181Y008031D01*
X002181Y007031D01*
X002181Y006681D01*
X001651Y006706D02*
X001651Y007133D01*
X001545Y007350D02*
X001651Y007457D01*
X001651Y007671D01*
X001545Y007777D01*
X001438Y007777D01*
X001331Y007671D01*
X001331Y007457D01*
X001224Y007350D01*
X001118Y007350D01*
X001011Y007457D01*
X001011Y007671D01*
X001118Y007777D01*
X001011Y007995D02*
X001651Y007995D01*
X001651Y008422D01*
X001331Y008209D02*
X001331Y007995D01*
X001011Y007995D02*
X001011Y008422D01*
X001011Y008640D02*
X001011Y009067D01*
X001011Y008853D02*
X001651Y008853D01*
X002331Y010031D02*
X002081Y010281D01*
X002081Y010781D01*
X002331Y011031D01*
X002081Y011281D01*
X002081Y011781D01*
X002331Y012031D01*
X002081Y012281D01*
X002081Y012781D01*
X002331Y013031D01*
X002081Y013281D01*
X002081Y013781D01*
X002331Y014031D01*
X002081Y014281D01*
X002081Y014781D01*
X002331Y015031D01*
X002081Y015281D01*
X002081Y015781D01*
X002331Y016031D01*
X002831Y016031D01*
X003081Y015781D01*
X003081Y015281D01*
X002831Y015031D01*
X003081Y014781D01*
X003081Y014281D01*
X002831Y014031D01*
X002331Y014031D01*
X002831Y014031D02*
X003081Y013781D01*
X003081Y013281D01*
X002831Y013031D01*
X003081Y012781D01*
X003081Y012281D01*
X002831Y012031D01*
X003081Y011781D01*
X003081Y011281D01*
X002831Y011031D01*
X003081Y010781D01*
X003081Y010281D01*
X002831Y010031D01*
X002331Y010031D01*
X002331Y011031D02*
X002831Y011031D01*
X002831Y012031D02*
X002331Y012031D01*
X002331Y013031D02*
X002831Y013031D01*
X002831Y015031D02*
X002331Y015031D01*
X001931Y016331D02*
X005031Y016331D01*
X005031Y017281D01*
X004631Y017281D01*
X004631Y016581D01*
X004531Y016581D01*
X004531Y017381D01*
X004631Y017281D01*
X004531Y017381D02*
X005231Y017381D01*
X005031Y017281D01*
X005231Y017381D02*
X005231Y016331D01*
X005031Y016331D01*
X004531Y016581D02*
X002431Y016581D01*
X002431Y016751D01*
X001931Y016331D02*
X001931Y020831D01*
X005031Y020831D01*
X005031Y019881D01*
X005231Y019781D01*
X004531Y019781D01*
X004631Y019881D01*
X005031Y019881D01*
X005231Y019781D02*
X005231Y019381D01*
X005031Y019281D01*
X004631Y019281D01*
X004531Y019381D01*
X005231Y019381D01*
X005231Y017781D01*
X005031Y017881D01*
X004631Y017881D01*
X004631Y019281D01*
X004531Y019381D02*
X004531Y017781D01*
X004631Y017881D01*
X004531Y017781D02*
X004531Y017381D01*
X004531Y017781D02*
X005231Y017781D01*
X005231Y017381D01*
X005031Y017881D02*
X005031Y019281D01*
X004531Y019381D02*
X004531Y019781D01*
X004531Y020581D01*
X004631Y020581D01*
X004631Y019881D01*
X005231Y019781D02*
X005231Y020831D01*
X005031Y020831D01*
X004531Y020581D02*
X002431Y020581D01*
X002431Y020411D01*
X002031Y019581D02*
X002033Y019520D01*
X002038Y019460D01*
X002047Y019399D01*
X002059Y019340D01*
X002075Y019281D01*
X002094Y019223D01*
X002116Y019167D01*
X002142Y019111D01*
X002171Y019058D01*
X002202Y019006D01*
X002237Y018956D01*
X002275Y018908D01*
X002315Y018863D01*
X002358Y018819D01*
X002403Y018779D01*
X002451Y018741D01*
X002431Y018731D02*
X002431Y018431D01*
X002031Y017581D02*
X002033Y017520D01*
X002038Y017460D01*
X002047Y017399D01*
X002059Y017340D01*
X002075Y017281D01*
X002094Y017223D01*
X002116Y017167D01*
X002142Y017111D01*
X002171Y017058D01*
X002202Y017006D01*
X002237Y016956D01*
X002275Y016908D01*
X002315Y016863D01*
X002358Y016819D01*
X002403Y016779D01*
X002451Y016741D01*
X002031Y017581D02*
X002033Y017642D01*
X002038Y017702D01*
X002047Y017763D01*
X002059Y017822D01*
X002075Y017881D01*
X002094Y017939D01*
X002116Y017995D01*
X002142Y018051D01*
X002171Y018104D01*
X002202Y018156D01*
X002237Y018206D01*
X002275Y018254D01*
X002315Y018299D01*
X002358Y018343D01*
X002403Y018383D01*
X002451Y018421D01*
X002031Y019581D02*
X002033Y019642D01*
X002038Y019702D01*
X002047Y019763D01*
X002059Y019822D01*
X002075Y019881D01*
X002094Y019939D01*
X002116Y019995D01*
X002142Y020051D01*
X002171Y020104D01*
X002202Y020156D01*
X002237Y020206D01*
X002275Y020254D01*
X002315Y020299D01*
X002358Y020343D01*
X002403Y020383D01*
X002451Y020421D01*
X003881Y024781D02*
X004931Y024781D01*
X004831Y024981D01*
X004831Y025381D01*
X004931Y025481D01*
X004931Y024781D01*
X005331Y024781D01*
X005431Y024981D01*
X005431Y025381D01*
X005331Y025481D01*
X005331Y024781D01*
X006931Y024781D01*
X006831Y024981D01*
X006831Y025381D01*
X006931Y025481D01*
X006931Y024781D01*
X007331Y024781D01*
X007431Y024981D01*
X007431Y025381D01*
X007331Y025481D01*
X007331Y024781D01*
X008931Y024781D01*
X008831Y024981D01*
X008831Y025381D01*
X008931Y025481D01*
X008931Y024781D01*
X009331Y024781D01*
X009431Y024981D01*
X009431Y025381D01*
X009331Y025481D01*
X009331Y024781D01*
X010931Y024781D01*
X010831Y024981D01*
X010831Y025381D01*
X009431Y025381D01*
X009331Y025481D02*
X008931Y025481D01*
X007331Y025481D01*
X006931Y025481D01*
X005331Y025481D01*
X004931Y025481D01*
X004131Y025481D01*
X004131Y027581D01*
X004301Y027581D01*
X003881Y028081D02*
X003881Y024981D01*
X004831Y024981D01*
X004831Y025381D02*
X004131Y025381D01*
X004131Y025481D01*
X003881Y024981D02*
X003881Y024781D01*
X005431Y024981D02*
X006831Y024981D01*
X006831Y025381D02*
X005431Y025381D01*
X005971Y027561D02*
X005933Y027609D01*
X005893Y027654D01*
X005849Y027697D01*
X005804Y027737D01*
X005756Y027775D01*
X005706Y027810D01*
X005654Y027841D01*
X005601Y027870D01*
X005545Y027896D01*
X005489Y027918D01*
X005431Y027937D01*
X005372Y027953D01*
X005313Y027965D01*
X005252Y027974D01*
X005192Y027979D01*
X005131Y027981D01*
X005981Y027581D02*
X006281Y027581D01*
X006291Y027561D02*
X006329Y027609D01*
X006369Y027654D01*
X006413Y027697D01*
X006458Y027737D01*
X006506Y027775D01*
X006556Y027810D01*
X006608Y027841D01*
X006661Y027870D01*
X006717Y027896D01*
X006773Y027918D01*
X006831Y027937D01*
X006890Y027953D01*
X006949Y027965D01*
X007010Y027974D01*
X007070Y027979D01*
X007131Y027981D01*
X007981Y027581D02*
X008281Y027581D01*
X008291Y027561D02*
X008329Y027609D01*
X008369Y027654D01*
X008413Y027697D01*
X008458Y027737D01*
X008506Y027775D01*
X008556Y027810D01*
X008608Y027841D01*
X008661Y027870D01*
X008717Y027896D01*
X008773Y027918D01*
X008831Y027937D01*
X008890Y027953D01*
X008949Y027965D01*
X009010Y027974D01*
X009070Y027979D01*
X009131Y027981D01*
X009981Y027581D02*
X010281Y027581D01*
X010291Y027561D02*
X010329Y027609D01*
X010369Y027654D01*
X010413Y027697D01*
X010458Y027737D01*
X010506Y027775D01*
X010556Y027810D01*
X010608Y027841D01*
X010661Y027870D01*
X010717Y027896D01*
X010773Y027918D01*
X010831Y027937D01*
X010890Y027953D01*
X010949Y027965D01*
X011010Y027974D01*
X011070Y027979D01*
X011131Y027981D01*
X011981Y027581D02*
X012281Y027581D01*
X012291Y027561D02*
X012329Y027609D01*
X012369Y027654D01*
X012413Y027697D01*
X012458Y027737D01*
X012506Y027775D01*
X012556Y027810D01*
X012608Y027841D01*
X012661Y027870D01*
X012717Y027896D01*
X012773Y027918D01*
X012831Y027937D01*
X012890Y027953D01*
X012949Y027965D01*
X013010Y027974D01*
X013070Y027979D01*
X013131Y027981D01*
X013981Y027581D02*
X014281Y027581D01*
X014291Y027561D02*
X014329Y027609D01*
X014369Y027654D01*
X014413Y027697D01*
X014458Y027737D01*
X014506Y027775D01*
X014556Y027810D01*
X014608Y027841D01*
X014661Y027870D01*
X014717Y027896D01*
X014773Y027918D01*
X014831Y027937D01*
X014890Y027953D01*
X014949Y027965D01*
X015010Y027974D01*
X015070Y027979D01*
X015131Y027981D01*
X015961Y027581D02*
X016131Y027581D01*
X016131Y025481D01*
X015331Y025481D01*
X015431Y025381D01*
X015431Y024981D01*
X015331Y024781D01*
X015331Y025481D01*
X014931Y025481D01*
X014831Y025381D01*
X014831Y024981D01*
X014931Y024781D01*
X014931Y025481D01*
X013331Y025481D01*
X013431Y025381D01*
X013431Y024981D01*
X013331Y024781D01*
X013331Y025481D01*
X012931Y025481D01*
X012831Y025381D01*
X012831Y024981D01*
X012931Y024781D01*
X012931Y025481D01*
X011331Y025481D01*
X011431Y025381D01*
X012831Y025381D01*
X012831Y024981D02*
X011431Y024981D01*
X011431Y025381D01*
X011331Y025481D02*
X011331Y024781D01*
X011431Y024981D01*
X011331Y024781D02*
X010931Y024781D01*
X010931Y025481D01*
X010831Y025381D01*
X010931Y025481D02*
X009331Y025481D01*
X008831Y025381D02*
X007431Y025381D01*
X007431Y024981D02*
X008831Y024981D01*
X009431Y024981D02*
X010831Y024981D01*
X010931Y025481D02*
X011331Y025481D01*
X011331Y024781D02*
X012931Y024781D01*
X013331Y024781D01*
X014931Y024781D01*
X015331Y024781D01*
X016381Y024781D01*
X016381Y024981D01*
X015431Y024981D01*
X015431Y025381D02*
X016131Y025381D01*
X016131Y025481D01*
X016381Y024981D02*
X016381Y028081D01*
X003881Y028081D01*
X004291Y027561D02*
X004329Y027609D01*
X004369Y027654D01*
X004413Y027697D01*
X004458Y027737D01*
X004506Y027775D01*
X004556Y027810D01*
X004608Y027841D01*
X004661Y027870D01*
X004717Y027896D01*
X004773Y027918D01*
X004831Y027937D01*
X004890Y027953D01*
X004949Y027965D01*
X005010Y027974D01*
X005070Y027979D01*
X005131Y027981D01*
X007131Y027981D02*
X007192Y027979D01*
X007252Y027974D01*
X007313Y027965D01*
X007372Y027953D01*
X007431Y027937D01*
X007489Y027918D01*
X007545Y027896D01*
X007601Y027870D01*
X007654Y027841D01*
X007706Y027810D01*
X007756Y027775D01*
X007804Y027737D01*
X007849Y027697D01*
X007893Y027654D01*
X007933Y027609D01*
X007971Y027561D01*
X009131Y027981D02*
X009192Y027979D01*
X009252Y027974D01*
X009313Y027965D01*
X009372Y027953D01*
X009431Y027937D01*
X009489Y027918D01*
X009545Y027896D01*
X009601Y027870D01*
X009654Y027841D01*
X009706Y027810D01*
X009756Y027775D01*
X009804Y027737D01*
X009849Y027697D01*
X009893Y027654D01*
X009933Y027609D01*
X009971Y027561D01*
X011131Y027981D02*
X011192Y027979D01*
X011252Y027974D01*
X011313Y027965D01*
X011372Y027953D01*
X011431Y027937D01*
X011489Y027918D01*
X011545Y027896D01*
X011601Y027870D01*
X011654Y027841D01*
X011706Y027810D01*
X011756Y027775D01*
X011804Y027737D01*
X011849Y027697D01*
X011893Y027654D01*
X011933Y027609D01*
X011971Y027561D01*
X013131Y027981D02*
X013192Y027979D01*
X013252Y027974D01*
X013313Y027965D01*
X013372Y027953D01*
X013431Y027937D01*
X013489Y027918D01*
X013545Y027896D01*
X013601Y027870D01*
X013654Y027841D01*
X013706Y027810D01*
X013756Y027775D01*
X013804Y027737D01*
X013849Y027697D01*
X013893Y027654D01*
X013933Y027609D01*
X013971Y027561D01*
X015131Y027981D02*
X015192Y027979D01*
X015252Y027974D01*
X015313Y027965D01*
X015372Y027953D01*
X015431Y027937D01*
X015489Y027918D01*
X015545Y027896D01*
X015601Y027870D01*
X015654Y027841D01*
X015706Y027810D01*
X015756Y027775D01*
X015804Y027737D01*
X015849Y027697D01*
X015893Y027654D01*
X015933Y027609D01*
X015971Y027561D01*
X017431Y028181D02*
X017431Y025081D01*
X018381Y025081D01*
X018381Y025481D01*
X017681Y025481D01*
X017681Y025581D01*
X018481Y025581D01*
X018381Y025481D01*
X018481Y025581D02*
X018481Y024881D01*
X018381Y025081D01*
X018481Y024881D02*
X017431Y024881D01*
X017431Y025081D01*
X017681Y025581D02*
X017681Y027681D01*
X017851Y027681D01*
X017431Y028181D02*
X021931Y028181D01*
X021931Y025081D01*
X020981Y025081D01*
X020881Y024881D01*
X020881Y025581D01*
X020981Y025481D01*
X020981Y025081D01*
X020881Y024881D02*
X020481Y024881D01*
X020381Y025081D01*
X020381Y025481D01*
X020481Y025581D01*
X020481Y024881D01*
X018881Y024881D01*
X018981Y025081D01*
X018981Y025481D01*
X020381Y025481D01*
X020481Y025581D02*
X018881Y025581D01*
X018981Y025481D01*
X018881Y025581D02*
X018881Y024881D01*
X018481Y024881D01*
X018981Y025081D02*
X020381Y025081D01*
X020481Y025581D02*
X020881Y025581D01*
X021681Y025581D01*
X021681Y025481D01*
X020981Y025481D01*
X020881Y024881D02*
X021931Y024881D01*
X021931Y025081D01*
X021681Y025581D02*
X021681Y027681D01*
X021511Y027681D01*
X020681Y028081D02*
X020620Y028079D01*
X020560Y028074D01*
X020499Y028065D01*
X020440Y028053D01*
X020381Y028037D01*
X020323Y028018D01*
X020267Y027996D01*
X020211Y027970D01*
X020158Y027941D01*
X020106Y027910D01*
X020056Y027875D01*
X020008Y027837D01*
X019963Y027797D01*
X019919Y027754D01*
X019879Y027709D01*
X019841Y027661D01*
X019831Y027681D02*
X019531Y027681D01*
X018681Y028081D02*
X018620Y028079D01*
X018560Y028074D01*
X018499Y028065D01*
X018440Y028053D01*
X018381Y028037D01*
X018323Y028018D01*
X018267Y027996D01*
X018211Y027970D01*
X018158Y027941D01*
X018106Y027910D01*
X018056Y027875D01*
X018008Y027837D01*
X017963Y027797D01*
X017919Y027754D01*
X017879Y027709D01*
X017841Y027661D01*
X018681Y028081D02*
X018742Y028079D01*
X018802Y028074D01*
X018863Y028065D01*
X018922Y028053D01*
X018981Y028037D01*
X019039Y028018D01*
X019095Y027996D01*
X019151Y027970D01*
X019204Y027941D01*
X019256Y027910D01*
X019306Y027875D01*
X019354Y027837D01*
X019399Y027797D01*
X019443Y027754D01*
X019483Y027709D01*
X019521Y027661D01*
X020681Y028081D02*
X020742Y028079D01*
X020802Y028074D01*
X020863Y028065D01*
X020922Y028053D01*
X020981Y028037D01*
X021039Y028018D01*
X021095Y027996D01*
X021151Y027970D01*
X021204Y027941D01*
X021256Y027910D01*
X021306Y027875D01*
X021354Y027837D01*
X021399Y027797D01*
X021443Y027754D01*
X021483Y027709D01*
X021521Y027661D01*
X018881Y025581D02*
X018481Y025581D01*
X014831Y025381D02*
X013431Y025381D01*
X013431Y024981D02*
X014831Y024981D01*
X010831Y019081D02*
X010081Y019081D01*
X000781Y027481D02*
X000783Y027554D01*
X000789Y027627D01*
X000799Y027699D01*
X000813Y027771D01*
X000830Y027842D01*
X000852Y027912D01*
X000877Y027981D01*
X000906Y028048D01*
X000938Y028113D01*
X000974Y028177D01*
X001014Y028239D01*
X001056Y028298D01*
X001102Y028355D01*
X001151Y028409D01*
X001203Y028461D01*
X001257Y028510D01*
X001314Y028556D01*
X001373Y028598D01*
X001435Y028638D01*
X001499Y028674D01*
X001564Y028706D01*
X001631Y028735D01*
X001700Y028760D01*
X001770Y028782D01*
X001841Y028799D01*
X001913Y028813D01*
X001985Y028823D01*
X002058Y028829D01*
X002131Y028831D01*
X002204Y028829D01*
X002277Y028823D01*
X002349Y028813D01*
X002421Y028799D01*
X002492Y028782D01*
X002562Y028760D01*
X002631Y028735D01*
X002698Y028706D01*
X002763Y028674D01*
X002827Y028638D01*
X002889Y028598D01*
X002948Y028556D01*
X003005Y028510D01*
X003059Y028461D01*
X003111Y028409D01*
X003160Y028355D01*
X003206Y028298D01*
X003248Y028239D01*
X003288Y028177D01*
X003324Y028113D01*
X003356Y028048D01*
X003385Y027981D01*
X003410Y027912D01*
X003432Y027842D01*
X003449Y027771D01*
X003463Y027699D01*
X003473Y027627D01*
X003479Y027554D01*
X003481Y027481D01*
X003479Y027408D01*
X003473Y027335D01*
X003463Y027263D01*
X003449Y027191D01*
X003432Y027120D01*
X003410Y027050D01*
X003385Y026981D01*
X003356Y026914D01*
X003324Y026849D01*
X003288Y026785D01*
X003248Y026723D01*
X003206Y026664D01*
X003160Y026607D01*
X003111Y026553D01*
X003059Y026501D01*
X003005Y026452D01*
X002948Y026406D01*
X002889Y026364D01*
X002827Y026324D01*
X002763Y026288D01*
X002698Y026256D01*
X002631Y026227D01*
X002562Y026202D01*
X002492Y026180D01*
X002421Y026163D01*
X002349Y026149D01*
X002277Y026139D01*
X002204Y026133D01*
X002131Y026131D01*
X002058Y026133D01*
X001985Y026139D01*
X001913Y026149D01*
X001841Y026163D01*
X001770Y026180D01*
X001700Y026202D01*
X001631Y026227D01*
X001564Y026256D01*
X001499Y026288D01*
X001435Y026324D01*
X001373Y026364D01*
X001314Y026406D01*
X001257Y026452D01*
X001203Y026501D01*
X001151Y026553D01*
X001102Y026607D01*
X001056Y026664D01*
X001014Y026723D01*
X000974Y026785D01*
X000938Y026849D01*
X000906Y026914D01*
X000877Y026981D01*
X000852Y027050D01*
X000830Y027120D01*
X000813Y027191D01*
X000799Y027263D01*
X000789Y027335D01*
X000783Y027408D01*
X000781Y027481D01*
X003281Y007531D02*
X003283Y007551D01*
X003289Y007569D01*
X003298Y007587D01*
X003310Y007602D01*
X003325Y007614D01*
X003343Y007623D01*
X003361Y007629D01*
X003381Y007631D01*
X003401Y007629D01*
X003419Y007623D01*
X003437Y007614D01*
X003452Y007602D01*
X003464Y007587D01*
X003473Y007569D01*
X003479Y007551D01*
X003481Y007531D01*
X003479Y007511D01*
X003473Y007493D01*
X003464Y007475D01*
X003452Y007460D01*
X003437Y007448D01*
X003419Y007439D01*
X003401Y007433D01*
X003381Y007431D01*
X003361Y007433D01*
X003343Y007439D01*
X003325Y007448D01*
X003310Y007460D01*
X003298Y007475D01*
X003289Y007493D01*
X003283Y007511D01*
X003281Y007531D01*
X002681Y007531D02*
X002683Y007583D01*
X002689Y007635D01*
X002699Y007687D01*
X002712Y007737D01*
X002729Y007787D01*
X002750Y007835D01*
X002775Y007881D01*
X002803Y007925D01*
X002834Y007967D01*
X002868Y008007D01*
X002905Y008044D01*
X002945Y008078D01*
X002987Y008109D01*
X003031Y008137D01*
X003077Y008162D01*
X003125Y008183D01*
X003175Y008200D01*
X003225Y008213D01*
X003277Y008223D01*
X003329Y008229D01*
X003381Y008231D01*
X003433Y008229D01*
X003485Y008223D01*
X003537Y008213D01*
X003587Y008200D01*
X003637Y008183D01*
X003685Y008162D01*
X003731Y008137D01*
X003775Y008109D01*
X003817Y008078D01*
X003857Y008044D01*
X003894Y008007D01*
X003928Y007967D01*
X003959Y007925D01*
X003987Y007881D01*
X004012Y007835D01*
X004033Y007787D01*
X004050Y007737D01*
X004063Y007687D01*
X004073Y007635D01*
X004079Y007583D01*
X004081Y007531D01*
X004079Y007479D01*
X004073Y007427D01*
X004063Y007375D01*
X004050Y007325D01*
X004033Y007275D01*
X004012Y007227D01*
X003987Y007181D01*
X003959Y007137D01*
X003928Y007095D01*
X003894Y007055D01*
X003857Y007018D01*
X003817Y006984D01*
X003775Y006953D01*
X003731Y006925D01*
X003685Y006900D01*
X003637Y006879D01*
X003587Y006862D01*
X003537Y006849D01*
X003485Y006839D01*
X003433Y006833D01*
X003381Y006831D01*
X003329Y006833D01*
X003277Y006839D01*
X003225Y006849D01*
X003175Y006862D01*
X003125Y006879D01*
X003077Y006900D01*
X003031Y006925D01*
X002987Y006953D01*
X002945Y006984D01*
X002905Y007018D01*
X002868Y007055D01*
X002834Y007095D01*
X002803Y007137D01*
X002775Y007181D01*
X002750Y007227D01*
X002729Y007275D01*
X002712Y007325D01*
X002699Y007375D01*
X002689Y007427D01*
X002683Y007479D01*
X002681Y007531D01*
X002981Y006331D02*
X003081Y006331D01*
X003081Y006231D01*
X003681Y006231D01*
X003681Y006331D01*
X003781Y006331D01*
X001651Y006488D02*
X001438Y006275D01*
X001438Y006382D02*
X001438Y006061D01*
X001651Y006061D02*
X001011Y006061D01*
X001011Y006382D01*
X001118Y006488D01*
X001331Y006488D01*
X001438Y006382D01*
X001331Y006706D02*
X001331Y006919D01*
X001011Y006706D02*
X001651Y006706D01*
X001011Y006706D02*
X001011Y007133D01*
X000881Y002131D02*
X000883Y002204D01*
X000889Y002277D01*
X000899Y002349D01*
X000913Y002421D01*
X000930Y002492D01*
X000952Y002562D01*
X000977Y002631D01*
X001006Y002698D01*
X001038Y002763D01*
X001074Y002827D01*
X001114Y002889D01*
X001156Y002948D01*
X001202Y003005D01*
X001251Y003059D01*
X001303Y003111D01*
X001357Y003160D01*
X001414Y003206D01*
X001473Y003248D01*
X001535Y003288D01*
X001599Y003324D01*
X001664Y003356D01*
X001731Y003385D01*
X001800Y003410D01*
X001870Y003432D01*
X001941Y003449D01*
X002013Y003463D01*
X002085Y003473D01*
X002158Y003479D01*
X002231Y003481D01*
X002304Y003479D01*
X002377Y003473D01*
X002449Y003463D01*
X002521Y003449D01*
X002592Y003432D01*
X002662Y003410D01*
X002731Y003385D01*
X002798Y003356D01*
X002863Y003324D01*
X002927Y003288D01*
X002989Y003248D01*
X003048Y003206D01*
X003105Y003160D01*
X003159Y003111D01*
X003211Y003059D01*
X003260Y003005D01*
X003306Y002948D01*
X003348Y002889D01*
X003388Y002827D01*
X003424Y002763D01*
X003456Y002698D01*
X003485Y002631D01*
X003510Y002562D01*
X003532Y002492D01*
X003549Y002421D01*
X003563Y002349D01*
X003573Y002277D01*
X003579Y002204D01*
X003581Y002131D01*
X003579Y002058D01*
X003573Y001985D01*
X003563Y001913D01*
X003549Y001841D01*
X003532Y001770D01*
X003510Y001700D01*
X003485Y001631D01*
X003456Y001564D01*
X003424Y001499D01*
X003388Y001435D01*
X003348Y001373D01*
X003306Y001314D01*
X003260Y001257D01*
X003211Y001203D01*
X003159Y001151D01*
X003105Y001102D01*
X003048Y001056D01*
X002989Y001014D01*
X002927Y000974D01*
X002863Y000938D01*
X002798Y000906D01*
X002731Y000877D01*
X002662Y000852D01*
X002592Y000830D01*
X002521Y000813D01*
X002449Y000799D01*
X002377Y000789D01*
X002304Y000783D01*
X002231Y000781D01*
X002158Y000783D01*
X002085Y000789D01*
X002013Y000799D01*
X001941Y000813D01*
X001870Y000830D01*
X001800Y000852D01*
X001731Y000877D01*
X001664Y000906D01*
X001599Y000938D01*
X001535Y000974D01*
X001473Y001014D01*
X001414Y001056D01*
X001357Y001102D01*
X001303Y001151D01*
X001251Y001203D01*
X001202Y001257D01*
X001156Y001314D01*
X001114Y001373D01*
X001074Y001435D01*
X001038Y001499D01*
X001006Y001564D01*
X000977Y001631D01*
X000952Y001700D01*
X000930Y001770D01*
X000913Y001841D01*
X000899Y001913D01*
X000889Y001985D01*
X000883Y002058D01*
X000881Y002131D01*
X020911Y016132D02*
X021338Y016132D01*
X021125Y016345D02*
X021125Y015918D01*
X025331Y027581D02*
X025333Y027654D01*
X025339Y027727D01*
X025349Y027799D01*
X025363Y027871D01*
X025380Y027942D01*
X025402Y028012D01*
X025427Y028081D01*
X025456Y028148D01*
X025488Y028213D01*
X025524Y028277D01*
X025564Y028339D01*
X025606Y028398D01*
X025652Y028455D01*
X025701Y028509D01*
X025753Y028561D01*
X025807Y028610D01*
X025864Y028656D01*
X025923Y028698D01*
X025985Y028738D01*
X026049Y028774D01*
X026114Y028806D01*
X026181Y028835D01*
X026250Y028860D01*
X026320Y028882D01*
X026391Y028899D01*
X026463Y028913D01*
X026535Y028923D01*
X026608Y028929D01*
X026681Y028931D01*
X026754Y028929D01*
X026827Y028923D01*
X026899Y028913D01*
X026971Y028899D01*
X027042Y028882D01*
X027112Y028860D01*
X027181Y028835D01*
X027248Y028806D01*
X027313Y028774D01*
X027377Y028738D01*
X027439Y028698D01*
X027498Y028656D01*
X027555Y028610D01*
X027609Y028561D01*
X027661Y028509D01*
X027710Y028455D01*
X027756Y028398D01*
X027798Y028339D01*
X027838Y028277D01*
X027874Y028213D01*
X027906Y028148D01*
X027935Y028081D01*
X027960Y028012D01*
X027982Y027942D01*
X027999Y027871D01*
X028013Y027799D01*
X028023Y027727D01*
X028029Y027654D01*
X028031Y027581D01*
X028029Y027508D01*
X028023Y027435D01*
X028013Y027363D01*
X027999Y027291D01*
X027982Y027220D01*
X027960Y027150D01*
X027935Y027081D01*
X027906Y027014D01*
X027874Y026949D01*
X027838Y026885D01*
X027798Y026823D01*
X027756Y026764D01*
X027710Y026707D01*
X027661Y026653D01*
X027609Y026601D01*
X027555Y026552D01*
X027498Y026506D01*
X027439Y026464D01*
X027377Y026424D01*
X027313Y026388D01*
X027248Y026356D01*
X027181Y026327D01*
X027112Y026302D01*
X027042Y026280D01*
X026971Y026263D01*
X026899Y026249D01*
X026827Y026239D01*
X026754Y026233D01*
X026681Y026231D01*
X026608Y026233D01*
X026535Y026239D01*
X026463Y026249D01*
X026391Y026263D01*
X026320Y026280D01*
X026250Y026302D01*
X026181Y026327D01*
X026114Y026356D01*
X026049Y026388D01*
X025985Y026424D01*
X025923Y026464D01*
X025864Y026506D01*
X025807Y026552D01*
X025753Y026601D01*
X025701Y026653D01*
X025652Y026707D01*
X025606Y026764D01*
X025564Y026823D01*
X025524Y026885D01*
X025488Y026949D01*
X025456Y027014D01*
X025427Y027081D01*
X025402Y027150D01*
X025380Y027220D01*
X025363Y027291D01*
X025349Y027363D01*
X025339Y027435D01*
X025333Y027508D01*
X025331Y027581D01*
D12*
X024089Y025839D02*
X027789Y025839D01*
X027789Y024166D01*
X027789Y023487D02*
X027789Y021824D01*
X024089Y021824D01*
X023774Y022139D01*
X023711Y022042D02*
X023711Y021888D01*
X023635Y021812D01*
X023635Y021658D02*
X023711Y021582D01*
X023711Y021428D01*
X023635Y021351D01*
X023328Y021351D01*
X023251Y021428D01*
X023251Y021582D01*
X023328Y021658D01*
X023328Y021812D02*
X023251Y021888D01*
X023251Y022042D01*
X023328Y022119D01*
X023405Y022119D01*
X023481Y022042D01*
X023558Y022119D01*
X023635Y022119D01*
X023711Y022042D01*
X023481Y022042D02*
X023481Y021965D01*
X023961Y020526D02*
X023961Y020219D01*
X023961Y020372D02*
X023501Y020372D01*
X023655Y020219D01*
X023578Y020065D02*
X023501Y019988D01*
X023501Y019835D01*
X023578Y019758D01*
X023885Y019758D01*
X023961Y019835D01*
X023961Y019988D01*
X023885Y020065D01*
X023961Y019605D02*
X023961Y019451D01*
X023961Y019528D02*
X023501Y019528D01*
X023501Y019451D02*
X023501Y019605D01*
X023350Y019578D02*
X023350Y019732D01*
X023273Y019808D01*
X023196Y019808D01*
X023043Y019732D01*
X023043Y019962D01*
X023350Y019962D01*
X023350Y019578D02*
X023273Y019501D01*
X023120Y019501D01*
X023043Y019578D01*
X022889Y019578D02*
X022813Y019501D01*
X022659Y019501D01*
X022582Y019578D01*
X022582Y019655D01*
X022659Y019732D01*
X022813Y019732D01*
X022889Y019655D01*
X022889Y019578D01*
X022813Y019732D02*
X022889Y019808D01*
X022889Y019885D01*
X022813Y019962D01*
X022659Y019962D01*
X022582Y019885D01*
X022582Y019808D01*
X022659Y019732D01*
X022429Y019732D02*
X022122Y019732D01*
X022352Y019962D01*
X022352Y019501D01*
X021969Y019578D02*
X021892Y019501D01*
X021738Y019501D01*
X021662Y019578D01*
X021738Y019732D02*
X021892Y019732D01*
X021969Y019655D01*
X021969Y019578D01*
X021738Y019732D02*
X021662Y019808D01*
X021662Y019885D01*
X021738Y019962D01*
X021892Y019962D01*
X021969Y019885D01*
X021508Y019885D02*
X021508Y019732D01*
X021432Y019655D01*
X021201Y019655D01*
X021201Y019501D02*
X021201Y019962D01*
X021432Y019962D01*
X021508Y019885D01*
X021355Y019655D02*
X021508Y019501D01*
X020521Y021301D02*
X020521Y021762D01*
X020291Y021532D01*
X020598Y021532D01*
X020138Y021685D02*
X020061Y021762D01*
X019907Y021762D01*
X019831Y021685D01*
X019831Y021378D01*
X019907Y021301D01*
X020061Y021301D01*
X020138Y021378D01*
X019677Y021301D02*
X019524Y021301D01*
X019600Y021301D02*
X019600Y021762D01*
X019524Y021762D02*
X019677Y021762D01*
X016911Y023201D02*
X016911Y023508D01*
X016911Y023662D02*
X016911Y023969D01*
X016911Y024122D02*
X016911Y024352D01*
X016835Y024429D01*
X016528Y024429D01*
X016451Y024352D01*
X016451Y024122D01*
X016911Y024122D01*
X016681Y023815D02*
X016681Y023662D01*
X016451Y023662D02*
X016451Y023969D01*
X016451Y023662D02*
X016911Y023662D01*
X016911Y023201D02*
X016451Y023201D01*
X016451Y024582D02*
X016451Y024889D01*
X016528Y024889D01*
X016835Y024582D01*
X016911Y024582D01*
X018951Y026301D02*
X018951Y026762D01*
X019182Y026762D01*
X019258Y026685D01*
X019258Y026532D01*
X019182Y026455D01*
X018951Y026455D01*
X019412Y026378D02*
X019488Y026301D01*
X019642Y026301D01*
X019719Y026378D01*
X019719Y026685D01*
X019642Y026762D01*
X019488Y026762D01*
X019412Y026685D01*
X019412Y026378D01*
X019872Y026301D02*
X019872Y026762D01*
X020179Y026762D02*
X020179Y026301D01*
X020026Y026455D01*
X019872Y026301D01*
X020332Y026301D02*
X020639Y026301D01*
X020793Y026301D02*
X020793Y026762D01*
X021023Y026762D01*
X021100Y026685D01*
X021100Y026532D01*
X021023Y026455D01*
X020793Y026455D01*
X020946Y026455D02*
X021100Y026301D01*
X020639Y026762D02*
X020332Y026762D01*
X020332Y026301D01*
X020332Y026532D02*
X020486Y026532D01*
X019658Y027432D02*
X019351Y027432D01*
X019505Y027585D02*
X019505Y027278D01*
X023774Y025524D02*
X024089Y025839D01*
X025531Y024935D02*
X025531Y024628D01*
X025607Y024551D01*
X025761Y024551D01*
X025838Y024628D01*
X025991Y024551D02*
X026298Y024551D01*
X026144Y024551D02*
X026144Y025012D01*
X025991Y024858D01*
X025838Y024935D02*
X025761Y025012D01*
X025607Y025012D01*
X025531Y024935D01*
X023862Y024166D02*
X023881Y024260D01*
X023904Y024352D01*
X023932Y024444D01*
X023964Y024534D01*
X024000Y024622D01*
X024041Y024708D01*
X024086Y024793D01*
X024136Y024875D01*
X024189Y024954D01*
X024246Y025031D01*
X024306Y025105D01*
X024371Y025176D01*
X024438Y025243D01*
X024509Y025307D01*
X024583Y025368D01*
X024660Y025425D01*
X024739Y025478D01*
X024821Y025527D01*
X024905Y025572D01*
X024992Y025613D01*
X025080Y025650D01*
X025170Y025682D01*
X025262Y025709D01*
X025354Y025733D01*
X025448Y025751D01*
X025543Y025765D01*
X025638Y025775D01*
X025733Y025779D01*
X025829Y025779D01*
X025924Y025775D01*
X026019Y025765D01*
X026114Y025751D01*
X026208Y025733D01*
X026300Y025709D01*
X026392Y025682D01*
X026482Y025650D01*
X026570Y025613D01*
X026657Y025572D01*
X026741Y025527D01*
X026823Y025478D01*
X026902Y025425D01*
X026979Y025368D01*
X027053Y025307D01*
X027124Y025243D01*
X027191Y025176D01*
X027256Y025105D01*
X027316Y025031D01*
X027373Y024954D01*
X027426Y024875D01*
X027476Y024793D01*
X027521Y024708D01*
X027562Y024622D01*
X027598Y024534D01*
X027630Y024444D01*
X027658Y024352D01*
X027681Y024260D01*
X027700Y024166D01*
X027700Y023497D02*
X027681Y023403D01*
X027658Y023311D01*
X027630Y023219D01*
X027598Y023129D01*
X027562Y023041D01*
X027521Y022955D01*
X027476Y022870D01*
X027426Y022788D01*
X027373Y022709D01*
X027316Y022632D01*
X027256Y022558D01*
X027191Y022487D01*
X027124Y022420D01*
X027053Y022356D01*
X026979Y022295D01*
X026902Y022238D01*
X026823Y022185D01*
X026741Y022136D01*
X026657Y022091D01*
X026570Y022050D01*
X026482Y022013D01*
X026392Y021981D01*
X026300Y021954D01*
X026208Y021930D01*
X026114Y021912D01*
X026019Y021898D01*
X025924Y021888D01*
X025829Y021884D01*
X025733Y021884D01*
X025638Y021888D01*
X025543Y021898D01*
X025448Y021912D01*
X025354Y021930D01*
X025262Y021954D01*
X025170Y021981D01*
X025080Y022013D01*
X024992Y022050D01*
X024905Y022091D01*
X024821Y022136D01*
X024739Y022185D01*
X024660Y022238D01*
X024583Y022295D01*
X024509Y022356D01*
X024438Y022420D01*
X024371Y022487D01*
X024306Y022558D01*
X024246Y022632D01*
X024189Y022709D01*
X024136Y022788D01*
X024086Y022870D01*
X024041Y022955D01*
X024000Y023041D01*
X023964Y023129D01*
X023932Y023219D01*
X023904Y023311D01*
X023881Y023403D01*
X023862Y023497D01*
X024128Y017962D02*
X024051Y017885D01*
X024051Y017578D01*
X024128Y017501D01*
X024282Y017501D01*
X024358Y017578D01*
X024512Y017732D02*
X024819Y017732D01*
X024742Y017962D02*
X024742Y017501D01*
X024512Y017732D02*
X024742Y017962D01*
X024358Y017885D02*
X024282Y017962D01*
X024128Y017962D01*
X023989Y016789D02*
X027689Y016789D01*
X027689Y015116D01*
X027689Y014437D02*
X027689Y012774D01*
X023989Y012774D01*
X023674Y013089D01*
X024981Y013728D02*
X025057Y013651D01*
X025211Y013651D01*
X025288Y013728D01*
X025441Y013651D02*
X025748Y013958D01*
X025748Y014035D01*
X025671Y014112D01*
X025518Y014112D01*
X025441Y014035D01*
X025288Y014035D02*
X025211Y014112D01*
X025057Y014112D01*
X024981Y014035D01*
X024981Y013728D01*
X025441Y013651D02*
X025748Y013651D01*
X027600Y014447D02*
X027581Y014353D01*
X027558Y014261D01*
X027530Y014169D01*
X027498Y014079D01*
X027462Y013991D01*
X027421Y013905D01*
X027376Y013820D01*
X027326Y013738D01*
X027273Y013659D01*
X027216Y013582D01*
X027156Y013508D01*
X027091Y013437D01*
X027024Y013370D01*
X026953Y013306D01*
X026879Y013245D01*
X026802Y013188D01*
X026723Y013135D01*
X026641Y013086D01*
X026557Y013041D01*
X026470Y013000D01*
X026382Y012963D01*
X026292Y012931D01*
X026200Y012904D01*
X026108Y012880D01*
X026014Y012862D01*
X025919Y012848D01*
X025824Y012838D01*
X025729Y012834D01*
X025633Y012834D01*
X025538Y012838D01*
X025443Y012848D01*
X025348Y012862D01*
X025254Y012880D01*
X025162Y012904D01*
X025070Y012931D01*
X024980Y012963D01*
X024892Y013000D01*
X024805Y013041D01*
X024721Y013086D01*
X024639Y013135D01*
X024560Y013188D01*
X024483Y013245D01*
X024409Y013306D01*
X024338Y013370D01*
X024271Y013437D01*
X024206Y013508D01*
X024146Y013582D01*
X024089Y013659D01*
X024036Y013738D01*
X023986Y013820D01*
X023941Y013905D01*
X023900Y013991D01*
X023864Y014079D01*
X023832Y014169D01*
X023804Y014261D01*
X023781Y014353D01*
X023762Y014447D01*
X023762Y015116D02*
X023781Y015210D01*
X023804Y015302D01*
X023832Y015394D01*
X023864Y015484D01*
X023900Y015572D01*
X023941Y015658D01*
X023986Y015743D01*
X024036Y015825D01*
X024089Y015904D01*
X024146Y015981D01*
X024206Y016055D01*
X024271Y016126D01*
X024338Y016193D01*
X024409Y016257D01*
X024483Y016318D01*
X024560Y016375D01*
X024639Y016428D01*
X024721Y016477D01*
X024805Y016522D01*
X024892Y016563D01*
X024980Y016600D01*
X025070Y016632D01*
X025162Y016659D01*
X025254Y016683D01*
X025348Y016701D01*
X025443Y016715D01*
X025538Y016725D01*
X025633Y016729D01*
X025729Y016729D01*
X025824Y016725D01*
X025919Y016715D01*
X026014Y016701D01*
X026108Y016683D01*
X026200Y016659D01*
X026292Y016632D01*
X026382Y016600D01*
X026470Y016563D01*
X026557Y016522D01*
X026641Y016477D01*
X026723Y016428D01*
X026802Y016375D01*
X026879Y016318D01*
X026953Y016257D01*
X027024Y016193D01*
X027091Y016126D01*
X027156Y016055D01*
X027216Y015981D01*
X027273Y015904D01*
X027326Y015825D01*
X027376Y015743D01*
X027421Y015658D01*
X027462Y015572D01*
X027498Y015484D01*
X027530Y015394D01*
X027558Y015302D01*
X027581Y015210D01*
X027600Y015116D01*
X027728Y011414D02*
X027814Y011414D01*
X027901Y011327D01*
X027901Y011067D01*
X027814Y010898D02*
X027728Y010898D01*
X027641Y010812D01*
X027641Y010638D01*
X027728Y010551D01*
X027814Y010898D02*
X028161Y010551D01*
X028161Y010898D01*
X028161Y011067D02*
X028161Y011327D01*
X028075Y011414D01*
X027988Y011414D01*
X027901Y011327D01*
X027728Y011414D02*
X027641Y011327D01*
X027641Y011067D01*
X028161Y011067D01*
X028161Y009364D02*
X027814Y009364D01*
X027641Y009191D01*
X027814Y009017D01*
X028161Y009017D01*
X028161Y008848D02*
X028161Y008501D01*
X027814Y008848D01*
X027728Y008848D01*
X027641Y008762D01*
X027641Y008588D01*
X027728Y008501D01*
X027901Y009017D02*
X027901Y009364D01*
X027988Y007314D02*
X028075Y007314D01*
X028161Y007227D01*
X028161Y006967D01*
X027641Y006967D01*
X027641Y007227D01*
X027728Y007314D01*
X027814Y007314D01*
X027901Y007227D01*
X027901Y006967D01*
X027901Y007227D02*
X027988Y007314D01*
X028161Y006798D02*
X028161Y006451D01*
X028161Y006625D02*
X027641Y006625D01*
X027814Y006451D01*
X027851Y005264D02*
X027851Y004917D01*
X027764Y004917D02*
X027591Y005091D01*
X027764Y005264D01*
X028111Y005264D01*
X028111Y004917D02*
X027764Y004917D01*
X027591Y004575D02*
X028111Y004575D01*
X028111Y004748D02*
X028111Y004401D01*
X027764Y004401D02*
X027591Y004575D01*
X024663Y001198D02*
X024750Y001112D01*
X024750Y000851D01*
X024576Y000851D02*
X024576Y001112D01*
X024663Y001198D01*
X024576Y001112D02*
X024490Y001198D01*
X024403Y001198D01*
X024403Y000851D01*
X024234Y000938D02*
X024234Y001112D01*
X024148Y001198D01*
X023974Y001198D01*
X023887Y001112D01*
X023887Y000938D01*
X023974Y000851D01*
X024148Y000851D01*
X024234Y000938D01*
X023719Y000851D02*
X023459Y000851D01*
X023372Y000938D01*
X023372Y001112D01*
X023459Y001198D01*
X023719Y001198D01*
X023201Y000938D02*
X023201Y000851D01*
X023114Y000851D01*
X023114Y000938D01*
X023201Y000938D01*
X022945Y000851D02*
X022945Y001112D01*
X022859Y001198D01*
X022598Y001198D01*
X022598Y000851D01*
X022430Y001025D02*
X022083Y001025D01*
X022083Y001112D02*
X022169Y001198D01*
X022343Y001198D01*
X022430Y001112D01*
X022430Y001025D01*
X022343Y000851D02*
X022169Y000851D01*
X022083Y000938D01*
X022083Y001112D01*
X021913Y001198D02*
X021653Y001025D01*
X021913Y000851D01*
X021653Y000851D02*
X021653Y001372D01*
X021398Y001198D02*
X021484Y001112D01*
X021484Y001025D01*
X021137Y001025D01*
X021137Y001112D02*
X021224Y001198D01*
X021398Y001198D01*
X021137Y001112D02*
X021137Y000938D01*
X021224Y000851D01*
X021398Y000851D01*
X020969Y000938D02*
X020882Y000851D01*
X020709Y000851D01*
X020622Y000938D01*
X020622Y001112D01*
X020709Y001198D01*
X020882Y001198D01*
X020969Y001112D01*
X020969Y000938D01*
X020453Y000851D02*
X020453Y001372D01*
X020453Y001112D02*
X020106Y001112D01*
X019937Y001112D02*
X019937Y000851D01*
X020106Y000851D02*
X020106Y001372D01*
X019851Y001198D02*
X019937Y001112D01*
X019851Y001198D02*
X019677Y001198D01*
X019591Y001112D01*
X019422Y001198D02*
X019162Y001198D01*
X019075Y001112D01*
X019075Y000938D01*
X019162Y000851D01*
X019422Y000851D01*
X019591Y000851D02*
X019591Y001372D01*
X018906Y001112D02*
X018906Y000851D01*
X018646Y000851D01*
X018559Y000938D01*
X018646Y001025D01*
X018906Y001025D01*
X018906Y001112D02*
X018819Y001198D01*
X018646Y001198D01*
X018391Y001285D02*
X018044Y000938D01*
X018044Y000851D01*
X018391Y000851D01*
X018391Y001285D02*
X018391Y001372D01*
X018044Y001372D01*
X017985Y001851D02*
X017678Y001851D01*
X017601Y001928D01*
X017601Y002082D01*
X017678Y002158D01*
X017755Y002312D02*
X017601Y002465D01*
X018061Y002465D01*
X018061Y002312D02*
X018061Y002619D01*
X017985Y002772D02*
X018061Y002849D01*
X018061Y003002D01*
X017985Y003079D01*
X017908Y003079D01*
X017831Y003002D01*
X017831Y002926D01*
X017831Y003002D02*
X017755Y003079D01*
X017678Y003079D01*
X017601Y003002D01*
X017601Y002849D01*
X017678Y002772D01*
X017985Y002158D02*
X018061Y002082D01*
X018061Y001928D01*
X017985Y001851D01*
X017357Y001198D02*
X017357Y001112D01*
X017270Y001112D01*
X017270Y001198D01*
X017357Y001198D01*
X017101Y001198D02*
X017101Y000765D01*
X017015Y000678D01*
X016928Y000678D01*
X016841Y000851D02*
X017101Y000851D01*
X017270Y000851D02*
X017270Y000938D01*
X017357Y000938D01*
X017357Y000851D01*
X017270Y000851D01*
X016841Y000851D02*
X016755Y000938D01*
X016755Y001198D01*
X016586Y001198D02*
X016499Y001112D01*
X016239Y001112D01*
X016239Y001372D02*
X016239Y000851D01*
X016499Y000851D01*
X016586Y000938D01*
X016586Y001025D01*
X016499Y001112D01*
X016586Y001198D02*
X016586Y001285D01*
X016499Y001372D01*
X016239Y001372D01*
X015555Y001112D02*
X015555Y000851D01*
X015555Y001112D02*
X015468Y001198D01*
X015208Y001198D01*
X015208Y000851D01*
X015039Y000851D02*
X014779Y000851D01*
X014692Y000938D01*
X014692Y001112D01*
X014779Y001198D01*
X015039Y001198D01*
X015039Y000765D01*
X014952Y000678D01*
X014866Y000678D01*
X014522Y000851D02*
X014348Y000851D01*
X014435Y000851D02*
X014435Y001198D01*
X014348Y001198D01*
X014180Y001198D02*
X013919Y001198D01*
X013833Y001112D01*
X013919Y001025D01*
X014093Y001025D01*
X014180Y000938D01*
X014093Y000851D01*
X013833Y000851D01*
X013664Y001025D02*
X013317Y001025D01*
X013317Y001112D02*
X013404Y001198D01*
X013577Y001198D01*
X013664Y001112D01*
X013664Y001025D01*
X013577Y000851D02*
X013404Y000851D01*
X013317Y000938D01*
X013317Y001112D01*
X013148Y001285D02*
X013062Y001372D01*
X012801Y001372D01*
X012801Y000851D01*
X013062Y000851D01*
X013148Y000938D01*
X013148Y001285D01*
X012561Y001897D02*
X012561Y002050D01*
X012485Y002127D01*
X012561Y002281D02*
X012561Y002588D01*
X012561Y002741D02*
X012255Y003048D01*
X012178Y003048D01*
X012101Y002971D01*
X012101Y002818D01*
X012178Y002741D01*
X012101Y002434D02*
X012561Y002434D01*
X012561Y002741D02*
X012561Y003048D01*
X012101Y002434D02*
X012255Y002281D01*
X012178Y002127D02*
X012101Y002050D01*
X012101Y001897D01*
X012178Y001820D01*
X012485Y001820D01*
X012561Y001897D01*
X014435Y001459D02*
X014435Y001372D01*
X012998Y005501D02*
X012691Y005501D01*
X012998Y005808D01*
X012998Y005885D01*
X012921Y005962D01*
X012768Y005962D01*
X012691Y005885D01*
X012538Y005885D02*
X012538Y005732D01*
X012461Y005655D01*
X012231Y005655D01*
X012384Y005655D02*
X012538Y005501D01*
X012231Y005501D02*
X012231Y005962D01*
X012461Y005962D01*
X012538Y005885D01*
X013374Y007801D02*
X013527Y007801D01*
X013450Y007801D02*
X013450Y008262D01*
X013374Y008262D02*
X013527Y008262D01*
X013681Y008185D02*
X013681Y007878D01*
X013757Y007801D01*
X013911Y007801D01*
X013988Y007878D01*
X014141Y007878D02*
X014218Y007801D01*
X014371Y007801D01*
X014448Y007878D01*
X014448Y008032D01*
X014371Y008108D01*
X014294Y008108D01*
X014141Y008032D01*
X014141Y008262D01*
X014448Y008262D01*
X013988Y008185D02*
X013911Y008262D01*
X013757Y008262D01*
X013681Y008185D01*
X009373Y011312D02*
X009287Y011225D01*
X009026Y011225D01*
X008858Y011225D02*
X008858Y011138D01*
X008771Y011051D01*
X008598Y011051D01*
X008511Y011138D01*
X008342Y011138D02*
X008255Y011051D01*
X008082Y011051D01*
X007995Y011138D01*
X007995Y011485D01*
X008082Y011572D01*
X008255Y011572D01*
X008342Y011485D01*
X008511Y011485D02*
X008511Y011398D01*
X008598Y011312D01*
X008771Y011312D01*
X008858Y011225D01*
X009026Y011051D02*
X009026Y011572D01*
X009287Y011572D01*
X009373Y011485D01*
X009373Y011312D01*
X008858Y011485D02*
X008771Y011572D01*
X008598Y011572D01*
X008511Y011485D01*
X007825Y011572D02*
X007651Y011572D01*
X007738Y011572D02*
X007738Y011051D01*
X007651Y011051D02*
X007825Y011051D01*
X007894Y012651D02*
X007894Y013112D01*
X007741Y012958D01*
X007588Y012958D02*
X007588Y013035D01*
X007511Y013112D01*
X007357Y013112D01*
X007281Y013035D01*
X007127Y013035D02*
X007127Y012882D01*
X007050Y012805D01*
X006820Y012805D01*
X006820Y012651D02*
X006820Y013112D01*
X007050Y013112D01*
X007127Y013035D01*
X006974Y012805D02*
X007127Y012651D01*
X007281Y012651D02*
X007588Y012958D01*
X007588Y012651D02*
X007281Y012651D01*
X007741Y012651D02*
X008048Y012651D01*
X009731Y012705D02*
X009961Y012705D01*
X010038Y012782D01*
X010038Y012935D01*
X009961Y013012D01*
X009731Y013012D01*
X009731Y012551D01*
X009884Y012705D02*
X010038Y012551D01*
X010191Y012628D02*
X010268Y012551D01*
X010421Y012551D01*
X010498Y012628D01*
X010498Y012705D01*
X010421Y012782D01*
X010344Y012782D01*
X010421Y012782D02*
X010498Y012858D01*
X010498Y012935D01*
X010421Y013012D01*
X010268Y013012D01*
X010191Y012935D01*
X010212Y014801D02*
X010519Y015108D01*
X010672Y015108D02*
X010826Y015108D01*
X010749Y015185D02*
X010749Y014878D01*
X010826Y014801D01*
X010979Y014801D02*
X010979Y015108D01*
X010979Y014955D02*
X011132Y015108D01*
X011209Y015108D01*
X011363Y015108D02*
X011363Y014878D01*
X011439Y014801D01*
X011670Y014801D01*
X011670Y015108D01*
X011823Y015032D02*
X011900Y015108D01*
X012130Y015108D01*
X012130Y015262D02*
X012130Y014801D01*
X011900Y014801D01*
X011823Y014878D01*
X011823Y015032D01*
X012283Y015032D02*
X012283Y014878D01*
X012360Y014801D01*
X012514Y014801D01*
X012590Y014955D02*
X012283Y014955D01*
X012283Y015032D02*
X012360Y015108D01*
X012514Y015108D01*
X012590Y015032D01*
X012590Y014955D01*
X012744Y014955D02*
X012897Y015108D01*
X012974Y015108D01*
X012744Y015108D02*
X012744Y014801D01*
X013588Y014878D02*
X013664Y014801D01*
X013818Y014801D01*
X013895Y014878D01*
X014048Y014878D02*
X014125Y014801D01*
X014278Y014801D01*
X014355Y014878D01*
X014355Y015032D01*
X014278Y015108D01*
X014125Y015108D01*
X014048Y015032D01*
X014048Y014878D01*
X013895Y015185D02*
X013818Y015262D01*
X013664Y015262D01*
X013588Y015185D01*
X013588Y014878D01*
X014508Y014801D02*
X014508Y015108D01*
X014739Y015108D01*
X014815Y015032D01*
X014815Y014801D01*
X015045Y014878D02*
X015045Y015185D01*
X014969Y015108D02*
X015122Y015108D01*
X015276Y015108D02*
X015276Y014801D01*
X015122Y014801D02*
X015045Y014878D01*
X015276Y014955D02*
X015429Y015108D01*
X015506Y015108D01*
X015659Y015032D02*
X015659Y014878D01*
X015736Y014801D01*
X015889Y014801D01*
X015966Y014878D01*
X015966Y015032D01*
X015889Y015108D01*
X015736Y015108D01*
X015659Y015032D01*
X016120Y015262D02*
X016196Y015262D01*
X016196Y014801D01*
X016120Y014801D02*
X016273Y014801D01*
X016426Y014801D02*
X016580Y014801D01*
X016503Y014801D02*
X016503Y015262D01*
X016426Y015262D01*
X016733Y015032D02*
X016810Y015108D01*
X016964Y015108D01*
X017040Y015032D01*
X017040Y014955D01*
X016733Y014955D01*
X016733Y014878D02*
X016733Y015032D01*
X016733Y014878D02*
X016810Y014801D01*
X016964Y014801D01*
X017194Y014801D02*
X017194Y015108D01*
X017194Y014955D02*
X017347Y015108D01*
X017424Y015108D01*
X016952Y016601D02*
X016952Y017062D01*
X016722Y016832D01*
X017029Y016832D01*
X016569Y016601D02*
X016262Y016601D01*
X016415Y016601D02*
X016415Y017062D01*
X016262Y016908D01*
X016108Y016985D02*
X016032Y017062D01*
X015878Y017062D01*
X015801Y016985D01*
X015801Y016678D01*
X015878Y016601D01*
X016032Y016601D01*
X016108Y016678D01*
X014408Y018182D02*
X014101Y018182D01*
X014255Y018335D02*
X014255Y018028D01*
X014151Y019132D02*
X014458Y019132D01*
X014351Y020401D02*
X014351Y020862D01*
X014582Y020862D01*
X014658Y020785D01*
X014658Y020632D01*
X014582Y020555D01*
X014351Y020555D01*
X014505Y020555D02*
X014658Y020401D01*
X014812Y020478D02*
X014888Y020401D01*
X015042Y020401D01*
X015119Y020478D01*
X015119Y020555D01*
X015042Y020632D01*
X014965Y020632D01*
X015042Y020632D02*
X015119Y020708D01*
X015119Y020785D01*
X015042Y020862D01*
X014888Y020862D01*
X014812Y020785D01*
X015272Y020785D02*
X015272Y020478D01*
X015579Y020785D01*
X015579Y020478D01*
X015502Y020401D01*
X015349Y020401D01*
X015272Y020478D01*
X015272Y020785D02*
X015349Y020862D01*
X015502Y020862D01*
X015579Y020785D01*
X013869Y022821D02*
X013562Y022821D01*
X013869Y023128D01*
X013869Y023205D01*
X013792Y023282D01*
X013638Y023282D01*
X013562Y023205D01*
X013408Y023205D02*
X013408Y022898D01*
X013332Y022821D01*
X013178Y022821D01*
X013101Y022898D01*
X013101Y023205D01*
X013178Y023282D01*
X013332Y023282D01*
X013408Y023205D01*
X013255Y022975D02*
X013408Y022821D01*
X012461Y022851D02*
X012461Y023158D01*
X012461Y023312D02*
X012461Y023619D01*
X012461Y023772D02*
X012461Y024002D01*
X012385Y024079D01*
X012078Y024079D01*
X012001Y024002D01*
X012001Y023772D01*
X012461Y023772D01*
X012231Y023465D02*
X012231Y023312D01*
X012001Y023312D02*
X012001Y023619D01*
X012001Y023312D02*
X012461Y023312D01*
X012461Y022851D02*
X012001Y022851D01*
X012178Y022379D02*
X012101Y022302D01*
X012101Y022149D01*
X012178Y022072D01*
X012255Y022072D01*
X012331Y022149D01*
X012331Y022379D01*
X012178Y022379D02*
X012485Y022379D01*
X012561Y022302D01*
X012561Y022149D01*
X012485Y022072D01*
X012561Y021919D02*
X012561Y021612D01*
X012255Y021919D01*
X012178Y021919D01*
X012101Y021842D01*
X012101Y021688D01*
X012178Y021612D01*
X012178Y021458D02*
X012101Y021382D01*
X012101Y021151D01*
X012561Y021151D01*
X012408Y021151D02*
X012408Y021382D01*
X012331Y021458D01*
X012178Y021458D01*
X012408Y021305D02*
X012561Y021458D01*
X012601Y019132D02*
X012908Y019132D01*
X012705Y018335D02*
X012705Y018028D01*
X012551Y018182D02*
X012858Y018182D01*
X011558Y017432D02*
X011251Y017432D01*
X011405Y017585D02*
X011405Y017278D01*
X011508Y018382D02*
X011201Y018382D01*
X009019Y019328D02*
X009019Y019405D01*
X008942Y019482D01*
X008712Y019482D01*
X008712Y019328D01*
X008788Y019251D01*
X008942Y019251D01*
X009019Y019328D01*
X008865Y019635D02*
X008712Y019482D01*
X008558Y019482D02*
X008482Y019405D01*
X008251Y019405D01*
X008251Y019251D02*
X008251Y019712D01*
X008482Y019712D01*
X008558Y019635D01*
X008558Y019482D01*
X008405Y019405D02*
X008558Y019251D01*
X008865Y019635D02*
X009019Y019712D01*
X008261Y021001D02*
X007801Y021001D01*
X007801Y021232D01*
X007878Y021308D01*
X008031Y021308D01*
X008108Y021232D01*
X008108Y021001D01*
X008108Y021155D02*
X008261Y021308D01*
X008185Y021462D02*
X008261Y021538D01*
X008261Y021692D01*
X008185Y021769D01*
X008108Y021769D01*
X008031Y021692D01*
X008031Y021615D01*
X008031Y021692D02*
X007955Y021769D01*
X007878Y021769D01*
X007801Y021692D01*
X007801Y021538D01*
X007878Y021462D01*
X007955Y021922D02*
X007801Y022076D01*
X008261Y022076D01*
X008261Y022229D02*
X008261Y021922D01*
X008061Y022801D02*
X007601Y022801D01*
X008061Y022801D02*
X008061Y023108D01*
X008061Y023262D02*
X008061Y023569D01*
X008061Y023722D02*
X007601Y023722D01*
X007601Y023952D01*
X007678Y024029D01*
X007985Y024029D01*
X008061Y023952D01*
X008061Y023722D01*
X007831Y023415D02*
X007831Y023262D01*
X007601Y023262D02*
X008061Y023262D01*
X007601Y023262D02*
X007601Y023569D01*
X007601Y024182D02*
X007831Y024182D01*
X007755Y024336D01*
X007755Y024413D01*
X007831Y024489D01*
X007985Y024489D01*
X008061Y024413D01*
X008061Y024259D01*
X007985Y024182D01*
X007601Y024182D02*
X007601Y024489D01*
X008778Y023282D02*
X008932Y023282D01*
X009008Y023205D01*
X009008Y022898D01*
X008932Y022821D01*
X008778Y022821D01*
X008701Y022898D01*
X008701Y023205D01*
X008778Y023282D01*
X008855Y022975D02*
X009008Y022821D01*
X009162Y022821D02*
X009469Y022821D01*
X009315Y022821D02*
X009315Y023282D01*
X009162Y023128D01*
X012001Y024539D02*
X012078Y024386D01*
X012231Y024232D01*
X012231Y024463D01*
X012308Y024539D01*
X012385Y024539D01*
X012461Y024463D01*
X012461Y024309D01*
X012385Y024232D01*
X012231Y024232D01*
X007596Y018961D02*
X007911Y018646D01*
X007911Y016402D01*
X006907Y016402D01*
X006316Y016402D02*
X005352Y016402D01*
X005352Y018646D01*
X005667Y018961D01*
X005751Y018077D02*
X005828Y018077D01*
X005904Y018000D01*
X005904Y017846D01*
X005828Y017770D01*
X005751Y017770D01*
X005674Y017846D01*
X005674Y018000D01*
X005751Y018077D01*
X005904Y018000D02*
X005981Y018077D01*
X006058Y018077D01*
X006135Y018000D01*
X006135Y017846D01*
X006058Y017770D01*
X005981Y017770D01*
X005904Y017846D01*
X005751Y017616D02*
X005674Y017540D01*
X005674Y017386D01*
X005751Y017309D01*
X006058Y017309D01*
X006135Y017386D01*
X006135Y017540D01*
X006058Y017616D01*
X006326Y016500D02*
X006259Y016519D01*
X006194Y016542D01*
X006130Y016569D01*
X006068Y016599D01*
X006007Y016633D01*
X005949Y016669D01*
X005893Y016710D01*
X005839Y016753D01*
X005787Y016799D01*
X005739Y016849D01*
X005693Y016901D01*
X005650Y016955D01*
X005611Y017012D01*
X005574Y017071D01*
X005541Y017132D01*
X005512Y017194D01*
X005486Y017258D01*
X005464Y017324D01*
X005446Y017391D01*
X005431Y017458D01*
X005421Y017527D01*
X005414Y017596D01*
X005411Y017665D01*
X005412Y017734D01*
X005417Y017803D01*
X005426Y017872D01*
X005439Y017940D01*
X005456Y018007D01*
X005476Y018073D01*
X005500Y018138D01*
X005528Y018201D01*
X005559Y018263D01*
X005594Y018322D01*
X005632Y018380D01*
X005674Y018436D01*
X005718Y018489D01*
X005766Y018539D01*
X005816Y018587D01*
X005869Y018631D01*
X005924Y018673D01*
X005981Y018712D01*
X006041Y018747D01*
X006103Y018778D01*
X006166Y018806D01*
X006230Y018831D01*
X006296Y018852D01*
X006936Y018862D02*
X007003Y018843D01*
X007068Y018820D01*
X007132Y018793D01*
X007194Y018763D01*
X007255Y018729D01*
X007313Y018693D01*
X007369Y018652D01*
X007423Y018609D01*
X007475Y018563D01*
X007523Y018513D01*
X007569Y018461D01*
X007612Y018407D01*
X007651Y018350D01*
X007688Y018291D01*
X007721Y018230D01*
X007750Y018168D01*
X007776Y018104D01*
X007798Y018038D01*
X007816Y017971D01*
X007831Y017904D01*
X007841Y017835D01*
X007848Y017766D01*
X007851Y017697D01*
X007850Y017628D01*
X007845Y017559D01*
X007836Y017490D01*
X007823Y017422D01*
X007806Y017355D01*
X007786Y017289D01*
X007762Y017224D01*
X007734Y017161D01*
X007703Y017099D01*
X007668Y017040D01*
X007630Y016982D01*
X007588Y016926D01*
X007544Y016873D01*
X007496Y016823D01*
X007446Y016775D01*
X007393Y016731D01*
X007338Y016689D01*
X007281Y016650D01*
X007221Y016615D01*
X007159Y016584D01*
X007096Y016556D01*
X007032Y016531D01*
X006966Y016510D01*
X006771Y015562D02*
X006618Y015562D01*
X006541Y015485D01*
X006541Y015178D01*
X006848Y015485D01*
X006848Y015178D01*
X006771Y015101D01*
X006618Y015101D01*
X006541Y015178D01*
X006388Y015101D02*
X006081Y015101D01*
X006388Y015408D01*
X006388Y015485D01*
X006311Y015562D01*
X006157Y015562D01*
X006081Y015485D01*
X005927Y015485D02*
X005850Y015562D01*
X005620Y015562D01*
X005620Y015101D01*
X005620Y015255D02*
X005850Y015255D01*
X005927Y015332D01*
X005927Y015485D01*
X005774Y015255D02*
X005927Y015101D01*
X006771Y015562D02*
X006848Y015485D01*
X003962Y015681D02*
X003962Y015835D01*
X003885Y015911D01*
X003808Y015911D01*
X003732Y015835D01*
X003732Y015681D01*
X003655Y015605D01*
X003578Y015605D01*
X003501Y015681D01*
X003501Y015835D01*
X003578Y015911D01*
X003885Y015605D02*
X003962Y015681D01*
X003732Y015451D02*
X003808Y015374D01*
X003808Y015221D01*
X003732Y015144D01*
X003655Y015144D01*
X003655Y015451D01*
X003578Y015451D02*
X003732Y015451D01*
X003578Y015451D02*
X003501Y015374D01*
X003501Y015221D01*
X003501Y014991D02*
X003808Y014991D01*
X003655Y014991D02*
X003808Y014837D01*
X003808Y014761D01*
X003808Y014607D02*
X003808Y014530D01*
X003501Y014530D01*
X003501Y014454D02*
X003501Y014607D01*
X003578Y014300D02*
X003655Y014224D01*
X003655Y013993D01*
X003732Y013993D02*
X003501Y013993D01*
X003501Y014224D01*
X003578Y014300D01*
X003808Y014224D02*
X003808Y014070D01*
X003732Y013993D01*
X003962Y013840D02*
X003962Y013763D01*
X003501Y013763D01*
X003501Y013840D02*
X003501Y013686D01*
X003531Y012919D02*
X003531Y012688D01*
X003455Y012612D01*
X003378Y012612D01*
X003301Y012688D01*
X003301Y012842D01*
X003378Y012919D01*
X003685Y012919D01*
X003761Y012842D01*
X003761Y012688D01*
X003685Y012612D01*
X003761Y012458D02*
X003608Y012305D01*
X003608Y012382D02*
X003608Y012151D01*
X003761Y012151D02*
X003301Y012151D01*
X003301Y012382D01*
X003378Y012458D01*
X003531Y012458D01*
X003608Y012382D01*
X003962Y014530D02*
X004039Y014530D01*
X001472Y016282D02*
X001385Y016196D01*
X001212Y016196D01*
X001125Y016282D01*
X001125Y016543D01*
X000951Y016543D02*
X001472Y016543D01*
X001472Y016282D01*
X001385Y016711D02*
X001472Y016798D01*
X001472Y016972D01*
X001385Y017058D01*
X001038Y017058D01*
X000951Y016972D01*
X000951Y016798D01*
X001038Y016711D01*
X001385Y016711D01*
X001125Y016369D02*
X000951Y016196D01*
X001472Y017227D02*
X001472Y017574D01*
X001472Y017400D02*
X000951Y017400D01*
X001038Y017743D02*
X000951Y017829D01*
X000951Y018003D01*
X001038Y018090D01*
X000951Y018260D02*
X000951Y018433D01*
X000951Y018347D02*
X001472Y018347D01*
X001472Y018433D02*
X001472Y018260D01*
X001385Y018090D02*
X001298Y018090D01*
X001212Y018003D01*
X001212Y017829D01*
X001125Y017743D01*
X001038Y017743D01*
X001385Y017743D02*
X001472Y017829D01*
X001472Y018003D01*
X001385Y018090D01*
X001472Y018602D02*
X000951Y018602D01*
X000951Y018949D02*
X001472Y018949D01*
X001298Y018775D01*
X001472Y018602D01*
X001385Y019118D02*
X001212Y019118D01*
X001125Y019204D01*
X001125Y019465D01*
X000951Y019465D02*
X001472Y019465D01*
X001472Y019204D01*
X001385Y019118D01*
X001125Y019291D02*
X000951Y019118D01*
X000951Y019633D02*
X000951Y019980D01*
X001472Y019980D01*
X001472Y019633D01*
X001212Y019807D02*
X001212Y019980D01*
X001212Y020149D02*
X001212Y020496D01*
X001472Y020496D02*
X000951Y020496D01*
X000951Y020838D02*
X001472Y020838D01*
X001472Y021011D02*
X001472Y020664D01*
X001472Y020149D02*
X000951Y020149D01*
X001051Y022501D02*
X001051Y022962D01*
X001282Y022962D01*
X001358Y022885D01*
X001358Y022732D01*
X001282Y022655D01*
X001051Y022655D01*
X001512Y022578D02*
X001588Y022501D01*
X001742Y022501D01*
X001819Y022578D01*
X001819Y022885D01*
X001742Y022962D01*
X001588Y022962D01*
X001512Y022885D01*
X001512Y022578D01*
X001972Y022501D02*
X001972Y022962D01*
X002279Y022962D02*
X002279Y022501D01*
X002126Y022655D01*
X001972Y022501D01*
X002432Y022501D02*
X002739Y022501D01*
X002893Y022501D02*
X002893Y022962D01*
X003123Y022962D01*
X003200Y022885D01*
X003200Y022732D01*
X003123Y022655D01*
X002893Y022655D01*
X003046Y022655D02*
X003200Y022501D01*
X002739Y022962D02*
X002432Y022962D01*
X002432Y022501D01*
X002432Y022732D02*
X002586Y022732D01*
X004001Y022898D02*
X004078Y022821D01*
X004232Y022821D01*
X004308Y022898D01*
X004308Y023205D01*
X004232Y023282D01*
X004078Y023282D01*
X004001Y023205D01*
X004001Y022898D01*
X004155Y022975D02*
X004308Y022821D01*
X004462Y022898D02*
X004538Y022821D01*
X004692Y022821D01*
X004769Y022898D01*
X004769Y022975D01*
X004692Y023052D01*
X004615Y023052D01*
X004692Y023052D02*
X004769Y023128D01*
X004769Y023205D01*
X004692Y023282D01*
X004538Y023282D01*
X004462Y023205D01*
X002652Y025251D02*
X002499Y025251D01*
X002422Y025328D01*
X002422Y025482D02*
X002576Y025558D01*
X002652Y025558D01*
X002729Y025482D01*
X002729Y025328D01*
X002652Y025251D01*
X002422Y025482D02*
X002422Y025712D01*
X002729Y025712D01*
X002115Y025712D02*
X002115Y025251D01*
X001962Y025251D02*
X002269Y025251D01*
X001962Y025558D02*
X002115Y025712D01*
X001808Y025635D02*
X001808Y025482D01*
X001732Y025405D01*
X001501Y025405D01*
X001501Y025251D02*
X001501Y025712D01*
X001732Y025712D01*
X001808Y025635D01*
X001655Y025405D02*
X001808Y025251D01*
X009751Y015262D02*
X009751Y014801D01*
X010058Y014801D01*
X009905Y015032D02*
X009751Y015032D01*
X009751Y015262D02*
X010058Y015262D01*
X010212Y015108D02*
X010519Y014801D01*
X006435Y009650D02*
X006281Y009650D01*
X006281Y009496D01*
X006128Y009343D02*
X006435Y009343D01*
X006511Y009420D01*
X006511Y009573D01*
X006435Y009650D01*
X006128Y009650D02*
X006051Y009573D01*
X006051Y009420D01*
X006128Y009343D01*
X006051Y009189D02*
X006435Y009189D01*
X006511Y009113D01*
X006511Y008959D01*
X006435Y008882D01*
X006051Y008882D01*
X006128Y008729D02*
X006051Y008652D01*
X006051Y008422D01*
X006511Y008422D01*
X006511Y008652D01*
X006435Y008729D01*
X006358Y008729D01*
X006281Y008652D01*
X006281Y008422D01*
X006281Y008652D02*
X006205Y008729D01*
X006128Y008729D01*
X006051Y008269D02*
X006051Y007962D01*
X006511Y007962D01*
X006511Y008269D01*
X006281Y008115D02*
X006281Y007962D01*
X006128Y007808D02*
X006051Y007732D01*
X006051Y007501D01*
X006511Y007501D01*
X006511Y007732D01*
X006435Y007808D01*
X006128Y007808D01*
X006128Y007098D02*
X006051Y007021D01*
X006051Y006868D01*
X006128Y006791D01*
X006205Y006791D01*
X006281Y006868D01*
X006281Y007021D01*
X006358Y007098D01*
X006435Y007098D01*
X006511Y007021D01*
X006511Y006868D01*
X006435Y006791D01*
X006358Y006791D01*
X006281Y006868D01*
X006281Y007021D02*
X006205Y007098D01*
X006128Y007098D01*
X006128Y006638D02*
X006281Y006638D01*
X006358Y006561D01*
X006358Y006331D01*
X006358Y006484D02*
X006511Y006638D01*
X006511Y006331D02*
X006051Y006331D01*
X006051Y006561D01*
X006128Y006638D01*
X003561Y004762D02*
X003485Y004762D01*
X003178Y005069D01*
X003101Y005069D01*
X003101Y004762D01*
X003178Y004608D02*
X003101Y004532D01*
X003101Y004301D01*
X003561Y004301D01*
X003408Y004301D02*
X003408Y004532D01*
X003331Y004608D01*
X003178Y004608D01*
X003408Y004455D02*
X003561Y004608D01*
X020101Y011551D02*
X020255Y011551D01*
X020178Y011551D02*
X020178Y012012D01*
X020101Y012012D02*
X020255Y012012D01*
X020408Y011935D02*
X020485Y012012D01*
X020638Y012012D01*
X020715Y011935D01*
X020869Y011935D02*
X020945Y012012D01*
X021099Y012012D01*
X021176Y011935D01*
X021176Y011858D01*
X021099Y011782D01*
X021176Y011705D01*
X021176Y011628D01*
X021099Y011551D01*
X020945Y011551D01*
X020869Y011628D01*
X020715Y011628D02*
X020638Y011551D01*
X020485Y011551D01*
X020408Y011628D01*
X020408Y011935D01*
X021022Y011782D02*
X021099Y011782D01*
X023601Y010598D02*
X023601Y010291D01*
X023831Y010291D01*
X023755Y010444D01*
X023755Y010521D01*
X023831Y010598D01*
X023985Y010598D01*
X024061Y010521D01*
X024061Y010368D01*
X023985Y010291D01*
X024061Y010138D02*
X023908Y009984D01*
X023908Y010061D02*
X023908Y009831D01*
X024061Y009831D02*
X023601Y009831D01*
X023601Y010061D01*
X023678Y010138D01*
X023831Y010138D01*
X023908Y010061D01*
X021999Y004662D02*
X021845Y004662D01*
X021769Y004585D01*
X021615Y004585D02*
X021538Y004662D01*
X021385Y004662D01*
X021308Y004585D01*
X021308Y004278D01*
X021385Y004201D01*
X021538Y004201D01*
X021615Y004278D01*
X021769Y004201D02*
X022076Y004508D01*
X022076Y004585D01*
X021999Y004662D01*
X022076Y004201D02*
X021769Y004201D01*
X021155Y004201D02*
X021001Y004201D01*
X021078Y004201D02*
X021078Y004662D01*
X021001Y004662D02*
X021155Y004662D01*
X023601Y003271D02*
X023831Y003041D01*
X023831Y003348D01*
X024061Y003271D02*
X023601Y003271D01*
X023678Y002888D02*
X023601Y002811D01*
X023601Y002581D01*
X024061Y002581D01*
X023908Y002581D02*
X023908Y002811D01*
X023831Y002888D01*
X023678Y002888D01*
X023908Y002734D02*
X024061Y002888D01*
X023674Y016474D02*
X023989Y016789D01*
D13*
X018397Y018726D02*
X018097Y018726D01*
X018397Y019027D01*
X018397Y019102D01*
X018322Y019177D01*
X018172Y019177D01*
X018097Y019102D01*
X017937Y019102D02*
X017937Y018952D01*
X017862Y018877D01*
X017637Y018877D01*
X017637Y018726D02*
X017637Y019177D01*
X017862Y019177D01*
X017937Y019102D01*
X017477Y019177D02*
X017327Y019177D01*
X017402Y019177D02*
X017402Y018801D01*
X017327Y018726D01*
X017251Y018726D01*
X017176Y018801D01*
X015421Y016167D02*
X015218Y016065D01*
X015014Y015862D01*
X015319Y015862D01*
X015421Y015760D01*
X015421Y015658D01*
X015319Y015556D01*
X015116Y015556D01*
X015014Y015658D01*
X015014Y015862D01*
X014813Y015862D02*
X014406Y015862D01*
X014406Y015963D02*
X014610Y016167D01*
X014813Y015963D01*
X014813Y015556D01*
X014406Y015556D02*
X014406Y015963D01*
X014021Y016015D02*
X013614Y015608D01*
X013614Y015506D01*
X013413Y015506D02*
X013413Y015913D01*
X013210Y016117D01*
X013006Y015913D01*
X013006Y015506D01*
X013006Y015812D02*
X013413Y015812D01*
X013614Y016117D02*
X014021Y016117D01*
X014021Y016015D01*
X012124Y018466D02*
X011897Y018466D01*
X012011Y018466D02*
X012011Y018807D01*
X011897Y018693D01*
X011646Y018607D02*
X011571Y018682D01*
X011346Y018682D01*
X011346Y018531D01*
X011421Y018456D01*
X011571Y018456D01*
X011646Y018531D01*
X011646Y018607D01*
X011496Y018832D02*
X011346Y018682D01*
X011496Y018832D02*
X011646Y018907D01*
X011469Y019206D02*
X011266Y019206D01*
X011164Y019308D01*
X011571Y019715D01*
X011571Y019308D01*
X011469Y019206D01*
X011164Y019308D02*
X011164Y019715D01*
X011266Y019817D01*
X011469Y019817D01*
X011571Y019715D01*
X010963Y019613D02*
X010963Y019206D01*
X010963Y019512D02*
X010556Y019512D01*
X010556Y019613D02*
X010760Y019817D01*
X010963Y019613D01*
X010556Y019613D02*
X010556Y019206D01*
X010650Y018907D02*
X010726Y018832D01*
X010726Y018682D01*
X010650Y018607D01*
X010425Y018607D01*
X010575Y018607D02*
X010726Y018456D01*
X010886Y018456D02*
X011186Y018456D01*
X011036Y018456D02*
X011036Y018907D01*
X010886Y018757D01*
X010650Y018907D02*
X010425Y018907D01*
X010425Y018456D01*
X010024Y018523D02*
X009967Y018466D01*
X009854Y018466D01*
X009797Y018523D01*
X009911Y018637D02*
X009967Y018637D01*
X010024Y018580D01*
X010024Y018523D01*
X009967Y018637D02*
X010024Y018693D01*
X010024Y018750D01*
X009967Y018807D01*
X009854Y018807D01*
X009797Y018750D01*
X003056Y018446D02*
X003056Y018146D01*
X002756Y018446D01*
X002681Y018446D01*
X002606Y018371D01*
X002606Y018221D01*
X002681Y018146D01*
X002756Y019996D02*
X002606Y020146D01*
X003056Y020146D01*
X003056Y019996D02*
X003056Y020296D01*
X005771Y026956D02*
X005921Y026956D01*
X005996Y027031D01*
X005996Y027107D01*
X005921Y027182D01*
X005696Y027182D01*
X005696Y027031D01*
X005771Y026956D01*
X005696Y027182D02*
X005846Y027332D01*
X005996Y027407D01*
X006806Y028306D02*
X006806Y028713D01*
X007010Y028917D01*
X007213Y028713D01*
X007213Y028306D01*
X007213Y028612D02*
X006806Y028612D01*
X007414Y028612D02*
X007821Y028612D01*
X008906Y028612D02*
X009212Y028612D01*
X009313Y028510D01*
X009313Y028408D01*
X009212Y028306D01*
X008906Y028306D01*
X008906Y028917D01*
X009212Y028917D01*
X009313Y028815D01*
X009313Y028713D01*
X009212Y028612D01*
X009514Y028612D02*
X009921Y028612D01*
X009718Y028815D02*
X009718Y028408D01*
X009921Y027407D02*
X009696Y027182D01*
X009996Y027182D01*
X009921Y027407D02*
X009921Y026956D01*
X010756Y028306D02*
X011062Y028306D01*
X011163Y028408D01*
X011163Y028510D01*
X011062Y028612D01*
X010756Y028612D01*
X010756Y028917D02*
X010756Y028306D01*
X011062Y028612D02*
X011163Y028713D01*
X011163Y028815D01*
X011062Y028917D01*
X010756Y028917D01*
X011364Y028612D02*
X011771Y028612D01*
X012856Y028815D02*
X012856Y028408D01*
X012958Y028306D01*
X013162Y028306D01*
X013263Y028408D01*
X013464Y028612D02*
X013871Y028612D01*
X013668Y028815D02*
X013668Y028408D01*
X013263Y028815D02*
X013162Y028917D01*
X012958Y028917D01*
X012856Y028815D01*
X013771Y027407D02*
X013696Y027332D01*
X013771Y027407D02*
X013921Y027407D01*
X013996Y027332D01*
X013996Y027257D01*
X013696Y026956D01*
X013996Y026956D01*
X015108Y028306D02*
X015312Y028306D01*
X015413Y028408D01*
X015614Y028612D02*
X016021Y028612D01*
X015413Y028815D02*
X015312Y028917D01*
X015108Y028917D01*
X015006Y028815D01*
X015006Y028408D01*
X015108Y028306D01*
X015696Y027407D02*
X015546Y027257D01*
X015696Y027407D02*
X015696Y026956D01*
X015546Y026956D02*
X015846Y026956D01*
X019246Y027056D02*
X019546Y027357D01*
X019546Y027432D01*
X019471Y027507D01*
X019321Y027507D01*
X019246Y027432D01*
X019246Y027056D02*
X019546Y027056D01*
X021096Y027056D02*
X021396Y027056D01*
X021246Y027056D02*
X021246Y027507D01*
X021096Y027357D01*
X022306Y024357D02*
X022532Y024357D01*
X022607Y024282D01*
X022607Y024132D01*
X022532Y024057D01*
X022306Y024057D01*
X022457Y024057D02*
X022607Y023906D01*
X022767Y023906D02*
X023067Y023906D01*
X022917Y023906D02*
X022917Y024357D01*
X022767Y024207D01*
X022306Y024357D02*
X022306Y023906D01*
X011996Y027031D02*
X011921Y026956D01*
X011771Y026956D01*
X011696Y027031D01*
X011846Y027182D02*
X011921Y027182D01*
X011996Y027107D01*
X011996Y027031D01*
X011921Y027182D02*
X011996Y027257D01*
X011996Y027332D01*
X011921Y027407D01*
X011771Y027407D01*
X011696Y027332D01*
X007996Y027407D02*
X007696Y027407D01*
X007696Y027182D01*
X007846Y027257D01*
X007921Y027257D01*
X007996Y027182D01*
X007996Y027031D01*
X007921Y026956D01*
X007771Y026956D01*
X007696Y027031D01*
X005721Y028612D02*
X005314Y028612D01*
X005113Y028612D02*
X004706Y028612D01*
X004706Y028713D02*
X004706Y028306D01*
X005113Y028306D02*
X005113Y028713D01*
X004910Y028917D01*
X004706Y028713D01*
X005518Y028815D02*
X005518Y028408D01*
X009706Y009507D02*
X009781Y009357D01*
X009931Y009206D01*
X009931Y009432D01*
X010006Y009507D01*
X010081Y009507D01*
X010156Y009432D01*
X010156Y009281D01*
X010081Y009206D01*
X009931Y009206D01*
X009306Y007657D02*
X009306Y007356D01*
X009306Y007507D02*
X008856Y007507D01*
X009006Y007356D01*
X008306Y007356D02*
X008006Y007657D01*
X007931Y007657D01*
X007856Y007582D01*
X007856Y007431D01*
X007931Y007356D01*
X008306Y007356D02*
X008306Y007657D01*
X005182Y003907D02*
X005031Y003907D01*
X004956Y003832D01*
X005182Y003907D02*
X005257Y003832D01*
X005257Y003757D01*
X004956Y003456D01*
X005257Y003456D01*
X005107Y002907D02*
X005107Y002456D01*
X005257Y002456D02*
X004956Y002456D01*
X004956Y002757D02*
X005107Y002907D01*
X007556Y001907D02*
X007707Y002057D01*
X007707Y001606D01*
X007857Y001606D02*
X007556Y001606D01*
X008017Y001681D02*
X008017Y001982D01*
X008092Y002057D01*
X008242Y002057D01*
X008317Y001982D01*
X008017Y001681D01*
X008092Y001606D01*
X008242Y001606D01*
X008317Y001681D01*
X008317Y001982D01*
X003796Y005656D02*
X003496Y005656D01*
X003646Y005656D02*
X003646Y006107D01*
X003496Y005957D01*
X003336Y006032D02*
X003261Y006107D01*
X003111Y006107D01*
X003036Y006032D01*
X003036Y005957D01*
X003111Y005882D01*
X003261Y005882D01*
X003336Y005807D01*
X003336Y005731D01*
X003261Y005656D01*
X003111Y005656D01*
X003036Y005731D01*
X017406Y004621D02*
X017631Y004396D01*
X017631Y004696D01*
X017856Y004621D02*
X017406Y004621D01*
X017481Y004236D02*
X017781Y004236D01*
X017856Y004161D01*
X017856Y004011D01*
X017781Y003936D01*
X017481Y003936D01*
X017406Y004011D01*
X017406Y004161D01*
X017481Y004236D01*
X017706Y004086D02*
X017856Y004236D01*
X026306Y004307D02*
X026456Y004156D01*
X026306Y004307D02*
X026756Y004307D01*
X026756Y004457D02*
X026756Y004156D01*
X026756Y006006D02*
X026456Y006307D01*
X026381Y006307D01*
X026306Y006232D01*
X026306Y006081D01*
X026381Y006006D01*
X026756Y006006D02*
X026756Y006307D01*
X026681Y008006D02*
X026756Y008081D01*
X026756Y008232D01*
X026681Y008307D01*
X026606Y008307D01*
X026531Y008232D01*
X026531Y008157D01*
X026531Y008232D02*
X026456Y008307D01*
X026381Y008307D01*
X026306Y008232D01*
X026306Y008081D01*
X026381Y008006D01*
X026531Y010006D02*
X026531Y010307D01*
X026306Y010232D02*
X026531Y010006D01*
X026756Y010232D02*
X026306Y010232D01*
D14*
X022527Y009050D02*
X022527Y008679D01*
X022650Y008679D02*
X022403Y008679D01*
X022282Y008679D02*
X022035Y008679D01*
X022158Y008679D02*
X022158Y009050D01*
X022035Y008926D01*
X021913Y008988D02*
X021852Y009050D01*
X021728Y009050D01*
X021666Y008988D01*
X021666Y008741D01*
X021728Y008679D01*
X021852Y008679D01*
X021913Y008741D01*
X022403Y008926D02*
X022527Y009050D01*
X021100Y008438D02*
X021100Y008191D01*
X021038Y008129D01*
X020915Y008129D01*
X020853Y008191D01*
X021100Y008438D01*
X021038Y008500D01*
X020915Y008500D01*
X020853Y008438D01*
X020853Y008191D01*
X020732Y008129D02*
X020485Y008129D01*
X020608Y008129D02*
X020608Y008500D01*
X020485Y008376D01*
X020363Y008438D02*
X020302Y008500D01*
X020178Y008500D01*
X020116Y008438D01*
X020116Y008191D01*
X020178Y008129D01*
X020302Y008129D01*
X020363Y008191D01*
X018982Y008791D02*
X018982Y009038D01*
X018920Y009100D01*
X018796Y009100D01*
X018735Y009038D01*
X018735Y008976D01*
X018796Y008915D01*
X018982Y008915D01*
X018982Y008791D02*
X018920Y008729D01*
X018796Y008729D01*
X018735Y008791D01*
X018613Y008791D02*
X018552Y008729D01*
X018428Y008729D01*
X018366Y008791D01*
X018366Y009038D01*
X018428Y009100D01*
X018552Y009100D01*
X018613Y009038D01*
X018029Y009596D02*
X017836Y009596D01*
X017932Y009596D02*
X017932Y009887D01*
X017836Y009790D01*
X017735Y009596D02*
X017541Y009596D01*
X017638Y009596D02*
X017638Y009887D01*
X017541Y009790D01*
X017440Y009838D02*
X017440Y009742D01*
X017392Y009693D01*
X017246Y009693D01*
X017246Y009596D02*
X017246Y009887D01*
X017392Y009887D01*
X017440Y009838D01*
X017343Y009693D02*
X017440Y009596D01*
X016579Y009645D02*
X016531Y009596D01*
X016434Y009596D01*
X016386Y009645D01*
X016285Y009596D02*
X016091Y009596D01*
X016188Y009596D02*
X016188Y009887D01*
X016091Y009790D01*
X015990Y009838D02*
X015990Y009742D01*
X015942Y009693D01*
X015796Y009693D01*
X015796Y009596D02*
X015796Y009887D01*
X015942Y009887D01*
X015990Y009838D01*
X015893Y009693D02*
X015990Y009596D01*
X016386Y009838D02*
X016434Y009887D01*
X016531Y009887D01*
X016579Y009838D01*
X016579Y009790D01*
X016531Y009742D01*
X016579Y009693D01*
X016579Y009645D01*
X016531Y009742D02*
X016482Y009742D01*
X015966Y010146D02*
X015966Y010340D01*
X015966Y010441D02*
X015966Y010635D01*
X015966Y010736D02*
X015966Y010881D01*
X015918Y010929D01*
X015725Y010929D01*
X015676Y010881D01*
X015676Y010736D01*
X015966Y010736D01*
X015821Y010538D02*
X015821Y010441D01*
X015676Y010441D02*
X015966Y010441D01*
X015676Y010441D02*
X015676Y010635D01*
X015725Y011030D02*
X015773Y011030D01*
X015821Y011079D01*
X015821Y011175D01*
X015870Y011224D01*
X015918Y011224D01*
X015966Y011175D01*
X015966Y011079D01*
X015918Y011030D01*
X015870Y011030D01*
X015821Y011079D01*
X015821Y011175D02*
X015773Y011224D01*
X015725Y011224D01*
X015676Y011175D01*
X015676Y011079D01*
X015725Y011030D01*
X015676Y010146D02*
X015966Y010146D01*
X017826Y011046D02*
X018116Y011046D01*
X018116Y011240D01*
X018116Y011341D02*
X018116Y011535D01*
X018116Y011636D02*
X018116Y011781D01*
X018068Y011829D01*
X017875Y011829D01*
X017826Y011781D01*
X017826Y011636D01*
X018116Y011636D01*
X017971Y011438D02*
X017971Y011341D01*
X017826Y011341D02*
X018116Y011341D01*
X017826Y011341D02*
X017826Y011535D01*
X017875Y011930D02*
X017826Y011979D01*
X017826Y012075D01*
X017875Y012124D01*
X017923Y012124D01*
X017971Y012075D01*
X018020Y012124D01*
X018068Y012124D01*
X018116Y012075D01*
X018116Y011979D01*
X018068Y011930D01*
X017971Y012027D02*
X017971Y012075D01*
X017879Y014296D02*
X017686Y014296D01*
X017879Y014490D01*
X017879Y014538D01*
X017831Y014587D01*
X017734Y014587D01*
X017686Y014538D01*
X017488Y014587D02*
X017488Y014296D01*
X017391Y014296D02*
X017585Y014296D01*
X017391Y014490D02*
X017488Y014587D01*
X017290Y014538D02*
X017290Y014442D01*
X017242Y014393D01*
X017096Y014393D01*
X017096Y014296D02*
X017096Y014587D01*
X017242Y014587D01*
X017290Y014538D01*
X017193Y014393D02*
X017290Y014296D01*
X016779Y014442D02*
X016586Y014442D01*
X016731Y014587D01*
X016731Y014296D01*
X016485Y014296D02*
X016291Y014296D01*
X016388Y014296D02*
X016388Y014587D01*
X016291Y014490D01*
X016190Y014538D02*
X016190Y014442D01*
X016142Y014393D01*
X015996Y014393D01*
X015996Y014296D02*
X015996Y014587D01*
X016142Y014587D01*
X016190Y014538D01*
X016093Y014393D02*
X016190Y014296D01*
X015445Y013755D02*
X015445Y013508D01*
X015383Y013446D01*
X015260Y013446D01*
X015198Y013508D01*
X015445Y013755D01*
X015383Y013817D01*
X015260Y013817D01*
X015198Y013755D01*
X015198Y013508D01*
X015076Y013508D02*
X015076Y013446D01*
X015014Y013446D01*
X015014Y013508D01*
X015076Y013508D01*
X014893Y013508D02*
X014831Y013446D01*
X014707Y013446D01*
X014646Y013508D01*
X014769Y013632D02*
X014831Y013632D01*
X014893Y013570D01*
X014893Y013508D01*
X014831Y013632D02*
X014893Y013693D01*
X014893Y013755D01*
X014831Y013817D01*
X014707Y013817D01*
X014646Y013755D01*
X014524Y013693D02*
X014401Y013446D01*
X014277Y013693D01*
X014156Y014096D02*
X014032Y014096D01*
X013971Y014158D01*
X014217Y014405D01*
X014217Y014158D01*
X014156Y014096D01*
X014339Y014158D02*
X014586Y014405D01*
X014586Y014158D01*
X014524Y014096D01*
X014401Y014096D01*
X014339Y014158D01*
X014339Y014405D01*
X014401Y014467D01*
X014524Y014467D01*
X014586Y014405D01*
X014707Y014405D02*
X014707Y014343D01*
X014769Y014282D01*
X014954Y014282D01*
X014954Y014405D02*
X014954Y014158D01*
X014892Y014096D01*
X014769Y014096D01*
X014707Y014158D01*
X014707Y014405D02*
X014769Y014467D01*
X014892Y014467D01*
X014954Y014405D01*
X014217Y014405D02*
X014156Y014467D01*
X014032Y014467D01*
X013971Y014405D01*
X013971Y014158D01*
X013849Y014096D02*
X013602Y014096D01*
X013849Y014343D01*
X013849Y014405D01*
X013787Y014467D01*
X013664Y014467D01*
X013602Y014405D01*
X013112Y014343D02*
X013112Y014035D01*
X013051Y013973D01*
X012989Y013973D01*
X012927Y014096D02*
X013112Y014096D01*
X012927Y014096D02*
X012866Y014158D01*
X012866Y014282D01*
X012927Y014343D01*
X013112Y014343D01*
X012744Y014343D02*
X012682Y014343D01*
X012559Y014220D01*
X012559Y014343D02*
X012559Y014096D01*
X012437Y014158D02*
X012437Y014282D01*
X012376Y014343D01*
X012252Y014343D01*
X012190Y014282D01*
X012190Y014158D01*
X012252Y014096D01*
X012376Y014096D01*
X012437Y014158D01*
X012804Y013755D02*
X012804Y013508D01*
X012866Y013446D01*
X012989Y013446D01*
X013051Y013508D01*
X013051Y013632D01*
X012928Y013632D01*
X013051Y013755D02*
X012989Y013817D01*
X012866Y013817D01*
X012804Y013755D01*
X013173Y013817D02*
X013173Y013446D01*
X013173Y013570D02*
X013358Y013570D01*
X013419Y013632D01*
X013419Y013755D01*
X013358Y013817D01*
X013173Y013817D01*
X013541Y013817D02*
X013541Y013446D01*
X013788Y013446D01*
X012313Y013446D02*
X012252Y013446D01*
X012252Y013508D01*
X012313Y013508D01*
X012313Y013446D01*
X012313Y013632D02*
X012252Y013632D01*
X012252Y013693D01*
X012313Y013693D01*
X012313Y013632D01*
X012130Y013632D02*
X012130Y013570D01*
X011883Y013570D01*
X011883Y013632D02*
X011945Y013693D01*
X012069Y013693D01*
X012130Y013632D01*
X012069Y013446D02*
X011945Y013446D01*
X011883Y013508D01*
X011883Y013632D01*
X011762Y013693D02*
X011577Y013693D01*
X011515Y013632D01*
X011577Y013570D01*
X011700Y013570D01*
X011762Y013508D01*
X011700Y013446D01*
X011515Y013446D01*
X011394Y013446D02*
X011394Y013632D01*
X011332Y013693D01*
X011147Y013693D01*
X011147Y013446D01*
X011025Y013570D02*
X010779Y013570D01*
X010779Y013632D02*
X010840Y013693D01*
X010964Y013693D01*
X011025Y013632D01*
X011025Y013570D01*
X010964Y013446D02*
X010840Y013446D01*
X010779Y013508D01*
X010779Y013632D01*
X010657Y013693D02*
X010472Y013693D01*
X010410Y013632D01*
X010410Y013508D01*
X010472Y013446D01*
X010657Y013446D01*
X010288Y013446D02*
X010165Y013446D01*
X010226Y013446D02*
X010226Y013693D01*
X010165Y013693D01*
X010226Y013817D02*
X010226Y013878D01*
X010043Y014096D02*
X009858Y014096D01*
X009796Y014158D01*
X009796Y014282D01*
X009858Y014343D01*
X010043Y014343D01*
X010533Y014220D02*
X010718Y014220D01*
X010780Y014282D01*
X010780Y014405D01*
X010718Y014467D01*
X010533Y014467D01*
X010533Y014096D01*
X010656Y014220D02*
X010780Y014096D01*
X010901Y014096D02*
X010901Y014467D01*
X011086Y014467D01*
X011148Y014405D01*
X011148Y014282D01*
X011086Y014220D01*
X010901Y014220D01*
X011025Y014220D02*
X011148Y014096D01*
X011270Y014096D02*
X011270Y014467D01*
X011455Y014467D01*
X011516Y014405D01*
X011516Y014282D01*
X011455Y014220D01*
X011270Y014220D01*
X011393Y014220D02*
X011516Y014096D01*
X011638Y014096D02*
X011638Y014467D01*
X011885Y014467D01*
X011761Y014282D02*
X011638Y014282D01*
X012006Y014158D02*
X012068Y014158D01*
X012068Y014096D01*
X012006Y014096D01*
X012006Y014158D01*
X010043Y013446D02*
X009796Y013446D01*
X009796Y013817D01*
X006880Y011555D02*
X006880Y011308D01*
X006818Y011246D01*
X006695Y011246D01*
X006633Y011308D01*
X006880Y011555D01*
X006818Y011617D01*
X006695Y011617D01*
X006633Y011555D01*
X006633Y011308D01*
X006512Y011246D02*
X006265Y011246D01*
X006143Y011246D02*
X006020Y011370D01*
X006082Y011370D02*
X005896Y011370D01*
X005896Y011246D02*
X005896Y011617D01*
X006082Y011617D01*
X006143Y011555D01*
X006143Y011432D01*
X006082Y011370D01*
X006265Y011493D02*
X006388Y011617D01*
X006388Y011246D01*
X004875Y010067D02*
X004628Y010067D01*
X004628Y009882D01*
X004752Y009943D01*
X004813Y009943D01*
X004875Y009882D01*
X004875Y009758D01*
X004813Y009696D01*
X004690Y009696D01*
X004628Y009758D01*
X004507Y009696D02*
X004260Y009696D01*
X004383Y009696D02*
X004383Y010067D01*
X004260Y009943D01*
X004138Y010005D02*
X004077Y010067D01*
X003953Y010067D01*
X003891Y010005D01*
X003891Y009758D01*
X003953Y009696D01*
X004077Y009696D01*
X004138Y009758D01*
X001830Y010296D02*
X001830Y010667D01*
X001583Y010667D02*
X001583Y010296D01*
X001462Y010296D02*
X001338Y010420D01*
X001400Y010420D02*
X001215Y010420D01*
X001215Y010296D02*
X001215Y010667D01*
X001400Y010667D01*
X001462Y010605D01*
X001462Y010482D01*
X001400Y010420D01*
X001583Y010667D02*
X001830Y010296D01*
X001093Y010358D02*
X001093Y010482D01*
X000970Y010482D01*
X001093Y010605D02*
X001032Y010667D01*
X000908Y010667D01*
X000846Y010605D01*
X000846Y010358D01*
X000908Y010296D01*
X001032Y010296D01*
X001093Y010358D01*
X001215Y011346D02*
X001462Y011346D01*
X001583Y011346D02*
X001830Y011346D01*
X001583Y011346D02*
X001583Y011717D01*
X001462Y011717D02*
X001215Y011717D01*
X001215Y011346D01*
X001215Y011532D02*
X001338Y011532D01*
X001093Y011655D02*
X001093Y011717D01*
X001093Y011655D02*
X000970Y011532D01*
X000970Y011346D01*
X000970Y011532D02*
X000846Y011655D01*
X000846Y011717D01*
X000908Y012346D02*
X000846Y012408D01*
X000846Y012655D01*
X000908Y012717D01*
X001032Y012717D01*
X001093Y012655D01*
X001093Y012408D01*
X001032Y012346D01*
X000908Y012346D01*
X001215Y012346D02*
X001215Y012717D01*
X001400Y012717D01*
X001462Y012655D01*
X001462Y012532D01*
X001400Y012470D01*
X001215Y012470D01*
X001338Y012470D02*
X001462Y012346D01*
X001583Y012408D02*
X001645Y012346D01*
X001768Y012346D01*
X001830Y012408D01*
X001830Y012532D01*
X001706Y012532D01*
X001583Y012655D02*
X001583Y012408D01*
X001583Y012655D02*
X001645Y012717D01*
X001768Y012717D01*
X001830Y012655D01*
X001768Y013346D02*
X001583Y013346D01*
X001583Y013717D01*
X001768Y013717D01*
X001830Y013655D01*
X001830Y013408D01*
X001768Y013346D01*
X001462Y013346D02*
X001215Y013346D01*
X001215Y013717D01*
X001462Y013717D01*
X001338Y013532D02*
X001215Y013532D01*
X001093Y013532D02*
X001032Y013470D01*
X000846Y013470D01*
X000846Y013346D02*
X000846Y013717D01*
X001032Y013717D01*
X001093Y013655D01*
X001093Y013532D01*
X000970Y013470D02*
X001093Y013346D01*
X001032Y014296D02*
X000846Y014296D01*
X000846Y014667D01*
X001032Y014667D01*
X001093Y014605D01*
X001093Y014543D01*
X001032Y014482D01*
X000846Y014482D01*
X001032Y014482D02*
X001093Y014420D01*
X001093Y014358D01*
X001032Y014296D01*
X001215Y014296D02*
X001215Y014667D01*
X001400Y014667D01*
X001462Y014605D01*
X001462Y014482D01*
X001400Y014420D01*
X001215Y014420D01*
X001338Y014420D02*
X001462Y014296D01*
X001583Y014296D02*
X001583Y014667D01*
X001830Y014296D01*
X001830Y014667D01*
X001830Y015346D02*
X001645Y015532D01*
X001583Y015470D02*
X001830Y015717D01*
X001583Y015717D02*
X001583Y015346D01*
X001462Y015346D02*
X001215Y015346D01*
X001215Y015717D01*
X001093Y015655D02*
X001093Y015593D01*
X001032Y015532D01*
X000846Y015532D01*
X000846Y015717D02*
X001032Y015717D01*
X001093Y015655D01*
X001032Y015532D02*
X001093Y015470D01*
X001093Y015408D01*
X001032Y015346D01*
X000846Y015346D01*
X000846Y015717D01*
X015676Y007275D02*
X015821Y007130D01*
X015821Y007324D01*
X015966Y007275D02*
X015676Y007275D01*
X015725Y007029D02*
X015676Y006981D01*
X015676Y006836D01*
X015966Y006836D01*
X015966Y006981D01*
X015918Y007029D01*
X015725Y007029D01*
X015676Y006735D02*
X015676Y006541D01*
X015966Y006541D01*
X015966Y006735D01*
X015821Y006638D02*
X015821Y006541D01*
X015966Y006440D02*
X015966Y006246D01*
X015676Y006246D01*
X017846Y006168D02*
X018136Y006168D01*
X018136Y006361D01*
X018136Y006462D02*
X018136Y006656D01*
X018136Y006757D02*
X018136Y006902D01*
X018088Y006951D01*
X017895Y006951D01*
X017846Y006902D01*
X017846Y006757D01*
X018136Y006757D01*
X017991Y006559D02*
X017991Y006462D01*
X017846Y006462D02*
X018136Y006462D01*
X017846Y006462D02*
X017846Y006656D01*
X017895Y007052D02*
X017846Y007100D01*
X017846Y007197D01*
X017895Y007245D01*
X017943Y007245D01*
X018136Y007052D01*
X018136Y007245D01*
X019801Y015413D02*
X019925Y015413D01*
X019987Y015475D01*
X020108Y015475D02*
X020170Y015413D01*
X020293Y015413D01*
X020355Y015475D01*
X020355Y015537D01*
X020293Y015599D01*
X020108Y015599D01*
X020108Y015475D01*
X020108Y015599D02*
X020231Y015722D01*
X020355Y015784D01*
X019987Y015722D02*
X019925Y015784D01*
X019801Y015784D01*
X019740Y015722D01*
X019740Y015475D01*
X019801Y015413D01*
X019032Y016041D02*
X019032Y016165D01*
X018970Y016226D01*
X018908Y016226D01*
X018785Y016165D01*
X018785Y016350D01*
X019032Y016350D01*
X019032Y016041D02*
X018970Y015979D01*
X018846Y015979D01*
X018785Y016041D01*
X018663Y016041D02*
X018602Y015979D01*
X018478Y015979D01*
X018416Y016041D01*
X018416Y016288D01*
X018478Y016350D01*
X018602Y016350D01*
X018663Y016288D01*
X019196Y016696D02*
X019196Y016987D01*
X019342Y016987D01*
X019390Y016938D01*
X019390Y016745D01*
X019342Y016696D01*
X019196Y016696D01*
X019491Y016696D02*
X019685Y016696D01*
X019588Y016696D02*
X019588Y016987D01*
X019491Y016890D01*
X019786Y016938D02*
X019834Y016987D01*
X019931Y016987D01*
X019979Y016938D01*
X019786Y016745D01*
X019834Y016696D01*
X019931Y016696D01*
X019979Y016745D01*
X019979Y016938D01*
X019786Y016938D02*
X019786Y016745D01*
X020496Y016796D02*
X020642Y016796D01*
X020690Y016845D01*
X020690Y017038D01*
X020642Y017087D01*
X020496Y017087D01*
X020496Y016796D01*
X020791Y016845D02*
X020839Y016796D01*
X020936Y016796D01*
X020985Y016845D01*
X020985Y017038D01*
X020936Y017087D01*
X020839Y017087D01*
X020791Y017038D01*
X020791Y016990D01*
X020839Y016942D01*
X020985Y016942D01*
X021866Y016288D02*
X021866Y016041D01*
X021928Y015979D01*
X022052Y015979D01*
X022113Y016041D01*
X022235Y016041D02*
X022482Y016288D01*
X022482Y016350D01*
X022235Y016350D01*
X022113Y016288D02*
X022052Y016350D01*
X021928Y016350D01*
X021866Y016288D01*
X022235Y016041D02*
X022235Y015979D01*
X021890Y018996D02*
X021890Y019190D01*
X021793Y019287D01*
X021696Y019190D01*
X021696Y018996D01*
X021696Y019142D02*
X021890Y019142D01*
X022696Y019142D02*
X022842Y019142D01*
X022890Y019093D01*
X022890Y019045D01*
X022842Y018996D01*
X022696Y018996D01*
X022696Y019287D01*
X022842Y019287D01*
X022890Y019238D01*
X022890Y019190D01*
X022842Y019142D01*
X022018Y020996D02*
X022066Y021045D01*
X022066Y021142D01*
X022018Y021190D01*
X021970Y021190D01*
X021921Y021142D01*
X021921Y021045D01*
X021873Y020996D01*
X021825Y020996D01*
X021776Y021045D01*
X021776Y021142D01*
X021825Y021190D01*
X021776Y021291D02*
X022066Y021485D01*
X021776Y021485D01*
X021776Y021586D02*
X021776Y021779D01*
X021825Y021779D01*
X022018Y021586D01*
X022066Y021586D01*
X022066Y021291D02*
X021776Y021291D01*
X021776Y021880D02*
X021921Y021880D01*
X021873Y021977D01*
X021873Y022025D01*
X021921Y022074D01*
X022018Y022074D01*
X022066Y022025D01*
X022066Y021929D01*
X022018Y021880D01*
X021776Y021880D02*
X021776Y022074D01*
X021873Y022175D02*
X021776Y022272D01*
X022066Y022272D01*
X022066Y022368D02*
X022066Y022175D01*
X022066Y022470D02*
X022018Y022470D01*
X021825Y022663D01*
X021776Y022663D01*
X021776Y022470D01*
X021921Y022764D02*
X021921Y022909D01*
X021970Y022958D01*
X022018Y022958D01*
X022066Y022909D01*
X022066Y022813D01*
X022018Y022764D01*
X021921Y022764D01*
X021825Y022861D01*
X021776Y022958D01*
X021873Y023059D02*
X021776Y023156D01*
X021873Y023252D01*
X022066Y023252D01*
X022018Y023354D02*
X022066Y023402D01*
X022066Y023499D01*
X022018Y023547D01*
X021970Y023547D01*
X021921Y023499D01*
X021921Y023402D01*
X021873Y023354D01*
X021825Y023354D01*
X021776Y023402D01*
X021776Y023499D01*
X021825Y023547D01*
X021825Y023648D02*
X022018Y023648D01*
X022066Y023697D01*
X022066Y023793D01*
X022018Y023842D01*
X021825Y023842D01*
X021776Y023793D01*
X021776Y023697D01*
X021825Y023648D01*
X021776Y023943D02*
X021776Y024040D01*
X021776Y023991D02*
X022066Y023991D01*
X022066Y023943D02*
X022066Y024040D01*
X022018Y024139D02*
X022066Y024188D01*
X022066Y024284D01*
X022018Y024333D01*
X021825Y024333D02*
X021776Y024284D01*
X021776Y024188D01*
X021825Y024139D01*
X022018Y024139D01*
X021921Y023252D02*
X021921Y023059D01*
X021873Y023059D02*
X022066Y023059D01*
X019131Y019187D02*
X018986Y019187D01*
X018986Y018896D01*
X019131Y018896D01*
X019179Y018945D01*
X019179Y019138D01*
X019131Y019187D01*
X018885Y019187D02*
X018885Y018896D01*
X018691Y019187D01*
X018691Y018896D01*
X018590Y018945D02*
X018590Y019042D01*
X018493Y019042D01*
X018396Y019138D02*
X018396Y018945D01*
X018445Y018896D01*
X018542Y018896D01*
X018590Y018945D01*
X018590Y019138D02*
X018542Y019187D01*
X018445Y019187D01*
X018396Y019138D01*
X018079Y017090D02*
X017934Y017090D01*
X017886Y017042D01*
X017886Y016945D01*
X017934Y016896D01*
X018079Y016896D01*
X017785Y016896D02*
X017639Y016896D01*
X017591Y016945D01*
X017591Y017042D01*
X017639Y017090D01*
X017785Y017090D01*
X017490Y016993D02*
X017490Y017187D01*
X017296Y017187D02*
X017296Y016993D01*
X017393Y016896D01*
X017490Y016993D01*
D15*
X009931Y011931D02*
X009931Y010131D01*
X009931Y008531D02*
X009931Y006731D01*
X007231Y006731D01*
X007231Y011931D01*
X009931Y011931D01*
X004581Y007981D02*
X004481Y007981D01*
X004481Y007031D01*
X004581Y007031D01*
X002281Y007031D02*
X002281Y008031D01*
X002181Y008031D01*
X002181Y007031D02*
X002281Y007031D01*
X004331Y004531D02*
X004331Y001831D01*
X007131Y001831D01*
X008731Y001831D02*
X009131Y001831D01*
X009731Y001831D02*
X011531Y001831D01*
X011531Y004531D01*
X004331Y004531D01*
X001814Y009991D02*
X001814Y010212D01*
X001741Y010212D02*
X001741Y009991D01*
X001704Y010065D02*
X001851Y010065D01*
X001851Y010138D02*
X001814Y010138D01*
X001704Y010138D01*
X001630Y010175D02*
X001593Y010212D01*
X001520Y010212D01*
X001483Y010175D01*
X001483Y010138D01*
X001520Y010101D01*
X001593Y010101D01*
X001630Y010065D01*
X001630Y010028D01*
X001593Y009991D01*
X001520Y009991D01*
X001483Y010028D01*
X001336Y009991D02*
X001336Y010212D01*
X001409Y010212D02*
X001262Y010212D01*
X001188Y010175D02*
X001188Y010101D01*
X001151Y010065D01*
X001041Y010065D01*
X001041Y009991D02*
X001041Y010212D01*
X001151Y010212D01*
X001188Y010175D01*
X001115Y010065D02*
X001188Y009991D01*
X001241Y011041D02*
X001241Y011262D01*
X001351Y011262D01*
X001388Y011225D01*
X001388Y011151D01*
X001351Y011115D01*
X001241Y011115D01*
X001315Y011115D02*
X001388Y011041D01*
X001462Y011041D02*
X001609Y011262D01*
X001683Y011262D02*
X001793Y011262D01*
X001830Y011225D01*
X001830Y011078D01*
X001793Y011041D01*
X001683Y011041D01*
X001683Y011262D01*
X001462Y011262D02*
X001609Y011041D01*
X001609Y012041D02*
X001462Y012262D01*
X001388Y012262D02*
X001241Y012262D01*
X001315Y012262D02*
X001315Y012041D01*
X001462Y012041D02*
X001609Y012262D01*
X001683Y012262D02*
X001793Y012262D01*
X001830Y012225D01*
X001830Y012078D01*
X001793Y012041D01*
X001683Y012041D01*
X001683Y012262D01*
X001720Y013041D02*
X001793Y013041D01*
X001830Y013078D01*
X001720Y013041D02*
X001683Y013078D01*
X001683Y013225D01*
X001720Y013262D01*
X001793Y013262D01*
X001830Y013225D01*
X001609Y013225D02*
X001572Y013262D01*
X001499Y013262D01*
X001462Y013225D01*
X001462Y013078D01*
X001499Y013041D01*
X001572Y013041D01*
X001609Y013078D01*
X001388Y013115D02*
X001388Y013262D01*
X001241Y013262D02*
X001241Y013115D01*
X001315Y013041D01*
X001388Y013115D01*
X001336Y013991D02*
X001336Y014212D01*
X001409Y014212D02*
X001262Y014212D01*
X001188Y014175D02*
X001151Y014212D01*
X001078Y014212D01*
X001041Y014175D01*
X001041Y014028D01*
X001078Y013991D01*
X001151Y013991D01*
X001188Y014028D01*
X001483Y014028D02*
X001520Y013991D01*
X001593Y013991D01*
X001630Y014028D01*
X001630Y014065D01*
X001593Y014101D01*
X001520Y014101D01*
X001483Y014138D01*
X001483Y014175D01*
X001520Y014212D01*
X001593Y014212D01*
X001630Y014175D01*
X001704Y014138D02*
X001814Y014138D01*
X001851Y014138D01*
X001851Y014065D02*
X001704Y014065D01*
X001741Y013991D02*
X001741Y014212D01*
X001814Y014212D02*
X001814Y013991D01*
X001793Y015041D02*
X001683Y015041D01*
X001683Y015262D01*
X001793Y015262D01*
X001830Y015225D01*
X001830Y015078D01*
X001793Y015041D01*
X001609Y015041D02*
X001609Y015262D01*
X001462Y015262D02*
X001609Y015041D01*
X001462Y015041D02*
X001462Y015262D01*
X001388Y015225D02*
X001351Y015262D01*
X001278Y015262D01*
X001241Y015225D01*
X001241Y015078D01*
X001278Y015041D01*
X001351Y015041D01*
X001388Y015078D01*
X001388Y015151D01*
X001315Y015151D01*
D16*
X013881Y004581D02*
X016281Y004581D01*
X016338Y004579D01*
X016394Y004573D01*
X016450Y004564D01*
X016506Y004551D01*
X016560Y004534D01*
X016613Y004514D01*
X016664Y004490D01*
X016714Y004462D01*
X016762Y004432D01*
X016808Y004398D01*
X016851Y004361D01*
X016892Y004322D01*
X016930Y004280D01*
X016965Y004235D01*
X016997Y004188D01*
X017026Y004139D01*
X017052Y004089D01*
X017074Y004036D01*
X017093Y003983D01*
X017108Y003928D01*
X017119Y003872D01*
X017127Y003816D01*
X017131Y003759D01*
X017131Y003703D01*
X017127Y003646D01*
X017119Y003590D01*
X017108Y003534D01*
X017093Y003479D01*
X017074Y003426D01*
X017052Y003373D01*
X017026Y003323D01*
X016997Y003274D01*
X016965Y003227D01*
X016930Y003182D01*
X016892Y003140D01*
X016851Y003101D01*
X016808Y003064D01*
X016762Y003030D01*
X016714Y003000D01*
X016664Y002972D01*
X016613Y002948D01*
X016560Y002928D01*
X016506Y002911D01*
X016450Y002898D01*
X016394Y002889D01*
X016338Y002883D01*
X016281Y002881D01*
X013881Y002881D01*
X013824Y002883D01*
X013768Y002889D01*
X013712Y002898D01*
X013656Y002911D01*
X013602Y002928D01*
X013549Y002948D01*
X013498Y002972D01*
X013448Y003000D01*
X013400Y003030D01*
X013354Y003064D01*
X013311Y003101D01*
X013270Y003140D01*
X013232Y003182D01*
X013197Y003227D01*
X013165Y003274D01*
X013136Y003323D01*
X013110Y003373D01*
X013088Y003426D01*
X013069Y003479D01*
X013054Y003534D01*
X013043Y003590D01*
X013035Y003646D01*
X013031Y003703D01*
X013031Y003759D01*
X013035Y003816D01*
X013043Y003872D01*
X013054Y003928D01*
X013069Y003983D01*
X013088Y004036D01*
X013110Y004089D01*
X013136Y004139D01*
X013165Y004188D01*
X013197Y004235D01*
X013232Y004280D01*
X013270Y004322D01*
X013311Y004361D01*
X013354Y004398D01*
X013400Y004432D01*
X013448Y004462D01*
X013498Y004490D01*
X013549Y004514D01*
X013602Y004534D01*
X013656Y004551D01*
X013712Y004564D01*
X013768Y004573D01*
X013824Y004579D01*
X013881Y004581D01*
X018381Y004731D02*
X018421Y004729D01*
X018461Y004723D01*
X018501Y004714D01*
X018539Y004701D01*
X018576Y004684D01*
X018611Y004664D01*
X018644Y004640D01*
X018674Y004614D01*
X018702Y004584D01*
X018727Y004553D01*
X018749Y004518D01*
X018768Y004483D01*
X018783Y004445D01*
X018794Y004406D01*
X018802Y004366D01*
X018806Y004326D01*
X018806Y004286D01*
X018802Y004246D01*
X018794Y004206D01*
X018783Y004167D01*
X018768Y004129D01*
X018749Y004093D01*
X018727Y004059D01*
X018702Y004028D01*
X018674Y003998D01*
X018644Y003972D01*
X018611Y003948D01*
X018576Y003928D01*
X018539Y003911D01*
X018501Y003898D01*
X018461Y003889D01*
X018421Y003883D01*
X018381Y003881D01*
X018381Y011131D02*
X018422Y011135D01*
X018463Y011143D01*
X018503Y011154D01*
X018541Y011170D01*
X018578Y011188D01*
X018613Y011210D01*
X018646Y011236D01*
X018676Y011264D01*
X018704Y011294D01*
X018729Y011327D01*
X018751Y011363D01*
X018769Y011400D01*
X018784Y011439D01*
X018795Y011478D01*
X018803Y011519D01*
X018807Y011560D01*
X018807Y011602D01*
X018803Y011643D01*
X018795Y011684D01*
X018784Y011723D01*
X018769Y011762D01*
X018751Y011799D01*
X018729Y011835D01*
X018704Y011868D01*
X018676Y011898D01*
X018646Y011926D01*
X018613Y011952D01*
X018578Y011974D01*
X018541Y011992D01*
X018503Y012008D01*
X018463Y012019D01*
X018422Y012027D01*
X018381Y012031D01*
D17*
X024731Y018591D02*
X024731Y021172D01*
X027091Y021171D01*
X027091Y018591D02*
X024731Y018591D01*
X026051Y027581D02*
X026053Y027631D01*
X026059Y027681D01*
X026069Y027730D01*
X026083Y027778D01*
X026100Y027825D01*
X026121Y027870D01*
X026146Y027914D01*
X026174Y027955D01*
X026206Y027994D01*
X026240Y028031D01*
X026277Y028065D01*
X026317Y028095D01*
X026359Y028122D01*
X026403Y028146D01*
X026449Y028167D01*
X026496Y028183D01*
X026544Y028196D01*
X026594Y028205D01*
X026643Y028210D01*
X026694Y028211D01*
X026744Y028208D01*
X026793Y028201D01*
X026842Y028190D01*
X026890Y028175D01*
X026936Y028157D01*
X026981Y028135D01*
X027024Y028109D01*
X027065Y028080D01*
X027104Y028048D01*
X027140Y028013D01*
X027172Y027975D01*
X027202Y027935D01*
X027229Y027892D01*
X027252Y027848D01*
X027271Y027802D01*
X027287Y027754D01*
X027299Y027705D01*
X027307Y027656D01*
X027311Y027606D01*
X027311Y027556D01*
X027307Y027506D01*
X027299Y027457D01*
X027287Y027408D01*
X027271Y027360D01*
X027252Y027314D01*
X027229Y027270D01*
X027202Y027227D01*
X027172Y027187D01*
X027140Y027149D01*
X027104Y027114D01*
X027065Y027082D01*
X027024Y027053D01*
X026981Y027027D01*
X026936Y027005D01*
X026890Y026987D01*
X026842Y026972D01*
X026793Y026961D01*
X026744Y026954D01*
X026694Y026951D01*
X026643Y026952D01*
X026594Y026957D01*
X026544Y026966D01*
X026496Y026979D01*
X026449Y026995D01*
X026403Y027016D01*
X026359Y027040D01*
X026317Y027067D01*
X026277Y027097D01*
X026240Y027131D01*
X026206Y027168D01*
X026174Y027207D01*
X026146Y027248D01*
X026121Y027292D01*
X026100Y027337D01*
X026083Y027384D01*
X026069Y027432D01*
X026059Y027481D01*
X026053Y027531D01*
X026051Y027581D01*
X015372Y023481D02*
X015372Y022081D01*
X012791Y022081D01*
X012791Y023481D01*
X015372Y023481D01*
X010972Y023481D02*
X010972Y022081D01*
X008391Y022081D01*
X008391Y023481D01*
X010972Y023481D01*
X006272Y023481D02*
X006272Y022081D01*
X003691Y022081D01*
X003691Y023481D01*
X006272Y023481D01*
X001501Y027481D02*
X001503Y027531D01*
X001509Y027581D01*
X001519Y027630D01*
X001533Y027678D01*
X001550Y027725D01*
X001571Y027770D01*
X001596Y027814D01*
X001624Y027855D01*
X001656Y027894D01*
X001690Y027931D01*
X001727Y027965D01*
X001767Y027995D01*
X001809Y028022D01*
X001853Y028046D01*
X001899Y028067D01*
X001946Y028083D01*
X001994Y028096D01*
X002044Y028105D01*
X002093Y028110D01*
X002144Y028111D01*
X002194Y028108D01*
X002243Y028101D01*
X002292Y028090D01*
X002340Y028075D01*
X002386Y028057D01*
X002431Y028035D01*
X002474Y028009D01*
X002515Y027980D01*
X002554Y027948D01*
X002590Y027913D01*
X002622Y027875D01*
X002652Y027835D01*
X002679Y027792D01*
X002702Y027748D01*
X002721Y027702D01*
X002737Y027654D01*
X002749Y027605D01*
X002757Y027556D01*
X002761Y027506D01*
X002761Y027456D01*
X002757Y027406D01*
X002749Y027357D01*
X002737Y027308D01*
X002721Y027260D01*
X002702Y027214D01*
X002679Y027170D01*
X002652Y027127D01*
X002622Y027087D01*
X002590Y027049D01*
X002554Y027014D01*
X002515Y026982D01*
X002474Y026953D01*
X002431Y026927D01*
X002386Y026905D01*
X002340Y026887D01*
X002292Y026872D01*
X002243Y026861D01*
X002194Y026854D01*
X002144Y026851D01*
X002093Y026852D01*
X002044Y026857D01*
X001994Y026866D01*
X001946Y026879D01*
X001899Y026895D01*
X001853Y026916D01*
X001809Y026940D01*
X001767Y026967D01*
X001727Y026997D01*
X001690Y027031D01*
X001656Y027068D01*
X001624Y027107D01*
X001596Y027148D01*
X001571Y027192D01*
X001550Y027237D01*
X001533Y027284D01*
X001519Y027332D01*
X001509Y027381D01*
X001503Y027431D01*
X001501Y027481D01*
X009648Y014231D02*
X009650Y014264D01*
X009656Y014297D01*
X009666Y014330D01*
X009679Y014360D01*
X009696Y014389D01*
X009717Y014416D01*
X009740Y014440D01*
X009766Y014461D01*
X009794Y014479D01*
X009825Y014493D01*
X009856Y014504D01*
X009889Y014511D01*
X009923Y014514D01*
X009956Y014513D01*
X009989Y014508D01*
X010022Y014499D01*
X010053Y014486D01*
X010082Y014470D01*
X010109Y014451D01*
X010134Y014428D01*
X010156Y014403D01*
X010175Y014375D01*
X010190Y014345D01*
X010202Y014314D01*
X010210Y014281D01*
X010214Y014248D01*
X010214Y014214D01*
X010210Y014181D01*
X010202Y014148D01*
X010190Y014117D01*
X010175Y014087D01*
X010156Y014059D01*
X010134Y014034D01*
X010109Y014011D01*
X010082Y013992D01*
X010053Y013976D01*
X010022Y013963D01*
X009989Y013954D01*
X009956Y013949D01*
X009923Y013948D01*
X009889Y013951D01*
X009856Y013958D01*
X009825Y013969D01*
X009794Y013983D01*
X009766Y014001D01*
X009740Y014022D01*
X009717Y014046D01*
X009696Y014073D01*
X009679Y014102D01*
X009666Y014132D01*
X009656Y014165D01*
X009650Y014198D01*
X009648Y014231D01*
X001601Y002131D02*
X001603Y002181D01*
X001609Y002231D01*
X001619Y002280D01*
X001633Y002328D01*
X001650Y002375D01*
X001671Y002420D01*
X001696Y002464D01*
X001724Y002505D01*
X001756Y002544D01*
X001790Y002581D01*
X001827Y002615D01*
X001867Y002645D01*
X001909Y002672D01*
X001953Y002696D01*
X001999Y002717D01*
X002046Y002733D01*
X002094Y002746D01*
X002144Y002755D01*
X002193Y002760D01*
X002244Y002761D01*
X002294Y002758D01*
X002343Y002751D01*
X002392Y002740D01*
X002440Y002725D01*
X002486Y002707D01*
X002531Y002685D01*
X002574Y002659D01*
X002615Y002630D01*
X002654Y002598D01*
X002690Y002563D01*
X002722Y002525D01*
X002752Y002485D01*
X002779Y002442D01*
X002802Y002398D01*
X002821Y002352D01*
X002837Y002304D01*
X002849Y002255D01*
X002857Y002206D01*
X002861Y002156D01*
X002861Y002106D01*
X002857Y002056D01*
X002849Y002007D01*
X002837Y001958D01*
X002821Y001910D01*
X002802Y001864D01*
X002779Y001820D01*
X002752Y001777D01*
X002722Y001737D01*
X002690Y001699D01*
X002654Y001664D01*
X002615Y001632D01*
X002574Y001603D01*
X002531Y001577D01*
X002486Y001555D01*
X002440Y001537D01*
X002392Y001522D01*
X002343Y001511D01*
X002294Y001504D01*
X002244Y001501D01*
X002193Y001502D01*
X002144Y001507D01*
X002094Y001516D01*
X002046Y001529D01*
X001999Y001545D01*
X001953Y001566D01*
X001909Y001590D01*
X001867Y001617D01*
X001827Y001647D01*
X001790Y001681D01*
X001756Y001718D01*
X001724Y001757D01*
X001696Y001798D01*
X001671Y001842D01*
X001650Y001887D01*
X001633Y001934D01*
X001619Y001982D01*
X001609Y002031D01*
X001603Y002081D01*
X001601Y002131D01*
X026101Y002081D02*
X026103Y002131D01*
X026109Y002181D01*
X026119Y002230D01*
X026133Y002278D01*
X026150Y002325D01*
X026171Y002370D01*
X026196Y002414D01*
X026224Y002455D01*
X026256Y002494D01*
X026290Y002531D01*
X026327Y002565D01*
X026367Y002595D01*
X026409Y002622D01*
X026453Y002646D01*
X026499Y002667D01*
X026546Y002683D01*
X026594Y002696D01*
X026644Y002705D01*
X026693Y002710D01*
X026744Y002711D01*
X026794Y002708D01*
X026843Y002701D01*
X026892Y002690D01*
X026940Y002675D01*
X026986Y002657D01*
X027031Y002635D01*
X027074Y002609D01*
X027115Y002580D01*
X027154Y002548D01*
X027190Y002513D01*
X027222Y002475D01*
X027252Y002435D01*
X027279Y002392D01*
X027302Y002348D01*
X027321Y002302D01*
X027337Y002254D01*
X027349Y002205D01*
X027357Y002156D01*
X027361Y002106D01*
X027361Y002056D01*
X027357Y002006D01*
X027349Y001957D01*
X027337Y001908D01*
X027321Y001860D01*
X027302Y001814D01*
X027279Y001770D01*
X027252Y001727D01*
X027222Y001687D01*
X027190Y001649D01*
X027154Y001614D01*
X027115Y001582D01*
X027074Y001553D01*
X027031Y001527D01*
X026986Y001505D01*
X026940Y001487D01*
X026892Y001472D01*
X026843Y001461D01*
X026794Y001454D01*
X026744Y001451D01*
X026693Y001452D01*
X026644Y001457D01*
X026594Y001466D01*
X026546Y001479D01*
X026499Y001495D01*
X026453Y001516D01*
X026409Y001540D01*
X026367Y001567D01*
X026327Y001597D01*
X026290Y001631D01*
X026256Y001668D01*
X026224Y001707D01*
X026196Y001748D01*
X026171Y001792D01*
X026150Y001837D01*
X026133Y001884D01*
X026119Y001932D01*
X026109Y001981D01*
X026103Y002031D01*
X026101Y002081D01*
D18*
X024541Y019881D03*
D19*
X020531Y023131D02*
X020529Y023087D01*
X020523Y023044D01*
X020514Y023002D01*
X020501Y022960D01*
X020484Y022920D01*
X020464Y022881D01*
X020441Y022844D01*
X020414Y022810D01*
X020385Y022777D01*
X020352Y022748D01*
X020318Y022721D01*
X020281Y022698D01*
X020242Y022678D01*
X020202Y022661D01*
X020160Y022648D01*
X020118Y022639D01*
X020075Y022633D01*
X020031Y022631D01*
X019987Y022633D01*
X019944Y022639D01*
X019902Y022648D01*
X019860Y022661D01*
X019820Y022678D01*
X019781Y022698D01*
X019744Y022721D01*
X019710Y022748D01*
X019677Y022777D01*
X019648Y022810D01*
X019621Y022844D01*
X019598Y022881D01*
X019578Y022920D01*
X019561Y022960D01*
X019548Y023002D01*
X019539Y023044D01*
X019533Y023087D01*
X019531Y023131D01*
X012171Y017581D02*
X012021Y017581D01*
X011831Y016931D02*
X011931Y016831D01*
X011081Y016661D02*
X011081Y016511D01*
X010381Y016931D02*
X010281Y016831D01*
X010141Y017581D02*
X009991Y017581D01*
D20*
X018531Y023131D02*
X021531Y023131D01*
D21*
X016252Y023803D03*
X015711Y023803D03*
X011852Y023853D03*
X011311Y023853D03*
X007402Y023803D03*
X006861Y023803D03*
X016111Y011303D03*
X016652Y011303D03*
X017161Y011303D03*
X017702Y011303D03*
X017702Y006503D03*
X017161Y006503D03*
X016652Y006503D03*
X016111Y006503D03*
X005852Y008853D03*
X005311Y008853D03*
D22*
X005581Y008700D03*
X016381Y006350D03*
X017431Y006350D03*
X017431Y011150D03*
X016381Y011150D03*
X015981Y023650D03*
X011581Y023700D03*
X007131Y023650D03*
X002200Y023481D03*
D23*
X026027Y003697D02*
X026448Y003066D01*
X026672Y003382D02*
X027092Y003382D01*
X026987Y003066D02*
X026987Y003697D01*
X026672Y003382D01*
X026448Y003697D02*
X026027Y003066D01*
D24*
X002353Y023211D03*
X002353Y023752D03*
M02*
