G75*
G70*
%OFA0B0*%
%FSLAX24Y24*%
%IPPOS*%
%LPD*%
%AMOC8*
5,1,8,0,0,1.08239X$1,22.5*
%
%ADD10R,0.1417X0.0512*%
%ADD11R,0.0709X0.0630*%
%ADD12R,0.0630X0.0709*%
%ADD13R,0.2441X0.2126*%
%ADD14R,0.0630X0.0394*%
%ADD15R,0.0866X0.0236*%
%ADD16R,0.0710X0.0630*%
%ADD17R,0.0630X0.0710*%
%ADD18OC8,0.0600*%
%ADD19C,0.0640*%
%ADD20R,0.0787X0.0630*%
%ADD21R,0.0591X0.0591*%
%ADD22R,0.0480X0.0880*%
%ADD23R,0.1417X0.0866*%
%ADD24R,0.0236X0.0866*%
%ADD25R,0.0787X0.0591*%
%ADD26R,0.0591X0.0787*%
%ADD27R,0.0394X0.1102*%
%ADD28R,0.0220X0.0500*%
%ADD29R,0.0500X0.0220*%
%ADD30C,0.0560*%
%ADD31R,0.0500X0.0500*%
%ADD32C,0.0825*%
%ADD33OC8,0.0560*%
%ADD34C,0.0550*%
%ADD35C,0.0320*%
%ADD36C,0.0436*%
%ADD37C,0.0500*%
%ADD38C,0.0400*%
%ADD39C,0.0660*%
%ADD40C,0.0160*%
%ADD41C,0.0240*%
%ADD42C,0.0120*%
D10*
X024136Y014781D03*
X027237Y014781D03*
X027337Y023831D03*
X024236Y023831D03*
D11*
X022831Y022733D03*
X022831Y021630D03*
X016131Y018683D03*
X016131Y017580D03*
D12*
X025430Y017731D03*
X026533Y017731D03*
X016633Y002231D03*
X015530Y002231D03*
X014633Y002231D03*
X013530Y002231D03*
X005383Y010531D03*
X004280Y010531D03*
D13*
X026566Y019881D03*
D14*
X023692Y018984D03*
X023692Y020779D03*
D15*
X021055Y021381D03*
X021055Y021881D03*
X021055Y022381D03*
X021055Y022881D03*
X019008Y022881D03*
X019008Y022381D03*
X019008Y021881D03*
X019008Y021381D03*
D16*
X016031Y021022D03*
X016031Y022141D03*
X011631Y022041D03*
X011631Y020922D03*
X016381Y013841D03*
X017431Y013841D03*
X017431Y012722D03*
X016381Y012722D03*
X016381Y009141D03*
X017481Y009141D03*
X017481Y008022D03*
X016381Y008022D03*
X010981Y011622D03*
X010981Y012741D03*
X005581Y006841D03*
X005581Y005722D03*
X023131Y003491D03*
X023131Y002372D03*
X023131Y009622D03*
X023131Y010741D03*
X022831Y024972D03*
X022831Y026091D03*
D17*
X007491Y014581D03*
X007491Y013531D03*
X006372Y013531D03*
X006372Y014581D03*
X005391Y012531D03*
X005391Y011531D03*
X004272Y011531D03*
X004272Y012531D03*
X010572Y005731D03*
X011691Y005731D03*
X002591Y004831D03*
X001472Y004831D03*
X001472Y024781D03*
X002591Y024781D03*
D18*
X008081Y010331D03*
X008081Y009331D03*
X008081Y008331D03*
X009081Y008331D03*
X009081Y009331D03*
X009081Y010331D03*
X008931Y003681D03*
X007931Y003681D03*
X006931Y003681D03*
X006931Y002681D03*
X007931Y002681D03*
X008931Y002681D03*
X009931Y002681D03*
X009931Y003681D03*
X005931Y003681D03*
X005931Y002681D03*
D19*
X004271Y005931D02*
X004271Y006571D01*
X002491Y006571D02*
X002491Y005931D01*
X002491Y008491D02*
X002491Y009131D01*
X002261Y010531D02*
X002901Y010531D01*
X002901Y011531D02*
X002261Y011531D01*
X002261Y012531D02*
X002901Y012531D01*
X002901Y013531D02*
X002261Y013531D01*
X002261Y014531D02*
X002901Y014531D01*
X002901Y015531D02*
X002261Y015531D01*
X008361Y015331D02*
X009001Y015331D01*
X009001Y016331D02*
X008361Y016331D01*
X008361Y014331D02*
X009001Y014331D01*
X009001Y013331D02*
X008361Y013331D01*
X004271Y009131D02*
X004271Y008491D01*
X013011Y016681D02*
X013651Y016681D01*
X014561Y016681D02*
X015201Y016681D01*
X015201Y017681D02*
X014561Y017681D01*
X013651Y017681D02*
X013011Y017681D01*
X013011Y018681D02*
X013651Y018681D01*
X014561Y018681D02*
X015201Y018681D01*
X017681Y018301D02*
X017681Y017661D01*
X018681Y017661D02*
X018681Y018301D01*
X019681Y018301D02*
X019681Y017661D01*
X020681Y017661D02*
X020681Y018301D01*
X021681Y018301D02*
X021681Y017661D01*
X022681Y017661D02*
X022681Y018301D01*
D20*
X008581Y018683D03*
X008581Y017580D03*
X007131Y020930D03*
X007131Y022033D03*
D21*
X007131Y022892D03*
X007131Y024270D03*
X002820Y023481D03*
X001442Y023481D03*
X011581Y022942D03*
X011581Y024320D03*
X015981Y024270D03*
X015981Y022892D03*
X016381Y011770D03*
X017431Y011770D03*
X017431Y010392D03*
X016381Y010392D03*
X016381Y006970D03*
X017431Y006970D03*
X017431Y005592D03*
X016381Y005592D03*
X005581Y007942D03*
X005581Y009320D03*
D22*
X005891Y021561D03*
X004981Y021561D03*
X004072Y021561D03*
X008772Y021561D03*
X009681Y021561D03*
X010591Y021561D03*
X013172Y021561D03*
X014081Y021561D03*
X014991Y021561D03*
D23*
X014081Y024001D03*
X009681Y024001D03*
X004981Y024001D03*
D24*
X018631Y013342D03*
X019131Y013342D03*
X019631Y013342D03*
X020131Y013342D03*
X020631Y013342D03*
X021131Y013342D03*
X021631Y013342D03*
X022131Y013342D03*
X022131Y009720D03*
X021631Y009720D03*
X021131Y009720D03*
X020631Y009720D03*
X020131Y009720D03*
X019631Y009720D03*
X019131Y009720D03*
X018631Y009720D03*
X018631Y006092D03*
X019131Y006092D03*
X019631Y006092D03*
X020131Y006092D03*
X020631Y006092D03*
X021131Y006092D03*
X021631Y006092D03*
X022131Y006092D03*
X022131Y002470D03*
X021631Y002470D03*
X021131Y002470D03*
X020631Y002470D03*
X020131Y002470D03*
X019631Y002470D03*
X019131Y002470D03*
X018631Y002470D03*
D25*
X018631Y007141D03*
X018631Y008322D03*
X022131Y008322D03*
X022131Y007141D03*
X022131Y014391D03*
X022131Y015572D03*
X018731Y015572D03*
X018731Y014391D03*
D26*
X020041Y014881D03*
X021222Y014881D03*
X021172Y007581D03*
X019991Y007581D03*
D27*
X006631Y016756D03*
X006631Y018607D03*
D28*
X012179Y010721D03*
X012494Y010721D03*
X012809Y010721D03*
X013124Y010721D03*
X013439Y010721D03*
X013754Y010721D03*
X014069Y010721D03*
X014384Y010721D03*
X014384Y007341D03*
X014069Y007341D03*
X013754Y007341D03*
X013439Y007341D03*
X013124Y007341D03*
X012809Y007341D03*
X012494Y007341D03*
X012179Y007341D03*
D29*
X011591Y007929D03*
X011591Y008244D03*
X011591Y008559D03*
X011591Y008874D03*
X011591Y009189D03*
X011591Y009504D03*
X011591Y009819D03*
X011591Y010134D03*
X014971Y010134D03*
X014971Y009819D03*
X014971Y009504D03*
X014971Y009189D03*
X014971Y008874D03*
X014971Y008559D03*
X014971Y008244D03*
X014971Y007929D03*
D30*
X014131Y003731D03*
X016031Y003731D03*
D31*
X012431Y003681D03*
X012431Y004681D03*
D32*
X003844Y017581D02*
X003019Y017581D01*
X003019Y019581D02*
X003844Y019581D01*
X005131Y026169D02*
X005131Y026994D01*
X007131Y026994D02*
X007131Y026169D01*
X009131Y026169D02*
X009131Y026994D01*
X011131Y026994D02*
X011131Y026169D01*
X013131Y026169D02*
X013131Y026994D01*
X015131Y026994D02*
X015131Y026169D01*
X018681Y026269D02*
X018681Y027094D01*
X020681Y027094D02*
X020681Y026269D01*
X025519Y010981D02*
X026344Y010981D01*
X026344Y008981D02*
X025519Y008981D01*
X025519Y006981D02*
X026344Y006981D01*
X026344Y004981D02*
X025519Y004981D01*
D33*
X012081Y017731D03*
X011081Y016731D03*
X010081Y017731D03*
D34*
X010531Y018681D02*
X010531Y018781D01*
X010531Y019031D01*
X010206Y019356D01*
X009681Y019881D01*
X006131Y019881D01*
X005881Y020131D01*
X005881Y021531D01*
X005891Y021541D01*
X005891Y021561D01*
X004981Y021561D02*
X004981Y021481D01*
X004981Y021561D02*
X004981Y023581D01*
X005281Y023881D01*
X005281Y023981D01*
X007131Y025831D01*
X007131Y024331D01*
X007192Y024270D01*
X007131Y024270D01*
X007131Y022892D02*
X007131Y022131D01*
X007081Y022081D01*
X007130Y022033D01*
X007131Y022033D01*
X005281Y023981D02*
X004981Y024001D01*
X007131Y025831D02*
X007131Y026581D01*
X006281Y028281D02*
X008681Y028281D01*
X009081Y027881D01*
X009081Y026581D01*
X009131Y026581D01*
X009131Y027631D01*
X009781Y028281D01*
X012681Y028281D01*
X013181Y027781D01*
X013181Y027581D01*
X013181Y026681D01*
X013081Y026581D01*
X013131Y026581D01*
X011581Y025381D02*
X011081Y025881D01*
X011081Y026581D01*
X011131Y026581D01*
X011131Y026231D01*
X009681Y024781D01*
X009681Y024001D01*
X009681Y021561D01*
X009681Y021481D01*
X010581Y021481D02*
X010591Y021491D01*
X010591Y021561D01*
X011541Y022141D02*
X011631Y022041D01*
X011581Y022081D02*
X011581Y022942D01*
X011541Y022141D02*
X011581Y022081D01*
X011581Y024320D02*
X011581Y025381D01*
X014081Y024781D02*
X014081Y024001D01*
X014081Y021561D01*
X014081Y021381D01*
X014981Y021531D02*
X014981Y018681D01*
X016131Y018683D01*
X013883Y018683D01*
X013831Y018631D01*
X014881Y018681D01*
X013331Y018681D01*
X012131Y018731D01*
X015183Y017580D02*
X015231Y017531D01*
X015183Y017580D02*
X016131Y017580D01*
X014981Y021531D02*
X014991Y021541D01*
X014991Y021561D01*
X015981Y022181D02*
X015981Y022892D01*
X015981Y022181D02*
X016022Y022141D01*
X016031Y022141D01*
X015981Y024270D02*
X015981Y024981D01*
X015131Y025831D01*
X014081Y024781D01*
X015131Y025831D02*
X015131Y026581D01*
X022781Y021581D02*
X023584Y020779D01*
X023692Y020779D01*
X023684Y020779D01*
X023681Y020781D01*
X024236Y021336D01*
X024236Y023831D01*
X024231Y023831D01*
X024181Y023881D01*
X024181Y024531D01*
X024581Y024931D01*
X024931Y024931D01*
X024181Y024681D02*
X024181Y024531D01*
X026566Y022966D02*
X027381Y023781D01*
X027337Y023826D01*
X027337Y023831D01*
X026566Y022966D02*
X026566Y019881D01*
X026566Y017897D01*
X026581Y017881D01*
X026533Y017833D01*
X026533Y017731D01*
X026533Y015630D01*
X027281Y014881D01*
X027237Y014837D01*
X027237Y014781D01*
X023181Y013581D02*
X022372Y014391D01*
X022172Y014391D01*
X026566Y019881D02*
X026581Y019881D01*
X022831Y021630D02*
X022830Y021630D01*
X022781Y021581D01*
X023181Y007181D02*
X022081Y007181D01*
X005131Y026581D02*
X005131Y027131D01*
X006281Y028281D01*
D35*
X018222Y015572D02*
X017606Y014956D01*
X017481Y014831D01*
X017481Y013981D01*
X017431Y013931D01*
X016481Y013931D01*
X016381Y013831D01*
X016381Y013841D01*
X016381Y013831D02*
X016331Y013781D01*
X016381Y012731D02*
X016381Y012722D01*
X016381Y011770D01*
X017431Y011770D02*
X017431Y012681D01*
X017481Y012731D01*
X017441Y012772D01*
X017431Y012722D01*
X017431Y013841D02*
X017431Y013931D01*
X018222Y015572D02*
X018731Y015572D01*
X021631Y013342D02*
X021631Y012731D01*
X022031Y012331D01*
X025431Y012331D01*
X025881Y011881D01*
X025881Y011081D01*
X025931Y011031D01*
X025931Y010981D01*
X025281Y009631D02*
X024931Y009631D01*
X024431Y010131D01*
X024431Y010831D01*
X023681Y011581D01*
X022181Y011581D01*
X021631Y011031D01*
X021631Y009720D01*
X020131Y009720D02*
X020131Y009681D01*
X019131Y009720D02*
X019131Y008831D01*
X018622Y008322D01*
X018631Y008322D01*
X018631Y008531D01*
X017981Y009181D01*
X017481Y009181D01*
X017481Y009141D01*
X016441Y009141D01*
X016381Y009131D01*
X016381Y009141D01*
X016381Y008022D02*
X016381Y006970D01*
X017431Y006970D02*
X017431Y007981D01*
X017481Y008031D01*
X017481Y008022D01*
X018581Y008281D02*
X018622Y008322D01*
X020131Y006131D02*
X020131Y006092D01*
X020131Y004281D01*
X019131Y004281D01*
X019131Y002470D01*
X019131Y001681D01*
X018931Y001481D01*
X016081Y001481D01*
X015431Y002131D01*
X015530Y002230D01*
X015530Y002231D01*
X014681Y002231D01*
X014633Y002183D01*
X014633Y002231D01*
X014633Y001833D01*
X014081Y001281D01*
X012681Y001281D01*
X012331Y001631D01*
X012331Y003281D01*
X011731Y002681D01*
X009931Y002681D01*
X012331Y003281D02*
X012331Y003581D01*
X014631Y002181D02*
X014633Y002183D01*
X020131Y002470D02*
X020131Y003631D01*
X020431Y003731D01*
X020131Y003631D02*
X020131Y004281D01*
X021631Y004181D02*
X021981Y004531D01*
X022981Y004531D01*
X023331Y004881D01*
X025831Y004881D01*
X025931Y004981D01*
X023981Y006331D02*
X024581Y006931D01*
X025931Y006931D01*
X025981Y006981D01*
X025931Y006981D01*
X023981Y006331D02*
X023531Y006331D01*
X023181Y006081D01*
X023031Y005631D01*
X022581Y005131D01*
X021881Y005131D01*
X021631Y005431D01*
X021631Y006092D01*
X022131Y006092D02*
X022131Y007131D01*
X022122Y007141D01*
X022131Y007141D01*
X022122Y007141D02*
X022081Y007181D01*
X021631Y004181D02*
X021631Y002470D01*
X022131Y002470D02*
X022131Y003731D01*
X023131Y002372D02*
X023131Y001881D01*
X022631Y001381D01*
X020831Y001381D01*
X020631Y001581D01*
X020631Y002470D01*
X020631Y002531D01*
X025931Y008981D02*
X025281Y009631D01*
X022131Y013342D02*
X022131Y014331D01*
X022181Y014381D01*
X022172Y014391D01*
X022131Y014391D01*
X024831Y014531D02*
X025181Y014181D01*
X025181Y016681D01*
X025181Y017681D01*
X025430Y017731D02*
X023692Y017731D01*
X023692Y018984D01*
D36*
X021081Y020481D03*
X024931Y024931D03*
X024631Y026231D03*
X017606Y014956D03*
X015081Y015081D03*
X020181Y012081D03*
X022081Y010781D03*
X023181Y013581D03*
X023181Y007181D03*
X022131Y003731D03*
X020431Y003731D03*
D37*
X010981Y012741D02*
X010631Y013031D01*
X010431Y012881D01*
X008231Y010681D01*
X008231Y010581D01*
X008081Y010331D01*
X007831Y010181D01*
X006981Y009331D01*
X007031Y009131D01*
X007031Y005781D01*
X005281Y004031D01*
X005281Y002381D01*
X005631Y002031D01*
X009281Y002031D01*
X009931Y002681D01*
X004271Y006251D02*
X004281Y006881D01*
X004281Y008181D01*
X004271Y008811D01*
X004581Y009031D01*
X005331Y009031D01*
X005581Y009320D01*
X005831Y009331D01*
X006981Y009331D01*
X010631Y013031D02*
X010631Y013731D01*
X009231Y015131D01*
X008681Y015331D01*
X008081Y015481D01*
X007331Y016231D01*
X006781Y016231D01*
X006631Y016756D01*
X006481Y017281D01*
X004931Y018831D01*
X005881Y019781D01*
X006131Y019881D01*
X004931Y018831D02*
X004031Y017931D01*
X003431Y017581D01*
X002881Y017181D01*
X002881Y015831D01*
X002581Y015531D01*
X002581Y014531D01*
X002531Y020531D02*
X002531Y023231D01*
X002820Y023481D01*
X010381Y021131D02*
X010381Y019531D01*
X010206Y019356D01*
X010381Y021131D02*
X010591Y021561D01*
X012081Y018731D02*
X012081Y017731D01*
X016031Y021022D02*
X016031Y021031D01*
X016981Y021031D01*
X017431Y021481D01*
X017431Y023481D01*
X018706Y024756D01*
X016081Y027381D01*
X016081Y027531D01*
X015581Y028031D01*
X014531Y028031D01*
X014081Y027581D01*
X013181Y027581D01*
X018706Y024756D02*
X019781Y025831D01*
X019781Y026681D01*
X020681Y026681D01*
X026181Y024681D02*
X026181Y024181D01*
X026681Y023681D01*
X027337Y023831D01*
X018681Y017981D02*
X018681Y015681D01*
X018731Y015572D01*
D38*
X015831Y016631D03*
X013381Y014181D03*
X012081Y012881D03*
X011381Y010981D03*
X012231Y010131D03*
X012181Y009531D03*
X012731Y008881D03*
X012581Y008181D03*
X013131Y006781D03*
X012331Y006131D03*
X010931Y007231D03*
X010981Y007831D03*
X009681Y009531D03*
X010381Y010081D03*
X009981Y011631D03*
X013131Y009831D03*
X013681Y009831D03*
X014331Y008781D03*
X015681Y008231D03*
X016881Y009781D03*
X016931Y010981D03*
X014781Y012231D03*
X014381Y011281D03*
X018081Y006581D03*
X018031Y005381D03*
X018631Y003231D03*
X019631Y003231D03*
X020681Y003231D03*
X020231Y008731D03*
X020681Y010481D03*
X019631Y010981D03*
X011531Y018031D03*
X011981Y020281D03*
X009181Y018131D03*
X008781Y020481D03*
X006131Y019231D03*
X002531Y020531D03*
X007331Y015431D03*
X005731Y014931D03*
X005381Y013231D03*
X004581Y013231D03*
X003981Y014531D03*
X006631Y011181D03*
X006481Y006031D03*
X004181Y003181D03*
X018681Y020931D03*
X018281Y021681D03*
X018331Y023231D03*
X019331Y023431D03*
X019981Y023031D03*
X020181Y021881D03*
X026181Y024681D03*
D39*
X012131Y018731D02*
X012081Y018731D01*
X010681Y018731D01*
X010681Y018781D01*
X010531Y018781D01*
D40*
X000726Y026593D02*
X000726Y002873D01*
X001000Y003274D01*
X001000Y003274D01*
X001391Y003586D01*
X001391Y003586D01*
X001858Y003769D01*
X001858Y003769D01*
X002357Y003807D01*
X002357Y003807D01*
X002845Y003695D01*
X002845Y003695D01*
X003279Y003445D01*
X003279Y003445D01*
X003619Y003078D01*
X003619Y003078D01*
X003837Y002627D01*
X003837Y002627D01*
X003911Y002131D01*
X003837Y001636D01*
X003837Y001636D01*
X003619Y001185D01*
X003619Y001185D01*
X003279Y000818D01*
X003279Y000818D01*
X003279Y000818D01*
X003011Y000663D01*
X025845Y000663D01*
X025500Y000939D01*
X025500Y000939D01*
X025218Y001352D01*
X025218Y001353D01*
X025070Y001831D01*
X025070Y001831D01*
X025070Y002332D01*
X025070Y002332D01*
X025218Y002810D01*
X025218Y002810D01*
X025500Y003224D01*
X025500Y003224D01*
X025891Y003536D01*
X025891Y003536D01*
X025904Y003541D01*
X023666Y003541D01*
X023666Y003102D01*
X023561Y002996D01*
X022702Y002996D01*
X022596Y003102D01*
X022596Y003881D01*
X022702Y003986D01*
X023349Y003986D01*
X023356Y003989D01*
X023365Y003997D01*
X023400Y004007D01*
X023434Y004021D01*
X023445Y004021D01*
X023456Y004025D01*
X023493Y004021D01*
X025882Y004021D01*
X026250Y004389D01*
X025401Y004389D01*
X025183Y004479D01*
X025121Y004541D01*
X023472Y004541D01*
X023174Y004243D01*
X023049Y004191D01*
X022914Y004191D01*
X022122Y004191D01*
X021971Y004041D01*
X021971Y003083D01*
X022131Y003083D01*
X022131Y002471D01*
X022132Y002471D01*
X022132Y003083D01*
X022324Y003083D01*
X022429Y002978D01*
X022429Y002471D01*
X022132Y002471D01*
X022132Y002470D01*
X022429Y002470D01*
X022429Y001963D01*
X022324Y001857D01*
X022132Y001857D01*
X022132Y002470D01*
X022131Y002470D01*
X022131Y001857D01*
X021939Y001857D01*
X021881Y001915D01*
X021824Y001857D01*
X021439Y001857D01*
X021381Y001915D01*
X021324Y001857D01*
X020971Y001857D01*
X020971Y001722D01*
X020972Y001721D01*
X022491Y001721D01*
X022674Y001905D01*
X022596Y001982D01*
X022596Y002761D01*
X022702Y002866D01*
X023561Y002866D01*
X023666Y002761D01*
X023666Y001982D01*
X023561Y001877D01*
X023471Y001877D01*
X023471Y001814D01*
X023420Y001689D01*
X022920Y001189D01*
X022824Y001093D01*
X022699Y001041D01*
X020899Y001041D01*
X020764Y001041D01*
X020639Y001093D01*
X020439Y001293D01*
X020439Y001293D01*
X020343Y001389D01*
X020291Y001514D01*
X020291Y001857D01*
X020132Y001857D01*
X020132Y002470D01*
X020131Y002470D01*
X020131Y001857D01*
X019939Y001857D01*
X019881Y001915D01*
X019824Y001857D01*
X019439Y001857D01*
X019381Y001915D01*
X019324Y001857D01*
X019132Y001857D01*
X019132Y002470D01*
X019131Y002470D01*
X019131Y001857D01*
X018939Y001857D01*
X018881Y001915D01*
X018824Y001857D01*
X018439Y001857D01*
X018333Y001963D01*
X018333Y002978D01*
X018340Y002985D01*
X018309Y003016D01*
X018251Y003156D01*
X018251Y003272D01*
X016406Y005117D01*
X016012Y005117D01*
X015906Y005223D01*
X015906Y005767D01*
X015428Y006245D01*
X015391Y006334D01*
X015391Y006429D01*
X015391Y006582D01*
X014674Y007300D01*
X014674Y007287D01*
X014681Y007271D01*
X014685Y007267D01*
X014701Y007228D01*
X014719Y007189D01*
X014719Y007184D01*
X014721Y007179D01*
X014721Y007136D01*
X014723Y007094D01*
X014721Y007089D01*
X014721Y005531D01*
X016061Y004191D01*
X016123Y004191D01*
X016292Y004121D01*
X016421Y003992D01*
X016491Y003823D01*
X016491Y003640D01*
X016439Y003513D01*
X016535Y003417D01*
X016571Y003329D01*
X016571Y003234D01*
X016571Y002766D01*
X017022Y002766D01*
X017128Y002660D01*
X017128Y001803D01*
X017022Y001697D01*
X016243Y001697D01*
X016138Y001803D01*
X016138Y002436D01*
X016128Y002445D01*
X016124Y002454D01*
X016118Y002461D01*
X016106Y002498D01*
X016091Y002534D01*
X016091Y002543D01*
X016089Y002552D01*
X016091Y002590D01*
X016091Y003182D01*
X016002Y003271D01*
X015940Y003271D01*
X015771Y003341D01*
X015641Y003471D01*
X015571Y003640D01*
X015571Y003823D01*
X015624Y003950D01*
X014345Y005228D01*
X014345Y005228D01*
X014321Y005252D01*
X014321Y004151D01*
X014392Y004121D01*
X014521Y003992D01*
X014591Y003823D01*
X014591Y003640D01*
X014521Y003471D01*
X014392Y003341D01*
X014223Y003271D01*
X014161Y003271D01*
X014071Y003182D01*
X014071Y002590D01*
X014074Y002552D01*
X014071Y002543D01*
X014071Y002534D01*
X014057Y002498D01*
X014044Y002461D01*
X014038Y002454D01*
X014035Y002445D01*
X014025Y002436D01*
X014025Y001803D01*
X013920Y001697D01*
X013141Y001697D01*
X013035Y001803D01*
X013035Y002660D01*
X013141Y002766D01*
X013591Y002766D01*
X013591Y003234D01*
X013591Y003329D01*
X013628Y003417D01*
X013724Y003513D01*
X013671Y003640D01*
X013671Y003823D01*
X013741Y003992D01*
X013841Y004092D01*
X013841Y006911D01*
X013641Y006911D01*
X013635Y006895D01*
X013511Y006772D01*
X013511Y006706D01*
X013454Y006566D01*
X013347Y006459D01*
X013207Y006401D01*
X013056Y006401D01*
X013021Y006416D01*
X013021Y005984D01*
X012985Y005895D01*
X012917Y005828D01*
X012871Y005782D01*
X012871Y004929D01*
X012871Y004834D01*
X012861Y004809D01*
X012861Y004357D01*
X012761Y004257D01*
X012761Y004106D01*
X012861Y004006D01*
X012861Y003726D01*
X012477Y003726D01*
X012477Y003636D01*
X012861Y003636D01*
X012861Y003357D01*
X012756Y003251D01*
X012476Y003251D01*
X012476Y003636D01*
X012386Y003636D01*
X012386Y003251D01*
X012107Y003251D01*
X012001Y003357D01*
X012001Y003636D01*
X012386Y003636D01*
X012386Y003726D01*
X012001Y003726D01*
X012001Y004006D01*
X012101Y004106D01*
X012101Y004257D01*
X012001Y004357D01*
X012001Y005006D01*
X012107Y005111D01*
X012391Y005111D01*
X012391Y005751D01*
X012256Y005751D01*
X012186Y005780D01*
X012186Y005302D01*
X012081Y005196D01*
X011321Y005196D01*
X011321Y004179D01*
X011321Y004084D01*
X011285Y003995D01*
X010335Y003045D01*
X010290Y003001D01*
X010411Y002880D01*
X010411Y002691D01*
X009942Y002691D01*
X009942Y002671D01*
X010411Y002671D01*
X010411Y002483D01*
X010130Y002201D01*
X009941Y002201D01*
X009941Y002671D01*
X009921Y002671D01*
X009921Y002201D01*
X009733Y002201D01*
X009451Y002483D01*
X009451Y002671D01*
X009921Y002671D01*
X009921Y002691D01*
X009451Y002691D01*
X009451Y002762D01*
X009411Y002722D01*
X009411Y002483D01*
X009130Y002201D01*
X008733Y002201D01*
X008451Y002483D01*
X008451Y002880D01*
X008733Y003161D01*
X009130Y003161D01*
X009151Y003140D01*
X009395Y003385D01*
X009484Y003421D01*
X009513Y003421D01*
X009451Y003483D01*
X009451Y003880D01*
X009733Y004161D01*
X009972Y004161D01*
X010041Y004231D01*
X010041Y005370D01*
X010038Y005407D01*
X010041Y005418D01*
X010041Y005429D01*
X010055Y005463D01*
X010066Y005498D01*
X010074Y005507D01*
X010077Y005514D01*
X010077Y005997D01*
X008222Y007851D01*
X007883Y007851D01*
X007601Y008133D01*
X007601Y008530D01*
X007883Y008811D01*
X008280Y008811D01*
X008561Y008530D01*
X008561Y008191D01*
X008601Y008151D01*
X008601Y008530D01*
X008663Y008591D01*
X008634Y008591D01*
X008545Y008628D01*
X008301Y008872D01*
X008280Y008851D01*
X007883Y008851D01*
X007601Y009133D01*
X007601Y009530D01*
X007883Y009811D01*
X008280Y009811D01*
X008561Y009530D01*
X008561Y009291D01*
X008601Y009251D01*
X008601Y009530D01*
X008883Y009811D01*
X009280Y009811D01*
X009355Y009736D01*
X009359Y009747D01*
X009466Y009854D01*
X009539Y009884D01*
X009426Y009997D01*
X009280Y009851D01*
X008883Y009851D01*
X008601Y010133D01*
X008601Y010530D01*
X008883Y010811D01*
X009280Y010811D01*
X009449Y010642D01*
X009467Y010635D01*
X009468Y010634D01*
X009470Y010633D01*
X009502Y010601D01*
X010001Y010101D01*
X010001Y010157D01*
X010059Y010297D01*
X010166Y010404D01*
X010306Y010461D01*
X010457Y010461D01*
X010597Y010404D01*
X010704Y010297D01*
X010761Y010157D01*
X010761Y010041D01*
X010958Y009845D01*
X010941Y009884D01*
X010941Y010734D01*
X010941Y010829D01*
X010978Y010917D01*
X011001Y010941D01*
X011001Y011057D01*
X011030Y011127D01*
X010552Y011127D01*
X010446Y011232D01*
X010446Y011757D01*
X010361Y011672D01*
X010361Y011556D01*
X010304Y011416D01*
X010197Y011309D01*
X010057Y011251D01*
X009906Y011251D01*
X009766Y011309D01*
X009659Y011416D01*
X009601Y011556D01*
X009601Y011707D01*
X009659Y011847D01*
X009766Y011954D01*
X009906Y012011D01*
X010022Y012011D01*
X010345Y012335D01*
X010434Y012371D01*
X010446Y012371D01*
X010446Y012664D01*
X010904Y012664D01*
X010904Y012819D01*
X010904Y013236D01*
X010552Y013236D01*
X010446Y013131D01*
X010446Y012819D01*
X010904Y012819D01*
X011059Y012819D01*
X011059Y013236D01*
X011387Y013236D01*
X010428Y014195D01*
X010391Y014284D01*
X010391Y014379D01*
X010391Y016884D01*
X010391Y016979D01*
X010428Y017067D01*
X011200Y017839D01*
X011151Y017956D01*
X011151Y018107D01*
X011209Y018247D01*
X011316Y018354D01*
X011456Y018411D01*
X011607Y018411D01*
X011747Y018354D01*
X011854Y018247D01*
X011881Y018181D01*
X011891Y018191D01*
X012081Y018191D01*
X012081Y017732D01*
X012082Y017732D01*
X012082Y018191D01*
X012272Y018191D01*
X012541Y017922D01*
X012541Y017853D01*
X012588Y017965D01*
X012728Y018105D01*
X012912Y018181D01*
X013751Y018181D01*
X013935Y018105D01*
X014075Y017965D01*
X014093Y017921D01*
X014120Y017921D01*
X014138Y017965D01*
X014278Y018105D01*
X014441Y018173D01*
X014441Y018190D01*
X014278Y018258D01*
X014138Y018398D01*
X014106Y018473D01*
X014075Y018398D01*
X013935Y018258D01*
X013751Y018181D01*
X013351Y018181D01*
X013351Y018661D01*
X013311Y018661D01*
X013311Y018181D01*
X012912Y018181D01*
X012728Y018258D01*
X012588Y018398D01*
X012511Y018582D01*
X012511Y018661D01*
X013311Y018661D01*
X013311Y018701D01*
X012511Y018701D01*
X012511Y018781D01*
X012588Y018965D01*
X012728Y019105D01*
X012912Y019181D01*
X013311Y019181D01*
X013311Y018702D01*
X013351Y018702D01*
X013351Y019181D01*
X013751Y019181D01*
X013935Y019105D01*
X014075Y018965D01*
X014106Y018889D01*
X014138Y018965D01*
X014278Y019105D01*
X014462Y019181D01*
X014861Y019181D01*
X014861Y018702D01*
X014901Y018702D01*
X014901Y019181D01*
X015301Y019181D01*
X015485Y019105D01*
X015597Y018993D01*
X015597Y019072D01*
X015703Y019178D01*
X016054Y019178D01*
X016054Y018760D01*
X016209Y018760D01*
X016666Y018760D01*
X016666Y019072D01*
X016560Y019178D01*
X016209Y019178D01*
X016209Y018760D01*
X016209Y018605D01*
X016666Y018605D01*
X016666Y018421D01*
X017190Y018421D01*
X017258Y018585D01*
X017398Y018725D01*
X017441Y018743D01*
X017441Y019729D01*
X017478Y019817D01*
X017545Y019885D01*
X017634Y019921D01*
X017729Y019921D01*
X019421Y019921D01*
X019421Y021083D01*
X019030Y021083D01*
X019061Y021007D01*
X019061Y020856D01*
X019004Y020716D01*
X018897Y020609D01*
X018757Y020551D01*
X018606Y020551D01*
X018466Y020609D01*
X018359Y020716D01*
X018301Y020856D01*
X018301Y021007D01*
X018359Y021147D01*
X018398Y021185D01*
X018395Y021189D01*
X018395Y021317D01*
X018357Y021301D01*
X018206Y021301D01*
X018066Y021359D01*
X017959Y021466D01*
X017901Y021606D01*
X017901Y021757D01*
X017959Y021897D01*
X018066Y022004D01*
X018206Y022061D01*
X018357Y022061D01*
X018395Y022046D01*
X018395Y022074D01*
X018452Y022131D01*
X018395Y022189D01*
X018395Y022574D01*
X018452Y022631D01*
X018395Y022689D01*
X018395Y022827D01*
X018392Y022831D01*
X018372Y022851D01*
X018256Y022851D01*
X018116Y022909D01*
X018009Y023016D01*
X017951Y023156D01*
X017951Y023307D01*
X018009Y023447D01*
X018116Y023554D01*
X018256Y023611D01*
X018407Y023611D01*
X018547Y023554D01*
X018654Y023447D01*
X018711Y023307D01*
X018711Y023197D01*
X018788Y023179D01*
X019046Y023179D01*
X019009Y023216D01*
X018951Y023356D01*
X018951Y023507D01*
X019009Y023647D01*
X019116Y023754D01*
X019256Y023811D01*
X019372Y023811D01*
X021878Y026317D01*
X021945Y026385D01*
X022034Y026421D01*
X022296Y026421D01*
X022296Y026481D01*
X022402Y026586D01*
X023261Y026586D01*
X023366Y026481D01*
X023366Y025702D01*
X023261Y025596D01*
X022402Y025596D01*
X022296Y025702D01*
X022296Y025941D01*
X022181Y025941D01*
X019711Y023472D01*
X019711Y023356D01*
X019671Y023258D01*
X019766Y023354D01*
X019906Y023411D01*
X020057Y023411D01*
X020197Y023354D01*
X020304Y023247D01*
X020359Y023112D01*
X020430Y023141D01*
X020509Y023141D01*
X020547Y023179D01*
X021563Y023179D01*
X021668Y023074D01*
X021668Y022821D01*
X021791Y022821D01*
X021791Y023384D01*
X021791Y023479D01*
X021828Y023567D01*
X021941Y023681D01*
X021941Y024134D01*
X021941Y024229D01*
X021978Y024317D01*
X022296Y024636D01*
X022296Y025361D01*
X022402Y025466D01*
X023261Y025466D01*
X023366Y025361D01*
X023366Y024582D01*
X023261Y024477D01*
X023071Y024477D01*
X023071Y024184D01*
X023035Y024095D01*
X022967Y024028D01*
X022421Y023482D01*
X022421Y023228D01*
X022754Y023228D01*
X022754Y022810D01*
X022909Y022810D01*
X023366Y022810D01*
X023366Y023122D01*
X023260Y023228D01*
X022909Y023228D01*
X022909Y022810D01*
X022909Y022655D01*
X023366Y022655D01*
X023366Y022343D01*
X023260Y022238D01*
X022909Y022238D01*
X022909Y022655D01*
X022754Y022655D01*
X022754Y022238D01*
X022421Y022238D01*
X022421Y022125D01*
X023260Y022125D01*
X023366Y022020D01*
X023366Y021641D01*
X023631Y021375D01*
X023781Y021525D01*
X023781Y023396D01*
X023453Y023396D01*
X023347Y023501D01*
X023347Y024162D01*
X023453Y024267D01*
X023726Y024267D01*
X023726Y024441D01*
X023726Y024622D01*
X023726Y024772D01*
X023796Y024939D01*
X023924Y025067D01*
X024091Y025136D01*
X024143Y025136D01*
X024324Y025317D01*
X024491Y025386D01*
X024672Y025386D01*
X025022Y025386D01*
X025189Y025317D01*
X025317Y025189D01*
X025386Y025022D01*
X025386Y024841D01*
X025317Y024674D01*
X025189Y024546D01*
X025022Y024476D01*
X024770Y024476D01*
X024636Y024343D01*
X024636Y024267D01*
X025019Y024267D01*
X025125Y024162D01*
X025125Y023501D01*
X025019Y023396D01*
X024691Y023396D01*
X024691Y021427D01*
X024691Y021246D01*
X024622Y021078D01*
X024187Y020643D01*
X024187Y020508D01*
X024081Y020402D01*
X023958Y020402D01*
X023949Y020393D01*
X023782Y020324D01*
X023674Y020324D01*
X023493Y020324D01*
X023326Y020393D01*
X023317Y020402D01*
X023302Y020402D01*
X023197Y020508D01*
X023197Y020523D01*
X022584Y021135D01*
X022421Y021135D01*
X022421Y018781D01*
X022454Y018748D01*
X022582Y018801D01*
X022781Y018801D01*
X022965Y018725D01*
X023105Y018585D01*
X023181Y018401D01*
X023181Y017562D01*
X023105Y017378D01*
X022965Y017238D01*
X022781Y017161D01*
X022582Y017161D01*
X022398Y017238D01*
X022258Y017378D01*
X022181Y017562D01*
X022181Y018342D01*
X022181Y018342D01*
X022181Y017562D01*
X022105Y017378D01*
X021965Y017238D01*
X021781Y017161D01*
X021582Y017161D01*
X021398Y017238D01*
X021258Y017378D01*
X021181Y017562D01*
X021181Y018401D01*
X021105Y018585D01*
X020965Y018725D01*
X020781Y018801D01*
X020582Y018801D01*
X020421Y018735D01*
X020421Y019134D01*
X020421Y019229D01*
X020385Y019317D01*
X019941Y019761D01*
X019941Y021584D01*
X019966Y021559D01*
X020106Y021501D01*
X020257Y021501D01*
X020397Y021559D01*
X020479Y021641D01*
X020489Y021641D01*
X020499Y021631D01*
X020442Y021574D01*
X020442Y021382D01*
X021055Y021382D01*
X021055Y021381D01*
X021055Y021083D01*
X021563Y021083D01*
X021621Y021142D01*
X021621Y019105D01*
X021565Y018794D01*
X021398Y018725D01*
X021258Y018585D01*
X021181Y018401D01*
X021181Y017562D01*
X021105Y017378D01*
X020965Y017238D01*
X020781Y017161D01*
X020582Y017161D01*
X020421Y017228D01*
X020421Y016921D01*
X024841Y016921D01*
X024841Y017391D01*
X023624Y017391D01*
X023499Y017443D01*
X023403Y017539D01*
X023352Y017664D01*
X023352Y017799D01*
X023352Y018607D01*
X023302Y018607D01*
X023197Y018712D01*
X023197Y019255D01*
X023302Y019361D01*
X024081Y019361D01*
X024187Y019255D01*
X024187Y018712D01*
X024081Y018607D01*
X024032Y018607D01*
X024032Y018071D01*
X024935Y018071D01*
X024935Y018160D01*
X025041Y018266D01*
X025820Y018266D01*
X025925Y018160D01*
X025925Y017303D01*
X025820Y017197D01*
X025521Y017197D01*
X025521Y016614D01*
X025521Y014249D01*
X025521Y014181D01*
X027135Y012567D01*
X027171Y012479D01*
X027171Y012384D01*
X027171Y008634D01*
X027135Y008545D01*
X027067Y008478D01*
X027067Y008478D01*
X026546Y007956D01*
X027135Y007367D01*
X027171Y007279D01*
X027171Y007184D01*
X027171Y004684D01*
X027135Y004595D01*
X027067Y004528D01*
X026195Y003655D01*
X026358Y003719D01*
X026358Y003719D01*
X026857Y003757D01*
X026857Y003757D01*
X027345Y003645D01*
X027345Y003645D01*
X027779Y003395D01*
X028119Y003028D01*
X028119Y003028D01*
X028136Y002992D01*
X028136Y023412D01*
X028120Y023396D01*
X027384Y023396D01*
X027384Y023783D01*
X027289Y023783D01*
X027289Y023396D01*
X026553Y023396D01*
X026448Y023501D01*
X026448Y023783D01*
X027288Y023783D01*
X027288Y023879D01*
X026448Y023879D01*
X026448Y024162D01*
X026553Y024267D01*
X027289Y024267D01*
X027289Y023880D01*
X027384Y023880D01*
X027384Y024267D01*
X028120Y024267D01*
X028136Y024251D01*
X028136Y026774D01*
X028069Y026635D01*
X028069Y026635D01*
X027729Y026268D01*
X027729Y026268D01*
X027729Y026268D01*
X027295Y026018D01*
X027295Y026018D01*
X026807Y025906D01*
X026807Y025906D01*
X026308Y025944D01*
X026308Y025944D01*
X025841Y026126D01*
X025841Y026126D01*
X025450Y026439D01*
X025450Y026439D01*
X025168Y026852D01*
X025168Y026853D01*
X025020Y027331D01*
X025020Y027331D01*
X025020Y027832D01*
X025020Y027832D01*
X025168Y028310D01*
X025168Y028310D01*
X025450Y028724D01*
X025450Y028724D01*
X025841Y029036D01*
X025841Y029036D01*
X024661Y029036D01*
X025339Y028561D02*
X013046Y028561D01*
X012939Y028667D02*
X012772Y028736D01*
X012591Y028736D01*
X009691Y028736D01*
X009524Y028667D01*
X009396Y028539D01*
X009231Y028375D01*
X008939Y028667D01*
X008772Y028736D01*
X008591Y028736D01*
X006191Y028736D01*
X006024Y028667D01*
X005896Y028539D01*
X004893Y027536D01*
X004796Y027496D01*
X004629Y027330D01*
X004539Y027112D01*
X004539Y026307D01*
X003274Y025041D01*
X003086Y025041D01*
X003086Y025211D01*
X002981Y025316D01*
X002202Y025316D01*
X002096Y025211D01*
X002096Y024352D01*
X002202Y024246D01*
X002981Y024246D01*
X003086Y024352D01*
X003086Y024521D01*
X003330Y024521D01*
X003433Y024521D01*
X003529Y024561D01*
X004715Y025747D01*
X004796Y025667D01*
X005014Y025576D01*
X005249Y025576D01*
X005467Y025667D01*
X005634Y025833D01*
X005724Y026051D01*
X005724Y027080D01*
X006470Y027826D01*
X008493Y027826D01*
X008626Y027693D01*
X008626Y027323D01*
X008539Y027112D01*
X008539Y026407D01*
X007761Y025629D01*
X007721Y025533D01*
X007721Y025430D01*
X007721Y021489D01*
X007629Y021396D01*
X007600Y021425D01*
X006663Y021425D01*
X006558Y021320D01*
X006558Y020541D01*
X006663Y020435D01*
X007600Y020435D01*
X007705Y020541D01*
X007705Y020737D01*
X008129Y021161D01*
X008202Y021234D01*
X008241Y021330D01*
X008241Y025374D01*
X008665Y025797D01*
X008796Y025667D01*
X009014Y025576D01*
X009249Y025576D01*
X009467Y025667D01*
X009634Y025833D01*
X009724Y026051D01*
X009724Y027112D01*
X009634Y027330D01*
X009586Y027377D01*
X009586Y027443D01*
X009970Y027826D01*
X012493Y027826D01*
X012726Y027593D01*
X012726Y027427D01*
X012629Y027330D01*
X012539Y027112D01*
X012539Y026407D01*
X012161Y026029D01*
X012121Y025933D01*
X012121Y025830D01*
X012121Y022476D01*
X012061Y022536D01*
X012121Y022536D01*
X012061Y022536D02*
X012036Y022536D01*
X012036Y022552D01*
X012057Y022573D01*
X012057Y023312D01*
X011951Y023418D01*
X011212Y023418D01*
X011106Y023312D01*
X011106Y022573D01*
X011126Y022552D01*
X011126Y022461D01*
X011096Y022431D01*
X011096Y022266D01*
X011092Y022255D01*
X011089Y022197D01*
X011077Y022140D01*
X011084Y022108D01*
X011082Y022074D01*
X011096Y022034D01*
X011096Y021652D01*
X011202Y021546D01*
X012061Y021546D01*
X012121Y021607D01*
X012121Y021356D01*
X012061Y021416D01*
X011202Y021416D01*
X011096Y021311D01*
X011096Y020532D01*
X011202Y020427D01*
X011630Y020427D01*
X011601Y020357D01*
X011601Y020206D01*
X011659Y020066D01*
X011766Y019959D01*
X011906Y019901D01*
X012057Y019901D01*
X012197Y019959D01*
X012304Y020066D01*
X012361Y020206D01*
X012361Y020322D01*
X012981Y020941D01*
X013486Y020941D01*
X013591Y021047D01*
X013591Y022076D01*
X013486Y022181D01*
X012857Y022181D01*
X012752Y022076D01*
X012752Y021391D01*
X012641Y021281D01*
X012641Y025774D01*
X012665Y025797D01*
X012796Y025667D01*
X013014Y025576D01*
X013249Y025576D01*
X013467Y025667D01*
X013634Y025833D01*
X013724Y026051D01*
X013724Y027112D01*
X013707Y027151D01*
X014167Y027151D01*
X014325Y027217D01*
X014446Y027338D01*
X014709Y027601D01*
X015403Y027601D01*
X015651Y027353D01*
X015651Y027296D01*
X015717Y027138D01*
X018098Y024756D01*
X016436Y024756D01*
X016436Y024660D02*
X016436Y024891D01*
X016436Y025072D01*
X016367Y025239D01*
X015674Y025932D01*
X015724Y026051D01*
X015724Y027112D01*
X015634Y027330D01*
X015467Y027496D01*
X015249Y027586D01*
X015014Y027586D01*
X014796Y027496D01*
X014629Y027330D01*
X014539Y027112D01*
X014539Y026051D01*
X014588Y025932D01*
X013824Y025167D01*
X013696Y025039D01*
X013626Y024872D01*
X013626Y024615D01*
X013298Y024615D01*
X013193Y024509D01*
X013193Y023494D01*
X013298Y023388D01*
X013626Y023388D01*
X013626Y021471D01*
X013626Y021291D01*
X013661Y021206D01*
X013661Y021047D01*
X013767Y020941D01*
X013955Y020941D01*
X013991Y020926D01*
X014172Y020926D01*
X014208Y020941D01*
X014396Y020941D01*
X014501Y021047D01*
X014501Y021206D01*
X014536Y021291D01*
X014536Y021471D01*
X014536Y023388D01*
X014865Y023388D01*
X014970Y023494D01*
X014970Y024509D01*
X014865Y024615D01*
X014558Y024615D01*
X015131Y025188D01*
X015526Y024793D01*
X015526Y024660D01*
X015506Y024640D01*
X015506Y023901D01*
X015612Y023795D01*
X016351Y023795D01*
X016457Y023901D01*
X016457Y024640D01*
X016436Y024660D01*
X016457Y024597D02*
X017939Y024597D01*
X017780Y024439D02*
X016457Y024439D01*
X016457Y024280D02*
X017622Y024280D01*
X017463Y024121D02*
X016457Y024121D01*
X016457Y023963D02*
X017305Y023963D01*
X017146Y023804D02*
X016360Y023804D01*
X016351Y023368D02*
X015612Y023368D01*
X015506Y023262D01*
X015506Y022540D01*
X015496Y022531D01*
X015496Y021752D01*
X015602Y021646D01*
X016461Y021646D01*
X016566Y021752D01*
X016566Y022531D01*
X016461Y022636D01*
X016457Y022636D01*
X016457Y023262D01*
X016351Y023368D01*
X016390Y023329D02*
X017001Y023329D01*
X017001Y023396D02*
X017001Y021659D01*
X016803Y021461D01*
X016516Y021461D01*
X016461Y021516D01*
X015602Y021516D01*
X015496Y021411D01*
X015496Y020632D01*
X015602Y020527D01*
X016461Y020527D01*
X016536Y020601D01*
X016896Y020601D01*
X017067Y020601D01*
X017225Y020667D01*
X017675Y021117D01*
X017796Y021238D01*
X017861Y021396D01*
X017861Y023303D01*
X019071Y024513D01*
X020025Y025467D01*
X020146Y025588D01*
X020211Y025746D01*
X020211Y025901D01*
X020346Y025767D01*
X020564Y025676D01*
X020799Y025676D01*
X021017Y025767D01*
X021184Y025933D01*
X021274Y026151D01*
X021274Y027212D01*
X021184Y027430D01*
X021017Y027596D01*
X020799Y027686D01*
X020564Y027686D01*
X020346Y027596D01*
X020179Y027430D01*
X020089Y027212D01*
X020089Y027111D01*
X019867Y027111D01*
X019696Y027111D01*
X019538Y027046D01*
X019417Y026925D01*
X019351Y026767D01*
X019351Y026009D01*
X018706Y025364D01*
X016511Y027559D01*
X016511Y027617D01*
X016446Y027775D01*
X015946Y028275D01*
X015825Y028396D01*
X015667Y028461D01*
X014617Y028461D01*
X014446Y028461D01*
X014288Y028396D01*
X013903Y028011D01*
X013579Y028011D01*
X013567Y028039D01*
X013439Y028167D01*
X012939Y028667D01*
X012813Y028719D02*
X025447Y028719D01*
X025450Y028724D02*
X025450Y028724D01*
X025643Y028878D02*
X003035Y028878D01*
X002896Y028958D02*
X025852Y029041D01*
X025841Y029036D01*
X025230Y028402D02*
X015810Y028402D01*
X015977Y028244D02*
X025147Y028244D01*
X025098Y028085D02*
X016136Y028085D01*
X016294Y027926D02*
X025049Y027926D01*
X025020Y027768D02*
X016449Y027768D01*
X016511Y027609D02*
X018378Y027609D01*
X018346Y027596D02*
X018179Y027430D01*
X018089Y027212D01*
X018089Y026739D01*
X018624Y026739D01*
X018624Y027686D01*
X018564Y027686D01*
X018346Y027596D01*
X018200Y027451D02*
X016620Y027451D01*
X016779Y027292D02*
X018122Y027292D01*
X018089Y027134D02*
X016937Y027134D01*
X017096Y026975D02*
X018089Y026975D01*
X018089Y026817D02*
X017254Y026817D01*
X017413Y026658D02*
X018624Y026658D01*
X018624Y026624D02*
X018089Y026624D01*
X018089Y026151D01*
X018179Y025933D01*
X018346Y025767D01*
X018564Y025676D01*
X018624Y025676D01*
X018624Y026624D01*
X018624Y026739D01*
X018739Y026739D01*
X018739Y027686D01*
X018799Y027686D01*
X019017Y027596D01*
X019184Y027430D01*
X019274Y027212D01*
X019274Y026739D01*
X018739Y026739D01*
X018739Y026624D01*
X019274Y026624D01*
X019274Y026151D01*
X019184Y025933D01*
X019017Y025767D01*
X018799Y025676D01*
X018739Y025676D01*
X018739Y026624D01*
X018624Y026624D01*
X018739Y026658D02*
X019351Y026658D01*
X019351Y026500D02*
X019274Y026500D01*
X019274Y026341D02*
X019351Y026341D01*
X019351Y026183D02*
X019274Y026183D01*
X019221Y026024D02*
X019351Y026024D01*
X019207Y025865D02*
X019116Y025865D01*
X019049Y025707D02*
X018873Y025707D01*
X018739Y025707D02*
X018624Y025707D01*
X018490Y025707D02*
X018364Y025707D01*
X018247Y025865D02*
X018205Y025865D01*
X018141Y026024D02*
X018047Y026024D01*
X018089Y026183D02*
X017888Y026183D01*
X017730Y026341D02*
X018089Y026341D01*
X018089Y026500D02*
X017571Y026500D01*
X016989Y025865D02*
X015741Y025865D01*
X015713Y026024D02*
X016831Y026024D01*
X016672Y026183D02*
X015724Y026183D01*
X015724Y026341D02*
X016514Y026341D01*
X016355Y026500D02*
X015724Y026500D01*
X015724Y026658D02*
X016197Y026658D01*
X016038Y026817D02*
X015724Y026817D01*
X015724Y026975D02*
X015879Y026975D01*
X015721Y027134D02*
X015715Y027134D01*
X015653Y027292D02*
X015649Y027292D01*
X015554Y027451D02*
X015512Y027451D01*
X014750Y027451D02*
X014559Y027451D01*
X014446Y027338D02*
X014446Y027338D01*
X014400Y027292D02*
X014614Y027292D01*
X014548Y027134D02*
X013715Y027134D01*
X013724Y026975D02*
X014539Y026975D01*
X014539Y026817D02*
X013724Y026817D01*
X013724Y026658D02*
X014539Y026658D01*
X014539Y026500D02*
X013724Y026500D01*
X013724Y026341D02*
X014539Y026341D01*
X014539Y026183D02*
X013724Y026183D01*
X013713Y026024D02*
X014550Y026024D01*
X014522Y025865D02*
X013647Y025865D01*
X013507Y025707D02*
X014363Y025707D01*
X014205Y025548D02*
X012641Y025548D01*
X012641Y025390D02*
X014046Y025390D01*
X013888Y025231D02*
X012641Y025231D01*
X012641Y025073D02*
X013729Y025073D01*
X013644Y024914D02*
X012641Y024914D01*
X012641Y024756D02*
X013626Y024756D01*
X013281Y024597D02*
X012641Y024597D01*
X012641Y024439D02*
X013193Y024439D01*
X013193Y024280D02*
X012641Y024280D01*
X012641Y024121D02*
X013193Y024121D01*
X013193Y023963D02*
X012641Y023963D01*
X012641Y023804D02*
X013193Y023804D01*
X013193Y023646D02*
X012641Y023646D01*
X012641Y023487D02*
X013199Y023487D01*
X013626Y023329D02*
X012641Y023329D01*
X012641Y023170D02*
X013626Y023170D01*
X013626Y023012D02*
X012641Y023012D01*
X012641Y022853D02*
X013626Y022853D01*
X013626Y022695D02*
X012641Y022695D01*
X012641Y022536D02*
X013626Y022536D01*
X013626Y022377D02*
X012641Y022377D01*
X012641Y022219D02*
X013626Y022219D01*
X013626Y022060D02*
X013591Y022060D01*
X013591Y021902D02*
X013626Y021902D01*
X013626Y021743D02*
X013591Y021743D01*
X013591Y021585D02*
X013626Y021585D01*
X013626Y021426D02*
X013591Y021426D01*
X013591Y021268D02*
X013636Y021268D01*
X013661Y021109D02*
X013591Y021109D01*
X013495Y020951D02*
X013758Y020951D01*
X014405Y020951D02*
X014668Y020951D01*
X014677Y020941D02*
X014951Y020941D01*
X014951Y021521D01*
X015031Y021521D01*
X015031Y020941D01*
X015306Y020941D01*
X015411Y021047D01*
X015411Y021521D01*
X015031Y021521D01*
X015031Y021601D01*
X015411Y021601D01*
X015411Y022076D01*
X015306Y022181D01*
X015031Y022181D01*
X015031Y021602D01*
X014951Y021602D01*
X014951Y022181D01*
X014677Y022181D01*
X014571Y022076D01*
X014571Y021601D01*
X014951Y021601D01*
X014951Y021521D01*
X014571Y021521D01*
X014571Y021047D01*
X014677Y020941D01*
X014571Y021109D02*
X014501Y021109D01*
X014527Y021268D02*
X014571Y021268D01*
X014571Y021426D02*
X014536Y021426D01*
X014536Y021585D02*
X014951Y021585D01*
X015031Y021585D02*
X016927Y021585D01*
X017001Y021743D02*
X016558Y021743D01*
X016566Y021902D02*
X017001Y021902D01*
X017001Y022060D02*
X016566Y022060D01*
X016566Y022219D02*
X017001Y022219D01*
X017001Y022377D02*
X016566Y022377D01*
X016561Y022536D02*
X017001Y022536D01*
X017001Y022695D02*
X016457Y022695D01*
X016457Y022853D02*
X017001Y022853D01*
X017001Y023012D02*
X016457Y023012D01*
X016457Y023170D02*
X017001Y023170D01*
X017001Y023396D02*
X017001Y023567D01*
X017067Y023725D01*
X018098Y024756D01*
X017941Y024914D02*
X016436Y024914D01*
X016436Y025073D02*
X017782Y025073D01*
X017623Y025231D02*
X016370Y025231D01*
X016216Y025390D02*
X017465Y025390D01*
X017306Y025548D02*
X016058Y025548D01*
X015899Y025707D02*
X017148Y025707D01*
X018523Y025548D02*
X018890Y025548D01*
X018732Y025390D02*
X018681Y025390D01*
X018624Y025865D02*
X018739Y025865D01*
X018739Y026024D02*
X018624Y026024D01*
X018624Y026183D02*
X018739Y026183D01*
X018739Y026341D02*
X018624Y026341D01*
X018624Y026500D02*
X018739Y026500D01*
X018739Y026817D02*
X018624Y026817D01*
X018624Y026975D02*
X018739Y026975D01*
X018739Y027134D02*
X018624Y027134D01*
X018624Y027292D02*
X018739Y027292D01*
X018739Y027451D02*
X018624Y027451D01*
X018624Y027609D02*
X018739Y027609D01*
X018985Y027609D02*
X020378Y027609D01*
X020200Y027451D02*
X019162Y027451D01*
X019241Y027292D02*
X020122Y027292D01*
X020089Y027134D02*
X019274Y027134D01*
X019274Y026975D02*
X019467Y026975D01*
X019372Y026817D02*
X019274Y026817D01*
X020195Y025707D02*
X020490Y025707D01*
X020247Y025865D02*
X020211Y025865D01*
X020106Y025548D02*
X021109Y025548D01*
X020950Y025390D02*
X019948Y025390D01*
X019789Y025231D02*
X020792Y025231D01*
X020633Y025073D02*
X019631Y025073D01*
X019472Y024914D02*
X020475Y024914D01*
X020316Y024756D02*
X019314Y024756D01*
X019155Y024597D02*
X020158Y024597D01*
X019999Y024439D02*
X018997Y024439D01*
X018838Y024280D02*
X019841Y024280D01*
X019682Y024121D02*
X018680Y024121D01*
X018521Y023963D02*
X019524Y023963D01*
X019239Y023804D02*
X018362Y023804D01*
X018204Y023646D02*
X019009Y023646D01*
X018951Y023487D02*
X018613Y023487D01*
X018702Y023329D02*
X018963Y023329D01*
X018252Y022853D02*
X017861Y022853D01*
X017861Y022695D02*
X018395Y022695D01*
X018395Y022536D02*
X017861Y022536D01*
X017861Y022377D02*
X018395Y022377D01*
X018395Y022219D02*
X017861Y022219D01*
X017861Y022060D02*
X018203Y022060D01*
X018359Y022060D02*
X018395Y022060D01*
X017964Y021902D02*
X017861Y021902D01*
X017861Y021743D02*
X017901Y021743D01*
X017910Y021585D02*
X017861Y021585D01*
X017861Y021426D02*
X017999Y021426D01*
X017808Y021268D02*
X018395Y021268D01*
X018344Y021109D02*
X017667Y021109D01*
X017509Y020951D02*
X018301Y020951D01*
X018328Y020792D02*
X017350Y020792D01*
X017144Y020634D02*
X018442Y020634D01*
X018921Y020634D02*
X019421Y020634D01*
X019421Y020792D02*
X019035Y020792D01*
X019061Y020951D02*
X019421Y020951D01*
X019421Y020475D02*
X012514Y020475D01*
X012361Y020316D02*
X019421Y020316D01*
X019421Y020158D02*
X012341Y020158D01*
X012237Y019999D02*
X019421Y019999D01*
X019681Y019681D02*
X019681Y022081D01*
X020481Y022881D01*
X021055Y022881D01*
X020538Y023170D02*
X020335Y023170D01*
X020221Y023329D02*
X021791Y023329D01*
X021795Y023487D02*
X019727Y023487D01*
X019741Y023329D02*
X019700Y023329D01*
X019885Y023646D02*
X021906Y023646D01*
X021941Y023804D02*
X020044Y023804D01*
X020202Y023963D02*
X021941Y023963D01*
X021941Y024121D02*
X020361Y024121D01*
X020519Y024280D02*
X021963Y024280D01*
X022099Y024439D02*
X020678Y024439D01*
X020836Y024597D02*
X022258Y024597D01*
X022296Y024756D02*
X020995Y024756D01*
X021154Y024914D02*
X022296Y024914D01*
X022296Y025073D02*
X021312Y025073D01*
X021471Y025231D02*
X022296Y025231D01*
X022325Y025390D02*
X021629Y025390D01*
X021788Y025548D02*
X028136Y025548D01*
X028136Y025390D02*
X023338Y025390D01*
X023366Y025231D02*
X024238Y025231D01*
X023937Y025073D02*
X023366Y025073D01*
X023481Y025081D02*
X024631Y026231D01*
X025300Y026658D02*
X021274Y026658D01*
X021274Y026500D02*
X022315Y026500D01*
X021902Y026341D02*
X021274Y026341D01*
X021274Y026183D02*
X021743Y026183D01*
X021585Y026024D02*
X021221Y026024D01*
X021116Y025865D02*
X021426Y025865D01*
X021267Y025707D02*
X020873Y025707D01*
X021274Y026817D02*
X025192Y026817D01*
X025130Y026975D02*
X021274Y026975D01*
X021274Y027134D02*
X025081Y027134D01*
X025032Y027292D02*
X021241Y027292D01*
X021162Y027451D02*
X025020Y027451D01*
X025020Y027609D02*
X020985Y027609D01*
X022105Y025865D02*
X022296Y025865D01*
X022296Y025707D02*
X021946Y025707D01*
X023366Y025707D02*
X028136Y025707D01*
X028136Y025865D02*
X023366Y025865D01*
X023366Y026024D02*
X026103Y026024D01*
X025771Y026183D02*
X023366Y026183D01*
X023366Y026341D02*
X025572Y026341D01*
X025450Y026439D02*
X025450Y026439D01*
X025408Y026500D02*
X023347Y026500D01*
X023481Y025081D02*
X023481Y024381D01*
X022831Y023731D01*
X022831Y022733D01*
X022909Y022695D02*
X023781Y022695D01*
X023781Y022853D02*
X023366Y022853D01*
X023366Y023012D02*
X023781Y023012D01*
X023781Y023170D02*
X023318Y023170D01*
X023361Y023487D02*
X022427Y023487D01*
X022421Y023329D02*
X023781Y023329D01*
X023347Y023646D02*
X022585Y023646D01*
X022744Y023804D02*
X023347Y023804D01*
X023347Y023963D02*
X022902Y023963D01*
X023046Y024121D02*
X023347Y024121D01*
X023071Y024280D02*
X023726Y024280D01*
X023726Y024439D02*
X023071Y024439D01*
X023366Y024597D02*
X023726Y024597D01*
X023726Y024756D02*
X023366Y024756D01*
X023366Y024914D02*
X023785Y024914D01*
X024732Y024439D02*
X028136Y024439D01*
X028136Y024597D02*
X025241Y024597D01*
X025351Y024756D02*
X028136Y024756D01*
X028136Y024914D02*
X025386Y024914D01*
X025365Y025073D02*
X028136Y025073D01*
X028136Y025231D02*
X025275Y025231D01*
X024636Y024280D02*
X028136Y024280D01*
X027384Y024121D02*
X027289Y024121D01*
X027289Y023963D02*
X027384Y023963D01*
X027288Y023804D02*
X025125Y023804D01*
X025125Y023646D02*
X026448Y023646D01*
X026462Y023487D02*
X025111Y023487D01*
X024691Y023329D02*
X028136Y023329D01*
X028136Y023170D02*
X024691Y023170D01*
X024691Y023012D02*
X028136Y023012D01*
X028136Y022853D02*
X024691Y022853D01*
X024691Y022695D02*
X028136Y022695D01*
X028136Y022536D02*
X024691Y022536D01*
X024691Y022377D02*
X028136Y022377D01*
X028136Y022219D02*
X024691Y022219D01*
X024691Y022060D02*
X028136Y022060D01*
X028136Y021902D02*
X024691Y021902D01*
X024691Y021743D02*
X028136Y021743D01*
X028136Y021585D02*
X024691Y021585D01*
X024691Y021426D02*
X028136Y021426D01*
X028136Y021268D02*
X024691Y021268D01*
X024635Y021109D02*
X025255Y021109D01*
X025271Y021124D02*
X025165Y021019D01*
X025165Y019961D01*
X026486Y019961D01*
X026486Y019801D01*
X026646Y019801D01*
X026646Y018638D01*
X027861Y018638D01*
X027966Y018744D01*
X027966Y019801D01*
X026646Y019801D01*
X026646Y019961D01*
X027966Y019961D01*
X027966Y021019D01*
X027861Y021124D01*
X026646Y021124D01*
X026646Y019962D01*
X026486Y019962D01*
X026486Y021124D01*
X025271Y021124D01*
X025165Y020951D02*
X024494Y020951D01*
X024335Y020792D02*
X025165Y020792D01*
X025165Y020634D02*
X024187Y020634D01*
X024154Y020475D02*
X025165Y020475D01*
X025165Y020316D02*
X022421Y020316D01*
X022421Y020158D02*
X025165Y020158D01*
X025165Y019999D02*
X022421Y019999D01*
X022421Y019841D02*
X026486Y019841D01*
X026486Y019801D02*
X025165Y019801D01*
X025165Y018744D01*
X025271Y018638D01*
X026486Y018638D01*
X026486Y019801D01*
X026486Y019682D02*
X026646Y019682D01*
X026646Y019524D02*
X026486Y019524D01*
X026486Y019365D02*
X026646Y019365D01*
X026646Y019207D02*
X026486Y019207D01*
X026486Y019048D02*
X026646Y019048D01*
X026646Y018890D02*
X026486Y018890D01*
X026486Y018731D02*
X026646Y018731D01*
X026610Y018266D02*
X026922Y018266D01*
X027028Y018160D01*
X027028Y017809D01*
X026610Y017809D01*
X026455Y017809D01*
X026455Y018266D01*
X026143Y018266D01*
X026038Y018160D01*
X026038Y017809D01*
X026455Y017809D01*
X026455Y017654D01*
X026038Y017654D01*
X026038Y017303D01*
X026143Y017197D01*
X026455Y017197D01*
X026455Y017654D01*
X026610Y017654D01*
X026610Y017809D01*
X026610Y018266D01*
X026610Y018255D02*
X026455Y018255D01*
X026455Y018097D02*
X026610Y018097D01*
X026610Y017938D02*
X026455Y017938D01*
X026455Y017780D02*
X025925Y017780D01*
X025925Y017938D02*
X026038Y017938D01*
X026038Y018097D02*
X025925Y018097D01*
X025830Y018255D02*
X026133Y018255D01*
X026038Y017621D02*
X025925Y017621D01*
X025925Y017463D02*
X026038Y017463D01*
X026038Y017304D02*
X025925Y017304D01*
X025521Y017146D02*
X028136Y017146D01*
X028136Y017304D02*
X027028Y017304D01*
X027028Y017303D02*
X027028Y017654D01*
X026610Y017654D01*
X026610Y017197D01*
X026922Y017197D01*
X027028Y017303D01*
X027028Y017463D02*
X028136Y017463D01*
X028136Y017621D02*
X027028Y017621D01*
X027028Y017938D02*
X028136Y017938D01*
X028136Y017780D02*
X026610Y017780D01*
X026610Y017621D02*
X026455Y017621D01*
X026455Y017463D02*
X026610Y017463D01*
X026610Y017304D02*
X026455Y017304D01*
X027028Y018097D02*
X028136Y018097D01*
X028136Y018255D02*
X026932Y018255D01*
X027953Y018731D02*
X028136Y018731D01*
X028136Y018572D02*
X024032Y018572D01*
X024032Y018414D02*
X028136Y018414D01*
X028136Y018890D02*
X027966Y018890D01*
X027966Y019048D02*
X028136Y019048D01*
X028136Y019207D02*
X027966Y019207D01*
X027966Y019365D02*
X028136Y019365D01*
X028136Y019524D02*
X027966Y019524D01*
X027966Y019682D02*
X028136Y019682D01*
X028136Y019841D02*
X026646Y019841D01*
X026646Y019999D02*
X026486Y019999D01*
X026486Y020158D02*
X026646Y020158D01*
X026646Y020316D02*
X026486Y020316D01*
X026486Y020475D02*
X026646Y020475D01*
X026646Y020634D02*
X026486Y020634D01*
X026486Y020792D02*
X026646Y020792D01*
X026646Y020951D02*
X026486Y020951D01*
X026486Y021109D02*
X026646Y021109D01*
X027876Y021109D02*
X028136Y021109D01*
X028136Y020951D02*
X027966Y020951D01*
X027966Y020792D02*
X028136Y020792D01*
X028136Y020634D02*
X027966Y020634D01*
X027966Y020475D02*
X028136Y020475D01*
X028136Y020316D02*
X027966Y020316D01*
X027966Y020158D02*
X028136Y020158D01*
X028136Y019999D02*
X027966Y019999D01*
X025165Y019682D02*
X022421Y019682D01*
X022421Y019524D02*
X025165Y019524D01*
X025165Y019365D02*
X022421Y019365D01*
X022421Y019207D02*
X023197Y019207D01*
X023197Y019048D02*
X022421Y019048D01*
X022421Y018890D02*
X023197Y018890D01*
X023197Y018731D02*
X022951Y018731D01*
X023110Y018572D02*
X023352Y018572D01*
X023352Y018414D02*
X023176Y018414D01*
X023181Y018255D02*
X023352Y018255D01*
X023352Y018097D02*
X023181Y018097D01*
X023181Y017938D02*
X023352Y017938D01*
X023352Y017780D02*
X023181Y017780D01*
X023181Y017621D02*
X023369Y017621D01*
X023480Y017463D02*
X023140Y017463D01*
X023031Y017304D02*
X024841Y017304D01*
X024841Y017146D02*
X020421Y017146D01*
X020421Y016987D02*
X024841Y016987D01*
X024841Y016441D02*
X024841Y015217D01*
X023353Y015217D01*
X023247Y015112D01*
X023247Y014451D01*
X023353Y014346D01*
X024540Y014346D01*
X024543Y014339D01*
X024989Y013893D01*
X025114Y013841D01*
X025182Y013841D01*
X026691Y012332D01*
X026691Y011472D01*
X026680Y011484D01*
X026462Y011574D01*
X026221Y011574D01*
X026221Y011949D01*
X026170Y012074D01*
X026074Y012170D01*
X025624Y012620D01*
X025499Y012671D01*
X025364Y012671D01*
X022172Y012671D01*
X022114Y012729D01*
X022324Y012729D01*
X022429Y012835D01*
X022429Y013174D01*
X022471Y013275D01*
X022471Y013648D01*
X022924Y013196D01*
X023091Y013126D01*
X023272Y013126D01*
X023439Y013196D01*
X023567Y013324D01*
X023636Y013491D01*
X023636Y013672D01*
X023567Y013839D01*
X022705Y014701D01*
X022705Y014761D01*
X022600Y014866D01*
X021697Y014866D01*
X021697Y015097D01*
X022600Y015097D01*
X022705Y015202D01*
X022705Y015942D01*
X022600Y016047D01*
X021663Y016047D01*
X021558Y015942D01*
X021558Y015832D01*
X019674Y015832D01*
X019570Y015832D01*
X019475Y015792D01*
X019284Y015602D01*
X019211Y015529D01*
X019201Y015504D01*
X018799Y015504D01*
X018799Y015097D01*
X019171Y015097D01*
X019171Y014866D01*
X018263Y014866D01*
X018158Y014761D01*
X018158Y014021D01*
X018263Y013916D01*
X018399Y013916D01*
X018333Y013850D01*
X018333Y012835D01*
X018439Y012729D01*
X018824Y012729D01*
X018881Y012787D01*
X018939Y012729D01*
X019324Y012729D01*
X019381Y012787D01*
X019439Y012729D01*
X019824Y012729D01*
X019881Y012787D01*
X019939Y012729D01*
X020131Y012729D01*
X020131Y013342D01*
X020132Y013342D01*
X020132Y012729D01*
X020324Y012729D01*
X020381Y012787D01*
X020439Y012729D01*
X020824Y012729D01*
X020881Y012787D01*
X020939Y012729D01*
X021291Y012729D01*
X021291Y012664D01*
X021343Y012539D01*
X021743Y012139D01*
X021839Y012043D01*
X021964Y011991D01*
X025291Y011991D01*
X025541Y011741D01*
X025541Y011574D01*
X025401Y011574D01*
X025183Y011484D01*
X025017Y011317D01*
X024926Y011099D01*
X024926Y010864D01*
X025017Y010646D01*
X025183Y010479D01*
X025401Y010389D01*
X026462Y010389D01*
X026680Y010479D01*
X026691Y010491D01*
X026691Y009472D01*
X026680Y009484D01*
X026462Y009574D01*
X025820Y009574D01*
X025474Y009920D01*
X025349Y009971D01*
X025214Y009971D01*
X025072Y009971D01*
X024771Y010272D01*
X024771Y010899D01*
X024720Y011024D01*
X024624Y011120D01*
X023874Y011870D01*
X023749Y011921D01*
X023614Y011921D01*
X022114Y011921D01*
X021989Y011870D01*
X021893Y011774D01*
X021343Y011224D01*
X021291Y011099D01*
X021291Y010964D01*
X021291Y010333D01*
X021169Y010333D01*
X021061Y010441D01*
X021061Y010557D01*
X021004Y010697D01*
X020897Y010804D01*
X020757Y010861D01*
X020606Y010861D01*
X020466Y010804D01*
X020359Y010697D01*
X020301Y010557D01*
X020301Y010406D01*
X020337Y010321D01*
X020324Y010333D01*
X020132Y010333D01*
X020132Y009721D01*
X020131Y009721D01*
X020131Y010333D01*
X019939Y010333D01*
X019881Y010276D01*
X019871Y010286D01*
X019871Y010684D01*
X019954Y010766D01*
X020011Y010906D01*
X020011Y011057D01*
X019954Y011197D01*
X019847Y011304D01*
X019707Y011361D01*
X019556Y011361D01*
X019416Y011304D01*
X019309Y011197D01*
X019251Y011057D01*
X019251Y010906D01*
X019309Y010766D01*
X019391Y010684D01*
X019391Y010286D01*
X019381Y010276D01*
X019324Y010333D01*
X019132Y010333D01*
X019132Y009721D01*
X019131Y009721D01*
X019131Y010333D01*
X018939Y010333D01*
X018881Y010276D01*
X018824Y010333D01*
X018439Y010333D01*
X018333Y010228D01*
X018333Y009213D01*
X018439Y009107D01*
X018824Y009107D01*
X018881Y009165D01*
X018939Y009107D01*
X019131Y009107D01*
X019131Y009720D01*
X019132Y009720D01*
X019132Y009107D01*
X019324Y009107D01*
X019381Y009165D01*
X019439Y009107D01*
X019516Y009107D01*
X019851Y008772D01*
X019851Y008656D01*
X019878Y008591D01*
X019633Y008591D01*
X019530Y008591D01*
X019434Y008552D01*
X019137Y008254D01*
X018699Y008254D01*
X018699Y007847D01*
X019071Y007847D01*
X019071Y007616D01*
X018271Y007616D01*
X018271Y007847D01*
X018564Y007847D01*
X018564Y008254D01*
X018699Y008254D01*
X018699Y008390D01*
X018564Y008390D01*
X018564Y008797D01*
X018163Y008797D01*
X018084Y008718D01*
X018017Y008785D01*
X018016Y008785D01*
X018016Y009064D01*
X017559Y009064D01*
X017559Y009219D01*
X017404Y009219D01*
X017404Y009636D01*
X017233Y009636D01*
X017261Y009706D01*
X017261Y009822D01*
X017327Y009887D01*
X017339Y009894D01*
X017357Y009917D01*
X017801Y009917D01*
X017907Y010023D01*
X017907Y010762D01*
X017801Y010868D01*
X017296Y010868D01*
X017311Y010906D01*
X017311Y011057D01*
X017254Y011197D01*
X017155Y011295D01*
X017801Y011295D01*
X017907Y011401D01*
X017907Y012140D01*
X017820Y012227D01*
X017861Y012227D01*
X017966Y012332D01*
X017966Y013111D01*
X017861Y013216D01*
X017002Y013216D01*
X016906Y013121D01*
X016811Y013216D01*
X015952Y013216D01*
X015921Y013186D01*
X015921Y013377D01*
X015952Y013346D01*
X016304Y013346D01*
X016304Y013764D01*
X016459Y013764D01*
X016459Y013919D01*
X016304Y013919D01*
X016304Y014336D01*
X015952Y014336D01*
X015921Y014306D01*
X015921Y014631D01*
X016839Y016741D01*
X018029Y016741D01*
X018117Y016778D01*
X018185Y016845D01*
X018385Y017045D01*
X018421Y017134D01*
X018421Y017228D01*
X018582Y017161D01*
X018661Y017161D01*
X018661Y017961D01*
X018701Y017961D01*
X018701Y017161D01*
X018781Y017161D01*
X018965Y017238D01*
X019105Y017378D01*
X019181Y017562D01*
X019181Y017961D01*
X018702Y017961D01*
X018702Y018001D01*
X019181Y018001D01*
X019181Y018401D01*
X019105Y018585D01*
X018965Y018725D01*
X018781Y018801D01*
X018701Y018801D01*
X018701Y018002D01*
X018661Y018002D01*
X018661Y018801D01*
X018641Y018801D01*
X018781Y018941D01*
X019441Y018941D01*
X019441Y018743D01*
X019398Y018725D01*
X019258Y018585D01*
X019181Y018401D01*
X019181Y017562D01*
X019258Y017378D01*
X019398Y017238D01*
X019582Y017161D01*
X019781Y017161D01*
X019941Y017228D01*
X019941Y016634D01*
X019978Y016545D01*
X020045Y016478D01*
X020134Y016441D01*
X020229Y016441D01*
X024841Y016441D01*
X024841Y016353D02*
X016670Y016353D01*
X016739Y016511D02*
X020012Y016511D01*
X019941Y016670D02*
X016808Y016670D01*
X016601Y016194D02*
X024841Y016194D01*
X024841Y016036D02*
X022611Y016036D01*
X022705Y015877D02*
X024841Y015877D01*
X024841Y015719D02*
X022705Y015719D01*
X022705Y015560D02*
X024841Y015560D01*
X024841Y015402D02*
X022705Y015402D01*
X022705Y015243D02*
X024841Y015243D01*
X025521Y015243D02*
X028136Y015243D01*
X028020Y015217D02*
X027284Y015217D01*
X027284Y014830D01*
X027189Y014830D01*
X027189Y015217D01*
X026453Y015217D01*
X026348Y015112D01*
X026348Y014829D01*
X027188Y014829D01*
X027188Y014733D01*
X026348Y014733D01*
X026348Y014451D01*
X026453Y014346D01*
X027189Y014346D01*
X027189Y014733D01*
X027284Y014733D01*
X027284Y014346D01*
X028020Y014346D01*
X028125Y014451D01*
X028125Y014733D01*
X027285Y014733D01*
X027285Y014829D01*
X028125Y014829D01*
X028125Y015112D01*
X028020Y015217D01*
X028125Y015084D02*
X028136Y015084D01*
X028125Y014926D02*
X028136Y014926D01*
X028136Y014767D02*
X027285Y014767D01*
X027188Y014767D02*
X025521Y014767D01*
X025521Y014609D02*
X026348Y014609D01*
X026349Y014450D02*
X025521Y014450D01*
X025521Y014292D02*
X028136Y014292D01*
X028125Y014450D02*
X028136Y014450D01*
X028125Y014609D02*
X028136Y014609D01*
X028136Y014133D02*
X025569Y014133D01*
X025728Y013975D02*
X028136Y013975D01*
X028136Y013816D02*
X025886Y013816D01*
X026045Y013658D02*
X028136Y013658D01*
X028136Y013499D02*
X026203Y013499D01*
X026362Y013341D02*
X028136Y013341D01*
X028136Y013182D02*
X026520Y013182D01*
X026679Y013023D02*
X028136Y013023D01*
X028136Y012865D02*
X026837Y012865D01*
X026996Y012706D02*
X028136Y012706D01*
X028136Y012548D02*
X027143Y012548D01*
X027171Y012389D02*
X028136Y012389D01*
X028136Y012231D02*
X027171Y012231D01*
X027171Y012072D02*
X028136Y012072D01*
X028136Y011914D02*
X027171Y011914D01*
X027171Y011755D02*
X028136Y011755D01*
X028136Y011597D02*
X027171Y011597D01*
X027171Y011438D02*
X028136Y011438D01*
X028136Y011279D02*
X027171Y011279D01*
X027171Y011121D02*
X028136Y011121D01*
X028136Y010962D02*
X027171Y010962D01*
X027171Y010804D02*
X028136Y010804D01*
X028136Y010645D02*
X027171Y010645D01*
X027171Y010487D02*
X028136Y010487D01*
X028136Y010328D02*
X027171Y010328D01*
X027171Y010170D02*
X028136Y010170D01*
X028136Y010011D02*
X027171Y010011D01*
X027171Y009853D02*
X028136Y009853D01*
X028136Y009694D02*
X027171Y009694D01*
X027171Y009535D02*
X028136Y009535D01*
X028136Y009377D02*
X027171Y009377D01*
X027171Y009218D02*
X028136Y009218D01*
X028136Y009060D02*
X027171Y009060D01*
X027171Y008901D02*
X028136Y008901D01*
X028136Y008743D02*
X027171Y008743D01*
X027151Y008584D02*
X028136Y008584D01*
X028136Y008426D02*
X027015Y008426D01*
X026856Y008267D02*
X028136Y008267D01*
X028136Y008109D02*
X026698Y008109D01*
X026552Y007950D02*
X028136Y007950D01*
X028136Y007791D02*
X026711Y007791D01*
X026869Y007633D02*
X028136Y007633D01*
X028136Y007474D02*
X027028Y007474D01*
X027156Y007316D02*
X028136Y007316D01*
X028136Y007157D02*
X027171Y007157D01*
X027171Y006999D02*
X028136Y006999D01*
X028136Y006840D02*
X027171Y006840D01*
X027171Y006682D02*
X028136Y006682D01*
X028136Y006523D02*
X027171Y006523D01*
X027171Y006365D02*
X028136Y006365D01*
X028136Y006206D02*
X027171Y006206D01*
X027171Y006048D02*
X028136Y006048D01*
X028136Y005889D02*
X027171Y005889D01*
X027171Y005730D02*
X028136Y005730D01*
X028136Y005572D02*
X027171Y005572D01*
X027171Y005413D02*
X028136Y005413D01*
X028136Y005255D02*
X027171Y005255D01*
X027171Y005096D02*
X028136Y005096D01*
X028136Y004938D02*
X027171Y004938D01*
X027171Y004779D02*
X028136Y004779D01*
X028136Y004621D02*
X027145Y004621D01*
X027001Y004462D02*
X028136Y004462D01*
X028136Y004304D02*
X026843Y004304D01*
X026684Y004145D02*
X028136Y004145D01*
X028136Y003986D02*
X026526Y003986D01*
X026367Y003828D02*
X028136Y003828D01*
X028136Y003669D02*
X027239Y003669D01*
X027578Y003511D02*
X028136Y003511D01*
X028136Y003352D02*
X027818Y003352D01*
X027965Y003194D02*
X028136Y003194D01*
X028136Y003035D02*
X028113Y003035D01*
X026231Y003669D02*
X026209Y003669D01*
X025859Y003511D02*
X023666Y003511D01*
X023666Y003352D02*
X025661Y003352D01*
X025500Y003224D02*
X025500Y003224D01*
X025479Y003194D02*
X023666Y003194D01*
X023600Y003035D02*
X025371Y003035D01*
X025263Y002877D02*
X022429Y002877D01*
X022429Y002718D02*
X022596Y002718D01*
X022596Y002560D02*
X022429Y002560D01*
X022429Y002401D02*
X022596Y002401D01*
X022596Y002242D02*
X022429Y002242D01*
X022429Y002084D02*
X022596Y002084D01*
X022653Y001925D02*
X022392Y001925D01*
X022536Y001767D02*
X020971Y001767D01*
X020291Y001767D02*
X017092Y001767D01*
X017128Y001925D02*
X018371Y001925D01*
X018333Y002084D02*
X017128Y002084D01*
X017128Y002242D02*
X018333Y002242D01*
X018333Y002401D02*
X017128Y002401D01*
X017128Y002560D02*
X018333Y002560D01*
X018333Y002718D02*
X017070Y002718D01*
X016571Y002877D02*
X018333Y002877D01*
X018301Y003035D02*
X016571Y003035D01*
X016571Y003194D02*
X018251Y003194D01*
X018171Y003352D02*
X016562Y003352D01*
X016441Y003511D02*
X018013Y003511D01*
X017854Y003669D02*
X016491Y003669D01*
X016489Y003828D02*
X017695Y003828D01*
X017537Y003986D02*
X016424Y003986D01*
X016235Y004145D02*
X017378Y004145D01*
X017220Y004304D02*
X015949Y004304D01*
X015790Y004462D02*
X017061Y004462D01*
X016903Y004621D02*
X015632Y004621D01*
X015473Y004779D02*
X016744Y004779D01*
X016586Y004938D02*
X015314Y004938D01*
X015156Y005096D02*
X016427Y005096D01*
X015906Y005255D02*
X014997Y005255D01*
X014839Y005413D02*
X015906Y005413D01*
X015906Y005572D02*
X014721Y005572D01*
X014721Y005730D02*
X015906Y005730D01*
X015784Y005889D02*
X014721Y005889D01*
X014721Y006048D02*
X015626Y006048D01*
X015467Y006206D02*
X014721Y006206D01*
X014721Y006365D02*
X015391Y006365D01*
X015391Y006523D02*
X014721Y006523D01*
X014721Y006682D02*
X015292Y006682D01*
X015133Y006840D02*
X014721Y006840D01*
X014721Y006999D02*
X014975Y006999D01*
X014816Y007157D02*
X014721Y007157D01*
X013841Y006840D02*
X013580Y006840D01*
X013501Y006682D02*
X013841Y006682D01*
X013841Y006523D02*
X013411Y006523D01*
X013021Y006365D02*
X013841Y006365D01*
X013841Y006206D02*
X013021Y006206D01*
X013021Y006048D02*
X013841Y006048D01*
X013841Y005889D02*
X012978Y005889D01*
X012871Y005730D02*
X013841Y005730D01*
X013841Y005572D02*
X012871Y005572D01*
X012871Y005413D02*
X013841Y005413D01*
X013841Y005255D02*
X012871Y005255D01*
X012871Y005096D02*
X013841Y005096D01*
X013841Y004938D02*
X012871Y004938D01*
X012861Y004779D02*
X013841Y004779D01*
X013841Y004621D02*
X012861Y004621D01*
X012861Y004462D02*
X013841Y004462D01*
X013841Y004304D02*
X012808Y004304D01*
X012761Y004145D02*
X013841Y004145D01*
X013739Y003986D02*
X012861Y003986D01*
X012861Y003828D02*
X013674Y003828D01*
X013671Y003669D02*
X012477Y003669D01*
X012386Y003669D02*
X010959Y003669D01*
X010800Y003511D02*
X012001Y003511D01*
X012006Y003352D02*
X010642Y003352D01*
X010483Y003194D02*
X013591Y003194D01*
X013601Y003352D02*
X012857Y003352D01*
X012861Y003511D02*
X013721Y003511D01*
X014083Y003194D02*
X016080Y003194D01*
X016091Y003035D02*
X014071Y003035D01*
X014071Y002877D02*
X016091Y002877D01*
X016091Y002718D02*
X015967Y002718D01*
X015920Y002766D02*
X015608Y002766D01*
X015608Y002309D01*
X016025Y002309D01*
X016025Y002660D01*
X015920Y002766D01*
X016025Y002560D02*
X016089Y002560D01*
X016138Y002401D02*
X016025Y002401D01*
X016138Y002242D02*
X015608Y002242D01*
X015608Y002309D02*
X015608Y002154D01*
X016025Y002154D01*
X016025Y001803D01*
X015920Y001697D01*
X015608Y001697D01*
X015608Y002154D01*
X015453Y002154D01*
X015453Y001697D01*
X015141Y001697D01*
X015081Y001756D01*
X015022Y001697D01*
X014710Y001697D01*
X014710Y002154D01*
X014710Y002309D01*
X014555Y002309D01*
X014555Y002766D01*
X014243Y002766D01*
X014138Y002660D01*
X014138Y002309D01*
X014555Y002309D01*
X014555Y002154D01*
X014138Y002154D01*
X014138Y001803D01*
X014243Y001697D01*
X014555Y001697D01*
X014555Y002154D01*
X014710Y002154D01*
X015035Y002154D01*
X015452Y002154D01*
X015452Y002309D01*
X015035Y002309D01*
X014710Y002309D01*
X014710Y002766D01*
X015022Y002766D01*
X015081Y002706D01*
X015141Y002766D01*
X015453Y002766D01*
X015453Y002309D01*
X015608Y002309D01*
X015608Y002401D02*
X015453Y002401D01*
X015452Y002242D02*
X014710Y002242D01*
X014555Y002242D02*
X014025Y002242D01*
X014025Y002084D02*
X014138Y002084D01*
X014138Y001925D02*
X014025Y001925D01*
X013989Y001767D02*
X014173Y001767D01*
X014555Y001767D02*
X014710Y001767D01*
X014710Y001925D02*
X014555Y001925D01*
X014555Y002084D02*
X014710Y002084D01*
X014710Y002401D02*
X014555Y002401D01*
X014555Y002560D02*
X014710Y002560D01*
X014710Y002718D02*
X014555Y002718D01*
X014195Y002718D02*
X014071Y002718D01*
X014074Y002560D02*
X014138Y002560D01*
X014138Y002401D02*
X014025Y002401D01*
X013591Y002877D02*
X010411Y002877D01*
X010411Y002718D02*
X013093Y002718D01*
X013035Y002560D02*
X010411Y002560D01*
X010330Y002401D02*
X013035Y002401D01*
X013035Y002242D02*
X010171Y002242D01*
X009941Y002242D02*
X009921Y002242D01*
X009921Y002401D02*
X009941Y002401D01*
X009941Y002560D02*
X009921Y002560D01*
X009692Y002242D02*
X009171Y002242D01*
X009330Y002401D02*
X009533Y002401D01*
X009451Y002560D02*
X009411Y002560D01*
X009411Y002718D02*
X009451Y002718D01*
X009204Y003194D02*
X004561Y003194D01*
X004561Y003257D02*
X004504Y003397D01*
X004397Y003504D01*
X004257Y003561D01*
X004141Y003561D01*
X003086Y004616D01*
X003086Y005052D01*
X003097Y005065D01*
X003125Y005156D01*
X003116Y005251D01*
X003071Y005336D01*
X002998Y005397D01*
X002907Y005425D01*
X002812Y005416D01*
X002727Y005371D01*
X002723Y005366D01*
X002306Y005366D01*
X002377Y005438D01*
X002392Y005431D01*
X002591Y005431D01*
X002775Y005508D01*
X002915Y005648D01*
X002991Y005832D01*
X002991Y006671D01*
X002915Y006855D01*
X002775Y006995D01*
X002771Y006997D01*
X002771Y008066D01*
X002775Y008068D01*
X002915Y008208D01*
X002991Y008392D01*
X002991Y009152D01*
X003231Y009391D01*
X003838Y009391D01*
X003771Y009231D01*
X003771Y008831D01*
X004251Y008831D01*
X004251Y008791D01*
X004291Y008791D01*
X004291Y007991D01*
X004371Y007991D01*
X004555Y008068D01*
X004695Y008208D01*
X004771Y008392D01*
X004771Y008791D01*
X004292Y008791D01*
X004292Y008831D01*
X004771Y008831D01*
X004771Y009231D01*
X004695Y009415D01*
X004555Y009555D01*
X004548Y009558D01*
X004931Y009941D01*
X005043Y009941D01*
X005052Y009939D01*
X005090Y009941D01*
X005129Y009941D01*
X005138Y009945D01*
X005147Y009946D01*
X005182Y009963D01*
X005217Y009978D01*
X005224Y009984D01*
X005232Y009989D01*
X005239Y009997D01*
X005772Y009997D01*
X005878Y010103D01*
X005878Y010941D01*
X005929Y010941D01*
X006334Y010941D01*
X006416Y010859D01*
X006556Y010801D01*
X006707Y010801D01*
X006847Y010859D01*
X006954Y010966D01*
X007011Y011106D01*
X007011Y011257D01*
X006954Y011397D01*
X006847Y011504D01*
X006707Y011561D01*
X006556Y011561D01*
X006416Y011504D01*
X006334Y011421D01*
X006121Y011421D01*
X006121Y012996D01*
X006761Y012996D01*
X006866Y013102D01*
X006866Y013961D01*
X006771Y014056D01*
X006866Y014152D01*
X006866Y014691D01*
X006879Y014691D01*
X006967Y014728D01*
X006996Y014757D01*
X006996Y014152D01*
X007092Y014056D01*
X006996Y013961D01*
X006996Y013102D01*
X007102Y012996D01*
X007881Y012996D01*
X007936Y013052D01*
X007938Y013048D01*
X008078Y012908D01*
X008262Y012831D01*
X009101Y012831D01*
X009285Y012908D01*
X009425Y013048D01*
X009501Y013232D01*
X009501Y013431D01*
X009425Y013615D01*
X009285Y013755D01*
X009101Y013831D01*
X008262Y013831D01*
X008078Y013755D01*
X008044Y013721D01*
X007986Y013721D01*
X007986Y013961D01*
X007891Y014056D01*
X007921Y014087D01*
X007938Y014048D01*
X008078Y013908D01*
X008262Y013831D01*
X009101Y013831D01*
X009285Y013908D01*
X009425Y014048D01*
X009501Y014232D01*
X009501Y014431D01*
X009425Y014615D01*
X009285Y014755D01*
X009101Y014831D01*
X008262Y014831D01*
X008078Y014755D01*
X008044Y014721D01*
X007986Y014721D01*
X007986Y015000D01*
X008078Y014908D01*
X008262Y014831D01*
X008661Y014831D01*
X008661Y015311D01*
X007861Y015311D01*
X007861Y015232D01*
X007930Y015067D01*
X007881Y015116D01*
X007554Y015116D01*
X007654Y015216D01*
X007711Y015356D01*
X007711Y015507D01*
X007654Y015647D01*
X007547Y015754D01*
X007407Y015811D01*
X007256Y015811D01*
X007116Y015754D01*
X007009Y015647D01*
X006951Y015507D01*
X006951Y015391D01*
X006732Y015171D01*
X006722Y015171D01*
X006714Y015174D01*
X006674Y015171D01*
X006634Y015171D01*
X006627Y015168D01*
X006619Y015168D01*
X006583Y015150D01*
X006545Y015135D01*
X006540Y015129D01*
X006533Y015126D01*
X006525Y015116D01*
X006521Y015116D01*
X006521Y015379D01*
X006485Y015467D01*
X006417Y015535D01*
X006167Y015785D01*
X006079Y015821D01*
X005984Y015821D01*
X005434Y015821D01*
X005345Y015785D01*
X005278Y015717D01*
X004332Y014771D01*
X004279Y014771D01*
X004197Y014854D01*
X004057Y014911D01*
X003906Y014911D01*
X003766Y014854D01*
X003659Y014747D01*
X003601Y014607D01*
X003601Y014456D01*
X003659Y014316D01*
X003704Y014271D01*
X003335Y014271D01*
X003401Y014432D01*
X003401Y014511D01*
X002602Y014511D01*
X002602Y014551D01*
X003401Y014551D01*
X003401Y014631D01*
X003325Y014815D01*
X003185Y014955D01*
X003001Y015031D01*
X002601Y015031D01*
X002601Y014552D01*
X002561Y014552D01*
X002561Y015031D01*
X002162Y015031D01*
X002021Y014973D01*
X002021Y015090D01*
X002162Y015031D01*
X002561Y015031D01*
X002561Y015511D01*
X002601Y015511D01*
X002601Y015031D01*
X003001Y015031D01*
X003185Y015108D01*
X003325Y015248D01*
X003401Y015432D01*
X003401Y015511D01*
X002602Y015511D01*
X002602Y015551D01*
X003401Y015551D01*
X003401Y015631D01*
X003325Y015815D01*
X003185Y015955D01*
X003001Y016031D01*
X002601Y016031D01*
X002601Y015552D01*
X002561Y015552D01*
X002561Y016031D01*
X002162Y016031D01*
X002021Y015973D01*
X002021Y019082D01*
X002426Y019487D01*
X002426Y019464D01*
X002517Y019246D01*
X002683Y019079D01*
X002901Y018989D01*
X003962Y018989D01*
X004180Y019079D01*
X004346Y019246D01*
X004436Y019464D01*
X004436Y019699D01*
X004346Y019917D01*
X004180Y020084D01*
X003962Y020174D01*
X003113Y020174D01*
X003881Y020941D01*
X004386Y020941D01*
X004491Y021047D01*
X004491Y022076D01*
X004386Y022181D01*
X003757Y022181D01*
X003652Y022076D01*
X003652Y021391D01*
X001578Y019317D01*
X001541Y019229D01*
X001541Y019134D01*
X001541Y014284D01*
X001578Y014195D01*
X001645Y014128D01*
X001898Y013875D01*
X001838Y013815D01*
X001761Y013631D01*
X001761Y013432D01*
X001829Y013269D01*
X000778Y012217D01*
X000741Y012129D01*
X000741Y012034D01*
X000741Y004334D01*
X000778Y004245D01*
X000845Y004178D01*
X000945Y004078D01*
X001034Y004041D01*
X001129Y004041D01*
X001879Y004041D01*
X001967Y004078D01*
X002035Y004145D01*
X002131Y004241D01*
X002241Y004241D01*
X002248Y004239D01*
X002289Y004241D01*
X002329Y004241D01*
X002336Y004244D01*
X002344Y004245D01*
X002380Y004262D01*
X002417Y004278D01*
X002423Y004283D01*
X002429Y004287D01*
X002438Y004296D01*
X002723Y004296D01*
X002727Y004291D01*
X002737Y004286D01*
X003801Y003222D01*
X003801Y003106D01*
X003859Y002966D01*
X003966Y002859D01*
X004106Y002801D01*
X004257Y002801D01*
X004397Y002859D01*
X004504Y002966D01*
X004561Y003106D01*
X004561Y003257D01*
X004522Y003352D02*
X005582Y003352D01*
X005451Y003483D02*
X005451Y003880D01*
X005733Y004161D01*
X006130Y004161D01*
X006411Y003880D01*
X006411Y003483D01*
X006130Y003201D01*
X005733Y003201D01*
X005451Y003483D01*
X005451Y003511D02*
X004379Y003511D01*
X004532Y003035D02*
X005606Y003035D01*
X005733Y003161D02*
X005451Y002880D01*
X005451Y002483D01*
X005733Y002201D01*
X006130Y002201D01*
X006411Y002483D01*
X006411Y002880D01*
X006130Y003161D01*
X005733Y003161D01*
X005451Y002877D02*
X004414Y002877D01*
X003949Y002877D02*
X003716Y002877D01*
X003640Y003035D02*
X003831Y003035D01*
X003801Y003194D02*
X003512Y003194D01*
X003365Y003352D02*
X003671Y003352D01*
X003513Y003511D02*
X003165Y003511D01*
X003354Y003669D02*
X002890Y003669D01*
X003195Y003828D02*
X000726Y003828D01*
X000726Y003986D02*
X003037Y003986D01*
X002878Y004145D02*
X002034Y004145D01*
X001603Y003669D02*
X000726Y003669D01*
X000726Y003511D02*
X001297Y003511D01*
X001098Y003352D02*
X000726Y003352D01*
X000726Y003194D02*
X000945Y003194D01*
X001000Y003274D02*
X001000Y003274D01*
X000837Y003035D02*
X000726Y003035D01*
X000726Y002877D02*
X000729Y002877D01*
X000726Y004145D02*
X000878Y004145D01*
X000754Y004304D02*
X000726Y004304D01*
X000726Y004462D02*
X000741Y004462D01*
X000726Y004621D02*
X000741Y004621D01*
X000726Y004779D02*
X000741Y004779D01*
X000726Y004938D02*
X000741Y004938D01*
X000726Y005096D02*
X000741Y005096D01*
X000726Y005255D02*
X000741Y005255D01*
X000726Y005413D02*
X000741Y005413D01*
X000726Y005572D02*
X000741Y005572D01*
X000726Y005730D02*
X000741Y005730D01*
X000726Y005889D02*
X000741Y005889D01*
X000726Y006048D02*
X000741Y006048D01*
X000726Y006206D02*
X000741Y006206D01*
X000726Y006365D02*
X000741Y006365D01*
X000726Y006523D02*
X000741Y006523D01*
X000726Y006682D02*
X000741Y006682D01*
X000726Y006840D02*
X000741Y006840D01*
X000726Y006999D02*
X000741Y006999D01*
X000726Y007157D02*
X000741Y007157D01*
X000726Y007316D02*
X000741Y007316D01*
X000726Y007474D02*
X000741Y007474D01*
X000726Y007633D02*
X000741Y007633D01*
X000726Y007791D02*
X000741Y007791D01*
X000726Y007950D02*
X000741Y007950D01*
X000726Y008109D02*
X000741Y008109D01*
X000726Y008267D02*
X000741Y008267D01*
X000726Y008426D02*
X000741Y008426D01*
X000726Y008584D02*
X000741Y008584D01*
X000726Y008743D02*
X000741Y008743D01*
X000726Y008901D02*
X000741Y008901D01*
X000726Y009060D02*
X000741Y009060D01*
X000726Y009218D02*
X000741Y009218D01*
X000726Y009377D02*
X000741Y009377D01*
X000726Y009535D02*
X000741Y009535D01*
X000726Y009694D02*
X000741Y009694D01*
X000726Y009853D02*
X000741Y009853D01*
X000726Y010011D02*
X000741Y010011D01*
X000726Y010170D02*
X000741Y010170D01*
X000726Y010328D02*
X000741Y010328D01*
X000726Y010487D02*
X000741Y010487D01*
X000726Y010645D02*
X000741Y010645D01*
X000726Y010804D02*
X000741Y010804D01*
X000726Y010962D02*
X000741Y010962D01*
X000726Y011121D02*
X000741Y011121D01*
X000726Y011279D02*
X000741Y011279D01*
X000726Y011438D02*
X000741Y011438D01*
X000726Y011597D02*
X000741Y011597D01*
X000726Y011755D02*
X000741Y011755D01*
X000726Y011914D02*
X000741Y011914D01*
X000726Y012072D02*
X000741Y012072D01*
X000726Y012231D02*
X000791Y012231D01*
X000726Y012389D02*
X000950Y012389D01*
X001108Y012548D02*
X000726Y012548D01*
X000726Y012706D02*
X001267Y012706D01*
X001426Y012865D02*
X000726Y012865D01*
X000726Y013023D02*
X001584Y013023D01*
X001743Y013182D02*
X000726Y013182D01*
X000726Y013341D02*
X001799Y013341D01*
X001761Y013499D02*
X000726Y013499D01*
X000726Y013658D02*
X001773Y013658D01*
X001839Y013816D02*
X000726Y013816D01*
X000726Y013975D02*
X001799Y013975D01*
X001640Y014133D02*
X000726Y014133D01*
X000726Y014292D02*
X001541Y014292D01*
X001541Y014450D02*
X000726Y014450D01*
X000726Y014609D02*
X001541Y014609D01*
X001541Y014767D02*
X000726Y014767D01*
X000726Y014926D02*
X001541Y014926D01*
X001541Y015084D02*
X000726Y015084D01*
X000726Y015243D02*
X001541Y015243D01*
X001541Y015402D02*
X000726Y015402D01*
X000726Y015560D02*
X001541Y015560D01*
X001541Y015719D02*
X000726Y015719D01*
X000726Y015877D02*
X001541Y015877D01*
X001541Y016036D02*
X000726Y016036D01*
X000726Y016194D02*
X001541Y016194D01*
X001541Y016353D02*
X000726Y016353D01*
X000726Y016511D02*
X001541Y016511D01*
X001541Y016670D02*
X000726Y016670D01*
X000726Y016828D02*
X001541Y016828D01*
X001541Y016987D02*
X000726Y016987D01*
X000726Y017146D02*
X001541Y017146D01*
X001541Y017304D02*
X000726Y017304D01*
X000726Y017463D02*
X001541Y017463D01*
X001541Y017621D02*
X000726Y017621D01*
X000726Y017780D02*
X001541Y017780D01*
X001541Y017938D02*
X000726Y017938D01*
X000726Y018097D02*
X001541Y018097D01*
X001541Y018255D02*
X000726Y018255D01*
X000726Y018414D02*
X001541Y018414D01*
X001541Y018572D02*
X000726Y018572D01*
X000726Y018731D02*
X001541Y018731D01*
X001541Y018890D02*
X000726Y018890D01*
X000726Y019048D02*
X001541Y019048D01*
X001541Y019207D02*
X000726Y019207D01*
X000726Y019365D02*
X001626Y019365D01*
X001784Y019524D02*
X000726Y019524D01*
X000726Y019682D02*
X001943Y019682D01*
X002101Y019841D02*
X000726Y019841D01*
X000726Y019999D02*
X002260Y019999D01*
X002418Y020158D02*
X000726Y020158D01*
X000726Y020316D02*
X002577Y020316D01*
X002736Y020475D02*
X000726Y020475D01*
X000726Y020634D02*
X002894Y020634D01*
X003053Y020792D02*
X000726Y020792D01*
X000726Y020951D02*
X003211Y020951D01*
X003370Y021109D02*
X000726Y021109D01*
X000726Y021268D02*
X003528Y021268D01*
X003652Y021426D02*
X000726Y021426D01*
X000726Y021585D02*
X003652Y021585D01*
X003652Y021743D02*
X000726Y021743D01*
X000726Y021902D02*
X003652Y021902D01*
X003652Y022060D02*
X000726Y022060D01*
X000726Y022219D02*
X004526Y022219D01*
X004526Y022377D02*
X000726Y022377D01*
X000726Y022536D02*
X004526Y022536D01*
X004526Y022695D02*
X000726Y022695D01*
X000726Y022853D02*
X004526Y022853D01*
X004526Y023012D02*
X003196Y023012D01*
X003190Y023006D02*
X003296Y023112D01*
X003296Y023414D01*
X002888Y023414D01*
X002888Y023549D01*
X002753Y023549D01*
X002753Y023957D01*
X002451Y023957D01*
X002345Y023851D01*
X002345Y023549D01*
X002752Y023549D01*
X002752Y023414D01*
X002345Y023414D01*
X002345Y023112D01*
X002451Y023006D01*
X002753Y023006D01*
X002753Y023414D01*
X002888Y023414D01*
X002888Y023006D01*
X003190Y023006D01*
X003296Y023170D02*
X004526Y023170D01*
X004526Y023329D02*
X003296Y023329D01*
X003296Y023549D02*
X003296Y023851D01*
X003190Y023957D01*
X002888Y023957D01*
X002888Y023549D01*
X003296Y023549D01*
X003296Y023646D02*
X004093Y023646D01*
X004093Y023494D02*
X004198Y023388D01*
X004526Y023388D01*
X004526Y021471D01*
X004526Y021391D01*
X004561Y021306D01*
X004561Y021047D01*
X004667Y020941D01*
X005296Y020941D01*
X005401Y021047D01*
X005401Y021306D01*
X005436Y021391D01*
X005436Y021471D01*
X005436Y023388D01*
X005765Y023388D01*
X005870Y023494D01*
X005870Y023927D01*
X006676Y024733D01*
X006676Y024660D01*
X006656Y024640D01*
X006656Y023901D01*
X006762Y023795D01*
X007501Y023795D01*
X007607Y023901D01*
X007607Y024081D01*
X007647Y024180D01*
X007647Y024361D01*
X007607Y024459D01*
X007607Y024640D01*
X007586Y024660D01*
X007586Y025786D01*
X007634Y025833D01*
X007724Y026051D01*
X007724Y027112D01*
X007634Y027330D01*
X007467Y027496D01*
X007249Y027586D01*
X007014Y027586D01*
X006796Y027496D01*
X006629Y027330D01*
X006539Y027112D01*
X006539Y026051D01*
X006588Y025932D01*
X005271Y024615D01*
X004198Y024615D01*
X004093Y024509D01*
X004093Y023494D01*
X004099Y023487D02*
X002888Y023487D01*
X002752Y023487D02*
X001918Y023487D01*
X001918Y023329D02*
X002345Y023329D01*
X002345Y023170D02*
X001918Y023170D01*
X001918Y023112D02*
X001918Y023851D01*
X001812Y023957D01*
X001732Y023957D01*
X001732Y024246D01*
X001861Y024246D01*
X001966Y024352D01*
X001966Y025211D01*
X001861Y025316D01*
X001082Y025316D01*
X000977Y025211D01*
X000977Y024352D01*
X001082Y024246D01*
X001212Y024246D01*
X001212Y023957D01*
X001073Y023957D01*
X000967Y023851D01*
X000967Y023112D01*
X001073Y023006D01*
X001812Y023006D01*
X001918Y023112D01*
X001818Y023012D02*
X002445Y023012D01*
X002753Y023012D02*
X002888Y023012D01*
X002888Y023170D02*
X002753Y023170D01*
X002753Y023329D02*
X002888Y023329D01*
X002888Y023646D02*
X002753Y023646D01*
X002753Y023804D02*
X002888Y023804D01*
X003296Y023804D02*
X004093Y023804D01*
X004093Y023963D02*
X001732Y023963D01*
X001732Y024121D02*
X004093Y024121D01*
X004093Y024280D02*
X003014Y024280D01*
X003086Y024439D02*
X004093Y024439D01*
X004181Y024597D02*
X003565Y024597D01*
X003723Y024756D02*
X005412Y024756D01*
X005571Y024914D02*
X003882Y024914D01*
X004040Y025073D02*
X005729Y025073D01*
X005888Y025231D02*
X004199Y025231D01*
X004357Y025390D02*
X006046Y025390D01*
X006205Y025548D02*
X004516Y025548D01*
X004675Y025707D02*
X004755Y025707D01*
X004415Y026183D02*
X003192Y026183D01*
X003179Y026168D02*
X003519Y026535D01*
X003737Y026986D01*
X003811Y027481D01*
X003737Y027977D01*
X003519Y028428D01*
X003179Y028795D01*
X002896Y028958D01*
X003179Y028795D02*
X003179Y028795D01*
X003249Y028719D02*
X006149Y028719D01*
X005917Y028561D02*
X003396Y028561D01*
X003519Y028428D02*
X003519Y028428D01*
X003532Y028402D02*
X005759Y028402D01*
X005600Y028244D02*
X003608Y028244D01*
X003685Y028085D02*
X005442Y028085D01*
X005283Y027926D02*
X003744Y027926D01*
X003737Y027977D02*
X003737Y027977D01*
X003768Y027768D02*
X005125Y027768D01*
X004966Y027609D02*
X003792Y027609D01*
X003807Y027451D02*
X004750Y027451D01*
X004614Y027292D02*
X003783Y027292D01*
X003759Y027134D02*
X004548Y027134D01*
X004539Y026975D02*
X003731Y026975D01*
X003737Y026986D02*
X003737Y026986D01*
X003655Y026817D02*
X004539Y026817D01*
X004539Y026658D02*
X003579Y026658D01*
X003519Y026535D02*
X003519Y026535D01*
X003487Y026500D02*
X004539Y026500D01*
X004539Y026341D02*
X003339Y026341D01*
X003179Y026168D02*
X002745Y025918D01*
X002745Y025918D01*
X002257Y025806D01*
X001758Y025844D01*
X001291Y026026D01*
X001291Y026026D01*
X000900Y026339D01*
X000900Y026339D01*
X000726Y026593D01*
X000726Y026500D02*
X000790Y026500D01*
X000726Y026341D02*
X000898Y026341D01*
X000900Y026339D02*
X000900Y026339D01*
X000726Y026183D02*
X001096Y026183D01*
X001298Y026024D02*
X000726Y026024D01*
X000726Y025865D02*
X001702Y025865D01*
X001946Y025231D02*
X002117Y025231D01*
X002096Y025073D02*
X001966Y025073D01*
X001966Y024914D02*
X002096Y024914D01*
X002096Y024756D02*
X001966Y024756D01*
X001966Y024597D02*
X002096Y024597D01*
X002096Y024439D02*
X001966Y024439D01*
X001895Y024280D02*
X002168Y024280D01*
X002591Y024781D02*
X003381Y024781D01*
X005181Y026581D01*
X005131Y026581D01*
X005724Y026658D02*
X006539Y026658D01*
X006539Y026500D02*
X005724Y026500D01*
X005724Y026341D02*
X006539Y026341D01*
X006539Y026183D02*
X005724Y026183D01*
X005713Y026024D02*
X006550Y026024D01*
X006522Y025865D02*
X005647Y025865D01*
X005507Y025707D02*
X006363Y025707D01*
X006539Y026817D02*
X005724Y026817D01*
X005724Y026975D02*
X006539Y026975D01*
X006548Y027134D02*
X005777Y027134D01*
X005936Y027292D02*
X006614Y027292D01*
X006750Y027451D02*
X006094Y027451D01*
X006253Y027609D02*
X008626Y027609D01*
X008626Y027451D02*
X007512Y027451D01*
X007649Y027292D02*
X008614Y027292D01*
X008548Y027134D02*
X007715Y027134D01*
X007724Y026975D02*
X008539Y026975D01*
X008539Y026817D02*
X007724Y026817D01*
X007724Y026658D02*
X008539Y026658D01*
X008539Y026500D02*
X007724Y026500D01*
X007724Y026341D02*
X008473Y026341D01*
X008315Y026183D02*
X007724Y026183D01*
X007713Y026024D02*
X008156Y026024D01*
X007998Y025865D02*
X007647Y025865D01*
X007586Y025707D02*
X007839Y025707D01*
X007728Y025548D02*
X007586Y025548D01*
X007586Y025390D02*
X007721Y025390D01*
X007721Y025231D02*
X007586Y025231D01*
X007586Y025073D02*
X007721Y025073D01*
X007721Y024914D02*
X007586Y024914D01*
X007586Y024756D02*
X007721Y024756D01*
X007721Y024597D02*
X007607Y024597D01*
X007615Y024439D02*
X007721Y024439D01*
X007721Y024280D02*
X007647Y024280D01*
X007623Y024121D02*
X007721Y024121D01*
X007721Y023963D02*
X007607Y023963D01*
X007510Y023804D02*
X007721Y023804D01*
X007721Y023646D02*
X005870Y023646D01*
X005870Y023804D02*
X006752Y023804D01*
X006656Y023963D02*
X005906Y023963D01*
X006065Y024121D02*
X006656Y024121D01*
X006656Y024280D02*
X006223Y024280D01*
X006382Y024439D02*
X006656Y024439D01*
X006656Y024597D02*
X006541Y024597D01*
X006762Y023368D02*
X006656Y023262D01*
X006656Y022523D01*
X006657Y022522D01*
X006558Y022422D01*
X006558Y021643D01*
X006663Y021538D01*
X007600Y021538D01*
X007705Y021643D01*
X007705Y022422D01*
X007606Y022522D01*
X007607Y022523D01*
X007607Y023262D01*
X007501Y023368D01*
X006762Y023368D01*
X006723Y023329D02*
X005436Y023329D01*
X005436Y023170D02*
X006656Y023170D01*
X006656Y023012D02*
X005436Y023012D01*
X005436Y022853D02*
X006656Y022853D01*
X006656Y022695D02*
X005436Y022695D01*
X005436Y022536D02*
X006656Y022536D01*
X006558Y022377D02*
X005436Y022377D01*
X005436Y022219D02*
X006558Y022219D01*
X006558Y022060D02*
X006311Y022060D01*
X006311Y022076D02*
X006206Y022181D01*
X005931Y022181D01*
X005931Y021602D01*
X005851Y021602D01*
X005851Y022181D01*
X005577Y022181D01*
X005471Y022076D01*
X005471Y021601D01*
X005851Y021601D01*
X005851Y021521D01*
X005931Y021521D01*
X005931Y020941D01*
X006206Y020941D01*
X006311Y021047D01*
X006311Y021521D01*
X005931Y021521D01*
X005931Y021601D01*
X006311Y021601D01*
X006311Y022076D01*
X006311Y021902D02*
X006558Y021902D01*
X006558Y021743D02*
X006311Y021743D01*
X006311Y021426D02*
X007659Y021426D01*
X007647Y021585D02*
X007721Y021585D01*
X007705Y021743D02*
X007721Y021743D01*
X007705Y021902D02*
X007721Y021902D01*
X007705Y022060D02*
X007721Y022060D01*
X007705Y022219D02*
X007721Y022219D01*
X007705Y022377D02*
X007721Y022377D01*
X007721Y022536D02*
X007607Y022536D01*
X007607Y022695D02*
X007721Y022695D01*
X007721Y022853D02*
X007607Y022853D01*
X007607Y023012D02*
X007721Y023012D01*
X007721Y023170D02*
X007607Y023170D01*
X007540Y023329D02*
X007721Y023329D01*
X007721Y023487D02*
X005863Y023487D01*
X005851Y022060D02*
X005931Y022060D01*
X005931Y021902D02*
X005851Y021902D01*
X005851Y021743D02*
X005931Y021743D01*
X005931Y021585D02*
X006616Y021585D01*
X006558Y021268D02*
X006311Y021268D01*
X006311Y021109D02*
X006558Y021109D01*
X006558Y020951D02*
X006215Y020951D01*
X005931Y020951D02*
X005851Y020951D01*
X005851Y020941D02*
X005851Y021521D01*
X005471Y021521D01*
X005471Y021047D01*
X005577Y020941D01*
X005851Y020941D01*
X005851Y021109D02*
X005931Y021109D01*
X005931Y021268D02*
X005851Y021268D01*
X005851Y021426D02*
X005931Y021426D01*
X005851Y021585D02*
X005436Y021585D01*
X005436Y021743D02*
X005471Y021743D01*
X005471Y021902D02*
X005436Y021902D01*
X005436Y022060D02*
X005471Y022060D01*
X005436Y021426D02*
X005471Y021426D01*
X005471Y021268D02*
X005401Y021268D01*
X005401Y021109D02*
X005471Y021109D01*
X005568Y020951D02*
X005305Y020951D01*
X004658Y020951D02*
X004395Y020951D01*
X004491Y021109D02*
X004561Y021109D01*
X004561Y021268D02*
X004491Y021268D01*
X004491Y021426D02*
X004526Y021426D01*
X004526Y021585D02*
X004491Y021585D01*
X004491Y021743D02*
X004526Y021743D01*
X004526Y021902D02*
X004491Y021902D01*
X004491Y022060D02*
X004526Y022060D01*
X003731Y020792D02*
X006558Y020792D01*
X006558Y020634D02*
X003573Y020634D01*
X003414Y020475D02*
X006623Y020475D01*
X007131Y020930D02*
X007530Y020930D01*
X007981Y021381D01*
X007981Y025481D01*
X009081Y026581D01*
X009724Y026658D02*
X010539Y026658D01*
X010539Y026500D02*
X009724Y026500D01*
X009724Y026341D02*
X010539Y026341D01*
X010539Y026282D02*
X009424Y025167D01*
X009296Y025039D01*
X009226Y024872D01*
X009226Y024615D01*
X008898Y024615D01*
X008793Y024509D01*
X008793Y023494D01*
X008898Y023388D01*
X009226Y023388D01*
X009226Y021471D01*
X009226Y021391D01*
X009261Y021306D01*
X009261Y021047D01*
X009367Y020941D01*
X009996Y020941D01*
X010101Y021047D01*
X010101Y021306D01*
X010136Y021391D01*
X010136Y021471D01*
X010136Y023388D01*
X010465Y023388D01*
X010570Y023494D01*
X010570Y024509D01*
X010465Y024615D01*
X010158Y024615D01*
X010931Y025388D01*
X011126Y025193D01*
X011126Y024710D01*
X011106Y024690D01*
X011106Y023951D01*
X011212Y023845D01*
X011951Y023845D01*
X012057Y023951D01*
X012057Y024690D01*
X012036Y024710D01*
X012036Y025291D01*
X012036Y025472D01*
X011967Y025639D01*
X011674Y025932D01*
X011724Y026051D01*
X011724Y027112D01*
X011634Y027330D01*
X011467Y027496D01*
X011249Y027586D01*
X011014Y027586D01*
X010796Y027496D01*
X010629Y027330D01*
X010539Y027112D01*
X010539Y026282D01*
X010439Y026183D02*
X009724Y026183D01*
X009713Y026024D02*
X010281Y026024D01*
X010122Y025865D02*
X009647Y025865D01*
X009507Y025707D02*
X009963Y025707D01*
X009805Y025548D02*
X008416Y025548D01*
X008257Y025390D02*
X009646Y025390D01*
X009488Y025231D02*
X008241Y025231D01*
X008241Y025073D02*
X009329Y025073D01*
X009244Y024914D02*
X008241Y024914D01*
X008241Y024756D02*
X009226Y024756D01*
X008881Y024597D02*
X008241Y024597D01*
X008241Y024439D02*
X008793Y024439D01*
X008793Y024280D02*
X008241Y024280D01*
X008241Y024121D02*
X008793Y024121D01*
X008793Y023963D02*
X008241Y023963D01*
X008241Y023804D02*
X008793Y023804D01*
X008793Y023646D02*
X008241Y023646D01*
X008241Y023487D02*
X008799Y023487D01*
X009226Y023329D02*
X008241Y023329D01*
X008241Y023170D02*
X009226Y023170D01*
X009226Y023012D02*
X008241Y023012D01*
X008241Y022853D02*
X009226Y022853D01*
X009226Y022695D02*
X008241Y022695D01*
X008241Y022536D02*
X009226Y022536D01*
X009226Y022377D02*
X008241Y022377D01*
X008241Y022219D02*
X009226Y022219D01*
X009086Y022181D02*
X008457Y022181D01*
X008352Y022076D01*
X008352Y021047D01*
X008457Y020941D01*
X008541Y020941D01*
X008541Y020779D01*
X008459Y020697D01*
X008401Y020557D01*
X008401Y020406D01*
X008459Y020266D01*
X008566Y020159D01*
X008706Y020101D01*
X008857Y020101D01*
X008997Y020159D01*
X009104Y020266D01*
X009161Y020406D01*
X009161Y020557D01*
X009104Y020697D01*
X009021Y020779D01*
X009021Y020941D01*
X009086Y020941D01*
X009191Y021047D01*
X009191Y022076D01*
X009086Y022181D01*
X009191Y022060D02*
X009226Y022060D01*
X009226Y021902D02*
X009191Y021902D01*
X009191Y021743D02*
X009226Y021743D01*
X009226Y021585D02*
X009191Y021585D01*
X009191Y021426D02*
X009226Y021426D01*
X009191Y021268D02*
X009261Y021268D01*
X009261Y021109D02*
X009191Y021109D01*
X009095Y020951D02*
X009358Y020951D01*
X009021Y020792D02*
X011096Y020792D01*
X011096Y020634D02*
X009130Y020634D01*
X009161Y020475D02*
X011154Y020475D01*
X011601Y020316D02*
X009124Y020316D01*
X008993Y020158D02*
X011621Y020158D01*
X011726Y019999D02*
X004264Y019999D01*
X004378Y019841D02*
X017501Y019841D01*
X017441Y019682D02*
X004436Y019682D01*
X004436Y019524D02*
X005886Y019524D01*
X005916Y019554D02*
X005809Y019447D01*
X005751Y019307D01*
X005751Y019156D01*
X005809Y019016D01*
X005916Y018909D01*
X006056Y018851D01*
X006172Y018851D01*
X006255Y018769D01*
X006255Y017981D01*
X006360Y017875D01*
X006903Y017875D01*
X007008Y017981D01*
X007008Y018391D01*
X008008Y018391D01*
X008008Y018293D01*
X008113Y018188D01*
X008786Y018188D01*
X008801Y018172D01*
X008801Y018075D01*
X008113Y018075D01*
X008008Y017970D01*
X008008Y017191D01*
X008113Y017085D01*
X008341Y017085D01*
X008341Y016831D01*
X008262Y016831D01*
X008078Y016755D01*
X007938Y016615D01*
X007861Y016431D01*
X007861Y016232D01*
X007938Y016048D01*
X008078Y015908D01*
X008262Y015831D01*
X008078Y015755D01*
X007938Y015615D01*
X007861Y015431D01*
X007861Y015351D01*
X008661Y015351D01*
X008661Y015311D01*
X008701Y015311D01*
X008701Y014831D01*
X009101Y014831D01*
X009285Y014908D01*
X009425Y015048D01*
X009501Y015232D01*
X009501Y015311D01*
X008702Y015311D01*
X008702Y015351D01*
X009501Y015351D01*
X009501Y015431D01*
X009425Y015615D01*
X009285Y015755D01*
X009101Y015831D01*
X008701Y015831D01*
X008701Y015352D01*
X008661Y015352D01*
X008661Y015831D01*
X008262Y015831D01*
X009101Y015831D01*
X009285Y015908D01*
X009425Y016048D01*
X009501Y016232D01*
X009501Y016431D01*
X009425Y016615D01*
X009285Y016755D01*
X009101Y016831D01*
X008821Y016831D01*
X008821Y017085D01*
X009050Y017085D01*
X009155Y017191D01*
X009155Y017491D01*
X009671Y017491D01*
X009891Y017271D01*
X010272Y017271D01*
X010541Y017541D01*
X010541Y017922D01*
X010272Y018191D01*
X009891Y018191D01*
X009671Y017971D01*
X009526Y017971D01*
X009561Y018056D01*
X009561Y018207D01*
X009504Y018347D01*
X009397Y018454D01*
X009257Y018511D01*
X009155Y018511D01*
X009155Y019072D01*
X009050Y019178D01*
X008113Y019178D01*
X008008Y019072D01*
X008008Y018871D01*
X007008Y018871D01*
X007008Y019232D01*
X006903Y019338D01*
X006499Y019338D01*
X006454Y019447D01*
X006347Y019554D01*
X006207Y019611D01*
X006056Y019611D01*
X005916Y019554D01*
X005776Y019365D02*
X004396Y019365D01*
X004307Y019207D02*
X005751Y019207D01*
X005796Y019048D02*
X004105Y019048D01*
X003962Y018174D02*
X003489Y018174D01*
X003489Y017639D01*
X003374Y017639D01*
X003374Y018174D01*
X002901Y018174D01*
X002683Y018084D01*
X002517Y017917D01*
X002426Y017699D01*
X002426Y017639D01*
X003374Y017639D01*
X003374Y017524D01*
X003489Y017524D01*
X003489Y017639D01*
X004436Y017639D01*
X004436Y017699D01*
X004346Y017917D01*
X004180Y018084D01*
X003962Y018174D01*
X004148Y018097D02*
X006255Y018097D01*
X006255Y018255D02*
X002021Y018255D01*
X002021Y018097D02*
X002715Y018097D01*
X002538Y017938D02*
X002021Y017938D01*
X002021Y017780D02*
X002460Y017780D01*
X002426Y017524D02*
X002426Y017464D01*
X002517Y017246D01*
X002683Y017079D01*
X002901Y016989D01*
X003374Y016989D01*
X003374Y017524D01*
X002426Y017524D01*
X002427Y017463D02*
X002021Y017463D01*
X002021Y017621D02*
X003374Y017621D01*
X003489Y017621D02*
X008008Y017621D01*
X008008Y017463D02*
X006928Y017463D01*
X006903Y017487D02*
X007008Y017382D01*
X007008Y016775D01*
X006650Y016775D01*
X006613Y016775D01*
X006613Y017487D01*
X006360Y017487D01*
X006255Y017382D01*
X006255Y016775D01*
X006613Y016775D01*
X006613Y016738D01*
X006255Y016738D01*
X006255Y016130D01*
X006360Y016025D01*
X006613Y016025D01*
X006613Y016738D01*
X006650Y016738D01*
X006650Y016775D01*
X006650Y017487D01*
X006903Y017487D01*
X007008Y017304D02*
X008008Y017304D01*
X008053Y017146D02*
X007008Y017146D01*
X007008Y016987D02*
X008341Y016987D01*
X008255Y016828D02*
X007008Y016828D01*
X007008Y016738D02*
X006650Y016738D01*
X006650Y016025D01*
X006903Y016025D01*
X007008Y016130D01*
X007008Y016738D01*
X007008Y016670D02*
X007993Y016670D01*
X007895Y016511D02*
X007008Y016511D01*
X007008Y016353D02*
X007861Y016353D01*
X007877Y016194D02*
X007008Y016194D01*
X006914Y016036D02*
X007950Y016036D01*
X008151Y015877D02*
X003263Y015877D01*
X003365Y015719D02*
X005279Y015719D01*
X005121Y015560D02*
X003401Y015560D01*
X003389Y015402D02*
X004962Y015402D01*
X004804Y015243D02*
X003320Y015243D01*
X003129Y015084D02*
X004645Y015084D01*
X004487Y014926D02*
X003214Y014926D01*
X003345Y014767D02*
X003680Y014767D01*
X003602Y014609D02*
X003401Y014609D01*
X003401Y014450D02*
X003604Y014450D01*
X003684Y014292D02*
X003343Y014292D01*
X002601Y014609D02*
X002561Y014609D01*
X002561Y014767D02*
X002601Y014767D01*
X002601Y014926D02*
X002561Y014926D01*
X002561Y015084D02*
X002601Y015084D01*
X002601Y015243D02*
X002561Y015243D01*
X002561Y015402D02*
X002601Y015402D01*
X002601Y015560D02*
X002561Y015560D01*
X002561Y015719D02*
X002601Y015719D01*
X002601Y015877D02*
X002561Y015877D01*
X002021Y016036D02*
X006349Y016036D01*
X006255Y016194D02*
X002021Y016194D01*
X002021Y016353D02*
X006255Y016353D01*
X006255Y016511D02*
X002021Y016511D01*
X002021Y016670D02*
X006255Y016670D01*
X006255Y016828D02*
X002021Y016828D01*
X002021Y016987D02*
X006255Y016987D01*
X006255Y017146D02*
X004246Y017146D01*
X004180Y017079D02*
X004346Y017246D01*
X004436Y017464D01*
X004436Y017524D01*
X003489Y017524D01*
X003489Y016989D01*
X003962Y016989D01*
X004180Y017079D01*
X004370Y017304D02*
X006255Y017304D01*
X006335Y017463D02*
X004436Y017463D01*
X004403Y017780D02*
X008008Y017780D01*
X008008Y017938D02*
X006966Y017938D01*
X007008Y018097D02*
X008801Y018097D01*
X009155Y018572D02*
X012515Y018572D01*
X012511Y018731D02*
X009155Y018731D01*
X009155Y018890D02*
X012556Y018890D01*
X012671Y019048D02*
X009155Y019048D01*
X009436Y018414D02*
X012581Y018414D01*
X012733Y018255D02*
X011845Y018255D01*
X012081Y018097D02*
X012082Y018097D01*
X012081Y017938D02*
X012082Y017938D01*
X012081Y017780D02*
X012082Y017780D01*
X012082Y017731D02*
X012082Y017271D01*
X012272Y017271D01*
X012532Y017532D01*
X012588Y017398D01*
X012728Y017258D01*
X012912Y017181D01*
X012728Y017105D01*
X012588Y016965D01*
X012511Y016781D01*
X012511Y016582D01*
X012588Y016398D01*
X012591Y016394D01*
X012591Y015211D01*
X011421Y016381D01*
X011421Y016421D01*
X011541Y016541D01*
X011541Y016922D01*
X011272Y017191D01*
X011231Y017191D01*
X011621Y017582D01*
X011621Y017541D01*
X011891Y017271D01*
X012081Y017271D01*
X012081Y017731D01*
X012082Y017731D01*
X012081Y017621D02*
X012082Y017621D01*
X012081Y017463D02*
X012082Y017463D01*
X012081Y017304D02*
X012082Y017304D01*
X012305Y017304D02*
X012682Y017304D01*
X012561Y017463D02*
X012463Y017463D01*
X012825Y017146D02*
X011318Y017146D01*
X011343Y017304D02*
X011858Y017304D01*
X011700Y017463D02*
X011502Y017463D01*
X011140Y017780D02*
X010541Y017780D01*
X010541Y017621D02*
X010982Y017621D01*
X010823Y017463D02*
X010463Y017463D01*
X010305Y017304D02*
X010665Y017304D01*
X010506Y017146D02*
X009110Y017146D01*
X009155Y017304D02*
X009858Y017304D01*
X009700Y017463D02*
X009155Y017463D01*
X008821Y016987D02*
X010395Y016987D01*
X010391Y016828D02*
X009108Y016828D01*
X009370Y016670D02*
X010391Y016670D01*
X010391Y016511D02*
X009468Y016511D01*
X009501Y016353D02*
X010391Y016353D01*
X010391Y016194D02*
X009486Y016194D01*
X009413Y016036D02*
X010391Y016036D01*
X010391Y015877D02*
X009211Y015877D01*
X009321Y015719D02*
X010391Y015719D01*
X010391Y015560D02*
X009448Y015560D01*
X009501Y015402D02*
X010391Y015402D01*
X010391Y015243D02*
X009501Y015243D01*
X009440Y015084D02*
X010391Y015084D01*
X010391Y014926D02*
X009303Y014926D01*
X009255Y014767D02*
X010391Y014767D01*
X010391Y014609D02*
X009428Y014609D01*
X009493Y014450D02*
X010391Y014450D01*
X010391Y014292D02*
X009501Y014292D01*
X009460Y014133D02*
X010490Y014133D01*
X010649Y013975D02*
X009352Y013975D01*
X009138Y013816D02*
X010807Y013816D01*
X010966Y013658D02*
X009382Y013658D01*
X009473Y013499D02*
X011124Y013499D01*
X011283Y013341D02*
X009501Y013341D01*
X009481Y013182D02*
X010498Y013182D01*
X010446Y013023D02*
X009401Y013023D01*
X009182Y012865D02*
X010446Y012865D01*
X010446Y012548D02*
X006121Y012548D01*
X006121Y012706D02*
X010904Y012706D01*
X011059Y012706D02*
X011743Y012706D01*
X011759Y012666D02*
X011866Y012559D01*
X012006Y012501D01*
X012157Y012501D01*
X012241Y012536D01*
X012241Y011611D01*
X011585Y012267D01*
X011517Y012335D01*
X011505Y012340D01*
X011516Y012352D01*
X011516Y012664D01*
X011059Y012664D01*
X011059Y012819D01*
X011516Y012819D01*
X011516Y013107D01*
X011701Y012922D01*
X011701Y012806D01*
X011759Y012666D01*
X011894Y012548D02*
X011516Y012548D01*
X011516Y012389D02*
X012241Y012389D01*
X012241Y012231D02*
X011621Y012231D01*
X011780Y012072D02*
X012241Y012072D01*
X012241Y011914D02*
X011939Y011914D01*
X012097Y011755D02*
X012241Y011755D01*
X011701Y012865D02*
X011516Y012865D01*
X011516Y013023D02*
X011600Y013023D01*
X011059Y013023D02*
X010904Y013023D01*
X010904Y012865D02*
X011059Y012865D01*
X011059Y013182D02*
X010904Y013182D01*
X010446Y012389D02*
X006121Y012389D01*
X006121Y012231D02*
X010241Y012231D01*
X010083Y012072D02*
X006121Y012072D01*
X006121Y011914D02*
X009726Y011914D01*
X009621Y011755D02*
X006121Y011755D01*
X006121Y011597D02*
X009601Y011597D01*
X009650Y011438D02*
X006912Y011438D01*
X007002Y011279D02*
X009838Y011279D01*
X010125Y011279D02*
X010446Y011279D01*
X010446Y011438D02*
X010313Y011438D01*
X010361Y011597D02*
X010446Y011597D01*
X010444Y011755D02*
X010446Y011755D01*
X011028Y011121D02*
X007011Y011121D01*
X006950Y010962D02*
X011001Y010962D01*
X010941Y010804D02*
X009288Y010804D01*
X009446Y010645D02*
X010941Y010645D01*
X010941Y010487D02*
X009615Y010487D01*
X009774Y010328D02*
X010091Y010328D01*
X010007Y010170D02*
X009933Y010170D01*
X009465Y009853D02*
X009281Y009853D01*
X008881Y009853D02*
X008281Y009853D01*
X008280Y009851D02*
X008561Y010133D01*
X008561Y010321D01*
X008092Y010321D01*
X008092Y010341D01*
X008561Y010341D01*
X008561Y010530D01*
X008280Y010811D01*
X008091Y010811D01*
X008091Y010342D01*
X008071Y010342D01*
X008071Y010811D01*
X007883Y010811D01*
X007601Y010530D01*
X007601Y010341D01*
X008071Y010341D01*
X008071Y010321D01*
X007601Y010321D01*
X007601Y010133D01*
X007883Y009851D01*
X008071Y009851D01*
X008071Y010321D01*
X008091Y010321D01*
X008091Y009851D01*
X008280Y009851D01*
X008091Y009853D02*
X008071Y009853D01*
X008071Y010011D02*
X008091Y010011D01*
X008091Y010170D02*
X008071Y010170D01*
X008071Y010328D02*
X005878Y010328D01*
X005878Y010170D02*
X007601Y010170D01*
X007723Y010011D02*
X005786Y010011D01*
X005649Y009796D02*
X005951Y009796D01*
X006057Y009690D01*
X006057Y009388D01*
X005649Y009388D01*
X005649Y009253D01*
X006057Y009253D01*
X006057Y008951D01*
X005951Y008845D01*
X005649Y008845D01*
X005649Y009252D01*
X005514Y009252D01*
X005514Y008845D01*
X005212Y008845D01*
X005106Y008951D01*
X005106Y009253D01*
X005514Y009253D01*
X005514Y009388D01*
X005514Y009796D01*
X005212Y009796D01*
X005106Y009690D01*
X005106Y009388D01*
X005514Y009388D01*
X005649Y009388D01*
X005649Y009796D01*
X005649Y009694D02*
X005514Y009694D01*
X005514Y009535D02*
X005649Y009535D01*
X005649Y009377D02*
X007601Y009377D01*
X007607Y009535D02*
X006057Y009535D01*
X006053Y009694D02*
X007765Y009694D01*
X007881Y009853D02*
X004842Y009853D01*
X004683Y009694D02*
X005110Y009694D01*
X005106Y009535D02*
X004574Y009535D01*
X004711Y009377D02*
X005514Y009377D01*
X005514Y009218D02*
X005649Y009218D01*
X005649Y009060D02*
X005514Y009060D01*
X005514Y008901D02*
X005649Y008901D01*
X006007Y008901D02*
X007833Y008901D01*
X007814Y008743D02*
X004771Y008743D01*
X004771Y008901D02*
X005155Y008901D01*
X005106Y009060D02*
X004771Y009060D01*
X004771Y009218D02*
X005106Y009218D01*
X004771Y008584D02*
X007655Y008584D01*
X007601Y008426D02*
X004771Y008426D01*
X004720Y008267D02*
X005106Y008267D01*
X005106Y008312D02*
X005106Y007573D01*
X005212Y007467D01*
X005341Y007467D01*
X005341Y007336D01*
X005152Y007336D01*
X005046Y007231D01*
X005046Y006452D01*
X005152Y006346D01*
X006011Y006346D01*
X006116Y006452D01*
X006116Y007231D01*
X006011Y007336D01*
X005821Y007336D01*
X005821Y007467D01*
X005951Y007467D01*
X006057Y007573D01*
X006057Y008312D01*
X005951Y008418D01*
X005212Y008418D01*
X005106Y008312D01*
X005106Y008109D02*
X004596Y008109D01*
X004291Y008109D02*
X004251Y008109D01*
X004251Y007991D02*
X004251Y008791D01*
X003771Y008791D01*
X003771Y008392D01*
X003848Y008208D01*
X003988Y008068D01*
X004172Y007991D01*
X004251Y007991D01*
X004251Y008267D02*
X004291Y008267D01*
X004291Y008426D02*
X004251Y008426D01*
X004251Y008584D02*
X004291Y008584D01*
X004291Y008743D02*
X004251Y008743D01*
X003771Y008743D02*
X002991Y008743D01*
X002991Y008901D02*
X003771Y008901D01*
X003771Y009060D02*
X002991Y009060D01*
X003058Y009218D02*
X003771Y009218D01*
X003832Y009377D02*
X003216Y009377D01*
X002991Y008584D02*
X003771Y008584D01*
X003771Y008426D02*
X002991Y008426D01*
X002940Y008267D02*
X003823Y008267D01*
X003947Y008109D02*
X002816Y008109D01*
X002771Y007950D02*
X005106Y007950D01*
X005106Y007791D02*
X002771Y007791D01*
X002771Y007633D02*
X005106Y007633D01*
X005204Y007474D02*
X002771Y007474D01*
X002771Y007316D02*
X005132Y007316D01*
X005046Y007157D02*
X002771Y007157D01*
X002771Y006999D02*
X003997Y006999D01*
X003988Y006995D02*
X003848Y006855D01*
X003771Y006671D01*
X003771Y006271D01*
X004251Y006271D01*
X004251Y006231D01*
X004291Y006231D01*
X004291Y005431D01*
X004371Y005431D01*
X004555Y005508D01*
X004695Y005648D01*
X004771Y005832D01*
X004771Y006231D01*
X004292Y006231D01*
X004292Y006271D01*
X004771Y006271D01*
X004771Y006671D01*
X004695Y006855D01*
X004555Y006995D01*
X004371Y007071D01*
X004291Y007071D01*
X004291Y006272D01*
X004251Y006272D01*
X004251Y007071D01*
X004172Y007071D01*
X003988Y006995D01*
X003842Y006840D02*
X002921Y006840D01*
X002987Y006682D02*
X003776Y006682D01*
X003771Y006523D02*
X002991Y006523D01*
X002991Y006365D02*
X003771Y006365D01*
X003771Y006231D02*
X003771Y005832D01*
X003848Y005648D01*
X003988Y005508D01*
X004172Y005431D01*
X004251Y005431D01*
X004251Y006231D01*
X003771Y006231D01*
X003771Y006206D02*
X002991Y006206D01*
X002991Y006048D02*
X003771Y006048D01*
X003771Y005889D02*
X002991Y005889D01*
X002949Y005730D02*
X003813Y005730D01*
X003924Y005572D02*
X002839Y005572D01*
X002807Y005413D02*
X002353Y005413D01*
X002944Y005413D02*
X005046Y005413D01*
X005046Y005332D02*
X005152Y005227D01*
X006011Y005227D01*
X006116Y005332D01*
X006116Y005791D01*
X006184Y005791D01*
X006266Y005709D01*
X006406Y005651D01*
X006557Y005651D01*
X006697Y005709D01*
X006804Y005816D01*
X006861Y005956D01*
X006861Y006107D01*
X006804Y006247D01*
X006697Y006354D01*
X006557Y006411D01*
X006406Y006411D01*
X006266Y006354D01*
X006184Y006271D01*
X005939Y006271D01*
X005898Y006274D01*
X005891Y006271D01*
X005884Y006271D01*
X005846Y006256D01*
X005808Y006243D01*
X005802Y006238D01*
X005795Y006235D01*
X005777Y006216D01*
X005152Y006216D01*
X005046Y006111D01*
X005046Y005332D01*
X005124Y005255D02*
X003114Y005255D01*
X003106Y005096D02*
X010041Y005096D01*
X010041Y004938D02*
X003086Y004938D01*
X003086Y004779D02*
X010041Y004779D01*
X010041Y004621D02*
X003086Y004621D01*
X003240Y004462D02*
X010041Y004462D01*
X010041Y004304D02*
X003399Y004304D01*
X003557Y004145D02*
X005716Y004145D01*
X005558Y003986D02*
X003716Y003986D01*
X003874Y003828D02*
X005451Y003828D01*
X005451Y003669D02*
X004033Y003669D01*
X003793Y002718D02*
X005451Y002718D01*
X005451Y002560D02*
X003847Y002560D01*
X003871Y002401D02*
X005533Y002401D01*
X005692Y002242D02*
X003895Y002242D01*
X003904Y002084D02*
X013035Y002084D01*
X013035Y001925D02*
X003880Y001925D01*
X003856Y001767D02*
X013071Y001767D01*
X013591Y003035D02*
X010325Y003035D01*
X009451Y003511D02*
X009411Y003511D01*
X009411Y003483D02*
X009130Y003201D01*
X008733Y003201D01*
X008451Y003483D01*
X008451Y003880D01*
X008733Y004161D01*
X009130Y004161D01*
X009411Y003880D01*
X009411Y003483D01*
X009363Y003352D02*
X009281Y003352D01*
X009411Y003669D02*
X009451Y003669D01*
X009451Y003828D02*
X009411Y003828D01*
X009305Y003986D02*
X009558Y003986D01*
X009716Y004145D02*
X009147Y004145D01*
X008716Y004145D02*
X008147Y004145D01*
X008130Y004161D02*
X007733Y004161D01*
X007451Y003880D01*
X007451Y003483D01*
X007733Y003201D01*
X008130Y003201D01*
X008411Y003483D01*
X008411Y003880D01*
X008130Y004161D01*
X008305Y003986D02*
X008558Y003986D01*
X008451Y003828D02*
X008411Y003828D01*
X008411Y003669D02*
X008451Y003669D01*
X008451Y003511D02*
X008411Y003511D01*
X008281Y003352D02*
X008582Y003352D01*
X008606Y003035D02*
X008256Y003035D01*
X008130Y003161D02*
X007733Y003161D01*
X007451Y002880D01*
X007451Y002483D01*
X007733Y002201D01*
X008130Y002201D01*
X008411Y002483D01*
X008411Y002880D01*
X008130Y003161D01*
X008411Y002877D02*
X008451Y002877D01*
X008451Y002718D02*
X008411Y002718D01*
X008411Y002560D02*
X008451Y002560D01*
X008533Y002401D02*
X008330Y002401D01*
X008171Y002242D02*
X008692Y002242D01*
X007692Y002242D02*
X007171Y002242D01*
X007130Y002201D02*
X007411Y002483D01*
X007411Y002880D01*
X007130Y003161D01*
X006733Y003161D01*
X006451Y002880D01*
X006451Y002483D01*
X006733Y002201D01*
X007130Y002201D01*
X007330Y002401D02*
X007533Y002401D01*
X007451Y002560D02*
X007411Y002560D01*
X007411Y002718D02*
X007451Y002718D01*
X007451Y002877D02*
X007411Y002877D01*
X007256Y003035D02*
X007606Y003035D01*
X007582Y003352D02*
X007281Y003352D01*
X007411Y003483D02*
X007130Y003201D01*
X006733Y003201D01*
X006451Y003483D01*
X006451Y003880D01*
X006733Y004161D01*
X007130Y004161D01*
X007411Y003880D01*
X007411Y003483D01*
X007411Y003511D02*
X007451Y003511D01*
X007451Y003669D02*
X007411Y003669D01*
X007411Y003828D02*
X007451Y003828D01*
X007558Y003986D02*
X007305Y003986D01*
X007147Y004145D02*
X007716Y004145D01*
X006716Y004145D02*
X006147Y004145D01*
X006305Y003986D02*
X006558Y003986D01*
X006451Y003828D02*
X006411Y003828D01*
X006411Y003669D02*
X006451Y003669D01*
X006451Y003511D02*
X006411Y003511D01*
X006281Y003352D02*
X006582Y003352D01*
X006606Y003035D02*
X006256Y003035D01*
X006411Y002877D02*
X006451Y002877D01*
X006451Y002718D02*
X006411Y002718D01*
X006411Y002560D02*
X006451Y002560D01*
X006533Y002401D02*
X006330Y002401D01*
X006171Y002242D02*
X006692Y002242D01*
X003823Y001608D02*
X020291Y001608D01*
X020318Y001450D02*
X003747Y001450D01*
X003671Y001291D02*
X020441Y001291D01*
X020599Y001133D02*
X003571Y001133D01*
X003424Y000974D02*
X025476Y000974D01*
X025500Y000939D02*
X025500Y000939D01*
X025654Y000816D02*
X003275Y000816D01*
X006039Y005255D02*
X010041Y005255D01*
X010040Y005413D02*
X006116Y005413D01*
X006116Y005572D02*
X010077Y005572D01*
X010077Y005730D02*
X006718Y005730D01*
X006834Y005889D02*
X010077Y005889D01*
X010026Y006048D02*
X006861Y006048D01*
X006820Y006206D02*
X009867Y006206D01*
X009709Y006365D02*
X006670Y006365D01*
X006293Y006365D02*
X006029Y006365D01*
X006116Y006523D02*
X009550Y006523D01*
X009392Y006682D02*
X006116Y006682D01*
X006116Y006840D02*
X009233Y006840D01*
X009075Y006999D02*
X006116Y006999D01*
X006116Y007157D02*
X008916Y007157D01*
X008758Y007316D02*
X006031Y007316D01*
X005958Y007474D02*
X008599Y007474D01*
X008440Y007633D02*
X006057Y007633D01*
X006057Y007791D02*
X008282Y007791D01*
X008561Y008267D02*
X008601Y008267D01*
X008601Y008426D02*
X008561Y008426D01*
X008507Y008584D02*
X008655Y008584D01*
X008431Y008743D02*
X008349Y008743D01*
X008561Y009377D02*
X008601Y009377D01*
X008607Y009535D02*
X008556Y009535D01*
X008398Y009694D02*
X008765Y009694D01*
X008723Y010011D02*
X008440Y010011D01*
X008561Y010170D02*
X008601Y010170D01*
X008601Y010328D02*
X008092Y010328D01*
X008091Y010487D02*
X008071Y010487D01*
X008071Y010645D02*
X008091Y010645D01*
X008091Y010804D02*
X008071Y010804D01*
X007875Y010804D02*
X006713Y010804D01*
X006550Y010804D02*
X005878Y010804D01*
X005878Y010645D02*
X007716Y010645D01*
X007601Y010487D02*
X005878Y010487D01*
X006121Y011438D02*
X006351Y011438D01*
X006121Y012865D02*
X008181Y012865D01*
X007962Y013023D02*
X007908Y013023D01*
X007986Y013816D02*
X008225Y013816D01*
X008011Y013975D02*
X007972Y013975D01*
X007986Y014767D02*
X008107Y014767D01*
X008060Y014926D02*
X007986Y014926D01*
X007922Y015084D02*
X007913Y015084D01*
X007861Y015243D02*
X007665Y015243D01*
X007711Y015402D02*
X007861Y015402D01*
X007915Y015560D02*
X007689Y015560D01*
X007582Y015719D02*
X008042Y015719D01*
X008661Y015719D02*
X008701Y015719D01*
X008701Y015560D02*
X008661Y015560D01*
X008661Y015402D02*
X008701Y015402D01*
X008701Y015243D02*
X008661Y015243D01*
X008661Y015084D02*
X008701Y015084D01*
X008701Y014926D02*
X008661Y014926D01*
X006996Y014609D02*
X006866Y014609D01*
X006866Y014450D02*
X006996Y014450D01*
X006996Y014292D02*
X006866Y014292D01*
X006848Y014133D02*
X007015Y014133D01*
X007010Y013975D02*
X006853Y013975D01*
X006866Y013816D02*
X006996Y013816D01*
X006996Y013658D02*
X006866Y013658D01*
X006866Y013499D02*
X006996Y013499D01*
X006996Y013341D02*
X006866Y013341D01*
X006866Y013182D02*
X006996Y013182D01*
X007075Y013023D02*
X006788Y013023D01*
X008288Y010804D02*
X008875Y010804D01*
X008716Y010645D02*
X008446Y010645D01*
X008561Y010487D02*
X008601Y010487D01*
X007601Y009218D02*
X006057Y009218D01*
X006057Y009060D02*
X007674Y009060D01*
X007601Y008267D02*
X006057Y008267D01*
X006057Y008109D02*
X007625Y008109D01*
X007784Y007950D02*
X006057Y007950D01*
X005046Y006999D02*
X004546Y006999D01*
X004701Y006840D02*
X005046Y006840D01*
X005046Y006682D02*
X004767Y006682D01*
X004771Y006523D02*
X005046Y006523D01*
X005134Y006365D02*
X004771Y006365D01*
X004771Y006206D02*
X005141Y006206D01*
X005046Y006048D02*
X004771Y006048D01*
X004771Y005889D02*
X005046Y005889D01*
X005046Y005730D02*
X004729Y005730D01*
X004619Y005572D02*
X005046Y005572D01*
X004291Y005572D02*
X004251Y005572D01*
X004251Y005730D02*
X004291Y005730D01*
X004291Y005889D02*
X004251Y005889D01*
X004251Y006048D02*
X004291Y006048D01*
X004291Y006206D02*
X004251Y006206D01*
X004251Y006365D02*
X004291Y006365D01*
X004291Y006523D02*
X004251Y006523D01*
X004251Y006682D02*
X004291Y006682D01*
X004291Y006840D02*
X004251Y006840D01*
X004251Y006999D02*
X004291Y006999D01*
X006116Y005730D02*
X006245Y005730D01*
X010672Y010328D02*
X010941Y010328D01*
X010941Y010170D02*
X010756Y010170D01*
X010791Y010011D02*
X010941Y010011D01*
X010950Y009853D02*
X010954Y009853D01*
X012186Y005730D02*
X012391Y005730D01*
X012391Y005572D02*
X012186Y005572D01*
X012186Y005413D02*
X012391Y005413D01*
X012391Y005255D02*
X012139Y005255D01*
X012092Y005096D02*
X011321Y005096D01*
X011321Y004938D02*
X012001Y004938D01*
X012001Y004779D02*
X011321Y004779D01*
X011321Y004621D02*
X012001Y004621D01*
X012001Y004462D02*
X011321Y004462D01*
X011321Y004304D02*
X012055Y004304D01*
X012101Y004145D02*
X011321Y004145D01*
X011276Y003986D02*
X012001Y003986D01*
X012001Y003828D02*
X011117Y003828D01*
X012386Y003511D02*
X012476Y003511D01*
X012476Y003352D02*
X012386Y003352D01*
X014403Y003352D02*
X015760Y003352D01*
X015625Y003511D02*
X014538Y003511D01*
X014591Y003669D02*
X015571Y003669D01*
X015574Y003828D02*
X014589Y003828D01*
X014524Y003986D02*
X015587Y003986D01*
X015428Y004145D02*
X014335Y004145D01*
X014321Y004304D02*
X015270Y004304D01*
X015111Y004462D02*
X014321Y004462D01*
X014321Y004621D02*
X014953Y004621D01*
X014794Y004779D02*
X014321Y004779D01*
X014321Y004938D02*
X014636Y004938D01*
X014477Y005096D02*
X014321Y005096D01*
X015070Y002718D02*
X015093Y002718D01*
X015453Y002718D02*
X015608Y002718D01*
X015608Y002560D02*
X015453Y002560D01*
X015453Y002084D02*
X015608Y002084D01*
X015608Y001925D02*
X015453Y001925D01*
X015453Y001767D02*
X015608Y001767D01*
X015989Y001767D02*
X016173Y001767D01*
X016138Y001925D02*
X016025Y001925D01*
X016025Y002084D02*
X016138Y002084D01*
X018057Y004145D02*
X021291Y004145D01*
X021291Y004114D02*
X021291Y003083D01*
X021169Y003083D01*
X021061Y003191D01*
X021061Y003307D01*
X021004Y003447D01*
X020897Y003554D01*
X020757Y003611D01*
X020606Y003611D01*
X020466Y003554D01*
X020359Y003447D01*
X020301Y003307D01*
X020301Y003156D01*
X020337Y003071D01*
X020324Y003083D01*
X020132Y003083D01*
X020132Y002471D01*
X020131Y002471D01*
X020131Y003083D01*
X019981Y003083D01*
X020011Y003156D01*
X020011Y003307D01*
X019954Y003447D01*
X019847Y003554D01*
X019707Y003611D01*
X019556Y003611D01*
X019416Y003554D01*
X019309Y003447D01*
X019251Y003307D01*
X019251Y003156D01*
X019281Y003083D01*
X019132Y003083D01*
X019132Y002471D01*
X019131Y002471D01*
X019131Y003083D01*
X018981Y003083D01*
X019011Y003156D01*
X019011Y003307D01*
X018954Y003447D01*
X018847Y003554D01*
X018707Y003611D01*
X018591Y003611D01*
X017085Y005117D01*
X017758Y005117D01*
X017816Y005059D01*
X017956Y005001D01*
X018107Y005001D01*
X018247Y005059D01*
X018354Y005166D01*
X018411Y005306D01*
X018411Y005457D01*
X018376Y005542D01*
X018439Y005479D01*
X018824Y005479D01*
X018881Y005537D01*
X018939Y005479D01*
X019324Y005479D01*
X019381Y005537D01*
X019439Y005479D01*
X019824Y005479D01*
X019881Y005537D01*
X019939Y005479D01*
X020131Y005479D01*
X020131Y006092D01*
X020132Y006092D01*
X020132Y005479D01*
X020324Y005479D01*
X020381Y005537D01*
X020439Y005479D01*
X020824Y005479D01*
X020881Y005537D01*
X020939Y005479D01*
X021291Y005479D01*
X021291Y005447D01*
X021287Y005395D01*
X021291Y005380D01*
X021291Y005364D01*
X021311Y005316D01*
X021327Y005266D01*
X021337Y005254D01*
X021343Y005239D01*
X021380Y005202D01*
X021587Y004954D01*
X021593Y004939D01*
X021630Y004902D01*
X021664Y004862D01*
X021678Y004854D01*
X021689Y004843D01*
X021737Y004823D01*
X021773Y004804D01*
X021693Y004724D01*
X021343Y004374D01*
X021291Y004249D01*
X021291Y004114D01*
X021291Y003986D02*
X018216Y003986D01*
X018374Y003828D02*
X021291Y003828D01*
X021291Y003669D02*
X018533Y003669D01*
X018889Y003511D02*
X019373Y003511D01*
X019270Y003352D02*
X018993Y003352D01*
X019011Y003194D02*
X019251Y003194D01*
X019132Y003035D02*
X019131Y003035D01*
X019131Y002877D02*
X019132Y002877D01*
X019131Y002718D02*
X019132Y002718D01*
X019131Y002560D02*
X019132Y002560D01*
X019131Y002401D02*
X019132Y002401D01*
X019131Y002242D02*
X019132Y002242D01*
X019131Y002084D02*
X019132Y002084D01*
X019131Y001925D02*
X019132Y001925D01*
X020131Y001925D02*
X020132Y001925D01*
X020131Y002084D02*
X020132Y002084D01*
X020131Y002242D02*
X020132Y002242D01*
X020131Y002401D02*
X020132Y002401D01*
X020131Y002560D02*
X020132Y002560D01*
X020131Y002718D02*
X020132Y002718D01*
X020131Y002877D02*
X020132Y002877D01*
X020131Y003035D02*
X020132Y003035D01*
X020011Y003194D02*
X020301Y003194D01*
X020320Y003352D02*
X019993Y003352D01*
X019889Y003511D02*
X020423Y003511D01*
X020939Y003511D02*
X021291Y003511D01*
X021291Y003352D02*
X021043Y003352D01*
X021061Y003194D02*
X021291Y003194D01*
X021971Y003194D02*
X022596Y003194D01*
X022596Y003352D02*
X021971Y003352D01*
X021971Y003511D02*
X022596Y003511D01*
X022596Y003669D02*
X021971Y003669D01*
X021971Y003828D02*
X022596Y003828D01*
X022076Y004145D02*
X026006Y004145D01*
X026164Y004304D02*
X023234Y004304D01*
X023393Y004462D02*
X025224Y004462D01*
X025189Y002718D02*
X023666Y002718D01*
X023666Y002560D02*
X025140Y002560D01*
X025092Y002401D02*
X023666Y002401D01*
X023666Y002242D02*
X025070Y002242D01*
X025070Y002084D02*
X023666Y002084D01*
X023610Y001925D02*
X025070Y001925D01*
X025090Y001767D02*
X023452Y001767D01*
X023339Y001608D02*
X025139Y001608D01*
X025188Y001450D02*
X023181Y001450D01*
X023022Y001291D02*
X025260Y001291D01*
X025368Y001133D02*
X022863Y001133D01*
X022132Y001925D02*
X022131Y001925D01*
X022131Y002084D02*
X022132Y002084D01*
X022131Y002242D02*
X022132Y002242D01*
X022131Y002401D02*
X022132Y002401D01*
X022131Y002560D02*
X022132Y002560D01*
X022131Y002718D02*
X022132Y002718D01*
X022131Y002877D02*
X022132Y002877D01*
X022131Y003035D02*
X022132Y003035D01*
X022372Y003035D02*
X022663Y003035D01*
X023349Y003986D02*
X021971Y003986D01*
X021431Y004462D02*
X017740Y004462D01*
X017582Y004621D02*
X021590Y004621D01*
X021748Y004779D02*
X017423Y004779D01*
X017264Y004938D02*
X021594Y004938D01*
X021468Y005096D02*
X018284Y005096D01*
X018390Y005255D02*
X021336Y005255D01*
X021288Y005413D02*
X018411Y005413D01*
X017779Y005096D02*
X017106Y005096D01*
X017899Y004304D02*
X021314Y004304D01*
X020132Y005572D02*
X020131Y005572D01*
X020131Y005730D02*
X020132Y005730D01*
X020131Y005889D02*
X020132Y005889D01*
X020131Y006048D02*
X020132Y006048D01*
X020131Y006093D02*
X020131Y006705D01*
X019939Y006705D01*
X019891Y006658D01*
X019891Y006730D01*
X019891Y006833D01*
X019852Y006929D01*
X019773Y007008D01*
X020137Y007008D01*
X020371Y006774D01*
X020371Y006658D01*
X020324Y006705D01*
X020132Y006705D01*
X020132Y006093D01*
X020131Y006093D01*
X020131Y006206D02*
X020132Y006206D01*
X020131Y006365D02*
X020132Y006365D01*
X020131Y006523D02*
X020132Y006523D01*
X020131Y006682D02*
X020132Y006682D01*
X020348Y006682D02*
X020371Y006682D01*
X020305Y006840D02*
X019888Y006840D01*
X019891Y006682D02*
X019915Y006682D01*
X019631Y006781D02*
X019331Y007081D01*
X019331Y008081D01*
X019581Y008331D01*
X022131Y008331D01*
X022131Y008322D01*
X022481Y008931D02*
X023131Y009581D01*
X023131Y009622D01*
X023207Y010116D02*
X022702Y010116D01*
X022596Y010011D01*
X022596Y009414D01*
X022429Y009247D01*
X022429Y009720D01*
X022132Y009720D01*
X022132Y009721D01*
X022131Y009721D01*
X022131Y010333D01*
X021971Y010333D01*
X021971Y010891D01*
X022322Y011241D01*
X023541Y011241D01*
X023546Y011236D01*
X022702Y011236D01*
X022596Y011131D01*
X022596Y010352D01*
X022702Y010246D01*
X023074Y010246D01*
X023080Y010240D01*
X023088Y010235D01*
X023207Y010116D01*
X023154Y010170D02*
X022429Y010170D01*
X022429Y010228D02*
X022324Y010333D01*
X022132Y010333D01*
X022132Y009721D01*
X022429Y009721D01*
X022429Y010228D01*
X022329Y010328D02*
X022620Y010328D01*
X022596Y010487D02*
X021971Y010487D01*
X021971Y010645D02*
X022596Y010645D01*
X022596Y010804D02*
X021971Y010804D01*
X022043Y010962D02*
X022596Y010962D01*
X022596Y011121D02*
X022202Y011121D01*
X021716Y011597D02*
X017907Y011597D01*
X017907Y011755D02*
X021874Y011755D01*
X022095Y011914D02*
X017907Y011914D01*
X017907Y012072D02*
X021810Y012072D01*
X021651Y012231D02*
X017865Y012231D01*
X017966Y012389D02*
X021493Y012389D01*
X021339Y012548D02*
X017966Y012548D01*
X017966Y012706D02*
X021291Y012706D01*
X021131Y013342D02*
X021131Y014831D01*
X021181Y014881D01*
X021222Y014881D01*
X021697Y014926D02*
X023247Y014926D01*
X023247Y015084D02*
X021697Y015084D01*
X022131Y015572D02*
X019622Y015572D01*
X019431Y015381D01*
X019431Y014281D01*
X019631Y014081D01*
X019631Y013342D01*
X020131Y013341D02*
X020132Y013341D01*
X020132Y013343D02*
X020131Y013343D01*
X020131Y013955D01*
X019939Y013955D01*
X019891Y013908D01*
X019891Y014133D01*
X020362Y014133D01*
X020371Y014124D02*
X020371Y013908D01*
X020324Y013955D01*
X020132Y013955D01*
X020132Y013343D01*
X020131Y013499D02*
X020132Y013499D01*
X020131Y013658D02*
X020132Y013658D01*
X020131Y013816D02*
X020132Y013816D01*
X020371Y013975D02*
X019891Y013975D01*
X019891Y014133D02*
X019852Y014229D01*
X019779Y014302D01*
X019773Y014308D01*
X020187Y014308D01*
X020371Y014124D01*
X020203Y014292D02*
X019789Y014292D01*
X020031Y014831D02*
X020631Y014231D01*
X020631Y013342D01*
X020131Y013182D02*
X020132Y013182D01*
X020131Y013023D02*
X020132Y013023D01*
X020131Y012865D02*
X020132Y012865D01*
X019131Y013342D02*
X019131Y013931D01*
X018731Y014331D01*
X018731Y014391D01*
X018158Y014450D02*
X015921Y014450D01*
X015921Y014609D02*
X018158Y014609D01*
X018164Y014767D02*
X015980Y014767D01*
X016049Y014926D02*
X019171Y014926D01*
X019171Y015084D02*
X016118Y015084D01*
X016187Y015243D02*
X018158Y015243D01*
X018158Y015202D02*
X018158Y015504D01*
X018664Y015504D01*
X018799Y015504D01*
X018799Y015640D01*
X018664Y015640D01*
X018664Y016047D01*
X018263Y016047D01*
X018158Y015942D01*
X018158Y015640D01*
X018664Y015640D01*
X018664Y015504D01*
X018664Y015097D01*
X018263Y015097D01*
X018158Y015202D01*
X018158Y015402D02*
X016256Y015402D01*
X016325Y015560D02*
X018664Y015560D01*
X018799Y015560D02*
X019242Y015560D01*
X019305Y015640D02*
X019305Y015942D01*
X019200Y016047D01*
X018799Y016047D01*
X018799Y015640D01*
X019305Y015640D01*
X019305Y015719D02*
X019401Y015719D01*
X019305Y015877D02*
X021558Y015877D01*
X021652Y016036D02*
X019211Y016036D01*
X018799Y016036D02*
X018664Y016036D01*
X018664Y015877D02*
X018799Y015877D01*
X018799Y015719D02*
X018664Y015719D01*
X018664Y015402D02*
X018799Y015402D01*
X018799Y015243D02*
X018664Y015243D01*
X018158Y015719D02*
X016394Y015719D01*
X016463Y015877D02*
X018158Y015877D01*
X018252Y016036D02*
X016532Y016036D01*
X016459Y014336D02*
X016459Y013919D01*
X016896Y013919D01*
X017354Y013919D01*
X017354Y014336D01*
X017002Y014336D01*
X016906Y014241D01*
X016811Y014336D01*
X016459Y014336D01*
X016459Y014292D02*
X016304Y014292D01*
X016304Y014133D02*
X016459Y014133D01*
X016459Y013975D02*
X016304Y013975D01*
X016459Y013816D02*
X017354Y013816D01*
X017354Y013764D02*
X016896Y013764D01*
X016459Y013764D01*
X016459Y013346D01*
X016811Y013346D01*
X016906Y013442D01*
X017002Y013346D01*
X017354Y013346D01*
X017354Y013764D01*
X017354Y013919D01*
X017509Y013919D01*
X017509Y014336D01*
X017861Y014336D01*
X017966Y014231D01*
X017966Y013919D01*
X017509Y013919D01*
X017509Y013764D01*
X017966Y013764D01*
X017966Y013452D01*
X017861Y013346D01*
X017509Y013346D01*
X017509Y013764D01*
X017354Y013764D01*
X017354Y013658D02*
X017509Y013658D01*
X017509Y013816D02*
X018333Y013816D01*
X018333Y013658D02*
X017966Y013658D01*
X017966Y013499D02*
X018333Y013499D01*
X018333Y013341D02*
X015921Y013341D01*
X016304Y013499D02*
X016459Y013499D01*
X016459Y013658D02*
X016304Y013658D01*
X016845Y013182D02*
X016967Y013182D01*
X017354Y013499D02*
X017509Y013499D01*
X017509Y013975D02*
X017354Y013975D01*
X017354Y014133D02*
X017509Y014133D01*
X017509Y014292D02*
X017354Y014292D01*
X016958Y014292D02*
X016855Y014292D01*
X017905Y014292D02*
X018158Y014292D01*
X018158Y014133D02*
X017966Y014133D01*
X017966Y013975D02*
X018204Y013975D01*
X018333Y013182D02*
X017895Y013182D01*
X017966Y013023D02*
X018333Y013023D01*
X018333Y012865D02*
X017966Y012865D01*
X017907Y011438D02*
X021557Y011438D01*
X021399Y011279D02*
X019871Y011279D01*
X019985Y011121D02*
X021301Y011121D01*
X021291Y010962D02*
X020011Y010962D01*
X019969Y010804D02*
X020467Y010804D01*
X020338Y010645D02*
X019871Y010645D01*
X019871Y010487D02*
X020301Y010487D01*
X020329Y010328D02*
X020334Y010328D01*
X020132Y010328D02*
X020131Y010328D01*
X020131Y010170D02*
X020132Y010170D01*
X020131Y010011D02*
X020132Y010011D01*
X020131Y009853D02*
X020132Y009853D01*
X020131Y009720D02*
X020131Y009171D01*
X020132Y009171D01*
X020132Y009720D01*
X020131Y009720D01*
X020131Y009694D02*
X020132Y009694D01*
X020131Y009535D02*
X020132Y009535D01*
X020131Y009377D02*
X020132Y009377D01*
X020131Y009218D02*
X020132Y009218D01*
X019722Y008901D02*
X018016Y008901D01*
X018016Y009060D02*
X019564Y009060D01*
X019851Y008743D02*
X019154Y008743D01*
X019205Y008692D02*
X019100Y008797D01*
X018699Y008797D01*
X018699Y008390D01*
X019205Y008390D01*
X019205Y008692D01*
X019205Y008584D02*
X019512Y008584D01*
X019308Y008426D02*
X019205Y008426D01*
X019149Y008267D02*
X018699Y008267D01*
X018699Y008109D02*
X018564Y008109D01*
X018564Y007950D02*
X018699Y007950D01*
X019071Y007791D02*
X018271Y007791D01*
X018271Y007633D02*
X019071Y007633D01*
X018631Y007141D02*
X018631Y007131D01*
X019131Y006631D01*
X019131Y006092D01*
X019631Y006092D02*
X019631Y006781D01*
X019782Y006999D02*
X020146Y006999D01*
X020631Y006881D02*
X019981Y007531D01*
X019991Y007541D01*
X019991Y007581D01*
X020631Y006881D02*
X020631Y006092D01*
X021131Y006092D02*
X021131Y007531D01*
X021172Y007572D01*
X021172Y007581D01*
X020781Y008931D02*
X022481Y008931D01*
X022429Y009377D02*
X022559Y009377D01*
X022596Y009535D02*
X022429Y009535D01*
X022429Y009694D02*
X022596Y009694D01*
X022596Y009853D02*
X022429Y009853D01*
X022429Y010011D02*
X022597Y010011D01*
X022132Y010011D02*
X022131Y010011D01*
X022131Y009853D02*
X022132Y009853D01*
X022131Y010170D02*
X022132Y010170D01*
X022131Y010328D02*
X022132Y010328D01*
X021291Y010487D02*
X021061Y010487D01*
X021025Y010645D02*
X021291Y010645D01*
X021291Y010804D02*
X020896Y010804D01*
X019934Y010328D02*
X019871Y010328D01*
X019391Y010328D02*
X019329Y010328D01*
X019391Y010487D02*
X017907Y010487D01*
X017907Y010645D02*
X019391Y010645D01*
X019294Y010804D02*
X017865Y010804D01*
X017907Y010328D02*
X018434Y010328D01*
X018333Y010170D02*
X017907Y010170D01*
X017895Y010011D02*
X018333Y010011D01*
X018333Y009853D02*
X017292Y009853D01*
X017256Y009694D02*
X018333Y009694D01*
X018333Y009535D02*
X018012Y009535D01*
X018016Y009531D02*
X017911Y009636D01*
X017559Y009636D01*
X017559Y009219D01*
X018016Y009219D01*
X018016Y009531D01*
X018016Y009377D02*
X018333Y009377D01*
X018333Y009218D02*
X017559Y009218D01*
X017404Y009218D02*
X016459Y009218D01*
X016459Y009219D02*
X016916Y009219D01*
X016916Y009401D01*
X016946Y009401D01*
X016946Y009219D01*
X017404Y009219D01*
X017404Y009064D01*
X016946Y009064D01*
X016946Y008821D01*
X016916Y008821D01*
X016916Y009064D01*
X016459Y009064D01*
X016459Y009219D01*
X016304Y009219D01*
X016304Y009636D01*
X015952Y009636D01*
X015921Y009606D01*
X015921Y010007D01*
X016012Y009917D01*
X016526Y009917D01*
X016501Y009857D01*
X016501Y009706D01*
X016530Y009636D01*
X016459Y009636D01*
X016459Y009219D01*
X016459Y009377D02*
X016304Y009377D01*
X016304Y009535D02*
X016459Y009535D01*
X016506Y009694D02*
X015921Y009694D01*
X015921Y009853D02*
X016501Y009853D01*
X016916Y009377D02*
X016946Y009377D01*
X016946Y009060D02*
X016916Y009060D01*
X016916Y008901D02*
X016946Y008901D01*
X017404Y009377D02*
X017559Y009377D01*
X017559Y009535D02*
X017404Y009535D01*
X018059Y008743D02*
X018109Y008743D01*
X018564Y008743D02*
X018699Y008743D01*
X018699Y008584D02*
X018564Y008584D01*
X018564Y008426D02*
X018699Y008426D01*
X019131Y009218D02*
X019132Y009218D01*
X019131Y009377D02*
X019132Y009377D01*
X019131Y009535D02*
X019132Y009535D01*
X019131Y009694D02*
X019132Y009694D01*
X019131Y009853D02*
X019132Y009853D01*
X019131Y010011D02*
X019132Y010011D01*
X019131Y010170D02*
X019132Y010170D01*
X019131Y010328D02*
X019132Y010328D01*
X018934Y010328D02*
X018829Y010328D01*
X019251Y010962D02*
X017311Y010962D01*
X017285Y011121D02*
X019278Y011121D01*
X019392Y011279D02*
X017171Y011279D01*
X020631Y009720D02*
X020631Y009081D01*
X020781Y008931D01*
X023768Y011914D02*
X025368Y011914D01*
X025527Y011755D02*
X023989Y011755D01*
X024147Y011597D02*
X025541Y011597D01*
X025138Y011438D02*
X024306Y011438D01*
X024464Y011279D02*
X025001Y011279D01*
X024935Y011121D02*
X024623Y011121D01*
X024745Y010962D02*
X024926Y010962D01*
X024951Y010804D02*
X024771Y010804D01*
X024771Y010645D02*
X025017Y010645D01*
X025176Y010487D02*
X024771Y010487D01*
X024771Y010328D02*
X026691Y010328D01*
X026691Y010170D02*
X024874Y010170D01*
X025032Y010011D02*
X026691Y010011D01*
X026691Y009853D02*
X025541Y009853D01*
X025700Y009694D02*
X026691Y009694D01*
X026691Y009535D02*
X026555Y009535D01*
X026687Y010487D02*
X026691Y010487D01*
X026691Y011597D02*
X026221Y011597D01*
X026221Y011755D02*
X026691Y011755D01*
X026691Y011914D02*
X026221Y011914D01*
X026170Y012072D02*
X026691Y012072D01*
X026691Y012231D02*
X026013Y012231D01*
X025854Y012389D02*
X026634Y012389D01*
X026476Y012548D02*
X025696Y012548D01*
X026159Y012865D02*
X022429Y012865D01*
X022429Y013023D02*
X026000Y013023D01*
X025841Y013182D02*
X023406Y013182D01*
X023574Y013341D02*
X025683Y013341D01*
X025524Y013499D02*
X023636Y013499D01*
X023636Y013658D02*
X025366Y013658D01*
X025207Y013816D02*
X023577Y013816D01*
X023432Y013975D02*
X024907Y013975D01*
X024749Y014133D02*
X023273Y014133D01*
X023114Y014292D02*
X024590Y014292D01*
X025521Y014926D02*
X026348Y014926D01*
X026348Y015084D02*
X025521Y015084D01*
X025521Y015402D02*
X028136Y015402D01*
X028136Y015560D02*
X025521Y015560D01*
X025521Y015719D02*
X028136Y015719D01*
X028136Y015877D02*
X025521Y015877D01*
X025521Y016036D02*
X028136Y016036D01*
X028136Y016194D02*
X025521Y016194D01*
X025521Y016353D02*
X028136Y016353D01*
X028136Y016511D02*
X025521Y016511D01*
X025521Y016670D02*
X028136Y016670D01*
X028136Y016828D02*
X025521Y016828D01*
X025521Y016987D02*
X028136Y016987D01*
X027284Y015084D02*
X027189Y015084D01*
X027189Y014926D02*
X027284Y014926D01*
X027284Y014609D02*
X027189Y014609D01*
X027189Y014450D02*
X027284Y014450D01*
X026317Y012706D02*
X022137Y012706D01*
X022433Y013182D02*
X022957Y013182D01*
X022779Y013341D02*
X022471Y013341D01*
X022471Y013499D02*
X022620Y013499D01*
X022956Y014450D02*
X023248Y014450D01*
X023247Y014609D02*
X022797Y014609D01*
X022698Y014767D02*
X023247Y014767D01*
X022332Y017304D02*
X022031Y017304D01*
X022140Y017463D02*
X022223Y017463D01*
X022181Y017621D02*
X022181Y017621D01*
X022181Y017780D02*
X022181Y017780D01*
X022181Y017938D02*
X022181Y017938D01*
X022181Y018097D02*
X022181Y018097D01*
X022181Y018255D02*
X022181Y018255D01*
X021681Y017981D02*
X021881Y019081D01*
X021881Y021881D01*
X021055Y021881D01*
X021055Y021381D02*
X021055Y020481D01*
X021081Y020481D01*
X021621Y020475D02*
X019941Y020475D01*
X019941Y020634D02*
X021621Y020634D01*
X021621Y020792D02*
X019941Y020792D01*
X019941Y020951D02*
X021621Y020951D01*
X021621Y021109D02*
X021588Y021109D01*
X021055Y021109D02*
X021055Y021109D01*
X021055Y021083D02*
X021055Y021381D01*
X021055Y021381D01*
X020442Y021381D01*
X020442Y021189D01*
X020547Y021083D01*
X021055Y021083D01*
X021055Y021268D02*
X021055Y021268D01*
X020522Y021109D02*
X019941Y021109D01*
X019941Y021268D02*
X020442Y021268D01*
X020442Y021426D02*
X019941Y021426D01*
X020422Y021585D02*
X020453Y021585D01*
X019941Y020316D02*
X021621Y020316D01*
X021621Y020158D02*
X019941Y020158D01*
X019941Y019999D02*
X021621Y019999D01*
X021621Y019841D02*
X019941Y019841D01*
X020020Y019682D02*
X021621Y019682D01*
X021621Y019524D02*
X020179Y019524D01*
X020337Y019365D02*
X021621Y019365D01*
X021621Y019207D02*
X020421Y019207D01*
X020421Y019048D02*
X021611Y019048D01*
X021582Y018890D02*
X020421Y018890D01*
X020951Y018731D02*
X021412Y018731D01*
X021253Y018572D02*
X021110Y018572D01*
X021176Y018414D02*
X021187Y018414D01*
X021181Y018255D02*
X021181Y018255D01*
X021181Y018097D02*
X021181Y018097D01*
X021181Y017938D02*
X021181Y017938D01*
X021181Y017780D02*
X021181Y017780D01*
X021181Y017621D02*
X021181Y017621D01*
X021140Y017463D02*
X021223Y017463D01*
X021332Y017304D02*
X021031Y017304D01*
X019941Y017146D02*
X018421Y017146D01*
X018326Y016987D02*
X019941Y016987D01*
X019941Y016828D02*
X018168Y016828D01*
X018661Y017304D02*
X018701Y017304D01*
X018701Y017463D02*
X018661Y017463D01*
X018661Y017621D02*
X018701Y017621D01*
X018701Y017780D02*
X018661Y017780D01*
X018661Y017938D02*
X018701Y017938D01*
X018701Y018097D02*
X018661Y018097D01*
X018661Y018255D02*
X018701Y018255D01*
X018701Y018414D02*
X018661Y018414D01*
X018661Y018572D02*
X018701Y018572D01*
X018701Y018731D02*
X018661Y018731D01*
X018729Y018890D02*
X019441Y018890D01*
X019412Y018731D02*
X018951Y018731D01*
X019110Y018572D02*
X019253Y018572D01*
X019187Y018414D02*
X019176Y018414D01*
X019181Y018255D02*
X019181Y018255D01*
X019181Y018097D02*
X019181Y018097D01*
X019181Y017938D02*
X019181Y017938D01*
X019181Y017780D02*
X019181Y017780D01*
X019181Y017621D02*
X019181Y017621D01*
X019140Y017463D02*
X019223Y017463D01*
X019332Y017304D02*
X019031Y017304D01*
X017412Y018731D02*
X016209Y018731D01*
X016054Y018731D02*
X015701Y018731D01*
X015701Y018760D02*
X016054Y018760D01*
X016054Y018605D01*
X015701Y018605D01*
X015701Y018661D01*
X014902Y018661D01*
X014902Y018701D01*
X015701Y018701D01*
X015701Y018760D01*
X015597Y019048D02*
X015542Y019048D01*
X016054Y019048D02*
X016209Y019048D01*
X016209Y018890D02*
X016054Y018890D01*
X016666Y018890D02*
X017441Y018890D01*
X017441Y019048D02*
X016666Y019048D01*
X016666Y018572D02*
X017253Y018572D01*
X017441Y019207D02*
X007008Y019207D01*
X007008Y019048D02*
X008008Y019048D01*
X008008Y018890D02*
X007008Y018890D01*
X007008Y018255D02*
X008045Y018255D01*
X006650Y017463D02*
X006613Y017463D01*
X006613Y017304D02*
X006650Y017304D01*
X006650Y017146D02*
X006613Y017146D01*
X006613Y016987D02*
X006650Y016987D01*
X006650Y016828D02*
X006613Y016828D01*
X006613Y016670D02*
X006650Y016670D01*
X006650Y016511D02*
X006613Y016511D01*
X006613Y016353D02*
X006650Y016353D01*
X006650Y016194D02*
X006613Y016194D01*
X006613Y016036D02*
X006650Y016036D01*
X006234Y015719D02*
X007081Y015719D01*
X006973Y015560D02*
X006392Y015560D01*
X006512Y015402D02*
X006951Y015402D01*
X006804Y015243D02*
X006521Y015243D01*
X006297Y017938D02*
X004325Y017938D01*
X003489Y017938D02*
X003374Y017938D01*
X003374Y017780D02*
X003489Y017780D01*
X003489Y018097D02*
X003374Y018097D01*
X003374Y017463D02*
X003489Y017463D01*
X003489Y017304D02*
X003374Y017304D01*
X003374Y017146D02*
X003489Y017146D01*
X002617Y017146D02*
X002021Y017146D01*
X002021Y017304D02*
X002492Y017304D01*
X002021Y018414D02*
X006255Y018414D01*
X006255Y018572D02*
X002021Y018572D01*
X002021Y018731D02*
X006255Y018731D01*
X005964Y018890D02*
X002021Y018890D01*
X002021Y019048D02*
X002758Y019048D01*
X002556Y019207D02*
X002146Y019207D01*
X002305Y019365D02*
X002467Y019365D01*
X003256Y020316D02*
X008438Y020316D01*
X008401Y020475D02*
X007639Y020475D01*
X007705Y020634D02*
X008433Y020634D01*
X008541Y020792D02*
X007760Y020792D01*
X007918Y020951D02*
X008448Y020951D01*
X008352Y021109D02*
X008077Y021109D01*
X008216Y021268D02*
X008352Y021268D01*
X008352Y021426D02*
X008241Y021426D01*
X008241Y021585D02*
X008352Y021585D01*
X008352Y021743D02*
X008241Y021743D01*
X008241Y021902D02*
X008352Y021902D01*
X008352Y022060D02*
X008241Y022060D01*
X008569Y020158D02*
X004000Y020158D01*
X006376Y019524D02*
X017441Y019524D01*
X017441Y019365D02*
X006487Y019365D01*
X009541Y018255D02*
X011218Y018255D01*
X011151Y018097D02*
X010366Y018097D01*
X010525Y017938D02*
X011159Y017938D01*
X011476Y016987D02*
X012610Y016987D01*
X012531Y016828D02*
X011541Y016828D01*
X011541Y016670D02*
X012511Y016670D01*
X012541Y016511D02*
X011512Y016511D01*
X011449Y016353D02*
X012591Y016353D01*
X012591Y016194D02*
X011608Y016194D01*
X011766Y016036D02*
X012591Y016036D01*
X012591Y015877D02*
X011925Y015877D01*
X012084Y015719D02*
X012591Y015719D01*
X012591Y015560D02*
X012242Y015560D01*
X012401Y015402D02*
X012591Y015402D01*
X012591Y015243D02*
X012559Y015243D01*
X014106Y016889D02*
X014075Y016965D01*
X013935Y017105D01*
X013751Y017181D01*
X012912Y017181D01*
X013751Y017181D01*
X013935Y017258D01*
X014075Y017398D01*
X014093Y017441D01*
X014120Y017441D01*
X014138Y017398D01*
X014278Y017258D01*
X014462Y017181D01*
X014278Y017105D01*
X014138Y016965D01*
X014106Y016889D01*
X014053Y016987D02*
X014160Y016987D01*
X014375Y017146D02*
X013837Y017146D01*
X013981Y017304D02*
X014232Y017304D01*
X014462Y017181D02*
X014938Y017181D01*
X014938Y017181D01*
X014462Y017181D01*
X014127Y017938D02*
X014086Y017938D01*
X013943Y018097D02*
X014270Y018097D01*
X014283Y018255D02*
X013929Y018255D01*
X014082Y018414D02*
X014131Y018414D01*
X014151Y018661D02*
X013352Y018661D01*
X013352Y018701D01*
X014151Y018701D01*
X014861Y018701D01*
X014861Y018661D01*
X014151Y018661D01*
X014106Y018890D02*
X014106Y018890D01*
X013992Y019048D02*
X014221Y019048D01*
X014861Y019048D02*
X014901Y019048D01*
X014901Y018890D02*
X014861Y018890D01*
X014861Y018731D02*
X014901Y018731D01*
X013351Y018731D02*
X013311Y018731D01*
X013311Y018572D02*
X013351Y018572D01*
X013351Y018414D02*
X013311Y018414D01*
X013311Y018255D02*
X013351Y018255D01*
X013351Y018890D02*
X013311Y018890D01*
X013311Y019048D02*
X013351Y019048D01*
X012720Y018097D02*
X012366Y018097D01*
X012525Y017938D02*
X012577Y017938D01*
X012673Y020634D02*
X015496Y020634D01*
X015496Y020792D02*
X012831Y020792D01*
X012381Y021181D02*
X012381Y025881D01*
X013081Y026581D01*
X012539Y026658D02*
X011724Y026658D01*
X011724Y026500D02*
X012539Y026500D01*
X012473Y026341D02*
X011724Y026341D01*
X011724Y026183D02*
X012315Y026183D01*
X012159Y026024D02*
X011713Y026024D01*
X011741Y025865D02*
X012121Y025865D01*
X012121Y025707D02*
X011899Y025707D01*
X012005Y025548D02*
X012121Y025548D01*
X012121Y025390D02*
X012036Y025390D01*
X012036Y025231D02*
X012121Y025231D01*
X012121Y025073D02*
X012036Y025073D01*
X012036Y024914D02*
X012121Y024914D01*
X012121Y024756D02*
X012036Y024756D01*
X012057Y024597D02*
X012121Y024597D01*
X012121Y024439D02*
X012057Y024439D01*
X012057Y024280D02*
X012121Y024280D01*
X012121Y024121D02*
X012057Y024121D01*
X012057Y023963D02*
X012121Y023963D01*
X012121Y023804D02*
X010570Y023804D01*
X010570Y023646D02*
X012121Y023646D01*
X012121Y023487D02*
X010563Y023487D01*
X010136Y023329D02*
X011123Y023329D01*
X011106Y023170D02*
X010136Y023170D01*
X010136Y023012D02*
X011106Y023012D01*
X011106Y022853D02*
X010136Y022853D01*
X010136Y022695D02*
X011106Y022695D01*
X011126Y022536D02*
X010136Y022536D01*
X010136Y022377D02*
X011096Y022377D01*
X011090Y022219D02*
X010136Y022219D01*
X010277Y022181D02*
X010171Y022076D01*
X010171Y021601D01*
X010551Y021601D01*
X010551Y021521D01*
X010631Y021521D01*
X010631Y020941D01*
X010906Y020941D01*
X011011Y021047D01*
X011011Y021521D01*
X010631Y021521D01*
X010631Y021601D01*
X011011Y021601D01*
X011011Y022076D01*
X010906Y022181D01*
X010631Y022181D01*
X010631Y021602D01*
X010551Y021602D01*
X010551Y022181D01*
X010277Y022181D01*
X010171Y022060D02*
X010136Y022060D01*
X010136Y021902D02*
X010171Y021902D01*
X010171Y021743D02*
X010136Y021743D01*
X010136Y021585D02*
X010551Y021585D01*
X010551Y021521D02*
X010171Y021521D01*
X010171Y021047D01*
X010277Y020941D01*
X010551Y020941D01*
X010551Y021521D01*
X010551Y021426D02*
X010631Y021426D01*
X010631Y021268D02*
X010551Y021268D01*
X010551Y021109D02*
X010631Y021109D01*
X010631Y020951D02*
X010551Y020951D01*
X010268Y020951D02*
X010005Y020951D01*
X010101Y021109D02*
X010171Y021109D01*
X010171Y021268D02*
X010101Y021268D01*
X010136Y021426D02*
X010171Y021426D01*
X010631Y021585D02*
X011163Y021585D01*
X011096Y021743D02*
X011011Y021743D01*
X011011Y021902D02*
X011096Y021902D01*
X011087Y022060D02*
X011011Y022060D01*
X010631Y022060D02*
X010551Y022060D01*
X010551Y021902D02*
X010631Y021902D01*
X010631Y021743D02*
X010551Y021743D01*
X011011Y021426D02*
X012121Y021426D01*
X012121Y021585D02*
X012099Y021585D01*
X012381Y021181D02*
X012122Y020922D01*
X011631Y020922D01*
X011096Y020951D02*
X010915Y020951D01*
X011011Y021109D02*
X011096Y021109D01*
X011096Y021268D02*
X011011Y021268D01*
X012057Y022695D02*
X012121Y022695D01*
X012121Y022853D02*
X012057Y022853D01*
X012057Y023012D02*
X012121Y023012D01*
X012121Y023170D02*
X012057Y023170D01*
X012040Y023329D02*
X012121Y023329D01*
X011106Y023963D02*
X010570Y023963D01*
X010570Y024121D02*
X011106Y024121D01*
X011106Y024280D02*
X010570Y024280D01*
X010570Y024439D02*
X011106Y024439D01*
X011106Y024597D02*
X010482Y024597D01*
X010299Y024756D02*
X011126Y024756D01*
X011126Y024914D02*
X010458Y024914D01*
X010616Y025073D02*
X011126Y025073D01*
X011088Y025231D02*
X010775Y025231D01*
X010539Y026817D02*
X009724Y026817D01*
X009724Y026975D02*
X010539Y026975D01*
X010548Y027134D02*
X009715Y027134D01*
X009649Y027292D02*
X010614Y027292D01*
X010750Y027451D02*
X009594Y027451D01*
X009753Y027609D02*
X012710Y027609D01*
X012726Y027451D02*
X011512Y027451D01*
X011649Y027292D02*
X012614Y027292D01*
X012548Y027134D02*
X011715Y027134D01*
X011724Y026975D02*
X012539Y026975D01*
X012539Y026817D02*
X011724Y026817D01*
X012551Y027768D02*
X009911Y027768D01*
X009259Y028402D02*
X009204Y028402D01*
X009046Y028561D02*
X009417Y028561D01*
X009649Y028719D02*
X008813Y028719D01*
X008551Y027768D02*
X006411Y027768D01*
X008575Y025707D02*
X008755Y025707D01*
X012641Y025707D02*
X012755Y025707D01*
X014699Y024756D02*
X015526Y024756D01*
X015506Y024597D02*
X014882Y024597D01*
X014970Y024439D02*
X015506Y024439D01*
X015506Y024280D02*
X014970Y024280D01*
X014970Y024121D02*
X015506Y024121D01*
X015506Y023963D02*
X014970Y023963D01*
X014970Y023804D02*
X015602Y023804D01*
X015573Y023329D02*
X014536Y023329D01*
X014536Y023170D02*
X015506Y023170D01*
X015506Y023012D02*
X014536Y023012D01*
X014536Y022853D02*
X015506Y022853D01*
X015506Y022695D02*
X014536Y022695D01*
X014536Y022536D02*
X015502Y022536D01*
X015496Y022377D02*
X014536Y022377D01*
X014536Y022219D02*
X015496Y022219D01*
X015496Y022060D02*
X015411Y022060D01*
X015411Y021902D02*
X015496Y021902D01*
X015505Y021743D02*
X015411Y021743D01*
X015411Y021426D02*
X015512Y021426D01*
X015496Y021268D02*
X015411Y021268D01*
X015411Y021109D02*
X015496Y021109D01*
X015496Y020951D02*
X015315Y020951D01*
X015031Y020951D02*
X014951Y020951D01*
X014951Y021109D02*
X015031Y021109D01*
X015031Y021268D02*
X014951Y021268D01*
X014951Y021426D02*
X015031Y021426D01*
X015031Y021743D02*
X014951Y021743D01*
X014951Y021902D02*
X015031Y021902D01*
X015031Y022060D02*
X014951Y022060D01*
X014571Y022060D02*
X014536Y022060D01*
X014536Y021902D02*
X014571Y021902D01*
X014571Y021743D02*
X014536Y021743D01*
X012752Y021743D02*
X012641Y021743D01*
X012641Y021585D02*
X012752Y021585D01*
X012752Y021426D02*
X012641Y021426D01*
X012641Y021902D02*
X012752Y021902D01*
X012752Y022060D02*
X012641Y022060D01*
X014963Y023487D02*
X017001Y023487D01*
X017034Y023646D02*
X014970Y023646D01*
X014858Y024914D02*
X015405Y024914D01*
X015247Y025073D02*
X015016Y025073D01*
X017887Y023329D02*
X017960Y023329D01*
X017951Y023170D02*
X017861Y023170D01*
X017861Y023012D02*
X018014Y023012D01*
X018045Y023487D02*
X018050Y023487D01*
X021572Y023170D02*
X021791Y023170D01*
X021791Y023012D02*
X021668Y023012D01*
X021668Y022853D02*
X021791Y022853D01*
X022421Y022219D02*
X023781Y022219D01*
X023781Y022377D02*
X023366Y022377D01*
X023366Y022536D02*
X023781Y022536D01*
X023781Y022060D02*
X023325Y022060D01*
X023366Y021902D02*
X023781Y021902D01*
X023781Y021743D02*
X023366Y021743D01*
X023421Y021585D02*
X023781Y021585D01*
X023683Y021426D02*
X023580Y021426D01*
X022927Y020792D02*
X022421Y020792D01*
X022421Y020634D02*
X023086Y020634D01*
X023229Y020475D02*
X022421Y020475D01*
X022421Y020951D02*
X022769Y020951D01*
X022610Y021109D02*
X022421Y021109D01*
X022754Y022377D02*
X022909Y022377D01*
X022909Y022536D02*
X022754Y022536D01*
X022754Y022853D02*
X022909Y022853D01*
X022909Y023012D02*
X022754Y023012D01*
X022754Y023170D02*
X022909Y023170D01*
X025125Y023963D02*
X026448Y023963D01*
X026448Y024121D02*
X025125Y024121D01*
X027289Y023646D02*
X027384Y023646D01*
X027384Y023487D02*
X027289Y023487D01*
X027306Y026024D02*
X028136Y026024D01*
X028136Y026183D02*
X027581Y026183D01*
X027797Y026341D02*
X028136Y026341D01*
X028136Y026500D02*
X027944Y026500D01*
X028081Y026658D02*
X028136Y026658D01*
X025165Y019207D02*
X024187Y019207D01*
X024187Y019048D02*
X025165Y019048D01*
X025165Y018890D02*
X024187Y018890D01*
X024187Y018731D02*
X025178Y018731D01*
X025030Y018255D02*
X024032Y018255D01*
X024032Y018097D02*
X024935Y018097D01*
X020041Y014881D02*
X020041Y014841D01*
X020031Y014831D01*
X009796Y018097D02*
X009561Y018097D01*
X003305Y025073D02*
X003086Y025073D01*
X003066Y025231D02*
X003464Y025231D01*
X003622Y025390D02*
X000726Y025390D01*
X000726Y025548D02*
X003781Y025548D01*
X003939Y025707D02*
X000726Y025707D01*
X000726Y025231D02*
X000997Y025231D01*
X000977Y025073D02*
X000726Y025073D01*
X000726Y024914D02*
X000977Y024914D01*
X000977Y024756D02*
X000726Y024756D01*
X000726Y024597D02*
X000977Y024597D01*
X000977Y024439D02*
X000726Y024439D01*
X000726Y024280D02*
X001049Y024280D01*
X001212Y024121D02*
X000726Y024121D01*
X000726Y023963D02*
X001212Y023963D01*
X000967Y023804D02*
X000726Y023804D01*
X000726Y023646D02*
X000967Y023646D01*
X000967Y023487D02*
X000726Y023487D01*
X000726Y023329D02*
X000967Y023329D01*
X000967Y023170D02*
X000726Y023170D01*
X000726Y023012D02*
X001067Y023012D01*
X001431Y023481D02*
X001472Y023522D01*
X001472Y024781D01*
X001918Y023804D02*
X002345Y023804D01*
X002345Y023646D02*
X001918Y023646D01*
X001442Y023481D02*
X001431Y023481D01*
X002517Y025865D02*
X004098Y025865D01*
X004256Y026024D02*
X002929Y026024D01*
X013204Y028402D02*
X014303Y028402D01*
X014136Y028244D02*
X013363Y028244D01*
X013521Y028085D02*
X013977Y028085D01*
X002034Y015084D02*
X002021Y015084D01*
D41*
X012431Y003681D02*
X012331Y003581D01*
X019131Y009720D02*
X019131Y010531D01*
X018781Y010881D01*
X018781Y012081D01*
X020181Y012081D01*
X020381Y011881D01*
X020481Y011881D01*
X020481Y011081D01*
X020131Y010731D01*
X020131Y009720D01*
X022131Y009720D02*
X022131Y010731D01*
X022081Y010781D01*
X020181Y012081D02*
X020131Y012131D01*
X020131Y013342D01*
D42*
X019631Y010981D02*
X019631Y009720D01*
X019631Y009331D01*
X020231Y008731D01*
X021131Y009720D02*
X021031Y010131D01*
X020681Y010481D01*
X023131Y010741D02*
X023231Y010431D01*
X025281Y008381D01*
X025781Y008381D01*
X026206Y007956D01*
X026931Y008681D01*
X026931Y012431D01*
X025181Y014181D01*
X024831Y014531D02*
X024136Y014781D01*
X025181Y016681D02*
X020181Y016681D01*
X020181Y019181D01*
X019681Y019681D01*
X017681Y019681D01*
X017681Y018181D01*
X017681Y017981D01*
X017681Y018181D02*
X014681Y018181D01*
X014681Y017681D01*
X014881Y017681D01*
X014681Y017681D02*
X013331Y017681D01*
X013331Y016681D02*
X012831Y016431D01*
X012831Y010931D01*
X012809Y010721D01*
X013124Y010721D02*
X013131Y010481D01*
X013131Y009831D01*
X013681Y009831D02*
X012731Y008881D01*
X012231Y008531D02*
X012581Y008181D01*
X012231Y008531D02*
X011831Y008531D01*
X011591Y008559D01*
X011591Y008874D02*
X011381Y008881D01*
X010881Y008881D01*
X009331Y010431D01*
X009081Y010331D01*
X009681Y009531D02*
X010931Y008281D01*
X011381Y008281D01*
X011591Y008244D01*
X011591Y007929D02*
X011381Y007831D01*
X010981Y007831D01*
X010931Y007231D02*
X009331Y008831D01*
X008681Y008831D01*
X008331Y009181D01*
X008081Y009331D01*
X008081Y008331D02*
X010331Y006081D01*
X010572Y005731D01*
X010281Y005381D01*
X010281Y004131D01*
X010081Y003931D01*
X009931Y003681D01*
X010131Y003181D02*
X009531Y003181D01*
X009181Y002831D01*
X008931Y002681D01*
X010131Y003181D02*
X011081Y004131D01*
X011081Y006031D01*
X012081Y007031D01*
X012081Y007131D01*
X012179Y007341D01*
X012494Y007341D02*
X012481Y007131D01*
X012481Y006581D01*
X012181Y006281D01*
X012331Y006131D01*
X012181Y006281D02*
X011981Y006081D01*
X011691Y005731D01*
X012631Y005881D02*
X012631Y004881D01*
X012431Y004681D01*
X012631Y005881D02*
X012781Y006031D01*
X012781Y006781D01*
X013131Y006781D01*
X013281Y006881D01*
X013431Y007031D01*
X013431Y007131D01*
X013439Y007341D01*
X013754Y007341D02*
X013731Y007581D01*
X013731Y007681D01*
X013631Y007781D01*
X013631Y008631D01*
X014081Y009081D01*
X014081Y010531D01*
X014069Y010721D01*
X014384Y010721D02*
X014381Y010931D01*
X014381Y011281D01*
X013781Y010931D02*
X013754Y010721D01*
X013781Y010931D02*
X013781Y015731D01*
X014431Y016381D01*
X014881Y016681D01*
X015831Y016631D02*
X015831Y017281D01*
X016131Y017580D01*
X016681Y016981D02*
X015681Y014681D01*
X015681Y009181D01*
X015181Y009181D01*
X014971Y009189D01*
X014994Y009481D02*
X014971Y009504D01*
X014994Y009481D02*
X015481Y009481D01*
X015481Y010581D01*
X015381Y010681D01*
X015381Y012681D01*
X015081Y012981D01*
X015081Y015081D01*
X013431Y014131D02*
X013381Y014181D01*
X013431Y014131D02*
X013431Y010931D01*
X013439Y010721D01*
X012494Y010721D02*
X012481Y010931D01*
X012481Y014981D01*
X011181Y016281D01*
X011181Y016481D01*
X011081Y016731D01*
X010631Y016931D02*
X010631Y014331D01*
X012081Y012881D01*
X011381Y012131D02*
X010481Y012131D01*
X009981Y011631D01*
X010981Y011622D02*
X011331Y011581D01*
X011781Y011131D01*
X011781Y010231D01*
X011591Y010134D01*
X011831Y010131D01*
X012231Y010131D01*
X012179Y010721D02*
X012081Y010931D01*
X012081Y011431D01*
X011381Y012131D01*
X011381Y010981D02*
X011181Y010781D01*
X011181Y009931D01*
X011281Y009831D01*
X011381Y009831D01*
X011591Y009819D01*
X011591Y009504D02*
X011831Y009531D01*
X012181Y009531D01*
X011591Y009189D02*
X011381Y009231D01*
X011231Y009231D01*
X010381Y010081D01*
X012031Y007781D02*
X010331Y006081D01*
X012031Y007781D02*
X013031Y007781D01*
X013131Y007681D01*
X013131Y007631D01*
X013131Y007531D01*
X013124Y007341D01*
X013131Y007631D02*
X013281Y007781D01*
X013631Y007781D01*
X014069Y007341D02*
X014081Y007131D01*
X014081Y003981D01*
X014131Y003731D01*
X014031Y003481D01*
X013831Y003281D01*
X013831Y002581D01*
X013530Y002231D01*
X016131Y003481D02*
X016031Y003731D01*
X015931Y003981D01*
X014481Y005431D01*
X014481Y007131D01*
X014384Y007341D01*
X014531Y007781D02*
X015631Y006681D01*
X015631Y006381D01*
X016131Y005881D01*
X016381Y005592D01*
X016531Y005331D01*
X018631Y003231D01*
X019631Y003231D02*
X019631Y002470D01*
X020681Y003231D02*
X021031Y002881D01*
X021131Y002470D01*
X023131Y003491D02*
X023481Y003781D01*
X025981Y003781D01*
X026931Y004731D01*
X026931Y007231D01*
X026206Y007956D01*
X018031Y008431D02*
X018031Y006631D01*
X018081Y006581D01*
X017181Y005931D02*
X017431Y005592D01*
X017681Y005381D01*
X018031Y005381D01*
X017181Y005931D02*
X017031Y006081D01*
X016431Y006081D01*
X015881Y006631D01*
X015881Y006781D01*
X015181Y007481D01*
X015181Y007831D01*
X014971Y007929D01*
X014971Y008244D02*
X015181Y008231D01*
X015681Y008231D01*
X016031Y008581D02*
X017881Y008581D01*
X018031Y008431D01*
X016881Y009781D02*
X017181Y010081D01*
X017431Y010392D01*
X016731Y010681D02*
X016931Y010981D01*
X016731Y010681D02*
X016631Y010681D01*
X016381Y010392D01*
X014971Y010134D02*
X014781Y010231D01*
X014781Y012231D01*
X014971Y009819D02*
X014731Y009781D01*
X014631Y009781D01*
X014331Y009481D01*
X014331Y008781D01*
X014631Y008531D02*
X014531Y008431D01*
X014531Y007781D01*
X014631Y008531D02*
X014731Y008531D01*
X014971Y008559D01*
X014971Y008874D02*
X015181Y008831D01*
X015781Y008831D01*
X016031Y008581D01*
X012809Y007341D02*
X012781Y007131D01*
X012781Y006781D01*
X016131Y003481D02*
X016331Y003281D01*
X016331Y002581D01*
X016633Y002231D01*
X006481Y006031D02*
X005931Y006031D01*
X005581Y005722D01*
X005581Y006841D02*
X005581Y007942D01*
X004281Y009631D02*
X003131Y009631D01*
X002781Y009281D01*
X002491Y008811D01*
X002531Y008181D01*
X002531Y006831D01*
X002491Y006251D01*
X002331Y005681D01*
X002306Y005706D01*
X002331Y005731D01*
X002306Y005706D02*
X001781Y005181D01*
X001472Y004831D01*
X001831Y004281D02*
X001081Y004281D01*
X000981Y004381D01*
X000981Y012081D01*
X002131Y013231D01*
X002581Y013531D01*
X002081Y014031D02*
X001781Y014331D01*
X001781Y019181D01*
X003881Y021281D01*
X004072Y021561D01*
X006131Y019231D02*
X006481Y018881D01*
X006631Y018607D01*
X006781Y018631D01*
X008231Y018631D01*
X008581Y018683D01*
X008931Y018381D01*
X009181Y018131D01*
X008931Y017731D02*
X008581Y017580D01*
X008581Y016631D01*
X008681Y016331D01*
X008931Y017731D02*
X010081Y017731D01*
X010631Y016931D02*
X011531Y017831D01*
X011531Y018031D01*
X011981Y020281D02*
X012981Y021281D01*
X013172Y021561D01*
X008772Y021561D02*
X008781Y021131D01*
X008781Y020481D01*
X006031Y015581D02*
X005481Y015581D01*
X004431Y014531D01*
X003981Y014531D01*
X004331Y014031D02*
X002081Y014031D01*
X002581Y012531D02*
X004272Y012531D01*
X004581Y013231D02*
X005081Y012731D01*
X005391Y012531D01*
X005381Y013231D02*
X005131Y013231D01*
X004331Y014031D01*
X005731Y013431D02*
X005731Y014931D01*
X006281Y014931D02*
X006281Y015331D01*
X006031Y015581D01*
X006281Y014931D02*
X006372Y014581D01*
X006681Y014931D01*
X006831Y014931D01*
X007331Y015431D01*
X007491Y014581D02*
X007781Y014481D01*
X008081Y014481D01*
X008681Y014331D01*
X008681Y013331D02*
X008081Y013481D01*
X007781Y013481D01*
X007491Y013531D01*
X006372Y013531D02*
X006381Y013881D01*
X006381Y014231D01*
X006372Y014581D01*
X005731Y013431D02*
X005881Y013281D01*
X005881Y011181D01*
X006631Y011181D01*
X005881Y011181D02*
X005681Y011181D01*
X005391Y011531D01*
X005383Y010531D02*
X005081Y010181D01*
X004831Y010181D01*
X004281Y009631D01*
X004280Y010531D02*
X002581Y010531D01*
X002581Y011531D02*
X004272Y011531D01*
X002881Y005181D02*
X002591Y004831D01*
X002881Y004481D01*
X004181Y003181D01*
X002591Y004831D02*
X002281Y004481D01*
X002031Y004481D01*
X001831Y004281D01*
X016681Y016981D02*
X017981Y016981D01*
X018181Y017181D01*
X018181Y018681D01*
X018681Y019181D01*
X019681Y019181D01*
X019681Y017981D01*
X022181Y018681D02*
X022181Y024181D01*
X022681Y024681D01*
X022831Y024972D01*
X022831Y024231D01*
X022031Y023431D01*
X022031Y022681D01*
X021931Y022581D01*
X021381Y022581D01*
X021181Y022381D01*
X021055Y022381D01*
X021055Y021881D02*
X020181Y021881D01*
X019431Y022481D02*
X019008Y022381D01*
X019008Y021881D02*
X018581Y021781D01*
X018381Y021781D01*
X018281Y021681D01*
X018681Y021281D02*
X019008Y021381D01*
X018681Y021281D02*
X018681Y020931D01*
X019431Y022481D02*
X019981Y023031D01*
X019331Y023431D02*
X022081Y026181D01*
X022831Y026181D01*
X022831Y026091D01*
X019008Y022881D02*
X018581Y022981D01*
X018331Y023231D01*
X022181Y018681D02*
X022681Y018181D01*
X022681Y017981D01*
X025181Y017681D02*
X025430Y017731D01*
M02*
