%
M48
M72
T01C0.0200
T02C0.0236
T03C0.0320
T04C0.0360
T05C0.0400
T06C0.0550
T07C0.1181
%
T01
X4181Y3181
X6481Y6031
X9681Y9531
X10381Y10081
X11381Y10981
X12231Y10131
X12181Y9531
X12731Y8881
X12581Y8181
X13131Y6781
X12331Y6131
X10931Y7231
X10981Y7831
X13131Y9831
X13681Y9831
X14331Y8781
X15681Y8231
X16881Y9781
X16931Y10981
X14781Y12231
X14381Y11281
X12081Y12881
X13381Y14181
X15831Y16631
X11981Y20281
X11531Y18031
X9181Y18131
X8781Y20481
X6131Y19231
X2531Y20531
X7331Y15431
X5731Y14931
X5381Y13231
X4581Y13231
X3981Y14531
X6631Y11181
X9981Y11631
X18081Y6581
X18031Y5381
X18631Y3231
X19631Y3231
X20681Y3231
X20231Y8731
X20681Y10481
X19631Y10981
X18681Y20931
X18281Y21681
X18331Y23231
X19331Y23431
X19981Y23031
X20181Y21881
X26181Y24681
T02
X24931Y24931
X24631Y26231
X21081Y20481
X17606Y14956
X15081Y15081
X20181Y12081
X22081Y10781
X23181Y13581
X23181Y7181
X22131Y3731
X20431Y3731
T03
X16031Y3731
X14131Y3731
X11081Y16731
X12081Y17731
X10081Y17731
T04
X9081Y10331
X9081Y9331
X8081Y9331
X8081Y10331
X8081Y8331
X9081Y8331
X8931Y3681
X7931Y3681
X6931Y3681
X6931Y2681
X7931Y2681
X8931Y2681
X9931Y2681
X9931Y3681
X5931Y3681
X5931Y2681
T05
X4271Y6251
X2491Y6251
X2491Y8811
X2581Y10531
X2581Y11531
X2581Y12531
X2581Y13531
X2581Y14531
X2581Y15531
X8681Y15331
X8681Y16331
X8681Y14331
X8681Y13331
X13331Y16681
X13331Y17681
X13331Y18681
X14881Y18681
X14881Y17681
X14881Y16681
X17681Y17981
X18681Y17981
X19681Y17981
X20681Y17981
X21681Y17981
X22681Y17981
X4271Y8811
T06
X3431Y17581
X3431Y19581
X5131Y26581
X7131Y26581
X9131Y26581
X11131Y26581
X13131Y26581
X15131Y26581
X18681Y26681
X20681Y26681
X25931Y10981
X25931Y8981
X25931Y6981
X25931Y4981
T07
X2231Y2131
X26731Y2081
X26681Y27581
X2131Y27481
M30
