999
dxflib 2.2.0.0
  0
SECTION
  2
HEADER
  9
$ACADVER
  1
AC1015
  9
$HANDSEED
  5
FFFF
  9
$DIMLIM
 70
0
  9
$DIMLUNIT
 70
2
  9
$DIMTIX
 70
0
  9
$AUNITS
 70
0
  9
$QTEXTMODE
 70
0
  9
$USERR1
 40
0.0
  9
$DIMALTU
 70
2
  9
$USERR2
 40
0.0
  9
$UCSORGBOTTOM
 10
0.0
 20
0.0
 30
0.0
  9
$USERR3
 40
0.0
  9
$USERR4
 40
0.0
  9
$USERR5
 40
0.0
  9
$LIMMAX
 10
420.0
 20
297.0
  9
$PELEVATION
 40
0.0
  9
$DIMALTZ
 70
0
  9
$DIMADEC
 70
0
  9
$JOINSTYLE
280
0
  9
$TILEMODE
 70
1
  9
$DIMATFIT
 70
3
  9
$PEXTMIN
 10
0.0
 20
0.0
 30
0.0
  9
$TDUSRTIMER
 40
0.0000187731
  9
$DWGCODEPAGE
  3
ANSI_1252
  9
$UCSORTHOVIEW
 70
0
  9
$DIMSOXD
 70
0
  9
$DIMTZIN
 70
0
  9
$SPLINETYPE
 70
6
  9
$DIMLFAC
 40
1.0
  9
$DIMSE1
 70
0
  9
$FILLETRAD
 40
0.0
  9
$DIMSE2
 70
0
  9
$PSTYLEMODE
290
1
  9
$TEXTSTYLE
  7
Standard
  9
$DIMTSZ
 40
0.0
  9
$PUCSXDIR
 10
1.0
 20
0.0
 30
0.0
  9
$DIMTXSTY
  7
Standard
  9
$PLIMMAX
 10
215.9000000000000057
 20
279.3999999999999773
  9
$DIMTM
 40
0.0
  9
$UCSORG
 10
0.0
 20
0.0
 30
0.0
  9
$DIMTP
 40
0.0
  9
$PSLTSCALE
 70
1
  9
$EXTNAMES
290
1
  9
$ANGBASE
 50
0.0
  9
$PUCSYDIR
 10
0.0
 20
1.0
 30
0.0
  9
$DIMASZ
 40
1.8
  9
$PUCSORTHOVIEW
 70
0
  9
$UNITMODE
 70
0
  9
$MEASUREMENT
 70
1
  9
$INSBASE
 10
0.0
 20
0.0
 30
0.0
  9
$EXTMAX
 10
420.0
 20
297.0
 30
0.0
  9
$ELEVATION
 40
0.0
  9
$TDCREATE
 40
2454670.4520583911798894
  9
$DIMDEC
 70
4
  9
$CELTYPE
  6
ByLayer
  9
$GRIDUNIT
 10
0.0
 20
0.0
  9
$MENU
  1
.
  9
$ANGDIR
 70
0
  9
$DIMALTTD
 70
2
  9
$TREEDEPTH
 70
3020
  9
$PROXYGRAPHICS
 70
1
  9
$LTSCALE
 40
1.0
  9
$DIMTMOVE
 70
0
  9
$DIMAZIN
 70
0
  9
$TDUPDATE
 40
2454670.4520583911798894
  9
$DIMTOLJ
 70
1
  9
$DIMCEN
 40
0.09
  9
$DIMTVP
 40
0.0
  9
$TRACEWID
 40
0.05
  9
$CMLSTYLE
  2
Standard
  9
$DISPSILH
 70
0
  9
$DIMSTYLE
  2
Standard
  9
$SKETCHINC
 40
0.1
  9
$FILLMODE
 70
1
  9
$PLINEGEN
 70
0
  9
$DIMLWD
 70
-2
  9
$THICKNESS
 40
0.0
  9
$PUCSORG
 10
0.0
 20
0.0
 30
0.0
  9
$DIMLWE
 70
-2
  9
$CELTSCALE
 40
1.0
  9
$DIMALTTZ
 70
0
  9
$INSUNITS
 70
4
  9
$UCSORGBACK
 10
0.0
 20
0.0
 30
0.0
  9
$PLINEWID
 40
0.0
  9
$PEXTMAX
 10
420.0
 20
297.0
 30
0.0
  9
$DIMJUST
 70
0
  9
$UCSYDIR
 10
0.0
 20
1.0
 30
0.0
  9
$PUCSORGBACK
 10
0.0
 20
0.0
 30
0.0
  9
$GRIDMODE
 70
1
  9
$PUCSORGBOTTOM
 10
0.0
 20
0.0
 30
0.0
  9
$PDSIZE
 40
0.0
  9
$DIMUPT
 70
0
  9
$DIMTAD
 70
0
  9
$MAXACTVP
 70
64
  9
$UCSXDIR
 10
1.0
 20
0.0
 30
0.0
  9
$DIMSAH
 70
0
  9
$TDUCREATE
 40
2454670.4103917251341045
  9
$DIMFRAC
 70
0
  9
$USERI1
 70
0
  9
$USERI2
 70
0
  9
$CELWEIGHT
370
-1
  9
$USERI3
 70
0
  9
$UCSORGRIGHT
 10
0.0
 20
0.0
 30
0.0
  9
$LWDISPLAY
290
0
  9
$SKPOLY
 70
0
  9
$USERI4
 70
0
  9
$USERI5
 70
0
  9
$UCSORGTOP
 10
0.0
 20
0.0
 30
0.0
  9
$LIMMIN
 10
0.0
 20
0.0
  9
$ACADMAINTVER
 70
18
  9
$MIRRTEXT
 70
0
  9
$TDUUPDATE
 40
2454670.4103917251341045
  9
$TEXTSIZE
 40
0.2
  9
$DIMGAP
 40
0.09
  9
$LUPREC
 70
4
  9
$CECOLOR
 62
256
  9
$DIMSD1
 70
0
  9
$DIMSD2
 70
0
  9
$WORLDVIEW
 70
1
  9
$PUCSORGRIGHT
 10
0.0
 20
0.0
 30
0.0
  9
$PLIMCHECK
 70
0
  9
$DIMTFAC
 40
1.0
  9
$CMLJUST
 70
0
  9
$USRTIMER
 70
1
  9
$SURFU
 70
6
  9
$SURFV
 70
6
  9
$DIMASO
 70
1
  9
$DIMDLE
 40
0.0
  9
$EXTMIN
 10
0.0
 20
0.0
 30
0.0
  9
$UCSORGLEFT
 10
0.0
 20
0.0
 30
0.0
  9
$OLESTARTUP
290
0
  9
$PUCSORGFRONT
 10
0.0
 20
0.0
 30
0.0
  9
$DIMDLI
 40
0.38
  9
$LUNITS
 70
2
  9
$DIMCLRD
 70
0
  9
$SHADEDIF
 70
70
  9
$DIMCLRE
 70
0
  9
$SPLINESEGS
 70
8
  9
$PUCSORGLEFT
 10
0.0
 20
0.0
 30
0.0
  9
$DIMALTRND
 40
0.0
  9
$DIMRND
 40
0.0
  9
$DIMALT
 70
0
  9
$FINGERPRINTGUID
  2
{957EB8BD-B1CB-432B-9497-5194FA736EDC}
  9
$DIMCLRT
 70
0
  9
$PUCSORGTOP
 10
0.0
 20
0.0
 30
0.0
  9
$DIMTOH
 70
1
  9
$UCSORGFRONT
 10
0.0
 20
0.0
 30
0.0
  9
$VISRETAIN
 70
1
  9
$SHADEDGE
 70
3
  9
$DIMTOL
 70
0
  9
$SURFTYPE
 70
6
  9
$VERSIONGUID
  2
{F0539855-98D3-4F5B-8BA8-A3C366CB493D}
  9
$CHAMFERA
 40
0.0
  9
$SURFTAB1
 70
6
  9
$CHAMFERB
 40
0.0
  9
$SURFTAB2
 70
6
  9
$CHAMFERC
 40
0.0
  9
$AUPREC
 70
0
  9
$CHAMFERD
 40
0.0
  9
$DIMTDEC
 70
4
  9
$PDMODE
 70
0
  9
$PLIMMIN
 10
0.0
 20
0.0
  9
$SPLFRAME
 70
0
  9
$XEDIT
290
1
  9
$DIMDSEP
 70
46
  9
$LIMCHECK
 70
0
  9
$PINSBASE
 10
0.0
 20
0.0
 30
0.0
  9
$ORTHOMODE
 70
0
  9
$PSVPSCALE
 40
0.0
  9
$CLAYER
  8
Retainer Plate Text
  9
$DIMSHO
 70
1
  9
$DIMTOFL
 70
0
  9
$DIMTXT
 40
0.35
  9
$DIMEXE
 40
0.18
  9
$TDINDWG
 40
0.0000187731
  9
$REGENMODE
 70
1
  9
$ATTMODE
 70
1
  9
$CMLSCALE
 40
1.0
  9
$DIMTIH
 70
1
  9
$DIMZIN
 70
0
  9
$CEPSNTYPE
380
0
  9
$DIMSCALE
 40
1.0
  9
$DIMALTD
 70
2
  9
$DIMAUNIT
 70
0
  9
$DIMEXO
 40
0.0625
  9
$DIMALTF
 40
25.3999999999999986
  9
$ENDCAPS
280
0
  9
$CLAYER
  8
Retainer Plate Text
  0
ENDSEC
  0
SECTION
  2
TABLES
  0
TABLE
  2
VPORT
  5
8
100
AcDbSymbolTable
 70
1
  0
VPORT
  5
30
100
AcDbSymbolTableRecord
100
AcDbViewportTableRecord
  2
*Active
 70
0
 10
0.0
 20
0.0
 11
1.0
 21
1.0
 12
286.3055555555554861
 22
148.5
 13
0.0
 23
0.0
 14
10.0
 24
10.0
 15
10.0
 25
10.0
 16
0.0
 26
0.0
 36
1.0
 17
0.0
 27
0.0
 37
0.0
 40
297.0
 41
1.92798353909465
 42
50.0
 43
0.0
 44
0.0
 50
0.0
 51
0.0
 71
0
 72
100
 73
1
 74
3
 75
1
 76
1
 77
0
 78
0
281
0
 65
1
110
0.0
120
0.0
130
0.0
111
1.0
121
0.0
131
0.0
112
0.0
122
1.0
132
0.0
 79
0
146
0.0
  0
ENDTAB
  0
TABLE
  2
LTYPE
  5
5
100
AcDbSymbolTable
 70
21
  0
LTYPE
  5
14
100
AcDbSymbolTableRecord
100
AcDbLinetypeTableRecord
  2
ByBlock
 70
0
  3

 72
65
 73
0
 40
0.0
  0
LTYPE
  5
15
100
AcDbSymbolTableRecord
100
AcDbLinetypeTableRecord
  2
ByLayer
 70
0
  3

 72
65
 73
0
 40
0.0
  0
LTYPE
  5
16
100
AcDbSymbolTableRecord
100
AcDbLinetypeTableRecord
  2
CONTINUOUS
 70
0
  3
Solid line
 72
65
 73
0
 40
0.0
  0
LTYPE
  5
31
100
AcDbSymbolTableRecord
100
AcDbLinetypeTableRecord
  2
DOT
 70
0
  3
Dot . . . . . . . . . . . . . . . . . . . . . .
 72
65
 73
2
 40
6.3499999999999996
 49
0.0
 74
0
 49
-6.3499999999999996
 74
0
  0
LTYPE
  5
32
100
AcDbSymbolTableRecord
100
AcDbLinetypeTableRecord
  2
DOT2
 70
0
  3
Dot (.5x) .....................................
 72
65
 73
2
 40
3.1749999999999998
 49
0.0
 74
0
 49
-3.1749999999999998
 74
0
  0
LTYPE
  5
33
100
AcDbSymbolTableRecord
100
AcDbLinetypeTableRecord
  2
DOTX2
 70
0
  3
Dot (2x) .  .  .  .  .  .  .  .  .  .  .  .  .
 72
65
 73
2
 40
12.6999999999999993
 49
0.0
 74
0
 49
-12.6999999999999993
 74
0
  0
LTYPE
  5
34
100
AcDbSymbolTableRecord
100
AcDbLinetypeTableRecord
  2
DASHED
 70
0
  3
Dashed __ __ __ __ __ __ __ __ __ __ __ __ __ _
 72
65
 73
2
 40
19.0500000000000007
 49
12.6999999999999993
 74
0
 49
-6.3499999999999996
 74
0
  0
LTYPE
  5
35
100
AcDbSymbolTableRecord
100
AcDbLinetypeTableRecord
  2
DASHED2
 70
0
  3
Dashed (.5x) _ _ _ _ _ _ _ _ _ _ _ _ _ _ _ _ _
 72
65
 73
2
 40
9.5250000000000004
 49
6.3499999999999996
 74
0
 49
-3.1749999999999998
 74
0
  0
LTYPE
  5
36
100
AcDbSymbolTableRecord
100
AcDbLinetypeTableRecord
  2
DASHEDX2
 70
0
  3
Dashed (2x) ____  ____  ____  ____  ____  ___
 72
65
 73
2
 40
38.1000000000000014
 49
25.3999999999999986
 74
0
 49
-12.6999999999999993
 74
0
  0
LTYPE
  5
37
100
AcDbSymbolTableRecord
100
AcDbLinetypeTableRecord
  2
DASHDOT
 70
0
  3
Dash dot __ . __ . __ . __ . __ . __ . __ . __
 72
65
 73
4
 40
25.3999999999999986
 49
12.6999999999999993
 74
0
 49
-6.3499999999999996
 74
0
 49
0.0
 74
0
 49
-6.3499999999999996
 74
0
  0
LTYPE
  5
38
100
AcDbSymbolTableRecord
100
AcDbLinetypeTableRecord
  2
DASHDOT2
 70
0
  3
Dash dot (.5x) _._._._._._._._._._._._._._._.
 72
65
 73
4
 40
12.6999999999999993
 49
6.3499999999999996
 74
0
 49
-3.1749999999999998
 74
0
 49
0.0
 74
0
 49
-3.1749999999999998
 74
0
  0
LTYPE
  5
39
100
AcDbSymbolTableRecord
100
AcDbLinetypeTableRecord
  2
DASHDOTX2
 70
0
  3
Dash dot (2x) ____  .  ____  .  ____  .  ___
 72
65
 73
4
 40
50.7999999999999972
 49
25.3999999999999986
 74
0
 49
-12.6999999999999993
 74
0
 49
0.0
 74
0
 49
-12.6999999999999993
 74
0
  0
LTYPE
  5
3A
100
AcDbSymbolTableRecord
100
AcDbLinetypeTableRecord
  2
DIVIDE
 70
0
  3
Divide ____ . . ____ . . ____ . . ____ . . ____
 72
65
 73
6
 40
31.75
 49
12.6999999999999993
 74
0
 49
-6.3499999999999996
 74
0
 49
0.0
 74
0
 49
-6.3499999999999996
 74
0
 49
0.0
 74
0
 49
-6.3499999999999996
 74
0
  0
LTYPE
  5
3B
100
AcDbSymbolTableRecord
100
AcDbLinetypeTableRecord
  2
DIVIDE2
 70
0
  3
Divide (.5x) __..__..__..__..__..__..__..__.._
 72
65
 73
6
 40
15.875
 49
6.3499999999999996
 74
0
 49
-3.1749999999999998
 74
0
 49
0.0
 74
0
 49
-3.1749999999999998
 74
0
 49
0.0
 74
0
 49
-3.1749999999999998
 74
0
  0
LTYPE
  5
3C
100
AcDbSymbolTableRecord
100
AcDbLinetypeTableRecord
  2
DIVIDEX2
 70
0
  3
Divide (2x) ________  .  .  ________  .  .  _
 72
65
 73
6
 40
63.5
 49
25.3999999999999986
 74
0
 49
-12.6999999999999993
 74
0
 49
0.0
 74
0
 49
-12.6999999999999993
 74
0
 49
0.0
 74
0
 49
-12.6999999999999993
 74
0
  0
LTYPE
  5
3D
100
AcDbSymbolTableRecord
100
AcDbLinetypeTableRecord
  2
CENTER
 70
0
  3
Center ____ _ ____ _ ____ _ ____ _ ____ _ ____
 72
65
 73
4
 40
50.7999999999999972
 49
31.75
 74
0
 49
-6.3499999999999996
 74
0
 49
6.3499999999999996
 74
0
 49
-6.3499999999999996
 74
0
  0
LTYPE
  5
3E
100
AcDbSymbolTableRecord
100
AcDbLinetypeTableRecord
  2
CENTER2
 70
0
  3
Center (.5x) ___ _ ___ _ ___ _ ___ _ ___ _ ___
 72
65
 73
4
 40
28.5749999999999993
 49
19.0500000000000007
 74
0
 49
-3.1749999999999998
 74
0
 49
3.1749999999999998
 74
0
 49
-3.1749999999999998
 74
0
  0
LTYPE
  5
3F
100
AcDbSymbolTableRecord
100
AcDbLinetypeTableRecord
  2
CENTERX2
 70
0
  3
Center (2x) ________  __  ________  __  _____
 72
65
 73
4
 40
101.5999999999999943
 49
63.5
 74
0
 49
-12.6999999999999993
 74
0
 49
12.6999999999999993
 74
0
 49
-12.6999999999999993
 74
0
  0
LTYPE
  5
40
100
AcDbSymbolTableRecord
100
AcDbLinetypeTableRecord
  2
BORDER
 70
0
  3
Border __ __ . __ __ . __ __ . __ __ . __ __ .
 72
65
 73
6
 40
44.4500000000000028
 49
12.6999999999999993
 74
0
 49
-6.3499999999999996
 74
0
 49
12.6999999999999993
 74
0
 49
-6.3499999999999996
 74
0
 49
0.0
 74
0
 49
-6.3499999999999996
 74
0
  0
LTYPE
  5
41
100
AcDbSymbolTableRecord
100
AcDbLinetypeTableRecord
  2
BORDER2
 70
0
  3
Border (.5x) __.__.__.__.__.__.__.__.__.__.__.
 72
65
 73
6
 40
22.2250000000000014
 49
6.3499999999999996
 74
0
 49
-3.1749999999999998
 74
0
 49
6.3499999999999996
 74
0
 49
-3.1749999999999998
 74
0
 49
0.0
 74
0
 49
-3.1749999999999998
 74
0
  0
LTYPE
  5
42
100
AcDbSymbolTableRecord
100
AcDbLinetypeTableRecord
  2
BORDERX2
 70
0
  3
Border (2x) ____  ____  .  ____  ____  .  ___
 72
65
 73
6
 40
88.9000000000000057
 49
25.3999999999999986
 74
0
 49
-12.6999999999999993
 74
0
 49
25.3999999999999986
 74
0
 49
-12.6999999999999993
 74
0
 49
0.0
 74
0
 49
-12.6999999999999993
 74
0
  0
ENDTAB
  0
TABLE
  2
LAYER
  5
2
100
AcDbSymbolTable
 70
20
  0
LAYER
  5
10
100
AcDbSymbolTableRecord
100
AcDbLayerTableRecord
  2
0
 70
0
 62
7
420
16777215
  6
CONTINUOUS
370
0
390
F
  0
LAYER
  5
43
100
AcDbSymbolTableRecord
100
AcDbLayerTableRecord
  2
Notes
 70
0
 62
7
420
16777215
  6
CONTINUOUS
370
0
390
F
  0
LAYER
  5
44
100
AcDbSymbolTableRecord
100
AcDbLayerTableRecord
  2
Top Plate Bottom Layer
 70
0
 62
7
420
0
  6
CONTINUOUS
370
0
390
F
  0
LAYER
  5
45
100
AcDbSymbolTableRecord
100
AcDbLayerTableRecord
  2
Top Plate Middle Layer
 70
0
 62
7
420
0
  6
CONTINUOUS
370
0
390
F
  0
LAYER
  5
46
100
AcDbSymbolTableRecord
100
AcDbLayerTableRecord
  2
Top Plate Top
 70
0
 62
7
420
0
  6
CONTINUOUS
370
0
390
F
  0
LAYER
  5
47
100
AcDbSymbolTableRecord
100
AcDbLayerTableRecord
  2
Drawing
 70
0
 62
5
420
255
  6
CONTINUOUS
370
0
390
F
  0
LAYER
  5
48
100
AcDbSymbolTableRecord
100
AcDbLayerTableRecord
  2
Top Plate Top Text
 70
0
 62
4
420
65535
  6
CONTINUOUS
370
0
390
F
  0
LAYER
  5
49
100
AcDbSymbolTableRecord
100
AcDbLayerTableRecord
  2
Top Plate Middle Layer Text
 70
0
 62
4
420
65535
  6
CONTINUOUS
370
0
390
F
  0
LAYER
  5
4A
100
AcDbSymbolTableRecord
100
AcDbLayerTableRecord
  2
Top Plate Bottom Text
 70
0
 62
4
420
65535
  6
CONTINUOUS
370
0
390
F
  0
LAYER
  5
4B
100
AcDbSymbolTableRecord
100
AcDbLayerTableRecord
  2
Spring Plate
 70
0
 62
7
420
16777215
  6
CONTINUOUS
370
0
390
F
  0
LAYER
  5
4C
100
AcDbSymbolTableRecord
100
AcDbLayerTableRecord
  2
Spring Plate Text
 70
0
 62
4
420
65535
  6
CONTINUOUS
370
0
390
F
  0
LAYER
  5
4D
100
AcDbSymbolTableRecord
100
AcDbLayerTableRecord
  2
Main Plate Top Layer
 70
0
 62
7
420
0
  6
CONTINUOUS
370
0
390
F
  0
LAYER
  5
4E
100
AcDbSymbolTableRecord
100
AcDbLayerTableRecord
  2
Main Plate Bottom Layer
 70
0
 62
7
420
0
  6
CONTINUOUS
370
0
390
F
  0
LAYER
  5
4F
100
AcDbSymbolTableRecord
100
AcDbLayerTableRecord
  2
Main Plate Top Text
 70
0
 62
4
420
65535
  6
CONTINUOUS
370
0
390
F
  0
LAYER
  5
50
100
AcDbSymbolTableRecord
100
AcDbLayerTableRecord
  2
Main Plate Bottom Text
 70
0
 62
4
420
65535
  6
CONTINUOUS
370
0
390
F
  0
LAYER
  5
51
100
AcDbSymbolTableRecord
100
AcDbLayerTableRecord
  2
Main Plate Middle Layer
 70
0
 62
7
420
0
  6
CONTINUOUS
370
0
390
F
  0
LAYER
  5
52
100
AcDbSymbolTableRecord
100
AcDbLayerTableRecord
  2
Main Plate Middle Text
 70
0
 62
4
420
65535
  6
CONTINUOUS
370
0
390
F
  0
LAYER
  5
53
100
AcDbSymbolTableRecord
100
AcDbLayerTableRecord
  2
Drawing 2
 70
0
 62
5
420
255
  6
CONTINUOUS
370
0
390
F
  0
LAYER
  5
54
100
AcDbSymbolTableRecord
100
AcDbLayerTableRecord
  2
Retainer Plate
 70
0
 62
7
420
0
  6
CONTINUOUS
370
0
390
F
  0
LAYER
  5
55
100
AcDbSymbolTableRecord
100
AcDbLayerTableRecord
  2
Retainer Plate Text
 70
0
 62
4
420
65535
  6
CONTINUOUS
370
0
390
F
  0
ENDTAB
  0
TABLE
  2
STYLE
  5
3
100
AcDbSymbolTable
 70
1
  0
STYLE
  5
11
100
AcDbSymbolTableRecord
100
AcDbTextStyleTableRecord
  2
Standard
 70
0
 40
0.0
 41
0.75
 50
0.0
 71
0
 42
2.5
  3
txt
  4

  0
ENDTAB
  0
TABLE
  2
VIEW
  5
6
100
AcDbSymbolTable
 70
0
  0
ENDTAB
  0
TABLE
  2
UCS
  5
7
100
AcDbSymbolTable
 70
0
  0
ENDTAB
  0
TABLE
  2
APPID
  5
9
100
AcDbSymbolTable
 70
1
  0
APPID
  5
12
100
AcDbSymbolTableRecord
100
AcDbRegAppTableRecord
  2
ACAD
 70
0
  0
ENDTAB
  0
TABLE
  2
DIMSTYLE
  5
A
100
AcDbSymbolTable
 70
1
100
AcDbDimStyleTable
 71
0
  0
DIMSTYLE
105
27
100
AcDbSymbolTableRecord
100
AcDbDimStyleTableRecord
  2
Standard
 41
1.8
 42
0.0625
 43
3.75
 44
0.18
 70
0
 73
0
 74
0
 77
1
 78
8
140
0.35
141
2.5
143
0.03937007874016
147
0.09
171
3
172
1
271
2
272
2
274
3
278
44
283
0
284
8
340
11
  0
ENDTAB
  0
TABLE
  2
BLOCK_RECORD
  5
1
100
AcDbSymbolTable
 70
1
  0
BLOCK_RECORD
  5
1F
100
AcDbSymbolTableRecord
100
AcDbBlockTableRecord
  2
*Model_Space
340
22
  0
BLOCK_RECORD
  5
1B
100
AcDbSymbolTableRecord
100
AcDbBlockTableRecord
  2
*Paper_Space
340
1E
  0
BLOCK_RECORD
  5
23
100
AcDbSymbolTableRecord
100
AcDbBlockTableRecord
  2
*Paper_Space0
340
26
  0
ENDTAB
  0
ENDSEC
  0
SECTION
  2
BLOCKS
  0
BLOCK
  5
20
100
AcDbEntity
  8
0
100
AcDbBlockBegin
  2
*Model_Space
 70
0
 10
0.0
 20
0.0
 30
0.0
  3
*Model_Space
  1

  0
ENDBLK
  5
21
100
AcDbEntity
  8
0
100
AcDbBlockEnd
  0
BLOCK
  5
1C
100
AcDbEntity
 67
1
  8
0
100
AcDbBlockBegin
  2
*Paper_Space
 70
0
 10
0.0
 20
0.0
 30
0.0
  3
*Paper_Space
  1

  0
ENDBLK
  5
1D
100
AcDbEntity
 67
1
  8
0
100
AcDbBlockEnd
  0
BLOCK
  5
24
100
AcDbEntity
  8
0
100
AcDbBlockBegin
  2
*Paper_Space0
 70
0
 10
0.0
 20
0.0
 30
0.0
  3
*Paper_Space0
  1

  0
ENDBLK
  5
25
100
AcDbEntity
  8
0
100
AcDbBlockEnd
  0
ENDSEC
  0
SECTION
  2
ENTITIES
  0
LINE
  5
56
100
AcDbEntity
100
AcDbLine
  8
Top Plate Top
 62
256
370
-1
  6
ByLayer
 10
72.8446142014412032
 20
112.1844867144803857
 30
0.0
 11
78.0895728328075194
 21
97.7740813088282152
 31
0.0
  0
CIRCLE
  5
57
100
AcDbEntity
100
AcDbCircle
  8
Top Plate Top
 62
256
370
-1
  6
ByLayer
 10
99.3401013151290044
 20
75.2941167806190492
 30
0.0
 40
1.424999999999996
  0
CIRCLE
  5
58
100
AcDbEntity
100
AcDbCircle
  8
Top Plate Top
 62
256
370
-1
  6
ByLayer
 10
115.3401013151288907
 20
75.2941167806191629
 30
0.0
 40
1.424999999999996
  0
LINE
  5
59
100
AcDbEntity
100
AcDbLine
  8
Top Plate Top
 62
256
370
-1
  6
ByLayer
 10
105.7401013151285127
 20
133.0083330483654436
 30
0.0
 11
108.9401013151285724
 21
134.1730377980173898
 31
0.0
  0
LINE
  5
5A
100
AcDbEntity
100
AcDbLine
  8
Top Plate Top
 62
256
370
-1
  6
ByLayer
 10
76.912437185860739
 20
101.0082349184497161
 30
0.0
 11
70.0
 21
120.0
 31
0.0
  0
LINE
  5
5B
100
AcDbEntity
100
AcDbLine
  8
Top Plate Top
 62
256
370
-1
  6
ByLayer
 10
82.3401013151292034
 20
68.2941167806193334
 30
0.0
 11
82.3401013151292034
 21
70.2264220191397044
 31
0.0
  0
LINE
  5
5C
100
AcDbEntity
100
AcDbLine
  8
Top Plate Top
 62
256
370
-1
  6
ByLayer
 10
132.3401013151287771
 20
79.0427710545632749
 30
0.0
 11
132.3401013151288907
 21
68.2941167806193334
 31
0.0
  0
LINE
  5
5D
100
AcDbEntity
100
AcDbLine
  8
Top Plate Top
 62
256
370
-1
  6
ByLayer
 10
116.9846310392950102
 20
137.1010071662837504
 30
0.0
 11
126.9124371858603411
 21
109.8245839538733435
 31
0.0
  0
LINE
  5
5E
100
AcDbEntity
100
AcDbLine
  8
Top Plate Top
 62
256
370
-1
  6
ByLayer
 10
108.9401013151285724
 20
134.1730377980173898
 30
0.0
 11
116.9846310392950102
 21
137.1010071662837504
 31
0.0
  0
ARC
  5
5F
100
AcDbEntity
  8
Top Plate Top
 62
256
370
-1
  6
ByLayer
100
AcDbCircle
 10
-7.6598986848700861
 20
70.226422019138397
 30
0.0
 40
89.9999999999994458
100
AcDbArc
 50
360.0
 51
20.0000000000005862
  0
ARC
  5
60
100
AcDbEntity
  8
Top Plate Top
 62
256
370
-1
  6
ByLayer
100
AcDbCircle
 10
42.3401013151300916
 20
79.0427710545624791
 30
0.0
 40
89.9999999999989058
100
AcDbArc
 50
360.0
 51
20.0000000000006892
  0
LINE
  5
61
100
AcDbEntity
100
AcDbLine
  8
Top Plate Middle Layer
 62
256
370
-1
  6
ByLayer
 10
72.844614201441189
 20
112.1844867144803857
 30
0.0
 11
78.0895728328075052
 21
97.7740813088282152
 31
0.0
  0
CIRCLE
  5
62
100
AcDbEntity
100
AcDbCircle
  8
Top Plate Middle Layer
 62
256
370
-1
  6
ByLayer
 10
99.3401013151290044
 20
75.2941167806191061
 30
0.0
 40
1.424999999999996
  0
CIRCLE
  5
63
100
AcDbEntity
100
AcDbCircle
  8
Top Plate Middle Layer
 62
256
370
-1
  6
ByLayer
 10
115.3401013151288907
 20
75.2941167806191629
 30
0.0
 40
1.424999999999996
  0
LINE
  5
64
100
AcDbEntity
100
AcDbLine
  8
Top Plate Middle Layer
 62
256
370
-1
  6
ByLayer
 10
70.0
 20
120.0
 30
0.0
 11
83.2966505841204992
 21
124.8395850280584227
 31
0.0
  0
LINE
  5
65
100
AcDbEntity
100
AcDbLine
  8
Top Plate Middle Layer
 62
256
370
-1
  6
ByLayer
 10
76.912437185860739
 20
101.008234918449773
 30
0.0
 11
70.0
 21
120.0
 31
0.0
  0
LINE
  5
66
100
AcDbEntity
100
AcDbLine
  8
Top Plate Middle Layer
 62
256
370
-1
  6
ByLayer
 10
82.3401013151292034
 20
68.2941167806193334
 30
0.0
 11
82.3401013151292034
 21
70.2264220191397044
 31
0.0
  0
LINE
  5
67
100
AcDbEntity
100
AcDbLine
  8
Top Plate Middle Layer
 62
256
370
-1
  6
ByLayer
 10
105.7401013151290101
 20
68.2941167806193334
 30
0.0
 11
82.3401013151292034
 21
68.2941167806193334
 31
0.0
  0
LINE
  5
68
100
AcDbEntity
100
AcDbLine
  8
Top Plate Middle Layer
 62
256
370
-1
  6
ByLayer
 10
132.3401013151288907
 20
68.2941167806193334
 30
0.0
 11
108.9401013151289987
 21
68.2941167806193334
 31
0.0
  0
LINE
  5
69
100
AcDbEntity
100
AcDbLine
  8
Top Plate Middle Layer
 62
256
370
-1
  6
ByLayer
 10
132.3401013151287771
 20
79.0427710545632749
 30
0.0
 11
132.3401013151288907
 21
68.2941167806193334
 31
0.0
  0
LINE
  5
6A
100
AcDbEntity
100
AcDbLine
  8
Top Plate Middle Layer
 62
256
370
-1
  6
ByLayer
 10
116.9846310392950102
 20
137.1010071662837504
 30
0.0
 11
126.9124371858603411
 21
109.8245839538733435
 31
0.0
  0
LINE
  5
6B
100
AcDbEntity
100
AcDbLine
  8
Top Plate Middle Layer
 62
256
370
-1
  6
ByLayer
 10
108.9401013151285582
 20
134.1730377980173898
 30
0.0
 11
116.9846310392950102
 21
137.1010071662837504
 31
0.0
  0
ARC
  5
6C
100
AcDbEntity
  8
Top Plate Middle Layer
 62
256
370
-1
  6
ByLayer
100
AcDbCircle
 10
-7.6598986848700861
 20
70.226422019138397
 30
0.0
 40
89.9999999999994458
100
AcDbArc
 50
360.0
 51
20.0000000000005862
  0
ARC
  5
6D
100
AcDbEntity
  8
Top Plate Middle Layer
 62
256
370
-1
  6
ByLayer
100
AcDbCircle
 10
42.3401013151300916
 20
79.0427710545624791
 30
0.0
 40
89.9999999999989058
100
AcDbArc
 50
360.0
 51
20.0000000000006892
  0
LINE
  5
6E
100
AcDbEntity
100
AcDbLine
  8
Top Plate Bottom Layer
 62
256
370
-1
  6
ByLayer
 10
72.8446142014412032
 20
112.1844867144803857
 30
0.0
 11
78.0895728328075336
 21
97.7740813088282152
 31
0.0
  0
CIRCLE
  5
6F
100
AcDbEntity
100
AcDbCircle
  8
Top Plate Bottom Layer
 62
256
370
-1
  6
ByLayer
 10
99.3401013151290044
 20
75.2941167806191061
 30
0.0
 40
1.424999999999996
  0
CIRCLE
  5
70
100
AcDbEntity
100
AcDbCircle
  8
Top Plate Bottom Layer
 62
256
370
-1
  6
ByLayer
 10
115.3401013151288907
 20
75.2941167806191629
 30
0.0
 40
1.424999999999996
  0
LINE
  5
71
100
AcDbEntity
100
AcDbLine
  8
Top Plate Bottom Layer
 62
256
370
-1
  6
ByLayer
 10
76.912437185860739
 20
101.008234918449773
 30
0.0
 11
70.0
 21
120.0
 31
0.0
  0
LINE
  5
72
100
AcDbEntity
100
AcDbLine
  8
Top Plate Bottom Layer
 62
256
370
-1
  6
ByLayer
 10
82.3401013151292034
 20
68.2941167806193334
 30
0.0
 11
82.3401013151292034
 21
70.2264220191397044
 31
0.0
  0
LINE
  5
73
100
AcDbEntity
100
AcDbLine
  8
Top Plate Bottom Layer
 62
256
370
-1
  6
ByLayer
 10
105.7401013151290101
 20
68.2941167806193334
 30
0.0
 11
82.3401013151292034
 21
68.2941167806193334
 31
0.0
  0
LINE
  5
74
100
AcDbEntity
100
AcDbLine
  8
Top Plate Bottom Layer
 62
256
370
-1
  6
ByLayer
 10
132.3401013151288907
 20
68.2941167806193334
 30
0.0
 11
108.9401013151289987
 21
68.2941167806193334
 31
0.0
  0
LINE
  5
75
100
AcDbEntity
100
AcDbLine
  8
Top Plate Bottom Layer
 62
256
370
-1
  6
ByLayer
 10
132.3401013151287771
 20
79.0427710545632749
 30
0.0
 11
132.3401013151288907
 21
68.2941167806193334
 31
0.0
  0
LINE
  5
76
100
AcDbEntity
100
AcDbLine
  8
Top Plate Bottom Layer
 62
256
370
-1
  6
ByLayer
 10
116.9846310392950102
 20
137.1010071662837504
 30
0.0
 11
126.9124371858603695
 21
109.8245839538733435
 31
0.0
  0
ARC
  5
77
100
AcDbEntity
  8
Top Plate Bottom Layer
 62
256
370
-1
  6
ByLayer
100
AcDbCircle
 10
-7.6598986848700861
 20
70.226422019138397
 30
0.0
 40
89.9999999999994458
100
AcDbArc
 50
360.0
 51
20.0000000000005862
  0
ARC
  5
78
100
AcDbEntity
  8
Top Plate Bottom Layer
 62
256
370
-1
  6
ByLayer
100
AcDbCircle
 10
42.3401013151300916
 20
79.0427710545624791
 30
0.0
 40
89.9999999999989058
100
AcDbArc
 50
360.0
 51
20.0000000000006892
  0
LINE
  5
79
100
AcDbEntity
100
AcDbLine
  8
Top Plate Top
 62
256
370
-1
  6
ByLayer
 10
132.3401013151288907
 20
68.2941167806193334
 30
0.0
 11
82.3401013151292034
 21
68.2941167806193334
 31
0.0
  0
LINE
  5
7A
100
AcDbEntity
100
AcDbLine
  8
Drawing
 62
256
370
-1
  6
ByLayer
 10
112.3034234025590621
 20
76.8674094399169263
 30
0.0
 11
93.4923155196475761
 21
128.5505035831421026
 31
0.0
  0
LINE
  5
7B
100
AcDbEntity
100
AcDbLine
  8
Top Plate Top
 62
256
370
-1
  6
ByLayer
 10
70.0
 20
120.0
 30
0.0
 11
85.8808052912817743
 21
125.780140422204056
 31
0.0
  0
LINE
  5
7C
100
AcDbEntity
100
AcDbLine
  8
Top Plate Top
 62
256
370
-1
  6
ByLayer
 10
90.3270671545153903
 20
113.5641363519871874
 30
0.0
 11
85.8808052912817743
 21
125.780140422204056
 31
0.0
  0
LINE
  5
7D
100
AcDbEntity
100
AcDbLine
  8
Top Plate Top
 62
256
370
-1
  6
ByLayer
 10
105.5500876112470792
 20
119.1048626738630816
 30
0.0
 11
90.3270671545153903
 21
113.5641363519871874
 31
0.0
  0
LINE
  5
7E
100
AcDbEntity
100
AcDbLine
  8
Top Plate Top
 62
256
370
-1
  6
ByLayer
 10
101.103825748013449
 20
131.3208667440799786
 30
0.0
 11
105.7401013151285127
 21
133.0083330483654436
 31
0.0
  0
LINE
  5
7F
100
AcDbEntity
100
AcDbLine
  8
Top Plate Top
 62
256
370
-1
  6
ByLayer
 10
105.5500876112470792
 20
119.1048626738630816
 30
0.0
 11
101.103825748013449
 21
131.3208667440799786
 31
0.0
  0
LINE
  5
80
100
AcDbEntity
100
AcDbLine
  8
Top Plate Middle Layer
 62
256
370
-1
  6
ByLayer
 10
70.0
 20
120.0
 30
0.0
 11
85.8808052912817743
 21
125.780140422204056
 31
0.0
  0
LINE
  5
81
100
AcDbEntity
100
AcDbLine
  8
Top Plate Middle Layer
 62
256
370
-1
  6
ByLayer
 10
85.8808052912817743
 20
125.780140422204056
 30
0.0
 11
90.3270671545153903
 21
113.5641363519871874
 31
0.0
  0
LINE
  5
82
100
AcDbEntity
100
AcDbLine
  8
Top Plate Middle Layer
 62
256
370
-1
  6
ByLayer
 10
90.3270671545153903
 20
113.5641363519871874
 30
0.0
 11
105.7401013151286122
 21
119.1740220061786317
 31
0.0
  0
LINE
  5
83
100
AcDbEntity
100
AcDbLine
  8
Top Plate Bottom Layer
 62
256
370
-1
  6
ByLayer
 10
85.8808052912817743
 20
125.780140422204056
 30
0.0
 11
90.3270671545153903
 21
113.5641363519871874
 31
0.0
  0
LINE
  5
84
100
AcDbEntity
100
AcDbLine
  8
Top Plate Bottom Layer
 62
256
370
-1
  6
ByLayer
 10
90.3270671545153903
 20
113.5641363519871874
 30
0.0
 11
95.354422675719988
 21
115.3939441187795296
 31
0.0
  0
LINE
  5
85
100
AcDbEntity
100
AcDbLine
  8
Drawing
 62
256
370
-1
  6
ByLayer
 10
76.5778483455007404
 20
122.3941410032795716
 30
0.0
 11
79.9980497787581868
 21
112.9972147954207315
 31
0.0
  0
LINE
  5
86
100
AcDbEntity
100
AcDbLine
  8
Drawing
 62
256
370
-1
  6
ByLayer
 10
110.4067826937936161
 20
134.7068661630043209
 30
0.0
 11
113.8269841270502809
 21
125.309939955145623
 31
0.0
  0
LINE
  5
87
100
AcDbEntity
100
AcDbLine
  8
Top Plate Bottom Layer
 62
256
370
-1
  6
ByLayer
 10
70.0
 20
120.0
 30
0.0
 11
73.7587704831430244
 21
121.368080573302521
 31
0.0
  0
LINE
  5
88
100
AcDbEntity
100
AcDbLine
  8
Top Plate Bottom Layer
 62
256
370
-1
  6
ByLayer
 10
73.7587704831430244
 20
121.368080573302521
 30
0.0
 11
75.8108913430974809
 21
115.7299248485872596
 31
0.0
  0
LINE
  5
89
100
AcDbEntity
100
AcDbLine
  8
Top Plate Bottom Layer
 62
256
370
-1
  6
ByLayer
 10
79.3969262078583853
 20
123.4202014332568069
 30
0.0
 11
85.8808052912817743
 21
125.780140422204056
 31
0.0
  0
LINE
  5
8A
100
AcDbEntity
100
AcDbLine
  8
Top Plate Bottom Layer
 62
256
370
-1
  6
ByLayer
 10
79.3969262078583853
 20
123.4202014332568069
 30
0.0
 11
81.4490470678129128
 21
117.7820457085413466
 31
0.0
  0
LINE
  5
8B
100
AcDbEntity
100
AcDbLine
  8
Top Plate Bottom Layer
 62
256
370
-1
  6
ByLayer
 10
113.2258605561514315
 20
135.7329265929810731
 30
0.0
 11
116.9846310392950102
 21
137.1010071662837504
 31
0.0
  0
LINE
  5
8C
100
AcDbEntity
100
AcDbLine
  8
Top Plate Bottom Layer
 62
256
370
-1
  6
ByLayer
 10
113.2258605561514315
 20
135.7329265929810731
 30
0.0
 11
115.2779814161054901
 21
130.0947708682657264
 31
0.0
  0
LINE
  5
8D
100
AcDbEntity
100
AcDbLine
  8
Drawing
 62
256
370
-1
  6
ByLayer
 10
116.8401013151289902
 20
79.5040248006121857
 30
0.0
 11
116.8401013151286492
 21
101.5040248006121857
 31
0.0
  0
CIRCLE
  5
8E
100
AcDbEntity
100
AcDbCircle
  8
Drawing
 62
256
370
-1
  6
ByLayer
 10
116.8401013151287344
 20
96.0040248006121999
 30
0.0
 40
4.4500000000000002
  0
CIRCLE
  5
8F
100
AcDbEntity
100
AcDbCircle
  8
Drawing
 62
256
370
-1
  6
ByLayer
 10
116.840101315128905
 20
85.0040248006121857
 30
0.0
 40
4.4500000000000002
  0
LINE
  5
90
100
AcDbEntity
100
AcDbLine
  8
Drawing
 62
256
370
-1
  6
ByLayer
 10
125.8401013151289902
 20
79.5040248006123278
 30
0.0
 11
125.8401013151286492
 21
101.5040248006123278
 31
0.0
  0
CIRCLE
  5
91
100
AcDbEntity
100
AcDbCircle
  8
Drawing
 62
256
370
-1
  6
ByLayer
 10
125.8401013151287344
 20
96.004024800612342
 30
0.0
 40
4.4500000000000002
  0
CIRCLE
  5
92
100
AcDbEntity
100
AcDbCircle
  8
Drawing
 62
256
370
-1
  6
ByLayer
 10
125.840101315128905
 20
85.004024800612342
 30
0.0
 40
4.4500000000000002
  0
CIRCLE
  5
93
100
AcDbEntity
100
AcDbCircle
  8
Top Plate Top
 62
256
370
-1
  6
ByLayer
 10
116.8401013151287344
 20
96.0040248006121999
 30
0.0
 40
1.4199999999999999
  0
CIRCLE
  5
94
100
AcDbEntity
100
AcDbCircle
  8
Top Plate Top
 62
256
370
-1
  6
ByLayer
 10
116.840101315128905
 20
85.0040248006121857
 30
0.0
 40
1.4199999999999999
  0
CIRCLE
  5
95
100
AcDbEntity
100
AcDbCircle
  8
Top Plate Top
 62
256
370
-1
  6
ByLayer
 10
125.840101315128905
 20
85.004024800612342
 30
0.0
 40
1.4199999999999999
  0
CIRCLE
  5
96
100
AcDbEntity
100
AcDbCircle
  8
Top Plate Top
 62
256
370
-1
  6
ByLayer
 10
125.8401013151287344
 20
96.004024800612342
 30
0.0
 40
1.4199999999999999
  0
CIRCLE
  5
97
100
AcDbEntity
100
AcDbCircle
  8
Top Plate Middle Layer
 62
256
370
-1
  6
ByLayer
 10
125.8401013151287344
 20
96.004024800612342
 30
0.0
 40
1.4199999999999999
  0
CIRCLE
  5
98
100
AcDbEntity
100
AcDbCircle
  8
Top Plate Middle Layer
 62
256
370
-1
  6
ByLayer
 10
116.8401013151287344
 20
96.0040248006121999
 30
0.0
 40
1.4199999999999999
  0
CIRCLE
  5
99
100
AcDbEntity
100
AcDbCircle
  8
Top Plate Middle Layer
 62
256
370
-1
  6
ByLayer
 10
116.840101315128905
 20
85.0040248006121999
 30
0.0
 40
1.4199999999999999
  0
CIRCLE
  5
9A
100
AcDbEntity
100
AcDbCircle
  8
Top Plate Middle Layer
 62
256
370
-1
  6
ByLayer
 10
125.840101315128905
 20
85.004024800612342
 30
0.0
 40
1.4199999999999999
  0
CIRCLE
  5
9B
100
AcDbEntity
100
AcDbCircle
  8
Top Plate Bottom Layer
 62
256
370
-1
  6
ByLayer
 10
125.8401013151287344
 20
96.004024800612342
 30
0.0
 40
1.4199999999999999
  0
CIRCLE
  5
9C
100
AcDbEntity
100
AcDbCircle
  8
Top Plate Bottom Layer
 62
256
370
-1
  6
ByLayer
 10
116.8401013151287344
 20
96.0040248006121999
 30
0.0
 40
1.4199999999999999
  0
CIRCLE
  5
9D
100
AcDbEntity
100
AcDbCircle
  8
Top Plate Bottom Layer
 62
256
370
-1
  6
ByLayer
 10
116.840101315128905
 20
85.0040248006121999
 30
0.0
 40
1.4199999999999999
  0
CIRCLE
  5
9E
100
AcDbEntity
100
AcDbCircle
  8
Top Plate Bottom Layer
 62
256
370
-1
  6
ByLayer
 10
125.840101315128905
 20
85.004024800612342
 30
0.0
 40
1.4199999999999999
  0
LINE
  5
9F
100
AcDbEntity
100
AcDbLine
  8
Top Plate Middle Layer
 62
256
370
-1
  6
ByLayer
 10
105.7401013151287543
 20
99.5040248006120152
 30
0.0
 11
105.7401013151286122
 21
119.1740220061786317
 31
0.0
  0
LINE
  5
A0
100
AcDbEntity
100
AcDbLine
  8
Top Plate Middle Layer
 62
256
370
-1
  6
ByLayer
 10
105.7401013151290101
 20
68.2941167806193334
 30
0.0
 11
105.7401013151289391
 21
81.5040248006120152
 31
0.0
  0
LINE
  5
A1
100
AcDbEntity
100
AcDbLine
  8
Top Plate Bottom Layer
 62
256
370
-1
  6
ByLayer
 10
105.7401013151290101
 20
68.2941167806193334
 30
0.0
 11
105.7401013151289391
 21
82.5040248006120152
 31
0.0
  0
MTEXT
  5
A2
100
AcDbEntity
100
AcDbMText
  8
Top Plate Middle Layer Text
 62
256
370
-1
  6
ByLayer
 10
81.0
 20
106.0
 30
0.0
 40
2.0
 41
100.0
 71
1
 72
2
  1
Top\~Plate\PMiddle
  7
standard
 50
0.0
 73
1
 44
1.0
  0
MTEXT
  5
A3
100
AcDbEntity
100
AcDbMText
  8
Top Plate Middle Layer Text
 62
256
370
-1
  6
ByLayer
 10
112.0
 20
106.0
 30
0.0
 40
2.0
 41
100.0
 71
1
 72
2
  1
Top\~Plate\PMiddle
  7
standard
 50
0.0
 73
1
 44
1.0
  0
ARC
  5
A4
100
AcDbEntity
  8
Spring Plate
 62
256
370
-1
  6
ByLayer
100
AcDbCircle
 10
83.3401013151286634
 20
101.0040248006116457
 30
0.0
 40
5.0
100
AcDbArc
 50
90.0000000000009805
 51
180.0
  0
LINE
  5
A5
100
AcDbEntity
100
AcDbLine
  8
Spring Plate
 62
256
370
-1
  6
ByLayer
 10
78.340101315128976
 20
80.0040248006115746
 30
0.0
 11
78.3401013151286634
 21
101.0040248006115746
 31
0.0
  0
ARC
  5
A6
100
AcDbEntity
  8
Spring Plate
 62
256
370
-1
  6
ByLayer
100
AcDbCircle
 10
83.340101315128976
 20
80.0040248006116457
 30
0.0
 40
5.0
100
AcDbArc
 50
180.0
 51
270.0000000000009663
  0
LINE
  5
A7
100
AcDbEntity
100
AcDbLine
  8
Spring Plate
 62
256
370
-1
  6
ByLayer
 10
83.3401013151290613
 20
75.0040248006116457
 30
0.0
 11
130.8401013151290897
 21
75.0040248006124131
 31
0.0
  0
ARC
  5
A8
100
AcDbEntity
  8
Spring Plate
 62
256
370
-1
  6
ByLayer
100
AcDbCircle
 10
130.8401013151290044
 20
80.0040248006124131
 30
0.0
 40
5.0
100
AcDbArc
 50
270.0000000000009663
 51
0.0
  0
LINE
  5
A9
100
AcDbEntity
100
AcDbLine
  8
Spring Plate
 62
256
370
-1
  6
ByLayer
 10
83.3401013151285781
 20
106.0040248006116457
 30
0.0
 11
130.8401013151285781
 21
106.0040248006124131
 31
0.0
  0
LINE
  5
AA
100
AcDbEntity
100
AcDbLine
  8
Spring Plate
 62
256
370
-1
  6
ByLayer
 10
135.8401013151290044
 20
80.0040248006124841
 30
0.0
 11
135.8401013151286634
 21
101.0040248006124841
 31
0.0
  0
ARC
  5
AB
100
AcDbEntity
  8
Spring Plate
 62
256
370
-1
  6
ByLayer
100
AcDbCircle
 10
130.8401013151286634
 20
101.0040248006124131
 30
0.0
 40
5.0
100
AcDbArc
 50
0.0
 51
90.0000000000009805
  0
CIRCLE
  5
AC
100
AcDbEntity
100
AcDbCircle
  8
Spring Plate
 62
256
370
-1
  6
ByLayer
 10
116.8401013151289192
 20
85.0040248006121999
 30
0.0
 40
1.4199999999999999
  0
CIRCLE
  5
AD
100
AcDbEntity
100
AcDbCircle
  8
Spring Plate
 62
256
370
-1
  6
ByLayer
 10
125.840101315128905
 20
85.004024800612342
 30
0.0
 40
1.4199999999999999
  0
CIRCLE
  5
AE
100
AcDbEntity
100
AcDbCircle
  8
Spring Plate
 62
256
370
-1
  6
ByLayer
 10
125.8401013151287344
 20
96.004024800612342
 30
0.0
 40
1.4199999999999999
  0
CIRCLE
  5
AF
100
AcDbEntity
100
AcDbCircle
  8
Spring Plate
 62
256
370
-1
  6
ByLayer
 10
116.8401013151287344
 20
96.0040248006121999
 30
0.0
 40
1.4199999999999999
  0
MTEXT
  5
B0
100
AcDbEntity
100
AcDbMText
  8
Spring Plate Text
 62
256
370
-1
  6
ByLayer
 10
93.0
 20
102.0
 30
0.0
 40
3.0
 41
100.0
 71
5
 72
2
  1
Spring
  7
standard
 50
0.0
 73
1
 44
1.0
  0
MTEXT
  5
B1
100
AcDbEntity
100
AcDbMText
  8
Spring Plate Text
 62
256
370
-1
  6
ByLayer
 10
122.0
 20
102.0
 30
0.0
 40
3.0
 41
100.0
 71
5
 72
2
  1
Plate
  7
standard
 50
0.0
 73
1
 44
1.0
  0
LINE
  5
B2
100
AcDbEntity
100
AcDbLine
  8
Top Plate Bottom Layer
 62
256
370
-1
  6
ByLayer
 10
117.3978160860369115
 20
126.6096164997826747
 30
0.0
 11
108.9401013151286293
 21
123.5312600732583235
 31
0.0
  0
LINE
  5
B3
100
AcDbEntity
100
AcDbLine
  8
Top Plate Bottom Layer
 62
256
370
-1
  6
ByLayer
 10
116.0297355127341916
 20
130.3683869829262392
 30
0.0
 11
117.3978160860369115
 21
126.6096164997826747
 31
0.0
  0
LINE
  5
B4
100
AcDbEntity
100
AcDbLine
  8
Top Plate Bottom Layer
 62
256
370
-1
  6
ByLayer
 10
115.2779814161054901
 20
130.0947708682657264
 30
0.0
 11
116.0297355127341916
 21
130.3683869829262392
 31
0.0
  0
LINE
  5
B5
100
AcDbEntity
100
AcDbLine
  8
Top Plate Bottom Layer
 62
256
370
-1
  6
ByLayer
 10
75.0591372464688078
 20
115.4563087339267469
 30
0.0
 11
75.8108913430974809
 21
115.7299248485872596
 31
0.0
  0
LINE
  5
B6
100
AcDbEntity
100
AcDbLine
  8
Top Plate Bottom Layer
 62
256
370
-1
  6
ByLayer
 10
76.4272178197717125
 20
111.6975382507830687
 30
0.0
 11
75.0591372464688078
 21
115.4563087339267469
 31
0.0
  0
LINE
  5
B7
100
AcDbEntity
100
AcDbLine
  8
Top Plate Bottom Layer
 62
256
370
-1
  6
ByLayer
 10
83.5688817377446043
 20
114.2968913400583659
 30
0.0
 11
76.4272178197717125
 21
111.6975382507830687
 31
0.0
  0
LINE
  5
B8
100
AcDbEntity
100
AcDbLine
  8
Top Plate Bottom Layer
 62
256
370
-1
  6
ByLayer
 10
81.4490470678129128
 20
117.7820457085413466
 30
0.0
 11
82.2008011644416285
 21
118.0556618232018877
 31
0.0
  0
LINE
  5
B9
100
AcDbEntity
100
AcDbLine
  8
Top Plate Bottom Layer
 62
256
370
-1
  6
ByLayer
 10
82.2008011644416285
 20
118.0556618232018877
 30
0.0
 11
83.5688817377446043
 21
114.2968913400583659
 31
0.0
  0
LINE
  5
BA
100
AcDbEntity
100
AcDbLine
  8
Top Plate Bottom Layer
 62
256
370
-1
  6
ByLayer
 10
87.540101315129121
 20
76.2941167806189213
 30
0.0
 11
87.5401013151290215
 21
80.2941167806189355
 31
0.0
  0
LINE
  5
BB
100
AcDbEntity
100
AcDbLine
  8
Top Plate Bottom Layer
 62
256
370
-1
  6
ByLayer
 10
95.1401013151291437
 20
76.2941167806190634
 30
0.0
 11
87.540101315129121
 21
76.2941167806189213
 31
0.0
  0
LINE
  5
BC
100
AcDbEntity
100
AcDbLine
  8
Top Plate Bottom Layer
 62
256
370
-1
  6
ByLayer
 10
95.1401013151289732
 20
80.2941167806189355
 30
0.0
 11
95.1401013151291437
 21
76.2941167806190634
 31
0.0
  0
LINE
  5
BD
100
AcDbEntity
100
AcDbLine
  8
Top Plate Bottom Layer
 62
256
370
-1
  6
ByLayer
 10
87.5401013151290215
 20
80.2941167806189355
 30
0.0
 11
95.1401013151289732
 21
80.2941167806189355
 31
0.0
  0
LINE
  5
BE
100
AcDbEntity
100
AcDbLine
  8
Top Plate Bottom Layer
 62
256
370
-1
  6
ByLayer
 10
119.5401013151288936
 20
76.2941167806192766
 30
0.0
 11
119.5401013151288083
 21
80.2941167806192766
 31
0.0
  0
LINE
  5
BF
100
AcDbEntity
100
AcDbLine
  8
Top Plate Bottom Layer
 62
256
370
-1
  6
ByLayer
 10
127.1401013151288453
 20
76.2941167806193334
 30
0.0
 11
119.5401013151288936
 21
76.2941167806192766
 31
0.0
  0
LINE
  5
C0
100
AcDbEntity
100
AcDbLine
  8
Top Plate Bottom Layer
 62
256
370
-1
  6
ByLayer
 10
127.1401013151288169
 20
80.2941167806192766
 30
0.0
 11
127.1401013151288453
 21
76.2941167806193334
 31
0.0
  0
LINE
  5
C1
100
AcDbEntity
100
AcDbLine
  8
Top Plate Bottom Layer
 62
256
370
-1
  6
ByLayer
 10
119.5401013151288083
 20
80.2941167806192766
 30
0.0
 11
127.1401013151288169
 21
80.2941167806192766
 31
0.0
  0
LINE
  5
C2
100
AcDbEntity
100
AcDbLine
  8
Top Plate Middle Layer
 62
256
370
-1
  6
ByLayer
 10
87.5401013151290215
 20
80.2941167806189355
 30
0.0
 11
95.1401013151289874
 21
80.2941167806189355
 31
0.0
  0
LINE
  5
C3
100
AcDbEntity
100
AcDbLine
  8
Top Plate Middle Layer
 62
256
370
-1
  6
ByLayer
 10
95.1401013151289874
 20
80.2941167806189355
 30
0.0
 11
95.1401013151291153
 21
76.2941167806189924
 31
0.0
  0
LINE
  5
C4
100
AcDbEntity
100
AcDbLine
  8
Top Plate Middle Layer
 62
256
370
-1
  6
ByLayer
 10
95.1401013151291153
 20
76.2941167806189924
 30
0.0
 11
87.540101315129121
 21
76.2941167806189355
 31
0.0
  0
LINE
  5
C5
100
AcDbEntity
100
AcDbLine
  8
Top Plate Middle Layer
 62
256
370
-1
  6
ByLayer
 10
87.540101315129121
 20
76.2941167806189355
 30
0.0
 11
87.5401013151290215
 21
80.2941167806189355
 31
0.0
  0
LINE
  5
C6
100
AcDbEntity
100
AcDbLine
  8
Top Plate Middle Layer
 62
256
370
-1
  6
ByLayer
 10
119.5401013151288083
 20
80.2941167806192766
 30
0.0
 11
127.1401013151288169
 21
80.2941167806192766
 31
0.0
  0
LINE
  5
C7
100
AcDbEntity
100
AcDbLine
  8
Top Plate Middle Layer
 62
256
370
-1
  6
ByLayer
 10
127.1401013151288169
 20
80.2941167806192766
 30
0.0
 11
127.1401013151288453
 21
76.2941167806193334
 31
0.0
  0
LINE
  5
C8
100
AcDbEntity
100
AcDbLine
  8
Top Plate Middle Layer
 62
256
370
-1
  6
ByLayer
 10
119.5401013151288936
 20
76.2941167806192766
 30
0.0
 11
119.5401013151288083
 21
80.2941167806192766
 31
0.0
  0
LINE
  5
C9
100
AcDbEntity
100
AcDbLine
  8
Top Plate Middle Layer
 62
256
370
-1
  6
ByLayer
 10
127.1401013151288453
 20
76.2941167806193334
 30
0.0
 11
119.5401013151288936
 21
76.2941167806192766
 31
0.0
  0
LINE
  5
CA
100
AcDbEntity
100
AcDbLine
  8
Top Plate Middle Layer
 62
256
370
-1
  6
ByLayer
 10
116.0297355127341916
 20
130.3683869829262392
 30
0.0
 11
117.3978160860369115
 21
126.6096164997826747
 31
0.0
  0
LINE
  5
CB
100
AcDbEntity
100
AcDbLine
  8
Top Plate Middle Layer
 62
256
370
-1
  6
ByLayer
 10
117.3978160860369115
 20
126.6096164997826747
 30
0.0
 11
110.2561521680640055
 21
124.0102634105074628
 31
0.0
  0
LINE
  5
CC
100
AcDbEntity
100
AcDbLine
  8
Top Plate Middle Layer
 62
256
370
-1
  6
ByLayer
 10
108.888071594761314
 20
127.7690338936511978
 30
0.0
 11
116.0297355127341916
 21
130.3683869829262392
 31
0.0
  0
LINE
  5
CD
100
AcDbEntity
100
AcDbLine
  8
Top Plate Middle Layer
 62
256
370
-1
  6
ByLayer
 10
110.2561521680640055
 20
124.0102634105074628
 30
0.0
 11
108.888071594761314
 21
127.7690338936511978
 31
0.0
  0
LINE
  5
CE
100
AcDbEntity
100
AcDbLine
  8
Top Plate Middle Layer
 62
256
370
-1
  6
ByLayer
 10
75.0591372464688078
 20
115.4563087339267327
 30
0.0
 11
82.2008011644416285
 21
118.0556618232018877
 31
0.0
  0
LINE
  5
CF
100
AcDbEntity
100
AcDbLine
  8
Top Plate Middle Layer
 62
256
370
-1
  6
ByLayer
 10
76.4272178197717125
 20
111.6975382507830687
 30
0.0
 11
75.0591372464688078
 21
115.4563087339267327
 31
0.0
  0
LINE
  5
D0
100
AcDbEntity
100
AcDbLine
  8
Top Plate Middle Layer
 62
256
370
-1
  6
ByLayer
 10
82.2008011644416285
 20
118.0556618232018877
 30
0.0
 11
83.5688817377446043
 21
114.2968913400583659
 31
0.0
  0
LINE
  5
D1
100
AcDbEntity
100
AcDbLine
  8
Top Plate Middle Layer
 62
256
370
-1
  6
ByLayer
 10
83.5688817377446043
 20
114.2968913400583659
 30
0.0
 11
76.4272178197717125
 21
111.6975382507830687
 31
0.0
  0
LINE
  5
D2
100
AcDbEntity
100
AcDbLine
  8
Top Plate Top
 62
256
370
-1
  6
ByLayer
 10
101.9401013151287856
 20
101.5040248006119583
 30
0.0
 11
108.9401013151287856
 21
101.504024800612072
 31
0.0
  0
LINE
  5
D3
100
AcDbEntity
100
AcDbLine
  8
Top Plate Top
 62
256
370
-1
  6
ByLayer
 10
108.9401013151291266
 20
79.504024800612072
 30
0.0
 11
108.9401013151287856
 21
101.504024800612072
 31
0.0
  0
LINE
  5
D4
100
AcDbEntity
100
AcDbLine
  8
Top Plate Top
 62
256
370
-1
  6
ByLayer
 10
101.9401013151291266
 20
79.5040248006119583
 30
0.0
 11
101.9401013151287856
 21
101.5040248006119583
 31
0.0
  0
LINE
  5
D5
100
AcDbEntity
100
AcDbLine
  8
Top Plate Top
 62
256
370
-1
  6
ByLayer
 10
101.9401013151291266
 20
79.5040248006119583
 30
0.0
 11
108.9401013151291266
 21
79.504024800612072
 31
0.0
  0
LINE
  5
D6
100
AcDbEntity
100
AcDbLine
  8
Top Plate Middle Layer
 62
256
370
-1
  6
ByLayer
 10
101.9401013151287998
 20
81.5040248006119583
 30
0.0
 11
101.9401013151287998
 21
99.5040248006119583
 31
0.0
  0
LINE
  5
D7
100
AcDbEntity
100
AcDbLine
  8
Top Plate Middle Layer
 62
256
370
-1
  6
ByLayer
 10
101.9401013151287998
 20
99.5040248006119583
 30
0.0
 11
105.7401013151287543
 21
99.5040248006120152
 31
0.0
  0
LINE
  5
D8
100
AcDbEntity
100
AcDbLine
  8
Top Plate Middle Layer
 62
256
370
-1
  6
ByLayer
 10
101.9401013151287998
 20
81.5040248006119583
 30
0.0
 11
105.7401013151289391
 21
81.5040248006120152
 31
0.0
  0
LINE
  5
D9
100
AcDbEntity
100
AcDbLine
  8
Top Plate Middle Layer
 62
256
370
-1
  6
ByLayer
 10
108.9401013151285582
 20
134.1730377980173898
 30
0.0
 11
108.9401013151289987
 21
68.2941167806193334
 31
0.0
  0
LINE
  5
DA
100
AcDbEntity
100
AcDbLine
  8
Top Plate Bottom Layer
 62
256
370
-1
  6
ByLayer
 10
101.9401013151287998
 20
82.5040248006119583
 30
0.0
 11
105.7401013151289391
 21
82.5040248006120152
 31
0.0
  0
LINE
  5
DB
100
AcDbEntity
100
AcDbLine
  8
Top Plate Bottom Layer
 62
256
370
-1
  6
ByLayer
 10
108.9401013151287998
 20
98.504024800612072
 30
0.0
 11
108.9401013151288282
 21
94.1485230299330595
 31
0.0
  0
LINE
  5
DC
100
AcDbEntity
100
AcDbLine
  8
Top Plate Bottom Layer
 62
256
370
-1
  6
ByLayer
 10
101.9401013151287998
 20
97.2999407652188211
 30
0.0
 11
101.9401013151287998
 21
82.5040248006119583
 31
0.0
  0
LINE
  5
DD
100
AcDbEntity
100
AcDbLine
  8
Top Plate Bottom Layer
 62
256
370
-1
  6
ByLayer
 10
101.9401013151287998
 20
97.2999407652188211
 30
0.0
 11
95.354422675719988
 21
115.3939441187795296
 31
0.0
  0
LINE
  5
DE
100
AcDbEntity
100
AcDbLine
  8
Drawing
 62
256
370
-1
  6
ByLayer
 10
104.9401013151284729
 20
133.5906854231912462
 30
0.0
 11
104.9401013151292261
 21
68.294116780619305
 31
0.0
  0
LINE
  5
DF
100
AcDbEntity
100
AcDbLine
  8
Drawing
 62
256
370
-1
  6
ByLayer
 10
78.0039458328683821
 20
90.5040248006115746
 30
0.0
 11
109.4401013151288282
 21
90.5040248006120862
 31
0.0
  0
LINE
  5
E0
100
AcDbEntity
100
AcDbLine
  8
Drawing
 62
256
370
-1
  6
ByLayer
 10
78.0039458328683821
 20
96.0040248006115746
 30
0.0
 11
128.8833444015066618
 21
96.0040248006123988
 31
0.0
  0
LINE
  5
E1
100
AcDbEntity
100
AcDbLine
  8
Drawing
 62
256
370
-1
  6
ByLayer
 10
78.0039458328683821
 20
85.0040248006115746
 30
0.0
 11
129.7561467766131216
 21
85.0040248006124131
 31
0.0
  0
LINE
  5
E2
100
AcDbEntity
100
AcDbLine
  8
Drawing
 62
256
370
-1
  6
ByLayer
 10
94.9401013151290982
 20
79.5040248006118588
 30
0.0
 11
94.9401013151287572
 21
101.5040248006118588
 31
0.0
  0
CIRCLE
  5
E3
100
AcDbEntity
100
AcDbCircle
  8
Drawing
 62
256
370
-1
  6
ByLayer
 10
94.9401013151288424
 20
96.0040248006118446
 30
0.0
 40
4.4500000000000002
  0
CIRCLE
  5
E4
100
AcDbEntity
100
AcDbCircle
  8
Drawing
 62
256
370
-1
  6
ByLayer
 10
94.940101315129013
 20
85.0040248006118446
 30
0.0
 40
4.4500000000000002
  0
LINE
  5
E5
100
AcDbEntity
100
AcDbLine
  8
Drawing
 62
256
370
-1
  6
ByLayer
 10
85.9401013151290982
 20
79.5040248006117167
 30
0.0
 11
85.9401013151287572
 21
101.5040248006117167
 31
0.0
  0
CIRCLE
  5
E6
100
AcDbEntity
100
AcDbCircle
  8
Drawing
 62
256
370
-1
  6
ByLayer
 10
85.9401013151288424
 20
96.0040248006117025
 30
0.0
 40
4.4500000000000002
  0
CIRCLE
  5
E7
100
AcDbEntity
100
AcDbCircle
  8
Drawing
 62
256
370
-1
  6
ByLayer
 10
85.940101315129013
 20
85.0040248006117025
 30
0.0
 40
4.4500000000000002
  0
ARC
  5
E8
100
AcDbEntity
  8
Spring Plate
 62
256
370
-1
  6
ByLayer
100
AcDbCircle
 10
101.4401013151287856
 20
101.5040248006119583
 30
0.0
 40
0.5
100
AcDbArc
 50
90.0000000000016342
 51
180.0
  0
LINE
  5
E9
100
AcDbEntity
100
AcDbLine
  8
Spring Plate
 62
256
370
-1
  6
ByLayer
 10
101.4401013151287714
 20
102.0040248006119583
 30
0.0
 11
108.4401013151287714
 21
102.004024800612072
 31
0.0
  0
ARC
  5
EA
100
AcDbEntity
  8
Spring Plate
 62
256
370
-1
  6
ByLayer
100
AcDbCircle
 10
108.4401013151287856
 20
101.504024800612072
 30
0.0
 40
0.5
100
AcDbArc
 50
0.0
 51
90.0000000000016342
  0
LINE
  5
EB
100
AcDbEntity
100
AcDbLine
  8
Spring Plate
 62
256
370
-1
  6
ByLayer
 10
108.9401013151291266
 20
79.5040248006120862
 30
0.0
 11
108.9401013151287856
 21
101.5040248006120862
 31
0.0
  0
ARC
  5
EC
100
AcDbEntity
  8
Spring Plate
 62
256
370
-1
  6
ByLayer
100
AcDbCircle
 10
108.4401013151291266
 20
79.504024800612072
 30
0.0
 40
0.5
100
AcDbArc
 50
270.0000000000016485
 51
0.0
  0
LINE
  5
ED
100
AcDbEntity
100
AcDbLine
  8
Spring Plate
 62
256
370
-1
  6
ByLayer
 10
100.9401013151291266
 20
79.5040248006119441
 30
0.0
 11
100.9401013151287856
 21
101.5040248006119441
 31
0.0
  0
LINE
  5
EE
100
AcDbEntity
100
AcDbLine
  8
Spring Plate
 62
256
370
-1
  6
ByLayer
 10
101.4401013151291409
 20
79.0040248006119583
 30
0.0
 11
108.4401013151291409
 21
79.004024800612072
 31
0.0
  0
ARC
  5
EF
100
AcDbEntity
  8
Spring Plate
 62
256
370
-1
  6
ByLayer
100
AcDbCircle
 10
101.4401013151291266
 20
79.5040248006119583
 30
0.0
 40
0.5
100
AcDbArc
 50
180.0
 51
270.0000000000016485
  0
CIRCLE
  5
F0
100
AcDbEntity
100
AcDbCircle
  8
Spring Plate
 62
256
370
-1
  6
ByLayer
 10
85.9401013151288424
 20
96.0040248006117025
 30
0.0
 40
1.4199999999999999
  0
CIRCLE
  5
F1
100
AcDbEntity
100
AcDbCircle
  8
Spring Plate
 62
256
370
-1
  6
ByLayer
 10
94.9401013151288424
 20
96.0040248006118446
 30
0.0
 40
1.4199999999999999
  0
CIRCLE
  5
F2
100
AcDbEntity
100
AcDbCircle
  8
Spring Plate
 62
256
370
-1
  6
ByLayer
 10
94.940101315129013
 20
85.0040248006118446
 30
0.0
 40
1.4199999999999999
  0
CIRCLE
  5
F3
100
AcDbEntity
100
AcDbCircle
  8
Spring Plate
 62
256
370
-1
  6
ByLayer
 10
85.940101315129013
 20
85.0040248006117025
 30
0.0
 40
1.4199999999999999
  0
CIRCLE
  5
F4
100
AcDbEntity
100
AcDbCircle
  8
Top Plate Bottom Layer
 62
256
370
-1
  6
ByLayer
 10
94.9401013151288424
 20
96.0040248006118446
 30
0.0
 40
1.424999999999996
  0
CIRCLE
  5
F5
100
AcDbEntity
100
AcDbCircle
  8
Top Plate Bottom Layer
 62
256
370
-1
  6
ByLayer
 10
94.940101315129013
 20
85.0040248006118446
 30
0.0
 40
1.424999999999996
  0
CIRCLE
  5
F6
100
AcDbEntity
100
AcDbCircle
  8
Top Plate Bottom Layer
 62
256
370
-1
  6
ByLayer
 10
85.9401013151288424
 20
96.0040248006117025
 30
0.0
 40
1.424999999999996
  0
CIRCLE
  5
F7
100
AcDbEntity
100
AcDbCircle
  8
Top Plate Bottom Layer
 62
256
370
-1
  6
ByLayer
 10
85.940101315129013
 20
85.0040248006117025
 30
0.0
 40
1.424999999999996
  0
CIRCLE
  5
F8
100
AcDbEntity
100
AcDbCircle
  8
Top Plate Middle Layer
 62
256
370
-1
  6
ByLayer
 10
94.9401013151288424
 20
96.0040248006118446
 30
0.0
 40
1.424999999999996
  0
CIRCLE
  5
F9
100
AcDbEntity
100
AcDbCircle
  8
Top Plate Middle Layer
 62
256
370
-1
  6
ByLayer
 10
94.940101315129013
 20
85.0040248006118446
 30
0.0
 40
1.424999999999996
  0
CIRCLE
  5
FA
100
AcDbEntity
100
AcDbCircle
  8
Top Plate Middle Layer
 62
256
370
-1
  6
ByLayer
 10
85.9401013151288424
 20
96.0040248006117025
 30
0.0
 40
1.424999999999996
  0
CIRCLE
  5
FB
100
AcDbEntity
100
AcDbCircle
  8
Top Plate Middle Layer
 62
256
370
-1
  6
ByLayer
 10
85.940101315129013
 20
85.0040248006117025
 30
0.0
 40
1.424999999999996
  0
CIRCLE
  5
FC
100
AcDbEntity
100
AcDbCircle
  8
Top Plate Top
 62
256
370
-1
  6
ByLayer
 10
94.9401013151288424
 20
96.0040248006118446
 30
0.0
 40
1.424999999999996
  0
CIRCLE
  5
FD
100
AcDbEntity
100
AcDbCircle
  8
Top Plate Top
 62
256
370
-1
  6
ByLayer
 10
94.940101315129013
 20
85.0040248006118446
 30
0.0
 40
1.424999999999996
  0
CIRCLE
  5
FE
100
AcDbEntity
100
AcDbCircle
  8
Top Plate Top
 62
256
370
-1
  6
ByLayer
 10
85.9401013151288424
 20
96.0040248006117025
 30
0.0
 40
1.424999999999996
  0
CIRCLE
  5
FF
100
AcDbEntity
100
AcDbCircle
  8
Top Plate Top
 62
256
370
-1
  6
ByLayer
 10
85.940101315129013
 20
85.0040248006117025
 30
0.0
 40
1.424999999999996
  0
MTEXT
  5
100
100
AcDbEntity
100
AcDbMText
  8
Top Plate Bottom Text
 62
256
370
-1
  6
ByLayer
 10
81.0
 20
106.0
 30
0.0
 40
2.0
 41
100.0
 71
1
 72
2
  1
Top\~Plate\PBottom
  7
standard
 50
0.0
 73
1
 44
1.0
  0
MTEXT
  5
101
100
AcDbEntity
100
AcDbMText
  8
Top Plate Bottom Text
 62
256
370
-1
  6
ByLayer
 10
112.0
 20
106.0
 30
0.0
 40
2.0
 41
100.0
 71
1
 72
2
  1
Top\~Plate\PBottom
  7
standard
 50
0.0
 73
1
 44
1.0
  0
MTEXT
  5
102
100
AcDbEntity
100
AcDbMText
  8
Top Plate Top Text
 62
256
370
-1
  6
ByLayer
 10
81.0
 20
106.0
 30
0.0
 40
2.0
 41
100.0
 71
1
 72
2
  1
Top\~Plate\PTop
  7
standard
 50
0.0
 73
1
 44
1.0
  0
MTEXT
  5
103
100
AcDbEntity
100
AcDbMText
  8
Top Plate Top Text
 62
256
370
-1
  6
ByLayer
 10
112.0
 20
106.0
 30
0.0
 40
2.0
 41
100.0
 71
1
 72
2
  1
Top\~Plate\PTop
  7
standard
 50
0.0
 73
1
 44
1.0
  0
CIRCLE
  5
104
100
AcDbEntity
100
AcDbCircle
  8
Main Plate Top Layer
 62
256
370
-1
  6
ByLayer
 10
115.3401013151287202
 20
75.2941167806187082
 30
0.0
 40
1.425
  0
CIRCLE
  5
105
100
AcDbEntity
100
AcDbCircle
  8
Main Plate Top Layer
 62
256
370
-1
  6
ByLayer
 10
99.3401013151288055
 20
75.2941167806187082
 30
0.0
 40
1.425
  0
LINE
  5
106
100
AcDbEntity
100
AcDbLine
  8
Main Plate Top Layer
 62
256
370
-1
  6
ByLayer
 10
116.0621938857030955
 20
78.2354900132194615
 30
0.0
 11
108.5446529194157677
 21
75.4993288666140785
 31
0.0
  0
LINE
  5
107
100
AcDbEntity
100
AcDbLine
  8
Main Plate Top Layer
 62
256
370
-1
  6
ByLayer
 10
109.6398256913902856
 20
128.0426500083112842
 30
0.0
 11
107.587704831436298
 21
133.6808057330267729
 31
0.0
  0
LINE
  5
108
100
AcDbEntity
100
AcDbLine
  8
Main Plate Top Layer
 62
256
370
-1
  6
ByLayer
 10
113.22586055615173
 20
135.7329265929807889
 30
0.0
 11
115.2779814161057175
 21
130.0947708682653001
 31
0.0
  0
LINE
  5
109
100
AcDbEntity
100
AcDbLine
  8
Main Plate Top Layer
 62
256
370
-1
  6
ByLayer
 10
126.9124371858605116
 20
109.8245839538728461
 30
0.0
 11
116.9846310392953228
 21
137.1010071662834662
 31
0.0
  0
LINE
  5
10A
100
AcDbEntity
100
AcDbLine
  8
Main Plate Top Layer
 62
256
370
-1
  6
ByLayer
 10
132.3401013151286918
 20
68.2941167806186797
 30
0.0
 11
132.3401013151287771
 21
79.042771054562678
 31
0.0
  0
LINE
  5
10B
100
AcDbEntity
100
AcDbLine
  8
Main Plate Top Layer
 62
256
370
-1
  6
ByLayer
 10
126.3401013151287771
 20
68.2941167806186797
 30
0.0
 11
132.3401013151286918
 21
68.2941167806186797
 31
0.0
  0
LINE
  5
10C
100
AcDbEntity
100
AcDbLine
  8
Main Plate Top Layer
 62
256
370
-1
  6
ByLayer
 10
126.3401013151287486
 20
76.2941167806187082
 30
0.0
 11
126.3401013151287771
 21
68.2941167806186797
 31
0.0
  0
LINE
  5
10D
100
AcDbEntity
100
AcDbLine
  8
Main Plate Top Layer
 62
256
370
-1
  6
ByLayer
 10
120.3401013151287486
 20
68.2941167806186797
 30
0.0
 11
120.3401013151288339
 21
76.2941167806187366
 31
0.0
  0
LINE
  5
10E
100
AcDbEntity
100
AcDbLine
  8
Main Plate Top Layer
 62
256
370
-1
  6
ByLayer
 10
94.3401013151287202
 20
68.294116780618694
 30
0.0
 11
120.3401013151287486
 21
68.2941167806186797
 31
0.0
  0
LINE
  5
10F
100
AcDbEntity
100
AcDbLine
  8
Main Plate Top Layer
 62
256
370
-1
  6
ByLayer
 10
94.3401013151287202
 20
76.294116780618694
 30
0.0
 11
94.3401013151287202
 21
68.294116780618694
 31
0.0
  0
LINE
  5
110
100
AcDbEntity
100
AcDbLine
  8
Main Plate Top Layer
 62
256
370
-1
  6
ByLayer
 10
88.3401013151288055
 20
68.294116780618694
 30
0.0
 11
88.3401013151287771
 21
76.2941167806186797
 31
0.0
  0
LINE
  5
111
100
AcDbEntity
100
AcDbLine
  8
Main Plate Top Layer
 62
256
370
-1
  6
ByLayer
 10
82.3401013151287486
 20
68.2941167806187082
 30
0.0
 11
88.3401013151288055
 21
68.294116780618694
 31
0.0
  0
LINE
  5
112
100
AcDbEntity
100
AcDbLine
  8
Main Plate Top Layer
 62
256
370
-1
  6
ByLayer
 10
82.3401013151287771
 20
70.2264220191393918
 30
0.0
 11
82.3401013151287486
 21
68.2941167806187082
 31
0.0
  0
LINE
  5
113
100
AcDbEntity
100
AcDbLine
  8
Main Plate Top Layer
 62
256
370
-1
  6
ByLayer
 10
75.8108913430975804
 20
115.7299248485872312
 30
0.0
 11
73.7587704831436213
 21
121.3680805733026915
 31
0.0
  0
LINE
  5
114
100
AcDbEntity
100
AcDbLine
  8
Main Plate Top Layer
 62
256
370
-1
  6
ByLayer
 10
79.3969262078589963
 20
123.4202014332566932
 30
0.0
 11
81.4490470678129554
 21
117.7820457085412755
 31
0.0
  0
ARC
  5
115
100
AcDbEntity
  8
Main Plate Top Layer
 62
256
370
-1
  6
ByLayer
100
AcDbCircle
 10
108.33944083342044
 20
76.0631444390856331
 30
0.0
 40
0.599999999999996
100
AcDbArc
 50
199.9999999999997158
 51
289.9999999999998863
  0
ARC
  5
116
100
AcDbEntity
  8
Main Plate Top Layer
 62
256
370
-1
  6
ByLayer
100
AcDbCircle
 10
115.8569817997076825
 20
78.7993055856909734
 30
0.0
 40
0.5999999999999983
100
AcDbArc
 50
289.9999999999998295
 51
20.000000000000103
  0
ARC
  5
117
100
AcDbEntity
  8
Main Plate Top Layer
 62
256
370
-1
  6
ByLayer
100
AcDbCircle
 10
42.3401013151293455
 20
79.0427710545628628
 30
0.0
 40
89.9999999999993463
100
AcDbArc
 50
0.0
 51
20.000000000000103
  0
ARC
  5
118
100
AcDbEntity
  8
Main Plate Top Layer
 62
256
370
-1
  6
ByLayer
100
AcDbCircle
 10
-7.6598986848708819
 20
70.2264220191412676
 30
0.0
 40
89.9999999999996447
100
AcDbArc
 50
0.0
 51
20.000000000000103
  0
LINE
  5
119
100
AcDbEntity
100
AcDbLine
  8
Main Plate Top Layer
 62
256
370
-1
  6
ByLayer
 10
70.0
 20
120.0
 30
0.0
 11
76.9124371858605969
 21
101.008234918449574
 31
0.0
  0
LINE
  5
11A
100
AcDbEntity
100
AcDbLine
  8
Notes
 62
256
370
-1
  6
ByLayer
 10
89.2967256421547404
 20
82.2941167806186655
 30
0.0
 11
88.9401013151287145
 21
82.2941167806187082
 31
0.0
  0
CIRCLE
  5
11B
100
AcDbEntity
100
AcDbCircle
  8
Main Plate Bottom Layer
 62
256
370
-1
  6
ByLayer
 10
115.3401013151286918
 20
75.294116780618765
 30
0.0
 40
1.425
  0
CIRCLE
  5
11C
100
AcDbEntity
100
AcDbCircle
  8
Main Plate Bottom Layer
 62
256
370
-1
  6
ByLayer
 10
99.3401013151287771
 20
75.2941167806187082
 30
0.0
 40
1.425
  0
LINE
  5
11D
100
AcDbEntity
100
AcDbLine
  8
Main Plate Bottom Layer
 62
256
370
-1
  6
ByLayer
 10
116.0621938857030386
 20
78.2354900132194757
 30
0.0
 11
108.5446529194157677
 21
75.4993288666140785
 31
0.0
  0
LINE
  5
11E
100
AcDbEntity
100
AcDbLine
  8
Main Plate Bottom Layer
 62
256
370
-1
  6
ByLayer
 10
126.9124371858605116
 20
109.8245839538728461
 30
0.0
 11
116.9846310392953228
 21
137.1010071662834662
 31
0.0
  0
LINE
  5
11F
100
AcDbEntity
100
AcDbLine
  8
Main Plate Bottom Layer
 62
256
370
-1
  6
ByLayer
 10
132.3401013151287486
 20
68.2941167806186797
 30
0.0
 11
132.3401013151286918
 21
79.0427710545626212
 31
0.0
  0
LINE
  5
120
100
AcDbEntity
100
AcDbLine
  8
Main Plate Bottom Layer
 62
256
370
-1
  6
ByLayer
 10
82.3401013151287771
 20
70.2264220191393918
 30
0.0
 11
82.3401013151287486
 21
68.2941167806187082
 31
0.0
  0
LINE
  5
121
100
AcDbEntity
100
AcDbLine
  8
Main Plate Bottom Layer
 62
256
370
-1
  6
ByLayer
 10
70.0
 20
120.0
 30
0.0
 11
76.9124371858605969
 21
101.008234918449574
 31
0.0
  0
ARC
  5
122
100
AcDbEntity
  8
Main Plate Bottom Layer
 62
256
370
-1
  6
ByLayer
100
AcDbCircle
 10
108.3394408334203831
 20
76.0631444390856188
 30
0.0
 40
0.599999999999996
100
AcDbArc
 50
199.9999999999997158
 51
289.9999999999998863
  0
ARC
  5
123
100
AcDbEntity
  8
Main Plate Bottom Layer
 62
256
370
-1
  6
ByLayer
100
AcDbCircle
 10
115.8569817997076257
 20
78.7993055856909876
 30
0.0
 40
0.5999999999999983
100
AcDbArc
 50
289.9999999999998295
 51
20.000000000000103
  0
ARC
  5
124
100
AcDbEntity
  8
Main Plate Bottom Layer
 62
256
370
-1
  6
ByLayer
100
AcDbCircle
 10
42.3401013151293455
 20
79.0427710545628628
 30
0.0
 40
89.9999999999993463
100
AcDbArc
 50
0.0
 51
20.000000000000103
  0
ARC
  5
125
100
AcDbEntity
  8
Main Plate Bottom Layer
 62
256
370
-1
  6
ByLayer
100
AcDbCircle
 10
-7.6598986848709671
 20
70.226422019141296
 30
0.0
 40
89.9999999999996447
100
AcDbArc
 50
0.0
 51
20.000000000000103
  0
MTEXT
  5
126
100
AcDbEntity
100
AcDbMText
  8
Main Plate Top Text
 62
256
370
-1
  6
ByLayer
 10
123.0412496058205534
 20
110.9783508611256337
 30
0.0
 40
2.0
 41
100.0
 71
3
 72
2
  1
Main\~Plate\PTop
  7
standard
 50
360.0
 73
0
 44
1.0
  0
MTEXT
  5
127
100
AcDbEntity
100
AcDbMText
  8
Main Plate Bottom Text
 62
256
370
-1
  6
ByLayer
 10
123.0412496058205534
 20
110.9783508611256337
 30
0.0
 40
2.0
 41
100.0
 71
3
 72
2
  1
Main\~Plate\PBottom
  7
standard
 50
360.0
 73
0
 44
1.0
  0
LINE
  5
128
100
AcDbEntity
100
AcDbLine
  8
Main Plate Bottom Layer
 62
256
370
-1
  6
ByLayer
 10
101.1038257480134916
 20
131.3208667440796376
 30
0.0
 11
105.5500876112471929
 21
119.1048626738627974
 31
0.0
  0
LINE
  5
129
100
AcDbEntity
100
AcDbLine
  8
Main Plate Bottom Layer
 62
256
370
-1
  6
ByLayer
 10
85.8808052912817743
 20
125.7801404222038286
 30
0.0
 11
90.3270671545154755
 21
113.5641363519870026
 31
0.0
  0
LINE
  5
12A
100
AcDbEntity
100
AcDbLine
  8
Main Plate Bottom Layer
 62
256
370
-1
  6
ByLayer
 10
105.5500876112471929
 20
119.1048626738627974
 30
0.0
 11
102.26116343849651
 21
117.9077921722229689
 31
0.0
  0
LINE
  5
12B
100
AcDbEntity
100
AcDbLine
  8
Main Plate Bottom Layer
 62
256
370
-1
  6
ByLayer
 10
93.6159913272661584
 20
114.7612068536268168
 30
0.0
 11
90.3270671545154755
 21
113.5641363519870026
 31
0.0
  0
LINE
  5
12C
100
AcDbEntity
100
AcDbLine
  8
Main Plate Bottom Layer
 62
256
370
-1
  6
ByLayer
 10
116.9846310392953228
 20
137.1010071662834662
 30
0.0
 11
101.1038257480134916
 21
131.3208667440796376
 31
0.0
  0
LINE
  5
12D
100
AcDbEntity
100
AcDbLine
  8
Main Plate Bottom Layer
 62
256
370
-1
  6
ByLayer
 10
85.8808052912817743
 20
125.7801404222038286
 30
0.0
 11
70.0
 21
120.0
 31
0.0
  0
LINE
  5
12E
100
AcDbEntity
100
AcDbLine
  8
Main Plate Top Layer
 62
256
370
-1
  6
ByLayer
 10
102.2611634384965669
 20
117.9077921722229974
 30
0.0
 11
116.4207973721791802
 21
79.0045176716864148
 31
0.0
  0
LINE
  5
12F
100
AcDbEntity
100
AcDbLine
  8
Main Plate Top Layer
 62
256
370
-1
  6
ByLayer
 10
102.26116343849651
 20
117.9077921722229689
 30
0.0
 11
105.5500876112471929
 21
119.1048626738627974
 31
0.0
  0
LINE
  5
130
100
AcDbEntity
100
AcDbLine
  8
Main Plate Top Layer
 62
256
370
-1
  6
ByLayer
 10
105.5500876112471929
 20
119.1048626738627974
 30
0.0
 11
101.1038257480134916
 21
131.3208667440796376
 31
0.0
  0
LINE
  5
131
100
AcDbEntity
100
AcDbLine
  8
Main Plate Top Layer
 62
256
370
-1
  6
ByLayer
 10
101.1038257480134916
 20
131.3208667440796376
 30
0.0
 11
107.5877048314362696
 21
133.6808057330267729
 31
0.0
  0
LINE
  5
132
100
AcDbEntity
100
AcDbLine
  8
Main Plate Top Layer
 62
256
370
-1
  6
ByLayer
 10
93.6159913272661584
 20
114.7612068536268168
 30
0.0
 11
90.3270671545154755
 21
113.5641363519870026
 31
0.0
  0
LINE
  5
133
100
AcDbEntity
100
AcDbLine
  8
Main Plate Top Layer
 62
256
370
-1
  6
ByLayer
 10
90.3270671545154755
 20
113.5641363519870026
 30
0.0
 11
85.8808052912817743
 21
125.7801404222038286
 31
0.0
  0
LINE
  5
134
100
AcDbEntity
100
AcDbLine
  8
Main Plate Top Layer
 62
256
370
-1
  6
ByLayer
 10
85.8808052912817743
 20
125.7801404222038286
 30
0.0
 11
79.3969262078589963
 21
123.4202014332566932
 31
0.0
  0
LINE
  5
135
100
AcDbEntity
100
AcDbLine
  8
Main Plate Top Layer
 62
256
370
-1
  6
ByLayer
 10
73.7587704831436213
 20
121.3680805733026915
 30
0.0
 11
70.0
 21
120.0
 31
0.0
  0
LINE
  5
136
100
AcDbEntity
100
AcDbLine
  8
Main Plate Top Layer
 62
256
370
-1
  6
ByLayer
 10
116.9846310392953228
 20
137.1010071662834662
 30
0.0
 11
113.22586055615173
 21
135.7329265929807889
 31
0.0
  0
LINE
  5
137
100
AcDbEntity
100
AcDbLine
  8
Main Plate Bottom Layer
 62
256
370
-1
  6
ByLayer
 10
114.6387232133735097
 20
83.900726182798536
 30
0.0
 11
116.4207973721791802
 21
79.0045176716864148
 31
0.0
  0
LINE
  5
138
100
AcDbEntity
100
AcDbLine
  8
Main Plate Bottom Layer
 62
256
370
-1
  6
ByLayer
 10
105.993551102143158
 20
80.7541408642023271
 30
0.0
 11
107.7756252609488286
 21
75.8579323530902059
 31
0.0
  0
ARC
  5
139
100
AcDbEntity
  8
Main Plate Bottom Layer
 62
256
370
-1
  6
ByLayer
100
AcDbCircle
 10
108.0775375891906833
 20
88.477935289341076
 30
0.0
 40
8.0
100
AcDbArc
 50
325.0996321953934398
 51
74.9003678046064749
  0
LINE
  5
13A
100
AcDbEntity
100
AcDbLine
  8
Main Plate Bottom Layer
 62
256
370
-1
  6
ByLayer
 10
102.26116343849651
 20
117.9077921722229689
 30
0.0
 11
110.1615240762381518
 21
96.2017297144797681
 31
0.0
  0
ARC
  5
13B
100
AcDbEntity
  8
Main Plate Bottom Layer
 62
256
370
-1
  6
ByLayer
100
AcDbCircle
 10
108.0775375891906833
 20
88.477935289341076
 30
0.0
 40
8.0
100
AcDbArc
 50
145.0996321953935819
 51
254.9003678046064749
  0
LINE
  5
13C
100
AcDbEntity
100
AcDbLine
  8
Main Plate Bottom Layer
 62
256
370
-1
  6
ByLayer
 10
93.6159913272661584
 20
114.7612068536268168
 30
0.0
 11
101.5163519650078001
 21
93.0551443958836018
 31
0.0
  0
CIRCLE
  5
13D
100
AcDbEntity
100
AcDbCircle
  8
Main Plate Middle Layer
 62
256
370
-1
  6
ByLayer
 10
115.3401013151286918
 20
75.294116780618765
 30
0.0
 40
1.425
  0
CIRCLE
  5
13E
100
AcDbEntity
100
AcDbCircle
  8
Main Plate Middle Layer
 62
256
370
-1
  6
ByLayer
 10
99.3401013151288055
 20
75.2941167806187082
 30
0.0
 40
1.425
  0
LINE
  5
13F
100
AcDbEntity
100
AcDbLine
  8
Main Plate Middle Layer
 62
256
370
-1
  6
ByLayer
 10
116.0621938857030955
 20
78.2354900132194615
 30
0.0
 11
108.5446529194157677
 21
75.4993288666140785
 31
0.0
  0
LINE
  5
140
100
AcDbEntity
100
AcDbLine
  8
Main Plate Middle Layer
 62
256
370
-1
  6
ByLayer
 10
126.9124371858604832
 20
109.8245839538728603
 30
0.0
 11
116.9846310392953228
 21
137.1010071662834662
 31
0.0
  0
LINE
  5
141
100
AcDbEntity
100
AcDbLine
  8
Main Plate Middle Layer
 62
256
370
-1
  6
ByLayer
 10
132.3401013151287486
 20
68.2941167806186797
 30
0.0
 11
132.3401013151287771
 21
79.042771054562678
 31
0.0
  0
LINE
  5
142
100
AcDbEntity
100
AcDbLine
  8
Main Plate Middle Layer
 62
256
370
-1
  6
ByLayer
 10
82.3401013151287771
 20
70.2264220191393918
 30
0.0
 11
82.3401013151287486
 21
68.2941167806187082
 31
0.0
  0
ARC
  5
143
100
AcDbEntity
  8
Main Plate Middle Layer
 62
256
370
-1
  6
ByLayer
100
AcDbCircle
 10
108.33944083342044
 20
76.0631444390856331
 30
0.0
 40
0.599999999999996
100
AcDbArc
 50
199.9999999999997158
 51
289.9999999999998863
  0
ARC
  5
144
100
AcDbEntity
  8
Main Plate Middle Layer
 62
256
370
-1
  6
ByLayer
100
AcDbCircle
 10
115.8569817997076825
 20
78.7993055856909734
 30
0.0
 40
0.5999999999999983
100
AcDbArc
 50
289.9999999999998295
 51
20.000000000000103
  0
ARC
  5
145
100
AcDbEntity
  8
Main Plate Middle Layer
 62
256
370
-1
  6
ByLayer
100
AcDbCircle
 10
42.3401013151293455
 20
79.0427710545628628
 30
0.0
 40
89.9999999999993463
100
AcDbArc
 50
0.0
 51
20.000000000000103
  0
ARC
  5
146
100
AcDbEntity
  8
Main Plate Middle Layer
 62
256
370
-1
  6
ByLayer
100
AcDbCircle
 10
-7.6598986848709671
 20
70.226422019141296
 30
0.0
 40
89.9999999999996447
100
AcDbArc
 50
0.0
 51
20.000000000000103
  0
LINE
  5
147
100
AcDbEntity
100
AcDbLine
  8
Main Plate Middle Layer
 62
256
370
-1
  6
ByLayer
 10
70.0
 20
120.0
 30
0.0
 11
76.9124371858605969
 21
101.008234918449574
 31
0.0
  0
LINE
  5
148
100
AcDbEntity
100
AcDbLine
  8
Main Plate Middle Layer
 62
256
370
-1
  6
ByLayer
 10
102.26116343849651
 20
117.9077921722229689
 30
0.0
 11
116.4207973721791802
 21
79.0045176716864148
 31
0.0
  0
LINE
  5
149
100
AcDbEntity
100
AcDbLine
  8
Main Plate Middle Layer
 62
256
370
-1
  6
ByLayer
 10
102.26116343849651
 20
117.9077921722229689
 30
0.0
 11
105.5500876112471929
 21
119.1048626738627974
 31
0.0
  0
LINE
  5
14A
100
AcDbEntity
100
AcDbLine
  8
Main Plate Middle Layer
 62
256
370
-1
  6
ByLayer
 10
105.5500876112471929
 20
119.1048626738627974
 30
0.0
 11
101.1038257480134916
 21
131.3208667440796376
 31
0.0
  0
LINE
  5
14B
100
AcDbEntity
100
AcDbLine
  8
Main Plate Middle Layer
 62
256
370
-1
  6
ByLayer
 10
93.6159913272661584
 20
114.7612068536268168
 30
0.0
 11
90.3270671545154755
 21
113.5641363519870026
 31
0.0
  0
LINE
  5
14C
100
AcDbEntity
100
AcDbLine
  8
Main Plate Middle Layer
 62
256
370
-1
  6
ByLayer
 10
90.3270671545154755
 20
113.5641363519870026
 30
0.0
 11
85.8808052912817743
 21
125.7801404222038286
 31
0.0
  0
LINE
  5
14D
100
AcDbEntity
100
AcDbLine
  8
Main Plate Middle Layer
 62
256
370
-1
  6
ByLayer
 10
132.3401013151287486
 20
68.2941167806186797
 30
0.0
 11
82.3401013151287486
 21
68.2941167806187082
 31
0.0
  0
LINE
  5
14E
100
AcDbEntity
100
AcDbLine
  8
Main Plate Middle Layer
 62
256
370
-1
  6
ByLayer
 10
116.9846310392953228
 20
137.1010071662834662
 30
0.0
 11
101.1038257480134916
 21
131.3208667440796376
 31
0.0
  0
LINE
  5
14F
100
AcDbEntity
100
AcDbLine
  8
Main Plate Middle Layer
 62
256
370
-1
  6
ByLayer
 10
85.8808052912817743
 20
125.7801404222038286
 30
0.0
 11
70.0
 21
120.0
 31
0.0
  0
MTEXT
  5
150
100
AcDbEntity
100
AcDbMText
  8
Main Plate Middle Text
 62
256
370
-1
  6
ByLayer
 10
123.0412496058205534
 20
110.9783508611256337
 30
0.0
 40
2.0
 41
100.0
 71
3
 72
2
  1
Main\~Plate\PMiddle
  7
standard
 50
360.0
 73
0
 44
1.0
  0
LINE
  5
151
100
AcDbEntity
100
AcDbLine
  8
Main Plate Top Layer
 62
256
370
-1
  6
ByLayer
 10
93.6159913272661584
 20
114.7612068536268168
 30
0.0
 11
107.7756252609488286
 21
75.8579323530902059
 31
0.0
  0
LINE
  5
152
100
AcDbEntity
100
AcDbLine
  8
Main Plate Middle Layer
 62
256
370
-1
  6
ByLayer
 10
93.6159913272661584
 20
114.7612068536268168
 30
0.0
 11
107.7756252609488286
 21
75.8579323530902059
 31
0.0
  0
LINE
  5
153
100
AcDbEntity
100
AcDbLine
  8
Main Plate Bottom Layer
 62
256
370
-1
  6
ByLayer
 10
82.3401013151287486
 20
68.2941167806187082
 30
0.0
 11
132.3401013151287486
 21
68.2941167806186797
 31
0.0
  0
CIRCLE
  5
154
100
AcDbEntity
100
AcDbCircle
  8
Main Plate Bottom Layer
 62
256
370
-1
  6
ByLayer
 10
125.8401013151282939
 20
96.0040248006116883
 30
0.0
 40
1.4199999999999999
  0
CIRCLE
  5
155
100
AcDbEntity
100
AcDbCircle
  8
Main Plate Bottom Layer
 62
256
370
-1
  6
ByLayer
 10
116.8401013151283223
 20
96.0040248006115604
 30
0.0
 40
1.4199999999999999
  0
CIRCLE
  5
156
100
AcDbEntity
100
AcDbCircle
  8
Main Plate Bottom Layer
 62
256
370
-1
  6
ByLayer
 10
116.8401013151284928
 20
85.0040248006115462
 30
0.0
 40
1.4199999999999999
  0
CIRCLE
  5
157
100
AcDbEntity
100
AcDbCircle
  8
Main Plate Bottom Layer
 62
256
370
-1
  6
ByLayer
 10
125.8401013151284928
 20
85.0040248006116883
 30
0.0
 40
1.4199999999999999
  0
CIRCLE
  5
158
100
AcDbEntity
100
AcDbCircle
  8
Main Plate Middle Layer
 62
256
370
-1
  6
ByLayer
 10
125.8401013151282939
 20
96.0040248006116883
 30
0.0
 40
1.4199999999999999
  0
CIRCLE
  5
159
100
AcDbEntity
100
AcDbCircle
  8
Main Plate Middle Layer
 62
256
370
-1
  6
ByLayer
 10
116.8401013151283223
 20
96.0040248006115604
 30
0.0
 40
1.4199999999999999
  0
CIRCLE
  5
15A
100
AcDbEntity
100
AcDbCircle
  8
Main Plate Middle Layer
 62
256
370
-1
  6
ByLayer
 10
116.8401013151284928
 20
85.0040248006115604
 30
0.0
 40
1.4199999999999999
  0
CIRCLE
  5
15B
100
AcDbEntity
100
AcDbCircle
  8
Main Plate Middle Layer
 62
256
370
-1
  6
ByLayer
 10
125.8401013151284928
 20
85.0040248006116883
 30
0.0
 40
1.4199999999999999
  0
LINE
  5
15C
100
AcDbEntity
100
AcDbLine
  8
Main Plate Top Layer
 62
256
370
-1
  6
ByLayer
 10
116.8401013151283223
 20
99.179450800611562
 30
0.0
 11
119.5901013151283223
 21
97.5917378006115541
 31
0.0
  0
LINE
  5
15D
100
AcDbEntity
100
AcDbLine
  8
Main Plate Top Layer
 62
256
370
-1
  6
ByLayer
 10
119.5901013151283223
 20
97.5917378006115541
 30
0.0
 11
119.5901013151283223
 21
94.4163118006115525
 31
0.0
  0
LINE
  5
15E
100
AcDbEntity
100
AcDbLine
  8
Main Plate Top Layer
 62
256
370
-1
  6
ByLayer
 10
119.5901013151283223
 20
94.4163118006115525
 30
0.0
 11
116.8401013151282939
 21
92.8285988006115446
 31
0.0
  0
LINE
  5
15F
100
AcDbEntity
100
AcDbLine
  8
Main Plate Top Layer
 62
256
370
-1
  6
ByLayer
 10
114.0901013151283223
 20
94.4163118006115667
 30
0.0
 11
116.8401013151282939
 21
92.8285988006115446
 31
0.0
  0
LINE
  5
160
100
AcDbEntity
100
AcDbLine
  8
Main Plate Top Layer
 62
256
370
-1
  6
ByLayer
 10
114.0901013151282939
 20
97.5917378006115399
 30
0.0
 11
114.0901013151283223
 21
94.4163118006115667
 31
0.0
  0
LINE
  5
161
100
AcDbEntity
100
AcDbLine
  8
Main Plate Top Layer
 62
256
370
-1
  6
ByLayer
 10
116.8401013151283223
 20
99.179450800611562
 30
0.0
 11
114.0901013151282939
 21
97.5917378006115399
 31
0.0
  0
LINE
  5
162
100
AcDbEntity
100
AcDbLine
  8
Main Plate Top Layer
 62
256
370
-1
  6
ByLayer
 10
125.8401013151283223
 20
99.1794508006117042
 30
0.0
 11
128.5901013151283223
 21
97.591737800611682
 31
0.0
  0
LINE
  5
163
100
AcDbEntity
100
AcDbLine
  8
Main Plate Top Layer
 62
256
370
-1
  6
ByLayer
 10
128.5901013151283223
 20
97.591737800611682
 30
0.0
 11
128.5901013151283223
 21
94.4163118006116946
 31
0.0
  0
LINE
  5
164
100
AcDbEntity
100
AcDbLine
  8
Main Plate Top Layer
 62
256
370
-1
  6
ByLayer
 10
128.5901013151283223
 20
94.4163118006116946
 30
0.0
 11
125.8401013151283223
 21
92.8285988006117009
 31
0.0
  0
LINE
  5
165
100
AcDbEntity
100
AcDbLine
  8
Main Plate Top Layer
 62
256
370
-1
  6
ByLayer
 10
123.0901013151283223
 20
94.4163118006117088
 30
0.0
 11
125.8401013151283223
 21
92.8285988006117009
 31
0.0
  0
LINE
  5
166
100
AcDbEntity
100
AcDbLine
  8
Main Plate Top Layer
 62
256
370
-1
  6
ByLayer
 10
123.0901013151283223
 20
97.5917378006116962
 30
0.0
 11
123.0901013151283223
 21
94.4163118006117088
 31
0.0
  0
LINE
  5
167
100
AcDbEntity
100
AcDbLine
  8
Main Plate Top Layer
 62
256
370
-1
  6
ByLayer
 10
125.8401013151283223
 20
99.1794508006117042
 30
0.0
 11
123.0901013151283223
 21
97.5917378006116962
 31
0.0
  0
LINE
  5
168
100
AcDbEntity
100
AcDbLine
  8
Main Plate Top Layer
 62
256
370
-1
  6
ByLayer
 10
74.9651679843903196
 20
115.4221067195941259
 30
0.0
 11
75.8108913430975804
 21
115.7299248485872312
 31
0.0
  0
LINE
  5
169
100
AcDbEntity
100
AcDbLine
  8
Main Plate Top Layer
 62
256
370
-1
  6
ByLayer
 10
81.4490470678129554
 20
117.7820457085412755
 30
0.0
 11
82.2947704265203868
 21
118.0898638375341108
 31
0.0
  0
LINE
  5
16A
100
AcDbEntity
100
AcDbLine
  8
Main Plate Top Layer
 62
256
370
-1
  6
ByLayer
 10
82.2947704265203868
 20
118.0898638375341108
 30
0.0
 11
83.6628509998228651
 21
114.3310933543909869
 31
0.0
  0
LINE
  5
16B
100
AcDbEntity
100
AcDbLine
  8
Main Plate Top Layer
 62
256
370
-1
  6
ByLayer
 10
83.6628509998228651
 20
114.3310933543909869
 30
0.0
 11
82.8171276411156896
 21
114.0232752253975548
 31
0.0
  0
LINE
  5
16C
100
AcDbEntity
100
AcDbLine
  8
Main Plate Top Layer
 62
256
370
-1
  6
ByLayer
 10
76.3332485576929969
 20
111.6633362364504052
 30
0.0
 11
74.9651679843903196
 21
115.4221067195941259
 31
0.0
  0
LINE
  5
16D
100
AcDbEntity
100
AcDbLine
  8
Main Plate Top Layer
 62
256
370
-1
  6
ByLayer
 10
77.1789719164002577
 20
111.9711543654436099
 30
0.0
 11
76.3332485576929969
 21
111.6633362364504052
 31
0.0
  0
LINE
  5
16E
100
AcDbEntity
100
AcDbLine
  8
Main Plate Top Layer
 62
256
370
-1
  6
ByLayer
 10
108.7941023326829395
 20
127.7348318793181789
 30
0.0
 11
109.6398256913902856
 21
128.0426500083112842
 31
0.0
  0
LINE
  5
16F
100
AcDbEntity
100
AcDbLine
  8
Main Plate Top Layer
 62
256
370
-1
  6
ByLayer
 10
111.0079062646929628
 20
124.2838795251676487
 30
0.0
 11
110.1621829059856452
 21
123.9760613961745861
 31
0.0
  0
LINE
  5
170
100
AcDbEntity
100
AcDbLine
  8
Main Plate Top Layer
 62
256
370
-1
  6
ByLayer
 10
110.1621829059856452
 20
123.9760613961745861
 30
0.0
 11
108.7941023326829395
 21
127.7348318793181789
 31
0.0
  0
LINE
  5
171
100
AcDbEntity
100
AcDbLine
  8
Main Plate Top Layer
 62
256
370
-1
  6
ByLayer
 10
117.491785348115684
 20
126.6438185141148836
 30
0.0
 11
116.6460619894083948
 21
126.3360003851216788
 31
0.0
  0
LINE
  5
172
100
AcDbEntity
100
AcDbLine
  8
Main Plate Top Layer
 62
256
370
-1
  6
ByLayer
 10
115.2779814161057175
 20
130.0947708682653001
 30
0.0
 11
116.1237047748129783
 21
130.4025889972584764
 31
0.0
  0
LINE
  5
173
100
AcDbEntity
100
AcDbLine
  8
Main Plate Top Layer
 62
256
370
-1
  6
ByLayer
 10
116.1237047748129783
 20
130.4025889972584764
 30
0.0
 11
117.491785348115684
 21
126.6438185141148836
 31
0.0
  0
LINE
  5
174
100
AcDbEntity
100
AcDbLine
  8
Main Plate Top Layer
 62
256
370
-1
  6
ByLayer
 10
78.2050323463774646
 20
109.1520765030859366
 30
0.0
 11
77.1789719164002577
 21
111.9711543654436099
 31
0.0
  0
LINE
  5
175
100
AcDbEntity
100
AcDbLine
  8
Main Plate Top Layer
 62
256
370
-1
  6
ByLayer
 10
83.8431880710927828
 20
111.2041973630399809
 30
0.0
 11
78.2050323463774646
 21
109.1520765030859366
 31
0.0
  0
LINE
  5
176
100
AcDbEntity
100
AcDbLine
  8
Main Plate Top Layer
 62
256
370
-1
  6
ByLayer
 10
82.8171276411156896
 20
114.0232752253975548
 30
0.0
 11
83.8431880710927828
 21
111.2041973630399809
 31
0.0
  0
LINE
  5
177
100
AcDbEntity
100
AcDbLine
  8
Main Plate Top Layer
 62
256
370
-1
  6
ByLayer
 10
112.0339666946699424
 20
121.4648016628099612
 30
0.0
 11
111.0079062646929628
 21
124.2838795251676487
 31
0.0
  0
LINE
  5
178
100
AcDbEntity
100
AcDbLine
  8
Main Plate Top Layer
 62
256
370
-1
  6
ByLayer
 10
117.6721224193853459
 20
123.5169225227640055
 30
0.0
 11
112.0339666946699424
 21
121.4648016628099612
 31
0.0
  0
LINE
  5
179
100
AcDbEntity
100
AcDbLine
  8
Main Plate Top Layer
 62
256
370
-1
  6
ByLayer
 10
116.6460619894083948
 20
126.3360003851216788
 30
0.0
 11
117.6721224193853459
 21
123.5169225227640055
 31
0.0
  0
LINE
  5
17A
100
AcDbEntity
100
AcDbLine
  8
Main Plate Top Layer
 62
256
370
-1
  6
ByLayer
 10
87.440101315128743
 20
80.2941167806184239
 30
0.0
 11
88.3401013151287486
 21
80.2941167806187366
 31
0.0
  0
LINE
  5
17B
100
AcDbEntity
100
AcDbLine
  8
Main Plate Top Layer
 62
256
370
-1
  6
ByLayer
 10
88.3401013151287771
 20
76.2941167806186797
 30
0.0
 11
87.440101315128743
 21
76.2941167806183671
 31
0.0
  0
LINE
  5
17C
100
AcDbEntity
100
AcDbLine
  8
Main Plate Top Layer
 62
256
370
-1
  6
ByLayer
 10
87.440101315128743
 20
76.2941167806183671
 30
0.0
 11
87.440101315128743
 21
80.2941167806184239
 31
0.0
  0
LINE
  5
17D
100
AcDbEntity
100
AcDbLine
  8
Main Plate Top Layer
 62
256
370
-1
  6
ByLayer
 10
88.3401013151287486
 20
80.2941167806187366
 30
0.0
 11
88.3401013151287486
 21
82.2941167806187082
 31
0.0
  0
LINE
  5
17E
100
AcDbEntity
100
AcDbLine
  8
Main Plate Top Layer
 62
256
370
-1
  6
ByLayer
 10
94.3401013151287771
 20
82.2941167806187366
 30
0.0
 11
88.3401013151287486
 21
82.2941167806187082
 31
0.0
  0
LINE
  5
17F
100
AcDbEntity
100
AcDbLine
  8
Main Plate Top Layer
 62
256
370
-1
  6
ByLayer
 10
94.3401013151287771
 20
82.2941167806187366
 30
0.0
 11
94.3401013151287771
 21
80.2941167806187224
 31
0.0
  0
LINE
  5
180
100
AcDbEntity
100
AcDbLine
  8
Main Plate Top Layer
 62
256
370
-1
  6
ByLayer
 10
94.3401013151287771
 20
80.2941167806187224
 30
0.0
 11
95.2401013151287543
 21
80.2941167806187934
 31
0.0
  0
LINE
  5
181
100
AcDbEntity
100
AcDbLine
  8
Main Plate Top Layer
 62
256
370
-1
  6
ByLayer
 10
95.2401013151287543
 20
80.2941167806187934
 30
0.0
 11
95.2401013151287543
 21
76.2941167806188218
 31
0.0
  0
LINE
  5
182
100
AcDbEntity
100
AcDbLine
  8
Main Plate Top Layer
 62
256
370
-1
  6
ByLayer
 10
95.2401013151287543
 20
76.2941167806188218
 30
0.0
 11
94.3401013151287202
 21
76.294116780618694
 31
0.0
  0
LINE
  5
183
100
AcDbEntity
100
AcDbLine
  8
Main Plate Top Layer
 62
256
370
-1
  6
ByLayer
 10
120.3401013151288055
 20
80.2941167806187366
 30
0.0
 11
120.3401013151286634
 21
82.2941167806187082
 31
0.0
  0
LINE
  5
184
100
AcDbEntity
100
AcDbLine
  8
Main Plate Top Layer
 62
256
370
-1
  6
ByLayer
 10
120.3401013151286634
 20
82.2941167806187082
 30
0.0
 11
126.3401013151287771
 21
82.2941167806187224
 31
0.0
  0
LINE
  5
185
100
AcDbEntity
100
AcDbLine
  8
Main Plate Top Layer
 62
256
370
-1
  6
ByLayer
 10
126.3401013151287771
 20
82.2941167806187224
 30
0.0
 11
126.3401013151287771
 21
80.2941167806187508
 31
0.0
  0
LINE
  5
186
100
AcDbEntity
100
AcDbLine
  8
Main Plate Top Layer
 62
256
370
-1
  6
ByLayer
 10
119.4401013151287998
 20
80.294116780618694
 30
0.0
 11
120.3401013151288055
 21
80.2941167806187366
 31
0.0
  0
LINE
  5
187
100
AcDbEntity
100
AcDbLine
  8
Main Plate Top Layer
 62
256
370
-1
  6
ByLayer
 10
120.3401013151288339
 20
76.2941167806187366
 30
0.0
 11
119.4401013151286861
 21
76.2941167806187366
 31
0.0
  0
LINE
  5
188
100
AcDbEntity
100
AcDbLine
  8
Main Plate Top Layer
 62
256
370
-1
  6
ByLayer
 10
119.4401013151286861
 20
76.2941167806187366
 30
0.0
 11
119.4401013151287998
 21
80.294116780618694
 31
0.0
  0
LINE
  5
189
100
AcDbEntity
100
AcDbLine
  8
Main Plate Top Layer
 62
256
370
-1
  6
ByLayer
 10
127.2401013151287827
 20
76.294116780618765
 30
0.0
 11
126.3401013151287486
 21
76.2941167806187082
 31
0.0
  0
LINE
  5
18A
100
AcDbEntity
100
AcDbLine
  8
Main Plate Top Layer
 62
256
370
-1
  6
ByLayer
 10
126.3401013151287771
 20
80.2941167806187508
 30
0.0
 11
127.2401013151287543
 21
80.2941167806187934
 31
0.0
  0
LINE
  5
18B
100
AcDbEntity
100
AcDbLine
  8
Main Plate Top Layer
 62
256
370
-1
  6
ByLayer
 10
127.2401013151287543
 20
80.2941167806187934
 30
0.0
 11
127.2401013151287827
 21
76.294116780618765
 31
0.0
  0
LINE
  5
18C
100
AcDbEntity
100
AcDbLine
  8
Main Plate Top Layer
 62
256
370
-1
  6
ByLayer
 10
115.7540416594884505
 20
87.9879491806632501
 30
0.0
 11
118.8812261944697184
 21
87.4365423847829675
 31
0.0
  0
LINE
  5
18D
100
AcDbEntity
100
AcDbLine
  8
Main Plate Top Layer
 62
256
370
-1
  6
ByLayer
 10
118.8812261944697184
 20
87.4365423847829675
 30
0.0
 11
119.967285849792205
 21
84.4526180029302225
 31
0.0
  0
LINE
  5
18E
100
AcDbEntity
100
AcDbLine
  8
Main Plate Top Layer
 62
256
370
-1
  6
ByLayer
 10
119.967285849792205
 20
84.4526180029302225
 30
0.0
 11
117.9261609707685352
 21
82.0201004205597997
 31
0.0
  0
LINE
  5
18F
100
AcDbEntity
100
AcDbLine
  8
Main Plate Top Layer
 62
256
370
-1
  6
ByLayer
 10
114.7989764357872673
 20
82.5715072164400965
 30
0.0
 11
117.9261609707685352
 21
82.0201004205597997
 31
0.0
  0
LINE
  5
190
100
AcDbEntity
100
AcDbLine
  8
Main Plate Top Layer
 62
256
370
-1
  6
ByLayer
 10
113.7129167804647807
 20
85.5554315982928415
 30
0.0
 11
114.7989764357872673
 21
82.5715072164400965
 31
0.0
  0
LINE
  5
191
100
AcDbEntity
100
AcDbLine
  8
Main Plate Top Layer
 62
256
370
-1
  6
ByLayer
 10
115.7540416594884505
 20
87.9879491806632501
 30
0.0
 11
113.7129167804647807
 21
85.5554315982928415
 31
0.0
  0
LINE
  5
192
100
AcDbEntity
100
AcDbLine
  8
Main Plate Top Layer
 62
256
370
-1
  6
ByLayer
 10
124.2523883151284849
 20
87.7540243844493091
 30
0.0
 11
127.4278146755357
 21
87.7540245925304987
 31
0.0
  0
LINE
  5
193
100
AcDbEntity
100
AcDbLine
  8
Main Plate Top Layer
 62
256
370
-1
  6
ByLayer
 10
127.4278146755357
 20
87.7540245925304987
 30
0.0
 11
129.0155276755357079
 21
85.0040250086928779
 31
0.0
  0
LINE
  5
194
100
AcDbEntity
100
AcDbLine
  8
Main Plate Top Layer
 62
256
370
-1
  6
ByLayer
 10
129.0155276755357079
 20
85.0040250086928779
 30
0.0
 11
127.4278143151285008
 21
82.254025216774096
 31
0.0
  0
LINE
  5
195
100
AcDbEntity
100
AcDbLine
  8
Main Plate Top Layer
 62
256
370
-1
  6
ByLayer
 10
124.2523879547212857
 20
82.2540250086929063
 30
0.0
 11
127.4278143151285008
 21
82.254025216774096
 31
0.0
  0
LINE
  5
196
100
AcDbEntity
100
AcDbLine
  8
Main Plate Top Layer
 62
256
370
-1
  6
ByLayer
 10
122.6646749547213062
 20
85.0040245925304987
 30
0.0
 11
124.2523879547212857
 21
82.2540250086929063
 31
0.0
  0
LINE
  5
197
100
AcDbEntity
100
AcDbLine
  8
Main Plate Top Layer
 62
256
370
-1
  6
ByLayer
 10
124.2523883151284849
 20
87.7540243844493091
 30
0.0
 11
122.6646749547213062
 21
85.0040245925304987
 31
0.0
  0
LINE
  5
198
100
AcDbEntity
100
AcDbLine
  8
Main Plate Middle Layer
 62
256
370
-1
  6
ByLayer
 10
74.9651679843903196
 20
115.4221067195941259
 30
0.0
 11
82.2947704265203868
 21
118.0898638375341108
 31
0.0
  0
LINE
  5
199
100
AcDbEntity
100
AcDbLine
  8
Main Plate Middle Layer
 62
256
370
-1
  6
ByLayer
 10
82.2947704265203868
 20
118.0898638375341108
 30
0.0
 11
83.6628509998228651
 21
114.3310933543909869
 31
0.0
  0
LINE
  5
19A
100
AcDbEntity
100
AcDbLine
  8
Main Plate Middle Layer
 62
256
370
-1
  6
ByLayer
 10
83.6628509998228651
 20
114.3310933543909869
 30
0.0
 11
82.8171276411156896
 21
114.0232752253975548
 31
0.0
  0
LINE
  5
19B
100
AcDbEntity
100
AcDbLine
  8
Main Plate Middle Layer
 62
256
370
-1
  6
ByLayer
 10
82.8171276411156896
 20
114.0232752253975548
 30
0.0
 11
83.8431880710927828
 21
111.2041973630399809
 31
0.0
  0
LINE
  5
19C
100
AcDbEntity
100
AcDbLine
  8
Main Plate Middle Layer
 62
256
370
-1
  6
ByLayer
 10
83.8431880710927828
 20
111.2041973630399809
 30
0.0
 11
78.2050323463774646
 21
109.1520765030859366
 31
0.0
  0
LINE
  5
19D
100
AcDbEntity
100
AcDbLine
  8
Main Plate Middle Layer
 62
256
370
-1
  6
ByLayer
 10
78.2050323463774646
 20
109.1520765030859366
 30
0.0
 11
77.1789719164002577
 21
111.9711543654436099
 31
0.0
  0
LINE
  5
19E
100
AcDbEntity
100
AcDbLine
  8
Main Plate Middle Layer
 62
256
370
-1
  6
ByLayer
 10
77.1789719164002577
 20
111.9711543654436099
 30
0.0
 11
76.3332485576929969
 21
111.6633362364504052
 31
0.0
  0
LINE
  5
19F
100
AcDbEntity
100
AcDbLine
  8
Main Plate Middle Layer
 62
256
370
-1
  6
ByLayer
 10
76.3332485576929969
 20
111.6633362364504052
 30
0.0
 11
74.9651679843903196
 21
115.4221067195941259
 31
0.0
  0
LINE
  5
1A0
100
AcDbEntity
100
AcDbLine
  8
Main Plate Middle Layer
 62
256
370
-1
  6
ByLayer
 10
108.7941023326829395
 20
127.7348318793181789
 30
0.0
 11
116.1237047748129783
 21
130.4025889972584764
 31
0.0
  0
LINE
  5
1A1
100
AcDbEntity
100
AcDbLine
  8
Main Plate Middle Layer
 62
256
370
-1
  6
ByLayer
 10
116.1237047748129783
 20
130.4025889972584764
 30
0.0
 11
117.491785348115684
 21
126.6438185141148836
 31
0.0
  0
LINE
  5
1A2
100
AcDbEntity
100
AcDbLine
  8
Main Plate Middle Layer
 62
256
370
-1
  6
ByLayer
 10
117.491785348115684
 20
126.6438185141148836
 30
0.0
 11
116.6460619894083948
 21
126.3360003851216788
 31
0.0
  0
LINE
  5
1A3
100
AcDbEntity
100
AcDbLine
  8
Main Plate Middle Layer
 62
256
370
-1
  6
ByLayer
 10
116.6460619894083948
 20
126.3360003851216788
 30
0.0
 11
117.6721224193853459
 21
123.5169225227640055
 31
0.0
  0
LINE
  5
1A4
100
AcDbEntity
100
AcDbLine
  8
Main Plate Middle Layer
 62
256
370
-1
  6
ByLayer
 10
117.6721224193853459
 20
123.5169225227640055
 30
0.0
 11
112.0339666946699424
 21
121.4648016628099612
 31
0.0
  0
LINE
  5
1A5
100
AcDbEntity
100
AcDbLine
  8
Main Plate Middle Layer
 62
256
370
-1
  6
ByLayer
 10
112.0339666946699424
 20
121.4648016628099612
 30
0.0
 11
111.0079062646929628
 21
124.2838795251676487
 31
0.0
  0
LINE
  5
1A6
100
AcDbEntity
100
AcDbLine
  8
Main Plate Middle Layer
 62
256
370
-1
  6
ByLayer
 10
111.0079062646929628
 20
124.2838795251676487
 30
0.0
 11
110.1621829059856452
 21
123.9760613961745861
 31
0.0
  0
LINE
  5
1A7
100
AcDbEntity
100
AcDbLine
  8
Main Plate Middle Layer
 62
256
370
-1
  6
ByLayer
 10
110.1621829059856452
 20
123.9760613961745861
 30
0.0
 11
108.7941023326829395
 21
127.7348318793181789
 31
0.0
  0
LINE
  5
1A8
100
AcDbEntity
100
AcDbLine
  8
Main Plate Middle Layer
 62
256
370
-1
  6
ByLayer
 10
87.440101315128743
 20
76.2941167806183671
 30
0.0
 11
95.2401013151287543
 21
76.2941167806188218
 31
0.0
  0
LINE
  5
1A9
100
AcDbEntity
100
AcDbLine
  8
Main Plate Middle Layer
 62
256
370
-1
  6
ByLayer
 10
95.2401013151287543
 20
76.2941167806188218
 30
0.0
 11
95.2401013151287543
 21
80.2941167806187934
 31
0.0
  0
LINE
  5
1AA
100
AcDbEntity
100
AcDbLine
  8
Main Plate Middle Layer
 62
256
370
-1
  6
ByLayer
 10
95.2401013151287543
 20
80.2941167806187934
 30
0.0
 11
94.3401013151287771
 21
80.2941167806187224
 31
0.0
  0
LINE
  5
1AB
100
AcDbEntity
100
AcDbLine
  8
Main Plate Middle Layer
 62
256
370
-1
  6
ByLayer
 10
94.3401013151287771
 20
80.2941167806187224
 30
0.0
 11
94.3401013151287771
 21
82.2941167806187366
 31
0.0
  0
LINE
  5
1AC
100
AcDbEntity
100
AcDbLine
  8
Main Plate Middle Layer
 62
256
370
-1
  6
ByLayer
 10
94.3401013151287771
 20
82.2941167806187366
 30
0.0
 11
88.3401013151287486
 21
82.2941167806187082
 31
0.0
  0
LINE
  5
1AD
100
AcDbEntity
100
AcDbLine
  8
Main Plate Middle Layer
 62
256
370
-1
  6
ByLayer
 10
88.3401013151287486
 20
82.2941167806187082
 30
0.0
 11
88.3401013151287486
 21
80.2941167806187366
 31
0.0
  0
LINE
  5
1AE
100
AcDbEntity
100
AcDbLine
  8
Main Plate Middle Layer
 62
256
370
-1
  6
ByLayer
 10
88.3401013151287486
 20
80.2941167806187366
 30
0.0
 11
87.440101315128743
 21
80.2941167806184239
 31
0.0
  0
LINE
  5
1AF
100
AcDbEntity
100
AcDbLine
  8
Main Plate Middle Layer
 62
256
370
-1
  6
ByLayer
 10
87.440101315128743
 20
80.2941167806184239
 30
0.0
 11
87.440101315128743
 21
76.2941167806183671
 31
0.0
  0
LINE
  5
1B0
100
AcDbEntity
100
AcDbLine
  8
Main Plate Middle Layer
 62
256
370
-1
  6
ByLayer
 10
119.4401013151286861
 20
76.2941167806187366
 30
0.0
 11
127.2401013151287827
 21
76.294116780618765
 31
0.0
  0
LINE
  5
1B1
100
AcDbEntity
100
AcDbLine
  8
Main Plate Middle Layer
 62
256
370
-1
  6
ByLayer
 10
127.2401013151287827
 20
76.294116780618765
 30
0.0
 11
127.2401013151287543
 21
80.2941167806187934
 31
0.0
  0
LINE
  5
1B2
100
AcDbEntity
100
AcDbLine
  8
Main Plate Middle Layer
 62
256
370
-1
  6
ByLayer
 10
127.2401013151287543
 20
80.2941167806187934
 30
0.0
 11
126.3401013151287771
 21
80.2941167806187508
 31
0.0
  0
LINE
  5
1B3
100
AcDbEntity
100
AcDbLine
  8
Main Plate Middle Layer
 62
256
370
-1
  6
ByLayer
 10
126.3401013151287771
 20
80.2941167806187508
 30
0.0
 11
126.3401013151287771
 21
82.2941167806187224
 31
0.0
  0
LINE
  5
1B4
100
AcDbEntity
100
AcDbLine
  8
Main Plate Middle Layer
 62
256
370
-1
  6
ByLayer
 10
126.3401013151287771
 20
82.2941167806187224
 30
0.0
 11
120.3401013151286634
 21
82.2941167806187082
 31
0.0
  0
LINE
  5
1B5
100
AcDbEntity
100
AcDbLine
  8
Main Plate Middle Layer
 62
256
370
-1
  6
ByLayer
 10
120.3401013151286634
 20
82.2941167806187082
 30
0.0
 11
120.3401013151288055
 21
80.2941167806187366
 31
0.0
  0
LINE
  5
1B6
100
AcDbEntity
100
AcDbLine
  8
Main Plate Middle Layer
 62
256
370
-1
  6
ByLayer
 10
120.3401013151288055
 20
80.2941167806187366
 30
0.0
 11
119.4401013151287998
 21
80.294116780618694
 31
0.0
  0
LINE
  5
1B7
100
AcDbEntity
100
AcDbLine
  8
Main Plate Middle Layer
 62
256
370
-1
  6
ByLayer
 10
119.4401013151287998
 20
80.294116780618694
 30
0.0
 11
119.4401013151286861
 21
76.2941167806187366
 31
0.0
  0
LINE
  5
1B8
100
AcDbEntity
100
AcDbLine
  8
Main Plate Bottom Layer
 62
256
370
-1
  6
ByLayer
 10
74.9651679843903196
 20
115.4221067195941259
 30
0.0
 11
82.2947704265203868
 21
118.0898638375341108
 31
0.0
  0
LINE
  5
1B9
100
AcDbEntity
100
AcDbLine
  8
Main Plate Bottom Layer
 62
256
370
-1
  6
ByLayer
 10
82.2947704265203868
 20
118.0898638375341108
 30
0.0
 11
83.6628509998228651
 21
114.3310933543909869
 31
0.0
  0
LINE
  5
1BA
100
AcDbEntity
100
AcDbLine
  8
Main Plate Bottom Layer
 62
256
370
-1
  6
ByLayer
 10
83.6628509998228651
 20
114.3310933543909869
 30
0.0
 11
76.3332485576929969
 21
111.6633362364504052
 31
0.0
  0
LINE
  5
1BB
100
AcDbEntity
100
AcDbLine
  8
Main Plate Bottom Layer
 62
256
370
-1
  6
ByLayer
 10
76.3332485576929969
 20
111.6633362364504052
 30
0.0
 11
74.9651679843903196
 21
115.4221067195941259
 31
0.0
  0
LINE
  5
1BC
100
AcDbEntity
100
AcDbLine
  8
Main Plate Bottom Layer
 62
256
370
-1
  6
ByLayer
 10
108.7941023326829395
 20
127.7348318793181789
 30
0.0
 11
116.1237047748129783
 21
130.4025889972584764
 31
0.0
  0
LINE
  5
1BD
100
AcDbEntity
100
AcDbLine
  8
Main Plate Bottom Layer
 62
256
370
-1
  6
ByLayer
 10
116.1237047748129783
 20
130.4025889972584764
 30
0.0
 11
117.491785348115684
 21
126.6438185141148836
 31
0.0
  0
LINE
  5
1BE
100
AcDbEntity
100
AcDbLine
  8
Main Plate Bottom Layer
 62
256
370
-1
  6
ByLayer
 10
117.491785348115684
 20
126.6438185141148836
 30
0.0
 11
110.1621829059856452
 21
123.9760613961745861
 31
0.0
  0
LINE
  5
1BF
100
AcDbEntity
100
AcDbLine
  8
Main Plate Bottom Layer
 62
256
370
-1
  6
ByLayer
 10
110.1621829059856452
 20
123.9760613961745861
 30
0.0
 11
108.7941023326829395
 21
127.7348318793181789
 31
0.0
  0
LINE
  5
1C0
100
AcDbEntity
100
AcDbLine
  8
Main Plate Bottom Layer
 62
256
370
-1
  6
ByLayer
 10
87.440101315128743
 20
80.2941167806184239
 30
0.0
 11
95.2401013151287543
 21
80.2941167806187934
 31
0.0
  0
LINE
  5
1C1
100
AcDbEntity
100
AcDbLine
  8
Main Plate Bottom Layer
 62
256
370
-1
  6
ByLayer
 10
95.2401013151287543
 20
80.2941167806187934
 30
0.0
 11
95.2401013151287543
 21
76.2941167806188218
 31
0.0
  0
LINE
  5
1C2
100
AcDbEntity
100
AcDbLine
  8
Main Plate Bottom Layer
 62
256
370
-1
  6
ByLayer
 10
95.2401013151287543
 20
76.2941167806188218
 30
0.0
 11
87.440101315128743
 21
76.2941167806183671
 31
0.0
  0
LINE
  5
1C3
100
AcDbEntity
100
AcDbLine
  8
Main Plate Bottom Layer
 62
256
370
-1
  6
ByLayer
 10
87.440101315128743
 20
76.2941167806183671
 30
0.0
 11
87.440101315128743
 21
80.2941167806184239
 31
0.0
  0
LINE
  5
1C4
100
AcDbEntity
100
AcDbLine
  8
Main Plate Bottom Layer
 62
256
370
-1
  6
ByLayer
 10
119.4401013151287998
 20
80.294116780618694
 30
0.0
 11
127.2401013151287543
 21
80.2941167806187934
 31
0.0
  0
LINE
  5
1C5
100
AcDbEntity
100
AcDbLine
  8
Main Plate Bottom Layer
 62
256
370
-1
  6
ByLayer
 10
127.2401013151287543
 20
80.2941167806187934
 30
0.0
 11
127.2401013151287827
 21
76.294116780618765
 31
0.0
  0
LINE
  5
1C6
100
AcDbEntity
100
AcDbLine
  8
Main Plate Bottom Layer
 62
256
370
-1
  6
ByLayer
 10
127.2401013151287827
 20
76.294116780618765
 30
0.0
 11
119.4401013151286861
 21
76.2941167806187366
 31
0.0
  0
LINE
  5
1C7
100
AcDbEntity
100
AcDbLine
  8
Main Plate Bottom Layer
 62
256
370
-1
  6
ByLayer
 10
119.4401013151286861
 20
76.2941167806187366
 30
0.0
 11
119.4401013151287998
 21
80.294116780618694
 31
0.0
  0
LINE
  5
1C8
100
AcDbEntity
100
AcDbLine
  8
Top Plate Bottom Layer
 62
256
370
-1
  6
ByLayer
 10
108.9401013151286293
 20
123.5312600732583235
 30
0.0
 11
108.9401013151288424
 21
91.2247186297698676
 31
0.0
  0
LINE
  5
1C9
100
AcDbEntity
100
AcDbLine
  8
Top Plate Bottom Layer
 62
256
370
-1
  6
ByLayer
 10
108.9401013151288424
 20
91.2247186297698676
 30
0.0
 11
113.947885488934304
 21
77.4659446907368334
 31
0.0
  0
LINE
  5
1CA
100
AcDbEntity
100
AcDbLine
  8
Top Plate Bottom Layer
 62
256
370
-1
  6
ByLayer
 10
108.9401013151289987
 20
80.9914032291989798
 30
0.0
 11
108.9401013151289987
 21
68.2941167806193334
 31
0.0
  0
LINE
  5
1CB
100
AcDbEntity
100
AcDbLine
  8
Top Plate Bottom Layer
 62
256
370
-1
  6
ByLayer
 10
110.6589613161836354
 20
76.2688741890969624
 30
0.0
 11
108.9401013151289987
 21
80.9914032291989798
 31
0.0
  0
LINE
  5
1CC
100
AcDbEntity
100
AcDbLine
  8
Top Plate Bottom Layer
 62
256
370
-1
  6
ByLayer
 10
113.947885488934304
 20
77.4659446907368334
 30
0.0
 11
110.6589613161836354
 21
76.2688741890969624
 31
0.0
  0
CIRCLE
  5
1CD
100
AcDbEntity
100
AcDbCircle
  8
Main Plate Bottom Layer
 62
256
370
-1
  6
ByLayer
 10
94.9401013151289845
 20
85.0040248006118446
 30
0.0
 40
1.4199999999999999
  0
CIRCLE
  5
1CE
100
AcDbEntity
100
AcDbCircle
  8
Main Plate Bottom Layer
 62
256
370
-1
  6
ByLayer
 10
85.940101315129013
 20
85.0040248006117025
 30
0.0
 40
1.4199999999999999
  0
CIRCLE
  5
1CF
100
AcDbEntity
100
AcDbCircle
  8
Main Plate Bottom Layer
 62
256
370
-1
  6
ByLayer
 10
85.9401013151288424
 20
96.0040248006117025
 30
0.0
 40
1.4199999999999999
  0
CIRCLE
  5
1D0
100
AcDbEntity
100
AcDbCircle
  8
Main Plate Bottom Layer
 62
256
370
-1
  6
ByLayer
 10
94.9401013151288424
 20
96.0040248006118446
 30
0.0
 40
1.4199999999999999
  0
CIRCLE
  5
1D1
100
AcDbEntity
100
AcDbCircle
  8
Main Plate Middle Layer
 62
256
370
-1
  6
ByLayer
 10
94.9401013151289845
 20
85.0040248006118446
 30
0.0
 40
1.4199999999999999
  0
CIRCLE
  5
1D2
100
AcDbEntity
100
AcDbCircle
  8
Main Plate Middle Layer
 62
256
370
-1
  6
ByLayer
 10
85.940101315129013
 20
85.0040248006117025
 30
0.0
 40
1.4199999999999999
  0
CIRCLE
  5
1D3
100
AcDbEntity
100
AcDbCircle
  8
Main Plate Middle Layer
 62
256
370
-1
  6
ByLayer
 10
85.9401013151288424
 20
96.0040248006117025
 30
0.0
 40
1.4199999999999999
  0
CIRCLE
  5
1D4
100
AcDbEntity
100
AcDbCircle
  8
Main Plate Middle Layer
 62
256
370
-1
  6
ByLayer
 10
94.9401013151288424
 20
96.0040248006118446
 30
0.0
 40
1.4199999999999999
  0
LINE
  5
1D5
100
AcDbEntity
100
AcDbLine
  8
Main Plate Top Layer
 62
256
370
-1
  6
ByLayer
 10
85.9401013151288424
 20
99.1794508006117184
 30
0.0
 11
88.6901013151288424
 21
97.5917378006117104
 31
0.0
  0
LINE
  5
1D6
100
AcDbEntity
100
AcDbLine
  8
Main Plate Top Layer
 62
256
370
-1
  6
ByLayer
 10
88.6901013151288424
 20
97.5917378006117104
 30
0.0
 11
88.6901013151288424
 21
94.4163118006116946
 31
0.0
  0
LINE
  5
1D7
100
AcDbEntity
100
AcDbLine
  8
Main Plate Top Layer
 62
256
370
-1
  6
ByLayer
 10
88.6901013151288424
 20
94.4163118006116946
 30
0.0
 11
85.9401013151288424
 21
92.8285988006117151
 31
0.0
  0
LINE
  5
1D8
100
AcDbEntity
100
AcDbLine
  8
Main Plate Top Layer
 62
256
370
-1
  6
ByLayer
 10
83.1901013151288709
 20
94.4163118006117088
 30
0.0
 11
85.9401013151288424
 21
92.8285988006117151
 31
0.0
  0
LINE
  5
1D9
100
AcDbEntity
100
AcDbLine
  8
Main Plate Top Layer
 62
256
370
-1
  6
ByLayer
 10
83.1901013151288709
 20
97.5917378006116962
 30
0.0
 11
83.1901013151288709
 21
94.4163118006117088
 31
0.0
  0
LINE
  5
1DA
100
AcDbEntity
100
AcDbLine
  8
Main Plate Top Layer
 62
256
370
-1
  6
ByLayer
 10
85.9401013151288424
 20
99.1794508006117184
 30
0.0
 11
83.1901013151288709
 21
97.5917378006116962
 31
0.0
  0
LINE
  5
1DB
100
AcDbEntity
100
AcDbLine
  8
Drawing 2
 62
256
370
-1
  6
ByLayer
 10
85.9401013151288424
 20
99.1794508006117184
 30
0.0
 11
85.9401013151288424
 21
92.8285988006117151
 31
0.0
  0
LINE
  5
1DC
100
AcDbEntity
100
AcDbLine
  8
Drawing 2
 62
256
370
-1
  6
ByLayer
 10
83.1901013151288709
 20
97.5917378006116962
 30
0.0
 11
88.6901013151288424
 21
94.4163118006116946
 31
0.0
  0
LINE
  5
1DD
100
AcDbEntity
100
AcDbLine
  8
Drawing 2
 62
256
370
-1
  6
ByLayer
 10
88.6901013151288424
 20
97.5917378006117104
 30
0.0
 11
83.1901013151288709
 21
94.4163118006117088
 31
0.0
  0
LINE
  5
1DE
100
AcDbEntity
100
AcDbLine
  8
Main Plate Top Layer
 62
256
370
-1
  6
ByLayer
 10
93.9074683367319523
 20
99.0516206067351703
 30
0.0
 11
97.0346528717132486
 21
98.5002138108548877
 31
0.0
  0
LINE
  5
1DF
100
AcDbEntity
100
AcDbLine
  8
Main Plate Top Layer
 62
256
370
-1
  6
ByLayer
 10
97.0346528717132486
 20
98.5002138108548877
 30
0.0
 11
98.120712527353291
 21
95.5162894308031696
 31
0.0
  0
LINE
  5
1E0
100
AcDbEntity
100
AcDbLine
  8
Main Plate Top Layer
 62
256
370
-1
  6
ByLayer
 10
98.120712527353291
 20
95.5162894308031696
 30
0.0
 11
96.0795876480120654
 21
93.0837718466317341
 31
0.0
  0
LINE
  5
1E1
100
AcDbEntity
100
AcDbLine
  8
Main Plate Top Layer
 62
256
370
-1
  6
ByLayer
 10
92.9524031130307975
 20
93.6351786425120167
 30
0.0
 11
96.0795876480120654
 21
93.0837718466317341
 31
0.0
  0
LINE
  5
1E2
100
AcDbEntity
100
AcDbLine
  8
Main Plate Top Layer
 62
256
370
-1
  6
ByLayer
 10
91.8663434573907551
 20
96.6191030225637206
 30
0.0
 11
92.9524031130307975
 21
93.6351786425120167
 31
0.0
  0
LINE
  5
1E3
100
AcDbEntity
100
AcDbLine
  8
Main Plate Top Layer
 62
256
370
-1
  6
ByLayer
 10
93.9074683367319523
 20
99.0516206067351703
 30
0.0
 11
91.8663434573907551
 21
96.6191030225637206
 31
0.0
  0
LINE
  5
1E4
100
AcDbEntity
100
AcDbLine
  8
Drawing 2
 62
256
370
-1
  6
ByLayer
 10
93.9074683367319523
 20
99.0516206067351703
 30
0.0
 11
95.9200546173687485
 21
93.1119018134693448
 31
0.0
  0
LINE
  5
1E5
100
AcDbEntity
100
AcDbLine
  8
Drawing 2
 62
256
370
-1
  6
ByLayer
 10
97.0346528717132486
 20
98.5002138108548877
 30
0.0
 11
92.9524031130307975
 21
93.6351786425120167
 31
0.0
  0
LINE
  5
1E6
100
AcDbEntity
100
AcDbLine
  8
Drawing 2
 62
256
370
-1
  6
ByLayer
 10
98.120712527353291
 20
95.5162894308031696
 30
0.0
 11
91.8663434573907551
 21
96.6191030225637206
 31
0.0
  0
LINE
  5
1E7
100
AcDbEntity
100
AcDbLine
  8
Main Plate Top Layer
 62
256
370
-1
  6
ByLayer
 10
82.7646753151294092
 20
85.0040248006110488
 30
0.0
 11
84.3523883151293887
 21
87.7540248006110488
 31
0.0
  0
LINE
  5
1E8
100
AcDbEntity
100
AcDbLine
  8
Main Plate Top Layer
 62
256
370
-1
  6
ByLayer
 10
84.3523883151293887
 20
87.7540248006110488
 30
0.0
 11
87.5278143151294046
 21
87.7540248006110488
 31
0.0
  0
LINE
  5
1E9
100
AcDbEntity
100
AcDbLine
  8
Main Plate Top Layer
 62
256
370
-1
  6
ByLayer
 10
87.5278143151294046
 20
87.7540248006110488
 30
0.0
 11
89.1155273151293841
 21
85.0040248006110488
 31
0.0
  0
LINE
  5
1EA
100
AcDbEntity
100
AcDbLine
  8
Main Plate Top Layer
 62
256
370
-1
  6
ByLayer
 10
87.5278143151293762
 20
82.2540248006110488
 30
0.0
 11
89.1155273151293841
 21
85.0040248006110488
 31
0.0
  0
LINE
  5
1EB
100
AcDbEntity
100
AcDbLine
  8
Main Plate Top Layer
 62
256
370
-1
  6
ByLayer
 10
84.3523883151293887
 20
82.254024800611063
 30
0.0
 11
87.5278143151293762
 21
82.2540248006110488
 31
0.0
  0
LINE
  5
1EC
100
AcDbEntity
100
AcDbLine
  8
Main Plate Top Layer
 62
256
370
-1
  6
ByLayer
 10
82.7646753151294092
 20
85.0040248006110488
 30
0.0
 11
84.3523883151293887
 21
82.254024800611063
 31
0.0
  0
LINE
  5
1ED
100
AcDbEntity
100
AcDbLine
  8
Drawing 2
 62
256
370
-1
  6
ByLayer
 10
84.3523883151293887
 20
87.7540248006110488
 30
0.0
 11
87.5278143151293762
 21
82.2540248006110488
 31
0.0
  0
LINE
  5
1EE
100
AcDbEntity
100
AcDbLine
  8
Drawing 2
 62
256
370
-1
  6
ByLayer
 10
87.5278143151294046
 20
87.7540248006110488
 30
0.0
 11
84.3523883151293887
 21
82.254024800611063
 31
0.0
  0
LINE
  5
1EF
100
AcDbEntity
100
AcDbLine
  8
Drawing 2
 62
256
370
-1
  6
ByLayer
 10
82.7646753151290682
 20
85.0040248006116457
 30
0.0
 11
89.115527315128972
 21
85.0040248006117451
 31
0.0
  0
LINE
  5
1F0
100
AcDbEntity
100
AcDbLine
  8
Main Plate Top Layer
 62
256
370
-1
  6
ByLayer
 10
94.9401013151290272
 20
88.1794508006118463
 30
0.0
 11
97.6901013151289987
 21
86.5917378006118383
 31
0.0
  0
LINE
  5
1F1
100
AcDbEntity
100
AcDbLine
  8
Main Plate Top Layer
 62
256
370
-1
  6
ByLayer
 10
97.6901013151289987
 20
86.5917378006118383
 30
0.0
 11
97.6901013151290272
 21
83.4163118006118367
 31
0.0
  0
LINE
  5
1F2
100
AcDbEntity
100
AcDbLine
  8
Main Plate Top Layer
 62
256
370
-1
  6
ByLayer
 10
97.6901013151290272
 20
83.4163118006118367
 30
0.0
 11
94.9401013151290272
 21
81.828598800611843
 31
0.0
  0
LINE
  5
1F3
100
AcDbEntity
100
AcDbLine
  8
Main Plate Top Layer
 62
256
370
-1
  6
ByLayer
 10
92.1901013151290272
 20
83.4163118006118509
 30
0.0
 11
94.9401013151290272
 21
81.828598800611843
 31
0.0
  0
LINE
  5
1F4
100
AcDbEntity
100
AcDbLine
  8
Main Plate Top Layer
 62
256
370
-1
  6
ByLayer
 10
92.1901013151289987
 20
86.5917378006118525
 30
0.0
 11
92.1901013151290272
 21
83.4163118006118509
 31
0.0
  0
LINE
  5
1F5
100
AcDbEntity
100
AcDbLine
  8
Main Plate Top Layer
 62
256
370
-1
  6
ByLayer
 10
94.9401013151290272
 20
88.1794508006118463
 30
0.0
 11
92.1901013151289987
 21
86.5917378006118525
 31
0.0
  0
LINE
  5
1F6
100
AcDbEntity
100
AcDbLine
  8
Drawing 2
 62
256
370
-1
  6
ByLayer
 10
92.1901013151289987
 20
86.5917378006118525
 30
0.0
 11
97.6901013151290272
 21
83.4163118006118367
 31
0.0
  0
LINE
  5
1F7
100
AcDbEntity
100
AcDbLine
  8
Drawing 2
 62
256
370
-1
  6
ByLayer
 10
97.6901013151289987
 20
86.5917378006118383
 30
0.0
 11
92.1901013151290272
 21
83.4163118006118509
 31
0.0
  0
LINE
  5
1F8
100
AcDbEntity
100
AcDbLine
  8
Drawing 2
 62
256
370
-1
  6
ByLayer
 10
94.9401013151290272
 20
88.1794508006118463
 30
0.0
 11
94.9401013151290272
 21
81.828598800611843
 31
0.0
  0
LINE
  5
1F9
100
AcDbEntity
100
AcDbLine
  8
Retainer Plate
 62
256
370
-1
  6
ByLayer
 10
82.3401013151287202
 20
70.226422019139946
 30
0.0
 11
82.3401013151287486
 21
68.2941167806186513
 31
0.0
  0
LINE
  5
1FA
100
AcDbEntity
100
AcDbLine
  8
Retainer Plate
 62
256
370
-1
  6
ByLayer
 10
126.9124371858604832
 20
109.8245839538727751
 30
0.0
 11
116.9846310392953228
 21
137.1010071662834093
 31
0.0
  0
LINE
  5
1FB
100
AcDbEntity
100
AcDbLine
  8
Retainer Plate
 62
256
370
-1
  6
ByLayer
 10
132.3401013151287771
 20
68.2941167806186513
 30
0.0
 11
132.3401013151286918
 21
79.042771054562607
 31
0.0
  0
LINE
  5
1FC
100
AcDbEntity
100
AcDbLine
  8
Retainer Plate
 62
256
370
-1
  6
ByLayer
 10
70.0
 20
120.0000000000000284
 30
0.0
 11
76.9124371858605684
 21
101.0082349184495172
 31
0.0
  0
ARC
  5
1FD
100
AcDbEntity
  8
Retainer Plate
 62
256
370
-1
  6
ByLayer
100
AcDbCircle
 10
42.3401013151293171
 20
79.0427710545628202
 30
0.0
 40
89.9999999999993463
100
AcDbArc
 50
360.0
 51
20.0000000000000711
  0
ARC
  5
1FE
100
AcDbEntity
  8
Retainer Plate
 62
256
370
-1
  6
ByLayer
100
AcDbCircle
 10
-7.6598986848710382
 20
70.2264220191398749
 30
0.0
 40
89.9999999999996447
100
AcDbArc
 50
360.0
 51
20.0000000000000711
  0
LINE
  5
1FF
100
AcDbEntity
100
AcDbLine
  8
Retainer Plate
 62
256
370
-1
  6
ByLayer
 10
82.3401013151287486
 20
68.2941167806186655
 30
0.0
 11
132.3401013151287771
 21
68.2941167806186513
 31
0.0
  0
LINE
  5
200
100
AcDbEntity
100
AcDbLine
  8
Retainer Plate
 62
256
370
-1
  6
ByLayer
 10
82.340101315128635
 20
70.2264220191393775
 30
0.0
 11
82.3401013151287486
 21
68.2941167806186655
 31
0.0
  0
CIRCLE
  5
201
100
AcDbEntity
100
AcDbCircle
  8
Retainer Plate
 62
256
370
-1
  6
ByLayer
 10
99.3401013151288055
 20
75.2941167806186513
 30
0.0
 40
1.45
  0
CIRCLE
  5
202
100
AcDbEntity
100
AcDbCircle
  8
Retainer Plate
 62
256
370
-1
  6
ByLayer
 10
115.3401013151286918
 20
75.2941167806186371
 30
0.0
 40
1.45
  0
LINE
  5
203
100
AcDbEntity
100
AcDbLine
  8
Retainer Plate
 62
256
370
-1
  6
ByLayer
 10
116.9846310392953228
 20
137.1010071662834093
 30
0.0
 11
101.1038257480135485
 21
131.3208667440795807
 31
0.0
  0
LINE
  5
204
100
AcDbEntity
100
AcDbLine
  8
Retainer Plate
 62
256
370
-1
  6
ByLayer
 10
101.1038257480135485
 20
131.3208667440795807
 30
0.0
 11
105.5500876112471929
 21
119.1048626738627689
 31
0.0
  0
LINE
  5
205
100
AcDbEntity
100
AcDbLine
  8
Retainer Plate
 62
256
370
-1
  6
ByLayer
 10
105.5500876112471929
 20
119.1048626738627689
 30
0.0
 11
90.3270671545154755
 21
113.5641363519869174
 31
0.0
  0
LINE
  5
206
100
AcDbEntity
100
AcDbLine
  8
Retainer Plate
 62
256
370
-1
  6
ByLayer
 10
90.3270671545154755
 20
113.5641363519869174
 30
0.0
 11
85.8808052912818027
 21
125.7801404222037291
 31
0.0
  0
LINE
  5
207
100
AcDbEntity
100
AcDbLine
  8
Retainer Plate
 62
256
370
-1
  6
ByLayer
 10
85.8808052912818027
 20
125.7801404222037291
 30
0.0
 11
70.0000000000000284
 21
120.0
 31
0.0
  0
CIRCLE
  5
208
100
AcDbEntity
100
AcDbCircle
  8
Retainer Plate
 62
256
370
-1
  6
ByLayer
 10
116.8401013151282655
 20
96.0040248006115178
 30
0.0
 40
1.45
  0
CIRCLE
  5
209
100
AcDbEntity
100
AcDbCircle
  8
Retainer Plate
 62
256
370
-1
  6
ByLayer
 10
125.8401013151282655
 20
96.0040248006116457
 30
0.0
 40
1.45
  0
CIRCLE
  5
20A
100
AcDbEntity
100
AcDbCircle
  8
Retainer Plate
 62
256
370
-1
  6
ByLayer
 10
125.840101315128436
 20
85.0040248006116599
 30
0.0
 40
1.45
  0
CIRCLE
  5
20B
100
AcDbEntity
100
AcDbCircle
  8
Retainer Plate
 62
256
370
-1
  6
ByLayer
 10
116.8401013151284644
 20
85.0040248006115178
 30
0.0
 40
1.45
  0
MTEXT
  5
20C
100
AcDbEntity
100
AcDbMText
  8
Retainer Plate Text
 62
256
370
-1
  6
ByLayer
 10
111.1956530360066324
 20
105.7186708069703656
 30
0.0
 40
3.0
 41
100.0
 71
5
 72
2
  1
Retainer\PPlate
  7
standard
 50
360.0
 73
1
 44
1.0
  0
CIRCLE
  5
20D
100
AcDbEntity
100
AcDbCircle
  8
Retainer Plate
 62
256
370
-1
  6
ByLayer
 10
85.9401013151288424
 20
96.0040248006117025
 30
0.0
 40
1.45
  0
CIRCLE
  5
20E
100
AcDbEntity
100
AcDbCircle
  8
Retainer Plate
 62
256
370
-1
  6
ByLayer
 10
94.9401013151288709
 20
96.0040248006118446
 30
0.0
 40
1.45
  0
CIRCLE
  5
20F
100
AcDbEntity
100
AcDbCircle
  8
Retainer Plate
 62
256
370
-1
  6
ByLayer
 10
94.940101315129013
 20
85.0040248006118446
 30
0.0
 40
1.45
  0
CIRCLE
  5
210
100
AcDbEntity
100
AcDbCircle
  8
Retainer Plate
 62
256
370
-1
  6
ByLayer
 10
85.9401013151290414
 20
85.0040248006117025
 30
0.0
 40
1.45
  0
MTEXT
  5
211
100
AcDbEntity
100
AcDbMText
  8
Notes
 62
256
370
-1
  6
ByLayer
 10
90.0
 20
170.0
 30
0.0
 40
3.0
 41
100.0
 71
1
 72
2
  1
Main\~Plate\PTop\~Layer:\~3/16"\~acrylic\PMiddle\~Layer:\~1/8"\~acrylic\PBottom\~Layer:\~1/16"\~acrylic
  7
standard
 50
0.0
 73
1
 44
1.0
  0
MTEXT
  5
212
100
AcDbEntity
100
AcDbMText
  8
Notes
 62
256
370
-1
  6
ByLayer
 10
30.0
 20
170.0
 30
0.0
 40
3.0
 41
100.0
 71
1
 72
2
  1
Top\~Plate\PTop\~Layer:\~1/8"\~acrylic\PMiddle\~Layer:\~1/16"\~acrylic\PBottom\~Layer:\~1/16"\~acrylic
  7
standard
 50
0.0
 73
1
 44
1.0
  0
MTEXT
  5
213
100
AcDbEntity
100
AcDbMText
  8
Notes
 62
256
370
-1
  6
ByLayer
 10
150.0
 20
170.0
 30
0.0
 40
3.0
 41
100.0
 71
1
 72
2
  1
Retainer\~Plate\PMaterial:\~1/8"\~acrylic\PSpring\~Plate\PMaterial:\~1/4"\~acrylic
  7
standard
 50
0.0
 73
0
 44
1.0
  0
CIRCLE
  5
214
100
AcDbEntity
100
AcDbCircle
  8
Top Plate Top
 62
256
370
-1
  6
ByLayer
 10
116.0
 20
116.0
 30
0.0
 40
1.424999999999996
  0
CIRCLE
  5
215
100
AcDbEntity
100
AcDbCircle
  8
Top Plate Middle Layer
 62
256
370
-1
  6
ByLayer
 10
116.0
 20
116.0
 30
0.0
 40
1.424999999999996
  0
CIRCLE
  5
216
100
AcDbEntity
100
AcDbCircle
  8
Top Plate Bottom Layer
 62
256
370
-1
  6
ByLayer
 10
116.0
 20
116.0
 30
0.0
 40
1.424999999999996
  0
CIRCLE
  5
217
100
AcDbEntity
100
AcDbCircle
  8
Main Plate Top Layer
 62
256
370
-1
  6
ByLayer
 10
116.0000000000001421
 20
115.9999999999995737
 30
0.0
 40
1.425
  0
CIRCLE
  5
218
100
AcDbEntity
100
AcDbCircle
  8
Main Plate Bottom Layer
 62
256
370
-1
  6
ByLayer
 10
116.0000000000001421
 20
115.9999999999995737
 30
0.0
 40
1.425
  0
CIRCLE
  5
219
100
AcDbEntity
100
AcDbCircle
  8
Main Plate Middle Layer
 62
256
370
-1
  6
ByLayer
 10
116.0000000000001421
 20
115.9999999999995737
 30
0.0
 40
1.425
  0
CIRCLE
  5
21A
100
AcDbEntity
100
AcDbCircle
  8
Retainer Plate
 62
256
370
-1
  6
ByLayer
 10
116.0000000000001421
 20
115.9999999999991758
 30
0.0
 40
1.45
  0
CIRCLE
  5
21B
100
AcDbEntity
100
AcDbCircle
  8
Top Plate Top
 62
256
370
-1
  6
ByLayer
 10
85.9999999999999858
 20
108.0
 30
0.0
 40
1.424999999999996
  0
CIRCLE
  5
21C
100
AcDbEntity
100
AcDbCircle
  8
Top Plate Middle Layer
 62
256
370
-1
  6
ByLayer
 10
86.0
 20
108.0
 30
0.0
 40
1.424999999999996
  0
CIRCLE
  5
21D
100
AcDbEntity
100
AcDbCircle
  8
Top Plate Bottom Layer
 62
256
370
-1
  6
ByLayer
 10
86.0
 20
108.0
 30
0.0
 40
1.424999999999996
  0
CIRCLE
  5
21E
100
AcDbEntity
100
AcDbCircle
  8
Main Plate Top Layer
 62
256
370
-1
  6
ByLayer
 10
85.9999999999999147
 20
107.9999999999998153
 30
0.0
 40
1.425
  0
CIRCLE
  5
21F
100
AcDbEntity
100
AcDbCircle
  8
Main Plate Bottom Layer
 62
256
370
-1
  6
ByLayer
 10
85.9999999999999147
 20
107.9999999999998153
 30
0.0
 40
1.425
  0
CIRCLE
  5
220
100
AcDbEntity
100
AcDbCircle
  8
Main Plate Middle Layer
 62
256
370
-1
  6
ByLayer
 10
85.9999999999999147
 20
107.9999999999998153
 30
0.0
 40
1.425
  0
CIRCLE
  5
221
100
AcDbEntity
100
AcDbCircle
  8
Retainer Plate
 62
256
370
-1
  6
ByLayer
 10
85.9999999999999147
 20
107.9999999999997584
 30
0.0
 40
1.45
  0
ENDSEC
  0
SECTION
  2
OBJECTS
  0
DICTIONARY
  5
C
100
AcDbDictionary
280
0
281
1
  3
ACAD_GROUP
350
D
  3
ACAD_LAYOUT
350
1A
  3
ACAD_MLINESTYLE
350
17
  3
ACAD_PLOTSETTINGS
350
19
  3
ACAD_PLOTSTYLENAME
350
E
  3
AcDbVariableDictionary
350
222
  0
DICTIONARY
  5
D
100
AcDbDictionary
280
0
281
1
  0
ACDBDICTIONARYWDFLT
  5
E
100
AcDbDictionary
281
1
  3
Normal
350
F
100
AcDbDictionaryWithDefault
340
F
  0
ACDBPLACEHOLDER
  5
F
  0
DICTIONARY
  5
17
100
AcDbDictionary
280
0
281
1
  3
Standard
350
18
  0
MLINESTYLE
  5
18
100
AcDbMlineStyle
  2
STANDARD
 70
0
  3

 62
256
 51
90.0
 52
90.0
 71
2
 49
0.5
 62
256
  6
BYLAYER
 49
-0.5
 62
256
  6
BYLAYER
  0
DICTIONARY
  5
19
100
AcDbDictionary
280
0
281
1
  0
DICTIONARY
  5
1A
100
AcDbDictionary
281
1
  3
Layout1
350
1E
  3
Layout2
350
26
  3
Model
350
22
  0
LAYOUT
  5
1E
100
AcDbPlotSettings
  1

  2
C:\Program Files\AutoCAD 2002\plotters\DWF ePlot (optimized for plotting).pc3
  4

  6

 40
0.0
 41
0.0
 42
0.0
 43
0.0
 44
0.0
 45
0.0
 46
0.0
 47
0.0
 48
0.0
 49
0.0
140
0.0
141
0.0
142
1.0
143
1.0
 70
688
 72
0
 73
0
 74
5
  7

 75
16
147
1.0
148
0.0
149
0.0
100
AcDbLayout
  1
Layout1
 70
1
 71
1
 10
0.0
 20
0.0
 11
420.0
 21
297.0
 12
0.0
 22
0.0
 32
0.0
 14
100000000000000000000.0
 24
100000000000000000000.0
 34
100000000000000000000.0
 15
-100000000000000000000.0
 25
-100000000000000000000.0
 35
-100000000000000000000.0
146
0.0
 13
0.0
 23
0.0
 33
0.0
 16
1.0
 26
0.0
 36
0.0
 17
0.0
 27
1.0
 37
0.0
 76
0
330
1B
  0
LAYOUT
  5
22
100
AcDbPlotSettings
  1

  2
C:\Program Files\AutoCAD 2002\plotters\DWF ePlot (optimized for plotting).pc3
  4

  6

 40
0.0
 41
0.0
 42
0.0
 43
0.0
 44
0.0
 45
0.0
 46
0.0
 47
0.0
 48
0.0
 49
0.0
140
0.0
141
0.0
142
1.0
143
1.0
 70
1712
 72
0
 73
0
 74
0
  7

 75
0
147
1.0
148
0.0
149
0.0
100
AcDbLayout
  1
Model
 70
1
 71
0
 10
0.0
 20
0.0
 11
12.0
 21
9.0
 12
0.0
 22
0.0
 32
0.0
 14
0.0
 24
0.0
 34
0.0
 15
0.0
 25
0.0
 35
0.0
146
0.0
 13
0.0
 23
0.0
 33
0.0
 16
1.0
 26
0.0
 36
0.0
 17
0.0
 27
1.0
 37
0.0
 76
0
330
1F
  0
LAYOUT
  5
26
100
AcDbPlotSettings
  1

  2
C:\Program Files\AutoCAD 2002\plotters\DWF ePlot (optimized for plotting).pc3
  4

  6

 40
0.0
 41
0.0
 42
0.0
 43
0.0
 44
0.0
 45
0.0
 46
0.0
 47
0.0
 48
0.0
 49
0.0
140
0.0
141
0.0
142
1.0
143
1.0
 70
688
 72
0
 73
0
 74
5
  7

 75
16
147
1.0
148
0.0
149
0.0
100
AcDbLayout
  1
Layout2
 70
1
 71
2
 10
0.0
 20
0.0
 11
12.0
 21
9.0
 12
0.0
 22
0.0
 32
0.0
 14
0.0
 24
0.0
 34
0.0
 15
0.0
 25
0.0
 35
0.0
146
0.0
 13
0.0
 23
0.0
 33
0.0
 16
1.0
 26
0.0
 36
0.0
 17
0.0
 27
1.0
 37
0.0
 76
0
330
23
  0
DICTIONARY
  5
222
100
AcDbDictionary
281
1
  3
DIMASSOC
350
224
  3
HIDETEXT
350
223
  0
DICTIONARYVAR
  5
223
100
DictionaryVariables
280
0
  1
2
  0
DICTIONARYVAR
  5
224
100
DictionaryVariables
280
0
  1
1
  0
ENDSEC
  0
EOF
