999
dxflib 2.1.2.0
  0
SECTION
  2
HEADER
  9
$ACADVER
  1
AC1015
  9
$HANDSEED
  5
FFFF
  9
$DIMASZ
 40
2.5
  9
$PLIMMIN
 10
0.0
 20
0.0
  9
$DIMEXE
 40
1.25
  9
$DIMGAP
 40
0.625
  9
$PLIMMAX
 10
210.0
 20
297.0
  9
$INSUNITS
 70
4
  9
$DIMEXO
 40
0.625
  9
$DIMTXT
 40
2.5
  9
$CLAYER
  8
0
  0
ENDSEC
  0
SECTION
  2
TABLES
  0
TABLE
  2
VPORT
  5
8
100
AcDbSymbolTable
 70
1
  0
VPORT
  5
30
100
AcDbSymbolTableRecord
100
AcDbViewportTableRecord
  2
*Active
 70
0
 10
0.0
 20
0.0
 11
1.0
 21
1.0
 12
286.3055555555554861
 22
148.5
 13
0.0
 23
0.0
 14
10.0
 24
10.0
 15
10.0
 25
10.0
 16
0.0
 26
0.0
 36
1.0
 17
0.0
 27
0.0
 37
0.0
 40
297.0
 41
1.92798353909465
 42
50.0
 43
0.0
 44
0.0
 50
0.0
 51
0.0
 71
0
 72
100
 73
1
 74
3
 75
1
 76
1
 77
0
 78
0
281
0
 65
1
110
0.0
120
0.0
130
0.0
111
1.0
121
0.0
131
0.0
112
0.0
122
1.0
132
0.0
 79
0
146
0.0
  0
ENDTAB
  0
TABLE
  2
LTYPE
  5
5
100
AcDbSymbolTable
 70
21
  0
LTYPE
  5
14
100
AcDbSymbolTableRecord
100
AcDbLinetypeTableRecord
  2
ByBlock
 70
0
  3

 72
65
 73
0
 40
0.0
  0
LTYPE
  5
15
100
AcDbSymbolTableRecord
100
AcDbLinetypeTableRecord
  2
ByLayer
 70
0
  3

 72
65
 73
0
 40
0.0
  0
LTYPE
  5
16
100
AcDbSymbolTableRecord
100
AcDbLinetypeTableRecord
  2
CONTINUOUS
 70
0
  3
Solid line
 72
65
 73
0
 40
0.0
  0
LTYPE
  5
31
100
AcDbSymbolTableRecord
100
AcDbLinetypeTableRecord
  2
DOT
 70
0
  3
Dot . . . . . . . . . . . . . . . . . . . . . .
 72
65
 73
2
 40
6.3499999999999996
 49
0.0
 74
0
 49
-6.3499999999999996
 74
0
  0
LTYPE
  5
32
100
AcDbSymbolTableRecord
100
AcDbLinetypeTableRecord
  2
DOT2
 70
0
  3
Dot (.5x) .....................................
 72
65
 73
2
 40
3.1749999999999998
 49
0.0
 74
0
 49
-3.1749999999999998
 74
0
  0
LTYPE
  5
33
100
AcDbSymbolTableRecord
100
AcDbLinetypeTableRecord
  2
DOTX2
 70
0
  3
Dot (2x) .  .  .  .  .  .  .  .  .  .  .  .  .
 72
65
 73
2
 40
12.6999999999999993
 49
0.0
 74
0
 49
-12.6999999999999993
 74
0
  0
LTYPE
  5
34
100
AcDbSymbolTableRecord
100
AcDbLinetypeTableRecord
  2
DASHED
 70
0
  3
Dashed __ __ __ __ __ __ __ __ __ __ __ __ __ _
 72
65
 73
2
 40
19.0500000000000007
 49
12.6999999999999993
 74
0
 49
-6.3499999999999996
 74
0
  0
LTYPE
  5
35
100
AcDbSymbolTableRecord
100
AcDbLinetypeTableRecord
  2
DASHED2
 70
0
  3
Dashed (.5x) _ _ _ _ _ _ _ _ _ _ _ _ _ _ _ _ _
 72
65
 73
2
 40
9.5250000000000004
 49
6.3499999999999996
 74
0
 49
-3.1749999999999998
 74
0
  0
LTYPE
  5
36
100
AcDbSymbolTableRecord
100
AcDbLinetypeTableRecord
  2
DASHEDX2
 70
0
  3
Dashed (2x) ____  ____  ____  ____  ____  ___
 72
65
 73
2
 40
38.1000000000000014
 49
25.3999999999999986
 74
0
 49
-12.6999999999999993
 74
0
  0
LTYPE
  5
37
100
AcDbSymbolTableRecord
100
AcDbLinetypeTableRecord
  2
DASHDOT
 70
0
  3
Dash dot __ . __ . __ . __ . __ . __ . __ . __
 72
65
 73
4
 40
25.3999999999999986
 49
12.6999999999999993
 74
0
 49
-6.3499999999999996
 74
0
 49
0.0
 74
0
 49
-6.3499999999999996
 74
0
  0
LTYPE
  5
38
100
AcDbSymbolTableRecord
100
AcDbLinetypeTableRecord
  2
DASHDOT2
 70
0
  3
Dash dot (.5x) _._._._._._._._._._._._._._._.
 72
65
 73
4
 40
12.6999999999999993
 49
6.3499999999999996
 74
0
 49
-3.1749999999999998
 74
0
 49
0.0
 74
0
 49
-3.1749999999999998
 74
0
  0
LTYPE
  5
39
100
AcDbSymbolTableRecord
100
AcDbLinetypeTableRecord
  2
DASHDOTX2
 70
0
  3
Dash dot (2x) ____  .  ____  .  ____  .  ___
 72
65
 73
4
 40
50.7999999999999972
 49
25.3999999999999986
 74
0
 49
-12.6999999999999993
 74
0
 49
0.0
 74
0
 49
-12.6999999999999993
 74
0
  0
LTYPE
  5
3A
100
AcDbSymbolTableRecord
100
AcDbLinetypeTableRecord
  2
DIVIDE
 70
0
  3
Divide ____ . . ____ . . ____ . . ____ . . ____
 72
65
 73
6
 40
31.75
 49
12.6999999999999993
 74
0
 49
-6.3499999999999996
 74
0
 49
0.0
 74
0
 49
-6.3499999999999996
 74
0
 49
0.0
 74
0
 49
-6.3499999999999996
 74
0
  0
LTYPE
  5
3B
100
AcDbSymbolTableRecord
100
AcDbLinetypeTableRecord
  2
DIVIDE2
 70
0
  3
Divide (.5x) __..__..__..__..__..__..__..__.._
 72
65
 73
6
 40
15.875
 49
6.3499999999999996
 74
0
 49
-3.1749999999999998
 74
0
 49
0.0
 74
0
 49
-3.1749999999999998
 74
0
 49
0.0
 74
0
 49
-3.1749999999999998
 74
0
  0
LTYPE
  5
3C
100
AcDbSymbolTableRecord
100
AcDbLinetypeTableRecord
  2
DIVIDEX2
 70
0
  3
Divide (2x) ________  .  .  ________  .  .  _
 72
65
 73
6
 40
63.5
 49
25.3999999999999986
 74
0
 49
-12.6999999999999993
 74
0
 49
0.0
 74
0
 49
-12.6999999999999993
 74
0
 49
0.0
 74
0
 49
-12.6999999999999993
 74
0
  0
LTYPE
  5
3D
100
AcDbSymbolTableRecord
100
AcDbLinetypeTableRecord
  2
CENTER
 70
0
  3
Center ____ _ ____ _ ____ _ ____ _ ____ _ ____
 72
65
 73
4
 40
50.7999999999999972
 49
31.75
 74
0
 49
-6.3499999999999996
 74
0
 49
6.3499999999999996
 74
0
 49
-6.3499999999999996
 74
0
  0
LTYPE
  5
3E
100
AcDbSymbolTableRecord
100
AcDbLinetypeTableRecord
  2
CENTER2
 70
0
  3
Center (.5x) ___ _ ___ _ ___ _ ___ _ ___ _ ___
 72
65
 73
4
 40
28.5749999999999993
 49
19.0500000000000007
 74
0
 49
-3.1749999999999998
 74
0
 49
3.1749999999999998
 74
0
 49
-3.1749999999999998
 74
0
  0
LTYPE
  5
3F
100
AcDbSymbolTableRecord
100
AcDbLinetypeTableRecord
  2
CENTERX2
 70
0
  3
Center (2x) ________  __  ________  __  _____
 72
65
 73
4
 40
101.5999999999999943
 49
63.5
 74
0
 49
-12.6999999999999993
 74
0
 49
12.6999999999999993
 74
0
 49
-12.6999999999999993
 74
0
  0
LTYPE
  5
40
100
AcDbSymbolTableRecord
100
AcDbLinetypeTableRecord
  2
BORDER
 70
0
  3
Border __ __ . __ __ . __ __ . __ __ . __ __ .
 72
65
 73
6
 40
44.4500000000000028
 49
12.6999999999999993
 74
0
 49
-6.3499999999999996
 74
0
 49
12.6999999999999993
 74
0
 49
-6.3499999999999996
 74
0
 49
0.0
 74
0
 49
-6.3499999999999996
 74
0
  0
LTYPE
  5
41
100
AcDbSymbolTableRecord
100
AcDbLinetypeTableRecord
  2
BORDER2
 70
0
  3
Border (.5x) __.__.__.__.__.__.__.__.__.__.__.
 72
65
 73
6
 40
22.2250000000000014
 49
6.3499999999999996
 74
0
 49
-3.1749999999999998
 74
0
 49
6.3499999999999996
 74
0
 49
-3.1749999999999998
 74
0
 49
0.0
 74
0
 49
-3.1749999999999998
 74
0
  0
LTYPE
  5
42
100
AcDbSymbolTableRecord
100
AcDbLinetypeTableRecord
  2
BORDERX2
 70
0
  3
Border (2x) ____  ____  .  ____  ____  .  ___
 72
65
 73
6
 40
88.9000000000000057
 49
25.3999999999999986
 74
0
 49
-12.6999999999999993
 74
0
 49
25.3999999999999986
 74
0
 49
-12.6999999999999993
 74
0
 49
0.0
 74
0
 49
-12.6999999999999993
 74
0
  0
ENDTAB
  0
TABLE
  2
LAYER
  5
2
100
AcDbSymbolTable
 70
3
  0
LAYER
  5
10
100
AcDbSymbolTableRecord
100
AcDbLayerTableRecord
  2
0
 70
0
 62
7
  6
CONTINUOUS
370
0
390
F
  0
LAYER
  5
43
100
AcDbSymbolTableRecord
100
AcDbLayerTableRecord
  2
Middle Layer
 70
0
 62
7
  6
CONTINUOUS
370
0
390
F
  0
LAYER
  5
44
100
AcDbSymbolTableRecord
100
AcDbLayerTableRecord
  2
Top Layer
 70
0
 62
7
  6
CONTINUOUS
370
0
390
F
  0
ENDTAB
  0
TABLE
  2
STYLE
  5
3
100
AcDbSymbolTable
 70
1
  0
STYLE
  5
11
100
AcDbSymbolTableRecord
100
AcDbTextStyleTableRecord
  2
Standard
 70
0
 40
0.0
 41
0.75
 50
0.0
 71
0
 42
2.5
  3
txt
  4

  0
ENDTAB
  0
TABLE
  2
VIEW
  5
6
100
AcDbSymbolTable
 70
0
  0
ENDTAB
  0
TABLE
  2
UCS
  5
7
100
AcDbSymbolTable
 70
0
  0
ENDTAB
  0
TABLE
  2
APPID
  5
9
100
AcDbSymbolTable
 70
1
  0
APPID
  5
12
100
AcDbSymbolTableRecord
100
AcDbRegAppTableRecord
  2
ACAD
 70
0
  0
ENDTAB
  0
TABLE
  2
DIMSTYLE
  5
A
100
AcDbSymbolTable
 70
1
100
AcDbDimStyleTable
 71
0
  0
DIMSTYLE
105
27
100
AcDbSymbolTableRecord
100
AcDbDimStyleTableRecord
  2
Standard
 41
2.5
 42
0.625
 43
3.75
 44
1.25
 70
0
 73
0
 74
0
 77
1
 78
8
140
2.5
141
2.5
143
0.03937007874016
147
0.625
171
3
172
1
271
2
272
2
274
3
278
44
283
0
284
8
340
11
  0
ENDTAB
  0
TABLE
  2
BLOCK_RECORD
  5
1
100
AcDbSymbolTable
 70
1
  0
BLOCK_RECORD
  5
1F
100
AcDbSymbolTableRecord
100
AcDbBlockTableRecord
  2
*Model_Space
340
22
  0
BLOCK_RECORD
  5
1B
100
AcDbSymbolTableRecord
100
AcDbBlockTableRecord
  2
*Paper_Space
340
1E
  0
BLOCK_RECORD
  5
23
100
AcDbSymbolTableRecord
100
AcDbBlockTableRecord
  2
*Paper_Space0
340
26
  0
ENDTAB
  0
ENDSEC
  0
SECTION
  2
BLOCKS
  0
BLOCK
  5
20
100
AcDbEntity
  8
0
100
AcDbBlockBegin
  2
*Model_Space
 70
0
 10
0.0
 20
0.0
 30
0.0
  3
*Model_Space
  1

  0
ENDBLK
  5
21
100
AcDbEntity
  8
0
100
AcDbBlockEnd
  0
BLOCK
  5
1C
100
AcDbEntity
 67
1
  8
0
100
AcDbBlockBegin
  2
*Paper_Space
 70
0
 10
0.0
 20
0.0
 30
0.0
  3
*Paper_Space
  1

  0
ENDBLK
  5
1D
100
AcDbEntity
 67
1
  8
0
100
AcDbBlockEnd
  0
BLOCK
  5
24
100
AcDbEntity
  8
0
100
AcDbBlockBegin
  2
*Paper_Space0
 70
0
 10
0.0
 20
0.0
 30
0.0
  3
*Paper_Space0
  1

  0
ENDBLK
  5
25
100
AcDbEntity
  8
0
100
AcDbBlockEnd
  0
ENDSEC
  0
SECTION
  2
ENTITIES
  0
LINE
  5
45
100
AcDbEntity
100
AcDbLine
  8
Middle Layer
 62
256
370
-1
  6
ByLayer
 10
7.4813842601040577
 20
47.1384676225390464
 30
0.0
 11
12.7263428914703773
 21
32.728062216886876
 31
0.0
  0
CIRCLE
  5
46
100
AcDbEntity
100
AcDbCircle
  8
Middle Layer
 62
256
370
-1
  6
ByLayer
 10
49.9768713737915675
 20
32.2480976886778024
 30
0.0
 40
1.424999999999996
  0
CIRCLE
  5
47
100
AcDbEntity
100
AcDbCircle
  8
Middle Layer
 62
256
370
-1
  6
ByLayer
 10
33.9768713737918731
 20
10.2480976886777597
 30
0.0
 40
1.424999999999996
  0
CIRCLE
  5
48
100
AcDbEntity
100
AcDbCircle
  8
Middle Layer
 62
256
370
-1
  6
ByLayer
 10
49.9768713737917665
 20
10.2480976886778166
 30
0.0
 40
1.424999999999996
  0
CIRCLE
  5
49
100
AcDbEntity
100
AcDbCircle
  8
Middle Layer
 62
256
370
-1
  6
ByLayer
 10
19.163998416406983
 20
44.2787930295269092
 30
0.0
 40
1.424999999999996
  0
CIRCLE
  5
4A
100
AcDbEntity
100
AcDbCircle
  8
Middle Layer
 62
256
370
-1
  6
ByLayer
 10
47.3547770399840289
 20
54.5393973292972163
 30
0.0
 40
1.424999999999996
  0
ARC
  5
4B
100
AcDbEntity
  8
Middle Layer
 62
256
370
-1
  6
ByLayer
100
AcDbCircle
 10
45.0768713737917111
 20
29.7480976886777562
 30
0.0
 40
0.499999999999997
100
AcDbArc
 50
360.0
 51
90.0
  0
ARC
  5
4C
100
AcDbEntity
  8
Middle Layer
 62
256
370
-1
  6
ByLayer
100
AcDbCircle
 10
45.0768713737917608
 20
17.7480976886778095
 30
0.0
 40
0.5000000000000014
100
AcDbArc
 50
270.0
 51
360.0
  0
LINE
  5
4D
100
AcDbEntity
100
AcDbLine
  8
Middle Layer
 62
256
370
-1
  6
ByLayer
 10
43.5768713737917039
 20
30.2480976886778166
 30
0.0
 11
45.0768713737916897
 21
30.2480976886778166
 31
0.0
  0
LINE
  5
4E
100
AcDbEntity
100
AcDbLine
  8
Middle Layer
 62
256
370
-1
  6
ByLayer
 10
45.5768713737916613
 20
29.7480976886777029
 30
0.0
 11
45.5768713737916897
 21
23.607549099082334
 31
0.0
  0
LINE
  5
4F
100
AcDbEntity
100
AcDbLine
  8
Middle Layer
 62
256
370
-1
  6
ByLayer
 10
45.576871373791775
 20
17.748097688677813
 30
0.0
 11
45.5768713737916897
 21
23.607549099082334
 31
0.0
  0
LINE
  5
50
100
AcDbEntity
100
AcDbLine
  8
Middle Layer
 62
256
370
-1
  6
ByLayer
 10
40.3768713737915945
 20
37.8944316802469388
 30
0.0
 11
40.3768713737917722
 21
21.8135074793493509
 31
0.0
  0
LINE
  5
51
100
AcDbEntity
100
AcDbLine
  8
Middle Layer
 62
256
370
-1
  6
ByLayer
 10
40.3768713737918858
 20
3.2480976886779871
 30
0.0
 11
40.3768713737917722
 21
21.8135074793493509
 31
0.0
  0
LINE
  5
52
100
AcDbEntity
100
AcDbLine
  8
Middle Layer
 62
256
370
-1
  6
ByLayer
 10
43.5768713737918745
 20
13.0215797370942035
 30
0.0
 11
43.5768713737918887
 21
3.2480976886779871
 31
0.0
  0
LINE
  5
53
100
AcDbEntity
100
AcDbLine
  8
Middle Layer
 62
256
370
-1
  6
ByLayer
 10
43.5768713737914268
 20
69.1270187060760435
 30
0.0
 11
43.5768713737917039
 21
30.2480976886778166
 31
0.0
  0
CIRCLE
  5
54
100
AcDbEntity
100
AcDbCircle
  8
Middle Layer
 62
256
370
-1
  6
ByLayer
 10
33.3768713737917864
 20
19.8480976886777825
 30
0.0
 40
1.424999999999996
  0
CIRCLE
  5
55
100
AcDbEntity
100
AcDbCircle
  8
Middle Layer
 62
256
370
-1
  6
ByLayer
 10
25.3768713737919001
 20
19.8480976886776652
 30
0.0
 40
1.424999999999996
  0
CIRCLE
  5
56
100
AcDbEntity
100
AcDbCircle
  8
Middle Layer
 62
256
370
-1
  6
ByLayer
 10
25.3768713737917793
 20
27.6480976886776801
 30
0.0
 40
1.424999999999996
  0
CIRCLE
  5
57
100
AcDbEntity
100
AcDbCircle
  8
Middle Layer
 62
256
370
-1
  6
ByLayer
 10
33.3768713737917864
 20
27.648097688677737
 30
0.0
 40
1.424999999999996
  0
LINE
  5
58
100
AcDbEntity
100
AcDbLine
  8
Middle Layer
 62
256
370
-1
  6
ByLayer
 10
20.549357075208885
 20
54.3606222973970006
 30
0.0
 11
27.5970517311032353
 21
56.9257733723394921
 31
0.0
  0
LINE
  5
59
100
AcDbEntity
100
AcDbLine
  8
Middle Layer
 62
256
370
-1
  6
ByLayer
 10
17.933420642783247
 20
59.7935659361169627
 30
0.0
 11
19.7803294167419779
 21
54.7192257838731706
 31
0.0
  0
LINE
  5
5A
100
AcDbEntity
100
AcDbLine
  8
Middle Layer
 62
256
370
-1
  6
ByLayer
 10
4.6367700586628722
 20
54.9539809080586608
 30
0.0
 11
17.9334206427833749
 21
59.7935659361170764
 31
0.0
  0
LINE
  5
5B
100
AcDbEntity
100
AcDbLine
  8
Middle Layer
 62
256
370
-1
  6
ByLayer
 10
11.5492072445236005
 20
35.9622158265084266
 30
0.0
 11
4.6367700586628722
 21
54.9539809080586608
 31
0.0
  0
LINE
  5
5C
100
AcDbEntity
100
AcDbLine
  8
Middle Layer
 62
256
370
-1
  6
ByLayer
 10
16.9768713737920649
 20
3.2480976886779871
 30
0.0
 11
16.9768713737920471
 21
5.180402927198358
 31
0.0
  0
LINE
  5
5D
100
AcDbEntity
100
AcDbLine
  8
Middle Layer
 62
256
370
-1
  6
ByLayer
 10
40.3768713737918858
 20
3.2480976886779871
 30
0.0
 11
16.9768713737920649
 21
3.2480976886779871
 31
0.0
  0
LINE
  5
5E
100
AcDbEntity
100
AcDbLine
  8
Middle Layer
 62
256
370
-1
  6
ByLayer
 10
10.2597228776033766
 20
50.6155017279808561
 30
0.0
 11
16.273755650633106
 21
52.8044306452651853
 31
0.0
  0
LINE
  5
5F
100
AcDbEntity
100
AcDbLine
  8
Middle Layer
 62
256
370
-1
  6
ByLayer
 10
17.0427833090999385
 20
52.4458271587890152
 30
0.0
 11
18.0004397104120102
 21
49.8146878205885599
 31
0.0
  0
LINE
  5
60
100
AcDbEntity
100
AcDbLine
  8
Middle Layer
 62
256
370
-1
  6
ByLayer
 10
17.6418362239358189
 20
49.045660162121564
 30
0.0
 11
11.6278034509060682
 21
46.8567312448371283
 31
0.0
  0
LINE
  5
61
100
AcDbEntity
100
AcDbLine
  8
Middle Layer
 62
256
370
-1
  6
ByLayer
 10
10.8587757924391042
 20
47.2153347313134049
 30
0.0
 11
9.9011193911271462
 21
49.8464740695137465
 31
0.0
  0
LINE
  5
62
100
AcDbEntity
100
AcDbLine
  8
Middle Layer
 62
256
370
-1
  6
ByLayer
 10
29.7768713737918631
 20
14.648097688677737
 30
0.0
 11
29.7768713737919661
 21
11.8480976886777256
 31
0.0
  0
LINE
  5
63
100
AcDbEntity
100
AcDbLine
  8
Middle Layer
 62
256
370
-1
  6
ByLayer
 10
29.1768713737919718
 20
11.248097688677646
 30
0.0
 11
22.7768713737919377
 21
11.2480976886775927
 31
0.0
  0
LINE
  5
64
100
AcDbEntity
100
AcDbLine
  8
Middle Layer
 62
256
370
-1
  6
ByLayer
 10
22.1768713737919683
 20
11.8480976886776119
 30
0.0
 11
22.1768713737918901
 21
14.6480976886776837
 31
0.0
  0
LINE
  5
65
100
AcDbEntity
100
AcDbLine
  8
Middle Layer
 62
256
370
-1
  6
ByLayer
 10
22.7768713737918631
 20
15.2480976886775927
 30
0.0
 11
29.1768713737918546
 21
15.2480976886775892
 31
0.0
  0
LINE
  5
66
100
AcDbEntity
100
AcDbLine
  8
Middle Layer
 62
256
370
-1
  6
ByLayer
 10
32.7653611454256719
 20
58.8068841606306449
 30
0.0
 11
39.8130558013199405
 21
61.3720352355733638
 31
0.0
  0
LINE
  5
67
100
AcDbEntity
100
AcDbLine
  8
Middle Layer
 62
256
370
-1
  6
ByLayer
 10
66.9768713737917665
 20
3.2480976886779871
 30
0.0
 11
43.5768713737918887
 21
3.2480976886779871
 31
0.0
  0
LINE
  5
68
100
AcDbEntity
100
AcDbLine
  8
Middle Layer
 62
256
370
-1
  6
ByLayer
 10
66.9768713737916386
 20
13.9967519626219108
 30
0.0
 11
66.9768713737917665
 21
3.2480976886779871
 31
0.0
  0
LINE
  5
69
100
AcDbEntity
100
AcDbLine
  8
Middle Layer
 62
256
370
-1
  6
ByLayer
 10
51.6214010979578717
 20
72.054988074342404
 30
0.0
 11
61.5492072445232097
 21
44.7785648619320114
 31
0.0
  0
LINE
  5
6A
100
AcDbEntity
100
AcDbLine
  8
Middle Layer
 62
256
370
-1
  6
ByLayer
 10
43.5768713737914268
 20
69.1270187060760435
 30
0.0
 11
51.6214010979578717
 21
72.054988074342404
 31
0.0
  0
LINE
  5
6B
100
AcDbEntity
100
AcDbLine
  8
Middle Layer
 62
256
370
-1
  6
ByLayer
 10
61.1768713737917125
 20
11.2480976886779835
 30
0.0
 11
54.7768713737917494
 21
11.2480976886779196
 31
0.0
  0
LINE
  5
6C
100
AcDbEntity
100
AcDbLine
  8
Middle Layer
 62
256
370
-1
  6
ByLayer
 10
54.1768713737917551
 20
11.8480976886778926
 30
0.0
 11
54.1768713737916912
 21
14.648097688677904
 31
0.0
  0
LINE
  5
6D
100
AcDbEntity
100
AcDbLine
  8
Middle Layer
 62
256
370
-1
  6
ByLayer
 10
54.776871373791721
 20
15.248097688677916
 30
0.0
 11
61.1768713737916841
 21
15.2480976886779267
 31
0.0
  0
LINE
  5
6E
100
AcDbEntity
100
AcDbLine
  8
Middle Layer
 62
256
370
-1
  6
ByLayer
 10
61.7768713737916784
 20
14.6480976886778969
 30
0.0
 11
61.776871373791721
 21
11.8480976886780169
 31
0.0
  0
LINE
  5
6F
100
AcDbEntity
100
AcDbLine
  8
Middle Layer
 62
256
370
-1
  6
ByLayer
 10
44.6877101407314967
 20
59.5280598910376142
 30
0.0
 11
43.7300537394196169
 21
62.15919922923824
 31
0.0
  0
LINE
  5
70
100
AcDbEntity
100
AcDbLine
  8
Middle Layer
 62
256
370
-1
  6
ByLayer
 10
44.0886572258958438
 20
62.9282268877052928
 30
0.0
 11
50.102689998925527
 21
65.1171558049895083
 31
0.0
  0
LINE
  5
71
100
AcDbEntity
100
AcDbLine
  8
Middle Layer
 62
256
370
-1
  6
ByLayer
 10
50.8717176573925087
 20
64.7585523185132814
 30
0.0
 11
51.8293740587043743
 21
62.1274129803128261
 31
0.0
  0
LINE
  5
72
100
AcDbEntity
100
AcDbLine
  8
Middle Layer
 62
256
370
-1
  6
ByLayer
 10
51.4707705722281474
 20
61.358385321845887
 30
0.0
 11
45.4567377991984785
 21
59.1694564045615579
 31
0.0
  0
ARC
  5
73
100
AcDbEntity
  8
Middle Layer
 62
256
370
-1
  6
ByLayer
100
AcDbCircle
 10
20.3441449892135395
 20
54.9244378698685836
 30
0.0
 40
0.600000000000006
100
AcDbArc
 50
199.9999999999995737
 51
290.0000000000000568
  0
ARC
  5
74
100
AcDbEntity
  8
Middle Layer
 62
256
370
-1
  6
ByLayer
100
AcDbCircle
 10
16.4789677366284764
 20
52.2406150727936591
 30
0.0
 40
0.5999999999999791
100
AcDbArc
 50
20.0000000000006892
 51
110.0000000000033396
  0
ARC
  5
75
100
AcDbEntity
  8
Middle Layer
 62
256
370
-1
  6
ByLayer
100
AcDbCircle
 10
17.4366241379403704
 20
49.6094757345929764
 30
0.0
 40
0.599999999999983
100
AcDbArc
 50
290.0000000000000568
 51
20.0000000000032863
  0
ARC
  5
76
100
AcDbEntity
  8
Middle Layer
 62
256
370
-1
  6
ByLayer
100
AcDbCircle
 10
11.4225913649106872
 20
47.4205468173086473
 30
0.0
 40
0.599999999999974
100
AcDbArc
 50
199.9999999999969873
 51
290.0000000000000568
  0
ARC
  5
77
100
AcDbEntity
  8
Middle Layer
 62
256
370
-1
  6
ByLayer
100
AcDbCircle
 10
10.4649349635987718
 20
50.05168615550933
 30
0.0
 40
0.600000000000009
100
AcDbArc
 50
110.0000000000018048
 51
199.9999999999990621
  0
ARC
  5
78
100
AcDbEntity
  8
Middle Layer
 62
256
370
-1
  6
ByLayer
100
AcDbCircle
 10
29.1768713737919754
 20
11.848097688677786
 30
0.0
 40
0.599999999999999
100
AcDbArc
 50
270.0
 51
360.0
  0
ARC
  5
79
100
AcDbEntity
  8
Middle Layer
 62
256
370
-1
  6
ByLayer
100
AcDbCircle
 10
22.7768713737919768
 20
11.8480976886776119
 30
0.0
 40
0.5999999999999968
100
AcDbArc
 50
180.0
 51
270.0
  0
ARC
  5
7A
100
AcDbEntity
  8
Middle Layer
 62
256
370
-1
  6
ByLayer
100
AcDbCircle
 10
22.7768713737918738
 20
14.6480976886776197
 30
0.0
 40
0.6000000000000034
100
AcDbArc
 50
90.0000000000017337
 51
180.0
  0
ARC
  5
7B
100
AcDbEntity
  8
Middle Layer
 62
256
370
-1
  6
ByLayer
100
AcDbCircle
 10
29.1768713737918404
 20
14.6480976886777405
 30
0.0
 40
0.6000000000000013
100
AcDbArc
 50
360.0
 51
89.9999999999983231
  0
ARC
  5
7C
100
AcDbEntity
  8
Middle Layer
 62
256
370
-1
  6
ByLayer
100
AcDbCircle
 10
54.7768713737917494
 20
11.8480976886778855
 30
0.0
 40
0.5999999999999968
100
AcDbArc
 50
180.0
 51
270.0
  0
ARC
  5
7D
100
AcDbEntity
  8
Middle Layer
 62
256
370
-1
  6
ByLayer
100
AcDbCircle
 10
54.7768713737917352
 20
14.6480976886779111
 30
0.0
 40
0.6000000000000034
100
AcDbArc
 50
90.0000000000017337
 51
180.0
  0
ARC
  5
7E
100
AcDbEntity
  8
Middle Layer
 62
256
370
-1
  6
ByLayer
100
AcDbCircle
 10
61.1768713737916912
 20
14.6480976886779075
 30
0.0
 40
0.599999999999999
100
AcDbArc
 50
360.0
 51
89.9999999999983231
  0
ARC
  5
7F
100
AcDbEntity
  8
Middle Layer
 62
256
370
-1
  6
ByLayer
100
AcDbCircle
 10
61.1768713737917338
 20
11.8480976886779956
 30
0.0
 40
0.599999999999999
100
AcDbArc
 50
270.0
 51
360.0
  0
ARC
  5
80
100
AcDbEntity
  8
Middle Layer
 62
256
370
-1
  6
ByLayer
100
AcDbCircle
 10
44.2938693118911715
 20
62.364411315233653
 30
0.0
 40
0.5999999999999952
100
AcDbArc
 50
110.0000000000002842
 51
200.0000000000001705
  0
ARC
  5
81
100
AcDbEntity
  8
Middle Layer
 62
256
370
-1
  6
ByLayer
100
AcDbCircle
 10
50.3079020849210679
 20
64.5533402325179253
 30
0.0
 40
0.5999999999999801
100
AcDbArc
 50
20.0000000000001812
 51
110.0000000000018048
  0
ARC
  5
82
100
AcDbEntity
  8
Middle Layer
 62
256
370
-1
  6
ByLayer
100
AcDbCircle
 10
51.2655584862327629
 20
61.9222008943174131
 30
0.0
 40
0.5999999999999871
100
AcDbArc
 50
290.0000000000000568
 51
20.0000000000001812
  0
ARC
  5
83
100
AcDbEntity
  8
Middle Layer
 62
256
370
-1
  6
ByLayer
100
AcDbCircle
 10
45.2515257132031223
 20
59.7332719770330272
 30
0.0
 40
0.5999999999999908
100
AcDbArc
 50
200.0000000000001421
 51
290.000000000001819
  0
ARC
  5
84
100
AcDbEntity
  8
Middle Layer
 62
256
370
-1
  6
ByLayer
100
AcDbCircle
 10
-73.0231286262072103
 20
5.1804029271970009
 30
0.0
 40
89.9999999999994458
100
AcDbArc
 50
360.0
 51
20.0000000000005862
  0
ARC
  5
85
100
AcDbEntity
  8
Middle Layer
 62
256
370
-1
  6
ByLayer
100
AcDbCircle
 10
-23.0231286262070469
 20
13.9967519626211327
 30
0.0
 40
89.9999999999989058
100
AcDbArc
 50
360.0
 51
20.0000000000006892
  0
LINE
  5
86
100
AcDbEntity
100
AcDbLine
  8
Middle Layer
 62
256
370
-1
  6
ByLayer
 10
40.3768713737915945
 20
37.8944316802469388
 30
0.0
 11
40.376871373791424
 21
61.577247321568521
 31
0.0
  0
LINE
  5
87
100
AcDbEntity
100
AcDbLine
  8
Middle Layer
 62
256
370
-1
  6
ByLayer
 10
27.5970517311032353
 20
56.9257733723394921
 30
0.0
 11
40.376871373791424
 21
61.577247321568521
 31
0.0
  0
LINE
  5
88
100
AcDbEntity
100
AcDbLine
  8
Middle Layer
 62
256
370
-1
  6
ByLayer
 10
43.5768713737917821
 20
17.2480976886778166
 30
0.0
 11
45.0768713737917821
 21
17.2480976886778166
 31
0.0
  0
LINE
  5
89
100
AcDbEntity
100
AcDbLine
  8
Middle Layer
 62
256
370
-1
  6
ByLayer
 10
43.5768713737918745
 20
13.0215797370942035
 30
0.0
 11
43.5768713737917821
 21
17.2480976886778166
 31
0.0
  0
LINE
  5
8A
100
AcDbEntity
100
AcDbLine
  8
Top Layer
 62
256
370
-1
  6
ByLayer
 10
62.8446142014412032
 20
52.1844867144803999
 30
0.0
 11
68.0895728328075336
 21
37.7740813088282223
 31
0.0
  0
CIRCLE
  5
8B
100
AcDbEntity
100
AcDbCircle
  8
Top Layer
 62
256
370
-1
  6
ByLayer
 10
105.3401013151286918
 20
37.2941167806191629
 30
0.0
 40
1.424999999999996
  0
CIRCLE
  5
8C
100
AcDbEntity
100
AcDbCircle
  8
Top Layer
 62
256
370
-1
  6
ByLayer
 10
89.3401013151290044
 20
15.2941167806191061
 30
0.0
 40
1.424999999999996
  0
CIRCLE
  5
8D
100
AcDbEntity
100
AcDbCircle
  8
Top Layer
 62
256
370
-1
  6
ByLayer
 10
105.340101315128905
 20
15.2941167806191647
 30
0.0
 40
1.424999999999996
  0
CIRCLE
  5
8E
100
AcDbEntity
100
AcDbCircle
  8
Top Layer
 62
256
370
-1
  6
ByLayer
 10
74.5272283577441073
 20
49.3248121214682556
 30
0.0
 40
1.424999999999996
  0
CIRCLE
  5
8F
100
AcDbEntity
100
AcDbCircle
  8
Top Layer
 62
256
370
-1
  6
ByLayer
 10
102.7180069813211531
 20
59.5854164212385626
 30
0.0
 40
1.424999999999996
  0
ARC
  5
90
100
AcDbEntity
  8
Top Layer
 62
256
370
-1
  6
ByLayer
100
AcDbCircle
 10
100.4401013151288566
 20
34.7941167806191061
 30
0.0
 40
0.499999999999997
100
AcDbArc
 50
360.0
 51
90.0
  0
ARC
  5
91
100
AcDbEntity
  8
Top Layer
 62
256
370
-1
  6
ByLayer
100
AcDbCircle
 10
100.0181049341279049
 20
16.5677104278271372
 30
0.0
 40
0.4999999999999964
100
AcDbArc
 50
199.9999999999984368
 51
290.0000000000009663
  0
ARC
  5
92
100
AcDbEntity
  8
Top Layer
 62
256
370
-1
  6
ByLayer
100
AcDbCircle
 10
104.2467217276645215
 20
18.1068010727925639
 30
0.0
 40
0.4999999999999947
100
AcDbArc
 50
289.9999999999990905
 51
19.9999999999984013
  0
LINE
  5
93
100
AcDbEntity
100
AcDbLine
  8
Top Layer
 62
256
370
-1
  6
ByLayer
 10
98.9401013151288282
 20
35.2941167806191629
 30
0.0
 11
100.4401013151288282
 21
35.2941167806191629
 31
0.0
  0
LINE
  5
94
100
AcDbEntity
100
AcDbLine
  8
Top Layer
 62
256
370
-1
  6
ByLayer
 10
100.9401013151287998
 20
34.7941167806190492
 30
0.0
 11
100.9401013151288282
 21
28.6535681910236733
 31
0.0
  0
LINE
  5
95
100
AcDbEntity
100
AcDbLine
  8
Top Layer
 62
256
370
-1
  6
ByLayer
 10
99.5482586237348954
 20
16.3967003561642741
 30
0.0
 11
98.9401013151289987
 21
18.0675988290355427
 31
0.0
  0
LINE
  5
96
100
AcDbEntity
100
AcDbLine
  8
Top Layer
 62
256
370
-1
  6
ByLayer
 10
100.9401013151288282
 20
28.6535681910236733
 30
0.0
 11
104.7165680380573889
 21
18.277811144455363
 31
0.0
  0
LINE
  5
97
100
AcDbEntity
100
AcDbLine
  8
Top Layer
 62
256
370
-1
  6
ByLayer
 10
95.7401013151289249
 20
26.8595265712907008
 30
0.0
 11
82.9602816724403738
 21
61.9717924642808384
 31
0.0
  0
LINE
  5
98
100
AcDbEntity
100
AcDbLine
  8
Top Layer
 62
256
370
-1
  6
ByLayer
 10
104.4177317993272993
 20
17.6369547623996752
 30
0.0
 11
100.1891150057907112
 21
16.0978641174341419
 31
0.0
  0
LINE
  5
99
100
AcDbEntity
100
AcDbLine
  8
Top Layer
 62
256
370
-1
  6
ByLayer
 10
95.7401013151290101
 20
8.2941167806193334
 30
0.0
 11
95.7401013151289249
 21
26.8595265712907008
 31
0.0
  0
LINE
  5
9A
100
AcDbEntity
100
AcDbLine
  8
Top Layer
 62
256
370
-1
  6
ByLayer
 10
98.9401013151289987
 20
18.0675988290355427
 30
0.0
 11
98.9401013151289987
 21
8.2941167806193334
 31
0.0
  0
LINE
  5
9B
100
AcDbEntity
100
AcDbLine
  8
Top Layer
 62
256
370
-1
  6
ByLayer
 10
98.9401013151285582
 20
74.1730377980173898
 30
0.0
 11
98.9401013151288282
 21
35.2941167806191629
 31
0.0
  0
CIRCLE
  5
9C
100
AcDbEntity
100
AcDbCircle
  8
Top Layer
 62
256
370
-1
  6
ByLayer
 10
88.7401013151289391
 20
24.8941167806191288
 30
0.0
 40
1.424999999999996
  0
CIRCLE
  5
9D
100
AcDbEntity
100
AcDbCircle
  8
Top Layer
 62
256
370
-1
  6
ByLayer
 10
80.7401013151290243
 20
24.8941167806190187
 30
0.0
 40
1.424999999999996
  0
CIRCLE
  5
9E
100
AcDbEntity
100
AcDbCircle
  8
Top Layer
 62
256
370
-1
  6
ByLayer
 10
80.7401013151289106
 20
32.6941167806190265
 30
0.0
 40
1.424999999999996
  0
CIRCLE
  5
9F
100
AcDbEntity
100
AcDbCircle
  8
Top Layer
 62
256
370
-1
  6
ByLayer
 10
88.7401013151289249
 20
32.6941167806190833
 30
0.0
 40
1.424999999999996
  0
LINE
  5
A0
100
AcDbEntity
100
AcDbLine
  8
Top Layer
 62
256
370
-1
  6
ByLayer
 10
75.9125870165460128
 20
59.406641389338354
 30
0.0
 11
82.9602816724403738
 21
61.9717924642808384
 31
0.0
  0
LINE
  5
A1
100
AcDbEntity
100
AcDbLine
  8
Top Layer
 62
256
370
-1
  6
ByLayer
 10
73.2966505841203997
 20
64.839585028058309
 30
0.0
 11
75.1435593580791164
 21
59.7652448758144601
 31
0.0
  0
LINE
  5
A2
100
AcDbEntity
100
AcDbLine
  8
Top Layer
 62
256
370
-1
  6
ByLayer
 10
60.0
 20
60.0
 30
0.0
 11
73.2966505841205134
 21
64.8395850280584227
 31
0.0
  0
LINE
  5
A3
100
AcDbEntity
100
AcDbLine
  8
Top Layer
 62
256
370
-1
  6
ByLayer
 10
66.912437185860739
 20
41.008234918449773
 30
0.0
 11
60.0
 21
60.0
 31
0.0
  0
LINE
  5
A4
100
AcDbEntity
100
AcDbLine
  8
Top Layer
 62
256
370
-1
  6
ByLayer
 10
72.3401013151292034
 20
8.2941167806193299
 30
0.0
 11
72.3401013151291892
 21
10.2264220191397115
 31
0.0
  0
LINE
  5
A5
100
AcDbEntity
100
AcDbLine
  8
Top Layer
 62
256
370
-1
  6
ByLayer
 10
95.7401013151290101
 20
8.2941167806193334
 30
0.0
 11
72.3401013151292034
 21
8.2941167806193299
 31
0.0
  0
LINE
  5
A6
100
AcDbEntity
100
AcDbLine
  8
Top Layer
 62
256
370
-1
  6
ByLayer
 10
65.6229528189405045
 20
55.6615208199222025
 30
0.0
 11
71.6369855919702303
 21
57.8504497372065316
 31
0.0
  0
LINE
  5
A7
100
AcDbEntity
100
AcDbLine
  8
Top Layer
 62
256
370
-1
  6
ByLayer
 10
72.4060132504370699
 20
57.4918462507303616
 30
0.0
 11
73.3636696517491487
 21
54.8607069125299063
 31
0.0
  0
LINE
  5
A8
100
AcDbEntity
100
AcDbLine
  8
Top Layer
 62
256
370
-1
  6
ByLayer
 10
73.0050661652729502
 20
54.0916792540629103
 30
0.0
 11
66.991033392243196
 21
51.9027503367784675
 31
0.0
  0
LINE
  5
A9
100
AcDbEntity
100
AcDbLine
  8
Top Layer
 62
256
370
-1
  6
ByLayer
 10
66.2220057337762427
 20
52.2613538232547512
 30
0.0
 11
65.2643493324642918
 21
54.892493161455107
 31
0.0
  0
LINE
  5
AA
100
AcDbEntity
100
AcDbLine
  8
Top Layer
 62
256
370
-1
  6
ByLayer
 10
85.1401013151290016
 20
19.6941167806190833
 30
0.0
 11
85.1401013151291153
 21
16.894116780619072
 31
0.0
  0
LINE
  5
AB
100
AcDbEntity
100
AcDbLine
  8
Top Layer
 62
256
370
-1
  6
ByLayer
 10
84.5401013151291068
 20
16.2941167806190528
 30
0.0
 11
78.1401013151290869
 21
16.2941167806189355
 31
0.0
  0
LINE
  5
AC
100
AcDbEntity
100
AcDbLine
  8
Top Layer
 62
256
370
-1
  6
ByLayer
 10
77.5401013151290925
 20
16.8941167806189654
 30
0.0
 11
77.5401013151290357
 21
19.6941167806190265
 31
0.0
  0
LINE
  5
AD
100
AcDbEntity
100
AcDbLine
  8
Top Layer
 62
256
370
-1
  6
ByLayer
 10
78.1401013151290016
 20
20.2941167806189391
 30
0.0
 11
84.5401013151290073
 21
20.2941167806189355
 31
0.0
  0
LINE
  5
AE
100
AcDbEntity
100
AcDbLine
  8
Top Layer
 62
256
370
-1
  6
ByLayer
 10
122.3401013151288907
 20
8.2941167806193228
 30
0.0
 11
98.9401013151289987
 21
8.2941167806193334
 31
0.0
  0
LINE
  5
AF
100
AcDbEntity
100
AcDbLine
  8
Top Layer
 62
256
370
-1
  6
ByLayer
 10
122.3401013151287771
 20
19.0427710545632678
 30
0.0
 11
122.3401013151288907
 21
8.2941167806193228
 31
0.0
  0
LINE
  5
B0
100
AcDbEntity
100
AcDbLine
  8
Top Layer
 62
256
370
-1
  6
ByLayer
 10
106.9846310392950102
 20
77.1010071662837504
 30
0.0
 11
116.9124371858603695
 21
49.8245839538733293
 31
0.0
  0
LINE
  5
B1
100
AcDbEntity
100
AcDbLine
  8
Top Layer
 62
256
370
-1
  6
ByLayer
 10
98.9401013151285582
 20
74.1730377980173898
 30
0.0
 11
106.9846310392950102
 21
77.1010071662837504
 31
0.0
  0
LINE
  5
B2
100
AcDbEntity
100
AcDbLine
  8
Top Layer
 62
256
370
-1
  6
ByLayer
 10
116.540101315128851
 20
16.2941167806193228
 30
0.0
 11
110.1401013151288879
 21
16.2941167806192659
 31
0.0
  0
LINE
  5
B3
100
AcDbEntity
100
AcDbLine
  8
Top Layer
 62
256
370
-1
  6
ByLayer
 10
109.5401013151288794
 20
16.8941167806192354
 30
0.0
 11
109.5401013151288225
 21
19.6941167806192468
 31
0.0
  0
LINE
  5
B4
100
AcDbEntity
100
AcDbLine
  8
Top Layer
 62
256
370
-1
  6
ByLayer
 10
110.1401013151288595
 20
20.2941167806192766
 30
0.0
 11
116.5401013151288225
 21
20.2941167806192624
 31
0.0
  0
LINE
  5
B5
100
AcDbEntity
100
AcDbLine
  8
Top Layer
 62
256
370
-1
  6
ByLayer
 10
117.1401013151288169
 20
19.6941167806192468
 30
0.0
 11
117.1401013151288453
 21
16.8941167806193562
 31
0.0
  0
LINE
  5
B6
100
AcDbEntity
100
AcDbLine
  8
Top Layer
 62
256
370
-1
  6
ByLayer
 10
100.0509400820686352
 20
64.5740789829789605
 30
0.0
 11
99.0932836807567412
 21
67.2052183211795864
 31
0.0
  0
LINE
  5
B7
100
AcDbEntity
100
AcDbLine
  8
Top Layer
 62
256
370
-1
  6
ByLayer
 10
99.4518871672329965
 20
67.9742459796465823
 30
0.0
 11
105.4659199402626655
 21
70.1631748969308546
 31
0.0
  0
LINE
  5
B8
100
AcDbEntity
100
AcDbLine
  8
Top Layer
 62
256
370
-1
  6
ByLayer
 10
106.2349475987296472
 20
69.8045714104546278
 30
0.0
 11
107.1926040000415128
 21
67.1734320722541725
 31
0.0
  0
LINE
  5
B9
100
AcDbEntity
100
AcDbLine
  8
Top Layer
 62
256
370
-1
  6
ByLayer
 10
106.8340005135652859
 20
66.4044044137872334
 30
0.0
 11
100.8199677405356027
 21
64.2154754965029042
 31
0.0
  0
ARC
  5
BA
100
AcDbEntity
  8
Top Layer
 62
256
370
-1
  6
ByLayer
100
AcDbCircle
 10
75.7073749305506851
 20
59.970456961809937
 30
0.0
 40
0.600000000000006
100
AcDbArc
 50
199.9999999999995737
 51
290.0000000000000568
  0
ARC
  5
BB
100
AcDbEntity
  8
Top Layer
 62
256
370
-1
  6
ByLayer
100
AcDbCircle
 10
71.8421976779656291
 20
57.2866341647350055
 30
0.0
 40
0.5999999999999791
100
AcDbArc
 50
20.0000000000006892
 51
110.0000000000033396
  0
ARC
  5
BC
100
AcDbEntity
  8
Top Layer
 62
256
370
-1
  6
ByLayer
100
AcDbCircle
 10
72.7998540792775088
 20
54.6554948265343228
 30
0.0
 40
0.599999999999983
100
AcDbArc
 50
290.0000000000000568
 51
20.0000000000032863
  0
ARC
  5
BD
100
AcDbEntity
  8
Top Layer
 62
256
370
-1
  6
ByLayer
100
AcDbCircle
 10
66.7858213062478114
 20
52.4665659092499936
 30
0.0
 40
0.599999999999974
100
AcDbArc
 50
199.9999999999969873
 51
290.0000000000000568
  0
ARC
  5
BE
100
AcDbEntity
  8
Top Layer
 62
256
370
-1
  6
ByLayer
100
AcDbCircle
 10
65.8281649049359032
 20
55.0977052474506763
 30
0.0
 40
0.600000000000009
100
AcDbArc
 50
110.0000000000018048
 51
199.9999999999990621
  0
ARC
  5
BF
100
AcDbEntity
  8
Top Layer
 62
256
370
-1
  6
ByLayer
100
AcDbCircle
 10
84.5401013151291068
 20
16.8941167806191324
 30
0.0
 40
0.599999999999999
100
AcDbArc
 50
270.0
 51
360.0
  0
ARC
  5
C0
100
AcDbEntity
  8
Top Layer
 62
256
370
-1
  6
ByLayer
100
AcDbCircle
 10
78.1401013151291011
 20
16.8941167806189654
 30
0.0
 40
0.5999999999999968
100
AcDbArc
 50
180.0
 51
270.0
  0
ARC
  5
C1
100
AcDbEntity
  8
Top Layer
 62
256
370
-1
  6
ByLayer
100
AcDbCircle
 10
78.1401013151289874
 20
19.6941167806189696
 30
0.0
 40
0.6000000000000034
100
AcDbArc
 50
90.0000000000017337
 51
180.0
  0
ARC
  5
C2
100
AcDbEntity
  8
Top Layer
 62
256
370
-1
  6
ByLayer
100
AcDbCircle
 10
84.5401013151289931
 20
19.6941167806190833
 30
0.0
 40
0.6000000000000013
100
AcDbArc
 50
360.0
 51
89.9999999999983231
  0
ARC
  5
C3
100
AcDbEntity
  8
Top Layer
 62
256
370
-1
  6
ByLayer
100
AcDbCircle
 10
110.1401013151288879
 20
16.8941167806192283
 30
0.0
 40
0.5999999999999968
100
AcDbArc
 50
180.0
 51
270.0
  0
ARC
  5
C4
100
AcDbEntity
  8
Top Layer
 62
256
370
-1
  6
ByLayer
100
AcDbCircle
 10
110.1401013151288737
 20
19.6941167806192539
 30
0.0
 40
0.6000000000000034
100
AcDbArc
 50
90.0000000000017337
 51
180.0
  0
ARC
  5
C5
100
AcDbEntity
  8
Top Layer
 62
256
370
-1
  6
ByLayer
100
AcDbCircle
 10
116.5401013151288225
 20
19.6941167806192574
 30
0.0
 40
0.599999999999999
100
AcDbArc
 50
360.0
 51
89.9999999999983231
  0
ARC
  5
C6
100
AcDbEntity
  8
Top Layer
 62
256
370
-1
  6
ByLayer
100
AcDbCircle
 10
116.5401013151288794
 20
16.8941167806193597
 30
0.0
 40
0.599999999999999
100
AcDbArc
 50
270.0
 51
360.0
  0
ARC
  5
C7
100
AcDbEntity
  8
Top Layer
 62
256
370
-1
  6
ByLayer
100
AcDbCircle
 10
99.6570992532282958
 20
67.4104304071749993
 30
0.0
 40
0.5999999999999952
100
AcDbArc
 50
110.0000000000002842
 51
200.0000000000001705
  0
ARC
  5
C8
100
AcDbEntity
  8
Top Layer
 62
256
370
-1
  6
ByLayer
100
AcDbCircle
 10
105.6711320262581921
 20
69.5993593244592716
 30
0.0
 40
0.5999999999999801
100
AcDbArc
 50
20.0000000000001812
 51
110.0000000000018048
  0
ARC
  5
C9
100
AcDbEntity
  8
Top Layer
 62
256
370
-1
  6
ByLayer
100
AcDbCircle
 10
106.6287884275699014
 20
66.9682199862587595
 30
0.0
 40
0.5999999999999871
100
AcDbArc
 50
290.0000000000000568
 51
20.0000000000001812
  0
ARC
  5
CA
100
AcDbEntity
  8
Top Layer
 62
256
370
-1
  6
ByLayer
100
AcDbCircle
 10
100.6147556545402466
 20
64.7792910689743735
 30
0.0
 40
0.5999999999999908
100
AcDbArc
 50
200.0000000000001421
 51
290.000000000001819
  0
ARC
  5
CB
100
AcDbEntity
  8
Top Layer
 62
256
370
-1
  6
ByLayer
100
AcDbCircle
 10
-17.6598986848700861
 20
10.2264220191383934
 30
0.0
 40
89.9999999999994458
100
AcDbArc
 50
360.0
 51
20.0000000000005862
  0
ARC
  5
CC
100
AcDbEntity
  8
Top Layer
 62
256
370
-1
  6
ByLayer
100
AcDbCircle
 10
32.3401013151300916
 20
19.0427710545625075
 30
0.0
 40
89.9999999999989058
100
AcDbArc
 50
360.0
 51
20.0000000000006892
  0
ENDSEC
  0
SECTION
  2
OBJECTS
  0
DICTIONARY
  5
C
100
AcDbDictionary
280
0
281
1
  3
ACAD_GROUP
350
D
  3
ACAD_LAYOUT
350
1A
  3
ACAD_MLINESTYLE
350
17
  3
ACAD_PLOTSETTINGS
350
19
  3
ACAD_PLOTSTYLENAME
350
E
  3
AcDbVariableDictionary
350
CD
  0
DICTIONARY
  5
D
100
AcDbDictionary
280
0
281
1
  0
ACDBDICTIONARYWDFLT
  5
E
100
AcDbDictionary
281
1
  3
Normal
350
F
100
AcDbDictionaryWithDefault
340
F
  0
ACDBPLACEHOLDER
  5
F
  0
DICTIONARY
  5
17
100
AcDbDictionary
280
0
281
1
  3
Standard
350
18
  0
MLINESTYLE
  5
18
100
AcDbMlineStyle
  2
STANDARD
 70
0
  3

 62
256
 51
90.0
 52
90.0
 71
2
 49
0.5
 62
256
  6
BYLAYER
 49
-0.5
 62
256
  6
BYLAYER
  0
DICTIONARY
  5
19
100
AcDbDictionary
280
0
281
1
  0
DICTIONARY
  5
1A
100
AcDbDictionary
281
1
  3
Layout1
350
1E
  3
Layout2
350
26
  3
Model
350
22
  0
LAYOUT
  5
1E
100
AcDbPlotSettings
  1

  2
C:\Program Files\AutoCAD 2002\plotters\DWF ePlot (optimized for plotting).pc3
  4

  6

 40
0.0
 41
0.0
 42
0.0
 43
0.0
 44
0.0
 45
0.0
 46
0.0
 47
0.0
 48
0.0
 49
0.0
140
0.0
141
0.0
142
1.0
143
1.0
 70
688
 72
0
 73
0
 74
5
  7

 75
16
147
1.0
148
0.0
149
0.0
100
AcDbLayout
  1
Layout1
 70
1
 71
1
 10
0.0
 20
0.0
 11
420.0
 21
297.0
 12
0.0
 22
0.0
 32
0.0
 14
100000000000000000000.0
 24
100000000000000000000.0
 34
100000000000000000000.0
 15
-100000000000000000000.0
 25
-100000000000000000000.0
 35
-100000000000000000000.0
146
0.0
 13
0.0
 23
0.0
 33
0.0
 16
1.0
 26
0.0
 36
0.0
 17
0.0
 27
1.0
 37
0.0
 76
0
330
1B
  0
LAYOUT
  5
22
100
AcDbPlotSettings
  1

  2
C:\Program Files\AutoCAD 2002\plotters\DWF ePlot (optimized for plotting).pc3
  4

  6

 40
0.0
 41
0.0
 42
0.0
 43
0.0
 44
0.0
 45
0.0
 46
0.0
 47
0.0
 48
0.0
 49
0.0
140
0.0
141
0.0
142
1.0
143
1.0
 70
1712
 72
0
 73
0
 74
0
  7

 75
0
147
1.0
148
0.0
149
0.0
100
AcDbLayout
  1
Model
 70
1
 71
0
 10
0.0
 20
0.0
 11
12.0
 21
9.0
 12
0.0
 22
0.0
 32
0.0
 14
0.0
 24
0.0
 34
0.0
 15
0.0
 25
0.0
 35
0.0
146
0.0
 13
0.0
 23
0.0
 33
0.0
 16
1.0
 26
0.0
 36
0.0
 17
0.0
 27
1.0
 37
0.0
 76
0
330
1F
  0
LAYOUT
  5
26
100
AcDbPlotSettings
  1

  2
C:\Program Files\AutoCAD 2002\plotters\DWF ePlot (optimized for plotting).pc3
  4

  6

 40
0.0
 41
0.0
 42
0.0
 43
0.0
 44
0.0
 45
0.0
 46
0.0
 47
0.0
 48
0.0
 49
0.0
140
0.0
141
0.0
142
1.0
143
1.0
 70
688
 72
0
 73
0
 74
5
  7

 75
16
147
1.0
148
0.0
149
0.0
100
AcDbLayout
  1
Layout2
 70
1
 71
2
 10
0.0
 20
0.0
 11
12.0
 21
9.0
 12
0.0
 22
0.0
 32
0.0
 14
0.0
 24
0.0
 34
0.0
 15
0.0
 25
0.0
 35
0.0
146
0.0
 13
0.0
 23
0.0
 33
0.0
 16
1.0
 26
0.0
 36
0.0
 17
0.0
 27
1.0
 37
0.0
 76
0
330
23
  0
DICTIONARY
  5
CD
100
AcDbDictionary
281
1
  3
DIMASSOC
350
CF
  3
HIDETEXT
350
CE
  0
DICTIONARYVAR
  5
CE
100
DictionaryVariables
280
0
  1
2
  0
DICTIONARYVAR
  5
CF
100
DictionaryVariables
280
0
  1
1
  0
ENDSEC
  0
EOF
