999
dxflib 2.2.0.0
  0
SECTION
  2
HEADER
  9
$ACADVER
  1
AC1015
  9
$HANDSEED
  5
FFFF
  9
$DIMASZ
 40
2.5
  9
$PLIMMIN
 10
0.0
 20
0.0
  9
$DIMEXE
 40
1.25
  9
$DIMGAP
 40
0.625
  9
$PLIMMAX
 10
210.0
 20
297.0
  9
$INSUNITS
 70
4
  9
$DIMSTYLE
  2
Standard
  9
$CLAYER
  8
0
  9
$DIMEXO
 40
0.625
  9
$DIMTXT
 40
2.5
  9
$CLAYER
  8
0
  0
ENDSEC
  0
SECTION
  2
TABLES
  0
TABLE
  2
VPORT
  5
8
100
AcDbSymbolTable
 70
1
  0
VPORT
  5
30
100
AcDbSymbolTableRecord
100
AcDbViewportTableRecord
  2
*Active
 70
0
 10
0.0
 20
0.0
 11
1.0
 21
1.0
 12
286.3055555555554861
 22
148.5
 13
0.0
 23
0.0
 14
10.0
 24
10.0
 15
10.0
 25
10.0
 16
0.0
 26
0.0
 36
1.0
 17
0.0
 27
0.0
 37
0.0
 40
297.0
 41
1.92798353909465
 42
50.0
 43
0.0
 44
0.0
 50
0.0
 51
0.0
 71
0
 72
100
 73
1
 74
3
 75
1
 76
1
 77
0
 78
0
281
0
 65
1
110
0.0
120
0.0
130
0.0
111
1.0
121
0.0
131
0.0
112
0.0
122
1.0
132
0.0
 79
0
146
0.0
  0
ENDTAB
  0
TABLE
  2
LTYPE
  5
5
100
AcDbSymbolTable
 70
21
  0
LTYPE
  5
14
100
AcDbSymbolTableRecord
100
AcDbLinetypeTableRecord
  2
ByBlock
 70
0
  3

 72
65
 73
0
 40
0.0
  0
LTYPE
  5
15
100
AcDbSymbolTableRecord
100
AcDbLinetypeTableRecord
  2
ByLayer
 70
0
  3

 72
65
 73
0
 40
0.0
  0
LTYPE
  5
16
100
AcDbSymbolTableRecord
100
AcDbLinetypeTableRecord
  2
CONTINUOUS
 70
0
  3
Solid line
 72
65
 73
0
 40
0.0
  0
LTYPE
  5
31
100
AcDbSymbolTableRecord
100
AcDbLinetypeTableRecord
  2
DOT
 70
0
  3
Dot . . . . . . . . . . . . . . . . . . . . . .
 72
65
 73
2
 40
6.3499999999999996
 49
0.0
 74
0
 49
-6.3499999999999996
 74
0
  0
LTYPE
  5
32
100
AcDbSymbolTableRecord
100
AcDbLinetypeTableRecord
  2
DOT2
 70
0
  3
Dot (.5x) .....................................
 72
65
 73
2
 40
3.1749999999999998
 49
0.0
 74
0
 49
-3.1749999999999998
 74
0
  0
LTYPE
  5
33
100
AcDbSymbolTableRecord
100
AcDbLinetypeTableRecord
  2
DOTX2
 70
0
  3
Dot (2x) .  .  .  .  .  .  .  .  .  .  .  .  .
 72
65
 73
2
 40
12.6999999999999993
 49
0.0
 74
0
 49
-12.6999999999999993
 74
0
  0
LTYPE
  5
34
100
AcDbSymbolTableRecord
100
AcDbLinetypeTableRecord
  2
DASHED
 70
0
  3
Dashed __ __ __ __ __ __ __ __ __ __ __ __ __ _
 72
65
 73
2
 40
19.0500000000000007
 49
12.6999999999999993
 74
0
 49
-6.3499999999999996
 74
0
  0
LTYPE
  5
35
100
AcDbSymbolTableRecord
100
AcDbLinetypeTableRecord
  2
DASHED2
 70
0
  3
Dashed (.5x) _ _ _ _ _ _ _ _ _ _ _ _ _ _ _ _ _
 72
65
 73
2
 40
9.5250000000000004
 49
6.3499999999999996
 74
0
 49
-3.1749999999999998
 74
0
  0
LTYPE
  5
36
100
AcDbSymbolTableRecord
100
AcDbLinetypeTableRecord
  2
DASHEDX2
 70
0
  3
Dashed (2x) ____  ____  ____  ____  ____  ___
 72
65
 73
2
 40
38.1000000000000014
 49
25.3999999999999986
 74
0
 49
-12.6999999999999993
 74
0
  0
LTYPE
  5
37
100
AcDbSymbolTableRecord
100
AcDbLinetypeTableRecord
  2
DASHDOT
 70
0
  3
Dash dot __ . __ . __ . __ . __ . __ . __ . __
 72
65
 73
4
 40
25.3999999999999986
 49
12.6999999999999993
 74
0
 49
-6.3499999999999996
 74
0
 49
0.0
 74
0
 49
-6.3499999999999996
 74
0
  0
LTYPE
  5
38
100
AcDbSymbolTableRecord
100
AcDbLinetypeTableRecord
  2
DASHDOT2
 70
0
  3
Dash dot (.5x) _._._._._._._._._._._._._._._.
 72
65
 73
4
 40
12.6999999999999993
 49
6.3499999999999996
 74
0
 49
-3.1749999999999998
 74
0
 49
0.0
 74
0
 49
-3.1749999999999998
 74
0
  0
LTYPE
  5
39
100
AcDbSymbolTableRecord
100
AcDbLinetypeTableRecord
  2
DASHDOTX2
 70
0
  3
Dash dot (2x) ____  .  ____  .  ____  .  ___
 72
65
 73
4
 40
50.7999999999999972
 49
25.3999999999999986
 74
0
 49
-12.6999999999999993
 74
0
 49
0.0
 74
0
 49
-12.6999999999999993
 74
0
  0
LTYPE
  5
3A
100
AcDbSymbolTableRecord
100
AcDbLinetypeTableRecord
  2
DIVIDE
 70
0
  3
Divide ____ . . ____ . . ____ . . ____ . . ____
 72
65
 73
6
 40
31.75
 49
12.6999999999999993
 74
0
 49
-6.3499999999999996
 74
0
 49
0.0
 74
0
 49
-6.3499999999999996
 74
0
 49
0.0
 74
0
 49
-6.3499999999999996
 74
0
  0
LTYPE
  5
3B
100
AcDbSymbolTableRecord
100
AcDbLinetypeTableRecord
  2
DIVIDE2
 70
0
  3
Divide (.5x) __..__..__..__..__..__..__..__.._
 72
65
 73
6
 40
15.875
 49
6.3499999999999996
 74
0
 49
-3.1749999999999998
 74
0
 49
0.0
 74
0
 49
-3.1749999999999998
 74
0
 49
0.0
 74
0
 49
-3.1749999999999998
 74
0
  0
LTYPE
  5
3C
100
AcDbSymbolTableRecord
100
AcDbLinetypeTableRecord
  2
DIVIDEX2
 70
0
  3
Divide (2x) ________  .  .  ________  .  .  _
 72
65
 73
6
 40
63.5
 49
25.3999999999999986
 74
0
 49
-12.6999999999999993
 74
0
 49
0.0
 74
0
 49
-12.6999999999999993
 74
0
 49
0.0
 74
0
 49
-12.6999999999999993
 74
0
  0
LTYPE
  5
3D
100
AcDbSymbolTableRecord
100
AcDbLinetypeTableRecord
  2
CENTER
 70
0
  3
Center ____ _ ____ _ ____ _ ____ _ ____ _ ____
 72
65
 73
4
 40
50.7999999999999972
 49
31.75
 74
0
 49
-6.3499999999999996
 74
0
 49
6.3499999999999996
 74
0
 49
-6.3499999999999996
 74
0
  0
LTYPE
  5
3E
100
AcDbSymbolTableRecord
100
AcDbLinetypeTableRecord
  2
CENTER2
 70
0
  3
Center (.5x) ___ _ ___ _ ___ _ ___ _ ___ _ ___
 72
65
 73
4
 40
28.5749999999999993
 49
19.0500000000000007
 74
0
 49
-3.1749999999999998
 74
0
 49
3.1749999999999998
 74
0
 49
-3.1749999999999998
 74
0
  0
LTYPE
  5
3F
100
AcDbSymbolTableRecord
100
AcDbLinetypeTableRecord
  2
CENTERX2
 70
0
  3
Center (2x) ________  __  ________  __  _____
 72
65
 73
4
 40
101.5999999999999943
 49
63.5
 74
0
 49
-12.6999999999999993
 74
0
 49
12.6999999999999993
 74
0
 49
-12.6999999999999993
 74
0
  0
LTYPE
  5
40
100
AcDbSymbolTableRecord
100
AcDbLinetypeTableRecord
  2
BORDER
 70
0
  3
Border __ __ . __ __ . __ __ . __ __ . __ __ .
 72
65
 73
6
 40
44.4500000000000028
 49
12.6999999999999993
 74
0
 49
-6.3499999999999996
 74
0
 49
12.6999999999999993
 74
0
 49
-6.3499999999999996
 74
0
 49
0.0
 74
0
 49
-6.3499999999999996
 74
0
  0
LTYPE
  5
41
100
AcDbSymbolTableRecord
100
AcDbLinetypeTableRecord
  2
BORDER2
 70
0
  3
Border (.5x) __.__.__.__.__.__.__.__.__.__.__.
 72
65
 73
6
 40
22.2250000000000014
 49
6.3499999999999996
 74
0
 49
-3.1749999999999998
 74
0
 49
6.3499999999999996
 74
0
 49
-3.1749999999999998
 74
0
 49
0.0
 74
0
 49
-3.1749999999999998
 74
0
  0
LTYPE
  5
42
100
AcDbSymbolTableRecord
100
AcDbLinetypeTableRecord
  2
BORDERX2
 70
0
  3
Border (2x) ____  ____  .  ____  ____  .  ___
 72
65
 73
6
 40
88.9000000000000057
 49
25.3999999999999986
 74
0
 49
-12.6999999999999993
 74
0
 49
25.3999999999999986
 74
0
 49
-12.6999999999999993
 74
0
 49
0.0
 74
0
 49
-12.6999999999999993
 74
0
  0
ENDTAB
  0
TABLE
  2
LAYER
  5
2
100
AcDbSymbolTable
 70
16
  0
LAYER
  5
10
100
AcDbSymbolTableRecord
100
AcDbLayerTableRecord
  2
0
 70
0
 62
7
420
16777215
  6
CONTINUOUS
370
0
390
F
  0
LAYER
  5
43
100
AcDbSymbolTableRecord
100
AcDbLayerTableRecord
  2
Bottom Layer
 70
0
 62
7
420
16777215
  6
CONTINUOUS
370
0
390
F
  0
LAYER
  5
44
100
AcDbSymbolTableRecord
100
AcDbLayerTableRecord
  2
Top
 70
0
 62
7
420
16777215
  6
CONTINUOUS
370
0
390
F
  0
LAYER
  5
45
100
AcDbSymbolTableRecord
100
AcDbLayerTableRecord
  2
Bottom
 70
0
 62
7
420
16777215
  6
CONTINUOUS
370
0
390
F
  0
LAYER
  5
46
100
AcDbSymbolTableRecord
100
AcDbLayerTableRecord
  2
Bottom Plate
 70
0
 62
7
420
16777215
  6
CONTINUOUS
370
0
390
F
  0
LAYER
  5
47
100
AcDbSymbolTableRecord
100
AcDbLayerTableRecord
  2
Bottom Text
 70
0
 62
4
420
65535
  6
CONTINUOUS
370
0
390
F
  0
LAYER
  5
48
100
AcDbSymbolTableRecord
100
AcDbLayerTableRecord
  2
Top Plate
 70
0
 62
7
420
16777215
  6
CONTINUOUS
370
0
390
F
  0
LAYER
  5
49
100
AcDbSymbolTableRecord
100
AcDbLayerTableRecord
  2
Top Text
 70
0
 62
4
420
65535
  6
CONTINUOUS
370
0
390
F
  0
LAYER
  5
4A
100
AcDbSymbolTableRecord
100
AcDbLayerTableRecord
  2
Notes
 70
0
 62
7
420
16777215
  6
CONTINUOUS
370
0
390
F
  0
LAYER
  5
4B
100
AcDbSymbolTableRecord
100
AcDbLayerTableRecord
  2
Text
 70
0
 62
4
420
65535
  6
CONTINUOUS
370
0
390
F
  0
LAYER
  5
4C
100
AcDbSymbolTableRecord
100
AcDbLayerTableRecord
  2
Spring Plate
 70
0
 62
7
420
16777215
  6
CONTINUOUS
370
0
390
F
  0
LAYER
  5
4D
100
AcDbSymbolTableRecord
100
AcDbLayerTableRecord
  2
Spring Plate Text
 70
0
 62
4
420
65535
  6
CONTINUOUS
370
0
390
F
  0
LAYER
  5
4E
100
AcDbSymbolTableRecord
100
AcDbLayerTableRecord
  2
Extruder Mount Plate
 70
0
 62
7
420
0
  6
CONTINUOUS
370
0
390
F
  0
LAYER
  5
4F
100
AcDbSymbolTableRecord
100
AcDbLayerTableRecord
  2
Extruder Mount Plate Text
 70
0
 62
4
420
65535
  6
CONTINUOUS
370
0
390
F
  0
LAYER
  5
50
100
AcDbSymbolTableRecord
100
AcDbLayerTableRecord
  2
Insulator Retainer
 70
0
 62
7
420
0
  6
CONTINUOUS
370
0
390
F
  0
LAYER
  5
51
100
AcDbSymbolTableRecord
100
AcDbLayerTableRecord
  2
Insulator Retainer Text
 70
0
 62
4
420
65535
  6
CONTINUOUS
370
0
390
F
  0
ENDTAB
  0
TABLE
  2
STYLE
  5
3
100
AcDbSymbolTable
 70
1
  0
STYLE
  5
11
100
AcDbSymbolTableRecord
100
AcDbTextStyleTableRecord
  2
Standard
 70
0
 40
0.0
 41
0.75
 50
0.0
 71
0
 42
2.5
  3
txt
  4

  0
ENDTAB
  0
TABLE
  2
VIEW
  5
6
100
AcDbSymbolTable
 70
0
  0
ENDTAB
  0
TABLE
  2
UCS
  5
7
100
AcDbSymbolTable
 70
0
  0
ENDTAB
  0
TABLE
  2
APPID
  5
9
100
AcDbSymbolTable
 70
1
  0
APPID
  5
12
100
AcDbSymbolTableRecord
100
AcDbRegAppTableRecord
  2
ACAD
 70
0
  0
ENDTAB
  0
TABLE
  2
DIMSTYLE
  5
A
100
AcDbSymbolTable
 70
1
100
AcDbDimStyleTable
 71
0
  0
DIMSTYLE
105
27
100
AcDbSymbolTableRecord
100
AcDbDimStyleTableRecord
  2
Standard
 41
2.5
 42
0.625
 43
3.75
 44
1.25
 70
0
 73
0
 74
0
 77
1
 78
8
140
2.5
141
2.5
143
0.03937007874016
147
0.625
171
3
172
1
271
2
272
2
274
3
278
44
283
0
284
8
340
11
  0
ENDTAB
  0
TABLE
  2
BLOCK_RECORD
  5
1
100
AcDbSymbolTable
 70
1
  0
BLOCK_RECORD
  5
1F
100
AcDbSymbolTableRecord
100
AcDbBlockTableRecord
  2
*Model_Space
340
22
  0
BLOCK_RECORD
  5
1B
100
AcDbSymbolTableRecord
100
AcDbBlockTableRecord
  2
*Paper_Space
340
1E
  0
BLOCK_RECORD
  5
23
100
AcDbSymbolTableRecord
100
AcDbBlockTableRecord
  2
*Paper_Space0
340
26
  0
ENDTAB
  0
ENDSEC
  0
SECTION
  2
BLOCKS
  0
BLOCK
  5
20
100
AcDbEntity
  8
0
100
AcDbBlockBegin
  2
*Model_Space
 70
0
 10
0.0
 20
0.0
 30
0.0
  3
*Model_Space
  1

  0
ENDBLK
  5
21
100
AcDbEntity
  8
0
100
AcDbBlockEnd
  0
BLOCK
  5
1C
100
AcDbEntity
 67
1
  8
0
100
AcDbBlockBegin
  2
*Paper_Space
 70
0
 10
0.0
 20
0.0
 30
0.0
  3
*Paper_Space
  1

  0
ENDBLK
  5
1D
100
AcDbEntity
 67
1
  8
0
100
AcDbBlockEnd
  0
BLOCK
  5
24
100
AcDbEntity
  8
0
100
AcDbBlockBegin
  2
*Paper_Space0
 70
0
 10
0.0
 20
0.0
 30
0.0
  3
*Paper_Space0
  1

  0
ENDBLK
  5
25
100
AcDbEntity
  8
0
100
AcDbBlockEnd
  0
ENDSEC
  0
SECTION
  2
ENTITIES
  0
ARC
  5
52
100
AcDbEntity
  8
Spring Plate
 62
256
370
-1
  6
ByLayer
100
AcDbCircle
 10
16.2499999999998295
 20
30.4999999999996092
 30
0.0
 40
5.0
100
AcDbArc
 50
90.0000000000009805
 51
180.0
  0
LINE
  5
53
100
AcDbEntity
100
AcDbLine
  8
Spring Plate
 62
256
370
-1
  6
ByLayer
 10
11.2500000000001386
 20
9.4999999999995577
 30
0.0
 11
11.249999999999833
 21
30.4999999999995524
 31
0.0
  0
ARC
  5
54
100
AcDbEntity
  8
Spring Plate
 62
256
370
-1
  6
ByLayer
100
AcDbCircle
 10
16.2500000000001386
 20
9.4999999999996163
 30
0.0
 40
5.0
100
AcDbArc
 50
180.0
 51
270.0000000000009663
  0
LINE
  5
55
100
AcDbEntity
100
AcDbLine
  8
Spring Plate
 62
256
370
-1
  6
ByLayer
 10
16.2500000000002238
 20
4.4999999999996252
 30
0.0
 11
63.7500000000002558
 21
4.5000000000003837
 31
0.0
  0
ARC
  5
56
100
AcDbEntity
  8
Spring Plate
 62
256
370
-1
  6
ByLayer
100
AcDbCircle
 10
63.7500000000001705
 20
9.5000000000003784
 30
0.0
 40
5.0
100
AcDbArc
 50
270.0000000000009663
 51
0.0
  0
LINE
  5
57
100
AcDbEntity
100
AcDbLine
  8
Spring Plate
 62
256
370
-1
  6
ByLayer
 10
16.2499999999997407
 20
35.4999999999996163
 30
0.0
 11
63.7499999999997442
 21
35.5000000000003837
 31
0.0
  0
LINE
  5
58
100
AcDbEntity
100
AcDbLine
  8
Spring Plate
 62
256
370
-1
  6
ByLayer
 10
68.7500000000001705
 20
9.5000000000004459
 30
0.0
 11
68.7499999999998295
 21
30.5000000000004547
 31
0.0
  0
ARC
  5
59
100
AcDbEntity
  8
Spring Plate
 62
256
370
-1
  6
ByLayer
100
AcDbCircle
 10
63.7499999999998295
 20
30.5000000000003837
 30
0.0
 40
5.0
100
AcDbArc
 50
0.0
 51
90.0000000000009805
  0
CIRCLE
  5
5A
100
AcDbEntity
100
AcDbCircle
  8
Spring Plate
 62
256
370
-1
  6
ByLayer
 10
58.7500000000000711
 20
14.500000000000302
 30
0.0
 40
1.4199999999999999
  0
CIRCLE
  5
5B
100
AcDbEntity
100
AcDbCircle
  8
Spring Plate
 62
256
370
-1
  6
ByLayer
 10
58.7499999999999005
 20
25.5000000000003055
 30
0.0
 40
1.4199999999999999
  0
MTEXT
  5
5C
100
AcDbEntity
100
AcDbMText
  8
Spring Plate Text
 62
256
370
-1
  6
ByLayer
 10
25.9098986848711661
 20
31.4959751993879777
 30
0.0
 40
3.0
 41
100.0
 71
5
 72
2
  1
Spring
  7
standard
 50
0.0
 73
0
 44
1.0
  0
MTEXT
  5
5D
100
AcDbEntity
100
AcDbMText
  8
Spring Plate Text
 62
256
370
-1
  6
ByLayer
 10
54.9098986848711661
 20
31.4959751993879706
 30
0.0
 40
3.0
 41
100.0
 71
5
 72
2
  1
Plate
  7
standard
 50
0.0
 73
0
 44
1.0
  0
ARC
  5
5E
100
AcDbEntity
  8
Spring Plate
 62
256
370
-1
  6
ByLayer
100
AcDbCircle
 10
34.3499999999999517
 20
30.9999999999999289
 30
0.0
 40
0.5
100
AcDbArc
 50
90.0000000000016342
 51
180.0
  0
LINE
  5
5F
100
AcDbEntity
100
AcDbLine
  8
Spring Plate
 62
256
370
-1
  6
ByLayer
 10
34.3499999999999375
 20
31.4999999999999289
 30
0.0
 11
41.3499999999999375
 21
31.5000000000000426
 31
0.0
  0
ARC
  5
60
100
AcDbEntity
  8
Spring Plate
 62
256
370
-1
  6
ByLayer
100
AcDbCircle
 10
41.3499999999999517
 20
31.0000000000000426
 30
0.0
 40
0.5
100
AcDbArc
 50
0.0
 51
90.0000000000016342
  0
LINE
  5
61
100
AcDbEntity
100
AcDbLine
  8
Spring Plate
 62
256
370
-1
  6
ByLayer
 10
41.8500000000002927
 20
9.0000000000000568
 30
0.0
 11
41.8499999999999517
 21
31.0000000000000568
 31
0.0
  0
ARC
  5
62
100
AcDbEntity
  8
Spring Plate
 62
256
370
-1
  6
ByLayer
100
AcDbCircle
 10
41.3500000000002856
 20
9.0000000000000426
 30
0.0
 40
0.5
100
AcDbArc
 50
270.0000000000016485
 51
0.0
  0
LINE
  5
63
100
AcDbEntity
100
AcDbLine
  8
Spring Plate
 62
256
370
-1
  6
ByLayer
 10
33.8500000000002927
 20
8.999999999999913
 30
0.0
 11
33.8499999999999517
 21
30.9999999999999147
 31
0.0
  0
LINE
  5
64
100
AcDbEntity
100
AcDbLine
  8
Spring Plate
 62
256
370
-1
  6
ByLayer
 10
34.3500000000003141
 20
8.4999999999999254
 30
0.0
 11
41.350000000000307
 21
8.5000000000000426
 31
0.0
  0
ARC
  5
65
100
AcDbEntity
  8
Spring Plate
 62
256
370
-1
  6
ByLayer
100
AcDbCircle
 10
34.3500000000002927
 20
8.9999999999999254
 30
0.0
 40
0.5
100
AcDbArc
 50
180.0
 51
270.0000000000016485
  0
CIRCLE
  5
66
100
AcDbEntity
100
AcDbCircle
  8
Spring Plate
 62
256
370
-1
  6
ByLayer
 10
18.8500000000000085
 20
25.4999999999996767
 30
0.0
 40
1.4199999999999999
  0
CIRCLE
  5
67
100
AcDbEntity
100
AcDbCircle
  8
Spring Plate
 62
256
370
-1
  6
ByLayer
 10
18.8500000000001791
 20
14.4999999999996803
 30
0.0
 40
1.4199999999999999
  0
CIRCLE
  5
68
100
AcDbEntity
100
AcDbCircle
  8
0
 62
256
370
-1
  6
ByLayer
 10
75.0
 20
32.0
 30
0.0
 40
1.5
  0
CIRCLE
  5
69
100
AcDbEntity
100
AcDbCircle
  8
0
 62
256
370
-1
  6
ByLayer
 10
75.0
 20
32.0
 30
0.0
 40
4.0
  0
CIRCLE
  5
6A
100
AcDbEntity
100
AcDbCircle
  8
0
 62
256
370
-1
  6
ByLayer
 10
75.0
 20
24.0
 30
0.0
 40
1.5
  0
CIRCLE
  5
6B
100
AcDbEntity
100
AcDbCircle
  8
0
 62
256
370
-1
  6
ByLayer
 10
75.0
 20
24.0
 30
0.0
 40
4.0
  0
CIRCLE
  5
6C
100
AcDbEntity
100
AcDbCircle
  8
0
 62
256
370
-1
  6
ByLayer
 10
75.0
 20
16.0
 30
0.0
 40
1.5
  0
CIRCLE
  5
6D
100
AcDbEntity
100
AcDbCircle
  8
0
 62
256
370
-1
  6
ByLayer
 10
75.0
 20
16.0
 30
0.0
 40
4.0
  0
CIRCLE
  5
6E
100
AcDbEntity
100
AcDbCircle
  8
0
 62
256
370
-1
  6
ByLayer
 10
75.0
 20
8.0
 30
0.0
 40
1.5
  0
CIRCLE
  5
6F
100
AcDbEntity
100
AcDbCircle
  8
0
 62
256
370
-1
  6
ByLayer
 10
75.0
 20
8.0
 30
0.0
 40
4.0
  0
CIRCLE
  5
70
100
AcDbEntity
100
AcDbCircle
  8
Bottom Plate
 62
256
370
-1
  6
ByLayer
 10
92.5502538732046531
 20
8.3336689813458982
 30
0.0
 40
2.4249999999999998
  0
CIRCLE
  5
71
100
AcDbEntity
100
AcDbCircle
  8
Bottom Plate
 62
256
370
-1
  6
ByLayer
 10
99.4497461267954321
 20
43.6663310186541054
 30
0.0
 40
2.4249999999999998
  0
LINE
  5
72
100
AcDbEntity
100
AcDbLine
  8
Bottom Plate
 62
256
370
-1
  6
ByLayer
 10
97.2778531000075617
 20
3.9827575192803906
 30
0.0
 11
107.6626377812959703
 21
15.2666230857996528
 31
0.0
  0
ARC
  5
73
100
AcDbEntity
  8
Bottom Plate
 62
256
370
-1
  6
ByLayer
100
AcDbCircle
 10
96.0000000000000853
 20
26.0
 30
0.0
 40
15.8499999999999996
100
AcDbArc
 50
317.3759674952219143
 51
20.5255493212028064
  0
LINE
  5
74
100
AcDbEntity
100
AcDbLine
  8
Bottom Plate
 62
256
370
-1
  6
ByLayer
 10
110.8437775179255738
 20
31.557406679228162
 30
0.0
 11
105.4668609881626367
 21
45.9190968176471728
 31
0.0
  0
ARC
  5
75
100
AcDbEntity
  8
Bottom Plate
 62
256
370
-1
  6
ByLayer
100
AcDbCircle
 10
99.4497461267954321
 20
43.6663310186541054
 30
0.0
 40
6.424999999999998
100
AcDbArc
 50
20.5255493212025897
 51
137.3759674952218575
  0
LINE
  5
76
100
AcDbEntity
100
AcDbLine
  8
Bottom Plate
 62
256
370
-1
  6
ByLayer
 10
94.722146899992552
 20
48.0172424807195029
 30
0.0
 11
84.3373622187040723
 21
36.733376914200278
 31
0.0
  0
ARC
  5
77
100
AcDbEntity
  8
Bottom Plate
 62
256
370
-1
  6
ByLayer
100
AcDbCircle
 10
96.0000000000000853
 20
26.0
 30
0.0
 40
15.8499999999999996
100
AcDbArc
 50
137.3759674952218575
 51
200.5255493212027318
  0
LINE
  5
78
100
AcDbEntity
100
AcDbLine
  8
Bottom Plate
 62
256
370
-1
  6
ByLayer
 10
81.1562224820745541
 20
20.4425933207717598
 30
0.0
 11
86.5331390118374202
 21
6.0809031823526993
 31
0.0
  0
ARC
  5
79
100
AcDbEntity
  8
Bottom Plate
 62
256
370
-1
  6
ByLayer
100
AcDbCircle
 10
92.5502538732046531
 20
8.3336689813458982
 30
0.0
 40
6.4249999999999998
100
AcDbArc
 50
200.5255493212027886
 51
317.3759674952219143
  0
CIRCLE
  5
7A
100
AcDbEntity
100
AcDbCircle
  8
Bottom Plate
 62
256
370
-1
  6
ByLayer
 10
96.0000000000000853
 20
26.0
 30
0.0
 40
11.0500000000000007
  0
MTEXT
  5
7B
100
AcDbEntity
100
AcDbMText
  8
Bottom Text
 62
256
370
-1
  6
ByLayer
 10
99.1493447463308399
 20
40.1910918673984128
 30
0.0
 40
2.0
 41
100.0
 71
3
 72
2
  1
Bottom
  7
standard
 50
337.9015168164245893
 73
0
 44
1.0
  0
ELLIPSE
  5
7C
100
AcDbEntity
100
AcDbEllipse
  8
Bottom Plate
 62
256
370
-1
  6
ByLayer
 10
103.7882974838446728
 20
44.2005654932663248
 30
0.0
 11
1.581862599522007
 21
4.8018299037249772
 31
0.0
 40
0.5482072711802527
 41
0.0
 42
6.2831853071795862
  0
CIRCLE
  5
7D
100
AcDbEntity
100
AcDbCircle
  8
Top Plate
 62
256
370
-1
  6
ByLayer
 10
124.8413393524610484
 20
7.6320863633202087
 30
0.0
 40
2.4249999999999998
  0
CIRCLE
  5
7E
100
AcDbEntity
100
AcDbCircle
  8
Top Plate
 62
256
370
-1
  6
ByLayer
 10
131.7408316060518416
 20
42.9647484006284159
 30
0.0
 40
2.4249999999999998
  0
LINE
  5
7F
100
AcDbEntity
100
AcDbLine
  8
Top Plate
 62
256
370
-1
  6
ByLayer
 10
129.5689385792639712
 20
3.2811749012547011
 30
0.0
 11
139.9537232605523513
 21
14.5650404677739633
 31
0.0
  0
ARC
  5
80
100
AcDbEntity
  8
Top Plate
 62
256
370
-1
  6
ByLayer
100
AcDbCircle
 10
128.2910854792564805
 20
25.2984173819743106
 30
0.0
 40
15.8499999999999996
100
AcDbArc
 50
317.3759674952219143
 51
20.5255493212028064
  0
LINE
  5
81
100
AcDbEntity
100
AcDbLine
  8
Top Plate
 62
256
370
-1
  6
ByLayer
 10
143.1348629971819832
 20
30.8558240612024726
 30
0.0
 11
137.7579464674190319
 21
45.2175141996214833
 31
0.0
  0
ARC
  5
82
100
AcDbEntity
  8
Top Plate
 62
256
370
-1
  6
ByLayer
100
AcDbCircle
 10
131.7408316060518416
 20
42.9647484006284159
 30
0.0
 40
6.424999999999998
100
AcDbArc
 50
20.5255493212025897
 51
137.3759674952218575
  0
LINE
  5
83
100
AcDbEntity
100
AcDbLine
  8
Top Plate
 62
256
370
-1
  6
ByLayer
 10
127.0132323792489473
 20
47.3156598626938134
 30
0.0
 11
116.6284476979604676
 21
36.0317942961745885
 31
0.0
  0
ARC
  5
84
100
AcDbEntity
  8
Top Plate
 62
256
370
-1
  6
ByLayer
100
AcDbCircle
 10
128.2910854792564805
 20
25.2984173819743106
 30
0.0
 40
15.8499999999999996
100
AcDbArc
 50
137.3759674952218575
 51
200.5255493212027318
  0
LINE
  5
85
100
AcDbEntity
100
AcDbLine
  8
Top Plate
 62
256
370
-1
  6
ByLayer
 10
113.4473079613309494
 20
19.7410107027460704
 30
0.0
 11
118.8242244910937728
 21
5.3793205643270312
 31
0.0
  0
ARC
  5
86
100
AcDbEntity
  8
Top Plate
 62
256
370
-1
  6
ByLayer
100
AcDbCircle
 10
124.8413393524610484
 20
7.6320863633202087
 30
0.0
 40
6.4249999999999998
100
AcDbArc
 50
200.5255493212027886
 51
317.3759674952219143
  0
CIRCLE
  5
87
100
AcDbEntity
100
AcDbCircle
  8
Top Plate
 62
256
370
-1
  6
ByLayer
 10
128.2910854792564805
 20
25.2984173819743106
 30
0.0
 40
5.0
  0
MTEXT
  5
88
100
AcDbEntity
100
AcDbMText
  8
Top Text
 62
256
370
-1
  6
ByLayer
 10
128.9945098629187896
 20
38.4864497527929004
 30
0.0
 40
2.0
 41
100.0
 71
3
 72
2
  1
Top
  7
standard
 50
337.9015168164245893
 73
1
 44
1.0
  0
ELLIPSE
  5
89
100
AcDbEntity
100
AcDbEllipse
  8
Top Plate
 62
256
370
-1
  6
ByLayer
 10
136.1152554513000439
 20
45.0663771545249787
 30
0.0
 11
0.7666102503989688
 21
3.9258513374786901
 31
0.0
 40
0.4500000000000001
 41
0.0
 42
6.2831853071795862
  0
ARC
  5
8A
100
AcDbEntity
  8
0
 62
256
370
-1
  6
ByLayer
100
AcDbCircle
 10
166.5000299783714297
 20
22.279218997997706
 30
0.0
 40
18.7500000000019398
100
AcDbArc
 50
146.6503120789178922
 51
148.9003120789176933
  0
ARC
  5
8B
100
AcDbEntity
  8
0
 62
256
370
-1
  6
ByLayer
100
AcDbCircle
 10
147.1883711834452129
 20
21.2890174580317044
 30
0.0
 40
11.1608015372597205
100
AcDbArc
 50
73.0349136620844206
 51
85.2819739417273013
  0
ARC
  5
8C
100
AcDbEntity
  8
0
 62
256
370
-1
  6
ByLayer
100
AcDbCircle
 10
159.0641133615440594
 20
40.1293676967887052
 30
0.0
 40
11.1608015372601503
100
AcDbArc
 50
210.2686502161085969
 51
222.5157104957509944
  0
ARC
  5
8D
100
AcDbEntity
  8
0
 62
256
370
-1
  6
ByLayer
100
AcDbCircle
 10
166.5000299783698665
 20
22.279218997997706
 30
0.0
 40
18.7500000000003517
100
AcDbArc
 50
155.650312078917807
 51
157.9003120789174091
  0
ARC
  5
8E
100
AcDbEntity
  8
0
 62
256
370
-1
  6
ByLayer
100
AcDbCircle
 10
147.5810313972578456
 20
18.2801994695107162
 30
0.0
 40
11.1608015372594895
100
AcDbArc
 50
82.0349136620843211
 51
94.2819739417273865
  0
ARC
  5
8F
100
AcDbEntity
  8
0
 62
256
370
-1
  6
ByLayer
100
AcDbCircle
 10
156.3632833717094002
 20
38.7463691076462169
 30
0.0
 40
11.1608015372600704
100
AcDbArc
 50
219.2686502161085969
 51
231.5157104957509091
  0
ARC
  5
90
100
AcDbEntity
  8
0
 62
256
370
-1
  6
ByLayer
100
AcDbCircle
 10
166.5000299783779383
 20
22.279218997997706
 30
0.0
 40
18.7500000000084484
100
AcDbArc
 50
164.6503120789184038
 51
166.9003120789174943
  0
ARC
  5
91
100
AcDbEntity
  8
0
 62
256
370
-1
  6
ByLayer
100
AcDbCircle
 10
148.4395401446938649
 20
15.3698506137656246
 30
0.0
 40
11.1608015372596103
100
AcDbArc
 50
91.0349136620844064
 51
103.2819739417274008
  0
ARC
  5
92
100
AcDbEntity
  8
0
 62
256
370
-1
  6
ByLayer
100
AcDbCircle
 10
153.9120537252638599
 20
36.9578946314660257
 30
0.0
 40
11.1608015372599105
100
AcDbArc
 50
228.2686502161085116
 51
240.5157104957511081
  0
ARC
  5
93
100
AcDbEntity
  8
0
 62
256
370
-1
  6
ByLayer
100
AcDbCircle
 10
166.5000299783734761
 20
22.279218997997706
 30
0.0
 40
18.7500000000039897
100
AcDbArc
 50
173.6503120789180912
 51
175.900312078917807
  0
ARC
  5
94
100
AcDbEntity
  8
0
 62
256
370
-1
  6
ByLayer
100
AcDbCircle
 10
149.7427580911644327
 20
12.629633338518925
 30
0.0
 40
11.1608015372602001
100
AcDbArc
 50
100.0349136620847048
 51
112.2819739417270029
  0
ARC
  5
95
100
AcDbEntity
  8
0
 62
256
370
-1
  6
ByLayer
100
AcDbCircle
 10
151.7707818312679819
 20
34.807982445458812
 30
0.0
 40
11.1608015372601503
100
AcDbArc
 50
237.2686502161086253
 51
249.5157104957509091
  0
ARC
  5
96
100
AcDbEntity
  8
0
 62
256
370
-1
  6
ByLayer
100
AcDbCircle
 10
166.5000299783730497
 20
22.279218997997706
 30
0.0
 40
18.7499999999964189
100
AcDbArc
 50
182.6503120789172954
 51
184.9003120789176933
  0
ARC
  5
97
100
AcDbEntity
  8
0
 62
256
370
-1
  6
ByLayer
100
AcDbCircle
 10
151.4585956856946325
 20
10.1270208873483298
 30
0.0
 40
11.1608015372597205
100
AcDbArc
 50
109.0349136620844064
 51
121.2819739417272018
  0
ARC
  5
98
100
AcDbEntity
  8
0
 62
256
370
-1
  6
ByLayer
100
AcDbCircle
 10
149.9921929102256399
 20
32.3495705227930159
 30
0.0
 40
11.1608015372601805
100
AcDbArc
 50
246.2686502161087105
 51
258.5157104957509091
  0
ARC
  5
99
100
AcDbEntity
  8
0
 62
256
370
-1
  6
ByLayer
100
AcDbCircle
 10
166.5000299783704349
 20
22.279218997997706
 30
0.0
 40
18.7499999999990514
100
AcDbArc
 50
191.6503120789176933
 51
193.9003120789180059
  0
ARC
  5
9A
100
AcDbEntity
  8
0
 62
256
370
-1
  6
ByLayer
100
AcDbCircle
 10
153.5448033121691367
 20
7.9236358844944235
 30
0.0
 40
11.1608015372599105
100
AcDbArc
 50
118.0349136620845201
 51
130.2819739417271023
  0
ARC
  5
9B
100
AcDbEntity
  8
0
 62
256
370
-1
  6
ByLayer
100
AcDbCircle
 10
148.6200817241711434
 20
29.6431931240058297
 30
0.0
 40
11.1608015372598803
100
AcDbArc
 50
255.2686502161084263
 51
267.5157104957510228
  0
ARC
  5
9C
100
AcDbEntity
  8
0
 62
256
370
-1
  6
ByLayer
100
AcDbCircle
 10
166.5000299783731919
 20
22.279218997997706
 30
0.0
 40
18.7500000000036593
100
AcDbArc
 50
200.6503120789180059
 51
202.9003120789174091
  0
ARC
  5
9D
100
AcDbEntity
  8
0
 62
256
370
-1
  6
ByLayer
100
AcDbCircle
 10
155.9500116150977078
 20
6.0737329813440226
 30
0.0
 40
11.1608015372600207
100
AcDbArc
 50
127.0349136620846195
 51
139.2819739417271023
  0
ARC
  5
9E
100
AcDbEntity
  8
0
 62
256
370
-1
  6
ByLayer
100
AcDbCircle
 10
147.6882342042811729
 20
26.7554902426077206
 30
0.0
 40
11.1608015372599692
100
AcDbArc
 50
264.2686502161084832
 51
276.5157104957510796
  0
ARC
  5
9F
100
AcDbEntity
  8
0
 62
256
370
-1
  6
ByLayer
100
AcDbCircle
 10
166.500029978378393
 20
22.279218997997706
 30
0.0
 40
18.7499999999910898
100
AcDbArc
 50
209.6503120789172101
 51
211.9003120789180059
  0
ARC
  5
A0
100
AcDbEntity
  8
0
 62
256
370
-1
  6
ByLayer
100
AcDbCircle
 10
158.6149963836334962
 20
4.6228629268483132
 30
0.0
 40
11.1608015372599993
100
AcDbArc
 50
136.0349136620847048
 51
148.2819739417271876
  0
ARC
  5
A1
100
AcDbEntity
  8
0
 62
256
370
-1
  6
ByLayer
100
AcDbCircle
 10
147.2195955291200562
 20
23.7575667072746981
 30
0.0
 40
11.1608015372599194
100
AcDbArc
 50
273.2686502161084832
 51
285.5157104957510796
  0
ARC
  5
A2
100
AcDbEntity
  8
0
 62
256
370
-1
  6
ByLayer
100
AcDbCircle
 10
166.5000299783810362
 20
22.279218997997706
 30
0.0
 40
18.7500000000115108
100
AcDbArc
 50
218.6503120789184038
 51
220.9003120789172101
  0
ARC
  5
A3
100
AcDbEntity
  8
0
 62
256
370
-1
  6
ByLayer
100
AcDbCircle
 10
161.4741368481978157
 20
3.6067509569105063
 30
0.0
 40
11.1608015372599496
100
AcDbArc
 50
145.0349136620843922
 51
157.2819739417269886
  0
ARC
  5
A4
100
AcDbEntity
  8
0
 62
256
370
-1
  6
ByLayer
100
AcDbCircle
 10
147.2257051381928079
 20
20.7232413449844195
 30
0.0
 40
11.1608015372598306
100
AcDbArc
 50
282.2686502161084832
 51
294.5157104957511933
  0
ARC
  5
A5
100
AcDbEntity
  8
0
 62
256
370
-1
  6
ByLayer
100
AcDbCircle
 10
166.5000299783752382
 20
22.279218997997706
 30
0.0
 40
18.7500000000057483
100
AcDbArc
 50
227.6503120789182901
 51
229.9003120789174091
  0
ARC
  5
A6
100
AcDbEntity
  8
0
 62
256
370
-1
  6
ByLayer
100
AcDbCircle
 10
164.4570314816099312
 20
3.0504171205128117
 30
0.0
 40
11.1608015372598697
100
AcDbArc
 50
154.0349136620847048
 51
166.2819739417273013
  0
ARC
  5
A7
100
AcDbEntity
  8
0
 62
256
370
-1
  6
ByLayer
100
AcDbCircle
 10
147.7064125926474105
 20
17.7272293165053263
 30
0.0
 40
11.1608015372598697
100
AcDbArc
 50
291.2686502161084263
 51
303.5157104957510796
  0
ARC
  5
A8
100
AcDbEntity
  8
0
 62
256
370
-1
  6
ByLayer
100
AcDbCircle
 10
166.5000299783714297
 20
22.279218997997706
 30
0.0
 40
18.7500000000019398
100
AcDbArc
 50
236.6503120789179206
 51
238.900312078917608
  0
ARC
  5
A9
100
AcDbEntity
  8
0
 62
256
370
-1
  6
ByLayer
100
AcDbCircle
 10
167.4902315183354631
 20
2.9675602030734183
 30
0.0
 40
11.1608015372597205
100
AcDbArc
 50
163.0349136620845059
 51
175.2819739417273013
  0
ARC
  5
AA
100
AcDbEntity
  8
0
 62
256
370
-1
  6
ByLayer
100
AcDbCircle
 10
148.6498812795784659
 20
14.8433023811723324
 30
0.0
 40
11.1608015372601503
100
AcDbArc
 50
300.2686502161087105
 51
312.5157104957510796
  0
ARC
  5
AB
100
AcDbEntity
  8
0
 62
256
370
-1
  6
ByLayer
100
AcDbCircle
 10
166.5000299783710602
 20
22.279218997997706
 30
0.0
 40
18.750000000001581
100
AcDbArc
 50
245.650312078917807
 51
247.9003120789177217
  0
ARC
  5
AC
100
AcDbEntity
  8
0
 62
256
370
-1
  6
ByLayer
100
AcDbCircle
 10
170.4990495068572329
 20
3.3602204168860226
 30
0.0
 40
11.1608015372602498
100
AcDbArc
 50
172.0349136620847048
 51
184.2819739417269034
  0
ARC
  5
AD
100
AcDbEntity
  8
0
 62
256
370
-1
  6
ByLayer
100
AcDbCircle
 10
150.0328798687211247
 20
12.1424723913375292
 30
0.0
 40
11.1608015372599603
100
AcDbArc
 50
309.2686502161085969
 51
321.5157104957509091
  0
ARC
  5
AE
100
AcDbEntity
  8
0
 62
256
370
-1
  6
ByLayer
100
AcDbCircle
 10
166.5000299783779667
 20
22.279218997997706
 30
0.0
 40
18.7500000000084484
100
AcDbArc
 50
254.6503120789184607
 51
256.9003120789175227
  0
ARC
  5
AF
100
AcDbEntity
  8
0
 62
256
370
-1
  6
ByLayer
100
AcDbCircle
 10
173.4093983626017348
 20
4.2187291643221307
 30
0.0
 40
11.1608015372597809
100
AcDbArc
 50
181.0349136620843069
 51
193.2819739417271876
  0
ARC
  5
B0
100
AcDbEntity
  8
0
 62
256
370
-1
  6
ByLayer
100
AcDbCircle
 10
151.821354344901124
 20
9.6912427448921239
 30
0.0
 40
11.1608015372599496
100
AcDbArc
 50
318.2686502161084832
 51
330.5157104957510228
  0
ARC
  5
B1
100
AcDbEntity
  8
0
 62
256
370
-1
  6
ByLayer
100
AcDbCircle
 10
166.5000299783699234
 20
22.279218997997706
 30
0.0
 40
18.7500000000003411
100
AcDbArc
 50
263.650312078917807
 51
265.9003120789179206
  0
ARC
  5
B2
100
AcDbEntity
  8
0
 62
256
370
-1
  6
ByLayer
100
AcDbCircle
 10
176.1496156378484841
 20
5.5219471107927234
 30
0.0
 40
11.1608015372603795
100
AcDbArc
 50
190.0349136620849038
 51
202.2819739417269886
  0
ARC
  5
B3
100
AcDbEntity
  8
0
 62
256
370
-1
  6
ByLayer
100
AcDbCircle
 10
153.9712665309085082
 20
7.5499708508961056
 30
0.0
 40
11.1608015372599905
100
AcDbArc
 50
327.2686502161084832
 51
339.5157104957510796
  0
ARC
  5
B4
100
AcDbEntity
  8
0
 62
256
370
-1
  6
ByLayer
100
AcDbCircle
 10
166.5000299783702076
 20
22.279218997997706
 30
0.0
 40
18.7500000000007105
100
AcDbArc
 50
272.650312078917807
 51
274.9003120789175227
  0
ARC
  5
B5
100
AcDbEntity
  8
0
 62
256
370
-1
  6
ByLayer
100
AcDbCircle
 10
178.6522280890191894
 20
7.237784705323012
 30
0.0
 40
11.1608015372599993
100
AcDbArc
 50
199.0349136620845911
 51
211.2819739417271876
  0
ARC
  5
B6
100
AcDbEntity
  8
0
 62
256
370
-1
  6
ByLayer
100
AcDbCircle
 10
156.4296784535745246
 20
5.7713819298537103
 30
0.0
 40
11.1608015372598199
100
AcDbArc
 50
336.2686502161084263
 51
348.5157104957510796
  0
ARC
  5
B7
100
AcDbEntity
  8
0
 62
256
370
-1
  6
ByLayer
100
AcDbCircle
 10
166.5000299783716571
 20
22.279218997997706
 30
0.0
 40
18.7500000000021387
100
AcDbArc
 50
281.6503120789179206
 51
283.9003120789175227
  0
ARC
  5
B8
100
AcDbEntity
  8
0
 62
256
370
-1
  6
ByLayer
100
AcDbCircle
 10
180.8556130918727547
 20
9.3239923317973137
 30
0.0
 40
11.1608015372599105
100
AcDbArc
 50
208.0349136620845059
 51
220.2819739417271876
  0
ARC
  5
B9
100
AcDbEntity
  8
0
 62
256
370
-1
  6
ByLayer
100
AcDbCircle
 10
159.1360558523611246
 20
4.3992707437994127
 30
0.0
 40
11.1608015372601397
100
AcDbArc
 50
345.2686502161084832
 51
357.5157104957510796
  0
ARC
  5
BA
100
AcDbEntity
  8
0
 62
256
370
-1
  6
ByLayer
100
AcDbCircle
 10
166.5000299783731634
 20
22.279218997997706
 30
0.0
 40
18.7500000000036593
100
AcDbArc
 50
290.6503120789179775
 51
292.9003120789175796
  0
ARC
  5
BB
100
AcDbEntity
  8
0
 62
256
370
-1
  6
ByLayer
100
AcDbCircle
 10
182.7055159950231769
 20
11.7292006347259132
 30
0.0
 40
11.1608015372599905
100
AcDbArc
 50
217.0349136620845911
 51
229.2819739417271023
  0
ARC
  5
BC
100
AcDbEntity
  8
0
 62
256
370
-1
  6
ByLayer
100
AcDbCircle
 10
162.0237587337596779
 20
3.4674232239094103
 30
0.0
 40
11.1608015372597595
100
AcDbArc
 50
354.2686502161084263
 51
6.515710495751029
  0
ARC
  5
BD
100
AcDbEntity
  8
0
 62
256
370
-1
  6
ByLayer
100
AcDbCircle
 10
166.5000299783783646
 20
22.279218997997706
 30
0.0
 40
18.7499999999910898
100
AcDbArc
 50
299.6503120789171817
 51
301.9003120789182049
  0
ARC
  5
BE
100
AcDbEntity
  8
0
 62
256
370
-1
  6
ByLayer
100
AcDbCircle
 10
184.1563860495188862
 20
14.3941854032616909
 30
0.0
 40
11.1608015372599798
100
AcDbArc
 50
226.0349136620845059
 51
238.2819739417271023
  0
ARC
  5
BF
100
AcDbEntity
  8
0
 62
256
370
-1
  6
ByLayer
100
AcDbCircle
 10
165.0216822690925369
 20
2.998784548748322
 30
0.0
 40
11.1608015372599105
100
AcDbArc
 50
3.2686502161085809
 51
15.5157104957511276
  0
ARC
  5
C0
100
AcDbEntity
  8
0
 62
256
370
-1
  6
ByLayer
100
AcDbCircle
 10
166.500029978380951
 20
22.279218997997706
 30
0.0
 40
18.7500000000114504
100
AcDbArc
 50
308.6503120789184891
 51
310.9003120789171817
  0
ARC
  5
C1
100
AcDbEntity
  8
0
 62
256
370
-1
  6
ByLayer
100
AcDbCircle
 10
185.1724980194566967
 20
17.2533258678260282
 30
0.0
 40
11.1608015372599603
100
AcDbArc
 50
235.0349136620846195
 51
247.2819739417270171
  0
ARC
  5
C2
100
AcDbEntity
  8
0
 62
256
370
-1
  6
ByLayer
100
AcDbCircle
 10
168.0560076313829541
 20
3.0048941578211306
 30
0.0
 40
11.1608015372596494
100
AcDbArc
 50
12.2686502161083695
 51
24.5157104957512111
  0
ARC
  5
C3
100
AcDbEntity
  8
0
 62
256
370
-1
  6
ByLayer
100
AcDbCircle
 10
166.5000299783752666
 20
22.279218997997706
 30
0.0
 40
18.7500000000057483
100
AcDbArc
 50
317.6503120789182049
 51
319.9003120789175227
  0
ARC
  5
C4
100
AcDbEntity
  8
0
 62
256
370
-1
  6
ByLayer
100
AcDbCircle
 10
185.7288318558545086
 20
20.2362205012384067
 30
0.0
 40
11.1608015372601805
100
AcDbArc
 50
244.0349136620847048
 51
256.2819739417270739
  0
ARC
  5
C5
100
AcDbEntity
  8
0
 62
256
370
-1
  6
ByLayer
100
AcDbCircle
 10
171.0520196598619691
 20
3.4856016122757048
 30
0.0
 40
11.1608015372598093
100
AcDbArc
 50
21.2686502161085116
 51
33.5157104957513496
  0
ARC
  5
C6
100
AcDbEntity
  8
0
 62
256
370
-1
  6
ByLayer
100
AcDbCircle
 10
166.5000299783717423
 20
22.279218997997706
 30
0.0
 40
18.7500000000022311
100
AcDbArc
 50
326.6503120789179775
 51
328.9003120789176933
  0
ARC
  5
C7
100
AcDbEntity
  8
0
 62
256
370
-1
  6
ByLayer
100
AcDbCircle
 10
185.8116887732937812
 20
23.2694205379637076
 30
0.0
 40
11.1608015372597098
100
AcDbArc
 50
253.0349136620845059
 51
265.2819739417271876
  0
ARC
  5
C8
100
AcDbEntity
  8
0
 62
256
370
-1
  6
ByLayer
100
AcDbCircle
 10
173.935946595194963
 20
4.4290702992067281
 30
0.0
 40
11.1608015372601006
100
AcDbArc
 50
30.2686502161085116
 51
42.5157104957509375
  0
ARC
  5
C9
100
AcDbEntity
  8
0
 62
256
370
-1
  6
ByLayer
100
AcDbCircle
 10
166.5000299783710886
 20
22.279218997997706
 30
0.0
 40
18.750000000001581
100
AcDbArc
 50
335.650312078917807
 51
337.9003120789175796
  0
ARC
  5
CA
100
AcDbEntity
  8
0
 62
256
370
-1
  6
ByLayer
100
AcDbCircle
 10
185.4190285594811769
 20
26.278238526485012
 30
0.0
 40
11.1608015372598093
100
AcDbArc
 50
262.0349136620844774
 51
274.2819739417271876
  0
ARC
  5
CB
100
AcDbEntity
  8
0
 62
256
370
-1
  6
ByLayer
100
AcDbCircle
 10
176.6367765850296792
 20
5.8120688883494189
 30
0.0
 40
11.1608015372599603
100
AcDbArc
 50
39.2686502161084334
 51
51.5157104957511081
  0
ARC
  5
CC
100
AcDbEntity
  8
0
 62
256
370
-1
  6
ByLayer
100
AcDbCircle
 10
166.5000299783714013
 20
22.279218997997706
 30
0.0
 40
18.7500000000019007
100
AcDbArc
 50
344.6503120789179775
 51
346.9003120789175227
  0
ARC
  5
CD
100
AcDbEntity
  8
0
 62
256
370
-1
  6
ByLayer
100
AcDbCircle
 10
184.5605198120450439
 20
29.1885873822304234
 30
0.0
 40
11.1608015372602196
100
AcDbArc
 50
271.0349136620847048
 51
283.2819739417270171
  0
ARC
  5
CE
100
AcDbEntity
  8
0
 62
256
370
-1
  6
ByLayer
100
AcDbCircle
 10
179.0880062314750489
 20
7.6005433645292193
 30
0.0
 40
11.1608015372601006
100
AcDbArc
 50
48.268650216108469
 51
60.5157104957508665
  0
ARC
  5
CF
100
AcDbEntity
  8
0
 62
256
370
-1
  6
ByLayer
100
AcDbCircle
 10
166.5000299783698665
 20
22.279218997997706
 30
0.0
 40
18.7500000000003411
100
AcDbArc
 50
353.650312078917807
 51
355.9003120789176933
  0
ARC
  5
D0
100
AcDbEntity
  8
0
 62
256
370
-1
  6
ByLayer
100
AcDbCircle
 10
183.2573018655745614
 20
31.9288046574764124
 30
0.0
 40
11.1608015372601006
100
AcDbArc
 50
280.0349136620845911
 51
292.2819739417270739
  0
ARC
  5
D1
100
AcDbEntity
  8
0
 62
256
370
-1
  6
ByLayer
100
AcDbCircle
 10
181.2292781254709837
 20
9.7504555505365165
 30
0.0
 40
11.1608015372601805
100
AcDbArc
 50
57.2686502161086608
 51
69.5157104957509659
  0
ARC
  5
D2
100
AcDbEntity
  8
0
 62
256
370
-1
  6
ByLayer
100
AcDbCircle
 10
166.5000299783729929
 20
22.279218997997706
 30
0.0
 40
18.7499999999965112
100
AcDbArc
 50
2.6503120789173722
 51
4.9003120789177483
  0
ARC
  5
D3
100
AcDbEntity
  8
0
 62
256
370
-1
  6
ByLayer
100
AcDbCircle
 10
181.5414642710442763
 20
34.4314171086473095
 30
0.0
 40
11.1608015372599301
100
AcDbArc
 50
289.0349136620845911
 51
301.2819739417270739
  0
ARC
  5
D4
100
AcDbEntity
  8
0
 62
256
370
-1
  6
ByLayer
100
AcDbCircle
 10
183.007867046513411
 20
12.2088674732026128
 30
0.0
 40
11.1608015372599905
100
AcDbArc
 50
66.2686502161084974
 51
78.5157104957509233
  0
ARC
  5
D5
100
AcDbEntity
  8
0
 62
256
370
-1
  6
ByLayer
100
AcDbCircle
 10
166.5000299783716287
 20
22.279218997997706
 30
0.0
 40
18.7500000000021387
100
AcDbArc
 50
11.6503120789177608
 51
13.9003120789173593
  0
ARC
  5
D6
100
AcDbEntity
  8
0
 62
256
370
-1
  6
ByLayer
100
AcDbCircle
 10
179.4552566445698858
 20
36.634802111501017
 30
0.0
 40
11.1608015372599105
100
AcDbArc
 50
298.0349136620845911
 51
310.2819739417271876
  0
ARC
  5
D7
100
AcDbEntity
  8
0
 62
256
370
-1
  6
ByLayer
100
AcDbCircle
 10
184.3799782325679075
 20
14.9152448719897315
 30
0.0
 40
11.1608015372597702
100
AcDbArc
 50
75.2686502161084405
 51
87.5157104957511649
  0
ARC
  5
D8
100
AcDbEntity
  8
0
 62
256
370
-1
  6
ByLayer
100
AcDbCircle
 10
166.500029978373135
 20
22.279218997997706
 30
0.0
 40
18.7500000000036593
100
AcDbArc
 50
20.6503120789179988
 51
22.9003120789174801
  0
ARC
  5
D9
100
AcDbEntity
  8
0
 62
256
370
-1
  6
ByLayer
100
AcDbCircle
 10
177.0500483416413147
 20
38.4847050146514107
 30
0.0
 40
11.1608015372600207
100
AcDbArc
 50
307.0349136620845911
 51
319.2819739417270739
  0
ARC
  5
DA
100
AcDbEntity
  8
0
 62
256
370
-1
  6
ByLayer
100
AcDbCircle
 10
185.3118257524578212
 20
17.8029477533877198
 30
0.0
 40
11.1608015372599692
100
AcDbArc
 50
84.2686502161085542
 51
96.5157104957510938
  0
ARC
  5
DB
100
AcDbEntity
  8
0
 62
256
370
-1
  6
ByLayer
100
AcDbCircle
 10
166.5000299783788194
 20
22.279218997997706
 30
0.0
 40
18.7499999999907203
100
AcDbArc
 50
29.6503120789172065
 51
31.9003120789183576
  0
ARC
  5
DC
100
AcDbEntity
  8
0
 62
256
370
-1
  6
ByLayer
100
AcDbCircle
 10
174.385063573105441
 20
39.9355750691472053
 30
0.0
 40
11.1608015372600793
100
AcDbArc
 50
316.0349136620845911
 51
328.2819739417270739
  0
ARC
  5
DD
100
AcDbEntity
  8
0
 62
256
370
-1
  6
ByLayer
100
AcDbCircle
 10
185.7804644276189379
 20
20.8008712887207352
 30
0.0
 40
11.1608015372599105
100
AcDbArc
 50
93.2686502161085116
 51
105.5157104957509944
  0
ARC
  5
DE
100
AcDbEntity
  8
0
 62
256
370
-1
  6
ByLayer
100
AcDbCircle
 10
166.5000299783809226
 20
22.279218997997706
 30
0.0
 40
18.7500000000114788
100
AcDbArc
 50
38.650312078918553
 51
40.9003120789170822
  0
ARC
  5
DF
100
AcDbEntity
  8
0
 62
256
370
-1
  6
ByLayer
100
AcDbCircle
 10
171.5259231085409226
 20
40.9516870390850158
 30
0.0
 40
11.1608015372602303
100
AcDbArc
 50
325.0349136620847048
 51
337.2819739417269034
  0
ARC
  5
E0
100
AcDbEntity
  8
0
 62
256
370
-1
  6
ByLayer
100
AcDbCircle
 10
185.7743548185461293
 20
23.8351966510110422
 30
0.0
 40
11.16080153725974
100
AcDbArc
 50
102.2686502161082984
 51
114.5157104957510938
  0
ARC
  5
E1
100
AcDbEntity
  8
0
 62
256
370
-1
  6
ByLayer
100
AcDbCircle
 10
166.5000299783752098
 20
22.279218997997706
 30
0.0
 40
18.7500000000057483
100
AcDbArc
 50
47.6503120789182617
 51
49.9003120789174233
  0
ARC
  5
E2
100
AcDbEntity
  8
0
 62
256
370
-1
  6
ByLayer
100
AcDbCircle
 10
168.5430284751290628
 20
41.5080208754826288
 30
0.0
 40
11.1608015372598697
100
AcDbArc
 50
334.0349136620845911
 51
346.281973941727415
  0
ARC
  5
E3
100
AcDbEntity
  8
0
 62
256
370
-1
  6
ByLayer
100
AcDbCircle
 10
185.2936473640915835
 20
26.8312086794901248
 30
0.0
 40
11.1608015372598697
100
AcDbArc
 50
111.2686502161084974
 51
123.5157104957510796
  0
ARC
  5
E4
100
AcDbEntity
  8
0
 62
256
370
-1
  6
ByLayer
100
AcDbCircle
 10
166.5000299783717423
 20
22.279218997997706
 30
0.0
 40
18.7500000000022702
100
AcDbArc
 50
56.650312078917942
 51
58.9003120789176009
  0
ARC
  5
E5
100
AcDbEntity
  8
0
 62
256
370
-1
  6
ByLayer
100
AcDbCircle
 10
165.5098284384033889
 20
41.590877792922015
 30
0.0
 40
11.1608015372598501
100
AcDbArc
 50
343.0349136620844774
 51
355.2819739417270739
  0
ARC
  5
E6
100
AcDbEntity
  8
0
 62
256
370
-1
  6
ByLayer
100
AcDbCircle
 10
184.3501786771604429
 20
29.7151356148232288
 30
0.0
 40
11.1608015372600402
100
AcDbArc
 50
120.2686502161084974
 51
132.5157104957509944
  0
ARC
  5
E7
100
AcDbEntity
  8
0
 62
256
370
-1
  6
ByLayer
100
AcDbCircle
 10
166.5000299783711171
 20
22.279218997997706
 30
0.0
 40
18.750000000001581
100
AcDbArc
 50
65.6503120789178212
 51
67.9003120789177075
  0
ARC
  5
E8
100
AcDbEntity
  8
0
 62
256
370
-1
  6
ByLayer
100
AcDbCircle
 10
162.5010104498819601
 20
41.1982175791094107
 30
0.0
 40
11.1608015372600509
100
AcDbArc
 50
352.0349136620845911
 51
4.2819739417269362
  0
ARC
  5
E9
100
AcDbEntity
  8
0
 62
256
370
-1
  6
ByLayer
100
AcDbCircle
 10
182.9671800880180115
 20
32.4159656046578277
 30
0.0
 40
11.1608015372601503
100
AcDbArc
 50
129.2686502161085969
 51
141.5157104957509944
  0
ARC
  5
EA
100
AcDbEntity
  8
0
 62
256
370
-1
  6
ByLayer
100
AcDbCircle
 10
166.5000299783779383
 20
22.279218997997706
 30
0.0
 40
18.7500000000084484
100
AcDbArc
 50
74.6503120789184607
 51
76.900312078917537
  0
ARC
  5
EB
100
AcDbEntity
  8
0
 62
256
370
-1
  6
ByLayer
100
AcDbCircle
 10
159.5906615941374298
 20
40.3397088316734198
 30
0.0
 40
11.1608015372596103
100
AcDbArc
 50
1.0349136620843591
 51
13.2819739417274505
  0
ARC
  5
EC
100
AcDbEntity
  8
0
 62
256
370
-1
  6
ByLayer
100
AcDbCircle
 10
181.1787056118378132
 20
34.867195251103432
 30
0.0
 40
11.1608015372599105
100
AcDbArc
 50
138.2686502161083126
 51
150.5157104957509944
  0
ARC
  5
ED
100
AcDbEntity
  8
0
 62
256
370
-1
  6
ByLayer
100
AcDbCircle
 10
166.5000299783697812
 20
22.279218997997706
 30
0.0
 40
18.7500000000003411
100
AcDbArc
 50
83.6503120789177785
 51
85.9003120789178496
  0
ARC
  5
EE
100
AcDbEntity
  8
0
 62
256
370
-1
  6
ByLayer
100
AcDbCircle
 10
156.8504443188907942
 20
39.0364908852028236
 30
0.0
 40
11.1608015372601006
100
AcDbArc
 50
10.0349136620846995
 51
22.2819739417271805
  0
ARC
  5
EF
100
AcDbEntity
  8
0
 62
256
370
-1
  6
ByLayer
100
AcDbCircle
 10
179.0287934258306564
 20
37.0084671450992175
 30
0.0
 40
11.1608015372601805
100
AcDbArc
 50
147.2686502161087105
 51
159.5157104957509944
  0
ARC
  5
F0
100
AcDbEntity
  8
0
 62
256
370
-1
  6
ByLayer
100
AcDbCircle
 10
166.5000299783730213
 20
22.279218997997706
 30
0.0
 40
18.7499999999964189
100
AcDbArc
 50
92.6503120789173948
 51
94.9003120789178212
  0
ARC
  5
F1
100
AcDbEntity
  8
0
 62
256
370
-1
  6
ByLayer
100
AcDbCircle
 10
154.3478318677200321
 20
37.3206532906726309
 30
0.0
 40
11.1608015372597507
100
AcDbArc
 50
19.0349136620844206
 51
31.2819739417272515
  0
ARC
  5
F2
100
AcDbEntity
  8
0
 62
256
370
-1
  6
ByLayer
100
AcDbCircle
 10
176.5703815031646116
 20
38.7870560661416164
 30
0.0
 40
11.1608015372599905
100
AcDbArc
 50
156.2686502161085969
 51
168.5157104957511081
  0
ARC
  5
F3
100
AcDbEntity
  8
0
 62
256
370
-1
  6
ByLayer
100
AcDbCircle
 10
166.5000299783704349
 20
22.279218997997706
 30
0.0
 40
18.7499999999990514
100
AcDbArc
 50
101.6503120789176933
 51
103.9003120789179064
  0
ARC
  5
F4
100
AcDbEntity
  8
0
 62
256
370
-1
  6
ByLayer
100
AcDbCircle
 10
152.1444468648662394
 20
35.2344456641981267
 30
0.0
 40
11.1608015372599105
100
AcDbArc
 50
28.0349136620844384
 51
40.2819739417271308
  0
ARC
  5
F5
100
AcDbEntity
  8
0
 62
256
370
-1
  6
ByLayer
100
AcDbCircle
 10
173.8640041043776137
 20
40.1591672521961129
 30
0.0
 40
11.1608015372598803
100
AcDbArc
 50
165.2686502161085116
 51
177.5157104957511081
  0
ARC
  5
F6
100
AcDbEntity
  8
0
 62
256
370
-1
  6
ByLayer
100
AcDbCircle
 10
166.500029978373135
 20
22.279218997997706
 30
0.0
 40
18.7500000000036593
100
AcDbArc
 50
110.6503120789180059
 51
112.9003120789174943
  0
ARC
  5
F7
100
AcDbEntity
  8
0
 62
256
370
-1
  6
ByLayer
100
AcDbCircle
 10
150.2945439617158172
 20
32.8292373612695272
 30
0.0
 40
11.1608015372600207
100
AcDbArc
 50
37.0349136620845272
 51
49.2819739417271379
  0
ARC
  5
F8
100
AcDbEntity
  8
0
 62
256
370
-1
  6
ByLayer
100
AcDbCircle
 10
170.9763012229795436
 20
41.0910147720860266
 30
0.0
 40
11.1608015372599692
100
AcDbArc
 50
174.2686502161085969
 51
186.5157104957511933
  0
ARC
  5
F9
100
AcDbEntity
  8
0
 62
256
370
-1
  6
ByLayer
100
AcDbCircle
 10
166.5000299783710034
 20
22.279218997997706
 30
0.0
 40
18.7500000000015312
100
AcDbArc
 50
119.6503120789177075
 51
121.9003120789175938
  0
ARC
  5
FA
100
AcDbEntity
  8
0
 62
256
370
-1
  6
ByLayer
100
AcDbCircle
 10
148.8436739072200794
 20
30.1642525927337068
 30
0.0
 40
11.1608015372599905
100
AcDbArc
 50
46.0349136620844988
 51
58.2819739417270526
  0
ARC
  5
FB
100
AcDbEntity
  8
0
 62
256
370
-1
  6
ByLayer
100
AcDbCircle
 10
167.9783776876463435
 20
41.5596534472471149
 30
0.0
 40
11.1608015372597702
100
AcDbArc
 50
183.2686502161083126
 51
195.5157104957511933
  0
ARC
  5
FC
100
AcDbEntity
  8
0
 62
256
370
-1
  6
ByLayer
100
AcDbCircle
 10
166.500029978380951
 20
22.279218997997706
 30
0.0
 40
18.7500000000114397
100
AcDbArc
 50
128.6503120789184891
 51
130.9003120789170964
  0
ARC
  5
FD
100
AcDbEntity
  8
0
 62
256
370
-1
  6
ByLayer
100
AcDbCircle
 10
147.8275619372823542
 20
27.3051121281695259
 30
0.0
 40
11.1608015372598608
100
AcDbArc
 50
55.0349136620845769
 51
67.2819739417273297
  0
ARC
  5
FE
100
AcDbEntity
  8
0
 62
256
370
-1
  6
ByLayer
100
AcDbCircle
 10
164.9440523253562105
 20
41.5535438381743063
 30
0.0
 40
11.1608015372598004
100
AcDbArc
 50
192.2686502161083126
 51
204.5157104957511933
  0
ARC
  5
FF
100
AcDbEntity
  8
0
 62
256
370
-1
  6
ByLayer
100
AcDbCircle
 10
161.9480402968771386
 20
41.0728363837198174
 30
0.0
 40
11.1608015372599301
100
AcDbArc
 50
201.2686502161083979
 51
213.5157104957511081
  0
ARC
  5
100
100
AcDbEntity
  8
0
 62
256
370
-1
  6
ByLayer
100
AcDbCircle
 10
166.5000299783751245
 20
22.279218997997706
 30
0.0
 40
18.7500000000056488
100
AcDbArc
 50
137.6503120789182049
 51
139.9003120789172954
  0
ARC
  5
101
100
AcDbEntity
  8
0
 62
256
370
-1
  6
ByLayer
100
AcDbCircle
 10
147.2712281008846276
 20
24.3222174947574103
 30
0.0
 40
11.1608015372597702
100
AcDbArc
 50
64.0349136620844348
 51
76.281973941727145
  0
ARC
  5
102
100
AcDbEntity
  8
0
 62
256
370
-1
  6
ByLayer
100
AcDbCircle
 10
166.500029978376233
 20
22.279218997997706
 30
0.0
 40
20.9999999999932712
100
AcDbArc
 50
151.1503120789176933
 51
153.4003120789180912
  0
ARC
  5
103
100
AcDbEntity
  8
0
 62
256
370
-1
  6
ByLayer
100
AcDbCircle
 10
166.500029978378052
 20
22.279218997997706
 30
0.0
 40
20.9999999999914202
100
AcDbArc
 50
160.150312078917608
 51
162.4003120789182901
  0
ARC
  5
104
100
AcDbEntity
  8
0
 62
256
370
-1
  6
ByLayer
100
AcDbCircle
 10
166.5000299783757782
 20
22.279218997997706
 30
0.0
 40
21.0000000000062812
100
AcDbArc
 50
169.1503120789182049
 51
171.4003120789174943
  0
ARC
  5
105
100
AcDbEntity
  8
0
 62
256
370
-1
  6
ByLayer
100
AcDbCircle
 10
166.5000299783770288
 20
22.279218997997706
 30
0.0
 40
20.9999999999924611
100
AcDbArc
 50
178.1503120789172101
 51
180.4003120789184038
  0
ARC
  5
106
100
AcDbEntity
  8
0
 62
256
370
-1
  6
ByLayer
100
AcDbCircle
 10
166.5000299783727939
 20
22.279218997997706
 30
0.0
 40
20.9999999999967102
100
AcDbArc
 50
187.1503120789178922
 51
189.4003120789178922
  0
ARC
  5
107
100
AcDbEntity
  8
0
 62
256
370
-1
  6
ByLayer
100
AcDbCircle
 10
166.5000299783707192
 20
22.279218997997706
 30
0.0
 40
21.0000000000012292
100
AcDbArc
 50
196.1503120789180912
 51
198.4003120789176933
  0
ARC
  5
108
100
AcDbEntity
  8
0
 62
256
370
-1
  6
ByLayer
100
AcDbCircle
 10
166.500029978370037
 20
22.279218997997706
 30
0.0
 40
21.0000000000005187
100
AcDbArc
 50
205.1503120789180059
 51
207.4003120789178922
  0
ARC
  5
109
100
AcDbEntity
  8
0
 62
256
370
-1
  6
ByLayer
100
AcDbCircle
 10
166.5000299783785636
 20
22.279218997997706
 30
0.0
 40
20.9999999999909299
100
AcDbArc
 50
214.150312078917807
 51
216.4003120789184038
  0
ARC
  5
10A
100
AcDbEntity
  8
0
 62
256
370
-1
  6
ByLayer
100
AcDbCircle
 10
166.5000299783700939
 20
22.279218997997706
 30
0.0
 40
21.00000000000054
100
AcDbArc
 50
223.150312078917807
 51
225.4003120789176933
  0
ARC
  5
10B
100
AcDbEntity
  8
0
 62
256
370
-1
  6
ByLayer
100
AcDbCircle
 10
166.5000299783718845
 20
22.279218997997706
 30
0.0
 40
21.0000000000024407
100
AcDbArc
 50
232.1503120789178354
 51
234.4003120789177785
  0
ARC
  5
10C
100
AcDbEntity
  8
0
 62
256
370
-1
  6
ByLayer
100
AcDbCircle
 10
166.5000299783714581
 20
22.279218997997706
 30
0.0
 40
21.0000000000019504
100
AcDbArc
 50
241.1503120789178922
 51
243.4003120789174943
  0
ARC
  5
10D
100
AcDbEntity
  8
0
 62
256
370
-1
  6
ByLayer
100
AcDbCircle
 10
166.500029978369696
 20
22.279218997997706
 30
0.0
 40
21.0000000000002309
100
AcDbArc
 50
250.1503120789178922
 51
252.4003120789177785
  0
ARC
  5
10E
100
AcDbEntity
  8
0
 62
256
370
-1
  6
ByLayer
100
AcDbCircle
 10
166.5000299783785636
 20
22.279218997997706
 30
0.0
 40
21.0000000000090594
100
AcDbArc
 50
259.1503120789184891
 51
261.4003120789174091
  0
ARC
  5
10F
100
AcDbEntity
  8
0
 62
256
370
-1
  6
ByLayer
100
AcDbCircle
 10
166.5000299783772846
 20
22.279218997997706
 30
0.0
 40
20.9999999999921982
100
AcDbArc
 50
268.1503120789175227
 51
270.4003120789180912
  0
ARC
  5
110
100
AcDbEntity
  8
0
 62
256
370
-1
  6
ByLayer
100
AcDbCircle
 10
166.5000299783764319
 20
22.279218997997706
 30
0.0
 40
20.9999999999930012
100
AcDbArc
 50
277.1503120789175227
 51
279.4003120789183185
  0
ARC
  5
111
100
AcDbEntity
  8
0
 62
256
370
-1
  6
ByLayer
100
AcDbCircle
 10
166.5000299783703497
 20
22.279218997997706
 30
0.0
 40
21.0000000000007603
100
AcDbArc
 50
286.150312078917807
 51
288.4003120789176933
  0
ARC
  5
112
100
AcDbEntity
  8
0
 62
256
370
-1
  6
ByLayer
100
AcDbCircle
 10
166.5000299783733908
 20
22.279218997997706
 30
0.0
 40
20.9999999999960814
100
AcDbArc
 50
295.1503120789175227
 51
297.4003120789180912
  0
ARC
  5
113
100
AcDbEntity
  8
0
 62
256
370
-1
  6
ByLayer
100
AcDbCircle
 10
166.5000299783768867
 20
22.279218997997706
 30
0.0
 40
21.000000000007379
100
AcDbArc
 50
304.1503120789187165
 51
306.4003120789175227
  0
ARC
  5
114
100
AcDbEntity
  8
0
 62
256
370
-1
  6
ByLayer
100
AcDbCircle
 10
166.5000299783701792
 20
22.279218997997706
 30
0.0
 40
21.0000000000006892
100
AcDbArc
 50
313.1503120789179206
 51
315.400312078917807
  0
ARC
  5
115
100
AcDbEntity
  8
0
 62
256
370
-1
  6
ByLayer
100
AcDbCircle
 10
166.5000299783784214
 20
22.279218997997706
 30
0.0
 40
21.0000000000089102
100
AcDbArc
 50
322.1503120789184891
 51
324.4003120789174091
  0
ARC
  5
116
100
AcDbEntity
  8
0
 62
256
370
-1
  6
ByLayer
100
AcDbCircle
 10
166.5000299783772562
 20
22.279218997997706
 30
0.0
 40
21.0000000000077804
100
AcDbArc
 50
331.1503120789182049
 51
333.4003120789174091
  0
ARC
  5
117
100
AcDbEntity
  8
0
 62
256
370
-1
  6
ByLayer
100
AcDbCircle
 10
166.5000299783777677
 20
22.279218997997706
 30
0.0
 40
20.9999999999917186
100
AcDbArc
 50
340.1503120789171817
 51
342.4003120789182049
  0
ARC
  5
118
100
AcDbEntity
  8
0
 62
256
370
-1
  6
ByLayer
100
AcDbCircle
 10
166.5000299783766025
 20
22.279218997997706
 30
0.0
 40
21.0000000000070983
100
AcDbArc
 50
349.1503120789183754
 51
351.4003120789174091
  0
ARC
  5
119
100
AcDbEntity
  8
0
 62
256
370
-1
  6
ByLayer
100
AcDbCircle
 10
166.5000299783698949
 20
22.279218997997706
 30
0.0
 40
21.0000000000004015
100
AcDbArc
 50
358.1503120789183185
 51
0.4003120789174908
  0
ARC
  5
11A
100
AcDbEntity
  8
0
 62
256
370
-1
  6
ByLayer
100
AcDbCircle
 10
166.500029978372595
 20
22.279218997997706
 30
0.0
 40
20.9999999999968985
100
AcDbArc
 50
7.1503120789179331
 51
9.4003120789179881
  0
ARC
  5
11B
100
AcDbEntity
  8
0
 62
256
370
-1
  6
ByLayer
100
AcDbCircle
 10
166.5000299783704065
 20
22.279218997997706
 30
0.0
 40
20.9999999999991296
100
AcDbArc
 50
16.1503120789177714
 51
18.4003120789179313
  0
ARC
  5
11C
100
AcDbEntity
  8
0
 62
256
370
-1
  6
ByLayer
100
AcDbCircle
 10
166.5000299783699518
 20
22.279218997997706
 30
0.0
 40
20.9999999999995595
100
AcDbArc
 50
25.1503120789181907
 51
27.400312078917981
  0
ARC
  5
11D
100
AcDbEntity
  8
0
 62
256
370
-1
  6
ByLayer
100
AcDbCircle
 10
166.5000299783756077
 20
22.279218997997706
 30
0.0
 40
20.9999999999938609
100
AcDbArc
 50
34.1503120789176222
 51
36.400312078918212
  0
ARC
  5
11E
100
AcDbEntity
  8
0
 62
256
370
-1
  6
ByLayer
100
AcDbCircle
 10
166.5000299783703781
 20
22.279218997997706
 30
0.0
 40
21.0000000000009202
100
AcDbArc
 50
43.150312078917878
 51
45.400312078917743
  0
ARC
  5
11F
100
AcDbEntity
  8
0
 62
256
370
-1
  6
ByLayer
100
AcDbCircle
 10
166.500029978374215
 20
22.279218997997706
 30
0.0
 40
21.0000000000047393
100
AcDbArc
 50
52.150312078918077
 51
54.4003120789174517
  0
ARC
  5
120
100
AcDbEntity
  8
0
 62
256
370
-1
  6
ByLayer
100
AcDbCircle
 10
166.5000299783759488
 20
22.279218997997706
 30
0.0
 40
20.9999999999935412
100
AcDbArc
 50
61.1503120789177004
 51
63.4003120789181907
  0
ARC
  5
121
100
AcDbEntity
  8
0
 62
256
370
-1
  6
ByLayer
100
AcDbCircle
 10
166.5000299783762898
 20
22.279218997997706
 30
0.0
 40
20.9999999999932001
100
AcDbArc
 50
70.1503120789174233
 51
72.4003120789181338
  0
ARC
  5
122
100
AcDbEntity
  8
0
 62
256
370
-1
  6
ByLayer
100
AcDbCircle
 10
166.5000299783703213
 20
22.279218997997706
 30
0.0
 40
20.9999999999992504
100
AcDbArc
 50
79.1503120789177217
 51
81.4003120789177785
  0
ARC
  5
123
100
AcDbEntity
  8
0
 62
256
370
-1
  6
ByLayer
100
AcDbCircle
 10
166.5000299783698949
 20
22.279218997997706
 30
0.0
 40
21.0000000000003801
100
AcDbArc
 50
88.1503120789182049
 51
90.4003120789177501
  0
ARC
  5
124
100
AcDbEntity
  8
0
 62
256
370
-1
  6
ByLayer
100
AcDbCircle
 10
166.5000299783714297
 20
22.279218997997706
 30
0.0
 40
20.9999999999980709
100
AcDbArc
 50
97.1503120789176222
 51
99.4003120789180201
  0
ARC
  5
125
100
AcDbEntity
  8
0
 62
256
370
-1
  6
ByLayer
100
AcDbCircle
 10
166.500029978370975
 20
22.279218997997706
 30
0.0
 40
20.9999999999985292
100
AcDbArc
 50
106.150312078917807
 51
108.400312078917807
  0
ARC
  5
126
100
AcDbEntity
  8
0
 62
256
370
-1
  6
ByLayer
100
AcDbCircle
 10
166.5000299783726234
 20
22.279218997997706
 30
0.0
 40
20.9999999999968594
100
AcDbArc
 50
115.150312078917608
 51
117.4003120789179917
  0
ARC
  5
127
100
AcDbEntity
  8
0
 62
256
370
-1
  6
ByLayer
100
AcDbCircle
 10
166.5000299783766593
 20
22.279218997997706
 30
0.0
 40
21.0000000000072014
100
AcDbArc
 50
124.1503120789187022
 51
126.4003120789175938
  0
ARC
  5
128
100
AcDbEntity
  8
0
 62
256
370
-1
  6
ByLayer
100
AcDbCircle
 10
166.5000299783701792
 20
22.279218997997706
 30
0.0
 40
21.0000000000006892
100
AcDbArc
 50
133.150312078917807
 51
135.400312078917807
  0
ARC
  5
129
100
AcDbEntity
  8
0
 62
256
370
-1
  6
ByLayer
100
AcDbCircle
 10
166.5000299783755224
 20
22.279218997997706
 30
0.0
 40
21.000000000006029
100
AcDbArc
 50
142.1503120789184038
 51
144.4003120789174943
  0
MTEXT
  5
12A
100
AcDbEntity
100
AcDbMText
  8
Text
 62
256
370
-1
  6
ByLayer
 10
159.6663817221547674
 20
34.3458856646643653
 30
0.0
 40
2.0
 41
100.0
 71
1
 72
2
  1
Driven\~Gear
  7
standard
 50
0.0
 73
1
 44
1.0
  0
LINE
  5
12B
100
AcDbEntity
100
AcDbLine
  8
0
 62
256
370
-1
  6
ByLayer
 10
159.5198982805186176
 20
24.2444911964452849
 30
0.0
 11
164.7119397786509012
 21
29.3068264693213045
 31
0.0
  0
LINE
  5
12C
100
AcDbEntity
100
AcDbLine
  8
0
 62
256
370
-1
  6
ByLayer
 10
164.7119397786509012
 20
29.3068264693213045
 30
0.0
 11
171.692071476501809
 21
27.3415542708737682
 31
0.0
  0
LINE
  5
12D
100
AcDbEntity
100
AcDbLine
  8
0
 62
256
370
-1
  6
ByLayer
 10
171.692071476501809
 20
27.3415542708737682
 30
0.0
 11
173.480161676220348
 21
20.3139467995501732
 31
0.0
  0
LINE
  5
12E
100
AcDbEntity
100
AcDbLine
  8
0
 62
256
370
-1
  6
ByLayer
 10
173.480161676220348
 20
20.3139467995501732
 30
0.0
 11
168.288120178088036
 21
15.2516115266740275
 31
0.0
  0
LINE
  5
12F
100
AcDbEntity
100
AcDbLine
  8
0
 62
256
370
-1
  6
ByLayer
 10
168.288120178088036
 20
15.2516115266740275
 30
0.0
 11
161.3079884802371566
 21
17.2168837251216793
 31
0.0
  0
LINE
  5
130
100
AcDbEntity
100
AcDbLine
  8
0
 62
256
370
-1
  6
ByLayer
 10
161.3079884802371566
 20
17.2168837251216793
 30
0.0
 11
159.5198982805186176
 21
24.2444911964452849
 31
0.0
  0
ARC
  5
131
100
AcDbEntity
  8
Extruder Mount Plate
 62
256
370
-1
  6
ByLayer
100
AcDbCircle
 10
142.6666514395878664
 20
77.1610896645659921
 30
0.0
 40
1.999999999999984
100
AcDbArc
 50
49.8535388083622948
 51
90.0
  0
CIRCLE
  5
132
100
AcDbEntity
100
AcDbCircle
  8
Extruder Mount Plate
 62
256
370
-1
  6
ByLayer
 10
78.8272178516173767
 20
82.6610896645658642
 30
0.0
 40
2.4249999999999869
  0
CIRCLE
  5
133
100
AcDbEntity
100
AcDbCircle
  8
Extruder Mount Plate
 62
256
370
-1
  6
ByLayer
 10
78.8272178516173767
 20
50.6610896645660773
 30
0.0
 40
2.4249999999999869
  0
CIRCLE
  5
134
100
AcDbEntity
100
AcDbCircle
  8
Extruder Mount Plate
 62
256
370
-1
  6
ByLayer
 10
74.7272178516173824
 20
66.6610896645660915
 30
0.0
 40
1.5999999999999921
  0
ARC
  5
135
100
AcDbEntity
  8
Extruder Mount Plate
 62
256
370
-1
  6
ByLayer
100
AcDbCircle
 10
104.7272178516172971
 20
60.4110896645660915
 30
0.0
 40
2.4999999999999858
100
AcDbArc
 50
0.0
 51
180.0
  0
LINE
  5
136
100
AcDbEntity
100
AcDbLine
  8
Extruder Mount Plate
 62
256
370
-1
  6
ByLayer
 10
107.2272178516171834
 20
52.6610896645662052
 30
0.0
 11
107.2272178516171834
 21
60.4110896645660915
 31
0.0
  0
LINE
  5
137
100
AcDbEntity
100
AcDbLine
  8
Extruder Mount Plate
 62
256
370
-1
  6
ByLayer
 10
112.7272178516171692
 20
50.6610896645660773
 30
0.0
 11
109.2272178516171834
 21
50.6610896645660773
 31
0.0
  0
LINE
  5
138
100
AcDbEntity
100
AcDbLine
  8
Extruder Mount Plate
 62
256
370
-1
  6
ByLayer
 10
114.7272178516171834
 20
60.4110896645660915
 30
0.0
 11
114.7272178516171834
 21
52.661089664566191
 31
0.0
  0
ARC
  5
139
100
AcDbEntity
  8
Extruder Mount Plate
 62
256
370
-1
  6
ByLayer
100
AcDbCircle
 10
117.2272178516171834
 20
60.4110896645660844
 30
0.0
 40
2.4999999999999858
100
AcDbArc
 50
0.0
 51
180.0
  0
LINE
  5
13A
100
AcDbEntity
100
AcDbLine
  8
Extruder Mount Plate
 62
256
370
-1
  6
ByLayer
 10
119.7272178516171834
 20
52.6610896645661981
 30
0.0
 11
119.7272178516171834
 21
60.4110896645660915
 31
0.0
  0
LINE
  5
13B
100
AcDbEntity
100
AcDbLine
  8
Extruder Mount Plate
 62
256
370
-1
  6
ByLayer
 10
148.6272178516169333
 20
50.6610896645660418
 30
0.0
 11
145.1272178516170754
 21
50.6610896645660773
 31
0.0
  0
LINE
  5
13C
100
AcDbEntity
100
AcDbLine
  8
Extruder Mount Plate
 62
256
370
-1
  6
ByLayer
 10
150.6272178516169902
 20
60.4110896645660986
 30
0.0
 11
150.6272178516169618
 21
52.6610896645662052
 31
0.0
  0
ARC
  5
13D
100
AcDbEntity
  8
Extruder Mount Plate
 62
256
370
-1
  6
ByLayer
100
AcDbCircle
 10
153.1272178516170186
 20
60.4110896645660489
 30
0.0
 40
2.4999999999999858
100
AcDbArc
 50
0.0
 51
180.0
  0
LINE
  5
13E
100
AcDbEntity
100
AcDbLine
  8
Extruder Mount Plate
 62
256
370
-1
  6
ByLayer
 10
155.6272178516170186
 20
52.6610896645661626
 30
0.0
 11
155.6272178516170186
 21
60.411089664566056
 31
0.0
  0
LINE
  5
13F
100
AcDbEntity
100
AcDbLine
  8
Extruder Mount Plate
 62
256
370
-1
  6
ByLayer
 10
163.6272178516169049
 20
50.6610896645661057
 30
0.0
 11
157.6272178516170186
 21
50.6610896645660986
 31
0.0
  0
LINE
  5
140
100
AcDbEntity
100
AcDbLine
  8
Extruder Mount Plate
 62
256
370
-1
  6
ByLayer
 10
165.6272178516170186
 20
59.4815845601949746
 30
0.0
 11
165.6272178516170186
 21
52.6610896645661484
 31
0.0
  0
LINE
  5
141
100
AcDbEntity
100
AcDbLine
  8
Extruder Mount Plate
 62
256
370
-1
  6
ByLayer
 10
143.9561388261283525
 20
78.6898873228429068
 30
0.0
 11
164.9167052381575047
 21
61.010382218471932
 31
0.0
  0
ARC
  5
142
100
AcDbEntity
  8
Extruder Mount Plate
 62
256
370
-1
  6
ByLayer
100
AcDbCircle
 10
109.2272178516171834
 20
52.661089664566191
 30
0.0
 40
1.999999999999996
100
AcDbArc
 50
180.0
 51
270.0
  0
ARC
  5
143
100
AcDbEntity
  8
Extruder Mount Plate
 62
256
370
-1
  6
ByLayer
100
AcDbCircle
 10
112.7272178516171834
 20
52.6610896645660773
 30
0.0
 40
1.999999999999986
100
AcDbArc
 50
270.0
 51
0.0
  0
ARC
  5
144
100
AcDbEntity
  8
Extruder Mount Plate
 62
256
370
-1
  6
ByLayer
100
AcDbCircle
 10
121.7272178516171834
 20
52.6610896645660915
 30
0.0
 40
1.999999999999984
100
AcDbArc
 50
179.9999999999989768
 51
270.0
  0
ARC
  5
145
100
AcDbEntity
  8
Extruder Mount Plate
 62
256
370
-1
  6
ByLayer
100
AcDbCircle
 10
148.6272178516169902
 20
52.6610896645662052
 30
0.0
 40
2.0
100
AcDbArc
 50
270.0
 51
0.0
  0
ARC
  5
146
100
AcDbEntity
  8
Extruder Mount Plate
 62
256
370
-1
  6
ByLayer
100
AcDbCircle
 10
157.6272178516170186
 20
52.6610896645660702
 30
0.0
 40
1.999999999999982
100
AcDbArc
 50
180.0
 51
270.0
  0
ARC
  5
147
100
AcDbEntity
  8
Extruder Mount Plate
 62
256
370
-1
  6
ByLayer
100
AcDbCircle
 10
163.6272178516169049
 20
52.6610896645660986
 30
0.0
 40
1.999999999999982
100
AcDbArc
 50
270.0
 51
0.0
  0
ARC
  5
148
100
AcDbEntity
  8
Extruder Mount Plate
 62
256
370
-1
  6
ByLayer
100
AcDbCircle
 10
163.6272178516170186
 20
59.4815845601949675
 30
0.0
 40
1.999999999999911
100
AcDbArc
 50
359.9999999999989768
 51
49.853538808363183
  0
CIRCLE
  5
149
100
AcDbEntity
100
AcDbCircle
  8
Extruder Mount Plate
 62
256
370
-1
  6
ByLayer
 10
94.7272178516173824
 20
66.6610896645660915
 30
0.0
 40
2.1000000000000001
  0
CIRCLE
  5
14A
100
AcDbEntity
100
AcDbCircle
  8
Extruder Mount Plate
 62
256
370
-1
  6
ByLayer
 10
64.727217851617354
 20
49.3405815888773205
 30
0.0
 40
2.1000000000000001
  0
CIRCLE
  5
14B
100
AcDbEntity
100
AcDbCircle
  8
Extruder Mount Plate
 62
256
370
-1
  6
ByLayer
 10
64.7272178516173824
 20
83.9815977402548413
 30
0.0
 40
2.1000000000000001
  0
MTEXT
  5
14C
100
AcDbEntity
100
AcDbMText
  8
Extruder Mount Plate Text
 62
256
370
-1
  6
ByLayer
 10
102.1272178516170897
 20
70.6610896645660915
 30
0.0
 40
3.0
 41
100.0
 71
1
 72
2
  1
Extruder\~Mount\~Plate
  7
standard
 50
0.0
 73
0
 44
1.0
  0
LINE
  5
14D
100
AcDbEntity
100
AcDbLine
  8
Extruder Mount Plate
 62
256
370
-1
  6
ByLayer
 10
142.6666514395878664
 20
79.1610896645659778
 30
0.0
 11
102.0568720755552761
 21
79.1610896645659778
 31
0.0
  0
ARC
  5
14E
100
AcDbEntity
  8
Extruder Mount Plate
 62
256
370
-1
  6
ByLayer
100
AcDbCircle
 10
102.0568720755552761
 20
89.1610896645659778
 30
0.0
 40
10.0
100
AcDbArc
 50
219.4639964087814974
 51
270.0
  0
ARC
  5
14F
100
AcDbEntity
  8
Extruder Mount Plate
 62
256
370
-1
  6
ByLayer
100
AcDbCircle
 10
74.7272178516173824
 20
66.6610896645660915
 30
0.0
 40
25.3999999999999986
100
AcDbArc
 50
39.4639964087814619
 51
312.7381168620651692
  0
ARC
  5
150
100
AcDbEntity
  8
Extruder Mount Plate
 62
256
370
-1
  6
ByLayer
100
AcDbCircle
 10
98.7513723632749816
 20
40.6610896645660773
 30
0.0
 40
10.0
100
AcDbArc
 50
90.0
 51
132.7381168620651692
  0
LINE
  5
151
100
AcDbEntity
100
AcDbLine
  8
Extruder Mount Plate
 62
256
370
-1
  6
ByLayer
 10
135.1272178516170754
 20
50.6610896645660844
 30
0.0
 11
121.7272178516171834
 21
50.6610896645660844
 31
0.0
  0
LINE
  5
152
100
AcDbEntity
100
AcDbLine
  8
Extruder Mount Plate
 62
256
370
-1
  6
ByLayer
 10
143.1272178516169618
 20
52.661089664566191
 30
0.0
 11
143.1272178516169618
 21
60.4110896645661199
 31
0.0
  0
ARC
  5
153
100
AcDbEntity
  8
Extruder Mount Plate
 62
256
370
-1
  6
ByLayer
100
AcDbCircle
 10
145.1272178516169618
 20
52.6610896645660773
 30
0.0
 40
1.999999999999978
100
AcDbArc
 50
180.0
 51
270.0
  0
LINE
  5
154
100
AcDbEntity
100
AcDbLine
  8
Extruder Mount Plate
 62
256
370
-1
  6
ByLayer
 10
137.1272178516170754
 20
60.4110896645660915
 30
0.0
 11
137.1272178516170754
 21
52.6610896645660631
 31
0.0
  0
ARC
  5
155
100
AcDbEntity
  8
Extruder Mount Plate
 62
256
370
-1
  6
ByLayer
100
AcDbCircle
 10
135.1272178516170754
 20
52.661089664566056
 30
0.0
 40
2.0
100
AcDbArc
 50
270.0
 51
0.0
  0
ARC
  5
156
100
AcDbEntity
  8
Extruder Mount Plate
 62
256
370
-1
  6
ByLayer
100
AcDbCircle
 10
140.1272178516170754
 20
60.4110896645660915
 30
0.0
 40
3.0
100
AcDbArc
 50
0.0
 51
180.0
  0
LINE
  5
157
100
AcDbEntity
100
AcDbLine
  8
Extruder Mount Plate
 62
256
370
-1
  6
ByLayer
 10
102.2272178516172971
 20
60.4110896645660915
 30
0.0
 11
102.2272178516172971
 21
52.6610896645660773
 31
0.0
  0
LINE
  5
158
100
AcDbEntity
100
AcDbLine
  8
Extruder Mount Plate
 62
256
370
-1
  6
ByLayer
 10
100.2272178516172829
 20
50.6610896645660773
 30
0.0
 11
98.7513723632749958
 21
50.6610896645660773
 31
0.0
  0
ARC
  5
159
100
AcDbEntity
  8
Extruder Mount Plate
 62
256
370
-1
  6
ByLayer
100
AcDbCircle
 10
100.2272178516172971
 20
52.6610896645660773
 30
0.0
 40
2.0
100
AcDbArc
 50
270.0
 51
0.0
  0
CIRCLE
  5
15A
100
AcDbEntity
100
AcDbCircle
  8
Insulator Retainer
 62
256
370
-1
  6
ByLayer
 10
190.0
 20
70.0
 30
0.0
 40
25.3999999999999986
  0
MTEXT
  5
15B
100
AcDbEntity
100
AcDbMText
  8
Insulator Retainer Text
 62
256
370
-1
  6
ByLayer
 10
172.0
 20
59.3999999999997002
 30
0.0
 40
3.0
 41
100.0
 71
1
 72
2
  1
Insulator\~Retainer
  7
standard
 50
0.0
 73
1
 44
1.0
  0
CIRCLE
  5
15C
100
AcDbEntity
100
AcDbCircle
  8
Insulator Retainer
 62
256
370
-1
  6
ByLayer
 10
209.8375000000000057
 20
70.0
 30
0.0
 40
2.1000000000000001
  0
CIRCLE
  5
15D
100
AcDbEntity
100
AcDbCircle
  8
Insulator Retainer
 62
256
370
-1
  6
ByLayer
 10
180.0812499999999545
 20
52.8202210524261986
 30
0.0
 40
2.1000000000000001
  0
CIRCLE
  5
15E
100
AcDbEntity
100
AcDbCircle
  8
Insulator Retainer
 62
256
370
-1
  6
ByLayer
 10
180.0812499999999829
 20
87.1797789475737659
 30
0.0
 40
2.1000000000000001
  0
CIRCLE
  5
15F
100
AcDbEntity
100
AcDbCircle
  8
Insulator Retainer
 62
256
370
-1
  6
ByLayer
 10
194.0999999999999943
 20
85.9999999999997726
 30
0.0
 40
2.4199999999999999
  0
CIRCLE
  5
160
100
AcDbEntity
100
AcDbCircle
  8
Insulator Retainer
 62
256
370
-1
  6
ByLayer
 10
194.0999999999999943
 20
53.9999999999999858
 30
0.0
 40
2.4199999999999999
  0
CIRCLE
  5
161
100
AcDbEntity
100
AcDbCircle
  8
Insulator Retainer
 62
256
370
-1
  6
ByLayer
 10
190.0
 20
70.0
 30
0.0
 40
1.6000000000000001
  0
LINE
  5
162
100
AcDbEntity
100
AcDbLine
  8
0
 62
256
370
-1
  6
ByLayer
 10
1.0949570815451182
 20
95.9785944206009276
 30
0.0
 11
45.4949570815450528
 21
95.9785944206009134
 31
0.0
  0
ARC
  5
163
100
AcDbEntity
  8
0
 62
256
370
-1
  6
ByLayer
100
AcDbCircle
 10
45.4949570815451168
 20
92.4785944206008281
 30
0.0
 40
3.5
100
AcDbArc
 50
360.0
 51
89.9999999999999858
  0
LINE
  5
164
100
AcDbEntity
100
AcDbLine
  8
0
 62
256
370
-1
  6
ByLayer
 10
48.9949570815450883
 20
92.4785944206007855
 30
0.0
 11
48.9949570815450244
 21
54.6735818577074539
 31
0.0
  0
ARC
  5
165
100
AcDbEntity
  8
0
 62
256
370
-1
  6
ByLayer
100
AcDbCircle
 10
44.0949570815450613
 20
53.6785944206008665
 30
0.0
 40
5.0000000000000089
100
AcDbArc
 50
313.9829631303585415
 51
11.4783409545338646
  0
LINE
  5
166
100
AcDbEntity
100
AcDbLine
  8
0
 62
256
370
-1
  6
ByLayer
 10
47.5671793037672757
 20
50.080862796437259
 30
0.0
 11
38.2477348593228044
 21
41.0865337360285849
 31
0.0
  0
CIRCLE
  5
167
100
AcDbEntity
100
AcDbCircle
  8
0
 62
256
370
-1
  6
ByLayer
 10
44.0949570815450613
 20
53.6785944206008665
 30
0.0
 40
2.4249999999999989
  0
CIRCLE
  5
168
100
AcDbEntity
100
AcDbCircle
  8
0
 62
256
370
-1
  6
ByLayer
 10
8.0949570815450915
 20
53.6785944206008807
 30
0.0
 40
2.4249999999999989
  0
ARC
  5
169
100
AcDbEntity
  8
0
 62
256
370
-1
  6
ByLayer
100
AcDbCircle
 10
2.0949570815450755
 20
62.8674857841967665
 30
0.0
 40
2.0000000000000049
100
AcDbArc
 50
360.0
 51
89.9999999999999858
  0
ARC
  5
16A
100
AcDbEntity
  8
0
 62
256
370
-1
  6
ByLayer
100
AcDbCircle
 10
1.0949570815450969
 20
66.8674857841967736
 30
0.0
 40
2.0000000000000062
100
AcDbArc
 50
180.0
 51
269.9999999999994884
  0
ARC
  5
16B
100
AcDbEntity
  8
0
 62
256
370
-1
  6
ByLayer
100
AcDbCircle
 10
1.0949570815451111
 20
93.9785944206009134
 30
0.0
 40
2.0000000000000102
100
AcDbArc
 50
90.0000000000004974
 51
180.0
  0
LINE
  5
16C
100
AcDbEntity
100
AcDbLine
  8
0
 62
256
370
-1
  6
ByLayer
 10
1.09495708154504
 20
64.8674857841967594
 30
0.0
 11
2.0949570815450258
 21
64.8674857841967309
 31
0.0
  0
CIRCLE
  5
16D
100
AcDbEntity
100
AcDbCircle
  8
0
 62
256
370
-1
  6
ByLayer
 10
26.0949570815450684
 20
83.6785944206007883
 30
0.0
 40
4.8499999999999996
  0
LINE
  5
16E
100
AcDbEntity
100
AcDbLine
  8
Notes
 62
256
370
-1
  6
ByLayer
 10
-0.9050429184548996
 20
93.9785944206009276
 30
0.0
 11
-0.9050429184549031
 21
66.8674857841968304
 31
0.0
  0
MTEXT
  5
16F
100
AcDbEntity
100
AcDbMText
  8
Text
 62
256
370
-1
  6
ByLayer
 10
38.2817762312772842
 20
74.2535467941023057
 30
0.0
 40
4.0
 41
100.0
 71
3
 72
2
  1
Motor\~Mount
  7
standard
 50
360.0
 73
0
 44
1.0
  0
CIRCLE
  5
170
100
AcDbEntity
100
AcDbCircle
  8
0
 62
256
370
-1
  6
ByLayer
 10
26.0949570815450613
 20
53.6785944206008736
 30
0.0
 40
4.0999999999999996
  0
LINE
  5
171
100
AcDbEntity
100
AcDbLine
  8
0
 62
256
370
-1
  6
ByLayer
 10
4.6227348593228506
 20
50.080862796437394
 30
0.0
 11
13.9421793037672757
 21
41.0865337360286134
 31
0.0
  0
ARC
  5
172
100
AcDbEntity
  8
0
 62
256
370
-1
  6
ByLayer
100
AcDbCircle
 10
8.0949570815450915
 20
53.6785944206008807
 30
0.0
 40
5.0
100
AcDbArc
 50
180.0
 51
226.0170368696413163
  0
ARC
  5
173
100
AcDbEntity
  8
0
 62
256
370
-1
  6
ByLayer
100
AcDbCircle
 10
26.0949570815450613
 20
53.6785944206008736
 30
0.0
 40
17.5
100
AcDbArc
 50
226.0170368696412879
 51
313.982963130358371
  0
CIRCLE
  5
174
100
AcDbEntity
100
AcDbCircle
  8
0
 62
256
370
-1
  6
ByLayer
 10
45.594957081545104
 20
92.4785944206009276
 30
0.0
 40
1.425
  0
CIRCLE
  5
175
100
AcDbEntity
100
AcDbCircle
  8
0
 62
256
370
-1
  6
ByLayer
 10
45.5949570815451111
 20
74.8785944206009191
 30
0.0
 40
1.425
  0
ARC
  5
176
100
AcDbEntity
  8
0
 62
256
370
-1
  6
ByLayer
100
AcDbCircle
 10
12.0613636368253836
 20
57.928433199812261
 30
0.0
 40
2.5
100
AcDbArc
 50
270.5499406159401019
 51
90.0000000000008527
  0
LINE
  5
177
100
AcDbEntity
100
AcDbLine
  8
0
 62
256
370
-1
  6
ByLayer
 10
3.365277134068247
 20
54.6874425909220037
 30
0.0
 11
3.0949570815450933
 21
53.6785944206008736
 31
0.0
  0
LINE
  5
178
100
AcDbEntity
100
AcDbLine
  8
0
 62
256
370
-1
  6
ByLayer
 10
12.0853589544823219
 20
55.4285483575184088
 30
0.0
 11
4.3312126568798242
 21
55.4286235457724814
 31
0.0
  0
ARC
  5
179
100
AcDbEntity
  8
0
 62
256
370
-1
  6
ByLayer
100
AcDbCircle
 10
4.3312029603573237
 20
54.4286235458194909
 30
0.0
 40
1.0
100
AcDbArc
 50
89.9994444301845675
 51
165.0000000000005116
  0
LINE
  5
17A
100
AcDbEntity
100
AcDbLine
  8
0
 62
256
370
-1
  6
ByLayer
 10
12.0613636368253392
 20
60.428433199812261
 30
0.0
 11
5.0949368439652289
 21
60.4285741834306123
 31
0.0
  0
LINE
  5
17B
100
AcDbEntity
100
AcDbLine
  8
0
 62
256
370
-1
  6
ByLayer
 10
4.0949570815450684
 20
62.8674857841967665
 30
0.0
 11
4.0949570815450542
 21
61.4285741832258623
 31
0.0
  0
ARC
  5
17C
100
AcDbEntity
  8
0
 62
256
370
-1
  6
ByLayer
100
AcDbCircle
 10
5.0949570815450507
 20
61.4285741832258481
 30
0.0
 40
1.0
100
AcDbArc
 50
180.0
 51
269.998840472088375
  0
ARC
  5
17D
100
AcDbEntity
  8
0
 62
256
370
-1
  6
ByLayer
100
AcDbCircle
 10
155.6916662637311788
 20
84.7117389111975712
 30
0.0
 40
8.7499999999995008
100
AcDbArc
 50
204.7499999999999147
 51
209.2500000000002842
  0
ARC
  5
17E
100
AcDbEntity
  8
0
 62
256
370
-1
  6
ByLayer
100
AcDbCircle
 10
153.6340250502130687
 20
74.3034301626833553
 30
0.0
 40
8.2892520696423908
100
AcDbArc
 50
132.280644028837969
 51
148.775918265384604
  0
ARC
  5
17F
100
AcDbEntity
  8
0
 62
256
370
-1
  6
ByLayer
100
AcDbCircle
 10
146.0617164436468443
 20
89.1649225848185836
 30
0.0
 40
8.2892520696422718
100
AcDbArc
 50
265.2240817346153108
 51
281.7193559711620878
  0
ARC
  5
180
100
AcDbEntity
  8
0
 62
256
370
-1
  6
ByLayer
100
AcDbCircle
 10
155.6916662637314346
 20
84.7117389111975712
 30
0.0
 40
8.750000000000794
100
AcDbArc
 50
222.7500000000003126
 51
227.249999999999801
  0
ARC
  5
181
100
AcDbEntity
  8
0
 62
256
370
-1
  6
ByLayer
100
AcDbCircle
 10
156.9510774654094973
 20
74.1770029490081129
 30
0.0
 40
8.2892520696423642
100
AcDbArc
 50
150.2806440288378838
 51
166.7759182653845755
  0
ARC
  5
182
100
AcDbEntity
  8
0
 62
256
370
-1
  6
ByLayer
100
AcDbCircle
 10
145.1569303015415926
 20
85.9711501128762166
 30
0.0
 40
8.2892520696422274
100
AcDbArc
 50
283.2240817346152539
 51
299.7193559711620878
  0
ARC
  5
183
100
AcDbEntity
  8
0
 62
256
370
-1
  6
ByLayer
100
AcDbCircle
 10
155.6916662637318609
 20
84.7117389111975712
 30
0.0
 40
8.7500000000012612
100
AcDbArc
 50
240.7500000000003979
 51
245.249999999999801
  0
ARC
  5
184
100
AcDbEntity
  8
0
 62
256
370
-1
  6
ByLayer
100
AcDbCircle
 10
160.1448499373517791
 20
75.0817890911332881
 30
0.0
 40
8.2892520696422611
100
AcDbArc
 50
168.2806440288378269
 51
184.7759182653846892
  0
ARC
  5
185
100
AcDbEntity
  8
0
 62
256
370
-1
  6
ByLayer
100
AcDbCircle
 10
145.2833575152169487
 20
82.6540976976797594
 30
0.0
 40
8.2892520696423446
100
AcDbArc
 50
301.2240817346153108
 51
317.7193559711620878
  0
ARC
  5
186
100
AcDbEntity
  8
0
 62
256
370
-1
  6
ByLayer
100
AcDbCircle
 10
155.6916662637321167
 20
84.7117389111975712
 30
0.0
 40
8.7500000000015916
100
AcDbArc
 50
258.7500000000005684
 51
263.2499999999996021
  0
ARC
  5
187
100
AcDbEntity
  8
0
 62
256
370
-1
  6
ByLayer
100
AcDbCircle
 10
162.9027137641650427
 20
76.9292218174520883
 30
0.0
 40
8.2892520696423002
100
AcDbArc
 50
186.2806440288378838
 51
202.7759182653847176
  0
ARC
  5
188
100
AcDbEntity
  8
0
 62
256
370
-1
  6
ByLayer
100
AcDbCircle
 10
146.428622508147896
 20
79.5384615408918023
 30
0.0
 40
8.2892520696423322
100
AcDbArc
 50
319.2240817346153108
 51
335.7193559711620878
  0
ARC
  5
189
100
AcDbEntity
  8
0
 62
256
370
-1
  6
ByLayer
100
AcDbCircle
 10
155.6916662637314346
 20
84.7117389111975712
 30
0.0
 40
8.7500000000008171
100
AcDbArc
 50
276.7500000000001705
 51
281.2499999999996021
  0
ARC
  5
18A
100
AcDbEntity
  8
0
 62
256
370
-1
  6
ByLayer
100
AcDbCircle
 10
164.9547100193134384
 20
79.5384615408916602
 30
0.0
 40
8.2892520696421972
100
AcDbArc
 50
204.2806440288377132
 51
220.7759182653848029
  0
ARC
  5
18B
100
AcDbEntity
  8
0
 62
256
370
-1
  6
ByLayer
100
AcDbCircle
 10
148.4806187632964907
 20
76.9292218174520883
 30
0.0
 40
8.2892520696422398
100
AcDbArc
 50
337.2240817346151971
 51
353.7193559711620878
  0
ARC
  5
18C
100
AcDbEntity
  8
0
 62
256
370
-1
  6
ByLayer
100
AcDbCircle
 10
155.6916662637313493
 20
84.7117389111975712
 30
0.0
 40
8.750000000000778
100
AcDbArc
 50
294.7500000000001705
 51
299.25
  0
ARC
  5
18D
100
AcDbEntity
  8
0
 62
256
370
-1
  6
ByLayer
100
AcDbCircle
 10
166.0999750122447267
 20
82.6540976976797594
 30
0.0
 40
8.2892520696423624
100
AcDbArc
 50
222.2806440288379122
 51
238.7759182653846608
  0
ARC
  5
18E
100
AcDbEntity
  8
0
 62
256
370
-1
  6
ByLayer
100
AcDbCircle
 10
151.2384825901095553
 20
75.0817890911332881
 30
0.0
 40
8.2892520696423251
100
AcDbArc
 50
355.2240817346153108
 51
11.7193559711620701
  0
ARC
  5
18F
100
AcDbEntity
  8
0
 62
256
370
-1
  6
ByLayer
100
AcDbCircle
 10
155.6916662637313493
 20
84.7117389111975712
 30
0.0
 40
8.7500000000007532
100
AcDbArc
 50
312.7500000000003411
 51
317.2499999999998295
  0
ARC
  5
190
100
AcDbEntity
  8
0
 62
256
370
-1
  6
ByLayer
100
AcDbCircle
 10
166.226402225920026
 20
85.9711501128761881
 30
0.0
 40
8.2892520696422718
100
AcDbArc
 50
240.2806440288378269
 51
256.7759182653846892
  0
ARC
  5
191
100
AcDbEntity
  8
0
 62
256
370
-1
  6
ByLayer
100
AcDbCircle
 10
154.4322550620520076
 20
74.1770029490081981
 30
0.0
 40
8.2892520696422114
100
AcDbArc
 50
13.2240817346153321
 51
29.7193559711622228
  0
ARC
  5
192
100
AcDbEntity
  8
0
 62
256
370
-1
  6
ByLayer
100
AcDbCircle
 10
155.6916662637317188
 20
84.7117389111975712
 30
0.0
 40
8.7500000000011262
100
AcDbArc
 50
330.7500000000002842
 51
335.2499999999997158
  0
ARC
  5
193
100
AcDbEntity
  8
0
 62
256
370
-1
  6
ByLayer
100
AcDbCircle
 10
165.3216160837948792
 20
89.1649225848185836
 30
0.0
 40
8.2892520696423251
100
AcDbArc
 50
258.2806440288379122
 51
274.7759182653846324
  0
ARC
  5
194
100
AcDbEntity
  8
0
 62
256
370
-1
  6
ByLayer
100
AcDbCircle
 10
157.7493074772483794
 20
74.3034301626833553
 30
0.0
 40
8.2892520696423801
100
AcDbArc
 50
31.2240817346154351
 51
47.7193559711620736
  0
ARC
  5
195
100
AcDbEntity
  8
0
 62
256
370
-1
  6
ByLayer
100
AcDbCircle
 10
155.6916662637321451
 20
84.7117389111975712
 30
0.0
 40
8.7500000000015472
100
AcDbArc
 50
348.7500000000005116
 51
353.2499999999997158
  0
ARC
  5
196
100
AcDbEntity
  8
0
 62
256
370
-1
  6
ByLayer
100
AcDbCircle
 10
163.4741833574761074
 20
91.9227864116316766
 30
0.0
 40
8.2892520696422025
100
AcDbArc
 50
276.2806440288377416
 51
292.7759182653846892
  0
ARC
  5
197
100
AcDbEntity
  8
0
 62
256
370
-1
  6
ByLayer
100
AcDbCircle
 10
160.8649436340364787
 20
75.4486951556146721
 30
0.0
 40
8.2892520696423126
100
AcDbArc
 50
49.2240817346151758
 51
65.7193559711622157
  0
ARC
  5
198
100
AcDbEntity
  8
0
 62
256
370
-1
  6
ByLayer
100
AcDbCircle
 10
155.691666263731463
 20
84.7117389111975712
 30
0.0
 40
8.7500000000008278
100
AcDbArc
 50
6.7499999999999876
 51
11.2499999999996056
  0
ARC
  5
199
100
AcDbEntity
  8
0
 62
256
370
-1
  6
ByLayer
100
AcDbCircle
 10
160.8649436340365355
 20
93.9747826667802713
 30
0.0
 40
8.2892520696422594
100
AcDbArc
 50
294.2806440288377416
 51
310.7759182653846892
  0
ARC
  5
19A
100
AcDbEntity
  8
0
 62
256
370
-1
  6
ByLayer
100
AcDbCircle
 10
163.474183357476079
 20
77.500691410763153
 30
0.0
 40
8.2892520696422558
100
AcDbArc
 50
67.224081734615325
 51
83.7193559711622157
  0
ARC
  5
19B
100
AcDbEntity
  8
0
 62
256
370
-1
  6
ByLayer
100
AcDbCircle
 10
155.6916662637316051
 20
84.7117389111975712
 30
0.0
 40
8.7500000000009646
100
AcDbArc
 50
24.7500000000002416
 51
29.2499999999999112
  0
ARC
  5
19C
100
AcDbEntity
  8
0
 62
256
370
-1
  6
ByLayer
100
AcDbCircle
 10
157.7493074772483226
 20
95.1200476597115028
 30
0.0
 40
8.2892520696423961
100
AcDbArc
 50
312.2806440288380259
 51
328.7759182653846324
  0
ARC
  5
19D
100
AcDbEntity
  8
0
 62
256
370
-1
  6
ByLayer
100
AcDbCircle
 10
165.3216160837948223
 20
80.2585552375763314
 30
0.0
 40
8.2892520696423251
100
AcDbArc
 50
85.2240817346154387
 51
101.719355971162102
  0
ARC
  5
19E
100
AcDbEntity
  8
0
 62
256
370
-1
  6
ByLayer
100
AcDbCircle
 10
155.6916662637308946
 20
84.7117389111975712
 30
0.0
 40
8.7500000000002824
100
AcDbArc
 50
42.7500000000001421
 51
47.2500000000000142
  0
ARC
  5
19F
100
AcDbEntity
  8
0
 62
256
370
-1
  6
ByLayer
100
AcDbCircle
 10
154.4322550620520076
 20
95.2464748733867452
 30
0.0
 40
8.2892520696422647
100
AcDbArc
 50
330.2806440288377985
 51
346.7759182653848029
  0
ARC
  5
1A0
100
AcDbEntity
  8
0
 62
256
370
-1
  6
ByLayer
100
AcDbCircle
 10
166.2264022259200829
 20
83.45232770951867
 30
0.0
 40
8.2892520696423002
100
AcDbArc
 50
103.2240817346152966
 51
119.7193559711621447
  0
ARC
  5
1A1
100
AcDbEntity
  8
0
 62
256
370
-1
  6
ByLayer
100
AcDbCircle
 10
155.6916662637317756
 20
84.7117389111975712
 30
0.0
 40
8.7500000000011138
100
AcDbArc
 50
60.7500000000003908
 51
65.2499999999997584
  0
ARC
  5
1A2
100
AcDbEntity
  8
0
 62
256
370
-1
  6
ByLayer
100
AcDbCircle
 10
151.2384825901096121
 20
94.3416887312615984
 30
0.0
 40
8.2892520696422185
100
AcDbArc
 50
348.2806440288376848
 51
4.7759182653846679
  0
ARC
  5
1A3
100
AcDbEntity
  8
0
 62
256
370
-1
  6
ByLayer
100
AcDbCircle
 10
166.0999750122447267
 20
86.7693801247151555
 30
0.0
 40
8.2892520696423482
100
AcDbArc
 50
121.2240817346154103
 51
137.7193559711621447
  0
ARC
  5
1A4
100
AcDbEntity
  8
0
 62
256
370
-1
  6
ByLayer
100
AcDbCircle
 10
155.6916662637322304
 20
84.7117389111975712
 30
0.0
 40
8.7500000000015827
100
AcDbArc
 50
78.7500000000004974
 51
83.2499999999996021
  0
ARC
  5
1A5
100
AcDbEntity
  8
0
 62
256
370
-1
  6
ByLayer
100
AcDbCircle
 10
148.4806187632965475
 20
92.494256004942855
 30
0.0
 40
8.2892520696422451
100
AcDbArc
 50
6.2806440288377772
 51
22.7759182653846679
  0
ARC
  5
1A6
100
AcDbEntity
  8
0
 62
256
370
-1
  6
ByLayer
100
AcDbCircle
 10
164.9547100193135236
 20
89.8850162815031695
 30
0.0
 40
8.2892520696423091
100
AcDbArc
 50
139.2240817346153676
 51
155.7193559711621731
  0
ARC
  5
1A7
100
AcDbEntity
  8
0
 62
256
370
-1
  6
ByLayer
100
AcDbCircle
 10
155.691666263731463
 20
84.7117389111975712
 30
0.0
 40
8.7500000000008171
100
AcDbArc
 50
96.7500000000002132
 51
101.2499999999996021
  0
ARC
  5
1A8
100
AcDbEntity
  8
0
 62
256
370
-1
  6
ByLayer
100
AcDbCircle
 10
146.4286225081485213
 20
89.8850162815032832
 30
0.0
 40
8.2892520696421972
100
AcDbArc
 50
24.2806440288377772
 51
40.7759182653848171
  0
ARC
  5
1A9
100
AcDbEntity
  8
0
 62
256
370
-1
  6
ByLayer
100
AcDbCircle
 10
162.9027137641649858
 20
92.4942560049428835
 30
0.0
 40
8.2892520696422398
100
AcDbArc
 50
157.2240817346152255
 51
173.7193559711622015
  0
ARC
  5
1AA
100
AcDbEntity
  8
0
 62
256
370
-1
  6
ByLayer
100
AcDbCircle
 10
155.6916662637314346
 20
84.7117389111975712
 30
0.0
 40
8.750000000000826
100
AcDbArc
 50
114.7500000000002416
 51
119.2499999999998153
  0
ARC
  5
1AB
100
AcDbEntity
  8
0
 62
256
370
-1
  6
ByLayer
100
AcDbCircle
 10
145.2833575152169487
 20
86.7693801247151839
 30
0.0
 40
8.2892520696423073
100
AcDbArc
 50
42.2806440288379264
 51
58.7759182653846679
  0
ARC
  5
1AC
100
AcDbEntity
  8
0
 62
256
370
-1
  6
ByLayer
100
AcDbCircle
 10
160.1448499373518644
 20
94.34168873126157
 30
0.0
 40
8.2892520696423322
100
AcDbArc
 50
175.2240817346153392
 51
191.719355971162031
  0
ARC
  5
1AD
100
AcDbEntity
  8
0
 62
256
370
-1
  6
ByLayer
100
AcDbCircle
 10
155.6916662637308946
 20
84.7117389111975712
 30
0.0
 40
8.7500000000002824
100
AcDbArc
 50
132.7500000000001421
 51
137.2499999999999716
  0
ARC
  5
1AE
100
AcDbEntity
  8
0
 62
256
370
-1
  6
ByLayer
100
AcDbCircle
 10
145.1569303015413368
 20
83.4523277095186842
 30
0.0
 40
8.2892520696422647
100
AcDbArc
 50
60.2806440288377772
 51
76.7759182653848171
  0
ARC
  5
1AF
100
AcDbEntity
  8
0
 62
256
370
-1
  6
ByLayer
100
AcDbCircle
 10
156.9510774654094689
 20
95.2464748733868021
 30
0.0
 40
8.2892520696423002
100
AcDbArc
 50
193.2240817346152824
 51
209.7193559711622015
  0
ARC
  5
1B0
100
AcDbEntity
  8
0
 62
256
370
-1
  6
ByLayer
100
AcDbCircle
 10
155.6916662637319178
 20
84.7117389111975712
 30
0.0
 40
8.7500000000012612
100
AcDbArc
 50
150.7500000000003979
 51
155.249999999999801
  0
ARC
  5
1B1
100
AcDbEntity
  8
0
 62
256
370
-1
  6
ByLayer
100
AcDbCircle
 10
146.0617164436525002
 20
80.2585552375764166
 30
0.0
 40
8.2892520696422611
100
AcDbArc
 50
78.2806440288377701
 51
94.7759182653846466
  0
ARC
  5
1B2
100
AcDbEntity
  8
0
 62
256
370
-1
  6
ByLayer
100
AcDbCircle
 10
153.6340250502130402
 20
95.1200476597114744
 30
0.0
 40
8.2892520696423446
100
AcDbArc
 50
211.2240817346153108
 51
227.7193559711620026
  0
ARC
  5
1B3
100
AcDbEntity
  8
0
 62
256
370
-1
  6
ByLayer
100
AcDbCircle
 10
155.691666263731463
 20
84.7117389111975712
 30
0.0
 40
8.7500000000008402
100
AcDbArc
 50
168.7500000000001705
 51
173.249999999999801
  0
ARC
  5
1B4
100
AcDbEntity
  8
0
 62
256
370
-1
  6
ByLayer
100
AcDbCircle
 10
147.9091491699853123
 20
77.5006914107630962
 30
0.0
 40
8.289252069642286
100
AcDbArc
 50
96.2806440288377701
 51
112.7759182653846324
  0
ARC
  5
1B5
100
AcDbEntity
  8
0
 62
256
370
-1
  6
ByLayer
100
AcDbCircle
 10
150.5183888934249978
 20
93.9747826667802997
 30
0.0
 40
8.2892520696422665
100
AcDbArc
 50
229.2240817346153392
 51
245.7193559711620594
  0
ARC
  5
1B6
100
AcDbEntity
  8
0
 62
256
370
-1
  6
ByLayer
100
AcDbCircle
 10
147.9091491699854828
 20
91.9227864116318187
 30
0.0
 40
8.2892520696422558
100
AcDbArc
 50
247.2240817346153392
 51
263.7193559711621447
  0
ARC
  5
1B7
100
AcDbEntity
  8
0
 62
256
370
-1
  6
ByLayer
100
AcDbCircle
 10
155.691666263731463
 20
84.7117389111975712
 30
0.0
 40
8.7500000000008171
100
AcDbArc
 50
186.750000000000199
 51
191.2499999999996021
  0
ARC
  5
1B8
100
AcDbEntity
  8
0
 62
256
370
-1
  6
ByLayer
100
AcDbCircle
 10
150.5183888934248841
 20
75.4486951556147005
 30
0.0
 40
8.2892520696422594
100
AcDbArc
 50
114.2806440288377274
 51
130.7759182653846324
  0
ARC
  5
1B9
100
AcDbEntity
  8
0
 62
256
370
-1
  6
ByLayer
100
AcDbCircle
 10
155.6916662637319462
 20
84.7117389111975712
 30
0.0
 40
10.9999999999986802
100
AcDbArc
 50
213.749999999999801
 51
218.2500000000003126
  0
ARC
  5
1BA
100
AcDbEntity
  8
0
 62
256
370
-1
  6
ByLayer
100
AcDbCircle
 10
155.6916662637310935
 20
84.7117389111975712
 30
0.0
 40
11.0000000000004494
100
AcDbArc
 50
231.750000000000199
 51
236.25
  0
ARC
  5
1BB
100
AcDbEntity
  8
0
 62
256
370
-1
  6
ByLayer
100
AcDbCircle
 10
155.6916662637307809
 20
84.7117389111975712
 30
0.0
 40
10.9999999999998597
100
AcDbArc
 50
249.7500000000000853
 51
254.25
  0
ARC
  5
1BC
100
AcDbEntity
  8
0
 62
256
370
-1
  6
ByLayer
100
AcDbCircle
 10
155.6916662637307525
 20
84.7117389111975712
 30
0.0
 40
10.9999999999999201
100
AcDbArc
 50
267.75
 51
272.25
  0
ARC
  5
1BD
100
AcDbEntity
  8
0
 62
256
370
-1
  6
ByLayer
100
AcDbCircle
 10
155.6916662637324293
 20
84.7117389111975712
 30
0.0
 40
11.0000000000017906
100
AcDbArc
 50
285.7500000000005116
 51
290.2499999999997158
  0
ARC
  5
1BE
100
AcDbEntity
  8
0
 62
256
370
-1
  6
ByLayer
100
AcDbCircle
 10
155.6916662637316335
 20
84.7117389111975712
 30
0.0
 40
10.9999999999989999
100
AcDbArc
 50
303.7499999999997726
 51
308.2500000000002274
  0
ARC
  5
1BF
100
AcDbEntity
  8
0
 62
256
370
-1
  6
ByLayer
100
AcDbCircle
 10
155.6916662637307525
 20
84.7117389111975712
 30
0.0
 40
10.9999999999999201
100
AcDbArc
 50
321.7500000000001705
 51
326.25
  0
ARC
  5
1C0
100
AcDbEntity
  8
0
 62
256
370
-1
  6
ByLayer
100
AcDbCircle
 10
155.6916662637314346
 20
84.7117389111975712
 30
0.0
 40
11.0000000000008296
100
AcDbArc
 50
339.7500000000001137
 51
344.2499999999998863
  0
ARC
  5
1C1
100
AcDbEntity
  8
0
 62
256
370
-1
  6
ByLayer
100
AcDbCircle
 10
155.691666263730724
 20
84.7117389111975712
 30
0.0
 40
10.9999999999999503
100
AcDbArc
 50
357.7500000000001137
 51
2.2500000000000129
  0
ARC
  5
1C2
100
AcDbEntity
  8
0
 62
256
370
-1
  6
ByLayer
100
AcDbCircle
 10
155.6916662637309514
 20
84.7117389111975712
 30
0.0
 40
11.0000000000003304
100
AcDbArc
 50
15.7499999999999876
 51
20.2500000000001137
  0
ARC
  5
1C3
100
AcDbEntity
  8
0
 62
256
370
-1
  6
ByLayer
100
AcDbCircle
 10
155.6916662637323441
 20
84.7117389111975712
 30
0.0
 40
10.9999999999982592
100
AcDbArc
 50
33.7499999999997868
 51
38.2500000000004192
  0
ARC
  5
1C4
100
AcDbEntity
  8
0
 62
256
370
-1
  6
ByLayer
100
AcDbCircle
 10
155.6916662637313777
 20
84.7117389111975712
 30
0.0
 40
11.0000000000007603
100
AcDbArc
 50
51.7500000000002913
 51
56.2499999999999076
  0
ARC
  5
1C5
100
AcDbEntity
  8
0
 62
256
370
-1
  6
ByLayer
100
AcDbCircle
 10
155.6916662637315767
 20
84.7117389111975712
 30
0.0
 40
11.0000000000009006
100
AcDbArc
 50
69.7500000000002416
 51
74.2499999999999147
  0
ARC
  5
1C6
100
AcDbEntity
  8
0
 62
256
370
-1
  6
ByLayer
100
AcDbCircle
 10
155.6916662637307809
 20
84.7117389111975712
 30
0.0
 40
10.9999999999999591
100
AcDbArc
 50
87.7499999999999858
 51
92.2500000000000284
  0
ARC
  5
1C7
100
AcDbEntity
  8
0
 62
256
370
-1
  6
ByLayer
100
AcDbCircle
 10
155.6916662637315198
 20
84.7117389111975712
 30
0.0
 40
10.9999999999990603
100
AcDbArc
 50
105.7499999999998863
 51
110.2500000000001705
  0
ARC
  5
1C8
100
AcDbEntity
  8
0
 62
256
370
-1
  6
ByLayer
100
AcDbCircle
 10
155.6916662637317472
 20
84.7117389111975712
 30
0.0
 40
10.9999999999988702
100
AcDbArc
 50
123.7499999999999289
 51
128.2500000000003695
  0
ARC
  5
1C9
100
AcDbEntity
  8
0
 62
256
370
-1
  6
ByLayer
100
AcDbCircle
 10
155.6916662637317756
 20
84.7117389111975712
 30
0.0
 40
11.0000000000011209
100
AcDbArc
 50
141.75000000000054
 51
146.2499999999998579
  0
ARC
  5
1CA
100
AcDbEntity
  8
0
 62
256
370
-1
  6
ByLayer
100
AcDbCircle
 10
155.6916662637313209
 20
84.7117389111975712
 30
0.0
 40
11.0000000000006501
100
AcDbArc
 50
159.7500000000001421
 51
164.2499999999999716
  0
ARC
  5
1CB
100
AcDbEntity
  8
0
 62
256
370
-1
  6
ByLayer
100
AcDbCircle
 10
155.691666263730724
 20
84.7117389111975712
 30
0.0
 40
10.9999999999999591
100
AcDbArc
 50
177.7499999999999716
 51
182.2500000000000284
  0
ARC
  5
1CC
100
AcDbEntity
  8
0
 62
256
370
-1
  6
ByLayer
100
AcDbCircle
 10
155.6916662637307525
 20
84.7117389111975712
 30
0.0
 40
11.0000000000000409
100
AcDbArc
 50
195.7500000000000853
 51
200.25
  0
MTEXT
  5
1CD
100
AcDbEntity
100
AcDbMText
  8
Text
 62
256
370
-1
  6
ByLayer
 10
155.6916662637306956
 20
89.7117389111975001
 30
0.0
 40
2.0
 41
100.0
 71
5
 72
2
  1
Spur
  7
standard
 50
0.0
 73
0
 44
1.0
  0
MTEXT
  5
1CE
100
AcDbEntity
100
AcDbMText
  8
Text
 62
256
370
-1
  6
ByLayer
 10
155.6916662637306956
 20
79.7117389111975001
 30
0.0
 40
2.0
 41
100.0
 71
5
 72
2
  1
Gear
  7
standard
 50
0.0
 73
0
 44
1.0
  0
LINE
  5
1CF
100
AcDbEntity
100
AcDbLine
  8
0
 62
256
370
-1
  6
ByLayer
 10
158.2322567462760503
 20
86.8567389111975103
 30
0.0
 11
153.1510757811853409
 21
86.8567389111975103
 31
0.0
  0
ARC
  5
1D0
100
AcDbEntity
  8
0
 62
256
370
-1
  6
ByLayer
100
AcDbCircle
 10
155.6916662637307809
 20
84.7117389111975712
 30
0.0
 40
3.3250000000000002
100
AcDbArc
 50
319.8258680010101784
 51
40.1741319989898216
  0
ARC
  5
1D1
100
AcDbEntity
  8
0
 62
256
370
-1
  6
ByLayer
100
AcDbCircle
 10
155.6916662637307809
 20
84.7117389111975712
 30
0.0
 40
3.3250000000000002
100
AcDbArc
 50
139.8258680010101784
 51
220.1741319989898216
  0
LINE
  5
1D2
100
AcDbEntity
100
AcDbLine
  8
0
 62
256
370
-1
  6
ByLayer
 10
158.2322567462760503
 20
82.5667389111974899
 30
0.0
 11
153.1510757811853409
 21
82.5667389111975041
 31
0.0
  0
ENDSEC
  0
SECTION
  2
OBJECTS
  0
DICTIONARY
  5
C
100
AcDbDictionary
280
0
281
1
  3
ACAD_GROUP
350
D
  3
ACAD_LAYOUT
350
1A
  3
ACAD_MLINESTYLE
350
17
  3
ACAD_PLOTSETTINGS
350
19
  3
ACAD_PLOTSTYLENAME
350
E
  3
AcDbVariableDictionary
350
1D3
  0
DICTIONARY
  5
D
100
AcDbDictionary
280
0
281
1
  0
ACDBDICTIONARYWDFLT
  5
E
100
AcDbDictionary
281
1
  3
Normal
350
F
100
AcDbDictionaryWithDefault
340
F
  0
ACDBPLACEHOLDER
  5
F
  0
DICTIONARY
  5
17
100
AcDbDictionary
280
0
281
1
  3
Standard
350
18
  0
MLINESTYLE
  5
18
100
AcDbMlineStyle
  2
STANDARD
 70
0
  3

 62
256
 51
90.0
 52
90.0
 71
2
 49
0.5
 62
256
  6
BYLAYER
 49
-0.5
 62
256
  6
BYLAYER
  0
DICTIONARY
  5
19
100
AcDbDictionary
280
0
281
1
  0
DICTIONARY
  5
1A
100
AcDbDictionary
281
1
  3
Layout1
350
1E
  3
Layout2
350
26
  3
Model
350
22
  0
LAYOUT
  5
1E
100
AcDbPlotSettings
  1

  2
C:\Program Files\AutoCAD 2002\plotters\DWF ePlot (optimized for plotting).pc3
  4

  6

 40
0.0
 41
0.0
 42
0.0
 43
0.0
 44
0.0
 45
0.0
 46
0.0
 47
0.0
 48
0.0
 49
0.0
140
0.0
141
0.0
142
1.0
143
1.0
 70
688
 72
0
 73
0
 74
5
  7

 75
16
147
1.0
148
0.0
149
0.0
100
AcDbLayout
  1
Layout1
 70
1
 71
1
 10
0.0
 20
0.0
 11
420.0
 21
297.0
 12
0.0
 22
0.0
 32
0.0
 14
100000000000000000000.0
 24
100000000000000000000.0
 34
100000000000000000000.0
 15
-100000000000000000000.0
 25
-100000000000000000000.0
 35
-100000000000000000000.0
146
0.0
 13
0.0
 23
0.0
 33
0.0
 16
1.0
 26
0.0
 36
0.0
 17
0.0
 27
1.0
 37
0.0
 76
0
330
1B
  0
LAYOUT
  5
22
100
AcDbPlotSettings
  1

  2
C:\Program Files\AutoCAD 2002\plotters\DWF ePlot (optimized for plotting).pc3
  4

  6

 40
0.0
 41
0.0
 42
0.0
 43
0.0
 44
0.0
 45
0.0
 46
0.0
 47
0.0
 48
0.0
 49
0.0
140
0.0
141
0.0
142
1.0
143
1.0
 70
1712
 72
0
 73
0
 74
0
  7

 75
0
147
1.0
148
0.0
149
0.0
100
AcDbLayout
  1
Model
 70
1
 71
0
 10
0.0
 20
0.0
 11
12.0
 21
9.0
 12
0.0
 22
0.0
 32
0.0
 14
0.0
 24
0.0
 34
0.0
 15
0.0
 25
0.0
 35
0.0
146
0.0
 13
0.0
 23
0.0
 33
0.0
 16
1.0
 26
0.0
 36
0.0
 17
0.0
 27
1.0
 37
0.0
 76
0
330
1F
  0
LAYOUT
  5
26
100
AcDbPlotSettings
  1

  2
C:\Program Files\AutoCAD 2002\plotters\DWF ePlot (optimized for plotting).pc3
  4

  6

 40
0.0
 41
0.0
 42
0.0
 43
0.0
 44
0.0
 45
0.0
 46
0.0
 47
0.0
 48
0.0
 49
0.0
140
0.0
141
0.0
142
1.0
143
1.0
 70
688
 72
0
 73
0
 74
5
  7

 75
16
147
1.0
148
0.0
149
0.0
100
AcDbLayout
  1
Layout2
 70
1
 71
2
 10
0.0
 20
0.0
 11
12.0
 21
9.0
 12
0.0
 22
0.0
 32
0.0
 14
0.0
 24
0.0
 34
0.0
 15
0.0
 25
0.0
 35
0.0
146
0.0
 13
0.0
 23
0.0
 33
0.0
 16
1.0
 26
0.0
 36
0.0
 17
0.0
 27
1.0
 37
0.0
 76
0
330
23
  0
DICTIONARY
  5
1D3
100
AcDbDictionary
281
1
  3
DIMASSOC
350
1D5
  3
HIDETEXT
350
1D4
  0
DICTIONARYVAR
  5
1D4
100
DictionaryVariables
280
0
  1
2
  0
DICTIONARYVAR
  5
1D5
100
DictionaryVariables
280
0
  1
1
  0
ENDSEC
  0
EOF
