999
dxflib 2.1.2.0
  0
SECTION
  2
HEADER
  9
$ACADVER
  1
AC1015
  9
$HANDSEED
  5
FFFF
  9
$DIMASZ
 40
2.5
  9
$PLIMMIN
 10
0.0
 20
0.0
  9
$DIMEXE
 40
1.25
  9
$DIMGAP
 40
0.625
  9
$PLIMMAX
 10
210.0
 20
297.0
  9
$INSUNITS
 70
4
  9
$DIMSTYLE
  2
Standard
  9
$CLAYER
  8
0
  9
$DIMEXO
 40
0.625
  9
$DIMTXT
 40
2.5
  9
$CLAYER
  8
0
  0
ENDSEC
  0
SECTION
  2
TABLES
  0
TABLE
  2
VPORT
  5
8
100
AcDbSymbolTable
 70
1
  0
VPORT
  5
30
100
AcDbSymbolTableRecord
100
AcDbViewportTableRecord
  2
*Active
 70
0
 10
0.0
 20
0.0
 11
1.0
 21
1.0
 12
286.3055555555554861
 22
148.5
 13
0.0
 23
0.0
 14
10.0
 24
10.0
 15
10.0
 25
10.0
 16
0.0
 26
0.0
 36
1.0
 17
0.0
 27
0.0
 37
0.0
 40
297.0
 41
1.92798353909465
 42
50.0
 43
0.0
 44
0.0
 50
0.0
 51
0.0
 71
0
 72
100
 73
1
 74
3
 75
1
 76
1
 77
0
 78
0
281
0
 65
1
110
0.0
120
0.0
130
0.0
111
1.0
121
0.0
131
0.0
112
0.0
122
1.0
132
0.0
 79
0
146
0.0
  0
ENDTAB
  0
TABLE
  2
LTYPE
  5
5
100
AcDbSymbolTable
 70
21
  0
LTYPE
  5
14
100
AcDbSymbolTableRecord
100
AcDbLinetypeTableRecord
  2
ByBlock
 70
0
  3

 72
65
 73
0
 40
0.0
  0
LTYPE
  5
15
100
AcDbSymbolTableRecord
100
AcDbLinetypeTableRecord
  2
ByLayer
 70
0
  3

 72
65
 73
0
 40
0.0
  0
LTYPE
  5
16
100
AcDbSymbolTableRecord
100
AcDbLinetypeTableRecord
  2
CONTINUOUS
 70
0
  3
Solid line
 72
65
 73
0
 40
0.0
  0
LTYPE
  5
31
100
AcDbSymbolTableRecord
100
AcDbLinetypeTableRecord
  2
DOT
 70
0
  3
Dot . . . . . . . . . . . . . . . . . . . . . .
 72
65
 73
2
 40
6.3499999999999996
 49
0.0
 74
0
 49
-6.3499999999999996
 74
0
  0
LTYPE
  5
32
100
AcDbSymbolTableRecord
100
AcDbLinetypeTableRecord
  2
DOT2
 70
0
  3
Dot (.5x) .....................................
 72
65
 73
2
 40
3.1749999999999998
 49
0.0
 74
0
 49
-3.1749999999999998
 74
0
  0
LTYPE
  5
33
100
AcDbSymbolTableRecord
100
AcDbLinetypeTableRecord
  2
DOTX2
 70
0
  3
Dot (2x) .  .  .  .  .  .  .  .  .  .  .  .  .
 72
65
 73
2
 40
12.6999999999999993
 49
0.0
 74
0
 49
-12.6999999999999993
 74
0
  0
LTYPE
  5
34
100
AcDbSymbolTableRecord
100
AcDbLinetypeTableRecord
  2
DASHED
 70
0
  3
Dashed __ __ __ __ __ __ __ __ __ __ __ __ __ _
 72
65
 73
2
 40
19.0500000000000007
 49
12.6999999999999993
 74
0
 49
-6.3499999999999996
 74
0
  0
LTYPE
  5
35
100
AcDbSymbolTableRecord
100
AcDbLinetypeTableRecord
  2
DASHED2
 70
0
  3
Dashed (.5x) _ _ _ _ _ _ _ _ _ _ _ _ _ _ _ _ _
 72
65
 73
2
 40
9.5250000000000004
 49
6.3499999999999996
 74
0
 49
-3.1749999999999998
 74
0
  0
LTYPE
  5
36
100
AcDbSymbolTableRecord
100
AcDbLinetypeTableRecord
  2
DASHEDX2
 70
0
  3
Dashed (2x) ____  ____  ____  ____  ____  ___
 72
65
 73
2
 40
38.1000000000000014
 49
25.3999999999999986
 74
0
 49
-12.6999999999999993
 74
0
  0
LTYPE
  5
37
100
AcDbSymbolTableRecord
100
AcDbLinetypeTableRecord
  2
DASHDOT
 70
0
  3
Dash dot __ . __ . __ . __ . __ . __ . __ . __
 72
65
 73
4
 40
25.3999999999999986
 49
12.6999999999999993
 74
0
 49
-6.3499999999999996
 74
0
 49
0.0
 74
0
 49
-6.3499999999999996
 74
0
  0
LTYPE
  5
38
100
AcDbSymbolTableRecord
100
AcDbLinetypeTableRecord
  2
DASHDOT2
 70
0
  3
Dash dot (.5x) _._._._._._._._._._._._._._._.
 72
65
 73
4
 40
12.6999999999999993
 49
6.3499999999999996
 74
0
 49
-3.1749999999999998
 74
0
 49
0.0
 74
0
 49
-3.1749999999999998
 74
0
  0
LTYPE
  5
39
100
AcDbSymbolTableRecord
100
AcDbLinetypeTableRecord
  2
DASHDOTX2
 70
0
  3
Dash dot (2x) ____  .  ____  .  ____  .  ___
 72
65
 73
4
 40
50.7999999999999972
 49
25.3999999999999986
 74
0
 49
-12.6999999999999993
 74
0
 49
0.0
 74
0
 49
-12.6999999999999993
 74
0
  0
LTYPE
  5
3A
100
AcDbSymbolTableRecord
100
AcDbLinetypeTableRecord
  2
DIVIDE
 70
0
  3
Divide ____ . . ____ . . ____ . . ____ . . ____
 72
65
 73
6
 40
31.75
 49
12.6999999999999993
 74
0
 49
-6.3499999999999996
 74
0
 49
0.0
 74
0
 49
-6.3499999999999996
 74
0
 49
0.0
 74
0
 49
-6.3499999999999996
 74
0
  0
LTYPE
  5
3B
100
AcDbSymbolTableRecord
100
AcDbLinetypeTableRecord
  2
DIVIDE2
 70
0
  3
Divide (.5x) __..__..__..__..__..__..__..__.._
 72
65
 73
6
 40
15.875
 49
6.3499999999999996
 74
0
 49
-3.1749999999999998
 74
0
 49
0.0
 74
0
 49
-3.1749999999999998
 74
0
 49
0.0
 74
0
 49
-3.1749999999999998
 74
0
  0
LTYPE
  5
3C
100
AcDbSymbolTableRecord
100
AcDbLinetypeTableRecord
  2
DIVIDEX2
 70
0
  3
Divide (2x) ________  .  .  ________  .  .  _
 72
65
 73
6
 40
63.5
 49
25.3999999999999986
 74
0
 49
-12.6999999999999993
 74
0
 49
0.0
 74
0
 49
-12.6999999999999993
 74
0
 49
0.0
 74
0
 49
-12.6999999999999993
 74
0
  0
LTYPE
  5
3D
100
AcDbSymbolTableRecord
100
AcDbLinetypeTableRecord
  2
CENTER
 70
0
  3
Center ____ _ ____ _ ____ _ ____ _ ____ _ ____
 72
65
 73
4
 40
50.7999999999999972
 49
31.75
 74
0
 49
-6.3499999999999996
 74
0
 49
6.3499999999999996
 74
0
 49
-6.3499999999999996
 74
0
  0
LTYPE
  5
3E
100
AcDbSymbolTableRecord
100
AcDbLinetypeTableRecord
  2
CENTER2
 70
0
  3
Center (.5x) ___ _ ___ _ ___ _ ___ _ ___ _ ___
 72
65
 73
4
 40
28.5749999999999993
 49
19.0500000000000007
 74
0
 49
-3.1749999999999998
 74
0
 49
3.1749999999999998
 74
0
 49
-3.1749999999999998
 74
0
  0
LTYPE
  5
3F
100
AcDbSymbolTableRecord
100
AcDbLinetypeTableRecord
  2
CENTERX2
 70
0
  3
Center (2x) ________  __  ________  __  _____
 72
65
 73
4
 40
101.5999999999999943
 49
63.5
 74
0
 49
-12.6999999999999993
 74
0
 49
12.6999999999999993
 74
0
 49
-12.6999999999999993
 74
0
  0
LTYPE
  5
40
100
AcDbSymbolTableRecord
100
AcDbLinetypeTableRecord
  2
BORDER
 70
0
  3
Border __ __ . __ __ . __ __ . __ __ . __ __ .
 72
65
 73
6
 40
44.4500000000000028
 49
12.6999999999999993
 74
0
 49
-6.3499999999999996
 74
0
 49
12.6999999999999993
 74
0
 49
-6.3499999999999996
 74
0
 49
0.0
 74
0
 49
-6.3499999999999996
 74
0
  0
LTYPE
  5
41
100
AcDbSymbolTableRecord
100
AcDbLinetypeTableRecord
  2
BORDER2
 70
0
  3
Border (.5x) __.__.__.__.__.__.__.__.__.__.__.
 72
65
 73
6
 40
22.2250000000000014
 49
6.3499999999999996
 74
0
 49
-3.1749999999999998
 74
0
 49
6.3499999999999996
 74
0
 49
-3.1749999999999998
 74
0
 49
0.0
 74
0
 49
-3.1749999999999998
 74
0
  0
LTYPE
  5
42
100
AcDbSymbolTableRecord
100
AcDbLinetypeTableRecord
  2
BORDERX2
 70
0
  3
Border (2x) ____  ____  .  ____  ____  .  ___
 72
65
 73
6
 40
88.9000000000000057
 49
25.3999999999999986
 74
0
 49
-12.6999999999999993
 74
0
 49
25.3999999999999986
 74
0
 49
-12.6999999999999993
 74
0
 49
0.0
 74
0
 49
-12.6999999999999993
 74
0
  0
ENDTAB
  0
TABLE
  2
LAYER
  5
2
100
AcDbSymbolTable
 70
4
  0
LAYER
  5
10
100
AcDbSymbolTableRecord
100
AcDbLayerTableRecord
  2
0
 70
0
 62
7
  6
CONTINUOUS
370
0
390
F
  0
LAYER
  5
43
100
AcDbSymbolTableRecord
100
AcDbLayerTableRecord
  2
Bottom Layer
 70
0
 62
7
  6
CONTINUOUS
370
0
390
F
  0
LAYER
  5
44
100
AcDbSymbolTableRecord
100
AcDbLayerTableRecord
  2
Top
 70
0
 62
7
  6
CONTINUOUS
370
0
390
F
  0
LAYER
  5
45
100
AcDbSymbolTableRecord
100
AcDbLayerTableRecord
  2
Bottom
 70
0
 62
7
  6
CONTINUOUS
370
0
390
F
  0
ENDTAB
  0
TABLE
  2
STYLE
  5
3
100
AcDbSymbolTable
 70
1
  0
STYLE
  5
11
100
AcDbSymbolTableRecord
100
AcDbTextStyleTableRecord
  2
Standard
 70
0
 40
0.0
 41
0.75
 50
0.0
 71
0
 42
2.5
  3
txt
  4

  0
ENDTAB
  0
TABLE
  2
VIEW
  5
6
100
AcDbSymbolTable
 70
0
  0
ENDTAB
  0
TABLE
  2
UCS
  5
7
100
AcDbSymbolTable
 70
0
  0
ENDTAB
  0
TABLE
  2
APPID
  5
9
100
AcDbSymbolTable
 70
1
  0
APPID
  5
12
100
AcDbSymbolTableRecord
100
AcDbRegAppTableRecord
  2
ACAD
 70
0
  0
ENDTAB
  0
TABLE
  2
DIMSTYLE
  5
A
100
AcDbSymbolTable
 70
1
100
AcDbDimStyleTable
 71
0
  0
DIMSTYLE
105
27
100
AcDbSymbolTableRecord
100
AcDbDimStyleTableRecord
  2
Standard
 41
2.5
 42
0.625
 43
3.75
 44
1.25
 70
0
 73
0
 74
0
 77
1
 78
8
140
2.5
141
2.5
143
0.03937007874016
147
0.625
171
3
172
1
271
2
272
2
274
3
278
44
283
0
284
8
340
11
  0
ENDTAB
  0
TABLE
  2
BLOCK_RECORD
  5
1
100
AcDbSymbolTable
 70
1
  0
BLOCK_RECORD
  5
1F
100
AcDbSymbolTableRecord
100
AcDbBlockTableRecord
  2
*Model_Space
340
22
  0
BLOCK_RECORD
  5
1B
100
AcDbSymbolTableRecord
100
AcDbBlockTableRecord
  2
*Paper_Space
340
1E
  0
BLOCK_RECORD
  5
23
100
AcDbSymbolTableRecord
100
AcDbBlockTableRecord
  2
*Paper_Space0
340
26
  0
ENDTAB
  0
ENDSEC
  0
SECTION
  2
BLOCKS
  0
BLOCK
  5
20
100
AcDbEntity
  8
0
100
AcDbBlockBegin
  2
*Model_Space
 70
0
 10
0.0
 20
0.0
 30
0.0
  3
*Model_Space
  1

  0
ENDBLK
  5
21
100
AcDbEntity
  8
0
100
AcDbBlockEnd
  0
BLOCK
  5
1C
100
AcDbEntity
 67
1
  8
0
100
AcDbBlockBegin
  2
*Paper_Space
 70
0
 10
0.0
 20
0.0
 30
0.0
  3
*Paper_Space
  1

  0
ENDBLK
  5
1D
100
AcDbEntity
 67
1
  8
0
100
AcDbBlockEnd
  0
BLOCK
  5
24
100
AcDbEntity
  8
0
100
AcDbBlockBegin
  2
*Paper_Space0
 70
0
 10
0.0
 20
0.0
 30
0.0
  3
*Paper_Space0
  1

  0
ENDBLK
  5
25
100
AcDbEntity
  8
0
100
AcDbBlockEnd
  0
ENDSEC
  0
SECTION
  2
ENTITIES
  0
ELLIPSE
  5
46
100
AcDbEntity
100
AcDbEllipse
  8
Bottom Layer
 62
256
370
-1
  6
ByLayer
 10
20.4608754544522355
 20
45.5487687463009934
 30
0.0
 11
0.766610250398976
 21
3.9258513374786901
 31
0.0
 40
0.4500000000000001
 41
0.0
 42
6.2831853071795862
  0
CIRCLE
  5
47
100
AcDbEntity
100
AcDbCircle
  8
Bottom Layer
 62
256
370
-1
  6
ByLayer
 10
18.2128916545005346
 20
11.6002920671456593
 30
0.0
 40
2.4249999999999998
  0
CIRCLE
  5
48
100
AcDbEntity
100
AcDbCircle
  8
Bottom Layer
 62
256
370
-1
  6
ByLayer
 10
25.1123839080913172
 20
46.9329541044538701
 30
0.0
 40
2.4249999999999998
  0
LINE
  5
49
100
AcDbEntity
100
AcDbLine
  8
Bottom Layer
 62
256
370
-1
  6
ByLayer
 10
12.1957767931332306
 20
9.3475262681524782
 30
0.0
 11
6.8188602633704249
 21
23.7092164065715849
 31
0.0
  0
ARC
  5
4A
100
AcDbEntity
  8
Bottom Layer
 62
256
370
-1
  6
ByLayer
100
AcDbCircle
 10
21.6626377812959277
 20
29.2666230857996652
 30
0.0
 40
15.8499999999999996
100
AcDbArc
 50
137.3759674952218006
 51
200.5255493212027034
  0
LINE
  5
4B
100
AcDbEntity
100
AcDbLine
  8
Bottom Layer
 62
256
370
-1
  6
ByLayer
 10
9.9999999999999414
 20
40.0000000000001137
 30
0.0
 11
20.384784681288437
 21
51.2838655665192391
 31
0.0
  0
ARC
  5
4C
100
AcDbEntity
  8
Bottom Layer
 62
256
370
-1
  6
ByLayer
100
AcDbCircle
 10
25.1123839080913172
 20
46.9329541044538701
 30
0.0
 40
6.424999999999998
100
AcDbArc
 50
20.5255493212026998
 51
137.3759674952219996
  0
LINE
  5
4D
100
AcDbEntity
100
AcDbLine
  8
Bottom Layer
 62
256
370
-1
  6
ByLayer
 10
31.1294987694585359
 20
49.1857199034469659
 30
0.0
 11
36.5064152992214304
 21
34.8240297650278592
 31
0.0
  0
ARC
  5
4E
100
AcDbEntity
  8
Bottom Layer
 62
256
370
-1
  6
ByLayer
100
AcDbCircle
 10
21.6626377812959277
 20
29.2666230857996652
 30
0.0
 40
15.8499999999999996
100
AcDbArc
 50
317.3759674952219143
 51
20.5255493212026998
  0
LINE
  5
4F
100
AcDbEntity
100
AcDbLine
  8
Bottom Layer
 62
256
370
-1
  6
ByLayer
 10
33.3252755625918198
 20
18.5332461715993446
 30
0.0
 11
22.9404908813033899
 21
7.2493806050801766
 31
0.0
  0
ARC
  5
50
100
AcDbEntity
  8
Bottom Layer
 62
256
370
-1
  6
ByLayer
100
AcDbCircle
 10
18.2128916545005346
 20
11.6002920671456593
 30
0.0
 40
6.4249999999999998
100
AcDbArc
 50
200.5255493212027034
 51
317.3759674952218006
  0
CIRCLE
  5
51
100
AcDbEntity
100
AcDbCircle
  8
Bottom Layer
 62
256
370
-1
  6
ByLayer
 10
21.6626377812959277
 20
29.2666230857996652
 30
0.0
 40
8.0
  0
ELLIPSE
  5
52
100
AcDbEntity
100
AcDbEllipse
  8
Bottom Layer
 62
256
370
-1
  6
ByLayer
 10
60.4608754544522355
 20
45.5487687463009934
 30
0.0
 11
0.766610250398976
 21
3.9258513374786901
 31
0.0
 40
0.4500000000000001
 41
0.0
 42
6.2831853071795862
  0
CIRCLE
  5
53
100
AcDbEntity
100
AcDbCircle
  8
Bottom Layer
 62
256
370
-1
  6
ByLayer
 10
58.2128916545005382
 20
11.6002920671456593
 30
0.0
 40
2.4249999999999998
  0
CIRCLE
  5
54
100
AcDbEntity
100
AcDbCircle
  8
Bottom Layer
 62
256
370
-1
  6
ByLayer
 10
65.1123839080913172
 20
46.9329541044538701
 30
0.0
 40
2.4249999999999998
  0
LINE
  5
55
100
AcDbEntity
100
AcDbLine
  8
Bottom Layer
 62
256
370
-1
  6
ByLayer
 10
52.1957767931332342
 20
9.3475262681524782
 30
0.0
 11
46.8188602633704249
 21
23.7092164065715849
 31
0.0
  0
ARC
  5
56
100
AcDbEntity
  8
Bottom Layer
 62
256
370
-1
  6
ByLayer
100
AcDbCircle
 10
61.6626377812959277
 20
29.2666230857996652
 30
0.0
 40
15.8499999999999996
100
AcDbArc
 50
137.3759674952218006
 51
200.5255493212027034
  0
LINE
  5
57
100
AcDbEntity
100
AcDbLine
  8
Bottom Layer
 62
256
370
-1
  6
ByLayer
 10
49.9999999999999432
 20
40.0000000000001137
 30
0.0
 11
60.384784681288437
 21
51.2838655665192391
 31
0.0
  0
ARC
  5
58
100
AcDbEntity
  8
Bottom Layer
 62
256
370
-1
  6
ByLayer
100
AcDbCircle
 10
65.1123839080913172
 20
46.9329541044538701
 30
0.0
 40
6.424999999999998
100
AcDbArc
 50
20.5255493212026998
 51
137.3759674952219996
  0
LINE
  5
59
100
AcDbEntity
100
AcDbLine
  8
Bottom Layer
 62
256
370
-1
  6
ByLayer
 10
71.1294987694585359
 20
49.1857199034469659
 30
0.0
 11
76.5064152992214304
 21
34.8240297650278592
 31
0.0
  0
ARC
  5
5A
100
AcDbEntity
  8
Bottom Layer
 62
256
370
-1
  6
ByLayer
100
AcDbCircle
 10
61.6626377812959277
 20
29.2666230857996652
 30
0.0
 40
15.8499999999999996
100
AcDbArc
 50
317.3759674952219143
 51
20.5255493212026998
  0
LINE
  5
5B
100
AcDbEntity
100
AcDbLine
  8
Bottom Layer
 62
256
370
-1
  6
ByLayer
 10
73.3252755625918127
 20
18.5332461715993446
 30
0.0
 11
62.9404908813033899
 21
7.2493806050801766
 31
0.0
  0
ARC
  5
5C
100
AcDbEntity
  8
Bottom Layer
 62
256
370
-1
  6
ByLayer
100
AcDbCircle
 10
58.2128916545005382
 20
11.6002920671456593
 30
0.0
 40
6.4249999999999998
100
AcDbArc
 50
200.5255493212027034
 51
317.3759674952218006
  0
CIRCLE
  5
5D
100
AcDbEntity
100
AcDbCircle
  8
Bottom Layer
 62
256
370
-1
  6
ByLayer
 10
61.6626377812959277
 20
29.2666230857996652
 30
0.0
 40
8.0
  0
CIRCLE
  5
5E
100
AcDbEntity
100
AcDbCircle
  8
Top
 62
256
370
-1
  6
ByLayer
 10
87.0067006099661739
 20
12.653329749884664
 30
0.0
 40
3.999999999999992
  0
CIRCLE
  5
5F
100
AcDbEntity
100
AcDbCircle
  8
Top
 62
256
370
-1
  6
ByLayer
 10
87.0067006099661739
 20
12.653329749884664
 30
0.0
 40
9.499999999999984
  0
ARC
  5
60
100
AcDbEntity
  8
0
 62
256
370
-1
  6
ByLayer
100
AcDbCircle
 10
97.4518801342944414
 20
43.9177526436202896
 30
0.0
 40
18.7500000000019398
100
AcDbArc
 50
146.6503120789178922
 51
148.9003120789176933
  0
ARC
  5
61
100
AcDbEntity
  8
0
 62
256
370
-1
  6
ByLayer
100
AcDbCircle
 10
78.1402213393685372
 20
42.927551103655297
 30
0.0
 40
11.1608015372597205
100
AcDbArc
 50
73.0349136620844206
 51
85.2819739417273013
  0
ARC
  5
62
100
AcDbEntity
  8
0
 62
256
370
-1
  6
ByLayer
100
AcDbCircle
 10
90.0159635174673696
 20
61.7679013424122942
 30
0.0
 40
11.1608015372601503
100
AcDbArc
 50
210.2686502161085969
 51
222.5157104957509944
  0
ARC
  5
63
100
AcDbEntity
  8
0
 62
256
370
-1
  6
ByLayer
100
AcDbCircle
 10
97.4518801342931198
 20
43.9177526436210783
 30
0.0
 40
18.7500000000003517
100
AcDbArc
 50
155.650312078917807
 51
157.9003120789174091
  0
ARC
  5
64
100
AcDbEntity
  8
0
 62
256
370
-1
  6
ByLayer
100
AcDbCircle
 10
78.5328815531811557
 20
39.9187331151343017
 30
0.0
 40
11.1608015372594895
100
AcDbArc
 50
82.0349136620843211
 51
94.2819739417273865
  0
ARC
  5
65
100
AcDbEntity
  8
0
 62
256
370
-1
  6
ByLayer
100
AcDbCircle
 10
87.3151335276326961
 20
60.3849027532698059
 30
0.0
 40
11.1608015372600704
100
AcDbArc
 50
219.2686502161085969
 51
231.5157104957509091
  0
ARC
  5
66
100
AcDbEntity
  8
0
 62
256
370
-1
  6
ByLayer
100
AcDbCircle
 10
97.4518801343010068
 20
43.9177526436192949
 30
0.0
 40
18.7500000000084484
100
AcDbArc
 50
164.6503120789184038
 51
166.9003120789174943
  0
ARC
  5
67
100
AcDbEntity
  8
0
 62
256
370
-1
  6
ByLayer
100
AcDbCircle
 10
79.3913903006171751
 20
37.0083842593891958
 30
0.0
 40
11.1608015372596103
100
AcDbArc
 50
91.0349136620844064
 51
103.2819739417274008
  0
ARC
  5
68
100
AcDbEntity
  8
0
 62
256
370
-1
  6
ByLayer
100
AcDbCircle
 10
84.86390388118717
 20
58.5964282770896077
 30
0.0
 40
11.1608015372599105
100
AcDbArc
 50
228.2686502161085116
 51
240.5157104957511081
  0
ARC
  5
69
100
AcDbEntity
  8
0
 62
256
370
-1
  6
ByLayer
100
AcDbCircle
 10
97.4518801342967862
 20
43.9177526436210073
 30
0.0
 40
18.7500000000039897
100
AcDbArc
 50
173.6503120789180912
 51
175.900312078917807
  0
ARC
  5
6A
100
AcDbEntity
  8
0
 62
256
370
-1
  6
ByLayer
100
AcDbCircle
 10
80.694608247087757
 20
34.2681669841425034
 30
0.0
 40
11.1608015372602001
100
AcDbArc
 50
100.0349136620847048
 51
112.2819739417270029
  0
ARC
  5
6B
100
AcDbEntity
  8
0
 62
256
370
-1
  6
ByLayer
100
AcDbCircle
 10
82.7226319871912921
 20
56.446516091082394
 30
0.0
 40
11.1608015372601503
100
AcDbArc
 50
237.2686502161086253
 51
249.5157104957509091
  0
ARC
  5
6C
100
AcDbEntity
  8
0
 62
256
370
-1
  6
ByLayer
100
AcDbCircle
 10
97.4518801342892402
 20
43.9177526436210073
 30
0.0
 40
18.7499999999964189
100
AcDbArc
 50
182.6503120789172954
 51
184.9003120789176933
  0
ARC
  5
6D
100
AcDbEntity
  8
0
 62
256
370
-1
  6
ByLayer
100
AcDbCircle
 10
82.4104458416179426
 20
31.7655545329719118
 30
0.0
 40
11.1608015372597205
100
AcDbArc
 50
109.0349136620844064
 51
121.2819739417272018
  0
ARC
  5
6E
100
AcDbEntity
  8
0
 62
256
370
-1
  6
ByLayer
100
AcDbCircle
 10
80.9440430661489501
 20
53.988104168416605
 30
0.0
 40
11.1608015372601805
100
AcDbArc
 50
246.2686502161087105
 51
258.5157104957509091
  0
ARC
  5
6F
100
AcDbEntity
  8
0
 62
256
370
-1
  6
ByLayer
100
AcDbCircle
 10
97.4518801342918835
 20
43.9177526436210854
 30
0.0
 40
18.7499999999990514
100
AcDbArc
 50
191.6503120789176933
 51
193.9003120789180059
  0
ARC
  5
70
100
AcDbEntity
  8
0
 62
256
370
-1
  6
ByLayer
100
AcDbCircle
 10
84.4966534680924326
 20
29.5621695301180019
 30
0.0
 40
11.1608015372599105
100
AcDbArc
 50
118.0349136620845201
 51
130.2819739417271023
  0
ARC
  5
71
100
AcDbEntity
  8
0
 62
256
370
-1
  6
ByLayer
100
AcDbCircle
 10
79.5719318800944393
 20
51.2817267696294081
 30
0.0
 40
11.1608015372598803
100
AcDbArc
 50
255.2686502161084263
 51
267.5157104957510228
  0
ARC
  5
72
100
AcDbEntity
  8
0
 62
256
370
-1
  6
ByLayer
100
AcDbCircle
 10
97.4518801342962178
 20
43.9177526436227126
 30
0.0
 40
18.7500000000036593
100
AcDbArc
 50
200.6503120789180059
 51
202.9003120789174091
  0
ARC
  5
73
100
AcDbEntity
  8
0
 62
256
370
-1
  6
ByLayer
100
AcDbCircle
 10
86.9018617710210037
 20
27.7122666269676117
 30
0.0
 40
11.1608015372600207
100
AcDbArc
 50
127.0349136620846195
 51
139.2819739417271023
  0
ARC
  5
74
100
AcDbEntity
  8
0
 62
256
370
-1
  6
ByLayer
100
AcDbCircle
 10
78.6400843602044972
 20
48.3940238882313096
 30
0.0
 40
11.1608015372599692
100
AcDbArc
 50
264.2686502161084832
 51
276.5157104957510796
  0
ARC
  5
75
100
AcDbEntity
  8
0
 62
256
370
-1
  6
ByLayer
100
AcDbCircle
 10
97.4518801342851475
 20
43.9177526436167156
 30
0.0
 40
18.7499999999910898
100
AcDbArc
 50
209.6503120789172101
 51
211.9003120789180059
  0
ARC
  5
76
100
AcDbEntity
  8
0
 62
256
370
-1
  6
ByLayer
100
AcDbCircle
 10
89.5668465395568063
 20
26.2613965724719023
 30
0.0
 40
11.1608015372599993
100
AcDbArc
 50
136.0349136620847048
 51
148.2819739417271876
  0
ARC
  5
77
100
AcDbEntity
  8
0
 62
256
370
-1
  6
ByLayer
100
AcDbCircle
 10
78.1714456850433663
 20
45.3961003528983156
 30
0.0
 40
11.1608015372599194
100
AcDbArc
 50
273.2686502161084832
 51
285.5157104957510796
  0
ARC
  5
78
100
AcDbEntity
  8
0
 62
256
370
-1
  6
ByLayer
100
AcDbCircle
 10
97.4518801343016605
 20
43.9177526436286954
 30
0.0
 40
18.7500000000115108
100
AcDbArc
 50
218.6503120789184038
 51
220.9003120789172101
  0
ARC
  5
79
100
AcDbEntity
  8
0
 62
256
370
-1
  6
ByLayer
100
AcDbCircle
 10
92.4259870041211258
 20
25.2452846025340918
 30
0.0
 40
11.1608015372599496
100
AcDbArc
 50
145.0349136620843922
 51
157.2819739417269886
  0
ARC
  5
7A
100
AcDbEntity
  8
0
 62
256
370
-1
  6
ByLayer
100
AcDbCircle
 10
78.177555294116118
 20
42.361774990608005
 30
0.0
 40
11.1608015372598306
100
AcDbArc
 50
282.2686502161084832
 51
294.5157104957511933
  0
ARC
  5
7B
100
AcDbEntity
  8
0
 62
256
370
-1
  6
ByLayer
100
AcDbCircle
 10
97.4518801342965872
 20
43.9177526436256116
 30
0.0
 40
18.7500000000057483
100
AcDbArc
 50
227.6503120789182901
 51
229.9003120789174091
  0
ARC
  5
7C
100
AcDbEntity
  8
0
 62
256
370
-1
  6
ByLayer
100
AcDbCircle
 10
95.4088816375332414
 20
24.6889507661363901
 30
0.0
 40
11.1608015372598697
100
AcDbArc
 50
154.0349136620847048
 51
166.2819739417273013
  0
ARC
  5
7D
100
AcDbEntity
  8
0
 62
256
370
-1
  6
ByLayer
100
AcDbCircle
 10
78.6582627485707206
 20
39.3657629621289047
 30
0.0
 40
11.1608015372598697
100
AcDbArc
 50
291.2686502161084263
 51
303.5157104957510796
  0
ARC
  5
7E
100
AcDbEntity
  8
0
 62
256
370
-1
  6
ByLayer
100
AcDbCircle
 10
97.4518801342938445
 20
43.9177526436229044
 30
0.0
 40
18.7500000000019398
100
AcDbArc
 50
236.6503120789179206
 51
238.900312078917608
  0
ARC
  5
7F
100
AcDbEntity
  8
0
 62
256
370
-1
  6
ByLayer
100
AcDbCircle
 10
98.4420816742587874
 20
24.6060938486970073
 30
0.0
 40
11.1608015372597205
100
AcDbArc
 50
163.0349136620845059
 51
175.2819739417273013
  0
ARC
  5
80
100
AcDbEntity
  8
0
 62
256
370
-1
  6
ByLayer
100
AcDbCircle
 10
79.6017314355017902
 20
36.4818360267959108
 30
0.0
 40
11.1608015372601503
100
AcDbArc
 50
300.2686502161087105
 51
312.5157104957510796
  0
ARC
  5
81
100
AcDbEntity
  8
0
 62
256
370
-1
  6
ByLayer
100
AcDbCircle
 10
97.4518801342934466
 20
43.9177526436227055
 30
0.0
 40
18.750000000001581
100
AcDbArc
 50
245.650312078917807
 51
247.9003120789177217
  0
ARC
  5
82
100
AcDbEntity
  8
0
 62
256
370
-1
  6
ByLayer
100
AcDbCircle
 10
101.4508996627805288
 20
24.9987540625096116
 30
0.0
 40
11.1608015372602498
100
AcDbArc
 50
172.0349136620847048
 51
184.2819739417269034
  0
ARC
  5
83
100
AcDbEntity
  8
0
 62
256
370
-1
  6
ByLayer
100
AcDbCircle
 10
80.9847300246444206
 20
33.7810060369611094
 30
0.0
 40
11.1608015372599603
100
AcDbArc
 50
309.2686502161085969
 51
321.5157104957509091
  0
ARC
  5
84
100
AcDbEntity
  8
0
 62
256
370
-1
  6
ByLayer
100
AcDbCircle
 10
97.4518801342948393
 20
43.9177526436294983
 30
0.0
 40
18.7500000000084484
100
AcDbArc
 50
254.6503120789184607
 51
256.9003120789175227
  0
ARC
  5
85
100
AcDbEntity
  8
0
 62
256
370
-1
  6
ByLayer
100
AcDbCircle
 10
104.3612485185250165
 20
25.8572628099457056
 30
0.0
 40
11.1608015372597809
100
AcDbArc
 50
181.0349136620843069
 51
193.2819739417271876
  0
ARC
  5
86
100
AcDbEntity
  8
0
 62
256
370
-1
  6
ByLayer
100
AcDbCircle
 10
82.7732045008244199
 20
31.3297763905157112
 30
0.0
 40
11.1608015372599496
100
AcDbArc
 50
318.2686502161084832
 51
330.5157104957510228
  0
ARC
  5
87
100
AcDbEntity
  8
0
 62
256
370
-1
  6
ByLayer
100
AcDbCircle
 10
97.4518801342928498
 20
43.9177526436217178
 30
0.0
 40
18.7500000000003411
100
AcDbArc
 50
263.650312078917807
 51
265.9003120789179206
  0
ARC
  5
88
100
AcDbEntity
  8
0
 62
256
370
-1
  6
ByLayer
100
AcDbCircle
 10
107.1014657937717942
 20
27.1604807564163018
 30
0.0
 40
11.1608015372603795
100
AcDbArc
 50
190.0349136620849038
 51
202.2819739417269886
  0
ARC
  5
89
100
AcDbEntity
  8
0
 62
256
370
-1
  6
ByLayer
100
AcDbCircle
 10
84.9231166868318184
 20
29.1885044965196911
 30
0.0
 40
11.1608015372599905
100
AcDbArc
 50
327.2686502161084832
 51
339.5157104957510796
  0
ARC
  5
8A
100
AcDbEntity
  8
0
 62
256
370
-1
  6
ByLayer
100
AcDbCircle
 10
97.4518801342927787
 20
43.917752643622002
 30
0.0
 40
18.7500000000007105
100
AcDbArc
 50
272.650312078917807
 51
274.9003120789175227
  0
ARC
  5
8B
100
AcDbEntity
  8
0
 62
256
370
-1
  6
ByLayer
100
AcDbCircle
 10
109.6040782449424853
 20
28.8763183509465868
 30
0.0
 40
11.1608015372599993
100
AcDbArc
 50
199.0349136620845911
 51
211.2819739417271876
  0
ARC
  5
8C
100
AcDbEntity
  8
0
 62
256
370
-1
  6
ByLayer
100
AcDbCircle
 10
87.3815286094978489
 20
27.4099155754772923
 30
0.0
 40
11.1608015372598199
100
AcDbArc
 50
336.2686502161084263
 51
348.5157104957510796
  0
ARC
  5
8D
100
AcDbEntity
  8
0
 62
256
370
-1
  6
ByLayer
100
AcDbCircle
 10
97.4518801342923382
 20
43.9177526436233876
 30
0.0
 40
18.7500000000021387
100
AcDbArc
 50
281.6503120789179206
 51
283.9003120789175227
  0
ARC
  5
8E
100
AcDbEntity
  8
0
 62
256
370
-1
  6
ByLayer
100
AcDbCircle
 10
111.8074632477960648
 20
30.9625259774208921
 30
0.0
 40
11.1608015372599105
100
AcDbArc
 50
208.0349136620845059
 51
220.2819739417271876
  0
ARC
  5
8F
100
AcDbEntity
  8
0
 62
256
370
-1
  6
ByLayer
100
AcDbCircle
 10
90.0879060082844489
 20
26.0378043894229947
 30
0.0
 40
11.1608015372601397
100
AcDbArc
 50
345.2686502161084832
 51
357.5157104957510796
  0
ARC
  5
90
100
AcDbEntity
  8
0
 62
256
370
-1
  6
ByLayer
100
AcDbCircle
 10
97.4518801342914571
 20
43.917752643624695
 30
0.0
 40
18.7500000000036593
100
AcDbArc
 50
290.6503120789179775
 51
292.9003120789175796
  0
ARC
  5
91
100
AcDbEntity
  8
0
 62
256
370
-1
  6
ByLayer
100
AcDbCircle
 10
113.6573661509464728
 20
33.367734280349481
 30
0.0
 40
11.1608015372599905
100
AcDbArc
 50
217.0349136620845911
 51
229.2819739417271023
  0
ARC
  5
92
100
AcDbEntity
  8
0
 62
256
370
-1
  6
ByLayer
100
AcDbCircle
 10
92.975608889682988
 20
25.1059568695329922
 30
0.0
 40
11.1608015372597595
100
AcDbArc
 50
354.2686502161084263
 51
6.515710495751029
  0
ARC
  5
93
100
AcDbEntity
  8
0
 62
256
370
-1
  6
ByLayer
100
AcDbCircle
 10
97.4518801342973973
 20
43.9177526436137029
 30
0.0
 40
18.7499999999910898
100
AcDbArc
 50
299.6503120789171817
 51
301.9003120789182049
  0
ARC
  5
94
100
AcDbEntity
  8
0
 62
256
370
-1
  6
ByLayer
100
AcDbCircle
 10
115.1082362054421964
 20
36.0327190488852835
 30
0.0
 40
11.1608015372599798
100
AcDbArc
 50
226.0349136620845059
 51
238.2819739417271023
  0
ARC
  5
95
100
AcDbEntity
  8
0
 62
256
370
-1
  6
ByLayer
100
AcDbCircle
 10
95.9735324250158328
 20
24.6373181943719075
 30
0.0
 40
11.1608015372599105
100
AcDbArc
 50
3.2686502161085809
 51
15.5157104957511276
  0
ARC
  5
96
100
AcDbEntity
  8
0
 62
256
370
-1
  6
ByLayer
100
AcDbCircle
 10
97.4518801342854744
 20
43.9177526436301022
 30
0.0
 40
18.7500000000114504
100
AcDbArc
 50
308.6503120789184891
 51
310.9003120789171817
  0
ARC
  5
97
100
AcDbEntity
  8
0
 62
256
370
-1
  6
ByLayer
100
AcDbCircle
 10
116.1243481753800069
 20
38.8918595134496172
 30
0.0
 40
11.1608015372599603
100
AcDbArc
 50
235.0349136620846195
 51
247.2819739417270171
  0
ARC
  5
98
100
AcDbEntity
  8
0
 62
256
370
-1
  6
ByLayer
100
AcDbCircle
 10
99.0078577873062358
 20
24.6434278034447125
 30
0.0
 40
11.1608015372596494
100
AcDbArc
 50
12.2686502161083695
 51
24.5157104957512111
  0
ARC
  5
99
100
AcDbEntity
  8
0
 62
256
370
-1
  6
ByLayer
100
AcDbCircle
 10
97.4518801342884728
 20
43.9177526436251
 30
0.0
 40
18.7500000000057483
100
AcDbArc
 50
317.6503120789182049
 51
319.9003120789175227
  0
ARC
  5
9A
100
AcDbEntity
  8
0
 62
256
370
-1
  6
ByLayer
100
AcDbCircle
 10
116.6806820117778045
 20
41.8747541468620312
 30
0.0
 40
11.1608015372601805
100
AcDbArc
 50
244.0349136620847048
 51
256.2819739417270739
  0
ARC
  5
9B
100
AcDbEntity
  8
0
 62
256
370
-1
  6
ByLayer
100
AcDbCircle
 10
102.003869815785265
 20
25.1241352578992831
 30
0.0
 40
11.1608015372598093
100
AcDbArc
 50
21.2686502161085116
 51
33.5157104957513496
  0
ARC
  5
9C
100
AcDbEntity
  8
0
 62
256
370
-1
  6
ByLayer
100
AcDbCircle
 10
97.4518801342909171
 20
43.9177526436225065
 30
0.0
 40
18.7500000000022311
100
AcDbArc
 50
326.6503120789179775
 51
328.9003120789176933
  0
ARC
  5
9D
100
AcDbEntity
  8
0
 62
256
370
-1
  6
ByLayer
100
AcDbCircle
 10
116.7635389292170771
 20
44.9079541835872078
 30
0.0
 40
11.1608015372597098
100
AcDbArc
 50
253.0349136620845059
 51
265.2819739417271876
  0
ARC
  5
9E
100
AcDbEntity
  8
0
 62
256
370
-1
  6
ByLayer
100
AcDbCircle
 10
104.8877967511182732
 20
26.0676039448303101
 30
0.0
 40
11.1608015372601006
100
AcDbArc
 50
30.2686502161085116
 51
42.5157104957509375
  0
ARC
  5
9F
100
AcDbEntity
  8
0
 62
256
370
-1
  6
ByLayer
100
AcDbCircle
 10
97.4518801342913719
 20
43.9177526436219949
 30
0.0
 40
18.750000000001581
100
AcDbArc
 50
335.650312078917807
 51
337.9003120789175796
  0
ARC
  5
A0
100
AcDbEntity
  8
0
 62
256
370
-1
  6
ByLayer
100
AcDbCircle
 10
116.3708787154044728
 20
47.9167721721084874
 30
0.0
 40
11.1608015372598093
100
AcDbArc
 50
262.0349136620844774
 51
274.2819739417271876
  0
ARC
  5
A1
100
AcDbEntity
  8
0
 62
256
370
-1
  6
ByLayer
100
AcDbCircle
 10
107.5886267409529893
 20
27.4506025339729938
 30
0.0
 40
11.1608015372599603
100
AcDbArc
 50
39.2686502161084334
 51
51.5157104957511081
  0
ARC
  5
A2
100
AcDbEntity
  8
0
 62
256
370
-1
  6
ByLayer
100
AcDbCircle
 10
97.4518801342909597
 20
43.9177526436218102
 30
0.0
 40
18.7500000000019007
100
AcDbArc
 50
344.6503120789179775
 51
346.9003120789175227
  0
ARC
  5
A3
100
AcDbEntity
  8
0
 62
256
370
-1
  6
ByLayer
100
AcDbCircle
 10
115.512369967968354
 20
50.8271210278540195
 30
0.0
 40
11.1608015372602196
100
AcDbArc
 50
271.0349136620847048
 51
283.2819739417270171
  0
ARC
  5
A4
100
AcDbEntity
  8
0
 62
256
370
-1
  6
ByLayer
100
AcDbCircle
 10
110.0398563873983449
 20
29.239077010152787
 30
0.0
 40
11.1608015372601006
100
AcDbArc
 50
48.268650216108469
 51
60.5157104957508665
  0
ARC
  5
A5
100
AcDbEntity
  8
0
 62
256
370
-1
  6
ByLayer
100
AcDbCircle
 10
97.4518801342924661
 20
43.9177526436213981
 30
0.0
 40
18.7500000000003411
100
AcDbArc
 50
353.650312078917807
 51
355.9003120789176933
  0
ARC
  5
A6
100
AcDbEntity
  8
0
 62
256
370
-1
  6
ByLayer
100
AcDbCircle
 10
114.2091520214978715
 20
53.5673383030999872
 30
0.0
 40
11.1608015372601006
100
AcDbArc
 50
280.0349136620845911
 51
292.2819739417270739
  0
ARC
  5
A7
100
AcDbEntity
  8
0
 62
256
370
-1
  6
ByLayer
100
AcDbCircle
 10
112.1811282813942938
 20
31.3889891961600966
 30
0.0
 40
11.1608015372601805
100
AcDbArc
 50
57.2686502161086608
 51
69.5157104957509659
  0
ARC
  5
A8
100
AcDbEntity
  8
0
 62
256
370
-1
  6
ByLayer
100
AcDbCircle
 10
97.4518801342962888
 20
43.917752643621597
 30
0.0
 40
18.7499999999965112
100
AcDbArc
 50
2.6503120789173722
 51
4.9003120789177483
  0
ARC
  5
A9
100
AcDbEntity
  8
0
 62
256
370
-1
  6
ByLayer
100
AcDbCircle
 10
112.4933144269675722
 20
56.0699507542709057
 30
0.0
 40
11.1608015372599301
100
AcDbArc
 50
289.0349136620845911
 51
301.2819739417270739
  0
ARC
  5
AA
100
AcDbEntity
  8
0
 62
256
370
-1
  6
ByLayer
100
AcDbCircle
 10
113.9597172024367069
 20
33.8474011188261912
 30
0.0
 40
11.1608015372599905
100
AcDbArc
 50
66.2686502161084974
 51
78.5157104957509233
  0
ARC
  5
AB
100
AcDbEntity
  8
0
 62
256
370
-1
  6
ByLayer
100
AcDbCircle
 10
97.4518801342907182
 20
43.9177526436208012
 30
0.0
 40
18.7500000000021387
100
AcDbArc
 50
11.6503120789177608
 51
13.9003120789173593
  0
ARC
  5
AC
100
AcDbEntity
  8
0
 62
256
370
-1
  6
ByLayer
100
AcDbCircle
 10
110.4071068004931817
 20
58.273335757124606
 30
0.0
 40
11.1608015372599105
100
AcDbArc
 50
298.0349136620845911
 51
310.2819739417271876
  0
ARC
  5
AD
100
AcDbEntity
  8
0
 62
256
370
-1
  6
ByLayer
100
AcDbCircle
 10
115.3318283884912034
 20
36.5537785176132957
 30
0.0
 40
11.1608015372597702
100
AcDbArc
 50
75.2686502161084405
 51
87.5157104957511649
  0
ARC
  5
AE
100
AcDbEntity
  8
0
 62
256
370
-1
  6
ByLayer
100
AcDbCircle
 10
97.4518801342893966
 20
43.9177526436200125
 30
0.0
 40
18.7500000000036593
100
AcDbArc
 50
20.6503120789179988
 51
22.9003120789174801
  0
ARC
  5
AF
100
AcDbEntity
  8
0
 62
256
370
-1
  6
ByLayer
100
AcDbCircle
 10
108.0018984975646106
 20
60.1232386602749997
 30
0.0
 40
11.1608015372600207
100
AcDbArc
 50
307.0349136620845911
 51
319.2819739417270739
  0
ARC
  5
B0
100
AcDbEntity
  8
0
 62
256
370
-1
  6
ByLayer
100
AcDbCircle
 10
116.2636759083811313
 20
39.4414813990113089
 30
0.0
 40
11.1608015372599692
100
AcDbArc
 50
84.2686502161085542
 51
96.5157104957510938
  0
ARC
  5
B1
100
AcDbEntity
  8
0
 62
256
370
-1
  6
ByLayer
100
AcDbCircle
 10
97.4518801343007794
 20
43.9177526436260734
 30
0.0
 40
18.7499999999907203
100
AcDbArc
 50
29.6503120789172065
 51
31.9003120789183576
  0
ARC
  5
B2
100
AcDbEntity
  8
0
 62
256
370
-1
  6
ByLayer
100
AcDbCircle
 10
105.3369137290287512
 20
61.5741087147707944
 30
0.0
 40
11.1608015372600793
100
AcDbArc
 50
316.0349136620845911
 51
328.2819739417270739
  0
ARC
  5
B3
100
AcDbEntity
  8
0
 62
256
370
-1
  6
ByLayer
100
AcDbCircle
 10
116.732314583542248
 20
42.4394049343442674
 30
0.0
 40
11.1608015372599105
100
AcDbArc
 50
93.2686502161085116
 51
105.5157104957509944
  0
ARC
  5
B4
100
AcDbEntity
  8
0
 62
256
370
-1
  6
ByLayer
100
AcDbCircle
 10
97.4518801342839964
 20
43.9177526436140084
 30
0.0
 40
18.7500000000114788
100
AcDbArc
 50
38.650312078918553
 51
40.9003120789170822
  0
ARC
  5
B5
100
AcDbEntity
  8
0
 62
256
370
-1
  6
ByLayer
100
AcDbCircle
 10
102.4777732644642327
 20
62.5902206847086049
 30
0.0
 40
11.1608015372602303
100
AcDbArc
 50
325.0349136620847048
 51
337.2819739417269034
  0
ARC
  5
B6
100
AcDbEntity
  8
0
 62
256
370
-1
  6
ByLayer
100
AcDbCircle
 10
116.7262049744694394
 20
45.4737302966345496
 30
0.0
 40
11.16080153725974
100
AcDbArc
 50
102.2686502161082984
 51
114.5157104957510938
  0
ARC
  5
B7
100
AcDbEntity
  8
0
 62
256
370
-1
  6
ByLayer
100
AcDbCircle
 10
97.4518801342890413
 20
43.9177526436169998
 30
0.0
 40
18.7500000000057483
100
AcDbArc
 50
47.6503120789182617
 51
49.9003120789174233
  0
ARC
  5
B8
100
AcDbEntity
  8
0
 62
256
370
-1
  6
ByLayer
100
AcDbCircle
 10
99.4948786310523587
 20
63.1465545211062178
 30
0.0
 40
11.1608015372598697
100
AcDbArc
 50
334.0349136620845911
 51
346.281973941727415
  0
ARC
  5
B9
100
AcDbEntity
  8
0
 62
256
370
-1
  6
ByLayer
100
AcDbCircle
 10
116.2454975200148937
 20
48.4697423251137351
 30
0.0
 40
11.1608015372598697
100
AcDbArc
 50
111.2686502161084974
 51
123.5157104957510796
  0
ARC
  5
BA
100
AcDbEntity
  8
0
 62
256
370
-1
  6
ByLayer
100
AcDbCircle
 10
97.4518801342915992
 20
43.9177526436194157
 30
0.0
 40
18.7500000000022702
100
AcDbArc
 50
56.650312078917942
 51
58.9003120789176009
  0
ARC
  5
BB
100
AcDbEntity
  8
0
 62
256
370
-1
  6
ByLayer
100
AcDbCircle
 10
96.461678594326699
 20
63.2294114385456041
 30
0.0
 40
11.1608015372598501
100
AcDbArc
 50
343.0349136620844774
 51
355.2819739417270739
  0
ARC
  5
BC
100
AcDbEntity
  8
0
 62
256
370
-1
  6
ByLayer
100
AcDbCircle
 10
115.3020288330837531
 20
51.3536692604468286
 30
0.0
 40
11.1608015372600402
100
AcDbArc
 50
120.2686502161084974
 51
132.5157104957509944
  0
ARC
  5
BD
100
AcDbEntity
  8
0
 62
256
370
-1
  6
ByLayer
100
AcDbCircle
 10
97.4518801342921677
 20
43.9177526436198136
 30
0.0
 40
18.750000000001581
100
AcDbArc
 50
65.6503120789178212
 51
67.9003120789177075
  0
ARC
  5
BE
100
AcDbEntity
  8
0
 62
256
370
-1
  6
ByLayer
100
AcDbCircle
 10
93.4528606058052702
 20
62.8367512247329998
 30
0.0
 40
11.1608015372600509
100
AcDbArc
 50
352.0349136620845911
 51
4.2819739417269362
  0
ARC
  5
BF
100
AcDbEntity
  8
0
 62
256
370
-1
  6
ByLayer
100
AcDbCircle
 10
113.9190302439413074
 20
54.0544992502814239
 30
0.0
 40
11.1608015372601503
100
AcDbArc
 50
129.2686502161085969
 51
141.5157104957509944
  0
ARC
  5
C0
100
AcDbEntity
  8
0
 62
256
370
-1
  6
ByLayer
100
AcDbCircle
 10
97.4518801342907608
 20
43.917752643613106
 30
0.0
 40
18.7500000000084484
100
AcDbArc
 50
74.6503120789184607
 51
76.900312078917537
  0
ARC
  5
C1
100
AcDbEntity
  8
0
 62
256
370
-1
  6
ByLayer
100
AcDbCircle
 10
90.5425117500607541
 20
61.9782424772970089
 30
0.0
 40
11.1608015372596103
100
AcDbArc
 50
1.0349136620843591
 51
13.2819739417274505
  0
ARC
  5
C2
100
AcDbEntity
  8
0
 62
256
370
-1
  6
ByLayer
100
AcDbCircle
 10
112.1305557677611233
 20
56.5057288967270139
 30
0.0
 40
11.1608015372599105
100
AcDbArc
 50
138.2686502161083126
 51
150.5157104957509944
  0
ARC
  5
C3
100
AcDbEntity
  8
0
 62
256
370
-1
  6
ByLayer
100
AcDbCircle
 10
97.4518801342927787
 20
43.9177526436210073
 30
0.0
 40
18.7500000000003411
100
AcDbArc
 50
83.6503120789177785
 51
85.9003120789178496
  0
ARC
  5
C4
100
AcDbEntity
  8
0
 62
256
370
-1
  6
ByLayer
100
AcDbCircle
 10
87.8022944748140901
 20
60.6750245308264127
 30
0.0
 40
11.1608015372601006
100
AcDbArc
 50
10.0349136620846995
 51
22.2819739417271805
  0
ARC
  5
C5
100
AcDbEntity
  8
0
 62
256
370
-1
  6
ByLayer
100
AcDbCircle
 10
109.9806435817539665
 20
58.6470007907227995
 30
0.0
 40
11.1608015372601805
100
AcDbArc
 50
147.2686502161087105
 51
159.5157104957509944
  0
ARC
  5
C6
100
AcDbEntity
  8
0
 62
256
370
-1
  6
ByLayer
100
AcDbCircle
 10
97.4518801342925229
 20
43.9177526436248158
 30
0.0
 40
18.7499999999964189
100
AcDbArc
 50
92.6503120789173948
 51
94.9003120789178212
  0
ARC
  5
C7
100
AcDbEntity
  8
0
 62
256
370
-1
  6
ByLayer
100
AcDbCircle
 10
85.299682023643328
 20
58.9591869362962129
 30
0.0
 40
11.1608015372597507
100
AcDbArc
 50
19.0349136620844206
 51
31.2819739417272515
  0
ARC
  5
C8
100
AcDbEntity
  8
0
 62
256
370
-1
  6
ByLayer
100
AcDbCircle
 10
107.5222316590879217
 20
60.4255897117652054
 30
0.0
 40
11.1608015372599905
100
AcDbArc
 50
156.2686502161085969
 51
168.5157104957511081
  0
ARC
  5
C9
100
AcDbEntity
  8
0
 62
256
370
-1
  6
ByLayer
100
AcDbCircle
 10
97.451880134292594
 20
43.9177526436221939
 30
0.0
 40
18.7499999999990514
100
AcDbArc
 50
101.6503120789176933
 51
103.9003120789179064
  0
ARC
  5
CA
100
AcDbEntity
  8
0
 62
256
370
-1
  6
ByLayer
100
AcDbCircle
 10
83.0962970207895495
 20
56.8729793098217087
 30
0.0
 40
11.1608015372599105
100
AcDbArc
 50
28.0349136620844384
 51
40.2819739417271308
  0
ARC
  5
CB
100
AcDbEntity
  8
0
 62
256
370
-1
  6
ByLayer
100
AcDbCircle
 10
104.8158542603009096
 20
61.797700897819702
 30
0.0
 40
11.1608015372598803
100
AcDbArc
 50
165.2686502161085116
 51
177.5157104957511081
  0
ARC
  5
CC
100
AcDbEntity
  8
0
 62
256
370
-1
  6
ByLayer
100
AcDbCircle
 10
97.4518801342941572
 20
43.9177526436179093
 30
0.0
 40
18.7500000000036593
100
AcDbArc
 50
110.6503120789180059
 51
112.9003120789174943
  0
ARC
  5
CD
100
AcDbEntity
  8
0
 62
256
370
-1
  6
ByLayer
100
AcDbCircle
 10
81.2463941176391273
 20
54.4677710068931091
 30
0.0
 40
11.1608015372600207
100
AcDbArc
 50
37.0349136620845272
 51
49.2819739417271379
  0
ARC
  5
CE
100
AcDbEntity
  8
0
 62
256
370
-1
  6
ByLayer
100
AcDbCircle
 10
101.9281513789028395
 20
62.7295484177096085
 30
0.0
 40
11.1608015372599692
100
AcDbArc
 50
174.2686502161085969
 51
186.5157104957511933
  0
ARC
  5
CF
100
AcDbEntity
  8
0
 62
256
370
-1
  6
ByLayer
100
AcDbCircle
 10
97.4518801342935888
 20
43.9177526436199983
 30
0.0
 40
18.7500000000015312
100
AcDbArc
 50
119.6503120789177075
 51
121.9003120789175938
  0
ARC
  5
D0
100
AcDbEntity
  8
0
 62
256
370
-1
  6
ByLayer
100
AcDbCircle
 10
79.7955240631434037
 20
51.8027862383572923
 30
0.0
 40
11.1608015372599905
100
AcDbArc
 50
46.0349136620844988
 51
58.2819739417270526
  0
ARC
  5
D1
100
AcDbEntity
  8
0
 62
256
370
-1
  6
ByLayer
100
AcDbCircle
 10
98.9302278435696394
 20
63.1981870928707039
 30
0.0
 40
11.1608015372597702
100
AcDbArc
 50
183.2686502161083126
 51
195.5157104957511933
  0
ARC
  5
D2
100
AcDbEntity
  8
0
 62
256
370
-1
  6
ByLayer
100
AcDbCircle
 10
97.45188013430014
 20
43.917752643612495
 30
0.0
 40
18.7500000000114397
100
AcDbArc
 50
128.6503120789184891
 51
130.9003120789170964
  0
ARC
  5
D3
100
AcDbEntity
  8
0
 62
256
370
-1
  6
ByLayer
100
AcDbCircle
 10
78.7794120932056501
 20
48.943645773793115
 30
0.0
 40
11.1608015372598608
100
AcDbArc
 50
55.0349136620845769
 51
67.2819739417273297
  0
ARC
  5
D4
100
AcDbEntity
  8
0
 62
256
370
-1
  6
ByLayer
100
AcDbCircle
 10
95.8959024812795207
 20
63.1920774837978954
 30
0.0
 40
11.1608015372598004
100
AcDbArc
 50
192.2686502161083126
 51
204.5157104957511933
  0
ARC
  5
D5
100
AcDbEntity
  8
0
 62
256
370
-1
  6
ByLayer
100
AcDbCircle
 10
92.8998904528004488
 20
62.7113700293434064
 30
0.0
 40
11.1608015372599301
100
AcDbArc
 50
201.2686502161083979
 51
213.5157104957511081
  0
ARC
  5
D6
100
AcDbEntity
  8
0
 62
256
370
-1
  6
ByLayer
100
AcDbCircle
 10
97.4518801342970704
 20
43.9177526436175967
 30
0.0
 40
18.7500000000056488
100
AcDbArc
 50
137.6503120789182049
 51
139.9003120789172954
  0
ARC
  5
D7
100
AcDbEntity
  8
0
 62
256
370
-1
  6
ByLayer
100
AcDbCircle
 10
78.2230782568079377
 20
45.9607511403809994
 30
0.0
 40
11.1608015372597702
100
AcDbArc
 50
64.0349136620844348
 51
76.281973941727145
  0
ARC
  5
D8
100
AcDbEntity
  8
0
 62
256
370
-1
  6
ByLayer
100
AcDbCircle
 10
97.4518801342868386
 20
43.9177526436244179
 30
0.0
 40
20.9999999999932712
100
AcDbArc
 50
151.1503120789176933
 51
153.4003120789180912
  0
ARC
  5
D9
100
AcDbEntity
  8
0
 62
256
370
-1
  6
ByLayer
100
AcDbCircle
 10
97.4518801342846785
 20
43.9177526436239916
 30
0.0
 40
20.9999999999914202
100
AcDbArc
 50
160.150312078917608
 51
162.4003120789182901
  0
ARC
  5
DA
100
AcDbEntity
  8
0
 62
256
370
-1
  6
ByLayer
100
AcDbCircle
 10
97.4518801342989889
 20
43.9177526436202186
 30
0.0
 40
21.0000000000062812
100
AcDbArc
 50
169.1503120789182049
 51
171.4003120789174943
  0
ARC
  5
DB
100
AcDbEntity
  8
0
 62
256
370
-1
  6
ByLayer
100
AcDbCircle
 10
97.4518801342852612
 20
43.9177526436214123
 30
0.0
 40
20.9999999999924611
100
AcDbArc
 50
178.1503120789172101
 51
180.4003120789184038
  0
ARC
  5
DC
100
AcDbEntity
  8
0
 62
256
370
-1
  6
ByLayer
100
AcDbCircle
 10
97.4518801342895387
 20
43.9177526436207941
 30
0.0
 40
20.9999999999967102
100
AcDbArc
 50
187.1503120789178922
 51
189.4003120789178922
  0
ARC
  5
DD
100
AcDbEntity
  8
0
 62
256
370
-1
  6
ByLayer
100
AcDbCircle
 10
97.4518801342940009
 20
43.9177526436216041
 30
0.0
 40
21.0000000000012292
100
AcDbArc
 50
196.1503120789180912
 51
198.4003120789176933
  0
ARC
  5
DE
100
AcDbEntity
  8
0
 62
256
370
-1
  6
ByLayer
100
AcDbCircle
 10
97.4518801342932477
 20
43.917752643621597
 30
0.0
 40
21.0000000000005187
100
AcDbArc
 50
205.1503120789180059
 51
207.4003120789178922
  0
ARC
  5
DF
100
AcDbEntity
  8
0
 62
256
370
-1
  6
ByLayer
100
AcDbCircle
 10
97.4518801342853891
 20
43.9177526436160903
 30
0.0
 40
20.9999999999909299
100
AcDbArc
 50
214.150312078917807
 51
216.4003120789184038
  0
ARC
  5
E0
100
AcDbEntity
  8
0
 62
256
370
-1
  6
ByLayer
100
AcDbCircle
 10
97.4518801342931908
 20
43.9177526436217249
 30
0.0
 40
21.00000000000054
100
AcDbArc
 50
223.150312078917807
 51
225.4003120789176933
  0
ARC
  5
E1
100
AcDbEntity
  8
0
 62
256
370
-1
  6
ByLayer
100
AcDbCircle
 10
97.4518801342942425
 20
43.9177526436231886
 30
0.0
 40
21.0000000000024407
100
AcDbArc
 50
232.1503120789178354
 51
234.4003120789177785
  0
ARC
  5
E2
100
AcDbEntity
  8
0
 62
256
370
-1
  6
ByLayer
100
AcDbCircle
 10
97.4518801342937735
 20
43.9177526436229897
 30
0.0
 40
21.0000000000019504
100
AcDbArc
 50
241.1503120789178922
 51
243.4003120789174943
  0
ARC
  5
E3
100
AcDbEntity
  8
0
 62
256
370
-1
  6
ByLayer
100
AcDbCircle
 10
97.4518801342928782
 20
43.9177526436214976
 30
0.0
 40
21.0000000000002309
100
AcDbArc
 50
250.1503120789178922
 51
252.4003120789177785
  0
ARC
  5
E4
100
AcDbEntity
  8
0
 62
256
370
-1
  6
ByLayer
100
AcDbCircle
 10
97.4518801342943277
 20
43.917752643630223
 30
0.0
 40
21.0000000000090594
100
AcDbArc
 50
259.1503120789184891
 51
261.4003120789174091
  0
ARC
  5
E5
100
AcDbEntity
  8
0
 62
256
370
-1
  6
ByLayer
100
AcDbCircle
 10
97.4518801342927219
 20
43.9177526436134968
 30
0.0
 40
20.9999999999921982
100
AcDbArc
 50
268.1503120789175227
 51
270.4003120789180912
  0
ARC
  5
E6
100
AcDbEntity
  8
0
 62
256
370
-1
  6
ByLayer
100
AcDbCircle
 10
97.4518801342937735
 20
43.9177526436144063
 30
0.0
 40
20.9999999999930012
100
AcDbArc
 50
277.1503120789175227
 51
279.4003120789183185
  0
ARC
  5
E7
100
AcDbEntity
  8
0
 62
256
370
-1
  6
ByLayer
100
AcDbCircle
 10
97.451880134292594
 20
43.9177526436221086
 30
0.0
 40
21.0000000000007603
100
AcDbArc
 50
286.150312078917807
 51
288.4003120789176933
  0
ARC
  5
E8
100
AcDbEntity
  8
0
 62
256
370
-1
  6
ByLayer
100
AcDbCircle
 10
97.4518801342945267
 20
43.9177526436177956
 30
0.0
 40
20.9999999999960814
100
AcDbArc
 50
295.1503120789175227
 51
297.4003120789180912
  0
ARC
  5
E9
100
AcDbEntity
  8
0
 62
256
370
-1
  6
ByLayer
100
AcDbCircle
 10
97.4518801342885013
 20
43.9177526436273098
 30
0.0
 40
21.000000000007379
100
AcDbArc
 50
304.1503120789187165
 51
306.4003120789175227
  0
ARC
  5
EA
100
AcDbEntity
  8
0
 62
256
370
-1
  6
ByLayer
100
AcDbCircle
 10
97.4518801342923382
 20
43.9177526436218102
 30
0.0
 40
21.0000000000006892
100
AcDbArc
 50
313.1503120789179206
 51
315.400312078917807
  0
ARC
  5
EB
100
AcDbEntity
  8
0
 62
256
370
-1
  6
ByLayer
100
AcDbCircle
 10
97.4518801342856307
 20
43.9177526436266064
 30
0.0
 40
21.0000000000089102
100
AcDbArc
 50
322.1503120789184891
 51
324.4003120789174091
  0
ARC
  5
EC
100
AcDbEntity
  8
0
 62
256
370
-1
  6
ByLayer
100
AcDbCircle
 10
97.4518801342859291
 20
43.9177526436248939
 30
0.0
 40
21.0000000000077804
100
AcDbArc
 50
331.1503120789182049
 51
333.4003120789174091
  0
ARC
  5
ED
100
AcDbEntity
  8
0
 62
256
370
-1
  6
ByLayer
100
AcDbCircle
 10
97.4518801343006515
 20
43.917752643618698
 30
0.0
 40
20.9999999999917186
100
AcDbArc
 50
340.1503120789171817
 51
342.4003120789182049
  0
ARC
  5
EE
100
AcDbEntity
  8
0
 62
256
370
-1
  6
ByLayer
100
AcDbCircle
 10
97.4518801342858012
 20
43.9177526436225207
 30
0.0
 40
21.0000000000070983
100
AcDbArc
 50
349.1503120789183754
 51
351.4003120789174091
  0
ARC
  5
EF
100
AcDbEntity
  8
0
 62
256
370
-1
  6
ByLayer
100
AcDbCircle
 10
97.4518801342924093
 20
43.9177526436212844
 30
0.0
 40
21.0000000000004015
100
AcDbArc
 50
358.1503120789183185
 51
0.4003120789174908
  0
ARC
  5
F0
100
AcDbEntity
  8
0
 62
256
370
-1
  6
ByLayer
100
AcDbCircle
 10
97.4518801342958767
 20
43.9177526436217107
 30
0.0
 40
20.9999999999968985
100
AcDbArc
 50
7.1503120789179331
 51
9.4003120789179881
  0
ARC
  5
F1
100
AcDbEntity
  8
0
 62
256
370
-1
  6
ByLayer
100
AcDbCircle
 10
97.4518801342936598
 20
43.917752643621597
 30
0.0
 40
20.9999999999991296
100
AcDbArc
 50
16.1503120789177714
 51
18.4003120789179313
  0
ARC
  5
F2
100
AcDbEntity
  8
0
 62
256
370
-1
  6
ByLayer
100
AcDbCircle
 10
97.4518801342932051
 20
43.9177526436214833
 30
0.0
 40
20.9999999999995595
100
AcDbArc
 50
25.1503120789181907
 51
27.400312078917981
  0
ARC
  5
F3
100
AcDbEntity
  8
0
 62
256
370
-1
  6
ByLayer
100
AcDbCircle
 10
97.4518801342977952
 20
43.9177526436248087
 30
0.0
 40
20.9999999999938609
100
AcDbArc
 50
34.1503120789176222
 51
36.400312078918212
  0
ARC
  5
F4
100
AcDbEntity
  8
0
 62
256
370
-1
  6
ByLayer
100
AcDbCircle
 10
97.4518801342921535
 20
43.9177526436206875
 30
0.0
 40
21.0000000000009202
100
AcDbArc
 50
43.150312078917878
 51
45.400312078917743
  0
ARC
  5
F5
100
AcDbEntity
  8
0
 62
256
370
-1
  6
ByLayer
100
AcDbCircle
 10
97.4518801342899508
 20
43.9177526436175114
 30
0.0
 40
21.0000000000047393
100
AcDbArc
 50
52.150312078918077
 51
54.4003120789174517
  0
ARC
  5
F6
100
AcDbEntity
  8
0
 62
256
370
-1
  6
ByLayer
100
AcDbCircle
 10
97.4518801342958341
 20
43.9177526436269972
 30
0.0
 40
20.9999999999935412
100
AcDbArc
 50
61.1503120789177004
 51
63.4003120789181907
  0
ARC
  5
F7
100
AcDbEntity
  8
0
 62
256
370
-1
  6
ByLayer
100
AcDbCircle
 10
97.4518801342949814
 20
43.9177526436277148
 30
0.0
 40
20.9999999999932001
100
AcDbArc
 50
70.1503120789174233
 51
72.4003120789181338
  0
ARC
  5
F8
100
AcDbEntity
  8
0
 62
256
370
-1
  6
ByLayer
100
AcDbCircle
 10
97.4518801342929066
 20
43.9177526436221086
 30
0.0
 40
20.9999999999992504
100
AcDbArc
 50
79.1503120789177217
 51
81.4003120789177785
  0
ARC
  5
F9
100
AcDbEntity
  8
0
 62
256
370
-1
  6
ByLayer
100
AcDbCircle
 10
97.4518801342927929
 20
43.9177526436208865
 30
0.0
 40
21.0000000000003801
100
AcDbArc
 50
88.1503120789182049
 51
90.4003120789177501
  0
ARC
  5
FA
100
AcDbEntity
  8
0
 62
256
370
-1
  6
ByLayer
100
AcDbCircle
 10
97.4518801342925514
 20
43.9177526436231886
 30
0.0
 40
20.9999999999980709
100
AcDbArc
 50
97.1503120789176222
 51
99.4003120789180201
  0
ARC
  5
FB
100
AcDbEntity
  8
0
 62
256
370
-1
  6
ByLayer
100
AcDbCircle
 10
97.4518801342923382
 20
43.9177526436227126
 30
0.0
 40
20.9999999999985292
100
AcDbArc
 50
106.150312078917807
 51
108.400312078917807
  0
ARC
  5
FC
100
AcDbEntity
  8
0
 62
256
370
-1
  6
ByLayer
100
AcDbCircle
 10
97.4518801342914287
 20
43.9177526436241124
 30
0.0
 40
20.9999999999968594
100
AcDbArc
 50
115.150312078917608
 51
117.4003120789179917
  0
ARC
  5
FD
100
AcDbEntity
  8
0
 62
256
370
-1
  6
ByLayer
100
AcDbCircle
 10
97.4518801342970136
 20
43.9177526436154793
 30
0.0
 40
21.0000000000072014
100
AcDbArc
 50
124.1503120789187022
 51
126.4003120789175938
  0
ARC
  5
FE
100
AcDbEntity
  8
0
 62
256
370
-1
  6
ByLayer
100
AcDbCircle
 10
97.4518801342932761
 20
43.9177526436208083
 30
0.0
 40
21.0000000000006892
100
AcDbArc
 50
133.150312078917807
 51
135.400312078917807
  0
ARC
  5
FF
100
AcDbEntity
  8
0
 62
256
370
-1
  6
ByLayer
100
AcDbCircle
 10
97.4518801342976388
 20
43.9177526436177033
 30
0.0
 40
21.000000000006029
100
AcDbArc
 50
142.1503120789184038
 51
144.4003120789174943
  0
LINE
  5
100
100
AcDbEntity
100
AcDbLine
  8
0
 62
256
370
-1
  6
ByLayer
 10
90.5828970303567473
 20
45.8517306987814734
 30
0.0
 11
95.6922627084550612
 21
50.8334555373760395
 31
0.0
  0
LINE
  5
101
100
AcDbEntity
100
AcDbLine
  8
0
 62
256
370
-1
  6
ByLayer
 10
95.6922627084550612
 20
50.8334555373760395
 30
0.0
 11
102.5612458123911495
 21
48.899477482215886
 31
0.0
  0
LINE
  5
102
100
AcDbEntity
100
AcDbLine
  8
0
 62
256
370
-1
  6
ByLayer
 10
102.5612458123911495
 20
48.899477482215886
 30
0.0
 11
104.3208632382288386
 21
41.9837745884611309
 31
0.0
  0
LINE
  5
103
100
AcDbEntity
100
AcDbLine
  8
0
 62
256
370
-1
  6
ByLayer
 10
104.3208632382288386
 20
41.9837745884611309
 30
0.0
 11
99.211497560130482
 21
37.0020497498664653
 31
0.0
  0
LINE
  5
104
100
AcDbEntity
100
AcDbLine
  8
0
 62
256
370
-1
  6
ByLayer
 10
99.211497560130482
 20
37.0020497498664653
 30
0.0
 11
92.3425144561944222
 21
38.9360278050267326
 31
0.0
  0
LINE
  5
105
100
AcDbEntity
100
AcDbLine
  8
0
 62
256
370
-1
  6
ByLayer
 10
92.3425144561944222
 20
38.9360278050267326
 30
0.0
 11
90.5828970303567473
 21
45.8517306987814734
 31
0.0
  0
CIRCLE
  5
106
100
AcDbEntity
100
AcDbCircle
  8
0
 62
256
370
-1
  6
ByLayer
 10
152.0911668675846045
 20
16.2361885101249044
 30
0.0
 40
1.4249999999999921
  0
CIRCLE
  5
107
100
AcDbEntity
100
AcDbCircle
  8
0
 62
256
370
-1
  6
ByLayer
 10
124.8113666483749
 20
16.2361885101249221
 30
0.0
 40
1.4249999999999921
  0
CIRCLE
  5
108
100
AcDbEntity
100
AcDbCircle
  8
0
 62
256
370
-1
  6
ByLayer
 10
138.4512667579797096
 20
39.8611885101248262
 30
0.0
 40
1.4249999999999921
  0
ARC
  5
109
100
AcDbEntity
  8
0
 62
256
370
-1
  6
ByLayer
100
AcDbCircle
 10
127.9512667579798091
 20
92.0506220980954168
 30
0.0
 40
1.999999999999984
100
AcDbArc
 50
139.8535388083622877
 51
180.0
  0
CIRCLE
  5
10A
100
AcDbEntity
100
AcDbCircle
  8
0
 62
256
370
-1
  6
ByLayer
 10
122.4512667579799086
 20
28.2111885101249058
 30
0.0
 40
2.4249999999999869
  0
CIRCLE
  5
10B
100
AcDbEntity
100
AcDbCircle
  8
0
 62
256
370
-1
  6
ByLayer
 10
154.4512667579797096
 20
28.2111885101248987
 30
0.0
 40
2.4249999999999869
  0
CIRCLE
  5
10C
100
AcDbEntity
100
AcDbCircle
  8
0
 62
256
370
-1
  6
ByLayer
 10
138.4512667579797096
 20
24.1111885101249079
 30
0.0
 40
1.5999999999999921
  0
ARC
  5
10D
100
AcDbEntity
  8
0
 62
256
370
-1
  6
ByLayer
100
AcDbCircle
 10
138.4512667579797096
 20
24.1111885101249079
 30
0.0
 40
21.4999999999998685
100
AcDbArc
 50
125.548744002872084
 51
41.9107659493316973
  0
LINE
  5
10E
100
AcDbEntity
100
AcDbLine
  8
0
 62
256
370
-1
  6
ByLayer
 10
125.9512667579797949
 20
92.0506220980954168
 30
0.0
 11
125.9512667579797949
 21
41.604044194660716
 31
0.0
  0
LINE
  5
10F
100
AcDbEntity
100
AcDbLine
  8
0
 62
256
370
-1
  6
ByLayer
 10
154.4512667579797096
 20
51.6111885101248262
 30
0.0
 11
154.4512667579797096
 21
38.4725951264699262
 31
0.0
  0
LINE
  5
110
100
AcDbEntity
100
AcDbLine
  8
0
 62
256
370
-1
  6
ByLayer
 10
144.7012667579797096
 20
51.6111885101248191
 30
0.0
 11
154.4512667579797096
 21
51.6111885101248262
 31
0.0
  0
ARC
  5
111
100
AcDbEntity
  8
0
 62
256
370
-1
  6
ByLayer
100
AcDbCircle
 10
144.7012667579797096
 20
54.1111885101248262
 30
0.0
 40
2.4999999999999858
100
AcDbArc
 50
90.0
 51
270.0
  0
LINE
  5
112
100
AcDbEntity
100
AcDbLine
  8
0
 62
256
370
-1
  6
ByLayer
 10
152.4512667579795959
 20
56.6111885101246983
 30
0.0
 11
144.7012667579797096
 21
56.6111885101247054
 31
0.0
  0
LINE
  5
113
100
AcDbEntity
100
AcDbLine
  8
0
 62
256
370
-1
  6
ByLayer
 10
154.4512667579797096
 20
62.1111885101247054
 30
0.0
 11
154.4512667579797096
 21
58.6111885101247125
 31
0.0
  0
LINE
  5
114
100
AcDbEntity
100
AcDbLine
  8
0
 62
256
370
-1
  6
ByLayer
 10
144.7012667579797096
 20
64.1111885101247054
 30
0.0
 11
152.4512667579795959
 21
64.1111885101247054
 31
0.0
  0
ARC
  5
115
100
AcDbEntity
  8
0
 62
256
370
-1
  6
ByLayer
100
AcDbCircle
 10
144.7012667579797096
 20
66.6111885101247054
 30
0.0
 40
2.4999999999999858
100
AcDbArc
 50
90.0
 51
270.0
  0
LINE
  5
116
100
AcDbEntity
100
AcDbLine
  8
0
 62
256
370
-1
  6
ByLayer
 10
152.4512667579795959
 20
69.1111885101247054
 30
0.0
 11
144.7012667579797096
 21
69.1111885101247054
 31
0.0
  0
LINE
  5
117
100
AcDbEntity
100
AcDbLine
  8
0
 62
256
370
-1
  6
ByLayer
 10
154.4512667579797096
 20
85.5111885101246259
 30
0.0
 11
154.4512667579797096
 21
71.1111885101247054
 31
0.0
  0
LINE
  5
118
100
AcDbEntity
100
AcDbLine
  8
0
 62
256
370
-1
  6
ByLayer
 10
144.7012667579797096
 20
87.5111885101246259
 30
0.0
 11
152.4512667579795959
 21
87.5111885101246259
 31
0.0
  0
ARC
  5
119
100
AcDbEntity
  8
0
 62
256
370
-1
  6
ByLayer
100
AcDbCircle
 10
144.7012667579797096
 20
90.0111885101246259
 30
0.0
 40
2.4999999999999858
100
AcDbArc
 50
90.0
 51
270.0
  0
LINE
  5
11A
100
AcDbEntity
100
AcDbLine
  8
0
 62
256
370
-1
  6
ByLayer
 10
152.4512667579795959
 20
92.5111885101245122
 30
0.0
 11
144.7012667579797096
 21
92.5111885101245122
 31
0.0
  0
LINE
  5
11B
100
AcDbEntity
100
AcDbLine
  8
0
 62
256
370
-1
  6
ByLayer
 10
154.451266757979738
 20
98.0111885101245264
 30
0.0
 11
154.4512667579797096
 21
94.5111885101246259
 31
0.0
  0
LINE
  5
11C
100
AcDbEntity
100
AcDbLine
  8
0
 62
256
370
-1
  6
ByLayer
 10
144.7012667579797096
 20
100.0111885101245122
 30
0.0
 11
152.4512667579795959
 21
100.0111885101245122
 31
0.0
  0
ARC
  5
11D
100
AcDbEntity
  8
0
 62
256
370
-1
  6
ByLayer
100
AcDbCircle
 10
144.7012667579797096
 20
102.5111885101245406
 30
0.0
 40
2.4999999999999858
100
AcDbArc
 50
90.0
 51
270.0
  0
LINE
  5
11E
100
AcDbEntity
100
AcDbLine
  8
0
 62
256
370
-1
  6
ByLayer
 10
152.4512667579795959
 20
105.0111885101245264
 30
0.0
 11
144.701266757979738
 21
105.0111885101245406
 31
0.0
  0
LINE
  5
11F
100
AcDbEntity
100
AcDbLine
  8
0
 62
256
370
-1
  6
ByLayer
 10
154.4512667579797096
 20
113.0111885101244269
 30
0.0
 11
154.4512667579797096
 21
107.0111885101245406
 31
0.0
  0
LINE
  5
120
100
AcDbEntity
100
AcDbLine
  8
0
 62
256
370
-1
  6
ByLayer
 10
145.6307718623507981
 20
115.0111885101245406
 30
0.0
 11
152.4512667579796243
 21
115.0111885101245406
 31
0.0
  0
LINE
  5
121
100
AcDbEntity
100
AcDbLine
  8
0
 62
256
370
-1
  6
ByLayer
 10
126.4224690997029228
 20
93.340109484635903
 30
0.0
 11
144.1019742040739118
 21
114.3006758966650267
 31
0.0
  0
ARC
  5
122
100
AcDbEntity
  8
0
 62
256
370
-1
  6
ByLayer
100
AcDbCircle
 10
152.4512667579795959
 20
58.6111885101247125
 30
0.0
 40
1.999999999999996
100
AcDbArc
 50
270.0
 51
0.0
  0
ARC
  5
123
100
AcDbEntity
  8
0
 62
256
370
-1
  6
ByLayer
100
AcDbCircle
 10
152.4512667579797096
 20
62.1111885101247125
 30
0.0
 40
1.999999999999986
100
AcDbArc
 50
0.0
 51
90.0
  0
ARC
  5
124
100
AcDbEntity
  8
0
 62
256
370
-1
  6
ByLayer
100
AcDbCircle
 10
152.4512667579797096
 20
71.1111885101247054
 30
0.0
 40
1.999999999999984
100
AcDbArc
 50
269.9999999999989768
 51
0.0
  0
ARC
  5
125
100
AcDbEntity
  8
0
 62
256
370
-1
  6
ByLayer
100
AcDbCircle
 10
152.4512667579797096
 20
85.5111885101246259
 30
0.0
 40
1.999999999999982
100
AcDbArc
 50
0.0
 51
90.0
  0
ARC
  5
126
100
AcDbEntity
  8
0
 62
256
370
-1
  6
ByLayer
100
AcDbCircle
 10
152.4512667579797096
 20
94.5111885101245122
 30
0.0
 40
1.999999999999978
100
AcDbArc
 50
270.0
 51
0.0
  0
ARC
  5
127
100
AcDbEntity
  8
0
 62
256
370
-1
  6
ByLayer
100
AcDbCircle
 10
152.4512667579795959
 20
98.0111885101245122
 30
0.0
 40
2.0
100
AcDbArc
 50
0.0
 51
90.0
  0
ARC
  5
128
100
AcDbEntity
  8
0
 62
256
370
-1
  6
ByLayer
100
AcDbCircle
 10
152.4512667579797096
 20
107.0111885101245264
 30
0.0
 40
1.999999999999982
100
AcDbArc
 50
270.0
 51
0.0
  0
ARC
  5
129
100
AcDbEntity
  8
0
 62
256
370
-1
  6
ByLayer
100
AcDbCircle
 10
152.4512667579797096
 20
113.0111885101244127
 30
0.0
 40
1.999999999999982
100
AcDbArc
 50
0.0
 51
90.0
  0
ARC
  5
12A
100
AcDbEntity
  8
0
 62
256
370
-1
  6
ByLayer
100
AcDbCircle
 10
145.6307718623507981
 20
113.0111885101245406
 30
0.0
 40
1.999999999999911
100
AcDbArc
 50
89.9999999999989768
 51
139.8535388083631972
  0
CIRCLE
  5
12B
100
AcDbEntity
100
AcDbCircle
  8
0
 62
256
370
-1
  6
ByLayer
 10
54.5830501398443602
 20
57.7159085380695132
 30
0.0
 40
1.425
  0
CIRCLE
  5
12C
100
AcDbEntity
100
AcDbCircle
  8
0
 62
256
370
-1
  6
ByLayer
 10
29.8638211047952638
 20
69.2548519867905839
 30
0.0
 40
1.425
  0
CIRCLE
  5
12D
100
AcDbEntity
100
AcDbCircle
  8
0
 62
256
370
-1
  6
ByLayer
 10
52.216453781744363
 20
84.892860568748489
 30
0.0
 40
1.425
  0
CIRCLE
  5
12E
100
AcDbEntity
100
AcDbCircle
  8
0
 62
256
370
-1
  6
ByLayer
 10
61.786867468254357
 20
67.5686093044350713
 30
0.0
 40
2.4249999999999998
  0
CIRCLE
  5
12F
100
AcDbEntity
100
AcDbCircle
  8
0
 62
256
370
-1
  6
ByLayer
 10
32.7904920268918545
 20
81.1041259648197013
 30
0.0
 40
2.4249999999999998
  0
CIRCLE
  5
130
100
AcDbEntity
100
AcDbCircle
  8
0
 62
256
370
-1
  6
ByLayer
 10
45.5544416754613621
 20
70.6212070312028715
 30
0.0
 40
5.2000000000000002
  0
CIRCLE
  5
131
100
AcDbEntity
100
AcDbCircle
  8
0
 62
256
370
-1
  6
ByLayer
 10
45.5544416754613621
 20
70.6212070312028715
 30
0.0
 40
21.5
  0
CIRCLE
  5
132
100
AcDbEntity
100
AcDbCircle
  8
0
 62
256
370
-1
  6
ByLayer
 10
102.8999999999999915
 20
72.0050125628933415
 30
0.0
 40
1.5
  0
CIRCLE
  5
133
100
AcDbEntity
100
AcDbCircle
  8
0
 62
256
370
-1
  6
ByLayer
 10
102.8999999999999915
 20
77.0050125628932562
 30
0.0
 40
1.5
  0
ARC
  5
134
100
AcDbEntity
  8
0
 62
256
370
-1
  6
ByLayer
100
AcDbCircle
 10
108.3999999999999773
 20
71.0050125628932562
 30
0.0
 40
2.000000000000008
100
AcDbArc
 50
270.0000000000005116
 51
0.0
  0
ARC
  5
135
100
AcDbEntity
  8
0
 62
256
370
-1
  6
ByLayer
100
AcDbCircle
 10
93.3999999999999773
 20
79.511423873275362
 30
0.0
 40
1.999999999999998
100
AcDbArc
 50
0.0
 51
91.4692835813537926
  0
ARC
  5
136
100
AcDbEntity
  8
0
 62
256
370
-1
  6
ByLayer
100
AcDbCircle
 10
97.3999999999999773
 20
71.0050125628932562
 30
0.0
 40
1.999999999999988
100
AcDbArc
 50
180.0
 51
270.0000000000002274
  0
LINE
  5
137
100
AcDbEntity
100
AcDbLine
  8
0
 62
256
370
-1
  6
ByLayer
 10
108.3999999999999915
 20
69.005012562893242
 30
0.0
 11
97.3999999999999915
 21
69.0050125628932562
 31
0.0
  0
LINE
  5
138
100
AcDbEntity
100
AcDbLine
  8
0
 62
256
370
-1
  6
ByLayer
 10
110.3999999999999773
 20
91.5736324867523592
 30
0.0
 11
110.3999999999999773
 21
71.0050125628932562
 31
0.0
  0
LINE
  5
139
100
AcDbEntity
100
AcDbLine
  8
0
 62
256
370
-1
  6
ByLayer
 10
95.3999999999999915
 20
71.0050125628932562
 30
0.0
 11
95.3999999999999773
 21
79.511423873275362
 31
0.0
  0
LINE
  5
13A
100
AcDbEntity
100
AcDbLine
  8
0
 62
256
370
-1
  6
ByLayer
 10
110.3999999999999773
 20
91.5736324867523592
 30
0.0
 11
111.8832032776401348
 21
93.0050931732876762
 31
0.0
  0
ARC
  5
13B
100
AcDbEntity
  8
0
 62
256
370
-1
  6
ByLayer
100
AcDbCircle
 10
111.8999999999999773
 20
94.7550125628933415
 30
0.0
 40
1.7499999999999989
100
AcDbArc
 50
89.9999999999991189
 51
269.4500593840598981
  0
LINE
  5
13C
100
AcDbEntity
100
AcDbLine
  8
0
 62
256
370
-1
  6
ByLayer
 10
111.8999999999999488
 20
96.5050125628933273
 30
0.0
 11
115.2301270189221896
 21
96.5050125628933415
 31
0.0
  0
ARC
  5
13D
100
AcDbEntity
  8
0
 62
256
370
-1
  6
ByLayer
100
AcDbCircle
 10
110.8999999999999773
 20
99.0050125628933557
 30
0.0
 40
4.9999999999999911
100
AcDbArc
 50
330.0
 51
31.0027191338739598
  0
LINE
  5
13E
100
AcDbEntity
100
AcDbLine
  8
0
 62
256
370
-1
  6
ByLayer
 10
119.9000000000000057
 20
122.5800125628933586
 30
0.0
 11
119.9000000000000057
 21
112.1939039264892415
 31
0.0
  0
LINE
  5
13F
100
AcDbEntity
100
AcDbLine
  8
0
 62
256
370
-1
  6
ByLayer
 10
119.9000000000000057
 20
132.5800125628933586
 30
0.0
 11
119.9000000000000057
 21
125.4300125628933529
 31
0.0
  0
LINE
  5
140
100
AcDbEntity
100
AcDbLine
  8
0
 62
256
370
-1
  6
ByLayer
 10
119.9000000000000057
 20
139.3050125628933813
 30
0.0
 11
119.9000000000000057
 21
135.4300125628933813
 31
0.0
  0
LINE
  5
141
100
AcDbEntity
100
AcDbLine
  8
0
 62
256
370
-1
  6
ByLayer
 10
117.8999999999999488
 20
141.3050125628933813
 30
0.0
 11
73.5
 21
141.3050125628933813
 31
0.0
  0
ARC
  5
142
100
AcDbEntity
  8
0
 62
256
370
-1
  6
ByLayer
100
AcDbCircle
 10
73.4999999999999574
 20
137.8050125628932676
 30
0.0
 40
3.5
100
AcDbArc
 50
90.0
 51
180.0
  0
LINE
  5
143
100
AcDbEntity
100
AcDbLine
  8
0
 62
256
370
-1
  6
ByLayer
 10
69.9999999999999716
 20
137.8050125628932676
 30
0.0
 11
70.0000000000000142
 21
100.0
 31
0.0
  0
ARC
  5
144
100
AcDbEntity
  8
0
 62
256
370
-1
  6
ByLayer
100
AcDbCircle
 10
74.9000000000000057
 20
99.0050125628933415
 30
0.0
 40
5.0000000000000089
100
AcDbArc
 50
168.5216590454660945
 51
226.0170368696414869
  0
LINE
  5
145
100
AcDbEntity
100
AcDbLine
  8
0
 62
256
370
-1
  6
ByLayer
 10
71.4277777777777629
 20
95.4072809387297411
 30
0.0
 11
80.7472222222222342
 21
86.4129518783210528
 31
0.0
  0
ARC
  5
146
100
AcDbEntity
  8
0
 62
256
370
-1
  6
ByLayer
100
AcDbCircle
 10
92.8999999999999773
 20
99.0050125628933415
 30
0.0
 40
17.5000000000000107
100
AcDbArc
 50
226.0170368696414869
 51
271.4692835813538068
  0
CIRCLE
  5
147
100
AcDbEntity
100
AcDbCircle
  8
0
 62
256
370
-1
  6
ByLayer
 10
92.8999999999999773
 20
129.0050125628932562
 30
0.0
 40
3.75
  0
CIRCLE
  5
148
100
AcDbEntity
100
AcDbCircle
  8
0
 62
256
370
-1
  6
ByLayer
 10
74.8999999999999773
 20
99.0050125628933273
 30
0.0
 40
2.4249999999999989
  0
CIRCLE
  5
149
100
AcDbEntity
100
AcDbCircle
  8
0
 62
256
370
-1
  6
ByLayer
 10
110.8999999999999773
 20
99.0050125628933557
 30
0.0
 40
2.4249999999999989
  0
CIRCLE
  5
14A
100
AcDbEntity
100
AcDbCircle
  8
0
 62
256
370
-1
  6
ByLayer
 10
81.8999999999999631
 20
129.0050125628932562
 30
0.0
 40
2.25
  0
CIRCLE
  5
14B
100
AcDbEntity
100
AcDbCircle
  8
0
 62
256
370
-1
  6
ByLayer
 10
73.4999999999999574
 20
137.8050125628932676
 30
0.0
 40
1.425
  0
CIRCLE
  5
14C
100
AcDbEntity
100
AcDbCircle
  8
0
 62
256
370
-1
  6
ByLayer
 10
73.4999999999999716
 20
120.2050125628932449
 30
0.0
 40
1.425
  0
LINE
  5
14D
100
AcDbEntity
100
AcDbLine
  8
0
 62
256
370
-1
  6
ByLayer
 10
104.9000000000000057
 20
137.8050125628932676
 30
0.0
 11
104.8999999999999915
 21
138.0050125628933699
 31
0.0
  0
ARC
  5
14E
100
AcDbEntity
  8
0
 62
256
370
-1
  6
ByLayer
100
AcDbCircle
 10
101.40000000000245
 20
137.8050125628933813
 30
0.0
 40
3.4999999999975211
100
AcDbArc
 50
0.0
 51
3.2758289597993961
  0
ARC
  5
14F
100
AcDbEntity
  8
0
 62
256
370
-1
  6
ByLayer
100
AcDbCircle
 10
116.9000000000000341
 20
102.6105638383572654
 30
0.0
 40
2.0000000000000631
100
AcDbArc
 50
180.0
 51
211.0027191338735122
  0
ARC
  5
150
100
AcDbEntity
  8
0
 62
256
370
-1
  6
ByLayer
100
AcDbCircle
 10
116.8999999999999773
 20
108.1939039264892415
 30
0.0
 40
2.0000000000000049
100
AcDbArc
 50
90.0
 51
180.0
  0
ARC
  5
151
100
AcDbEntity
  8
0
 62
256
370
-1
  6
ByLayer
100
AcDbCircle
 10
117.8999999999999488
 20
112.1939039264892415
 30
0.0
 40
2.0000000000000062
100
AcDbArc
 50
270.0000000000005116
 51
0.0
  0
ARC
  5
152
100
AcDbEntity
  8
0
 62
256
370
-1
  6
ByLayer
100
AcDbCircle
 10
117.8999999999999488
 20
139.3050125628933813
 30
0.0
 40
2.0000000000000102
100
AcDbArc
 50
0.0
 51
89.9999999999994742
  0
LINE
  5
153
100
AcDbEntity
100
AcDbLine
  8
0
 62
256
370
-1
  6
ByLayer
 10
114.9000000000000057
 20
108.1939039264892415
 30
0.0
 11
114.9000000000000057
 21
102.6105638383572796
 31
0.0
  0
LINE
  5
154
100
AcDbEntity
100
AcDbLine
  8
0
 62
256
370
-1
  6
ByLayer
 10
117.9000000000000057
 20
110.1939039264892415
 30
0.0
 11
116.9000000000000341
 21
110.1939039264892415
 31
0.0
  0
LINE
  5
155
100
AcDbEntity
100
AcDbLine
  8
0
 62
256
370
-1
  6
ByLayer
 10
104.8999999999999915
 20
138.0050125628933699
 30
0.0
 11
104.8942810419312224
 21
138.0050125628933699
 31
0.0
  0
LINE
  5
156
100
AcDbEntity
100
AcDbLine
  8
0
 62
256
370
-1
  6
ByLayer
 10
119.9000000000000057
 20
122.5800125628933586
 30
0.0
 11
116.3999999999999773
 21
122.5800125628933586
 31
0.0
  0
LINE
  5
157
100
AcDbEntity
100
AcDbLine
  8
0
 62
256
370
-1
  6
ByLayer
 10
116.3999999999999773
 20
122.5800125628933586
 30
0.0
 11
116.3999999999999773
 21
122.0550125628933529
 31
0.0
  0
LINE
  5
158
100
AcDbEntity
100
AcDbLine
  8
0
 62
256
370
-1
  6
ByLayer
 10
115.7999999999999829
 20
121.4550125628933586
 30
0.0
 11
114.4999999999999716
 21
121.4550125628933586
 31
0.0
  0
LINE
  5
159
100
AcDbEntity
100
AcDbLine
  8
0
 62
256
370
-1
  6
ByLayer
 10
113.8999999999999773
 20
122.0550125628933529
 30
0.0
 11
113.8999999999999773
 21
122.5800125628933586
 31
0.0
  0
LINE
  5
15A
100
AcDbEntity
100
AcDbLine
  8
0
 62
256
370
-1
  6
ByLayer
 10
113.8999999999999773
 20
122.5800125628933586
 30
0.0
 11
112.4999999999999716
 21
122.5800125628933586
 31
0.0
  0
LINE
  5
15B
100
AcDbEntity
100
AcDbLine
  8
0
 62
256
370
-1
  6
ByLayer
 10
111.8999999999999773
 20
123.1800125628933529
 30
0.0
 11
111.8999999999999773
 21
124.8300125628933586
 31
0.0
  0
LINE
  5
15C
100
AcDbEntity
100
AcDbLine
  8
0
 62
256
370
-1
  6
ByLayer
 10
112.4999999999999716
 20
125.4300125628933529
 30
0.0
 11
113.8999999999999631
 21
125.4300125628933529
 31
0.0
  0
LINE
  5
15D
100
AcDbEntity
100
AcDbLine
  8
0
 62
256
370
-1
  6
ByLayer
 10
113.8999999999999631
 20
125.4300125628933529
 30
0.0
 11
113.8999999999999773
 21
125.9550125628933586
 31
0.0
  0
LINE
  5
15E
100
AcDbEntity
100
AcDbLine
  8
0
 62
256
370
-1
  6
ByLayer
 10
114.4999999999999716
 20
126.5550125628932392
 30
0.0
 11
115.7999999999999829
 21
126.5550125628932392
 31
0.0
  0
LINE
  5
15F
100
AcDbEntity
100
AcDbLine
  8
0
 62
256
370
-1
  6
ByLayer
 10
116.3999999999999773
 20
125.9550125628933586
 30
0.0
 11
116.3999999999999773
 21
125.4300125628933529
 31
0.0
  0
LINE
  5
160
100
AcDbEntity
100
AcDbLine
  8
0
 62
256
370
-1
  6
ByLayer
 10
116.3999999999999773
 20
125.4300125628933529
 30
0.0
 11
119.9000000000000057
 21
125.4300125628933529
 31
0.0
  0
LINE
  5
161
100
AcDbEntity
100
AcDbLine
  8
0
 62
256
370
-1
  6
ByLayer
 10
119.9000000000000057
 20
132.5800125628933586
 30
0.0
 11
116.3999999999999773
 21
132.5800125628933586
 31
0.0
  0
LINE
  5
162
100
AcDbEntity
100
AcDbLine
  8
0
 62
256
370
-1
  6
ByLayer
 10
116.3999999999999773
 20
132.5800125628933586
 30
0.0
 11
116.3999999999999773
 21
132.0550125628933813
 31
0.0
  0
LINE
  5
163
100
AcDbEntity
100
AcDbLine
  8
0
 62
256
370
-1
  6
ByLayer
 10
115.7999999999999829
 20
131.4550125628933586
 30
0.0
 11
114.4999999999999716
 21
131.4550125628933586
 31
0.0
  0
LINE
  5
164
100
AcDbEntity
100
AcDbLine
  8
0
 62
256
370
-1
  6
ByLayer
 10
113.8999999999999773
 20
132.0550125628933813
 30
0.0
 11
113.8999999999999773
 21
132.5800125628933586
 31
0.0
  0
LINE
  5
165
100
AcDbEntity
100
AcDbLine
  8
0
 62
256
370
-1
  6
ByLayer
 10
113.8999999999999773
 20
132.5800125628933586
 30
0.0
 11
112.4999999999999716
 21
132.5800125628933586
 31
0.0
  0
LINE
  5
166
100
AcDbEntity
100
AcDbLine
  8
0
 62
256
370
-1
  6
ByLayer
 10
111.8999999999999915
 20
133.1800125628933813
 30
0.0
 11
111.8999999999999915
 21
134.8300125628933586
 31
0.0
  0
LINE
  5
167
100
AcDbEntity
100
AcDbLine
  8
0
 62
256
370
-1
  6
ByLayer
 10
112.4999999999999716
 20
135.4300125628932676
 30
0.0
 11
113.8999999999999773
 21
135.4300125628933813
 31
0.0
  0
LINE
  5
168
100
AcDbEntity
100
AcDbLine
  8
0
 62
256
370
-1
  6
ByLayer
 10
113.8999999999999773
 20
135.4300125628933813
 30
0.0
 11
113.8999999999999773
 21
135.9550125628933586
 31
0.0
  0
LINE
  5
169
100
AcDbEntity
100
AcDbLine
  8
0
 62
256
370
-1
  6
ByLayer
 10
114.4999999999999716
 20
136.5550125628932676
 30
0.0
 11
115.7999999999999829
 21
136.5550125628932676
 31
0.0
  0
LINE
  5
16A
100
AcDbEntity
100
AcDbLine
  8
0
 62
256
370
-1
  6
ByLayer
 10
116.3999999999999773
 20
135.9550125628933586
 30
0.0
 11
116.3999999999999773
 21
135.4300125628933813
 31
0.0
  0
LINE
  5
16B
100
AcDbEntity
100
AcDbLine
  8
0
 62
256
370
-1
  6
ByLayer
 10
116.3999999999999773
 20
135.4300125628933813
 30
0.0
 11
119.9000000000000057
 21
135.4300125628933813
 31
0.0
  0
ARC
  5
16C
100
AcDbEntity
  8
0
 62
256
370
-1
  6
ByLayer
100
AcDbCircle
 10
115.7999999999999829
 20
122.0550125628932392
 30
0.0
 40
0.5999999999999739
100
AcDbArc
 50
269.9999999999982947
 51
0.0
  0
ARC
  5
16D
100
AcDbEntity
  8
0
 62
256
370
-1
  6
ByLayer
100
AcDbCircle
 10
114.4999999999999432
 20
122.0550125628932392
 30
0.0
 40
0.5999999999999739
100
AcDbArc
 50
180.0
 51
270.0000000000017053
  0
ARC
  5
16E
100
AcDbEntity
  8
0
 62
256
370
-1
  6
ByLayer
100
AcDbCircle
 10
112.4999999999999432
 20
123.1800125628933529
 30
0.0
 40
0.5999999999999961
100
AcDbArc
 50
180.0
 51
270.0000000000007958
  0
ARC
  5
16F
100
AcDbEntity
  8
0
 62
256
370
-1
  6
ByLayer
100
AcDbCircle
 10
112.4999999999999716
 20
124.8300125628933728
 30
0.0
 40
0.600000000000005
100
AcDbArc
 50
90.0000000000008669
 51
180.0
  0
ARC
  5
170
100
AcDbEntity
  8
0
 62
256
370
-1
  6
ByLayer
100
AcDbCircle
 10
114.4999999999999432
 20
125.9550125628933586
 30
0.0
 40
0.5999999999999872
100
AcDbArc
 50
90.0
 51
180.0
  0
ARC
  5
171
100
AcDbEntity
  8
0
 62
256
370
-1
  6
ByLayer
100
AcDbCircle
 10
115.7999999999999829
 20
125.9550125628933586
 30
0.0
 40
0.5999999999999784
100
AcDbArc
 50
0.0
 51
90.0000000000017053
  0
ARC
  5
172
100
AcDbEntity
  8
0
 62
256
370
-1
  6
ByLayer
100
AcDbCircle
 10
115.7999999999999829
 20
132.0550125628933813
 30
0.0
 40
0.5999999999999739
100
AcDbArc
 50
269.9999999999982947
 51
0.0
  0
ARC
  5
173
100
AcDbEntity
  8
0
 62
256
370
-1
  6
ByLayer
100
AcDbCircle
 10
114.4999999999999432
 20
132.0550125628933813
 30
0.0
 40
0.5999999999999872
100
AcDbArc
 50
180.0
 51
270.0000000000017053
  0
ARC
  5
174
100
AcDbEntity
  8
0
 62
256
370
-1
  6
ByLayer
100
AcDbCircle
 10
112.4999999999999432
 20
133.1800125628933813
 30
0.0
 40
0.5999999999999961
100
AcDbArc
 50
180.0
 51
270.0000000000007958
  0
ARC
  5
175
100
AcDbEntity
  8
0
 62
256
370
-1
  6
ByLayer
100
AcDbCircle
 10
112.4999999999999716
 20
134.8300125628933586
 30
0.0
 40
0.5999999999999961
100
AcDbArc
 50
90.0
 51
180.0
  0
ARC
  5
176
100
AcDbEntity
  8
0
 62
256
370
-1
  6
ByLayer
100
AcDbCircle
 10
114.4999999999999432
 20
135.9550125628933586
 30
0.0
 40
0.5999999999999917
100
AcDbArc
 50
90.0
 51
180.0
  0
ARC
  5
177
100
AcDbEntity
  8
0
 62
256
370
-1
  6
ByLayer
100
AcDbCircle
 10
115.7999999999999829
 20
135.9550125628933586
 30
0.0
 40
0.5999999999999917
100
AcDbArc
 50
0.0
 51
90.0000000000017053
  0
CIRCLE
  5
178
100
AcDbEntity
100
AcDbCircle
  8
0
 62
256
370
-1
  6
ByLayer
 10
92.8999999999999773
 20
99.0050125628933415
 30
0.0
 40
5.0
  0
ARC
  5
179
100
AcDbEntity
  8
0
 62
256
370
-1
  6
ByLayer
100
AcDbCircle
 10
5.0607893041353638
 20
57.3805429580330824
 30
0.0
 40
2.0
100
AcDbArc
 50
180.0
 51
270.0
  0
ARC
  5
17A
100
AcDbEntity
  8
0
 62
256
370
-1
  6
ByLayer
100
AcDbCircle
 10
5.0607893041353513
 20
68.3805429580331179
 30
0.0
 40
1.999999999999996
100
AcDbArc
 50
89.9999999999997442
 51
180.0
  0
ARC
  5
17B
100
AcDbEntity
  8
0
 62
256
370
-1
  6
ByLayer
100
AcDbCircle
 10
19.0607893041353513
 20
68.3805429580331179
 30
0.0
 40
1.9999999999999989
100
AcDbArc
 50
0.0
 51
90.0
  0
ARC
  5
17C
100
AcDbEntity
  8
0
 62
256
370
-1
  6
ByLayer
100
AcDbCircle
 10
19.0607893041353478
 20
57.3805429580330753
 30
0.0
 40
2.0
100
AcDbArc
 50
270.0
 51
0.0
  0
LINE
  5
17D
100
AcDbEntity
100
AcDbLine
  8
0
 62
256
370
-1
  6
ByLayer
 10
19.0607893041353478
 20
55.3805429580330042
 30
0.0
 11
5.0607893041353638
 21
55.3805429580330042
 31
0.0
  0
LINE
  5
17E
100
AcDbEntity
100
AcDbLine
  8
0
 62
256
370
-1
  6
ByLayer
 10
5.0607893041353691
 20
70.3805429580331179
 30
0.0
 11
19.0607893041353478
 21
70.3805429580331179
 31
0.0
  0
LINE
  5
17F
100
AcDbEntity
100
AcDbLine
  8
0
 62
256
370
-1
  6
ByLayer
 10
21.060789304135362
 20
68.3805429580331179
 30
0.0
 11
21.060789304135362
 21
57.3805429580330753
 31
0.0
  0
LINE
  5
180
100
AcDbEntity
100
AcDbLine
  8
0
 62
256
370
-1
  6
ByLayer
 10
3.0607893041353567
 20
57.3805429580330966
 30
0.0
 11
3.0607893041353549
 21
68.3805429580331179
 31
0.0
  0
CIRCLE
  5
181
100
AcDbEntity
100
AcDbCircle
  8
0
 62
256
370
-1
  6
ByLayer
 10
17.060789304135362
 20
58.9805429580330838
 30
0.0
 40
1.425
  0
CIRCLE
  5
182
100
AcDbEntity
100
AcDbCircle
  8
0
 62
256
370
-1
  6
ByLayer
 10
9.0607893041353496
 20
58.9805429580330838
 30
0.0
 40
1.425
  0
CIRCLE
  5
183
100
AcDbEntity
100
AcDbCircle
  8
0
 62
256
370
-1
  6
ByLayer
 10
17.060789304135362
 20
66.7805429580329815
 30
0.0
 40
1.425
  0
CIRCLE
  5
184
100
AcDbEntity
100
AcDbCircle
  8
0
 62
256
370
-1
  6
ByLayer
 10
9.0607893041353513
 20
66.7805429580329815
 30
0.0
 40
1.425
  0
ARC
  5
185
100
AcDbEntity
  8
0
 62
256
370
-1
  6
ByLayer
100
AcDbCircle
 10
4.9348939706348709
 20
76.0130523161059273
 30
0.0
 40
2.0
100
AcDbArc
 50
180.0
 51
270.0
  0
ARC
  5
186
100
AcDbEntity
  8
0
 62
256
370
-1
  6
ByLayer
100
AcDbCircle
 10
4.9348939706348585
 20
87.0130523161059699
 30
0.0
 40
1.999999999999996
100
AcDbArc
 50
89.9999999999997442
 51
180.0
  0
ARC
  5
187
100
AcDbEntity
  8
0
 62
256
370
-1
  6
ByLayer
100
AcDbCircle
 10
18.9348939706348567
 20
87.0130523161059699
 30
0.0
 40
1.9999999999999989
100
AcDbArc
 50
0.0
 51
90.0
  0
ARC
  5
188
100
AcDbEntity
  8
0
 62
256
370
-1
  6
ByLayer
100
AcDbCircle
 10
18.9348939706348567
 20
76.0130523161059273
 30
0.0
 40
2.0
100
AcDbArc
 50
270.0
 51
0.0
  0
LINE
  5
189
100
AcDbEntity
100
AcDbLine
  8
0
 62
256
370
-1
  6
ByLayer
 10
18.9348939706348567
 20
74.0130523161058562
 30
0.0
 11
4.9348939706348709
 21
74.0130523161058562
 31
0.0
  0
LINE
  5
18A
100
AcDbEntity
100
AcDbLine
  8
0
 62
256
370
-1
  6
ByLayer
 10
4.9348939706348762
 20
89.0130523161059699
 30
0.0
 11
18.9348939706348567
 21
89.0130523161059699
 31
0.0
  0
LINE
  5
18B
100
AcDbEntity
100
AcDbLine
  8
0
 62
256
370
-1
  6
ByLayer
 10
20.9348939706348709
 20
87.0130523161059699
 30
0.0
 11
20.9348939706348709
 21
76.0130523161059273
 31
0.0
  0
LINE
  5
18C
100
AcDbEntity
100
AcDbLine
  8
0
 62
256
370
-1
  6
ByLayer
 10
2.9348939706348638
 20
76.0130523161059415
 30
0.0
 11
2.934893970634862
 21
87.0130523161059699
 31
0.0
  0
CIRCLE
  5
18D
100
AcDbEntity
100
AcDbCircle
  8
0
 62
256
370
-1
  6
ByLayer
 10
16.9348939706348709
 20
77.6130523161059358
 30
0.0
 40
1.425
  0
CIRCLE
  5
18E
100
AcDbEntity
100
AcDbCircle
  8
0
 62
256
370
-1
  6
ByLayer
 10
8.9348939706348567
 20
77.6130523161059358
 30
0.0
 40
1.425
  0
CIRCLE
  5
18F
100
AcDbEntity
100
AcDbCircle
  8
0
 62
256
370
-1
  6
ByLayer
 10
16.9348939706348673
 20
85.4130523161058335
 30
0.0
 40
1.425
  0
CIRCLE
  5
190
100
AcDbEntity
100
AcDbCircle
  8
0
 62
256
370
-1
  6
ByLayer
 10
8.9348939706348567
 20
85.4130523161058335
 30
0.0
 40
1.425
  0
ARC
  5
191
100
AcDbEntity
  8
Bottom
 62
256
370
-1
  6
ByLayer
100
AcDbCircle
 10
79.1097347693022641
 20
72.5847136677043636
 30
0.0
 40
2.575000000000002
100
AcDbArc
 50
45.338846359300689
 51
134.6611536406994105
  0
LINE
  5
192
100
AcDbEntity
100
AcDbLine
  8
Bottom
 62
256
370
-1
  6
ByLayer
 10
77.2997347693022903
 20
70.7531774272766683
 30
0.0
 11
77.2997347693022618
 21
74.416249908132059
 31
0.0
  0
ARC
  5
193
100
AcDbEntity
  8
Bottom
 62
256
370
-1
  6
ByLayer
100
AcDbCircle
 10
79.1097347693022641
 20
72.5847136677043636
 30
0.0
 40
2.5750000000000002
100
AcDbArc
 50
225.3388463593007032
 51
314.6611536406995242
  0
LINE
  5
194
100
AcDbEntity
100
AcDbLine
  8
Bottom
 62
256
370
-1
  6
ByLayer
 10
80.9197347693022664
 20
74.4162499081320306
 30
0.0
 11
80.9197347693022664
 21
70.7531774272766683
 31
0.0
  0
ARC
  5
195
100
AcDbEntity
  8
Bottom
 62
256
370
-1
  6
ByLayer
100
AcDbCircle
 10
79.1097347693019657
 20
72.5847136677048184
 30
0.0
 40
8.7499999999995008
100
AcDbArc
 50
114.7499999999999147
 51
119.2500000000002984
  0
ARC
  5
196
100
AcDbEntity
  8
Bottom
 62
256
370
-1
  6
ByLayer
100
AcDbCircle
 10
68.701426020788162
 20
74.6423548812219764
 30
0.0
 40
8.2892520696423908
100
AcDbArc
 50
42.280644028837969
 51
58.7759182653846182
  0
ARC
  5
197
100
AcDbEntity
  8
Bottom
 62
256
370
-1
  6
ByLayer
100
AcDbCircle
 10
83.5629184429233618
 20
82.2146634877882008
 30
0.0
 40
8.2892520696422718
100
AcDbArc
 50
175.2240817346153108
 51
191.7193559711620878
  0
ARC
  5
198
100
AcDbEntity
  8
Bottom
 62
256
370
-1
  6
ByLayer
100
AcDbCircle
 10
79.109734769302861
 20
72.5847136677037952
 30
0.0
 40
8.750000000000794
100
AcDbArc
 50
132.7500000000003126
 51
137.249999999999801
  0
ARC
  5
199
100
AcDbEntity
  8
Bottom
 62
256
370
-1
  6
ByLayer
100
AcDbCircle
 10
68.5749988071128627
 20
71.3253024660255477
 30
0.0
 40
8.2892520696423642
100
AcDbArc
 50
60.2806440288378909
 51
76.7759182653845471
  0
ARC
  5
19A
100
AcDbEntity
  8
Bottom
 62
256
370
-1
  6
ByLayer
100
AcDbCircle
 10
80.3691459709809664
 20
83.1194496298934524
 30
0.0
 40
8.2892520696422274
100
AcDbArc
 50
193.2240817346151971
 51
209.7193559711620878
  0
ARC
  5
19B
100
AcDbEntity
  8
Bottom
 62
256
370
-1
  6
ByLayer
100
AcDbCircle
 10
79.1097347693033583
 20
72.5847136677037952
 30
0.0
 40
8.7500000000012612
100
AcDbArc
 50
150.7500000000003979
 51
155.249999999999801
  0
ARC
  5
19C
100
AcDbEntity
  8
Bottom
 62
256
370
-1
  6
ByLayer
100
AcDbCircle
 10
69.4797849492380521
 20
68.1315299940832659
 30
0.0
 40
8.2892520696422611
100
AcDbArc
 50
78.2806440288378127
 51
94.7759182653846892
  0
ARC
  5
19D
100
AcDbEntity
  8
Bottom
 62
256
370
-1
  6
ByLayer
100
AcDbCircle
 10
77.0520935557845661
 20
82.9930224162181105
 30
0.0
 40
8.2892520696423446
100
AcDbArc
 50
211.2240817346153108
 51
227.7193559711620878
  0
ARC
  5
19E
100
AcDbEntity
  8
Bottom
 62
256
370
-1
  6
ByLayer
100
AcDbCircle
 10
79.1097347693037705
 20
72.5847136677041362
 30
0.0
 40
8.7500000000015916
100
AcDbArc
 50
168.7500000000005116
 51
173.2499999999996021
  0
ARC
  5
19F
100
AcDbEntity
  8
Bottom
 62
256
370
-1
  6
ByLayer
100
AcDbCircle
 10
71.3272176755568665
 20
65.3736661672700166
 30
0.0
 40
8.2892520696423002
100
AcDbArc
 50
96.2806440288378838
 51
112.7759182653847034
  0
ARC
  5
1A0
100
AcDbEntity
  8
Bottom
 62
256
370
-1
  6
ByLayer
100
AcDbCircle
 10
73.9364573989965663
 20
81.8477574232871774
 30
0.0
 40
8.2892520696423322
100
AcDbArc
 50
229.2240817346153392
 51
245.7193559711620594
  0
ARC
  5
1A1
100
AcDbEntity
  8
Bottom
 62
256
370
-1
  6
ByLayer
100
AcDbCircle
 10
79.1097347693030599
 20
72.5847136677044915
 30
0.0
 40
8.7500000000008171
100
AcDbArc
 50
186.750000000000199
 51
191.2499999999996021
  0
ARC
  5
1A2
100
AcDbEntity
  8
Bottom
 62
256
370
-1
  6
ByLayer
100
AcDbCircle
 10
73.9364573989964526
 20
63.321669912121628
 30
0.0
 40
8.2892520696421972
100
AcDbArc
 50
114.280644028837699
 51
130.7759182653848029
  0
ARC
  5
1A3
100
AcDbEntity
  8
Bottom
 62
256
370
-1
  6
ByLayer
100
AcDbCircle
 10
71.3272176755568665
 20
79.7957611681385686
 30
0.0
 40
8.2892520696422398
100
AcDbArc
 50
247.2240817346151687
 51
263.7193559711620878
  0
ARC
  5
1A4
100
AcDbEntity
  8
Bottom
 62
256
370
-1
  6
ByLayer
100
AcDbCircle
 10
79.1097347693029462
 20
72.5847136677046763
 30
0.0
 40
8.750000000000778
100
AcDbArc
 50
204.750000000000199
 51
209.25
  0
ARC
  5
1A5
100
AcDbEntity
  8
Bottom
 62
256
370
-1
  6
ByLayer
100
AcDbCircle
 10
77.0520935557845519
 20
62.1764049191903467
 30
0.0
 40
8.2892520696423624
100
AcDbArc
 50
132.2806440288379122
 51
148.7759182653846892
  0
ARC
  5
1A6
100
AcDbEntity
  8
Bottom
 62
256
370
-1
  6
ByLayer
100
AcDbCircle
 10
69.4797849492380664
 20
77.0378973413255181
 30
0.0
 40
8.2892520696423251
100
AcDbArc
 50
265.2240817346153108
 51
281.7193559711620878
  0
ARC
  5
1A7
100
AcDbEntity
  8
Bottom
 62
256
370
-1
  6
ByLayer
100
AcDbCircle
 10
79.1097347693027615
 20
72.5847136677048752
 30
0.0
 40
8.7500000000007532
100
AcDbArc
 50
222.7500000000003126
 51
227.249999999999801
  0
ARC
  5
1A8
100
AcDbEntity
  8
Bottom
 62
256
370
-1
  6
ByLayer
100
AcDbCircle
 10
80.3691459709809521
 20
62.0499777055150119
 30
0.0
 40
8.2892520696422718
100
AcDbArc
 50
150.2806440288377985
 51
166.7759182653846892
  0
ARC
  5
1A9
100
AcDbEntity
  8
Bottom
 62
256
370
-1
  6
ByLayer
100
AcDbCircle
 10
68.5749988071129621
 20
73.8441248693830374
 30
0.0
 40
8.2892520696422114
100
AcDbArc
 50
283.2240817346153108
 51
299.7193559711622015
  0
ARC
  5
1AA
100
AcDbEntity
  8
Bottom
 62
256
370
-1
  6
ByLayer
100
AcDbCircle
 10
79.1097347693027473
 20
72.5847136677053584
 30
0.0
 40
8.7500000000011262
100
AcDbArc
 50
240.7500000000002842
 51
245.2499999999997158
  0
ARC
  5
1AB
100
AcDbEntity
  8
Bottom
 62
256
370
-1
  6
ByLayer
100
AcDbCircle
 10
83.5629184429233618
 20
62.9547638476402014
 30
0.0
 40
8.2892520696423251
100
AcDbArc
 50
168.2806440288379122
 51
184.775918265384604
  0
ARC
  5
1AC
100
AcDbEntity
  8
Bottom
 62
256
370
-1
  6
ByLayer
100
AcDbCircle
 10
68.7014260207881478
 20
70.5270724541866514
 30
0.0
 40
8.2892520696423801
100
AcDbArc
 50
301.2240817346154245
 51
317.7193559711620878
  0
ARC
  5
1AD
100
AcDbEntity
  8
Bottom
 62
256
370
-1
  6
ByLayer
100
AcDbCircle
 10
79.1097347693024631
 20
72.5847136677058558
 30
0.0
 40
8.7500000000015472
100
AcDbArc
 50
258.7500000000005116
 51
263.2499999999997158
  0
ARC
  5
1AE
100
AcDbEntity
  8
Bottom
 62
256
370
-1
  6
ByLayer
100
AcDbCircle
 10
86.3207822697364691
 20
64.802196573958966
 30
0.0
 40
8.2892520696422025
100
AcDbArc
 50
186.2806440288377132
 51
202.7759182653846892
  0
ARC
  5
1AF
100
AcDbEntity
  8
Bottom
 62
256
370
-1
  6
ByLayer
100
AcDbCircle
 10
69.8466910137194645
 20
67.4114362973985948
 30
0.0
 40
8.2892520696423126
100
AcDbArc
 50
319.2240817346151971
 51
335.7193559711622015
  0
ARC
  5
1B0
100
AcDbEntity
  8
Bottom
 62
256
370
-1
  6
ByLayer
100
AcDbCircle
 10
79.1097347693021646
 20
72.5847136677051736
 30
0.0
 40
8.7500000000008278
100
AcDbArc
 50
276.75
 51
281.2499999999996021
  0
ARC
  5
1B1
100
AcDbEntity
  8
Bottom
 62
256
370
-1
  6
ByLayer
100
AcDbCircle
 10
88.3727785248850637
 20
67.4114362973985664
 30
0.0
 40
8.2892520696422594
100
AcDbArc
 50
204.2806440288377132
 51
220.7759182653846892
  0
ARC
  5
1B2
100
AcDbEntity
  8
Bottom
 62
256
370
-1
  6
ByLayer
100
AcDbCircle
 10
71.8986872688679455
 20
64.8021965739589803
 30
0.0
 40
8.2892520696422558
100
AcDbArc
 50
337.2240817346153108
 51
353.7193559711622015
  0
ARC
  5
1B3
100
AcDbEntity
  8
Bottom
 62
256
370
-1
  6
ByLayer
100
AcDbCircle
 10
79.1097347693017525
 20
72.5847136677051878
 30
0.0
 40
8.7500000000009646
100
AcDbArc
 50
294.7500000000002274
 51
299.2499999999998863
  0
ARC
  5
1B4
100
AcDbEntity
  8
Bottom
 62
256
370
-1
  6
ByLayer
100
AcDbCircle
 10
89.5180435178162668
 20
70.5270724541867793
 30
0.0
 40
8.2892520696423961
100
AcDbArc
 50
222.2806440288379974
 51
238.775918265384604
  0
ARC
  5
1B5
100
AcDbEntity
  8
Bottom
 62
256
370
-1
  6
ByLayer
100
AcDbCircle
 10
74.656551095681067
 20
62.9547638476401943
 30
0.0
 40
8.2892520696423251
100
AcDbArc
 50
355.2240817346154245
 51
11.7193559711621003
  0
ARC
  5
1B6
100
AcDbEntity
  8
Bottom
 62
256
370
-1
  6
ByLayer
100
AcDbCircle
 10
79.1097347693020652
 20
72.5847136677045199
 30
0.0
 40
8.7500000000002824
100
AcDbArc
 50
312.7500000000001137
 51
317.25
  0
ARC
  5
1B7
100
AcDbEntity
  8
Bottom
 62
256
370
-1
  6
ByLayer
100
AcDbCircle
 10
89.6444707314915661
 20
73.8441248693830801
 30
0.0
 40
8.2892520696422647
100
AcDbArc
 50
240.2806440288377701
 51
256.7759182653848029
  0
ARC
  5
1B8
100
AcDbEntity
  8
Bottom
 62
256
370
-1
  6
ByLayer
100
AcDbCircle
 10
77.8503235676234624
 20
62.0499777055150048
 30
0.0
 40
8.2892520696423002
100
AcDbArc
 50
13.2240817346152895
 51
29.7193559711621518
  0
ARC
  5
1B9
100
AcDbEntity
  8
Bottom
 62
256
370
-1
  6
ByLayer
100
AcDbCircle
 10
79.1097347693012694
 20
72.584713667704861
 30
0.0
 40
8.7500000000011138
100
AcDbArc
 50
330.7500000000003979
 51
335.2499999999997726
  0
ARC
  5
1BA
100
AcDbEntity
  8
Bottom
 62
256
370
-1
  6
ByLayer
100
AcDbCircle
 10
88.7396845893663624
 20
77.0378973413254329
 30
0.0
 40
8.2892520696422185
100
AcDbArc
 50
258.2806440288376848
 51
274.7759182653846892
  0
ARC
  5
1BB
100
AcDbEntity
  8
Bottom
 62
256
370
-1
  6
ByLayer
100
AcDbCircle
 10
81.1673759828199763
 20
62.1764049191903609
 30
0.0
 40
8.2892520696423482
100
AcDbArc
 50
31.2240817346154031
 51
47.7193559711621376
  0
ARC
  5
1BC
100
AcDbEntity
  8
Bottom
 62
256
370
-1
  6
ByLayer
100
AcDbCircle
 10
79.1097347693006725
 20
72.5847136677046052
 30
0.0
 40
8.7500000000015827
100
AcDbArc
 50
348.7500000000005116
 51
353.2499999999996021
  0
ARC
  5
1BD
100
AcDbEntity
  8
Bottom
 62
256
370
-1
  6
ByLayer
100
AcDbCircle
 10
86.8922518630476617
 20
79.7957611681385117
 30
0.0
 40
8.2892520696422451
100
AcDbArc
 50
276.2806440288377985
 51
292.7759182653846892
  0
ARC
  5
1BE
100
AcDbEntity
  8
Bottom
 62
256
370
-1
  6
ByLayer
100
AcDbCircle
 10
84.2830121396079619
 20
63.3216699121215427
 30
0.0
 40
8.2892520696423091
100
AcDbArc
 50
49.2240817346153534
 51
65.7193559711621731
  0
ARC
  5
1BF
100
AcDbEntity
  8
Bottom
 62
256
370
-1
  6
ByLayer
100
AcDbCircle
 10
79.1097347693014683
 20
72.5847136677042215
 30
0.0
 40
8.7500000000008171
100
AcDbArc
 50
6.7500000000002194
 51
11.2499999999996092
  0
ARC
  5
1C0
100
AcDbEntity
  8
Bottom
 62
256
370
-1
  6
ByLayer
100
AcDbCircle
 10
84.2830121396080614
 20
81.8477574232865379
 30
0.0
 40
8.2892520696421972
100
AcDbArc
 50
294.2806440288377985
 51
310.7759182653848029
  0
ARC
  5
1C1
100
AcDbEntity
  8
Bottom
 62
256
370
-1
  6
ByLayer
100
AcDbCircle
 10
86.8922518630476617
 20
65.3736661672700592
 30
0.0
 40
8.2892520696422398
100
AcDbArc
 50
67.2240817346152255
 51
83.7193559711622015
  0
ARC
  5
1C2
100
AcDbEntity
  8
Bottom
 62
256
370
-1
  6
ByLayer
100
AcDbCircle
 10
79.1097347693015678
 20
72.5847136677039657
 30
0.0
 40
8.750000000000826
100
AcDbArc
 50
24.7500000000002416
 51
29.2499999999998224
  0
ARC
  5
1C3
100
AcDbEntity
  8
Bottom
 62
256
370
-1
  6
ByLayer
100
AcDbCircle
 10
81.1673759828199621
 20
82.9930224162181105
 30
0.0
 40
8.2892520696423073
100
AcDbArc
 50
312.2806440288379122
 51
328.7759182653846892
  0
ARC
  5
1C4
100
AcDbEntity
  8
Bottom
 62
256
370
-1
  6
ByLayer
100
AcDbCircle
 10
88.7396845893663624
 20
68.1315299940831949
 30
0.0
 40
8.2892520696423322
100
AcDbArc
 50
85.224081734615325
 51
101.7193559711620026
  0
ARC
  5
1C5
100
AcDbEntity
  8
Bottom
 62
256
370
-1
  6
ByLayer
100
AcDbCircle
 10
79.1097347693020652
 20
72.5847136677041647
 30
0.0
 40
8.7500000000002824
100
AcDbArc
 50
42.7500000000001421
 51
47.2499999999999503
  0
ARC
  5
1C6
100
AcDbEntity
  8
Bottom
 62
256
370
-1
  6
ByLayer
100
AcDbCircle
 10
77.8503235676234624
 20
83.1194496298937224
 30
0.0
 40
8.2892520696422647
100
AcDbArc
 50
330.2806440288377985
 51
346.7759182653848029
  0
ARC
  5
1C7
100
AcDbEntity
  8
Bottom
 62
256
370
-1
  6
ByLayer
100
AcDbCircle
 10
89.6444707314915661
 20
71.3253024660255761
 30
0.0
 40
8.2892520696423002
100
AcDbArc
 50
103.2240817346152966
 51
119.7193559711622015
  0
ARC
  5
1C8
100
AcDbEntity
  8
Bottom
 62
256
370
-1
  6
ByLayer
100
AcDbCircle
 10
79.1097347693016673
 20
72.5847136677031983
 30
0.0
 40
8.7500000000012612
100
AcDbArc
 50
60.750000000000405
 51
65.249999999999801
  0
ARC
  5
1C9
100
AcDbEntity
  8
Bottom
 62
256
370
-1
  6
ByLayer
100
AcDbCircle
 10
74.6565510956811664
 20
82.2146634877825591
 30
0.0
 40
8.2892520696422611
100
AcDbArc
 50
348.2806440288377985
 51
4.7759182653846368
  0
ARC
  5
1CA
100
AcDbEntity
  8
Bottom
 62
256
370
-1
  6
ByLayer
100
AcDbCircle
 10
89.5180435178162668
 20
74.6423548812220616
 30
0.0
 40
8.2892520696423446
100
AcDbArc
 50
121.2240817346153108
 51
137.7193559711620026
  0
ARC
  5
1CB
100
AcDbEntity
  8
Bottom
 62
256
370
-1
  6
ByLayer
100
AcDbCircle
 10
79.1097347693021646
 20
72.584713667703511
 30
0.0
 40
8.7500000000008402
100
AcDbArc
 50
78.7500000000001705
 51
83.2499999999998153
  0
ARC
  5
1CC
100
AcDbEntity
  8
Bottom
 62
256
370
-1
  6
ByLayer
100
AcDbCircle
 10
71.8986872688678602
 20
80.367230761449747
 30
0.0
 40
8.289252069642286
100
AcDbArc
 50
6.2806440288377727
 51
22.7759182653846288
  0
ARC
  5
1CD
100
AcDbEntity
  8
Bottom
 62
256
370
-1
  6
ByLayer
100
AcDbCircle
 10
88.3727785248850637
 20
77.7579910380100614
 30
0.0
 40
8.2892520696422665
100
AcDbArc
 50
139.2240817346153108
 51
155.7193559711620878
  0
ARC
  5
1CE
100
AcDbEntity
  8
Bottom
 62
256
370
-1
  6
ByLayer
100
AcDbCircle
 10
86.3207822697365685
 20
80.3672307614495764
 30
0.0
 40
8.2892520696422558
100
AcDbArc
 50
157.2240817346153108
 51
173.7193559711622015
  0
ARC
  5
1CF
100
AcDbEntity
  8
Bottom
 62
256
370
-1
  6
ByLayer
100
AcDbCircle
 10
79.1097347693023636
 20
72.5847136677035394
 30
0.0
 40
8.7500000000008171
100
AcDbArc
 50
96.7500000000001847
 51
101.2499999999996021
  0
ARC
  5
1D0
100
AcDbEntity
  8
Bottom
 62
256
370
-1
  6
ByLayer
100
AcDbCircle
 10
69.8466910137194645
 20
77.7579910380101467
 30
0.0
 40
8.2892520696422594
100
AcDbArc
 50
24.280644028837731
 51
40.7759182653846466
  0
ARC
  5
1D1
100
AcDbEntity
  8
Bottom
 62
256
370
-1
  6
ByLayer
100
AcDbCircle
 10
79.1097347693014683
 20
72.5847136677054152
 30
0.0
 40
10.9999999999986802
100
AcDbArc
 50
123.7499999999998153
 51
128.2500000000003126
  0
ARC
  5
1D2
100
AcDbEntity
  8
Bottom
 62
256
370
-1
  6
ByLayer
100
AcDbCircle
 10
79.109734769302662
 20
72.5847136677041078
 30
0.0
 40
11.0000000000004494
100
AcDbArc
 50
141.750000000000199
 51
146.25
  0
ARC
  5
1D3
100
AcDbEntity
  8
Bottom
 62
256
370
-1
  6
ByLayer
100
AcDbCircle
 10
79.1097347693021646
 20
72.5847136677044205
 30
0.0
 40
10.9999999999998597
100
AcDbArc
 50
159.7500000000001137
 51
164.25
  0
ARC
  5
1D4
100
AcDbEntity
  8
Bottom
 62
256
370
-1
  6
ByLayer
100
AcDbCircle
 10
79.1097347693021646
 20
72.5847136677043352
 30
0.0
 40
10.9999999999999201
100
AcDbArc
 50
177.75
 51
182.25
  0
ARC
  5
1D5
100
AcDbEntity
  8
Bottom
 62
256
370
-1
  6
ByLayer
100
AcDbCircle
 10
79.1097347693039694
 20
72.5847136677049178
 30
0.0
 40
11.0000000000017906
100
AcDbArc
 50
195.7500000000005116
 51
200.2499999999996874
  0
ARC
  5
1D6
100
AcDbEntity
  8
Bottom
 62
256
370
-1
  6
ByLayer
100
AcDbCircle
 10
79.1097347693014683
 20
72.5847136677037525
 30
0.0
 40
10.9999999999989999
100
AcDbArc
 50
213.749999999999801
 51
218.250000000000199
  0
ARC
  5
1D7
100
AcDbEntity
  8
Bottom
 62
256
370
-1
  6
ByLayer
100
AcDbCircle
 10
79.1097347693021504
 20
72.5847136677042641
 30
0.0
 40
10.9999999999999201
100
AcDbArc
 50
231.750000000000199
 51
236.25
  0
ARC
  5
1D8
100
AcDbEntity
  8
Bottom
 62
256
370
-1
  6
ByLayer
100
AcDbCircle
 10
79.1097347693024631
 20
72.5847136677051452
 30
0.0
 40
11.0000000000008296
100
AcDbArc
 50
249.7500000000001421
 51
254.2499999999999147
  0
ARC
  5
1D9
100
AcDbEntity
  8
Bottom
 62
256
370
-1
  6
ByLayer
100
AcDbCircle
 10
79.1097347693022641
 20
72.5847136677042784
 30
0.0
 40
10.9999999999999503
100
AcDbArc
 50
267.7500000000001137
 51
272.25
  0
ARC
  5
1DA
100
AcDbEntity
  8
Bottom
 62
256
370
-1
  6
ByLayer
100
AcDbCircle
 10
79.1097347693021646
 20
72.584713667704662
 30
0.0
 40
11.0000000000003304
100
AcDbArc
 50
285.75
 51
290.2500000000001137
  0
ARC
  5
1DB
100
AcDbEntity
  8
Bottom
 62
256
370
-1
  6
ByLayer
100
AcDbCircle
 10
79.1097347693032589
 20
72.5847136677029425
 30
0.0
 40
10.9999999999982592
100
AcDbArc
 50
303.7499999999997726
 51
308.2500000000003979
  0
ARC
  5
1DC
100
AcDbEntity
  8
Bottom
 62
256
370
-1
  6
ByLayer
100
AcDbCircle
 10
79.1097347693016673
 20
72.5847136677048042
 30
0.0
 40
11.0000000000007603
100
AcDbArc
 50
321.7500000000002842
 51
326.2499999999998863
  0
ARC
  5
1DD
100
AcDbEntity
  8
Bottom
 62
256
370
-1
  6
ByLayer
100
AcDbCircle
 10
79.1097347693013688
 20
72.5847136677046478
 30
0.0
 40
11.0000000000009006
100
AcDbArc
 50
339.7500000000002274
 51
344.2499999999998863
  0
ARC
  5
1DE
100
AcDbEntity
  8
Bottom
 62
256
370
-1
  6
ByLayer
100
AcDbCircle
 10
79.1097347693022641
 20
72.5847136677043636
 30
0.0
 40
10.9999999999999591
100
AcDbArc
 50
357.75
 51
2.2500000000000311
  0
ARC
  5
1DF
100
AcDbEntity
  8
Bottom
 62
256
370
-1
  6
ByLayer
100
AcDbCircle
 10
79.1097347693031452
 20
72.5847136677046336
 30
0.0
 40
10.9999999999990603
100
AcDbArc
 50
15.7499999999998792
 51
20.2500000000001599
  0
ARC
  5
1E0
100
AcDbEntity
  8
Bottom
 62
256
370
-1
  6
ByLayer
100
AcDbCircle
 10
79.1097347693031594
 20
72.5847136677049889
 30
0.0
 40
10.9999999999988702
100
AcDbArc
 50
33.7499999999999503
 51
38.2500000000003766
  0
ARC
  5
1E1
100
AcDbEntity
  8
Bottom
 62
256
370
-1
  6
ByLayer
100
AcDbCircle
 10
79.1097347693015678
 20
72.5847136677034541
 30
0.0
 40
11.0000000000011209
100
AcDbArc
 50
51.75000000000054
 51
56.2499999999998721
  0
ARC
  5
1E2
100
AcDbEntity
  8
Bottom
 62
256
370
-1
  6
ByLayer
100
AcDbCircle
 10
79.1097347693020652
 20
72.5847136677037383
 30
0.0
 40
11.0000000000006501
100
AcDbArc
 50
69.7500000000001563
 51
74.2499999999999716
  0
ARC
  5
1E3
100
AcDbEntity
  8
Bottom
 62
256
370
-1
  6
ByLayer
100
AcDbCircle
 10
79.1097347693022641
 20
72.584713667704392
 30
0.0
 40
10.9999999999999591
100
AcDbArc
 50
87.7499999999999574
 51
92.2500000000000426
  0
ARC
  5
1E4
100
AcDbEntity
  8
Bottom
 62
256
370
-1
  6
ByLayer
100
AcDbCircle
 10
79.1097347693022641
 20
72.584713667704321
 30
0.0
 40
11.0000000000000409
100
AcDbArc
 50
105.7500000000000995
 51
110.25
  0
CIRCLE
  5
1E5
100
AcDbEntity
100
AcDbCircle
  8
Bottom
 62
256
370
-1
  6
ByLayer
 10
79.1097347693022641
 20
77.5847136677043494
 30
0.0
 40
0.5
  0
CIRCLE
  5
1E6
100
AcDbEntity
100
AcDbCircle
  8
Bottom
 62
256
370
-1
  6
ByLayer
 10
84.1097347693022641
 20
72.5847136677043494
 30
0.0
 40
0.5
  0
CIRCLE
  5
1E7
100
AcDbEntity
100
AcDbCircle
  8
Bottom
 62
256
370
-1
  6
ByLayer
 10
79.1097347693022641
 20
67.5847136677043494
 30
0.0
 40
0.5
  0
CIRCLE
  5
1E8
100
AcDbEntity
100
AcDbCircle
  8
Bottom
 62
256
370
-1
  6
ByLayer
 10
74.1097347693022641
 20
72.5847136677043494
 30
0.0
 40
0.5
  0
ENDSEC
  0
SECTION
  2
OBJECTS
  0
DICTIONARY
  5
C
100
AcDbDictionary
280
0
281
1
  3
ACAD_GROUP
350
D
  3
ACAD_LAYOUT
350
1A
  3
ACAD_MLINESTYLE
350
17
  3
ACAD_PLOTSETTINGS
350
19
  3
ACAD_PLOTSTYLENAME
350
E
  3
AcDbVariableDictionary
350
1E9
  0
DICTIONARY
  5
D
100
AcDbDictionary
280
0
281
1
  0
ACDBDICTIONARYWDFLT
  5
E
100
AcDbDictionary
281
1
  3
Normal
350
F
100
AcDbDictionaryWithDefault
340
F
  0
ACDBPLACEHOLDER
  5
F
  0
DICTIONARY
  5
17
100
AcDbDictionary
280
0
281
1
  3
Standard
350
18
  0
MLINESTYLE
  5
18
100
AcDbMlineStyle
  2
STANDARD
 70
0
  3

 62
256
 51
90.0
 52
90.0
 71
2
 49
0.5
 62
256
  6
BYLAYER
 49
-0.5
 62
256
  6
BYLAYER
  0
DICTIONARY
  5
19
100
AcDbDictionary
280
0
281
1
  0
DICTIONARY
  5
1A
100
AcDbDictionary
281
1
  3
Layout1
350
1E
  3
Layout2
350
26
  3
Model
350
22
  0
LAYOUT
  5
1E
100
AcDbPlotSettings
  1

  2
C:\Program Files\AutoCAD 2002\plotters\DWF ePlot (optimized for plotting).pc3
  4

  6

 40
0.0
 41
0.0
 42
0.0
 43
0.0
 44
0.0
 45
0.0
 46
0.0
 47
0.0
 48
0.0
 49
0.0
140
0.0
141
0.0
142
1.0
143
1.0
 70
688
 72
0
 73
0
 74
5
  7

 75
16
147
1.0
148
0.0
149
0.0
100
AcDbLayout
  1
Layout1
 70
1
 71
1
 10
0.0
 20
0.0
 11
420.0
 21
297.0
 12
0.0
 22
0.0
 32
0.0
 14
100000000000000000000.0
 24
100000000000000000000.0
 34
100000000000000000000.0
 15
-100000000000000000000.0
 25
-100000000000000000000.0
 35
-100000000000000000000.0
146
0.0
 13
0.0
 23
0.0
 33
0.0
 16
1.0
 26
0.0
 36
0.0
 17
0.0
 27
1.0
 37
0.0
 76
0
330
1B
  0
LAYOUT
  5
22
100
AcDbPlotSettings
  1

  2
C:\Program Files\AutoCAD 2002\plotters\DWF ePlot (optimized for plotting).pc3
  4

  6

 40
0.0
 41
0.0
 42
0.0
 43
0.0
 44
0.0
 45
0.0
 46
0.0
 47
0.0
 48
0.0
 49
0.0
140
0.0
141
0.0
142
1.0
143
1.0
 70
1712
 72
0
 73
0
 74
0
  7

 75
0
147
1.0
148
0.0
149
0.0
100
AcDbLayout
  1
Model
 70
1
 71
0
 10
0.0
 20
0.0
 11
12.0
 21
9.0
 12
0.0
 22
0.0
 32
0.0
 14
0.0
 24
0.0
 34
0.0
 15
0.0
 25
0.0
 35
0.0
146
0.0
 13
0.0
 23
0.0
 33
0.0
 16
1.0
 26
0.0
 36
0.0
 17
0.0
 27
1.0
 37
0.0
 76
0
330
1F
  0
LAYOUT
  5
26
100
AcDbPlotSettings
  1

  2
C:\Program Files\AutoCAD 2002\plotters\DWF ePlot (optimized for plotting).pc3
  4

  6

 40
0.0
 41
0.0
 42
0.0
 43
0.0
 44
0.0
 45
0.0
 46
0.0
 47
0.0
 48
0.0
 49
0.0
140
0.0
141
0.0
142
1.0
143
1.0
 70
688
 72
0
 73
0
 74
5
  7

 75
16
147
1.0
148
0.0
149
0.0
100
AcDbLayout
  1
Layout2
 70
1
 71
2
 10
0.0
 20
0.0
 11
12.0
 21
9.0
 12
0.0
 22
0.0
 32
0.0
 14
0.0
 24
0.0
 34
0.0
 15
0.0
 25
0.0
 35
0.0
146
0.0
 13
0.0
 23
0.0
 33
0.0
 16
1.0
 26
0.0
 36
0.0
 17
0.0
 27
1.0
 37
0.0
 76
0
330
23
  0
DICTIONARY
  5
1E9
100
AcDbDictionary
281
1
  3
DIMASSOC
350
1EB
  3
HIDETEXT
350
1EA
  0
DICTIONARYVAR
  5
1EA
100
DictionaryVariables
280
0
  1
2
  0
DICTIONARYVAR
  5
1EB
100
DictionaryVariables
280
0
  1
1
  0
ENDSEC
  0
EOF
