999
dxflib 2.1.2.0
  0
SECTION
  2
HEADER
  9
$ACADVER
  1
AC1015
  9
$HANDSEED
  5
FFFF
  9
$DIMASZ
 40
2.5
  9
$PLIMMIN
 10
0.0
 20
0.0
  9
$DIMEXE
 40
1.25
  9
$DIMGAP
 40
0.625
  9
$PLIMMAX
 10
210.0
 20
297.0
  9
$INSUNITS
 70
4
  9
$DIMSTYLE
  2
Standard
  9
$CLAYER
  8
0
  9
$DIMEXO
 40
0.625
  9
$DIMTXT
 40
2.5
  9
$CLAYER
  8
0
  0
ENDSEC
  0
SECTION
  2
TABLES
  0
TABLE
  2
VPORT
  5
8
100
AcDbSymbolTable
 70
1
  0
VPORT
  5
30
100
AcDbSymbolTableRecord
100
AcDbViewportTableRecord
  2
*Active
 70
0
 10
0.0
 20
0.0
 11
1.0
 21
1.0
 12
286.3055555555554861
 22
148.5
 13
0.0
 23
0.0
 14
10.0
 24
10.0
 15
10.0
 25
10.0
 16
0.0
 26
0.0
 36
1.0
 17
0.0
 27
0.0
 37
0.0
 40
297.0
 41
1.92798353909465
 42
50.0
 43
0.0
 44
0.0
 50
0.0
 51
0.0
 71
0
 72
100
 73
1
 74
3
 75
1
 76
1
 77
0
 78
0
281
0
 65
1
110
0.0
120
0.0
130
0.0
111
1.0
121
0.0
131
0.0
112
0.0
122
1.0
132
0.0
 79
0
146
0.0
  0
ENDTAB
  0
TABLE
  2
LTYPE
  5
5
100
AcDbSymbolTable
 70
21
  0
LTYPE
  5
14
100
AcDbSymbolTableRecord
100
AcDbLinetypeTableRecord
  2
ByBlock
 70
0
  3

 72
65
 73
0
 40
0.0
  0
LTYPE
  5
15
100
AcDbSymbolTableRecord
100
AcDbLinetypeTableRecord
  2
ByLayer
 70
0
  3

 72
65
 73
0
 40
0.0
  0
LTYPE
  5
16
100
AcDbSymbolTableRecord
100
AcDbLinetypeTableRecord
  2
CONTINUOUS
 70
0
  3
Solid line
 72
65
 73
0
 40
0.0
  0
LTYPE
  5
31
100
AcDbSymbolTableRecord
100
AcDbLinetypeTableRecord
  2
DOT
 70
0
  3
Dot . . . . . . . . . . . . . . . . . . . . . .
 72
65
 73
2
 40
6.3499999999999996
 49
0.0
 74
0
 49
-6.3499999999999996
 74
0
  0
LTYPE
  5
32
100
AcDbSymbolTableRecord
100
AcDbLinetypeTableRecord
  2
DOT2
 70
0
  3
Dot (.5x) .....................................
 72
65
 73
2
 40
3.1749999999999998
 49
0.0
 74
0
 49
-3.1749999999999998
 74
0
  0
LTYPE
  5
33
100
AcDbSymbolTableRecord
100
AcDbLinetypeTableRecord
  2
DOTX2
 70
0
  3
Dot (2x) .  .  .  .  .  .  .  .  .  .  .  .  .
 72
65
 73
2
 40
12.6999999999999993
 49
0.0
 74
0
 49
-12.6999999999999993
 74
0
  0
LTYPE
  5
34
100
AcDbSymbolTableRecord
100
AcDbLinetypeTableRecord
  2
DASHED
 70
0
  3
Dashed __ __ __ __ __ __ __ __ __ __ __ __ __ _
 72
65
 73
2
 40
19.0500000000000007
 49
12.6999999999999993
 74
0
 49
-6.3499999999999996
 74
0
  0
LTYPE
  5
35
100
AcDbSymbolTableRecord
100
AcDbLinetypeTableRecord
  2
DASHED2
 70
0
  3
Dashed (.5x) _ _ _ _ _ _ _ _ _ _ _ _ _ _ _ _ _
 72
65
 73
2
 40
9.5250000000000004
 49
6.3499999999999996
 74
0
 49
-3.1749999999999998
 74
0
  0
LTYPE
  5
36
100
AcDbSymbolTableRecord
100
AcDbLinetypeTableRecord
  2
DASHEDX2
 70
0
  3
Dashed (2x) ____  ____  ____  ____  ____  ___
 72
65
 73
2
 40
38.1000000000000014
 49
25.3999999999999986
 74
0
 49
-12.6999999999999993
 74
0
  0
LTYPE
  5
37
100
AcDbSymbolTableRecord
100
AcDbLinetypeTableRecord
  2
DASHDOT
 70
0
  3
Dash dot __ . __ . __ . __ . __ . __ . __ . __
 72
65
 73
4
 40
25.3999999999999986
 49
12.6999999999999993
 74
0
 49
-6.3499999999999996
 74
0
 49
0.0
 74
0
 49
-6.3499999999999996
 74
0
  0
LTYPE
  5
38
100
AcDbSymbolTableRecord
100
AcDbLinetypeTableRecord
  2
DASHDOT2
 70
0
  3
Dash dot (.5x) _._._._._._._._._._._._._._._.
 72
65
 73
4
 40
12.6999999999999993
 49
6.3499999999999996
 74
0
 49
-3.1749999999999998
 74
0
 49
0.0
 74
0
 49
-3.1749999999999998
 74
0
  0
LTYPE
  5
39
100
AcDbSymbolTableRecord
100
AcDbLinetypeTableRecord
  2
DASHDOTX2
 70
0
  3
Dash dot (2x) ____  .  ____  .  ____  .  ___
 72
65
 73
4
 40
50.7999999999999972
 49
25.3999999999999986
 74
0
 49
-12.6999999999999993
 74
0
 49
0.0
 74
0
 49
-12.6999999999999993
 74
0
  0
LTYPE
  5
3A
100
AcDbSymbolTableRecord
100
AcDbLinetypeTableRecord
  2
DIVIDE
 70
0
  3
Divide ____ . . ____ . . ____ . . ____ . . ____
 72
65
 73
6
 40
31.75
 49
12.6999999999999993
 74
0
 49
-6.3499999999999996
 74
0
 49
0.0
 74
0
 49
-6.3499999999999996
 74
0
 49
0.0
 74
0
 49
-6.3499999999999996
 74
0
  0
LTYPE
  5
3B
100
AcDbSymbolTableRecord
100
AcDbLinetypeTableRecord
  2
DIVIDE2
 70
0
  3
Divide (.5x) __..__..__..__..__..__..__..__.._
 72
65
 73
6
 40
15.875
 49
6.3499999999999996
 74
0
 49
-3.1749999999999998
 74
0
 49
0.0
 74
0
 49
-3.1749999999999998
 74
0
 49
0.0
 74
0
 49
-3.1749999999999998
 74
0
  0
LTYPE
  5
3C
100
AcDbSymbolTableRecord
100
AcDbLinetypeTableRecord
  2
DIVIDEX2
 70
0
  3
Divide (2x) ________  .  .  ________  .  .  _
 72
65
 73
6
 40
63.5
 49
25.3999999999999986
 74
0
 49
-12.6999999999999993
 74
0
 49
0.0
 74
0
 49
-12.6999999999999993
 74
0
 49
0.0
 74
0
 49
-12.6999999999999993
 74
0
  0
LTYPE
  5
3D
100
AcDbSymbolTableRecord
100
AcDbLinetypeTableRecord
  2
CENTER
 70
0
  3
Center ____ _ ____ _ ____ _ ____ _ ____ _ ____
 72
65
 73
4
 40
50.7999999999999972
 49
31.75
 74
0
 49
-6.3499999999999996
 74
0
 49
6.3499999999999996
 74
0
 49
-6.3499999999999996
 74
0
  0
LTYPE
  5
3E
100
AcDbSymbolTableRecord
100
AcDbLinetypeTableRecord
  2
CENTER2
 70
0
  3
Center (.5x) ___ _ ___ _ ___ _ ___ _ ___ _ ___
 72
65
 73
4
 40
28.5749999999999993
 49
19.0500000000000007
 74
0
 49
-3.1749999999999998
 74
0
 49
3.1749999999999998
 74
0
 49
-3.1749999999999998
 74
0
  0
LTYPE
  5
3F
100
AcDbSymbolTableRecord
100
AcDbLinetypeTableRecord
  2
CENTERX2
 70
0
  3
Center (2x) ________  __  ________  __  _____
 72
65
 73
4
 40
101.5999999999999943
 49
63.5
 74
0
 49
-12.6999999999999993
 74
0
 49
12.6999999999999993
 74
0
 49
-12.6999999999999993
 74
0
  0
LTYPE
  5
40
100
AcDbSymbolTableRecord
100
AcDbLinetypeTableRecord
  2
BORDER
 70
0
  3
Border __ __ . __ __ . __ __ . __ __ . __ __ .
 72
65
 73
6
 40
44.4500000000000028
 49
12.6999999999999993
 74
0
 49
-6.3499999999999996
 74
0
 49
12.6999999999999993
 74
0
 49
-6.3499999999999996
 74
0
 49
0.0
 74
0
 49
-6.3499999999999996
 74
0
  0
LTYPE
  5
41
100
AcDbSymbolTableRecord
100
AcDbLinetypeTableRecord
  2
BORDER2
 70
0
  3
Border (.5x) __.__.__.__.__.__.__.__.__.__.__.
 72
65
 73
6
 40
22.2250000000000014
 49
6.3499999999999996
 74
0
 49
-3.1749999999999998
 74
0
 49
6.3499999999999996
 74
0
 49
-3.1749999999999998
 74
0
 49
0.0
 74
0
 49
-3.1749999999999998
 74
0
  0
LTYPE
  5
42
100
AcDbSymbolTableRecord
100
AcDbLinetypeTableRecord
  2
BORDERX2
 70
0
  3
Border (2x) ____  ____  .  ____  ____  .  ___
 72
65
 73
6
 40
88.9000000000000057
 49
25.3999999999999986
 74
0
 49
-12.6999999999999993
 74
0
 49
25.3999999999999986
 74
0
 49
-12.6999999999999993
 74
0
 49
0.0
 74
0
 49
-12.6999999999999993
 74
0
  0
ENDTAB
  0
TABLE
  2
LAYER
  5
2
100
AcDbSymbolTable
 70
9
  0
LAYER
  5
10
100
AcDbSymbolTableRecord
100
AcDbLayerTableRecord
  2
0
 70
0
 62
7
  6
CONTINUOUS
370
0
390
F
  0
LAYER
  5
43
100
AcDbSymbolTableRecord
100
AcDbLayerTableRecord
  2
Bottom Layer
 70
0
 62
7
  6
CONTINUOUS
370
0
390
F
  0
LAYER
  5
44
100
AcDbSymbolTableRecord
100
AcDbLayerTableRecord
  2
Notes
 70
0
 62
7
  6
CONTINUOUS
370
0
390
F
  0
LAYER
  5
45
100
AcDbSymbolTableRecord
100
AcDbLayerTableRecord
  2
Middle
 70
0
 62
7
  6
CONTINUOUS
370
0
390
F
  0
LAYER
  5
46
100
AcDbSymbolTableRecord
100
AcDbLayerTableRecord
  2
Middle Text
 70
0
 62
4
  6
CONTINUOUS
370
0
390
F
  0
LAYER
  5
47
100
AcDbSymbolTableRecord
100
AcDbLayerTableRecord
  2
retainer
 70
0
 62
7
  6
CONTINUOUS
370
0
390
F
  0
LAYER
  5
48
100
AcDbSymbolTableRecord
100
AcDbLayerTableRecord
  2
Text
 70
0
 62
4
  6
CONTINUOUS
370
0
390
F
  0
LAYER
  5
49
100
AcDbSymbolTableRecord
100
AcDbLayerTableRecord
  2
Bottom Text
 70
0
 62
4
  6
CONTINUOUS
370
0
390
F
  0
LAYER
  5
4A
100
AcDbSymbolTableRecord
100
AcDbLayerTableRecord
  2
Top
 70
0
 62
7
  6
CONTINUOUS
370
0
390
F
  0
ENDTAB
  0
TABLE
  2
STYLE
  5
3
100
AcDbSymbolTable
 70
1
  0
STYLE
  5
11
100
AcDbSymbolTableRecord
100
AcDbTextStyleTableRecord
  2
Standard
 70
0
 40
0.0
 41
0.75
 50
0.0
 71
0
 42
2.5
  3
txt
  4

  0
ENDTAB
  0
TABLE
  2
VIEW
  5
6
100
AcDbSymbolTable
 70
0
  0
ENDTAB
  0
TABLE
  2
UCS
  5
7
100
AcDbSymbolTable
 70
0
  0
ENDTAB
  0
TABLE
  2
APPID
  5
9
100
AcDbSymbolTable
 70
1
  0
APPID
  5
12
100
AcDbSymbolTableRecord
100
AcDbRegAppTableRecord
  2
ACAD
 70
0
  0
ENDTAB
  0
TABLE
  2
DIMSTYLE
  5
A
100
AcDbSymbolTable
 70
1
100
AcDbDimStyleTable
 71
0
  0
DIMSTYLE
105
27
100
AcDbSymbolTableRecord
100
AcDbDimStyleTableRecord
  2
Standard
 41
2.5
 42
0.625
 43
3.75
 44
1.25
 70
0
 73
0
 74
0
 77
1
 78
8
140
2.5
141
2.5
143
0.03937007874016
147
0.625
171
3
172
1
271
2
272
2
274
3
278
44
283
0
284
8
340
11
  0
ENDTAB
  0
TABLE
  2
BLOCK_RECORD
  5
1
100
AcDbSymbolTable
 70
1
  0
BLOCK_RECORD
  5
1F
100
AcDbSymbolTableRecord
100
AcDbBlockTableRecord
  2
*Model_Space
340
22
  0
BLOCK_RECORD
  5
1B
100
AcDbSymbolTableRecord
100
AcDbBlockTableRecord
  2
*Paper_Space
340
1E
  0
BLOCK_RECORD
  5
23
100
AcDbSymbolTableRecord
100
AcDbBlockTableRecord
  2
*Paper_Space0
340
26
  0
ENDTAB
  0
ENDSEC
  0
SECTION
  2
BLOCKS
  0
BLOCK
  5
20
100
AcDbEntity
  8
0
100
AcDbBlockBegin
  2
*Model_Space
 70
0
 10
0.0
 20
0.0
 30
0.0
  3
*Model_Space
  1

  0
ENDBLK
  5
21
100
AcDbEntity
  8
0
100
AcDbBlockEnd
  0
BLOCK
  5
1C
100
AcDbEntity
 67
1
  8
0
100
AcDbBlockBegin
  2
*Paper_Space
 70
0
 10
0.0
 20
0.0
 30
0.0
  3
*Paper_Space
  1

  0
ENDBLK
  5
1D
100
AcDbEntity
 67
1
  8
0
100
AcDbBlockEnd
  0
BLOCK
  5
24
100
AcDbEntity
  8
0
100
AcDbBlockBegin
  2
*Paper_Space0
 70
0
 10
0.0
 20
0.0
 30
0.0
  3
*Paper_Space0
  1

  0
ENDBLK
  5
25
100
AcDbEntity
  8
0
100
AcDbBlockEnd
  0
ENDSEC
  0
SECTION
  2
ENTITIES
  0
CIRCLE
  5
4B
100
AcDbEntity
100
AcDbCircle
  8
Top
 62
256
370
-1
  6
ByLayer
 10
10.1869199217334909
 20
10.1144576879316688
 30
0.0
 40
3.999999999999992
  0
CIRCLE
  5
4C
100
AcDbEntity
100
AcDbCircle
  8
Top
 62
256
370
-1
  6
ByLayer
 10
10.1869199217334909
 20
10.1144576879316688
 30
0.0
 40
9.499999999999984
  0
MTEXT
  5
4D
100
AcDbEntity
100
AcDbMText
  8
Text
 62
256
370
-1
  6
ByLayer
 10
10.186919921733498
 20
16.8644576879316688
 30
0.0
 40
2.0
 41
100.0
 71
5
 72
2
  1
Drive
  7
standard
 50
0.0
 73
1
 44
1.0
  0
MTEXT
  5
4E
100
AcDbEntity
100
AcDbMText
  8
Text
 62
256
370
-1
  6
ByLayer
 10
10.1869199217334874
 20
4.3938607366209581
 30
0.0
 40
2.0
 41
100.0
 71
5
 72
2
  1
Spacer
  7
standard
 50
0.0
 73
1
 44
1.0
  0
LINE
  5
4F
100
AcDbEntity
100
AcDbLine
  8
Notes
 62
256
370
-1
  6
ByLayer
 10
27.9566243270259633
 20
14.9999999999999716
 30
0.0
 11
27.5999999999999659
 21
15.0000000000000124
 31
0.0
  0
CIRCLE
  5
50
100
AcDbEntity
100
AcDbCircle
  8
Middle
 62
256
370
-1
  6
ByLayer
 10
51.3779056661925324
 20
52.2912996406194424
 30
0.0
 40
1.425
  0
CIRCLE
  5
51
100
AcDbEntity
100
AcDbCircle
  8
Middle
 62
256
370
-1
  6
ByLayer
 10
23.1871270426152591
 20
42.0306953408493769
 30
0.0
 40
1.425
  0
CIRCLE
  5
52
100
AcDbEntity
100
AcDbCircle
  8
Middle
 62
256
370
-1
  6
ByLayer
 10
53.9999999999999432
 20
8.0000000000000853
 30
0.0
 40
1.425
  0
CIRCLE
  5
53
100
AcDbEntity
100
AcDbCircle
  8
Middle
 62
256
370
-1
  6
ByLayer
 10
38.0000000000000568
 20
8.0000000000000213
 30
0.0
 40
1.425
  0
LINE
  5
54
100
AcDbEntity
100
AcDbLine
  8
Middle
 62
256
370
-1
  6
ByLayer
 10
54.7220925705743184
 20
10.9413732326007604
 30
0.0
 11
47.204551604287019
 21
8.2052120859953916
 31
0.0
  0
LINE
  5
55
100
AcDbEntity
100
AcDbLine
  8
Middle
 62
256
370
-1
  6
ByLayer
 10
48.1117858521043331
 20
60.6801291990274549
 30
0.0
 11
48.2997243762615085
 21
60.7485332276925831
 31
0.0
  0
LINE
  5
56
100
AcDbEntity
100
AcDbLine
  8
Middle
 62
256
370
-1
  6
ByLayer
 10
48.7108387669400713
 20
57.2799622023599824
 30
0.0
 11
47.7531823656281702
 21
59.9111015405605229
 31
0.0
  0
LINE
  5
57
100
AcDbEntity
100
AcDbLine
  8
Middle
 62
256
370
-1
  6
ByLayer
 10
49.6678049495641858
 20
56.9897627445489547
 30
0.0
 11
49.4798664254069536
 21
56.921358715883855
 31
0.0
  0
LINE
  5
58
100
AcDbEntity
100
AcDbLine
  8
Middle
 62
256
370
-1
  6
ByLayer
 10
50.1466331502201115
 20
55.6741930754486845
 30
0.0
 11
49.6678049495641858
 21
56.9897627445489547
 31
0.0
  0
LINE
  5
59
100
AcDbEntity
100
AcDbLine
  8
Middle
 62
256
370
-1
  6
ByLayer
 10
55.4261853884593805
 20
56.9572862769358039
 30
0.0
 11
50.9156608086870506
 21
55.3155895889725926
 31
0.0
  0
LINE
  5
5A
100
AcDbEntity
100
AcDbLine
  8
Middle
 62
256
370
-1
  6
ByLayer
 10
55.3059606742796248
 20
59.0418836045029849
 30
0.0
 11
55.7847888749355434
 21
57.7263139354026791
 31
0.0
  0
LINE
  5
5B
100
AcDbEntity
100
AcDbLine
  8
Middle
 62
256
370
-1
  6
ByLayer
 10
55.4938991984367931
 20
59.1102876331681415
 30
0.0
 11
55.3059606742796248
 21
59.0418836045029849
 31
0.0
  0
LINE
  5
5C
100
AcDbEntity
100
AcDbLine
  8
Middle
 62
256
370
-1
  6
ByLayer
 10
54.8948462836010904
 20
62.5104546298355856
 30
0.0
 11
55.852502684912956
 21
59.8793152916350522
 31
0.0
  0
LINE
  5
5D
100
AcDbEntity
100
AcDbLine
  8
Middle
 62
256
370
-1
  6
ByLayer
 10
53.9378801009769404
 20
62.800654087646592
 30
0.0
 11
54.1258186251341158
 21
62.8690581163117557
 31
0.0
  0
LINE
  5
5E
100
AcDbEntity
100
AcDbLine
  8
Middle
 62
256
370
-1
  6
ByLayer
 10
65.5723358707317061
 20
42.5304671732541664
 30
0.0
 11
55.6445297241665386
 21
69.8068903856647722
 31
0.0
  0
LINE
  5
5F
100
AcDbEntity
100
AcDbLine
  8
Middle
 62
256
370
-1
  6
ByLayer
 10
71.0
 20
1.0
 30
0.0
 11
71.0
 21
11.7486542739439841
 31
0.0
  0
LINE
  5
60
100
AcDbEntity
100
AcDbLine
  8
Middle
 62
256
370
-1
  6
ByLayer
 10
65.2000000000000455
 20
9.0000000000000373
 30
0.0
 11
65.0000000000000568
 21
9.0000000000000497
 31
0.0
  0
LINE
  5
61
100
AcDbEntity
100
AcDbLine
  8
Middle
 62
256
370
-1
  6
ByLayer
 10
65.8000000000000114
 20
12.4000000000000412
 30
0.0
 11
65.8000000000000114
 21
9.6000000000000281
 31
0.0
  0
LINE
  5
62
100
AcDbEntity
100
AcDbLine
  8
Middle
 62
256
370
-1
  6
ByLayer
 10
65.0
 20
13.0000000000000497
 30
0.0
 11
65.2000000000000455
 21
13.0000000000000675
 31
0.0
  0
LINE
  5
63
100
AcDbEntity
100
AcDbLine
  8
Middle
 62
256
370
-1
  6
ByLayer
 10
65.0
 20
14.4000000000000021
 30
0.0
 11
65.0
 21
13.0000000000000497
 31
0.0
  0
LINE
  5
64
100
AcDbEntity
100
AcDbLine
  8
Middle
 62
256
370
-1
  6
ByLayer
 10
59.6000000000000227
 20
15.0000000000000195
 30
0.0
 11
64.3999999999999773
 21
15.0000000000000568
 31
0.0
  0
LINE
  5
65
100
AcDbEntity
100
AcDbLine
  8
Middle
 62
256
370
-1
  6
ByLayer
 10
59.0000000000000568
 20
13.0000000000000551
 30
0.0
 11
58.9999999999999432
 21
14.3999999999999879
 31
0.0
  0
LINE
  5
66
100
AcDbEntity
100
AcDbLine
  8
Middle
 62
256
370
-1
  6
ByLayer
 10
58.7999999999999545
 20
13.0000000000000373
 30
0.0
 11
59.0000000000000568
 21
13.0000000000000551
 31
0.0
  0
LINE
  5
67
100
AcDbEntity
100
AcDbLine
  8
Middle
 62
256
370
-1
  6
ByLayer
 10
58.1999999999999318
 20
9.6000000000000103
 30
0.0
 11
58.1999999999999886
 21
12.4000000000000217
 31
0.0
  0
LINE
  5
68
100
AcDbEntity
100
AcDbLine
  8
Middle
 62
256
370
-1
  6
ByLayer
 10
59.0
 20
9.0000000000000142
 30
0.0
 11
58.8000000000000114
 21
9.000000000000048
 31
0.0
  0
LINE
  5
69
100
AcDbEntity
100
AcDbLine
  8
Middle
 62
256
370
-1
  6
ByLayer
 10
33.1999999999999318
 20
9.0000000000000249
 30
0.0
 11
32.9999999999999432
 21
9.0
 31
0.0
  0
LINE
  5
6A
100
AcDbEntity
100
AcDbLine
  8
Middle
 62
256
370
-1
  6
ByLayer
 10
33.8000000000000114
 20
12.4000000000000075
 30
0.0
 11
33.8000000000000114
 21
9.6000000000000352
 31
0.0
  0
LINE
  5
6B
100
AcDbEntity
100
AcDbLine
  8
Middle
 62
256
370
-1
  6
ByLayer
 10
33.0
 20
13.0000000000000284
 30
0.0
 11
33.1999999999999886
 21
13.0000000000000391
 31
0.0
  0
LINE
  5
6C
100
AcDbEntity
100
AcDbLine
  8
Middle
 62
256
370
-1
  6
ByLayer
 10
32.9999999999999432
 20
14.3999999999999773
 30
0.0
 11
33.0
 21
13.0000000000000284
 31
0.0
  0
LINE
  5
6D
100
AcDbEntity
100
AcDbLine
  8
Middle
 62
256
370
-1
  6
ByLayer
 10
27.0000000000000568
 20
13.0000000000000426
 30
0.0
 11
27.0
 21
14.3999999999999613
 31
0.0
  0
LINE
  5
6E
100
AcDbEntity
100
AcDbLine
  8
Middle
 62
256
370
-1
  6
ByLayer
 10
26.7999999999999545
 20
12.9999999999999716
 30
0.0
 11
27.0000000000000568
 21
13.0000000000000426
 31
0.0
  0
LINE
  5
6F
100
AcDbEntity
100
AcDbLine
  8
Middle
 62
256
370
-1
  6
ByLayer
 10
26.1999999999999886
 20
9.5999999999999783
 30
0.0
 11
26.1999999999999886
 21
12.4000000000000039
 31
0.0
  0
LINE
  5
70
100
AcDbEntity
100
AcDbLine
  8
Middle
 62
256
370
-1
  6
ByLayer
 10
27.0
 20
8.9999999999999858
 30
0.0
 11
26.8000000000000114
 21
9.0000000000000284
 31
0.0
  0
LINE
  5
71
100
AcDbEntity
100
AcDbLine
  8
Middle
 62
256
370
-1
  6
ByLayer
 10
21.0
 20
2.9323052385206978
 30
0.0
 11
21.0
 21
1.0
 31
0.0
  0
LINE
  5
72
100
AcDbEntity
100
AcDbLine
  8
Middle
 62
256
370
-1
  6
ByLayer
 10
14.2828515038115711
 20
48.3674040393033664
 30
0.0
 11
14.470790027968798
 21
48.435808067968523
 31
0.0
  0
LINE
  5
73
100
AcDbEntity
100
AcDbLine
  8
Middle
 62
256
370
-1
  6
ByLayer
 10
14.8819044186473732
 20
44.9672370426359009
 30
0.0
 11
13.9242480173355254
 21
47.5983763808364486
 31
0.0
  0
LINE
  5
74
100
AcDbEntity
100
AcDbLine
  8
Middle
 62
256
370
-1
  6
ByLayer
 10
15.8388706012714842
 20
44.6770375848249159
 30
0.0
 11
15.6509320771143123
 21
44.6086335561597593
 31
0.0
  0
LINE
  5
75
100
AcDbEntity
100
AcDbLine
  8
Middle
 62
256
370
-1
  6
ByLayer
 10
16.31769880192752
 20
43.361467915724667
 30
0.0
 11
15.8388706012714842
 21
44.6770375848249159
 31
0.0
  0
LINE
  5
76
100
AcDbEntity
100
AcDbLine
  8
Middle
 62
256
370
-1
  6
ByLayer
 10
21.5972510401666753
 20
44.6445611172117296
 30
0.0
 11
17.0867264603944022
 21
43.0028644292484898
 31
0.0
  0
LINE
  5
77
100
AcDbEntity
100
AcDbLine
  8
Middle
 62
256
370
-1
  6
ByLayer
 10
21.477026325986909
 20
46.7291584447788608
 30
0.0
 11
21.9558545266428986
 21
45.4135887756786545
 31
0.0
  0
LINE
  5
78
100
AcDbEntity
100
AcDbLine
  8
Middle
 62
256
370
-1
  6
ByLayer
 10
21.6649648501440879
 20
46.7975624734440245
 30
0.0
 11
21.477026325986909
 21
46.7291584447788608
 31
0.0
  0
LINE
  5
79
100
AcDbEntity
100
AcDbLine
  8
Middle
 62
256
370
-1
  6
ByLayer
 10
21.0659119353083533
 20
50.197729470111554
 30
0.0
 11
22.0235683366202011
 21
47.5665901319109921
 31
0.0
  0
LINE
  5
7A
100
AcDbEntity
100
AcDbLine
  8
Middle
 62
256
370
-1
  6
ByLayer
 10
20.1089457526841819
 20
50.4879289279225461
 30
0.0
 11
20.2968842768414746
 21
50.5563329565876671
 31
0.0
  0
ARC
  5
7B
100
AcDbEntity
  8
Middle
 62
256
370
-1
  6
ByLayer
100
AcDbCircle
 10
46.9993395182916629
 20
8.7690276584669444
 30
0.0
 40
0.599999999999996
100
AcDbArc
 50
199.9999999999997158
 51
289.9999999999998863
  0
ARC
  5
7C
100
AcDbEntity
  8
Middle
 62
256
370
-1
  6
ByLayer
100
AcDbCircle
 10
54.5168804845789055
 20
11.5051888050722866
 30
0.0
 40
0.5999999999999983
100
AcDbArc
 50
289.9999999999998295
 51
20.000000000000103
  0
ARC
  5
7D
100
AcDbEntity
  8
Middle
 62
256
370
-1
  6
ByLayer
100
AcDbCircle
 10
48.3169979380997461
 20
60.1163136265558862
 30
0.0
 40
0.600000000000012
100
AcDbArc
 50
110.0000000000003979
 51
199.9999999999984936
  0
ARC
  5
7E
100
AcDbEntity
  8
Middle
 62
256
370
-1
  6
ByLayer
100
AcDbCircle
 10
49.2746543394115974
 20
57.4851742883553243
 30
0.0
 40
0.5999999999999749
100
AcDbArc
 50
199.9999999999977263
 51
290.0000000000015916
  0
ARC
  5
7F
100
AcDbEntity
  8
Middle
 62
256
370
-1
  6
ByLayer
100
AcDbCircle
 10
50.7104487226916447
 20
55.8794051614440974
 30
0.0
 40
0.5999999999999921
100
AcDbArc
 50
199.9999999999991189
 51
290.0000000000009095
  0
ARC
  5
80
100
AcDbEntity
  8
Middle
 62
256
370
-1
  6
ByLayer
100
AcDbCircle
 10
55.2209733024640457
 20
57.5211018494073087
 30
0.0
 40
0.5999999999999996
100
AcDbArc
 50
290.0000000000006821
 51
19.9999999999998828
  0
ARC
  5
81
100
AcDbEntity
  8
Middle
 62
256
370
-1
  6
ByLayer
100
AcDbCircle
 10
55.2886871124414156
 20
59.6741032056396605
 30
0.0
 40
0.5999999999999986
100
AcDbArc
 50
290.0000000000006821
 51
19.9999999999998828
  0
ARC
  5
82
100
AcDbEntity
  8
Middle
 62
256
370
-1
  6
ByLayer
100
AcDbCircle
 10
54.3310307111295288
 20
62.3052425438402011
 30
0.0
 40
0.6000000000000139
100
AcDbArc
 50
20.0000000000011866
 51
109.9999999999992752
  0
ARC
  5
83
100
AcDbEntity
  8
Middle
 62
256
370
-1
  6
ByLayer
100
AcDbCircle
 10
65.1999999999999886
 20
9.6000000000000068
 30
0.0
 40
0.5999999999999984
100
AcDbArc
 50
269.9999999999992042
 51
0.0
  0
ARC
  5
84
100
AcDbEntity
  8
Middle
 62
256
370
-1
  6
ByLayer
100
AcDbCircle
 10
65.1999999999999886
 20
12.4000000000000092
 30
0.0
 40
0.6000000000000006
100
AcDbArc
 50
0.0
 51
89.9999999999982947
  0
ARC
  5
85
100
AcDbEntity
  8
Middle
 62
256
370
-1
  6
ByLayer
100
AcDbCircle
 10
64.3999999999999773
 20
14.400000000000027
 30
0.0
 40
0.6000000000000028
100
AcDbArc
 50
0.0
 51
90.0
  0
ARC
  5
86
100
AcDbEntity
  8
Middle
 62
256
370
-1
  6
ByLayer
100
AcDbCircle
 10
59.6000000000000227
 20
14.399999999999995
 30
0.0
 40
0.6000000000000028
100
AcDbArc
 50
90.0000000000008384
 51
180.0
  0
ARC
  5
87
100
AcDbEntity
  8
Middle
 62
256
370
-1
  6
ByLayer
100
AcDbCircle
 10
58.8000000000000114
 20
12.4000000000000448
 30
0.0
 40
0.5999999999999939
100
AcDbArc
 50
90.0
 51
180.0
  0
ARC
  5
88
100
AcDbEntity
  8
Middle
 62
256
370
-1
  6
ByLayer
100
AcDbCircle
 10
58.7999999999999545
 20
9.5999999999999819
 30
0.0
 40
0.5999999999999984
100
AcDbArc
 50
180.0
 51
270.0000000000007958
  0
ARC
  5
89
100
AcDbEntity
  8
Middle
 62
256
370
-1
  6
ByLayer
100
AcDbCircle
 10
33.1999999999999886
 20
9.6000000000000227
 30
0.0
 40
0.5999999999999984
100
AcDbArc
 50
269.9999999999982947
 51
0.0
  0
ARC
  5
8A
100
AcDbEntity
  8
Middle
 62
256
370
-1
  6
ByLayer
100
AcDbCircle
 10
33.1999999999999318
 20
12.4000000000000217
 30
0.0
 40
0.6000000000000006
100
AcDbArc
 50
0.0
 51
89.9999999999982947
  0
ARC
  5
8B
100
AcDbEntity
  8
Middle
 62
256
370
-1
  6
ByLayer
100
AcDbCircle
 10
32.3999999999999773
 20
14.4000000000000465
 30
0.0
 40
0.6000000000000028
100
AcDbArc
 50
0.0
 51
90.0
  0
ARC
  5
8C
100
AcDbEntity
  8
Middle
 62
256
370
-1
  6
ByLayer
100
AcDbCircle
 10
27.5999999999999659
 20
14.4000000000000217
 30
0.0
 40
0.6000000000000028
100
AcDbArc
 50
90.0000000000016911
 51
180.0
  0
ARC
  5
8D
100
AcDbEntity
  8
Middle
 62
256
370
-1
  6
ByLayer
100
AcDbCircle
 10
26.7999999999999545
 20
12.4000000000000057
 30
0.0
 40
0.5999999999999939
100
AcDbArc
 50
90.0
 51
180.0
  0
ARC
  5
8E
100
AcDbEntity
  8
Middle
 62
256
370
-1
  6
ByLayer
100
AcDbCircle
 10
26.8000000000000114
 20
9.6000000000000654
 30
0.0
 40
0.5999999999999984
100
AcDbArc
 50
180.0
 51
270.0000000000017053
  0
ARC
  5
8F
100
AcDbEntity
  8
Middle
 62
256
370
-1
  6
ByLayer
100
AcDbCircle
 10
14.4880635898069912
 20
47.8035884668318403
 30
0.0
 40
0.5999999999999881
100
AcDbArc
 50
109.9999999999985505
 51
200.0000000000001421
  0
ARC
  5
90
100
AcDbEntity
  8
Middle
 62
256
370
-1
  6
ByLayer
100
AcDbCircle
 10
15.4457199911189029
 20
45.1724491286313423
 30
0.0
 40
0.5999999999999842
100
AcDbArc
 50
199.9999999999998863
 51
290.0000000000021032
  0
ARC
  5
91
100
AcDbEntity
  8
Middle
 62
256
370
-1
  6
ByLayer
100
AcDbCircle
 10
16.8815143743989857
 20
43.566680001720016
 30
0.0
 40
0.6000000000000063
100
AcDbArc
 50
200.0000000000003695
 51
289.9999999999996021
  0
ARC
  5
92
100
AcDbEntity
  8
Middle
 62
256
370
-1
  6
ByLayer
100
AcDbCircle
 10
21.3920389541713121
 20
45.2083766896832699
 30
0.0
 40
0.5999999999999976
100
AcDbArc
 50
289.9999999999996021
 51
19.9999999999988027
  0
ARC
  5
93
100
AcDbEntity
  8
Middle
 62
256
370
-1
  6
ByLayer
100
AcDbCircle
 10
21.4597527641486714
 20
47.3613780459155933
 30
0.0
 40
0.5999999999999954
100
AcDbArc
 50
289.9999999999998863
 51
20.0000000000009983
  0
ARC
  5
94
100
AcDbEntity
  8
Middle
 62
256
370
-1
  6
ByLayer
100
AcDbCircle
 10
20.5020963628367703
 20
49.9925173841161552
 30
0.0
 40
0.6000000000000253
100
AcDbArc
 50
20.0000000000005862
 51
109.9999999999971152
  0
ARC
  5
95
100
AcDbEntity
  8
Middle
 62
256
370
-1
  6
ByLayer
100
AcDbCircle
 10
-18.9999999999994316
 20
11.7486542739441546
 30
0.0
 40
89.9999999999993463
100
AcDbArc
 50
0.0
 51
20.000000000000103
  0
ARC
  5
96
100
AcDbEntity
  8
Middle
 62
256
370
-1
  6
ByLayer
100
AcDbCircle
 10
-68.9999999999997158
 20
2.9323052385225736
 30
0.0
 40
89.9999999999996447
100
AcDbArc
 50
0.0
 51
20.000000000000103
  0
LINE
  5
97
100
AcDbEntity
100
AcDbLine
  8
Middle
 62
256
370
-1
  6
ByLayer
 10
8.6598986848712229
 20
52.7058832193813558
 30
0.0
 11
15.5723358707318233
 21
33.714118137830873
 31
0.0
  0
LINE
  5
98
100
AcDbEntity
100
AcDbLine
  8
Middle
 62
256
370
-1
  6
ByLayer
 10
40.921062123367733
 20
50.613675391604275
 30
0.0
 11
55.0806960570504316
 21
11.7104008910677333
 31
0.0
  0
LINE
  5
99
100
AcDbEntity
100
AcDbLine
  8
Middle
 62
256
370
-1
  6
ByLayer
 10
40.921062123367733
 20
50.613675391604275
 30
0.0
 11
44.2099862961184158
 21
51.8107458932441176
 31
0.0
  0
LINE
  5
9A
100
AcDbEntity
100
AcDbLine
  8
Middle
 62
256
370
-1
  6
ByLayer
 10
44.2099862961184158
 20
51.8107458932441176
 30
0.0
 11
39.7637244328847217
 21
64.0267499634609294
 31
0.0
  0
LINE
  5
9B
100
AcDbEntity
100
AcDbLine
  8
Middle
 62
256
370
-1
  6
ByLayer
 10
32.2758900121373742
 20
47.4670900730081229
 30
0.0
 11
28.9869658393866985
 21
46.2700195713683087
 31
0.0
  0
LINE
  5
9C
100
AcDbEntity
100
AcDbLine
  8
Middle
 62
256
370
-1
  6
ByLayer
 10
28.9869658393866985
 20
46.2700195713683087
 30
0.0
 11
24.5407039761529973
 21
58.4860236415851347
 31
0.0
  0
LINE
  5
9D
100
AcDbEntity
100
AcDbLine
  8
Middle
 62
256
370
-1
  6
ByLayer
 10
71.0
 20
1.0
 30
0.0
 11
21.0
 21
1.0
 31
0.0
  0
LINE
  5
9E
100
AcDbEntity
100
AcDbLine
  8
Middle
 62
256
370
-1
  6
ByLayer
 10
26.8000000000000682
 20
9.0000000000000266
 30
0.0
 11
32.9999999999999432
 21
9.0
 31
0.0
  0
LINE
  5
9F
100
AcDbEntity
100
AcDbLine
  8
Middle
 62
256
370
-1
  6
ByLayer
 10
58.7999999999998977
 20
9.0000000000000053
 30
0.0
 11
65.1999999999999886
 21
9.0000000000000266
 31
0.0
  0
LINE
  5
A0
100
AcDbEntity
100
AcDbLine
  8
Middle
 62
256
370
-1
  6
ByLayer
 10
55.6445297241665386
 20
69.8068903856647722
 30
0.0
 11
39.7637244328847217
 21
64.0267499634609294
 31
0.0
  0
LINE
  5
A1
100
AcDbEntity
100
AcDbLine
  8
Middle
 62
256
370
-1
  6
ByLayer
 10
24.5407039761529973
 20
58.4860236415851347
 30
0.0
 11
8.6598986848712229
 21
52.7058832193813558
 31
0.0
  0
LINE
  5
A2
100
AcDbEntity
100
AcDbLine
  8
Middle
 62
256
370
-1
  6
ByLayer
 10
14.470790027968798
 20
48.435808067968523
 30
0.0
 11
20.1089457526841819
 21
50.4879289279225461
 31
0.0
  0
LINE
  5
A3
100
AcDbEntity
100
AcDbLine
  8
Middle
 62
256
370
-1
  6
ByLayer
 10
48.2997243762615085
 20
60.7485332276925831
 30
0.0
 11
53.9378801009769404
 21
62.800654087646592
 31
0.0
  0
MTEXT
  5
A4
100
AcDbEntity
100
AcDbMText
  8
Middle Text
 62
256
370
-1
  6
ByLayer
 10
61.7011482906917763
 20
43.6842340805069398
 30
0.0
 40
2.0
 41
100.0
 71
3
 72
2
  1
Main\~Plate\PMiddle
  7
standard
 50
360.0
 73
0
 44
1.0
  0
LINE
  5
A5
100
AcDbEntity
100
AcDbLine
  8
Middle
 62
256
370
-1
  6
ByLayer
 10
32.3999999999999773
 20
15.0000000000000409
 30
0.0
 11
27.5999999999999659
 21
15.0000000000000124
 31
0.0
  0
LINE
  5
A6
100
AcDbEntity
100
AcDbLine
  8
Middle
 62
256
370
-1
  6
ByLayer
 10
32.2758900121373742
 20
47.4670900730081229
 30
0.0
 11
46.4355239458200799
 21
8.5638155724715084
 31
0.0
  0
CIRCLE
  5
A7
100
AcDbEntity
100
AcDbCircle
  8
Middle
 62
256
370
-1
  6
ByLayer
 10
64.4999999999995453
 20
28.7099080199929979
 30
0.0
 40
1.4199999999999999
  0
CIRCLE
  5
A8
100
AcDbEntity
100
AcDbCircle
  8
Middle
 62
256
370
-1
  6
ByLayer
 10
55.4999999999995453
 20
28.70990801999287
 30
0.0
 40
1.4199999999999999
  0
CIRCLE
  5
A9
100
AcDbEntity
100
AcDbCircle
  8
Middle
 62
256
370
-1
  6
ByLayer
 10
55.4999999999997158
 20
17.7099080199928594
 30
0.0
 40
1.4199999999999999
  0
CIRCLE
  5
AA
100
AcDbEntity
100
AcDbCircle
  8
Middle
 62
256
370
-1
  6
ByLayer
 10
64.4999999999997158
 20
17.7099080199929979
 30
0.0
 40
1.4199999999999999
  0
CIRCLE
  5
AB
100
AcDbEntity
100
AcDbCircle
  8
Middle
 62
256
370
-1
  6
ByLayer
 10
35.9999999999997158
 20
17.7099080199925396
 30
0.0
 40
1.4199999999999999
  0
CIRCLE
  5
AC
100
AcDbEntity
100
AcDbCircle
  8
Middle
 62
256
370
-1
  6
ByLayer
 10
26.9999999999997158
 20
17.7099080199923975
 30
0.0
 40
1.4199999999999999
  0
CIRCLE
  5
AD
100
AcDbEntity
100
AcDbCircle
  8
Middle
 62
256
370
-1
  6
ByLayer
 10
26.9999999999995453
 20
28.7099080199923975
 30
0.0
 40
1.4199999999999999
  0
CIRCLE
  5
AE
100
AcDbEntity
100
AcDbCircle
  8
Middle
 62
256
370
-1
  6
ByLayer
 10
35.9999999999995453
 20
28.7099080199925432
 30
0.0
 40
1.4199999999999999
  0
LINE
  5
AF
100
AcDbEntity
100
AcDbLine
  8
retainer
 62
256
370
-1
  6
ByLayer
 10
74.7752669413211208
 20
2.8001033074727828
 30
0.0
 11
74.7752669413211066
 21
0.8677980689515022
 31
0.0
  0
LINE
  5
B0
100
AcDbEntity
100
AcDbLine
  8
retainer
 62
256
370
-1
  6
ByLayer
 10
119.3476028120528696
 20
42.3982652422056319
 30
0.0
 11
109.419796665487695
 21
69.6746884546162732
 31
0.0
  0
LINE
  5
B1
100
AcDbEntity
100
AcDbLine
  8
retainer
 62
256
370
-1
  6
ByLayer
 10
124.7752669413211635
 20
0.8677980689515022
 30
0.0
 11
124.7752669413210498
 21
11.6164523428954762
 31
0.0
  0
LINE
  5
B2
100
AcDbEntity
100
AcDbLine
  8
retainer
 62
256
370
-1
  6
ByLayer
 10
62.435165626192358
 20
52.5736812883328497
 30
0.0
 11
69.3476028120529406
 21
33.5819162067823598
 31
0.0
  0
ARC
  5
B3
100
AcDbEntity
  8
retainer
 62
256
370
-1
  6
ByLayer
100
AcDbCircle
 10
34.7752669413217106
 20
11.6164523428956468
 30
0.0
 40
89.9999999999993463
100
AcDbArc
 50
360.0
 51
20.0000000000000711
  0
ARC
  5
B4
100
AcDbEntity
  8
retainer
 62
256
370
-1
  6
ByLayer
100
AcDbCircle
 10
-15.2247330586786518
 20
2.8001033074726775
 30
0.0
 40
89.9999999999996447
100
AcDbArc
 50
360.0
 51
20.0000000000000711
  0
LINE
  5
B5
100
AcDbEntity
100
AcDbLine
  8
retainer
 62
256
370
-1
  6
ByLayer
 10
74.7752669413211493
 20
0.8677980689515022
 30
0.0
 11
124.7752669413211635
 21
0.8677980689515022
 31
0.0
  0
LINE
  5
B6
100
AcDbEntity
100
AcDbLine
  8
retainer
 62
256
370
-1
  6
ByLayer
 10
74.7752669413210214
 20
2.8001033074722215
 30
0.0
 11
74.7752669413211493
 21
0.8677980689515022
 31
0.0
  0
CIRCLE
  5
B7
100
AcDbEntity
100
AcDbCircle
  8
retainer
 62
256
370
-1
  6
ByLayer
 10
105.1531726075136959
 20
52.1590977095705952
 30
0.0
 40
1.45
  0
CIRCLE
  5
B8
100
AcDbEntity
100
AcDbCircle
  8
retainer
 62
256
370
-1
  6
ByLayer
 10
76.9623939839364084
 20
41.8984934098008566
 30
0.0
 40
1.45
  0
CIRCLE
  5
B9
100
AcDbEntity
100
AcDbCircle
  8
retainer
 62
256
370
-1
  6
ByLayer
 10
91.7752669413211919
 20
7.8677980689514992
 30
0.0
 40
1.45
  0
CIRCLE
  5
BA
100
AcDbEntity
100
AcDbCircle
  8
retainer
 62
256
370
-1
  6
ByLayer
 10
107.7752669413210782
 20
7.8677980689514824
 30
0.0
 40
1.45
  0
LINE
  5
BB
100
AcDbEntity
100
AcDbLine
  8
retainer
 62
256
370
-1
  6
ByLayer
 10
109.419796665487695
 20
69.6746884546162306
 30
0.0
 11
93.5389913742058923
 21
63.8945480324124162
 31
0.0
  0
LINE
  5
BC
100
AcDbEntity
100
AcDbLine
  8
retainer
 62
256
370
-1
  6
ByLayer
 10
93.5389913742058923
 20
63.8945480324124162
 30
0.0
 11
97.9852532374395793
 21
51.6785439621956044
 31
0.0
  0
LINE
  5
BD
100
AcDbEntity
100
AcDbLine
  8
retainer
 62
256
370
-1
  6
ByLayer
 10
97.9852532374395793
 20
51.6785439621956044
 30
0.0
 11
82.7622327807078619
 21
46.13781764031976
 31
0.0
  0
LINE
  5
BE
100
AcDbEntity
100
AcDbLine
  8
retainer
 62
256
370
-1
  6
ByLayer
 10
82.7622327807078619
 20
46.13781764031976
 30
0.0
 11
78.3159709174741749
 21
58.3538217105365646
 31
0.0
  0
LINE
  5
BF
100
AcDbEntity
100
AcDbLine
  8
retainer
 62
256
370
-1
  6
ByLayer
 10
78.3159709174741749
 20
58.3538217105365646
 30
0.0
 11
62.4351656261924077
 21
52.5736812883328284
 31
0.0
  0
CIRCLE
  5
C0
100
AcDbEntity
100
AcDbCircle
  8
retainer
 62
256
370
-1
  6
ByLayer
 10
80.7752669413206519
 20
28.5777060889438914
 30
0.0
 40
1.45
  0
CIRCLE
  5
C1
100
AcDbEntity
100
AcDbCircle
  8
retainer
 62
256
370
-1
  6
ByLayer
 10
89.7752669413206661
 20
28.5777060889440335
 30
0.0
 40
1.45
  0
CIRCLE
  5
C2
100
AcDbEntity
100
AcDbCircle
  8
retainer
 62
256
370
-1
  6
ByLayer
 10
109.2752669413206519
 20
28.5777060889443568
 30
0.0
 40
1.45
  0
CIRCLE
  5
C3
100
AcDbEntity
100
AcDbCircle
  8
retainer
 62
256
370
-1
  6
ByLayer
 10
118.2752669413206519
 20
28.5777060889444883
 30
0.0
 40
1.45
  0
CIRCLE
  5
C4
100
AcDbEntity
100
AcDbCircle
  8
retainer
 62
256
370
-1
  6
ByLayer
 10
118.2752669413208224
 20
17.5777060889444989
 30
0.0
 40
1.45
  0
CIRCLE
  5
C5
100
AcDbEntity
100
AcDbCircle
  8
retainer
 62
256
370
-1
  6
ByLayer
 10
109.2752669413208224
 20
17.5777060889443497
 30
0.0
 40
1.45
  0
CIRCLE
  5
C6
100
AcDbEntity
100
AcDbCircle
  8
retainer
 62
256
370
-1
  6
ByLayer
 10
89.7752669413208082
 20
17.5777060889440335
 30
0.0
 40
1.45
  0
CIRCLE
  5
C7
100
AcDbEntity
100
AcDbCircle
  8
retainer
 62
256
370
-1
  6
ByLayer
 10
80.7752669413208366
 20
17.5777060889438985
 30
0.0
 40
1.45
  0
MTEXT
  5
C8
100
AcDbEntity
100
AcDbMText
  8
Text
 62
256
370
-1
  6
ByLayer
 10
103.6308186621990188
 20
38.2923520953032082
 30
0.0
 40
3.0
 41
100.0
 71
5
 72
2
  1
Retainer\PPlate
  7
standard
 50
360.0
 73
0
 44
1.0
  0
LINE
  5
C9
100
AcDbEntity
100
AcDbLine
  8
Bottom Layer
 62
256
370
-1
  6
ByLayer
 10
120.5045128863119999
 20
43.8903699338610522
 30
0.0
 11
125.749471517678316
 21
29.4799645282088782
 31
0.0
  0
CIRCLE
  5
CA
100
AcDbEntity
100
AcDbCircle
  8
Bottom Layer
 62
256
370
-1
  6
ByLayer
 10
146.999999999999801
 20
6.9999999999997184
 30
0.0
 40
1.424999999999996
  0
CIRCLE
  5
CB
100
AcDbEntity
100
AcDbCircle
  8
Bottom Layer
 62
256
370
-1
  6
ByLayer
 10
162.9999999999996874
 20
6.9999999999998108
 30
0.0
 40
1.424999999999996
  0
CIRCLE
  5
CC
100
AcDbEntity
100
AcDbCircle
  8
Bottom Layer
 62
256
370
-1
  6
ByLayer
 10
132.1871270426149181
 20
41.0306953408489221
 30
0.0
 40
1.424999999999996
  0
CIRCLE
  5
CD
100
AcDbEntity
100
AcDbCircle
  8
Bottom Layer
 62
256
370
-1
  6
ByLayer
 10
160.377905666191964
 20
51.2912996406192292
 30
0.0
 40
1.424999999999996
  0
LINE
  5
CE
100
AcDbEntity
100
AcDbLine
  8
Bottom Layer
 62
256
370
-1
  6
ByLayer
 10
153.3999999999992951
 20
64.7142162677461101
 30
0.0
 11
156.599999999999369
 21
65.8789210173980706
 31
0.0
  0
LINE
  5
CF
100
AcDbEntity
100
AcDbLine
  8
Bottom Layer
 62
256
370
-1
  6
ByLayer
 10
124.5723358707315356
 20
32.7141181378303827
 30
0.0
 11
117.6598986848707966
 21
51.7058832193806737
 31
0.0
  0
LINE
  5
D0
100
AcDbEntity
100
AcDbLine
  8
Bottom Layer
 62
256
370
-1
  6
ByLayer
 10
130.0
 20
0.0
 30
0.0
 11
130.0
 21
1.9323052385203709
 31
0.0
  0
LINE
  5
D1
100
AcDbEntity
100
AcDbLine
  8
Bottom Layer
 62
256
370
-1
  6
ByLayer
 10
123.2828515038113153
 20
47.3674040393028619
 30
0.0
 11
129.2968842768410411
 21
49.5563329565871982
 31
0.0
  0
LINE
  5
D2
100
AcDbEntity
100
AcDbLine
  8
Bottom Layer
 62
256
370
-1
  6
ByLayer
 10
130.065911935307895
 20
49.1977294701110281
 30
0.0
 11
131.0235683366199453
 21
46.5665901319105728
 31
0.0
  0
LINE
  5
D3
100
AcDbEntity
100
AcDbLine
  8
Bottom Layer
 62
256
370
-1
  6
ByLayer
 10
130.6649648501437468
 20
45.7975624734435769
 30
0.0
 11
124.6509320771139926
 21
43.6086335561591341
 31
0.0
  0
LINE
  5
D4
100
AcDbEntity
100
AcDbLine
  8
Bottom Layer
 62
256
370
-1
  6
ByLayer
 10
123.8819044186470535
 20
43.9672370426354178
 30
0.0
 11
122.9242480173350742
 21
46.5983763808357594
 31
0.0
  0
LINE
  5
D5
100
AcDbEntity
100
AcDbLine
  8
Bottom Layer
 62
256
370
-1
  6
ByLayer
 10
142.799999999999784
 20
11.3999999999997534
 30
0.0
 11
142.7999999999999261
 21
8.599999999999735
 31
0.0
  0
LINE
  5
D6
100
AcDbEntity
100
AcDbLine
  8
Bottom Layer
 62
256
370
-1
  6
ByLayer
 10
142.1999999999999034
 20
7.9999999999996616
 30
0.0
 11
135.7999999999998977
 21
7.9999999999996012
 31
0.0
  0
LINE
  5
D7
100
AcDbEntity
100
AcDbLine
  8
Bottom Layer
 62
256
370
-1
  6
ByLayer
 10
135.1999999999999034
 20
8.5999999999996248
 30
0.0
 11
135.1999999999998465
 21
11.3999999999996913
 31
0.0
  0
LINE
  5
D8
100
AcDbEntity
100
AcDbLine
  8
Bottom Layer
 62
256
370
-1
  6
ByLayer
 10
135.7999999999998124
 20
11.9999999999996021
 30
0.0
 11
142.1999999999997897
 21
11.9999999999995985
 31
0.0
  0
LINE
  5
D9
100
AcDbEntity
100
AcDbLine
  8
Bottom Layer
 62
256
370
-1
  6
ByLayer
 10
179.9999999999995737
 20
10.7486542739439486
 30
0.0
 11
179.9999999999996874
 21
0.0
 31
0.0
  0
LINE
  5
DA
100
AcDbEntity
100
AcDbLine
  8
Bottom Layer
 62
256
370
-1
  6
ByLayer
 10
164.6445297241658068
 20
68.8068903856644027
 30
0.0
 11
174.5723358707311377
 21
41.53046717325401
 31
0.0
  0
LINE
  5
DB
100
AcDbEntity
100
AcDbLine
  8
Bottom Layer
 62
256
370
-1
  6
ByLayer
 10
156.599999999999369
 20
65.8789210173980706
 30
0.0
 11
164.6445297241658068
 21
68.8068903856644027
 31
0.0
  0
LINE
  5
DC
100
AcDbEntity
100
AcDbLine
  8
Bottom Layer
 62
256
370
-1
  6
ByLayer
 10
174.1999999999996476
 20
7.9999999999999947
 30
0.0
 11
167.7999999999996987
 21
7.9999999999999414
 31
0.0
  0
LINE
  5
DD
100
AcDbEntity
100
AcDbLine
  8
Bottom Layer
 62
256
370
-1
  6
ByLayer
 10
167.199999999999676
 20
8.5999999999999144
 30
0.0
 11
167.1999999999996191
 21
11.3999999999999222
 31
0.0
  0
LINE
  5
DE
100
AcDbEntity
100
AcDbLine
  8
Bottom Layer
 62
256
370
-1
  6
ByLayer
 10
167.7999999999996703
 20
11.9999999999999485
 30
0.0
 11
174.1999999999996191
 21
11.9999999999999289
 31
0.0
  0
LINE
  5
DF
100
AcDbEntity
100
AcDbLine
  8
Bottom Layer
 62
256
370
-1
  6
ByLayer
 10
174.7999999999996135
 20
11.3999999999999382
 30
0.0
 11
174.7999999999996419
 21
8.6000000000000121
 31
0.0
  0
LINE
  5
E0
100
AcDbEntity
100
AcDbLine
  8
Bottom Layer
 62
256
370
-1
  6
ByLayer
 10
157.7108387669394176
 20
56.27996220235962
 30
0.0
 11
156.7531823656275662
 21
58.9111015405602387
 31
0.0
  0
LINE
  5
E1
100
AcDbEntity
100
AcDbLine
  8
Bottom Layer
 62
256
370
-1
  6
ByLayer
 10
157.1117858521037931
 20
59.6801291990272489
 30
0.0
 11
163.1258186251334337
 21
61.8690581163115283
 31
0.0
  0
LINE
  5
E2
100
AcDbEntity
100
AcDbLine
  8
Bottom Layer
 62
256
370
-1
  6
ByLayer
 10
163.8948462836004296
 20
61.5104546298353583
 30
0.0
 11
164.8525026849123094
 21
58.879315291634839
 31
0.0
  0
LINE
  5
E3
100
AcDbEntity
100
AcDbLine
  8
Bottom Layer
 62
256
370
-1
  6
ByLayer
 10
164.4938991984360825
 20
58.110287633167907
 30
0.0
 11
158.4798664254064136
 21
55.9213587158835779
 31
0.0
  0
ARC
  5
E4
100
AcDbEntity
  8
Bottom Layer
 62
256
370
-1
  6
ByLayer
100
AcDbCircle
 10
129.5020963628364257
 20
48.992517384115672
 30
0.0
 40
0.5999999999999791
100
AcDbArc
 50
20.0000000000006892
 51
110.0000000000033396
  0
ARC
  5
E5
100
AcDbEntity
  8
Bottom Layer
 62
256
370
-1
  6
ByLayer
100
AcDbCircle
 10
130.4597527641483055
 20
46.3613780459149893
 30
0.0
 40
0.599999999999983
100
AcDbArc
 50
290.0000000000000568
 51
20.0000000000032863
  0
ARC
  5
E6
100
AcDbEntity
  8
Bottom Layer
 62
256
370
-1
  6
ByLayer
100
AcDbCircle
 10
124.445719991118608
 20
44.1724491286306602
 30
0.0
 40
0.599999999999974
100
AcDbArc
 50
199.9999999999969873
 51
290.0000000000000568
  0
ARC
  5
E7
100
AcDbEntity
  8
Bottom Layer
 62
256
370
-1
  6
ByLayer
100
AcDbCircle
 10
123.4880635898066998
 20
46.8035884668313429
 30
0.0
 40
0.600000000000009
100
AcDbArc
 50
110.0000000000018048
 51
199.9999999999990621
  0
ARC
  5
E8
100
AcDbEntity
  8
Bottom Layer
 62
256
370
-1
  6
ByLayer
100
AcDbCircle
 10
142.1999999999999034
 20
8.5999999999997918
 30
0.0
 40
0.599999999999999
100
AcDbArc
 50
270.0
 51
360.0
  0
ARC
  5
E9
100
AcDbEntity
  8
Bottom Layer
 62
256
370
-1
  6
ByLayer
100
AcDbCircle
 10
135.7999999999998977
 20
8.5999999999996231
 30
0.0
 40
0.5999999999999968
100
AcDbArc
 50
180.0
 51
270.0
  0
ARC
  5
EA
100
AcDbEntity
  8
Bottom Layer
 62
256
370
-1
  6
ByLayer
100
AcDbCircle
 10
135.799999999999784
 20
11.3999999999996362
 30
0.0
 40
0.6000000000000034
100
AcDbArc
 50
90.0000000000017337
 51
180.0
  0
ARC
  5
EB
100
AcDbEntity
  8
Bottom Layer
 62
256
370
-1
  6
ByLayer
100
AcDbCircle
 10
142.1999999999997897
 20
11.3999999999997446
 30
0.0
 40
0.6000000000000013
100
AcDbArc
 50
360.0
 51
89.9999999999983231
  0
ARC
  5
EC
100
AcDbEntity
  8
Bottom Layer
 62
256
370
-1
  6
ByLayer
100
AcDbCircle
 10
167.7999999999996987
 20
8.5999999999999233
 30
0.0
 40
0.5999999999999968
100
AcDbArc
 50
180.0
 51
270.0
  0
ARC
  5
ED
100
AcDbEntity
  8
Bottom Layer
 62
256
370
-1
  6
ByLayer
100
AcDbCircle
 10
167.7999999999996703
 20
11.3999999999999115
 30
0.0
 40
0.6000000000000034
100
AcDbArc
 50
90.0000000000017337
 51
180.0
  0
ARC
  5
EE
100
AcDbEntity
  8
Bottom Layer
 62
256
370
-1
  6
ByLayer
100
AcDbCircle
 10
174.1999999999996191
 20
11.3999999999999382
 30
0.0
 40
0.599999999999999
100
AcDbArc
 50
360.0
 51
89.9999999999983231
  0
ARC
  5
EF
100
AcDbEntity
  8
Bottom Layer
 62
256
370
-1
  6
ByLayer
100
AcDbCircle
 10
174.199999999999676
 20
8.6000000000000512
 30
0.0
 40
0.599999999999999
100
AcDbArc
 50
270.0
 51
360.0
  0
ARC
  5
F0
100
AcDbEntity
  8
Bottom Layer
 62
256
370
-1
  6
ByLayer
100
AcDbCircle
 10
157.3169979380990924
 20
59.1163136265556588
 30
0.0
 40
0.5999999999999952
100
AcDbArc
 50
110.0000000000002842
 51
200.0000000000001705
  0
ARC
  5
F1
100
AcDbEntity
  8
Bottom Layer
 62
256
370
-1
  6
ByLayer
100
AcDbCircle
 10
163.3310307111289887
 20
61.3052425438399879
 30
0.0
 40
0.5999999999999801
100
AcDbArc
 50
20.0000000000001812
 51
110.0000000000018048
  0
ARC
  5
F2
100
AcDbEntity
  8
Bottom Layer
 62
256
370
-1
  6
ByLayer
100
AcDbCircle
 10
164.288687112440698
 20
58.6741032056394189
 30
0.0
 40
0.5999999999999871
100
AcDbArc
 50
290.0000000000000568
 51
20.0000000000001812
  0
ARC
  5
F3
100
AcDbEntity
  8
Bottom Layer
 62
256
370
-1
  6
ByLayer
100
AcDbCircle
 10
158.2746543394110574
 20
56.485174288355033
 30
0.0
 40
0.5999999999999908
100
AcDbArc
 50
200.0000000000001421
 51
290.000000000001819
  0
ARC
  5
F4
100
AcDbEntity
  8
Bottom Layer
 62
256
370
-1
  6
ByLayer
100
AcDbCircle
 10
40.0000000000007105
 20
1.9323052385193256
 30
0.0
 40
89.9999999999994458
100
AcDbArc
 50
360.0
 51
20.0000000000005862
  0
ARC
  5
F5
100
AcDbEntity
  8
Bottom Layer
 62
256
370
-1
  6
ByLayer
100
AcDbCircle
 10
90.0000000000008811
 20
10.748654273943135
 30
0.0
 40
89.9999999999989058
100
AcDbArc
 50
360.0
 51
20.0000000000006892
  0
LINE
  5
F6
100
AcDbEntity
100
AcDbLine
  8
Bottom Layer
 62
256
370
-1
  6
ByLayer
 10
179.9999999999996874
 20
0.0
 30
0.0
 11
130.0
 21
0.0
 31
0.0
  0
LINE
  5
F7
100
AcDbEntity
100
AcDbLine
  8
Bottom Layer
 62
256
370
-1
  6
ByLayer
 10
117.6598986848707966
 20
51.7058832193806737
 30
0.0
 11
133.5407039761525709
 21
57.4860236415847226
 31
0.0
  0
LINE
  5
F8
100
AcDbEntity
100
AcDbLine
  8
Bottom Layer
 62
256
370
-1
  6
ByLayer
 10
137.9869658393861869
 20
45.2700195713678539
 30
0.0
 11
133.5407039761525709
 21
57.4860236415847226
 31
0.0
  0
LINE
  5
F9
100
AcDbEntity
100
AcDbLine
  8
Bottom Layer
 62
256
370
-1
  6
ByLayer
 10
153.2099862961178758
 20
50.8107458932437552
 30
0.0
 11
137.9869658393861869
 21
45.2700195713678539
 31
0.0
  0
LINE
  5
FA
100
AcDbEntity
100
AcDbLine
  8
Bottom Layer
 62
256
370
-1
  6
ByLayer
 10
148.7637244328842314
 20
63.0267499634606452
 30
0.0
 11
153.3999999999992951
 21
64.7142162677461101
 31
0.0
  0
LINE
  5
FB
100
AcDbEntity
100
AcDbLine
  8
Bottom Layer
 62
256
370
-1
  6
ByLayer
 10
153.2099862961178758
 20
50.8107458932437552
 30
0.0
 11
148.7637244328842314
 21
63.0267499634606452
 31
0.0
  0
CIRCLE
  5
FC
100
AcDbEntity
100
AcDbCircle
  8
Bottom Layer
 62
256
370
-1
  6
ByLayer
 10
144.9999999999995453
 20
27.7099080199925396
 30
0.0
 40
1.424999999999996
  0
CIRCLE
  5
FD
100
AcDbEntity
100
AcDbCircle
  8
Bottom Layer
 62
256
370
-1
  6
ByLayer
 10
144.9999999999997158
 20
16.7099080199925396
 30
0.0
 40
1.424999999999996
  0
CIRCLE
  5
FE
100
AcDbEntity
100
AcDbCircle
  8
Bottom Layer
 62
256
370
-1
  6
ByLayer
 10
135.9999999999995453
 20
27.7099080199923939
 30
0.0
 40
1.424999999999996
  0
CIRCLE
  5
FF
100
AcDbEntity
100
AcDbCircle
  8
Bottom Layer
 62
256
370
-1
  6
ByLayer
 10
135.9999999999997158
 20
16.7099080199923975
 30
0.0
 40
1.424999999999996
  0
CIRCLE
  5
100
100
AcDbEntity
100
AcDbCircle
  8
Bottom Layer
 62
256
370
-1
  6
ByLayer
 10
164.4999999999995453
 20
27.7099080199928594
 30
0.0
 40
1.4199999999999999
  0
CIRCLE
  5
101
100
AcDbEntity
100
AcDbCircle
  8
Bottom Layer
 62
256
370
-1
  6
ByLayer
 10
164.4999999999997158
 20
16.7099080199928416
 30
0.0
 40
1.4199999999999999
  0
CIRCLE
  5
102
100
AcDbEntity
100
AcDbCircle
  8
Bottom Layer
 62
256
370
-1
  6
ByLayer
 10
173.4999999999997158
 20
16.7099080199930121
 30
0.0
 40
1.4199999999999999
  0
CIRCLE
  5
103
100
AcDbEntity
100
AcDbCircle
  8
Bottom Layer
 62
256
370
-1
  6
ByLayer
 10
173.4999999999995453
 20
27.7099080199930121
 30
0.0
 40
1.4199999999999999
  0
LINE
  5
104
100
AcDbEntity
100
AcDbLine
  8
Bottom Layer
 62
256
370
-1
  6
ByLayer
 10
151.4999999999994884
 20
33.2099080199926462
 30
0.0
 11
158.4999999999994884
 21
33.209908019992767
 31
0.0
  0
LINE
  5
105
100
AcDbEntity
100
AcDbLine
  8
Bottom Layer
 62
256
370
-1
  6
ByLayer
 10
158.4999999999998295
 20
11.2099080199927634
 30
0.0
 11
158.4999999999994884
 21
33.209908019992767
 31
0.0
  0
LINE
  5
106
100
AcDbEntity
100
AcDbLine
  8
Bottom Layer
 62
256
370
-1
  6
ByLayer
 10
151.4999999999998295
 20
11.2099080199926515
 30
0.0
 11
151.4999999999994884
 21
33.2099080199926462
 31
0.0
  0
LINE
  5
107
100
AcDbEntity
100
AcDbLine
  8
Bottom Layer
 62
256
370
-1
  6
ByLayer
 10
151.4999999999998295
 20
11.2099080199926515
 30
0.0
 11
158.4999999999998295
 21
11.2099080199927634
 31
0.0
  0
MTEXT
  5
108
100
AcDbEntity
100
AcDbMText
  8
Bottom Text
 62
256
370
-1
  6
ByLayer
 10
128.6598986848707966
 20
37.7058832193806666
 30
0.0
 40
2.0
 41
100.0
 71
1
 72
2
  1
Top\~Plate\PBottom
  7
standard
 50
0.0
 73
0
 44
1.0
  0
MTEXT
  5
109
100
AcDbEntity
100
AcDbMText
  8
Bottom Text
 62
256
370
-1
  6
ByLayer
 10
159.6598986848707966
 20
37.7058832193806666
 30
0.0
 40
2.0
 41
100.0
 71
1
 72
2
  1
Top\~Plate\PBottom
  7
standard
 50
0.0
 73
0
 44
1.0
  0
ENDSEC
  0
SECTION
  2
OBJECTS
  0
DICTIONARY
  5
C
100
AcDbDictionary
280
0
281
1
  3
ACAD_GROUP
350
D
  3
ACAD_LAYOUT
350
1A
  3
ACAD_MLINESTYLE
350
17
  3
ACAD_PLOTSETTINGS
350
19
  3
ACAD_PLOTSTYLENAME
350
E
  3
AcDbVariableDictionary
350
10A
  0
DICTIONARY
  5
D
100
AcDbDictionary
280
0
281
1
  0
ACDBDICTIONARYWDFLT
  5
E
100
AcDbDictionary
281
1
  3
Normal
350
F
100
AcDbDictionaryWithDefault
340
F
  0
ACDBPLACEHOLDER
  5
F
  0
DICTIONARY
  5
17
100
AcDbDictionary
280
0
281
1
  3
Standard
350
18
  0
MLINESTYLE
  5
18
100
AcDbMlineStyle
  2
STANDARD
 70
0
  3

 62
256
 51
90.0
 52
90.0
 71
2
 49
0.5
 62
256
  6
BYLAYER
 49
-0.5
 62
256
  6
BYLAYER
  0
DICTIONARY
  5
19
100
AcDbDictionary
280
0
281
1
  0
DICTIONARY
  5
1A
100
AcDbDictionary
281
1
  3
Layout1
350
1E
  3
Layout2
350
26
  3
Model
350
22
  0
LAYOUT
  5
1E
100
AcDbPlotSettings
  1

  2
C:\Program Files\AutoCAD 2002\plotters\DWF ePlot (optimized for plotting).pc3
  4

  6

 40
0.0
 41
0.0
 42
0.0
 43
0.0
 44
0.0
 45
0.0
 46
0.0
 47
0.0
 48
0.0
 49
0.0
140
0.0
141
0.0
142
1.0
143
1.0
 70
688
 72
0
 73
0
 74
5
  7

 75
16
147
1.0
148
0.0
149
0.0
100
AcDbLayout
  1
Layout1
 70
1
 71
1
 10
0.0
 20
0.0
 11
420.0
 21
297.0
 12
0.0
 22
0.0
 32
0.0
 14
100000000000000000000.0
 24
100000000000000000000.0
 34
100000000000000000000.0
 15
-100000000000000000000.0
 25
-100000000000000000000.0
 35
-100000000000000000000.0
146
0.0
 13
0.0
 23
0.0
 33
0.0
 16
1.0
 26
0.0
 36
0.0
 17
0.0
 27
1.0
 37
0.0
 76
0
330
1B
  0
LAYOUT
  5
22
100
AcDbPlotSettings
  1

  2
C:\Program Files\AutoCAD 2002\plotters\DWF ePlot (optimized for plotting).pc3
  4

  6

 40
0.0
 41
0.0
 42
0.0
 43
0.0
 44
0.0
 45
0.0
 46
0.0
 47
0.0
 48
0.0
 49
0.0
140
0.0
141
0.0
142
1.0
143
1.0
 70
1712
 72
0
 73
0
 74
0
  7

 75
0
147
1.0
148
0.0
149
0.0
100
AcDbLayout
  1
Model
 70
1
 71
0
 10
0.0
 20
0.0
 11
12.0
 21
9.0
 12
0.0
 22
0.0
 32
0.0
 14
0.0
 24
0.0
 34
0.0
 15
0.0
 25
0.0
 35
0.0
146
0.0
 13
0.0
 23
0.0
 33
0.0
 16
1.0
 26
0.0
 36
0.0
 17
0.0
 27
1.0
 37
0.0
 76
0
330
1F
  0
LAYOUT
  5
26
100
AcDbPlotSettings
  1

  2
C:\Program Files\AutoCAD 2002\plotters\DWF ePlot (optimized for plotting).pc3
  4

  6

 40
0.0
 41
0.0
 42
0.0
 43
0.0
 44
0.0
 45
0.0
 46
0.0
 47
0.0
 48
0.0
 49
0.0
140
0.0
141
0.0
142
1.0
143
1.0
 70
688
 72
0
 73
0
 74
5
  7

 75
16
147
1.0
148
0.0
149
0.0
100
AcDbLayout
  1
Layout2
 70
1
 71
2
 10
0.0
 20
0.0
 11
12.0
 21
9.0
 12
0.0
 22
0.0
 32
0.0
 14
0.0
 24
0.0
 34
0.0
 15
0.0
 25
0.0
 35
0.0
146
0.0
 13
0.0
 23
0.0
 33
0.0
 16
1.0
 26
0.0
 36
0.0
 17
0.0
 27
1.0
 37
0.0
 76
0
330
23
  0
DICTIONARY
  5
10A
100
AcDbDictionary
281
1
  3
DIMASSOC
350
10C
  3
HIDETEXT
350
10B
  0
DICTIONARYVAR
  5
10B
100
DictionaryVariables
280
0
  1
2
  0
DICTIONARYVAR
  5
10C
100
DictionaryVariables
280
0
  1
1
  0
ENDSEC
  0
EOF
