999
dxflib 2.2.0.0
  0
SECTION
  2
HEADER
  9
$ACADVER
  1
AC1015
  9
$HANDSEED
  5
FFFF
  9
$DIMASZ
 40
2.5
  9
$PLIMMIN
 10
0.0
 20
0.0
  9
$DIMEXE
 40
1.25
  9
$DIMGAP
 40
0.625
  9
$PLIMMAX
 10
210.0
 20
297.0
  9
$INSUNITS
 70
4
  9
$DIMSTYLE
  2
Standard
  9
$CLAYER
  8
0
  9
$DIMEXO
 40
0.625
  9
$DIMTXT
 40
2.5
  9
$CLAYER
  8
0
  0
ENDSEC
  0
SECTION
  2
TABLES
  0
TABLE
  2
VPORT
  5
8
100
AcDbSymbolTable
 70
1
  0
VPORT
  5
30
100
AcDbSymbolTableRecord
100
AcDbViewportTableRecord
  2
*Active
 70
0
 10
0.0
 20
0.0
 11
1.0
 21
1.0
 12
286.3055555555554861
 22
148.5
 13
0.0
 23
0.0
 14
10.0
 24
10.0
 15
10.0
 25
10.0
 16
0.0
 26
0.0
 36
1.0
 17
0.0
 27
0.0
 37
0.0
 40
297.0
 41
1.92798353909465
 42
50.0
 43
0.0
 44
0.0
 50
0.0
 51
0.0
 71
0
 72
100
 73
1
 74
3
 75
1
 76
1
 77
0
 78
0
281
0
 65
1
110
0.0
120
0.0
130
0.0
111
1.0
121
0.0
131
0.0
112
0.0
122
1.0
132
0.0
 79
0
146
0.0
  0
ENDTAB
  0
TABLE
  2
LTYPE
  5
5
100
AcDbSymbolTable
 70
21
  0
LTYPE
  5
14
100
AcDbSymbolTableRecord
100
AcDbLinetypeTableRecord
  2
ByBlock
 70
0
  3

 72
65
 73
0
 40
0.0
  0
LTYPE
  5
15
100
AcDbSymbolTableRecord
100
AcDbLinetypeTableRecord
  2
ByLayer
 70
0
  3

 72
65
 73
0
 40
0.0
  0
LTYPE
  5
16
100
AcDbSymbolTableRecord
100
AcDbLinetypeTableRecord
  2
CONTINUOUS
 70
0
  3
Solid line
 72
65
 73
0
 40
0.0
  0
LTYPE
  5
31
100
AcDbSymbolTableRecord
100
AcDbLinetypeTableRecord
  2
DOT
 70
0
  3
Dot . . . . . . . . . . . . . . . . . . . . . .
 72
65
 73
2
 40
6.3499999999999996
 49
0.0
 74
0
 49
-6.3499999999999996
 74
0
  0
LTYPE
  5
32
100
AcDbSymbolTableRecord
100
AcDbLinetypeTableRecord
  2
DOT2
 70
0
  3
Dot (.5x) .....................................
 72
65
 73
2
 40
3.1749999999999998
 49
0.0
 74
0
 49
-3.1749999999999998
 74
0
  0
LTYPE
  5
33
100
AcDbSymbolTableRecord
100
AcDbLinetypeTableRecord
  2
DOTX2
 70
0
  3
Dot (2x) .  .  .  .  .  .  .  .  .  .  .  .  .
 72
65
 73
2
 40
12.6999999999999993
 49
0.0
 74
0
 49
-12.6999999999999993
 74
0
  0
LTYPE
  5
34
100
AcDbSymbolTableRecord
100
AcDbLinetypeTableRecord
  2
DASHED
 70
0
  3
Dashed __ __ __ __ __ __ __ __ __ __ __ __ __ _
 72
65
 73
2
 40
19.0500000000000007
 49
12.6999999999999993
 74
0
 49
-6.3499999999999996
 74
0
  0
LTYPE
  5
35
100
AcDbSymbolTableRecord
100
AcDbLinetypeTableRecord
  2
DASHED2
 70
0
  3
Dashed (.5x) _ _ _ _ _ _ _ _ _ _ _ _ _ _ _ _ _
 72
65
 73
2
 40
9.5250000000000004
 49
6.3499999999999996
 74
0
 49
-3.1749999999999998
 74
0
  0
LTYPE
  5
36
100
AcDbSymbolTableRecord
100
AcDbLinetypeTableRecord
  2
DASHEDX2
 70
0
  3
Dashed (2x) ____  ____  ____  ____  ____  ___
 72
65
 73
2
 40
38.1000000000000014
 49
25.3999999999999986
 74
0
 49
-12.6999999999999993
 74
0
  0
LTYPE
  5
37
100
AcDbSymbolTableRecord
100
AcDbLinetypeTableRecord
  2
DASHDOT
 70
0
  3
Dash dot __ . __ . __ . __ . __ . __ . __ . __
 72
65
 73
4
 40
25.3999999999999986
 49
12.6999999999999993
 74
0
 49
-6.3499999999999996
 74
0
 49
0.0
 74
0
 49
-6.3499999999999996
 74
0
  0
LTYPE
  5
38
100
AcDbSymbolTableRecord
100
AcDbLinetypeTableRecord
  2
DASHDOT2
 70
0
  3
Dash dot (.5x) _._._._._._._._._._._._._._._.
 72
65
 73
4
 40
12.6999999999999993
 49
6.3499999999999996
 74
0
 49
-3.1749999999999998
 74
0
 49
0.0
 74
0
 49
-3.1749999999999998
 74
0
  0
LTYPE
  5
39
100
AcDbSymbolTableRecord
100
AcDbLinetypeTableRecord
  2
DASHDOTX2
 70
0
  3
Dash dot (2x) ____  .  ____  .  ____  .  ___
 72
65
 73
4
 40
50.7999999999999972
 49
25.3999999999999986
 74
0
 49
-12.6999999999999993
 74
0
 49
0.0
 74
0
 49
-12.6999999999999993
 74
0
  0
LTYPE
  5
3A
100
AcDbSymbolTableRecord
100
AcDbLinetypeTableRecord
  2
DIVIDE
 70
0
  3
Divide ____ . . ____ . . ____ . . ____ . . ____
 72
65
 73
6
 40
31.75
 49
12.6999999999999993
 74
0
 49
-6.3499999999999996
 74
0
 49
0.0
 74
0
 49
-6.3499999999999996
 74
0
 49
0.0
 74
0
 49
-6.3499999999999996
 74
0
  0
LTYPE
  5
3B
100
AcDbSymbolTableRecord
100
AcDbLinetypeTableRecord
  2
DIVIDE2
 70
0
  3
Divide (.5x) __..__..__..__..__..__..__..__.._
 72
65
 73
6
 40
15.875
 49
6.3499999999999996
 74
0
 49
-3.1749999999999998
 74
0
 49
0.0
 74
0
 49
-3.1749999999999998
 74
0
 49
0.0
 74
0
 49
-3.1749999999999998
 74
0
  0
LTYPE
  5
3C
100
AcDbSymbolTableRecord
100
AcDbLinetypeTableRecord
  2
DIVIDEX2
 70
0
  3
Divide (2x) ________  .  .  ________  .  .  _
 72
65
 73
6
 40
63.5
 49
25.3999999999999986
 74
0
 49
-12.6999999999999993
 74
0
 49
0.0
 74
0
 49
-12.6999999999999993
 74
0
 49
0.0
 74
0
 49
-12.6999999999999993
 74
0
  0
LTYPE
  5
3D
100
AcDbSymbolTableRecord
100
AcDbLinetypeTableRecord
  2
CENTER
 70
0
  3
Center ____ _ ____ _ ____ _ ____ _ ____ _ ____
 72
65
 73
4
 40
50.7999999999999972
 49
31.75
 74
0
 49
-6.3499999999999996
 74
0
 49
6.3499999999999996
 74
0
 49
-6.3499999999999996
 74
0
  0
LTYPE
  5
3E
100
AcDbSymbolTableRecord
100
AcDbLinetypeTableRecord
  2
CENTER2
 70
0
  3
Center (.5x) ___ _ ___ _ ___ _ ___ _ ___ _ ___
 72
65
 73
4
 40
28.5749999999999993
 49
19.0500000000000007
 74
0
 49
-3.1749999999999998
 74
0
 49
3.1749999999999998
 74
0
 49
-3.1749999999999998
 74
0
  0
LTYPE
  5
3F
100
AcDbSymbolTableRecord
100
AcDbLinetypeTableRecord
  2
CENTERX2
 70
0
  3
Center (2x) ________  __  ________  __  _____
 72
65
 73
4
 40
101.5999999999999943
 49
63.5
 74
0
 49
-12.6999999999999993
 74
0
 49
12.6999999999999993
 74
0
 49
-12.6999999999999993
 74
0
  0
LTYPE
  5
40
100
AcDbSymbolTableRecord
100
AcDbLinetypeTableRecord
  2
BORDER
 70
0
  3
Border __ __ . __ __ . __ __ . __ __ . __ __ .
 72
65
 73
6
 40
44.4500000000000028
 49
12.6999999999999993
 74
0
 49
-6.3499999999999996
 74
0
 49
12.6999999999999993
 74
0
 49
-6.3499999999999996
 74
0
 49
0.0
 74
0
 49
-6.3499999999999996
 74
0
  0
LTYPE
  5
41
100
AcDbSymbolTableRecord
100
AcDbLinetypeTableRecord
  2
BORDER2
 70
0
  3
Border (.5x) __.__.__.__.__.__.__.__.__.__.__.
 72
65
 73
6
 40
22.2250000000000014
 49
6.3499999999999996
 74
0
 49
-3.1749999999999998
 74
0
 49
6.3499999999999996
 74
0
 49
-3.1749999999999998
 74
0
 49
0.0
 74
0
 49
-3.1749999999999998
 74
0
  0
LTYPE
  5
42
100
AcDbSymbolTableRecord
100
AcDbLinetypeTableRecord
  2
BORDERX2
 70
0
  3
Border (2x) ____  ____  .  ____  ____  .  ___
 72
65
 73
6
 40
88.9000000000000057
 49
25.3999999999999986
 74
0
 49
-12.6999999999999993
 74
0
 49
25.3999999999999986
 74
0
 49
-12.6999999999999993
 74
0
 49
0.0
 74
0
 49
-12.6999999999999993
 74
0
  0
ENDTAB
  0
TABLE
  2
LAYER
  5
2
100
AcDbSymbolTable
 70
14
  0
LAYER
  5
10
100
AcDbSymbolTableRecord
100
AcDbLayerTableRecord
  2
0
 70
0
 62
7
420
16777215
  6
CONTINUOUS
370
0
390
F
  0
LAYER
  5
43
100
AcDbSymbolTableRecord
100
AcDbLayerTableRecord
  2
Middle Layer
 70
0
 62
7
420
16777215
  6
CONTINUOUS
370
0
390
F
  0
LAYER
  5
44
100
AcDbSymbolTableRecord
100
AcDbLayerTableRecord
  2
Top Layer
 70
0
 62
7
420
16777215
  6
CONTINUOUS
370
0
390
F
  0
LAYER
  5
45
100
AcDbSymbolTableRecord
100
AcDbLayerTableRecord
  2
Middle Text
 70
0
 62
4
420
65535
  6
CONTINUOUS
370
0
390
F
  0
LAYER
  5
46
100
AcDbSymbolTableRecord
100
AcDbLayerTableRecord
  2
Notes
 70
0
 62
7
420
16777215
  6
CONTINUOUS
370
0
390
F
  0
LAYER
  5
47
100
AcDbSymbolTableRecord
100
AcDbLayerTableRecord
  2
Bottom
 70
0
 62
7
420
16777215
  6
CONTINUOUS
370
0
390
F
  0
LAYER
  5
48
100
AcDbSymbolTableRecord
100
AcDbLayerTableRecord
  2
Bottom Text
 70
0
 62
4
420
65535
  6
CONTINUOUS
370
0
390
F
  0
LAYER
  5
49
100
AcDbSymbolTableRecord
100
AcDbLayerTableRecord
  2
Top Text
 70
0
 62
4
420
65535
  6
CONTINUOUS
370
0
390
F
  0
LAYER
  5
4A
100
AcDbSymbolTableRecord
100
AcDbLayerTableRecord
  2
Main Plate Bottom Layer
 70
0
 62
7
420
0
  6
CONTINUOUS
370
0
390
F
  0
LAYER
  5
4B
100
AcDbSymbolTableRecord
100
AcDbLayerTableRecord
  2
Main Plate Bottom Text
 70
0
 62
4
420
65535
  6
CONTINUOUS
370
0
390
F
  0
LAYER
  5
4C
100
AcDbSymbolTableRecord
100
AcDbLayerTableRecord
  2
Top Plate Bottom Layer
 70
0
 62
7
420
0
  6
CONTINUOUS
370
0
390
F
  0
LAYER
  5
4D
100
AcDbSymbolTableRecord
100
AcDbLayerTableRecord
  2
Top Plate Bottom Text
 70
0
 62
4
420
65535
  6
CONTINUOUS
370
0
390
F
  0
LAYER
  5
4E
100
AcDbSymbolTableRecord
100
AcDbLayerTableRecord
  2
Top Plate Middle Layer
 70
0
 62
7
420
0
  6
CONTINUOUS
370
0
390
F
  0
LAYER
  5
4F
100
AcDbSymbolTableRecord
100
AcDbLayerTableRecord
  2
Top Plate Middle Layer Text
 70
0
 62
4
420
65535
  6
CONTINUOUS
370
0
390
F
  0
ENDTAB
  0
TABLE
  2
STYLE
  5
3
100
AcDbSymbolTable
 70
1
  0
STYLE
  5
11
100
AcDbSymbolTableRecord
100
AcDbTextStyleTableRecord
  2
Standard
 70
0
 40
0.0
 41
0.75
 50
0.0
 71
0
 42
2.5
  3
txt
  4

  0
ENDTAB
  0
TABLE
  2
VIEW
  5
6
100
AcDbSymbolTable
 70
0
  0
ENDTAB
  0
TABLE
  2
UCS
  5
7
100
AcDbSymbolTable
 70
0
  0
ENDTAB
  0
TABLE
  2
APPID
  5
9
100
AcDbSymbolTable
 70
1
  0
APPID
  5
12
100
AcDbSymbolTableRecord
100
AcDbRegAppTableRecord
  2
ACAD
 70
0
  0
ENDTAB
  0
TABLE
  2
DIMSTYLE
  5
A
100
AcDbSymbolTable
 70
1
100
AcDbDimStyleTable
 71
0
  0
DIMSTYLE
105
27
100
AcDbSymbolTableRecord
100
AcDbDimStyleTableRecord
  2
Standard
 41
2.5
 42
0.625
 43
3.75
 44
1.25
 70
0
 73
0
 74
0
 77
1
 78
8
140
2.5
141
2.5
143
0.03937007874016
147
0.625
171
3
172
1
271
2
272
2
274
3
278
44
283
0
284
8
340
11
  0
ENDTAB
  0
TABLE
  2
BLOCK_RECORD
  5
1
100
AcDbSymbolTable
 70
1
  0
BLOCK_RECORD
  5
1F
100
AcDbSymbolTableRecord
100
AcDbBlockTableRecord
  2
*Model_Space
340
22
  0
BLOCK_RECORD
  5
1B
100
AcDbSymbolTableRecord
100
AcDbBlockTableRecord
  2
*Paper_Space
340
1E
  0
BLOCK_RECORD
  5
23
100
AcDbSymbolTableRecord
100
AcDbBlockTableRecord
  2
*Paper_Space0
340
26
  0
ENDTAB
  0
ENDSEC
  0
SECTION
  2
BLOCKS
  0
BLOCK
  5
20
100
AcDbEntity
  8
0
100
AcDbBlockBegin
  2
*Model_Space
 70
0
 10
0.0
 20
0.0
 30
0.0
  3
*Model_Space
  1

  0
ENDBLK
  5
21
100
AcDbEntity
  8
0
100
AcDbBlockEnd
  0
BLOCK
  5
1C
100
AcDbEntity
 67
1
  8
0
100
AcDbBlockBegin
  2
*Paper_Space
 70
0
 10
0.0
 20
0.0
 30
0.0
  3
*Paper_Space
  1

  0
ENDBLK
  5
1D
100
AcDbEntity
 67
1
  8
0
100
AcDbBlockEnd
  0
BLOCK
  5
24
100
AcDbEntity
  8
0
100
AcDbBlockBegin
  2
*Paper_Space0
 70
0
 10
0.0
 20
0.0
 30
0.0
  3
*Paper_Space0
  1

  0
ENDBLK
  5
25
100
AcDbEntity
  8
0
100
AcDbBlockEnd
  0
ENDSEC
  0
SECTION
  2
ENTITIES
  0
LINE
  5
50
100
AcDbEntity
100
AcDbLine
  8
Main Plate Bottom Layer
 62
256
370
-1
  6
ByLayer
 10
54.892143228138643
 20
15.5379280397683921
 30
0.0
 11
47.3746022618513791
 21
12.801766893163002
 31
0.0
  0
LINE
  5
51
100
AcDbEntity
100
AcDbLine
  8
Main Plate Bottom Layer
 62
256
370
-1
  6
ByLayer
 10
65.7423865282961373
 20
47.1270219804217732
 30
0.0
 11
55.8145803817309485
 21
74.4034451928323932
 31
0.0
  0
LINE
  5
52
100
AcDbEntity
100
AcDbLine
  8
Main Plate Bottom Layer
 62
256
370
-1
  6
ByLayer
 10
71.1700506575643601
 20
5.5965548071675926
 30
0.0
 11
71.1700506575643033
 21
16.3452090811115305
 31
0.0
  0
LINE
  5
53
100
AcDbEntity
100
AcDbLine
  8
Main Plate Bottom Layer
 62
256
370
-1
  6
ByLayer
 10
21.1700506575644134
 20
7.5288600456883188
 30
0.0
 11
21.1700506575643885
 21
5.5965548071676281
 31
0.0
  0
LINE
  5
54
100
AcDbEntity
100
AcDbLine
  8
Main Plate Bottom Layer
 62
256
370
-1
  6
ByLayer
 10
8.8299493424356292
 20
57.3024380265489413
 30
0.0
 11
15.7423865282962225
 21
38.310672944998494
 31
0.0
  0
ARC
  5
55
100
AcDbEntity
  8
Main Plate Bottom Layer
 62
256
370
-1
  6
ByLayer
100
AcDbCircle
 10
47.1693901758560088
 20
13.3655824656345459
 30
0.0
 40
0.599999999999996
100
AcDbArc
 50
199.9999999999997158
 51
289.9999999999998863
  0
ARC
  5
56
100
AcDbEntity
  8
Main Plate Bottom Layer
 62
256
370
-1
  6
ByLayer
100
AcDbCircle
 10
54.6869311421432371
 20
16.101743612239904
 30
0.0
 40
0.5999999999999983
100
AcDbArc
 50
289.9999999999998295
 51
20.000000000000103
  0
ARC
  5
57
100
AcDbEntity
  8
Main Plate Bottom Layer
 62
256
370
-1
  6
ByLayer
100
AcDbCircle
 10
-18.829949342435043
 20
16.3452090811118183
 30
0.0
 40
89.9999999999993463
100
AcDbArc
 50
0.0
 51
20.000000000000103
  0
ARC
  5
58
100
AcDbEntity
  8
Main Plate Bottom Layer
 62
256
370
-1
  6
ByLayer
100
AcDbCircle
 10
-68.8299493424353415
 20
7.5288600456902302
 30
0.0
 40
89.9999999999996447
100
AcDbArc
 50
0.0
 51
20.000000000000103
  0
MTEXT
  5
59
100
AcDbEntity
100
AcDbMText
  8
Main Plate Bottom Text
 62
256
370
-1
  6
ByLayer
 10
61.8711989482561791
 20
48.2807888876745608
 30
0.0
 40
2.0
 41
100.0
 71
3
 72
2
  1
Main\~Plate\PBottom
  7
standard
 50
360.0
 73
1
 44
1.0
  0
LINE
  5
5A
100
AcDbEntity
100
AcDbLine
  8
Main Plate Bottom Layer
 62
256
370
-1
  6
ByLayer
 10
39.9337750904491173
 20
68.6233047706285646
 30
0.0
 11
44.3800369536828185
 21
56.4073007004117244
 31
0.0
  0
LINE
  5
5B
100
AcDbEntity
100
AcDbLine
  8
Main Plate Bottom Layer
 62
256
370
-1
  6
ByLayer
 10
24.7107546337173929
 20
63.0825784487527557
 30
0.0
 11
29.1570164969511012
 21
50.8665743785359297
 31
0.0
  0
LINE
  5
5C
100
AcDbEntity
100
AcDbLine
  8
Main Plate Bottom Layer
 62
256
370
-1
  6
ByLayer
 10
44.3800369536828185
 20
56.4073007004117244
 30
0.0
 11
41.0911127809321357
 21
55.210230198771896
 31
0.0
  0
LINE
  5
5D
100
AcDbEntity
100
AcDbLine
  8
Main Plate Bottom Layer
 62
256
370
-1
  6
ByLayer
 10
32.445940669701784
 20
52.0636448801757439
 30
0.0
 11
29.1570164969511012
 21
50.8665743785359297
 31
0.0
  0
LINE
  5
5E
100
AcDbEntity
100
AcDbLine
  8
Main Plate Bottom Layer
 62
256
370
-1
  6
ByLayer
 10
55.8145803817309485
 20
74.4034451928323932
 30
0.0
 11
39.9337750904491173
 21
68.6233047706285646
 31
0.0
  0
LINE
  5
5F
100
AcDbEntity
100
AcDbLine
  8
Main Plate Bottom Layer
 62
256
370
-1
  6
ByLayer
 10
24.7107546337173929
 20
63.0825784487527557
 30
0.0
 11
8.8299493424356292
 21
57.3024380265489413
 31
0.0
  0
LINE
  5
60
100
AcDbEntity
100
AcDbLine
  8
Main Plate Bottom Layer
 62
256
370
-1
  6
ByLayer
 10
53.4686725558091211
 20
21.2031642093474559
 30
0.0
 11
55.2507467146148059
 21
16.3069556982353419
 31
0.0
  0
LINE
  5
61
100
AcDbEntity
100
AcDbLine
  8
Main Plate Bottom Layer
 62
256
370
-1
  6
ByLayer
 10
44.8235004445787837
 20
18.0565788907512541
 30
0.0
 11
46.6055746033844471
 21
13.1603703796391329
 31
0.0
  0
ARC
  5
62
100
AcDbEntity
  8
Main Plate Bottom Layer
 62
256
370
-1
  6
ByLayer
100
AcDbCircle
 10
46.907486931626309
 20
25.780373315890003
 30
0.0
 40
8.0
100
AcDbArc
 50
325.0996321953934398
 51
74.9003678046064749
  0
LINE
  5
63
100
AcDbEntity
100
AcDbLine
  8
Main Plate Bottom Layer
 62
256
370
-1
  6
ByLayer
 10
41.0911127809321357
 20
55.210230198771896
 30
0.0
 11
48.9914734186737775
 21
33.5041677410286951
 31
0.0
  0
ARC
  5
64
100
AcDbEntity
  8
Main Plate Bottom Layer
 62
256
370
-1
  6
ByLayer
100
AcDbCircle
 10
46.907486931626309
 20
25.780373315890003
 30
0.0
 40
8.0
100
AcDbArc
 50
145.0996321953935819
 51
254.9003678046064749
  0
LINE
  5
65
100
AcDbEntity
100
AcDbLine
  8
Main Plate Bottom Layer
 62
256
370
-1
  6
ByLayer
 10
32.445940669701784
 20
52.0636448801757439
 30
0.0
 11
40.3463013074434187
 21
30.3575824224325288
 31
0.0
  0
LINE
  5
66
100
AcDbEntity
100
AcDbLine
  8
Main Plate Bottom Layer
 62
256
370
-1
  6
ByLayer
 10
21.1700506575643885
 20
5.5965548071676281
 30
0.0
 11
71.1700506575643601
 21
5.5965548071675926
 31
0.0
  0
LINE
  5
67
100
AcDbEntity
100
AcDbLine
  8
Main Plate Bottom Layer
 62
256
370
-1
  6
ByLayer
 10
13.7951173268259453
 20
52.724544746143053
 30
0.0
 11
21.1247197689560089
 21
55.3923018640830307
 31
0.0
  0
LINE
  5
68
100
AcDbEntity
100
AcDbLine
  8
Main Plate Bottom Layer
 62
256
370
-1
  6
ByLayer
 10
21.1247197689560089
 20
55.3923018640830307
 30
0.0
 11
22.4928003422584943
 21
51.6335313809399139
 31
0.0
  0
LINE
  5
69
100
AcDbEntity
100
AcDbLine
  8
Main Plate Bottom Layer
 62
256
370
-1
  6
ByLayer
 10
22.4928003422584943
 20
51.6335313809399139
 30
0.0
 11
15.163197900128619
 21
48.9657742629993251
 31
0.0
  0
LINE
  5
6A
100
AcDbEntity
100
AcDbLine
  8
Main Plate Bottom Layer
 62
256
370
-1
  6
ByLayer
 10
15.163197900128619
 20
48.9657742629993251
 30
0.0
 11
13.7951173268259453
 21
52.724544746143053
 31
0.0
  0
LINE
  5
6B
100
AcDbEntity
100
AcDbLine
  8
Main Plate Bottom Layer
 62
256
370
-1
  6
ByLayer
 10
47.6240516751185652
 20
65.037269905867106
 30
0.0
 11
54.9536541172486039
 21
67.7050270238074035
 31
0.0
  0
LINE
  5
6C
100
AcDbEntity
100
AcDbLine
  8
Main Plate Bottom Layer
 62
256
370
-1
  6
ByLayer
 10
54.9536541172486039
 20
67.7050270238074035
 30
0.0
 11
56.3217346905513097
 21
63.9462565406638106
 31
0.0
  0
LINE
  5
6D
100
AcDbEntity
100
AcDbLine
  8
Main Plate Bottom Layer
 62
256
370
-1
  6
ByLayer
 10
56.3217346905513097
 20
63.9462565406638106
 30
0.0
 11
48.9921322484212709
 21
61.2784994227235131
 31
0.0
  0
LINE
  5
6E
100
AcDbEntity
100
AcDbLine
  8
Main Plate Bottom Layer
 62
256
370
-1
  6
ByLayer
 10
48.9921322484212709
 20
61.2784994227235131
 30
0.0
 11
47.6240516751185652
 21
65.037269905867106
 31
0.0
  0
LINE
  5
6F
100
AcDbEntity
100
AcDbLine
  8
Main Plate Bottom Layer
 62
256
370
-1
  6
ByLayer
 10
26.270050657564358
 20
17.5965548071673581
 30
0.0
 11
34.0700506575643658
 21
17.596554807167724
 31
0.0
  0
LINE
  5
70
100
AcDbEntity
100
AcDbLine
  8
Main Plate Bottom Layer
 62
256
370
-1
  6
ByLayer
 10
34.0700506575643658
 20
17.596554807167724
 30
0.0
 11
34.0700506575643658
 21
13.5965548071677524
 31
0.0
  0
LINE
  5
71
100
AcDbEntity
100
AcDbLine
  8
Main Plate Bottom Layer
 62
256
370
-1
  6
ByLayer
 10
34.0700506575643658
 20
13.5965548071677524
 30
0.0
 11
26.2700506575643757
 21
13.596554807167287
 31
0.0
  0
LINE
  5
72
100
AcDbEntity
100
AcDbLine
  8
Main Plate Bottom Layer
 62
256
370
-1
  6
ByLayer
 10
26.2700506575643757
 20
13.596554807167287
 30
0.0
 11
26.270050657564358
 21
17.5965548071673581
 31
0.0
  0
LINE
  5
73
100
AcDbEntity
100
AcDbLine
  8
Main Plate Bottom Layer
 62
256
370
-1
  6
ByLayer
 10
58.2700506575644113
 20
17.5965548071676103
 30
0.0
 11
66.07005065756438
 21
17.5965548071677134
 31
0.0
  0
LINE
  5
74
100
AcDbEntity
100
AcDbLine
  8
Main Plate Bottom Layer
 62
256
370
-1
  6
ByLayer
 10
66.07005065756438
 20
17.5965548071677134
 30
0.0
 11
66.0700506575644084
 21
13.5965548071676885
 31
0.0
  0
LINE
  5
75
100
AcDbEntity
100
AcDbLine
  8
Main Plate Bottom Layer
 62
256
370
-1
  6
ByLayer
 10
66.0700506575644084
 20
13.5965548071676885
 30
0.0
 11
58.2700506575643118
 21
13.5965548071676636
 31
0.0
  0
LINE
  5
76
100
AcDbEntity
100
AcDbLine
  8
Main Plate Bottom Layer
 62
256
370
-1
  6
ByLayer
 10
58.2700506575643118
 20
13.5965548071676636
 30
0.0
 11
58.2700506575644113
 21
17.5965548071676103
 31
0.0
  0
CIRCLE
  5
77
100
AcDbEntity
100
AcDbCircle
  8
Main Plate Bottom Layer
 62
256
370
-1
  6
ByLayer
 10
32.5519729164342166
 20
27.8064628271607646
 30
0.0
 40
1.45
  0
CIRCLE
  5
78
100
AcDbEntity
100
AcDbCircle
  8
Main Plate Bottom Layer
 62
256
370
-1
  6
ByLayer
 10
58.8299493424356257
 20
27.302438026548927
 30
0.0
 40
1.45
  0
CIRCLE
  5
79
100
AcDbEntity
100
AcDbCircle
  8
Main Plate Bottom Layer
 62
256
370
-1
  6
ByLayer
 10
24.7700506575646315
 20
22.3064628271606367
 30
0.0
 40
1.45
  0
CIRCLE
  5
7A
100
AcDbEntity
100
AcDbCircle
  8
Main Plate Bottom Layer
 62
256
370
-1
  6
ByLayer
 10
24.7700506575644681
 20
33.3064628271606296
 30
0.0
 40
1.45
  0
CIRCLE
  5
7B
100
AcDbEntity
100
AcDbCircle
  8
Main Plate Bottom Layer
 62
256
370
-1
  6
ByLayer
 10
64.6700506575641185
 20
22.3064628271606189
 30
0.0
 40
1.45
  0
CIRCLE
  5
7C
100
AcDbEntity
100
AcDbCircle
  8
Main Plate Bottom Layer
 62
256
370
-1
  6
ByLayer
 10
64.6700506575639196
 20
33.3064628271606082
 30
0.0
 40
1.45
  0
CIRCLE
  5
7D
100
AcDbEntity
100
AcDbCircle
  8
Main Plate Bottom Layer
 62
256
370
-1
  6
ByLayer
 10
55.8299493424356257
 20
51.3024380265493249
 30
0.0
 40
1.45
  0
CIRCLE
  5
7E
100
AcDbEntity
100
AcDbCircle
  8
Main Plate Bottom Layer
 62
256
370
-1
  6
ByLayer
 10
53.8299493424354196
 20
10.3024380265485291
 30
0.0
 40
1.45
  0
CIRCLE
  5
7F
100
AcDbEntity
100
AcDbCircle
  8
Main Plate Bottom Layer
 62
256
370
-1
  6
ByLayer
 10
38.8299493424356186
 20
10.302438026548927
 30
0.0
 40
1.45
  0
CIRCLE
  5
80
100
AcDbEntity
100
AcDbCircle
  8
Main Plate Bottom Layer
 62
256
370
-1
  6
ByLayer
 10
26.8299493424355546
 20
44.8524380265487963
 30
0.0
 40
1.45
  0
LINE
  5
81
100
AcDbEntity
100
AcDbLine
  8
Top Plate Bottom Layer
 62
256
370
-1
  6
ByLayer
 10
65.2539202372231273
 20
49.574633244942504
 30
0.0
 11
70.4988788685894576
 21
35.1642278392903478
 31
0.0
  0
LINE
  5
82
100
AcDbEntity
100
AcDbLine
  8
Top Plate Bottom Layer
 62
256
370
-1
  6
ByLayer
 10
69.321743221642663
 20
38.3983814489118487
 30
0.0
 11
62.409306035781924
 21
57.3901465304621183
 31
0.0
  0
LINE
  5
83
100
AcDbEntity
100
AcDbLine
  8
Top Plate Bottom Layer
 62
256
370
-1
  6
ByLayer
 10
74.7494073509111132
 20
5.684263311081466
 30
0.0
 11
74.7494073509111274
 21
7.6165685496018227
 31
0.0
  0
LINE
  5
84
100
AcDbEntity
100
AcDbLine
  8
Top Plate Bottom Layer
 62
256
370
-1
  6
ByLayer
 10
98.1494073509109342
 20
5.6842633110814518
 30
0.0
 11
74.7494073509111132
 21
5.684263311081466
 31
0.0
  0
LINE
  5
85
100
AcDbEntity
100
AcDbLine
  8
Top Plate Bottom Layer
 62
256
370
-1
  6
ByLayer
 10
124.7494073509108148
 20
5.6842633110814589
 30
0.0
 11
101.3494073509109228
 21
5.6842633110814518
 31
0.0
  0
LINE
  5
86
100
AcDbEntity
100
AcDbLine
  8
Top Plate Bottom Layer
 62
256
370
-1
  6
ByLayer
 10
124.7494073509107011
 20
16.4329175850253932
 30
0.0
 11
124.7494073509108148
 21
5.6842633110814589
 31
0.0
  0
LINE
  5
87
100
AcDbEntity
100
AcDbLine
  8
Top Plate Bottom Layer
 62
256
370
-1
  6
ByLayer
 10
109.3939370750769342
 20
74.4911536967458687
 30
0.0
 11
119.3217432216422935
 21
47.2147304843354618
 31
0.0
  0
ARC
  5
88
100
AcDbEntity
  8
Top Plate Bottom Layer
 62
256
370
-1
  6
ByLayer
100
AcDbCircle
 10
-15.2505926490881762
 20
7.6165685496005864
 30
0.0
 40
89.9999999999994458
100
AcDbArc
 50
360.0
 51
20.0000000000005862
  0
ARC
  5
89
100
AcDbEntity
  8
Top Plate Bottom Layer
 62
256
370
-1
  6
ByLayer
100
AcDbCircle
 10
34.7494073509120085
 20
16.4329175850246045
 30
0.0
 40
89.9999999999989058
100
AcDbArc
 50
360.0
 51
20.0000000000006892
  0
LINE
  5
8A
100
AcDbEntity
100
AcDbLine
  8
Top Plate Bottom Layer
 62
256
370
-1
  6
ByLayer
 10
78.2901113270636984
 20
63.1702869526661743
 30
0.0
 11
82.7363731902973143
 21
50.9542828824493057
 31
0.0
  0
LINE
  5
8B
100
AcDbEntity
100
AcDbLine
  8
Top Plate Bottom Layer
 62
256
370
-1
  6
ByLayer
 10
82.7363731902973143
 20
50.9542828824493057
 30
0.0
 11
87.763728711501912
 21
52.784090649241648
 31
0.0
  0
LINE
  5
8C
100
AcDbEntity
100
AcDbLine
  8
Top Plate Bottom Layer
 62
256
370
-1
  6
ByLayer
 10
62.409306035781924
 20
57.3901465304621183
 30
0.0
 11
66.1680765189249485
 21
58.7582271037646393
 31
0.0
  0
LINE
  5
8D
100
AcDbEntity
100
AcDbLine
  8
Top Plate Bottom Layer
 62
256
370
-1
  6
ByLayer
 10
66.1680765189249485
 20
58.7582271037646393
 30
0.0
 11
68.2201973788794049
 21
53.1200713790493779
 31
0.0
  0
LINE
  5
8E
100
AcDbEntity
100
AcDbLine
  8
Top Plate Bottom Layer
 62
256
370
-1
  6
ByLayer
 10
71.8062322436403093
 20
60.8103479637189253
 30
0.0
 11
78.2901113270636984
 21
63.1702869526661743
 31
0.0
  0
LINE
  5
8F
100
AcDbEntity
100
AcDbLine
  8
Top Plate Bottom Layer
 62
256
370
-1
  6
ByLayer
 10
71.8062322436403093
 20
60.8103479637189253
 30
0.0
 11
73.8583531035948369
 21
55.1721922390034649
 31
0.0
  0
LINE
  5
90
100
AcDbEntity
100
AcDbLine
  8
Top Plate Bottom Layer
 62
256
370
-1
  6
ByLayer
 10
105.6351665919333556
 20
73.1230731234431914
 30
0.0
 11
109.3939370750769342
 21
74.4911536967458687
 31
0.0
  0
LINE
  5
91
100
AcDbEntity
100
AcDbLine
  8
Top Plate Bottom Layer
 62
256
370
-1
  6
ByLayer
 10
105.6351665919333556
 20
73.1230731234431914
 30
0.0
 11
107.6872874518874141
 21
67.4849173987278448
 31
0.0
  0
LINE
  5
92
100
AcDbEntity
100
AcDbLine
  8
Top Plate Bottom Layer
 62
256
370
-1
  6
ByLayer
 10
98.1494073509109342
 20
5.6842633110814518
 30
0.0
 11
98.1494073509108631
 21
19.8941713310741335
 31
0.0
  0
LINE
  5
93
100
AcDbEntity
100
AcDbLine
  8
Top Plate Bottom Layer
 62
256
370
-1
  6
ByLayer
 10
109.8071221218188356
 20
63.9997630302447931
 30
0.0
 11
101.3494073509105533
 21
60.9214066037204418
 31
0.0
  0
LINE
  5
94
100
AcDbEntity
100
AcDbLine
  8
Top Plate Bottom Layer
 62
256
370
-1
  6
ByLayer
 10
108.4390415485161157
 20
67.7585335133883575
 30
0.0
 11
109.8071221218188356
 21
63.9997630302447931
 31
0.0
  0
LINE
  5
95
100
AcDbEntity
100
AcDbLine
  8
Top Plate Bottom Layer
 62
256
370
-1
  6
ByLayer
 10
107.6872874518874141
 20
67.4849173987278448
 30
0.0
 11
108.4390415485161157
 21
67.7585335133883575
 31
0.0
  0
LINE
  5
96
100
AcDbEntity
100
AcDbLine
  8
Top Plate Bottom Layer
 62
256
370
-1
  6
ByLayer
 10
67.4684432822507318
 20
52.8464552643888723
 30
0.0
 11
68.2201973788794049
 21
53.1200713790493779
 31
0.0
  0
LINE
  5
97
100
AcDbEntity
100
AcDbLine
  8
Top Plate Bottom Layer
 62
256
370
-1
  6
ByLayer
 10
68.8365238555536365
 20
49.0876847812451871
 30
0.0
 11
67.4684432822507318
 21
52.8464552643888723
 31
0.0
  0
LINE
  5
98
100
AcDbEntity
100
AcDbLine
  8
Top Plate Bottom Layer
 62
256
370
-1
  6
ByLayer
 10
75.9781877735265283
 20
51.6870378705204772
 30
0.0
 11
68.8365238555536365
 21
49.0876847812451871
 31
0.0
  0
LINE
  5
99
100
AcDbEntity
100
AcDbLine
  8
Top Plate Bottom Layer
 62
256
370
-1
  6
ByLayer
 10
73.8583531035948369
 20
55.1721922390034649
 30
0.0
 11
74.6101072002235526
 21
55.4458083536640061
 31
0.0
  0
LINE
  5
9A
100
AcDbEntity
100
AcDbLine
  8
Top Plate Bottom Layer
 62
256
370
-1
  6
ByLayer
 10
74.6101072002235526
 20
55.4458083536640061
 30
0.0
 11
75.9781877735265283
 21
51.6870378705204772
 31
0.0
  0
LINE
  5
9B
100
AcDbEntity
100
AcDbLine
  8
Top Plate Bottom Layer
 62
256
370
-1
  6
ByLayer
 10
79.949407350911045
 20
13.6842633110810361
 30
0.0
 11
79.9494073509109313
 21
17.6842633110810645
 31
0.0
  0
LINE
  5
9C
100
AcDbEntity
100
AcDbLine
  8
Top Plate Bottom Layer
 62
256
370
-1
  6
ByLayer
 10
87.5494073509110535
 20
13.6842633110811853
 30
0.0
 11
79.949407350911045
 21
13.6842633110810361
 31
0.0
  0
LINE
  5
9D
100
AcDbEntity
100
AcDbLine
  8
Top Plate Bottom Layer
 62
256
370
-1
  6
ByLayer
 10
87.5494073509108972
 20
17.6842633110810539
 30
0.0
 11
87.5494073509110535
 21
13.6842633110811853
 31
0.0
  0
LINE
  5
9E
100
AcDbEntity
100
AcDbLine
  8
Top Plate Bottom Layer
 62
256
370
-1
  6
ByLayer
 10
79.9494073509109313
 20
17.6842633110810645
 30
0.0
 11
87.5494073509108972
 21
17.6842633110810539
 31
0.0
  0
LINE
  5
9F
100
AcDbEntity
100
AcDbLine
  8
Top Plate Bottom Layer
 62
256
370
-1
  6
ByLayer
 10
111.9494073509108034
 20
13.6842633110813914
 30
0.0
 11
111.9494073509107182
 21
17.6842633110813878
 31
0.0
  0
LINE
  5
A0
100
AcDbEntity
100
AcDbLine
  8
Top Plate Bottom Layer
 62
256
370
-1
  6
ByLayer
 10
119.5494073509107551
 20
13.6842633110814376
 30
0.0
 11
111.9494073509108034
 21
13.6842633110813914
 31
0.0
  0
LINE
  5
A1
100
AcDbEntity
100
AcDbLine
  8
Top Plate Bottom Layer
 62
256
370
-1
  6
ByLayer
 10
119.5494073509107409
 20
17.6842633110813914
 30
0.0
 11
119.5494073509107551
 21
13.6842633110814376
 31
0.0
  0
LINE
  5
A2
100
AcDbEntity
100
AcDbLine
  8
Top Plate Bottom Layer
 62
256
370
-1
  6
ByLayer
 10
111.9494073509107182
 20
17.6842633110813878
 30
0.0
 11
119.5494073509107409
 21
17.6842633110813914
 31
0.0
  0
LINE
  5
A3
100
AcDbEntity
100
AcDbLine
  8
Top Plate Bottom Layer
 62
256
370
-1
  6
ByLayer
 10
94.3494073509107096
 20
19.8941713310740766
 30
0.0
 11
98.1494073509108631
 21
19.8941713310741335
 31
0.0
  0
LINE
  5
A4
100
AcDbEntity
100
AcDbLine
  8
Top Plate Bottom Layer
 62
256
370
-1
  6
ByLayer
 10
101.3494073509107238
 20
35.8941713310741832
 30
0.0
 11
101.3494073509107523
 21
31.5386695603951779
 31
0.0
  0
LINE
  5
A5
100
AcDbEntity
100
AcDbLine
  8
Top Plate Bottom Layer
 62
256
370
-1
  6
ByLayer
 10
94.3494073509107238
 20
34.6900872956809394
 30
0.0
 11
94.3494073509107096
 21
19.8941713310740766
 31
0.0
  0
LINE
  5
A6
100
AcDbEntity
100
AcDbLine
  8
Top Plate Bottom Layer
 62
256
370
-1
  6
ByLayer
 10
94.3494073509107238
 20
34.6900872956809394
 30
0.0
 11
87.763728711501912
 21
52.784090649241648
 31
0.0
  0
MTEXT
  5
A7
100
AcDbEntity
100
AcDbMText
  8
Top Plate Bottom Text
 62
256
370
-1
  6
ByLayer
 10
73.409306035781924
 20
43.3901465304621041
 30
0.0
 40
2.0
 41
100.0
 71
1
 72
2
  1
Top\~Plate\PBottom
  7
standard
 50
0.0
 73
0
 44
1.0
  0
MTEXT
  5
A8
100
AcDbEntity
100
AcDbMText
  8
Top Plate Bottom Text
 62
256
370
-1
  6
ByLayer
 10
104.409306035781924
 20
43.3901465304621112
 30
0.0
 40
2.0
 41
100.0
 71
1
 72
2
  1
Top\~Plate\PBottom
  7
standard
 50
0.0
 73
0
 44
1.0
  0
LINE
  5
A9
100
AcDbEntity
100
AcDbLine
  8
Top Plate Bottom Layer
 62
256
370
-1
  6
ByLayer
 10
101.3494073509105533
 20
60.9214066037204418
 30
0.0
 11
101.3494073509107665
 21
28.6148651602319859
 31
0.0
  0
LINE
  5
AA
100
AcDbEntity
100
AcDbLine
  8
Top Plate Bottom Layer
 62
256
370
-1
  6
ByLayer
 10
101.3494073509107665
 20
28.6148651602319859
 30
0.0
 11
106.3571915247162281
 21
14.8560912211989518
 31
0.0
  0
LINE
  5
AB
100
AcDbEntity
100
AcDbLine
  8
Top Plate Bottom Layer
 62
256
370
-1
  6
ByLayer
 10
101.3494073509109228
 20
18.3815497596610946
 30
0.0
 11
101.3494073509109228
 21
5.6842633110814518
 31
0.0
  0
LINE
  5
AC
100
AcDbEntity
100
AcDbLine
  8
Top Plate Bottom Layer
 62
256
370
-1
  6
ByLayer
 10
103.0682673519655594
 20
13.6590207195590772
 30
0.0
 11
101.3494073509109228
 21
18.3815497596610946
 31
0.0
  0
LINE
  5
AD
100
AcDbEntity
100
AcDbLine
  8
Top Plate Bottom Layer
 62
256
370
-1
  6
ByLayer
 10
106.3571915247162281
 20
14.8560912211989518
 30
0.0
 11
103.0682673519655594
 21
13.6590207195590772
 31
0.0
  0
CIRCLE
  5
AE
100
AcDbEntity
100
AcDbCircle
  8
Top Plate Bottom Layer
 62
256
370
-1
  6
ByLayer
 10
112.409306035781924
 20
27.3901465304621148
 30
0.0
 40
1.45
  0
CIRCLE
  5
AF
100
AcDbEntity
100
AcDbCircle
  8
Top Plate Bottom Layer
 62
256
370
-1
  6
ByLayer
 10
86.1313296097805221
 20
27.8941713310739452
 30
0.0
 40
1.45
  0
CIRCLE
  5
B0
100
AcDbEntity
100
AcDbCircle
  8
Top Plate Bottom Layer
 62
256
370
-1
  6
ByLayer
 10
78.349407350910937
 20
22.3941713310738173
 30
0.0
 40
1.45
  0
CIRCLE
  5
B1
100
AcDbEntity
100
AcDbCircle
  8
Top Plate Bottom Layer
 62
256
370
-1
  6
ByLayer
 10
78.3494073509107665
 20
33.394171331073828
 30
0.0
 40
1.45
  0
CIRCLE
  5
B2
100
AcDbEntity
100
AcDbCircle
  8
Top Plate Bottom Layer
 62
256
370
-1
  6
ByLayer
 10
118.2494073509108148
 20
22.3941713310744461
 30
0.0
 40
1.45
  0
CIRCLE
  5
B3
100
AcDbEntity
100
AcDbCircle
  8
Top Plate Bottom Layer
 62
256
370
-1
  6
ByLayer
 10
118.2494073509106585
 20
33.3941713310744674
 30
0.0
 40
1.45
  0
CIRCLE
  5
B4
100
AcDbEntity
100
AcDbCircle
  8
Top Plate Bottom Layer
 62
256
370
-1
  6
ByLayer
 10
109.4093060357817819
 20
51.3901465304629426
 30
0.0
 40
1.45
  0
CIRCLE
  5
B5
100
AcDbEntity
100
AcDbCircle
  8
Top Plate Bottom Layer
 62
256
370
-1
  6
ByLayer
 10
107.4093060357819098
 20
10.3901465304621148
 30
0.0
 40
1.45
  0
CIRCLE
  5
B6
100
AcDbEntity
100
AcDbCircle
  8
Top Plate Bottom Layer
 62
256
370
-1
  6
ByLayer
 10
92.4093060357821514
 20
10.3901465304625127
 30
0.0
 40
1.45
  0
CIRCLE
  5
B7
100
AcDbEntity
100
AcDbCircle
  8
Top Plate Bottom Layer
 62
256
370
-1
  6
ByLayer
 10
80.4093060357819382
 20
44.9401465304621723
 30
0.0
 40
1.45
  0
LINE
  5
B8
100
AcDbEntity
100
AcDbLine
  8
Top Plate Middle Layer
 62
256
370
-1
  6
ByLayer
 10
118.9330406076397679
 20
49.3771957431114927
 30
0.0
 11
124.1779992390060841
 21
34.9667903374593365
 31
0.0
  0
LINE
  5
B9
100
AcDbEntity
100
AcDbLine
  8
Top Plate Middle Layer
 62
256
370
-1
  6
ByLayer
 10
116.0884264061985789
 20
57.1927090286311142
 30
0.0
 11
129.385076990319078
 21
62.0322940566895369
 31
0.0
  0
LINE
  5
BA
100
AcDbEntity
100
AcDbLine
  8
Top Plate Middle Layer
 62
256
370
-1
  6
ByLayer
 10
123.0008635920593179
 20
38.2009439470808445
 30
0.0
 11
116.0884264061985789
 21
57.1927090286311142
 31
0.0
  0
LINE
  5
BB
100
AcDbEntity
100
AcDbLine
  8
Top Plate Middle Layer
 62
256
370
-1
  6
ByLayer
 10
128.4285277213277539
 20
5.4868258092504618
 30
0.0
 11
128.4285277213277823
 21
7.4191310477708186
 31
0.0
  0
LINE
  5
BC
100
AcDbEntity
100
AcDbLine
  8
Top Plate Middle Layer
 62
256
370
-1
  6
ByLayer
 10
151.828527721327589
 20
5.4868258092504476
 30
0.0
 11
128.4285277213277539
 21
5.4868258092504618
 31
0.0
  0
LINE
  5
BD
100
AcDbEntity
100
AcDbLine
  8
Top Plate Middle Layer
 62
256
370
-1
  6
ByLayer
 10
178.4285277213274696
 20
5.4868258092504547
 30
0.0
 11
155.0285277213275776
 21
5.4868258092504476
 31
0.0
  0
LINE
  5
BE
100
AcDbEntity
100
AcDbLine
  8
Top Plate Middle Layer
 62
256
370
-1
  6
ByLayer
 10
178.4285277213273559
 20
16.2354800831943891
 30
0.0
 11
178.4285277213274696
 21
5.4868258092504547
 31
0.0
  0
LINE
  5
BF
100
AcDbEntity
100
AcDbLine
  8
Top Plate Middle Layer
 62
256
370
-1
  6
ByLayer
 10
163.0730574454935891
 20
74.2937161949148646
 30
0.0
 11
173.0008635920589199
 21
47.0172929825044505
 31
0.0
  0
LINE
  5
C0
100
AcDbEntity
100
AcDbLine
  8
Top Plate Middle Layer
 62
256
370
-1
  6
ByLayer
 10
155.0285277213271229
 20
71.365746826648504
 30
0.0
 11
163.0730574454935891
 21
74.2937161949148646
 31
0.0
  0
ARC
  5
C1
100
AcDbEntity
  8
Top Plate Middle Layer
 62
256
370
-1
  6
ByLayer
100
AcDbCircle
 10
38.4285277213284786
 20
7.4191310477695822
 30
0.0
 40
89.9999999999994458
100
AcDbArc
 50
360.0
 51
20.0000000000005862
  0
ARC
  5
C2
100
AcDbEntity
  8
Top Plate Middle Layer
 62
256
370
-1
  6
ByLayer
100
AcDbCircle
 10
88.4285277213286633
 20
16.2354800831936004
 30
0.0
 40
89.9999999999989058
100
AcDbArc
 50
360.0
 51
20.0000000000006892
  0
LINE
  5
C3
100
AcDbEntity
100
AcDbLine
  8
Top Plate Middle Layer
 62
256
370
-1
  6
ByLayer
 10
116.0884264061985789
 20
57.1927090286311142
 30
0.0
 11
131.9692316974803532
 21
62.9728494508351702
 31
0.0
  0
LINE
  5
C4
100
AcDbEntity
100
AcDbLine
  8
Top Plate Middle Layer
 62
256
370
-1
  6
ByLayer
 10
131.9692316974803532
 20
62.9728494508351702
 30
0.0
 11
136.4154935607139691
 21
50.7568453806183015
 31
0.0
  0
LINE
  5
C5
100
AcDbEntity
100
AcDbLine
  8
Top Plate Middle Layer
 62
256
370
-1
  6
ByLayer
 10
136.4154935607139691
 20
50.7568453806183015
 30
0.0
 11
151.8285277213271911
 21
56.3667310348097459
 31
0.0
  0
LINE
  5
C6
100
AcDbEntity
100
AcDbLine
  8
Top Plate Middle Layer
 62
256
370
-1
  6
ByLayer
 10
151.8285277213273332
 20
36.6967338292431293
 30
0.0
 11
151.8285277213271911
 21
56.3667310348097459
 31
0.0
  0
LINE
  5
C7
100
AcDbEntity
100
AcDbLine
  8
Top Plate Middle Layer
 62
256
370
-1
  6
ByLayer
 10
151.828527721327589
 20
5.4868258092504476
 30
0.0
 11
151.8285277213275037
 21
18.6967338292431258
 31
0.0
  0
MTEXT
  5
C8
100
AcDbEntity
100
AcDbMText
  8
Top Plate Middle Layer Text
 62
256
370
-1
  6
ByLayer
 10
127.0884264061985789
 20
43.1927090286311
 30
0.0
 40
2.0
 41
100.0
 71
1
 72
2
  1
Top\~Plate\PMiddle
  7
standard
 50
0.0
 73
1
 44
1.0
  0
MTEXT
  5
C9
100
AcDbEntity
100
AcDbMText
  8
Top Plate Middle Layer Text
 62
256
370
-1
  6
ByLayer
 10
158.0884264061985789
 20
43.1927090286311071
 30
0.0
 40
2.0
 41
100.0
 71
1
 72
2
  1
Top\~Plate\PMiddle
  7
standard
 50
0.0
 73
1
 44
1.0
  0
LINE
  5
CA
100
AcDbEntity
100
AcDbLine
  8
Top Plate Middle Layer
 62
256
370
-1
  6
ByLayer
 10
133.6285277213276004
 20
17.4868258092500604
 30
0.0
 11
141.2285277213275663
 21
17.4868258092500533
 31
0.0
  0
LINE
  5
CB
100
AcDbEntity
100
AcDbLine
  8
Top Plate Middle Layer
 62
256
370
-1
  6
ByLayer
 10
141.2285277213275663
 20
17.4868258092500533
 30
0.0
 11
141.22852772132768
 21
13.4868258092501137
 31
0.0
  0
LINE
  5
CC
100
AcDbEntity
100
AcDbLine
  8
Top Plate Middle Layer
 62
256
370
-1
  6
ByLayer
 10
141.22852772132768
 20
13.4868258092501137
 30
0.0
 11
133.6285277213276856
 21
13.4868258092500568
 31
0.0
  0
LINE
  5
CD
100
AcDbEntity
100
AcDbLine
  8
Top Plate Middle Layer
 62
256
370
-1
  6
ByLayer
 10
133.6285277213276856
 20
13.4868258092500568
 30
0.0
 11
133.6285277213276004
 21
17.4868258092500604
 31
0.0
  0
LINE
  5
CE
100
AcDbEntity
100
AcDbLine
  8
Top Plate Middle Layer
 62
256
370
-1
  6
ByLayer
 10
165.628527721327373
 20
17.4868258092503837
 30
0.0
 11
173.2285277213273957
 21
17.4868258092503872
 31
0.0
  0
LINE
  5
CF
100
AcDbEntity
100
AcDbLine
  8
Top Plate Middle Layer
 62
256
370
-1
  6
ByLayer
 10
173.2285277213273957
 20
17.4868258092503872
 30
0.0
 11
173.2285277213273957
 21
13.4868258092504334
 31
0.0
  0
LINE
  5
D0
100
AcDbEntity
100
AcDbLine
  8
Top Plate Middle Layer
 62
256
370
-1
  6
ByLayer
 10
165.6285277213274583
 20
13.4868258092503872
 30
0.0
 11
165.628527721327373
 21
17.4868258092503837
 31
0.0
  0
LINE
  5
D1
100
AcDbEntity
100
AcDbLine
  8
Top Plate Middle Layer
 62
256
370
-1
  6
ByLayer
 10
173.2285277213273957
 20
13.4868258092504334
 30
0.0
 11
165.6285277213274583
 21
13.4868258092503872
 31
0.0
  0
LINE
  5
D2
100
AcDbEntity
100
AcDbLine
  8
Top Plate Middle Layer
 62
256
370
-1
  6
ByLayer
 10
162.1181619189327705
 20
67.5610960115573533
 30
0.0
 11
163.4862424922354762
 21
63.8023255284137889
 31
0.0
  0
LINE
  5
D3
100
AcDbEntity
100
AcDbLine
  8
Top Plate Middle Layer
 62
256
370
-1
  6
ByLayer
 10
163.4862424922354762
 20
63.8023255284137889
 30
0.0
 11
156.3445785742625844
 21
61.202972439138577
 31
0.0
  0
LINE
  5
D4
100
AcDbEntity
100
AcDbLine
  8
Top Plate Middle Layer
 62
256
370
-1
  6
ByLayer
 10
154.9764980009598787
 20
64.961742922282312
 30
0.0
 11
162.1181619189327705
 21
67.5610960115573533
 31
0.0
  0
LINE
  5
D5
100
AcDbEntity
100
AcDbLine
  8
Top Plate Middle Layer
 62
256
370
-1
  6
ByLayer
 10
156.3445785742625844
 20
61.202972439138577
 30
0.0
 11
154.9764980009598787
 21
64.961742922282312
 31
0.0
  0
LINE
  5
D6
100
AcDbEntity
100
AcDbLine
  8
Top Plate Middle Layer
 62
256
370
-1
  6
ByLayer
 10
121.1475636526673867
 20
52.6490177625578468
 30
0.0
 11
128.2892275706402074
 21
55.2483708518330019
 31
0.0
  0
LINE
  5
D7
100
AcDbEntity
100
AcDbLine
  8
Top Plate Middle Layer
 62
256
370
-1
  6
ByLayer
 10
122.5156442259702914
 20
48.8902472794141829
 30
0.0
 11
121.1475636526673867
 21
52.6490177625578468
 31
0.0
  0
LINE
  5
D8
100
AcDbEntity
100
AcDbLine
  8
Top Plate Middle Layer
 62
256
370
-1
  6
ByLayer
 10
128.2892275706402074
 20
55.2483708518330019
 30
0.0
 11
129.6573081439431689
 21
51.489600368689473
 31
0.0
  0
LINE
  5
D9
100
AcDbEntity
100
AcDbLine
  8
Top Plate Middle Layer
 62
256
370
-1
  6
ByLayer
 10
129.6573081439431689
 20
51.489600368689473
 30
0.0
 11
122.5156442259702914
 21
48.8902472794141829
 31
0.0
  0
LINE
  5
DA
100
AcDbEntity
100
AcDbLine
  8
Top Plate Middle Layer
 62
256
370
-1
  6
ByLayer
 10
148.0285277213273787
 20
18.6967338292430725
 30
0.0
 11
148.0285277213273787
 21
36.6967338292430725
 31
0.0
  0
LINE
  5
DB
100
AcDbEntity
100
AcDbLine
  8
Top Plate Middle Layer
 62
256
370
-1
  6
ByLayer
 10
148.0285277213273787
 20
36.6967338292430725
 30
0.0
 11
151.8285277213273332
 21
36.6967338292431293
 31
0.0
  0
LINE
  5
DC
100
AcDbEntity
100
AcDbLine
  8
Top Plate Middle Layer
 62
256
370
-1
  6
ByLayer
 10
148.0285277213273787
 20
18.6967338292430725
 30
0.0
 11
151.8285277213275037
 21
18.6967338292431258
 31
0.0
  0
LINE
  5
DD
100
AcDbEntity
100
AcDbLine
  8
Top Plate Middle Layer
 62
256
370
-1
  6
ByLayer
 10
155.0285277213271229
 20
71.365746826648504
 30
0.0
 11
155.0285277213275776
 21
5.4868258092504476
 31
0.0
  0
CIRCLE
  5
DE
100
AcDbEntity
100
AcDbCircle
  8
Top Plate Middle Layer
 62
256
370
-1
  6
ByLayer
 10
166.0884264061985789
 20
27.1927090286311106
 30
0.0
 40
1.45
  0
CIRCLE
  5
DF
100
AcDbEntity
100
AcDbCircle
  8
Top Plate Middle Layer
 62
256
370
-1
  6
ByLayer
 10
139.810449980197177
 20
27.696733829242941
 30
0.0
 40
1.45
  0
CIRCLE
  5
E0
100
AcDbEntity
100
AcDbCircle
  8
Top Plate Middle Layer
 62
256
370
-1
  6
ByLayer
 10
132.0285277213276061
 20
22.1967338292428131
 30
0.0
 40
1.45
  0
CIRCLE
  5
E1
100
AcDbEntity
100
AcDbCircle
  8
Top Plate Middle Layer
 62
256
370
-1
  6
ByLayer
 10
132.0285277213274071
 20
33.1967338292428238
 30
0.0
 40
1.45
  0
CIRCLE
  5
E2
100
AcDbEntity
100
AcDbCircle
  8
Top Plate Middle Layer
 62
256
370
-1
  6
ByLayer
 10
171.9285277213274696
 20
22.196733829243442
 30
0.0
 40
1.45
  0
CIRCLE
  5
E3
100
AcDbEntity
100
AcDbCircle
  8
Top Plate Middle Layer
 62
256
370
-1
  6
ByLayer
 10
171.9285277213273275
 20
33.1967338292434633
 30
0.0
 40
1.45
  0
CIRCLE
  5
E4
100
AcDbEntity
100
AcDbCircle
  8
Top Plate Middle Layer
 62
256
370
-1
  6
ByLayer
 10
163.0884264061984368
 20
51.1927090286319384
 30
0.0
 40
1.45
  0
CIRCLE
  5
E5
100
AcDbEntity
100
AcDbCircle
  8
Top Plate Middle Layer
 62
256
370
-1
  6
ByLayer
 10
161.0884264061985789
 20
10.1927090286311106
 30
0.0
 40
1.45
  0
CIRCLE
  5
E6
100
AcDbEntity
100
AcDbCircle
  8
Top Plate Middle Layer
 62
256
370
-1
  6
ByLayer
 10
146.0884264061988063
 20
10.1927090286315085
 30
0.0
 40
1.45
  0
CIRCLE
  5
E7
100
AcDbEntity
100
AcDbCircle
  8
Top Plate Middle Layer
 62
256
370
-1
  6
ByLayer
 10
134.0884264061986073
 20
44.7427090286311682
 30
0.0
 40
1.45
  0
CIRCLE
  5
E8
100
AcDbEntity
100
AcDbCircle
  8
Middle Layer
 62
256
370
-1
  6
ByLayer
 10
191.0336022020037205
 20
10.9564619615102821
 30
0.0
 40
2.4249999999999998
  0
CIRCLE
  5
E9
100
AcDbEntity
100
AcDbCircle
  8
Middle Layer
 62
256
370
-1
  6
ByLayer
 10
197.933094455594528
 20
46.2891239988184964
 30
0.0
 40
2.4249999999999998
  0
LINE
  5
EA
100
AcDbEntity
100
AcDbLine
  8
Middle Layer
 62
256
370
-1
  6
ByLayer
 10
195.7612014288066575
 20
6.605550499444778
 30
0.0
 11
206.1459861100950093
 21
17.8894160659640278
 31
0.0
  0
ARC
  5
EB
100
AcDbEntity
  8
Middle Layer
 62
256
370
-1
  6
ByLayer
100
AcDbCircle
 10
194.4833483287991669
 20
28.6227929801643874
 30
0.0
 40
15.8499999999999996
100
AcDbArc
 50
317.3759674952219143
 51
20.5255493212028064
  0
LINE
  5
EC
100
AcDbEntity
100
AcDbLine
  8
Middle Layer
 62
256
370
-1
  6
ByLayer
 10
209.3271258467246412
 20
34.1801996593925494
 30
0.0
 11
203.9502093169617183
 21
48.5418897978116348
 31
0.0
  0
ARC
  5
ED
100
AcDbEntity
  8
Middle Layer
 62
256
370
-1
  6
ByLayer
100
AcDbCircle
 10
197.933094455594528
 20
46.2891239988184964
 30
0.0
 40
6.424999999999998
100
AcDbArc
 50
20.5255493212025897
 51
137.3759674952218575
  0
LINE
  5
EE
100
AcDbEntity
100
AcDbLine
  8
Middle Layer
 62
256
370
-1
  6
ByLayer
 10
193.2054952287916478
 20
50.6400354608838938
 30
0.0
 11
182.820710547503154
 21
39.3561698943646689
 31
0.0
  0
ARC
  5
EF
100
AcDbEntity
  8
Middle Layer
 62
256
370
-1
  6
ByLayer
100
AcDbCircle
 10
194.4833483287991669
 20
28.6227929801643874
 30
0.0
 40
15.8499999999999996
100
AcDbArc
 50
137.3759674952218575
 51
200.5255493212027318
  0
LINE
  5
F0
100
AcDbEntity
100
AcDbLine
  8
Middle Layer
 62
256
370
-1
  6
ByLayer
 10
179.6395708108736358
 20
23.0653863009361331
 30
0.0
 11
185.0164873406364734
 21
8.7036961625171081
 31
0.0
  0
ARC
  5
F1
100
AcDbEntity
  8
Middle Layer
 62
256
370
-1
  6
ByLayer
100
AcDbCircle
 10
191.0336022020037205
 20
10.9564619615102821
 30
0.0
 40
6.4249999999999998
100
AcDbArc
 50
200.5255493212027886
 51
317.3759674952219143
  0
CIRCLE
  5
F2
100
AcDbEntity
100
AcDbCircle
  8
Middle Layer
 62
256
370
-1
  6
ByLayer
 10
194.4833483287991669
 20
28.6227929801643874
 30
0.0
 40
11.0500000000000007
  0
MTEXT
  5
F3
100
AcDbEntity
100
AcDbMText
  8
Middle Text
 62
256
370
-1
  6
ByLayer
 10
197.1179494137421955
 20
43.0228847001220913
 30
0.0
 40
2.0
 41
100.0
 71
3
 72
2
  1
Middle
  7
standard
 50
337.9015168164245893
 73
0
 44
1.0
  0
ELLIPSE
  5
F4
100
AcDbEntity
100
AcDbEllipse
  8
Middle Layer
 62
256
370
-1
  6
ByLayer
 10
202.3075183008427587
 20
48.3907527527150592
 30
0.0
 11
2.7143808825784235
 21
4.9128980974757255
 31
0.0
 40
0.5285119960717111
 41
0.0
 42
6.2831853071795862
  0
ENDSEC
  0
SECTION
  2
OBJECTS
  0
DICTIONARY
  5
C
100
AcDbDictionary
280
0
281
1
  3
ACAD_GROUP
350
D
  3
ACAD_LAYOUT
350
1A
  3
ACAD_MLINESTYLE
350
17
  3
ACAD_PLOTSETTINGS
350
19
  3
ACAD_PLOTSTYLENAME
350
E
  3
AcDbVariableDictionary
350
F5
  0
DICTIONARY
  5
D
100
AcDbDictionary
280
0
281
1
  0
ACDBDICTIONARYWDFLT
  5
E
100
AcDbDictionary
281
1
  3
Normal
350
F
100
AcDbDictionaryWithDefault
340
F
  0
ACDBPLACEHOLDER
  5
F
  0
DICTIONARY
  5
17
100
AcDbDictionary
280
0
281
1
  3
Standard
350
18
  0
MLINESTYLE
  5
18
100
AcDbMlineStyle
  2
STANDARD
 70
0
  3

 62
256
 51
90.0
 52
90.0
 71
2
 49
0.5
 62
256
  6
BYLAYER
 49
-0.5
 62
256
  6
BYLAYER
  0
DICTIONARY
  5
19
100
AcDbDictionary
280
0
281
1
  0
DICTIONARY
  5
1A
100
AcDbDictionary
281
1
  3
Layout1
350
1E
  3
Layout2
350
26
  3
Model
350
22
  0
LAYOUT
  5
1E
100
AcDbPlotSettings
  1

  2
C:\Program Files\AutoCAD 2002\plotters\DWF ePlot (optimized for plotting).pc3
  4

  6

 40
0.0
 41
0.0
 42
0.0
 43
0.0
 44
0.0
 45
0.0
 46
0.0
 47
0.0
 48
0.0
 49
0.0
140
0.0
141
0.0
142
1.0
143
1.0
 70
688
 72
0
 73
0
 74
5
  7

 75
16
147
1.0
148
0.0
149
0.0
100
AcDbLayout
  1
Layout1
 70
1
 71
1
 10
0.0
 20
0.0
 11
420.0
 21
297.0
 12
0.0
 22
0.0
 32
0.0
 14
100000000000000000000.0
 24
100000000000000000000.0
 34
100000000000000000000.0
 15
-100000000000000000000.0
 25
-100000000000000000000.0
 35
-100000000000000000000.0
146
0.0
 13
0.0
 23
0.0
 33
0.0
 16
1.0
 26
0.0
 36
0.0
 17
0.0
 27
1.0
 37
0.0
 76
0
330
1B
  0
LAYOUT
  5
22
100
AcDbPlotSettings
  1

  2
C:\Program Files\AutoCAD 2002\plotters\DWF ePlot (optimized for plotting).pc3
  4

  6

 40
0.0
 41
0.0
 42
0.0
 43
0.0
 44
0.0
 45
0.0
 46
0.0
 47
0.0
 48
0.0
 49
0.0
140
0.0
141
0.0
142
1.0
143
1.0
 70
1712
 72
0
 73
0
 74
0
  7

 75
0
147
1.0
148
0.0
149
0.0
100
AcDbLayout
  1
Model
 70
1
 71
0
 10
0.0
 20
0.0
 11
12.0
 21
9.0
 12
0.0
 22
0.0
 32
0.0
 14
0.0
 24
0.0
 34
0.0
 15
0.0
 25
0.0
 35
0.0
146
0.0
 13
0.0
 23
0.0
 33
0.0
 16
1.0
 26
0.0
 36
0.0
 17
0.0
 27
1.0
 37
0.0
 76
0
330
1F
  0
LAYOUT
  5
26
100
AcDbPlotSettings
  1

  2
C:\Program Files\AutoCAD 2002\plotters\DWF ePlot (optimized for plotting).pc3
  4

  6

 40
0.0
 41
0.0
 42
0.0
 43
0.0
 44
0.0
 45
0.0
 46
0.0
 47
0.0
 48
0.0
 49
0.0
140
0.0
141
0.0
142
1.0
143
1.0
 70
688
 72
0
 73
0
 74
5
  7

 75
16
147
1.0
148
0.0
149
0.0
100
AcDbLayout
  1
Layout2
 70
1
 71
2
 10
0.0
 20
0.0
 11
12.0
 21
9.0
 12
0.0
 22
0.0
 32
0.0
 14
0.0
 24
0.0
 34
0.0
 15
0.0
 25
0.0
 35
0.0
146
0.0
 13
0.0
 23
0.0
 33
0.0
 16
1.0
 26
0.0
 36
0.0
 17
0.0
 27
1.0
 37
0.0
 76
0
330
23
  0
DICTIONARY
  5
F5
100
AcDbDictionary
281
1
  3
DIMASSOC
350
F7
  3
HIDETEXT
350
F6
  0
DICTIONARYVAR
  5
F6
100
DictionaryVariables
280
0
  1
2
  0
DICTIONARYVAR
  5
F7
100
DictionaryVariables
280
0
  1
1
  0
ENDSEC
  0
EOF
