999
dxflib 2.1.2.0
  0
SECTION
  2
HEADER
  9
$ACADVER
  1
AC1015
  9
$HANDSEED
  5
FFFF
  9
$DIMASZ
 40
2.5
  9
$PLIMMIN
 10
0.0
 20
0.0
  9
$DIMEXE
 40
1.25
  9
$DIMGAP
 40
0.625
  9
$PLIMMAX
 10
210.0
 20
297.0
  9
$INSUNITS
 70
4
  9
$DIMEXO
 40
0.625
  9
$DIMTXT
 40
2.5
  9
$CLAYER
  8
0
  0
ENDSEC
  0
SECTION
  2
TABLES
  0
TABLE
  2
VPORT
  5
8
100
AcDbSymbolTable
 70
1
  0
VPORT
  5
30
100
AcDbSymbolTableRecord
100
AcDbViewportTableRecord
  2
*Active
 70
0
 10
0.0
 20
0.0
 11
1.0
 21
1.0
 12
286.3055555555554861
 22
148.5
 13
0.0
 23
0.0
 14
10.0
 24
10.0
 15
10.0
 25
10.0
 16
0.0
 26
0.0
 36
1.0
 17
0.0
 27
0.0
 37
0.0
 40
297.0
 41
1.92798353909465
 42
50.0
 43
0.0
 44
0.0
 50
0.0
 51
0.0
 71
0
 72
100
 73
1
 74
3
 75
1
 76
1
 77
0
 78
0
281
0
 65
1
110
0.0
120
0.0
130
0.0
111
1.0
121
0.0
131
0.0
112
0.0
122
1.0
132
0.0
 79
0
146
0.0
  0
ENDTAB
  0
TABLE
  2
LTYPE
  5
5
100
AcDbSymbolTable
 70
21
  0
LTYPE
  5
14
100
AcDbSymbolTableRecord
100
AcDbLinetypeTableRecord
  2
ByBlock
 70
0
  3

 72
65
 73
0
 40
0.0
  0
LTYPE
  5
15
100
AcDbSymbolTableRecord
100
AcDbLinetypeTableRecord
  2
ByLayer
 70
0
  3

 72
65
 73
0
 40
0.0
  0
LTYPE
  5
16
100
AcDbSymbolTableRecord
100
AcDbLinetypeTableRecord
  2
CONTINUOUS
 70
0
  3
Solid line
 72
65
 73
0
 40
0.0
  0
LTYPE
  5
31
100
AcDbSymbolTableRecord
100
AcDbLinetypeTableRecord
  2
DOT
 70
0
  3
Dot . . . . . . . . . . . . . . . . . . . . . .
 72
65
 73
2
 40
6.3499999999999996
 49
0.0
 74
0
 49
-6.3499999999999996
 74
0
  0
LTYPE
  5
32
100
AcDbSymbolTableRecord
100
AcDbLinetypeTableRecord
  2
DOT2
 70
0
  3
Dot (.5x) .....................................
 72
65
 73
2
 40
3.1749999999999998
 49
0.0
 74
0
 49
-3.1749999999999998
 74
0
  0
LTYPE
  5
33
100
AcDbSymbolTableRecord
100
AcDbLinetypeTableRecord
  2
DOTX2
 70
0
  3
Dot (2x) .  .  .  .  .  .  .  .  .  .  .  .  .
 72
65
 73
2
 40
12.6999999999999993
 49
0.0
 74
0
 49
-12.6999999999999993
 74
0
  0
LTYPE
  5
34
100
AcDbSymbolTableRecord
100
AcDbLinetypeTableRecord
  2
DASHED
 70
0
  3
Dashed __ __ __ __ __ __ __ __ __ __ __ __ __ _
 72
65
 73
2
 40
19.0500000000000007
 49
12.6999999999999993
 74
0
 49
-6.3499999999999996
 74
0
  0
LTYPE
  5
35
100
AcDbSymbolTableRecord
100
AcDbLinetypeTableRecord
  2
DASHED2
 70
0
  3
Dashed (.5x) _ _ _ _ _ _ _ _ _ _ _ _ _ _ _ _ _
 72
65
 73
2
 40
9.5250000000000004
 49
6.3499999999999996
 74
0
 49
-3.1749999999999998
 74
0
  0
LTYPE
  5
36
100
AcDbSymbolTableRecord
100
AcDbLinetypeTableRecord
  2
DASHEDX2
 70
0
  3
Dashed (2x) ____  ____  ____  ____  ____  ___
 72
65
 73
2
 40
38.1000000000000014
 49
25.3999999999999986
 74
0
 49
-12.6999999999999993
 74
0
  0
LTYPE
  5
37
100
AcDbSymbolTableRecord
100
AcDbLinetypeTableRecord
  2
DASHDOT
 70
0
  3
Dash dot __ . __ . __ . __ . __ . __ . __ . __
 72
65
 73
4
 40
25.3999999999999986
 49
12.6999999999999993
 74
0
 49
-6.3499999999999996
 74
0
 49
0.0
 74
0
 49
-6.3499999999999996
 74
0
  0
LTYPE
  5
38
100
AcDbSymbolTableRecord
100
AcDbLinetypeTableRecord
  2
DASHDOT2
 70
0
  3
Dash dot (.5x) _._._._._._._._._._._._._._._.
 72
65
 73
4
 40
12.6999999999999993
 49
6.3499999999999996
 74
0
 49
-3.1749999999999998
 74
0
 49
0.0
 74
0
 49
-3.1749999999999998
 74
0
  0
LTYPE
  5
39
100
AcDbSymbolTableRecord
100
AcDbLinetypeTableRecord
  2
DASHDOTX2
 70
0
  3
Dash dot (2x) ____  .  ____  .  ____  .  ___
 72
65
 73
4
 40
50.7999999999999972
 49
25.3999999999999986
 74
0
 49
-12.6999999999999993
 74
0
 49
0.0
 74
0
 49
-12.6999999999999993
 74
0
  0
LTYPE
  5
3A
100
AcDbSymbolTableRecord
100
AcDbLinetypeTableRecord
  2
DIVIDE
 70
0
  3
Divide ____ . . ____ . . ____ . . ____ . . ____
 72
65
 73
6
 40
31.75
 49
12.6999999999999993
 74
0
 49
-6.3499999999999996
 74
0
 49
0.0
 74
0
 49
-6.3499999999999996
 74
0
 49
0.0
 74
0
 49
-6.3499999999999996
 74
0
  0
LTYPE
  5
3B
100
AcDbSymbolTableRecord
100
AcDbLinetypeTableRecord
  2
DIVIDE2
 70
0
  3
Divide (.5x) __..__..__..__..__..__..__..__.._
 72
65
 73
6
 40
15.875
 49
6.3499999999999996
 74
0
 49
-3.1749999999999998
 74
0
 49
0.0
 74
0
 49
-3.1749999999999998
 74
0
 49
0.0
 74
0
 49
-3.1749999999999998
 74
0
  0
LTYPE
  5
3C
100
AcDbSymbolTableRecord
100
AcDbLinetypeTableRecord
  2
DIVIDEX2
 70
0
  3
Divide (2x) ________  .  .  ________  .  .  _
 72
65
 73
6
 40
63.5
 49
25.3999999999999986
 74
0
 49
-12.6999999999999993
 74
0
 49
0.0
 74
0
 49
-12.6999999999999993
 74
0
 49
0.0
 74
0
 49
-12.6999999999999993
 74
0
  0
LTYPE
  5
3D
100
AcDbSymbolTableRecord
100
AcDbLinetypeTableRecord
  2
CENTER
 70
0
  3
Center ____ _ ____ _ ____ _ ____ _ ____ _ ____
 72
65
 73
4
 40
50.7999999999999972
 49
31.75
 74
0
 49
-6.3499999999999996
 74
0
 49
6.3499999999999996
 74
0
 49
-6.3499999999999996
 74
0
  0
LTYPE
  5
3E
100
AcDbSymbolTableRecord
100
AcDbLinetypeTableRecord
  2
CENTER2
 70
0
  3
Center (.5x) ___ _ ___ _ ___ _ ___ _ ___ _ ___
 72
65
 73
4
 40
28.5749999999999993
 49
19.0500000000000007
 74
0
 49
-3.1749999999999998
 74
0
 49
3.1749999999999998
 74
0
 49
-3.1749999999999998
 74
0
  0
LTYPE
  5
3F
100
AcDbSymbolTableRecord
100
AcDbLinetypeTableRecord
  2
CENTERX2
 70
0
  3
Center (2x) ________  __  ________  __  _____
 72
65
 73
4
 40
101.5999999999999943
 49
63.5
 74
0
 49
-12.6999999999999993
 74
0
 49
12.6999999999999993
 74
0
 49
-12.6999999999999993
 74
0
  0
LTYPE
  5
40
100
AcDbSymbolTableRecord
100
AcDbLinetypeTableRecord
  2
BORDER
 70
0
  3
Border __ __ . __ __ . __ __ . __ __ . __ __ .
 72
65
 73
6
 40
44.4500000000000028
 49
12.6999999999999993
 74
0
 49
-6.3499999999999996
 74
0
 49
12.6999999999999993
 74
0
 49
-6.3499999999999996
 74
0
 49
0.0
 74
0
 49
-6.3499999999999996
 74
0
  0
LTYPE
  5
41
100
AcDbSymbolTableRecord
100
AcDbLinetypeTableRecord
  2
BORDER2
 70
0
  3
Border (.5x) __.__.__.__.__.__.__.__.__.__.__.
 72
65
 73
6
 40
22.2250000000000014
 49
6.3499999999999996
 74
0
 49
-3.1749999999999998
 74
0
 49
6.3499999999999996
 74
0
 49
-3.1749999999999998
 74
0
 49
0.0
 74
0
 49
-3.1749999999999998
 74
0
  0
LTYPE
  5
42
100
AcDbSymbolTableRecord
100
AcDbLinetypeTableRecord
  2
BORDERX2
 70
0
  3
Border (2x) ____  ____  .  ____  ____  .  ___
 72
65
 73
6
 40
88.9000000000000057
 49
25.3999999999999986
 74
0
 49
-12.6999999999999993
 74
0
 49
25.3999999999999986
 74
0
 49
-12.6999999999999993
 74
0
 49
0.0
 74
0
 49
-12.6999999999999993
 74
0
  0
ENDTAB
  0
TABLE
  2
LAYER
  5
2
100
AcDbSymbolTable
 70
5
  0
LAYER
  5
10
100
AcDbSymbolTableRecord
100
AcDbLayerTableRecord
  2
0
 70
0
 62
7
  6
CONTINUOUS
370
0
390
F
  0
LAYER
  5
43
100
AcDbSymbolTableRecord
100
AcDbLayerTableRecord
  2
Bottom
 70
0
 62
7
  6
CONTINUOUS
370
0
390
F
  0
LAYER
  5
44
100
AcDbSymbolTableRecord
100
AcDbLayerTableRecord
  2
Bottom Text
 70
0
 62
4
  6
CONTINUOUS
370
0
390
F
  0
LAYER
  5
45
100
AcDbSymbolTableRecord
100
AcDbLayerTableRecord
  2
Top
 70
0
 62
7
  6
CONTINUOUS
370
0
390
F
  0
LAYER
  5
46
100
AcDbSymbolTableRecord
100
AcDbLayerTableRecord
  2
Top Text
 70
0
 62
4
  6
CONTINUOUS
370
0
390
F
  0
ENDTAB
  0
TABLE
  2
STYLE
  5
3
100
AcDbSymbolTable
 70
1
  0
STYLE
  5
11
100
AcDbSymbolTableRecord
100
AcDbTextStyleTableRecord
  2
Standard
 70
0
 40
0.0
 41
0.75
 50
0.0
 71
0
 42
2.5
  3
txt
  4

  0
ENDTAB
  0
TABLE
  2
VIEW
  5
6
100
AcDbSymbolTable
 70
0
  0
ENDTAB
  0
TABLE
  2
UCS
  5
7
100
AcDbSymbolTable
 70
0
  0
ENDTAB
  0
TABLE
  2
APPID
  5
9
100
AcDbSymbolTable
 70
1
  0
APPID
  5
12
100
AcDbSymbolTableRecord
100
AcDbRegAppTableRecord
  2
ACAD
 70
0
  0
ENDTAB
  0
TABLE
  2
DIMSTYLE
  5
A
100
AcDbSymbolTable
 70
1
100
AcDbDimStyleTable
 71
0
  0
DIMSTYLE
105
27
100
AcDbSymbolTableRecord
100
AcDbDimStyleTableRecord
  2
Standard
 41
2.5
 42
0.625
 43
3.75
 44
1.25
 70
0
 73
0
 74
0
 77
1
 78
8
140
2.5
141
2.5
143
0.03937007874016
147
0.625
171
3
172
1
271
2
272
2
274
3
278
44
283
0
284
8
340
11
  0
ENDTAB
  0
TABLE
  2
BLOCK_RECORD
  5
1
100
AcDbSymbolTable
 70
1
  0
BLOCK_RECORD
  5
1F
100
AcDbSymbolTableRecord
100
AcDbBlockTableRecord
  2
*Model_Space
340
22
  0
BLOCK_RECORD
  5
1B
100
AcDbSymbolTableRecord
100
AcDbBlockTableRecord
  2
*Paper_Space
340
1E
  0
BLOCK_RECORD
  5
23
100
AcDbSymbolTableRecord
100
AcDbBlockTableRecord
  2
*Paper_Space0
340
26
  0
ENDTAB
  0
ENDSEC
  0
SECTION
  2
BLOCKS
  0
BLOCK
  5
20
100
AcDbEntity
  8
0
100
AcDbBlockBegin
  2
*Model_Space
 70
0
 10
0.0
 20
0.0
 30
0.0
  3
*Model_Space
  1

  0
ENDBLK
  5
21
100
AcDbEntity
  8
0
100
AcDbBlockEnd
  0
BLOCK
  5
1C
100
AcDbEntity
 67
1
  8
0
100
AcDbBlockBegin
  2
*Paper_Space
 70
0
 10
0.0
 20
0.0
 30
0.0
  3
*Paper_Space
  1

  0
ENDBLK
  5
1D
100
AcDbEntity
 67
1
  8
0
100
AcDbBlockEnd
  0
BLOCK
  5
24
100
AcDbEntity
  8
0
100
AcDbBlockBegin
  2
*Paper_Space0
 70
0
 10
0.0
 20
0.0
 30
0.0
  3
*Paper_Space0
  1

  0
ENDBLK
  5
25
100
AcDbEntity
  8
0
100
AcDbBlockEnd
  0
ENDSEC
  0
SECTION
  2
ENTITIES
  0
CIRCLE
  5
47
100
AcDbEntity
100
AcDbCircle
  8
Bottom
 62
256
370
-1
  6
ByLayer
 10
25.7668330798126348
 20
56.0548786907790486
 30
0.0
 40
1.425
  0
CIRCLE
  5
48
100
AcDbEntity
100
AcDbCircle
  8
Bottom
 62
256
370
-1
  6
ByLayer
 10
53.957611703389901
 20
45.7942743910089689
 30
0.0
 40
1.425
  0
CIRCLE
  5
49
100
AcDbEntity
100
AcDbCircle
  8
Bottom
 62
256
370
-1
  6
ByLayer
 10
23.1447387460051708
 20
11.7635790501596205
 30
0.0
 40
1.425
  0
CIRCLE
  5
4A
100
AcDbEntity
100
AcDbCircle
  8
Bottom
 62
256
370
-1
  6
ByLayer
 10
39.1447387460051317
 20
11.7635790501596027
 30
0.0
 40
1.425
  0
CIRCLE
  5
4B
100
AcDbEntity
100
AcDbCircle
  8
Bottom
 62
256
370
-1
  6
ByLayer
 10
23.144738746005185
 20
33.7635790501596276
 30
0.0
 40
1.425
  0
LINE
  5
4C
100
AcDbEntity
100
AcDbLine
  8
Bottom
 62
256
370
-1
  6
ByLayer
 10
41.2169819324386921
 20
23.9135790501595942
 30
0.0
 11
42.689225118872244
 21
21.3635790501596112
 31
0.0
  0
LINE
  5
4D
100
AcDbEntity
100
AcDbLine
  8
Bottom
 62
256
370
-1
  6
ByLayer
 10
42.689225118872244
 20
21.3635790501596112
 30
0.0
 11
41.216981932438685
 21
18.8135790501595999
 31
0.0
  0
LINE
  5
4E
100
AcDbEntity
100
AcDbLine
  8
Bottom
 62
256
370
-1
  6
ByLayer
 10
41.216981932438685
 20
18.8135790501595999
 30
0.0
 11
38.2724955595716096
 21
18.8135790501596105
 31
0.0
  0
LINE
  5
4F
100
AcDbEntity
100
AcDbLine
  8
Bottom
 62
256
370
-1
  6
ByLayer
 10
38.2724955595716096
 20
18.8135790501596105
 30
0.0
 11
36.8002523731380649
 21
21.3635790501596041
 31
0.0
  0
LINE
  5
50
100
AcDbEntity
100
AcDbLine
  8
Bottom
 62
256
370
-1
  6
ByLayer
 10
36.8002523731380649
 20
21.3635790501596041
 30
0.0
 11
38.2724955595715954
 21
23.9135790501596155
 31
0.0
  0
LINE
  5
51
100
AcDbEntity
100
AcDbLine
  8
Bottom
 62
256
370
-1
  6
ByLayer
 10
38.2724955595715954
 20
23.9135790501596155
 30
0.0
 11
41.2169819324386921
 21
23.9135790501595942
 31
0.0
  0
LINE
  5
52
100
AcDbEntity
100
AcDbLine
  8
Bottom
 62
256
370
-1
  6
ByLayer
 10
49.216981932438685
 20
31.7135790501596091
 30
0.0
 11
50.689225118872244
 21
29.1635790501595977
 31
0.0
  0
LINE
  5
53
100
AcDbEntity
100
AcDbLine
  8
Bottom
 62
256
370
-1
  6
ByLayer
 10
50.689225118872244
 20
29.1635790501595977
 30
0.0
 11
49.2169819324387063
 21
26.6135790501597462
 31
0.0
  0
LINE
  5
54
100
AcDbEntity
100
AcDbLine
  8
Bottom
 62
256
370
-1
  6
ByLayer
 10
49.2169819324387063
 20
26.6135790501597462
 30
0.0
 11
46.2724955595716025
 21
26.613579050159764
 31
0.0
  0
LINE
  5
55
100
AcDbEntity
100
AcDbLine
  8
Bottom
 62
256
370
-1
  6
ByLayer
 10
46.2724955595716025
 20
26.613579050159764
 30
0.0
 11
44.8002523731380506
 21
29.1635790501596155
 31
0.0
  0
LINE
  5
56
100
AcDbEntity
100
AcDbLine
  8
Bottom
 62
256
370
-1
  6
ByLayer
 10
44.8002523731380506
 20
29.1635790501596155
 30
0.0
 11
46.2724955595716096
 21
31.7135790501596091
 31
0.0
  0
LINE
  5
57
100
AcDbEntity
100
AcDbLine
  8
Bottom
 62
256
370
-1
  6
ByLayer
 10
46.2724955595716096
 20
31.7135790501596091
 30
0.0
 11
49.216981932438685
 21
31.7135790501596091
 31
0.0
  0
LINE
  5
58
100
AcDbEntity
100
AcDbLine
  8
Bottom
 62
256
370
-1
  6
ByLayer
 10
49.2169819324387063
 20
23.9135790501595906
 30
0.0
 11
50.689225118872244
 21
21.3635790501596432
 31
0.0
  0
LINE
  5
59
100
AcDbEntity
100
AcDbLine
  8
Bottom
 62
256
370
-1
  6
ByLayer
 10
50.689225118872244
 20
21.3635790501596432
 30
0.0
 11
49.2169819324387063
 21
18.8135790501595963
 31
0.0
  0
LINE
  5
5A
100
AcDbEntity
100
AcDbLine
  8
Bottom
 62
256
370
-1
  6
ByLayer
 10
49.2169819324387063
 20
18.8135790501595963
 30
0.0
 11
46.2724955595716096
 21
18.8135790501596141
 31
0.0
  0
LINE
  5
5B
100
AcDbEntity
100
AcDbLine
  8
Bottom
 62
256
370
-1
  6
ByLayer
 10
46.2724955595716096
 20
18.8135790501596141
 30
0.0
 11
44.8002523731380364
 21
21.3635790501596041
 31
0.0
  0
LINE
  5
5C
100
AcDbEntity
100
AcDbLine
  8
Bottom
 62
256
370
-1
  6
ByLayer
 10
44.8002523731380364
 20
21.3635790501596041
 30
0.0
 11
46.2724955595716096
 21
23.913579050159619
 31
0.0
  0
LINE
  5
5D
100
AcDbEntity
100
AcDbLine
  8
Bottom
 62
256
370
-1
  6
ByLayer
 10
46.2724955595716096
 20
23.913579050159619
 30
0.0
 11
49.2169819324387063
 21
23.9135790501595906
 31
0.0
  0
LINE
  5
5E
100
AcDbEntity
100
AcDbLine
  8
Bottom
 62
256
370
-1
  6
ByLayer
 10
37.7652088878004406
 20
31.7135790501596162
 30
0.0
 11
41.2169819324386992
 21
31.7135790501596375
 31
0.0
  0
LINE
  5
5F
100
AcDbEntity
100
AcDbLine
  8
Bottom
 62
256
370
-1
  6
ByLayer
 10
41.2169819324386992
 20
31.7135790501596375
 30
0.0
 11
42.689225118872244
 21
29.1635790501596297
 31
0.0
  0
LINE
  5
60
100
AcDbEntity
100
AcDbLine
  8
Bottom
 62
256
370
-1
  6
ByLayer
 10
42.689225118872244
 20
29.1635790501596297
 30
0.0
 11
41.2169819324386921
 21
26.6135790501596077
 31
0.0
  0
LINE
  5
61
100
AcDbEntity
100
AcDbLine
  8
Bottom
 62
256
370
-1
  6
ByLayer
 10
41.2169819324386921
 20
26.6135790501596077
 30
0.0
 11
38.2724955595715954
 21
26.6135790501596894
 31
0.0
  0
LINE
  5
62
100
AcDbEntity
100
AcDbLine
  8
Bottom
 62
256
370
-1
  6
ByLayer
 10
38.2724955595715954
 20
26.6135790501596894
 30
0.0
 11
36.82284319736371
 21
29.1244505948159436
 31
0.0
  0
LINE
  5
63
100
AcDbEntity
100
AcDbLine
  8
Bottom
 62
256
370
-1
  6
ByLayer
 10
30.7092148001850731
 20
12.3273946226311573
 30
0.0
 11
36.82284319736371
 21
29.1244505948159436
 31
0.0
  0
LINE
  5
64
100
AcDbEntity
100
AcDbLine
  8
Bottom
 62
256
370
-1
  6
ByLayer
 10
22.4226461754308666
 20
14.7049522827603667
 30
0.0
 11
29.940187141718134
 21
11.9687911361550157
 31
0.0
  0
LINE
  5
65
100
AcDbEntity
100
AcDbLine
  8
Bottom
 62
256
370
-1
  6
ByLayer
 10
38.6178176259170982
 20
60.9551027872653037
 30
0.0
 11
22.0640426889547427
 21
15.4739799412273307
 31
0.0
  0
LINE
  5
66
100
AcDbEntity
100
AcDbLine
  8
Bottom
 62
256
370
-1
  6
ByLayer
 10
33.3085543184767232
 20
62.8875165970553098
 30
0.0
 11
38.6178176259170982
 21
60.9551027872653037
 31
0.0
  0
LINE
  5
67
100
AcDbEntity
100
AcDbLine
  8
Bottom
 62
256
370
-1
  6
ByLayer
 10
34.7968596059591917
 20
68.7308844077661547
 30
0.0
 11
32.9499508320005674
 21
63.6565442555222489
 31
0.0
  0
LINE
  5
68
100
AcDbEntity
100
AcDbLine
  8
Bottom
 62
256
370
-1
  6
ByLayer
 10
30.8971352296976711
 20
70.1502680025677137
 30
0.0
 11
34.7968596059591917
 21
68.7308844077661547
 31
0.0
  0
LINE
  5
69
100
AcDbEntity
100
AcDbLine
  8
Bottom
 62
256
370
-1
  6
ByLayer
 10
29.0329528939008199
 20
64.4437082491870967
 30
0.0
 11
28.8450143697436374
 21
64.5121122778522249
 31
0.0
  0
LINE
  5
6A
100
AcDbEntity
100
AcDbLine
  8
Bottom
 62
256
370
-1
  6
ByLayer
 10
28.4338999790650888
 20
61.043541252519617
 30
0.0
 11
29.3915563803769757
 21
63.6746805907201576
 31
0.0
  0
LINE
  5
6B
100
AcDbEntity
100
AcDbLine
  8
Bottom
 62
256
370
-1
  6
ByLayer
 10
27.4769337964409708
 20
60.7533417947086036
 30
0.0
 11
27.6648723205981639
 21
60.6849377660434612
 31
0.0
  0
LINE
  5
6C
100
AcDbEntity
100
AcDbLine
  8
Bottom
 62
256
370
-1
  6
ByLayer
 10
26.9981055957850344
 20
59.4377721256083191
 30
0.0
 11
27.4769337964409708
 21
60.7533417947086036
 31
0.0
  0
LINE
  5
6D
100
AcDbEntity
100
AcDbLine
  8
Bottom
 62
256
370
-1
  6
ByLayer
 10
21.7185533575457441
 20
60.720865327095396
 30
0.0
 11
26.2290779373180918
 21
59.0791686391321917
 31
0.0
  0
LINE
  5
6E
100
AcDbEntity
100
AcDbLine
  8
Bottom
 62
256
370
-1
  6
ByLayer
 10
21.8387780717255318
 20
62.8054626546626196
 30
0.0
 11
21.3599498710696025
 21
61.4898929855623351
 31
0.0
  0
LINE
  5
6F
100
AcDbEntity
100
AcDbLine
  8
Bottom
 62
256
370
-1
  6
ByLayer
 10
21.6508395475683351
 20
62.8738666833277478
 30
0.0
 11
21.8387780717255318
 21
62.8054626546626196
 31
0.0
  0
LINE
  5
70
100
AcDbEntity
100
AcDbLine
  8
Bottom
 62
256
370
-1
  6
ByLayer
 10
22.2498924624040733
 20
66.2740336799952416
 30
0.0
 11
21.2922360610922041
 21
63.6428943417946869
 31
0.0
  0
LINE
  5
71
100
AcDbEntity
100
AcDbLine
  8
Bottom
 62
256
370
-1
  6
ByLayer
 10
23.2068586450281984
 20
66.5642331378062408
 30
0.0
 11
23.0189201208710159
 21
66.6326371664713832
 31
0.0
  0
LINE
  5
72
100
AcDbEntity
100
AcDbLine
  8
Bottom
 62
256
370
-1
  6
ByLayer
 10
21.5002090218385824
 20
73.5704694358243785
 30
0.0
 11
25.2589795049822143
 21
72.2023888625217154
 31
0.0
  0
LINE
  5
73
100
AcDbEntity
100
AcDbLine
  8
Bottom
 62
256
370
-1
  6
ByLayer
 10
11.5724028752734256
 20
46.2940462234137584
 30
0.0
 11
21.5002090218385824
 21
73.5704694358243785
 31
0.0
  0
LINE
  5
74
100
AcDbEntity
100
AcDbLine
  8
Bottom
 62
256
370
-1
  6
ByLayer
 10
6.1447387460051974
 20
4.7635790501596134
 30
0.0
 11
6.1447387460051779
 21
15.512233324103569
 31
0.0
  0
LINE
  5
75
100
AcDbEntity
100
AcDbLine
  8
Bottom
 62
256
370
-1
  6
ByLayer
 10
12.1447387460051761
 20
4.7635790501596205
 30
0.0
 11
6.1447387460051974
 21
4.7635790501596134
 31
0.0
  0
LINE
  5
76
100
AcDbEntity
100
AcDbLine
  8
Bottom
 62
256
370
-1
  6
ByLayer
 10
11.9447387460051875
 20
12.7635790501596347
 30
0.0
 11
12.1447387460051672
 21
12.7635790501596347
 31
0.0
  0
LINE
  5
77
100
AcDbEntity
100
AcDbLine
  8
Bottom
 62
256
370
-1
  6
ByLayer
 10
11.344738746005147
 20
16.1635790501596368
 30
0.0
 11
11.3447387460051559
 21
13.3635790501596325
 31
0.0
  0
LINE
  5
78
100
AcDbEntity
100
AcDbLine
  8
Bottom
 62
256
370
-1
  6
ByLayer
 10
12.1447387460051708
 20
16.7635790501596418
 30
0.0
 11
11.9447387460051537
 21
16.7635790501596489
 31
0.0
  0
LINE
  5
79
100
AcDbEntity
100
AcDbLine
  8
Bottom
 62
256
370
-1
  6
ByLayer
 10
12.1447387460051708
 20
18.1635790501596297
 30
0.0
 11
12.1447387460051708
 21
16.7635790501596418
 31
0.0
  0
LINE
  5
7A
100
AcDbEntity
100
AcDbLine
  8
Bottom
 62
256
370
-1
  6
ByLayer
 10
17.5447387460051694
 20
18.7635790501596063
 30
0.0
 11
12.7447387460051687
 21
18.7635790501596382
 31
0.0
  0
LINE
  5
7B
100
AcDbEntity
100
AcDbLine
  8
Bottom
 62
256
370
-1
  6
ByLayer
 10
18.1447387460051743
 20
16.7635790501596382
 30
0.0
 11
18.1447387460051743
 21
18.1635790501596048
 31
0.0
  0
LINE
  5
7C
100
AcDbEntity
100
AcDbLine
  8
Bottom
 62
256
370
-1
  6
ByLayer
 10
18.3447387460051807
 20
16.7635790501596453
 30
0.0
 11
18.1447387460051743
 21
16.7635790501596382
 31
0.0
  0
LINE
  5
7D
100
AcDbEntity
100
AcDbLine
  8
Bottom
 62
256
370
-1
  6
ByLayer
 10
18.9447387460051893
 20
13.3635790501596254
 30
0.0
 11
18.9447387460051715
 21
16.1635790501596261
 31
0.0
  0
LINE
  5
7E
100
AcDbEntity
100
AcDbLine
  8
Bottom
 62
256
370
-1
  6
ByLayer
 10
18.1447387460051566
 20
12.7635790501596276
 30
0.0
 11
18.3447387460051594
 21
12.7635790501596311
 31
0.0
  0
LINE
  5
7F
100
AcDbEntity
100
AcDbLine
  8
Bottom
 62
256
370
-1
  6
ByLayer
 10
44.1447387460051957
 20
4.7635790501596205
 30
0.0
 11
18.144738746005153
 21
4.7635790501596205
 31
0.0
  0
LINE
  5
80
100
AcDbEntity
100
AcDbLine
  8
Bottom
 62
256
370
-1
  6
ByLayer
 10
43.9447387460051644
 20
12.7635790501596063
 30
0.0
 11
44.1447387460051885
 21
12.7635790501596276
 31
0.0
  0
LINE
  5
81
100
AcDbEntity
100
AcDbLine
  8
Bottom
 62
256
370
-1
  6
ByLayer
 10
43.3447387460051701
 20
16.163579050159619
 30
0.0
 11
43.3447387460051843
 21
13.3635790501596254
 31
0.0
  0
LINE
  5
82
100
AcDbEntity
100
AcDbLine
  8
Bottom
 62
256
370
-1
  6
ByLayer
 10
44.1447387460051743
 20
16.7635790501596276
 30
0.0
 11
43.9447387460051573
 21
16.763579050159624
 31
0.0
  0
LINE
  5
83
100
AcDbEntity
100
AcDbLine
  8
Bottom
 62
256
370
-1
  6
ByLayer
 10
44.1447387460051743
 20
18.1635790501596013
 30
0.0
 11
44.1447387460051743
 21
16.7635790501596276
 31
0.0
  0
LINE
  5
84
100
AcDbEntity
100
AcDbLine
  8
Bottom
 62
256
370
-1
  6
ByLayer
 10
49.5447387460051587
 20
18.7635790501595743
 30
0.0
 11
44.7447387460051687
 21
18.7635790501596276
 31
0.0
  0
LINE
  5
85
100
AcDbEntity
100
AcDbLine
  8
Bottom
 62
256
370
-1
  6
ByLayer
 10
50.1447387460051743
 20
16.7635790501596276
 30
0.0
 11
50.1447387460051672
 21
18.1635790501595871
 31
0.0
  0
LINE
  5
86
100
AcDbEntity
100
AcDbLine
  8
Bottom
 62
256
370
-1
  6
ByLayer
 10
50.3447387460051772
 20
16.7635790501596205
 30
0.0
 11
50.1447387460051743
 21
16.7635790501596276
 31
0.0
  0
LINE
  5
87
100
AcDbEntity
100
AcDbLine
  8
Bottom
 62
256
370
-1
  6
ByLayer
 10
50.9447387460051644
 20
13.3635790501596254
 30
0.0
 11
50.9447387460051573
 21
16.163579050159619
 31
0.0
  0
LINE
  5
88
100
AcDbEntity
100
AcDbLine
  8
Bottom
 62
256
370
-1
  6
ByLayer
 10
50.1447387460051601
 20
12.7635790501596205
 30
0.0
 11
50.3447387460051488
 21
12.7635790501596098
 31
0.0
  0
LINE
  5
89
100
AcDbEntity
100
AcDbLine
  8
Bottom
 62
256
370
-1
  6
ByLayer
 10
56.1447387460051601
 20
4.7635790501595991
 30
0.0
 11
50.144738746005153
 21
4.7635790501595991
 31
0.0
  0
LINE
  5
8A
100
AcDbEntity
100
AcDbLine
  8
Bottom
 62
256
370
-1
  6
ByLayer
 10
56.1447387460051388
 20
6.6958842886803396
 30
0.0
 11
56.1447387460051601
 21
4.7635790501595991
 31
0.0
  0
LINE
  5
8B
100
AcDbEntity
100
AcDbLine
  8
Bottom
 62
256
370
-1
  6
ByLayer
 10
68.4848400611339514
 20
56.4694622695409265
 30
0.0
 11
61.5724028752733545
 21
37.4776971879905005
 31
0.0
  0
LINE
  5
8C
100
AcDbEntity
100
AcDbLine
  8
Bottom
 62
256
370
-1
  6
ByLayer
 10
64.7260695779903585
 20
57.8375428428436322
 30
0.0
 11
68.4848400611339514
 21
56.4694622695409265
 31
0.0
  0
LINE
  5
8D
100
AcDbEntity
100
AcDbLine
  8
Bottom
 62
256
370
-1
  6
ByLayer
 10
62.8618872421935606
 20
52.1309830894630295
 30
0.0
 11
62.6739487180363568
 21
52.1993871181281506
 31
0.0
  0
LINE
  5
8E
100
AcDbEntity
100
AcDbLine
  8
Bottom
 62
256
370
-1
  6
ByLayer
 10
62.2628343273577514
 20
48.7308160927955285
 30
0.0
 11
63.2204907286696596
 21
51.3619554309960975
 31
0.0
  0
LINE
  5
8F
100
AcDbEntity
100
AcDbLine
  8
Bottom
 62
256
370
-1
  6
ByLayer
 10
61.3058681447336511
 20
48.4406166349845506
 30
0.0
 11
61.4938066688908549
 21
48.3722126063194153
 31
0.0
  0
LINE
  5
90
100
AcDbEntity
100
AcDbLine
  8
Bottom
 62
256
370
-1
  6
ByLayer
 10
60.8270399440776544
 20
47.1250469658842306
 30
0.0
 11
61.3058681447336511
 21
48.4406166349845506
 31
0.0
  0
LINE
  5
91
100
AcDbEntity
100
AcDbLine
  8
Bottom
 62
256
370
-1
  6
ByLayer
 10
55.5474877058384493
 20
48.4081401673713358
 30
0.0
 11
60.0580122856107579
 21
46.7664434794081245
 31
0.0
  0
LINE
  5
92
100
AcDbEntity
100
AcDbLine
  8
Bottom
 62
256
370
-1
  6
ByLayer
 10
55.6677124200182476
 20
50.4927374949385239
 30
0.0
 11
55.1888842193622793
 21
49.1771678258382465
 31
0.0
  0
LINE
  5
93
100
AcDbEntity
100
AcDbLine
  8
Bottom
 62
256
370
-1
  6
ByLayer
 10
55.479773895861058
 20
50.5611415236036663
 30
0.0
 11
55.6677124200182476
 21
50.4927374949385239
 31
0.0
  0
LINE
  5
94
100
AcDbEntity
100
AcDbLine
  8
Bottom
 62
256
370
-1
  6
ByLayer
 10
56.0788268106967962
 20
53.9613085202711673
 30
0.0
 11
55.1211704093849306
 21
51.3301691820706125
 31
0.0
  0
LINE
  5
95
100
AcDbEntity
100
AcDbLine
  8
Bottom
 62
256
370
-1
  6
ByLayer
 10
57.0357929933209533
 20
54.2515079780821665
 30
0.0
 11
56.84785446916365
 21
54.3199120067473018
 31
0.0
  0
LINE
  5
96
100
AcDbEntity
100
AcDbLine
  8
Bottom
 62
256
370
-1
  6
ByLayer
 10
55.1881894770133954
 20
61.3090472975991503
 30
0.0
 11
59.087913853274955
 21
59.889663702797634
 31
0.0
  0
LINE
  5
97
100
AcDbEntity
100
AcDbLine
  8
Bottom
 62
256
370
-1
  6
ByLayer
 10
53.3412807030547924
 20
56.2347071453552445
 30
0.0
 11
55.1881894770133954
 21
61.3090472975991503
 31
0.0
  0
LINE
  5
98
100
AcDbEntity
100
AcDbLine
  8
Bottom
 62
256
370
-1
  6
ByLayer
 10
47.2629897371474641
 20
57.8085174686691374
 30
0.0
 11
52.5722530445878391
 21
55.8761036588790958
 31
0.0
  0
LINE
  5
99
100
AcDbEntity
100
AcDbLine
  8
Bottom
 62
256
370
-1
  6
ByLayer
 10
37.7652088878004406
 20
31.7135790501596162
 30
0.0
 11
47.2629897371474641
 21
57.8085174686691374
 31
0.0
  0
ARC
  5
9A
100
AcDbEntity
  8
Bottom
 62
256
370
-1
  6
ByLayer
100
AcDbCircle
 10
30.1453992277135328
 20
12.5326067086265525
 30
0.0
 40
0.599999999999996
100
AcDbArc
 50
250.0000000000001137
 51
340.0000000000002842
  0
ARC
  5
9B
100
AcDbEntity
  8
Bottom
 62
256
370
-1
  6
ByLayer
100
AcDbCircle
 10
22.6278582614262618
 20
15.2687678552319213
 30
0.0
 40
0.5999999999999983
100
AcDbArc
 50
159.9999999999998863
 51
250.0000000000001705
  0
ARC
  5
9C
100
AcDbEntity
  8
Bottom
 62
256
370
-1
  6
ByLayer
100
AcDbCircle
 10
33.513766404472122
 20
63.4513321695268502
 30
0.0
 40
0.5999999999999975
100
AcDbArc
 50
160.0000000000001137
 51
250.0000000000001137
  0
ARC
  5
9D
100
AcDbEntity
  8
Bottom
 62
256
370
-1
  6
ByLayer
100
AcDbCircle
 10
28.827740807905414
 20
63.8798926767155422
 30
0.0
 40
0.600000000000012
100
AcDbArc
 50
340.0000000000014779
 51
69.9999999999995879
  0
ARC
  5
9E
100
AcDbEntity
  8
Bottom
 62
256
370
-1
  6
ByLayer
100
AcDbCircle
 10
27.8700844065935698
 20
61.2487533385149874
 30
0.0
 40
0.5999999999999749
100
AcDbArc
 50
249.99999999999838
 51
340.0000000000022737
  0
ARC
  5
9F
100
AcDbEntity
  8
Bottom
 62
256
370
-1
  6
ByLayer
100
AcDbCircle
 10
26.434290023313519
 20
59.6429842116037037
 30
0.0
 40
0.5999999999999921
100
AcDbArc
 50
249.9999999999991189
 51
340.0000000000009095
  0
ARC
  5
A0
100
AcDbEntity
  8
Bottom
 62
256
370
-1
  6
ByLayer
100
AcDbCircle
 10
21.9237654435411429
 20
61.2846808995669221
 30
0.0
 40
0.5999999999999996
100
AcDbArc
 50
160.0000000000001137
 51
249.9999999999993179
  0
ARC
  5
A1
100
AcDbEntity
  8
Bottom
 62
256
370
-1
  6
ByLayer
100
AcDbCircle
 10
21.8560516335637516
 20
63.4376822557992881
 30
0.0
 40
0.5999999999999986
100
AcDbArc
 50
160.0000000000001137
 51
249.9999999999993179
  0
ARC
  5
A2
100
AcDbEntity
  8
Bottom
 62
256
370
-1
  6
ByLayer
100
AcDbCircle
 10
22.8137080348756314
 20
66.0688215939998287
 30
0.0
 40
0.6000000000000139
100
AcDbArc
 50
70.0000000000007105
 51
159.9999999999988063
  0
ARC
  5
A3
100
AcDbEntity
  8
Bottom
 62
256
370
-1
  6
ByLayer
100
AcDbCircle
 10
11.9447387460051537
 20
13.3635790501596254
 30
0.0
 40
0.5999999999999984
100
AcDbArc
 50
180.0
 51
270.0000000000007958
  0
ARC
  5
A4
100
AcDbEntity
  8
Bottom
 62
256
370
-1
  6
ByLayer
100
AcDbCircle
 10
11.9447387460051502
 20
16.1635790501596404
 30
0.0
 40
0.6000000000000006
100
AcDbArc
 50
90.0000000000017053
 51
180.0
  0
ARC
  5
A5
100
AcDbEntity
  8
Bottom
 62
256
370
-1
  6
ByLayer
100
AcDbCircle
 10
12.7447387460051758
 20
18.1635790501596333
 30
0.0
 40
0.6000000000000028
100
AcDbArc
 50
90.0
 51
180.0
  0
ARC
  5
A6
100
AcDbEntity
  8
Bottom
 62
256
370
-1
  6
ByLayer
100
AcDbCircle
 10
17.5447387460051729
 20
18.1635790501596013
 30
0.0
 40
0.6000000000000028
100
AcDbArc
 50
0.0
 51
89.9999999999991616
  0
ARC
  5
A7
100
AcDbEntity
  8
Bottom
 62
256
370
-1
  6
ByLayer
100
AcDbCircle
 10
18.3447387460051701
 20
16.1635790501596404
 30
0.0
 40
0.5999999999999939
100
AcDbArc
 50
0.0
 51
90.0
  0
ARC
  5
A8
100
AcDbEntity
  8
Bottom
 62
256
370
-1
  6
ByLayer
100
AcDbCircle
 10
18.3447387460051559
 20
13.3635790501596254
 30
0.0
 40
0.5999999999999984
100
AcDbArc
 50
269.9999999999992042
 51
0.0
  0
ARC
  5
A9
100
AcDbEntity
  8
Bottom
 62
256
370
-1
  6
ByLayer
100
AcDbCircle
 10
43.9447387460051715
 20
13.3635790501596254
 30
0.0
 40
0.5999999999999984
100
AcDbArc
 50
180.0
 51
270.0000000000017053
  0
ARC
  5
AA
100
AcDbEntity
  8
Bottom
 62
256
370
-1
  6
ByLayer
100
AcDbCircle
 10
43.9447387460051715
 20
16.1635790501596084
 30
0.0
 40
0.6000000000000006
100
AcDbArc
 50
90.0000000000017053
 51
180.0
  0
ARC
  5
AB
100
AcDbEntity
  8
Bottom
 62
256
370
-1
  6
ByLayer
100
AcDbCircle
 10
44.7447387460051687
 20
18.1635790501596333
 30
0.0
 40
0.6000000000000028
100
AcDbArc
 50
90.0
 51
180.0
  0
ARC
  5
AC
100
AcDbEntity
  8
Bottom
 62
256
370
-1
  6
ByLayer
100
AcDbCircle
 10
49.5447387460051729
 20
18.1635790501596013
 30
0.0
 40
0.6000000000000028
100
AcDbArc
 50
0.0
 51
89.9999999999983089
  0
ARC
  5
AD
100
AcDbEntity
  8
Bottom
 62
256
370
-1
  6
ByLayer
100
AcDbCircle
 10
50.3447387460051559
 20
16.1635790501596333
 30
0.0
 40
0.5999999999999939
100
AcDbArc
 50
0.0
 51
90.0
  0
ARC
  5
AE
100
AcDbEntity
  8
Bottom
 62
256
370
-1
  6
ByLayer
100
AcDbCircle
 10
50.344738746005163
 20
13.3635790501596183
 30
0.0
 40
0.5999999999999984
100
AcDbArc
 50
269.9999999999982947
 51
0.0
  0
ARC
  5
AF
100
AcDbEntity
  8
Bottom
 62
256
370
-1
  6
ByLayer
100
AcDbCircle
 10
62.6566751561981619
 20
51.5671675169914892
 30
0.0
 40
0.5999999999999881
100
AcDbArc
 50
339.9999999999998863
 51
70.0000000000014353
  0
ARC
  5
B0
100
AcDbEntity
  8
Bottom
 62
256
370
-1
  6
ByLayer
100
AcDbCircle
 10
61.6990187548862536
 20
48.9360281787909273
 30
0.0
 40
0.5999999999999842
100
AcDbArc
 50
249.9999999999978968
 51
340.0000000000001137
  0
ARC
  5
B1
100
AcDbEntity
  8
Bottom
 62
256
370
-1
  6
ByLayer
100
AcDbCircle
 10
60.2632243716061566
 20
47.3302590518796578
 30
0.0
 40
0.6000000000000063
100
AcDbArc
 50
250.0000000000003695
 51
339.9999999999996021
  0
ARC
  5
B2
100
AcDbEntity
  8
Bottom
 62
256
370
-1
  6
ByLayer
100
AcDbCircle
 10
55.7526997918338623
 20
48.971955739842862
 30
0.0
 40
0.5999999999999976
100
AcDbArc
 50
160.0000000000011937
 51
250.0000000000003695
  0
ARC
  5
B3
100
AcDbEntity
  8
Bottom
 62
256
370
-1
  6
ByLayer
100
AcDbCircle
 10
55.6849859818564568
 20
51.1249570960752138
 30
0.0
 40
0.5999999999999954
100
AcDbArc
 50
159.9999999999990052
 51
250.0000000000001137
  0
ARC
  5
B4
100
AcDbEntity
  8
Bottom
 62
256
370
-1
  6
ByLayer
100
AcDbCircle
 10
56.6426423831683508
 20
53.756096434275733
 30
0.0
 40
0.6000000000000253
100
AcDbArc
 50
70.0000000000028848
 51
159.9999999999994031
  0
ARC
  5
B5
100
AcDbEntity
  8
Bottom
 62
256
370
-1
  6
ByLayer
100
AcDbCircle
 10
52.7774651305832379
 20
56.4399192313506575
 30
0.0
 40
0.6000000000000131
100
AcDbArc
 50
250.000000000000739
 51
339.99999999999892
  0
ARC
  5
B6
100
AcDbEntity
  8
Bottom
 62
256
370
-1
  6
ByLayer
100
AcDbCircle
 10
96.1447387460045633
 20
15.5122333241037005
 30
0.0
 40
89.9999999999993463
100
AcDbArc
 50
159.9999999999998863
 51
180.0
  0
ARC
  5
B7
100
AcDbEntity
  8
Bottom
 62
256
370
-1
  6
ByLayer
100
AcDbCircle
 10
146.1447387460048049
 20
6.6958842886802827
 30
0.0
 40
89.9999999999996447
100
AcDbArc
 50
159.9999999999998863
 51
180.0
  0
LINE
  5
B8
100
AcDbEntity
100
AcDbLine
  8
Bottom
 62
256
370
-1
  6
ByLayer
 10
59.087913853274955
 20
59.889663702797634
 30
0.0
 11
64.7260695779903585
 21
57.8375428428436322
 31
0.0
  0
LINE
  5
B9
100
AcDbEntity
100
AcDbLine
  8
Bottom
 62
256
370
-1
  6
ByLayer
 10
62.6739487180363568
 20
52.1993871181281506
 30
0.0
 11
57.0357929933209533
 21
54.2515079780821665
 31
0.0
  0
LINE
  5
BA
100
AcDbEntity
100
AcDbLine
  8
Bottom
 62
256
370
-1
  6
ByLayer
 10
23.2068586450281984
 20
66.5642331378062408
 30
0.0
 11
28.8450143697436374
 21
64.5121122778522249
 31
0.0
  0
LINE
  5
BB
100
AcDbEntity
100
AcDbLine
  8
Bottom
 62
256
370
-1
  6
ByLayer
 10
25.2589795049822143
 20
72.2023888625217154
 30
0.0
 11
30.8971352296976711
 21
70.1502680025677137
 31
0.0
  0
LINE
  5
BC
100
AcDbEntity
100
AcDbLine
  8
Bottom
 62
256
370
-1
  6
ByLayer
 10
18.1447387460051566
 20
12.7635790501596276
 30
0.0
 11
12.1447387460051672
 21
12.7635790501596347
 31
0.0
  0
LINE
  5
BD
100
AcDbEntity
100
AcDbLine
  8
Bottom
 62
256
370
-1
  6
ByLayer
 10
18.144738746005153
 20
4.7635790501596205
 30
0.0
 11
12.1447387460051761
 21
4.7635790501596205
 31
0.0
  0
LINE
  5
BE
100
AcDbEntity
100
AcDbLine
  8
Bottom
 62
256
370
-1
  6
ByLayer
 10
50.144738746005153
 20
4.7635790501595991
 30
0.0
 11
44.1447387460051957
 21
4.7635790501596205
 31
0.0
  0
LINE
  5
BF
100
AcDbEntity
100
AcDbLine
  8
Bottom
 62
256
370
-1
  6
ByLayer
 10
50.1447387460051601
 20
12.7635790501596205
 30
0.0
 11
44.1447387460051885
 21
12.7635790501596276
 31
0.0
  0
MTEXT
  5
C0
100
AcDbEntity
100
AcDbMText
  8
Bottom Text
 62
256
370
-1
  6
ByLayer
 10
10.4435904553133536
 20
29.4478131306665603
 30
0.0
 40
3.0
 41
100.0
 71
1
 72
2
  1
Main\~Plate\~A\P
  7
standard
 50
60.0
 73
1
 44
1.0
  0
CIRCLE
  5
C1
100
AcDbEntity
100
AcDbCircle
  8
Top
 62
256
370
-1
  6
ByLayer
 10
84.7312426244993304
 20
55.9590655601125064
 30
0.0
 40
1.425
  0
CIRCLE
  5
C2
100
AcDbEntity
100
AcDbCircle
  8
Top
 62
256
370
-1
  6
ByLayer
 10
112.9220212480765611
 20
45.6984612603424196
 30
0.0
 40
1.425
  0
CIRCLE
  5
C3
100
AcDbEntity
100
AcDbCircle
  8
Top
 62
256
370
-1
  6
ByLayer
 10
82.1091482906918912
 20
11.6677659194930712
 30
0.0
 40
1.425
  0
CIRCLE
  5
C4
100
AcDbEntity
100
AcDbCircle
  8
Top
 62
256
370
-1
  6
ByLayer
 10
98.1091482906917776
 20
11.6677659194930534
 30
0.0
 40
1.425
  0
CIRCLE
  5
C5
100
AcDbEntity
100
AcDbCircle
  8
Top
 62
256
370
-1
  6
ByLayer
 10
82.1091482906918628
 20
33.6677659194930641
 30
0.0
 40
1.425
  0
LINE
  5
C6
100
AcDbEntity
100
AcDbLine
  8
Top
 62
256
370
-1
  6
ByLayer
 10
100.1813914771254019
 20
23.817765919493052
 30
0.0
 11
101.6536346635589325
 21
21.2677659194930762
 31
0.0
  0
LINE
  5
C7
100
AcDbEntity
100
AcDbLine
  8
Top
 62
256
370
-1
  6
ByLayer
 10
101.6536346635589325
 20
21.2677659194930762
 30
0.0
 11
100.1813914771254019
 21
18.717765919493079
 31
0.0
  0
LINE
  5
C8
100
AcDbEntity
100
AcDbLine
  8
Top
 62
256
370
-1
  6
ByLayer
 10
100.1813914771254019
 20
18.717765919493079
 30
0.0
 11
97.2369051042582839
 21
18.717765919493047
 31
0.0
  0
LINE
  5
C9
100
AcDbEntity
100
AcDbLine
  8
Top
 62
256
370
-1
  6
ByLayer
 10
97.2369051042582839
 20
18.717765919493047
 30
0.0
 11
95.7646619178247249
 21
21.2677659194930513
 31
0.0
  0
LINE
  5
CA
100
AcDbEntity
100
AcDbLine
  8
Top
 62
256
370
-1
  6
ByLayer
 10
95.7646619178247249
 20
21.2677659194930513
 30
0.0
 11
97.2369051042582839
 21
23.8177659194930662
 31
0.0
  0
LINE
  5
CB
100
AcDbEntity
100
AcDbLine
  8
Top
 62
256
370
-1
  6
ByLayer
 10
97.2369051042582839
 20
23.8177659194930662
 30
0.0
 11
100.1813914771254019
 21
23.817765919493052
 31
0.0
  0
LINE
  5
CC
100
AcDbEntity
100
AcDbLine
  8
Top
 62
256
370
-1
  6
ByLayer
 10
108.1813914771253735
 20
31.6177659194930705
 30
0.0
 11
109.6536346635589041
 21
29.0677659194930591
 31
0.0
  0
LINE
  5
CD
100
AcDbEntity
100
AcDbLine
  8
Top
 62
256
370
-1
  6
ByLayer
 10
109.6536346635589041
 20
29.0677659194930591
 30
0.0
 11
108.1813914771253735
 21
26.5177659194931827
 31
0.0
  0
LINE
  5
CE
100
AcDbEntity
100
AcDbLine
  8
Top
 62
256
370
-1
  6
ByLayer
 10
108.1813914771253735
 20
26.5177659194931827
 30
0.0
 11
105.2369051042582555
 21
26.5177659194932076
 31
0.0
  0
LINE
  5
CF
100
AcDbEntity
100
AcDbLine
  8
Top
 62
256
370
-1
  6
ByLayer
 10
105.2369051042582555
 20
26.5177659194932076
 30
0.0
 11
103.7646619178247533
 21
29.0677659194930769
 31
0.0
  0
LINE
  5
D0
100
AcDbEntity
100
AcDbLine
  8
Top
 62
256
370
-1
  6
ByLayer
 10
103.7646619178247533
 20
29.0677659194930769
 30
0.0
 11
105.2369051042582839
 21
31.6177659194930527
 31
0.0
  0
LINE
  5
D1
100
AcDbEntity
100
AcDbLine
  8
Top
 62
256
370
-1
  6
ByLayer
 10
105.2369051042582839
 20
31.6177659194930527
 30
0.0
 11
108.1813914771253735
 21
31.6177659194930705
 31
0.0
  0
LINE
  5
D2
100
AcDbEntity
100
AcDbLine
  8
Top
 62
256
370
-1
  6
ByLayer
 10
108.1813914771254019
 20
23.8177659194930627
 30
0.0
 11
109.6536346635588899
 21
21.2677659194930584
 31
0.0
  0
LINE
  5
D3
100
AcDbEntity
100
AcDbLine
  8
Top
 62
256
370
-1
  6
ByLayer
 10
109.6536346635588899
 20
21.2677659194930584
 30
0.0
 11
108.1813914771253735
 21
18.7177659194930541
 31
0.0
  0
LINE
  5
D4
100
AcDbEntity
100
AcDbLine
  8
Top
 62
256
370
-1
  6
ByLayer
 10
108.1813914771253735
 20
18.7177659194930541
 30
0.0
 11
105.2369051042582839
 21
18.7177659194930719
 31
0.0
  0
LINE
  5
D5
100
AcDbEntity
100
AcDbLine
  8
Top
 62
256
370
-1
  6
ByLayer
 10
105.2369051042582839
 20
18.7177659194930719
 30
0.0
 11
103.7646619178247249
 21
21.2677659194930442
 31
0.0
  0
LINE
  5
D6
100
AcDbEntity
100
AcDbLine
  8
Top
 62
256
370
-1
  6
ByLayer
 10
103.7646619178247249
 20
21.2677659194930442
 30
0.0
 11
105.2369051042583123
 21
23.8177659194930698
 31
0.0
  0
LINE
  5
D7
100
AcDbEntity
100
AcDbLine
  8
Top
 62
256
370
-1
  6
ByLayer
 10
105.2369051042583123
 20
23.8177659194930698
 30
0.0
 11
108.1813914771254019
 21
23.8177659194930627
 31
0.0
  0
LINE
  5
D8
100
AcDbEntity
100
AcDbLine
  8
Top
 62
256
370
-1
  6
ByLayer
 10
96.7296184324871433
 20
31.6177659194930847
 30
0.0
 11
100.1813914771253735
 21
31.6177659194930882
 31
0.0
  0
LINE
  5
D9
100
AcDbEntity
100
AcDbLine
  8
Top
 62
256
370
-1
  6
ByLayer
 10
100.1813914771253735
 20
31.6177659194930882
 30
0.0
 11
101.6536346635589325
 21
29.0677659194930662
 31
0.0
  0
LINE
  5
DA
100
AcDbEntity
100
AcDbLine
  8
Top
 62
256
370
-1
  6
ByLayer
 10
101.6536346635589325
 20
29.0677659194930662
 30
0.0
 11
100.1813914771253735
 21
26.5177659194930939
 31
0.0
  0
LINE
  5
DB
100
AcDbEntity
100
AcDbLine
  8
Top
 62
256
370
-1
  6
ByLayer
 10
100.1813914771253735
 20
26.5177659194930939
 30
0.0
 11
97.2369051042582555
 21
26.5177659194931508
 31
0.0
  0
LINE
  5
DC
100
AcDbEntity
100
AcDbLine
  8
Top
 62
256
370
-1
  6
ByLayer
 10
97.2369051042582555
 20
26.5177659194931508
 30
0.0
 11
95.7872527420503843
 21
29.0286374641493836
 31
0.0
  0
LINE
  5
DD
100
AcDbEntity
100
AcDbLine
  8
Top
 62
256
370
-1
  6
ByLayer
 10
89.6736243448717545
 20
12.231581491964608
 30
0.0
 11
95.7872527420503843
 21
29.0286374641493836
 31
0.0
  0
LINE
  5
DE
100
AcDbEntity
100
AcDbLine
  8
Top
 62
256
370
-1
  6
ByLayer
 10
81.3870557201175444
 20
14.609139152093821
 30
0.0
 11
88.9045966864048296
 21
11.8729780054884628
 31
0.0
  0
LINE
  5
DF
100
AcDbEntity
100
AcDbLine
  8
Top
 62
256
370
-1
  6
ByLayer
 10
97.5822271706037725
 20
60.8592896565987616
 30
0.0
 11
81.0284522336414312
 21
15.378166810560792
 31
0.0
  0
LINE
  5
E0
100
AcDbEntity
100
AcDbLine
  8
Top
 62
256
370
-1
  6
ByLayer
 10
92.2729638631634259
 20
62.7917034663887677
 30
0.0
 11
97.5822271706037725
 21
60.8592896565987616
 31
0.0
  0
LINE
  5
E1
100
AcDbEntity
100
AcDbLine
  8
Top
 62
256
370
-1
  6
ByLayer
 10
93.7612691506458873
 20
68.6350712770996125
 30
0.0
 11
91.9143603766872559
 21
63.5607311248557068
 31
0.0
  0
LINE
  5
E2
100
AcDbEntity
100
AcDbLine
  8
Top
 62
256
370
-1
  6
ByLayer
 10
89.8615447743843561
 20
70.0544548719011715
 30
0.0
 11
93.7612691506458873
 21
68.6350712770996125
 31
0.0
  0
LINE
  5
E3
100
AcDbEntity
100
AcDbLine
  8
Top
 62
256
370
-1
  6
ByLayer
 10
87.8094239144303259
 20
64.4162991471856685
 30
0.0
 11
89.8615447743843561
 21
70.0544548719011715
 31
0.0
  0
LINE
  5
E4
100
AcDbEntity
100
AcDbLine
  8
Top
 62
256
370
-1
  6
ByLayer
 10
87.9973624385875013
 20
64.3478951185205545
 30
0.0
 11
87.8094239144303259
 21
64.4162991471856685
 31
0.0
  0
LINE
  5
E5
100
AcDbEntity
100
AcDbLine
  8
Top
 62
256
370
-1
  6
ByLayer
 10
87.3983095237517773
 20
60.9477281218530749
 30
0.0
 11
88.3559659250636571
 21
63.5788674600536154
 31
0.0
  0
LINE
  5
E6
100
AcDbEntity
100
AcDbLine
  8
Top
 62
256
370
-1
  6
ByLayer
 10
86.4413433411276628
 20
60.6575286640420615
 30
0.0
 11
86.6292818652848524
 21
60.5891246353769191
 31
0.0
  0
LINE
  5
E7
100
AcDbEntity
100
AcDbLine
  8
Top
 62
256
370
-1
  6
ByLayer
 10
85.9625151404717087
 20
59.341958994941777
 30
0.0
 11
86.4413433411276628
 21
60.6575286640420615
 31
0.0
  0
LINE
  5
E8
100
AcDbEntity
100
AcDbLine
  8
Top
 62
256
370
-1
  6
ByLayer
 10
80.6829629022324326
 20
60.6250521964288538
 30
0.0
 11
85.1934874820047696
 21
58.9833555084656496
 31
0.0
  0
LINE
  5
E9
100
AcDbEntity
100
AcDbLine
  8
Top
 62
256
370
-1
  6
ByLayer
 10
80.8031876164122167
 20
62.7096495239960774
 30
0.0
 11
80.324359415756291
 21
61.3940798548957929
 31
0.0
  0
LINE
  5
EA
100
AcDbEntity
100
AcDbLine
  8
Top
 62
256
370
-1
  6
ByLayer
 10
80.6152490922550271
 20
62.7780535526612056
 30
0.0
 11
80.8031876164122167
 21
62.7096495239960774
 31
0.0
  0
LINE
  5
EB
100
AcDbEntity
100
AcDbLine
  8
Top
 62
256
370
-1
  6
ByLayer
 10
81.2143020070907653
 20
66.1782205493286995
 30
0.0
 11
80.2566456057788855
 21
63.5470812111281447
 31
0.0
  0
LINE
  5
EC
100
AcDbEntity
100
AcDbLine
  8
Top
 62
256
370
-1
  6
ByLayer
 10
82.1712681897148798
 20
66.4684200071396987
 30
0.0
 11
81.9833296655577044
 21
66.5368240358048411
 31
0.0
  0
LINE
  5
ED
100
AcDbEntity
100
AcDbLine
  8
Top
 62
256
370
-1
  6
ByLayer
 10
84.2233890496688957
 20
72.1065757318551732
 30
0.0
 11
82.1712681897148798
 21
66.4684200071396987
 31
0.0
  0
LINE
  5
EE
100
AcDbEntity
100
AcDbLine
  8
Top
 62
256
370
-1
  6
ByLayer
 10
80.4646185665252744
 20
73.4746563051578221
 30
0.0
 11
84.2233890496688957
 21
72.1065757318551732
 31
0.0
  0
LINE
  5
EF
100
AcDbEntity
100
AcDbLine
  8
Top
 62
256
370
-1
  6
ByLayer
 10
70.5368124199601141
 20
46.1982330927472162
 30
0.0
 11
80.4646185665252744
 21
73.4746563051578221
 31
0.0
  0
LINE
  5
F0
100
AcDbEntity
100
AcDbLine
  8
Top
 62
256
370
-1
  6
ByLayer
 10
65.1091482906918628
 20
4.6677659194930925
 30
0.0
 11
65.1091482906918486
 21
15.4164201934370269
 31
0.0
  0
LINE
  5
F1
100
AcDbEntity
100
AcDbLine
  8
Top
 62
256
370
-1
  6
ByLayer
 10
71.1091482906918486
 20
4.6677659194930818
 30
0.0
 11
65.1091482906918628
 21
4.6677659194930925
 31
0.0
  0
LINE
  5
F2
100
AcDbEntity
100
AcDbLine
  8
Top
 62
256
370
-1
  6
ByLayer
 10
71.1091482906918486
 20
12.6677659194930925
 30
0.0
 11
71.1091482906918486
 21
4.6677659194930818
 31
0.0
  0
LINE
  5
F3
100
AcDbEntity
100
AcDbLine
  8
Top
 62
256
370
-1
  6
ByLayer
 10
70.9091482906918316
 20
12.6677659194930925
 30
0.0
 11
71.1091482906918486
 21
12.6677659194930925
 31
0.0
  0
LINE
  5
F4
100
AcDbEntity
100
AcDbLine
  8
Top
 62
256
370
-1
  6
ByLayer
 10
70.309148290691823
 20
16.0677659194930946
 30
0.0
 11
70.3091482906917946
 21
13.2677659194930904
 31
0.0
  0
LINE
  5
F5
100
AcDbEntity
100
AcDbLine
  8
Top
 62
256
370
-1
  6
ByLayer
 10
71.1091482906918628
 20
16.6677659194930996
 30
0.0
 11
70.9091482906918458
 21
16.6677659194931174
 31
0.0
  0
LINE
  5
F6
100
AcDbEntity
100
AcDbLine
  8
Top
 62
256
370
-1
  6
ByLayer
 10
71.1091482906918486
 20
18.0677659194930804
 30
0.0
 11
71.1091482906918628
 21
16.6677659194930996
 31
0.0
  0
LINE
  5
F7
100
AcDbEntity
100
AcDbLine
  8
Top
 62
256
370
-1
  6
ByLayer
 10
76.5091482906918401
 20
18.6677659194930712
 30
0.0
 11
71.7091482906918287
 21
18.6677659194930889
 31
0.0
  0
LINE
  5
F8
100
AcDbEntity
100
AcDbLine
  8
Top
 62
256
370
-1
  6
ByLayer
 10
77.1091482906918202
 20
16.6677659194930996
 30
0.0
 11
77.109148290691877
 21
18.0677659194930555
 31
0.0
  0
LINE
  5
F9
100
AcDbEntity
100
AcDbLine
  8
Top
 62
256
370
-1
  6
ByLayer
 10
77.3091482906918657
 20
16.6677659194931067
 30
0.0
 11
77.1091482906918202
 21
16.6677659194930996
 31
0.0
  0
LINE
  5
FA
100
AcDbEntity
100
AcDbLine
  8
Top
 62
256
370
-1
  6
ByLayer
 10
77.9091482906918742
 20
13.2677659194930726
 30
0.0
 11
77.9091482906918742
 21
16.0677659194930804
 31
0.0
  0
LINE
  5
FB
100
AcDbEntity
100
AcDbLine
  8
Top
 62
256
370
-1
  6
ByLayer
 10
77.1091482906918202
 20
12.6677659194930783
 30
0.0
 11
77.309148290691823
 21
12.6677659194930889
 31
0.0
  0
LINE
  5
FC
100
AcDbEntity
100
AcDbLine
  8
Top
 62
256
370
-1
  6
ByLayer
 10
77.1091482906918486
 20
4.6677659194930818
 30
0.0
 11
77.1091482906918202
 21
12.6677659194930783
 31
0.0
  0
LINE
  5
FD
100
AcDbEntity
100
AcDbLine
  8
Top
 62
256
370
-1
  6
ByLayer
 10
103.109148290691877
 20
4.6677659194930499
 30
0.0
 11
77.1091482906918486
 21
4.6677659194930818
 31
0.0
  0
LINE
  5
FE
100
AcDbEntity
100
AcDbLine
  8
Top
 62
256
370
-1
  6
ByLayer
 10
103.109148290691877
 20
12.6677659194930854
 30
0.0
 11
103.109148290691877
 21
4.6677659194930499
 31
0.0
  0
LINE
  5
FF
100
AcDbEntity
100
AcDbLine
  8
Top
 62
256
370
-1
  6
ByLayer
 10
102.9091482906918884
 20
12.6677659194930818
 30
0.0
 11
103.109148290691877
 21
12.6677659194930854
 31
0.0
  0
LINE
  5
100
100
AcDbEntity
100
AcDbLine
  8
Top
 62
256
370
-1
  6
ByLayer
 10
102.309148290691823
 20
16.0677659194930555
 30
0.0
 11
102.3091482906918372
 21
13.2677659194930762
 31
0.0
  0
LINE
  5
101
100
AcDbEntity
100
AcDbLine
  8
Top
 62
256
370
-1
  6
ByLayer
 10
103.1091482906918486
 20
16.6677659194930747
 30
0.0
 11
102.90914829069186
 21
16.6677659194930605
 31
0.0
  0
LINE
  5
102
100
AcDbEntity
100
AcDbLine
  8
Top
 62
256
370
-1
  6
ByLayer
 10
103.1091482906918628
 20
18.0677659194930413
 30
0.0
 11
103.1091482906918486
 21
16.6677659194930747
 31
0.0
  0
LINE
  5
103
100
AcDbEntity
100
AcDbLine
  8
Top
 62
256
370
-1
  6
ByLayer
 10
108.5091482906918259
 20
18.6677659194930143
 30
0.0
 11
103.7091482906918429
 21
18.6677659194930818
 31
0.0
  0
LINE
  5
104
100
AcDbEntity
100
AcDbLine
  8
Top
 62
256
370
-1
  6
ByLayer
 10
109.1091482906918202
 20
16.6677659194930712
 30
0.0
 11
109.1091482906918486
 21
18.0677659194930342
 31
0.0
  0
LINE
  5
105
100
AcDbEntity
100
AcDbLine
  8
Top
 62
256
370
-1
  6
ByLayer
 10
109.3091482906918515
 20
16.6677659194930499
 30
0.0
 11
109.1091482906918202
 21
16.6677659194930712
 31
0.0
  0
LINE
  5
106
100
AcDbEntity
100
AcDbLine
  8
Top
 62
256
370
-1
  6
ByLayer
 10
109.9091482906918316
 20
13.2677659194930762
 30
0.0
 11
109.90914829069186
 21
16.0677659194930875
 31
0.0
  0
LINE
  5
107
100
AcDbEntity
100
AcDbLine
  8
Top
 62
256
370
-1
  6
ByLayer
 10
109.109148290691877
 20
12.6677659194930712
 30
0.0
 11
109.3091482906918372
 21
12.6677659194930783
 31
0.0
  0
LINE
  5
108
100
AcDbEntity
100
AcDbLine
  8
Top
 62
256
370
-1
  6
ByLayer
 10
109.1091482906918202
 20
4.6677659194930428
 30
0.0
 11
109.109148290691877
 21
12.6677659194930712
 31
0.0
  0
LINE
  5
109
100
AcDbEntity
100
AcDbLine
  8
Top
 62
256
370
-1
  6
ByLayer
 10
115.1091482906917918
 20
4.6677659194929824
 30
0.0
 11
109.1091482906918202
 21
4.6677659194930428
 31
0.0
  0
LINE
  5
10A
100
AcDbEntity
100
AcDbLine
  8
Top
 62
256
370
-1
  6
ByLayer
 10
115.1091482906918202
 20
6.6000711580137832
 30
0.0
 11
115.1091482906917918
 21
4.6677659194929824
 31
0.0
  0
LINE
  5
10B
100
AcDbEntity
100
AcDbLine
  8
Top
 62
256
370
-1
  6
ByLayer
 10
127.4492496058206257
 20
56.3736491388743985
 30
0.0
 11
120.5368124199600288
 21
37.3818840573240223
 31
0.0
  0
LINE
  5
10C
100
AcDbEntity
100
AcDbLine
  8
Top
 62
256
370
-1
  6
ByLayer
 10
123.6904791226770328
 20
57.7417297121770403
 30
0.0
 11
127.4492496058206257
 21
56.3736491388743985
 31
0.0
  0
LINE
  5
10D
100
AcDbEntity
100
AcDbLine
  8
Top
 62
256
370
-1
  6
ByLayer
 10
121.6383582627230453
 20
52.1035739874616155
 30
0.0
 11
123.6904791226770328
 21
57.7417297121770403
 31
0.0
  0
LINE
  5
10E
100
AcDbEntity
100
AcDbLine
  8
Top
 62
256
370
-1
  6
ByLayer
 10
121.8262967868802491
 20
52.0351699587964589
 30
0.0
 11
121.6383582627230453
 21
52.1035739874616155
 31
0.0
  0
LINE
  5
10F
100
AcDbEntity
100
AcDbLine
  8
Top
 62
256
370
-1
  6
ByLayer
 10
121.2272438720444541
 20
48.6350029621289224
 30
0.0
 11
122.1849002733563339
 21
51.2661423003295269
 31
0.0
  0
LINE
  5
110
100
AcDbEntity
100
AcDbLine
  8
Top
 62
256
370
-1
  6
ByLayer
 10
120.2702776894203396
 20
48.34480350431798
 30
0.0
 11
120.4582162135775434
 21
48.2763994756528447
 31
0.0
  0
LINE
  5
111
100
AcDbEntity
100
AcDbLine
  8
Top
 62
256
370
-1
  6
ByLayer
 10
119.7914494887643286
 20
47.0292338352176813
 30
0.0
 11
120.2702776894203396
 21
48.34480350431798
 31
0.0
  0
LINE
  5
112
100
AcDbEntity
100
AcDbLine
  8
Top
 62
256
370
-1
  6
ByLayer
 10
114.511897250525152
 20
48.312327036704815
 30
0.0
 11
119.022421830297418
 21
46.6706303487415681
 31
0.0
  0
LINE
  5
113
100
AcDbEntity
100
AcDbLine
  8
Top
 62
256
370
-1
  6
ByLayer
 10
114.6321219647049077
 20
50.3969243642719746
 30
0.0
 11
114.1532937640489536
 21
49.0813546951716972
 31
0.0
  0
LINE
  5
114
100
AcDbEntity
100
AcDbLine
  8
Top
 62
256
370
-1
  6
ByLayer
 10
114.4441834405477323
 20
50.4653283929371241
 30
0.0
 11
114.6321219647049077
 21
50.3969243642719746
 31
0.0
  0
LINE
  5
115
100
AcDbEntity
100
AcDbLine
  8
Top
 62
256
370
-1
  6
ByLayer
 10
115.0432363553834705
 20
53.865495389604618
 30
0.0
 11
114.0855799540716191
 21
51.234356051404049
 31
0.0
  0
LINE
  5
116
100
AcDbEntity
100
AcDbLine
  8
Top
 62
256
370
-1
  6
ByLayer
 10
116.0002025380076418
 20
54.1556948474156314
 30
0.0
 11
115.8122640138503527
 21
54.2240988760807738
 31
0.0
  0
LINE
  5
117
100
AcDbEntity
100
AcDbLine
  8
Top
 62
256
370
-1
  6
ByLayer
 10
118.0523233979616293
 20
59.7938505721310776
 30
0.0
 11
116.0002025380076418
 21
54.1556948474156314
 31
0.0
  0
LINE
  5
118
100
AcDbEntity
100
AcDbLine
  8
Top
 62
256
370
-1
  6
ByLayer
 10
114.1525990217000697
 20
61.2132341669325939
 30
0.0
 11
118.0523233979616293
 21
59.7938505721310776
 31
0.0
  0
LINE
  5
119
100
AcDbEntity
100
AcDbLine
  8
Top
 62
256
370
-1
  6
ByLayer
 10
112.3056902477414667
 20
56.1388940146886881
 30
0.0
 11
114.1525990217000697
 21
61.2132341669325939
 31
0.0
  0
LINE
  5
11A
100
AcDbEntity
100
AcDbLine
  8
Top
 62
256
370
-1
  6
ByLayer
 10
106.2273992818341526
 20
57.7127043380025953
 30
0.0
 11
111.5366625892745276
 21
55.7802905282125465
 31
0.0
  0
LINE
  5
11B
100
AcDbEntity
100
AcDbLine
  8
Top
 62
256
370
-1
  6
ByLayer
 10
96.7296184324871433
 20
31.6177659194930847
 30
0.0
 11
106.2273992818341526
 21
57.7127043380025953
 31
0.0
  0
ARC
  5
11C
100
AcDbEntity
  8
Top
 62
256
370
-1
  6
ByLayer
100
AcDbCircle
 10
89.1098087724002141
 20
12.436793577960028
 30
0.0
 40
0.599999999999996
100
AcDbArc
 50
250.0000000000001137
 51
340.0000000000002842
  0
ARC
  5
11D
100
AcDbEntity
  8
Top
 62
256
370
-1
  6
ByLayer
100
AcDbCircle
 10
81.592267806112929
 20
15.1729547245653826
 30
0.0
 40
0.5999999999999983
100
AcDbArc
 50
159.9999999999998863
 51
250.0000000000001705
  0
ARC
  5
11E
100
AcDbEntity
  8
Top
 62
256
370
-1
  6
ByLayer
100
AcDbCircle
 10
92.4781759491588105
 20
63.355519038860308
 30
0.0
 40
0.5999999999999975
100
AcDbArc
 50
160.0000000000001137
 51
250.0000000000001137
  0
ARC
  5
11F
100
AcDbEntity
  8
Top
 62
256
370
-1
  6
ByLayer
100
AcDbCircle
 10
87.7921503525921025
 20
63.784079546049
 30
0.0
 40
0.600000000000012
100
AcDbArc
 50
340.0000000000014779
 51
69.9999999999995879
  0
ARC
  5
120
100
AcDbEntity
  8
Top
 62
256
370
-1
  6
ByLayer
100
AcDbCircle
 10
86.8344939512802512
 20
61.1529402078484452
 30
0.0
 40
0.5999999999999749
100
AcDbArc
 50
249.99999999999838
 51
340.0000000000022737
  0
ARC
  5
121
100
AcDbEntity
  8
Top
 62
256
370
-1
  6
ByLayer
100
AcDbCircle
 10
85.398699568000211
 20
59.5471710809371615
 30
0.0
 40
0.5999999999999921
100
AcDbArc
 50
249.9999999999991189
 51
340.0000000000009095
  0
ARC
  5
122
100
AcDbEntity
  8
Top
 62
256
370
-1
  6
ByLayer
100
AcDbCircle
 10
80.8881749882278314
 20
61.1888677689003799
 30
0.0
 40
0.5999999999999996
100
AcDbArc
 50
160.0000000000001137
 51
249.9999999999993179
  0
ARC
  5
123
100
AcDbEntity
  8
Top
 62
256
370
-1
  6
ByLayer
100
AcDbCircle
 10
80.8204611782504401
 20
63.3418691251327459
 30
0.0
 40
0.5999999999999986
100
AcDbArc
 50
160.0000000000001137
 51
249.9999999999993179
  0
ARC
  5
124
100
AcDbEntity
  8
Top
 62
256
370
-1
  6
ByLayer
100
AcDbCircle
 10
81.7781175795623199
 20
65.9730084633332723
 30
0.0
 40
0.6000000000000139
100
AcDbArc
 50
70.0000000000007105
 51
159.9999999999988063
  0
ARC
  5
125
100
AcDbEntity
  8
Top
 62
256
370
-1
  6
ByLayer
100
AcDbCircle
 10
70.9091482906918316
 20
13.2677659194930797
 30
0.0
 40
0.5999999999999984
100
AcDbArc
 50
180.0
 51
270.0000000000007958
  0
ARC
  5
126
100
AcDbEntity
  8
Top
 62
256
370
-1
  6
ByLayer
100
AcDbCircle
 10
70.90914829069186
 20
16.0677659194930911
 30
0.0
 40
0.6000000000000006
100
AcDbArc
 50
90.0000000000017053
 51
180.0
  0
ARC
  5
127
100
AcDbEntity
  8
Top
 62
256
370
-1
  6
ByLayer
100
AcDbCircle
 10
71.7091482906918856
 20
18.0677659194930946
 30
0.0
 40
0.6000000000000028
100
AcDbArc
 50
90.0
 51
180.0
  0
ARC
  5
128
100
AcDbEntity
  8
Top
 62
256
370
-1
  6
ByLayer
100
AcDbCircle
 10
76.5091482906918259
 20
18.067765919493052
 30
0.0
 40
0.6000000000000028
100
AcDbArc
 50
0.0
 51
89.9999999999991616
  0
ARC
  5
129
100
AcDbEntity
  8
Top
 62
256
370
-1
  6
ByLayer
100
AcDbCircle
 10
77.3091482906918372
 20
16.0677659194930982
 30
0.0
 40
0.5999999999999939
100
AcDbArc
 50
0.0
 51
90.0
  0
ARC
  5
12A
100
AcDbEntity
  8
Top
 62
256
370
-1
  6
ByLayer
100
AcDbCircle
 10
77.3091482906918799
 20
13.2677659194930868
 30
0.0
 40
0.5999999999999984
100
AcDbArc
 50
269.9999999999992042
 51
0.0
  0
ARC
  5
12B
100
AcDbEntity
  8
Top
 62
256
370
-1
  6
ByLayer
100
AcDbCircle
 10
102.90914829069186
 20
13.2677659194930868
 30
0.0
 40
0.5999999999999984
100
AcDbArc
 50
180.0
 51
270.0000000000017053
  0
ARC
  5
12C
100
AcDbEntity
  8
Top
 62
256
370
-1
  6
ByLayer
100
AcDbCircle
 10
102.9091482906918884
 20
16.0677659194930733
 30
0.0
 40
0.6000000000000006
100
AcDbArc
 50
90.0000000000017053
 51
180.0
  0
ARC
  5
12D
100
AcDbEntity
  8
Top
 62
256
370
-1
  6
ByLayer
100
AcDbCircle
 10
103.7091482906918571
 20
18.0677659194930804
 30
0.0
 40
0.6000000000000028
100
AcDbArc
 50
90.0
 51
180.0
  0
ARC
  5
12E
100
AcDbEntity
  8
Top
 62
256
370
-1
  6
ByLayer
100
AcDbCircle
 10
108.5091482906918543
 20
18.0677659194930555
 30
0.0
 40
0.6000000000000028
100
AcDbArc
 50
0.0
 51
89.9999999999983089
  0
ARC
  5
12F
100
AcDbEntity
  8
Top
 62
256
370
-1
  6
ByLayer
100
AcDbCircle
 10
109.3091482906918515
 20
16.0677659194930769
 30
0.0
 40
0.5999999999999939
100
AcDbArc
 50
0.0
 51
90.0
  0
ARC
  5
130
100
AcDbEntity
  8
Top
 62
256
370
-1
  6
ByLayer
100
AcDbCircle
 10
109.3091482906918088
 20
13.2677659194930442
 30
0.0
 40
0.5999999999999984
100
AcDbArc
 50
269.9999999999982947
 51
0.0
  0
ARC
  5
131
100
AcDbEntity
  8
Top
 62
256
370
-1
  6
ByLayer
100
AcDbCircle
 10
121.6210847008848361
 20
51.4713543863249328
 30
0.0
 40
0.5999999999999881
100
AcDbArc
 50
339.9999999999998863
 51
70.0000000000014353
  0
ARC
  5
132
100
AcDbEntity
  8
Top
 62
256
370
-1
  6
ByLayer
100
AcDbCircle
 10
120.6634282995729279
 20
48.8402150481243993
 30
0.0
 40
0.5999999999999842
100
AcDbArc
 50
249.9999999999978968
 51
340.0000000000001137
  0
ARC
  5
133
100
AcDbEntity
  8
Top
 62
256
370
-1
  6
ByLayer
100
AcDbCircle
 10
119.2276339162928309
 20
47.2344459212131014
 30
0.0
 40
0.6000000000000063
100
AcDbArc
 50
250.0000000000003695
 51
339.9999999999996021
  0
ARC
  5
134
100
AcDbEntity
  8
Top
 62
256
370
-1
  6
ByLayer
100
AcDbCircle
 10
114.7171093365205365
 20
48.8761426091763127
 30
0.0
 40
0.5999999999999976
100
AcDbArc
 50
160.0000000000011937
 51
250.0000000000003695
  0
ARC
  5
135
100
AcDbEntity
  8
Top
 62
256
370
-1
  6
ByLayer
100
AcDbCircle
 10
114.6493955265431453
 20
51.0291439654086645
 30
0.0
 40
0.5999999999999954
100
AcDbArc
 50
159.9999999999990052
 51
250.0000000000001137
  0
ARC
  5
136
100
AcDbEntity
  8
Top
 62
256
370
-1
  6
ByLayer
100
AcDbCircle
 10
115.6070519278550535
 20
53.6602833036091766
 30
0.0
 40
0.6000000000000253
100
AcDbArc
 50
70.0000000000028848
 51
159.9999999999994031
  0
ARC
  5
137
100
AcDbEntity
  8
Top
 62
256
370
-1
  6
ByLayer
100
AcDbCircle
 10
111.7418746752699121
 20
56.344106100684094
 30
0.0
 40
0.6000000000000131
100
AcDbArc
 50
250.000000000000739
 51
339.99999999999892
  0
ARC
  5
138
100
AcDbEntity
  8
Top
 62
256
370
-1
  6
ByLayer
100
AcDbCircle
 10
155.1091482906912518
 20
15.4164201934372223
 30
0.0
 40
89.9999999999993463
100
AcDbArc
 50
159.9999999999998863
 51
180.0
  0
ARC
  5
139
100
AcDbEntity
  8
Top
 62
256
370
-1
  6
ByLayer
100
AcDbCircle
 10
205.1091482906915076
 20
6.6000711580137441
 30
0.0
 40
89.9999999999996447
100
AcDbArc
 50
159.9999999999998863
 51
180.0
  0
LINE
  5
13A
100
AcDbEntity
100
AcDbLine
  8
Top
 62
256
370
-1
  6
ByLayer
 10
118.0523233979616293
 20
59.7938505721310776
 30
0.0
 11
123.6904791226770328
 21
57.7417297121770403
 31
0.0
  0
LINE
  5
13B
100
AcDbEntity
100
AcDbLine
  8
Top
 62
256
370
-1
  6
ByLayer
 10
84.2233890496688957
 20
72.1065757318551732
 30
0.0
 11
89.8615447743843561
 21
70.0544548719011715
 31
0.0
  0
LINE
  5
13C
100
AcDbEntity
100
AcDbLine
  8
Top
 62
256
370
-1
  6
ByLayer
 10
77.1091482906918486
 20
4.6677659194930818
 30
0.0
 11
71.1091482906918486
 21
4.6677659194930818
 31
0.0
  0
LINE
  5
13D
100
AcDbEntity
100
AcDbLine
  8
Top
 62
256
370
-1
  6
ByLayer
 10
109.1091482906918202
 20
4.6677659194930428
 30
0.0
 11
103.109148290691877
 21
4.6677659194930499
 31
0.0
  0
MTEXT
  5
13E
100
AcDbEntity
100
AcDbMText
  8
Top Text
 62
256
370
-1
  6
ByLayer
 10
69.4080000000000439
 20
29.3520000000000181
 30
0.0
 40
3.0
 41
100.0
 71
1
 72
2
  1
Main\~Plate\~B
  7
standard
 50
60.0
 73
1
 44
1.0
  0
ENDSEC
  0
SECTION
  2
OBJECTS
  0
DICTIONARY
  5
C
100
AcDbDictionary
280
0
281
1
  3
ACAD_GROUP
350
D
  3
ACAD_LAYOUT
350
1A
  3
ACAD_MLINESTYLE
350
17
  3
ACAD_PLOTSETTINGS
350
19
  3
ACAD_PLOTSTYLENAME
350
E
  3
AcDbVariableDictionary
350
13F
  0
DICTIONARY
  5
D
100
AcDbDictionary
280
0
281
1
  0
ACDBDICTIONARYWDFLT
  5
E
100
AcDbDictionary
281
1
  3
Normal
350
F
100
AcDbDictionaryWithDefault
340
F
  0
ACDBPLACEHOLDER
  5
F
  0
DICTIONARY
  5
17
100
AcDbDictionary
280
0
281
1
  3
Standard
350
18
  0
MLINESTYLE
  5
18
100
AcDbMlineStyle
  2
STANDARD
 70
0
  3

 62
256
 51
90.0
 52
90.0
 71
2
 49
0.5
 62
256
  6
BYLAYER
 49
-0.5
 62
256
  6
BYLAYER
  0
DICTIONARY
  5
19
100
AcDbDictionary
280
0
281
1
  0
DICTIONARY
  5
1A
100
AcDbDictionary
281
1
  3
Layout1
350
1E
  3
Layout2
350
26
  3
Model
350
22
  0
LAYOUT
  5
1E
100
AcDbPlotSettings
  1

  2
C:\Program Files\AutoCAD 2002\plotters\DWF ePlot (optimized for plotting).pc3
  4

  6

 40
0.0
 41
0.0
 42
0.0
 43
0.0
 44
0.0
 45
0.0
 46
0.0
 47
0.0
 48
0.0
 49
0.0
140
0.0
141
0.0
142
1.0
143
1.0
 70
688
 72
0
 73
0
 74
5
  7

 75
16
147
1.0
148
0.0
149
0.0
100
AcDbLayout
  1
Layout1
 70
1
 71
1
 10
0.0
 20
0.0
 11
420.0
 21
297.0
 12
0.0
 22
0.0
 32
0.0
 14
100000000000000000000.0
 24
100000000000000000000.0
 34
100000000000000000000.0
 15
-100000000000000000000.0
 25
-100000000000000000000.0
 35
-100000000000000000000.0
146
0.0
 13
0.0
 23
0.0
 33
0.0
 16
1.0
 26
0.0
 36
0.0
 17
0.0
 27
1.0
 37
0.0
 76
0
330
1B
  0
LAYOUT
  5
22
100
AcDbPlotSettings
  1

  2
C:\Program Files\AutoCAD 2002\plotters\DWF ePlot (optimized for plotting).pc3
  4

  6

 40
0.0
 41
0.0
 42
0.0
 43
0.0
 44
0.0
 45
0.0
 46
0.0
 47
0.0
 48
0.0
 49
0.0
140
0.0
141
0.0
142
1.0
143
1.0
 70
1712
 72
0
 73
0
 74
0
  7

 75
0
147
1.0
148
0.0
149
0.0
100
AcDbLayout
  1
Model
 70
1
 71
0
 10
0.0
 20
0.0
 11
12.0
 21
9.0
 12
0.0
 22
0.0
 32
0.0
 14
0.0
 24
0.0
 34
0.0
 15
0.0
 25
0.0
 35
0.0
146
0.0
 13
0.0
 23
0.0
 33
0.0
 16
1.0
 26
0.0
 36
0.0
 17
0.0
 27
1.0
 37
0.0
 76
0
330
1F
  0
LAYOUT
  5
26
100
AcDbPlotSettings
  1

  2
C:\Program Files\AutoCAD 2002\plotters\DWF ePlot (optimized for plotting).pc3
  4

  6

 40
0.0
 41
0.0
 42
0.0
 43
0.0
 44
0.0
 45
0.0
 46
0.0
 47
0.0
 48
0.0
 49
0.0
140
0.0
141
0.0
142
1.0
143
1.0
 70
688
 72
0
 73
0
 74
5
  7

 75
16
147
1.0
148
0.0
149
0.0
100
AcDbLayout
  1
Layout2
 70
1
 71
2
 10
0.0
 20
0.0
 11
12.0
 21
9.0
 12
0.0
 22
0.0
 32
0.0
 14
0.0
 24
0.0
 34
0.0
 15
0.0
 25
0.0
 35
0.0
146
0.0
 13
0.0
 23
0.0
 33
0.0
 16
1.0
 26
0.0
 36
0.0
 17
0.0
 27
1.0
 37
0.0
 76
0
330
23
  0
DICTIONARY
  5
13F
100
AcDbDictionary
281
1
  3
DIMASSOC
350
141
  3
HIDETEXT
350
140
  0
DICTIONARYVAR
  5
140
100
DictionaryVariables
280
0
  1
2
  0
DICTIONARYVAR
  5
141
100
DictionaryVariables
280
0
  1
1
  0
ENDSEC
  0
EOF
