999
dxflib 2.1.2.0
  0
SECTION
  2
HEADER
  9
$ACADVER
  1
AC1015
  9
$HANDSEED
  5
FFFF
  9
$DIMASZ
 40
2.5
  9
$PLIMMIN
 10
0.0
 20
0.0
  9
$DIMEXE
 40
1.25
  9
$DIMGAP
 40
0.625
  9
$PLIMMAX
 10
210.0
 20
297.0
  9
$INSUNITS
 70
4
  9
$DIMSTYLE
  2
Standard
  9
$CLAYER
  8
0
  9
$DIMEXO
 40
0.625
  9
$DIMTXT
 40
2.5
  9
$CLAYER
  8
0
  0
ENDSEC
  0
SECTION
  2
TABLES
  0
TABLE
  2
VPORT
  5
8
100
AcDbSymbolTable
 70
1
  0
VPORT
  5
30
100
AcDbSymbolTableRecord
100
AcDbViewportTableRecord
  2
*Active
 70
0
 10
0.0
 20
0.0
 11
1.0
 21
1.0
 12
286.3055555555554861
 22
148.5
 13
0.0
 23
0.0
 14
10.0
 24
10.0
 15
10.0
 25
10.0
 16
0.0
 26
0.0
 36
1.0
 17
0.0
 27
0.0
 37
0.0
 40
297.0
 41
1.92798353909465
 42
50.0
 43
0.0
 44
0.0
 50
0.0
 51
0.0
 71
0
 72
100
 73
1
 74
3
 75
1
 76
1
 77
0
 78
0
281
0
 65
1
110
0.0
120
0.0
130
0.0
111
1.0
121
0.0
131
0.0
112
0.0
122
1.0
132
0.0
 79
0
146
0.0
  0
ENDTAB
  0
TABLE
  2
LTYPE
  5
5
100
AcDbSymbolTable
 70
21
  0
LTYPE
  5
14
100
AcDbSymbolTableRecord
100
AcDbLinetypeTableRecord
  2
ByBlock
 70
0
  3

 72
65
 73
0
 40
0.0
  0
LTYPE
  5
15
100
AcDbSymbolTableRecord
100
AcDbLinetypeTableRecord
  2
ByLayer
 70
0
  3

 72
65
 73
0
 40
0.0
  0
LTYPE
  5
16
100
AcDbSymbolTableRecord
100
AcDbLinetypeTableRecord
  2
CONTINUOUS
 70
0
  3
Solid line
 72
65
 73
0
 40
0.0
  0
LTYPE
  5
31
100
AcDbSymbolTableRecord
100
AcDbLinetypeTableRecord
  2
DOT
 70
0
  3
Dot . . . . . . . . . . . . . . . . . . . . . .
 72
65
 73
2
 40
6.3499999999999996
 49
0.0
 74
0
 49
-6.3499999999999996
 74
0
  0
LTYPE
  5
32
100
AcDbSymbolTableRecord
100
AcDbLinetypeTableRecord
  2
DOT2
 70
0
  3
Dot (.5x) .....................................
 72
65
 73
2
 40
3.1749999999999998
 49
0.0
 74
0
 49
-3.1749999999999998
 74
0
  0
LTYPE
  5
33
100
AcDbSymbolTableRecord
100
AcDbLinetypeTableRecord
  2
DOTX2
 70
0
  3
Dot (2x) .  .  .  .  .  .  .  .  .  .  .  .  .
 72
65
 73
2
 40
12.6999999999999993
 49
0.0
 74
0
 49
-12.6999999999999993
 74
0
  0
LTYPE
  5
34
100
AcDbSymbolTableRecord
100
AcDbLinetypeTableRecord
  2
DASHED
 70
0
  3
Dashed __ __ __ __ __ __ __ __ __ __ __ __ __ _
 72
65
 73
2
 40
19.0500000000000007
 49
12.6999999999999993
 74
0
 49
-6.3499999999999996
 74
0
  0
LTYPE
  5
35
100
AcDbSymbolTableRecord
100
AcDbLinetypeTableRecord
  2
DASHED2
 70
0
  3
Dashed (.5x) _ _ _ _ _ _ _ _ _ _ _ _ _ _ _ _ _
 72
65
 73
2
 40
9.5250000000000004
 49
6.3499999999999996
 74
0
 49
-3.1749999999999998
 74
0
  0
LTYPE
  5
36
100
AcDbSymbolTableRecord
100
AcDbLinetypeTableRecord
  2
DASHEDX2
 70
0
  3
Dashed (2x) ____  ____  ____  ____  ____  ___
 72
65
 73
2
 40
38.1000000000000014
 49
25.3999999999999986
 74
0
 49
-12.6999999999999993
 74
0
  0
LTYPE
  5
37
100
AcDbSymbolTableRecord
100
AcDbLinetypeTableRecord
  2
DASHDOT
 70
0
  3
Dash dot __ . __ . __ . __ . __ . __ . __ . __
 72
65
 73
4
 40
25.3999999999999986
 49
12.6999999999999993
 74
0
 49
-6.3499999999999996
 74
0
 49
0.0
 74
0
 49
-6.3499999999999996
 74
0
  0
LTYPE
  5
38
100
AcDbSymbolTableRecord
100
AcDbLinetypeTableRecord
  2
DASHDOT2
 70
0
  3
Dash dot (.5x) _._._._._._._._._._._._._._._.
 72
65
 73
4
 40
12.6999999999999993
 49
6.3499999999999996
 74
0
 49
-3.1749999999999998
 74
0
 49
0.0
 74
0
 49
-3.1749999999999998
 74
0
  0
LTYPE
  5
39
100
AcDbSymbolTableRecord
100
AcDbLinetypeTableRecord
  2
DASHDOTX2
 70
0
  3
Dash dot (2x) ____  .  ____  .  ____  .  ___
 72
65
 73
4
 40
50.7999999999999972
 49
25.3999999999999986
 74
0
 49
-12.6999999999999993
 74
0
 49
0.0
 74
0
 49
-12.6999999999999993
 74
0
  0
LTYPE
  5
3A
100
AcDbSymbolTableRecord
100
AcDbLinetypeTableRecord
  2
DIVIDE
 70
0
  3
Divide ____ . . ____ . . ____ . . ____ . . ____
 72
65
 73
6
 40
31.75
 49
12.6999999999999993
 74
0
 49
-6.3499999999999996
 74
0
 49
0.0
 74
0
 49
-6.3499999999999996
 74
0
 49
0.0
 74
0
 49
-6.3499999999999996
 74
0
  0
LTYPE
  5
3B
100
AcDbSymbolTableRecord
100
AcDbLinetypeTableRecord
  2
DIVIDE2
 70
0
  3
Divide (.5x) __..__..__..__..__..__..__..__.._
 72
65
 73
6
 40
15.875
 49
6.3499999999999996
 74
0
 49
-3.1749999999999998
 74
0
 49
0.0
 74
0
 49
-3.1749999999999998
 74
0
 49
0.0
 74
0
 49
-3.1749999999999998
 74
0
  0
LTYPE
  5
3C
100
AcDbSymbolTableRecord
100
AcDbLinetypeTableRecord
  2
DIVIDEX2
 70
0
  3
Divide (2x) ________  .  .  ________  .  .  _
 72
65
 73
6
 40
63.5
 49
25.3999999999999986
 74
0
 49
-12.6999999999999993
 74
0
 49
0.0
 74
0
 49
-12.6999999999999993
 74
0
 49
0.0
 74
0
 49
-12.6999999999999993
 74
0
  0
LTYPE
  5
3D
100
AcDbSymbolTableRecord
100
AcDbLinetypeTableRecord
  2
CENTER
 70
0
  3
Center ____ _ ____ _ ____ _ ____ _ ____ _ ____
 72
65
 73
4
 40
50.7999999999999972
 49
31.75
 74
0
 49
-6.3499999999999996
 74
0
 49
6.3499999999999996
 74
0
 49
-6.3499999999999996
 74
0
  0
LTYPE
  5
3E
100
AcDbSymbolTableRecord
100
AcDbLinetypeTableRecord
  2
CENTER2
 70
0
  3
Center (.5x) ___ _ ___ _ ___ _ ___ _ ___ _ ___
 72
65
 73
4
 40
28.5749999999999993
 49
19.0500000000000007
 74
0
 49
-3.1749999999999998
 74
0
 49
3.1749999999999998
 74
0
 49
-3.1749999999999998
 74
0
  0
LTYPE
  5
3F
100
AcDbSymbolTableRecord
100
AcDbLinetypeTableRecord
  2
CENTERX2
 70
0
  3
Center (2x) ________  __  ________  __  _____
 72
65
 73
4
 40
101.5999999999999943
 49
63.5
 74
0
 49
-12.6999999999999993
 74
0
 49
12.6999999999999993
 74
0
 49
-12.6999999999999993
 74
0
  0
LTYPE
  5
40
100
AcDbSymbolTableRecord
100
AcDbLinetypeTableRecord
  2
BORDER
 70
0
  3
Border __ __ . __ __ . __ __ . __ __ . __ __ .
 72
65
 73
6
 40
44.4500000000000028
 49
12.6999999999999993
 74
0
 49
-6.3499999999999996
 74
0
 49
12.6999999999999993
 74
0
 49
-6.3499999999999996
 74
0
 49
0.0
 74
0
 49
-6.3499999999999996
 74
0
  0
LTYPE
  5
41
100
AcDbSymbolTableRecord
100
AcDbLinetypeTableRecord
  2
BORDER2
 70
0
  3
Border (.5x) __.__.__.__.__.__.__.__.__.__.__.
 72
65
 73
6
 40
22.2250000000000014
 49
6.3499999999999996
 74
0
 49
-3.1749999999999998
 74
0
 49
6.3499999999999996
 74
0
 49
-3.1749999999999998
 74
0
 49
0.0
 74
0
 49
-3.1749999999999998
 74
0
  0
LTYPE
  5
42
100
AcDbSymbolTableRecord
100
AcDbLinetypeTableRecord
  2
BORDERX2
 70
0
  3
Border (2x) ____  ____  .  ____  ____  .  ___
 72
65
 73
6
 40
88.9000000000000057
 49
25.3999999999999986
 74
0
 49
-12.6999999999999993
 74
0
 49
25.3999999999999986
 74
0
 49
-12.6999999999999993
 74
0
 49
0.0
 74
0
 49
-12.6999999999999993
 74
0
  0
ENDTAB
  0
TABLE
  2
LAYER
  5
2
100
AcDbSymbolTable
 70
7
  0
LAYER
  5
10
100
AcDbSymbolTableRecord
100
AcDbLayerTableRecord
  2
0
 70
0
 62
7
  6
CONTINUOUS
370
0
390
F
  0
LAYER
  5
43
100
AcDbSymbolTableRecord
100
AcDbLayerTableRecord
  2
Bottom
 70
0
 62
7
  6
CONTINUOUS
370
0
390
F
  0
LAYER
  5
44
100
AcDbSymbolTableRecord
100
AcDbLayerTableRecord
  2
Bottom Text
 70
0
 62
4
  6
CONTINUOUS
370
0
390
F
  0
LAYER
  5
45
100
AcDbSymbolTableRecord
100
AcDbLayerTableRecord
  2
Top
 70
0
 62
7
  6
CONTINUOUS
370
0
390
F
  0
LAYER
  5
46
100
AcDbSymbolTableRecord
100
AcDbLayerTableRecord
  2
Top Text
 70
0
 62
4
  6
CONTINUOUS
370
0
390
F
  0
LAYER
  5
47
100
AcDbSymbolTableRecord
100
AcDbLayerTableRecord
  2
Notes
 70
0
 62
7
  6
CONTINUOUS
370
0
390
F
  0
LAYER
  5
48
100
AcDbSymbolTableRecord
100
AcDbLayerTableRecord
  2
Text
 70
0
 62
4
  6
CONTINUOUS
370
0
390
F
  0
ENDTAB
  0
TABLE
  2
STYLE
  5
3
100
AcDbSymbolTable
 70
1
  0
STYLE
  5
11
100
AcDbSymbolTableRecord
100
AcDbTextStyleTableRecord
  2
Standard
 70
0
 40
0.0
 41
0.75
 50
0.0
 71
0
 42
2.5
  3
txt
  4

  0
ENDTAB
  0
TABLE
  2
VIEW
  5
6
100
AcDbSymbolTable
 70
0
  0
ENDTAB
  0
TABLE
  2
UCS
  5
7
100
AcDbSymbolTable
 70
0
  0
ENDTAB
  0
TABLE
  2
APPID
  5
9
100
AcDbSymbolTable
 70
1
  0
APPID
  5
12
100
AcDbSymbolTableRecord
100
AcDbRegAppTableRecord
  2
ACAD
 70
0
  0
ENDTAB
  0
TABLE
  2
DIMSTYLE
  5
A
100
AcDbSymbolTable
 70
1
100
AcDbDimStyleTable
 71
0
  0
DIMSTYLE
105
27
100
AcDbSymbolTableRecord
100
AcDbDimStyleTableRecord
  2
Standard
 41
2.5
 42
0.625
 43
3.75
 44
1.25
 70
0
 73
0
 74
0
 77
1
 78
8
140
2.5
141
2.5
143
0.03937007874016
147
0.625
171
3
172
1
271
2
272
2
274
3
278
44
283
0
284
8
340
11
  0
ENDTAB
  0
TABLE
  2
BLOCK_RECORD
  5
1
100
AcDbSymbolTable
 70
1
  0
BLOCK_RECORD
  5
1F
100
AcDbSymbolTableRecord
100
AcDbBlockTableRecord
  2
*Model_Space
340
22
  0
BLOCK_RECORD
  5
1B
100
AcDbSymbolTableRecord
100
AcDbBlockTableRecord
  2
*Paper_Space
340
1E
  0
BLOCK_RECORD
  5
23
100
AcDbSymbolTableRecord
100
AcDbBlockTableRecord
  2
*Paper_Space0
340
26
  0
ENDTAB
  0
ENDSEC
  0
SECTION
  2
BLOCKS
  0
BLOCK
  5
20
100
AcDbEntity
  8
0
100
AcDbBlockBegin
  2
*Model_Space
 70
0
 10
0.0
 20
0.0
 30
0.0
  3
*Model_Space
  1

  0
ENDBLK
  5
21
100
AcDbEntity
  8
0
100
AcDbBlockEnd
  0
BLOCK
  5
1C
100
AcDbEntity
 67
1
  8
0
100
AcDbBlockBegin
  2
*Paper_Space
 70
0
 10
0.0
 20
0.0
 30
0.0
  3
*Paper_Space
  1

  0
ENDBLK
  5
1D
100
AcDbEntity
 67
1
  8
0
100
AcDbBlockEnd
  0
BLOCK
  5
24
100
AcDbEntity
  8
0
100
AcDbBlockBegin
  2
*Paper_Space0
 70
0
 10
0.0
 20
0.0
 30
0.0
  3
*Paper_Space0
  1

  0
ENDBLK
  5
25
100
AcDbEntity
  8
0
100
AcDbBlockEnd
  0
ENDSEC
  0
SECTION
  2
ENTITIES
  0
CIRCLE
  5
49
100
AcDbEntity
100
AcDbCircle
  8
Top
 62
256
370
-1
  6
ByLayer
 10
10.1869199217334909
 20
10.1144576879316688
 30
0.0
 40
3.999999999999992
  0
CIRCLE
  5
4A
100
AcDbEntity
100
AcDbCircle
  8
Top
 62
256
370
-1
  6
ByLayer
 10
10.1869199217334909
 20
10.1144576879316688
 30
0.0
 40
9.499999999999984
  0
MTEXT
  5
4B
100
AcDbEntity
100
AcDbMText
  8
Text
 62
256
370
-1
  6
ByLayer
 10
10.186919921733498
 20
16.8644576879316688
 30
0.0
 40
2.0
 41
100.0
 71
5
 72
2
  1
Drive
  7
standard
 50
0.0
 73
1
 44
1.0
  0
MTEXT
  5
4C
100
AcDbEntity
100
AcDbMText
  8
Text
 62
256
370
-1
  6
ByLayer
 10
10.1869199217334874
 20
4.3938607366209581
 30
0.0
 40
2.0
 41
100.0
 71
5
 72
2
  1
Spacer
  7
standard
 50
0.0
 73
1
 44
1.0
  0
CIRCLE
  5
4D
100
AcDbEntity
100
AcDbCircle
  8
Top
 62
256
370
-1
  6
ByLayer
 10
50.7180069813213095
 20
52.58541642123825
 30
0.0
 40
1.425
  0
CIRCLE
  5
4E
100
AcDbEntity
100
AcDbCircle
  8
Top
 62
256
370
-1
  6
ByLayer
 10
22.5272283577440291
 20
42.3248121214680211
 30
0.0
 40
1.425
  0
CIRCLE
  5
4F
100
AcDbEntity
100
AcDbCircle
  8
Top
 62
256
370
-1
  6
ByLayer
 10
53.3401013151287131
 20
8.2941167806186584
 30
0.0
 40
1.425
  0
CIRCLE
  5
50
100
AcDbEntity
100
AcDbCircle
  8
Top
 62
256
370
-1
  6
ByLayer
 10
37.3401013151288339
 20
8.2941167806186726
 30
0.0
 40
1.425
  0
LINE
  5
51
100
AcDbEntity
100
AcDbLine
  8
Top
 62
256
370
-1
  6
ByLayer
 10
54.0621938857030671
 20
11.2354900132193904
 30
0.0
 11
46.5446529194158032
 21
8.4993288666140359
 31
0.0
  0
LINE
  5
52
100
AcDbEntity
100
AcDbLine
  8
Top
 62
256
370
-1
  6
ByLayer
 10
47.6398256913902856
 20
61.0426500083112558
 30
0.0
 11
45.587704831436298
 21
66.6808057330267303
 31
0.0
  0
LINE
  5
53
100
AcDbEntity
100
AcDbLine
  8
Top
 62
256
370
-1
  6
ByLayer
 10
47.4518871672331102
 20
60.9742459796461205
 30
0.0
 11
47.6398256913902856
 21
61.0426500083112558
 31
0.0
  0
LINE
  5
54
100
AcDbEntity
100
AcDbLine
  8
Top
 62
256
370
-1
  6
ByLayer
 10
48.0509400820688484
 20
57.5740789829786266
 30
0.0
 11
47.0932836807569402
 21
60.2052183211791743
 31
0.0
  0
LINE
  5
55
100
AcDbEntity
100
AcDbLine
  8
Top
 62
256
370
-1
  6
ByLayer
 10
49.0079062646929628
 20
57.2838795251675563
 30
0.0
 11
48.8199677405358159
 21
57.2154754965025205
 31
0.0
  0
LINE
  5
56
100
AcDbEntity
100
AcDbLine
  8
Top
 62
256
370
-1
  6
ByLayer
 10
49.4867344653488885
 20
55.96830985606735
 30
0.0
 11
49.0079062646929628
 21
57.2838795251675563
 31
0.0
  0
LINE
  5
57
100
AcDbEntity
100
AcDbLine
  8
Top
 62
256
370
-1
  6
ByLayer
 10
54.7662867035881504
 20
57.2514030575544552
 30
0.0
 11
50.2557621238158276
 21
55.6097063695912297
 31
0.0
  0
LINE
  5
58
100
AcDbEntity
100
AcDbLine
  8
Top
 62
256
370
-1
  6
ByLayer
 10
54.6460619894083948
 20
59.3360003851216646
 30
0.0
 11
55.1248901900643204
 21
58.020430716021373
 31
0.0
  0
LINE
  5
59
100
AcDbEntity
100
AcDbLine
  8
Top
 62
256
370
-1
  6
ByLayer
 10
54.8340005135655701
 20
59.4044044137867786
 30
0.0
 11
54.6460619894083948
 21
59.3360003851216646
 31
0.0
  0
LINE
  5
5A
100
AcDbEntity
100
AcDbLine
  8
Top
 62
256
370
-1
  6
ByLayer
 10
54.234947598729832
 20
62.8045714104543009
 30
0.0
 11
55.1926040000417402
 21
60.1734320722537035
 31
0.0
  0
LINE
  5
5B
100
AcDbEntity
100
AcDbLine
  8
Top
 62
256
370
-1
  6
ByLayer
 10
53.2779814161057175
 20
63.0947708682652291
 30
0.0
 11
53.4659199402628929
 21
63.1631748969304141
 31
0.0
  0
LINE
  5
5C
100
AcDbEntity
100
AcDbLine
  8
Top
 62
256
370
-1
  6
ByLayer
 10
51.22586055615173
 20
68.732926592980732
 30
0.0
 11
53.2779814161057175
 21
63.0947708682652291
 31
0.0
  0
LINE
  5
5D
100
AcDbEntity
100
AcDbLine
  8
Top
 62
256
370
-1
  6
ByLayer
 10
64.9124371858605116
 20
42.8245839538727893
 30
0.0
 11
54.9846310392953228
 21
70.1010071662834093
 31
0.0
  0
LINE
  5
5E
100
AcDbEntity
100
AcDbLine
  8
Top
 62
256
370
-1
  6
ByLayer
 10
70.3401013151287202
 20
1.2941167806186513
 30
0.0
 11
70.3401013151287771
 21
12.0427710545626354
 31
0.0
  0
LINE
  5
5F
100
AcDbEntity
100
AcDbLine
  8
Top
 62
256
370
-1
  6
ByLayer
 10
64.3401013151287771
 20
1.2941167806186513
 30
0.0
 11
70.3401013151287202
 21
1.2941167806186513
 31
0.0
  0
LINE
  5
60
100
AcDbEntity
100
AcDbLine
  8
Top
 62
256
370
-1
  6
ByLayer
 10
64.3401013151287628
 20
9.2941167806186371
 30
0.0
 11
64.3401013151287771
 21
1.2941167806186513
 31
0.0
  0
LINE
  5
61
100
AcDbEntity
100
AcDbLine
  8
Top
 62
256
370
-1
  6
ByLayer
 10
64.5401013151287657
 20
9.2941167806186797
 30
0.0
 11
64.3401013151287628
 21
9.2941167806186371
 31
0.0
  0
LINE
  5
62
100
AcDbEntity
100
AcDbLine
  8
Top
 62
256
370
-1
  6
ByLayer
 10
65.1401013151287742
 20
12.6941167806186712
 30
0.0
 11
65.1401013151287884
 21
9.8941167806187096
 31
0.0
  0
LINE
  5
63
100
AcDbEntity
100
AcDbLine
  8
Top
 62
256
370
-1
  6
ByLayer
 10
64.3401013151287771
 20
13.294116780618694
 30
0.0
 11
64.5401013151287941
 21
13.2941167806186797
 31
0.0
  0
LINE
  5
64
100
AcDbEntity
100
AcDbLine
  8
Top
 62
256
370
-1
  6
ByLayer
 10
64.3401013151287771
 20
14.694116780618657
 30
0.0
 11
64.3401013151287771
 21
13.294116780618694
 31
0.0
  0
LINE
  5
65
100
AcDbEntity
100
AcDbLine
  8
Top
 62
256
370
-1
  6
ByLayer
 10
58.9401013151287856
 20
15.2941167806186371
 30
0.0
 11
63.7401013151287685
 21
15.2941167806186868
 31
0.0
  0
LINE
  5
66
100
AcDbEntity
100
AcDbLine
  8
Top
 62
256
370
-1
  6
ByLayer
 10
58.3401013151288339
 20
13.294116780618694
 30
0.0
 11
58.3401013151286989
 21
14.6941167806186215
 31
0.0
  0
LINE
  5
67
100
AcDbEntity
100
AcDbLine
  8
Top
 62
256
370
-1
  6
ByLayer
 10
58.1401013151287316
 20
13.2941167806186868
 30
0.0
 11
58.3401013151288339
 21
13.294116780618694
 31
0.0
  0
LINE
  5
68
100
AcDbEntity
100
AcDbLine
  8
Top
 62
256
370
-1
  6
ByLayer
 10
57.5401013151287017
 20
9.8941167806186527
 30
0.0
 11
57.5401013151287728
 21
12.6941167806186783
 31
0.0
  0
LINE
  5
69
100
AcDbEntity
100
AcDbLine
  8
Top
 62
256
370
-1
  6
ByLayer
 10
58.3401013151288268
 20
9.2941167806186726
 30
0.0
 11
58.1401013151287742
 21
9.2941167806186726
 31
0.0
  0
LINE
  5
6A
100
AcDbEntity
100
AcDbLine
  8
Top
 62
256
370
-1
  6
ByLayer
 10
58.3401013151287486
 20
1.2941167806186158
 30
0.0
 11
58.3401013151288268
 21
9.2941167806186726
 31
0.0
  0
LINE
  5
6B
100
AcDbEntity
100
AcDbLine
  8
Top
 62
256
370
-1
  6
ByLayer
 10
32.340101315128706
 20
1.2941167806186442
 30
0.0
 11
58.3401013151287486
 21
1.2941167806186158
 31
0.0
  0
LINE
  5
6C
100
AcDbEntity
100
AcDbLine
  8
Top
 62
256
370
-1
  6
ByLayer
 10
32.3401013151287202
 20
9.2941167806186584
 30
0.0
 11
32.340101315128706
 21
1.2941167806186442
 31
0.0
  0
LINE
  5
6D
100
AcDbEntity
100
AcDbLine
  8
Top
 62
256
370
-1
  6
ByLayer
 10
32.5401013151286946
 20
9.2941167806186797
 30
0.0
 11
32.3401013151287202
 21
9.2941167806186584
 31
0.0
  0
LINE
  5
6E
100
AcDbEntity
100
AcDbLine
  8
Top
 62
256
370
-1
  6
ByLayer
 10
33.1401013151287884
 20
12.6941167806186712
 30
0.0
 11
33.1401013151287813
 21
9.8941167806186883
 31
0.0
  0
LINE
  5
6F
100
AcDbEntity
100
AcDbLine
  8
Top
 62
256
370
-1
  6
ByLayer
 10
32.3401013151287771
 20
13.2941167806186797
 30
0.0
 11
32.5401013151287657
 21
13.294116780618694
 31
0.0
  0
LINE
  5
70
100
AcDbEntity
100
AcDbLine
  8
Top
 62
256
370
-1
  6
ByLayer
 10
32.3401013151287771
 20
14.6941167806186925
 30
0.0
 11
32.3401013151287771
 21
13.2941167806186797
 31
0.0
  0
LINE
  5
71
100
AcDbEntity
100
AcDbLine
  8
Top
 62
256
370
-1
  6
ByLayer
 10
26.3401013151287451
 20
13.2941167806186797
 30
0.0
 11
26.3401013151287486
 21
14.6941167806186002
 31
0.0
  0
LINE
  5
72
100
AcDbEntity
100
AcDbLine
  8
Top
 62
256
370
-1
  6
ByLayer
 10
26.1401013151287138
 20
13.2941167806186158
 30
0.0
 11
26.3401013151287451
 21
13.2941167806186797
 31
0.0
  0
LINE
  5
73
100
AcDbEntity
100
AcDbLine
  8
Top
 62
256
370
-1
  6
ByLayer
 10
25.5401013151287408
 20
9.8941167806186243
 30
0.0
 11
25.5401013151287692
 21
12.694116780618657
 31
0.0
  0
LINE
  5
74
100
AcDbEntity
100
AcDbLine
  8
Top
 62
256
370
-1
  6
ByLayer
 10
26.3401013151287842
 20
9.2941167806186371
 30
0.0
 11
26.1401013151287742
 21
9.2941167806185589
 31
0.0
  0
LINE
  5
75
100
AcDbEntity
100
AcDbLine
  8
Top
 62
256
370
-1
  6
ByLayer
 10
26.3401013151288304
 20
1.2941167806186513
 30
0.0
 11
26.3401013151287842
 21
9.2941167806186371
 31
0.0
  0
LINE
  5
76
100
AcDbEntity
100
AcDbLine
  8
Top
 62
256
370
-1
  6
ByLayer
 10
20.34010131512877
 20
1.2941167806186442
 30
0.0
 11
26.3401013151288304
 21
1.2941167806186513
 31
0.0
  0
LINE
  5
77
100
AcDbEntity
100
AcDbLine
  8
Top
 62
256
370
-1
  6
ByLayer
 10
20.3401013151287771
 20
3.2264220191393491
 30
0.0
 11
20.34010131512877
 21
1.2941167806186442
 31
0.0
  0
LINE
  5
78
100
AcDbEntity
100
AcDbLine
  8
Top
 62
256
370
-1
  6
ByLayer
 10
13.8108913430975804
 20
48.7299248485871743
 30
0.0
 11
11.7587704831436213
 21
54.3680805733026489
 31
0.0
  0
LINE
  5
79
100
AcDbEntity
100
AcDbLine
  8
Top
 62
256
370
-1
  6
ByLayer
 10
13.6229528189403446
 20
48.6615208199220177
 30
0.0
 11
13.8108913430975804
 21
48.7299248485871743
 31
0.0
  0
LINE
  5
7A
100
AcDbEntity
100
AcDbLine
  8
Top
 62
256
370
-1
  6
ByLayer
 10
14.2220057337761379
 20
45.2613538232545451
 30
0.0
 11
13.26434933246429
 21
47.8924931614550928
 31
0.0
  0
LINE
  5
7B
100
AcDbEntity
100
AcDbLine
  8
Top
 62
256
370
-1
  6
ByLayer
 10
15.1789719164002577
 20
44.9711543654435673
 30
0.0
 11
14.9910333922430787
 21
44.9027503367784107
 31
0.0
  0
LINE
  5
7C
100
AcDbEntity
100
AcDbLine
  8
Top
 62
256
370
-1
  6
ByLayer
 10
15.6578001170562953
 20
43.6555846963433112
 30
0.0
 11
15.1789719164002577
 21
44.9711543654435673
 31
0.0
  0
LINE
  5
7D
100
AcDbEntity
100
AcDbLine
  8
Top
 62
256
370
-1
  6
ByLayer
 10
20.9373523552954417
 20
44.938677897830388
 30
0.0
 11
16.4268277755231793
 21
43.2969812098671412
 31
0.0
  0
LINE
  5
7E
100
AcDbEntity
100
AcDbLine
  8
Top
 62
256
370
-1
  6
ByLayer
 10
20.8171276411156896
 20
47.023275225397505
 30
0.0
 11
21.2959558417716686
 21
45.7077055562972916
 31
0.0
  0
LINE
  5
7F
100
AcDbEntity
100
AcDbLine
  8
Top
 62
256
370
-1
  6
ByLayer
 10
21.005066165272865
 20
47.0916792540627256
 30
0.0
 11
20.8171276411156896
 21
47.023275225397505
 31
0.0
  0
LINE
  5
80
100
AcDbEntity
100
AcDbLine
  8
Top
 62
256
370
-1
  6
ByLayer
 10
20.4060132504371268
 20
50.4918462507302124
 30
0.0
 11
21.3636696517489781
 21
47.8607069125296434
 31
0.0
  0
LINE
  5
81
100
AcDbEntity
100
AcDbLine
  8
Top
 62
256
370
-1
  6
ByLayer
 10
19.4490470678129554
 20
50.7820457085412045
 30
0.0
 11
19.6369855919702445
 21
50.8504497372063113
 31
0.0
  0
LINE
  5
82
100
AcDbEntity
100
AcDbLine
  8
Top
 62
256
370
-1
  6
ByLayer
 10
17.3969262078589963
 20
56.4202014332566506
 30
0.0
 11
19.4490470678129554
 21
50.7820457085412045
 31
0.0
  0
ARC
  5
83
100
AcDbEntity
  8
Top
 62
256
370
-1
  6
ByLayer
100
AcDbCircle
 10
46.3394408334204329
 20
9.0631444390855833
 30
0.0
 40
0.599999999999996
100
AcDbArc
 50
199.9999999999997158
 51
289.9999999999998863
  0
ARC
  5
84
100
AcDbEntity
  8
Top
 62
256
370
-1
  6
ByLayer
100
AcDbCircle
 10
53.8569817997076683
 20
11.7993055856909308
 30
0.0
 40
0.5999999999999983
100
AcDbArc
 50
289.9999999999998295
 51
20.000000000000103
  0
ARC
  5
85
100
AcDbEntity
  8
Top
 62
256
370
-1
  6
ByLayer
100
AcDbCircle
 10
47.6570992532285231
 20
60.4104304071745588
 30
0.0
 40
0.600000000000012
100
AcDbArc
 50
110.0000000000003979
 51
199.9999999999984936
  0
ARC
  5
86
100
AcDbEntity
  8
Top
 62
256
370
-1
  6
ByLayer
100
AcDbCircle
 10
48.6147556545403745
 20
57.7792910689739898
 30
0.0
 40
0.5999999999999749
100
AcDbArc
 50
199.9999999999977263
 51
290.0000000000015916
  0
ARC
  5
87
100
AcDbEntity
  8
Top
 62
256
370
-1
  6
ByLayer
100
AcDbCircle
 10
50.0505500378204147
 20
56.1735219420627274
 30
0.0
 40
0.5999999999999921
100
AcDbArc
 50
199.9999999999991189
 51
290.0000000000009095
  0
ARC
  5
88
100
AcDbEntity
  8
Top
 62
256
370
-1
  6
ByLayer
100
AcDbCircle
 10
54.5610746175928227
 20
57.8152186300259245
 30
0.0
 40
0.5999999999999996
100
AcDbArc
 50
290.0000000000006821
 51
19.9999999999998828
  0
ARC
  5
89
100
AcDbEntity
  8
Top
 62
256
370
-1
  6
ByLayer
100
AcDbCircle
 10
54.6287884275701856
 20
59.968219986258319
 30
0.0
 40
0.5999999999999986
100
AcDbArc
 50
290.0000000000006821
 51
19.9999999999998828
  0
ARC
  5
8A
100
AcDbEntity
  8
Top
 62
256
370
-1
  6
ByLayer
100
AcDbCircle
 10
53.6711320262583058
 20
62.5993593244588808
 30
0.0
 40
0.6000000000000139
100
AcDbArc
 50
20.0000000000011866
 51
109.9999999999992752
  0
ARC
  5
8B
100
AcDbEntity
  8
Top
 62
256
370
-1
  6
ByLayer
100
AcDbCircle
 10
64.5401013151287657
 20
9.8941167806186527
 30
0.0
 40
0.5999999999999984
100
AcDbArc
 50
269.9999999999992042
 51
0.0
  0
ARC
  5
8C
100
AcDbEntity
  8
Top
 62
256
370
-1
  6
ByLayer
100
AcDbCircle
 10
64.5401013151287373
 20
12.6941167806186144
 30
0.0
 40
0.6000000000000006
100
AcDbArc
 50
0.0
 51
89.9999999999982947
  0
ARC
  5
8D
100
AcDbEntity
  8
Top
 62
256
370
-1
  6
ByLayer
100
AcDbCircle
 10
63.7401013151287543
 20
14.6941167806186996
 30
0.0
 40
0.6000000000000028
100
AcDbArc
 50
0.0
 51
90.0
  0
ARC
  5
8E
100
AcDbEntity
  8
Top
 62
256
370
-1
  6
ByLayer
100
AcDbCircle
 10
58.9401013151287856
 20
14.6941167806186215
 30
0.0
 40
0.6000000000000028
100
AcDbArc
 50
90.0000000000008384
 51
180.0
  0
ARC
  5
8F
100
AcDbEntity
  8
Top
 62
256
370
-1
  6
ByLayer
100
AcDbCircle
 10
58.1401013151287742
 20
12.6941167806186712
 30
0.0
 40
0.5999999999999939
100
AcDbArc
 50
90.0
 51
180.0
  0
ARC
  5
90
100
AcDbEntity
  8
Top
 62
256
370
-1
  6
ByLayer
100
AcDbCircle
 10
58.1401013151287103
 20
9.8941167806185959
 30
0.0
 40
0.5999999999999984
100
AcDbArc
 50
180.0
 51
270.0000000000007958
  0
ARC
  5
91
100
AcDbEntity
  8
Top
 62
256
370
-1
  6
ByLayer
100
AcDbCircle
 10
32.5401013151288225
 20
9.8941167806186456
 30
0.0
 40
0.5999999999999984
100
AcDbArc
 50
269.9999999999982947
 51
0.0
  0
ARC
  5
92
100
AcDbEntity
  8
Top
 62
256
370
-1
  6
ByLayer
100
AcDbCircle
 10
32.5401013151286804
 20
12.6941167806186641
 30
0.0
 40
0.6000000000000006
100
AcDbArc
 50
0.0
 51
89.9999999999982947
  0
ARC
  5
93
100
AcDbEntity
  8
Top
 62
256
370
-1
  6
ByLayer
100
AcDbCircle
 10
31.7401013151287437
 20
14.694116780618657
 30
0.0
 40
0.6000000000000028
100
AcDbArc
 50
0.0
 51
90.0
  0
ARC
  5
94
100
AcDbEntity
  8
Top
 62
256
370
-1
  6
ByLayer
100
AcDbCircle
 10
26.9401013151287536
 20
14.6941167806186712
 30
0.0
 40
0.6000000000000028
100
AcDbArc
 50
90.0000000000016911
 51
180.0
  0
ARC
  5
95
100
AcDbEntity
  8
Top
 62
256
370
-1
  6
ByLayer
100
AcDbCircle
 10
26.1401013151287245
 20
12.694116780618657
 30
0.0
 40
0.5999999999999939
100
AcDbArc
 50
90.0
 51
180.0
  0
ARC
  5
96
100
AcDbEntity
  8
Top
 62
256
370
-1
  6
ByLayer
100
AcDbCircle
 10
26.14010131512876
 20
9.8941167806187025
 30
0.0
 40
0.5999999999999984
100
AcDbArc
 50
180.0
 51
270.0000000000017053
  0
ARC
  5
97
100
AcDbEntity
  8
Top
 62
256
370
-1
  6
ByLayer
100
AcDbCircle
 10
13.8281649049357576
 20
48.0977052474504916
 30
0.0
 40
0.5999999999999881
100
AcDbArc
 50
109.9999999999985505
 51
200.0000000000001421
  0
ARC
  5
98
100
AcDbEntity
  8
Top
 62
256
370
-1
  6
ByLayer
100
AcDbCircle
 10
14.7858213062476676
 20
45.4665659092499936
 30
0.0
 40
0.5999999999999842
100
AcDbArc
 50
199.9999999999998863
 51
290.0000000000021032
  0
ARC
  5
99
100
AcDbEntity
  8
Top
 62
256
370
-1
  6
ByLayer
100
AcDbCircle
 10
16.2216156895277663
 20
43.8607967823386673
 30
0.0
 40
0.6000000000000063
100
AcDbArc
 50
200.0000000000003695
 51
289.9999999999996021
  0
ARC
  5
9A
100
AcDbEntity
  8
Top
 62
256
370
-1
  6
ByLayer
100
AcDbCircle
 10
20.7321402693000856
 20
45.5024934703019071
 30
0.0
 40
0.5999999999999976
100
AcDbArc
 50
289.9999999999996021
 51
19.9999999999988027
  0
ARC
  5
9B
100
AcDbEntity
  8
Top
 62
256
370
-1
  6
ByLayer
100
AcDbCircle
 10
20.799854079277452
 20
47.6554948265342304
 30
0.0
 40
0.5999999999999954
100
AcDbArc
 50
289.9999999999998863
 51
20.0000000000009983
  0
ARC
  5
9C
100
AcDbEntity
  8
Top
 62
256
370
-1
  6
ByLayer
100
AcDbCircle
 10
19.8421976779655438
 20
50.2866341647347994
 30
0.0
 40
0.6000000000000253
100
AcDbArc
 50
20.0000000000005862
 51
109.9999999999971152
  0
ARC
  5
9D
100
AcDbEntity
  8
Top
 62
256
370
-1
  6
ByLayer
100
AcDbCircle
 10
-19.6598986848706687
 20
12.0427710545628202
 30
0.0
 40
89.9999999999993463
100
AcDbArc
 50
0.0
 51
20.000000000000103
  0
ARC
  5
9E
100
AcDbEntity
  8
Top
 62
256
370
-1
  6
ByLayer
100
AcDbCircle
 10
-69.6598986848708819
 20
3.2264220191412178
 30
0.0
 40
89.9999999999996447
100
AcDbArc
 50
0.0
 51
20.000000000000103
  0
LINE
  5
9F
100
AcDbEntity
100
AcDbLine
  8
Top
 62
256
370
-1
  6
ByLayer
 10
8.0
 20
53.0
 30
0.0
 11
14.9124371858605969
 21
34.0082349184495172
 31
0.0
  0
LINE
  5
A0
100
AcDbEntity
100
AcDbLine
  8
Notes
 62
256
370
-1
  6
ByLayer
 10
27.2967256421547511
 20
15.29411678061863
 30
0.0
 11
26.9401013151287501
 21
15.2941167806186655
 31
0.0
  0
MTEXT
  5
A1
100
AcDbEntity
100
AcDbMText
  8
Top Text
 62
256
370
-1
  6
ByLayer
 10
61.0412496058205463
 20
43.9783508611255556
 30
0.0
 40
2.0
 41
100.0
 71
3
 72
2
  1
Main\~Plate\PTop
  7
standard
 50
360.0
 73
0
 44
1.0
  0
LINE
  5
A2
100
AcDbEntity
100
AcDbLine
  8
Top
 62
256
370
-1
  6
ByLayer
 10
40.2611634384965669
 20
50.9077921722229902
 30
0.0
 11
54.4207973721791944
 21
12.004517671686358
 31
0.0
  0
LINE
  5
A3
100
AcDbEntity
100
AcDbLine
  8
Top
 62
256
370
-1
  6
ByLayer
 10
40.26116343849651
 20
50.9077921722228837
 30
0.0
 11
43.5500876112471929
 21
52.104862673862776
 31
0.0
  0
LINE
  5
A4
100
AcDbEntity
100
AcDbLine
  8
Top
 62
256
370
-1
  6
ByLayer
 10
43.5500876112471929
 20
52.104862673862776
 30
0.0
 11
39.1038257480134916
 21
64.3208667440796091
 31
0.0
  0
LINE
  5
A5
100
AcDbEntity
100
AcDbLine
  8
Top
 62
256
370
-1
  6
ByLayer
 10
39.1038257480134916
 20
64.3208667440796091
 30
0.0
 11
45.5877048314362696
 21
66.6808057330267161
 31
0.0
  0
LINE
  5
A6
100
AcDbEntity
100
AcDbLine
  8
Top
 62
256
370
-1
  6
ByLayer
 10
31.6159913272661584
 20
47.76120685362676
 30
0.0
 11
28.3270671545154755
 21
46.5641363519869529
 31
0.0
  0
LINE
  5
A7
100
AcDbEntity
100
AcDbLine
  8
Top
 62
256
370
-1
  6
ByLayer
 10
28.3270671545154755
 20
46.5641363519869529
 30
0.0
 11
23.8808052912817743
 21
58.7801404222037931
 31
0.0
  0
LINE
  5
A8
100
AcDbEntity
100
AcDbLine
  8
Top
 62
256
370
-1
  6
ByLayer
 10
23.8808052912817743
 20
58.7801404222037931
 30
0.0
 11
17.3969262078589963
 21
56.4202014332566506
 31
0.0
  0
LINE
  5
A9
100
AcDbEntity
100
AcDbLine
  8
Top
 62
256
370
-1
  6
ByLayer
 10
11.7587704831436213
 20
54.3680805733026489
 30
0.0
 11
8.0
 21
53.0
 31
0.0
  0
LINE
  5
AA
100
AcDbEntity
100
AcDbLine
  8
Top
 62
256
370
-1
  6
ByLayer
 10
54.9846310392953228
 20
70.1010071662834093
 30
0.0
 11
51.22586055615173
 21
68.732926592980732
 31
0.0
  0
LINE
  5
AB
100
AcDbEntity
100
AcDbLine
  8
Top
 62
256
370
-1
  6
ByLayer
 10
31.6159913272661584
 20
47.76120685362676
 30
0.0
 11
45.7756252609488499
 21
8.8579323530901561
 31
0.0
  0
LINE
  5
AC
100
AcDbEntity
100
AcDbLine
  8
Top
 62
256
370
-1
  6
ByLayer
 10
31.740101315128733
 20
15.2941167806186797
 30
0.0
 11
26.9401013151287501
 21
15.2941167806186655
 31
0.0
  0
CIRCLE
  5
AD
100
AcDbEntity
100
AcDbCircle
  8
Top
 62
256
370
-1
  6
ByLayer
 10
63.8401013151283152
 20
29.0040248006116421
 30
0.0
 40
1.4199999999999999
  0
CIRCLE
  5
AE
100
AcDbEntity
100
AcDbCircle
  8
Top
 62
256
370
-1
  6
ByLayer
 10
54.8401013151283223
 20
29.0040248006115071
 30
0.0
 40
1.4199999999999999
  0
CIRCLE
  5
AF
100
AcDbEntity
100
AcDbCircle
  8
Top
 62
256
370
-1
  6
ByLayer
 10
35.3401013151283294
 20
29.004024800611198
 30
0.0
 40
1.4199999999999999
  0
CIRCLE
  5
B0
100
AcDbEntity
100
AcDbCircle
  8
Top
 62
256
370
-1
  6
ByLayer
 10
26.3401013151283117
 20
29.0040248006110417
 30
0.0
 40
1.4199999999999999
  0
CIRCLE
  5
B1
100
AcDbEntity
100
AcDbCircle
  8
Top
 62
256
370
-1
  6
ByLayer
 10
26.3401013151284857
 20
18.0040248006110417
 30
0.0
 40
1.4199999999999999
  0
CIRCLE
  5
B2
100
AcDbEntity
100
AcDbCircle
  8
Top
 62
256
370
-1
  6
ByLayer
 10
35.3401013151284928
 20
18.0040248006111909
 30
0.0
 40
1.4199999999999999
  0
CIRCLE
  5
B3
100
AcDbEntity
100
AcDbCircle
  8
Top
 62
256
370
-1
  6
ByLayer
 10
54.8401013151284786
 20
18.0040248006114894
 30
0.0
 40
1.4199999999999999
  0
CIRCLE
  5
B4
100
AcDbEntity
100
AcDbCircle
  8
Top
 62
256
370
-1
  6
ByLayer
 10
63.8401013151284715
 20
18.0040248006116101
 30
0.0
 40
1.4199999999999999
  0
ENDSEC
  0
SECTION
  2
OBJECTS
  0
DICTIONARY
  5
C
100
AcDbDictionary
280
0
281
1
  3
ACAD_GROUP
350
D
  3
ACAD_LAYOUT
350
1A
  3
ACAD_MLINESTYLE
350
17
  3
ACAD_PLOTSETTINGS
350
19
  3
ACAD_PLOTSTYLENAME
350
E
  3
AcDbVariableDictionary
350
B5
  0
DICTIONARY
  5
D
100
AcDbDictionary
280
0
281
1
  0
ACDBDICTIONARYWDFLT
  5
E
100
AcDbDictionary
281
1
  3
Normal
350
F
100
AcDbDictionaryWithDefault
340
F
  0
ACDBPLACEHOLDER
  5
F
  0
DICTIONARY
  5
17
100
AcDbDictionary
280
0
281
1
  3
Standard
350
18
  0
MLINESTYLE
  5
18
100
AcDbMlineStyle
  2
STANDARD
 70
0
  3

 62
256
 51
90.0
 52
90.0
 71
2
 49
0.5
 62
256
  6
BYLAYER
 49
-0.5
 62
256
  6
BYLAYER
  0
DICTIONARY
  5
19
100
AcDbDictionary
280
0
281
1
  0
DICTIONARY
  5
1A
100
AcDbDictionary
281
1
  3
Layout1
350
1E
  3
Layout2
350
26
  3
Model
350
22
  0
LAYOUT
  5
1E
100
AcDbPlotSettings
  1

  2
C:\Program Files\AutoCAD 2002\plotters\DWF ePlot (optimized for plotting).pc3
  4

  6

 40
0.0
 41
0.0
 42
0.0
 43
0.0
 44
0.0
 45
0.0
 46
0.0
 47
0.0
 48
0.0
 49
0.0
140
0.0
141
0.0
142
1.0
143
1.0
 70
688
 72
0
 73
0
 74
5
  7

 75
16
147
1.0
148
0.0
149
0.0
100
AcDbLayout
  1
Layout1
 70
1
 71
1
 10
0.0
 20
0.0
 11
420.0
 21
297.0
 12
0.0
 22
0.0
 32
0.0
 14
100000000000000000000.0
 24
100000000000000000000.0
 34
100000000000000000000.0
 15
-100000000000000000000.0
 25
-100000000000000000000.0
 35
-100000000000000000000.0
146
0.0
 13
0.0
 23
0.0
 33
0.0
 16
1.0
 26
0.0
 36
0.0
 17
0.0
 27
1.0
 37
0.0
 76
0
330
1B
  0
LAYOUT
  5
22
100
AcDbPlotSettings
  1

  2
C:\Program Files\AutoCAD 2002\plotters\DWF ePlot (optimized for plotting).pc3
  4

  6

 40
0.0
 41
0.0
 42
0.0
 43
0.0
 44
0.0
 45
0.0
 46
0.0
 47
0.0
 48
0.0
 49
0.0
140
0.0
141
0.0
142
1.0
143
1.0
 70
1712
 72
0
 73
0
 74
0
  7

 75
0
147
1.0
148
0.0
149
0.0
100
AcDbLayout
  1
Model
 70
1
 71
0
 10
0.0
 20
0.0
 11
12.0
 21
9.0
 12
0.0
 22
0.0
 32
0.0
 14
0.0
 24
0.0
 34
0.0
 15
0.0
 25
0.0
 35
0.0
146
0.0
 13
0.0
 23
0.0
 33
0.0
 16
1.0
 26
0.0
 36
0.0
 17
0.0
 27
1.0
 37
0.0
 76
0
330
1F
  0
LAYOUT
  5
26
100
AcDbPlotSettings
  1

  2
C:\Program Files\AutoCAD 2002\plotters\DWF ePlot (optimized for plotting).pc3
  4

  6

 40
0.0
 41
0.0
 42
0.0
 43
0.0
 44
0.0
 45
0.0
 46
0.0
 47
0.0
 48
0.0
 49
0.0
140
0.0
141
0.0
142
1.0
143
1.0
 70
688
 72
0
 73
0
 74
5
  7

 75
16
147
1.0
148
0.0
149
0.0
100
AcDbLayout
  1
Layout2
 70
1
 71
2
 10
0.0
 20
0.0
 11
12.0
 21
9.0
 12
0.0
 22
0.0
 32
0.0
 14
0.0
 24
0.0
 34
0.0
 15
0.0
 25
0.0
 35
0.0
146
0.0
 13
0.0
 23
0.0
 33
0.0
 16
1.0
 26
0.0
 36
0.0
 17
0.0
 27
1.0
 37
0.0
 76
0
330
23
  0
DICTIONARY
  5
B5
100
AcDbDictionary
281
1
  3
DIMASSOC
350
B7
  3
HIDETEXT
350
B6
  0
DICTIONARYVAR
  5
B6
100
DictionaryVariables
280
0
  1
2
  0
DICTIONARYVAR
  5
B7
100
DictionaryVariables
280
0
  1
1
  0
ENDSEC
  0
EOF
