999
dxflib 2.1.2.0
  0
SECTION
  2
HEADER
  9
$ACADVER
  1
AC1015
  9
$HANDSEED
  5
FFFF
  9
$DIMLIM
 70
0
  9
$DIMLUNIT
 70
2
  9
$DIMTIX
 70
0
  9
$AUNITS
 70
0
  9
$QTEXTMODE
 70
0
  9
$USERR1
 40
0.0
  9
$DIMALTU
 70
2
  9
$UCSORGBOTTOM
 10
0.0
 20
0.0
 30
0.0
  9
$USERR2
 40
0.0
  9
$USERR3
 40
0.0
  9
$USERR4
 40
0.0
  9
$LIMMAX
 10
420.0
 20
297.0
  9
$USERR5
 40
0.0
  9
$PELEVATION
 40
0.0
  9
$DIMALTZ
 70
0
  9
$DIMADEC
 70
0
  9
$JOINSTYLE
280
0
  9
$DIMATFIT
 70
3
  9
$TILEMODE
 70
1
  9
$PEXTMIN
 10
0.0
 20
0.0
 30
0.0
  9
$TDUSRTIMER
 40
0.0000187731
  9
$DWGCODEPAGE
  3
ANSI_1252
  9
$UCSORTHOVIEW
 70
0
  9
$DIMSOXD
 70
0
  9
$DIMTZIN
 70
0
  9
$SPLINETYPE
 70
6
  9
$DIMLFAC
 40
1.0
  9
$DIMSE1
 70
0
  9
$FILLETRAD
 40
0.0
  9
$DIMSE2
 70
0
  9
$PSTYLEMODE
290
1
  9
$TEXTSTYLE
  7
Standard
  9
$DIMTSZ
 40
0.0
  9
$PUCSXDIR
 10
1.0
 20
0.0
 30
0.0
  9
$DIMTXSTY
  7
Standard
  9
$PLIMMAX
 10
420.0
 20
297.0
  9
$DIMTM
 40
0.0
  9
$UCSORG
 10
0.0
 20
0.0
 30
0.0
  9
$DIMTP
 40
0.0
  9
$PSLTSCALE
 70
1
  9
$ANGBASE
 50
0.0
  9
$PUCSYDIR
 10
0.0
 20
1.0
 30
0.0
  9
$EXTNAMES
290
1
  9
$DIMASZ
 40
1.7999999999999989
  9
$PUCSORTHOVIEW
 70
0
  9
$INSBASE
 10
0.0
 20
0.0
 30
0.0
  9
$UNITMODE
 70
0
  9
$MEASUREMENT
 70
1
  9
$EXTMAX
 10
420.0
 20
297.0
 30
0.0
  9
$ELEVATION
 40
0.0
  9
$TDCREATE
 40
2454670.4520583911798894
  9
$DIMDEC
 70
4
  9
$CELTYPE
  6
ByLayer
  9
$MENU
  1
.
  9
$ANGDIR
 70
0
  9
$DIMALTTD
 70
2
  9
$TREEDEPTH
 70
3020
  9
$LTSCALE
 40
1.0
  9
$PROXYGRAPHICS
 70
1
  9
$DIMTMOVE
 70
0
  9
$DIMAZIN
 70
0
  9
$TDUPDATE
 40
2454670.4520583911798894
  9
$DIMTOLJ
 70
1
  9
$DIMCEN
 40
0.09
  9
$DIMTVP
 40
0.0
  9
$TRACEWID
 40
0.05
  9
$CMLSTYLE
  2
Standard
  9
$DISPSILH
 70
0
  9
$DIMSTYLE
  2
Standard
  9
$SKETCHINC
 40
0.1
  9
$FILLMODE
 70
1
  9
$PLINEGEN
 70
0
  9
$DIMLWD
 70
-2
  9
$THICKNESS
 40
0.0
  9
$DIMLWE
 70
-2
  9
$CELTSCALE
 40
1.0
  9
$PUCSORG
 10
0.0
 20
0.0
 30
0.0
  9
$DIMALTTZ
 70
0
  9
$INSUNITS
 70
4
  9
$UCSORGBACK
 10
0.0
 20
0.0
 30
0.0
  9
$PLINEWID
 40
0.0
  9
$PEXTMAX
 10
420.0
 20
297.0
 30
0.0
  9
$DIMJUST
 70
0
  9
$UCSYDIR
 10
0.0
 20
1.0
 30
0.0
  9
$PUCSORGBACK
 10
0.0
 20
0.0
 30
0.0
  9
$PDSIZE
 40
0.0
  9
$PUCSORGBOTTOM
 10
0.0
 20
0.0
 30
0.0
  9
$DIMUPT
 70
0
  9
$DIMTAD
 70
0
  9
$UCSXDIR
 10
1.0
 20
0.0
 30
0.0
  9
$MAXACTVP
 70
64
  9
$DIMSAH
 70
0
  9
$TDUCREATE
 40
2454670.4103917251341045
  9
$DIMFRAC
 70
0
  9
$USERI1
 70
0
  9
$USERI2
 70
0
  9
$UCSORGRIGHT
 10
0.0
 20
0.0
 30
0.0
  9
$USERI3
 70
0
  9
$CELWEIGHT
370
-1
  9
$LWDISPLAY
290
0
  9
$SKPOLY
 70
0
  9
$USERI4
 70
0
  9
$USERI5
 70
0
  9
$UCSORGTOP
 10
0.0
 20
0.0
 30
0.0
  9
$LIMMIN
 10
0.0
 20
0.0
  9
$ACADMAINTVER
 70
18
  9
$MIRRTEXT
 70
0
  9
$TDUUPDATE
 40
2454670.4103917251341045
  9
$TEXTSIZE
 40
0.2
  9
$DIMGAP
 40
0.09
  9
$LUPREC
 70
4
  9
$CECOLOR
 62
256
  9
$DIMSD1
 70
0
  9
$DIMSD2
 70
0
  9
$WORLDVIEW
 70
1
  9
$PUCSORGRIGHT
 10
0.0
 20
0.0
 30
0.0
  9
$PLIMCHECK
 70
0
  9
$DIMTFAC
 40
1.0
  9
$CMLJUST
 70
0
  9
$USRTIMER
 70
1
  9
$SURFU
 70
6
  9
$SURFV
 70
6
  9
$DIMASO
 70
1
  9
$DIMDLE
 40
0.0
  9
$EXTMIN
 10
0.0
 20
0.0
 30
0.0
  9
$UCSORGLEFT
 10
0.0
 20
0.0
 30
0.0
  9
$OLESTARTUP
290
0
  9
$PUCSORGFRONT
 10
0.0
 20
0.0
 30
0.0
  9
$DIMDLI
 40
0.38
  9
$LUNITS
 70
2
  9
$DIMCLRD
 70
0
  9
$SHADEDIF
 70
70
  9
$DIMCLRE
 70
0
  9
$SPLINESEGS
 70
8
  9
$PUCSORGLEFT
 10
0.0
 20
0.0
 30
0.0
  9
$DIMALTRND
 40
0.0
  9
$DIMRND
 40
0.0
  9
$DIMALT
 70
0
  9
$FINGERPRINTGUID
  2
{957EB8BD-B1CB-432B-9497-5194FA736EDC}
  9
$DIMCLRT
 70
0
  9
$PUCSORGTOP
 10
0.0
 20
0.0
 30
0.0
  9
$DIMTOH
 70
1
  9
$UCSORGFRONT
 10
0.0
 20
0.0
 30
0.0
  9
$VISRETAIN
 70
1
  9
$SHADEDGE
 70
3
  9
$DIMTOL
 70
0
  9
$SURFTYPE
 70
6
  9
$VERSIONGUID
  2
{F0539855-98D3-4F5B-8BA8-A3C366CB493D}
  9
$CHAMFERA
 40
0.0
  9
$SURFTAB1
 70
6
  9
$CHAMFERB
 40
0.0
  9
$SURFTAB2
 70
6
  9
$CHAMFERC
 40
0.0
  9
$AUPREC
 70
0
  9
$CHAMFERD
 40
0.0
  9
$DIMTDEC
 70
4
  9
$PDMODE
 70
0
  9
$SPLFRAME
 70
0
  9
$PLIMMIN
 10
0.0
 20
0.0
  9
$XEDIT
290
1
  9
$DIMDSEP
 70
46
  9
$LIMCHECK
 70
0
  9
$PINSBASE
 10
0.0
 20
0.0
 30
0.0
  9
$ORTHOMODE
 70
0
  9
$PSVPSCALE
 40
0.0
  9
$CLAYER
  8
0
  9
$DIMSHO
 70
1
  9
$DIMTOFL
 70
0
  9
$DIMTXT
 40
0.3499999940395355
  9
$DIMEXE
 40
0.18
  9
$TDINDWG
 40
0.0000187731
  9
$REGENMODE
 70
1
  9
$ATTMODE
 70
1
  9
$CMLSCALE
 40
1.0
  9
$DIMTIH
 70
1
  9
$DIMZIN
 70
0
  9
$CEPSNTYPE
380
0
  9
$DIMSCALE
 40
1.0
  9
$DIMALTD
 70
2
  9
$DIMAUNIT
 70
0
  9
$DIMALTF
 40
25.3999999999999986
  9
$DIMEXO
 40
0.0625
  9
$ENDCAPS
280
0
  9
$CLAYER
  8
Visible (ISO)
  0
ENDSEC
  0
SECTION
  2
TABLES
  0
TABLE
  2
VPORT
  5
8
100
AcDbSymbolTable
 70
1
  0
VPORT
  5
30
100
AcDbSymbolTableRecord
100
AcDbViewportTableRecord
  2
*Active
 70
0
 10
0.0
 20
0.0
 11
1.0
 21
1.0
 12
286.3055555555554861
 22
148.5
 13
0.0
 23
0.0
 14
10.0
 24
10.0
 15
10.0
 25
10.0
 16
0.0
 26
0.0
 36
1.0
 17
0.0
 27
0.0
 37
0.0
 40
297.0
 41
1.92798353909465
 42
50.0
 43
0.0
 44
0.0
 50
0.0
 51
0.0
 71
0
 72
100
 73
1
 74
3
 75
1
 76
1
 77
0
 78
0
281
0
 65
1
110
0.0
120
0.0
130
0.0
111
1.0
121
0.0
131
0.0
112
0.0
122
1.0
132
0.0
 79
0
146
0.0
  0
ENDTAB
  0
TABLE
  2
LTYPE
  5
5
100
AcDbSymbolTable
 70
21
  0
LTYPE
  5
14
100
AcDbSymbolTableRecord
100
AcDbLinetypeTableRecord
  2
ByBlock
 70
0
  3

 72
65
 73
0
 40
0.0
  0
LTYPE
  5
15
100
AcDbSymbolTableRecord
100
AcDbLinetypeTableRecord
  2
ByLayer
 70
0
  3

 72
65
 73
0
 40
0.0
  0
LTYPE
  5
16
100
AcDbSymbolTableRecord
100
AcDbLinetypeTableRecord
  2
CONTINUOUS
 70
0
  3
Solid line
 72
65
 73
0
 40
0.0
  0
LTYPE
  5
31
100
AcDbSymbolTableRecord
100
AcDbLinetypeTableRecord
  2
DOT
 70
0
  3
Dot . . . . . . . . . . . . . . . . . . . . . .
 72
65
 73
2
 40
6.3499999999999996
 49
0.0
 74
0
 49
-6.3499999999999996
 74
0
  0
LTYPE
  5
32
100
AcDbSymbolTableRecord
100
AcDbLinetypeTableRecord
  2
DOT2
 70
0
  3
Dot (.5x) .....................................
 72
65
 73
2
 40
3.1749999999999998
 49
0.0
 74
0
 49
-3.1749999999999998
 74
0
  0
LTYPE
  5
33
100
AcDbSymbolTableRecord
100
AcDbLinetypeTableRecord
  2
DOTX2
 70
0
  3
Dot (2x) .  .  .  .  .  .  .  .  .  .  .  .  .
 72
65
 73
2
 40
12.6999999999999993
 49
0.0
 74
0
 49
-12.6999999999999993
 74
0
  0
LTYPE
  5
34
100
AcDbSymbolTableRecord
100
AcDbLinetypeTableRecord
  2
DASHED
 70
0
  3
Dashed __ __ __ __ __ __ __ __ __ __ __ __ __ _
 72
65
 73
2
 40
19.0500000000000007
 49
12.6999999999999993
 74
0
 49
-6.3499999999999996
 74
0
  0
LTYPE
  5
35
100
AcDbSymbolTableRecord
100
AcDbLinetypeTableRecord
  2
DASHED2
 70
0
  3
Dashed (.5x) _ _ _ _ _ _ _ _ _ _ _ _ _ _ _ _ _
 72
65
 73
2
 40
9.5250000000000004
 49
6.3499999999999996
 74
0
 49
-3.1749999999999998
 74
0
  0
LTYPE
  5
36
100
AcDbSymbolTableRecord
100
AcDbLinetypeTableRecord
  2
DASHEDX2
 70
0
  3
Dashed (2x) ____  ____  ____  ____  ____  ___
 72
65
 73
2
 40
38.1000000000000014
 49
25.3999999999999986
 74
0
 49
-12.6999999999999993
 74
0
  0
LTYPE
  5
37
100
AcDbSymbolTableRecord
100
AcDbLinetypeTableRecord
  2
DASHDOT
 70
0
  3
Dash dot __ . __ . __ . __ . __ . __ . __ . __
 72
65
 73
4
 40
25.3999999999999986
 49
12.6999999999999993
 74
0
 49
-6.3499999999999996
 74
0
 49
0.0
 74
0
 49
-6.3499999999999996
 74
0
  0
LTYPE
  5
38
100
AcDbSymbolTableRecord
100
AcDbLinetypeTableRecord
  2
DASHDOT2
 70
0
  3
Dash dot (.5x) _._._._._._._._._._._._._._._.
 72
65
 73
4
 40
12.6999999999999993
 49
6.3499999999999996
 74
0
 49
-3.1749999999999998
 74
0
 49
0.0
 74
0
 49
-3.1749999999999998
 74
0
  0
LTYPE
  5
39
100
AcDbSymbolTableRecord
100
AcDbLinetypeTableRecord
  2
DASHDOTX2
 70
0
  3
Dash dot (2x) ____  .  ____  .  ____  .  ___
 72
65
 73
4
 40
50.7999999999999972
 49
25.3999999999999986
 74
0
 49
-12.6999999999999993
 74
0
 49
0.0
 74
0
 49
-12.6999999999999993
 74
0
  0
LTYPE
  5
3A
100
AcDbSymbolTableRecord
100
AcDbLinetypeTableRecord
  2
DIVIDE
 70
0
  3
Divide ____ . . ____ . . ____ . . ____ . . ____
 72
65
 73
6
 40
31.75
 49
12.6999999999999993
 74
0
 49
-6.3499999999999996
 74
0
 49
0.0
 74
0
 49
-6.3499999999999996
 74
0
 49
0.0
 74
0
 49
-6.3499999999999996
 74
0
  0
LTYPE
  5
3B
100
AcDbSymbolTableRecord
100
AcDbLinetypeTableRecord
  2
DIVIDE2
 70
0
  3
Divide (.5x) __..__..__..__..__..__..__..__.._
 72
65
 73
6
 40
15.875
 49
6.3499999999999996
 74
0
 49
-3.1749999999999998
 74
0
 49
0.0
 74
0
 49
-3.1749999999999998
 74
0
 49
0.0
 74
0
 49
-3.1749999999999998
 74
0
  0
LTYPE
  5
3C
100
AcDbSymbolTableRecord
100
AcDbLinetypeTableRecord
  2
DIVIDEX2
 70
0
  3
Divide (2x) ________  .  .  ________  .  .  _
 72
65
 73
6
 40
63.5
 49
25.3999999999999986
 74
0
 49
-12.6999999999999993
 74
0
 49
0.0
 74
0
 49
-12.6999999999999993
 74
0
 49
0.0
 74
0
 49
-12.6999999999999993
 74
0
  0
LTYPE
  5
3D
100
AcDbSymbolTableRecord
100
AcDbLinetypeTableRecord
  2
CENTER
 70
0
  3
Center ____ _ ____ _ ____ _ ____ _ ____ _ ____
 72
65
 73
4
 40
50.7999999999999972
 49
31.75
 74
0
 49
-6.3499999999999996
 74
0
 49
6.3499999999999996
 74
0
 49
-6.3499999999999996
 74
0
  0
LTYPE
  5
3E
100
AcDbSymbolTableRecord
100
AcDbLinetypeTableRecord
  2
CENTER2
 70
0
  3
Center (.5x) ___ _ ___ _ ___ _ ___ _ ___ _ ___
 72
65
 73
4
 40
28.5749999999999993
 49
19.0500000000000007
 74
0
 49
-3.1749999999999998
 74
0
 49
3.1749999999999998
 74
0
 49
-3.1749999999999998
 74
0
  0
LTYPE
  5
3F
100
AcDbSymbolTableRecord
100
AcDbLinetypeTableRecord
  2
CENTERX2
 70
0
  3
Center (2x) ________  __  ________  __  _____
 72
65
 73
4
 40
101.5999999999999943
 49
63.5
 74
0
 49
-12.6999999999999993
 74
0
 49
12.6999999999999993
 74
0
 49
-12.6999999999999993
 74
0
  0
LTYPE
  5
40
100
AcDbSymbolTableRecord
100
AcDbLinetypeTableRecord
  2
BORDER
 70
0
  3
Border __ __ . __ __ . __ __ . __ __ . __ __ .
 72
65
 73
6
 40
44.4500000000000028
 49
12.6999999999999993
 74
0
 49
-6.3499999999999996
 74
0
 49
12.6999999999999993
 74
0
 49
-6.3499999999999996
 74
0
 49
0.0
 74
0
 49
-6.3499999999999996
 74
0
  0
LTYPE
  5
41
100
AcDbSymbolTableRecord
100
AcDbLinetypeTableRecord
  2
BORDER2
 70
0
  3
Border (.5x) __.__.__.__.__.__.__.__.__.__.__.
 72
65
 73
6
 40
22.2250000000000014
 49
6.3499999999999996
 74
0
 49
-3.1749999999999998
 74
0
 49
6.3499999999999996
 74
0
 49
-3.1749999999999998
 74
0
 49
0.0
 74
0
 49
-3.1749999999999998
 74
0
  0
LTYPE
  5
42
100
AcDbSymbolTableRecord
100
AcDbLinetypeTableRecord
  2
BORDERX2
 70
0
  3
Border (2x) ____  ____  .  ____  ____  .  ___
 72
65
 73
6
 40
88.9000000000000057
 49
25.3999999999999986
 74
0
 49
-12.6999999999999993
 74
0
 49
25.3999999999999986
 74
0
 49
-12.6999999999999993
 74
0
 49
0.0
 74
0
 49
-12.6999999999999993
 74
0
  0
ENDTAB
  0
TABLE
  2
LAYER
  5
2
100
AcDbSymbolTable
 70
2
  0
LAYER
  5
10
100
AcDbSymbolTableRecord
100
AcDbLayerTableRecord
  2
0
 70
0
 62
7
  6
CONTINUOUS
370
0
390
F
  0
LAYER
  5
43
100
AcDbSymbolTableRecord
100
AcDbLayerTableRecord
  2
Visible (ISO)
 70
0
 62
7
  6
CONTINUOUS
370
0
390
F
  0
ENDTAB
  0
TABLE
  2
STYLE
  5
3
100
AcDbSymbolTable
 70
1
  0
STYLE
  5
11
100
AcDbSymbolTableRecord
100
AcDbTextStyleTableRecord
  2
Standard
 70
0
 40
0.0
 41
0.75
 50
0.0
 71
0
 42
2.5
  3
txt
  4

  0
ENDTAB
  0
TABLE
  2
VIEW
  5
6
100
AcDbSymbolTable
 70
0
  0
ENDTAB
  0
TABLE
  2
UCS
  5
7
100
AcDbSymbolTable
 70
0
  0
ENDTAB
  0
TABLE
  2
APPID
  5
9
100
AcDbSymbolTable
 70
1
  0
APPID
  5
12
100
AcDbSymbolTableRecord
100
AcDbRegAppTableRecord
  2
ACAD
 70
0
  0
ENDTAB
  0
TABLE
  2
DIMSTYLE
  5
A
100
AcDbSymbolTable
 70
1
100
AcDbDimStyleTable
 71
0
  0
DIMSTYLE
105
27
100
AcDbSymbolTableRecord
100
AcDbDimStyleTableRecord
  2
Standard
 41
1.7999999999999989
 42
0.0625
 43
3.75
 44
0.18
 70
0
 73
0
 74
0
 77
1
 78
8
140
0.3499999940395355
141
2.5
143
0.03937007874016
147
0.09
171
3
172
1
271
2
272
2
274
3
278
44
283
0
284
8
340
11
  0
ENDTAB
  0
TABLE
  2
BLOCK_RECORD
  5
1
100
AcDbSymbolTable
 70
1
  0
BLOCK_RECORD
  5
1F
100
AcDbSymbolTableRecord
100
AcDbBlockTableRecord
  2
*Model_Space
340
22
  0
BLOCK_RECORD
  5
1B
100
AcDbSymbolTableRecord
100
AcDbBlockTableRecord
  2
*Paper_Space
340
1E
  0
BLOCK_RECORD
  5
23
100
AcDbSymbolTableRecord
100
AcDbBlockTableRecord
  2
*Paper_Space0
340
26
  0
ENDTAB
  0
ENDSEC
  0
SECTION
  2
BLOCKS
  0
BLOCK
  5
20
100
AcDbEntity
  8
0
100
AcDbBlockBegin
  2
*Model_Space
 70
0
 10
0.0
 20
0.0
 30
0.0
  3
*Model_Space
  1

  0
ENDBLK
  5
21
100
AcDbEntity
  8
0
100
AcDbBlockEnd
  0
BLOCK
  5
1C
100
AcDbEntity
 67
1
  8
0
100
AcDbBlockBegin
  2
*Paper_Space
 70
0
 10
0.0
 20
0.0
 30
0.0
  3
*Paper_Space
  1

  0
ENDBLK
  5
1D
100
AcDbEntity
 67
1
  8
0
100
AcDbBlockEnd
  0
BLOCK
  5
24
100
AcDbEntity
  8
0
100
AcDbBlockBegin
  2
*Paper_Space0
 70
0
 10
0.0
 20
0.0
 30
0.0
  3
*Paper_Space0
  1

  0
ENDBLK
  5
25
100
AcDbEntity
  8
0
100
AcDbBlockEnd
  0
ENDSEC
  0
SECTION
  2
ENTITIES
  0
ELLIPSE
  5
44
100
AcDbEntity
100
AcDbEllipse
  8
Visible (ISO)
 62
256
370
-1
  6
ByLayer
 10
151.3254668630617061
 20
214.7704256602021928
 30
0.0
 11
0.7666102503989763
 21
3.9258513374786901
 31
0.0
 40
0.4500000000000001
 41
0.0
 42
6.2831853071795862
  0
CIRCLE
  5
45
100
AcDbEntity
100
AcDbCircle
  8
Visible (ISO)
 62
256
370
-1
  6
ByLayer
 10
152.5272291899053982
 20
198.4882799997008931
 30
0.0
 40
10.9250000000000007
  0
CIRCLE
  5
46
100
AcDbEntity
100
AcDbCircle
  8
Visible (ISO)
 62
256
370
-1
  6
ByLayer
 10
149.0774830631100087
 20
180.8219489810468872
 30
0.0
 40
2.4249999999999998
  0
CIRCLE
  5
47
100
AcDbEntity
100
AcDbCircle
  8
Visible (ISO)
 62
256
370
-1
  6
ByLayer
 10
155.9769753167007877
 20
216.1546110183550979
 30
0.0
 40
2.4249999999999998
  0
LINE
  5
48
100
AcDbEntity
100
AcDbLine
  8
Visible (ISO)
 62
256
370
-1
  6
ByLayer
 10
143.0603682017427047
 20
178.5691831820537061
 30
0.0
 11
137.6834516719798955
 21
192.9308733204728128
 31
0.0
  0
ARC
  5
49
100
AcDbEntity
  8
Visible (ISO)
 62
256
370
-1
  6
ByLayer
100
AcDbCircle
 10
152.5272291899053982
 20
198.4882799997008931
 30
0.0
 40
15.8499999999999996
100
AcDbArc
 50
137.3759674952218006
 51
200.5255493212027034
  0
LINE
  5
4A
100
AcDbEntity
100
AcDbLine
  8
Visible (ISO)
 62
256
370
-1
  6
ByLayer
 10
140.8645914086094137
 20
209.2216569139013131
 30
0.0
 11
151.2493760898979076
 21
220.5055224804204954
 31
0.0
  0
ARC
  5
4B
100
AcDbEntity
  8
Visible (ISO)
 62
256
370
-1
  6
ByLayer
100
AcDbCircle
 10
155.9769753167007877
 20
216.1546110183550979
 30
0.0
 40
6.424999999999998
100
AcDbArc
 50
20.5255493212026998
 51
137.3759674952219996
  0
LINE
  5
4C
100
AcDbEntity
100
AcDbLine
  8
Visible (ISO)
 62
256
370
-1
  6
ByLayer
 10
161.9940901780680065
 20
218.4073768173481938
 30
0.0
 11
167.371006707830901
 21
204.0456866789290871
 31
0.0
  0
ARC
  5
4D
100
AcDbEntity
  8
Visible (ISO)
 62
256
370
-1
  6
ByLayer
100
AcDbCircle
 10
152.5272291899053982
 20
198.4882799997008931
 30
0.0
 40
15.8499999999999996
100
AcDbArc
 50
317.3759674952219143
 51
20.5255493212026998
  0
LINE
  5
4E
100
AcDbEntity
100
AcDbLine
  8
Visible (ISO)
 62
256
370
-1
  6
ByLayer
 10
164.1898669712012975
 20
187.7549030855005867
 30
0.0
 11
153.8050822899128889
 21
176.4710375189814044
 31
0.0
  0
ARC
  5
4F
100
AcDbEntity
  8
Visible (ISO)
 62
256
370
-1
  6
ByLayer
100
AcDbCircle
 10
149.0774830631100087
 20
180.8219489810468872
 30
0.0
 40
6.4249999999999998
100
AcDbArc
 50
200.5255493212027034
 51
317.3759674952218006
  0
ELLIPSE
  5
50
100
AcDbEntity
100
AcDbEllipse
  8
Visible (ISO)
 62
256
370
-1
  6
ByLayer
 10
155.5547799379060905
 20
264.2057790014118837
 30
0.0
 11
0.8025876265646038
 21
3.9186545014437111
 31
0.0
 40
0.4499999999999995
 41
0.0
 42
6.2831853071795862
  0
CIRCLE
  5
51
100
AcDbEntity
100
AcDbCircle
  8
Visible (ISO)
 62
256
370
-1
  6
ByLayer
 10
156.2560126607380084
 20
246.1988838590386877
 30
0.0
 40
10.9249999999998799
  0
CIRCLE
  5
52
100
AcDbEntity
100
AcDbCircle
  8
Visible (ISO)
 62
256
370
-1
  6
ByLayer
 10
156.2560126607380084
 20
246.1988838590386877
 30
0.0
 40
9.8499999999998913
  0
CIRCLE
  5
53
100
AcDbEntity
100
AcDbCircle
  8
Visible (ISO)
 62
256
370
-1
  6
ByLayer
 10
152.6443683411972074
 20
228.5649386025419858
 30
0.0
 40
2.4249999999999741
  0
CIRCLE
  5
54
100
AcDbEntity
100
AcDbCircle
  8
Visible (ISO)
 62
256
370
-1
  6
ByLayer
 10
159.8676569802786958
 20
263.8328291155353895
 30
0.0
 40
2.4249999999999741
  0
LINE
  5
55
100
AcDbEntity
100
AcDbLine
  8
Visible (ISO)
 62
256
370
-1
  6
ByLayer
 10
146.6068432526479057
 20
226.3674591816746045
 30
0.0
 11
141.3618846212816038
 21
240.7778645873268033
 31
0.0
  0
ARC
  5
56
100
AcDbEntity
  8
Visible (ISO)
 62
256
370
-1
  6
ByLayer
100
AcDbCircle
 10
156.2560126607378947
 20
246.1988838590386877
 30
0.0
 40
15.8499999999998291
100
AcDbArc
 50
136.8504181740196088
 51
200.0000000000005116
  0
LINE
  5
57
100
AcDbEntity
100
AcDbLine
  8
Visible (ISO)
 62
256
370
-1
  6
ByLayer
 10
144.6923167276395077
 20
257.0387840600016034
 30
0.0
 11
155.1801650957260961
 21
268.2269211528342794
 31
0.0
  0
ARC
  5
58
100
AcDbEntity
  8
Visible (ISO)
 62
256
370
-1
  6
ByLayer
100
AcDbCircle
 10
159.8676569802786958
 20
263.8328291155353895
 30
0.0
 40
6.4249999999999279
100
AcDbArc
 50
20.0000000000001812
 51
136.8504181740190973
  0
LINE
  5
59
100
AcDbEntity
100
AcDbLine
  8
Visible (ISO)
 62
256
370
-1
  6
ByLayer
 10
165.9051820688279975
 20
266.030308536402913
 30
0.0
 11
171.1501407001944131
 21
251.6199031307506004
 31
0.0
  0
ARC
  5
5A
100
AcDbEntity
  8
Visible (ISO)
 62
256
370
-1
  6
ByLayer
100
AcDbCircle
 10
156.2560126607380084
 20
246.1988838590386877
 30
0.0
 40
15.8499999999998291
100
AcDbArc
 50
316.8504181740195236
 51
20.0000000000004086
  0
LINE
  5
5B
100
AcDbEntity
100
AcDbLine
  8
Visible (ISO)
 62
256
370
-1
  6
ByLayer
 10
167.8197085938363955
 20
235.3589836580758003
 30
0.0
 11
157.3318602257498071
 21
224.1708465652430959
 31
0.0
  0
ARC
  5
5C
100
AcDbEntity
  8
Visible (ISO)
 62
256
370
-1
  6
ByLayer
100
AcDbCircle
 10
152.6443683411972074
 20
228.5649386025419858
 30
0.0
 40
6.4249999999999297
100
AcDbArc
 50
200.0000000000003979
 51
316.8504181740192962
  0
CIRCLE
  5
5D
100
AcDbEntity
100
AcDbCircle
  8
Visible (ISO)
 62
256
370
-1
  6
ByLayer
 10
198.2459127703426986
 20
171.4828291155359921
 30
0.0
 40
1.4249999999999921
  0
CIRCLE
  5
5E
100
AcDbEntity
100
AcDbCircle
  8
Visible (ISO)
 62
256
370
-1
  6
ByLayer
 10
170.9661125511329942
 20
171.4828291155359921
 30
0.0
 40
1.4249999999999921
  0
CIRCLE
  5
5F
100
AcDbEntity
100
AcDbCircle
  8
Visible (ISO)
 62
256
370
-1
  6
ByLayer
 10
184.6060126607378038
 20
195.1078291155359068
 30
0.0
 40
1.4249999999999921
  0
ARC
  5
60
100
AcDbEntity
  8
Visible (ISO)
 62
256
370
-1
  6
ByLayer
100
AcDbCircle
 10
174.1060126607378891
 20
247.2972627035065045
 30
0.0
 40
1.999999999999984
100
AcDbArc
 50
139.8535388083622877
 51
180.0
  0
CIRCLE
  5
61
100
AcDbEntity
100
AcDbCircle
  8
Visible (ISO)
 62
256
370
-1
  6
ByLayer
 10
168.6060126607380028
 20
183.4578291155359864
 30
0.0
 40
2.4249999999999869
  0
CIRCLE
  5
62
100
AcDbEntity
100
AcDbCircle
  8
Visible (ISO)
 62
256
370
-1
  6
ByLayer
 10
200.6060126607378038
 20
183.4578291155359864
 30
0.0
 40
2.4249999999999869
  0
CIRCLE
  5
63
100
AcDbEntity
100
AcDbCircle
  8
Visible (ISO)
 62
256
370
-1
  6
ByLayer
 10
184.6060126607378038
 20
179.3578291155359921
 30
0.0
 40
1.5999999999999921
  0
ARC
  5
64
100
AcDbEntity
  8
Visible (ISO)
 62
256
370
-1
  6
ByLayer
100
AcDbCircle
 10
184.6060126607378038
 20
179.3578291155359921
 30
0.0
 40
21.4999999999998685
100
AcDbArc
 50
125.548744002872084
 51
41.9107659493316973
  0
LINE
  5
65
100
AcDbEntity
100
AcDbLine
  8
Visible (ISO)
 62
256
370
-1
  6
ByLayer
 10
172.1060126607378891
 20
247.2972627035065045
 30
0.0
 11
172.1060126607378891
 21
196.8506848000718037
 31
0.0
  0
LINE
  5
66
100
AcDbEntity
100
AcDbLine
  8
Visible (ISO)
 62
256
370
-1
  6
ByLayer
 10
200.6060126607378038
 20
206.8578291155359068
 30
0.0
 11
200.6060126607378038
 21
193.7192357318810139
 31
0.0
  0
LINE
  5
67
100
AcDbEntity
100
AcDbLine
  8
Visible (ISO)
 62
256
370
-1
  6
ByLayer
 10
190.8560126607378038
 20
206.8578291155359068
 30
0.0
 11
200.6060126607378038
 21
206.8578291155359068
 31
0.0
  0
ARC
  5
68
100
AcDbEntity
  8
Visible (ISO)
 62
256
370
-1
  6
ByLayer
100
AcDbCircle
 10
190.8560126607378038
 20
209.3578291155359068
 30
0.0
 40
2.4999999999999858
100
AcDbArc
 50
90.0
 51
270.0
  0
LINE
  5
69
100
AcDbEntity
100
AcDbLine
  8
Visible (ISO)
 62
256
370
-1
  6
ByLayer
 10
198.6060126607376901
 20
211.8578291155357931
 30
0.0
 11
190.8560126607378038
 21
211.8578291155357931
 31
0.0
  0
LINE
  5
6A
100
AcDbEntity
100
AcDbLine
  8
Visible (ISO)
 62
256
370
-1
  6
ByLayer
 10
200.6060126607378038
 20
217.3578291155357931
 30
0.0
 11
200.6060126607378038
 21
213.8578291155357931
 31
0.0
  0
LINE
  5
6B
100
AcDbEntity
100
AcDbLine
  8
Visible (ISO)
 62
256
370
-1
  6
ByLayer
 10
190.8560126607378038
 20
219.3578291155357931
 30
0.0
 11
198.6060126607376901
 21
219.3578291155357931
 31
0.0
  0
ARC
  5
6C
100
AcDbEntity
  8
Visible (ISO)
 62
256
370
-1
  6
ByLayer
100
AcDbCircle
 10
190.8560126607378038
 20
221.8578291155357931
 30
0.0
 40
2.4999999999999858
100
AcDbArc
 50
90.0
 51
270.0
  0
LINE
  5
6D
100
AcDbEntity
100
AcDbLine
  8
Visible (ISO)
 62
256
370
-1
  6
ByLayer
 10
198.6060126607376901
 20
224.3578291155357931
 30
0.0
 11
190.8560126607378038
 21
224.3578291155357931
 31
0.0
  0
LINE
  5
6E
100
AcDbEntity
100
AcDbLine
  8
Visible (ISO)
 62
256
370
-1
  6
ByLayer
 10
200.6060126607378038
 20
240.7578291155357135
 30
0.0
 11
200.6060126607378038
 21
226.3578291155357931
 31
0.0
  0
LINE
  5
6F
100
AcDbEntity
100
AcDbLine
  8
Visible (ISO)
 62
256
370
-1
  6
ByLayer
 10
190.8560126607378038
 20
242.7578291155357135
 30
0.0
 11
198.6060126607376901
 21
242.7578291155357135
 31
0.0
  0
ARC
  5
70
100
AcDbEntity
  8
Visible (ISO)
 62
256
370
-1
  6
ByLayer
100
AcDbCircle
 10
190.8560126607378038
 20
245.2578291155357135
 30
0.0
 40
2.4999999999999858
100
AcDbArc
 50
90.0
 51
270.0
  0
LINE
  5
71
100
AcDbEntity
100
AcDbLine
  8
Visible (ISO)
 62
256
370
-1
  6
ByLayer
 10
198.6060126607376901
 20
247.7578291155355998
 30
0.0
 11
190.8560126607378038
 21
247.7578291155355998
 31
0.0
  0
LINE
  5
72
100
AcDbEntity
100
AcDbLine
  8
Visible (ISO)
 62
256
370
-1
  6
ByLayer
 10
200.6060126607378038
 20
253.2578291155355998
 30
0.0
 11
200.6060126607378038
 21
249.7578291155357135
 31
0.0
  0
LINE
  5
73
100
AcDbEntity
100
AcDbLine
  8
Visible (ISO)
 62
256
370
-1
  6
ByLayer
 10
190.8560126607378038
 20
255.2578291155355998
 30
0.0
 11
198.6060126607376901
 21
255.2578291155355998
 31
0.0
  0
ARC
  5
74
100
AcDbEntity
  8
Visible (ISO)
 62
256
370
-1
  6
ByLayer
100
AcDbCircle
 10
190.8560126607378038
 20
257.7578291155356283
 30
0.0
 40
2.4999999999999858
100
AcDbArc
 50
90.0
 51
270.0
  0
LINE
  5
75
100
AcDbEntity
100
AcDbLine
  8
Visible (ISO)
 62
256
370
-1
  6
ByLayer
 10
198.6060126607376901
 20
260.2578291155356283
 30
0.0
 11
190.8560126607378038
 21
260.2578291155356283
 31
0.0
  0
LINE
  5
76
100
AcDbEntity
100
AcDbLine
  8
Visible (ISO)
 62
256
370
-1
  6
ByLayer
 10
200.6060126607378038
 20
268.2578291155355146
 30
0.0
 11
200.6060126607378038
 21
262.2578291155356283
 31
0.0
  0
LINE
  5
77
100
AcDbEntity
100
AcDbLine
  8
Visible (ISO)
 62
256
370
-1
  6
ByLayer
 10
191.7855177651088923
 20
270.2578291155356283
 30
0.0
 11
198.6060126607376901
 21
270.2578291155356283
 31
0.0
  0
LINE
  5
78
100
AcDbEntity
100
AcDbLine
  8
Visible (ISO)
 62
256
370
-1
  6
ByLayer
 10
172.5772150024610028
 20
248.5867500900469906
 30
0.0
 11
190.256720106832006
 21
269.5473165020761144
 31
0.0
  0
ARC
  5
79
100
AcDbEntity
  8
Visible (ISO)
 62
256
370
-1
  6
ByLayer
100
AcDbCircle
 10
198.6060126607376901
 20
213.8578291155357931
 30
0.0
 40
1.999999999999996
100
AcDbArc
 50
270.0
 51
0.0
  0
ARC
  5
7A
100
AcDbEntity
  8
Visible (ISO)
 62
256
370
-1
  6
ByLayer
100
AcDbCircle
 10
198.6060126607378038
 20
217.3578291155357931
 30
0.0
 40
1.999999999999986
100
AcDbArc
 50
0.0
 51
90.0
  0
ARC
  5
7B
100
AcDbEntity
  8
Visible (ISO)
 62
256
370
-1
  6
ByLayer
100
AcDbCircle
 10
198.6060126607378038
 20
226.3578291155357931
 30
0.0
 40
1.999999999999984
100
AcDbArc
 50
269.9999999999989768
 51
0.0
  0
ARC
  5
7C
100
AcDbEntity
  8
Visible (ISO)
 62
256
370
-1
  6
ByLayer
100
AcDbCircle
 10
198.6060126607378038
 20
240.7578291155357135
 30
0.0
 40
1.999999999999982
100
AcDbArc
 50
0.0
 51
90.0
  0
ARC
  5
7D
100
AcDbEntity
  8
Visible (ISO)
 62
256
370
-1
  6
ByLayer
100
AcDbCircle
 10
198.6060126607378038
 20
249.7578291155355998
 30
0.0
 40
1.999999999999978
100
AcDbArc
 50
270.0
 51
0.0
  0
ARC
  5
7E
100
AcDbEntity
  8
Visible (ISO)
 62
256
370
-1
  6
ByLayer
100
AcDbCircle
 10
198.6060126607376901
 20
253.2578291155355998
 30
0.0
 40
2.0
100
AcDbArc
 50
0.0
 51
90.0
  0
ARC
  5
7F
100
AcDbEntity
  8
Visible (ISO)
 62
256
370
-1
  6
ByLayer
100
AcDbCircle
 10
198.6060126607378038
 20
262.2578291155356283
 30
0.0
 40
1.999999999999982
100
AcDbArc
 50
270.0
 51
0.0
  0
ARC
  5
80
100
AcDbEntity
  8
Visible (ISO)
 62
256
370
-1
  6
ByLayer
100
AcDbCircle
 10
198.6060126607378038
 20
268.2578291155355146
 30
0.0
 40
1.999999999999982
100
AcDbArc
 50
0.0
 51
90.0
  0
ARC
  5
81
100
AcDbEntity
  8
Visible (ISO)
 62
256
370
-1
  6
ByLayer
100
AcDbCircle
 10
191.7855177651088923
 20
268.2578291155356283
 30
0.0
 40
1.999999999999911
100
AcDbArc
 50
89.9999999999989768
 51
139.8535388083631972
  0
CIRCLE
  5
82
100
AcDbEntity
100
AcDbCircle
  8
Visible (ISO)
 62
256
370
-1
  6
ByLayer
 10
127.0158826232975002
 20
171.3147991298490069
 30
0.0
 40
1.425
  0
CIRCLE
  5
83
100
AcDbEntity
100
AcDbCircle
  8
Visible (ISO)
 62
256
370
-1
  6
ByLayer
 10
102.2966535882484038
 20
182.8537425785700918
 30
0.0
 40
1.425
  0
CIRCLE
  5
84
100
AcDbEntity
100
AcDbCircle
  8
Visible (ISO)
 62
256
370
-1
  6
ByLayer
 10
124.6492862651975031
 20
198.4917511605279969
 30
0.0
 40
1.425
  0
CIRCLE
  5
85
100
AcDbEntity
100
AcDbCircle
  8
Visible (ISO)
 62
256
370
-1
  6
ByLayer
 10
134.2196999517074971
 20
181.1674998962145935
 30
0.0
 40
2.4249999999999998
  0
CIRCLE
  5
86
100
AcDbEntity
100
AcDbCircle
  8
Visible (ISO)
 62
256
370
-1
  6
ByLayer
 10
105.2233245103449946
 20
194.7030165565992093
 30
0.0
 40
2.4249999999999998
  0
CIRCLE
  5
87
100
AcDbEntity
100
AcDbCircle
  8
Visible (ISO)
 62
256
370
-1
  6
ByLayer
 10
117.9872741589145022
 20
184.2200976229823937
 30
0.0
 40
5.2000000000000002
  0
CIRCLE
  5
88
100
AcDbEntity
100
AcDbCircle
  8
Visible (ISO)
 62
256
370
-1
  6
ByLayer
 10
117.9872741589145022
 20
184.2200976229823937
 30
0.0
 40
21.5
  0
CIRCLE
  5
89
100
AcDbEntity
100
AcDbCircle
  8
Visible (ISO)
 62
256
370
-1
  6
ByLayer
 10
70.1113561389601756
 20
200.9578291155355885
 30
0.0
 40
1.5
  0
CIRCLE
  5
8A
100
AcDbEntity
100
AcDbCircle
  8
Visible (ISO)
 62
256
370
-1
  6
ByLayer
 10
70.1113561389601756
 20
205.9578291155355032
 30
0.0
 40
1.5
  0
ARC
  5
8B
100
AcDbEntity
  8
Visible (ISO)
 62
256
370
-1
  6
ByLayer
100
AcDbCircle
 10
75.6113561389601614
 20
199.9578291155355032
 30
0.0
 40
2.000000000000008
100
AcDbArc
 50
270.0000000000005116
 51
0.0
  0
ARC
  5
8C
100
AcDbEntity
  8
Visible (ISO)
 62
256
370
-1
  6
ByLayer
100
AcDbCircle
 10
60.6113561389601614
 20
208.4642404259176089
 30
0.0
 40
1.999999999999998
100
AcDbArc
 50
0.0
 51
91.4692835813537926
  0
ARC
  5
8D
100
AcDbEntity
  8
Visible (ISO)
 62
256
370
-1
  6
ByLayer
100
AcDbCircle
 10
64.6113561389601614
 20
199.9578291155355032
 30
0.0
 40
1.999999999999988
100
AcDbArc
 50
180.0
 51
270.0000000000002274
  0
LINE
  5
8E
100
AcDbEntity
100
AcDbLine
  8
Visible (ISO)
 62
256
370
-1
  6
ByLayer
 10
75.6113561389601898
 20
197.9578291155355032
 30
0.0
 11
64.6113561389601756
 21
197.9578291155355032
 31
0.0
  0
LINE
  5
8F
100
AcDbEntity
100
AcDbLine
  8
Visible (ISO)
 62
256
370
-1
  6
ByLayer
 10
77.6113561389601614
 20
220.5264490393946062
 30
0.0
 11
77.6113561389601614
 21
199.9578291155355032
 31
0.0
  0
LINE
  5
90
100
AcDbEntity
100
AcDbLine
  8
Visible (ISO)
 62
256
370
-1
  6
ByLayer
 10
62.6113561389601685
 20
199.9578291155355032
 30
0.0
 11
62.6113561389601685
 21
208.4642404259176089
 31
0.0
  0
LINE
  5
91
100
AcDbEntity
100
AcDbLine
  8
Visible (ISO)
 62
256
370
-1
  6
ByLayer
 10
77.6113561389601614
 20
220.5264490393946062
 30
0.0
 11
79.0945594166003048
 21
221.957909725929909
 31
0.0
  0
ARC
  5
92
100
AcDbEntity
  8
Visible (ISO)
 62
256
370
-1
  6
ByLayer
100
AcDbCircle
 10
79.1113561389601614
 20
223.7078291155355885
 30
0.0
 40
1.7499999999999989
100
AcDbArc
 50
89.9999999999991189
 51
269.4500593840598981
  0
LINE
  5
93
100
AcDbEntity
100
AcDbLine
  8
Visible (ISO)
 62
256
370
-1
  6
ByLayer
 10
79.111356138960133
 20
225.4578291155355885
 30
0.0
 11
82.4414831578823737
 21
225.4578291155355885
 31
0.0
  0
ARC
  5
94
100
AcDbEntity
  8
Visible (ISO)
 62
256
370
-1
  6
ByLayer
100
AcDbCircle
 10
78.1113561389601614
 20
227.9578291155355885
 30
0.0
 40
4.9999999999999911
100
AcDbArc
 50
330.0
 51
31.0027191338739598
  0
LINE
  5
95
100
AcDbEntity
100
AcDbLine
  8
Visible (ISO)
 62
256
370
-1
  6
ByLayer
 10
87.1113561389601756
 20
251.5328291155356055
 30
0.0
 11
87.1113561389601756
 21
241.1467204791314884
 31
0.0
  0
LINE
  5
96
100
AcDbEntity
100
AcDbLine
  8
Visible (ISO)
 62
256
370
-1
  6
ByLayer
 10
87.1113561389601756
 20
261.5328291155356055
 30
0.0
 11
87.1113561389601756
 21
254.3828291155355998
 31
0.0
  0
LINE
  5
97
100
AcDbEntity
100
AcDbLine
  8
Visible (ISO)
 62
256
370
-1
  6
ByLayer
 10
87.1113561389601756
 20
268.2578291155356283
 30
0.0
 11
87.1113561389601756
 21
264.3828291155356283
 31
0.0
  0
LINE
  5
98
100
AcDbEntity
100
AcDbLine
  8
Visible (ISO)
 62
256
370
-1
  6
ByLayer
 10
85.111356138960133
 20
270.2578291155356283
 30
0.0
 11
40.7113561389601699
 21
270.2578291155356283
 31
0.0
  0
ARC
  5
99
100
AcDbEntity
  8
Visible (ISO)
 62
256
370
-1
  6
ByLayer
100
AcDbCircle
 10
40.7113561389601273
 20
266.7578291155355146
 30
0.0
 40
3.5
100
AcDbArc
 50
90.0
 51
180.0
  0
LINE
  5
9A
100
AcDbEntity
100
AcDbLine
  8
Visible (ISO)
 62
256
370
-1
  6
ByLayer
 10
37.2113561389601486
 20
266.7578291155355146
 30
0.0
 11
37.2113561389601912
 21
228.9528165526421901
 31
0.0
  0
ARC
  5
9B
100
AcDbEntity
  8
Visible (ISO)
 62
256
370
-1
  6
ByLayer
100
AcDbCircle
 10
42.1113561389601827
 20
227.9578291155355885
 30
0.0
 40
5.0000000000000089
100
AcDbArc
 50
168.5216590454660945
 51
226.0170368696414869
  0
LINE
  5
9C
100
AcDbEntity
100
AcDbLine
  8
Visible (ISO)
 62
256
370
-1
  6
ByLayer
 10
38.63913391673794
 20
224.3600974913719881
 30
0.0
 11
47.9585783611824112
 21
215.3657684309632998
 31
0.0
  0
ARC
  5
9D
100
AcDbEntity
  8
Visible (ISO)
 62
256
370
-1
  6
ByLayer
100
AcDbCircle
 10
60.1113561389601614
 20
227.9578291155355885
 30
0.0
 40
17.5000000000000107
100
AcDbArc
 50
226.0170368696414869
 51
271.4692835813538068
  0
CIRCLE
  5
9E
100
AcDbEntity
100
AcDbCircle
  8
Visible (ISO)
 62
256
370
-1
  6
ByLayer
 10
60.1113561389601472
 20
257.9578291155355032
 30
0.0
 40
3.75
  0
CIRCLE
  5
9F
100
AcDbEntity
100
AcDbCircle
  8
Visible (ISO)
 62
256
370
-1
  6
ByLayer
 10
42.1113561389601614
 20
227.9578291155355885
 30
0.0
 40
2.4249999999999989
  0
CIRCLE
  5
A0
100
AcDbEntity
100
AcDbCircle
  8
Visible (ISO)
 62
256
370
-1
  6
ByLayer
 10
78.1113561389601614
 20
227.9578291155355885
 30
0.0
 40
2.4249999999999989
  0
CIRCLE
  5
A1
100
AcDbEntity
100
AcDbCircle
  8
Visible (ISO)
 62
256
370
-1
  6
ByLayer
 10
49.1113561389601401
 20
257.9578291155355032
 30
0.0
 40
2.25
  0
CIRCLE
  5
A2
100
AcDbEntity
100
AcDbCircle
  8
Visible (ISO)
 62
256
370
-1
  6
ByLayer
 10
40.7113561389601273
 20
266.7578291155355146
 30
0.0
 40
1.425
  0
CIRCLE
  5
A3
100
AcDbEntity
100
AcDbCircle
  8
Visible (ISO)
 62
256
370
-1
  6
ByLayer
 10
40.7113561389601415
 20
249.1578291155354918
 30
0.0
 40
1.425
  0
LINE
  5
A4
100
AcDbEntity
100
AcDbLine
  8
Visible (ISO)
 62
256
370
-1
  6
ByLayer
 10
72.1113561389601756
 20
266.7578291155355146
 30
0.0
 11
72.1113561389601756
 21
266.9578291155356169
 31
0.0
  0
ARC
  5
A5
100
AcDbEntity
  8
Visible (ISO)
 62
256
370
-1
  6
ByLayer
100
AcDbCircle
 10
68.6113561389626341
 20
266.7578291155356283
 30
0.0
 40
3.4999999999975211
100
AcDbArc
 50
0.0
 51
3.2758289597993961
  0
ARC
  5
A6
100
AcDbEntity
  8
Visible (ISO)
 62
256
370
-1
  6
ByLayer
100
AcDbCircle
 10
84.111356138960204
 20
231.5633803909994981
 30
0.0
 40
2.0000000000000631
100
AcDbArc
 50
180.0
 51
211.0027191338735122
  0
ARC
  5
A7
100
AcDbEntity
  8
Visible (ISO)
 62
256
370
-1
  6
ByLayer
100
AcDbCircle
 10
84.1113561389601614
 20
237.1467204791314884
 30
0.0
 40
2.0000000000000049
100
AcDbArc
 50
90.0
 51
180.0
  0
ARC
  5
A8
100
AcDbEntity
  8
Visible (ISO)
 62
256
370
-1
  6
ByLayer
100
AcDbCircle
 10
85.111356138960133
 20
241.1467204791314884
 30
0.0
 40
2.0000000000000062
100
AcDbArc
 50
270.0000000000005116
 51
0.0
  0
ARC
  5
A9
100
AcDbEntity
  8
Visible (ISO)
 62
256
370
-1
  6
ByLayer
100
AcDbCircle
 10
85.111356138960133
 20
268.2578291155356283
 30
0.0
 40
2.0000000000000102
100
AcDbArc
 50
0.0
 51
89.9999999999994742
  0
LINE
  5
AA
100
AcDbEntity
100
AcDbLine
  8
Visible (ISO)
 62
256
370
-1
  6
ByLayer
 10
82.1113561389601756
 20
237.1467204791314884
 30
0.0
 11
82.1113561389601756
 21
231.5633803909994981
 31
0.0
  0
LINE
  5
AB
100
AcDbEntity
100
AcDbLine
  8
Visible (ISO)
 62
256
370
-1
  6
ByLayer
 10
85.1113561389601898
 20
239.1467204791314884
 30
0.0
 11
84.111356138960204
 21
239.1467204791314884
 31
0.0
  0
LINE
  5
AC
100
AcDbEntity
100
AcDbLine
  8
Visible (ISO)
 62
256
370
-1
  6
ByLayer
 10
72.1113561389601756
 20
266.9578291155356169
 30
0.0
 11
72.1056371808913923
 21
266.9578291155356169
 31
0.0
  0
LINE
  5
AD
100
AcDbEntity
100
AcDbLine
  8
Visible (ISO)
 62
256
370
-1
  6
ByLayer
 10
87.1113561389601756
 20
251.5328291155356055
 30
0.0
 11
83.6113561389601472
 21
251.5328291155356055
 31
0.0
  0
LINE
  5
AE
100
AcDbEntity
100
AcDbLine
  8
Visible (ISO)
 62
256
370
-1
  6
ByLayer
 10
83.6113561389601472
 20
251.5328291155356055
 30
0.0
 11
83.6113561389601472
 21
251.0078291155355998
 31
0.0
  0
LINE
  5
AF
100
AcDbEntity
100
AcDbLine
  8
Visible (ISO)
 62
256
370
-1
  6
ByLayer
 10
83.0113561389601671
 20
250.4078291155356055
 30
0.0
 11
81.7113561389601415
 21
250.4078291155356055
 31
0.0
  0
LINE
  5
B0
100
AcDbEntity
100
AcDbLine
  8
Visible (ISO)
 62
256
370
-1
  6
ByLayer
 10
81.1113561389601472
 20
251.0078291155355998
 30
0.0
 11
81.1113561389601472
 21
251.5328291155356055
 31
0.0
  0
LINE
  5
B1
100
AcDbEntity
100
AcDbLine
  8
Visible (ISO)
 62
256
370
-1
  6
ByLayer
 10
81.1113561389601472
 20
251.5328291155356055
 30
0.0
 11
79.7113561389601557
 21
251.5328291155356055
 31
0.0
  0
LINE
  5
B2
100
AcDbEntity
100
AcDbLine
  8
Visible (ISO)
 62
256
370
-1
  6
ByLayer
 10
79.1113561389601614
 20
252.1328291155355998
 30
0.0
 11
79.1113561389601614
 21
253.7828291155356055
 31
0.0
  0
LINE
  5
B3
100
AcDbEntity
100
AcDbLine
  8
Visible (ISO)
 62
256
370
-1
  6
ByLayer
 10
79.7113561389601557
 20
254.3828291155355998
 30
0.0
 11
81.1113561389601472
 21
254.3828291155355998
 31
0.0
  0
LINE
  5
B4
100
AcDbEntity
100
AcDbLine
  8
Visible (ISO)
 62
256
370
-1
  6
ByLayer
 10
81.1113561389601472
 20
254.3828291155355998
 30
0.0
 11
81.1113561389601472
 21
254.9078291155356055
 31
0.0
  0
LINE
  5
B5
100
AcDbEntity
100
AcDbLine
  8
Visible (ISO)
 62
256
370
-1
  6
ByLayer
 10
81.7113561389601415
 20
255.5078291155354862
 30
0.0
 11
83.0113561389601671
 21
255.5078291155354862
 31
0.0
  0
LINE
  5
B6
100
AcDbEntity
100
AcDbLine
  8
Visible (ISO)
 62
256
370
-1
  6
ByLayer
 10
83.6113561389601472
 20
254.9078291155356055
 30
0.0
 11
83.6113561389601472
 21
254.3828291155355998
 31
0.0
  0
LINE
  5
B7
100
AcDbEntity
100
AcDbLine
  8
Visible (ISO)
 62
256
370
-1
  6
ByLayer
 10
83.6113561389601472
 20
254.3828291155355998
 30
0.0
 11
87.1113561389601756
 21
254.3828291155355998
 31
0.0
  0
LINE
  5
B8
100
AcDbEntity
100
AcDbLine
  8
Visible (ISO)
 62
256
370
-1
  6
ByLayer
 10
87.1113561389601756
 20
261.5328291155356055
 30
0.0
 11
83.6113561389601472
 21
261.5328291155356055
 31
0.0
  0
LINE
  5
B9
100
AcDbEntity
100
AcDbLine
  8
Visible (ISO)
 62
256
370
-1
  6
ByLayer
 10
83.6113561389601472
 20
261.5328291155356055
 30
0.0
 11
83.6113561389601472
 21
261.0078291155356283
 31
0.0
  0
LINE
  5
BA
100
AcDbEntity
100
AcDbLine
  8
Visible (ISO)
 62
256
370
-1
  6
ByLayer
 10
83.0113561389601671
 20
260.4078291155356055
 30
0.0
 11
81.7113561389601415
 21
260.4078291155356055
 31
0.0
  0
LINE
  5
BB
100
AcDbEntity
100
AcDbLine
  8
Visible (ISO)
 62
256
370
-1
  6
ByLayer
 10
81.1113561389601472
 20
261.0078291155356283
 30
0.0
 11
81.1113561389601472
 21
261.5328291155356055
 31
0.0
  0
LINE
  5
BC
100
AcDbEntity
100
AcDbLine
  8
Visible (ISO)
 62
256
370
-1
  6
ByLayer
 10
81.1113561389601472
 20
261.5328291155356055
 30
0.0
 11
79.7113561389601557
 21
261.5328291155356055
 31
0.0
  0
LINE
  5
BD
100
AcDbEntity
100
AcDbLine
  8
Visible (ISO)
 62
256
370
-1
  6
ByLayer
 10
79.1113561389601614
 20
262.1328291155356283
 30
0.0
 11
79.1113561389601614
 21
263.7828291155356055
 31
0.0
  0
LINE
  5
BE
100
AcDbEntity
100
AcDbLine
  8
Visible (ISO)
 62
256
370
-1
  6
ByLayer
 10
79.7113561389601557
 20
264.3828291155355146
 30
0.0
 11
81.1113561389601472
 21
264.3828291155356283
 31
0.0
  0
LINE
  5
BF
100
AcDbEntity
100
AcDbLine
  8
Visible (ISO)
 62
256
370
-1
  6
ByLayer
 10
81.1113561389601472
 20
264.3828291155356283
 30
0.0
 11
81.1113561389601472
 21
264.9078291155356055
 31
0.0
  0
LINE
  5
C0
100
AcDbEntity
100
AcDbLine
  8
Visible (ISO)
 62
256
370
-1
  6
ByLayer
 10
81.7113561389601415
 20
265.5078291155355146
 30
0.0
 11
83.0113561389601671
 21
265.5078291155355146
 31
0.0
  0
LINE
  5
C1
100
AcDbEntity
100
AcDbLine
  8
Visible (ISO)
 62
256
370
-1
  6
ByLayer
 10
83.6113561389601472
 20
264.9078291155356055
 30
0.0
 11
83.6113561389601472
 21
264.3828291155356283
 31
0.0
  0
LINE
  5
C2
100
AcDbEntity
100
AcDbLine
  8
Visible (ISO)
 62
256
370
-1
  6
ByLayer
 10
83.6113561389601472
 20
264.3828291155356283
 30
0.0
 11
87.1113561389601756
 21
264.3828291155356283
 31
0.0
  0
ARC
  5
C3
100
AcDbEntity
  8
Visible (ISO)
 62
256
370
-1
  6
ByLayer
100
AcDbCircle
 10
83.0113561389601671
 20
251.0078291155354862
 30
0.0
 40
0.5999999999999739
100
AcDbArc
 50
269.9999999999982947
 51
0.0
  0
ARC
  5
C4
100
AcDbEntity
  8
Visible (ISO)
 62
256
370
-1
  6
ByLayer
100
AcDbCircle
 10
81.7113561389601131
 20
251.0078291155354862
 30
0.0
 40
0.5999999999999739
100
AcDbArc
 50
180.0
 51
270.0000000000017053
  0
ARC
  5
C5
100
AcDbEntity
  8
Visible (ISO)
 62
256
370
-1
  6
ByLayer
100
AcDbCircle
 10
79.7113561389601273
 20
252.1328291155355998
 30
0.0
 40
0.5999999999999961
100
AcDbArc
 50
180.0
 51
270.0000000000007958
  0
ARC
  5
C6
100
AcDbEntity
  8
Visible (ISO)
 62
256
370
-1
  6
ByLayer
100
AcDbCircle
 10
79.7113561389601557
 20
253.7828291155356055
 30
0.0
 40
0.600000000000005
100
AcDbArc
 50
90.0000000000008669
 51
180.0
  0
ARC
  5
C7
100
AcDbEntity
  8
Visible (ISO)
 62
256
370
-1
  6
ByLayer
100
AcDbCircle
 10
81.7113561389601131
 20
254.9078291155356055
 30
0.0
 40
0.5999999999999872
100
AcDbArc
 50
90.0
 51
180.0
  0
ARC
  5
C8
100
AcDbEntity
  8
Visible (ISO)
 62
256
370
-1
  6
ByLayer
100
AcDbCircle
 10
83.0113561389601671
 20
254.9078291155356055
 30
0.0
 40
0.5999999999999784
100
AcDbArc
 50
0.0
 51
90.0000000000017053
  0
ARC
  5
C9
100
AcDbEntity
  8
Visible (ISO)
 62
256
370
-1
  6
ByLayer
100
AcDbCircle
 10
83.0113561389601671
 20
261.0078291155356283
 30
0.0
 40
0.5999999999999739
100
AcDbArc
 50
269.9999999999982947
 51
0.0
  0
ARC
  5
CA
100
AcDbEntity
  8
Visible (ISO)
 62
256
370
-1
  6
ByLayer
100
AcDbCircle
 10
81.7113561389601131
 20
261.0078291155356283
 30
0.0
 40
0.5999999999999872
100
AcDbArc
 50
180.0
 51
270.0000000000017053
  0
ARC
  5
CB
100
AcDbEntity
  8
Visible (ISO)
 62
256
370
-1
  6
ByLayer
100
AcDbCircle
 10
79.7113561389601273
 20
262.1328291155356283
 30
0.0
 40
0.5999999999999961
100
AcDbArc
 50
180.0
 51
270.0000000000007958
  0
ARC
  5
CC
100
AcDbEntity
  8
Visible (ISO)
 62
256
370
-1
  6
ByLayer
100
AcDbCircle
 10
79.7113561389601415
 20
263.7828291155356055
 30
0.0
 40
0.5999999999999961
100
AcDbArc
 50
90.0
 51
180.0
  0
ARC
  5
CD
100
AcDbEntity
  8
Visible (ISO)
 62
256
370
-1
  6
ByLayer
100
AcDbCircle
 10
81.7113561389601131
 20
264.9078291155356055
 30
0.0
 40
0.5999999999999917
100
AcDbArc
 50
90.0
 51
180.0
  0
ARC
  5
CE
100
AcDbEntity
  8
Visible (ISO)
 62
256
370
-1
  6
ByLayer
100
AcDbCircle
 10
83.0113561389601529
 20
264.9078291155356055
 30
0.0
 40
0.5999999999999917
100
AcDbArc
 50
0.0
 51
90.0000000000017053
  0
CIRCLE
  5
CF
100
AcDbEntity
100
AcDbCircle
  8
Visible (ISO)
 62
256
370
-1
  6
ByLayer
 10
60.1113561389601614
 20
227.9578291155355885
 30
0.0
 40
10.9250000000000007
  0
CIRCLE
  5
D0
100
AcDbEntity
100
AcDbCircle
  8
Visible (ISO)
 62
256
370
-1
  6
ByLayer
 10
60.1113561389601614
 20
227.9578291155355885
 30
0.0
 40
9.8499999999999996
  0
ARC
  5
D1
100
AcDbEntity
  8
Visible (ISO)
 62
256
370
-1
  6
ByLayer
100
AcDbCircle
 10
79.6113561389601756
 20
219.6771484592638046
 30
0.0
 40
1.999999999999984
100
AcDbArc
 50
90.0
 51
180.0
  0
ARC
  5
D2
100
AcDbEntity
  8
Visible (ISO)
 62
256
370
-1
  6
ByLayer
100
AcDbCircle
 10
91.6113561389600761
 20
198.3717111058020066
 30
0.0
 40
1.9999999999999829
100
AcDbArc
 50
180.0
 51
267.5080936310203015
  0
ARC
  5
D3
100
AcDbEntity
  8
Visible (ISO)
 62
256
370
-1
  6
ByLayer
100
AcDbCircle
 10
87.6113561389601045
 20
219.6771484592638046
 30
0.0
 40
1.999999999999986
100
AcDbArc
 50
0.0
 51
90.0
  0
LINE
  5
D4
100
AcDbEntity
100
AcDbLine
  8
Visible (ISO)
 62
256
370
-1
  6
ByLayer
 10
79.6113561389602182
 20
221.6771484592638046
 30
0.0
 11
87.611356138960133
 21
221.6771484592638046
 31
0.0
  0
CIRCLE
  5
D5
100
AcDbEntity
100
AcDbCircle
  8
Visible (ISO)
 62
256
370
-1
  6
ByLayer
 10
86.361356138960133
 20
218.6771484592638046
 30
0.0
 40
1.6249999999999869
  0
CIRCLE
  5
D6
100
AcDbEntity
100
AcDbCircle
  8
Visible (ISO)
 62
256
370
-1
  6
ByLayer
 10
86.361356138960133
 20
199.6271484592639069
 30
0.0
 40
1.6249999999999869
  0
CIRCLE
  5
D7
100
AcDbEntity
100
AcDbCircle
  8
Visible (ISO)
 62
256
370
-1
  6
ByLayer
 10
91.3613561389600903
 20
192.6271484592639069
 30
0.0
 40
1.6249999999999869
  0
CIRCLE
  5
D8
100
AcDbEntity
100
AcDbCircle
  8
Visible (ISO)
 62
256
370
-1
  6
ByLayer
 10
81.3613561389601756
 20
192.6271484592639069
 30
0.0
 40
1.6249999999999869
  0
LINE
  5
D9
100
AcDbEntity
100
AcDbLine
  8
Visible (ISO)
 62
256
370
-1
  6
ByLayer
 10
77.6113561389602182
 20
192.6271484592639069
 30
0.0
 11
77.6113561389601898
 21
219.6771484592638046
 31
0.0
  0
ARC
  5
DA
100
AcDbEntity
  8
Visible (ISO)
 62
256
370
-1
  6
ByLayer
100
AcDbCircle
 10
81.3613561389601756
 20
192.6271484592639069
 30
0.0
 40
3.7499999999999751
100
AcDbArc
 50
180.0
 51
270.0
  0
LINE
  5
DB
100
AcDbEntity
100
AcDbLine
  8
Visible (ISO)
 62
256
370
-1
  6
ByLayer
 10
91.3613561389600903
 20
188.8771484592639922
 30
0.0
 11
81.3613561389601756
 21
188.8771484592639922
 31
0.0
  0
ARC
  5
DC
100
AcDbEntity
  8
Visible (ISO)
 62
256
370
-1
  6
ByLayer
100
AcDbCircle
 10
91.3613561389600903
 20
192.6271484592639069
 30
0.0
 40
3.7499999999999751
100
AcDbArc
 50
270.0
 51
87.5080936310201878
  0
LINE
  5
DD
100
AcDbEntity
100
AcDbLine
  8
Visible (ISO)
 62
256
370
-1
  6
ByLayer
 10
89.611356138960133
 20
219.6771484592638046
 30
0.0
 11
89.611356138960133
 21
198.3717111058020066
 31
0.0
  0
CIRCLE
  5
DE
100
AcDbEntity
100
AcDbCircle
  8
Visible (ISO)
 62
256
370
-1
  6
ByLayer
 10
152.5272291899053982
 20
198.4882799997008931
 30
0.0
 40
1.25
  0
CIRCLE
  5
DF
100
AcDbEntity
100
AcDbCircle
  8
Visible (ISO)
 62
256
370
-1
  6
ByLayer
 10
152.5272291899053982
 20
198.4882799997008931
 30
0.0
 40
8.5000000000000071
  0
CIRCLE
  5
E0
100
AcDbEntity
100
AcDbCircle
  8
Visible (ISO)
 62
256
370
-1
  6
ByLayer
 10
156.2560126607380084
 20
246.1988838590386877
 30
0.0
 40
1.249999999999998
  0
CIRCLE
  5
E1
100
AcDbEntity
100
AcDbCircle
  8
Visible (ISO)
 62
256
370
-1
  6
ByLayer
 10
156.2560126607380084
 20
246.1988838590386877
 30
0.0
 40
8.4999999999999947
  0
CIRCLE
  5
E2
100
AcDbEntity
100
AcDbCircle
  8
Visible (ISO)
 62
256
370
-1
  6
ByLayer
 10
104.111356138960403
 20
241.2578291155357988
 30
0.0
 40
1.424999999999996
  0
CIRCLE
  5
E3
100
AcDbEntity
100
AcDbCircle
  8
Visible (ISO)
 62
256
370
-1
  6
ByLayer
 10
120.1113561389601045
 20
263.2578291155359125
 30
0.0
 40
1.424999999999996
  0
CIRCLE
  5
E4
100
AcDbEntity
100
AcDbCircle
  8
Visible (ISO)
 62
256
370
-1
  6
ByLayer
 10
104.111356138960204
 20
263.2578291155357988
 30
0.0
 40
1.424999999999996
  0
CIRCLE
  5
E5
100
AcDbEntity
100
AcDbCircle
  8
Visible (ISO)
 62
256
370
-1
  6
ByLayer
 10
134.9242290963449875
 20
229.2271337746867061
 30
0.0
 40
1.424999999999996
  0
CIRCLE
  5
E6
100
AcDbEntity
100
AcDbCircle
  8
Visible (ISO)
 62
256
370
-1
  6
ByLayer
 10
106.7334504727679985
 20
218.9665294749163991
 30
0.0
 40
1.424999999999996
  0
ARC
  5
E7
100
AcDbEntity
  8
Visible (ISO)
 62
256
370
-1
  6
ByLayer
100
AcDbCircle
 10
109.011356138960295
 20
243.7578291155359125
 30
0.0
 40
0.499999999999997
100
AcDbArc
 50
180.0
 51
270.0
  0
ARC
  5
E8
100
AcDbEntity
  8
Visible (ISO)
 62
256
370
-1
  6
ByLayer
100
AcDbCircle
 10
109.0113561389601955
 20
255.7578291155357988
 30
0.0
 40
0.5000000000000014
100
AcDbArc
 50
90.0
 51
180.0
  0
ARC
  5
E9
100
AcDbEntity
  8
Visible (ISO)
 62
256
370
-1
  6
ByLayer
100
AcDbCircle
 10
113.2113561389601983
 20
255.7578291155357988
 30
0.0
 40
0.4999999999999968
100
AcDbArc
 50
0.0
 51
90.0
  0
ARC
  5
EA
100
AcDbEntity
  8
Visible (ISO)
 62
256
370
-1
  6
ByLayer
100
AcDbCircle
 10
113.2113561389602978
 20
243.7578291155359125
 30
0.0
 40
0.4999999999999969
100
AcDbArc
 50
270.0
 51
0.0
  0
ARC
  5
EB
100
AcDbEntity
  8
Visible (ISO)
 62
256
370
-1
  6
ByLayer
100
AcDbCircle
 10
109.4333525199612041
 20
261.9842354683278245
 30
0.0
 40
0.4999999999999964
100
AcDbArc
 50
19.9999999999984297
 51
110.0000000000009948
  0
ARC
  5
EC
100
AcDbEntity
  8
Visible (ISO)
 62
256
370
-1
  6
ByLayer
100
AcDbCircle
 10
105.2047357264246017
 20
260.4451448233623978
 30
0.0
 40
0.4999999999999947
100
AcDbArc
 50
109.9999999999991047
 51
199.9999999999984084
  0
LINE
  5
ED
100
AcDbEntity
100
AcDbLine
  8
Visible (ISO)
 62
256
370
-1
  6
ByLayer
 10
110.511356138960295
 20
243.2578291155357988
 30
0.0
 11
109.011356138960295
 21
243.2578291155357988
 31
0.0
  0
LINE
  5
EE
100
AcDbEntity
100
AcDbLine
  8
Visible (ISO)
 62
256
370
-1
  6
ByLayer
 10
113.2113561389602978
 20
243.2578291155359125
 30
0.0
 11
110.511356138960295
 21
243.2578291155357988
 31
0.0
  0
LINE
  5
EF
100
AcDbEntity
100
AcDbLine
  8
Visible (ISO)
 62
256
370
-1
  6
ByLayer
 10
108.511356138960295
 20
243.7578291155359125
 30
0.0
 11
108.511356138960295
 21
249.8983777051313098
 31
0.0
  0
LINE
  5
F0
100
AcDbEntity
100
AcDbLine
  8
Visible (ISO)
 62
256
370
-1
  6
ByLayer
 10
110.5113561389601955
 20
256.2578291155357988
 30
0.0
 11
113.2113561389601983
 21
256.2578291155359125
 31
0.0
  0
LINE
  5
F1
100
AcDbEntity
100
AcDbLine
  8
Visible (ISO)
 62
256
370
-1
  6
ByLayer
 10
108.5113561389601955
 20
255.7578291155357988
 30
0.0
 11
108.511356138960295
 21
249.8983777051313098
 31
0.0
  0
LINE
  5
F2
100
AcDbEntity
100
AcDbLine
  8
Visible (ISO)
 62
256
370
-1
  6
ByLayer
 10
110.5113561389601955
 20
256.2578291155357988
 30
0.0
 11
109.0113561389601955
 21
256.2578291155357988
 31
0.0
  0
LINE
  5
F3
100
AcDbEntity
100
AcDbLine
  8
Visible (ISO)
 62
256
370
-1
  6
ByLayer
 10
113.7113561389603973
 20
235.611495123966705
 30
0.0
 11
113.7113561389601983
 21
251.6924193248642894
 31
0.0
  0
LINE
  5
F4
100
AcDbEntity
100
AcDbLine
  8
Visible (ISO)
 62
256
370
-1
  6
ByLayer
 10
109.9031988303541993
 20
262.1552455399906876
 30
0.0
 11
110.511356138960096
 21
260.4843470671194154
 31
0.0
  0
LINE
  5
F5
100
AcDbEntity
100
AcDbLine
  8
Visible (ISO)
 62
256
370
-1
  6
ByLayer
 10
110.511356138960096
 20
260.4843470671194154
 30
0.0
 11
110.5113561389601955
 21
256.2578291155357988
 31
0.0
  0
LINE
  5
F6
100
AcDbEntity
100
AcDbLine
  8
Visible (ISO)
 62
256
370
-1
  6
ByLayer
 10
108.511356138960295
 20
249.8983777051313098
 30
0.0
 11
104.7348894160317059
 21
260.2741347516995916
 31
0.0
  0
LINE
  5
F7
100
AcDbEntity
100
AcDbLine
  8
Visible (ISO)
 62
256
370
-1
  6
ByLayer
 10
113.7113561389601983
 20
251.6924193248642894
 30
0.0
 11
126.4911757816488063
 21
216.5801534318742085
 31
0.0
  0
LINE
  5
F8
100
AcDbEntity
100
AcDbLine
  8
Visible (ISO)
 62
256
370
-1
  6
ByLayer
 10
126.4911757816488063
 20
216.5801534318742085
 30
0.0
 11
121.3228663673262986
 21
214.6990426435829988
 31
0.0
  0
LINE
  5
F9
100
AcDbEntity
100
AcDbLine
  8
Visible (ISO)
 62
256
370
-1
  6
ByLayer
 10
121.3228663673262986
 20
214.6990426435829988
 30
0.0
 11
113.7113561389603973
 21
235.611495123966705
 31
0.0
  0
LINE
  5
FA
100
AcDbEntity
100
AcDbLine
  8
Visible (ISO)
 62
256
370
-1
  6
ByLayer
 10
105.0337256547617955
 20
260.9149911337552794
 30
0.0
 11
109.2623424482983978
 21
262.4540817787208198
 31
0.0
  0
LINE
  5
FB
100
AcDbEntity
100
AcDbLine
  8
Visible (ISO)
 62
256
370
-1
  6
ByLayer
 10
113.7113561389603973
 20
235.611495123966705
 30
0.0
 11
113.7113561389605962
 21
205.5436128477894897
 31
0.0
  0
LINE
  5
FC
100
AcDbEntity
100
AcDbLine
  8
Visible (ISO)
 62
256
370
-1
  6
ByLayer
 10
113.7113561389600989
 20
270.2578291155357988
 30
0.0
 11
113.7113561389601983
 21
251.6924193248642894
 31
0.0
  0
LINE
  5
FD
100
AcDbEntity
100
AcDbLine
  8
Visible (ISO)
 62
256
370
-1
  6
ByLayer
 10
110.511356138960096
 20
260.4843470671194154
 30
0.0
 11
110.511356138960096
 21
270.2578291155357988
 31
0.0
  0
LINE
  5
FE
100
AcDbEntity
100
AcDbLine
  8
Visible (ISO)
 62
256
370
-1
  6
ByLayer
 10
110.5113561389605934
 20
204.3789080981376003
 30
0.0
 11
110.511356138960295
 21
243.2578291155357988
 31
0.0
  0
LINE
  5
FF
100
AcDbEntity
100
AcDbLine
  8
Visible (ISO)
 62
256
370
-1
  6
ByLayer
 10
113.7113561389605962
 20
205.5436128477894897
 30
0.0
 11
110.5113561389605934
 21
204.3789080981376003
 31
0.0
  0
CIRCLE
  5
100
100
AcDbEntity
100
AcDbCircle
  8
Visible (ISO)
 62
256
370
-1
  6
ByLayer
 10
120.7113561389601983
 20
253.6578291155358897
 30
0.0
 40
1.424999999999996
  0
CIRCLE
  5
101
100
AcDbEntity
100
AcDbCircle
  8
Visible (ISO)
 62
256
370
-1
  6
ByLayer
 10
128.7113561389600989
 20
253.6578291155360034
 30
0.0
 40
1.424999999999996
  0
CIRCLE
  5
102
100
AcDbEntity
100
AcDbCircle
  8
Visible (ISO)
 62
256
370
-1
  6
ByLayer
 10
128.7113561389602125
 20
245.8578291155359921
 30
0.0
 40
1.424999999999996
  0
CIRCLE
  5
103
100
AcDbEntity
100
AcDbCircle
  8
Visible (ISO)
 62
256
370
-1
  6
ByLayer
 10
120.7113561389601983
 20
245.8578291155359068
 30
0.0
 40
1.424999999999996
  0
LINE
  5
104
100
AcDbEntity
100
AcDbLine
  8
Visible (ISO)
 62
256
370
-1
  6
ByLayer
 10
133.5388704375430962
 20
219.1453045068165864
 30
0.0
 11
126.4911757816488063
 21
216.5801534318742085
 31
0.0
  0
LINE
  5
105
100
AcDbEntity
100
AcDbLine
  8
Visible (ISO)
 62
256
370
-1
  6
ByLayer
 10
136.1548068699686951
 20
213.7123608680965958
 30
0.0
 11
134.3078980960100068
 21
218.7867010203405016
 31
0.0
  0
LINE
  5
106
100
AcDbEntity
100
AcDbLine
  8
Visible (ISO)
 62
256
370
-1
  6
ByLayer
 10
149.451457454089109
 20
218.5519458961549901
 30
0.0
 11
136.1548068699686098
 21
213.7123608680965958
 31
0.0
  0
LINE
  5
107
100
AcDbEntity
100
AcDbLine
  8
Visible (ISO)
 62
256
370
-1
  6
ByLayer
 10
142.5390202682283984
 20
237.5437109777053024
 30
0.0
 11
149.451457454089109
 21
218.5519458961549901
 31
0.0
  0
LINE
  5
108
100
AcDbEntity
100
AcDbLine
  8
Visible (ISO)
 62
256
370
-1
  6
ByLayer
 10
137.1113561389599056
 20
270.2578291155360262
 30
0.0
 11
137.1113561389599056
 21
268.3255238770152005
 31
0.0
  0
LINE
  5
109
100
AcDbEntity
100
AcDbLine
  8
Visible (ISO)
 62
256
370
-1
  6
ByLayer
 10
113.7113561389600989
 20
270.2578291155357988
 30
0.0
 11
137.1113561389599056
 21
270.2578291155360262
 31
0.0
  0
LINE
  5
10A
100
AcDbEntity
100
AcDbLine
  8
Visible (ISO)
 62
256
370
-1
  6
ByLayer
 10
143.8285046351485903
 20
222.8904250762327877
 30
0.0
 11
137.8144718621188929
 21
220.7014961589484869
 31
0.0
  0
LINE
  5
10B
100
AcDbEntity
100
AcDbLine
  8
Visible (ISO)
 62
256
370
-1
  6
ByLayer
 10
137.0454442036520106
 20
221.0600996454246001
 30
0.0
 11
136.0877878023399887
 21
223.6912389836251123
 31
0.0
  0
LINE
  5
10C
100
AcDbEntity
100
AcDbLine
  8
Visible (ISO)
 62
256
370
-1
  6
ByLayer
 10
136.4463912888161872
 20
224.4602666420921082
 30
0.0
 11
142.460424061845913
 21
226.6491955593764942
 31
0.0
  0
LINE
  5
10D
100
AcDbEntity
100
AcDbLine
  8
Visible (ISO)
 62
256
370
-1
  6
ByLayer
 10
143.2294517203129089
 20
226.2905920729002958
 30
0.0
 11
144.1871081216247887
 21
223.659452734699812
 31
0.0
  0
LINE
  5
10E
100
AcDbEntity
100
AcDbLine
  8
Visible (ISO)
 62
256
370
-1
  6
ByLayer
 10
124.3113561389600932
 20
258.8578291155358784
 30
0.0
 11
124.3113561389599937
 21
261.6578291155358897
 31
0.0
  0
LINE
  5
10F
100
AcDbEntity
100
AcDbLine
  8
Visible (ISO)
 62
256
370
-1
  6
ByLayer
 10
124.9113561389600022
 20
262.2578291155360262
 30
0.0
 11
131.3113561389600079
 21
262.2578291155360262
 31
0.0
  0
LINE
  5
110
100
AcDbEntity
100
AcDbLine
  8
Visible (ISO)
 62
256
370
-1
  6
ByLayer
 10
131.9113561389600022
 20
261.6578291155360034
 30
0.0
 11
131.9113561389600875
 21
258.8578291155359921
 31
0.0
  0
LINE
  5
111
100
AcDbEntity
100
AcDbLine
  8
Visible (ISO)
 62
256
370
-1
  6
ByLayer
 10
131.3113561389600932
 20
258.2578291155360262
 30
0.0
 11
124.9113561389601017
 21
258.2578291155360262
 31
0.0
  0
LINE
  5
112
100
AcDbEntity
100
AcDbLine
  8
Visible (ISO)
 62
256
370
-1
  6
ByLayer
 10
121.3228663673262986
 20
214.6990426435829988
 30
0.0
 11
114.275171711432094
 21
212.1338915686403084
 31
0.0
  0
LINE
  5
113
100
AcDbEntity
100
AcDbLine
  8
Visible (ISO)
 62
256
370
-1
  6
ByLayer
 10
87.1113561389602182
 20
270.2578291155356283
 30
0.0
 11
110.511356138960096
 21
270.2578291155357988
 31
0.0
  0
LINE
  5
114
100
AcDbEntity
100
AcDbLine
  8
Visible (ISO)
 62
256
370
-1
  6
ByLayer
 10
87.1113561389603319
 20
259.5091748415916868
 30
0.0
 11
87.1113561389602182
 21
270.2578291155356283
 31
0.0
  0
LINE
  5
115
100
AcDbEntity
100
AcDbLine
  8
Visible (ISO)
 62
256
370
-1
  6
ByLayer
 10
102.4668264147940988
 20
201.4509387298712113
 30
0.0
 11
92.5390202682287821
 21
228.7273619422815898
 31
0.0
  0
LINE
  5
116
100
AcDbEntity
100
AcDbLine
  8
Visible (ISO)
 62
256
370
-1
  6
ByLayer
 10
110.5113561389605934
 20
204.3789080981376003
 30
0.0
 11
102.4668264147940988
 21
201.4509387298712113
 31
0.0
  0
LINE
  5
117
100
AcDbEntity
100
AcDbLine
  8
Visible (ISO)
 62
256
370
-1
  6
ByLayer
 10
92.9113561389602438
 20
262.2578291155356283
 30
0.0
 11
99.3113561389602069
 21
262.2578291155356851
 31
0.0
  0
LINE
  5
118
100
AcDbEntity
100
AcDbLine
  8
Visible (ISO)
 62
256
370
-1
  6
ByLayer
 10
99.9113561389602154
 20
261.6578291155357192
 30
0.0
 11
99.9113561389602722
 21
258.8578291155357078
 31
0.0
  0
LINE
  5
119
100
AcDbEntity
100
AcDbLine
  8
Visible (ISO)
 62
256
370
-1
  6
ByLayer
 10
99.3113561389602353
 20
258.2578291155356851
 30
0.0
 11
92.9113561389602864
 21
258.2578291155356851
 31
0.0
  0
LINE
  5
11A
100
AcDbEntity
100
AcDbLine
  8
Visible (ISO)
 62
256
370
-1
  6
ByLayer
 10
92.3113561389602921
 20
258.8578291155357078
 30
0.0
 11
92.3113561389602637
 21
261.6578291155356055
 31
0.0
  0
LINE
  5
11B
100
AcDbEntity
100
AcDbLine
  8
Visible (ISO)
 62
256
370
-1
  6
ByLayer
 10
109.4005173720205022
 20
213.9778669131760012
 30
0.0
 11
110.3581737733323962
 21
211.3467275749754037
 31
0.0
  0
LINE
  5
11C
100
AcDbEntity
100
AcDbLine
  8
Visible (ISO)
 62
256
370
-1
  6
ByLayer
 10
109.9995702868561978
 20
210.5776999165084078
 30
0.0
 11
103.9855375138265003
 21
208.3887709992241071
 31
0.0
  0
LINE
  5
11D
100
AcDbEntity
100
AcDbLine
  8
Visible (ISO)
 62
256
370
-1
  6
ByLayer
 10
103.2165098553595044
 20
208.7473744857003055
 30
0.0
 11
102.2588534540475962
 21
211.3785138239007892
 31
0.0
  0
LINE
  5
11E
100
AcDbEntity
100
AcDbLine
  8
Visible (ISO)
 62
256
370
-1
  6
ByLayer
 10
102.6174569405237946
 20
212.1475414823676999
 30
0.0
 11
108.6314897135535062
 21
214.3364703996520859
 31
0.0
  0
LINE
  5
11F
100
AcDbEntity
100
AcDbLine
  8
Visible (ISO)
 62
256
370
-1
  6
ByLayer
 10
115.763476998914598
 20
206.2905237579294919
 30
0.0
 11
113.7113561389605962
 21
205.5436128477894897
 31
0.0
  0
LINE
  5
120
100
AcDbEntity
100
AcDbLine
  8
Visible (ISO)
 62
256
370
-1
  6
ByLayer
 10
113.916568224955995
 20
211.3648639101733124
 30
0.0
 11
115.763476998914598
 21
206.2905237579294919
 31
0.0
  0
ARC
  5
121
100
AcDbEntity
  8
Visible (ISO)
 62
256
370
-1
  6
ByLayer
100
AcDbCircle
 10
133.7440825235385091
 20
218.5814889343450886
 30
0.0
 40
0.600000000000006
100
AcDbArc
 50
19.9999999999995808
 51
110.0000000000000995
  0
ARC
  5
122
100
AcDbEntity
  8
Visible (ISO)
 62
256
370
-1
  6
ByLayer
100
AcDbCircle
 10
137.6092597761235083
 20
221.2653117314200131
 30
0.0
 40
0.5999999999999791
100
AcDbArc
 50
200.0000000000007105
 51
290.0000000000034106
  0
ARC
  5
123
100
AcDbEntity
  8
Visible (ISO)
 62
256
370
-1
  6
ByLayer
100
AcDbCircle
 10
136.6516033748116001
 20
223.8964510696206105
 30
0.0
 40
0.599999999999983
100
AcDbArc
 50
110.0000000000000995
 51
200.0000000000032969
  0
ARC
  5
124
100
AcDbEntity
  8
Visible (ISO)
 62
256
370
-1
  6
ByLayer
100
AcDbCircle
 10
142.6656361478412975
 20
226.0853799869049965
 30
0.0
 40
0.599999999999974
100
AcDbArc
 50
19.9999999999969802
 51
110.0000000000000995
  0
ARC
  5
125
100
AcDbEntity
  8
Visible (ISO)
 62
256
370
-1
  6
ByLayer
100
AcDbCircle
 10
143.6232925491532058
 20
223.4542406487043138
 30
0.0
 40
0.600000000000009
100
AcDbArc
 50
290.000000000001819
 51
19.9999999999990514
  0
ARC
  5
126
100
AcDbEntity
  8
Visible (ISO)
 62
256
370
-1
  6
ByLayer
100
AcDbCircle
 10
124.9113561389600022
 20
261.6578291155358897
 30
0.0
 40
0.599999999999999
100
AcDbArc
 50
90.0
 51
180.0
  0
ARC
  5
127
100
AcDbEntity
  8
Visible (ISO)
 62
256
370
-1
  6
ByLayer
100
AcDbCircle
 10
131.3113561389600079
 20
261.6578291155360034
 30
0.0
 40
0.5999999999999968
100
AcDbArc
 50
0.0
 51
90.0
  0
ARC
  5
128
100
AcDbEntity
  8
Visible (ISO)
 62
256
370
-1
  6
ByLayer
100
AcDbCircle
 10
131.3113561389600932
 20
258.8578291155359921
 30
0.0
 40
0.6000000000000034
100
AcDbArc
 50
270.0000000000017053
 51
0.0
  0
ARC
  5
129
100
AcDbEntity
  8
Visible (ISO)
 62
256
370
-1
  6
ByLayer
100
AcDbCircle
 10
124.9113561389601017
 20
258.8578291155358784
 30
0.0
 40
0.6000000000000013
100
AcDbArc
 50
180.0
 51
269.9999999999982947
  0
ARC
  5
12A
100
AcDbEntity
  8
Visible (ISO)
 62
256
370
-1
  6
ByLayer
100
AcDbCircle
 10
99.3113561389602069
 20
261.6578291155357192
 30
0.0
 40
0.5999999999999968
100
AcDbArc
 50
0.0
 51
90.0
  0
ARC
  5
12B
100
AcDbEntity
  8
Visible (ISO)
 62
256
370
-1
  6
ByLayer
100
AcDbCircle
 10
99.3113561389602353
 20
258.8578291155357078
 30
0.0
 40
0.6000000000000034
100
AcDbArc
 50
270.0000000000017053
 51
0.0
  0
ARC
  5
12C
100
AcDbEntity
  8
Visible (ISO)
 62
256
370
-1
  6
ByLayer
100
AcDbCircle
 10
92.9113561389602864
 20
258.8578291155357078
 30
0.0
 40
0.599999999999999
100
AcDbArc
 50
180.0
 51
269.9999999999982947
  0
ARC
  5
12D
100
AcDbEntity
  8
Visible (ISO)
 62
256
370
-1
  6
ByLayer
100
AcDbCircle
 10
92.9113561389602438
 20
261.6578291155356055
 30
0.0
 40
0.599999999999999
100
AcDbArc
 50
90.0
 51
180.0
  0
ARC
  5
12E
100
AcDbEntity
  8
Visible (ISO)
 62
256
370
-1
  6
ByLayer
100
AcDbCircle
 10
109.794358200860799
 20
211.1415154889799908
 30
0.0
 40
0.5999999999999952
100
AcDbArc
 50
290.0000000000002274
 51
20.0000000000001705
  0
ARC
  5
12F
100
AcDbEntity
  8
Visible (ISO)
 62
256
370
-1
  6
ByLayer
100
AcDbCircle
 10
103.7803254278310021
 20
208.9525865716956901
 30
0.0
 40
0.5999999999999801
100
AcDbArc
 50
200.000000000000199
 51
290.000000000001819
  0
ARC
  5
130
100
AcDbEntity
  8
Visible (ISO)
 62
256
370
-1
  6
ByLayer
100
AcDbCircle
 10
102.8226690265191934
 20
211.5837259098962022
 30
0.0
 40
0.5999999999999871
100
AcDbArc
 50
110.0000000000000995
 51
200.000000000000199
  0
ARC
  5
131
100
AcDbEntity
  8
Visible (ISO)
 62
256
370
-1
  6
ByLayer
100
AcDbCircle
 10
108.836701799548905
 20
213.7726548271805882
 30
0.0
 40
0.5999999999999908
100
AcDbArc
 50
20.0000000000001599
 51
110.0000000000018048
  0
ARC
  5
132
100
AcDbEntity
  8
Visible (ISO)
 62
256
370
-1
  6
ByLayer
100
AcDbCircle
 10
114.4803837974275069
 20
211.570075996168697
 30
0.0
 40
0.5999999999999939
100
AcDbArc
 50
110.0000000000000995
 51
200.000000000000199
  0
ARC
  5
133
100
AcDbEntity
  8
Visible (ISO)
 62
256
370
-1
  6
ByLayer
100
AcDbCircle
 10
227.1113561389591951
 20
268.3255238770162237
 30
0.0
 40
89.9999999999994458
100
AcDbArc
 50
180.0
 51
200.0000000000005969
  0
ARC
  5
134
100
AcDbEntity
  8
Visible (ISO)
 62
256
370
-1
  6
ByLayer
100
AcDbCircle
 10
177.1113561389589961
 20
259.5091748415923121
 30
0.0
 40
89.9999999999989058
100
AcDbArc
 50
180.0
 51
200.0000000000007105
  0
CIRCLE
  5
135
100
AcDbEntity
100
AcDbCircle
  8
Visible (ISO)
 62
256
370
-1
  6
ByLayer
 10
58.2113561389603902
 20
177.8662017422520876
 30
0.0
 40
4.0
  0
LINE
  5
136
100
AcDbEntity
100
AcDbLine
  8
Visible (ISO)
 62
256
370
-1
  6
ByLayer
 10
52.9201036567873331
 20
172.7071339482382086
 30
0.0
 11
51.0978461284117316
 21
179.8690269126445003
 31
0.0
  0
LINE
  5
137
100
AcDbEntity
100
AcDbLine
  8
Visible (ISO)
 62
256
370
-1
  6
ByLayer
 10
60.0336136673359988
 20
170.7043087778457959
 30
0.0
 11
52.9201036567873473
 21
172.7071339482382939
 31
0.0
  0
LINE
  5
138
100
AcDbEntity
100
AcDbLine
  8
Visible (ISO)
 62
256
370
-1
  6
ByLayer
 10
65.3248661495090346
 20
175.8633765718597033
 30
0.0
 11
60.0336136673359775
 21
170.7043087778457959
 31
0.0
  0
LINE
  5
139
100
AcDbEntity
100
AcDbLine
  8
Visible (ISO)
 62
256
370
-1
  6
ByLayer
 10
63.5026086211334402
 20
183.0252695362659097
 30
0.0
 11
65.3248661495090346
 21
175.8633765718597033
 31
0.0
  0
LINE
  5
13A
100
AcDbEntity
100
AcDbLine
  8
Visible (ISO)
 62
256
370
-1
  6
ByLayer
 10
56.3890986105847389
 20
185.0280947066582939
 30
0.0
 11
63.5026086211334331
 21
183.0252695362659097
 31
0.0
  0
LINE
  5
13B
100
AcDbEntity
100
AcDbLine
  8
Visible (ISO)
 62
256
370
-1
  6
ByLayer
 10
51.0978461284117103
 20
179.8690269126445003
 30
0.0
 11
56.3890986105847318
 21
185.0280947066582939
 31
0.0
  0
ARC
  5
13C
100
AcDbEntity
  8
Visible (ISO)
 62
256
370
-1
  6
ByLayer
100
AcDbCircle
 10
58.2113561389620315
 20
177.8662017422510928
 30
0.0
 40
18.7500000000019398
100
AcDbArc
 50
146.6503120789178922
 51
148.9003120789176933
  0
ARC
  5
13D
100
AcDbEntity
  8
Visible (ISO)
 62
256
370
-1
  6
ByLayer
100
AcDbCircle
 10
38.8996973440361202
 20
176.8760002022860931
 30
0.0
 40
11.1608015372597205
100
AcDbArc
 50
73.0349136620844206
 51
85.2819739417273013
  0
ARC
  5
13E
100
AcDbEntity
  8
Visible (ISO)
 62
256
370
-1
  6
ByLayer
100
AcDbCircle
 10
50.7754395221349597
 20
195.7163504410430903
 30
0.0
 40
11.1608015372601503
100
AcDbArc
 50
210.2686502161085969
 51
222.5157104957509944
  0
ARC
  5
13F
100
AcDbEntity
  8
Visible (ISO)
 62
256
370
-1
  6
ByLayer
100
AcDbCircle
 10
58.2113561389607099
 20
177.8662017422518886
 30
0.0
 40
18.7500000000003517
100
AcDbArc
 50
155.650312078917807
 51
157.9003120789174091
  0
ARC
  5
140
100
AcDbEntity
  8
Visible (ISO)
 62
256
370
-1
  6
ByLayer
100
AcDbCircle
 10
39.2923575578487387
 20
173.8671822137650906
 30
0.0
 40
11.1608015372594895
100
AcDbArc
 50
82.0349136620843211
 51
94.2819739417273865
  0
ARC
  5
141
100
AcDbEntity
  8
Visible (ISO)
 62
256
370
-1
  6
ByLayer
100
AcDbCircle
 10
48.0746095323002791
 20
194.333351851900602
 30
0.0
 40
11.1608015372600704
100
AcDbArc
 50
219.2686502161085969
 51
231.5157104957509091
  0
ARC
  5
142
100
AcDbEntity
  8
Visible (ISO)
 62
256
370
-1
  6
ByLayer
100
AcDbCircle
 10
58.211356138968597
 20
177.8662017422500981
 30
0.0
 40
18.7500000000084484
100
AcDbArc
 50
164.6503120789184038
 51
166.9003120789174943
  0
ARC
  5
143
100
AcDbEntity
  8
Visible (ISO)
 62
256
370
-1
  6
ByLayer
100
AcDbCircle
 10
40.1508663052847581
 20
170.9568333580199919
 30
0.0
 40
11.1608015372596103
100
AcDbArc
 50
91.0349136620844064
 51
103.2819739417274008
  0
ARC
  5
144
100
AcDbEntity
  8
Visible (ISO)
 62
256
370
-1
  6
ByLayer
100
AcDbCircle
 10
45.623379885854753
 20
192.5448773757204037
 30
0.0
 40
11.1608015372599105
100
AcDbArc
 50
228.2686502161085116
 51
240.5157104957511081
  0
ARC
  5
145
100
AcDbEntity
  8
Visible (ISO)
 62
256
370
-1
  6
ByLayer
100
AcDbCircle
 10
58.2113561389643692
 20
177.8662017422518034
 30
0.0
 40
18.7500000000039897
100
AcDbArc
 50
173.6503120789180912
 51
175.900312078917807
  0
ARC
  5
146
100
AcDbEntity
  8
Visible (ISO)
 62
256
370
-1
  6
ByLayer
100
AcDbCircle
 10
41.4540842517553401
 20
168.2166160827732995
 30
0.0
 40
11.1608015372602001
100
AcDbArc
 50
100.0349136620847048
 51
112.2819739417270029
  0
ARC
  5
147
100
AcDbEntity
  8
Visible (ISO)
 62
256
370
-1
  6
ByLayer
100
AcDbCircle
 10
43.4821079918588822
 20
190.3949651897131901
 30
0.0
 40
11.1608015372601503
100
AcDbArc
 50
237.2686502161086253
 51
249.5157104957509091
  0
ARC
  5
148
100
AcDbEntity
  8
Visible (ISO)
 62
256
370
-1
  6
ByLayer
100
AcDbCircle
 10
58.2113561389568304
 20
177.8662017422518034
 30
0.0
 40
18.7499999999964189
100
AcDbArc
 50
182.6503120789172954
 51
184.9003120789176933
  0
ARC
  5
149
100
AcDbEntity
  8
Visible (ISO)
 62
256
370
-1
  6
ByLayer
100
AcDbCircle
 10
43.1699218462855328
 20
165.7140036316027079
 30
0.0
 40
11.1608015372597205
100
AcDbArc
 50
109.0349136620844064
 51
121.2819739417272018
  0
ARC
  5
14A
100
AcDbEntity
  8
Visible (ISO)
 62
256
370
-1
  6
ByLayer
100
AcDbCircle
 10
41.7035190708165331
 20
187.9365532670474011
 30
0.0
 40
11.1608015372601805
100
AcDbArc
 50
246.2686502161087105
 51
258.5157104957509091
  0
ARC
  5
14B
100
AcDbEntity
  8
Visible (ISO)
 62
256
370
-1
  6
ByLayer
100
AcDbCircle
 10
58.2113561389594665
 20
177.8662017422518886
 30
0.0
 40
18.7499999999990514
100
AcDbArc
 50
191.6503120789176933
 51
193.9003120789180059
  0
ARC
  5
14C
100
AcDbEntity
  8
Visible (ISO)
 62
256
370
-1
  6
ByLayer
100
AcDbCircle
 10
45.2561294727600227
 20
163.5106186287488015
 30
0.0
 40
11.1608015372599105
100
AcDbArc
 50
118.0349136620845201
 51
130.2819739417271023
  0
ARC
  5
14D
100
AcDbEntity
  8
Visible (ISO)
 62
256
370
-1
  6
ByLayer
100
AcDbCircle
 10
40.3314078847620223
 20
185.2301758682602042
 30
0.0
 40
11.1608015372598803
100
AcDbArc
 50
255.2686502161084263
 51
267.5157104957510228
  0
ARC
  5
14E
100
AcDbEntity
  8
Visible (ISO)
 62
256
370
-1
  6
ByLayer
100
AcDbCircle
 10
58.2113561389638008
 20
177.8662017422535087
 30
0.0
 40
18.7500000000036593
100
AcDbArc
 50
200.6503120789180059
 51
202.9003120789174091
  0
ARC
  5
14F
100
AcDbEntity
  8
Visible (ISO)
 62
256
370
-1
  6
ByLayer
100
AcDbCircle
 10
47.6613377756885868
 20
161.6607157255984077
 30
0.0
 40
11.1608015372600207
100
AcDbArc
 50
127.0349136620846195
 51
139.2819739417271023
  0
ARC
  5
150
100
AcDbEntity
  8
Visible (ISO)
 62
256
370
-1
  6
ByLayer
100
AcDbCircle
 10
39.3995603648720802
 20
182.3424729868621057
 30
0.0
 40
11.1608015372599692
100
AcDbArc
 50
264.2686502161084832
 51
276.5157104957510796
  0
ARC
  5
151
100
AcDbEntity
  8
Visible (ISO)
 62
256
370
-1
  6
ByLayer
100
AcDbCircle
 10
58.2113561389527376
 20
177.8662017422475117
 30
0.0
 40
18.7499999999910898
100
AcDbArc
 50
209.6503120789172101
 51
211.9003120789180059
  0
ARC
  5
152
100
AcDbEntity
  8
Visible (ISO)
 62
256
370
-1
  6
ByLayer
100
AcDbCircle
 10
50.3263225442243893
 20
160.2098456711026984
 30
0.0
 40
11.1608015372599993
100
AcDbArc
 50
136.0349136620847048
 51
148.2819739417271876
  0
ARC
  5
153
100
AcDbEntity
  8
Visible (ISO)
 62
256
370
-1
  6
ByLayer
100
AcDbCircle
 10
38.9309216897109494
 20
179.3445494515291045
 30
0.0
 40
11.1608015372599194
100
AcDbArc
 50
273.2686502161084832
 51
285.5157104957510796
  0
ARC
  5
154
100
AcDbEntity
  8
Visible (ISO)
 62
256
370
-1
  6
ByLayer
100
AcDbCircle
 10
58.2113561389692435
 20
177.8662017422595056
 30
0.0
 40
18.7500000000115108
100
AcDbArc
 50
218.6503120789184038
 51
220.9003120789172101
  0
ARC
  5
155
100
AcDbEntity
  8
Visible (ISO)
 62
256
370
-1
  6
ByLayer
100
AcDbCircle
 10
53.1854630087887088
 20
159.1937337011648879
 30
0.0
 40
11.1608015372599496
100
AcDbArc
 50
145.0349136620843922
 51
157.2819739417269886
  0
ARC
  5
156
100
AcDbEntity
  8
Visible (ISO)
 62
256
370
-1
  6
ByLayer
100
AcDbCircle
 10
38.9370312987837082
 20
176.3102240892388011
 30
0.0
 40
11.1608015372598306
100
AcDbArc
 50
282.2686502161084832
 51
294.5157104957511933
  0
ARC
  5
157
100
AcDbEntity
  8
Visible (ISO)
 62
256
370
-1
  6
ByLayer
100
AcDbCircle
 10
58.2113561389641703
 20
177.8662017422564077
 30
0.0
 40
18.7500000000057483
100
AcDbArc
 50
227.6503120789182901
 51
229.9003120789174091
  0
ARC
  5
158
100
AcDbEntity
  8
Visible (ISO)
 62
256
370
-1
  6
ByLayer
100
AcDbCircle
 10
56.1683576422008386
 20
158.6373998647671897
 30
0.0
 40
11.1608015372598697
100
AcDbArc
 50
154.0349136620847048
 51
166.2819739417273013
  0
ARC
  5
159
100
AcDbEntity
  8
Visible (ISO)
 62
256
370
-1
  6
ByLayer
100
AcDbCircle
 10
39.4177387532383108
 20
173.3142120607597008
 30
0.0
 40
11.1608015372598697
100
AcDbArc
 50
291.2686502161084263
 51
303.5157104957510796
  0
ARC
  5
15A
100
AcDbEntity
  8
Visible (ISO)
 62
256
370
-1
  6
ByLayer
100
AcDbCircle
 10
58.2113561389614276
 20
177.8662017422537076
 30
0.0
 40
18.7500000000019398
100
AcDbArc
 50
236.6503120789179206
 51
238.900312078917608
  0
ARC
  5
15B
100
AcDbEntity
  8
Visible (ISO)
 62
256
370
-1
  6
ByLayer
100
AcDbCircle
 10
59.2015576789263704
 20
158.5545429473278034
 30
0.0
 40
11.1608015372597205
100
AcDbArc
 50
163.0349136620845059
 51
175.2819739417273013
  0
ARC
  5
15C
100
AcDbEntity
  8
Visible (ISO)
 62
256
370
-1
  6
ByLayer
100
AcDbCircle
 10
40.3612074401693732
 20
170.4302851254267068
 30
0.0
 40
11.1608015372601503
100
AcDbArc
 50
300.2686502161087105
 51
312.5157104957510796
  0
ARC
  5
15D
100
AcDbEntity
  8
Visible (ISO)
 62
256
370
-1
  6
ByLayer
100
AcDbCircle
 10
58.2113561389610368
 20
177.8662017422535087
 30
0.0
 40
18.750000000001581
100
AcDbArc
 50
245.650312078917807
 51
247.9003120789177217
  0
ARC
  5
15E
100
AcDbEntity
  8
Visible (ISO)
 62
256
370
-1
  6
ByLayer
100
AcDbCircle
 10
62.210375667448119
 20
158.9472031611404077
 30
0.0
 40
11.1608015372602498
100
AcDbArc
 50
172.0349136620847048
 51
184.2819739417269034
  0
ARC
  5
15F
100
AcDbEntity
  8
Visible (ISO)
 62
256
370
-1
  6
ByLayer
100
AcDbCircle
 10
41.7442060293120107
 20
167.7294551355919054
 30
0.0
 40
11.1608015372599603
100
AcDbArc
 50
309.2686502161085969
 51
321.5157104957509091
  0
ARC
  5
160
100
AcDbEntity
  8
Visible (ISO)
 62
256
370
-1
  6
ByLayer
100
AcDbCircle
 10
58.2113561389624294
 20
177.8662017422603014
 30
0.0
 40
18.7500000000084484
100
AcDbArc
 50
254.6503120789184607
 51
256.9003120789175227
  0
ARC
  5
161
100
AcDbEntity
  8
Visible (ISO)
 62
256
370
-1
  6
ByLayer
100
AcDbCircle
 10
65.1207245231926208
 20
159.8057119085765123
 30
0.0
 40
11.1608015372597809
100
AcDbArc
 50
181.0349136620843069
 51
193.2819739417271876
  0
ARC
  5
162
100
AcDbEntity
  8
Visible (ISO)
 62
256
370
-1
  6
ByLayer
100
AcDbCircle
 10
43.5326805054920172
 20
165.2782254891465072
 30
0.0
 40
11.1608015372599496
100
AcDbArc
 50
318.2686502161084832
 51
330.5157104957510228
  0
ARC
  5
163
100
AcDbEntity
  8
Visible (ISO)
 62
256
370
-1
  6
ByLayer
100
AcDbCircle
 10
58.2113561389604328
 20
177.8662017422525139
 30
0.0
 40
18.7500000000003411
100
AcDbArc
 50
263.650312078917807
 51
265.9003120789179206
  0
ARC
  5
164
100
AcDbEntity
  8
Visible (ISO)
 62
256
370
-1
  6
ByLayer
100
AcDbCircle
 10
67.8609417984393843
 20
161.1089298550471085
 30
0.0
 40
11.1608015372603795
100
AcDbArc
 50
190.0349136620849038
 51
202.2819739417269886
  0
ARC
  5
165
100
AcDbEntity
  8
Visible (ISO)
 62
256
370
-1
  6
ByLayer
100
AcDbCircle
 10
45.6825926914994014
 20
163.1369535951504872
 30
0.0
 40
11.1608015372599905
100
AcDbArc
 50
327.2686502161084832
 51
339.5157104957510796
  0
ARC
  5
166
100
AcDbEntity
  8
Visible (ISO)
 62
256
370
-1
  6
ByLayer
100
AcDbCircle
 10
58.2113561389603618
 20
177.8662017422527981
 30
0.0
 40
18.7500000000007105
100
AcDbArc
 50
272.650312078917807
 51
274.9003120789175227
  0
ARC
  5
167
100
AcDbEntity
  8
Visible (ISO)
 62
256
370
-1
  6
ByLayer
100
AcDbCircle
 10
70.3635542496100754
 20
162.8247674495773936
 30
0.0
 40
11.1608015372599993
100
AcDbArc
 50
199.0349136620845911
 51
211.2819739417271876
  0
ARC
  5
168
100
AcDbEntity
  8
Visible (ISO)
 62
256
370
-1
  6
ByLayer
100
AcDbCircle
 10
48.141004614165432
 20
161.3583646741080884
 30
0.0
 40
11.1608015372598199
100
AcDbArc
 50
336.2686502161084263
 51
348.5157104957510796
  0
ARC
  5
169
100
AcDbEntity
  8
Visible (ISO)
 62
256
370
-1
  6
ByLayer
100
AcDbCircle
 10
58.2113561389599283
 20
177.8662017422541908
 30
0.0
 40
18.7500000000021387
100
AcDbArc
 50
281.6503120789179206
 51
283.9003120789175227
  0
ARC
  5
16A
100
AcDbEntity
  8
Visible (ISO)
 62
256
370
-1
  6
ByLayer
100
AcDbCircle
 10
72.566939252463655
 20
164.9109750760516988
 30
0.0
 40
11.1608015372599105
100
AcDbArc
 50
208.0349136620845059
 51
220.2819739417271876
  0
ARC
  5
16B
100
AcDbEntity
  8
Visible (ISO)
 62
256
370
-1
  6
ByLayer
100
AcDbCircle
 10
50.847382012952032
 20
159.9862534880537908
 30
0.0
 40
11.1608015372601397
100
AcDbArc
 50
345.2686502161084832
 51
357.5157104957510796
  0
ARC
  5
16C
100
AcDbEntity
  8
Visible (ISO)
 62
256
370
-1
  6
ByLayer
100
AcDbCircle
 10
58.2113561389590402
 20
177.8662017422554982
 30
0.0
 40
18.7500000000036593
100
AcDbArc
 50
290.6503120789179775
 51
292.9003120789175796
  0
ARC
  5
16D
100
AcDbEntity
  8
Visible (ISO)
 62
256
370
-1
  6
ByLayer
100
AcDbCircle
 10
74.4168421556140629
 20
167.3161833789802984
 30
0.0
 40
11.1608015372599905
100
AcDbArc
 50
217.0349136620845911
 51
229.2819739417271023
  0
ARC
  5
16E
100
AcDbEntity
  8
Visible (ISO)
 62
256
370
-1
  6
ByLayer
100
AcDbCircle
 10
53.735084894350571
 20
159.0544059681637918
 30
0.0
 40
11.1608015372597595
100
AcDbArc
 50
354.2686502161084263
 51
6.515710495751029
  0
ARC
  5
16F
100
AcDbEntity
  8
Visible (ISO)
 62
256
370
-1
  6
ByLayer
100
AcDbCircle
 10
58.2113561389649803
 20
177.866201742244499
 30
0.0
 40
18.7499999999910898
100
AcDbArc
 50
299.6503120789171817
 51
301.9003120789182049
  0
ARC
  5
170
100
AcDbEntity
  8
Visible (ISO)
 62
256
370
-1
  6
ByLayer
100
AcDbCircle
 10
75.8677122101097865
 20
169.9811681475160867
 30
0.0
 40
11.1608015372599798
100
AcDbArc
 50
226.0349136620845059
 51
238.2819739417271023
  0
ARC
  5
171
100
AcDbEntity
  8
Visible (ISO)
 62
256
370
-1
  6
ByLayer
100
AcDbCircle
 10
56.7330084296834229
 20
158.5857672930027036
 30
0.0
 40
11.1608015372599105
100
AcDbArc
 50
3.2686502161085809
 51
15.5157104957511276
  0
ARC
  5
172
100
AcDbEntity
  8
Visible (ISO)
 62
256
370
-1
  6
ByLayer
100
AcDbCircle
 10
58.2113561389530574
 20
177.8662017422608983
 30
0.0
 40
18.7500000000114504
100
AcDbArc
 50
308.6503120789184891
 51
310.9003120789171817
  0
ARC
  5
173
100
AcDbEntity
  8
Visible (ISO)
 62
256
370
-1
  6
ByLayer
100
AcDbCircle
 10
76.883824180047597
 20
172.8403086120804062
 30
0.0
 40
11.1608015372599603
100
AcDbArc
 50
235.0349136620846195
 51
247.2819739417270171
  0
ARC
  5
174
100
AcDbEntity
  8
Visible (ISO)
 62
256
370
-1
  6
ByLayer
100
AcDbCircle
 10
59.767333791973833
 20
158.5918769020755121
 30
0.0
 40
11.1608015372596494
100
AcDbArc
 50
12.2686502161083695
 51
24.5157104957512111
  0
ARC
  5
175
100
AcDbEntity
  8
Visible (ISO)
 62
256
370
-1
  6
ByLayer
100
AcDbCircle
 10
58.211356138956063
 20
177.8662017422558961
 30
0.0
 40
18.7500000000057483
100
AcDbArc
 50
317.6503120789182049
 51
319.9003120789175227
  0
ARC
  5
176
100
AcDbEntity
  8
Visible (ISO)
 62
256
370
-1
  6
ByLayer
100
AcDbCircle
 10
77.4401580164453947
 20
175.823203245492806
 30
0.0
 40
11.1608015372601805
100
AcDbArc
 50
244.0349136620847048
 51
256.2819739417270739
  0
ARC
  5
177
100
AcDbEntity
  8
Visible (ISO)
 62
256
370
-1
  6
ByLayer
100
AcDbCircle
 10
62.7633458204528623
 20
159.0725843565300863
 30
0.0
 40
11.1608015372598093
100
AcDbArc
 50
21.2686502161085116
 51
33.5157104957513496
  0
ARC
  5
178
100
AcDbEntity
  8
Visible (ISO)
 62
256
370
-1
  6
ByLayer
100
AcDbCircle
 10
58.2113561389585072
 20
177.8662017422533097
 30
0.0
 40
18.7500000000022311
100
AcDbArc
 50
326.6503120789179775
 51
328.9003120789176933
  0
ARC
  5
179
100
AcDbEntity
  8
Visible (ISO)
 62
256
370
-1
  6
ByLayer
100
AcDbCircle
 10
77.5230149338846672
 20
178.8564032822181105
 30
0.0
 40
11.1608015372597098
100
AcDbArc
 50
253.0349136620845059
 51
265.2819739417271876
  0
ARC
  5
17A
100
AcDbEntity
  8
Visible (ISO)
 62
256
370
-1
  6
ByLayer
100
AcDbCircle
 10
65.6472727557858633
 20
160.0160530434611132
 30
0.0
 40
11.1608015372601006
100
AcDbArc
 50
30.2686502161085116
 51
42.5157104957509375
  0
ARC
  5
17B
100
AcDbEntity
  8
Visible (ISO)
 62
256
370
-1
  6
ByLayer
100
AcDbCircle
 10
58.211356138958962
 20
177.8662017422527981
 30
0.0
 40
18.750000000001581
100
AcDbArc
 50
335.650312078917807
 51
337.9003120789175796
  0
ARC
  5
17C
100
AcDbEntity
  8
Visible (ISO)
 62
256
370
-1
  6
ByLayer
100
AcDbCircle
 10
77.1303547200720629
 20
181.8652212707393971
 30
0.0
 40
11.1608015372598093
100
AcDbArc
 50
262.0349136620844774
 51
274.2819739417271876
  0
ARC
  5
17D
100
AcDbEntity
  8
Visible (ISO)
 62
256
370
-1
  6
ByLayer
100
AcDbCircle
 10
68.3481027456205794
 20
161.3990516326038005
 30
0.0
 40
11.1608015372599603
100
AcDbArc
 50
39.2686502161084334
 51
51.5157104957511081
  0
ARC
  5
17E
100
AcDbEntity
  8
Visible (ISO)
 62
256
370
-1
  6
ByLayer
100
AcDbCircle
 10
58.2113561389585499
 20
177.8662017422525992
 30
0.0
 40
18.7500000000019007
100
AcDbArc
 50
344.6503120789179775
 51
346.9003120789175227
  0
ARC
  5
17F
100
AcDbEntity
  8
Visible (ISO)
 62
256
370
-1
  6
ByLayer
100
AcDbCircle
 10
76.2718459726359441
 20
184.7755701264848085
 30
0.0
 40
11.1608015372602196
100
AcDbArc
 50
271.0349136620847048
 51
283.2819739417270171
  0
ARC
  5
180
100
AcDbEntity
  8
Visible (ISO)
 62
256
370
-1
  6
ByLayer
100
AcDbCircle
 10
70.799332392065935
 20
163.1875261087836009
 30
0.0
 40
11.1608015372601006
100
AcDbArc
 50
48.268650216108469
 51
60.5157104957508665
  0
ARC
  5
181
100
AcDbEntity
  8
Visible (ISO)
 62
256
370
-1
  6
ByLayer
100
AcDbCircle
 10
58.2113561389600491
 20
177.8662017422522013
 30
0.0
 40
18.7500000000003411
100
AcDbArc
 50
353.650312078917807
 51
355.9003120789176933
  0
ARC
  5
182
100
AcDbEntity
  8
Visible (ISO)
 62
256
370
-1
  6
ByLayer
100
AcDbCircle
 10
74.9686280261654616
 20
187.5157874017307904
 30
0.0
 40
11.1608015372601006
100
AcDbArc
 50
280.0349136620845911
 51
292.2819739417270739
  0
ARC
  5
183
100
AcDbEntity
  8
Visible (ISO)
 62
256
370
-1
  6
ByLayer
100
AcDbCircle
 10
72.940604286061884
 20
165.3374382947908998
 30
0.0
 40
11.1608015372601805
100
AcDbArc
 50
57.2686502161086608
 51
69.5157104957509659
  0
ARC
  5
184
100
AcDbEntity
  8
Visible (ISO)
 62
256
370
-1
  6
ByLayer
100
AcDbCircle
 10
58.2113561389638718
 20
177.8662017422524002
 30
0.0
 40
18.7499999999965112
100
AcDbArc
 50
2.6503120789173722
 51
4.9003120789177483
  0
ARC
  5
185
100
AcDbEntity
  8
Visible (ISO)
 62
256
370
-1
  6
ByLayer
100
AcDbCircle
 10
73.2527904316351623
 20
190.0183998529016947
 30
0.0
 40
11.1608015372599301
100
AcDbArc
 50
289.0349136620845911
 51
301.2819739417270739
  0
ARC
  5
186
100
AcDbEntity
  8
Visible (ISO)
 62
256
370
-1
  6
ByLayer
100
AcDbCircle
 10
74.719193207104297
 20
167.7958502174570015
 30
0.0
 40
11.1608015372599905
100
AcDbArc
 50
66.2686502161084974
 51
78.5157104957509233
  0
ARC
  5
187
100
AcDbEntity
  8
Visible (ISO)
 62
256
370
-1
  6
ByLayer
100
AcDbCircle
 10
58.2113561389583083
 20
177.8662017422516044
 30
0.0
 40
18.7500000000021387
100
AcDbArc
 50
11.6503120789177608
 51
13.9003120789173593
  0
ARC
  5
188
100
AcDbEntity
  8
Visible (ISO)
 62
256
370
-1
  6
ByLayer
100
AcDbCircle
 10
71.1665828051607718
 20
192.2217848557554021
 30
0.0
 40
11.1608015372599105
100
AcDbArc
 50
298.0349136620845911
 51
310.2819739417271876
  0
ARC
  5
189
100
AcDbEntity
  8
Visible (ISO)
 62
256
370
-1
  6
ByLayer
100
AcDbCircle
 10
76.0913043931587936
 20
170.5022276162441131
 30
0.0
 40
11.1608015372597702
100
AcDbArc
 50
75.2686502161084405
 51
87.5157104957511649
  0
ARC
  5
18A
100
AcDbEntity
  8
Visible (ISO)
 62
256
370
-1
  6
ByLayer
100
AcDbCircle
 10
58.2113561389569796
 20
177.8662017422508086
 30
0.0
 40
18.7500000000036593
100
AcDbArc
 50
20.6503120789179988
 51
22.9003120789174801
  0
ARC
  5
18B
100
AcDbEntity
  8
Visible (ISO)
 62
256
370
-1
  6
ByLayer
100
AcDbCircle
 10
68.7613745022322007
 20
194.0716877589057958
 30
0.0
 40
11.1608015372600207
100
AcDbArc
 50
307.0349136620845911
 51
319.2819739417270739
  0
ARC
  5
18C
100
AcDbEntity
  8
Visible (ISO)
 62
256
370
-1
  6
ByLayer
100
AcDbCircle
 10
77.0231519130487214
 20
173.3899304976420979
 30
0.0
 40
11.1608015372599692
100
AcDbArc
 50
84.2686502161085542
 51
96.5157104957510938
  0
ARC
  5
18D
100
AcDbEntity
  8
Visible (ISO)
 62
256
370
-1
  6
ByLayer
100
AcDbCircle
 10
58.2113561389683696
 20
177.8662017422568908
 30
0.0
 40
18.7499999999907203
100
AcDbArc
 50
29.6503120789172065
 51
31.9003120789183576
  0
ARC
  5
18E
100
AcDbEntity
  8
Visible (ISO)
 62
256
370
-1
  6
ByLayer
100
AcDbCircle
 10
66.0963897336963413
 20
195.5225578134015905
 30
0.0
 40
11.1608015372600793
100
AcDbArc
 50
316.0349136620845911
 51
328.2819739417270739
  0
ARC
  5
18F
100
AcDbEntity
  8
Visible (ISO)
 62
256
370
-1
  6
ByLayer
100
AcDbCircle
 10
77.4917905882098381
 20
176.387854032975099
 30
0.0
 40
11.1608015372599105
100
AcDbArc
 50
93.2686502161085116
 51
105.5157104957509944
  0
ARC
  5
190
100
AcDbEntity
  8
Visible (ISO)
 62
256
370
-1
  6
ByLayer
100
AcDbCircle
 10
58.2113561389515795
 20
177.8662017422448116
 30
0.0
 40
18.7500000000114788
100
AcDbArc
 50
38.650312078918553
 51
40.9003120789170822
  0
ARC
  5
191
100
AcDbEntity
  8
Visible (ISO)
 62
256
370
-1
  6
ByLayer
100
AcDbCircle
 10
63.2372492691318229
 20
196.538669783339401
 30
0.0
 40
11.1608015372602303
100
AcDbArc
 50
325.0349136620847048
 51
337.2819739417269034
  0
ARC
  5
192
100
AcDbEntity
  8
Visible (ISO)
 62
256
370
-1
  6
ByLayer
100
AcDbCircle
 10
77.4856809791370296
 20
179.4221793952654025
 30
0.0
 40
11.16080153725974
100
AcDbArc
 50
102.2686502161082984
 51
114.5157104957510938
  0
ARC
  5
193
100
AcDbEntity
  8
Visible (ISO)
 62
256
370
-1
  6
ByLayer
100
AcDbCircle
 10
58.2113561389566314
 20
177.8662017422477959
 30
0.0
 40
18.7500000000057483
100
AcDbArc
 50
47.6503120789182617
 51
49.9003120789174233
  0
ARC
  5
194
100
AcDbEntity
  8
Visible (ISO)
 62
256
370
-1
  6
ByLayer
100
AcDbCircle
 10
60.2543546357199418
 20
197.0950036197370139
 30
0.0
 40
11.1608015372598697
100
AcDbArc
 50
334.0349136620845911
 51
346.281973941727415
  0
ARC
  5
195
100
AcDbEntity
  8
Visible (ISO)
 62
256
370
-1
  6
ByLayer
100
AcDbCircle
 10
77.0049735246824838
 20
182.4181914237445028
 30
0.0
 40
11.1608015372598697
100
AcDbArc
 50
111.2686502161084974
 51
123.5157104957510796
  0
ARC
  5
196
100
AcDbEntity
  8
Visible (ISO)
 62
256
370
-1
  6
ByLayer
100
AcDbCircle
 10
58.2113561389591823
 20
177.8662017422502117
 30
0.0
 40
18.7500000000022702
100
AcDbArc
 50
56.650312078917942
 51
58.9003120789176009
  0
ARC
  5
197
100
AcDbEntity
  8
Visible (ISO)
 62
256
370
-1
  6
ByLayer
100
AcDbCircle
 10
57.221154598994282
 20
197.1778605371764002
 30
0.0
 40
11.1608015372598501
100
AcDbArc
 50
343.0349136620844774
 51
355.2819739417270739
  0
ARC
  5
198
100
AcDbEntity
  8
Visible (ISO)
 62
256
370
-1
  6
ByLayer
100
AcDbCircle
 10
76.0615048377513432
 20
185.3021183590776104
 30
0.0
 40
11.1608015372600402
100
AcDbArc
 50
120.2686502161084974
 51
132.5157104957509944
  0
ARC
  5
199
100
AcDbEntity
  8
Visible (ISO)
 62
256
370
-1
  6
ByLayer
100
AcDbCircle
 10
58.2113561389597507
 20
177.8662017422506096
 30
0.0
 40
18.750000000001581
100
AcDbArc
 50
65.6503120789178212
 51
67.9003120789177075
  0
ARC
  5
19A
100
AcDbEntity
  8
Visible (ISO)
 62
256
370
-1
  6
ByLayer
100
AcDbCircle
 10
54.2123366104728603
 20
196.7852003233637959
 30
0.0
 40
11.1608015372600509
100
AcDbArc
 50
352.0349136620845911
 51
4.2819739417269362
  0
ARC
  5
19B
100
AcDbEntity
  8
Visible (ISO)
 62
256
370
-1
  6
ByLayer
100
AcDbCircle
 10
74.6785062486088975
 20
188.0029483489122129
 30
0.0
 40
11.1608015372601503
100
AcDbArc
 50
129.2686502161085969
 51
141.5157104957509944
  0
ARC
  5
19C
100
AcDbEntity
  8
Visible (ISO)
 62
256
370
-1
  6
ByLayer
100
AcDbCircle
 10
58.2113561389583509
 20
177.8662017422439021
 30
0.0
 40
18.7500000000084484
100
AcDbArc
 50
74.6503120789184607
 51
76.900312078917537
  0
ARC
  5
19D
100
AcDbEntity
  8
Visible (ISO)
 62
256
370
-1
  6
ByLayer
100
AcDbCircle
 10
51.3019877547283372
 20
195.9266915759278049
 30
0.0
 40
11.1608015372596103
100
AcDbArc
 50
1.0349136620843591
 51
13.2819739417274505
  0
ARC
  5
19E
100
AcDbEntity
  8
Visible (ISO)
 62
256
370
-1
  6
ByLayer
100
AcDbCircle
 10
72.8900317724287135
 20
190.45417799535781
 30
0.0
 40
11.1608015372599105
100
AcDbArc
 50
138.2686502161083126
 51
150.5157104957509944
  0
ARC
  5
19F
100
AcDbEntity
  8
Visible (ISO)
 62
256
370
-1
  6
ByLayer
100
AcDbCircle
 10
58.2113561389603618
 20
177.8662017422518034
 30
0.0
 40
18.7500000000003411
100
AcDbArc
 50
83.6503120789177785
 51
85.9003120789178496
  0
ARC
  5
1A0
100
AcDbEntity
  8
Visible (ISO)
 62
256
370
-1
  6
ByLayer
100
AcDbCircle
 10
48.5617704794816802
 20
194.6234736294572087
 30
0.0
 40
11.1608015372601006
100
AcDbArc
 50
10.0349136620846995
 51
22.2819739417271805
  0
ARC
  5
1A1
100
AcDbEntity
  8
Visible (ISO)
 62
256
370
-1
  6
ByLayer
100
AcDbCircle
 10
70.7401195864215566
 20
192.5954498893536027
 30
0.0
 40
11.1608015372601805
100
AcDbArc
 50
147.2686502161087105
 51
159.5157104957509944
  0
ARC
  5
1A2
100
AcDbEntity
  8
Visible (ISO)
 62
256
370
-1
  6
ByLayer
100
AcDbCircle
 10
58.2113561389601131
 20
177.8662017422556119
 30
0.0
 40
18.7499999999964189
100
AcDbArc
 50
92.6503120789173948
 51
94.9003120789178212
  0
ARC
  5
1A3
100
AcDbEntity
  8
Visible (ISO)
 62
256
370
-1
  6
ByLayer
100
AcDbCircle
 10
46.0591580283109181
 20
192.907636034927009
 30
0.0
 40
11.1608015372597507
100
AcDbArc
 50
19.0349136620844206
 51
31.2819739417272515
  0
ARC
  5
1A4
100
AcDbEntity
  8
Visible (ISO)
 62
256
370
-1
  6
ByLayer
100
AcDbCircle
 10
68.2817076637555118
 20
194.3740388103960015
 30
0.0
 40
11.1608015372599905
100
AcDbArc
 50
156.2686502161085969
 51
168.5157104957511081
  0
ARC
  5
1A5
100
AcDbEntity
  8
Visible (ISO)
 62
256
370
-1
  6
ByLayer
100
AcDbCircle
 10
58.211356138960177
 20
177.8662017422529971
 30
0.0
 40
18.7499999999990514
100
AcDbArc
 50
101.6503120789176933
 51
103.9003120789179064
  0
ARC
  5
1A6
100
AcDbEntity
  8
Visible (ISO)
 62
256
370
-1
  6
ByLayer
100
AcDbCircle
 10
43.8557730254571396
 20
190.8214284084525048
 30
0.0
 40
11.1608015372599105
100
AcDbArc
 50
28.0349136620844384
 51
40.2819739417271308
  0
ARC
  5
1A7
100
AcDbEntity
  8
Visible (ISO)
 62
256
370
-1
  6
ByLayer
100
AcDbCircle
 10
65.5753302649684997
 20
195.7461499964504981
 30
0.0
 40
11.1608015372598803
100
AcDbArc
 50
165.2686502161085116
 51
177.5157104957511081
  0
ARC
  5
1A8
100
AcDbEntity
  8
Visible (ISO)
 62
256
370
-1
  6
ByLayer
100
AcDbCircle
 10
58.2113561389617402
 20
177.8662017422487054
 30
0.0
 40
18.7500000000036593
100
AcDbArc
 50
110.6503120789180059
 51
112.9003120789174943
  0
ARC
  5
1A9
100
AcDbEntity
  8
Visible (ISO)
 62
256
370
-1
  6
ByLayer
100
AcDbCircle
 10
42.0058701223067175
 20
188.4162201055239052
 30
0.0
 40
11.1608015372600207
100
AcDbArc
 50
37.0349136620845272
 51
49.2819739417271379
  0
ARC
  5
1AA
100
AcDbEntity
  8
Visible (ISO)
 62
256
370
-1
  6
ByLayer
100
AcDbCircle
 10
62.6876273835704296
 20
196.6779975163404117
 30
0.0
 40
11.1608015372599692
100
AcDbArc
 50
174.2686502161085969
 51
186.5157104957511933
  0
ARC
  5
1AB
100
AcDbEntity
  8
Visible (ISO)
 62
256
370
-1
  6
ByLayer
100
AcDbCircle
 10
58.2113561389611718
 20
177.8662017422508086
 30
0.0
 40
18.7500000000015312
100
AcDbArc
 50
119.6503120789177075
 51
121.9003120789175938
  0
ARC
  5
1AC
100
AcDbEntity
  8
Visible (ISO)
 62
256
370
-1
  6
ByLayer
100
AcDbCircle
 10
40.5550000678109868
 20
185.7512353369880884
 30
0.0
 40
11.1608015372599905
100
AcDbArc
 50
46.0349136620844988
 51
58.2819739417270526
  0
ARC
  5
1AD
100
AcDbEntity
  8
Visible (ISO)
 62
256
370
-1
  6
ByLayer
100
AcDbCircle
 10
59.6897038482372295
 20
197.1466361915015
 30
0.0
 40
11.1608015372597702
100
AcDbArc
 50
183.2686502161083126
 51
195.5157104957511933
  0
ARC
  5
1AE
100
AcDbEntity
  8
Visible (ISO)
 62
256
370
-1
  6
ByLayer
100
AcDbCircle
 10
58.211356138967723
 20
177.8662017422433053
 30
0.0
 40
18.7500000000114397
100
AcDbArc
 50
128.6503120789184891
 51
130.9003120789170964
  0
ARC
  5
1AF
100
AcDbEntity
  8
Visible (ISO)
 62
256
370
-1
  6
ByLayer
100
AcDbCircle
 10
39.5388880978732402
 20
182.8920948724239111
 30
0.0
 40
11.1608015372598608
100
AcDbArc
 50
55.0349136620845769
 51
67.2819739417273297
  0
ARC
  5
1B0
100
AcDbEntity
  8
Visible (ISO)
 62
256
370
-1
  6
ByLayer
100
AcDbCircle
 10
56.6553784859471108
 20
197.1405265824286914
 30
0.0
 40
11.1608015372598004
100
AcDbArc
 50
192.2686502161083126
 51
204.5157104957511933
  0
ARC
  5
1B1
100
AcDbEntity
  8
Visible (ISO)
 62
256
370
-1
  6
ByLayer
100
AcDbCircle
 10
53.6593664574680318
 20
196.6598191279742025
 30
0.0
 40
11.1608015372599301
100
AcDbArc
 50
201.2686502161083979
 51
213.5157104957511081
  0
ARC
  5
1B2
100
AcDbEntity
  8
Visible (ISO)
 62
256
370
-1
  6
ByLayer
100
AcDbCircle
 10
58.2113561389646605
 20
177.8662017422483927
 30
0.0
 40
18.7500000000056488
100
AcDbArc
 50
137.6503120789182049
 51
139.9003120789172954
  0
ARC
  5
1B3
100
AcDbEntity
  8
Visible (ISO)
 62
256
370
-1
  6
ByLayer
100
AcDbCircle
 10
38.9825542614755278
 20
179.9092002390117955
 30
0.0
 40
11.1608015372597702
100
AcDbArc
 50
64.0349136620844348
 51
76.281973941727145
  0
ARC
  5
1B4
100
AcDbEntity
  8
Visible (ISO)
 62
256
370
-1
  6
ByLayer
100
AcDbCircle
 10
58.2113561389544216
 20
177.866201742255214
 30
0.0
 40
20.9999999999932712
100
AcDbArc
 50
151.1503120789176933
 51
153.4003120789180912
  0
ARC
  5
1B5
100
AcDbEntity
  8
Visible (ISO)
 62
256
370
-1
  6
ByLayer
100
AcDbCircle
 10
58.2113561389522687
 20
177.8662017422547876
 30
0.0
 40
20.9999999999914202
100
AcDbArc
 50
160.150312078917608
 51
162.4003120789182901
  0
ARC
  5
1B6
100
AcDbEntity
  8
Visible (ISO)
 62
256
370
-1
  6
ByLayer
100
AcDbCircle
 10
58.2113561389665719
 20
177.8662017422510075
 30
0.0
 40
21.0000000000062812
100
AcDbArc
 50
169.1503120789182049
 51
171.4003120789174943
  0
ARC
  5
1B7
100
AcDbEntity
  8
Visible (ISO)
 62
256
370
-1
  6
ByLayer
100
AcDbCircle
 10
58.2113561389528513
 20
177.8662017422522013
 30
0.0
 40
20.9999999999924611
100
AcDbArc
 50
178.1503120789172101
 51
180.4003120789184038
  0
ARC
  5
1B8
100
AcDbEntity
  8
Visible (ISO)
 62
256
370
-1
  6
ByLayer
100
AcDbCircle
 10
58.2113561389571288
 20
177.8662017422516044
 30
0.0
 40
20.9999999999967102
100
AcDbArc
 50
187.1503120789178922
 51
189.4003120789178922
  0
ARC
  5
1B9
100
AcDbEntity
  8
Visible (ISO)
 62
256
370
-1
  6
ByLayer
100
AcDbCircle
 10
58.211356138961591
 20
177.8662017422524002
 30
0.0
 40
21.0000000000012292
100
AcDbArc
 50
196.1503120789180912
 51
198.4003120789176933
  0
ARC
  5
1BA
100
AcDbEntity
  8
Visible (ISO)
 62
256
370
-1
  6
ByLayer
100
AcDbCircle
 10
58.2113561389608307
 20
177.8662017422524002
 30
0.0
 40
21.0000000000005187
100
AcDbArc
 50
205.1503120789180059
 51
207.4003120789178922
  0
ARC
  5
1BB
100
AcDbEntity
  8
Visible (ISO)
 62
256
370
-1
  6
ByLayer
100
AcDbCircle
 10
58.2113561389529721
 20
177.8662017422468864
 30
0.0
 40
20.9999999999909299
100
AcDbArc
 50
214.150312078917807
 51
216.4003120789184038
  0
ARC
  5
1BC
100
AcDbEntity
  8
Visible (ISO)
 62
256
370
-1
  6
ByLayer
100
AcDbCircle
 10
58.211356138960781
 20
177.8662017422525139
 30
0.0
 40
21.00000000000054
100
AcDbArc
 50
223.150312078917807
 51
225.4003120789176933
  0
ARC
  5
1BD
100
AcDbEntity
  8
Visible (ISO)
 62
256
370
-1
  6
ByLayer
100
AcDbCircle
 10
58.2113561389618326
 20
177.8662017422539918
 30
0.0
 40
21.0000000000024407
100
AcDbArc
 50
232.1503120789178354
 51
234.4003120789177785
  0
ARC
  5
1BE
100
AcDbEntity
  8
Visible (ISO)
 62
256
370
-1
  6
ByLayer
100
AcDbCircle
 10
58.2113561389613565
 20
177.8662017422537929
 30
0.0
 40
21.0000000000019504
100
AcDbArc
 50
241.1503120789178922
 51
243.4003120789174943
  0
ARC
  5
1BF
100
AcDbEntity
  8
Visible (ISO)
 62
256
370
-1
  6
ByLayer
100
AcDbCircle
 10
58.2113561389604612
 20
177.8662017422522865
 30
0.0
 40
21.0000000000002309
100
AcDbArc
 50
250.1503120789178922
 51
252.4003120789177785
  0
ARC
  5
1C0
100
AcDbEntity
  8
Visible (ISO)
 62
256
370
-1
  6
ByLayer
100
AcDbCircle
 10
58.2113561389619178
 20
177.866201742261012
 30
0.0
 40
21.0000000000090594
100
AcDbArc
 50
259.1503120789184891
 51
261.4003120789174091
  0
ARC
  5
1C1
100
AcDbEntity
  8
Visible (ISO)
 62
256
370
-1
  6
ByLayer
100
AcDbCircle
 10
58.211356138960312
 20
177.8662017422443
 30
0.0
 40
20.9999999999921982
100
AcDbArc
 50
268.1503120789175227
 51
270.4003120789180912
  0
ARC
  5
1C2
100
AcDbEntity
  8
Visible (ISO)
 62
256
370
-1
  6
ByLayer
100
AcDbCircle
 10
58.2113561389613565
 20
177.8662017422452095
 30
0.0
 40
20.9999999999930012
100
AcDbArc
 50
277.1503120789175227
 51
279.4003120789183185
  0
ARC
  5
1C3
100
AcDbEntity
  8
Visible (ISO)
 62
256
370
-1
  6
ByLayer
100
AcDbCircle
 10
58.211356138960177
 20
177.8662017422529118
 30
0.0
 40
21.0000000000007603
100
AcDbArc
 50
286.150312078917807
 51
288.4003120789176933
  0
ARC
  5
1C4
100
AcDbEntity
  8
Visible (ISO)
 62
256
370
-1
  6
ByLayer
100
AcDbCircle
 10
58.2113561389621168
 20
177.8662017422485917
 30
0.0
 40
20.9999999999960814
100
AcDbArc
 50
295.1503120789175227
 51
297.4003120789180912
  0
ARC
  5
1C5
100
AcDbEntity
  8
Visible (ISO)
 62
256
370
-1
  6
ByLayer
100
AcDbCircle
 10
58.2113561389560914
 20
177.866201742258113
 30
0.0
 40
21.000000000007379
100
AcDbArc
 50
304.1503120789187165
 51
306.4003120789175227
  0
ARC
  5
1C6
100
AcDbEntity
  8
Visible (ISO)
 62
256
370
-1
  6
ByLayer
100
AcDbCircle
 10
58.2113561389599283
 20
177.8662017422525992
 30
0.0
 40
21.0000000000006892
100
AcDbArc
 50
313.1503120789179206
 51
315.400312078917807
  0
ARC
  5
1C7
100
AcDbEntity
  8
Visible (ISO)
 62
256
370
-1
  6
ByLayer
100
AcDbCircle
 10
58.2113561389532208
 20
177.8662017422574024
 30
0.0
 40
21.0000000000089102
100
AcDbArc
 50
322.1503120789184891
 51
324.4003120789174091
  0
ARC
  5
1C8
100
AcDbEntity
  8
Visible (ISO)
 62
256
370
-1
  6
ByLayer
100
AcDbCircle
 10
58.2113561389535121
 20
177.8662017422556971
 30
0.0
 40
21.0000000000077804
100
AcDbArc
 50
331.1503120789182049
 51
333.4003120789174091
  0
ARC
  5
1C9
100
AcDbEntity
  8
Visible (ISO)
 62
256
370
-1
  6
ByLayer
100
AcDbCircle
 10
58.2113561389682417
 20
177.8662017422495012
 30
0.0
 40
20.9999999999917186
100
AcDbArc
 50
340.1503120789171817
 51
342.4003120789182049
  0
ARC
  5
1CA
100
AcDbEntity
  8
Visible (ISO)
 62
256
370
-1
  6
ByLayer
100
AcDbCircle
 10
58.2113561389533913
 20
177.8662017422533097
 30
0.0
 40
21.0000000000070983
100
AcDbArc
 50
349.1503120789183754
 51
351.4003120789174091
  0
ARC
  5
1CB
100
AcDbEntity
  8
Visible (ISO)
 62
256
370
-1
  6
ByLayer
100
AcDbCircle
 10
58.2113561389599994
 20
177.8662017422520876
 30
0.0
 40
21.0000000000004015
100
AcDbArc
 50
358.1503120789183185
 51
0.4003120789174908
  0
ARC
  5
1CC
100
AcDbEntity
  8
Visible (ISO)
 62
256
370
-1
  6
ByLayer
100
AcDbCircle
 10
58.2113561389634668
 20
177.8662017422525139
 30
0.0
 40
20.9999999999968985
100
AcDbArc
 50
7.1503120789179331
 51
9.4003120789179881
  0
ARC
  5
1CD
100
AcDbEntity
  8
Visible (ISO)
 62
256
370
-1
  6
ByLayer
100
AcDbCircle
 10
58.2113561389612428
 20
177.8662017422524002
 30
0.0
 40
20.9999999999991296
100
AcDbArc
 50
16.1503120789177714
 51
18.4003120789179313
  0
ARC
  5
1CE
100
AcDbEntity
  8
Visible (ISO)
 62
256
370
-1
  6
ByLayer
100
AcDbCircle
 10
58.2113561389607881
 20
177.8662017422522865
 30
0.0
 40
20.9999999999995595
100
AcDbArc
 50
25.1503120789181907
 51
27.400312078917981
  0
ARC
  5
1CF
100
AcDbEntity
  8
Visible (ISO)
 62
256
370
-1
  6
ByLayer
100
AcDbCircle
 10
58.2113561389653782
 20
177.8662017422556119
 30
0.0
 40
20.9999999999938609
100
AcDbArc
 50
34.1503120789176222
 51
36.400312078918212
  0
ARC
  5
1D0
100
AcDbEntity
  8
Visible (ISO)
 62
256
370
-1
  6
ByLayer
100
AcDbCircle
 10
58.2113561389597365
 20
177.8662017422514907
 30
0.0
 40
21.0000000000009202
100
AcDbArc
 50
43.150312078917878
 51
45.400312078917743
  0
ARC
  5
1D1
100
AcDbEntity
  8
Visible (ISO)
 62
256
370
-1
  6
ByLayer
100
AcDbCircle
 10
58.2113561389575409
 20
177.8662017422483075
 30
0.0
 40
21.0000000000047393
100
AcDbArc
 50
52.150312078918077
 51
54.4003120789174517
  0
ARC
  5
1D2
100
AcDbEntity
  8
Visible (ISO)
 62
256
370
-1
  6
ByLayer
100
AcDbCircle
 10
58.2113561389634171
 20
177.8662017422578003
 30
0.0
 40
20.9999999999935412
100
AcDbArc
 50
61.1503120789177004
 51
63.4003120789181907
  0
ARC
  5
1D3
100
AcDbEntity
  8
Visible (ISO)
 62
256
370
-1
  6
ByLayer
100
AcDbCircle
 10
58.2113561389625715
 20
177.8662017422585109
 30
0.0
 40
20.9999999999932001
100
AcDbArc
 50
70.1503120789174233
 51
72.4003120789181338
  0
ARC
  5
1D4
100
AcDbEntity
  8
Visible (ISO)
 62
256
370
-1
  6
ByLayer
100
AcDbCircle
 10
58.2113561389604968
 20
177.8662017422529118
 30
0.0
 40
20.9999999999992504
100
AcDbArc
 50
79.1503120789177217
 51
81.4003120789177785
  0
ARC
  5
1D5
100
AcDbEntity
  8
Visible (ISO)
 62
256
370
-1
  6
ByLayer
100
AcDbCircle
 10
58.2113561389603831
 20
177.8662017422516897
 30
0.0
 40
21.0000000000003801
100
AcDbArc
 50
88.1503120789182049
 51
90.4003120789177501
  0
ARC
  5
1D6
100
AcDbEntity
  8
Visible (ISO)
 62
256
370
-1
  6
ByLayer
100
AcDbCircle
 10
58.2113561389601415
 20
177.8662017422539918
 30
0.0
 40
20.9999999999980709
100
AcDbArc
 50
97.1503120789176222
 51
99.4003120789180201
  0
ARC
  5
1D7
100
AcDbEntity
  8
Visible (ISO)
 62
256
370
-1
  6
ByLayer
100
AcDbCircle
 10
58.2113561389599283
 20
177.8662017422535087
 30
0.0
 40
20.9999999999985292
100
AcDbArc
 50
106.150312078917807
 51
108.400312078917807
  0
ARC
  5
1D8
100
AcDbEntity
  8
Visible (ISO)
 62
256
370
-1
  6
ByLayer
100
AcDbCircle
 10
58.2113561389590117
 20
177.8662017422549013
 30
0.0
 40
20.9999999999968594
100
AcDbArc
 50
115.150312078917608
 51
117.4003120789179917
  0
ARC
  5
1D9
100
AcDbEntity
  8
Visible (ISO)
 62
256
370
-1
  6
ByLayer
100
AcDbCircle
 10
58.2113561389645966
 20
177.8662017422462895
 30
0.0
 40
21.0000000000072014
100
AcDbArc
 50
124.1503120789187022
 51
126.4003120789175938
  0
ARC
  5
1DA
100
AcDbEntity
  8
Visible (ISO)
 62
256
370
-1
  6
ByLayer
100
AcDbCircle
 10
58.2113561389608591
 20
177.8662017422516044
 30
0.0
 40
21.0000000000006892
100
AcDbArc
 50
133.150312078917807
 51
135.400312078917807
  0
ARC
  5
1DB
100
AcDbEntity
  8
Visible (ISO)
 62
256
370
-1
  6
ByLayer
100
AcDbCircle
 10
58.2113561389652219
 20
177.8662017422485064
 30
0.0
 40
21.000000000006029
100
AcDbArc
 50
142.1503120789184038
 51
144.4003120789174943
  0
ENDSEC
  0
SECTION
  2
OBJECTS
  0
DICTIONARY
  5
C
100
AcDbDictionary
280
0
281
1
  3
ACAD_GROUP
350
D
  3
ACAD_LAYOUT
350
1A
  3
ACAD_MLINESTYLE
350
17
  3
ACAD_PLOTSETTINGS
350
19
  3
ACAD_PLOTSTYLENAME
350
E
  3
AcDbVariableDictionary
350
1DC
  0
DICTIONARY
  5
D
100
AcDbDictionary
280
0
281
1
  0
ACDBDICTIONARYWDFLT
  5
E
100
AcDbDictionary
281
1
  3
Normal
350
F
100
AcDbDictionaryWithDefault
340
F
  0
ACDBPLACEHOLDER
  5
F
  0
DICTIONARY
  5
17
100
AcDbDictionary
280
0
281
1
  3
Standard
350
18
  0
MLINESTYLE
  5
18
100
AcDbMlineStyle
  2
STANDARD
 70
0
  3

 62
256
 51
90.0
 52
90.0
 71
2
 49
0.5
 62
256
  6
BYLAYER
 49
-0.5
 62
256
  6
BYLAYER
  0
DICTIONARY
  5
19
100
AcDbDictionary
280
0
281
1
  0
DICTIONARY
  5
1A
100
AcDbDictionary
281
1
  3
Layout1
350
1E
  3
Layout2
350
26
  3
Model
350
22
  0
LAYOUT
  5
1E
100
AcDbPlotSettings
  1

  2
C:\Program Files\AutoCAD 2002\plotters\DWF ePlot (optimized for plotting).pc3
  4

  6

 40
0.0
 41
0.0
 42
0.0
 43
0.0
 44
0.0
 45
0.0
 46
0.0
 47
0.0
 48
0.0
 49
0.0
140
0.0
141
0.0
142
1.0
143
1.0
 70
688
 72
0
 73
0
 74
5
  7

 75
16
147
1.0
148
0.0
149
0.0
100
AcDbLayout
  1
Layout1
 70
1
 71
1
 10
0.0
 20
0.0
 11
420.0
 21
297.0
 12
0.0
 22
0.0
 32
0.0
 14
100000000000000000000.0
 24
100000000000000000000.0
 34
100000000000000000000.0
 15
-100000000000000000000.0
 25
-100000000000000000000.0
 35
-100000000000000000000.0
146
0.0
 13
0.0
 23
0.0
 33
0.0
 16
1.0
 26
0.0
 36
0.0
 17
0.0
 27
1.0
 37
0.0
 76
0
330
1B
  0
LAYOUT
  5
22
100
AcDbPlotSettings
  1

  2
C:\Program Files\AutoCAD 2002\plotters\DWF ePlot (optimized for plotting).pc3
  4

  6

 40
0.0
 41
0.0
 42
0.0
 43
0.0
 44
0.0
 45
0.0
 46
0.0
 47
0.0
 48
0.0
 49
0.0
140
0.0
141
0.0
142
1.0
143
1.0
 70
1712
 72
0
 73
0
 74
0
  7

 75
0
147
1.0
148
0.0
149
0.0
100
AcDbLayout
  1
Model
 70
1
 71
0
 10
0.0
 20
0.0
 11
12.0
 21
9.0
 12
0.0
 22
0.0
 32
0.0
 14
0.0
 24
0.0
 34
0.0
 15
0.0
 25
0.0
 35
0.0
146
0.0
 13
0.0
 23
0.0
 33
0.0
 16
1.0
 26
0.0
 36
0.0
 17
0.0
 27
1.0
 37
0.0
 76
0
330
1F
  0
LAYOUT
  5
26
100
AcDbPlotSettings
  1

  2
C:\Program Files\AutoCAD 2002\plotters\DWF ePlot (optimized for plotting).pc3
  4

  6

 40
0.0
 41
0.0
 42
0.0
 43
0.0
 44
0.0
 45
0.0
 46
0.0
 47
0.0
 48
0.0
 49
0.0
140
0.0
141
0.0
142
1.0
143
1.0
 70
688
 72
0
 73
0
 74
5
  7

 75
16
147
1.0
148
0.0
149
0.0
100
AcDbLayout
  1
Layout2
 70
1
 71
2
 10
0.0
 20
0.0
 11
12.0
 21
9.0
 12
0.0
 22
0.0
 32
0.0
 14
0.0
 24
0.0
 34
0.0
 15
0.0
 25
0.0
 35
0.0
146
0.0
 13
0.0
 23
0.0
 33
0.0
 16
1.0
 26
0.0
 36
0.0
 17
0.0
 27
1.0
 37
0.0
 76
0
330
23
  0
DICTIONARY
  5
1DC
100
AcDbDictionary
281
1
  3
DIMASSOC
350
1DE
  3
HIDETEXT
350
1DD
  0
DICTIONARYVAR
  5
1DD
100
DictionaryVariables
280
0
  1
2
  0
DICTIONARYVAR
  5
1DE
100
DictionaryVariables
280
0
  1
1
  0
ENDSEC
  0
EOF
