999
dxflib 2.1.2.0
  0
SECTION
  2
HEADER
  9
$ACADVER
  1
AC1015
  9
$HANDSEED
  5
FFFF
  9
$SPLINESEGS
 70
8
  9
$DIMEXE
 40
1.25
  9
$DIMLUNIT
 70
2
  9
$GRIDMODE
 70
1
  9
$INSUNITS
 70
4
  9
$DIMADEC
 70
2
  9
$DIMASZ
 40
2.5
  9
$DIMGAP
 40
0.625
  9
$DIMTXT
 40
2.5
  9
$GRIDUNIT
 10
0.0
 20
0.0
  9
$DIMEXO
 40
0.625
  9
$LUPREC
 70
4
  9
$CLAYER
  8
Bottom
  9
$DIMAUNIT
 70
0
  9
$AUPREC
 70
2
  9
$PLIMMIN
 10
0.0
 20
0.0
  9
$LUNITS
 70
2
  9
$PLIMMAX
 10
215.9000000000000057
 20
279.3999999999999773
  9
$DIMSTYLE
  2
Standard
  9
$AUNITS
 70
0
  9
$CLAYER
  8
Bottom
  0
ENDSEC
  0
SECTION
  2
TABLES
  0
TABLE
  2
VPORT
  5
8
100
AcDbSymbolTable
 70
1
  0
VPORT
  5
30
100
AcDbSymbolTableRecord
100
AcDbViewportTableRecord
  2
*Active
 70
0
 10
0.0
 20
0.0
 11
1.0
 21
1.0
 12
286.3055555555554861
 22
148.5
 13
0.0
 23
0.0
 14
10.0
 24
10.0
 15
10.0
 25
10.0
 16
0.0
 26
0.0
 36
1.0
 17
0.0
 27
0.0
 37
0.0
 40
297.0
 41
1.92798353909465
 42
50.0
 43
0.0
 44
0.0
 50
0.0
 51
0.0
 71
0
 72
100
 73
1
 74
3
 75
1
 76
1
 77
0
 78
0
281
0
 65
1
110
0.0
120
0.0
130
0.0
111
1.0
121
0.0
131
0.0
112
0.0
122
1.0
132
0.0
 79
0
146
0.0
  0
ENDTAB
  0
TABLE
  2
LTYPE
  5
5
100
AcDbSymbolTable
 70
21
  0
LTYPE
  5
14
100
AcDbSymbolTableRecord
100
AcDbLinetypeTableRecord
  2
ByBlock
 70
0
  3

 72
65
 73
0
 40
0.0
  0
LTYPE
  5
15
100
AcDbSymbolTableRecord
100
AcDbLinetypeTableRecord
  2
ByLayer
 70
0
  3

 72
65
 73
0
 40
0.0
  0
LTYPE
  5
16
100
AcDbSymbolTableRecord
100
AcDbLinetypeTableRecord
  2
CONTINUOUS
 70
0
  3
Solid line
 72
65
 73
0
 40
0.0
  0
LTYPE
  5
31
100
AcDbSymbolTableRecord
100
AcDbLinetypeTableRecord
  2
DOT
 70
0
  3
Dot . . . . . . . . . . . . . . . . . . . . . .
 72
65
 73
2
 40
6.3499999999999996
 49
0.0
 74
0
 49
-6.3499999999999996
 74
0
  0
LTYPE
  5
32
100
AcDbSymbolTableRecord
100
AcDbLinetypeTableRecord
  2
DOT2
 70
0
  3
Dot (.5x) .....................................
 72
65
 73
2
 40
3.1749999999999998
 49
0.0
 74
0
 49
-3.1749999999999998
 74
0
  0
LTYPE
  5
33
100
AcDbSymbolTableRecord
100
AcDbLinetypeTableRecord
  2
DOTX2
 70
0
  3
Dot (2x) .  .  .  .  .  .  .  .  .  .  .  .  .
 72
65
 73
2
 40
12.6999999999999993
 49
0.0
 74
0
 49
-12.6999999999999993
 74
0
  0
LTYPE
  5
34
100
AcDbSymbolTableRecord
100
AcDbLinetypeTableRecord
  2
DASHED
 70
0
  3
Dashed __ __ __ __ __ __ __ __ __ __ __ __ __ _
 72
65
 73
2
 40
19.0500000000000007
 49
12.6999999999999993
 74
0
 49
-6.3499999999999996
 74
0
  0
LTYPE
  5
35
100
AcDbSymbolTableRecord
100
AcDbLinetypeTableRecord
  2
DASHED2
 70
0
  3
Dashed (.5x) _ _ _ _ _ _ _ _ _ _ _ _ _ _ _ _ _
 72
65
 73
2
 40
9.5250000000000004
 49
6.3499999999999996
 74
0
 49
-3.1749999999999998
 74
0
  0
LTYPE
  5
36
100
AcDbSymbolTableRecord
100
AcDbLinetypeTableRecord
  2
DASHEDX2
 70
0
  3
Dashed (2x) ____  ____  ____  ____  ____  ___
 72
65
 73
2
 40
38.1000000000000014
 49
25.3999999999999986
 74
0
 49
-12.6999999999999993
 74
0
  0
LTYPE
  5
37
100
AcDbSymbolTableRecord
100
AcDbLinetypeTableRecord
  2
DASHDOT
 70
0
  3
Dash dot __ . __ . __ . __ . __ . __ . __ . __
 72
65
 73
4
 40
25.3999999999999986
 49
12.6999999999999993
 74
0
 49
-6.3499999999999996
 74
0
 49
0.0
 74
0
 49
-6.3499999999999996
 74
0
  0
LTYPE
  5
38
100
AcDbSymbolTableRecord
100
AcDbLinetypeTableRecord
  2
DASHDOT2
 70
0
  3
Dash dot (.5x) _._._._._._._._._._._._._._._.
 72
65
 73
4
 40
12.6999999999999993
 49
6.3499999999999996
 74
0
 49
-3.1749999999999998
 74
0
 49
0.0
 74
0
 49
-3.1749999999999998
 74
0
  0
LTYPE
  5
39
100
AcDbSymbolTableRecord
100
AcDbLinetypeTableRecord
  2
DASHDOTX2
 70
0
  3
Dash dot (2x) ____  .  ____  .  ____  .  ___
 72
65
 73
4
 40
50.7999999999999972
 49
25.3999999999999986
 74
0
 49
-12.6999999999999993
 74
0
 49
0.0
 74
0
 49
-12.6999999999999993
 74
0
  0
LTYPE
  5
3A
100
AcDbSymbolTableRecord
100
AcDbLinetypeTableRecord
  2
DIVIDE
 70
0
  3
Divide ____ . . ____ . . ____ . . ____ . . ____
 72
65
 73
6
 40
31.75
 49
12.6999999999999993
 74
0
 49
-6.3499999999999996
 74
0
 49
0.0
 74
0
 49
-6.3499999999999996
 74
0
 49
0.0
 74
0
 49
-6.3499999999999996
 74
0
  0
LTYPE
  5
3B
100
AcDbSymbolTableRecord
100
AcDbLinetypeTableRecord
  2
DIVIDE2
 70
0
  3
Divide (.5x) __..__..__..__..__..__..__..__.._
 72
65
 73
6
 40
15.875
 49
6.3499999999999996
 74
0
 49
-3.1749999999999998
 74
0
 49
0.0
 74
0
 49
-3.1749999999999998
 74
0
 49
0.0
 74
0
 49
-3.1749999999999998
 74
0
  0
LTYPE
  5
3C
100
AcDbSymbolTableRecord
100
AcDbLinetypeTableRecord
  2
DIVIDEX2
 70
0
  3
Divide (2x) ________  .  .  ________  .  .  _
 72
65
 73
6
 40
63.5
 49
25.3999999999999986
 74
0
 49
-12.6999999999999993
 74
0
 49
0.0
 74
0
 49
-12.6999999999999993
 74
0
 49
0.0
 74
0
 49
-12.6999999999999993
 74
0
  0
LTYPE
  5
3D
100
AcDbSymbolTableRecord
100
AcDbLinetypeTableRecord
  2
CENTER
 70
0
  3
Center ____ _ ____ _ ____ _ ____ _ ____ _ ____
 72
65
 73
4
 40
50.7999999999999972
 49
31.75
 74
0
 49
-6.3499999999999996
 74
0
 49
6.3499999999999996
 74
0
 49
-6.3499999999999996
 74
0
  0
LTYPE
  5
3E
100
AcDbSymbolTableRecord
100
AcDbLinetypeTableRecord
  2
CENTER2
 70
0
  3
Center (.5x) ___ _ ___ _ ___ _ ___ _ ___ _ ___
 72
65
 73
4
 40
28.5749999999999993
 49
19.0500000000000007
 74
0
 49
-3.1749999999999998
 74
0
 49
3.1749999999999998
 74
0
 49
-3.1749999999999998
 74
0
  0
LTYPE
  5
3F
100
AcDbSymbolTableRecord
100
AcDbLinetypeTableRecord
  2
CENTERX2
 70
0
  3
Center (2x) ________  __  ________  __  _____
 72
65
 73
4
 40
101.5999999999999943
 49
63.5
 74
0
 49
-12.6999999999999993
 74
0
 49
12.6999999999999993
 74
0
 49
-12.6999999999999993
 74
0
  0
LTYPE
  5
40
100
AcDbSymbolTableRecord
100
AcDbLinetypeTableRecord
  2
BORDER
 70
0
  3
Border __ __ . __ __ . __ __ . __ __ . __ __ .
 72
65
 73
6
 40
44.4500000000000028
 49
12.6999999999999993
 74
0
 49
-6.3499999999999996
 74
0
 49
12.6999999999999993
 74
0
 49
-6.3499999999999996
 74
0
 49
0.0
 74
0
 49
-6.3499999999999996
 74
0
  0
LTYPE
  5
41
100
AcDbSymbolTableRecord
100
AcDbLinetypeTableRecord
  2
BORDER2
 70
0
  3
Border (.5x) __.__.__.__.__.__.__.__.__.__.__.
 72
65
 73
6
 40
22.2250000000000014
 49
6.3499999999999996
 74
0
 49
-3.1749999999999998
 74
0
 49
6.3499999999999996
 74
0
 49
-3.1749999999999998
 74
0
 49
0.0
 74
0
 49
-3.1749999999999998
 74
0
  0
LTYPE
  5
42
100
AcDbSymbolTableRecord
100
AcDbLinetypeTableRecord
  2
BORDERX2
 70
0
  3
Border (2x) ____  ____  .  ____  ____  .  ___
 72
65
 73
6
 40
88.9000000000000057
 49
25.3999999999999986
 74
0
 49
-12.6999999999999993
 74
0
 49
25.3999999999999986
 74
0
 49
-12.6999999999999993
 74
0
 49
0.0
 74
0
 49
-12.6999999999999993
 74
0
  0
ENDTAB
  0
TABLE
  2
LAYER
  5
2
100
AcDbSymbolTable
 70
11
  0
LAYER
  5
10
100
AcDbSymbolTableRecord
100
AcDbLayerTableRecord
  2
0
 70
0
 62
7
  6
CONTINUOUS
370
0
390
F
  0
LAYER
  5
43
100
AcDbSymbolTableRecord
100
AcDbLayerTableRecord
  2
Bottom
 70
0
 62
7
  6
CONTINUOUS
370
0
390
F
  0
LAYER
  5
44
100
AcDbSymbolTableRecord
100
AcDbLayerTableRecord
  2
Top
 70
0
 62
7
  6
CONTINUOUS
370
0
390
F
  0
LAYER
  5
45
100
AcDbSymbolTableRecord
100
AcDbLayerTableRecord
  2
Top Text
 70
0
 62
4
  6
CONTINUOUS
370
0
390
F
  0
LAYER
  5
46
100
AcDbSymbolTableRecord
100
AcDbLayerTableRecord
  2
Bottom Text
 70
0
 62
4
  6
CONTINUOUS
370
0
390
F
  0
LAYER
  5
47
100
AcDbSymbolTableRecord
100
AcDbLayerTableRecord
  2
Notes
 70
0
 62
7
  6
CONTINUOUS
370
0
390
F
  0
LAYER
  5
48
100
AcDbSymbolTableRecord
100
AcDbLayerTableRecord
  2
Middle
 70
0
 62
7
  6
CONTINUOUS
370
0
390
F
  0
LAYER
  5
49
100
AcDbSymbolTableRecord
100
AcDbLayerTableRecord
  2
Middle Text
 70
0
 62
4
  6
CONTINUOUS
370
0
390
F
  0
LAYER
  5
4A
100
AcDbSymbolTableRecord
100
AcDbLayerTableRecord
  2
Drawing
 70
0
 62
5
  6
CONTINUOUS
370
0
390
F
  0
LAYER
  5
4B
100
AcDbSymbolTableRecord
100
AcDbLayerTableRecord
  2
retainer
 70
0
 62
7
  6
CONTINUOUS
370
0
390
F
  0
LAYER
  5
4C
100
AcDbSymbolTableRecord
100
AcDbLayerTableRecord
  2
Text
 70
0
 62
4
  6
CONTINUOUS
370
0
390
F
  0
ENDTAB
  0
TABLE
  2
STYLE
  5
3
100
AcDbSymbolTable
 70
1
  0
STYLE
  5
11
100
AcDbSymbolTableRecord
100
AcDbTextStyleTableRecord
  2
Standard
 70
0
 40
0.0
 41
0.75
 50
0.0
 71
0
 42
2.5
  3
txt
  4

  0
ENDTAB
  0
TABLE
  2
VIEW
  5
6
100
AcDbSymbolTable
 70
0
  0
ENDTAB
  0
TABLE
  2
UCS
  5
7
100
AcDbSymbolTable
 70
0
  0
ENDTAB
  0
TABLE
  2
APPID
  5
9
100
AcDbSymbolTable
 70
1
  0
APPID
  5
12
100
AcDbSymbolTableRecord
100
AcDbRegAppTableRecord
  2
ACAD
 70
0
  0
ENDTAB
  0
TABLE
  2
DIMSTYLE
  5
A
100
AcDbSymbolTable
 70
1
100
AcDbDimStyleTable
 71
0
  0
DIMSTYLE
105
27
100
AcDbSymbolTableRecord
100
AcDbDimStyleTableRecord
  2
Standard
 41
2.5
 42
0.625
 43
3.75
 44
1.25
 70
0
 73
0
 74
0
 77
1
 78
8
140
2.5
141
2.5
143
0.03937007874016
147
0.625
171
3
172
1
271
2
272
2
274
3
278
44
283
0
284
8
340
11
  0
ENDTAB
  0
TABLE
  2
BLOCK_RECORD
  5
1
100
AcDbSymbolTable
 70
1
  0
BLOCK_RECORD
  5
1F
100
AcDbSymbolTableRecord
100
AcDbBlockTableRecord
  2
*Model_Space
340
22
  0
BLOCK_RECORD
  5
1B
100
AcDbSymbolTableRecord
100
AcDbBlockTableRecord
  2
*Paper_Space
340
1E
  0
BLOCK_RECORD
  5
23
100
AcDbSymbolTableRecord
100
AcDbBlockTableRecord
  2
*Paper_Space0
340
26
  0
ENDTAB
  0
ENDSEC
  0
SECTION
  2
BLOCKS
  0
BLOCK
  5
20
100
AcDbEntity
  8
0
100
AcDbBlockBegin
  2
*Model_Space
 70
0
 10
0.0
 20
0.0
 30
0.0
  3
*Model_Space
  1

  0
ENDBLK
  5
21
100
AcDbEntity
  8
0
100
AcDbBlockEnd
  0
BLOCK
  5
1C
100
AcDbEntity
 67
1
  8
0
100
AcDbBlockBegin
  2
*Paper_Space
 70
0
 10
0.0
 20
0.0
 30
0.0
  3
*Paper_Space
  1

  0
ENDBLK
  5
1D
100
AcDbEntity
 67
1
  8
0
100
AcDbBlockEnd
  0
BLOCK
  5
24
100
AcDbEntity
  8
0
100
AcDbBlockBegin
  2
*Paper_Space0
 70
0
 10
0.0
 20
0.0
 30
0.0
  3
*Paper_Space0
  1

  0
ENDBLK
  5
25
100
AcDbEntity
  8
0
100
AcDbBlockEnd
  0
ENDSEC
  0
SECTION
  2
ENTITIES
  0
MTEXT
  5
4D
100
AcDbEntity
100
AcDbMText
  8
Notes
 62
256
370
-1
  6
ByLayer
 10
60.0
 20
150.0
 30
0.0
 40
3.0
 41
100.0
 71
1
 72
2
  1
Main\~Plate\PTop\~Layer:\~3/16"\~acrylic\PMiddle\~Layer:\~1/8"\~acrylic\PBottom\~Layer:\~1/16"\~acrylic
  7
standard
 50
0.0
 73
1
 44
1.0
  0
LINE
  5
4E
100
AcDbEntity
100
AcDbLine
  8
Drawing
 62
256
370
-1
  6
ByLayer
 10
102.3034234025586215
 20
56.8674094399162442
 30
0.0
 11
83.4923155196471498
 21
108.5505035831414204
 31
0.0
  0
LINE
  5
4F
100
AcDbEntity
100
AcDbLine
  8
Drawing
 62
256
370
-1
  6
ByLayer
 10
97.3401013151279244
 20
113.5906854231905783
 30
0.0
 11
97.3401013151286918
 21
48.2941167806186513
 31
0.0
  0
LINE
  5
50
100
AcDbEntity
100
AcDbLine
  8
Drawing
 62
256
370
-1
  6
ByLayer
 10
66.5778483455003141
 20
102.3941410032788895
 30
0.0
 11
69.9980497787577747
 21
92.9972147954200494
 31
0.0
  0
LINE
  5
51
100
AcDbEntity
100
AcDbLine
  8
Drawing
 62
256
370
-1
  6
ByLayer
 10
100.4067826937931898
 20
114.7068661630036388
 30
0.0
 11
103.8269841270498546
 21
105.3099399551449267
 31
0.0
  0
LINE
  5
52
100
AcDbEntity
100
AcDbLine
  8
Drawing
 62
256
370
-1
  6
ByLayer
 10
70.4039458328678336
 20
70.5040248006109209
 30
0.0
 11
101.8401013151282939
 21
70.5040248006114325
 31
0.0
  0
LINE
  5
53
100
AcDbEntity
100
AcDbLine
  8
Drawing
 62
256
370
-1
  6
ByLayer
 10
70.4039458328678336
 20
76.0040248006109209
 30
0.0
 11
121.2833444015061275
 21
76.0040248006117451
 31
0.0
  0
LINE
  5
54
100
AcDbEntity
100
AcDbLine
  8
Drawing
 62
256
370
-1
  6
ByLayer
 10
70.403945832867862
 20
65.0040248006109209
 30
0.0
 11
122.1561467766125872
 21
65.0040248006117594
 31
0.0
  0
LINE
  5
55
100
AcDbEntity
100
AcDbLine
  8
Drawing
 62
256
370
-1
  6
ByLayer
 10
87.3401013151285497
 20
59.5040248006112051
 30
0.0
 11
87.340101315128237
 21
81.5040248006112051
 31
0.0
  0
CIRCLE
  5
56
100
AcDbEntity
100
AcDbCircle
  8
Drawing
 62
256
370
-1
  6
ByLayer
 10
87.3401013151283223
 20
76.0040248006111909
 30
0.0
 40
4.4500000000000002
  0
CIRCLE
  5
57
100
AcDbEntity
100
AcDbCircle
  8
Drawing
 62
256
370
-1
  6
ByLayer
 10
87.3401013151284928
 20
65.0040248006111909
 30
0.0
 40
4.4500000000000002
  0
LINE
  5
58
100
AcDbEntity
100
AcDbLine
  8
Drawing
 62
256
370
-1
  6
ByLayer
 10
106.8401013151285497
 20
59.5040248006115036
 30
0.0
 11
106.8401013151282086
 21
81.5040248006115036
 31
0.0
  0
CIRCLE
  5
59
100
AcDbEntity
100
AcDbCircle
  8
Drawing
 62
256
370
-1
  6
ByLayer
 10
106.8401013151283223
 20
76.0040248006115178
 30
0.0
 40
4.4500000000000002
  0
CIRCLE
  5
5A
100
AcDbEntity
100
AcDbCircle
  8
Drawing
 62
256
370
-1
  6
ByLayer
 10
106.8401013151284928
 20
65.0040248006114894
 30
0.0
 40
4.4500000000000002
  0
LINE
  5
5B
100
AcDbEntity
100
AcDbLine
  8
Drawing
 62
256
370
-1
  6
ByLayer
 10
78.3401013151285781
 20
59.504024800611063
 30
0.0
 11
78.3401013151282086
 21
81.504024800611063
 31
0.0
  0
CIRCLE
  5
5C
100
AcDbEntity
100
AcDbCircle
  8
Drawing
 62
256
370
-1
  6
ByLayer
 10
78.3401013151283223
 20
76.0040248006110488
 30
0.0
 40
4.4500000000000002
  0
CIRCLE
  5
5D
100
AcDbEntity
100
AcDbCircle
  8
Drawing
 62
256
370
-1
  6
ByLayer
 10
78.3401013151284928
 20
65.0040248006110488
 30
0.0
 40
4.4500000000000002
  0
LINE
  5
5E
100
AcDbEntity
100
AcDbLine
  8
Drawing
 62
256
370
-1
  6
ByLayer
 10
115.8401013151285497
 20
59.5040248006116599
 30
0.0
 11
115.8401013151282086
 21
81.5040248006116457
 31
0.0
  0
CIRCLE
  5
5F
100
AcDbEntity
100
AcDbCircle
  8
Drawing
 62
256
370
-1
  6
ByLayer
 10
115.8401013151283223
 20
76.0040248006116599
 30
0.0
 40
4.4500000000000002
  0
CIRCLE
  5
60
100
AcDbEntity
100
AcDbCircle
  8
Drawing
 62
256
370
-1
  6
ByLayer
 10
115.8401013151284928
 20
65.0040248006116599
 30
0.0
 40
4.4500000000000002
  0
CIRCLE
  5
61
100
AcDbEntity
100
AcDbCircle
  8
Top
 62
256
370
-1
  6
ByLayer
 10
102.7180069813213095
 20
99.5854164212380937
 30
0.0
 40
1.425
  0
CIRCLE
  5
62
100
AcDbEntity
100
AcDbCircle
  8
Top
 62
256
370
-1
  6
ByLayer
 10
74.5272283577440362
 20
89.3248121214680282
 30
0.0
 40
1.425
  0
CIRCLE
  5
63
100
AcDbEntity
100
AcDbCircle
  8
Top
 62
256
370
-1
  6
ByLayer
 10
105.3401013151287202
 20
55.2941167806186655
 30
0.0
 40
1.425
  0
CIRCLE
  5
64
100
AcDbEntity
100
AcDbCircle
  8
Top
 62
256
370
-1
  6
ByLayer
 10
89.3401013151288339
 20
55.2941167806186655
 30
0.0
 40
1.425
  0
LINE
  5
65
100
AcDbEntity
100
AcDbLine
  8
Top
 62
256
370
-1
  6
ByLayer
 10
106.0621938857030955
 20
58.2354900132194189
 30
0.0
 11
98.5446529194157961
 21
55.4993288666140359
 31
0.0
  0
LINE
  5
66
100
AcDbEntity
100
AcDbLine
  8
Top
 62
256
370
-1
  6
ByLayer
 10
99.6398256913902856
 20
108.0426500083112273
 30
0.0
 11
97.587704831436298
 21
113.6808057330267161
 31
0.0
  0
LINE
  5
67
100
AcDbEntity
100
AcDbLine
  8
Top
 62
256
370
-1
  6
ByLayer
 10
103.22586055615173
 20
115.732926592980732
 30
0.0
 11
105.2779814161057175
 21
110.0947708682652433
 31
0.0
  0
LINE
  5
68
100
AcDbEntity
100
AcDbLine
  8
Top
 62
256
370
-1
  6
ByLayer
 10
116.9124371858605116
 20
89.8245839538728035
 30
0.0
 11
106.9846310392953228
 21
117.1010071662834093
 31
0.0
  0
LINE
  5
69
100
AcDbEntity
100
AcDbLine
  8
Top
 62
256
370
-1
  6
ByLayer
 10
122.3401013151287202
 20
48.2941167806186513
 30
0.0
 11
122.3401013151287771
 21
59.0427710545626354
 31
0.0
  0
LINE
  5
6A
100
AcDbEntity
100
AcDbLine
  8
Top
 62
256
370
-1
  6
ByLayer
 10
116.3401013151287771
 20
48.2941167806186513
 30
0.0
 11
122.3401013151287202
 21
48.2941167806186513
 31
0.0
  0
LINE
  5
6B
100
AcDbEntity
100
AcDbLine
  8
Top
 62
256
370
-1
  6
ByLayer
 10
116.3401013151287771
 20
56.2941167806186655
 30
0.0
 11
116.3401013151287771
 21
48.2941167806186513
 31
0.0
  0
LINE
  5
6C
100
AcDbEntity
100
AcDbLine
  8
Top
 62
256
370
-1
  6
ByLayer
 10
110.3401013151287771
 20
48.2941167806186513
 30
0.0
 11
110.3401013151288339
 21
56.294116780618694
 31
0.0
  0
LINE
  5
6D
100
AcDbEntity
100
AcDbLine
  8
Top
 62
256
370
-1
  6
ByLayer
 10
84.3401013151287202
 20
48.2941167806186513
 30
0.0
 11
110.3401013151287771
 21
48.2941167806186513
 31
0.0
  0
LINE
  5
6E
100
AcDbEntity
100
AcDbLine
  8
Top
 62
256
370
-1
  6
ByLayer
 10
84.3401013151287202
 20
56.2941167806186513
 30
0.0
 11
84.3401013151287202
 21
48.2941167806186513
 31
0.0
  0
LINE
  5
6F
100
AcDbEntity
100
AcDbLine
  8
Top
 62
256
370
-1
  6
ByLayer
 10
78.3401013151288339
 20
48.2941167806186513
 30
0.0
 11
78.3401013151287771
 21
56.2941167806186371
 31
0.0
  0
LINE
  5
70
100
AcDbEntity
100
AcDbLine
  8
Top
 62
256
370
-1
  6
ByLayer
 10
72.3401013151287771
 20
48.2941167806186513
 30
0.0
 11
78.3401013151288339
 21
48.2941167806186513
 31
0.0
  0
LINE
  5
71
100
AcDbEntity
100
AcDbLine
  8
Top
 62
256
370
-1
  6
ByLayer
 10
72.3401013151287771
 20
50.2264220191393491
 30
0.0
 11
72.3401013151287771
 21
48.2941167806186513
 31
0.0
  0
LINE
  5
72
100
AcDbEntity
100
AcDbLine
  8
Top
 62
256
370
-1
  6
ByLayer
 10
65.8108913430975804
 20
95.7299248485871743
 30
0.0
 11
63.7587704831436213
 21
101.3680805733026489
 31
0.0
  0
LINE
  5
73
100
AcDbEntity
100
AcDbLine
  8
Top
 62
256
370
-1
  6
ByLayer
 10
69.3969262078589963
 20
103.4202014332566506
 30
0.0
 11
71.4490470678129554
 21
97.7820457085412045
 31
0.0
  0
ARC
  5
74
100
AcDbEntity
  8
Top
 62
256
370
-1
  6
ByLayer
100
AcDbCircle
 10
98.33944083342044
 20
56.0631444390855904
 30
0.0
 40
0.599999999999996
100
AcDbArc
 50
199.9999999999997158
 51
289.9999999999998863
  0
ARC
  5
75
100
AcDbEntity
  8
Top
 62
256
370
-1
  6
ByLayer
100
AcDbCircle
 10
105.8569817997076825
 20
58.799305585690945
 30
0.0
 40
0.5999999999999983
100
AcDbArc
 50
289.9999999999998295
 51
20.000000000000103
  0
ARC
  5
76
100
AcDbEntity
  8
Top
 62
256
370
-1
  6
ByLayer
100
AcDbCircle
 10
32.3401013151293455
 20
59.0427710545628059
 30
0.0
 40
89.9999999999993463
100
AcDbArc
 50
0.0
 51
20.000000000000103
  0
ARC
  5
77
100
AcDbEntity
  8
Top
 62
256
370
-1
  6
ByLayer
100
AcDbCircle
 10
-17.6598986848708819
 20
50.226422019141225
 30
0.0
 40
89.9999999999996447
100
AcDbArc
 50
0.0
 51
20.000000000000103
  0
LINE
  5
78
100
AcDbEntity
100
AcDbLine
  8
Top
 62
256
370
-1
  6
ByLayer
 10
60.0
 20
100.0
 30
0.0
 11
66.9124371858605969
 21
81.0082349184495172
 31
0.0
  0
LINE
  5
79
100
AcDbEntity
100
AcDbLine
  8
Notes
 62
256
370
-1
  6
ByLayer
 10
79.2967256421547404
 20
62.2941167806186229
 30
0.0
 11
78.940101315128743
 21
62.2941167806186655
 31
0.0
  0
CIRCLE
  5
7A
100
AcDbEntity
100
AcDbCircle
  8
Bottom
 62
256
370
-1
  6
ByLayer
 10
102.7180069813213095
 20
99.5854164212380937
 30
0.0
 40
1.425
  0
CIRCLE
  5
7B
100
AcDbEntity
100
AcDbCircle
  8
Bottom
 62
256
370
-1
  6
ByLayer
 10
74.5272283577440362
 20
89.3248121214680282
 30
0.0
 40
1.425
  0
CIRCLE
  5
7C
100
AcDbEntity
100
AcDbCircle
  8
Bottom
 62
256
370
-1
  6
ByLayer
 10
105.3401013151287202
 20
55.2941167806187366
 30
0.0
 40
1.425
  0
CIRCLE
  5
7D
100
AcDbEntity
100
AcDbCircle
  8
Bottom
 62
256
370
-1
  6
ByLayer
 10
89.3401013151287771
 20
55.2941167806186655
 30
0.0
 40
1.425
  0
LINE
  5
7E
100
AcDbEntity
100
AcDbLine
  8
Bottom
 62
256
370
-1
  6
ByLayer
 10
106.0621938857030386
 20
58.2354900132194189
 30
0.0
 11
98.5446529194157961
 21
55.4993288666140359
 31
0.0
  0
LINE
  5
7F
100
AcDbEntity
100
AcDbLine
  8
Bottom
 62
256
370
-1
  6
ByLayer
 10
116.9124371858605116
 20
89.8245839538728035
 30
0.0
 11
106.9846310392953228
 21
117.1010071662834093
 31
0.0
  0
LINE
  5
80
100
AcDbEntity
100
AcDbLine
  8
Bottom
 62
256
370
-1
  6
ByLayer
 10
122.3401013151287771
 20
48.2941167806186513
 30
0.0
 11
122.3401013151287202
 21
59.0427710545625928
 31
0.0
  0
LINE
  5
81
100
AcDbEntity
100
AcDbLine
  8
Bottom
 62
256
370
-1
  6
ByLayer
 10
72.3401013151287771
 20
50.2264220191393491
 30
0.0
 11
72.3401013151287771
 21
48.2941167806186513
 31
0.0
  0
LINE
  5
82
100
AcDbEntity
100
AcDbLine
  8
Bottom
 62
256
370
-1
  6
ByLayer
 10
60.0
 20
100.0
 30
0.0
 11
66.9124371858605969
 21
81.0082349184495172
 31
0.0
  0
ARC
  5
83
100
AcDbEntity
  8
Bottom
 62
256
370
-1
  6
ByLayer
100
AcDbCircle
 10
98.3394408334203831
 20
56.0631444390855762
 30
0.0
 40
0.599999999999996
100
AcDbArc
 50
199.9999999999997158
 51
289.9999999999998863
  0
ARC
  5
84
100
AcDbEntity
  8
Bottom
 62
256
370
-1
  6
ByLayer
100
AcDbCircle
 10
105.8569817997076257
 20
58.799305585690945
 30
0.0
 40
0.5999999999999983
100
AcDbArc
 50
289.9999999999998295
 51
20.000000000000103
  0
ARC
  5
85
100
AcDbEntity
  8
Bottom
 62
256
370
-1
  6
ByLayer
100
AcDbCircle
 10
32.3401013151293455
 20
59.0427710545628059
 30
0.0
 40
89.9999999999993463
100
AcDbArc
 50
0.0
 51
20.000000000000103
  0
ARC
  5
86
100
AcDbEntity
  8
Bottom
 62
256
370
-1
  6
ByLayer
100
AcDbCircle
 10
-17.6598986848709387
 20
50.226422019141225
 30
0.0
 40
89.9999999999996447
100
AcDbArc
 50
0.0
 51
20.000000000000103
  0
MTEXT
  5
87
100
AcDbEntity
100
AcDbMText
  8
Top Text
 62
256
370
-1
  6
ByLayer
 10
113.0412496058205534
 20
90.9783508611255911
 30
0.0
 40
2.0
 41
100.0
 71
3
 72
2
  1
Main\~Plate\PTop
  7
standard
 50
360.0
 73
0
 44
1.0
  0
MTEXT
  5
88
100
AcDbEntity
100
AcDbMText
  8
Bottom Text
 62
256
370
-1
  6
ByLayer
 10
113.0412496058205534
 20
90.9783508611255911
 30
0.0
 40
2.0
 41
100.0
 71
3
 72
2
  1
Main\~Plate\PBottom
  7
standard
 50
360.0
 73
0
 44
1.0
  0
LINE
  5
89
100
AcDbEntity
100
AcDbLine
  8
Bottom
 62
256
370
-1
  6
ByLayer
 10
91.1038257480134916
 20
111.3208667440795807
 30
0.0
 11
95.5500876112471929
 21
99.1048626738627689
 31
0.0
  0
LINE
  5
8A
100
AcDbEntity
100
AcDbLine
  8
Bottom
 62
256
370
-1
  6
ByLayer
 10
75.8808052912817743
 20
105.780140422203786
 30
0.0
 11
80.3270671545154755
 21
93.56413635198696
 31
0.0
  0
LINE
  5
8B
100
AcDbEntity
100
AcDbLine
  8
Bottom
 62
256
370
-1
  6
ByLayer
 10
95.5500876112471929
 20
99.1048626738627689
 30
0.0
 11
92.26116343849651
 21
97.9077921722229263
 31
0.0
  0
LINE
  5
8C
100
AcDbEntity
100
AcDbLine
  8
Bottom
 62
256
370
-1
  6
ByLayer
 10
83.6159913272661584
 20
94.7612068536267742
 30
0.0
 11
80.3270671545154755
 21
93.56413635198696
 31
0.0
  0
LINE
  5
8D
100
AcDbEntity
100
AcDbLine
  8
Bottom
 62
256
370
-1
  6
ByLayer
 10
106.9846310392953228
 20
117.1010071662834093
 30
0.0
 11
91.1038257480134916
 21
111.3208667440795807
 31
0.0
  0
LINE
  5
8E
100
AcDbEntity
100
AcDbLine
  8
Bottom
 62
256
370
-1
  6
ByLayer
 10
75.8808052912817743
 20
105.780140422203786
 30
0.0
 11
60.0
 21
100.0
 31
0.0
  0
LINE
  5
8F
100
AcDbEntity
100
AcDbLine
  8
Top
 62
256
370
-1
  6
ByLayer
 10
92.2611634384965669
 20
97.9077921722229547
 30
0.0
 11
106.4207973721792087
 21
59.0045176716863864
 31
0.0
  0
LINE
  5
90
100
AcDbEntity
100
AcDbLine
  8
Top
 62
256
370
-1
  6
ByLayer
 10
92.26116343849651
 20
97.9077921722229263
 30
0.0
 11
95.5500876112471929
 21
99.1048626738627689
 31
0.0
  0
LINE
  5
91
100
AcDbEntity
100
AcDbLine
  8
Top
 62
256
370
-1
  6
ByLayer
 10
95.5500876112471929
 20
99.1048626738627689
 30
0.0
 11
91.1038257480134916
 21
111.3208667440795807
 31
0.0
  0
LINE
  5
92
100
AcDbEntity
100
AcDbLine
  8
Top
 62
256
370
-1
  6
ByLayer
 10
91.1038257480134916
 20
111.3208667440795807
 30
0.0
 11
97.5877048314362696
 21
113.6808057330267161
 31
0.0
  0
LINE
  5
93
100
AcDbEntity
100
AcDbLine
  8
Top
 62
256
370
-1
  6
ByLayer
 10
83.6159913272661584
 20
94.7612068536267742
 30
0.0
 11
80.3270671545154755
 21
93.56413635198696
 31
0.0
  0
LINE
  5
94
100
AcDbEntity
100
AcDbLine
  8
Top
 62
256
370
-1
  6
ByLayer
 10
80.3270671545154755
 20
93.56413635198696
 30
0.0
 11
75.8808052912817743
 21
105.780140422203786
 31
0.0
  0
LINE
  5
95
100
AcDbEntity
100
AcDbLine
  8
Top
 62
256
370
-1
  6
ByLayer
 10
75.8808052912817743
 20
105.780140422203786
 30
0.0
 11
69.3969262078589963
 21
103.4202014332566506
 31
0.0
  0
LINE
  5
96
100
AcDbEntity
100
AcDbLine
  8
Top
 62
256
370
-1
  6
ByLayer
 10
63.7587704831436213
 20
101.3680805733026489
 30
0.0
 11
60.0
 21
100.0
 31
0.0
  0
LINE
  5
97
100
AcDbEntity
100
AcDbLine
  8
Top
 62
256
370
-1
  6
ByLayer
 10
106.9846310392953228
 20
117.1010071662834093
 30
0.0
 11
103.22586055615173
 21
115.732926592980732
 31
0.0
  0
LINE
  5
98
100
AcDbEntity
100
AcDbLine
  8
Bottom
 62
256
370
-1
  6
ByLayer
 10
104.6387232133735097
 20
63.9007261827984934
 30
0.0
 11
106.4207973721792087
 21
59.0045176716863864
 31
0.0
  0
LINE
  5
99
100
AcDbEntity
100
AcDbLine
  8
Bottom
 62
256
370
-1
  6
ByLayer
 10
95.993551102143158
 20
60.7541408642022844
 30
0.0
 11
97.775625260948857
 21
55.8579323530901632
 31
0.0
  0
ARC
  5
9A
100
AcDbEntity
  8
Bottom
 62
256
370
-1
  6
ByLayer
100
AcDbCircle
 10
98.0775375891906833
 20
68.4779352893410334
 30
0.0
 40
8.0
100
AcDbArc
 50
325.0996321953934398
 51
74.9003678046064749
  0
LINE
  5
9B
100
AcDbEntity
100
AcDbLine
  8
Bottom
 62
256
370
-1
  6
ByLayer
 10
92.26116343849651
 20
97.9077921722229263
 30
0.0
 11
100.1615240762381518
 21
76.2017297144797254
 31
0.0
  0
ARC
  5
9C
100
AcDbEntity
  8
Bottom
 62
256
370
-1
  6
ByLayer
100
AcDbCircle
 10
98.0775375891906833
 20
68.4779352893410334
 30
0.0
 40
8.0
100
AcDbArc
 50
145.0996321953935819
 51
254.9003678046064749
  0
LINE
  5
9D
100
AcDbEntity
100
AcDbLine
  8
Bottom
 62
256
370
-1
  6
ByLayer
 10
83.6159913272661584
 20
94.7612068536267742
 30
0.0
 11
91.5163519650078001
 21
73.0551443958835591
 31
0.0
  0
CIRCLE
  5
9E
100
AcDbEntity
100
AcDbCircle
  8
Middle
 62
256
370
-1
  6
ByLayer
 10
102.7180069813213095
 20
99.5854164212380937
 30
0.0
 40
1.425
  0
CIRCLE
  5
9F
100
AcDbEntity
100
AcDbCircle
  8
Middle
 62
256
370
-1
  6
ByLayer
 10
74.5272283577440362
 20
89.3248121214680282
 30
0.0
 40
1.425
  0
CIRCLE
  5
A0
100
AcDbEntity
100
AcDbCircle
  8
Middle
 62
256
370
-1
  6
ByLayer
 10
105.3401013151287202
 20
55.2941167806187366
 30
0.0
 40
1.425
  0
CIRCLE
  5
A1
100
AcDbEntity
100
AcDbCircle
  8
Middle
 62
256
370
-1
  6
ByLayer
 10
89.3401013151288339
 20
55.2941167806186655
 30
0.0
 40
1.425
  0
LINE
  5
A2
100
AcDbEntity
100
AcDbLine
  8
Middle
 62
256
370
-1
  6
ByLayer
 10
106.0621938857030955
 20
58.2354900132194189
 30
0.0
 11
98.5446529194157961
 21
55.4993288666140359
 31
0.0
  0
LINE
  5
A3
100
AcDbEntity
100
AcDbLine
  8
Middle
 62
256
370
-1
  6
ByLayer
 10
116.9124371858604832
 20
89.8245839538728177
 30
0.0
 11
106.9846310392953228
 21
117.1010071662834093
 31
0.0
  0
LINE
  5
A4
100
AcDbEntity
100
AcDbLine
  8
Middle
 62
256
370
-1
  6
ByLayer
 10
122.3401013151287771
 20
48.2941167806186513
 30
0.0
 11
122.3401013151287771
 21
59.0427710545626354
 31
0.0
  0
LINE
  5
A5
100
AcDbEntity
100
AcDbLine
  8
Middle
 62
256
370
-1
  6
ByLayer
 10
72.3401013151287771
 20
50.2264220191393491
 30
0.0
 11
72.3401013151287771
 21
48.2941167806186513
 31
0.0
  0
ARC
  5
A6
100
AcDbEntity
  8
Middle
 62
256
370
-1
  6
ByLayer
100
AcDbCircle
 10
98.33944083342044
 20
56.0631444390855904
 30
0.0
 40
0.599999999999996
100
AcDbArc
 50
199.9999999999997158
 51
289.9999999999998863
  0
ARC
  5
A7
100
AcDbEntity
  8
Middle
 62
256
370
-1
  6
ByLayer
100
AcDbCircle
 10
105.8569817997076825
 20
58.799305585690945
 30
0.0
 40
0.5999999999999983
100
AcDbArc
 50
289.9999999999998295
 51
20.000000000000103
  0
ARC
  5
A8
100
AcDbEntity
  8
Middle
 62
256
370
-1
  6
ByLayer
100
AcDbCircle
 10
32.3401013151293455
 20
59.0427710545628059
 30
0.0
 40
89.9999999999993463
100
AcDbArc
 50
0.0
 51
20.000000000000103
  0
ARC
  5
A9
100
AcDbEntity
  8
Middle
 62
256
370
-1
  6
ByLayer
100
AcDbCircle
 10
-17.6598986848709387
 20
50.226422019141225
 30
0.0
 40
89.9999999999996447
100
AcDbArc
 50
0.0
 51
20.000000000000103
  0
LINE
  5
AA
100
AcDbEntity
100
AcDbLine
  8
Middle
 62
256
370
-1
  6
ByLayer
 10
60.0
 20
100.0
 30
0.0
 11
66.9124371858605969
 21
81.0082349184495172
 31
0.0
  0
LINE
  5
AB
100
AcDbEntity
100
AcDbLine
  8
Middle
 62
256
370
-1
  6
ByLayer
 10
92.26116343849651
 20
97.9077921722229263
 30
0.0
 11
106.4207973721792087
 21
59.0045176716863864
 31
0.0
  0
LINE
  5
AC
100
AcDbEntity
100
AcDbLine
  8
Middle
 62
256
370
-1
  6
ByLayer
 10
92.26116343849651
 20
97.9077921722229263
 30
0.0
 11
95.5500876112471929
 21
99.1048626738627689
 31
0.0
  0
LINE
  5
AD
100
AcDbEntity
100
AcDbLine
  8
Middle
 62
256
370
-1
  6
ByLayer
 10
95.5500876112471929
 20
99.1048626738627689
 30
0.0
 11
91.1038257480134916
 21
111.3208667440795807
 31
0.0
  0
LINE
  5
AE
100
AcDbEntity
100
AcDbLine
  8
Middle
 62
256
370
-1
  6
ByLayer
 10
83.6159913272661584
 20
94.7612068536267742
 30
0.0
 11
80.3270671545154755
 21
93.56413635198696
 31
0.0
  0
LINE
  5
AF
100
AcDbEntity
100
AcDbLine
  8
Middle
 62
256
370
-1
  6
ByLayer
 10
80.3270671545154755
 20
93.56413635198696
 30
0.0
 11
75.8808052912817743
 21
105.780140422203786
 31
0.0
  0
LINE
  5
B0
100
AcDbEntity
100
AcDbLine
  8
Middle
 62
256
370
-1
  6
ByLayer
 10
122.3401013151287771
 20
48.2941167806186513
 30
0.0
 11
72.3401013151287771
 21
48.2941167806186513
 31
0.0
  0
LINE
  5
B1
100
AcDbEntity
100
AcDbLine
  8
Middle
 62
256
370
-1
  6
ByLayer
 10
106.9846310392953228
 20
117.1010071662834093
 30
0.0
 11
91.1038257480134916
 21
111.3208667440795807
 31
0.0
  0
LINE
  5
B2
100
AcDbEntity
100
AcDbLine
  8
Middle
 62
256
370
-1
  6
ByLayer
 10
75.8808052912817743
 20
105.780140422203786
 30
0.0
 11
60.0
 21
100.0
 31
0.0
  0
MTEXT
  5
B3
100
AcDbEntity
100
AcDbMText
  8
Middle Text
 62
256
370
-1
  6
ByLayer
 10
113.0412496058205534
 20
90.9783508611255911
 30
0.0
 40
2.0
 41
100.0
 71
3
 72
2
  1
Main\~Plate\PMiddle
  7
standard
 50
360.0
 73
0
 44
1.0
  0
LINE
  5
B4
100
AcDbEntity
100
AcDbLine
  8
Top
 62
256
370
-1
  6
ByLayer
 10
83.6159913272661584
 20
94.7612068536267742
 30
0.0
 11
97.775625260948857
 21
55.8579323530901632
 31
0.0
  0
LINE
  5
B5
100
AcDbEntity
100
AcDbLine
  8
Middle
 62
256
370
-1
  6
ByLayer
 10
83.6159913272661584
 20
94.7612068536267742
 30
0.0
 11
97.775625260948857
 21
55.8579323530901632
 31
0.0
  0
LINE
  5
B6
100
AcDbEntity
100
AcDbLine
  8
Bottom
 62
256
370
-1
  6
ByLayer
 10
72.3401013151287771
 20
48.2941167806186513
 30
0.0
 11
122.3401013151287771
 21
48.2941167806186513
 31
0.0
  0
CIRCLE
  5
B7
100
AcDbEntity
100
AcDbCircle
  8
Bottom
 62
256
370
-1
  6
ByLayer
 10
115.8401013151283223
 20
76.0040248006116599
 30
0.0
 40
1.4199999999999999
  0
CIRCLE
  5
B8
100
AcDbEntity
100
AcDbCircle
  8
Bottom
 62
256
370
-1
  6
ByLayer
 10
106.8401013151283223
 20
76.0040248006115178
 30
0.0
 40
1.4199999999999999
  0
CIRCLE
  5
B9
100
AcDbEntity
100
AcDbCircle
  8
Bottom
 62
256
370
-1
  6
ByLayer
 10
106.8401013151284928
 20
65.0040248006115036
 30
0.0
 40
1.4199999999999999
  0
CIRCLE
  5
BA
100
AcDbEntity
100
AcDbCircle
  8
Bottom
 62
256
370
-1
  6
ByLayer
 10
115.8401013151284928
 20
65.0040248006116457
 30
0.0
 40
1.4199999999999999
  0
CIRCLE
  5
BB
100
AcDbEntity
100
AcDbCircle
  8
Bottom
 62
256
370
-1
  6
ByLayer
 10
87.3401013151284928
 20
65.0040248006111909
 30
0.0
 40
1.4199999999999999
  0
CIRCLE
  5
BC
100
AcDbEntity
100
AcDbCircle
  8
Bottom
 62
256
370
-1
  6
ByLayer
 10
78.3401013151284928
 20
65.0040248006110488
 30
0.0
 40
1.4199999999999999
  0
CIRCLE
  5
BD
100
AcDbEntity
100
AcDbCircle
  8
Bottom
 62
256
370
-1
  6
ByLayer
 10
78.3401013151283223
 20
76.0040248006110488
 30
0.0
 40
1.4199999999999999
  0
CIRCLE
  5
BE
100
AcDbEntity
100
AcDbCircle
  8
Bottom
 62
256
370
-1
  6
ByLayer
 10
87.3401013151283223
 20
76.0040248006111909
 30
0.0
 40
1.4199999999999999
  0
CIRCLE
  5
BF
100
AcDbEntity
100
AcDbCircle
  8
Middle
 62
256
370
-1
  6
ByLayer
 10
115.8401013151283223
 20
76.0040248006116599
 30
0.0
 40
1.4199999999999999
  0
CIRCLE
  5
C0
100
AcDbEntity
100
AcDbCircle
  8
Middle
 62
256
370
-1
  6
ByLayer
 10
106.8401013151283223
 20
76.0040248006115178
 30
0.0
 40
1.4199999999999999
  0
CIRCLE
  5
C1
100
AcDbEntity
100
AcDbCircle
  8
Middle
 62
256
370
-1
  6
ByLayer
 10
106.8401013151284928
 20
65.0040248006115178
 30
0.0
 40
1.4199999999999999
  0
CIRCLE
  5
C2
100
AcDbEntity
100
AcDbCircle
  8
Middle
 62
256
370
-1
  6
ByLayer
 10
115.8401013151284928
 20
65.0040248006116457
 30
0.0
 40
1.4199999999999999
  0
CIRCLE
  5
C3
100
AcDbEntity
100
AcDbCircle
  8
Middle
 62
256
370
-1
  6
ByLayer
 10
87.3401013151284928
 20
65.0040248006111909
 30
0.0
 40
1.4199999999999999
  0
CIRCLE
  5
C4
100
AcDbEntity
100
AcDbCircle
  8
Middle
 62
256
370
-1
  6
ByLayer
 10
78.3401013151284928
 20
65.0040248006110488
 30
0.0
 40
1.4199999999999999
  0
CIRCLE
  5
C5
100
AcDbEntity
100
AcDbCircle
  8
Middle
 62
256
370
-1
  6
ByLayer
 10
78.3401013151283223
 20
76.0040248006110488
 30
0.0
 40
1.4199999999999999
  0
CIRCLE
  5
C6
100
AcDbEntity
100
AcDbCircle
  8
Middle
 62
256
370
-1
  6
ByLayer
 10
87.3401013151283223
 20
76.0040248006111909
 30
0.0
 40
1.4199999999999999
  0
LINE
  5
C7
100
AcDbEntity
100
AcDbLine
  8
Top
 62
256
370
-1
  6
ByLayer
 10
78.3401013151283223
 20
79.1794508006110505
 30
0.0
 11
81.0901013151283223
 21
77.5917378006110425
 31
0.0
  0
LINE
  5
C8
100
AcDbEntity
100
AcDbLine
  8
Top
 62
256
370
-1
  6
ByLayer
 10
81.0901013151283223
 20
77.5917378006110425
 30
0.0
 11
81.0901013151283223
 21
74.4163118006110409
 31
0.0
  0
LINE
  5
C9
100
AcDbEntity
100
AcDbLine
  8
Top
 62
256
370
-1
  6
ByLayer
 10
81.0901013151283223
 20
74.4163118006110409
 30
0.0
 11
78.3401013151283223
 21
72.8285988006110472
 31
0.0
  0
LINE
  5
CA
100
AcDbEntity
100
AcDbLine
  8
Top
 62
256
370
-1
  6
ByLayer
 10
75.5901013151283223
 20
74.4163118006110551
 30
0.0
 11
78.3401013151283223
 21
72.8285988006110472
 31
0.0
  0
LINE
  5
CB
100
AcDbEntity
100
AcDbLine
  8
Top
 62
256
370
-1
  6
ByLayer
 10
75.5901013151283223
 20
77.5917378006110425
 30
0.0
 11
75.5901013151283223
 21
74.4163118006110551
 31
0.0
  0
LINE
  5
CC
100
AcDbEntity
100
AcDbLine
  8
Top
 62
256
370
-1
  6
ByLayer
 10
78.3401013151283223
 20
79.1794508006110505
 30
0.0
 11
75.5901013151283223
 21
77.5917378006110425
 31
0.0
  0
LINE
  5
CD
100
AcDbEntity
100
AcDbLine
  8
Top
 62
256
370
-1
  6
ByLayer
 10
106.8401013151283223
 20
79.1794508006115194
 30
0.0
 11
109.5901013151283223
 21
77.5917378006115115
 31
0.0
  0
LINE
  5
CE
100
AcDbEntity
100
AcDbLine
  8
Top
 62
256
370
-1
  6
ByLayer
 10
109.5901013151283223
 20
77.5917378006115115
 30
0.0
 11
109.5901013151283223
 21
74.4163118006115099
 31
0.0
  0
LINE
  5
CF
100
AcDbEntity
100
AcDbLine
  8
Top
 62
256
370
-1
  6
ByLayer
 10
109.5901013151283223
 20
74.4163118006115099
 30
0.0
 11
106.8401013151283223
 21
72.8285988006115161
 31
0.0
  0
LINE
  5
D0
100
AcDbEntity
100
AcDbLine
  8
Top
 62
256
370
-1
  6
ByLayer
 10
104.0901013151283223
 20
74.4163118006115241
 30
0.0
 11
106.8401013151283223
 21
72.8285988006115161
 31
0.0
  0
LINE
  5
D1
100
AcDbEntity
100
AcDbLine
  8
Top
 62
256
370
-1
  6
ByLayer
 10
104.0901013151283223
 20
77.5917378006115115
 30
0.0
 11
104.0901013151283223
 21
74.4163118006115241
 31
0.0
  0
LINE
  5
D2
100
AcDbEntity
100
AcDbLine
  8
Top
 62
256
370
-1
  6
ByLayer
 10
106.8401013151283223
 20
79.1794508006115194
 30
0.0
 11
104.0901013151283223
 21
77.5917378006115115
 31
0.0
  0
LINE
  5
D3
100
AcDbEntity
100
AcDbLine
  8
Top
 62
256
370
-1
  6
ByLayer
 10
115.8401013151283223
 20
79.1794508006116615
 30
0.0
 11
118.5901013151283223
 21
77.5917378006116536
 31
0.0
  0
LINE
  5
D4
100
AcDbEntity
100
AcDbLine
  8
Top
 62
256
370
-1
  6
ByLayer
 10
118.5901013151283223
 20
77.5917378006116536
 30
0.0
 11
118.5901013151283223
 21
74.416311800611652
 31
0.0
  0
LINE
  5
D5
100
AcDbEntity
100
AcDbLine
  8
Top
 62
256
370
-1
  6
ByLayer
 10
118.5901013151283223
 20
74.416311800611652
 30
0.0
 11
115.8401013151283223
 21
72.8285988006116582
 31
0.0
  0
LINE
  5
D6
100
AcDbEntity
100
AcDbLine
  8
Top
 62
256
370
-1
  6
ByLayer
 10
113.0901013151283223
 20
74.4163118006116662
 30
0.0
 11
115.8401013151283223
 21
72.8285988006116582
 31
0.0
  0
LINE
  5
D7
100
AcDbEntity
100
AcDbLine
  8
Top
 62
256
370
-1
  6
ByLayer
 10
113.0901013151283223
 20
77.5917378006116536
 30
0.0
 11
113.0901013151283223
 21
74.4163118006116662
 31
0.0
  0
LINE
  5
D8
100
AcDbEntity
100
AcDbLine
  8
Top
 62
256
370
-1
  6
ByLayer
 10
115.8401013151283223
 20
79.1794508006116615
 30
0.0
 11
113.0901013151283223
 21
77.5917378006116536
 31
0.0
  0
LINE
  5
D9
100
AcDbEntity
100
AcDbLine
  8
Top
 62
256
370
-1
  6
ByLayer
 10
87.3401013151284928
 20
68.1794508006111926
 30
0.0
 11
90.0901013151284928
 21
66.5917378006111846
 31
0.0
  0
LINE
  5
DA
100
AcDbEntity
100
AcDbLine
  8
Top
 62
256
370
-1
  6
ByLayer
 10
90.0901013151284928
 20
66.5917378006111846
 30
0.0
 11
90.0901013151284928
 21
63.416311800611183
 31
0.0
  0
LINE
  5
DB
100
AcDbEntity
100
AcDbLine
  8
Top
 62
256
370
-1
  6
ByLayer
 10
90.0901013151284928
 20
63.416311800611183
 30
0.0
 11
87.3401013151284928
 21
61.8285988006111893
 31
0.0
  0
LINE
  5
DC
100
AcDbEntity
100
AcDbLine
  8
Top
 62
256
370
-1
  6
ByLayer
 10
84.5901013151284928
 20
63.4163118006111972
 30
0.0
 11
87.3401013151284928
 21
61.8285988006111893
 31
0.0
  0
LINE
  5
DD
100
AcDbEntity
100
AcDbLine
  8
Top
 62
256
370
-1
  6
ByLayer
 10
84.5901013151284928
 20
66.5917378006111846
 30
0.0
 11
84.5901013151284928
 21
63.4163118006111972
 31
0.0
  0
LINE
  5
DE
100
AcDbEntity
100
AcDbLine
  8
Top
 62
256
370
-1
  6
ByLayer
 10
87.3401013151284928
 20
68.1794508006111926
 30
0.0
 11
84.5901013151284928
 21
66.5917378006111846
 31
0.0
  0
LINE
  5
DF
100
AcDbEntity
100
AcDbLine
  8
Top
 62
256
370
-1
  6
ByLayer
 10
64.9651679843903054
 20
95.4221067195940691
 30
0.0
 11
65.8108913430975804
 21
95.7299248485871743
 31
0.0
  0
LINE
  5
E0
100
AcDbEntity
100
AcDbLine
  8
Top
 62
256
370
-1
  6
ByLayer
 10
71.4490470678129554
 20
97.7820457085412045
 30
0.0
 11
72.294770426520401
 21
98.0898638375340823
 31
0.0
  0
LINE
  5
E1
100
AcDbEntity
100
AcDbLine
  8
Top
 62
256
370
-1
  6
ByLayer
 10
72.294770426520401
 20
98.0898638375340823
 30
0.0
 11
73.6628509998228651
 21
94.33109335439093
 31
0.0
  0
LINE
  5
E2
100
AcDbEntity
100
AcDbLine
  8
Top
 62
256
370
-1
  6
ByLayer
 10
73.6628509998228651
 20
94.33109335439093
 30
0.0
 11
72.8171276411156896
 21
94.0232752253975121
 31
0.0
  0
LINE
  5
E3
100
AcDbEntity
100
AcDbLine
  8
Top
 62
256
370
-1
  6
ByLayer
 10
66.3332485576929827
 20
91.6633362364503625
 30
0.0
 11
64.9651679843903054
 21
95.4221067195940691
 31
0.0
  0
LINE
  5
E4
100
AcDbEntity
100
AcDbLine
  8
Top
 62
256
370
-1
  6
ByLayer
 10
67.1789719164002577
 20
91.9711543654435673
 30
0.0
 11
66.3332485576929827
 21
91.6633362364503625
 31
0.0
  0
LINE
  5
E5
100
AcDbEntity
100
AcDbLine
  8
Top
 62
256
370
-1
  6
ByLayer
 10
98.7941023326829537
 20
107.7348318793181363
 30
0.0
 11
99.6398256913902856
 21
108.0426500083112273
 31
0.0
  0
LINE
  5
E6
100
AcDbEntity
100
AcDbLine
  8
Top
 62
256
370
-1
  6
ByLayer
 10
101.0079062646929628
 20
104.2838795251676061
 30
0.0
 11
100.1621829059856594
 21
103.9760613961745435
 31
0.0
  0
LINE
  5
E7
100
AcDbEntity
100
AcDbLine
  8
Top
 62
256
370
-1
  6
ByLayer
 10
100.1621829059856594
 20
103.9760613961745435
 30
0.0
 11
98.7941023326829537
 21
107.7348318793181363
 31
0.0
  0
LINE
  5
E8
100
AcDbEntity
100
AcDbLine
  8
Top
 62
256
370
-1
  6
ByLayer
 10
107.491785348115684
 20
106.6438185141148409
 30
0.0
 11
106.6460619894083948
 21
106.3360003851216362
 31
0.0
  0
LINE
  5
E9
100
AcDbEntity
100
AcDbLine
  8
Top
 62
256
370
-1
  6
ByLayer
 10
105.2779814161057175
 20
110.0947708682652433
 30
0.0
 11
106.1237047748129925
 21
110.402588997258448
 31
0.0
  0
LINE
  5
EA
100
AcDbEntity
100
AcDbLine
  8
Top
 62
256
370
-1
  6
ByLayer
 10
106.1237047748129925
 20
110.402588997258448
 30
0.0
 11
107.491785348115684
 21
106.6438185141148409
 31
0.0
  0
LINE
  5
EB
100
AcDbEntity
100
AcDbLine
  8
Top
 62
256
370
-1
  6
ByLayer
 10
68.2050323463774788
 20
89.1520765030858797
 30
0.0
 11
67.1789719164002577
 21
91.9711543654435673
 31
0.0
  0
LINE
  5
EC
100
AcDbEntity
100
AcDbLine
  8
Top
 62
256
370
-1
  6
ByLayer
 10
73.8431880710927828
 20
91.2041973630399383
 30
0.0
 11
68.2050323463774788
 21
89.1520765030858797
 31
0.0
  0
LINE
  5
ED
100
AcDbEntity
100
AcDbLine
  8
Top
 62
256
370
-1
  6
ByLayer
 10
72.8171276411156896
 20
94.0232752253975121
 30
0.0
 11
73.8431880710927828
 21
91.2041973630399383
 31
0.0
  0
LINE
  5
EE
100
AcDbEntity
100
AcDbLine
  8
Top
 62
256
370
-1
  6
ByLayer
 10
102.0339666946699282
 20
101.4648016628099185
 30
0.0
 11
101.0079062646929628
 21
104.2838795251676061
 31
0.0
  0
LINE
  5
EF
100
AcDbEntity
100
AcDbLine
  8
Top
 62
256
370
-1
  6
ByLayer
 10
107.6721224193853459
 20
103.5169225227639487
 30
0.0
 11
102.0339666946699282
 21
101.4648016628099185
 31
0.0
  0
LINE
  5
F0
100
AcDbEntity
100
AcDbLine
  8
Top
 62
256
370
-1
  6
ByLayer
 10
106.6460619894083948
 20
106.3360003851216362
 30
0.0
 11
107.6721224193853459
 21
103.5169225227639487
 31
0.0
  0
LINE
  5
F1
100
AcDbEntity
100
AcDbLine
  8
Top
 62
256
370
-1
  6
ByLayer
 10
77.4401013151287714
 20
60.2941167806183742
 30
0.0
 11
78.3401013151287771
 21
60.294116780618694
 31
0.0
  0
LINE
  5
F2
100
AcDbEntity
100
AcDbLine
  8
Top
 62
256
370
-1
  6
ByLayer
 10
78.3401013151287771
 20
56.2941167806186371
 30
0.0
 11
77.4401013151287714
 21
56.2941167806183174
 31
0.0
  0
LINE
  5
F3
100
AcDbEntity
100
AcDbLine
  8
Top
 62
256
370
-1
  6
ByLayer
 10
77.4401013151287714
 20
56.2941167806183174
 30
0.0
 11
77.4401013151287714
 21
60.2941167806183742
 31
0.0
  0
LINE
  5
F4
100
AcDbEntity
100
AcDbLine
  8
Top
 62
256
370
-1
  6
ByLayer
 10
78.3401013151287771
 20
60.294116780618694
 30
0.0
 11
78.3401013151287771
 21
62.2941167806186655
 31
0.0
  0
LINE
  5
F5
100
AcDbEntity
100
AcDbLine
  8
Top
 62
256
370
-1
  6
ByLayer
 10
84.3401013151287771
 20
62.294116780618694
 30
0.0
 11
78.3401013151287771
 21
62.2941167806186655
 31
0.0
  0
LINE
  5
F6
100
AcDbEntity
100
AcDbLine
  8
Top
 62
256
370
-1
  6
ByLayer
 10
84.3401013151287771
 20
62.294116780618694
 30
0.0
 11
84.3401013151287771
 21
60.2941167806186797
 31
0.0
  0
LINE
  5
F7
100
AcDbEntity
100
AcDbLine
  8
Top
 62
256
370
-1
  6
ByLayer
 10
84.3401013151287771
 20
60.2941167806186797
 30
0.0
 11
85.2401013151287827
 21
60.2941167806187437
 31
0.0
  0
LINE
  5
F8
100
AcDbEntity
100
AcDbLine
  8
Top
 62
256
370
-1
  6
ByLayer
 10
85.2401013151287827
 20
60.2941167806187437
 30
0.0
 11
85.2401013151287827
 21
56.2941167806187792
 31
0.0
  0
LINE
  5
F9
100
AcDbEntity
100
AcDbLine
  8
Top
 62
256
370
-1
  6
ByLayer
 10
85.2401013151287827
 20
56.2941167806187792
 30
0.0
 11
84.3401013151287202
 21
56.2941167806186513
 31
0.0
  0
LINE
  5
FA
100
AcDbEntity
100
AcDbLine
  8
Top
 62
256
370
-1
  6
ByLayer
 10
110.3401013151288339
 20
60.2941167806187082
 30
0.0
 11
110.3401013151286776
 21
62.2941167806186655
 31
0.0
  0
LINE
  5
FB
100
AcDbEntity
100
AcDbLine
  8
Top
 62
256
370
-1
  6
ByLayer
 10
110.3401013151286776
 20
62.2941167806186655
 30
0.0
 11
116.3401013151287771
 21
62.2941167806186797
 31
0.0
  0
LINE
  5
FC
100
AcDbEntity
100
AcDbLine
  8
Top
 62
256
370
-1
  6
ByLayer
 10
116.3401013151287771
 20
62.2941167806186797
 30
0.0
 11
116.3401013151287771
 21
60.2941167806187082
 31
0.0
  0
LINE
  5
FD
100
AcDbEntity
100
AcDbLine
  8
Top
 62
256
370
-1
  6
ByLayer
 10
109.4401013151287856
 20
60.2941167806186442
 30
0.0
 11
110.3401013151288339
 21
60.2941167806187082
 31
0.0
  0
LINE
  5
FE
100
AcDbEntity
100
AcDbLine
  8
Top
 62
256
370
-1
  6
ByLayer
 10
110.3401013151288339
 20
56.294116780618694
 30
0.0
 11
109.4401013151287003
 21
56.294116780618694
 31
0.0
  0
LINE
  5
FF
100
AcDbEntity
100
AcDbLine
  8
Top
 62
256
370
-1
  6
ByLayer
 10
109.4401013151287003
 20
56.294116780618694
 30
0.0
 11
109.4401013151287856
 21
60.2941167806186442
 31
0.0
  0
LINE
  5
100
100
AcDbEntity
100
AcDbLine
  8
Top
 62
256
370
-1
  6
ByLayer
 10
117.2401013151287827
 20
56.2941167806187295
 30
0.0
 11
116.3401013151287771
 21
56.2941167806186655
 31
0.0
  0
LINE
  5
101
100
AcDbEntity
100
AcDbLine
  8
Top
 62
256
370
-1
  6
ByLayer
 10
116.3401013151287771
 20
60.2941167806187082
 30
0.0
 11
117.2401013151287827
 21
60.2941167806187721
 31
0.0
  0
LINE
  5
102
100
AcDbEntity
100
AcDbLine
  8
Top
 62
256
370
-1
  6
ByLayer
 10
117.2401013151287827
 20
60.2941167806187721
 30
0.0
 11
117.2401013151287827
 21
56.2941167806187295
 31
0.0
  0
LINE
  5
103
100
AcDbEntity
100
AcDbLine
  8
Top
 62
256
370
-1
  6
ByLayer
 10
75.1646753151284912
 20
65.0040248006110488
 30
0.0
 11
76.7523883151284991
 21
67.7540248006110488
 31
0.0
  0
LINE
  5
104
100
AcDbEntity
100
AcDbLine
  8
Top
 62
256
370
-1
  6
ByLayer
 10
76.7523883151284991
 20
67.7540248006110488
 30
0.0
 11
79.9278143151285008
 21
67.7540248006110488
 31
0.0
  0
LINE
  5
105
100
AcDbEntity
100
AcDbLine
  8
Top
 62
256
370
-1
  6
ByLayer
 10
79.9278143151285008
 20
67.7540248006110488
 30
0.0
 11
81.5155273151284945
 21
65.0040248006110488
 31
0.0
  0
LINE
  5
106
100
AcDbEntity
100
AcDbLine
  8
Top
 62
256
370
-1
  6
ByLayer
 10
79.9278143151284866
 20
62.2540248006110488
 30
0.0
 11
81.5155273151284945
 21
65.0040248006110488
 31
0.0
  0
LINE
  5
107
100
AcDbEntity
100
AcDbLine
  8
Top
 62
256
370
-1
  6
ByLayer
 10
76.7523883151284991
 20
62.2540248006110488
 30
0.0
 11
79.9278143151284866
 21
62.2540248006110488
 31
0.0
  0
LINE
  5
108
100
AcDbEntity
100
AcDbLine
  8
Top
 62
256
370
-1
  6
ByLayer
 10
75.1646753151284912
 20
65.0040248006110488
 30
0.0
 11
76.7523883151284991
 21
62.2540248006110488
 31
0.0
  0
LINE
  5
109
100
AcDbEntity
100
AcDbLine
  8
Top
 62
256
370
-1
  6
ByLayer
 10
86.2540416594882657
 20
78.987949180662909
 30
0.0
 11
89.3812261944695479
 21
78.4365423847826264
 31
0.0
  0
LINE
  5
10A
100
AcDbEntity
100
AcDbLine
  8
Top
 62
256
370
-1
  6
ByLayer
 10
89.3812261944695479
 20
78.4365423847826264
 30
0.0
 11
90.4672858501096044
 21
75.4526180047309083
 31
0.0
  0
LINE
  5
10B
100
AcDbEntity
100
AcDbLine
  8
Top
 62
256
370
-1
  6
ByLayer
 10
90.4672858501096044
 20
75.4526180047309083
 30
0.0
 11
88.4261609707683789
 21
73.0201004205594728
 31
0.0
  0
LINE
  5
10C
100
AcDbEntity
100
AcDbLine
  8
Top
 62
256
370
-1
  6
ByLayer
 10
85.2989764357870968
 20
73.5715072164397554
 30
0.0
 11
88.4261609707683789
 21
73.0201004205594728
 31
0.0
  0
LINE
  5
10D
100
AcDbEntity
100
AcDbLine
  8
Top
 62
256
370
-1
  6
ByLayer
 10
84.2129167801470544
 20
76.5554315964914593
 30
0.0
 11
85.2989764357870968
 21
73.5715072164397554
 31
0.0
  0
LINE
  5
10E
100
AcDbEntity
100
AcDbLine
  8
Top
 62
256
370
-1
  6
ByLayer
 10
86.2540416594882657
 20
78.987949180662909
 30
0.0
 11
84.2129167801470544
 21
76.5554315964914593
 31
0.0
  0
LINE
  5
10F
100
AcDbEntity
100
AcDbLine
  8
Top
 62
256
370
-1
  6
ByLayer
 10
105.7540416594884505
 20
67.9879491806632075
 30
0.0
 11
108.8812261944697184
 21
67.4365423847829248
 31
0.0
  0
LINE
  5
110
100
AcDbEntity
100
AcDbLine
  8
Top
 62
256
370
-1
  6
ByLayer
 10
108.8812261944697184
 20
67.4365423847829248
 30
0.0
 11
109.967285849792205
 21
64.4526180029301798
 31
0.0
  0
LINE
  5
111
100
AcDbEntity
100
AcDbLine
  8
Top
 62
256
370
-1
  6
ByLayer
 10
109.967285849792205
 20
64.4526180029301798
 30
0.0
 11
107.9261609707685494
 21
62.0201004205597712
 31
0.0
  0
LINE
  5
112
100
AcDbEntity
100
AcDbLine
  8
Top
 62
256
370
-1
  6
ByLayer
 10
104.7989764357872673
 20
62.5715072164400468
 30
0.0
 11
107.9261609707685494
 21
62.0201004205597712
 31
0.0
  0
LINE
  5
113
100
AcDbEntity
100
AcDbLine
  8
Top
 62
256
370
-1
  6
ByLayer
 10
103.7129167804647949
 20
65.5554315982927989
 30
0.0
 11
104.7989764357872673
 21
62.5715072164400468
 31
0.0
  0
LINE
  5
114
100
AcDbEntity
100
AcDbLine
  8
Top
 62
256
370
-1
  6
ByLayer
 10
105.7540416594884505
 20
67.9879491806632075
 30
0.0
 11
103.7129167804647949
 21
65.5554315982927989
 31
0.0
  0
LINE
  5
115
100
AcDbEntity
100
AcDbLine
  8
Top
 62
256
370
-1
  6
ByLayer
 10
114.2523883151284991
 20
67.7540243844492664
 30
0.0
 11
117.4278146755357
 21
67.7540245925304561
 31
0.0
  0
LINE
  5
116
100
AcDbEntity
100
AcDbLine
  8
Top
 62
256
370
-1
  6
ByLayer
 10
117.4278146755357
 20
67.7540245925304561
 30
0.0
 11
119.0155276755357079
 21
65.0040250086928495
 31
0.0
  0
LINE
  5
117
100
AcDbEntity
100
AcDbLine
  8
Top
 62
256
370
-1
  6
ByLayer
 10
119.0155276755357079
 20
65.0040250086928495
 30
0.0
 11
117.4278143151285008
 21
62.2540252167740533
 31
0.0
  0
LINE
  5
118
100
AcDbEntity
100
AcDbLine
  8
Top
 62
256
370
-1
  6
ByLayer
 10
114.2523879547212857
 20
62.2540250086928637
 30
0.0
 11
117.4278143151285008
 21
62.2540252167740533
 31
0.0
  0
LINE
  5
119
100
AcDbEntity
100
AcDbLine
  8
Top
 62
256
370
-1
  6
ByLayer
 10
112.664674954721292
 20
65.0040245925304561
 30
0.0
 11
114.2523879547212857
 21
62.2540250086928637
 31
0.0
  0
LINE
  5
11A
100
AcDbEntity
100
AcDbLine
  8
Top
 62
256
370
-1
  6
ByLayer
 10
114.2523883151284991
 20
67.7540243844492664
 30
0.0
 11
112.664674954721292
 21
65.0040245925304561
 31
0.0
  0
LINE
  5
11B
100
AcDbEntity
100
AcDbLine
  8
Middle
 62
256
370
-1
  6
ByLayer
 10
64.9651679843903054
 20
95.4221067195940691
 30
0.0
 11
72.294770426520401
 21
98.0898638375340823
 31
0.0
  0
LINE
  5
11C
100
AcDbEntity
100
AcDbLine
  8
Middle
 62
256
370
-1
  6
ByLayer
 10
72.294770426520401
 20
98.0898638375340823
 30
0.0
 11
73.6628509998228651
 21
94.33109335439093
 31
0.0
  0
LINE
  5
11D
100
AcDbEntity
100
AcDbLine
  8
Middle
 62
256
370
-1
  6
ByLayer
 10
73.6628509998228651
 20
94.33109335439093
 30
0.0
 11
72.8171276411156896
 21
94.0232752253975121
 31
0.0
  0
LINE
  5
11E
100
AcDbEntity
100
AcDbLine
  8
Middle
 62
256
370
-1
  6
ByLayer
 10
72.8171276411156896
 20
94.0232752253975121
 30
0.0
 11
73.8431880710927828
 21
91.2041973630399383
 31
0.0
  0
LINE
  5
11F
100
AcDbEntity
100
AcDbLine
  8
Middle
 62
256
370
-1
  6
ByLayer
 10
73.8431880710927828
 20
91.2041973630399383
 30
0.0
 11
68.2050323463774788
 21
89.1520765030858797
 31
0.0
  0
LINE
  5
120
100
AcDbEntity
100
AcDbLine
  8
Middle
 62
256
370
-1
  6
ByLayer
 10
68.2050323463774788
 20
89.1520765030858797
 30
0.0
 11
67.1789719164002577
 21
91.9711543654435673
 31
0.0
  0
LINE
  5
121
100
AcDbEntity
100
AcDbLine
  8
Middle
 62
256
370
-1
  6
ByLayer
 10
67.1789719164002577
 20
91.9711543654435673
 30
0.0
 11
66.3332485576929827
 21
91.6633362364503625
 31
0.0
  0
LINE
  5
122
100
AcDbEntity
100
AcDbLine
  8
Middle
 62
256
370
-1
  6
ByLayer
 10
66.3332485576929827
 20
91.6633362364503625
 30
0.0
 11
64.9651679843903054
 21
95.4221067195940691
 31
0.0
  0
LINE
  5
123
100
AcDbEntity
100
AcDbLine
  8
Middle
 62
256
370
-1
  6
ByLayer
 10
98.7941023326829537
 20
107.7348318793181363
 30
0.0
 11
106.1237047748129925
 21
110.402588997258448
 31
0.0
  0
LINE
  5
124
100
AcDbEntity
100
AcDbLine
  8
Middle
 62
256
370
-1
  6
ByLayer
 10
106.1237047748129925
 20
110.402588997258448
 30
0.0
 11
107.491785348115684
 21
106.6438185141148409
 31
0.0
  0
LINE
  5
125
100
AcDbEntity
100
AcDbLine
  8
Middle
 62
256
370
-1
  6
ByLayer
 10
107.491785348115684
 20
106.6438185141148409
 30
0.0
 11
106.6460619894083948
 21
106.3360003851216362
 31
0.0
  0
LINE
  5
126
100
AcDbEntity
100
AcDbLine
  8
Middle
 62
256
370
-1
  6
ByLayer
 10
106.6460619894083948
 20
106.3360003851216362
 30
0.0
 11
107.6721224193853459
 21
103.5169225227639487
 31
0.0
  0
LINE
  5
127
100
AcDbEntity
100
AcDbLine
  8
Middle
 62
256
370
-1
  6
ByLayer
 10
107.6721224193853459
 20
103.5169225227639487
 30
0.0
 11
102.0339666946699282
 21
101.4648016628099185
 31
0.0
  0
LINE
  5
128
100
AcDbEntity
100
AcDbLine
  8
Middle
 62
256
370
-1
  6
ByLayer
 10
102.0339666946699282
 20
101.4648016628099185
 30
0.0
 11
101.0079062646929628
 21
104.2838795251676061
 31
0.0
  0
LINE
  5
129
100
AcDbEntity
100
AcDbLine
  8
Middle
 62
256
370
-1
  6
ByLayer
 10
101.0079062646929628
 20
104.2838795251676061
 30
0.0
 11
100.1621829059856594
 21
103.9760613961745435
 31
0.0
  0
LINE
  5
12A
100
AcDbEntity
100
AcDbLine
  8
Middle
 62
256
370
-1
  6
ByLayer
 10
100.1621829059856594
 20
103.9760613961745435
 30
0.0
 11
98.7941023326829537
 21
107.7348318793181363
 31
0.0
  0
LINE
  5
12B
100
AcDbEntity
100
AcDbLine
  8
Middle
 62
256
370
-1
  6
ByLayer
 10
77.4401013151287714
 20
56.2941167806183174
 30
0.0
 11
85.2401013151287827
 21
56.2941167806187792
 31
0.0
  0
LINE
  5
12C
100
AcDbEntity
100
AcDbLine
  8
Middle
 62
256
370
-1
  6
ByLayer
 10
85.2401013151287827
 20
56.2941167806187792
 30
0.0
 11
85.2401013151287827
 21
60.2941167806187437
 31
0.0
  0
LINE
  5
12D
100
AcDbEntity
100
AcDbLine
  8
Middle
 62
256
370
-1
  6
ByLayer
 10
85.2401013151287827
 20
60.2941167806187437
 30
0.0
 11
84.3401013151287771
 21
60.2941167806186797
 31
0.0
  0
LINE
  5
12E
100
AcDbEntity
100
AcDbLine
  8
Middle
 62
256
370
-1
  6
ByLayer
 10
84.3401013151287771
 20
60.2941167806186797
 30
0.0
 11
84.3401013151287771
 21
62.294116780618694
 31
0.0
  0
LINE
  5
12F
100
AcDbEntity
100
AcDbLine
  8
Middle
 62
256
370
-1
  6
ByLayer
 10
84.3401013151287771
 20
62.294116780618694
 30
0.0
 11
78.3401013151287771
 21
62.2941167806186655
 31
0.0
  0
LINE
  5
130
100
AcDbEntity
100
AcDbLine
  8
Middle
 62
256
370
-1
  6
ByLayer
 10
78.3401013151287771
 20
62.2941167806186655
 30
0.0
 11
78.3401013151287771
 21
60.294116780618694
 31
0.0
  0
LINE
  5
131
100
AcDbEntity
100
AcDbLine
  8
Middle
 62
256
370
-1
  6
ByLayer
 10
78.3401013151287771
 20
60.294116780618694
 30
0.0
 11
77.4401013151287714
 21
60.2941167806183742
 31
0.0
  0
LINE
  5
132
100
AcDbEntity
100
AcDbLine
  8
Middle
 62
256
370
-1
  6
ByLayer
 10
77.4401013151287714
 20
60.2941167806183742
 30
0.0
 11
77.4401013151287714
 21
56.2941167806183174
 31
0.0
  0
LINE
  5
133
100
AcDbEntity
100
AcDbLine
  8
Middle
 62
256
370
-1
  6
ByLayer
 10
109.4401013151287003
 20
56.294116780618694
 30
0.0
 11
117.2401013151287827
 21
56.2941167806187295
 31
0.0
  0
LINE
  5
134
100
AcDbEntity
100
AcDbLine
  8
Middle
 62
256
370
-1
  6
ByLayer
 10
117.2401013151287827
 20
56.2941167806187295
 30
0.0
 11
117.2401013151287827
 21
60.2941167806187721
 31
0.0
  0
LINE
  5
135
100
AcDbEntity
100
AcDbLine
  8
Middle
 62
256
370
-1
  6
ByLayer
 10
117.2401013151287827
 20
60.2941167806187721
 30
0.0
 11
116.3401013151287771
 21
60.2941167806187082
 31
0.0
  0
LINE
  5
136
100
AcDbEntity
100
AcDbLine
  8
Middle
 62
256
370
-1
  6
ByLayer
 10
116.3401013151287771
 20
60.2941167806187082
 30
0.0
 11
116.3401013151287771
 21
62.2941167806186797
 31
0.0
  0
LINE
  5
137
100
AcDbEntity
100
AcDbLine
  8
Middle
 62
256
370
-1
  6
ByLayer
 10
116.3401013151287771
 20
62.2941167806186797
 30
0.0
 11
110.3401013151286776
 21
62.2941167806186655
 31
0.0
  0
LINE
  5
138
100
AcDbEntity
100
AcDbLine
  8
Middle
 62
256
370
-1
  6
ByLayer
 10
110.3401013151286776
 20
62.2941167806186655
 30
0.0
 11
110.3401013151288339
 21
60.2941167806187082
 31
0.0
  0
LINE
  5
139
100
AcDbEntity
100
AcDbLine
  8
Middle
 62
256
370
-1
  6
ByLayer
 10
110.3401013151288339
 20
60.2941167806187082
 30
0.0
 11
109.4401013151287856
 21
60.2941167806186442
 31
0.0
  0
LINE
  5
13A
100
AcDbEntity
100
AcDbLine
  8
Middle
 62
256
370
-1
  6
ByLayer
 10
109.4401013151287856
 20
60.2941167806186442
 30
0.0
 11
109.4401013151287003
 21
56.294116780618694
 31
0.0
  0
LINE
  5
13B
100
AcDbEntity
100
AcDbLine
  8
Bottom
 62
256
370
-1
  6
ByLayer
 10
64.9651679843903054
 20
95.4221067195940691
 30
0.0
 11
72.294770426520401
 21
98.0898638375340823
 31
0.0
  0
LINE
  5
13C
100
AcDbEntity
100
AcDbLine
  8
Bottom
 62
256
370
-1
  6
ByLayer
 10
72.294770426520401
 20
98.0898638375340823
 30
0.0
 11
73.6628509998228651
 21
94.33109335439093
 31
0.0
  0
LINE
  5
13D
100
AcDbEntity
100
AcDbLine
  8
Bottom
 62
256
370
-1
  6
ByLayer
 10
73.6628509998228651
 20
94.33109335439093
 30
0.0
 11
66.3332485576929827
 21
91.6633362364503625
 31
0.0
  0
LINE
  5
13E
100
AcDbEntity
100
AcDbLine
  8
Bottom
 62
256
370
-1
  6
ByLayer
 10
66.3332485576929827
 20
91.6633362364503625
 30
0.0
 11
64.9651679843903054
 21
95.4221067195940691
 31
0.0
  0
LINE
  5
13F
100
AcDbEntity
100
AcDbLine
  8
Bottom
 62
256
370
-1
  6
ByLayer
 10
98.7941023326829537
 20
107.7348318793181363
 30
0.0
 11
106.1237047748129925
 21
110.402588997258448
 31
0.0
  0
LINE
  5
140
100
AcDbEntity
100
AcDbLine
  8
Bottom
 62
256
370
-1
  6
ByLayer
 10
106.1237047748129925
 20
110.402588997258448
 30
0.0
 11
107.491785348115684
 21
106.6438185141148409
 31
0.0
  0
LINE
  5
141
100
AcDbEntity
100
AcDbLine
  8
Bottom
 62
256
370
-1
  6
ByLayer
 10
107.491785348115684
 20
106.6438185141148409
 30
0.0
 11
100.1621829059856594
 21
103.9760613961745435
 31
0.0
  0
LINE
  5
142
100
AcDbEntity
100
AcDbLine
  8
Bottom
 62
256
370
-1
  6
ByLayer
 10
100.1621829059856594
 20
103.9760613961745435
 30
0.0
 11
98.7941023326829537
 21
107.7348318793181363
 31
0.0
  0
LINE
  5
143
100
AcDbEntity
100
AcDbLine
  8
Bottom
 62
256
370
-1
  6
ByLayer
 10
77.4401013151287714
 20
60.2941167806183742
 30
0.0
 11
85.2401013151287827
 21
60.2941167806187437
 31
0.0
  0
LINE
  5
144
100
AcDbEntity
100
AcDbLine
  8
Bottom
 62
256
370
-1
  6
ByLayer
 10
85.2401013151287827
 20
60.2941167806187437
 30
0.0
 11
85.2401013151287827
 21
56.2941167806187792
 31
0.0
  0
LINE
  5
145
100
AcDbEntity
100
AcDbLine
  8
Bottom
 62
256
370
-1
  6
ByLayer
 10
85.2401013151287827
 20
56.2941167806187792
 30
0.0
 11
77.4401013151287714
 21
56.2941167806183174
 31
0.0
  0
LINE
  5
146
100
AcDbEntity
100
AcDbLine
  8
Bottom
 62
256
370
-1
  6
ByLayer
 10
77.4401013151287714
 20
56.2941167806183174
 30
0.0
 11
77.4401013151287714
 21
60.2941167806183742
 31
0.0
  0
LINE
  5
147
100
AcDbEntity
100
AcDbLine
  8
Bottom
 62
256
370
-1
  6
ByLayer
 10
109.4401013151287856
 20
60.2941167806186442
 30
0.0
 11
117.2401013151287827
 21
60.2941167806187721
 31
0.0
  0
LINE
  5
148
100
AcDbEntity
100
AcDbLine
  8
Bottom
 62
256
370
-1
  6
ByLayer
 10
117.2401013151287827
 20
60.2941167806187721
 30
0.0
 11
117.2401013151287827
 21
56.2941167806187295
 31
0.0
  0
LINE
  5
149
100
AcDbEntity
100
AcDbLine
  8
Bottom
 62
256
370
-1
  6
ByLayer
 10
117.2401013151287827
 20
56.2941167806187295
 30
0.0
 11
109.4401013151287003
 21
56.294116780618694
 31
0.0
  0
LINE
  5
14A
100
AcDbEntity
100
AcDbLine
  8
Bottom
 62
256
370
-1
  6
ByLayer
 10
109.4401013151287003
 20
56.294116780618694
 30
0.0
 11
109.4401013151287856
 21
60.2941167806186442
 31
0.0
  0
ENDSEC
  0
SECTION
  2
OBJECTS
  0
DICTIONARY
  5
C
100
AcDbDictionary
280
0
281
1
  3
ACAD_GROUP
350
D
  3
ACAD_LAYOUT
350
1A
  3
ACAD_MLINESTYLE
350
17
  3
ACAD_PLOTSETTINGS
350
19
  3
ACAD_PLOTSTYLENAME
350
E
  3
AcDbVariableDictionary
350
14B
  0
DICTIONARY
  5
D
100
AcDbDictionary
280
0
281
1
  0
ACDBDICTIONARYWDFLT
  5
E
100
AcDbDictionary
281
1
  3
Normal
350
F
100
AcDbDictionaryWithDefault
340
F
  0
ACDBPLACEHOLDER
  5
F
  0
DICTIONARY
  5
17
100
AcDbDictionary
280
0
281
1
  3
Standard
350
18
  0
MLINESTYLE
  5
18
100
AcDbMlineStyle
  2
STANDARD
 70
0
  3

 62
256
 51
90.0
 52
90.0
 71
2
 49
0.5
 62
256
  6
BYLAYER
 49
-0.5
 62
256
  6
BYLAYER
  0
DICTIONARY
  5
19
100
AcDbDictionary
280
0
281
1
  0
DICTIONARY
  5
1A
100
AcDbDictionary
281
1
  3
Layout1
350
1E
  3
Layout2
350
26
  3
Model
350
22
  0
LAYOUT
  5
1E
100
AcDbPlotSettings
  1

  2
C:\Program Files\AutoCAD 2002\plotters\DWF ePlot (optimized for plotting).pc3
  4

  6

 40
0.0
 41
0.0
 42
0.0
 43
0.0
 44
0.0
 45
0.0
 46
0.0
 47
0.0
 48
0.0
 49
0.0
140
0.0
141
0.0
142
1.0
143
1.0
 70
688
 72
0
 73
0
 74
5
  7

 75
16
147
1.0
148
0.0
149
0.0
100
AcDbLayout
  1
Layout1
 70
1
 71
1
 10
0.0
 20
0.0
 11
420.0
 21
297.0
 12
0.0
 22
0.0
 32
0.0
 14
100000000000000000000.0
 24
100000000000000000000.0
 34
100000000000000000000.0
 15
-100000000000000000000.0
 25
-100000000000000000000.0
 35
-100000000000000000000.0
146
0.0
 13
0.0
 23
0.0
 33
0.0
 16
1.0
 26
0.0
 36
0.0
 17
0.0
 27
1.0
 37
0.0
 76
0
330
1B
  0
LAYOUT
  5
22
100
AcDbPlotSettings
  1

  2
C:\Program Files\AutoCAD 2002\plotters\DWF ePlot (optimized for plotting).pc3
  4

  6

 40
0.0
 41
0.0
 42
0.0
 43
0.0
 44
0.0
 45
0.0
 46
0.0
 47
0.0
 48
0.0
 49
0.0
140
0.0
141
0.0
142
1.0
143
1.0
 70
1712
 72
0
 73
0
 74
0
  7

 75
0
147
1.0
148
0.0
149
0.0
100
AcDbLayout
  1
Model
 70
1
 71
0
 10
0.0
 20
0.0
 11
12.0
 21
9.0
 12
0.0
 22
0.0
 32
0.0
 14
0.0
 24
0.0
 34
0.0
 15
0.0
 25
0.0
 35
0.0
146
0.0
 13
0.0
 23
0.0
 33
0.0
 16
1.0
 26
0.0
 36
0.0
 17
0.0
 27
1.0
 37
0.0
 76
0
330
1F
  0
LAYOUT
  5
26
100
AcDbPlotSettings
  1

  2
C:\Program Files\AutoCAD 2002\plotters\DWF ePlot (optimized for plotting).pc3
  4

  6

 40
0.0
 41
0.0
 42
0.0
 43
0.0
 44
0.0
 45
0.0
 46
0.0
 47
0.0
 48
0.0
 49
0.0
140
0.0
141
0.0
142
1.0
143
1.0
 70
688
 72
0
 73
0
 74
5
  7

 75
16
147
1.0
148
0.0
149
0.0
100
AcDbLayout
  1
Layout2
 70
1
 71
2
 10
0.0
 20
0.0
 11
12.0
 21
9.0
 12
0.0
 22
0.0
 32
0.0
 14
0.0
 24
0.0
 34
0.0
 15
0.0
 25
0.0
 35
0.0
146
0.0
 13
0.0
 23
0.0
 33
0.0
 16
1.0
 26
0.0
 36
0.0
 17
0.0
 27
1.0
 37
0.0
 76
0
330
23
  0
DICTIONARY
  5
14B
100
AcDbDictionary
281
1
  3
DIMASSOC
350
14D
  3
HIDETEXT
350
14C
  0
DICTIONARYVAR
  5
14C
100
DictionaryVariables
280
0
  1
2
  0
DICTIONARYVAR
  5
14D
100
DictionaryVariables
280
0
  1
1
  0
ENDSEC
  0
EOF
