999
dxflib 2.1.2.0
  0
SECTION
  2
HEADER
  9
$ACADVER
  1
AC1015
  9
$HANDSEED
  5
FFFF
  9
$SPLINESEGS
 70
8
  9
$DIMEXE
 40
1.25
  9
$DIMLUNIT
 70
2
  9
$GRIDMODE
 70
1
  9
$INSUNITS
 70
4
  9
$DIMADEC
 70
2
  9
$DIMASZ
 40
2.5
  9
$DIMGAP
 40
0.625
  9
$DIMTXT
 40
2.5
  9
$GRIDUNIT
 10
0.0
 20
0.0
  9
$DIMEXO
 40
0.625
  9
$LUPREC
 70
4
  9
$CLAYER
  8
Notes
  9
$DIMAUNIT
 70
0
  9
$AUPREC
 70
2
  9
$PLIMMIN
 10
0.0
 20
0.0
  9
$LUNITS
 70
2
  9
$PLIMMAX
 10
215.9000000000000057
 20
279.3999999999999773
  9
$DIMSTYLE
  2
Standard
  9
$AUNITS
 70
0
  9
$CLAYER
  8
Bottom Text
  0
ENDSEC
  0
SECTION
  2
TABLES
  0
TABLE
  2
VPORT
  5
8
100
AcDbSymbolTable
 70
1
  0
VPORT
  5
30
100
AcDbSymbolTableRecord
100
AcDbViewportTableRecord
  2
*Active
 70
0
 10
0.0
 20
0.0
 11
1.0
 21
1.0
 12
286.3055555555554861
 22
148.5
 13
0.0
 23
0.0
 14
10.0
 24
10.0
 15
10.0
 25
10.0
 16
0.0
 26
0.0
 36
1.0
 17
0.0
 27
0.0
 37
0.0
 40
297.0
 41
1.92798353909465
 42
50.0
 43
0.0
 44
0.0
 50
0.0
 51
0.0
 71
0
 72
100
 73
1
 74
3
 75
1
 76
1
 77
0
 78
0
281
0
 65
1
110
0.0
120
0.0
130
0.0
111
1.0
121
0.0
131
0.0
112
0.0
122
1.0
132
0.0
 79
0
146
0.0
  0
ENDTAB
  0
TABLE
  2
LTYPE
  5
5
100
AcDbSymbolTable
 70
21
  0
LTYPE
  5
14
100
AcDbSymbolTableRecord
100
AcDbLinetypeTableRecord
  2
ByBlock
 70
0
  3

 72
65
 73
0
 40
0.0
  0
LTYPE
  5
15
100
AcDbSymbolTableRecord
100
AcDbLinetypeTableRecord
  2
ByLayer
 70
0
  3

 72
65
 73
0
 40
0.0
  0
LTYPE
  5
16
100
AcDbSymbolTableRecord
100
AcDbLinetypeTableRecord
  2
CONTINUOUS
 70
0
  3
Solid line
 72
65
 73
0
 40
0.0
  0
LTYPE
  5
31
100
AcDbSymbolTableRecord
100
AcDbLinetypeTableRecord
  2
DOT
 70
0
  3
Dot . . . . . . . . . . . . . . . . . . . . . .
 72
65
 73
2
 40
6.3499999999999996
 49
0.0
 74
0
 49
-6.3499999999999996
 74
0
  0
LTYPE
  5
32
100
AcDbSymbolTableRecord
100
AcDbLinetypeTableRecord
  2
DOT2
 70
0
  3
Dot (.5x) .....................................
 72
65
 73
2
 40
3.1749999999999998
 49
0.0
 74
0
 49
-3.1749999999999998
 74
0
  0
LTYPE
  5
33
100
AcDbSymbolTableRecord
100
AcDbLinetypeTableRecord
  2
DOTX2
 70
0
  3
Dot (2x) .  .  .  .  .  .  .  .  .  .  .  .  .
 72
65
 73
2
 40
12.6999999999999993
 49
0.0
 74
0
 49
-12.6999999999999993
 74
0
  0
LTYPE
  5
34
100
AcDbSymbolTableRecord
100
AcDbLinetypeTableRecord
  2
DASHED
 70
0
  3
Dashed __ __ __ __ __ __ __ __ __ __ __ __ __ _
 72
65
 73
2
 40
19.0500000000000007
 49
12.6999999999999993
 74
0
 49
-6.3499999999999996
 74
0
  0
LTYPE
  5
35
100
AcDbSymbolTableRecord
100
AcDbLinetypeTableRecord
  2
DASHED2
 70
0
  3
Dashed (.5x) _ _ _ _ _ _ _ _ _ _ _ _ _ _ _ _ _
 72
65
 73
2
 40
9.5250000000000004
 49
6.3499999999999996
 74
0
 49
-3.1749999999999998
 74
0
  0
LTYPE
  5
36
100
AcDbSymbolTableRecord
100
AcDbLinetypeTableRecord
  2
DASHEDX2
 70
0
  3
Dashed (2x) ____  ____  ____  ____  ____  ___
 72
65
 73
2
 40
38.1000000000000014
 49
25.3999999999999986
 74
0
 49
-12.6999999999999993
 74
0
  0
LTYPE
  5
37
100
AcDbSymbolTableRecord
100
AcDbLinetypeTableRecord
  2
DASHDOT
 70
0
  3
Dash dot __ . __ . __ . __ . __ . __ . __ . __
 72
65
 73
4
 40
25.3999999999999986
 49
12.6999999999999993
 74
0
 49
-6.3499999999999996
 74
0
 49
0.0
 74
0
 49
-6.3499999999999996
 74
0
  0
LTYPE
  5
38
100
AcDbSymbolTableRecord
100
AcDbLinetypeTableRecord
  2
DASHDOT2
 70
0
  3
Dash dot (.5x) _._._._._._._._._._._._._._._.
 72
65
 73
4
 40
12.6999999999999993
 49
6.3499999999999996
 74
0
 49
-3.1749999999999998
 74
0
 49
0.0
 74
0
 49
-3.1749999999999998
 74
0
  0
LTYPE
  5
39
100
AcDbSymbolTableRecord
100
AcDbLinetypeTableRecord
  2
DASHDOTX2
 70
0
  3
Dash dot (2x) ____  .  ____  .  ____  .  ___
 72
65
 73
4
 40
50.7999999999999972
 49
25.3999999999999986
 74
0
 49
-12.6999999999999993
 74
0
 49
0.0
 74
0
 49
-12.6999999999999993
 74
0
  0
LTYPE
  5
3A
100
AcDbSymbolTableRecord
100
AcDbLinetypeTableRecord
  2
DIVIDE
 70
0
  3
Divide ____ . . ____ . . ____ . . ____ . . ____
 72
65
 73
6
 40
31.75
 49
12.6999999999999993
 74
0
 49
-6.3499999999999996
 74
0
 49
0.0
 74
0
 49
-6.3499999999999996
 74
0
 49
0.0
 74
0
 49
-6.3499999999999996
 74
0
  0
LTYPE
  5
3B
100
AcDbSymbolTableRecord
100
AcDbLinetypeTableRecord
  2
DIVIDE2
 70
0
  3
Divide (.5x) __..__..__..__..__..__..__..__.._
 72
65
 73
6
 40
15.875
 49
6.3499999999999996
 74
0
 49
-3.1749999999999998
 74
0
 49
0.0
 74
0
 49
-3.1749999999999998
 74
0
 49
0.0
 74
0
 49
-3.1749999999999998
 74
0
  0
LTYPE
  5
3C
100
AcDbSymbolTableRecord
100
AcDbLinetypeTableRecord
  2
DIVIDEX2
 70
0
  3
Divide (2x) ________  .  .  ________  .  .  _
 72
65
 73
6
 40
63.5
 49
25.3999999999999986
 74
0
 49
-12.6999999999999993
 74
0
 49
0.0
 74
0
 49
-12.6999999999999993
 74
0
 49
0.0
 74
0
 49
-12.6999999999999993
 74
0
  0
LTYPE
  5
3D
100
AcDbSymbolTableRecord
100
AcDbLinetypeTableRecord
  2
CENTER
 70
0
  3
Center ____ _ ____ _ ____ _ ____ _ ____ _ ____
 72
65
 73
4
 40
50.7999999999999972
 49
31.75
 74
0
 49
-6.3499999999999996
 74
0
 49
6.3499999999999996
 74
0
 49
-6.3499999999999996
 74
0
  0
LTYPE
  5
3E
100
AcDbSymbolTableRecord
100
AcDbLinetypeTableRecord
  2
CENTER2
 70
0
  3
Center (.5x) ___ _ ___ _ ___ _ ___ _ ___ _ ___
 72
65
 73
4
 40
28.5749999999999993
 49
19.0500000000000007
 74
0
 49
-3.1749999999999998
 74
0
 49
3.1749999999999998
 74
0
 49
-3.1749999999999998
 74
0
  0
LTYPE
  5
3F
100
AcDbSymbolTableRecord
100
AcDbLinetypeTableRecord
  2
CENTERX2
 70
0
  3
Center (2x) ________  __  ________  __  _____
 72
65
 73
4
 40
101.5999999999999943
 49
63.5
 74
0
 49
-12.6999999999999993
 74
0
 49
12.6999999999999993
 74
0
 49
-12.6999999999999993
 74
0
  0
LTYPE
  5
40
100
AcDbSymbolTableRecord
100
AcDbLinetypeTableRecord
  2
BORDER
 70
0
  3
Border __ __ . __ __ . __ __ . __ __ . __ __ .
 72
65
 73
6
 40
44.4500000000000028
 49
12.6999999999999993
 74
0
 49
-6.3499999999999996
 74
0
 49
12.6999999999999993
 74
0
 49
-6.3499999999999996
 74
0
 49
0.0
 74
0
 49
-6.3499999999999996
 74
0
  0
LTYPE
  5
41
100
AcDbSymbolTableRecord
100
AcDbLinetypeTableRecord
  2
BORDER2
 70
0
  3
Border (.5x) __.__.__.__.__.__.__.__.__.__.__.
 72
65
 73
6
 40
22.2250000000000014
 49
6.3499999999999996
 74
0
 49
-3.1749999999999998
 74
0
 49
6.3499999999999996
 74
0
 49
-3.1749999999999998
 74
0
 49
0.0
 74
0
 49
-3.1749999999999998
 74
0
  0
LTYPE
  5
42
100
AcDbSymbolTableRecord
100
AcDbLinetypeTableRecord
  2
BORDERX2
 70
0
  3
Border (2x) ____  ____  .  ____  ____  .  ___
 72
65
 73
6
 40
88.9000000000000057
 49
25.3999999999999986
 74
0
 49
-12.6999999999999993
 74
0
 49
25.3999999999999986
 74
0
 49
-12.6999999999999993
 74
0
 49
0.0
 74
0
 49
-12.6999999999999993
 74
0
  0
ENDTAB
  0
TABLE
  2
LAYER
  5
2
100
AcDbSymbolTable
 70
7
  0
LAYER
  5
10
100
AcDbSymbolTableRecord
100
AcDbLayerTableRecord
  2
0
 70
0
 62
7
  6
CONTINUOUS
370
0
390
F
  0
LAYER
  5
43
100
AcDbSymbolTableRecord
100
AcDbLayerTableRecord
  2
Bottom
 70
0
 62
7
  6
CONTINUOUS
370
0
390
F
  0
LAYER
  5
44
100
AcDbSymbolTableRecord
100
AcDbLayerTableRecord
  2
Top
 70
0
 62
7
  6
CONTINUOUS
370
0
390
F
  0
LAYER
  5
45
100
AcDbSymbolTableRecord
100
AcDbLayerTableRecord
  2
Top Text
 70
0
 62
4
  6
CONTINUOUS
370
0
390
F
  0
LAYER
  5
46
100
AcDbSymbolTableRecord
100
AcDbLayerTableRecord
  2
Bottom Text
 70
0
 62
4
  6
CONTINUOUS
370
0
390
F
  0
LAYER
  5
47
100
AcDbSymbolTableRecord
100
AcDbLayerTableRecord
  2
Drawings
 70
0
 62
5
  6
CONTINUOUS
370
0
390
F
  0
LAYER
  5
48
100
AcDbSymbolTableRecord
100
AcDbLayerTableRecord
  2
Notes
 70
0
 62
7
  6
CONTINUOUS
370
0
390
F
  0
ENDTAB
  0
TABLE
  2
STYLE
  5
3
100
AcDbSymbolTable
 70
1
  0
STYLE
  5
11
100
AcDbSymbolTableRecord
100
AcDbTextStyleTableRecord
  2
Standard
 70
0
 40
0.0
 41
0.75
 50
0.0
 71
0
 42
2.5
  3
txt
  4

  0
ENDTAB
  0
TABLE
  2
VIEW
  5
6
100
AcDbSymbolTable
 70
0
  0
ENDTAB
  0
TABLE
  2
UCS
  5
7
100
AcDbSymbolTable
 70
0
  0
ENDTAB
  0
TABLE
  2
APPID
  5
9
100
AcDbSymbolTable
 70
1
  0
APPID
  5
12
100
AcDbSymbolTableRecord
100
AcDbRegAppTableRecord
  2
ACAD
 70
0
  0
ENDTAB
  0
TABLE
  2
DIMSTYLE
  5
A
100
AcDbSymbolTable
 70
1
100
AcDbDimStyleTable
 71
0
  0
DIMSTYLE
105
27
100
AcDbSymbolTableRecord
100
AcDbDimStyleTableRecord
  2
Standard
 41
2.5
 42
0.625
 43
3.75
 44
1.25
 70
0
 73
0
 74
0
 77
1
 78
8
140
2.5
141
2.5
143
0.03937007874016
147
0.625
171
3
172
1
271
2
272
2
274
3
278
44
283
0
284
8
340
11
  0
ENDTAB
  0
TABLE
  2
BLOCK_RECORD
  5
1
100
AcDbSymbolTable
 70
1
  0
BLOCK_RECORD
  5
1F
100
AcDbSymbolTableRecord
100
AcDbBlockTableRecord
  2
*Model_Space
340
22
  0
BLOCK_RECORD
  5
1B
100
AcDbSymbolTableRecord
100
AcDbBlockTableRecord
  2
*Paper_Space
340
1E
  0
BLOCK_RECORD
  5
23
100
AcDbSymbolTableRecord
100
AcDbBlockTableRecord
  2
*Paper_Space0
340
26
  0
ENDTAB
  0
ENDSEC
  0
SECTION
  2
BLOCKS
  0
BLOCK
  5
20
100
AcDbEntity
  8
0
100
AcDbBlockBegin
  2
*Model_Space
 70
0
 10
0.0
 20
0.0
 30
0.0
  3
*Model_Space
  1

  0
ENDBLK
  5
21
100
AcDbEntity
  8
0
100
AcDbBlockEnd
  0
BLOCK
  5
1C
100
AcDbEntity
 67
1
  8
0
100
AcDbBlockBegin
  2
*Paper_Space
 70
0
 10
0.0
 20
0.0
 30
0.0
  3
*Paper_Space
  1

  0
ENDBLK
  5
1D
100
AcDbEntity
 67
1
  8
0
100
AcDbBlockEnd
  0
BLOCK
  5
24
100
AcDbEntity
  8
0
100
AcDbBlockBegin
  2
*Paper_Space0
 70
0
 10
0.0
 20
0.0
 30
0.0
  3
*Paper_Space0
  1

  0
ENDBLK
  5
25
100
AcDbEntity
  8
0
100
AcDbBlockEnd
  0
ENDSEC
  0
SECTION
  2
ENTITIES
  0
CIRCLE
  5
49
100
AcDbEntity
100
AcDbCircle
  8
Top
 62
256
370
-1
  6
ByLayer
 10
69.3232426244992865
 20
99.6070655601124884
 30
0.0
 40
1.425
  0
CIRCLE
  5
4A
100
AcDbEntity
100
AcDbCircle
  8
Top
 62
256
370
-1
  6
ByLayer
 10
97.5140212480765172
 20
89.3464612603424087
 30
0.0
 40
1.425
  0
CIRCLE
  5
4B
100
AcDbEntity
100
AcDbCircle
  8
Top
 62
256
370
-1
  6
ByLayer
 10
66.7011482906918474
 20
55.3157659194930531
 30
0.0
 40
1.425
  0
CIRCLE
  5
4C
100
AcDbEntity
100
AcDbCircle
  8
Top
 62
256
370
-1
  6
ByLayer
 10
82.7011482906917479
 20
55.3157659194930531
 30
0.0
 40
1.425
  0
CIRCLE
  5
4D
100
AcDbEntity
100
AcDbCircle
  8
Top
 62
256
370
-1
  6
ByLayer
 10
66.7011482906918189
 20
77.3157659194930602
 30
0.0
 40
1.425
  0
LINE
  5
4E
100
AcDbEntity
100
AcDbLine
  8
Top
 62
256
370
-1
  6
ByLayer
 10
84.7733914771253581
 20
67.4657659194930517
 30
0.0
 11
86.2456346635588886
 21
64.9157659194930545
 31
0.0
  0
LINE
  5
4F
100
AcDbEntity
100
AcDbLine
  8
Top
 62
256
370
-1
  6
ByLayer
 10
86.2456346635588886
 20
64.9157659194930545
 30
0.0
 11
84.7733914771253581
 21
62.3657659194930574
 31
0.0
  0
LINE
  5
50
100
AcDbEntity
100
AcDbLine
  8
Top
 62
256
370
-1
  6
ByLayer
 10
84.7733914771253581
 20
62.3657659194930574
 30
0.0
 11
81.82890510425824
 21
62.3657659194930432
 31
0.0
  0
LINE
  5
51
100
AcDbEntity
100
AcDbLine
  8
Top
 62
256
370
-1
  6
ByLayer
 10
81.82890510425824
 20
62.3657659194930432
 30
0.0
 11
80.356661917824681
 21
64.9157659194930403
 31
0.0
  0
LINE
  5
52
100
AcDbEntity
100
AcDbLine
  8
Top
 62
256
370
-1
  6
ByLayer
 10
80.356661917824681
 20
64.9157659194930403
 30
0.0
 11
81.82890510425824
 21
67.4657659194930517
 31
0.0
  0
LINE
  5
53
100
AcDbEntity
100
AcDbLine
  8
Top
 62
256
370
-1
  6
ByLayer
 10
81.82890510425824
 20
67.4657659194930517
 30
0.0
 11
84.7733914771253581
 21
67.4657659194930517
 31
0.0
  0
LINE
  5
54
100
AcDbEntity
100
AcDbLine
  8
Top
 62
256
370
-1
  6
ByLayer
 10
92.7733914771253296
 20
75.2657659194930488
 30
0.0
 11
94.2456346635588602
 21
72.7157659194930375
 31
0.0
  0
LINE
  5
55
100
AcDbEntity
100
AcDbLine
  8
Top
 62
256
370
-1
  6
ByLayer
 10
94.2456346635588602
 20
72.7157659194930375
 30
0.0
 11
92.7733914771253296
 21
70.1657659194931824
 31
0.0
  0
LINE
  5
56
100
AcDbEntity
100
AcDbLine
  8
Top
 62
256
370
-1
  6
ByLayer
 10
92.7733914771253296
 20
70.1657659194931824
 30
0.0
 11
89.8289051042582116
 21
70.1657659194932108
 31
0.0
  0
LINE
  5
57
100
AcDbEntity
100
AcDbLine
  8
Top
 62
256
370
-1
  6
ByLayer
 10
89.8289051042582116
 20
70.1657659194932108
 30
0.0
 11
88.3566619178247095
 21
72.7157659194930659
 31
0.0
  0
LINE
  5
58
100
AcDbEntity
100
AcDbLine
  8
Top
 62
256
370
-1
  6
ByLayer
 10
88.3566619178247095
 20
72.7157659194930659
 30
0.0
 11
89.82890510425824
 21
75.2657659194930488
 31
0.0
  0
LINE
  5
59
100
AcDbEntity
100
AcDbLine
  8
Top
 62
256
370
-1
  6
ByLayer
 10
89.82890510425824
 20
75.2657659194930488
 30
0.0
 11
92.7733914771253296
 21
75.2657659194930488
 31
0.0
  0
LINE
  5
5A
100
AcDbEntity
100
AcDbLine
  8
Top
 62
256
370
-1
  6
ByLayer
 10
92.7733914771253581
 20
67.4657659194930375
 30
0.0
 11
94.2456346635588602
 21
64.9157659194930687
 31
0.0
  0
LINE
  5
5B
100
AcDbEntity
100
AcDbLine
  8
Top
 62
256
370
-1
  6
ByLayer
 10
88.356661917824681
 20
64.9157659194930545
 30
0.0
 11
89.8289051042582685
 21
67.4657659194930659
 31
0.0
  0
LINE
  5
5C
100
AcDbEntity
100
AcDbLine
  8
Top
 62
256
370
-1
  6
ByLayer
 10
89.8289051042582685
 20
67.4657659194930659
 30
0.0
 11
92.7733914771253581
 21
67.4657659194930375
 31
0.0
  0
LINE
  5
5D
100
AcDbEntity
100
AcDbLine
  8
Top
 62
256
370
-1
  6
ByLayer
 10
81.3216184324870994
 20
75.2657659194930773
 30
0.0
 11
84.7733914771253296
 21
75.2657659194930488
 31
0.0
  0
LINE
  5
5E
100
AcDbEntity
100
AcDbLine
  8
Top
 62
256
370
-1
  6
ByLayer
 10
84.7733914771253296
 20
75.2657659194930488
 30
0.0
 11
86.2456346635588886
 21
72.7157659194930659
 31
0.0
  0
LINE
  5
5F
100
AcDbEntity
100
AcDbLine
  8
Top
 62
256
370
-1
  6
ByLayer
 10
86.2456346635588886
 20
72.7157659194930659
 30
0.0
 11
84.7733914771253296
 21
70.1657659194930545
 31
0.0
  0
LINE
  5
60
100
AcDbEntity
100
AcDbLine
  8
Top
 62
256
370
-1
  6
ByLayer
 10
84.7733914771253296
 20
70.1657659194930545
 30
0.0
 11
81.8289051042582116
 21
70.1657659194931398
 31
0.0
  0
LINE
  5
61
100
AcDbEntity
100
AcDbLine
  8
Top
 62
256
370
-1
  6
ByLayer
 10
81.8289051042582116
 20
70.1657659194931398
 30
0.0
 11
80.3792527420503404
 21
72.676637464149394
 31
0.0
  0
LINE
  5
62
100
AcDbEntity
100
AcDbLine
  8
Top
 62
256
370
-1
  6
ByLayer
 10
74.2656243448717248
 20
55.8795814919646006
 30
0.0
 11
80.3792527420503404
 21
72.676637464149394
 31
0.0
  0
LINE
  5
63
100
AcDbEntity
100
AcDbLine
  8
Top
 62
256
370
-1
  6
ByLayer
 10
65.9790557201175005
 20
58.2571391520938064
 30
0.0
 11
73.4965966864047857
 21
55.520978005488459
 31
0.0
  0
LINE
  5
64
100
AcDbEntity
100
AcDbLine
  8
Top
 62
256
370
-1
  6
ByLayer
 10
72.401423914430282
 20
108.0642991471856647
 30
0.0
 11
74.4535447743843122
 21
113.7024548719011534
 31
0.0
  0
LINE
  5
65
100
AcDbEntity
100
AcDbLine
  8
Top
 62
256
370
-1
  6
ByLayer
 10
72.5893624385874574
 20
107.9958951185205365
 30
0.0
 11
72.401423914430282
 21
108.0642991471856647
 31
0.0
  0
LINE
  5
66
100
AcDbEntity
100
AcDbLine
  8
Top
 62
256
370
-1
  6
ByLayer
 10
71.9903095237517334
 20
104.5957281218530568
 30
0.0
 11
72.9479659250636132
 21
107.2268674600535974
 31
0.0
  0
LINE
  5
67
100
AcDbEntity
100
AcDbLine
  8
Top
 62
256
370
-1
  6
ByLayer
 10
71.0333433411276189
 20
104.3055286640420434
 30
0.0
 11
71.2212818652848085
 21
104.237124635376901
 31
0.0
  0
LINE
  5
68
100
AcDbEntity
100
AcDbLine
  8
Top
 62
256
370
-1
  6
ByLayer
 10
70.5545151404716648
 20
102.9899589949417589
 30
0.0
 11
71.0333433411276189
 21
104.3055286640420434
 31
0.0
  0
LINE
  5
69
100
AcDbEntity
100
AcDbLine
  8
Top
 62
256
370
-1
  6
ByLayer
 10
65.2749629022323887
 20
104.2730521964288357
 30
0.0
 11
69.7854874820047257
 21
102.6313555084656315
 31
0.0
  0
LINE
  5
6A
100
AcDbEntity
100
AcDbLine
  8
Top
 62
256
370
-1
  6
ByLayer
 10
65.3951876164121728
 20
106.3576495239960593
 30
0.0
 11
64.9163594157562471
 21
105.0420798548957748
 31
0.0
  0
LINE
  5
6B
100
AcDbEntity
100
AcDbLine
  8
Top
 62
256
370
-1
  6
ByLayer
 10
65.2072490922549832
 20
106.4260535526611875
 30
0.0
 11
65.3951876164121728
 21
106.3576495239960593
 31
0.0
  0
LINE
  5
6C
100
AcDbEntity
100
AcDbLine
  8
Top
 62
256
370
-1
  6
ByLayer
 10
65.8063020070907214
 20
109.8262205493286814
 30
0.0
 11
64.8486456057788416
 21
107.1950812111281266
 31
0.0
  0
LINE
  5
6D
100
AcDbEntity
100
AcDbLine
  8
Top
 62
256
370
-1
  6
ByLayer
 10
66.7632681897148359
 20
110.1164200071396806
 30
0.0
 11
66.5753296655576605
 21
110.184824035804823
 31
0.0
  0
LINE
  5
6E
100
AcDbEntity
100
AcDbLine
  8
Top
 62
256
370
-1
  6
ByLayer
 10
68.8153890496688518
 20
115.7545757318551551
 30
0.0
 11
66.7632681897148359
 21
110.1164200071396806
 31
0.0
  0
LINE
  5
6F
100
AcDbEntity
100
AcDbLine
  8
Top
 62
256
370
-1
  6
ByLayer
 10
65.0566185665252306
 20
117.1226563051578182
 30
0.0
 11
68.8153890496688518
 21
115.7545757318551551
 31
0.0
  0
LINE
  5
70
100
AcDbEntity
100
AcDbLine
  8
Top
 62
256
370
-1
  6
ByLayer
 10
55.1288124199600702
 20
89.8462330927471982
 30
0.0
 11
65.0566185665252306
 21
117.1226563051578182
 31
0.0
  0
LINE
  5
71
100
AcDbEntity
100
AcDbLine
  8
Top
 62
256
370
-1
  6
ByLayer
 10
49.7011482906918189
 20
48.3157659194930744
 30
0.0
 11
49.7011482906918047
 21
59.0644201934370088
 31
0.0
  0
LINE
  5
72
100
AcDbEntity
100
AcDbLine
  8
Top
 62
256
370
-1
  6
ByLayer
 10
55.7011482906918047
 20
48.3157659194930602
 30
0.0
 11
49.7011482906918189
 21
48.3157659194930744
 31
0.0
  0
LINE
  5
73
100
AcDbEntity
100
AcDbLine
  8
Top
 62
256
370
-1
  6
ByLayer
 10
55.7011482906918047
 20
56.3157659194930744
 30
0.0
 11
55.7011482906918047
 21
48.3157659194930602
 31
0.0
  0
LINE
  5
74
100
AcDbEntity
100
AcDbLine
  8
Top
 62
256
370
-1
  6
ByLayer
 10
55.5011482906918019
 20
56.3157659194930815
 30
0.0
 11
55.7011482906918047
 21
56.3157659194930744
 31
0.0
  0
LINE
  5
75
100
AcDbEntity
100
AcDbLine
  8
Top
 62
256
370
-1
  6
ByLayer
 10
54.9011482906917792
 20
59.7157659194930801
 30
0.0
 11
54.9011482906917649
 21
56.9157659194930758
 31
0.0
  0
LINE
  5
76
100
AcDbEntity
100
AcDbLine
  8
Top
 62
256
370
-1
  6
ByLayer
 10
55.7011482906918189
 20
60.3157659194930815
 30
0.0
 11
55.5011482906917877
 21
60.3157659194930957
 31
0.0
  0
LINE
  5
77
100
AcDbEntity
100
AcDbLine
  8
Top
 62
256
370
-1
  6
ByLayer
 10
55.7011482906918189
 20
61.7157659194930659
 30
0.0
 11
55.7011482906918189
 21
60.3157659194930815
 31
0.0
  0
LINE
  5
78
100
AcDbEntity
100
AcDbLine
  8
Top
 62
256
370
-1
  6
ByLayer
 10
61.1011482906917962
 20
62.3157659194930531
 30
0.0
 11
56.301148290691799
 21
62.3157659194930744
 31
0.0
  0
LINE
  5
79
100
AcDbEntity
100
AcDbLine
  8
Top
 62
256
370
-1
  6
ByLayer
 10
61.7011482906917905
 20
60.3157659194930886
 30
0.0
 11
61.7011482906918474
 21
61.7157659194930446
 31
0.0
  0
LINE
  5
7A
100
AcDbEntity
100
AcDbLine
  8
Top
 62
256
370
-1
  6
ByLayer
 10
61.9011482906918218
 20
60.3157659194930957
 30
0.0
 11
61.7011482906917905
 21
60.3157659194930886
 31
0.0
  0
LINE
  5
7B
100
AcDbEntity
100
AcDbLine
  8
Top
 62
256
370
-1
  6
ByLayer
 10
62.5011482906918445
 20
56.9157659194930616
 30
0.0
 11
62.5011482906918303
 21
59.7157659194930588
 31
0.0
  0
LINE
  5
7C
100
AcDbEntity
100
AcDbLine
  8
Top
 62
256
370
-1
  6
ByLayer
 10
61.7011482906917905
 20
56.3157659194930673
 30
0.0
 11
61.9011482906917934
 21
56.3157659194930744
 31
0.0
  0
LINE
  5
7D
100
AcDbEntity
100
AcDbLine
  8
Top
 62
256
370
-1
  6
ByLayer
 10
61.7011482906918047
 20
48.3157659194930602
 30
0.0
 11
61.7011482906917905
 21
56.3157659194930673
 31
0.0
  0
LINE
  5
7E
100
AcDbEntity
100
AcDbLine
  8
Top
 62
256
370
-1
  6
ByLayer
 10
87.7011482906918616
 20
48.3157659194930602
 30
0.0
 11
61.7011482906918047
 21
48.3157659194930602
 31
0.0
  0
LINE
  5
7F
100
AcDbEntity
100
AcDbLine
  8
Top
 62
256
370
-1
  6
ByLayer
 10
87.7011482906918332
 20
56.3157659194930673
 30
0.0
 11
87.7011482906918616
 21
48.3157659194930602
 31
0.0
  0
LINE
  5
80
100
AcDbEntity
100
AcDbLine
  8
Top
 62
256
370
-1
  6
ByLayer
 10
87.5011482906918445
 20
56.3157659194930673
 30
0.0
 11
87.7011482906918332
 21
56.3157659194930673
 31
0.0
  0
LINE
  5
81
100
AcDbEntity
100
AcDbLine
  8
Top
 62
256
370
-1
  6
ByLayer
 10
86.9011482906917934
 20
59.7157659194930517
 30
0.0
 11
86.9011482906917934
 21
56.9157659194930616
 31
0.0
  0
LINE
  5
82
100
AcDbEntity
100
AcDbLine
  8
Top
 62
256
370
-1
  6
ByLayer
 10
87.7011482906918047
 20
60.3157659194930744
 30
0.0
 11
87.5011482906918161
 21
60.3157659194930673
 31
0.0
  0
LINE
  5
83
100
AcDbEntity
100
AcDbLine
  8
Top
 62
256
370
-1
  6
ByLayer
 10
87.7011482906918332
 20
61.7157659194930517
 30
0.0
 11
87.7011482906918047
 21
60.3157659194930744
 31
0.0
  0
LINE
  5
84
100
AcDbEntity
100
AcDbLine
  8
Top
 62
256
370
-1
  6
ByLayer
 10
93.7011482906917763
 20
60.3157659194930531
 30
0.0
 11
93.7011482906918047
 21
61.7157659194930162
 31
0.0
  0
LINE
  5
85
100
AcDbEntity
100
AcDbLine
  8
Top
 62
256
370
-1
  6
ByLayer
 10
93.9011482906918218
 20
60.3157659194930602
 30
0.0
 11
93.7011482906917763
 21
60.3157659194930531
 31
0.0
  0
LINE
  5
86
100
AcDbEntity
100
AcDbLine
  8
Top
 62
256
370
-1
  6
ByLayer
 10
94.5011482906917877
 20
56.9157659194930687
 30
0.0
 11
94.5011482906918161
 21
59.7157659194930872
 31
0.0
  0
LINE
  5
87
100
AcDbEntity
100
AcDbLine
  8
Top
 62
256
370
-1
  6
ByLayer
 10
93.7011482906918332
 20
56.3157659194930744
 30
0.0
 11
93.9011482906917934
 21
56.3157659194930602
 31
0.0
  0
LINE
  5
88
100
AcDbEntity
100
AcDbLine
  8
Top
 62
256
370
-1
  6
ByLayer
 10
93.7011482906918047
 20
48.315765919493046
 30
0.0
 11
93.7011482906918332
 21
56.3157659194930744
 31
0.0
  0
LINE
  5
89
100
AcDbEntity
100
AcDbLine
  8
Top
 62
256
370
-1
  6
ByLayer
 10
99.7011482906917763
 20
48.3157659194930034
 30
0.0
 11
93.7011482906918047
 21
48.315765919493046
 31
0.0
  0
LINE
  5
8A
100
AcDbEntity
100
AcDbLine
  8
Top
 62
256
370
-1
  6
ByLayer
 10
99.7011482906917763
 20
50.2480711580137864
 30
0.0
 11
99.7011482906917763
 21
48.3157659194930034
 31
0.0
  0
LINE
  5
8B
100
AcDbEntity
100
AcDbLine
  8
Top
 62
256
370
-1
  6
ByLayer
 10
106.2303582627230014
 20
95.7515739874615974
 30
0.0
 11
108.2824791226769889
 21
101.3897297121770293
 31
0.0
  0
LINE
  5
8C
100
AcDbEntity
100
AcDbLine
  8
Top
 62
256
370
-1
  6
ByLayer
 10
106.4182967868802052
 20
95.6831699587964408
 30
0.0
 11
106.2303582627230014
 21
95.7515739874615974
 31
0.0
  0
LINE
  5
8D
100
AcDbEntity
100
AcDbLine
  8
Top
 62
256
370
-1
  6
ByLayer
 10
105.8192438720444102
 20
92.2830029621289469
 30
0.0
 11
106.77690027335629
 21
94.9141423003295017
 31
0.0
  0
LINE
  5
8E
100
AcDbEntity
100
AcDbLine
  8
Top
 62
256
370
-1
  6
ByLayer
 10
104.8622776894202957
 20
91.9928035043179619
 30
0.0
 11
105.0502162135774995
 21
91.9243994756528338
 31
0.0
  0
LINE
  5
8F
100
AcDbEntity
100
AcDbLine
  8
Top
 62
256
370
-1
  6
ByLayer
 10
104.3834494887642848
 20
90.6772338352176632
 30
0.0
 11
104.8622776894202957
 21
91.9928035043179619
 31
0.0
  0
LINE
  5
90
100
AcDbEntity
100
AcDbLine
  8
Top
 62
256
370
-1
  6
ByLayer
 10
99.1038972505251081
 20
91.9603270367047685
 30
0.0
 11
103.6144218302973741
 21
90.3186303487415216
 31
0.0
  0
LINE
  5
91
100
AcDbEntity
100
AcDbLine
  8
Top
 62
256
370
-1
  6
ByLayer
 10
99.2241219647048638
 20
94.0449243642719495
 30
0.0
 11
98.7452937640489097
 21
92.7293546951716792
 31
0.0
  0
LINE
  5
92
100
AcDbEntity
100
AcDbLine
  8
Top
 62
256
370
-1
  6
ByLayer
 10
99.0361834405476884
 20
94.1133283929371061
 30
0.0
 11
99.2241219647048638
 21
94.0449243642719495
 31
0.0
  0
LINE
  5
93
100
AcDbEntity
100
AcDbLine
  8
Top
 62
256
370
-1
  6
ByLayer
 10
99.6352363553834266
 20
97.5134953896045999
 30
0.0
 11
98.6775799540715752
 21
94.8823560514040452
 31
0.0
  0
LINE
  5
94
100
AcDbEntity
100
AcDbLine
  8
Top
 62
256
370
-1
  6
ByLayer
 10
100.5922025380075979
 20
97.8036948474156134
 30
0.0
 11
100.4042640138503089
 21
97.8720988760807415
 31
0.0
  0
LINE
  5
95
100
AcDbEntity
100
AcDbLine
  8
Top
 62
256
370
-1
  6
ByLayer
 10
102.6443233979615854
 20
103.4418505721310595
 30
0.0
 11
100.5922025380075979
 21
97.8036948474156134
 31
0.0
  0
ARC
  5
96
100
AcDbEntity
  8
Top
 62
256
370
-1
  6
ByLayer
100
AcDbCircle
 10
73.7018087724001703
 20
56.0847935779600064
 30
0.0
 40
0.599999999999996
100
AcDbArc
 50
250.0000000000001137
 51
340.0000000000002842
  0
ARC
  5
97
100
AcDbEntity
  8
Top
 62
256
370
-1
  6
ByLayer
100
AcDbCircle
 10
66.1842678061128851
 20
58.820954724565361
 30
0.0
 40
0.5999999999999983
100
AcDbArc
 50
159.9999999999998863
 51
250.0000000000001705
  0
ARC
  5
98
100
AcDbEntity
  8
Top
 62
256
370
-1
  6
ByLayer
100
AcDbCircle
 10
72.3841503525920587
 20
107.4320795460489819
 30
0.0
 40
0.600000000000012
100
AcDbArc
 50
340.0000000000014779
 51
69.9999999999995879
  0
ARC
  5
99
100
AcDbEntity
  8
Top
 62
256
370
-1
  6
ByLayer
100
AcDbCircle
 10
71.4264939512802073
 20
104.8009402078484271
 30
0.0
 40
0.5999999999999749
100
AcDbArc
 50
249.99999999999838
 51
340.0000000000022737
  0
ARC
  5
9A
100
AcDbEntity
  8
Top
 62
256
370
-1
  6
ByLayer
100
AcDbCircle
 10
69.9906995680001671
 20
103.1951710809371434
 30
0.0
 40
0.5999999999999921
100
AcDbArc
 50
249.9999999999991189
 51
340.0000000000009095
  0
ARC
  5
9B
100
AcDbEntity
  8
Top
 62
256
370
-1
  6
ByLayer
100
AcDbCircle
 10
65.4801749882277875
 20
104.8368677689003619
 30
0.0
 40
0.5999999999999996
100
AcDbArc
 50
160.0000000000001137
 51
249.9999999999993179
  0
ARC
  5
9C
100
AcDbEntity
  8
Top
 62
256
370
-1
  6
ByLayer
100
AcDbCircle
 10
65.4124611782503962
 20
106.9898691251327278
 30
0.0
 40
0.5999999999999986
100
AcDbArc
 50
160.0000000000001137
 51
249.9999999999993179
  0
ARC
  5
9D
100
AcDbEntity
  8
Top
 62
256
370
-1
  6
ByLayer
100
AcDbCircle
 10
66.370117579562276
 20
109.6210084633332684
 30
0.0
 40
0.6000000000000139
100
AcDbArc
 50
70.0000000000007105
 51
159.9999999999988063
  0
ARC
  5
9E
100
AcDbEntity
  8
Top
 62
256
370
-1
  6
ByLayer
100
AcDbCircle
 10
55.5011482906917877
 20
56.9157659194930616
 30
0.0
 40
0.5999999999999984
100
AcDbArc
 50
180.0
 51
270.0000000000007958
  0
ARC
  5
9F
100
AcDbEntity
  8
Top
 62
256
370
-1
  6
ByLayer
100
AcDbCircle
 10
55.5011482906918161
 20
59.715765919493073
 30
0.0
 40
0.6000000000000006
100
AcDbArc
 50
90.0000000000017053
 51
180.0
  0
ARC
  5
A0
100
AcDbEntity
  8
Top
 62
256
370
-1
  6
ByLayer
100
AcDbCircle
 10
56.3011482906918417
 20
61.715765919493073
 30
0.0
 40
0.6000000000000028
100
AcDbArc
 50
90.0
 51
180.0
  0
ARC
  5
A1
100
AcDbEntity
  8
Top
 62
256
370
-1
  6
ByLayer
100
AcDbCircle
 10
61.1011482906917962
 20
61.7157659194930446
 30
0.0
 40
0.6000000000000028
100
AcDbArc
 50
0.0
 51
89.9999999999991616
  0
ARC
  5
A2
100
AcDbEntity
  8
Top
 62
256
370
-1
  6
ByLayer
100
AcDbCircle
 10
61.9011482906917934
 20
59.7157659194930801
 30
0.0
 40
0.5999999999999939
100
AcDbArc
 50
0.0
 51
90.0
  0
ARC
  5
A3
100
AcDbEntity
  8
Top
 62
256
370
-1
  6
ByLayer
100
AcDbCircle
 10
61.901148290691836
 20
56.9157659194930687
 30
0.0
 40
0.5999999999999984
100
AcDbArc
 50
269.9999999999992042
 51
0.0
  0
ARC
  5
A4
100
AcDbEntity
  8
Top
 62
256
370
-1
  6
ByLayer
100
AcDbCircle
 10
87.5011482906918161
 20
56.9157659194930758
 30
0.0
 40
0.5999999999999984
100
AcDbArc
 50
180.0
 51
270.0000000000017053
  0
ARC
  5
A5
100
AcDbEntity
  8
Top
 62
256
370
-1
  6
ByLayer
100
AcDbCircle
 10
87.5011482906918445
 20
59.7157659194930659
 30
0.0
 40
0.6000000000000006
100
AcDbArc
 50
90.0000000000017053
 51
180.0
  0
ARC
  5
A6
100
AcDbEntity
  8
Top
 62
256
370
-1
  6
ByLayer
100
AcDbCircle
 10
88.3011482906918275
 20
61.7157659194930801
 30
0.0
 40
0.6000000000000028
100
AcDbArc
 50
90.0
 51
180.0
  0
ARC
  5
A7
100
AcDbEntity
  8
Top
 62
256
370
-1
  6
ByLayer
100
AcDbCircle
 10
93.1011482906918104
 20
61.7157659194930375
 30
0.0
 40
0.6000000000000028
100
AcDbArc
 50
0.0
 51
89.9999999999983089
  0
ARC
  5
A8
100
AcDbEntity
  8
Top
 62
256
370
-1
  6
ByLayer
100
AcDbCircle
 10
93.9011482906918218
 20
59.7157659194930943
 30
0.0
 40
0.5999999999999939
100
AcDbArc
 50
0.0
 51
90.0
  0
ARC
  5
A9
100
AcDbEntity
  8
Top
 62
256
370
-1
  6
ByLayer
100
AcDbCircle
 10
93.9011482906917649
 20
56.9157659194930403
 30
0.0
 40
0.5999999999999984
100
AcDbArc
 50
269.9999999999982947
 51
0.0
  0
ARC
  5
AA
100
AcDbEntity
  8
Top
 62
256
370
-1
  6
ByLayer
100
AcDbCircle
 10
106.2130847008847923
 20
95.1193543863249147
 30
0.0
 40
0.5999999999999881
100
AcDbArc
 50
339.9999999999998863
 51
70.0000000000014353
  0
ARC
  5
AB
100
AcDbEntity
  8
Top
 62
256
370
-1
  6
ByLayer
100
AcDbCircle
 10
105.255428299572884
 20
92.4882150481243741
 30
0.0
 40
0.5999999999999842
100
AcDbArc
 50
249.9999999999978968
 51
340.0000000000001137
  0
ARC
  5
AC
100
AcDbEntity
  8
Top
 62
256
370
-1
  6
ByLayer
100
AcDbCircle
 10
103.819633916292787
 20
90.8824459212130762
 30
0.0
 40
0.6000000000000063
100
AcDbArc
 50
250.0000000000003695
 51
339.9999999999996021
  0
ARC
  5
AD
100
AcDbEntity
  8
Top
 62
256
370
-1
  6
ByLayer
100
AcDbCircle
 10
99.3091093365204927
 20
92.5241426091762946
 30
0.0
 40
0.5999999999999976
100
AcDbArc
 50
160.0000000000011937
 51
250.0000000000003695
  0
ARC
  5
AE
100
AcDbEntity
  8
Top
 62
256
370
-1
  6
ByLayer
100
AcDbCircle
 10
99.2413955265431014
 20
94.6771439654086464
 30
0.0
 40
0.5999999999999954
100
AcDbArc
 50
159.9999999999990052
 51
250.0000000000001137
  0
ARC
  5
AF
100
AcDbEntity
  8
Top
 62
256
370
-1
  6
ByLayer
100
AcDbCircle
 10
100.1990519278550096
 20
97.3082833036091728
 30
0.0
 40
0.6000000000000253
100
AcDbArc
 50
70.0000000000028848
 51
159.9999999999994031
  0
ARC
  5
B0
100
AcDbEntity
  8
Top
 62
256
370
-1
  6
ByLayer
100
AcDbCircle
 10
139.7011482906912079
 20
59.0644201934371935
 30
0.0
 40
89.9999999999993463
100
AcDbArc
 50
159.9999999999998863
 51
180.0
  0
ARC
  5
B1
100
AcDbEntity
  8
Top
 62
256
370
-1
  6
ByLayer
100
AcDbCircle
 10
189.7011482906914637
 20
50.2480711580138006
 30
0.0
 40
89.9999999999996447
100
AcDbArc
 50
159.9999999999998863
 51
180.0
  0
MTEXT
  5
B2
100
AcDbEntity
100
AcDbMText
  8
Notes
 62
256
370
-1
  6
ByLayer
 10
60.0
 20
150.0
 30
0.0
 40
3.0
 41
100.0
 71
1
 72
2
  1
Main\~Plate\PTop\~Layer:\~3/16"\~or\~4mm\~acrylic\PBottom\~Layer:\~3/16"\~or\~4mm\~acrylic
  7
standard
 50
0.0
 73
0
 44
1.0
  0
LINE
  5
B3
100
AcDbEntity
100
AcDbLine
  8
Top
 62
256
370
-1
  6
ByLayer
 10
84.2263480305577161
 20
110.1454453813141328
 30
0.0
 11
65.6204522336413874
 21
59.026166810560774
 31
0.0
  0
LINE
  5
B4
100
AcDbEntity
100
AcDbLine
  8
Top
 62
256
370
-1
  6
ByLayer
 10
74.4535447743843122
 20
113.7024548719011534
 30
0.0
 11
84.2263480305577161
 21
110.1454453813141328
 31
0.0
  0
LINE
  5
B5
100
AcDbEntity
100
AcDbLine
  8
Top
 62
256
370
-1
  6
ByLayer
 10
92.8715201417880962
 20
106.9988600627179665
 30
0.0
 11
102.6443233979615854
 21
103.4418505721310595
 31
0.0
  0
LINE
  5
B6
100
AcDbEntity
100
AcDbLine
  8
Top
 62
256
370
-1
  6
ByLayer
 10
81.3216184324870994
 20
75.2657659194930773
 30
0.0
 11
92.8715201417880962
 21
106.9988600627179665
 31
0.0
  0
LINE
  5
B7
100
AcDbEntity
100
AcDbLine
  8
Top
 62
256
370
-1
  6
ByLayer
 10
112.0412496058205818
 20
100.0216491388743663
 30
0.0
 11
105.1288124199599849
 21
81.0298840573239545
 31
0.0
  0
LINE
  5
B8
100
AcDbEntity
100
AcDbLine
  8
Top
 62
256
370
-1
  6
ByLayer
 10
108.2824791226769889
 20
101.3897297121770293
 30
0.0
 11
112.0412496058205818
 21
100.0216491388743663
 31
0.0
  0
LINE
  5
B9
100
AcDbEntity
100
AcDbLine
  8
Top
 62
256
370
-1
  6
ByLayer
 10
94.2456346635588602
 20
64.9157659194930687
 30
0.0
 11
92.7445239636658414
 21
62.3157659194930105
 31
0.0
  0
LINE
  5
BA
100
AcDbEntity
100
AcDbLine
  8
Top
 62
256
370
-1
  6
ByLayer
 10
89.8577726177177283
 20
62.3157659194930389
 30
0.0
 11
88.356661917824681
 21
64.9157659194930545
 31
0.0
  0
LINE
  5
BB
100
AcDbEntity
100
AcDbLine
  8
Top
 62
256
370
-1
  6
ByLayer
 10
89.8577726177177283
 20
62.3157659194930389
 30
0.0
 11
88.301148290691799
 21
62.3157659194930602
 31
0.0
  0
LINE
  5
BC
100
AcDbEntity
100
AcDbLine
  8
Notes
 62
256
370
-1
  6
ByLayer
 10
92.7445239636658414
 20
62.3157659194930105
 30
0.0
 11
93.1011482906918246
 21
62.3157659194930389
 31
0.0
  0
CIRCLE
  5
BD
100
AcDbEntity
100
AcDbCircle
  8
Bottom
 62
256
370
-1
  6
ByLayer
 10
69.3232426244992723
 20
99.6070655601124884
 30
0.0
 40
1.425
  0
CIRCLE
  5
BE
100
AcDbEntity
100
AcDbCircle
  8
Bottom
 62
256
370
-1
  6
ByLayer
 10
97.5140212480765456
 20
89.3464612603424229
 30
0.0
 40
1.425
  0
CIRCLE
  5
BF
100
AcDbEntity
100
AcDbCircle
  8
Bottom
 62
256
370
-1
  6
ByLayer
 10
66.7011482906918332
 20
55.3157659194930602
 30
0.0
 40
1.425
  0
CIRCLE
  5
C0
100
AcDbEntity
100
AcDbCircle
  8
Bottom
 62
256
370
-1
  6
ByLayer
 10
82.7011482906917763
 20
55.3157659194930531
 30
0.0
 40
1.425
  0
CIRCLE
  5
C1
100
AcDbEntity
100
AcDbCircle
  8
Bottom
 62
256
370
-1
  6
ByLayer
 10
66.7011482906918332
 20
77.3157659194930602
 30
0.0
 40
1.425
  0
LINE
  5
C2
100
AcDbEntity
100
AcDbLine
  8
Bottom
 62
256
370
-1
  6
ByLayer
 10
84.7733914771253438
 20
67.4657659194930375
 30
0.0
 11
86.2456346635588886
 21
64.9157659194930545
 31
0.0
  0
LINE
  5
C3
100
AcDbEntity
100
AcDbLine
  8
Bottom
 62
256
370
-1
  6
ByLayer
 10
86.2456346635588886
 20
64.9157659194930545
 30
0.0
 11
84.7733914771253438
 21
62.3657659194930574
 31
0.0
  0
LINE
  5
C4
100
AcDbEntity
100
AcDbLine
  8
Bottom
 62
256
370
-1
  6
ByLayer
 10
84.7733914771253438
 20
62.3657659194930574
 30
0.0
 11
81.8289051042582543
 21
62.3657659194930432
 31
0.0
  0
LINE
  5
C5
100
AcDbEntity
100
AcDbLine
  8
Bottom
 62
256
370
-1
  6
ByLayer
 10
81.8289051042582543
 20
62.3657659194930432
 30
0.0
 11
80.3566619178247095
 21
64.9157659194930545
 31
0.0
  0
LINE
  5
C6
100
AcDbEntity
100
AcDbLine
  8
Bottom
 62
256
370
-1
  6
ByLayer
 10
80.3566619178247095
 20
64.9157659194930545
 30
0.0
 11
81.82890510425824
 21
67.4657659194930517
 31
0.0
  0
LINE
  5
C7
100
AcDbEntity
100
AcDbLine
  8
Bottom
 62
256
370
-1
  6
ByLayer
 10
81.82890510425824
 20
67.4657659194930517
 30
0.0
 11
84.7733914771253438
 21
67.4657659194930375
 31
0.0
  0
LINE
  5
C8
100
AcDbEntity
100
AcDbLine
  8
Bottom
 62
256
370
-1
  6
ByLayer
 10
92.7733914771253296
 20
75.2657659194930488
 30
0.0
 11
94.2456346635588886
 21
72.7157659194930517
 31
0.0
  0
LINE
  5
C9
100
AcDbEntity
100
AcDbLine
  8
Bottom
 62
256
370
-1
  6
ByLayer
 10
94.2456346635588886
 20
72.7157659194930517
 30
0.0
 11
92.7733914771253581
 21
70.1657659194931966
 31
0.0
  0
LINE
  5
CA
100
AcDbEntity
100
AcDbLine
  8
Bottom
 62
256
370
-1
  6
ByLayer
 10
92.7733914771253581
 20
70.1657659194931966
 30
0.0
 11
89.8289051042582543
 21
70.1657659194932251
 31
0.0
  0
LINE
  5
CB
100
AcDbEntity
100
AcDbLine
  8
Bottom
 62
256
370
-1
  6
ByLayer
 10
89.8289051042582543
 20
70.1657659194932251
 30
0.0
 11
88.3566619178246953
 21
72.7157659194930659
 31
0.0
  0
LINE
  5
CC
100
AcDbEntity
100
AcDbLine
  8
Bottom
 62
256
370
-1
  6
ByLayer
 10
88.3566619178246953
 20
72.7157659194930659
 30
0.0
 11
89.8289051042582543
 21
75.2657659194930488
 31
0.0
  0
LINE
  5
CD
100
AcDbEntity
100
AcDbLine
  8
Bottom
 62
256
370
-1
  6
ByLayer
 10
89.8289051042582543
 20
75.2657659194930488
 30
0.0
 11
92.7733914771253296
 21
75.2657659194930488
 31
0.0
  0
LINE
  5
CE
100
AcDbEntity
100
AcDbLine
  8
Bottom
 62
256
370
-1
  6
ByLayer
 10
92.7733914771253581
 20
67.4657659194930375
 30
0.0
 11
94.2456346635588886
 21
64.9157659194930829
 31
0.0
  0
LINE
  5
CF
100
AcDbEntity
100
AcDbLine
  8
Bottom
 62
256
370
-1
  6
ByLayer
 10
88.3566619178246953
 20
64.9157659194930545
 30
0.0
 11
89.8289051042582543
 21
67.4657659194930659
 31
0.0
  0
LINE
  5
D0
100
AcDbEntity
100
AcDbLine
  8
Bottom
 62
256
370
-1
  6
ByLayer
 10
89.8289051042582543
 20
67.4657659194930659
 30
0.0
 11
92.7733914771253581
 21
67.4657659194930375
 31
0.0
  0
LINE
  5
D1
100
AcDbEntity
100
AcDbLine
  8
Bottom
 62
256
370
-1
  6
ByLayer
 10
81.3216184324870852
 20
75.2657659194930631
 30
0.0
 11
84.7733914771253438
 21
75.2657659194930631
 31
0.0
  0
LINE
  5
D2
100
AcDbEntity
100
AcDbLine
  8
Bottom
 62
256
370
-1
  6
ByLayer
 10
84.7733914771253438
 20
75.2657659194930631
 30
0.0
 11
86.2456346635588886
 21
72.7157659194930659
 31
0.0
  0
LINE
  5
D3
100
AcDbEntity
100
AcDbLine
  8
Bottom
 62
256
370
-1
  6
ByLayer
 10
86.2456346635588886
 20
72.7157659194930659
 30
0.0
 11
84.7733914771253438
 21
70.1657659194930545
 31
0.0
  0
LINE
  5
D4
100
AcDbEntity
100
AcDbLine
  8
Bottom
 62
256
370
-1
  6
ByLayer
 10
84.7733914771253438
 20
70.1657659194930545
 30
0.0
 11
81.82890510425824
 21
70.1657659194931398
 31
0.0
  0
LINE
  5
D5
100
AcDbEntity
100
AcDbLine
  8
Bottom
 62
256
370
-1
  6
ByLayer
 10
81.82890510425824
 20
70.1657659194931398
 30
0.0
 11
80.3792527420503546
 21
72.676637464149394
 31
0.0
  0
LINE
  5
D6
100
AcDbEntity
100
AcDbLine
  8
Bottom
 62
256
370
-1
  6
ByLayer
 10
74.2656243448717248
 20
55.8795814919646006
 30
0.0
 11
80.3792527420503546
 21
72.676637464149394
 31
0.0
  0
LINE
  5
D7
100
AcDbEntity
100
AcDbLine
  8
Bottom
 62
256
370
-1
  6
ByLayer
 10
65.9790557201175289
 20
58.2571391520938135
 30
0.0
 11
73.4965966864047857
 21
55.520978005488459
 31
0.0
  0
LINE
  5
D8
100
AcDbEntity
100
AcDbLine
  8
Bottom
 62
256
370
-1
  6
ByLayer
 10
72.5893624385874716
 20
107.9958951185205365
 30
0.0
 11
72.401423914430282
 21
108.0642991471856647
 31
0.0
  0
LINE
  5
D9
100
AcDbEntity
100
AcDbLine
  8
Bottom
 62
256
370
-1
  6
ByLayer
 10
71.9903095237517334
 20
104.5957281218530568
 30
0.0
 11
72.9479659250636132
 21
107.2268674600535974
 31
0.0
  0
LINE
  5
DA
100
AcDbEntity
100
AcDbLine
  8
Bottom
 62
256
370
-1
  6
ByLayer
 10
71.0333433411276189
 20
104.3055286640420434
 30
0.0
 11
71.2212818652848085
 21
104.237124635376901
 31
0.0
  0
LINE
  5
DB
100
AcDbEntity
100
AcDbLine
  8
Bottom
 62
256
370
-1
  6
ByLayer
 10
70.554515140471679
 20
102.9899589949417589
 30
0.0
 11
71.0333433411276189
 21
104.3055286640420434
 31
0.0
  0
LINE
  5
DC
100
AcDbEntity
100
AcDbLine
  8
Bottom
 62
256
370
-1
  6
ByLayer
 10
65.2749629022323887
 20
104.2730521964288357
 30
0.0
 11
69.7854874820047257
 21
102.6313555084656315
 31
0.0
  0
LINE
  5
DD
100
AcDbEntity
100
AcDbLine
  8
Bottom
 62
256
370
-1
  6
ByLayer
 10
65.3951876164121728
 20
106.3576495239960593
 30
0.0
 11
64.9163594157562471
 21
105.0420798548957748
 31
0.0
  0
LINE
  5
DE
100
AcDbEntity
100
AcDbLine
  8
Bottom
 62
256
370
-1
  6
ByLayer
 10
65.2072490922549832
 20
106.4260535526611875
 30
0.0
 11
65.3951876164121728
 21
106.3576495239960593
 31
0.0
  0
LINE
  5
DF
100
AcDbEntity
100
AcDbLine
  8
Bottom
 62
256
370
-1
  6
ByLayer
 10
65.8063020070907214
 20
109.8262205493286814
 30
0.0
 11
64.8486456057788416
 21
107.1950812111281266
 31
0.0
  0
LINE
  5
E0
100
AcDbEntity
100
AcDbLine
  8
Bottom
 62
256
370
-1
  6
ByLayer
 10
66.7632681897148359
 20
110.1164200071396806
 30
0.0
 11
66.5753296655576605
 21
110.184824035804823
 31
0.0
  0
LINE
  5
E1
100
AcDbEntity
100
AcDbLine
  8
Bottom
 62
256
370
-1
  6
ByLayer
 10
65.0566185665252306
 20
117.1226563051578182
 30
0.0
 11
68.8153890496688518
 21
115.7545757318551551
 31
0.0
  0
LINE
  5
E2
100
AcDbEntity
100
AcDbLine
  8
Bottom
 62
256
370
-1
  6
ByLayer
 10
55.1288124199600702
 20
89.8462330927471982
 30
0.0
 11
65.0566185665252306
 21
117.1226563051578182
 31
0.0
  0
LINE
  5
E3
100
AcDbEntity
100
AcDbLine
  8
Bottom
 62
256
370
-1
  6
ByLayer
 10
49.701148290691826
 20
48.3157659194930602
 30
0.0
 11
49.7011482906918332
 21
59.0644201934370017
 31
0.0
  0
LINE
  5
E4
100
AcDbEntity
100
AcDbLine
  8
Bottom
 62
256
370
-1
  6
ByLayer
 10
55.7011482906918047
 20
48.3157659194930602
 30
0.0
 11
49.701148290691826
 21
48.3157659194930602
 31
0.0
  0
LINE
  5
E5
100
AcDbEntity
100
AcDbLine
  8
Bottom
 62
256
370
-1
  6
ByLayer
 10
55.5011482906918303
 20
56.3157659194930744
 30
0.0
 11
55.7011482906918189
 21
56.3157659194930744
 31
0.0
  0
LINE
  5
E6
100
AcDbEntity
100
AcDbLine
  8
Bottom
 62
256
370
-1
  6
ByLayer
 10
54.9011482906918076
 20
59.715765919493073
 30
0.0
 11
54.9011482906918076
 21
56.9157659194930687
 31
0.0
  0
LINE
  5
E7
100
AcDbEntity
100
AcDbLine
  8
Bottom
 62
256
370
-1
  6
ByLayer
 10
55.7011482906918189
 20
60.3157659194930815
 30
0.0
 11
55.5011482906918019
 21
60.3157659194930886
 31
0.0
  0
LINE
  5
E8
100
AcDbEntity
100
AcDbLine
  8
Bottom
 62
256
370
-1
  6
ByLayer
 10
55.7011482906918189
 20
61.7157659194930659
 30
0.0
 11
55.7011482906918189
 21
60.3157659194930815
 31
0.0
  0
LINE
  5
E9
100
AcDbEntity
100
AcDbLine
  8
Bottom
 62
256
370
-1
  6
ByLayer
 10
61.1011482906918104
 20
62.315765919493046
 30
0.0
 11
56.3011482906918204
 21
62.3157659194930744
 31
0.0
  0
LINE
  5
EA
100
AcDbEntity
100
AcDbLine
  8
Bottom
 62
256
370
-1
  6
ByLayer
 10
61.7011482906918189
 20
60.3157659194930815
 30
0.0
 11
61.7011482906918189
 21
61.7157659194930446
 31
0.0
  0
LINE
  5
EB
100
AcDbEntity
100
AcDbLine
  8
Bottom
 62
256
370
-1
  6
ByLayer
 10
61.901148290691836
 20
60.3157659194930886
 30
0.0
 11
61.7011482906918189
 21
60.3157659194930815
 31
0.0
  0
LINE
  5
EC
100
AcDbEntity
100
AcDbLine
  8
Bottom
 62
256
370
-1
  6
ByLayer
 10
62.5011482906918374
 20
56.9157659194930687
 30
0.0
 11
62.5011482906918232
 21
59.7157659194930659
 31
0.0
  0
LINE
  5
ED
100
AcDbEntity
100
AcDbLine
  8
Bottom
 62
256
370
-1
  6
ByLayer
 10
61.7011482906918189
 20
56.3157659194930673
 30
0.0
 11
61.9011482906918005
 21
56.3157659194930744
 31
0.0
  0
LINE
  5
EE
100
AcDbEntity
100
AcDbLine
  8
Bottom
 62
256
370
-1
  6
ByLayer
 10
87.7011482906918332
 20
48.3157659194930602
 30
0.0
 11
61.7011482906918047
 21
48.3157659194930602
 31
0.0
  0
LINE
  5
EF
100
AcDbEntity
100
AcDbLine
  8
Bottom
 62
256
370
-1
  6
ByLayer
 10
87.5011482906918303
 20
56.3157659194930673
 30
0.0
 11
87.7011482906918332
 21
56.3157659194930744
 31
0.0
  0
LINE
  5
F0
100
AcDbEntity
100
AcDbLine
  8
Bottom
 62
256
370
-1
  6
ByLayer
 10
86.9011482906918218
 20
59.7157659194930659
 30
0.0
 11
86.9011482906918218
 21
56.9157659194930687
 31
0.0
  0
LINE
  5
F1
100
AcDbEntity
100
AcDbLine
  8
Bottom
 62
256
370
-1
  6
ByLayer
 10
87.7011482906918332
 20
60.3157659194930815
 30
0.0
 11
87.5011482906918161
 21
60.3157659194930673
 31
0.0
  0
LINE
  5
F2
100
AcDbEntity
100
AcDbLine
  8
Bottom
 62
256
370
-1
  6
ByLayer
 10
87.7011482906918332
 20
61.7157659194930517
 30
0.0
 11
87.7011482906918332
 21
60.3157659194930815
 31
0.0
  0
LINE
  5
F3
100
AcDbEntity
100
AcDbLine
  8
Bottom
 62
256
370
-1
  6
ByLayer
 10
93.7011482906918189
 20
60.3157659194930744
 30
0.0
 11
93.7011482906918047
 21
61.7157659194930233
 31
0.0
  0
LINE
  5
F4
100
AcDbEntity
100
AcDbLine
  8
Bottom
 62
256
370
-1
  6
ByLayer
 10
93.9011482906918218
 20
60.3157659194930673
 30
0.0
 11
93.7011482906918189
 21
60.3157659194930744
 31
0.0
  0
LINE
  5
F5
100
AcDbEntity
100
AcDbLine
  8
Bottom
 62
256
370
-1
  6
ByLayer
 10
94.5011482906918161
 20
56.9157659194930687
 30
0.0
 11
94.5011482906918161
 21
59.7157659194930801
 31
0.0
  0
LINE
  5
F6
100
AcDbEntity
100
AcDbLine
  8
Bottom
 62
256
370
-1
  6
ByLayer
 10
93.7011482906918189
 20
56.3157659194930744
 30
0.0
 11
93.9011482906917934
 21
56.3157659194930602
 31
0.0
  0
LINE
  5
F7
100
AcDbEntity
100
AcDbLine
  8
Bottom
 62
256
370
-1
  6
ByLayer
 10
99.7011482906918047
 20
48.3157659194930389
 30
0.0
 11
93.7011482906918047
 21
48.315765919493046
 31
0.0
  0
LINE
  5
F8
100
AcDbEntity
100
AcDbLine
  8
Bottom
 62
256
370
-1
  6
ByLayer
 10
99.7011482906918047
 20
50.2480711580138006
 30
0.0
 11
99.7011482906918047
 21
48.3157659194930389
 31
0.0
  0
LINE
  5
F9
100
AcDbEntity
100
AcDbLine
  8
Bottom
 62
256
370
-1
  6
ByLayer
 10
112.041249605820596
 20
100.0216491388743805
 30
0.0
 11
105.1288124199599991
 21
81.0298840573239545
 31
0.0
  0
LINE
  5
FA
100
AcDbEntity
100
AcDbLine
  8
Bottom
 62
256
370
-1
  6
ByLayer
 10
108.2824791226770031
 20
101.3897297121770578
 30
0.0
 11
112.041249605820596
 21
100.0216491388743805
 31
0.0
  0
LINE
  5
FB
100
AcDbEntity
100
AcDbLine
  8
Bottom
 62
256
370
-1
  6
ByLayer
 10
106.4182967868802052
 20
95.6831699587964692
 30
0.0
 11
106.2303582627230014
 21
95.7515739874615974
 31
0.0
  0
LINE
  5
FC
100
AcDbEntity
100
AcDbLine
  8
Bottom
 62
256
370
-1
  6
ByLayer
 10
105.819243872044396
 20
92.2830029621289611
 30
0.0
 11
106.7769002733563042
 21
94.9141423003295301
 31
0.0
  0
LINE
  5
FD
100
AcDbEntity
100
AcDbLine
  8
Bottom
 62
256
370
-1
  6
ByLayer
 10
104.8622776894202957
 20
91.9928035043179761
 30
0.0
 11
105.0502162135774995
 21
91.9243994756528338
 31
0.0
  0
LINE
  5
FE
100
AcDbEntity
100
AcDbLine
  8
Bottom
 62
256
370
-1
  6
ByLayer
 10
104.383449488764299
 20
90.6772338352176916
 30
0.0
 11
104.8622776894202957
 21
91.9928035043179761
 31
0.0
  0
LINE
  5
FF
100
AcDbEntity
100
AcDbLine
  8
Bottom
 62
256
370
-1
  6
ByLayer
 10
99.1038972505250939
 20
91.9603270367047685
 30
0.0
 11
103.6144218302974025
 21
90.3186303487415501
 31
0.0
  0
LINE
  5
100
100
AcDbEntity
100
AcDbLine
  8
Bottom
 62
256
370
-1
  6
ByLayer
 10
99.2241219647048922
 20
94.0449243642719637
 30
0.0
 11
98.7452937640489239
 21
92.7293546951716934
 31
0.0
  0
LINE
  5
101
100
AcDbEntity
100
AcDbLine
  8
Bottom
 62
256
370
-1
  6
ByLayer
 10
99.0361834405477026
 20
94.1133283929371061
 30
0.0
 11
99.2241219647048922
 21
94.0449243642719637
 31
0.0
  0
LINE
  5
102
100
AcDbEntity
100
AcDbLine
  8
Bottom
 62
256
370
-1
  6
ByLayer
 10
99.6352363553834408
 20
97.5134953896045999
 30
0.0
 11
98.6775799540715752
 21
94.8823560514040594
 31
0.0
  0
LINE
  5
103
100
AcDbEntity
100
AcDbLine
  8
Bottom
 62
256
370
-1
  6
ByLayer
 10
100.5922025380075979
 20
97.8036948474156134
 30
0.0
 11
100.4042640138502946
 21
97.8720988760807415
 31
0.0
  0
ARC
  5
104
100
AcDbEntity
  8
Bottom
 62
256
370
-1
  6
ByLayer
100
AcDbCircle
 10
73.7018087724001987
 20
56.0847935779599993
 30
0.0
 40
0.599999999999996
100
AcDbArc
 50
250.0000000000001137
 51
340.0000000000002842
  0
ARC
  5
105
100
AcDbEntity
  8
Bottom
 62
256
370
-1
  6
ByLayer
100
AcDbCircle
 10
66.1842678061129277
 20
58.820954724565361
 30
0.0
 40
0.5999999999999983
100
AcDbArc
 50
159.9999999999998863
 51
250.0000000000001705
  0
ARC
  5
106
100
AcDbEntity
  8
Bottom
 62
256
370
-1
  6
ByLayer
100
AcDbCircle
 10
72.3841503525920587
 20
107.4320795460489819
 30
0.0
 40
0.600000000000012
100
AcDbArc
 50
340.0000000000014779
 51
69.9999999999995879
  0
ARC
  5
107
100
AcDbEntity
  8
Bottom
 62
256
370
-1
  6
ByLayer
100
AcDbCircle
 10
71.4264939512802073
 20
104.8009402078484271
 30
0.0
 40
0.5999999999999749
100
AcDbArc
 50
249.99999999999838
 51
340.0000000000022737
  0
ARC
  5
108
100
AcDbEntity
  8
Bottom
 62
256
370
-1
  6
ByLayer
100
AcDbCircle
 10
69.9906995680001671
 20
103.1951710809371434
 30
0.0
 40
0.5999999999999921
100
AcDbArc
 50
249.9999999999991189
 51
340.0000000000009095
  0
ARC
  5
109
100
AcDbEntity
  8
Bottom
 62
256
370
-1
  6
ByLayer
100
AcDbCircle
 10
65.4801749882277875
 20
104.8368677689003619
 30
0.0
 40
0.5999999999999996
100
AcDbArc
 50
160.0000000000001137
 51
249.9999999999993179
  0
ARC
  5
10A
100
AcDbEntity
  8
Bottom
 62
256
370
-1
  6
ByLayer
100
AcDbCircle
 10
65.4124611782503962
 20
106.9898691251327278
 30
0.0
 40
0.5999999999999986
100
AcDbArc
 50
160.0000000000001137
 51
249.9999999999993179
  0
ARC
  5
10B
100
AcDbEntity
  8
Bottom
 62
256
370
-1
  6
ByLayer
100
AcDbCircle
 10
66.370117579562276
 20
109.6210084633332684
 30
0.0
 40
0.6000000000000139
100
AcDbArc
 50
70.0000000000007105
 51
159.9999999999988063
  0
ARC
  5
10C
100
AcDbEntity
  8
Bottom
 62
256
370
-1
  6
ByLayer
100
AcDbCircle
 10
55.501148290691809
 20
56.9157659194930616
 30
0.0
 40
0.5999999999999984
100
AcDbArc
 50
180.0
 51
270.0000000000007958
  0
ARC
  5
10D
100
AcDbEntity
  8
Bottom
 62
256
370
-1
  6
ByLayer
100
AcDbCircle
 10
55.501148290691809
 20
59.715765919493073
 30
0.0
 40
0.6000000000000006
100
AcDbArc
 50
90.0000000000017053
 51
180.0
  0
ARC
  5
10E
100
AcDbEntity
  8
Bottom
 62
256
370
-1
  6
ByLayer
100
AcDbCircle
 10
56.3011482906918204
 20
61.715765919493073
 30
0.0
 40
0.6000000000000028
100
AcDbArc
 50
90.0
 51
180.0
  0
ARC
  5
10F
100
AcDbEntity
  8
Bottom
 62
256
370
-1
  6
ByLayer
100
AcDbCircle
 10
61.1011482906918175
 20
61.7157659194930375
 30
0.0
 40
0.6000000000000028
100
AcDbArc
 50
0.0
 51
89.9999999999991616
  0
ARC
  5
110
100
AcDbEntity
  8
Bottom
 62
256
370
-1
  6
ByLayer
100
AcDbCircle
 10
61.9011482906918218
 20
59.7157659194930801
 30
0.0
 40
0.5999999999999939
100
AcDbArc
 50
0.0
 51
90.0
  0
ARC
  5
111
100
AcDbEntity
  8
Bottom
 62
256
370
-1
  6
ByLayer
100
AcDbCircle
 10
61.9011482906918147
 20
56.9157659194930687
 30
0.0
 40
0.5999999999999984
100
AcDbArc
 50
269.9999999999992042
 51
0.0
  0
ARC
  5
112
100
AcDbEntity
  8
Bottom
 62
256
370
-1
  6
ByLayer
100
AcDbCircle
 10
87.5011482906918161
 20
56.9157659194930687
 30
0.0
 40
0.5999999999999984
100
AcDbArc
 50
180.0
 51
270.0000000000017053
  0
ARC
  5
113
100
AcDbEntity
  8
Bottom
 62
256
370
-1
  6
ByLayer
100
AcDbCircle
 10
87.5011482906918303
 20
59.7157659194930659
 30
0.0
 40
0.6000000000000006
100
AcDbArc
 50
90.0000000000017053
 51
180.0
  0
ARC
  5
114
100
AcDbEntity
  8
Bottom
 62
256
370
-1
  6
ByLayer
100
AcDbCircle
 10
88.3011482906918133
 20
61.715765919493073
 30
0.0
 40
0.6000000000000028
100
AcDbArc
 50
90.0
 51
180.0
  0
ARC
  5
115
100
AcDbEntity
  8
Bottom
 62
256
370
-1
  6
ByLayer
100
AcDbCircle
 10
93.1011482906918104
 20
61.7157659194930304
 30
0.0
 40
0.6000000000000028
100
AcDbArc
 50
0.0
 51
89.9999999999983089
  0
ARC
  5
116
100
AcDbEntity
  8
Bottom
 62
256
370
-1
  6
ByLayer
100
AcDbCircle
 10
93.9011482906918076
 20
59.7157659194930801
 30
0.0
 40
0.5999999999999939
100
AcDbArc
 50
0.0
 51
90.0
  0
ARC
  5
117
100
AcDbEntity
  8
Bottom
 62
256
370
-1
  6
ByLayer
100
AcDbCircle
 10
93.9011482906918076
 20
56.9157659194930616
 30
0.0
 40
0.5999999999999984
100
AcDbArc
 50
269.9999999999982947
 51
0.0
  0
ARC
  5
118
100
AcDbEntity
  8
Bottom
 62
256
370
-1
  6
ByLayer
100
AcDbCircle
 10
106.2130847008848065
 20
95.1193543863249289
 30
0.0
 40
0.5999999999999881
100
AcDbArc
 50
339.9999999999998863
 51
70.0000000000014353
  0
ARC
  5
119
100
AcDbEntity
  8
Bottom
 62
256
370
-1
  6
ByLayer
100
AcDbCircle
 10
105.2554282995728983
 20
92.4882150481243599
 30
0.0
 40
0.5999999999999842
100
AcDbArc
 50
249.9999999999978968
 51
340.0000000000001137
  0
ARC
  5
11A
100
AcDbEntity
  8
Bottom
 62
256
370
-1
  6
ByLayer
100
AcDbCircle
 10
103.8196339162928012
 20
90.8824459212131046
 30
0.0
 40
0.6000000000000063
100
AcDbArc
 50
250.0000000000003695
 51
339.9999999999996021
  0
ARC
  5
11B
100
AcDbEntity
  8
Bottom
 62
256
370
-1
  6
ByLayer
100
AcDbCircle
 10
99.3091093365205069
 20
92.5241426091763088
 30
0.0
 40
0.5999999999999976
100
AcDbArc
 50
160.0000000000011937
 51
250.0000000000003695
  0
ARC
  5
11C
100
AcDbEntity
  8
Bottom
 62
256
370
-1
  6
ByLayer
100
AcDbCircle
 10
99.2413955265431014
 20
94.6771439654086606
 30
0.0
 40
0.5999999999999954
100
AcDbArc
 50
159.9999999999990052
 51
250.0000000000001137
  0
ARC
  5
11D
100
AcDbEntity
  8
Bottom
 62
256
370
-1
  6
ByLayer
100
AcDbCircle
 10
100.1990519278549954
 20
97.3082833036091728
 30
0.0
 40
0.6000000000000253
100
AcDbArc
 50
70.0000000000028848
 51
159.9999999999994031
  0
ARC
  5
11E
100
AcDbEntity
  8
Bottom
 62
256
370
-1
  6
ByLayer
100
AcDbCircle
 10
139.7011482906912079
 20
59.0644201934371864
 30
0.0
 40
89.9999999999993463
100
AcDbArc
 50
159.9999999999998863
 51
180.0
  0
ARC
  5
11F
100
AcDbEntity
  8
Bottom
 62
256
370
-1
  6
ByLayer
100
AcDbCircle
 10
189.7011482906914921
 20
50.2480711580138291
 30
0.0
 40
89.9999999999996447
100
AcDbArc
 50
159.9999999999998863
 51
180.0
  0
LINE
  5
120
100
AcDbEntity
100
AcDbLine
  8
Bottom
 62
256
370
-1
  6
ByLayer
 10
102.6443233979615997
 20
103.4418505721310737
 30
0.0
 11
108.2824791226770031
 21
101.3897297121770578
 31
0.0
  0
LINE
  5
121
100
AcDbEntity
100
AcDbLine
  8
Bottom
 62
256
370
-1
  6
ByLayer
 10
106.2303582627230014
 20
95.7515739874615974
 30
0.0
 11
100.5922025380075979
 21
97.8036948474156134
 31
0.0
  0
LINE
  5
122
100
AcDbEntity
100
AcDbLine
  8
Bottom
 62
256
370
-1
  6
ByLayer
 10
66.7632681897148359
 20
110.1164200071396806
 30
0.0
 11
72.401423914430282
 21
108.0642991471856647
 31
0.0
  0
LINE
  5
123
100
AcDbEntity
100
AcDbLine
  8
Bottom
 62
256
370
-1
  6
ByLayer
 10
68.8153890496688518
 20
115.7545757318551551
 30
0.0
 11
74.4535447743843122
 21
113.7024548719011534
 31
0.0
  0
LINE
  5
124
100
AcDbEntity
100
AcDbLine
  8
Bottom
 62
256
370
-1
  6
ByLayer
 10
61.7011482906918189
 20
56.3157659194930673
 30
0.0
 11
55.7011482906918189
 21
56.3157659194930744
 31
0.0
  0
LINE
  5
125
100
AcDbEntity
100
AcDbLine
  8
Bottom
 62
256
370
-1
  6
ByLayer
 10
61.7011482906918047
 20
48.3157659194930602
 30
0.0
 11
55.7011482906918047
 21
48.3157659194930602
 31
0.0
  0
LINE
  5
126
100
AcDbEntity
100
AcDbLine
  8
Bottom
 62
256
370
-1
  6
ByLayer
 10
93.7011482906918047
 20
48.315765919493046
 30
0.0
 11
87.7011482906918332
 21
48.3157659194930602
 31
0.0
  0
LINE
  5
127
100
AcDbEntity
100
AcDbLine
  8
Bottom
 62
256
370
-1
  6
ByLayer
 10
93.7011482906918189
 20
56.3157659194930744
 30
0.0
 11
87.7011482906918332
 21
56.3157659194930744
 31
0.0
  0
LINE
  5
128
100
AcDbEntity
100
AcDbLine
  8
Bottom
 62
256
370
-1
  6
ByLayer
 10
84.2263480305577303
 20
110.1454453813141328
 30
0.0
 11
65.6204522336413874
 21
59.026166810560774
 31
0.0
  0
LINE
  5
129
100
AcDbEntity
100
AcDbLine
  8
Bottom
 62
256
370
-1
  6
ByLayer
 10
74.4535447743843122
 20
113.7024548719011534
 30
0.0
 11
84.2263480305577303
 21
110.1454453813141328
 31
0.0
  0
LINE
  5
12A
100
AcDbEntity
100
AcDbLine
  8
Bottom
 62
256
370
-1
  6
ByLayer
 10
92.8715201417880962
 20
106.9988600627179807
 30
0.0
 11
102.6443233979615997
 21
103.4418505721310737
 31
0.0
  0
LINE
  5
12B
100
AcDbEntity
100
AcDbLine
  8
Bottom
 62
256
370
-1
  6
ByLayer
 10
81.3216184324870852
 20
75.2657659194930631
 30
0.0
 11
92.8715201417880962
 21
106.9988600627179807
 31
0.0
  0
LINE
  5
12C
100
AcDbEntity
100
AcDbLine
  8
Bottom
 62
256
370
-1
  6
ByLayer
 10
94.2456346635588886
 20
64.9157659194930829
 30
0.0
 11
92.7445239636658698
 21
62.3157659194930176
 31
0.0
  0
LINE
  5
12D
100
AcDbEntity
100
AcDbLine
  8
Bottom
 62
256
370
-1
  6
ByLayer
 10
89.8577726177177425
 20
62.3157659194930531
 30
0.0
 11
88.3011482906918133
 21
62.3157659194930673
 31
0.0
  0
LINE
  5
12E
100
AcDbEntity
100
AcDbLine
  8
Bottom
 62
256
370
-1
  6
ByLayer
 10
89.8577726177177425
 20
62.3157659194930531
 30
0.0
 11
88.3566619178246953
 21
64.9157659194930545
 31
0.0
  0
LINE
  5
12F
100
AcDbEntity
100
AcDbLine
  8
Bottom
 62
256
370
-1
  6
ByLayer
 10
93.1011482906918246
 20
62.3157659194930318
 30
0.0
 11
92.7445239636658698
 21
62.3157659194930176
 31
0.0
  0
MTEXT
  5
130
100
AcDbEntity
100
AcDbMText
  8
Top Text
 62
256
370
-1
  6
ByLayer
 10
59.0
 20
91.0
 30
0.0
 40
2.0
 41
100.0
 71
1
 72
0
  1
Main\~Plate\PTop
  7
standard
 50
0.0
 73
1
 44
1.0
  0
MTEXT
  5
131
100
AcDbEntity
100
AcDbMText
  8
Bottom Text
 62
256
370
-1
  6
ByLayer
 10
59.0
 20
91.0
 30
0.0
 40
2.0
 41
100.0
 71
1
 72
0
  1
Main\~Plate\PBottom
  7
standard
 50
0.0
 73
1
 44
1.0
  0
ENDSEC
  0
SECTION
  2
OBJECTS
  0
DICTIONARY
  5
C
100
AcDbDictionary
280
0
281
1
  3
ACAD_GROUP
350
D
  3
ACAD_LAYOUT
350
1A
  3
ACAD_MLINESTYLE
350
17
  3
ACAD_PLOTSETTINGS
350
19
  3
ACAD_PLOTSTYLENAME
350
E
  3
AcDbVariableDictionary
350
132
  0
DICTIONARY
  5
D
100
AcDbDictionary
280
0
281
1
  0
ACDBDICTIONARYWDFLT
  5
E
100
AcDbDictionary
281
1
  3
Normal
350
F
100
AcDbDictionaryWithDefault
340
F
  0
ACDBPLACEHOLDER
  5
F
  0
DICTIONARY
  5
17
100
AcDbDictionary
280
0
281
1
  3
Standard
350
18
  0
MLINESTYLE
  5
18
100
AcDbMlineStyle
  2
STANDARD
 70
0
  3

 62
256
 51
90.0
 52
90.0
 71
2
 49
0.5
 62
256
  6
BYLAYER
 49
-0.5
 62
256
  6
BYLAYER
  0
DICTIONARY
  5
19
100
AcDbDictionary
280
0
281
1
  0
DICTIONARY
  5
1A
100
AcDbDictionary
281
1
  3
Layout1
350
1E
  3
Layout2
350
26
  3
Model
350
22
  0
LAYOUT
  5
1E
100
AcDbPlotSettings
  1

  2
C:\Program Files\AutoCAD 2002\plotters\DWF ePlot (optimized for plotting).pc3
  4

  6

 40
0.0
 41
0.0
 42
0.0
 43
0.0
 44
0.0
 45
0.0
 46
0.0
 47
0.0
 48
0.0
 49
0.0
140
0.0
141
0.0
142
1.0
143
1.0
 70
688
 72
0
 73
0
 74
5
  7

 75
16
147
1.0
148
0.0
149
0.0
100
AcDbLayout
  1
Layout1
 70
1
 71
1
 10
0.0
 20
0.0
 11
420.0
 21
297.0
 12
0.0
 22
0.0
 32
0.0
 14
100000000000000000000.0
 24
100000000000000000000.0
 34
100000000000000000000.0
 15
-100000000000000000000.0
 25
-100000000000000000000.0
 35
-100000000000000000000.0
146
0.0
 13
0.0
 23
0.0
 33
0.0
 16
1.0
 26
0.0
 36
0.0
 17
0.0
 27
1.0
 37
0.0
 76
0
330
1B
  0
LAYOUT
  5
22
100
AcDbPlotSettings
  1

  2
C:\Program Files\AutoCAD 2002\plotters\DWF ePlot (optimized for plotting).pc3
  4

  6

 40
0.0
 41
0.0
 42
0.0
 43
0.0
 44
0.0
 45
0.0
 46
0.0
 47
0.0
 48
0.0
 49
0.0
140
0.0
141
0.0
142
1.0
143
1.0
 70
1712
 72
0
 73
0
 74
0
  7

 75
0
147
1.0
148
0.0
149
0.0
100
AcDbLayout
  1
Model
 70
1
 71
0
 10
0.0
 20
0.0
 11
12.0
 21
9.0
 12
0.0
 22
0.0
 32
0.0
 14
0.0
 24
0.0
 34
0.0
 15
0.0
 25
0.0
 35
0.0
146
0.0
 13
0.0
 23
0.0
 33
0.0
 16
1.0
 26
0.0
 36
0.0
 17
0.0
 27
1.0
 37
0.0
 76
0
330
1F
  0
LAYOUT
  5
26
100
AcDbPlotSettings
  1

  2
C:\Program Files\AutoCAD 2002\plotters\DWF ePlot (optimized for plotting).pc3
  4

  6

 40
0.0
 41
0.0
 42
0.0
 43
0.0
 44
0.0
 45
0.0
 46
0.0
 47
0.0
 48
0.0
 49
0.0
140
0.0
141
0.0
142
1.0
143
1.0
 70
688
 72
0
 73
0
 74
5
  7

 75
16
147
1.0
148
0.0
149
0.0
100
AcDbLayout
  1
Layout2
 70
1
 71
2
 10
0.0
 20
0.0
 11
12.0
 21
9.0
 12
0.0
 22
0.0
 32
0.0
 14
0.0
 24
0.0
 34
0.0
 15
0.0
 25
0.0
 35
0.0
146
0.0
 13
0.0
 23
0.0
 33
0.0
 16
1.0
 26
0.0
 36
0.0
 17
0.0
 27
1.0
 37
0.0
 76
0
330
23
  0
DICTIONARY
  5
132
100
AcDbDictionary
281
1
  3
DIMASSOC
350
134
  3
HIDETEXT
350
133
  0
DICTIONARYVAR
  5
133
100
DictionaryVariables
280
0
  1
2
  0
DICTIONARYVAR
  5
134
100
DictionaryVariables
280
0
  1
1
  0
ENDSEC
  0
EOF
