<?xml version="1.0" encoding="ISO-8859-1" standalone="no"?>
<!DOCTYPE svg PUBLIC "-//W3C//DTD SVG 1.1//EN" "http://www.w3.org/Graphics/SVG/1.1/DTD/svg11.dtd">
<svg version="1.1" baseProfile="full" id="body" width="8in" height="8in" viewBox="0 0 1 1" preserveAspectRatio="none" xmlns="http://www.w3.org/2000/svg" xmlns:xlink="http://www.w3.org/1999/xlink" xmlns:ev="http://www.w3.org/2001/xml-events">
<title>SVG drawing</title>
<desc>This was produced by version 4.2 of GNU libplot, a free library for exporting 2-D vector graphics.</desc>
<rect id="background" x="0" y="0" width="1" height="1" stroke="none" fill="white"/>
<g id="content" transform="translate(-0.03125,1.1875) scale(1,-1) scale(0.0017361) " xml:space="preserve" stroke="black" stroke-linecap="butt" stroke-linejoin="miter" stroke-miterlimit="10.433" stroke-dasharray="none" stroke-dashoffset="0" stroke-opacity="1" fill="none" fill-rule="even-odd" fill-opacity="1" font-style="normal" font-variant="normal" font-weight="normal" font-stretch="normal" font-size-adjust="none" letter-spacing="normal" word-spacing="normal" text-anchor="start">
<polygon points="673.08,200.64 672.84,200.64 672.6,200.52 672.36,200.52 672.12,200.52 671.88,200.4 671.64,200.4 671.4,200.28 671.16,200.16 670.92,200.04 670.8,199.92 670.56,199.8 670.44,199.56 670.2,199.44 670.08,199.32 669.84,199.08 669.72,198.96 669.6,198.72 669.48,198.48 669.36,198.24 669.24,198.12 669.24,197.88 669.12,197.64 669.12,197.4 669,197.16 669,196.92 669,196.68 669,196.44 669,196.2 669,195.96 669.12,195.72 669.12,195.48 669.24,195.24 669.24,195 669.36,194.76 669.48,194.64 669.6,194.4 669.72,194.16 669.96,194.04 670.08,193.8 670.2,193.68 670.44,193.44 670.56,193.32 670.8,193.2 671.04,193.08 671.16,192.96 671.4,192.84 671.64,192.72 671.88,192.72 672.12,192.6 672.36,192.6 672.6,192.6 672.84,192.48 673.08,192.48 673.32,192.48 673.56,192.6 673.8,192.6 674.04,192.6 674.28,192.72 674.52,192.84 674.64,192.84 674.88,192.96 675.12,193.08 675.36,193.2 675.48,193.32 675.72,193.56 675.84,193.68 676.08,193.92 676.2,194.04 676.32,194.28 676.44,194.4 676.56,194.64 676.68,194.88 676.8,195.12 676.92,195.36 676.92,195.6 677.04,195.72 677.04,195.96 677.04,196.2 677.04,196.44 677.04,196.68 677.04,196.92 677.04,197.16 676.92,197.4 676.92,197.64 676.8,197.88 676.8,198.12 676.68,198.36 676.56,198.6 676.44,198.72 676.32,198.96 676.08,199.2 675.96,199.32 675.84,199.56 675.6,199.68 675.48,199.8 675.24,199.92 675,200.04 674.76,200.16 674.64,200.28 674.4,200.4 674.16,200.4 673.92,200.52 673.68,200.52 673.44,200.64 673.2,200.64 " stroke-width="1.44" stroke-linejoin="round" />
<polygon points="702.12,280.56 701.88,280.56 701.64,280.56 701.4,280.44 701.16,280.44 700.92,280.32 700.68,280.32 700.44,280.2 700.32,280.08 700.08,279.96 699.84,279.84 699.72,279.72 699.48,279.6 699.36,279.36 699.12,279.24 699,279 698.88,278.88 698.64,278.64 698.52,278.4 698.52,278.28 698.4,278.04 698.28,277.8 698.28,277.56 698.16,277.32 698.16,277.08 698.04,276.84 698.04,276.6 698.04,276.36 698.04,276.12 698.16,275.88 698.16,275.64 698.28,275.4 698.28,275.16 698.4,274.92 698.52,274.68 698.64,274.56 698.76,274.32 698.88,274.08 699,273.96 699.12,273.72 699.36,273.6 699.48,273.36 699.72,273.24 699.84,273.12 700.08,273 700.32,272.88 700.56,272.76 700.8,272.64 700.92,272.64 701.16,272.52 701.4,272.52 701.64,272.52 701.88,272.4 702.12,272.4 702.36,272.52 702.6,272.52 702.84,272.52 703.08,272.52 703.32,272.64 703.56,272.76 703.8,272.76 704.04,272.88 704.16,273 704.4,273.12 704.64,273.36 704.76,273.48 705,273.6 705.12,273.84 705.24,273.96 705.48,274.2 705.6,274.32 705.72,274.56 705.84,274.8 705.84,275.04 705.96,275.28 706.08,275.52 706.08,275.76 706.08,276 706.2,276.24 706.2,276.48 706.2,276.72 706.2,276.96 706.08,277.2 706.08,277.32 705.96,277.56 705.96,277.8 705.84,278.04 705.72,278.28 705.6,278.52 705.48,278.64 705.36,278.88 705.24,279.12 705.12,279.24 704.88,279.48 704.76,279.6 704.52,279.72 704.28,279.84 704.16,279.96 703.92,280.08 703.68,280.2 703.44,280.32 703.2,280.32 702.96,280.44 702.72,280.44 702.48,280.56 702.24,280.56 " stroke-width="1.44" stroke-linejoin="round" />
<polygon points="798.6,193.2 798.36,193.2 798.12,193.08 797.88,193.08 797.64,193.08 797.4,192.96 797.16,192.96 797.04,192.84 796.8,192.72 796.56,192.6 796.32,192.48 796.2,192.36 795.96,192.24 795.84,192 795.6,191.88 795.48,191.64 795.36,191.52 795.24,191.28 795.12,191.04 795,190.8 794.88,190.68 794.76,190.44 794.76,190.2 794.64,189.96 794.64,189.72 794.64,189.48 794.52,189.24 794.52,189 794.64,188.76 794.64,188.52 794.64,188.28 794.76,188.04 794.76,187.8 794.88,187.56 795,187.32 795.12,187.2 795.24,186.96 795.36,186.72 795.48,186.6 795.6,186.36 795.84,186.24 795.96,186 796.2,185.88 796.32,185.76 796.56,185.64 796.8,185.52 797.04,185.4 797.28,185.28 797.52,185.28 797.64,185.16 797.88,185.16 798.12,185.16 798.36,185.04 798.6,185.04 798.84,185.04 799.08,185.16 799.32,185.16 799.56,185.16 799.8,185.28 800.04,185.4 800.28,185.4 800.52,185.52 800.76,185.64 800.88,185.76 801.12,186 801.24,186.12 801.48,186.24 801.6,186.48 801.72,186.6 801.96,186.84 802.08,186.96 802.2,187.2 802.32,187.44 802.32,187.68 802.44,187.92 802.56,188.16 802.56,188.4 802.56,188.52 802.68,188.76 802.68,189 802.68,189.24 802.68,189.48 802.56,189.72 802.56,189.96 802.44,190.2 802.44,190.44 802.32,190.68 802.2,190.92 802.08,191.16 801.96,191.28 801.84,191.52 801.72,191.76 801.6,191.88 801.36,192.12 801.24,192.24 801,192.36 800.76,192.48 800.64,192.6 800.4,192.72 800.16,192.84 799.92,192.96 799.68,192.96 799.44,193.08 799.32,193.08 799.08,193.2 798.84,193.2 " stroke-width="1.44" stroke-linejoin="round" />
<polygon points="798.6,238.56 798.36,238.56 798.12,238.56 797.88,238.44 797.64,238.44 797.4,238.32 797.16,238.32 797.04,238.2 796.8,238.08 796.56,237.96 796.32,237.84 796.2,237.72 795.96,237.6 795.84,237.36 795.6,237.24 795.48,237 795.36,236.88 795.24,236.64 795.12,236.4 795,236.28 794.88,236.04 794.76,235.8 794.76,235.56 794.64,235.32 794.64,235.08 794.64,234.84 794.52,234.6 794.52,234.36 794.64,234.12 794.64,233.88 794.64,233.64 794.76,233.4 794.76,233.16 794.88,232.92 795,232.68 795.12,232.56 795.24,232.32 795.36,232.08 795.48,231.96 795.6,231.72 795.84,231.6 795.96,231.36 796.2,231.24 796.32,231.12 796.56,231 796.8,230.88 797.04,230.76 797.28,230.64 797.52,230.64 797.64,230.52 797.88,230.52 798.12,230.52 798.36,230.4 798.6,230.4 798.84,230.52 799.08,230.52 799.32,230.52 799.56,230.52 799.8,230.64 800.04,230.76 800.28,230.76 800.52,230.88 800.76,231 800.88,231.12 801.12,231.36 801.24,231.48 801.48,231.6 801.6,231.84 801.72,231.96 801.96,232.2 802.08,232.32 802.2,232.56 802.32,232.8 802.32,233.04 802.44,233.28 802.56,233.52 802.56,233.76 802.56,234 802.68,234.24 802.68,234.48 802.68,234.72 802.68,234.96 802.56,235.2 802.56,235.32 802.44,235.56 802.44,235.8 802.32,236.04 802.2,236.28 802.08,236.52 801.96,236.64 801.84,236.88 801.72,237.12 801.6,237.24 801.36,237.48 801.24,237.6 801,237.72 800.76,237.84 800.64,237.96 800.4,238.08 800.16,238.2 799.92,238.32 799.68,238.32 799.44,238.44 799.32,238.44 799.08,238.56 798.84,238.56 " stroke-width="1.44" stroke-linejoin="round" />
<polygon points="736.2,193.2 735.96,193.2 735.72,193.08 735.48,193.08 735.24,193.08 735,192.96 734.88,192.96 734.64,192.84 734.4,192.72 734.16,192.6 733.92,192.48 733.8,192.36 733.56,192.24 733.44,192 733.2,191.88 733.08,191.64 732.96,191.52 732.84,191.28 732.72,191.04 732.6,190.8 732.48,190.68 732.36,190.44 732.36,190.2 732.24,189.96 732.24,189.72 732.24,189.48 732.24,189.24 732.24,189 732.24,188.76 732.24,188.52 732.24,188.28 732.36,188.04 732.36,187.8 732.48,187.56 732.6,187.32 732.72,187.2 732.84,186.96 732.96,186.72 733.08,186.6 733.32,186.36 733.44,186.24 733.56,186 733.8,185.88 734.04,185.76 734.16,185.64 734.4,185.52 734.64,185.4 734.88,185.28 735.12,185.28 735.36,185.16 735.6,185.16 735.84,185.16 736.08,185.04 736.32,185.04 736.56,185.04 736.8,185.16 737.04,185.16 737.16,185.16 737.4,185.28 737.64,185.4 737.88,185.4 738.12,185.52 738.36,185.64 738.48,185.76 738.72,186 738.96,186.12 739.08,186.24 739.2,186.48 739.44,186.6 739.56,186.84 739.68,186.96 739.8,187.2 739.92,187.44 740.04,187.68 740.04,187.92 740.16,188.16 740.16,188.4 740.28,188.52 740.28,188.76 740.28,189 740.28,189.24 740.28,189.48 740.28,189.72 740.16,189.96 740.16,190.2 740.04,190.44 739.92,190.68 739.8,190.92 739.8,191.16 739.56,191.28 739.44,191.52 739.32,191.76 739.2,191.88 738.96,192.12 738.84,192.24 738.6,192.36 738.48,192.48 738.24,192.6 738,192.72 737.76,192.84 737.64,192.96 737.4,192.96 737.16,193.08 736.92,193.08 736.68,193.2 736.44,193.2 " stroke-width="1.44" stroke-linejoin="round" />
<line x1="764.16" y1="240.36" x2="771.36" y2="244.56" stroke-width="1.44" stroke-linecap="round" />
<line x1="771.36" y1="244.56" x2="778.68" y2="240.36" stroke-width="1.44" stroke-linecap="round" />
<line x1="778.68" y1="240.36" x2="778.68" y2="232.08" stroke-width="1.44" stroke-linecap="round" />
<line x1="778.68" y1="232.08" x2="771.36" y2="227.88" stroke-width="1.44" stroke-linecap="round" />
<line x1="771.36" y1="227.88" x2="764.16" y2="232.08" stroke-width="1.44" stroke-linecap="round" />
<line x1="764.16" y1="232.08" x2="764.16" y2="240.36" stroke-width="1.44" stroke-linecap="round" />
<line x1="742.08" y1="263.04" x2="749.28" y2="267.24" stroke-width="1.44" stroke-linecap="round" />
<line x1="749.28" y1="267.24" x2="756.48" y2="263.04" stroke-width="1.44" stroke-linecap="round" />
<line x1="756.48" y1="263.04" x2="756.48" y2="254.76" stroke-width="1.44" stroke-linecap="round" />
<line x1="756.48" y1="254.76" x2="749.28" y2="250.56" stroke-width="1.44" stroke-linecap="round" />
<line x1="749.28" y1="250.56" x2="742.08" y2="254.76" stroke-width="1.44" stroke-linecap="round" />
<line x1="742.08" y1="254.76" x2="742.08" y2="263.04" stroke-width="1.44" stroke-linecap="round" />
<line x1="764.16" y1="263.04" x2="771.36" y2="267.24" stroke-width="1.44" stroke-linecap="round" />
<line x1="771.36" y1="267.24" x2="778.68" y2="263.04" stroke-width="1.44" stroke-linecap="round" />
<line x1="778.68" y1="263.04" x2="778.68" y2="254.76" stroke-width="1.44" stroke-linecap="round" />
<line x1="778.68" y1="254.76" x2="771.36" y2="250.56" stroke-width="1.44" stroke-linecap="round" />
<line x1="771.36" y1="250.56" x2="764.16" y2="254.76" stroke-width="1.44" stroke-linecap="round" />
<line x1="764.16" y1="254.76" x2="764.16" y2="263.04" stroke-width="1.44" stroke-linecap="round" />
<line x1="742.08" y1="230.64" x2="742.08" y2="240.36" stroke-width="1.44" stroke-linecap="round" />
<line x1="742.08" y1="240.36" x2="749.28" y2="244.56" stroke-width="1.44" stroke-linecap="round" />
<line x1="749.28" y1="244.56" x2="756.48" y2="240.36" stroke-width="1.44" stroke-linecap="round" />
<line x1="756.48" y1="240.36" x2="756.48" y2="232.08" stroke-width="1.44" stroke-linecap="round" />
<line x1="756.48" y1="232.08" x2="749.4" y2="227.88" stroke-width="1.44" stroke-linecap="round" />
<line x1="797.04" y1="210.6" x2="749.4" y2="227.88" stroke-width="1.44" stroke-linecap="round" />
<line x1="790.32" y1="187.08" x2="798" y2="208.44" stroke-width="1.44" stroke-linecap="round" />
<line x1="659.16" y1="233.04" x2="788.04" y2="186.12" stroke-width="1.44" stroke-linecap="round" />
<line x1="653.64" y1="217.92" x2="659.16" y2="233.04" stroke-width="1.44" stroke-linecap="round" />
<line x1="637.08" y1="222.12" x2="651.48" y2="216.96" stroke-width="1.44" stroke-linecap="round" />
<line x1="633.12" y1="211.08" x2="637.08" y2="222.12" stroke-width="1.44" stroke-linecap="round" />
<line x1="649.08" y1="205.32" x2="633.12" y2="211.08" stroke-width="1.44" stroke-linecap="round" />
<line x1="649.2" y1="205.8" x2="649.08" y2="205.32" stroke-width="1.44" stroke-linecap="round" />
<line x1="658.92" y1="204.12" x2="651.48" y2="206.88" stroke-width="1.44" stroke-linecap="round" />
<line x1="659.76" y1="201.36" x2="659.88" y2="201.96" stroke-width="1.44" stroke-linecap="round" />
<line x1="663.48" y1="200.04" x2="659.76" y2="201.36" stroke-width="1.44" stroke-linecap="round" />
<line x1="659.76" y1="185.04" x2="664.44" y2="197.88" stroke-width="1.44" stroke-linecap="round" />
<line x1="653.88" y1="185.4" x2="657.6" y2="184.08" stroke-width="1.44" stroke-linecap="round" />
<line x1="653.64" y1="184.92" x2="653.88" y2="185.4" stroke-width="1.44" stroke-linecap="round" />
<line x1="644.04" y1="186.6" x2="651.48" y2="183.84" stroke-width="1.44" stroke-linecap="round" />
<line x1="643.2" y1="189.36" x2="643.08" y2="188.76" stroke-width="1.44" stroke-linecap="round" />
<line x1="627.24" y1="195.12" x2="643.2" y2="189.36" stroke-width="1.44" stroke-linecap="round" />
<line x1="623.4" y1="184.44" x2="627.24" y2="195.12" stroke-width="1.44" stroke-linecap="round" />
<line x1="700.68" y1="156.36" x2="623.4" y2="184.44" stroke-width="1.44" stroke-linecap="round" />
<line x1="818.52" y1="140.88" x2="788.04" y2="140.88" stroke-width="1.44" stroke-linecap="round" />
<line x1="818.52" y1="157.92" x2="818.52" y2="140.88" stroke-width="1.44" stroke-linecap="round" />
<line x1="795.72" y1="157.92" x2="818.52" y2="157.92" stroke-width="1.44" stroke-linecap="round" />
<line x1="795.72" y1="157.32" x2="795.72" y2="157.92" stroke-width="1.44" stroke-linecap="round" />
<line x1="786.12" y1="155.64" x2="794.04" y2="155.64" stroke-width="1.44" stroke-linecap="round" />
<line x1="784.44" y1="157.92" x2="784.44" y2="157.32" stroke-width="1.44" stroke-linecap="round" />
<line x1="780.48" y1="157.92" x2="784.44" y2="157.92" stroke-width="1.44" stroke-linecap="round" />
<line x1="778.8" y1="173.28" x2="778.8" y2="159.6" stroke-width="1.44" stroke-linecap="round" />
<line x1="784.44" y1="174.96" x2="780.48" y2="174.96" stroke-width="1.44" stroke-linecap="round" />
<line x1="784.44" y1="175.56" x2="784.44" y2="174.96" stroke-width="1.44" stroke-linecap="round" />
<line x1="794.04" y1="177.24" x2="786.12" y2="177.24" stroke-width="1.44" stroke-linecap="round" />
<line x1="795.72" y1="174.96" x2="795.72" y2="175.56" stroke-width="1.44" stroke-linecap="round" />
<line x1="818.52" y1="174.96" x2="795.72" y2="174.96" stroke-width="1.44" stroke-linecap="round" />
<line x1="818.52" y1="248.64" x2="818.52" y2="174.96" stroke-width="1.44" stroke-linecap="round" />
<line x1="795.72" y1="248.64" x2="818.52" y2="248.64" stroke-width="1.44" stroke-linecap="round" />
<line x1="795.72" y1="248.16" x2="795.72" y2="248.64" stroke-width="1.44" stroke-linecap="round" />
<line x1="786.12" y1="246.36" x2="794.04" y2="246.36" stroke-width="1.44" stroke-linecap="round" />
<line x1="784.44" y1="248.64" x2="784.44" y2="248.16" stroke-width="1.44" stroke-linecap="round" />
<line x1="780.48" y1="248.64" x2="784.44" y2="248.64" stroke-width="1.44" stroke-linecap="round" />
<line x1="778.8" y1="264" x2="778.8" y2="250.32" stroke-width="1.44" stroke-linecap="round" />
<line x1="784.44" y1="265.68" x2="780.48" y2="265.68" stroke-width="1.44" stroke-linecap="round" />
<line x1="784.44" y1="266.28" x2="784.44" y2="265.68" stroke-width="1.44" stroke-linecap="round" />
<line x1="794.04" y1="267.96" x2="786.12" y2="267.96" stroke-width="1.44" stroke-linecap="round" />
<line x1="795.72" y1="265.68" x2="795.72" y2="266.28" stroke-width="1.44" stroke-linecap="round" />
<line x1="818.52" y1="265.68" x2="795.72" y2="265.68" stroke-width="1.44" stroke-linecap="round" />
<line x1="818.52" y1="282.72" x2="818.52" y2="265.68" stroke-width="1.44" stroke-linecap="round" />
<line x1="813" y1="282.72" x2="818.52" y2="282.72" stroke-width="1.44" stroke-linecap="round" />
<line x1="671.88" y1="317.64" x2="725.76" y2="298.08" stroke-width="1.44" stroke-linecap="round" />
<line x1="667.92" y1="307.08" x2="671.88" y2="317.64" stroke-width="1.44" stroke-linecap="round" />
<line x1="684" y1="301.2" x2="667.92" y2="307.08" stroke-width="1.44" stroke-linecap="round" />
<line x1="684.12" y1="301.8" x2="684" y2="301.2" stroke-width="1.44" stroke-linecap="round" />
<line x1="693.84" y1="300" x2="686.28" y2="302.76" stroke-width="1.44" stroke-linecap="round" />
<line x1="694.56" y1="297.36" x2="694.8" y2="297.84" stroke-width="1.44" stroke-linecap="round" />
<line x1="698.4" y1="295.92" x2="694.56" y2="297.36" stroke-width="1.44" stroke-linecap="round" />
<line x1="694.68" y1="281.04" x2="699.36" y2="293.76" stroke-width="1.44" stroke-linecap="round" />
<line x1="688.8" y1="281.4" x2="692.52" y2="279.96" stroke-width="1.44" stroke-linecap="round" />
<line x1="688.56" y1="280.8" x2="688.8" y2="281.4" stroke-width="1.44" stroke-linecap="round" />
<line x1="678.96" y1="282.48" x2="686.4" y2="279.84" stroke-width="1.44" stroke-linecap="round" />
<line x1="678.12" y1="285.24" x2="678" y2="284.64" stroke-width="1.44" stroke-linecap="round" />
<line x1="662.16" y1="291" x2="678.12" y2="285.24" stroke-width="1.44" stroke-linecap="round" />
<line x1="658.08" y1="279.96" x2="662.16" y2="291" stroke-width="1.44" stroke-linecap="round" />
<line x1="672.48" y1="274.8" x2="658.08" y2="279.96" stroke-width="1.44" stroke-linecap="round" />
<line x1="668.04" y1="257.52" x2="673.56" y2="272.52" stroke-width="1.44" stroke-linecap="round" />
<line x1="742.08" y1="230.64" x2="668.04" y2="257.52" stroke-width="1.44" stroke-linecap="round" />
<polyline points="798,208.44 798.12,208.68 798.12,208.92 798.12,209.16 798.12,209.4 798,209.52 797.88,209.76 797.76,210 797.64,210.12 797.4,210.36 797.28,210.48 797.04,210.6 797.04,210.6 " stroke-width="1.44" stroke-linecap="round" stroke-linejoin="round" />
<polyline points="788.04,186.12 788.28,186 788.52,186 788.76,186 789,186 789.24,186.12 789.48,186.12 789.72,186.24 789.84,186.48 790.08,186.6 790.2,186.84 790.32,187.08 790.32,187.08 " stroke-width="1.44" stroke-linecap="round" stroke-linejoin="round" />
<polyline points="651.48,216.96 651.72,216.84 651.96,216.84 652.2,216.84 652.44,216.84 652.68,216.96 652.92,217.08 653.04,217.2 653.28,217.32 653.4,217.56 653.52,217.68 653.64,217.92 653.64,217.92 " stroke-width="1.44" stroke-linecap="round" stroke-linejoin="round" />
<polyline points="651.48,206.88 651.24,206.88 651,206.88 650.76,206.88 650.52,206.88 650.28,206.88 650.04,206.76 649.8,206.64 649.68,206.4 649.44,206.28 649.32,206.04 649.2,205.8 649.2,205.8 " stroke-width="1.44" stroke-linecap="round" stroke-linejoin="round" />
<polyline points="659.88,201.96 660,202.2 660,202.44 660,202.68 660,202.92 659.88,203.16 659.76,203.4 659.64,203.52 659.52,203.76 659.28,203.88 659.16,204 658.92,204.12 658.92,204.12 " stroke-width="1.44" stroke-linecap="round" stroke-linejoin="round" />
<polyline points="664.44,197.88 664.56,198.12 664.56,198.36 664.56,198.6 664.56,198.84 664.44,199.08 664.32,199.32 664.2,199.44 664.08,199.68 663.84,199.8 663.72,199.92 663.48,200.04 663.48,200.04 " stroke-width="1.44" stroke-linecap="round" stroke-linejoin="round" />
<polyline points="657.6,184.08 657.84,183.96 658.08,183.96 658.32,183.96 658.56,183.96 658.8,184.08 659.04,184.2 659.16,184.32 659.4,184.44 659.52,184.68 659.64,184.8 659.76,185.04 659.76,185.04 " stroke-width="1.44" stroke-linecap="round" stroke-linejoin="round" />
<polyline points="651.48,183.84 651.72,183.84 651.96,183.72 652.2,183.72 652.44,183.84 652.68,183.84 652.92,183.96 653.16,184.08 653.28,184.32 653.4,184.44 653.64,184.68 653.64,184.92 653.64,184.92 " stroke-width="1.44" stroke-linecap="round" stroke-linejoin="round" />
<polyline points="643.08,188.76 642.96,188.52 642.96,188.28 642.96,188.04 642.96,187.8 643.08,187.56 643.2,187.32 643.32,187.2 643.44,186.96 643.56,186.84 643.8,186.72 644.04,186.6 644.04,186.6 " stroke-width="1.44" stroke-linecap="round" stroke-linejoin="round" />
<polyline points="794.04,155.64 794.28,155.64 794.52,155.76 794.76,155.76 795,155.88 795.24,156.12 795.36,156.24 795.48,156.48 795.6,156.6 795.72,156.84 795.72,157.08 795.72,157.32 795.72,157.32 " stroke-width="1.44" stroke-linecap="round" stroke-linejoin="round" />
<polyline points="784.44,157.32 784.44,157.08 784.56,156.84 784.56,156.72 784.68,156.48 784.8,156.24 785.04,156.12 785.16,156 785.4,155.88 785.64,155.76 785.88,155.64 786.12,155.64 786.12,155.64 " stroke-width="1.44" stroke-linecap="round" stroke-linejoin="round" />
<polyline points="778.8,159.6 778.8,159.36 778.8,159.12 778.92,158.88 779.04,158.76 779.16,158.52 779.4,158.4 779.52,158.16 779.76,158.04 780,158.04 780.24,157.92 780.48,157.92 780.48,157.92 " stroke-width="1.44" stroke-linecap="round" stroke-linejoin="round" />
<polyline points="780.48,174.96 780.24,174.96 780,174.84 779.76,174.84 779.52,174.72 779.4,174.6 779.16,174.36 779.04,174.24 778.92,174 778.8,173.76 778.8,173.52 778.8,173.28 778.8,173.28 " stroke-width="1.44" stroke-linecap="round" stroke-linejoin="round" />
<polyline points="786.12,177.24 785.88,177.24 785.64,177.12 785.4,177.12 785.28,177 785.04,176.76 784.8,176.64 784.68,176.4 784.56,176.28 784.56,176.04 784.44,175.8 784.44,175.56 784.44,175.56 " stroke-width="1.44" stroke-linecap="round" stroke-linejoin="round" />
<polyline points="795.72,175.56 795.72,175.8 795.72,176.04 795.6,176.16 795.48,176.4 795.36,176.64 795.24,176.76 795,176.88 794.76,177 794.52,177.12 794.28,177.24 794.04,177.24 794.04,177.24 " stroke-width="1.44" stroke-linecap="round" stroke-linejoin="round" />
<polyline points="794.04,246.36 794.28,246.36 794.52,246.48 794.76,246.6 795,246.72 795.24,246.84 795.36,246.96 795.48,247.2 795.6,247.44 795.72,247.56 795.72,247.8 795.72,248.04 795.72,248.16 " stroke-width="1.44" stroke-linecap="round" stroke-linejoin="round" />
<polyline points="784.44,248.16 784.44,247.92 784.56,247.68 784.56,247.44 784.68,247.2 784.8,246.96 785.04,246.84 785.16,246.72 785.4,246.6 785.64,246.48 785.88,246.48 786.12,246.36 786.12,246.36 " stroke-width="1.44" stroke-linecap="round" stroke-linejoin="round" />
<polyline points="778.8,250.32 778.8,250.08 778.8,249.84 778.92,249.72 779.04,249.48 779.16,249.24 779.4,249.12 779.52,249 779.76,248.88 780,248.76 780.24,248.64 780.48,248.64 780.48,248.64 " stroke-width="1.44" stroke-linecap="round" stroke-linejoin="round" />
<polyline points="780.48,265.68 780.24,265.68 780,265.56 779.76,265.56 779.52,265.44 779.4,265.32 779.16,265.08 779.04,264.96 778.92,264.72 778.8,264.48 778.8,264.24 778.8,264 778.8,264 " stroke-width="1.44" stroke-linecap="round" stroke-linejoin="round" />
<polyline points="786.12,267.96 785.88,267.96 785.64,267.84 785.4,267.84 785.28,267.72 785.04,267.6 784.8,267.36 784.68,267.24 784.56,267 784.56,266.76 784.44,266.52 784.44,266.28 784.44,266.28 " stroke-width="1.44" stroke-linecap="round" stroke-linejoin="round" />
<polyline points="795.72,266.28 795.72,266.52 795.72,266.76 795.6,267 795.48,267.12 795.36,267.36 795.24,267.48 795,267.72 794.76,267.84 794.52,267.84 794.28,267.96 794.04,267.96 794.04,267.96 " stroke-width="1.44" stroke-linecap="round" stroke-linejoin="round" />
<polyline points="686.28,302.76 686.16,302.88 685.92,302.88 685.68,302.88 685.44,302.88 685.2,302.76 684.96,302.64 684.72,302.52 684.6,302.4 684.36,302.16 684.24,302.04 684.12,301.8 684.12,301.8 " stroke-width="1.44" stroke-linecap="round" stroke-linejoin="round" />
<polyline points="694.8,297.84 694.92,298.08 694.92,298.32 694.92,298.56 694.92,298.8 694.8,299.04 694.68,299.28 694.56,299.52 694.44,299.64 694.2,299.76 694.08,299.88 693.84,300 693.84,300 " stroke-width="1.44" stroke-linecap="round" stroke-linejoin="round" />
<polyline points="699.36,293.76 699.48,294 699.48,294.24 699.48,294.48 699.48,294.72 699.36,294.96 699.24,295.2 699.12,295.44 699,295.56 698.76,295.68 698.64,295.92 698.4,295.92 698.4,295.92 " stroke-width="1.44" stroke-linecap="round" stroke-linejoin="round" />
<polyline points="692.52,279.96 692.76,279.96 693,279.84 693.24,279.84 693.48,279.96 693.72,279.96 693.96,280.08 694.08,280.2 694.32,280.32 694.44,280.56 694.56,280.8 694.68,281.04 694.68,281.04 " stroke-width="1.44" stroke-linecap="round" stroke-linejoin="round" />
<polyline points="686.4,279.84 686.64,279.72 686.88,279.72 687.12,279.72 687.36,279.72 687.6,279.84 687.84,279.84 688.08,280.08 688.2,280.2 688.32,280.32 688.44,280.56 688.56,280.8 688.56,280.8 " stroke-width="1.44" stroke-linecap="round" stroke-linejoin="round" />
<polyline points="678,284.64 677.88,284.4 677.88,284.16 677.88,283.92 677.88,283.8 678,283.56 678,283.32 678.24,283.08 678.36,282.96 678.48,282.72 678.72,282.6 678.96,282.48 678.96,282.48 " stroke-width="1.44" stroke-linecap="round" stroke-linejoin="round" />
<polyline points="673.56,272.52 673.56,272.76 673.68,273 673.68,273.24 673.56,273.48 673.56,273.72 673.44,273.96 673.32,274.2 673.2,274.32 672.96,274.56 672.72,274.68 672.6,274.68 672.48,274.8 " stroke-width="1.44" stroke-linecap="round" stroke-linejoin="round" />
<polyline points="700.68,156.36 700.92,156.24 701.16,156.12 701.4,156.12 701.64,156 701.88,155.88 702,155.88 702.24,155.76 702.48,155.64 702.72,155.64 702.96,155.52 703.2,155.4 703.44,155.4 703.68,155.28 703.92,155.16 704.04,155.16 704.28,155.04 704.52,154.92 704.76,154.92 705,154.8 705.24,154.68 705.48,154.68 705.72,154.56 705.96,154.44 706.08,154.44 706.32,154.32 706.56,154.2 706.8,154.2 707.04,154.08 707.28,154.08 707.52,153.96 707.76,153.84 708,153.84 708.24,153.72 708.36,153.6 708.6,153.6 708.84,153.48 709.08,153.48 709.32,153.36 709.56,153.24 709.8,153.24 710.04,153.12 710.28,153 710.52,153 710.64,152.88 710.88,152.88 711.12,152.76 711.36,152.64 711.6,152.64 711.84,152.52 712.08,152.52 712.32,152.4 712.56,152.28 712.8,152.28 713.04,152.16 713.16,152.16 713.4,152.04 713.64,152.04 713.88,151.92 714.12,151.8 714.36,151.8 714.6,151.68 714.84,151.68 715.08,151.56 715.32,151.44 715.56,151.44 715.8,151.32 715.92,151.32 716.16,151.2 716.4,151.2 716.64,151.08 716.88,151.08 717.12,150.96 717.36,150.84 717.6,150.84 717.84,150.72 718.08,150.72 718.32,150.6 718.56,150.6 718.8,150.48 718.92,150.48 719.16,150.36 719.4,150.36 719.64,150.24 719.88,150.12 720.12,150.12 720.36,150 720.6,150 720.84,149.88 721.08,149.88 721.32,149.76 721.56,149.76 721.8,149.64 722.04,149.64 722.16,149.52 722.4,149.52 722.64,149.4 722.88,149.4 723.12,149.28 723.36,149.28 723.6,149.16 723.84,149.16 724.08,149.04 724.32,149.04 724.56,148.92 724.8,148.92 725.04,148.8 725.28,148.8 725.52,148.68 725.76,148.68 725.88,148.56 726.12,148.56 726.36,148.44 726.6,148.44 726.84,148.32 727.08,148.32 727.32,148.2 727.56,148.2 727.8,148.08 728.04,148.08 728.28,147.96 728.52,147.96 728.76,147.84 729,147.84 729.24,147.84 729.48,147.72 729.72,147.72 729.84,147.6 730.08,147.6 730.32,147.48 730.56,147.48 730.8,147.36 731.04,147.36 731.28,147.24 731.52,147.24 731.76,147.24 732,147.12 732.24,147.12 732.48,147 732.72,147 732.96,146.88 733.2,146.88 733.44,146.88 733.68,146.76 733.92,146.76 734.16,146.64 734.4,146.64 734.64,146.52 734.76,146.52 735,146.52 735.24,146.4 735.48,146.4 735.72,146.28 735.96,146.28 736.2,146.28 736.44,146.16 736.68,146.16 736.92,146.04 737.16,146.04 737.4,146.04 737.64,145.92 737.88,145.92 738.12,145.8 738.36,145.8 738.6,145.8 738.84,145.68 739.08,145.68 739.32,145.56 739.56,145.56 739.8,145.56 740.04,145.44 740.28,145.44 740.52,145.44 740.76,145.32 740.88,145.32 741.12,145.2 741.36,145.2 741.6,145.2 741.84,145.08 742.08,145.08 742.32,145.08 742.56,144.96 742.8,144.96 743.04,144.96 743.28,144.84 743.52,144.84 743.76,144.84 744,144.72 744.24,144.72 744.48,144.6 744.72,144.6 744.96,144.6 745.2,144.48 745.44,144.48 745.68,144.48 745.92,144.36 746.16,144.36 746.4,144.36 746.64,144.36 746.88,144.24 747.12,144.24 747.36,144.24 747.6,144.12 747.84,144.12 748.08,144.12 748.32,144 748.56,144 748.8,144 748.92,143.88 749.16,143.88 749.4,143.88 749.64,143.76 749.88,143.76 750.12,143.76 750.36,143.76 750.6,143.64 750.84,143.64 751.08,143.64 751.32,143.52 751.56,143.52 751.8,143.52 752.04,143.52 752.28,143.4 752.52,143.4 752.76,143.4 753,143.28 753.24,143.28 753.48,143.28 753.72,143.28 753.96,143.16 754.2,143.16 754.44,143.16 754.68,143.16 754.92,143.04 755.16,143.04 755.4,143.04 755.64,143.04 755.88,142.92 756.12,142.92 756.36,142.92 756.6,142.92 756.84,142.8 757.08,142.8 757.32,142.8 757.56,142.8 757.8,142.68 758.04,142.68 758.28,142.68 758.52,142.68 758.76,142.56 759,142.56 759.24,142.56 759.48,142.56 759.72,142.44 759.96,142.44 760.2,142.44 760.44,142.44 760.68,142.44 760.92,142.32 761.16,142.32 761.4,142.32 761.64,142.32 761.88,142.32 762.12,142.2 762.36,142.2 762.6,142.2 762.84,142.2 763.08,142.2 763.32,142.08 763.56,142.08 763.8,142.08 764.04,142.08 764.28,142.08 764.4,141.96 764.64,141.96 764.88,141.96 765.12,141.96 765.36,141.96 765.6,141.96 765.84,141.84 766.08,141.84 766.32,141.84 766.56,141.84 766.8,141.84 767.04,141.84 767.28,141.72 767.52,141.72 767.76,141.72 768,141.72 768.24,141.72 768.48,141.72 768.72,141.6 768.96,141.6 769.2,141.6 769.44,141.6 769.68,141.6 769.92,141.6 770.16,141.6 770.4,141.48 770.64,141.48 770.88,141.48 771.12,141.48 771.36,141.48 771.6,141.48 771.84,141.48 772.08,141.36 772.32,141.36 772.56,141.36 772.8,141.36 773.04,141.36 773.28,141.36 773.52,141.36 773.76,141.36 774,141.36 774.24,141.24 774.48,141.24 774.72,141.24 774.96,141.24 775.2,141.24 775.44,141.24 775.68,141.24 775.92,141.24 776.16,141.24 776.4,141.24 776.64,141.12 776.88,141.12 777.12,141.12 777.36,141.12 777.6,141.12 777.84,141.12 778.08,141.12 778.32,141.12 778.56,141.12 778.8,141.12 779.04,141.12 779.28,141.12 779.52,141.12 779.76,141 780,141 780.24,141 780.48,141 780.72,141 780.96,141 781.2,141 781.44,141 781.68,141 781.92,141 782.16,141 782.4,141 782.64,141 782.88,141 783.12,141 783.36,141 783.6,141 783.84,141 784.08,141 784.32,141 784.56,141 784.8,141 785.04,141 785.28,140.88 785.52,140.88 785.76,140.88 786,140.88 786.24,140.88 786.48,140.88 786.72,140.88 786.96,140.88 787.2,140.88 787.44,140.88 787.68,140.88 787.92,140.88 788.04,140.88 " stroke-width="1.44" stroke-linecap="round" stroke-linejoin="round" />
<polyline points="725.76,298.08 725.88,297.96 726.12,297.96 726.36,297.84 726.6,297.72 726.84,297.72 727.08,297.6 727.32,297.48 727.56,297.48 727.68,297.36 727.92,297.24 728.16,297.24 728.4,297.12 728.64,297 728.88,297 729.12,296.88 729.36,296.76 729.6,296.76 729.72,296.64 729.96,296.52 730.2,296.52 730.44,296.4 730.68,296.28 730.92,296.28 731.16,296.16 731.4,296.16 731.64,296.04 731.76,295.92 732,295.92 732.24,295.8 732.48,295.68 732.72,295.68 732.96,295.56 733.2,295.44 733.44,295.44 733.68,295.32 733.92,295.32 734.04,295.2 734.28,295.08 734.52,295.08 734.76,294.96 735,294.84 735.24,294.84 735.48,294.72 735.72,294.72 735.96,294.6 736.2,294.48 736.44,294.48 736.56,294.36 736.8,294.36 737.04,294.24 737.28,294.12 737.52,294.12 737.76,294 738,294 738.24,293.88 738.48,293.88 738.72,293.76 738.96,293.64 739.08,293.64 739.32,293.52 739.56,293.52 739.8,293.4 740.04,293.28 740.28,293.28 740.52,293.16 740.76,293.16 741,293.04 741.24,293.04 741.48,292.92 741.72,292.92 741.84,292.8 742.08,292.68 742.32,292.68 742.56,292.56 742.8,292.56 743.04,292.44 743.28,292.44 743.52,292.32 743.76,292.32 744,292.2 744.24,292.08 744.48,292.08 744.72,291.96 744.84,291.96 745.08,291.84 745.32,291.84 745.56,291.72 745.8,291.72 746.04,291.6 746.28,291.6 746.52,291.48 746.76,291.48 747,291.36 747.24,291.36 747.48,291.24 747.72,291.24 747.96,291.12 748.2,291.12 748.32,291 748.56,291 748.8,290.88 749.04,290.88 749.28,290.76 749.52,290.76 749.76,290.64 750,290.64 750.24,290.52 750.48,290.52 750.72,290.4 750.96,290.4 751.2,290.28 751.44,290.28 751.68,290.16 751.92,290.16 752.04,290.04 752.28,290.04 752.52,289.92 752.76,289.92 753,289.8 753.24,289.8 753.48,289.68 753.72,289.68 753.96,289.56 754.2,289.56 754.44,289.56 754.68,289.44 754.92,289.44 755.16,289.32 755.4,289.32 755.64,289.2 755.88,289.2 756.12,289.08 756.36,289.08 756.48,288.96 756.72,288.96 756.96,288.96 757.2,288.84 757.44,288.84 757.68,288.72 757.92,288.72 758.16,288.6 758.4,288.6 758.64,288.6 758.88,288.48 759.12,288.48 759.36,288.36 759.6,288.36 759.84,288.24 760.08,288.24 760.32,288.24 760.56,288.12 760.8,288.12 761.04,288 761.28,288 761.52,288 761.64,287.88 761.88,287.88 762.12,287.76 762.36,287.76 762.6,287.76 762.84,287.64 763.08,287.64 763.32,287.52 763.56,287.52 763.8,287.52 764.04,287.4 764.28,287.4 764.52,287.28 764.76,287.28 765,287.28 765.24,287.16 765.48,287.16 765.72,287.16 765.96,287.04 766.2,287.04 766.44,287.04 766.68,286.92 766.92,286.92 767.16,286.8 767.4,286.8 767.64,286.8 767.88,286.68 768,286.68 768.24,286.68 768.48,286.56 768.72,286.56 768.96,286.56 769.2,286.44 769.44,286.44 769.68,286.44 769.92,286.32 770.16,286.32 770.4,286.32 770.64,286.2 770.88,286.2 771.12,286.2 771.36,286.08 771.6,286.08 771.84,286.08 772.08,285.96 772.32,285.96 772.56,285.96 772.8,285.84 773.04,285.84 773.28,285.84 773.52,285.72 773.76,285.72 774,285.72 774.24,285.6 774.48,285.6 774.72,285.6 774.96,285.6 775.2,285.48 775.44,285.48 775.68,285.48 775.92,285.36 776.16,285.36 776.4,285.36 776.64,285.36 776.88,285.24 777.12,285.24 777.36,285.24 777.48,285.12 777.72,285.12 777.96,285.12 778.2,285.12 778.44,285 778.68,285 778.92,285 779.16,285 779.4,284.88 779.64,284.88 779.88,284.88 780.12,284.76 780.36,284.76 780.6,284.76 780.84,284.76 781.08,284.64 781.32,284.64 781.56,284.64 781.8,284.64 782.04,284.52 782.28,284.52 782.52,284.52 782.76,284.52 783,284.52 783.24,284.4 783.48,284.4 783.72,284.4 783.96,284.4 784.2,284.28 784.44,284.28 784.68,284.28 784.92,284.28 785.16,284.16 785.4,284.16 785.64,284.16 785.88,284.16 786.12,284.16 786.36,284.04 786.6,284.04 786.84,284.04 787.08,284.04 787.32,284.04 787.56,283.92 787.8,283.92 788.04,283.92 788.28,283.92 788.52,283.92 788.76,283.8 789,283.8 789.24,283.8 789.48,283.8 789.72,283.8 789.96,283.68 790.2,283.68 790.44,283.68 790.68,283.68 790.92,283.68 791.16,283.68 791.4,283.56 791.64,283.56 791.88,283.56 792.12,283.56 792.36,283.56 792.6,283.56 792.84,283.44 793.08,283.44 793.32,283.44 793.56,283.44 793.8,283.44 794.04,283.44 794.28,283.44 794.52,283.32 794.76,283.32 795,283.32 795.24,283.32 795.48,283.32 795.72,283.32 795.96,283.32 796.2,283.2 796.44,283.2 796.68,283.2 796.92,283.2 797.16,283.2 797.4,283.2 797.64,283.2 797.88,283.2 798.12,283.08 798.36,283.08 798.6,283.08 798.84,283.08 799.08,283.08 799.32,283.08 799.56,283.08 799.8,283.08 800.04,283.08 800.28,282.96 800.52,282.96 800.76,282.96 801,282.96 801.24,282.96 801.48,282.96 801.72,282.96 801.96,282.96 802.2,282.96 802.44,282.96 802.68,282.96 802.92,282.84 803.16,282.84 803.4,282.84 803.64,282.84 803.88,282.84 804.12,282.84 804.36,282.84 804.6,282.84 804.84,282.84 805.08,282.84 805.32,282.84 805.56,282.84 805.8,282.84 806.04,282.84 806.28,282.84 806.52,282.72 806.76,282.72 807,282.72 807.24,282.72 807.48,282.72 807.72,282.72 807.96,282.72 808.2,282.72 808.44,282.72 808.68,282.72 808.92,282.72 809.16,282.72 809.4,282.72 809.64,282.72 809.88,282.72 810.12,282.72 810.36,282.72 810.6,282.72 810.84,282.72 811.08,282.72 811.32,282.72 811.56,282.72 811.8,282.72 812.04,282.72 812.28,282.72 812.52,282.72 812.76,282.72 813,282.72 813,282.72 " stroke-width="1.44" stroke-linecap="round" stroke-linejoin="round" />
<line x1="662.16" y1="291" x2="667.92" y2="307.08" stroke-width="1.44" stroke-linecap="round" />
<line x1="684" y1="301.2" x2="678.12" y2="285.24" stroke-width="1.44" stroke-linecap="round" />
<line x1="643.2" y1="189.36" x2="649.08" y2="205.32" stroke-width="1.44" stroke-linecap="round" />
<line x1="627.24" y1="195.12" x2="633.12" y2="211.08" stroke-width="1.44" stroke-linecap="round" />
<line x1="795.72" y1="174.96" x2="795.72" y2="157.92" stroke-width="1.44" stroke-linecap="round" />
<line x1="818.52" y1="174.96" x2="818.52" y2="157.92" stroke-width="1.44" stroke-linecap="round" />
<line x1="818.52" y1="265.68" x2="818.52" y2="248.64" stroke-width="1.44" stroke-linecap="round" />
<line x1="795.72" y1="265.68" x2="795.72" y2="248.64" stroke-width="1.44" stroke-linecap="round" />
<polygon points="784.2,321.84 783.96,321.84 783.72,321.84 783.48,321.84 783.36,321.72 783.12,321.72 782.88,321.6 782.64,321.48 782.4,321.36 782.28,321.24 782.04,321.12 781.8,321 781.68,320.76 781.56,320.64 781.32,320.4 781.2,320.16 781.08,320.04 780.96,319.8 780.96,319.56 780.84,319.32 780.84,319.08 780.72,318.84 780.72,318.6 780.72,318.36 780.72,318.12 780.72,317.88 780.72,317.64 780.84,317.4 780.84,317.16 780.96,317.04 781.08,316.8 781.2,316.56 781.32,316.32 781.44,316.2 781.56,315.96 781.8,315.84 781.92,315.6 782.16,315.48 782.4,315.36 782.52,315.24 782.76,315.12 783,315 783.24,315 783.48,314.88 783.72,314.88 783.96,314.88 784.2,314.76 784.44,314.76 784.68,314.88 784.92,314.88 785.16,314.88 785.4,315 785.52,315.12 785.76,315.12 786,315.24 786.24,315.36 786.36,315.48 786.6,315.72 786.72,315.84 786.96,316.08 787.08,316.2 787.2,316.44 787.32,316.56 787.44,316.8 787.56,317.04 787.68,317.28 787.68,317.52 787.8,317.76 787.8,318 787.8,318.24 787.8,318.48 787.8,318.72 787.8,318.96 787.68,319.2 787.68,319.44 787.56,319.68 787.44,319.8 787.32,320.04 787.2,320.28 787.08,320.52 786.96,320.64 786.72,320.88 786.6,321 786.48,321.12 786.24,321.24 786,321.48 785.76,321.48 785.64,321.6 785.4,321.72 785.16,321.84 784.92,321.84 784.68,321.84 784.44,321.84 " stroke-width="1.44" stroke-linejoin="round" />
<polyline points="779.04,323.52 778.92,323.28 778.68,323.16 778.56,322.92 778.44,322.8 778.32,322.56 778.2,322.32 778.08,322.2 777.96,321.96 777.84,321.72 777.72,321.48 777.6,321.36 777.48,321.12 777.36,320.88 777.36,320.64 777.24,320.4 777.24,320.16 777.12,319.92 777.12,319.68 777,319.44 777,319.2 777,318.96 777,318.72 777,318.48 777,318.24 777,318 777,317.76 777,317.52 777,317.28 777.12,317.04 777.12,316.8 777.12,316.56 777.24,316.44 777.24,316.2 777.36,315.96 777.48,315.72 777.48,315.48 777.6,315.24 777.72,315 777.84,314.88 777.96,314.64 778.08,314.4 778.2,314.16 778.32,314.04 778.56,313.8 778.68,313.68 778.8,313.44 779.04,313.32 779.04,313.2 " stroke-width="1.44" stroke-linecap="round" stroke-linejoin="round" />
<line x1="789.48" y1="313.2" x2="779.04" y2="313.2" stroke-width="1.44" stroke-linecap="round" />
<polyline points="789.48,313.2 789.6,313.44 789.72,313.56 789.96,313.8 790.08,313.92 790.2,314.16 790.32,314.28 790.44,314.52 790.56,314.76 790.68,315 790.8,315.12 790.92,315.36 791.04,315.6 791.16,315.84 791.16,316.08 791.28,316.32 791.28,316.56 791.4,316.8 791.4,317.04 791.52,317.28 791.52,317.52 791.52,317.76 791.52,317.88 791.52,318.12 791.52,318.36 791.52,318.6 791.52,318.84 791.52,319.08 791.52,319.32 791.4,319.56 791.4,319.8 791.4,320.04 791.28,320.28 791.16,320.52 791.16,320.76 791.04,321 790.92,321.24 790.92,321.48 790.8,321.6 790.68,321.84 790.56,322.08 790.44,322.32 790.32,322.44 790.08,322.68 789.96,322.92 789.84,323.04 789.72,323.28 789.48,323.4 789.48,323.52 " stroke-width="1.44" stroke-linecap="round" stroke-linejoin="round" />
<line x1="779.04" y1="323.52" x2="789.48" y2="323.52" stroke-width="1.44" stroke-linecap="round" />
<polyline points="761.76,307.92 761.88,307.8 761.88,307.56 762,307.32 762.12,307.08 762.24,306.84 762.36,306.72 762.48,306.48 762.6,306.24 762.6,306.24 " stroke-width="1.44" stroke-linecap="round" stroke-linejoin="round" />
<polyline points="762.6,306.24 762.48,306.12 762.24,305.88 762.12,305.76 761.88,305.52 761.76,305.4 761.52,305.28 761.4,305.04 761.28,304.92 761.04,304.68 760.92,304.56 760.8,304.32 760.56,304.2 760.44,303.96 760.32,303.84 760.08,303.6 759.96,303.48 759.84,303.24 759.72,303 759.6,302.88 759.36,302.64 759.24,302.52 759.12,302.28 759,302.04 758.88,301.92 758.76,301.68 758.64,301.44 758.52,301.32 758.4,301.08 758.28,301.08 " stroke-width="1.44" stroke-linecap="round" stroke-linejoin="round" />
<polyline points="755.04,307.56 755.28,307.56 755.52,307.56 755.76,307.56 756,307.44 756.24,307.44 756.48,307.44 756.72,307.44 756.96,307.44 757.2,307.44 757.44,307.44 757.68,307.44 757.92,307.44 758.16,307.56 758.4,307.56 758.64,307.56 758.88,307.56 759.12,307.56 759.36,307.56 759.6,307.56 759.84,307.68 759.96,307.68 760.2,307.68 760.44,307.8 760.68,307.8 760.92,307.8 761.16,307.92 761.4,307.92 761.64,307.92 761.76,307.92 " stroke-width="1.44" stroke-linecap="round" stroke-linejoin="round" />
<polyline points="766.08,301.56 766.2,301.32 766.32,301.2 766.56,300.96 766.68,300.84 766.92,300.6 767.04,300.48 767.16,300.36 767.4,300.12 767.4,300.12 " stroke-width="1.44" stroke-linecap="round" stroke-linejoin="round" />
<polyline points="767.4,300.12 767.28,299.88 767.16,299.76 767.04,299.52 766.92,299.28 766.8,299.04 766.68,298.8 766.68,298.68 766.56,298.44 766.44,298.2 766.32,297.96 766.2,297.72 766.08,297.6 766.08,297.36 765.96,297.12 765.84,296.88 765.84,296.64 765.72,296.4 765.6,296.16 765.6,295.92 765.48,295.8 765.36,295.56 765.36,295.32 765.24,295.08 765.24,294.84 765.12,294.6 765.12,294.36 765,294.12 765,293.88 765,293.88 " stroke-width="1.44" stroke-linecap="round" stroke-linejoin="round" />
<polyline points="759.72,299.04 759.96,299.04 760.2,299.16 760.44,299.16 760.68,299.28 760.92,299.4 761.16,299.4 761.4,299.52 761.64,299.52 761.88,299.64 762.12,299.76 762.24,299.76 762.48,299.88 762.72,300 762.96,300 763.2,300.12 763.44,300.24 763.68,300.36 763.8,300.36 764.04,300.48 764.28,300.6 764.52,300.72 764.76,300.84 764.88,300.96 765.12,301.08 765.36,301.08 765.6,301.2 765.84,301.32 765.96,301.44 766.08,301.56 " stroke-width="1.44" stroke-linecap="round" stroke-linejoin="round" />
<polyline points="772.08,296.76 772.32,296.64 772.56,296.52 772.8,296.4 772.92,296.28 773.16,296.16 773.4,296.04 773.64,295.92 773.88,295.8 773.88,295.8 " stroke-width="1.44" stroke-linecap="round" stroke-linejoin="round" />
<polyline points="773.88,295.8 773.76,295.56 773.76,295.32 773.76,295.08 773.64,294.84 773.64,294.6 773.64,294.36 773.64,294.12 773.52,293.88 773.52,293.64 773.52,293.4 773.52,293.16 773.4,292.92 773.4,292.68 773.4,292.44 773.4,292.2 773.4,291.96 773.4,291.72 773.4,291.48 773.4,291.24 773.4,291 773.4,290.76 773.4,290.52 773.4,290.28 773.4,290.04 773.4,289.8 773.4,289.56 773.4,289.32 773.4,289.08 773.4,289.08 " stroke-width="1.44" stroke-linecap="round" stroke-linejoin="round" />
<polyline points="766.92,292.44 767.16,292.56 767.28,292.68 767.52,292.8 767.76,292.92 767.88,293.04 768.12,293.16 768.36,293.28 768.48,293.52 768.72,293.64 768.96,293.76 769.08,293.88 769.32,294 769.44,294.24 769.68,294.36 769.8,294.48 770.04,294.72 770.16,294.84 770.4,294.96 770.52,295.2 770.76,295.32 770.88,295.44 771.12,295.68 771.24,295.8 771.48,295.92 771.6,296.16 771.72,296.28 771.96,296.52 772.08,296.64 772.08,296.76 " stroke-width="1.44" stroke-linecap="round" stroke-linejoin="round" />
<polyline points="779.4,294 779.64,294 779.88,293.88 780.12,293.88 780.36,293.88 780.6,293.76 780.84,293.76 781.08,293.76 781.32,293.76 781.32,293.76 " stroke-width="1.44" stroke-linecap="round" stroke-linejoin="round" />
<polyline points="781.32,293.76 781.32,293.52 781.44,293.28 781.44,293.04 781.44,292.8 781.44,292.56 781.56,292.32 781.56,292.08 781.68,291.84 781.68,291.6 781.68,291.36 781.8,291.12 781.8,290.88 781.92,290.64 781.92,290.4 782.04,290.16 782.04,289.92 782.16,289.68 782.16,289.44 782.28,289.2 782.4,289.08 782.4,288.84 782.52,288.6 782.52,288.36 782.64,288.12 782.76,287.88 782.88,287.64 782.88,287.4 783,287.28 783,287.16 " stroke-width="1.44" stroke-linecap="round" stroke-linejoin="round" />
<polyline points="775.8,288.36 775.92,288.48 776.04,288.72 776.28,288.84 776.4,289.08 776.52,289.2 776.64,289.44 776.88,289.68 777,289.8 777.12,290.04 777.24,290.28 777.36,290.4 777.48,290.64 777.72,290.88 777.84,291 777.96,291.24 778.08,291.48 778.2,291.6 778.32,291.84 778.44,292.08 778.56,292.2 778.68,292.44 778.8,292.68 778.92,292.92 778.92,293.16 779.04,293.28 779.16,293.52 779.28,293.76 779.4,294 779.4,294 " stroke-width="1.44" stroke-linecap="round" stroke-linejoin="round" />
<polyline points="787.2,293.76 787.44,293.76 787.68,293.76 787.92,293.76 788.16,293.88 788.4,293.88 788.64,293.88 788.88,294 789.12,294 789.12,294 " stroke-width="1.44" stroke-linecap="round" stroke-linejoin="round" />
<polyline points="789.12,294 789.24,293.76 789.24,293.64 789.36,293.4 789.48,293.16 789.6,292.92 789.72,292.68 789.84,292.56 789.96,292.32 790.08,292.08 790.2,291.84 790.32,291.72 790.44,291.48 790.56,291.24 790.68,291.12 790.8,290.88 790.92,290.64 791.04,290.52 791.16,290.28 791.4,290.04 791.52,289.92 791.64,289.68 791.76,289.44 791.88,289.32 792.12,289.08 792.24,288.96 792.36,288.72 792.48,288.6 792.72,288.36 792.72,288.36 " stroke-width="1.44" stroke-linecap="round" stroke-linejoin="round" />
<polyline points="785.52,287.16 785.52,287.4 785.64,287.64 785.76,287.88 785.88,288.12 785.88,288.36 786,288.48 786.12,288.72 786.12,288.96 786.24,289.2 786.24,289.44 786.36,289.68 786.48,289.92 786.48,290.16 786.6,290.4 786.6,290.64 786.72,290.88 786.72,291.12 786.72,291.24 786.84,291.48 786.84,291.72 786.96,291.96 786.96,292.2 786.96,292.44 787.08,292.68 787.08,292.92 787.08,293.16 787.08,293.4 787.2,293.64 787.2,293.76 " stroke-width="1.44" stroke-linecap="round" stroke-linejoin="round" />
<polyline points="794.64,295.8 794.88,295.92 795.12,296.04 795.24,296.16 795.48,296.28 795.72,296.4 795.96,296.4 796.08,296.52 796.32,296.64 796.32,296.76 " stroke-width="1.44" stroke-linecap="round" stroke-linejoin="round" />
<polyline points="796.32,296.76 796.56,296.52 796.68,296.4 796.92,296.16 797.04,296.04 797.16,295.8 797.4,295.68 797.52,295.56 797.76,295.32 797.88,295.2 798.12,294.96 798.24,294.84 798.48,294.72 798.6,294.6 798.84,294.36 798.96,294.24 799.2,294.12 799.32,293.88 799.56,293.76 799.8,293.64 799.92,293.52 800.16,293.4 800.28,293.28 800.52,293.04 800.76,292.92 800.88,292.8 801.12,292.68 801.36,292.56 801.48,292.44 801.6,292.44 " stroke-width="1.44" stroke-linecap="round" stroke-linejoin="round" />
<polyline points="795,289.08 795.12,289.32 795.12,289.56 795.12,289.8 795.12,290.04 795.12,290.28 795.12,290.52 795.12,290.76 795.12,291 795.12,291.24 795.12,291.48 795.12,291.72 795.12,291.96 795.12,292.2 795.12,292.44 795.12,292.68 795,292.92 795,293.16 795,293.4 795,293.64 795,293.88 794.88,294.12 794.88,294.36 794.88,294.6 794.88,294.84 794.76,295.08 794.76,295.32 794.64,295.56 794.64,295.8 794.64,295.8 " stroke-width="1.44" stroke-linecap="round" stroke-linejoin="round" />
<polyline points="801.12,300.12 801.24,300.24 801.48,300.48 801.6,300.6 801.84,300.84 801.96,300.96 802.08,301.08 802.32,301.32 802.44,301.44 802.44,301.56 " stroke-width="1.44" stroke-linecap="round" stroke-linejoin="round" />
<polyline points="802.44,301.56 802.68,301.44 802.92,301.32 803.16,301.2 803.28,301.08 803.52,300.96 803.76,300.84 804,300.72 804.12,300.6 804.36,300.48 804.6,300.48 804.84,300.36 805.08,300.24 805.32,300.12 805.44,300 805.68,300 805.92,299.88 806.16,299.76 806.4,299.76 806.64,299.64 806.88,299.52 807.12,299.52 807.36,299.4 807.48,299.4 807.72,299.28 807.96,299.28 808.2,299.16 808.44,299.16 808.68,299.04 808.8,299.04 " stroke-width="1.44" stroke-linecap="round" stroke-linejoin="round" />
<polyline points="803.52,293.88 803.52,294.12 803.4,294.36 803.4,294.6 803.28,294.84 803.28,294.96 803.16,295.2 803.16,295.44 803.04,295.68 802.92,295.92 802.92,296.16 802.8,296.4 802.68,296.64 802.68,296.88 802.56,297.12 802.44,297.24 802.44,297.48 802.32,297.72 802.2,297.96 802.08,298.2 801.96,298.44 801.84,298.56 801.84,298.8 801.72,299.04 801.6,299.28 801.48,299.4 801.36,299.64 801.24,299.88 801.12,300.12 801.12,300.12 " stroke-width="1.44" stroke-linecap="round" stroke-linejoin="round" />
<polyline points="805.92,306.24 806.04,306.48 806.16,306.6 806.28,306.84 806.4,307.08 806.4,307.32 806.52,307.56 806.64,307.68 806.76,307.92 806.76,307.92 " stroke-width="1.44" stroke-linecap="round" stroke-linejoin="round" />
<polyline points="806.76,307.92 807,307.92 807.24,307.92 807.48,307.8 807.72,307.8 807.96,307.8 808.2,307.68 808.44,307.68 808.68,307.68 808.92,307.68 809.16,307.56 809.4,307.56 809.64,307.56 809.88,307.56 810.12,307.56 810.36,307.56 810.6,307.44 810.84,307.44 811.08,307.44 811.32,307.44 811.56,307.44 811.8,307.44 812.04,307.44 812.28,307.44 812.52,307.44 812.76,307.56 813,307.56 813.24,307.56 813.48,307.56 813.48,307.56 " stroke-width="1.44" stroke-linecap="round" stroke-linejoin="round" />
<polyline points="810.24,301.08 810,301.2 809.88,301.44 809.76,301.68 809.64,301.8 809.52,302.04 809.4,302.28 809.28,302.4 809.16,302.64 809.04,302.76 808.8,303 808.68,303.24 808.56,303.36 808.44,303.6 808.2,303.72 808.08,303.96 807.96,304.08 807.72,304.32 807.6,304.44 807.48,304.68 807.24,304.8 807.12,305.04 807,305.16 806.76,305.4 806.64,305.52 806.4,305.76 806.28,305.88 806.16,306 805.92,306.24 805.92,306.24 " stroke-width="1.44" stroke-linecap="round" stroke-linejoin="round" />
<polyline points="808.56,313.56 808.68,313.8 808.68,314.04 808.68,314.16 808.8,314.4 808.8,314.64 808.8,314.88 808.8,315.12 808.92,315.36 808.92,315.48 " stroke-width="1.44" stroke-linecap="round" stroke-linejoin="round" />
<polyline points="808.92,315.48 809.16,315.48 809.4,315.48 809.64,315.48 809.88,315.6 810.12,315.6 810.36,315.6 810.6,315.72 810.84,315.72 811.08,315.72 811.2,315.84 811.44,315.84 811.68,315.96 811.92,315.96 812.16,316.08 812.4,316.08 812.64,316.2 812.88,316.2 813.12,316.32 813.36,316.32 813.6,316.44 813.84,316.56 814.08,316.56 814.2,316.68 814.44,316.8 814.68,316.8 814.92,316.92 815.16,317.04 815.4,317.16 815.4,317.16 " stroke-width="1.44" stroke-linecap="round" stroke-linejoin="round" />
<polyline points="814.32,309.84 814.08,310.08 813.96,310.2 813.72,310.32 813.48,310.44 813.36,310.68 813.12,310.8 813,310.92 812.76,311.04 812.52,311.16 812.4,311.4 812.16,311.52 811.92,311.64 811.8,311.76 811.56,311.88 811.32,312 811.2,312.12 810.96,312.24 810.72,312.36 810.6,312.48 810.36,312.6 810.12,312.72 809.88,312.84 809.76,312.96 809.52,313.08 809.28,313.2 809.04,313.32 808.8,313.44 808.68,313.44 808.56,313.56 " stroke-width="1.44" stroke-linecap="round" stroke-linejoin="round" />
<polyline points="808.92,321.24 808.92,321.48 808.8,321.72 808.8,321.96 808.8,322.2 808.68,322.44 808.68,322.68 808.68,322.92 808.56,323.16 808.56,323.16 " stroke-width="1.44" stroke-linecap="round" stroke-linejoin="round" />
<polyline points="808.56,323.16 808.8,323.28 809.04,323.4 809.28,323.52 809.4,323.64 809.64,323.76 809.88,323.88 810.12,323.88 810.36,324 810.48,324.12 810.72,324.24 810.96,324.36 811.08,324.48 811.32,324.6 811.56,324.84 811.8,324.96 811.92,325.08 812.16,325.2 812.28,325.32 812.52,325.44 812.76,325.56 812.88,325.68 813.12,325.92 813.36,326.04 813.48,326.16 813.72,326.28 813.84,326.52 814.08,326.64 814.2,326.76 814.32,326.76 " stroke-width="1.44" stroke-linecap="round" stroke-linejoin="round" />
<polyline points="815.4,319.56 815.16,319.68 814.92,319.8 814.8,319.8 814.56,319.92 814.32,320.04 814.08,320.04 813.84,320.16 813.6,320.28 813.36,320.28 813.12,320.4 812.88,320.4 812.76,320.52 812.52,320.64 812.28,320.64 812.04,320.76 811.8,320.76 811.56,320.88 811.32,320.88 811.08,320.88 810.84,321 810.6,321 810.36,321 810.12,321.12 809.88,321.12 809.64,321.12 809.4,321.24 809.16,321.24 808.92,321.24 808.92,321.24 " stroke-width="1.44" stroke-linecap="round" stroke-linejoin="round" />
<polyline points="806.76,328.68 806.64,328.92 806.52,329.16 806.52,329.4 806.4,329.64 806.28,329.76 806.16,330 806.04,330.24 805.92,330.48 805.92,330.48 " stroke-width="1.44" stroke-linecap="round" stroke-linejoin="round" />
<polyline points="805.92,330.48 806.04,330.6 806.28,330.84 806.4,330.96 806.64,331.08 806.76,331.32 806.88,331.44 807.12,331.68 807.24,331.8 807.48,332.04 807.6,332.16 807.72,332.4 807.96,332.52 808.08,332.76 808.2,332.88 808.32,333.12 808.56,333.24 808.68,333.48 808.8,333.6 808.92,333.84 809.04,334.08 809.28,334.2 809.4,334.44 809.52,334.68 809.64,334.8 809.76,335.04 809.88,335.28 810,335.4 810.12,335.64 810.24,335.64 " stroke-width="1.44" stroke-linecap="round" stroke-linejoin="round" />
<polyline points="813.48,329.16 813.24,329.16 813,329.16 812.76,329.16 812.52,329.16 812.28,329.16 812.04,329.28 811.8,329.28 811.56,329.28 811.32,329.28 811.08,329.28 810.84,329.16 810.6,329.16 810.36,329.16 810.12,329.16 809.88,329.16 809.64,329.16 809.4,329.16 809.16,329.16 808.92,329.04 808.68,329.04 808.44,329.04 808.2,329.04 807.96,328.92 807.72,328.92 807.48,328.92 807.24,328.8 807.12,328.8 806.88,328.8 806.76,328.68 " stroke-width="1.44" stroke-linecap="round" stroke-linejoin="round" />
<polyline points="802.44,335.16 802.32,335.4 802.2,335.52 801.96,335.76 801.84,335.88 801.6,336 801.48,336.24 801.24,336.36 801.12,336.6 801.12,336.6 " stroke-width="1.44" stroke-linecap="round" stroke-linejoin="round" />
<polyline points="801.12,336.6 801.24,336.72 801.36,336.96 801.48,337.2 801.6,337.44 801.72,337.68 801.72,337.8 801.84,338.04 801.96,338.28 802.08,338.52 802.2,338.76 802.32,338.88 802.32,339.12 802.44,339.36 802.56,339.6 802.68,339.84 802.68,340.08 802.8,340.32 802.92,340.44 802.92,340.68 803.04,340.92 803.16,341.16 803.16,341.4 803.28,341.64 803.28,341.88 803.4,342.12 803.4,342.36 803.52,342.6 803.52,342.84 803.52,342.84 " stroke-width="1.44" stroke-linecap="round" stroke-linejoin="round" />
<polyline points="808.8,337.68 808.56,337.56 808.32,337.56 808.08,337.44 807.84,337.44 807.6,337.32 807.36,337.32 807.12,337.2 806.88,337.2 806.64,337.08 806.4,336.96 806.16,336.96 806.04,336.84 805.8,336.72 805.56,336.6 805.32,336.6 805.08,336.48 804.84,336.36 804.6,336.24 804.48,336.24 804.24,336.12 804,336 803.76,335.88 803.52,335.76 803.4,335.64 803.16,335.52 802.92,335.4 802.68,335.28 802.56,335.16 802.44,335.16 " stroke-width="1.44" stroke-linecap="round" stroke-linejoin="round" />
<polyline points="796.32,339.96 796.2,340.08 795.96,340.2 795.72,340.32 795.48,340.44 795.36,340.56 795.12,340.68 794.88,340.8 794.64,340.92 794.64,340.92 " stroke-width="1.44" stroke-linecap="round" stroke-linejoin="round" />
<polyline points="794.64,340.92 794.64,341.16 794.76,341.4 794.76,341.64 794.76,341.88 794.88,342.12 794.88,342.24 794.88,342.48 795,342.72 795,342.96 795,343.2 795,343.44 795,343.68 795.12,343.92 795.12,344.16 795.12,344.4 795.12,344.64 795.12,344.88 795.12,345.12 795.12,345.36 795.12,345.6 795.12,345.84 795.12,346.08 795.12,346.32 795.12,346.56 795.12,346.8 795.12,347.04 795.12,347.28 795,347.52 795,347.64 " stroke-width="1.44" stroke-linecap="round" stroke-linejoin="round" />
<polyline points="801.6,344.28 801.36,344.16 801.12,344.04 801,343.92 800.76,343.8 800.52,343.68 800.4,343.44 800.16,343.32 800.04,343.2 799.8,343.08 799.56,342.96 799.44,342.84 799.2,342.6 799.08,342.48 798.84,342.36 798.6,342.24 798.48,342 798.24,341.88 798.12,341.76 797.88,341.52 797.76,341.4 797.64,341.28 797.4,341.04 797.28,340.92 797.04,340.68 796.92,340.56 796.68,340.44 796.56,340.2 796.44,340.08 796.32,339.96 " stroke-width="1.44" stroke-linecap="round" stroke-linejoin="round" />
<polyline points="789.12,342.72 788.88,342.72 788.64,342.72 788.4,342.84 788.16,342.84 787.92,342.84 787.68,342.96 787.44,342.96 787.2,342.96 787.2,342.96 " stroke-width="1.44" stroke-linecap="round" stroke-linejoin="round" />
<polyline points="787.2,342.96 787.2,343.2 787.08,343.44 787.08,343.68 787.08,343.92 786.96,344.16 786.96,344.4 786.96,344.64 786.84,344.88 786.84,345.12 786.84,345.36 786.72,345.6 786.72,345.84 786.6,346.08 786.6,346.32 786.48,346.56 786.48,346.8 786.36,347.04 786.36,347.16 786.24,347.4 786.12,347.64 786.12,347.88 786,348.12 785.88,348.36 785.88,348.6 785.76,348.84 785.64,349.08 785.64,349.2 785.52,349.44 785.52,349.56 " stroke-width="1.44" stroke-linecap="round" stroke-linejoin="round" />
<polyline points="792.72,348.36 792.6,348.24 792.36,348 792.24,347.76 792.12,347.64 792,347.4 791.76,347.28 791.64,347.04 791.52,346.92 791.4,346.68 791.28,346.44 791.16,346.32 790.92,346.08 790.8,345.84 790.68,345.72 790.56,345.48 790.44,345.24 790.32,345.12 790.2,344.88 790.08,344.64 789.96,344.4 789.84,344.28 789.72,344.04 789.6,343.8 789.48,343.56 789.36,343.32 789.36,343.2 789.24,342.96 789.12,342.72 789.12,342.72 " stroke-width="1.44" stroke-linecap="round" stroke-linejoin="round" />
<polyline points="781.32,342.96 781.08,342.96 780.84,342.96 780.6,342.84 780.36,342.84 780.12,342.84 779.88,342.72 779.64,342.72 779.4,342.72 779.4,342.72 " stroke-width="1.44" stroke-linecap="round" stroke-linejoin="round" />
<polyline points="779.4,342.72 779.28,342.96 779.16,343.08 779.16,343.32 779.04,343.56 778.92,343.8 778.8,343.92 778.68,344.16 778.56,344.4 778.44,344.64 778.32,344.76 778.2,345 778.08,345.24 777.96,345.48 777.84,345.6 777.72,345.84 777.6,346.08 777.36,346.2 777.24,346.44 777.12,346.68 777,346.8 776.88,347.04 776.76,347.16 776.52,347.4 776.4,347.64 776.28,347.76 776.16,348 775.92,348.12 775.8,348.36 775.8,348.36 " stroke-width="1.44" stroke-linecap="round" stroke-linejoin="round" />
<polyline points="783,349.56 782.88,349.32 782.88,349.08 782.76,348.84 782.64,348.6 782.64,348.36 782.52,348.12 782.4,348 782.4,347.76 782.28,347.52 782.16,347.28 782.16,347.04 782.04,346.8 782.04,346.56 781.92,346.32 781.92,346.08 781.8,345.84 781.8,345.6 781.68,345.36 781.68,345.12 781.68,344.88 781.56,344.64 781.56,344.4 781.56,344.28 781.44,344.04 781.44,343.8 781.44,343.56 781.32,343.32 781.32,343.08 781.32,342.96 " stroke-width="1.44" stroke-linecap="round" stroke-linejoin="round" />
<polyline points="773.88,340.92 773.64,340.8 773.4,340.68 773.16,340.56 773.04,340.44 772.8,340.32 772.56,340.2 772.32,340.08 772.2,339.96 772.08,339.96 " stroke-width="1.44" stroke-linecap="round" stroke-linejoin="round" />
<polyline points="772.08,339.96 771.96,340.2 771.84,340.32 771.6,340.56 771.48,340.68 771.24,340.92 771.12,341.04 771,341.16 770.76,341.4 770.64,341.52 770.4,341.64 770.28,341.88 770.04,342 769.92,342.12 769.68,342.36 769.56,342.48 769.32,342.6 769.08,342.72 768.96,342.96 768.72,343.08 768.6,343.2 768.36,343.32 768.12,343.44 768,343.56 767.76,343.8 767.52,343.92 767.4,344.04 767.16,344.16 766.92,344.28 766.92,344.28 " stroke-width="1.44" stroke-linecap="round" stroke-linejoin="round" />
<polyline points="773.4,347.64 773.4,347.4 773.4,347.16 773.4,346.92 773.4,346.68 773.4,346.44 773.4,346.2 773.4,345.96 773.4,345.72 773.4,345.48 773.4,345.24 773.4,345 773.4,344.76 773.4,344.52 773.4,344.28 773.4,344.04 773.4,343.8 773.52,343.56 773.52,343.32 773.52,343.08 773.52,342.84 773.52,342.6 773.64,342.36 773.64,342.12 773.64,341.88 773.76,341.64 773.76,341.4 773.76,341.16 773.88,340.92 773.88,340.92 " stroke-width="1.44" stroke-linecap="round" stroke-linejoin="round" />
<polyline points="767.4,336.6 767.28,336.36 767.04,336.24 766.92,336.12 766.68,335.88 766.56,335.76 766.44,335.52 766.2,335.4 766.08,335.16 766.08,335.16 " stroke-width="1.44" stroke-linecap="round" stroke-linejoin="round" />
<polyline points="766.08,335.16 765.84,335.28 765.6,335.4 765.36,335.52 765.24,335.64 765,335.76 764.76,335.88 764.52,336 764.28,336.12 764.16,336.12 763.92,336.24 763.68,336.36 763.44,336.48 763.2,336.6 762.96,336.6 762.84,336.72 762.6,336.84 762.36,336.84 762.12,336.96 761.88,337.08 761.64,337.08 761.4,337.2 761.16,337.32 760.92,337.32 760.68,337.44 760.56,337.44 760.32,337.56 760.08,337.56 759.84,337.68 759.72,337.68 " stroke-width="1.44" stroke-linecap="round" stroke-linejoin="round" />
<polyline points="765,342.84 765,342.6 765,342.36 765.12,342.12 765.24,341.88 765.24,341.64 765.36,341.4 765.36,341.28 765.48,341.04 765.48,340.8 765.6,340.56 765.72,340.32 765.72,340.08 765.84,339.84 765.96,339.6 766.08,339.36 766.08,339.24 766.2,339 766.32,338.76 766.44,338.52 766.56,338.28 766.56,338.04 766.68,337.92 766.8,337.68 766.92,337.44 767.04,337.2 767.16,337.08 767.28,336.84 767.4,336.6 767.4,336.6 " stroke-width="1.44" stroke-linecap="round" stroke-linejoin="round" />
<polyline points="762.6,330.48 762.48,330.24 762.36,330 762.24,329.88 762.12,329.64 762,329.4 761.88,329.16 761.88,329.04 761.76,328.8 761.76,328.68 " stroke-width="1.44" stroke-linecap="round" stroke-linejoin="round" />
<polyline points="761.76,328.68 761.52,328.8 761.28,328.8 761.04,328.92 760.8,328.92 760.56,328.92 760.32,329.04 760.08,329.04 759.84,329.04 759.6,329.04 759.36,329.16 759.12,329.16 758.88,329.16 758.64,329.16 758.4,329.16 758.16,329.16 757.92,329.16 757.68,329.16 757.44,329.28 757.2,329.28 756.96,329.28 756.72,329.28 756.48,329.28 756.24,329.16 756,329.16 755.76,329.16 755.52,329.16 755.28,329.16 755.04,329.16 755.04,329.16 " stroke-width="1.44" stroke-linecap="round" stroke-linejoin="round" />
<polyline points="758.28,335.64 758.4,335.52 758.52,335.28 758.76,335.04 758.88,334.92 759,334.68 759.12,334.44 759.24,334.32 759.36,334.08 759.48,333.84 759.72,333.72 759.84,333.48 759.96,333.36 760.08,333.12 760.2,332.88 760.44,332.76 760.56,332.52 760.68,332.4 760.92,332.16 761.04,332.04 761.16,331.8 761.4,331.68 761.52,331.56 761.76,331.32 761.88,331.2 762,330.96 762.24,330.84 762.36,330.72 762.6,330.48 762.6,330.48 " stroke-width="1.44" stroke-linecap="round" stroke-linejoin="round" />
<polyline points="759.96,323.16 759.84,322.92 759.84,322.68 759.84,322.44 759.72,322.2 759.72,321.96 759.72,321.72 759.6,321.48 759.6,321.24 759.6,321.24 " stroke-width="1.44" stroke-linecap="round" stroke-linejoin="round" />
<polyline points="759.6,321.24 759.36,321.24 759.12,321.24 758.88,321.12 758.64,321.12 758.4,321.12 758.16,321.12 757.92,321 757.68,321 757.44,320.88 757.2,320.88 756.96,320.88 756.72,320.76 756.6,320.76 756.36,320.64 756.12,320.64 755.88,320.52 755.64,320.52 755.4,320.4 755.16,320.28 754.92,320.28 754.68,320.16 754.44,320.16 754.2,320.04 754.08,319.92 753.84,319.8 753.6,319.8 753.36,319.68 753.12,319.56 753.12,319.56 " stroke-width="1.44" stroke-linecap="round" stroke-linejoin="round" />
<polyline points="754.2,326.76 754.44,326.64 754.56,326.52 754.8,326.4 754.92,326.16 755.16,326.04 755.4,325.92 755.52,325.8 755.76,325.68 755.88,325.44 756.12,325.32 756.36,325.2 756.48,325.08 756.72,324.96 756.96,324.84 757.08,324.72 757.32,324.6 757.56,324.48 757.8,324.36 757.92,324.24 758.16,324.12 758.4,324 758.64,323.88 758.76,323.76 759,323.64 759.24,323.52 759.48,323.4 759.6,323.28 759.84,323.16 759.96,323.16 " stroke-width="1.44" stroke-linecap="round" stroke-linejoin="round" />
<polyline points="753.12,317.16 753.36,317.04 753.48,316.92 753.72,316.8 753.96,316.8 754.2,316.68 754.44,316.56 754.68,316.56 754.92,316.44 755.16,316.44 755.4,316.32 755.52,316.2 755.76,316.2 756,316.08 756.24,316.08 756.48,315.96 756.72,315.96 756.96,315.84 757.2,315.84 757.44,315.72 757.68,315.72 757.92,315.72 758.16,315.6 758.4,315.6 758.64,315.6 758.88,315.48 759.12,315.48 759.36,315.48 759.6,315.48 759.6,315.48 " stroke-width="1.44" stroke-linecap="round" stroke-linejoin="round" />
<polyline points="759.6,315.48 759.6,315.24 759.72,315 759.72,314.76 759.72,314.52 759.84,314.28 759.84,314.04 759.84,313.8 759.96,313.56 759.96,313.56 " stroke-width="1.44" stroke-linecap="round" stroke-linejoin="round" />
<polyline points="759.96,313.56 759.72,313.44 759.48,313.32 759.24,313.2 759,313.08 758.88,312.96 758.64,312.84 758.4,312.72 758.16,312.6 758.04,312.48 757.8,312.36 757.56,312.24 757.32,312.12 757.2,312 756.96,311.88 756.72,311.76 756.6,311.64 756.36,311.52 756.12,311.4 756,311.28 755.76,311.16 755.64,310.92 755.4,310.8 755.16,310.68 755.04,310.56 754.8,310.32 754.68,310.2 754.44,310.08 754.32,309.96 754.2,309.84 " stroke-width="1.44" stroke-linecap="round" stroke-linejoin="round" />
<polyline points="758.28,301.08 758.4,300.84 758.64,300.6 758.76,300.48 758.88,300.24 759,300 759.12,299.88 759.24,299.64 759.48,299.4 759.6,299.28 759.72,299.04 759.72,299.04 " stroke-width="1.44" stroke-linecap="round" stroke-linejoin="round" />
<polyline points="765,293.88 765.12,293.76 765.36,293.52 765.48,293.4 765.72,293.28 765.84,293.16 766.08,293.04 766.32,292.8 766.44,292.68 766.68,292.56 766.92,292.44 766.92,292.44 " stroke-width="1.44" stroke-linecap="round" stroke-linejoin="round" />
<polyline points="773.4,289.08 773.64,288.96 773.88,288.96 774.12,288.84 774.36,288.72 774.6,288.72 774.84,288.6 775.08,288.6 775.32,288.48 775.56,288.36 775.68,288.36 775.8,288.36 " stroke-width="1.44" stroke-linecap="round" stroke-linejoin="round" />
<polyline points="783,287.16 783.24,287.16 783.48,287.16 783.72,287.16 783.96,287.16 784.2,287.16 784.44,287.16 784.68,287.16 784.92,287.16 785.16,287.16 785.4,287.16 785.52,287.16 " stroke-width="1.44" stroke-linecap="round" stroke-linejoin="round" />
<polyline points="792.72,288.36 792.96,288.36 793.2,288.48 793.44,288.48 793.68,288.6 793.92,288.72 794.04,288.72 794.28,288.84 794.52,288.96 794.76,288.96 795,289.08 795,289.08 " stroke-width="1.44" stroke-linecap="round" stroke-linejoin="round" />
<polyline points="801.6,292.44 801.72,292.56 801.96,292.68 802.2,292.8 802.32,292.92 802.56,293.16 802.8,293.28 802.92,293.4 803.16,293.52 803.28,293.64 803.52,293.88 803.52,293.88 " stroke-width="1.44" stroke-linecap="round" stroke-linejoin="round" />
<polyline points="808.8,299.04 808.92,299.28 809.04,299.4 809.16,299.64 809.28,299.76 809.52,300 809.64,300.24 809.76,300.36 809.88,300.6 810,300.84 810.12,300.96 810.24,301.08 " stroke-width="1.44" stroke-linecap="round" stroke-linejoin="round" />
<polyline points="813.48,307.56 813.6,307.8 813.72,308.04 813.72,308.28 813.84,308.52 813.96,308.64 813.96,308.88 814.08,309.12 814.08,309.36 814.2,309.6 814.2,309.84 814.32,309.84 " stroke-width="1.44" stroke-linecap="round" stroke-linejoin="round" />
<polyline points="815.4,317.16 815.4,317.4 815.4,317.64 815.4,317.88 815.4,318.12 815.4,318.36 815.4,318.6 815.4,318.84 815.4,319.08 815.4,319.32 815.4,319.56 815.4,319.56 " stroke-width="1.44" stroke-linecap="round" stroke-linejoin="round" />
<polyline points="814.32,326.76 814.2,327 814.08,327.24 814.08,327.48 813.96,327.72 813.96,327.96 813.84,328.2 813.72,328.44 813.72,328.68 813.6,328.92 813.48,329.04 813.48,329.16 " stroke-width="1.44" stroke-linecap="round" stroke-linejoin="round" />
<polyline points="810.24,335.64 810,335.88 809.88,336.12 809.76,336.24 809.64,336.48 809.52,336.72 809.4,336.84 809.16,337.08 809.04,337.2 808.92,337.44 808.8,337.68 808.8,337.68 " stroke-width="1.44" stroke-linecap="round" stroke-linejoin="round" />
<polyline points="803.52,342.84 803.4,342.96 803.16,343.08 803.04,343.32 802.8,343.44 802.56,343.56 802.44,343.68 802.2,343.8 801.96,344.04 801.84,344.16 801.6,344.28 801.6,344.28 " stroke-width="1.44" stroke-linecap="round" stroke-linejoin="round" />
<polyline points="795,347.64 794.88,347.64 794.64,347.76 794.4,347.88 794.16,347.88 793.92,348 793.68,348.12 793.44,348.12 793.2,348.24 792.96,348.24 792.72,348.36 792.72,348.36 " stroke-width="1.44" stroke-linecap="round" stroke-linejoin="round" />
<polyline points="785.52,349.56 785.28,349.56 785.04,349.56 784.8,349.56 784.56,349.56 784.32,349.56 784.08,349.56 783.84,349.56 783.6,349.56 783.36,349.56 783.12,349.56 783,349.56 " stroke-width="1.44" stroke-linecap="round" stroke-linejoin="round" />
<polyline points="775.8,348.36 775.56,348.36 775.32,348.24 775.08,348.12 774.84,348.12 774.6,348 774.36,348 774.24,347.88 774,347.76 773.76,347.76 773.52,347.64 773.4,347.64 " stroke-width="1.44" stroke-linecap="round" stroke-linejoin="round" />
<polyline points="766.92,344.28 766.68,344.16 766.56,344.04 766.32,343.92 766.08,343.68 765.96,343.56 765.72,343.44 765.6,343.32 765.36,343.2 765.12,343.08 765,342.84 765,342.84 " stroke-width="1.44" stroke-linecap="round" stroke-linejoin="round" />
<polyline points="759.72,337.68 759.6,337.44 759.48,337.32 759.36,337.08 759.12,336.84 759,336.72 758.88,336.48 758.76,336.36 758.64,336.12 758.52,335.88 758.4,335.76 758.28,335.64 " stroke-width="1.44" stroke-linecap="round" stroke-linejoin="round" />
<polyline points="755.04,329.16 754.92,328.92 754.8,328.68 754.8,328.44 754.68,328.2 754.56,327.96 754.56,327.84 754.44,327.6 754.44,327.36 754.32,327.12 754.2,326.88 754.2,326.76 " stroke-width="1.44" stroke-linecap="round" stroke-linejoin="round" />
<polyline points="753.12,319.56 753.12,319.32 753.12,319.08 753.12,318.84 753.12,318.6 753.12,318.36 753.12,318.12 753.12,317.88 753.12,317.64 753.12,317.4 753.12,317.16 753.12,317.16 " stroke-width="1.44" stroke-linecap="round" stroke-linejoin="round" />
<polyline points="754.2,309.84 754.32,309.6 754.32,309.48 754.44,309.24 754.56,309 754.56,308.76 754.68,308.52 754.68,308.28 754.8,308.04 754.92,307.8 754.92,307.56 755.04,307.56 " stroke-width="1.44" stroke-linecap="round" stroke-linejoin="round" />
<polygon points="724.56,340.2 724.32,340.2 724.08,340.2 723.84,340.2 723.6,340.2 723.36,340.2 723.12,340.08 722.88,340.08 722.64,340.08 722.4,339.96 722.28,339.96 722.04,339.96 721.8,339.84 721.56,339.84 721.32,339.72 721.08,339.6 720.84,339.6 720.6,339.48 720.36,339.36 720.12,339.36 720,339.24 719.76,339.12 719.52,339 719.28,338.88 719.04,338.76 718.92,338.64 718.68,338.52 718.44,338.4 718.32,338.28 718.08,338.16 717.84,338.04 717.72,337.92 717.48,337.68 717.36,337.56 717.12,337.44 717,337.2 716.76,337.08 716.64,336.96 716.4,336.72 716.28,336.6 716.16,336.36 715.92,336.24 715.8,336 715.68,335.88 715.56,335.64 715.32,335.4 715.2,335.28 715.08,335.04 714.96,334.8 714.84,334.68 714.72,334.44 714.6,334.2 714.48,333.96 714.36,333.84 714.24,333.6 714.24,333.36 714.12,333.12 714,332.88 713.88,332.64 713.88,332.52 713.76,332.28 713.76,332.04 713.64,331.8 713.64,331.56 713.52,331.32 713.52,331.08 713.4,330.84 713.4,330.6 713.4,330.36 713.28,330.12 713.28,329.88 713.28,329.64 713.28,329.4 713.28,329.16 713.28,328.92 713.28,328.68 713.28,328.44 713.28,328.2 713.28,327.96 713.28,327.72 713.4,327.48 713.4,327.24 713.4,327 713.4,326.76 713.52,326.52 713.52,326.28 713.64,326.04 713.64,325.8 713.76,325.56 713.76,325.44 713.88,325.2 714,324.96 714,324.72 714.12,324.48 714.24,324.24 714.36,324 714.48,323.88 714.6,323.64 714.72,323.4 714.84,323.16 714.96,323.04 715.08,322.8 715.2,322.56 715.32,322.44 715.44,322.2 715.56,321.96 715.68,321.84 715.92,321.6 716.04,321.48 716.16,321.24 716.4,321.12 716.52,320.88 716.64,320.76 716.88,320.52 717,320.4 717.24,320.28 717.36,320.16 717.6,319.92 717.84,319.8 717.96,319.68 718.2,319.56 718.44,319.44 718.56,319.32 718.8,319.08 719.04,318.96 719.16,318.96 719.4,318.84 719.64,318.72 719.88,318.6 720.12,318.48 720.24,318.36 720.48,318.24 720.72,318.24 720.96,318.12 721.2,318 721.44,318 721.68,317.88 721.92,317.88 722.16,317.76 722.4,317.76 722.64,317.76 722.88,317.64 723.12,317.64 723.24,317.64 723.48,317.64 723.72,317.52 723.96,317.52 724.2,317.52 724.44,317.52 724.68,317.52 724.92,317.52 725.16,317.52 725.4,317.52 725.64,317.64 725.88,317.64 726.12,317.64 726.36,317.64 726.6,317.76 726.84,317.76 727.08,317.76 727.32,317.88 727.56,317.88 727.8,318 728.04,318.12 728.28,318.12 728.52,318.24 728.76,318.36 729,318.36 729.12,318.48 729.36,318.6 729.6,318.72 729.84,318.84 730.08,318.96 730.2,319.08 730.44,319.2 730.68,319.32 730.8,319.44 731.04,319.56 731.28,319.68 731.4,319.8 731.64,319.92 731.76,320.16 732,320.28 732.12,320.4 732.36,320.64 732.48,320.76 732.72,320.88 732.84,321.12 733.08,321.24 733.2,321.48 733.32,321.6 733.44,321.84 733.68,321.96 733.8,322.2 733.92,322.44 734.04,322.56 734.16,322.8 734.28,323.04 734.4,323.16 734.52,323.4 734.64,323.64 734.76,323.88 734.88,324.12 735,324.24 735.12,324.48 735.12,324.72 735.24,324.96 735.36,325.2 735.36,325.44 735.48,325.68 735.6,325.92 735.6,326.16 735.6,326.28 735.72,326.52 735.72,326.76 735.84,327 735.84,327.24 735.84,327.48 735.84,327.72 735.96,327.96 735.96,328.2 735.96,328.44 735.96,328.68 735.96,328.92 735.96,329.16 735.96,329.4 735.96,329.64 735.84,329.88 735.84,330.12 735.84,330.36 735.84,330.6 735.72,330.84 735.72,331.08 735.72,331.32 735.6,331.56 735.6,331.8 735.48,332.04 735.48,332.28 735.36,332.52 735.24,332.76 735.24,332.88 735.12,333.12 735,333.36 734.88,333.6 734.76,333.84 734.76,334.08 734.64,334.2 734.52,334.44 734.4,334.68 734.28,334.92 734.16,335.04 733.92,335.28 733.8,335.52 733.68,335.64 733.56,335.88 733.44,336 733.2,336.24 733.08,336.36 732.96,336.6 732.72,336.72 732.6,336.96 732.36,337.08 732.24,337.32 732.12,337.44 731.88,337.56 731.64,337.68 731.52,337.92 731.28,338.04 731.16,338.16 730.92,338.28 730.68,338.4 730.56,338.52 730.32,338.64 730.08,338.76 729.84,338.88 729.72,339 729.48,339.12 729.24,339.24 729,339.36 728.76,339.36 728.52,339.48 728.4,339.6 728.16,339.6 727.92,339.72 727.68,339.84 727.44,339.84 727.2,339.96 726.96,339.96 726.72,339.96 726.48,340.08 726.24,340.08 726,340.08 725.76,340.2 725.52,340.2 725.28,340.2 725.04,340.2 724.8,340.2 " stroke-width="1.44" stroke-linejoin="round" />
<polyline points="724.56,355.8 724.32,355.8 724.08,355.8 723.84,355.8 723.6,355.8 723.36,355.8 723.12,355.8 722.88,355.8 722.64,355.8 722.4,355.68 722.16,355.68 721.92,355.68 721.68,355.68 721.44,355.68 721.2,355.56 720.96,355.56 720.72,355.56 720.6,355.56 720.36,355.44 720.12,355.44 719.88,355.44 719.64,355.32 719.4,355.32 719.16,355.2 718.92,355.2 718.68,355.2 718.44,355.08 718.2,355.08 717.96,354.96 717.72,354.96 717.48,354.84 717.24,354.84 717,354.72 716.76,354.6 716.52,354.6 716.28,354.48 716.16,354.48 715.92,354.36 715.68,354.24 715.44,354.24 715.2,354.12 714.96,354 714.72,354 714.48,353.88 714.36,353.76 714.12,353.64 713.88,353.64 713.64,353.52 713.4,353.4 713.16,353.28 713.04,353.16 712.8,353.04 712.56,352.92 712.32,352.92 712.08,352.8 711.96,352.68 711.72,352.56 711.48,352.44 711.24,352.32 711.12,352.2 710.88,352.08 710.64,351.96 710.52,351.84 710.28,351.72 710.04,351.6 709.92,351.36 709.68,351.24 709.44,351.12 709.32,351 709.08,350.88 708.84,350.76 708.72,350.64 708.48,350.4 708.24,350.28 708.12,350.16 707.88,350.04 707.76,349.92 707.52,349.68 707.4,349.56 707.16,349.44 707.04,349.2 706.8,349.08 706.68,348.96 706.44,348.72 706.32,348.6 706.08,348.48 705.96,348.24 705.72,348.12 705.6,348 705.36,347.76 705.24,347.64 705.12,347.4 704.88,347.28 704.76,347.04 704.64,346.92 704.4,346.68 704.28,346.56 704.16,346.32 703.92,346.2 703.8,345.96 703.68,345.84 703.56,345.6 703.32,345.48 703.2,345.24 703.08,345 702.96,344.88 702.84,344.64 702.6,344.52 702.48,344.28 702.36,344.04 702.24,343.92 702.12,343.68 702,343.44 701.88,343.32 701.76,343.08 701.64,342.84 701.52,342.6 701.4,342.48 701.28,342.24 701.16,342 701.04,341.88 700.92,341.64 700.8,341.4 700.68,341.16 700.56,340.92 700.44,340.8 700.32,340.56 700.2,340.32 700.08,340.08 700.08,339.84 699.96,339.72 699.84,339.48 699.72,339.24 699.6,339 699.6,338.76 699.48,338.52 699.36,338.28 699.36,338.16 699.24,337.92 699.12,337.68 699.12,337.44 699,337.2 698.88,336.96 698.88,336.72 698.76,336.48 698.76,336.24 698.64,336 698.64,335.88 698.52,335.64 698.52,335.4 698.4,335.16 698.4,334.92 698.28,334.68 698.28,334.44 698.16,334.2 698.16,333.96 698.16,333.72 698.04,333.48 698.04,333.24 698.04,333 697.92,332.76 697.92,332.52 697.92,332.28 697.8,332.04 697.8,331.8 697.8,331.56 697.8,331.32 697.8,331.08 697.8,330.84 697.68,330.6 697.68,330.36 697.68,330.12 697.68,329.88 697.68,329.64 697.68,329.4 697.68,329.16 697.68,328.92 697.68,328.68 697.68,328.44 697.68,328.2 697.68,327.96 697.68,327.72 697.68,327.48 697.68,327.24 697.68,327 697.8,326.76 697.8,326.52 697.8,326.28 697.8,326.04 697.8,325.8 697.92,325.56 697.92,325.32 697.92,325.08 697.92,324.84 698.04,324.6 698.04,324.36 698.04,324.12 698.16,323.88 698.16,323.64 698.16,323.52 698.28,323.28 698.28,323.04 698.4,322.8 698.4,322.56 698.52,322.32 698.52,322.08 698.64,321.84 698.64,321.6 698.76,321.36 698.76,321.12 698.88,320.88 699,320.64 699,320.4 699.12,320.28 699.12,320.04 699.24,319.8 699.36,319.56 699.48,319.32 699.48,319.08 699.6,318.84 699.72,318.6 699.72,318.48 699.84,318.24 699.96,318 700.08,317.76 700.2,317.52 700.32,317.28 700.32,317.16 700.44,316.92 700.56,316.68 700.68,316.44 700.8,316.2 700.92,316.08 701.04,315.84 701.16,315.6 701.28,315.36 701.4,315.24 701.52,315 701.64,314.76 701.76,314.64 701.88,314.4 702,314.16 702.12,314.04 702.24,313.8 702.48,313.56 702.6,313.44 702.72,313.2 702.84,312.96 702.96,312.84 703.08,312.6 703.32,312.48 703.44,312.24 703.56,312 703.68,311.88 703.92,311.64 704.04,311.52 704.16,311.28 704.28,311.16 704.52,310.92 704.64,310.8 704.76,310.56 705,310.44 705.12,310.2 705.36,310.08 705.48,309.96 705.6,309.72 705.84,309.6 705.96,309.36 706.2,309.24 706.32,309.12 706.56,308.88 706.68,308.76 706.92,308.64 707.04,308.4 707.28,308.28 707.4,308.16 707.64,307.92 707.76,307.8 708,307.68 708.24,307.56 708.36,307.32 708.6,307.2 708.72,307.08 708.96,306.96 709.2,306.84 709.32,306.72 709.56,306.6 709.8,306.36 709.92,306.24 710.16,306.12 710.4,306 710.52,305.88 710.76,305.76 711,305.64 711.12,305.52 711.36,305.4 711.6,305.28 711.84,305.16 711.96,305.04 712.2,304.92 712.44,304.8 712.68,304.68 712.92,304.68 713.04,304.56 713.28,304.44 713.52,304.32 713.76,304.2 714,304.08 714.24,304.08 714.36,303.96 714.6,303.84 714.84,303.72 715.08,303.72 715.32,303.6 715.56,303.48 715.8,303.48 715.92,303.36 716.16,303.24 716.4,303.24 716.64,303.12 716.88,303.12 717.12,303 717.36,302.88 717.6,302.88 717.84,302.76 718.08,302.76 718.32,302.64 718.56,302.64 718.8,302.64 719.04,302.52 719.16,302.52 719.4,302.4 719.64,302.4 719.88,302.4 720.12,302.28 720.36,302.28 720.6,302.28 720.84,302.16 721.08,302.16 721.32,302.16 721.56,302.16 721.8,302.04 722.04,302.04 722.28,302.04 722.52,302.04 722.76,302.04 723,302.04 723.24,301.92 723.48,301.92 723.72,301.92 723.96,301.92 724.2,301.92 724.44,301.92 724.68,301.92 724.92,301.92 725.16,301.92 725.4,301.92 725.64,301.92 725.88,301.92 726.12,302.04 726.36,302.04 726.6,302.04 726.84,302.04 727.08,302.04 727.32,302.04 727.56,302.16 727.8,302.16 728.04,302.16 728.28,302.16 728.52,302.28 728.76,302.28 729,302.28 729.24,302.28 729.48,302.4 729.72,302.4 729.96,302.52 730.2,302.52 730.44,302.52 730.68,302.64 730.92,302.64 731.16,302.76 731.4,302.76 731.64,302.88 731.76,302.88 732,303 732.24,303 732.48,303.12 732.72,303.24 732.96,303.24 733.2,303.36 733.44,303.48 733.68,303.48 733.92,303.6 734.04,303.72 734.28,303.72 734.52,303.84 734.76,303.96 735,303.96 735.24,304.08 735.48,304.2 735.6,304.32 735.84,304.44 736.08,304.56 736.32,304.56 736.56,304.68 736.68,304.8 736.92,304.92 737.16,305.04 737.4,305.16 737.52,305.28 737.76,305.4 738,305.52 738.24,305.64 738.36,305.76 738.6,305.88 738.84,306 739.08,306.12 739.2,306.24 739.44,306.36 739.68,306.48 739.8,306.6 740.04,306.84 740.28,306.96 740.4,307.08 740.64,307.2 740.76,307.32 741,307.44 741.24,307.68 741.36,307.8 741.6,307.92 741.72,308.04 741.96,308.28 742.08,308.4 742.32,308.52 742.44,308.76 742.68,308.88 742.8,309 743.04,309.24 743.16,309.36 743.4,309.48 743.52,309.72 743.64,309.84 743.88,310.08 744,310.2 744.24,310.44 744.36,310.56 744.48,310.8 744.72,310.92 744.84,311.04 744.96,311.28 745.2,311.52 745.32,311.64 745.44,311.88 745.56,312 745.8,312.24 745.92,312.36 746.04,312.6 746.16,312.72 746.4,312.96 746.52,313.2 746.64,313.32 746.76,313.56 746.88,313.8 747,313.92 747.12,314.16 747.24,314.4 747.48,314.52 747.6,314.76 747.72,315 747.84,315.12 747.96,315.36 748.08,315.6 748.2,315.84 748.32,315.96 748.44,316.2 748.44,316.44 748.56,316.68 748.68,316.8 748.8,317.04 748.92,317.28 749.04,317.52 749.16,317.76 749.28,318 749.28,318.12 749.4,318.36 749.52,318.6 749.64,318.84 749.64,319.08 749.76,319.32 749.88,319.56 750,319.68 750,319.92 750.12,320.16 750.12,320.4 750.24,320.64 750.36,320.88 750.36,321.12 750.48,321.36 750.48,321.6 750.6,321.84 " stroke-width="1.44" stroke-linecap="round" stroke-linejoin="round" />
<polyline points="750.6,321.84 750.6,321.96 750.72,322.2 750.72,322.44 750.84,322.68 750.84,322.92 750.96,323.16 750.96,323.4 751.08,323.64 751.08,323.88 751.08,324.12 751.2,324.36 751.2,324.6 751.2,324.84 751.32,325.08 751.32,325.32 751.32,325.56 751.32,325.8 751.44,326.04 751.44,326.28 751.44,326.52 751.44,326.76 751.44,327 751.44,327.24 751.56,327.48 751.56,327.72 751.56,327.96 751.56,328.2 751.56,328.44 751.56,328.68 751.56,328.92 751.56,329.16 751.56,329.4 751.56,329.64 751.56,329.88 751.56,330.12 751.56,330.36 751.44,330.6 751.44,330.84 751.44,331.08 751.44,331.32 751.44,331.56 751.44,331.8 751.32,332.04 751.32,332.28 751.32,332.52 751.32,332.76 751.2,333 751.2,333.24 751.2,333.48 751.08,333.72 751.08,333.96 751.08,334.2 750.96,334.44 750.96,334.56 750.84,334.8 750.84,335.04 750.72,335.28 750.72,335.52 750.6,335.76 750.6,336 750.48,336.24 750.48,336.48 750.36,336.72 750.36,336.96 750.24,337.2 750.12,337.44 750.12,337.56 750,337.8 749.88,338.04 749.88,338.28 749.76,338.52 749.64,338.76 749.52,339 749.52,339.24 749.4,339.36 749.28,339.6 749.16,339.84 749.16,340.08 749.04,340.32 748.92,340.56 748.8,340.68 748.68,340.92 748.56,341.16 748.44,341.4 748.32,341.52 748.2,341.76 748.08,342 747.96,342.24 747.84,342.36 747.72,342.6 747.6,342.84 747.48,343.08 747.36,343.2 747.24,343.44 747.12,343.68 747,343.8 746.88,344.04 746.76,344.28 746.64,344.4 746.4,344.64 746.28,344.88 746.16,345 746.04,345.24 745.92,345.36 745.68,345.6 745.56,345.72 745.44,345.96 745.32,346.2 745.08,346.32 744.96,346.56 744.84,346.68 744.6,346.92 744.48,347.04 744.36,347.28 744.12,347.4 744,347.52 743.88,347.76 743.64,347.88 743.52,348.12 743.28,348.24 743.16,348.36 742.92,348.6 742.8,348.72 742.56,348.96 742.44,349.08 742.2,349.2 742.08,349.32 741.84,349.56 741.72,349.68 741.48,349.8 741.36,350.04 741.12,350.16 741,350.28 740.76,350.4 740.52,350.52 740.4,350.76 740.16,350.88 740.04,351 739.8,351.12 739.56,351.24 739.44,351.36 739.2,351.48 738.96,351.6 738.72,351.84 738.6,351.96 738.36,352.08 738.12,352.2 738,352.32 737.76,352.44 737.52,352.56 737.28,352.56 737.16,352.68 736.92,352.8 736.68,352.92 736.44,353.04 736.2,353.16 736.08,353.28 735.84,353.4 735.6,353.52 735.36,353.52 735.12,353.64 734.88,353.76 734.76,353.88 734.52,353.88 734.28,354 734.04,354.12 733.8,354.24 733.56,354.24 733.32,354.36 733.2,354.48 732.96,354.48 732.72,354.6 732.48,354.6 732.24,354.72 732,354.72 731.76,354.84 731.52,354.96 731.28,354.96 731.04,355.08 730.8,355.08 730.56,355.08 730.32,355.2 730.08,355.2 729.84,355.32 729.72,355.32 729.48,355.32 729.24,355.44 729,355.44 728.76,355.44 728.52,355.56 728.28,355.56 728.04,355.56 727.8,355.68 727.56,355.68 727.32,355.68 727.08,355.68 726.84,355.68 726.6,355.68 726.36,355.8 726.12,355.8 725.88,355.8 725.64,355.8 725.4,355.8 725.16,355.8 724.92,355.8 724.68,355.8 724.56,355.8 " stroke-width="1.44" stroke-linecap="round" stroke-linejoin="round" />
</g>
</svg>
