G04 (Genere par PCBNEW (2006-08-28)) le 7/6/2007-02:50:25*
G01*
G70*
G90*
%MOIN*%
G04 Gerber Fmt 3.4, Leading zero omitted, Abs format*
%FSLAX34Y34*%
G04 APERTURE LIST*
%ADD10C,0.015000*%
%ADD11R,0.080000X0.080000*%
%ADD12C,0.080000*%
%ADD13C,0.150000*%
%ADD14C,0.055000*%
%ADD15C,0.045000*%
%ADD16C,0.040000*%
%ADD17C,0.005000*%
%ADD18C,0.001000*%
%ADD19C,0.012000*%
%ADD20C,0.008000*%
%ADD21R,0.100000X0.100000*%
%ADD22C,0.100000*%
%ADD23C,0.170000*%
%ADD24C,0.075000*%
G04 APERTURE END LIST*
G54D10*
X35030Y32500D02*
X35030Y40000D01*
X46030Y32500D02*
X35030Y32500D01*
X46030Y40000D02*
X46030Y32500D01*
X35030Y40000D02*
X46030Y40000D01*
G54D11*
X39030Y35250D03*
G54D12*
X39030Y34250D03*
X41530Y34250D03*
X42530Y34750D03*
X41530Y35250D03*
G54D13*
X36780Y34750D03*
X44330Y34750D03*
G54D11*
X41530Y37740D03*
G54D12*
X42530Y37740D03*
X43530Y37740D03*
G54D14*
X36030Y36980D03*
X39030Y36980D03*
X36020Y38990D03*
X39020Y38990D03*
G54D15*
X36780Y34750D03*
X44280Y34750D03*
G54D16*
X41530Y37740D02*
X40640Y37860D01*
X40530Y33250D02*
X38030Y33250D01*
X40640Y37860D02*
X39820Y37870D01*
X41530Y34250D02*
X40530Y33250D01*
X39820Y37870D02*
X37780Y38000D01*
X38030Y33250D02*
X38030Y37750D01*
X36020Y38990D02*
X36030Y38000D01*
X36030Y38000D02*
X36030Y36980D01*
X38030Y38000D02*
X37780Y38000D01*
X37780Y38000D02*
X36030Y38000D01*
X38030Y37750D02*
X38030Y38000D01*
X42530Y34750D02*
X44670Y36830D01*
X44670Y36830D02*
X44870Y37260D01*
X44880Y39090D02*
X42520Y39070D01*
X44870Y37260D02*
X44880Y39090D01*
X42520Y39070D02*
X42530Y37740D01*
X39020Y38990D02*
X42520Y38990D01*
X42520Y38990D02*
X42520Y39070D01*
X39030Y34250D02*
X40030Y34250D01*
X43530Y37740D02*
X43530Y36750D01*
X41030Y35250D02*
X41530Y35250D01*
X43530Y36750D02*
X43030Y36250D01*
X43030Y36250D02*
X42530Y36250D01*
X42530Y36250D02*
X41530Y35250D01*
X40030Y34250D02*
X41030Y35250D01*
X39030Y36980D02*
X39030Y35250D01*
G54D17*
X45400Y37750D02*
X45400Y33150D01*
X45350Y37350D02*
X45350Y33150D01*
X45300Y37000D02*
X45300Y33150D01*
X45250Y36650D02*
X45250Y33150D01*
X45200Y36450D02*
X45200Y33150D01*
X45150Y36350D02*
X45150Y33150D01*
X45100Y36300D02*
X45100Y33150D01*
X45050Y36200D02*
X45050Y33150D01*
X45000Y34500D02*
X45000Y33150D01*
X45000Y36150D02*
X45000Y35000D01*
X44950Y34400D02*
X44950Y33150D01*
X44950Y36100D02*
X44950Y35100D01*
X44900Y34300D02*
X44900Y33150D01*
X44900Y36050D02*
X44900Y35200D01*
X44850Y34250D02*
X44850Y33150D01*
X44850Y36000D02*
X44850Y35250D01*
X44800Y34200D02*
X44800Y33150D01*
X44800Y35950D02*
X44800Y35300D01*
X44750Y34150D02*
X44750Y33150D01*
X44750Y35900D02*
X44750Y35350D01*
X44700Y34100D02*
X44700Y33150D01*
X44700Y35850D02*
X44700Y35400D01*
X44650Y34050D02*
X44650Y33150D01*
X44650Y35800D02*
X44650Y35450D01*
X44600Y34050D02*
X44600Y33150D01*
X44600Y35750D02*
X44600Y35450D01*
X44550Y34050D02*
X44550Y33150D01*
X44550Y35700D02*
X44550Y35450D01*
X44500Y34000D02*
X44500Y33150D01*
X44500Y35650D02*
X44500Y35500D01*
X44450Y34000D02*
X44450Y33150D01*
X44450Y35600D02*
X44450Y35500D01*
X44400Y34000D02*
X44400Y33150D01*
X44400Y35550D02*
X44400Y35500D01*
X44350Y34000D02*
X44350Y33150D01*
X44300Y34000D02*
X44300Y33150D01*
X44250Y34000D02*
X44250Y33150D01*
X44200Y34000D02*
X44200Y33150D01*
X44150Y34000D02*
X44150Y33150D01*
X44100Y34000D02*
X44100Y33150D01*
X44050Y34000D02*
X44050Y33150D01*
X44000Y34050D02*
X44000Y33150D01*
X43950Y34050D02*
X43950Y33150D01*
X43900Y34100D02*
X43900Y33150D01*
X43850Y34100D02*
X43850Y33150D01*
X43800Y34150D02*
X43800Y33150D01*
X43750Y34200D02*
X43750Y33150D01*
X43700Y34250D02*
X43700Y33150D01*
X43650Y34300D02*
X43650Y33150D01*
X43600Y34400D02*
X43600Y33150D01*
X43550Y34550D02*
X43550Y33150D01*
X43500Y34650D02*
X43500Y33150D01*
X43450Y34600D02*
X43450Y33150D01*
X43400Y34550D02*
X43400Y33150D01*
X43350Y34500D02*
X43350Y33150D01*
X43300Y34450D02*
X43300Y33150D01*
X43250Y34400D02*
X43250Y33150D01*
X43200Y34350D02*
X43200Y33150D01*
X43150Y34300D02*
X43150Y33150D01*
X43100Y34250D02*
X43100Y33150D01*
X43050Y34200D02*
X43050Y33150D01*
X43000Y34150D02*
X43000Y33150D01*
X42950Y34150D02*
X42950Y33150D01*
X42900Y34100D02*
X42900Y33150D01*
X42850Y34050D02*
X42850Y33150D01*
X42800Y34050D02*
X42800Y33150D01*
X42750Y34050D02*
X42750Y33150D01*
X42700Y34000D02*
X42700Y33150D01*
X42650Y34000D02*
X42650Y33150D01*
X42600Y34000D02*
X42600Y33150D01*
X42550Y34000D02*
X42550Y33150D01*
X42500Y34000D02*
X42500Y33150D01*
X42450Y34000D02*
X42450Y33150D01*
X42400Y34000D02*
X42400Y33150D01*
X42350Y34000D02*
X42350Y33150D01*
X42300Y34050D02*
X42300Y33150D01*
X42250Y34050D02*
X42250Y33150D01*
X42200Y34100D02*
X42200Y33150D01*
X42150Y34100D02*
X42150Y33150D01*
X42100Y34150D02*
X42100Y33150D01*
X42100Y36900D02*
X42100Y36850D01*
X42050Y34200D02*
X42050Y33150D01*
X42050Y36900D02*
X42050Y36800D01*
X42000Y34250D02*
X42000Y33150D01*
X42000Y36950D02*
X42000Y36750D01*
X41950Y34300D02*
X41950Y33150D01*
X41950Y37000D02*
X41950Y36700D01*
X41900Y34350D02*
X41900Y33150D01*
X41900Y37050D02*
X41900Y36650D01*
X41850Y34450D02*
X41850Y33150D01*
X41850Y37100D02*
X41850Y36600D01*
X41800Y34550D02*
X41800Y33150D01*
X41800Y37150D02*
X41800Y36550D01*
X41750Y34550D02*
X41750Y33150D01*
X41750Y37200D02*
X41750Y36500D01*
X41750Y38350D02*
X41750Y38250D01*
X41700Y34500D02*
X41700Y33150D01*
X41700Y37300D02*
X41700Y36450D01*
X41700Y38350D02*
X41700Y38150D01*
X41650Y34500D02*
X41650Y33150D01*
X41650Y37450D02*
X41650Y36400D01*
X41650Y38350D02*
X41650Y38050D01*
X41600Y34500D02*
X41600Y33150D01*
X41600Y38350D02*
X41600Y36350D01*
X41550Y34500D02*
X41550Y33150D01*
X41550Y38350D02*
X41550Y36300D01*
X41500Y34500D02*
X41500Y33150D01*
X41500Y38350D02*
X41500Y36250D01*
X41450Y34500D02*
X41450Y33150D01*
X41450Y38350D02*
X41450Y36200D01*
X41400Y34500D02*
X41400Y33150D01*
X41400Y38350D02*
X41400Y36150D01*
X41350Y34500D02*
X41350Y33150D01*
X41350Y38300D02*
X41350Y36100D01*
X41300Y34450D02*
X41300Y33150D01*
X41300Y38300D02*
X41300Y36050D01*
X41250Y34400D02*
X41250Y33150D01*
X41250Y38300D02*
X41250Y36000D01*
X41200Y34350D02*
X41200Y33150D01*
X41200Y38300D02*
X41200Y36000D01*
X41150Y34300D02*
X41150Y33150D01*
X41150Y38300D02*
X41150Y36000D01*
X41100Y34250D02*
X41100Y33150D01*
X41100Y38300D02*
X41100Y36000D01*
X41050Y34200D02*
X41050Y33150D01*
X41050Y38300D02*
X41050Y36000D01*
X41000Y34150D02*
X41000Y33150D01*
X41000Y38300D02*
X41000Y36000D01*
X40950Y34100D02*
X40950Y33150D01*
X40950Y38300D02*
X40950Y36000D01*
X40900Y34050D02*
X40900Y33150D01*
X40900Y38300D02*
X40900Y36000D01*
X40850Y34000D02*
X40850Y33150D01*
X40850Y38300D02*
X40850Y36000D01*
X40800Y33950D02*
X40800Y33150D01*
X40800Y38300D02*
X40800Y35950D01*
X40750Y33900D02*
X40750Y33150D01*
X40750Y38300D02*
X40750Y35950D01*
X40700Y33850D02*
X40700Y33150D01*
X40700Y38300D02*
X40700Y35900D01*
X40650Y33800D02*
X40650Y33150D01*
X40650Y38300D02*
X40650Y35900D01*
X40600Y33750D02*
X40600Y33150D01*
X40600Y38300D02*
X40600Y35850D01*
X40550Y33700D02*
X40550Y33150D01*
X40550Y38300D02*
X40550Y35800D01*
X40500Y33650D02*
X40500Y33150D01*
X40500Y38300D02*
X40500Y35750D01*
X40450Y33650D02*
X40450Y33150D01*
X40450Y38300D02*
X40450Y35700D01*
X40400Y33600D02*
X40400Y33150D01*
X40400Y38300D02*
X40400Y35650D01*
X40350Y33550D02*
X40350Y33150D01*
X40350Y38300D02*
X40350Y35600D01*
X40300Y33550D02*
X40300Y33150D01*
X40300Y38300D02*
X40300Y35550D01*
X40250Y33550D02*
X40250Y33150D01*
X40250Y38300D02*
X40250Y35500D01*
X40200Y33500D02*
X40200Y33150D01*
X40200Y38300D02*
X40200Y35450D01*
X40150Y33500D02*
X40150Y33150D01*
X40150Y38300D02*
X40150Y35400D01*
X40100Y33500D02*
X40100Y33150D01*
X40100Y38300D02*
X40100Y35350D01*
X40050Y33500D02*
X40050Y33150D01*
X40050Y38300D02*
X40050Y35300D01*
X40000Y33500D02*
X40000Y33150D01*
X40000Y38250D02*
X40000Y35250D01*
X39950Y33500D02*
X39950Y33150D01*
X39950Y38250D02*
X39950Y35200D01*
X39900Y33500D02*
X39900Y33150D01*
X39900Y38250D02*
X39900Y35150D01*
X39850Y33500D02*
X39850Y33150D01*
X39850Y38250D02*
X39850Y35100D01*
X39800Y33500D02*
X39800Y33150D01*
X39800Y36750D02*
X39800Y35050D01*
X39800Y38250D02*
X39800Y37200D01*
X39750Y33500D02*
X39750Y33150D01*
X39750Y35150D02*
X39750Y35000D01*
X39750Y38250D02*
X39750Y37350D01*
X39700Y33500D02*
X39700Y33150D01*
X39700Y38250D02*
X39700Y37450D01*
X39650Y33500D02*
X39650Y33150D01*
X39650Y38250D02*
X39650Y37500D01*
X39600Y33500D02*
X39600Y33150D01*
X39600Y38250D02*
X39600Y37550D01*
X39550Y33500D02*
X39550Y33150D01*
X39550Y38250D02*
X39550Y37600D01*
X39500Y33500D02*
X39500Y33150D01*
X39500Y38250D02*
X39500Y37650D01*
X39450Y33500D02*
X39450Y33150D01*
X39450Y38250D02*
X39450Y37700D01*
X39400Y33500D02*
X39400Y33150D01*
X39400Y38250D02*
X39400Y37700D01*
X39350Y33500D02*
X39350Y33150D01*
X39350Y38250D02*
X39350Y37750D01*
X39300Y33500D02*
X39300Y33150D01*
X39300Y38200D02*
X39300Y37750D01*
X39250Y33500D02*
X39250Y33150D01*
X39250Y38200D02*
X39250Y37750D01*
X39200Y33500D02*
X39200Y33150D01*
X39200Y38200D02*
X39200Y37800D01*
X39150Y33500D02*
X39150Y33150D01*
X39150Y38200D02*
X39150Y37800D01*
X39100Y33500D02*
X39100Y33150D01*
X39100Y38150D02*
X39100Y37800D01*
X39050Y33500D02*
X39050Y33150D01*
X39050Y38150D02*
X39050Y37800D01*
X39000Y33500D02*
X39000Y33150D01*
X39000Y38150D02*
X39000Y37800D01*
X38950Y33500D02*
X38950Y33150D01*
X38950Y38150D02*
X38950Y37800D01*
X38900Y33500D02*
X38900Y33150D01*
X38900Y38150D02*
X38900Y37800D01*
X38850Y33500D02*
X38850Y33150D01*
X38850Y38200D02*
X38850Y37800D01*
X38800Y33550D02*
X38800Y33150D01*
X38800Y38200D02*
X38800Y37750D01*
X38750Y33550D02*
X38750Y33150D01*
X38750Y38200D02*
X38750Y37750D01*
X38700Y33600D02*
X38700Y33150D01*
X38700Y38250D02*
X38700Y37750D01*
X38650Y33600D02*
X38650Y33150D01*
X38650Y38250D02*
X38650Y37700D01*
X38600Y33650D02*
X38600Y33150D01*
X38600Y38300D02*
X38600Y37700D01*
X38550Y33700D02*
X38550Y33150D01*
X38550Y38300D02*
X38550Y37650D01*
X38500Y33750D02*
X38500Y33150D01*
X38500Y38350D02*
X38500Y37600D01*
X38450Y33800D02*
X38450Y33150D01*
X38450Y34800D02*
X38450Y34700D01*
X38450Y38400D02*
X38450Y37550D01*
X38400Y33850D02*
X38400Y33150D01*
X38400Y34850D02*
X38400Y34650D01*
X38400Y38450D02*
X38400Y37500D01*
X38350Y33950D02*
X38350Y33150D01*
X38350Y34950D02*
X38350Y34550D01*
X38350Y38550D02*
X38350Y37450D01*
X38300Y36650D02*
X38300Y33150D01*
X38300Y38600D02*
X38300Y37350D01*
X38250Y36800D02*
X38250Y33150D01*
X38250Y38750D02*
X38250Y37200D01*
X38250Y39350D02*
X38250Y39250D01*
X38200Y39350D02*
X38200Y33150D01*
X38150Y39350D02*
X38150Y33150D01*
X38100Y39350D02*
X38100Y33150D01*
X38050Y39350D02*
X38050Y33150D01*
X38000Y39350D02*
X38000Y33150D01*
X37950Y39350D02*
X37950Y33150D01*
X37900Y39350D02*
X37900Y33150D01*
X37850Y39350D02*
X37850Y33150D01*
X37800Y39350D02*
X37800Y33150D01*
X37750Y39350D02*
X37750Y33150D01*
X37700Y39350D02*
X37700Y33150D01*
X37650Y39350D02*
X37650Y33150D01*
X37600Y39350D02*
X37600Y33150D01*
X37550Y39350D02*
X37550Y33150D01*
X37500Y34500D02*
X37500Y33150D01*
X37500Y39350D02*
X37500Y35000D01*
X37450Y34400D02*
X37450Y33150D01*
X37450Y39350D02*
X37450Y35100D01*
X37400Y34300D02*
X37400Y33150D01*
X37400Y39350D02*
X37400Y35200D01*
X37350Y34250D02*
X37350Y33150D01*
X37350Y39350D02*
X37350Y35250D01*
X37300Y34200D02*
X37300Y33150D01*
X37300Y39350D02*
X37300Y35300D01*
X37250Y34150D02*
X37250Y33150D01*
X37250Y39350D02*
X37250Y35350D01*
X37200Y34100D02*
X37200Y33150D01*
X37200Y39350D02*
X37200Y35400D01*
X37150Y34050D02*
X37150Y33150D01*
X37150Y39350D02*
X37150Y35450D01*
X37100Y34050D02*
X37100Y33150D01*
X37100Y39350D02*
X37100Y35450D01*
X37050Y34050D02*
X37050Y33150D01*
X37050Y39350D02*
X37050Y35450D01*
X37000Y34000D02*
X37000Y33150D01*
X37000Y39350D02*
X37000Y35500D01*
X36950Y34000D02*
X36950Y33150D01*
X36950Y39350D02*
X36950Y35500D01*
X36900Y34000D02*
X36900Y33150D01*
X36900Y39350D02*
X36900Y35500D01*
X36850Y34000D02*
X36850Y33150D01*
X36850Y39350D02*
X36850Y35500D01*
X36800Y34000D02*
X36800Y33150D01*
X36800Y39350D02*
X36800Y35500D01*
X36750Y34000D02*
X36750Y33150D01*
X36750Y39350D02*
X36750Y35500D01*
X36700Y34000D02*
X36700Y33150D01*
X36700Y39350D02*
X36700Y35500D01*
X36650Y34000D02*
X36650Y33150D01*
X36650Y39350D02*
X36650Y35500D01*
X36600Y34000D02*
X36600Y33150D01*
X36600Y39350D02*
X36600Y35500D01*
X36550Y34000D02*
X36550Y33150D01*
X36550Y39350D02*
X36550Y35500D01*
X36500Y34050D02*
X36500Y33150D01*
X36500Y39350D02*
X36500Y35450D01*
X36450Y34050D02*
X36450Y33150D01*
X36450Y39350D02*
X36450Y35450D01*
X36400Y34100D02*
X36400Y33150D01*
X36400Y39350D02*
X36400Y35400D01*
X36350Y34100D02*
X36350Y33150D01*
X36350Y39350D02*
X36350Y35400D01*
X36300Y34150D02*
X36300Y33150D01*
X36300Y39350D02*
X36300Y35350D01*
X36250Y34200D02*
X36250Y33150D01*
X36250Y39350D02*
X36250Y35300D01*
X36200Y34250D02*
X36200Y33150D01*
X36200Y39350D02*
X36200Y35250D01*
X36150Y34300D02*
X36150Y33150D01*
X36150Y39350D02*
X36150Y35200D01*
X36100Y34400D02*
X36100Y33150D01*
X36100Y39350D02*
X36100Y35100D01*
X36050Y34550D02*
X36050Y33150D01*
X36050Y39350D02*
X36050Y34950D01*
X36000Y39350D02*
X36000Y33150D01*
X35950Y39350D02*
X35950Y33150D01*
X35900Y39350D02*
X35900Y33150D01*
X35850Y39350D02*
X35850Y33150D01*
X35800Y39350D02*
X35800Y33150D01*
X35750Y39350D02*
X35750Y33150D01*
X35700Y39350D02*
X35700Y33150D01*
X35650Y39350D02*
X35650Y33150D01*
X35650Y33150D02*
X45400Y33150D01*
X35650Y33200D02*
X45400Y33200D01*
X35650Y33250D02*
X45400Y33250D01*
X35650Y33300D02*
X45400Y33300D01*
X35650Y33350D02*
X45400Y33350D01*
X35650Y33400D02*
X45400Y33400D01*
X35650Y33450D02*
X45400Y33450D01*
X35650Y33500D02*
X45400Y33500D01*
X40250Y33550D02*
X45400Y33550D01*
X35650Y33550D02*
X38800Y33550D01*
X40400Y33600D02*
X45400Y33600D01*
X35650Y33600D02*
X38700Y33600D01*
X40450Y33650D02*
X45400Y33650D01*
X35650Y33650D02*
X38600Y33650D01*
X40550Y33700D02*
X45400Y33700D01*
X35650Y33700D02*
X38550Y33700D01*
X40600Y33750D02*
X45400Y33750D01*
X35650Y33750D02*
X38500Y33750D01*
X40650Y33800D02*
X45400Y33800D01*
X35650Y33800D02*
X38450Y33800D01*
X40700Y33850D02*
X45400Y33850D01*
X35650Y33850D02*
X38400Y33850D01*
X40750Y33900D02*
X45400Y33900D01*
X35650Y33900D02*
X38350Y33900D01*
X40800Y33950D02*
X45400Y33950D01*
X35650Y33950D02*
X38350Y33950D01*
X40850Y34000D02*
X45400Y34000D01*
X35650Y34000D02*
X38300Y34000D01*
X44550Y34050D02*
X45400Y34050D01*
X42750Y34050D02*
X44000Y34050D01*
X40900Y34050D02*
X42300Y34050D01*
X37050Y34050D02*
X38300Y34050D01*
X35650Y34050D02*
X36500Y34050D01*
X44700Y34100D02*
X45400Y34100D01*
X42900Y34100D02*
X43900Y34100D01*
X40950Y34100D02*
X42200Y34100D01*
X37200Y34100D02*
X38300Y34100D01*
X35650Y34100D02*
X36400Y34100D01*
X44750Y34150D02*
X45400Y34150D01*
X42950Y34150D02*
X43800Y34150D01*
X41000Y34150D02*
X42100Y34150D01*
X37250Y34150D02*
X38300Y34150D01*
X35650Y34150D02*
X36300Y34150D01*
X44800Y34200D02*
X45400Y34200D01*
X43050Y34200D02*
X43750Y34200D01*
X41050Y34200D02*
X42050Y34200D01*
X37300Y34200D02*
X38300Y34200D01*
X35650Y34200D02*
X36250Y34200D01*
X44850Y34250D02*
X45400Y34250D01*
X43100Y34250D02*
X43700Y34250D01*
X41100Y34250D02*
X42000Y34250D01*
X37350Y34250D02*
X38300Y34250D01*
X35650Y34250D02*
X36200Y34250D01*
X44900Y34300D02*
X45400Y34300D01*
X43150Y34300D02*
X43650Y34300D01*
X41150Y34300D02*
X41950Y34300D01*
X37400Y34300D02*
X38300Y34300D01*
X35650Y34300D02*
X36150Y34300D01*
X44950Y34350D02*
X45400Y34350D01*
X43200Y34350D02*
X43600Y34350D01*
X41200Y34350D02*
X41900Y34350D01*
X37450Y34350D02*
X38300Y34350D01*
X35650Y34350D02*
X36100Y34350D01*
X44950Y34400D02*
X45400Y34400D01*
X43250Y34400D02*
X43600Y34400D01*
X41250Y34400D02*
X41850Y34400D01*
X37450Y34400D02*
X38300Y34400D01*
X35650Y34400D02*
X36100Y34400D01*
X45000Y34450D02*
X45400Y34450D01*
X43300Y34450D02*
X43550Y34450D01*
X41300Y34450D02*
X41850Y34450D01*
X37500Y34450D02*
X38300Y34450D01*
X35650Y34450D02*
X36050Y34450D01*
X45000Y34500D02*
X45400Y34500D01*
X43350Y34500D02*
X43550Y34500D01*
X41350Y34500D02*
X41800Y34500D01*
X37500Y34500D02*
X38300Y34500D01*
X35650Y34500D02*
X36050Y34500D01*
X45050Y34550D02*
X45400Y34550D01*
X43400Y34550D02*
X43550Y34550D01*
X41750Y34550D02*
X41800Y34550D01*
X37550Y34550D02*
X38350Y34550D01*
X35650Y34550D02*
X36050Y34550D01*
X45050Y34600D02*
X45400Y34600D01*
X43450Y34600D02*
X43500Y34600D01*
X37550Y34600D02*
X38350Y34600D01*
X35650Y34600D02*
X36000Y34600D01*
X45050Y34650D02*
X45400Y34650D01*
X37550Y34650D02*
X38400Y34650D01*
X35650Y34650D02*
X36000Y34650D01*
X45050Y34700D02*
X45400Y34700D01*
X37550Y34700D02*
X38450Y34700D01*
X35650Y34700D02*
X36000Y34700D01*
X45050Y34750D02*
X45400Y34750D01*
X37550Y34750D02*
X38500Y34750D01*
X35650Y34750D02*
X36000Y34750D01*
X45050Y34800D02*
X45400Y34800D01*
X37550Y34800D02*
X38450Y34800D01*
X35650Y34800D02*
X36000Y34800D01*
X45050Y34850D02*
X45400Y34850D01*
X37550Y34850D02*
X38400Y34850D01*
X35650Y34850D02*
X36000Y34850D01*
X45050Y34900D02*
X45400Y34900D01*
X37550Y34900D02*
X38350Y34900D01*
X35650Y34900D02*
X36000Y34900D01*
X45050Y34950D02*
X45400Y34950D01*
X37550Y34950D02*
X38350Y34950D01*
X35650Y34950D02*
X36050Y34950D01*
X45000Y35000D02*
X45400Y35000D01*
X37500Y35000D02*
X38300Y35000D01*
X35650Y35000D02*
X36050Y35000D01*
X45000Y35050D02*
X45400Y35050D01*
X39750Y35050D02*
X39800Y35050D01*
X37500Y35050D02*
X38300Y35050D01*
X35650Y35050D02*
X36050Y35050D01*
X44950Y35100D02*
X45400Y35100D01*
X39750Y35100D02*
X39850Y35100D01*
X37450Y35100D02*
X38300Y35100D01*
X35650Y35100D02*
X36100Y35100D01*
X44950Y35150D02*
X45400Y35150D01*
X39750Y35150D02*
X39900Y35150D01*
X37450Y35150D02*
X38300Y35150D01*
X35650Y35150D02*
X36100Y35150D01*
X44900Y35200D02*
X45400Y35200D01*
X39800Y35200D02*
X39950Y35200D01*
X37400Y35200D02*
X38300Y35200D01*
X35650Y35200D02*
X36150Y35200D01*
X44850Y35250D02*
X45400Y35250D01*
X39800Y35250D02*
X40000Y35250D01*
X37350Y35250D02*
X38300Y35250D01*
X35650Y35250D02*
X36200Y35250D01*
X44800Y35300D02*
X45400Y35300D01*
X39800Y35300D02*
X40050Y35300D01*
X37300Y35300D02*
X38300Y35300D01*
X35650Y35300D02*
X36250Y35300D01*
X44750Y35350D02*
X45400Y35350D01*
X39800Y35350D02*
X40100Y35350D01*
X37250Y35350D02*
X38300Y35350D01*
X35650Y35350D02*
X36300Y35350D01*
X44700Y35400D02*
X45400Y35400D01*
X39800Y35400D02*
X40150Y35400D01*
X37200Y35400D02*
X38300Y35400D01*
X35650Y35400D02*
X36400Y35400D01*
X44550Y35450D02*
X45400Y35450D01*
X39800Y35450D02*
X40200Y35450D01*
X37050Y35450D02*
X38300Y35450D01*
X35650Y35450D02*
X36500Y35450D01*
X44350Y35500D02*
X45400Y35500D01*
X39800Y35500D02*
X40250Y35500D01*
X35650Y35500D02*
X38300Y35500D01*
X44400Y35550D02*
X45400Y35550D01*
X39800Y35550D02*
X40300Y35550D01*
X35650Y35550D02*
X38300Y35550D01*
X44450Y35600D02*
X45400Y35600D01*
X39800Y35600D02*
X40350Y35600D01*
X35650Y35600D02*
X38300Y35600D01*
X44500Y35650D02*
X45400Y35650D01*
X39800Y35650D02*
X40400Y35650D01*
X35650Y35650D02*
X38300Y35650D01*
X44550Y35700D02*
X45400Y35700D01*
X39800Y35700D02*
X40450Y35700D01*
X35650Y35700D02*
X38300Y35700D01*
X44600Y35750D02*
X45400Y35750D01*
X39800Y35750D02*
X40500Y35750D01*
X35650Y35750D02*
X38300Y35750D01*
X44650Y35800D02*
X45400Y35800D01*
X39800Y35800D02*
X40550Y35800D01*
X35650Y35800D02*
X38300Y35800D01*
X44700Y35850D02*
X45400Y35850D01*
X39800Y35850D02*
X40600Y35850D01*
X35650Y35850D02*
X38300Y35850D01*
X44750Y35900D02*
X45400Y35900D01*
X39800Y35900D02*
X40700Y35900D01*
X35650Y35900D02*
X38300Y35900D01*
X44800Y35950D02*
X45400Y35950D01*
X39800Y35950D02*
X40800Y35950D01*
X35650Y35950D02*
X38300Y35950D01*
X44850Y36000D02*
X45400Y36000D01*
X39800Y36000D02*
X41250Y36000D01*
X35650Y36000D02*
X38300Y36000D01*
X44900Y36050D02*
X45400Y36050D01*
X39800Y36050D02*
X41300Y36050D01*
X35650Y36050D02*
X38300Y36050D01*
X44950Y36100D02*
X45400Y36100D01*
X39800Y36100D02*
X41350Y36100D01*
X35650Y36100D02*
X38300Y36100D01*
X45000Y36150D02*
X45400Y36150D01*
X39800Y36150D02*
X41400Y36150D01*
X35650Y36150D02*
X38300Y36150D01*
X45050Y36200D02*
X45400Y36200D01*
X39800Y36200D02*
X41450Y36200D01*
X35650Y36200D02*
X38300Y36200D01*
X45100Y36250D02*
X45400Y36250D01*
X39800Y36250D02*
X41500Y36250D01*
X35650Y36250D02*
X38300Y36250D01*
X45100Y36300D02*
X45400Y36300D01*
X39800Y36300D02*
X41550Y36300D01*
X35650Y36300D02*
X38300Y36300D01*
X45150Y36350D02*
X45400Y36350D01*
X39800Y36350D02*
X41600Y36350D01*
X35650Y36350D02*
X38300Y36350D01*
X45200Y36400D02*
X45400Y36400D01*
X39800Y36400D02*
X41650Y36400D01*
X35650Y36400D02*
X38300Y36400D01*
X45200Y36450D02*
X45400Y36450D01*
X39800Y36450D02*
X41700Y36450D01*
X35650Y36450D02*
X38300Y36450D01*
X45250Y36500D02*
X45400Y36500D01*
X39800Y36500D02*
X41750Y36500D01*
X35650Y36500D02*
X38300Y36500D01*
X45250Y36550D02*
X45400Y36550D01*
X39800Y36550D02*
X41800Y36550D01*
X35650Y36550D02*
X38300Y36550D01*
X45250Y36600D02*
X45400Y36600D01*
X39800Y36600D02*
X41850Y36600D01*
X35650Y36600D02*
X38300Y36600D01*
X45250Y36650D02*
X45400Y36650D01*
X39800Y36650D02*
X41900Y36650D01*
X35650Y36650D02*
X38300Y36650D01*
X45300Y36700D02*
X45400Y36700D01*
X39800Y36700D02*
X41950Y36700D01*
X35650Y36700D02*
X38250Y36700D01*
X45300Y36750D02*
X45400Y36750D01*
X39800Y36750D02*
X42000Y36750D01*
X35650Y36750D02*
X38250Y36750D01*
X45300Y36800D02*
X45400Y36800D01*
X39850Y36800D02*
X42050Y36800D01*
X35650Y36800D02*
X38250Y36800D01*
X45300Y36850D02*
X45400Y36850D01*
X39850Y36850D02*
X42100Y36850D01*
X35650Y36850D02*
X38200Y36850D01*
X45300Y36900D02*
X45400Y36900D01*
X39850Y36900D02*
X42100Y36900D01*
X35650Y36900D02*
X38200Y36900D01*
X45300Y36950D02*
X45400Y36950D01*
X39850Y36950D02*
X42000Y36950D01*
X35650Y36950D02*
X38200Y36950D01*
X45300Y37000D02*
X45400Y37000D01*
X39850Y37000D02*
X41950Y37000D01*
X35650Y37000D02*
X38200Y37000D01*
X45350Y37050D02*
X45400Y37050D01*
X39850Y37050D02*
X41900Y37050D01*
X35650Y37050D02*
X38200Y37050D01*
X45350Y37100D02*
X45400Y37100D01*
X39850Y37100D02*
X41850Y37100D01*
X35650Y37100D02*
X38200Y37100D01*
X45350Y37150D02*
X45400Y37150D01*
X39850Y37150D02*
X41800Y37150D01*
X35650Y37150D02*
X38200Y37150D01*
X45350Y37200D02*
X45400Y37200D01*
X39800Y37200D02*
X41750Y37200D01*
X35650Y37200D02*
X38250Y37200D01*
X45350Y37250D02*
X45400Y37250D01*
X39800Y37250D02*
X41700Y37250D01*
X35650Y37250D02*
X38250Y37250D01*
X45350Y37300D02*
X45400Y37300D01*
X39800Y37300D02*
X41700Y37300D01*
X35650Y37300D02*
X38250Y37300D01*
X45350Y37350D02*
X45400Y37350D01*
X39750Y37350D02*
X41650Y37350D01*
X35650Y37350D02*
X38300Y37350D01*
X39750Y37400D02*
X41650Y37400D01*
X35650Y37400D02*
X38300Y37400D01*
X39700Y37450D02*
X41650Y37450D01*
X35650Y37450D02*
X38350Y37450D01*
X39650Y37500D02*
X41600Y37500D01*
X35650Y37500D02*
X38400Y37500D01*
X39600Y37550D02*
X41600Y37550D01*
X35650Y37550D02*
X38450Y37550D01*
X39550Y37600D02*
X41600Y37600D01*
X35650Y37600D02*
X38500Y37600D01*
X39500Y37650D02*
X41600Y37650D01*
X35650Y37650D02*
X38550Y37650D01*
X39400Y37700D02*
X41600Y37700D01*
X35650Y37700D02*
X38650Y37700D01*
X39250Y37750D02*
X41600Y37750D01*
X35650Y37750D02*
X38800Y37750D01*
X35650Y37800D02*
X41600Y37800D01*
X35650Y37850D02*
X41600Y37850D01*
X35650Y37900D02*
X41600Y37900D01*
X35650Y37950D02*
X41600Y37950D01*
X35650Y38000D02*
X41600Y38000D01*
X35650Y38050D02*
X41650Y38050D01*
X35650Y38100D02*
X41650Y38100D01*
X35650Y38150D02*
X41700Y38150D01*
X39150Y38200D02*
X41700Y38200D01*
X35650Y38200D02*
X38850Y38200D01*
X39350Y38250D02*
X41750Y38250D01*
X35650Y38250D02*
X38700Y38250D01*
X40050Y38300D02*
X41750Y38300D01*
X35650Y38300D02*
X38600Y38300D01*
X41400Y38350D02*
X41800Y38350D01*
X35650Y38350D02*
X38500Y38350D01*
X35650Y38400D02*
X38450Y38400D01*
X35650Y38450D02*
X38400Y38450D01*
X35650Y38500D02*
X38350Y38500D01*
X35650Y38550D02*
X38350Y38550D01*
X35650Y38600D02*
X38300Y38600D01*
X35650Y38650D02*
X38250Y38650D01*
X35650Y38700D02*
X38250Y38700D01*
X35650Y38750D02*
X38250Y38750D01*
X35650Y38800D02*
X38200Y38800D01*
X35650Y38850D02*
X38200Y38850D01*
X35650Y38900D02*
X38200Y38900D01*
X35650Y38950D02*
X38200Y38950D01*
X35650Y39000D02*
X38200Y39000D01*
X35650Y39050D02*
X38200Y39050D01*
X35650Y39100D02*
X38200Y39100D01*
X35650Y39150D02*
X38200Y39150D01*
X35650Y39200D02*
X38200Y39200D01*
X35650Y39250D02*
X38250Y39250D01*
X35650Y39300D02*
X38250Y39300D01*
X35650Y39350D02*
X38300Y39350D01*
M02*
