<?xml version="1.0" encoding="ISO-8859-1" standalone="no"?>
<!DOCTYPE svg PUBLIC "-//W3C//DTD SVG 1.1//EN" "http://www.w3.org/Graphics/SVG/1.1/DTD/svg11.dtd">
<svg version="1.1" baseProfile="full" id="body" width="8in" height="8in" viewBox="0 0 1 1" preserveAspectRatio="none" xmlns="http://www.w3.org/2000/svg" xmlns:xlink="http://www.w3.org/1999/xlink" xmlns:ev="http://www.w3.org/2001/xml-events">
<title>SVG drawing</title>
<desc>This was produced by version 4.2 of GNU libplot, a free library for exporting 2-D vector graphics.</desc>
<rect id="background" x="0" y="0" width="1" height="1" stroke="none" fill="white"/>
<g id="content" transform="translate(-0.03125,1.1875) scale(1,-1) scale(0.0017361) " xml:space="preserve" stroke="black" stroke-linecap="butt" stroke-linejoin="miter" stroke-miterlimit="10.433" stroke-dasharray="none" stroke-dashoffset="0" stroke-opacity="1" fill="none" fill-rule="even-odd" fill-opacity="1" font-style="normal" font-variant="normal" font-weight="normal" font-stretch="normal" font-size-adjust="none" letter-spacing="normal" word-spacing="normal" text-anchor="start">
<polyline points="256.4,108.8 256.4,104.48 254.24,104.48 254.24,98.719 248.72,98.719 248.72,96.559 256.4,96.559 256.4,92.238 254.24,92.238 254.24,86 256.4,86 256.4,81.68 253.28,81.68 244.88,83.84 237.2,90.559 " stroke-width="0" />
<polyline points="284.72,78.078 284.72,82.398 289.04,82.398 289.04,77.84 " stroke-width="0" />
<polyline points="296.48,82.398 296.48,84.801 291.2,111.92 " stroke-width="0" />
<polyline points="282.8,111.92 277.52,84.801 277.52,82.398 " stroke-width="0" />
<line x1="280.16" y1="84.801" x2="280.16" y2="82.398" stroke-width="0" />
<line x1="283.28" y1="82.398" x2="283.28" y2="84.801" stroke-width="0" />
<polygon points="281.84,95.121 281.84,92.961 284.72,92.961 284.72,88.641 289.04,88.641 289.04,92.961 292.16,92.961 292.16,95.121 " stroke-width="0" />
<polygon points="284.72,100.88 289.04,100.88 289.04,105.2 284.72,105.2 " stroke-width="0" />
<line x1="290.48" y1="84.801" x2="290.48" y2="82.16" stroke-width="0" />
<line x1="293.84" y1="82.16" x2="293.84" y2="84.801" stroke-width="0" />
<line x1="285.44" y1="110.96" x2="285.44" y2="108.56" stroke-width="0" />
<line x1="288.56" y1="108.56" x2="288.56" y2="110.96" stroke-width="0" />
<path d="M288.66,111.15 L288.65,111.23 L288.65,111.31 L288.64,111.39 L288.62,111.47 L288.61,111.55 L288.58,111.62 L288.56,111.7 L288.53,111.77 L288.5,111.84 L288.46,111.91 L288.42,111.97 L288.38,112.04 L288.34,112.1 L288.29,112.16 L288.24,112.22 L288.19,112.27 L288.13,112.33 L288.08,112.38 L288.02,112.42 L287.95,112.47 L287.89,112.51 L287.82,112.55 L287.75,112.58 L287.68,112.62 L287.61,112.65 L287.54,112.67 L287.46,112.69 L287.38,112.71 L287.3,112.72 L287.22,112.73 L287.14,112.74 L287.06,112.74 C286.19,112.74,285.47,112.03,285.47,111.15 " stroke-width="0" />
<path d="M285.47,108.69 L285.47,108.61 L285.48,108.53 L285.49,108.45 L285.5,108.38 L285.52,108.3 L285.54,108.22 L285.57,108.15 L285.59,108.08 L285.63,108.01 L285.66,107.94 L285.7,107.87 L285.74,107.81 L285.79,107.75 L285.83,107.68 L285.88,107.63 L285.94,107.57 L285.99,107.52 L286.05,107.47 L286.11,107.42 L286.17,107.38 L286.24,107.34 L286.3,107.3 L286.37,107.26 L286.44,107.23 L286.51,107.2 L286.59,107.18 L286.66,107.16 L286.74,107.14 L286.82,107.12 L286.9,107.11 L286.98,107.11 L287.06,107.11 C287.94,107.11,288.65,107.82,288.65,108.69 " stroke-width="0" />
<path d="M280.27,82.367 L280.27,82.286 L280.28,82.205 L280.29,82.126 L280.3,82.048 L280.32,81.971 L280.34,81.896 L280.37,81.822 L280.4,81.75 L280.43,81.679 L280.46,81.611 L280.5,81.544 L280.54,81.48 L280.59,81.417 L280.63,81.357 L280.68,81.299 L280.74,81.244 L280.79,81.191 L280.85,81.141 L280.91,81.094 L280.97,81.05 L281.04,81.008 L281.1,80.97 L281.17,80.935 L281.24,80.903 L281.31,80.874 L281.39,80.849 L281.46,80.828 L281.54,80.81 L281.62,80.796 L281.7,80.786 L281.78,80.779 L281.86,80.777 C282.74,80.777,283.45,81.492,283.45,82.367 " stroke-width="0" />
<path d="M290.67,82.363 L290.67,82.281 L290.68,82.201 L290.69,82.121 L290.7,82.042 L290.72,81.965 L290.74,81.89 L290.77,81.816 L290.8,81.743 L290.83,81.673 L290.86,81.604 L290.9,81.537 L290.94,81.473 L290.99,81.41 L291.04,81.35 L291.09,81.292 L291.14,81.237 L291.19,81.184 L291.25,81.134 L291.31,81.087 L291.38,81.042 L291.44,81.001 L291.51,80.962 L291.58,80.927 L291.65,80.895 L291.72,80.866 L291.79,80.841 L291.87,80.82 L291.95,80.802 L292.02,80.788 L292.1,80.778 L292.18,80.772 L292.27,80.77 C293.14,80.77,293.86,81.484,293.86,82.363 " stroke-width="0" />
<path d="M293.86,84.801 L293.86,84.883 L293.85,84.964 L293.84,85.043 L293.83,85.122 L293.81,85.199 L293.79,85.274 L293.76,85.348 L293.73,85.421 L293.7,85.491 L293.67,85.56 L293.63,85.627 L293.59,85.691 L293.54,85.754 L293.49,85.814 L293.44,85.872 L293.39,85.927 L293.34,85.98 L293.28,86.03 L293.22,86.078 L293.16,86.122 L293.09,86.163 L293.02,86.202 L292.96,86.237 L292.89,86.269 L292.81,86.298 L292.74,86.323 L292.66,86.344 L292.59,86.362 L292.51,86.376 L292.43,86.386 L292.35,86.392 L292.27,86.395 C291.39,86.395,290.68,85.68,290.68,84.801 " stroke-width="0" />
<path d="M283.45,84.801 L283.45,84.883 L283.44,84.964 L283.43,85.043 L283.42,85.122 L283.4,85.199 L283.38,85.274 L283.35,85.348 L283.32,85.421 L283.29,85.491 L283.26,85.56 L283.22,85.627 L283.18,85.691 L283.13,85.754 L283.08,85.814 L283.03,85.872 L282.98,85.927 L282.93,85.98 L282.87,86.03 L282.81,86.078 L282.75,86.122 L282.68,86.163 L282.62,86.202 L282.55,86.237 L282.48,86.269 L282.4,86.298 L282.33,86.323 L282.26,86.344 L282.18,86.362 L282.1,86.376 L282.02,86.386 L281.94,86.392 L281.86,86.395 C280.98,86.395,280.27,85.68,280.27,84.801 " stroke-width="0" />
<path d="M277.57,82.367 C277.57,80.004,279.5,78.082,281.86,78.082 " stroke-width="0" />
<path d="M292.27,78.074 C294.63,78.074,296.55,79.996,296.55,82.363 " stroke-width="0" />
<path d="M291.27,111.97 L291.23,112.16 L291.18,112.34 L291.12,112.52 L291.06,112.7 L290.99,112.87 L290.91,113.04 L290.83,113.2 L290.74,113.36 L290.64,113.51 L290.53,113.66 L290.42,113.81 L290.31,113.95 L290.18,114.09 L290.06,114.22 L289.92,114.34 L289.79,114.46 L289.64,114.57 L289.5,114.68 L289.35,114.78 L289.19,114.87 L289.03,114.96 L288.87,115.04 L288.7,115.11 L288.53,115.18 L288.35,115.24 L288.18,115.29 L288,115.33 L287.81,115.37 L287.63,115.4 L287.44,115.42 L287.25,115.43 L287.06,115.44 C285.01,115.44,283.25,113.98,282.86,111.97 " stroke-width="0" />
<line x1="281.84" y1="78.078" x2="284.72" y2="78.078" stroke-width="0" />
<line x1="289.04" y1="77.84" x2="292.16" y2="77.84" stroke-width="0" />
<polygon points="302.72,87.922 300.56,87.922 297.44,97.281 297.44,98.48 297.44,99.441 299.6,99.441 299.6,101.6 310.16,101.6 310.16,99.441 312.32,99.441 312.32,97.281 309.2,87.922 307.04,87.922 307.04,93.922 302.72,93.922 " stroke-width="0" />
<polyline points="256.4,108.8 253.28,108.8 237.44,94.16 " stroke-width="0" />
<path d="M237.46,94.258 L237.41,94.214 L237.37,94.169 L237.33,94.123 L237.28,94.076 L237.24,94.028 L237.2,93.979 L237.16,93.929 L237.13,93.878 L237.09,93.826 L237.06,93.774 L237.02,93.72 L236.99,93.666 L236.96,93.611 L236.93,93.555 L236.9,93.498 L236.88,93.441 L236.85,93.383 L236.83,93.324 L236.81,93.265 L236.79,93.206 L236.77,93.145 L236.75,93.085 L236.74,93.024 L236.72,92.962 L236.71,92.9 L236.7,92.838 L236.69,92.775 L236.69,92.712 L236.68,92.648 L236.68,92.585 L236.67,92.521 L236.67,92.457 C236.67,91.742,236.99,91.055,237.54,90.59 " stroke-width="0" />
<path d="M244.52,92.469 L244.52,92.55 L244.51,92.631 L244.5,92.71 L244.49,92.788 L244.47,92.865 L244.45,92.94 L244.42,93.014 L244.39,93.086 L244.36,93.157 L244.33,93.225 L244.29,93.292 L244.25,93.356 L244.2,93.419 L244.16,93.479 L244.11,93.537 L244.05,93.592 L244,93.645 L243.94,93.695 L243.88,93.742 L243.82,93.786 L243.75,93.828 L243.69,93.866 L243.62,93.901 L243.55,93.933 L243.48,93.962 L243.4,93.987 L243.33,94.008 L243.25,94.026 L243.17,94.04 L243.09,94.05 L243.01,94.057 L242.93,94.059 C242.05,94.059,241.34,93.344,241.34,92.469 C241.34,91.59,242.05,90.875,242.93,90.875 C243.8,90.875,244.52,91.59,244.52,92.469 Z " stroke-width="0" />
<path d="M253.15,92.469 L253.15,92.689 L253.13,92.906 L253.1,93.121 L253.06,93.331 L253.02,93.539 L252.96,93.742 L252.89,93.941 L252.81,94.135 L252.73,94.325 L252.63,94.51 L252.53,94.689 L252.42,94.863 L252.3,95.031 L252.17,95.193 L252.04,95.349 L251.9,95.498 L251.75,95.64 L251.59,95.774 L251.43,95.902 L251.26,96.021 L251.09,96.133 L250.91,96.236 L250.72,96.331 L250.53,96.417 L250.34,96.493 L250.14,96.561 L249.94,96.619 L249.73,96.667 L249.52,96.704 L249.3,96.732 L249.09,96.748 L248.87,96.754 C246.5,96.754,244.58,94.832,244.58,92.469 C244.58,90.102,246.5,88.18,248.87,88.18 C251.23,88.18,253.15,90.102,253.15,92.469 Z " stroke-width="0" />
<line x1="284.96" y1="96.078" x2="285.68" y2="97.52" stroke="fuchsia" stroke-width="0" />
<line x1="284.96" y1="97.52" x2="285.68" y2="96.078" stroke="fuchsia" stroke-width="0" />
<line x1="286.16" y1="97.52" x2="286.64" y2="97.52" stroke="fuchsia" stroke-width="0" />
<line x1="286.4" y1="97.52" x2="286.4" y2="96.078" stroke="fuchsia" stroke-width="0" />
<line x1="286.16" y1="96.078" x2="286.64" y2="96.078" stroke="fuchsia" stroke-width="0" />
<polyline points="286.88,96.078 287.6,96.078 287.84,96.32 287.84,96.559 287.6,96.801 287.12,96.801 " stroke="fuchsia" stroke-width="0" />
<polyline points="287.6,96.801 287.84,97.039 287.84,97.281 287.6,97.52 286.88,97.52 " stroke="fuchsia" stroke-width="0" />
<line x1="287.12" y1="97.52" x2="287.12" y2="96.078" stroke="fuchsia" stroke-width="0" />
<polyline points="288.32,97.281 288.32,97.52 288.32,96.078 288.56,96.078 " stroke="fuchsia" stroke-width="0" />
<line x1="301.76" y1="99.922" x2="302.72" y2="101.12" stroke="fuchsia" stroke-width="0" />
<line x1="301.76" y1="101.12" x2="302.72" y2="99.922" stroke="fuchsia" stroke-width="0" />
<line x1="302.96" y1="101.12" x2="303.44" y2="101.12" stroke="fuchsia" stroke-width="0" />
<line x1="303.2" y1="101.12" x2="303.2" y2="99.922" stroke="fuchsia" stroke-width="0" />
<line x1="302.96" y1="99.922" x2="303.44" y2="99.922" stroke="fuchsia" stroke-width="0" />
<polyline points="303.92,99.922 304.4,99.922 304.64,99.922 304.64,100.16 304.4,100.4 303.92,100.4 " stroke="fuchsia" stroke-width="0" />
<polyline points="304.4,100.4 304.64,100.64 304.64,100.88 304.4,101.12 303.92,101.12 303.92,99.922 " stroke="fuchsia" stroke-width="0" />
<polyline points="305.12,100.88 305.36,101.12 305.36,99.922 " stroke="fuchsia" stroke-width="0" />
<line x1="305.12" y1="99.922" x2="305.36" y2="99.922" stroke="fuchsia" stroke-width="0" />
<line x1="248.72" y1="99.199" x2="249.68" y2="100.4" stroke="fuchsia" stroke-width="0" />
<line x1="248.72" y1="100.4" x2="249.68" y2="99.199" stroke="fuchsia" stroke-width="0" />
<line x1="249.92" y1="100.4" x2="250.4" y2="100.4" stroke="fuchsia" stroke-width="0" />
<line x1="250.16" y1="100.4" x2="250.16" y2="99.199" stroke="fuchsia" stroke-width="0" />
<line x1="249.92" y1="99.199" x2="250.4" y2="99.199" stroke="fuchsia" stroke-width="0" />
<polyline points="250.88,99.199 251.36,99.199 251.6,99.441 251.6,99.68 251.36,99.922 251.12,99.922 " stroke="fuchsia" stroke-width="0" />
<polyline points="251.36,99.922 251.6,99.922 251.6,100.16 251.36,100.4 250.88,100.4 " stroke="fuchsia" stroke-width="0" />
<line x1="251.12" y1="100.4" x2="251.12" y2="99.199" stroke="fuchsia" stroke-width="0" />
<polyline points="252.08,100.16 252.32,100.4 252.8,100.4 252.8,100.16 252.8,99.922 252.8,99.922 252.32,99.922 252.08,99.68 252.08,99.199 252.8,99.199 " stroke="fuchsia" stroke-width="0" />
<polyline points="244.64,86 244.88,86.238 245.36,86.238 245.36,86 245.36,85.762 245.36,85.52 244.88,85.52 244.64,85.52 244.64,85.039 245.36,85.039 " stroke="fuchsia" stroke-width="0" />
<line x1="245.84" y1="85.039" x2="246.56" y2="86.238" stroke="fuchsia" stroke-width="0" />
<line x1="245.84" y1="86.238" x2="246.56" y2="85.039" stroke="fuchsia" stroke-width="0" />
<polyline points="247.04,86.238 247.04,85.281 247.28,85.039 " stroke="fuchsia" stroke-width="0" />
<polygon points="248,85.039 248,85.039 247.76,85.281 247.76,85.52 248,85.762 248,85.762 248.24,85.52 248.24,85.281 " stroke="fuchsia" stroke-width="0" />
<line x1="248.24" y1="85.281" x2="248.48" y2="85.039" stroke="fuchsia" stroke-width="0" />
<line x1="248.96" y1="85.039" x2="248.96" y2="85.762" stroke="fuchsia" stroke-width="0" />
<polyline points="248.96,85.52 249.2,85.762 249.44,85.52 249.44,85.52 249.44,85.762 249.68,85.52 249.68,85.039 " stroke="fuchsia" stroke-width="0" />
<line x1="284.24" y1="100.88" x2="283.04" y2="101.6" stroke="fuchsia" stroke-width="0" />
<line x1="283.04" y1="100.88" x2="284.24" y2="101.6" stroke="fuchsia" stroke-width="0" />
<polyline points="283.04,102.08 283.04,102.32 284.24,102.32 " stroke="fuchsia" stroke-width="0" />
<line x1="284.24" y1="102.08" x2="284.24" y2="102.32" stroke="fuchsia" stroke-width="0" />
<polyline points="284.24,102.8 284.24,103.52 284,103.76 283.76,103.76 283.52,103.52 283.52,103.04 " stroke="fuchsia" stroke-width="0" />
<polyline points="283.52,103.52 283.28,103.76 283.28,103.76 283.04,103.52 283.04,102.8 " stroke="fuchsia" stroke-width="0" />
<line x1="283.04" y1="103.04" x2="284.24" y2="103.04" stroke="fuchsia" stroke-width="0" />
<polyline points="283.28,104 283.04,104.24 283.04,104.72 283.28,104.96 283.28,104.96 283.52,104.72 283.52,104.48 " stroke="fuchsia" stroke-width="0" />
<polyline points="283.52,104.72 283.76,104.96 284,104.96 284.24,104.72 284.24,104.24 284,104 " stroke="fuchsia" stroke-width="0" />
<line x1="290.72" y1="101.12" x2="289.52" y2="101.84" stroke="fuchsia" stroke-width="0" />
<line x1="289.52" y1="101.12" x2="290.72" y2="101.84" stroke="fuchsia" stroke-width="0" />
<polyline points="289.52,102.32 289.52,102.56 290.72,102.56 " stroke="fuchsia" stroke-width="0" />
<line x1="290.72" y1="102.32" x2="290.72" y2="102.56" stroke="fuchsia" stroke-width="0" />
<polyline points="290.72,103.04 290.72,103.76 290.72,103.76 290.48,103.76 290.24,103.76 290.24,103.28 " stroke="fuchsia" stroke-width="0" />
<polyline points="290.24,103.76 290,103.76 289.76,103.76 289.52,103.76 289.52,103.04 " stroke="fuchsia" stroke-width="0" />
<line x1="289.52" y1="103.28" x2="290.72" y2="103.28" stroke="fuchsia" stroke-width="0" />
<polyline points="289.76,104.24 289.52,104.48 289.52,104.96 289.76,105.2 290,105.2 290.24,104.96 290.24,104.72 " stroke="fuchsia" stroke-width="0" />
<polyline points="290.24,104.96 290.48,105.2 290.72,105.2 290.72,104.96 290.72,104.48 290.72,104.24 " stroke="fuchsia" stroke-width="0" />
<line x1="302" y1="88.641" x2="300.8" y2="89.359" stroke="fuchsia" stroke-width="0" />
<line x1="300.8" y1="88.641" x2="302" y2="89.359" stroke="fuchsia" stroke-width="0" />
<line x1="300.8" y1="89.84" x2="300.8" y2="90.32" stroke="fuchsia" stroke-width="0" />
<line x1="300.8" y1="90.078" x2="302" y2="90.078" stroke="fuchsia" stroke-width="0" />
<line x1="302" y1="89.84" x2="302" y2="90.32" stroke="fuchsia" stroke-width="0" />
<polyline points="302,90.801 302,91.281 301.76,91.52 301.52,91.52 301.52,91.281 301.52,90.801 " stroke="fuchsia" stroke-width="0" />
<polyline points="301.52,91.281 301.28,91.52 301.04,91.52 300.8,91.281 300.8,90.801 302,90.801 " stroke="fuchsia" stroke-width="0" />
<polyline points="301.04,92 300.8,92 300.8,92.48 301.04,92.719 301.28,92.719 301.52,92.48 301.52,92 301.52,92 302,92 302,92.719 " stroke="fuchsia" stroke-width="0" />
<line x1="308.96" y1="88.641" x2="307.52" y2="89.359" stroke="fuchsia" stroke-width="0" />
<line x1="307.52" y1="88.641" x2="308.96" y2="89.359" stroke="fuchsia" stroke-width="0" />
<line x1="307.52" y1="89.84" x2="307.52" y2="90.32" stroke="fuchsia" stroke-width="0" />
<line x1="307.52" y1="90.078" x2="308.96" y2="90.078" stroke="fuchsia" stroke-width="0" />
<line x1="308.96" y1="89.84" x2="308.96" y2="90.32" stroke="fuchsia" stroke-width="0" />
<polyline points="308.96,90.559 308.96,91.281 308.72,91.52 308.48,91.52 308.24,91.281 308.24,90.801 " stroke="fuchsia" stroke-width="0" />
<polyline points="308.24,91.281 308,91.52 307.76,91.52 307.52,91.281 307.52,90.559 " stroke="fuchsia" stroke-width="0" />
<line x1="307.52" y1="90.801" x2="308.96" y2="90.801" stroke="fuchsia" stroke-width="0" />
<polyline points="307.76,92 307.52,92 307.52,92.48 307.76,92.719 308,92.719 308.24,92.48 308.24,92 308.48,92 308.96,92 308.96,92.719 " stroke="fuchsia" stroke-width="0" />
<line x1="255.92" y1="104.72" x2="254.72" y2="105.44" stroke="fuchsia" stroke-width="0" />
<line x1="254.72" y1="104.72" x2="255.92" y2="105.44" stroke="fuchsia" stroke-width="0" />
<line x1="254.72" y1="105.92" x2="254.72" y2="106.4" stroke="fuchsia" stroke-width="0" />
<line x1="254.72" y1="106.16" x2="255.92" y2="106.16" stroke="fuchsia" stroke-width="0" />
<line x1="255.92" y1="105.92" x2="255.92" y2="106.4" stroke="fuchsia" stroke-width="0" />
<polyline points="255.92,106.64 255.92,107.36 255.68,107.6 255.44,107.6 255.44,107.36 255.44,106.88 " stroke="fuchsia" stroke-width="0" />
<polyline points="255.44,107.36 255.2,107.6 254.96,107.6 254.72,107.36 254.72,106.64 " stroke="fuchsia" stroke-width="0" />
<line x1="254.72" y1="106.88" x2="255.92" y2="106.88" stroke="fuchsia" stroke-width="0" />
<polyline points="254.96,107.84 254.72,108.08 254.72,108.56 254.96,108.8 255.2,108.8 255.44,108.56 255.44,108.32 " stroke="fuchsia" stroke-width="0" />
<polyline points="255.44,108.56 255.44,108.8 255.68,108.8 255.92,108.56 255.92,108.08 255.68,107.84 " stroke="fuchsia" stroke-width="0" />
<line x1="255.92" y1="81.922" x2="254.72" y2="82.641" stroke="fuchsia" stroke-width="0" />
<line x1="254.72" y1="81.922" x2="255.92" y2="82.641" stroke="fuchsia" stroke-width="0" />
<line x1="254.72" y1="83.121" x2="254.72" y2="83.602" stroke="fuchsia" stroke-width="0" />
<line x1="254.72" y1="83.359" x2="255.92" y2="83.359" stroke="fuchsia" stroke-width="0" />
<line x1="255.92" y1="83.121" x2="255.92" y2="83.602" stroke="fuchsia" stroke-width="0" />
<polyline points="255.92,84.078 255.92,84.559 255.68,84.801 255.44,84.801 255.44,84.559 255.44,84.078 " stroke="fuchsia" stroke-width="0" />
<polyline points="255.44,84.559 255.2,84.801 254.96,84.801 254.72,84.559 254.72,84.078 255.92,84.078 " stroke="fuchsia" stroke-width="0" />
<polyline points="255.44,86 255.44,85.281 254.72,85.762 255.92,85.762 " stroke="fuchsia" stroke-width="0" />
<line x1="284.72" y1="79.039" x2="283.28" y2="80" stroke="fuchsia" stroke-width="0" />
<line x1="283.28" y1="79.039" x2="284.72" y2="80" stroke="fuchsia" stroke-width="0" />
<line x1="283.28" y1="80.238" x2="283.28" y2="80.719" stroke="fuchsia" stroke-width="0" />
<line x1="283.28" y1="80.48" x2="284.72" y2="80.48" stroke="fuchsia" stroke-width="0" />
<line x1="284.72" y1="80.238" x2="284.72" y2="80.719" stroke="fuchsia" stroke-width="0" />
<polyline points="284.72,81.199 284.72,81.68 284.48,81.922 284.24,81.922 284,81.68 284,81.441 " stroke="fuchsia" stroke-width="0" />
<polyline points="284,81.68 283.76,81.922 283.52,81.922 283.28,81.68 283.28,81.199 " stroke="fuchsia" stroke-width="0" />
<line x1="283.28" y1="81.441" x2="284.72" y2="81.441" stroke="fuchsia" stroke-width="0" />
<polyline points="284.24,83.121 284.24,82.398 283.28,82.879 284.72,82.879 " stroke="fuchsia" stroke-width="0" />
<line x1="290.48" y1="79.039" x2="289.28" y2="79.762" stroke="fuchsia" stroke-width="0" />
<line x1="289.28" y1="79.039" x2="290.48" y2="79.762" stroke="fuchsia" stroke-width="0" />
<line x1="289.28" y1="80.238" x2="289.28" y2="80.719" stroke="fuchsia" stroke-width="0" />
<line x1="289.28" y1="80.48" x2="290.48" y2="80.48" stroke="fuchsia" stroke-width="0" />
<line x1="290.48" y1="80.238" x2="290.48" y2="80.719" stroke="fuchsia" stroke-width="0" />
<polyline points="290.48,80.961 290.48,81.68 290.24,81.922 290,81.922 289.76,81.68 289.76,81.199 " stroke="fuchsia" stroke-width="0" />
<polyline points="289.76,81.68 289.52,81.922 289.52,81.922 289.28,81.68 289.28,80.961 " stroke="fuchsia" stroke-width="0" />
<line x1="289.28" y1="81.199" x2="290.48" y2="81.199" stroke="fuchsia" stroke-width="0" />
<polyline points="290,83.121 290,82.398 289.28,82.879 290.48,82.879 " stroke="fuchsia" stroke-width="0" />
<line x1="267.92" y1="106.64" x2="275.6" y2="99.922" stroke-width="0" />
<line x1="259.52" y1="81.68" x2="275.36" y2="96.32" stroke-width="0" />
<path d="M275.58,96.496 L275.62,96.54 L275.67,96.585 L275.71,96.632 L275.76,96.679 L275.8,96.727 L275.84,96.777 L275.88,96.827 L275.91,96.878 L275.95,96.93 L275.98,96.983 L276.02,97.036 L276.05,97.091 L276.08,97.146 L276.11,97.202 L276.13,97.259 L276.16,97.316 L276.18,97.374 L276.21,97.432 L276.23,97.491 L276.25,97.551 L276.27,97.611 L276.28,97.672 L276.3,97.733 L276.31,97.794 L276.33,97.856 L276.34,97.918 L276.35,97.981 L276.35,98.043 L276.36,98.106 L276.36,98.17 L276.37,98.233 L276.37,98.297 C276.37,99.016,276.05,99.703,275.5,100.16 " stroke-width="0" />
<polyline points="264.08,91.762 264.08,93.922 256.4,93.922 " stroke-width="0" />
<line x1="259.52" y1="108.8" x2="267.92" y2="106.64" stroke-width="0" />
<path d="M268.46,98.285 L268.45,98.506 L268.43,98.723 L268.41,98.938 L268.37,99.149 L268.32,99.356 L268.26,99.56 L268.2,99.759 L268.12,99.954 L268.03,100.14 L267.94,100.33 L267.84,100.51 L267.72,100.68 L267.6,100.85 L267.48,101.01 L267.34,101.17 L267.2,101.32 L267.05,101.46 L266.9,101.59 L266.73,101.72 L266.57,101.84 L266.39,101.95 L266.21,102.06 L266.03,102.15 L265.84,102.24 L265.64,102.31 L265.44,102.38 L265.24,102.44 L265.03,102.49 L264.82,102.52 L264.61,102.55 L264.39,102.57 L264.17,102.57 C261.81,102.57,259.89,100.65,259.89,98.285 C259.89,95.922,261.81,94,264.17,94 C266.54,94,268.46,95.922,268.46,98.285 Z " stroke-width="0" />
<polyline points="268.16,104.48 267.92,104.24 267.44,104.24 267.44,104.48 267.44,104.72 267.44,104.96 267.92,104.96 268.16,105.2 268.16,105.44 267.44,105.44 " stroke="fuchsia" stroke-width="0" />
<line x1="266.96" y1="105.44" x2="266.24" y2="104.24" stroke="fuchsia" stroke-width="0" />
<line x1="266.96" y1="104.24" x2="266.24" y2="105.44" stroke="fuchsia" stroke-width="0" />
<polyline points="265.76,104.24 265.76,105.2 265.52,105.44 " stroke="fuchsia" stroke-width="0" />
<polygon points="264.8,105.44 264.8,105.44 265.04,105.2 265.04,104.96 264.8,104.72 264.8,104.72 264.56,104.96 264.56,105.2 " stroke="fuchsia" stroke-width="0" />
<line x1="264.56" y1="105.2" x2="264.32" y2="105.44" stroke="fuchsia" stroke-width="0" />
<line x1="263.84" y1="105.44" x2="263.84" y2="104.72" stroke="fuchsia" stroke-width="0" />
<polyline points="263.84,104.96 263.6,104.72 263.36,104.96 263.36,105.2 " stroke="fuchsia" stroke-width="0" />
<polyline points="263.36,104.96 263.36,104.72 263.12,104.96 263.12,105.44 " stroke="fuchsia" stroke-width="0" />
<path d="M271.7,98.285 L271.7,98.367 L271.69,98.448 L271.68,98.528 L271.67,98.606 L271.65,98.683 L271.63,98.759 L271.61,98.833 L271.58,98.905 L271.55,98.976 L271.51,99.044 L271.47,99.111 L271.43,99.176 L271.39,99.238 L271.34,99.298 L271.29,99.356 L271.24,99.412 L271.18,99.464 L271.12,99.515 L271.06,99.562 L271,99.606 L270.93,99.648 L270.87,99.686 L270.8,99.722 L270.73,99.753 L270.66,99.782 L270.58,99.807 L270.51,99.829 L270.43,99.846 L270.35,99.861 L270.27,99.871 L270.19,99.877 L270.11,99.879 C269.23,99.879,268.52,99.164,268.52,98.285 C268.52,97.41,269.23,96.695,270.11,96.695 C270.99,96.695,271.7,97.41,271.7,98.285 Z " stroke-width="0" />
<polyline points="258.56,98.238 258.56,104.48 256.4,104.48 " stroke-width="0" />
<line x1="256.4" y1="108.8" x2="259.52" y2="108.8" stroke-width="0" />
<line x1="256.88" y1="108.56" x2="258.08" y2="107.84" stroke="fuchsia" stroke-width="0" />
<line x1="258.08" y1="108.56" x2="256.88" y2="107.84" stroke="fuchsia" stroke-width="0" />
<line x1="258.08" y1="107.36" x2="258.08" y2="106.88" stroke="fuchsia" stroke-width="0" />
<line x1="258.08" y1="107.12" x2="256.88" y2="107.12" stroke="fuchsia" stroke-width="0" />
<line x1="256.88" y1="107.36" x2="256.88" y2="106.88" stroke="fuchsia" stroke-width="0" />
<polyline points="256.88,106.64 256.88,105.92 257.12,105.68 257.36,105.68 257.6,105.92 257.6,106.4 " stroke="fuchsia" stroke-width="0" />
<polyline points="257.6,105.92 257.6,105.68 257.84,105.68 258.08,105.92 258.08,106.64 " stroke="fuchsia" stroke-width="0" />
<line x1="258.08" y1="106.4" x2="256.88" y2="106.4" stroke="fuchsia" stroke-width="0" />
<polyline points="257.36,104.48 257.36,105.44 258.08,104.72 256.88,104.72 " stroke="fuchsia" stroke-width="0" />
<line x1="256.4" y1="104.48" x2="256.4" y2="108.8" stroke-width="0" />
<line x1="256.4" y1="98.238" x2="258.56" y2="98.238" stroke-width="0" />
<line x1="256.4" y1="93.922" x2="256.4" y2="98.238" stroke-width="0" />
<line x1="258.56" y1="91.762" x2="264.08" y2="91.762" stroke-width="0" />
<line x1="264.08" y1="91.281" x2="263.12" y2="90.078" stroke="fuchsia" stroke-width="0" />
<line x1="264.08" y1="90.078" x2="263.12" y2="91.281" stroke="fuchsia" stroke-width="0" />
<line x1="262.88" y1="90.078" x2="262.4" y2="90.078" stroke="fuchsia" stroke-width="0" />
<line x1="262.64" y1="90.078" x2="262.64" y2="91.281" stroke="fuchsia" stroke-width="0" />
<line x1="262.88" y1="91.281" x2="262.4" y2="91.281" stroke="fuchsia" stroke-width="0" />
<polyline points="261.92,91.281 261.44,91.281 261.2,91.039 261.2,90.801 261.44,90.801 261.68,90.801 " stroke="fuchsia" stroke-width="0" />
<polyline points="261.44,90.801 261.2,90.559 261.2,90.32 261.44,90.078 261.92,90.078 " stroke="fuchsia" stroke-width="0" />
<line x1="261.68" y1="90.078" x2="261.68" y2="91.281" stroke="fuchsia" stroke-width="0" />
<polyline points="260.72,90.32 260.48,90.078 260,90.078 260,90.32 260,90.559 260,90.801 260.48,90.801 260.72,90.801 260.72,91.281 260,91.281 " stroke="fuchsia" stroke-width="0" />
<line x1="256.4" y1="81.68" x2="256.4" y2="86" stroke-width="0" />
<line x1="256.88" y1="85.762" x2="258.08" y2="85.039" stroke="fuchsia" stroke-width="0" />
<line x1="258.08" y1="85.762" x2="256.88" y2="85.039" stroke="fuchsia" stroke-width="0" />
<polyline points="258.08,84.559 258.08,84.32 256.88,84.32 " stroke="fuchsia" stroke-width="0" />
<line x1="256.88" y1="84.559" x2="256.88" y2="84.32" stroke="fuchsia" stroke-width="0" />
<polyline points="256.88,83.84 256.88,83.121 257.12,82.879 257.36,82.879 257.6,83.121 257.6,83.602 " stroke="fuchsia" stroke-width="0" />
<polyline points="257.6,83.121 257.6,82.879 257.84,82.879 258.08,83.121 258.08,83.84 " stroke="fuchsia" stroke-width="0" />
<line x1="258.08" y1="83.602" x2="256.88" y2="83.602" stroke="fuchsia" stroke-width="0" />
<polyline points="257.84,82.641 258.08,82.398 258.08,81.922 257.84,81.68 257.6,81.68 257.6,81.922 257.6,82.16 " stroke="fuchsia" stroke-width="0" />
<polyline points="257.6,81.922 257.36,81.68 257.12,81.68 256.88,81.922 256.88,82.398 257.12,82.641 " stroke="fuchsia" stroke-width="0" />
<polyline points="256.4,86 258.56,86 258.56,91.762 " stroke-width="0" />
<line x1="256.4" y1="81.68" x2="259.52" y2="81.68" stroke-width="0" />
</g>
</svg>
