<?xml version="1.0" encoding="ISO-8859-1" standalone="no"?>
<!DOCTYPE svg PUBLIC "-//W3C//DTD SVG 1.1//EN" "http://www.w3.org/Graphics/SVG/1.1/DTD/svg11.dtd">
<svg version="1.1" baseProfile="full" id="body" width="8in" height="8in" viewBox="0 0 1 1" preserveAspectRatio="none" xmlns="http://www.w3.org/2000/svg" xmlns:xlink="http://www.w3.org/1999/xlink" xmlns:ev="http://www.w3.org/2001/xml-events">
<title>SVG drawing</title>
<desc>This was produced by version 4.2 of GNU libplot, a free library for exporting 2-D vector graphics.</desc>
<rect id="background" x="0" y="0" width="1" height="1" stroke="none" fill="white"/>
<g id="content" transform="translate(-0.03125,1.1875) scale(1,-1) scale(0.0017361) " xml:space="preserve" stroke="black" stroke-linecap="butt" stroke-linejoin="miter" stroke-miterlimit="10.433" stroke-dasharray="none" stroke-dashoffset="0" stroke-opacity="1" fill="none" fill-rule="even-odd" fill-opacity="1" font-style="normal" font-variant="normal" font-weight="normal" font-stretch="normal" font-size-adjust="none" letter-spacing="normal" word-spacing="normal" text-anchor="start">
<path d="M308.33,111.07 L308.33,111.34 L308.3,111.61 L308.27,111.88 L308.22,112.15 L308.16,112.41 L308.09,112.66 L308.01,112.91 L307.91,113.16 L307.8,113.39 L307.68,113.63 L307.55,113.85 L307.41,114.07 L307.26,114.28 L307.11,114.48 L306.94,114.68 L306.76,114.86 L306.57,115.04 L306.38,115.21 L306.17,115.37 L305.96,115.52 L305.75,115.66 L305.52,115.79 L305.29,115.91 L305.05,116.02 L304.81,116.11 L304.56,116.2 L304.3,116.27 L304.04,116.33 L303.78,116.38 L303.51,116.41 L303.24,116.43 L302.96,116.44 C300,116.44,297.59,114.03,297.59,111.07 C297.59,108.11,300,105.7,302.96,105.7 C305.93,105.7,308.33,108.11,308.33,111.07 Z " stroke-width="0" />
<path d="M305.97,131.29 L305.94,132.49 L305.85,133.67 L305.7,134.83 L305.5,135.97 L305.24,137.1 L304.92,138.2 L304.56,139.28 L304.14,140.33 L303.68,141.36 L303.16,142.37 L302.6,143.34 L302,144.28 L301.35,145.19 L300.66,146.07 L299.93,146.91 L299.16,147.72 L298.35,148.49 L297.51,149.22 L296.63,149.91 L295.72,150.56 L294.78,151.16 L293.81,151.72 L292.81,152.23 L291.78,152.7 L290.72,153.11 L289.64,153.48 L288.54,153.79 L287.42,154.05 L286.27,154.26 L285.11,154.4 L283.93,154.49 L282.73,154.52 C269.9,154.52,259.5,144.12,259.5,131.29 C259.5,118.46,269.9,108.06,282.73,108.06 C295.56,108.06,305.97,118.46,305.97,131.29 Z " stroke-width="0" />
<path d="M253.23,165.57 L252.31,164.75 L251.41,163.91 L250.54,163.05 L249.69,162.17 L248.87,161.27 L248.07,160.35 L247.3,159.4 L246.56,158.44 L245.85,157.46 L245.16,156.47 L244.5,155.45 L243.87,154.42 L243.26,153.38 L242.69,152.31 L242.14,151.24 L241.62,150.15 L241.14,149.04 L240.68,147.93 L240.25,146.8 L239.85,145.66 L239.48,144.51 L239.14,143.35 L238.83,142.18 L238.56,141 L238.31,139.81 L238.1,138.61 L237.92,137.41 L237.77,136.19 L237.65,134.98 L237.57,133.75 L237.52,132.53 L237.5,131.29 C237.5,106.32,257.76,86.066,282.74,86.066 C307.72,86.066,327.97,106.32,327.97,131.29 C327.97,144.46,322.23,156.98,312.24,165.57 " stroke-width="0" />
<path d="M312.24,219.02 V219.02 V219.02 V219.02 V219.02 V219.02 V219.02 V219.02 V219.02 V219.02 V219.02 V219.02 V219.02 V219.02 V219.02 V219.02 V219.02 V219.02 V219.02 V219.02 V219.02 V219.02 V219.02 V219.02 V219.03 V219.03 V219.03 V219.03 V219.03 V219.03 V219.03 V219.03 V219.03 V219.03 V219.03 V219.03 V219.03 V219.03 V219.03 V219.03 V219.03 V219.03 V219.03 V219.03 V219.03 V219.03 V219.03 C312.24,233.25,302.09,245.45,288.11,248.03 " stroke-width="0" />
<path d="M274.27,198.76 H274.27 C274.27,194.08,278.06,190.29,282.74,190.29 C287.41,190.29,291.21,194.08,291.21,198.76 " stroke-width="0" />
<line x1="291.2" y1="215.6" x2="291.2" y2="198.56" stroke-width="0" />
<line x1="274.16" y1="215.6" x2="274.16" y2="198.56" stroke-width="0" />
<line x1="253.04" y1="218.96" x2="253.04" y2="165.44" stroke-width="0" />
<line x1="212.24" y1="165.44" x2="212.24" y2="218.96" stroke-width="0" />
<line x1="153.44" y1="218.96" x2="153.44" y2="165.44" stroke-width="0" />
<line x1="191.36" y1="215.6" x2="191.36" y2="198.56" stroke-width="0" />
<line x1="174.32" y1="215.6" x2="174.32" y2="198.56" stroke-width="0" />
<path d="M153.46,165.57 L152.54,164.75 L151.64,163.91 L150.77,163.05 L149.92,162.17 L149.1,161.27 L148.31,160.35 L147.54,159.4 L146.8,158.44 L146.08,157.46 L145.39,156.47 L144.73,155.45 L144.1,154.42 L143.5,153.38 L142.92,152.31 L142.38,151.24 L141.86,150.15 L141.37,149.04 L140.91,147.93 L140.48,146.8 L140.08,145.66 L139.71,144.51 L139.38,143.35 L139.07,142.18 L138.79,141 L138.55,139.81 L138.33,138.61 L138.15,137.41 L138,136.19 L137.89,134.98 L137.8,133.75 L137.75,132.53 L137.74,131.29 C137.74,106.32,157.99,86.066,182.97,86.066 C207.95,86.066,228.21,106.32,228.21,131.29 C228.21,144.46,222.46,156.98,212.47,165.57 " stroke-width="0" />
<path d="M168.11,151.52 L168.1,151.79 L168.08,152.06 L168.05,152.33 L168,152.6 L167.94,152.86 L167.87,153.11 L167.78,153.36 L167.69,153.61 L167.58,153.84 L167.46,154.08 L167.33,154.3 L167.19,154.52 L167.04,154.73 L166.88,154.93 L166.71,155.13 L166.54,155.31 L166.35,155.49 L166.15,155.66 L165.95,155.82 L165.74,155.97 L165.52,156.11 L165.3,156.24 L165.07,156.36 L164.83,156.46 L164.58,156.56 L164.33,156.65 L164.08,156.72 L163.82,156.78 L163.56,156.83 L163.29,156.86 L163.01,156.88 L162.74,156.89 C159.77,156.89,157.37,154.48,157.37,151.52 C157.37,148.55,159.77,146.15,162.74,146.15 C165.7,146.15,168.11,148.55,168.11,151.52 Z " stroke-width="0" />
<path d="M202.59,131.29 L202.56,132.3 L202.49,133.3 L202.36,134.28 L202.19,135.25 L201.97,136.19 L201.71,137.13 L201.4,138.04 L201.05,138.93 L200.65,139.8 L200.22,140.64 L199.75,141.46 L199.24,142.26 L198.69,143.03 L198.11,143.77 L197.49,144.48 L196.84,145.16 L196.16,145.81 L195.45,146.43 L194.71,147.01 L193.94,147.56 L193.14,148.07 L192.32,148.54 L191.47,148.98 L190.6,149.37 L189.71,149.72 L188.8,150.03 L187.87,150.29 L186.92,150.51 L185.95,150.68 L184.97,150.81 L183.97,150.88 L182.96,150.91 C172.13,150.91,163.34,142.12,163.34,131.29 C163.34,120.46,172.13,111.68,182.96,111.68 C193.8,111.68,202.59,120.46,202.59,131.29 Z " stroke-width="0" />
<path d="M208.57,111.07 L208.56,111.34 L208.54,111.61 L208.5,111.88 L208.46,112.15 L208.4,112.41 L208.32,112.66 L208.24,112.91 L208.14,113.16 L208.04,113.39 L207.92,113.63 L207.79,113.85 L207.65,114.07 L207.5,114.28 L207.34,114.48 L207.17,114.68 L206.99,114.86 L206.81,115.04 L206.61,115.21 L206.41,115.37 L206.2,115.52 L205.98,115.66 L205.75,115.79 L205.52,115.91 L205.29,116.02 L205.04,116.11 L204.79,116.2 L204.54,116.27 L204.28,116.33 L204.01,116.38 L203.74,116.41 L203.47,116.43 L203.2,116.44 C200.23,116.44,197.82,114.03,197.82,111.07 C197.82,108.11,200.23,105.7,203.2,105.7 C206.16,105.7,208.57,108.11,208.57,111.07 Z " stroke-width="0" />
<polyline points="168.08,176 170.72,176 168.08,171.92 170.72,171.92 " stroke="fuchsia" stroke-width="0" />
<polyline points="172.16,171.92 174.32,171.92 175.04,172.64 175.04,173.36 174.32,173.84 172.88,173.84 " stroke="fuchsia" stroke-width="0" />
<polyline points="174.32,173.84 175.04,174.56 175.04,175.28 174.32,176 172.16,176 " stroke="fuchsia" stroke-width="0" />
<line x1="172.88" y1="176" x2="172.88" y2="171.92" stroke="fuchsia" stroke-width="0" />
<polyline points="176.24,171.92 178.4,171.92 179.12,172.64 179.12,173.36 178.4,173.84 176.96,173.84 " stroke="fuchsia" stroke-width="0" />
<polyline points="178.4,173.84 179.12,174.56 179.12,175.28 178.4,176 176.24,176 " stroke="fuchsia" stroke-width="0" />
<line x1="176.96" y1="176" x2="176.96" y2="171.92" stroke="fuchsia" stroke-width="0" />
<polyline points="180.56,172.64 181.04,171.92 182.48,171.92 183.2,172.64 180.56,175.28 181.04,176 182.48,176 183.2,175.28 " stroke="fuchsia" stroke-width="0" />
<line x1="184.64" y1="171.2" x2="187.28" y2="171.2" stroke="fuchsia" stroke-width="0" />
<polyline points="188.72,176 188.72,172.64 189.44,171.92 " stroke="fuchsia" stroke-width="0" />
<polygon points="192.08,171.92 191.36,171.92 190.88,172.64 190.88,173.84 191.36,174.56 192.08,174.56 192.8,173.84 192.8,172.64 " stroke="fuchsia" stroke-width="0" />
<line x1="192.8" y1="172.64" x2="193.52" y2="171.92" stroke="fuchsia" stroke-width="0" />
<line x1="194.96" y1="171.92" x2="194.96" y2="174.56" stroke="fuchsia" stroke-width="0" />
<polyline points="194.96,173.84 195.68,174.56 196.4,173.84 196.4,173.36 " stroke="fuchsia" stroke-width="0" />
<polyline points="196.4,173.84 196.88,174.56 197.6,173.84 197.6,171.92 " stroke="fuchsia" stroke-width="0" />
<polyline points="199.04,175.28 199.76,176 199.76,171.92 " stroke="fuchsia" stroke-width="0" />
<line x1="199.04" y1="171.92" x2="200.48" y2="171.92" stroke="fuchsia" stroke-width="0" />
<path d="M174.5,198.76 H174.5 C174.5,194.08,178.3,190.29,182.97,190.29 C187.65,190.29,191.44,194.08,191.44,198.76 " stroke-width="0" />
<path d="M267.88,151.52 L267.87,151.79 L267.85,152.06 L267.81,152.33 L267.77,152.6 L267.71,152.86 L267.63,153.11 L267.55,153.36 L267.45,153.61 L267.35,153.84 L267.23,154.08 L267.1,154.3 L266.96,154.52 L266.81,154.73 L266.65,154.93 L266.48,155.13 L266.3,155.31 L266.11,155.49 L265.92,155.66 L265.72,155.82 L265.51,155.97 L265.29,156.11 L265.06,156.24 L264.83,156.36 L264.59,156.46 L264.35,156.56 L264.1,156.65 L263.85,156.72 L263.59,156.78 L263.32,156.83 L263.05,156.86 L262.78,156.88 L262.5,156.89 C259.54,156.89,257.13,154.48,257.13,151.52 C257.13,148.55,259.54,146.15,262.5,146.15 C265.47,146.15,267.88,148.55,267.88,151.52 Z " stroke-width="0" />
<polyline points="268.4,175.76 271.28,175.76 268.4,171.68 271.28,171.68 " stroke="fuchsia" stroke-width="0" />
<polyline points="272.72,171.68 274.64,171.68 275.36,172.4 275.36,173.12 274.64,173.84 273.2,173.84 " stroke="fuchsia" stroke-width="0" />
<polyline points="274.64,173.84 275.36,174.56 275.36,175.28 274.64,175.76 272.72,175.76 " stroke="fuchsia" stroke-width="0" />
<line x1="273.2" y1="175.76" x2="273.2" y2="171.68" stroke="fuchsia" stroke-width="0" />
<polyline points="276.8,171.68 278.72,171.68 279.44,172.4 279.44,173.12 278.72,173.84 277.52,173.84 " stroke="fuchsia" stroke-width="0" />
<polyline points="278.72,173.84 279.44,174.56 279.44,175.28 278.72,175.76 276.8,175.76 " stroke="fuchsia" stroke-width="0" />
<line x1="277.52" y1="175.76" x2="277.52" y2="171.68" stroke="fuchsia" stroke-width="0" />
<polyline points="280.88,172.4 281.6,171.68 283.04,171.68 283.52,172.4 280.88,175.28 281.6,175.76 283.04,175.76 283.52,175.28 " stroke="fuchsia" stroke-width="0" />
<line x1="284.96" y1="170.96" x2="287.84" y2="170.96" stroke="fuchsia" stroke-width="0" />
<polyline points="289.04,175.76 289.04,172.4 289.76,171.68 " stroke="fuchsia" stroke-width="0" />
<polygon points="292.64,171.68 291.92,171.68 291.2,172.4 291.2,173.84 291.92,174.56 292.64,174.56 293.36,173.84 293.36,172.4 " stroke="fuchsia" stroke-width="0" />
<line x1="293.36" y1="172.4" x2="294.08" y2="171.68" stroke="fuchsia" stroke-width="0" />
<line x1="295.28" y1="171.68" x2="295.28" y2="174.56" stroke="fuchsia" stroke-width="0" />
<polyline points="295.28,173.84 296,174.56 296.72,173.84 296.72,173.12 " stroke="fuchsia" stroke-width="0" />
<polyline points="296.72,173.84 297.44,174.56 298.16,173.84 298.16,171.68 " stroke="fuchsia" stroke-width="0" />
<polyline points="299.36,175.28 300.08,175.76 301.52,175.76 302.24,175.28 302.24,174.56 301.52,173.84 300.08,173.84 299.36,173.12 299.36,171.68 302.24,171.68 " stroke="fuchsia" stroke-width="0" />
<path d="M212.48,219.02 V219.02 V219.02 V219.02 V219.02 V219.02 V219.02 V219.02 V219.02 V219.02 V219.02 V219.02 V219.02 V219.02 V219.02 V219.02 V219.02 V219.02 V219.02 V219.02 V219.02 V219.02 V219.02 V219.02 V219.03 V219.03 V219.03 V219.03 V219.03 V219.03 V219.03 V219.03 V219.03 V219.03 V219.03 V219.03 V219.03 V219.03 V219.03 V219.03 V219.03 V219.03 V219.03 V219.03 V219.03 V219.03 V219.03 C212.48,235.32,199.27,248.52,182.97,248.52 C166.68,248.52,153.47,235.32,153.47,219.03 " stroke-width="0" />
<polyline points="177.6,224.16 174.71,224.16 174.71,231.59 191.24,231.59 191.24,224.16 188.34,224.16 " stroke-width="0" />
<line x1="191.12" y1="224" x2="191.12" y2="231.44" stroke="blue" stroke-width="0" />
<path d="M177.6,222.24 C175.65,220.63,174.5,218.23,174.5,215.69 " stroke-width="0" />
<line x1="177.44" y1="224" x2="177.44" y2="222.08" stroke-width="0" />
<path d="M191.44,215.69 H191.44 C191.44,218.22,190.3,220.63,188.34,222.23 " stroke-width="0" />
<line x1="188.24" y1="224" x2="188.24" y2="222.08" stroke-width="0" />
<path d="M277.37,248.03 C263.38,245.45,253.23,233.25,253.23,219.03 " stroke-width="0" />
<polyline points="288.11,231.59 291.01,231.59 291.01,224.16 288.11,224.16 " stroke-width="0" />
<line x1="290.96" y1="224" x2="290.96" y2="231.44" stroke="blue" stroke-width="0" />
<polyline points="277.37,224.16 274.48,224.16 274.48,231.59 277.37,231.59 " stroke-width="0" />
<path d="M277.37,222.24 C275.41,220.63,274.27,218.23,274.27,215.69 " stroke-width="0" />
<line x1="277.28" y1="224" x2="277.28" y2="222.08" stroke-width="0" />
<path d="M291.21,215.69 H291.21 C291.21,218.22,290.07,220.63,288.11,222.23 " stroke-width="0" />
<line x1="288.08" y1="224" x2="288.08" y2="222.08" stroke-width="0" />
<line x1="277.28" y1="231.44" x2="277.28" y2="248" stroke-width="0" />
<line x1="288.08" y1="248" x2="288.08" y2="231.44" stroke-width="0" />
<line x1="510.08" y1="165.44" x2="510.08" y2="218.96" stroke-width="0" />
<path d="M472.27,198.76 H472.27 C472.27,194.08,476.06,190.29,480.73,190.29 C485.41,190.29,489.2,194.08,489.2,198.76 " stroke-width="0" />
<line x1="489.2" y1="215.6" x2="489.2" y2="198.56" stroke-width="0" />
<line x1="472.16" y1="215.6" x2="472.16" y2="198.56" stroke-width="0" />
<line x1="451.04" y1="218.96" x2="451.04" y2="165.44" stroke-width="0" />
<line x1="411.68" y1="165.44" x2="411.68" y2="218.96" stroke-width="0" />
<path d="M373.84,198.76 H373.84 C373.84,194.08,377.63,190.29,382.3,190.29 C386.98,190.29,390.77,194.08,390.77,198.76 " stroke-width="0" />
<line x1="390.56" y1="215.6" x2="390.56" y2="198.56" stroke-width="0" />
<line x1="373.76" y1="215.6" x2="373.76" y2="198.56" stroke-width="0" />
<line x1="352.64" y1="218.96" x2="352.64" y2="165.44" stroke-width="0" />
<line x1="312.08" y1="165.44" x2="312.08" y2="218.96" stroke-width="0" />
<path d="M451.23,165.57 L450.3,164.75 L449.41,163.91 L448.53,163.05 L447.69,162.17 L446.86,161.27 L446.07,160.35 L445.3,159.4 L444.56,158.44 L443.84,157.46 L443.16,156.47 L442.5,155.45 L441.86,154.42 L441.26,153.38 L440.69,152.31 L440.14,151.24 L439.62,150.15 L439.13,149.04 L438.67,147.93 L438.24,146.8 L437.84,145.66 L437.48,144.51 L437.14,143.35 L436.83,142.18 L436.55,141 L436.31,139.81 L436.1,138.61 L435.92,137.41 L435.77,136.19 L435.65,134.98 L435.57,133.75 L435.52,132.53 L435.5,131.29 C435.5,106.32,455.75,86.066,480.73,86.066 C505.71,86.066,525.97,106.32,525.97,131.29 C525.97,144.46,520.22,156.98,510.24,165.57 " stroke-width="0" />
<path d="M407.9,111.07 L407.89,111.34 L407.87,111.61 L407.84,111.88 L407.79,112.15 L407.73,112.41 L407.66,112.66 L407.57,112.91 L407.48,113.16 L407.37,113.39 L407.25,113.63 L407.12,113.85 L406.98,114.07 L406.83,114.28 L406.67,114.48 L406.5,114.68 L406.32,114.86 L406.14,115.04 L405.94,115.21 L405.74,115.37 L405.53,115.52 L405.31,115.66 L405.09,115.79 L404.85,115.91 L404.62,116.02 L404.37,116.11 L404.12,116.2 L403.87,116.27 L403.61,116.33 L403.34,116.38 L403.08,116.41 L402.8,116.43 L402.53,116.44 C399.56,116.44,397.16,114.03,397.16,111.07 C397.16,108.11,399.56,105.7,402.53,105.7 C405.49,105.7,407.9,108.11,407.9,111.07 Z " stroke-width="0" />
<path d="M352.8,165.57 L351.87,164.75 L350.98,163.91 L350.1,163.05 L349.26,162.17 L348.43,161.27 L347.64,160.35 L346.87,159.4 L346.13,158.44 L345.41,157.46 L344.73,156.47 L344.07,155.45 L343.43,154.42 L342.83,153.38 L342.26,152.31 L341.71,151.24 L341.19,150.15 L340.7,149.04 L340.24,147.93 L339.81,146.8 L339.41,145.66 L339.05,144.51 L338.71,143.35 L338.4,142.18 L338.12,141 L337.88,139.81 L337.67,138.61 L337.49,137.41 L337.34,136.19 L337.22,134.98 L337.14,133.75 L337.09,132.53 L337.07,131.29 C337.07,106.32,357.32,86.066,382.3,86.066 C407.29,86.066,427.54,106.32,427.54,131.29 C427.54,144.46,421.79,156.98,411.81,165.57 " stroke-width="0" />
<polyline points="368,173.36 370.88,173.36 368,169.28 370.88,169.28 " stroke="fuchsia" stroke-width="0" />
<polyline points="372.08,169.28 374.24,169.28 374.96,170 374.96,170.48 374.24,171.2 372.8,171.2 " stroke="fuchsia" stroke-width="0" />
<polyline points="374.24,171.2 374.96,171.92 374.96,172.64 374.24,173.36 372.08,173.36 " stroke="fuchsia" stroke-width="0" />
<line x1="372.8" y1="173.36" x2="372.8" y2="169.28" stroke="fuchsia" stroke-width="0" />
<polyline points="376.4,169.28 378.32,169.28 379.04,170 379.04,170.48 378.32,171.2 376.88,171.2 " stroke="fuchsia" stroke-width="0" />
<polyline points="378.32,171.2 379.04,171.92 379.04,172.64 378.32,173.36 376.4,173.36 " stroke="fuchsia" stroke-width="0" />
<line x1="376.88" y1="173.36" x2="376.88" y2="169.28" stroke="fuchsia" stroke-width="0" />
<polyline points="380.48,170 381.2,169.28 382.4,169.28 383.12,170 380.48,172.64 381.2,173.36 382.4,173.36 383.12,172.64 " stroke="fuchsia" stroke-width="0" />
<line x1="384.56" y1="168.56" x2="387.44" y2="168.56" stroke="fuchsia" stroke-width="0" />
<polyline points="388.64,173.36 388.64,170 389.36,169.28 " stroke="fuchsia" stroke-width="0" />
<polygon points="392.24,169.28 391.52,169.28 390.8,170 390.8,171.2 391.52,171.92 392.24,171.92 392.72,171.2 392.72,170 " stroke="fuchsia" stroke-width="0" />
<line x1="392.72" y1="170" x2="393.44" y2="169.28" stroke="fuchsia" stroke-width="0" />
<line x1="394.88" y1="169.28" x2="394.88" y2="171.92" stroke="fuchsia" stroke-width="0" />
<polyline points="394.88,171.2 395.6,171.92 396.32,171.2 396.32,170.48 " stroke="fuchsia" stroke-width="0" />
<polyline points="396.32,171.2 397.04,171.92 397.76,171.2 397.76,169.28 " stroke="fuchsia" stroke-width="0" />
<polyline points="398.96,172.64 399.68,173.36 401.12,173.36 401.84,172.64 401.84,171.92 401.12,171.2 400.4,171.2 " stroke="fuchsia" stroke-width="0" />
<polyline points="401.12,171.2 401.84,170.48 401.84,170 401.12,169.28 399.68,169.28 398.96,170 " stroke="fuchsia" stroke-width="0" />
<path d="M405.54,131.29 L405.5,132.49 L405.42,133.67 L405.27,134.83 L405.06,135.97 L404.8,137.1 L404.49,138.2 L404.12,139.28 L403.71,140.33 L403.24,141.36 L402.73,142.37 L402.17,143.34 L401.57,144.28 L400.92,145.19 L400.23,146.07 L399.5,146.91 L398.73,147.72 L397.92,148.49 L397.08,149.22 L396.2,149.91 L395.29,150.56 L394.35,151.16 L393.37,151.72 L392.37,152.23 L391.34,152.7 L390.29,153.11 L389.21,153.48 L388.11,153.79 L386.98,154.05 L385.84,154.26 L384.68,154.4 L383.5,154.49 L382.3,154.52 C369.47,154.52,359.06,144.12,359.06,131.29 C359.06,118.46,369.47,108.06,382.3,108.06 C395.13,108.06,405.54,118.46,405.54,131.29 Z " stroke-width="0" />
<path d="M367.44,151.52 L367.43,151.79 L367.41,152.06 L367.38,152.33 L367.33,152.6 L367.27,152.86 L367.2,153.11 L367.11,153.36 L367.02,153.61 L366.91,153.84 L366.79,154.08 L366.66,154.3 L366.52,154.52 L366.37,154.73 L366.21,154.93 L366.05,155.13 L365.87,155.31 L365.68,155.49 L365.49,155.66 L365.28,155.82 L365.07,155.97 L364.85,156.11 L364.63,156.24 L364.4,156.36 L364.16,156.46 L363.92,156.56 L363.67,156.65 L363.41,156.72 L363.15,156.78 L362.89,156.83 L362.62,156.86 L362.35,156.88 L362.07,156.89 C359.11,156.89,356.7,154.48,356.7,151.52 C356.7,148.55,359.11,146.15,362.07,146.15 C365.04,146.15,367.44,148.55,367.44,151.52 Z " stroke-width="0" />
<path d="M506.33,111.07 L506.32,111.34 L506.3,111.61 L506.27,111.88 L506.22,112.15 L506.16,112.41 L506.09,112.66 L506,112.91 L505.91,113.16 L505.8,113.39 L505.68,113.63 L505.55,113.85 L505.41,114.07 L505.26,114.28 L505.1,114.48 L504.93,114.68 L504.75,114.86 L504.57,115.04 L504.37,115.21 L504.17,115.37 L503.96,115.52 L503.74,115.66 L503.52,115.79 L503.29,115.91 L503.05,116.02 L502.81,116.11 L502.56,116.2 L502.3,116.27 L502.04,116.33 L501.78,116.38 L501.51,116.41 L501.24,116.43 L500.96,116.44 C498,116.44,495.59,114.03,495.59,111.07 C495.59,108.11,498,105.7,500.96,105.7 C503.92,105.7,506.33,108.11,506.33,111.07 Z " stroke-width="0" />
<path d="M465.87,151.52 L465.86,151.79 L465.84,152.06 L465.81,152.33 L465.76,152.6 L465.7,152.86 L465.63,153.11 L465.54,153.36 L465.45,153.61 L465.34,153.84 L465.22,154.08 L465.09,154.3 L464.95,154.52 L464.8,154.73 L464.64,154.93 L464.48,155.13 L464.3,155.31 L464.11,155.49 L463.92,155.66 L463.71,155.82 L463.5,155.97 L463.29,156.11 L463.06,156.24 L462.83,156.36 L462.59,156.46 L462.35,156.56 L462.1,156.65 L461.84,156.72 L461.58,156.78 L461.32,156.83 L461.05,156.86 L460.78,156.88 L460.5,156.89 C457.54,156.89,455.13,154.48,455.13,151.52 C455.13,148.55,457.54,146.15,460.5,146.15 C463.46,146.15,465.87,148.55,465.87,151.52 Z " stroke-width="0" />
<path d="M503.97,131.29 L503.94,132.49 L503.85,133.67 L503.7,134.83 L503.5,135.97 L503.24,137.1 L502.92,138.2 L502.56,139.28 L502.14,140.33 L501.68,141.36 L501.16,142.37 L500.6,143.34 L500,144.28 L499.35,145.19 L498.66,146.07 L497.93,146.91 L497.16,147.72 L496.35,148.49 L495.51,149.22 L494.63,149.91 L493.72,150.56 L492.78,151.16 L491.81,151.72 L490.8,152.23 L489.77,152.7 L488.72,153.11 L487.64,153.48 L486.54,153.79 L485.41,154.05 L484.27,154.26 L483.11,154.4 L481.93,154.49 L480.73,154.52 C467.9,154.52,457.49,144.12,457.49,131.29 C457.49,118.46,467.9,108.06,480.73,108.06 C493.56,108.06,503.97,118.46,503.97,131.29 Z " stroke-width="0" />
<polyline points="465.92,173.84 468.8,173.84 465.92,169.76 468.8,169.76 " stroke="fuchsia" stroke-width="0" />
<polyline points="470,169.76 472.16,169.76 472.88,170.48 472.88,171.2 472.16,171.68 470.72,171.68 " stroke="fuchsia" stroke-width="0" />
<polyline points="472.16,171.68 472.88,172.4 472.88,173.12 472.16,173.84 470,173.84 " stroke="fuchsia" stroke-width="0" />
<line x1="470.72" y1="173.84" x2="470.72" y2="169.76" stroke="fuchsia" stroke-width="0" />
<polyline points="474.32,169.76 476.24,169.76 476.96,170.48 476.96,171.2 476.24,171.68 474.8,171.68 " stroke="fuchsia" stroke-width="0" />
<polyline points="476.24,171.68 476.96,172.4 476.96,173.12 476.24,173.84 474.32,173.84 " stroke="fuchsia" stroke-width="0" />
<line x1="474.8" y1="173.84" x2="474.8" y2="169.76" stroke="fuchsia" stroke-width="0" />
<polyline points="478.4,170.48 479.12,169.76 480.32,169.76 481.04,170.48 478.4,173.12 479.12,173.84 480.32,173.84 481.04,173.12 " stroke="fuchsia" stroke-width="0" />
<line x1="482.48" y1="169.04" x2="485.12" y2="169.04" stroke="fuchsia" stroke-width="0" />
<polyline points="486.56,173.84 486.56,170.48 487.28,169.76 " stroke="fuchsia" stroke-width="0" />
<polygon points="489.92,169.76 489.44,169.76 488.72,170.48 488.72,171.68 489.44,172.4 489.92,172.4 490.64,171.68 490.64,170.48 " stroke="fuchsia" stroke-width="0" />
<line x1="490.64" y1="170.48" x2="491.36" y2="169.76" stroke="fuchsia" stroke-width="0" />
<line x1="492.8" y1="169.76" x2="492.8" y2="172.4" stroke="fuchsia" stroke-width="0" />
<polyline points="492.8,171.68 493.52,172.4 494.24,171.68 494.24,171.2 " stroke="fuchsia" stroke-width="0" />
<polyline points="494.24,171.68 494.96,172.4 495.44,171.68 495.44,169.76 " stroke="fuchsia" stroke-width="0" />
<polyline points="499.76,171.2 496.88,171.2 499.04,173.84 499.04,169.76 " stroke="fuchsia" stroke-width="0" />
<path d="M376.94,248.03 C362.95,245.45,352.8,233.25,352.8,219.03 " stroke-width="0" />
<path d="M376.94,222.24 C374.98,220.63,373.84,218.23,373.84,215.69 " stroke-width="0" />
<polyline points="376.94,224.16 374.05,224.16 374.05,231.59 376.94,231.59 " stroke-width="0" />
<path d="M411.81,219.02 V219.02 V219.02 V219.02 V219.02 V219.02 V219.02 V219.02 V219.02 V219.02 V219.02 V219.02 V219.02 V219.02 V219.02 V219.02 V219.02 V219.02 V219.02 V219.02 V219.02 V219.02 V219.02 V219.02 V219.03 V219.03 V219.03 V219.03 V219.03 V219.03 V219.03 V219.03 V219.03 V219.03 V219.03 V219.03 V219.03 V219.03 V219.03 V219.03 V219.03 V219.03 V219.03 V219.03 V219.03 V219.03 V219.03 C411.81,233.25,401.66,245.45,387.68,248.03 " stroke-width="0" />
<polyline points="387.68,231.59 390.57,231.59 390.57,224.16 387.68,224.16 " stroke-width="0" />
<line x1="390.56" y1="224" x2="390.56" y2="231.44" stroke="blue" stroke-width="0" />
<path d="M390.77,215.69 H390.77 C390.77,218.22,389.63,220.63,387.68,222.23 " stroke-width="0" />
<line x1="376.88" y1="224" x2="376.88" y2="222.08" stroke-width="0" />
<line x1="387.44" y1="224" x2="387.44" y2="222.08" stroke-width="0" />
<line x1="376.88" y1="231.44" x2="376.88" y2="248" stroke-width="0" />
<line x1="387.44" y1="248" x2="387.44" y2="231.44" stroke-width="0" />
<path d="M510.24,219.02 V219.02 V219.02 V219.02 V219.02 V219.02 V219.02 V219.02 V219.02 V219.02 V219.02 V219.02 V219.02 V219.02 V219.02 V219.02 V219.02 V219.02 V219.02 V219.02 V219.02 V219.02 V219.02 V219.02 V219.03 V219.03 V219.03 V219.03 V219.03 V219.03 V219.03 V219.03 V219.03 V219.03 V219.03 V219.03 V219.03 V219.03 V219.03 V219.03 V219.03 V219.03 V219.03 V219.03 V219.03 V219.03 V219.03 C510.24,235.32,497.03,248.52,480.74,248.52 C464.45,248.52,451.23,235.32,451.23,219.03 " stroke-width="0" />
<polyline points="475.37,224.16 472.48,224.16 472.48,231.59 489,231.59 489,224.16 486.11,224.16 " stroke-width="0" />
<path d="M475.37,222.24 C473.41,220.63,472.27,218.23,472.27,215.69 " stroke-width="0" />
<line x1="475.28" y1="224" x2="475.28" y2="222.08" stroke-width="0" />
<line x1="488.96" y1="224" x2="488.96" y2="231.44" stroke="blue" stroke-width="0" />
<path d="M489.2,215.69 H489.2 C489.2,218.22,488.07,220.63,486.11,222.23 " stroke-width="0" />
<line x1="486.08" y1="224" x2="486.08" y2="222.08" stroke-width="0" />
<polyline points="175.76,155.12 175.76,159.44 178.4,155.12 178.4,159.44 " stroke="fuchsia" stroke-width="0" />
<polyline points="179.84,155.84 180.56,155.12 182,155.12 182.72,155.84 179.84,158.72 180.56,159.44 182,159.44 182.72,158.72 " stroke="fuchsia" stroke-width="0" />
<line x1="183.92" y1="155.12" x2="183.92" y2="159.44" stroke="fuchsia" stroke-width="0" />
<polyline points="186.8,159.44 184.64,157.28 183.92,157.28 " stroke="fuchsia" stroke-width="0" />
<line x1="184.64" y1="157.28" x2="186.8" y2="155.12" stroke="fuchsia" stroke-width="0" />
<polyline points="192.32,157.28 194.24,157.28 194.96,156.56 194.96,155.84 194.24,155.12 193.04,155.12 192.32,155.84 192.32,158 193.76,159.44 194.24,159.44 " stroke="fuchsia" stroke-width="0" />
<polygon points="197.12,155.12 196.4,155.84 196.4,158.72 197.12,159.44 197.84,159.44 198.56,158.72 198.56,155.84 197.84,155.12 " stroke="fuchsia" stroke-width="0" />
<polyline points="200.48,155.12 199.76,155.84 199.76,156.56 200.48,157.28 201.92,157.28 202.64,158 202.64,158.72 201.92,159.44 200.48,159.44 199.76,158.72 199.76,158 200.48,157.28 " stroke="fuchsia" stroke-width="0" />
<polyline points="201.92,157.28 202.64,156.56 202.64,155.84 201.92,155.12 200.48,155.12 " stroke="fuchsia" stroke-width="0" />
<polyline points="204.08,159.44 206.72,159.44 204.08,155.12 206.72,155.12 " stroke="fuchsia" stroke-width="0" />
<polyline points="208.16,159.44 210.8,159.44 208.16,155.12 210.8,155.12 " stroke="fuchsia" stroke-width="0" />
<polyline points="272,156.56 272,160.64 274.64,156.56 274.64,160.64 " stroke="fuchsia" stroke-width="0" />
<polyline points="276.08,157.04 276.8,156.56 278.24,156.56 278.72,157.04 276.08,159.92 276.8,160.64 278.24,160.64 278.72,159.92 " stroke="fuchsia" stroke-width="0" />
<line x1="280.16" y1="156.56" x2="280.16" y2="160.64" stroke="fuchsia" stroke-width="0" />
<polyline points="283.04,160.64 280.88,158.48 280.16,158.48 " stroke="fuchsia" stroke-width="0" />
<line x1="280.88" y1="158.48" x2="283.04" y2="156.56" stroke="fuchsia" stroke-width="0" />
<polyline points="288.56,158.48 290.48,158.48 291.2,157.76 291.2,157.04 290.48,156.56 289.28,156.56 288.56,157.04 288.56,159.2 289.76,160.64 290.48,160.64 " stroke="fuchsia" stroke-width="0" />
<polygon points="293.36,156.56 292.64,157.04 292.64,159.92 293.36,160.64 294.08,160.64 294.56,159.92 294.56,157.04 294.08,156.56 " stroke="fuchsia" stroke-width="0" />
<polyline points="296.72,156.56 296,157.04 296,157.76 296.72,158.48 298.16,158.48 298.88,159.2 298.88,159.92 298.16,160.64 296.72,160.64 296,159.92 296,159.2 296.72,158.48 " stroke="fuchsia" stroke-width="0" />
<polyline points="298.16,158.48 298.88,157.76 298.88,157.04 298.16,156.56 296.72,156.56 " stroke="fuchsia" stroke-width="0" />
<polyline points="300.08,160.64 302.96,160.64 300.08,156.56 302.96,156.56 " stroke="fuchsia" stroke-width="0" />
<polyline points="304.4,160.64 307.04,160.64 304.4,156.56 307.04,156.56 " stroke="fuchsia" stroke-width="0" />
<polyline points="372.56,158.24 372.56,162.32 375.44,158.24 375.44,162.32 " stroke="fuchsia" stroke-width="0" />
<polyline points="376.64,158.96 377.36,158.24 378.8,158.24 379.52,158.96 376.64,161.6 377.36,162.32 378.8,162.32 379.52,161.6 " stroke="fuchsia" stroke-width="0" />
<line x1="380.96" y1="158.24" x2="380.96" y2="162.32" stroke="fuchsia" stroke-width="0" />
<polyline points="383.6,162.32 381.44,160.16 380.96,160.16 " stroke="fuchsia" stroke-width="0" />
<line x1="381.44" y1="160.16" x2="383.6" y2="158.24" stroke="fuchsia" stroke-width="0" />
<polyline points="389.12,160.16 391.28,160.16 392,159.44 392,158.96 391.28,158.24 389.84,158.24 389.12,158.96 389.12,160.88 390.56,162.32 391.28,162.32 " stroke="fuchsia" stroke-width="0" />
<polygon points="393.92,158.24 393.2,158.96 393.2,161.6 393.92,162.32 394.64,162.32 395.36,161.6 395.36,158.96 394.64,158.24 " stroke="fuchsia" stroke-width="0" />
<polyline points="397.28,158.24 396.8,158.96 396.8,159.44 397.28,160.16 398.72,160.16 399.44,160.88 399.44,161.6 398.72,162.32 397.28,162.32 396.8,161.6 396.8,160.88 397.28,160.16 " stroke="fuchsia" stroke-width="0" />
<polyline points="398.72,160.16 399.44,159.44 399.44,158.96 398.72,158.24 397.28,158.24 " stroke="fuchsia" stroke-width="0" />
<polyline points="400.88,162.32 403.52,162.32 400.88,158.24 403.52,158.24 " stroke="fuchsia" stroke-width="0" />
<polyline points="404.96,162.32 407.84,162.32 404.96,158.24 407.84,158.24 " stroke="fuchsia" stroke-width="0" />
<polyline points="471.92,158.24 471.92,162.32 474.8,158.24 474.8,162.32 " stroke="fuchsia" stroke-width="0" />
<polyline points="476,158.96 476.72,158.24 478.16,158.24 478.88,158.96 476,161.6 476.72,162.32 478.16,162.32 478.88,161.6 " stroke="fuchsia" stroke-width="0" />
<line x1="480.32" y1="158.24" x2="480.32" y2="162.32" stroke="fuchsia" stroke-width="0" />
<polyline points="482.96,162.32 480.8,160.16 480.32,160.16 " stroke="fuchsia" stroke-width="0" />
<line x1="480.8" y1="160.16" x2="482.96" y2="158.24" stroke="fuchsia" stroke-width="0" />
<polyline points="488.48,160.16 490.64,160.16 491.36,159.44 491.36,158.96 490.64,158.24 489.2,158.24 488.48,158.96 488.48,160.88 489.92,162.32 490.64,162.32 " stroke="fuchsia" stroke-width="0" />
<polygon points="493.28,158.24 492.56,158.96 492.56,161.6 493.28,162.32 494,162.32 494.72,161.6 494.72,158.96 494,158.24 " stroke="fuchsia" stroke-width="0" />
<polyline points="496.64,158.24 496.16,158.96 496.16,159.44 496.64,160.16 498.08,160.16 498.8,160.88 498.8,161.6 498.08,162.32 496.64,162.32 496.16,161.6 496.16,160.88 496.64,160.16 " stroke="fuchsia" stroke-width="0" />
<polyline points="498.08,160.16 498.8,159.44 498.8,158.96 498.08,158.24 496.64,158.24 " stroke="fuchsia" stroke-width="0" />
<polyline points="500.24,162.32 502.88,162.32 500.24,158.24 502.88,158.24 " stroke="fuchsia" stroke-width="0" />
<polyline points="504.32,162.32 507.2,162.32 504.32,158.24 507.2,158.24 " stroke="fuchsia" stroke-width="0" />
</g>
</svg>
