M48
INCH,TZ
T1C0.025
T2C0.032
T3C0.040
%
G05
T1
X82200Y-23400
X82200Y-46400
X44000Y-23400
X44000Y-46400
X73900Y-37300
X75200Y-44300
X69200Y-35800
X76400Y-35800
X55800Y-44400
X69200Y-42000
X69100Y-34800
X62500Y-40100
X52800Y-43100
X67200Y-31300
X78400Y-34800
X73000Y-34800
X62400Y-30700
X62500Y-36100
X51400Y-27500
X73300Y-44000
X64400Y-24600
X61700Y-38100
X63200Y-30300
X63200Y-39100
X56500Y-38100
X56500Y-31100
X52800Y-25000
X55700Y-39100
X63000Y-23000
X59400Y-29500
X53200Y-31400
X53200Y-30300
X56300Y-41100
X64100Y-35100
X69100Y-30500
X65100Y-34100
X74200Y-26300
X75700Y-32400
X75700Y-27200
X71900Y-34700
X72400Y-42700
X66100Y-31400
X66100Y-33900
X73400Y-41800
X67000Y-32300
X67000Y-33900
X74400Y-41100
X75900Y-36700
X64000Y-41000
X79500Y-39000
X77000Y-31000
T2
X51100Y-45500
X51100Y-42500
X51100Y-40300
X51100Y-37300
X51100Y-35300
X51100Y-32300
X46500Y-44500
X46500Y-43500
X46500Y-39300
X46500Y-38300
X46500Y-34300
X46500Y-33300
X51200Y-24100
X50200Y-24100
X48200Y-25800
X51200Y-25800
X58900Y-23700
X57900Y-23700
X56900Y-23700
X58900Y-28100
X58900Y-25100
X54200Y-28000
X54200Y-25000
X55900Y-28000
X55900Y-25000
X55200Y-23700
X54200Y-23700
X53200Y-23700
X60800Y-29600
X60800Y-26600
X63400Y-29300
X63400Y-26300
X65500Y-23700
X66500Y-23700
X46500Y-29700
X46500Y-28700
X46500Y-27700
X46500Y-26700
X46500Y-25700
X46500Y-24700
X46500Y-23700
X59000Y-45500
X59000Y-43500
X61800Y-24100
X60800Y-24100
X68200Y-23700
X69200Y-23700
X66200Y-26600
X69200Y-26600
X66200Y-25100
X69200Y-25100
X64400Y-24600
X64400Y-27600
X66200Y-28600
X67200Y-28600
X71700Y-23700
X70700Y-23700
X74200Y-23700
X73200Y-23700
X71400Y-40100
X71900Y-38100
X72400Y-40100
X72900Y-38100
X73400Y-40100
X73900Y-38100
X74400Y-40100
X74900Y-38100
X75400Y-40100
X75900Y-38100
X76400Y-40100
X76900Y-38100
X77400Y-40100
X77900Y-38100
X78400Y-40100
X67800Y-37900
X67800Y-38900
X67800Y-39900
X67800Y-40900
X67800Y-41900
X60500Y-41100
X60500Y-40100
X60500Y-39100
X60500Y-38100
X60500Y-37100
X60500Y-36100
X60500Y-35100
X60500Y-34100
X60500Y-33100
X57500Y-33100
X57500Y-34100
X57500Y-35100
X57500Y-36100
X57500Y-37100
X57500Y-38100
X57500Y-39100
X57500Y-40100
X57500Y-41100
X81400Y-41000
X81400Y-42000
X76700Y-23700
X77700Y-23700
X78700Y-23700
X79700Y-23700
X69200Y-45600
X69200Y-44600
X68200Y-44600
X78700Y-25000
X80700Y-25000
X75700Y-25000
X77700Y-25000
T3
X49000Y-42500
X49000Y-43500
X49000Y-44500
X49000Y-37300
X49000Y-38300
X49000Y-39300
X49000Y-32300
X49000Y-33300
X49000Y-34300
X78400Y-45700
X78400Y-43700
X65000Y-45500
X65000Y-43500
X78500Y-29600
X82500Y-29600
X78500Y-31000
X82500Y-31000
X78500Y-28200
X82500Y-28200
X78500Y-32400
X82500Y-32400
X70300Y-29600
X74300Y-29600
X70300Y-31000
X74300Y-31000
X70300Y-28200
X74300Y-28200
X70300Y-32400
X74300Y-32400
T0
M30
