G04 (Genere par PCBNEW (2007-01-15)) le 17/3/2007-20:11:10*
G01*
G70*
G90*
%MOIN*%
G04 Gerber Fmt 3.4, Leading zero omitted, Abs format*
%FSLAX34Y34*%
G04 APERTURE LIST*
%ADD10C,0.015000*%
%ADD11R,0.055000X0.080000*%
%ADD12C,0.080000*%
%ADD13C,0.400000*%
%ADD14R,0.400000X0.400000*%
%ADD15C,0.150000*%
%ADD16R,0.080000X0.080000*%
%ADD17C,0.060000*%
%ADD18R,0.100000X0.100000*%
%ADD19C,0.100000*%
%ADD20R,0.055000X0.055000*%
%ADD21C,0.055000*%
%ADD22C,0.040000*%
%ADD23C,0.080000*%
%ADD24C,0.005000*%
%ADD25C,0.012000*%
%ADD26C,0.001000*%
%ADD27C,0.008000*%
%ADD28C,0.010000*%
%ADD29C,0.090000*%
%ADD30R,0.090000X0.090000*%
%ADD31R,0.070000X0.070000*%
%ADD32C,0.070000*%
G04 APERTURE END LIST*
G54D10*
X42700Y-47700D02*
X83500Y-47700D01*
X83500Y-22100D02*
X83500Y-47700D01*
X42700Y-22100D02*
X83500Y-22100D01*
X42700Y-47700D02*
X42700Y-22100D01*
G54D26*
X46900Y-28700D02*
X46891Y-28783D01*
X46891Y-28783D02*
X46865Y-28862D01*
X46865Y-28862D02*
X46823Y-28935D01*
X46823Y-28935D02*
X46767Y-28997D01*
X46767Y-28997D02*
X46700Y-29046D01*
X46700Y-29046D02*
X46623Y-29080D01*
X46623Y-29080D02*
X46541Y-29097D01*
X46541Y-29097D02*
X46459Y-29097D01*
X46459Y-29097D02*
X46377Y-29080D01*
X46377Y-29080D02*
X46300Y-29046D01*
X46300Y-29046D02*
X46233Y-28997D01*
X46233Y-28997D02*
X46177Y-28935D01*
X46177Y-28935D02*
X46135Y-28862D01*
X46135Y-28862D02*
X46109Y-28783D01*
X46109Y-28783D02*
X46100Y-28700D01*
X46100Y-28700D02*
X46109Y-28617D01*
X46109Y-28617D02*
X46135Y-28538D01*
X46135Y-28538D02*
X46177Y-28465D01*
X46177Y-28465D02*
X46233Y-28403D01*
X46233Y-28403D02*
X46300Y-28354D01*
X46300Y-28354D02*
X46377Y-28320D01*
X46377Y-28320D02*
X46459Y-28303D01*
X46459Y-28303D02*
X46541Y-28303D01*
X46541Y-28303D02*
X46623Y-28320D01*
X46623Y-28320D02*
X46700Y-28354D01*
X46700Y-28354D02*
X46767Y-28403D01*
X46767Y-28403D02*
X46823Y-28465D01*
X46823Y-28465D02*
X46865Y-28538D01*
X46865Y-28538D02*
X46891Y-28617D01*
X46891Y-28617D02*
X46900Y-28700D01*
X46900Y-27700D02*
X46891Y-27783D01*
X46891Y-27783D02*
X46865Y-27862D01*
X46865Y-27862D02*
X46823Y-27935D01*
X46823Y-27935D02*
X46767Y-27997D01*
X46767Y-27997D02*
X46700Y-28046D01*
X46700Y-28046D02*
X46623Y-28080D01*
X46623Y-28080D02*
X46541Y-28097D01*
X46541Y-28097D02*
X46459Y-28097D01*
X46459Y-28097D02*
X46377Y-28080D01*
X46377Y-28080D02*
X46300Y-28046D01*
X46300Y-28046D02*
X46233Y-27997D01*
X46233Y-27997D02*
X46177Y-27935D01*
X46177Y-27935D02*
X46135Y-27862D01*
X46135Y-27862D02*
X46109Y-27783D01*
X46109Y-27783D02*
X46100Y-27700D01*
X46100Y-27700D02*
X46109Y-27617D01*
X46109Y-27617D02*
X46135Y-27538D01*
X46135Y-27538D02*
X46177Y-27465D01*
X46177Y-27465D02*
X46233Y-27403D01*
X46233Y-27403D02*
X46300Y-27354D01*
X46300Y-27354D02*
X46377Y-27320D01*
X46377Y-27320D02*
X46459Y-27303D01*
X46459Y-27303D02*
X46541Y-27303D01*
X46541Y-27303D02*
X46623Y-27320D01*
X46623Y-27320D02*
X46700Y-27354D01*
X46700Y-27354D02*
X46767Y-27403D01*
X46767Y-27403D02*
X46823Y-27465D01*
X46823Y-27465D02*
X46865Y-27538D01*
X46865Y-27538D02*
X46891Y-27617D01*
X46891Y-27617D02*
X46900Y-27700D01*
X46900Y-26700D02*
X46891Y-26783D01*
X46891Y-26783D02*
X46865Y-26862D01*
X46865Y-26862D02*
X46823Y-26935D01*
X46823Y-26935D02*
X46767Y-26997D01*
X46767Y-26997D02*
X46700Y-27046D01*
X46700Y-27046D02*
X46623Y-27080D01*
X46623Y-27080D02*
X46541Y-27097D01*
X46541Y-27097D02*
X46459Y-27097D01*
X46459Y-27097D02*
X46377Y-27080D01*
X46377Y-27080D02*
X46300Y-27046D01*
X46300Y-27046D02*
X46233Y-26997D01*
X46233Y-26997D02*
X46177Y-26935D01*
X46177Y-26935D02*
X46135Y-26862D01*
X46135Y-26862D02*
X46109Y-26783D01*
X46109Y-26783D02*
X46100Y-26700D01*
X46100Y-26700D02*
X46109Y-26617D01*
X46109Y-26617D02*
X46135Y-26538D01*
X46135Y-26538D02*
X46177Y-26465D01*
X46177Y-26465D02*
X46233Y-26403D01*
X46233Y-26403D02*
X46300Y-26354D01*
X46300Y-26354D02*
X46377Y-26320D01*
X46377Y-26320D02*
X46459Y-26303D01*
X46459Y-26303D02*
X46541Y-26303D01*
X46541Y-26303D02*
X46623Y-26320D01*
X46623Y-26320D02*
X46700Y-26354D01*
X46700Y-26354D02*
X46767Y-26403D01*
X46767Y-26403D02*
X46823Y-26465D01*
X46823Y-26465D02*
X46865Y-26538D01*
X46865Y-26538D02*
X46891Y-26617D01*
X46891Y-26617D02*
X46900Y-26700D01*
X46900Y-25700D02*
X46891Y-25783D01*
X46891Y-25783D02*
X46865Y-25862D01*
X46865Y-25862D02*
X46823Y-25935D01*
X46823Y-25935D02*
X46767Y-25997D01*
X46767Y-25997D02*
X46700Y-26046D01*
X46700Y-26046D02*
X46623Y-26080D01*
X46623Y-26080D02*
X46541Y-26097D01*
X46541Y-26097D02*
X46459Y-26097D01*
X46459Y-26097D02*
X46377Y-26080D01*
X46377Y-26080D02*
X46300Y-26046D01*
X46300Y-26046D02*
X46233Y-25997D01*
X46233Y-25997D02*
X46177Y-25935D01*
X46177Y-25935D02*
X46135Y-25862D01*
X46135Y-25862D02*
X46109Y-25783D01*
X46109Y-25783D02*
X46100Y-25700D01*
X46100Y-25700D02*
X46109Y-25617D01*
X46109Y-25617D02*
X46135Y-25538D01*
X46135Y-25538D02*
X46177Y-25465D01*
X46177Y-25465D02*
X46233Y-25403D01*
X46233Y-25403D02*
X46300Y-25354D01*
X46300Y-25354D02*
X46377Y-25320D01*
X46377Y-25320D02*
X46459Y-25303D01*
X46459Y-25303D02*
X46541Y-25303D01*
X46541Y-25303D02*
X46623Y-25320D01*
X46623Y-25320D02*
X46700Y-25354D01*
X46700Y-25354D02*
X46767Y-25403D01*
X46767Y-25403D02*
X46823Y-25465D01*
X46823Y-25465D02*
X46865Y-25538D01*
X46865Y-25538D02*
X46891Y-25617D01*
X46891Y-25617D02*
X46900Y-25700D01*
X46900Y-24700D02*
X46891Y-24783D01*
X46891Y-24783D02*
X46865Y-24862D01*
X46865Y-24862D02*
X46823Y-24935D01*
X46823Y-24935D02*
X46767Y-24997D01*
X46767Y-24997D02*
X46700Y-25046D01*
X46700Y-25046D02*
X46623Y-25080D01*
X46623Y-25080D02*
X46541Y-25097D01*
X46541Y-25097D02*
X46459Y-25097D01*
X46459Y-25097D02*
X46377Y-25080D01*
X46377Y-25080D02*
X46300Y-25046D01*
X46300Y-25046D02*
X46233Y-24997D01*
X46233Y-24997D02*
X46177Y-24935D01*
X46177Y-24935D02*
X46135Y-24862D01*
X46135Y-24862D02*
X46109Y-24783D01*
X46109Y-24783D02*
X46100Y-24700D01*
X46100Y-24700D02*
X46109Y-24617D01*
X46109Y-24617D02*
X46135Y-24538D01*
X46135Y-24538D02*
X46177Y-24465D01*
X46177Y-24465D02*
X46233Y-24403D01*
X46233Y-24403D02*
X46300Y-24354D01*
X46300Y-24354D02*
X46377Y-24320D01*
X46377Y-24320D02*
X46459Y-24303D01*
X46459Y-24303D02*
X46541Y-24303D01*
X46541Y-24303D02*
X46623Y-24320D01*
X46623Y-24320D02*
X46700Y-24354D01*
X46700Y-24354D02*
X46767Y-24403D01*
X46767Y-24403D02*
X46823Y-24465D01*
X46823Y-24465D02*
X46865Y-24538D01*
X46865Y-24538D02*
X46891Y-24617D01*
X46891Y-24617D02*
X46900Y-24700D01*
X46900Y-23700D02*
X46891Y-23783D01*
X46891Y-23783D02*
X46865Y-23862D01*
X46865Y-23862D02*
X46823Y-23935D01*
X46823Y-23935D02*
X46767Y-23997D01*
X46767Y-23997D02*
X46700Y-24046D01*
X46700Y-24046D02*
X46623Y-24080D01*
X46623Y-24080D02*
X46541Y-24097D01*
X46541Y-24097D02*
X46459Y-24097D01*
X46459Y-24097D02*
X46377Y-24080D01*
X46377Y-24080D02*
X46300Y-24046D01*
X46300Y-24046D02*
X46233Y-23997D01*
X46233Y-23997D02*
X46177Y-23935D01*
X46177Y-23935D02*
X46135Y-23862D01*
X46135Y-23862D02*
X46109Y-23783D01*
X46109Y-23783D02*
X46100Y-23700D01*
X46100Y-23700D02*
X46109Y-23617D01*
X46109Y-23617D02*
X46135Y-23538D01*
X46135Y-23538D02*
X46177Y-23465D01*
X46177Y-23465D02*
X46233Y-23403D01*
X46233Y-23403D02*
X46300Y-23354D01*
X46300Y-23354D02*
X46377Y-23320D01*
X46377Y-23320D02*
X46459Y-23303D01*
X46459Y-23303D02*
X46541Y-23303D01*
X46541Y-23303D02*
X46623Y-23320D01*
X46623Y-23320D02*
X46700Y-23354D01*
X46700Y-23354D02*
X46767Y-23403D01*
X46767Y-23403D02*
X46823Y-23465D01*
X46823Y-23465D02*
X46865Y-23538D01*
X46865Y-23538D02*
X46891Y-23617D01*
X46891Y-23617D02*
X46900Y-23700D01*
M02*
