<?xml version="1.0" encoding="UTF-8" standalone="no"?>
<!-- Generator: Adobe Illustrator 9.0, SVG Export Plug-In  -->
<svg
   xmlns:dc="http://purl.org/dc/elements/1.1/"
   xmlns:cc="http://creativecommons.org/ns#"
   xmlns:rdf="http://www.w3.org/1999/02/22-rdf-syntax-ns#"
   xmlns:svg="http://www.w3.org/2000/svg"
   xmlns="http://www.w3.org/2000/svg"
   xmlns:sodipodi="http://sodipodi.sourceforge.net/DTD/sodipodi-0.dtd"
   xmlns:inkscape="http://www.inkscape.org/namespaces/inkscape"
   width="2267.718pt"
   height="1116.85pt"
   viewBox="0 0 2267.718 1116.85"
   xml:space="preserve"
   id="svg3804"
   sodipodi:version="0.32"
   inkscape:version="0.46"
   sodipodi:docname="base_and_bottom.svg"
   sodipodi:docbase="/Users/sal/Ponoko/ponoko.com/Oct/making guides - US/starter-kit-inkscape/no side bar"
   inkscape:output_extension="org.inkscape.output.svg.inkscape"><metadata
   id="metadata3848"><rdf:RDF><cc:Work
       rdf:about=""><dc:format>image/svg+xml</dc:format><dc:type
         rdf:resource="http://purl.org/dc/dcmitype/StillImage" /></cc:Work></rdf:RDF></metadata><defs
   id="defs3846"><inkscape:perspective
     sodipodi:type="inkscape:persp3d"
     inkscape:vp_x="0 : 698.03125 : 1"
     inkscape:vp_y="0 : 1000 : 0"
     inkscape:vp_z="2834.6475 : 698.03125 : 1"
     inkscape:persp3d-origin="1417.3237 : 465.35417 : 1"
     id="perspective2728" /></defs><sodipodi:namedview
   inkscape:window-height="949"
   inkscape:window-width="1272"
   inkscape:pageshadow="2"
   inkscape:pageopacity="0.0"
   guidetolerance="10.0"
   gridtolerance="10.0"
   objecttolerance="10.0"
   borderopacity="1.0"
   bordercolor="#666666"
   pagecolor="#ffffff"
   id="base"
   inkscape:zoom="0.30118356"
   inkscape:cx="1061.8484"
   inkscape:cy="339.72517"
   inkscape:window-x="0"
   inkscape:window-y="0"
   inkscape:current-layer="Layer_x0020_1"
   showgrid="false"
   showguides="true"
   inkscape:guide-bbox="true"
   inkscape:document-units="mm"><inkscape:grid
     type="xygrid"
     id="grid2743"
     visible="true"
     enabled="true"
     units="mm"
     spacingx="1mm"
     spacingy="1mm"
     empcolor="#ff0008"
     empopacity="0.25098039" /><sodipodi:guide
     orientation="1,0"
     position="68.479834,355.68011"
     id="guide3519" /><sodipodi:guide
     orientation="1,0"
     position="100.32748,1388.9783"
     id="guide3523" /><sodipodi:guide
     orientation="0,1"
     position="1053.7594,1327.8862"
     id="guide3525" /><sodipodi:guide
     orientation="0,1"
     position="216.9375,1296.0859"
     id="guide3527" /><sodipodi:guide
     orientation="0,1"
     position="151.21484,1255.7813"
     id="guide3531" /><sodipodi:guide
     orientation="1,0"
     position="140.62586,716.89579"
     id="guide3533" /><sodipodi:guide
     orientation="1,0"
     position="1327.2637,1310.6625"
     id="guide3539" /><sodipodi:guide
     orientation="1,0"
     position="1296.2539,1242.125"
     id="guide3543" /><sodipodi:guide
     orientation="1,0"
     position="1255.8216,1292.5912"
     id="guide3545" /><sodipodi:guide
     orientation="0,1"
     position="493.24976,68.965458"
     id="guide3549" /><sodipodi:guide
     orientation="0,1"
     position="348.86881,100.67433"
     id="guide3551" /><sodipodi:guide
     orientation="0,1"
     position="301.93459,140.97941"
     id="guide3555" /><sodipodi:guide
     orientation="1,0"
     position="698.48892,1369.6216"
     id="guide3563" /><sodipodi:guide
     orientation="0,1"
     position="39.730562,698.48892"
     id="guide3567" /><sodipodi:guide
     orientation="-0.70710678,0.70710678"
     position="698.51191,698.80186"
     id="guide3597" /><sodipodi:guide
     orientation="0.70710678,0.70710678"
     position="698.22195,698.80186"
     id="guide3599" /><sodipodi:guide
     orientation="0,1"
     position="123.18608,919.17455"
     id="guide3795" /><sodipodi:guide
     orientation="0,1"
     position="114.84192,477.59308"
     id="guide3797" /><sodipodi:guide
     orientation="1,0"
     position="477.20881,1349.3377"
     id="guide3799" /><sodipodi:guide
     orientation="1,0"
     position="919.17455,1341.1033"
     id="guide3801" /><sodipodi:guide
     orientation="1,0"
     position="2008.7455,1279.2907"
     id="guide2575" /><sodipodi:guide
     orientation="1,0"
     position="1411.3699,1186.6816"
     id="guide2577" /><sodipodi:guide
     orientation="1,0"
     position="2606.0114,1155.6655"
     id="guide2579" /></sodipodi:namedview>
	<g
   id="Layer_x0020_1"
   style="fill-rule:nonzero;clip-rule:nonzero;fill:#F6921E;stroke:#000000;stroke-miterlimit:4;">
		
		
		<g
   id="g2730"><path
     id="path3807"
     d="M2267.718,1116.85H0V0h2267.718v1116.85z"
     style="stroke:none;" /><path
     id="path3809"
     d="M2253.543,1102.678H14.173V14.173h2239.37v1088.504z"
     style="fill:#FFFFFF;stroke:none;" /><g
     id="g3811"
     style="stroke:none;">
			<path
   id="path3813"
   d="M1077.416,555.258c0.873,0.571,2.418,1.175,3.896,1.175c2.149,0,3.157-1.075,3.157-2.418c0-1.411-0.84-2.183-3.023-2.989c-2.922-1.041-4.299-2.653-4.299-4.601c0-2.62,2.116-4.769,5.609-4.769c1.646,0,3.09,0.47,3.997,1.008l-0.739,2.149     c-0.638-0.403-1.814-0.94-3.325-0.94c-1.746,0-2.72,1.007-2.72,2.216c0,1.344,0.974,1.948,3.09,2.754c2.821,1.075,4.265,2.485,4.265,4.904c0,2.854-2.216,4.903-6.079,4.903c-1.78,0-3.426-0.47-4.568-1.142l0.739-2.25z" />
			<path
   id="path3815"
   d="M1102.534,554.384c0,1.411,0.067,2.788,0.269,3.896h-2.687l-0.235-2.049h-0.101c-0.907,1.276-2.653,2.418-4.971,2.418c-3.292,0-4.971-2.317-4.971-4.668c0-3.929,3.493-6.079,9.773-6.045v-0.335c0-1.344-0.37-3.762-3.694-3.762     c-1.511,0-3.09,0.47-4.232,1.209l-0.671-1.948c1.343-0.873,3.291-1.444,5.34-1.444c4.971,0,6.179,3.392,6.179,6.65v6.079z M1099.68,549.985c-3.224-0.067-6.885,0.504-6.885,3.661c0,1.915,1.276,2.821,2.788,2.821c2.116,0,3.459-1.343,3.929-2.72     c0.101-0.302,0.168-0.638,0.168-0.94v-2.821z" />
			<path
   id="path3817"
   d="M1107.603,558.28v-14.005h-2.284v-2.25h2.284v-0.772c0-2.284,0.504-4.366,1.881-5.676c1.108-1.075,2.586-1.511,3.963-1.511c1.041,0,1.948,0.235,2.519,0.47l-0.402,2.284c-0.437-0.202-1.041-0.37-1.881-0.37c-2.52,0-3.157,2.217-3.157,4.702v0.873h3.93     v2.25h-3.93v14.005h-2.922z" />
			<path
   id="path3819"
   d="M1118.314,550.69c0.066,3.997,2.619,5.643,5.574,5.643c2.116,0,3.393-0.37,4.501-0.84l0.504,2.116c-1.041,0.47-2.821,1.041-5.407,1.041c-5.004,0-7.993-3.325-7.993-8.228s2.888-8.766,7.624-8.766c5.306,0,6.717,4.668,6.717,7.657     c0,0.604-0.067,1.075-0.102,1.377h-11.418z M1126.979,548.574c0.034-1.881-0.772-4.803-4.097-4.803c-2.989,0-4.299,2.754-4.534,4.803h8.631z" />
			<path
   id="path3821"
   d="M1152.027,554.384c0,1.411,0.067,2.788,0.269,3.896h-2.687l-0.235-2.049h-0.101c-0.906,1.276-2.653,2.418-4.971,2.418c-3.291,0-4.97-2.317-4.97-4.668c0-3.929,3.492-6.079,9.772-6.045v-0.335c0-1.344-0.369-3.762-3.694-3.762     c-1.511,0-3.09,0.47-4.231,1.209l-0.672-1.948c1.344-0.873,3.292-1.444,5.34-1.444c4.971,0,6.18,3.392,6.18,6.65v6.079z M1149.173,549.985c-3.224-0.067-6.885,0.504-6.885,3.661c0,1.915,1.276,2.821,2.787,2.821c2.116,0,3.46-1.343,3.93-2.72     c0.101-0.302,0.168-0.638,0.168-0.94v-2.821z" />
			<path
   id="path3823"
   d="M1156.794,547.097c0-1.915-0.034-3.56-0.135-5.071h2.586l0.101,3.19h0.135c0.738-2.183,2.519-3.56,4.5-3.56c0.336,0,0.571,0.034,0.84,0.101v2.787c-0.303-0.067-0.604-0.101-1.008-0.101c-2.082,0-3.56,1.579-3.963,3.795     c-0.067,0.403-0.135,0.874-0.135,1.377v8.665h-2.921v-11.184z" />
			<path
   id="path3825"
   d="M1169.084,550.69c0.066,3.997,2.619,5.643,5.574,5.643c2.116,0,3.393-0.37,4.501-0.84l0.504,2.116c-1.041,0.47-2.821,1.041-5.407,1.041c-5.004,0-7.993-3.325-7.993-8.228s2.888-8.766,7.624-8.766c5.306,0,6.717,4.668,6.717,7.657     c0,0.604-0.067,1.075-0.102,1.377h-11.418z M1177.748,548.574c0.034-1.881-0.772-4.803-4.097-4.803c-2.989,0-4.299,2.754-4.534,4.803h8.631z" />
			<path
   id="path3827"
   d="M1195.679,554.384c0,1.411,0.067,2.788,0.269,3.896h-2.687l-0.235-2.049h-0.101c-0.906,1.276-2.653,2.418-4.971,2.418c-3.291,0-4.97-2.317-4.97-4.668c0-3.929,3.492-6.079,9.772-6.045v-0.335c0-1.344-0.369-3.762-3.694-3.762     c-1.511,0-3.09,0.47-4.231,1.209l-0.672-1.948c1.344-0.873,3.292-1.444,5.34-1.444c4.971,0,6.18,3.392,6.18,6.65v6.079z M1192.824,549.985c-3.224-0.067-6.885,0.504-6.885,3.661c0,1.915,1.276,2.821,2.787,2.821c2.116,0,3.46-1.343,3.93-2.72     c0.101-0.302,0.168-0.638,0.168-0.94v-2.821z" />
		</g></g>
		
		
		
		
	<rect
   style="opacity:1;fill:none;fill-opacity:1;fill-rule:nonzero;stroke:#0000ff;stroke-width:0.00850394;stroke-linecap:butt;stroke-linejoin:miter;marker:none;marker-start:none;marker-mid:none;marker-end:none;stroke-miterlimit:7.39194536;stroke-dasharray:none;stroke-dashoffset:0;stroke-opacity:1;visibility:visible;display:inline;overflow:visible;enable-background:accumulate"
   id="rect2745"
   width="1085.5696"
   height="1085.5696"
   x="16"
   y="15.280427"
   rx="17.716534"
   ry="17.716534" /><rect
   style="opacity:1;fill:none;fill-opacity:1;fill-rule:nonzero;stroke:#0000ff;stroke-width:0.00850394;stroke-linecap:butt;stroke-linejoin:miter;marker:none;marker-start:none;marker-mid:none;marker-end:none;stroke-miterlimit:7.39194536;stroke-dasharray:none;stroke-dashoffset:0;stroke-opacity:1;visibility:visible;display:inline;overflow:visible;enable-background:accumulate"
   id="rect3517"
   width="25.431143"
   height="269.29135"
   x="54.830841"
   y="112.21901" /><rect
   style="opacity:1;fill:none;fill-opacity:1;fill-rule:nonzero;stroke:#0000ff;stroke-width:0.00850394;stroke-linecap:butt;stroke-linejoin:miter;marker:none;marker-start:none;marker-mid:none;marker-end:none;stroke-miterlimit:7.39194536;stroke-dasharray:none;stroke-dashoffset:0;stroke-opacity:1;visibility:visible;display:inline;overflow:visible;enable-background:accumulate"
   id="rect3521"
   width="25.431479"
   height="269.29135"
   x="-79.990906"
   y="112.50069"
   transform="matrix(0,-1,1,0,0,0)" /><rect
   style="opacity:1;fill:none;fill-opacity:1;fill-rule:nonzero;stroke:#0000ff;stroke-width:0.00850394;stroke-linecap:butt;stroke-linejoin:miter;marker:none;marker-start:none;marker-mid:none;marker-end:none;stroke-miterlimit:7.39194536;stroke-dasharray:none;stroke-dashoffset:0;stroke-opacity:1;visibility:visible;display:inline;overflow:visible;enable-background:accumulate"
   id="rect3535"
   width="25.431479"
   height="269.29135"
   x="-79.990891"
   y="735.36597"
   transform="matrix(0,-1,1,0,0,0)" /><rect
   style="opacity:1;fill:none;fill-opacity:1;fill-rule:nonzero;stroke:#0000ff;stroke-width:0.00850394;stroke-linecap:butt;stroke-linejoin:miter;marker:none;marker-start:none;marker-mid:none;marker-end:none;stroke-miterlimit:7.39194536;stroke-dasharray:none;stroke-dashoffset:0;stroke-opacity:1;visibility:visible;display:inline;overflow:visible;enable-background:accumulate"
   id="rect3537"
   width="25.431152"
   height="269.29135"
   x="1036.9935"
   y="112.22495" /><rect
   style="opacity:1;fill:none;fill-opacity:1;fill-rule:nonzero;stroke:#0000ff;stroke-width:0.00850394;stroke-linecap:butt;stroke-linejoin:miter;marker:none;marker-start:none;marker-mid:none;marker-end:none;stroke-miterlimit:7.39194536;stroke-dasharray:none;stroke-dashoffset:0;stroke-opacity:1;visibility:visible;display:inline;overflow:visible;enable-background:accumulate"
   id="rect3547"
   width="25.417326"
   height="269.29135"
   x="-1061.7279"
   y="112.50069"
   transform="matrix(0,-1,1,0,0,0)" /><rect
   style="opacity:1;fill:none;fill-opacity:1;fill-rule:nonzero;stroke:#0000ff;stroke-width:0.00850394;stroke-linecap:butt;stroke-linejoin:miter;marker:none;marker-start:none;marker-mid:none;marker-end:none;stroke-miterlimit:7.39194536;stroke-dasharray:none;stroke-dashoffset:0;stroke-opacity:1;visibility:visible;display:inline;overflow:visible;enable-background:accumulate"
   id="rect3553"
   width="25.431143"
   height="269.29135"
   x="54.830841"
   y="734.77551" /><rect
   style="opacity:1;fill:none;fill-opacity:1;fill-rule:nonzero;stroke:#0000ff;stroke-width:0.00850394;stroke-linecap:butt;stroke-linejoin:miter;marker:none;marker-start:none;marker-mid:none;marker-end:none;stroke-miterlimit:7.39194536;stroke-dasharray:none;stroke-dashoffset:0;stroke-opacity:1;visibility:visible;display:inline;overflow:visible;enable-background:accumulate"
   id="rect3557"
   width="25.417326"
   height="269.29135"
   x="-1061.7141"
   y="735.36597"
   transform="matrix(0,-1,1,0,0,0)" /><rect
   style="opacity:1;fill:none;fill-opacity:1;fill-rule:nonzero;stroke:#0000ff;stroke-width:0.00850394;stroke-linecap:butt;stroke-linejoin:miter;marker:none;marker-start:none;marker-mid:none;marker-end:none;stroke-miterlimit:7.39194536;stroke-dasharray:none;stroke-dashoffset:0;stroke-opacity:1;visibility:visible;display:inline;overflow:visible;enable-background:accumulate"
   id="rect3559"
   width="25.431152"
   height="269.29135"
   x="1036.9935"
   y="734.77515" /><path
   sodipodi:type="arc"
   style="opacity:1;fill:none;fill-opacity:1;fill-rule:nonzero;stroke:#0000ff;stroke-width:0.02227615;stroke-linecap:butt;stroke-linejoin:miter;marker:none;marker-start:none;marker-mid:none;marker-end:none;stroke-miterlimit:7.39194536;stroke-dasharray:none;stroke-dashoffset:0;stroke-opacity:1;visibility:visible;display:inline;overflow:visible;enable-background:accumulate"
   id="path3569"
   sodipodi:cx="113.731"
   sodipodi:cy="560.04999"
   sodipodi:rx="33.469009"
   sodipodi:ry="25.6"
   d="M 147.20001,560.04999 A 33.469009,25.6 0 1 1 80.261993,560.04999 A 33.469009,25.6 0 1 1 147.20001,560.04999 z"
   transform="matrix(0.3339392,0,0,0.4364076,74.525652,313.64879)" /><path
   sodipodi:type="arc"
   style="opacity:1;fill:none;fill-opacity:1;fill-rule:nonzero;stroke:#0000ff;stroke-width:0.02227615;stroke-linecap:butt;stroke-linejoin:miter;marker:none;marker-start:none;marker-mid:none;marker-end:none;stroke-miterlimit:7.39194536;stroke-dasharray:none;stroke-dashoffset:0;stroke-opacity:1;visibility:visible;display:inline;overflow:visible;enable-background:accumulate"
   id="path3571"
   sodipodi:cx="113.731"
   sodipodi:cy="560.04999"
   sodipodi:rx="33.469009"
   sodipodi:ry="25.6"
   d="M 147.20001,560.04999 A 33.469009,25.6 0 1 1 80.261993,560.04999 A 33.469009,25.6 0 1 1 147.20001,560.04999 z"
   transform="matrix(0.3339392,0,0,0.4364076,966.65317,313.64879)" /><path
   sodipodi:type="arc"
   style="fill:none;fill-opacity:1;fill-rule:nonzero;stroke:#0000ff;stroke-width:0.00804876;stroke-linecap:butt;stroke-linejoin:miter;marker:none;marker-start:none;marker-mid:none;marker-end:none;stroke-miterlimit:7.39194536;stroke-dasharray:none;stroke-dashoffset:0;stroke-opacity:1;visibility:visible;display:inline;overflow:visible;enable-background:accumulate"
   id="path3711"
   sodipodi:cx="113.731"
   sodipodi:cy="560.04999"
   sodipodi:rx="33.469009"
   sodipodi:ry="25.6"
   d="M 147.20001,560.04999 A 33.469009,25.6 0 1 1 80.261993,560.04999 A 33.469009,25.6 0 1 1 147.20001,560.04999 z"
   transform="matrix(0,0.9240393,-1.2080714,0,1622.6552,840.53292)" /><path
   sodipodi:type="arc"
   style="fill:none;fill-opacity:1;fill-rule:nonzero;stroke:#0000ff;stroke-width:0.03518458;stroke-linecap:butt;stroke-linejoin:miter;marker:none;marker-start:none;marker-mid:none;marker-end:none;stroke-miterlimit:7.39194536;stroke-dasharray:none;stroke-dashoffset:0;stroke-opacity:1;visibility:visible;display:inline;overflow:visible;enable-background:accumulate"
   id="path3713"
   sodipodi:cx="113.731"
   sodipodi:cy="560.04999"
   sodipodi:rx="33.469009"
   sodipodi:ry="25.6"
   d="M 147.20001,560.04999 A 33.469009,25.6 0 1 1 80.261993,560.04999 A 33.469009,25.6 0 1 1 147.20001,560.04999 z"
   transform="matrix(-0.1494691,0.1494691,-0.1954133,-0.1954133,1032.9597,1077.7616)" /><path
   sodipodi:type="arc"
   style="fill:none;fill-opacity:1;fill-rule:nonzero;stroke:#0000ff;stroke-width:0.03518458;stroke-linecap:butt;stroke-linejoin:miter;marker:none;marker-start:none;marker-mid:none;marker-end:none;stroke-miterlimit:7.39194536;stroke-dasharray:none;stroke-dashoffset:0;stroke-opacity:1;visibility:visible;display:inline;overflow:visible;enable-background:accumulate"
   id="path3715"
   sodipodi:cx="113.731"
   sodipodi:cy="560.04999"
   sodipodi:rx="33.469009"
   sodipodi:ry="25.6"
   d="M 147.20001,560.04999 A 33.469009,25.6 0 1 1 80.261993,560.04999 A 33.469009,25.6 0 1 1 147.20001,560.04999 z"
   transform="matrix(-0.1494691,0.1494691,-0.1954133,-0.1954133,1112.4521,998.2692)" /><path
   sodipodi:type="arc"
   style="opacity:1;fill:none;fill-opacity:1;fill-rule:nonzero;stroke:#00ff00;stroke-width:0.00195682;stroke-linecap:butt;stroke-linejoin:miter;marker:none;marker-start:none;marker-mid:none;marker-end:none;stroke-miterlimit:7.39194536;stroke-dasharray:none;stroke-dashoffset:0;stroke-opacity:1;visibility:visible;display:inline;overflow:visible;enable-background:accumulate"
   id="path3729"
   sodipodi:cx="558.82507"
   sodipodi:cy="558.05603"
   sodipodi:rx="0.60554773"
   sodipodi:ry="0.60554773"
   d="M 559.43062,558.05603 A 0.60554773,0.60554773 0 1 1 558.21953,558.05603 A 0.60554773,0.60554773 0 1 1 559.43062,558.05603 z"
   transform="matrix(4.3457887,0,0,4.3457887,-1869.8065,-1867.1866)" /><path
   sodipodi:type="arc"
   style="fill:none;fill-opacity:1;fill-rule:nonzero;stroke:#0000ff;stroke-width:0.00804876;stroke-linecap:butt;stroke-linejoin:miter;marker:none;marker-start:none;marker-mid:none;marker-end:none;stroke-miterlimit:7.39194536;stroke-dasharray:none;stroke-dashoffset:0;stroke-opacity:1;visibility:visible;display:inline;overflow:visible;enable-background:accumulate"
   id="path3767"
   sodipodi:cx="113.731"
   sodipodi:cy="560.04999"
   sodipodi:rx="33.469009"
   sodipodi:ry="25.6"
   d="M 147.20001,560.04999 A 33.469009,25.6 0 1 1 80.261993,560.04999 A 33.469009,25.6 0 1 1 147.20001,560.04999 z"
   transform="matrix(0.9240393,0,0,1.2080714,840.93561,-505.67082)" /><path
   sodipodi:type="arc"
   style="fill:none;fill-opacity:1;fill-rule:nonzero;stroke:#0000ff;stroke-width:0.03518458;stroke-linecap:butt;stroke-linejoin:miter;marker:none;marker-start:none;marker-mid:none;marker-end:none;stroke-miterlimit:7.39194536;stroke-dasharray:none;stroke-dashoffset:0;stroke-opacity:1;visibility:visible;display:inline;overflow:visible;enable-background:accumulate"
   id="path3769"
   sodipodi:cx="113.731"
   sodipodi:cy="560.04999"
   sodipodi:rx="33.469009"
   sodipodi:ry="25.6"
   d="M 147.20001,560.04999 A 33.469009,25.6 0 1 1 80.261993,560.04999 A 33.469009,25.6 0 1 1 147.20001,560.04999 z"
   transform="matrix(0.1494691,0.1494691,-0.1954133,0.1954133,1078.1643,84.02475)" /><path
   sodipodi:type="arc"
   style="fill:none;fill-opacity:1;fill-rule:nonzero;stroke:#0000ff;stroke-width:0.03518458;stroke-linecap:butt;stroke-linejoin:miter;marker:none;marker-start:none;marker-mid:none;marker-end:none;stroke-miterlimit:7.39194536;stroke-dasharray:none;stroke-dashoffset:0;stroke-opacity:1;visibility:visible;display:inline;overflow:visible;enable-background:accumulate"
   id="path3771"
   sodipodi:cx="113.731"
   sodipodi:cy="560.04999"
   sodipodi:rx="33.469009"
   sodipodi:ry="25.6"
   d="M 147.20001,560.04999 A 33.469009,25.6 0 1 1 80.261993,560.04999 A 33.469009,25.6 0 1 1 147.20001,560.04999 z"
   transform="matrix(0.1494691,0.1494691,-0.1954133,0.1954133,998.67189,4.53233)" /><path
   sodipodi:type="arc"
   style="fill:none;fill-opacity:1;fill-rule:nonzero;stroke:#0000ff;stroke-width:0.00804876;stroke-linecap:butt;stroke-linejoin:miter;marker:none;marker-start:none;marker-mid:none;marker-end:none;stroke-miterlimit:7.39194536;stroke-dasharray:none;stroke-dashoffset:0;stroke-opacity:1;visibility:visible;display:inline;overflow:visible;enable-background:accumulate"
   id="path3787"
   sodipodi:cx="113.731"
   sodipodi:cy="560.04999"
   sodipodi:rx="33.469009"
   sodipodi:ry="25.6"
   d="M 147.20001,560.04999 A 33.469009,25.6 0 1 1 80.261993,560.04999 A 33.469009,25.6 0 1 1 147.20001,560.04999 z"
   transform="matrix(0.9240393,0,0,1.2080714,66.10856,269.1562)" /><path
   sodipodi:type="arc"
   style="fill:none;fill-opacity:1;fill-rule:nonzero;stroke:#0000ff;stroke-width:0.03518458;stroke-linecap:butt;stroke-linejoin:miter;marker:none;marker-start:none;marker-mid:none;marker-end:none;stroke-miterlimit:7.39194536;stroke-dasharray:none;stroke-dashoffset:0;stroke-opacity:1;visibility:visible;display:inline;overflow:visible;enable-background:accumulate"
   id="path3789"
   sodipodi:cx="113.731"
   sodipodi:cy="560.04999"
   sodipodi:rx="33.469009"
   sodipodi:ry="25.6"
   d="M 147.20001,560.04999 A 33.469009,25.6 0 1 1 80.261993,560.04999 A 33.469009,25.6 0 1 1 147.20001,560.04999 z"
   transform="matrix(0.1494691,0.1494691,-0.1954133,0.1954133,303.33726,858.85177)" /><path
   sodipodi:type="arc"
   style="fill:none;fill-opacity:1;fill-rule:nonzero;stroke:#0000ff;stroke-width:0.03518458;stroke-linecap:butt;stroke-linejoin:miter;marker:none;marker-start:none;marker-mid:none;marker-end:none;stroke-miterlimit:7.39194536;stroke-dasharray:none;stroke-dashoffset:0;stroke-opacity:1;visibility:visible;display:inline;overflow:visible;enable-background:accumulate"
   id="path3791"
   sodipodi:cx="113.731"
   sodipodi:cy="560.04999"
   sodipodi:rx="33.469009"
   sodipodi:ry="25.6"
   d="M 147.20001,560.04999 A 33.469009,25.6 0 1 1 80.261993,560.04999 A 33.469009,25.6 0 1 1 147.20001,560.04999 z"
   transform="matrix(0.1494691,0.1494691,-0.1954133,0.1954133,223.84484,779.35935)" /><path
   style="fill:none;fill-opacity:1;fill-rule:nonzero;stroke:#0000ff;stroke-width:0.00680315;stroke-linecap:butt;stroke-linejoin:miter;marker:none;marker-start:none;marker-mid:none;marker-end:none;stroke-miterlimit:7.39194536;stroke-dasharray:none;stroke-dashoffset:0;stroke-opacity:1;visibility:visible;display:inline;overflow:visible;enable-background:accumulate"
   d="M 1473.5312 140.28125 C 1461.2625 140.28125 1451.4062 150.1688 1451.4062 162.4375 L 1451.4062 592.4375 L 1411.3438 644.21875 L 1411.3438 750.53125 L 1451.4062 803.40625 L 1451.4062 1232.75 C 1451.4063 1245.0187 1461.2625 1254.8751 1473.5312 1254.875 L 2543.8438 1254.875 C 2556.1126 1254.875 2566 1245.0187 2566 1232.75 L 2566 802.21875 L 2606 750.53125 L 2606 644.21875 L 2566 591.40625 L 2566 476.875 L 2428.9375 476.875 L 2428.9375 299.8125 L 2566 299.8125 L 2566 162.4375 C 2566.0001 150.1688 2556.1125 140.28125 2543.8438 140.28125 L 1473.5312 140.28125 z "
   transform="matrix(0.8,0,0,0.8,0,-7.6953049e-6)"
   id="rect2478" /><path
   sodipodi:type="arc"
   style="fill:none;fill-opacity:1;fill-rule:nonzero;stroke:#0000ff;stroke-width:0.01495437;stroke-linecap:butt;stroke-linejoin:miter;marker:none;marker-start:none;marker-mid:none;marker-end:none;stroke-miterlimit:7.39194536;stroke-dasharray:none;stroke-dashoffset:0;stroke-opacity:1;visibility:visible;display:inline;overflow:visible;enable-background:accumulate"
   id="path2485"
   sodipodi:cx="113.731"
   sodipodi:cy="560.04999"
   sodipodi:rx="33.469009"
   sodipodi:ry="25.6"
   d="M 147.20001,560.04999 A 33.469009,25.6 0 1 1 80.261993,560.04999 A 33.469009,25.6 0 1 1 147.20001,560.04999 z"
   transform="matrix(0.4974386,0,0,0.6500766,1104.1064,193.98351)" /><path
   sodipodi:type="arc"
   style="fill:none;fill-opacity:1;fill-rule:nonzero;stroke:#0000ff;stroke-width:0.01495253;stroke-linecap:butt;stroke-linejoin:miter;marker:none;marker-start:none;marker-mid:none;marker-end:none;stroke-miterlimit:7.39194536;stroke-dasharray:none;stroke-dashoffset:0;stroke-opacity:1;visibility:visible;display:inline;overflow:visible;enable-background:accumulate"
   id="path2487"
   sodipodi:cx="113.731"
   sodipodi:cy="560.04999"
   sodipodi:rx="33.469009"
   sodipodi:ry="25.6"
   d="M 147.20001,560.04999 A 33.469009,25.6 0 1 1 80.261993,560.04999 A 33.469009,25.6 0 1 1 147.20001,560.04999 z"
   transform="matrix(0.4974998,0,0,0.6501565,1996.2269,193.93875)" /><path
   sodipodi:type="arc"
   style="fill:none;fill-opacity:1;fill-rule:nonzero;stroke:#0000ff;stroke-width:0.01493288;stroke-linecap:butt;stroke-linejoin:miter;marker:none;marker-start:none;marker-mid:none;marker-end:none;stroke-miterlimit:7.39194536;stroke-dasharray:none;stroke-dashoffset:0;stroke-opacity:1;visibility:visible;display:inline;overflow:visible;enable-background:accumulate"
   id="path2583"
   sodipodi:cx="113.731"
   sodipodi:cy="560.04999"
   sodipodi:rx="33.469009"
   sodipodi:ry="25.6"
   d="M 147.20001,560.04999 A 33.469009,25.6 0 1 1 80.261993,560.04999 A 33.469009,25.6 0 1 1 147.20001,560.04999 z"
   transform="matrix(0,0.4980535,-0.6511456,0,1584.3439,114.23012)" /><path
   sodipodi:type="arc"
   style="fill:none;fill-opacity:1;fill-rule:nonzero;stroke:#0000ff;stroke-width:0.03518458;stroke-linecap:butt;stroke-linejoin:miter;marker:none;marker-start:none;marker-mid:none;marker-end:none;stroke-miterlimit:7.39194536;stroke-dasharray:none;stroke-dashoffset:0;stroke-opacity:1;visibility:visible;display:inline;overflow:visible;enable-background:accumulate"
   id="path2585"
   sodipodi:cx="113.731"
   sodipodi:cy="560.04999"
   sodipodi:rx="33.469009"
   sodipodi:ry="25.6"
   d="M 147.20001,560.04999 A 33.469009,25.6 0 1 1 80.261993,560.04999 A 33.469009,25.6 0 1 1 147.20001,560.04999 z"
   transform="matrix(-0.1494691,0.1494691,-0.1954133,-0.1954133,1306.5546,303.01102)" /><path
   sodipodi:type="arc"
   style="fill:none;fill-opacity:1;fill-rule:nonzero;stroke:#0000ff;stroke-width:0.03518458;stroke-linecap:butt;stroke-linejoin:miter;marker:none;marker-start:none;marker-mid:none;marker-end:none;stroke-miterlimit:7.39194536;stroke-dasharray:none;stroke-dashoffset:0;stroke-opacity:1;visibility:visible;display:inline;overflow:visible;enable-background:accumulate"
   id="path2587"
   sodipodi:cx="113.731"
   sodipodi:cy="560.04999"
   sodipodi:rx="33.469009"
   sodipodi:ry="25.6"
   d="M 147.20001,560.04999 A 33.469009,25.6 0 1 1 80.261993,560.04999 A 33.469009,25.6 0 1 1 147.20001,560.04999 z"
   transform="matrix(-0.1494691,0.1494691,-0.1954133,-0.1954133,1386.0471,223.5186)" /><path
   sodipodi:type="arc"
   style="fill:none;fill-opacity:1;fill-rule:nonzero;stroke:#0000ff;stroke-width:0.01493288;stroke-linecap:butt;stroke-linejoin:miter;marker:none;marker-start:none;marker-mid:none;marker-end:none;stroke-miterlimit:7.39194536;stroke-dasharray:none;stroke-dashoffset:0;stroke-opacity:1;visibility:visible;display:inline;overflow:visible;enable-background:accumulate"
   id="path2643"
   sodipodi:cx="113.731"
   sodipodi:cy="560.04999"
   sodipodi:rx="33.469009"
   sodipodi:ry="25.6"
   d="M 147.20001,560.04999 A 33.469009,25.6 0 1 1 80.261993,560.04999 A 33.469009,25.6 0 1 1 147.20001,560.04999 z"
   transform="matrix(-0.4980535,0,0,-0.6511456,2050.5603,535.2293)" /><path
   sodipodi:type="arc"
   style="fill:none;fill-opacity:1;fill-rule:nonzero;stroke:#0000ff;stroke-width:0.03518458;stroke-linecap:butt;stroke-linejoin:miter;marker:none;marker-start:none;marker-mid:none;marker-end:none;stroke-miterlimit:7.39194536;stroke-dasharray:none;stroke-dashoffset:0;stroke-opacity:1;visibility:visible;display:inline;overflow:visible;enable-background:accumulate"
   id="path2645"
   sodipodi:cx="113.731"
   sodipodi:cy="560.04999"
   sodipodi:rx="33.469009"
   sodipodi:ry="25.6"
   d="M 147.20001,560.04999 A 33.469009,25.6 0 1 1 80.261993,560.04999 A 33.469009,25.6 0 1 1 147.20001,560.04999 z"
   transform="matrix(-0.1494691,-0.1494691,0.1954133,-0.1954133,1861.7794,257.44)" /><path
   sodipodi:type="arc"
   style="fill:none;fill-opacity:1;fill-rule:nonzero;stroke:#0000ff;stroke-width:0.03518458;stroke-linecap:butt;stroke-linejoin:miter;marker:none;marker-start:none;marker-mid:none;marker-end:none;stroke-miterlimit:7.39194536;stroke-dasharray:none;stroke-dashoffset:0;stroke-opacity:1;visibility:visible;display:inline;overflow:visible;enable-background:accumulate"
   id="path2647"
   sodipodi:cx="113.731"
   sodipodi:cy="560.04999"
   sodipodi:rx="33.469009"
   sodipodi:ry="25.6"
   d="M 147.20001,560.04999 A 33.469009,25.6 0 1 1 80.261993,560.04999 A 33.469009,25.6 0 1 1 147.20001,560.04999 z"
   transform="matrix(-0.1494691,-0.1494691,0.1954133,-0.1954133,1941.2718,336.9325)" /><path
   sodipodi:type="arc"
   style="fill:none;fill-opacity:1;fill-rule:nonzero;stroke:#0000ff;stroke-width:0.01493288;stroke-linecap:butt;stroke-linejoin:miter;marker:none;marker-start:none;marker-mid:none;marker-end:none;stroke-miterlimit:7.39194536;stroke-dasharray:none;stroke-dashoffset:0;stroke-opacity:1;visibility:visible;display:inline;overflow:visible;enable-background:accumulate"
   id="path2653"
   sodipodi:cx="113.731"
   sodipodi:cy="560.04999"
   sodipodi:rx="33.469009"
   sodipodi:ry="25.6"
   d="M 147.20001,560.04999 A 33.469009,25.6 0 1 1 80.261993,560.04999 A 33.469009,25.6 0 1 1 147.20001,560.04999 z"
   transform="matrix(-0.4980535,0,0,-0.6511456,1276.3493,1310.0563)" /><path
   sodipodi:type="arc"
   style="fill:none;fill-opacity:1;fill-rule:nonzero;stroke:#0000ff;stroke-width:0.03518458;stroke-linecap:butt;stroke-linejoin:miter;marker:none;marker-start:none;marker-mid:none;marker-end:none;stroke-miterlimit:7.39194536;stroke-dasharray:none;stroke-dashoffset:0;stroke-opacity:1;visibility:visible;display:inline;overflow:visible;enable-background:accumulate"
   id="path2655"
   sodipodi:cx="113.731"
   sodipodi:cy="560.04999"
   sodipodi:rx="33.469009"
   sodipodi:ry="25.6"
   d="M 147.20001,560.04999 A 33.469009,25.6 0 1 1 80.261993,560.04999 A 33.469009,25.6 0 1 1 147.20001,560.04999 z"
   transform="matrix(-0.1494691,-0.1494691,0.1954133,-0.1954133,1087.5684,1032.267)" /><path
   sodipodi:type="arc"
   style="fill:none;fill-opacity:1;fill-rule:nonzero;stroke:#0000ff;stroke-width:0.03518458;stroke-linecap:butt;stroke-linejoin:miter;marker:none;marker-start:none;marker-mid:none;marker-end:none;stroke-miterlimit:7.39194536;stroke-dasharray:none;stroke-dashoffset:0;stroke-opacity:1;visibility:visible;display:inline;overflow:visible;enable-background:accumulate"
   id="path2657"
   sodipodi:cx="113.731"
   sodipodi:cy="560.04999"
   sodipodi:rx="33.469009"
   sodipodi:ry="25.6"
   d="M 147.20001,560.04999 A 33.469009,25.6 0 1 1 80.261993,560.04999 A 33.469009,25.6 0 1 1 147.20001,560.04999 z"
   transform="matrix(-0.1494691,-0.1494691,0.1954133,-0.1954133,1167.0608,1111.7595)" /><path
   sodipodi:type="arc"
   style="fill:none;fill-opacity:1;fill-rule:nonzero;stroke:#0000ff;stroke-width:0.01493288;stroke-linecap:butt;stroke-linejoin:miter;marker:none;marker-start:none;marker-mid:none;marker-end:none;stroke-miterlimit:7.39194536;stroke-dasharray:none;stroke-dashoffset:0;stroke-opacity:1;visibility:visible;display:inline;overflow:visible;enable-background:accumulate"
   id="path2663"
   sodipodi:cx="113.731"
   sodipodi:cy="560.04999"
   sodipodi:rx="33.469009"
   sodipodi:ry="25.6"
   d="M 147.20001,560.04999 A 33.469009,25.6 0 1 1 80.261993,560.04999 A 33.469009,25.6 0 1 1 147.20001,560.04999 z"
   transform="matrix(0,0.4980535,-0.6511456,0,2358.5549,889.05718)" /><path
   sodipodi:type="arc"
   style="fill:none;fill-opacity:1;fill-rule:nonzero;stroke:#0000ff;stroke-width:0.03518458;stroke-linecap:butt;stroke-linejoin:miter;marker:none;marker-start:none;marker-mid:none;marker-end:none;stroke-miterlimit:7.39194536;stroke-dasharray:none;stroke-dashoffset:0;stroke-opacity:1;visibility:visible;display:inline;overflow:visible;enable-background:accumulate"
   id="path2665"
   sodipodi:cx="113.731"
   sodipodi:cy="560.04999"
   sodipodi:rx="33.469009"
   sodipodi:ry="25.6"
   d="M 147.20001,560.04999 A 33.469009,25.6 0 1 1 80.261993,560.04999 A 33.469009,25.6 0 1 1 147.20001,560.04999 z"
   transform="matrix(-0.1494691,0.1494691,-0.1954133,-0.1954133,2080.7656,1077.8381)" /><path
   sodipodi:type="arc"
   style="fill:none;fill-opacity:1;fill-rule:nonzero;stroke:#0000ff;stroke-width:0.03518458;stroke-linecap:butt;stroke-linejoin:miter;marker:none;marker-start:none;marker-mid:none;marker-end:none;stroke-miterlimit:7.39194536;stroke-dasharray:none;stroke-dashoffset:0;stroke-opacity:1;visibility:visible;display:inline;overflow:visible;enable-background:accumulate"
   id="path2667"
   sodipodi:cx="113.731"
   sodipodi:cy="560.04999"
   sodipodi:rx="33.469009"
   sodipodi:ry="25.6"
   d="M 147.20001,560.04999 A 33.469009,25.6 0 1 1 80.261993,560.04999 A 33.469009,25.6 0 1 1 147.20001,560.04999 z"
   transform="matrix(-0.1494691,0.1494691,-0.1954133,-0.1954133,2160.2581,998.34566)" /><path
   sodipodi:type="arc"
   style="opacity:1;fill:none;fill-opacity:1;fill-rule:nonzero;stroke:#00ff00;stroke-width:0.00195682;stroke-linecap:butt;stroke-linejoin:miter;marker:none;marker-start:none;marker-mid:none;marker-end:none;stroke-miterlimit:7.39194536;stroke-dasharray:none;stroke-dashoffset:0;stroke-opacity:1;visibility:visible;display:inline;overflow:visible;enable-background:accumulate"
   id="path2671"
   sodipodi:cx="558.82507"
   sodipodi:cy="558.05603"
   sodipodi:rx="0.60554773"
   sodipodi:ry="0.60554773"
   d="M 559.43062,558.05603 A 0.60554773,0.60554773 0 1 1 558.21953,558.05603 A 0.60554773,0.60554773 0 1 1 559.43062,558.05603 z"
   transform="matrix(4.3457887,0,0,4.3457887,-821.53453,-1867.1351)" /><path
   sodipodi:type="arc"
   style="fill:none;fill-opacity:1;fill-rule:nonzero;stroke:#0000ff;stroke-width:0.00804876;stroke-linecap:butt;stroke-linejoin:miter;marker:none;marker-start:none;marker-mid:none;marker-end:none;stroke-miterlimit:7.39194536;stroke-dasharray:none;stroke-dashoffset:0;stroke-opacity:1;visibility:visible;display:inline;overflow:visible;enable-background:accumulate"
   id="path2613"
   sodipodi:cx="113.731"
   sodipodi:cy="560.04999"
   sodipodi:rx="33.469009"
   sodipodi:ry="25.6"
   d="M 147.20001,560.04999 A 33.469009,25.6 0 1 1 80.261993,560.04999 A 33.469009,25.6 0 1 1 147.20001,560.04999 z"
   transform="matrix(0,0.9240393,-1.2080714,0,847.41629,65.29398)" /><path
   sodipodi:type="arc"
   style="fill:none;fill-opacity:1;fill-rule:nonzero;stroke:#0000ff;stroke-width:0.03518458;stroke-linecap:butt;stroke-linejoin:miter;marker:none;marker-start:none;marker-mid:none;marker-end:none;stroke-miterlimit:7.39194536;stroke-dasharray:none;stroke-dashoffset:0;stroke-opacity:1;visibility:visible;display:inline;overflow:visible;enable-background:accumulate"
   id="path2615"
   sodipodi:cx="113.731"
   sodipodi:cy="560.04999"
   sodipodi:rx="33.469009"
   sodipodi:ry="25.6"
   d="M 147.20001,560.04999 A 33.469009,25.6 0 1 1 80.261993,560.04999 A 33.469009,25.6 0 1 1 147.20001,560.04999 z"
   transform="matrix(-0.1494691,0.1494691,-0.1954133,-0.1954133,257.72072,302.52268)" /><path
   sodipodi:type="arc"
   style="fill:none;fill-opacity:1;fill-rule:nonzero;stroke:#0000ff;stroke-width:0.03518458;stroke-linecap:butt;stroke-linejoin:miter;marker:none;marker-start:none;marker-mid:none;marker-end:none;stroke-miterlimit:7.39194536;stroke-dasharray:none;stroke-dashoffset:0;stroke-opacity:1;visibility:visible;display:inline;overflow:visible;enable-background:accumulate"
   id="path2617"
   sodipodi:cx="113.731"
   sodipodi:cy="560.04999"
   sodipodi:rx="33.469009"
   sodipodi:ry="25.6"
   d="M 147.20001,560.04999 A 33.469009,25.6 0 1 1 80.261993,560.04999 A 33.469009,25.6 0 1 1 147.20001,560.04999 z"
   transform="matrix(-0.1494691,0.1494691,-0.1954133,-0.1954133,337.21314,223.03026)" /></g>
</svg>