<?xml version="1.0" encoding="UTF-8" standalone="no"?>
<!-- Generator: Adobe Illustrator 9.0, SVG Export Plug-In  -->
<svg
   xmlns:dc="http://purl.org/dc/elements/1.1/"
   xmlns:cc="http://creativecommons.org/ns#"
   xmlns:rdf="http://www.w3.org/1999/02/22-rdf-syntax-ns#"
   xmlns:svg="http://www.w3.org/2000/svg"
   xmlns="http://www.w3.org/2000/svg"
   xmlns:sodipodi="http://sodipodi.sourceforge.net/DTD/sodipodi-0.dtd"
   xmlns:inkscape="http://www.inkscape.org/namespaces/inkscape"
   width="2267.718pt"
   height="1116.85pt"
   viewBox="0 0 2267.718 1116.85"
   xml:space="preserve"
   id="svg3804"
   sodipodi:version="0.32"
   inkscape:version="0.46"
   sodipodi:docname="top.svg"
   sodipodi:docbase="/Users/sal/Ponoko/ponoko.com/Oct/making guides - US/starter-kit-inkscape/no side bar"
   inkscape:output_extension="org.inkscape.output.svg.inkscape"><metadata
   id="metadata3848"><rdf:RDF><cc:Work
       rdf:about=""><dc:format>image/svg+xml</dc:format><dc:type
         rdf:resource="http://purl.org/dc/dcmitype/StillImage" /></cc:Work></rdf:RDF></metadata><defs
   id="defs3846"><inkscape:perspective
     sodipodi:type="inkscape:persp3d"
     inkscape:vp_x="0 : 698.03125 : 1"
     inkscape:vp_y="0 : 1000 : 0"
     inkscape:vp_z="2834.6475 : 698.03125 : 1"
     inkscape:persp3d-origin="1417.3237 : 465.35417 : 1"
     id="perspective2728" /></defs><sodipodi:namedview
   inkscape:window-height="949"
   inkscape:window-width="1272"
   inkscape:pageshadow="2"
   inkscape:pageopacity="0.0"
   guidetolerance="10.0"
   gridtolerance="10.0"
   objecttolerance="10.0"
   borderopacity="1.0"
   bordercolor="#666666"
   pagecolor="#ffffff"
   id="base"
   inkscape:zoom="0.60236711"
   inkscape:cx="691.12478"
   inkscape:cy="664.18206"
   inkscape:window-x="0"
   inkscape:window-y="0"
   inkscape:current-layer="Layer_x0020_1"
   showgrid="false"
   showguides="true"
   inkscape:guide-bbox="true"
   inkscape:document-units="mm"><inkscape:grid
     type="xygrid"
     id="grid2743"
     visible="true"
     enabled="true"
     units="mm"
     spacingx="1mm"
     spacingy="1mm"
     empcolor="#ff0008"
     empopacity="0.25098039" /><sodipodi:guide
     orientation="1,0"
     position="60.19649,1380.9521"
     id="guide3519" /><sodipodi:guide
     orientation="1,0"
     position="100.32748,1388.9783"
     id="guide3523" /><sodipodi:guide
     orientation="0,1"
     position="35.003144,1336.585"
     id="guide3525" /><sodipodi:guide
     orientation="0,1"
     position="216.9375,1296.0859"
     id="guide3527" /><sodipodi:guide
     orientation="0,1"
     position="151.21484,1255.7813"
     id="guide3531" /><sodipodi:guide
     orientation="1,0"
     position="140.62586,716.89579"
     id="guide3533" /><sodipodi:guide
     orientation="1,0"
     position="1336.5644,1134.1551"
     id="guide3539" /><sodipodi:guide
     orientation="1,0"
     position="1296.2539,1242.125"
     id="guide3543" /><sodipodi:guide
     orientation="1,0"
     position="1255.8216,1292.5912"
     id="guide3545" /><sodipodi:guide
     orientation="0,1"
     position="272.76644,60.347144"
     id="guide3549" /><sodipodi:guide
     orientation="0,1"
     position="348.86881,100.67433"
     id="guide3551" /><sodipodi:guide
     orientation="0,1"
     position="301.93459,140.97941"
     id="guide3555" /><sodipodi:guide
     orientation="1,0"
     position="698.48892,1369.6216"
     id="guide3563" /><sodipodi:guide
     orientation="0,1"
     position="39.730562,698.48892"
     id="guide3567" /><sodipodi:guide
     orientation="-0.70710678,0.70710678"
     position="698.51191,698.80186"
     id="guide3597" /><sodipodi:guide
     orientation="0.70710678,0.70710678"
     position="698.22195,698.80186"
     id="guide3599" /><sodipodi:guide
     orientation="0,1"
     position="123.18608,919.17455"
     id="guide3795" /><sodipodi:guide
     orientation="0,1"
     position="114.84192,477.59308"
     id="guide3797" /><sodipodi:guide
     orientation="1,0"
     position="477.20881,1349.3377"
     id="guide3799" /><sodipodi:guide
     orientation="1,0"
     position="919.17455,1341.1033"
     id="guide3801" /><sodipodi:guide
     orientation="1,0"
     position="2008.7455,1279.2907"
     id="guide2575" /><sodipodi:guide
     orientation="1,0"
     position="1411.3699,1186.6816"
     id="guide2577" /><sodipodi:guide
     orientation="1,0"
     position="2606.0114,1155.6655"
     id="guide2579" /></sodipodi:namedview>
	<g
   id="Layer_x0020_1"
   style="fill-rule:nonzero;clip-rule:nonzero;fill:#F6921E;stroke:#000000;stroke-miterlimit:4;">
		
		
		<g
   id="g2730"><path
     id="path3807"
     d="M2267.718,1116.85H0V0h2267.718v1116.85z"
     style="stroke:none;" /><path
     id="path3809"
     d="M2253.543,1102.678H14.173V14.173h2239.37v1088.504z"
     style="fill:#FFFFFF;stroke:none;" /><g
     id="g3811"
     style="stroke:none;">
			<path
   id="path3813"
   d="M1077.416,555.258c0.873,0.571,2.418,1.175,3.896,1.175c2.149,0,3.157-1.075,3.157-2.418c0-1.411-0.84-2.183-3.023-2.989c-2.922-1.041-4.299-2.653-4.299-4.601c0-2.62,2.116-4.769,5.609-4.769c1.646,0,3.09,0.47,3.997,1.008l-0.739,2.149     c-0.638-0.403-1.814-0.94-3.325-0.94c-1.746,0-2.72,1.007-2.72,2.216c0,1.344,0.974,1.948,3.09,2.754c2.821,1.075,4.265,2.485,4.265,4.904c0,2.854-2.216,4.903-6.079,4.903c-1.78,0-3.426-0.47-4.568-1.142l0.739-2.25z" />
			<path
   id="path3815"
   d="M1102.534,554.384c0,1.411,0.067,2.788,0.269,3.896h-2.687l-0.235-2.049h-0.101c-0.907,1.276-2.653,2.418-4.971,2.418c-3.292,0-4.971-2.317-4.971-4.668c0-3.929,3.493-6.079,9.773-6.045v-0.335c0-1.344-0.37-3.762-3.694-3.762     c-1.511,0-3.09,0.47-4.232,1.209l-0.671-1.948c1.343-0.873,3.291-1.444,5.34-1.444c4.971,0,6.179,3.392,6.179,6.65v6.079z M1099.68,549.985c-3.224-0.067-6.885,0.504-6.885,3.661c0,1.915,1.276,2.821,2.788,2.821c2.116,0,3.459-1.343,3.929-2.72     c0.101-0.302,0.168-0.638,0.168-0.94v-2.821z" />
			<path
   id="path3817"
   d="M1107.603,558.28v-14.005h-2.284v-2.25h2.284v-0.772c0-2.284,0.504-4.366,1.881-5.676c1.108-1.075,2.586-1.511,3.963-1.511c1.041,0,1.948,0.235,2.519,0.47l-0.402,2.284c-0.437-0.202-1.041-0.37-1.881-0.37c-2.52,0-3.157,2.217-3.157,4.702v0.873h3.93     v2.25h-3.93v14.005h-2.922z" />
			<path
   id="path3819"
   d="M1118.314,550.69c0.066,3.997,2.619,5.643,5.574,5.643c2.116,0,3.393-0.37,4.501-0.84l0.504,2.116c-1.041,0.47-2.821,1.041-5.407,1.041c-5.004,0-7.993-3.325-7.993-8.228s2.888-8.766,7.624-8.766c5.306,0,6.717,4.668,6.717,7.657     c0,0.604-0.067,1.075-0.102,1.377h-11.418z M1126.979,548.574c0.034-1.881-0.772-4.803-4.097-4.803c-2.989,0-4.299,2.754-4.534,4.803h8.631z" />
			<path
   id="path3821"
   d="M1152.027,554.384c0,1.411,0.067,2.788,0.269,3.896h-2.687l-0.235-2.049h-0.101c-0.906,1.276-2.653,2.418-4.971,2.418c-3.291,0-4.97-2.317-4.97-4.668c0-3.929,3.492-6.079,9.772-6.045v-0.335c0-1.344-0.369-3.762-3.694-3.762     c-1.511,0-3.09,0.47-4.231,1.209l-0.672-1.948c1.344-0.873,3.292-1.444,5.34-1.444c4.971,0,6.18,3.392,6.18,6.65v6.079z M1149.173,549.985c-3.224-0.067-6.885,0.504-6.885,3.661c0,1.915,1.276,2.821,2.787,2.821c2.116,0,3.46-1.343,3.93-2.72     c0.101-0.302,0.168-0.638,0.168-0.94v-2.821z" />
			<path
   id="path3823"
   d="M1156.794,547.097c0-1.915-0.034-3.56-0.135-5.071h2.586l0.101,3.19h0.135c0.738-2.183,2.519-3.56,4.5-3.56c0.336,0,0.571,0.034,0.84,0.101v2.787c-0.303-0.067-0.604-0.101-1.008-0.101c-2.082,0-3.56,1.579-3.963,3.795     c-0.067,0.403-0.135,0.874-0.135,1.377v8.665h-2.921v-11.184z" />
			<path
   id="path3825"
   d="M1169.084,550.69c0.066,3.997,2.619,5.643,5.574,5.643c2.116,0,3.393-0.37,4.501-0.84l0.504,2.116c-1.041,0.47-2.821,1.041-5.407,1.041c-5.004,0-7.993-3.325-7.993-8.228s2.888-8.766,7.624-8.766c5.306,0,6.717,4.668,6.717,7.657     c0,0.604-0.067,1.075-0.102,1.377h-11.418z M1177.748,548.574c0.034-1.881-0.772-4.803-4.097-4.803c-2.989,0-4.299,2.754-4.534,4.803h8.631z" />
			<path
   id="path3827"
   d="M1195.679,554.384c0,1.411,0.067,2.788,0.269,3.896h-2.687l-0.235-2.049h-0.101c-0.906,1.276-2.653,2.418-4.971,2.418c-3.291,0-4.97-2.317-4.97-4.668c0-3.929,3.492-6.079,9.772-6.045v-0.335c0-1.344-0.369-3.762-3.694-3.762     c-1.511,0-3.09,0.47-4.231,1.209l-0.672-1.948c1.344-0.873,3.292-1.444,5.34-1.444c4.971,0,6.18,3.392,6.18,6.65v6.079z M1192.824,549.985c-3.224-0.067-6.885,0.504-6.885,3.661c0,1.915,1.276,2.821,2.787,2.821c2.116,0,3.46-1.343,3.93-2.72     c0.101-0.302,0.168-0.638,0.168-0.94v-2.821z" />
		</g></g>
		
		
		
		
	<path
   style="opacity:1;fill:none;fill-opacity:1;fill-rule:nonzero;stroke:#0000ff;stroke-width:0.00114138;stroke-linecap:butt;stroke-linejoin:miter;marker:none;marker-start:none;marker-mid:none;marker-end:none;stroke-miterlimit:7.39194536;stroke-dasharray:none;stroke-dashoffset:0;stroke-opacity:1;visibility:visible;display:inline;overflow:visible;enable-background:accumulate"
   d="M 140.625 59.65625 L 140.625 99.4375 L 122.46875 99.4375 C 110.20005 99.437491 100.3125 109.2938 100.3125 121.5625 L 100.3125 140.28125 L 100.3125 476.90625 L 100.3125 918.46875 L 100.3125 1255.0938 L 100.3125 1273.5938 C 100.3125 1285.8624 110.20005 1295.75 122.46875 1295.75 L 140.625 1295.75 L 140.625 1335.7188 L 477.25 1335.7188 L 477.25 1295.75 L 919.21875 1295.75 L 919.21875 1335.6875 L 1255.8125 1335.6875 L 1255.8125 1295.75 L 1274.5 1295.75 C 1285.3664 1295.75 1294.3406 1287.9846 1296.25 1277.6875 L 1296.25 117.46875 C 1294.3406 107.17684 1285.3665 99.437503 1274.5 99.4375 L 1035.0938 99.4375 L 1035.0938 59.65625 L 698.5 59.65625 L 698.5 99.4375 L 477.25 99.4375 L 477.25 59.65625 L 140.625 59.65625 z "
   transform="matrix(0.8,0,0,0.8,0,-7.6953049e-6)"
   id="rect2745" /><path
   sodipodi:type="arc"
   style="opacity:1;fill:none;fill-opacity:1;fill-rule:nonzero;stroke:#0000ff;stroke-width:0.02227615;stroke-linecap:butt;stroke-linejoin:miter;marker:none;marker-start:none;marker-mid:none;marker-end:none;stroke-miterlimit:7.39194536;stroke-dasharray:none;stroke-dashoffset:0;stroke-opacity:1;visibility:visible;display:inline;overflow:visible;enable-background:accumulate"
   id="path3569"
   sodipodi:cx="113.731"
   sodipodi:cy="560.04999"
   sodipodi:rx="33.469009"
   sodipodi:ry="25.6"
   d="M 147.20001,560.04999 A 33.469009,25.6 0 1 1 80.261993,560.04999 A 33.469009,25.6 0 1 1 147.20001,560.04999 z"
   transform="matrix(0.3339392,0,0,0.4364076,74.525652,313.64879)" /><path
   sodipodi:type="arc"
   style="opacity:1;fill:none;fill-opacity:1;fill-rule:nonzero;stroke:#0000ff;stroke-width:0.02227615;stroke-linecap:butt;stroke-linejoin:miter;marker:none;marker-start:none;marker-mid:none;marker-end:none;stroke-miterlimit:7.39194536;stroke-dasharray:none;stroke-dashoffset:0;stroke-opacity:1;visibility:visible;display:inline;overflow:visible;enable-background:accumulate"
   id="path3571"
   sodipodi:cx="113.731"
   sodipodi:cy="560.04999"
   sodipodi:rx="33.469009"
   sodipodi:ry="25.6"
   d="M 147.20001,560.04999 A 33.469009,25.6 0 1 1 80.261993,560.04999 A 33.469009,25.6 0 1 1 147.20001,560.04999 z"
   transform="matrix(0.3339392,0,0,0.4364076,966.65317,313.64879)" /><g
   id="g2633"><path
     transform="matrix(1.2651142,0,0,1.6539862,27.95495,-755.19183)"
     d="M 147.20001,560.04999 A 33.469009,25.6 0 1 1 80.261993,560.04999 A 33.469009,25.6 0 1 1 147.20001,560.04999 z"
     sodipodi:ry="25.6"
     sodipodi:rx="33.469009"
     sodipodi:cy="560.04999"
     sodipodi:cx="113.731"
     id="path3573"
     style="fill:none;fill-opacity:1;fill-rule:nonzero;stroke:#0000ff;stroke-width:0.00587881;stroke-linecap:butt;stroke-linejoin:miter;marker:none;marker-start:none;marker-mid:none;marker-end:none;stroke-miterlimit:7.39194536;stroke-dasharray:none;stroke-dashoffset:0;stroke-opacity:1;visibility:visible;display:inline;overflow:visible;enable-background:accumulate"
     sodipodi:type="arc" /><g
     transform="translate(-594.16985,-320.15073)"
     id="g3579"><path
       sodipodi:type="arc"
       style="opacity:1;fill:none;fill-opacity:1;fill-rule:nonzero;stroke:#0000ff;stroke-width:0.03518458;stroke-linecap:butt;stroke-linejoin:miter;marker:none;marker-start:none;marker-mid:none;marker-end:none;stroke-miterlimit:7.39194536;stroke-dasharray:none;stroke-dashoffset:0;stroke-opacity:1;visibility:visible;display:inline;overflow:visible;enable-background:accumulate"
       id="path3575"
       sodipodi:cx="113.731"
       sodipodi:cy="560.04999"
       sodipodi:rx="33.469009"
       sodipodi:ry="25.6"
       d="M 147.20001,560.04999 A 33.469009,25.6 0 1 1 80.261993,560.04999 A 33.469009,25.6 0 1 1 147.20001,560.04999 z"
       transform="matrix(0.2113812,0,0,0.2763562,675.03413,403.28558)" /><path
       sodipodi:type="arc"
       style="opacity:1;fill:none;fill-opacity:1;fill-rule:nonzero;stroke:#0000ff;stroke-width:0.03518458;stroke-linecap:butt;stroke-linejoin:miter;marker:none;marker-start:none;marker-mid:none;marker-end:none;stroke-miterlimit:7.39194536;stroke-dasharray:none;stroke-dashoffset:0;stroke-opacity:1;visibility:visible;display:inline;overflow:visible;enable-background:accumulate"
       id="path3577"
       sodipodi:cx="113.731"
       sodipodi:cy="560.04999"
       sodipodi:rx="33.469009"
       sodipodi:ry="25.6"
       d="M 147.20001,560.04999 A 33.469009,25.6 0 1 1 80.261993,560.04999 A 33.469009,25.6 0 1 1 147.20001,560.04999 z"
       transform="matrix(0.2113812,0,0,0.2763562,808.8847,403.28558)" /></g><path
     transform="matrix(0.2113812,0,0,0.2763562,80.86428,-50.59303)"
     d="M 147.20001,560.04999 A 33.469009,25.6 0 1 1 80.261993,560.04999 A 33.469009,25.6 0 1 1 147.20001,560.04999 z"
     sodipodi:ry="25.6"
     sodipodi:rx="33.469009"
     sodipodi:cy="560.04999"
     sodipodi:cx="113.731"
     id="path3585"
     style="fill:none;fill-opacity:1;fill-rule:nonzero;stroke:#0000ff;stroke-width:0.03518458;stroke-linecap:butt;stroke-linejoin:miter;marker:none;marker-start:none;marker-mid:none;marker-end:none;stroke-miterlimit:7.39194536;stroke-dasharray:none;stroke-dashoffset:0;stroke-opacity:1;visibility:visible;display:inline;overflow:visible;enable-background:accumulate"
     sodipodi:type="arc" /><path
     transform="matrix(0.2113812,0,0,0.2763562,214.71485,-50.59303)"
     d="M 147.20001,560.04999 A 33.469009,25.6 0 1 1 80.261993,560.04999 A 33.469009,25.6 0 1 1 147.20001,560.04999 z"
     sodipodi:ry="25.6"
     sodipodi:rx="33.469009"
     sodipodi:cy="560.04999"
     sodipodi:cx="113.731"
     id="path3587"
     style="fill:none;fill-opacity:1;fill-rule:nonzero;stroke:#0000ff;stroke-width:0.03518458;stroke-linecap:butt;stroke-linejoin:miter;marker:none;marker-start:none;marker-mid:none;marker-end:none;stroke-miterlimit:7.39194536;stroke-dasharray:none;stroke-dashoffset:0;stroke-opacity:1;visibility:visible;display:inline;overflow:visible;enable-background:accumulate"
     sodipodi:type="arc" /><path
     sodipodi:nodetypes="ccccccc"
     id="path3611"
     d="M 112.50069,111.73163 L 118.96829,111.89094 L 140.50565,133.42829 L 140.66495,139.89589 L 134.19737,139.73657 L 112.66001,118.19922 L 112.50069,111.73163 z"
     style="fill:none;fill-opacity:0.75;fill-rule:evenodd;stroke:#000000;stroke-width:1.00000012px;stroke-linecap:butt;stroke-linejoin:miter;stroke-miterlimit:4;stroke-opacity:1" /><path
     sodipodi:nodetypes="ccccccc"
     id="path3619"
     d="M 203.01036,202.2413 L 209.47796,202.4006 L 231.01532,223.93796 L 231.17461,230.40555 L 224.70703,230.24624 L 203.16968,208.70889 L 203.01036,202.2413 z"
     style="fill:none;fill-opacity:0.75;fill-rule:evenodd;stroke:#000000;stroke-width:1.00000012px;stroke-linecap:butt;stroke-linejoin:miter;stroke-miterlimit:4;stroke-opacity:1" /><path
     sodipodi:nodetypes="ccccccc"
     id="path3621"
     d="M 231.17461,111.73162 L 231.01531,118.19922 L 209.47795,139.73657 L 203.01036,139.89587 L 203.16967,133.42829 L 224.70703,111.89094 L 231.17461,111.73162 z"
     style="fill:none;fill-opacity:0.75;fill-rule:evenodd;stroke:#000000;stroke-width:1.00000012px;stroke-linecap:butt;stroke-linejoin:miter;stroke-miterlimit:4;stroke-opacity:1" /><path
     sodipodi:nodetypes="ccccccc"
     id="path3623"
     d="M 140.66495,202.24128 L 140.50564,208.70889 L 118.96829,230.24624 L 112.50069,230.40554 L 112.66,223.93796 L 134.19736,202.4006 L 140.66495,202.24128 z"
     style="fill:none;fill-opacity:0.75;fill-rule:evenodd;stroke:#000000;stroke-width:1.00000012px;stroke-linecap:butt;stroke-linejoin:miter;stroke-miterlimit:4;stroke-opacity:1" /></g><path
   sodipodi:type="arc"
   style="opacity:1;fill:none;fill-opacity:1;fill-rule:nonzero;stroke:#00ff00;stroke-width:0.00195682;stroke-linecap:butt;stroke-linejoin:miter;marker:none;marker-start:none;marker-mid:none;marker-end:none;stroke-miterlimit:7.39194536;stroke-dasharray:none;stroke-dashoffset:0;stroke-opacity:1;visibility:visible;display:inline;overflow:visible;enable-background:accumulate"
   id="path3729"
   sodipodi:cx="558.82507"
   sodipodi:cy="558.05603"
   sodipodi:rx="0.60554773"
   sodipodi:ry="0.60554773"
   d="M 559.43062,558.05603 A 0.60554773,0.60554773 0 1 1 558.21953,558.05603 A 0.60554773,0.60554773 0 1 1 559.43062,558.05603 z"
   transform="matrix(4.3457887,0,0,4.3457887,-1869.8065,-1867.1866)" /><g
   style="fill:#f6921e;fill-rule:nonzero;stroke:#000000;stroke-miterlimit:4"
   id="g3731"
   transform="translate(286.01215,811.37447)"><path
     transform="matrix(1.2651142,0,0,1.6539862,414.90844,-368.2575)"
     d="M 147.20001,560.04999 A 33.469009,25.6 0 1 1 80.261993,560.04999 A 33.469009,25.6 0 1 1 147.20001,560.04999 z"
     sodipodi:ry="25.6"
     sodipodi:rx="33.469009"
     sodipodi:cy="560.04999"
     sodipodi:cx="113.731"
     id="path3733"
     style="opacity:1;fill:none;fill-opacity:1;fill-rule:nonzero;stroke:#0000ff;stroke-width:0.00587881;stroke-linecap:butt;stroke-linejoin:miter;marker:none;marker-start:none;marker-mid:none;marker-end:none;stroke-miterlimit:7.39194536;stroke-dasharray:none;stroke-dashoffset:0;stroke-opacity:1;visibility:visible;display:inline;overflow:visible;enable-background:accumulate"
     sodipodi:type="arc" /><g
     transform="translate(-207.21636,66.783602)"
     id="g3735"><path
       sodipodi:type="arc"
       style="opacity:1;fill:none;fill-opacity:1;fill-rule:nonzero;stroke:#0000ff;stroke-width:0.03518458;stroke-linecap:butt;stroke-linejoin:miter;marker:none;marker-start:none;marker-mid:none;marker-end:none;stroke-miterlimit:7.39194536;stroke-dasharray:none;stroke-dashoffset:0;stroke-opacity:1;visibility:visible;display:inline;overflow:visible;enable-background:accumulate"
       id="path3737"
       sodipodi:cx="113.731"
       sodipodi:cy="560.04999"
       sodipodi:rx="33.469009"
       sodipodi:ry="25.6"
       d="M 147.20001,560.04999 A 33.469009,25.6 0 1 1 80.261993,560.04999 A 33.469009,25.6 0 1 1 147.20001,560.04999 z"
       transform="matrix(0.2113812,0,0,0.2763562,675.03413,403.28558)" /><path
       sodipodi:type="arc"
       style="opacity:1;fill:none;fill-opacity:1;fill-rule:nonzero;stroke:#0000ff;stroke-width:0.03518458;stroke-linecap:butt;stroke-linejoin:miter;marker:none;marker-start:none;marker-mid:none;marker-end:none;stroke-miterlimit:7.39194536;stroke-dasharray:none;stroke-dashoffset:0;stroke-opacity:1;visibility:visible;display:inline;overflow:visible;enable-background:accumulate"
       id="path3739"
       sodipodi:cx="113.731"
       sodipodi:cy="560.04999"
       sodipodi:rx="33.469009"
       sodipodi:ry="25.6"
       d="M 147.20001,560.04999 A 33.469009,25.6 0 1 1 80.261993,560.04999 A 33.469009,25.6 0 1 1 147.20001,560.04999 z"
       transform="matrix(0.2113812,0,0,0.2763562,808.8847,403.28558)" /></g><path
     transform="matrix(0.2113812,0,0,0.2763562,467.81777,336.3413)"
     d="M 147.20001,560.04999 A 33.469009,25.6 0 1 1 80.261993,560.04999 A 33.469009,25.6 0 1 1 147.20001,560.04999 z"
     sodipodi:ry="25.6"
     sodipodi:rx="33.469009"
     sodipodi:cy="560.04999"
     sodipodi:cx="113.731"
     id="path3741"
     style="fill:none;fill-opacity:1;fill-rule:nonzero;stroke:#0000ff;stroke-width:0.03518458;stroke-linecap:butt;stroke-linejoin:miter;marker:none;marker-start:none;marker-mid:none;marker-end:none;stroke-miterlimit:7.39194536;stroke-dasharray:none;stroke-dashoffset:0;stroke-opacity:1;visibility:visible;display:inline;overflow:visible;enable-background:accumulate"
     sodipodi:type="arc" /><path
     transform="matrix(0.2113812,0,0,0.2763562,601.66834,336.3413)"
     d="M 147.20001,560.04999 A 33.469009,25.6 0 1 1 80.261993,560.04999 A 33.469009,25.6 0 1 1 147.20001,560.04999 z"
     sodipodi:ry="25.6"
     sodipodi:rx="33.469009"
     sodipodi:cy="560.04999"
     sodipodi:cx="113.731"
     id="path3743"
     style="fill:none;fill-opacity:1;fill-rule:nonzero;stroke:#0000ff;stroke-width:0.03518458;stroke-linecap:butt;stroke-linejoin:miter;marker:none;marker-start:none;marker-mid:none;marker-end:none;stroke-miterlimit:7.39194536;stroke-dasharray:none;stroke-dashoffset:0;stroke-opacity:1;visibility:visible;display:inline;overflow:visible;enable-background:accumulate"
     sodipodi:type="arc" /><path
     sodipodi:nodetypes="ccccccc"
     id="path3745"
     d="M 499.45418,498.66596 L 505.92178,498.82527 L 527.45914,520.36262 L 527.61844,526.83022 L 521.15086,526.6709 L 499.6135,505.13355 L 499.45418,498.66596 z"
     style="fill:none;fill-opacity:0.75;fill-rule:evenodd;stroke:#000000;stroke-width:1.00000012px;stroke-linecap:butt;stroke-linejoin:miter;stroke-miterlimit:4;stroke-opacity:1" /><path
     sodipodi:nodetypes="ccccccc"
     id="path3747"
     d="M 589.96385,589.17563 L 596.43145,589.33493 L 617.96881,610.87229 L 618.1281,617.33988 L 611.66052,617.18057 L 590.12317,595.64322 L 589.96385,589.17563 z"
     style="fill:none;fill-opacity:0.75;fill-rule:evenodd;stroke:#000000;stroke-width:1.00000012px;stroke-linecap:butt;stroke-linejoin:miter;stroke-miterlimit:4;stroke-opacity:1" /><path
     sodipodi:nodetypes="ccccccc"
     id="path3749"
     d="M 618.1281,498.66595 L 617.9688,505.13355 L 596.43144,526.6709 L 589.96385,526.8302 L 590.12316,520.36262 L 611.66052,498.82527 L 618.1281,498.66595 z"
     style="fill:none;fill-opacity:0.75;fill-rule:evenodd;stroke:#000000;stroke-width:1.00000012px;stroke-linecap:butt;stroke-linejoin:miter;stroke-miterlimit:4;stroke-opacity:1" /><path
     sodipodi:nodetypes="ccccccc"
     id="path3751"
     d="M 527.61844,589.17561 L 527.45913,595.64322 L 505.92178,617.18057 L 499.45418,617.33987 L 499.61349,610.87229 L 521.15085,589.33493 L 527.61844,589.17561 z"
     style="fill:none;fill-opacity:0.75;fill-rule:evenodd;stroke:#000000;stroke-width:1.00000012px;stroke-linecap:butt;stroke-linejoin:miter;stroke-miterlimit:4;stroke-opacity:1" /><rect
     y="467.12915"
     x="467.89819"
     height="181.50221"
     width="181.50221"
     id="rect3753"
     style="opacity:1;fill:none;fill-opacity:1;fill-rule:nonzero;stroke:#0000ff;stroke-width:0.00850394;stroke-linecap:butt;stroke-linejoin:miter;marker:none;marker-start:none;marker-mid:none;marker-end:none;stroke-miterlimit:7.39194536;stroke-dasharray:none;stroke-dashoffset:0;stroke-opacity:1;visibility:visible;display:inline;overflow:visible;enable-background:accumulate" /></g><g
   style="fill:#f6921e;fill-rule:nonzero;stroke:#000000;stroke-miterlimit:4"
   id="g3775"
   transform="translate(273.23628,1115.1804)"><path
     transform="matrix(0,0.9240393,-1.2080714,0,1235.1231,453.2308)"
     d="M 147.20001,560.04999 A 33.469009,25.6 0 1 1 80.261993,560.04999 A 33.469009,25.6 0 1 1 147.20001,560.04999 z"
     sodipodi:ry="25.6"
     sodipodi:rx="33.469009"
     sodipodi:cy="560.04999"
     sodipodi:cx="113.731"
     id="path3777"
     style="fill:none;fill-opacity:1;fill-rule:nonzero;stroke:#0000ff;stroke-width:0.00804876;stroke-linecap:butt;stroke-linejoin:miter;marker:none;marker-start:none;marker-mid:none;marker-end:none;stroke-miterlimit:7.39194536;stroke-dasharray:none;stroke-dashoffset:0;stroke-opacity:1;visibility:visible;display:inline;overflow:visible;enable-background:accumulate"
     sodipodi:type="arc" /><path
     transform="matrix(-0.1494691,0.1494691,-0.1954133,-0.1954133,645.42753,690.4595)"
     d="M 147.20001,560.04999 A 33.469009,25.6 0 1 1 80.261993,560.04999 A 33.469009,25.6 0 1 1 147.20001,560.04999 z"
     sodipodi:ry="25.6"
     sodipodi:rx="33.469009"
     sodipodi:cy="560.04999"
     sodipodi:cx="113.731"
     id="path3779"
     style="fill:none;fill-opacity:1;fill-rule:nonzero;stroke:#0000ff;stroke-width:0.03518458;stroke-linecap:butt;stroke-linejoin:miter;marker:none;marker-start:none;marker-mid:none;marker-end:none;stroke-miterlimit:7.39194536;stroke-dasharray:none;stroke-dashoffset:0;stroke-opacity:1;visibility:visible;display:inline;overflow:visible;enable-background:accumulate"
     sodipodi:type="arc" /><path
     transform="matrix(-0.1494691,0.1494691,-0.1954133,-0.1954133,724.91995,610.96708)"
     d="M 147.20001,560.04999 A 33.469009,25.6 0 1 1 80.261993,560.04999 A 33.469009,25.6 0 1 1 147.20001,560.04999 z"
     sodipodi:ry="25.6"
     sodipodi:rx="33.469009"
     sodipodi:cy="560.04999"
     sodipodi:cx="113.731"
     id="path3781"
     style="fill:none;fill-opacity:1;fill-rule:nonzero;stroke:#0000ff;stroke-width:0.03518458;stroke-linecap:butt;stroke-linejoin:miter;marker:none;marker-start:none;marker-mid:none;marker-end:none;stroke-miterlimit:7.39194536;stroke-dasharray:none;stroke-dashoffset:0;stroke-opacity:1;visibility:visible;display:inline;overflow:visible;enable-background:accumulate"
     sodipodi:type="arc" /><rect
     transform="matrix(0,1,-1,0,0,0)"
     y="-649.47101"
     x="467.42975"
     height="181.50221"
     width="181.50221"
     id="rect3783"
     style="fill:none;fill-opacity:1;fill-rule:nonzero;stroke:#0000ff;stroke-width:0.00850394;stroke-linecap:butt;stroke-linejoin:miter;marker:none;marker-start:none;marker-mid:none;marker-end:none;stroke-miterlimit:7.39194536;stroke-dasharray:none;stroke-dashoffset:0;stroke-opacity:1;visibility:visible;display:inline;overflow:visible;enable-background:accumulate" /></g><path
   style="opacity:1;fill:none;fill-opacity:1;fill-rule:nonzero;stroke:#0000ff;stroke-width:0.00850394;stroke-linecap:butt;stroke-linejoin:miter;marker:none;marker-start:none;marker-mid:none;marker-end:none;stroke-miterlimit:7.39194536;stroke-dasharray:none;stroke-dashoffset:0;stroke-opacity:1;visibility:visible;display:inline;overflow:visible;enable-background:accumulate"
   d="M 324.59375 201.40625 L 324.59375 301.46875 C 324.59376 313.73746 314.7062 323.625 302.4375 323.625 L 202.3125 323.625 L 202.3125 1171.5938 C 202.3125 1183.8624 212.20006 1193.7499 224.46875 1193.75 L 1172.5 1193.75 C 1184.7687 1193.75 1194.6562 1183.8625 1194.6562 1171.5938 L 1194.6562 223.5625 C 1194.6562 211.2938 1184.7686 201.40625 1172.5 201.40625 L 324.59375 201.40625 z "
   transform="matrix(0.8,0,0,0.8,0,-7.6953049e-6)"
   id="rect2617" /></g>
</svg>