999
dxflib 2.2.0.0
  0
SECTION
  2
HEADER
  9
$ACADVER
  1
AC1015
  9
$HANDSEED
  5
FFFF
  9
$DIMLIM
 70
0
  9
$DIMLUNIT
 70
2
  9
$DIMTIX
 70
0
  9
$AUNITS
 70
0
  9
$QTEXTMODE
 70
0
  9
$USERR1
 40
0.0
  9
$DIMALTU
 70
2
  9
$USERR2
 40
0.0
  9
$UCSORGBOTTOM
 10
0.0
 20
0.0
 30
0.0
  9
$USERR3
 40
0.0
  9
$USERR4
 40
0.0
  9
$USERR5
 40
0.0
  9
$LIMMAX
 10
420.0
 20
297.0
  9
$PELEVATION
 40
0.0
  9
$DIMALTZ
 70
0
  9
$DIMADEC
 70
0
  9
$JOINSTYLE
280
0
  9
$TILEMODE
 70
1
  9
$DIMATFIT
 70
3
  9
$PEXTMIN
 10
0.0
 20
0.0
 30
0.0
  9
$TDUSRTIMER
 40
0.0000187731
  9
$DWGCODEPAGE
  3
ANSI_1252
  9
$UCSORTHOVIEW
 70
0
  9
$DIMSOXD
 70
0
  9
$DIMTZIN
 70
0
  9
$SPLINETYPE
 70
6
  9
$DIMLFAC
 40
1.0
  9
$DIMSE1
 70
0
  9
$FILLETRAD
 40
0.0
  9
$DIMSE2
 70
0
  9
$PSTYLEMODE
290
1
  9
$TEXTSTYLE
  7
Standard
  9
$DIMTSZ
 40
0.0
  9
$PUCSXDIR
 10
1.0
 20
0.0
 30
0.0
  9
$DIMTXSTY
  7
Standard
  9
$PLIMMAX
 10
215.9000000000000057
 20
279.3999999999999773
  9
$DIMTM
 40
0.0
  9
$UCSORG
 10
0.0
 20
0.0
 30
0.0
  9
$DIMTP
 40
0.0
  9
$PSLTSCALE
 70
1
  9
$EXTNAMES
290
1
  9
$ANGBASE
 50
0.0
  9
$PUCSYDIR
 10
0.0
 20
1.0
 30
0.0
  9
$DIMASZ
 40
1.8
  9
$PUCSORTHOVIEW
 70
0
  9
$UNITMODE
 70
0
  9
$MEASUREMENT
 70
1
  9
$INSBASE
 10
0.0
 20
0.0
 30
0.0
  9
$EXTMAX
 10
420.0
 20
297.0
 30
0.0
  9
$ELEVATION
 40
0.0
  9
$TDCREATE
 40
2454670.4520583911798894
  9
$DIMDEC
 70
4
  9
$CELTYPE
  6
ByLayer
  9
$GRIDUNIT
 10
0.0
 20
0.0
  9
$MENU
  1
.
  9
$ANGDIR
 70
0
  9
$DIMALTTD
 70
2
  9
$TREEDEPTH
 70
3020
  9
$PROXYGRAPHICS
 70
1
  9
$LTSCALE
 40
1.0
  9
$DIMTMOVE
 70
0
  9
$DIMAZIN
 70
0
  9
$TDUPDATE
 40
2454670.4520583911798894
  9
$DIMTOLJ
 70
1
  9
$DIMCEN
 40
0.09
  9
$DIMTVP
 40
0.0
  9
$TRACEWID
 40
0.05
  9
$CMLSTYLE
  2
Standard
  9
$DISPSILH
 70
0
  9
$DIMSTYLE
  2
Standard
  9
$SKETCHINC
 40
0.1
  9
$FILLMODE
 70
1
  9
$PLINEGEN
 70
0
  9
$DIMLWD
 70
-2
  9
$THICKNESS
 40
0.0
  9
$PUCSORG
 10
0.0
 20
0.0
 30
0.0
  9
$DIMLWE
 70
-2
  9
$CELTSCALE
 40
1.0
  9
$DIMALTTZ
 70
0
  9
$INSUNITS
 70
4
  9
$UCSORGBACK
 10
0.0
 20
0.0
 30
0.0
  9
$PLINEWID
 40
0.0
  9
$PEXTMAX
 10
420.0
 20
297.0
 30
0.0
  9
$DIMJUST
 70
0
  9
$UCSYDIR
 10
0.0
 20
1.0
 30
0.0
  9
$PUCSORGBACK
 10
0.0
 20
0.0
 30
0.0
  9
$GRIDMODE
 70
1
  9
$PUCSORGBOTTOM
 10
0.0
 20
0.0
 30
0.0
  9
$PDSIZE
 40
0.0
  9
$DIMUPT
 70
0
  9
$DIMTAD
 70
0
  9
$MAXACTVP
 70
64
  9
$UCSXDIR
 10
1.0
 20
0.0
 30
0.0
  9
$DIMSAH
 70
0
  9
$TDUCREATE
 40
2454670.4103917251341045
  9
$DIMFRAC
 70
0
  9
$USERI1
 70
0
  9
$USERI2
 70
0
  9
$CELWEIGHT
370
-1
  9
$USERI3
 70
0
  9
$UCSORGRIGHT
 10
0.0
 20
0.0
 30
0.0
  9
$LWDISPLAY
290
0
  9
$SKPOLY
 70
0
  9
$USERI4
 70
0
  9
$USERI5
 70
0
  9
$UCSORGTOP
 10
0.0
 20
0.0
 30
0.0
  9
$LIMMIN
 10
0.0
 20
0.0
  9
$ACADMAINTVER
 70
18
  9
$MIRRTEXT
 70
0
  9
$TDUUPDATE
 40
2454670.4103917251341045
  9
$TEXTSIZE
 40
0.2
  9
$DIMGAP
 40
0.09
  9
$LUPREC
 70
4
  9
$CECOLOR
 62
256
  9
$DIMSD1
 70
0
  9
$DIMSD2
 70
0
  9
$WORLDVIEW
 70
1
  9
$PUCSORGRIGHT
 10
0.0
 20
0.0
 30
0.0
  9
$PLIMCHECK
 70
0
  9
$DIMTFAC
 40
1.0
  9
$CMLJUST
 70
0
  9
$USRTIMER
 70
1
  9
$SURFU
 70
6
  9
$SURFV
 70
6
  9
$DIMASO
 70
1
  9
$DIMDLE
 40
0.0
  9
$EXTMIN
 10
0.0
 20
0.0
 30
0.0
  9
$UCSORGLEFT
 10
0.0
 20
0.0
 30
0.0
  9
$OLESTARTUP
290
0
  9
$PUCSORGFRONT
 10
0.0
 20
0.0
 30
0.0
  9
$DIMDLI
 40
0.38
  9
$LUNITS
 70
2
  9
$DIMCLRD
 70
0
  9
$SHADEDIF
 70
70
  9
$DIMCLRE
 70
0
  9
$SPLINESEGS
 70
8
  9
$PUCSORGLEFT
 10
0.0
 20
0.0
 30
0.0
  9
$DIMALTRND
 40
0.0
  9
$DIMRND
 40
0.0
  9
$DIMALT
 70
0
  9
$FINGERPRINTGUID
  2
{957EB8BD-B1CB-432B-9497-5194FA736EDC}
  9
$DIMCLRT
 70
0
  9
$PUCSORGTOP
 10
0.0
 20
0.0
 30
0.0
  9
$DIMTOH
 70
1
  9
$UCSORGFRONT
 10
0.0
 20
0.0
 30
0.0
  9
$VISRETAIN
 70
1
  9
$SHADEDGE
 70
3
  9
$DIMTOL
 70
0
  9
$SURFTYPE
 70
6
  9
$VERSIONGUID
  2
{F0539855-98D3-4F5B-8BA8-A3C366CB493D}
  9
$CHAMFERA
 40
0.0
  9
$SURFTAB1
 70
6
  9
$CHAMFERB
 40
0.0
  9
$SURFTAB2
 70
6
  9
$CHAMFERC
 40
0.0
  9
$AUPREC
 70
0
  9
$CHAMFERD
 40
0.0
  9
$DIMTDEC
 70
4
  9
$PDMODE
 70
0
  9
$PLIMMIN
 10
0.0
 20
0.0
  9
$SPLFRAME
 70
0
  9
$XEDIT
290
1
  9
$DIMDSEP
 70
46
  9
$LIMCHECK
 70
0
  9
$PINSBASE
 10
0.0
 20
0.0
 30
0.0
  9
$ORTHOMODE
 70
0
  9
$PSVPSCALE
 40
0.0
  9
$CLAYER
  8
0
  9
$DIMSHO
 70
1
  9
$DIMTOFL
 70
0
  9
$DIMTXT
 40
0.35
  9
$DIMEXE
 40
0.18
  9
$TDINDWG
 40
0.0000187731
  9
$REGENMODE
 70
1
  9
$ATTMODE
 70
1
  9
$CMLSCALE
 40
1.0
  9
$DIMTIH
 70
1
  9
$DIMZIN
 70
0
  9
$CEPSNTYPE
380
0
  9
$DIMSCALE
 40
1.0
  9
$DIMALTD
 70
2
  9
$DIMAUNIT
 70
0
  9
$DIMEXO
 40
0.0625
  9
$DIMALTF
 40
25.3999999999999986
  9
$ENDCAPS
280
0
  9
$CLAYER
  8
0
  0
ENDSEC
  0
SECTION
  2
TABLES
  0
TABLE
  2
VPORT
  5
8
100
AcDbSymbolTable
 70
1
  0
VPORT
  5
30
100
AcDbSymbolTableRecord
100
AcDbViewportTableRecord
  2
*Active
 70
0
 10
0.0
 20
0.0
 11
1.0
 21
1.0
 12
286.3055555555554861
 22
148.5
 13
0.0
 23
0.0
 14
10.0
 24
10.0
 15
10.0
 25
10.0
 16
0.0
 26
0.0
 36
1.0
 17
0.0
 27
0.0
 37
0.0
 40
297.0
 41
1.92798353909465
 42
50.0
 43
0.0
 44
0.0
 50
0.0
 51
0.0
 71
0
 72
100
 73
1
 74
3
 75
1
 76
1
 77
0
 78
0
281
0
 65
1
110
0.0
120
0.0
130
0.0
111
1.0
121
0.0
131
0.0
112
0.0
122
1.0
132
0.0
 79
0
146
0.0
  0
ENDTAB
  0
TABLE
  2
LTYPE
  5
5
100
AcDbSymbolTable
 70
21
  0
LTYPE
  5
14
100
AcDbSymbolTableRecord
100
AcDbLinetypeTableRecord
  2
ByBlock
 70
0
  3

 72
65
 73
0
 40
0.0
  0
LTYPE
  5
15
100
AcDbSymbolTableRecord
100
AcDbLinetypeTableRecord
  2
ByLayer
 70
0
  3

 72
65
 73
0
 40
0.0
  0
LTYPE
  5
16
100
AcDbSymbolTableRecord
100
AcDbLinetypeTableRecord
  2
CONTINUOUS
 70
0
  3
Solid line
 72
65
 73
0
 40
0.0
  0
LTYPE
  5
31
100
AcDbSymbolTableRecord
100
AcDbLinetypeTableRecord
  2
DOT
 70
0
  3
Dot . . . . . . . . . . . . . . . . . . . . . .
 72
65
 73
2
 40
6.3499999999999996
 49
0.0
 74
0
 49
-6.3499999999999996
 74
0
  0
LTYPE
  5
32
100
AcDbSymbolTableRecord
100
AcDbLinetypeTableRecord
  2
DOT2
 70
0
  3
Dot (.5x) .....................................
 72
65
 73
2
 40
3.1749999999999998
 49
0.0
 74
0
 49
-3.1749999999999998
 74
0
  0
LTYPE
  5
33
100
AcDbSymbolTableRecord
100
AcDbLinetypeTableRecord
  2
DOTX2
 70
0
  3
Dot (2x) .  .  .  .  .  .  .  .  .  .  .  .  .
 72
65
 73
2
 40
12.6999999999999993
 49
0.0
 74
0
 49
-12.6999999999999993
 74
0
  0
LTYPE
  5
34
100
AcDbSymbolTableRecord
100
AcDbLinetypeTableRecord
  2
DASHED
 70
0
  3
Dashed __ __ __ __ __ __ __ __ __ __ __ __ __ _
 72
65
 73
2
 40
19.0500000000000007
 49
12.6999999999999993
 74
0
 49
-6.3499999999999996
 74
0
  0
LTYPE
  5
35
100
AcDbSymbolTableRecord
100
AcDbLinetypeTableRecord
  2
DASHED2
 70
0
  3
Dashed (.5x) _ _ _ _ _ _ _ _ _ _ _ _ _ _ _ _ _
 72
65
 73
2
 40
9.5250000000000004
 49
6.3499999999999996
 74
0
 49
-3.1749999999999998
 74
0
  0
LTYPE
  5
36
100
AcDbSymbolTableRecord
100
AcDbLinetypeTableRecord
  2
DASHEDX2
 70
0
  3
Dashed (2x) ____  ____  ____  ____  ____  ___
 72
65
 73
2
 40
38.1000000000000014
 49
25.3999999999999986
 74
0
 49
-12.6999999999999993
 74
0
  0
LTYPE
  5
37
100
AcDbSymbolTableRecord
100
AcDbLinetypeTableRecord
  2
DASHDOT
 70
0
  3
Dash dot __ . __ . __ . __ . __ . __ . __ . __
 72
65
 73
4
 40
25.3999999999999986
 49
12.6999999999999993
 74
0
 49
-6.3499999999999996
 74
0
 49
0.0
 74
0
 49
-6.3499999999999996
 74
0
  0
LTYPE
  5
38
100
AcDbSymbolTableRecord
100
AcDbLinetypeTableRecord
  2
DASHDOT2
 70
0
  3
Dash dot (.5x) _._._._._._._._._._._._._._._.
 72
65
 73
4
 40
12.6999999999999993
 49
6.3499999999999996
 74
0
 49
-3.1749999999999998
 74
0
 49
0.0
 74
0
 49
-3.1749999999999998
 74
0
  0
LTYPE
  5
39
100
AcDbSymbolTableRecord
100
AcDbLinetypeTableRecord
  2
DASHDOTX2
 70
0
  3
Dash dot (2x) ____  .  ____  .  ____  .  ___
 72
65
 73
4
 40
50.7999999999999972
 49
25.3999999999999986
 74
0
 49
-12.6999999999999993
 74
0
 49
0.0
 74
0
 49
-12.6999999999999993
 74
0
  0
LTYPE
  5
3A
100
AcDbSymbolTableRecord
100
AcDbLinetypeTableRecord
  2
DIVIDE
 70
0
  3
Divide ____ . . ____ . . ____ . . ____ . . ____
 72
65
 73
6
 40
31.75
 49
12.6999999999999993
 74
0
 49
-6.3499999999999996
 74
0
 49
0.0
 74
0
 49
-6.3499999999999996
 74
0
 49
0.0
 74
0
 49
-6.3499999999999996
 74
0
  0
LTYPE
  5
3B
100
AcDbSymbolTableRecord
100
AcDbLinetypeTableRecord
  2
DIVIDE2
 70
0
  3
Divide (.5x) __..__..__..__..__..__..__..__.._
 72
65
 73
6
 40
15.875
 49
6.3499999999999996
 74
0
 49
-3.1749999999999998
 74
0
 49
0.0
 74
0
 49
-3.1749999999999998
 74
0
 49
0.0
 74
0
 49
-3.1749999999999998
 74
0
  0
LTYPE
  5
3C
100
AcDbSymbolTableRecord
100
AcDbLinetypeTableRecord
  2
DIVIDEX2
 70
0
  3
Divide (2x) ________  .  .  ________  .  .  _
 72
65
 73
6
 40
63.5
 49
25.3999999999999986
 74
0
 49
-12.6999999999999993
 74
0
 49
0.0
 74
0
 49
-12.6999999999999993
 74
0
 49
0.0
 74
0
 49
-12.6999999999999993
 74
0
  0
LTYPE
  5
3D
100
AcDbSymbolTableRecord
100
AcDbLinetypeTableRecord
  2
CENTER
 70
0
  3
Center ____ _ ____ _ ____ _ ____ _ ____ _ ____
 72
65
 73
4
 40
50.7999999999999972
 49
31.75
 74
0
 49
-6.3499999999999996
 74
0
 49
6.3499999999999996
 74
0
 49
-6.3499999999999996
 74
0
  0
LTYPE
  5
3E
100
AcDbSymbolTableRecord
100
AcDbLinetypeTableRecord
  2
CENTER2
 70
0
  3
Center (.5x) ___ _ ___ _ ___ _ ___ _ ___ _ ___
 72
65
 73
4
 40
28.5749999999999993
 49
19.0500000000000007
 74
0
 49
-3.1749999999999998
 74
0
 49
3.1749999999999998
 74
0
 49
-3.1749999999999998
 74
0
  0
LTYPE
  5
3F
100
AcDbSymbolTableRecord
100
AcDbLinetypeTableRecord
  2
CENTERX2
 70
0
  3
Center (2x) ________  __  ________  __  _____
 72
65
 73
4
 40
101.5999999999999943
 49
63.5
 74
0
 49
-12.6999999999999993
 74
0
 49
12.6999999999999993
 74
0
 49
-12.6999999999999993
 74
0
  0
LTYPE
  5
40
100
AcDbSymbolTableRecord
100
AcDbLinetypeTableRecord
  2
BORDER
 70
0
  3
Border __ __ . __ __ . __ __ . __ __ . __ __ .
 72
65
 73
6
 40
44.4500000000000028
 49
12.6999999999999993
 74
0
 49
-6.3499999999999996
 74
0
 49
12.6999999999999993
 74
0
 49
-6.3499999999999996
 74
0
 49
0.0
 74
0
 49
-6.3499999999999996
 74
0
  0
LTYPE
  5
41
100
AcDbSymbolTableRecord
100
AcDbLinetypeTableRecord
  2
BORDER2
 70
0
  3
Border (.5x) __.__.__.__.__.__.__.__.__.__.__.
 72
65
 73
6
 40
22.2250000000000014
 49
6.3499999999999996
 74
0
 49
-3.1749999999999998
 74
0
 49
6.3499999999999996
 74
0
 49
-3.1749999999999998
 74
0
 49
0.0
 74
0
 49
-3.1749999999999998
 74
0
  0
LTYPE
  5
42
100
AcDbSymbolTableRecord
100
AcDbLinetypeTableRecord
  2
BORDERX2
 70
0
  3
Border (2x) ____  ____  .  ____  ____  .  ___
 72
65
 73
6
 40
88.9000000000000057
 49
25.3999999999999986
 74
0
 49
-12.6999999999999993
 74
0
 49
25.3999999999999986
 74
0
 49
-12.6999999999999993
 74
0
 49
0.0
 74
0
 49
-12.6999999999999993
 74
0
  0
ENDTAB
  0
TABLE
  2
LAYER
  5
2
100
AcDbSymbolTable
 70
4
  0
LAYER
  5
10
100
AcDbSymbolTableRecord
100
AcDbLayerTableRecord
  2
0
 70
0
 62
7
420
16777215
  6
CONTINUOUS
370
0
390
F
  0
LAYER
  5
43
100
AcDbSymbolTableRecord
100
AcDbLayerTableRecord
  2
Notes
 70
0
 62
7
420
16777215
  6
CONTINUOUS
370
0
390
F
  0
LAYER
  5
44
100
AcDbSymbolTableRecord
100
AcDbLayerTableRecord
  2
Original Nut
 70
0
 62
5
420
255
  6
CONTINUOUS
370
0
390
F
  0
LAYER
  5
45
100
AcDbSymbolTableRecord
100
AcDbLayerTableRecord
  2
Text
 70
0
 62
4
420
65535
  6
CONTINUOUS
370
0
390
F
  0
ENDTAB
  0
TABLE
  2
STYLE
  5
3
100
AcDbSymbolTable
 70
1
  0
STYLE
  5
11
100
AcDbSymbolTableRecord
100
AcDbTextStyleTableRecord
  2
Standard
 70
0
 40
0.0
 41
0.75
 50
0.0
 71
0
 42
2.5
  3
txt
  4

  0
ENDTAB
  0
TABLE
  2
VIEW
  5
6
100
AcDbSymbolTable
 70
0
  0
ENDTAB
  0
TABLE
  2
UCS
  5
7
100
AcDbSymbolTable
 70
0
  0
ENDTAB
  0
TABLE
  2
APPID
  5
9
100
AcDbSymbolTable
 70
1
  0
APPID
  5
12
100
AcDbSymbolTableRecord
100
AcDbRegAppTableRecord
  2
ACAD
 70
0
  0
ENDTAB
  0
TABLE
  2
DIMSTYLE
  5
A
100
AcDbSymbolTable
 70
1
100
AcDbDimStyleTable
 71
0
  0
DIMSTYLE
105
27
100
AcDbSymbolTableRecord
100
AcDbDimStyleTableRecord
  2
Standard
 41
1.8
 42
0.0625
 43
3.75
 44
0.18
 70
0
 73
0
 74
0
 77
1
 78
8
140
0.35
141
2.5
143
0.03937007874016
147
0.09
171
3
172
1
271
2
272
2
274
3
278
44
283
0
284
8
340
11
  0
ENDTAB
  0
TABLE
  2
BLOCK_RECORD
  5
1
100
AcDbSymbolTable
 70
1
  0
BLOCK_RECORD
  5
1F
100
AcDbSymbolTableRecord
100
AcDbBlockTableRecord
  2
*Model_Space
340
22
  0
BLOCK_RECORD
  5
1B
100
AcDbSymbolTableRecord
100
AcDbBlockTableRecord
  2
*Paper_Space
340
1E
  0
BLOCK_RECORD
  5
23
100
AcDbSymbolTableRecord
100
AcDbBlockTableRecord
  2
*Paper_Space0
340
26
  0
ENDTAB
  0
ENDSEC
  0
SECTION
  2
BLOCKS
  0
BLOCK
  5
20
100
AcDbEntity
  8
0
100
AcDbBlockBegin
  2
*Model_Space
 70
0
 10
0.0
 20
0.0
 30
0.0
  3
*Model_Space
  1

  0
ENDBLK
  5
21
100
AcDbEntity
  8
0
100
AcDbBlockEnd
  0
BLOCK
  5
1C
100
AcDbEntity
 67
1
  8
0
100
AcDbBlockBegin
  2
*Paper_Space
 70
0
 10
0.0
 20
0.0
 30
0.0
  3
*Paper_Space
  1

  0
ENDBLK
  5
1D
100
AcDbEntity
 67
1
  8
0
100
AcDbBlockEnd
  0
BLOCK
  5
24
100
AcDbEntity
  8
0
100
AcDbBlockBegin
  2
*Paper_Space0
 70
0
 10
0.0
 20
0.0
 30
0.0
  3
*Paper_Space0
  1

  0
ENDBLK
  5
25
100
AcDbEntity
  8
0
100
AcDbBlockEnd
  0
ENDSEC
  0
SECTION
  2
ENTITIES
  0
ARC
  5
46
100
AcDbEntity
  8
0
 62
256
370
-1
  6
ByLayer
100
AcDbCircle
 10
66.8336482562163781
 20
51.9333333333323424
 30
0.0
 40
18.7500000000019398
100
AcDbArc
 50
146.6503120789178922
 51
148.9003120789176933
  0
ARC
  5
47
100
AcDbEntity
  8
0
 62
256
370
-1
  6
ByLayer
100
AcDbCircle
 10
47.5219894612904596
 20
50.9431317933673427
 30
0.0
 40
11.1608015372597205
100
AcDbArc
 50
73.0349136620844206
 51
85.2819739417273013
  0
ARC
  5
48
100
AcDbEntity
  8
0
 62
256
370
-1
  6
ByLayer
100
AcDbCircle
 10
59.3977316393892991
 20
69.7834820321243399
 30
0.0
 40
11.1608015372601503
100
AcDbArc
 50
210.2686502161085969
 51
222.5157104957509944
  0
ARC
  5
49
100
AcDbEntity
  8
0
 62
256
370
-1
  6
ByLayer
100
AcDbCircle
 10
66.8336482562150422
 20
51.9333333333331382
 30
0.0
 40
18.7500000000003517
100
AcDbArc
 50
155.650312078917807
 51
157.9003120789174091
  0
ARC
  5
4A
100
AcDbEntity
  8
0
 62
256
370
-1
  6
ByLayer
100
AcDbCircle
 10
47.9146496751030782
 20
47.9343138048463402
 30
0.0
 40
11.1608015372594895
100
AcDbArc
 50
82.0349136620843211
 51
94.2819739417273865
  0
ARC
  5
4B
100
AcDbEntity
  8
0
 62
256
370
-1
  6
ByLayer
100
AcDbCircle
 10
56.6969016495546185
 20
68.4004834429818516
 30
0.0
 40
11.1608015372600704
100
AcDbArc
 50
219.2686502161085969
 51
231.5157104957509091
  0
ARC
  5
4C
100
AcDbEntity
  8
0
 62
256
370
-1
  6
ByLayer
100
AcDbCircle
 10
66.8336482562229435
 20
51.9333333333313476
 30
0.0
 40
18.7500000000084484
100
AcDbArc
 50
164.6503120789184038
 51
166.9003120789174943
  0
ARC
  5
4D
100
AcDbEntity
  8
0
 62
256
370
-1
  6
ByLayer
100
AcDbCircle
 10
48.7731584225390975
 20
45.0239649491012415
 30
0.0
 40
11.1608015372596103
100
AcDbArc
 50
91.0349136620844064
 51
103.2819739417274008
  0
ARC
  5
4E
100
AcDbEntity
  8
0
 62
256
370
-1
  6
ByLayer
100
AcDbCircle
 10
54.2456720031090924
 20
66.6120089668016533
 30
0.0
 40
11.1608015372599105
100
AcDbArc
 50
228.2686502161085116
 51
240.5157104957511081
  0
ARC
  5
4F
100
AcDbEntity
  8
0
 62
256
370
-1
  6
ByLayer
100
AcDbCircle
 10
66.8336482562187086
 20
51.9333333333330529
 30
0.0
 40
18.7500000000039897
100
AcDbArc
 50
173.6503120789180912
 51
175.900312078917807
  0
ARC
  5
50
100
AcDbEntity
  8
0
 62
256
370
-1
  6
ByLayer
100
AcDbCircle
 10
50.0763763690096795
 20
42.283747673854549
 30
0.0
 40
11.1608015372602001
100
AcDbArc
 50
100.0349136620847048
 51
112.2819739417270029
  0
ARC
  5
51
100
AcDbEntity
  8
0
 62
256
370
-1
  6
ByLayer
100
AcDbCircle
 10
52.1044001091132216
 20
64.4620967807944396
 30
0.0
 40
11.1608015372601503
100
AcDbArc
 50
237.2686502161086253
 51
249.5157104957509091
  0
ARC
  5
52
100
AcDbEntity
  8
0
 62
256
370
-1
  6
ByLayer
100
AcDbCircle
 10
66.8336482562111769
 20
51.9333333333330529
 30
0.0
 40
18.7499999999964189
100
AcDbArc
 50
182.6503120789172954
 51
184.9003120789176933
  0
ARC
  5
53
100
AcDbEntity
  8
0
 62
256
370
-1
  6
ByLayer
100
AcDbCircle
 10
51.7922139635398722
 20
39.7811352226839574
 30
0.0
 40
11.1608015372597205
100
AcDbArc
 50
109.0349136620844064
 51
121.2819739417272018
  0
ARC
  5
54
100
AcDbEntity
  8
0
 62
256
370
-1
  6
ByLayer
100
AcDbCircle
 10
50.3258111880708725
 20
62.0036848581286506
 30
0.0
 40
11.1608015372601805
100
AcDbArc
 50
246.2686502161087105
 51
258.5157104957509091
  0
ARC
  5
55
100
AcDbEntity
  8
0
 62
256
370
-1
  6
ByLayer
100
AcDbCircle
 10
66.8336482562138059
 20
51.9333333333331382
 30
0.0
 40
18.7499999999990514
100
AcDbArc
 50
191.6503120789176933
 51
193.9003120789180059
  0
ARC
  5
56
100
AcDbEntity
  8
0
 62
256
370
-1
  6
ByLayer
100
AcDbCircle
 10
53.8784215900143622
 20
37.577750219830051
 30
0.0
 40
11.1608015372599105
100
AcDbArc
 50
118.0349136620845201
 51
130.2819739417271023
  0
ARC
  5
57
100
AcDbEntity
  8
0
 62
256
370
-1
  6
ByLayer
100
AcDbCircle
 10
48.9537000020163617
 20
59.2973074593414538
 30
0.0
 40
11.1608015372598803
100
AcDbArc
 50
255.2686502161084263
 51
267.5157104957510228
  0
ARC
  5
58
100
AcDbEntity
  8
0
 62
256
370
-1
  6
ByLayer
100
AcDbCircle
 10
66.8336482562181402
 20
51.9333333333347582
 30
0.0
 40
18.7500000000036593
100
AcDbArc
 50
200.6503120789180059
 51
202.9003120789174091
  0
ARC
  5
59
100
AcDbEntity
  8
0
 62
256
370
-1
  6
ByLayer
100
AcDbCircle
 10
56.2836298929429262
 20
35.7278473166796573
 30
0.0
 40
11.1608015372600207
100
AcDbArc
 50
127.0349136620846195
 51
139.2819739417271023
  0
ARC
  5
5A
100
AcDbEntity
  8
0
 62
256
370
-1
  6
ByLayer
100
AcDbCircle
 10
48.0218524821264197
 20
56.4096045779433553
 30
0.0
 40
11.1608015372599692
100
AcDbArc
 50
264.2686502161084832
 51
276.5157104957510796
  0
ARC
  5
5B
100
AcDbEntity
  8
0
 62
256
370
-1
  6
ByLayer
100
AcDbCircle
 10
66.8336482562070842
 20
51.9333333333287612
 30
0.0
 40
18.7499999999910898
100
AcDbArc
 50
209.6503120789172101
 51
211.9003120789180059
  0
ARC
  5
5C
100
AcDbEntity
  8
0
 62
256
370
-1
  6
ByLayer
100
AcDbCircle
 10
58.9486146614787287
 20
34.2769772621839479
 30
0.0
 40
11.1608015372599993
100
AcDbArc
 50
136.0349136620847048
 51
148.2819739417271876
  0
ARC
  5
5D
100
AcDbEntity
  8
0
 62
256
370
-1
  6
ByLayer
100
AcDbCircle
 10
47.5532138069652888
 20
53.4116810426103541
 30
0.0
 40
11.1608015372599194
100
AcDbArc
 50
273.2686502161084832
 51
285.5157104957510796
  0
ARC
  5
5E
100
AcDbEntity
  8
0
 62
256
370
-1
  6
ByLayer
100
AcDbCircle
 10
66.833648256223583
 20
51.9333333333407552
 30
0.0
 40
18.7500000000115108
100
AcDbArc
 50
218.6503120789184038
 51
220.9003120789172101
  0
ARC
  5
5F
100
AcDbEntity
  8
0
 62
256
370
-1
  6
ByLayer
100
AcDbCircle
 10
61.8077551260430482
 20
33.2608652922461374
 30
0.0
 40
11.1608015372599496
100
AcDbArc
 50
145.0349136620843922
 51
157.2819739417269886
  0
ARC
  5
60
100
AcDbEntity
  8
0
 62
256
370
-1
  6
ByLayer
100
AcDbCircle
 10
47.5593234160380476
 20
50.3773556803200506
 30
0.0
 40
11.1608015372598306
100
AcDbArc
 50
282.2686502161084832
 51
294.5157104957511933
  0
ARC
  5
61
100
AcDbEntity
  8
0
 62
256
370
-1
  6
ByLayer
100
AcDbCircle
 10
66.8336482562185097
 20
51.9333333333376572
 30
0.0
 40
18.7500000000057483
100
AcDbArc
 50
227.6503120789182901
 51
229.9003120789174091
  0
ARC
  5
62
100
AcDbEntity
  8
0
 62
256
370
-1
  6
ByLayer
100
AcDbCircle
 10
64.790649759455178
 20
32.7045314558484392
 30
0.0
 40
11.1608015372598697
100
AcDbArc
 50
154.0349136620847048
 51
166.2819739417273013
  0
ARC
  5
63
100
AcDbEntity
  8
0
 62
256
370
-1
  6
ByLayer
100
AcDbCircle
 10
48.0400308704926502
 20
47.3813436518409503
 30
0.0
 40
11.1608015372598697
100
AcDbArc
 50
291.2686502161084263
 51
303.5157104957510796
  0
ARC
  5
64
100
AcDbEntity
  8
0
 62
256
370
-1
  6
ByLayer
100
AcDbCircle
 10
66.833648256215767
 20
51.9333333333349572
 30
0.0
 40
18.7500000000019398
100
AcDbArc
 50
236.6503120789179206
 51
238.900312078917608
  0
ARC
  5
65
100
AcDbEntity
  8
0
 62
256
370
-1
  6
ByLayer
100
AcDbCircle
 10
67.8238497961807099
 20
32.621674538409053
 30
0.0
 40
11.1608015372597205
100
AcDbArc
 50
163.0349136620845059
 51
175.2819739417273013
  0
ARC
  5
66
100
AcDbEntity
  8
0
 62
256
370
-1
  6
ByLayer
100
AcDbCircle
 10
48.9834995574237126
 20
44.4974167165079564
 30
0.0
 40
11.1608015372601503
100
AcDbArc
 50
300.2686502161087105
 51
312.5157104957510796
  0
ARC
  5
67
100
AcDbEntity
  8
0
 62
256
370
-1
  6
ByLayer
100
AcDbCircle
 10
66.8336482562153833
 20
51.9333333333347582
 30
0.0
 40
18.750000000001581
100
AcDbArc
 50
245.650312078917807
 51
247.9003120789177217
  0
ARC
  5
68
100
AcDbEntity
  8
0
 62
256
370
-1
  6
ByLayer
100
AcDbCircle
 10
70.8326677847024655
 20
33.0143347522216573
 30
0.0
 40
11.1608015372602498
100
AcDbArc
 50
172.0349136620847048
 51
184.2819739417269034
  0
ARC
  5
69
100
AcDbEntity
  8
0
 62
256
370
-1
  6
ByLayer
100
AcDbCircle
 10
50.3664981465663502
 20
41.796586726673155
 30
0.0
 40
11.1608015372599603
100
AcDbArc
 50
309.2686502161085969
 51
321.5157104957509091
  0
ARC
  5
6A
100
AcDbEntity
  8
0
 62
256
370
-1
  6
ByLayer
100
AcDbCircle
 10
66.833648256216776
 20
51.933333333341551
 30
0.0
 40
18.7500000000084484
100
AcDbArc
 50
254.6503120789184607
 51
256.9003120789175227
  0
ARC
  5
6B
100
AcDbEntity
  8
0
 62
256
370
-1
  6
ByLayer
100
AcDbCircle
 10
73.7430166404469674
 20
33.8728434996577619
 30
0.0
 40
11.1608015372597809
100
AcDbArc
 50
181.0349136620843069
 51
193.2819739417271876
  0
ARC
  5
6C
100
AcDbEntity
  8
0
 62
256
370
-1
  6
ByLayer
100
AcDbCircle
 10
52.1549726227463566
 20
39.3453570802277568
 30
0.0
 40
11.1608015372599496
100
AcDbArc
 50
318.2686502161084832
 51
330.5157104957510228
  0
ARC
  5
6D
100
AcDbEntity
  8
0
 62
256
370
-1
  6
ByLayer
100
AcDbCircle
 10
66.8336482562147722
 20
51.9333333333337634
 30
0.0
 40
18.7500000000003411
100
AcDbArc
 50
263.650312078917807
 51
265.9003120789179206
  0
ARC
  5
6E
100
AcDbEntity
  8
0
 62
256
370
-1
  6
ByLayer
100
AcDbCircle
 10
76.4832339156937167
 20
35.1760614461283581
 30
0.0
 40
11.1608015372603795
100
AcDbArc
 50
190.0349136620849038
 51
202.2819739417269886
  0
ARC
  5
6F
100
AcDbEntity
  8
0
 62
256
370
-1
  6
ByLayer
100
AcDbCircle
 10
54.3048848087537408
 20
37.2040851862317368
 30
0.0
 40
11.1608015372599905
100
AcDbArc
 50
327.2686502161084832
 51
339.5157104957510796
  0
ARC
  5
70
100
AcDbEntity
  8
0
 62
256
370
-1
  6
ByLayer
100
AcDbCircle
 10
66.8336482562147012
 20
51.9333333333340477
 30
0.0
 40
18.7500000000007105
100
AcDbArc
 50
272.650312078917807
 51
274.9003120789175227
  0
ARC
  5
71
100
AcDbEntity
  8
0
 62
256
370
-1
  6
ByLayer
100
AcDbCircle
 10
78.985846366864422
 20
36.8918990406586431
 30
0.0
 40
11.1608015372599993
100
AcDbArc
 50
199.0349136620845911
 51
211.2819739417271876
  0
ARC
  5
72
100
AcDbEntity
  8
0
 62
256
370
-1
  6
ByLayer
100
AcDbCircle
 10
56.7632967314197714
 20
35.4254962651893379
 30
0.0
 40
11.1608015372598199
100
AcDbArc
 50
336.2686502161084263
 51
348.5157104957510796
  0
ARC
  5
73
100
AcDbEntity
  8
0
 62
256
370
-1
  6
ByLayer
100
AcDbCircle
 10
66.8336482562142749
 20
51.9333333333354403
 30
0.0
 40
18.7500000000021387
100
AcDbArc
 50
281.6503120789179206
 51
283.9003120789175227
  0
ARC
  5
74
100
AcDbEntity
  8
0
 62
256
370
-1
  6
ByLayer
100
AcDbCircle
 10
81.1892313697179873
 20
38.9781066671329484
 30
0.0
 40
11.1608015372599105
100
AcDbArc
 50
208.0349136620845059
 51
220.2819739417271876
  0
ARC
  5
75
100
AcDbEntity
  8
0
 62
256
370
-1
  6
ByLayer
100
AcDbCircle
 10
59.4696741302063714
 20
34.0533850791350403
 30
0.0
 40
11.1608015372601397
100
AcDbArc
 50
345.2686502161084832
 51
357.5157104957510796
  0
ARC
  5
76
100
AcDbEntity
  8
0
 62
256
370
-1
  6
ByLayer
100
AcDbCircle
 10
66.8336482562133796
 20
51.9333333333367477
 30
0.0
 40
18.7500000000036593
100
AcDbArc
 50
290.6503120789179775
 51
292.9003120789175796
  0
ARC
  5
77
100
AcDbEntity
  8
0
 62
256
370
-1
  6
ByLayer
100
AcDbCircle
 10
83.0391342728684094
 20
41.3833149700615479
 30
0.0
 40
11.1608015372599905
100
AcDbArc
 50
217.0349136620845911
 51
229.2819739417271023
  0
ARC
  5
78
100
AcDbEntity
  8
0
 62
256
370
-1
  6
ByLayer
100
AcDbCircle
 10
62.3573770116049104
 20
33.1215375592450414
 30
0.0
 40
11.1608015372597595
100
AcDbArc
 50
354.2686502161084263
 51
6.515710495751029
  0
ARC
  5
79
100
AcDbEntity
  8
0
 62
256
370
-1
  6
ByLayer
100
AcDbCircle
 10
66.8336482562193197
 20
51.9333333333257485
 30
0.0
 40
18.7499999999910898
100
AcDbArc
 50
299.6503120789171817
 51
301.9003120789182049
  0
ARC
  5
7A
100
AcDbEntity
  8
0
 62
256
370
-1
  6
ByLayer
100
AcDbCircle
 10
84.4900043273641188
 20
44.0482997385973363
 30
0.0
 40
11.1608015372599798
100
AcDbArc
 50
226.0349136620845059
 51
238.2819739417271023
  0
ARC
  5
7B
100
AcDbEntity
  8
0
 62
256
370
-1
  6
ByLayer
100
AcDbCircle
 10
65.3553005469377695
 20
32.6528988840839531
 30
0.0
 40
11.1608015372599105
100
AcDbArc
 50
3.2686502161085809
 51
15.5157104957511276
  0
ARC
  5
7C
100
AcDbEntity
  8
0
 62
256
370
-1
  6
ByLayer
100
AcDbCircle
 10
66.8336482562073968
 20
51.9333333333421479
 30
0.0
 40
18.7500000000114504
100
AcDbArc
 50
308.6503120789184891
 51
310.9003120789171817
  0
ARC
  5
7D
100
AcDbEntity
  8
0
 62
256
370
-1
  6
ByLayer
100
AcDbCircle
 10
85.5061162973019293
 20
46.9074402031616557
 30
0.0
 40
11.1608015372599603
100
AcDbArc
 50
235.0349136620846195
 51
247.2819739417270171
  0
ARC
  5
7E
100
AcDbEntity
  8
0
 62
256
370
-1
  6
ByLayer
100
AcDbCircle
 10
68.3896259092281724
 20
32.6590084931567617
 30
0.0
 40
11.1608015372596494
100
AcDbArc
 50
12.2686502161083695
 51
24.5157104957512111
  0
ARC
  5
7F
100
AcDbEntity
  8
0
 62
256
370
-1
  6
ByLayer
100
AcDbCircle
 10
66.8336482562104095
 20
51.9333333333371456
 30
0.0
 40
18.7500000000057483
100
AcDbArc
 50
317.6503120789182049
 51
319.9003120789175227
  0
ARC
  5
80
100
AcDbEntity
  8
0
 62
256
370
-1
  6
ByLayer
100
AcDbCircle
 10
86.0624501336997412
 20
49.8903348365740555
 30
0.0
 40
11.1608015372601805
100
AcDbArc
 50
244.0349136620847048
 51
256.2819739417270739
  0
ARC
  5
81
100
AcDbEntity
  8
0
 62
256
370
-1
  6
ByLayer
100
AcDbCircle
 10
71.3856379377072017
 20
33.1397159476113359
 30
0.0
 40
11.1608015372598093
100
AcDbArc
 50
21.2686502161085116
 51
33.5157104957513496
  0
ARC
  5
82
100
AcDbEntity
  8
0
 62
256
370
-1
  6
ByLayer
100
AcDbCircle
 10
66.8336482562128538
 20
51.9333333333345593
 30
0.0
 40
18.7500000000022311
100
AcDbArc
 50
326.6503120789179775
 51
328.9003120789176933
  0
ARC
  5
83
100
AcDbEntity
  8
0
 62
256
370
-1
  6
ByLayer
100
AcDbCircle
 10
86.1453070511390138
 20
52.92353487329936
 30
0.0
 40
11.1608015372597098
100
AcDbArc
 50
253.0349136620845059
 51
265.2819739417271876
  0
ARC
  5
84
100
AcDbEntity
  8
0
 62
256
370
-1
  6
ByLayer
100
AcDbCircle
 10
74.2695648730401956
 20
34.0831846345423628
 30
0.0
 40
11.1608015372601006
100
AcDbArc
 50
30.2686502161085116
 51
42.5157104957509375
  0
ARC
  5
85
100
AcDbEntity
  8
0
 62
256
370
-1
  6
ByLayer
100
AcDbCircle
 10
66.8336482562133085
 20
51.9333333333340477
 30
0.0
 40
18.750000000001581
100
AcDbArc
 50
335.650312078917807
 51
337.9003120789175796
  0
ARC
  5
86
100
AcDbEntity
  8
0
 62
256
370
-1
  6
ByLayer
100
AcDbCircle
 10
85.7526468373264095
 20
55.9323528618206467
 30
0.0
 40
11.1608015372598093
100
AcDbArc
 50
262.0349136620844774
 51
274.2819739417271876
  0
ARC
  5
87
100
AcDbEntity
  8
0
 62
256
370
-1
  6
ByLayer
100
AcDbCircle
 10
76.9703948628749117
 20
35.4661832236850501
 30
0.0
 40
11.1608015372599603
100
AcDbArc
 50
39.2686502161084334
 51
51.5157104957511081
  0
ARC
  5
88
100
AcDbEntity
  8
0
 62
256
370
-1
  6
ByLayer
100
AcDbCircle
 10
66.8336482562128822
 20
51.9333333333338487
 30
0.0
 40
18.7500000000019007
100
AcDbArc
 50
344.6503120789179775
 51
346.9003120789175227
  0
ARC
  5
89
100
AcDbEntity
  8
0
 62
256
370
-1
  6
ByLayer
100
AcDbCircle
 10
84.8941380898902764
 20
58.8427017175660581
 30
0.0
 40
11.1608015372602196
100
AcDbArc
 50
271.0349136620847048
 51
283.2819739417270171
  0
ARC
  5
8A
100
AcDbEntity
  8
0
 62
256
370
-1
  6
ByLayer
100
AcDbCircle
 10
79.4216245093202815
 20
37.2546576998648504
 30
0.0
 40
11.1608015372601006
100
AcDbArc
 50
48.268650216108469
 51
60.5157104957508665
  0
ARC
  5
8B
100
AcDbEntity
  8
0
 62
256
370
-1
  6
ByLayer
100
AcDbCircle
 10
66.8336482562143885
 20
51.9333333333334508
 30
0.0
 40
18.7500000000003411
100
AcDbArc
 50
353.650312078917807
 51
355.9003120789176933
  0
ARC
  5
8C
100
AcDbEntity
  8
0
 62
256
370
-1
  6
ByLayer
100
AcDbCircle
 10
83.5909201434197939
 20
61.58291899281204
 30
0.0
 40
11.1608015372601006
100
AcDbArc
 50
280.0349136620845911
 51
292.2819739417270739
  0
ARC
  5
8D
100
AcDbEntity
  8
0
 62
256
370
-1
  6
ByLayer
100
AcDbCircle
 10
81.5628964033162163
 20
39.4045698858721494
 30
0.0
 40
11.1608015372601805
100
AcDbArc
 50
57.2686502161086608
 51
69.5157104957509659
  0
ARC
  5
8E
100
AcDbEntity
  8
0
 62
256
370
-1
  6
ByLayer
100
AcDbCircle
 10
66.8336482562182113
 20
51.9333333333336498
 30
0.0
 40
18.7499999999965112
100
AcDbArc
 50
2.6503120789173722
 51
4.9003120789177483
  0
ARC
  5
8F
100
AcDbEntity
  8
0
 62
256
370
-1
  6
ByLayer
100
AcDbCircle
 10
81.8750825488895089
 20
64.0855314439829442
 30
0.0
 40
11.1608015372599301
100
AcDbArc
 50
289.0349136620845911
 51
301.2819739417270739
  0
ARC
  5
90
100
AcDbEntity
  8
0
 62
256
370
-1
  6
ByLayer
100
AcDbCircle
 10
83.3414853243586435
 20
41.862981808538251
 30
0.0
 40
11.1608015372599905
100
AcDbArc
 50
66.2686502161084974
 51
78.5157104957509233
  0
ARC
  5
91
100
AcDbEntity
  8
0
 62
256
370
-1
  6
ByLayer
100
AcDbCircle
 10
66.8336482562126548
 20
51.933333333332854
 30
0.0
 40
18.7500000000021387
100
AcDbArc
 50
11.6503120789177608
 51
13.9003120789173593
  0
ARC
  5
92
100
AcDbEntity
  8
0
 62
256
370
-1
  6
ByLayer
100
AcDbCircle
 10
79.7888749224151184
 20
66.2889164468366516
 30
0.0
 40
11.1608015372599105
100
AcDbArc
 50
298.0349136620845911
 51
310.2819739417271876
  0
ARC
  5
93
100
AcDbEntity
  8
0
 62
256
370
-1
  6
ByLayer
100
AcDbCircle
 10
84.7135965104131401
 20
44.5693592073253626
 30
0.0
 40
11.1608015372597702
100
AcDbArc
 50
75.2686502161084405
 51
87.5157104957511649
  0
ARC
  5
94
100
AcDbEntity
  8
0
 62
256
370
-1
  6
ByLayer
100
AcDbCircle
 10
66.833648256211319
 20
51.9333333333320581
 30
0.0
 40
18.7500000000036593
100
AcDbArc
 50
20.6503120789179988
 51
22.9003120789174801
  0
ARC
  5
95
100
AcDbEntity
  8
0
 62
256
370
-1
  6
ByLayer
100
AcDbCircle
 10
77.3836666194865472
 20
68.1388193499870454
 30
0.0
 40
11.1608015372600207
100
AcDbArc
 50
307.0349136620845911
 51
319.2819739417270739
  0
ARC
  5
96
100
AcDbEntity
  8
0
 62
256
370
-1
  6
ByLayer
100
AcDbCircle
 10
85.6454440303030538
 20
47.4570620887233474
 30
0.0
 40
11.1608015372599692
100
AcDbArc
 50
84.2686502161085542
 51
96.5157104957510938
  0
ARC
  5
97
100
AcDbEntity
  8
0
 62
256
370
-1
  6
ByLayer
100
AcDbCircle
 10
66.8336482562227161
 20
51.9333333333381404
 30
0.0
 40
18.7499999999907203
100
AcDbArc
 50
29.6503120789172065
 51
31.9003120789183576
  0
ARC
  5
98
100
AcDbEntity
  8
0
 62
256
370
-1
  6
ByLayer
100
AcDbCircle
 10
74.7186818509506736
 20
69.58968940448284
 30
0.0
 40
11.1608015372600793
100
AcDbArc
 50
316.0349136620845911
 51
328.2819739417270739
  0
ARC
  5
99
100
AcDbEntity
  8
0
 62
256
370
-1
  6
ByLayer
100
AcDbCircle
 10
86.1140827054641704
 20
50.4549856240563486
 30
0.0
 40
11.1608015372599105
100
AcDbArc
 50
93.2686502161085116
 51
105.5157104957509944
  0
ARC
  5
9A
100
AcDbEntity
  8
0
 62
256
370
-1
  6
ByLayer
100
AcDbCircle
 10
66.8336482562059189
 20
51.9333333333260612
 30
0.0
 40
18.7500000000114788
100
AcDbArc
 50
38.650312078918553
 51
40.9003120789170822
  0
ARC
  5
9B
100
AcDbEntity
  8
0
 62
256
370
-1
  6
ByLayer
100
AcDbCircle
 10
71.8595413863861552
 20
70.6058013744206505
 30
0.0
 40
11.1608015372602303
100
AcDbArc
 50
325.0349136620847048
 51
337.2819739417269034
  0
ARC
  5
9C
100
AcDbEntity
  8
0
 62
256
370
-1
  6
ByLayer
100
AcDbCircle
 10
86.1079730963913619
 20
53.489310986346652
 30
0.0
 40
11.16080153725974
100
AcDbArc
 50
102.2686502161082984
 51
114.5157104957510938
  0
ARC
  5
9D
100
AcDbEntity
  8
0
 62
256
370
-1
  6
ByLayer
100
AcDbCircle
 10
66.8336482562109779
 20
51.9333333333290454
 30
0.0
 40
18.7500000000057483
100
AcDbArc
 50
47.6503120789182617
 51
49.9003120789174233
  0
ARC
  5
9E
100
AcDbEntity
  8
0
 62
256
370
-1
  6
ByLayer
100
AcDbCircle
 10
68.8766467529742812
 20
71.1621352108182634
 30
0.0
 40
11.1608015372598697
100
AcDbArc
 50
334.0349136620845911
 51
346.281973941727415
  0
ARC
  5
9F
100
AcDbEntity
  8
0
 62
256
370
-1
  6
ByLayer
100
AcDbCircle
 10
85.6272656419368161
 20
56.4853230148257524
 30
0.0
 40
11.1608015372598697
100
AcDbArc
 50
111.2686502161084974
 51
123.5157104957510796
  0
ARC
  5
A0
100
AcDbEntity
  8
0
 62
256
370
-1
  6
ByLayer
100
AcDbCircle
 10
66.8336482562135217
 20
51.9333333333314613
 30
0.0
 40
18.7500000000022702
100
AcDbArc
 50
56.650312078917942
 51
58.9003120789176009
  0
ARC
  5
A1
100
AcDbEntity
  8
0
 62
256
370
-1
  6
ByLayer
100
AcDbCircle
 10
65.8434467162486214
 20
71.2449921282576497
 30
0.0
 40
11.1608015372598501
100
AcDbArc
 50
343.0349136620844774
 51
355.2819739417270739
  0
ARC
  5
A2
100
AcDbEntity
  8
0
 62
256
370
-1
  6
ByLayer
100
AcDbCircle
 10
84.6837969550056755
 20
59.36924995015886
 30
0.0
 40
11.1608015372600402
100
AcDbArc
 50
120.2686502161084974
 51
132.5157104957509944
  0
ARC
  5
A3
100
AcDbEntity
  8
0
 62
256
370
-1
  6
ByLayer
100
AcDbCircle
 10
66.8336482562140901
 20
51.9333333333318592
 30
0.0
 40
18.750000000001581
100
AcDbArc
 50
65.6503120789178212
 51
67.9003120789177075
  0
ARC
  5
A4
100
AcDbEntity
  8
0
 62
256
370
-1
  6
ByLayer
100
AcDbCircle
 10
62.8346287277271998
 20
70.8523319144450454
 30
0.0
 40
11.1608015372600509
100
AcDbArc
 50
352.0349136620845911
 51
4.2819739417269362
  0
ARC
  5
A5
100
AcDbEntity
  8
0
 62
256
370
-1
  6
ByLayer
100
AcDbCircle
 10
83.300798365863244
 20
62.0700799399934624
 30
0.0
 40
11.1608015372601503
100
AcDbArc
 50
129.2686502161085969
 51
141.5157104957509944
  0
ARC
  5
A6
100
AcDbEntity
  8
0
 62
256
370
-1
  6
ByLayer
100
AcDbCircle
 10
66.8336482562126832
 20
51.9333333333251517
 30
0.0
 40
18.7500000000084484
100
AcDbArc
 50
74.6503120789184607
 51
76.900312078917537
  0
ARC
  5
A7
100
AcDbEntity
  8
0
 62
256
370
-1
  6
ByLayer
100
AcDbCircle
 10
59.9242798719826766
 20
69.9938231670090545
 30
0.0
 40
11.1608015372596103
100
AcDbArc
 50
1.0349136620843591
 51
13.2819739417274505
  0
ARC
  5
A8
100
AcDbEntity
  8
0
 62
256
370
-1
  6
ByLayer
100
AcDbCircle
 10
81.5123238896830458
 20
64.5213095864390596
 30
0.0
 40
11.1608015372599105
100
AcDbArc
 50
138.2686502161083126
 51
150.5157104957509944
  0
ARC
  5
A9
100
AcDbEntity
  8
0
 62
256
370
-1
  6
ByLayer
100
AcDbCircle
 10
66.8336482562147012
 20
51.9333333333330529
 30
0.0
 40
18.7500000000003411
100
AcDbArc
 50
83.6503120789177785
 51
85.9003120789178496
  0
ARC
  5
AA
100
AcDbEntity
  8
0
 62
256
370
-1
  6
ByLayer
100
AcDbCircle
 10
57.1840625967360197
 20
68.6906052205384583
 30
0.0
 40
11.1608015372601006
100
AcDbArc
 50
10.0349136620846995
 51
22.2819739417271805
  0
ARC
  5
AB
100
AcDbEntity
  8
0
 62
256
370
-1
  6
ByLayer
100
AcDbCircle
 10
79.3624117036758889
 20
66.6625814804348522
 30
0.0
 40
11.1608015372601805
100
AcDbArc
 50
147.2686502161087105
 51
159.5157104957509944
  0
ARC
  5
AC
100
AcDbEntity
  8
0
 62
256
370
-1
  6
ByLayer
100
AcDbCircle
 10
66.8336482562144454
 20
51.9333333333368614
 30
0.0
 40
18.7499999999964189
100
AcDbArc
 50
92.6503120789173948
 51
94.9003120789178212
  0
ARC
  5
AD
100
AcDbEntity
  8
0
 62
256
370
-1
  6
ByLayer
100
AcDbCircle
 10
54.6814501455652575
 20
66.9747676260082585
 30
0.0
 40
11.1608015372597507
100
AcDbArc
 50
19.0349136620844206
 51
31.2819739417272515
  0
ARC
  5
AE
100
AcDbEntity
  8
0
 62
256
370
-1
  6
ByLayer
100
AcDbCircle
 10
76.9039997810098441
 20
68.4411704014772511
 30
0.0
 40
11.1608015372599905
100
AcDbArc
 50
156.2686502161085969
 51
168.5157104957511081
  0
ARC
  5
AF
100
AcDbEntity
  8
0
 62
256
370
-1
  6
ByLayer
100
AcDbCircle
 10
66.8336482562145164
 20
51.9333333333342466
 30
0.0
 40
18.7499999999990514
100
AcDbArc
 50
101.6503120789176933
 51
103.9003120789179064
  0
ARC
  5
B0
100
AcDbEntity
  8
0
 62
256
370
-1
  6
ByLayer
100
AcDbCircle
 10
52.478065142711479
 20
64.8885599995337543
 30
0.0
 40
11.1608015372599105
100
AcDbArc
 50
28.0349136620844384
 51
40.2819739417271308
  0
ARC
  5
B1
100
AcDbEntity
  8
0
 62
256
370
-1
  6
ByLayer
100
AcDbCircle
 10
74.1976223822228462
 20
69.8132815875317476
 30
0.0
 40
11.1608015372598803
100
AcDbArc
 50
165.2686502161085116
 51
177.5157104957511081
  0
ARC
  5
B2
100
AcDbEntity
  8
0
 62
256
370
-1
  6
ByLayer
100
AcDbCircle
 10
66.8336482562160796
 20
51.9333333333299549
 30
0.0
 40
18.7500000000036593
100
AcDbArc
 50
110.6503120789180059
 51
112.9003120789174943
  0
ARC
  5
B3
100
AcDbEntity
  8
0
 62
256
370
-1
  6
ByLayer
100
AcDbCircle
 10
50.6281622395610569
 20
62.4833516966051548
 30
0.0
 40
11.1608015372600207
100
AcDbArc
 50
37.0349136620845272
 51
49.2819739417271379
  0
ARC
  5
B4
100
AcDbEntity
  8
0
 62
256
370
-1
  6
ByLayer
100
AcDbCircle
 10
71.3099195008247762
 20
70.7451291074216613
 30
0.0
 40
11.1608015372599692
100
AcDbArc
 50
174.2686502161085969
 51
186.5157104957511933
  0
ARC
  5
B5
100
AcDbEntity
  8
0
 62
256
370
-1
  6
ByLayer
100
AcDbCircle
 10
66.8336482562155112
 20
51.9333333333320581
 30
0.0
 40
18.7500000000015312
100
AcDbArc
 50
119.6503120789177075
 51
121.9003120789175938
  0
ARC
  5
B6
100
AcDbEntity
  8
0
 62
256
370
-1
  6
ByLayer
100
AcDbCircle
 10
49.1772921850653262
 20
59.818366928069338
 30
0.0
 40
11.1608015372599905
100
AcDbArc
 50
46.0349136620844988
 51
58.2819739417270526
  0
ARC
  5
B7
100
AcDbEntity
  8
0
 62
256
370
-1
  6
ByLayer
100
AcDbCircle
 10
68.311995965491576
 20
71.2137677825827495
 30
0.0
 40
11.1608015372597702
100
AcDbArc
 50
183.2686502161083126
 51
195.5157104957511933
  0
ARC
  5
B8
100
AcDbEntity
  8
0
 62
256
370
-1
  6
ByLayer
100
AcDbCircle
 10
66.8336482562220624
 20
51.9333333333245548
 30
0.0
 40
18.7500000000114397
100
AcDbArc
 50
128.6503120789184891
 51
130.9003120789170964
  0
ARC
  5
B9
100
AcDbEntity
  8
0
 62
256
370
-1
  6
ByLayer
100
AcDbCircle
 10
48.1611802151275796
 20
56.9592264635051606
 30
0.0
 40
11.1608015372598608
100
AcDbArc
 50
55.0349136620845769
 51
67.2819739417273297
  0
ARC
  5
BA
100
AcDbEntity
  8
0
 62
256
370
-1
  6
ByLayer
100
AcDbCircle
 10
65.2776706032014431
 20
71.207658173509941
 30
0.0
 40
11.1608015372598004
100
AcDbArc
 50
192.2686502161083126
 51
204.5157104957511933
  0
ARC
  5
BB
100
AcDbEntity
  8
0
 62
256
370
-1
  6
ByLayer
100
AcDbCircle
 10
62.2816585747223712
 20
70.7269507190554521
 30
0.0
 40
11.1608015372599301
100
AcDbArc
 50
201.2686502161083979
 51
213.5157104957511081
  0
ARC
  5
BC
100
AcDbEntity
  8
0
 62
256
370
-1
  6
ByLayer
100
AcDbCircle
 10
66.8336482562189929
 20
51.9333333333296423
 30
0.0
 40
18.7500000000056488
100
AcDbArc
 50
137.6503120789182049
 51
139.9003120789172954
  0
ARC
  5
BD
100
AcDbEntity
  8
0
 62
256
370
-1
  6
ByLayer
100
AcDbCircle
 10
47.6048463787298672
 20
53.976331830093045
 30
0.0
 40
11.1608015372597702
100
AcDbArc
 50
64.0349136620844348
 51
76.281973941727145
  0
ARC
  5
BE
100
AcDbEntity
  8
0
 62
256
370
-1
  6
ByLayer
100
AcDbCircle
 10
66.833648256208761
 20
51.9333333333364635
 30
0.0
 40
20.9999999999932712
100
AcDbArc
 50
151.1503120789176933
 51
153.4003120789180912
  0
ARC
  5
BF
100
AcDbEntity
  8
0
 62
256
370
-1
  6
ByLayer
100
AcDbCircle
 10
66.833648256206601
 20
51.9333333333360372
 30
0.0
 40
20.9999999999914202
100
AcDbArc
 50
160.150312078917608
 51
162.4003120789182901
  0
ARC
  5
C0
100
AcDbEntity
  8
0
 62
256
370
-1
  6
ByLayer
100
AcDbCircle
 10
66.8336482562209113
 20
51.9333333333322571
 30
0.0
 40
21.0000000000062812
100
AcDbArc
 50
169.1503120789182049
 51
171.4003120789174943
  0
ARC
  5
C1
100
AcDbEntity
  8
0
 62
256
370
-1
  6
ByLayer
100
AcDbCircle
 10
66.8336482562071978
 20
51.9333333333334508
 30
0.0
 40
20.9999999999924611
100
AcDbArc
 50
178.1503120789172101
 51
180.4003120789184038
  0
ARC
  5
C2
100
AcDbEntity
  8
0
 62
256
370
-1
  6
ByLayer
100
AcDbCircle
 10
66.8336482562114611
 20
51.933333333332854
 30
0.0
 40
20.9999999999967102
100
AcDbArc
 50
187.1503120789178922
 51
189.4003120789178922
  0
ARC
  5
C3
100
AcDbEntity
  8
0
 62
256
370
-1
  6
ByLayer
100
AcDbCircle
 10
66.8336482562159233
 20
51.9333333333336498
 30
0.0
 40
21.0000000000012292
100
AcDbArc
 50
196.1503120789180912
 51
198.4003120789176933
  0
ARC
  5
C4
100
AcDbEntity
  8
0
 62
256
370
-1
  6
ByLayer
100
AcDbCircle
 10
66.8336482562151701
 20
51.9333333333336498
 30
0.0
 40
21.0000000000005187
100
AcDbArc
 50
205.1503120789180059
 51
207.4003120789178922
  0
ARC
  5
C5
100
AcDbEntity
  8
0
 62
256
370
-1
  6
ByLayer
100
AcDbCircle
 10
66.8336482562073115
 20
51.933333333328136
 30
0.0
 40
20.9999999999909299
100
AcDbArc
 50
214.150312078917807
 51
216.4003120789184038
  0
ARC
  5
C6
100
AcDbEntity
  8
0
 62
256
370
-1
  6
ByLayer
100
AcDbCircle
 10
66.8336482562151275
 20
51.9333333333337634
 30
0.0
 40
21.00000000000054
100
AcDbArc
 50
223.150312078917807
 51
225.4003120789176933
  0
ARC
  5
C7
100
AcDbEntity
  8
0
 62
256
370
-1
  6
ByLayer
100
AcDbCircle
 10
66.8336482562161791
 20
51.9333333333352414
 30
0.0
 40
21.0000000000024407
100
AcDbArc
 50
232.1503120789178354
 51
234.4003120789177785
  0
ARC
  5
C8
100
AcDbEntity
  8
0
 62
256
370
-1
  6
ByLayer
100
AcDbCircle
 10
66.8336482562156959
 20
51.9333333333350424
 30
0.0
 40
21.0000000000019504
100
AcDbArc
 50
241.1503120789178922
 51
243.4003120789174943
  0
ARC
  5
C9
100
AcDbEntity
  8
0
 62
256
370
-1
  6
ByLayer
100
AcDbCircle
 10
66.8336482562148007
 20
51.9333333333335361
 30
0.0
 40
21.0000000000002309
100
AcDbArc
 50
250.1503120789178922
 51
252.4003120789177785
  0
ARC
  5
CA
100
AcDbEntity
  8
0
 62
256
370
-1
  6
ByLayer
100
AcDbCircle
 10
66.8336482562162644
 20
51.9333333333422615
 30
0.0
 40
21.0000000000090594
100
AcDbArc
 50
259.1503120789184891
 51
261.4003120789174091
  0
ARC
  5
CB
100
AcDbEntity
  8
0
 62
256
370
-1
  6
ByLayer
100
AcDbCircle
 10
66.8336482562146443
 20
51.9333333333255496
 30
0.0
 40
20.9999999999921982
100
AcDbArc
 50
268.1503120789175227
 51
270.4003120789180912
  0
ARC
  5
CC
100
AcDbEntity
  8
0
 62
256
370
-1
  6
ByLayer
100
AcDbCircle
 10
66.8336482562156959
 20
51.9333333333264591
 30
0.0
 40
20.9999999999930012
100
AcDbArc
 50
277.1503120789175227
 51
279.4003120789183185
  0
ARC
  5
CD
100
AcDbEntity
  8
0
 62
256
370
-1
  6
ByLayer
100
AcDbCircle
 10
66.8336482562145164
 20
51.9333333333341614
 30
0.0
 40
21.0000000000007603
100
AcDbArc
 50
286.150312078917807
 51
288.4003120789176933
  0
ARC
  5
CE
100
AcDbEntity
  8
0
 62
256
370
-1
  6
ByLayer
100
AcDbCircle
 10
66.8336482562164633
 20
51.9333333333298413
 30
0.0
 40
20.9999999999960814
100
AcDbArc
 50
295.1503120789175227
 51
297.4003120789180912
  0
ARC
  5
CF
100
AcDbEntity
  8
0
 62
256
370
-1
  6
ByLayer
100
AcDbCircle
 10
66.8336482562104379
 20
51.9333333333393625
 30
0.0
 40
21.000000000007379
100
AcDbArc
 50
304.1503120789187165
 51
306.4003120789175227
  0
ARC
  5
D0
100
AcDbEntity
  8
0
 62
256
370
-1
  6
ByLayer
100
AcDbCircle
 10
66.8336482562142749
 20
51.9333333333338487
 30
0.0
 40
21.0000000000006892
100
AcDbArc
 50
313.1503120789179206
 51
315.400312078917807
  0
ARC
  5
D1
100
AcDbEntity
  8
0
 62
256
370
-1
  6
ByLayer
100
AcDbCircle
 10
66.8336482562075673
 20
51.933333333338652
 30
0.0
 40
21.0000000000089102
100
AcDbArc
 50
322.1503120789184891
 51
324.4003120789174091
  0
ARC
  5
D2
100
AcDbEntity
  8
0
 62
256
370
-1
  6
ByLayer
100
AcDbCircle
 10
66.8336482562078515
 20
51.9333333333369467
 30
0.0
 40
21.0000000000077804
100
AcDbArc
 50
331.1503120789182049
 51
333.4003120789174091
  0
ARC
  5
D3
100
AcDbEntity
  8
0
 62
256
370
-1
  6
ByLayer
100
AcDbCircle
 10
66.833648256222574
 20
51.9333333333307507
 30
0.0
 40
20.9999999999917186
100
AcDbArc
 50
340.1503120789171817
 51
342.4003120789182049
  0
ARC
  5
D4
100
AcDbEntity
  8
0
 62
256
370
-1
  6
ByLayer
100
AcDbCircle
 10
66.8336482562077379
 20
51.9333333333345593
 30
0.0
 40
21.0000000000070983
100
AcDbArc
 50
349.1503120789183754
 51
351.4003120789174091
  0
ARC
  5
D5
100
AcDbEntity
  8
0
 62
256
370
-1
  6
ByLayer
100
AcDbCircle
 10
66.8336482562143317
 20
51.9333333333333371
 30
0.0
 40
21.0000000000004015
100
AcDbArc
 50
358.1503120789183185
 51
0.4003120789174908
  0
ARC
  5
D6
100
AcDbEntity
  8
0
 62
256
370
-1
  6
ByLayer
100
AcDbCircle
 10
66.8336482562177991
 20
51.9333333333337634
 30
0.0
 40
20.9999999999968985
100
AcDbArc
 50
7.1503120789179331
 51
9.4003120789179881
  0
ARC
  5
D7
100
AcDbEntity
  8
0
 62
256
370
-1
  6
ByLayer
100
AcDbCircle
 10
66.8336482562155823
 20
51.9333333333336498
 30
0.0
 40
20.9999999999991296
100
AcDbArc
 50
16.1503120789177714
 51
18.4003120789179313
  0
ARC
  5
D8
100
AcDbEntity
  8
0
 62
256
370
-1
  6
ByLayer
100
AcDbCircle
 10
66.8336482562151275
 20
51.9333333333335361
 30
0.0
 40
20.9999999999995595
100
AcDbArc
 50
25.1503120789181907
 51
27.400312078917981
  0
ARC
  5
D9
100
AcDbEntity
  8
0
 62
256
370
-1
  6
ByLayer
100
AcDbCircle
 10
66.8336482562197176
 20
51.9333333333368614
 30
0.0
 40
20.9999999999938609
100
AcDbArc
 50
34.1503120789176222
 51
36.400312078918212
  0
ARC
  5
DA
100
AcDbEntity
  8
0
 62
256
370
-1
  6
ByLayer
100
AcDbCircle
 10
66.8336482562140759
 20
51.9333333333327403
 30
0.0
 40
21.0000000000009202
100
AcDbArc
 50
43.150312078917878
 51
45.400312078917743
  0
ARC
  5
DB
100
AcDbEntity
  8
0
 62
256
370
-1
  6
ByLayer
100
AcDbCircle
 10
66.8336482562118874
 20
51.933333333329557
 30
0.0
 40
21.0000000000047393
100
AcDbArc
 50
52.150312078918077
 51
54.4003120789174517
  0
ARC
  5
DC
100
AcDbEntity
  8
0
 62
256
370
-1
  6
ByLayer
100
AcDbCircle
 10
66.8336482562177565
 20
51.9333333333390499
 30
0.0
 40
20.9999999999935412
100
AcDbArc
 50
61.1503120789177004
 51
63.4003120789181907
  0
ARC
  5
DD
100
AcDbEntity
  8
0
 62
256
370
-1
  6
ByLayer
100
AcDbCircle
 10
66.8336482562169181
 20
51.9333333333397604
 30
0.0
 40
20.9999999999932001
100
AcDbArc
 50
70.1503120789174233
 51
72.4003120789181338
  0
ARC
  5
DE
100
AcDbEntity
  8
0
 62
256
370
-1
  6
ByLayer
100
AcDbCircle
 10
66.8336482562148433
 20
51.9333333333341614
 30
0.0
 40
20.9999999999992504
100
AcDbArc
 50
79.1503120789177217
 51
81.4003120789177785
  0
ARC
  5
DF
100
AcDbEntity
  8
0
 62
256
370
-1
  6
ByLayer
100
AcDbCircle
 10
66.8336482562147296
 20
51.9333333333329392
 30
0.0
 40
21.0000000000003801
100
AcDbArc
 50
88.1503120789182049
 51
90.4003120789177501
  0
ARC
  5
E0
100
AcDbEntity
  8
0
 62
256
370
-1
  6
ByLayer
100
AcDbCircle
 10
66.8336482562144738
 20
51.9333333333352414
 30
0.0
 40
20.9999999999980709
100
AcDbArc
 50
97.1503120789176222
 51
99.4003120789180201
  0
ARC
  5
E1
100
AcDbEntity
  8
0
 62
256
370
-1
  6
ByLayer
100
AcDbCircle
 10
66.8336482562142749
 20
51.9333333333347582
 30
0.0
 40
20.9999999999985292
100
AcDbArc
 50
106.150312078917807
 51
108.400312078917807
  0
ARC
  5
E2
100
AcDbEntity
  8
0
 62
256
370
-1
  6
ByLayer
100
AcDbCircle
 10
66.8336482562133511
 20
51.9333333333361509
 30
0.0
 40
20.9999999999968594
100
AcDbArc
 50
115.150312078917608
 51
117.4003120789179917
  0
ARC
  5
E3
100
AcDbEntity
  8
0
 62
256
370
-1
  6
ByLayer
100
AcDbCircle
 10
66.833648256218936
 20
51.9333333333275391
 30
0.0
 40
21.0000000000072014
100
AcDbArc
 50
124.1503120789187022
 51
126.4003120789175938
  0
ARC
  5
E4
100
AcDbEntity
  8
0
 62
256
370
-1
  6
ByLayer
100
AcDbCircle
 10
66.8336482562151986
 20
51.933333333332854
 30
0.0
 40
21.0000000000006892
100
AcDbArc
 50
133.150312078917807
 51
135.400312078917807
  0
ARC
  5
E5
100
AcDbEntity
  8
0
 62
256
370
-1
  6
ByLayer
100
AcDbCircle
 10
66.8336482562195613
 20
51.933333333329756
 30
0.0
 40
21.000000000006029
100
AcDbArc
 50
142.1503120789184038
 51
144.4003120789174943
  0
LINE
  5
E6
100
AcDbEntity
100
AcDbLine
  8
Original Nut
 62
256
370
-1
  6
ByLayer
 10
61.5423957740416725
 20
46.7742655393194582
 30
0.0
 11
59.720138245666071
 21
53.9361585037257498
 31
0.0
  0
LINE
  5
E7
100
AcDbEntity
100
AcDbLine
  8
Original Nut
 62
256
370
-1
  6
ByLayer
 10
68.6559057845903453
 20
44.7714403689270455
 30
0.0
 11
61.5423957740416867
 21
46.7742655393195434
 31
0.0
  0
LINE
  5
E8
100
AcDbEntity
100
AcDbLine
  8
Original Nut
 62
256
370
-1
  6
ByLayer
 10
73.9471582667633811
 20
49.9305081629409528
 30
0.0
 11
68.6559057845903169
 21
44.7714403689270455
 31
0.0
  0
LINE
  5
E9
100
AcDbEntity
100
AcDbLine
  8
Original Nut
 62
256
370
-1
  6
ByLayer
 10
72.1249007383877796
 20
57.0924011273471592
 30
0.0
 11
73.9471582667633811
 21
49.9305081629409528
 31
0.0
  0
LINE
  5
EA
100
AcDbEntity
100
AcDbLine
  8
Original Nut
 62
256
370
-1
  6
ByLayer
 10
65.0113907278390855
 20
59.0952262977395435
 30
0.0
 11
72.1249007383877654
 21
57.0924011273471592
 31
0.0
  0
LINE
  5
EB
100
AcDbEntity
100
AcDbLine
  8
Original Nut
 62
256
370
-1
  6
ByLayer
 10
59.7201382456660497
 20
53.9361585037257498
 30
0.0
 11
65.0113907278390712
 21
59.0952262977395435
 31
0.0
  0
MTEXT
  5
EC
100
AcDbEntity
100
AcDbMText
  8
Notes
 62
256
370
-1
  6
ByLayer
 10
46.8336482562147296
 20
91.9333333333333371
 30
0.0
 40
3.0
 41
100.0
 71
1
 72
2
  1
Driven\~Gear\PMaterial:\~1/4"\~or\~5mm\~acrylic\PPress\~fit\~to\~bolt.
  7
standard
 50
0.0
 73
1
 44
1.0
  0
MTEXT
  5
ED
100
AcDbEntity
100
AcDbMText
  8
Text
 62
256
370
-1
  6
ByLayer
 10
60.0
 20
64.0
 30
0.0
 40
2.0
 41
100.0
 71
1
 72
2
  1
Driven\~Gear
  7
standard
 50
0.0
 73
1
 44
1.0
  0
LINE
  5
EE
100
AcDbEntity
100
AcDbLine
  8
0
 62
256
370
-1
  6
ByLayer
 10
59.8535165583638502
 20
53.8986055317809161
 30
0.0
 11
65.0455580564961195
 21
58.9609408046569357
 31
0.0
  0
LINE
  5
EF
100
AcDbEntity
100
AcDbLine
  8
0
 62
256
370
-1
  6
ByLayer
 10
65.0455580564961195
 20
58.9609408046569357
 30
0.0
 11
72.0256897543470416
 21
56.9956686062093993
 31
0.0
  0
LINE
  5
F0
100
AcDbEntity
100
AcDbLine
  8
0
 62
256
370
-1
  6
ByLayer
 10
72.0256897543470416
 20
56.9956686062093993
 30
0.0
 11
73.8137799540655948
 21
49.9680611348858079
 31
0.0
  0
LINE
  5
F1
100
AcDbEntity
100
AcDbLine
  8
0
 62
256
370
-1
  6
ByLayer
 10
73.8137799540655948
 20
49.9680611348858079
 30
0.0
 11
68.6217384559332686
 21
44.9057258620096604
 31
0.0
  0
LINE
  5
F2
100
AcDbEntity
100
AcDbLine
  8
0
 62
256
370
-1
  6
ByLayer
 10
68.6217384559332686
 20
44.9057258620096604
 30
0.0
 11
61.6416067580823892
 21
46.8709980604573104
 31
0.0
  0
LINE
  5
F3
100
AcDbEntity
100
AcDbLine
  8
0
 62
256
370
-1
  6
ByLayer
 10
61.6416067580823892
 20
46.8709980604573104
 30
0.0
 11
59.8535165583638502
 21
53.8986055317809161
 31
0.0
  0
ENDSEC
  0
SECTION
  2
OBJECTS
  0
DICTIONARY
  5
C
100
AcDbDictionary
280
0
281
1
  3
ACAD_GROUP
350
D
  3
ACAD_LAYOUT
350
1A
  3
ACAD_MLINESTYLE
350
17
  3
ACAD_PLOTSETTINGS
350
19
  3
ACAD_PLOTSTYLENAME
350
E
  3
AcDbVariableDictionary
350
F4
  0
DICTIONARY
  5
D
100
AcDbDictionary
280
0
281
1
  0
ACDBDICTIONARYWDFLT
  5
E
100
AcDbDictionary
281
1
  3
Normal
350
F
100
AcDbDictionaryWithDefault
340
F
  0
ACDBPLACEHOLDER
  5
F
  0
DICTIONARY
  5
17
100
AcDbDictionary
280
0
281
1
  3
Standard
350
18
  0
MLINESTYLE
  5
18
100
AcDbMlineStyle
  2
STANDARD
 70
0
  3

 62
256
 51
90.0
 52
90.0
 71
2
 49
0.5
 62
256
  6
BYLAYER
 49
-0.5
 62
256
  6
BYLAYER
  0
DICTIONARY
  5
19
100
AcDbDictionary
280
0
281
1
  0
DICTIONARY
  5
1A
100
AcDbDictionary
281
1
  3
Layout1
350
1E
  3
Layout2
350
26
  3
Model
350
22
  0
LAYOUT
  5
1E
100
AcDbPlotSettings
  1

  2
C:\Program Files\AutoCAD 2002\plotters\DWF ePlot (optimized for plotting).pc3
  4

  6

 40
0.0
 41
0.0
 42
0.0
 43
0.0
 44
0.0
 45
0.0
 46
0.0
 47
0.0
 48
0.0
 49
0.0
140
0.0
141
0.0
142
1.0
143
1.0
 70
688
 72
0
 73
0
 74
5
  7

 75
16
147
1.0
148
0.0
149
0.0
100
AcDbLayout
  1
Layout1
 70
1
 71
1
 10
0.0
 20
0.0
 11
420.0
 21
297.0
 12
0.0
 22
0.0
 32
0.0
 14
100000000000000000000.0
 24
100000000000000000000.0
 34
100000000000000000000.0
 15
-100000000000000000000.0
 25
-100000000000000000000.0
 35
-100000000000000000000.0
146
0.0
 13
0.0
 23
0.0
 33
0.0
 16
1.0
 26
0.0
 36
0.0
 17
0.0
 27
1.0
 37
0.0
 76
0
330
1B
  0
LAYOUT
  5
22
100
AcDbPlotSettings
  1

  2
C:\Program Files\AutoCAD 2002\plotters\DWF ePlot (optimized for plotting).pc3
  4

  6

 40
0.0
 41
0.0
 42
0.0
 43
0.0
 44
0.0
 45
0.0
 46
0.0
 47
0.0
 48
0.0
 49
0.0
140
0.0
141
0.0
142
1.0
143
1.0
 70
1712
 72
0
 73
0
 74
0
  7

 75
0
147
1.0
148
0.0
149
0.0
100
AcDbLayout
  1
Model
 70
1
 71
0
 10
0.0
 20
0.0
 11
12.0
 21
9.0
 12
0.0
 22
0.0
 32
0.0
 14
0.0
 24
0.0
 34
0.0
 15
0.0
 25
0.0
 35
0.0
146
0.0
 13
0.0
 23
0.0
 33
0.0
 16
1.0
 26
0.0
 36
0.0
 17
0.0
 27
1.0
 37
0.0
 76
0
330
1F
  0
LAYOUT
  5
26
100
AcDbPlotSettings
  1

  2
C:\Program Files\AutoCAD 2002\plotters\DWF ePlot (optimized for plotting).pc3
  4

  6

 40
0.0
 41
0.0
 42
0.0
 43
0.0
 44
0.0
 45
0.0
 46
0.0
 47
0.0
 48
0.0
 49
0.0
140
0.0
141
0.0
142
1.0
143
1.0
 70
688
 72
0
 73
0
 74
5
  7

 75
16
147
1.0
148
0.0
149
0.0
100
AcDbLayout
  1
Layout2
 70
1
 71
2
 10
0.0
 20
0.0
 11
12.0
 21
9.0
 12
0.0
 22
0.0
 32
0.0
 14
0.0
 24
0.0
 34
0.0
 15
0.0
 25
0.0
 35
0.0
146
0.0
 13
0.0
 23
0.0
 33
0.0
 16
1.0
 26
0.0
 36
0.0
 17
0.0
 27
1.0
 37
0.0
 76
0
330
23
  0
DICTIONARY
  5
F4
100
AcDbDictionary
281
1
  3
DIMASSOC
350
F6
  3
HIDETEXT
350
F5
  0
DICTIONARYVAR
  5
F5
100
DictionaryVariables
280
0
  1
2
  0
DICTIONARYVAR
  5
F6
100
DictionaryVariables
280
0
  1
1
  0
ENDSEC
  0
EOF
