999
dxflib 2.2.0.0
  0
SECTION
  2
HEADER
  9
$ACADVER
  1
AC1015
  9
$HANDSEED
  5
FFFF
  9
$DIMLIM
 70
0
  9
$DIMLUNIT
 70
2
  9
$DIMTIX
 70
0
  9
$AUNITS
 70
0
  9
$QTEXTMODE
 70
0
  9
$USERR1
 40
0.0
  9
$DIMALTU
 70
2
  9
$USERR2
 40
0.0
  9
$UCSORGBOTTOM
 10
0.0
 20
0.0
 30
0.0
  9
$USERR3
 40
0.0
  9
$USERR4
 40
0.0
  9
$USERR5
 40
0.0
  9
$LIMMAX
 10
420.0
 20
297.0
  9
$PELEVATION
 40
0.0
  9
$DIMALTZ
 70
0
  9
$DIMADEC
 70
0
  9
$JOINSTYLE
280
0
  9
$TILEMODE
 70
1
  9
$DIMATFIT
 70
3
  9
$PEXTMIN
 10
0.0
 20
0.0
 30
0.0
  9
$TDUSRTIMER
 40
0.0000187731
  9
$DWGCODEPAGE
  3
ANSI_1252
  9
$UCSORTHOVIEW
 70
0
  9
$DIMSOXD
 70
0
  9
$DIMTZIN
 70
0
  9
$SPLINETYPE
 70
6
  9
$DIMLFAC
 40
1.0
  9
$DIMSE1
 70
0
  9
$FILLETRAD
 40
0.0
  9
$DIMSE2
 70
0
  9
$PSTYLEMODE
290
1
  9
$TEXTSTYLE
  7
Standard
  9
$DIMTSZ
 40
0.0
  9
$PUCSXDIR
 10
1.0
 20
0.0
 30
0.0
  9
$DIMTXSTY
  7
Standard
  9
$PLIMMAX
 10
215.9000000000000057
 20
279.3999999999999773
  9
$DIMTM
 40
0.0
  9
$UCSORG
 10
0.0
 20
0.0
 30
0.0
  9
$DIMTP
 40
0.0
  9
$PSLTSCALE
 70
1
  9
$EXTNAMES
290
1
  9
$ANGBASE
 50
0.0
  9
$PUCSYDIR
 10
0.0
 20
1.0
 30
0.0
  9
$DIMASZ
 40
1.8
  9
$PUCSORTHOVIEW
 70
0
  9
$UNITMODE
 70
0
  9
$MEASUREMENT
 70
1
  9
$INSBASE
 10
0.0
 20
0.0
 30
0.0
  9
$EXTMAX
 10
420.0
 20
297.0
 30
0.0
  9
$ELEVATION
 40
0.0
  9
$TDCREATE
 40
2454670.4520583911798894
  9
$DIMDEC
 70
4
  9
$CELTYPE
  6
ByLayer
  9
$GRIDUNIT
 10
0.0
 20
0.0
  9
$MENU
  1
.
  9
$ANGDIR
 70
0
  9
$DIMALTTD
 70
2
  9
$TREEDEPTH
 70
3020
  9
$PROXYGRAPHICS
 70
1
  9
$LTSCALE
 40
1.0
  9
$DIMTMOVE
 70
0
  9
$DIMAZIN
 70
0
  9
$TDUPDATE
 40
2454670.4520583911798894
  9
$DIMTOLJ
 70
1
  9
$DIMCEN
 40
0.09
  9
$DIMTVP
 40
0.0
  9
$TRACEWID
 40
0.05
  9
$CMLSTYLE
  2
Standard
  9
$DISPSILH
 70
0
  9
$DIMSTYLE
  2
Standard
  9
$SKETCHINC
 40
0.1
  9
$FILLMODE
 70
1
  9
$PLINEGEN
 70
0
  9
$DIMLWD
 70
-2
  9
$THICKNESS
 40
0.0
  9
$PUCSORG
 10
0.0
 20
0.0
 30
0.0
  9
$DIMLWE
 70
-2
  9
$CELTSCALE
 40
1.0
  9
$DIMALTTZ
 70
0
  9
$INSUNITS
 70
4
  9
$UCSORGBACK
 10
0.0
 20
0.0
 30
0.0
  9
$PLINEWID
 40
0.0
  9
$PEXTMAX
 10
420.0
 20
297.0
 30
0.0
  9
$DIMJUST
 70
0
  9
$UCSYDIR
 10
0.0
 20
1.0
 30
0.0
  9
$PUCSORGBACK
 10
0.0
 20
0.0
 30
0.0
  9
$GRIDMODE
 70
1
  9
$PUCSORGBOTTOM
 10
0.0
 20
0.0
 30
0.0
  9
$PDSIZE
 40
0.0
  9
$DIMUPT
 70
0
  9
$DIMTAD
 70
0
  9
$MAXACTVP
 70
64
  9
$UCSXDIR
 10
1.0
 20
0.0
 30
0.0
  9
$DIMSAH
 70
0
  9
$TDUCREATE
 40
2454670.4103917251341045
  9
$DIMFRAC
 70
0
  9
$USERI1
 70
0
  9
$USERI2
 70
0
  9
$CELWEIGHT
370
-1
  9
$USERI3
 70
0
  9
$UCSORGRIGHT
 10
0.0
 20
0.0
 30
0.0
  9
$LWDISPLAY
290
0
  9
$SKPOLY
 70
0
  9
$USERI4
 70
0
  9
$USERI5
 70
0
  9
$UCSORGTOP
 10
0.0
 20
0.0
 30
0.0
  9
$LIMMIN
 10
0.0
 20
0.0
  9
$ACADMAINTVER
 70
18
  9
$MIRRTEXT
 70
0
  9
$TDUUPDATE
 40
2454670.4103917251341045
  9
$TEXTSIZE
 40
0.2
  9
$DIMGAP
 40
0.09
  9
$LUPREC
 70
4
  9
$CECOLOR
 62
256
  9
$DIMSD1
 70
0
  9
$DIMSD2
 70
0
  9
$WORLDVIEW
 70
1
  9
$PUCSORGRIGHT
 10
0.0
 20
0.0
 30
0.0
  9
$PLIMCHECK
 70
0
  9
$DIMTFAC
 40
1.0
  9
$CMLJUST
 70
0
  9
$USRTIMER
 70
1
  9
$SURFU
 70
6
  9
$SURFV
 70
6
  9
$DIMASO
 70
1
  9
$DIMDLE
 40
0.0
  9
$EXTMIN
 10
0.0
 20
0.0
 30
0.0
  9
$UCSORGLEFT
 10
0.0
 20
0.0
 30
0.0
  9
$OLESTARTUP
290
0
  9
$PUCSORGFRONT
 10
0.0
 20
0.0
 30
0.0
  9
$DIMDLI
 40
0.38
  9
$LUNITS
 70
2
  9
$DIMCLRD
 70
0
  9
$SHADEDIF
 70
70
  9
$DIMCLRE
 70
0
  9
$SPLINESEGS
 70
8
  9
$PUCSORGLEFT
 10
0.0
 20
0.0
 30
0.0
  9
$DIMALTRND
 40
0.0
  9
$DIMRND
 40
0.0
  9
$DIMALT
 70
0
  9
$FINGERPRINTGUID
  2
{957EB8BD-B1CB-432B-9497-5194FA736EDC}
  9
$DIMCLRT
 70
0
  9
$PUCSORGTOP
 10
0.0
 20
0.0
 30
0.0
  9
$DIMTOH
 70
1
  9
$UCSORGFRONT
 10
0.0
 20
0.0
 30
0.0
  9
$VISRETAIN
 70
1
  9
$SHADEDGE
 70
3
  9
$DIMTOL
 70
0
  9
$SURFTYPE
 70
6
  9
$VERSIONGUID
  2
{F0539855-98D3-4F5B-8BA8-A3C366CB493D}
  9
$CHAMFERA
 40
0.0
  9
$SURFTAB1
 70
6
  9
$CHAMFERB
 40
0.0
  9
$SURFTAB2
 70
6
  9
$CHAMFERC
 40
0.0
  9
$AUPREC
 70
0
  9
$CHAMFERD
 40
0.0
  9
$DIMTDEC
 70
4
  9
$PDMODE
 70
0
  9
$PLIMMIN
 10
0.0
 20
0.0
  9
$SPLFRAME
 70
0
  9
$XEDIT
290
1
  9
$DIMDSEP
 70
46
  9
$LIMCHECK
 70
0
  9
$PINSBASE
 10
0.0
 20
0.0
 30
0.0
  9
$ORTHOMODE
 70
0
  9
$PSVPSCALE
 40
0.0
  9
$CLAYER
  8
drawings
  9
$DIMSHO
 70
1
  9
$DIMTOFL
 70
0
  9
$DIMTXT
 40
0.35
  9
$DIMEXE
 40
0.18
  9
$TDINDWG
 40
0.0000187731
  9
$REGENMODE
 70
1
  9
$ATTMODE
 70
1
  9
$CMLSCALE
 40
1.0
  9
$DIMTIH
 70
1
  9
$DIMZIN
 70
0
  9
$CEPSNTYPE
380
0
  9
$DIMSCALE
 40
1.0
  9
$DIMALTD
 70
2
  9
$DIMAUNIT
 70
0
  9
$DIMEXO
 40
0.0625
  9
$DIMALTF
 40
25.3999999999999986
  9
$ENDCAPS
280
0
  9
$CLAYER
  8
drawings
  0
ENDSEC
  0
SECTION
  2
TABLES
  0
TABLE
  2
VPORT
  5
8
100
AcDbSymbolTable
 70
1
  0
VPORT
  5
30
100
AcDbSymbolTableRecord
100
AcDbViewportTableRecord
  2
*Active
 70
0
 10
0.0
 20
0.0
 11
1.0
 21
1.0
 12
286.3055555555554861
 22
148.5
 13
0.0
 23
0.0
 14
10.0
 24
10.0
 15
10.0
 25
10.0
 16
0.0
 26
0.0
 36
1.0
 17
0.0
 27
0.0
 37
0.0
 40
297.0
 41
1.92798353909465
 42
50.0
 43
0.0
 44
0.0
 50
0.0
 51
0.0
 71
0
 72
100
 73
1
 74
3
 75
1
 76
1
 77
0
 78
0
281
0
 65
1
110
0.0
120
0.0
130
0.0
111
1.0
121
0.0
131
0.0
112
0.0
122
1.0
132
0.0
 79
0
146
0.0
  0
ENDTAB
  0
TABLE
  2
LTYPE
  5
5
100
AcDbSymbolTable
 70
21
  0
LTYPE
  5
14
100
AcDbSymbolTableRecord
100
AcDbLinetypeTableRecord
  2
ByBlock
 70
0
  3

 72
65
 73
0
 40
0.0
  0
LTYPE
  5
15
100
AcDbSymbolTableRecord
100
AcDbLinetypeTableRecord
  2
ByLayer
 70
0
  3

 72
65
 73
0
 40
0.0
  0
LTYPE
  5
16
100
AcDbSymbolTableRecord
100
AcDbLinetypeTableRecord
  2
CONTINUOUS
 70
0
  3
Solid line
 72
65
 73
0
 40
0.0
  0
LTYPE
  5
31
100
AcDbSymbolTableRecord
100
AcDbLinetypeTableRecord
  2
DOT
 70
0
  3
Dot . . . . . . . . . . . . . . . . . . . . . .
 72
65
 73
2
 40
6.3499999999999996
 49
0.0
 74
0
 49
-6.3499999999999996
 74
0
  0
LTYPE
  5
32
100
AcDbSymbolTableRecord
100
AcDbLinetypeTableRecord
  2
DOT2
 70
0
  3
Dot (.5x) .....................................
 72
65
 73
2
 40
3.1749999999999998
 49
0.0
 74
0
 49
-3.1749999999999998
 74
0
  0
LTYPE
  5
33
100
AcDbSymbolTableRecord
100
AcDbLinetypeTableRecord
  2
DOTX2
 70
0
  3
Dot (2x) .  .  .  .  .  .  .  .  .  .  .  .  .
 72
65
 73
2
 40
12.6999999999999993
 49
0.0
 74
0
 49
-12.6999999999999993
 74
0
  0
LTYPE
  5
34
100
AcDbSymbolTableRecord
100
AcDbLinetypeTableRecord
  2
DASHED
 70
0
  3
Dashed __ __ __ __ __ __ __ __ __ __ __ __ __ _
 72
65
 73
2
 40
19.0500000000000007
 49
12.6999999999999993
 74
0
 49
-6.3499999999999996
 74
0
  0
LTYPE
  5
35
100
AcDbSymbolTableRecord
100
AcDbLinetypeTableRecord
  2
DASHED2
 70
0
  3
Dashed (.5x) _ _ _ _ _ _ _ _ _ _ _ _ _ _ _ _ _
 72
65
 73
2
 40
9.5250000000000004
 49
6.3499999999999996
 74
0
 49
-3.1749999999999998
 74
0
  0
LTYPE
  5
36
100
AcDbSymbolTableRecord
100
AcDbLinetypeTableRecord
  2
DASHEDX2
 70
0
  3
Dashed (2x) ____  ____  ____  ____  ____  ___
 72
65
 73
2
 40
38.1000000000000014
 49
25.3999999999999986
 74
0
 49
-12.6999999999999993
 74
0
  0
LTYPE
  5
37
100
AcDbSymbolTableRecord
100
AcDbLinetypeTableRecord
  2
DASHDOT
 70
0
  3
Dash dot __ . __ . __ . __ . __ . __ . __ . __
 72
65
 73
4
 40
25.3999999999999986
 49
12.6999999999999993
 74
0
 49
-6.3499999999999996
 74
0
 49
0.0
 74
0
 49
-6.3499999999999996
 74
0
  0
LTYPE
  5
38
100
AcDbSymbolTableRecord
100
AcDbLinetypeTableRecord
  2
DASHDOT2
 70
0
  3
Dash dot (.5x) _._._._._._._._._._._._._._._.
 72
65
 73
4
 40
12.6999999999999993
 49
6.3499999999999996
 74
0
 49
-3.1749999999999998
 74
0
 49
0.0
 74
0
 49
-3.1749999999999998
 74
0
  0
LTYPE
  5
39
100
AcDbSymbolTableRecord
100
AcDbLinetypeTableRecord
  2
DASHDOTX2
 70
0
  3
Dash dot (2x) ____  .  ____  .  ____  .  ___
 72
65
 73
4
 40
50.7999999999999972
 49
25.3999999999999986
 74
0
 49
-12.6999999999999993
 74
0
 49
0.0
 74
0
 49
-12.6999999999999993
 74
0
  0
LTYPE
  5
3A
100
AcDbSymbolTableRecord
100
AcDbLinetypeTableRecord
  2
DIVIDE
 70
0
  3
Divide ____ . . ____ . . ____ . . ____ . . ____
 72
65
 73
6
 40
31.75
 49
12.6999999999999993
 74
0
 49
-6.3499999999999996
 74
0
 49
0.0
 74
0
 49
-6.3499999999999996
 74
0
 49
0.0
 74
0
 49
-6.3499999999999996
 74
0
  0
LTYPE
  5
3B
100
AcDbSymbolTableRecord
100
AcDbLinetypeTableRecord
  2
DIVIDE2
 70
0
  3
Divide (.5x) __..__..__..__..__..__..__..__.._
 72
65
 73
6
 40
15.875
 49
6.3499999999999996
 74
0
 49
-3.1749999999999998
 74
0
 49
0.0
 74
0
 49
-3.1749999999999998
 74
0
 49
0.0
 74
0
 49
-3.1749999999999998
 74
0
  0
LTYPE
  5
3C
100
AcDbSymbolTableRecord
100
AcDbLinetypeTableRecord
  2
DIVIDEX2
 70
0
  3
Divide (2x) ________  .  .  ________  .  .  _
 72
65
 73
6
 40
63.5
 49
25.3999999999999986
 74
0
 49
-12.6999999999999993
 74
0
 49
0.0
 74
0
 49
-12.6999999999999993
 74
0
 49
0.0
 74
0
 49
-12.6999999999999993
 74
0
  0
LTYPE
  5
3D
100
AcDbSymbolTableRecord
100
AcDbLinetypeTableRecord
  2
CENTER
 70
0
  3
Center ____ _ ____ _ ____ _ ____ _ ____ _ ____
 72
65
 73
4
 40
50.7999999999999972
 49
31.75
 74
0
 49
-6.3499999999999996
 74
0
 49
6.3499999999999996
 74
0
 49
-6.3499999999999996
 74
0
  0
LTYPE
  5
3E
100
AcDbSymbolTableRecord
100
AcDbLinetypeTableRecord
  2
CENTER2
 70
0
  3
Center (.5x) ___ _ ___ _ ___ _ ___ _ ___ _ ___
 72
65
 73
4
 40
28.5749999999999993
 49
19.0500000000000007
 74
0
 49
-3.1749999999999998
 74
0
 49
3.1749999999999998
 74
0
 49
-3.1749999999999998
 74
0
  0
LTYPE
  5
3F
100
AcDbSymbolTableRecord
100
AcDbLinetypeTableRecord
  2
CENTERX2
 70
0
  3
Center (2x) ________  __  ________  __  _____
 72
65
 73
4
 40
101.5999999999999943
 49
63.5
 74
0
 49
-12.6999999999999993
 74
0
 49
12.6999999999999993
 74
0
 49
-12.6999999999999993
 74
0
  0
LTYPE
  5
40
100
AcDbSymbolTableRecord
100
AcDbLinetypeTableRecord
  2
BORDER
 70
0
  3
Border __ __ . __ __ . __ __ . __ __ . __ __ .
 72
65
 73
6
 40
44.4500000000000028
 49
12.6999999999999993
 74
0
 49
-6.3499999999999996
 74
0
 49
12.6999999999999993
 74
0
 49
-6.3499999999999996
 74
0
 49
0.0
 74
0
 49
-6.3499999999999996
 74
0
  0
LTYPE
  5
41
100
AcDbSymbolTableRecord
100
AcDbLinetypeTableRecord
  2
BORDER2
 70
0
  3
Border (.5x) __.__.__.__.__.__.__.__.__.__.__.
 72
65
 73
6
 40
22.2250000000000014
 49
6.3499999999999996
 74
0
 49
-3.1749999999999998
 74
0
 49
6.3499999999999996
 74
0
 49
-3.1749999999999998
 74
0
 49
0.0
 74
0
 49
-3.1749999999999998
 74
0
  0
LTYPE
  5
42
100
AcDbSymbolTableRecord
100
AcDbLinetypeTableRecord
  2
BORDERX2
 70
0
  3
Border (2x) ____  ____  .  ____  ____  .  ___
 72
65
 73
6
 40
88.9000000000000057
 49
25.3999999999999986
 74
0
 49
-12.6999999999999993
 74
0
 49
25.3999999999999986
 74
0
 49
-12.6999999999999993
 74
0
 49
0.0
 74
0
 49
-12.6999999999999993
 74
0
  0
ENDTAB
  0
TABLE
  2
LAYER
  5
2
100
AcDbSymbolTable
 70
6
  0
LAYER
  5
10
100
AcDbSymbolTableRecord
100
AcDbLayerTableRecord
  2
0
 70
0
 62
7
420
16777215
  6
CONTINUOUS
370
0
390
F
  0
LAYER
  5
43
100
AcDbSymbolTableRecord
100
AcDbLayerTableRecord
  2
Notes
 70
0
 62
7
420
16777215
  6
CONTINUOUS
370
0
390
F
  0
LAYER
  5
44
100
AcDbSymbolTableRecord
100
AcDbLayerTableRecord
  2
Original Nut
 70
0
 62
5
420
255
  6
CONTINUOUS
370
0
390
F
  0
LAYER
  5
45
100
AcDbSymbolTableRecord
100
AcDbLayerTableRecord
  2
Text
 70
0
 62
4
420
65535
  6
CONTINUOUS
370
0
390
F
  0
LAYER
  5
46
100
AcDbSymbolTableRecord
100
AcDbLayerTableRecord
  2
gear1
 70
0
 62
7
420
0
  6
CONTINUOUS
370
0
390
F
  0
LAYER
  5
47
100
AcDbSymbolTableRecord
100
AcDbLayerTableRecord
  2
drawings
 70
0
 62
7
420
0
  6
CONTINUOUS
370
0
390
F
  0
ENDTAB
  0
TABLE
  2
STYLE
  5
3
100
AcDbSymbolTable
 70
1
  0
STYLE
  5
11
100
AcDbSymbolTableRecord
100
AcDbTextStyleTableRecord
  2
Standard
 70
0
 40
0.0
 41
0.75
 50
0.0
 71
0
 42
2.5
  3
txt
  4

  0
ENDTAB
  0
TABLE
  2
VIEW
  5
6
100
AcDbSymbolTable
 70
0
  0
ENDTAB
  0
TABLE
  2
UCS
  5
7
100
AcDbSymbolTable
 70
0
  0
ENDTAB
  0
TABLE
  2
APPID
  5
9
100
AcDbSymbolTable
 70
1
  0
APPID
  5
12
100
AcDbSymbolTableRecord
100
AcDbRegAppTableRecord
  2
ACAD
 70
0
  0
ENDTAB
  0
TABLE
  2
DIMSTYLE
  5
A
100
AcDbSymbolTable
 70
1
100
AcDbDimStyleTable
 71
0
  0
DIMSTYLE
105
27
100
AcDbSymbolTableRecord
100
AcDbDimStyleTableRecord
  2
Standard
 41
1.8
 42
0.0625
 43
3.75
 44
0.18
 70
0
 73
0
 74
0
 77
1
 78
8
140
0.35
141
2.5
143
0.03937007874016
147
0.09
171
3
172
1
271
2
272
2
274
3
278
44
283
0
284
8
340
11
  0
ENDTAB
  0
TABLE
  2
BLOCK_RECORD
  5
1
100
AcDbSymbolTable
 70
1
  0
BLOCK_RECORD
  5
1F
100
AcDbSymbolTableRecord
100
AcDbBlockTableRecord
  2
*Model_Space
340
22
  0
BLOCK_RECORD
  5
1B
100
AcDbSymbolTableRecord
100
AcDbBlockTableRecord
  2
*Paper_Space
340
1E
  0
BLOCK_RECORD
  5
23
100
AcDbSymbolTableRecord
100
AcDbBlockTableRecord
  2
*Paper_Space0
340
26
  0
ENDTAB
  0
ENDSEC
  0
SECTION
  2
BLOCKS
  0
BLOCK
  5
20
100
AcDbEntity
  8
0
100
AcDbBlockBegin
  2
*Model_Space
 70
0
 10
0.0
 20
0.0
 30
0.0
  3
*Model_Space
  1

  0
ENDBLK
  5
21
100
AcDbEntity
  8
0
100
AcDbBlockEnd
  0
BLOCK
  5
1C
100
AcDbEntity
 67
1
  8
0
100
AcDbBlockBegin
  2
*Paper_Space
 70
0
 10
0.0
 20
0.0
 30
0.0
  3
*Paper_Space
  1

  0
ENDBLK
  5
1D
100
AcDbEntity
 67
1
  8
0
100
AcDbBlockEnd
  0
BLOCK
  5
24
100
AcDbEntity
  8
0
100
AcDbBlockBegin
  2
*Paper_Space0
 70
0
 10
0.0
 20
0.0
 30
0.0
  3
*Paper_Space0
  1

  0
ENDBLK
  5
25
100
AcDbEntity
  8
0
100
AcDbBlockEnd
  0
ENDSEC
  0
SECTION
  2
ENTITIES
  0
LINE
  5
48
100
AcDbEntity
100
AcDbLine
  8
Original Nut
 62
256
370
-1
  6
ByLayer
 10
61.5423957740416725
 20
46.7742655393194582
 30
0.0
 11
59.720138245666071
 21
53.9361585037257498
 31
0.0
  0
LINE
  5
49
100
AcDbEntity
100
AcDbLine
  8
Original Nut
 62
256
370
-1
  6
ByLayer
 10
68.6559057845903453
 20
44.7714403689270455
 30
0.0
 11
61.5423957740416867
 21
46.7742655393195434
 31
0.0
  0
LINE
  5
4A
100
AcDbEntity
100
AcDbLine
  8
Original Nut
 62
256
370
-1
  6
ByLayer
 10
73.9471582667633811
 20
49.9305081629409528
 30
0.0
 11
68.6559057845903169
 21
44.7714403689270455
 31
0.0
  0
LINE
  5
4B
100
AcDbEntity
100
AcDbLine
  8
Original Nut
 62
256
370
-1
  6
ByLayer
 10
72.1249007383877796
 20
57.0924011273471592
 30
0.0
 11
73.9471582667633811
 21
49.9305081629409528
 31
0.0
  0
LINE
  5
4C
100
AcDbEntity
100
AcDbLine
  8
Original Nut
 62
256
370
-1
  6
ByLayer
 10
65.0113907278390855
 20
59.0952262977395435
 30
0.0
 11
72.1249007383877654
 21
57.0924011273471592
 31
0.0
  0
LINE
  5
4D
100
AcDbEntity
100
AcDbLine
  8
Original Nut
 62
256
370
-1
  6
ByLayer
 10
59.7201382456660497
 20
53.9361585037257498
 30
0.0
 11
65.0113907278390712
 21
59.0952262977395435
 31
0.0
  0
MTEXT
  5
4E
100
AcDbEntity
100
AcDbMText
  8
Notes
 62
256
370
-1
  6
ByLayer
 10
46.8336482562147296
 20
91.9333333333333371
 30
0.0
 40
3.0
 41
100.0
 71
1
 72
2
  1
Driven\~Gear\PMaterial:\~1/4"\~or\~5mm\~acrylic\PPress\~fit\~to\~bolt.
  7
standard
 50
0.0
 73
1
 44
1.0
  0
LINE
  5
4F
100
AcDbEntity
100
AcDbLine
  8
drawings
 62
256
370
-1
  6
ByLayer
 10
65.0113907278390712
 20
59.0952262977395435
 30
0.0
 11
68.6559057845903169
 21
44.7714403689270526
 31
0.0
  0
LINE
  5
50
100
AcDbEntity
100
AcDbLine
  8
drawings
 62
256
370
-1
  6
ByLayer
 10
72.1249007383877796
 20
57.0924011273471521
 30
0.0
 11
61.5423957740416512
 21
46.7742655393195577
 31
0.0
  0
LINE
  5
51
100
AcDbEntity
100
AcDbLine
  8
drawings
 62
256
370
-1
  6
ByLayer
 10
73.9471582667633811
 20
49.9305081629409528
 30
0.0
 11
59.7201382456660639
 21
53.936158503725764
 31
0.0
  0
CIRCLE
  5
52
100
AcDbEntity
100
AcDbCircle
  8
drawings
 62
7
420
0
370
-1
  6
ByLayer
 10
66.8336482562146728
 20
51.9333333333333727
 30
0.0
 40
14.9973944028560719
  0
MTEXT
  5
53
100
AcDbEntity
100
AcDbMText
  8
Text
 62
256
370
-1
  6
ByLayer
 10
60.0
 20
62.0
 30
0.0
 40
2.0
 41
100.0
 71
1
 72
2
  1
Driven\~Gear
  7
standard
 50
0.0
 73
1
 44
1.0
  0
LINE
  5
54
100
AcDbEntity
100
AcDbLine
  8
0
 62
256
370
0
  6
ByLayer
 10
59.8535165583638502
 20
53.8986055317809161
 30
0.0
 11
65.0455580564961195
 21
58.9609408046569357
 31
0.0
  0
LINE
  5
55
100
AcDbEntity
100
AcDbLine
  8
0
 62
256
370
0
  6
ByLayer
 10
65.0455580564961195
 20
58.9609408046569357
 30
0.0
 11
72.0256897543470416
 21
56.9956686062093993
 31
0.0
  0
LINE
  5
56
100
AcDbEntity
100
AcDbLine
  8
0
 62
256
370
0
  6
ByLayer
 10
72.0256897543470416
 20
56.9956686062093993
 30
0.0
 11
73.8137799540655948
 21
49.9680611348858079
 31
0.0
  0
LINE
  5
57
100
AcDbEntity
100
AcDbLine
  8
0
 62
256
370
0
  6
ByLayer
 10
73.8137799540655948
 20
49.9680611348858079
 30
0.0
 11
68.6217384559332686
 21
44.9057258620096604
 31
0.0
  0
LINE
  5
58
100
AcDbEntity
100
AcDbLine
  8
0
 62
256
370
0
  6
ByLayer
 10
68.6217384559332686
 20
44.9057258620096604
 30
0.0
 11
61.6416067580823892
 21
46.8709980604573104
 31
0.0
  0
LINE
  5
59
100
AcDbEntity
100
AcDbLine
  8
0
 62
256
370
0
  6
ByLayer
 10
61.6416067580823892
 20
46.8709980604573104
 30
0.0
 11
59.8535165583638502
 21
53.8986055317809161
 31
0.0
  0
LINE
  5
5A
100
AcDbEntity
100
AcDbLine
  8
0
 62
7
420
0
370
0
  6
ByLayer
 10
80.272396685926438
 20
53.1927086397381501
 30
0.0
 11
80.8651103754788352
 21
53.2483046330669154
 31
0.0
  0
LINE
  5
5B
100
AcDbEntity
100
AcDbLine
  8
0
 62
7
420
0
370
0
  6
ByLayer
 10
80.8651103754788352
 20
53.2483046330669154
 30
0.0
 11
81.7848065358544574
 21
53.1100208267066591
 31
0.0
  0
LINE
  5
5C
100
AcDbEntity
100
AcDbLine
  8
0
 62
7
420
0
370
0
  6
ByLayer
 10
81.7848065358544574
 20
53.1100208267066591
 30
0.0
 11
83.3224225627470929
 21
52.4544081388163193
 31
0.0
  0
LINE
  5
5D
100
AcDbEntity
100
AcDbLine
  8
0
 62
7
420
0
370
0
  6
ByLayer
 10
83.3224225627470929
 20
52.4544081388163193
 30
0.0
 11
83.3224225627470929
 21
51.4122111437016898
 31
0.0
  0
LINE
  5
5E
100
AcDbEntity
100
AcDbLine
  8
0
 62
7
420
0
370
0
  6
ByLayer
 10
83.3224225627470929
 20
51.4122111437016898
 30
0.0
 11
81.7848065358544574
 21
50.7565984558113428
 31
0.0
  0
LINE
  5
5F
100
AcDbEntity
100
AcDbLine
  8
0
 62
7
420
0
370
0
  6
ByLayer
 10
81.7848065358544574
 20
50.7565984558113428
 30
0.0
 11
80.8651103754788352
 21
50.6183146494510936
 31
0.0
  0
LINE
  5
60
100
AcDbEntity
100
AcDbLine
  8
0
 62
7
420
0
370
0
  6
ByLayer
 10
80.8651103754788352
 20
50.6183146494510936
 30
0.0
 11
80.272396685926438
 21
50.673910642779866
 31
0.0
  0
LINE
  5
61
100
AcDbEntity
100
AcDbLine
  8
0
 62
7
420
0
370
0
  6
ByLayer
 10
80.272396685926438
 20
50.673910642779866
 30
0.0
 11
80.0038382551768592
 21
48.9782211601089656
 31
0.0
  0
LINE
  5
62
100
AcDbEntity
100
AcDbLine
  8
0
 62
7
420
0
370
0
  6
ByLayer
 10
80.0038382551768592
 20
48.9782211601089656
 30
0.0
 11
80.5845369196861299
 21
48.8479473704442029
 31
0.0
  0
LINE
  5
63
100
AcDbEntity
100
AcDbLine
  8
0
 62
7
420
0
370
0
  6
ByLayer
 10
80.5845369196861299
 20
48.8479473704442029
 30
0.0
 11
81.4165978546757998
 21
48.4321518779076285
 31
0.0
  0
LINE
  5
64
100
AcDbEntity
100
AcDbLine
  8
0
 62
7
420
0
370
0
  6
ByLayer
 10
81.4165978546757998
 20
48.4321518779076285
 30
0.0
 11
82.6764684725205967
 21
47.3334173201819794
 31
0.0
  0
LINE
  5
65
100
AcDbEntity
100
AcDbLine
  8
0
 62
7
420
0
370
0
  6
ByLayer
 10
82.6764684725205967
 20
47.3334173201819794
 30
0.0
 11
82.3544334140518828
 21
46.3425767524523593
 31
0.0
  0
LINE
  5
66
100
AcDbEntity
100
AcDbLine
  8
0
 62
7
420
0
370
0
  6
ByLayer
 10
82.3544334140518828
 20
46.3425767524523593
 30
0.0
 11
80.6893691400657502
 21
46.1941627290625902
 31
0.0
  0
LINE
  5
67
100
AcDbEntity
100
AcDbLine
  8
0
 62
7
420
0
370
0
  6
ByLayer
 10
80.6893691400657502
 20
46.1941627290625902
 30
0.0
 11
79.7720294070693541
 21
46.346817153120675
 31
0.0
  0
LINE
  5
68
100
AcDbEntity
100
AcDbLine
  8
0
 62
7
420
0
370
0
  6
ByLayer
 10
79.7720294070693541
 20
46.346817153120675
 30
0.0
 11
79.2254885055023834
 21
46.5826310095758487
 31
0.0
  0
LINE
  5
69
100
AcDbEntity
100
AcDbLine
  8
0
 62
7
420
0
370
0
  6
ByLayer
 10
79.2254885055023834
 20
46.5826310095758487
 30
0.0
 11
78.4459617942250844
 21
45.0530241646541185
 31
0.0
  0
LINE
  5
6A
100
AcDbEntity
100
AcDbLine
  8
0
 62
7
420
0
370
0
  6
ByLayer
 10
78.4459617942250844
 20
45.0530241646541185
 30
0.0
 11
78.9581078710801734
 21
44.7496001245515487
 31
0.0
  0
LINE
  5
6B
100
AcDbEntity
100
AcDbLine
  8
0
 62
7
420
0
370
0
  6
ByLayer
 10
78.9581078710801734
 20
44.7496001245515487
 30
0.0
 11
79.6210235639797617
 21
44.0972845985981152
 31
0.0
  0
LINE
  5
6C
100
AcDbEntity
100
AcDbLine
  8
0
 62
7
420
0
370
0
  6
ByLayer
 10
79.6210235639797617
 20
44.0972845985981152
 30
0.0
 11
80.4797046993064811
 21
42.6628513763921617
 31
0.0
  0
LINE
  5
6D
100
AcDbEntity
100
AcDbLine
  8
0
 62
7
420
0
370
0
  6
ByLayer
 10
80.4797046993064811
 20
42.6628513763921617
 30
0.0
 11
79.8672030297851023
 21
41.8199540474111942
 31
0.0
  0
LINE
  5
6E
100
AcDbEntity
100
AcDbLine
  8
0
 62
7
420
0
370
0
  6
ByLayer
 10
79.8672030297851023
 20
41.8199540474111942
 30
0.0
 11
78.2377113768382202
 21
42.1933446985404075
 31
0.0
  0
LINE
  5
6F
100
AcDbEntity
100
AcDbLine
  8
0
 62
7
420
0
370
0
  6
ByLayer
 10
78.2377113768382202
 20
42.1933446985404075
 30
0.0
 11
77.4122464351715678
 21
42.6220967854023556
 31
0.0
  0
LINE
  5
70
100
AcDbEntity
100
AcDbLine
  8
0
 62
7
420
0
370
0
  6
ByLayer
 10
77.4122464351715678
 20
42.6220967854023556
 30
0.0
 11
76.965591176354252
 21
43.0152762512250177
 31
0.0
  0
LINE
  5
71
100
AcDbEntity
100
AcDbLine
  8
0
 62
7
420
0
370
0
  6
ByLayer
 10
76.965591176354252
 20
43.0152762512250177
 30
0.0
 11
75.7516579541742772
 21
41.8013430290450501
 31
0.0
  0
LINE
  5
72
100
AcDbEntity
100
AcDbLine
  8
0
 62
7
420
0
370
0
  6
ByLayer
 10
75.7516579541742772
 20
41.8013430290450501
 30
0.0
 11
76.1448374199969749
 21
41.3546877702277769
 31
0.0
  0
LINE
  5
73
100
AcDbEntity
100
AcDbLine
  8
0
 62
7
420
0
370
0
  6
ByLayer
 10
76.1448374199969749
 20
41.3546877702277769
 30
0.0
 11
76.5735895068588945
 21
40.5292228285610392
 31
0.0
  0
LINE
  5
74
100
AcDbEntity
100
AcDbLine
  8
0
 62
7
420
0
370
0
  6
ByLayer
 10
76.5735895068588945
 20
40.5292228285610392
 30
0.0
 11
76.9469801579881221
 21
38.8997311756141713
 31
0.0
  0
LINE
  5
75
100
AcDbEntity
100
AcDbLine
  8
0
 62
7
420
0
370
0
  6
ByLayer
 10
76.9469801579881221
 20
38.8997311756141713
 30
0.0
 11
76.1040828290071687
 21
38.287229506092828
 31
0.0
  0
LINE
  5
76
100
AcDbEntity
100
AcDbLine
  8
0
 62
7
420
0
370
0
  6
ByLayer
 10
76.1040828290071687
 20
38.287229506092828
 30
0.0
 11
74.6696496068012152
 21
39.1459106414195546
 31
0.0
  0
LINE
  5
77
100
AcDbEntity
100
AcDbLine
  8
0
 62
7
420
0
370
0
  6
ByLayer
 10
74.6696496068012152
 20
39.1459106414195546
 30
0.0
 11
74.0173340808477747
 21
39.8088263343191429
 31
0.0
  0
LINE
  5
78
100
AcDbEntity
100
AcDbLine
  8
0
 62
7
420
0
370
0
  6
ByLayer
 10
74.0173340808477747
 20
39.8088263343191429
 30
0.0
 11
73.7139100407451906
 21
40.3209724111742176
 31
0.0
  0
LINE
  5
79
100
AcDbEntity
100
AcDbLine
  8
0
 62
7
420
0
370
0
  6
ByLayer
 10
73.7139100407451906
 20
40.3209724111742176
 30
0.0
 11
72.1843031958234462
 21
39.5414456998969186
 31
0.0
  0
LINE
  5
7A
100
AcDbEntity
100
AcDbLine
  8
0
 62
7
420
0
370
0
  6
ByLayer
 10
72.1843031958234462
 20
39.5414456998969186
 30
0.0
 11
72.4201170522786697
 21
38.9949047983299479
 31
0.0
  0
LINE
  5
7B
100
AcDbEntity
100
AcDbLine
  8
0
 62
7
420
0
370
0
  6
ByLayer
 10
72.4201170522786697
 20
38.9949047983299479
 30
0.0
 11
72.572771476336726
 21
38.0775650653335518
 31
0.0
  0
LINE
  5
7C
100
AcDbEntity
100
AcDbLine
  8
0
 62
7
420
0
370
0
  6
ByLayer
 10
72.572771476336726
 20
38.0775650653335518
 30
0.0
 11
72.4243574529469356
 21
36.412500791347405
 31
0.0
  0
LINE
  5
7D
100
AcDbEntity
100
AcDbLine
  8
0
 62
7
420
0
370
0
  6
ByLayer
 10
72.4243574529469356
 20
36.412500791347405
 30
0.0
 11
71.4335168852173297
 21
36.0904657328786769
 31
0.0
  0
LINE
  5
7E
100
AcDbEntity
100
AcDbLine
  8
0
 62
7
420
0
370
0
  6
ByLayer
 10
71.4335168852173297
 20
36.0904657328786769
 30
0.0
 11
70.3347823274916806
 21
37.3503363507235449
 31
0.0
  0
LINE
  5
7F
100
AcDbEntity
100
AcDbLine
  8
0
 62
7
420
0
370
0
  6
ByLayer
 10
70.3347823274916806
 20
37.3503363507235449
 30
0.0
 11
69.9189868349551489
 21
38.1823972857132006
 31
0.0
  0
LINE
  5
80
100
AcDbEntity
100
AcDbLine
  8
0
 62
7
420
0
370
0
  6
ByLayer
 10
69.9189868349551489
 20
38.1823972857132006
 30
0.0
 11
69.7887130452903648
 21
38.7630959502224428
 31
0.0
  0
LINE
  5
81
100
AcDbEntity
100
AcDbLine
  8
0
 62
7
420
0
370
0
  6
ByLayer
 10
69.7887130452903648
 20
38.7630959502224428
 30
0.0
 11
68.0930235626194644
 21
38.4945375194728925
 31
0.0
  0
LINE
  5
82
100
AcDbEntity
100
AcDbLine
  8
0
 62
7
420
0
370
0
  6
ByLayer
 10
68.0930235626194644
 20
38.4945375194728925
 30
0.0
 11
68.1486195559482439
 21
37.9018238299204668
 31
0.0
  0
LINE
  5
83
100
AcDbEntity
100
AcDbLine
  8
0
 62
7
420
0
370
0
  6
ByLayer
 10
68.1486195559482439
 20
37.9018238299204668
 30
0.0
 11
68.0103357495880232
 21
36.9821276695448447
 31
0.0
  0
LINE
  5
84
100
AcDbEntity
100
AcDbLine
  8
0
 62
7
420
0
370
0
  6
ByLayer
 10
68.0103357495880232
 20
36.9821276695448447
 30
0.0
 11
67.3547230616976123
 21
35.4445116426522233
 31
0.0
  0
LINE
  5
85
100
AcDbEntity
100
AcDbLine
  8
0
 62
7
420
0
370
0
  6
ByLayer
 10
67.3547230616976123
 20
35.4445116426522233
 30
0.0
 11
66.3125260665829757
 21
35.4445116426522233
 31
0.0
  0
LINE
  5
86
100
AcDbEntity
100
AcDbLine
  8
0
 62
7
420
0
370
0
  6
ByLayer
 10
66.3125260665829757
 20
35.4445116426522233
 30
0.0
 11
65.6569133786925931
 21
36.9821276695448447
 31
0.0
  0
LINE
  5
87
100
AcDbEntity
100
AcDbLine
  8
0
 62
7
420
0
370
0
  6
ByLayer
 10
65.6569133786925931
 20
36.9821276695448447
 30
0.0
 11
65.5186295723323724
 21
37.9018238299204668
 31
0.0
  0
LINE
  5
88
100
AcDbEntity
100
AcDbLine
  8
0
 62
7
420
0
370
0
  6
ByLayer
 10
65.5186295723323724
 20
37.9018238299204668
 30
0.0
 11
65.5742255656611519
 21
38.4945375194728925
 31
0.0
  0
LINE
  5
89
100
AcDbEntity
100
AcDbLine
  8
0
 62
7
420
0
370
0
  6
ByLayer
 10
65.5742255656611519
 20
38.4945375194728925
 30
0.0
 11
63.87853608299028
 21
38.7630959502224428
 31
0.0
  0
LINE
  5
8A
100
AcDbEntity
100
AcDbLine
  8
0
 62
7
420
0
370
0
  6
ByLayer
 10
63.87853608299028
 20
38.7630959502224428
 30
0.0
 11
63.7482622933254675
 21
38.1823972857132006
 31
0.0
  0
LINE
  5
8B
100
AcDbEntity
100
AcDbLine
  8
0
 62
7
420
0
370
0
  6
ByLayer
 10
63.7482622933254675
 20
38.1823972857132006
 30
0.0
 11
63.33246680078895
 21
37.3503363507235449
 31
0.0
  0
LINE
  5
8C
100
AcDbEntity
100
AcDbLine
  8
0
 62
7
420
0
370
0
  6
ByLayer
 10
63.33246680078895
 20
37.3503363507235449
 30
0.0
 11
62.2337322430633151
 21
36.0904657328786769
 31
0.0
  0
LINE
  5
8D
100
AcDbEntity
100
AcDbLine
  8
0
 62
7
420
0
370
0
  6
ByLayer
 10
62.2337322430633151
 20
36.0904657328786769
 30
0.0
 11
61.2428916753337091
 21
36.412500791347405
 31
0.0
  0
LINE
  5
8E
100
AcDbEntity
100
AcDbLine
  8
0
 62
7
420
0
370
0
  6
ByLayer
 10
61.2428916753337091
 20
36.412500791347405
 30
0.0
 11
61.0944776519438904
 21
38.0775650653335518
 31
0.0
  0
LINE
  5
8F
100
AcDbEntity
100
AcDbLine
  8
0
 62
7
420
0
370
0
  6
ByLayer
 10
61.0944776519438904
 20
38.0775650653335518
 30
0.0
 11
61.2471320760019609
 21
38.994904798329955
 31
0.0
  0
LINE
  5
90
100
AcDbEntity
100
AcDbLine
  8
0
 62
7
420
0
370
0
  6
ByLayer
 10
61.2471320760019609
 20
38.994904798329955
 30
0.0
 11
61.4829459324571985
 21
39.5414456998969186
 31
0.0
  0
LINE
  5
91
100
AcDbEntity
100
AcDbLine
  8
0
 62
7
420
0
370
0
  6
ByLayer
 10
61.4829459324571985
 20
39.5414456998969186
 30
0.0
 11
59.9533390875354542
 21
40.3209724111742176
 31
0.0
  0
LINE
  5
92
100
AcDbEntity
100
AcDbLine
  8
0
 62
7
420
0
370
0
  6
ByLayer
 10
59.9533390875354542
 20
40.3209724111742176
 30
0.0
 11
59.6499150474328701
 21
39.8088263343191429
 31
0.0
  0
LINE
  5
93
100
AcDbEntity
100
AcDbLine
  8
0
 62
7
420
0
370
0
  6
ByLayer
 10
59.6499150474328701
 20
39.8088263343191429
 30
0.0
 11
58.9975995214794295
 21
39.1459106414195546
 31
0.0
  0
LINE
  5
94
100
AcDbEntity
100
AcDbLine
  8
0
 62
7
420
0
370
0
  6
ByLayer
 10
58.9975995214794295
 20
39.1459106414195546
 30
0.0
 11
57.5631662992734334
 21
38.2872295060928494
 31
0.0
  0
LINE
  5
95
100
AcDbEntity
100
AcDbLine
  8
0
 62
7
420
0
370
0
  6
ByLayer
 10
57.5631662992734334
 20
38.2872295060928494
 30
0.0
 11
56.7202689702925227
 21
38.8997311756141713
 31
0.0
  0
LINE
  5
96
100
AcDbEntity
100
AcDbLine
  8
0
 62
7
420
0
370
0
  6
ByLayer
 10
56.7202689702925227
 20
38.8997311756141713
 30
0.0
 11
57.0936596214216934
 21
40.5292228285610534
 31
0.0
  0
LINE
  5
97
100
AcDbEntity
100
AcDbLine
  8
0
 62
7
420
0
370
0
  6
ByLayer
 10
57.0936596214216934
 20
40.5292228285610534
 30
0.0
 11
57.5224117082836699
 21
41.3546877702277769
 31
0.0
  0
LINE
  5
98
100
AcDbEntity
100
AcDbLine
  8
0
 62
7
420
0
370
0
  6
ByLayer
 10
57.5224117082836699
 20
41.3546877702277769
 30
0.0
 11
57.9155911741063392
 21
41.8013430290450501
 31
0.0
  0
LINE
  5
99
100
AcDbEntity
100
AcDbLine
  8
0
 62
7
420
0
370
0
  6
ByLayer
 10
57.9155911741063392
 20
41.8013430290450501
 30
0.0
 11
56.7016579519263644
 21
43.0152762512250249
 31
0.0
  0
LINE
  5
9A
100
AcDbEntity
100
AcDbLine
  8
0
 62
7
420
0
370
0
  6
ByLayer
 10
56.7016579519263644
 20
43.0152762512250249
 30
0.0
 11
56.2550026931090486
 21
42.6220967854023556
 31
0.0
  0
LINE
  5
9B
100
AcDbEntity
100
AcDbLine
  8
0
 62
7
420
0
370
0
  6
ByLayer
 10
56.2550026931090486
 20
42.6220967854023556
 30
0.0
 11
55.4295377514423819
 21
42.1933446985404075
 31
0.0
  0
LINE
  5
9C
100
AcDbEntity
100
AcDbLine
  8
0
 62
7
420
0
370
0
  6
ByLayer
 10
55.4295377514423819
 20
42.1933446985404075
 30
0.0
 11
53.8000460984954998
 21
41.8199540474112226
 31
0.0
  0
LINE
  5
9D
100
AcDbEntity
100
AcDbLine
  8
0
 62
7
420
0
370
0
  6
ByLayer
 10
53.8000460984954998
 20
41.8199540474112226
 30
0.0
 11
53.1875444289741495
 21
42.6628513763921688
 31
0.0
  0
LINE
  5
9E
100
AcDbEntity
100
AcDbLine
  8
0
 62
7
420
0
370
0
  6
ByLayer
 10
53.1875444289741495
 20
42.6628513763921688
 30
0.0
 11
54.0462255643008689
 21
44.0972845985981223
 31
0.0
  0
LINE
  5
9F
100
AcDbEntity
100
AcDbLine
  8
0
 62
7
420
0
370
0
  6
ByLayer
 10
54.0462255643008689
 20
44.0972845985981223
 30
0.0
 11
54.7091412572004572
 21
44.7496001245515558
 31
0.0
  0
LINE
  5
A0
100
AcDbEntity
100
AcDbLine
  8
0
 62
7
420
0
370
0
  6
ByLayer
 10
54.7091412572004572
 20
44.7496001245515558
 30
0.0
 11
55.2212873340555177
 21
45.0530241646541327
 31
0.0
  0
LINE
  5
A1
100
AcDbEntity
100
AcDbLine
  8
0
 62
7
420
0
370
0
  6
ByLayer
 10
55.2212873340555177
 20
45.0530241646541327
 30
0.0
 11
54.4417606227782471
 21
46.5826310095758771
 31
0.0
  0
LINE
  5
A2
100
AcDbEntity
100
AcDbLine
  8
0
 62
7
420
0
370
0
  6
ByLayer
 10
54.4417606227782471
 20
46.5826310095758771
 30
0.0
 11
53.895219721211248
 21
46.3468171531206963
 31
0.0
  0
LINE
  5
A3
100
AcDbEntity
100
AcDbLine
  8
0
 62
7
420
0
370
0
  6
ByLayer
 10
53.895219721211248
 20
46.3468171531206963
 30
0.0
 11
52.9778799882148519
 21
46.1941627290626116
 31
0.0
  0
LINE
  5
A4
100
AcDbEntity
100
AcDbLine
  8
0
 62
7
420
0
370
0
  6
ByLayer
 10
52.9778799882148519
 20
46.1941627290626116
 30
0.0
 11
51.3128157142287193
 21
46.3425767524523806
 31
0.0
  0
LINE
  5
A5
100
AcDbEntity
100
AcDbLine
  8
0
 62
7
420
0
370
0
  6
ByLayer
 10
51.3128157142287193
 20
46.3425767524523806
 30
0.0
 11
50.9907806557600054
 21
47.3334173201819866
 31
0.0
  0
LINE
  5
A6
100
AcDbEntity
100
AcDbLine
  8
0
 62
7
420
0
370
0
  6
ByLayer
 10
50.9907806557600054
 20
47.3334173201819866
 30
0.0
 11
52.2506512736048307
 21
48.4321518779076499
 31
0.0
  0
LINE
  5
A7
100
AcDbEntity
100
AcDbLine
  8
0
 62
7
420
0
370
0
  6
ByLayer
 10
52.2506512736048307
 20
48.4321518779076499
 30
0.0
 11
53.0827122085945007
 21
48.8479473704442029
 31
0.0
  0
LINE
  5
A8
100
AcDbEntity
100
AcDbLine
  8
0
 62
7
420
0
370
0
  6
ByLayer
 10
53.0827122085945007
 20
48.8479473704442029
 30
0.0
 11
53.6634108731037429
 21
48.9782211601090012
 31
0.0
  0
LINE
  5
A9
100
AcDbEntity
100
AcDbLine
  8
0
 62
7
420
0
370
0
  6
ByLayer
 10
53.6634108731037429
 20
48.9782211601090012
 30
0.0
 11
53.394852442354221
 21
50.6739106427798376
 31
0.0
  0
LINE
  5
AA
100
AcDbEntity
100
AcDbLine
  8
0
 62
7
420
0
370
0
  6
ByLayer
 10
53.394852442354221
 20
50.6739106427798376
 30
0.0
 11
52.8021387528017954
 21
50.6183146494511291
 31
0.0
  0
LINE
  5
AB
100
AcDbEntity
100
AcDbLine
  8
0
 62
7
420
0
370
0
  6
ByLayer
 10
52.8021387528017954
 20
50.6183146494511291
 30
0.0
 11
51.8824425924261448
 21
50.7565984558113357
 31
0.0
  0
LINE
  5
AC
100
AcDbEntity
100
AcDbLine
  8
0
 62
7
420
0
370
0
  6
ByLayer
 10
51.8824425924261448
 20
50.7565984558113357
 30
0.0
 11
50.3448265655335376
 21
51.4122111437016969
 31
0.0
  0
LINE
  5
AD
100
AcDbEntity
100
AcDbLine
  8
0
 62
7
420
0
370
0
  6
ByLayer
 10
50.3448265655335376
 20
51.4122111437016969
 30
0.0
 11
50.3448265655335376
 21
52.4544081388163193
 31
0.0
  0
LINE
  5
AE
100
AcDbEntity
100
AcDbLine
  8
0
 62
7
420
0
370
0
  6
ByLayer
 10
50.3448265655335376
 20
52.4544081388163193
 30
0.0
 11
51.8824425924261448
 21
53.1100208267066805
 31
0.0
  0
LINE
  5
AF
100
AcDbEntity
100
AcDbLine
  8
0
 62
7
420
0
370
0
  6
ByLayer
 10
51.8824425924261448
 20
53.1100208267066805
 30
0.0
 11
52.8021387528017954
 21
53.2483046330669296
 31
0.0
  0
LINE
  5
B0
100
AcDbEntity
100
AcDbLine
  8
0
 62
7
420
0
370
0
  6
ByLayer
 10
52.8021387528017954
 20
53.2483046330669296
 30
0.0
 11
53.394852442354221
 21
53.1927086397381785
 31
0.0
  0
LINE
  5
B1
100
AcDbEntity
100
AcDbLine
  8
0
 62
7
420
0
370
0
  6
ByLayer
 10
53.394852442354221
 20
53.1927086397381785
 30
0.0
 11
53.6634108731037429
 21
54.8883981224090078
 31
0.0
  0
LINE
  5
B2
100
AcDbEntity
100
AcDbLine
  8
0
 62
7
420
0
370
0
  6
ByLayer
 10
53.6634108731037429
 20
54.8883981224090078
 30
0.0
 11
53.0827122085945007
 21
55.0186719120738204
 31
0.0
  0
LINE
  5
B3
100
AcDbEntity
100
AcDbLine
  8
0
 62
7
420
0
370
0
  6
ByLayer
 10
53.0827122085945007
 20
55.0186719120738204
 30
0.0
 11
52.2506512736048307
 21
55.4344674046103805
 31
0.0
  0
LINE
  5
B4
100
AcDbEntity
100
AcDbLine
  8
0
 62
7
420
0
370
0
  6
ByLayer
 10
52.2506512736048307
 20
55.4344674046103805
 30
0.0
 11
50.9907806557600054
 21
56.5332019623360225
 31
0.0
  0
LINE
  5
B5
100
AcDbEntity
100
AcDbLine
  8
0
 62
7
420
0
370
0
  6
ByLayer
 10
50.9907806557600054
 20
56.5332019623360225
 30
0.0
 11
51.3128157142287193
 21
57.5240425300656213
 31
0.0
  0
LINE
  5
B6
100
AcDbEntity
100
AcDbLine
  8
0
 62
7
420
0
370
0
  6
ByLayer
 10
51.3128157142287193
 20
57.5240425300656213
 30
0.0
 11
52.9778799882148803
 21
57.6724565534554117
 31
0.0
  0
LINE
  5
B7
100
AcDbEntity
100
AcDbLine
  8
0
 62
7
420
0
370
0
  6
ByLayer
 10
52.9778799882148803
 20
57.6724565534554117
 30
0.0
 11
53.895219721211248
 21
57.519802129397327
 31
0.0
  0
LINE
  5
B8
100
AcDbEntity
100
AcDbLine
  8
0
 62
7
420
0
370
0
  6
ByLayer
 10
53.895219721211248
 20
57.519802129397327
 30
0.0
 11
54.4417606227782471
 21
57.2839882729421603
 31
0.0
  0
LINE
  5
B9
100
AcDbEntity
100
AcDbLine
  8
0
 62
7
420
0
370
0
  6
ByLayer
 10
54.4417606227782471
 20
57.2839882729421603
 30
0.0
 11
55.2212873340555177
 21
58.8135951178638905
 31
0.0
  0
LINE
  5
BA
100
AcDbEntity
100
AcDbLine
  8
0
 62
7
420
0
370
0
  6
ByLayer
 10
55.2212873340555177
 20
58.8135951178638905
 30
0.0
 11
54.7091412572004572
 21
59.1170191579664603
 31
0.0
  0
LINE
  5
BB
100
AcDbEntity
100
AcDbLine
  8
0
 62
7
420
0
370
0
  6
ByLayer
 10
54.7091412572004572
 20
59.1170191579664603
 30
0.0
 11
54.0462255643008689
 21
59.7693346839199009
 31
0.0
  0
LINE
  5
BC
100
AcDbEntity
100
AcDbLine
  8
0
 62
7
420
0
370
0
  6
ByLayer
 10
54.0462255643008689
 20
59.7693346839199009
 30
0.0
 11
53.1875444289741495
 21
61.2037679061258544
 31
0.0
  0
LINE
  5
BD
100
AcDbEntity
100
AcDbLine
  8
0
 62
7
420
0
370
0
  6
ByLayer
 10
53.1875444289741495
 20
61.2037679061258544
 30
0.0
 11
53.8000460984954998
 21
62.0466652351067935
 31
0.0
  0
LINE
  5
BE
100
AcDbEntity
100
AcDbLine
  8
0
 62
7
420
0
370
0
  6
ByLayer
 10
53.8000460984954998
 20
62.0466652351067935
 30
0.0
 11
55.4295377514423819
 21
61.6732745839775944
 31
0.0
  0
LINE
  5
BF
100
AcDbEntity
100
AcDbLine
  8
0
 62
7
420
0
370
0
  6
ByLayer
 10
55.4295377514423819
 20
61.6732745839775944
 30
0.0
 11
56.2550026931090486
 21
61.2445224971156605
 31
0.0
  0
LINE
  5
C0
100
AcDbEntity
100
AcDbLine
  8
0
 62
7
420
0
370
0
  6
ByLayer
 10
56.2550026931090486
 20
61.2445224971156605
 30
0.0
 11
56.7016579519263928
 21
60.8513430312929771
 31
0.0
  0
LINE
  5
C1
100
AcDbEntity
100
AcDbLine
  8
0
 62
7
420
0
370
0
  6
ByLayer
 10
56.7016579519263928
 20
60.8513430312929771
 30
0.0
 11
57.9155911741063392
 21
62.0652762534729519
 31
0.0
  0
LINE
  5
C2
100
AcDbEntity
100
AcDbLine
  8
0
 62
7
420
0
370
0
  6
ByLayer
 10
57.9155911741063392
 20
62.0652762534729519
 30
0.0
 11
57.5224117082836699
 21
62.5119315122902393
 31
0.0
  0
LINE
  5
C3
100
AcDbEntity
100
AcDbLine
  8
0
 62
7
420
0
370
0
  6
ByLayer
 10
57.5224117082836699
 20
62.5119315122902393
 30
0.0
 11
57.0936596214217218
 21
63.3373964539569627
 31
0.0
  0
LINE
  5
C4
100
AcDbEntity
100
AcDbLine
  8
0
 62
7
420
0
370
0
  6
ByLayer
 10
57.0936596214217218
 20
63.3373964539569627
 30
0.0
 11
56.7202689702925227
 21
64.9668881069038378
 31
0.0
  0
LINE
  5
C5
100
AcDbEntity
100
AcDbLine
  8
0
 62
7
420
0
370
0
  6
ByLayer
 10
56.7202689702925227
 20
64.9668881069038378
 30
0.0
 11
57.5631662992734334
 21
65.5793897764251597
 31
0.0
  0
LINE
  5
C6
100
AcDbEntity
100
AcDbLine
  8
0
 62
7
420
0
370
0
  6
ByLayer
 10
57.5631662992734334
 20
65.5793897764251597
 30
0.0
 11
58.9975995214794295
 21
64.7207086410984687
 31
0.0
  0
LINE
  5
C7
100
AcDbEntity
100
AcDbLine
  8
0
 62
7
420
0
370
0
  6
ByLayer
 10
58.9975995214794295
 20
64.7207086410984687
 30
0.0
 11
59.6499150474328701
 21
64.0577929481988804
 31
0.0
  0
LINE
  5
C8
100
AcDbEntity
100
AcDbLine
  8
0
 62
7
420
0
370
0
  6
ByLayer
 10
59.6499150474328701
 20
64.0577929481988804
 30
0.0
 11
59.9533390875354542
 21
63.5456468713437985
 31
0.0
  0
LINE
  5
C9
100
AcDbEntity
100
AcDbLine
  8
0
 62
7
420
0
370
0
  6
ByLayer
 10
59.9533390875354542
 20
63.5456468713437985
 30
0.0
 11
61.4829459324571985
 21
64.3251735826210904
 31
0.0
  0
LINE
  5
CA
100
AcDbEntity
100
AcDbLine
  8
0
 62
7
420
0
370
0
  6
ByLayer
 10
61.4829459324571985
 20
64.3251735826210904
 30
0.0
 11
61.2471320760019751
 21
64.8717144841880611
 31
0.0
  0
LINE
  5
CB
100
AcDbEntity
100
AcDbLine
  8
0
 62
7
420
0
370
0
  6
ByLayer
 10
61.2471320760019751
 20
64.8717144841880611
 30
0.0
 11
61.0944776519438904
 21
65.7890542171844572
 31
0.0
  0
LINE
  5
CC
100
AcDbEntity
100
AcDbLine
  8
0
 62
7
420
0
370
0
  6
ByLayer
 10
61.0944776519438904
 20
65.7890542171844572
 30
0.0
 11
61.2428916753337091
 21
67.4541184911705898
 31
0.0
  0
LINE
  5
CD
100
AcDbEntity
100
AcDbLine
  8
0
 62
7
420
0
370
0
  6
ByLayer
 10
61.2428916753337091
 20
67.4541184911705898
 30
0.0
 11
62.2337322430633151
 21
67.7761535496393321
 31
0.0
  0
LINE
  5
CE
100
AcDbEntity
100
AcDbLine
  8
0
 62
7
420
0
370
0
  6
ByLayer
 10
62.2337322430633151
 20
67.7761535496393321
 30
0.0
 11
63.33246680078895
 21
66.5162829317944784
 31
0.0
  0
LINE
  5
CF
100
AcDbEntity
100
AcDbLine
  8
0
 62
7
420
0
370
0
  6
ByLayer
 10
63.33246680078895
 20
66.5162829317944784
 30
0.0
 11
63.7482622933254675
 21
65.6842219968048084
 31
0.0
  0
LINE
  5
D0
100
AcDbEntity
100
AcDbLine
  8
0
 62
7
420
0
370
0
  6
ByLayer
 10
63.7482622933254675
 20
65.6842219968048084
 30
0.0
 11
63.87853608299028
 21
65.1035233322955662
 31
0.0
  0
LINE
  5
D1
100
AcDbEntity
100
AcDbLine
  8
0
 62
7
420
0
370
0
  6
ByLayer
 10
63.87853608299028
 20
65.1035233322955662
 30
0.0
 11
65.5742255656611519
 21
65.3720817630451165
 31
0.0
  0
LINE
  5
D2
100
AcDbEntity
100
AcDbLine
  8
0
 62
7
420
0
370
0
  6
ByLayer
 10
65.5742255656611519
 20
65.3720817630451165
 30
0.0
 11
65.5186295723323724
 21
65.9647954525975422
 31
0.0
  0
LINE
  5
D3
100
AcDbEntity
100
AcDbLine
  8
0
 62
7
420
0
370
0
  6
ByLayer
 10
65.5186295723323724
 20
65.9647954525975422
 30
0.0
 11
65.6569133786926216
 21
66.8844916129731644
 31
0.0
  0
LINE
  5
D4
100
AcDbEntity
100
AcDbLine
  8
0
 62
7
420
0
370
0
  6
ByLayer
 10
65.6569133786926216
 20
66.8844916129731644
 30
0.0
 11
66.3125260665829899
 21
68.4221076398657999
 31
0.0
  0
LINE
  5
D5
100
AcDbEntity
100
AcDbLine
  8
0
 62
7
420
0
370
0
  6
ByLayer
 10
66.3125260665829899
 20
68.4221076398657999
 30
0.0
 11
67.3547230616976265
 21
68.4221076398657999
 31
0.0
  0
LINE
  5
D6
100
AcDbEntity
100
AcDbLine
  8
0
 62
7
420
0
370
0
  6
ByLayer
 10
67.3547230616976265
 20
68.4221076398657999
 30
0.0
 11
68.0103357495880232
 21
66.8844916129731644
 31
0.0
  0
LINE
  5
D7
100
AcDbEntity
100
AcDbLine
  8
0
 62
7
420
0
370
0
  6
ByLayer
 10
68.0103357495880232
 20
66.8844916129731644
 30
0.0
 11
68.1486195559482439
 21
65.9647954525975422
 31
0.0
  0
LINE
  5
D8
100
AcDbEntity
100
AcDbLine
  8
0
 62
7
420
0
370
0
  6
ByLayer
 10
68.1486195559482439
 20
65.9647954525975422
 30
0.0
 11
68.0930235626194644
 21
65.3720817630451165
 31
0.0
  0
LINE
  5
D9
100
AcDbEntity
100
AcDbLine
  8
0
 62
7
420
0
370
0
  6
ByLayer
 10
68.0930235626194644
 20
65.3720817630451165
 30
0.0
 11
69.7887130452903648
 21
65.1035233322955662
 31
0.0
  0
LINE
  5
DA
100
AcDbEntity
100
AcDbLine
  8
0
 62
7
420
0
370
0
  6
ByLayer
 10
69.7887130452903648
 20
65.1035233322955662
 30
0.0
 11
69.9189868349551205
 21
65.6842219968048084
 31
0.0
  0
LINE
  5
DB
100
AcDbEntity
100
AcDbLine
  8
0
 62
7
420
0
370
0
  6
ByLayer
 10
69.9189868349551205
 20
65.6842219968048084
 30
0.0
 11
70.3347823274916948
 21
66.5162829317944784
 31
0.0
  0
LINE
  5
DC
100
AcDbEntity
100
AcDbLine
  8
0
 62
7
420
0
370
0
  6
ByLayer
 10
70.3347823274916948
 20
66.5162829317944784
 30
0.0
 11
71.4335168852173297
 21
67.7761535496393321
 31
0.0
  0
LINE
  5
DD
100
AcDbEntity
100
AcDbLine
  8
0
 62
7
420
0
370
0
  6
ByLayer
 10
71.4335168852173297
 20
67.7761535496393321
 30
0.0
 11
72.4243574529469356
 21
67.4541184911705898
 31
0.0
  0
LINE
  5
DE
100
AcDbEntity
100
AcDbLine
  8
0
 62
7
420
0
370
0
  6
ByLayer
 10
72.4243574529469356
 20
67.4541184911705898
 30
0.0
 11
72.572771476336726
 21
65.7890542171844572
 31
0.0
  0
LINE
  5
DF
100
AcDbEntity
100
AcDbLine
  8
0
 62
7
420
0
370
0
  6
ByLayer
 10
72.572771476336726
 20
65.7890542171844572
 30
0.0
 11
72.4201170522786697
 21
64.8717144841880611
 31
0.0
  0
LINE
  5
E0
100
AcDbEntity
100
AcDbLine
  8
0
 62
7
420
0
370
0
  6
ByLayer
 10
72.4201170522786697
 20
64.8717144841880611
 30
0.0
 11
72.1843031958234462
 21
64.3251735826210904
 31
0.0
  0
LINE
  5
E1
100
AcDbEntity
100
AcDbLine
  8
0
 62
7
420
0
370
0
  6
ByLayer
 10
72.1843031958234462
 20
64.3251735826210904
 30
0.0
 11
73.7139100407451906
 21
63.5456468713437985
 31
0.0
  0
LINE
  5
E2
100
AcDbEntity
100
AcDbLine
  8
0
 62
7
420
0
370
0
  6
ByLayer
 10
73.7139100407451906
 20
63.5456468713437985
 30
0.0
 11
74.0173340808477747
 21
64.0577929481988804
 31
0.0
  0
LINE
  5
E3
100
AcDbEntity
100
AcDbLine
  8
0
 62
7
420
0
370
0
  6
ByLayer
 10
74.0173340808477747
 20
64.0577929481988804
 30
0.0
 11
74.6696496068012152
 21
64.7207086410984687
 31
0.0
  0
LINE
  5
E4
100
AcDbEntity
100
AcDbLine
  8
0
 62
7
420
0
370
0
  6
ByLayer
 10
74.6696496068012152
 20
64.7207086410984687
 30
0.0
 11
76.1040828290071829
 21
65.5793897764251597
 31
0.0
  0
LINE
  5
E5
100
AcDbEntity
100
AcDbLine
  8
0
 62
7
420
0
370
0
  6
ByLayer
 10
76.1040828290071829
 20
65.5793897764251597
 30
0.0
 11
76.9469801579881221
 21
64.9668881069038378
 31
0.0
  0
LINE
  5
E6
100
AcDbEntity
100
AcDbLine
  8
0
 62
7
420
0
370
0
  6
ByLayer
 10
76.9469801579881221
 20
64.9668881069038378
 30
0.0
 11
76.5735895068588945
 21
63.3373964539569627
 31
0.0
  0
LINE
  5
E7
100
AcDbEntity
100
AcDbLine
  8
0
 62
7
420
0
370
0
  6
ByLayer
 10
76.5735895068588945
 20
63.3373964539569627
 30
0.0
 11
76.1448374199969749
 21
62.5119315122902393
 31
0.0
  0
LINE
  5
E8
100
AcDbEntity
100
AcDbLine
  8
0
 62
7
420
0
370
0
  6
ByLayer
 10
76.1448374199969749
 20
62.5119315122902393
 30
0.0
 11
75.7516579541742772
 21
62.0652762534729519
 31
0.0
  0
LINE
  5
E9
100
AcDbEntity
100
AcDbLine
  8
0
 62
7
420
0
370
0
  6
ByLayer
 10
75.7516579541742772
 20
62.0652762534729519
 30
0.0
 11
76.965591176354252
 21
60.8513430312929771
 31
0.0
  0
LINE
  5
EA
100
AcDbEntity
100
AcDbLine
  8
0
 62
7
420
0
370
0
  6
ByLayer
 10
76.965591176354252
 20
60.8513430312929771
 30
0.0
 11
77.4122464351715678
 21
61.2445224971156605
 31
0.0
  0
LINE
  5
EB
100
AcDbEntity
100
AcDbLine
  8
0
 62
7
420
0
370
0
  6
ByLayer
 10
77.4122464351715678
 20
61.2445224971156605
 30
0.0
 11
78.2377113768382202
 21
61.6732745839775944
 31
0.0
  0
LINE
  5
EC
100
AcDbEntity
100
AcDbLine
  8
0
 62
7
420
0
370
0
  6
ByLayer
 10
78.2377113768382202
 20
61.6732745839775944
 30
0.0
 11
79.8672030297851308
 21
62.0466652351067935
 31
0.0
  0
LINE
  5
ED
100
AcDbEntity
100
AcDbLine
  8
0
 62
7
420
0
370
0
  6
ByLayer
 10
79.8672030297851308
 20
62.0466652351067935
 30
0.0
 11
80.4797046993064811
 21
61.2037679061258544
 31
0.0
  0
LINE
  5
EE
100
AcDbEntity
100
AcDbLine
  8
0
 62
7
420
0
370
0
  6
ByLayer
 10
80.4797046993064811
 20
61.2037679061258544
 30
0.0
 11
79.6210235639797617
 21
59.7693346839199009
 31
0.0
  0
LINE
  5
EF
100
AcDbEntity
100
AcDbLine
  8
0
 62
7
420
0
370
0
  6
ByLayer
 10
79.6210235639797617
 20
59.7693346839199009
 30
0.0
 11
78.9581078710802018
 21
59.1170191579664603
 31
0.0
  0
LINE
  5
F0
100
AcDbEntity
100
AcDbLine
  8
0
 62
7
420
0
370
0
  6
ByLayer
 10
78.9581078710802018
 20
59.1170191579664603
 30
0.0
 11
78.4459617942250844
 21
58.8135951178638905
 31
0.0
  0
LINE
  5
F1
100
AcDbEntity
100
AcDbLine
  8
0
 62
7
420
0
370
0
  6
ByLayer
 10
78.4459617942250844
 20
58.8135951178638905
 30
0.0
 11
79.2254885055023834
 21
57.2839882729421603
 31
0.0
  0
LINE
  5
F2
100
AcDbEntity
100
AcDbLine
  8
0
 62
7
420
0
370
0
  6
ByLayer
 10
79.2254885055023834
 20
57.2839882729421603
 30
0.0
 11
79.7720294070694109
 21
57.519802129397327
 31
0.0
  0
LINE
  5
F3
100
AcDbEntity
100
AcDbLine
  8
0
 62
7
420
0
370
0
  6
ByLayer
 10
79.7720294070694109
 20
57.519802129397327
 30
0.0
 11
80.6893691400657787
 21
57.6724565534554117
 31
0.0
  0
LINE
  5
F4
100
AcDbEntity
100
AcDbLine
  8
0
 62
7
420
0
370
0
  6
ByLayer
 10
80.6893691400657787
 20
57.6724565534554117
 30
0.0
 11
82.3544334140518828
 21
57.5240425300656213
 31
0.0
  0
LINE
  5
F5
100
AcDbEntity
100
AcDbLine
  8
0
 62
7
420
0
370
0
  6
ByLayer
 10
82.3544334140518828
 20
57.5240425300656213
 30
0.0
 11
82.6764684725205967
 21
56.5332019623360225
 31
0.0
  0
LINE
  5
F6
100
AcDbEntity
100
AcDbLine
  8
0
 62
7
420
0
370
0
  6
ByLayer
 10
82.6764684725205967
 20
56.5332019623360225
 30
0.0
 11
81.4165978546757998
 21
55.4344674046103663
 31
0.0
  0
LINE
  5
F7
100
AcDbEntity
100
AcDbLine
  8
0
 62
7
420
0
370
0
  6
ByLayer
 10
81.4165978546757998
 20
55.4344674046103663
 30
0.0
 11
80.5845369196861299
 21
55.0186719120738132
 31
0.0
  0
LINE
  5
F8
100
AcDbEntity
100
AcDbLine
  8
0
 62
7
420
0
370
0
  6
ByLayer
 10
80.5845369196861299
 20
55.0186719120738132
 30
0.0
 11
80.0038382551768592
 21
54.8883981224090078
 31
0.0
  0
LINE
  5
F9
100
AcDbEntity
100
AcDbLine
  8
0
 62
7
420
0
370
0
  6
ByLayer
 10
80.0038382551768592
 20
54.8883981224090078
 30
0.0
 11
80.272396685926438
 21
53.1927086397381501
 31
0.0
  0
ENDSEC
  0
SECTION
  2
OBJECTS
  0
DICTIONARY
  5
C
100
AcDbDictionary
280
0
281
1
  3
ACAD_GROUP
350
D
  3
ACAD_LAYOUT
350
1A
  3
ACAD_MLINESTYLE
350
17
  3
ACAD_PLOTSETTINGS
350
19
  3
ACAD_PLOTSTYLENAME
350
E
  3
AcDbVariableDictionary
350
FA
  0
DICTIONARY
  5
D
100
AcDbDictionary
280
0
281
1
  0
ACDBDICTIONARYWDFLT
  5
E
100
AcDbDictionary
281
1
  3
Normal
350
F
100
AcDbDictionaryWithDefault
340
F
  0
ACDBPLACEHOLDER
  5
F
  0
DICTIONARY
  5
17
100
AcDbDictionary
280
0
281
1
  3
Standard
350
18
  0
MLINESTYLE
  5
18
100
AcDbMlineStyle
  2
STANDARD
 70
0
  3

 62
256
 51
90.0
 52
90.0
 71
2
 49
0.5
 62
256
  6
BYLAYER
 49
-0.5
 62
256
  6
BYLAYER
  0
DICTIONARY
  5
19
100
AcDbDictionary
280
0
281
1
  0
DICTIONARY
  5
1A
100
AcDbDictionary
281
1
  3
Layout1
350
1E
  3
Layout2
350
26
  3
Model
350
22
  0
LAYOUT
  5
1E
100
AcDbPlotSettings
  1

  2
C:\Program Files\AutoCAD 2002\plotters\DWF ePlot (optimized for plotting).pc3
  4

  6

 40
0.0
 41
0.0
 42
0.0
 43
0.0
 44
0.0
 45
0.0
 46
0.0
 47
0.0
 48
0.0
 49
0.0
140
0.0
141
0.0
142
1.0
143
1.0
 70
688
 72
0
 73
0
 74
5
  7

 75
16
147
1.0
148
0.0
149
0.0
100
AcDbLayout
  1
Layout1
 70
1
 71
1
 10
0.0
 20
0.0
 11
420.0
 21
297.0
 12
0.0
 22
0.0
 32
0.0
 14
100000000000000000000.0
 24
100000000000000000000.0
 34
100000000000000000000.0
 15
-100000000000000000000.0
 25
-100000000000000000000.0
 35
-100000000000000000000.0
146
0.0
 13
0.0
 23
0.0
 33
0.0
 16
1.0
 26
0.0
 36
0.0
 17
0.0
 27
1.0
 37
0.0
 76
0
330
1B
  0
LAYOUT
  5
22
100
AcDbPlotSettings
  1

  2
C:\Program Files\AutoCAD 2002\plotters\DWF ePlot (optimized for plotting).pc3
  4

  6

 40
0.0
 41
0.0
 42
0.0
 43
0.0
 44
0.0
 45
0.0
 46
0.0
 47
0.0
 48
0.0
 49
0.0
140
0.0
141
0.0
142
1.0
143
1.0
 70
1712
 72
0
 73
0
 74
0
  7

 75
0
147
1.0
148
0.0
149
0.0
100
AcDbLayout
  1
Model
 70
1
 71
0
 10
0.0
 20
0.0
 11
12.0
 21
9.0
 12
0.0
 22
0.0
 32
0.0
 14
0.0
 24
0.0
 34
0.0
 15
0.0
 25
0.0
 35
0.0
146
0.0
 13
0.0
 23
0.0
 33
0.0
 16
1.0
 26
0.0
 36
0.0
 17
0.0
 27
1.0
 37
0.0
 76
0
330
1F
  0
LAYOUT
  5
26
100
AcDbPlotSettings
  1

  2
C:\Program Files\AutoCAD 2002\plotters\DWF ePlot (optimized for plotting).pc3
  4

  6

 40
0.0
 41
0.0
 42
0.0
 43
0.0
 44
0.0
 45
0.0
 46
0.0
 47
0.0
 48
0.0
 49
0.0
140
0.0
141
0.0
142
1.0
143
1.0
 70
688
 72
0
 73
0
 74
5
  7

 75
16
147
1.0
148
0.0
149
0.0
100
AcDbLayout
  1
Layout2
 70
1
 71
2
 10
0.0
 20
0.0
 11
12.0
 21
9.0
 12
0.0
 22
0.0
 32
0.0
 14
0.0
 24
0.0
 34
0.0
 15
0.0
 25
0.0
 35
0.0
146
0.0
 13
0.0
 23
0.0
 33
0.0
 16
1.0
 26
0.0
 36
0.0
 17
0.0
 27
1.0
 37
0.0
 76
0
330
23
  0
DICTIONARY
  5
FA
100
AcDbDictionary
281
1
  3
DIMASSOC
350
FC
  3
HIDETEXT
350
FB
  0
DICTIONARYVAR
  5
FB
100
DictionaryVariables
280
0
  1
2
  0
DICTIONARYVAR
  5
FC
100
DictionaryVariables
280
0
  1
1
  0
ENDSEC
  0
EOF
