999
dxflib 2.1.2.0
  0
SECTION
  2
HEADER
  9
$ACADVER
  1
AC1015
  9
$HANDSEED
  5
FFFF
  9
$DIMLIM
 70
0
  9
$DIMLUNIT
 70
2
  9
$DIMTIX
 70
0
  9
$AUNITS
 70
0
  9
$QTEXTMODE
 70
0
  9
$USERR1
 40
0.0
  9
$DIMALTU
 70
2
  9
$USERR2
 40
0.0
  9
$UCSORGBOTTOM
 10
0.0
 20
0.0
 30
0.0
  9
$USERR3
 40
0.0
  9
$USERR4
 40
0.0
  9
$USERR5
 40
0.0
  9
$LIMMAX
 10
420.0
 20
297.0
  9
$PELEVATION
 40
0.0
  9
$DIMALTZ
 70
0
  9
$DIMADEC
 70
0
  9
$JOINSTYLE
280
0
  9
$TILEMODE
 70
1
  9
$DIMATFIT
 70
3
  9
$PEXTMIN
 10
0.0
 20
0.0
 30
0.0
  9
$TDUSRTIMER
 40
0.0000187731
  9
$DWGCODEPAGE
  3
ANSI_1252
  9
$UCSORTHOVIEW
 70
0
  9
$DIMSOXD
 70
0
  9
$DIMTZIN
 70
0
  9
$SPLINETYPE
 70
6
  9
$DIMLFAC
 40
1.0
  9
$DIMSE1
 70
0
  9
$FILLETRAD
 40
0.0
  9
$DIMSE2
 70
0
  9
$PSTYLEMODE
290
1
  9
$TEXTSTYLE
  7
Standard
  9
$DIMTSZ
 40
0.0
  9
$PUCSXDIR
 10
1.0
 20
0.0
 30
0.0
  9
$DIMTXSTY
  7
Standard
  9
$PLIMMAX
 10
420.0
 20
297.0
  9
$DIMTM
 40
0.0
  9
$UCSORG
 10
0.0
 20
0.0
 30
0.0
  9
$DIMTP
 40
0.0
  9
$PSLTSCALE
 70
1
  9
$EXTNAMES
290
1
  9
$ANGBASE
 50
0.0
  9
$PUCSYDIR
 10
0.0
 20
1.0
 30
0.0
  9
$DIMASZ
 40
1.7999999999999989
  9
$PUCSORTHOVIEW
 70
0
  9
$UNITMODE
 70
0
  9
$MEASUREMENT
 70
1
  9
$INSBASE
 10
0.0
 20
0.0
 30
0.0
  9
$EXTMAX
 10
420.0
 20
297.0
 30
0.0
  9
$ELEVATION
 40
0.0
  9
$TDCREATE
 40
2454670.4520583911798894
  9
$DIMDEC
 70
4
  9
$CELTYPE
  6
ByLayer
  9
$MENU
  1
.
  9
$ANGDIR
 70
0
  9
$DIMALTTD
 70
2
  9
$TREEDEPTH
 70
3020
  9
$PROXYGRAPHICS
 70
1
  9
$LTSCALE
 40
1.0
  9
$DIMTMOVE
 70
0
  9
$DIMAZIN
 70
0
  9
$TDUPDATE
 40
2454670.4520583911798894
  9
$DIMTOLJ
 70
1
  9
$DIMCEN
 40
0.09
  9
$DIMTVP
 40
0.0
  9
$TRACEWID
 40
0.05
  9
$CMLSTYLE
  2
Standard
  9
$DISPSILH
 70
0
  9
$DIMSTYLE
  2
Standard
  9
$SKETCHINC
 40
0.1
  9
$FILLMODE
 70
1
  9
$PLINEGEN
 70
0
  9
$DIMLWD
 70
-2
  9
$THICKNESS
 40
0.0
  9
$PUCSORG
 10
0.0
 20
0.0
 30
0.0
  9
$DIMLWE
 70
-2
  9
$CELTSCALE
 40
1.0
  9
$DIMALTTZ
 70
0
  9
$INSUNITS
 70
4
  9
$UCSORGBACK
 10
0.0
 20
0.0
 30
0.0
  9
$PLINEWID
 40
0.0
  9
$PEXTMAX
 10
420.0
 20
297.0
 30
0.0
  9
$DIMJUST
 70
0
  9
$UCSYDIR
 10
0.0
 20
1.0
 30
0.0
  9
$PUCSORGBACK
 10
0.0
 20
0.0
 30
0.0
  9
$PUCSORGBOTTOM
 10
0.0
 20
0.0
 30
0.0
  9
$PDSIZE
 40
0.0
  9
$DIMUPT
 70
0
  9
$DIMTAD
 70
0
  9
$MAXACTVP
 70
64
  9
$UCSXDIR
 10
1.0
 20
0.0
 30
0.0
  9
$DIMSAH
 70
0
  9
$TDUCREATE
 40
2454670.4103917251341045
  9
$DIMFRAC
 70
0
  9
$USERI1
 70
0
  9
$USERI2
 70
0
  9
$CELWEIGHT
370
-1
  9
$USERI3
 70
0
  9
$UCSORGRIGHT
 10
0.0
 20
0.0
 30
0.0
  9
$LWDISPLAY
290
0
  9
$SKPOLY
 70
0
  9
$USERI4
 70
0
  9
$USERI5
 70
0
  9
$UCSORGTOP
 10
0.0
 20
0.0
 30
0.0
  9
$LIMMIN
 10
0.0
 20
0.0
  9
$ACADMAINTVER
 70
18
  9
$MIRRTEXT
 70
0
  9
$TDUUPDATE
 40
2454670.4103917251341045
  9
$TEXTSIZE
 40
0.2
  9
$DIMGAP
 40
0.09
  9
$LUPREC
 70
4
  9
$CECOLOR
 62
256
  9
$DIMSD1
 70
0
  9
$DIMSD2
 70
0
  9
$WORLDVIEW
 70
1
  9
$PUCSORGRIGHT
 10
0.0
 20
0.0
 30
0.0
  9
$PLIMCHECK
 70
0
  9
$DIMTFAC
 40
1.0
  9
$CMLJUST
 70
0
  9
$USRTIMER
 70
1
  9
$SURFU
 70
6
  9
$SURFV
 70
6
  9
$DIMASO
 70
1
  9
$DIMDLE
 40
0.0
  9
$EXTMIN
 10
0.0
 20
0.0
 30
0.0
  9
$UCSORGLEFT
 10
0.0
 20
0.0
 30
0.0
  9
$OLESTARTUP
290
0
  9
$PUCSORGFRONT
 10
0.0
 20
0.0
 30
0.0
  9
$DIMDLI
 40
0.38
  9
$LUNITS
 70
2
  9
$DIMCLRD
 70
0
  9
$SHADEDIF
 70
70
  9
$DIMCLRE
 70
0
  9
$SPLINESEGS
 70
8
  9
$PUCSORGLEFT
 10
0.0
 20
0.0
 30
0.0
  9
$DIMALTRND
 40
0.0
  9
$DIMRND
 40
0.0
  9
$DIMALT
 70
0
  9
$FINGERPRINTGUID
  2
{957EB8BD-B1CB-432B-9497-5194FA736EDC}
  9
$DIMCLRT
 70
0
  9
$PUCSORGTOP
 10
0.0
 20
0.0
 30
0.0
  9
$DIMTOH
 70
1
  9
$UCSORGFRONT
 10
0.0
 20
0.0
 30
0.0
  9
$VISRETAIN
 70
1
  9
$SHADEDGE
 70
3
  9
$DIMTOL
 70
0
  9
$SURFTYPE
 70
6
  9
$VERSIONGUID
  2
{F0539855-98D3-4F5B-8BA8-A3C366CB493D}
  9
$CHAMFERA
 40
0.0
  9
$SURFTAB1
 70
6
  9
$CHAMFERB
 40
0.0
  9
$SURFTAB2
 70
6
  9
$CHAMFERC
 40
0.0
  9
$AUPREC
 70
0
  9
$CHAMFERD
 40
0.0
  9
$DIMTDEC
 70
4
  9
$PDMODE
 70
0
  9
$PLIMMIN
 10
0.0
 20
0.0
  9
$SPLFRAME
 70
0
  9
$XEDIT
290
1
  9
$DIMDSEP
 70
46
  9
$LIMCHECK
 70
0
  9
$PINSBASE
 10
0.0
 20
0.0
 30
0.0
  9
$ORTHOMODE
 70
0
  9
$PSVPSCALE
 40
0.0
  9
$CLAYER
  8
Notes
  9
$DIMSHO
 70
1
  9
$DIMTOFL
 70
0
  9
$DIMTXT
 40
0.3499999940395355
  9
$DIMEXE
 40
0.18
  9
$TDINDWG
 40
0.0000187731
  9
$REGENMODE
 70
1
  9
$ATTMODE
 70
1
  9
$CMLSCALE
 40
1.0
  9
$DIMTIH
 70
1
  9
$DIMZIN
 70
0
  9
$CEPSNTYPE
380
0
  9
$DIMSCALE
 40
1.0
  9
$DIMALTD
 70
2
  9
$DIMAUNIT
 70
0
  9
$DIMEXO
 40
0.0625
  9
$DIMALTF
 40
25.3999999999999986
  9
$ENDCAPS
280
0
  9
$CLAYER
  8
Notes
  0
ENDSEC
  0
SECTION
  2
TABLES
  0
TABLE
  2
VPORT
  5
8
100
AcDbSymbolTable
 70
1
  0
VPORT
  5
30
100
AcDbSymbolTableRecord
100
AcDbViewportTableRecord
  2
*Active
 70
0
 10
0.0
 20
0.0
 11
1.0
 21
1.0
 12
286.3055555555554861
 22
148.5
 13
0.0
 23
0.0
 14
10.0
 24
10.0
 15
10.0
 25
10.0
 16
0.0
 26
0.0
 36
1.0
 17
0.0
 27
0.0
 37
0.0
 40
297.0
 41
1.92798353909465
 42
50.0
 43
0.0
 44
0.0
 50
0.0
 51
0.0
 71
0
 72
100
 73
1
 74
3
 75
1
 76
1
 77
0
 78
0
281
0
 65
1
110
0.0
120
0.0
130
0.0
111
1.0
121
0.0
131
0.0
112
0.0
122
1.0
132
0.0
 79
0
146
0.0
  0
ENDTAB
  0
TABLE
  2
LTYPE
  5
5
100
AcDbSymbolTable
 70
21
  0
LTYPE
  5
14
100
AcDbSymbolTableRecord
100
AcDbLinetypeTableRecord
  2
ByBlock
 70
0
  3

 72
65
 73
0
 40
0.0
  0
LTYPE
  5
15
100
AcDbSymbolTableRecord
100
AcDbLinetypeTableRecord
  2
ByLayer
 70
0
  3

 72
65
 73
0
 40
0.0
  0
LTYPE
  5
16
100
AcDbSymbolTableRecord
100
AcDbLinetypeTableRecord
  2
CONTINUOUS
 70
0
  3
Solid line
 72
65
 73
0
 40
0.0
  0
LTYPE
  5
31
100
AcDbSymbolTableRecord
100
AcDbLinetypeTableRecord
  2
DOT
 70
0
  3
Dot . . . . . . . . . . . . . . . . . . . . . .
 72
65
 73
2
 40
6.3499999999999996
 49
0.0
 74
0
 49
-6.3499999999999996
 74
0
  0
LTYPE
  5
32
100
AcDbSymbolTableRecord
100
AcDbLinetypeTableRecord
  2
DOT2
 70
0
  3
Dot (.5x) .....................................
 72
65
 73
2
 40
3.1749999999999998
 49
0.0
 74
0
 49
-3.1749999999999998
 74
0
  0
LTYPE
  5
33
100
AcDbSymbolTableRecord
100
AcDbLinetypeTableRecord
  2
DOTX2
 70
0
  3
Dot (2x) .  .  .  .  .  .  .  .  .  .  .  .  .
 72
65
 73
2
 40
12.6999999999999993
 49
0.0
 74
0
 49
-12.6999999999999993
 74
0
  0
LTYPE
  5
34
100
AcDbSymbolTableRecord
100
AcDbLinetypeTableRecord
  2
DASHED
 70
0
  3
Dashed __ __ __ __ __ __ __ __ __ __ __ __ __ _
 72
65
 73
2
 40
19.0500000000000007
 49
12.6999999999999993
 74
0
 49
-6.3499999999999996
 74
0
  0
LTYPE
  5
35
100
AcDbSymbolTableRecord
100
AcDbLinetypeTableRecord
  2
DASHED2
 70
0
  3
Dashed (.5x) _ _ _ _ _ _ _ _ _ _ _ _ _ _ _ _ _
 72
65
 73
2
 40
9.5250000000000004
 49
6.3499999999999996
 74
0
 49
-3.1749999999999998
 74
0
  0
LTYPE
  5
36
100
AcDbSymbolTableRecord
100
AcDbLinetypeTableRecord
  2
DASHEDX2
 70
0
  3
Dashed (2x) ____  ____  ____  ____  ____  ___
 72
65
 73
2
 40
38.1000000000000014
 49
25.3999999999999986
 74
0
 49
-12.6999999999999993
 74
0
  0
LTYPE
  5
37
100
AcDbSymbolTableRecord
100
AcDbLinetypeTableRecord
  2
DASHDOT
 70
0
  3
Dash dot __ . __ . __ . __ . __ . __ . __ . __
 72
65
 73
4
 40
25.3999999999999986
 49
12.6999999999999993
 74
0
 49
-6.3499999999999996
 74
0
 49
0.0
 74
0
 49
-6.3499999999999996
 74
0
  0
LTYPE
  5
38
100
AcDbSymbolTableRecord
100
AcDbLinetypeTableRecord
  2
DASHDOT2
 70
0
  3
Dash dot (.5x) _._._._._._._._._._._._._._._.
 72
65
 73
4
 40
12.6999999999999993
 49
6.3499999999999996
 74
0
 49
-3.1749999999999998
 74
0
 49
0.0
 74
0
 49
-3.1749999999999998
 74
0
  0
LTYPE
  5
39
100
AcDbSymbolTableRecord
100
AcDbLinetypeTableRecord
  2
DASHDOTX2
 70
0
  3
Dash dot (2x) ____  .  ____  .  ____  .  ___
 72
65
 73
4
 40
50.7999999999999972
 49
25.3999999999999986
 74
0
 49
-12.6999999999999993
 74
0
 49
0.0
 74
0
 49
-12.6999999999999993
 74
0
  0
LTYPE
  5
3A
100
AcDbSymbolTableRecord
100
AcDbLinetypeTableRecord
  2
DIVIDE
 70
0
  3
Divide ____ . . ____ . . ____ . . ____ . . ____
 72
65
 73
6
 40
31.75
 49
12.6999999999999993
 74
0
 49
-6.3499999999999996
 74
0
 49
0.0
 74
0
 49
-6.3499999999999996
 74
0
 49
0.0
 74
0
 49
-6.3499999999999996
 74
0
  0
LTYPE
  5
3B
100
AcDbSymbolTableRecord
100
AcDbLinetypeTableRecord
  2
DIVIDE2
 70
0
  3
Divide (.5x) __..__..__..__..__..__..__..__.._
 72
65
 73
6
 40
15.875
 49
6.3499999999999996
 74
0
 49
-3.1749999999999998
 74
0
 49
0.0
 74
0
 49
-3.1749999999999998
 74
0
 49
0.0
 74
0
 49
-3.1749999999999998
 74
0
  0
LTYPE
  5
3C
100
AcDbSymbolTableRecord
100
AcDbLinetypeTableRecord
  2
DIVIDEX2
 70
0
  3
Divide (2x) ________  .  .  ________  .  .  _
 72
65
 73
6
 40
63.5
 49
25.3999999999999986
 74
0
 49
-12.6999999999999993
 74
0
 49
0.0
 74
0
 49
-12.6999999999999993
 74
0
 49
0.0
 74
0
 49
-12.6999999999999993
 74
0
  0
LTYPE
  5
3D
100
AcDbSymbolTableRecord
100
AcDbLinetypeTableRecord
  2
CENTER
 70
0
  3
Center ____ _ ____ _ ____ _ ____ _ ____ _ ____
 72
65
 73
4
 40
50.7999999999999972
 49
31.75
 74
0
 49
-6.3499999999999996
 74
0
 49
6.3499999999999996
 74
0
 49
-6.3499999999999996
 74
0
  0
LTYPE
  5
3E
100
AcDbSymbolTableRecord
100
AcDbLinetypeTableRecord
  2
CENTER2
 70
0
  3
Center (.5x) ___ _ ___ _ ___ _ ___ _ ___ _ ___
 72
65
 73
4
 40
28.5749999999999993
 49
19.0500000000000007
 74
0
 49
-3.1749999999999998
 74
0
 49
3.1749999999999998
 74
0
 49
-3.1749999999999998
 74
0
  0
LTYPE
  5
3F
100
AcDbSymbolTableRecord
100
AcDbLinetypeTableRecord
  2
CENTERX2
 70
0
  3
Center (2x) ________  __  ________  __  _____
 72
65
 73
4
 40
101.5999999999999943
 49
63.5
 74
0
 49
-12.6999999999999993
 74
0
 49
12.6999999999999993
 74
0
 49
-12.6999999999999993
 74
0
  0
LTYPE
  5
40
100
AcDbSymbolTableRecord
100
AcDbLinetypeTableRecord
  2
BORDER
 70
0
  3
Border __ __ . __ __ . __ __ . __ __ . __ __ .
 72
65
 73
6
 40
44.4500000000000028
 49
12.6999999999999993
 74
0
 49
-6.3499999999999996
 74
0
 49
12.6999999999999993
 74
0
 49
-6.3499999999999996
 74
0
 49
0.0
 74
0
 49
-6.3499999999999996
 74
0
  0
LTYPE
  5
41
100
AcDbSymbolTableRecord
100
AcDbLinetypeTableRecord
  2
BORDER2
 70
0
  3
Border (.5x) __.__.__.__.__.__.__.__.__.__.__.
 72
65
 73
6
 40
22.2250000000000014
 49
6.3499999999999996
 74
0
 49
-3.1749999999999998
 74
0
 49
6.3499999999999996
 74
0
 49
-3.1749999999999998
 74
0
 49
0.0
 74
0
 49
-3.1749999999999998
 74
0
  0
LTYPE
  5
42
100
AcDbSymbolTableRecord
100
AcDbLinetypeTableRecord
  2
BORDERX2
 70
0
  3
Border (2x) ____  ____  .  ____  ____  .  ___
 72
65
 73
6
 40
88.9000000000000057
 49
25.3999999999999986
 74
0
 49
-12.6999999999999993
 74
0
 49
25.3999999999999986
 74
0
 49
-12.6999999999999993
 74
0
 49
0.0
 74
0
 49
-12.6999999999999993
 74
0
  0
ENDTAB
  0
TABLE
  2
LAYER
  5
2
100
AcDbSymbolTable
 70
2
  0
LAYER
  5
10
100
AcDbSymbolTableRecord
100
AcDbLayerTableRecord
  2
0
 70
0
 62
7
  6
CONTINUOUS
370
0
390
F
  0
LAYER
  5
43
100
AcDbSymbolTableRecord
100
AcDbLayerTableRecord
  2
Notes
 70
0
 62
2
  6
CONTINUOUS
370
0
390
F
  0
ENDTAB
  0
TABLE
  2
STYLE
  5
3
100
AcDbSymbolTable
 70
1
  0
STYLE
  5
11
100
AcDbSymbolTableRecord
100
AcDbTextStyleTableRecord
  2
Standard
 70
0
 40
0.0
 41
0.75
 50
0.0
 71
0
 42
2.5
  3
txt
  4

  0
ENDTAB
  0
TABLE
  2
VIEW
  5
6
100
AcDbSymbolTable
 70
0
  0
ENDTAB
  0
TABLE
  2
UCS
  5
7
100
AcDbSymbolTable
 70
0
  0
ENDTAB
  0
TABLE
  2
APPID
  5
9
100
AcDbSymbolTable
 70
1
  0
APPID
  5
12
100
AcDbSymbolTableRecord
100
AcDbRegAppTableRecord
  2
ACAD
 70
0
  0
ENDTAB
  0
TABLE
  2
DIMSTYLE
  5
A
100
AcDbSymbolTable
 70
1
100
AcDbDimStyleTable
 71
0
  0
DIMSTYLE
105
27
100
AcDbSymbolTableRecord
100
AcDbDimStyleTableRecord
  2
Standard
 41
1.7999999999999989
 42
0.0625
 43
3.75
 44
0.18
 70
0
 73
0
 74
0
 77
1
 78
8
140
0.3499999940395355
141
2.5
143
0.03937007874016
147
0.09
171
3
172
1
271
2
272
2
274
3
278
44
283
0
284
8
340
11
  0
ENDTAB
  0
TABLE
  2
BLOCK_RECORD
  5
1
100
AcDbSymbolTable
 70
1
  0
BLOCK_RECORD
  5
1F
100
AcDbSymbolTableRecord
100
AcDbBlockTableRecord
  2
*Model_Space
340
22
  0
BLOCK_RECORD
  5
1B
100
AcDbSymbolTableRecord
100
AcDbBlockTableRecord
  2
*Paper_Space
340
1E
  0
BLOCK_RECORD
  5
23
100
AcDbSymbolTableRecord
100
AcDbBlockTableRecord
  2
*Paper_Space0
340
26
  0
ENDTAB
  0
ENDSEC
  0
SECTION
  2
BLOCKS
  0
BLOCK
  5
20
100
AcDbEntity
  8
0
100
AcDbBlockBegin
  2
*Model_Space
 70
0
 10
0.0
 20
0.0
 30
0.0
  3
*Model_Space
  1

  0
ENDBLK
  5
21
100
AcDbEntity
  8
0
100
AcDbBlockEnd
  0
BLOCK
  5
1C
100
AcDbEntity
 67
1
  8
0
100
AcDbBlockBegin
  2
*Paper_Space
 70
0
 10
0.0
 20
0.0
 30
0.0
  3
*Paper_Space
  1

  0
ENDBLK
  5
1D
100
AcDbEntity
 67
1
  8
0
100
AcDbBlockEnd
  0
BLOCK
  5
24
100
AcDbEntity
  8
0
100
AcDbBlockBegin
  2
*Paper_Space0
 70
0
 10
0.0
 20
0.0
 30
0.0
  3
*Paper_Space0
  1

  0
ENDBLK
  5
25
100
AcDbEntity
  8
0
100
AcDbBlockEnd
  0
ENDSEC
  0
SECTION
  2
ENTITIES
  0
LINE
  5
44
100
AcDbEntity
100
AcDbLine
  8
0
 62
256
370
-1
  6
ByLayer
 10
24.7087475178269429
 20
24.8409322059861211
 30
0.0
 11
22.8864899894513414
 21
32.0028251703924127
 31
0.0
  0
LINE
  5
45
100
AcDbEntity
100
AcDbLine
  8
0
 62
256
370
-1
  6
ByLayer
 10
31.8222575283756086
 20
22.8381070355937084
 30
0.0
 11
24.7087475178269571
 21
24.8409322059862063
 31
0.0
  0
LINE
  5
46
100
AcDbEntity
100
AcDbLine
  8
0
 62
256
370
-1
  6
ByLayer
 10
37.1135100105486444
 20
27.9971748296076157
 30
0.0
 11
31.8222575283755873
 21
22.8381070355937084
 31
0.0
  0
LINE
  5
47
100
AcDbEntity
100
AcDbLine
  8
0
 62
256
370
-1
  6
ByLayer
 10
35.29125248217305
 20
35.1590677940138221
 30
0.0
 11
37.1135100105486444
 21
27.9971748296076157
 31
0.0
  0
LINE
  5
48
100
AcDbEntity
100
AcDbLine
  8
0
 62
256
370
-1
  6
ByLayer
 10
28.1777424716243488
 20
37.1618929644062064
 30
0.0
 11
35.2912524821730429
 21
35.1590677940138221
 31
0.0
  0
LINE
  5
49
100
AcDbEntity
100
AcDbLine
  8
0
 62
256
370
-1
  6
ByLayer
 10
22.8864899894513201
 20
32.0028251703924127
 30
0.0
 11
28.1777424716243416
 21
37.1618929644062064
 31
0.0
  0
ARC
  5
4A
100
AcDbEntity
  8
0
 62
256
370
-1
  6
ByLayer
100
AcDbCircle
 10
30.0000000000016414
 20
29.9999999999990052
 30
0.0
 40
18.7500000000019398
100
AcDbArc
 50
146.6503120789178922
 51
148.9003120789176933
  0
ARC
  5
4B
100
AcDbEntity
  8
0
 62
256
370
-1
  6
ByLayer
100
AcDbCircle
 10
10.68834120507573
 20
29.0097984600340055
 30
0.0
 40
11.1608015372597205
100
AcDbArc
 50
73.0349136620844206
 51
85.2819739417273013
  0
ARC
  5
4C
100
AcDbEntity
  8
0
 62
256
370
-1
  6
ByLayer
100
AcDbCircle
 10
22.5640833831745695
 20
47.8501486987910027
 30
0.0
 40
11.1608015372601503
100
AcDbArc
 50
210.2686502161085969
 51
222.5157104957509944
  0
ARC
  5
4D
100
AcDbEntity
  8
0
 62
256
370
-1
  6
ByLayer
100
AcDbCircle
 10
30.0000000000003197
 20
29.999999999999801
 30
0.0
 40
18.7500000000003517
100
AcDbArc
 50
155.650312078917807
 51
157.9003120789174091
  0
ARC
  5
4E
100
AcDbEntity
  8
0
 62
256
370
-1
  6
ByLayer
100
AcDbCircle
 10
11.0810014188883486
 20
26.0009804715130031
 30
0.0
 40
11.1608015372594895
100
AcDbArc
 50
82.0349136620843211
 51
94.2819739417273865
  0
ARC
  5
4F
100
AcDbEntity
  8
0
 62
256
370
-1
  6
ByLayer
100
AcDbCircle
 10
19.8632533933398889
 20
46.4671501096485144
 30
0.0
 40
11.1608015372600704
100
AcDbArc
 50
219.2686502161085969
 51
231.5157104957509091
  0
ARC
  5
50
100
AcDbEntity
  8
0
 62
256
370
-1
  6
ByLayer
100
AcDbCircle
 10
30.0000000000082068
 20
29.9999999999980105
 30
0.0
 40
18.7500000000084484
100
AcDbArc
 50
164.6503120789184038
 51
166.9003120789174943
  0
ARC
  5
51
100
AcDbEntity
  8
0
 62
256
370
-1
  6
ByLayer
100
AcDbCircle
 10
11.9395101663243679
 20
23.0906316157679043
 30
0.0
 40
11.1608015372596103
100
AcDbArc
 50
91.0349136620844064
 51
103.2819739417274008
  0
ARC
  5
52
100
AcDbEntity
  8
0
 62
256
370
-1
  6
ByLayer
100
AcDbCircle
 10
17.4120237468943628
 20
44.6786756334683162
 30
0.0
 40
11.1608015372599105
100
AcDbArc
 50
228.2686502161085116
 51
240.5157104957511081
  0
ARC
  5
53
100
AcDbEntity
  8
0
 62
256
370
-1
  6
ByLayer
100
AcDbCircle
 10
30.000000000003979
 20
29.9999999999997158
 30
0.0
 40
18.7500000000039897
100
AcDbArc
 50
173.6503120789180912
 51
175.900312078917807
  0
ARC
  5
54
100
AcDbEntity
  8
0
 62
256
370
-1
  6
ByLayer
100
AcDbCircle
 10
13.2427281127949499
 20
20.3504143405212119
 30
0.0
 40
11.1608015372602001
100
AcDbArc
 50
100.0349136620847048
 51
112.2819739417270029
  0
ARC
  5
55
100
AcDbEntity
  8
0
 62
256
370
-1
  6
ByLayer
100
AcDbCircle
 10
15.270751852898492
 20
42.5287634474611025
 30
0.0
 40
11.1608015372601503
100
AcDbArc
 50
237.2686502161086253
 51
249.5157104957509091
  0
ARC
  5
56
100
AcDbEntity
  8
0
 62
256
370
-1
  6
ByLayer
100
AcDbCircle
 10
29.9999999999964402
 20
29.9999999999997158
 30
0.0
 40
18.7499999999964189
100
AcDbArc
 50
182.6503120789172954
 51
184.9003120789176933
  0
ARC
  5
57
100
AcDbEntity
  8
0
 62
256
370
-1
  6
ByLayer
100
AcDbCircle
 10
14.9585657073251426
 20
17.8478018893506203
 30
0.0
 40
11.1608015372597205
100
AcDbArc
 50
109.0349136620844064
 51
121.2819739417272018
  0
ARC
  5
58
100
AcDbEntity
  8
0
 62
256
370
-1
  6
ByLayer
100
AcDbCircle
 10
13.4921629318561429
 20
40.0703515247953135
 30
0.0
 40
11.1608015372601805
100
AcDbArc
 50
246.2686502161087105
 51
258.5157104957509091
  0
ARC
  5
59
100
AcDbEntity
  8
0
 62
256
370
-1
  6
ByLayer
100
AcDbCircle
 10
29.9999999999990763
 20
29.999999999999801
 30
0.0
 40
18.7499999999990514
100
AcDbArc
 50
191.6503120789176933
 51
193.9003120789180059
  0
ARC
  5
5A
100
AcDbEntity
  8
0
 62
256
370
-1
  6
ByLayer
100
AcDbCircle
 10
17.0447733337996326
 20
15.6444168864967139
 30
0.0
 40
11.1608015372599105
100
AcDbArc
 50
118.0349136620845201
 51
130.2819739417271023
  0
ARC
  5
5B
100
AcDbEntity
  8
0
 62
256
370
-1
  6
ByLayer
100
AcDbCircle
 10
12.1200517458016321
 20
37.3639741260081166
 30
0.0
 40
11.1608015372598803
100
AcDbArc
 50
255.2686502161084263
 51
267.5157104957510228
  0
ARC
  5
5C
100
AcDbEntity
  8
0
 62
256
370
-1
  6
ByLayer
100
AcDbCircle
 10
30.0000000000034106
 20
30.0000000000014211
 30
0.0
 40
18.7500000000036593
100
AcDbArc
 50
200.6503120789180059
 51
202.9003120789174091
  0
ARC
  5
5D
100
AcDbEntity
  8
0
 62
256
370
-1
  6
ByLayer
100
AcDbCircle
 10
19.4499816367281966
 20
13.7945139833463202
 30
0.0
 40
11.1608015372600207
100
AcDbArc
 50
127.0349136620846195
 51
139.2819739417271023
  0
ARC
  5
5E
100
AcDbEntity
  8
0
 62
256
370
-1
  6
ByLayer
100
AcDbCircle
 10
11.1882042259116901
 20
34.4762712446100181
 30
0.0
 40
11.1608015372599692
100
AcDbArc
 50
264.2686502161084832
 51
276.5157104957510796
  0
ARC
  5
5F
100
AcDbEntity
  8
0
 62
256
370
-1
  6
ByLayer
100
AcDbCircle
 10
29.9999999999923475
 20
29.9999999999954241
 30
0.0
 40
18.7499999999910898
100
AcDbArc
 50
209.6503120789172101
 51
211.9003120789180059
  0
ARC
  5
60
100
AcDbEntity
  8
0
 62
256
370
-1
  6
ByLayer
100
AcDbCircle
 10
22.1149664052639991
 20
12.3436439288506108
 30
0.0
 40
11.1608015372599993
100
AcDbArc
 50
136.0349136620847048
 51
148.2819739417271876
  0
ARC
  5
61
100
AcDbEntity
  8
0
 62
256
370
-1
  6
ByLayer
100
AcDbCircle
 10
10.7195655507505592
 20
31.478347709277017
 30
0.0
 40
11.1608015372599194
100
AcDbArc
 50
273.2686502161084832
 51
285.5157104957510796
  0
ARC
  5
62
100
AcDbEntity
  8
0
 62
256
370
-1
  6
ByLayer
100
AcDbCircle
 10
30.0000000000088534
 20
30.0000000000074181
 30
0.0
 40
18.7500000000115108
100
AcDbArc
 50
218.6503120789184038
 51
220.9003120789172101
  0
ARC
  5
63
100
AcDbEntity
  8
0
 62
256
370
-1
  6
ByLayer
100
AcDbCircle
 10
24.9741068698283186
 20
11.3275319589128003
 30
0.0
 40
11.1608015372599496
100
AcDbArc
 50
145.0349136620843922
 51
157.2819739417269886
  0
ARC
  5
64
100
AcDbEntity
  8
0
 62
256
370
-1
  6
ByLayer
100
AcDbCircle
 10
10.725675159823318
 20
28.4440223469867135
 30
0.0
 40
11.1608015372598306
100
AcDbArc
 50
282.2686502161084832
 51
294.5157104957511933
  0
ARC
  5
65
100
AcDbEntity
  8
0
 62
256
370
-1
  6
ByLayer
100
AcDbCircle
 10
30.0000000000037801
 20
30.0000000000043201
 30
0.0
 40
18.7500000000057483
100
AcDbArc
 50
227.6503120789182901
 51
229.9003120789174091
  0
ARC
  5
66
100
AcDbEntity
  8
0
 62
256
370
-1
  6
ByLayer
100
AcDbCircle
 10
27.9570015032404484
 20
10.7711981225151021
 30
0.0
 40
11.1608015372598697
100
AcDbArc
 50
154.0349136620847048
 51
166.2819739417273013
  0
ARC
  5
67
100
AcDbEntity
  8
0
 62
256
370
-1
  6
ByLayer
100
AcDbCircle
 10
11.2063826142779206
 20
25.4480103185076132
 30
0.0
 40
11.1608015372598697
100
AcDbArc
 50
291.2686502161084263
 51
303.5157104957510796
  0
ARC
  5
68
100
AcDbEntity
  8
0
 62
256
370
-1
  6
ByLayer
100
AcDbCircle
 10
30.0000000000010374
 20
30.00000000000162
 30
0.0
 40
18.7500000000019398
100
AcDbArc
 50
236.6503120789179206
 51
238.900312078917608
  0
ARC
  5
69
100
AcDbEntity
  8
0
 62
256
370
-1
  6
ByLayer
100
AcDbCircle
 10
30.9902015399659803
 20
10.6883412050757158
 30
0.0
 40
11.1608015372597205
100
AcDbArc
 50
163.0349136620845059
 51
175.2819739417273013
  0
ARC
  5
6A
100
AcDbEntity
  8
0
 62
256
370
-1
  6
ByLayer
100
AcDbCircle
 10
12.149851301208983
 20
22.5640833831746193
 30
0.0
 40
11.1608015372601503
100
AcDbArc
 50
300.2686502161087105
 51
312.5157104957510796
  0
ARC
  5
6B
100
AcDbEntity
  8
0
 62
256
370
-1
  6
ByLayer
100
AcDbCircle
 10
30.0000000000006466
 20
30.0000000000014211
 30
0.0
 40
18.750000000001581
100
AcDbArc
 50
245.650312078917807
 51
247.9003120789177217
  0
ARC
  5
6C
100
AcDbEntity
  8
0
 62
256
370
-1
  6
ByLayer
100
AcDbCircle
 10
33.9990195284877288
 20
11.0810014188883201
 30
0.0
 40
11.1608015372602498
100
AcDbArc
 50
172.0349136620847048
 51
184.2819739417269034
  0
ARC
  5
6D
100
AcDbEntity
  8
0
 62
256
370
-1
  6
ByLayer
100
AcDbCircle
 10
13.5328498903516206
 20
19.8632533933398179
 30
0.0
 40
11.1608015372599603
100
AcDbArc
 50
309.2686502161085969
 51
321.5157104957509091
  0
ARC
  5
6E
100
AcDbEntity
  8
0
 62
256
370
-1
  6
ByLayer
100
AcDbCircle
 10
30.0000000000020393
 20
30.0000000000082139
 30
0.0
 40
18.7500000000084484
100
AcDbArc
 50
254.6503120789184607
 51
256.9003120789175227
  0
ARC
  5
6F
100
AcDbEntity
  8
0
 62
256
370
-1
  6
ByLayer
100
AcDbCircle
 10
36.9093683842322307
 20
11.9395101663244247
 30
0.0
 40
11.1608015372597809
100
AcDbArc
 50
181.0349136620843069
 51
193.2819739417271876
  0
ARC
  5
70
100
AcDbEntity
  8
0
 62
256
370
-1
  6
ByLayer
100
AcDbCircle
 10
15.321324366531627
 20
17.4120237468944197
 30
0.0
 40
11.1608015372599496
100
AcDbArc
 50
318.2686502161084832
 51
330.5157104957510228
  0
ARC
  5
71
100
AcDbEntity
  8
0
 62
256
370
-1
  6
ByLayer
100
AcDbCircle
 10
30.0000000000000426
 20
30.0000000000004263
 30
0.0
 40
18.7500000000003411
100
AcDbArc
 50
263.650312078917807
 51
265.9003120789179206
  0
ARC
  5
72
100
AcDbEntity
  8
0
 62
256
370
-1
  6
ByLayer
100
AcDbCircle
 10
39.6495856594789942
 20
13.2427281127950209
 30
0.0
 40
11.1608015372603795
100
AcDbArc
 50
190.0349136620849038
 51
202.2819739417269886
  0
ARC
  5
73
100
AcDbEntity
  8
0
 62
256
370
-1
  6
ByLayer
100
AcDbCircle
 10
17.4712365525390112
 20
15.2707518528983996
 30
0.0
 40
11.1608015372599905
100
AcDbArc
 50
327.2686502161084832
 51
339.5157104957510796
  0
ARC
  5
74
100
AcDbEntity
  8
0
 62
256
370
-1
  6
ByLayer
100
AcDbCircle
 10
29.9999999999999716
 20
30.0000000000007105
 30
0.0
 40
18.7500000000007105
100
AcDbArc
 50
272.650312078917807
 51
274.9003120789175227
  0
ARC
  5
75
100
AcDbEntity
  8
0
 62
256
370
-1
  6
ByLayer
100
AcDbCircle
 10
42.1521981106496852
 20
14.958565707325306
 30
0.0
 40
11.1608015372599993
100
AcDbArc
 50
199.0349136620845911
 51
211.2819739417271876
  0
ARC
  5
76
100
AcDbEntity
  8
0
 62
256
370
-1
  6
ByLayer
100
AcDbCircle
 10
19.9296484752050418
 20
13.4921629318560008
 30
0.0
 40
11.1608015372598199
100
AcDbArc
 50
336.2686502161084263
 51
348.5157104957510796
  0
ARC
  5
77
100
AcDbEntity
  8
0
 62
256
370
-1
  6
ByLayer
100
AcDbCircle
 10
29.9999999999995381
 20
30.0000000000021032
 30
0.0
 40
18.7500000000021387
100
AcDbArc
 50
281.6503120789179206
 51
283.9003120789175227
  0
ARC
  5
78
100
AcDbEntity
  8
0
 62
256
370
-1
  6
ByLayer
100
AcDbCircle
 10
44.3555831135032648
 20
17.0447733337996112
 30
0.0
 40
11.1608015372599105
100
AcDbArc
 50
208.0349136620845059
 51
220.2819739417271876
  0
ARC
  5
79
100
AcDbEntity
  8
0
 62
256
370
-1
  6
ByLayer
100
AcDbCircle
 10
22.6360258739916418
 20
12.1200517458017032
 30
0.0
 40
11.1608015372601397
100
AcDbArc
 50
345.2686502161084832
 51
357.5157104957510796
  0
ARC
  5
7A
100
AcDbEntity
  8
0
 62
256
370
-1
  6
ByLayer
100
AcDbCircle
 10
29.99999999999865
 20
30.0000000000034106
 30
0.0
 40
18.7500000000036593
100
AcDbArc
 50
290.6503120789179775
 51
292.9003120789175796
  0
ARC
  5
7B
100
AcDbEntity
  8
0
 62
256
370
-1
  6
ByLayer
100
AcDbCircle
 10
46.2054860166536727
 20
19.4499816367282108
 30
0.0
 40
11.1608015372599905
100
AcDbArc
 50
217.0349136620845911
 51
229.2819739417271023
  0
ARC
  5
7C
100
AcDbEntity
  8
0
 62
256
370
-1
  6
ByLayer
100
AcDbCircle
 10
25.5237287553901808
 20
11.1882042259117043
 30
0.0
 40
11.1608015372597595
100
AcDbArc
 50
354.2686502161084263
 51
6.515710495751029
  0
ARC
  5
7D
100
AcDbEntity
  8
0
 62
256
370
-1
  6
ByLayer
100
AcDbCircle
 10
30.0000000000045901
 20
29.9999999999924114
 30
0.0
 40
18.7499999999910898
100
AcDbArc
 50
299.6503120789171817
 51
301.9003120789182049
  0
ARC
  5
7E
100
AcDbEntity
  8
0
 62
256
370
-1
  6
ByLayer
100
AcDbCircle
 10
47.6563560711493963
 20
22.1149664052639991
 30
0.0
 40
11.1608015372599798
100
AcDbArc
 50
226.0349136620845059
 51
238.2819739417271023
  0
ARC
  5
7F
100
AcDbEntity
  8
0
 62
256
370
-1
  6
ByLayer
100
AcDbCircle
 10
28.5216522907230328
 20
10.719565550750616
 30
0.0
 40
11.1608015372599105
100
AcDbArc
 50
3.2686502161085809
 51
15.5157104957511276
  0
ARC
  5
80
100
AcDbEntity
  8
0
 62
256
370
-1
  6
ByLayer
100
AcDbCircle
 10
29.9999999999926672
 20
30.0000000000088107
 30
0.0
 40
18.7500000000114504
100
AcDbArc
 50
308.6503120789184891
 51
310.9003120789171817
  0
ARC
  5
81
100
AcDbEntity
  8
0
 62
256
370
-1
  6
ByLayer
100
AcDbCircle
 10
48.6724680410872068
 20
24.9741068698283186
 30
0.0
 40
11.1608015372599603
100
AcDbArc
 50
235.0349136620846195
 51
247.2819739417270171
  0
ARC
  5
82
100
AcDbEntity
  8
0
 62
256
370
-1
  6
ByLayer
100
AcDbCircle
 10
31.5559776530134428
 20
10.7256751598234246
 30
0.0
 40
11.1608015372596494
100
AcDbArc
 50
12.2686502161083695
 51
24.5157104957512111
  0
ARC
  5
83
100
AcDbEntity
  8
0
 62
256
370
-1
  6
ByLayer
100
AcDbCircle
 10
29.9999999999956728
 20
30.0000000000038085
 30
0.0
 40
18.7500000000057483
100
AcDbArc
 50
317.6503120789182049
 51
319.9003120789175227
  0
ARC
  5
84
100
AcDbEntity
  8
0
 62
256
370
-1
  6
ByLayer
100
AcDbCircle
 10
49.2288018774850045
 20
27.9570015032407184
 30
0.0
 40
11.1608015372601805
100
AcDbArc
 50
244.0349136620847048
 51
256.2819739417270739
  0
ARC
  5
85
100
AcDbEntity
  8
0
 62
256
370
-1
  6
ByLayer
100
AcDbCircle
 10
34.5519896814924721
 20
11.2063826142779988
 30
0.0
 40
11.1608015372598093
100
AcDbArc
 50
21.2686502161085116
 51
33.5157104957513496
  0
ARC
  5
86
100
AcDbEntity
  8
0
 62
256
370
-1
  6
ByLayer
100
AcDbCircle
 10
29.9999999999981171
 20
30.0000000000012221
 30
0.0
 40
18.7500000000022311
100
AcDbArc
 50
326.6503120789179775
 51
328.9003120789176933
  0
ARC
  5
87
100
AcDbEntity
  8
0
 62
256
370
-1
  6
ByLayer
100
AcDbCircle
 10
49.3116587949242771
 20
30.9902015399660229
 30
0.0
 40
11.1608015372597098
100
AcDbArc
 50
253.0349136620845059
 51
265.2819739417271876
  0
ARC
  5
88
100
AcDbEntity
  8
0
 62
256
370
-1
  6
ByLayer
100
AcDbCircle
 10
37.4359166168254731
 20
12.1498513012090257
 30
0.0
 40
11.1608015372601006
100
AcDbArc
 50
30.2686502161085116
 51
42.5157104957509375
  0
ARC
  5
89
100
AcDbEntity
  8
0
 62
256
370
-1
  6
ByLayer
100
AcDbCircle
 10
29.9999999999985718
 20
30.0000000000007105
 30
0.0
 40
18.750000000001581
100
AcDbArc
 50
335.650312078917807
 51
337.9003120789175796
  0
ARC
  5
8A
100
AcDbEntity
  8
0
 62
256
370
-1
  6
ByLayer
100
AcDbCircle
 10
48.9189985811116728
 20
33.9990195284873096
 30
0.0
 40
11.1608015372598093
100
AcDbArc
 50
262.0349136620844774
 51
274.2819739417271876
  0
ARC
  5
8B
100
AcDbEntity
  8
0
 62
256
370
-1
  6
ByLayer
100
AcDbCircle
 10
40.1367466066601892
 20
13.5328498903517129
 30
0.0
 40
11.1608015372599603
100
AcDbArc
 50
39.2686502161084334
 51
51.5157104957511081
  0
ARC
  5
8C
100
AcDbEntity
  8
0
 62
256
370
-1
  6
ByLayer
100
AcDbCircle
 10
29.9999999999981597
 20
30.0000000000005116
 30
0.0
 40
18.7500000000019007
100
AcDbArc
 50
344.6503120789179775
 51
346.9003120789175227
  0
ARC
  5
8D
100
AcDbEntity
  8
0
 62
256
370
-1
  6
ByLayer
100
AcDbCircle
 10
48.0604898336755539
 20
36.9093683842327209
 30
0.0
 40
11.1608015372602196
100
AcDbArc
 50
271.0349136620847048
 51
283.2819739417270171
  0
ARC
  5
8E
100
AcDbEntity
  8
0
 62
256
370
-1
  6
ByLayer
100
AcDbCircle
 10
42.5879762531055448
 20
15.3213243665315133
 30
0.0
 40
11.1608015372601006
100
AcDbArc
 50
48.268650216108469
 51
60.5157104957508665
  0
ARC
  5
8F
100
AcDbEntity
  8
0
 62
256
370
-1
  6
ByLayer
100
AcDbCircle
 10
29.9999999999996589
 20
30.0000000000001137
 30
0.0
 40
18.7500000000003411
100
AcDbArc
 50
353.650312078917807
 51
355.9003120789176933
  0
ARC
  5
90
100
AcDbEntity
  8
0
 62
256
370
-1
  6
ByLayer
100
AcDbCircle
 10
46.7572718872050714
 20
39.6495856594787028
 30
0.0
 40
11.1608015372601006
100
AcDbArc
 50
280.0349136620845911
 51
292.2819739417270739
  0
ARC
  5
91
100
AcDbEntity
  8
0
 62
256
370
-1
  6
ByLayer
100
AcDbCircle
 10
44.7292481471014938
 20
17.4712365525388122
 30
0.0
 40
11.1608015372601805
100
AcDbArc
 50
57.2686502161086608
 51
69.5157104957509659
  0
ARC
  5
92
100
AcDbEntity
  8
0
 62
256
370
-1
  6
ByLayer
100
AcDbCircle
 10
30.0000000000034817
 20
30.0000000000003126
 30
0.0
 40
18.7499999999965112
100
AcDbArc
 50
2.6503120789173722
 51
4.9003120789177483
  0
ARC
  5
93
100
AcDbEntity
  8
0
 62
256
370
-1
  6
ByLayer
100
AcDbCircle
 10
45.0414342926747722
 20
42.1521981106496071
 30
0.0
 40
11.1608015372599301
100
AcDbArc
 50
289.0349136620845911
 51
301.2819739417270739
  0
ARC
  5
94
100
AcDbEntity
  8
0
 62
256
370
-1
  6
ByLayer
100
AcDbCircle
 10
46.5078370681439068
 20
19.9296484752049139
 30
0.0
 40
11.1608015372599905
100
AcDbArc
 50
66.2686502161084974
 51
78.5157104957509233
  0
ARC
  5
95
100
AcDbEntity
  8
0
 62
256
370
-1
  6
ByLayer
100
AcDbCircle
 10
29.9999999999979181
 20
29.9999999999995168
 30
0.0
 40
18.7500000000021387
100
AcDbArc
 50
11.6503120789177608
 51
13.9003120789173593
  0
ARC
  5
96
100
AcDbEntity
  8
0
 62
256
370
-1
  6
ByLayer
100
AcDbCircle
 10
42.9552266662003817
 20
44.3555831135033145
 30
0.0
 40
11.1608015372599105
100
AcDbArc
 50
298.0349136620845911
 51
310.2819739417271876
  0
ARC
  5
97
100
AcDbEntity
  8
0
 62
256
370
-1
  6
ByLayer
100
AcDbCircle
 10
47.8799482541984034
 20
22.6360258739920255
 30
0.0
 40
11.1608015372597702
100
AcDbArc
 50
75.2686502161084405
 51
87.5157104957511649
  0
ARC
  5
98
100
AcDbEntity
  8
0
 62
256
370
-1
  6
ByLayer
100
AcDbCircle
 10
29.9999999999965894
 20
29.999999999998721
 30
0.0
 40
18.7500000000036593
100
AcDbArc
 50
20.6503120789179988
 51
22.9003120789174801
  0
ARC
  5
99
100
AcDbEntity
  8
0
 62
256
370
-1
  6
ByLayer
100
AcDbCircle
 10
40.5500183632718105
 20
46.2054860166537082
 30
0.0
 40
11.1608015372600207
100
AcDbArc
 50
307.0349136620845911
 51
319.2819739417270739
  0
ARC
  5
9A
100
AcDbEntity
  8
0
 62
256
370
-1
  6
ByLayer
100
AcDbCircle
 10
48.8117957740883313
 20
25.5237287553900103
 30
0.0
 40
11.1608015372599692
100
AcDbArc
 50
84.2686502161085542
 51
96.5157104957510938
  0
ARC
  5
9B
100
AcDbEntity
  8
0
 62
256
370
-1
  6
ByLayer
100
AcDbCircle
 10
30.0000000000079794
 20
30.0000000000048033
 30
0.0
 40
18.7499999999907203
100
AcDbArc
 50
29.6503120789172065
 51
31.9003120789183576
  0
ARC
  5
9C
100
AcDbEntity
  8
0
 62
256
370
-1
  6
ByLayer
100
AcDbCircle
 10
37.8850335947359511
 20
47.6563560711495029
 30
0.0
 40
11.1608015372600793
100
AcDbArc
 50
316.0349136620845911
 51
328.2819739417270739
  0
ARC
  5
9D
100
AcDbEntity
  8
0
 62
256
370
-1
  6
ByLayer
100
AcDbCircle
 10
49.2804344492494479
 20
28.5216522907230114
 30
0.0
 40
11.1608015372599105
100
AcDbArc
 50
93.2686502161085116
 51
105.5157104957509944
  0
ARC
  5
9E
100
AcDbEntity
  8
0
 62
256
370
-1
  6
ByLayer
100
AcDbCircle
 10
29.9999999999911893
 20
29.999999999992724
 30
0.0
 40
18.7500000000114788
100
AcDbArc
 50
38.650312078918553
 51
40.9003120789170822
  0
ARC
  5
9F
100
AcDbEntity
  8
0
 62
256
370
-1
  6
ByLayer
100
AcDbCircle
 10
35.0258931301714327
 20
48.6724680410873134
 30
0.0
 40
11.1608015372602303
100
AcDbArc
 50
325.0349136620847048
 51
337.2819739417269034
  0
ARC
  5
A0
100
AcDbEntity
  8
0
 62
256
370
-1
  6
ByLayer
100
AcDbCircle
 10
49.2743248401766394
 20
31.5559776530133149
 30
0.0
 40
11.16080153725974
100
AcDbArc
 50
102.2686502161082984
 51
114.5157104957510938
  0
ARC
  5
A1
100
AcDbEntity
  8
0
 62
256
370
-1
  6
ByLayer
100
AcDbCircle
 10
29.9999999999962412
 20
29.9999999999957083
 30
0.0
 40
18.7500000000057483
100
AcDbArc
 50
47.6503120789182617
 51
49.9003120789174233
  0
ARC
  5
A2
100
AcDbEntity
  8
0
 62
256
370
-1
  6
ByLayer
100
AcDbCircle
 10
32.0429984967595516
 20
49.2288018774849263
 30
0.0
 40
11.1608015372598697
100
AcDbArc
 50
334.0349136620845911
 51
346.281973941727415
  0
ARC
  5
A3
100
AcDbEntity
  8
0
 62
256
370
-1
  6
ByLayer
100
AcDbCircle
 10
48.7936173857220936
 20
34.5519896814924152
 30
0.0
 40
11.1608015372598697
100
AcDbArc
 50
111.2686502161084974
 51
123.5157104957510796
  0
ARC
  5
A4
100
AcDbEntity
  8
0
 62
256
370
-1
  6
ByLayer
100
AcDbCircle
 10
29.9999999999987921
 20
29.9999999999981242
 30
0.0
 40
18.7500000000022702
100
AcDbArc
 50
56.650312078917942
 51
58.9003120789176009
  0
ARC
  5
A5
100
AcDbEntity
  8
0
 62
256
370
-1
  6
ByLayer
100
AcDbCircle
 10
29.0097984600338918
 20
49.3116587949243126
 30
0.0
 40
11.1608015372598501
100
AcDbArc
 50
343.0349136620844774
 51
355.2819739417270739
  0
ARC
  5
A6
100
AcDbEntity
  8
0
 62
256
370
-1
  6
ByLayer
100
AcDbCircle
 10
47.850148698790953
 20
37.4359166168255229
 30
0.0
 40
11.1608015372600402
100
AcDbArc
 50
120.2686502161084974
 51
132.5157104957509944
  0
ARC
  5
A7
100
AcDbEntity
  8
0
 62
256
370
-1
  6
ByLayer
100
AcDbCircle
 10
29.9999999999993605
 20
29.9999999999985221
 30
0.0
 40
18.750000000001581
100
AcDbArc
 50
65.6503120789178212
 51
67.9003120789177075
  0
ARC
  5
A8
100
AcDbEntity
  8
0
 62
256
370
-1
  6
ByLayer
100
AcDbCircle
 10
26.0009804715124702
 20
48.9189985811117083
 30
0.0
 40
11.1608015372600509
100
AcDbArc
 50
352.0349136620845911
 51
4.2819739417269362
  0
ARC
  5
A9
100
AcDbEntity
  8
0
 62
256
370
-1
  6
ByLayer
100
AcDbCircle
 10
46.4671501096485073
 20
40.1367466066601253
 30
0.0
 40
11.1608015372601503
100
AcDbArc
 50
129.2686502161085969
 51
141.5157104957509944
  0
ARC
  5
AA
100
AcDbEntity
  8
0
 62
256
370
-1
  6
ByLayer
100
AcDbCircle
 10
29.9999999999979607
 20
29.9999999999918145
 30
0.0
 40
18.7500000000084484
100
AcDbArc
 50
74.6503120789184607
 51
76.900312078917537
  0
ARC
  5
AB
100
AcDbEntity
  8
0
 62
256
370
-1
  6
ByLayer
100
AcDbCircle
 10
23.090631615767947
 20
48.0604898336757174
 30
0.0
 40
11.1608015372596103
100
AcDbArc
 50
1.0349136620843591
 51
13.2819739417274505
  0
ARC
  5
AC
100
AcDbEntity
  8
0
 62
256
370
-1
  6
ByLayer
100
AcDbCircle
 10
44.6786756334683233
 20
42.5879762531057224
 30
0.0
 40
11.1608015372599105
100
AcDbArc
 50
138.2686502161083126
 51
150.5157104957509944
  0
ARC
  5
AD
100
AcDbEntity
  8
0
 62
256
370
-1
  6
ByLayer
100
AcDbCircle
 10
29.9999999999999716
 20
29.9999999999997158
 30
0.0
 40
18.7500000000003411
100
AcDbArc
 50
83.6503120789177785
 51
85.9003120789178496
  0
ARC
  5
AE
100
AcDbEntity
  8
0
 62
256
370
-1
  6
ByLayer
100
AcDbCircle
 10
20.3504143405212901
 20
46.7572718872051212
 30
0.0
 40
11.1608015372601006
100
AcDbArc
 50
10.0349136620846995
 51
22.2819739417271805
  0
ARC
  5
AF
100
AcDbEntity
  8
0
 62
256
370
-1
  6
ByLayer
100
AcDbCircle
 10
42.5287634474611664
 20
44.7292481471015151
 30
0.0
 40
11.1608015372601805
100
AcDbArc
 50
147.2686502161087105
 51
159.5157104957509944
  0
ARC
  5
B0
100
AcDbEntity
  8
0
 62
256
370
-1
  6
ByLayer
100
AcDbCircle
 10
29.9999999999997229
 20
30.0000000000035243
 30
0.0
 40
18.7499999999964189
100
AcDbArc
 50
92.6503120789173948
 51
94.9003120789178212
  0
ARC
  5
B1
100
AcDbEntity
  8
0
 62
256
370
-1
  6
ByLayer
100
AcDbCircle
 10
17.8478018893505279
 20
45.0414342926749214
 30
0.0
 40
11.1608015372597507
100
AcDbArc
 50
19.0349136620844206
 51
31.2819739417272515
  0
ARC
  5
B2
100
AcDbEntity
  8
0
 62
256
370
-1
  6
ByLayer
100
AcDbCircle
 10
40.0703515247951216
 20
46.5078370681439139
 30
0.0
 40
11.1608015372599905
100
AcDbArc
 50
156.2686502161085969
 51
168.5157104957511081
  0
ARC
  5
B3
100
AcDbEntity
  8
0
 62
256
370
-1
  6
ByLayer
100
AcDbCircle
 10
29.9999999999997868
 20
30.0000000000009095
 30
0.0
 40
18.7499999999990514
100
AcDbArc
 50
101.6503120789176933
 51
103.9003120789179064
  0
ARC
  5
B4
100
AcDbEntity
  8
0
 62
256
370
-1
  6
ByLayer
100
AcDbCircle
 10
15.6444168864967494
 20
42.9552266662004172
 30
0.0
 40
11.1608015372599105
100
AcDbArc
 50
28.0349136620844384
 51
40.2819739417271308
  0
ARC
  5
B5
100
AcDbEntity
  8
0
 62
256
370
-1
  6
ByLayer
100
AcDbCircle
 10
37.3639741260081095
 20
47.8799482541984105
 30
0.0
 40
11.1608015372598803
100
AcDbArc
 50
165.2686502161085116
 51
177.5157104957511081
  0
ARC
  5
B6
100
AcDbEntity
  8
0
 62
256
370
-1
  6
ByLayer
100
AcDbCircle
 10
30.00000000000135
 20
29.9999999999966178
 30
0.0
 40
18.7500000000036593
100
AcDbArc
 50
110.6503120789180059
 51
112.9003120789174943
  0
ARC
  5
B7
100
AcDbEntity
  8
0
 62
256
370
-1
  6
ByLayer
100
AcDbCircle
 10
13.7945139833463273
 20
40.5500183632718176
 30
0.0
 40
11.1608015372600207
100
AcDbArc
 50
37.0349136620845272
 51
49.2819739417271379
  0
ARC
  5
B8
100
AcDbEntity
  8
0
 62
256
370
-1
  6
ByLayer
100
AcDbCircle
 10
34.4762712446100394
 20
48.8117957740883242
 30
0.0
 40
11.1608015372599692
100
AcDbArc
 50
174.2686502161085969
 51
186.5157104957511933
  0
ARC
  5
B9
100
AcDbEntity
  8
0
 62
256
370
-1
  6
ByLayer
100
AcDbCircle
 10
30.0000000000007816
 20
29.999999999998721
 30
0.0
 40
18.7500000000015312
100
AcDbArc
 50
119.6503120789177075
 51
121.9003120789175938
  0
ARC
  5
BA
100
AcDbEntity
  8
0
 62
256
370
-1
  6
ByLayer
100
AcDbCircle
 10
12.3436439288505966
 20
37.8850335947360009
 30
0.0
 40
11.1608015372599905
100
AcDbArc
 50
46.0349136620844988
 51
58.2819739417270526
  0
ARC
  5
BB
100
AcDbEntity
  8
0
 62
256
370
-1
  6
ByLayer
100
AcDbCircle
 10
31.4783477092768393
 20
49.2804344492494124
 30
0.0
 40
11.1608015372597702
100
AcDbArc
 50
183.2686502161083126
 51
195.5157104957511933
  0
ARC
  5
BC
100
AcDbEntity
  8
0
 62
256
370
-1
  6
ByLayer
100
AcDbCircle
 10
30.0000000000073328
 20
29.9999999999912177
 30
0.0
 40
18.7500000000114397
100
AcDbArc
 50
128.6503120789184891
 51
130.9003120789170964
  0
ARC
  5
BD
100
AcDbEntity
  8
0
 62
256
370
-1
  6
ByLayer
100
AcDbCircle
 10
11.32753195891285
 20
35.0258931301718235
 30
0.0
 40
11.1608015372598608
100
AcDbArc
 50
55.0349136620845769
 51
67.2819739417273297
  0
ARC
  5
BE
100
AcDbEntity
  8
0
 62
256
370
-1
  6
ByLayer
100
AcDbCircle
 10
28.4440223469867206
 20
49.2743248401766039
 30
0.0
 40
11.1608015372598004
100
AcDbArc
 50
192.2686502161083126
 51
204.5157104957511933
  0
ARC
  5
BF
100
AcDbEntity
  8
0
 62
256
370
-1
  6
ByLayer
100
AcDbCircle
 10
25.4480103185076416
 20
48.7936173857221149
 30
0.0
 40
11.1608015372599301
100
AcDbArc
 50
201.2686502161083979
 51
213.5157104957511081
  0
ARC
  5
C0
100
AcDbEntity
  8
0
 62
256
370
-1
  6
ByLayer
100
AcDbCircle
 10
30.0000000000042704
 20
29.9999999999963052
 30
0.0
 40
18.7500000000056488
100
AcDbArc
 50
137.6503120789182049
 51
139.9003120789172954
  0
ARC
  5
C1
100
AcDbEntity
  8
0
 62
256
370
-1
  6
ByLayer
100
AcDbCircle
 10
10.7711981225151376
 20
32.0429984967597079
 30
0.0
 40
11.1608015372597702
100
AcDbArc
 50
64.0349136620844348
 51
76.281973941727145
  0
ARC
  5
C2
100
AcDbEntity
  8
0
 62
256
370
-1
  6
ByLayer
100
AcDbCircle
 10
29.9999999999940314
 20
30.0000000000031264
 30
0.0
 40
20.9999999999932712
100
AcDbArc
 50
151.1503120789176933
 51
153.4003120789180912
  0
ARC
  5
C3
100
AcDbEntity
  8
0
 62
256
370
-1
  6
ByLayer
100
AcDbCircle
 10
29.9999999999918785
 20
30.0000000000027001
 30
0.0
 40
20.9999999999914202
100
AcDbArc
 50
160.150312078917608
 51
162.4003120789182901
  0
ARC
  5
C4
100
AcDbEntity
  8
0
 62
256
370
-1
  6
ByLayer
100
AcDbCircle
 10
30.0000000000061817
 20
29.99999999999892
 30
0.0
 40
21.0000000000062812
100
AcDbArc
 50
169.1503120789182049
 51
171.4003120789174943
  0
ARC
  5
C5
100
AcDbEntity
  8
0
 62
256
370
-1
  6
ByLayer
100
AcDbCircle
 10
29.9999999999924611
 20
30.0000000000001137
 30
0.0
 40
20.9999999999924611
100
AcDbArc
 50
178.1503120789172101
 51
180.4003120789184038
  0
ARC
  5
C6
100
AcDbEntity
  8
0
 62
256
370
-1
  6
ByLayer
100
AcDbCircle
 10
29.9999999999967386
 20
29.9999999999995168
 30
0.0
 40
20.9999999999967102
100
AcDbArc
 50
187.1503120789178922
 51
189.4003120789178922
  0
ARC
  5
C7
100
AcDbEntity
  8
0
 62
256
370
-1
  6
ByLayer
100
AcDbCircle
 10
30.0000000000012008
 20
30.0000000000003126
 30
0.0
 40
21.0000000000012292
100
AcDbArc
 50
196.1503120789180912
 51
198.4003120789176933
  0
ARC
  5
C8
100
AcDbEntity
  8
0
 62
256
370
-1
  6
ByLayer
100
AcDbCircle
 10
30.0000000000004405
 20
30.0000000000003126
 30
0.0
 40
21.0000000000005187
100
AcDbArc
 50
205.1503120789180059
 51
207.4003120789178922
  0
ARC
  5
C9
100
AcDbEntity
  8
0
 62
256
370
-1
  6
ByLayer
100
AcDbCircle
 10
29.9999999999925819
 20
29.9999999999947988
 30
0.0
 40
20.9999999999909299
100
AcDbArc
 50
214.150312078917807
 51
216.4003120789184038
  0
ARC
  5
CA
100
AcDbEntity
  8
0
 62
256
370
-1
  6
ByLayer
100
AcDbCircle
 10
30.0000000000003908
 20
30.0000000000004263
 30
0.0
 40
21.00000000000054
100
AcDbArc
 50
223.150312078917807
 51
225.4003120789176933
  0
ARC
  5
CB
100
AcDbEntity
  8
0
 62
256
370
-1
  6
ByLayer
100
AcDbCircle
 10
30.0000000000014424
 20
30.0000000000019043
 30
0.0
 40
21.0000000000024407
100
AcDbArc
 50
232.1503120789178354
 51
234.4003120789177785
  0
ARC
  5
CC
100
AcDbEntity
  8
0
 62
256
370
-1
  6
ByLayer
100
AcDbCircle
 10
30.0000000000009663
 20
30.0000000000017053
 30
0.0
 40
21.0000000000019504
100
AcDbArc
 50
241.1503120789178922
 51
243.4003120789174943
  0
ARC
  5
CD
100
AcDbEntity
  8
0
 62
256
370
-1
  6
ByLayer
100
AcDbCircle
 10
30.0000000000000711
 20
30.000000000000199
 30
0.0
 40
21.0000000000002309
100
AcDbArc
 50
250.1503120789178922
 51
252.4003120789177785
  0
ARC
  5
CE
100
AcDbEntity
  8
0
 62
256
370
-1
  6
ByLayer
100
AcDbCircle
 10
30.0000000000015277
 20
30.0000000000089244
 30
0.0
 40
21.0000000000090594
100
AcDbArc
 50
259.1503120789184891
 51
261.4003120789174091
  0
ARC
  5
CF
100
AcDbEntity
  8
0
 62
256
370
-1
  6
ByLayer
100
AcDbCircle
 10
29.9999999999999218
 20
29.9999999999922125
 30
0.0
 40
20.9999999999921982
100
AcDbArc
 50
268.1503120789175227
 51
270.4003120789180912
  0
ARC
  5
D0
100
AcDbEntity
  8
0
 62
256
370
-1
  6
ByLayer
100
AcDbCircle
 10
30.0000000000009663
 20
29.9999999999931219
 30
0.0
 40
20.9999999999930012
100
AcDbArc
 50
277.1503120789175227
 51
279.4003120789183185
  0
ARC
  5
D1
100
AcDbEntity
  8
0
 62
256
370
-1
  6
ByLayer
100
AcDbCircle
 10
29.9999999999997868
 20
30.0000000000008242
 30
0.0
 40
21.0000000000007603
100
AcDbArc
 50
286.150312078917807
 51
288.4003120789176933
  0
ARC
  5
D2
100
AcDbEntity
  8
0
 62
256
370
-1
  6
ByLayer
100
AcDbCircle
 10
30.0000000000017266
 20
29.9999999999965041
 30
0.0
 40
20.9999999999960814
100
AcDbArc
 50
295.1503120789175227
 51
297.4003120789180912
  0
ARC
  5
D3
100
AcDbEntity
  8
0
 62
256
370
-1
  6
ByLayer
100
AcDbCircle
 10
29.9999999999957012
 20
30.0000000000060254
 30
0.0
 40
21.000000000007379
100
AcDbArc
 50
304.1503120789187165
 51
306.4003120789175227
  0
ARC
  5
D4
100
AcDbEntity
  8
0
 62
256
370
-1
  6
ByLayer
100
AcDbCircle
 10
29.9999999999995381
 20
30.0000000000005116
 30
0.0
 40
21.0000000000006892
100
AcDbArc
 50
313.1503120789179206
 51
315.400312078917807
  0
ARC
  5
D5
100
AcDbEntity
  8
0
 62
256
370
-1
  6
ByLayer
100
AcDbCircle
 10
29.9999999999928306
 20
30.0000000000053149
 30
0.0
 40
21.0000000000089102
100
AcDbArc
 50
322.1503120789184891
 51
324.4003120789174091
  0
ARC
  5
D6
100
AcDbEntity
  8
0
 62
256
370
-1
  6
ByLayer
100
AcDbCircle
 10
29.9999999999931219
 20
30.0000000000036096
 30
0.0
 40
21.0000000000077804
100
AcDbArc
 50
331.1503120789182049
 51
333.4003120789174091
  0
ARC
  5
D7
100
AcDbEntity
  8
0
 62
256
370
-1
  6
ByLayer
100
AcDbCircle
 10
30.0000000000078515
 20
29.9999999999974136
 30
0.0
 40
20.9999999999917186
100
AcDbArc
 50
340.1503120789171817
 51
342.4003120789182049
  0
ARC
  5
D8
100
AcDbEntity
  8
0
 62
256
370
-1
  6
ByLayer
100
AcDbCircle
 10
29.9999999999930012
 20
30.0000000000012221
 30
0.0
 40
21.0000000000070983
100
AcDbArc
 50
349.1503120789183754
 51
351.4003120789174091
  0
ARC
  5
D9
100
AcDbEntity
  8
0
 62
256
370
-1
  6
ByLayer
100
AcDbCircle
 10
29.9999999999996092
 20
30.0
 30
0.0
 40
21.0000000000004015
100
AcDbArc
 50
358.1503120789183185
 51
0.4003120789174908
  0
ARC
  5
DA
100
AcDbEntity
  8
0
 62
256
370
-1
  6
ByLayer
100
AcDbCircle
 10
30.0000000000030767
 20
30.0000000000004263
 30
0.0
 40
20.9999999999968985
100
AcDbArc
 50
7.1503120789179331
 51
9.4003120789179881
  0
ARC
  5
DB
100
AcDbEntity
  8
0
 62
256
370
-1
  6
ByLayer
100
AcDbCircle
 10
30.0000000000008527
 20
30.0000000000003126
 30
0.0
 40
20.9999999999991296
100
AcDbArc
 50
16.1503120789177714
 51
18.4003120789179313
  0
ARC
  5
DC
100
AcDbEntity
  8
0
 62
256
370
-1
  6
ByLayer
100
AcDbCircle
 10
30.0000000000003979
 20
30.000000000000199
 30
0.0
 40
20.9999999999995595
100
AcDbArc
 50
25.1503120789181907
 51
27.400312078917981
  0
ARC
  5
DD
100
AcDbEntity
  8
0
 62
256
370
-1
  6
ByLayer
100
AcDbCircle
 10
30.000000000004988
 20
30.0000000000035243
 30
0.0
 40
20.9999999999938609
100
AcDbArc
 50
34.1503120789176222
 51
36.400312078918212
  0
ARC
  5
DE
100
AcDbEntity
  8
0
 62
256
370
-1
  6
ByLayer
100
AcDbCircle
 10
29.9999999999993463
 20
29.9999999999994031
 30
0.0
 40
21.0000000000009202
100
AcDbArc
 50
43.150312078917878
 51
45.400312078917743
  0
ARC
  5
DF
100
AcDbEntity
  8
0
 62
256
370
-1
  6
ByLayer
100
AcDbCircle
 10
29.9999999999971507
 20
29.9999999999962199
 30
0.0
 40
21.0000000000047393
100
AcDbArc
 50
52.150312078918077
 51
54.4003120789174517
  0
ARC
  5
E0
100
AcDbEntity
  8
0
 62
256
370
-1
  6
ByLayer
100
AcDbCircle
 10
30.0000000000030269
 20
30.0000000000057128
 30
0.0
 40
20.9999999999935412
100
AcDbArc
 50
61.1503120789177004
 51
63.4003120789181907
  0
ARC
  5
E1
100
AcDbEntity
  8
0
 62
256
370
-1
  6
ByLayer
100
AcDbCircle
 10
30.0000000000021814
 20
30.0000000000064233
 30
0.0
 40
20.9999999999932001
100
AcDbArc
 50
70.1503120789174233
 51
72.4003120789181338
  0
ARC
  5
E2
100
AcDbEntity
  8
0
 62
256
370
-1
  6
ByLayer
100
AcDbCircle
 10
30.0000000000001066
 20
30.0000000000008242
 30
0.0
 40
20.9999999999992504
100
AcDbArc
 50
79.1503120789177217
 51
81.4003120789177785
  0
ARC
  5
E3
100
AcDbEntity
  8
0
 62
256
370
-1
  6
ByLayer
100
AcDbCircle
 10
29.9999999999999929
 20
29.9999999999996021
 30
0.0
 40
21.0000000000003801
100
AcDbArc
 50
88.1503120789182049
 51
90.4003120789177501
  0
ARC
  5
E4
100
AcDbEntity
  8
0
 62
256
370
-1
  6
ByLayer
100
AcDbCircle
 10
29.9999999999997513
 20
30.0000000000019043
 30
0.0
 40
20.9999999999980709
100
AcDbArc
 50
97.1503120789176222
 51
99.4003120789180201
  0
ARC
  5
E5
100
AcDbEntity
  8
0
 62
256
370
-1
  6
ByLayer
100
AcDbCircle
 10
29.9999999999995381
 20
30.0000000000014211
 30
0.0
 40
20.9999999999985292
100
AcDbArc
 50
106.150312078917807
 51
108.400312078917807
  0
ARC
  5
E6
100
AcDbEntity
  8
0
 62
256
370
-1
  6
ByLayer
100
AcDbCircle
 10
29.9999999999986215
 20
30.0000000000028137
 30
0.0
 40
20.9999999999968594
100
AcDbArc
 50
115.150312078917608
 51
117.4003120789179917
  0
ARC
  5
E7
100
AcDbEntity
  8
0
 62
256
370
-1
  6
ByLayer
100
AcDbCircle
 10
30.0000000000042064
 20
29.999999999994202
 30
0.0
 40
21.0000000000072014
100
AcDbArc
 50
124.1503120789187022
 51
126.4003120789175938
  0
ARC
  5
E8
100
AcDbEntity
  8
0
 62
256
370
-1
  6
ByLayer
100
AcDbCircle
 10
30.000000000000469
 20
29.9999999999995168
 30
0.0
 40
21.0000000000006892
100
AcDbArc
 50
133.150312078917807
 51
135.400312078917807
  0
ARC
  5
E9
100
AcDbEntity
  8
0
 62
256
370
-1
  6
ByLayer
100
AcDbCircle
 10
30.0000000000048317
 20
29.9999999999964189
 30
0.0
 40
21.000000000006029
100
AcDbArc
 50
142.1503120789184038
 51
144.4003120789174943
  0
MTEXT
  5
EA
100
AcDbEntity
100
AcDbMText
  8
Notes
 62
256
370
-1
  6
ByLayer
 10
10.0
 20
-10.0
 30
0.0
 40
3.0
 41
100.0
 71
1
 72
2
  1
Material:\~1/4"\~or\~5mm\~acrylic\PPress\~fit\~to\~bolt.
  7
standard
 50
0.0
 73
0
 44
1.0
  0
ENDSEC
  0
SECTION
  2
OBJECTS
  0
DICTIONARY
  5
C
100
AcDbDictionary
280
0
281
1
  3
ACAD_GROUP
350
D
  3
ACAD_LAYOUT
350
1A
  3
ACAD_MLINESTYLE
350
17
  3
ACAD_PLOTSETTINGS
350
19
  3
ACAD_PLOTSTYLENAME
350
E
  3
AcDbVariableDictionary
350
EB
  0
DICTIONARY
  5
D
100
AcDbDictionary
280
0
281
1
  0
ACDBDICTIONARYWDFLT
  5
E
100
AcDbDictionary
281
1
  3
Normal
350
F
100
AcDbDictionaryWithDefault
340
F
  0
ACDBPLACEHOLDER
  5
F
  0
DICTIONARY
  5
17
100
AcDbDictionary
280
0
281
1
  3
Standard
350
18
  0
MLINESTYLE
  5
18
100
AcDbMlineStyle
  2
STANDARD
 70
0
  3

 62
256
 51
90.0
 52
90.0
 71
2
 49
0.5
 62
256
  6
BYLAYER
 49
-0.5
 62
256
  6
BYLAYER
  0
DICTIONARY
  5
19
100
AcDbDictionary
280
0
281
1
  0
DICTIONARY
  5
1A
100
AcDbDictionary
281
1
  3
Layout1
350
1E
  3
Layout2
350
26
  3
Model
350
22
  0
LAYOUT
  5
1E
100
AcDbPlotSettings
  1

  2
C:\Program Files\AutoCAD 2002\plotters\DWF ePlot (optimized for plotting).pc3
  4

  6

 40
0.0
 41
0.0
 42
0.0
 43
0.0
 44
0.0
 45
0.0
 46
0.0
 47
0.0
 48
0.0
 49
0.0
140
0.0
141
0.0
142
1.0
143
1.0
 70
688
 72
0
 73
0
 74
5
  7

 75
16
147
1.0
148
0.0
149
0.0
100
AcDbLayout
  1
Layout1
 70
1
 71
1
 10
0.0
 20
0.0
 11
420.0
 21
297.0
 12
0.0
 22
0.0
 32
0.0
 14
100000000000000000000.0
 24
100000000000000000000.0
 34
100000000000000000000.0
 15
-100000000000000000000.0
 25
-100000000000000000000.0
 35
-100000000000000000000.0
146
0.0
 13
0.0
 23
0.0
 33
0.0
 16
1.0
 26
0.0
 36
0.0
 17
0.0
 27
1.0
 37
0.0
 76
0
330
1B
  0
LAYOUT
  5
22
100
AcDbPlotSettings
  1

  2
C:\Program Files\AutoCAD 2002\plotters\DWF ePlot (optimized for plotting).pc3
  4

  6

 40
0.0
 41
0.0
 42
0.0
 43
0.0
 44
0.0
 45
0.0
 46
0.0
 47
0.0
 48
0.0
 49
0.0
140
0.0
141
0.0
142
1.0
143
1.0
 70
1712
 72
0
 73
0
 74
0
  7

 75
0
147
1.0
148
0.0
149
0.0
100
AcDbLayout
  1
Model
 70
1
 71
0
 10
0.0
 20
0.0
 11
12.0
 21
9.0
 12
0.0
 22
0.0
 32
0.0
 14
0.0
 24
0.0
 34
0.0
 15
0.0
 25
0.0
 35
0.0
146
0.0
 13
0.0
 23
0.0
 33
0.0
 16
1.0
 26
0.0
 36
0.0
 17
0.0
 27
1.0
 37
0.0
 76
0
330
1F
  0
LAYOUT
  5
26
100
AcDbPlotSettings
  1

  2
C:\Program Files\AutoCAD 2002\plotters\DWF ePlot (optimized for plotting).pc3
  4

  6

 40
0.0
 41
0.0
 42
0.0
 43
0.0
 44
0.0
 45
0.0
 46
0.0
 47
0.0
 48
0.0
 49
0.0
140
0.0
141
0.0
142
1.0
143
1.0
 70
688
 72
0
 73
0
 74
5
  7

 75
16
147
1.0
148
0.0
149
0.0
100
AcDbLayout
  1
Layout2
 70
1
 71
2
 10
0.0
 20
0.0
 11
12.0
 21
9.0
 12
0.0
 22
0.0
 32
0.0
 14
0.0
 24
0.0
 34
0.0
 15
0.0
 25
0.0
 35
0.0
146
0.0
 13
0.0
 23
0.0
 33
0.0
 16
1.0
 26
0.0
 36
0.0
 17
0.0
 27
1.0
 37
0.0
 76
0
330
23
  0
DICTIONARY
  5
EB
100
AcDbDictionary
281
1
  3
DIMASSOC
350
ED
  3
HIDETEXT
350
EC
  0
DICTIONARYVAR
  5
EC
100
DictionaryVariables
280
0
  1
2
  0
DICTIONARYVAR
  5
ED
100
DictionaryVariables
280
0
  1
1
  0
ENDSEC
  0
EOF
