999
dxflib 2.1.2.0
  0
SECTION
  2
HEADER
  9
$ACADVER
  1
AC1015
  9
$HANDSEED
  5
FFFF
  9
$DIMASZ
 40
2.5
  9
$PLIMMIN
 10
0.0
 20
0.0
  9
$DIMEXE
 40
1.25
  9
$DIMGAP
 40
0.625
  9
$PLIMMAX
 10
210.0
 20
297.0
  9
$INSUNITS
 70
4
  9
$DIMSTYLE
  2
Standard
  9
$CLAYER
  8
0
  9
$DIMEXO
 40
0.625
  9
$DIMTXT
 40
2.5
  9
$CLAYER
  8
0
  0
ENDSEC
  0
SECTION
  2
TABLES
  0
TABLE
  2
VPORT
  5
8
100
AcDbSymbolTable
 70
1
  0
VPORT
  5
30
100
AcDbSymbolTableRecord
100
AcDbViewportTableRecord
  2
*Active
 70
0
 10
0.0
 20
0.0
 11
1.0
 21
1.0
 12
286.3055555555554861
 22
148.5
 13
0.0
 23
0.0
 14
10.0
 24
10.0
 15
10.0
 25
10.0
 16
0.0
 26
0.0
 36
1.0
 17
0.0
 27
0.0
 37
0.0
 40
297.0
 41
1.92798353909465
 42
50.0
 43
0.0
 44
0.0
 50
0.0
 51
0.0
 71
0
 72
100
 73
1
 74
3
 75
1
 76
1
 77
0
 78
0
281
0
 65
1
110
0.0
120
0.0
130
0.0
111
1.0
121
0.0
131
0.0
112
0.0
122
1.0
132
0.0
 79
0
146
0.0
  0
ENDTAB
  0
TABLE
  2
LTYPE
  5
5
100
AcDbSymbolTable
 70
21
  0
LTYPE
  5
14
100
AcDbSymbolTableRecord
100
AcDbLinetypeTableRecord
  2
ByBlock
 70
0
  3

 72
65
 73
0
 40
0.0
  0
LTYPE
  5
15
100
AcDbSymbolTableRecord
100
AcDbLinetypeTableRecord
  2
ByLayer
 70
0
  3

 72
65
 73
0
 40
0.0
  0
LTYPE
  5
16
100
AcDbSymbolTableRecord
100
AcDbLinetypeTableRecord
  2
CONTINUOUS
 70
0
  3
Solid line
 72
65
 73
0
 40
0.0
  0
LTYPE
  5
31
100
AcDbSymbolTableRecord
100
AcDbLinetypeTableRecord
  2
DOT
 70
0
  3
Dot . . . . . . . . . . . . . . . . . . . . . .
 72
65
 73
2
 40
6.3499999999999996
 49
0.0
 74
0
 49
-6.3499999999999996
 74
0
  0
LTYPE
  5
32
100
AcDbSymbolTableRecord
100
AcDbLinetypeTableRecord
  2
DOT2
 70
0
  3
Dot (.5x) .....................................
 72
65
 73
2
 40
3.1749999999999998
 49
0.0
 74
0
 49
-3.1749999999999998
 74
0
  0
LTYPE
  5
33
100
AcDbSymbolTableRecord
100
AcDbLinetypeTableRecord
  2
DOTX2
 70
0
  3
Dot (2x) .  .  .  .  .  .  .  .  .  .  .  .  .
 72
65
 73
2
 40
12.6999999999999993
 49
0.0
 74
0
 49
-12.6999999999999993
 74
0
  0
LTYPE
  5
34
100
AcDbSymbolTableRecord
100
AcDbLinetypeTableRecord
  2
DASHED
 70
0
  3
Dashed __ __ __ __ __ __ __ __ __ __ __ __ __ _
 72
65
 73
2
 40
19.0500000000000007
 49
12.6999999999999993
 74
0
 49
-6.3499999999999996
 74
0
  0
LTYPE
  5
35
100
AcDbSymbolTableRecord
100
AcDbLinetypeTableRecord
  2
DASHED2
 70
0
  3
Dashed (.5x) _ _ _ _ _ _ _ _ _ _ _ _ _ _ _ _ _
 72
65
 73
2
 40
9.5250000000000004
 49
6.3499999999999996
 74
0
 49
-3.1749999999999998
 74
0
  0
LTYPE
  5
36
100
AcDbSymbolTableRecord
100
AcDbLinetypeTableRecord
  2
DASHEDX2
 70
0
  3
Dashed (2x) ____  ____  ____  ____  ____  ___
 72
65
 73
2
 40
38.1000000000000014
 49
25.3999999999999986
 74
0
 49
-12.6999999999999993
 74
0
  0
LTYPE
  5
37
100
AcDbSymbolTableRecord
100
AcDbLinetypeTableRecord
  2
DASHDOT
 70
0
  3
Dash dot __ . __ . __ . __ . __ . __ . __ . __
 72
65
 73
4
 40
25.3999999999999986
 49
12.6999999999999993
 74
0
 49
-6.3499999999999996
 74
0
 49
0.0
 74
0
 49
-6.3499999999999996
 74
0
  0
LTYPE
  5
38
100
AcDbSymbolTableRecord
100
AcDbLinetypeTableRecord
  2
DASHDOT2
 70
0
  3
Dash dot (.5x) _._._._._._._._._._._._._._._.
 72
65
 73
4
 40
12.6999999999999993
 49
6.3499999999999996
 74
0
 49
-3.1749999999999998
 74
0
 49
0.0
 74
0
 49
-3.1749999999999998
 74
0
  0
LTYPE
  5
39
100
AcDbSymbolTableRecord
100
AcDbLinetypeTableRecord
  2
DASHDOTX2
 70
0
  3
Dash dot (2x) ____  .  ____  .  ____  .  ___
 72
65
 73
4
 40
50.7999999999999972
 49
25.3999999999999986
 74
0
 49
-12.6999999999999993
 74
0
 49
0.0
 74
0
 49
-12.6999999999999993
 74
0
  0
LTYPE
  5
3A
100
AcDbSymbolTableRecord
100
AcDbLinetypeTableRecord
  2
DIVIDE
 70
0
  3
Divide ____ . . ____ . . ____ . . ____ . . ____
 72
65
 73
6
 40
31.75
 49
12.6999999999999993
 74
0
 49
-6.3499999999999996
 74
0
 49
0.0
 74
0
 49
-6.3499999999999996
 74
0
 49
0.0
 74
0
 49
-6.3499999999999996
 74
0
  0
LTYPE
  5
3B
100
AcDbSymbolTableRecord
100
AcDbLinetypeTableRecord
  2
DIVIDE2
 70
0
  3
Divide (.5x) __..__..__..__..__..__..__..__.._
 72
65
 73
6
 40
15.875
 49
6.3499999999999996
 74
0
 49
-3.1749999999999998
 74
0
 49
0.0
 74
0
 49
-3.1749999999999998
 74
0
 49
0.0
 74
0
 49
-3.1749999999999998
 74
0
  0
LTYPE
  5
3C
100
AcDbSymbolTableRecord
100
AcDbLinetypeTableRecord
  2
DIVIDEX2
 70
0
  3
Divide (2x) ________  .  .  ________  .  .  _
 72
65
 73
6
 40
63.5
 49
25.3999999999999986
 74
0
 49
-12.6999999999999993
 74
0
 49
0.0
 74
0
 49
-12.6999999999999993
 74
0
 49
0.0
 74
0
 49
-12.6999999999999993
 74
0
  0
LTYPE
  5
3D
100
AcDbSymbolTableRecord
100
AcDbLinetypeTableRecord
  2
CENTER
 70
0
  3
Center ____ _ ____ _ ____ _ ____ _ ____ _ ____
 72
65
 73
4
 40
50.7999999999999972
 49
31.75
 74
0
 49
-6.3499999999999996
 74
0
 49
6.3499999999999996
 74
0
 49
-6.3499999999999996
 74
0
  0
LTYPE
  5
3E
100
AcDbSymbolTableRecord
100
AcDbLinetypeTableRecord
  2
CENTER2
 70
0
  3
Center (.5x) ___ _ ___ _ ___ _ ___ _ ___ _ ___
 72
65
 73
4
 40
28.5749999999999993
 49
19.0500000000000007
 74
0
 49
-3.1749999999999998
 74
0
 49
3.1749999999999998
 74
0
 49
-3.1749999999999998
 74
0
  0
LTYPE
  5
3F
100
AcDbSymbolTableRecord
100
AcDbLinetypeTableRecord
  2
CENTERX2
 70
0
  3
Center (2x) ________  __  ________  __  _____
 72
65
 73
4
 40
101.5999999999999943
 49
63.5
 74
0
 49
-12.6999999999999993
 74
0
 49
12.6999999999999993
 74
0
 49
-12.6999999999999993
 74
0
  0
LTYPE
  5
40
100
AcDbSymbolTableRecord
100
AcDbLinetypeTableRecord
  2
BORDER
 70
0
  3
Border __ __ . __ __ . __ __ . __ __ . __ __ .
 72
65
 73
6
 40
44.4500000000000028
 49
12.6999999999999993
 74
0
 49
-6.3499999999999996
 74
0
 49
12.6999999999999993
 74
0
 49
-6.3499999999999996
 74
0
 49
0.0
 74
0
 49
-6.3499999999999996
 74
0
  0
LTYPE
  5
41
100
AcDbSymbolTableRecord
100
AcDbLinetypeTableRecord
  2
BORDER2
 70
0
  3
Border (.5x) __.__.__.__.__.__.__.__.__.__.__.
 72
65
 73
6
 40
22.2250000000000014
 49
6.3499999999999996
 74
0
 49
-3.1749999999999998
 74
0
 49
6.3499999999999996
 74
0
 49
-3.1749999999999998
 74
0
 49
0.0
 74
0
 49
-3.1749999999999998
 74
0
  0
LTYPE
  5
42
100
AcDbSymbolTableRecord
100
AcDbLinetypeTableRecord
  2
BORDERX2
 70
0
  3
Border (2x) ____  ____  .  ____  ____  .  ___
 72
65
 73
6
 40
88.9000000000000057
 49
25.3999999999999986
 74
0
 49
-12.6999999999999993
 74
0
 49
25.3999999999999986
 74
0
 49
-12.6999999999999993
 74
0
 49
0.0
 74
0
 49
-12.6999999999999993
 74
0
  0
ENDTAB
  0
TABLE
  2
LAYER
  5
2
100
AcDbSymbolTable
 70
8
  0
LAYER
  5
10
100
AcDbSymbolTableRecord
100
AcDbLayerTableRecord
  2
0
 70
0
 62
7
  6
CONTINUOUS
370
0
390
F
  0
LAYER
  5
43
100
AcDbSymbolTableRecord
100
AcDbLayerTableRecord
  2
Middle Layer
 70
0
 62
7
  6
CONTINUOUS
370
0
390
F
  0
LAYER
  5
44
100
AcDbSymbolTableRecord
100
AcDbLayerTableRecord
  2
Top Layer
 70
0
 62
7
  6
CONTINUOUS
370
0
390
F
  0
LAYER
  5
45
100
AcDbSymbolTableRecord
100
AcDbLayerTableRecord
  2
Middle Text
 70
0
 62
4
  6
CONTINUOUS
370
0
390
F
  0
LAYER
  5
46
100
AcDbSymbolTableRecord
100
AcDbLayerTableRecord
  2
Notes
 70
0
 62
7
  6
CONTINUOUS
370
0
390
F
  0
LAYER
  5
47
100
AcDbSymbolTableRecord
100
AcDbLayerTableRecord
  2
Bottom
 70
0
 62
7
  6
CONTINUOUS
370
0
390
F
  0
LAYER
  5
48
100
AcDbSymbolTableRecord
100
AcDbLayerTableRecord
  2
Bottom Text
 70
0
 62
4
  6
CONTINUOUS
370
0
390
F
  0
LAYER
  5
49
100
AcDbSymbolTableRecord
100
AcDbLayerTableRecord
  2
Top Text
 70
0
 62
4
  6
CONTINUOUS
370
0
390
F
  0
ENDTAB
  0
TABLE
  2
STYLE
  5
3
100
AcDbSymbolTable
 70
1
  0
STYLE
  5
11
100
AcDbSymbolTableRecord
100
AcDbTextStyleTableRecord
  2
Standard
 70
0
 40
0.0
 41
0.75
 50
0.0
 71
0
 42
2.5
  3
txt
  4

  0
ENDTAB
  0
TABLE
  2
VIEW
  5
6
100
AcDbSymbolTable
 70
0
  0
ENDTAB
  0
TABLE
  2
UCS
  5
7
100
AcDbSymbolTable
 70
0
  0
ENDTAB
  0
TABLE
  2
APPID
  5
9
100
AcDbSymbolTable
 70
1
  0
APPID
  5
12
100
AcDbSymbolTableRecord
100
AcDbRegAppTableRecord
  2
ACAD
 70
0
  0
ENDTAB
  0
TABLE
  2
DIMSTYLE
  5
A
100
AcDbSymbolTable
 70
1
100
AcDbDimStyleTable
 71
0
  0
DIMSTYLE
105
27
100
AcDbSymbolTableRecord
100
AcDbDimStyleTableRecord
  2
Standard
 41
2.5
 42
0.625
 43
3.75
 44
1.25
 70
0
 73
0
 74
0
 77
1
 78
8
140
2.5
141
2.5
143
0.03937007874016
147
0.625
171
3
172
1
271
2
272
2
274
3
278
44
283
0
284
8
340
11
  0
ENDTAB
  0
TABLE
  2
BLOCK_RECORD
  5
1
100
AcDbSymbolTable
 70
1
  0
BLOCK_RECORD
  5
1F
100
AcDbSymbolTableRecord
100
AcDbBlockTableRecord
  2
*Model_Space
340
22
  0
BLOCK_RECORD
  5
1B
100
AcDbSymbolTableRecord
100
AcDbBlockTableRecord
  2
*Paper_Space
340
1E
  0
BLOCK_RECORD
  5
23
100
AcDbSymbolTableRecord
100
AcDbBlockTableRecord
  2
*Paper_Space0
340
26
  0
ENDTAB
  0
ENDSEC
  0
SECTION
  2
BLOCKS
  0
BLOCK
  5
20
100
AcDbEntity
  8
0
100
AcDbBlockBegin
  2
*Model_Space
 70
0
 10
0.0
 20
0.0
 30
0.0
  3
*Model_Space
  1

  0
ENDBLK
  5
21
100
AcDbEntity
  8
0
100
AcDbBlockEnd
  0
BLOCK
  5
1C
100
AcDbEntity
 67
1
  8
0
100
AcDbBlockBegin
  2
*Paper_Space
 70
0
 10
0.0
 20
0.0
 30
0.0
  3
*Paper_Space
  1

  0
ENDBLK
  5
1D
100
AcDbEntity
 67
1
  8
0
100
AcDbBlockEnd
  0
BLOCK
  5
24
100
AcDbEntity
  8
0
100
AcDbBlockBegin
  2
*Paper_Space0
 70
0
 10
0.0
 20
0.0
 30
0.0
  3
*Paper_Space0
  1

  0
ENDBLK
  5
25
100
AcDbEntity
  8
0
100
AcDbBlockEnd
  0
ENDSEC
  0
SECTION
  2
ENTITIES
  0
CIRCLE
  5
4A
100
AcDbEntity
100
AcDbCircle
  8
Middle Layer
 62
256
370
-1
  6
ByLayer
 10
17.4199809456782191
 20
13.9333297728146626
 30
0.0
 40
2.4249999999999998
  0
CIRCLE
  5
4B
100
AcDbEntity
100
AcDbCircle
  8
Middle Layer
 62
256
370
-1
  6
ByLayer
 10
24.3194731992690159
 20
49.2659918101228698
 30
0.0
 40
2.4249999999999998
  0
LINE
  5
4C
100
AcDbEntity
100
AcDbLine
  8
Middle Layer
 62
256
370
-1
  6
ByLayer
 10
11.4028660843109257
 20
11.6805639738214779
 30
0.0
 11
6.0259495545481325
 21
26.0422541122405811
 31
0.0
  0
ARC
  5
4D
100
AcDbEntity
  8
Middle Layer
 62
256
370
-1
  6
ByLayer
100
AcDbCircle
 10
20.8697270724736228
 20
31.5996607914686649
 30
0.0
 40
15.8499999999999996
100
AcDbArc
 50
137.3759674952218006
 51
200.5255493212027034
  0
LINE
  5
4E
100
AcDbEntity
100
AcDbLine
  8
Middle Layer
 62
256
370
-1
  6
ByLayer
 10
9.2070892911776365
 20
42.3330377056691134
 30
0.0
 11
19.5918739724661641
 21
53.6169032721882957
 31
0.0
  0
ARC
  5
4F
100
AcDbEntity
  8
Middle Layer
 62
256
370
-1
  6
ByLayer
100
AcDbCircle
 10
24.3194731992690159
 20
49.2659918101228698
 30
0.0
 40
6.424999999999998
100
AcDbArc
 50
20.5255493212026998
 51
137.3759674952219996
  0
LINE
  5
50
100
AcDbEntity
100
AcDbLine
  8
Middle Layer
 62
256
370
-1
  6
ByLayer
 10
30.3365880606362275
 20
51.5187576091159656
 30
0.0
 11
35.7135045903991255
 21
37.1570674706968589
 31
0.0
  0
ARC
  5
51
100
AcDbEntity
  8
Middle Layer
 62
256
370
-1
  6
ByLayer
100
AcDbCircle
 10
20.8697270724736228
 20
31.5996607914686649
 30
0.0
 40
15.8499999999999996
100
AcDbArc
 50
317.3759674952219143
 51
20.5255493212026998
  0
LINE
  5
52
100
AcDbEntity
100
AcDbLine
  8
Middle Layer
 62
256
370
-1
  6
ByLayer
 10
32.532364853769522
 20
20.8662838772683514
 30
0.0
 11
22.1475801724811205
 21
9.5824183107491763
 31
0.0
  0
ARC
  5
53
100
AcDbEntity
  8
Middle Layer
 62
256
370
-1
  6
ByLayer
100
AcDbCircle
 10
17.4199809456782191
 20
13.9333297728146626
 30
0.0
 40
6.4249999999999998
100
AcDbArc
 50
200.5255493212027034
 51
317.3759674952218006
  0
CIRCLE
  5
54
100
AcDbEntity
100
AcDbCircle
  8
Middle Layer
 62
256
370
-1
  6
ByLayer
 10
20.8697270724736228
 20
31.5996607914686649
 30
0.0
 40
11.0500000000000007
  0
MTEXT
  5
55
100
AcDbEntity
100
AcDbMText
  8
Middle Text
 62
256
370
-1
  6
ByLayer
 10
23.8459781800666129
 20
45.9330377056690224
 30
0.0
 40
2.0
 41
100.0
 71
1
 72
2
  1
Middle
  7
standard
 50
0.0
 73
1
 44
1.0
  0
ELLIPSE
  5
56
100
AcDbEntity
100
AcDbEllipse
  8
Middle Layer
 62
256
370
-1
  6
ByLayer
 10
21.0570328749100248
 20
52.8588890431477125
 30
0.0
 11
0.766610250398976
 21
3.9258513374786901
 31
0.0
 40
0.4500000000000001
 41
0.0
 42
6.2831853071795862
  0
LINE
  5
57
100
AcDbEntity
100
AcDbLine
  8
Notes
 62
256
370
-1
  6
ByLayer
 10
46.9566243270259633
 20
23.9999999999999716
 30
0.0
 11
46.5999999999999659
 21
24.0000000000000142
 31
0.0
  0
CIRCLE
  5
58
100
AcDbEntity
100
AcDbCircle
  8
Bottom
 62
256
370
-1
  6
ByLayer
 10
70.3779056661925324
 20
61.2912996406194424
 30
0.0
 40
1.425
  0
CIRCLE
  5
59
100
AcDbEntity
100
AcDbCircle
  8
Bottom
 62
256
370
-1
  6
ByLayer
 10
42.1871270426152591
 20
51.0306953408493769
 30
0.0
 40
1.425
  0
CIRCLE
  5
5A
100
AcDbEntity
100
AcDbCircle
  8
Bottom
 62
256
370
-1
  6
ByLayer
 10
72.9999999999999432
 20
17.0000000000000853
 30
0.0
 40
1.425
  0
CIRCLE
  5
5B
100
AcDbEntity
100
AcDbCircle
  8
Bottom
 62
256
370
-1
  6
ByLayer
 10
57.0
 20
17.0000000000000142
 30
0.0
 40
1.425
  0
LINE
  5
5C
100
AcDbEntity
100
AcDbLine
  8
Bottom
 62
256
370
-1
  6
ByLayer
 10
73.7220925705742616
 20
19.9413732326007747
 30
0.0
 11
66.204551604287019
 21
17.2052120859953916
 31
0.0
  0
LINE
  5
5D
100
AcDbEntity
100
AcDbLine
  8
Bottom
 62
256
370
-1
  6
ByLayer
 10
67.1117858521043331
 20
69.6801291990275047
 30
0.0
 11
67.2997243762615085
 21
69.748533227692576
 31
0.0
  0
LINE
  5
5E
100
AcDbEntity
100
AcDbLine
  8
Bottom
 62
256
370
-1
  6
ByLayer
 10
67.7108387669400713
 20
66.2799622023599824
 30
0.0
 11
66.7531823656281631
 21
68.9111015405605229
 31
0.0
  0
LINE
  5
5F
100
AcDbEntity
100
AcDbLine
  8
Bottom
 62
256
370
-1
  6
ByLayer
 10
68.6678049495641858
 20
65.9897627445489547
 30
0.0
 11
68.4798664254070246
 21
65.9213587158838408
 31
0.0
  0
LINE
  5
60
100
AcDbEntity
100
AcDbLine
  8
Bottom
 62
256
370
-1
  6
ByLayer
 10
69.1466331502201257
 20
64.6741930754487271
 30
0.0
 11
68.6678049495641858
 21
65.9897627445489547
 31
0.0
  0
LINE
  5
61
100
AcDbEntity
100
AcDbLine
  8
Bottom
 62
256
370
-1
  6
ByLayer
 10
74.4261853884593734
 20
65.9572862769358039
 30
0.0
 11
69.9156608086870506
 21
64.3155895889725855
 31
0.0
  0
LINE
  5
62
100
AcDbEntity
100
AcDbLine
  8
Bottom
 62
256
370
-1
  6
ByLayer
 10
74.3059606742796177
 20
68.0418836045029849
 30
0.0
 11
74.7847888749355434
 21
66.7263139354026862
 31
0.0
  0
LINE
  5
63
100
AcDbEntity
100
AcDbLine
  8
Bottom
 62
256
370
-1
  6
ByLayer
 10
74.4938991984367931
 20
68.1102876331681415
 30
0.0
 11
74.3059606742796177
 21
68.0418836045029849
 31
0.0
  0
LINE
  5
64
100
AcDbEntity
100
AcDbLine
  8
Bottom
 62
256
370
-1
  6
ByLayer
 10
73.8948462836010549
 20
71.5104546298356354
 30
0.0
 11
74.8525026849129631
 21
68.8793152916350522
 31
0.0
  0
LINE
  5
65
100
AcDbEntity
100
AcDbLine
  8
Bottom
 62
256
370
-1
  6
ByLayer
 10
72.9378801009769404
 20
71.800654087646592
 30
0.0
 11
73.1258186251341158
 21
71.8690581163117486
 31
0.0
  0
LINE
  5
66
100
AcDbEntity
100
AcDbLine
  8
Bottom
 62
256
370
-1
  6
ByLayer
 10
84.5723358707317345
 20
51.5304671732541522
 30
0.0
 11
74.6445297241665457
 21
78.8068903856647722
 31
0.0
  0
LINE
  5
67
100
AcDbEntity
100
AcDbLine
  8
Bottom
 62
256
370
-1
  6
ByLayer
 10
90.0
 20
10.0
 30
0.0
 11
89.9999999999999432
 21
20.7486542739439486
 31
0.0
  0
LINE
  5
68
100
AcDbEntity
100
AcDbLine
  8
Bottom
 62
256
370
-1
  6
ByLayer
 10
84.1999999999999886
 20
17.9999999999999964
 30
0.0
 11
84.0
 21
18.0000000000000071
 31
0.0
  0
LINE
  5
69
100
AcDbEntity
100
AcDbLine
  8
Bottom
 62
256
370
-1
  6
ByLayer
 10
84.8000000000000114
 20
21.4000000000000199
 30
0.0
 11
84.8000000000000114
 21
18.6000000000000298
 31
0.0
  0
LINE
  5
6A
100
AcDbEntity
100
AcDbLine
  8
Bottom
 62
256
370
-1
  6
ByLayer
 10
84.0
 20
22.0000000000000497
 30
0.0
 11
84.1999999999999886
 21
22.0000000000000284
 31
0.0
  0
LINE
  5
6B
100
AcDbEntity
100
AcDbLine
  8
Bottom
 62
256
370
-1
  6
ByLayer
 10
84.0
 20
23.4000000000000021
 30
0.0
 11
84.0
 21
22.0000000000000497
 31
0.0
  0
LINE
  5
6C
100
AcDbEntity
100
AcDbLine
  8
Bottom
 62
256
370
-1
  6
ByLayer
 10
78.5999999999999659
 20
24.0000000000000107
 30
0.0
 11
83.3999999999999773
 21
24.0000000000000568
 31
0.0
  0
LINE
  5
6D
100
AcDbEntity
100
AcDbLine
  8
Bottom
 62
256
370
-1
  6
ByLayer
 10
78.0
 20
22.0000000000000213
 30
0.0
 11
78.0
 21
23.3999999999999915
 31
0.0
  0
LINE
  5
6E
100
AcDbEntity
100
AcDbLine
  8
Bottom
 62
256
370
-1
  6
ByLayer
 10
77.7999999999999545
 20
22.0000000000000355
 30
0.0
 11
78.0
 21
22.0000000000000213
 31
0.0
  0
LINE
  5
6F
100
AcDbEntity
100
AcDbLine
  8
Bottom
 62
256
370
-1
  6
ByLayer
 10
77.1999999999999318
 20
18.6000000000000085
 30
0.0
 11
77.1999999999999886
 21
21.4000000000000199
 31
0.0
  0
LINE
  5
70
100
AcDbEntity
100
AcDbLine
  8
Bottom
 62
256
370
-1
  6
ByLayer
 10
78.0
 20
17.9999999999999716
 30
0.0
 11
77.8000000000000114
 21
17.9999999999999858
 31
0.0
  0
LINE
  5
71
100
AcDbEntity
100
AcDbLine
  8
Bottom
 62
256
370
-1
  6
ByLayer
 10
52.1999999999999886
 20
18.0000000000000142
 30
0.0
 11
51.9999999999999432
 21
18.0000000000000426
 31
0.0
  0
LINE
  5
72
100
AcDbEntity
100
AcDbLine
  8
Bottom
 62
256
370
-1
  6
ByLayer
 10
52.8000000000000114
 20
21.4000000000000057
 30
0.0
 11
52.8000000000000114
 21
18.6000000000000369
 31
0.0
  0
LINE
  5
73
100
AcDbEntity
100
AcDbLine
  8
Bottom
 62
256
370
-1
  6
ByLayer
 10
51.9999999999999432
 20
22.0000000000000426
 30
0.0
 11
52.1999999999999886
 21
22.0000000000000391
 31
0.0
  0
LINE
  5
74
100
AcDbEntity
100
AcDbLine
  8
Bottom
 62
256
370
-1
  6
ByLayer
 10
52.0
 20
23.4000000000000306
 30
0.0
 11
51.9999999999999432
 21
22.0000000000000426
 31
0.0
  0
LINE
  5
75
100
AcDbEntity
100
AcDbLine
  8
Bottom
 62
256
370
-1
  6
ByLayer
 10
46.0
 20
22.0000000000000426
 30
0.0
 11
46.0
 21
23.3999999999999631
 31
0.0
  0
LINE
  5
76
100
AcDbEntity
100
AcDbLine
  8
Bottom
 62
256
370
-1
  6
ByLayer
 10
45.7999999999999545
 20
21.9999999999999716
 30
0.0
 11
46.0
 21
22.0000000000000426
 31
0.0
  0
LINE
  5
77
100
AcDbEntity
100
AcDbLine
  8
Bottom
 62
256
370
-1
  6
ByLayer
 10
45.1999999999999886
 20
18.600000000000108
 30
0.0
 11
45.1999999999999886
 21
21.4000000000000057
 31
0.0
  0
LINE
  5
78
100
AcDbEntity
100
AcDbLine
  8
Bottom
 62
256
370
-1
  6
ByLayer
 10
46.0
 20
17.9999999999999858
 30
0.0
 11
45.8000000000000114
 21
17.9999999999999147
 31
0.0
  0
LINE
  5
79
100
AcDbEntity
100
AcDbLine
  8
Bottom
 62
256
370
-1
  6
ByLayer
 10
40.0
 20
11.9323052385206978
 30
0.0
 11
40.0
 21
10.0
 31
0.0
  0
LINE
  5
7A
100
AcDbEntity
100
AcDbLine
  8
Bottom
 62
256
370
-1
  6
ByLayer
 10
27.6598986848712229
 20
61.7058832193813558
 30
0.0
 11
34.5723358707318269
 21
42.714118137830873
 31
0.0
  0
LINE
  5
7B
100
AcDbEntity
100
AcDbLine
  8
Bottom
 62
256
370
-1
  6
ByLayer
 10
33.2828515038115711
 20
57.3674040393034232
 30
0.0
 11
33.4707900279687962
 21
57.435808067968523
 31
0.0
  0
LINE
  5
7C
100
AcDbEntity
100
AcDbLine
  8
Bottom
 62
256
370
-1
  6
ByLayer
 10
33.8819044186474301
 20
53.9672370426359151
 30
0.0
 11
32.9242480173355219
 21
56.598376380836477
 31
0.0
  0
LINE
  5
7D
100
AcDbEntity
100
AcDbLine
  8
Bottom
 62
256
370
-1
  6
ByLayer
 10
34.8388706012714806
 20
53.6770375848249159
 30
0.0
 11
34.6509320771143123
 21
53.6086335561597593
 31
0.0
  0
LINE
  5
7E
100
AcDbEntity
100
AcDbLine
  8
Bottom
 62
256
370
-1
  6
ByLayer
 10
35.31769880192752
 20
52.361467915724667
 30
0.0
 11
34.8388706012714806
 21
53.6770375848249159
 31
0.0
  0
LINE
  5
7F
100
AcDbEntity
100
AcDbLine
  8
Bottom
 62
256
370
-1
  6
ByLayer
 10
40.5972510401667321
 20
53.6445611172117012
 30
0.0
 11
36.0867264603944022
 21
52.0028644292484898
 31
0.0
  0
LINE
  5
80
100
AcDbEntity
100
AcDbLine
  8
Bottom
 62
256
370
-1
  6
ByLayer
 10
40.4770263259869125
 20
55.7291584447788608
 30
0.0
 11
40.9558545266429022
 21
54.4135887756786545
 31
0.0
  0
LINE
  5
81
100
AcDbEntity
100
AcDbLine
  8
Bottom
 62
256
370
-1
  6
ByLayer
 10
40.6649648501440879
 20
55.7975624734440743
 30
0.0
 11
40.4770263259869125
 21
55.7291584447788608
 31
0.0
  0
LINE
  5
82
100
AcDbEntity
100
AcDbLine
  8
Bottom
 62
256
370
-1
  6
ByLayer
 10
40.0659119353083568
 20
59.197729470111554
 30
0.0
 11
41.0235683366202011
 21
56.5665901319109921
 31
0.0
  0
LINE
  5
83
100
AcDbEntity
100
AcDbLine
  8
Bottom
 62
256
370
-1
  6
ByLayer
 10
39.1089457526841855
 20
59.4879289279225461
 30
0.0
 11
39.2968842768415314
 21
59.5563329565876884
 31
0.0
  0
ARC
  5
84
100
AcDbEntity
  8
Bottom
 62
256
370
-1
  6
ByLayer
100
AcDbCircle
 10
65.9993395182916061
 20
17.7690276584669178
 30
0.0
 40
0.599999999999996
100
AcDbArc
 50
199.9999999999997158
 51
289.9999999999998863
  0
ARC
  5
85
100
AcDbEntity
  8
Bottom
 62
256
370
-1
  6
ByLayer
100
AcDbCircle
 10
73.5168804845788486
 20
20.5051888050722724
 30
0.0
 40
0.5999999999999983
100
AcDbArc
 50
289.9999999999998295
 51
20.000000000000103
  0
ARC
  5
86
100
AcDbEntity
  8
Bottom
 62
256
370
-1
  6
ByLayer
100
AcDbCircle
 10
67.3169979380997461
 20
69.1163136265558933
 30
0.0
 40
0.600000000000012
100
AcDbArc
 50
110.0000000000003979
 51
199.9999999999984936
  0
ARC
  5
87
100
AcDbEntity
  8
Bottom
 62
256
370
-1
  6
ByLayer
100
AcDbCircle
 10
68.2746543394115974
 20
66.4851742883553669
 30
0.0
 40
0.5999999999999749
100
AcDbArc
 50
199.9999999999977263
 51
290.0000000000015916
  0
ARC
  5
88
100
AcDbEntity
  8
Bottom
 62
256
370
-1
  6
ByLayer
100
AcDbCircle
 10
69.7104487226916376
 20
64.8794051614440974
 30
0.0
 40
0.5999999999999921
100
AcDbArc
 50
199.9999999999991189
 51
290.0000000000009095
  0
ARC
  5
89
100
AcDbEntity
  8
Bottom
 62
256
370
-1
  6
ByLayer
100
AcDbCircle
 10
74.2209733024640457
 20
66.5211018494073016
 30
0.0
 40
0.5999999999999996
100
AcDbArc
 50
290.0000000000006821
 51
19.9999999999998828
  0
ARC
  5
8A
100
AcDbEntity
  8
Bottom
 62
256
370
-1
  6
ByLayer
100
AcDbCircle
 10
74.2886871124414085
 20
68.6741032056396534
 30
0.0
 40
0.5999999999999986
100
AcDbArc
 50
290.0000000000006821
 51
19.9999999999998828
  0
ARC
  5
8B
100
AcDbEntity
  8
Bottom
 62
256
370
-1
  6
ByLayer
100
AcDbCircle
 10
73.3310307111295288
 20
71.305242543840194
 30
0.0
 40
0.6000000000000139
100
AcDbArc
 50
20.0000000000011866
 51
109.9999999999992752
  0
ARC
  5
8C
100
AcDbEntity
  8
Bottom
 62
256
370
-1
  6
ByLayer
100
AcDbCircle
 10
84.1999999999999886
 20
18.6000000000000334
 30
0.0
 40
0.5999999999999984
100
AcDbArc
 50
269.9999999999992042
 51
0.0
  0
ARC
  5
8D
100
AcDbEntity
  8
Bottom
 62
256
370
-1
  6
ByLayer
100
AcDbCircle
 10
84.1999999999999886
 20
21.4000000000000341
 30
0.0
 40
0.6000000000000006
100
AcDbArc
 50
0.0
 51
89.9999999999982947
  0
ARC
  5
8E
100
AcDbEntity
  8
Bottom
 62
256
370
-1
  6
ByLayer
100
AcDbCircle
 10
83.3999999999999773
 20
23.400000000000027
 30
0.0
 40
0.6000000000000028
100
AcDbArc
 50
0.0
 51
90.0
  0
ARC
  5
8F
100
AcDbEntity
  8
Bottom
 62
256
370
-1
  6
ByLayer
100
AcDbCircle
 10
78.5999999999999659
 20
23.3999999999999773
 30
0.0
 40
0.6000000000000028
100
AcDbArc
 50
90.0000000000008384
 51
180.0
  0
ARC
  5
90
100
AcDbEntity
  8
Bottom
 62
256
370
-1
  6
ByLayer
100
AcDbCircle
 10
77.8000000000000114
 20
21.4000000000000448
 30
0.0
 40
0.5999999999999939
100
AcDbArc
 50
90.0
 51
180.0
  0
ARC
  5
91
100
AcDbEntity
  8
Bottom
 62
256
370
-1
  6
ByLayer
100
AcDbCircle
 10
77.7999999999999545
 20
18.5999999999999801
 30
0.0
 40
0.5999999999999984
100
AcDbArc
 50
180.0
 51
270.0000000000007958
  0
ARC
  5
92
100
AcDbEntity
  8
Bottom
 62
256
370
-1
  6
ByLayer
100
AcDbCircle
 10
52.1999999999999886
 20
18.6000000000000227
 30
0.0
 40
0.5999999999999984
100
AcDbArc
 50
269.9999999999982947
 51
0.0
  0
ARC
  5
93
100
AcDbEntity
  8
Bottom
 62
256
370
-1
  6
ByLayer
100
AcDbCircle
 10
52.1999999999999886
 20
21.4000000000000092
 30
0.0
 40
0.6000000000000006
100
AcDbArc
 50
0.0
 51
89.9999999999982947
  0
ARC
  5
94
100
AcDbEntity
  8
Bottom
 62
256
370
-1
  6
ByLayer
100
AcDbCircle
 10
51.4000000000000341
 20
23.4000000000000021
 30
0.0
 40
0.6000000000000028
100
AcDbArc
 50
0.0
 51
90.0
  0
ARC
  5
95
100
AcDbEntity
  8
Bottom
 62
256
370
-1
  6
ByLayer
100
AcDbCircle
 10
46.5999999999999659
 20
23.4000000000000199
 30
0.0
 40
0.6000000000000028
100
AcDbArc
 50
90.0000000000016911
 51
180.0
  0
ARC
  5
96
100
AcDbEntity
  8
Bottom
 62
256
370
-1
  6
ByLayer
100
AcDbCircle
 10
45.8000000000000114
 20
21.3999999999999631
 30
0.0
 40
0.5999999999999939
100
AcDbArc
 50
90.0
 51
180.0
  0
ARC
  5
97
100
AcDbEntity
  8
Bottom
 62
256
370
-1
  6
ByLayer
100
AcDbCircle
 10
45.8000000000000114
 20
18.5999999999999801
 30
0.0
 40
0.5999999999999984
100
AcDbArc
 50
180.0
 51
270.0000000000017053
  0
ARC
  5
98
100
AcDbEntity
  8
Bottom
 62
256
370
-1
  6
ByLayer
100
AcDbCircle
 10
33.4880635898069841
 20
56.8035884668318687
 30
0.0
 40
0.5999999999999881
100
AcDbArc
 50
109.9999999999985505
 51
200.0000000000001421
  0
ARC
  5
99
100
AcDbEntity
  8
Bottom
 62
256
370
-1
  6
ByLayer
100
AcDbCircle
 10
34.4457199911189278
 20
54.1724491286312997
 30
0.0
 40
0.5999999999999842
100
AcDbArc
 50
199.9999999999998863
 51
290.0000000000021032
  0
ARC
  5
9A
100
AcDbEntity
  8
Bottom
 62
256
370
-1
  6
ByLayer
100
AcDbCircle
 10
35.8815143743989893
 20
52.5666800017200586
 30
0.0
 40
0.6000000000000063
100
AcDbArc
 50
200.0000000000003695
 51
289.9999999999996021
  0
ARC
  5
9B
100
AcDbEntity
  8
Bottom
 62
256
370
-1
  6
ByLayer
100
AcDbCircle
 10
40.3920389541713121
 20
54.2083766896832984
 30
0.0
 40
0.5999999999999976
100
AcDbArc
 50
289.9999999999996021
 51
19.9999999999988027
  0
ARC
  5
9C
100
AcDbEntity
  8
Bottom
 62
256
370
-1
  6
ByLayer
100
AcDbCircle
 10
40.4597527641486678
 20
56.3613780459155933
 30
0.0
 40
0.5999999999999954
100
AcDbArc
 50
289.9999999999998863
 51
20.0000000000009983
  0
ARC
  5
9D
100
AcDbEntity
  8
Bottom
 62
256
370
-1
  6
ByLayer
100
AcDbCircle
 10
39.5020963628368378
 20
58.9925173841161126
 30
0.0
 40
0.6000000000000253
100
AcDbArc
 50
20.0000000000005862
 51
109.9999999999971152
  0
ARC
  5
9E
100
AcDbEntity
  8
Bottom
 62
256
370
-1
  6
ByLayer
100
AcDbCircle
 10
0.0000000000005684
 20
20.7486542739441546
 30
0.0
 40
89.9999999999993463
100
AcDbArc
 50
0.0
 51
20.000000000000103
  0
ARC
  5
9F
100
AcDbEntity
  8
Bottom
 62
256
370
-1
  6
ByLayer
100
AcDbCircle
 10
-49.9999999999997158
 20
11.9323052385225736
 30
0.0
 40
89.9999999999996447
100
AcDbArc
 50
0.0
 51
20.000000000000103
  0
LINE
  5
A0
100
AcDbEntity
100
AcDbLine
  8
Bottom
 62
256
370
-1
  6
ByLayer
 10
33.4707900279687962
 20
57.435808067968523
 30
0.0
 11
39.1089457526841855
 21
59.4879289279225461
 31
0.0
  0
LINE
  5
A1
100
AcDbEntity
100
AcDbLine
  8
Bottom
 62
256
370
-1
  6
ByLayer
 10
72.9378801009769404
 20
71.800654087646592
 30
0.0
 11
67.2997243762615085
 21
69.748533227692576
 31
0.0
  0
LINE
  5
A2
100
AcDbEntity
100
AcDbLine
  8
Bottom
 62
256
370
-1
  6
ByLayer
 10
78.0
 20
17.9999999999999716
 30
0.0
 11
84.0
 21
18.0000000000000071
 31
0.0
  0
LINE
  5
A3
100
AcDbEntity
100
AcDbLine
  8
Bottom
 62
256
370
-1
  6
ByLayer
 10
46.0
 20
17.9999999999999858
 30
0.0
 11
51.9999999999999432
 21
18.0000000000000426
 31
0.0
  0
LINE
  5
A4
100
AcDbEntity
100
AcDbLine
  8
Bottom
 62
256
370
-1
  6
ByLayer
 10
46.5999999999999659
 20
24.0000000000000142
 30
0.0
 11
46.9566243270259065
 21
23.9999999999999858
 31
0.0
  0
MTEXT
  5
A5
100
AcDbEntity
100
AcDbMText
  8
Bottom Text
 62
256
370
-1
  6
ByLayer
 10
80.7011482906917763
 20
52.6842340805069398
 30
0.0
 40
2.0
 41
100.0
 71
3
 72
2
  1
Main\~Plate\PBottom
  7
standard
 50
360.0
 73
1
 44
1.0
  0
LINE
  5
A6
100
AcDbEntity
100
AcDbLine
  8
Bottom
 62
256
370
-1
  6
ByLayer
 10
58.7637244328847217
 20
73.0267499634609294
 30
0.0
 11
63.2099862961184158
 21
60.8107458932441176
 31
0.0
  0
LINE
  5
A7
100
AcDbEntity
100
AcDbLine
  8
Bottom
 62
256
370
-1
  6
ByLayer
 10
43.5407039761529973
 20
67.4860236415851347
 30
0.0
 11
47.9869658393866985
 21
55.2700195713683087
 31
0.0
  0
LINE
  5
A8
100
AcDbEntity
100
AcDbLine
  8
Bottom
 62
256
370
-1
  6
ByLayer
 10
63.2099862961184158
 20
60.8107458932441176
 30
0.0
 11
59.921062123367733
 21
59.613675391604275
 31
0.0
  0
LINE
  5
A9
100
AcDbEntity
100
AcDbLine
  8
Bottom
 62
256
370
-1
  6
ByLayer
 10
51.2758900121373742
 20
56.4670900730081229
 30
0.0
 11
47.9869658393866985
 21
55.2700195713683087
 31
0.0
  0
LINE
  5
AA
100
AcDbEntity
100
AcDbLine
  8
Bottom
 62
256
370
-1
  6
ByLayer
 10
74.6445297241665457
 20
78.8068903856647722
 30
0.0
 11
58.7637244328847217
 21
73.0267499634609294
 31
0.0
  0
LINE
  5
AB
100
AcDbEntity
100
AcDbLine
  8
Bottom
 62
256
370
-1
  6
ByLayer
 10
43.5407039761529973
 20
67.4860236415851347
 30
0.0
 11
27.6598986848712229
 21
61.7058832193813558
 31
0.0
  0
LINE
  5
AC
100
AcDbEntity
100
AcDbLine
  8
Bottom
 62
256
370
-1
  6
ByLayer
 10
51.3999999999999773
 20
23.9999999999999858
 30
0.0
 11
46.9566243270259065
 21
23.9999999999999858
 31
0.0
  0
LINE
  5
AD
100
AcDbEntity
100
AcDbLine
  8
Bottom
 62
256
370
-1
  6
ByLayer
 10
72.2986218982447326
 20
25.6066094021798456
 30
0.0
 11
74.0806960570504316
 21
20.7104008910677351
 31
0.0
  0
LINE
  5
AE
100
AcDbEntity
100
AcDbLine
  8
Bottom
 62
256
370
-1
  6
ByLayer
 10
63.6534497870143809
 20
22.4600240835836367
 30
0.0
 11
65.4355239458200799
 21
17.5638155724715084
 31
0.0
  0
ARC
  5
AF
100
AcDbEntity
  8
Bottom
 62
256
370
-1
  6
ByLayer
100
AcDbCircle
 10
65.7374362740619063
 20
30.1838185087223785
 30
0.0
 40
8.0
100
AcDbArc
 50
325.0996321953934398
 51
74.9003678046064749
  0
LINE
  5
B0
100
AcDbEntity
100
AcDbLine
  8
Bottom
 62
256
370
-1
  6
ByLayer
 10
59.921062123367733
 20
59.613675391604275
 30
0.0
 11
67.8214227611093747
 21
37.9076129338610741
 31
0.0
  0
ARC
  5
B1
100
AcDbEntity
  8
Bottom
 62
256
370
-1
  6
ByLayer
100
AcDbCircle
 10
65.7374362740619063
 20
30.1838185087223785
 30
0.0
 40
8.0
100
AcDbArc
 50
145.0996321953935819
 51
254.9003678046064749
  0
LINE
  5
B2
100
AcDbEntity
100
AcDbLine
  8
Bottom
 62
256
370
-1
  6
ByLayer
 10
51.2758900121373742
 20
56.4670900730081229
 30
0.0
 11
59.1762506498790231
 21
34.7610276152649078
 31
0.0
  0
LINE
  5
B3
100
AcDbEntity
100
AcDbLine
  8
Bottom
 62
256
370
-1
  6
ByLayer
 10
40.0
 20
10.0
 30
0.0
 11
90.0
 21
10.0
 31
0.0
  0
CIRCLE
  5
B4
100
AcDbEntity
100
AcDbCircle
  8
Bottom
 62
256
370
-1
  6
ByLayer
 10
83.4999999999995453
 20
37.7099080199929944
 30
0.0
 40
1.4199999999999999
  0
CIRCLE
  5
B5
100
AcDbEntity
100
AcDbCircle
  8
Bottom
 62
256
370
-1
  6
ByLayer
 10
74.4999999999995453
 20
37.7099080199928665
 30
0.0
 40
1.4199999999999999
  0
CIRCLE
  5
B6
100
AcDbEntity
100
AcDbCircle
  8
Bottom
 62
256
370
-1
  6
ByLayer
 10
74.4999999999997158
 20
26.7099080199928487
 30
0.0
 40
1.4199999999999999
  0
CIRCLE
  5
B7
100
AcDbEntity
100
AcDbCircle
  8
Bottom
 62
256
370
-1
  6
ByLayer
 10
83.4999999999997158
 20
26.7099080199929979
 30
0.0
 40
1.4199999999999999
  0
CIRCLE
  5
B8
100
AcDbEntity
100
AcDbCircle
  8
Bottom
 62
256
370
-1
  6
ByLayer
 10
54.9999999999997158
 20
26.7099080199925396
 30
0.0
 40
1.4199999999999999
  0
CIRCLE
  5
B9
100
AcDbEntity
100
AcDbCircle
  8
Bottom
 62
256
370
-1
  6
ByLayer
 10
45.9999999999997158
 20
26.7099080199923975
 30
0.0
 40
1.4199999999999999
  0
CIRCLE
  5
BA
100
AcDbEntity
100
AcDbCircle
  8
Bottom
 62
256
370
-1
  6
ByLayer
 10
45.9999999999995453
 20
37.7099080199923975
 30
0.0
 40
1.4199999999999999
  0
CIRCLE
  5
BB
100
AcDbEntity
100
AcDbCircle
  8
Bottom
 62
256
370
-1
  6
ByLayer
 10
54.9999999999995453
 20
37.7099080199925396
 30
0.0
 40
1.4199999999999999
  0
LINE
  5
BC
100
AcDbEntity
100
AcDbLine
  8
Middle Layer
 62
256
370
-1
  6
ByLayer
 10
83.5045128863119999
 20
54.8903699338610522
 30
0.0
 11
88.749471517678316
 21
40.4799645282088818
 31
0.0
  0
CIRCLE
  5
BD
100
AcDbEntity
100
AcDbCircle
  8
Middle Layer
 62
256
370
-1
  6
ByLayer
 10
109.999999999999801
 20
17.9999999999997691
 30
0.0
 40
1.424999999999996
  0
CIRCLE
  5
BE
100
AcDbEntity
100
AcDbCircle
  8
Middle Layer
 62
256
370
-1
  6
ByLayer
 10
125.9999999999996874
 20
17.9999999999998117
 30
0.0
 40
1.424999999999996
  0
CIRCLE
  5
BF
100
AcDbEntity
100
AcDbCircle
  8
Middle Layer
 62
256
370
-1
  6
ByLayer
 10
95.1871270426149181
 20
52.0306953408489292
 30
0.0
 40
1.424999999999996
  0
CIRCLE
  5
C0
100
AcDbEntity
100
AcDbCircle
  8
Middle Layer
 62
256
370
-1
  6
ByLayer
 10
123.377905666191964
 20
62.2912996406192292
 30
0.0
 40
1.424999999999996
  0
LINE
  5
C1
100
AcDbEntity
100
AcDbLine
  8
Middle Layer
 62
256
370
-1
  6
ByLayer
 10
80.6598986848707966
 20
62.7058832193806737
 30
0.0
 11
93.9565492689912958
 21
67.5454682474390893
 31
0.0
  0
LINE
  5
C2
100
AcDbEntity
100
AcDbLine
  8
Middle Layer
 62
256
370
-1
  6
ByLayer
 10
87.5723358707315498
 20
43.7141181378304395
 30
0.0
 11
80.6598986848707966
 21
62.7058832193806737
 31
0.0
  0
LINE
  5
C3
100
AcDbEntity
100
AcDbLine
  8
Middle Layer
 62
256
370
-1
  6
ByLayer
 10
93.0
 20
11.0
 30
0.0
 11
93.0
 21
12.9323052385203709
 31
0.0
  0
LINE
  5
C4
100
AcDbEntity
100
AcDbLine
  8
Middle Layer
 62
256
370
-1
  6
ByLayer
 10
116.3999999999998067
 20
11.0
 30
0.0
 11
93.0
 21
11.0
 31
0.0
  0
LINE
  5
C5
100
AcDbEntity
100
AcDbLine
  8
Middle Layer
 62
256
370
-1
  6
ByLayer
 10
86.2828515038113153
 20
58.3674040393028619
 30
0.0
 11
92.2968842768410411
 21
60.5563329565871982
 31
0.0
  0
LINE
  5
C6
100
AcDbEntity
100
AcDbLine
  8
Middle Layer
 62
256
370
-1
  6
ByLayer
 10
93.0659119353078665
 20
60.1977294701110281
 30
0.0
 11
94.0235683366199453
 21
57.5665901319105728
 31
0.0
  0
LINE
  5
C7
100
AcDbEntity
100
AcDbLine
  8
Middle Layer
 62
256
370
-1
  6
ByLayer
 10
93.6649648501437468
 20
56.7975624734435769
 30
0.0
 11
87.6509320771139926
 21
54.6086335561591341
 31
0.0
  0
LINE
  5
C8
100
AcDbEntity
100
AcDbLine
  8
Middle Layer
 62
256
370
-1
  6
ByLayer
 10
86.8819044186470393
 20
54.9672370426354107
 30
0.0
 11
85.9242480173350742
 21
57.5983763808357594
 31
0.0
  0
LINE
  5
C9
100
AcDbEntity
100
AcDbLine
  8
Middle Layer
 62
256
370
-1
  6
ByLayer
 10
105.7999999999997982
 20
22.3999999999997534
 30
0.0
 11
105.7999999999998977
 21
19.5999999999997421
 31
0.0
  0
LINE
  5
CA
100
AcDbEntity
100
AcDbLine
  8
Middle Layer
 62
256
370
-1
  6
ByLayer
 10
105.1999999999999034
 20
18.9999999999996625
 30
0.0
 11
98.7999999999998835
 21
18.9999999999996021
 31
0.0
  0
LINE
  5
CB
100
AcDbEntity
100
AcDbLine
  8
Middle Layer
 62
256
370
-1
  6
ByLayer
 10
98.1999999999999034
 20
19.5999999999996248
 30
0.0
 11
98.1999999999998323
 21
22.399999999999693
 31
0.0
  0
LINE
  5
CC
100
AcDbEntity
100
AcDbLine
  8
Middle Layer
 62
256
370
-1
  6
ByLayer
 10
98.7999999999998124
 20
22.9999999999996021
 30
0.0
 11
105.1999999999997897
 21
22.9999999999995985
 31
0.0
  0
LINE
  5
CD
100
AcDbEntity
100
AcDbLine
  8
Middle Layer
 62
256
370
-1
  6
ByLayer
 10
142.9999999999996874
 20
11.0
 30
0.0
 11
119.5999999999997954
 21
11.0
 31
0.0
  0
LINE
  5
CE
100
AcDbEntity
100
AcDbLine
  8
Middle Layer
 62
256
370
-1
  6
ByLayer
 10
142.9999999999995737
 20
21.7486542739439486
 30
0.0
 11
142.9999999999996874
 21
11.0
 31
0.0
  0
LINE
  5
CF
100
AcDbEntity
100
AcDbLine
  8
Middle Layer
 62
256
370
-1
  6
ByLayer
 10
127.644529724165821
 20
79.8068903856644027
 30
0.0
 11
137.5723358707311377
 21
52.53046717325401
 31
0.0
  0
LINE
  5
D0
100
AcDbEntity
100
AcDbLine
  8
Middle Layer
 62
256
370
-1
  6
ByLayer
 10
119.599999999999369
 20
76.8789210173980564
 30
0.0
 11
127.644529724165821
 21
79.8068903856644027
 31
0.0
  0
LINE
  5
D1
100
AcDbEntity
100
AcDbLine
  8
Middle Layer
 62
256
370
-1
  6
ByLayer
 10
137.1999999999996476
 20
18.9999999999999929
 30
0.0
 11
130.7999999999996987
 21
18.9999999999999432
 31
0.0
  0
LINE
  5
D2
100
AcDbEntity
100
AcDbLine
  8
Middle Layer
 62
256
370
-1
  6
ByLayer
 10
130.199999999999676
 20
19.5999999999999162
 30
0.0
 11
130.1999999999996191
 21
22.3999999999999204
 31
0.0
  0
LINE
  5
D3
100
AcDbEntity
100
AcDbLine
  8
Middle Layer
 62
256
370
-1
  6
ByLayer
 10
130.7999999999996703
 20
22.9999999999999503
 30
0.0
 11
137.1999999999996191
 21
22.9999999999999289
 31
0.0
  0
LINE
  5
D4
100
AcDbEntity
100
AcDbLine
  8
Middle Layer
 62
256
370
-1
  6
ByLayer
 10
137.7999999999996135
 20
22.3999999999999382
 30
0.0
 11
137.7999999999996419
 21
19.6000000000000121
 31
0.0
  0
LINE
  5
D5
100
AcDbEntity
100
AcDbLine
  8
Middle Layer
 62
256
370
-1
  6
ByLayer
 10
120.7108387669394176
 20
67.2799622023596271
 30
0.0
 11
119.7531823656275378
 21
69.9111015405602529
 31
0.0
  0
LINE
  5
D6
100
AcDbEntity
100
AcDbLine
  8
Middle Layer
 62
256
370
-1
  6
ByLayer
 10
120.1117858521037647
 20
70.6801291990273057
 30
0.0
 11
126.1258186251334479
 21
72.8690581163115212
 31
0.0
  0
LINE
  5
D7
100
AcDbEntity
100
AcDbLine
  8
Middle Layer
 62
256
370
-1
  6
ByLayer
 10
126.8948462836004296
 20
72.5104546298352943
 30
0.0
 11
127.8525026849123094
 21
69.879315291634839
 31
0.0
  0
LINE
  5
D8
100
AcDbEntity
100
AcDbLine
  8
Middle Layer
 62
256
370
-1
  6
ByLayer
 10
127.4938991984360825
 20
69.1102876331678999
 30
0.0
 11
121.4798664254064136
 21
66.9213587158835708
 31
0.0
  0
ARC
  5
D9
100
AcDbEntity
  8
Middle Layer
 62
256
370
-1
  6
ByLayer
100
AcDbCircle
 10
92.5020963628364115
 20
59.992517384115672
 30
0.0
 40
0.5999999999999791
100
AcDbArc
 50
20.0000000000006892
 51
110.0000000000033396
  0
ARC
  5
DA
100
AcDbEntity
  8
Middle Layer
 62
256
370
-1
  6
ByLayer
100
AcDbCircle
 10
93.4597527641483197
 20
57.3613780459149893
 30
0.0
 40
0.599999999999983
100
AcDbArc
 50
290.0000000000000568
 51
20.0000000000032863
  0
ARC
  5
DB
100
AcDbEntity
  8
Middle Layer
 62
256
370
-1
  6
ByLayer
100
AcDbCircle
 10
87.445719991118608
 20
55.1724491286306602
 30
0.0
 40
0.599999999999974
100
AcDbArc
 50
199.9999999999969873
 51
290.0000000000000568
  0
ARC
  5
DC
100
AcDbEntity
  8
Middle Layer
 62
256
370
-1
  6
ByLayer
100
AcDbCircle
 10
86.4880635898066998
 20
57.8035884668313429
 30
0.0
 40
0.600000000000009
100
AcDbArc
 50
110.0000000000018048
 51
199.9999999999990621
  0
ARC
  5
DD
100
AcDbEntity
  8
Middle Layer
 62
256
370
-1
  6
ByLayer
100
AcDbCircle
 10
105.1999999999999034
 20
19.5999999999997918
 30
0.0
 40
0.599999999999999
100
AcDbArc
 50
270.0
 51
360.0
  0
ARC
  5
DE
100
AcDbEntity
  8
Middle Layer
 62
256
370
-1
  6
ByLayer
100
AcDbCircle
 10
98.7999999999998977
 20
19.5999999999996248
 30
0.0
 40
0.5999999999999968
100
AcDbArc
 50
180.0
 51
270.0
  0
ARC
  5
DF
100
AcDbEntity
  8
Middle Layer
 62
256
370
-1
  6
ByLayer
100
AcDbCircle
 10
98.799999999999784
 20
22.3999999999996362
 30
0.0
 40
0.6000000000000034
100
AcDbArc
 50
90.0000000000017337
 51
180.0
  0
ARC
  5
E0
100
AcDbEntity
  8
Middle Layer
 62
256
370
-1
  6
ByLayer
100
AcDbCircle
 10
105.1999999999997897
 20
22.3999999999997428
 30
0.0
 40
0.6000000000000013
100
AcDbArc
 50
360.0
 51
89.9999999999983231
  0
ARC
  5
E1
100
AcDbEntity
  8
Middle Layer
 62
256
370
-1
  6
ByLayer
100
AcDbCircle
 10
130.7999999999996987
 20
19.5999999999999233
 30
0.0
 40
0.5999999999999968
100
AcDbArc
 50
180.0
 51
270.0
  0
ARC
  5
E2
100
AcDbEntity
  8
Middle Layer
 62
256
370
-1
  6
ByLayer
100
AcDbCircle
 10
130.7999999999996703
 20
22.3999999999999133
 30
0.0
 40
0.6000000000000034
100
AcDbArc
 50
90.0000000000017337
 51
180.0
  0
ARC
  5
E3
100
AcDbEntity
  8
Middle Layer
 62
256
370
-1
  6
ByLayer
100
AcDbCircle
 10
137.1999999999996191
 20
22.3999999999999382
 30
0.0
 40
0.599999999999999
100
AcDbArc
 50
360.0
 51
89.9999999999983231
  0
ARC
  5
E4
100
AcDbEntity
  8
Middle Layer
 62
256
370
-1
  6
ByLayer
100
AcDbCircle
 10
137.199999999999676
 20
19.6000000000000512
 30
0.0
 40
0.599999999999999
100
AcDbArc
 50
270.0
 51
360.0
  0
ARC
  5
E5
100
AcDbEntity
  8
Middle Layer
 62
256
370
-1
  6
ByLayer
100
AcDbCircle
 10
120.3169979380990924
 20
70.1163136265556659
 30
0.0
 40
0.5999999999999952
100
AcDbArc
 50
110.0000000000002842
 51
200.0000000000001705
  0
ARC
  5
E6
100
AcDbEntity
  8
Middle Layer
 62
256
370
-1
  6
ByLayer
100
AcDbCircle
 10
126.3310307111289887
 20
72.3052425438399382
 30
0.0
 40
0.5999999999999801
100
AcDbArc
 50
20.0000000000001812
 51
110.0000000000018048
  0
ARC
  5
E7
100
AcDbEntity
  8
Middle Layer
 62
256
370
-1
  6
ByLayer
100
AcDbCircle
 10
127.2886871124407122
 20
69.6741032056394261
 30
0.0
 40
0.5999999999999871
100
AcDbArc
 50
290.0000000000000568
 51
20.0000000000001812
  0
ARC
  5
E8
100
AcDbEntity
  8
Middle Layer
 62
256
370
-1
  6
ByLayer
100
AcDbCircle
 10
121.2746543394110574
 20
67.4851742883550401
 30
0.0
 40
0.5999999999999908
100
AcDbArc
 50
200.0000000000001421
 51
290.000000000001819
  0
ARC
  5
E9
100
AcDbEntity
  8
Middle Layer
 62
256
370
-1
  6
ByLayer
100
AcDbCircle
 10
3.0000000000007105
 20
12.9323052385193265
 30
0.0
 40
89.9999999999994458
100
AcDbArc
 50
360.0
 51
20.0000000000005862
  0
ARC
  5
EA
100
AcDbEntity
  8
Middle Layer
 62
256
370
-1
  6
ByLayer
100
AcDbCircle
 10
53.0000000000008882
 20
21.748654273943135
 30
0.0
 40
89.9999999999989058
100
AcDbArc
 50
360.0
 51
20.0000000000006892
  0
LINE
  5
EB
100
AcDbEntity
100
AcDbLine
  8
Middle Layer
 62
256
370
-1
  6
ByLayer
 10
80.6598986848707966
 20
62.7058832193806737
 30
0.0
 11
96.5407039761525567
 21
68.4860236415847226
 31
0.0
  0
LINE
  5
EC
100
AcDbEntity
100
AcDbLine
  8
Middle Layer
 62
256
370
-1
  6
ByLayer
 10
96.5407039761525567
 20
68.4860236415847226
 30
0.0
 11
100.9869658393861869
 21
56.2700195713678539
 31
0.0
  0
LINE
  5
ED
100
AcDbEntity
100
AcDbLine
  8
Middle Layer
 62
256
370
-1
  6
ByLayer
 10
100.9869658393861869
 20
56.2700195713678539
 30
0.0
 11
116.3999999999994088
 21
61.8799052255592983
 31
0.0
  0
CIRCLE
  5
EE
100
AcDbEntity
100
AcDbCircle
  8
Middle Layer
 62
256
370
-1
  6
ByLayer
 10
107.999999999999531
 20
38.7099080199925396
 30
0.0
 40
1.424999999999996
  0
CIRCLE
  5
EF
100
AcDbEntity
100
AcDbCircle
  8
Middle Layer
 62
256
370
-1
  6
ByLayer
 10
107.9999999999997016
 20
27.7099080199925396
 30
0.0
 40
1.424999999999996
  0
CIRCLE
  5
F0
100
AcDbEntity
100
AcDbCircle
  8
Middle Layer
 62
256
370
-1
  6
ByLayer
 10
98.999999999999531
 20
38.7099080199923975
 30
0.0
 40
1.424999999999996
  0
CIRCLE
  5
F1
100
AcDbEntity
100
AcDbCircle
  8
Middle Layer
 62
256
370
-1
  6
ByLayer
 10
98.9999999999997016
 20
27.7099080199923975
 30
0.0
 40
1.424999999999996
  0
CIRCLE
  5
F2
100
AcDbEntity
100
AcDbCircle
  8
Middle Layer
 62
256
370
-1
  6
ByLayer
 10
136.4999999999995453
 20
38.7099080199930086
 30
0.0
 40
1.4199999999999999
  0
CIRCLE
  5
F3
100
AcDbEntity
100
AcDbCircle
  8
Middle Layer
 62
256
370
-1
  6
ByLayer
 10
127.499999999999531
 20
38.7099080199928594
 30
0.0
 40
1.4199999999999999
  0
CIRCLE
  5
F4
100
AcDbEntity
100
AcDbCircle
  8
Middle Layer
 62
256
370
-1
  6
ByLayer
 10
127.4999999999997016
 20
27.7099080199928558
 30
0.0
 40
1.4199999999999999
  0
CIRCLE
  5
F5
100
AcDbEntity
100
AcDbCircle
  8
Middle Layer
 62
256
370
-1
  6
ByLayer
 10
136.4999999999997158
 20
27.7099080199930121
 30
0.0
 40
1.4199999999999999
  0
LINE
  5
F6
100
AcDbEntity
100
AcDbLine
  8
Middle Layer
 62
256
370
-1
  6
ByLayer
 10
121.4999999999995453
 20
42.209908019992767
 30
0.0
 11
121.4999999999995453
 21
24.209908019992767
 31
0.0
  0
LINE
  5
F7
100
AcDbEntity
100
AcDbLine
  8
Middle Layer
 62
256
370
-1
  6
ByLayer
 10
114.4999999999995453
 20
24.2099080199926533
 30
0.0
 11
114.4999999999995453
 21
42.2099080199926533
 31
0.0
  0
LINE
  5
F8
100
AcDbEntity
100
AcDbLine
  8
Middle Layer
 62
256
370
-1
  6
ByLayer
 10
116.3999999999995509
 20
42.2099080199926817
 30
0.0
 11
116.3999999999994088
 21
61.8799052255592983
 31
0.0
  0
LINE
  5
F9
100
AcDbEntity
100
AcDbLine
  8
Middle Layer
 62
256
370
-1
  6
ByLayer
 10
116.3999999999995509
 20
42.2099080199926817
 30
0.0
 11
114.4999999999995453
 21
42.2099080199926533
 31
0.0
  0
LINE
  5
FA
100
AcDbEntity
100
AcDbLine
  8
Middle Layer
 62
256
370
-1
  6
ByLayer
 10
119.5999999999995964
 20
42.2099080199927386
 30
0.0
 11
121.4999999999995453
 21
42.209908019992767
 31
0.0
  0
LINE
  5
FB
100
AcDbEntity
100
AcDbLine
  8
Middle Layer
 62
256
370
-1
  6
ByLayer
 10
119.599999999999369
 20
76.8789210173980564
 30
0.0
 11
119.5999999999995964
 21
42.2099080199927386
 31
0.0
  0
LINE
  5
FC
100
AcDbEntity
100
AcDbLine
  8
Middle Layer
 62
256
370
-1
  6
ByLayer
 10
116.3999999999998067
 20
11.0
 30
0.0
 11
116.3999999999997357
 21
24.2099080199926888
 31
0.0
  0
LINE
  5
FD
100
AcDbEntity
100
AcDbLine
  8
Middle Layer
 62
256
370
-1
  6
ByLayer
 10
116.3999999999997357
 20
24.2099080199926888
 30
0.0
 11
114.4999999999995453
 21
24.2099080199926533
 31
0.0
  0
LINE
  5
FE
100
AcDbEntity
100
AcDbLine
  8
Middle Layer
 62
256
370
-1
  6
ByLayer
 10
119.5999999999997954
 20
24.2099080199927457
 30
0.0
 11
121.4999999999995453
 21
24.209908019992767
 31
0.0
  0
LINE
  5
FF
100
AcDbEntity
100
AcDbLine
  8
Middle Layer
 62
256
370
-1
  6
ByLayer
 10
119.5999999999997954
 20
24.2099080199927457
 30
0.0
 11
119.5999999999997954
 21
11.0
 31
0.0
  0
MTEXT
  5
100
100
AcDbEntity
100
AcDbMText
  8
Middle Text
 62
256
370
-1
  6
ByLayer
 10
91.6598986848707966
 20
48.7058832193806666
 30
0.0
 40
2.0
 41
100.0
 71
1
 72
2
  1
Top\~Plate\PMiddle
  7
standard
 50
0.0
 73
0
 44
1.0
  0
MTEXT
  5
101
100
AcDbEntity
100
AcDbMText
  8
Middle Text
 62
256
370
-1
  6
ByLayer
 10
122.6598986848707966
 20
48.7058832193806666
 30
0.0
 40
2.0
 41
100.0
 71
1
 72
2
  1
Top\~Plate\PMiddle
  7
standard
 50
0.0
 73
0
 44
1.0
  0
LINE
  5
102
100
AcDbEntity
100
AcDbLine
  8
Top Layer
 62
256
370
-1
  6
ByLayer
 10
136.5045128863119999
 20
55.8903699338610522
 30
0.0
 11
141.7494715176783302
 21
41.4799645282088818
 31
0.0
  0
CIRCLE
  5
103
100
AcDbEntity
100
AcDbCircle
  8
Top Layer
 62
256
370
-1
  6
ByLayer
 10
162.999999999999801
 20
18.9999999999997691
 30
0.0
 40
1.424999999999996
  0
CIRCLE
  5
104
100
AcDbEntity
100
AcDbCircle
  8
Top Layer
 62
256
370
-1
  6
ByLayer
 10
178.9999999999996874
 20
18.9999999999998117
 30
0.0
 40
1.424999999999996
  0
CIRCLE
  5
105
100
AcDbEntity
100
AcDbCircle
  8
Top Layer
 62
256
370
-1
  6
ByLayer
 10
148.1871270426149181
 20
53.0306953408489292
 30
0.0
 40
1.424999999999996
  0
CIRCLE
  5
106
100
AcDbEntity
100
AcDbCircle
  8
Top Layer
 62
256
370
-1
  6
ByLayer
 10
176.377905666191964
 20
63.2912996406192292
 30
0.0
 40
1.424999999999996
  0
ARC
  5
107
100
AcDbEntity
  8
Top Layer
 62
256
370
-1
  6
ByLayer
100
AcDbCircle
 10
173.6780036189987015
 20
20.2735936472078073
 30
0.0
 40
0.4999999999999964
100
AcDbArc
 50
199.9999999999984368
 51
290.0000000000009663
  0
ARC
  5
108
100
AcDbEntity
  8
Top Layer
 62
256
370
-1
  6
ByLayer
100
AcDbCircle
 10
177.9066204125353181
 20
21.8126842921732305
 30
0.0
 40
0.4999999999999947
100
AcDbArc
 50
289.9999999999990905
 51
19.9999999999984013
  0
LINE
  5
109
100
AcDbEntity
100
AcDbLine
  8
Top Layer
 62
256
370
-1
  6
ByLayer
 10
173.2081573086057062
 20
20.1025835755449407
 30
0.0
 11
172.5999999999997954
 21
21.7734820484162164
 31
0.0
  0
LINE
  5
10A
100
AcDbEntity
100
AcDbLine
  8
Top Layer
 62
256
370
-1
  6
ByLayer
 10
178.0776304841980959
 20
21.3428379817803524
 30
0.0
 11
173.8490136906615078
 21
19.8037473368148014
 31
0.0
  0
LINE
  5
10B
100
AcDbEntity
100
AcDbLine
  8
Top Layer
 62
256
370
-1
  6
ByLayer
 10
172.5999999999997954
 20
21.7734820484162164
 30
0.0
 11
172.5999999999997954
 21
12.0
 31
0.0
  0
LINE
  5
10C
100
AcDbEntity
100
AcDbLine
  8
Top Layer
 62
256
370
-1
  6
ByLayer
 10
140.5723358707315356
 20
44.7141181378304395
 30
0.0
 11
133.6598986848707966
 21
63.7058832193806737
 31
0.0
  0
LINE
  5
10D
100
AcDbEntity
100
AcDbLine
  8
Top Layer
 62
256
370
-1
  6
ByLayer
 10
146.0
 20
12.0
 30
0.0
 11
146.0
 21
13.9323052385203709
 31
0.0
  0
LINE
  5
10E
100
AcDbEntity
100
AcDbLine
  8
Top Layer
 62
256
370
-1
  6
ByLayer
 10
169.3999999999998067
 20
12.0
 30
0.0
 11
146.0
 21
12.0
 31
0.0
  0
LINE
  5
10F
100
AcDbEntity
100
AcDbLine
  8
Top Layer
 62
256
370
-1
  6
ByLayer
 10
146.0659119353078665
 20
61.1977294701110281
 30
0.0
 11
147.0235683366199453
 21
58.5665901319105728
 31
0.0
  0
LINE
  5
110
100
AcDbEntity
100
AcDbLine
  8
Top Layer
 62
256
370
-1
  6
ByLayer
 10
146.6649648501437468
 20
57.7975624734435769
 30
0.0
 11
140.6509320771139926
 21
55.6086335561591341
 31
0.0
  0
LINE
  5
111
100
AcDbEntity
100
AcDbLine
  8
Top Layer
 62
256
370
-1
  6
ByLayer
 10
139.8819044186470251
 20
55.9672370426354107
 30
0.0
 11
138.9242480173350884
 21
58.5983763808357594
 31
0.0
  0
LINE
  5
112
100
AcDbEntity
100
AcDbLine
  8
Top Layer
 62
256
370
-1
  6
ByLayer
 10
158.799999999999784
 20
23.3999999999997534
 30
0.0
 11
158.7999999999999261
 21
20.599999999999735
 31
0.0
  0
LINE
  5
113
100
AcDbEntity
100
AcDbLine
  8
Top Layer
 62
256
370
-1
  6
ByLayer
 10
158.1999999999999034
 20
19.9999999999997122
 30
0.0
 11
151.7999999999998977
 21
19.9999999999996021
 31
0.0
  0
LINE
  5
114
100
AcDbEntity
100
AcDbLine
  8
Top Layer
 62
256
370
-1
  6
ByLayer
 10
151.1999999999999034
 20
20.5999999999996248
 30
0.0
 11
151.1999999999998465
 21
23.399999999999693
 31
0.0
  0
LINE
  5
115
100
AcDbEntity
100
AcDbLine
  8
Top Layer
 62
256
370
-1
  6
ByLayer
 10
151.7999999999998124
 20
23.9999999999996021
 30
0.0
 11
158.1999999999998181
 21
23.9999999999996056
 31
0.0
  0
LINE
  5
116
100
AcDbEntity
100
AcDbLine
  8
Top Layer
 62
256
370
-1
  6
ByLayer
 10
195.9999999999996874
 20
12.0
 30
0.0
 11
172.5999999999997954
 21
12.0
 31
0.0
  0
LINE
  5
117
100
AcDbEntity
100
AcDbLine
  8
Top Layer
 62
256
370
-1
  6
ByLayer
 10
195.9999999999995737
 20
22.7486542739439486
 30
0.0
 11
195.9999999999996874
 21
12.0
 31
0.0
  0
LINE
  5
118
100
AcDbEntity
100
AcDbLine
  8
Top Layer
 62
256
370
-1
  6
ByLayer
 10
180.6445297241658068
 20
80.8068903856644027
 30
0.0
 11
190.5723358707311661
 21
53.53046717325401
 31
0.0
  0
LINE
  5
119
100
AcDbEntity
100
AcDbLine
  8
Top Layer
 62
256
370
-1
  6
ByLayer
 10
190.1999999999996476
 20
19.9999999999999929
 30
0.0
 11
183.7999999999996987
 21
19.9999999999999432
 31
0.0
  0
LINE
  5
11A
100
AcDbEntity
100
AcDbLine
  8
Top Layer
 62
256
370
-1
  6
ByLayer
 10
183.199999999999676
 20
20.5999999999999162
 30
0.0
 11
183.1999999999996191
 21
23.3999999999999204
 31
0.0
  0
LINE
  5
11B
100
AcDbEntity
100
AcDbLine
  8
Top Layer
 62
256
370
-1
  6
ByLayer
 10
183.7999999999996703
 20
23.9999999999999503
 30
0.0
 11
190.1999999999996191
 21
23.9999999999999289
 31
0.0
  0
LINE
  5
11C
100
AcDbEntity
100
AcDbLine
  8
Top Layer
 62
256
370
-1
  6
ByLayer
 10
190.7999999999996135
 20
23.3999999999999382
 30
0.0
 11
190.7999999999996419
 21
20.6000000000000121
 31
0.0
  0
LINE
  5
11D
100
AcDbEntity
100
AcDbLine
  8
Top Layer
 62
256
370
-1
  6
ByLayer
 10
173.7108387669394176
 20
68.2799622023596271
 30
0.0
 11
172.7531823656275378
 21
70.9111015405602529
 31
0.0
  0
LINE
  5
11E
100
AcDbEntity
100
AcDbLine
  8
Top Layer
 62
256
370
-1
  6
ByLayer
 10
179.8948462836004296
 20
73.5104546298352943
 30
0.0
 11
180.8525026849123094
 21
70.879315291634839
 31
0.0
  0
LINE
  5
11F
100
AcDbEntity
100
AcDbLine
  8
Top Layer
 62
256
370
-1
  6
ByLayer
 10
180.4938991984360825
 20
70.1102876331678999
 30
0.0
 11
174.4798664254064136
 21
67.9213587158835708
 31
0.0
  0
ARC
  5
120
100
AcDbEntity
  8
Top Layer
 62
256
370
-1
  6
ByLayer
100
AcDbCircle
 10
145.5020963628364257
 20
60.992517384115672
 30
0.0
 40
0.5999999999999791
100
AcDbArc
 50
20.0000000000006892
 51
110.0000000000033396
  0
ARC
  5
121
100
AcDbEntity
  8
Top Layer
 62
256
370
-1
  6
ByLayer
100
AcDbCircle
 10
146.4597527641483055
 20
58.3613780459149893
 30
0.0
 40
0.599999999999983
100
AcDbArc
 50
290.0000000000000568
 51
20.0000000000032863
  0
ARC
  5
122
100
AcDbEntity
  8
Top Layer
 62
256
370
-1
  6
ByLayer
100
AcDbCircle
 10
140.445719991118608
 20
56.1724491286306602
 30
0.0
 40
0.599999999999974
100
AcDbArc
 50
199.9999999999969873
 51
290.0000000000000568
  0
ARC
  5
123
100
AcDbEntity
  8
Top Layer
 62
256
370
-1
  6
ByLayer
100
AcDbCircle
 10
139.4880635898066998
 20
58.8035884668313429
 30
0.0
 40
0.600000000000009
100
AcDbArc
 50
110.0000000000018048
 51
199.9999999999990621
  0
ARC
  5
124
100
AcDbEntity
  8
Top Layer
 62
256
370
-1
  6
ByLayer
100
AcDbCircle
 10
158.1999999999999034
 20
20.5999999999997918
 30
0.0
 40
0.599999999999999
100
AcDbArc
 50
270.0
 51
360.0
  0
ARC
  5
125
100
AcDbEntity
  8
Top Layer
 62
256
370
-1
  6
ByLayer
100
AcDbCircle
 10
151.7999999999998977
 20
20.5999999999996248
 30
0.0
 40
0.5999999999999968
100
AcDbArc
 50
180.0
 51
270.0
  0
ARC
  5
126
100
AcDbEntity
  8
Top Layer
 62
256
370
-1
  6
ByLayer
100
AcDbCircle
 10
151.799999999999784
 20
23.3999999999996362
 30
0.0
 40
0.6000000000000034
100
AcDbArc
 50
90.0000000000017337
 51
180.0
  0
ARC
  5
127
100
AcDbEntity
  8
Top Layer
 62
256
370
-1
  6
ByLayer
100
AcDbCircle
 10
158.1999999999997897
 20
23.3999999999997428
 30
0.0
 40
0.6000000000000013
100
AcDbArc
 50
360.0
 51
89.9999999999983231
  0
ARC
  5
128
100
AcDbEntity
  8
Top Layer
 62
256
370
-1
  6
ByLayer
100
AcDbCircle
 10
183.7999999999996987
 20
20.5999999999999233
 30
0.0
 40
0.5999999999999968
100
AcDbArc
 50
180.0
 51
270.0
  0
ARC
  5
129
100
AcDbEntity
  8
Top Layer
 62
256
370
-1
  6
ByLayer
100
AcDbCircle
 10
183.7999999999996703
 20
23.3999999999999133
 30
0.0
 40
0.6000000000000034
100
AcDbArc
 50
90.0000000000017337
 51
180.0
  0
ARC
  5
12A
100
AcDbEntity
  8
Top Layer
 62
256
370
-1
  6
ByLayer
100
AcDbCircle
 10
190.1999999999996191
 20
23.3999999999999382
 30
0.0
 40
0.599999999999999
100
AcDbArc
 50
360.0
 51
89.9999999999983231
  0
ARC
  5
12B
100
AcDbEntity
  8
Top Layer
 62
256
370
-1
  6
ByLayer
100
AcDbCircle
 10
190.199999999999676
 20
20.6000000000000512
 30
0.0
 40
0.599999999999999
100
AcDbArc
 50
270.0
 51
360.0
  0
ARC
  5
12C
100
AcDbEntity
  8
Top Layer
 62
256
370
-1
  6
ByLayer
100
AcDbCircle
 10
179.3310307111289887
 20
73.3052425438399382
 30
0.0
 40
0.5999999999999801
100
AcDbArc
 50
20.0000000000001812
 51
110.0000000000018048
  0
ARC
  5
12D
100
AcDbEntity
  8
Top Layer
 62
256
370
-1
  6
ByLayer
100
AcDbCircle
 10
180.288687112440698
 20
70.6741032056394261
 30
0.0
 40
0.5999999999999871
100
AcDbArc
 50
290.0000000000000568
 51
20.0000000000001812
  0
ARC
  5
12E
100
AcDbEntity
  8
Top Layer
 62
256
370
-1
  6
ByLayer
100
AcDbCircle
 10
174.2746543394110574
 20
68.4851742883550401
 30
0.0
 40
0.5999999999999908
100
AcDbArc
 50
200.0000000000001421
 51
290.000000000001819
  0
ARC
  5
12F
100
AcDbEntity
  8
Top Layer
 62
256
370
-1
  6
ByLayer
100
AcDbCircle
 10
56.0000000000007105
 20
13.9323052385193265
 30
0.0
 40
89.9999999999994458
100
AcDbArc
 50
360.0
 51
20.0000000000005862
  0
ARC
  5
130
100
AcDbEntity
  8
Top Layer
 62
256
370
-1
  6
ByLayer
100
AcDbCircle
 10
106.0000000000008811
 20
22.748654273943135
 30
0.0
 40
89.9999999999989058
100
AcDbArc
 50
360.0
 51
20.0000000000006892
  0
LINE
  5
131
100
AcDbEntity
100
AcDbLine
  8
Top Layer
 62
256
370
-1
  6
ByLayer
 10
149.5407039761525709
 20
69.4860236415847226
 30
0.0
 11
153.9869658393861869
 21
57.2700195713678539
 31
0.0
  0
LINE
  5
132
100
AcDbEntity
100
AcDbLine
  8
Top Layer
 62
256
370
-1
  6
ByLayer
 10
153.9869658393861869
 20
57.2700195713678539
 30
0.0
 11
159.0143213605907988
 21
59.0998273381602033
 31
0.0
  0
LINE
  5
133
100
AcDbEntity
100
AcDbLine
  8
Top Layer
 62
256
370
-1
  6
ByLayer
 10
133.6598986848707966
 20
63.7058832193806737
 30
0.0
 11
137.418669168013821
 21
65.0739637926832017
 31
0.0
  0
LINE
  5
134
100
AcDbEntity
100
AcDbLine
  8
Top Layer
 62
256
370
-1
  6
ByLayer
 10
139.2828515038113153
 20
59.3674040393028619
 30
0.0
 11
139.4707900279682917
 21
59.4358080679679261
 31
0.0
  0
LINE
  5
135
100
AcDbEntity
100
AcDbLine
  8
Top Layer
 62
256
370
-1
  6
ByLayer
 10
137.418669168013821
 20
65.0739637926832017
 30
0.0
 11
139.4707900279682917
 21
59.4358080679679261
 31
0.0
  0
LINE
  5
136
100
AcDbEntity
100
AcDbLine
  8
Top Layer
 62
256
370
-1
  6
ByLayer
 10
143.0568248927291961
 20
67.1260846526374735
 30
0.0
 11
149.5407039761525709
 21
69.4860236415847226
 31
0.0
  0
LINE
  5
137
100
AcDbEntity
100
AcDbLine
  8
Top Layer
 62
256
370
-1
  6
ByLayer
 10
145.1089457526837236
 20
61.487928927922006
 30
0.0
 11
145.2968842768409843
 21
61.556332956587184
 31
0.0
  0
LINE
  5
138
100
AcDbEntity
100
AcDbLine
  8
Top Layer
 62
256
370
-1
  6
ByLayer
 10
143.0568248927291961
 20
67.1260846526374735
 30
0.0
 11
145.1089457526837236
 21
61.487928927922006
 31
0.0
  0
LINE
  5
139
100
AcDbEntity
100
AcDbLine
  8
Top Layer
 62
256
370
-1
  6
ByLayer
 10
178.9378801009762867
 20
73.800654087646393
 30
0.0
 11
179.1258186251334337
 21
73.8690581163115212
 31
0.0
  0
ARC
  5
13A
100
AcDbEntity
  8
Top Layer
 62
256
370
-1
  6
ByLayer
100
AcDbCircle
 10
173.3169979380990924
 20
71.1163136265556659
 30
0.0
 40
0.5999999999999952
100
AcDbArc
 50
186.2001086145177169
 51
200.0000000000001705
  0
LINE
  5
13B
100
AcDbEntity
100
AcDbLine
  8
Top Layer
 62
256
370
-1
  6
ByLayer
 10
172.5999999999993975
 20
71.0313554766860875
 30
0.0
 11
172.7205074825561724
 21
71.0515128823763433
 31
0.0
  0
LINE
  5
13C
100
AcDbEntity
100
AcDbLine
  8
Top Layer
 62
256
370
-1
  6
ByLayer
 10
176.8857592410222423
 20
79.4388098123617397
 30
0.0
 11
180.6445297241658068
 21
80.8068903856644027
 31
0.0
  0
LINE
  5
13D
100
AcDbEntity
100
AcDbLine
  8
Top Layer
 62
256
370
-1
  6
ByLayer
 10
176.8857592410222423
 20
79.4388098123617397
 30
0.0
 11
178.9378801009762867
 21
73.800654087646393
 31
0.0
  0
CIRCLE
  5
13E
100
AcDbEntity
100
AcDbCircle
  8
Top Layer
 62
256
370
-1
  6
ByLayer
 10
160.9999999999995453
 20
39.7099080199925396
 30
0.0
 40
1.424999999999996
  0
CIRCLE
  5
13F
100
AcDbEntity
100
AcDbCircle
  8
Top Layer
 62
256
370
-1
  6
ByLayer
 10
160.9999999999997158
 20
28.7099080199925396
 30
0.0
 40
1.424999999999996
  0
CIRCLE
  5
140
100
AcDbEntity
100
AcDbCircle
  8
Top Layer
 62
256
370
-1
  6
ByLayer
 10
151.9999999999995453
 20
39.7099080199923975
 30
0.0
 40
1.424999999999996
  0
CIRCLE
  5
141
100
AcDbEntity
100
AcDbCircle
  8
Top Layer
 62
256
370
-1
  6
ByLayer
 10
151.9999999999997158
 20
28.7099080199923975
 30
0.0
 40
1.424999999999996
  0
CIRCLE
  5
142
100
AcDbEntity
100
AcDbCircle
  8
Top Layer
 62
256
370
-1
  6
ByLayer
 10
189.4999999999995453
 20
39.7099080199930086
 30
0.0
 40
1.4199999999999999
  0
CIRCLE
  5
143
100
AcDbEntity
100
AcDbCircle
  8
Top Layer
 62
256
370
-1
  6
ByLayer
 10
180.4999999999995453
 20
39.7099080199928594
 30
0.0
 40
1.4199999999999999
  0
CIRCLE
  5
144
100
AcDbEntity
100
AcDbCircle
  8
Top Layer
 62
256
370
-1
  6
ByLayer
 10
180.4999999999997158
 20
28.7099080199928558
 30
0.0
 40
1.4199999999999999
  0
CIRCLE
  5
145
100
AcDbEntity
100
AcDbCircle
  8
Top Layer
 62
256
370
-1
  6
ByLayer
 10
189.4999999999997158
 20
28.7099080199930121
 30
0.0
 40
1.4199999999999999
  0
LINE
  5
146
100
AcDbEntity
100
AcDbLine
  8
Top Layer
 62
256
370
-1
  6
ByLayer
 10
167.4999999999995453
 20
35.7856168876356975
 30
0.0
 11
167.4999999999995453
 21
26.2099080199926568
 31
0.0
  0
LINE
  5
147
100
AcDbEntity
100
AcDbLine
  8
Top Layer
 62
256
370
-1
  6
ByLayer
 10
167.4999999999995453
 20
35.7856168876356975
 30
0.0
 11
159.0143213605907988
 21
59.0998273381602033
 31
0.0
  0
LINE
  5
148
100
AcDbEntity
100
AcDbLine
  8
Top Layer
 62
256
370
-1
  6
ByLayer
 10
169.3999999999998067
 20
12.0
 30
0.0
 11
169.3999999999997499
 21
26.2099080199926817
 31
0.0
  0
LINE
  5
149
100
AcDbEntity
100
AcDbLine
  8
Top Layer
 62
256
370
-1
  6
ByLayer
 10
167.4999999999995453
 20
26.2099080199926568
 30
0.0
 11
169.3999999999997499
 21
26.2099080199926817
 31
0.0
  0
LINE
  5
14A
100
AcDbEntity
100
AcDbLine
  8
Top Layer
 62
256
370
-1
  6
ByLayer
 10
174.4999999999995737
 20
32.6341991523499857
 30
0.0
 11
178.3764667229281997
 21
21.9836943638360367
 31
0.0
  0
LINE
  5
14B
100
AcDbEntity
100
AcDbLine
  8
Top Layer
 62
256
370
-1
  6
ByLayer
 10
174.4999999999995737
 20
42.209908019992767
 30
0.0
 11
174.4999999999995737
 21
32.6341991523499857
 31
0.0
  0
LINE
  5
14C
100
AcDbEntity
100
AcDbLine
  8
Top Layer
 62
256
370
-1
  6
ByLayer
 10
172.5999999999995964
 20
42.2099080199927386
 30
0.0
 11
174.4999999999995737
 21
42.209908019992767
 31
0.0
  0
LINE
  5
14D
100
AcDbEntity
100
AcDbLine
  8
Top Layer
 62
256
370
-1
  6
ByLayer
 10
172.5999999999993975
 20
71.0313554766860875
 30
0.0
 11
172.5999999999995964
 21
42.2099080199927386
 31
0.0
  0
MTEXT
  5
14E
100
AcDbEntity
100
AcDbMText
  8
Top Text
 62
256
370
-1
  6
ByLayer
 10
144.6598986848707966
 20
49.7058832193806666
 30
0.0
 40
2.0
 41
100.0
 71
1
 72
2
  1
Top\~Plate\PTop
  7
standard
 50
0.0
 73
0
 44
1.0
  0
MTEXT
  5
14F
100
AcDbEntity
100
AcDbMText
  8
Top Text
 62
256
370
-1
  6
ByLayer
 10
175.6598986848707966
 20
49.7058832193806666
 30
0.0
 40
2.0
 41
100.0
 71
1
 72
2
  1
Top\~Plate\PTop
  7
standard
 50
0.0
 73
0
 44
1.0
  0
ENDSEC
  0
SECTION
  2
OBJECTS
  0
DICTIONARY
  5
C
100
AcDbDictionary
280
0
281
1
  3
ACAD_GROUP
350
D
  3
ACAD_LAYOUT
350
1A
  3
ACAD_MLINESTYLE
350
17
  3
ACAD_PLOTSETTINGS
350
19
  3
ACAD_PLOTSTYLENAME
350
E
  3
AcDbVariableDictionary
350
150
  0
DICTIONARY
  5
D
100
AcDbDictionary
280
0
281
1
  0
ACDBDICTIONARYWDFLT
  5
E
100
AcDbDictionary
281
1
  3
Normal
350
F
100
AcDbDictionaryWithDefault
340
F
  0
ACDBPLACEHOLDER
  5
F
  0
DICTIONARY
  5
17
100
AcDbDictionary
280
0
281
1
  3
Standard
350
18
  0
MLINESTYLE
  5
18
100
AcDbMlineStyle
  2
STANDARD
 70
0
  3

 62
256
 51
90.0
 52
90.0
 71
2
 49
0.5
 62
256
  6
BYLAYER
 49
-0.5
 62
256
  6
BYLAYER
  0
DICTIONARY
  5
19
100
AcDbDictionary
280
0
281
1
  0
DICTIONARY
  5
1A
100
AcDbDictionary
281
1
  3
Layout1
350
1E
  3
Layout2
350
26
  3
Model
350
22
  0
LAYOUT
  5
1E
100
AcDbPlotSettings
  1

  2
C:\Program Files\AutoCAD 2002\plotters\DWF ePlot (optimized for plotting).pc3
  4

  6

 40
0.0
 41
0.0
 42
0.0
 43
0.0
 44
0.0
 45
0.0
 46
0.0
 47
0.0
 48
0.0
 49
0.0
140
0.0
141
0.0
142
1.0
143
1.0
 70
688
 72
0
 73
0
 74
5
  7

 75
16
147
1.0
148
0.0
149
0.0
100
AcDbLayout
  1
Layout1
 70
1
 71
1
 10
0.0
 20
0.0
 11
420.0
 21
297.0
 12
0.0
 22
0.0
 32
0.0
 14
100000000000000000000.0
 24
100000000000000000000.0
 34
100000000000000000000.0
 15
-100000000000000000000.0
 25
-100000000000000000000.0
 35
-100000000000000000000.0
146
0.0
 13
0.0
 23
0.0
 33
0.0
 16
1.0
 26
0.0
 36
0.0
 17
0.0
 27
1.0
 37
0.0
 76
0
330
1B
  0
LAYOUT
  5
22
100
AcDbPlotSettings
  1

  2
C:\Program Files\AutoCAD 2002\plotters\DWF ePlot (optimized for plotting).pc3
  4

  6

 40
0.0
 41
0.0
 42
0.0
 43
0.0
 44
0.0
 45
0.0
 46
0.0
 47
0.0
 48
0.0
 49
0.0
140
0.0
141
0.0
142
1.0
143
1.0
 70
1712
 72
0
 73
0
 74
0
  7

 75
0
147
1.0
148
0.0
149
0.0
100
AcDbLayout
  1
Model
 70
1
 71
0
 10
0.0
 20
0.0
 11
12.0
 21
9.0
 12
0.0
 22
0.0
 32
0.0
 14
0.0
 24
0.0
 34
0.0
 15
0.0
 25
0.0
 35
0.0
146
0.0
 13
0.0
 23
0.0
 33
0.0
 16
1.0
 26
0.0
 36
0.0
 17
0.0
 27
1.0
 37
0.0
 76
0
330
1F
  0
LAYOUT
  5
26
100
AcDbPlotSettings
  1

  2
C:\Program Files\AutoCAD 2002\plotters\DWF ePlot (optimized for plotting).pc3
  4

  6

 40
0.0
 41
0.0
 42
0.0
 43
0.0
 44
0.0
 45
0.0
 46
0.0
 47
0.0
 48
0.0
 49
0.0
140
0.0
141
0.0
142
1.0
143
1.0
 70
688
 72
0
 73
0
 74
5
  7

 75
16
147
1.0
148
0.0
149
0.0
100
AcDbLayout
  1
Layout2
 70
1
 71
2
 10
0.0
 20
0.0
 11
12.0
 21
9.0
 12
0.0
 22
0.0
 32
0.0
 14
0.0
 24
0.0
 34
0.0
 15
0.0
 25
0.0
 35
0.0
146
0.0
 13
0.0
 23
0.0
 33
0.0
 16
1.0
 26
0.0
 36
0.0
 17
0.0
 27
1.0
 37
0.0
 76
0
330
23
  0
DICTIONARY
  5
150
100
AcDbDictionary
281
1
  3
DIMASSOC
350
152
  3
HIDETEXT
350
151
  0
DICTIONARYVAR
  5
151
100
DictionaryVariables
280
0
  1
2
  0
DICTIONARYVAR
  5
152
100
DictionaryVariables
280
0
  1
1
  0
ENDSEC
  0
EOF
