999
dxflib 2.2.0.0
  0
SECTION
  2
HEADER
  9
$ACADVER
  1
AC1015
  9
$HANDSEED
  5
FFFF
  9
$DIMASZ
 40
2.5
  9
$PLIMMIN
 10
0.0
 20
0.0
  9
$DIMEXE
 40
1.25
  9
$DIMGAP
 40
0.625
  9
$PLIMMAX
 10
210.0
 20
297.0
  9
$INSUNITS
 70
4
  9
$DIMSTYLE
  2
Standard
  9
$CLAYER
  8
0
  9
$DIMEXO
 40
0.625
  9
$DIMTXT
 40
2.5
  9
$CLAYER
  8
0
  0
ENDSEC
  0
SECTION
  2
TABLES
  0
TABLE
  2
VPORT
  5
8
100
AcDbSymbolTable
 70
1
  0
VPORT
  5
30
100
AcDbSymbolTableRecord
100
AcDbViewportTableRecord
  2
*Active
 70
0
 10
0.0
 20
0.0
 11
1.0
 21
1.0
 12
286.3055555555554861
 22
148.5
 13
0.0
 23
0.0
 14
10.0
 24
10.0
 15
10.0
 25
10.0
 16
0.0
 26
0.0
 36
1.0
 17
0.0
 27
0.0
 37
0.0
 40
297.0
 41
1.92798353909465
 42
50.0
 43
0.0
 44
0.0
 50
0.0
 51
0.0
 71
0
 72
100
 73
1
 74
3
 75
1
 76
1
 77
0
 78
0
281
0
 65
1
110
0.0
120
0.0
130
0.0
111
1.0
121
0.0
131
0.0
112
0.0
122
1.0
132
0.0
 79
0
146
0.0
  0
ENDTAB
  0
TABLE
  2
LTYPE
  5
5
100
AcDbSymbolTable
 70
21
  0
LTYPE
  5
14
100
AcDbSymbolTableRecord
100
AcDbLinetypeTableRecord
  2
ByBlock
 70
0
  3

 72
65
 73
0
 40
0.0
  0
LTYPE
  5
15
100
AcDbSymbolTableRecord
100
AcDbLinetypeTableRecord
  2
ByLayer
 70
0
  3

 72
65
 73
0
 40
0.0
  0
LTYPE
  5
16
100
AcDbSymbolTableRecord
100
AcDbLinetypeTableRecord
  2
CONTINUOUS
 70
0
  3
Solid line
 72
65
 73
0
 40
0.0
  0
LTYPE
  5
31
100
AcDbSymbolTableRecord
100
AcDbLinetypeTableRecord
  2
DOT
 70
0
  3
Dot . . . . . . . . . . . . . . . . . . . . . .
 72
65
 73
2
 40
6.3499999999999996
 49
0.0
 74
0
 49
-6.3499999999999996
 74
0
  0
LTYPE
  5
32
100
AcDbSymbolTableRecord
100
AcDbLinetypeTableRecord
  2
DOT2
 70
0
  3
Dot (.5x) .....................................
 72
65
 73
2
 40
3.1749999999999998
 49
0.0
 74
0
 49
-3.1749999999999998
 74
0
  0
LTYPE
  5
33
100
AcDbSymbolTableRecord
100
AcDbLinetypeTableRecord
  2
DOTX2
 70
0
  3
Dot (2x) .  .  .  .  .  .  .  .  .  .  .  .  .
 72
65
 73
2
 40
12.6999999999999993
 49
0.0
 74
0
 49
-12.6999999999999993
 74
0
  0
LTYPE
  5
34
100
AcDbSymbolTableRecord
100
AcDbLinetypeTableRecord
  2
DASHED
 70
0
  3
Dashed __ __ __ __ __ __ __ __ __ __ __ __ __ _
 72
65
 73
2
 40
19.0500000000000007
 49
12.6999999999999993
 74
0
 49
-6.3499999999999996
 74
0
  0
LTYPE
  5
35
100
AcDbSymbolTableRecord
100
AcDbLinetypeTableRecord
  2
DASHED2
 70
0
  3
Dashed (.5x) _ _ _ _ _ _ _ _ _ _ _ _ _ _ _ _ _
 72
65
 73
2
 40
9.5250000000000004
 49
6.3499999999999996
 74
0
 49
-3.1749999999999998
 74
0
  0
LTYPE
  5
36
100
AcDbSymbolTableRecord
100
AcDbLinetypeTableRecord
  2
DASHEDX2
 70
0
  3
Dashed (2x) ____  ____  ____  ____  ____  ___
 72
65
 73
2
 40
38.1000000000000014
 49
25.3999999999999986
 74
0
 49
-12.6999999999999993
 74
0
  0
LTYPE
  5
37
100
AcDbSymbolTableRecord
100
AcDbLinetypeTableRecord
  2
DASHDOT
 70
0
  3
Dash dot __ . __ . __ . __ . __ . __ . __ . __
 72
65
 73
4
 40
25.3999999999999986
 49
12.6999999999999993
 74
0
 49
-6.3499999999999996
 74
0
 49
0.0
 74
0
 49
-6.3499999999999996
 74
0
  0
LTYPE
  5
38
100
AcDbSymbolTableRecord
100
AcDbLinetypeTableRecord
  2
DASHDOT2
 70
0
  3
Dash dot (.5x) _._._._._._._._._._._._._._._.
 72
65
 73
4
 40
12.6999999999999993
 49
6.3499999999999996
 74
0
 49
-3.1749999999999998
 74
0
 49
0.0
 74
0
 49
-3.1749999999999998
 74
0
  0
LTYPE
  5
39
100
AcDbSymbolTableRecord
100
AcDbLinetypeTableRecord
  2
DASHDOTX2
 70
0
  3
Dash dot (2x) ____  .  ____  .  ____  .  ___
 72
65
 73
4
 40
50.7999999999999972
 49
25.3999999999999986
 74
0
 49
-12.6999999999999993
 74
0
 49
0.0
 74
0
 49
-12.6999999999999993
 74
0
  0
LTYPE
  5
3A
100
AcDbSymbolTableRecord
100
AcDbLinetypeTableRecord
  2
DIVIDE
 70
0
  3
Divide ____ . . ____ . . ____ . . ____ . . ____
 72
65
 73
6
 40
31.75
 49
12.6999999999999993
 74
0
 49
-6.3499999999999996
 74
0
 49
0.0
 74
0
 49
-6.3499999999999996
 74
0
 49
0.0
 74
0
 49
-6.3499999999999996
 74
0
  0
LTYPE
  5
3B
100
AcDbSymbolTableRecord
100
AcDbLinetypeTableRecord
  2
DIVIDE2
 70
0
  3
Divide (.5x) __..__..__..__..__..__..__..__.._
 72
65
 73
6
 40
15.875
 49
6.3499999999999996
 74
0
 49
-3.1749999999999998
 74
0
 49
0.0
 74
0
 49
-3.1749999999999998
 74
0
 49
0.0
 74
0
 49
-3.1749999999999998
 74
0
  0
LTYPE
  5
3C
100
AcDbSymbolTableRecord
100
AcDbLinetypeTableRecord
  2
DIVIDEX2
 70
0
  3
Divide (2x) ________  .  .  ________  .  .  _
 72
65
 73
6
 40
63.5
 49
25.3999999999999986
 74
0
 49
-12.6999999999999993
 74
0
 49
0.0
 74
0
 49
-12.6999999999999993
 74
0
 49
0.0
 74
0
 49
-12.6999999999999993
 74
0
  0
LTYPE
  5
3D
100
AcDbSymbolTableRecord
100
AcDbLinetypeTableRecord
  2
CENTER
 70
0
  3
Center ____ _ ____ _ ____ _ ____ _ ____ _ ____
 72
65
 73
4
 40
50.7999999999999972
 49
31.75
 74
0
 49
-6.3499999999999996
 74
0
 49
6.3499999999999996
 74
0
 49
-6.3499999999999996
 74
0
  0
LTYPE
  5
3E
100
AcDbSymbolTableRecord
100
AcDbLinetypeTableRecord
  2
CENTER2
 70
0
  3
Center (.5x) ___ _ ___ _ ___ _ ___ _ ___ _ ___
 72
65
 73
4
 40
28.5749999999999993
 49
19.0500000000000007
 74
0
 49
-3.1749999999999998
 74
0
 49
3.1749999999999998
 74
0
 49
-3.1749999999999998
 74
0
  0
LTYPE
  5
3F
100
AcDbSymbolTableRecord
100
AcDbLinetypeTableRecord
  2
CENTERX2
 70
0
  3
Center (2x) ________  __  ________  __  _____
 72
65
 73
4
 40
101.5999999999999943
 49
63.5
 74
0
 49
-12.6999999999999993
 74
0
 49
12.6999999999999993
 74
0
 49
-12.6999999999999993
 74
0
  0
LTYPE
  5
40
100
AcDbSymbolTableRecord
100
AcDbLinetypeTableRecord
  2
BORDER
 70
0
  3
Border __ __ . __ __ . __ __ . __ __ . __ __ .
 72
65
 73
6
 40
44.4500000000000028
 49
12.6999999999999993
 74
0
 49
-6.3499999999999996
 74
0
 49
12.6999999999999993
 74
0
 49
-6.3499999999999996
 74
0
 49
0.0
 74
0
 49
-6.3499999999999996
 74
0
  0
LTYPE
  5
41
100
AcDbSymbolTableRecord
100
AcDbLinetypeTableRecord
  2
BORDER2
 70
0
  3
Border (.5x) __.__.__.__.__.__.__.__.__.__.__.
 72
65
 73
6
 40
22.2250000000000014
 49
6.3499999999999996
 74
0
 49
-3.1749999999999998
 74
0
 49
6.3499999999999996
 74
0
 49
-3.1749999999999998
 74
0
 49
0.0
 74
0
 49
-3.1749999999999998
 74
0
  0
LTYPE
  5
42
100
AcDbSymbolTableRecord
100
AcDbLinetypeTableRecord
  2
BORDERX2
 70
0
  3
Border (2x) ____  ____  .  ____  ____  .  ___
 72
65
 73
6
 40
88.9000000000000057
 49
25.3999999999999986
 74
0
 49
-12.6999999999999993
 74
0
 49
25.3999999999999986
 74
0
 49
-12.6999999999999993
 74
0
 49
0.0
 74
0
 49
-12.6999999999999993
 74
0
  0
ENDTAB
  0
TABLE
  2
LAYER
  5
2
100
AcDbSymbolTable
 70
15
  0
LAYER
  5
10
100
AcDbSymbolTableRecord
100
AcDbLayerTableRecord
  2
0
 70
0
 62
7
420
16777215
  6
CONTINUOUS
370
0
390
F
  0
LAYER
  5
43
100
AcDbSymbolTableRecord
100
AcDbLayerTableRecord
  2
Bottom Layer
 70
0
 62
7
420
16777215
  6
CONTINUOUS
370
0
390
F
  0
LAYER
  5
44
100
AcDbSymbolTableRecord
100
AcDbLayerTableRecord
  2
Notes
 70
0
 62
7
420
16777215
  6
CONTINUOUS
370
0
390
F
  0
LAYER
  5
45
100
AcDbSymbolTableRecord
100
AcDbLayerTableRecord
  2
Middle
 70
0
 62
7
420
16777215
  6
CONTINUOUS
370
0
390
F
  0
LAYER
  5
46
100
AcDbSymbolTableRecord
100
AcDbLayerTableRecord
  2
Middle Text
 70
0
 62
4
420
65535
  6
CONTINUOUS
370
0
390
F
  0
LAYER
  5
47
100
AcDbSymbolTableRecord
100
AcDbLayerTableRecord
  2
retainer
 70
0
 62
7
420
16777215
  6
CONTINUOUS
370
0
390
F
  0
LAYER
  5
48
100
AcDbSymbolTableRecord
100
AcDbLayerTableRecord
  2
Text
 70
0
 62
4
420
65535
  6
CONTINUOUS
370
0
390
F
  0
LAYER
  5
49
100
AcDbSymbolTableRecord
100
AcDbLayerTableRecord
  2
Bottom Text
 70
0
 62
4
420
65535
  6
CONTINUOUS
370
0
390
F
  0
LAYER
  5
4A
100
AcDbSymbolTableRecord
100
AcDbLayerTableRecord
  2
Top
 70
0
 62
7
420
16777215
  6
CONTINUOUS
370
0
390
F
  0
LAYER
  5
4B
100
AcDbSymbolTableRecord
100
AcDbLayerTableRecord
  2
Retainer Plate
 70
0
 62
7
420
0
  6
CONTINUOUS
370
0
390
F
  0
LAYER
  5
4C
100
AcDbSymbolTableRecord
100
AcDbLayerTableRecord
  2
Retainer Plate Text
 70
0
 62
4
420
65535
  6
CONTINUOUS
370
0
390
F
  0
LAYER
  5
4D
100
AcDbSymbolTableRecord
100
AcDbLayerTableRecord
  2
Main Plate Middle Layer
 70
0
 62
7
420
0
  6
CONTINUOUS
370
0
390
F
  0
LAYER
  5
4E
100
AcDbSymbolTableRecord
100
AcDbLayerTableRecord
  2
Main Plate Middle Text
 70
0
 62
4
420
65535
  6
CONTINUOUS
370
0
390
F
  0
LAYER
  5
4F
100
AcDbSymbolTableRecord
100
AcDbLayerTableRecord
  2
Top Plate Top
 70
0
 62
7
420
0
  6
CONTINUOUS
370
0
390
F
  0
LAYER
  5
50
100
AcDbSymbolTableRecord
100
AcDbLayerTableRecord
  2
Top Plate Top Text
 70
0
 62
4
420
65535
  6
CONTINUOUS
370
0
390
F
  0
ENDTAB
  0
TABLE
  2
STYLE
  5
3
100
AcDbSymbolTable
 70
1
  0
STYLE
  5
11
100
AcDbSymbolTableRecord
100
AcDbTextStyleTableRecord
  2
Standard
 70
0
 40
0.0
 41
0.75
 50
0.0
 71
0
 42
2.5
  3
txt
  4

  0
ENDTAB
  0
TABLE
  2
VIEW
  5
6
100
AcDbSymbolTable
 70
0
  0
ENDTAB
  0
TABLE
  2
UCS
  5
7
100
AcDbSymbolTable
 70
0
  0
ENDTAB
  0
TABLE
  2
APPID
  5
9
100
AcDbSymbolTable
 70
1
  0
APPID
  5
12
100
AcDbSymbolTableRecord
100
AcDbRegAppTableRecord
  2
ACAD
 70
0
  0
ENDTAB
  0
TABLE
  2
DIMSTYLE
  5
A
100
AcDbSymbolTable
 70
1
100
AcDbDimStyleTable
 71
0
  0
DIMSTYLE
105
27
100
AcDbSymbolTableRecord
100
AcDbDimStyleTableRecord
  2
Standard
 41
2.5
 42
0.625
 43
3.75
 44
1.25
 70
0
 73
0
 74
0
 77
1
 78
8
140
2.5
141
2.5
143
0.03937007874016
147
0.625
171
3
172
1
271
2
272
2
274
3
278
44
283
0
284
8
340
11
  0
ENDTAB
  0
TABLE
  2
BLOCK_RECORD
  5
1
100
AcDbSymbolTable
 70
1
  0
BLOCK_RECORD
  5
1F
100
AcDbSymbolTableRecord
100
AcDbBlockTableRecord
  2
*Model_Space
340
22
  0
BLOCK_RECORD
  5
1B
100
AcDbSymbolTableRecord
100
AcDbBlockTableRecord
  2
*Paper_Space
340
1E
  0
BLOCK_RECORD
  5
23
100
AcDbSymbolTableRecord
100
AcDbBlockTableRecord
  2
*Paper_Space0
340
26
  0
ENDTAB
  0
ENDSEC
  0
SECTION
  2
BLOCKS
  0
BLOCK
  5
20
100
AcDbEntity
  8
0
100
AcDbBlockBegin
  2
*Model_Space
 70
0
 10
0.0
 20
0.0
 30
0.0
  3
*Model_Space
  1

  0
ENDBLK
  5
21
100
AcDbEntity
  8
0
100
AcDbBlockEnd
  0
BLOCK
  5
1C
100
AcDbEntity
 67
1
  8
0
100
AcDbBlockBegin
  2
*Paper_Space
 70
0
 10
0.0
 20
0.0
 30
0.0
  3
*Paper_Space
  1

  0
ENDBLK
  5
1D
100
AcDbEntity
 67
1
  8
0
100
AcDbBlockEnd
  0
BLOCK
  5
24
100
AcDbEntity
  8
0
100
AcDbBlockBegin
  2
*Paper_Space0
 70
0
 10
0.0
 20
0.0
 30
0.0
  3
*Paper_Space0
  1

  0
ENDBLK
  5
25
100
AcDbEntity
  8
0
100
AcDbBlockEnd
  0
ENDSEC
  0
SECTION
  2
ENTITIES
  0
LINE
  5
51
100
AcDbEntity
100
AcDbLine
  8
Retainer Plate
 62
256
370
-1
  6
ByLayer
 10
15.2882761946307077
 20
3.8275736809888983
 30
0.0
 11
15.2882761946307539
 21
1.8952684424675965
 31
0.0
  0
LINE
  5
52
100
AcDbEntity
100
AcDbLine
  8
Retainer Plate
 62
256
370
-1
  6
ByLayer
 10
59.8606120653624956
 20
43.4257356157217131
 30
0.0
 11
49.9328059187973352
 21
70.7021588281323545
 31
0.0
  0
LINE
  5
53
100
AcDbEntity
100
AcDbLine
  8
Retainer Plate
 62
256
370
-1
  6
ByLayer
 10
65.2882761946307824
 20
1.8952684424675894
 30
0.0
 11
65.2882761946307113
 21
12.6439227164115451
 31
0.0
  0
LINE
  5
54
100
AcDbEntity
100
AcDbLine
  8
Retainer Plate
 62
256
370
-1
  6
ByLayer
 10
2.9481748795020088
 20
53.6011516618489594
 30
0.0
 11
9.8606120653625808
 21
34.6093865802984624
 31
0.0
  0
ARC
  5
55
100
AcDbEntity
  8
Retainer Plate
 62
256
370
-1
  6
ByLayer
100
AcDbCircle
 10
-24.7117238053686705
 20
12.6439227164117725
 30
0.0
 40
89.9999999999993463
100
AcDbArc
 50
360.0
 51
20.0000000000000711
  0
ARC
  5
56
100
AcDbEntity
  8
Retainer Plate
 62
256
370
-1
  6
ByLayer
100
AcDbCircle
 10
-74.7117238053690471
 20
3.8275736809888556
 30
0.0
 40
89.9999999999996447
100
AcDbArc
 50
360.0
 51
20.0000000000000711
  0
LINE
  5
57
100
AcDbEntity
100
AcDbLine
  8
Retainer Plate
 62
256
370
-1
  6
ByLayer
 10
15.2882761946307575
 20
1.8952684424676107
 30
0.0
 11
65.2882761946307824
 21
1.8952684424675894
 31
0.0
  0
LINE
  5
58
100
AcDbEntity
100
AcDbLine
  8
Retainer Plate
 62
256
370
-1
  6
ByLayer
 10
15.2882761946306402
 20
3.8275736809883227
 30
0.0
 11
15.2882761946307575
 21
1.8952684424676107
 31
0.0
  0
LINE
  5
59
100
AcDbEntity
100
AcDbLine
  8
Retainer Plate
 62
256
370
-1
  6
ByLayer
 10
49.9328059187973352
 20
70.7021588281323545
 30
0.0
 11
34.0520006275155609
 21
64.9220184059285259
 31
0.0
  0
LINE
  5
5A
100
AcDbEntity
100
AcDbLine
  8
Retainer Plate
 62
256
370
-1
  6
ByLayer
 10
34.0520006275155609
 20
64.9220184059285259
 30
0.0
 11
38.4982624907492053
 21
52.706014335711707
 31
0.0
  0
LINE
  5
5B
100
AcDbEntity
100
AcDbLine
  8
Retainer Plate
 62
256
370
-1
  6
ByLayer
 10
38.4982624907492053
 20
52.706014335711707
 30
0.0
 11
23.2752420340174879
 21
47.1652880138358555
 31
0.0
  0
LINE
  5
5C
100
AcDbEntity
100
AcDbLine
  8
Retainer Plate
 62
256
370
-1
  6
ByLayer
 10
23.2752420340174879
 20
47.1652880138358555
 30
0.0
 11
18.8289801707838151
 21
59.3812920840526601
 31
0.0
  0
LINE
  5
5D
100
AcDbEntity
100
AcDbLine
  8
Retainer Plate
 62
256
370
-1
  6
ByLayer
 10
18.8289801707838151
 20
59.3812920840526601
 30
0.0
 11
2.9481748795020408
 21
53.6011516618489452
 31
0.0
  0
MTEXT
  5
5E
100
AcDbEntity
100
AcDbMText
  8
Retainer Plate Text
 62
256
370
-1
  6
ByLayer
 10
44.1438279155086448
 20
39.3198224688193037
 30
0.0
 40
3.0
 41
100.0
 71
5
 72
2
  1
Retainer\PPlate
  7
standard
 50
360.0
 73
0
 44
1.0
  0
CIRCLE
  5
5F
100
AcDbEntity
100
AcDbCircle
  8
Retainer Plate
 62
256
370
-1
  6
ByLayer
 10
52.9481748795020053
 20
23.601151661848931
 30
0.0
 40
1.45
  0
CIRCLE
  5
60
100
AcDbEntity
100
AcDbCircle
  8
Retainer Plate
 62
256
370
-1
  6
ByLayer
 10
26.6701984535006069
 20
24.1051764624607685
 30
0.0
 40
1.45
  0
CIRCLE
  5
61
100
AcDbEntity
100
AcDbCircle
  8
Retainer Plate
 62
256
370
-1
  6
ByLayer
 10
18.8882761946310396
 20
18.6051764624606513
 30
0.0
 40
1.45
  0
CIRCLE
  5
62
100
AcDbEntity
100
AcDbCircle
  8
Retainer Plate
 62
256
370
-1
  6
ByLayer
 10
18.8882761946308513
 20
29.6051764624606477
 30
0.0
 40
1.45
  0
CIRCLE
  5
63
100
AcDbEntity
100
AcDbCircle
  8
Retainer Plate
 62
256
370
-1
  6
ByLayer
 10
58.7882761946304555
 20
18.6051764624606015
 30
0.0
 40
1.45
  0
CIRCLE
  5
64
100
AcDbEntity
100
AcDbCircle
  8
Retainer Plate
 62
256
370
-1
  6
ByLayer
 10
58.7882761946302708
 20
29.6051764624605696
 30
0.0
 40
1.45
  0
CIRCLE
  5
65
100
AcDbEntity
100
AcDbCircle
  8
Retainer Plate
 62
256
370
-1
  6
ByLayer
 10
49.9481748795020124
 20
47.6011516618489381
 30
0.0
 40
1.45
  0
CIRCLE
  5
66
100
AcDbEntity
100
AcDbCircle
  8
Retainer Plate
 62
256
370
-1
  6
ByLayer
 10
47.9481748795017992
 20
6.6011516618484087
 30
0.0
 40
1.45
  0
CIRCLE
  5
67
100
AcDbEntity
100
AcDbCircle
  8
Retainer Plate
 62
256
370
-1
  6
ByLayer
 10
32.9481748795020479
 20
6.6011516618488812
 30
0.0
 40
1.45
  0
CIRCLE
  5
68
100
AcDbEntity
100
AcDbCircle
  8
Retainer Plate
 62
256
370
-1
  6
ByLayer
 10
20.9481748795019413
 20
41.1511516618487505
 30
0.0
 40
1.45
  0
LINE
  5
69
100
AcDbEntity
100
AcDbLine
  8
Notes
 62
256
370
-1
  6
ByLayer
 10
81.936799736758644
 20
15.9570682770002605
 30
0.0
 11
81.5801754097326182
 21
15.9570682770003032
 31
0.0
  0
LINE
  5
6A
100
AcDbEntity
100
AcDbLine
  8
Main Plate Middle Layer
 62
256
370
-1
  6
ByLayer
 10
108.7022679803069991
 20
11.8984415096010565
 30
0.0
 11
101.1847270140196713
 21
9.1622803629956735
 31
0.0
  0
LINE
  5
6B
100
AcDbEntity
100
AcDbLine
  8
Main Plate Middle Layer
 62
256
370
-1
  6
ByLayer
 10
119.5525112804643868
 20
43.4875354502544624
 30
0.0
 11
109.6247051338992264
 21
70.7639586626650612
 31
0.0
  0
LINE
  5
6C
100
AcDbEntity
100
AcDbLine
  8
Main Plate Middle Layer
 62
256
370
-1
  6
ByLayer
 10
124.9801754097326381
 20
1.9570682770002676
 30
0.0
 11
124.9801754097326807
 21
12.7057225509442695
 31
0.0
  0
LINE
  5
6D
100
AcDbEntity
100
AcDbLine
  8
Main Plate Middle Layer
 62
256
370
-1
  6
ByLayer
 10
74.9801754097326807
 20
3.8893735155209939
 30
0.0
 11
74.9801754097326523
 21
1.9570682770003103
 31
0.0
  0
ARC
  5
6E
100
AcDbEntity
  8
Main Plate Middle Layer
 62
256
370
-1
  6
ByLayer
100
AcDbCircle
 10
100.9795149280243294
 20
9.7260959354672245
 30
0.0
 40
0.599999999999996
100
AcDbArc
 50
199.9999999999997158
 51
289.9999999999998863
  0
ARC
  5
6F
100
AcDbEntity
  8
Main Plate Middle Layer
 62
256
370
-1
  6
ByLayer
100
AcDbCircle
 10
108.4970558943115861
 20
12.4622570820725684
 30
0.0
 40
0.5999999999999983
100
AcDbArc
 50
289.9999999999998295
 51
20.000000000000103
  0
ARC
  5
70
100
AcDbEntity
  8
Main Plate Middle Layer
 62
256
370
-1
  6
ByLayer
100
AcDbCircle
 10
34.9801754097332349
 20
12.7057225509444791
 30
0.0
 40
89.9999999999993463
100
AcDbArc
 50
0.0
 51
20.000000000000103
  0
ARC
  5
71
100
AcDbEntity
  8
Main Plate Middle Layer
 62
256
370
-1
  6
ByLayer
100
AcDbCircle
 10
-15.0198245902670635
 20
3.889373515522891
 30
0.0
 40
89.9999999999996447
100
AcDbArc
 50
0.0
 51
20.000000000000103
  0
LINE
  5
72
100
AcDbEntity
100
AcDbLine
  8
Main Plate Middle Layer
 62
256
370
-1
  6
ByLayer
 10
62.6400740946039036
 20
53.6629514963816021
 30
0.0
 11
69.5525112804645005
 21
34.6711864148311619
 31
0.0
  0
LINE
  5
73
100
AcDbEntity
100
AcDbLine
  8
Main Plate Middle Layer
 62
256
370
-1
  6
ByLayer
 10
94.9012375331004137
 20
51.5707436686045639
 30
0.0
 11
109.0608714667830696
 21
12.6674691680680027
 31
0.0
  0
LINE
  5
74
100
AcDbEntity
100
AcDbLine
  8
Main Plate Middle Layer
 62
256
370
-1
  6
ByLayer
 10
94.9012375331004137
 20
51.5707436686045639
 30
0.0
 11
98.1901617058510965
 21
52.7678141702443924
 31
0.0
  0
LINE
  5
75
100
AcDbEntity
100
AcDbLine
  8
Main Plate Middle Layer
 62
256
370
-1
  6
ByLayer
 10
98.1901617058510965
 20
52.7678141702443924
 30
0.0
 11
93.7438998426173953
 21
64.9838182404612326
 31
0.0
  0
LINE
  5
76
100
AcDbEntity
100
AcDbLine
  8
Main Plate Middle Layer
 62
256
370
-1
  6
ByLayer
 10
86.256065421870062
 20
48.4241583500084118
 30
0.0
 11
82.9671412491193792
 21
47.2270878483685976
 31
0.0
  0
LINE
  5
77
100
AcDbEntity
100
AcDbLine
  8
Main Plate Middle Layer
 62
256
370
-1
  6
ByLayer
 10
82.9671412491193792
 20
47.2270878483685976
 30
0.0
 11
78.5208793858856779
 21
59.4430919185854236
 31
0.0
  0
LINE
  5
78
100
AcDbEntity
100
AcDbLine
  8
Main Plate Middle Layer
 62
256
370
-1
  6
ByLayer
 10
124.9801754097326381
 20
1.9570682770002676
 30
0.0
 11
74.9801754097326523
 21
1.9570682770003103
 31
0.0
  0
LINE
  5
79
100
AcDbEntity
100
AcDbLine
  8
Main Plate Middle Layer
 62
256
370
-1
  6
ByLayer
 10
109.6247051338992264
 20
70.7639586626650612
 30
0.0
 11
93.7438998426173953
 21
64.9838182404612326
 31
0.0
  0
LINE
  5
7A
100
AcDbEntity
100
AcDbLine
  8
Main Plate Middle Layer
 62
256
370
-1
  6
ByLayer
 10
78.5208793858856779
 20
59.4430919185854236
 30
0.0
 11
62.6400740946039036
 21
53.6629514963816021
 31
0.0
  0
MTEXT
  5
7B
100
AcDbEntity
100
AcDbMText
  8
Main Plate Middle Text
 62
256
370
-1
  6
ByLayer
 10
115.681323700424457
 20
44.6413023575072216
 30
0.0
 40
2.0
 41
100.0
 71
3
 72
2
  1
Main\~Plate\PMiddle
  7
standard
 50
360.0
 73
0
 44
1.0
  0
LINE
  5
7C
100
AcDbEntity
100
AcDbLine
  8
Main Plate Middle Layer
 62
256
370
-1
  6
ByLayer
 10
86.256065421870062
 20
48.4241583500084118
 30
0.0
 11
100.415699355552718
 21
9.5208838494717973
 31
0.0
  0
LINE
  5
7D
100
AcDbEntity
100
AcDbLine
  8
Main Plate Middle Layer
 62
256
370
-1
  6
ByLayer
 10
67.6052420789942232
 20
49.0850582159757138
 30
0.0
 11
74.9348445211242904
 21
51.7528153339157058
 31
0.0
  0
LINE
  5
7E
100
AcDbEntity
100
AcDbLine
  8
Main Plate Middle Layer
 62
256
370
-1
  6
ByLayer
 10
74.9348445211242904
 20
51.7528153339157058
 30
0.0
 11
76.3029250944267687
 21
47.9940448507725819
 31
0.0
  0
LINE
  5
7F
100
AcDbEntity
100
AcDbLine
  8
Main Plate Middle Layer
 62
256
370
-1
  6
ByLayer
 10
76.3029250944267687
 20
47.9940448507725819
 30
0.0
 11
75.4572017357195932
 21
47.6862267217791498
 31
0.0
  0
LINE
  5
80
100
AcDbEntity
100
AcDbLine
  8
Main Plate Middle Layer
 62
256
370
-1
  6
ByLayer
 10
75.4572017357195932
 20
47.6862267217791498
 30
0.0
 11
76.4832621656966865
 21
44.8671488594215759
 31
0.0
  0
LINE
  5
81
100
AcDbEntity
100
AcDbLine
  8
Main Plate Middle Layer
 62
256
370
-1
  6
ByLayer
 10
76.4832621656966865
 20
44.8671488594215759
 30
0.0
 11
70.8451064409813682
 21
42.8150279994675316
 31
0.0
  0
LINE
  5
82
100
AcDbEntity
100
AcDbLine
  8
Main Plate Middle Layer
 62
256
370
-1
  6
ByLayer
 10
70.8451064409813682
 20
42.8150279994675316
 30
0.0
 11
69.8190460110041613
 21
45.6341058618252049
 31
0.0
  0
LINE
  5
83
100
AcDbEntity
100
AcDbLine
  8
Main Plate Middle Layer
 62
256
370
-1
  6
ByLayer
 10
69.8190460110041613
 20
45.6341058618252049
 30
0.0
 11
68.9733226522969005
 21
45.3262877328320002
 31
0.0
  0
LINE
  5
84
100
AcDbEntity
100
AcDbLine
  8
Main Plate Middle Layer
 62
256
370
-1
  6
ByLayer
 10
68.9733226522969005
 20
45.3262877328320002
 30
0.0
 11
67.6052420789942232
 21
49.0850582159757138
 31
0.0
  0
LINE
  5
85
100
AcDbEntity
100
AcDbLine
  8
Main Plate Middle Layer
 62
256
370
-1
  6
ByLayer
 10
101.4341764272868431
 20
61.397783375699774
 30
0.0
 11
108.7637788694168819
 21
64.0655404936400714
 31
0.0
  0
LINE
  5
86
100
AcDbEntity
100
AcDbLine
  8
Main Plate Middle Layer
 62
256
370
-1
  6
ByLayer
 10
108.7637788694168819
 20
64.0655404936400714
 30
0.0
 11
110.1318594427195876
 21
60.3067700104964786
 31
0.0
  0
LINE
  5
87
100
AcDbEntity
100
AcDbLine
  8
Main Plate Middle Layer
 62
256
370
-1
  6
ByLayer
 10
110.1318594427195876
 20
60.3067700104964786
 30
0.0
 11
109.2861360840122984
 21
59.9989518815032739
 31
0.0
  0
LINE
  5
88
100
AcDbEntity
100
AcDbLine
  8
Main Plate Middle Layer
 62
256
370
-1
  6
ByLayer
 10
109.2861360840122984
 20
59.9989518815032739
 30
0.0
 11
110.3121965139892495
 21
57.1798740191456005
 31
0.0
  0
LINE
  5
89
100
AcDbEntity
100
AcDbLine
  8
Main Plate Middle Layer
 62
256
370
-1
  6
ByLayer
 10
110.3121965139892495
 20
57.1798740191456005
 30
0.0
 11
104.674040789273846
 21
55.1277531591915562
 31
0.0
  0
LINE
  5
8A
100
AcDbEntity
100
AcDbLine
  8
Main Plate Middle Layer
 62
256
370
-1
  6
ByLayer
 10
104.674040789273846
 20
55.1277531591915562
 30
0.0
 11
103.6479803592968665
 21
57.9468310215492437
 31
0.0
  0
LINE
  5
8B
100
AcDbEntity
100
AcDbLine
  8
Main Plate Middle Layer
 62
256
370
-1
  6
ByLayer
 10
103.6479803592968665
 20
57.9468310215492437
 30
0.0
 11
102.8022570005895489
 21
57.6390128925561811
 31
0.0
  0
LINE
  5
8C
100
AcDbEntity
100
AcDbLine
  8
Main Plate Middle Layer
 62
256
370
-1
  6
ByLayer
 10
102.8022570005895489
 20
57.6390128925561811
 30
0.0
 11
101.4341764272868431
 21
61.397783375699774
 31
0.0
  0
LINE
  5
8D
100
AcDbEntity
100
AcDbLine
  8
Main Plate Middle Layer
 62
256
370
-1
  6
ByLayer
 10
80.0801754097326466
 20
9.9570682769999657
 30
0.0
 11
87.880175409732658
 21
9.9570682770004169
 31
0.0
  0
LINE
  5
8E
100
AcDbEntity
100
AcDbLine
  8
Main Plate Middle Layer
 62
256
370
-1
  6
ByLayer
 10
87.880175409732658
 20
9.9570682770004169
 30
0.0
 11
87.880175409732658
 21
13.9570682770003884
 31
0.0
  0
LINE
  5
8F
100
AcDbEntity
100
AcDbLine
  8
Main Plate Middle Layer
 62
256
370
-1
  6
ByLayer
 10
87.880175409732658
 20
13.9570682770003884
 30
0.0
 11
86.9801754097326807
 21
13.9570682770003174
 31
0.0
  0
LINE
  5
90
100
AcDbEntity
100
AcDbLine
  8
Main Plate Middle Layer
 62
256
370
-1
  6
ByLayer
 10
86.9801754097326807
 20
13.9570682770003174
 30
0.0
 11
86.9801754097326807
 21
15.9570682770003351
 31
0.0
  0
LINE
  5
91
100
AcDbEntity
100
AcDbLine
  8
Main Plate Middle Layer
 62
256
370
-1
  6
ByLayer
 10
86.9801754097326807
 20
15.9570682770003351
 30
0.0
 11
80.9801754097326523
 21
15.9570682770003067
 31
0.0
  0
LINE
  5
92
100
AcDbEntity
100
AcDbLine
  8
Main Plate Middle Layer
 62
256
370
-1
  6
ByLayer
 10
80.9801754097326523
 20
15.9570682770003067
 30
0.0
 11
80.9801754097326523
 21
13.9570682770003351
 31
0.0
  0
LINE
  5
93
100
AcDbEntity
100
AcDbLine
  8
Main Plate Middle Layer
 62
256
370
-1
  6
ByLayer
 10
80.9801754097326523
 20
13.9570682770003351
 30
0.0
 11
80.0801754097326466
 21
13.9570682770000225
 31
0.0
  0
LINE
  5
94
100
AcDbEntity
100
AcDbLine
  8
Main Plate Middle Layer
 62
256
370
-1
  6
ByLayer
 10
80.0801754097326466
 20
13.9570682770000225
 30
0.0
 11
80.0801754097326466
 21
9.9570682769999657
 31
0.0
  0
LINE
  5
95
100
AcDbEntity
100
AcDbLine
  8
Main Plate Middle Layer
 62
256
370
-1
  6
ByLayer
 10
112.0801754097325755
 20
9.9570682770003209
 30
0.0
 11
119.8801754097326864
 21
9.9570682770003671
 31
0.0
  0
LINE
  5
96
100
AcDbEntity
100
AcDbLine
  8
Main Plate Middle Layer
 62
256
370
-1
  6
ByLayer
 10
119.8801754097326864
 20
9.9570682770003671
 30
0.0
 11
119.880175409732658
 21
13.957068277000392
 31
0.0
  0
LINE
  5
97
100
AcDbEntity
100
AcDbLine
  8
Main Plate Middle Layer
 62
256
370
-1
  6
ByLayer
 10
119.880175409732658
 20
13.957068277000392
 30
0.0
 11
118.9801754097326665
 21
13.9570682770003316
 31
0.0
  0
LINE
  5
98
100
AcDbEntity
100
AcDbLine
  8
Main Plate Middle Layer
 62
256
370
-1
  6
ByLayer
 10
118.9801754097326665
 20
13.9570682770003316
 30
0.0
 11
118.9801754097326665
 21
15.9570682770003032
 31
0.0
  0
LINE
  5
99
100
AcDbEntity
100
AcDbLine
  8
Main Plate Middle Layer
 62
256
370
-1
  6
ByLayer
 10
118.9801754097326665
 20
15.9570682770003032
 30
0.0
 11
112.980175409732567
 21
15.9570682770002996
 31
0.0
  0
LINE
  5
9A
100
AcDbEntity
100
AcDbLine
  8
Main Plate Middle Layer
 62
256
370
-1
  6
ByLayer
 10
112.980175409732567
 20
15.9570682770002996
 30
0.0
 11
112.9801754097327091
 21
13.957068277000328
 31
0.0
  0
LINE
  5
9B
100
AcDbEntity
100
AcDbLine
  8
Main Plate Middle Layer
 62
256
370
-1
  6
ByLayer
 10
112.9801754097327091
 20
13.957068277000328
 30
0.0
 11
112.0801754097327034
 21
13.9570682770002854
 31
0.0
  0
LINE
  5
9C
100
AcDbEntity
100
AcDbLine
  8
Main Plate Middle Layer
 62
256
370
-1
  6
ByLayer
 10
112.0801754097327034
 20
13.9570682770002854
 30
0.0
 11
112.0801754097325755
 21
9.9570682770003209
 31
0.0
  0
CIRCLE
  5
9D
100
AcDbEntity
100
AcDbCircle
  8
Main Plate Middle Layer
 62
256
370
-1
  6
ByLayer
 10
86.3620976686025017
 20
24.1669762969934254
 30
0.0
 40
1.45
  0
CIRCLE
  5
9E
100
AcDbEntity
100
AcDbCircle
  8
Main Plate Middle Layer
 62
256
370
-1
  6
ByLayer
 10
112.6400740946039036
 20
23.6629514963815843
 30
0.0
 40
1.45
  0
CIRCLE
  5
9F
100
AcDbEntity
100
AcDbCircle
  8
Main Plate Middle Layer
 62
256
370
-1
  6
ByLayer
 10
78.5801754097329166
 20
18.6669762969932975
 30
0.0
 40
1.45
  0
CIRCLE
  5
A0
100
AcDbEntity
100
AcDbCircle
  8
Main Plate Middle Layer
 62
256
370
-1
  6
ByLayer
 10
78.5801754097327461
 20
29.6669762969932975
 30
0.0
 40
1.45
  0
CIRCLE
  5
A1
100
AcDbEntity
100
AcDbCircle
  8
Main Plate Middle Layer
 62
256
370
-1
  6
ByLayer
 10
118.4801754097323823
 20
18.6669762969932691
 30
0.0
 40
1.45
  0
CIRCLE
  5
A2
100
AcDbEntity
100
AcDbCircle
  8
Main Plate Middle Layer
 62
256
370
-1
  6
ByLayer
 10
118.4801754097321975
 20
29.6669762969932833
 30
0.0
 40
1.45
  0
CIRCLE
  5
A3
100
AcDbEntity
100
AcDbCircle
  8
Main Plate Middle Layer
 62
256
370
-1
  6
ByLayer
 10
109.6400740946039036
 20
47.6629514963819929
 30
0.0
 40
1.45
  0
CIRCLE
  5
A4
100
AcDbEntity
100
AcDbCircle
  8
Main Plate Middle Layer
 62
256
370
-1
  6
ByLayer
 10
107.6400740946037047
 20
6.6629514963812007
 30
0.0
 40
1.45
  0
CIRCLE
  5
A5
100
AcDbEntity
100
AcDbCircle
  8
Main Plate Middle Layer
 62
256
370
-1
  6
ByLayer
 10
92.6400740946039321
 20
6.6629514963815915
 30
0.0
 40
1.45
  0
CIRCLE
  5
A6
100
AcDbEntity
100
AcDbCircle
  8
Main Plate Middle Layer
 62
256
370
-1
  6
ByLayer
 10
80.6400740946038326
 20
41.2129514963814643
 30
0.0
 40
1.45
  0
LINE
  5
A7
100
AcDbEntity
100
AcDbLine
  8
Top Plate Top
 62
256
370
-1
  6
ByLayer
 10
119.2503283014426927
 20
45.7597558093868173
 30
0.0
 11
124.4952869328090088
 21
31.3493504037346611
 31
0.0
  0
LINE
  5
A8
100
AcDbEntity
100
AcDbLine
  8
Top Plate Top
 62
256
370
-1
  6
ByLayer
 10
152.1458154151300164
 20
66.5836021432718752
 30
0.0
 11
155.3458154151300619
 21
67.7483068929238215
 31
0.0
  0
LINE
  5
A9
100
AcDbEntity
100
AcDbLine
  8
Top Plate Top
 62
256
370
-1
  6
ByLayer
 10
123.3181512858622284
 20
34.5835040133561193
 30
0.0
 11
116.4057141000014894
 21
53.5752690949064316
 31
0.0
  0
LINE
  5
AA
100
AcDbEntity
100
AcDbLine
  8
Top Plate Top
 62
256
370
-1
  6
ByLayer
 10
128.7458154151306644
 20
1.8693858755257793
 30
0.0
 11
128.7458154151306928
 21
3.801691114046136
 31
0.0
  0
LINE
  5
AB
100
AcDbEntity
100
AcDbLine
  8
Top Plate Top
 62
256
370
-1
  6
ByLayer
 10
178.7458154151302665
 20
12.6180401494697065
 30
0.0
 11
178.7458154151303802
 21
1.8693858755257722
 31
0.0
  0
LINE
  5
AC
100
AcDbEntity
100
AcDbLine
  8
Top Plate Top
 62
256
370
-1
  6
ByLayer
 10
163.3903451392964996
 20
70.676276261190182
 30
0.0
 11
173.3181512858618305
 21
43.399853048779768
 31
0.0
  0
LINE
  5
AD
100
AcDbEntity
100
AcDbLine
  8
Top Plate Top
 62
256
370
-1
  6
ByLayer
 10
155.3458154151300619
 20
67.7483068929238215
 30
0.0
 11
163.3903451392964996
 21
70.676276261190182
 31
0.0
  0
ARC
  5
AE
100
AcDbEntity
  8
Top Plate Top
 62
256
370
-1
  6
ByLayer
100
AcDbCircle
 10
38.7458154151313892
 20
3.8016911140448997
 30
0.0
 40
89.9999999999994458
100
AcDbArc
 50
360.0
 51
20.0000000000005862
  0
ARC
  5
AF
100
AcDbEntity
  8
Top Plate Top
 62
256
370
-1
  6
ByLayer
100
AcDbCircle
 10
88.7458154151315739
 20
12.6180401494689178
 30
0.0
 40
89.9999999999989058
100
AcDbArc
 50
360.0
 51
20.0000000000006892
  0
LINE
  5
B0
100
AcDbEntity
100
AcDbLine
  8
Top Plate Top
 62
256
370
-1
  6
ByLayer
 10
178.7458154151303802
 20
1.8693858755257722
 30
0.0
 11
128.7458154151306644
 21
1.8693858755257793
 31
0.0
  0
LINE
  5
B1
100
AcDbEntity
100
AcDbLine
  8
Top Plate Top
 62
256
370
-1
  6
ByLayer
 10
116.4057141000014894
 20
53.5752690949064316
 30
0.0
 11
132.2865193912832638
 21
59.3554095171104876
 31
0.0
  0
LINE
  5
B2
100
AcDbEntity
100
AcDbLine
  8
Top Plate Top
 62
256
370
-1
  6
ByLayer
 10
136.7327812545168797
 20
47.139405446893619
 30
0.0
 11
132.2865193912832638
 21
59.3554095171104876
 31
0.0
  0
LINE
  5
B3
100
AcDbEntity
100
AcDbLine
  8
Top Plate Top
 62
256
370
-1
  6
ByLayer
 10
151.9558017112485686
 20
52.6801317687695132
 30
0.0
 11
136.7327812545168797
 21
47.139405446893619
 31
0.0
  0
LINE
  5
B4
100
AcDbEntity
100
AcDbLine
  8
Top Plate Top
 62
256
370
-1
  6
ByLayer
 10
147.5095398480149242
 20
64.8961358389864102
 30
0.0
 11
152.1458154151300164
 21
66.5836021432718752
 31
0.0
  0
LINE
  5
B5
100
AcDbEntity
100
AcDbLine
  8
Top Plate Top
 62
256
370
-1
  6
ByLayer
 10
151.9558017112485686
 20
52.6801317687695132
 30
0.0
 11
147.5095398480149242
 21
64.8961358389864102
 31
0.0
  0
LINE
  5
B6
100
AcDbEntity
100
AcDbLine
  8
Top Plate Top
 62
256
370
-1
  6
ByLayer
 10
148.3458154151302892
 20
35.0792938955183899
 30
0.0
 11
155.3458154151302892
 21
35.0792938955185036
 31
0.0
  0
LINE
  5
B7
100
AcDbEntity
100
AcDbLine
  8
Top Plate Top
 62
256
370
-1
  6
ByLayer
 10
155.3458154151306019
 20
13.0792938955185001
 30
0.0
 11
155.3458154151302892
 21
35.0792938955185036
 31
0.0
  0
LINE
  5
B8
100
AcDbEntity
100
AcDbLine
  8
Top Plate Top
 62
256
370
-1
  6
ByLayer
 10
148.3458154151306019
 20
13.0792938955183899
 30
0.0
 11
148.3458154151302892
 21
35.0792938955183899
 31
0.0
  0
LINE
  5
B9
100
AcDbEntity
100
AcDbLine
  8
Top Plate Top
 62
256
370
-1
  6
ByLayer
 10
148.3458154151306019
 20
13.0792938955183899
 30
0.0
 11
155.3458154151306019
 21
13.0792938955185001
 31
0.0
  0
MTEXT
  5
BA
100
AcDbEntity
100
AcDbMText
  8
Top Plate Top Text
 62
256
370
-1
  6
ByLayer
 10
127.4057141000014894
 20
39.5752690949064174
 30
0.0
 40
2.0
 41
100.0
 71
1
 72
2
  1
Top\~Plate\PTop
  7
standard
 50
0.0
 73
0
 44
1.0
  0
MTEXT
  5
BB
100
AcDbEntity
100
AcDbMText
  8
Top Plate Top Text
 62
256
370
-1
  6
ByLayer
 10
158.4057141000014894
 20
39.5752690949064245
 30
0.0
 40
2.0
 41
100.0
 71
1
 72
2
  1
Top\~Plate\PTop
  7
standard
 50
0.0
 73
0
 44
1.0
  0
CIRCLE
  5
BC
100
AcDbEntity
100
AcDbCircle
  8
Top Plate Top
 62
256
370
-1
  6
ByLayer
 10
166.4057141000014894
 20
23.5752690949064281
 30
0.0
 40
1.45
  0
CIRCLE
  5
BD
100
AcDbEntity
100
AcDbCircle
  8
Top Plate Top
 62
256
370
-1
  6
ByLayer
 10
140.1277376740000875
 20
24.0792938955182585
 30
0.0
 40
1.45
  0
CIRCLE
  5
BE
100
AcDbEntity
100
AcDbCircle
  8
Top Plate Top
 62
256
370
-1
  6
ByLayer
 10
132.3458154151305166
 20
18.5792938955181306
 30
0.0
 40
1.45
  0
CIRCLE
  5
BF
100
AcDbEntity
100
AcDbCircle
  8
Top Plate Top
 62
256
370
-1
  6
ByLayer
 10
132.3458154151303177
 20
29.5792938955181413
 30
0.0
 40
1.45
  0
CIRCLE
  5
C0
100
AcDbEntity
100
AcDbCircle
  8
Top Plate Top
 62
256
370
-1
  6
ByLayer
 10
172.2458154151303802
 20
18.5792938955187594
 30
0.0
 40
1.45
  0
CIRCLE
  5
C1
100
AcDbEntity
100
AcDbCircle
  8
Top Plate Top
 62
256
370
-1
  6
ByLayer
 10
172.2458154151302097
 20
29.5792938955187807
 30
0.0
 40
1.45
  0
CIRCLE
  5
C2
100
AcDbEntity
100
AcDbCircle
  8
Top Plate Top
 62
256
370
-1
  6
ByLayer
 10
163.4057141000013473
 20
47.5752690949072559
 30
0.0
 40
1.45
  0
CIRCLE
  5
C3
100
AcDbEntity
100
AcDbCircle
  8
Top Plate Top
 62
256
370
-1
  6
ByLayer
 10
161.4057141000014894
 20
6.5752690949064281
 30
0.0
 40
1.45
  0
CIRCLE
  5
C4
100
AcDbEntity
100
AcDbCircle
  8
Top Plate Top
 62
256
370
-1
  6
ByLayer
 10
146.4057141000017168
 20
6.5752690949067727
 30
0.0
 40
1.45
  0
CIRCLE
  5
C5
100
AcDbEntity
100
AcDbCircle
  8
Top Plate Top
 62
256
370
-1
  6
ByLayer
 10
134.4057141000014894
 20
41.1252690949064856
 30
0.0
 40
1.45
  0
ENDSEC
  0
SECTION
  2
OBJECTS
  0
DICTIONARY
  5
C
100
AcDbDictionary
280
0
281
1
  3
ACAD_GROUP
350
D
  3
ACAD_LAYOUT
350
1A
  3
ACAD_MLINESTYLE
350
17
  3
ACAD_PLOTSETTINGS
350
19
  3
ACAD_PLOTSTYLENAME
350
E
  3
AcDbVariableDictionary
350
C6
  0
DICTIONARY
  5
D
100
AcDbDictionary
280
0
281
1
  0
ACDBDICTIONARYWDFLT
  5
E
100
AcDbDictionary
281
1
  3
Normal
350
F
100
AcDbDictionaryWithDefault
340
F
  0
ACDBPLACEHOLDER
  5
F
  0
DICTIONARY
  5
17
100
AcDbDictionary
280
0
281
1
  3
Standard
350
18
  0
MLINESTYLE
  5
18
100
AcDbMlineStyle
  2
STANDARD
 70
0
  3

 62
256
 51
90.0
 52
90.0
 71
2
 49
0.5
 62
256
  6
BYLAYER
 49
-0.5
 62
256
  6
BYLAYER
  0
DICTIONARY
  5
19
100
AcDbDictionary
280
0
281
1
  0
DICTIONARY
  5
1A
100
AcDbDictionary
281
1
  3
Layout1
350
1E
  3
Layout2
350
26
  3
Model
350
22
  0
LAYOUT
  5
1E
100
AcDbPlotSettings
  1

  2
C:\Program Files\AutoCAD 2002\plotters\DWF ePlot (optimized for plotting).pc3
  4

  6

 40
0.0
 41
0.0
 42
0.0
 43
0.0
 44
0.0
 45
0.0
 46
0.0
 47
0.0
 48
0.0
 49
0.0
140
0.0
141
0.0
142
1.0
143
1.0
 70
688
 72
0
 73
0
 74
5
  7

 75
16
147
1.0
148
0.0
149
0.0
100
AcDbLayout
  1
Layout1
 70
1
 71
1
 10
0.0
 20
0.0
 11
420.0
 21
297.0
 12
0.0
 22
0.0
 32
0.0
 14
100000000000000000000.0
 24
100000000000000000000.0
 34
100000000000000000000.0
 15
-100000000000000000000.0
 25
-100000000000000000000.0
 35
-100000000000000000000.0
146
0.0
 13
0.0
 23
0.0
 33
0.0
 16
1.0
 26
0.0
 36
0.0
 17
0.0
 27
1.0
 37
0.0
 76
0
330
1B
  0
LAYOUT
  5
22
100
AcDbPlotSettings
  1

  2
C:\Program Files\AutoCAD 2002\plotters\DWF ePlot (optimized for plotting).pc3
  4

  6

 40
0.0
 41
0.0
 42
0.0
 43
0.0
 44
0.0
 45
0.0
 46
0.0
 47
0.0
 48
0.0
 49
0.0
140
0.0
141
0.0
142
1.0
143
1.0
 70
1712
 72
0
 73
0
 74
0
  7

 75
0
147
1.0
148
0.0
149
0.0
100
AcDbLayout
  1
Model
 70
1
 71
0
 10
0.0
 20
0.0
 11
12.0
 21
9.0
 12
0.0
 22
0.0
 32
0.0
 14
0.0
 24
0.0
 34
0.0
 15
0.0
 25
0.0
 35
0.0
146
0.0
 13
0.0
 23
0.0
 33
0.0
 16
1.0
 26
0.0
 36
0.0
 17
0.0
 27
1.0
 37
0.0
 76
0
330
1F
  0
LAYOUT
  5
26
100
AcDbPlotSettings
  1

  2
C:\Program Files\AutoCAD 2002\plotters\DWF ePlot (optimized for plotting).pc3
  4

  6

 40
0.0
 41
0.0
 42
0.0
 43
0.0
 44
0.0
 45
0.0
 46
0.0
 47
0.0
 48
0.0
 49
0.0
140
0.0
141
0.0
142
1.0
143
1.0
 70
688
 72
0
 73
0
 74
5
  7

 75
16
147
1.0
148
0.0
149
0.0
100
AcDbLayout
  1
Layout2
 70
1
 71
2
 10
0.0
 20
0.0
 11
12.0
 21
9.0
 12
0.0
 22
0.0
 32
0.0
 14
0.0
 24
0.0
 34
0.0
 15
0.0
 25
0.0
 35
0.0
146
0.0
 13
0.0
 23
0.0
 33
0.0
 16
1.0
 26
0.0
 36
0.0
 17
0.0
 27
1.0
 37
0.0
 76
0
330
23
  0
DICTIONARY
  5
C6
100
AcDbDictionary
281
1
  3
DIMASSOC
350
C8
  3
HIDETEXT
350
C7
  0
DICTIONARYVAR
  5
C7
100
DictionaryVariables
280
0
  1
2
  0
DICTIONARYVAR
  5
C8
100
DictionaryVariables
280
0
  1
1
  0
ENDSEC
  0
EOF
