999
dxflib 2.1.2.0
  0
SECTION
  2
HEADER
  9
$ACADVER
  1
AC1015
  9
$HANDSEED
  5
FFFF
  9
$DIMASZ
 40
2.5
  9
$PLIMMIN
 10
0.0
 20
0.0
  9
$DIMEXE
 40
1.25
  9
$DIMGAP
 40
0.625
  9
$PLIMMAX
 10
210.0
 20
297.0
  9
$INSUNITS
 70
4
  9
$DIMSTYLE
  2
Standard
  9
$CLAYER
  8
0
  9
$DIMEXO
 40
0.625
  9
$DIMTXT
 40
2.5
  9
$CLAYER
  8
0
  0
ENDSEC
  0
SECTION
  2
TABLES
  0
TABLE
  2
VPORT
  5
8
100
AcDbSymbolTable
 70
1
  0
VPORT
  5
30
100
AcDbSymbolTableRecord
100
AcDbViewportTableRecord
  2
*Active
 70
0
 10
0.0
 20
0.0
 11
1.0
 21
1.0
 12
286.3055555555554861
 22
148.5
 13
0.0
 23
0.0
 14
10.0
 24
10.0
 15
10.0
 25
10.0
 16
0.0
 26
0.0
 36
1.0
 17
0.0
 27
0.0
 37
0.0
 40
297.0
 41
1.92798353909465
 42
50.0
 43
0.0
 44
0.0
 50
0.0
 51
0.0
 71
0
 72
100
 73
1
 74
3
 75
1
 76
1
 77
0
 78
0
281
0
 65
1
110
0.0
120
0.0
130
0.0
111
1.0
121
0.0
131
0.0
112
0.0
122
1.0
132
0.0
 79
0
146
0.0
  0
ENDTAB
  0
TABLE
  2
LTYPE
  5
5
100
AcDbSymbolTable
 70
21
  0
LTYPE
  5
14
100
AcDbSymbolTableRecord
100
AcDbLinetypeTableRecord
  2
ByBlock
 70
0
  3

 72
65
 73
0
 40
0.0
  0
LTYPE
  5
15
100
AcDbSymbolTableRecord
100
AcDbLinetypeTableRecord
  2
ByLayer
 70
0
  3

 72
65
 73
0
 40
0.0
  0
LTYPE
  5
16
100
AcDbSymbolTableRecord
100
AcDbLinetypeTableRecord
  2
CONTINUOUS
 70
0
  3
Solid line
 72
65
 73
0
 40
0.0
  0
LTYPE
  5
31
100
AcDbSymbolTableRecord
100
AcDbLinetypeTableRecord
  2
DOT
 70
0
  3
Dot . . . . . . . . . . . . . . . . . . . . . .
 72
65
 73
2
 40
6.3499999999999996
 49
0.0
 74
0
 49
-6.3499999999999996
 74
0
  0
LTYPE
  5
32
100
AcDbSymbolTableRecord
100
AcDbLinetypeTableRecord
  2
DOT2
 70
0
  3
Dot (.5x) .....................................
 72
65
 73
2
 40
3.1749999999999998
 49
0.0
 74
0
 49
-3.1749999999999998
 74
0
  0
LTYPE
  5
33
100
AcDbSymbolTableRecord
100
AcDbLinetypeTableRecord
  2
DOTX2
 70
0
  3
Dot (2x) .  .  .  .  .  .  .  .  .  .  .  .  .
 72
65
 73
2
 40
12.6999999999999993
 49
0.0
 74
0
 49
-12.6999999999999993
 74
0
  0
LTYPE
  5
34
100
AcDbSymbolTableRecord
100
AcDbLinetypeTableRecord
  2
DASHED
 70
0
  3
Dashed __ __ __ __ __ __ __ __ __ __ __ __ __ _
 72
65
 73
2
 40
19.0500000000000007
 49
12.6999999999999993
 74
0
 49
-6.3499999999999996
 74
0
  0
LTYPE
  5
35
100
AcDbSymbolTableRecord
100
AcDbLinetypeTableRecord
  2
DASHED2
 70
0
  3
Dashed (.5x) _ _ _ _ _ _ _ _ _ _ _ _ _ _ _ _ _
 72
65
 73
2
 40
9.5250000000000004
 49
6.3499999999999996
 74
0
 49
-3.1749999999999998
 74
0
  0
LTYPE
  5
36
100
AcDbSymbolTableRecord
100
AcDbLinetypeTableRecord
  2
DASHEDX2
 70
0
  3
Dashed (2x) ____  ____  ____  ____  ____  ___
 72
65
 73
2
 40
38.1000000000000014
 49
25.3999999999999986
 74
0
 49
-12.6999999999999993
 74
0
  0
LTYPE
  5
37
100
AcDbSymbolTableRecord
100
AcDbLinetypeTableRecord
  2
DASHDOT
 70
0
  3
Dash dot __ . __ . __ . __ . __ . __ . __ . __
 72
65
 73
4
 40
25.3999999999999986
 49
12.6999999999999993
 74
0
 49
-6.3499999999999996
 74
0
 49
0.0
 74
0
 49
-6.3499999999999996
 74
0
  0
LTYPE
  5
38
100
AcDbSymbolTableRecord
100
AcDbLinetypeTableRecord
  2
DASHDOT2
 70
0
  3
Dash dot (.5x) _._._._._._._._._._._._._._._.
 72
65
 73
4
 40
12.6999999999999993
 49
6.3499999999999996
 74
0
 49
-3.1749999999999998
 74
0
 49
0.0
 74
0
 49
-3.1749999999999998
 74
0
  0
LTYPE
  5
39
100
AcDbSymbolTableRecord
100
AcDbLinetypeTableRecord
  2
DASHDOTX2
 70
0
  3
Dash dot (2x) ____  .  ____  .  ____  .  ___
 72
65
 73
4
 40
50.7999999999999972
 49
25.3999999999999986
 74
0
 49
-12.6999999999999993
 74
0
 49
0.0
 74
0
 49
-12.6999999999999993
 74
0
  0
LTYPE
  5
3A
100
AcDbSymbolTableRecord
100
AcDbLinetypeTableRecord
  2
DIVIDE
 70
0
  3
Divide ____ . . ____ . . ____ . . ____ . . ____
 72
65
 73
6
 40
31.75
 49
12.6999999999999993
 74
0
 49
-6.3499999999999996
 74
0
 49
0.0
 74
0
 49
-6.3499999999999996
 74
0
 49
0.0
 74
0
 49
-6.3499999999999996
 74
0
  0
LTYPE
  5
3B
100
AcDbSymbolTableRecord
100
AcDbLinetypeTableRecord
  2
DIVIDE2
 70
0
  3
Divide (.5x) __..__..__..__..__..__..__..__.._
 72
65
 73
6
 40
15.875
 49
6.3499999999999996
 74
0
 49
-3.1749999999999998
 74
0
 49
0.0
 74
0
 49
-3.1749999999999998
 74
0
 49
0.0
 74
0
 49
-3.1749999999999998
 74
0
  0
LTYPE
  5
3C
100
AcDbSymbolTableRecord
100
AcDbLinetypeTableRecord
  2
DIVIDEX2
 70
0
  3
Divide (2x) ________  .  .  ________  .  .  _
 72
65
 73
6
 40
63.5
 49
25.3999999999999986
 74
0
 49
-12.6999999999999993
 74
0
 49
0.0
 74
0
 49
-12.6999999999999993
 74
0
 49
0.0
 74
0
 49
-12.6999999999999993
 74
0
  0
LTYPE
  5
3D
100
AcDbSymbolTableRecord
100
AcDbLinetypeTableRecord
  2
CENTER
 70
0
  3
Center ____ _ ____ _ ____ _ ____ _ ____ _ ____
 72
65
 73
4
 40
50.7999999999999972
 49
31.75
 74
0
 49
-6.3499999999999996
 74
0
 49
6.3499999999999996
 74
0
 49
-6.3499999999999996
 74
0
  0
LTYPE
  5
3E
100
AcDbSymbolTableRecord
100
AcDbLinetypeTableRecord
  2
CENTER2
 70
0
  3
Center (.5x) ___ _ ___ _ ___ _ ___ _ ___ _ ___
 72
65
 73
4
 40
28.5749999999999993
 49
19.0500000000000007
 74
0
 49
-3.1749999999999998
 74
0
 49
3.1749999999999998
 74
0
 49
-3.1749999999999998
 74
0
  0
LTYPE
  5
3F
100
AcDbSymbolTableRecord
100
AcDbLinetypeTableRecord
  2
CENTERX2
 70
0
  3
Center (2x) ________  __  ________  __  _____
 72
65
 73
4
 40
101.5999999999999943
 49
63.5
 74
0
 49
-12.6999999999999993
 74
0
 49
12.6999999999999993
 74
0
 49
-12.6999999999999993
 74
0
  0
LTYPE
  5
40
100
AcDbSymbolTableRecord
100
AcDbLinetypeTableRecord
  2
BORDER
 70
0
  3
Border __ __ . __ __ . __ __ . __ __ . __ __ .
 72
65
 73
6
 40
44.4500000000000028
 49
12.6999999999999993
 74
0
 49
-6.3499999999999996
 74
0
 49
12.6999999999999993
 74
0
 49
-6.3499999999999996
 74
0
 49
0.0
 74
0
 49
-6.3499999999999996
 74
0
  0
LTYPE
  5
41
100
AcDbSymbolTableRecord
100
AcDbLinetypeTableRecord
  2
BORDER2
 70
0
  3
Border (.5x) __.__.__.__.__.__.__.__.__.__.__.
 72
65
 73
6
 40
22.2250000000000014
 49
6.3499999999999996
 74
0
 49
-3.1749999999999998
 74
0
 49
6.3499999999999996
 74
0
 49
-3.1749999999999998
 74
0
 49
0.0
 74
0
 49
-3.1749999999999998
 74
0
  0
LTYPE
  5
42
100
AcDbSymbolTableRecord
100
AcDbLinetypeTableRecord
  2
BORDERX2
 70
0
  3
Border (2x) ____  ____  .  ____  ____  .  ___
 72
65
 73
6
 40
88.9000000000000057
 49
25.3999999999999986
 74
0
 49
-12.6999999999999993
 74
0
 49
25.3999999999999986
 74
0
 49
-12.6999999999999993
 74
0
 49
0.0
 74
0
 49
-12.6999999999999993
 74
0
  0
ENDTAB
  0
TABLE
  2
LAYER
  5
2
100
AcDbSymbolTable
 70
8
  0
LAYER
  5
10
100
AcDbSymbolTableRecord
100
AcDbLayerTableRecord
  2
0
 70
0
 62
7
  6
CONTINUOUS
370
0
390
F
  0
LAYER
  5
43
100
AcDbSymbolTableRecord
100
AcDbLayerTableRecord
  2
Bottom Layer
 70
0
 62
7
  6
CONTINUOUS
370
0
390
F
  0
LAYER
  5
44
100
AcDbSymbolTableRecord
100
AcDbLayerTableRecord
  2
Notes
 70
0
 62
7
  6
CONTINUOUS
370
0
390
F
  0
LAYER
  5
45
100
AcDbSymbolTableRecord
100
AcDbLayerTableRecord
  2
Middle
 70
0
 62
7
  6
CONTINUOUS
370
0
390
F
  0
LAYER
  5
46
100
AcDbSymbolTableRecord
100
AcDbLayerTableRecord
  2
Middle Text
 70
0
 62
4
  6
CONTINUOUS
370
0
390
F
  0
LAYER
  5
47
100
AcDbSymbolTableRecord
100
AcDbLayerTableRecord
  2
retainer
 70
0
 62
7
  6
CONTINUOUS
370
0
390
F
  0
LAYER
  5
48
100
AcDbSymbolTableRecord
100
AcDbLayerTableRecord
  2
Text
 70
0
 62
4
  6
CONTINUOUS
370
0
390
F
  0
LAYER
  5
49
100
AcDbSymbolTableRecord
100
AcDbLayerTableRecord
  2
Bottom Text
 70
0
 62
4
  6
CONTINUOUS
370
0
390
F
  0
ENDTAB
  0
TABLE
  2
STYLE
  5
3
100
AcDbSymbolTable
 70
1
  0
STYLE
  5
11
100
AcDbSymbolTableRecord
100
AcDbTextStyleTableRecord
  2
Standard
 70
0
 40
0.0
 41
0.75
 50
0.0
 71
0
 42
2.5
  3
txt
  4

  0
ENDTAB
  0
TABLE
  2
VIEW
  5
6
100
AcDbSymbolTable
 70
0
  0
ENDTAB
  0
TABLE
  2
UCS
  5
7
100
AcDbSymbolTable
 70
0
  0
ENDTAB
  0
TABLE
  2
APPID
  5
9
100
AcDbSymbolTable
 70
1
  0
APPID
  5
12
100
AcDbSymbolTableRecord
100
AcDbRegAppTableRecord
  2
ACAD
 70
0
  0
ENDTAB
  0
TABLE
  2
DIMSTYLE
  5
A
100
AcDbSymbolTable
 70
1
100
AcDbDimStyleTable
 71
0
  0
DIMSTYLE
105
27
100
AcDbSymbolTableRecord
100
AcDbDimStyleTableRecord
  2
Standard
 41
2.5
 42
0.625
 43
3.75
 44
1.25
 70
0
 73
0
 74
0
 77
1
 78
8
140
2.5
141
2.5
143
0.03937007874016
147
0.625
171
3
172
1
271
2
272
2
274
3
278
44
283
0
284
8
340
11
  0
ENDTAB
  0
TABLE
  2
BLOCK_RECORD
  5
1
100
AcDbSymbolTable
 70
1
  0
BLOCK_RECORD
  5
1F
100
AcDbSymbolTableRecord
100
AcDbBlockTableRecord
  2
*Model_Space
340
22
  0
BLOCK_RECORD
  5
1B
100
AcDbSymbolTableRecord
100
AcDbBlockTableRecord
  2
*Paper_Space
340
1E
  0
BLOCK_RECORD
  5
23
100
AcDbSymbolTableRecord
100
AcDbBlockTableRecord
  2
*Paper_Space0
340
26
  0
ENDTAB
  0
ENDSEC
  0
SECTION
  2
BLOCKS
  0
BLOCK
  5
20
100
AcDbEntity
  8
0
100
AcDbBlockBegin
  2
*Model_Space
 70
0
 10
0.0
 20
0.0
 30
0.0
  3
*Model_Space
  1

  0
ENDBLK
  5
21
100
AcDbEntity
  8
0
100
AcDbBlockEnd
  0
BLOCK
  5
1C
100
AcDbEntity
 67
1
  8
0
100
AcDbBlockBegin
  2
*Paper_Space
 70
0
 10
0.0
 20
0.0
 30
0.0
  3
*Paper_Space
  1

  0
ENDBLK
  5
1D
100
AcDbEntity
 67
1
  8
0
100
AcDbBlockEnd
  0
BLOCK
  5
24
100
AcDbEntity
  8
0
100
AcDbBlockBegin
  2
*Paper_Space0
 70
0
 10
0.0
 20
0.0
 30
0.0
  3
*Paper_Space0
  1

  0
ENDBLK
  5
25
100
AcDbEntity
  8
0
100
AcDbBlockEnd
  0
ENDSEC
  0
SECTION
  2
ENTITIES
  0
LINE
  5
4A
100
AcDbEntity
100
AcDbLine
  8
Notes
 62
256
370
-1
  6
ByLayer
 10
53.0433756729740296
 20
23.9999999999998899
 30
0.0
 11
53.4000000000000128
 21
23.9999999999999147
 31
0.0
  0
CIRCLE
  5
4B
100
AcDbEntity
100
AcDbCircle
  8
Middle
 62
256
370
-1
  6
ByLayer
 10
29.6220943338074854
 20
61.2912996406193784
 30
0.0
 40
1.425
  0
CIRCLE
  5
4C
100
AcDbEntity
100
AcDbCircle
  8
Middle
 62
256
370
-1
  6
ByLayer
 10
57.8128729573847195
 20
51.0306953408493058
 30
0.0
 40
1.425
  0
CIRCLE
  5
4D
100
AcDbEntity
100
AcDbCircle
  8
Middle
 62
256
370
-1
  6
ByLayer
 10
27.0000000000000639
 20
16.9999999999999645
 30
0.0
 40
1.425
  0
CIRCLE
  5
4E
100
AcDbEntity
100
AcDbCircle
  8
Middle
 62
256
370
-1
  6
ByLayer
 10
42.9999999999999503
 20
16.9999999999999574
 30
0.0
 40
1.425
  0
CIRCLE
  5
4F
100
AcDbEntity
100
AcDbCircle
  8
Middle
 62
256
370
-1
  6
ByLayer
 10
27.0000000000000107
 20
38.9999999999999716
 30
0.0
 40
1.425
  0
LINE
  5
50
100
AcDbEntity
100
AcDbLine
  8
Middle
 62
256
370
-1
  6
ByLayer
 10
26.2779074294256887
 20
19.9413732326007107
 30
0.0
 11
33.7954483957129597
 21
17.2052120859953597
 31
0.0
  0
LINE
  5
51
100
AcDbEntity
100
AcDbLine
  8
Middle
 62
256
370
-1
  6
ByLayer
 10
32.8882141478956385
 20
69.6801291990274336
 30
0.0
 11
32.7002756237384915
 21
69.7485332276925618
 31
0.0
  0
LINE
  5
52
100
AcDbEntity
100
AcDbLine
  8
Middle
 62
256
370
-1
  6
ByLayer
 10
32.28916123305995
 20
66.2799622023599397
 30
0.0
 11
33.2468176343718227
 21
68.9111015405604945
 31
0.0
  0
LINE
  5
53
100
AcDbEntity
100
AcDbLine
  8
Middle
 62
256
370
-1
  6
ByLayer
 10
31.3321950504358213
 20
65.9897627445489405
 30
0.0
 11
31.5201335745930216
 21
65.9213587158838124
 31
0.0
  0
LINE
  5
54
100
AcDbEntity
100
AcDbLine
  8
Middle
 62
256
370
-1
  6
ByLayer
 10
30.8533668497798743
 20
64.6741930754486418
 30
0.0
 11
31.3321950504358213
 21
65.9897627445489405
 31
0.0
  0
LINE
  5
55
100
AcDbEntity
100
AcDbLine
  8
Middle
 62
256
370
-1
  6
ByLayer
 10
25.5738146115406053
 20
65.9572862769357471
 30
0.0
 11
30.0843391913129246
 21
64.3155895889725571
 31
0.0
  0
LINE
  5
56
100
AcDbEntity
100
AcDbLine
  8
Middle
 62
256
370
-1
  6
ByLayer
 10
25.6940393257203894
 20
68.0418836045029565
 30
0.0
 11
25.2152111250644602
 21
66.726313935402672
 31
0.0
  0
LINE
  5
57
100
AcDbEntity
100
AcDbLine
  8
Middle
 62
256
370
-1
  6
ByLayer
 10
25.5061008015631892
 20
68.1102876331680847
 30
0.0
 11
25.6940393257203894
 21
68.0418836045029565
 31
0.0
  0
LINE
  5
58
100
AcDbEntity
100
AcDbLine
  8
Middle
 62
256
370
-1
  6
ByLayer
 10
26.1051537163989273
 20
71.5104546298355643
 30
0.0
 11
25.1474973150870369
 21
68.8793152916350095
 31
0.0
  0
LINE
  5
59
100
AcDbEntity
100
AcDbLine
  8
Middle
 62
256
370
-1
  6
ByLayer
 10
27.0621198990230312
 20
71.8006540876465778
 30
0.0
 11
26.8741813748658736
 21
71.8690581163116917
 31
0.0
  0
LINE
  5
5A
100
AcDbEntity
100
AcDbLine
  8
Middle
 62
256
370
-1
  6
ByLayer
 10
15.4276641292682761
 20
51.5304671732541095
 30
0.0
 11
25.35547027583344
 21
78.8068903856647012
 31
0.0
  0
LINE
  5
5B
100
AcDbEntity
100
AcDbLine
  8
Middle
 62
256
370
-1
  6
ByLayer
 10
10.0
 20
10.0
 30
0.0
 11
10.0000000000000071
 21
20.7486542739439273
 31
0.0
  0
LINE
  5
5C
100
AcDbEntity
100
AcDbLine
  8
Middle
 62
256
370
-1
  6
ByLayer
 10
15.7999999999999741
 20
18.0000000000000071
 30
0.0
 11
15.9999999999999662
 21
18.0
 31
0.0
  0
LINE
  5
5D
100
AcDbEntity
100
AcDbLine
  8
Middle
 62
256
370
-1
  6
ByLayer
 10
15.1999999999999673
 20
21.3999999999999915
 30
0.0
 11
15.1999999999999673
 21
18.5999999999999801
 31
0.0
  0
LINE
  5
5E
100
AcDbEntity
100
AcDbLine
  8
Middle
 62
256
370
-1
  6
ByLayer
 10
16.0000000000000071
 20
21.9999999999999858
 30
0.0
 11
15.7999999999999616
 21
22.0000000000000284
 31
0.0
  0
LINE
  5
5F
100
AcDbEntity
100
AcDbLine
  8
Middle
 62
256
370
-1
  6
ByLayer
 10
15.9999999999999947
 20
23.3999999999999631
 30
0.0
 11
16.0000000000000071
 21
21.9999999999999858
 31
0.0
  0
LINE
  5
60
100
AcDbEntity
100
AcDbLine
  8
Middle
 62
256
370
-1
  6
ByLayer
 10
21.3999999999999844
 20
23.9999999999999574
 30
0.0
 11
16.6000000000000014
 21
23.9999999999999858
 31
0.0
  0
LINE
  5
61
100
AcDbEntity
100
AcDbLine
  8
Middle
 62
256
370
-1
  6
ByLayer
 10
21.9999999999999645
 20
21.9999999999999964
 30
0.0
 11
22.0000000000000355
 21
23.3999999999999488
 31
0.0
  0
LINE
  5
62
100
AcDbEntity
100
AcDbLine
  8
Middle
 62
256
370
-1
  6
ByLayer
 10
22.2000000000000242
 20
21.9999999999999858
 30
0.0
 11
21.9999999999999645
 21
21.9999999999999964
 31
0.0
  0
LINE
  5
63
100
AcDbEntity
100
AcDbLine
  8
Middle
 62
256
370
-1
  6
ByLayer
 10
22.8000000000000469
 20
18.5999999999999659
 30
0.0
 11
22.8000000000000185
 21
21.3999999999999631
 31
0.0
  0
LINE
  5
64
100
AcDbEntity
100
AcDbLine
  8
Middle
 62
256
370
-1
  6
ByLayer
 10
21.9999999999999929
 20
17.9999999999999787
 30
0.0
 11
22.1999999999999673
 21
18.0
 31
0.0
  0
LINE
  5
65
100
AcDbEntity
100
AcDbLine
  8
Middle
 62
256
370
-1
  6
ByLayer
 10
47.8000000000000469
 20
17.9999999999999503
 30
0.0
 11
48.0000000000000355
 21
17.9999999999999787
 31
0.0
  0
LINE
  5
66
100
AcDbEntity
100
AcDbLine
  8
Middle
 62
256
370
-1
  6
ByLayer
 10
47.1999999999999957
 20
21.3999999999999453
 30
0.0
 11
47.1999999999999957
 21
18.5999999999999517
 31
0.0
  0
LINE
  5
67
100
AcDbEntity
100
AcDbLine
  8
Middle
 62
256
370
-1
  6
ByLayer
 10
47.9999999999999929
 20
21.9999999999999716
 30
0.0
 11
47.8000000000000185
 21
21.9999999999999716
 31
0.0
  0
LINE
  5
68
100
AcDbEntity
100
AcDbLine
  8
Middle
 62
256
370
-1
  6
ByLayer
 10
48.0000000000000355
 20
23.3999999999999346
 30
0.0
 11
47.9999999999999929
 21
21.9999999999999716
 31
0.0
  0
LINE
  5
69
100
AcDbEntity
100
AcDbLine
  8
Middle
 62
256
370
-1
  6
ByLayer
 10
53.9999999999999503
 20
21.9999999999999361
 30
0.0
 11
54.0000000000000071
 21
23.3999999999999133
 31
0.0
  0
LINE
  5
6A
100
AcDbEntity
100
AcDbLine
  8
Middle
 62
256
370
-1
  6
ByLayer
 10
54.2000000000000242
 20
21.9999999999999574
 30
0.0
 11
53.9999999999999503
 21
21.9999999999999361
 31
0.0
  0
LINE
  5
6B
100
AcDbEntity
100
AcDbLine
  8
Middle
 62
256
370
-1
  6
ByLayer
 10
54.7999999999999901
 20
18.599999999999941
 30
0.0
 11
54.8000000000000185
 21
21.3999999999999773
 31
0.0
  0
LINE
  5
6C
100
AcDbEntity
100
AcDbLine
  8
Middle
 62
256
370
-1
  6
ByLayer
 10
53.9999999999999929
 20
17.9999999999999787
 30
0.0
 11
54.1999999999999815
 21
17.999999999999968
 31
0.0
  0
LINE
  5
6D
100
AcDbEntity
100
AcDbLine
  8
Middle
 62
256
370
-1
  6
ByLayer
 10
59.9999999999999787
 20
11.9323052385205468
 30
0.0
 11
59.9999999999999787
 21
9.9999999999999876
 31
0.0
  0
LINE
  5
6E
100
AcDbEntity
100
AcDbLine
  8
Middle
 62
256
370
-1
  6
ByLayer
 10
66.7171484961884005
 20
57.3674040393033451
 30
0.0
 11
66.5292099720311967
 21
57.4358080679685017
 31
0.0
  0
LINE
  5
6F
100
AcDbEntity
100
AcDbLine
  8
Middle
 62
256
370
-1
  6
ByLayer
 10
66.1180955813526054
 20
53.9672370426358512
 30
0.0
 11
67.0757519826644995
 21
56.5983763808363847
 31
0.0
  0
LINE
  5
70
100
AcDbEntity
100
AcDbLine
  8
Middle
 62
256
370
-1
  6
ByLayer
 10
65.161129398728491
 20
53.6770375848248733
 30
0.0
 11
65.3490679228856948
 21
53.6086335561597522
 31
0.0
  0
LINE
  5
71
100
AcDbEntity
100
AcDbLine
  8
Middle
 62
256
370
-1
  6
ByLayer
 10
64.68230119807248
 20
52.3614679157245604
 30
0.0
 11
65.161129398728491
 21
53.6770375848248733
 31
0.0
  0
LINE
  5
72
100
AcDbEntity
100
AcDbLine
  8
Middle
 62
256
370
-1
  6
ByLayer
 10
59.4027489598333105
 20
53.6445611172116514
 30
0.0
 11
63.9132735396055764
 21
52.002864429248433
 31
0.0
  0
LINE
  5
73
100
AcDbEntity
100
AcDbLine
  8
Middle
 62
256
370
-1
  6
ByLayer
 10
59.5229736740130662
 20
55.7291584447788111
 30
0.0
 11
59.0441454733571121
 21
54.4135887756785692
 31
0.0
  0
LINE
  5
74
100
AcDbEntity
100
AcDbLine
  8
Middle
 62
256
370
-1
  6
ByLayer
 10
59.3350351498558908
 20
55.7975624734439819
 30
0.0
 11
59.5229736740130662
 21
55.7291584447788111
 31
0.0
  0
LINE
  5
75
100
AcDbEntity
100
AcDbLine
  8
Middle
 62
256
370
-1
  6
ByLayer
 10
59.934088064691629
 20
59.1977294701115042
 30
0.0
 11
58.9764316633797776
 21
56.5665901319109494
 31
0.0
  0
LINE
  5
76
100
AcDbEntity
100
AcDbLine
  8
Middle
 62
256
370
-1
  6
ByLayer
 10
60.8910542473158003
 20
59.4879289279225176
 30
0.0
 11
60.7031157231585112
 21
59.5563329565876387
 31
0.0
  0
ARC
  5
77
100
AcDbEntity
  8
Middle
 62
256
370
-1
  6
ByLayer
100
AcDbCircle
 10
34.0006604817083584
 20
17.7690276584668894
 30
0.0
 40
0.599999999999996
100
AcDbArc
 50
250.0000000000001137
 51
340.0000000000002842
  0
ARC
  5
78
100
AcDbEntity
  8
Middle
 62
256
370
-1
  6
ByLayer
100
AcDbCircle
 10
26.4831195154210732
 20
20.5051888050722582
 30
0.0
 40
0.5999999999999983
100
AcDbArc
 50
159.9999999999998863
 51
250.0000000000001705
  0
ARC
  5
79
100
AcDbEntity
  8
Middle
 62
256
370
-1
  6
ByLayer
100
AcDbCircle
 10
32.6830020619002681
 20
69.1163136265558649
 30
0.0
 40
0.600000000000012
100
AcDbArc
 50
340.0000000000014779
 51
69.9999999999995879
  0
ARC
  5
7A
100
AcDbEntity
  8
Middle
 62
256
370
-1
  6
ByLayer
100
AcDbCircle
 10
31.7253456605884168
 20
66.4851742883553101
 30
0.0
 40
0.5999999999999749
100
AcDbArc
 50
249.99999999999838
 51
340.0000000000022737
  0
ARC
  5
7B
100
AcDbEntity
  8
Middle
 62
256
370
-1
  6
ByLayer
100
AcDbCircle
 10
30.289551277308373
 20
64.8794051614440406
 30
0.0
 40
0.5999999999999921
100
AcDbArc
 50
249.9999999999991189
 51
340.0000000000009095
  0
ARC
  5
7C
100
AcDbEntity
  8
Middle
 62
256
370
-1
  6
ByLayer
100
AcDbCircle
 10
25.7790266975359899
 20
66.521101849407259
 30
0.0
 40
0.5999999999999996
100
AcDbArc
 50
160.0000000000001137
 51
249.9999999999993179
  0
ARC
  5
7D
100
AcDbEntity
  8
Middle
 62
256
370
-1
  6
ByLayer
100
AcDbCircle
 10
25.7113128875586057
 20
68.6741032056396108
 30
0.0
 40
0.5999999999999986
100
AcDbArc
 50
160.0000000000001137
 51
249.9999999999993179
  0
ARC
  5
7E
100
AcDbEntity
  8
Middle
 62
256
370
-1
  6
ByLayer
100
AcDbCircle
 10
26.6689692888704748
 20
71.3052425438401798
 30
0.0
 40
0.6000000000000139
100
AcDbArc
 50
70.0000000000007105
 51
159.9999999999988063
  0
ARC
  5
7F
100
AcDbEntity
  8
Middle
 62
256
370
-1
  6
ByLayer
100
AcDbCircle
 10
15.7999999999999901
 20
18.5999999999999517
 30
0.0
 40
0.5999999999999984
100
AcDbArc
 50
180.0
 51
270.0000000000007958
  0
ARC
  5
80
100
AcDbEntity
  8
Middle
 62
256
370
-1
  6
ByLayer
100
AcDbCircle
 10
15.8000000000000185
 20
21.3999999999999631
 30
0.0
 40
0.6000000000000006
100
AcDbArc
 50
90.0000000000017053
 51
180.0
  0
ARC
  5
81
100
AcDbEntity
  8
Middle
 62
256
370
-1
  6
ByLayer
100
AcDbCircle
 10
16.6000000000000298
 20
23.3999999999999915
 30
0.0
 40
0.6000000000000028
100
AcDbArc
 50
90.0
 51
180.0
  0
ARC
  5
82
100
AcDbEntity
  8
Middle
 62
256
370
-1
  6
ByLayer
100
AcDbCircle
 10
21.3999999999999844
 20
23.3999999999999488
 30
0.0
 40
0.6000000000000028
100
AcDbArc
 50
0.0
 51
89.9999999999991616
  0
ARC
  5
83
100
AcDbEntity
  8
Middle
 62
256
370
-1
  6
ByLayer
100
AcDbCircle
 10
22.1999999999999957
 20
21.3999999999999773
 30
0.0
 40
0.5999999999999939
100
AcDbArc
 50
0.0
 51
90.0
  0
ARC
  5
84
100
AcDbEntity
  8
Middle
 62
256
370
-1
  6
ByLayer
100
AcDbCircle
 10
22.2000000000000526
 20
18.5999999999999517
 30
0.0
 40
0.5999999999999984
100
AcDbArc
 50
269.9999999999992042
 51
0.0
  0
ARC
  5
85
100
AcDbEntity
  8
Middle
 62
256
370
-1
  6
ByLayer
100
AcDbCircle
 10
47.8000000000000043
 20
18.5999999999999517
 30
0.0
 40
0.5999999999999984
100
AcDbArc
 50
180.0
 51
270.0000000000017053
  0
ARC
  5
86
100
AcDbEntity
  8
Middle
 62
256
370
-1
  6
ByLayer
100
AcDbCircle
 10
47.8000000000000469
 20
21.3999999999999773
 30
0.0
 40
0.6000000000000006
100
AcDbArc
 50
90.0000000000017053
 51
180.0
  0
ARC
  5
87
100
AcDbEntity
  8
Middle
 62
256
370
-1
  6
ByLayer
100
AcDbCircle
 10
48.6000000000000298
 20
23.3999999999999986
 30
0.0
 40
0.6000000000000028
100
AcDbArc
 50
90.0
 51
180.0
  0
ARC
  5
88
100
AcDbEntity
  8
Middle
 62
256
370
-1
  6
ByLayer
100
AcDbCircle
 10
53.4000000000000128
 20
23.3999999999999346
 30
0.0
 40
0.6000000000000028
100
AcDbArc
 50
0.0
 51
89.9999999999983089
  0
ARC
  5
89
100
AcDbEntity
  8
Middle
 62
256
370
-1
  6
ByLayer
100
AcDbCircle
 10
54.2000000000000242
 20
21.3999999999999986
 30
0.0
 40
0.5999999999999939
100
AcDbArc
 50
0.0
 51
90.0
  0
ARC
  5
8A
100
AcDbEntity
  8
Middle
 62
256
370
-1
  6
ByLayer
100
AcDbCircle
 10
54.1999999999999673
 20
18.5999999999999233
 30
0.0
 40
0.5999999999999984
100
AcDbArc
 50
269.9999999999982947
 51
0.0
  0
ARC
  5
8B
100
AcDbEntity
  8
Middle
 62
256
370
-1
  6
ByLayer
100
AcDbCircle
 10
66.5119364101929875
 20
56.8035884668318261
 30
0.0
 40
0.5999999999999881
100
AcDbArc
 50
339.9999999999998863
 51
70.0000000000014353
  0
ARC
  5
8C
100
AcDbEntity
  8
Middle
 62
256
370
-1
  6
ByLayer
100
AcDbCircle
 10
65.5542800088810793
 20
54.1724491286312784
 30
0.0
 40
0.5999999999999842
100
AcDbArc
 50
249.9999999999978968
 51
340.0000000000001137
  0
ARC
  5
8D
100
AcDbEntity
  8
Middle
 62
256
370
-1
  6
ByLayer
100
AcDbCircle
 10
64.1184856256009823
 20
52.566680001719952
 30
0.0
 40
0.6000000000000063
100
AcDbArc
 50
250.0000000000003695
 51
339.9999999999996021
  0
ARC
  5
8E
100
AcDbEntity
  8
Middle
 62
256
370
-1
  6
ByLayer
100
AcDbCircle
 10
59.607961045828695
 20
54.208376689683206
 30
0.0
 40
0.5999999999999976
100
AcDbArc
 50
160.0000000000011937
 51
250.0000000000003695
  0
ARC
  5
8F
100
AcDbEntity
  8
Middle
 62
256
370
-1
  6
ByLayer
100
AcDbCircle
 10
59.5402472358513037
 20
56.3613780459155365
 30
0.0
 40
0.5999999999999954
100
AcDbArc
 50
159.9999999999990052
 51
250.0000000000001137
  0
ARC
  5
90
100
AcDbEntity
  8
Middle
 62
256
370
-1
  6
ByLayer
100
AcDbCircle
 10
60.497903637163212
 20
58.9925173841160913
 30
0.0
 40
0.6000000000000253
100
AcDbArc
 50
70.0000000000028848
 51
159.9999999999994031
  0
ARC
  5
91
100
AcDbEntity
  8
Middle
 62
256
370
-1
  6
ByLayer
100
AcDbCircle
 10
99.9999999999994031
 20
20.7486542739440694
 30
0.0
 40
89.9999999999993463
100
AcDbArc
 50
159.9999999999998863
 51
180.0
  0
ARC
  5
92
100
AcDbEntity
  8
Middle
 62
256
370
-1
  6
ByLayer
100
AcDbCircle
 10
149.9999999999997158
 20
11.9323052385213106
 30
0.0
 40
89.9999999999996447
100
AcDbArc
 50
159.9999999999998863
 51
180.0
  0
LINE
  5
93
100
AcDbEntity
100
AcDbLine
  8
Middle
 62
256
370
-1
  6
ByLayer
 10
72.3401013151287771
 20
61.7058832193812634
 30
0.0
 11
65.4276641292681802
 21
42.7141181378308232
 31
0.0
  0
LINE
  5
94
100
AcDbEntity
100
AcDbLine
  8
Middle
 62
256
370
-1
  6
ByLayer
 10
40.0789378766322457
 20
59.6136753916042252
 30
0.0
 11
25.9193039429495755
 21
20.7104008910676605
 31
0.0
  0
LINE
  5
95
100
AcDbEntity
100
AcDbLine
  8
Middle
 62
256
370
-1
  6
ByLayer
 10
40.0789378766322457
 20
59.6136753916042252
 30
0.0
 11
36.79001370388157
 21
60.8107458932440892
 31
0.0
  0
LINE
  5
96
100
AcDbEntity
100
AcDbLine
  8
Middle
 62
256
370
-1
  6
ByLayer
 10
36.79001370388157
 20
60.8107458932440892
 30
0.0
 11
41.2362755671152641
 21
73.0267499634608868
 31
0.0
  0
LINE
  5
97
100
AcDbEntity
100
AcDbLine
  8
Middle
 62
256
370
-1
  6
ByLayer
 10
48.7241099878626258
 20
56.4670900730080874
 30
0.0
 11
52.0130341606132802
 21
55.2700195713682518
 31
0.0
  0
LINE
  5
98
100
AcDbEntity
100
AcDbLine
  8
Middle
 62
256
370
-1
  6
ByLayer
 10
52.0130341606132802
 20
55.2700195713682518
 30
0.0
 11
56.4592960238469814
 21
67.4860236415850636
 31
0.0
  0
LINE
  5
99
100
AcDbEntity
100
AcDbLine
  8
Middle
 62
256
370
-1
  6
ByLayer
 10
10.0
 20
10.0
 30
0.0
 11
59.9999999999999787
 21
9.9999999999999876
 31
0.0
  0
LINE
  5
9A
100
AcDbEntity
100
AcDbLine
  8
Middle
 62
256
370
-1
  6
ByLayer
 10
54.1999999999999531
 20
17.9999999999999645
 30
0.0
 11
48.0000000000000355
 21
17.9999999999999787
 31
0.0
  0
LINE
  5
9B
100
AcDbEntity
100
AcDbLine
  8
Middle
 62
256
370
-1
  6
ByLayer
 10
22.200000000000081
 20
17.9999999999999787
 30
0.0
 11
15.7999999999999901
 21
17.9999999999999929
 31
0.0
  0
LINE
  5
9C
100
AcDbEntity
100
AcDbLine
  8
Middle
 62
256
370
-1
  6
ByLayer
 10
25.35547027583344
 20
78.8068903856647012
 30
0.0
 11
41.2362755671152641
 21
73.0267499634608868
 31
0.0
  0
LINE
  5
9D
100
AcDbEntity
100
AcDbLine
  8
Middle
 62
256
370
-1
  6
ByLayer
 10
56.4592960238469814
 20
67.4860236415850636
 30
0.0
 11
72.3401013151287771
 21
61.7058832193812634
 31
0.0
  0
LINE
  5
9E
100
AcDbEntity
100
AcDbLine
  8
Middle
 62
256
370
-1
  6
ByLayer
 10
66.5292099720311967
 20
57.4358080679685017
 30
0.0
 11
60.8910542473158003
 21
59.4879289279225176
 31
0.0
  0
LINE
  5
9F
100
AcDbEntity
100
AcDbLine
  8
Middle
 62
256
370
-1
  6
ByLayer
 10
32.7002756237384915
 20
69.7485332276925618
 30
0.0
 11
27.0621198990230312
 21
71.8006540876465778
 31
0.0
  0
MTEXT
  5
A0
100
AcDbEntity
100
AcDbMText
  8
Middle Text
 62
256
370
-1
  6
ByLayer
 10
19.2988517093082024
 20
52.6842340805068972
 30
0.0
 40
2.0
 41
100.0
 71
1
 72
2
  1
Main\~Plate\PMiddle
  7
standard
 50
0.0
 73
0
 44
1.0
  0
LINE
  5
A1
100
AcDbEntity
100
AcDbLine
  8
Middle
 62
256
370
-1
  6
ByLayer
 10
48.6000000000000298
 20
23.9999999999999929
 30
0.0
 11
53.400000000000027
 21
23.9999999999999361
 31
0.0
  0
LINE
  5
A2
100
AcDbEntity
100
AcDbLine
  8
Middle
 62
256
370
-1
  6
ByLayer
 10
46.4722431864337366
 20
38.5499999999995993
 30
0.0
 11
47.9444863728672672
 21
35.9999999999996021
 31
0.0
  0
LINE
  5
A3
100
AcDbEntity
100
AcDbLine
  8
Middle
 62
256
370
-1
  6
ByLayer
 10
47.9444863728672672
 20
35.9999999999996021
 30
0.0
 11
46.4722431864337366
 21
33.449999999999612
 31
0.0
  0
LINE
  5
A4
100
AcDbEntity
100
AcDbLine
  8
Middle
 62
256
370
-1
  6
ByLayer
 10
46.4722431864337366
 20
33.449999999999612
 30
0.0
 11
43.5277568135666186
 21
33.4499999999995836
 31
0.0
  0
LINE
  5
A5
100
AcDbEntity
100
AcDbLine
  8
Middle
 62
256
370
-1
  6
ByLayer
 10
43.5277568135666186
 20
33.4499999999995836
 30
0.0
 11
42.0555136271330596
 21
35.9999999999995879
 31
0.0
  0
LINE
  5
A6
100
AcDbEntity
100
AcDbLine
  8
Middle
 62
256
370
-1
  6
ByLayer
 10
42.0555136271330596
 20
35.9999999999995879
 30
0.0
 11
43.5277568135666186
 21
38.5499999999995993
 31
0.0
  0
LINE
  5
A7
100
AcDbEntity
100
AcDbLine
  8
Middle
 62
256
370
-1
  6
ByLayer
 10
43.5277568135666186
 20
38.5499999999995993
 30
0.0
 11
46.4722431864337366
 21
38.5499999999995993
 31
0.0
  0
LINE
  5
A8
100
AcDbEntity
100
AcDbLine
  8
Middle
 62
256
370
-1
  6
ByLayer
 10
54.4722431864337509
 20
38.5499999999994714
 30
0.0
 11
55.9444863728672814
 21
35.9999999999994813
 31
0.0
  0
LINE
  5
A9
100
AcDbEntity
100
AcDbLine
  8
Middle
 62
256
370
-1
  6
ByLayer
 10
55.9444863728672814
 20
35.9999999999994813
 30
0.0
 11
54.4722431864337509
 21
33.449999999999477
 31
0.0
  0
LINE
  5
AA
100
AcDbEntity
100
AcDbLine
  8
Middle
 62
256
370
-1
  6
ByLayer
 10
54.4722431864337509
 20
33.449999999999477
 30
0.0
 11
51.5277568135666328
 21
33.4499999999994628
 31
0.0
  0
LINE
  5
AB
100
AcDbEntity
100
AcDbLine
  8
Middle
 62
256
370
-1
  6
ByLayer
 10
51.5277568135666328
 20
33.4499999999994628
 30
0.0
 11
50.0555136271330738
 21
35.9999999999994529
 31
0.0
  0
LINE
  5
AC
100
AcDbEntity
100
AcDbLine
  8
Middle
 62
256
370
-1
  6
ByLayer
 10
50.0555136271330738
 20
35.9999999999994529
 30
0.0
 11
51.5277568135666328
 21
38.5499999999994714
 31
0.0
  0
LINE
  5
AD
100
AcDbEntity
100
AcDbLine
  8
Middle
 62
256
370
-1
  6
ByLayer
 10
51.5277568135666328
 20
38.5499999999994714
 30
0.0
 11
54.4722431864337509
 21
38.5499999999994714
 31
0.0
  0
LINE
  5
AE
100
AcDbEntity
100
AcDbLine
  8
Middle
 62
256
370
-1
  6
ByLayer
 10
46.4722431864335519
 20
27.5499999999996028
 30
0.0
 11
47.9444863728670825
 21
24.9999999999996021
 31
0.0
  0
LINE
  5
AF
100
AcDbEntity
100
AcDbLine
  8
Middle
 62
256
370
-1
  6
ByLayer
 10
47.9444863728670825
 20
24.9999999999996021
 30
0.0
 11
46.4722431864335519
 21
22.4499999999996049
 31
0.0
  0
LINE
  5
B0
100
AcDbEntity
100
AcDbLine
  8
Middle
 62
256
370
-1
  6
ByLayer
 10
46.4722431864335519
 20
22.4499999999996049
 30
0.0
 11
43.5277568135664339
 21
22.4499999999995765
 31
0.0
  0
LINE
  5
B1
100
AcDbEntity
100
AcDbLine
  8
Middle
 62
256
370
-1
  6
ByLayer
 10
43.5277568135664339
 20
22.4499999999995765
 30
0.0
 11
42.0555136271328749
 21
24.9999999999995914
 31
0.0
  0
LINE
  5
B2
100
AcDbEntity
100
AcDbLine
  8
Middle
 62
256
370
-1
  6
ByLayer
 10
42.0555136271328749
 20
24.9999999999995914
 30
0.0
 11
43.5277568135664339
 21
27.5499999999995993
 31
0.0
  0
LINE
  5
B3
100
AcDbEntity
100
AcDbLine
  8
Middle
 62
256
370
-1
  6
ByLayer
 10
43.5277568135664339
 20
27.5499999999995993
 30
0.0
 11
46.4722431864335519
 21
27.5499999999996028
 31
0.0
  0
CIRCLE
  5
B4
100
AcDbEntity
100
AcDbCircle
  8
Middle
 62
256
370
-1
  6
ByLayer
 10
52.9999999999999787
 20
24.9999999999994458
 30
0.0
 40
1.5
  0
LINE
  5
B5
100
AcDbEntity
100
AcDbLine
  8
Middle
 62
256
370
-1
  6
ByLayer
 10
48.7241099878626258
 20
56.4670900730080874
 30
0.0
 11
34.5644760541798988
 21
17.5638155724714942
 31
0.0
  0
LINE
  5
B6
100
AcDbEntity
100
AcDbLine
  8
retainer
 62
256
370
-1
  6
ByLayer
 10
120.0
 20
11.932305238521268
 30
0.0
 11
119.9999999999999716
 21
9.9999999999999876
 31
0.0
  0
LINE
  5
B7
100
AcDbEntity
100
AcDbLine
  8
retainer
 62
256
370
-1
  6
ByLayer
 10
75.4276641292682939
 20
51.5304671732541095
 30
0.0
 11
85.3554702758334543
 21
78.8068903856647296
 31
0.0
  0
LINE
  5
B8
100
AcDbEntity
100
AcDbLine
  8
retainer
 62
256
370
-1
  6
ByLayer
 10
70.0
 20
10.0
 30
0.0
 11
70.0000000000000568
 21
20.7486542739439273
 31
0.0
  0
LINE
  5
B9
100
AcDbEntity
100
AcDbLine
  8
retainer
 62
256
370
-1
  6
ByLayer
 10
132.3401013151288055
 20
61.7058832193813132
 30
0.0
 11
125.4276641292682086
 21
42.7141181378308303
 31
0.0
  0
ARC
  5
BA
100
AcDbEntity
  8
retainer
 62
256
370
-1
  6
ByLayer
100
AcDbCircle
 10
159.9999999999994316
 20
20.7486542739440765
 30
0.0
 40
89.9999999999993463
100
AcDbArc
 50
159.9999999999998863
 51
180.0
  0
ARC
  5
BB
100
AcDbEntity
  8
retainer
 62
256
370
-1
  6
ByLayer
100
AcDbCircle
 10
209.9999999999997726
 20
11.9323052385213106
 30
0.0
 40
89.9999999999996447
100
AcDbArc
 50
159.9999999999998863
 51
180.0
  0
LINE
  5
BC
100
AcDbEntity
100
AcDbLine
  8
retainer
 62
256
370
-1
  6
ByLayer
 10
120.0
 20
9.9999999999999876
 30
0.0
 11
70.0
 21
10.0
 31
0.0
  0
LINE
  5
BD
100
AcDbEntity
100
AcDbLine
  8
retainer
 62
256
370
-1
  6
ByLayer
 10
120.0000000000001137
 20
11.932305238520696
 30
0.0
 11
120.0
 21
9.9999999999999876
 31
0.0
  0
LINE
  5
BE
100
AcDbEntity
100
AcDbLine
  8
retainer
 62
256
370
-1
  6
ByLayer
 10
85.3554702758334543
 20
78.8068903856647296
 30
0.0
 11
132.3401013151288055
 21
61.7058832193813132
 31
0.0
  0
CIRCLE
  5
BF
100
AcDbEntity
100
AcDbCircle
  8
retainer
 62
256
370
-1
  6
ByLayer
 10
89.6220943338074676
 20
61.2912996406194139
 30
0.0
 40
1.45
  0
CIRCLE
  5
C0
100
AcDbEntity
100
AcDbCircle
  8
retainer
 62
256
370
-1
  6
ByLayer
 10
117.8128729573847409
 20
51.0306953408493413
 30
0.0
 40
1.45
  0
CIRCLE
  5
C1
100
AcDbEntity
100
AcDbCircle
  8
retainer
 62
256
370
-1
  6
ByLayer
 10
102.9999999999999432
 20
16.9999999999999751
 30
0.0
 40
1.45
  0
CIRCLE
  5
C2
100
AcDbEntity
100
AcDbCircle
  8
retainer
 62
256
370
-1
  6
ByLayer
 10
87.0
 20
17.0000000000000107
 30
0.0
 40
1.45
  0
CIRCLE
  5
C3
100
AcDbEntity
100
AcDbCircle
  8
retainer
 62
256
370
-1
  6
ByLayer
 10
87.0000000000000284
 20
38.9999999999999858
 30
0.0
 40
1.45
  0
CIRCLE
  5
C4
100
AcDbEntity
100
AcDbCircle
  8
retainer
 62
256
370
-1
  6
ByLayer
 10
105.0000000000001421
 20
35.9999999999995595
 30
0.0
 40
1.6000000000000001
  0
CIRCLE
  5
C5
100
AcDbEntity
100
AcDbCircle
  8
retainer
 62
256
370
-1
  6
ByLayer
 10
113.0000000000001705
 20
35.99999999999946
 30
0.0
 40
1.6000000000000001
  0
CIRCLE
  5
C6
100
AcDbEntity
100
AcDbCircle
  8
retainer
 62
256
370
-1
  6
ByLayer
 10
112.9999999999999716
 20
24.9999999999994458
 30
0.0
 40
1.6000000000000001
  0
CIRCLE
  5
C7
100
AcDbEntity
100
AcDbCircle
  8
retainer
 62
256
370
-1
  6
ByLayer
 10
104.9999999999999716
 20
24.9999999999995879
 30
0.0
 40
1.6000000000000001
  0
MTEXT
  5
C8
100
AcDbEntity
100
AcDbMText
  8
Text
 62
256
370
-1
  6
ByLayer
 10
86.5507280481622985
 20
29.1921277348129422
 30
0.0
 40
3.0
 41
100.0
 71
5
 72
2
  1
Retainer\PPlate
  7
standard
 50
0.0
 73
1
 44
1.0
  0
LINE
  5
C9
100
AcDbEntity
100
AcDbLine
  8
Bottom Layer
 62
256
370
-1
  6
ByLayer
 10
142.8446142014412032
 20
52.1844867144803857
 30
0.0
 11
148.0895728328075336
 21
37.7740813088282152
 31
0.0
  0
CIRCLE
  5
CA
100
AcDbEntity
100
AcDbCircle
  8
Bottom Layer
 62
256
370
-1
  6
ByLayer
 10
185.3401013151286918
 20
37.2941167806191487
 30
0.0
 40
1.424999999999996
  0
CIRCLE
  5
CB
100
AcDbEntity
100
AcDbCircle
  8
Bottom Layer
 62
256
370
-1
  6
ByLayer
 10
169.3401013151290044
 20
15.294116780619035
 30
0.0
 40
1.424999999999996
  0
CIRCLE
  5
CC
100
AcDbEntity
100
AcDbCircle
  8
Bottom Layer
 62
256
370
-1
  6
ByLayer
 10
185.3401013151288623
 20
15.2941167806191416
 30
0.0
 40
1.424999999999996
  0
CIRCLE
  5
CD
100
AcDbEntity
100
AcDbCircle
  8
Bottom Layer
 62
256
370
-1
  6
ByLayer
 10
154.5272283577441215
 20
49.3248121214682556
 30
0.0
 40
1.424999999999996
  0
CIRCLE
  5
CE
100
AcDbEntity
100
AcDbCircle
  8
Bottom Layer
 62
256
370
-1
  6
ByLayer
 10
182.7180069813211674
 20
59.58541642123825
 30
0.0
 40
1.424999999999996
  0
LINE
  5
CF
100
AcDbEntity
100
AcDbLine
  8
Bottom Layer
 62
256
370
-1
  6
ByLayer
 10
175.7401013151285269
 20
73.0083330483654578
 30
0.0
 11
178.9401013151285724
 21
74.1730377980173898
 31
0.0
  0
LINE
  5
D0
100
AcDbEntity
100
AcDbLine
  8
Bottom Layer
 62
256
370
-1
  6
ByLayer
 10
146.912437185860739
 20
41.0082349184497161
 30
0.0
 11
140.0
 21
60.0
 31
0.0
  0
LINE
  5
D1
100
AcDbEntity
100
AcDbLine
  8
Bottom Layer
 62
256
370
-1
  6
ByLayer
 10
152.3401013151292034
 20
8.2941167806193192
 30
0.0
 11
152.3401013151292034
 21
10.2264220191397044
 31
0.0
  0
LINE
  5
D2
100
AcDbEntity
100
AcDbLine
  8
Bottom Layer
 62
256
370
-1
  6
ByLayer
 10
145.6229528189405187
 20
55.6615208199222025
 30
0.0
 11
151.6369855919702445
 21
57.8504497372065245
 31
0.0
  0
LINE
  5
D3
100
AcDbEntity
100
AcDbLine
  8
Bottom Layer
 62
256
370
-1
  6
ByLayer
 10
152.4060132504370699
 20
57.4918462507303545
 30
0.0
 11
153.3636696517491487
 21
54.8607069125298921
 31
0.0
  0
LINE
  5
D4
100
AcDbEntity
100
AcDbLine
  8
Bottom Layer
 62
256
370
-1
  6
ByLayer
 10
153.0050661652729502
 20
54.0916792540629103
 30
0.0
 11
146.991033392243196
 21
51.9027503367784675
 31
0.0
  0
LINE
  5
D5
100
AcDbEntity
100
AcDbLine
  8
Bottom Layer
 62
256
370
-1
  6
ByLayer
 10
146.2220057337762569
 20
52.2613538232547441
 30
0.0
 11
145.2643493324642918
 21
54.8924931614550928
 31
0.0
  0
LINE
  5
D6
100
AcDbEntity
100
AcDbLine
  8
Bottom Layer
 62
256
370
-1
  6
ByLayer
 10
165.1401013151289874
 20
19.6941167806190762
 30
0.0
 11
165.1401013151291295
 21
16.894116780619072
 31
0.0
  0
LINE
  5
D7
100
AcDbEntity
100
AcDbLine
  8
Bottom Layer
 62
256
370
-1
  6
ByLayer
 10
164.5401013151291068
 20
16.2941167806189782
 30
0.0
 11
158.1401013151290726
 21
16.2941167806189284
 31
0.0
  0
LINE
  5
D8
100
AcDbEntity
100
AcDbLine
  8
Bottom Layer
 62
256
370
-1
  6
ByLayer
 10
157.5401013151291068
 20
16.8941167806189512
 30
0.0
 11
157.5401013151290215
 21
19.6941167806190265
 31
0.0
  0
LINE
  5
D9
100
AcDbEntity
100
AcDbLine
  8
Bottom Layer
 62
256
370
-1
  6
ByLayer
 10
158.1401013151289874
 20
20.2941167806189213
 30
0.0
 11
164.5401013151289931
 21
20.2941167806189426
 31
0.0
  0
LINE
  5
DA
100
AcDbEntity
100
AcDbLine
  8
Bottom Layer
 62
256
370
-1
  6
ByLayer
 10
202.3401013151287771
 20
19.0427710545632749
 30
0.0
 11
202.3401013151288907
 21
8.2941167806193405
 31
0.0
  0
LINE
  5
DB
100
AcDbEntity
100
AcDbLine
  8
Bottom Layer
 62
256
370
-1
  6
ByLayer
 10
186.9846310392950102
 20
77.1010071662837504
 30
0.0
 11
196.9124371858603411
 21
49.8245839538733364
 31
0.0
  0
LINE
  5
DC
100
AcDbEntity
100
AcDbLine
  8
Bottom Layer
 62
256
370
-1
  6
ByLayer
 10
178.9401013151285724
 20
74.1730377980173898
 30
0.0
 11
186.9846310392950102
 21
77.1010071662837504
 31
0.0
  0
LINE
  5
DD
100
AcDbEntity
100
AcDbLine
  8
Bottom Layer
 62
256
370
-1
  6
ByLayer
 10
196.540101315128851
 20
16.2941167806193405
 30
0.0
 11
190.1401013151289021
 21
16.2941167806192695
 31
0.0
  0
LINE
  5
DE
100
AcDbEntity
100
AcDbLine
  8
Bottom Layer
 62
256
370
-1
  6
ByLayer
 10
189.540101315128851
 20
16.8941167806192141
 30
0.0
 11
189.5401013151288225
 21
19.6941167806192325
 31
0.0
  0
LINE
  5
DF
100
AcDbEntity
100
AcDbLine
  8
Bottom Layer
 62
256
370
-1
  6
ByLayer
 10
190.1401013151288453
 20
20.2941167806192482
 30
0.0
 11
196.5401013151288225
 21
20.2941167806192624
 31
0.0
  0
LINE
  5
E0
100
AcDbEntity
100
AcDbLine
  8
Bottom Layer
 62
256
370
-1
  6
ByLayer
 10
197.1401013151288169
 20
19.6941167806192468
 30
0.0
 11
197.1401013151288169
 21
16.8941167806193278
 31
0.0
  0
LINE
  5
E1
100
AcDbEntity
100
AcDbLine
  8
Bottom Layer
 62
256
370
-1
  6
ByLayer
 10
180.050940082068621
 20
64.5740789829790032
 30
0.0
 11
179.0932836807567696
 21
67.2052183211795864
 31
0.0
  0
LINE
  5
E2
100
AcDbEntity
100
AcDbLine
  8
Bottom Layer
 62
256
370
-1
  6
ByLayer
 10
179.4518871672329965
 20
67.9742459796465823
 30
0.0
 11
185.4659199402626655
 21
70.1631748969308404
 31
0.0
  0
LINE
  5
E3
100
AcDbEntity
100
AcDbLine
  8
Bottom Layer
 62
256
370
-1
  6
ByLayer
 10
186.234947598729633
 20
69.8045714104546704
 30
0.0
 11
187.1926040000415128
 21
67.1734320722542009
 31
0.0
  0
LINE
  5
E4
100
AcDbEntity
100
AcDbLine
  8
Bottom Layer
 62
256
370
-1
  6
ByLayer
 10
186.8340005135652859
 20
66.4044044137872476
 30
0.0
 11
180.8199677405356169
 21
64.2154754965029468
 31
0.0
  0
ARC
  5
E5
100
AcDbEntity
  8
Bottom Layer
 62
256
370
-1
  6
ByLayer
100
AcDbCircle
 10
151.8421976779656006
 20
57.2866341647350055
 30
0.0
 40
0.5999999999999791
100
AcDbArc
 50
20.0000000000006892
 51
110.0000000000033396
  0
ARC
  5
E6
100
AcDbEntity
  8
Bottom Layer
 62
256
370
-1
  6
ByLayer
100
AcDbCircle
 10
152.7998540792775088
 20
54.6554948265343157
 30
0.0
 40
0.599999999999983
100
AcDbArc
 50
290.0000000000000568
 51
20.0000000000032863
  0
ARC
  5
E7
100
AcDbEntity
  8
Bottom Layer
 62
256
370
-1
  6
ByLayer
100
AcDbCircle
 10
146.7858213062478114
 20
52.4665659092499936
 30
0.0
 40
0.599999999999974
100
AcDbArc
 50
199.9999999999969873
 51
290.0000000000000568
  0
ARC
  5
E8
100
AcDbEntity
  8
Bottom Layer
 62
256
370
-1
  6
ByLayer
100
AcDbCircle
 10
145.8281649049359032
 20
55.0977052474506763
 30
0.0
 40
0.600000000000009
100
AcDbArc
 50
110.0000000000018048
 51
199.9999999999990621
  0
ARC
  5
E9
100
AcDbEntity
  8
Bottom Layer
 62
256
370
-1
  6
ByLayer
100
AcDbCircle
 10
164.5401013151291068
 20
16.8941167806191217
 30
0.0
 40
0.599999999999999
100
AcDbArc
 50
270.0
 51
360.0
  0
ARC
  5
EA
100
AcDbEntity
  8
Bottom Layer
 62
256
370
-1
  6
ByLayer
100
AcDbCircle
 10
158.1401013151291011
 20
16.8941167806189583
 30
0.0
 40
0.5999999999999968
100
AcDbArc
 50
180.0
 51
270.0
  0
ARC
  5
EB
100
AcDbEntity
  8
Bottom Layer
 62
256
370
-1
  6
ByLayer
100
AcDbCircle
 10
158.140101315128959
 20
19.6941167806189625
 30
0.0
 40
0.6000000000000034
100
AcDbArc
 50
90.0000000000017337
 51
180.0
  0
ARC
  5
EC
100
AcDbEntity
  8
Bottom Layer
 62
256
370
-1
  6
ByLayer
100
AcDbCircle
 10
164.5401013151289646
 20
19.6941167806190691
 30
0.0
 40
0.6000000000000013
100
AcDbArc
 50
360.0
 51
89.9999999999983231
  0
ARC
  5
ED
100
AcDbEntity
  8
Bottom Layer
 62
256
370
-1
  6
ByLayer
100
AcDbCircle
 10
190.1401013151288737
 20
16.8941167806192141
 30
0.0
 40
0.5999999999999968
100
AcDbArc
 50
180.0
 51
270.0
  0
ARC
  5
EE
100
AcDbEntity
  8
Bottom Layer
 62
256
370
-1
  6
ByLayer
100
AcDbCircle
 10
190.1401013151288737
 20
19.6941167806192468
 30
0.0
 40
0.6000000000000034
100
AcDbArc
 50
90.0000000000017337
 51
180.0
  0
ARC
  5
EF
100
AcDbEntity
  8
Bottom Layer
 62
256
370
-1
  6
ByLayer
100
AcDbCircle
 10
196.5401013151288225
 20
19.6941167806192539
 30
0.0
 40
0.599999999999999
100
AcDbArc
 50
360.0
 51
89.9999999999983231
  0
ARC
  5
F0
100
AcDbEntity
  8
Bottom Layer
 62
256
370
-1
  6
ByLayer
100
AcDbCircle
 10
196.5401013151288794
 20
16.8941167806193633
 30
0.0
 40
0.599999999999999
100
AcDbArc
 50
270.0
 51
360.0
  0
ARC
  5
F1
100
AcDbEntity
  8
Bottom Layer
 62
256
370
-1
  6
ByLayer
100
AcDbCircle
 10
179.6570992532282958
 20
67.4104304071750136
 30
0.0
 40
0.5999999999999952
100
AcDbArc
 50
110.0000000000002842
 51
200.0000000000001705
  0
ARC
  5
F2
100
AcDbEntity
  8
Bottom Layer
 62
256
370
-1
  6
ByLayer
100
AcDbCircle
 10
185.6711320262581921
 20
69.5993593244593285
 30
0.0
 40
0.5999999999999801
100
AcDbArc
 50
20.0000000000001812
 51
110.0000000000018048
  0
ARC
  5
F3
100
AcDbEntity
  8
Bottom Layer
 62
256
370
-1
  6
ByLayer
100
AcDbCircle
 10
186.6287884275699014
 20
66.9682199862587737
 30
0.0
 40
0.5999999999999871
100
AcDbArc
 50
290.0000000000000568
 51
20.0000000000001812
  0
ARC
  5
F4
100
AcDbEntity
  8
Bottom Layer
 62
256
370
-1
  6
ByLayer
100
AcDbCircle
 10
180.6147556545402608
 20
64.7792910689743735
 30
0.0
 40
0.5999999999999908
100
AcDbArc
 50
200.0000000000001421
 51
290.000000000001819
  0
ARC
  5
F5
100
AcDbEntity
  8
Bottom Layer
 62
256
370
-1
  6
ByLayer
100
AcDbCircle
 10
62.3401013151298997
 20
10.2264220191384183
 30
0.0
 40
89.9999999999994458
100
AcDbArc
 50
360.0
 51
20.0000000000005862
  0
ARC
  5
F6
100
AcDbEntity
  8
Bottom Layer
 62
256
370
-1
  6
ByLayer
100
AcDbCircle
 10
112.3401013151301129
 20
19.0427710545624791
 30
0.0
 40
89.9999999999989058
100
AcDbArc
 50
360.0
 51
20.0000000000006892
  0
LINE
  5
F7
100
AcDbEntity
100
AcDbLine
  8
Bottom Layer
 62
256
370
-1
  6
ByLayer
 10
202.3401013151288907
 20
8.2941167806193405
 30
0.0
 11
152.3401013151292034
 21
8.2941167806193192
 31
0.0
  0
LINE
  5
F8
100
AcDbEntity
100
AcDbLine
  8
Bottom Layer
 62
256
370
-1
  6
ByLayer
 10
140.0
 20
60.0
 30
0.0
 11
155.8808052912817743
 21
65.780140422204056
 31
0.0
  0
LINE
  5
F9
100
AcDbEntity
100
AcDbLine
  8
Bottom Layer
 62
256
370
-1
  6
ByLayer
 10
160.3270671545153903
 20
53.5641363519871803
 30
0.0
 11
155.8808052912817743
 21
65.780140422204056
 31
0.0
  0
LINE
  5
FA
100
AcDbEntity
100
AcDbLine
  8
Bottom Layer
 62
256
370
-1
  6
ByLayer
 10
175.5500876112470792
 20
59.1048626738630958
 30
0.0
 11
160.3270671545153903
 21
53.5641363519871803
 31
0.0
  0
LINE
  5
FB
100
AcDbEntity
100
AcDbLine
  8
Bottom Layer
 62
256
370
-1
  6
ByLayer
 10
171.1038257480134348
 20
71.3208667440799928
 30
0.0
 11
175.7401013151285269
 21
73.0083330483654578
 31
0.0
  0
LINE
  5
FC
100
AcDbEntity
100
AcDbLine
  8
Bottom Layer
 62
256
370
-1
  6
ByLayer
 10
175.5500876112470792
 20
59.1048626738630958
 30
0.0
 11
171.1038257480134348
 21
71.3208667440799928
 31
0.0
  0
LINE
  5
FD
100
AcDbEntity
100
AcDbLine
  8
Bottom Layer
 62
256
370
-1
  6
ByLayer
 10
174.8401013151286634
 20
39.7941167806190776
 30
0.0
 11
181.8401013151286634
 21
39.7941167806191771
 31
0.0
  0
LINE
  5
FE
100
AcDbEntity
100
AcDbLine
  8
Bottom Layer
 62
256
370
-1
  6
ByLayer
 10
181.840101315128976
 20
17.7941167806191842
 30
0.0
 11
181.8401013151286634
 21
39.7941167806191771
 31
0.0
  0
LINE
  5
FF
100
AcDbEntity
100
AcDbLine
  8
Bottom Layer
 62
256
370
-1
  6
ByLayer
 10
174.840101315128976
 20
17.7941167806190563
 30
0.0
 11
174.8401013151286634
 21
39.7941167806190776
 31
0.0
  0
LINE
  5
100
100
AcDbEntity
100
AcDbLine
  8
Bottom Layer
 62
256
370
-1
  6
ByLayer
 10
174.840101315128976
 20
17.7941167806190563
 30
0.0
 11
181.840101315128976
 21
17.7941167806191842
 31
0.0
  0
MTEXT
  5
101
100
AcDbEntity
100
AcDbMText
  8
Bottom Text
 62
256
370
-1
  6
ByLayer
 10
153.0
 20
44.0
 30
0.0
 40
2.0
 41
100.0
 71
1
 72
2
  1
Top\~Plate\PBottom
  7
standard
 50
0.0
 73
1
 44
1.0
  0
CIRCLE
  5
102
100
AcDbEntity
100
AcDbCircle
  8
Bottom Layer
 62
256
370
-1
  6
ByLayer
 10
159.3401013151287486
 20
34.2941167806188218
 30
0.0
 40
1.424999999999996
  0
CIRCLE
  5
103
100
AcDbEntity
100
AcDbCircle
  8
Bottom Layer
 62
256
370
-1
  6
ByLayer
 10
159.3401013151288907
 20
23.2941167806188147
 30
0.0
 40
1.424999999999996
  0
CIRCLE
  5
104
100
AcDbEntity
100
AcDbCircle
  8
Bottom Layer
 62
256
370
-1
  6
ByLayer
 10
167.3401013151287486
 20
34.2941167806189355
 30
0.0
 40
1.424999999999996
  0
CIRCLE
  5
105
100
AcDbEntity
100
AcDbCircle
  8
Bottom Layer
 62
256
370
-1
  6
ByLayer
 10
167.3401013151288907
 20
23.2941167806189355
 30
0.0
 40
1.424999999999996
  0
ENDSEC
  0
SECTION
  2
OBJECTS
  0
DICTIONARY
  5
C
100
AcDbDictionary
280
0
281
1
  3
ACAD_GROUP
350
D
  3
ACAD_LAYOUT
350
1A
  3
ACAD_MLINESTYLE
350
17
  3
ACAD_PLOTSETTINGS
350
19
  3
ACAD_PLOTSTYLENAME
350
E
  3
AcDbVariableDictionary
350
106
  0
DICTIONARY
  5
D
100
AcDbDictionary
280
0
281
1
  0
ACDBDICTIONARYWDFLT
  5
E
100
AcDbDictionary
281
1
  3
Normal
350
F
100
AcDbDictionaryWithDefault
340
F
  0
ACDBPLACEHOLDER
  5
F
  0
DICTIONARY
  5
17
100
AcDbDictionary
280
0
281
1
  3
Standard
350
18
  0
MLINESTYLE
  5
18
100
AcDbMlineStyle
  2
STANDARD
 70
0
  3

 62
256
 51
90.0
 52
90.0
 71
2
 49
0.5
 62
256
  6
BYLAYER
 49
-0.5
 62
256
  6
BYLAYER
  0
DICTIONARY
  5
19
100
AcDbDictionary
280
0
281
1
  0
DICTIONARY
  5
1A
100
AcDbDictionary
281
1
  3
Layout1
350
1E
  3
Layout2
350
26
  3
Model
350
22
  0
LAYOUT
  5
1E
100
AcDbPlotSettings
  1

  2
C:\Program Files\AutoCAD 2002\plotters\DWF ePlot (optimized for plotting).pc3
  4

  6

 40
0.0
 41
0.0
 42
0.0
 43
0.0
 44
0.0
 45
0.0
 46
0.0
 47
0.0
 48
0.0
 49
0.0
140
0.0
141
0.0
142
1.0
143
1.0
 70
688
 72
0
 73
0
 74
5
  7

 75
16
147
1.0
148
0.0
149
0.0
100
AcDbLayout
  1
Layout1
 70
1
 71
1
 10
0.0
 20
0.0
 11
420.0
 21
297.0
 12
0.0
 22
0.0
 32
0.0
 14
100000000000000000000.0
 24
100000000000000000000.0
 34
100000000000000000000.0
 15
-100000000000000000000.0
 25
-100000000000000000000.0
 35
-100000000000000000000.0
146
0.0
 13
0.0
 23
0.0
 33
0.0
 16
1.0
 26
0.0
 36
0.0
 17
0.0
 27
1.0
 37
0.0
 76
0
330
1B
  0
LAYOUT
  5
22
100
AcDbPlotSettings
  1

  2
C:\Program Files\AutoCAD 2002\plotters\DWF ePlot (optimized for plotting).pc3
  4

  6

 40
0.0
 41
0.0
 42
0.0
 43
0.0
 44
0.0
 45
0.0
 46
0.0
 47
0.0
 48
0.0
 49
0.0
140
0.0
141
0.0
142
1.0
143
1.0
 70
1712
 72
0
 73
0
 74
0
  7

 75
0
147
1.0
148
0.0
149
0.0
100
AcDbLayout
  1
Model
 70
1
 71
0
 10
0.0
 20
0.0
 11
12.0
 21
9.0
 12
0.0
 22
0.0
 32
0.0
 14
0.0
 24
0.0
 34
0.0
 15
0.0
 25
0.0
 35
0.0
146
0.0
 13
0.0
 23
0.0
 33
0.0
 16
1.0
 26
0.0
 36
0.0
 17
0.0
 27
1.0
 37
0.0
 76
0
330
1F
  0
LAYOUT
  5
26
100
AcDbPlotSettings
  1

  2
C:\Program Files\AutoCAD 2002\plotters\DWF ePlot (optimized for plotting).pc3
  4

  6

 40
0.0
 41
0.0
 42
0.0
 43
0.0
 44
0.0
 45
0.0
 46
0.0
 47
0.0
 48
0.0
 49
0.0
140
0.0
141
0.0
142
1.0
143
1.0
 70
688
 72
0
 73
0
 74
5
  7

 75
16
147
1.0
148
0.0
149
0.0
100
AcDbLayout
  1
Layout2
 70
1
 71
2
 10
0.0
 20
0.0
 11
12.0
 21
9.0
 12
0.0
 22
0.0
 32
0.0
 14
0.0
 24
0.0
 34
0.0
 15
0.0
 25
0.0
 35
0.0
146
0.0
 13
0.0
 23
0.0
 33
0.0
 16
1.0
 26
0.0
 36
0.0
 17
0.0
 27
1.0
 37
0.0
 76
0
330
23
  0
DICTIONARY
  5
106
100
AcDbDictionary
281
1
  3
DIMASSOC
350
108
  3
HIDETEXT
350
107
  0
DICTIONARYVAR
  5
107
100
DictionaryVariables
280
0
  1
2
  0
DICTIONARYVAR
  5
108
100
DictionaryVariables
280
0
  1
1
  0
ENDSEC
  0
EOF
