999
dxflib 2.1.2.0
  0
SECTION
  2
HEADER
  9
$ACADVER
  1
AC1015
  9
$HANDSEED
  5
FFFF
  9
$DIMASZ
 40
2.5
  9
$PLIMMIN
 10
0.0
 20
0.0
  9
$DIMEXE
 40
1.25
  9
$DIMGAP
 40
0.625
  9
$PLIMMAX
 10
210.0
 20
297.0
  9
$INSUNITS
 70
4
  9
$DIMSTYLE
  2
Standard
  9
$CLAYER
  8
0
  9
$DIMEXO
 40
0.625
  9
$DIMTXT
 40
2.5
  9
$CLAYER
  8
0
  0
ENDSEC
  0
SECTION
  2
TABLES
  0
TABLE
  2
VPORT
  5
8
100
AcDbSymbolTable
 70
1
  0
VPORT
  5
30
100
AcDbSymbolTableRecord
100
AcDbViewportTableRecord
  2
*Active
 70
0
 10
0.0
 20
0.0
 11
1.0
 21
1.0
 12
286.3055555555554861
 22
148.5
 13
0.0
 23
0.0
 14
10.0
 24
10.0
 15
10.0
 25
10.0
 16
0.0
 26
0.0
 36
1.0
 17
0.0
 27
0.0
 37
0.0
 40
297.0
 41
1.92798353909465
 42
50.0
 43
0.0
 44
0.0
 50
0.0
 51
0.0
 71
0
 72
100
 73
1
 74
3
 75
1
 76
1
 77
0
 78
0
281
0
 65
1
110
0.0
120
0.0
130
0.0
111
1.0
121
0.0
131
0.0
112
0.0
122
1.0
132
0.0
 79
0
146
0.0
  0
ENDTAB
  0
TABLE
  2
LTYPE
  5
5
100
AcDbSymbolTable
 70
21
  0
LTYPE
  5
14
100
AcDbSymbolTableRecord
100
AcDbLinetypeTableRecord
  2
ByBlock
 70
0
  3

 72
65
 73
0
 40
0.0
  0
LTYPE
  5
15
100
AcDbSymbolTableRecord
100
AcDbLinetypeTableRecord
  2
ByLayer
 70
0
  3

 72
65
 73
0
 40
0.0
  0
LTYPE
  5
16
100
AcDbSymbolTableRecord
100
AcDbLinetypeTableRecord
  2
CONTINUOUS
 70
0
  3
Solid line
 72
65
 73
0
 40
0.0
  0
LTYPE
  5
31
100
AcDbSymbolTableRecord
100
AcDbLinetypeTableRecord
  2
DOT
 70
0
  3
Dot . . . . . . . . . . . . . . . . . . . . . .
 72
65
 73
2
 40
6.3499999999999996
 49
0.0
 74
0
 49
-6.3499999999999996
 74
0
  0
LTYPE
  5
32
100
AcDbSymbolTableRecord
100
AcDbLinetypeTableRecord
  2
DOT2
 70
0
  3
Dot (.5x) .....................................
 72
65
 73
2
 40
3.1749999999999998
 49
0.0
 74
0
 49
-3.1749999999999998
 74
0
  0
LTYPE
  5
33
100
AcDbSymbolTableRecord
100
AcDbLinetypeTableRecord
  2
DOTX2
 70
0
  3
Dot (2x) .  .  .  .  .  .  .  .  .  .  .  .  .
 72
65
 73
2
 40
12.6999999999999993
 49
0.0
 74
0
 49
-12.6999999999999993
 74
0
  0
LTYPE
  5
34
100
AcDbSymbolTableRecord
100
AcDbLinetypeTableRecord
  2
DASHED
 70
0
  3
Dashed __ __ __ __ __ __ __ __ __ __ __ __ __ _
 72
65
 73
2
 40
19.0500000000000007
 49
12.6999999999999993
 74
0
 49
-6.3499999999999996
 74
0
  0
LTYPE
  5
35
100
AcDbSymbolTableRecord
100
AcDbLinetypeTableRecord
  2
DASHED2
 70
0
  3
Dashed (.5x) _ _ _ _ _ _ _ _ _ _ _ _ _ _ _ _ _
 72
65
 73
2
 40
9.5250000000000004
 49
6.3499999999999996
 74
0
 49
-3.1749999999999998
 74
0
  0
LTYPE
  5
36
100
AcDbSymbolTableRecord
100
AcDbLinetypeTableRecord
  2
DASHEDX2
 70
0
  3
Dashed (2x) ____  ____  ____  ____  ____  ___
 72
65
 73
2
 40
38.1000000000000014
 49
25.3999999999999986
 74
0
 49
-12.6999999999999993
 74
0
  0
LTYPE
  5
37
100
AcDbSymbolTableRecord
100
AcDbLinetypeTableRecord
  2
DASHDOT
 70
0
  3
Dash dot __ . __ . __ . __ . __ . __ . __ . __
 72
65
 73
4
 40
25.3999999999999986
 49
12.6999999999999993
 74
0
 49
-6.3499999999999996
 74
0
 49
0.0
 74
0
 49
-6.3499999999999996
 74
0
  0
LTYPE
  5
38
100
AcDbSymbolTableRecord
100
AcDbLinetypeTableRecord
  2
DASHDOT2
 70
0
  3
Dash dot (.5x) _._._._._._._._._._._._._._._.
 72
65
 73
4
 40
12.6999999999999993
 49
6.3499999999999996
 74
0
 49
-3.1749999999999998
 74
0
 49
0.0
 74
0
 49
-3.1749999999999998
 74
0
  0
LTYPE
  5
39
100
AcDbSymbolTableRecord
100
AcDbLinetypeTableRecord
  2
DASHDOTX2
 70
0
  3
Dash dot (2x) ____  .  ____  .  ____  .  ___
 72
65
 73
4
 40
50.7999999999999972
 49
25.3999999999999986
 74
0
 49
-12.6999999999999993
 74
0
 49
0.0
 74
0
 49
-12.6999999999999993
 74
0
  0
LTYPE
  5
3A
100
AcDbSymbolTableRecord
100
AcDbLinetypeTableRecord
  2
DIVIDE
 70
0
  3
Divide ____ . . ____ . . ____ . . ____ . . ____
 72
65
 73
6
 40
31.75
 49
12.6999999999999993
 74
0
 49
-6.3499999999999996
 74
0
 49
0.0
 74
0
 49
-6.3499999999999996
 74
0
 49
0.0
 74
0
 49
-6.3499999999999996
 74
0
  0
LTYPE
  5
3B
100
AcDbSymbolTableRecord
100
AcDbLinetypeTableRecord
  2
DIVIDE2
 70
0
  3
Divide (.5x) __..__..__..__..__..__..__..__.._
 72
65
 73
6
 40
15.875
 49
6.3499999999999996
 74
0
 49
-3.1749999999999998
 74
0
 49
0.0
 74
0
 49
-3.1749999999999998
 74
0
 49
0.0
 74
0
 49
-3.1749999999999998
 74
0
  0
LTYPE
  5
3C
100
AcDbSymbolTableRecord
100
AcDbLinetypeTableRecord
  2
DIVIDEX2
 70
0
  3
Divide (2x) ________  .  .  ________  .  .  _
 72
65
 73
6
 40
63.5
 49
25.3999999999999986
 74
0
 49
-12.6999999999999993
 74
0
 49
0.0
 74
0
 49
-12.6999999999999993
 74
0
 49
0.0
 74
0
 49
-12.6999999999999993
 74
0
  0
LTYPE
  5
3D
100
AcDbSymbolTableRecord
100
AcDbLinetypeTableRecord
  2
CENTER
 70
0
  3
Center ____ _ ____ _ ____ _ ____ _ ____ _ ____
 72
65
 73
4
 40
50.7999999999999972
 49
31.75
 74
0
 49
-6.3499999999999996
 74
0
 49
6.3499999999999996
 74
0
 49
-6.3499999999999996
 74
0
  0
LTYPE
  5
3E
100
AcDbSymbolTableRecord
100
AcDbLinetypeTableRecord
  2
CENTER2
 70
0
  3
Center (.5x) ___ _ ___ _ ___ _ ___ _ ___ _ ___
 72
65
 73
4
 40
28.5749999999999993
 49
19.0500000000000007
 74
0
 49
-3.1749999999999998
 74
0
 49
3.1749999999999998
 74
0
 49
-3.1749999999999998
 74
0
  0
LTYPE
  5
3F
100
AcDbSymbolTableRecord
100
AcDbLinetypeTableRecord
  2
CENTERX2
 70
0
  3
Center (2x) ________  __  ________  __  _____
 72
65
 73
4
 40
101.5999999999999943
 49
63.5
 74
0
 49
-12.6999999999999993
 74
0
 49
12.6999999999999993
 74
0
 49
-12.6999999999999993
 74
0
  0
LTYPE
  5
40
100
AcDbSymbolTableRecord
100
AcDbLinetypeTableRecord
  2
BORDER
 70
0
  3
Border __ __ . __ __ . __ __ . __ __ . __ __ .
 72
65
 73
6
 40
44.4500000000000028
 49
12.6999999999999993
 74
0
 49
-6.3499999999999996
 74
0
 49
12.6999999999999993
 74
0
 49
-6.3499999999999996
 74
0
 49
0.0
 74
0
 49
-6.3499999999999996
 74
0
  0
LTYPE
  5
41
100
AcDbSymbolTableRecord
100
AcDbLinetypeTableRecord
  2
BORDER2
 70
0
  3
Border (.5x) __.__.__.__.__.__.__.__.__.__.__.
 72
65
 73
6
 40
22.2250000000000014
 49
6.3499999999999996
 74
0
 49
-3.1749999999999998
 74
0
 49
6.3499999999999996
 74
0
 49
-3.1749999999999998
 74
0
 49
0.0
 74
0
 49
-3.1749999999999998
 74
0
  0
LTYPE
  5
42
100
AcDbSymbolTableRecord
100
AcDbLinetypeTableRecord
  2
BORDERX2
 70
0
  3
Border (2x) ____  ____  .  ____  ____  .  ___
 72
65
 73
6
 40
88.9000000000000057
 49
25.3999999999999986
 74
0
 49
-12.6999999999999993
 74
0
 49
25.3999999999999986
 74
0
 49
-12.6999999999999993
 74
0
 49
0.0
 74
0
 49
-12.6999999999999993
 74
0
  0
ENDTAB
  0
TABLE
  2
LAYER
  5
2
100
AcDbSymbolTable
 70
6
  0
LAYER
  5
10
100
AcDbSymbolTableRecord
100
AcDbLayerTableRecord
  2
0
 70
0
 62
7
  6
CONTINUOUS
370
0
390
F
  0
LAYER
  5
43
100
AcDbSymbolTableRecord
100
AcDbLayerTableRecord
  2
Bottom
 70
0
 62
7
  6
CONTINUOUS
370
0
390
F
  0
LAYER
  5
44
100
AcDbSymbolTableRecord
100
AcDbLayerTableRecord
  2
Bottom Text
 70
0
 62
4
  6
CONTINUOUS
370
0
390
F
  0
LAYER
  5
45
100
AcDbSymbolTableRecord
100
AcDbLayerTableRecord
  2
Top
 70
0
 62
7
  6
CONTINUOUS
370
0
390
F
  0
LAYER
  5
46
100
AcDbSymbolTableRecord
100
AcDbLayerTableRecord
  2
Top Text
 70
0
 62
4
  6
CONTINUOUS
370
0
390
F
  0
LAYER
  5
47
100
AcDbSymbolTableRecord
100
AcDbLayerTableRecord
  2
Notes
 70
0
 62
7
  6
CONTINUOUS
370
0
390
F
  0
ENDTAB
  0
TABLE
  2
STYLE
  5
3
100
AcDbSymbolTable
 70
1
  0
STYLE
  5
11
100
AcDbSymbolTableRecord
100
AcDbTextStyleTableRecord
  2
Standard
 70
0
 40
0.0
 41
0.75
 50
0.0
 71
0
 42
2.5
  3
txt
  4

  0
ENDTAB
  0
TABLE
  2
VIEW
  5
6
100
AcDbSymbolTable
 70
0
  0
ENDTAB
  0
TABLE
  2
UCS
  5
7
100
AcDbSymbolTable
 70
0
  0
ENDTAB
  0
TABLE
  2
APPID
  5
9
100
AcDbSymbolTable
 70
1
  0
APPID
  5
12
100
AcDbSymbolTableRecord
100
AcDbRegAppTableRecord
  2
ACAD
 70
0
  0
ENDTAB
  0
TABLE
  2
DIMSTYLE
  5
A
100
AcDbSymbolTable
 70
1
100
AcDbDimStyleTable
 71
0
  0
DIMSTYLE
105
27
100
AcDbSymbolTableRecord
100
AcDbDimStyleTableRecord
  2
Standard
 41
2.5
 42
0.625
 43
3.75
 44
1.25
 70
0
 73
0
 74
0
 77
1
 78
8
140
2.5
141
2.5
143
0.03937007874016
147
0.625
171
3
172
1
271
2
272
2
274
3
278
44
283
0
284
8
340
11
  0
ENDTAB
  0
TABLE
  2
BLOCK_RECORD
  5
1
100
AcDbSymbolTable
 70
1
  0
BLOCK_RECORD
  5
1F
100
AcDbSymbolTableRecord
100
AcDbBlockTableRecord
  2
*Model_Space
340
22
  0
BLOCK_RECORD
  5
1B
100
AcDbSymbolTableRecord
100
AcDbBlockTableRecord
  2
*Paper_Space
340
1E
  0
BLOCK_RECORD
  5
23
100
AcDbSymbolTableRecord
100
AcDbBlockTableRecord
  2
*Paper_Space0
340
26
  0
ENDTAB
  0
ENDSEC
  0
SECTION
  2
BLOCKS
  0
BLOCK
  5
20
100
AcDbEntity
  8
0
100
AcDbBlockBegin
  2
*Model_Space
 70
0
 10
0.0
 20
0.0
 30
0.0
  3
*Model_Space
  1

  0
ENDBLK
  5
21
100
AcDbEntity
  8
0
100
AcDbBlockEnd
  0
BLOCK
  5
1C
100
AcDbEntity
 67
1
  8
0
100
AcDbBlockBegin
  2
*Paper_Space
 70
0
 10
0.0
 20
0.0
 30
0.0
  3
*Paper_Space
  1

  0
ENDBLK
  5
1D
100
AcDbEntity
 67
1
  8
0
100
AcDbBlockEnd
  0
BLOCK
  5
24
100
AcDbEntity
  8
0
100
AcDbBlockBegin
  2
*Paper_Space0
 70
0
 10
0.0
 20
0.0
 30
0.0
  3
*Paper_Space0
  1

  0
ENDBLK
  5
25
100
AcDbEntity
  8
0
100
AcDbBlockEnd
  0
ENDSEC
  0
SECTION
  2
ENTITIES
  0
CIRCLE
  5
48
100
AcDbEntity
100
AcDbCircle
  8
Top
 62
256
370
-1
  6
ByLayer
 10
29.6220943338074889
 20
61.2912996406193855
 30
0.0
 40
1.425
  0
CIRCLE
  5
49
100
AcDbEntity
100
AcDbCircle
  8
Top
 62
256
370
-1
  6
ByLayer
 10
57.8128729573847266
 20
51.0306953408492987
 30
0.0
 40
1.425
  0
CIRCLE
  5
4A
100
AcDbEntity
100
AcDbCircle
  8
Top
 62
256
370
-1
  6
ByLayer
 10
27.0000000000000568
 20
16.9999999999999645
 30
0.0
 40
1.425
  0
CIRCLE
  5
4B
100
AcDbEntity
100
AcDbCircle
  8
Top
 62
256
370
-1
  6
ByLayer
 10
42.9999999999999574
 20
16.9999999999999432
 30
0.0
 40
1.425
  0
CIRCLE
  5
4C
100
AcDbEntity
100
AcDbCircle
  8
Top
 62
256
370
-1
  6
ByLayer
 10
27.0000000000000178
 20
38.9999999999999716
 30
0.0
 40
1.425
  0
LINE
  5
4D
100
AcDbEntity
100
AcDbLine
  8
Top
 62
256
370
-1
  6
ByLayer
 10
26.2779074294256958
 20
19.9413732326007107
 30
0.0
 11
33.7954483957129668
 21
17.2052120859953632
 31
0.0
  0
LINE
  5
4E
100
AcDbEntity
100
AcDbLine
  8
Top
 62
256
370
-1
  6
ByLayer
 10
32.7002756237385057
 20
69.7485332276925476
 30
0.0
 11
34.7523964836925217
 21
75.3866889524080506
 31
0.0
  0
LINE
  5
4F
100
AcDbEntity
100
AcDbLine
  8
Top
 62
256
370
-1
  6
ByLayer
 10
32.8882141478956527
 20
69.6801291990274194
 30
0.0
 11
32.7002756237385057
 21
69.7485332276925476
 31
0.0
  0
LINE
  5
50
100
AcDbEntity
100
AcDbLine
  8
Top
 62
256
370
-1
  6
ByLayer
 10
32.28916123305995
 20
66.2799622023599397
 30
0.0
 11
33.2468176343718298
 21
68.9111015405605087
 31
0.0
  0
LINE
  5
51
100
AcDbEntity
100
AcDbLine
  8
Top
 62
256
370
-1
  6
ByLayer
 10
31.3321950504358355
 20
65.9897627445489263
 30
0.0
 11
31.5201335745930038
 21
65.9213587158837981
 31
0.0
  0
LINE
  5
52
100
AcDbEntity
100
AcDbLine
  8
Top
 62
256
370
-1
  6
ByLayer
 10
30.8533668497798743
 20
64.674193075448656
 30
0.0
 11
31.3321950504358355
 21
65.9897627445489263
 31
0.0
  0
LINE
  5
53
100
AcDbEntity
100
AcDbLine
  8
Top
 62
256
370
-1
  6
ByLayer
 10
25.5738146115406195
 20
65.9572862769357329
 30
0.0
 11
30.0843391913129423
 21
64.3155895889725286
 31
0.0
  0
LINE
  5
54
100
AcDbEntity
100
AcDbLine
  8
Top
 62
256
370
-1
  6
ByLayer
 10
25.6940393257204036
 20
68.0418836045029423
 30
0.0
 11
25.2152111250644708
 21
66.726313935402672
 31
0.0
  0
LINE
  5
55
100
AcDbEntity
100
AcDbLine
  8
Top
 62
256
370
-1
  6
ByLayer
 10
25.5061008015631998
 20
68.1102876331680704
 30
0.0
 11
25.6940393257204036
 21
68.0418836045029423
 31
0.0
  0
LINE
  5
56
100
AcDbEntity
100
AcDbLine
  8
Top
 62
256
370
-1
  6
ByLayer
 10
26.1051537163989309
 20
71.5104546298355785
 30
0.0
 11
25.1474973150870511
 21
68.8793152916350238
 31
0.0
  0
LINE
  5
57
100
AcDbEntity
100
AcDbLine
  8
Top
 62
256
370
-1
  6
ByLayer
 10
27.0621198990230489
 20
71.800654087646592
 30
0.0
 11
26.8741813748658771
 21
71.8690581163117201
 31
0.0
  0
LINE
  5
58
100
AcDbEntity
100
AcDbLine
  8
Top
 62
256
370
-1
  6
ByLayer
 10
29.1142407589770649
 20
77.4388098123620523
 30
0.0
 11
27.0621198990230489
 21
71.800654087646592
 31
0.0
  0
LINE
  5
59
100
AcDbEntity
100
AcDbLine
  8
Top
 62
256
370
-1
  6
ByLayer
 10
15.4276641292682832
 20
51.5304671732540953
 30
0.0
 11
25.3554702758334436
 21
78.8068903856647154
 31
0.0
  0
LINE
  5
5A
100
AcDbEntity
100
AcDbLine
  8
Top
 62
256
370
-1
  6
ByLayer
 10
10.0
 20
10.0
 30
0.0
 11
10.0000000000000142
 21
20.7486542739439273
 31
0.0
  0
LINE
  5
5B
100
AcDbEntity
100
AcDbLine
  8
Top
 62
256
370
-1
  6
ByLayer
 10
16.0000000000000142
 20
9.9999999999999982
 30
0.0
 11
10.0
 21
10.0
 31
0.0
  0
LINE
  5
5C
100
AcDbEntity
100
AcDbLine
  8
Top
 62
256
370
-1
  6
ByLayer
 10
16.0000000000000142
 20
17.9999999999999858
 30
0.0
 11
16.0000000000000142
 21
9.9999999999999982
 31
0.0
  0
LINE
  5
5D
100
AcDbEntity
100
AcDbLine
  8
Top
 62
256
370
-1
  6
ByLayer
 10
15.7999999999999972
 20
17.9999999999999858
 30
0.0
 11
16.0000000000000142
 21
17.9999999999999858
 31
0.0
  0
LINE
  5
5E
100
AcDbEntity
100
AcDbLine
  8
Top
 62
256
370
-1
  6
ByLayer
 10
15.1999999999999726
 20
21.3999999999999915
 30
0.0
 11
15.1999999999999744
 21
18.5999999999999801
 31
0.0
  0
LINE
  5
5F
100
AcDbEntity
100
AcDbLine
  8
Top
 62
256
370
-1
  6
ByLayer
 10
16.0000000000000142
 20
21.9999999999999858
 30
0.0
 11
15.7999999999999829
 21
22.0000000000000284
 31
0.0
  0
LINE
  5
60
100
AcDbEntity
100
AcDbLine
  8
Top
 62
256
370
-1
  6
ByLayer
 10
16.0
 20
23.3999999999999631
 30
0.0
 11
16.0000000000000142
 21
21.9999999999999858
 31
0.0
  0
LINE
  5
61
100
AcDbEntity
100
AcDbLine
  8
Top
 62
256
370
-1
  6
ByLayer
 10
21.3999999999999915
 20
23.9999999999999574
 30
0.0
 11
16.6000000000000085
 21
23.9999999999999716
 31
0.0
  0
LINE
  5
62
100
AcDbEntity
100
AcDbLine
  8
Top
 62
256
370
-1
  6
ByLayer
 10
21.9999999999999716
 20
22.0
 30
0.0
 11
22.0000000000000426
 21
23.3999999999999488
 31
0.0
  0
LINE
  5
63
100
AcDbEntity
100
AcDbLine
  8
Top
 62
256
370
-1
  6
ByLayer
 10
22.2000000000000313
 20
21.9999999999999858
 30
0.0
 11
21.9999999999999716
 21
22.0
 31
0.0
  0
LINE
  5
64
100
AcDbEntity
100
AcDbLine
  8
Top
 62
256
370
-1
  6
ByLayer
 10
22.800000000000054
 20
18.5999999999999623
 30
0.0
 11
22.8000000000000256
 21
21.3999999999999631
 31
0.0
  0
LINE
  5
65
100
AcDbEntity
100
AcDbLine
  8
Top
 62
256
370
-1
  6
ByLayer
 10
21.9999999999999716
 20
17.9999999999999858
 30
0.0
 11
22.2000000000000028
 21
17.9999999999999858
 31
0.0
  0
LINE
  5
66
100
AcDbEntity
100
AcDbLine
  8
Top
 62
256
370
-1
  6
ByLayer
 10
22.0
 20
9.9999999999999964
 30
0.0
 11
21.9999999999999716
 21
17.9999999999999858
 31
0.0
  0
LINE
  5
67
100
AcDbEntity
100
AcDbLine
  8
Top
 62
256
370
-1
  6
ByLayer
 10
48.0000000000000568
 20
9.9999999999999911
 30
0.0
 11
22.0
 21
9.9999999999999964
 31
0.0
  0
LINE
  5
68
100
AcDbEntity
100
AcDbLine
  8
Top
 62
256
370
-1
  6
ByLayer
 10
48.0000000000000426
 20
17.9999999999999396
 30
0.0
 11
48.0000000000000568
 21
9.9999999999999911
 31
0.0
  0
LINE
  5
69
100
AcDbEntity
100
AcDbLine
  8
Top
 62
256
370
-1
  6
ByLayer
 10
47.800000000000054
 20
17.9999999999999503
 30
0.0
 11
48.0000000000000426
 21
17.9999999999999396
 31
0.0
  0
LINE
  5
6A
100
AcDbEntity
100
AcDbLine
  8
Top
 62
256
370
-1
  6
ByLayer
 10
47.2000000000000028
 20
21.3999999999999488
 30
0.0
 11
47.2000000000000028
 21
18.5999999999999517
 31
0.0
  0
LINE
  5
6B
100
AcDbEntity
100
AcDbLine
  8
Top
 62
256
370
-1
  6
ByLayer
 10
48.0
 20
21.9999999999999751
 30
0.0
 11
47.8000000000000256
 21
21.9999999999999716
 31
0.0
  0
LINE
  5
6C
100
AcDbEntity
100
AcDbLine
  8
Top
 62
256
370
-1
  6
ByLayer
 10
48.0000000000000284
 20
23.3999999999999631
 30
0.0
 11
48.0
 21
21.9999999999999751
 31
0.0
  0
LINE
  5
6D
100
AcDbEntity
100
AcDbLine
  8
Top
 62
256
370
-1
  6
ByLayer
 10
53.9999999999999858
 20
21.9999999999999289
 30
0.0
 11
54.0000000000000142
 21
23.3999999999999133
 31
0.0
  0
LINE
  5
6E
100
AcDbEntity
100
AcDbLine
  8
Top
 62
256
370
-1
  6
ByLayer
 10
54.2000000000000313
 20
21.9999999999999609
 30
0.0
 11
53.9999999999999858
 21
21.9999999999999289
 31
0.0
  0
LINE
  5
6F
100
AcDbEntity
100
AcDbLine
  8
Top
 62
256
370
-1
  6
ByLayer
 10
54.7999999999999972
 20
18.599999999999973
 30
0.0
 11
54.8000000000000256
 21
21.3999999999999773
 31
0.0
  0
LINE
  5
70
100
AcDbEntity
100
AcDbLine
  8
Top
 62
256
370
-1
  6
ByLayer
 10
54.0
 20
17.9999999999999787
 30
0.0
 11
54.1999999999999886
 21
17.999999999999968
 31
0.0
  0
LINE
  5
71
100
AcDbEntity
100
AcDbLine
  8
Top
 62
256
370
-1
  6
ByLayer
 10
53.9999999999999716
 20
9.9999999999999893
 30
0.0
 11
54.0
 21
17.9999999999999787
 31
0.0
  0
LINE
  5
72
100
AcDbEntity
100
AcDbLine
  8
Top
 62
256
370
-1
  6
ByLayer
 10
59.9999999999999858
 20
9.9999999999999876
 30
0.0
 11
53.9999999999999716
 21
9.9999999999999893
 31
0.0
  0
LINE
  5
73
100
AcDbEntity
100
AcDbLine
  8
Top
 62
256
370
-1
  6
ByLayer
 10
59.9999999999999858
 20
11.9323052385205468
 30
0.0
 11
59.9999999999999858
 21
9.9999999999999876
 31
0.0
  0
LINE
  5
74
100
AcDbEntity
100
AcDbLine
  8
Top
 62
256
370
-1
  6
ByLayer
 10
66.5292099720312109
 20
57.4358080679684946
 30
0.0
 11
68.5813308319852126
 21
63.0739637926838981
 31
0.0
  0
LINE
  5
75
100
AcDbEntity
100
AcDbLine
  8
Top
 62
256
370
-1
  6
ByLayer
 10
66.7171484961884147
 20
57.367404039303338
 30
0.0
 11
66.5292099720312109
 21
57.4358080679684946
 31
0.0
  0
LINE
  5
76
100
AcDbEntity
100
AcDbLine
  8
Top
 62
256
370
-1
  6
ByLayer
 10
66.1180955813526197
 20
53.9672370426358441
 30
0.0
 11
67.0757519826644995
 21
56.5983763808363847
 31
0.0
  0
LINE
  5
77
100
AcDbEntity
100
AcDbLine
  8
Top
 62
256
370
-1
  6
ByLayer
 10
65.1611293987285052
 20
53.6770375848248591
 30
0.0
 11
65.349067922885709
 21
53.608633556159738
 31
0.0
  0
LINE
  5
78
100
AcDbEntity
100
AcDbLine
  8
Top
 62
256
370
-1
  6
ByLayer
 10
64.6823011980724942
 20
52.3614679157245533
 30
0.0
 11
65.1611293987285052
 21
53.6770375848248591
 31
0.0
  0
LINE
  5
79
100
AcDbEntity
100
AcDbLine
  8
Top
 62
256
370
-1
  6
ByLayer
 10
59.4027489598333176
 20
53.6445611172116728
 30
0.0
 11
63.9132735396055836
 21
52.0028644292484259
 31
0.0
  0
LINE
  5
7A
100
AcDbEntity
100
AcDbLine
  8
Top
 62
256
370
-1
  6
ByLayer
 10
59.5229736740130733
 20
55.7291584447788466
 30
0.0
 11
59.0441454733571121
 21
54.4135887756785834
 31
0.0
  0
LINE
  5
7B
100
AcDbEntity
100
AcDbLine
  8
Top
 62
256
370
-1
  6
ByLayer
 10
59.3350351498558979
 20
55.7975624734440103
 30
0.0
 11
59.5229736740130733
 21
55.7291584447788466
 31
0.0
  0
LINE
  5
7C
100
AcDbEntity
100
AcDbLine
  8
Top
 62
256
370
-1
  6
ByLayer
 10
59.9340880646916361
 20
59.1977294701114971
 30
0.0
 11
58.9764316633797847
 21
56.5665901319109352
 31
0.0
  0
LINE
  5
7D
100
AcDbEntity
100
AcDbLine
  8
Top
 62
256
370
-1
  6
ByLayer
 10
60.8910542473158074
 20
59.4879289279225176
 30
0.0
 11
60.7031157231585183
 21
59.5563329565876316
 31
0.0
  0
LINE
  5
7E
100
AcDbEntity
100
AcDbLine
  8
Top
 62
256
370
-1
  6
ByLayer
 10
62.9431751072697949
 20
65.1260846526379567
 30
0.0
 11
60.8910542473158074
 21
59.4879289279225176
 31
0.0
  0
ARC
  5
7F
100
AcDbEntity
  8
Top
 62
256
370
-1
  6
ByLayer
100
AcDbCircle
 10
34.0006604817083655
 20
17.7690276584668965
 30
0.0
 40
0.599999999999996
100
AcDbArc
 50
250.0000000000001137
 51
340.0000000000002842
  0
ARC
  5
80
100
AcDbEntity
  8
Top
 62
256
370
-1
  6
ByLayer
100
AcDbCircle
 10
26.4831195154210803
 20
20.5051888050722653
 30
0.0
 40
0.5999999999999983
100
AcDbArc
 50
159.9999999999998863
 51
250.0000000000001705
  0
ARC
  5
81
100
AcDbEntity
  8
Top
 62
256
370
-1
  6
ByLayer
100
AcDbCircle
 10
32.6830020619002681
 20
69.1163136265558649
 30
0.0
 40
0.600000000000012
100
AcDbArc
 50
340.0000000000014779
 51
69.9999999999995879
  0
ARC
  5
82
100
AcDbEntity
  8
Top
 62
256
370
-1
  6
ByLayer
100
AcDbCircle
 10
31.7253456605884203
 20
66.4851742883553243
 30
0.0
 40
0.5999999999999749
100
AcDbArc
 50
249.99999999999838
 51
340.0000000000022737
  0
ARC
  5
83
100
AcDbEntity
  8
Top
 62
256
370
-1
  6
ByLayer
100
AcDbCircle
 10
30.289551277308373
 20
64.8794051614440406
 30
0.0
 40
0.5999999999999921
100
AcDbArc
 50
249.9999999999991189
 51
340.0000000000009095
  0
ARC
  5
84
100
AcDbEntity
  8
Top
 62
256
370
-1
  6
ByLayer
100
AcDbCircle
 10
25.7790266975359934
 20
66.521101849407259
 30
0.0
 40
0.5999999999999996
100
AcDbArc
 50
160.0000000000001137
 51
249.9999999999993179
  0
ARC
  5
85
100
AcDbEntity
  8
Top
 62
256
370
-1
  6
ByLayer
100
AcDbCircle
 10
25.7113128875586057
 20
68.674103205639625
 30
0.0
 40
0.5999999999999986
100
AcDbArc
 50
160.0000000000001137
 51
249.9999999999993179
  0
ARC
  5
86
100
AcDbEntity
  8
Top
 62
256
370
-1
  6
ByLayer
100
AcDbCircle
 10
26.6689692888704997
 20
71.3052425438401656
 30
0.0
 40
0.6000000000000139
100
AcDbArc
 50
70.0000000000007105
 51
159.9999999999988063
  0
ARC
  5
87
100
AcDbEntity
  8
Top
 62
256
370
-1
  6
ByLayer
100
AcDbCircle
 10
15.7999999999999972
 20
18.5999999999999517
 30
0.0
 40
0.5999999999999984
100
AcDbArc
 50
180.0
 51
270.0000000000007958
  0
ARC
  5
88
100
AcDbEntity
  8
Top
 62
256
370
-1
  6
ByLayer
100
AcDbCircle
 10
15.8000000000000256
 20
21.3999999999999631
 30
0.0
 40
0.6000000000000006
100
AcDbArc
 50
90.0000000000017053
 51
180.0
  0
ARC
  5
89
100
AcDbEntity
  8
Top
 62
256
370
-1
  6
ByLayer
100
AcDbCircle
 10
16.6000000000000369
 20
23.3999999999999915
 30
0.0
 40
0.6000000000000028
100
AcDbArc
 50
90.0
 51
180.0
  0
ARC
  5
8A
100
AcDbEntity
  8
Top
 62
256
370
-1
  6
ByLayer
100
AcDbCircle
 10
21.3999999999999915
 20
23.3999999999999524
 30
0.0
 40
0.6000000000000028
100
AcDbArc
 50
0.0
 51
89.9999999999991616
  0
ARC
  5
8B
100
AcDbEntity
  8
Top
 62
256
370
-1
  6
ByLayer
100
AcDbCircle
 10
22.2000000000000028
 20
21.3999999999999773
 30
0.0
 40
0.5999999999999939
100
AcDbArc
 50
0.0
 51
90.0
  0
ARC
  5
8C
100
AcDbEntity
  8
Top
 62
256
370
-1
  6
ByLayer
100
AcDbCircle
 10
22.2000000000000597
 20
18.5999999999999517
 30
0.0
 40
0.5999999999999984
100
AcDbArc
 50
269.9999999999992042
 51
0.0
  0
ARC
  5
8D
100
AcDbEntity
  8
Top
 62
256
370
-1
  6
ByLayer
100
AcDbCircle
 10
47.7999999999999829
 20
18.5999999999999481
 30
0.0
 40
0.5999999999999984
100
AcDbArc
 50
180.0
 51
270.0000000000017053
  0
ARC
  5
8E
100
AcDbEntity
  8
Top
 62
256
370
-1
  6
ByLayer
100
AcDbCircle
 10
47.800000000000054
 20
21.3999999999999488
 30
0.0
 40
0.6000000000000006
100
AcDbArc
 50
90.0000000000017053
 51
180.0
  0
ARC
  5
8F
100
AcDbEntity
  8
Top
 62
256
370
-1
  6
ByLayer
100
AcDbCircle
 10
48.6000000000000369
 20
23.3999999999999702
 30
0.0
 40
0.6000000000000028
100
AcDbArc
 50
90.0
 51
180.0
  0
ARC
  5
90
100
AcDbEntity
  8
Top
 62
256
370
-1
  6
ByLayer
100
AcDbCircle
 10
53.4000000000000199
 20
23.3999999999999346
 30
0.0
 40
0.6000000000000028
100
AcDbArc
 50
0.0
 51
89.9999999999983089
  0
ARC
  5
91
100
AcDbEntity
  8
Top
 62
256
370
-1
  6
ByLayer
100
AcDbCircle
 10
54.2000000000000313
 20
21.3999999999999808
 30
0.0
 40
0.5999999999999939
100
AcDbArc
 50
0.0
 51
90.0
  0
ARC
  5
92
100
AcDbEntity
  8
Top
 62
256
370
-1
  6
ByLayer
100
AcDbCircle
 10
54.1999999999999744
 20
18.5999999999999233
 30
0.0
 40
0.5999999999999984
100
AcDbArc
 50
269.9999999999982947
 51
0.0
  0
ARC
  5
93
100
AcDbEntity
  8
Top
 62
256
370
-1
  6
ByLayer
100
AcDbCircle
 10
66.5119364101930017
 20
56.8035884668318047
 30
0.0
 40
0.5999999999999881
100
AcDbArc
 50
339.9999999999998863
 51
70.0000000000014353
  0
ARC
  5
94
100
AcDbEntity
  8
Top
 62
256
370
-1
  6
ByLayer
100
AcDbCircle
 10
65.5542800088810935
 20
54.1724491286312713
 30
0.0
 40
0.5999999999999842
100
AcDbArc
 50
249.9999999999978968
 51
340.0000000000001137
  0
ARC
  5
95
100
AcDbEntity
  8
Top
 62
256
370
-1
  6
ByLayer
100
AcDbCircle
 10
64.1184856256009965
 20
52.5666800017199662
 30
0.0
 40
0.6000000000000063
100
AcDbArc
 50
250.0000000000003695
 51
339.9999999999996021
  0
ARC
  5
96
100
AcDbEntity
  8
Top
 62
256
370
-1
  6
ByLayer
100
AcDbCircle
 10
59.6079610458287021
 20
54.2083766896831847
 30
0.0
 40
0.5999999999999976
100
AcDbArc
 50
160.0000000000011937
 51
250.0000000000003695
  0
ARC
  5
97
100
AcDbEntity
  8
Top
 62
256
370
-1
  6
ByLayer
100
AcDbCircle
 10
59.5402472358513108
 20
56.3613780459155507
 30
0.0
 40
0.5999999999999954
100
AcDbArc
 50
159.9999999999990052
 51
250.0000000000001137
  0
ARC
  5
98
100
AcDbEntity
  8
Top
 62
256
370
-1
  6
ByLayer
100
AcDbCircle
 10
60.4979036371632262
 20
58.9925173841160557
 30
0.0
 40
0.6000000000000253
100
AcDbArc
 50
70.0000000000028848
 51
159.9999999999994031
  0
ARC
  5
99
100
AcDbEntity
  8
Top
 62
256
370
-1
  6
ByLayer
100
AcDbCircle
 10
99.9999999999994174
 20
20.7486542739440729
 30
0.0
 40
89.9999999999993463
100
AcDbArc
 50
159.9999999999998863
 51
180.0
  0
ARC
  5
9A
100
AcDbEntity
  8
Top
 62
256
370
-1
  6
ByLayer
100
AcDbCircle
 10
149.9999999999996589
 20
11.9323052385213089
 30
0.0
 40
89.9999999999996447
100
AcDbArc
 50
159.9999999999998863
 51
180.0
  0
LINE
  5
9B
100
AcDbEntity
100
AcDbLine
  8
Top
 62
256
370
-1
  6
ByLayer
 10
72.3401013151287913
 20
61.7058832193812705
 30
0.0
 11
65.4276641292681944
 21
42.7141181378308161
 31
0.0
  0
LINE
  5
9C
100
AcDbEntity
100
AcDbLine
  8
Notes
 62
256
370
-1
  6
ByLayer
 10
53.0433756729740367
 20
23.9999999999999112
 30
0.0
 11
53.4000000000000199
 21
23.9999999999999325
 31
0.0
  0
MTEXT
  5
9D
100
AcDbEntity
100
AcDbMText
  8
Top Text
 62
256
370
-1
  6
ByLayer
 10
19.2988517093082166
 20
52.6842340805068972
 30
0.0
 40
2.0
 41
100.0
 71
1
 72
2
  1
Main\~Plate\PTop
  7
standard
 50
0.0
 73
0
 44
1.0
  0
LINE
  5
9E
100
AcDbEntity
100
AcDbLine
  8
Top
 62
256
370
-1
  6
ByLayer
 10
40.0789378766322244
 20
59.6136753916042395
 30
0.0
 11
25.9193039429495684
 21
20.7104008910676782
 31
0.0
  0
LINE
  5
9F
100
AcDbEntity
100
AcDbLine
  8
Top
 62
256
370
-1
  6
ByLayer
 10
40.0789378766322599
 20
59.6136753916042252
 30
0.0
 11
36.79001370388157
 21
60.8107458932440821
 31
0.0
  0
LINE
  5
A0
100
AcDbEntity
100
AcDbLine
  8
Top
 62
256
370
-1
  6
ByLayer
 10
36.79001370388157
 20
60.8107458932440821
 30
0.0
 11
41.2362755671152854
 21
73.0267499634608726
 31
0.0
  0
LINE
  5
A1
100
AcDbEntity
100
AcDbLine
  8
Top
 62
256
370
-1
  6
ByLayer
 10
41.2362755671152854
 20
73.0267499634608726
 30
0.0
 11
34.7523964836925074
 21
75.3866889524079937
 31
0.0
  0
LINE
  5
A2
100
AcDbEntity
100
AcDbLine
  8
Top
 62
256
370
-1
  6
ByLayer
 10
48.7241099878626045
 20
56.4670900730080803
 30
0.0
 11
52.0130341606132873
 21
55.2700195713682518
 31
0.0
  0
LINE
  5
A3
100
AcDbEntity
100
AcDbLine
  8
Top
 62
256
370
-1
  6
ByLayer
 10
52.0130341606132873
 20
55.2700195713682518
 30
0.0
 11
56.4592960238469885
 21
67.4860236415850636
 31
0.0
  0
LINE
  5
A4
100
AcDbEntity
100
AcDbLine
  8
Top
 62
256
370
-1
  6
ByLayer
 10
56.4592960238469885
 20
67.4860236415850636
 30
0.0
 11
62.943175107269802
 21
65.1260846526379282
 31
0.0
  0
LINE
  5
A5
100
AcDbEntity
100
AcDbLine
  8
Top
 62
256
370
-1
  6
ByLayer
 10
68.5813308319852126
 20
63.0739637926838981
 30
0.0
 11
72.3401013151287913
 21
61.7058832193812705
 31
0.0
  0
LINE
  5
A6
100
AcDbEntity
100
AcDbLine
  8
Top
 62
256
370
-1
  6
ByLayer
 10
25.3554702758334436
 20
78.8068903856647154
 30
0.0
 11
29.1142407589770649
 21
77.4388098123620523
 31
0.0
  0
LINE
  5
A7
100
AcDbEntity
100
AcDbLine
  8
Top
 62
256
370
-1
  6
ByLayer
 10
46.4722431864335306
 20
27.5499999999995708
 30
0.0
 11
47.9444863728670612
 21
24.9999999999995666
 31
0.0
  0
LINE
  5
A8
100
AcDbEntity
100
AcDbLine
  8
Top
 62
256
370
-1
  6
ByLayer
 10
47.9444863728670612
 20
24.9999999999995666
 30
0.0
 11
46.4722431864335306
 21
22.4499999999995694
 31
0.0
  0
LINE
  5
A9
100
AcDbEntity
100
AcDbLine
  8
Top
 62
256
370
-1
  6
ByLayer
 10
46.4722431864335306
 20
22.4499999999995694
 30
0.0
 11
43.5277568135664126
 21
22.4499999999995588
 31
0.0
  0
LINE
  5
AA
100
AcDbEntity
100
AcDbLine
  8
Top
 62
256
370
-1
  6
ByLayer
 10
43.5277568135664126
 20
22.4499999999995588
 30
0.0
 11
42.0555136271328536
 21
24.9999999999995524
 31
0.0
  0
LINE
  5
AB
100
AcDbEntity
100
AcDbLine
  8
Top
 62
256
370
-1
  6
ByLayer
 10
42.0555136271328536
 20
24.9999999999995524
 30
0.0
 11
43.5277568135664126
 21
27.5499999999995673
 31
0.0
  0
LINE
  5
AC
100
AcDbEntity
100
AcDbLine
  8
Top
 62
256
370
-1
  6
ByLayer
 10
43.5277568135664126
 20
27.5499999999995673
 30
0.0
 11
46.4722431864335306
 21
27.5499999999995708
 31
0.0
  0
LINE
  5
AD
100
AcDbEntity
100
AcDbLine
  8
Top
 62
256
370
-1
  6
ByLayer
 10
54.472243186433758
 20
38.5499999999994429
 30
0.0
 11
55.9444863728672885
 21
35.9999999999994458
 31
0.0
  0
LINE
  5
AE
100
AcDbEntity
100
AcDbLine
  8
Top
 62
256
370
-1
  6
ByLayer
 10
55.9444863728672885
 20
35.9999999999994458
 30
0.0
 11
54.472243186433758
 21
33.4499999999994486
 31
0.0
  0
LINE
  5
AF
100
AcDbEntity
100
AcDbLine
  8
Top
 62
256
370
-1
  6
ByLayer
 10
54.472243186433758
 20
33.4499999999994486
 30
0.0
 11
51.5277568135666399
 21
33.4499999999994344
 31
0.0
  0
LINE
  5
B0
100
AcDbEntity
100
AcDbLine
  8
Top
 62
256
370
-1
  6
ByLayer
 10
51.5277568135666399
 20
33.4499999999994344
 30
0.0
 11
50.0555136271330809
 21
35.9999999999994316
 31
0.0
  0
LINE
  5
B1
100
AcDbEntity
100
AcDbLine
  8
Top
 62
256
370
-1
  6
ByLayer
 10
50.0555136271330809
 20
35.9999999999994316
 30
0.0
 11
51.5277568135666399
 21
38.5499999999994429
 31
0.0
  0
LINE
  5
B2
100
AcDbEntity
100
AcDbLine
  8
Top
 62
256
370
-1
  6
ByLayer
 10
51.5277568135666399
 20
38.5499999999994429
 30
0.0
 11
54.472243186433758
 21
38.5499999999994429
 31
0.0
  0
LINE
  5
B3
100
AcDbEntity
100
AcDbLine
  8
Top
 62
256
370
-1
  6
ByLayer
 10
46.4722431864337437
 20
38.5499999999995637
 30
0.0
 11
47.9444863728672743
 21
35.9999999999995737
 31
0.0
  0
LINE
  5
B4
100
AcDbEntity
100
AcDbLine
  8
Top
 62
256
370
-1
  6
ByLayer
 10
47.9444863728672743
 20
35.9999999999995737
 30
0.0
 11
46.4722431864337437
 21
33.4499999999995765
 31
0.0
  0
LINE
  5
B5
100
AcDbEntity
100
AcDbLine
  8
Top
 62
256
370
-1
  6
ByLayer
 10
46.4722431864337437
 20
33.4499999999995765
 30
0.0
 11
43.5277568135666257
 21
33.4499999999995623
 31
0.0
  0
LINE
  5
B6
100
AcDbEntity
100
AcDbLine
  8
Top
 62
256
370
-1
  6
ByLayer
 10
43.5277568135666257
 20
33.4499999999995623
 30
0.0
 11
42.0555136271330667
 21
35.9999999999995524
 31
0.0
  0
LINE
  5
B7
100
AcDbEntity
100
AcDbLine
  8
Top
 62
256
370
-1
  6
ByLayer
 10
42.0555136271330667
 20
35.9999999999995524
 30
0.0
 11
43.5277568135666257
 21
38.5499999999995708
 31
0.0
  0
LINE
  5
B8
100
AcDbEntity
100
AcDbLine
  8
Top
 62
256
370
-1
  6
ByLayer
 10
43.5277568135666257
 20
38.5499999999995708
 30
0.0
 11
46.4722431864337437
 21
38.5499999999995637
 31
0.0
  0
CIRCLE
  5
B9
100
AcDbEntity
100
AcDbCircle
  8
Top
 62
256
370
-1
  6
ByLayer
 10
52.9999999999999858
 20
24.9999999999994458
 30
0.0
 40
1.5
  0
LINE
  5
BA
100
AcDbEntity
100
AcDbLine
  8
Top
 62
256
370
-1
  6
ByLayer
 10
48.7241099878626045
 20
56.4670900730080803
 30
0.0
 11
34.5644760541799059
 21
17.5638155724714942
 31
0.0
  0
LINE
  5
BB
100
AcDbEntity
100
AcDbLine
  8
Top
 62
256
370
-1
  6
ByLayer
 10
48.6000000000000369
 20
23.9999999999999822
 30
0.0
 11
53.4000000000000341
 21
23.9999999999999361
 31
0.0
  0
ENDSEC
  0
SECTION
  2
OBJECTS
  0
DICTIONARY
  5
C
100
AcDbDictionary
280
0
281
1
  3
ACAD_GROUP
350
D
  3
ACAD_LAYOUT
350
1A
  3
ACAD_MLINESTYLE
350
17
  3
ACAD_PLOTSETTINGS
350
19
  3
ACAD_PLOTSTYLENAME
350
E
  3
AcDbVariableDictionary
350
BC
  0
DICTIONARY
  5
D
100
AcDbDictionary
280
0
281
1
  0
ACDBDICTIONARYWDFLT
  5
E
100
AcDbDictionary
281
1
  3
Normal
350
F
100
AcDbDictionaryWithDefault
340
F
  0
ACDBPLACEHOLDER
  5
F
  0
DICTIONARY
  5
17
100
AcDbDictionary
280
0
281
1
  3
Standard
350
18
  0
MLINESTYLE
  5
18
100
AcDbMlineStyle
  2
STANDARD
 70
0
  3

 62
256
 51
90.0
 52
90.0
 71
2
 49
0.5
 62
256
  6
BYLAYER
 49
-0.5
 62
256
  6
BYLAYER
  0
DICTIONARY
  5
19
100
AcDbDictionary
280
0
281
1
  0
DICTIONARY
  5
1A
100
AcDbDictionary
281
1
  3
Layout1
350
1E
  3
Layout2
350
26
  3
Model
350
22
  0
LAYOUT
  5
1E
100
AcDbPlotSettings
  1

  2
C:\Program Files\AutoCAD 2002\plotters\DWF ePlot (optimized for plotting).pc3
  4

  6

 40
0.0
 41
0.0
 42
0.0
 43
0.0
 44
0.0
 45
0.0
 46
0.0
 47
0.0
 48
0.0
 49
0.0
140
0.0
141
0.0
142
1.0
143
1.0
 70
688
 72
0
 73
0
 74
5
  7

 75
16
147
1.0
148
0.0
149
0.0
100
AcDbLayout
  1
Layout1
 70
1
 71
1
 10
0.0
 20
0.0
 11
420.0
 21
297.0
 12
0.0
 22
0.0
 32
0.0
 14
100000000000000000000.0
 24
100000000000000000000.0
 34
100000000000000000000.0
 15
-100000000000000000000.0
 25
-100000000000000000000.0
 35
-100000000000000000000.0
146
0.0
 13
0.0
 23
0.0
 33
0.0
 16
1.0
 26
0.0
 36
0.0
 17
0.0
 27
1.0
 37
0.0
 76
0
330
1B
  0
LAYOUT
  5
22
100
AcDbPlotSettings
  1

  2
C:\Program Files\AutoCAD 2002\plotters\DWF ePlot (optimized for plotting).pc3
  4

  6

 40
0.0
 41
0.0
 42
0.0
 43
0.0
 44
0.0
 45
0.0
 46
0.0
 47
0.0
 48
0.0
 49
0.0
140
0.0
141
0.0
142
1.0
143
1.0
 70
1712
 72
0
 73
0
 74
0
  7

 75
0
147
1.0
148
0.0
149
0.0
100
AcDbLayout
  1
Model
 70
1
 71
0
 10
0.0
 20
0.0
 11
12.0
 21
9.0
 12
0.0
 22
0.0
 32
0.0
 14
0.0
 24
0.0
 34
0.0
 15
0.0
 25
0.0
 35
0.0
146
0.0
 13
0.0
 23
0.0
 33
0.0
 16
1.0
 26
0.0
 36
0.0
 17
0.0
 27
1.0
 37
0.0
 76
0
330
1F
  0
LAYOUT
  5
26
100
AcDbPlotSettings
  1

  2
C:\Program Files\AutoCAD 2002\plotters\DWF ePlot (optimized for plotting).pc3
  4

  6

 40
0.0
 41
0.0
 42
0.0
 43
0.0
 44
0.0
 45
0.0
 46
0.0
 47
0.0
 48
0.0
 49
0.0
140
0.0
141
0.0
142
1.0
143
1.0
 70
688
 72
0
 73
0
 74
5
  7

 75
16
147
1.0
148
0.0
149
0.0
100
AcDbLayout
  1
Layout2
 70
1
 71
2
 10
0.0
 20
0.0
 11
12.0
 21
9.0
 12
0.0
 22
0.0
 32
0.0
 14
0.0
 24
0.0
 34
0.0
 15
0.0
 25
0.0
 35
0.0
146
0.0
 13
0.0
 23
0.0
 33
0.0
 16
1.0
 26
0.0
 36
0.0
 17
0.0
 27
1.0
 37
0.0
 76
0
330
23
  0
DICTIONARY
  5
BC
100
AcDbDictionary
281
1
  3
DIMASSOC
350
BE
  3
HIDETEXT
350
BD
  0
DICTIONARYVAR
  5
BD
100
DictionaryVariables
280
0
  1
2
  0
DICTIONARYVAR
  5
BE
100
DictionaryVariables
280
0
  1
1
  0
ENDSEC
  0
EOF
