999
dxflib 2.1.2.0
  0
SECTION
  2
HEADER
  9
$ACADVER
  1
AC1015
  9
$HANDSEED
  5
FFFF
  9
$DIMASZ
 40
2.5
  9
$PLIMMIN
 10
0.0
 20
0.0
  9
$DIMEXE
 40
1.25
  9
$DIMGAP
 40
0.625
  9
$PLIMMAX
 10
210.0
 20
297.0
  9
$INSUNITS
 70
4
  9
$DIMSTYLE
  2
Standard
  9
$CLAYER
  8
0
  9
$DIMEXO
 40
0.625
  9
$DIMTXT
 40
2.5
  9
$CLAYER
  8
0
  0
ENDSEC
  0
SECTION
  2
TABLES
  0
TABLE
  2
VPORT
  5
8
100
AcDbSymbolTable
 70
1
  0
VPORT
  5
30
100
AcDbSymbolTableRecord
100
AcDbViewportTableRecord
  2
*Active
 70
0
 10
0.0
 20
0.0
 11
1.0
 21
1.0
 12
286.3055555555554861
 22
148.5
 13
0.0
 23
0.0
 14
10.0
 24
10.0
 15
10.0
 25
10.0
 16
0.0
 26
0.0
 36
1.0
 17
0.0
 27
0.0
 37
0.0
 40
297.0
 41
1.92798353909465
 42
50.0
 43
0.0
 44
0.0
 50
0.0
 51
0.0
 71
0
 72
100
 73
1
 74
3
 75
1
 76
1
 77
0
 78
0
281
0
 65
1
110
0.0
120
0.0
130
0.0
111
1.0
121
0.0
131
0.0
112
0.0
122
1.0
132
0.0
 79
0
146
0.0
  0
ENDTAB
  0
TABLE
  2
LTYPE
  5
5
100
AcDbSymbolTable
 70
21
  0
LTYPE
  5
14
100
AcDbSymbolTableRecord
100
AcDbLinetypeTableRecord
  2
ByBlock
 70
0
  3

 72
65
 73
0
 40
0.0
  0
LTYPE
  5
15
100
AcDbSymbolTableRecord
100
AcDbLinetypeTableRecord
  2
ByLayer
 70
0
  3

 72
65
 73
0
 40
0.0
  0
LTYPE
  5
16
100
AcDbSymbolTableRecord
100
AcDbLinetypeTableRecord
  2
CONTINUOUS
 70
0
  3
Solid line
 72
65
 73
0
 40
0.0
  0
LTYPE
  5
31
100
AcDbSymbolTableRecord
100
AcDbLinetypeTableRecord
  2
DOT
 70
0
  3
Dot . . . . . . . . . . . . . . . . . . . . . .
 72
65
 73
2
 40
6.3499999999999996
 49
0.0
 74
0
 49
-6.3499999999999996
 74
0
  0
LTYPE
  5
32
100
AcDbSymbolTableRecord
100
AcDbLinetypeTableRecord
  2
DOT2
 70
0
  3
Dot (.5x) .....................................
 72
65
 73
2
 40
3.1749999999999998
 49
0.0
 74
0
 49
-3.1749999999999998
 74
0
  0
LTYPE
  5
33
100
AcDbSymbolTableRecord
100
AcDbLinetypeTableRecord
  2
DOTX2
 70
0
  3
Dot (2x) .  .  .  .  .  .  .  .  .  .  .  .  .
 72
65
 73
2
 40
12.6999999999999993
 49
0.0
 74
0
 49
-12.6999999999999993
 74
0
  0
LTYPE
  5
34
100
AcDbSymbolTableRecord
100
AcDbLinetypeTableRecord
  2
DASHED
 70
0
  3
Dashed __ __ __ __ __ __ __ __ __ __ __ __ __ _
 72
65
 73
2
 40
19.0500000000000007
 49
12.6999999999999993
 74
0
 49
-6.3499999999999996
 74
0
  0
LTYPE
  5
35
100
AcDbSymbolTableRecord
100
AcDbLinetypeTableRecord
  2
DASHED2
 70
0
  3
Dashed (.5x) _ _ _ _ _ _ _ _ _ _ _ _ _ _ _ _ _
 72
65
 73
2
 40
9.5250000000000004
 49
6.3499999999999996
 74
0
 49
-3.1749999999999998
 74
0
  0
LTYPE
  5
36
100
AcDbSymbolTableRecord
100
AcDbLinetypeTableRecord
  2
DASHEDX2
 70
0
  3
Dashed (2x) ____  ____  ____  ____  ____  ___
 72
65
 73
2
 40
38.1000000000000014
 49
25.3999999999999986
 74
0
 49
-12.6999999999999993
 74
0
  0
LTYPE
  5
37
100
AcDbSymbolTableRecord
100
AcDbLinetypeTableRecord
  2
DASHDOT
 70
0
  3
Dash dot __ . __ . __ . __ . __ . __ . __ . __
 72
65
 73
4
 40
25.3999999999999986
 49
12.6999999999999993
 74
0
 49
-6.3499999999999996
 74
0
 49
0.0
 74
0
 49
-6.3499999999999996
 74
0
  0
LTYPE
  5
38
100
AcDbSymbolTableRecord
100
AcDbLinetypeTableRecord
  2
DASHDOT2
 70
0
  3
Dash dot (.5x) _._._._._._._._._._._._._._._.
 72
65
 73
4
 40
12.6999999999999993
 49
6.3499999999999996
 74
0
 49
-3.1749999999999998
 74
0
 49
0.0
 74
0
 49
-3.1749999999999998
 74
0
  0
LTYPE
  5
39
100
AcDbSymbolTableRecord
100
AcDbLinetypeTableRecord
  2
DASHDOTX2
 70
0
  3
Dash dot (2x) ____  .  ____  .  ____  .  ___
 72
65
 73
4
 40
50.7999999999999972
 49
25.3999999999999986
 74
0
 49
-12.6999999999999993
 74
0
 49
0.0
 74
0
 49
-12.6999999999999993
 74
0
  0
LTYPE
  5
3A
100
AcDbSymbolTableRecord
100
AcDbLinetypeTableRecord
  2
DIVIDE
 70
0
  3
Divide ____ . . ____ . . ____ . . ____ . . ____
 72
65
 73
6
 40
31.75
 49
12.6999999999999993
 74
0
 49
-6.3499999999999996
 74
0
 49
0.0
 74
0
 49
-6.3499999999999996
 74
0
 49
0.0
 74
0
 49
-6.3499999999999996
 74
0
  0
LTYPE
  5
3B
100
AcDbSymbolTableRecord
100
AcDbLinetypeTableRecord
  2
DIVIDE2
 70
0
  3
Divide (.5x) __..__..__..__..__..__..__..__.._
 72
65
 73
6
 40
15.875
 49
6.3499999999999996
 74
0
 49
-3.1749999999999998
 74
0
 49
0.0
 74
0
 49
-3.1749999999999998
 74
0
 49
0.0
 74
0
 49
-3.1749999999999998
 74
0
  0
LTYPE
  5
3C
100
AcDbSymbolTableRecord
100
AcDbLinetypeTableRecord
  2
DIVIDEX2
 70
0
  3
Divide (2x) ________  .  .  ________  .  .  _
 72
65
 73
6
 40
63.5
 49
25.3999999999999986
 74
0
 49
-12.6999999999999993
 74
0
 49
0.0
 74
0
 49
-12.6999999999999993
 74
0
 49
0.0
 74
0
 49
-12.6999999999999993
 74
0
  0
LTYPE
  5
3D
100
AcDbSymbolTableRecord
100
AcDbLinetypeTableRecord
  2
CENTER
 70
0
  3
Center ____ _ ____ _ ____ _ ____ _ ____ _ ____
 72
65
 73
4
 40
50.7999999999999972
 49
31.75
 74
0
 49
-6.3499999999999996
 74
0
 49
6.3499999999999996
 74
0
 49
-6.3499999999999996
 74
0
  0
LTYPE
  5
3E
100
AcDbSymbolTableRecord
100
AcDbLinetypeTableRecord
  2
CENTER2
 70
0
  3
Center (.5x) ___ _ ___ _ ___ _ ___ _ ___ _ ___
 72
65
 73
4
 40
28.5749999999999993
 49
19.0500000000000007
 74
0
 49
-3.1749999999999998
 74
0
 49
3.1749999999999998
 74
0
 49
-3.1749999999999998
 74
0
  0
LTYPE
  5
3F
100
AcDbSymbolTableRecord
100
AcDbLinetypeTableRecord
  2
CENTERX2
 70
0
  3
Center (2x) ________  __  ________  __  _____
 72
65
 73
4
 40
101.5999999999999943
 49
63.5
 74
0
 49
-12.6999999999999993
 74
0
 49
12.6999999999999993
 74
0
 49
-12.6999999999999993
 74
0
  0
LTYPE
  5
40
100
AcDbSymbolTableRecord
100
AcDbLinetypeTableRecord
  2
BORDER
 70
0
  3
Border __ __ . __ __ . __ __ . __ __ . __ __ .
 72
65
 73
6
 40
44.4500000000000028
 49
12.6999999999999993
 74
0
 49
-6.3499999999999996
 74
0
 49
12.6999999999999993
 74
0
 49
-6.3499999999999996
 74
0
 49
0.0
 74
0
 49
-6.3499999999999996
 74
0
  0
LTYPE
  5
41
100
AcDbSymbolTableRecord
100
AcDbLinetypeTableRecord
  2
BORDER2
 70
0
  3
Border (.5x) __.__.__.__.__.__.__.__.__.__.__.
 72
65
 73
6
 40
22.2250000000000014
 49
6.3499999999999996
 74
0
 49
-3.1749999999999998
 74
0
 49
6.3499999999999996
 74
0
 49
-3.1749999999999998
 74
0
 49
0.0
 74
0
 49
-3.1749999999999998
 74
0
  0
LTYPE
  5
42
100
AcDbSymbolTableRecord
100
AcDbLinetypeTableRecord
  2
BORDERX2
 70
0
  3
Border (2x) ____  ____  .  ____  ____  .  ___
 72
65
 73
6
 40
88.9000000000000057
 49
25.3999999999999986
 74
0
 49
-12.6999999999999993
 74
0
 49
25.3999999999999986
 74
0
 49
-12.6999999999999993
 74
0
 49
0.0
 74
0
 49
-12.6999999999999993
 74
0
  0
ENDTAB
  0
TABLE
  2
LAYER
  5
2
100
AcDbSymbolTable
 70
8
  0
LAYER
  5
10
100
AcDbSymbolTableRecord
100
AcDbLayerTableRecord
  2
0
 70
0
 62
7
  6
CONTINUOUS
370
0
390
F
  0
LAYER
  5
43
100
AcDbSymbolTableRecord
100
AcDbLayerTableRecord
  2
Middle Layer
 70
0
 62
7
  6
CONTINUOUS
370
0
390
F
  0
LAYER
  5
44
100
AcDbSymbolTableRecord
100
AcDbLayerTableRecord
  2
Top Layer
 70
0
 62
7
  6
CONTINUOUS
370
0
390
F
  0
LAYER
  5
45
100
AcDbSymbolTableRecord
100
AcDbLayerTableRecord
  2
Middle Text
 70
0
 62
4
  6
CONTINUOUS
370
0
390
F
  0
LAYER
  5
46
100
AcDbSymbolTableRecord
100
AcDbLayerTableRecord
  2
Notes
 70
0
 62
7
  6
CONTINUOUS
370
0
390
F
  0
LAYER
  5
47
100
AcDbSymbolTableRecord
100
AcDbLayerTableRecord
  2
Bottom
 70
0
 62
7
  6
CONTINUOUS
370
0
390
F
  0
LAYER
  5
48
100
AcDbSymbolTableRecord
100
AcDbLayerTableRecord
  2
Bottom Text
 70
0
 62
4
  6
CONTINUOUS
370
0
390
F
  0
LAYER
  5
49
100
AcDbSymbolTableRecord
100
AcDbLayerTableRecord
  2
Top Text
 70
0
 62
4
  6
CONTINUOUS
370
0
390
F
  0
ENDTAB
  0
TABLE
  2
STYLE
  5
3
100
AcDbSymbolTable
 70
1
  0
STYLE
  5
11
100
AcDbSymbolTableRecord
100
AcDbTextStyleTableRecord
  2
Standard
 70
0
 40
0.0
 41
0.75
 50
0.0
 71
0
 42
2.5
  3
txt
  4

  0
ENDTAB
  0
TABLE
  2
VIEW
  5
6
100
AcDbSymbolTable
 70
0
  0
ENDTAB
  0
TABLE
  2
UCS
  5
7
100
AcDbSymbolTable
 70
0
  0
ENDTAB
  0
TABLE
  2
APPID
  5
9
100
AcDbSymbolTable
 70
1
  0
APPID
  5
12
100
AcDbSymbolTableRecord
100
AcDbRegAppTableRecord
  2
ACAD
 70
0
  0
ENDTAB
  0
TABLE
  2
DIMSTYLE
  5
A
100
AcDbSymbolTable
 70
1
100
AcDbDimStyleTable
 71
0
  0
DIMSTYLE
105
27
100
AcDbSymbolTableRecord
100
AcDbDimStyleTableRecord
  2
Standard
 41
2.5
 42
0.625
 43
3.75
 44
1.25
 70
0
 73
0
 74
0
 77
1
 78
8
140
2.5
141
2.5
143
0.03937007874016
147
0.625
171
3
172
1
271
2
272
2
274
3
278
44
283
0
284
8
340
11
  0
ENDTAB
  0
TABLE
  2
BLOCK_RECORD
  5
1
100
AcDbSymbolTable
 70
1
  0
BLOCK_RECORD
  5
1F
100
AcDbSymbolTableRecord
100
AcDbBlockTableRecord
  2
*Model_Space
340
22
  0
BLOCK_RECORD
  5
1B
100
AcDbSymbolTableRecord
100
AcDbBlockTableRecord
  2
*Paper_Space
340
1E
  0
BLOCK_RECORD
  5
23
100
AcDbSymbolTableRecord
100
AcDbBlockTableRecord
  2
*Paper_Space0
340
26
  0
ENDTAB
  0
ENDSEC
  0
SECTION
  2
BLOCKS
  0
BLOCK
  5
20
100
AcDbEntity
  8
0
100
AcDbBlockBegin
  2
*Model_Space
 70
0
 10
0.0
 20
0.0
 30
0.0
  3
*Model_Space
  1

  0
ENDBLK
  5
21
100
AcDbEntity
  8
0
100
AcDbBlockEnd
  0
BLOCK
  5
1C
100
AcDbEntity
 67
1
  8
0
100
AcDbBlockBegin
  2
*Paper_Space
 70
0
 10
0.0
 20
0.0
 30
0.0
  3
*Paper_Space
  1

  0
ENDBLK
  5
1D
100
AcDbEntity
 67
1
  8
0
100
AcDbBlockEnd
  0
BLOCK
  5
24
100
AcDbEntity
  8
0
100
AcDbBlockBegin
  2
*Paper_Space0
 70
0
 10
0.0
 20
0.0
 30
0.0
  3
*Paper_Space0
  1

  0
ENDBLK
  5
25
100
AcDbEntity
  8
0
100
AcDbBlockEnd
  0
ENDSEC
  0
SECTION
  2
ENTITIES
  0
LINE
  5
4A
100
AcDbEntity
100
AcDbLine
  8
Middle Layer
 62
256
370
-1
  6
ByLayer
 10
113.3284807762187256
 20
48.4226196714959869
 30
0.0
 11
118.573439407585056
 21
34.0122142658438165
 31
0.0
  0
CIRCLE
  5
4B
100
AcDbEntity
100
AcDbCircle
  8
Middle Layer
 62
256
370
-1
  6
ByLayer
 10
155.8239678899062142
 20
33.5322497376347641
 30
0.0
 40
1.424999999999996
  0
CIRCLE
  5
4C
100
AcDbEntity
100
AcDbCircle
  8
Middle Layer
 62
256
370
-1
  6
ByLayer
 10
139.8239678899065552
 20
11.5322497376347037
 30
0.0
 40
1.424999999999996
  0
CIRCLE
  5
4D
100
AcDbEntity
100
AcDbCircle
  8
Middle Layer
 62
256
370
-1
  6
ByLayer
 10
155.8239678899064415
 20
11.5322497376347464
 30
0.0
 40
1.424999999999996
  0
CIRCLE
  5
4E
100
AcDbEntity
100
AcDbCircle
  8
Middle Layer
 62
256
370
-1
  6
ByLayer
 10
125.0110949325216581
 20
45.5629450784838639
 30
0.0
 40
1.424999999999996
  0
CIRCLE
  5
4F
100
AcDbEntity
100
AcDbCircle
  8
Middle Layer
 62
256
370
-1
  6
ByLayer
 10
153.2018735560986897
 20
55.8235493782541639
 30
0.0
 40
1.424999999999996
  0
LINE
  5
50
100
AcDbEntity
100
AcDbLine
  8
Middle Layer
 62
256
370
-1
  6
ByLayer
 10
110.4838665747775366
 20
56.2381329570156083
 30
0.0
 11
123.7805171588980357
 21
61.0777179850740239
 31
0.0
  0
LINE
  5
51
100
AcDbEntity
100
AcDbLine
  8
Middle Layer
 62
256
370
-1
  6
ByLayer
 10
117.3963037606382898
 20
37.2463678754653742
 30
0.0
 11
110.4838665747775366
 21
56.2381329570156083
 31
0.0
  0
LINE
  5
52
100
AcDbEntity
100
AcDbLine
  8
Middle Layer
 62
256
370
-1
  6
ByLayer
 10
122.82396788990674
 20
4.5322497376349347
 30
0.0
 11
122.82396788990674
 21
6.4645549761553056
 31
0.0
  0
LINE
  5
53
100
AcDbEntity
100
AcDbLine
  8
Middle Layer
 62
256
370
-1
  6
ByLayer
 10
146.2239678899065325
 20
4.5322497376349347
 30
0.0
 11
122.82396788990674
 21
4.5322497376349347
 31
0.0
  0
LINE
  5
54
100
AcDbEntity
100
AcDbLine
  8
Middle Layer
 62
256
370
-1
  6
ByLayer
 10
116.1068193937180553
 20
51.8996537769377966
 30
0.0
 11
122.1208521667477811
 21
54.0885826942221328
 31
0.0
  0
LINE
  5
55
100
AcDbEntity
100
AcDbLine
  8
Middle Layer
 62
256
370
-1
  6
ByLayer
 10
122.8898798252146065
 20
53.7299792077459628
 30
0.0
 11
123.8475362265266853
 21
51.0988398695455075
 31
0.0
  0
LINE
  5
56
100
AcDbEntity
100
AcDbLine
  8
Middle Layer
 62
256
370
-1
  6
ByLayer
 10
123.4889327400504868
 20
50.3298122110785116
 30
0.0
 11
117.4748999670207326
 21
48.1408832937940687
 31
0.0
  0
LINE
  5
57
100
AcDbEntity
100
AcDbLine
  8
Middle Layer
 62
256
370
-1
  6
ByLayer
 10
116.7058723085537792
 20
48.4994867802703453
 30
0.0
 11
115.7482159072418142
 21
51.1306261184706941
 31
0.0
  0
LINE
  5
58
100
AcDbEntity
100
AcDbLine
  8
Middle Layer
 62
256
370
-1
  6
ByLayer
 10
135.6239678899065382
 20
15.9322497376346881
 30
0.0
 11
135.6239678899066234
 21
13.1322497376346767
 31
0.0
  0
LINE
  5
59
100
AcDbEntity
100
AcDbLine
  8
Middle Layer
 62
256
370
-1
  6
ByLayer
 10
135.0239678899066575
 20
12.5322497376345972
 30
0.0
 11
128.6239678899066234
 21
12.5322497376345368
 31
0.0
  0
LINE
  5
5A
100
AcDbEntity
100
AcDbLine
  8
Middle Layer
 62
256
370
-1
  6
ByLayer
 10
128.0239678899066575
 20
13.1322497376345595
 30
0.0
 11
128.0239678899065723
 21
15.9322497376346259
 31
0.0
  0
LINE
  5
5B
100
AcDbEntity
100
AcDbLine
  8
Middle Layer
 62
256
370
-1
  6
ByLayer
 10
128.6239678899065666
 20
16.5322497376345368
 30
0.0
 11
135.0239678899065439
 21
16.5322497376345332
 31
0.0
  0
LINE
  5
5C
100
AcDbEntity
100
AcDbLine
  8
Middle Layer
 62
256
370
-1
  6
ByLayer
 10
172.8239678899064415
 20
4.5322497376349347
 30
0.0
 11
149.4239678899065211
 21
4.5322497376349347
 31
0.0
  0
LINE
  5
5D
100
AcDbEntity
100
AcDbLine
  8
Middle Layer
 62
256
370
-1
  6
ByLayer
 10
172.8239678899063279
 20
15.2809040115788832
 30
0.0
 11
172.8239678899064415
 21
4.5322497376349347
 31
0.0
  0
LINE
  5
5E
100
AcDbEntity
100
AcDbLine
  8
Middle Layer
 62
256
370
-1
  6
ByLayer
 10
157.468497614072561
 20
73.3391401232993303
 30
0.0
 11
167.3963037606378919
 21
46.0627169108889447
 31
0.0
  0
LINE
  5
5F
100
AcDbEntity
100
AcDbLine
  8
Middle Layer
 62
256
370
-1
  6
ByLayer
 10
149.4239678899060948
 20
70.4111707550329982
 30
0.0
 11
157.468497614072561
 21
73.3391401232993303
 31
0.0
  0
LINE
  5
60
100
AcDbEntity
100
AcDbLine
  8
Middle Layer
 62
256
370
-1
  6
ByLayer
 10
167.0239678899063733
 20
12.5322497376349293
 30
0.0
 11
160.6239678899064529
 21
12.532249737634876
 31
0.0
  0
LINE
  5
61
100
AcDbEntity
100
AcDbLine
  8
Middle Layer
 62
256
370
-1
  6
ByLayer
 10
160.0239678899064302
 20
13.132249737634849
 30
0.0
 11
160.0239678899063733
 21
15.9322497376348569
 31
0.0
  0
LINE
  5
62
100
AcDbEntity
100
AcDbLine
  8
Middle Layer
 62
256
370
-1
  6
ByLayer
 10
160.6239678899063961
 20
16.5322497376348849
 30
0.0
 11
167.0239678899063733
 21
16.5322497376348636
 31
0.0
  0
LINE
  5
63
100
AcDbEntity
100
AcDbLine
  8
Middle Layer
 62
256
370
-1
  6
ByLayer
 10
167.6239678899063392
 20
15.9322497376348728
 30
0.0
 11
167.6239678899063961
 21
13.1322497376349467
 31
0.0
  0
LINE
  5
64
100
AcDbEntity
100
AcDbLine
  8
Middle Layer
 62
256
370
-1
  6
ByLayer
 10
150.5348066568461434
 20
60.8122119399945547
 30
0.0
 11
149.5771502555342636
 21
63.4433512781951876
 31
0.0
  0
LINE
  5
65
100
AcDbEntity
100
AcDbLine
  8
Middle Layer
 62
256
370
-1
  6
ByLayer
 10
149.9357537420105189
 20
64.2123789366622475
 30
0.0
 11
155.9497865150401879
 21
66.401307853946463
 31
0.0
  0
LINE
  5
66
100
AcDbEntity
100
AcDbLine
  8
Middle Layer
 62
256
370
-1
  6
ByLayer
 10
156.7188141735071554
 20
66.0427043674702361
 30
0.0
 11
157.6764705748190636
 21
63.4115650292697737
 31
0.0
  0
LINE
  5
67
100
AcDbEntity
100
AcDbLine
  8
Middle Layer
 62
256
370
-1
  6
ByLayer
 10
157.3178670883428083
 20
62.6425373708028417
 30
0.0
 11
151.3038343153131393
 21
60.4536084535185125
 31
0.0
  0
ARC
  5
68
100
AcDbEntity
  8
Middle Layer
 62
256
370
-1
  6
ByLayer
100
AcDbCircle
 10
122.3260642527431514
 20
53.5247671217506067
 30
0.0
 40
0.5999999999999791
100
AcDbArc
 50
20.0000000000006892
 51
110.0000000000033396
  0
ARC
  5
69
100
AcDbEntity
  8
Middle Layer
 62
256
370
-1
  6
ByLayer
100
AcDbCircle
 10
123.2837206540550596
 20
50.893627783549924
 30
0.0
 40
0.599999999999983
100
AcDbArc
 50
290.0000000000000568
 51
20.0000000000032863
  0
ARC
  5
6A
100
AcDbEntity
  8
Middle Layer
 62
256
370
-1
  6
ByLayer
100
AcDbCircle
 10
117.269687881025348
 20
48.7046988662655949
 30
0.0
 40
0.599999999999974
100
AcDbArc
 50
199.9999999999969873
 51
290.0000000000000568
  0
ARC
  5
6B
100
AcDbEntity
  8
Middle Layer
 62
256
370
-1
  6
ByLayer
100
AcDbCircle
 10
116.3120314797134398
 20
51.3358382044662775
 30
0.0
 40
0.600000000000009
100
AcDbArc
 50
110.0000000000018048
 51
199.9999999999990621
  0
ARC
  5
6C
100
AcDbEntity
  8
Middle Layer
 62
256
370
-1
  6
ByLayer
100
AcDbCircle
 10
135.0239678899066575
 20
13.1322497376347265
 30
0.0
 40
0.599999999999999
100
AcDbArc
 50
270.0
 51
360.0
  0
ARC
  5
6D
100
AcDbEntity
  8
Middle Layer
 62
256
370
-1
  6
ByLayer
100
AcDbCircle
 10
128.6239678899066519
 20
13.1322497376345577
 30
0.0
 40
0.5999999999999968
100
AcDbArc
 50
180.0
 51
270.0
  0
ARC
  5
6E
100
AcDbEntity
  8
Middle Layer
 62
256
370
-1
  6
ByLayer
100
AcDbCircle
 10
128.6239678899065382
 20
15.9322497376345709
 30
0.0
 40
0.6000000000000034
100
AcDbArc
 50
90.0000000000017337
 51
180.0
  0
ARC
  5
6F
100
AcDbEntity
  8
Middle Layer
 62
256
370
-1
  6
ByLayer
100
AcDbCircle
 10
135.0239678899065439
 20
15.9322497376346792
 30
0.0
 40
0.6000000000000013
100
AcDbArc
 50
360.0
 51
89.9999999999983231
  0
ARC
  5
70
100
AcDbEntity
  8
Middle Layer
 62
256
370
-1
  6
ByLayer
100
AcDbCircle
 10
160.6239678899064529
 20
13.1322497376348579
 30
0.0
 40
0.5999999999999968
100
AcDbArc
 50
180.0
 51
270.0
  0
ARC
  5
71
100
AcDbEntity
  8
Middle Layer
 62
256
370
-1
  6
ByLayer
100
AcDbCircle
 10
160.6239678899063961
 20
15.9322497376348462
 30
0.0
 40
0.6000000000000034
100
AcDbArc
 50
90.0000000000017337
 51
180.0
  0
ARC
  5
72
100
AcDbEntity
  8
Middle Layer
 62
256
370
-1
  6
ByLayer
100
AcDbCircle
 10
167.0239678899063733
 20
15.9322497376348728
 30
0.0
 40
0.599999999999999
100
AcDbArc
 50
360.0
 51
89.9999999999983231
  0
ARC
  5
73
100
AcDbEntity
  8
Middle Layer
 62
256
370
-1
  6
ByLayer
100
AcDbCircle
 10
167.0239678899064302
 20
13.1322497376349858
 30
0.0
 40
0.599999999999999
100
AcDbArc
 50
270.0
 51
360.0
  0
ARC
  5
74
100
AcDbEntity
  8
Middle Layer
 62
256
370
-1
  6
ByLayer
100
AcDbCircle
 10
150.1409658280058466
 20
63.6485633641905935
 30
0.0
 40
0.5999999999999952
100
AcDbArc
 50
110.0000000000002842
 51
200.0000000000001705
  0
ARC
  5
75
100
AcDbEntity
  8
Middle Layer
 62
256
370
-1
  6
ByLayer
100
AcDbCircle
 10
156.1549986010357429
 20
65.83749228147488
 30
0.0
 40
0.5999999999999801
100
AcDbArc
 50
20.0000000000001812
 51
110.0000000000018048
  0
ARC
  5
76
100
AcDbEntity
  8
Middle Layer
 62
256
370
-1
  6
ByLayer
100
AcDbCircle
 10
157.1126550023474522
 20
63.2063529432743536
 30
0.0
 40
0.5999999999999871
100
AcDbArc
 50
290.0000000000000568
 51
20.0000000000001812
  0
ARC
  5
77
100
AcDbEntity
  8
Middle Layer
 62
256
370
-1
  6
ByLayer
100
AcDbCircle
 10
151.0986222293178116
 20
61.0174240259899676
 30
0.0
 40
0.5999999999999908
100
AcDbArc
 50
200.0000000000001421
 51
290.000000000001819
  0
ARC
  5
78
100
AcDbEntity
  8
Middle Layer
 62
256
370
-1
  6
ByLayer
100
AcDbCircle
 10
32.8239678899074505
 20
6.4645549761542602
 30
0.0
 40
89.9999999999994458
100
AcDbArc
 50
360.0
 51
20.0000000000005862
  0
ARC
  5
79
100
AcDbEntity
  8
Middle Layer
 62
256
370
-1
  6
ByLayer
100
AcDbCircle
 10
82.8239678899076353
 20
15.2809040115780697
 30
0.0
 40
89.9999999999989058
100
AcDbArc
 50
360.0
 51
20.0000000000006892
  0
LINE
  5
7A
100
AcDbEntity
100
AcDbLine
  8
Middle Layer
 62
256
370
-1
  6
ByLayer
 10
152.323967889906271
 20
34.0322497376347997
 30
0.0
 11
152.323967889906271
 21
16.0322497376347997
 31
0.0
  0
LINE
  5
7B
100
AcDbEntity
100
AcDbLine
  8
Middle Layer
 62
256
370
-1
  6
ByLayer
 10
145.323967889906271
 20
16.0322497376346789
 30
0.0
 11
145.323967889906271
 21
34.0322497376346789
 31
0.0
  0
LINE
  5
7C
100
AcDbEntity
100
AcDbLine
  8
Middle Layer
 62
256
370
-1
  6
ByLayer
 10
146.2239678899065325
 20
4.5322497376349347
 30
0.0
 11
146.2239678899064756
 21
16.0322497376346895
 31
0.0
  0
LINE
  5
7D
100
AcDbEntity
100
AcDbLine
  8
Middle Layer
 62
256
370
-1
  6
ByLayer
 10
149.4239678899063506
 20
34.0322497376347499
 30
0.0
 11
152.323967889906271
 21
34.0322497376347997
 31
0.0
  0
LINE
  5
7E
100
AcDbEntity
100
AcDbLine
  8
Middle Layer
 62
256
370
-1
  6
ByLayer
 10
149.4239678899060948
 20
70.4111707550329982
 30
0.0
 11
149.4239678899063506
 21
34.0322497376347499
 31
0.0
  0
LINE
  5
7F
100
AcDbEntity
100
AcDbLine
  8
Middle Layer
 62
256
370
-1
  6
ByLayer
 10
149.4239678899065211
 20
16.0322497376347499
 30
0.0
 11
149.4239678899065211
 21
4.5322497376349347
 31
0.0
  0
LINE
  5
80
100
AcDbEntity
100
AcDbLine
  8
Middle Layer
 62
256
370
-1
  6
ByLayer
 10
149.4239678899065211
 20
16.0322497376347499
 30
0.0
 11
152.323967889906271
 21
16.0322497376347997
 31
0.0
  0
LINE
  5
81
100
AcDbEntity
100
AcDbLine
  8
Middle Layer
 62
256
370
-1
  6
ByLayer
 10
146.2239678899063051
 20
34.0322497376346931
 30
0.0
 11
145.323967889906271
 21
34.0322497376346789
 31
0.0
  0
LINE
  5
82
100
AcDbEntity
100
AcDbLine
  8
Middle Layer
 62
256
370
-1
  6
ByLayer
 10
146.2239678899064756
 20
16.0322497376346895
 30
0.0
 11
145.323967889906271
 21
16.0322497376346789
 31
0.0
  0
LINE
  5
83
100
AcDbEntity
100
AcDbLine
  8
Middle Layer
 62
256
370
-1
  6
ByLayer
 10
110.4838665747775366
 20
56.2381329570156083
 30
0.0
 11
126.3646718660592967
 21
62.0182733792196572
 31
0.0
  0
LINE
  5
84
100
AcDbEntity
100
AcDbLine
  8
Middle Layer
 62
256
370
-1
  6
ByLayer
 10
126.3646718660592967
 20
62.0182733792196572
 30
0.0
 11
130.8109337292929126
 21
49.8022693090027886
 31
0.0
  0
LINE
  5
85
100
AcDbEntity
100
AcDbLine
  8
Middle Layer
 62
256
370
-1
  6
ByLayer
 10
146.2239678899063051
 20
34.0322497376346931
 30
0.0
 11
146.223967889906163
 21
55.4121549631942329
 31
0.0
  0
LINE
  5
86
100
AcDbEntity
100
AcDbLine
  8
Middle Layer
 62
256
370
-1
  6
ByLayer
 10
130.8109337292929126
 20
49.8022693090027886
 30
0.0
 11
146.223967889906163
 21
55.4121549631942329
 31
0.0
  0
MTEXT
  5
87
100
AcDbEntity
100
AcDbMText
  8
Middle Text
 62
256
370
-1
  6
ByLayer
 10
123.4838665747775366
 20
40.2381329570156012
 30
0.0
 40
2.0
 41
100.0
 71
1
 72
2
  1
Top\~Plate\PMiddle
  7
standard
 50
0.0
 73
1
 44
1.0
  0
MTEXT
  5
88
100
AcDbEntity
100
AcDbMText
  8
Middle Text
 62
256
370
-1
  6
ByLayer
 10
152.4838665747775224
 20
45.2381329570156012
 30
0.0
 40
2.0
 41
100.0
 71
1
 72
2
  1
Top\~Plate\PMiddle
  7
standard
 50
0.0
 73
1
 44
1.0
  0
CIRCLE
  5
89
100
AcDbEntity
100
AcDbCircle
  8
Middle Layer
 62
256
370
-1
  6
ByLayer
 10
129.823967889906271
 20
30.5322497376344231
 30
0.0
 40
1.424999999999996
  0
CIRCLE
  5
8A
100
AcDbEntity
100
AcDbCircle
  8
Middle Layer
 62
256
370
-1
  6
ByLayer
 10
129.8239678899064415
 20
19.5322497376344231
 30
0.0
 40
1.424999999999996
  0
CIRCLE
  5
8B
100
AcDbEntity
100
AcDbCircle
  8
Middle Layer
 62
256
370
-1
  6
ByLayer
 10
137.823967889906271
 20
30.5322497376345545
 30
0.0
 40
1.424999999999996
  0
CIRCLE
  5
8C
100
AcDbEntity
100
AcDbCircle
  8
Middle Layer
 62
256
370
-1
  6
ByLayer
 10
137.82396788990647
 20
19.532249737634551
 30
0.0
 40
1.424999999999996
  0
LINE
  5
8D
100
AcDbEntity
100
AcDbLine
  8
Top Layer
 62
256
370
-1
  6
ByLayer
 10
170.5045128863118293
 20
51.9580646953420242
 30
0.0
 11
175.7494715176781881
 21
37.5476592896898467
 31
0.0
  0
CIRCLE
  5
8E
100
AcDbEntity
100
AcDbCircle
  8
Top Layer
 62
256
370
-1
  6
ByLayer
 10
212.9999999999993179
 20
37.0676947614807943
 30
0.0
 40
1.424999999999996
  0
CIRCLE
  5
8F
100
AcDbEntity
100
AcDbCircle
  8
Top Layer
 62
256
370
-1
  6
ByLayer
 10
196.9999999999996589
 20
15.0676947614807482
 30
0.0
 40
1.424999999999996
  0
CIRCLE
  5
90
100
AcDbEntity
100
AcDbCircle
  8
Top Layer
 62
256
370
-1
  6
ByLayer
 10
212.9999999999995453
 20
15.0676947614807801
 30
0.0
 40
1.424999999999996
  0
CIRCLE
  5
91
100
AcDbEntity
100
AcDbCircle
  8
Top Layer
 62
256
370
-1
  6
ByLayer
 10
182.1871270426147476
 20
49.098390102329887
 30
0.0
 40
1.424999999999996
  0
CIRCLE
  5
92
100
AcDbEntity
100
AcDbCircle
  8
Top Layer
 62
256
370
-1
  6
ByLayer
 10
210.3779056661917934
 20
59.3589944021001941
 30
0.0
 40
1.424999999999996
  0
ARC
  5
93
100
AcDbEntity
  8
Top Layer
 62
256
370
-1
  6
ByLayer
100
AcDbCircle
 10
207.6780036189985594
 20
16.3412884086887722
 30
0.0
 40
0.4999999999999964
100
AcDbArc
 50
199.9999999999984368
 51
290.0000000000009663
  0
ARC
  5
94
100
AcDbEntity
  8
Top Layer
 62
256
370
-1
  6
ByLayer
100
AcDbCircle
 10
211.906620412535176
 20
17.8803790536541918
 30
0.0
 40
0.4999999999999947
100
AcDbArc
 50
289.9999999999990905
 51
19.9999999999984013
  0
LINE
  5
95
100
AcDbEntity
100
AcDbLine
  8
Top Layer
 62
256
370
-1
  6
ByLayer
 10
207.2081573086055641
 20
16.170278337025902
 30
0.0
 11
206.5999999999996248
 21
17.8411768098971706
 31
0.0
  0
LINE
  5
96
100
AcDbEntity
100
AcDbLine
  8
Top Layer
 62
256
370
-1
  6
ByLayer
 10
212.0776304841979254
 20
17.4105327432613102
 30
0.0
 11
207.8490136906613657
 21
15.8714420982957627
 31
0.0
  0
LINE
  5
97
100
AcDbEntity
100
AcDbLine
  8
Top Layer
 62
256
370
-1
  6
ByLayer
 10
206.5999999999996248
 20
17.8411768098971706
 30
0.0
 11
206.5999999999996248
 21
8.0676947614809631
 31
0.0
  0
LINE
  5
98
100
AcDbEntity
100
AcDbLine
  8
Top Layer
 62
256
370
-1
  6
ByLayer
 10
174.572335870731365
 20
40.7818128993114044
 30
0.0
 11
167.6598986848706545
 21
59.7735779808616314
 31
0.0
  0
LINE
  5
99
100
AcDbEntity
100
AcDbLine
  8
Top Layer
 62
256
370
-1
  6
ByLayer
 10
179.9999999999998295
 20
8.0676947614809649
 30
0.0
 11
180.0000000000013358
 21
10.0
 31
0.0
  0
LINE
  5
9A
100
AcDbEntity
100
AcDbLine
  8
Top Layer
 62
256
370
-1
  6
ByLayer
 10
203.3999999999996362
 20
8.0676947614809329
 30
0.0
 11
179.9999999999998295
 21
8.0676947614809649
 31
0.0
  0
LINE
  5
9B
100
AcDbEntity
100
AcDbLine
  8
Top Layer
 62
256
370
-1
  6
ByLayer
 10
173.2828515038111448
 20
55.435098800783841
 30
0.0
 11
179.296884276840899
 21
57.624027718068163
 31
0.0
  0
LINE
  5
9C
100
AcDbEntity
100
AcDbLine
  8
Top Layer
 62
256
370
-1
  6
ByLayer
 10
180.0659119353077244
 20
57.2654242315919859
 30
0.0
 11
181.0235683366198032
 21
54.6342848933915377
 31
0.0
  0
LINE
  5
9D
100
AcDbEntity
100
AcDbLine
  8
Top Layer
 62
256
370
-1
  6
ByLayer
 10
180.6649648501436047
 20
53.8652572349245347
 30
0.0
 11
174.6509320771138505
 21
51.6763283176400989
 31
0.0
  0
LINE
  5
9E
100
AcDbEntity
100
AcDbLine
  8
Top Layer
 62
256
370
-1
  6
ByLayer
 10
173.881904418646883
 20
52.0349318041163826
 30
0.0
 11
172.9242480173349179
 21
54.6660711423167314
 31
0.0
  0
LINE
  5
9F
100
AcDbEntity
100
AcDbLine
  8
Top Layer
 62
256
370
-1
  6
ByLayer
 10
192.7999999999996419
 20
19.4676947614807148
 30
0.0
 11
192.7999999999997556
 21
16.6676947614807034
 31
0.0
  0
LINE
  5
A0
100
AcDbEntity
100
AcDbLine
  8
Top Layer
 62
256
370
-1
  6
ByLayer
 10
192.1999999999997613
 20
16.0676947614806807
 30
0.0
 11
185.7999999999997272
 21
16.067694761480567
 31
0.0
  0
LINE
  5
A1
100
AcDbEntity
100
AcDbLine
  8
Top Layer
 62
256
370
-1
  6
ByLayer
 10
185.1999999999997613
 20
16.6676947614805897
 30
0.0
 11
185.199999999999676
 21
19.4676947614806579
 31
0.0
  0
LINE
  5
A2
100
AcDbEntity
100
AcDbLine
  8
Top Layer
 62
256
370
-1
  6
ByLayer
 10
185.7999999999996703
 20
20.067694761480567
 30
0.0
 11
192.1999999999996476
 21
20.067694761480567
 31
0.0
  0
LINE
  5
A3
100
AcDbEntity
100
AcDbLine
  8
Top Layer
 62
256
370
-1
  6
ByLayer
 10
229.9999999999995453
 20
8.0676947614808956
 30
0.0
 11
206.5999999999996248
 21
8.0676947614809631
 31
0.0
  0
LINE
  5
A4
100
AcDbEntity
100
AcDbLine
  8
Top Layer
 62
256
370
-1
  6
ByLayer
 10
229.9999999999994316
 20
18.8163490354249063
 30
0.0
 11
229.9999999999995453
 21
8.0676947614808956
 31
0.0
  0
LINE
  5
A5
100
AcDbEntity
100
AcDbLine
  8
Top Layer
 62
256
370
-1
  6
ByLayer
 10
214.6445297241656363
 20
76.874585147145396
 30
0.0
 11
224.572335870731024
 21
49.5981619347349678
 31
0.0
  0
LINE
  5
A6
100
AcDbEntity
100
AcDbLine
  8
Top Layer
 62
256
370
-1
  6
ByLayer
 10
206.5999999999991985
 20
73.9466157788790213
 30
0.0
 11
214.6445297241656363
 21
76.874585147145396
 31
0.0
  0
LINE
  5
A7
100
AcDbEntity
100
AcDbLine
  8
Top Layer
 62
256
370
-1
  6
ByLayer
 10
224.199999999999477
 20
16.0676947614810075
 30
0.0
 11
217.7999999999995566
 21
16.0676947614809045
 31
0.0
  0
LINE
  5
A8
100
AcDbEntity
100
AcDbLine
  8
Top Layer
 62
256
370
-1
  6
ByLayer
 10
217.1999999999995339
 20
16.6676947614808668
 30
0.0
 11
217.199999999999477
 21
19.4676947614808924
 31
0.0
  0
LINE
  5
A9
100
AcDbEntity
100
AcDbLine
  8
Top Layer
 62
256
370
-1
  6
ByLayer
 10
217.7999999999994998
 20
20.0676947614809222
 30
0.0
 11
224.199999999999477
 21
20.0676947614809222
 31
0.0
  0
LINE
  5
AA
100
AcDbEntity
100
AcDbLine
  8
Top Layer
 62
256
370
-1
  6
ByLayer
 10
224.7999999999994429
 20
19.4676947614808533
 30
0.0
 11
224.7999999999994998
 21
16.6676947614809521
 31
0.0
  0
LINE
  5
AB
100
AcDbEntity
100
AcDbLine
  8
Top Layer
 62
256
370
-1
  6
ByLayer
 10
207.7108387669392755
 20
64.347656963840592
 30
0.0
 11
206.7531823656273673
 21
66.9787963020412178
 31
0.0
  0
LINE
  5
AC
100
AcDbEntity
100
AcDbLine
  8
Top Layer
 62
256
370
-1
  6
ByLayer
 10
207.111785852103651
 20
67.7478239605082138
 30
0.0
 11
213.1258186251332916
 21
69.9367528777925003
 31
0.0
  0
LINE
  5
AD
100
AcDbEntity
100
AcDbLine
  8
Top Layer
 62
256
370
-1
  6
ByLayer
 10
213.8948462836002591
 20
69.5781493913162592
 30
0.0
 11
214.8525026849121673
 21
66.9470100531158039
 31
0.0
  0
LINE
  5
AE
100
AcDbEntity
100
AcDbLine
  8
Top Layer
 62
256
370
-1
  6
ByLayer
 10
214.4938991984359404
 20
66.1779823946488648
 30
0.0
 11
208.4798664254062714
 21
63.9890534773645356
 31
0.0
  0
ARC
  5
AF
100
AcDbEntity
  8
Top Layer
 62
256
370
-1
  6
ByLayer
100
AcDbCircle
 10
179.5020963628362551
 20
57.0602121455966369
 30
0.0
 40
0.5999999999999791
100
AcDbArc
 50
20.0000000000006892
 51
110.0000000000033396
  0
ARC
  5
B0
100
AcDbEntity
  8
Top Layer
 62
256
370
-1
  6
ByLayer
100
AcDbCircle
 10
180.4597527641481349
 20
54.4290728073959471
 30
0.0
 40
0.599999999999983
100
AcDbArc
 50
290.0000000000000568
 51
20.0000000000032863
  0
ARC
  5
B1
100
AcDbEntity
  8
Top Layer
 62
256
370
-1
  6
ByLayer
100
AcDbCircle
 10
174.4457199911184659
 20
52.2401438901116251
 30
0.0
 40
0.599999999999974
100
AcDbArc
 50
199.9999999999969873
 51
290.0000000000000568
  0
ARC
  5
B2
100
AcDbEntity
  8
Top Layer
 62
256
370
-1
  6
ByLayer
100
AcDbCircle
 10
173.4880635898065577
 20
54.8712832283123149
 30
0.0
 40
0.600000000000009
100
AcDbArc
 50
110.0000000000018048
 51
199.9999999999990621
  0
ARC
  5
B3
100
AcDbEntity
  8
Top Layer
 62
256
370
-1
  6
ByLayer
100
AcDbCircle
 10
192.1999999999997613
 20
16.6676947614807602
 30
0.0
 40
0.599999999999999
100
AcDbArc
 50
270.0
 51
360.0
  0
ARC
  5
B4
100
AcDbEntity
  8
Top Layer
 62
256
370
-1
  6
ByLayer
100
AcDbCircle
 10
185.7999999999997272
 20
16.6676947614805897
 30
0.0
 40
0.5999999999999968
100
AcDbArc
 50
180.0
 51
270.0
  0
ARC
  5
B5
100
AcDbEntity
  8
Top Layer
 62
256
370
-1
  6
ByLayer
100
AcDbCircle
 10
185.7999999999996419
 20
19.4676947614806011
 30
0.0
 40
0.6000000000000034
100
AcDbArc
 50
90.0000000000017337
 51
180.0
  0
ARC
  5
B6
100
AcDbEntity
  8
Top Layer
 62
256
370
-1
  6
ByLayer
100
AcDbCircle
 10
192.1999999999996476
 20
19.4676947614807148
 30
0.0
 40
0.6000000000000013
100
AcDbArc
 50
360.0
 51
89.9999999999983231
  0
ARC
  5
B7
100
AcDbEntity
  8
Top Layer
 62
256
370
-1
  6
ByLayer
100
AcDbCircle
 10
217.7999999999995566
 20
16.6676947614808988
 30
0.0
 40
0.5999999999999968
100
AcDbArc
 50
180.0
 51
270.0
  0
ARC
  5
B8
100
AcDbEntity
  8
Top Layer
 62
256
370
-1
  6
ByLayer
100
AcDbCircle
 10
217.7999999999994998
 20
19.4676947614808853
 30
0.0
 40
0.6000000000000034
100
AcDbArc
 50
90.0000000000017337
 51
180.0
  0
ARC
  5
B9
100
AcDbEntity
  8
Top Layer
 62
256
370
-1
  6
ByLayer
100
AcDbCircle
 10
224.199999999999477
 20
19.4676947614808782
 30
0.0
 40
0.599999999999999
100
AcDbArc
 50
360.0
 51
89.9999999999983231
  0
ARC
  5
BA
100
AcDbEntity
  8
Top Layer
 62
256
370
-1
  6
ByLayer
100
AcDbCircle
 10
224.1999999999995339
 20
16.6676947614809947
 30
0.0
 40
0.599999999999999
100
AcDbArc
 50
270.0
 51
360.0
  0
ARC
  5
BB
100
AcDbEntity
  8
Top Layer
 62
256
370
-1
  6
ByLayer
100
AcDbCircle
 10
207.3169979380989503
 20
67.1840083880366308
 30
0.0
 40
0.5999999999999952
100
AcDbArc
 50
110.0000000000002842
 51
200.0000000000001705
  0
ARC
  5
BC
100
AcDbEntity
  8
Top Layer
 62
256
370
-1
  6
ByLayer
100
AcDbCircle
 10
213.3310307111288466
 20
69.3729373053208889
 30
0.0
 40
0.5999999999999801
100
AcDbArc
 50
20.0000000000001812
 51
110.0000000000018048
  0
ARC
  5
BD
100
AcDbEntity
  8
Top Layer
 62
256
370
-1
  6
ByLayer
100
AcDbCircle
 10
214.2886871124405275
 20
66.7417979671204051
 30
0.0
 40
0.5999999999999871
100
AcDbArc
 50
290.0000000000000568
 51
20.0000000000001812
  0
ARC
  5
BE
100
AcDbEntity
  8
Top Layer
 62
256
370
-1
  6
ByLayer
100
AcDbCircle
 10
208.2746543394108869
 20
64.5528690498360049
 30
0.0
 40
0.5999999999999908
100
AcDbArc
 50
200.0000000000001421
 51
290.000000000001819
  0
ARC
  5
BF
100
AcDbEntity
  8
Top Layer
 62
256
370
-1
  6
ByLayer
100
AcDbCircle
 10
90.0000000000005542
 20
10.0000000000000107
 30
0.0
 40
89.9999999999994458
100
AcDbArc
 50
360.0
 51
20.0000000000005862
  0
ARC
  5
C0
100
AcDbEntity
  8
Top Layer
 62
256
370
-1
  6
ByLayer
100
AcDbCircle
 10
140.000000000000739
 20
18.8163490354241247
 30
0.0
 40
89.9999999999989058
100
AcDbArc
 50
360.0
 51
20.0000000000006892
  0
LINE
  5
C1
100
AcDbEntity
100
AcDbLine
  8
Top Layer
 62
256
370
-1
  6
ByLayer
 10
206.5999999999994543
 20
36.5676947614807801
 30
0.0
 11
209.4999999999993747
 21
36.5676947614808228
 31
0.0
  0
LINE
  5
C2
100
AcDbEntity
100
AcDbLine
  8
Top Layer
 62
256
370
-1
  6
ByLayer
 10
206.5999999999991985
 20
73.9466157788790213
 30
0.0
 11
206.5999999999994543
 21
36.5676947614807801
 31
0.0
  0
LINE
  5
C3
100
AcDbEntity
100
AcDbLine
  8
Top Layer
 62
256
370
-1
  6
ByLayer
 10
209.4999999999993747
 20
25.9544164943763462
 30
0.0
 11
212.3764667229280576
 21
18.0513891253170016
 31
0.0
  0
LINE
  5
C4
100
AcDbEntity
100
AcDbLine
  8
Top Layer
 62
256
370
-1
  6
ByLayer
 10
209.4999999999993747
 20
36.5676947614808228
 30
0.0
 11
209.4999999999993747
 21
25.9544164943763462
 31
0.0
  0
LINE
  5
C5
100
AcDbEntity
100
AcDbLine
  8
Top Layer
 62
256
370
-1
  6
ByLayer
 10
203.3999999999996362
 20
8.0676947614809329
 30
0.0
 11
203.3999999999995794
 21
20.5676947614807162
 31
0.0
  0
LINE
  5
C6
100
AcDbEntity
100
AcDbLine
  8
Top Layer
 62
256
370
-1
  6
ByLayer
 10
202.4999999999993747
 20
20.5676947614807091
 30
0.0
 11
203.3999999999995794
 21
20.5676947614807162
 31
0.0
  0
LINE
  5
C7
100
AcDbEntity
100
AcDbLine
  8
Top Layer
 62
256
370
-1
  6
ByLayer
 10
202.4999999999993747
 20
29.1058342296620616
 30
0.0
 11
202.4999999999993747
 21
20.5676947614807091
 31
0.0
  0
LINE
  5
C8
100
AcDbEntity
100
AcDbLine
  8
Top Layer
 62
256
370
-1
  6
ByLayer
 10
167.6598986848706545
 20
59.7735779808616314
 30
0.0
 11
183.5407039761524004
 21
65.5537184030656874
 31
0.0
  0
LINE
  5
C9
100
AcDbEntity
100
AcDbLine
  8
Top Layer
 62
256
370
-1
  6
ByLayer
 10
183.5407039761524004
 20
65.5537184030656874
 30
0.0
 11
187.9869658393860163
 21
53.3377143328488188
 31
0.0
  0
LINE
  5
CA
100
AcDbEntity
100
AcDbLine
  8
Top Layer
 62
256
370
-1
  6
ByLayer
 10
202.4999999999993747
 20
29.1058342296620616
 30
0.0
 11
193.0143213605906283
 21
55.167522099641161
 31
0.0
  0
LINE
  5
CB
100
AcDbEntity
100
AcDbLine
  8
Top Layer
 62
256
370
-1
  6
ByLayer
 10
187.9869658393860163
 20
53.3377143328488188
 30
0.0
 11
193.0143213605906283
 21
55.167522099641161
 31
0.0
  0
MTEXT
  5
CC
100
AcDbEntity
100
AcDbMText
  8
Top Text
 62
256
370
-1
  6
ByLayer
 10
180.6598986848706261
 20
43.7735779808616385
 30
0.0
 40
2.0
 41
100.0
 71
1
 72
2
  1
Top\~Plate\PTop
  7
standard
 50
0.0
 73
0
 44
1.0
  0
CIRCLE
  5
CD
100
AcDbEntity
100
AcDbCircle
  8
Top Layer
 62
256
370
-1
  6
ByLayer
 10
186.9999999999994031
 20
34.0676947614804533
 30
0.0
 40
1.424999999999996
  0
CIRCLE
  5
CE
100
AcDbEntity
100
AcDbCircle
  8
Top Layer
 62
256
370
-1
  6
ByLayer
 10
186.9999999999995453
 20
23.0676947614804533
 30
0.0
 40
1.424999999999996
  0
CIRCLE
  5
CF
100
AcDbEntity
100
AcDbCircle
  8
Top Layer
 62
256
370
-1
  6
ByLayer
 10
194.9999999999993747
 20
34.0676947614805812
 30
0.0
 40
1.424999999999996
  0
CIRCLE
  5
D0
100
AcDbEntity
100
AcDbCircle
  8
Top Layer
 62
256
370
-1
  6
ByLayer
 10
194.9999999999995453
 20
23.0676947614805812
 30
0.0
 40
1.424999999999996
  0
CIRCLE
  5
D1
100
AcDbEntity
100
AcDbCircle
  8
Middle Layer
 62
256
370
-1
  6
ByLayer
 10
98.261530872469578
 20
8.9030044390279084
 30
0.0
 40
2.4249999999999998
  0
CIRCLE
  5
D2
100
AcDbEntity
100
AcDbCircle
  8
Middle Layer
 62
256
370
-1
  6
ByLayer
 10
105.1610231260603712
 20
44.2356664763361209
 30
0.0
 40
2.4249999999999998
  0
LINE
  5
D3
100
AcDbEntity
100
AcDbLine
  8
Middle Layer
 62
256
370
-1
  6
ByLayer
 10
92.2444160111022882
 20
6.6502386400347238
 30
0.0
 11
86.8674994813394932
 21
21.011928778453818
 31
0.0
  0
ARC
  5
D4
100
AcDbEntity
  8
Middle Layer
 62
256
370
-1
  6
ByLayer
100
AcDbCircle
 10
101.7112769992649817
 20
26.5693354576819125
 30
0.0
 40
15.8499999999999996
100
AcDbArc
 50
137.3759674952218006
 51
200.5255493212027034
  0
LINE
  5
D5
100
AcDbEntity
100
AcDbLine
  8
Middle Layer
 62
256
370
-1
  6
ByLayer
 10
90.0486392179689972
 20
37.3027123718823646
 30
0.0
 11
100.4334238992575195
 21
48.5865779384015468
 31
0.0
  0
ARC
  5
D6
100
AcDbEntity
  8
Middle Layer
 62
256
370
-1
  6
ByLayer
100
AcDbCircle
 10
105.1610231260603712
 20
44.2356664763361209
 30
0.0
 40
6.424999999999998
100
AcDbArc
 50
20.5255493212026998
 51
137.3759674952219996
  0
LINE
  5
D7
100
AcDbEntity
100
AcDbLine
  8
Middle Layer
 62
256
370
-1
  6
ByLayer
 10
111.1781379874275899
 20
46.4884322753292167
 30
0.0
 11
116.5550545171904844
 21
32.12674213691011
 31
0.0
  0
ARC
  5
D8
100
AcDbEntity
  8
Middle Layer
 62
256
370
-1
  6
ByLayer
100
AcDbCircle
 10
101.7112769992649817
 20
26.5693354576819125
 30
0.0
 40
15.8499999999999996
100
AcDbArc
 50
317.3759674952219143
 51
20.5255493212026998
  0
LINE
  5
D9
100
AcDbEntity
100
AcDbLine
  8
Middle Layer
 62
256
370
-1
  6
ByLayer
 10
113.3739147805608809
 20
15.835958543481599
 30
0.0
 11
102.9891300992724723
 21
4.5520929769624257
 31
0.0
  0
ARC
  5
DA
100
AcDbEntity
  8
Middle Layer
 62
256
370
-1
  6
ByLayer
100
AcDbCircle
 10
98.261530872469578
 20
8.9030044390279084
 30
0.0
 40
6.4249999999999998
100
AcDbArc
 50
200.5255493212027034
 51
317.3759674952218006
  0
CIRCLE
  5
DB
100
AcDbEntity
100
AcDbCircle
  8
Middle Layer
 62
256
370
-1
  6
ByLayer
 10
101.7112769992649817
 20
26.5693354576819125
 30
0.0
 40
11.0500000000000007
  0
MTEXT
  5
DC
100
AcDbEntity
100
AcDbMText
  8
Middle Text
 62
256
370
-1
  6
ByLayer
 10
104.6875281068579682
 20
40.9027123718822736
 30
0.0
 40
2.0
 41
100.0
 71
1
 72
2
  1
Middle
  7
standard
 50
0.0
 73
0
 44
1.0
  0
ELLIPSE
  5
DD
100
AcDbEntity
100
AcDbEllipse
  8
Middle Layer
 62
256
370
-1
  6
ByLayer
 10
101.8985828017013802
 20
47.8285637093609637
 30
0.0
 11
0.766610250398976
 21
3.9258513374786901
 31
0.0
 40
0.4500000000000001
 41
0.0
 42
6.2831853071795862
  0
LINE
  5
DE
100
AcDbEntity
100
AcDbLine
  8
Notes
 62
256
370
-1
  6
ByLayer
 10
72.0433756729740367
 20
17.9999999999999289
 30
0.0
 11
72.4000000000000199
 21
17.9999999999999858
 31
0.0
  0
CIRCLE
  5
DF
100
AcDbEntity
100
AcDbCircle
  8
Bottom
 62
256
370
-1
  6
ByLayer
 10
48.6220943338074818
 20
55.2912996406194281
 30
0.0
 40
1.425
  0
CIRCLE
  5
E0
100
AcDbEntity
100
AcDbCircle
  8
Bottom
 62
256
370
-1
  6
ByLayer
 10
76.8128729573847551
 20
45.0306953408493627
 30
0.0
 40
1.425
  0
CIRCLE
  5
E1
100
AcDbEntity
100
AcDbCircle
  8
Bottom
 62
256
370
-1
  6
ByLayer
 10
46.0000000000000426
 20
11.0000000000000142
 30
0.0
 40
1.425
  0
CIRCLE
  5
E2
100
AcDbEntity
100
AcDbCircle
  8
Bottom
 62
256
370
-1
  6
ByLayer
 10
61.9999999999999858
 20
11.0
 30
0.0
 40
1.425
  0
CIRCLE
  5
E3
100
AcDbEntity
100
AcDbCircle
  8
Bottom
 62
256
370
-1
  6
ByLayer
 10
46.0000000000000426
 20
33.0
 30
0.0
 40
1.425
  0
LINE
  5
E4
100
AcDbEntity
100
AcDbLine
  8
Bottom
 62
256
370
-1
  6
ByLayer
 10
45.2779074294257526
 20
13.9413732326007533
 30
0.0
 11
52.7954483957129668
 21
11.2052120859953988
 31
0.0
  0
LINE
  5
E5
100
AcDbEntity
100
AcDbLine
  8
Bottom
 62
256
370
-1
  6
ByLayer
 10
51.8882141478956811
 20
63.6801291990274621
 30
0.0
 11
51.7002756237385057
 21
63.7485332276926187
 31
0.0
  0
LINE
  5
E6
100
AcDbEntity
100
AcDbLine
  8
Bottom
 62
256
370
-1
  6
ByLayer
 10
51.2891612330599571
 20
60.2799622023599824
 30
0.0
 11
52.2468176343718085
 21
62.9111015405605229
 31
0.0
  0
LINE
  5
E7
100
AcDbEntity
100
AcDbLine
  8
Bottom
 62
256
370
-1
  6
ByLayer
 10
50.3321950504358284
 20
59.9897627445489974
 30
0.0
 11
50.5201335745930038
 21
59.9213587158838408
 31
0.0
  0
LINE
  5
E8
100
AcDbEntity
100
AcDbLine
  8
Bottom
 62
256
370
-1
  6
ByLayer
 10
49.8533668497798885
 20
58.6741930754487129
 30
0.0
 11
50.3321950504358284
 21
59.9897627445489974
 31
0.0
  0
LINE
  5
E9
100
AcDbEntity
100
AcDbLine
  8
Bottom
 62
256
370
-1
  6
ByLayer
 10
44.5738146115406053
 20
59.9572862769357897
 30
0.0
 11
49.0843391913129352
 21
58.3155895889725713
 31
0.0
  0
LINE
  5
EA
100
AcDbEntity
100
AcDbLine
  8
Bottom
 62
256
370
-1
  6
ByLayer
 10
44.6940393257204036
 20
62.0418836045030133
 30
0.0
 11
44.2152111250644708
 21
60.7263139354027004
 31
0.0
  0
LINE
  5
EB
100
AcDbEntity
100
AcDbLine
  8
Bottom
 62
256
370
-1
  6
ByLayer
 10
44.5061008015631927
 20
62.1102876331681131
 30
0.0
 11
44.6940393257204036
 21
62.0418836045030133
 31
0.0
  0
LINE
  5
EC
100
AcDbEntity
100
AcDbLine
  8
Bottom
 62
256
370
-1
  6
ByLayer
 10
45.1051537163989451
 20
65.5104546298356212
 30
0.0
 11
44.1474973150870511
 21
62.8793152916350522
 31
0.0
  0
LINE
  5
ED
100
AcDbEntity
100
AcDbLine
  8
Bottom
 62
256
370
-1
  6
ByLayer
 10
46.0621198990230454
 20
65.8006540876466346
 30
0.0
 11
45.8741813748658771
 21
65.8690581163117628
 31
0.0
  0
LINE
  5
EE
100
AcDbEntity
100
AcDbLine
  8
Bottom
 62
256
370
-1
  6
ByLayer
 10
34.4276641292682797
 20
45.5304671732541379
 30
0.0
 11
44.35547027583344
 21
72.8068903856647438
 31
0.0
  0
LINE
  5
EF
100
AcDbEntity
100
AcDbLine
  8
Bottom
 62
256
370
-1
  6
ByLayer
 10
29.0000000000000071
 20
4.0000000000000142
 30
0.0
 11
29.0000000000000426
 21
14.7486542739439415
 31
0.0
  0
LINE
  5
F0
100
AcDbEntity
100
AcDbLine
  8
Bottom
 62
256
370
-1
  6
ByLayer
 10
34.8000000000000256
 20
12.0000000000000142
 30
0.0
 11
35.0
 21
12.0000000000000284
 31
0.0
  0
LINE
  5
F1
100
AcDbEntity
100
AcDbLine
  8
Bottom
 62
256
370
-1
  6
ByLayer
 10
34.2000000000000028
 20
15.4000000000000199
 30
0.0
 11
34.2000000000000028
 21
12.6000000000000227
 31
0.0
  0
LINE
  5
F2
100
AcDbEntity
100
AcDbLine
  8
Bottom
 62
256
370
-1
  6
ByLayer
 10
35.0000000000000142
 20
16.0000000000000284
 30
0.0
 11
34.7999999999999972
 21
16.0000000000000284
 31
0.0
  0
LINE
  5
F3
100
AcDbEntity
100
AcDbLine
  8
Bottom
 62
256
370
-1
  6
ByLayer
 10
35.0
 20
17.4000000000000057
 30
0.0
 11
35.0000000000000142
 21
16.0000000000000284
 31
0.0
  0
LINE
  5
F4
100
AcDbEntity
100
AcDbLine
  8
Bottom
 62
256
370
-1
  6
ByLayer
 10
40.4000000000000199
 20
18.0
 30
0.0
 11
35.6000000000000369
 21
18.0000000000000284
 31
0.0
  0
LINE
  5
F5
100
AcDbEntity
100
AcDbLine
  8
Bottom
 62
256
370
-1
  6
ByLayer
 10
41.0000000000000142
 20
16.0000000000000284
 30
0.0
 11
41.0000000000000142
 21
17.3999999999999915
 31
0.0
  0
LINE
  5
F6
100
AcDbEntity
100
AcDbLine
  8
Bottom
 62
256
370
-1
  6
ByLayer
 10
41.2000000000000313
 20
16.0000000000000284
 30
0.0
 11
41.0000000000000142
 21
16.0000000000000284
 31
0.0
  0
LINE
  5
F7
100
AcDbEntity
100
AcDbLine
  8
Bottom
 62
256
370
-1
  6
ByLayer
 10
41.800000000000054
 20
12.6000000000000085
 30
0.0
 11
41.8000000000000256
 21
15.4000000000000057
 31
0.0
  0
LINE
  5
F8
100
AcDbEntity
100
AcDbLine
  8
Bottom
 62
256
370
-1
  6
ByLayer
 10
41.0000000000000142
 20
11.9999999999999858
 30
0.0
 11
41.2000000000000028
 21
12.0
 31
0.0
  0
LINE
  5
F9
100
AcDbEntity
100
AcDbLine
  8
Bottom
 62
256
370
-1
  6
ByLayer
 10
66.8000000000000256
 20
12.0
 30
0.0
 11
67.0000000000000426
 21
12.0000000000000142
 31
0.0
  0
LINE
  5
FA
100
AcDbEntity
100
AcDbLine
  8
Bottom
 62
256
370
-1
  6
ByLayer
 10
66.2000000000000171
 20
15.4000000000000057
 30
0.0
 11
66.2000000000000171
 21
12.6000000000000085
 31
0.0
  0
LINE
  5
FB
100
AcDbEntity
100
AcDbLine
  8
Bottom
 62
256
370
-1
  6
ByLayer
 10
67.0000000000000426
 20
16.0000000000000142
 30
0.0
 11
66.8000000000000256
 21
16.0000000000000142
 31
0.0
  0
LINE
  5
FC
100
AcDbEntity
100
AcDbLine
  8
Bottom
 62
256
370
-1
  6
ByLayer
 10
67.0000000000000284
 20
17.3999999999999915
 30
0.0
 11
67.0000000000000426
 21
16.0000000000000142
 31
0.0
  0
LINE
  5
FD
100
AcDbEntity
100
AcDbLine
  8
Bottom
 62
256
370
-1
  6
ByLayer
 10
73.0000000000000142
 20
16.0000000000000284
 30
0.0
 11
73.0000000000000142
 21
17.3999999999999631
 31
0.0
  0
LINE
  5
FE
100
AcDbEntity
100
AcDbLine
  8
Bottom
 62
256
370
-1
  6
ByLayer
 10
73.2000000000000313
 20
15.9999999999999858
 30
0.0
 11
73.0000000000000142
 21
16.0000000000000284
 31
0.0
  0
LINE
  5
FF
100
AcDbEntity
100
AcDbLine
  8
Bottom
 62
256
370
-1
  6
ByLayer
 10
73.8000000000000256
 20
12.5999999999999943
 30
0.0
 11
73.8000000000000256
 21
15.4000000000000341
 31
0.0
  0
LINE
  5
100
100
AcDbEntity
100
AcDbLine
  8
Bottom
 62
256
370
-1
  6
ByLayer
 10
73.0000000000000142
 20
12.0000000000000284
 30
0.0
 11
73.1999999999999886
 21
11.9999999999999858
 31
0.0
  0
LINE
  5
101
100
AcDbEntity
100
AcDbLine
  8
Bottom
 62
256
370
-1
  6
ByLayer
 10
79.0000000000000142
 20
5.9323052385206978
 30
0.0
 11
79.0
 21
4.0
 31
0.0
  0
LINE
  5
102
100
AcDbEntity
100
AcDbLine
  8
Bottom
 62
256
370
-1
  6
ByLayer
 10
91.3401013151287913
 20
55.705883219381306
 30
0.0
 11
84.4276641292681944
 21
36.7141181378308517
 31
0.0
  0
LINE
  5
103
100
AcDbEntity
100
AcDbLine
  8
Bottom
 62
256
370
-1
  6
ByLayer
 10
85.7171484961884147
 20
51.3674040393034232
 30
0.0
 11
85.5292099720312109
 21
51.435808067968523
 31
0.0
  0
LINE
  5
104
100
AcDbEntity
100
AcDbLine
  8
Bottom
 62
256
370
-1
  6
ByLayer
 10
85.1180955813526054
 20
47.9672370426359151
 30
0.0
 11
86.0757519826645137
 21
50.5983763808364699
 31
0.0
  0
LINE
  5
105
100
AcDbEntity
100
AcDbLine
  8
Bottom
 62
256
370
-1
  6
ByLayer
 10
84.1611293987285052
 20
47.6770375848249159
 30
0.0
 11
84.349067922885709
 21
47.6086335561597735
 31
0.0
  0
LINE
  5
106
100
AcDbEntity
100
AcDbLine
  8
Bottom
 62
256
370
-1
  6
ByLayer
 10
83.6823011980724942
 20
46.3614679157246172
 30
0.0
 11
84.1611293987285052
 21
47.6770375848249159
 31
0.0
  0
LINE
  5
107
100
AcDbEntity
100
AcDbLine
  8
Bottom
 62
256
370
-1
  6
ByLayer
 10
78.4027489598332892
 20
47.6445611172116941
 30
0.0
 11
82.913273539605612
 21
46.0028644292484898
 31
0.0
  0
LINE
  5
108
100
AcDbEntity
100
AcDbLine
  8
Bottom
 62
256
370
-1
  6
ByLayer
 10
78.5229736740131159
 20
49.7291584447788892
 30
0.0
 11
78.0441454733571334
 21
48.4135887756786047
 31
0.0
  0
LINE
  5
109
100
AcDbEntity
100
AcDbLine
  8
Bottom
 62
256
370
-1
  6
ByLayer
 10
78.3350351498559263
 20
49.7975624734440458
 30
0.0
 11
78.5229736740131159
 21
49.7291584447788892
 31
0.0
  0
LINE
  5
10A
100
AcDbEntity
100
AcDbLine
  8
Bottom
 62
256
370
-1
  6
ByLayer
 10
78.9340880646916645
 20
53.1977294701115255
 30
0.0
 11
77.9764316633797847
 21
50.5665901319109992
 31
0.0
  0
LINE
  5
10B
100
AcDbEntity
100
AcDbLine
  8
Bottom
 62
256
370
-1
  6
ByLayer
 10
79.8910542473158074
 20
53.4879289279225532
 30
0.0
 11
79.7031157231584899
 21
53.5563329565876955
 31
0.0
  0
ARC
  5
10C
100
AcDbEntity
  8
Bottom
 62
256
370
-1
  6
ByLayer
100
AcDbCircle
 10
53.0006604817083939
 20
11.7690276584669249
 30
0.0
 40
0.599999999999996
100
AcDbArc
 50
250.0000000000001137
 51
340.0000000000002842
  0
ARC
  5
10D
100
AcDbEntity
  8
Bottom
 62
256
370
-1
  6
ByLayer
100
AcDbCircle
 10
45.4831195154211372
 20
14.5051888050723079
 30
0.0
 40
0.5999999999999983
100
AcDbArc
 50
159.9999999999998863
 51
250.0000000000001705
  0
ARC
  5
10E
100
AcDbEntity
  8
Bottom
 62
256
370
-1
  6
ByLayer
100
AcDbCircle
 10
51.6830020619002681
 20
63.1163136265559359
 30
0.0
 40
0.600000000000012
100
AcDbArc
 50
340.0000000000014779
 51
69.9999999999995879
  0
ARC
  5
10F
100
AcDbEntity
  8
Bottom
 62
256
370
-1
  6
ByLayer
100
AcDbCircle
 10
50.725345660588431
 20
60.4851742883553669
 30
0.0
 40
0.5999999999999749
100
AcDbArc
 50
249.99999999999838
 51
340.0000000000022737
  0
ARC
  5
110
100
AcDbEntity
  8
Bottom
 62
256
370
-1
  6
ByLayer
100
AcDbCircle
 10
49.2895512773083766
 20
58.8794051614440974
 30
0.0
 40
0.5999999999999921
100
AcDbArc
 50
249.9999999999991189
 51
340.0000000000009095
  0
ARC
  5
111
100
AcDbEntity
  8
Bottom
 62
256
370
-1
  6
ByLayer
100
AcDbCircle
 10
44.7790266975360041
 20
60.5211018494072874
 30
0.0
 40
0.5999999999999996
100
AcDbArc
 50
160.0000000000001137
 51
249.9999999999993179
  0
ARC
  5
112
100
AcDbEntity
  8
Bottom
 62
256
370
-1
  6
ByLayer
100
AcDbCircle
 10
44.7113128875586057
 20
62.6741032056396676
 30
0.0
 40
0.5999999999999986
100
AcDbArc
 50
160.0000000000001137
 51
249.9999999999993179
  0
ARC
  5
113
100
AcDbEntity
  8
Bottom
 62
256
370
-1
  6
ByLayer
100
AcDbCircle
 10
45.6689692888704855
 20
65.3052425438402082
 30
0.0
 40
0.6000000000000139
100
AcDbArc
 50
70.0000000000007105
 51
159.9999999999988063
  0
ARC
  5
114
100
AcDbEntity
  8
Bottom
 62
256
370
-1
  6
ByLayer
100
AcDbCircle
 10
34.7999999999999972
 20
12.6000000000000227
 30
0.0
 40
0.5999999999999984
100
AcDbArc
 50
180.0
 51
270.0000000000007958
  0
ARC
  5
115
100
AcDbEntity
  8
Bottom
 62
256
370
-1
  6
ByLayer
100
AcDbCircle
 10
34.8000000000000256
 20
15.4000000000000341
 30
0.0
 40
0.6000000000000006
100
AcDbArc
 50
90.0000000000017053
 51
180.0
  0
ARC
  5
116
100
AcDbEntity
  8
Bottom
 62
256
370
-1
  6
ByLayer
100
AcDbCircle
 10
35.6000000000000369
 20
17.4000000000000341
 30
0.0
 40
0.6000000000000028
100
AcDbArc
 50
90.0
 51
180.0
  0
ARC
  5
117
100
AcDbEntity
  8
Bottom
 62
256
370
-1
  6
ByLayer
100
AcDbCircle
 10
40.4000000000000199
 20
17.3999999999999773
 30
0.0
 40
0.6000000000000028
100
AcDbArc
 50
0.0
 51
89.9999999999991616
  0
ARC
  5
118
100
AcDbEntity
  8
Bottom
 62
256
370
-1
  6
ByLayer
100
AcDbCircle
 10
41.2000000000000028
 20
15.4000000000000341
 30
0.0
 40
0.5999999999999939
100
AcDbArc
 50
0.0
 51
90.0
  0
ARC
  5
119
100
AcDbEntity
  8
Bottom
 62
256
370
-1
  6
ByLayer
100
AcDbCircle
 10
41.2000000000000313
 20
12.6000000000000085
 30
0.0
 40
0.5999999999999984
100
AcDbArc
 50
269.9999999999992042
 51
0.0
  0
ARC
  5
11A
100
AcDbEntity
  8
Bottom
 62
256
370
-1
  6
ByLayer
100
AcDbCircle
 10
66.8000000000000114
 20
12.6000000000000085
 30
0.0
 40
0.5999999999999984
100
AcDbArc
 50
180.0
 51
270.0000000000017053
  0
ARC
  5
11B
100
AcDbEntity
  8
Bottom
 62
256
370
-1
  6
ByLayer
100
AcDbCircle
 10
66.8000000000000114
 20
15.4000000000000057
 30
0.0
 40
0.6000000000000006
100
AcDbArc
 50
90.0000000000017053
 51
180.0
  0
ARC
  5
11C
100
AcDbEntity
  8
Bottom
 62
256
370
-1
  6
ByLayer
100
AcDbCircle
 10
67.5999999999999943
 20
17.3999999999999915
 30
0.0
 40
0.6000000000000028
100
AcDbArc
 50
90.0
 51
180.0
  0
ARC
  5
11D
100
AcDbEntity
  8
Bottom
 62
256
370
-1
  6
ByLayer
100
AcDbCircle
 10
72.4000000000000199
 20
17.3999999999999631
 30
0.0
 40
0.6000000000000028
100
AcDbArc
 50
0.0
 51
89.9999999999983089
  0
ARC
  5
11E
100
AcDbEntity
  8
Bottom
 62
256
370
-1
  6
ByLayer
100
AcDbCircle
 10
73.1999999999999886
 20
15.3999999999999773
 30
0.0
 40
0.5999999999999939
100
AcDbArc
 50
0.0
 51
90.0
  0
ARC
  5
11F
100
AcDbEntity
  8
Bottom
 62
256
370
-1
  6
ByLayer
100
AcDbCircle
 10
73.2000000000000171
 20
12.5999999999999659
 30
0.0
 40
0.5999999999999984
100
AcDbArc
 50
269.9999999999982947
 51
0.0
  0
ARC
  5
120
100
AcDbEntity
  8
Bottom
 62
256
370
-1
  6
ByLayer
100
AcDbCircle
 10
85.5119364101930444
 20
50.8035884668318687
 30
0.0
 40
0.5999999999999881
100
AcDbArc
 50
339.9999999999998863
 51
70.0000000000014353
  0
ARC
  5
121
100
AcDbEntity
  8
Bottom
 62
256
370
-1
  6
ByLayer
100
AcDbCircle
 10
84.5542800088811219
 20
48.1724491286312997
 30
0.0
 40
0.5999999999999842
100
AcDbArc
 50
249.9999999999978968
 51
340.0000000000001137
  0
ARC
  5
122
100
AcDbEntity
  8
Bottom
 62
256
370
-1
  6
ByLayer
100
AcDbCircle
 10
83.1184856256010249
 20
46.5666800017200444
 30
0.0
 40
0.6000000000000063
100
AcDbArc
 50
250.0000000000003695
 51
339.9999999999996021
  0
ARC
  5
123
100
AcDbEntity
  8
Bottom
 62
256
370
-1
  6
ByLayer
100
AcDbCircle
 10
78.6079610458287021
 20
48.2083766896832486
 30
0.0
 40
0.5999999999999976
100
AcDbArc
 50
160.0000000000011937
 51
250.0000000000003695
  0
ARC
  5
124
100
AcDbEntity
  8
Bottom
 62
256
370
-1
  6
ByLayer
100
AcDbCircle
 10
78.5402472358513108
 20
50.3613780459155862
 30
0.0
 40
0.5999999999999954
100
AcDbArc
 50
159.9999999999990052
 51
250.0000000000001137
  0
ARC
  5
125
100
AcDbEntity
  8
Bottom
 62
256
370
-1
  6
ByLayer
100
AcDbCircle
 10
79.4979036371631906
 20
52.9925173841161126
 30
0.0
 40
0.6000000000000253
100
AcDbArc
 50
70.0000000000028848
 51
159.9999999999994031
  0
ARC
  5
126
100
AcDbEntity
  8
Bottom
 62
256
370
-1
  6
ByLayer
100
AcDbCircle
 10
118.9999999999994031
 20
14.7486542739440836
 30
0.0
 40
89.9999999999993463
100
AcDbArc
 50
159.9999999999998863
 51
180.0
  0
ARC
  5
127
100
AcDbEntity
  8
Bottom
 62
256
370
-1
  6
ByLayer
100
AcDbCircle
 10
168.9999999999997158
 20
5.9323052385213231
 30
0.0
 40
89.9999999999996447
100
AcDbArc
 50
159.9999999999998863
 51
180.0
  0
LINE
  5
128
100
AcDbEntity
100
AcDbLine
  8
Bottom
 62
256
370
-1
  6
ByLayer
 10
85.5292099720312109
 20
51.435808067968523
 30
0.0
 11
79.8910542473158074
 21
53.4879289279225532
 31
0.0
  0
LINE
  5
129
100
AcDbEntity
100
AcDbLine
  8
Bottom
 62
256
370
-1
  6
ByLayer
 10
46.0621198990230454
 20
65.8006540876466346
 30
0.0
 11
51.7002756237385057
 21
63.7485332276926187
 31
0.0
  0
LINE
  5
12A
100
AcDbEntity
100
AcDbLine
  8
Bottom
 62
256
370
-1
  6
ByLayer
 10
41.0000000000000142
 20
11.9999999999999858
 30
0.0
 11
35.0
 21
12.0000000000000284
 31
0.0
  0
LINE
  5
12B
100
AcDbEntity
100
AcDbLine
  8
Bottom
 62
256
370
-1
  6
ByLayer
 10
73.0000000000000142
 20
12.0000000000000284
 30
0.0
 11
67.0000000000000426
 21
12.0000000000000142
 31
0.0
  0
LINE
  5
12C
100
AcDbEntity
100
AcDbLine
  8
Bottom
 62
256
370
-1
  6
ByLayer
 10
72.4000000000000199
 20
17.9999999999999858
 30
0.0
 11
72.0433756729740793
 21
17.9999999999999574
 31
0.0
  0
MTEXT
  5
12D
100
AcDbEntity
100
AcDbMText
  8
Bottom Text
 62
256
370
-1
  6
ByLayer
 10
38.2988517093082095
 20
46.6842340805069398
 30
0.0
 40
2.0
 41
100.0
 71
1
 72
2
  1
Main\~Plate\PBottom
  7
standard
 50
0.0
 73
0
 44
1.0
  0
LINE
  5
12E
100
AcDbEntity
100
AcDbLine
  8
Bottom
 62
256
370
-1
  6
ByLayer
 10
60.2362755671152712
 20
67.0267499634609152
 30
0.0
 11
55.7900137038815842
 21
54.8107458932441176
 31
0.0
  0
LINE
  5
12F
100
AcDbEntity
100
AcDbLine
  8
Bottom
 62
256
370
-1
  6
ByLayer
 10
75.4592960238470027
 20
61.4860236415851062
 30
0.0
 11
71.0130341606132873
 21
49.2700195713683087
 31
0.0
  0
LINE
  5
130
100
AcDbEntity
100
AcDbLine
  8
Bottom
 62
256
370
-1
  6
ByLayer
 10
55.7900137038815842
 20
54.8107458932441176
 30
0.0
 11
59.0789378766322528
 21
53.613675391604275
 31
0.0
  0
LINE
  5
131
100
AcDbEntity
100
AcDbLine
  8
Bottom
 62
256
370
-1
  6
ByLayer
 10
67.7241099878626045
 20
50.4670900730081229
 30
0.0
 11
71.0130341606132873
 21
49.2700195713683087
 31
0.0
  0
LINE
  5
132
100
AcDbEntity
100
AcDbLine
  8
Bottom
 62
256
370
-1
  6
ByLayer
 10
44.35547027583344
 20
72.8068903856647438
 30
0.0
 11
60.2362755671152712
 21
67.0267499634609152
 31
0.0
  0
LINE
  5
133
100
AcDbEntity
100
AcDbLine
  8
Bottom
 62
256
370
-1
  6
ByLayer
 10
75.4592960238470027
 20
61.4860236415851062
 30
0.0
 11
91.3401013151287913
 21
55.705883219381306
 31
0.0
  0
LINE
  5
134
100
AcDbEntity
100
AcDbLine
  8
Bottom
 62
256
370
-1
  6
ByLayer
 10
67.6000000000000085
 20
17.9999999999999858
 30
0.0
 11
72.0433756729740793
 21
17.9999999999999574
 31
0.0
  0
LINE
  5
135
100
AcDbEntity
100
AcDbLine
  8
Bottom
 62
256
370
-1
  6
ByLayer
 10
46.7013781017552532
 20
19.606609402179842
 30
0.0
 11
44.9193039429495826
 21
14.7104008910677067
 31
0.0
  0
LINE
  5
136
100
AcDbEntity
100
AcDbLine
  8
Bottom
 62
256
370
-1
  6
ByLayer
 10
55.3465502129856048
 20
16.4600240835836757
 30
0.0
 11
53.5644760541799343
 21
11.5638155724715403
 31
0.0
  0
ARC
  5
137
100
AcDbEntity
  8
Bottom
 62
256
370
-1
  6
ByLayer
100
AcDbCircle
 10
53.2625637259381222
 20
24.1838185087223536
 30
0.0
 40
8.0
100
AcDbArc
 50
105.0996321953935251
 51
214.9003678046065886
  0
LINE
  5
138
100
AcDbEntity
100
AcDbLine
  8
Bottom
 62
256
370
-1
  6
ByLayer
 10
59.0789378766322528
 20
53.613675391604275
 30
0.0
 11
51.1785772388906395
 21
31.9076129338610741
 31
0.0
  0
ARC
  5
139
100
AcDbEntity
  8
Bottom
 62
256
370
-1
  6
ByLayer
100
AcDbCircle
 10
53.2625637259381222
 20
24.1838185087223536
 30
0.0
 40
8.0
100
AcDbArc
 50
285.0996321953935535
 51
34.9003678046064039
  0
LINE
  5
13A
100
AcDbEntity
100
AcDbLine
  8
Bottom
 62
256
370
-1
  6
ByLayer
 10
67.7241099878626045
 20
50.4670900730081229
 30
0.0
 11
59.8237493501209912
 21
28.7610276152648936
 31
0.0
  0
CIRCLE
  5
13B
100
AcDbEntity
100
AcDbCircle
  8
Bottom
 62
256
370
-1
  6
ByLayer
 10
72.0000000000001705
 20
29.9999999999995026
 30
0.0
 40
1.6000000000000001
  0
CIRCLE
  5
13C
100
AcDbEntity
100
AcDbCircle
  8
Bottom
 62
256
370
-1
  6
ByLayer
 10
64.0000000000001563
 20
29.9999999999996163
 30
0.0
 40
1.6000000000000001
  0
CIRCLE
  5
13D
100
AcDbEntity
100
AcDbCircle
  8
Bottom
 62
256
370
-1
  6
ByLayer
 10
63.9999999999999716
 20
18.9999999999996163
 30
0.0
 40
1.6000000000000001
  0
CIRCLE
  5
13E
100
AcDbEntity
100
AcDbCircle
  8
Bottom
 62
256
370
-1
  6
ByLayer
 10
71.9999999999999858
 20
18.9999999999994742
 30
0.0
 40
1.6000000000000001
  0
LINE
  5
13F
100
AcDbEntity
100
AcDbLine
  8
Bottom
 62
256
370
-1
  6
ByLayer
 10
79.0
 20
4.0
 30
0.0
 11
29.0000000000000071
 21
4.0000000000000142
 31
0.0
  0
ENDSEC
  0
SECTION
  2
OBJECTS
  0
DICTIONARY
  5
C
100
AcDbDictionary
280
0
281
1
  3
ACAD_GROUP
350
D
  3
ACAD_LAYOUT
350
1A
  3
ACAD_MLINESTYLE
350
17
  3
ACAD_PLOTSETTINGS
350
19
  3
ACAD_PLOTSTYLENAME
350
E
  3
AcDbVariableDictionary
350
140
  0
DICTIONARY
  5
D
100
AcDbDictionary
280
0
281
1
  0
ACDBDICTIONARYWDFLT
  5
E
100
AcDbDictionary
281
1
  3
Normal
350
F
100
AcDbDictionaryWithDefault
340
F
  0
ACDBPLACEHOLDER
  5
F
  0
DICTIONARY
  5
17
100
AcDbDictionary
280
0
281
1
  3
Standard
350
18
  0
MLINESTYLE
  5
18
100
AcDbMlineStyle
  2
STANDARD
 70
0
  3

 62
256
 51
90.0
 52
90.0
 71
2
 49
0.5
 62
256
  6
BYLAYER
 49
-0.5
 62
256
  6
BYLAYER
  0
DICTIONARY
  5
19
100
AcDbDictionary
280
0
281
1
  0
DICTIONARY
  5
1A
100
AcDbDictionary
281
1
  3
Layout1
350
1E
  3
Layout2
350
26
  3
Model
350
22
  0
LAYOUT
  5
1E
100
AcDbPlotSettings
  1

  2
C:\Program Files\AutoCAD 2002\plotters\DWF ePlot (optimized for plotting).pc3
  4

  6

 40
0.0
 41
0.0
 42
0.0
 43
0.0
 44
0.0
 45
0.0
 46
0.0
 47
0.0
 48
0.0
 49
0.0
140
0.0
141
0.0
142
1.0
143
1.0
 70
688
 72
0
 73
0
 74
5
  7

 75
16
147
1.0
148
0.0
149
0.0
100
AcDbLayout
  1
Layout1
 70
1
 71
1
 10
0.0
 20
0.0
 11
420.0
 21
297.0
 12
0.0
 22
0.0
 32
0.0
 14
100000000000000000000.0
 24
100000000000000000000.0
 34
100000000000000000000.0
 15
-100000000000000000000.0
 25
-100000000000000000000.0
 35
-100000000000000000000.0
146
0.0
 13
0.0
 23
0.0
 33
0.0
 16
1.0
 26
0.0
 36
0.0
 17
0.0
 27
1.0
 37
0.0
 76
0
330
1B
  0
LAYOUT
  5
22
100
AcDbPlotSettings
  1

  2
C:\Program Files\AutoCAD 2002\plotters\DWF ePlot (optimized for plotting).pc3
  4

  6

 40
0.0
 41
0.0
 42
0.0
 43
0.0
 44
0.0
 45
0.0
 46
0.0
 47
0.0
 48
0.0
 49
0.0
140
0.0
141
0.0
142
1.0
143
1.0
 70
1712
 72
0
 73
0
 74
0
  7

 75
0
147
1.0
148
0.0
149
0.0
100
AcDbLayout
  1
Model
 70
1
 71
0
 10
0.0
 20
0.0
 11
12.0
 21
9.0
 12
0.0
 22
0.0
 32
0.0
 14
0.0
 24
0.0
 34
0.0
 15
0.0
 25
0.0
 35
0.0
146
0.0
 13
0.0
 23
0.0
 33
0.0
 16
1.0
 26
0.0
 36
0.0
 17
0.0
 27
1.0
 37
0.0
 76
0
330
1F
  0
LAYOUT
  5
26
100
AcDbPlotSettings
  1

  2
C:\Program Files\AutoCAD 2002\plotters\DWF ePlot (optimized for plotting).pc3
  4

  6

 40
0.0
 41
0.0
 42
0.0
 43
0.0
 44
0.0
 45
0.0
 46
0.0
 47
0.0
 48
0.0
 49
0.0
140
0.0
141
0.0
142
1.0
143
1.0
 70
688
 72
0
 73
0
 74
5
  7

 75
16
147
1.0
148
0.0
149
0.0
100
AcDbLayout
  1
Layout2
 70
1
 71
2
 10
0.0
 20
0.0
 11
12.0
 21
9.0
 12
0.0
 22
0.0
 32
0.0
 14
0.0
 24
0.0
 34
0.0
 15
0.0
 25
0.0
 35
0.0
146
0.0
 13
0.0
 23
0.0
 33
0.0
 16
1.0
 26
0.0
 36
0.0
 17
0.0
 27
1.0
 37
0.0
 76
0
330
23
  0
DICTIONARY
  5
140
100
AcDbDictionary
281
1
  3
DIMASSOC
350
142
  3
HIDETEXT
350
141
  0
DICTIONARYVAR
  5
141
100
DictionaryVariables
280
0
  1
2
  0
DICTIONARYVAR
  5
142
100
DictionaryVariables
280
0
  1
1
  0
ENDSEC
  0
EOF
