999
dxflib 2.1.2.0
  0
SECTION
  2
HEADER
  9
$ACADVER
  1
AC1015
  9
$HANDSEED
  5
FFFF
  9
$DIMASZ
 40
2.5
  9
$PLIMMIN
 10
0.0
 20
0.0
  9
$DIMEXE
 40
1.25
  9
$DIMGAP
 40
0.625
  9
$PLIMMAX
 10
210.0
 20
297.0
  9
$INSUNITS
 70
4
  9
$DIMEXO
 40
0.625
  9
$DIMTXT
 40
2.5
  9
$CLAYER
  8
0
  0
ENDSEC
  0
SECTION
  2
TABLES
  0
TABLE
  2
VPORT
  5
8
100
AcDbSymbolTable
 70
1
  0
VPORT
  5
30
100
AcDbSymbolTableRecord
100
AcDbViewportTableRecord
  2
*Active
 70
0
 10
0.0
 20
0.0
 11
1.0
 21
1.0
 12
286.3055555555554861
 22
148.5
 13
0.0
 23
0.0
 14
10.0
 24
10.0
 15
10.0
 25
10.0
 16
0.0
 26
0.0
 36
1.0
 17
0.0
 27
0.0
 37
0.0
 40
297.0
 41
1.92798353909465
 42
50.0
 43
0.0
 44
0.0
 50
0.0
 51
0.0
 71
0
 72
100
 73
1
 74
3
 75
1
 76
1
 77
0
 78
0
281
0
 65
1
110
0.0
120
0.0
130
0.0
111
1.0
121
0.0
131
0.0
112
0.0
122
1.0
132
0.0
 79
0
146
0.0
  0
ENDTAB
  0
TABLE
  2
LTYPE
  5
5
100
AcDbSymbolTable
 70
21
  0
LTYPE
  5
14
100
AcDbSymbolTableRecord
100
AcDbLinetypeTableRecord
  2
ByBlock
 70
0
  3

 72
65
 73
0
 40
0.0
  0
LTYPE
  5
15
100
AcDbSymbolTableRecord
100
AcDbLinetypeTableRecord
  2
ByLayer
 70
0
  3

 72
65
 73
0
 40
0.0
  0
LTYPE
  5
16
100
AcDbSymbolTableRecord
100
AcDbLinetypeTableRecord
  2
CONTINUOUS
 70
0
  3
Solid line
 72
65
 73
0
 40
0.0
  0
LTYPE
  5
31
100
AcDbSymbolTableRecord
100
AcDbLinetypeTableRecord
  2
DOT
 70
0
  3
Dot . . . . . . . . . . . . . . . . . . . . . .
 72
65
 73
2
 40
6.3499999999999996
 49
0.0
 74
0
 49
-6.3499999999999996
 74
0
  0
LTYPE
  5
32
100
AcDbSymbolTableRecord
100
AcDbLinetypeTableRecord
  2
DOT2
 70
0
  3
Dot (.5x) .....................................
 72
65
 73
2
 40
3.1749999999999998
 49
0.0
 74
0
 49
-3.1749999999999998
 74
0
  0
LTYPE
  5
33
100
AcDbSymbolTableRecord
100
AcDbLinetypeTableRecord
  2
DOTX2
 70
0
  3
Dot (2x) .  .  .  .  .  .  .  .  .  .  .  .  .
 72
65
 73
2
 40
12.6999999999999993
 49
0.0
 74
0
 49
-12.6999999999999993
 74
0
  0
LTYPE
  5
34
100
AcDbSymbolTableRecord
100
AcDbLinetypeTableRecord
  2
DASHED
 70
0
  3
Dashed __ __ __ __ __ __ __ __ __ __ __ __ __ _
 72
65
 73
2
 40
19.0500000000000007
 49
12.6999999999999993
 74
0
 49
-6.3499999999999996
 74
0
  0
LTYPE
  5
35
100
AcDbSymbolTableRecord
100
AcDbLinetypeTableRecord
  2
DASHED2
 70
0
  3
Dashed (.5x) _ _ _ _ _ _ _ _ _ _ _ _ _ _ _ _ _
 72
65
 73
2
 40
9.5250000000000004
 49
6.3499999999999996
 74
0
 49
-3.1749999999999998
 74
0
  0
LTYPE
  5
36
100
AcDbSymbolTableRecord
100
AcDbLinetypeTableRecord
  2
DASHEDX2
 70
0
  3
Dashed (2x) ____  ____  ____  ____  ____  ___
 72
65
 73
2
 40
38.1000000000000014
 49
25.3999999999999986
 74
0
 49
-12.6999999999999993
 74
0
  0
LTYPE
  5
37
100
AcDbSymbolTableRecord
100
AcDbLinetypeTableRecord
  2
DASHDOT
 70
0
  3
Dash dot __ . __ . __ . __ . __ . __ . __ . __
 72
65
 73
4
 40
25.3999999999999986
 49
12.6999999999999993
 74
0
 49
-6.3499999999999996
 74
0
 49
0.0
 74
0
 49
-6.3499999999999996
 74
0
  0
LTYPE
  5
38
100
AcDbSymbolTableRecord
100
AcDbLinetypeTableRecord
  2
DASHDOT2
 70
0
  3
Dash dot (.5x) _._._._._._._._._._._._._._._.
 72
65
 73
4
 40
12.6999999999999993
 49
6.3499999999999996
 74
0
 49
-3.1749999999999998
 74
0
 49
0.0
 74
0
 49
-3.1749999999999998
 74
0
  0
LTYPE
  5
39
100
AcDbSymbolTableRecord
100
AcDbLinetypeTableRecord
  2
DASHDOTX2
 70
0
  3
Dash dot (2x) ____  .  ____  .  ____  .  ___
 72
65
 73
4
 40
50.7999999999999972
 49
25.3999999999999986
 74
0
 49
-12.6999999999999993
 74
0
 49
0.0
 74
0
 49
-12.6999999999999993
 74
0
  0
LTYPE
  5
3A
100
AcDbSymbolTableRecord
100
AcDbLinetypeTableRecord
  2
DIVIDE
 70
0
  3
Divide ____ . . ____ . . ____ . . ____ . . ____
 72
65
 73
6
 40
31.75
 49
12.6999999999999993
 74
0
 49
-6.3499999999999996
 74
0
 49
0.0
 74
0
 49
-6.3499999999999996
 74
0
 49
0.0
 74
0
 49
-6.3499999999999996
 74
0
  0
LTYPE
  5
3B
100
AcDbSymbolTableRecord
100
AcDbLinetypeTableRecord
  2
DIVIDE2
 70
0
  3
Divide (.5x) __..__..__..__..__..__..__..__.._
 72
65
 73
6
 40
15.875
 49
6.3499999999999996
 74
0
 49
-3.1749999999999998
 74
0
 49
0.0
 74
0
 49
-3.1749999999999998
 74
0
 49
0.0
 74
0
 49
-3.1749999999999998
 74
0
  0
LTYPE
  5
3C
100
AcDbSymbolTableRecord
100
AcDbLinetypeTableRecord
  2
DIVIDEX2
 70
0
  3
Divide (2x) ________  .  .  ________  .  .  _
 72
65
 73
6
 40
63.5
 49
25.3999999999999986
 74
0
 49
-12.6999999999999993
 74
0
 49
0.0
 74
0
 49
-12.6999999999999993
 74
0
 49
0.0
 74
0
 49
-12.6999999999999993
 74
0
  0
LTYPE
  5
3D
100
AcDbSymbolTableRecord
100
AcDbLinetypeTableRecord
  2
CENTER
 70
0
  3
Center ____ _ ____ _ ____ _ ____ _ ____ _ ____
 72
65
 73
4
 40
50.7999999999999972
 49
31.75
 74
0
 49
-6.3499999999999996
 74
0
 49
6.3499999999999996
 74
0
 49
-6.3499999999999996
 74
0
  0
LTYPE
  5
3E
100
AcDbSymbolTableRecord
100
AcDbLinetypeTableRecord
  2
CENTER2
 70
0
  3
Center (.5x) ___ _ ___ _ ___ _ ___ _ ___ _ ___
 72
65
 73
4
 40
28.5749999999999993
 49
19.0500000000000007
 74
0
 49
-3.1749999999999998
 74
0
 49
3.1749999999999998
 74
0
 49
-3.1749999999999998
 74
0
  0
LTYPE
  5
3F
100
AcDbSymbolTableRecord
100
AcDbLinetypeTableRecord
  2
CENTERX2
 70
0
  3
Center (2x) ________  __  ________  __  _____
 72
65
 73
4
 40
101.5999999999999943
 49
63.5
 74
0
 49
-12.6999999999999993
 74
0
 49
12.6999999999999993
 74
0
 49
-12.6999999999999993
 74
0
  0
LTYPE
  5
40
100
AcDbSymbolTableRecord
100
AcDbLinetypeTableRecord
  2
BORDER
 70
0
  3
Border __ __ . __ __ . __ __ . __ __ . __ __ .
 72
65
 73
6
 40
44.4500000000000028
 49
12.6999999999999993
 74
0
 49
-6.3499999999999996
 74
0
 49
12.6999999999999993
 74
0
 49
-6.3499999999999996
 74
0
 49
0.0
 74
0
 49
-6.3499999999999996
 74
0
  0
LTYPE
  5
41
100
AcDbSymbolTableRecord
100
AcDbLinetypeTableRecord
  2
BORDER2
 70
0
  3
Border (.5x) __.__.__.__.__.__.__.__.__.__.__.
 72
65
 73
6
 40
22.2250000000000014
 49
6.3499999999999996
 74
0
 49
-3.1749999999999998
 74
0
 49
6.3499999999999996
 74
0
 49
-3.1749999999999998
 74
0
 49
0.0
 74
0
 49
-3.1749999999999998
 74
0
  0
LTYPE
  5
42
100
AcDbSymbolTableRecord
100
AcDbLinetypeTableRecord
  2
BORDERX2
 70
0
  3
Border (2x) ____  ____  .  ____  ____  .  ___
 72
65
 73
6
 40
88.9000000000000057
 49
25.3999999999999986
 74
0
 49
-12.6999999999999993
 74
0
 49
25.3999999999999986
 74
0
 49
-12.6999999999999993
 74
0
 49
0.0
 74
0
 49
-12.6999999999999993
 74
0
  0
ENDTAB
  0
TABLE
  2
LAYER
  5
2
100
AcDbSymbolTable
 70
2
  0
LAYER
  5
10
100
AcDbSymbolTableRecord
100
AcDbLayerTableRecord
  2
0
 70
0
 62
7
  6
CONTINUOUS
370
0
390
F
  0
LAYER
  5
43
100
AcDbSymbolTableRecord
100
AcDbLayerTableRecord
  2
Bottom Layer
 70
0
 62
7
  6
CONTINUOUS
370
0
390
F
  0
ENDTAB
  0
TABLE
  2
STYLE
  5
3
100
AcDbSymbolTable
 70
1
  0
STYLE
  5
11
100
AcDbSymbolTableRecord
100
AcDbTextStyleTableRecord
  2
Standard
 70
0
 40
0.0
 41
0.75
 50
0.0
 71
0
 42
2.5
  3
txt
  4

  0
ENDTAB
  0
TABLE
  2
VIEW
  5
6
100
AcDbSymbolTable
 70
0
  0
ENDTAB
  0
TABLE
  2
UCS
  5
7
100
AcDbSymbolTable
 70
0
  0
ENDTAB
  0
TABLE
  2
APPID
  5
9
100
AcDbSymbolTable
 70
1
  0
APPID
  5
12
100
AcDbSymbolTableRecord
100
AcDbRegAppTableRecord
  2
ACAD
 70
0
  0
ENDTAB
  0
TABLE
  2
DIMSTYLE
  5
A
100
AcDbSymbolTable
 70
1
100
AcDbDimStyleTable
 71
0
  0
DIMSTYLE
105
27
100
AcDbSymbolTableRecord
100
AcDbDimStyleTableRecord
  2
Standard
 41
2.5
 42
0.625
 43
3.75
 44
1.25
 70
0
 73
0
 74
0
 77
1
 78
8
140
2.5
141
2.5
143
0.03937007874016
147
0.625
171
3
172
1
271
2
272
2
274
3
278
44
283
0
284
8
340
11
  0
ENDTAB
  0
TABLE
  2
BLOCK_RECORD
  5
1
100
AcDbSymbolTable
 70
1
  0
BLOCK_RECORD
  5
1F
100
AcDbSymbolTableRecord
100
AcDbBlockTableRecord
  2
*Model_Space
340
22
  0
BLOCK_RECORD
  5
1B
100
AcDbSymbolTableRecord
100
AcDbBlockTableRecord
  2
*Paper_Space
340
1E
  0
BLOCK_RECORD
  5
23
100
AcDbSymbolTableRecord
100
AcDbBlockTableRecord
  2
*Paper_Space0
340
26
  0
ENDTAB
  0
ENDSEC
  0
SECTION
  2
BLOCKS
  0
BLOCK
  5
20
100
AcDbEntity
  8
0
100
AcDbBlockBegin
  2
*Model_Space
 70
0
 10
0.0
 20
0.0
 30
0.0
  3
*Model_Space
  1

  0
ENDBLK
  5
21
100
AcDbEntity
  8
0
100
AcDbBlockEnd
  0
BLOCK
  5
1C
100
AcDbEntity
 67
1
  8
0
100
AcDbBlockBegin
  2
*Paper_Space
 70
0
 10
0.0
 20
0.0
 30
0.0
  3
*Paper_Space
  1

  0
ENDBLK
  5
1D
100
AcDbEntity
 67
1
  8
0
100
AcDbBlockEnd
  0
BLOCK
  5
24
100
AcDbEntity
  8
0
100
AcDbBlockBegin
  2
*Paper_Space0
 70
0
 10
0.0
 20
0.0
 30
0.0
  3
*Paper_Space0
  1

  0
ENDBLK
  5
25
100
AcDbEntity
  8
0
100
AcDbBlockEnd
  0
ENDSEC
  0
SECTION
  2
ENTITIES
  0
LINE
  5
44
100
AcDbEntity
100
AcDbLine
  8
Bottom Layer
 62
256
370
-1
  6
ByLayer
 10
10.5045128863118453
 20
51.9580646953420171
 30
0.0
 11
15.7494715176781632
 21
37.5476592896898396
 31
0.0
  0
CIRCLE
  5
45
100
AcDbEntity
100
AcDbCircle
  8
Bottom Layer
 62
256
370
-1
  6
ByLayer
 10
52.9999999999993392
 20
37.0676947614807943
 30
0.0
 40
1.424999999999996
  0
CIRCLE
  5
46
100
AcDbEntity
100
AcDbCircle
  8
Bottom Layer
 62
256
370
-1
  6
ByLayer
 10
36.9999999999996376
 20
15.0676947614806735
 30
0.0
 40
1.424999999999996
  0
CIRCLE
  5
47
100
AcDbEntity
100
AcDbCircle
  8
Bottom Layer
 62
256
370
-1
  6
ByLayer
 10
52.9999999999995381
 20
15.0676947614807801
 30
0.0
 40
1.424999999999996
  0
CIRCLE
  5
48
100
AcDbEntity
100
AcDbCircle
  8
Bottom Layer
 62
256
370
-1
  6
ByLayer
 10
22.1871270426147511
 20
49.0983901023298728
 30
0.0
 40
1.424999999999996
  0
CIRCLE
  5
49
100
AcDbEntity
100
AcDbCircle
  8
Bottom Layer
 62
256
370
-1
  6
ByLayer
 10
50.3779056661918077
 20
59.358994402100187
 30
0.0
 40
1.424999999999996
  0
ARC
  5
4A
100
AcDbEntity
  8
Bottom Layer
 62
256
370
-1
  6
ByLayer
100
AcDbCircle
 10
48.0999999999994898
 20
34.5676947614807375
 30
0.0
 40
0.499999999999997
100
AcDbArc
 50
360.0
 51
90.0
  0
ARC
  5
4B
100
AcDbEntity
  8
Bottom Layer
 62
256
370
-1
  6
ByLayer
100
AcDbCircle
 10
48.0999999999995467
 20
22.5676947614807801
 30
0.0
 40
0.5000000000000014
100
AcDbArc
 50
270.0
 51
360.0
  0
ARC
  5
4C
100
AcDbEntity
  8
Bottom Layer
 62
256
370
-1
  6
ByLayer
100
AcDbCircle
 10
43.8999999999995296
 20
22.5676947614807872
 30
0.0
 40
0.4999999999999968
100
AcDbArc
 50
180.0
 51
270.0
  0
ARC
  5
4D
100
AcDbEntity
  8
Bottom Layer
 62
256
370
-1
  6
ByLayer
100
AcDbCircle
 10
43.8999999999994728
 20
34.5676947614807233
 30
0.0
 40
0.4999999999999969
100
AcDbArc
 50
90.0
 51
180.0
  0
LINE
  5
4E
100
AcDbEntity
100
AcDbLine
  8
Bottom Layer
 62
256
370
-1
  6
ByLayer
 10
46.5999999999994614
 20
35.0676947614807872
 30
0.0
 11
48.0999999999994685
 21
35.0676947614807872
 31
0.0
  0
LINE
  5
4F
100
AcDbEntity
100
AcDbLine
  8
Bottom Layer
 62
256
370
-1
  6
ByLayer
 10
43.8999999999994728
 20
35.0676947614806735
 30
0.0
 11
46.5999999999994614
 21
35.0676947614807872
 31
0.0
  0
LINE
  5
50
100
AcDbEntity
100
AcDbLine
  8
Bottom Layer
 62
256
370
-1
  6
ByLayer
 10
48.5999999999994401
 20
34.5676947614806735
 30
0.0
 11
48.5999999999994614
 21
28.4271461718853011
 31
0.0
  0
LINE
  5
51
100
AcDbEntity
100
AcDbLine
  8
Bottom Layer
 62
256
370
-1
  6
ByLayer
 10
46.5999999999995538
 20
22.0676947614807872
 30
0.0
 11
43.8999999999995367
 21
22.0676947614806735
 31
0.0
  0
LINE
  5
52
100
AcDbEntity
100
AcDbLine
  8
Bottom Layer
 62
256
370
-1
  6
ByLayer
 10
48.5999999999995467
 20
22.5676947614807872
 30
0.0
 11
48.5999999999994614
 21
28.4271461718853011
 31
0.0
  0
LINE
  5
53
100
AcDbEntity
100
AcDbLine
  8
Bottom Layer
 62
256
370
-1
  6
ByLayer
 10
46.5999999999995538
 20
22.0676947614807872
 30
0.0
 11
48.0999999999995467
 21
22.0676947614807943
 31
0.0
  0
LINE
  5
54
100
AcDbEntity
100
AcDbLine
  8
Bottom Layer
 62
256
370
-1
  6
ByLayer
 10
43.3999999999991388
 20
72.7819110292270608
 30
0.0
 11
46.5999999999992127
 21
73.9466157788790213
 31
0.0
  0
CIRCLE
  5
55
100
AcDbEntity
100
AcDbCircle
  8
Bottom Layer
 62
256
370
-1
  6
ByLayer
 10
36.3999999999995651
 20
24.667694761480746
 30
0.0
 40
1.424999999999996
  0
CIRCLE
  5
56
100
AcDbEntity
100
AcDbCircle
  8
Bottom Layer
 62
256
370
-1
  6
ByLayer
 10
28.3999999999996611
 20
24.6676947614806394
 30
0.0
 40
1.424999999999996
  0
CIRCLE
  5
57
100
AcDbEntity
100
AcDbCircle
  8
Bottom Layer
 62
256
370
-1
  6
ByLayer
 10
28.3999999999995474
 20
32.4676947614806579
 30
0.0
 40
1.424999999999996
  0
CIRCLE
  5
58
100
AcDbEntity
100
AcDbCircle
  8
Bottom Layer
 62
256
370
-1
  6
ByLayer
 10
36.399999999999558
 20
32.4676947614807077
 30
0.0
 40
1.424999999999996
  0
LINE
  5
59
100
AcDbEntity
100
AcDbLine
  8
Bottom Layer
 62
256
370
-1
  6
ByLayer
 10
20.9565492689910364
 20
64.6131630089199405
 30
0.0
 11
22.8034580429497638
 21
59.5388228566760773
 31
0.0
  0
LINE
  5
5A
100
AcDbEntity
100
AcDbLine
  8
Bottom Layer
 62
256
370
-1
  6
ByLayer
 10
7.6598986848706367
 20
59.7735779808616172
 30
0.0
 11
20.9565492689911608
 21
64.6131630089200542
 31
0.0
  0
LINE
  5
5B
100
AcDbEntity
100
AcDbLine
  8
Bottom Layer
 62
256
370
-1
  6
ByLayer
 10
14.5723358707313899
 20
40.7818128993113405
 30
0.0
 11
7.6598986848706367
 21
59.7735779808616172
 31
0.0
  0
LINE
  5
5C
100
AcDbEntity
100
AcDbLine
  8
Bottom Layer
 62
256
370
-1
  6
ByLayer
 10
19.9999999999998366
 20
8.0676947614809578
 30
0.0
 11
20.0000000000013394
 21
10.0
 31
0.0
  0
LINE
  5
5D
100
AcDbEntity
100
AcDbLine
  8
Bottom Layer
 62
256
370
-1
  6
ByLayer
 10
13.2828515038111483
 20
55.4350988007838268
 30
0.0
 11
19.2968842768408955
 21
57.6240277180681559
 31
0.0
  0
LINE
  5
5E
100
AcDbEntity
100
AcDbLine
  8
Bottom Layer
 62
256
370
-1
  6
ByLayer
 10
20.0659119353077315
 20
57.2654242315919859
 30
0.0
 11
21.0235683366197819
 21
54.6342848933915306
 31
0.0
  0
LINE
  5
5F
100
AcDbEntity
100
AcDbLine
  8
Bottom Layer
 62
256
370
-1
  6
ByLayer
 10
20.6649648501435976
 20
53.8652572349245276
 30
0.0
 11
14.6509320771138363
 21
51.6763283176400918
 31
0.0
  0
LINE
  5
60
100
AcDbEntity
100
AcDbLine
  8
Bottom Layer
 62
256
370
-1
  6
ByLayer
 10
13.8819044186468936
 20
52.0349318041163755
 30
0.0
 11
12.9242480173349286
 21
54.6660711423167243
 31
0.0
  0
LINE
  5
61
100
AcDbEntity
100
AcDbLine
  8
Bottom Layer
 62
256
370
-1
  6
ByLayer
 10
32.7999999999996419
 20
19.4676947614807077
 30
0.0
 11
32.7999999999997556
 21
16.6676947614806998
 31
0.0
  0
LINE
  5
62
100
AcDbEntity
100
AcDbLine
  8
Bottom Layer
 62
256
370
-1
  6
ByLayer
 10
32.199999999999747
 20
16.0676947614806167
 30
0.0
 11
25.7999999999997272
 21
16.0676947614805599
 31
0.0
  0
LINE
  5
63
100
AcDbEntity
100
AcDbLine
  8
Bottom Layer
 62
256
370
-1
  6
ByLayer
 10
25.1999999999997399
 20
16.6676947614805826
 30
0.0
 11
25.199999999999676
 21
19.4676947614806508
 31
0.0
  0
LINE
  5
64
100
AcDbEntity
100
AcDbLine
  8
Bottom Layer
 62
256
370
-1
  6
ByLayer
 10
25.799999999999649
 20
20.0676947614805599
 30
0.0
 11
32.1999999999996334
 21
20.0676947614805599
 31
0.0
  0
LINE
  5
65
100
AcDbEntity
100
AcDbLine
  8
Bottom Layer
 62
256
370
-1
  6
ByLayer
 10
69.9999999999994174
 20
18.8163490354249063
 30
0.0
 11
69.999999999999531
 21
8.0676947614808956
 31
0.0
  0
LINE
  5
66
100
AcDbEntity
100
AcDbLine
  8
Bottom Layer
 62
256
370
-1
  6
ByLayer
 10
54.6445297241656434
 20
76.874585147145396
 30
0.0
 11
64.5723358707309814
 21
49.5981619347349678
 31
0.0
  0
LINE
  5
67
100
AcDbEntity
100
AcDbLine
  8
Bottom Layer
 62
256
370
-1
  6
ByLayer
 10
46.5999999999992127
 20
73.9466157788790213
 30
0.0
 11
54.6445297241656434
 21
76.874585147145396
 31
0.0
  0
LINE
  5
68
100
AcDbEntity
100
AcDbLine
  8
Bottom Layer
 62
256
370
-1
  6
ByLayer
 10
64.1999999999994913
 20
16.0676947614809364
 30
0.0
 11
57.7999999999995353
 21
16.0676947614809045
 31
0.0
  0
LINE
  5
69
100
AcDbEntity
100
AcDbLine
  8
Bottom Layer
 62
256
370
-1
  6
ByLayer
 10
57.1999999999995268
 20
16.6676947614808668
 30
0.0
 11
57.1999999999994699
 21
19.4676947614808924
 31
0.0
  0
LINE
  5
6A
100
AcDbEntity
100
AcDbLine
  8
Bottom Layer
 62
256
370
-1
  6
ByLayer
 10
57.7999999999995069
 20
20.0676947614808867
 30
0.0
 11
64.1999999999994628
 21
20.0676947614809222
 31
0.0
  0
LINE
  5
6B
100
AcDbEntity
100
AcDbLine
  8
Bottom Layer
 62
256
370
-1
  6
ByLayer
 10
64.7999999999994571
 20
19.4676947614808533
 30
0.0
 11
64.7999999999994856
 21
16.6676947614809521
 31
0.0
  0
LINE
  5
6C
100
AcDbEntity
100
AcDbLine
  8
Bottom Layer
 62
256
370
-1
  6
ByLayer
 10
47.7108387669392613
 20
64.3476569638405778
 30
0.0
 11
46.7531823656273957
 21
66.9787963020412178
 31
0.0
  0
LINE
  5
6D
100
AcDbEntity
100
AcDbLine
  8
Bottom Layer
 62
256
370
-1
  6
ByLayer
 10
47.1117858521036226
 20
67.7478239605082138
 30
0.0
 11
53.1258186251332916
 21
69.9367528777924861
 31
0.0
  0
LINE
  5
6E
100
AcDbEntity
100
AcDbLine
  8
Bottom Layer
 62
256
370
-1
  6
ByLayer
 10
53.8948462836002662
 20
69.578149391316316
 30
0.0
 11
54.8525026849121531
 21
66.9470100531157897
 31
0.0
  0
LINE
  5
6F
100
AcDbEntity
100
AcDbLine
  8
Bottom Layer
 62
256
370
-1
  6
ByLayer
 10
54.4938991984359262
 20
66.1779823946488648
 30
0.0
 11
48.4798664254062572
 21
63.9890534773645285
 31
0.0
  0
LINE
  5
70
100
AcDbEntity
100
AcDbLine
  8
Bottom Layer
 62
256
370
-1
  6
ByLayer
 10
41.3478791400451229
 20
72.0350001190870728
 30
0.0
 11
43.3999999999991388
 21
72.7819110292270608
 31
0.0
  0
LINE
  5
71
100
AcDbEntity
100
AcDbLine
  8
Bottom Layer
 62
256
370
-1
  6
ByLayer
 10
43.1947879140037756
 20
66.9606599668432807
 30
0.0
 11
41.3478791400451229
 21
72.0350001190870728
 31
0.0
  0
ARC
  5
72
100
AcDbEntity
  8
Bottom Layer
 62
256
370
-1
  6
ByLayer
100
AcDbCircle
 10
23.3672736154213041
 20
59.7440349426715542
 30
0.0
 40
0.600000000000006
100
AcDbArc
 50
199.9999999999995737
 51
290.0000000000000568
  0
ARC
  5
73
100
AcDbEntity
  8
Bottom Layer
 62
256
370
-1
  6
ByLayer
100
AcDbCircle
 10
19.5020963628362551
 20
57.0602121455966298
 30
0.0
 40
0.5999999999999791
100
AcDbArc
 50
20.0000000000006892
 51
110.0000000000033396
  0
ARC
  5
74
100
AcDbEntity
  8
Bottom Layer
 62
256
370
-1
  6
ByLayer
100
AcDbCircle
 10
20.459752764148142
 20
54.42907280739594
 30
0.0
 40
0.599999999999983
100
AcDbArc
 50
290.0000000000000568
 51
20.0000000000032863
  0
ARC
  5
75
100
AcDbEntity
  8
Bottom Layer
 62
256
370
-1
  6
ByLayer
100
AcDbCircle
 10
14.4457199911184571
 20
52.240143890111618
 30
0.0
 40
0.599999999999974
100
AcDbArc
 50
199.9999999999969873
 51
290.0000000000000568
  0
ARC
  5
76
100
AcDbEntity
  8
Bottom Layer
 62
256
370
-1
  6
ByLayer
100
AcDbCircle
 10
13.488063589806556
 20
54.8712832283123007
 30
0.0
 40
0.600000000000009
100
AcDbArc
 50
110.0000000000018048
 51
199.9999999999990621
  0
ARC
  5
77
100
AcDbEntity
  8
Bottom Layer
 62
256
370
-1
  6
ByLayer
100
AcDbCircle
 10
32.199999999999747
 20
16.6676947614807531
 30
0.0
 40
0.599999999999999
100
AcDbArc
 50
270.0
 51
360.0
  0
ARC
  5
78
100
AcDbEntity
  8
Bottom Layer
 62
256
370
-1
  6
ByLayer
100
AcDbCircle
 10
25.7999999999997414
 20
16.6676947614805826
 30
0.0
 40
0.5999999999999968
100
AcDbArc
 50
180.0
 51
270.0
  0
ARC
  5
79
100
AcDbEntity
  8
Bottom Layer
 62
256
370
-1
  6
ByLayer
100
AcDbCircle
 10
25.7999999999996348
 20
19.467694761480594
 30
0.0
 40
0.6000000000000034
100
AcDbArc
 50
90.0000000000017337
 51
180.0
  0
ARC
  5
7A
100
AcDbEntity
  8
Bottom Layer
 62
256
370
-1
  6
ByLayer
100
AcDbCircle
 10
32.1999999999996405
 20
19.4676947614807077
 30
0.0
 40
0.6000000000000013
100
AcDbArc
 50
360.0
 51
89.9999999999983231
  0
ARC
  5
7B
100
AcDbEntity
  8
Bottom Layer
 62
256
370
-1
  6
ByLayer
100
AcDbCircle
 10
57.7999999999995353
 20
16.6676947614808988
 30
0.0
 40
0.5999999999999968
100
AcDbArc
 50
180.0
 51
270.0
  0
ARC
  5
7C
100
AcDbEntity
  8
Bottom Layer
 62
256
370
-1
  6
ByLayer
100
AcDbCircle
 10
57.7999999999995069
 20
19.4676947614808853
 30
0.0
 40
0.6000000000000034
100
AcDbArc
 50
90.0000000000017337
 51
180.0
  0
ARC
  5
7D
100
AcDbEntity
  8
Bottom Layer
 62
256
370
-1
  6
ByLayer
100
AcDbCircle
 10
64.1999999999994628
 20
19.4676947614808782
 30
0.0
 40
0.599999999999999
100
AcDbArc
 50
360.0
 51
89.9999999999983231
  0
ARC
  5
7E
100
AcDbEntity
  8
Bottom Layer
 62
256
370
-1
  6
ByLayer
100
AcDbCircle
 10
64.1999999999995197
 20
16.6676947614809947
 30
0.0
 40
0.599999999999999
100
AcDbArc
 50
270.0
 51
360.0
  0
ARC
  5
7F
100
AcDbEntity
  8
Bottom Layer
 62
256
370
-1
  6
ByLayer
100
AcDbCircle
 10
47.3169979380989432
 20
67.1840083880366308
 30
0.0
 40
0.5999999999999952
100
AcDbArc
 50
110.0000000000002842
 51
200.0000000000001705
  0
ARC
  5
80
100
AcDbEntity
  8
Bottom Layer
 62
256
370
-1
  6
ByLayer
100
AcDbCircle
 10
53.3310307111288466
 20
69.3729373053209457
 30
0.0
 40
0.5999999999999801
100
AcDbArc
 50
20.0000000000001812
 51
110.0000000000018048
  0
ARC
  5
81
100
AcDbEntity
  8
Bottom Layer
 62
256
370
-1
  6
ByLayer
100
AcDbCircle
 10
54.2886871124405275
 20
66.7417979671203909
 30
0.0
 40
0.5999999999999871
100
AcDbArc
 50
290.0000000000000568
 51
20.0000000000001812
  0
ARC
  5
82
100
AcDbEntity
  8
Bottom Layer
 62
256
370
-1
  6
ByLayer
100
AcDbCircle
 10
48.274654339410894
 20
64.5528690498360049
 30
0.0
 40
0.5999999999999908
100
AcDbArc
 50
200.0000000000001421
 51
290.000000000001819
  0
ARC
  5
83
100
AcDbEntity
  8
Bottom Layer
 62
256
370
-1
  6
ByLayer
100
AcDbCircle
 10
42.6309723415322566
 20
66.7554478808478677
 30
0.0
 40
0.5999999999999939
100
AcDbArc
 50
290.0000000000000568
 51
20.0000000000001812
  0
ARC
  5
84
100
AcDbEntity
  8
Bottom Layer
 62
256
370
-1
  6
ByLayer
100
AcDbCircle
 10
-69.9999999999994458
 20
10.0000000000000107
 30
0.0
 40
89.9999999999994458
100
AcDbArc
 50
360.0
 51
20.0000000000005862
  0
ARC
  5
85
100
AcDbEntity
  8
Bottom Layer
 62
256
370
-1
  6
ByLayer
100
AcDbCircle
 10
-19.9999999999992681
 20
18.8163490354241034
 30
0.0
 40
89.9999999999989058
100
AcDbArc
 50
360.0
 51
20.0000000000006892
  0
LINE
  5
86
100
AcDbEntity
100
AcDbLine
  8
Bottom Layer
 62
256
370
-1
  6
ByLayer
 10
23.5724857014167029
 20
59.1802193702000068
 30
0.0
 11
42.8361844275277193
 21
66.1916323083763416
 31
0.0
  0
LINE
  5
87
100
AcDbEntity
100
AcDbLine
  8
Bottom Layer
 62
256
370
-1
  6
ByLayer
 10
69.999999999999531
 20
8.0676947614808956
 30
0.0
 11
19.9999999999998366
 21
8.0676947614809578
 31
0.0
  0
LINE
  5
88
100
AcDbEntity
100
AcDbLine
  8
Bottom Layer
 62
256
370
-1
  6
ByLayer
 10
43.3999999999994799
 20
34.5676947614807233
 30
0.0
 11
43.3999999999995296
 21
22.5676947614807872
 31
0.0
  0
ENDSEC
  0
SECTION
  2
OBJECTS
  0
DICTIONARY
  5
C
100
AcDbDictionary
280
0
281
1
  3
ACAD_GROUP
350
D
  3
ACAD_LAYOUT
350
1A
  3
ACAD_MLINESTYLE
350
17
  3
ACAD_PLOTSETTINGS
350
19
  3
ACAD_PLOTSTYLENAME
350
E
  3
AcDbVariableDictionary
350
89
  0
DICTIONARY
  5
D
100
AcDbDictionary
280
0
281
1
  0
ACDBDICTIONARYWDFLT
  5
E
100
AcDbDictionary
281
1
  3
Normal
350
F
100
AcDbDictionaryWithDefault
340
F
  0
ACDBPLACEHOLDER
  5
F
  0
DICTIONARY
  5
17
100
AcDbDictionary
280
0
281
1
  3
Standard
350
18
  0
MLINESTYLE
  5
18
100
AcDbMlineStyle
  2
STANDARD
 70
0
  3

 62
256
 51
90.0
 52
90.0
 71
2
 49
0.5
 62
256
  6
BYLAYER
 49
-0.5
 62
256
  6
BYLAYER
  0
DICTIONARY
  5
19
100
AcDbDictionary
280
0
281
1
  0
DICTIONARY
  5
1A
100
AcDbDictionary
281
1
  3
Layout1
350
1E
  3
Layout2
350
26
  3
Model
350
22
  0
LAYOUT
  5
1E
100
AcDbPlotSettings
  1

  2
C:\Program Files\AutoCAD 2002\plotters\DWF ePlot (optimized for plotting).pc3
  4

  6

 40
0.0
 41
0.0
 42
0.0
 43
0.0
 44
0.0
 45
0.0
 46
0.0
 47
0.0
 48
0.0
 49
0.0
140
0.0
141
0.0
142
1.0
143
1.0
 70
688
 72
0
 73
0
 74
5
  7

 75
16
147
1.0
148
0.0
149
0.0
100
AcDbLayout
  1
Layout1
 70
1
 71
1
 10
0.0
 20
0.0
 11
420.0
 21
297.0
 12
0.0
 22
0.0
 32
0.0
 14
100000000000000000000.0
 24
100000000000000000000.0
 34
100000000000000000000.0
 15
-100000000000000000000.0
 25
-100000000000000000000.0
 35
-100000000000000000000.0
146
0.0
 13
0.0
 23
0.0
 33
0.0
 16
1.0
 26
0.0
 36
0.0
 17
0.0
 27
1.0
 37
0.0
 76
0
330
1B
  0
LAYOUT
  5
22
100
AcDbPlotSettings
  1

  2
C:\Program Files\AutoCAD 2002\plotters\DWF ePlot (optimized for plotting).pc3
  4

  6

 40
0.0
 41
0.0
 42
0.0
 43
0.0
 44
0.0
 45
0.0
 46
0.0
 47
0.0
 48
0.0
 49
0.0
140
0.0
141
0.0
142
1.0
143
1.0
 70
1712
 72
0
 73
0
 74
0
  7

 75
0
147
1.0
148
0.0
149
0.0
100
AcDbLayout
  1
Model
 70
1
 71
0
 10
0.0
 20
0.0
 11
12.0
 21
9.0
 12
0.0
 22
0.0
 32
0.0
 14
0.0
 24
0.0
 34
0.0
 15
0.0
 25
0.0
 35
0.0
146
0.0
 13
0.0
 23
0.0
 33
0.0
 16
1.0
 26
0.0
 36
0.0
 17
0.0
 27
1.0
 37
0.0
 76
0
330
1F
  0
LAYOUT
  5
26
100
AcDbPlotSettings
  1

  2
C:\Program Files\AutoCAD 2002\plotters\DWF ePlot (optimized for plotting).pc3
  4

  6

 40
0.0
 41
0.0
 42
0.0
 43
0.0
 44
0.0
 45
0.0
 46
0.0
 47
0.0
 48
0.0
 49
0.0
140
0.0
141
0.0
142
1.0
143
1.0
 70
688
 72
0
 73
0
 74
5
  7

 75
16
147
1.0
148
0.0
149
0.0
100
AcDbLayout
  1
Layout2
 70
1
 71
2
 10
0.0
 20
0.0
 11
12.0
 21
9.0
 12
0.0
 22
0.0
 32
0.0
 14
0.0
 24
0.0
 34
0.0
 15
0.0
 25
0.0
 35
0.0
146
0.0
 13
0.0
 23
0.0
 33
0.0
 16
1.0
 26
0.0
 36
0.0
 17
0.0
 27
1.0
 37
0.0
 76
0
330
23
  0
DICTIONARY
  5
89
100
AcDbDictionary
281
1
  3
DIMASSOC
350
8B
  3
HIDETEXT
350
8A
  0
DICTIONARYVAR
  5
8A
100
DictionaryVariables
280
0
  1
2
  0
DICTIONARYVAR
  5
8B
100
DictionaryVariables
280
0
  1
1
  0
ENDSEC
  0
EOF
