999
dxflib 2.1.2.0
  0
SECTION
  2
HEADER
  9
$ACADVER
  1
AC1015
  9
$HANDSEED
  5
FFFF
  9
$DIMASZ
 40
2.5
  9
$PLIMMIN
 10
0.0
 20
0.0
  9
$DIMEXE
 40
1.25
  9
$DIMGAP
 40
0.625
  9
$PLIMMAX
 10
210.0
 20
297.0
  9
$INSUNITS
 70
4
  9
$DIMSTYLE
  2
Standard
  9
$CLAYER
  8
0
  9
$DIMEXO
 40
0.625
  9
$DIMTXT
 40
2.5
  9
$CLAYER
  8
0
  0
ENDSEC
  0
SECTION
  2
TABLES
  0
TABLE
  2
VPORT
  5
8
100
AcDbSymbolTable
 70
1
  0
VPORT
  5
30
100
AcDbSymbolTableRecord
100
AcDbViewportTableRecord
  2
*Active
 70
0
 10
0.0
 20
0.0
 11
1.0
 21
1.0
 12
286.3055555555554861
 22
148.5
 13
0.0
 23
0.0
 14
10.0
 24
10.0
 15
10.0
 25
10.0
 16
0.0
 26
0.0
 36
1.0
 17
0.0
 27
0.0
 37
0.0
 40
297.0
 41
1.92798353909465
 42
50.0
 43
0.0
 44
0.0
 50
0.0
 51
0.0
 71
0
 72
100
 73
1
 74
3
 75
1
 76
1
 77
0
 78
0
281
0
 65
1
110
0.0
120
0.0
130
0.0
111
1.0
121
0.0
131
0.0
112
0.0
122
1.0
132
0.0
 79
0
146
0.0
  0
ENDTAB
  0
TABLE
  2
LTYPE
  5
5
100
AcDbSymbolTable
 70
21
  0
LTYPE
  5
14
100
AcDbSymbolTableRecord
100
AcDbLinetypeTableRecord
  2
ByBlock
 70
0
  3

 72
65
 73
0
 40
0.0
  0
LTYPE
  5
15
100
AcDbSymbolTableRecord
100
AcDbLinetypeTableRecord
  2
ByLayer
 70
0
  3

 72
65
 73
0
 40
0.0
  0
LTYPE
  5
16
100
AcDbSymbolTableRecord
100
AcDbLinetypeTableRecord
  2
CONTINUOUS
 70
0
  3
Solid line
 72
65
 73
0
 40
0.0
  0
LTYPE
  5
31
100
AcDbSymbolTableRecord
100
AcDbLinetypeTableRecord
  2
DOT
 70
0
  3
Dot . . . . . . . . . . . . . . . . . . . . . .
 72
65
 73
2
 40
6.3499999999999996
 49
0.0
 74
0
 49
-6.3499999999999996
 74
0
  0
LTYPE
  5
32
100
AcDbSymbolTableRecord
100
AcDbLinetypeTableRecord
  2
DOT2
 70
0
  3
Dot (.5x) .....................................
 72
65
 73
2
 40
3.1749999999999998
 49
0.0
 74
0
 49
-3.1749999999999998
 74
0
  0
LTYPE
  5
33
100
AcDbSymbolTableRecord
100
AcDbLinetypeTableRecord
  2
DOTX2
 70
0
  3
Dot (2x) .  .  .  .  .  .  .  .  .  .  .  .  .
 72
65
 73
2
 40
12.6999999999999993
 49
0.0
 74
0
 49
-12.6999999999999993
 74
0
  0
LTYPE
  5
34
100
AcDbSymbolTableRecord
100
AcDbLinetypeTableRecord
  2
DASHED
 70
0
  3
Dashed __ __ __ __ __ __ __ __ __ __ __ __ __ _
 72
65
 73
2
 40
19.0500000000000007
 49
12.6999999999999993
 74
0
 49
-6.3499999999999996
 74
0
  0
LTYPE
  5
35
100
AcDbSymbolTableRecord
100
AcDbLinetypeTableRecord
  2
DASHED2
 70
0
  3
Dashed (.5x) _ _ _ _ _ _ _ _ _ _ _ _ _ _ _ _ _
 72
65
 73
2
 40
9.5250000000000004
 49
6.3499999999999996
 74
0
 49
-3.1749999999999998
 74
0
  0
LTYPE
  5
36
100
AcDbSymbolTableRecord
100
AcDbLinetypeTableRecord
  2
DASHEDX2
 70
0
  3
Dashed (2x) ____  ____  ____  ____  ____  ___
 72
65
 73
2
 40
38.1000000000000014
 49
25.3999999999999986
 74
0
 49
-12.6999999999999993
 74
0
  0
LTYPE
  5
37
100
AcDbSymbolTableRecord
100
AcDbLinetypeTableRecord
  2
DASHDOT
 70
0
  3
Dash dot __ . __ . __ . __ . __ . __ . __ . __
 72
65
 73
4
 40
25.3999999999999986
 49
12.6999999999999993
 74
0
 49
-6.3499999999999996
 74
0
 49
0.0
 74
0
 49
-6.3499999999999996
 74
0
  0
LTYPE
  5
38
100
AcDbSymbolTableRecord
100
AcDbLinetypeTableRecord
  2
DASHDOT2
 70
0
  3
Dash dot (.5x) _._._._._._._._._._._._._._._.
 72
65
 73
4
 40
12.6999999999999993
 49
6.3499999999999996
 74
0
 49
-3.1749999999999998
 74
0
 49
0.0
 74
0
 49
-3.1749999999999998
 74
0
  0
LTYPE
  5
39
100
AcDbSymbolTableRecord
100
AcDbLinetypeTableRecord
  2
DASHDOTX2
 70
0
  3
Dash dot (2x) ____  .  ____  .  ____  .  ___
 72
65
 73
4
 40
50.7999999999999972
 49
25.3999999999999986
 74
0
 49
-12.6999999999999993
 74
0
 49
0.0
 74
0
 49
-12.6999999999999993
 74
0
  0
LTYPE
  5
3A
100
AcDbSymbolTableRecord
100
AcDbLinetypeTableRecord
  2
DIVIDE
 70
0
  3
Divide ____ . . ____ . . ____ . . ____ . . ____
 72
65
 73
6
 40
31.75
 49
12.6999999999999993
 74
0
 49
-6.3499999999999996
 74
0
 49
0.0
 74
0
 49
-6.3499999999999996
 74
0
 49
0.0
 74
0
 49
-6.3499999999999996
 74
0
  0
LTYPE
  5
3B
100
AcDbSymbolTableRecord
100
AcDbLinetypeTableRecord
  2
DIVIDE2
 70
0
  3
Divide (.5x) __..__..__..__..__..__..__..__.._
 72
65
 73
6
 40
15.875
 49
6.3499999999999996
 74
0
 49
-3.1749999999999998
 74
0
 49
0.0
 74
0
 49
-3.1749999999999998
 74
0
 49
0.0
 74
0
 49
-3.1749999999999998
 74
0
  0
LTYPE
  5
3C
100
AcDbSymbolTableRecord
100
AcDbLinetypeTableRecord
  2
DIVIDEX2
 70
0
  3
Divide (2x) ________  .  .  ________  .  .  _
 72
65
 73
6
 40
63.5
 49
25.3999999999999986
 74
0
 49
-12.6999999999999993
 74
0
 49
0.0
 74
0
 49
-12.6999999999999993
 74
0
 49
0.0
 74
0
 49
-12.6999999999999993
 74
0
  0
LTYPE
  5
3D
100
AcDbSymbolTableRecord
100
AcDbLinetypeTableRecord
  2
CENTER
 70
0
  3
Center ____ _ ____ _ ____ _ ____ _ ____ _ ____
 72
65
 73
4
 40
50.7999999999999972
 49
31.75
 74
0
 49
-6.3499999999999996
 74
0
 49
6.3499999999999996
 74
0
 49
-6.3499999999999996
 74
0
  0
LTYPE
  5
3E
100
AcDbSymbolTableRecord
100
AcDbLinetypeTableRecord
  2
CENTER2
 70
0
  3
Center (.5x) ___ _ ___ _ ___ _ ___ _ ___ _ ___
 72
65
 73
4
 40
28.5749999999999993
 49
19.0500000000000007
 74
0
 49
-3.1749999999999998
 74
0
 49
3.1749999999999998
 74
0
 49
-3.1749999999999998
 74
0
  0
LTYPE
  5
3F
100
AcDbSymbolTableRecord
100
AcDbLinetypeTableRecord
  2
CENTERX2
 70
0
  3
Center (2x) ________  __  ________  __  _____
 72
65
 73
4
 40
101.5999999999999943
 49
63.5
 74
0
 49
-12.6999999999999993
 74
0
 49
12.6999999999999993
 74
0
 49
-12.6999999999999993
 74
0
  0
LTYPE
  5
40
100
AcDbSymbolTableRecord
100
AcDbLinetypeTableRecord
  2
BORDER
 70
0
  3
Border __ __ . __ __ . __ __ . __ __ . __ __ .
 72
65
 73
6
 40
44.4500000000000028
 49
12.6999999999999993
 74
0
 49
-6.3499999999999996
 74
0
 49
12.6999999999999993
 74
0
 49
-6.3499999999999996
 74
0
 49
0.0
 74
0
 49
-6.3499999999999996
 74
0
  0
LTYPE
  5
41
100
AcDbSymbolTableRecord
100
AcDbLinetypeTableRecord
  2
BORDER2
 70
0
  3
Border (.5x) __.__.__.__.__.__.__.__.__.__.__.
 72
65
 73
6
 40
22.2250000000000014
 49
6.3499999999999996
 74
0
 49
-3.1749999999999998
 74
0
 49
6.3499999999999996
 74
0
 49
-3.1749999999999998
 74
0
 49
0.0
 74
0
 49
-3.1749999999999998
 74
0
  0
LTYPE
  5
42
100
AcDbSymbolTableRecord
100
AcDbLinetypeTableRecord
  2
BORDERX2
 70
0
  3
Border (2x) ____  ____  .  ____  ____  .  ___
 72
65
 73
6
 40
88.9000000000000057
 49
25.3999999999999986
 74
0
 49
-12.6999999999999993
 74
0
 49
25.3999999999999986
 74
0
 49
-12.6999999999999993
 74
0
 49
0.0
 74
0
 49
-12.6999999999999993
 74
0
  0
ENDTAB
  0
TABLE
  2
LAYER
  5
2
100
AcDbSymbolTable
 70
10
  0
LAYER
  5
10
100
AcDbSymbolTableRecord
100
AcDbLayerTableRecord
  2
0
 70
0
 62
7
  6
CONTINUOUS
370
0
390
F
  0
LAYER
  5
43
100
AcDbSymbolTableRecord
100
AcDbLayerTableRecord
  2
Bottom Layer
 70
0
 62
7
  6
CONTINUOUS
370
0
390
F
  0
LAYER
  5
44
100
AcDbSymbolTableRecord
100
AcDbLayerTableRecord
  2
Top
 70
0
 62
7
  6
CONTINUOUS
370
0
390
F
  0
LAYER
  5
45
100
AcDbSymbolTableRecord
100
AcDbLayerTableRecord
  2
Bottom
 70
0
 62
7
  6
CONTINUOUS
370
0
390
F
  0
LAYER
  5
46
100
AcDbSymbolTableRecord
100
AcDbLayerTableRecord
  2
Bottom Plate
 70
0
 62
7
  6
CONTINUOUS
370
0
390
F
  0
LAYER
  5
47
100
AcDbSymbolTableRecord
100
AcDbLayerTableRecord
  2
Bottom Text
 70
0
 62
4
  6
CONTINUOUS
370
0
390
F
  0
LAYER
  5
48
100
AcDbSymbolTableRecord
100
AcDbLayerTableRecord
  2
Top Plate
 70
0
 62
7
  6
CONTINUOUS
370
0
390
F
  0
LAYER
  5
49
100
AcDbSymbolTableRecord
100
AcDbLayerTableRecord
  2
Top Text
 70
0
 62
4
  6
CONTINUOUS
370
0
390
F
  0
LAYER
  5
4A
100
AcDbSymbolTableRecord
100
AcDbLayerTableRecord
  2
Notes
 70
0
 62
7
  6
CONTINUOUS
370
0
390
F
  0
LAYER
  5
4B
100
AcDbSymbolTableRecord
100
AcDbLayerTableRecord
  2
Text
 70
0
 62
4
  6
CONTINUOUS
370
0
390
F
  0
ENDTAB
  0
TABLE
  2
STYLE
  5
3
100
AcDbSymbolTable
 70
1
  0
STYLE
  5
11
100
AcDbSymbolTableRecord
100
AcDbTextStyleTableRecord
  2
Standard
 70
0
 40
0.0
 41
0.75
 50
0.0
 71
0
 42
2.5
  3
txt
  4

  0
ENDTAB
  0
TABLE
  2
VIEW
  5
6
100
AcDbSymbolTable
 70
0
  0
ENDTAB
  0
TABLE
  2
UCS
  5
7
100
AcDbSymbolTable
 70
0
  0
ENDTAB
  0
TABLE
  2
APPID
  5
9
100
AcDbSymbolTable
 70
1
  0
APPID
  5
12
100
AcDbSymbolTableRecord
100
AcDbRegAppTableRecord
  2
ACAD
 70
0
  0
ENDTAB
  0
TABLE
  2
DIMSTYLE
  5
A
100
AcDbSymbolTable
 70
1
100
AcDbDimStyleTable
 71
0
  0
DIMSTYLE
105
27
100
AcDbSymbolTableRecord
100
AcDbDimStyleTableRecord
  2
Standard
 41
2.5
 42
0.625
 43
3.75
 44
1.25
 70
0
 73
0
 74
0
 77
1
 78
8
140
2.5
141
2.5
143
0.03937007874016
147
0.625
171
3
172
1
271
2
272
2
274
3
278
44
283
0
284
8
340
11
  0
ENDTAB
  0
TABLE
  2
BLOCK_RECORD
  5
1
100
AcDbSymbolTable
 70
1
  0
BLOCK_RECORD
  5
1F
100
AcDbSymbolTableRecord
100
AcDbBlockTableRecord
  2
*Model_Space
340
22
  0
BLOCK_RECORD
  5
1B
100
AcDbSymbolTableRecord
100
AcDbBlockTableRecord
  2
*Paper_Space
340
1E
  0
BLOCK_RECORD
  5
23
100
AcDbSymbolTableRecord
100
AcDbBlockTableRecord
  2
*Paper_Space0
340
26
  0
ENDTAB
  0
ENDSEC
  0
SECTION
  2
BLOCKS
  0
BLOCK
  5
20
100
AcDbEntity
  8
0
100
AcDbBlockBegin
  2
*Model_Space
 70
0
 10
0.0
 20
0.0
 30
0.0
  3
*Model_Space
  1

  0
ENDBLK
  5
21
100
AcDbEntity
  8
0
100
AcDbBlockEnd
  0
BLOCK
  5
1C
100
AcDbEntity
 67
1
  8
0
100
AcDbBlockBegin
  2
*Paper_Space
 70
0
 10
0.0
 20
0.0
 30
0.0
  3
*Paper_Space
  1

  0
ENDBLK
  5
1D
100
AcDbEntity
 67
1
  8
0
100
AcDbBlockEnd
  0
BLOCK
  5
24
100
AcDbEntity
  8
0
100
AcDbBlockBegin
  2
*Paper_Space0
 70
0
 10
0.0
 20
0.0
 30
0.0
  3
*Paper_Space0
  1

  0
ENDBLK
  5
25
100
AcDbEntity
  8
0
100
AcDbBlockEnd
  0
ENDSEC
  0
SECTION
  2
ENTITIES
  0
CIRCLE
  5
4C
100
AcDbEntity
100
AcDbCircle
  8
0
 62
256
370
-1
  6
ByLayer
 10
40.0
 20
30.0
 30
0.0
 40
1.5
  0
CIRCLE
  5
4D
100
AcDbEntity
100
AcDbCircle
  8
0
 62
256
370
-1
  6
ByLayer
 10
40.0
 20
30.0
 30
0.0
 40
4.0
  0
CIRCLE
  5
4E
100
AcDbEntity
100
AcDbCircle
  8
0
 62
256
370
-1
  6
ByLayer
 10
60.0
 20
30.0
 30
0.0
 40
1.5
  0
CIRCLE
  5
4F
100
AcDbEntity
100
AcDbCircle
  8
0
 62
256
370
-1
  6
ByLayer
 10
60.0
 20
30.0
 30
0.0
 40
4.0
  0
CIRCLE
  5
50
100
AcDbEntity
100
AcDbCircle
  8
0
 62
256
370
-1
  6
ByLayer
 10
80.0
 20
30.0
 30
0.0
 40
1.5
  0
CIRCLE
  5
51
100
AcDbEntity
100
AcDbCircle
  8
0
 62
256
370
-1
  6
ByLayer
 10
80.0
 20
30.0
 30
0.0
 40
4.0
  0
CIRCLE
  5
52
100
AcDbEntity
100
AcDbCircle
  8
0
 62
256
370
-1
  6
ByLayer
 10
100.0
 20
30.0
 30
0.0
 40
1.5
  0
CIRCLE
  5
53
100
AcDbEntity
100
AcDbCircle
  8
0
 62
256
370
-1
  6
ByLayer
 10
100.0
 20
30.0
 30
0.0
 40
4.0
  0
CIRCLE
  5
54
100
AcDbEntity
100
AcDbCircle
  8
Bottom Plate
 62
256
370
-1
  6
ByLayer
 10
182.1295583211671953
 20
61.0002920671456366
 30
0.0
 40
2.4249999999999998
  0
CIRCLE
  5
55
100
AcDbEntity
100
AcDbCircle
  8
Bottom Plate
 62
256
370
-1
  6
ByLayer
 10
189.0290505747579459
 20
96.3329541044538473
 30
0.0
 40
2.4249999999999998
  0
LINE
  5
56
100
AcDbEntity
100
AcDbLine
  8
Bottom Plate
 62
256
370
-1
  6
ByLayer
 10
176.1124434597998629
 20
58.7475262681524555
 30
0.0
 11
170.7355269300370537
 21
73.1092164065715622
 31
0.0
  0
ARC
  5
57
100
AcDbEntity
  8
Bottom Plate
 62
256
370
-1
  6
ByLayer
100
AcDbCircle
 10
185.5793044479625564
 20
78.6666230857996425
 30
0.0
 40
15.8499999999999996
100
AcDbArc
 50
137.3759674952218006
 51
200.5255493212027034
  0
LINE
  5
58
100
AcDbEntity
100
AcDbLine
  8
Bottom Plate
 62
256
370
-1
  6
ByLayer
 10
173.9166666666665719
 20
89.4000000000000909
 30
0.0
 11
184.3014513479550942
 21
100.6838655665192164
 31
0.0
  0
ARC
  5
59
100
AcDbEntity
  8
Bottom Plate
 62
256
370
-1
  6
ByLayer
100
AcDbCircle
 10
189.0290505747579459
 20
96.3329541044538473
 30
0.0
 40
6.424999999999998
100
AcDbArc
 50
20.5255493212026998
 51
137.3759674952219996
  0
LINE
  5
5A
100
AcDbEntity
100
AcDbLine
  8
Bottom Plate
 62
256
370
-1
  6
ByLayer
 10
195.0461654361251931
 20
98.5857199034469431
 30
0.0
 11
200.4230819658880591
 21
84.2240297650278364
 31
0.0
  0
ARC
  5
5B
100
AcDbEntity
  8
Bottom Plate
 62
256
370
-1
  6
ByLayer
100
AcDbCircle
 10
185.5793044479625564
 20
78.6666230857996425
 30
0.0
 40
15.8499999999999996
100
AcDbArc
 50
317.3759674952219143
 51
20.5255493212026998
  0
LINE
  5
5C
100
AcDbEntity
100
AcDbLine
  8
Bottom Plate
 62
256
370
-1
  6
ByLayer
 10
197.2419422292584557
 20
67.9332461715993361
 30
0.0
 11
186.8571575479700471
 21
56.6493806050801538
 31
0.0
  0
ARC
  5
5D
100
AcDbEntity
  8
Bottom Plate
 62
256
370
-1
  6
ByLayer
100
AcDbCircle
 10
182.1295583211671953
 20
61.0002920671456366
 30
0.0
 40
6.4249999999999998
100
AcDbArc
 50
200.5255493212027034
 51
317.3759674952218006
  0
CIRCLE
  5
5E
100
AcDbEntity
100
AcDbCircle
  8
Bottom Plate
 62
256
370
-1
  6
ByLayer
 10
185.5793044479625564
 20
78.6666230857996425
 30
0.0
 40
11.0500000000000007
  0
MTEXT
  5
5F
100
AcDbEntity
100
AcDbMText
  8
Bottom Text
 62
256
370
-1
  6
ByLayer
 10
188.0
 20
93.0
 30
0.0
 40
2.0
 41
100.0
 71
1
 72
2
  1
Bottom
  7
standard
 50
0.0
 73
1
 44
1.0
  0
ELLIPSE
  5
60
100
AcDbEntity
100
AcDbEllipse
  8
Bottom Plate
 62
256
370
-1
  6
ByLayer
 10
185.2101941831616614
 20
98.4601048306559505
 30
0.0
 11
0.766610250398976
 21
3.9258513374786901
 31
0.0
 40
0.4500000000000001
 41
0.0
 42
6.2831853071795862
  0
CIRCLE
  5
61
100
AcDbEntity
100
AcDbCircle
  8
Top Plate
 62
256
370
-1
  6
ByLayer
 10
127.4435839371512174
 20
67.2532178831101817
 30
0.0
 40
2.4249999999999998
  0
CIRCLE
  5
62
100
AcDbEntity
100
AcDbCircle
  8
Top Plate
 62
256
370
-1
  6
ByLayer
 10
134.3430761907419821
 20
102.5858799204183924
 30
0.0
 40
2.4249999999999998
  0
LINE
  5
63
100
AcDbEntity
100
AcDbLine
  8
Top Plate
 62
256
370
-1
  6
ByLayer
 10
121.4264690757839134
 20
65.0004520841170006
 30
0.0
 11
116.0495525460211041
 21
79.3621422225361073
 31
0.0
  0
ARC
  5
64
100
AcDbEntity
  8
Top Plate
 62
256
370
-1
  6
ByLayer
100
AcDbCircle
 10
130.8933300639466211
 20
84.9195489017641876
 30
0.0
 40
15.8499999999999996
100
AcDbArc
 50
137.3759674952218006
 51
200.5255493212027034
  0
LINE
  5
65
100
AcDbEntity
100
AcDbLine
  8
Top Plate
 62
256
370
-1
  6
ByLayer
 10
119.2306922826506224
 20
95.6529258159646361
 30
0.0
 11
129.6154769639391304
 21
106.9367913824837615
 31
0.0
  0
ARC
  5
66
100
AcDbEntity
  8
Top Plate
 62
256
370
-1
  6
ByLayer
100
AcDbCircle
 10
134.3430761907419821
 20
102.5858799204183924
 30
0.0
 40
6.424999999999998
100
AcDbArc
 50
20.5255493212026998
 51
137.3759674952219996
  0
LINE
  5
67
100
AcDbEntity
100
AcDbLine
  8
Top Plate
 62
256
370
-1
  6
ByLayer
 10
140.3601910521092009
 20
104.8386457194114882
 30
0.0
 11
145.7371075818721238
 21
90.4769555809923673
 31
0.0
  0
ARC
  5
68
100
AcDbEntity
  8
Top Plate
 62
256
370
-1
  6
ByLayer
100
AcDbCircle
 10
130.8933300639466211
 20
84.9195489017641876
 30
0.0
 40
15.8499999999999996
100
AcDbArc
 50
317.3759674952219143
 51
20.5255493212026998
  0
LINE
  5
69
100
AcDbEntity
100
AcDbLine
  8
Top Plate
 62
256
370
-1
  6
ByLayer
 10
142.5559678452424919
 20
74.186171987563867
 30
0.0
 11
132.1711831639540833
 21
62.9023064210446918
 31
0.0
  0
ARC
  5
6A
100
AcDbEntity
  8
Top Plate
 62
256
370
-1
  6
ByLayer
100
AcDbCircle
 10
127.4435839371512174
 20
67.2532178831101817
 30
0.0
 40
6.4249999999999998
100
AcDbArc
 50
200.5255493212027034
 51
317.3759674952218006
  0
CIRCLE
  5
6B
100
AcDbEntity
100
AcDbCircle
  8
Top Plate
 62
256
370
-1
  6
ByLayer
 10
130.8933300639466211
 20
84.9195489017641876
 30
0.0
 40
5.0
  0
MTEXT
  5
6C
100
AcDbEntity
100
AcDbMText
  8
Top Text
 62
256
370
-1
  6
ByLayer
 10
135.202914504872922
 20
97.4033978925129134
 30
0.0
 40
2.0
 41
100.0
 71
1
 72
2
  1
Top
  7
standard
 50
0.0
 73
1
 44
1.0
  0
ELLIPSE
  5
6D
100
AcDbEntity
100
AcDbEllipse
  8
Top Plate
 62
256
370
-1
  6
ByLayer
 10
131.0806358663830338
 20
106.178777153443221
 30
0.0
 11
0.766610250398976
 21
3.9258513374786901
 31
0.0
 40
0.4500000000000001
 41
0.0
 42
6.2831853071795862
  0
LINE
  5
6E
100
AcDbEntity
100
AcDbLine
  8
0
 62
256
370
-1
  6
ByLayer
 10
57.8999999999999488
 20
101.3050125628933955
 30
0.0
 11
13.5
 21
101.3050125628934097
 31
0.0
  0
ARC
  5
6F
100
AcDbEntity
  8
0
 62
256
370
-1
  6
ByLayer
100
AcDbCircle
 10
13.499999999999952
 20
97.8050125628932676
 30
0.0
 40
3.5
100
AcDbArc
 50
90.0
 51
180.0
  0
LINE
  5
70
100
AcDbEntity
100
AcDbLine
  8
0
 62
256
370
-1
  6
ByLayer
 10
9.9999999999999769
 20
97.8050125628932818
 30
0.0
 11
10.0000000000000444
 21
60.0
 31
0.0
  0
ARC
  5
71
100
AcDbEntity
  8
0
 62
256
370
-1
  6
ByLayer
100
AcDbCircle
 10
14.9000000000000057
 20
59.0050125628933557
 30
0.0
 40
5.0000000000000089
100
AcDbArc
 50
168.5216590454660945
 51
226.0170368696414869
  0
LINE
  5
72
100
AcDbEntity
100
AcDbLine
  8
0
 62
256
370
-1
  6
ByLayer
 10
11.4277777777777629
 20
55.4072809387297553
 30
0.0
 11
20.7472222222222307
 21
46.41295187832106
 31
0.0
  0
CIRCLE
  5
73
100
AcDbEntity
100
AcDbCircle
  8
0
 62
256
370
-1
  6
ByLayer
 10
14.8999999999999844
 20
59.0050125628933557
 30
0.0
 40
2.4249999999999989
  0
CIRCLE
  5
74
100
AcDbEntity
100
AcDbCircle
  8
0
 62
256
370
-1
  6
ByLayer
 10
50.8999999999999773
 20
59.0050125628934268
 30
0.0
 40
2.4249999999999989
  0
ARC
  5
75
100
AcDbEntity
  8
0
 62
256
370
-1
  6
ByLayer
100
AcDbCircle
 10
56.8999999999999773
 20
68.1939039264892699
 30
0.0
 40
2.0000000000000049
100
AcDbArc
 50
90.0
 51
180.0
  0
ARC
  5
76
100
AcDbEntity
  8
0
 62
256
370
-1
  6
ByLayer
100
AcDbCircle
 10
57.8999999999999488
 20
72.1939039264892415
 30
0.0
 40
2.0000000000000062
100
AcDbArc
 50
270.0000000000005116
 51
0.0
  0
ARC
  5
77
100
AcDbEntity
  8
0
 62
256
370
-1
  6
ByLayer
100
AcDbCircle
 10
57.8999999999999488
 20
99.3050125628934097
 30
0.0
 40
2.0000000000000102
100
AcDbArc
 50
0.0
 51
89.9999999999994742
  0
LINE
  5
78
100
AcDbEntity
100
AcDbLine
  8
0
 62
256
370
-1
  6
ByLayer
 10
57.9000000000000057
 20
70.1939039264892557
 30
0.0
 11
56.9000000000000341
 21
70.1939039264892699
 31
0.0
  0
CIRCLE
  5
79
100
AcDbEntity
100
AcDbCircle
  8
0
 62
256
370
-1
  6
ByLayer
 10
32.8999999999999773
 20
89.0050125628932705
 30
0.0
 40
4.8499999999999996
  0
LINE
  5
7A
100
AcDbEntity
100
AcDbLine
  8
Notes
 62
256
370
-1
  6
ByLayer
 10
59.8999999999999631
 20
99.3050125628933813
 30
0.0
 11
59.8999999999999488
 21
72.1939039264892699
 31
0.0
  0
MTEXT
  5
7B
100
AcDbEntity
100
AcDbMText
  8
Text
 62
256
370
-1
  6
ByLayer
 10
20.7131808502677757
 20
79.5799649363947879
 30
0.0
 40
4.0
 41
100.0
 71
1
 72
2
  1
Motor\~Mount
  7
standard
 50
0.0
 73
1
 44
1.0
  0
CIRCLE
  5
7C
100
AcDbEntity
100
AcDbCircle
  8
0
 62
256
370
-1
  6
ByLayer
 10
32.8999999999999773
 20
59.0050125628933628
 30
0.0
 40
4.0999999999999996
  0
LINE
  5
7D
100
AcDbEntity
100
AcDbLine
  8
0
 62
256
370
-1
  6
ByLayer
 10
51.8999999999999488
 20
61.5050125628933984
 30
0.0
 11
55.2301270189221896
 21
61.5050125628933699
 31
0.0
  0
ARC
  5
7E
100
AcDbEntity
  8
0
 62
256
370
-1
  6
ByLayer
100
AcDbCircle
 10
51.9167967223598197
 20
63.2549319524990352
 30
0.0
 40
1.7499999999999989
100
AcDbArc
 50
89.9999999999991189
 51
269.4500593840598981
  0
LINE
  5
7F
100
AcDbEntity
100
AcDbLine
  8
0
 62
256
370
-1
  6
ByLayer
 10
54.3722222222221916
 20
55.4072809387298548
 30
0.0
 11
45.05277777777777
 21
46.4129518783210955
 31
0.0
  0
ARC
  5
80
100
AcDbEntity
  8
0
 62
256
370
-1
  6
ByLayer
100
AcDbCircle
 10
50.8999999999999773
 20
59.0050125628934268
 30
0.0
 40
5.0
100
AcDbArc
 50
313.9829631303586552
 51
0.0
  0
LINE
  5
81
100
AcDbEntity
100
AcDbLine
  8
0
 62
256
370
-1
  6
ByLayer
 10
54.9000000000000057
 20
68.1939039264892415
 30
0.0
 11
54.9000000000000057
 21
65.0050125628933557
 31
0.0
  0
LINE
  5
82
100
AcDbEntity
100
AcDbLine
  8
0
 62
256
370
-1
  6
ByLayer
 10
51.8999999999999488
 20
65.0050125628933699
 30
0.0
 11
54.9000000000000057
 21
65.0050125628933557
 31
0.0
  0
LINE
  5
83
100
AcDbEntity
100
AcDbLine
  8
0
 62
256
370
-1
  6
ByLayer
 10
55.2301270189221896
 20
61.5050125628933699
 30
0.0
 11
55.8999999999999773
 21
59.0050125628932065
 31
0.0
  0
ARC
  5
84
100
AcDbEntity
  8
0
 62
256
370
-1
  6
ByLayer
100
AcDbCircle
 10
32.8999999999999773
 20
59.0050125628933628
 30
0.0
 40
17.5
100
AcDbArc
 50
226.017036869641629
 51
313.9829631303587121
  0
CIRCLE
  5
85
100
AcDbEntity
100
AcDbCircle
  8
0
 62
256
370
-1
  6
ByLayer
 10
13.3999999999999542
 20
97.8050125628934097
 30
0.0
 40
1.425
  0
CIRCLE
  5
86
100
AcDbEntity
100
AcDbCircle
  8
0
 62
256
370
-1
  6
ByLayer
 10
13.3999999999999488
 20
80.2050125628934012
 30
0.0
 40
1.425
  0
ARC
  5
87
100
AcDbEntity
  8
0
 62
256
370
-1
  6
ByLayer
100
AcDbCircle
 10
70.444444444444315
 20
101.0999999999998948
 30
0.0
 40
2.0
100
AcDbArc
 50
90.00000000000081
 51
180.0
  0
LINE
  5
88
100
AcDbEntity
100
AcDbLine
  8
0
 62
256
370
-1
  6
ByLayer
 10
70.4444444444442865
 20
103.0999999999998806
 30
0.0
 11
84.4444444444442865
 21
103.1000000000001222
 31
0.0
  0
ARC
  5
89
100
AcDbEntity
  8
0
 62
256
370
-1
  6
ByLayer
100
AcDbCircle
 10
84.444444444444315
 20
101.100000000000108
 30
0.0
 40
2.0
100
AcDbArc
 50
0.0
 51
90.00000000000081
  0
LINE
  5
8A
100
AcDbEntity
100
AcDbLine
  8
0
 62
256
370
-1
  6
ByLayer
 10
86.4444444444445708
 20
84.1000000000001364
 30
0.0
 11
86.444444444444315
 21
101.1000000000001506
 31
0.0
  0
ARC
  5
8B
100
AcDbEntity
  8
0
 62
256
370
-1
  6
ByLayer
100
AcDbCircle
 10
84.4444444444445708
 20
84.100000000000108
 30
0.0
 40
2.0
100
AcDbArc
 50
270.0000000000007958
 51
0.0
  0
LINE
  5
8C
100
AcDbEntity
100
AcDbLine
  8
0
 62
256
370
-1
  6
ByLayer
 10
68.4444444444445708
 20
84.0999999999998664
 30
0.0
 11
68.444444444444315
 21
101.0999999999998664
 31
0.0
  0
LINE
  5
8D
100
AcDbEntity
100
AcDbLine
  8
0
 62
256
370
-1
  6
ByLayer
 10
70.4444444444445992
 20
82.0999999999998948
 30
0.0
 11
84.4444444444445992
 21
82.100000000000108
 31
0.0
  0
ARC
  5
8E
100
AcDbEntity
  8
0
 62
256
370
-1
  6
ByLayer
100
AcDbCircle
 10
70.4444444444445708
 20
84.0999999999998948
 30
0.0
 40
2.0
100
AcDbArc
 50
180.0
 51
270.0000000000007958
  0
CIRCLE
  5
8F
100
AcDbEntity
100
AcDbCircle
  8
0
 62
256
370
-1
  6
ByLayer
 10
73.4444444444443576
 20
98.0999999999999375
 30
0.0
 40
1.5
  0
CIRCLE
  5
90
100
AcDbEntity
100
AcDbCircle
  8
0
 62
256
370
-1
  6
ByLayer
 10
81.4444444444443576
 20
98.1000000000000512
 30
0.0
 40
1.5
  0
CIRCLE
  5
91
100
AcDbEntity
100
AcDbCircle
  8
0
 62
256
370
-1
  6
ByLayer
 10
81.4444444444445281
 20
87.1000000000000512
 30
0.0
 40
1.5
  0
CIRCLE
  5
92
100
AcDbEntity
100
AcDbCircle
  8
0
 62
256
370
-1
  6
ByLayer
 10
73.4444444444445281
 20
87.0999999999999375
 30
0.0
 40
1.5
  0
MTEXT
  5
93
100
AcDbEntity
100
AcDbMText
  8
Text
 62
256
370
-1
  6
ByLayer
 10
77.4444444444444429
 20
92.6000000000000085
 30
0.0
 40
2.0
 41
100.0
 71
5
 72
2
  1
Pressure\~\PClamp
  7
standard
 50
0.0
 73
1
 44
1.0
  0
ARC
  5
94
100
AcDbEntity
  8
0
 62
256
370
-1
  6
ByLayer
100
AcDbCircle
 10
70.444444444444315
 20
71.0999999999998948
 30
0.0
 40
2.0
100
AcDbArc
 50
90.00000000000081
 51
180.0
  0
LINE
  5
95
100
AcDbEntity
100
AcDbLine
  8
0
 62
256
370
-1
  6
ByLayer
 10
70.4444444444442865
 20
73.0999999999998806
 30
0.0
 11
84.4444444444442865
 21
73.1000000000001222
 31
0.0
  0
ARC
  5
96
100
AcDbEntity
  8
0
 62
256
370
-1
  6
ByLayer
100
AcDbCircle
 10
84.444444444444315
 20
71.100000000000108
 30
0.0
 40
2.0
100
AcDbArc
 50
0.0
 51
90.00000000000081
  0
LINE
  5
97
100
AcDbEntity
100
AcDbLine
  8
0
 62
256
370
-1
  6
ByLayer
 10
86.4444444444445708
 20
54.1000000000001435
 30
0.0
 11
86.444444444444315
 21
71.1000000000001506
 31
0.0
  0
ARC
  5
98
100
AcDbEntity
  8
0
 62
256
370
-1
  6
ByLayer
100
AcDbCircle
 10
84.4444444444445708
 20
54.1000000000001151
 30
0.0
 40
2.0
100
AcDbArc
 50
270.0000000000007958
 51
0.0
  0
LINE
  5
99
100
AcDbEntity
100
AcDbLine
  8
0
 62
256
370
-1
  6
ByLayer
 10
68.4444444444445708
 20
54.0999999999998664
 30
0.0
 11
68.444444444444315
 21
71.0999999999998664
 31
0.0
  0
LINE
  5
9A
100
AcDbEntity
100
AcDbLine
  8
0
 62
256
370
-1
  6
ByLayer
 10
70.4444444444445992
 20
52.0999999999998948
 30
0.0
 11
84.4444444444445992
 21
52.1000000000001151
 31
0.0
  0
ARC
  5
9B
100
AcDbEntity
  8
0
 62
256
370
-1
  6
ByLayer
100
AcDbCircle
 10
70.4444444444445708
 20
54.0999999999998877
 30
0.0
 40
2.0
100
AcDbArc
 50
180.0
 51
270.0000000000007958
  0
CIRCLE
  5
9C
100
AcDbEntity
100
AcDbCircle
  8
0
 62
256
370
-1
  6
ByLayer
 10
73.4444444444443576
 20
68.0999999999999375
 30
0.0
 40
1.5
  0
CIRCLE
  5
9D
100
AcDbEntity
100
AcDbCircle
  8
0
 62
256
370
-1
  6
ByLayer
 10
81.4444444444443576
 20
68.1000000000000512
 30
0.0
 40
1.5
  0
CIRCLE
  5
9E
100
AcDbEntity
100
AcDbCircle
  8
0
 62
256
370
-1
  6
ByLayer
 10
81.4444444444445281
 20
57.1000000000000583
 30
0.0
 40
1.5
  0
CIRCLE
  5
9F
100
AcDbEntity
100
AcDbCircle
  8
0
 62
256
370
-1
  6
ByLayer
 10
73.4444444444445281
 20
57.0999999999999304
 30
0.0
 40
1.5
  0
MTEXT
  5
A0
100
AcDbEntity
100
AcDbMText
  8
Text
 62
256
370
-1
  6
ByLayer
 10
77.4444444444444429
 20
62.6000000000000014
 30
0.0
 40
2.0
 41
100.0
 71
5
 72
2
  1
Pressure\~\PClamp
  7
standard
 50
0.0
 73
1
 44
1.0
  0
CIRCLE
  5
A1
100
AcDbEntity
100
AcDbCircle
  8
Top
 62
256
370
-1
  6
ByLayer
 10
185.8681943337795133
 20
78.7816159050948102
 30
0.0
 40
3.999999999999992
  0
CIRCLE
  5
A2
100
AcDbEntity
100
AcDbCircle
  8
Top
 62
256
370
-1
  6
ByLayer
 10
185.8681943337795133
 20
78.7816159050948102
 30
0.0
 40
9.499999999999984
  0
MTEXT
  5
A3
100
AcDbEntity
100
AcDbMText
  8
Text
 62
256
370
-1
  6
ByLayer
 10
185.8681943337795417
 20
85.5316159050948102
 30
0.0
 40
2.0
 41
100.0
 71
5
 72
2
  1
Drive
  7
standard
 50
0.0
 73
0
 44
1.0
  0
MTEXT
  5
A4
100
AcDbEntity
100
AcDbMText
  8
Text
 62
256
370
-1
  6
ByLayer
 10
185.8681943337795133
 20
73.0610189537840995
 30
0.0
 40
2.0
 41
100.0
 71
5
 72
2
  1
Spacer
  7
standard
 50
0.0
 73
0
 44
1.0
  0
ENDSEC
  0
SECTION
  2
OBJECTS
  0
DICTIONARY
  5
C
100
AcDbDictionary
280
0
281
1
  3
ACAD_GROUP
350
D
  3
ACAD_LAYOUT
350
1A
  3
ACAD_MLINESTYLE
350
17
  3
ACAD_PLOTSETTINGS
350
19
  3
ACAD_PLOTSTYLENAME
350
E
  3
AcDbVariableDictionary
350
A5
  0
DICTIONARY
  5
D
100
AcDbDictionary
280
0
281
1
  0
ACDBDICTIONARYWDFLT
  5
E
100
AcDbDictionary
281
1
  3
Normal
350
F
100
AcDbDictionaryWithDefault
340
F
  0
ACDBPLACEHOLDER
  5
F
  0
DICTIONARY
  5
17
100
AcDbDictionary
280
0
281
1
  3
Standard
350
18
  0
MLINESTYLE
  5
18
100
AcDbMlineStyle
  2
STANDARD
 70
0
  3

 62
256
 51
90.0
 52
90.0
 71
2
 49
0.5
 62
256
  6
BYLAYER
 49
-0.5
 62
256
  6
BYLAYER
  0
DICTIONARY
  5
19
100
AcDbDictionary
280
0
281
1
  0
DICTIONARY
  5
1A
100
AcDbDictionary
281
1
  3
Layout1
350
1E
  3
Layout2
350
26
  3
Model
350
22
  0
LAYOUT
  5
1E
100
AcDbPlotSettings
  1

  2
C:\Program Files\AutoCAD 2002\plotters\DWF ePlot (optimized for plotting).pc3
  4

  6

 40
0.0
 41
0.0
 42
0.0
 43
0.0
 44
0.0
 45
0.0
 46
0.0
 47
0.0
 48
0.0
 49
0.0
140
0.0
141
0.0
142
1.0
143
1.0
 70
688
 72
0
 73
0
 74
5
  7

 75
16
147
1.0
148
0.0
149
0.0
100
AcDbLayout
  1
Layout1
 70
1
 71
1
 10
0.0
 20
0.0
 11
420.0
 21
297.0
 12
0.0
 22
0.0
 32
0.0
 14
100000000000000000000.0
 24
100000000000000000000.0
 34
100000000000000000000.0
 15
-100000000000000000000.0
 25
-100000000000000000000.0
 35
-100000000000000000000.0
146
0.0
 13
0.0
 23
0.0
 33
0.0
 16
1.0
 26
0.0
 36
0.0
 17
0.0
 27
1.0
 37
0.0
 76
0
330
1B
  0
LAYOUT
  5
22
100
AcDbPlotSettings
  1

  2
C:\Program Files\AutoCAD 2002\plotters\DWF ePlot (optimized for plotting).pc3
  4

  6

 40
0.0
 41
0.0
 42
0.0
 43
0.0
 44
0.0
 45
0.0
 46
0.0
 47
0.0
 48
0.0
 49
0.0
140
0.0
141
0.0
142
1.0
143
1.0
 70
1712
 72
0
 73
0
 74
0
  7

 75
0
147
1.0
148
0.0
149
0.0
100
AcDbLayout
  1
Model
 70
1
 71
0
 10
0.0
 20
0.0
 11
12.0
 21
9.0
 12
0.0
 22
0.0
 32
0.0
 14
0.0
 24
0.0
 34
0.0
 15
0.0
 25
0.0
 35
0.0
146
0.0
 13
0.0
 23
0.0
 33
0.0
 16
1.0
 26
0.0
 36
0.0
 17
0.0
 27
1.0
 37
0.0
 76
0
330
1F
  0
LAYOUT
  5
26
100
AcDbPlotSettings
  1

  2
C:\Program Files\AutoCAD 2002\plotters\DWF ePlot (optimized for plotting).pc3
  4

  6

 40
0.0
 41
0.0
 42
0.0
 43
0.0
 44
0.0
 45
0.0
 46
0.0
 47
0.0
 48
0.0
 49
0.0
140
0.0
141
0.0
142
1.0
143
1.0
 70
688
 72
0
 73
0
 74
5
  7

 75
16
147
1.0
148
0.0
149
0.0
100
AcDbLayout
  1
Layout2
 70
1
 71
2
 10
0.0
 20
0.0
 11
12.0
 21
9.0
 12
0.0
 22
0.0
 32
0.0
 14
0.0
 24
0.0
 34
0.0
 15
0.0
 25
0.0
 35
0.0
146
0.0
 13
0.0
 23
0.0
 33
0.0
 16
1.0
 26
0.0
 36
0.0
 17
0.0
 27
1.0
 37
0.0
 76
0
330
23
  0
DICTIONARY
  5
A5
100
AcDbDictionary
281
1
  3
DIMASSOC
350
A7
  3
HIDETEXT
350
A6
  0
DICTIONARYVAR
  5
A6
100
DictionaryVariables
280
0
  1
2
  0
DICTIONARYVAR
  5
A7
100
DictionaryVariables
280
0
  1
1
  0
ENDSEC
  0
EOF
