999
dxflib 2.2.0.0
  0
SECTION
  2
HEADER
  9
$ACADVER
  1
AC1015
  9
$HANDSEED
  5
FFFF
  9
$DIMASZ
 40
2.5
  9
$PLIMMIN
 10
0.0
 20
0.0
  9
$DIMEXE
 40
1.25
  9
$DIMGAP
 40
0.625
  9
$PLIMMAX
 10
210.0
 20
297.0
  9
$INSUNITS
 70
4
  9
$DIMSTYLE
  2
Standard
  9
$CLAYER
  8
0
  9
$DIMEXO
 40
0.625
  9
$DIMTXT
 40
2.5
  9
$CLAYER
  8
0
  0
ENDSEC
  0
SECTION
  2
TABLES
  0
TABLE
  2
VPORT
  5
8
100
AcDbSymbolTable
 70
1
  0
VPORT
  5
30
100
AcDbSymbolTableRecord
100
AcDbViewportTableRecord
  2
*Active
 70
0
 10
0.0
 20
0.0
 11
1.0
 21
1.0
 12
286.3055555555554861
 22
148.5
 13
0.0
 23
0.0
 14
10.0
 24
10.0
 15
10.0
 25
10.0
 16
0.0
 26
0.0
 36
1.0
 17
0.0
 27
0.0
 37
0.0
 40
297.0
 41
1.92798353909465
 42
50.0
 43
0.0
 44
0.0
 50
0.0
 51
0.0
 71
0
 72
100
 73
1
 74
3
 75
1
 76
1
 77
0
 78
0
281
0
 65
1
110
0.0
120
0.0
130
0.0
111
1.0
121
0.0
131
0.0
112
0.0
122
1.0
132
0.0
 79
0
146
0.0
  0
ENDTAB
  0
TABLE
  2
LTYPE
  5
5
100
AcDbSymbolTable
 70
21
  0
LTYPE
  5
14
100
AcDbSymbolTableRecord
100
AcDbLinetypeTableRecord
  2
ByBlock
 70
0
  3

 72
65
 73
0
 40
0.0
  0
LTYPE
  5
15
100
AcDbSymbolTableRecord
100
AcDbLinetypeTableRecord
  2
ByLayer
 70
0
  3

 72
65
 73
0
 40
0.0
  0
LTYPE
  5
16
100
AcDbSymbolTableRecord
100
AcDbLinetypeTableRecord
  2
CONTINUOUS
 70
0
  3
Solid line
 72
65
 73
0
 40
0.0
  0
LTYPE
  5
31
100
AcDbSymbolTableRecord
100
AcDbLinetypeTableRecord
  2
DOT
 70
0
  3
Dot . . . . . . . . . . . . . . . . . . . . . .
 72
65
 73
2
 40
6.3499999999999996
 49
0.0
 74
0
 49
-6.3499999999999996
 74
0
  0
LTYPE
  5
32
100
AcDbSymbolTableRecord
100
AcDbLinetypeTableRecord
  2
DOT2
 70
0
  3
Dot (.5x) .....................................
 72
65
 73
2
 40
3.1749999999999998
 49
0.0
 74
0
 49
-3.1749999999999998
 74
0
  0
LTYPE
  5
33
100
AcDbSymbolTableRecord
100
AcDbLinetypeTableRecord
  2
DOTX2
 70
0
  3
Dot (2x) .  .  .  .  .  .  .  .  .  .  .  .  .
 72
65
 73
2
 40
12.6999999999999993
 49
0.0
 74
0
 49
-12.6999999999999993
 74
0
  0
LTYPE
  5
34
100
AcDbSymbolTableRecord
100
AcDbLinetypeTableRecord
  2
DASHED
 70
0
  3
Dashed __ __ __ __ __ __ __ __ __ __ __ __ __ _
 72
65
 73
2
 40
19.0500000000000007
 49
12.6999999999999993
 74
0
 49
-6.3499999999999996
 74
0
  0
LTYPE
  5
35
100
AcDbSymbolTableRecord
100
AcDbLinetypeTableRecord
  2
DASHED2
 70
0
  3
Dashed (.5x) _ _ _ _ _ _ _ _ _ _ _ _ _ _ _ _ _
 72
65
 73
2
 40
9.5250000000000004
 49
6.3499999999999996
 74
0
 49
-3.1749999999999998
 74
0
  0
LTYPE
  5
36
100
AcDbSymbolTableRecord
100
AcDbLinetypeTableRecord
  2
DASHEDX2
 70
0
  3
Dashed (2x) ____  ____  ____  ____  ____  ___
 72
65
 73
2
 40
38.1000000000000014
 49
25.3999999999999986
 74
0
 49
-12.6999999999999993
 74
0
  0
LTYPE
  5
37
100
AcDbSymbolTableRecord
100
AcDbLinetypeTableRecord
  2
DASHDOT
 70
0
  3
Dash dot __ . __ . __ . __ . __ . __ . __ . __
 72
65
 73
4
 40
25.3999999999999986
 49
12.6999999999999993
 74
0
 49
-6.3499999999999996
 74
0
 49
0.0
 74
0
 49
-6.3499999999999996
 74
0
  0
LTYPE
  5
38
100
AcDbSymbolTableRecord
100
AcDbLinetypeTableRecord
  2
DASHDOT2
 70
0
  3
Dash dot (.5x) _._._._._._._._._._._._._._._.
 72
65
 73
4
 40
12.6999999999999993
 49
6.3499999999999996
 74
0
 49
-3.1749999999999998
 74
0
 49
0.0
 74
0
 49
-3.1749999999999998
 74
0
  0
LTYPE
  5
39
100
AcDbSymbolTableRecord
100
AcDbLinetypeTableRecord
  2
DASHDOTX2
 70
0
  3
Dash dot (2x) ____  .  ____  .  ____  .  ___
 72
65
 73
4
 40
50.7999999999999972
 49
25.3999999999999986
 74
0
 49
-12.6999999999999993
 74
0
 49
0.0
 74
0
 49
-12.6999999999999993
 74
0
  0
LTYPE
  5
3A
100
AcDbSymbolTableRecord
100
AcDbLinetypeTableRecord
  2
DIVIDE
 70
0
  3
Divide ____ . . ____ . . ____ . . ____ . . ____
 72
65
 73
6
 40
31.75
 49
12.6999999999999993
 74
0
 49
-6.3499999999999996
 74
0
 49
0.0
 74
0
 49
-6.3499999999999996
 74
0
 49
0.0
 74
0
 49
-6.3499999999999996
 74
0
  0
LTYPE
  5
3B
100
AcDbSymbolTableRecord
100
AcDbLinetypeTableRecord
  2
DIVIDE2
 70
0
  3
Divide (.5x) __..__..__..__..__..__..__..__.._
 72
65
 73
6
 40
15.875
 49
6.3499999999999996
 74
0
 49
-3.1749999999999998
 74
0
 49
0.0
 74
0
 49
-3.1749999999999998
 74
0
 49
0.0
 74
0
 49
-3.1749999999999998
 74
0
  0
LTYPE
  5
3C
100
AcDbSymbolTableRecord
100
AcDbLinetypeTableRecord
  2
DIVIDEX2
 70
0
  3
Divide (2x) ________  .  .  ________  .  .  _
 72
65
 73
6
 40
63.5
 49
25.3999999999999986
 74
0
 49
-12.6999999999999993
 74
0
 49
0.0
 74
0
 49
-12.6999999999999993
 74
0
 49
0.0
 74
0
 49
-12.6999999999999993
 74
0
  0
LTYPE
  5
3D
100
AcDbSymbolTableRecord
100
AcDbLinetypeTableRecord
  2
CENTER
 70
0
  3
Center ____ _ ____ _ ____ _ ____ _ ____ _ ____
 72
65
 73
4
 40
50.7999999999999972
 49
31.75
 74
0
 49
-6.3499999999999996
 74
0
 49
6.3499999999999996
 74
0
 49
-6.3499999999999996
 74
0
  0
LTYPE
  5
3E
100
AcDbSymbolTableRecord
100
AcDbLinetypeTableRecord
  2
CENTER2
 70
0
  3
Center (.5x) ___ _ ___ _ ___ _ ___ _ ___ _ ___
 72
65
 73
4
 40
28.5749999999999993
 49
19.0500000000000007
 74
0
 49
-3.1749999999999998
 74
0
 49
3.1749999999999998
 74
0
 49
-3.1749999999999998
 74
0
  0
LTYPE
  5
3F
100
AcDbSymbolTableRecord
100
AcDbLinetypeTableRecord
  2
CENTERX2
 70
0
  3
Center (2x) ________  __  ________  __  _____
 72
65
 73
4
 40
101.5999999999999943
 49
63.5
 74
0
 49
-12.6999999999999993
 74
0
 49
12.6999999999999993
 74
0
 49
-12.6999999999999993
 74
0
  0
LTYPE
  5
40
100
AcDbSymbolTableRecord
100
AcDbLinetypeTableRecord
  2
BORDER
 70
0
  3
Border __ __ . __ __ . __ __ . __ __ . __ __ .
 72
65
 73
6
 40
44.4500000000000028
 49
12.6999999999999993
 74
0
 49
-6.3499999999999996
 74
0
 49
12.6999999999999993
 74
0
 49
-6.3499999999999996
 74
0
 49
0.0
 74
0
 49
-6.3499999999999996
 74
0
  0
LTYPE
  5
41
100
AcDbSymbolTableRecord
100
AcDbLinetypeTableRecord
  2
BORDER2
 70
0
  3
Border (.5x) __.__.__.__.__.__.__.__.__.__.__.
 72
65
 73
6
 40
22.2250000000000014
 49
6.3499999999999996
 74
0
 49
-3.1749999999999998
 74
0
 49
6.3499999999999996
 74
0
 49
-3.1749999999999998
 74
0
 49
0.0
 74
0
 49
-3.1749999999999998
 74
0
  0
LTYPE
  5
42
100
AcDbSymbolTableRecord
100
AcDbLinetypeTableRecord
  2
BORDERX2
 70
0
  3
Border (2x) ____  ____  .  ____  ____  .  ___
 72
65
 73
6
 40
88.9000000000000057
 49
25.3999999999999986
 74
0
 49
-12.6999999999999993
 74
0
 49
25.3999999999999986
 74
0
 49
-12.6999999999999993
 74
0
 49
0.0
 74
0
 49
-12.6999999999999993
 74
0
  0
ENDTAB
  0
TABLE
  2
LAYER
  5
2
100
AcDbSymbolTable
 70
9
  0
LAYER
  5
10
100
AcDbSymbolTableRecord
100
AcDbLayerTableRecord
  2
0
 70
0
 62
7
420
16777215
  6
CONTINUOUS
370
0
390
F
  0
LAYER
  5
43
100
AcDbSymbolTableRecord
100
AcDbLayerTableRecord
  2
Bottom
 70
0
 62
7
420
16777215
  6
CONTINUOUS
370
0
390
F
  0
LAYER
  5
44
100
AcDbSymbolTableRecord
100
AcDbLayerTableRecord
  2
Bottom Text
 70
0
 62
4
420
65535
  6
CONTINUOUS
370
0
390
F
  0
LAYER
  5
45
100
AcDbSymbolTableRecord
100
AcDbLayerTableRecord
  2
Top
 70
0
 62
7
420
16777215
  6
CONTINUOUS
370
0
390
F
  0
LAYER
  5
46
100
AcDbSymbolTableRecord
100
AcDbLayerTableRecord
  2
Top Text
 70
0
 62
4
420
65535
  6
CONTINUOUS
370
0
390
F
  0
LAYER
  5
47
100
AcDbSymbolTableRecord
100
AcDbLayerTableRecord
  2
Notes
 70
0
 62
7
420
16777215
  6
CONTINUOUS
370
0
390
F
  0
LAYER
  5
48
100
AcDbSymbolTableRecord
100
AcDbLayerTableRecord
  2
Text
 70
0
 62
4
420
65535
  6
CONTINUOUS
370
0
390
F
  0
LAYER
  5
49
100
AcDbSymbolTableRecord
100
AcDbLayerTableRecord
  2
Main Plate Top Layer
 70
0
 62
7
420
0
  6
CONTINUOUS
370
0
390
F
  0
LAYER
  5
4A
100
AcDbSymbolTableRecord
100
AcDbLayerTableRecord
  2
Main Plate Top Text
 70
0
 62
4
420
65535
  6
CONTINUOUS
370
0
390
F
  0
ENDTAB
  0
TABLE
  2
STYLE
  5
3
100
AcDbSymbolTable
 70
1
  0
STYLE
  5
11
100
AcDbSymbolTableRecord
100
AcDbTextStyleTableRecord
  2
Standard
 70
0
 40
0.0
 41
0.75
 50
0.0
 71
0
 42
2.5
  3
txt
  4

  0
ENDTAB
  0
TABLE
  2
VIEW
  5
6
100
AcDbSymbolTable
 70
0
  0
ENDTAB
  0
TABLE
  2
UCS
  5
7
100
AcDbSymbolTable
 70
0
  0
ENDTAB
  0
TABLE
  2
APPID
  5
9
100
AcDbSymbolTable
 70
1
  0
APPID
  5
12
100
AcDbSymbolTableRecord
100
AcDbRegAppTableRecord
  2
ACAD
 70
0
  0
ENDTAB
  0
TABLE
  2
DIMSTYLE
  5
A
100
AcDbSymbolTable
 70
1
100
AcDbDimStyleTable
 71
0
  0
DIMSTYLE
105
27
100
AcDbSymbolTableRecord
100
AcDbDimStyleTableRecord
  2
Standard
 41
2.5
 42
0.625
 43
3.75
 44
1.25
 70
0
 73
0
 74
0
 77
1
 78
8
140
2.5
141
2.5
143
0.03937007874016
147
0.625
171
3
172
1
271
2
272
2
274
3
278
44
283
0
284
8
340
11
  0
ENDTAB
  0
TABLE
  2
BLOCK_RECORD
  5
1
100
AcDbSymbolTable
 70
1
  0
BLOCK_RECORD
  5
1F
100
AcDbSymbolTableRecord
100
AcDbBlockTableRecord
  2
*Model_Space
340
22
  0
BLOCK_RECORD
  5
1B
100
AcDbSymbolTableRecord
100
AcDbBlockTableRecord
  2
*Paper_Space
340
1E
  0
BLOCK_RECORD
  5
23
100
AcDbSymbolTableRecord
100
AcDbBlockTableRecord
  2
*Paper_Space0
340
26
  0
ENDTAB
  0
ENDSEC
  0
SECTION
  2
BLOCKS
  0
BLOCK
  5
20
100
AcDbEntity
  8
0
100
AcDbBlockBegin
  2
*Model_Space
 70
0
 10
0.0
 20
0.0
 30
0.0
  3
*Model_Space
  1

  0
ENDBLK
  5
21
100
AcDbEntity
  8
0
100
AcDbBlockEnd
  0
BLOCK
  5
1C
100
AcDbEntity
 67
1
  8
0
100
AcDbBlockBegin
  2
*Paper_Space
 70
0
 10
0.0
 20
0.0
 30
0.0
  3
*Paper_Space
  1

  0
ENDBLK
  5
1D
100
AcDbEntity
 67
1
  8
0
100
AcDbBlockEnd
  0
BLOCK
  5
24
100
AcDbEntity
  8
0
100
AcDbBlockBegin
  2
*Paper_Space0
 70
0
 10
0.0
 20
0.0
 30
0.0
  3
*Paper_Space0
  1

  0
ENDBLK
  5
25
100
AcDbEntity
  8
0
100
AcDbBlockEnd
  0
ENDSEC
  0
SECTION
  2
ENTITIES
  0
LINE
  5
4B
100
AcDbEntity
100
AcDbLine
  8
Main Plate Top Layer
 62
256
370
-1
  6
ByLayer
 10
50.4877060922294163
 20
10.53187575686038
 30
0.0
 11
42.9701651259420885
 21
7.795714610254997
 31
0.0
  0
LINE
  5
4C
100
AcDbEntity
100
AcDbLine
  8
Main Plate Top Layer
 62
256
370
-1
  6
ByLayer
 10
44.0653378979166064
 20
60.3390357519522027
 30
0.0
 11
42.0132170379626189
 21
65.9771914766676844
 31
0.0
  0
LINE
  5
4D
100
AcDbEntity
100
AcDbLine
  8
Main Plate Top Layer
 62
256
370
-1
  6
ByLayer
 10
47.6513727626780508
 20
68.0293123366217003
 30
0.0
 11
49.7034936226320383
 21
62.3911566119062186
 31
0.0
  0
LINE
  5
4E
100
AcDbEntity
100
AcDbLine
  8
Main Plate Top Layer
 62
256
370
-1
  6
ByLayer
 10
61.3379493923868324
 20
42.1209696975137717
 30
0.0
 11
51.4101432458216436
 21
69.3973929099243776
 31
0.0
  0
LINE
  5
4F
100
AcDbEntity
100
AcDbLine
  8
Main Plate Top Layer
 62
256
370
-1
  6
ByLayer
 10
66.7656135216549984
 20
0.5905025242595912
 30
0.0
 11
66.7656135216550979
 21
11.339156798203593
 31
0.0
  0
LINE
  5
50
100
AcDbEntity
100
AcDbLine
  8
Main Plate Top Layer
 62
256
370
-1
  6
ByLayer
 10
60.7656135216550979
 20
0.5905025242595983
 30
0.0
 11
66.7656135216549984
 21
0.5905025242595912
 31
0.0
  0
LINE
  5
51
100
AcDbEntity
100
AcDbLine
  8
Main Plate Top Layer
 62
256
370
-1
  6
ByLayer
 10
60.7656135216550695
 20
8.5905025242596338
 30
0.0
 11
60.7656135216550979
 21
0.5905025242595983
 31
0.0
  0
LINE
  5
52
100
AcDbEntity
100
AcDbLine
  8
Main Plate Top Layer
 62
256
370
-1
  6
ByLayer
 10
54.7656135216550481
 20
0.590502524259584
 30
0.0
 11
54.7656135216551405
 21
8.5905025242596444
 31
0.0
  0
LINE
  5
53
100
AcDbEntity
100
AcDbLine
  8
Main Plate Top Layer
 62
256
370
-1
  6
ByLayer
 10
28.7656135216550304
 20
0.5905025242596196
 30
0.0
 11
54.7656135216550481
 21
0.590502524259584
 31
0.0
  0
LINE
  5
54
100
AcDbEntity
100
AcDbLine
  8
Main Plate Top Layer
 62
256
370
-1
  6
ByLayer
 10
28.7656135216550268
 20
8.5905025242596125
 30
0.0
 11
28.7656135216550304
 21
0.5905025242596196
 31
0.0
  0
LINE
  5
55
100
AcDbEntity
100
AcDbLine
  8
Main Plate Top Layer
 62
256
370
-1
  6
ByLayer
 10
22.765613521655105
 20
0.5905025242596267
 30
0.0
 11
22.765613521655105
 21
8.5905025242595947
 31
0.0
  0
LINE
  5
56
100
AcDbEntity
100
AcDbLine
  8
Main Plate Top Layer
 62
256
370
-1
  6
ByLayer
 10
16.7656135216550659
 20
0.5905025242596338
 30
0.0
 11
22.765613521655105
 21
0.5905025242596267
 31
0.0
  0
LINE
  5
57
100
AcDbEntity
100
AcDbLine
  8
Main Plate Top Layer
 62
256
370
-1
  6
ByLayer
 10
16.7656135216550908
 20
2.5228077627803174
 30
0.0
 11
16.7656135216550659
 21
0.5905025242596338
 31
0.0
  0
LINE
  5
58
100
AcDbEntity
100
AcDbLine
  8
Main Plate Top Layer
 62
256
370
-1
  6
ByLayer
 10
10.2364035496238976
 20
48.0263105922281426
 30
0.0
 11
8.1842826896699421
 21
53.66446631694361
 31
0.0
  0
LINE
  5
59
100
AcDbEntity
100
AcDbLine
  8
Main Plate Top Layer
 62
256
370
-1
  6
ByLayer
 10
13.8224384143853207
 20
55.7165871768976189
 30
0.0
 11
15.8745592743392798
 21
50.0784314521822012
 31
0.0
  0
ARC
  5
5A
100
AcDbEntity
  8
Main Plate Top Layer
 62
256
370
-1
  6
ByLayer
100
AcDbCircle
 10
42.7649530399467395
 20
8.359530182726548
 30
0.0
 40
0.599999999999996
100
AcDbArc
 50
199.9999999999997158
 51
289.9999999999998863
  0
ARC
  5
5B
100
AcDbEntity
  8
Main Plate Top Layer
 62
256
370
-1
  6
ByLayer
100
AcDbCircle
 10
50.2824940062340033
 20
11.095691329331892
 30
0.0
 40
0.5999999999999983
100
AcDbArc
 50
289.9999999999998295
 51
20.000000000000103
  0
ARC
  5
5C
100
AcDbEntity
  8
Main Plate Top Layer
 62
256
370
-1
  6
ByLayer
100
AcDbCircle
 10
-23.2343864783443479
 20
11.3391567982038026
 30
0.0
 40
89.9999999999993463
100
AcDbArc
 50
0.0
 51
20.000000000000103
  0
ARC
  5
5D
100
AcDbEntity
  8
Main Plate Top Layer
 62
256
370
-1
  6
ByLayer
100
AcDbCircle
 10
-73.2343864783445753
 20
2.5228077627821932
 30
0.0
 40
89.9999999999996447
100
AcDbArc
 50
0.0
 51
20.000000000000103
  0
LINE
  5
5E
100
AcDbEntity
100
AcDbLine
  8
Main Plate Top Layer
 62
256
370
-1
  6
ByLayer
 10
4.4255122065263244
 20
52.2963857436409256
 30
0.0
 11
11.3379493923869177
 21
33.3046206620904854
 31
0.0
  0
LINE
  5
5F
100
AcDbEntity
100
AcDbLine
  8
Notes
 62
256
370
-1
  6
ByLayer
 10
23.7222378486810648
 20
14.590502524259584
 30
0.0
 11
23.3656135216550354
 21
14.5905025242596267
 31
0.0
  0
MTEXT
  5
60
100
AcDbEntity
100
AcDbMText
  8
Main Plate Top Text
 62
256
370
-1
  6
ByLayer
 10
57.4667618123468742
 20
43.2747366047665452
 30
0.0
 40
2.0
 41
100.0
 71
3
 72
2
  1
Main\~Plate\PTop
  7
standard
 50
360.0
 73
0
 44
1.0
  0
LINE
  5
61
100
AcDbEntity
100
AcDbLine
  8
Main Plate Top Layer
 62
256
370
-1
  6
ByLayer
 10
36.6866756450228877
 20
50.2041779158639159
 30
0.0
 11
50.8463095787054939
 21
11.3009034153273262
 31
0.0
  0
LINE
  5
62
100
AcDbEntity
100
AcDbLine
  8
Main Plate Top Layer
 62
256
370
-1
  6
ByLayer
 10
36.6866756450228308
 20
50.2041779158638874
 30
0.0
 11
39.9755998177735137
 21
51.4012484175037159
 31
0.0
  0
LINE
  5
63
100
AcDbEntity
100
AcDbLine
  8
Main Plate Top Layer
 62
256
370
-1
  6
ByLayer
 10
39.9755998177735137
 20
51.4012484175037159
 30
0.0
 11
35.5293379545398125
 21
63.6172524877205561
 31
0.0
  0
LINE
  5
64
100
AcDbEntity
100
AcDbLine
  8
Main Plate Top Layer
 62
256
370
-1
  6
ByLayer
 10
35.5293379545398125
 20
63.6172524877205561
 30
0.0
 11
42.0132170379625904
 21
65.9771914766676844
 31
0.0
  0
LINE
  5
65
100
AcDbEntity
100
AcDbLine
  8
Main Plate Top Layer
 62
256
370
-1
  6
ByLayer
 10
28.0415035337924792
 20
47.0575925972677354
 30
0.0
 11
24.7525793610417963
 21
45.8605220956279211
 31
0.0
  0
LINE
  5
66
100
AcDbEntity
100
AcDbLine
  8
Main Plate Top Layer
 62
256
370
-1
  6
ByLayer
 10
24.7525793610417963
 20
45.8605220956279211
 30
0.0
 11
20.3063174978080951
 21
58.0765261658447542
 31
0.0
  0
LINE
  5
67
100
AcDbEntity
100
AcDbLine
  8
Main Plate Top Layer
 62
256
370
-1
  6
ByLayer
 10
20.3063174978080951
 20
58.0765261658447542
 30
0.0
 11
13.8224384143853207
 21
55.7165871768976189
 31
0.0
  0
LINE
  5
68
100
AcDbEntity
100
AcDbLine
  8
Main Plate Top Layer
 62
256
370
-1
  6
ByLayer
 10
8.1842826896699421
 20
53.66446631694361
 30
0.0
 11
4.4255122065263244
 21
52.2963857436409256
 31
0.0
  0
LINE
  5
69
100
AcDbEntity
100
AcDbLine
  8
Main Plate Top Layer
 62
256
370
-1
  6
ByLayer
 10
51.4101432458216436
 20
69.3973929099243776
 30
0.0
 11
47.6513727626780508
 21
68.0293123366217003
 31
0.0
  0
LINE
  5
6A
100
AcDbEntity
100
AcDbLine
  8
Main Plate Top Layer
 62
256
370
-1
  6
ByLayer
 10
28.0415035337924792
 20
47.0575925972677354
 30
0.0
 11
42.2011374674751352
 21
8.1543180967311208
 31
0.0
  0
LINE
  5
6B
100
AcDbEntity
100
AcDbLine
  8
Main Plate Top Layer
 62
256
370
-1
  6
ByLayer
 10
60.2656135216546431
 20
31.4758365442526014
 30
0.0
 11
63.0156135216546431
 21
29.8881235442526005
 31
0.0
  0
LINE
  5
6C
100
AcDbEntity
100
AcDbLine
  8
Main Plate Top Layer
 62
256
370
-1
  6
ByLayer
 10
63.0156135216546431
 20
29.8881235442526005
 30
0.0
 11
63.0156135216546431
 21
26.7126975442526025
 31
0.0
  0
LINE
  5
6D
100
AcDbEntity
100
AcDbLine
  8
Main Plate Top Layer
 62
256
370
-1
  6
ByLayer
 10
63.0156135216546431
 20
26.7126975442526025
 30
0.0
 11
60.265613521654636
 21
25.1249845442526052
 31
0.0
  0
LINE
  5
6E
100
AcDbEntity
100
AcDbLine
  8
Main Plate Top Layer
 62
256
370
-1
  6
ByLayer
 10
57.5156135216546431
 20
26.7126975442526167
 30
0.0
 11
60.265613521654636
 21
25.1249845442526052
 31
0.0
  0
LINE
  5
6F
100
AcDbEntity
100
AcDbLine
  8
Main Plate Top Layer
 62
256
370
-1
  6
ByLayer
 10
57.5156135216546431
 20
29.8881235442526112
 30
0.0
 11
57.5156135216546431
 21
26.7126975442526167
 31
0.0
  0
LINE
  5
70
100
AcDbEntity
100
AcDbLine
  8
Main Plate Top Layer
 62
256
370
-1
  6
ByLayer
 10
60.2656135216546431
 20
31.4758365442526014
 30
0.0
 11
57.5156135216546431
 21
29.8881235442526112
 31
0.0
  0
LINE
  5
71
100
AcDbEntity
100
AcDbLine
  8
Main Plate Top Layer
 62
256
370
-1
  6
ByLayer
 10
9.3906801909166369
 20
47.7184924632350373
 30
0.0
 11
10.2364035496238976
 21
48.0263105922281426
 31
0.0
  0
LINE
  5
72
100
AcDbEntity
100
AcDbLine
  8
Main Plate Top Layer
 62
256
370
-1
  6
ByLayer
 10
15.8745592743392798
 20
50.0784314521822012
 30
0.0
 11
16.7202826330467111
 21
50.3862495811750293
 31
0.0
  0
LINE
  5
73
100
AcDbEntity
100
AcDbLine
  8
Main Plate Top Layer
 62
256
370
-1
  6
ByLayer
 10
16.7202826330467111
 20
50.3862495811750293
 30
0.0
 11
18.0883632063491859
 21
46.6274790980319054
 31
0.0
  0
LINE
  5
74
100
AcDbEntity
100
AcDbLine
  8
Main Plate Top Layer
 62
256
370
-1
  6
ByLayer
 10
18.0883632063491859
 20
46.6274790980319054
 30
0.0
 11
17.2426398476420104
 21
46.3196609690384733
 31
0.0
  0
LINE
  5
75
100
AcDbEntity
100
AcDbLine
  8
Main Plate Top Layer
 62
256
370
-1
  6
ByLayer
 10
10.7587607642193142
 20
43.9597219800913166
 30
0.0
 11
9.3906801909166369
 21
47.7184924632350373
 31
0.0
  0
LINE
  5
76
100
AcDbEntity
100
AcDbLine
  8
Main Plate Top Layer
 62
256
370
-1
  6
ByLayer
 10
11.6044841229265785
 20
44.2675401090845284
 30
0.0
 11
10.7587607642193142
 21
43.9597219800913166
 31
0.0
  0
LINE
  5
77
100
AcDbEntity
100
AcDbLine
  8
Main Plate Top Layer
 62
256
370
-1
  6
ByLayer
 10
43.2196145392092603
 20
60.0312176229590975
 30
0.0
 11
44.0653378979166064
 21
60.3390357519522027
 31
0.0
  0
LINE
  5
78
100
AcDbEntity
100
AcDbLine
  8
Main Plate Top Layer
 62
256
370
-1
  6
ByLayer
 10
45.4334184712192837
 20
56.5802652688085672
 30
0.0
 11
44.587695112511966
 21
56.2724471398155046
 31
0.0
  0
LINE
  5
79
100
AcDbEntity
100
AcDbLine
  8
Main Plate Top Layer
 62
256
370
-1
  6
ByLayer
 10
44.587695112511966
 20
56.2724471398155046
 30
0.0
 11
43.2196145392092603
 21
60.0312176229590975
 31
0.0
  0
LINE
  5
7A
100
AcDbEntity
100
AcDbLine
  8
Main Plate Top Layer
 62
256
370
-1
  6
ByLayer
 10
51.9172975546420048
 20
58.9402042577558092
 30
0.0
 11
51.0715741959347156
 21
58.6323861287625974
 31
0.0
  0
LINE
  5
7B
100
AcDbEntity
100
AcDbLine
  8
Main Plate Top Layer
 62
256
370
-1
  6
ByLayer
 10
49.7034936226320383
 20
62.3911566119062186
 30
0.0
 11
50.5492169813392991
 21
62.6989747408993949
 31
0.0
  0
LINE
  5
7C
100
AcDbEntity
100
AcDbLine
  8
Main Plate Top Layer
 62
256
370
-1
  6
ByLayer
 10
50.5492169813392991
 20
62.6989747408993949
 30
0.0
 11
51.9172975546420048
 21
58.9402042577558092
 31
0.0
  0
LINE
  5
7D
100
AcDbEntity
100
AcDbLine
  8
Main Plate Top Layer
 62
256
370
-1
  6
ByLayer
 10
12.6305445529037854
 20
41.4484622467268551
 30
0.0
 11
11.6044841229265785
 21
44.2675401090845284
 31
0.0
  0
LINE
  5
7E
100
AcDbEntity
100
AcDbLine
  8
Main Plate Top Layer
 62
256
370
-1
  6
ByLayer
 10
18.2687002776191036
 20
43.5005831066808994
 30
0.0
 11
12.6305445529037854
 21
41.4484622467268551
 31
0.0
  0
LINE
  5
7F
100
AcDbEntity
100
AcDbLine
  8
Main Plate Top Layer
 62
256
370
-1
  6
ByLayer
 10
17.2426398476420104
 20
46.3196609690384733
 30
0.0
 11
18.2687002776191036
 21
43.5005831066808994
 31
0.0
  0
LINE
  5
80
100
AcDbEntity
100
AcDbLine
  8
Main Plate Top Layer
 62
256
370
-1
  6
ByLayer
 10
46.4594789011962632
 20
53.7611874064508797
 30
0.0
 11
45.4334184712192837
 21
56.5802652688085672
 31
0.0
  0
LINE
  5
81
100
AcDbEntity
100
AcDbLine
  8
Main Plate Top Layer
 62
256
370
-1
  6
ByLayer
 10
52.0976346259116667
 20
55.813308266404924
 30
0.0
 11
46.4594789011962632
 21
53.7611874064508797
 31
0.0
  0
LINE
  5
82
100
AcDbEntity
100
AcDbLine
  8
Main Plate Top Layer
 62
256
370
-1
  6
ByLayer
 10
51.0715741959347156
 20
58.6323861287625974
 30
0.0
 11
52.0976346259116667
 21
55.813308266404924
 31
0.0
  0
LINE
  5
83
100
AcDbEntity
100
AcDbLine
  8
Main Plate Top Layer
 62
256
370
-1
  6
ByLayer
 10
21.8656135216550638
 20
12.590502524259346
 30
0.0
 11
22.7656135216550624
 21
12.5905025242596587
 31
0.0
  0
LINE
  5
84
100
AcDbEntity
100
AcDbLine
  8
Main Plate Top Layer
 62
256
370
-1
  6
ByLayer
 10
22.765613521655105
 20
8.5905025242595947
 30
0.0
 11
21.8656135216550638
 21
8.5905025242592892
 31
0.0
  0
LINE
  5
85
100
AcDbEntity
100
AcDbLine
  8
Main Plate Top Layer
 62
256
370
-1
  6
ByLayer
 10
21.8656135216550638
 20
8.5905025242592892
 30
0.0
 11
21.8656135216550638
 21
12.590502524259346
 31
0.0
  0
LINE
  5
86
100
AcDbEntity
100
AcDbLine
  8
Main Plate Top Layer
 62
256
370
-1
  6
ByLayer
 10
22.7656135216550624
 20
12.5905025242596587
 30
0.0
 11
22.7656135216550624
 21
14.5905025242596302
 31
0.0
  0
LINE
  5
87
100
AcDbEntity
100
AcDbLine
  8
Main Plate Top Layer
 62
256
370
-1
  6
ByLayer
 10
28.7656135216550943
 20
14.5905025242596587
 30
0.0
 11
22.7656135216550624
 21
14.5905025242596302
 31
0.0
  0
LINE
  5
88
100
AcDbEntity
100
AcDbLine
  8
Main Plate Top Layer
 62
256
370
-1
  6
ByLayer
 10
28.7656135216550943
 20
14.5905025242596587
 30
0.0
 11
28.7656135216550979
 21
12.5905025242596409
 31
0.0
  0
LINE
  5
89
100
AcDbEntity
100
AcDbLine
  8
Main Plate Top Layer
 62
256
370
-1
  6
ByLayer
 10
28.7656135216550979
 20
12.5905025242596409
 30
0.0
 11
29.6656135216550751
 21
12.5905025242597119
 31
0.0
  0
LINE
  5
8A
100
AcDbEntity
100
AcDbLine
  8
Main Plate Top Layer
 62
256
370
-1
  6
ByLayer
 10
29.6656135216550751
 20
12.5905025242597119
 30
0.0
 11
29.6656135216550751
 21
8.5905025242597404
 31
0.0
  0
LINE
  5
8B
100
AcDbEntity
100
AcDbLine
  8
Main Plate Top Layer
 62
256
370
-1
  6
ByLayer
 10
29.6656135216550751
 20
8.5905025242597404
 30
0.0
 11
28.7656135216550268
 21
8.5905025242596125
 31
0.0
  0
LINE
  5
8C
100
AcDbEntity
100
AcDbLine
  8
Main Plate Top Layer
 62
256
370
-1
  6
ByLayer
 10
54.7656135216551263
 20
12.5905025242596516
 30
0.0
 11
54.7656135216549842
 21
14.5905025242596231
 31
0.0
  0
LINE
  5
8D
100
AcDbEntity
100
AcDbLine
  8
Main Plate Top Layer
 62
256
370
-1
  6
ByLayer
 10
54.7656135216549842
 20
14.5905025242596231
 30
0.0
 11
60.7656135216550837
 21
14.5905025242596267
 31
0.0
  0
LINE
  5
8E
100
AcDbEntity
100
AcDbLine
  8
Main Plate Top Layer
 62
256
370
-1
  6
ByLayer
 10
60.7656135216550837
 20
14.5905025242596267
 30
0.0
 11
60.7656135216550837
 21
12.5905025242596551
 31
0.0
  0
LINE
  5
8F
100
AcDbEntity
100
AcDbLine
  8
Main Plate Top Layer
 62
256
370
-1
  6
ByLayer
 10
53.8656135216551206
 20
12.5905025242596089
 30
0.0
 11
54.7656135216551263
 21
12.5905025242596516
 31
0.0
  0
LINE
  5
90
100
AcDbEntity
100
AcDbLine
  8
Main Plate Top Layer
 62
256
370
-1
  6
ByLayer
 10
54.7656135216551405
 20
8.5905025242596444
 30
0.0
 11
53.8656135216549927
 21
8.5905025242596444
 31
0.0
  0
LINE
  5
91
100
AcDbEntity
100
AcDbLine
  8
Main Plate Top Layer
 62
256
370
-1
  6
ByLayer
 10
53.8656135216549927
 20
8.5905025242596444
 30
0.0
 11
53.8656135216551206
 21
12.5905025242596089
 31
0.0
  0
LINE
  5
92
100
AcDbEntity
100
AcDbLine
  8
Main Plate Top Layer
 62
256
370
-1
  6
ByLayer
 10
61.6656135216551036
 20
8.5905025242596906
 30
0.0
 11
60.7656135216550695
 21
8.5905025242596338
 31
0.0
  0
LINE
  5
93
100
AcDbEntity
100
AcDbLine
  8
Main Plate Top Layer
 62
256
370
-1
  6
ByLayer
 10
60.7656135216550837
 20
12.5905025242596551
 30
0.0
 11
61.6656135216550751
 21
12.5905025242597155
 31
0.0
  0
LINE
  5
94
100
AcDbEntity
100
AcDbLine
  8
Main Plate Top Layer
 62
256
370
-1
  6
ByLayer
 10
61.6656135216550751
 20
12.5905025242597155
 30
0.0
 11
61.6656135216551036
 21
8.5905025242596906
 31
0.0
  0
LINE
  5
95
100
AcDbEntity
100
AcDbLine
  8
Main Plate Top Layer
 62
256
370
-1
  6
ByLayer
 10
58.6779005216548057
 20
20.0504101280902276
 30
0.0
 11
61.8533268820620208
 21
20.0504103361714172
 31
0.0
  0
LINE
  5
96
100
AcDbEntity
100
AcDbLine
  8
Main Plate Top Layer
 62
256
370
-1
  6
ByLayer
 10
61.8533268820620208
 20
20.0504103361714172
 30
0.0
 11
63.4410398820620287
 21
17.3004107523337893
 31
0.0
  0
LINE
  5
97
100
AcDbEntity
100
AcDbLine
  8
Main Plate Top Layer
 62
256
370
-1
  6
ByLayer
 10
63.4410398820620287
 20
17.3004107523337893
 30
0.0
 11
61.8533265216548074
 21
14.5504109604150038
 31
0.0
  0
LINE
  5
98
100
AcDbEntity
100
AcDbLine
  8
Main Plate Top Layer
 62
256
370
-1
  6
ByLayer
 10
58.6779001612476065
 20
14.5504107523338213
 30
0.0
 11
61.8533265216548074
 21
14.5504109604150038
 31
0.0
  0
LINE
  5
99
100
AcDbEntity
100
AcDbLine
  8
Main Plate Top Layer
 62
256
370
-1
  6
ByLayer
 10
57.090187161247627
 20
17.3004103361714172
 30
0.0
 11
58.6779001612476065
 21
14.5504107523338213
 31
0.0
  0
LINE
  5
9A
100
AcDbEntity
100
AcDbLine
  8
Main Plate Top Layer
 62
256
370
-1
  6
ByLayer
 10
58.6779005216548057
 20
20.0504101280902276
 30
0.0
 11
57.090187161247627
 21
17.3004103361714172
 31
0.0
  0
LINE
  5
9B
100
AcDbEntity
100
AcDbLine
  8
Main Plate Top Layer
 62
256
370
-1
  6
ByLayer
 10
20.3656135216551633
 20
31.475836544252644
 30
0.0
 11
23.1156135216551633
 21
29.8881235442526254
 31
0.0
  0
LINE
  5
9C
100
AcDbEntity
100
AcDbLine
  8
Main Plate Top Layer
 62
256
370
-1
  6
ByLayer
 10
23.1156135216551633
 20
29.8881235442526254
 30
0.0
 11
23.1156135216551597
 21
26.7126975442526202
 31
0.0
  0
LINE
  5
9D
100
AcDbEntity
100
AcDbLine
  8
Main Plate Top Layer
 62
256
370
-1
  6
ByLayer
 10
23.1156135216551597
 20
26.7126975442526202
 30
0.0
 11
20.3656135216551597
 21
25.1249845442526407
 31
0.0
  0
LINE
  5
9E
100
AcDbEntity
100
AcDbLine
  8
Main Plate Top Layer
 62
256
370
-1
  6
ByLayer
 10
17.6156135216551881
 20
26.7126975442526309
 30
0.0
 11
20.3656135216551597
 21
25.1249845442526407
 31
0.0
  0
LINE
  5
9F
100
AcDbEntity
100
AcDbLine
  8
Main Plate Top Layer
 62
256
370
-1
  6
ByLayer
 10
17.6156135216551917
 20
29.8881235442526219
 30
0.0
 11
17.6156135216551881
 21
26.7126975442526309
 31
0.0
  0
LINE
  5
A0
100
AcDbEntity
100
AcDbLine
  8
Main Plate Top Layer
 62
256
370
-1
  6
ByLayer
 10
20.3656135216551633
 20
31.475836544252644
 30
0.0
 11
17.6156135216551917
 21
29.8881235442526219
 31
0.0
  0
LINE
  5
A1
100
AcDbEntity
100
AcDbLine
  8
Main Plate Top Layer
 62
256
370
-1
  6
ByLayer
 10
17.1901875216557229
 20
17.3004105442519744
 30
0.0
 11
18.7779005216557024
 21
20.0504105442519744
 31
0.0
  0
LINE
  5
A2
100
AcDbEntity
100
AcDbLine
  8
Main Plate Top Layer
 62
256
370
-1
  6
ByLayer
 10
18.7779005216557024
 20
20.0504105442519744
 30
0.0
 11
21.9533265216557254
 21
20.0504105442519673
 31
0.0
  0
LINE
  5
A3
100
AcDbEntity
100
AcDbLine
  8
Main Plate Top Layer
 62
256
370
-1
  6
ByLayer
 10
21.9533265216557254
 20
20.0504105442519673
 30
0.0
 11
23.5410395216557085
 21
17.3004105442519673
 31
0.0
  0
LINE
  5
A4
100
AcDbEntity
100
AcDbLine
  8
Main Plate Top Layer
 62
256
370
-1
  6
ByLayer
 10
21.9533265216557041
 20
14.5504105442519638
 30
0.0
 11
23.5410395216557085
 21
17.3004105442519673
 31
0.0
  0
LINE
  5
A5
100
AcDbEntity
100
AcDbLine
  8
Main Plate Top Layer
 62
256
370
-1
  6
ByLayer
 10
18.7779005216557096
 20
14.550410544251978
 30
0.0
 11
21.9533265216557041
 21
14.5504105442519638
 31
0.0
  0
LINE
  5
A6
100
AcDbEntity
100
AcDbLine
  8
Main Plate Top Layer
 62
256
370
-1
  6
ByLayer
 10
17.1901875216557229
 20
17.3004105442519744
 30
0.0
 11
18.7779005216557096
 21
14.550410544251978
 31
0.0
  0
CIRCLE
  5
A7
100
AcDbEntity
100
AcDbCircle
  8
Main Plate Top Layer
 62
256
370
-1
  6
ByLayer
 10
54.4255122065263137
 20
22.2963857436409079
 30
0.0
 40
1.45
  0
CIRCLE
  5
A8
100
AcDbEntity
100
AcDbCircle
  8
Main Plate Top Layer
 62
256
370
-1
  6
ByLayer
 10
28.1475357805249189
 20
22.8004105442527489
 30
0.0
 40
1.45
  0
CIRCLE
  5
A9
100
AcDbEntity
100
AcDbCircle
  8
Main Plate Top Layer
 62
256
370
-1
  6
ByLayer
 10
51.4255122065263208
 20
46.2963857436413164
 30
0.0
 40
1.45
  0
CIRCLE
  5
AA
100
AcDbEntity
100
AcDbCircle
  8
Main Plate Top Layer
 62
256
370
-1
  6
ByLayer
 10
49.4255122065261503
 20
5.2963857436404673
 30
0.0
 40
1.45
  0
CIRCLE
  5
AB
100
AcDbEntity
100
AcDbCircle
  8
Main Plate Top Layer
 62
256
370
-1
  6
ByLayer
 10
34.4255122065263564
 20
5.296385743640915
 30
0.0
 40
1.45
  0
CIRCLE
  5
AC
100
AcDbEntity
100
AcDbCircle
  8
Main Plate Top Layer
 62
256
370
-1
  6
ByLayer
 10
22.4255122065262498
 20
39.8463857436407878
 30
0.0
 40
1.45
  0
CIRCLE
  5
AD
100
AcDbEntity
100
AcDbCircle
  8
Top
 62
256
370
-1
  6
ByLayer
 10
66.0
 20
58.0
 30
0.0
 40
3.999999999999992
  0
CIRCLE
  5
AE
100
AcDbEntity
100
AcDbCircle
  8
Top
 62
256
370
-1
  6
ByLayer
 10
66.0
 20
58.0
 30
0.0
 40
9.499999999999984
  0
MTEXT
  5
AF
100
AcDbEntity
100
AcDbMText
  8
Text
 62
256
370
-1
  6
ByLayer
 10
66.0
 20
64.75
 30
0.0
 40
2.0
 41
100.0
 71
5
 72
2
  1
Drive
  7
standard
 50
0.0
 73
0
 44
1.0
  0
MTEXT
  5
B0
100
AcDbEntity
100
AcDbMText
  8
Text
 62
256
370
-1
  6
ByLayer
 10
66.0
 20
52.2794030486892893
 30
0.0
 40
2.0
 41
100.0
 71
5
 72
2
  1
Spacer
  7
standard
 50
0.0
 73
0
 44
1.0
  0
ENDSEC
  0
SECTION
  2
OBJECTS
  0
DICTIONARY
  5
C
100
AcDbDictionary
280
0
281
1
  3
ACAD_GROUP
350
D
  3
ACAD_LAYOUT
350
1A
  3
ACAD_MLINESTYLE
350
17
  3
ACAD_PLOTSETTINGS
350
19
  3
ACAD_PLOTSTYLENAME
350
E
  3
AcDbVariableDictionary
350
B1
  0
DICTIONARY
  5
D
100
AcDbDictionary
280
0
281
1
  0
ACDBDICTIONARYWDFLT
  5
E
100
AcDbDictionary
281
1
  3
Normal
350
F
100
AcDbDictionaryWithDefault
340
F
  0
ACDBPLACEHOLDER
  5
F
  0
DICTIONARY
  5
17
100
AcDbDictionary
280
0
281
1
  3
Standard
350
18
  0
MLINESTYLE
  5
18
100
AcDbMlineStyle
  2
STANDARD
 70
0
  3

 62
256
 51
90.0
 52
90.0
 71
2
 49
0.5
 62
256
  6
BYLAYER
 49
-0.5
 62
256
  6
BYLAYER
  0
DICTIONARY
  5
19
100
AcDbDictionary
280
0
281
1
  0
DICTIONARY
  5
1A
100
AcDbDictionary
281
1
  3
Layout1
350
1E
  3
Layout2
350
26
  3
Model
350
22
  0
LAYOUT
  5
1E
100
AcDbPlotSettings
  1

  2
C:\Program Files\AutoCAD 2002\plotters\DWF ePlot (optimized for plotting).pc3
  4

  6

 40
0.0
 41
0.0
 42
0.0
 43
0.0
 44
0.0
 45
0.0
 46
0.0
 47
0.0
 48
0.0
 49
0.0
140
0.0
141
0.0
142
1.0
143
1.0
 70
688
 72
0
 73
0
 74
5
  7

 75
16
147
1.0
148
0.0
149
0.0
100
AcDbLayout
  1
Layout1
 70
1
 71
1
 10
0.0
 20
0.0
 11
420.0
 21
297.0
 12
0.0
 22
0.0
 32
0.0
 14
100000000000000000000.0
 24
100000000000000000000.0
 34
100000000000000000000.0
 15
-100000000000000000000.0
 25
-100000000000000000000.0
 35
-100000000000000000000.0
146
0.0
 13
0.0
 23
0.0
 33
0.0
 16
1.0
 26
0.0
 36
0.0
 17
0.0
 27
1.0
 37
0.0
 76
0
330
1B
  0
LAYOUT
  5
22
100
AcDbPlotSettings
  1

  2
C:\Program Files\AutoCAD 2002\plotters\DWF ePlot (optimized for plotting).pc3
  4

  6

 40
0.0
 41
0.0
 42
0.0
 43
0.0
 44
0.0
 45
0.0
 46
0.0
 47
0.0
 48
0.0
 49
0.0
140
0.0
141
0.0
142
1.0
143
1.0
 70
1712
 72
0
 73
0
 74
0
  7

 75
0
147
1.0
148
0.0
149
0.0
100
AcDbLayout
  1
Model
 70
1
 71
0
 10
0.0
 20
0.0
 11
12.0
 21
9.0
 12
0.0
 22
0.0
 32
0.0
 14
0.0
 24
0.0
 34
0.0
 15
0.0
 25
0.0
 35
0.0
146
0.0
 13
0.0
 23
0.0
 33
0.0
 16
1.0
 26
0.0
 36
0.0
 17
0.0
 27
1.0
 37
0.0
 76
0
330
1F
  0
LAYOUT
  5
26
100
AcDbPlotSettings
  1

  2
C:\Program Files\AutoCAD 2002\plotters\DWF ePlot (optimized for plotting).pc3
  4

  6

 40
0.0
 41
0.0
 42
0.0
 43
0.0
 44
0.0
 45
0.0
 46
0.0
 47
0.0
 48
0.0
 49
0.0
140
0.0
141
0.0
142
1.0
143
1.0
 70
688
 72
0
 73
0
 74
5
  7

 75
16
147
1.0
148
0.0
149
0.0
100
AcDbLayout
  1
Layout2
 70
1
 71
2
 10
0.0
 20
0.0
 11
12.0
 21
9.0
 12
0.0
 22
0.0
 32
0.0
 14
0.0
 24
0.0
 34
0.0
 15
0.0
 25
0.0
 35
0.0
146
0.0
 13
0.0
 23
0.0
 33
0.0
 16
1.0
 26
0.0
 36
0.0
 17
0.0
 27
1.0
 37
0.0
 76
0
330
23
  0
DICTIONARY
  5
B1
100
AcDbDictionary
281
1
  3
DIMASSOC
350
B3
  3
HIDETEXT
350
B2
  0
DICTIONARYVAR
  5
B2
100
DictionaryVariables
280
0
  1
2
  0
DICTIONARYVAR
  5
B3
100
DictionaryVariables
280
0
  1
1
  0
ENDSEC
  0
EOF
