999
dxflib 2.2.0.0
  0
SECTION
  2
HEADER
  9
$ACADVER
  1
AC1015
  9
$HANDSEED
  5
FFFF
  9
$SPLINESEGS
 70
8
  9
$DIMEXE
 40
1.25
  9
$DIMLUNIT
 70
2
  9
$GRIDMODE
 70
1
  9
$INSUNITS
 70
4
  9
$DIMADEC
 70
2
  9
$DIMASZ
 40
2.5
  9
$DIMGAP
 40
0.625
  9
$DIMTXT
 40
2.5
  9
$GRIDUNIT
 10
0.0
 20
0.0
  9
$DIMEXO
 40
0.625
  9
$LUPREC
 70
4
  9
$CLAYER
  8
Middle
  9
$DIMAUNIT
 70
0
  9
$AUPREC
 70
2
  9
$PLIMMIN
 10
0.0
 20
0.0
  9
$LUNITS
 70
2
  9
$PLIMMAX
 10
215.9000000000000057
 20
279.3999999999999773
  9
$DIMSTYLE
  2
Standard
  9
$AUNITS
 70
0
  9
$CLAYER
  8
Drawing
  0
ENDSEC
  0
SECTION
  2
TABLES
  0
TABLE
  2
VPORT
  5
8
100
AcDbSymbolTable
 70
1
  0
VPORT
  5
30
100
AcDbSymbolTableRecord
100
AcDbViewportTableRecord
  2
*Active
 70
0
 10
0.0
 20
0.0
 11
1.0
 21
1.0
 12
286.3055555555554861
 22
148.5
 13
0.0
 23
0.0
 14
10.0
 24
10.0
 15
10.0
 25
10.0
 16
0.0
 26
0.0
 36
1.0
 17
0.0
 27
0.0
 37
0.0
 40
297.0
 41
1.92798353909465
 42
50.0
 43
0.0
 44
0.0
 50
0.0
 51
0.0
 71
0
 72
100
 73
1
 74
3
 75
1
 76
1
 77
0
 78
0
281
0
 65
1
110
0.0
120
0.0
130
0.0
111
1.0
121
0.0
131
0.0
112
0.0
122
1.0
132
0.0
 79
0
146
0.0
  0
ENDTAB
  0
TABLE
  2
LTYPE
  5
5
100
AcDbSymbolTable
 70
21
  0
LTYPE
  5
14
100
AcDbSymbolTableRecord
100
AcDbLinetypeTableRecord
  2
ByBlock
 70
0
  3

 72
65
 73
0
 40
0.0
  0
LTYPE
  5
15
100
AcDbSymbolTableRecord
100
AcDbLinetypeTableRecord
  2
ByLayer
 70
0
  3

 72
65
 73
0
 40
0.0
  0
LTYPE
  5
16
100
AcDbSymbolTableRecord
100
AcDbLinetypeTableRecord
  2
CONTINUOUS
 70
0
  3
Solid line
 72
65
 73
0
 40
0.0
  0
LTYPE
  5
31
100
AcDbSymbolTableRecord
100
AcDbLinetypeTableRecord
  2
DOT
 70
0
  3
Dot . . . . . . . . . . . . . . . . . . . . . .
 72
65
 73
2
 40
6.3499999999999996
 49
0.0
 74
0
 49
-6.3499999999999996
 74
0
  0
LTYPE
  5
32
100
AcDbSymbolTableRecord
100
AcDbLinetypeTableRecord
  2
DOT2
 70
0
  3
Dot (.5x) .....................................
 72
65
 73
2
 40
3.1749999999999998
 49
0.0
 74
0
 49
-3.1749999999999998
 74
0
  0
LTYPE
  5
33
100
AcDbSymbolTableRecord
100
AcDbLinetypeTableRecord
  2
DOTX2
 70
0
  3
Dot (2x) .  .  .  .  .  .  .  .  .  .  .  .  .
 72
65
 73
2
 40
12.6999999999999993
 49
0.0
 74
0
 49
-12.6999999999999993
 74
0
  0
LTYPE
  5
34
100
AcDbSymbolTableRecord
100
AcDbLinetypeTableRecord
  2
DASHED
 70
0
  3
Dashed __ __ __ __ __ __ __ __ __ __ __ __ __ _
 72
65
 73
2
 40
19.0500000000000007
 49
12.6999999999999993
 74
0
 49
-6.3499999999999996
 74
0
  0
LTYPE
  5
35
100
AcDbSymbolTableRecord
100
AcDbLinetypeTableRecord
  2
DASHED2
 70
0
  3
Dashed (.5x) _ _ _ _ _ _ _ _ _ _ _ _ _ _ _ _ _
 72
65
 73
2
 40
9.5250000000000004
 49
6.3499999999999996
 74
0
 49
-3.1749999999999998
 74
0
  0
LTYPE
  5
36
100
AcDbSymbolTableRecord
100
AcDbLinetypeTableRecord
  2
DASHEDX2
 70
0
  3
Dashed (2x) ____  ____  ____  ____  ____  ___
 72
65
 73
2
 40
38.1000000000000014
 49
25.3999999999999986
 74
0
 49
-12.6999999999999993
 74
0
  0
LTYPE
  5
37
100
AcDbSymbolTableRecord
100
AcDbLinetypeTableRecord
  2
DASHDOT
 70
0
  3
Dash dot __ . __ . __ . __ . __ . __ . __ . __
 72
65
 73
4
 40
25.3999999999999986
 49
12.6999999999999993
 74
0
 49
-6.3499999999999996
 74
0
 49
0.0
 74
0
 49
-6.3499999999999996
 74
0
  0
LTYPE
  5
38
100
AcDbSymbolTableRecord
100
AcDbLinetypeTableRecord
  2
DASHDOT2
 70
0
  3
Dash dot (.5x) _._._._._._._._._._._._._._._.
 72
65
 73
4
 40
12.6999999999999993
 49
6.3499999999999996
 74
0
 49
-3.1749999999999998
 74
0
 49
0.0
 74
0
 49
-3.1749999999999998
 74
0
  0
LTYPE
  5
39
100
AcDbSymbolTableRecord
100
AcDbLinetypeTableRecord
  2
DASHDOTX2
 70
0
  3
Dash dot (2x) ____  .  ____  .  ____  .  ___
 72
65
 73
4
 40
50.7999999999999972
 49
25.3999999999999986
 74
0
 49
-12.6999999999999993
 74
0
 49
0.0
 74
0
 49
-12.6999999999999993
 74
0
  0
LTYPE
  5
3A
100
AcDbSymbolTableRecord
100
AcDbLinetypeTableRecord
  2
DIVIDE
 70
0
  3
Divide ____ . . ____ . . ____ . . ____ . . ____
 72
65
 73
6
 40
31.75
 49
12.6999999999999993
 74
0
 49
-6.3499999999999996
 74
0
 49
0.0
 74
0
 49
-6.3499999999999996
 74
0
 49
0.0
 74
0
 49
-6.3499999999999996
 74
0
  0
LTYPE
  5
3B
100
AcDbSymbolTableRecord
100
AcDbLinetypeTableRecord
  2
DIVIDE2
 70
0
  3
Divide (.5x) __..__..__..__..__..__..__..__.._
 72
65
 73
6
 40
15.875
 49
6.3499999999999996
 74
0
 49
-3.1749999999999998
 74
0
 49
0.0
 74
0
 49
-3.1749999999999998
 74
0
 49
0.0
 74
0
 49
-3.1749999999999998
 74
0
  0
LTYPE
  5
3C
100
AcDbSymbolTableRecord
100
AcDbLinetypeTableRecord
  2
DIVIDEX2
 70
0
  3
Divide (2x) ________  .  .  ________  .  .  _
 72
65
 73
6
 40
63.5
 49
25.3999999999999986
 74
0
 49
-12.6999999999999993
 74
0
 49
0.0
 74
0
 49
-12.6999999999999993
 74
0
 49
0.0
 74
0
 49
-12.6999999999999993
 74
0
  0
LTYPE
  5
3D
100
AcDbSymbolTableRecord
100
AcDbLinetypeTableRecord
  2
CENTER
 70
0
  3
Center ____ _ ____ _ ____ _ ____ _ ____ _ ____
 72
65
 73
4
 40
50.7999999999999972
 49
31.75
 74
0
 49
-6.3499999999999996
 74
0
 49
6.3499999999999996
 74
0
 49
-6.3499999999999996
 74
0
  0
LTYPE
  5
3E
100
AcDbSymbolTableRecord
100
AcDbLinetypeTableRecord
  2
CENTER2
 70
0
  3
Center (.5x) ___ _ ___ _ ___ _ ___ _ ___ _ ___
 72
65
 73
4
 40
28.5749999999999993
 49
19.0500000000000007
 74
0
 49
-3.1749999999999998
 74
0
 49
3.1749999999999998
 74
0
 49
-3.1749999999999998
 74
0
  0
LTYPE
  5
3F
100
AcDbSymbolTableRecord
100
AcDbLinetypeTableRecord
  2
CENTERX2
 70
0
  3
Center (2x) ________  __  ________  __  _____
 72
65
 73
4
 40
101.5999999999999943
 49
63.5
 74
0
 49
-12.6999999999999993
 74
0
 49
12.6999999999999993
 74
0
 49
-12.6999999999999993
 74
0
  0
LTYPE
  5
40
100
AcDbSymbolTableRecord
100
AcDbLinetypeTableRecord
  2
BORDER
 70
0
  3
Border __ __ . __ __ . __ __ . __ __ . __ __ .
 72
65
 73
6
 40
44.4500000000000028
 49
12.6999999999999993
 74
0
 49
-6.3499999999999996
 74
0
 49
12.6999999999999993
 74
0
 49
-6.3499999999999996
 74
0
 49
0.0
 74
0
 49
-6.3499999999999996
 74
0
  0
LTYPE
  5
41
100
AcDbSymbolTableRecord
100
AcDbLinetypeTableRecord
  2
BORDER2
 70
0
  3
Border (.5x) __.__.__.__.__.__.__.__.__.__.__.
 72
65
 73
6
 40
22.2250000000000014
 49
6.3499999999999996
 74
0
 49
-3.1749999999999998
 74
0
 49
6.3499999999999996
 74
0
 49
-3.1749999999999998
 74
0
 49
0.0
 74
0
 49
-3.1749999999999998
 74
0
  0
LTYPE
  5
42
100
AcDbSymbolTableRecord
100
AcDbLinetypeTableRecord
  2
BORDERX2
 70
0
  3
Border (2x) ____  ____  .  ____  ____  .  ___
 72
65
 73
6
 40
88.9000000000000057
 49
25.3999999999999986
 74
0
 49
-12.6999999999999993
 74
0
 49
25.3999999999999986
 74
0
 49
-12.6999999999999993
 74
0
 49
0.0
 74
0
 49
-12.6999999999999993
 74
0
  0
ENDTAB
  0
TABLE
  2
LAYER
  5
2
100
AcDbSymbolTable
 70
10
  0
LAYER
  5
10
100
AcDbSymbolTableRecord
100
AcDbLayerTableRecord
  2
0
 70
0
 62
7
420
16777215
  6
CONTINUOUS
370
0
390
F
  0
LAYER
  5
43
100
AcDbSymbolTableRecord
100
AcDbLayerTableRecord
  2
Bottom
 70
0
 62
7
420
16777215
  6
CONTINUOUS
370
0
390
F
  0
LAYER
  5
44
100
AcDbSymbolTableRecord
100
AcDbLayerTableRecord
  2
Top
 70
0
 62
7
420
16777215
  6
CONTINUOUS
370
0
390
F
  0
LAYER
  5
45
100
AcDbSymbolTableRecord
100
AcDbLayerTableRecord
  2
Top Text
 70
0
 62
4
420
65535
  6
CONTINUOUS
370
0
390
F
  0
LAYER
  5
46
100
AcDbSymbolTableRecord
100
AcDbLayerTableRecord
  2
Bottom Text
 70
0
 62
4
420
65535
  6
CONTINUOUS
370
0
390
F
  0
LAYER
  5
47
100
AcDbSymbolTableRecord
100
AcDbLayerTableRecord
  2
Drawings
 70
0
 62
5
420
255
  6
CONTINUOUS
370
0
390
F
  0
LAYER
  5
48
100
AcDbSymbolTableRecord
100
AcDbLayerTableRecord
  2
Notes
 70
0
 62
7
420
16777215
  6
CONTINUOUS
370
0
390
F
  0
LAYER
  5
49
100
AcDbSymbolTableRecord
100
AcDbLayerTableRecord
  2
Middle
 70
0
 62
7
420
0
  6
CONTINUOUS
370
0
390
F
  0
LAYER
  5
4A
100
AcDbSymbolTableRecord
100
AcDbLayerTableRecord
  2
Middle Text
 70
0
 62
4
420
65535
  6
CONTINUOUS
370
0
390
F
  0
LAYER
  5
4B
100
AcDbSymbolTableRecord
100
AcDbLayerTableRecord
  2
Drawing
 70
0
 62
5
420
255
  6
CONTINUOUS
370
0
390
F
  0
ENDTAB
  0
TABLE
  2
STYLE
  5
3
100
AcDbSymbolTable
 70
1
  0
STYLE
  5
11
100
AcDbSymbolTableRecord
100
AcDbTextStyleTableRecord
  2
Standard
 70
0
 40
0.0
 41
0.75
 50
0.0
 71
0
 42
2.5
  3
txt
  4

  0
ENDTAB
  0
TABLE
  2
VIEW
  5
6
100
AcDbSymbolTable
 70
0
  0
ENDTAB
  0
TABLE
  2
UCS
  5
7
100
AcDbSymbolTable
 70
0
  0
ENDTAB
  0
TABLE
  2
APPID
  5
9
100
AcDbSymbolTable
 70
1
  0
APPID
  5
12
100
AcDbSymbolTableRecord
100
AcDbRegAppTableRecord
  2
ACAD
 70
0
  0
ENDTAB
  0
TABLE
  2
DIMSTYLE
  5
A
100
AcDbSymbolTable
 70
1
100
AcDbDimStyleTable
 71
0
  0
DIMSTYLE
105
27
100
AcDbSymbolTableRecord
100
AcDbDimStyleTableRecord
  2
Standard
 41
2.5
 42
0.625
 43
3.75
 44
1.25
 70
0
 73
0
 74
0
 77
1
 78
8
140
2.5
141
2.5
143
0.03937007874016
147
0.625
171
3
172
1
271
2
272
2
274
3
278
44
283
0
284
8
340
11
  0
ENDTAB
  0
TABLE
  2
BLOCK_RECORD
  5
1
100
AcDbSymbolTable
 70
1
  0
BLOCK_RECORD
  5
1F
100
AcDbSymbolTableRecord
100
AcDbBlockTableRecord
  2
*Model_Space
340
22
  0
BLOCK_RECORD
  5
1B
100
AcDbSymbolTableRecord
100
AcDbBlockTableRecord
  2
*Paper_Space
340
1E
  0
BLOCK_RECORD
  5
23
100
AcDbSymbolTableRecord
100
AcDbBlockTableRecord
  2
*Paper_Space0
340
26
  0
ENDTAB
  0
ENDSEC
  0
SECTION
  2
BLOCKS
  0
BLOCK
  5
20
100
AcDbEntity
  8
0
100
AcDbBlockBegin
  2
*Model_Space
 70
0
 10
0.0
 20
0.0
 30
0.0
  3
*Model_Space
  1

  0
ENDBLK
  5
21
100
AcDbEntity
  8
0
100
AcDbBlockEnd
  0
BLOCK
  5
1C
100
AcDbEntity
 67
1
  8
0
100
AcDbBlockBegin
  2
*Paper_Space
 70
0
 10
0.0
 20
0.0
 30
0.0
  3
*Paper_Space
  1

  0
ENDBLK
  5
1D
100
AcDbEntity
 67
1
  8
0
100
AcDbBlockEnd
  0
BLOCK
  5
24
100
AcDbEntity
  8
0
100
AcDbBlockBegin
  2
*Paper_Space0
 70
0
 10
0.0
 20
0.0
 30
0.0
  3
*Paper_Space0
  1

  0
ENDBLK
  5
25
100
AcDbEntity
  8
0
100
AcDbBlockEnd
  0
ENDSEC
  0
SECTION
  2
ENTITIES
  0
MTEXT
  5
4C
100
AcDbEntity
100
AcDbMText
  8
Notes
 62
256
370
-1
  6
ByLayer
 10
60.0
 20
150.0
 30
0.0
 40
3.0
 41
100.0
 71
1
 72
2
  1
Main\~Plate\PTop\~Layer:\~3/16"\~acrylic\PMiddle\~Layer:\~1/8"\~acrylic\PBottom\~Layer:\~1/16"\~acrylic
  7
standard
 50
0.0
 73
0
 44
1.0
  0
CIRCLE
  5
4D
100
AcDbEntity
100
AcDbCircle
  8
Top
 62
256
370
-1
  6
ByLayer
 10
78.4520436762430791
 20
106.8878544477870776
 30
0.0
 40
1.425
  0
CIRCLE
  5
4E
100
AcDbEntity
100
AcDbCircle
  8
Top
 62
256
370
-1
  6
ByLayer
 10
106.6428222998203239
 20
96.6272501480169979
 30
0.0
 40
1.425
  0
CIRCLE
  5
4F
100
AcDbEntity
100
AcDbCircle
  8
Top
 62
256
370
-1
  6
ByLayer
 10
75.8299493424356541
 20
62.5965548071676494
 30
0.0
 40
1.425
  0
CIRCLE
  5
50
100
AcDbEntity
100
AcDbCircle
  8
Top
 62
256
370
-1
  6
ByLayer
 10
91.8299493424355546
 20
62.5965548071676423
 30
0.0
 40
1.425
  0
CIRCLE
  5
51
100
AcDbEntity
100
AcDbCircle
  8
Top
 62
256
370
-1
  6
ByLayer
 10
75.8299493424356115
 20
84.5965548071676636
 30
0.0
 40
1.425
  0
LINE
  5
52
100
AcDbEntity
100
AcDbLine
  8
Top
 62
256
370
-1
  6
ByLayer
 10
75.1078567718612931
 20
65.5379280397684028
 30
0.0
 11
82.625397738148564
 21
62.8017668931630482
 31
0.0
  0
LINE
  5
53
100
AcDbEntity
100
AcDbLine
  8
Top
 62
256
370
-1
  6
ByLayer
 10
81.530224966174103
 20
115.3450880348602539
 30
0.0
 11
83.5823458261281189
 21
120.9832437595757426
 31
0.0
  0
LINE
  5
54
100
AcDbEntity
100
AcDbLine
  8
Top
 62
256
370
-1
  6
ByLayer
 10
81.7181634903312499
 20
115.2766840061951257
 30
0.0
 11
81.530224966174103
 21
115.3450880348602539
 31
0.0
  0
LINE
  5
55
100
AcDbEntity
100
AcDbLine
  8
Top
 62
256
370
-1
  6
ByLayer
 10
81.1191105754955402
 20
111.876517009527646
 30
0.0
 11
82.07676697680742
 21
114.5076563477281866
 31
0.0
  0
LINE
  5
56
100
AcDbEntity
100
AcDbLine
  8
Top
 62
256
370
-1
  6
ByLayer
 10
80.1621443928714257
 20
111.5863175517166326
 30
0.0
 11
80.3500829170286011
 21
111.5179135230514902
 31
0.0
  0
LINE
  5
57
100
AcDbEntity
100
AcDbLine
  8
Top
 62
256
370
-1
  6
ByLayer
 10
79.6833161922154716
 20
110.2707478826163481
 30
0.0
 11
80.1621443928714257
 21
111.5863175517166326
 31
0.0
  0
LINE
  5
58
100
AcDbEntity
100
AcDbLine
  8
Top
 62
256
370
-1
  6
ByLayer
 10
74.4037639539762097
 20
111.5538410841034249
 30
0.0
 11
78.9142885337485325
 21
109.9121443961402207
 31
0.0
  0
LINE
  5
59
100
AcDbEntity
100
AcDbLine
  8
Top
 62
256
370
-1
  6
ByLayer
 10
74.5239886681559938
 20
113.6384384116706485
 30
0.0
 11
74.0451604675000681
 21
112.322868742570364
 31
0.0
  0
LINE
  5
5A
100
AcDbEntity
100
AcDbLine
  8
Top
 62
256
370
-1
  6
ByLayer
 10
74.33605014399879
 20
113.7068424403357767
 30
0.0
 11
74.5239886681559938
 21
113.6384384116706485
 31
0.0
  0
LINE
  5
5B
100
AcDbEntity
100
AcDbLine
  8
Top
 62
256
370
-1
  6
ByLayer
 10
74.9351030588345282
 20
117.1070094370032706
 30
0.0
 11
73.9774466575226484
 21
114.4758700988027158
 31
0.0
  0
LINE
  5
5C
100
AcDbEntity
100
AcDbLine
  8
Top
 62
256
370
-1
  6
ByLayer
 10
75.8920692414586426
 20
117.3972088948142698
 30
0.0
 11
75.7041307173014673
 21
117.4656129234794122
 31
0.0
  0
LINE
  5
5D
100
AcDbEntity
100
AcDbLine
  8
Top
 62
256
370
-1
  6
ByLayer
 10
77.9441901014126586
 20
123.0353646195297443
 30
0.0
 11
75.8920692414586426
 21
117.3972088948142698
 31
0.0
  0
LINE
  5
5E
100
AcDbEntity
100
AcDbLine
  8
Top
 62
256
370
-1
  6
ByLayer
 10
64.2576134717038769
 20
97.1270219804217874
 30
0.0
 11
74.1854196182690373
 21
124.4034451928324074
 31
0.0
  0
LINE
  5
5F
100
AcDbEntity
100
AcDbLine
  8
Top
 62
256
370
-1
  6
ByLayer
 10
58.8299493424355973
 20
55.596554807167692
 30
0.0
 11
58.8299493424356115
 21
66.3452090811116193
 31
0.0
  0
LINE
  5
60
100
AcDbEntity
100
AcDbLine
  8
Top
 62
256
370
-1
  6
ByLayer
 10
64.8299493424356115
 20
55.5965548071676352
 30
0.0
 11
58.8299493424355973
 21
55.596554807167692
 31
0.0
  0
LINE
  5
61
100
AcDbEntity
100
AcDbLine
  8
Top
 62
256
370
-1
  6
ByLayer
 10
64.8299493424356115
 20
63.5965548071676778
 30
0.0
 11
64.8299493424356115
 21
55.5965548071676352
 31
0.0
  0
LINE
  5
62
100
AcDbEntity
100
AcDbLine
  8
Top
 62
256
370
-1
  6
ByLayer
 10
64.6299493424355944
 20
63.5965548071676778
 30
0.0
 11
64.8299493424356115
 21
63.5965548071676778
 31
0.0
  0
LINE
  5
63
100
AcDbEntity
100
AcDbLine
  8
Top
 62
256
370
-1
  6
ByLayer
 10
64.0299493424355717
 20
66.9965548071676835
 30
0.0
 11
64.0299493424355717
 21
64.1965548071676722
 31
0.0
  0
LINE
  5
64
100
AcDbEntity
100
AcDbLine
  8
Top
 62
256
370
-1
  6
ByLayer
 10
64.8299493424356115
 20
67.5965548071676778
 30
0.0
 11
64.6299493424355802
 21
67.5965548071677205
 31
0.0
  0
LINE
  5
65
100
AcDbEntity
100
AcDbLine
  8
Top
 62
256
370
-1
  6
ByLayer
 10
64.8299493424355973
 20
68.9965548071676551
 30
0.0
 11
64.8299493424356115
 21
67.5965548071676778
 31
0.0
  0
LINE
  5
66
100
AcDbEntity
100
AcDbLine
  8
Top
 62
256
370
-1
  6
ByLayer
 10
70.2299493424355887
 20
69.5965548071676494
 30
0.0
 11
65.4299493424356058
 21
69.5965548071676636
 31
0.0
  0
LINE
  5
67
100
AcDbEntity
100
AcDbLine
  8
Top
 62
256
370
-1
  6
ByLayer
 10
70.8299493424355688
 20
67.596554807167692
 30
0.0
 11
70.8299493424356399
 21
68.9965548071676409
 31
0.0
  0
LINE
  5
68
100
AcDbEntity
100
AcDbLine
  8
Top
 62
256
370
-1
  6
ByLayer
 10
71.0299493424356285
 20
67.5965548071676778
 30
0.0
 11
70.8299493424355688
 21
67.596554807167692
 31
0.0
  0
LINE
  5
69
100
AcDbEntity
100
AcDbLine
  8
Top
 62
256
370
-1
  6
ByLayer
 10
71.6299493424356513
 20
64.1965548071676579
 30
0.0
 11
71.6299493424356228
 21
66.9965548071676551
 31
0.0
  0
LINE
  5
6A
100
AcDbEntity
100
AcDbLine
  8
Top
 62
256
370
-1
  6
ByLayer
 10
70.8299493424355688
 20
63.5965548071676778
 30
0.0
 11
71.0299493424356001
 21
63.5965548071676778
 31
0.0
  0
LINE
  5
6B
100
AcDbEntity
100
AcDbLine
  8
Top
 62
256
370
-1
  6
ByLayer
 10
70.8299493424355973
 20
55.5965548071676565
 30
0.0
 11
70.8299493424355688
 21
63.5965548071676778
 31
0.0
  0
LINE
  5
6C
100
AcDbEntity
100
AcDbLine
  8
Top
 62
256
370
-1
  6
ByLayer
 10
96.8299493424356541
 20
55.5965548071676494
 30
0.0
 11
70.8299493424355973
 21
55.5965548071676565
 31
0.0
  0
LINE
  5
6D
100
AcDbEntity
100
AcDbLine
  8
Top
 62
256
370
-1
  6
ByLayer
 10
96.8299493424356399
 20
63.5965548071676494
 30
0.0
 11
96.8299493424356541
 21
55.5965548071676494
 31
0.0
  0
LINE
  5
6E
100
AcDbEntity
100
AcDbLine
  8
Top
 62
256
370
-1
  6
ByLayer
 10
96.6299493424356513
 20
63.5965548071676565
 30
0.0
 11
96.8299493424356399
 21
63.5965548071676494
 31
0.0
  0
LINE
  5
6F
100
AcDbEntity
100
AcDbLine
  8
Top
 62
256
370
-1
  6
ByLayer
 10
96.0299493424356001
 20
66.9965548071676409
 30
0.0
 11
96.0299493424356001
 21
64.1965548071676437
 31
0.0
  0
LINE
  5
70
100
AcDbEntity
100
AcDbLine
  8
Top
 62
256
370
-1
  6
ByLayer
 10
96.8299493424355973
 20
67.5965548071676636
 30
0.0
 11
96.6299493424356228
 21
67.5965548071676494
 31
0.0
  0
LINE
  5
71
100
AcDbEntity
100
AcDbLine
  8
Top
 62
256
370
-1
  6
ByLayer
 10
96.8299493424356257
 20
68.9965548071676409
 30
0.0
 11
96.8299493424355973
 21
67.5965548071676636
 31
0.0
  0
LINE
  5
72
100
AcDbEntity
100
AcDbLine
  8
Top
 62
256
370
-1
  6
ByLayer
 10
102.829949342435583
 20
67.5965548071676352
 30
0.0
 11
102.8299493424356115
 21
68.9965548071675983
 31
0.0
  0
LINE
  5
73
100
AcDbEntity
100
AcDbLine
  8
Top
 62
256
370
-1
  6
ByLayer
 10
103.0299493424356285
 20
67.5965548071676494
 30
0.0
 11
102.829949342435583
 21
67.5965548071676352
 31
0.0
  0
LINE
  5
74
100
AcDbEntity
100
AcDbLine
  8
Top
 62
256
370
-1
  6
ByLayer
 10
103.6299493424355944
 20
64.1965548071676437
 30
0.0
 11
103.6299493424356228
 21
66.9965548071676835
 31
0.0
  0
LINE
  5
75
100
AcDbEntity
100
AcDbLine
  8
Top
 62
256
370
-1
  6
ByLayer
 10
102.8299493424355973
 20
63.5965548071676494
 30
0.0
 11
103.0299493424355859
 21
63.5965548071676352
 31
0.0
  0
LINE
  5
76
100
AcDbEntity
100
AcDbLine
  8
Top
 62
256
370
-1
  6
ByLayer
 10
102.8299493424355688
 20
55.5965548071676139
 30
0.0
 11
102.8299493424355973
 21
63.5965548071676494
 31
0.0
  0
LINE
  5
77
100
AcDbEntity
100
AcDbLine
  8
Top
 62
256
370
-1
  6
ByLayer
 10
108.829949342435583
 20
55.5965548071675855
 30
0.0
 11
102.8299493424355688
 21
55.5965548071676139
 31
0.0
  0
LINE
  5
78
100
AcDbEntity
100
AcDbLine
  8
Top
 62
256
370
-1
  6
ByLayer
 10
108.829949342435583
 20
57.5288600456883685
 30
0.0
 11
108.829949342435583
 21
55.5965548071675855
 31
0.0
  0
LINE
  5
79
100
AcDbEntity
100
AcDbLine
  8
Top
 62
256
370
-1
  6
ByLayer
 10
115.3591593144668082
 20
103.0323628751361866
 30
0.0
 11
117.4112801744207957
 21
108.6705185998516185
 31
0.0
  0
LINE
  5
7A
100
AcDbEntity
100
AcDbLine
  8
Top
 62
256
370
-1
  6
ByLayer
 10
115.547097838624012
 20
102.96395884647103
 30
0.0
 11
115.3591593144668082
 21
103.0323628751361866
 31
0.0
  0
LINE
  5
7B
100
AcDbEntity
100
AcDbLine
  8
Top
 62
256
370
-1
  6
ByLayer
 10
114.9480449237882169
 20
99.5637918498035361
 30
0.0
 11
115.9057013251000967
 21
102.1949311880040909
 31
0.0
  0
LINE
  5
7C
100
AcDbEntity
100
AcDbLine
  8
Top
 62
256
370
-1
  6
ByLayer
 10
113.9910787411641024
 20
99.2735923919925511
 30
0.0
 11
114.1790172653213062
 21
99.205188363327423
 31
0.0
  0
LINE
  5
7D
100
AcDbEntity
100
AcDbLine
  8
Top
 62
256
370
-1
  6
ByLayer
 10
113.5122505405080915
 20
97.9580227228922524
 30
0.0
 11
113.9910787411641024
 21
99.2735923919925511
 31
0.0
  0
LINE
  5
7E
100
AcDbEntity
100
AcDbLine
  8
Top
 62
256
370
-1
  6
ByLayer
 10
108.2326983022689149
 20
99.2411159243793577
 30
0.0
 11
112.7432228820411808
 21
97.599419236416125
 31
0.0
  0
LINE
  5
7F
100
AcDbEntity
100
AcDbLine
  8
Top
 62
256
370
-1
  6
ByLayer
 10
108.3529230164486705
 20
101.3257132519465387
 30
0.0
 11
107.8740948157927164
 21
100.0101435828462684
 31
0.0
  0
LINE
  5
80
100
AcDbEntity
100
AcDbLine
  8
Top
 62
256
370
-1
  6
ByLayer
 10
108.1649844922914951
 20
101.3941172806116953
 30
0.0
 11
108.3529230164486705
 21
101.3257132519465387
 31
0.0
  0
LINE
  5
81
100
AcDbEntity
100
AcDbLine
  8
Top
 62
256
370
-1
  6
ByLayer
 10
108.7640374071272333
 20
104.7942842772791892
 30
0.0
 11
107.806381005815382
 21
102.1631449390786344
 31
0.0
  0
LINE
  5
82
100
AcDbEntity
100
AcDbLine
  8
Top
 62
256
370
-1
  6
ByLayer
 10
109.7210035897514047
 20
105.0844837350902026
 30
0.0
 11
109.5330650655941156
 21
105.1528877637553308
 31
0.0
  0
LINE
  5
83
100
AcDbEntity
100
AcDbLine
  8
Top
 62
256
370
-1
  6
ByLayer
 10
111.7731244497053922
 20
110.7226394598056487
 30
0.0
 11
109.7210035897514047
 21
105.0844837350902026
 31
0.0
  0
ARC
  5
84
100
AcDbEntity
  8
Top
 62
256
370
-1
  6
ByLayer
100
AcDbCircle
 10
82.8306098241439628
 20
63.3655824656345956
 30
0.0
 40
0.599999999999996
100
AcDbArc
 50
250.0000000000001137
 51
340.0000000000002842
  0
ARC
  5
85
100
AcDbEntity
  8
Top
 62
256
370
-1
  6
ByLayer
100
AcDbCircle
 10
75.3130688578566776
 20
66.1017436122399573
 30
0.0
 40
0.5999999999999983
100
AcDbArc
 50
159.9999999999998863
 51
250.0000000000001705
  0
ARC
  5
86
100
AcDbEntity
  8
Top
 62
256
370
-1
  6
ByLayer
100
AcDbCircle
 10
81.5129514043358654
 20
114.7128684337235711
 30
0.0
 40
0.600000000000012
100
AcDbArc
 50
340.0000000000014779
 51
69.9999999999995879
  0
ARC
  5
87
100
AcDbEntity
  8
Top
 62
256
370
-1
  6
ByLayer
100
AcDbCircle
 10
80.555295003024014
 20
112.0817290955230163
 30
0.0
 40
0.5999999999999749
100
AcDbArc
 50
249.99999999999838
 51
340.0000000000022737
  0
ARC
  5
88
100
AcDbEntity
  8
Top
 62
256
370
-1
  6
ByLayer
100
AcDbCircle
 10
79.1195006197439739
 20
110.4759599686117326
 30
0.0
 40
0.5999999999999921
100
AcDbArc
 50
249.9999999999991189
 51
340.0000000000009095
  0
ARC
  5
89
100
AcDbEntity
  8
Top
 62
256
370
-1
  6
ByLayer
100
AcDbCircle
 10
74.6089760399715942
 20
112.1176566565749511
 30
0.0
 40
0.5999999999999996
100
AcDbArc
 50
160.0000000000001137
 51
249.9999999999993179
  0
ARC
  5
8A
100
AcDbEntity
  8
Top
 62
256
370
-1
  6
ByLayer
100
AcDbCircle
 10
74.5412622299942029
 20
114.270658012807317
 30
0.0
 40
0.5999999999999986
100
AcDbArc
 50
160.0000000000001137
 51
249.9999999999993179
  0
ARC
  5
8B
100
AcDbEntity
  8
Top
 62
256
370
-1
  6
ByLayer
100
AcDbCircle
 10
75.4989186313060827
 20
116.9017973510078576
 30
0.0
 40
0.6000000000000139
100
AcDbArc
 50
70.0000000000007105
 51
159.9999999999988063
  0
ARC
  5
8C
100
AcDbEntity
  8
Top
 62
256
370
-1
  6
ByLayer
100
AcDbCircle
 10
64.6299493424355944
 20
64.1965548071676437
 30
0.0
 40
0.5999999999999984
100
AcDbArc
 50
180.0
 51
270.0000000000007958
  0
ARC
  5
8D
100
AcDbEntity
  8
Top
 62
256
370
-1
  6
ByLayer
100
AcDbCircle
 10
64.6299493424356228
 20
66.9965548071676551
 30
0.0
 40
0.6000000000000006
100
AcDbArc
 50
90.0000000000017053
 51
180.0
  0
ARC
  5
8E
100
AcDbEntity
  8
Top
 62
256
370
-1
  6
ByLayer
100
AcDbCircle
 10
65.4299493424356342
 20
68.9965548071676835
 30
0.0
 40
0.6000000000000028
100
AcDbArc
 50
90.0
 51
180.0
  0
ARC
  5
8F
100
AcDbEntity
  8
Top
 62
256
370
-1
  6
ByLayer
100
AcDbCircle
 10
70.2299493424355887
 20
68.9965548071676409
 30
0.0
 40
0.6000000000000028
100
AcDbArc
 50
0.0
 51
89.9999999999991616
  0
ARC
  5
90
100
AcDbEntity
  8
Top
 62
256
370
-1
  6
ByLayer
100
AcDbCircle
 10
71.0299493424356001
 20
66.9965548071676693
 30
0.0
 40
0.5999999999999939
100
AcDbArc
 50
0.0
 51
90.0
  0
ARC
  5
91
100
AcDbEntity
  8
Top
 62
256
370
-1
  6
ByLayer
100
AcDbCircle
 10
71.0299493424356569
 20
64.1965548071676437
 30
0.0
 40
0.5999999999999984
100
AcDbArc
 50
269.9999999999992042
 51
0.0
  0
ARC
  5
92
100
AcDbEntity
  8
Top
 62
256
370
-1
  6
ByLayer
100
AcDbCircle
 10
96.6299493424355802
 20
64.1965548071676579
 30
0.0
 40
0.5999999999999984
100
AcDbArc
 50
180.0
 51
270.0000000000017053
  0
ARC
  5
93
100
AcDbEntity
  8
Top
 62
256
370
-1
  6
ByLayer
100
AcDbCircle
 10
96.6299493424356513
 20
66.9965548071676551
 30
0.0
 40
0.6000000000000006
100
AcDbArc
 50
90.0000000000017053
 51
180.0
  0
ARC
  5
94
100
AcDbEntity
  8
Top
 62
256
370
-1
  6
ByLayer
100
AcDbCircle
 10
97.4299493424356342
 20
68.9965548071676693
 30
0.0
 40
0.6000000000000028
100
AcDbArc
 50
90.0
 51
180.0
  0
ARC
  5
95
100
AcDbEntity
  8
Top
 62
256
370
-1
  6
ByLayer
100
AcDbCircle
 10
102.2299493424356172
 20
68.9965548071676267
 30
0.0
 40
0.6000000000000028
100
AcDbArc
 50
0.0
 51
89.9999999999983089
  0
ARC
  5
96
100
AcDbEntity
  8
Top
 62
256
370
-1
  6
ByLayer
100
AcDbCircle
 10
103.0299493424356285
 20
66.9965548071676835
 30
0.0
 40
0.5999999999999939
100
AcDbArc
 50
0.0
 51
90.0
  0
ARC
  5
97
100
AcDbEntity
  8
Top
 62
256
370
-1
  6
ByLayer
100
AcDbCircle
 10
103.0299493424355717
 20
64.1965548071676295
 30
0.0
 40
0.5999999999999984
100
AcDbArc
 50
269.9999999999982947
 51
0.0
  0
ARC
  5
98
100
AcDbEntity
  8
Top
 62
256
370
-1
  6
ByLayer
100
AcDbCircle
 10
115.341885752628599
 20
102.4001432739995039
 30
0.0
 40
0.5999999999999881
100
AcDbArc
 50
339.9999999999998863
 51
70.0000000000014353
  0
ARC
  5
99
100
AcDbEntity
  8
Top
 62
256
370
-1
  6
ByLayer
100
AcDbCircle
 10
114.3842293513166908
 20
99.7690039357989633
 30
0.0
 40
0.5999999999999842
100
AcDbArc
 50
249.9999999999978968
 51
340.0000000000001137
  0
ARC
  5
9A
100
AcDbEntity
  8
Top
 62
256
370
-1
  6
ByLayer
100
AcDbCircle
 10
112.9484349680365938
 20
98.1632348088876654
 30
0.0
 40
0.6000000000000063
100
AcDbArc
 50
250.0000000000003695
 51
339.9999999999996021
  0
ARC
  5
9B
100
AcDbEntity
  8
Top
 62
256
370
-1
  6
ByLayer
100
AcDbCircle
 10
108.4379103882642994
 20
99.8049314968508838
 30
0.0
 40
0.5999999999999976
100
AcDbArc
 50
160.0000000000011937
 51
250.0000000000003695
  0
ARC
  5
9C
100
AcDbEntity
  8
Top
 62
256
370
-1
  6
ByLayer
100
AcDbCircle
 10
108.3701965782869081
 20
101.9579328530832356
 30
0.0
 40
0.5999999999999954
100
AcDbArc
 50
159.9999999999990052
 51
250.0000000000001137
  0
ARC
  5
9D
100
AcDbEntity
  8
Top
 62
256
370
-1
  6
ByLayer
100
AcDbCircle
 10
109.3278529795988163
 20
104.589072191283762
 30
0.0
 40
0.6000000000000253
100
AcDbArc
 50
70.0000000000028848
 51
159.9999999999994031
  0
ARC
  5
9E
100
AcDbEntity
  8
Top
 62
256
370
-1
  6
ByLayer
100
AcDbCircle
 10
148.8299493424350146
 20
66.3452090811117756
 30
0.0
 40
89.9999999999993463
100
AcDbArc
 50
159.9999999999998863
 51
180.0
  0
ARC
  5
9F
100
AcDbEntity
  8
Top
 62
256
370
-1
  6
ByLayer
100
AcDbCircle
 10
198.8299493424352704
 20
57.5288600456884183
 30
0.0
 40
89.9999999999996447
100
AcDbArc
 50
159.9999999999998863
 51
180.0
  0
LINE
  5
A0
100
AcDbEntity
100
AcDbLine
  8
Top
 62
256
370
-1
  6
ByLayer
 10
121.1700506575643885
 20
107.3024380265489555
 30
0.0
 11
114.2576134717037917
 21
88.3106729449985011
 31
0.0
  0
LINE
  5
A1
100
AcDbEntity
100
AcDbLine
  8
Notes
 62
256
370
-1
  6
ByLayer
 10
101.8733250154096339
 20
69.5965548071675926
 30
0.0
 11
102.2299493424356172
 21
69.596554807167621
 31
0.0
  0
CIRCLE
  5
A2
100
AcDbEntity
100
AcDbCircle
  8
Bottom
 62
256
370
-1
  6
ByLayer
 10
78.4520436762430791
 20
106.8878544477870776
 30
0.0
 40
1.425
  0
CIRCLE
  5
A3
100
AcDbEntity
100
AcDbCircle
  8
Bottom
 62
256
370
-1
  6
ByLayer
 10
106.6428222998203523
 20
96.6272501480170121
 30
0.0
 40
1.425
  0
CIRCLE
  5
A4
100
AcDbEntity
100
AcDbCircle
  8
Bottom
 62
256
370
-1
  6
ByLayer
 10
75.8299493424356399
 20
62.5965548071676636
 30
0.0
 40
1.425
  0
CIRCLE
  5
A5
100
AcDbEntity
100
AcDbCircle
  8
Bottom
 62
256
370
-1
  6
ByLayer
 10
91.829949342435583
 20
62.5965548071676423
 30
0.0
 40
1.425
  0
CIRCLE
  5
A6
100
AcDbEntity
100
AcDbCircle
  8
Bottom
 62
256
370
-1
  6
ByLayer
 10
75.8299493424356399
 20
84.5965548071676494
 30
0.0
 40
1.425
  0
LINE
  5
A7
100
AcDbEntity
100
AcDbLine
  8
Bottom
 62
256
370
-1
  6
ByLayer
 10
75.1078567718613499
 20
65.5379280397684028
 30
0.0
 11
82.625397738148564
 21
62.8017668931630482
 31
0.0
  0
LINE
  5
A8
100
AcDbEntity
100
AcDbLine
  8
Bottom
 62
256
370
-1
  6
ByLayer
 10
81.7181634903312784
 20
115.2766840061951257
 30
0.0
 11
81.530224966174103
 21
115.3450880348602539
 31
0.0
  0
LINE
  5
A9
100
AcDbEntity
100
AcDbLine
  8
Bottom
 62
256
370
-1
  6
ByLayer
 10
81.1191105754955402
 20
111.876517009527646
 30
0.0
 11
82.07676697680742
 21
114.5076563477281866
 31
0.0
  0
LINE
  5
AA
100
AcDbEntity
100
AcDbLine
  8
Bottom
 62
256
370
-1
  6
ByLayer
 10
80.1621443928714257
 20
111.5863175517166326
 30
0.0
 11
80.3500829170286011
 21
111.5179135230514902
 31
0.0
  0
LINE
  5
AB
100
AcDbEntity
100
AcDbLine
  8
Bottom
 62
256
370
-1
  6
ByLayer
 10
79.6833161922155
 20
110.2707478826163481
 30
0.0
 11
80.1621443928714257
 21
111.5863175517166326
 31
0.0
  0
LINE
  5
AC
100
AcDbEntity
100
AcDbLine
  8
Bottom
 62
256
370
-1
  6
ByLayer
 10
74.4037639539762097
 20
111.5538410841034249
 30
0.0
 11
78.9142885337485325
 21
109.9121443961402207
 31
0.0
  0
LINE
  5
AD
100
AcDbEntity
100
AcDbLine
  8
Bottom
 62
256
370
-1
  6
ByLayer
 10
74.5239886681559938
 20
113.6384384116706485
 30
0.0
 11
74.0451604675000681
 21
112.322868742570364
 31
0.0
  0
LINE
  5
AE
100
AcDbEntity
100
AcDbLine
  8
Bottom
 62
256
370
-1
  6
ByLayer
 10
74.33605014399879
 20
113.7068424403357767
 30
0.0
 11
74.5239886681559938
 21
113.6384384116706485
 31
0.0
  0
LINE
  5
AF
100
AcDbEntity
100
AcDbLine
  8
Bottom
 62
256
370
-1
  6
ByLayer
 10
74.9351030588345282
 20
117.1070094370032706
 30
0.0
 11
73.9774466575226484
 21
114.4758700988027158
 31
0.0
  0
LINE
  5
B0
100
AcDbEntity
100
AcDbLine
  8
Bottom
 62
256
370
-1
  6
ByLayer
 10
75.8920692414586426
 20
117.3972088948142698
 30
0.0
 11
75.7041307173014673
 21
117.4656129234794122
 31
0.0
  0
LINE
  5
B1
100
AcDbEntity
100
AcDbLine
  8
Bottom
 62
256
370
-1
  6
ByLayer
 10
64.2576134717038769
 20
97.1270219804217874
 30
0.0
 11
74.1854196182690373
 21
124.4034451928324074
 31
0.0
  0
LINE
  5
B2
100
AcDbEntity
100
AcDbLine
  8
Bottom
 62
256
370
-1
  6
ByLayer
 10
58.8299493424356044
 20
55.5965548071676636
 30
0.0
 11
58.8299493424356399
 21
66.3452090811115909
 31
0.0
  0
LINE
  5
B3
100
AcDbEntity
100
AcDbLine
  8
Bottom
 62
256
370
-1
  6
ByLayer
 10
64.6299493424356228
 20
63.5965548071676636
 30
0.0
 11
64.8299493424355973
 21
63.5965548071676778
 31
0.0
  0
LINE
  5
B4
100
AcDbEntity
100
AcDbLine
  8
Bottom
 62
256
370
-1
  6
ByLayer
 10
64.0299493424356001
 20
66.9965548071676693
 30
0.0
 11
64.0299493424356001
 21
64.1965548071676722
 31
0.0
  0
LINE
  5
B5
100
AcDbEntity
100
AcDbLine
  8
Bottom
 62
256
370
-1
  6
ByLayer
 10
64.8299493424356115
 20
67.5965548071676778
 30
0.0
 11
64.6299493424355944
 21
67.5965548071676778
 31
0.0
  0
LINE
  5
B6
100
AcDbEntity
100
AcDbLine
  8
Bottom
 62
256
370
-1
  6
ByLayer
 10
64.8299493424355973
 20
68.9965548071676551
 30
0.0
 11
64.8299493424356115
 21
67.5965548071676778
 31
0.0
  0
LINE
  5
B7
100
AcDbEntity
100
AcDbLine
  8
Bottom
 62
256
370
-1
  6
ByLayer
 10
70.2299493424356172
 20
69.5965548071676494
 30
0.0
 11
65.4299493424356342
 21
69.5965548071676778
 31
0.0
  0
LINE
  5
B8
100
AcDbEntity
100
AcDbLine
  8
Bottom
 62
256
370
-1
  6
ByLayer
 10
70.8299493424356115
 20
67.5965548071676778
 30
0.0
 11
70.8299493424356115
 21
68.9965548071676409
 31
0.0
  0
LINE
  5
B9
100
AcDbEntity
100
AcDbLine
  8
Bottom
 62
256
370
-1
  6
ByLayer
 10
71.0299493424356285
 20
67.5965548071676778
 30
0.0
 11
70.8299493424356115
 21
67.5965548071676778
 31
0.0
  0
LINE
  5
BA
100
AcDbEntity
100
AcDbLine
  8
Bottom
 62
256
370
-1
  6
ByLayer
 10
71.6299493424356513
 20
64.1965548071676579
 30
0.0
 11
71.6299493424356228
 21
66.9965548071676551
 31
0.0
  0
LINE
  5
BB
100
AcDbEntity
100
AcDbLine
  8
Bottom
 62
256
370
-1
  6
ByLayer
 10
70.8299493424356115
 20
63.5965548071676423
 30
0.0
 11
71.0299493424356001
 21
63.5965548071676494
 31
0.0
  0
LINE
  5
BC
100
AcDbEntity
100
AcDbLine
  8
Bottom
 62
256
370
-1
  6
ByLayer
 10
96.6299493424356228
 20
63.5965548071676494
 30
0.0
 11
96.8299493424356399
 21
63.5965548071676636
 31
0.0
  0
LINE
  5
BD
100
AcDbEntity
100
AcDbLine
  8
Bottom
 62
256
370
-1
  6
ByLayer
 10
96.0299493424356143
 20
66.9965548071676551
 30
0.0
 11
96.0299493424356143
 21
64.1965548071676579
 31
0.0
  0
LINE
  5
BE
100
AcDbEntity
100
AcDbLine
  8
Bottom
 62
256
370
-1
  6
ByLayer
 10
96.8299493424356399
 20
67.5965548071676778
 30
0.0
 11
96.6299493424356228
 21
67.5965548071676494
 31
0.0
  0
LINE
  5
BF
100
AcDbEntity
100
AcDbLine
  8
Bottom
 62
256
370
-1
  6
ByLayer
 10
96.8299493424356257
 20
68.9965548071676409
 30
0.0
 11
96.8299493424356399
 21
67.5965548071676778
 31
0.0
  0
LINE
  5
C0
100
AcDbEntity
100
AcDbLine
  8
Bottom
 62
256
370
-1
  6
ByLayer
 10
102.8299493424356115
 20
67.5965548071676636
 30
0.0
 11
102.8299493424356115
 21
68.9965548071676125
 31
0.0
  0
LINE
  5
C1
100
AcDbEntity
100
AcDbLine
  8
Bottom
 62
256
370
-1
  6
ByLayer
 10
103.0299493424356285
 20
67.5965548071676494
 30
0.0
 11
102.8299493424356115
 21
67.5965548071676636
 31
0.0
  0
LINE
  5
C2
100
AcDbEntity
100
AcDbLine
  8
Bottom
 62
256
370
-1
  6
ByLayer
 10
103.6299493424356228
 20
64.1965548071676437
 30
0.0
 11
103.6299493424356228
 21
66.9965548071676693
 31
0.0
  0
LINE
  5
C3
100
AcDbEntity
100
AcDbLine
  8
Bottom
 62
256
370
-1
  6
ByLayer
 10
102.8299493424356115
 20
63.5965548071676636
 30
0.0
 11
103.0299493424355859
 21
63.5965548071676352
 31
0.0
  0
LINE
  5
C4
100
AcDbEntity
100
AcDbLine
  8
Bottom
 62
256
370
-1
  6
ByLayer
 10
108.8299493424356115
 20
57.5288600456883898
 30
0.0
 11
108.8299493424355973
 21
55.5965548071676139
 31
0.0
  0
LINE
  5
C5
100
AcDbEntity
100
AcDbLine
  8
Bottom
 62
256
370
-1
  6
ByLayer
 10
121.1700506575643885
 20
107.3024380265489697
 30
0.0
 11
114.2576134717037917
 21
88.3106729449985011
 31
0.0
  0
LINE
  5
C6
100
AcDbEntity
100
AcDbLine
  8
Bottom
 62
256
370
-1
  6
ByLayer
 10
115.547097838624012
 20
102.9639588464710585
 30
0.0
 11
115.3591593144668082
 21
103.0323628751361866
 31
0.0
  0
LINE
  5
C7
100
AcDbEntity
100
AcDbLine
  8
Bottom
 62
256
370
-1
  6
ByLayer
 10
114.9480449237881885
 20
99.5637918498035503
 30
0.0
 11
115.9057013251000967
 21
102.1949311880041193
 31
0.0
  0
LINE
  5
C8
100
AcDbEntity
100
AcDbLine
  8
Bottom
 62
256
370
-1
  6
ByLayer
 10
113.9910787411641024
 20
99.2735923919925654
 30
0.0
 11
114.1790172653213062
 21
99.205188363327423
 31
0.0
  0
LINE
  5
C9
100
AcDbEntity
100
AcDbLine
  8
Bottom
 62
256
370
-1
  6
ByLayer
 10
113.5122505405080915
 20
97.9580227228922809
 30
0.0
 11
113.9910787411641024
 21
99.2735923919925654
 31
0.0
  0
LINE
  5
CA
100
AcDbEntity
100
AcDbLine
  8
Bottom
 62
256
370
-1
  6
ByLayer
 10
108.2326983022688864
 20
99.2411159243793577
 30
0.0
 11
112.7432228820412092
 21
97.5994192364161393
 31
0.0
  0
LINE
  5
CB
100
AcDbEntity
100
AcDbLine
  8
Bottom
 62
256
370
-1
  6
ByLayer
 10
108.3529230164486989
 20
101.3257132519465529
 30
0.0
 11
107.8740948157927164
 21
100.0101435828462826
 31
0.0
  0
LINE
  5
CC
100
AcDbEntity
100
AcDbLine
  8
Bottom
 62
256
370
-1
  6
ByLayer
 10
108.1649844922915236
 20
101.3941172806116953
 30
0.0
 11
108.3529230164486989
 21
101.3257132519465529
 31
0.0
  0
LINE
  5
CD
100
AcDbEntity
100
AcDbLine
  8
Bottom
 62
256
370
-1
  6
ByLayer
 10
108.7640374071272618
 20
104.7942842772791892
 30
0.0
 11
107.806381005815382
 21
102.1631449390786486
 31
0.0
  0
LINE
  5
CE
100
AcDbEntity
100
AcDbLine
  8
Bottom
 62
256
370
-1
  6
ByLayer
 10
109.7210035897514047
 20
105.0844837350902026
 30
0.0
 11
109.5330650655940872
 21
105.1528877637553308
 31
0.0
  0
ARC
  5
CF
100
AcDbEntity
  8
Bottom
 62
256
370
-1
  6
ByLayer
100
AcDbCircle
 10
82.8306098241439912
 20
63.3655824656345885
 30
0.0
 40
0.599999999999996
100
AcDbArc
 50
250.0000000000001137
 51
340.0000000000002842
  0
ARC
  5
D0
100
AcDbEntity
  8
Bottom
 62
256
370
-1
  6
ByLayer
100
AcDbCircle
 10
75.3130688578567344
 20
66.1017436122399573
 30
0.0
 40
0.5999999999999983
100
AcDbArc
 50
159.9999999999998863
 51
250.0000000000001705
  0
ARC
  5
D1
100
AcDbEntity
  8
Bottom
 62
256
370
-1
  6
ByLayer
100
AcDbCircle
 10
81.5129514043358654
 20
114.7128684337235711
 30
0.0
 40
0.600000000000012
100
AcDbArc
 50
340.0000000000014779
 51
69.9999999999995879
  0
ARC
  5
D2
100
AcDbEntity
  8
Bottom
 62
256
370
-1
  6
ByLayer
100
AcDbCircle
 10
80.555295003024014
 20
112.0817290955230163
 30
0.0
 40
0.5999999999999749
100
AcDbArc
 50
249.99999999999838
 51
340.0000000000022737
  0
ARC
  5
D3
100
AcDbEntity
  8
Bottom
 62
256
370
-1
  6
ByLayer
100
AcDbCircle
 10
79.1195006197439739
 20
110.4759599686117326
 30
0.0
 40
0.5999999999999921
100
AcDbArc
 50
249.9999999999991189
 51
340.0000000000009095
  0
ARC
  5
D4
100
AcDbEntity
  8
Bottom
 62
256
370
-1
  6
ByLayer
100
AcDbCircle
 10
74.6089760399715942
 20
112.1176566565749511
 30
0.0
 40
0.5999999999999996
100
AcDbArc
 50
160.0000000000001137
 51
249.9999999999993179
  0
ARC
  5
D5
100
AcDbEntity
  8
Bottom
 62
256
370
-1
  6
ByLayer
100
AcDbCircle
 10
74.5412622299942029
 20
114.270658012807317
 30
0.0
 40
0.5999999999999986
100
AcDbArc
 50
160.0000000000001137
 51
249.9999999999993179
  0
ARC
  5
D6
100
AcDbEntity
  8
Bottom
 62
256
370
-1
  6
ByLayer
100
AcDbCircle
 10
75.4989186313060827
 20
116.9017973510078576
 30
0.0
 40
0.6000000000000139
100
AcDbArc
 50
70.0000000000007105
 51
159.9999999999988063
  0
ARC
  5
D7
100
AcDbEntity
  8
Bottom
 62
256
370
-1
  6
ByLayer
100
AcDbCircle
 10
64.6299493424355944
 20
64.1965548071676722
 30
0.0
 40
0.5999999999999984
100
AcDbArc
 50
180.0
 51
270.0000000000007958
  0
ARC
  5
D8
100
AcDbEntity
  8
Bottom
 62
256
370
-1
  6
ByLayer
100
AcDbCircle
 10
64.6299493424356228
 20
66.9965548071676835
 30
0.0
 40
0.6000000000000006
100
AcDbArc
 50
90.0000000000017053
 51
180.0
  0
ARC
  5
D9
100
AcDbEntity
  8
Bottom
 62
256
370
-1
  6
ByLayer
100
AcDbCircle
 10
65.4299493424356342
 20
68.9965548071676835
 30
0.0
 40
0.6000000000000028
100
AcDbArc
 50
90.0
 51
180.0
  0
ARC
  5
DA
100
AcDbEntity
  8
Bottom
 62
256
370
-1
  6
ByLayer
100
AcDbCircle
 10
70.2299493424356172
 20
68.9965548071676267
 30
0.0
 40
0.6000000000000028
100
AcDbArc
 50
0.0
 51
89.9999999999991616
  0
ARC
  5
DB
100
AcDbEntity
  8
Bottom
 62
256
370
-1
  6
ByLayer
100
AcDbCircle
 10
71.0299493424356001
 20
66.9965548071676835
 30
0.0
 40
0.5999999999999939
100
AcDbArc
 50
0.0
 51
90.0
  0
ARC
  5
DC
100
AcDbEntity
  8
Bottom
 62
256
370
-1
  6
ByLayer
100
AcDbCircle
 10
71.0299493424356285
 20
64.1965548071676579
 30
0.0
 40
0.5999999999999984
100
AcDbArc
 50
269.9999999999992042
 51
0.0
  0
ARC
  5
DD
100
AcDbEntity
  8
Bottom
 62
256
370
-1
  6
ByLayer
100
AcDbCircle
 10
96.6299493424356086
 20
64.1965548071676437
 30
0.0
 40
0.5999999999999984
100
AcDbArc
 50
180.0
 51
270.0000000000017053
  0
ARC
  5
DE
100
AcDbEntity
  8
Bottom
 62
256
370
-1
  6
ByLayer
100
AcDbCircle
 10
96.6299493424356086
 20
66.9965548071676551
 30
0.0
 40
0.6000000000000006
100
AcDbArc
 50
90.0000000000017053
 51
180.0
  0
ARC
  5
DF
100
AcDbEntity
  8
Bottom
 62
256
370
-1
  6
ByLayer
100
AcDbCircle
 10
97.4299493424355916
 20
68.9965548071676551
 30
0.0
 40
0.6000000000000028
100
AcDbArc
 50
90.0
 51
180.0
  0
ARC
  5
E0
100
AcDbEntity
  8
Bottom
 62
256
370
-1
  6
ByLayer
100
AcDbCircle
 10
102.2299493424356172
 20
68.9965548071676267
 30
0.0
 40
0.6000000000000028
100
AcDbArc
 50
0.0
 51
89.9999999999983089
  0
ARC
  5
E1
100
AcDbEntity
  8
Bottom
 62
256
370
-1
  6
ByLayer
100
AcDbCircle
 10
103.0299493424355859
 20
66.9965548071676551
 30
0.0
 40
0.5999999999999939
100
AcDbArc
 50
0.0
 51
90.0
  0
ARC
  5
E2
100
AcDbEntity
  8
Bottom
 62
256
370
-1
  6
ByLayer
100
AcDbCircle
 10
103.0299493424356143
 20
64.1965548071676437
 30
0.0
 40
0.5999999999999984
100
AcDbArc
 50
269.9999999999982947
 51
0.0
  0
ARC
  5
E3
100
AcDbEntity
  8
Bottom
 62
256
370
-1
  6
ByLayer
100
AcDbCircle
 10
115.3418857526286274
 20
102.4001432739995181
 30
0.0
 40
0.5999999999999881
100
AcDbArc
 50
339.9999999999998863
 51
70.0000000000014353
  0
ARC
  5
E4
100
AcDbEntity
  8
Bottom
 62
256
370
-1
  6
ByLayer
100
AcDbCircle
 10
114.3842293513167192
 20
99.7690039357989491
 30
0.0
 40
0.5999999999999842
100
AcDbArc
 50
249.9999999999978968
 51
340.0000000000001137
  0
ARC
  5
E5
100
AcDbEntity
  8
Bottom
 62
256
370
-1
  6
ByLayer
100
AcDbCircle
 10
112.9484349680366222
 20
98.1632348088876938
 30
0.0
 40
0.6000000000000063
100
AcDbArc
 50
250.0000000000003695
 51
339.9999999999996021
  0
ARC
  5
E6
100
AcDbEntity
  8
Bottom
 62
256
370
-1
  6
ByLayer
100
AcDbCircle
 10
108.4379103882642994
 20
99.804931496850898
 30
0.0
 40
0.5999999999999976
100
AcDbArc
 50
160.0000000000011937
 51
250.0000000000003695
  0
ARC
  5
E7
100
AcDbEntity
  8
Bottom
 62
256
370
-1
  6
ByLayer
100
AcDbCircle
 10
108.3701965782869081
 20
101.9579328530832498
 30
0.0
 40
0.5999999999999954
100
AcDbArc
 50
159.9999999999990052
 51
250.0000000000001137
  0
ARC
  5
E8
100
AcDbEntity
  8
Bottom
 62
256
370
-1
  6
ByLayer
100
AcDbCircle
 10
109.3278529795987879
 20
104.589072191283762
 30
0.0
 40
0.6000000000000253
100
AcDbArc
 50
70.0000000000028848
 51
159.9999999999994031
  0
ARC
  5
E9
100
AcDbEntity
  8
Bottom
 62
256
370
-1
  6
ByLayer
100
AcDbCircle
 10
148.8299493424350146
 20
66.3452090811117756
 30
0.0
 40
89.9999999999993463
100
AcDbArc
 50
159.9999999999998863
 51
180.0
  0
ARC
  5
EA
100
AcDbEntity
  8
Bottom
 62
256
370
-1
  6
ByLayer
100
AcDbCircle
 10
198.8299493424353273
 20
57.5288600456884041
 30
0.0
 40
89.9999999999996447
100
AcDbArc
 50
159.9999999999998863
 51
180.0
  0
LINE
  5
EB
100
AcDbEntity
100
AcDbLine
  8
Bottom
 62
256
370
-1
  6
ByLayer
 10
115.3591593144668082
 20
103.0323628751361866
 30
0.0
 11
109.7210035897514047
 21
105.0844837350902026
 31
0.0
  0
LINE
  5
EC
100
AcDbEntity
100
AcDbLine
  8
Bottom
 62
256
370
-1
  6
ByLayer
 10
75.8920692414586426
 20
117.3972088948142698
 30
0.0
 11
81.530224966174103
 21
115.3450880348602539
 31
0.0
  0
LINE
  5
ED
100
AcDbEntity
100
AcDbLine
  8
Bottom
 62
256
370
-1
  6
ByLayer
 10
70.8299493424356115
 20
63.5965548071676423
 30
0.0
 11
64.8299493424355973
 21
63.5965548071676778
 31
0.0
  0
LINE
  5
EE
100
AcDbEntity
100
AcDbLine
  8
Bottom
 62
256
370
-1
  6
ByLayer
 10
102.8299493424356115
 20
63.5965548071676636
 30
0.0
 11
96.8299493424356399
 21
63.5965548071676636
 31
0.0
  0
LINE
  5
EF
100
AcDbEntity
100
AcDbLine
  8
Bottom
 62
256
370
-1
  6
ByLayer
 10
102.2299493424356172
 20
69.596554807167621
 30
0.0
 11
101.8733250154096766
 21
69.5965548071676068
 31
0.0
  0
MTEXT
  5
F0
100
AcDbEntity
100
AcDbMText
  8
Top Text
 62
256
370
-1
  6
ByLayer
 10
68.1288010517438067
 20
98.2807888876745892
 30
0.0
 40
2.0
 41
100.0
 71
1
 72
2
  1
Main\~Plate\PTop
  7
standard
 50
0.0
 73
1
 44
1.0
  0
MTEXT
  5
F1
100
AcDbEntity
100
AcDbMText
  8
Bottom Text
 62
256
370
-1
  6
ByLayer
 10
68.1288010517438067
 20
98.2807888876745892
 30
0.0
 40
2.0
 41
100.0
 71
1
 72
2
  1
Main\~Plate\PBottom
  7
standard
 50
0.0
 73
1
 44
1.0
  0
LINE
  5
F2
100
AcDbEntity
100
AcDbLine
  8
Drawings
 62
256
370
-1
  6
ByLayer
 10
97.6777351379166987
 20
115.8529416096906459
 30
0.0
 11
79.0718393410003557
 21
64.7336630389372942
 31
0.0
  0
LINE
  5
F3
100
AcDbEntity
100
AcDbLine
  8
Bottom
 62
256
370
-1
  6
ByLayer
 10
90.0662249095508685
 20
118.6233047706285788
 30
0.0
 11
85.6199630463171673
 21
106.407300700411767
 31
0.0
  0
LINE
  5
F4
100
AcDbEntity
100
AcDbLine
  8
Bottom
 62
256
370
-1
  6
ByLayer
 10
105.2892453662825858
 20
113.0825784487527557
 30
0.0
 11
100.8429835030488846
 21
100.8665743785359439
 31
0.0
  0
LINE
  5
F5
100
AcDbEntity
100
AcDbLine
  8
Bottom
 62
256
370
-1
  6
ByLayer
 10
85.6199630463171673
 20
106.407300700411767
 30
0.0
 11
88.9088872190678501
 21
105.2102301987719244
 31
0.0
  0
LINE
  5
F6
100
AcDbEntity
100
AcDbLine
  8
Bottom
 62
256
370
-1
  6
ByLayer
 10
97.5540593302982018
 20
102.0636448801757723
 30
0.0
 11
100.8429835030488846
 21
100.8665743785359439
 31
0.0
  0
LINE
  5
F7
100
AcDbEntity
100
AcDbLine
  8
Bottom
 62
256
370
-1
  6
ByLayer
 10
74.1854196182690373
 20
124.4034451928324074
 30
0.0
 11
90.0662249095508685
 21
118.6233047706285788
 31
0.0
  0
LINE
  5
F8
100
AcDbEntity
100
AcDbLine
  8
Bottom
 62
256
370
-1
  6
ByLayer
 10
105.2892453662825858
 20
113.0825784487527557
 30
0.0
 11
121.1700506575643885
 21
107.3024380265489697
 31
0.0
  0
LINE
  5
F9
100
AcDbEntity
100
AcDbLine
  8
Top
 62
256
370
-1
  6
ByLayer
 10
88.9088872190678217
 20
105.2102301987719244
 30
0.0
 11
74.7492532853851657
 21
66.3069556982353703
 31
0.0
  0
LINE
  5
FA
100
AcDbEntity
100
AcDbLine
  8
Top
 62
256
370
-1
  6
ByLayer
 10
88.9088872190678501
 20
105.2102301987719244
 30
0.0
 11
85.6199630463171673
 21
106.407300700411767
 31
0.0
  0
LINE
  5
FB
100
AcDbEntity
100
AcDbLine
  8
Top
 62
256
370
-1
  6
ByLayer
 10
85.6199630463171673
 20
106.407300700411767
 30
0.0
 11
90.0662249095508685
 21
118.6233047706285788
 31
0.0
  0
LINE
  5
FC
100
AcDbEntity
100
AcDbLine
  8
Top
 62
256
370
-1
  6
ByLayer
 10
90.0662249095508685
 20
118.6233047706285788
 30
0.0
 11
83.5823458261280905
 21
120.9832437595757
 31
0.0
  0
LINE
  5
FD
100
AcDbEntity
100
AcDbLine
  8
Top
 62
256
370
-1
  6
ByLayer
 10
97.5540593302982018
 20
102.0636448801757723
 30
0.0
 11
100.8429835030488846
 21
100.8665743785359439
 31
0.0
  0
LINE
  5
FE
100
AcDbEntity
100
AcDbLine
  8
Top
 62
256
370
-1
  6
ByLayer
 10
100.8429835030488846
 20
100.8665743785359439
 30
0.0
 11
105.2892453662825858
 21
113.0825784487527557
 31
0.0
  0
LINE
  5
FF
100
AcDbEntity
100
AcDbLine
  8
Top
 62
256
370
-1
  6
ByLayer
 10
105.2892453662825858
 20
113.0825784487527557
 30
0.0
 11
111.7731244497053922
 21
110.7226394598056345
 31
0.0
  0
LINE
  5
100
100
AcDbEntity
100
AcDbLine
  8
Top
 62
256
370
-1
  6
ByLayer
 10
117.4112801744207957
 20
108.6705185998516185
 30
0.0
 11
121.1700506575643885
 21
107.3024380265489555
 31
0.0
  0
LINE
  5
101
100
AcDbEntity
100
AcDbLine
  8
Top
 62
256
370
-1
  6
ByLayer
 10
74.1854196182690373
 20
124.4034451928324074
 30
0.0
 11
77.9441901014126586
 21
123.0353646195297443
 31
0.0
  0
LINE
  5
102
100
AcDbEntity
100
AcDbLine
  8
Bottom
 62
256
370
-1
  6
ByLayer
 10
97.4299493424356058
 20
69.5965548071676494
 30
0.0
 11
101.8733250154096766
 21
69.5965548071676068
 31
0.0
  0
LINE
  5
103
100
AcDbEntity
100
AcDbLine
  8
Bottom
 62
256
370
-1
  6
ByLayer
 10
76.5313274441908504
 20
71.2031642093474915
 30
0.0
 11
74.7492532853851799
 21
66.3069556982353561
 31
0.0
  0
LINE
  5
104
100
AcDbEntity
100
AcDbLine
  8
Bottom
 62
256
370
-1
  6
ByLayer
 10
85.1764995554212021
 20
68.0565788907513252
 30
0.0
 11
83.3944253966155316
 21
63.1603703796391898
 31
0.0
  0
ARC
  5
105
100
AcDbEntity
  8
Bottom
 62
256
370
-1
  6
ByLayer
100
AcDbCircle
 10
83.0925130683737194
 20
75.7803733158900172
 30
0.0
 40
8.0
100
AcDbArc
 50
105.0996321953935251
 51
214.9003678046065886
  0
LINE
  5
106
100
AcDbEntity
100
AcDbLine
  8
Bottom
 62
256
370
-1
  6
ByLayer
 10
88.9088872190678501
 20
105.2102301987719244
 30
0.0
 11
81.0085265813262367
 21
83.5041677410287235
 31
0.0
  0
ARC
  5
107
100
AcDbEntity
  8
Bottom
 62
256
370
-1
  6
ByLayer
100
AcDbCircle
 10
83.0925130683737194
 20
75.7803733158900172
 30
0.0
 40
8.0
100
AcDbArc
 50
285.0996321953935535
 51
34.9003678046064039
  0
LINE
  5
108
100
AcDbEntity
100
AcDbLine
  8
Bottom
 62
256
370
-1
  6
ByLayer
 10
97.5540593302982018
 20
102.0636448801757723
 30
0.0
 11
89.6536986925565884
 21
80.357582422432543
 31
0.0
  0
CIRCLE
  5
109
100
AcDbEntity
100
AcDbCircle
  8
Middle
 62
256
370
-1
  6
ByLayer
 10
78.4520436762430791
 20
106.8878544477870776
 30
0.0
 40
1.425
  0
CIRCLE
  5
10A
100
AcDbEntity
100
AcDbCircle
  8
Middle
 62
256
370
-1
  6
ByLayer
 10
106.6428222998203239
 20
96.6272501480169979
 30
0.0
 40
1.425
  0
CIRCLE
  5
10B
100
AcDbEntity
100
AcDbCircle
  8
Middle
 62
256
370
-1
  6
ByLayer
 10
75.8299493424356683
 20
62.5965548071676565
 30
0.0
 40
1.425
  0
CIRCLE
  5
10C
100
AcDbEntity
100
AcDbCircle
  8
Middle
 62
256
370
-1
  6
ByLayer
 10
91.8299493424355546
 20
62.5965548071676494
 30
0.0
 40
1.425
  0
CIRCLE
  5
10D
100
AcDbEntity
100
AcDbCircle
  8
Middle
 62
256
370
-1
  6
ByLayer
 10
75.8299493424356115
 20
84.5965548071676636
 30
0.0
 40
1.425
  0
LINE
  5
10E
100
AcDbEntity
100
AcDbLine
  8
Middle
 62
256
370
-1
  6
ByLayer
 10
75.1078567718612931
 20
65.5379280397684028
 30
0.0
 11
82.625397738148564
 21
62.8017668931630482
 31
0.0
  0
LINE
  5
10F
100
AcDbEntity
100
AcDbLine
  8
Middle
 62
256
370
-1
  6
ByLayer
 10
81.7181634903312499
 20
115.2766840061951257
 30
0.0
 11
81.530224966174103
 21
115.3450880348602539
 31
0.0
  0
LINE
  5
110
100
AcDbEntity
100
AcDbLine
  8
Middle
 62
256
370
-1
  6
ByLayer
 10
81.1191105754955402
 20
111.876517009527646
 30
0.0
 11
82.07676697680742
 21
114.5076563477281866
 31
0.0
  0
LINE
  5
111
100
AcDbEntity
100
AcDbLine
  8
Middle
 62
256
370
-1
  6
ByLayer
 10
80.1621443928714257
 20
111.5863175517166326
 30
0.0
 11
80.3500829170286295
 21
111.5179135230515044
 31
0.0
  0
LINE
  5
112
100
AcDbEntity
100
AcDbLine
  8
Middle
 62
256
370
-1
  6
ByLayer
 10
79.6833161922154716
 20
110.2707478826163481
 30
0.0
 11
80.1621443928714257
 21
111.5863175517166326
 31
0.0
  0
LINE
  5
113
100
AcDbEntity
100
AcDbLine
  8
Middle
 62
256
370
-1
  6
ByLayer
 10
74.4037639539762097
 20
111.5538410841034249
 30
0.0
 11
78.9142885337485325
 21
109.9121443961402349
 31
0.0
  0
LINE
  5
114
100
AcDbEntity
100
AcDbLine
  8
Middle
 62
256
370
-1
  6
ByLayer
 10
74.5239886681559938
 20
113.6384384116706485
 30
0.0
 11
74.0451604675000681
 21
112.322868742570364
 31
0.0
  0
LINE
  5
115
100
AcDbEntity
100
AcDbLine
  8
Middle
 62
256
370
-1
  6
ByLayer
 10
74.33605014399879
 20
113.7068424403357767
 30
0.0
 11
74.5239886681559938
 21
113.6384384116706485
 31
0.0
  0
LINE
  5
116
100
AcDbEntity
100
AcDbLine
  8
Middle
 62
256
370
-1
  6
ByLayer
 10
74.9351030588345282
 20
117.1070094370032564
 30
0.0
 11
73.9774466575226484
 21
114.4758700988027158
 31
0.0
  0
LINE
  5
117
100
AcDbEntity
100
AcDbLine
  8
Middle
 62
256
370
-1
  6
ByLayer
 10
75.8920692414586426
 20
117.3972088948142698
 30
0.0
 11
75.7041307173014673
 21
117.465612923479398
 31
0.0
  0
LINE
  5
118
100
AcDbEntity
100
AcDbLine
  8
Middle
 62
256
370
-1
  6
ByLayer
 10
64.2576134717038769
 20
97.1270219804218016
 30
0.0
 11
74.1854196182690373
 21
124.4034451928324074
 31
0.0
  0
LINE
  5
119
100
AcDbEntity
100
AcDbLine
  8
Middle
 62
256
370
-1
  6
ByLayer
 10
58.8299493424356044
 20
55.596554807167692
 30
0.0
 11
58.8299493424356115
 21
66.3452090811116193
 31
0.0
  0
LINE
  5
11A
100
AcDbEntity
100
AcDbLine
  8
Middle
 62
256
370
-1
  6
ByLayer
 10
64.6299493424355802
 20
63.5965548071676992
 30
0.0
 11
64.8299493424355688
 21
63.596554807167692
 31
0.0
  0
LINE
  5
11B
100
AcDbEntity
100
AcDbLine
  8
Middle
 62
256
370
-1
  6
ByLayer
 10
64.0299493424355717
 20
66.9965548071676835
 30
0.0
 11
64.0299493424355717
 21
64.1965548071676722
 31
0.0
  0
LINE
  5
11C
100
AcDbEntity
100
AcDbLine
  8
Middle
 62
256
370
-1
  6
ByLayer
 10
64.8299493424356115
 20
67.5965548071676778
 30
0.0
 11
64.629949342435566
 21
67.5965548071677205
 31
0.0
  0
LINE
  5
11D
100
AcDbEntity
100
AcDbLine
  8
Middle
 62
256
370
-1
  6
ByLayer
 10
64.8299493424355973
 20
68.9965548071676551
 30
0.0
 11
64.8299493424356115
 21
67.5965548071676778
 31
0.0
  0
LINE
  5
11E
100
AcDbEntity
100
AcDbLine
  8
Middle
 62
256
370
-1
  6
ByLayer
 10
70.2299493424355887
 20
69.5965548071676494
 30
0.0
 11
65.4299493424356058
 21
69.5965548071676778
 31
0.0
  0
LINE
  5
11F
100
AcDbEntity
100
AcDbLine
  8
Middle
 62
256
370
-1
  6
ByLayer
 10
70.8299493424355688
 20
67.596554807167692
 30
0.0
 11
70.8299493424356399
 21
68.9965548071676409
 31
0.0
  0
LINE
  5
120
100
AcDbEntity
100
AcDbLine
  8
Middle
 62
256
370
-1
  6
ByLayer
 10
71.0299493424356285
 20
67.5965548071676778
 30
0.0
 11
70.8299493424355688
 21
67.596554807167692
 31
0.0
  0
LINE
  5
121
100
AcDbEntity
100
AcDbLine
  8
Middle
 62
256
370
-1
  6
ByLayer
 10
71.6299493424356513
 20
64.1965548071676579
 30
0.0
 11
71.6299493424356228
 21
66.9965548071676551
 31
0.0
  0
LINE
  5
122
100
AcDbEntity
100
AcDbLine
  8
Middle
 62
256
370
-1
  6
ByLayer
 10
70.8299493424355973
 20
63.5965548071676707
 30
0.0
 11
71.0299493424355717
 21
63.596554807167692
 31
0.0
  0
LINE
  5
123
100
AcDbEntity
100
AcDbLine
  8
Middle
 62
256
370
-1
  6
ByLayer
 10
96.6299493424356513
 20
63.5965548071676494
 30
0.0
 11
96.8299493424356399
 21
63.5965548071676494
 31
0.0
  0
LINE
  5
124
100
AcDbEntity
100
AcDbLine
  8
Middle
 62
256
370
-1
  6
ByLayer
 10
96.0299493424356001
 20
66.9965548071676409
 30
0.0
 11
96.0299493424356001
 21
64.1965548071676437
 31
0.0
  0
LINE
  5
125
100
AcDbEntity
100
AcDbLine
  8
Middle
 62
256
370
-1
  6
ByLayer
 10
96.8299493424355973
 20
67.5965548071676636
 30
0.0
 11
96.6299493424356228
 21
67.5965548071676494
 31
0.0
  0
LINE
  5
126
100
AcDbEntity
100
AcDbLine
  8
Middle
 62
256
370
-1
  6
ByLayer
 10
96.8299493424356399
 20
68.9965548071676267
 30
0.0
 11
96.8299493424355973
 21
67.5965548071676636
 31
0.0
  0
LINE
  5
127
100
AcDbEntity
100
AcDbLine
  8
Middle
 62
256
370
-1
  6
ByLayer
 10
102.8299493424355546
 20
67.596554807167621
 30
0.0
 11
102.8299493424356115
 21
68.9965548071675983
 31
0.0
  0
LINE
  5
128
100
AcDbEntity
100
AcDbLine
  8
Middle
 62
256
370
-1
  6
ByLayer
 10
103.0299493424356285
 20
67.5965548071676494
 30
0.0
 11
102.8299493424355546
 21
67.596554807167621
 31
0.0
  0
LINE
  5
129
100
AcDbEntity
100
AcDbLine
  8
Middle
 62
256
370
-1
  6
ByLayer
 10
103.6299493424355944
 20
64.1965548071676437
 30
0.0
 11
103.6299493424356228
 21
66.9965548071676835
 31
0.0
  0
LINE
  5
12A
100
AcDbEntity
100
AcDbLine
  8
Middle
 62
256
370
-1
  6
ByLayer
 10
102.8299493424355973
 20
63.5965548071676423
 30
0.0
 11
103.0299493424355859
 21
63.5965548071676423
 31
0.0
  0
LINE
  5
12B
100
AcDbEntity
100
AcDbLine
  8
Middle
 62
256
370
-1
  6
ByLayer
 10
108.829949342435583
 20
57.5288600456883614
 30
0.0
 11
108.829949342435583
 21
55.5965548071675855
 31
0.0
  0
LINE
  5
12C
100
AcDbEntity
100
AcDbLine
  8
Middle
 62
256
370
-1
  6
ByLayer
 10
115.547097838624012
 20
102.96395884647103
 30
0.0
 11
115.3591593144668082
 21
103.0323628751361866
 31
0.0
  0
LINE
  5
12D
100
AcDbEntity
100
AcDbLine
  8
Middle
 62
256
370
-1
  6
ByLayer
 10
114.9480449237882169
 20
99.5637918498035503
 30
0.0
 11
115.9057013251000967
 21
102.1949311880040909
 31
0.0
  0
LINE
  5
12E
100
AcDbEntity
100
AcDbLine
  8
Middle
 62
256
370
-1
  6
ByLayer
 10
113.9910787411641024
 20
99.2735923919925654
 30
0.0
 11
114.1790172653213062
 21
99.2051883633274372
 31
0.0
  0
LINE
  5
12F
100
AcDbEntity
100
AcDbLine
  8
Middle
 62
256
370
-1
  6
ByLayer
 10
113.5122505405080915
 20
97.9580227228922524
 30
0.0
 11
113.9910787411641024
 21
99.2735923919925654
 31
0.0
  0
LINE
  5
130
100
AcDbEntity
100
AcDbLine
  8
Middle
 62
256
370
-1
  6
ByLayer
 10
108.2326983022689149
 20
99.2411159243793577
 30
0.0
 11
112.7432228820411808
 21
97.599419236416125
 31
0.0
  0
LINE
  5
131
100
AcDbEntity
100
AcDbLine
  8
Middle
 62
256
370
-1
  6
ByLayer
 10
108.3529230164486705
 20
101.3257132519465245
 30
0.0
 11
107.8740948157927164
 21
100.0101435828462684
 31
0.0
  0
LINE
  5
132
100
AcDbEntity
100
AcDbLine
  8
Middle
 62
256
370
-1
  6
ByLayer
 10
108.1649844922914951
 20
101.3941172806116811
 30
0.0
 11
108.3529230164486705
 21
101.3257132519465245
 31
0.0
  0
LINE
  5
133
100
AcDbEntity
100
AcDbLine
  8
Middle
 62
256
370
-1
  6
ByLayer
 10
108.7640374071272333
 20
104.7942842772791892
 30
0.0
 11
107.806381005815382
 21
102.1631449390786486
 31
0.0
  0
LINE
  5
134
100
AcDbEntity
100
AcDbLine
  8
Middle
 62
256
370
-1
  6
ByLayer
 10
109.7210035897514047
 20
105.0844837350902026
 30
0.0
 11
109.5330650655941156
 21
105.1528877637553308
 31
0.0
  0
ARC
  5
135
100
AcDbEntity
  8
Middle
 62
256
370
-1
  6
ByLayer
100
AcDbCircle
 10
82.8306098241439628
 20
63.3655824656345885
 30
0.0
 40
0.599999999999996
100
AcDbArc
 50
250.0000000000001137
 51
340.0000000000002842
  0
ARC
  5
136
100
AcDbEntity
  8
Middle
 62
256
370
-1
  6
ByLayer
100
AcDbCircle
 10
75.3130688578566776
 20
66.1017436122399573
 30
0.0
 40
0.5999999999999983
100
AcDbArc
 50
159.9999999999998863
 51
250.0000000000001705
  0
ARC
  5
137
100
AcDbEntity
  8
Middle
 62
256
370
-1
  6
ByLayer
100
AcDbCircle
 10
81.5129514043358654
 20
114.7128684337235711
 30
0.0
 40
0.600000000000012
100
AcDbArc
 50
340.0000000000014779
 51
69.9999999999995879
  0
ARC
  5
138
100
AcDbEntity
  8
Middle
 62
256
370
-1
  6
ByLayer
100
AcDbCircle
 10
80.555295003024014
 20
112.0817290955230021
 30
0.0
 40
0.5999999999999749
100
AcDbArc
 50
249.99999999999838
 51
340.0000000000022737
  0
ARC
  5
139
100
AcDbEntity
  8
Middle
 62
256
370
-1
  6
ByLayer
100
AcDbCircle
 10
79.1195006197439739
 20
110.4759599686117326
 30
0.0
 40
0.5999999999999921
100
AcDbArc
 50
249.9999999999991189
 51
340.0000000000009095
  0
ARC
  5
13A
100
AcDbEntity
  8
Middle
 62
256
370
-1
  6
ByLayer
100
AcDbCircle
 10
74.6089760399715942
 20
112.1176566565749511
 30
0.0
 40
0.5999999999999996
100
AcDbArc
 50
160.0000000000001137
 51
249.9999999999993179
  0
ARC
  5
13B
100
AcDbEntity
  8
Middle
 62
256
370
-1
  6
ByLayer
100
AcDbCircle
 10
74.5412622299942029
 20
114.2706580128073028
 30
0.0
 40
0.5999999999999986
100
AcDbArc
 50
160.0000000000001137
 51
249.9999999999993179
  0
ARC
  5
13C
100
AcDbEntity
  8
Middle
 62
256
370
-1
  6
ByLayer
100
AcDbCircle
 10
75.4989186313060827
 20
116.9017973510078718
 30
0.0
 40
0.6000000000000139
100
AcDbArc
 50
70.0000000000007105
 51
159.9999999999988063
  0
ARC
  5
13D
100
AcDbEntity
  8
Middle
 62
256
370
-1
  6
ByLayer
100
AcDbCircle
 10
64.6299493424355944
 20
64.1965548071676437
 30
0.0
 40
0.5999999999999984
100
AcDbArc
 50
180.0
 51
270.0000000000007958
  0
ARC
  5
13E
100
AcDbEntity
  8
Middle
 62
256
370
-1
  6
ByLayer
100
AcDbCircle
 10
64.6299493424356228
 20
66.9965548071676551
 30
0.0
 40
0.6000000000000006
100
AcDbArc
 50
90.0000000000017053
 51
180.0
  0
ARC
  5
13F
100
AcDbEntity
  8
Middle
 62
256
370
-1
  6
ByLayer
100
AcDbCircle
 10
65.4299493424356342
 20
68.9965548071676835
 30
0.0
 40
0.6000000000000028
100
AcDbArc
 50
90.0
 51
180.0
  0
ARC
  5
140
100
AcDbEntity
  8
Middle
 62
256
370
-1
  6
ByLayer
100
AcDbCircle
 10
70.2299493424355887
 20
68.9965548071676409
 30
0.0
 40
0.6000000000000028
100
AcDbArc
 50
0.0
 51
89.9999999999991616
  0
ARC
  5
141
100
AcDbEntity
  8
Middle
 62
256
370
-1
  6
ByLayer
100
AcDbCircle
 10
71.0299493424356001
 20
66.9965548071676693
 30
0.0
 40
0.5999999999999939
100
AcDbArc
 50
0.0
 51
90.0
  0
ARC
  5
142
100
AcDbEntity
  8
Middle
 62
256
370
-1
  6
ByLayer
100
AcDbCircle
 10
71.0299493424356569
 20
64.1965548071676437
 30
0.0
 40
0.5999999999999984
100
AcDbArc
 50
269.9999999999992042
 51
0.0
  0
ARC
  5
143
100
AcDbEntity
  8
Middle
 62
256
370
-1
  6
ByLayer
100
AcDbCircle
 10
96.6299493424356086
 20
64.1965548071676437
 30
0.0
 40
0.5999999999999984
100
AcDbArc
 50
180.0
 51
270.0000000000017053
  0
ARC
  5
144
100
AcDbEntity
  8
Middle
 62
256
370
-1
  6
ByLayer
100
AcDbCircle
 10
96.6299493424356513
 20
66.9965548071676551
 30
0.0
 40
0.6000000000000006
100
AcDbArc
 50
90.0000000000017053
 51
180.0
  0
ARC
  5
145
100
AcDbEntity
  8
Middle
 62
256
370
-1
  6
ByLayer
100
AcDbCircle
 10
97.4299493424356342
 20
68.9965548071676835
 30
0.0
 40
0.6000000000000028
100
AcDbArc
 50
90.0
 51
180.0
  0
ARC
  5
146
100
AcDbEntity
  8
Middle
 62
256
370
-1
  6
ByLayer
100
AcDbCircle
 10
102.2299493424356172
 20
68.9965548071676267
 30
0.0
 40
0.6000000000000028
100
AcDbArc
 50
0.0
 51
89.9999999999983089
  0
ARC
  5
147
100
AcDbEntity
  8
Middle
 62
256
370
-1
  6
ByLayer
100
AcDbCircle
 10
103.0299493424356285
 20
66.9965548071676835
 30
0.0
 40
0.5999999999999939
100
AcDbArc
 50
0.0
 51
90.0
  0
ARC
  5
148
100
AcDbEntity
  8
Middle
 62
256
370
-1
  6
ByLayer
100
AcDbCircle
 10
103.0299493424355717
 20
64.1965548071676295
 30
0.0
 40
0.5999999999999984
100
AcDbArc
 50
269.9999999999982947
 51
0.0
  0
ARC
  5
149
100
AcDbEntity
  8
Middle
 62
256
370
-1
  6
ByLayer
100
AcDbCircle
 10
115.341885752628599
 20
102.4001432739995039
 30
0.0
 40
0.5999999999999881
100
AcDbArc
 50
339.9999999999998863
 51
70.0000000000014353
  0
ARC
  5
14A
100
AcDbEntity
  8
Middle
 62
256
370
-1
  6
ByLayer
100
AcDbCircle
 10
114.3842293513166908
 20
99.7690039357989633
 30
0.0
 40
0.5999999999999842
100
AcDbArc
 50
249.9999999999978968
 51
340.0000000000001137
  0
ARC
  5
14B
100
AcDbEntity
  8
Middle
 62
256
370
-1
  6
ByLayer
100
AcDbCircle
 10
112.9484349680365938
 20
98.1632348088876654
 30
0.0
 40
0.6000000000000063
100
AcDbArc
 50
250.0000000000003695
 51
339.9999999999996021
  0
ARC
  5
14C
100
AcDbEntity
  8
Middle
 62
256
370
-1
  6
ByLayer
100
AcDbCircle
 10
108.4379103882642994
 20
99.8049314968508838
 30
0.0
 40
0.5999999999999976
100
AcDbArc
 50
160.0000000000011937
 51
250.0000000000003695
  0
ARC
  5
14D
100
AcDbEntity
  8
Middle
 62
256
370
-1
  6
ByLayer
100
AcDbCircle
 10
108.3701965782869081
 20
101.9579328530832356
 30
0.0
 40
0.5999999999999954
100
AcDbArc
 50
159.9999999999990052
 51
250.0000000000001137
  0
ARC
  5
14E
100
AcDbEntity
  8
Middle
 62
256
370
-1
  6
ByLayer
100
AcDbCircle
 10
109.3278529795988163
 20
104.5890721912837762
 30
0.0
 40
0.6000000000000253
100
AcDbArc
 50
70.0000000000028848
 51
159.9999999999994031
  0
ARC
  5
14F
100
AcDbEntity
  8
Middle
 62
256
370
-1
  6
ByLayer
100
AcDbCircle
 10
148.8299493424350146
 20
66.3452090811117756
 30
0.0
 40
89.9999999999993463
100
AcDbArc
 50
159.9999999999998863
 51
180.0
  0
ARC
  5
150
100
AcDbEntity
  8
Middle
 62
256
370
-1
  6
ByLayer
100
AcDbCircle
 10
198.8299493424353273
 20
57.5288600456884041
 30
0.0
 40
89.9999999999996447
100
AcDbArc
 50
159.9999999999998863
 51
180.0
  0
LINE
  5
151
100
AcDbEntity
100
AcDbLine
  8
Middle
 62
256
370
-1
  6
ByLayer
 10
121.1700506575643885
 20
107.3024380265489413
 30
0.0
 11
114.2576134717037917
 21
88.3106729449985011
 31
0.0
  0
LINE
  5
152
100
AcDbEntity
100
AcDbLine
  8
Middle
 62
256
370
-1
  6
ByLayer
 10
88.9088872190678501
 20
105.2102301987719102
 30
0.0
 11
74.7492532853851799
 21
66.3069556982353561
 31
0.0
  0
LINE
  5
153
100
AcDbEntity
100
AcDbLine
  8
Middle
 62
256
370
-1
  6
ByLayer
 10
88.9088872190678501
 20
105.2102301987719102
 30
0.0
 11
85.6199630463171673
 21
106.4073007004117812
 31
0.0
  0
LINE
  5
154
100
AcDbEntity
100
AcDbLine
  8
Middle
 62
256
370
-1
  6
ByLayer
 10
85.6199630463171673
 20
106.4073007004117812
 30
0.0
 11
90.0662249095508685
 21
118.6233047706285788
 31
0.0
  0
LINE
  5
155
100
AcDbEntity
100
AcDbLine
  8
Middle
 62
256
370
-1
  6
ByLayer
 10
97.5540593302982302
 20
102.0636448801757865
 30
0.0
 11
100.8429835030488846
 21
100.8665743785359439
 31
0.0
  0
LINE
  5
156
100
AcDbEntity
100
AcDbLine
  8
Middle
 62
256
370
-1
  6
ByLayer
 10
100.8429835030488846
 20
100.8665743785359439
 30
0.0
 11
105.2892453662825858
 21
113.0825784487527699
 31
0.0
  0
LINE
  5
157
100
AcDbEntity
100
AcDbLine
  8
Middle
 62
256
370
-1
  6
ByLayer
 10
58.8299493424356044
 20
55.596554807167692
 30
0.0
 11
108.829949342435583
 21
55.5965548071675855
 31
0.0
  0
LINE
  5
158
100
AcDbEntity
100
AcDbLine
  8
Middle
 62
256
370
-1
  6
ByLayer
 10
103.0299493424355575
 20
63.5965548071676494
 30
0.0
 11
96.8299493424356399
 21
63.5965548071676494
 31
0.0
  0
LINE
  5
159
100
AcDbEntity
100
AcDbLine
  8
Middle
 62
256
370
-1
  6
ByLayer
 10
71.0299493424356854
 20
63.5965548071676707
 30
0.0
 11
64.6299493424355944
 21
63.5965548071676849
 31
0.0
  0
LINE
  5
15A
100
AcDbEntity
100
AcDbLine
  8
Middle
 62
256
370
-1
  6
ByLayer
 10
74.1854196182690373
 20
124.4034451928324074
 30
0.0
 11
90.0662249095508685
 21
118.6233047706285788
 31
0.0
  0
LINE
  5
15B
100
AcDbEntity
100
AcDbLine
  8
Middle
 62
256
370
-1
  6
ByLayer
 10
105.2892453662825858
 20
113.0825784487527699
 30
0.0
 11
121.1700506575643885
 21
107.3024380265489413
 31
0.0
  0
LINE
  5
15C
100
AcDbEntity
100
AcDbLine
  8
Middle
 62
256
370
-1
  6
ByLayer
 10
115.3591593144668082
 20
103.0323628751361866
 30
0.0
 11
109.7210035897514047
 21
105.0844837350902026
 31
0.0
  0
LINE
  5
15D
100
AcDbEntity
100
AcDbLine
  8
Middle
 62
256
370
-1
  6
ByLayer
 10
81.530224966174103
 20
115.3450880348602539
 30
0.0
 11
75.8920692414586426
 21
117.3972088948142698
 31
0.0
  0
MTEXT
  5
15E
100
AcDbEntity
100
AcDbMText
  8
Middle Text
 62
256
370
-1
  6
ByLayer
 10
68.1288010517438067
 20
98.2807888876745892
 30
0.0
 40
2.0
 41
100.0
 71
1
 72
2
  1
Main\~Plate\PMiddle
  7
standard
 50
0.0
 73
1
 44
1.0
  0
LINE
  5
15F
100
AcDbEntity
100
AcDbLine
  8
Drawing
 62
256
370
-1
  6
ByLayer
 10
78.8666272550054401
 20
64.1698474664652565
 30
0.0
 11
97.6777351379169545
 21
115.8529416096904185
 31
0.0
  0
LINE
  5
160
100
AcDbEntity
100
AcDbLine
  8
Drawing
 62
256
370
-1
  6
ByLayer
 10
83.8299493424361515
 20
120.8931234497395906
 30
0.0
 11
83.8299493424353983
 21
55.5965548071676494
 31
0.0
  0
LINE
  5
161
100
AcDbEntity
100
AcDbLine
  8
Drawing
 62
256
370
-1
  6
ByLayer
 10
82.8299493424354836
 20
65.0965548071674789
 30
0.0
 11
82.8299493424358673
 21
87.0965548071674505
 31
0.0
  0
LINE
  5
162
100
AcDbEntity
100
AcDbLine
  8
Drawing
 62
256
370
-1
  6
ByLayer
 10
110.7661048246962423
 20
76.0965548071669815
 30
0.0
 11
79.329949342435782
 21
76.0965548071675215
 31
0.0
  0
LINE
  5
163
100
AcDbEntity
100
AcDbLine
  8
Drawing
 62
256
370
-1
  6
ByLayer
 10
110.7661048246962139
 20
81.5965548071669957
 30
0.0
 11
59.8867062560579484
 21
81.5965548071678199
 31
0.0
  0
LINE
  5
164
100
AcDbEntity
100
AcDbLine
  8
Drawing
 62
256
370
-1
  6
ByLayer
 10
110.7661048246961997
 20
70.5965548071669957
 30
0.0
 11
59.0139038809514886
 21
70.5965548071678342
 31
0.0
  0
LINE
  5
165
100
AcDbEntity
100
AcDbLine
  8
Drawing
 62
256
370
-1
  6
ByLayer
 10
67.8299493424354978
 20
65.096554807167692
 30
0.0
 11
67.8299493424358388
 21
87.0965548071676778
 31
0.0
  0
LINE
  5
166
100
AcDbEntity
100
AcDbLine
  8
Drawing
 62
256
370
-1
  6
ByLayer
 10
101.8299493424354836
 20
65.0965548071671378
 30
0.0
 11
101.8299493424358673
 21
87.0965548071671236
 31
0.0
  0
LINE
  5
167
100
AcDbEntity
100
AcDbLine
  8
Drawing
 62
256
370
-1
  6
ByLayer
 10
93.8299493424354836
 20
65.0965548071672799
 30
0.0
 11
93.8299493424358388
 21
87.0965548071672799
 31
0.0
  0
LINE
  5
168
100
AcDbEntity
100
AcDbLine
  8
Top
 62
256
370
-1
  6
ByLayer
 10
95.3021925288691278
 20
73.1465548071672629
 30
0.0
 11
96.7744357153026584
 21
70.5965548071672657
 31
0.0
  0
LINE
  5
169
100
AcDbEntity
100
AcDbLine
  8
Top
 62
256
370
-1
  6
ByLayer
 10
96.7744357153026584
 20
70.5965548071672657
 30
0.0
 11
95.3021925288691278
 21
68.0465548071672686
 31
0.0
  0
LINE
  5
16A
100
AcDbEntity
100
AcDbLine
  8
Top
 62
256
370
-1
  6
ByLayer
 10
95.3021925288691278
 20
68.0465548071672686
 30
0.0
 11
92.3577061560020098
 21
68.0465548071672544
 31
0.0
  0
LINE
  5
16B
100
AcDbEntity
100
AcDbLine
  8
Top
 62
256
370
-1
  6
ByLayer
 10
92.3577061560020098
 20
68.0465548071672544
 30
0.0
 11
90.8854629695684508
 21
70.5965548071672515
 31
0.0
  0
LINE
  5
16C
100
AcDbEntity
100
AcDbLine
  8
Top
 62
256
370
-1
  6
ByLayer
 10
90.8854629695684508
 20
70.5965548071672515
 30
0.0
 11
92.3577061560020098
 21
73.1465548071672629
 31
0.0
  0
LINE
  5
16D
100
AcDbEntity
100
AcDbLine
  8
Top
 62
256
370
-1
  6
ByLayer
 10
92.3577061560020098
 20
73.1465548071672629
 30
0.0
 11
95.3021925288691278
 21
73.1465548071672629
 31
0.0
  0
LINE
  5
16E
100
AcDbEntity
100
AcDbLine
  8
Drawings
 62
256
370
-1
  6
ByLayer
 10
95.3021925288690994
 20
73.1465548071672487
 30
0.0
 11
92.3577061560020098
 21
68.0465548071672544
 31
0.0
  0
LINE
  5
16F
100
AcDbEntity
100
AcDbLine
  8
Drawings
 62
256
370
-1
  6
ByLayer
 10
92.3577061560020098
 20
73.1465548071672629
 30
0.0
 11
95.3021925288690852
 21
68.0465548071672686
 31
0.0
  0
LINE
  5
170
100
AcDbEntity
100
AcDbLine
  8
Drawings
 62
256
370
-1
  6
ByLayer
 10
96.7744357153026584
 20
70.5965548071672657
 30
0.0
 11
90.8854629695684793
 21
70.5965548071672657
 31
0.0
  0
LINE
  5
171
100
AcDbEntity
100
AcDbLine
  8
Top
 62
256
370
-1
  6
ByLayer
 10
103.3021925288693552
 20
84.146554807167135
 30
0.0
 11
104.7744357153028858
 21
81.5965548071671378
 31
0.0
  0
LINE
  5
172
100
AcDbEntity
100
AcDbLine
  8
Top
 62
256
370
-1
  6
ByLayer
 10
104.7744357153028858
 20
81.5965548071671378
 30
0.0
 11
103.3021925288693552
 21
79.0465548071671407
 31
0.0
  0
LINE
  5
173
100
AcDbEntity
100
AcDbLine
  8
Top
 62
256
370
-1
  6
ByLayer
 10
103.3021925288693552
 20
79.0465548071671407
 30
0.0
 11
100.3577061560022372
 21
79.0465548071671265
 31
0.0
  0
LINE
  5
174
100
AcDbEntity
100
AcDbLine
  8
Top
 62
256
370
-1
  6
ByLayer
 10
100.3577061560022372
 20
79.0465548071671265
 30
0.0
 11
98.8854629695686782
 21
81.5965548071671236
 31
0.0
  0
LINE
  5
175
100
AcDbEntity
100
AcDbLine
  8
Top
 62
256
370
-1
  6
ByLayer
 10
98.8854629695686782
 20
81.5965548071671236
 30
0.0
 11
100.3577061560022372
 21
84.146554807167135
 31
0.0
  0
LINE
  5
176
100
AcDbEntity
100
AcDbLine
  8
Top
 62
256
370
-1
  6
ByLayer
 10
100.3577061560022372
 20
84.146554807167135
 30
0.0
 11
103.3021925288693552
 21
84.146554807167135
 31
0.0
  0
LINE
  5
177
100
AcDbEntity
100
AcDbLine
  8
Drawings
 62
256
370
-1
  6
ByLayer
 10
103.3021925288693268
 20
84.1465548071671208
 30
0.0
 11
100.3577061560022372
 21
79.0465548071671265
 31
0.0
  0
LINE
  5
178
100
AcDbEntity
100
AcDbLine
  8
Drawings
 62
256
370
-1
  6
ByLayer
 10
100.3577061560022372
 20
84.146554807167135
 30
0.0
 11
103.3021925288693126
 21
79.0465548071671407
 31
0.0
  0
LINE
  5
179
100
AcDbEntity
100
AcDbLine
  8
Drawings
 62
256
370
-1
  6
ByLayer
 10
104.7744357153028858
 20
81.5965548071671378
 30
0.0
 11
98.8854629695687066
 21
81.5965548071671378
 31
0.0
  0
LINE
  5
17A
100
AcDbEntity
100
AcDbLine
  8
Top
 62
256
370
-1
  6
ByLayer
 10
95.302192528869341
 20
84.1465548071672629
 30
0.0
 11
96.7744357153028716
 21
81.5965548071672657
 31
0.0
  0
LINE
  5
17B
100
AcDbEntity
100
AcDbLine
  8
Top
 62
256
370
-1
  6
ByLayer
 10
96.7744357153028716
 20
81.5965548071672657
 30
0.0
 11
95.302192528869341
 21
79.0465548071672686
 31
0.0
  0
LINE
  5
17C
100
AcDbEntity
100
AcDbLine
  8
Top
 62
256
370
-1
  6
ByLayer
 10
95.302192528869341
 20
79.0465548071672686
 30
0.0
 11
92.357706156002223
 21
79.0465548071672544
 31
0.0
  0
LINE
  5
17D
100
AcDbEntity
100
AcDbLine
  8
Top
 62
256
370
-1
  6
ByLayer
 10
92.357706156002223
 20
79.0465548071672544
 30
0.0
 11
90.885462969568664
 21
81.5965548071672515
 31
0.0
  0
LINE
  5
17E
100
AcDbEntity
100
AcDbLine
  8
Top
 62
256
370
-1
  6
ByLayer
 10
90.885462969568664
 20
81.5965548071672515
 30
0.0
 11
92.357706156002223
 21
84.1465548071672629
 31
0.0
  0
LINE
  5
17F
100
AcDbEntity
100
AcDbLine
  8
Top
 62
256
370
-1
  6
ByLayer
 10
92.357706156002223
 20
84.1465548071672629
 30
0.0
 11
95.302192528869341
 21
84.1465548071672629
 31
0.0
  0
LINE
  5
180
100
AcDbEntity
100
AcDbLine
  8
Drawings
 62
256
370
-1
  6
ByLayer
 10
95.3021925288693126
 20
84.1465548071672487
 30
0.0
 11
92.357706156002223
 21
79.0465548071672544
 31
0.0
  0
LINE
  5
181
100
AcDbEntity
100
AcDbLine
  8
Drawings
 62
256
370
-1
  6
ByLayer
 10
92.357706156002223
 20
84.1465548071672629
 30
0.0
 11
95.3021925288692984
 21
79.0465548071672686
 31
0.0
  0
LINE
  5
182
100
AcDbEntity
100
AcDbLine
  8
Drawings
 62
256
370
-1
  6
ByLayer
 10
96.7744357153028716
 20
81.5965548071672657
 30
0.0
 11
90.8854629695686924
 21
81.5965548071672657
 31
0.0
  0
CIRCLE
  5
183
100
AcDbEntity
100
AcDbCircle
  8
Top
 62
256
370
-1
  6
ByLayer
 10
101.829949342435583
 20
70.5965548071671378
 30
0.0
 40
1.5
  0
LINE
  5
184
100
AcDbEntity
100
AcDbLine
  8
Top
 62
256
370
-1
  6
ByLayer
 10
97.5540593302982018
 20
102.0636448801757723
 30
0.0
 11
83.3944253966155031
 21
63.1603703796391969
 31
0.0
  0
LINE
  5
185
100
AcDbEntity
100
AcDbLine
  8
Top
 62
256
370
-1
  6
ByLayer
 10
97.4299493424356342
 20
69.5965548071676778
 30
0.0
 11
102.2299493424356314
 21
69.5965548071676352
 31
0.0
  0
CIRCLE
  5
186
100
AcDbEntity
100
AcDbCircle
  8
Bottom
 62
256
370
-1
  6
ByLayer
 10
101.8299493424357678
 20
81.5965548071671378
 30
0.0
 40
1.6000000000000001
  0
CIRCLE
  5
187
100
AcDbEntity
100
AcDbCircle
  8
Bottom
 62
256
370
-1
  6
ByLayer
 10
93.8299493424357536
 20
81.5965548071672657
 30
0.0
 40
1.6000000000000001
  0
CIRCLE
  5
188
100
AcDbEntity
100
AcDbCircle
  8
Bottom
 62
256
370
-1
  6
ByLayer
 10
93.8299493424355688
 20
70.5965548071672657
 30
0.0
 40
1.6000000000000001
  0
CIRCLE
  5
189
100
AcDbEntity
100
AcDbCircle
  8
Bottom
 62
256
370
-1
  6
ByLayer
 10
101.829949342435583
 20
70.5965548071671378
 30
0.0
 40
1.6000000000000001
  0
LINE
  5
18A
100
AcDbEntity
100
AcDbLine
  8
Middle
 62
256
370
-1
  6
ByLayer
 10
97.4299493424356342
 20
69.596554807167692
 30
0.0
 11
102.2299493424356314
 21
69.5965548071676352
 31
0.0
  0
LINE
  5
18B
100
AcDbEntity
100
AcDbLine
  8
Middle
 62
256
370
-1
  6
ByLayer
 10
95.302192528869341
 20
84.1465548071672913
 30
0.0
 11
96.7744357153028716
 21
81.5965548071672941
 31
0.0
  0
LINE
  5
18C
100
AcDbEntity
100
AcDbLine
  8
Middle
 62
256
370
-1
  6
ByLayer
 10
96.7744357153028716
 20
81.5965548071672941
 30
0.0
 11
95.302192528869341
 21
79.046554807167297
 31
0.0
  0
LINE
  5
18D
100
AcDbEntity
100
AcDbLine
  8
Middle
 62
256
370
-1
  6
ByLayer
 10
95.302192528869341
 20
79.046554807167297
 30
0.0
 11
92.357706156002223
 21
79.0465548071672828
 31
0.0
  0
LINE
  5
18E
100
AcDbEntity
100
AcDbLine
  8
Middle
 62
256
370
-1
  6
ByLayer
 10
92.357706156002223
 20
79.0465548071672828
 30
0.0
 11
90.885462969568664
 21
81.5965548071672799
 31
0.0
  0
LINE
  5
18F
100
AcDbEntity
100
AcDbLine
  8
Middle
 62
256
370
-1
  6
ByLayer
 10
90.885462969568664
 20
81.5965548071672799
 30
0.0
 11
92.357706156002223
 21
84.1465548071672913
 31
0.0
  0
LINE
  5
190
100
AcDbEntity
100
AcDbLine
  8
Middle
 62
256
370
-1
  6
ByLayer
 10
92.357706156002223
 20
84.1465548071672913
 30
0.0
 11
95.302192528869341
 21
84.1465548071672913
 31
0.0
  0
LINE
  5
191
100
AcDbEntity
100
AcDbLine
  8
Middle
 62
256
370
-1
  6
ByLayer
 10
103.3021925288693552
 20
84.1465548071671634
 30
0.0
 11
104.7744357153028858
 21
81.5965548071671662
 31
0.0
  0
LINE
  5
192
100
AcDbEntity
100
AcDbLine
  8
Middle
 62
256
370
-1
  6
ByLayer
 10
104.7744357153028858
 20
81.5965548071671662
 30
0.0
 11
103.3021925288693552
 21
79.0465548071671691
 31
0.0
  0
LINE
  5
193
100
AcDbEntity
100
AcDbLine
  8
Middle
 62
256
370
-1
  6
ByLayer
 10
103.3021925288693552
 20
79.0465548071671691
 30
0.0
 11
100.3577061560022372
 21
79.0465548071671549
 31
0.0
  0
LINE
  5
194
100
AcDbEntity
100
AcDbLine
  8
Middle
 62
256
370
-1
  6
ByLayer
 10
100.3577061560022372
 20
79.0465548071671549
 30
0.0
 11
98.8854629695686782
 21
81.596554807167152
 31
0.0
  0
LINE
  5
195
100
AcDbEntity
100
AcDbLine
  8
Middle
 62
256
370
-1
  6
ByLayer
 10
98.8854629695686782
 20
81.596554807167152
 30
0.0
 11
100.3577061560022372
 21
84.1465548071671634
 31
0.0
  0
LINE
  5
196
100
AcDbEntity
100
AcDbLine
  8
Middle
 62
256
370
-1
  6
ByLayer
 10
100.3577061560022372
 20
84.1465548071671634
 30
0.0
 11
103.3021925288693552
 21
84.1465548071671634
 31
0.0
  0
LINE
  5
197
100
AcDbEntity
100
AcDbLine
  8
Middle
 62
256
370
-1
  6
ByLayer
 10
95.3021925288691563
 20
73.1465548071672913
 30
0.0
 11
96.7744357153026868
 21
70.5965548071672941
 31
0.0
  0
LINE
  5
198
100
AcDbEntity
100
AcDbLine
  8
Middle
 62
256
370
-1
  6
ByLayer
 10
96.7744357153026868
 20
70.5965548071672941
 30
0.0
 11
95.3021925288691563
 21
68.046554807167297
 31
0.0
  0
LINE
  5
199
100
AcDbEntity
100
AcDbLine
  8
Middle
 62
256
370
-1
  6
ByLayer
 10
95.3021925288691563
 20
68.046554807167297
 30
0.0
 11
92.3577061560020383
 21
68.0465548071672828
 31
0.0
  0
LINE
  5
19A
100
AcDbEntity
100
AcDbLine
  8
Middle
 62
256
370
-1
  6
ByLayer
 10
92.3577061560020383
 20
68.0465548071672828
 30
0.0
 11
90.8854629695684793
 21
70.5965548071672799
 31
0.0
  0
LINE
  5
19B
100
AcDbEntity
100
AcDbLine
  8
Middle
 62
256
370
-1
  6
ByLayer
 10
90.8854629695684793
 20
70.5965548071672799
 30
0.0
 11
92.3577061560020383
 21
73.1465548071672913
 31
0.0
  0
LINE
  5
19C
100
AcDbEntity
100
AcDbLine
  8
Middle
 62
256
370
-1
  6
ByLayer
 10
92.3577061560020383
 20
73.1465548071672913
 30
0.0
 11
95.3021925288691563
 21
73.1465548071672913
 31
0.0
  0
CIRCLE
  5
19D
100
AcDbEntity
100
AcDbCircle
  8
Middle
 62
256
370
-1
  6
ByLayer
 10
101.829949342435583
 20
70.5965548071671378
 30
0.0
 40
1.5
  0
LINE
  5
19E
100
AcDbEntity
100
AcDbLine
  8
Middle
 62
256
370
-1
  6
ByLayer
 10
97.5540593302982302
 20
102.0636448801757865
 30
0.0
 11
83.3944253966155031
 21
63.1603703796391898
 31
0.0
  0
LINE
  5
19F
100
AcDbEntity
100
AcDbLine
  8
Bottom
 62
256
370
-1
  6
ByLayer
 10
108.8299493424355973
 20
55.5965548071676139
 30
0.0
 11
58.8299493424356044
 21
55.5965548071676636
 31
0.0
  0
ENDSEC
  0
SECTION
  2
OBJECTS
  0
DICTIONARY
  5
C
100
AcDbDictionary
280
0
281
1
  3
ACAD_GROUP
350
D
  3
ACAD_LAYOUT
350
1A
  3
ACAD_MLINESTYLE
350
17
  3
ACAD_PLOTSETTINGS
350
19
  3
ACAD_PLOTSTYLENAME
350
E
  3
AcDbVariableDictionary
350
1A0
  0
DICTIONARY
  5
D
100
AcDbDictionary
280
0
281
1
  0
ACDBDICTIONARYWDFLT
  5
E
100
AcDbDictionary
281
1
  3
Normal
350
F
100
AcDbDictionaryWithDefault
340
F
  0
ACDBPLACEHOLDER
  5
F
  0
DICTIONARY
  5
17
100
AcDbDictionary
280
0
281
1
  3
Standard
350
18
  0
MLINESTYLE
  5
18
100
AcDbMlineStyle
  2
STANDARD
 70
0
  3

 62
256
 51
90.0
 52
90.0
 71
2
 49
0.5
 62
256
  6
BYLAYER
 49
-0.5
 62
256
  6
BYLAYER
  0
DICTIONARY
  5
19
100
AcDbDictionary
280
0
281
1
  0
DICTIONARY
  5
1A
100
AcDbDictionary
281
1
  3
Layout1
350
1E
  3
Layout2
350
26
  3
Model
350
22
  0
LAYOUT
  5
1E
100
AcDbPlotSettings
  1

  2
C:\Program Files\AutoCAD 2002\plotters\DWF ePlot (optimized for plotting).pc3
  4

  6

 40
0.0
 41
0.0
 42
0.0
 43
0.0
 44
0.0
 45
0.0
 46
0.0
 47
0.0
 48
0.0
 49
0.0
140
0.0
141
0.0
142
1.0
143
1.0
 70
688
 72
0
 73
0
 74
5
  7

 75
16
147
1.0
148
0.0
149
0.0
100
AcDbLayout
  1
Layout1
 70
1
 71
1
 10
0.0
 20
0.0
 11
420.0
 21
297.0
 12
0.0
 22
0.0
 32
0.0
 14
100000000000000000000.0
 24
100000000000000000000.0
 34
100000000000000000000.0
 15
-100000000000000000000.0
 25
-100000000000000000000.0
 35
-100000000000000000000.0
146
0.0
 13
0.0
 23
0.0
 33
0.0
 16
1.0
 26
0.0
 36
0.0
 17
0.0
 27
1.0
 37
0.0
 76
0
330
1B
  0
LAYOUT
  5
22
100
AcDbPlotSettings
  1

  2
C:\Program Files\AutoCAD 2002\plotters\DWF ePlot (optimized for plotting).pc3
  4

  6

 40
0.0
 41
0.0
 42
0.0
 43
0.0
 44
0.0
 45
0.0
 46
0.0
 47
0.0
 48
0.0
 49
0.0
140
0.0
141
0.0
142
1.0
143
1.0
 70
1712
 72
0
 73
0
 74
0
  7

 75
0
147
1.0
148
0.0
149
0.0
100
AcDbLayout
  1
Model
 70
1
 71
0
 10
0.0
 20
0.0
 11
12.0
 21
9.0
 12
0.0
 22
0.0
 32
0.0
 14
0.0
 24
0.0
 34
0.0
 15
0.0
 25
0.0
 35
0.0
146
0.0
 13
0.0
 23
0.0
 33
0.0
 16
1.0
 26
0.0
 36
0.0
 17
0.0
 27
1.0
 37
0.0
 76
0
330
1F
  0
LAYOUT
  5
26
100
AcDbPlotSettings
  1

  2
C:\Program Files\AutoCAD 2002\plotters\DWF ePlot (optimized for plotting).pc3
  4

  6

 40
0.0
 41
0.0
 42
0.0
 43
0.0
 44
0.0
 45
0.0
 46
0.0
 47
0.0
 48
0.0
 49
0.0
140
0.0
141
0.0
142
1.0
143
1.0
 70
688
 72
0
 73
0
 74
5
  7

 75
16
147
1.0
148
0.0
149
0.0
100
AcDbLayout
  1
Layout2
 70
1
 71
2
 10
0.0
 20
0.0
 11
12.0
 21
9.0
 12
0.0
 22
0.0
 32
0.0
 14
0.0
 24
0.0
 34
0.0
 15
0.0
 25
0.0
 35
0.0
146
0.0
 13
0.0
 23
0.0
 33
0.0
 16
1.0
 26
0.0
 36
0.0
 17
0.0
 27
1.0
 37
0.0
 76
0
330
23
  0
DICTIONARY
  5
1A0
100
AcDbDictionary
281
1
  3
DIMASSOC
350
1A2
  3
HIDETEXT
350
1A1
  0
DICTIONARYVAR
  5
1A1
100
DictionaryVariables
280
0
  1
2
  0
DICTIONARYVAR
  5
1A2
100
DictionaryVariables
280
0
  1
1
  0
ENDSEC
  0
EOF
