999
dxflib 2.2.0.0
  0
SECTION
  2
HEADER
  9
$ACADVER
  1
AC1015
  9
$HANDSEED
  5
FFFF
  9
$DIMASZ
 40
2.5
  9
$PLIMMIN
 10
0.0
 20
0.0
  9
$DIMEXE
 40
1.25
  9
$DIMGAP
 40
0.625
  9
$PLIMMAX
 10
210.0
 20
297.0
  9
$INSUNITS
 70
4
  9
$DIMSTYLE
  2
Standard
  9
$CLAYER
  8
0
  9
$DIMEXO
 40
0.625
  9
$DIMTXT
 40
2.5
  9
$CLAYER
  8
0
  0
ENDSEC
  0
SECTION
  2
TABLES
  0
TABLE
  2
VPORT
  5
8
100
AcDbSymbolTable
 70
1
  0
VPORT
  5
30
100
AcDbSymbolTableRecord
100
AcDbViewportTableRecord
  2
*Active
 70
0
 10
0.0
 20
0.0
 11
1.0
 21
1.0
 12
286.3055555555554861
 22
148.5
 13
0.0
 23
0.0
 14
10.0
 24
10.0
 15
10.0
 25
10.0
 16
0.0
 26
0.0
 36
1.0
 17
0.0
 27
0.0
 37
0.0
 40
297.0
 41
1.92798353909465
 42
50.0
 43
0.0
 44
0.0
 50
0.0
 51
0.0
 71
0
 72
100
 73
1
 74
3
 75
1
 76
1
 77
0
 78
0
281
0
 65
1
110
0.0
120
0.0
130
0.0
111
1.0
121
0.0
131
0.0
112
0.0
122
1.0
132
0.0
 79
0
146
0.0
  0
ENDTAB
  0
TABLE
  2
LTYPE
  5
5
100
AcDbSymbolTable
 70
21
  0
LTYPE
  5
14
100
AcDbSymbolTableRecord
100
AcDbLinetypeTableRecord
  2
ByBlock
 70
0
  3

 72
65
 73
0
 40
0.0
  0
LTYPE
  5
15
100
AcDbSymbolTableRecord
100
AcDbLinetypeTableRecord
  2
ByLayer
 70
0
  3

 72
65
 73
0
 40
0.0
  0
LTYPE
  5
16
100
AcDbSymbolTableRecord
100
AcDbLinetypeTableRecord
  2
CONTINUOUS
 70
0
  3
Solid line
 72
65
 73
0
 40
0.0
  0
LTYPE
  5
31
100
AcDbSymbolTableRecord
100
AcDbLinetypeTableRecord
  2
DOT
 70
0
  3
Dot . . . . . . . . . . . . . . . . . . . . . .
 72
65
 73
2
 40
6.3499999999999996
 49
0.0
 74
0
 49
-6.3499999999999996
 74
0
  0
LTYPE
  5
32
100
AcDbSymbolTableRecord
100
AcDbLinetypeTableRecord
  2
DOT2
 70
0
  3
Dot (.5x) .....................................
 72
65
 73
2
 40
3.1749999999999998
 49
0.0
 74
0
 49
-3.1749999999999998
 74
0
  0
LTYPE
  5
33
100
AcDbSymbolTableRecord
100
AcDbLinetypeTableRecord
  2
DOTX2
 70
0
  3
Dot (2x) .  .  .  .  .  .  .  .  .  .  .  .  .
 72
65
 73
2
 40
12.6999999999999993
 49
0.0
 74
0
 49
-12.6999999999999993
 74
0
  0
LTYPE
  5
34
100
AcDbSymbolTableRecord
100
AcDbLinetypeTableRecord
  2
DASHED
 70
0
  3
Dashed __ __ __ __ __ __ __ __ __ __ __ __ __ _
 72
65
 73
2
 40
19.0500000000000007
 49
12.6999999999999993
 74
0
 49
-6.3499999999999996
 74
0
  0
LTYPE
  5
35
100
AcDbSymbolTableRecord
100
AcDbLinetypeTableRecord
  2
DASHED2
 70
0
  3
Dashed (.5x) _ _ _ _ _ _ _ _ _ _ _ _ _ _ _ _ _
 72
65
 73
2
 40
9.5250000000000004
 49
6.3499999999999996
 74
0
 49
-3.1749999999999998
 74
0
  0
LTYPE
  5
36
100
AcDbSymbolTableRecord
100
AcDbLinetypeTableRecord
  2
DASHEDX2
 70
0
  3
Dashed (2x) ____  ____  ____  ____  ____  ___
 72
65
 73
2
 40
38.1000000000000014
 49
25.3999999999999986
 74
0
 49
-12.6999999999999993
 74
0
  0
LTYPE
  5
37
100
AcDbSymbolTableRecord
100
AcDbLinetypeTableRecord
  2
DASHDOT
 70
0
  3
Dash dot __ . __ . __ . __ . __ . __ . __ . __
 72
65
 73
4
 40
25.3999999999999986
 49
12.6999999999999993
 74
0
 49
-6.3499999999999996
 74
0
 49
0.0
 74
0
 49
-6.3499999999999996
 74
0
  0
LTYPE
  5
38
100
AcDbSymbolTableRecord
100
AcDbLinetypeTableRecord
  2
DASHDOT2
 70
0
  3
Dash dot (.5x) _._._._._._._._._._._._._._._.
 72
65
 73
4
 40
12.6999999999999993
 49
6.3499999999999996
 74
0
 49
-3.1749999999999998
 74
0
 49
0.0
 74
0
 49
-3.1749999999999998
 74
0
  0
LTYPE
  5
39
100
AcDbSymbolTableRecord
100
AcDbLinetypeTableRecord
  2
DASHDOTX2
 70
0
  3
Dash dot (2x) ____  .  ____  .  ____  .  ___
 72
65
 73
4
 40
50.7999999999999972
 49
25.3999999999999986
 74
0
 49
-12.6999999999999993
 74
0
 49
0.0
 74
0
 49
-12.6999999999999993
 74
0
  0
LTYPE
  5
3A
100
AcDbSymbolTableRecord
100
AcDbLinetypeTableRecord
  2
DIVIDE
 70
0
  3
Divide ____ . . ____ . . ____ . . ____ . . ____
 72
65
 73
6
 40
31.75
 49
12.6999999999999993
 74
0
 49
-6.3499999999999996
 74
0
 49
0.0
 74
0
 49
-6.3499999999999996
 74
0
 49
0.0
 74
0
 49
-6.3499999999999996
 74
0
  0
LTYPE
  5
3B
100
AcDbSymbolTableRecord
100
AcDbLinetypeTableRecord
  2
DIVIDE2
 70
0
  3
Divide (.5x) __..__..__..__..__..__..__..__.._
 72
65
 73
6
 40
15.875
 49
6.3499999999999996
 74
0
 49
-3.1749999999999998
 74
0
 49
0.0
 74
0
 49
-3.1749999999999998
 74
0
 49
0.0
 74
0
 49
-3.1749999999999998
 74
0
  0
LTYPE
  5
3C
100
AcDbSymbolTableRecord
100
AcDbLinetypeTableRecord
  2
DIVIDEX2
 70
0
  3
Divide (2x) ________  .  .  ________  .  .  _
 72
65
 73
6
 40
63.5
 49
25.3999999999999986
 74
0
 49
-12.6999999999999993
 74
0
 49
0.0
 74
0
 49
-12.6999999999999993
 74
0
 49
0.0
 74
0
 49
-12.6999999999999993
 74
0
  0
LTYPE
  5
3D
100
AcDbSymbolTableRecord
100
AcDbLinetypeTableRecord
  2
CENTER
 70
0
  3
Center ____ _ ____ _ ____ _ ____ _ ____ _ ____
 72
65
 73
4
 40
50.7999999999999972
 49
31.75
 74
0
 49
-6.3499999999999996
 74
0
 49
6.3499999999999996
 74
0
 49
-6.3499999999999996
 74
0
  0
LTYPE
  5
3E
100
AcDbSymbolTableRecord
100
AcDbLinetypeTableRecord
  2
CENTER2
 70
0
  3
Center (.5x) ___ _ ___ _ ___ _ ___ _ ___ _ ___
 72
65
 73
4
 40
28.5749999999999993
 49
19.0500000000000007
 74
0
 49
-3.1749999999999998
 74
0
 49
3.1749999999999998
 74
0
 49
-3.1749999999999998
 74
0
  0
LTYPE
  5
3F
100
AcDbSymbolTableRecord
100
AcDbLinetypeTableRecord
  2
CENTERX2
 70
0
  3
Center (2x) ________  __  ________  __  _____
 72
65
 73
4
 40
101.5999999999999943
 49
63.5
 74
0
 49
-12.6999999999999993
 74
0
 49
12.6999999999999993
 74
0
 49
-12.6999999999999993
 74
0
  0
LTYPE
  5
40
100
AcDbSymbolTableRecord
100
AcDbLinetypeTableRecord
  2
BORDER
 70
0
  3
Border __ __ . __ __ . __ __ . __ __ . __ __ .
 72
65
 73
6
 40
44.4500000000000028
 49
12.6999999999999993
 74
0
 49
-6.3499999999999996
 74
0
 49
12.6999999999999993
 74
0
 49
-6.3499999999999996
 74
0
 49
0.0
 74
0
 49
-6.3499999999999996
 74
0
  0
LTYPE
  5
41
100
AcDbSymbolTableRecord
100
AcDbLinetypeTableRecord
  2
BORDER2
 70
0
  3
Border (.5x) __.__.__.__.__.__.__.__.__.__.__.
 72
65
 73
6
 40
22.2250000000000014
 49
6.3499999999999996
 74
0
 49
-3.1749999999999998
 74
0
 49
6.3499999999999996
 74
0
 49
-3.1749999999999998
 74
0
 49
0.0
 74
0
 49
-3.1749999999999998
 74
0
  0
LTYPE
  5
42
100
AcDbSymbolTableRecord
100
AcDbLinetypeTableRecord
  2
BORDERX2
 70
0
  3
Border (2x) ____  ____  .  ____  ____  .  ___
 72
65
 73
6
 40
88.9000000000000057
 49
25.3999999999999986
 74
0
 49
-12.6999999999999993
 74
0
 49
25.3999999999999986
 74
0
 49
-12.6999999999999993
 74
0
 49
0.0
 74
0
 49
-12.6999999999999993
 74
0
  0
ENDTAB
  0
TABLE
  2
LAYER
  5
2
100
AcDbSymbolTable
 70
6
  0
LAYER
  5
10
100
AcDbSymbolTableRecord
100
AcDbLayerTableRecord
  2
0
 70
0
 62
7
420
16777215
  6
CONTINUOUS
370
0
390
F
  0
LAYER
  5
43
100
AcDbSymbolTableRecord
100
AcDbLayerTableRecord
  2
Text
 70
0
 62
4
420
65535
  6
CONTINUOUS
370
0
390
F
  0
LAYER
  5
44
100
AcDbSymbolTableRecord
100
AcDbLayerTableRecord
  2
Drawings
 70
0
 62
5
420
255
  6
CONTINUOUS
370
0
390
F
  0
LAYER
  5
45
100
AcDbSymbolTableRecord
100
AcDbLayerTableRecord
  2
Notes
 70
0
 62
7
420
16777215
  6
CONTINUOUS
370
0
390
F
  0
LAYER
  5
46
100
AcDbSymbolTableRecord
100
AcDbLayerTableRecord
  2
gear1
 70
0
 62
7
420
0
  6
CONTINUOUS
370
0
390
F
  0
LAYER
  5
47
100
AcDbSymbolTableRecord
100
AcDbLayerTableRecord
  2
drawings
 70
0
 62
7
420
0
  6
CONTINUOUS
370
0
390
F
  0
ENDTAB
  0
TABLE
  2
STYLE
  5
3
100
AcDbSymbolTable
 70
1
  0
STYLE
  5
11
100
AcDbSymbolTableRecord
100
AcDbTextStyleTableRecord
  2
Standard
 70
0
 40
0.0
 41
0.75
 50
0.0
 71
0
 42
2.5
  3
txt
  4

  0
ENDTAB
  0
TABLE
  2
VIEW
  5
6
100
AcDbSymbolTable
 70
0
  0
ENDTAB
  0
TABLE
  2
UCS
  5
7
100
AcDbSymbolTable
 70
0
  0
ENDTAB
  0
TABLE
  2
APPID
  5
9
100
AcDbSymbolTable
 70
1
  0
APPID
  5
12
100
AcDbSymbolTableRecord
100
AcDbRegAppTableRecord
  2
ACAD
 70
0
  0
ENDTAB
  0
TABLE
  2
DIMSTYLE
  5
A
100
AcDbSymbolTable
 70
1
100
AcDbDimStyleTable
 71
0
  0
DIMSTYLE
105
27
100
AcDbSymbolTableRecord
100
AcDbDimStyleTableRecord
  2
Standard
 41
2.5
 42
0.625
 43
3.75
 44
1.25
 70
0
 73
0
 74
0
 77
1
 78
8
140
2.5
141
2.5
143
0.03937007874016
147
0.625
171
3
172
1
271
2
272
2
274
3
278
44
283
0
284
8
340
11
  0
ENDTAB
  0
TABLE
  2
BLOCK_RECORD
  5
1
100
AcDbSymbolTable
 70
1
  0
BLOCK_RECORD
  5
1F
100
AcDbSymbolTableRecord
100
AcDbBlockTableRecord
  2
*Model_Space
340
22
  0
BLOCK_RECORD
  5
1B
100
AcDbSymbolTableRecord
100
AcDbBlockTableRecord
  2
*Paper_Space
340
1E
  0
BLOCK_RECORD
  5
23
100
AcDbSymbolTableRecord
100
AcDbBlockTableRecord
  2
*Paper_Space0
340
26
  0
ENDTAB
  0
ENDSEC
  0
SECTION
  2
BLOCKS
  0
BLOCK
  5
20
100
AcDbEntity
  8
0
100
AcDbBlockBegin
  2
*Model_Space
 70
0
 10
0.0
 20
0.0
 30
0.0
  3
*Model_Space
  1

  0
ENDBLK
  5
21
100
AcDbEntity
  8
0
100
AcDbBlockEnd
  0
BLOCK
  5
1C
100
AcDbEntity
 67
1
  8
0
100
AcDbBlockBegin
  2
*Paper_Space
 70
0
 10
0.0
 20
0.0
 30
0.0
  3
*Paper_Space
  1

  0
ENDBLK
  5
1D
100
AcDbEntity
 67
1
  8
0
100
AcDbBlockEnd
  0
BLOCK
  5
24
100
AcDbEntity
  8
0
100
AcDbBlockBegin
  2
*Paper_Space0
 70
0
 10
0.0
 20
0.0
 30
0.0
  3
*Paper_Space0
  1

  0
ENDBLK
  5
25
100
AcDbEntity
  8
0
100
AcDbBlockEnd
  0
ENDSEC
  0
SECTION
  2
ENTITIES
  0
MTEXT
  5
48
100
AcDbEntity
100
AcDbMText
  8
Notes
 62
256
370
-1
  6
ByLayer
 10
40.0
 20
70.0
 30
0.0
 40
3.0
 41
100.0
 71
1
 72
2
  1
Spur\~Gear\PMaterial:\~1/4"\~acrylic
  7
standard
 50
0.0
 73
0
 44
1.0
  0
LINE
  5
49
100
AcDbEntity
100
AcDbLine
  8
Drawings
 62
256
370
0
  6
ByLayer
 10
57.5461559037396384
 20
39.930928327322917
 30
0.0
 11
52.5461559037396384
 21
39.930928327322917
 31
0.0
  0
LINE
  5
4A
100
AcDbEntity
100
AcDbLine
  8
Drawings
 62
256
370
0
  6
ByLayer
 10
57.5461559037396384
 20
39.930928327322917
 30
0.0
 11
62.5461559037396384
 21
39.930928327322917
 31
0.0
  0
CIRCLE
  5
4B
100
AcDbEntity
100
AcDbCircle
  8
Drawings
 62
256
370
0
  6
ByLayer
 10
57.5461559037396384
 20
39.930928327322917
 30
0.0
 40
5.0
  0
LINE
  5
4C
100
AcDbEntity
100
AcDbLine
  8
Drawings
 62
256
370
0
  6
ByLayer
 10
57.5461559037396384
 20
39.930928327322917
 30
0.0
 11
57.5461559037396384
 21
44.930928327322917
 31
0.0
  0
LINE
  5
4D
100
AcDbEntity
100
AcDbLine
  8
Drawings
 62
256
370
0
  6
ByLayer
 10
57.5461559037396384
 20
39.930928327322917
 30
0.0
 11
57.5461559037396384
 21
34.930928327322917
 31
0.0
  0
MTEXT
  5
4E
100
AcDbEntity
100
AcDbMText
  8
Text
 62
256
370
0
  6
ByLayer
 10
57.5461559037396384
 20
44.930928327322917
 30
0.0
 40
2.0
 41
100.0
 71
5
 72
2
  1
Spur
  7
standard
 50
0.0
 73
1
 44
1.0
  0
MTEXT
  5
4F
100
AcDbEntity
100
AcDbMText
  8
Text
 62
256
370
0
  6
ByLayer
 10
57.5461559037396384
 20
34.930928327322917
 30
0.0
 40
2.0
 41
100.0
 71
5
 72
2
  1
Gear
  7
standard
 50
0.0
 73
1
 44
1.0
  0
CIRCLE
  5
50
100
AcDbEntity
100
AcDbCircle
  8
drawings
 62
7
420
0
370
0
  6
ByLayer
 10
57.5461559037396384
 20
39.930928327322917
 30
0.0
 40
14.9973944028560719
  0
LINE
  5
51
100
AcDbEntity
100
AcDbLine
  8
0
 62
256
370
0
  6
ByLayer
 10
60.086746386284986
 20
42.0759283273229201
 30
0.0
 11
55.0055654211942908
 21
42.0759283273229201
 31
0.0
  0
ARC
  5
52
100
AcDbEntity
  8
0
 62
256
370
0
  6
ByLayer
100
AcDbCircle
 10
57.5461559037396384
 20
39.930928327322917
 30
0.0
 40
3.3250000000000002
100
AcDbArc
 50
319.8258680010101784
 51
40.1741319989898216
  0
ARC
  5
53
100
AcDbEntity
  8
0
 62
256
370
0
  6
ByLayer
100
AcDbCircle
 10
57.5461559037396384
 20
39.930928327322917
 30
0.0
 40
3.3250000000000002
100
AcDbArc
 50
139.8258680010101784
 51
220.1741319989898216
  0
LINE
  5
54
100
AcDbEntity
100
AcDbLine
  8
0
 62
256
370
0
  6
ByLayer
 10
60.086746386284986
 20
37.7859283273229138
 30
0.0
 11
55.0055654211942908
 21
37.7859283273229138
 31
0.0
  0
LINE
  5
55
100
AcDbEntity
100
AcDbLine
  8
0
 62
7
420
0
370
0
  6
ByLayer
 10
70.9849043334513965
 20
41.1903036337276944
 30
0.0
 11
71.5776180230038221
 21
41.2458996270564597
 31
0.0
  0
LINE
  5
56
100
AcDbEntity
100
AcDbLine
  8
0
 62
7
420
0
370
0
  6
ByLayer
 10
71.5776180230038221
 20
41.2458996270564597
 30
0.0
 11
72.4973141833794443
 21
41.1076158206962035
 31
0.0
  0
LINE
  5
57
100
AcDbEntity
100
AcDbLine
  8
0
 62
7
420
0
370
0
  6
ByLayer
 10
72.4973141833794443
 20
41.1076158206962035
 30
0.0
 11
74.0349302102720799
 21
40.4520031328058636
 31
0.0
  0
LINE
  5
58
100
AcDbEntity
100
AcDbLine
  8
0
 62
7
420
0
370
0
  6
ByLayer
 10
74.0349302102720799
 20
40.4520031328058636
 30
0.0
 11
74.0349302102720799
 21
39.4098061376912341
 31
0.0
  0
LINE
  5
59
100
AcDbEntity
100
AcDbLine
  8
0
 62
7
420
0
370
0
  6
ByLayer
 10
74.0349302102720799
 20
39.4098061376912341
 30
0.0
 11
72.4973141833794443
 21
38.7541934498008871
 31
0.0
  0
LINE
  5
5A
100
AcDbEntity
100
AcDbLine
  8
0
 62
7
420
0
370
0
  6
ByLayer
 10
72.4973141833794443
 20
38.7541934498008871
 30
0.0
 11
71.5776180230038221
 21
38.6159096434406379
 31
0.0
  0
LINE
  5
5B
100
AcDbEntity
100
AcDbLine
  8
0
 62
7
420
0
370
0
  6
ByLayer
 10
71.5776180230038221
 20
38.6159096434406379
 30
0.0
 11
70.9849043334513965
 21
38.6715056367694103
 31
0.0
  0
LINE
  5
5C
100
AcDbEntity
100
AcDbLine
  8
0
 62
7
420
0
370
0
  6
ByLayer
 10
70.9849043334513965
 20
38.6715056367694103
 30
0.0
 11
70.7163459027018462
 21
36.97581615409851
 31
0.0
  0
LINE
  5
5D
100
AcDbEntity
100
AcDbLine
  8
0
 62
7
420
0
370
0
  6
ByLayer
 10
70.7163459027018462
 20
36.97581615409851
 30
0.0
 11
71.2970445672110884
 21
36.8455423644337472
 31
0.0
  0
LINE
  5
5E
100
AcDbEntity
100
AcDbLine
  8
0
 62
7
420
0
370
0
  6
ByLayer
 10
71.2970445672110884
 20
36.8455423644337472
 30
0.0
 11
72.1291055022007868
 21
36.4297468718971729
 31
0.0
  0
LINE
  5
5F
100
AcDbEntity
100
AcDbLine
  8
0
 62
7
420
0
370
0
  6
ByLayer
 10
72.1291055022007868
 20
36.4297468718971729
 30
0.0
 11
73.3889761200455837
 21
35.3310123141715238
 31
0.0
  0
LINE
  5
60
100
AcDbEntity
100
AcDbLine
  8
0
 62
7
420
0
370
0
  6
ByLayer
 10
73.3889761200455837
 20
35.3310123141715238
 30
0.0
 11
73.0669410615768697
 21
34.3401717464419036
 31
0.0
  0
LINE
  5
61
100
AcDbEntity
100
AcDbLine
  8
0
 62
7
420
0
370
0
  6
ByLayer
 10
73.0669410615768697
 20
34.3401717464419036
 30
0.0
 11
71.4018767875907372
 21
34.1917577230521346
 31
0.0
  0
LINE
  5
62
100
AcDbEntity
100
AcDbLine
  8
0
 62
7
420
0
370
0
  6
ByLayer
 10
71.4018767875907372
 20
34.1917577230521346
 30
0.0
 11
70.484537054594341
 21
34.3444121471102193
 31
0.0
  0
LINE
  5
63
100
AcDbEntity
100
AcDbLine
  8
0
 62
7
420
0
370
0
  6
ByLayer
 10
70.484537054594341
 20
34.3444121471102193
 30
0.0
 11
69.9379961530273704
 21
34.5802260035653859
 31
0.0
  0
LINE
  5
64
100
AcDbEntity
100
AcDbLine
  8
0
 62
7
420
0
370
0
  6
ByLayer
 10
69.9379961530273704
 20
34.5802260035653859
 30
0.0
 11
69.1584694417500714
 21
33.0506191586436557
 31
0.0
  0
LINE
  5
65
100
AcDbEntity
100
AcDbLine
  8
0
 62
7
420
0
370
0
  6
ByLayer
 10
69.1584694417500714
 20
33.0506191586436557
 30
0.0
 11
69.6706155186051603
 21
32.747195118541093
 31
0.0
  0
LINE
  5
66
100
AcDbEntity
100
AcDbLine
  8
0
 62
7
420
0
370
0
  6
ByLayer
 10
69.6706155186051603
 20
32.747195118541093
 30
0.0
 11
70.3335312115047486
 21
32.0948795925876595
 31
0.0
  0
LINE
  5
67
100
AcDbEntity
100
AcDbLine
  8
0
 62
7
420
0
370
0
  6
ByLayer
 10
70.3335312115047486
 20
32.0948795925876595
 30
0.0
 11
71.192212346831468
 21
30.6604463703817061
 31
0.0
  0
LINE
  5
68
100
AcDbEntity
100
AcDbLine
  8
0
 62
7
420
0
370
0
  6
ByLayer
 10
71.192212346831468
 20
30.6604463703817061
 30
0.0
 11
70.5797106773100893
 21
29.8175490414007385
 31
0.0
  0
LINE
  5
69
100
AcDbEntity
100
AcDbLine
  8
0
 62
7
420
0
370
0
  6
ByLayer
 10
70.5797106773100893
 20
29.8175490414007385
 30
0.0
 11
68.9502190243632072
 21
30.1909396925299518
 31
0.0
  0
LINE
  5
6A
100
AcDbEntity
100
AcDbLine
  8
0
 62
7
420
0
370
0
  6
ByLayer
 10
68.9502190243632072
 20
30.1909396925299518
 30
0.0
 11
68.1247540826965405
 21
30.6196917793918999
 31
0.0
  0
LINE
  5
6B
100
AcDbEntity
100
AcDbLine
  8
0
 62
7
420
0
370
0
  6
ByLayer
 10
68.1247540826965405
 20
30.6196917793918999
 30
0.0
 11
67.6780988238792247
 21
31.012871245214555
 31
0.0
  0
LINE
  5
6C
100
AcDbEntity
100
AcDbLine
  8
0
 62
7
420
0
370
0
  6
ByLayer
 10
67.6780988238792247
 20
31.012871245214555
 30
0.0
 11
66.4641656016992499
 21
29.7989380230345944
 31
0.0
  0
LINE
  5
6D
100
AcDbEntity
100
AcDbLine
  8
0
 62
7
420
0
370
0
  6
ByLayer
 10
66.4641656016992499
 20
29.7989380230345944
 30
0.0
 11
66.8573450675219476
 21
29.3522827642173212
 31
0.0
  0
LINE
  5
6E
100
AcDbEntity
100
AcDbLine
  8
0
 62
7
420
0
370
0
  6
ByLayer
 10
66.8573450675219476
 20
29.3522827642173212
 30
0.0
 11
67.2860971543838673
 21
28.5268178225505835
 31
0.0
  0
LINE
  5
6F
100
AcDbEntity
100
AcDbLine
  8
0
 62
7
420
0
370
0
  6
ByLayer
 10
67.2860971543838673
 20
28.5268178225505835
 30
0.0
 11
67.6594878055130948
 21
26.8973261696037156
 31
0.0
  0
LINE
  5
70
100
AcDbEntity
100
AcDbLine
  8
0
 62
7
420
0
370
0
  6
ByLayer
 10
67.6594878055130948
 20
26.8973261696037156
 30
0.0
 11
66.8165904765321557
 21
26.2848245000823688
 31
0.0
  0
LINE
  5
71
100
AcDbEntity
100
AcDbLine
  8
0
 62
7
420
0
370
0
  6
ByLayer
 10
66.8165904765321557
 20
26.2848245000823688
 30
0.0
 11
65.382157254326188
 21
27.1435056354090989
 31
0.0
  0
LINE
  5
72
100
AcDbEntity
100
AcDbLine
  8
0
 62
7
420
0
370
0
  6
ByLayer
 10
65.382157254326188
 20
27.1435056354090989
 30
0.0
 11
64.7298417283727474
 21
27.8064213283086872
 31
0.0
  0
LINE
  5
73
100
AcDbEntity
100
AcDbLine
  8
0
 62
7
420
0
370
0
  6
ByLayer
 10
64.7298417283727474
 20
27.8064213283086872
 30
0.0
 11
64.4264176882701634
 21
28.3185674051637619
 31
0.0
  0
LINE
  5
74
100
AcDbEntity
100
AcDbLine
  8
0
 62
7
420
0
370
0
  6
ByLayer
 10
64.4264176882701634
 20
28.3185674051637619
 30
0.0
 11
62.8968108433484119
 21
27.5390406938864629
 31
0.0
  0
LINE
  5
75
100
AcDbEntity
100
AcDbLine
  8
0
 62
7
420
0
370
0
  6
ByLayer
 10
62.8968108433484119
 20
27.5390406938864629
 30
0.0
 11
63.1326246998036353
 21
26.9924997923194923
 31
0.0
  0
LINE
  5
76
100
AcDbEntity
100
AcDbLine
  8
0
 62
7
420
0
370
0
  6
ByLayer
 10
63.1326246998036353
 20
26.9924997923194923
 30
0.0
 11
63.2852791238616916
 21
26.0751600593230961
 31
0.0
  0
LINE
  5
77
100
AcDbEntity
100
AcDbLine
  8
0
 62
7
420
0
370
0
  6
ByLayer
 10
63.2852791238616916
 20
26.0751600593230961
 30
0.0
 11
63.1368651004719013
 21
24.4100957853369493
 31
0.0
  0
LINE
  5
78
100
AcDbEntity
100
AcDbLine
  8
0
 62
7
420
0
370
0
  6
ByLayer
 10
63.1368651004719013
 20
24.4100957853369493
 30
0.0
 11
62.1460245327422953
 21
24.0880607268682212
 31
0.0
  0
LINE
  5
79
100
AcDbEntity
100
AcDbLine
  8
0
 62
7
420
0
370
0
  6
ByLayer
 10
62.1460245327422953
 20
24.0880607268682212
 30
0.0
 11
61.0472899750166462
 21
25.3479313447130892
 31
0.0
  0
LINE
  5
7A
100
AcDbEntity
100
AcDbLine
  8
0
 62
7
420
0
370
0
  6
ByLayer
 10
61.0472899750166462
 20
25.3479313447130892
 30
0.0
 11
60.6314944824801145
 21
26.1799922797027449
 31
0.0
  0
LINE
  5
7B
100
AcDbEntity
100
AcDbLine
  8
0
 62
7
420
0
370
0
  6
ByLayer
 10
60.6314944824801145
 20
26.1799922797027449
 30
0.0
 11
60.5012206928153304
 21
26.7606909442119871
 31
0.0
  0
LINE
  5
7C
100
AcDbEntity
100
AcDbLine
  8
0
 62
7
420
0
370
0
  6
ByLayer
 10
60.5012206928153304
 20
26.7606909442119871
 30
0.0
 11
58.8055312101444301
 21
26.4921325134624368
 31
0.0
  0
LINE
  5
7D
100
AcDbEntity
100
AcDbLine
  8
0
 62
7
420
0
370
0
  6
ByLayer
 10
58.8055312101444301
 20
26.4921325134624368
 30
0.0
 11
58.8611272034732096
 21
25.8994188239100112
 31
0.0
  0
LINE
  5
7E
100
AcDbEntity
100
AcDbLine
  8
0
 62
7
420
0
370
0
  6
ByLayer
 10
58.8611272034732096
 20
25.8994188239100112
 30
0.0
 11
58.7228433971129888
 21
24.979722663534389
 31
0.0
  0
LINE
  5
7F
100
AcDbEntity
100
AcDbLine
  8
0
 62
7
420
0
370
0
  6
ByLayer
 10
58.7228433971129888
 20
24.979722663534389
 30
0.0
 11
58.0672307092225779
 21
23.4421066366417676
 31
0.0
  0
LINE
  5
80
100
AcDbEntity
100
AcDbLine
  8
0
 62
7
420
0
370
0
  6
ByLayer
 10
58.0672307092225779
 20
23.4421066366417676
 30
0.0
 11
57.0250337141079413
 21
23.4421066366417676
 31
0.0
  0
LINE
  5
81
100
AcDbEntity
100
AcDbLine
  8
0
 62
7
420
0
370
0
  6
ByLayer
 10
57.0250337141079413
 20
23.4421066366417676
 30
0.0
 11
56.3694210262175588
 21
24.979722663534389
 31
0.0
  0
LINE
  5
82
100
AcDbEntity
100
AcDbLine
  8
0
 62
7
420
0
370
0
  6
ByLayer
 10
56.3694210262175588
 20
24.979722663534389
 30
0.0
 11
56.231137219857338
 21
25.8994188239100112
 31
0.0
  0
LINE
  5
83
100
AcDbEntity
100
AcDbLine
  8
0
 62
7
420
0
370
0
  6
ByLayer
 10
56.231137219857338
 20
25.8994188239100112
 30
0.0
 11
56.2867332131861176
 21
26.4921325134624368
 31
0.0
  0
LINE
  5
84
100
AcDbEntity
100
AcDbLine
  8
0
 62
7
420
0
370
0
  6
ByLayer
 10
56.2867332131861176
 20
26.4921325134624368
 30
0.0
 11
54.5910437305152456
 21
26.7606909442119871
 31
0.0
  0
LINE
  5
85
100
AcDbEntity
100
AcDbLine
  8
0
 62
7
420
0
370
0
  6
ByLayer
 10
54.5910437305152456
 20
26.7606909442119871
 30
0.0
 11
54.4607699408504331
 21
26.1799922797027449
 31
0.0
  0
LINE
  5
86
100
AcDbEntity
100
AcDbLine
  8
0
 62
7
420
0
370
0
  6
ByLayer
 10
54.4607699408504331
 20
26.1799922797027449
 30
0.0
 11
54.0449744483139156
 21
25.3479313447130892
 31
0.0
  0
LINE
  5
87
100
AcDbEntity
100
AcDbLine
  8
0
 62
7
420
0
370
0
  6
ByLayer
 10
54.0449744483139156
 20
25.3479313447130892
 30
0.0
 11
52.9462398905882807
 21
24.0880607268682212
 31
0.0
  0
LINE
  5
88
100
AcDbEntity
100
AcDbLine
  8
0
 62
7
420
0
370
0
  6
ByLayer
 10
52.9462398905882807
 20
24.0880607268682212
 30
0.0
 11
51.9553993228586748
 21
24.4100957853369493
 31
0.0
  0
LINE
  5
89
100
AcDbEntity
100
AcDbLine
  8
0
 62
7
420
0
370
0
  6
ByLayer
 10
51.9553993228586748
 20
24.4100957853369493
 30
0.0
 11
51.806985299468856
 21
26.0751600593230961
 31
0.0
  0
LINE
  5
8A
100
AcDbEntity
100
AcDbLine
  8
0
 62
7
420
0
370
0
  6
ByLayer
 10
51.806985299468856
 20
26.0751600593230961
 30
0.0
 11
51.9596397235269407
 21
26.9924997923194994
 31
0.0
  0
LINE
  5
8B
100
AcDbEntity
100
AcDbLine
  8
0
 62
7
420
0
370
0
  6
ByLayer
 10
51.9596397235269407
 20
26.9924997923194994
 30
0.0
 11
52.1954535799821642
 21
27.5390406938864629
 31
0.0
  0
LINE
  5
8C
100
AcDbEntity
100
AcDbLine
  8
0
 62
7
420
0
370
0
  6
ByLayer
 10
52.1954535799821642
 20
27.5390406938864629
 30
0.0
 11
50.6658467350604198
 21
28.3185674051637619
 31
0.0
  0
LINE
  5
8D
100
AcDbEntity
100
AcDbLine
  8
0
 62
7
420
0
370
0
  6
ByLayer
 10
50.6658467350604198
 20
28.3185674051637619
 30
0.0
 11
50.3624226949578357
 21
27.8064213283086872
 31
0.0
  0
LINE
  5
8E
100
AcDbEntity
100
AcDbLine
  8
0
 62
7
420
0
370
0
  6
ByLayer
 10
50.3624226949578357
 20
27.8064213283086872
 30
0.0
 11
49.7101071690043952
 21
27.1435056354090989
 31
0.0
  0
LINE
  5
8F
100
AcDbEntity
100
AcDbLine
  8
0
 62
7
420
0
370
0
  6
ByLayer
 10
49.7101071690043952
 20
27.1435056354090989
 30
0.0
 11
48.2756739467983991
 21
26.2848245000823937
 31
0.0
  0
LINE
  5
90
100
AcDbEntity
100
AcDbLine
  8
0
 62
7
420
0
370
0
  6
ByLayer
 10
48.2756739467983991
 20
26.2848245000823937
 30
0.0
 11
47.4327766178174883
 21
26.8973261696037156
 31
0.0
  0
LINE
  5
91
100
AcDbEntity
100
AcDbLine
  8
0
 62
7
420
0
370
0
  6
ByLayer
 10
47.4327766178174883
 20
26.8973261696037156
 30
0.0
 11
47.806167268946659
 21
28.5268178225505977
 31
0.0
  0
LINE
  5
92
100
AcDbEntity
100
AcDbLine
  8
0
 62
7
420
0
370
0
  6
ByLayer
 10
47.806167268946659
 20
28.5268178225505977
 30
0.0
 11
48.2349193558086355
 21
29.3522827642173212
 31
0.0
  0
LINE
  5
93
100
AcDbEntity
100
AcDbLine
  8
0
 62
7
420
0
370
0
  6
ByLayer
 10
48.2349193558086355
 20
29.3522827642173212
 30
0.0
 11
48.6280988216313048
 21
29.7989380230345944
 31
0.0
  0
LINE
  5
94
100
AcDbEntity
100
AcDbLine
  8
0
 62
7
420
0
370
0
  6
ByLayer
 10
48.6280988216313048
 20
29.7989380230345944
 30
0.0
 11
47.41416559945133
 21
31.0128712452145692
 31
0.0
  0
LINE
  5
95
100
AcDbEntity
100
AcDbLine
  8
0
 62
7
420
0
370
0
  6
ByLayer
 10
47.41416559945133
 20
31.0128712452145692
 30
0.0
 11
46.9675103406340142
 21
30.6196917793918999
 31
0.0
  0
LINE
  5
96
100
AcDbEntity
100
AcDbLine
  8
0
 62
7
420
0
370
0
  6
ByLayer
 10
46.9675103406340142
 20
30.6196917793918999
 30
0.0
 11
46.1420453989673476
 21
30.1909396925299518
 31
0.0
  0
LINE
  5
97
100
AcDbEntity
100
AcDbLine
  8
0
 62
7
420
0
370
0
  6
ByLayer
 10
46.1420453989673476
 20
30.1909396925299518
 30
0.0
 11
44.5125537460204654
 21
29.8175490414007669
 31
0.0
  0
LINE
  5
98
100
AcDbEntity
100
AcDbLine
  8
0
 62
7
420
0
370
0
  6
ByLayer
 10
44.5125537460204654
 20
29.8175490414007669
 30
0.0
 11
43.9000520764991151
 21
30.6604463703817203
 31
0.0
  0
LINE
  5
99
100
AcDbEntity
100
AcDbLine
  8
0
 62
7
420
0
370
0
  6
ByLayer
 10
43.9000520764991151
 20
30.6604463703817203
 30
0.0
 11
44.7587332118258345
 21
32.0948795925876738
 31
0.0
  0
LINE
  5
9A
100
AcDbEntity
100
AcDbLine
  8
0
 62
7
420
0
370
0
  6
ByLayer
 10
44.7587332118258345
 20
32.0948795925876738
 30
0.0
 11
45.4216489047254228
 21
32.7471951185411001
 31
0.0
  0
LINE
  5
9B
100
AcDbEntity
100
AcDbLine
  8
0
 62
7
420
0
370
0
  6
ByLayer
 10
45.4216489047254228
 20
32.7471951185411001
 30
0.0
 11
45.9337949815804834
 21
33.0506191586436771
 31
0.0
  0
LINE
  5
9C
100
AcDbEntity
100
AcDbLine
  8
0
 62
7
420
0
370
0
  6
ByLayer
 10
45.9337949815804834
 20
33.0506191586436771
 30
0.0
 11
45.1542682703032128
 21
34.5802260035654285
 31
0.0
  0
LINE
  5
9D
100
AcDbEntity
100
AcDbLine
  8
0
 62
7
420
0
370
0
  6
ByLayer
 10
45.1542682703032128
 20
34.5802260035654285
 30
0.0
 11
44.6077273687362137
 21
34.3444121471102406
 31
0.0
  0
LINE
  5
9E
100
AcDbEntity
100
AcDbLine
  8
0
 62
7
420
0
370
0
  6
ByLayer
 10
44.6077273687362137
 20
34.3444121471102406
 30
0.0
 11
43.6903876357398175
 21
34.191757723052163
 31
0.0
  0
LINE
  5
9F
100
AcDbEntity
100
AcDbLine
  8
0
 62
7
420
0
370
0
  6
ByLayer
 10
43.6903876357398175
 20
34.191757723052163
 30
0.0
 11
42.025323361753685
 21
34.3401717464419249
 31
0.0
  0
LINE
  5
A0
100
AcDbEntity
100
AcDbLine
  8
0
 62
7
420
0
370
0
  6
ByLayer
 10
42.025323361753685
 20
34.3401717464419249
 30
0.0
 11
41.7032883032849711
 21
35.3310123141715309
 31
0.0
  0
LINE
  5
A1
100
AcDbEntity
100
AcDbLine
  8
0
 62
7
420
0
370
0
  6
ByLayer
 10
41.7032883032849711
 20
35.3310123141715309
 30
0.0
 11
42.9631589211297964
 21
36.4297468718971942
 31
0.0
  0
LINE
  5
A2
100
AcDbEntity
100
AcDbLine
  8
0
 62
7
420
0
370
0
  6
ByLayer
 10
42.9631589211297964
 20
36.4297468718971942
 30
0.0
 11
43.7952198561194663
 21
36.8455423644337543
 31
0.0
  0
LINE
  5
A3
100
AcDbEntity
100
AcDbLine
  8
0
 62
7
420
0
370
0
  6
ByLayer
 10
43.7952198561194663
 20
36.8455423644337543
 30
0.0
 11
44.3759185206287086
 21
36.9758161540985526
 31
0.0
  0
LINE
  5
A4
100
AcDbEntity
100
AcDbLine
  8
0
 62
7
420
0
370
0
  6
ByLayer
 10
44.3759185206287086
 20
36.9758161540985526
 30
0.0
 11
44.1073600898791867
 21
38.6715056367693748
 31
0.0
  0
LINE
  5
A5
100
AcDbEntity
100
AcDbLine
  8
0
 62
7
420
0
370
0
  6
ByLayer
 10
44.1073600898791867
 20
38.6715056367693748
 30
0.0
 11
43.514646400326761
 21
38.6159096434406877
 31
0.0
  0
LINE
  5
A6
100
AcDbEntity
100
AcDbLine
  8
0
 62
7
420
0
370
0
  6
ByLayer
 10
43.514646400326761
 20
38.6159096434406877
 30
0.0
 11
42.5949502399511104
 21
38.75419344980088
 31
0.0
  0
LINE
  5
A7
100
AcDbEntity
100
AcDbLine
  8
0
 62
7
420
0
370
0
  6
ByLayer
 10
42.5949502399511104
 20
38.75419344980088
 30
0.0
 11
41.0573342130585033
 21
39.4098061376912412
 31
0.0
  0
LINE
  5
A8
100
AcDbEntity
100
AcDbLine
  8
0
 62
7
420
0
370
0
  6
ByLayer
 10
41.0573342130585033
 20
39.4098061376912412
 30
0.0
 11
41.0573342130585033
 21
40.4520031328058636
 31
0.0
  0
LINE
  5
A9
100
AcDbEntity
100
AcDbLine
  8
0
 62
7
420
0
370
0
  6
ByLayer
 10
41.0573342130585033
 20
40.4520031328058636
 30
0.0
 11
42.5949502399511104
 21
41.1076158206962248
 31
0.0
  0
LINE
  5
AA
100
AcDbEntity
100
AcDbLine
  8
0
 62
7
420
0
370
0
  6
ByLayer
 10
42.5949502399511104
 20
41.1076158206962248
 30
0.0
 11
43.514646400326761
 21
41.2458996270564739
 31
0.0
  0
LINE
  5
AB
100
AcDbEntity
100
AcDbLine
  8
0
 62
7
420
0
370
0
  6
ByLayer
 10
43.514646400326761
 20
41.2458996270564739
 30
0.0
 11
44.1073600898791867
 21
41.1903036337277371
 31
0.0
  0
LINE
  5
AC
100
AcDbEntity
100
AcDbLine
  8
0
 62
7
420
0
370
0
  6
ByLayer
 10
44.1073600898791867
 20
41.1903036337277371
 30
0.0
 11
44.3759185206287086
 21
42.8859931163985522
 31
0.0
  0
LINE
  5
AD
100
AcDbEntity
100
AcDbLine
  8
0
 62
7
420
0
370
0
  6
ByLayer
 10
44.3759185206287086
 20
42.8859931163985522
 30
0.0
 11
43.7952198561194663
 21
43.0162669060633647
 31
0.0
  0
LINE
  5
AE
100
AcDbEntity
100
AcDbLine
  8
0
 62
7
420
0
370
0
  6
ByLayer
 10
43.7952198561194663
 20
43.0162669060633647
 30
0.0
 11
42.9631589211297964
 21
43.4320623985999248
 31
0.0
  0
LINE
  5
AF
100
AcDbEntity
100
AcDbLine
  8
0
 62
7
420
0
370
0
  6
ByLayer
 10
42.9631589211297964
 20
43.4320623985999248
 30
0.0
 11
41.7032883032849711
 21
44.530796956325581
 31
0.0
  0
LINE
  5
B0
100
AcDbEntity
100
AcDbLine
  8
0
 62
7
420
0
370
0
  6
ByLayer
 10
41.7032883032849711
 20
44.530796956325581
 30
0.0
 11
42.025323361753685
 21
45.5216375240551656
 31
0.0
  0
LINE
  5
B1
100
AcDbEntity
100
AcDbLine
  8
0
 62
7
420
0
370
0
  6
ByLayer
 10
42.025323361753685
 20
45.5216375240551656
 30
0.0
 11
43.690387635739846
 21
45.670051547444956
 31
0.0
  0
LINE
  5
B2
100
AcDbEntity
100
AcDbLine
  8
0
 62
7
420
0
370
0
  6
ByLayer
 10
43.690387635739846
 20
45.670051547444956
 30
0.0
 11
44.6077273687362137
 21
45.5173971233868713
 31
0.0
  0
LINE
  5
B3
100
AcDbEntity
100
AcDbLine
  8
0
 62
7
420
0
370
0
  6
ByLayer
 10
44.6077273687362137
 20
45.5173971233868713
 30
0.0
 11
45.1542682703032128
 21
45.2815832669317047
 31
0.0
  0
LINE
  5
B4
100
AcDbEntity
100
AcDbLine
  8
0
 62
7
420
0
370
0
  6
ByLayer
 10
45.1542682703032128
 20
45.2815832669317047
 30
0.0
 11
45.9337949815804834
 21
46.8111901118534348
 31
0.0
  0
LINE
  5
B5
100
AcDbEntity
100
AcDbLine
  8
0
 62
7
420
0
370
0
  6
ByLayer
 10
45.9337949815804834
 20
46.8111901118534348
 30
0.0
 11
45.4216489047254228
 21
47.1146141519560047
 31
0.0
  0
LINE
  5
B6
100
AcDbEntity
100
AcDbLine
  8
0
 62
7
420
0
370
0
  6
ByLayer
 10
45.4216489047254228
 20
47.1146141519560047
 30
0.0
 11
44.7587332118258345
 21
47.7669296779094452
 31
0.0
  0
LINE
  5
B7
100
AcDbEntity
100
AcDbLine
  8
0
 62
7
420
0
370
0
  6
ByLayer
 10
44.7587332118258345
 20
47.7669296779094452
 30
0.0
 11
43.9000520764991151
 21
49.2013629001153987
 31
0.0
  0
LINE
  5
B8
100
AcDbEntity
100
AcDbLine
  8
0
 62
7
420
0
370
0
  6
ByLayer
 10
43.9000520764991151
 20
49.2013629001153987
 30
0.0
 11
44.5125537460204654
 21
50.0442602290963379
 31
0.0
  0
LINE
  5
B9
100
AcDbEntity
100
AcDbLine
  8
0
 62
7
420
0
370
0
  6
ByLayer
 10
44.5125537460204654
 20
50.0442602290963379
 30
0.0
 11
46.1420453989673476
 21
49.6708695779671388
 31
0.0
  0
LINE
  5
BA
100
AcDbEntity
100
AcDbLine
  8
0
 62
7
420
0
370
0
  6
ByLayer
 10
46.1420453989673476
 20
49.6708695779671388
 30
0.0
 11
46.9675103406340142
 21
49.2421174911052049
 31
0.0
  0
LINE
  5
BB
100
AcDbEntity
100
AcDbLine
  8
0
 62
7
420
0
370
0
  6
ByLayer
 10
46.9675103406340142
 20
49.2421174911052049
 30
0.0
 11
47.4141655994513584
 21
48.8489380252825214
 31
0.0
  0
LINE
  5
BC
100
AcDbEntity
100
AcDbLine
  8
0
 62
7
420
0
370
0
  6
ByLayer
 10
47.4141655994513584
 20
48.8489380252825214
 30
0.0
 11
48.6280988216313048
 21
50.0628712474624962
 31
0.0
  0
LINE
  5
BD
100
AcDbEntity
100
AcDbLine
  8
0
 62
7
420
0
370
0
  6
ByLayer
 10
48.6280988216313048
 20
50.0628712474624962
 30
0.0
 11
48.2349193558086355
 21
50.5095265062797836
 31
0.0
  0
LINE
  5
BE
100
AcDbEntity
100
AcDbLine
  8
0
 62
7
420
0
370
0
  6
ByLayer
 10
48.2349193558086355
 20
50.5095265062797836
 30
0.0
 11
47.8061672689466874
 21
51.334991447946507
 31
0.0
  0
LINE
  5
BF
100
AcDbEntity
100
AcDbLine
  8
0
 62
7
420
0
370
0
  6
ByLayer
 10
47.8061672689466874
 20
51.334991447946507
 30
0.0
 11
47.4327766178174883
 21
52.964483100893375
 31
0.0
  0
LINE
  5
C0
100
AcDbEntity
100
AcDbLine
  8
0
 62
7
420
0
370
0
  6
ByLayer
 10
47.4327766178174883
 20
52.964483100893375
 30
0.0
 11
48.2756739467983991
 21
53.5769847704147111
 31
0.0
  0
LINE
  5
C1
100
AcDbEntity
100
AcDbLine
  8
0
 62
7
420
0
370
0
  6
ByLayer
 10
48.2756739467983991
 20
53.5769847704147111
 30
0.0
 11
49.7101071690043952
 21
52.7183036350880059
 31
0.0
  0
LINE
  5
C2
100
AcDbEntity
100
AcDbLine
  8
0
 62
7
420
0
370
0
  6
ByLayer
 10
49.7101071690043952
 20
52.7183036350880059
 30
0.0
 11
50.3624226949578357
 21
52.0553879421884176
 31
0.0
  0
LINE
  5
C3
100
AcDbEntity
100
AcDbLine
  8
0
 62
7
420
0
370
0
  6
ByLayer
 10
50.3624226949578357
 20
52.0553879421884176
 30
0.0
 11
50.6658467350604198
 21
51.5432418653333428
 31
0.0
  0
LINE
  5
C4
100
AcDbEntity
100
AcDbLine
  8
0
 62
7
420
0
370
0
  6
ByLayer
 10
50.6658467350604198
 20
51.5432418653333428
 30
0.0
 11
52.1954535799821642
 21
52.3227685766106418
 31
0.0
  0
LINE
  5
C5
100
AcDbEntity
100
AcDbLine
  8
0
 62
7
420
0
370
0
  6
ByLayer
 10
52.1954535799821642
 20
52.3227685766106418
 30
0.0
 11
51.9596397235269407
 21
52.8693094781775983
 31
0.0
  0
LINE
  5
C6
100
AcDbEntity
100
AcDbLine
  8
0
 62
7
420
0
370
0
  6
ByLayer
 10
51.9596397235269407
 20
52.8693094781775983
 30
0.0
 11
51.806985299468856
 21
53.7866492111739944
 31
0.0
  0
LINE
  5
C7
100
AcDbEntity
100
AcDbLine
  8
0
 62
7
420
0
370
0
  6
ByLayer
 10
51.806985299468856
 20
53.7866492111739944
 30
0.0
 11
51.9553993228586748
 21
55.4517134851601412
 31
0.0
  0
LINE
  5
C8
100
AcDbEntity
100
AcDbLine
  8
0
 62
7
420
0
370
0
  6
ByLayer
 10
51.9553993228586748
 20
55.4517134851601412
 30
0.0
 11
52.9462398905882807
 21
55.7737485436288836
 31
0.0
  0
LINE
  5
C9
100
AcDbEntity
100
AcDbLine
  8
0
 62
7
420
0
370
0
  6
ByLayer
 10
52.9462398905882807
 20
55.7737485436288836
 30
0.0
 11
54.0449744483139156
 21
54.5138779257840156
 31
0.0
  0
LINE
  5
CA
100
AcDbEntity
100
AcDbLine
  8
0
 62
7
420
0
370
0
  6
ByLayer
 10
54.0449744483139156
 20
54.5138779257840156
 30
0.0
 11
54.4607699408504331
 21
53.6818169907943599
 31
0.0
  0
LINE
  5
CB
100
AcDbEntity
100
AcDbLine
  8
0
 62
7
420
0
370
0
  6
ByLayer
 10
54.4607699408504331
 20
53.6818169907943599
 30
0.0
 11
54.5910437305152456
 21
53.1011183262851034
 31
0.0
  0
LINE
  5
CC
100
AcDbEntity
100
AcDbLine
  8
0
 62
7
420
0
370
0
  6
ByLayer
 10
54.5910437305152456
 20
53.1011183262851034
 30
0.0
 11
56.2867332131861176
 21
53.3696767570346537
 31
0.0
  0
LINE
  5
CD
100
AcDbEntity
100
AcDbLine
  8
0
 62
7
420
0
370
0
  6
ByLayer
 10
56.2867332131861176
 20
53.3696767570346537
 30
0.0
 11
56.231137219857338
 21
53.9623904465870936
 31
0.0
  0
LINE
  5
CE
100
AcDbEntity
100
AcDbLine
  8
0
 62
7
420
0
370
0
  6
ByLayer
 10
56.231137219857338
 20
53.9623904465870936
 30
0.0
 11
56.3694210262175872
 21
54.8820866069627158
 31
0.0
  0
LINE
  5
CF
100
AcDbEntity
100
AcDbLine
  8
0
 62
7
420
0
370
0
  6
ByLayer
 10
56.3694210262175872
 20
54.8820866069627158
 30
0.0
 11
57.0250337141079555
 21
56.4197026338553371
 31
0.0
  0
LINE
  5
D0
100
AcDbEntity
100
AcDbLine
  8
0
 62
7
420
0
370
0
  6
ByLayer
 10
57.0250337141079555
 20
56.4197026338553371
 30
0.0
 11
58.0672307092225921
 21
56.4197026338553371
 31
0.0
  0
LINE
  5
D1
100
AcDbEntity
100
AcDbLine
  8
0
 62
7
420
0
370
0
  6
ByLayer
 10
58.0672307092225921
 20
56.4197026338553371
 30
0.0
 11
58.7228433971129888
 21
54.8820866069627158
 31
0.0
  0
LINE
  5
D2
100
AcDbEntity
100
AcDbLine
  8
0
 62
7
420
0
370
0
  6
ByLayer
 10
58.7228433971129888
 20
54.8820866069627158
 30
0.0
 11
58.8611272034732096
 21
53.9623904465870936
 31
0.0
  0
LINE
  5
D3
100
AcDbEntity
100
AcDbLine
  8
0
 62
7
420
0
370
0
  6
ByLayer
 10
58.8611272034732096
 20
53.9623904465870936
 30
0.0
 11
58.8055312101444301
 21
53.3696767570346537
 31
0.0
  0
LINE
  5
D4
100
AcDbEntity
100
AcDbLine
  8
0
 62
7
420
0
370
0
  6
ByLayer
 10
58.8055312101444301
 20
53.3696767570346537
 30
0.0
 11
60.5012206928153304
 21
53.1011183262851034
 31
0.0
  0
LINE
  5
D5
100
AcDbEntity
100
AcDbLine
  8
0
 62
7
420
0
370
0
  6
ByLayer
 10
60.5012206928153304
 20
53.1011183262851034
 30
0.0
 11
60.6314944824800861
 21
53.6818169907943599
 31
0.0
  0
LINE
  5
D6
100
AcDbEntity
100
AcDbLine
  8
0
 62
7
420
0
370
0
  6
ByLayer
 10
60.6314944824800861
 20
53.6818169907943599
 30
0.0
 11
61.0472899750166604
 21
54.5138779257840156
 31
0.0
  0
LINE
  5
D7
100
AcDbEntity
100
AcDbLine
  8
0
 62
7
420
0
370
0
  6
ByLayer
 10
61.0472899750166604
 20
54.5138779257840156
 30
0.0
 11
62.1460245327422953
 21
55.7737485436288836
 31
0.0
  0
LINE
  5
D8
100
AcDbEntity
100
AcDbLine
  8
0
 62
7
420
0
370
0
  6
ByLayer
 10
62.1460245327422953
 20
55.7737485436288836
 30
0.0
 11
63.1368651004719013
 21
55.4517134851601412
 31
0.0
  0
LINE
  5
D9
100
AcDbEntity
100
AcDbLine
  8
0
 62
7
420
0
370
0
  6
ByLayer
 10
63.1368651004719013
 20
55.4517134851601412
 30
0.0
 11
63.2852791238616916
 21
53.7866492111739944
 31
0.0
  0
LINE
  5
DA
100
AcDbEntity
100
AcDbLine
  8
0
 62
7
420
0
370
0
  6
ByLayer
 10
63.2852791238616916
 20
53.7866492111739944
 30
0.0
 11
63.1326246998036353
 21
52.8693094781775983
 31
0.0
  0
LINE
  5
DB
100
AcDbEntity
100
AcDbLine
  8
0
 62
7
420
0
370
0
  6
ByLayer
 10
63.1326246998036353
 20
52.8693094781775983
 30
0.0
 11
62.8968108433484119
 21
52.3227685766106418
 31
0.0
  0
LINE
  5
DC
100
AcDbEntity
100
AcDbLine
  8
0
 62
7
420
0
370
0
  6
ByLayer
 10
62.8968108433484119
 20
52.3227685766106418
 30
0.0
 11
64.4264176882701634
 21
51.5432418653333428
 31
0.0
  0
LINE
  5
DD
100
AcDbEntity
100
AcDbLine
  8
0
 62
7
420
0
370
0
  6
ByLayer
 10
64.4264176882701634
 20
51.5432418653333428
 30
0.0
 11
64.7298417283727474
 21
52.0553879421884176
 31
0.0
  0
LINE
  5
DE
100
AcDbEntity
100
AcDbLine
  8
0
 62
7
420
0
370
0
  6
ByLayer
 10
64.7298417283727474
 20
52.0553879421884176
 30
0.0
 11
65.382157254326188
 21
52.7183036350880059
 31
0.0
  0
LINE
  5
DF
100
AcDbEntity
100
AcDbLine
  8
0
 62
7
420
0
370
0
  6
ByLayer
 10
65.382157254326188
 20
52.7183036350880059
 30
0.0
 11
66.8165904765321557
 21
53.5769847704147111
 31
0.0
  0
LINE
  5
E0
100
AcDbEntity
100
AcDbLine
  8
0
 62
7
420
0
370
0
  6
ByLayer
 10
66.8165904765321557
 20
53.5769847704147111
 30
0.0
 11
67.6594878055130948
 21
52.964483100893375
 31
0.0
  0
LINE
  5
E1
100
AcDbEntity
100
AcDbLine
  8
0
 62
7
420
0
370
0
  6
ByLayer
 10
67.6594878055130948
 20
52.964483100893375
 30
0.0
 11
67.2860971543838673
 21
51.334991447946507
 31
0.0
  0
LINE
  5
E2
100
AcDbEntity
100
AcDbLine
  8
0
 62
7
420
0
370
0
  6
ByLayer
 10
67.2860971543838673
 20
51.334991447946507
 30
0.0
 11
66.8573450675219476
 21
50.5095265062797836
 31
0.0
  0
LINE
  5
E3
100
AcDbEntity
100
AcDbLine
  8
0
 62
7
420
0
370
0
  6
ByLayer
 10
66.8573450675219476
 20
50.5095265062797836
 30
0.0
 11
66.4641656016992499
 21
50.0628712474624962
 31
0.0
  0
LINE
  5
E4
100
AcDbEntity
100
AcDbLine
  8
0
 62
7
420
0
370
0
  6
ByLayer
 10
66.4641656016992499
 20
50.0628712474624962
 30
0.0
 11
67.6780988238792247
 21
48.8489380252825214
 31
0.0
  0
LINE
  5
E5
100
AcDbEntity
100
AcDbLine
  8
0
 62
7
420
0
370
0
  6
ByLayer
 10
67.6780988238792247
 20
48.8489380252825214
 30
0.0
 11
68.1247540826965405
 21
49.2421174911052049
 31
0.0
  0
LINE
  5
E6
100
AcDbEntity
100
AcDbLine
  8
0
 62
7
420
0
370
0
  6
ByLayer
 10
68.1247540826965405
 20
49.2421174911052049
 30
0.0
 11
68.9502190243632072
 21
49.6708695779671388
 31
0.0
  0
LINE
  5
E7
100
AcDbEntity
100
AcDbLine
  8
0
 62
7
420
0
370
0
  6
ByLayer
 10
68.9502190243632072
 20
49.6708695779671388
 30
0.0
 11
70.5797106773100893
 21
50.0442602290963379
 31
0.0
  0
LINE
  5
E8
100
AcDbEntity
100
AcDbLine
  8
0
 62
7
420
0
370
0
  6
ByLayer
 10
70.5797106773100893
 20
50.0442602290963379
 30
0.0
 11
71.192212346831468
 21
49.2013629001153987
 31
0.0
  0
LINE
  5
E9
100
AcDbEntity
100
AcDbLine
  8
0
 62
7
420
0
370
0
  6
ByLayer
 10
71.192212346831468
 20
49.2013629001153987
 30
0.0
 11
70.3335312115047486
 21
47.7669296779094452
 31
0.0
  0
LINE
  5
EA
100
AcDbEntity
100
AcDbLine
  8
0
 62
7
420
0
370
0
  6
ByLayer
 10
70.3335312115047486
 20
47.7669296779094452
 30
0.0
 11
69.6706155186051603
 21
47.1146141519560047
 31
0.0
  0
LINE
  5
EB
100
AcDbEntity
100
AcDbLine
  8
0
 62
7
420
0
370
0
  6
ByLayer
 10
69.6706155186051603
 20
47.1146141519560047
 30
0.0
 11
69.1584694417500714
 21
46.8111901118534348
 31
0.0
  0
LINE
  5
EC
100
AcDbEntity
100
AcDbLine
  8
0
 62
7
420
0
370
0
  6
ByLayer
 10
69.1584694417500714
 20
46.8111901118534348
 30
0.0
 11
69.9379961530273704
 21
45.2815832669317047
 31
0.0
  0
LINE
  5
ED
100
AcDbEntity
100
AcDbLine
  8
0
 62
7
420
0
370
0
  6
ByLayer
 10
69.9379961530273704
 20
45.2815832669317047
 30
0.0
 11
70.4845370545943695
 21
45.5173971233868713
 31
0.0
  0
LINE
  5
EE
100
AcDbEntity
100
AcDbLine
  8
0
 62
7
420
0
370
0
  6
ByLayer
 10
70.4845370545943695
 20
45.5173971233868713
 30
0.0
 11
71.4018767875907372
 21
45.670051547444956
 31
0.0
  0
LINE
  5
EF
100
AcDbEntity
100
AcDbLine
  8
0
 62
7
420
0
370
0
  6
ByLayer
 10
71.4018767875907372
 20
45.670051547444956
 30
0.0
 11
73.0669410615768697
 21
45.5216375240551656
 31
0.0
  0
LINE
  5
F0
100
AcDbEntity
100
AcDbLine
  8
0
 62
7
420
0
370
0
  6
ByLayer
 10
73.0669410615768697
 20
45.5216375240551656
 30
0.0
 11
73.3889761200455837
 21
44.530796956325581
 31
0.0
  0
LINE
  5
F1
100
AcDbEntity
100
AcDbLine
  8
0
 62
7
420
0
370
0
  6
ByLayer
 10
73.3889761200455837
 20
44.530796956325581
 30
0.0
 11
72.1291055022007868
 21
43.4320623985999106
 31
0.0
  0
LINE
  5
F2
100
AcDbEntity
100
AcDbLine
  8
0
 62
7
420
0
370
0
  6
ByLayer
 10
72.1291055022007868
 20
43.4320623985999106
 30
0.0
 11
71.2970445672110884
 21
43.0162669060633505
 31
0.0
  0
LINE
  5
F3
100
AcDbEntity
100
AcDbLine
  8
0
 62
7
420
0
370
0
  6
ByLayer
 10
71.2970445672110884
 20
43.0162669060633505
 30
0.0
 11
70.7163459027018462
 21
42.8859931163985522
 31
0.0
  0
LINE
  5
F4
100
AcDbEntity
100
AcDbLine
  8
0
 62
7
420
0
370
0
  6
ByLayer
 10
70.7163459027018462
 20
42.8859931163985522
 30
0.0
 11
70.9849043334513965
 21
41.1903036337276944
 31
0.0
  0
ENDSEC
  0
SECTION
  2
OBJECTS
  0
DICTIONARY
  5
C
100
AcDbDictionary
280
0
281
1
  3
ACAD_GROUP
350
D
  3
ACAD_LAYOUT
350
1A
  3
ACAD_MLINESTYLE
350
17
  3
ACAD_PLOTSETTINGS
350
19
  3
ACAD_PLOTSTYLENAME
350
E
  3
AcDbVariableDictionary
350
F5
  0
DICTIONARY
  5
D
100
AcDbDictionary
280
0
281
1
  0
ACDBDICTIONARYWDFLT
  5
E
100
AcDbDictionary
281
1
  3
Normal
350
F
100
AcDbDictionaryWithDefault
340
F
  0
ACDBPLACEHOLDER
  5
F
  0
DICTIONARY
  5
17
100
AcDbDictionary
280
0
281
1
  3
Standard
350
18
  0
MLINESTYLE
  5
18
100
AcDbMlineStyle
  2
STANDARD
 70
0
  3

 62
256
 51
90.0
 52
90.0
 71
2
 49
0.5
 62
256
  6
BYLAYER
 49
-0.5
 62
256
  6
BYLAYER
  0
DICTIONARY
  5
19
100
AcDbDictionary
280
0
281
1
  0
DICTIONARY
  5
1A
100
AcDbDictionary
281
1
  3
Layout1
350
1E
  3
Layout2
350
26
  3
Model
350
22
  0
LAYOUT
  5
1E
100
AcDbPlotSettings
  1

  2
C:\Program Files\AutoCAD 2002\plotters\DWF ePlot (optimized for plotting).pc3
  4

  6

 40
0.0
 41
0.0
 42
0.0
 43
0.0
 44
0.0
 45
0.0
 46
0.0
 47
0.0
 48
0.0
 49
0.0
140
0.0
141
0.0
142
1.0
143
1.0
 70
688
 72
0
 73
0
 74
5
  7

 75
16
147
1.0
148
0.0
149
0.0
100
AcDbLayout
  1
Layout1
 70
1
 71
1
 10
0.0
 20
0.0
 11
420.0
 21
297.0
 12
0.0
 22
0.0
 32
0.0
 14
100000000000000000000.0
 24
100000000000000000000.0
 34
100000000000000000000.0
 15
-100000000000000000000.0
 25
-100000000000000000000.0
 35
-100000000000000000000.0
146
0.0
 13
0.0
 23
0.0
 33
0.0
 16
1.0
 26
0.0
 36
0.0
 17
0.0
 27
1.0
 37
0.0
 76
0
330
1B
  0
LAYOUT
  5
22
100
AcDbPlotSettings
  1

  2
C:\Program Files\AutoCAD 2002\plotters\DWF ePlot (optimized for plotting).pc3
  4

  6

 40
0.0
 41
0.0
 42
0.0
 43
0.0
 44
0.0
 45
0.0
 46
0.0
 47
0.0
 48
0.0
 49
0.0
140
0.0
141
0.0
142
1.0
143
1.0
 70
1712
 72
0
 73
0
 74
0
  7

 75
0
147
1.0
148
0.0
149
0.0
100
AcDbLayout
  1
Model
 70
1
 71
0
 10
0.0
 20
0.0
 11
12.0
 21
9.0
 12
0.0
 22
0.0
 32
0.0
 14
0.0
 24
0.0
 34
0.0
 15
0.0
 25
0.0
 35
0.0
146
0.0
 13
0.0
 23
0.0
 33
0.0
 16
1.0
 26
0.0
 36
0.0
 17
0.0
 27
1.0
 37
0.0
 76
0
330
1F
  0
LAYOUT
  5
26
100
AcDbPlotSettings
  1

  2
C:\Program Files\AutoCAD 2002\plotters\DWF ePlot (optimized for plotting).pc3
  4

  6

 40
0.0
 41
0.0
 42
0.0
 43
0.0
 44
0.0
 45
0.0
 46
0.0
 47
0.0
 48
0.0
 49
0.0
140
0.0
141
0.0
142
1.0
143
1.0
 70
688
 72
0
 73
0
 74
5
  7

 75
16
147
1.0
148
0.0
149
0.0
100
AcDbLayout
  1
Layout2
 70
1
 71
2
 10
0.0
 20
0.0
 11
12.0
 21
9.0
 12
0.0
 22
0.0
 32
0.0
 14
0.0
 24
0.0
 34
0.0
 15
0.0
 25
0.0
 35
0.0
146
0.0
 13
0.0
 23
0.0
 33
0.0
 16
1.0
 26
0.0
 36
0.0
 17
0.0
 27
1.0
 37
0.0
 76
0
330
23
  0
DICTIONARY
  5
F5
100
AcDbDictionary
281
1
  3
DIMASSOC
350
F7
  3
HIDETEXT
350
F6
  0
DICTIONARYVAR
  5
F6
100
DictionaryVariables
280
0
  1
2
  0
DICTIONARYVAR
  5
F7
100
DictionaryVariables
280
0
  1
1
  0
ENDSEC
  0
EOF
