999
dxflib 2.2.0.0
  0
SECTION
  2
HEADER
  9
$ACADVER
  1
AC1015
  9
$HANDSEED
  5
FFFF
  9
$DIMASZ
 40
2.5
  9
$PLIMMIN
 10
0.0
 20
0.0
  9
$DIMEXE
 40
1.25
  9
$DIMGAP
 40
0.625
  9
$PLIMMAX
 10
210.0
 20
297.0
  9
$INSUNITS
 70
4
  9
$DIMSTYLE
  2
Standard
  9
$CLAYER
  8
0
  9
$DIMEXO
 40
0.625
  9
$DIMTXT
 40
2.5
  9
$CLAYER
  8
0
  0
ENDSEC
  0
SECTION
  2
TABLES
  0
TABLE
  2
VPORT
  5
8
100
AcDbSymbolTable
 70
1
  0
VPORT
  5
30
100
AcDbSymbolTableRecord
100
AcDbViewportTableRecord
  2
*Active
 70
0
 10
0.0
 20
0.0
 11
1.0
 21
1.0
 12
286.3055555555554861
 22
148.5
 13
0.0
 23
0.0
 14
10.0
 24
10.0
 15
10.0
 25
10.0
 16
0.0
 26
0.0
 36
1.0
 17
0.0
 27
0.0
 37
0.0
 40
297.0
 41
1.92798353909465
 42
50.0
 43
0.0
 44
0.0
 50
0.0
 51
0.0
 71
0
 72
100
 73
1
 74
3
 75
1
 76
1
 77
0
 78
0
281
0
 65
1
110
0.0
120
0.0
130
0.0
111
1.0
121
0.0
131
0.0
112
0.0
122
1.0
132
0.0
 79
0
146
0.0
  0
ENDTAB
  0
TABLE
  2
LTYPE
  5
5
100
AcDbSymbolTable
 70
21
  0
LTYPE
  5
14
100
AcDbSymbolTableRecord
100
AcDbLinetypeTableRecord
  2
ByBlock
 70
0
  3

 72
65
 73
0
 40
0.0
  0
LTYPE
  5
15
100
AcDbSymbolTableRecord
100
AcDbLinetypeTableRecord
  2
ByLayer
 70
0
  3

 72
65
 73
0
 40
0.0
  0
LTYPE
  5
16
100
AcDbSymbolTableRecord
100
AcDbLinetypeTableRecord
  2
CONTINUOUS
 70
0
  3
Solid line
 72
65
 73
0
 40
0.0
  0
LTYPE
  5
31
100
AcDbSymbolTableRecord
100
AcDbLinetypeTableRecord
  2
DOT
 70
0
  3
Dot . . . . . . . . . . . . . . . . . . . . . .
 72
65
 73
2
 40
6.3499999999999996
 49
0.0
 74
0
 49
-6.3499999999999996
 74
0
  0
LTYPE
  5
32
100
AcDbSymbolTableRecord
100
AcDbLinetypeTableRecord
  2
DOT2
 70
0
  3
Dot (.5x) .....................................
 72
65
 73
2
 40
3.1749999999999998
 49
0.0
 74
0
 49
-3.1749999999999998
 74
0
  0
LTYPE
  5
33
100
AcDbSymbolTableRecord
100
AcDbLinetypeTableRecord
  2
DOTX2
 70
0
  3
Dot (2x) .  .  .  .  .  .  .  .  .  .  .  .  .
 72
65
 73
2
 40
12.6999999999999993
 49
0.0
 74
0
 49
-12.6999999999999993
 74
0
  0
LTYPE
  5
34
100
AcDbSymbolTableRecord
100
AcDbLinetypeTableRecord
  2
DASHED
 70
0
  3
Dashed __ __ __ __ __ __ __ __ __ __ __ __ __ _
 72
65
 73
2
 40
19.0500000000000007
 49
12.6999999999999993
 74
0
 49
-6.3499999999999996
 74
0
  0
LTYPE
  5
35
100
AcDbSymbolTableRecord
100
AcDbLinetypeTableRecord
  2
DASHED2
 70
0
  3
Dashed (.5x) _ _ _ _ _ _ _ _ _ _ _ _ _ _ _ _ _
 72
65
 73
2
 40
9.5250000000000004
 49
6.3499999999999996
 74
0
 49
-3.1749999999999998
 74
0
  0
LTYPE
  5
36
100
AcDbSymbolTableRecord
100
AcDbLinetypeTableRecord
  2
DASHEDX2
 70
0
  3
Dashed (2x) ____  ____  ____  ____  ____  ___
 72
65
 73
2
 40
38.1000000000000014
 49
25.3999999999999986
 74
0
 49
-12.6999999999999993
 74
0
  0
LTYPE
  5
37
100
AcDbSymbolTableRecord
100
AcDbLinetypeTableRecord
  2
DASHDOT
 70
0
  3
Dash dot __ . __ . __ . __ . __ . __ . __ . __
 72
65
 73
4
 40
25.3999999999999986
 49
12.6999999999999993
 74
0
 49
-6.3499999999999996
 74
0
 49
0.0
 74
0
 49
-6.3499999999999996
 74
0
  0
LTYPE
  5
38
100
AcDbSymbolTableRecord
100
AcDbLinetypeTableRecord
  2
DASHDOT2
 70
0
  3
Dash dot (.5x) _._._._._._._._._._._._._._._.
 72
65
 73
4
 40
12.6999999999999993
 49
6.3499999999999996
 74
0
 49
-3.1749999999999998
 74
0
 49
0.0
 74
0
 49
-3.1749999999999998
 74
0
  0
LTYPE
  5
39
100
AcDbSymbolTableRecord
100
AcDbLinetypeTableRecord
  2
DASHDOTX2
 70
0
  3
Dash dot (2x) ____  .  ____  .  ____  .  ___
 72
65
 73
4
 40
50.7999999999999972
 49
25.3999999999999986
 74
0
 49
-12.6999999999999993
 74
0
 49
0.0
 74
0
 49
-12.6999999999999993
 74
0
  0
LTYPE
  5
3A
100
AcDbSymbolTableRecord
100
AcDbLinetypeTableRecord
  2
DIVIDE
 70
0
  3
Divide ____ . . ____ . . ____ . . ____ . . ____
 72
65
 73
6
 40
31.75
 49
12.6999999999999993
 74
0
 49
-6.3499999999999996
 74
0
 49
0.0
 74
0
 49
-6.3499999999999996
 74
0
 49
0.0
 74
0
 49
-6.3499999999999996
 74
0
  0
LTYPE
  5
3B
100
AcDbSymbolTableRecord
100
AcDbLinetypeTableRecord
  2
DIVIDE2
 70
0
  3
Divide (.5x) __..__..__..__..__..__..__..__.._
 72
65
 73
6
 40
15.875
 49
6.3499999999999996
 74
0
 49
-3.1749999999999998
 74
0
 49
0.0
 74
0
 49
-3.1749999999999998
 74
0
 49
0.0
 74
0
 49
-3.1749999999999998
 74
0
  0
LTYPE
  5
3C
100
AcDbSymbolTableRecord
100
AcDbLinetypeTableRecord
  2
DIVIDEX2
 70
0
  3
Divide (2x) ________  .  .  ________  .  .  _
 72
65
 73
6
 40
63.5
 49
25.3999999999999986
 74
0
 49
-12.6999999999999993
 74
0
 49
0.0
 74
0
 49
-12.6999999999999993
 74
0
 49
0.0
 74
0
 49
-12.6999999999999993
 74
0
  0
LTYPE
  5
3D
100
AcDbSymbolTableRecord
100
AcDbLinetypeTableRecord
  2
CENTER
 70
0
  3
Center ____ _ ____ _ ____ _ ____ _ ____ _ ____
 72
65
 73
4
 40
50.7999999999999972
 49
31.75
 74
0
 49
-6.3499999999999996
 74
0
 49
6.3499999999999996
 74
0
 49
-6.3499999999999996
 74
0
  0
LTYPE
  5
3E
100
AcDbSymbolTableRecord
100
AcDbLinetypeTableRecord
  2
CENTER2
 70
0
  3
Center (.5x) ___ _ ___ _ ___ _ ___ _ ___ _ ___
 72
65
 73
4
 40
28.5749999999999993
 49
19.0500000000000007
 74
0
 49
-3.1749999999999998
 74
0
 49
3.1749999999999998
 74
0
 49
-3.1749999999999998
 74
0
  0
LTYPE
  5
3F
100
AcDbSymbolTableRecord
100
AcDbLinetypeTableRecord
  2
CENTERX2
 70
0
  3
Center (2x) ________  __  ________  __  _____
 72
65
 73
4
 40
101.5999999999999943
 49
63.5
 74
0
 49
-12.6999999999999993
 74
0
 49
12.6999999999999993
 74
0
 49
-12.6999999999999993
 74
0
  0
LTYPE
  5
40
100
AcDbSymbolTableRecord
100
AcDbLinetypeTableRecord
  2
BORDER
 70
0
  3
Border __ __ . __ __ . __ __ . __ __ . __ __ .
 72
65
 73
6
 40
44.4500000000000028
 49
12.6999999999999993
 74
0
 49
-6.3499999999999996
 74
0
 49
12.6999999999999993
 74
0
 49
-6.3499999999999996
 74
0
 49
0.0
 74
0
 49
-6.3499999999999996
 74
0
  0
LTYPE
  5
41
100
AcDbSymbolTableRecord
100
AcDbLinetypeTableRecord
  2
BORDER2
 70
0
  3
Border (.5x) __.__.__.__.__.__.__.__.__.__.__.
 72
65
 73
6
 40
22.2250000000000014
 49
6.3499999999999996
 74
0
 49
-3.1749999999999998
 74
0
 49
6.3499999999999996
 74
0
 49
-3.1749999999999998
 74
0
 49
0.0
 74
0
 49
-3.1749999999999998
 74
0
  0
LTYPE
  5
42
100
AcDbSymbolTableRecord
100
AcDbLinetypeTableRecord
  2
BORDERX2
 70
0
  3
Border (2x) ____  ____  .  ____  ____  .  ___
 72
65
 73
6
 40
88.9000000000000057
 49
25.3999999999999986
 74
0
 49
-12.6999999999999993
 74
0
 49
25.3999999999999986
 74
0
 49
-12.6999999999999993
 74
0
 49
0.0
 74
0
 49
-12.6999999999999993
 74
0
  0
ENDTAB
  0
TABLE
  2
LAYER
  5
2
100
AcDbSymbolTable
 70
4
  0
LAYER
  5
10
100
AcDbSymbolTableRecord
100
AcDbLayerTableRecord
  2
0
 70
0
 62
7
420
16777215
  6
CONTINUOUS
370
0
390
F
  0
LAYER
  5
43
100
AcDbSymbolTableRecord
100
AcDbLayerTableRecord
  2
Text
 70
0
 62
4
420
65535
  6
CONTINUOUS
370
0
390
F
  0
LAYER
  5
44
100
AcDbSymbolTableRecord
100
AcDbLayerTableRecord
  2
Drawings
 70
0
 62
5
420
255
  6
CONTINUOUS
370
0
390
F
  0
LAYER
  5
45
100
AcDbSymbolTableRecord
100
AcDbLayerTableRecord
  2
Notes
 70
0
 62
7
420
16777215
  6
CONTINUOUS
370
0
390
F
  0
ENDTAB
  0
TABLE
  2
STYLE
  5
3
100
AcDbSymbolTable
 70
1
  0
STYLE
  5
11
100
AcDbSymbolTableRecord
100
AcDbTextStyleTableRecord
  2
Standard
 70
0
 40
0.0
 41
0.75
 50
0.0
 71
0
 42
2.5
  3
txt
  4

  0
ENDTAB
  0
TABLE
  2
VIEW
  5
6
100
AcDbSymbolTable
 70
0
  0
ENDTAB
  0
TABLE
  2
UCS
  5
7
100
AcDbSymbolTable
 70
0
  0
ENDTAB
  0
TABLE
  2
APPID
  5
9
100
AcDbSymbolTable
 70
1
  0
APPID
  5
12
100
AcDbSymbolTableRecord
100
AcDbRegAppTableRecord
  2
ACAD
 70
0
  0
ENDTAB
  0
TABLE
  2
DIMSTYLE
  5
A
100
AcDbSymbolTable
 70
1
100
AcDbDimStyleTable
 71
0
  0
DIMSTYLE
105
27
100
AcDbSymbolTableRecord
100
AcDbDimStyleTableRecord
  2
Standard
 41
2.5
 42
0.625
 43
3.75
 44
1.25
 70
0
 73
0
 74
0
 77
1
 78
8
140
2.5
141
2.5
143
0.03937007874016
147
0.625
171
3
172
1
271
2
272
2
274
3
278
44
283
0
284
8
340
11
  0
ENDTAB
  0
TABLE
  2
BLOCK_RECORD
  5
1
100
AcDbSymbolTable
 70
1
  0
BLOCK_RECORD
  5
1F
100
AcDbSymbolTableRecord
100
AcDbBlockTableRecord
  2
*Model_Space
340
22
  0
BLOCK_RECORD
  5
1B
100
AcDbSymbolTableRecord
100
AcDbBlockTableRecord
  2
*Paper_Space
340
1E
  0
BLOCK_RECORD
  5
23
100
AcDbSymbolTableRecord
100
AcDbBlockTableRecord
  2
*Paper_Space0
340
26
  0
ENDTAB
  0
ENDSEC
  0
SECTION
  2
BLOCKS
  0
BLOCK
  5
20
100
AcDbEntity
  8
0
100
AcDbBlockBegin
  2
*Model_Space
 70
0
 10
0.0
 20
0.0
 30
0.0
  3
*Model_Space
  1

  0
ENDBLK
  5
21
100
AcDbEntity
  8
0
100
AcDbBlockEnd
  0
BLOCK
  5
1C
100
AcDbEntity
 67
1
  8
0
100
AcDbBlockBegin
  2
*Paper_Space
 70
0
 10
0.0
 20
0.0
 30
0.0
  3
*Paper_Space
  1

  0
ENDBLK
  5
1D
100
AcDbEntity
 67
1
  8
0
100
AcDbBlockEnd
  0
BLOCK
  5
24
100
AcDbEntity
  8
0
100
AcDbBlockBegin
  2
*Paper_Space0
 70
0
 10
0.0
 20
0.0
 30
0.0
  3
*Paper_Space0
  1

  0
ENDBLK
  5
25
100
AcDbEntity
  8
0
100
AcDbBlockEnd
  0
ENDSEC
  0
SECTION
  2
ENTITIES
  0
LINE
  5
46
100
AcDbEntity
100
AcDbLine
  8
Drawings
 62
256
370
-1
  6
ByLayer
 10
45.1543156544519135
 20
45.281630651080448
 30
0.0
 11
40.1543156544519135
 21
45.281630651080448
 31
0.0
  0
LINE
  5
47
100
AcDbEntity
100
AcDbLine
  8
Drawings
 62
256
370
-1
  6
ByLayer
 10
45.1543156544519135
 20
45.281630651080448
 30
0.0
 11
50.1543156544519135
 21
45.281630651080448
 31
0.0
  0
CIRCLE
  5
48
100
AcDbEntity
100
AcDbCircle
  8
Drawings
 62
256
370
-1
  6
ByLayer
 10
45.1543156544519135
 20
45.281630651080448
 30
0.0
 40
5.0
  0
LINE
  5
49
100
AcDbEntity
100
AcDbLine
  8
Drawings
 62
256
370
-1
  6
ByLayer
 10
45.1543156544519135
 20
45.281630651080448
 30
0.0
 11
45.1543156544519135
 21
50.281630651080448
 31
0.0
  0
LINE
  5
4A
100
AcDbEntity
100
AcDbLine
  8
Drawings
 62
256
370
-1
  6
ByLayer
 10
45.1543156544519135
 20
45.281630651080448
 30
0.0
 11
45.1543156544519135
 21
40.281630651080448
 31
0.0
  0
ARC
  5
4B
100
AcDbEntity
  8
0
 62
256
370
-1
  6
ByLayer
100
AcDbCircle
 10
45.1543156544519135
 20
45.2816306510810023
 30
0.0
 40
8.7499999999995008
100
AcDbArc
 50
204.7499999999999147
 51
209.2500000000002842
  0
ARC
  5
4C
100
AcDbEntity
  8
0
 62
256
370
-1
  6
ByLayer
100
AcDbCircle
 10
43.0966744409342937
 20
34.8733219025663033
 30
0.0
 40
8.2892520696423908
100
AcDbArc
 50
132.280644028837969
 51
148.775918265384604
  0
ARC
  5
4D
100
AcDbEntity
  8
0
 62
256
370
-1
  6
ByLayer
100
AcDbCircle
 10
35.5243658343680622
 20
49.7348143247015315
 30
0.0
 40
8.2892520696422718
100
AcDbArc
 50
265.2240817346153108
 51
281.7193559711620878
  0
ARC
  5
4E
100
AcDbEntity
  8
0
 62
256
370
-1
  6
ByLayer
100
AcDbCircle
 10
45.1543156544519135
 20
45.2816306510812652
 30
0.0
 40
8.750000000000794
100
AcDbArc
 50
222.7500000000003126
 51
227.249999999999801
  0
ARC
  5
4F
100
AcDbEntity
  8
0
 62
256
370
-1
  6
ByLayer
100
AcDbCircle
 10
46.413726856130701
 20
34.7468946888910608
 30
0.0
 40
8.2892520696423642
100
AcDbArc
 50
150.2806440288378838
 51
166.7759182653845755
  0
ARC
  5
50
100
AcDbEntity
  8
0
 62
256
370
-1
  6
ByLayer
100
AcDbCircle
 10
34.6195796922627892
 20
46.5410418527591645
 30
0.0
 40
8.2892520696422274
100
AcDbArc
 50
283.2240817346152539
 51
299.7193559711620878
  0
ARC
  5
51
100
AcDbEntity
  8
0
 62
256
370
-1
  6
ByLayer
100
AcDbCircle
 10
45.1543156544519135
 20
45.2816306510816773
 30
0.0
 40
8.7500000000012612
100
AcDbArc
 50
240.7500000000003979
 51
245.249999999999801
  0
ARC
  5
52
100
AcDbEntity
  8
0
 62
256
370
-1
  6
ByLayer
100
AcDbCircle
 10
49.6074993280729899
 20
35.6516808310162361
 30
0.0
 40
8.2892520696422611
100
AcDbArc
 50
168.2806440288378269
 51
184.7759182653846892
  0
ARC
  5
53
100
AcDbEntity
  8
0
 62
256
370
-1
  6
ByLayer
100
AcDbCircle
 10
34.7460069059381667
 20
43.2239894375627074
 30
0.0
 40
8.2892520696423446
100
AcDbArc
 50
301.2240817346153108
 51
317.7193559711620878
  0
ARC
  5
54
100
AcDbEntity
  8
0
 62
256
370
-1
  6
ByLayer
100
AcDbCircle
 10
45.1543156544519135
 20
45.2816306510819473
 30
0.0
 40
8.7500000000015916
100
AcDbArc
 50
258.7500000000005684
 51
263.2499999999996021
  0
ARC
  5
55
100
AcDbEntity
  8
0
 62
256
370
-1
  6
ByLayer
100
AcDbCircle
 10
52.3653631548862464
 20
37.4991135573350363
 30
0.0
 40
8.2892520696423002
100
AcDbArc
 50
186.2806440288378838
 51
202.7759182653847176
  0
ARC
  5
56
100
AcDbEntity
  8
0
 62
256
370
-1
  6
ByLayer
100
AcDbCircle
 10
35.8912718988691068
 20
40.1083532807747503
 30
0.0
 40
8.2892520696423322
100
AcDbArc
 50
319.2240817346153108
 51
335.7193559711620878
  0
ARC
  5
57
100
AcDbEntity
  8
0
 62
256
370
-1
  6
ByLayer
100
AcDbCircle
 10
45.1543156544519135
 20
45.2816306510812581
 30
0.0
 40
8.7500000000008171
100
AcDbArc
 50
276.7500000000001705
 51
281.2499999999996021
  0
ARC
  5
58
100
AcDbEntity
  8
0
 62
256
370
-1
  6
ByLayer
100
AcDbCircle
 10
54.4173594100346421
 20
40.1083532807746082
 30
0.0
 40
8.2892520696421972
100
AcDbArc
 50
204.2806440288377132
 51
220.7759182653848029
  0
ARC
  5
59
100
AcDbEntity
  8
0
 62
256
370
-1
  6
ByLayer
100
AcDbCircle
 10
37.9432681540176944
 20
37.4991135573350363
 30
0.0
 40
8.2892520696422398
100
AcDbArc
 50
337.2240817346151971
 51
353.7193559711620878
  0
ARC
  5
5A
100
AcDbEntity
  8
0
 62
256
370
-1
  6
ByLayer
100
AcDbCircle
 10
45.1543156544519135
 20
45.2816306510811728
 30
0.0
 40
8.750000000000778
100
AcDbArc
 50
294.7500000000001705
 51
299.25
  0
ARC
  5
5B
100
AcDbEntity
  8
0
 62
256
370
-1
  6
ByLayer
100
AcDbCircle
 10
55.5626244029659304
 20
43.2239894375627003
 30
0.0
 40
8.2892520696423624
100
AcDbArc
 50
222.2806440288379122
 51
238.7759182653846608
  0
ARC
  5
5C
100
AcDbEntity
  8
0
 62
256
370
-1
  6
ByLayer
100
AcDbCircle
 10
40.7011319808307661
 20
35.6516808310162361
 30
0.0
 40
8.2892520696423251
100
AcDbArc
 50
355.2240817346153108
 51
11.7193559711620701
  0
ARC
  5
5D
100
AcDbEntity
  8
0
 62
256
370
-1
  6
ByLayer
100
AcDbCircle
 10
45.1543156544519135
 20
45.2816306510811586
 30
0.0
 40
8.7500000000007532
100
AcDbArc
 50
312.7500000000003411
 51
317.2499999999998295
  0
ARC
  5
5E
100
AcDbEntity
  8
0
 62
256
370
-1
  6
ByLayer
100
AcDbCircle
 10
55.6890516166412297
 20
46.5410418527591361
 30
0.0
 40
8.2892520696422718
100
AcDbArc
 50
240.2806440288378269
 51
256.7759182653846892
  0
ARC
  5
5F
100
AcDbEntity
  8
0
 62
256
370
-1
  6
ByLayer
100
AcDbCircle
 10
43.8949044527732184
 20
34.7468946888911461
 30
0.0
 40
8.2892520696422114
100
AcDbArc
 50
13.2240817346153321
 51
29.7193559711622228
  0
ARC
  5
60
100
AcDbEntity
  8
0
 62
256
370
-1
  6
ByLayer
100
AcDbCircle
 10
45.1543156544519135
 20
45.2816306510815281
 30
0.0
 40
8.7500000000011262
100
AcDbArc
 50
330.7500000000002842
 51
335.2499999999997158
  0
ARC
  5
61
100
AcDbEntity
  8
0
 62
256
370
-1
  6
ByLayer
100
AcDbCircle
 10
54.7842654745160829
 20
49.7348143247015315
 30
0.0
 40
8.2892520696423251
100
AcDbArc
 50
258.2806440288379122
 51
274.7759182653846324
  0
ARC
  5
62
100
AcDbEntity
  8
0
 62
256
370
-1
  6
ByLayer
100
AcDbCircle
 10
47.2119568679696044
 20
34.8733219025663033
 30
0.0
 40
8.2892520696423801
100
AcDbArc
 50
31.2240817346154351
 51
47.7193559711620736
  0
ARC
  5
63
100
AcDbEntity
  8
0
 62
256
370
-1
  6
ByLayer
100
AcDbCircle
 10
45.1543156544519135
 20
45.2816306510819615
 30
0.0
 40
8.7500000000015472
100
AcDbArc
 50
348.7500000000005116
 51
353.2499999999997158
  0
ARC
  5
64
100
AcDbEntity
  8
0
 62
256
370
-1
  6
ByLayer
100
AcDbCircle
 10
52.9368327481973111
 20
52.4926781515146246
 30
0.0
 40
8.2892520696422025
100
AcDbArc
 50
276.2806440288377416
 51
292.7759182653846892
  0
ARC
  5
65
100
AcDbEntity
  8
0
 62
256
370
-1
  6
ByLayer
100
AcDbCircle
 10
50.3275930247576966
 20
36.01858689549762
 30
0.0
 40
8.2892520696423126
100
AcDbArc
 50
49.2240817346151758
 51
65.7193559711622157
  0
ARC
  5
66
100
AcDbEntity
  8
0
 62
256
370
-1
  6
ByLayer
100
AcDbCircle
 10
45.1543156544519135
 20
45.2816306510812723
 30
0.0
 40
8.7500000000008278
100
AcDbArc
 50
6.7499999999999876
 51
11.2499999999996056
  0
ARC
  5
67
100
AcDbEntity
  8
0
 62
256
370
-1
  6
ByLayer
100
AcDbCircle
 10
50.3275930247577321
 20
54.5446744066632192
 30
0.0
 40
8.2892520696422594
100
AcDbArc
 50
294.2806440288377416
 51
310.7759182653846892
  0
ARC
  5
68
100
AcDbEntity
  8
0
 62
256
370
-1
  6
ByLayer
100
AcDbCircle
 10
52.9368327481972969
 20
38.070583150646101
 30
0.0
 40
8.2892520696422558
100
AcDbArc
 50
67.224081734615325
 51
83.7193559711622157
  0
ARC
  5
69
100
AcDbEntity
  8
0
 62
256
370
-1
  6
ByLayer
100
AcDbCircle
 10
45.1543156544519135
 20
45.2816306510814215
 30
0.0
 40
8.7500000000009646
100
AcDbArc
 50
24.7500000000002416
 51
29.2499999999999112
  0
ARC
  5
6A
100
AcDbEntity
  8
0
 62
256
370
-1
  6
ByLayer
100
AcDbCircle
 10
47.2119568679695476
 20
55.6899393995944507
 30
0.0
 40
8.2892520696423961
100
AcDbArc
 50
312.2806440288380259
 51
328.7759182653846324
  0
ARC
  5
6B
100
AcDbEntity
  8
0
 62
256
370
-1
  6
ByLayer
100
AcDbCircle
 10
54.784265474516026
 20
40.8284469774592793
 30
0.0
 40
8.2892520696423251
100
AcDbArc
 50
85.2240817346154387
 51
101.719355971162102
  0
ARC
  5
6C
100
AcDbEntity
  8
0
 62
256
370
-1
  6
ByLayer
100
AcDbCircle
 10
45.1543156544519135
 20
45.2816306510807181
 30
0.0
 40
8.7500000000002824
100
AcDbArc
 50
42.7500000000001421
 51
47.2500000000000142
  0
ARC
  5
6D
100
AcDbEntity
  8
0
 62
256
370
-1
  6
ByLayer
100
AcDbCircle
 10
43.8949044527732113
 20
55.8163666132696932
 30
0.0
 40
8.2892520696422647
100
AcDbArc
 50
330.2806440288377985
 51
346.7759182653848029
  0
ARC
  5
6E
100
AcDbEntity
  8
0
 62
256
370
-1
  6
ByLayer
100
AcDbCircle
 10
55.6890516166412866
 20
44.0222194494016179
 30
0.0
 40
8.2892520696423002
100
AcDbArc
 50
103.2240817346152966
 51
119.7193559711621447
  0
ARC
  5
6F
100
AcDbEntity
  8
0
 62
256
370
-1
  6
ByLayer
100
AcDbCircle
 10
45.1543156544519135
 20
45.2816306510815849
 30
0.0
 40
8.7500000000011138
100
AcDbArc
 50
60.7500000000003908
 51
65.2499999999997584
  0
ARC
  5
70
100
AcDbEntity
  8
0
 62
256
370
-1
  6
ByLayer
100
AcDbCircle
 10
40.7011319808308301
 20
54.9115804711445463
 30
0.0
 40
8.2892520696422185
100
AcDbArc
 50
348.2806440288376848
 51
4.7759182653846679
  0
ARC
  5
71
100
AcDbEntity
  8
0
 62
256
370
-1
  6
ByLayer
100
AcDbCircle
 10
55.5626244029659304
 20
47.3392718645980963
 30
0.0
 40
8.2892520696423482
100
AcDbArc
 50
121.2240817346154103
 51
137.7193559711621447
  0
ARC
  5
72
100
AcDbEntity
  8
0
 62
256
370
-1
  6
ByLayer
100
AcDbCircle
 10
45.1543156544519135
 20
45.281630651082061
 30
0.0
 40
8.7500000000015827
100
AcDbArc
 50
78.7500000000004974
 51
83.2499999999996021
  0
ARC
  5
73
100
AcDbEntity
  8
0
 62
256
370
-1
  6
ByLayer
100
AcDbCircle
 10
37.9432681540177654
 20
53.064147744825803
 30
0.0
 40
8.2892520696422451
100
AcDbArc
 50
6.2806440288377772
 51
22.7759182653846679
  0
ARC
  5
74
100
AcDbEntity
  8
0
 62
256
370
-1
  6
ByLayer
100
AcDbCircle
 10
54.4173594100347273
 20
50.4549080213861174
 30
0.0
 40
8.2892520696423091
100
AcDbArc
 50
139.2240817346153676
 51
155.7193559711621731
  0
ARC
  5
75
100
AcDbEntity
  8
0
 62
256
370
-1
  6
ByLayer
100
AcDbCircle
 10
45.1543156544519135
 20
45.2816306510812865
 30
0.0
 40
8.7500000000008171
100
AcDbArc
 50
96.7500000000002132
 51
101.2499999999996021
  0
ARC
  5
76
100
AcDbEntity
  8
0
 62
256
370
-1
  6
ByLayer
100
AcDbCircle
 10
35.891271898869725
 20
50.4549080213862311
 30
0.0
 40
8.2892520696421972
100
AcDbArc
 50
24.2806440288377772
 51
40.7759182653848171
  0
ARC
  5
77
100
AcDbEntity
  8
0
 62
256
370
-1
  6
ByLayer
100
AcDbCircle
 10
52.3653631548861895
 20
53.0641477448258314
 30
0.0
 40
8.2892520696422398
100
AcDbArc
 50
157.2240817346152255
 51
173.7193559711622015
  0
ARC
  5
78
100
AcDbEntity
  8
0
 62
256
370
-1
  6
ByLayer
100
AcDbCircle
 10
45.1543156544519135
 20
45.2816306510812581
 30
0.0
 40
8.750000000000826
100
AcDbArc
 50
114.7500000000002416
 51
119.2499999999998153
  0
ARC
  5
79
100
AcDbEntity
  8
0
 62
256
370
-1
  6
ByLayer
100
AcDbCircle
 10
34.7460069059381524
 20
47.3392718645981319
 30
0.0
 40
8.2892520696423073
100
AcDbArc
 50
42.2806440288379264
 51
58.7759182653846679
  0
ARC
  5
7A
100
AcDbEntity
  8
0
 62
256
370
-1
  6
ByLayer
100
AcDbCircle
 10
49.6074993280730823
 20
54.9115804711445179
 30
0.0
 40
8.2892520696423322
100
AcDbArc
 50
175.2240817346153392
 51
191.719355971162031
  0
ARC
  5
7B
100
AcDbEntity
  8
0
 62
256
370
-1
  6
ByLayer
100
AcDbCircle
 10
45.1543156544519135
 20
45.2816306510807181
 30
0.0
 40
8.7500000000002824
100
AcDbArc
 50
132.7500000000001421
 51
137.2499999999999716
  0
ARC
  5
7C
100
AcDbEntity
  8
0
 62
256
370
-1
  6
ByLayer
100
AcDbCircle
 10
34.6195796922625476
 20
44.0222194494016179
 30
0.0
 40
8.2892520696422647
100
AcDbArc
 50
60.2806440288377772
 51
76.7759182653848171
  0
ARC
  5
7D
100
AcDbEntity
  8
0
 62
256
370
-1
  6
ByLayer
100
AcDbCircle
 10
46.4137268561306797
 20
55.81636661326975
 30
0.0
 40
8.2892520696423002
100
AcDbArc
 50
193.2240817346152824
 51
209.7193559711622015
  0
ARC
  5
7E
100
AcDbEntity
  8
0
 62
256
370
-1
  6
ByLayer
100
AcDbCircle
 10
45.1543156544519135
 20
45.2816306510817412
 30
0.0
 40
8.7500000000012612
100
AcDbArc
 50
150.7500000000003979
 51
155.249999999999801
  0
ARC
  5
7F
100
AcDbEntity
  8
0
 62
256
370
-1
  6
ByLayer
100
AcDbCircle
 10
35.5243658343737039
 20
40.8284469774593646
 30
0.0
 40
8.2892520696422611
100
AcDbArc
 50
78.2806440288377701
 51
94.7759182653846466
  0
ARC
  5
80
100
AcDbEntity
  8
0
 62
256
370
-1
  6
ByLayer
100
AcDbCircle
 10
43.0966744409342368
 20
55.6899393995944223
 30
0.0
 40
8.2892520696423446
100
AcDbArc
 50
211.2240817346153108
 51
227.7193559711620026
  0
ARC
  5
81
100
AcDbEntity
  8
0
 62
256
370
-1
  6
ByLayer
100
AcDbCircle
 10
45.1543156544519135
 20
45.2816306510812865
 30
0.0
 40
8.7500000000008402
100
AcDbArc
 50
168.7500000000001705
 51
173.249999999999801
  0
ARC
  5
82
100
AcDbEntity
  8
0
 62
256
370
-1
  6
ByLayer
100
AcDbCircle
 10
37.3717985607065231
 20
38.0705831506460441
 30
0.0
 40
8.289252069642286
100
AcDbArc
 50
96.2806440288377701
 51
112.7759182653846324
  0
ARC
  5
83
100
AcDbEntity
  8
0
 62
256
370
-1
  6
ByLayer
100
AcDbCircle
 10
39.9810382841462086
 20
54.5446744066632476
 30
0.0
 40
8.2892520696422665
100
AcDbArc
 50
229.2240817346153392
 51
245.7193559711620594
  0
ARC
  5
84
100
AcDbEntity
  8
0
 62
256
370
-1
  6
ByLayer
100
AcDbCircle
 10
37.3717985607066794
 20
52.4926781515147667
 30
0.0
 40
8.2892520696422558
100
AcDbArc
 50
247.2240817346153392
 51
263.7193559711621447
  0
ARC
  5
85
100
AcDbEntity
  8
0
 62
256
370
-1
  6
ByLayer
100
AcDbCircle
 10
45.1543156544519135
 20
45.2816306510812723
 30
0.0
 40
8.7500000000008171
100
AcDbArc
 50
186.750000000000199
 51
191.2499999999996021
  0
ARC
  5
86
100
AcDbEntity
  8
0
 62
256
370
-1
  6
ByLayer
100
AcDbCircle
 10
39.981038284146095
 20
36.0185868954976485
 30
0.0
 40
8.2892520696422594
100
AcDbArc
 50
114.2806440288377274
 51
130.7759182653846324
  0
ARC
  5
87
100
AcDbEntity
  8
0
 62
256
370
-1
  6
ByLayer
100
AcDbCircle
 10
45.1543156544519135
 20
45.2816306510817697
 30
0.0
 40
10.9999999999986802
100
AcDbArc
 50
213.749999999999801
 51
218.2500000000003126
  0
ARC
  5
88
100
AcDbEntity
  8
0
 62
256
370
-1
  6
ByLayer
100
AcDbCircle
 10
45.1543156544519135
 20
45.2816306510809028
 30
0.0
 40
11.0000000000004494
100
AcDbArc
 50
231.750000000000199
 51
236.25
  0
ARC
  5
89
100
AcDbEntity
  8
0
 62
256
370
-1
  6
ByLayer
100
AcDbCircle
 10
45.1543156544519135
 20
45.2816306510805973
 30
0.0
 40
10.9999999999998597
100
AcDbArc
 50
249.7500000000000853
 51
254.25
  0
ARC
  5
8A
100
AcDbEntity
  8
0
 62
256
370
-1
  6
ByLayer
100
AcDbCircle
 10
45.1543156544519135
 20
45.2816306510805617
 30
0.0
 40
10.9999999999999201
100
AcDbArc
 50
267.75
 51
272.25
  0
ARC
  5
8B
100
AcDbEntity
  8
0
 62
256
370
-1
  6
ByLayer
100
AcDbCircle
 10
45.1543156544519135
 20
45.2816306510822528
 30
0.0
 40
11.0000000000017906
100
AcDbArc
 50
285.7500000000005116
 51
290.2499999999997158
  0
ARC
  5
8C
100
AcDbEntity
  8
0
 62
256
370
-1
  6
ByLayer
100
AcDbCircle
 10
45.1543156544519135
 20
45.2816306510814499
 30
0.0
 40
10.9999999999989999
100
AcDbArc
 50
303.7499999999997726
 51
308.2500000000002274
  0
ARC
  5
8D
100
AcDbEntity
  8
0
 62
256
370
-1
  6
ByLayer
100
AcDbCircle
 10
45.1543156544519135
 20
45.281630651080583
 30
0.0
 40
10.9999999999999201
100
AcDbArc
 50
321.7500000000001705
 51
326.25
  0
ARC
  5
8E
100
AcDbEntity
  8
0
 62
256
370
-1
  6
ByLayer
100
AcDbCircle
 10
45.1543156544519135
 20
45.2816306510812581
 30
0.0
 40
11.0000000000008296
100
AcDbArc
 50
339.7500000000001137
 51
344.2499999999998863
  0
ARC
  5
8F
100
AcDbEntity
  8
0
 62
256
370
-1
  6
ByLayer
100
AcDbCircle
 10
45.1543156544519135
 20
45.2816306510805404
 30
0.0
 40
10.9999999999999503
100
AcDbArc
 50
357.7500000000001137
 51
2.2500000000000129
  0
ARC
  5
90
100
AcDbEntity
  8
0
 62
256
370
-1
  6
ByLayer
100
AcDbCircle
 10
45.1543156544519135
 20
45.2816306510807749
 30
0.0
 40
11.0000000000003304
100
AcDbArc
 50
15.7499999999999876
 51
20.2500000000001137
  0
ARC
  5
91
100
AcDbEntity
  8
0
 62
256
370
-1
  6
ByLayer
100
AcDbCircle
 10
45.1543156544519135
 20
45.2816306510821676
 30
0.0
 40
10.9999999999982592
100
AcDbArc
 50
33.7499999999997868
 51
38.2500000000004192
  0
ARC
  5
92
100
AcDbEntity
  8
0
 62
256
370
-1
  6
ByLayer
100
AcDbCircle
 10
45.1543156544519135
 20
45.2816306510811941
 30
0.0
 40
11.0000000000007603
100
AcDbArc
 50
51.7500000000002913
 51
56.2499999999999076
  0
ARC
  5
93
100
AcDbEntity
  8
0
 62
256
370
-1
  6
ByLayer
100
AcDbCircle
 10
45.1543156544519135
 20
45.2816306510814002
 30
0.0
 40
11.0000000000009006
100
AcDbArc
 50
69.7500000000002416
 51
74.2499999999999147
  0
ARC
  5
94
100
AcDbEntity
  8
0
 62
256
370
-1
  6
ByLayer
100
AcDbCircle
 10
45.1543156544519135
 20
45.281630651080448
 30
0.0
 40
10.9999999999999591
100
AcDbArc
 50
87.7499999999999858
 51
92.2500000000000284
  0
ARC
  5
95
100
AcDbEntity
  8
0
 62
256
370
-1
  6
ByLayer
100
AcDbCircle
 10
45.1543156544519135
 20
45.2816306510813433
 30
0.0
 40
10.9999999999990603
100
AcDbArc
 50
105.7499999999998863
 51
110.2500000000001705
  0
ARC
  5
96
100
AcDbEntity
  8
0
 62
256
370
-1
  6
ByLayer
100
AcDbCircle
 10
45.1543156544519135
 20
45.2816306510815636
 30
0.0
 40
10.9999999999988702
100
AcDbArc
 50
123.7499999999999289
 51
128.2500000000003695
  0
ARC
  5
97
100
AcDbEntity
  8
0
 62
256
370
-1
  6
ByLayer
100
AcDbCircle
 10
45.1543156544519135
 20
45.2816306510816062
 30
0.0
 40
11.0000000000011209
100
AcDbArc
 50
141.75000000000054
 51
146.2499999999998579
  0
ARC
  5
98
100
AcDbEntity
  8
0
 62
256
370
-1
  6
ByLayer
100
AcDbCircle
 10
45.1543156544519135
 20
45.2816306510811373
 30
0.0
 40
11.0000000000006501
100
AcDbArc
 50
159.7500000000001421
 51
164.2499999999999716
  0
ARC
  5
99
100
AcDbEntity
  8
0
 62
256
370
-1
  6
ByLayer
100
AcDbCircle
 10
45.1543156544519135
 20
45.2816306510804836
 30
0.0
 40
10.9999999999999591
100
AcDbArc
 50
177.7499999999999716
 51
182.2500000000000284
  0
ARC
  5
9A
100
AcDbEntity
  8
0
 62
256
370
-1
  6
ByLayer
100
AcDbCircle
 10
45.1543156544519135
 20
45.2816306510804765
 30
0.0
 40
11.0000000000000409
100
AcDbArc
 50
195.7500000000000853
 51
200.25
  0
MTEXT
  5
9B
100
AcDbEntity
100
AcDbMText
  8
Text
 62
256
370
-1
  6
ByLayer
 10
45.1543156544519135
 20
50.281630651080448
 30
0.0
 40
2.0
 41
100.0
 71
5
 72
2
  1
Spur
  7
standard
 50
0.0
 73
0
 44
1.0
  0
MTEXT
  5
9C
100
AcDbEntity
100
AcDbMText
  8
Text
 62
256
370
-1
  6
ByLayer
 10
45.1543156544519135
 20
40.281630651080448
 30
0.0
 40
2.0
 41
100.0
 71
5
 72
2
  1
Gear
  7
standard
 50
0.0
 73
0
 44
1.0
  0
MTEXT
  5
9D
100
AcDbEntity
100
AcDbMText
  8
Notes
 62
256
370
-1
  6
ByLayer
 10
40.0
 20
70.0
 30
0.0
 40
3.0
 41
100.0
 71
1
 72
2
  1
Spur\~Gear\PMaterial:\~1/4"\~acrylic
  7
standard
 50
0.0
 73
1
 44
1.0
  0
LINE
  5
9E
100
AcDbEntity
100
AcDbLine
  8
0
 62
256
370
-1
  6
ByLayer
 10
47.7064911970037926
 20
47.4516306510804498
 30
0.0
 11
42.6021401119000345
 21
47.4516306510804498
 31
0.0
  0
ARC
  5
9F
100
AcDbEntity
  8
0
 62
256
370
-1
  6
ByLayer
100
AcDbCircle
 10
45.1543156544519135
 20
45.281630651080448
 30
0.0
 40
3.3500000000000001
100
AcDbArc
 50
319.6269825979827601
 51
40.3730174020172754
  0
LINE
  5
A0
100
AcDbEntity
100
AcDbLine
  8
0
 62
256
370
-1
  6
ByLayer
 10
47.7064911970037926
 20
43.1116306510804463
 30
0.0
 11
42.6021401119000345
 21
43.1116306510804463
 31
0.0
  0
ARC
  5
A1
100
AcDbEntity
  8
0
 62
256
370
-1
  6
ByLayer
100
AcDbCircle
 10
45.1543156544519135
 20
45.281630651080448
 30
0.0
 40
3.3500000000000001
100
AcDbArc
 50
139.6269825979827317
 51
220.3730174020172683
  0
ENDSEC
  0
SECTION
  2
OBJECTS
  0
DICTIONARY
  5
C
100
AcDbDictionary
280
0
281
1
  3
ACAD_GROUP
350
D
  3
ACAD_LAYOUT
350
1A
  3
ACAD_MLINESTYLE
350
17
  3
ACAD_PLOTSETTINGS
350
19
  3
ACAD_PLOTSTYLENAME
350
E
  3
AcDbVariableDictionary
350
A2
  0
DICTIONARY
  5
D
100
AcDbDictionary
280
0
281
1
  0
ACDBDICTIONARYWDFLT
  5
E
100
AcDbDictionary
281
1
  3
Normal
350
F
100
AcDbDictionaryWithDefault
340
F
  0
ACDBPLACEHOLDER
  5
F
  0
DICTIONARY
  5
17
100
AcDbDictionary
280
0
281
1
  3
Standard
350
18
  0
MLINESTYLE
  5
18
100
AcDbMlineStyle
  2
STANDARD
 70
0
  3

 62
256
 51
90.0
 52
90.0
 71
2
 49
0.5
 62
256
  6
BYLAYER
 49
-0.5
 62
256
  6
BYLAYER
  0
DICTIONARY
  5
19
100
AcDbDictionary
280
0
281
1
  0
DICTIONARY
  5
1A
100
AcDbDictionary
281
1
  3
Layout1
350
1E
  3
Layout2
350
26
  3
Model
350
22
  0
LAYOUT
  5
1E
100
AcDbPlotSettings
  1

  2
C:\Program Files\AutoCAD 2002\plotters\DWF ePlot (optimized for plotting).pc3
  4

  6

 40
0.0
 41
0.0
 42
0.0
 43
0.0
 44
0.0
 45
0.0
 46
0.0
 47
0.0
 48
0.0
 49
0.0
140
0.0
141
0.0
142
1.0
143
1.0
 70
688
 72
0
 73
0
 74
5
  7

 75
16
147
1.0
148
0.0
149
0.0
100
AcDbLayout
  1
Layout1
 70
1
 71
1
 10
0.0
 20
0.0
 11
420.0
 21
297.0
 12
0.0
 22
0.0
 32
0.0
 14
100000000000000000000.0
 24
100000000000000000000.0
 34
100000000000000000000.0
 15
-100000000000000000000.0
 25
-100000000000000000000.0
 35
-100000000000000000000.0
146
0.0
 13
0.0
 23
0.0
 33
0.0
 16
1.0
 26
0.0
 36
0.0
 17
0.0
 27
1.0
 37
0.0
 76
0
330
1B
  0
LAYOUT
  5
22
100
AcDbPlotSettings
  1

  2
C:\Program Files\AutoCAD 2002\plotters\DWF ePlot (optimized for plotting).pc3
  4

  6

 40
0.0
 41
0.0
 42
0.0
 43
0.0
 44
0.0
 45
0.0
 46
0.0
 47
0.0
 48
0.0
 49
0.0
140
0.0
141
0.0
142
1.0
143
1.0
 70
1712
 72
0
 73
0
 74
0
  7

 75
0
147
1.0
148
0.0
149
0.0
100
AcDbLayout
  1
Model
 70
1
 71
0
 10
0.0
 20
0.0
 11
12.0
 21
9.0
 12
0.0
 22
0.0
 32
0.0
 14
0.0
 24
0.0
 34
0.0
 15
0.0
 25
0.0
 35
0.0
146
0.0
 13
0.0
 23
0.0
 33
0.0
 16
1.0
 26
0.0
 36
0.0
 17
0.0
 27
1.0
 37
0.0
 76
0
330
1F
  0
LAYOUT
  5
26
100
AcDbPlotSettings
  1

  2
C:\Program Files\AutoCAD 2002\plotters\DWF ePlot (optimized for plotting).pc3
  4

  6

 40
0.0
 41
0.0
 42
0.0
 43
0.0
 44
0.0
 45
0.0
 46
0.0
 47
0.0
 48
0.0
 49
0.0
140
0.0
141
0.0
142
1.0
143
1.0
 70
688
 72
0
 73
0
 74
5
  7

 75
16
147
1.0
148
0.0
149
0.0
100
AcDbLayout
  1
Layout2
 70
1
 71
2
 10
0.0
 20
0.0
 11
12.0
 21
9.0
 12
0.0
 22
0.0
 32
0.0
 14
0.0
 24
0.0
 34
0.0
 15
0.0
 25
0.0
 35
0.0
146
0.0
 13
0.0
 23
0.0
 33
0.0
 16
1.0
 26
0.0
 36
0.0
 17
0.0
 27
1.0
 37
0.0
 76
0
330
23
  0
DICTIONARY
  5
A2
100
AcDbDictionary
281
1
  3
DIMASSOC
350
A4
  3
HIDETEXT
350
A3
  0
DICTIONARYVAR
  5
A3
100
DictionaryVariables
280
0
  1
2
  0
DICTIONARYVAR
  5
A4
100
DictionaryVariables
280
0
  1
1
  0
ENDSEC
  0
EOF
