999
dxflib 2.1.2.0
  0
SECTION
  2
HEADER
  9
$ACADVER
  1
AC1015
  9
$HANDSEED
  5
FFFF
  9
$DIMASZ
 40
2.5
  9
$PLIMMIN
 10
0.0
 20
0.0
  9
$DIMEXE
 40
1.25
  9
$DIMGAP
 40
0.625
  9
$PLIMMAX
 10
210.0
 20
297.0
  9
$INSUNITS
 70
4
  9
$DIMSTYLE
  2
Standard
  9
$CLAYER
  8
Notes
  9
$DIMEXO
 40
0.625
  9
$DIMTXT
 40
2.5
  9
$CLAYER
  8
Notes
  0
ENDSEC
  0
SECTION
  2
TABLES
  0
TABLE
  2
VPORT
  5
8
100
AcDbSymbolTable
 70
1
  0
VPORT
  5
30
100
AcDbSymbolTableRecord
100
AcDbViewportTableRecord
  2
*Active
 70
0
 10
0.0
 20
0.0
 11
1.0
 21
1.0
 12
286.3055555555554861
 22
148.5
 13
0.0
 23
0.0
 14
10.0
 24
10.0
 15
10.0
 25
10.0
 16
0.0
 26
0.0
 36
1.0
 17
0.0
 27
0.0
 37
0.0
 40
297.0
 41
1.92798353909465
 42
50.0
 43
0.0
 44
0.0
 50
0.0
 51
0.0
 71
0
 72
100
 73
1
 74
3
 75
1
 76
1
 77
0
 78
0
281
0
 65
1
110
0.0
120
0.0
130
0.0
111
1.0
121
0.0
131
0.0
112
0.0
122
1.0
132
0.0
 79
0
146
0.0
  0
ENDTAB
  0
TABLE
  2
LTYPE
  5
5
100
AcDbSymbolTable
 70
21
  0
LTYPE
  5
14
100
AcDbSymbolTableRecord
100
AcDbLinetypeTableRecord
  2
ByBlock
 70
0
  3

 72
65
 73
0
 40
0.0
  0
LTYPE
  5
15
100
AcDbSymbolTableRecord
100
AcDbLinetypeTableRecord
  2
ByLayer
 70
0
  3

 72
65
 73
0
 40
0.0
  0
LTYPE
  5
16
100
AcDbSymbolTableRecord
100
AcDbLinetypeTableRecord
  2
CONTINUOUS
 70
0
  3
Solid line
 72
65
 73
0
 40
0.0
  0
LTYPE
  5
31
100
AcDbSymbolTableRecord
100
AcDbLinetypeTableRecord
  2
DOT
 70
0
  3
Dot . . . . . . . . . . . . . . . . . . . . . .
 72
65
 73
2
 40
6.3499999999999996
 49
0.0
 74
0
 49
-6.3499999999999996
 74
0
  0
LTYPE
  5
32
100
AcDbSymbolTableRecord
100
AcDbLinetypeTableRecord
  2
DOT2
 70
0
  3
Dot (.5x) .....................................
 72
65
 73
2
 40
3.1749999999999998
 49
0.0
 74
0
 49
-3.1749999999999998
 74
0
  0
LTYPE
  5
33
100
AcDbSymbolTableRecord
100
AcDbLinetypeTableRecord
  2
DOTX2
 70
0
  3
Dot (2x) .  .  .  .  .  .  .  .  .  .  .  .  .
 72
65
 73
2
 40
12.6999999999999993
 49
0.0
 74
0
 49
-12.6999999999999993
 74
0
  0
LTYPE
  5
34
100
AcDbSymbolTableRecord
100
AcDbLinetypeTableRecord
  2
DASHED
 70
0
  3
Dashed __ __ __ __ __ __ __ __ __ __ __ __ __ _
 72
65
 73
2
 40
19.0500000000000007
 49
12.6999999999999993
 74
0
 49
-6.3499999999999996
 74
0
  0
LTYPE
  5
35
100
AcDbSymbolTableRecord
100
AcDbLinetypeTableRecord
  2
DASHED2
 70
0
  3
Dashed (.5x) _ _ _ _ _ _ _ _ _ _ _ _ _ _ _ _ _
 72
65
 73
2
 40
9.5250000000000004
 49
6.3499999999999996
 74
0
 49
-3.1749999999999998
 74
0
  0
LTYPE
  5
36
100
AcDbSymbolTableRecord
100
AcDbLinetypeTableRecord
  2
DASHEDX2
 70
0
  3
Dashed (2x) ____  ____  ____  ____  ____  ___
 72
65
 73
2
 40
38.1000000000000014
 49
25.3999999999999986
 74
0
 49
-12.6999999999999993
 74
0
  0
LTYPE
  5
37
100
AcDbSymbolTableRecord
100
AcDbLinetypeTableRecord
  2
DASHDOT
 70
0
  3
Dash dot __ . __ . __ . __ . __ . __ . __ . __
 72
65
 73
4
 40
25.3999999999999986
 49
12.6999999999999993
 74
0
 49
-6.3499999999999996
 74
0
 49
0.0
 74
0
 49
-6.3499999999999996
 74
0
  0
LTYPE
  5
38
100
AcDbSymbolTableRecord
100
AcDbLinetypeTableRecord
  2
DASHDOT2
 70
0
  3
Dash dot (.5x) _._._._._._._._._._._._._._._.
 72
65
 73
4
 40
12.6999999999999993
 49
6.3499999999999996
 74
0
 49
-3.1749999999999998
 74
0
 49
0.0
 74
0
 49
-3.1749999999999998
 74
0
  0
LTYPE
  5
39
100
AcDbSymbolTableRecord
100
AcDbLinetypeTableRecord
  2
DASHDOTX2
 70
0
  3
Dash dot (2x) ____  .  ____  .  ____  .  ___
 72
65
 73
4
 40
50.7999999999999972
 49
25.3999999999999986
 74
0
 49
-12.6999999999999993
 74
0
 49
0.0
 74
0
 49
-12.6999999999999993
 74
0
  0
LTYPE
  5
3A
100
AcDbSymbolTableRecord
100
AcDbLinetypeTableRecord
  2
DIVIDE
 70
0
  3
Divide ____ . . ____ . . ____ . . ____ . . ____
 72
65
 73
6
 40
31.75
 49
12.6999999999999993
 74
0
 49
-6.3499999999999996
 74
0
 49
0.0
 74
0
 49
-6.3499999999999996
 74
0
 49
0.0
 74
0
 49
-6.3499999999999996
 74
0
  0
LTYPE
  5
3B
100
AcDbSymbolTableRecord
100
AcDbLinetypeTableRecord
  2
DIVIDE2
 70
0
  3
Divide (.5x) __..__..__..__..__..__..__..__.._
 72
65
 73
6
 40
15.875
 49
6.3499999999999996
 74
0
 49
-3.1749999999999998
 74
0
 49
0.0
 74
0
 49
-3.1749999999999998
 74
0
 49
0.0
 74
0
 49
-3.1749999999999998
 74
0
  0
LTYPE
  5
3C
100
AcDbSymbolTableRecord
100
AcDbLinetypeTableRecord
  2
DIVIDEX2
 70
0
  3
Divide (2x) ________  .  .  ________  .  .  _
 72
65
 73
6
 40
63.5
 49
25.3999999999999986
 74
0
 49
-12.6999999999999993
 74
0
 49
0.0
 74
0
 49
-12.6999999999999993
 74
0
 49
0.0
 74
0
 49
-12.6999999999999993
 74
0
  0
LTYPE
  5
3D
100
AcDbSymbolTableRecord
100
AcDbLinetypeTableRecord
  2
CENTER
 70
0
  3
Center ____ _ ____ _ ____ _ ____ _ ____ _ ____
 72
65
 73
4
 40
50.7999999999999972
 49
31.75
 74
0
 49
-6.3499999999999996
 74
0
 49
6.3499999999999996
 74
0
 49
-6.3499999999999996
 74
0
  0
LTYPE
  5
3E
100
AcDbSymbolTableRecord
100
AcDbLinetypeTableRecord
  2
CENTER2
 70
0
  3
Center (.5x) ___ _ ___ _ ___ _ ___ _ ___ _ ___
 72
65
 73
4
 40
28.5749999999999993
 49
19.0500000000000007
 74
0
 49
-3.1749999999999998
 74
0
 49
3.1749999999999998
 74
0
 49
-3.1749999999999998
 74
0
  0
LTYPE
  5
3F
100
AcDbSymbolTableRecord
100
AcDbLinetypeTableRecord
  2
CENTERX2
 70
0
  3
Center (2x) ________  __  ________  __  _____
 72
65
 73
4
 40
101.5999999999999943
 49
63.5
 74
0
 49
-12.6999999999999993
 74
0
 49
12.6999999999999993
 74
0
 49
-12.6999999999999993
 74
0
  0
LTYPE
  5
40
100
AcDbSymbolTableRecord
100
AcDbLinetypeTableRecord
  2
BORDER
 70
0
  3
Border __ __ . __ __ . __ __ . __ __ . __ __ .
 72
65
 73
6
 40
44.4500000000000028
 49
12.6999999999999993
 74
0
 49
-6.3499999999999996
 74
0
 49
12.6999999999999993
 74
0
 49
-6.3499999999999996
 74
0
 49
0.0
 74
0
 49
-6.3499999999999996
 74
0
  0
LTYPE
  5
41
100
AcDbSymbolTableRecord
100
AcDbLinetypeTableRecord
  2
BORDER2
 70
0
  3
Border (.5x) __.__.__.__.__.__.__.__.__.__.__.
 72
65
 73
6
 40
22.2250000000000014
 49
6.3499999999999996
 74
0
 49
-3.1749999999999998
 74
0
 49
6.3499999999999996
 74
0
 49
-3.1749999999999998
 74
0
 49
0.0
 74
0
 49
-3.1749999999999998
 74
0
  0
LTYPE
  5
42
100
AcDbSymbolTableRecord
100
AcDbLinetypeTableRecord
  2
BORDERX2
 70
0
  3
Border (2x) ____  ____  .  ____  ____  .  ___
 72
65
 73
6
 40
88.9000000000000057
 49
25.3999999999999986
 74
0
 49
-12.6999999999999993
 74
0
 49
25.3999999999999986
 74
0
 49
-12.6999999999999993
 74
0
 49
0.0
 74
0
 49
-12.6999999999999993
 74
0
  0
ENDTAB
  0
TABLE
  2
LAYER
  5
2
100
AcDbSymbolTable
 70
7
  0
LAYER
  5
10
100
AcDbSymbolTableRecord
100
AcDbLayerTableRecord
  2
0
 70
0
 62
7
  6
CONTINUOUS
370
0
390
F
  0
LAYER
  5
43
100
AcDbSymbolTableRecord
100
AcDbLayerTableRecord
  2
Bottom
 70
0
 62
7
  6
CONTINUOUS
370
0
390
F
  0
LAYER
  5
44
100
AcDbSymbolTableRecord
100
AcDbLayerTableRecord
  2
Top
 70
0
 62
7
  6
CONTINUOUS
370
0
390
F
  0
LAYER
  5
45
100
AcDbSymbolTableRecord
100
AcDbLayerTableRecord
  2
Top Text
 70
0
 62
4
  6
CONTINUOUS
370
0
390
F
  0
LAYER
  5
46
100
AcDbSymbolTableRecord
100
AcDbLayerTableRecord
  2
Bottom Text
 70
0
 62
7
  6
CONTINUOUS
370
0
390
F
  0
LAYER
  5
47
100
AcDbSymbolTableRecord
100
AcDbLayerTableRecord
  2
Drawings
 70
0
 62
5
  6
CONTINUOUS
370
0
390
F
  0
LAYER
  5
48
100
AcDbSymbolTableRecord
100
AcDbLayerTableRecord
  2
Notes
 70
0
 62
7
  6
CONTINUOUS
370
0
390
F
  0
ENDTAB
  0
TABLE
  2
STYLE
  5
3
100
AcDbSymbolTable
 70
1
  0
STYLE
  5
11
100
AcDbSymbolTableRecord
100
AcDbTextStyleTableRecord
  2
Standard
 70
0
 40
0.0
 41
0.75
 50
0.0
 71
0
 42
2.5
  3
txt
  4

  0
ENDTAB
  0
TABLE
  2
VIEW
  5
6
100
AcDbSymbolTable
 70
0
  0
ENDTAB
  0
TABLE
  2
UCS
  5
7
100
AcDbSymbolTable
 70
0
  0
ENDTAB
  0
TABLE
  2
APPID
  5
9
100
AcDbSymbolTable
 70
1
  0
APPID
  5
12
100
AcDbSymbolTableRecord
100
AcDbRegAppTableRecord
  2
ACAD
 70
0
  0
ENDTAB
  0
TABLE
  2
DIMSTYLE
  5
A
100
AcDbSymbolTable
 70
1
100
AcDbDimStyleTable
 71
0
  0
DIMSTYLE
105
27
100
AcDbSymbolTableRecord
100
AcDbDimStyleTableRecord
  2
Standard
 41
2.5
 42
0.625
 43
3.75
 44
1.25
 70
0
 73
0
 74
0
 77
1
 78
8
140
2.5
141
2.5
143
0.03937007874016
147
0.625
171
3
172
1
271
2
272
2
274
3
278
44
283
0
284
8
340
11
  0
ENDTAB
  0
TABLE
  2
BLOCK_RECORD
  5
1
100
AcDbSymbolTable
 70
1
  0
BLOCK_RECORD
  5
1F
100
AcDbSymbolTableRecord
100
AcDbBlockTableRecord
  2
*Model_Space
340
22
  0
BLOCK_RECORD
  5
1B
100
AcDbSymbolTableRecord
100
AcDbBlockTableRecord
  2
*Paper_Space
340
1E
  0
BLOCK_RECORD
  5
23
100
AcDbSymbolTableRecord
100
AcDbBlockTableRecord
  2
*Paper_Space0
340
26
  0
ENDTAB
  0
ENDSEC
  0
SECTION
  2
BLOCKS
  0
BLOCK
  5
20
100
AcDbEntity
  8
0
100
AcDbBlockBegin
  2
*Model_Space
 70
0
 10
0.0
 20
0.0
 30
0.0
  3
*Model_Space
  1

  0
ENDBLK
  5
21
100
AcDbEntity
  8
0
100
AcDbBlockEnd
  0
BLOCK
  5
1C
100
AcDbEntity
 67
1
  8
0
100
AcDbBlockBegin
  2
*Paper_Space
 70
0
 10
0.0
 20
0.0
 30
0.0
  3
*Paper_Space
  1

  0
ENDBLK
  5
1D
100
AcDbEntity
 67
1
  8
0
100
AcDbBlockEnd
  0
BLOCK
  5
24
100
AcDbEntity
  8
0
100
AcDbBlockBegin
  2
*Paper_Space0
 70
0
 10
0.0
 20
0.0
 30
0.0
  3
*Paper_Space0
  1

  0
ENDBLK
  5
25
100
AcDbEntity
  8
0
100
AcDbBlockEnd
  0
ENDSEC
  0
SECTION
  2
ENTITIES
  0
ARC
  5
49
100
AcDbEntity
  8
Bottom
 62
256
370
-1
  6
ByLayer
100
AcDbCircle
 10
45.1543156544519135
 20
45.2816306510804623
 30
0.0
 40
2.575000000000002
100
AcDbArc
 50
45.338846359300689
 51
134.6611536406994105
  0
LINE
  5
4A
100
AcDbEntity
100
AcDbLine
  8
Bottom
 62
256
370
-1
  6
ByLayer
 10
43.3443156544519113
 20
43.4500944106527385
 30
0.0
 11
43.3443156544519113
 21
47.1131668915081576
 31
0.0
  0
ARC
  5
4B
100
AcDbEntity
  8
Bottom
 62
256
370
-1
  6
ByLayer
100
AcDbCircle
 10
45.1543156544519135
 20
45.2816306510804623
 30
0.0
 40
2.5750000000000002
100
AcDbArc
 50
225.3388463593007032
 51
314.6611536406995242
  0
LINE
  5
4C
100
AcDbEntity
100
AcDbLine
  8
Bottom
 62
256
370
-1
  6
ByLayer
 10
46.9643156544519158
 20
47.1131668915081292
 30
0.0
 11
46.9643156544519158
 21
43.4500944106528024
 31
0.0
  0
ARC
  5
4D
100
AcDbEntity
  8
Bottom
 62
256
370
-1
  6
ByLayer
100
AcDbCircle
 10
45.1543156544516151
 20
45.2816306510809241
 30
0.0
 40
8.7499999999995008
100
AcDbArc
 50
114.7499999999999147
 51
119.2500000000002984
  0
ARC
  5
4E
100
AcDbEntity
  8
Bottom
 62
256
370
-1
  6
ByLayer
100
AcDbCircle
 10
34.7460069059378114
 20
47.3392718645980821
 30
0.0
 40
8.2892520696423908
100
AcDbArc
 50
42.280644028837969
 51
58.7759182653846182
  0
ARC
  5
4F
100
AcDbEntity
  8
Bottom
 62
256
370
-1
  6
ByLayer
100
AcDbCircle
 10
49.6074993280730112
 20
54.9115804711643065
 30
0.0
 40
8.2892520696422718
100
AcDbArc
 50
175.2240817346153108
 51
191.7193559711620878
  0
ARC
  5
50
100
AcDbEntity
  8
Bottom
 62
256
370
-1
  6
ByLayer
100
AcDbCircle
 10
45.1543156544525104
 20
45.2816306510798938
 30
0.0
 40
8.750000000000794
100
AcDbArc
 50
132.7500000000003126
 51
137.249999999999801
  0
ARC
  5
51
100
AcDbEntity
  8
Bottom
 62
256
370
-1
  6
ByLayer
100
AcDbCircle
 10
34.6195796922625121
 20
44.0222194494016463
 30
0.0
 40
8.2892520696423642
100
AcDbArc
 50
60.2806440288378909
 51
76.7759182653845471
  0
ARC
  5
52
100
AcDbEntity
  8
Bottom
 62
256
370
-1
  6
ByLayer
100
AcDbCircle
 10
46.4137268561306158
 20
55.8163666132695582
 30
0.0
 40
8.2892520696422274
100
AcDbArc
 50
193.2240817346151971
 51
209.7193559711620878
  0
ARC
  5
53
100
AcDbEntity
  8
Bottom
 62
256
370
-1
  6
ByLayer
100
AcDbCircle
 10
45.1543156544530078
 20
45.2816306510798938
 30
0.0
 40
8.7500000000012612
100
AcDbArc
 50
150.7500000000003979
 51
155.249999999999801
  0
ARC
  5
54
100
AcDbEntity
  8
Bottom
 62
256
370
-1
  6
ByLayer
100
AcDbCircle
 10
35.5243658343877016
 20
40.8284469774593646
 30
0.0
 40
8.2892520696422611
100
AcDbArc
 50
78.2806440288378127
 51
94.7759182653846892
  0
ARC
  5
55
100
AcDbEntity
  8
Bottom
 62
256
370
-1
  6
ByLayer
100
AcDbCircle
 10
43.0966744409342155
 20
55.6899393995942162
 30
0.0
 40
8.2892520696423446
100
AcDbArc
 50
211.2240817346153108
 51
227.7193559711620878
  0
ARC
  5
56
100
AcDbEntity
  8
Bottom
 62
256
370
-1
  6
ByLayer
100
AcDbCircle
 10
45.1543156544534199
 20
45.2816306510802349
 30
0.0
 40
8.7500000000015916
100
AcDbArc
 50
168.7500000000005116
 51
173.2499999999996021
  0
ARC
  5
57
100
AcDbEntity
  8
Bottom
 62
256
370
-1
  6
ByLayer
100
AcDbCircle
 10
37.371798560706516
 20
38.0705831506461223
 30
0.0
 40
8.2892520696423002
100
AcDbArc
 50
96.2806440288378838
 51
112.7759182653847034
  0
ARC
  5
58
100
AcDbEntity
  8
Bottom
 62
256
370
-1
  6
ByLayer
100
AcDbCircle
 10
39.9810382841462157
 20
54.544674406663276
 30
0.0
 40
8.2892520696423322
100
AcDbArc
 50
229.2240817346153392
 51
245.7193559711620594
  0
ARC
  5
59
100
AcDbEntity
  8
Bottom
 62
256
370
-1
  6
ByLayer
100
AcDbCircle
 10
45.1543156544527093
 20
45.2816306510805973
 30
0.0
 40
8.7500000000008171
100
AcDbArc
 50
186.750000000000199
 51
191.2499999999996021
  0
ARC
  5
5A
100
AcDbEntity
  8
Bottom
 62
256
370
-1
  6
ByLayer
100
AcDbCircle
 10
39.9810382841461021
 20
36.0185868954977337
 30
0.0
 40
8.2892520696421972
100
AcDbArc
 50
114.280644028837699
 51
130.7759182653848029
  0
ARC
  5
5B
100
AcDbEntity
  8
Bottom
 62
256
370
-1
  6
ByLayer
100
AcDbCircle
 10
37.371798560706516
 20
52.4926781515146743
 30
0.0
 40
8.2892520696422398
100
AcDbArc
 50
247.2240817346151687
 51
263.7193559711620878
  0
ARC
  5
5C
100
AcDbEntity
  8
Bottom
 62
256
370
-1
  6
ByLayer
100
AcDbCircle
 10
45.1543156544525957
 20
45.2816306510807749
 30
0.0
 40
8.750000000000778
100
AcDbArc
 50
204.750000000000199
 51
209.25
  0
ARC
  5
5D
100
AcDbEntity
  8
Bottom
 62
256
370
-1
  6
ByLayer
100
AcDbCircle
 10
43.0966744409342013
 20
34.8733219025664454
 30
0.0
 40
8.2892520696423624
100
AcDbArc
 50
132.2806440288379122
 51
148.7759182653846892
  0
ARC
  5
5E
100
AcDbEntity
  8
Bottom
 62
256
370
-1
  6
ByLayer
100
AcDbCircle
 10
35.5243658343877158
 20
49.7348143247016168
 30
0.0
 40
8.2892520696423251
100
AcDbArc
 50
265.2240817346153108
 51
281.7193559711620878
  0
ARC
  5
5F
100
AcDbEntity
  8
Bottom
 62
256
370
-1
  6
ByLayer
100
AcDbCircle
 10
45.1543156544524109
 20
45.281630651080981
 30
0.0
 40
8.7500000000007532
100
AcDbArc
 50
222.7500000000003126
 51
227.249999999999801
  0
ARC
  5
60
100
AcDbEntity
  8
Bottom
 62
256
370
-1
  6
ByLayer
100
AcDbCircle
 10
46.4137268561306016
 20
34.7468946888911177
 30
0.0
 40
8.2892520696422718
100
AcDbArc
 50
150.2806440288377985
 51
166.7759182653846892
  0
ARC
  5
61
100
AcDbEntity
  8
Bottom
 62
256
370
-1
  6
ByLayer
100
AcDbCircle
 10
34.6195796922626116
 20
46.5410418527591432
 30
0.0
 40
8.2892520696422114
100
AcDbArc
 50
283.2240817346153108
 51
299.7193559711622015
  0
ARC
  5
62
100
AcDbEntity
  8
Bottom
 62
256
370
-1
  6
ByLayer
100
AcDbCircle
 10
45.1543156544523967
 20
45.281630651081457
 30
0.0
 40
8.7500000000011262
100
AcDbArc
 50
240.7500000000002842
 51
245.2499999999997158
  0
ARC
  5
63
100
AcDbEntity
  8
Bottom
 62
256
370
-1
  6
ByLayer
100
AcDbCircle
 10
49.6074993280730112
 20
35.6516808310163071
 30
0.0
 40
8.2892520696423251
100
AcDbArc
 50
168.2806440288379122
 51
184.775918265384604
  0
ARC
  5
64
100
AcDbEntity
  8
Bottom
 62
256
370
-1
  6
ByLayer
100
AcDbCircle
 10
34.7460069059377972
 20
43.2239894375627784
 30
0.0
 40
8.2892520696423801
100
AcDbArc
 50
301.2240817346154245
 51
317.7193559711620878
  0
ARC
  5
65
100
AcDbEntity
  8
Bottom
 62
256
370
-1
  6
ByLayer
100
AcDbCircle
 10
45.1543156544521125
 20
45.2816306510819544
 30
0.0
 40
8.7500000000015472
100
AcDbArc
 50
258.7500000000005116
 51
263.2499999999997158
  0
ARC
  5
66
100
AcDbEntity
  8
Bottom
 62
256
370
-1
  6
ByLayer
100
AcDbCircle
 10
52.3653631548861185
 20
37.4991135573350718
 30
0.0
 40
8.2892520696422025
100
AcDbArc
 50
186.2806440288377132
 51
202.7759182653846892
  0
ARC
  5
67
100
AcDbEntity
  8
Bottom
 62
256
370
-1
  6
ByLayer
100
AcDbCircle
 10
35.891271898869114
 20
40.1083532807747005
 30
0.0
 40
8.2892520696423126
100
AcDbArc
 50
319.2240817346151971
 51
335.7193559711622015
  0
ARC
  5
68
100
AcDbEntity
  8
Bottom
 62
256
370
-1
  6
ByLayer
100
AcDbCircle
 10
45.1543156544518141
 20
45.2816306510812723
 30
0.0
 40
8.7500000000008278
100
AcDbArc
 50
276.75
 51
281.2499999999996021
  0
ARC
  5
69
100
AcDbEntity
  8
Bottom
 62
256
370
-1
  6
ByLayer
100
AcDbCircle
 10
54.4173594100347131
 20
40.1083532807746721
 30
0.0
 40
8.2892520696422594
100
AcDbArc
 50
204.2806440288377132
 51
220.7759182653846892
  0
ARC
  5
6A
100
AcDbEntity
  8
Bottom
 62
256
370
-1
  6
ByLayer
100
AcDbCircle
 10
37.9432681540175949
 20
37.499113557335086
 30
0.0
 40
8.2892520696422558
100
AcDbArc
 50
337.2240817346153108
 51
353.7193559711622015
  0
ARC
  5
6B
100
AcDbEntity
  8
Bottom
 62
256
370
-1
  6
ByLayer
100
AcDbCircle
 10
45.1543156544514019
 20
45.2816306510812865
 30
0.0
 40
8.7500000000009646
100
AcDbArc
 50
294.7500000000002274
 51
299.2499999999998863
  0
ARC
  5
6C
100
AcDbEntity
  8
Bottom
 62
256
370
-1
  6
ByLayer
100
AcDbCircle
 10
55.5626244029659162
 20
43.2239894375628282
 30
0.0
 40
8.2892520696423961
100
AcDbArc
 50
222.2806440288379974
 51
238.775918265384604
  0
ARC
  5
6D
100
AcDbEntity
  8
Bottom
 62
256
370
-1
  6
ByLayer
100
AcDbCircle
 10
40.7011319808307164
 20
35.6516808310163
 30
0.0
 40
8.2892520696423251
100
AcDbArc
 50
355.2240817346154245
 51
11.7193559711621003
  0
ARC
  5
6E
100
AcDbEntity
  8
Bottom
 62
256
370
-1
  6
ByLayer
100
AcDbCircle
 10
45.1543156544517146
 20
45.2816306510806257
 30
0.0
 40
8.7500000000002824
100
AcDbArc
 50
312.7500000000001137
 51
317.25
  0
ARC
  5
6F
100
AcDbEntity
  8
Bottom
 62
256
370
-1
  6
ByLayer
100
AcDbCircle
 10
55.6890516166412155
 20
46.5410418527591929
 30
0.0
 40
8.2892520696422647
100
AcDbArc
 50
240.2806440288377701
 51
256.7759182653848029
  0
ARC
  5
70
100
AcDbEntity
  8
Bottom
 62
256
370
-1
  6
ByLayer
100
AcDbCircle
 10
43.8949044527731118
 20
34.7468946888911105
 30
0.0
 40
8.2892520696423002
100
AcDbArc
 50
13.2240817346152895
 51
29.7193559711621518
  0
ARC
  5
71
100
AcDbEntity
  8
Bottom
 62
256
370
-1
  6
ByLayer
100
AcDbCircle
 10
45.1543156544509188
 20
45.2816306510809667
 30
0.0
 40
8.7500000000011138
100
AcDbArc
 50
330.7500000000003979
 51
335.2499999999997726
  0
ARC
  5
72
100
AcDbEntity
  8
Bottom
 62
256
370
-1
  6
ByLayer
100
AcDbCircle
 10
54.7842654745160118
 20
49.7348143247015315
 30
0.0
 40
8.2892520696422185
100
AcDbArc
 50
258.2806440288376848
 51
274.7759182653846892
  0
ARC
  5
73
100
AcDbEntity
  8
Bottom
 62
256
370
-1
  6
ByLayer
100
AcDbCircle
 10
47.2119568679696258
 20
34.8733219025664596
 30
0.0
 40
8.2892520696423482
100
AcDbArc
 50
31.2240817346154031
 51
47.7193559711621376
  0
ARC
  5
74
100
AcDbEntity
  8
Bottom
 62
256
370
-1
  6
ByLayer
100
AcDbCircle
 10
45.1543156544503219
 20
45.2816306510807038
 30
0.0
 40
8.7500000000015827
100
AcDbArc
 50
348.7500000000005116
 51
353.2499999999996021
  0
ARC
  5
75
100
AcDbEntity
  8
Bottom
 62
256
370
-1
  6
ByLayer
100
AcDbCircle
 10
52.9368327481973111
 20
52.4926781515146175
 30
0.0
 40
8.2892520696422451
100
AcDbArc
 50
276.2806440288377985
 51
292.7759182653846892
  0
ARC
  5
76
100
AcDbEntity
  8
Bottom
 62
256
370
-1
  6
ByLayer
100
AcDbCircle
 10
50.3275930247576113
 20
36.0185868954976485
 30
0.0
 40
8.2892520696423091
100
AcDbArc
 50
49.2240817346153534
 51
65.7193559711621731
  0
ARC
  5
77
100
AcDbEntity
  8
Bottom
 62
256
370
-1
  6
ByLayer
100
AcDbCircle
 10
45.1543156544511177
 20
45.2816306510803273
 30
0.0
 40
8.7500000000008171
100
AcDbArc
 50
6.7500000000002194
 51
11.2499999999996092
  0
ARC
  5
78
100
AcDbEntity
  8
Bottom
 62
256
370
-1
  6
ByLayer
100
AcDbCircle
 10
50.3275930247577108
 20
54.5446744066626437
 30
0.0
 40
8.2892520696421972
100
AcDbArc
 50
294.2806440288377985
 51
310.7759182653848029
  0
ARC
  5
79
100
AcDbEntity
  8
Bottom
 62
256
370
-1
  6
ByLayer
100
AcDbCircle
 10
52.9368327481973111
 20
38.070583150646172
 30
0.0
 40
8.2892520696422398
100
AcDbArc
 50
67.2240817346152255
 51
83.7193559711622015
  0
ARC
  5
7A
100
AcDbEntity
  8
Bottom
 62
256
370
-1
  6
ByLayer
100
AcDbCircle
 10
45.1543156544512172
 20
45.2816306510800644
 30
0.0
 40
8.750000000000826
100
AcDbArc
 50
24.7500000000002416
 51
29.2499999999998224
  0
ARC
  5
7B
100
AcDbEntity
  8
Bottom
 62
256
370
-1
  6
ByLayer
100
AcDbCircle
 10
47.2119568679696116
 20
55.6899393995942091
 30
0.0
 40
8.2892520696423073
100
AcDbArc
 50
312.2806440288379122
 51
328.7759182653846892
  0
ARC
  5
7C
100
AcDbEntity
  8
Bottom
 62
256
370
-1
  6
ByLayer
100
AcDbCircle
 10
54.7842654745160118
 20
40.8284469774593077
 30
0.0
 40
8.2892520696423322
100
AcDbArc
 50
85.224081734615325
 51
101.7193559711620026
  0
ARC
  5
7D
100
AcDbEntity
  8
Bottom
 62
256
370
-1
  6
ByLayer
100
AcDbCircle
 10
45.1543156544517146
 20
45.2816306510802704
 30
0.0
 40
8.7500000000002824
100
AcDbArc
 50
42.7500000000001421
 51
47.2499999999999503
  0
ARC
  5
7E
100
AcDbEntity
  8
Bottom
 62
256
370
-1
  6
ByLayer
100
AcDbCircle
 10
43.8949044527731118
 20
55.8163666132698211
 30
0.0
 40
8.2892520696422647
100
AcDbArc
 50
330.2806440288377985
 51
346.7759182653848029
  0
ARC
  5
7F
100
AcDbEntity
  8
Bottom
 62
256
370
-1
  6
ByLayer
100
AcDbCircle
 10
55.6890516166412155
 20
44.0222194494017103
 30
0.0
 40
8.2892520696423002
100
AcDbArc
 50
103.2240817346152966
 51
119.7193559711622015
  0
ARC
  5
80
100
AcDbEntity
  8
Bottom
 62
256
370
-1
  6
ByLayer
100
AcDbCircle
 10
45.1543156544513167
 20
45.281630651079297
 30
0.0
 40
8.7500000000012612
100
AcDbArc
 50
60.750000000000405
 51
65.249999999999801
  0
ARC
  5
81
100
AcDbEntity
  8
Bottom
 62
256
370
-1
  6
ByLayer
100
AcDbCircle
 10
40.7011319808308158
 20
54.9115804711586648
 30
0.0
 40
8.2892520696422611
100
AcDbArc
 50
348.2806440288377985
 51
4.7759182653846368
  0
ARC
  5
82
100
AcDbEntity
  8
Bottom
 62
256
370
-1
  6
ByLayer
100
AcDbCircle
 10
55.5626244029659162
 20
47.3392718645981603
 30
0.0
 40
8.2892520696423446
100
AcDbArc
 50
121.2240817346153108
 51
137.7193559711620026
  0
ARC
  5
83
100
AcDbEntity
  8
Bottom
 62
256
370
-1
  6
ByLayer
100
AcDbCircle
 10
45.1543156544518141
 20
45.2816306510796167
 30
0.0
 40
8.7500000000008402
100
AcDbArc
 50
78.7500000000001705
 51
83.2499999999998153
  0
ARC
  5
84
100
AcDbEntity
  8
Bottom
 62
256
370
-1
  6
ByLayer
100
AcDbCircle
 10
37.9432681540175096
 20
53.0641477448258456
 30
0.0
 40
8.289252069642286
100
AcDbArc
 50
6.2806440288377727
 51
22.7759182653846288
  0
ARC
  5
85
100
AcDbEntity
  8
Bottom
 62
256
370
-1
  6
ByLayer
100
AcDbCircle
 10
54.4173594100347131
 20
50.45490802138616
 30
0.0
 40
8.2892520696422665
100
AcDbArc
 50
139.2240817346153108
 51
155.7193559711620878
  0
ARC
  5
86
100
AcDbEntity
  8
Bottom
 62
256
370
-1
  6
ByLayer
100
AcDbCircle
 10
52.365363154886218
 20
53.0641477448256822
 30
0.0
 40
8.2892520696422558
100
AcDbArc
 50
157.2240817346153108
 51
173.7193559711622015
  0
ARC
  5
87
100
AcDbEntity
  8
Bottom
 62
256
370
-1
  6
ByLayer
100
AcDbCircle
 10
45.154315654452013
 20
45.2816306510796522
 30
0.0
 40
8.7500000000008171
100
AcDbArc
 50
96.7500000000001847
 51
101.2499999999996021
  0
ARC
  5
88
100
AcDbEntity
  8
Bottom
 62
256
370
-1
  6
ByLayer
100
AcDbCircle
 10
35.891271898869114
 20
50.4549080213862524
 30
0.0
 40
8.2892520696422594
100
AcDbArc
 50
24.280644028837731
 51
40.7759182653846466
  0
ARC
  5
89
100
AcDbEntity
  8
Bottom
 62
256
370
-1
  6
ByLayer
100
AcDbCircle
 10
45.1543156544511177
 20
45.2816306510815139
 30
0.0
 40
10.9999999999986802
100
AcDbArc
 50
123.7499999999998153
 51
128.2500000000003126
  0
ARC
  5
8A
100
AcDbEntity
  8
Bottom
 62
256
370
-1
  6
ByLayer
100
AcDbCircle
 10
45.1543156544523114
 20
45.2816306510802136
 30
0.0
 40
11.0000000000004494
100
AcDbArc
 50
141.750000000000199
 51
146.25
  0
ARC
  5
8B
100
AcDbEntity
  8
Bottom
 62
256
370
-1
  6
ByLayer
100
AcDbCircle
 10
45.1543156544518141
 20
45.2816306510805262
 30
0.0
 40
10.9999999999998597
100
AcDbArc
 50
159.7500000000001137
 51
164.25
  0
ARC
  5
8C
100
AcDbEntity
  8
Bottom
 62
256
370
-1
  6
ByLayer
100
AcDbCircle
 10
45.1543156544518141
 20
45.281630651080448
 30
0.0
 40
10.9999999999999201
100
AcDbArc
 50
177.75
 51
182.25
  0
ARC
  5
8D
100
AcDbEntity
  8
Bottom
 62
256
370
-1
  6
ByLayer
100
AcDbCircle
 10
45.1543156544536188
 20
45.2816306510810236
 30
0.0
 40
11.0000000000017906
100
AcDbArc
 50
195.7500000000005116
 51
200.2499999999996874
  0
ARC
  5
8E
100
AcDbEntity
  8
Bottom
 62
256
370
-1
  6
ByLayer
100
AcDbCircle
 10
45.1543156544511177
 20
45.2816306510798512
 30
0.0
 40
10.9999999999989999
100
AcDbArc
 50
213.749999999999801
 51
218.250000000000199
  0
ARC
  5
8F
100
AcDbEntity
  8
Bottom
 62
256
370
-1
  6
ByLayer
100
AcDbCircle
 10
45.1543156544517998
 20
45.2816306510803699
 30
0.0
 40
10.9999999999999201
100
AcDbArc
 50
231.750000000000199
 51
236.25
  0
ARC
  5
90
100
AcDbEntity
  8
Bottom
 62
256
370
-1
  6
ByLayer
100
AcDbCircle
 10
45.1543156544521125
 20
45.2816306510812439
 30
0.0
 40
11.0000000000008296
100
AcDbArc
 50
249.7500000000001421
 51
254.2499999999999147
  0
ARC
  5
91
100
AcDbEntity
  8
Bottom
 62
256
370
-1
  6
ByLayer
100
AcDbCircle
 10
45.1543156544519135
 20
45.2816306510803841
 30
0.0
 40
10.9999999999999503
100
AcDbArc
 50
267.7500000000001137
 51
272.25
  0
ARC
  5
92
100
AcDbEntity
  8
Bottom
 62
256
370
-1
  6
ByLayer
100
AcDbCircle
 10
45.1543156544518141
 20
45.2816306510807607
 30
0.0
 40
11.0000000000003304
100
AcDbArc
 50
285.75
 51
290.2500000000001137
  0
ARC
  5
93
100
AcDbEntity
  8
Bottom
 62
256
370
-1
  6
ByLayer
100
AcDbCircle
 10
45.1543156544529083
 20
45.2816306510790483
 30
0.0
 40
10.9999999999982592
100
AcDbArc
 50
303.7499999999997726
 51
308.2500000000003979
  0
ARC
  5
94
100
AcDbEntity
  8
Bottom
 62
256
370
-1
  6
ByLayer
100
AcDbCircle
 10
45.1543156544513167
 20
45.281630651080917
 30
0.0
 40
11.0000000000007603
100
AcDbArc
 50
321.7500000000002842
 51
326.2499999999998863
  0
ARC
  5
95
100
AcDbEntity
  8
Bottom
 62
256
370
-1
  6
ByLayer
100
AcDbCircle
 10
45.1543156544510182
 20
45.2816306510807465
 30
0.0
 40
11.0000000000009006
100
AcDbArc
 50
339.7500000000002274
 51
344.2499999999998863
  0
ARC
  5
96
100
AcDbEntity
  8
Bottom
 62
256
370
-1
  6
ByLayer
100
AcDbCircle
 10
45.1543156544519135
 20
45.2816306510804623
 30
0.0
 40
10.9999999999999591
100
AcDbArc
 50
357.75
 51
2.2500000000000311
  0
ARC
  5
97
100
AcDbEntity
  8
Bottom
 62
256
370
-1
  6
ByLayer
100
AcDbCircle
 10
45.1543156544527946
 20
45.2816306510807323
 30
0.0
 40
10.9999999999990603
100
AcDbArc
 50
15.7499999999998792
 51
20.2500000000001599
  0
ARC
  5
98
100
AcDbEntity
  8
Bottom
 62
256
370
-1
  6
ByLayer
100
AcDbCircle
 10
45.1543156544528088
 20
45.2816306510810875
 30
0.0
 40
10.9999999999988702
100
AcDbArc
 50
33.7499999999999503
 51
38.2500000000003766
  0
ARC
  5
99
100
AcDbEntity
  8
Bottom
 62
256
370
-1
  6
ByLayer
100
AcDbCircle
 10
45.1543156544512172
 20
45.2816306510795528
 30
0.0
 40
11.0000000000011209
100
AcDbArc
 50
51.75000000000054
 51
56.2499999999998721
  0
ARC
  5
9A
100
AcDbEntity
  8
Bottom
 62
256
370
-1
  6
ByLayer
100
AcDbCircle
 10
45.1543156544517146
 20
45.281630651079837
 30
0.0
 40
11.0000000000006501
100
AcDbArc
 50
69.7500000000001563
 51
74.2499999999999716
  0
ARC
  5
9B
100
AcDbEntity
  8
Bottom
 62
256
370
-1
  6
ByLayer
100
AcDbCircle
 10
45.1543156544519135
 20
45.2816306510805049
 30
0.0
 40
10.9999999999999591
100
AcDbArc
 50
87.7499999999999574
 51
92.2500000000000426
  0
ARC
  5
9C
100
AcDbEntity
  8
Bottom
 62
256
370
-1
  6
ByLayer
100
AcDbCircle
 10
45.1543156544519135
 20
45.2816306510804196
 30
0.0
 40
11.0000000000000409
100
AcDbArc
 50
105.7500000000000995
 51
110.25
  0
CIRCLE
  5
9D
100
AcDbEntity
100
AcDbCircle
  8
Top
 62
256
370
-1
  6
ByLayer
 10
45.1543156544519135
 20
45.281630651080448
 30
0.0
 40
1.25
  0
ARC
  5
9E
100
AcDbEntity
  8
Top
 62
256
370
-1
  6
ByLayer
100
AcDbCircle
 10
45.1543156544516009
 20
45.2816306510809099
 30
0.0
 40
8.7499999999995008
100
AcDbArc
 50
114.7499999999999147
 51
119.2500000000002984
  0
ARC
  5
9F
100
AcDbEntity
  8
Top
 62
256
370
-1
  6
ByLayer
100
AcDbCircle
 10
34.7460069059377687
 20
47.3392718645980608
 30
0.0
 40
8.2892520696423908
100
AcDbArc
 50
42.280644028837969
 51
58.7759182653846182
  0
ARC
  5
A0
100
AcDbEntity
  8
Top
 62
256
370
-1
  6
ByLayer
100
AcDbCircle
 10
49.607499328072997
 20
54.9115804711642994
 30
0.0
 40
8.2892520696422718
100
AcDbArc
 50
175.2240817346153108
 51
191.7193559711620878
  0
ARC
  5
A1
100
AcDbEntity
  8
Top
 62
256
370
-1
  6
ByLayer
100
AcDbCircle
 10
45.154315654452482
 20
45.2816306510798654
 30
0.0
 40
8.750000000000794
100
AcDbArc
 50
132.7500000000003126
 51
137.249999999999801
  0
ARC
  5
A2
100
AcDbEntity
  8
Top
 62
256
370
-1
  6
ByLayer
100
AcDbCircle
 10
34.6195796922625263
 20
44.0222194494016534
 30
0.0
 40
8.2892520696423642
100
AcDbArc
 50
60.2806440288378909
 51
76.7759182653845471
  0
ARC
  5
A3
100
AcDbEntity
  8
Top
 62
256
370
-1
  6
ByLayer
100
AcDbCircle
 10
46.41372685613063
 20
55.8163666132695724
 30
0.0
 40
8.2892520696422274
100
AcDbArc
 50
193.2240817346151971
 51
209.7193559711620878
  0
ARC
  5
A4
100
AcDbEntity
  8
Top
 62
256
370
-1
  6
ByLayer
100
AcDbCircle
 10
45.1543156544529936
 20
45.2816306510798654
 30
0.0
 40
8.7500000000012612
100
AcDbArc
 50
150.7500000000003979
 51
155.249999999999801
  0
ARC
  5
A5
100
AcDbEntity
  8
Top
 62
256
370
-1
  6
ByLayer
100
AcDbCircle
 10
35.5243658343877016
 20
40.8284469774593717
 30
0.0
 40
8.2892520696422611
100
AcDbArc
 50
78.2806440288378127
 51
94.7759182653846892
  0
ARC
  5
A6
100
AcDbEntity
  8
Top
 62
256
370
-1
  6
ByLayer
100
AcDbCircle
 10
43.0966744409341729
 20
55.6899393995941949
 30
0.0
 40
8.2892520696423446
100
AcDbArc
 50
211.2240817346153108
 51
227.7193559711620878
  0
ARC
  5
A7
100
AcDbEntity
  8
Top
 62
256
370
-1
  6
ByLayer
100
AcDbCircle
 10
45.1543156544533915
 20
45.2816306510801994
 30
0.0
 40
8.7500000000015916
100
AcDbArc
 50
168.7500000000005116
 51
173.2499999999996021
  0
ARC
  5
A8
100
AcDbEntity
  8
Top
 62
256
370
-1
  6
ByLayer
100
AcDbCircle
 10
37.3717985607065017
 20
38.0705831506461152
 30
0.0
 40
8.2892520696423002
100
AcDbArc
 50
96.2806440288378838
 51
112.7759182653847034
  0
ARC
  5
A9
100
AcDbEntity
  8
Top
 62
256
370
-1
  6
ByLayer
100
AcDbCircle
 10
39.9810382841462157
 20
54.5446744066632547
 30
0.0
 40
8.2892520696423322
100
AcDbArc
 50
229.2240817346153392
 51
245.7193559711620594
  0
ARC
  5
AA
100
AcDbEntity
  8
Top
 62
256
370
-1
  6
ByLayer
100
AcDbCircle
 10
45.1543156544527093
 20
45.2816306510806044
 30
0.0
 40
8.7500000000008171
100
AcDbArc
 50
186.750000000000199
 51
191.2499999999996021
  0
ARC
  5
AB
100
AcDbEntity
  8
Top
 62
256
370
-1
  6
ByLayer
100
AcDbCircle
 10
39.9810382841460736
 20
36.0185868954977195
 30
0.0
 40
8.2892520696421972
100
AcDbArc
 50
114.280644028837699
 51
130.7759182653848029
  0
ARC
  5
AC
100
AcDbEntity
  8
Top
 62
256
370
-1
  6
ByLayer
100
AcDbCircle
 10
37.3717985607065017
 20
52.4926781515146672
 30
0.0
 40
8.2892520696422398
100
AcDbArc
 50
247.2240817346151687
 51
263.7193559711620878
  0
ARC
  5
AD
100
AcDbEntity
  8
Top
 62
256
370
-1
  6
ByLayer
100
AcDbCircle
 10
45.1543156544525672
 20
45.2816306510807678
 30
0.0
 40
8.750000000000778
100
AcDbArc
 50
204.750000000000199
 51
209.25
  0
ARC
  5
AE
100
AcDbEntity
  8
Top
 62
256
370
-1
  6
ByLayer
100
AcDbCircle
 10
43.0966744409341729
 20
34.8733219025664312
 30
0.0
 40
8.2892520696423624
100
AcDbArc
 50
132.2806440288379122
 51
148.7759182653846892
  0
ARC
  5
AF
100
AcDbEntity
  8
Top
 62
256
370
-1
  6
ByLayer
100
AcDbCircle
 10
35.5243658343877016
 20
49.7348143247015955
 30
0.0
 40
8.2892520696423251
100
AcDbArc
 50
265.2240817346153108
 51
281.7193559711620878
  0
ARC
  5
B0
100
AcDbEntity
  8
Top
 62
256
370
-1
  6
ByLayer
100
AcDbCircle
 10
45.1543156544523967
 20
45.2816306510809738
 30
0.0
 40
8.7500000000007532
100
AcDbArc
 50
222.7500000000003126
 51
227.249999999999801
  0
ARC
  5
B1
100
AcDbEntity
  8
Top
 62
256
370
-1
  6
ByLayer
100
AcDbCircle
 10
46.4137268561306016
 20
34.7468946888911319
 30
0.0
 40
8.2892520696422718
100
AcDbArc
 50
150.2806440288377985
 51
166.7759182653846892
  0
ARC
  5
B2
100
AcDbEntity
  8
Top
 62
256
370
-1
  6
ByLayer
100
AcDbCircle
 10
34.6195796922626116
 20
46.5410418527591432
 30
0.0
 40
8.2892520696422114
100
AcDbArc
 50
283.2240817346153108
 51
299.7193559711622015
  0
ARC
  5
B3
100
AcDbEntity
  8
Top
 62
256
370
-1
  6
ByLayer
100
AcDbCircle
 10
45.1543156544523683
 20
45.2816306510814286
 30
0.0
 40
8.7500000000011262
100
AcDbArc
 50
240.7500000000002842
 51
245.2499999999997158
  0
ARC
  5
B4
100
AcDbEntity
  8
Top
 62
256
370
-1
  6
ByLayer
100
AcDbCircle
 10
49.607499328072997
 20
35.6516808310162787
 30
0.0
 40
8.2892520696423251
100
AcDbArc
 50
168.2806440288379122
 51
184.775918265384604
  0
ARC
  5
B5
100
AcDbEntity
  8
Top
 62
256
370
-1
  6
ByLayer
100
AcDbCircle
 10
34.7460069059377687
 20
43.2239894375627571
 30
0.0
 40
8.2892520696423801
100
AcDbArc
 50
301.2240817346154245
 51
317.7193559711620878
  0
ARC
  5
B6
100
AcDbEntity
  8
Top
 62
256
370
-1
  6
ByLayer
100
AcDbCircle
 10
45.1543156544521125
 20
45.2816306510819473
 30
0.0
 40
8.7500000000015472
100
AcDbArc
 50
258.7500000000005116
 51
263.2499999999997158
  0
ARC
  5
B7
100
AcDbEntity
  8
Top
 62
256
370
-1
  6
ByLayer
100
AcDbCircle
 10
52.3653631548860901
 20
37.4991135573350505
 30
0.0
 40
8.2892520696422025
100
AcDbArc
 50
186.2806440288377132
 51
202.7759182653846892
  0
ARC
  5
B8
100
AcDbEntity
  8
Top
 62
256
370
-1
  6
ByLayer
100
AcDbCircle
 10
35.8912718988690855
 20
40.108353280774665
 30
0.0
 40
8.2892520696423126
100
AcDbArc
 50
319.2240817346151971
 51
335.7193559711622015
  0
ARC
  5
B9
100
AcDbEntity
  8
Top
 62
256
370
-1
  6
ByLayer
100
AcDbCircle
 10
45.1543156544517998
 20
45.2816306510812652
 30
0.0
 40
8.7500000000008278
100
AcDbArc
 50
276.75
 51
281.2499999999996021
  0
ARC
  5
BA
100
AcDbEntity
  8
Top
 62
256
370
-1
  6
ByLayer
100
AcDbCircle
 10
54.4173594100346847
 20
40.1083532807746295
 30
0.0
 40
8.2892520696422594
100
AcDbArc
 50
204.2806440288377132
 51
220.7759182653846892
  0
ARC
  5
BB
100
AcDbEntity
  8
Top
 62
256
370
-1
  6
ByLayer
100
AcDbCircle
 10
37.9432681540175665
 20
37.4991135573350647
 30
0.0
 40
8.2892520696422558
100
AcDbArc
 50
337.2240817346153108
 51
353.7193559711622015
  0
ARC
  5
BC
100
AcDbEntity
  8
Top
 62
256
370
-1
  6
ByLayer
100
AcDbCircle
 10
45.1543156544514019
 20
45.2816306510812723
 30
0.0
 40
8.7500000000009646
100
AcDbArc
 50
294.7500000000002274
 51
299.2499999999998863
  0
ARC
  5
BD
100
AcDbEntity
  8
Top
 62
256
370
-1
  6
ByLayer
100
AcDbCircle
 10
55.5626244029659162
 20
43.223989437562814
 30
0.0
 40
8.2892520696423961
100
AcDbArc
 50
222.2806440288379974
 51
238.775918265384604
  0
ARC
  5
BE
100
AcDbEntity
  8
Top
 62
256
370
-1
  6
ByLayer
100
AcDbCircle
 10
40.7011319808307448
 20
35.6516808310163356
 30
0.0
 40
8.2892520696423251
100
AcDbArc
 50
355.2240817346154245
 51
11.7193559711621003
  0
ARC
  5
BF
100
AcDbEntity
  8
Top
 62
256
370
-1
  6
ByLayer
100
AcDbCircle
 10
45.1543156544516862
 20
45.2816306510805973
 30
0.0
 40
8.7500000000002824
100
AcDbArc
 50
312.7500000000001137
 51
317.25
  0
ARC
  5
C0
100
AcDbEntity
  8
Top
 62
256
370
-1
  6
ByLayer
100
AcDbCircle
 10
55.6890516166411587
 20
46.5410418527591432
 30
0.0
 40
8.2892520696422647
100
AcDbArc
 50
240.2806440288377701
 51
256.7759182653848029
  0
ARC
  5
C1
100
AcDbEntity
  8
Top
 62
256
370
-1
  6
ByLayer
100
AcDbCircle
 10
43.8949044527730834
 20
34.746894688891075
 30
0.0
 40
8.2892520696423002
100
AcDbArc
 50
13.2240817346152895
 51
29.7193559711621518
  0
ARC
  5
C2
100
AcDbEntity
  8
Top
 62
256
370
-1
  6
ByLayer
100
AcDbCircle
 10
45.1543156544508903
 20
45.2816306510809454
 30
0.0
 40
8.7500000000011138
100
AcDbArc
 50
330.7500000000003979
 51
335.2499999999997726
  0
ARC
  5
C3
100
AcDbEntity
  8
Top
 62
256
370
-1
  6
ByLayer
100
AcDbCircle
 10
54.7842654745160118
 20
49.7348143247015315
 30
0.0
 40
8.2892520696422185
100
AcDbArc
 50
258.2806440288376848
 51
274.7759182653846892
  0
ARC
  5
C4
100
AcDbEntity
  8
Top
 62
256
370
-1
  6
ByLayer
100
AcDbCircle
 10
47.2119568679695689
 20
34.8733219025664312
 30
0.0
 40
8.2892520696423482
100
AcDbArc
 50
31.2240817346154031
 51
47.7193559711621376
  0
ARC
  5
C5
100
AcDbEntity
  8
Top
 62
256
370
-1
  6
ByLayer
100
AcDbCircle
 10
45.1543156544503219
 20
45.2816306510807038
 30
0.0
 40
8.7500000000015827
100
AcDbArc
 50
348.7500000000005116
 51
353.2499999999996021
  0
ARC
  5
C6
100
AcDbEntity
  8
Top
 62
256
370
-1
  6
ByLayer
100
AcDbCircle
 10
52.9368327481972685
 20
52.4926781515145962
 30
0.0
 40
8.2892520696422451
100
AcDbArc
 50
276.2806440288377985
 51
292.7759182653846892
  0
ARC
  5
C7
100
AcDbEntity
  8
Top
 62
256
370
-1
  6
ByLayer
100
AcDbCircle
 10
50.3275930247575829
 20
36.0185868954976343
 30
0.0
 40
8.2892520696423091
100
AcDbArc
 50
49.2240817346153534
 51
65.7193559711621731
  0
ARC
  5
C8
100
AcDbEntity
  8
Top
 62
256
370
-1
  6
ByLayer
100
AcDbCircle
 10
45.1543156544510893
 20
45.2816306510802988
 30
0.0
 40
8.7500000000008171
100
AcDbArc
 50
6.7500000000002194
 51
11.2499999999996092
  0
ARC
  5
C9
100
AcDbEntity
  8
Top
 62
256
370
-1
  6
ByLayer
100
AcDbCircle
 10
50.3275930247576966
 20
54.5446744066626366
 30
0.0
 40
8.2892520696421972
100
AcDbArc
 50
294.2806440288377985
 51
310.7759182653848029
  0
ARC
  5
CA
100
AcDbEntity
  8
Top
 62
256
370
-1
  6
ByLayer
100
AcDbCircle
 10
52.9368327481972969
 20
38.070583150646172
 30
0.0
 40
8.2892520696422398
100
AcDbArc
 50
67.2240817346152255
 51
83.7193559711622015
  0
ARC
  5
CB
100
AcDbEntity
  8
Top
 62
256
370
-1
  6
ByLayer
100
AcDbCircle
 10
45.154315654451203
 20
45.2816306510800572
 30
0.0
 40
8.750000000000826
100
AcDbArc
 50
24.7500000000002416
 51
29.2499999999998224
  0
ARC
  5
CC
100
AcDbEntity
  8
Top
 62
256
370
-1
  6
ByLayer
100
AcDbCircle
 10
47.2119568679695973
 20
55.6899393995942091
 30
0.0
 40
8.2892520696423073
100
AcDbArc
 50
312.2806440288379122
 51
328.7759182653846892
  0
ARC
  5
CD
100
AcDbEntity
  8
Top
 62
256
370
-1
  6
ByLayer
100
AcDbCircle
 10
54.7842654745159834
 20
40.8284469774592864
 30
0.0
 40
8.2892520696423322
100
AcDbArc
 50
85.224081734615325
 51
101.7193559711620026
  0
ARC
  5
CE
100
AcDbEntity
  8
Top
 62
256
370
-1
  6
ByLayer
100
AcDbCircle
 10
45.1543156544517146
 20
45.2816306510802704
 30
0.0
 40
8.7500000000002824
100
AcDbArc
 50
42.7500000000001421
 51
47.2499999999999503
  0
ARC
  5
CF
100
AcDbEntity
  8
Top
 62
256
370
-1
  6
ByLayer
100
AcDbCircle
 10
43.8949044527730834
 20
55.816366613269814
 30
0.0
 40
8.2892520696422647
100
AcDbArc
 50
330.2806440288377985
 51
346.7759182653848029
  0
ARC
  5
D0
100
AcDbEntity
  8
Top
 62
256
370
-1
  6
ByLayer
100
AcDbCircle
 10
55.6890516166412155
 20
44.022219449401689
 30
0.0
 40
8.2892520696423002
100
AcDbArc
 50
103.2240817346152966
 51
119.7193559711622015
  0
ARC
  5
D1
100
AcDbEntity
  8
Top
 62
256
370
-1
  6
ByLayer
100
AcDbCircle
 10
45.1543156544513167
 20
45.281630651079297
 30
0.0
 40
8.7500000000012612
100
AcDbArc
 50
60.750000000000405
 51
65.249999999999801
  0
ARC
  5
D2
100
AcDbEntity
  8
Top
 62
256
370
-1
  6
ByLayer
100
AcDbCircle
 10
40.7011319808308301
 20
54.9115804711586577
 30
0.0
 40
8.2892520696422611
100
AcDbArc
 50
348.2806440288377985
 51
4.7759182653846368
  0
ARC
  5
D3
100
AcDbEntity
  8
Top
 62
256
370
-1
  6
ByLayer
100
AcDbCircle
 10
55.5626244029658878
 20
47.3392718645981248
 30
0.0
 40
8.2892520696423446
100
AcDbArc
 50
121.2240817346153108
 51
137.7193559711620026
  0
ARC
  5
D4
100
AcDbEntity
  8
Top
 62
256
370
-1
  6
ByLayer
100
AcDbCircle
 10
45.1543156544518283
 20
45.2816306510796167
 30
0.0
 40
8.7500000000008402
100
AcDbArc
 50
78.7500000000001705
 51
83.2499999999998153
  0
ARC
  5
D5
100
AcDbEntity
  8
Top
 62
256
370
-1
  6
ByLayer
100
AcDbCircle
 10
37.9432681540175096
 20
53.0641477448258385
 30
0.0
 40
8.289252069642286
100
AcDbArc
 50
6.2806440288377727
 51
22.7759182653846288
  0
ARC
  5
D6
100
AcDbEntity
  8
Top
 62
256
370
-1
  6
ByLayer
100
AcDbCircle
 10
54.4173594100347131
 20
50.4549080213861529
 30
0.0
 40
8.2892520696422665
100
AcDbArc
 50
139.2240817346153108
 51
155.7193559711620878
  0
ARC
  5
D7
100
AcDbEntity
  8
Top
 62
256
370
-1
  6
ByLayer
100
AcDbCircle
 10
52.3653631548862322
 20
53.0641477448256822
 30
0.0
 40
8.2892520696422558
100
AcDbArc
 50
157.2240817346153108
 51
173.7193559711622015
  0
ARC
  5
D8
100
AcDbEntity
  8
Top
 62
256
370
-1
  6
ByLayer
100
AcDbCircle
 10
45.1543156544519704
 20
45.2816306510796238
 30
0.0
 40
8.7500000000008171
100
AcDbArc
 50
96.7500000000001847
 51
101.2499999999996021
  0
ARC
  5
D9
100
AcDbEntity
  8
Top
 62
256
370
-1
  6
ByLayer
100
AcDbCircle
 10
35.891271898869114
 20
50.4549080213862666
 30
0.0
 40
8.2892520696422594
100
AcDbArc
 50
24.280644028837731
 51
40.7759182653846466
  0
ARC
  5
DA
100
AcDbEntity
  8
Top
 62
256
370
-1
  6
ByLayer
100
AcDbCircle
 10
45.1543156544511177
 20
45.2816306510814996
 30
0.0
 40
10.9999999999986802
100
AcDbArc
 50
123.7499999999998153
 51
128.2500000000003126
  0
ARC
  5
DB
100
AcDbEntity
  8
Top
 62
256
370
-1
  6
ByLayer
100
AcDbCircle
 10
45.154315654452283
 20
45.2816306510801851
 30
0.0
 40
11.0000000000004494
100
AcDbArc
 50
141.750000000000199
 51
146.25
  0
ARC
  5
DC
100
AcDbEntity
  8
Top
 62
256
370
-1
  6
ByLayer
100
AcDbCircle
 10
45.1543156544517714
 20
45.2816306510804907
 30
0.0
 40
10.9999999999998597
100
AcDbArc
 50
159.7500000000001137
 51
164.25
  0
ARC
  5
DD
100
AcDbEntity
  8
Top
 62
256
370
-1
  6
ByLayer
100
AcDbCircle
 10
45.1543156544517998
 20
45.281630651080448
 30
0.0
 40
10.9999999999999201
100
AcDbArc
 50
177.75
 51
182.25
  0
ARC
  5
DE
100
AcDbEntity
  8
Top
 62
256
370
-1
  6
ByLayer
100
AcDbCircle
 10
45.1543156544536188
 20
45.2816306510810307
 30
0.0
 40
11.0000000000017906
100
AcDbArc
 50
195.7500000000005116
 51
200.2499999999996874
  0
ARC
  5
DF
100
AcDbEntity
  8
Top
 62
256
370
-1
  6
ByLayer
100
AcDbCircle
 10
45.1543156544511177
 20
45.2816306510798441
 30
0.0
 40
10.9999999999989999
100
AcDbArc
 50
213.749999999999801
 51
218.250000000000199
  0
ARC
  5
E0
100
AcDbEntity
  8
Top
 62
256
370
-1
  6
ByLayer
100
AcDbCircle
 10
45.1543156544517998
 20
45.281630651080377
 30
0.0
 40
10.9999999999999201
100
AcDbArc
 50
231.750000000000199
 51
236.25
  0
ARC
  5
E1
100
AcDbEntity
  8
Top
 62
256
370
-1
  6
ByLayer
100
AcDbCircle
 10
45.1543156544520841
 20
45.2816306510812367
 30
0.0
 40
11.0000000000008296
100
AcDbArc
 50
249.7500000000001421
 51
254.2499999999999147
  0
ARC
  5
E2
100
AcDbEntity
  8
Top
 62
256
370
-1
  6
ByLayer
100
AcDbCircle
 10
45.1543156544518851
 20
45.2816306510803628
 30
0.0
 40
10.9999999999999503
100
AcDbArc
 50
267.7500000000001137
 51
272.25
  0
ARC
  5
E3
100
AcDbEntity
  8
Top
 62
256
370
-1
  6
ByLayer
100
AcDbCircle
 10
45.1543156544517998
 20
45.2816306510807536
 30
0.0
 40
11.0000000000003304
100
AcDbArc
 50
285.75
 51
290.2500000000001137
  0
ARC
  5
E4
100
AcDbEntity
  8
Top
 62
256
370
-1
  6
ByLayer
100
AcDbCircle
 10
45.1543156544529083
 20
45.2816306510790412
 30
0.0
 40
10.9999999999982592
100
AcDbArc
 50
303.7499999999997726
 51
308.2500000000003979
  0
ARC
  5
E5
100
AcDbEntity
  8
Top
 62
256
370
-1
  6
ByLayer
100
AcDbCircle
 10
45.1543156544513451
 20
45.2816306510809312
 30
0.0
 40
11.0000000000007603
100
AcDbArc
 50
321.7500000000002842
 51
326.2499999999998863
  0
ARC
  5
E6
100
AcDbEntity
  8
Top
 62
256
370
-1
  6
ByLayer
100
AcDbCircle
 10
45.154315654451004
 20
45.2816306510807181
 30
0.0
 40
11.0000000000009006
100
AcDbArc
 50
339.7500000000002274
 51
344.2499999999998863
  0
ARC
  5
E7
100
AcDbEntity
  8
Top
 62
256
370
-1
  6
ByLayer
100
AcDbCircle
 10
45.1543156544519135
 20
45.281630651080448
 30
0.0
 40
10.9999999999999591
100
AcDbArc
 50
357.75
 51
2.2500000000000311
  0
ARC
  5
E8
100
AcDbEntity
  8
Top
 62
256
370
-1
  6
ByLayer
100
AcDbCircle
 10
45.1543156544527662
 20
45.2816306510807181
 30
0.0
 40
10.9999999999990603
100
AcDbArc
 50
15.7499999999998792
 51
20.2500000000001599
  0
ARC
  5
E9
100
AcDbEntity
  8
Top
 62
256
370
-1
  6
ByLayer
100
AcDbCircle
 10
45.154315654452823
 20
45.2816306510810946
 30
0.0
 40
10.9999999999988702
100
AcDbArc
 50
33.7499999999999503
 51
38.2500000000003766
  0
ARC
  5
EA
100
AcDbEntity
  8
Top
 62
256
370
-1
  6
ByLayer
100
AcDbCircle
 10
45.154315654451203
 20
45.2816306510795314
 30
0.0
 40
11.0000000000011209
100
AcDbArc
 50
51.75000000000054
 51
56.2499999999998721
  0
ARC
  5
EB
100
AcDbEntity
  8
Top
 62
256
370
-1
  6
ByLayer
100
AcDbCircle
 10
45.1543156544516862
 20
45.2816306510797943
 30
0.0
 40
11.0000000000006501
100
AcDbArc
 50
69.7500000000001563
 51
74.2499999999999716
  0
ARC
  5
EC
100
AcDbEntity
  8
Top
 62
256
370
-1
  6
ByLayer
100
AcDbCircle
 10
45.1543156544518851
 20
45.2816306510804694
 30
0.0
 40
10.9999999999999591
100
AcDbArc
 50
87.7499999999999574
 51
92.2500000000000426
  0
ARC
  5
ED
100
AcDbEntity
  8
Top
 62
256
370
-1
  6
ByLayer
100
AcDbCircle
 10
45.1543156544519135
 20
45.2816306510804196
 30
0.0
 40
11.0000000000000409
100
AcDbArc
 50
105.7500000000000995
 51
110.25
  0
LINE
  5
EE
100
AcDbEntity
100
AcDbLine
  8
Drawings
 62
256
370
-1
  6
ByLayer
 10
45.1543156544519135
 20
45.281630651080448
 30
0.0
 11
40.1543156544519135
 21
45.281630651080448
 31
0.0
  0
LINE
  5
EF
100
AcDbEntity
100
AcDbLine
  8
Drawings
 62
256
370
-1
  6
ByLayer
 10
45.1543156544519135
 20
45.281630651080448
 30
0.0
 11
50.1543156544519135
 21
45.281630651080448
 31
0.0
  0
CIRCLE
  5
F0
100
AcDbEntity
100
AcDbCircle
  8
Drawings
 62
256
370
-1
  6
ByLayer
 10
45.1543156544519135
 20
45.281630651080448
 30
0.0
 40
5.0
  0
LINE
  5
F1
100
AcDbEntity
100
AcDbLine
  8
Drawings
 62
256
370
-1
  6
ByLayer
 10
45.1543156544519135
 20
45.281630651080448
 30
0.0
 11
45.1543156544519135
 21
50.281630651080448
 31
0.0
  0
LINE
  5
F2
100
AcDbEntity
100
AcDbLine
  8
Drawings
 62
256
370
-1
  6
ByLayer
 10
45.1543156544519135
 20
45.281630651080448
 30
0.0
 11
45.1543156544519135
 21
40.281630651080448
 31
0.0
  0
CIRCLE
  5
F3
100
AcDbEntity
100
AcDbCircle
  8
Bottom
 62
256
370
-1
  6
ByLayer
 10
45.1543156544519135
 20
50.281630651080448
 30
0.0
 40
0.5
  0
CIRCLE
  5
F4
100
AcDbEntity
100
AcDbCircle
  8
Bottom
 62
256
370
-1
  6
ByLayer
 10
50.1543156544519135
 20
45.281630651080448
 30
0.0
 40
0.5
  0
CIRCLE
  5
F5
100
AcDbEntity
100
AcDbCircle
  8
Bottom
 62
256
370
-1
  6
ByLayer
 10
45.1543156544519135
 20
40.281630651080448
 30
0.0
 40
0.5
  0
CIRCLE
  5
F6
100
AcDbEntity
100
AcDbCircle
  8
Bottom
 62
256
370
-1
  6
ByLayer
 10
40.1543156544519135
 20
45.281630651080448
 30
0.0
 40
0.5
  0
CIRCLE
  5
F7
100
AcDbEntity
100
AcDbCircle
  8
Top
 62
256
370
-1
  6
ByLayer
 10
45.1543156544519135
 20
50.281630651080448
 30
0.0
 40
0.5
  0
CIRCLE
  5
F8
100
AcDbEntity
100
AcDbCircle
  8
Top
 62
256
370
-1
  6
ByLayer
 10
50.1543156544519135
 20
45.281630651080448
 30
0.0
 40
0.5
  0
CIRCLE
  5
F9
100
AcDbEntity
100
AcDbCircle
  8
Top
 62
256
370
-1
  6
ByLayer
 10
45.1543156544519135
 20
40.281630651080448
 30
0.0
 40
0.5
  0
CIRCLE
  5
FA
100
AcDbEntity
100
AcDbCircle
  8
Top
 62
256
370
-1
  6
ByLayer
 10
40.1543156544519135
 20
45.281630651080448
 30
0.0
 40
0.5
  0
MTEXT
  5
FB
100
AcDbEntity
100
AcDbMText
  8
Notes
 62
256
370
-1
  6
ByLayer
 10
39.3333333333333357
 20
80.0
 30
0.0
 40
3.0
 41
100.0
 71
1
 72
2
  1
Spur\~Gear\PTop\~Layer:\~3/16"\~\~or\~4mm\~acrylic\PBottom\~Layer:\~3/16"\~or\~4mm\~acrylic
  7
standard
 50
0.0
 73
1
 44
1.0
  0
ENDSEC
  0
SECTION
  2
OBJECTS
  0
DICTIONARY
  5
C
100
AcDbDictionary
280
0
281
1
  3
ACAD_GROUP
350
D
  3
ACAD_LAYOUT
350
1A
  3
ACAD_MLINESTYLE
350
17
  3
ACAD_PLOTSETTINGS
350
19
  3
ACAD_PLOTSTYLENAME
350
E
  3
AcDbVariableDictionary
350
FC
  0
DICTIONARY
  5
D
100
AcDbDictionary
280
0
281
1
  0
ACDBDICTIONARYWDFLT
  5
E
100
AcDbDictionary
281
1
  3
Normal
350
F
100
AcDbDictionaryWithDefault
340
F
  0
ACDBPLACEHOLDER
  5
F
  0
DICTIONARY
  5
17
100
AcDbDictionary
280
0
281
1
  3
Standard
350
18
  0
MLINESTYLE
  5
18
100
AcDbMlineStyle
  2
STANDARD
 70
0
  3

 62
256
 51
90.0
 52
90.0
 71
2
 49
0.5
 62
256
  6
BYLAYER
 49
-0.5
 62
256
  6
BYLAYER
  0
DICTIONARY
  5
19
100
AcDbDictionary
280
0
281
1
  0
DICTIONARY
  5
1A
100
AcDbDictionary
281
1
  3
Layout1
350
1E
  3
Layout2
350
26
  3
Model
350
22
  0
LAYOUT
  5
1E
100
AcDbPlotSettings
  1

  2
C:\Program Files\AutoCAD 2002\plotters\DWF ePlot (optimized for plotting).pc3
  4

  6

 40
0.0
 41
0.0
 42
0.0
 43
0.0
 44
0.0
 45
0.0
 46
0.0
 47
0.0
 48
0.0
 49
0.0
140
0.0
141
0.0
142
1.0
143
1.0
 70
688
 72
0
 73
0
 74
5
  7

 75
16
147
1.0
148
0.0
149
0.0
100
AcDbLayout
  1
Layout1
 70
1
 71
1
 10
0.0
 20
0.0
 11
420.0
 21
297.0
 12
0.0
 22
0.0
 32
0.0
 14
100000000000000000000.0
 24
100000000000000000000.0
 34
100000000000000000000.0
 15
-100000000000000000000.0
 25
-100000000000000000000.0
 35
-100000000000000000000.0
146
0.0
 13
0.0
 23
0.0
 33
0.0
 16
1.0
 26
0.0
 36
0.0
 17
0.0
 27
1.0
 37
0.0
 76
0
330
1B
  0
LAYOUT
  5
22
100
AcDbPlotSettings
  1

  2
C:\Program Files\AutoCAD 2002\plotters\DWF ePlot (optimized for plotting).pc3
  4

  6

 40
0.0
 41
0.0
 42
0.0
 43
0.0
 44
0.0
 45
0.0
 46
0.0
 47
0.0
 48
0.0
 49
0.0
140
0.0
141
0.0
142
1.0
143
1.0
 70
1712
 72
0
 73
0
 74
0
  7

 75
0
147
1.0
148
0.0
149
0.0
100
AcDbLayout
  1
Model
 70
1
 71
0
 10
0.0
 20
0.0
 11
12.0
 21
9.0
 12
0.0
 22
0.0
 32
0.0
 14
0.0
 24
0.0
 34
0.0
 15
0.0
 25
0.0
 35
0.0
146
0.0
 13
0.0
 23
0.0
 33
0.0
 16
1.0
 26
0.0
 36
0.0
 17
0.0
 27
1.0
 37
0.0
 76
0
330
1F
  0
LAYOUT
  5
26
100
AcDbPlotSettings
  1

  2
C:\Program Files\AutoCAD 2002\plotters\DWF ePlot (optimized for plotting).pc3
  4

  6

 40
0.0
 41
0.0
 42
0.0
 43
0.0
 44
0.0
 45
0.0
 46
0.0
 47
0.0
 48
0.0
 49
0.0
140
0.0
141
0.0
142
1.0
143
1.0
 70
688
 72
0
 73
0
 74
5
  7

 75
16
147
1.0
148
0.0
149
0.0
100
AcDbLayout
  1
Layout2
 70
1
 71
2
 10
0.0
 20
0.0
 11
12.0
 21
9.0
 12
0.0
 22
0.0
 32
0.0
 14
0.0
 24
0.0
 34
0.0
 15
0.0
 25
0.0
 35
0.0
146
0.0
 13
0.0
 23
0.0
 33
0.0
 16
1.0
 26
0.0
 36
0.0
 17
0.0
 27
1.0
 37
0.0
 76
0
330
23
  0
DICTIONARY
  5
FC
100
AcDbDictionary
281
1
  3
DIMASSOC
350
FE
  3
HIDETEXT
350
FD
  0
DICTIONARYVAR
  5
FD
100
DictionaryVariables
280
0
  1
2
  0
DICTIONARYVAR
  5
FE
100
DictionaryVariables
280
0
  1
1
  0
ENDSEC
  0
EOF
