999
dxflib 2.1.2.0
  0
SECTION
  2
HEADER
  9
$ACADVER
  1
AC1015
  9
$HANDSEED
  5
FFFF
  9
$DIMLIM
 70
0
  9
$DIMLUNIT
 70
2
  9
$DIMTIX
 70
0
  9
$AUNITS
 70
0
  9
$QTEXTMODE
 70
0
  9
$USERR1
 40
0.0
  9
$DIMALTU
 70
2
  9
$USERR2
 40
0.0
  9
$UCSORGBOTTOM
 10
0.0
 20
0.0
 30
0.0
  9
$USERR3
 40
0.0
  9
$USERR4
 40
0.0
  9
$USERR5
 40
0.0
  9
$LIMMAX
 10
420.0
 20
297.0
  9
$PELEVATION
 40
0.0
  9
$DIMALTZ
 70
0
  9
$DIMADEC
 70
0
  9
$JOINSTYLE
280
0
  9
$TILEMODE
 70
1
  9
$DIMATFIT
 70
3
  9
$PEXTMIN
 10
0.0
 20
0.0
 30
0.0
  9
$TDUSRTIMER
 40
0.0000187731
  9
$DWGCODEPAGE
  3
ANSI_1252
  9
$UCSORTHOVIEW
 70
0
  9
$DIMSOXD
 70
0
  9
$DIMTZIN
 70
0
  9
$SPLINETYPE
 70
6
  9
$DIMLFAC
 40
1.0
  9
$DIMSE1
 70
0
  9
$FILLETRAD
 40
0.0
  9
$DIMSE2
 70
0
  9
$PSTYLEMODE
290
1
  9
$TEXTSTYLE
  7
Standard
  9
$DIMTSZ
 40
0.0
  9
$PUCSXDIR
 10
1.0
 20
0.0
 30
0.0
  9
$DIMTXSTY
  7
Standard
  9
$PLIMMAX
 10
420.0
 20
297.0
  9
$DIMTM
 40
0.0
  9
$UCSORG
 10
0.0
 20
0.0
 30
0.0
  9
$DIMTP
 40
0.0
  9
$PSLTSCALE
 70
1
  9
$EXTNAMES
290
1
  9
$ANGBASE
 50
0.0
  9
$PUCSYDIR
 10
0.0
 20
1.0
 30
0.0
  9
$DIMASZ
 40
1.7999999999999989
  9
$PUCSORTHOVIEW
 70
0
  9
$UNITMODE
 70
0
  9
$MEASUREMENT
 70
1
  9
$INSBASE
 10
0.0
 20
0.0
 30
0.0
  9
$EXTMAX
 10
420.0
 20
297.0
 30
0.0
  9
$ELEVATION
 40
0.0
  9
$TDCREATE
 40
2454670.4520583911798894
  9
$DIMDEC
 70
4
  9
$CELTYPE
  6
ByLayer
  9
$MENU
  1
.
  9
$ANGDIR
 70
0
  9
$DIMALTTD
 70
2
  9
$TREEDEPTH
 70
3020
  9
$PROXYGRAPHICS
 70
1
  9
$LTSCALE
 40
1.0
  9
$DIMTMOVE
 70
0
  9
$DIMAZIN
 70
0
  9
$TDUPDATE
 40
2454670.4520583911798894
  9
$DIMTOLJ
 70
1
  9
$DIMCEN
 40
0.09
  9
$DIMTVP
 40
0.0
  9
$TRACEWID
 40
0.05
  9
$CMLSTYLE
  2
Standard
  9
$DISPSILH
 70
0
  9
$DIMSTYLE
  2
Standard
  9
$SKETCHINC
 40
0.1
  9
$FILLMODE
 70
1
  9
$PLINEGEN
 70
0
  9
$DIMLWD
 70
-2
  9
$THICKNESS
 40
0.0
  9
$PUCSORG
 10
0.0
 20
0.0
 30
0.0
  9
$DIMLWE
 70
-2
  9
$CELTSCALE
 40
1.0
  9
$DIMALTTZ
 70
0
  9
$INSUNITS
 70
4
  9
$UCSORGBACK
 10
0.0
 20
0.0
 30
0.0
  9
$PLINEWID
 40
0.0
  9
$PEXTMAX
 10
420.0
 20
297.0
 30
0.0
  9
$DIMJUST
 70
0
  9
$UCSYDIR
 10
0.0
 20
1.0
 30
0.0
  9
$PUCSORGBACK
 10
0.0
 20
0.0
 30
0.0
  9
$PUCSORGBOTTOM
 10
0.0
 20
0.0
 30
0.0
  9
$PDSIZE
 40
0.0
  9
$DIMUPT
 70
0
  9
$DIMTAD
 70
0
  9
$MAXACTVP
 70
64
  9
$UCSXDIR
 10
1.0
 20
0.0
 30
0.0
  9
$DIMSAH
 70
0
  9
$TDUCREATE
 40
2454670.4103917251341045
  9
$DIMFRAC
 70
0
  9
$USERI1
 70
0
  9
$USERI2
 70
0
  9
$CELWEIGHT
370
-1
  9
$USERI3
 70
0
  9
$UCSORGRIGHT
 10
0.0
 20
0.0
 30
0.0
  9
$LWDISPLAY
290
0
  9
$SKPOLY
 70
0
  9
$USERI4
 70
0
  9
$USERI5
 70
0
  9
$UCSORGTOP
 10
0.0
 20
0.0
 30
0.0
  9
$LIMMIN
 10
0.0
 20
0.0
  9
$ACADMAINTVER
 70
18
  9
$MIRRTEXT
 70
0
  9
$TDUUPDATE
 40
2454670.4103917251341045
  9
$TEXTSIZE
 40
0.2
  9
$DIMGAP
 40
0.09
  9
$LUPREC
 70
4
  9
$CECOLOR
 62
256
  9
$DIMSD1
 70
0
  9
$DIMSD2
 70
0
  9
$WORLDVIEW
 70
1
  9
$PUCSORGRIGHT
 10
0.0
 20
0.0
 30
0.0
  9
$PLIMCHECK
 70
0
  9
$DIMTFAC
 40
1.0
  9
$CMLJUST
 70
0
  9
$USRTIMER
 70
1
  9
$SURFU
 70
6
  9
$SURFV
 70
6
  9
$DIMASO
 70
1
  9
$DIMDLE
 40
0.0
  9
$EXTMIN
 10
0.0
 20
0.0
 30
0.0
  9
$UCSORGLEFT
 10
0.0
 20
0.0
 30
0.0
  9
$OLESTARTUP
290
0
  9
$PUCSORGFRONT
 10
0.0
 20
0.0
 30
0.0
  9
$DIMDLI
 40
0.38
  9
$LUNITS
 70
2
  9
$DIMCLRD
 70
0
  9
$SHADEDIF
 70
70
  9
$DIMCLRE
 70
0
  9
$SPLINESEGS
 70
8
  9
$PUCSORGLEFT
 10
0.0
 20
0.0
 30
0.0
  9
$DIMALTRND
 40
0.0
  9
$DIMRND
 40
0.0
  9
$DIMALT
 70
0
  9
$FINGERPRINTGUID
  2
{957EB8BD-B1CB-432B-9497-5194FA736EDC}
  9
$DIMCLRT
 70
0
  9
$PUCSORGTOP
 10
0.0
 20
0.0
 30
0.0
  9
$DIMTOH
 70
1
  9
$UCSORGFRONT
 10
0.0
 20
0.0
 30
0.0
  9
$VISRETAIN
 70
1
  9
$SHADEDGE
 70
3
  9
$DIMTOL
 70
0
  9
$SURFTYPE
 70
6
  9
$VERSIONGUID
  2
{F0539855-98D3-4F5B-8BA8-A3C366CB493D}
  9
$CHAMFERA
 40
0.0
  9
$SURFTAB1
 70
6
  9
$CHAMFERB
 40
0.0
  9
$SURFTAB2
 70
6
  9
$CHAMFERC
 40
0.0
  9
$AUPREC
 70
0
  9
$CHAMFERD
 40
0.0
  9
$DIMTDEC
 70
4
  9
$PDMODE
 70
0
  9
$PLIMMIN
 10
0.0
 20
0.0
  9
$SPLFRAME
 70
0
  9
$XEDIT
290
1
  9
$DIMDSEP
 70
46
  9
$LIMCHECK
 70
0
  9
$PINSBASE
 10
0.0
 20
0.0
 30
0.0
  9
$ORTHOMODE
 70
0
  9
$PSVPSCALE
 40
0.0
  9
$CLAYER
  8
Visible (ISO)
  9
$DIMSHO
 70
1
  9
$DIMTOFL
 70
0
  9
$DIMTXT
 40
0.3499999940395355
  9
$DIMEXE
 40
0.18
  9
$TDINDWG
 40
0.0000187731
  9
$REGENMODE
 70
1
  9
$ATTMODE
 70
1
  9
$CMLSCALE
 40
1.0
  9
$DIMTIH
 70
1
  9
$DIMZIN
 70
0
  9
$CEPSNTYPE
380
0
  9
$DIMSCALE
 40
1.0
  9
$DIMALTD
 70
2
  9
$DIMAUNIT
 70
0
  9
$DIMEXO
 40
0.0625
  9
$DIMALTF
 40
25.3999999999999986
  9
$ENDCAPS
280
0
  9
$CLAYER
  8
Notes
  0
ENDSEC
  0
SECTION
  2
TABLES
  0
TABLE
  2
VPORT
  5
8
100
AcDbSymbolTable
 70
1
  0
VPORT
  5
30
100
AcDbSymbolTableRecord
100
AcDbViewportTableRecord
  2
*Active
 70
0
 10
0.0
 20
0.0
 11
1.0
 21
1.0
 12
286.3055555555554861
 22
148.5
 13
0.0
 23
0.0
 14
10.0
 24
10.0
 15
10.0
 25
10.0
 16
0.0
 26
0.0
 36
1.0
 17
0.0
 27
0.0
 37
0.0
 40
297.0
 41
1.92798353909465
 42
50.0
 43
0.0
 44
0.0
 50
0.0
 51
0.0
 71
0
 72
100
 73
1
 74
3
 75
1
 76
1
 77
0
 78
0
281
0
 65
1
110
0.0
120
0.0
130
0.0
111
1.0
121
0.0
131
0.0
112
0.0
122
1.0
132
0.0
 79
0
146
0.0
  0
ENDTAB
  0
TABLE
  2
LTYPE
  5
5
100
AcDbSymbolTable
 70
21
  0
LTYPE
  5
14
100
AcDbSymbolTableRecord
100
AcDbLinetypeTableRecord
  2
ByBlock
 70
0
  3

 72
65
 73
0
 40
0.0
  0
LTYPE
  5
15
100
AcDbSymbolTableRecord
100
AcDbLinetypeTableRecord
  2
ByLayer
 70
0
  3

 72
65
 73
0
 40
0.0
  0
LTYPE
  5
16
100
AcDbSymbolTableRecord
100
AcDbLinetypeTableRecord
  2
CONTINUOUS
 70
0
  3
Solid line
 72
65
 73
0
 40
0.0
  0
LTYPE
  5
31
100
AcDbSymbolTableRecord
100
AcDbLinetypeTableRecord
  2
DOT
 70
0
  3
Dot . . . . . . . . . . . . . . . . . . . . . .
 72
65
 73
2
 40
6.3499999999999996
 49
0.0
 74
0
 49
-6.3499999999999996
 74
0
  0
LTYPE
  5
32
100
AcDbSymbolTableRecord
100
AcDbLinetypeTableRecord
  2
DOT2
 70
0
  3
Dot (.5x) .....................................
 72
65
 73
2
 40
3.1749999999999998
 49
0.0
 74
0
 49
-3.1749999999999998
 74
0
  0
LTYPE
  5
33
100
AcDbSymbolTableRecord
100
AcDbLinetypeTableRecord
  2
DOTX2
 70
0
  3
Dot (2x) .  .  .  .  .  .  .  .  .  .  .  .  .
 72
65
 73
2
 40
12.6999999999999993
 49
0.0
 74
0
 49
-12.6999999999999993
 74
0
  0
LTYPE
  5
34
100
AcDbSymbolTableRecord
100
AcDbLinetypeTableRecord
  2
DASHED
 70
0
  3
Dashed __ __ __ __ __ __ __ __ __ __ __ __ __ _
 72
65
 73
2
 40
19.0500000000000007
 49
12.6999999999999993
 74
0
 49
-6.3499999999999996
 74
0
  0
LTYPE
  5
35
100
AcDbSymbolTableRecord
100
AcDbLinetypeTableRecord
  2
DASHED2
 70
0
  3
Dashed (.5x) _ _ _ _ _ _ _ _ _ _ _ _ _ _ _ _ _
 72
65
 73
2
 40
9.5250000000000004
 49
6.3499999999999996
 74
0
 49
-3.1749999999999998
 74
0
  0
LTYPE
  5
36
100
AcDbSymbolTableRecord
100
AcDbLinetypeTableRecord
  2
DASHEDX2
 70
0
  3
Dashed (2x) ____  ____  ____  ____  ____  ___
 72
65
 73
2
 40
38.1000000000000014
 49
25.3999999999999986
 74
0
 49
-12.6999999999999993
 74
0
  0
LTYPE
  5
37
100
AcDbSymbolTableRecord
100
AcDbLinetypeTableRecord
  2
DASHDOT
 70
0
  3
Dash dot __ . __ . __ . __ . __ . __ . __ . __
 72
65
 73
4
 40
25.3999999999999986
 49
12.6999999999999993
 74
0
 49
-6.3499999999999996
 74
0
 49
0.0
 74
0
 49
-6.3499999999999996
 74
0
  0
LTYPE
  5
38
100
AcDbSymbolTableRecord
100
AcDbLinetypeTableRecord
  2
DASHDOT2
 70
0
  3
Dash dot (.5x) _._._._._._._._._._._._._._._.
 72
65
 73
4
 40
12.6999999999999993
 49
6.3499999999999996
 74
0
 49
-3.1749999999999998
 74
0
 49
0.0
 74
0
 49
-3.1749999999999998
 74
0
  0
LTYPE
  5
39
100
AcDbSymbolTableRecord
100
AcDbLinetypeTableRecord
  2
DASHDOTX2
 70
0
  3
Dash dot (2x) ____  .  ____  .  ____  .  ___
 72
65
 73
4
 40
50.7999999999999972
 49
25.3999999999999986
 74
0
 49
-12.6999999999999993
 74
0
 49
0.0
 74
0
 49
-12.6999999999999993
 74
0
  0
LTYPE
  5
3A
100
AcDbSymbolTableRecord
100
AcDbLinetypeTableRecord
  2
DIVIDE
 70
0
  3
Divide ____ . . ____ . . ____ . . ____ . . ____
 72
65
 73
6
 40
31.75
 49
12.6999999999999993
 74
0
 49
-6.3499999999999996
 74
0
 49
0.0
 74
0
 49
-6.3499999999999996
 74
0
 49
0.0
 74
0
 49
-6.3499999999999996
 74
0
  0
LTYPE
  5
3B
100
AcDbSymbolTableRecord
100
AcDbLinetypeTableRecord
  2
DIVIDE2
 70
0
  3
Divide (.5x) __..__..__..__..__..__..__..__.._
 72
65
 73
6
 40
15.875
 49
6.3499999999999996
 74
0
 49
-3.1749999999999998
 74
0
 49
0.0
 74
0
 49
-3.1749999999999998
 74
0
 49
0.0
 74
0
 49
-3.1749999999999998
 74
0
  0
LTYPE
  5
3C
100
AcDbSymbolTableRecord
100
AcDbLinetypeTableRecord
  2
DIVIDEX2
 70
0
  3
Divide (2x) ________  .  .  ________  .  .  _
 72
65
 73
6
 40
63.5
 49
25.3999999999999986
 74
0
 49
-12.6999999999999993
 74
0
 49
0.0
 74
0
 49
-12.6999999999999993
 74
0
 49
0.0
 74
0
 49
-12.6999999999999993
 74
0
  0
LTYPE
  5
3D
100
AcDbSymbolTableRecord
100
AcDbLinetypeTableRecord
  2
CENTER
 70
0
  3
Center ____ _ ____ _ ____ _ ____ _ ____ _ ____
 72
65
 73
4
 40
50.7999999999999972
 49
31.75
 74
0
 49
-6.3499999999999996
 74
0
 49
6.3499999999999996
 74
0
 49
-6.3499999999999996
 74
0
  0
LTYPE
  5
3E
100
AcDbSymbolTableRecord
100
AcDbLinetypeTableRecord
  2
CENTER2
 70
0
  3
Center (.5x) ___ _ ___ _ ___ _ ___ _ ___ _ ___
 72
65
 73
4
 40
28.5749999999999993
 49
19.0500000000000007
 74
0
 49
-3.1749999999999998
 74
0
 49
3.1749999999999998
 74
0
 49
-3.1749999999999998
 74
0
  0
LTYPE
  5
3F
100
AcDbSymbolTableRecord
100
AcDbLinetypeTableRecord
  2
CENTERX2
 70
0
  3
Center (2x) ________  __  ________  __  _____
 72
65
 73
4
 40
101.5999999999999943
 49
63.5
 74
0
 49
-12.6999999999999993
 74
0
 49
12.6999999999999993
 74
0
 49
-12.6999999999999993
 74
0
  0
LTYPE
  5
40
100
AcDbSymbolTableRecord
100
AcDbLinetypeTableRecord
  2
BORDER
 70
0
  3
Border __ __ . __ __ . __ __ . __ __ . __ __ .
 72
65
 73
6
 40
44.4500000000000028
 49
12.6999999999999993
 74
0
 49
-6.3499999999999996
 74
0
 49
12.6999999999999993
 74
0
 49
-6.3499999999999996
 74
0
 49
0.0
 74
0
 49
-6.3499999999999996
 74
0
  0
LTYPE
  5
41
100
AcDbSymbolTableRecord
100
AcDbLinetypeTableRecord
  2
BORDER2
 70
0
  3
Border (.5x) __.__.__.__.__.__.__.__.__.__.__.
 72
65
 73
6
 40
22.2250000000000014
 49
6.3499999999999996
 74
0
 49
-3.1749999999999998
 74
0
 49
6.3499999999999996
 74
0
 49
-3.1749999999999998
 74
0
 49
0.0
 74
0
 49
-3.1749999999999998
 74
0
  0
LTYPE
  5
42
100
AcDbSymbolTableRecord
100
AcDbLinetypeTableRecord
  2
BORDERX2
 70
0
  3
Border (2x) ____  ____  .  ____  ____  .  ___
 72
65
 73
6
 40
88.9000000000000057
 49
25.3999999999999986
 74
0
 49
-12.6999999999999993
 74
0
 49
25.3999999999999986
 74
0
 49
-12.6999999999999993
 74
0
 49
0.0
 74
0
 49
-12.6999999999999993
 74
0
  0
ENDTAB
  0
TABLE
  2
LAYER
  5
2
100
AcDbSymbolTable
 70
5
  0
LAYER
  5
10
100
AcDbSymbolTableRecord
100
AcDbLayerTableRecord
  2
0
 70
0
 62
7
  6
CONTINUOUS
370
0
390
F
  0
LAYER
  5
43
100
AcDbSymbolTableRecord
100
AcDbLayerTableRecord
  2
Notes
 70
0
 62
2
  6
CONTINUOUS
370
0
390
F
  0
LAYER
  5
44
100
AcDbSymbolTableRecord
100
AcDbLayerTableRecord
  2
Top Layer
 70
0
 62
7
  6
CONTINUOUS
370
0
390
F
  0
LAYER
  5
45
100
AcDbSymbolTableRecord
100
AcDbLayerTableRecord
  2
Middle Layer
 70
0
 62
7
  6
CONTINUOUS
370
0
390
F
  0
LAYER
  5
46
100
AcDbSymbolTableRecord
100
AcDbLayerTableRecord
  2
Bottom Layer
 70
0
 62
7
  6
CONTINUOUS
370
0
390
F
  0
ENDTAB
  0
TABLE
  2
STYLE
  5
3
100
AcDbSymbolTable
 70
1
  0
STYLE
  5
11
100
AcDbSymbolTableRecord
100
AcDbTextStyleTableRecord
  2
Standard
 70
0
 40
0.0
 41
0.75
 50
0.0
 71
0
 42
2.5
  3
txt
  4

  0
ENDTAB
  0
TABLE
  2
VIEW
  5
6
100
AcDbSymbolTable
 70
0
  0
ENDTAB
  0
TABLE
  2
UCS
  5
7
100
AcDbSymbolTable
 70
0
  0
ENDTAB
  0
TABLE
  2
APPID
  5
9
100
AcDbSymbolTable
 70
1
  0
APPID
  5
12
100
AcDbSymbolTableRecord
100
AcDbRegAppTableRecord
  2
ACAD
 70
0
  0
ENDTAB
  0
TABLE
  2
DIMSTYLE
  5
A
100
AcDbSymbolTable
 70
1
100
AcDbDimStyleTable
 71
0
  0
DIMSTYLE
105
27
100
AcDbSymbolTableRecord
100
AcDbDimStyleTableRecord
  2
Standard
 41
1.7999999999999989
 42
0.0625
 43
3.75
 44
0.18
 70
0
 73
0
 74
0
 77
1
 78
8
140
0.3499999940395355
141
2.5
143
0.03937007874016
147
0.09
171
3
172
1
271
2
272
2
274
3
278
44
283
0
284
8
340
11
  0
ENDTAB
  0
TABLE
  2
BLOCK_RECORD
  5
1
100
AcDbSymbolTable
 70
1
  0
BLOCK_RECORD
  5
1F
100
AcDbSymbolTableRecord
100
AcDbBlockTableRecord
  2
*Model_Space
340
22
  0
BLOCK_RECORD
  5
1B
100
AcDbSymbolTableRecord
100
AcDbBlockTableRecord
  2
*Paper_Space
340
1E
  0
BLOCK_RECORD
  5
23
100
AcDbSymbolTableRecord
100
AcDbBlockTableRecord
  2
*Paper_Space0
340
26
  0
ENDTAB
  0
ENDSEC
  0
SECTION
  2
BLOCKS
  0
BLOCK
  5
20
100
AcDbEntity
  8
0
100
AcDbBlockBegin
  2
*Model_Space
 70
0
 10
0.0
 20
0.0
 30
0.0
  3
*Model_Space
  1

  0
ENDBLK
  5
21
100
AcDbEntity
  8
0
100
AcDbBlockEnd
  0
BLOCK
  5
1C
100
AcDbEntity
 67
1
  8
0
100
AcDbBlockBegin
  2
*Paper_Space
 70
0
 10
0.0
 20
0.0
 30
0.0
  3
*Paper_Space
  1

  0
ENDBLK
  5
1D
100
AcDbEntity
 67
1
  8
0
100
AcDbBlockEnd
  0
BLOCK
  5
24
100
AcDbEntity
  8
0
100
AcDbBlockBegin
  2
*Paper_Space0
 70
0
 10
0.0
 20
0.0
 30
0.0
  3
*Paper_Space0
  1

  0
ENDBLK
  5
25
100
AcDbEntity
  8
0
100
AcDbBlockEnd
  0
ENDSEC
  0
SECTION
  2
ENTITIES
  0
LINE
  5
47
100
AcDbEntity
100
AcDbLine
  8
Bottom Layer
 62
256
370
-1
  6
ByLayer
 10
12.8446142014411961
 20
52.1844867144803857
 30
0.0
 11
18.0895728328075194
 21
37.7740813088282152
 31
0.0
  0
CIRCLE
  5
48
100
AcDbEntity
100
AcDbCircle
  8
Bottom Layer
 62
256
370
-1
  6
ByLayer
 10
55.3401013151286989
 20
37.2941167806191629
 30
0.0
 40
1.424999999999996
  0
CIRCLE
  5
49
100
AcDbEntity
100
AcDbCircle
  8
Bottom Layer
 62
256
370
-1
  6
ByLayer
 10
39.3401013151289973
 20
15.2941167806190492
 30
0.0
 40
1.424999999999996
  0
CIRCLE
  5
4A
100
AcDbEntity
100
AcDbCircle
  8
Bottom Layer
 62
256
370
-1
  6
ByLayer
 10
55.3401013151288979
 20
15.2941167806191629
 30
0.0
 40
1.424999999999996
  0
CIRCLE
  5
4B
100
AcDbEntity
100
AcDbCircle
  8
Bottom Layer
 62
256
370
-1
  6
ByLayer
 10
24.5272283577441073
 20
49.3248121214682556
 30
0.0
 40
1.424999999999996
  0
CIRCLE
  5
4C
100
AcDbEntity
100
AcDbCircle
  8
Bottom Layer
 62
256
370
-1
  6
ByLayer
 10
52.7180069813211603
 20
59.5854164212385626
 30
0.0
 40
1.424999999999996
  0
ARC
  5
4D
100
AcDbEntity
  8
Bottom Layer
 62
256
370
-1
  6
ByLayer
100
AcDbCircle
 10
50.4401013151288495
 20
34.7941167806191061
 30
0.0
 40
0.499999999999997
100
AcDbArc
 50
360.0
 51
90.0
  0
ARC
  5
4E
100
AcDbEntity
  8
Bottom Layer
 62
256
370
-1
  6
ByLayer
100
AcDbCircle
 10
50.4401013151289064
 20
22.7941167806191629
 30
0.0
 40
0.5000000000000014
100
AcDbArc
 50
270.0
 51
360.0
  0
ARC
  5
4F
100
AcDbEntity
  8
Bottom Layer
 62
256
370
-1
  6
ByLayer
100
AcDbCircle
 10
46.2401013151288893
 20
22.7941167806191629
 30
0.0
 40
0.4999999999999968
100
AcDbArc
 50
180.0
 51
270.0
  0
ARC
  5
50
100
AcDbEntity
  8
Bottom Layer
 62
256
370
-1
  6
ByLayer
100
AcDbCircle
 10
46.2401013151288325
 20
34.7941167806191061
 30
0.0
 40
0.4999999999999969
100
AcDbArc
 50
90.0
 51
180.0
  0
LINE
  5
51
100
AcDbEntity
100
AcDbLine
  8
Bottom Layer
 62
256
370
-1
  6
ByLayer
 10
48.9401013151288211
 20
35.2941167806191629
 30
0.0
 11
50.4401013151288211
 21
35.2941167806191629
 31
0.0
  0
LINE
  5
52
100
AcDbEntity
100
AcDbLine
  8
Bottom Layer
 62
256
370
-1
  6
ByLayer
 10
46.2401013151288325
 20
35.2941167806190492
 30
0.0
 11
48.9401013151288211
 21
35.2941167806191629
 31
0.0
  0
LINE
  5
53
100
AcDbEntity
100
AcDbLine
  8
Bottom Layer
 62
256
370
-1
  6
ByLayer
 10
50.9401013151287927
 20
34.7941167806190492
 30
0.0
 11
50.9401013151288211
 21
28.6535681910236804
 31
0.0
  0
LINE
  5
54
100
AcDbEntity
100
AcDbLine
  8
Bottom Layer
 62
256
370
-1
  6
ByLayer
 10
48.9401013151289135
 20
22.2941167806191629
 30
0.0
 11
46.2401013151288964
 21
22.2941167806190492
 31
0.0
  0
LINE
  5
55
100
AcDbEntity
100
AcDbLine
  8
Bottom Layer
 62
256
370
-1
  6
ByLayer
 10
50.9401013151289064
 20
22.7941167806191629
 30
0.0
 11
50.9401013151288211
 21
28.6535681910236804
 31
0.0
  0
LINE
  5
56
100
AcDbEntity
100
AcDbLine
  8
Bottom Layer
 62
256
370
-1
  6
ByLayer
 10
48.9401013151289135
 20
22.2941167806191629
 30
0.0
 11
50.4401013151289064
 21
22.2941167806191629
 31
0.0
  0
LINE
  5
57
100
AcDbEntity
100
AcDbLine
  8
Bottom Layer
 62
256
370
-1
  6
ByLayer
 10
45.7401013151285127
 20
73.0083330483654436
 30
0.0
 11
48.9401013151285653
 21
74.1730377980173898
 31
0.0
  0
CIRCLE
  5
58
100
AcDbEntity
100
AcDbCircle
  8
Bottom Layer
 62
256
370
-1
  6
ByLayer
 10
38.7401013151289249
 20
24.8941167806191288
 30
0.0
 40
1.424999999999996
  0
CIRCLE
  5
59
100
AcDbEntity
100
AcDbCircle
  8
Bottom Layer
 62
256
370
-1
  6
ByLayer
 10
30.7401013151290243
 20
24.8941167806190151
 30
0.0
 40
1.424999999999996
  0
CIRCLE
  5
5A
100
AcDbEntity
100
AcDbCircle
  8
Bottom Layer
 62
256
370
-1
  6
ByLayer
 10
30.7401013151289106
 20
32.6941167806190265
 30
0.0
 40
1.424999999999996
  0
CIRCLE
  5
5B
100
AcDbEntity
100
AcDbCircle
  8
Bottom Layer
 62
256
370
-1
  6
ByLayer
 10
38.7401013151289177
 20
32.6941167806190833
 30
0.0
 40
1.424999999999996
  0
LINE
  5
5C
100
AcDbEntity
100
AcDbLine
  8
Bottom Layer
 62
256
370
-1
  6
ByLayer
 10
23.2966505841203855
 20
64.839585028058309
 30
0.0
 11
25.1435593580791164
 21
59.7652448758144601
 31
0.0
  0
LINE
  5
5D
100
AcDbEntity
100
AcDbLine
  8
Bottom Layer
 62
256
370
-1
  6
ByLayer
 10
10.0
 20
60.0
 30
0.0
 11
23.2966505841205134
 21
64.8395850280584227
 31
0.0
  0
LINE
  5
5E
100
AcDbEntity
100
AcDbLine
  8
Bottom Layer
 62
256
370
-1
  6
ByLayer
 10
16.9124371858607461
 20
41.0082349184497161
 30
0.0
 11
10.0
 21
60.0
 31
0.0
  0
LINE
  5
5F
100
AcDbEntity
100
AcDbLine
  8
Bottom Layer
 62
256
370
-1
  6
ByLayer
 10
22.3401013151291963
 20
8.2941167806193334
 30
0.0
 11
22.3401013151291963
 21
10.2264220191397044
 31
0.0
  0
LINE
  5
60
100
AcDbEntity
100
AcDbLine
  8
Bottom Layer
 62
256
370
-1
  6
ByLayer
 10
15.6229528189405045
 20
55.6615208199222025
 30
0.0
 11
21.6369855919702516
 21
57.8504497372065316
 31
0.0
  0
LINE
  5
61
100
AcDbEntity
100
AcDbLine
  8
Bottom Layer
 62
256
370
-1
  6
ByLayer
 10
22.4060132504370841
 20
57.4918462507303616
 30
0.0
 11
23.3636696517491416
 21
54.8607069125299063
 31
0.0
  0
LINE
  5
62
100
AcDbEntity
100
AcDbLine
  8
Bottom Layer
 62
256
370
-1
  6
ByLayer
 10
23.0050661652729502
 20
54.0916792540629103
 30
0.0
 11
16.991033392243196
 21
51.9027503367784675
 31
0.0
  0
LINE
  5
63
100
AcDbEntity
100
AcDbLine
  8
Bottom Layer
 62
256
370
-1
  6
ByLayer
 10
16.2220057337762498
 20
52.2613538232547512
 30
0.0
 11
15.2643493324642776
 21
54.8924931614550928
 31
0.0
  0
LINE
  5
64
100
AcDbEntity
100
AcDbLine
  8
Bottom Layer
 62
256
370
-1
  6
ByLayer
 10
35.1401013151290016
 20
19.6941167806190833
 30
0.0
 11
35.1401013151291153
 21
16.894116780619072
 31
0.0
  0
LINE
  5
65
100
AcDbEntity
100
AcDbLine
  8
Bottom Layer
 62
256
370
-1
  6
ByLayer
 10
34.5401013151291068
 20
16.2941167806189924
 30
0.0
 11
28.1401013151290869
 21
16.2941167806189355
 31
0.0
  0
LINE
  5
66
100
AcDbEntity
100
AcDbLine
  8
Bottom Layer
 62
256
370
-1
  6
ByLayer
 10
27.5401013151290996
 20
16.8941167806189583
 30
0.0
 11
27.5401013151290357
 21
19.6941167806190265
 31
0.0
  0
LINE
  5
67
100
AcDbEntity
100
AcDbLine
  8
Bottom Layer
 62
256
370
-1
  6
ByLayer
 10
28.1401013151290087
 20
20.2941167806189355
 30
0.0
 11
34.5401013151289931
 21
20.2941167806189355
 31
0.0
  0
LINE
  5
68
100
AcDbEntity
100
AcDbLine
  8
Bottom Layer
 62
256
370
-1
  6
ByLayer
 10
72.3401013151287771
 20
19.0427710545632749
 30
0.0
 11
72.3401013151288907
 21
8.2941167806193334
 31
0.0
  0
LINE
  5
69
100
AcDbEntity
100
AcDbLine
  8
Bottom Layer
 62
256
370
-1
  6
ByLayer
 10
56.9846310392950031
 20
77.1010071662837504
 30
0.0
 11
66.9124371858603411
 21
49.8245839538733435
 31
0.0
  0
LINE
  5
6A
100
AcDbEntity
100
AcDbLine
  8
Bottom Layer
 62
256
370
-1
  6
ByLayer
 10
48.9401013151285653
 20
74.1730377980173898
 30
0.0
 11
56.9846310392950031
 21
77.1010071662837504
 31
0.0
  0
LINE
  5
6B
100
AcDbEntity
100
AcDbLine
  8
Bottom Layer
 62
256
370
-1
  6
ByLayer
 10
66.540101315128851
 20
16.2941167806193334
 30
0.0
 11
60.140101315128895
 21
16.2941167806192766
 31
0.0
  0
LINE
  5
6C
100
AcDbEntity
100
AcDbLine
  8
Bottom Layer
 62
256
370
-1
  6
ByLayer
 10
59.5401013151288865
 20
16.8941167806192425
 30
0.0
 11
59.5401013151288296
 21
19.6941167806192539
 31
0.0
  0
LINE
  5
6D
100
AcDbEntity
100
AcDbLine
  8
Bottom Layer
 62
256
370
-1
  6
ByLayer
 10
60.1401013151288666
 20
20.2941167806192766
 30
0.0
 11
66.5401013151288225
 21
20.2941167806192766
 31
0.0
  0
LINE
  5
6E
100
AcDbEntity
100
AcDbLine
  8
Bottom Layer
 62
256
370
-1
  6
ByLayer
 10
67.1401013151288169
 20
19.6941167806192539
 30
0.0
 11
67.1401013151288453
 21
16.8941167806193562
 31
0.0
  0
LINE
  5
6F
100
AcDbEntity
100
AcDbLine
  8
Bottom Layer
 62
256
370
-1
  6
ByLayer
 10
50.0509400820686139
 20
64.5740789829789605
 30
0.0
 11
49.0932836807567554
 21
67.2052183211795864
 31
0.0
  0
LINE
  5
70
100
AcDbEntity
100
AcDbLine
  8
Bottom Layer
 62
256
370
-1
  6
ByLayer
 10
49.4518871672329894
 20
67.9742459796465823
 30
0.0
 11
55.4659199402626584
 21
70.1631748969308546
 31
0.0
  0
LINE
  5
71
100
AcDbEntity
100
AcDbLine
  8
Bottom Layer
 62
256
370
-1
  6
ByLayer
 10
56.2349475987296259
 20
69.8045714104546846
 30
0.0
 11
57.1926040000415057
 21
67.1734320722541725
 31
0.0
  0
LINE
  5
72
100
AcDbEntity
100
AcDbLine
  8
Bottom Layer
 62
256
370
-1
  6
ByLayer
 10
56.8340005135652788
 20
66.4044044137872334
 30
0.0
 11
50.8199677405356098
 21
64.2154754965029042
 31
0.0
  0
LINE
  5
73
100
AcDbEntity
100
AcDbLine
  8
Bottom Layer
 62
256
370
-1
  6
ByLayer
 10
43.6879804551744897
 20
72.2614221382254414
 30
0.0
 11
45.7401013151285127
 21
73.0083330483654436
 31
0.0
  0
LINE
  5
74
100
AcDbEntity
100
AcDbLine
  8
Bottom Layer
 62
256
370
-1
  6
ByLayer
 10
45.5348892291331353
 20
67.1870819859816493
 30
0.0
 11
43.6879804551744897
 21
72.2614221382254414
 31
0.0
  0
ARC
  5
75
100
AcDbEntity
  8
Bottom Layer
 62
256
370
-1
  6
ByLayer
100
AcDbCircle
 10
25.7073749305506638
 20
59.9704569618099299
 30
0.0
 40
0.600000000000006
100
AcDbArc
 50
199.9999999999995737
 51
290.0000000000000568
  0
ARC
  5
76
100
AcDbEntity
  8
Bottom Layer
 62
256
370
-1
  6
ByLayer
100
AcDbCircle
 10
21.8421976779656148
 20
57.2866341647350055
 30
0.0
 40
0.5999999999999791
100
AcDbArc
 50
20.0000000000006892
 51
110.0000000000033396
  0
ARC
  5
77
100
AcDbEntity
  8
Bottom Layer
 62
256
370
-1
  6
ByLayer
100
AcDbCircle
 10
22.7998540792775017
 20
54.6554948265343228
 30
0.0
 40
0.599999999999983
100
AcDbArc
 50
290.0000000000000568
 51
20.0000000000032863
  0
ARC
  5
78
100
AcDbEntity
  8
Bottom Layer
 62
256
370
-1
  6
ByLayer
100
AcDbCircle
 10
16.7858213062478185
 20
52.4665659092499936
 30
0.0
 40
0.599999999999974
100
AcDbArc
 50
199.9999999999969873
 51
290.0000000000000568
  0
ARC
  5
79
100
AcDbEntity
  8
Bottom Layer
 62
256
370
-1
  6
ByLayer
100
AcDbCircle
 10
15.8281649049359032
 20
55.0977052474506763
 30
0.0
 40
0.600000000000009
100
AcDbArc
 50
110.0000000000018048
 51
199.9999999999990621
  0
ARC
  5
7A
100
AcDbEntity
  8
Bottom Layer
 62
256
370
-1
  6
ByLayer
100
AcDbCircle
 10
34.5401013151291068
 20
16.8941167806191288
 30
0.0
 40
0.599999999999999
100
AcDbArc
 50
270.0
 51
360.0
  0
ARC
  5
7B
100
AcDbEntity
  8
Bottom Layer
 62
256
370
-1
  6
ByLayer
100
AcDbCircle
 10
28.1401013151291011
 20
16.8941167806189583
 30
0.0
 40
0.5999999999999968
100
AcDbArc
 50
180.0
 51
270.0
  0
ARC
  5
7C
100
AcDbEntity
  8
Bottom Layer
 62
256
370
-1
  6
ByLayer
100
AcDbCircle
 10
28.1401013151289945
 20
19.6941167806189696
 30
0.0
 40
0.6000000000000034
100
AcDbArc
 50
90.0000000000017337
 51
180.0
  0
ARC
  5
7D
100
AcDbEntity
  8
Bottom Layer
 62
256
370
-1
  6
ByLayer
100
AcDbCircle
 10
34.5401013151290002
 20
19.6941167806190833
 30
0.0
 40
0.6000000000000013
100
AcDbArc
 50
360.0
 51
89.9999999999983231
  0
ARC
  5
7E
100
AcDbEntity
  8
Bottom Layer
 62
256
370
-1
  6
ByLayer
100
AcDbCircle
 10
60.140101315128895
 20
16.8941167806192425
 30
0.0
 40
0.5999999999999968
100
AcDbArc
 50
180.0
 51
270.0
  0
ARC
  5
7F
100
AcDbEntity
  8
Bottom Layer
 62
256
370
-1
  6
ByLayer
100
AcDbCircle
 10
60.1401013151288666
 20
19.6941167806192539
 30
0.0
 40
0.6000000000000034
100
AcDbArc
 50
90.0000000000017337
 51
180.0
  0
ARC
  5
80
100
AcDbEntity
  8
Bottom Layer
 62
256
370
-1
  6
ByLayer
100
AcDbCircle
 10
66.5401013151288225
 20
19.6941167806192539
 30
0.0
 40
0.599999999999999
100
AcDbArc
 50
360.0
 51
89.9999999999983231
  0
ARC
  5
81
100
AcDbEntity
  8
Bottom Layer
 62
256
370
-1
  6
ByLayer
100
AcDbCircle
 10
66.5401013151288794
 20
16.8941167806193562
 30
0.0
 40
0.599999999999999
100
AcDbArc
 50
270.0
 51
360.0
  0
ARC
  5
82
100
AcDbEntity
  8
Bottom Layer
 62
256
370
-1
  6
ByLayer
100
AcDbCircle
 10
49.6570992532283029
 20
67.4104304071749993
 30
0.0
 40
0.5999999999999952
100
AcDbArc
 50
110.0000000000002842
 51
200.0000000000001705
  0
ARC
  5
83
100
AcDbEntity
  8
Bottom Layer
 62
256
370
-1
  6
ByLayer
100
AcDbCircle
 10
55.6711320262581992
 20
69.5993593244593285
 30
0.0
 40
0.5999999999999801
100
AcDbArc
 50
20.0000000000001812
 51
110.0000000000018048
  0
ARC
  5
84
100
AcDbEntity
  8
Bottom Layer
 62
256
370
-1
  6
ByLayer
100
AcDbCircle
 10
56.6287884275698943
 20
66.9682199862587595
 30
0.0
 40
0.5999999999999871
100
AcDbArc
 50
290.0000000000000568
 51
20.0000000000001812
  0
ARC
  5
85
100
AcDbEntity
  8
Bottom Layer
 62
256
370
-1
  6
ByLayer
100
AcDbCircle
 10
50.6147556545402537
 20
64.7792910689743735
 30
0.0
 40
0.5999999999999908
100
AcDbArc
 50
200.0000000000001421
 51
290.000000000001819
  0
ARC
  5
86
100
AcDbEntity
  8
Bottom Layer
 62
256
370
-1
  6
ByLayer
100
AcDbCircle
 10
44.9710736566616092
 20
66.9818698999862363
 30
0.0
 40
0.5999999999999939
100
AcDbArc
 50
290.0000000000000568
 51
20.0000000000001812
  0
ARC
  5
87
100
AcDbEntity
  8
Bottom Layer
 62
256
370
-1
  6
ByLayer
100
AcDbCircle
 10
-67.6598986848700861
 20
10.226422019138397
 30
0.0
 40
89.9999999999994458
100
AcDbArc
 50
360.0
 51
20.0000000000005862
  0
ARC
  5
88
100
AcDbEntity
  8
Bottom Layer
 62
256
370
-1
  6
ByLayer
100
AcDbCircle
 10
-17.6598986848699084
 20
19.0427710545624791
 30
0.0
 40
89.9999999999989058
100
AcDbArc
 50
360.0
 51
20.0000000000006892
  0
LINE
  5
89
100
AcDbEntity
100
AcDbLine
  8
Middle Layer
 62
256
370
-1
  6
ByLayer
 10
12.844614201441189
 20
52.1844867144803857
 30
0.0
 11
18.0895728328075123
 21
37.7740813088282152
 31
0.0
  0
CIRCLE
  5
8A
100
AcDbEntity
100
AcDbCircle
  8
Middle Layer
 62
256
370
-1
  6
ByLayer
 10
55.3401013151286989
 20
37.2941167806191629
 30
0.0
 40
1.424999999999996
  0
CIRCLE
  5
8B
100
AcDbEntity
100
AcDbCircle
  8
Middle Layer
 62
256
370
-1
  6
ByLayer
 10
39.3401013151290044
 20
15.2941167806191061
 30
0.0
 40
1.424999999999996
  0
CIRCLE
  5
8C
100
AcDbEntity
100
AcDbCircle
  8
Middle Layer
 62
256
370
-1
  6
ByLayer
 10
55.3401013151288979
 20
15.2941167806191629
 30
0.0
 40
1.424999999999996
  0
CIRCLE
  5
8D
100
AcDbEntity
100
AcDbCircle
  8
Middle Layer
 62
256
370
-1
  6
ByLayer
 10
24.5272283577441144
 20
49.3248121214682556
 30
0.0
 40
1.424999999999996
  0
CIRCLE
  5
8E
100
AcDbEntity
100
AcDbCircle
  8
Middle Layer
 62
256
370
-1
  6
ByLayer
 10
52.7180069813211603
 20
59.5854164212385626
 30
0.0
 40
1.424999999999996
  0
ARC
  5
8F
100
AcDbEntity
  8
Middle Layer
 62
256
370
-1
  6
ByLayer
100
AcDbCircle
 10
50.4401013151288495
 20
34.7941167806191061
 30
0.0
 40
0.499999999999997
100
AcDbArc
 50
360.0
 51
90.0
  0
ARC
  5
90
100
AcDbEntity
  8
Middle Layer
 62
256
370
-1
  6
ByLayer
100
AcDbCircle
 10
50.4401013151289064
 20
22.7941167806191629
 30
0.0
 40
0.5000000000000014
100
AcDbArc
 50
270.0
 51
360.0
  0
LINE
  5
91
100
AcDbEntity
100
AcDbLine
  8
Middle Layer
 62
256
370
-1
  6
ByLayer
 10
48.9401013151288353
 20
35.2941167806191629
 30
0.0
 11
50.4401013151288211
 21
35.2941167806191629
 31
0.0
  0
LINE
  5
92
100
AcDbEntity
100
AcDbLine
  8
Middle Layer
 62
256
370
-1
  6
ByLayer
 10
50.9401013151287927
 20
34.7941167806190492
 30
0.0
 11
50.9401013151288211
 21
28.6535681910236804
 31
0.0
  0
LINE
  5
93
100
AcDbEntity
100
AcDbLine
  8
Middle Layer
 62
256
370
-1
  6
ByLayer
 10
50.9401013151289064
 20
22.7941167806191629
 30
0.0
 11
50.9401013151288211
 21
28.6535681910236804
 31
0.0
  0
LINE
  5
94
100
AcDbEntity
100
AcDbLine
  8
Middle Layer
 62
256
370
-1
  6
ByLayer
 10
45.7401013151287259
 20
42.9404507721882851
 30
0.0
 11
45.7401013151289106
 21
26.8595265712907008
 31
0.0
  0
LINE
  5
95
100
AcDbEntity
100
AcDbLine
  8
Middle Layer
 62
256
370
-1
  6
ByLayer
 10
45.740101315129003
 20
8.2941167806193334
 30
0.0
 11
45.7401013151289106
 21
26.8595265712907008
 31
0.0
  0
LINE
  5
96
100
AcDbEntity
100
AcDbLine
  8
Middle Layer
 62
256
370
-1
  6
ByLayer
 10
48.9401013151290059
 20
18.0675988290355463
 30
0.0
 11
48.9401013151290059
 21
8.2941167806193334
 31
0.0
  0
LINE
  5
97
100
AcDbEntity
100
AcDbLine
  8
Middle Layer
 62
256
370
-1
  6
ByLayer
 10
48.9401013151285582
 20
74.1730377980173898
 30
0.0
 11
48.9401013151288353
 21
35.2941167806191629
 31
0.0
  0
CIRCLE
  5
98
100
AcDbEntity
100
AcDbCircle
  8
Middle Layer
 62
256
370
-1
  6
ByLayer
 10
38.7401013151289249
 20
24.8941167806191288
 30
0.0
 40
1.424999999999996
  0
CIRCLE
  5
99
100
AcDbEntity
100
AcDbCircle
  8
Middle Layer
 62
256
370
-1
  6
ByLayer
 10
30.7401013151290243
 20
24.8941167806190151
 30
0.0
 40
1.424999999999996
  0
CIRCLE
  5
9A
100
AcDbEntity
100
AcDbCircle
  8
Middle Layer
 62
256
370
-1
  6
ByLayer
 10
30.7401013151289106
 20
32.6941167806190265
 30
0.0
 40
1.424999999999996
  0
CIRCLE
  5
9B
100
AcDbEntity
100
AcDbCircle
  8
Middle Layer
 62
256
370
-1
  6
ByLayer
 10
38.7401013151289177
 20
32.6941167806190833
 30
0.0
 40
1.424999999999996
  0
LINE
  5
9C
100
AcDbEntity
100
AcDbLine
  8
Middle Layer
 62
256
370
-1
  6
ByLayer
 10
25.9125870165460128
 20
59.4066413893383469
 30
0.0
 11
32.9602816724403667
 21
61.9717924642808384
 31
0.0
  0
LINE
  5
9D
100
AcDbEntity
100
AcDbLine
  8
Middle Layer
 62
256
370
-1
  6
ByLayer
 10
23.2966505841203855
 20
64.839585028058309
 30
0.0
 11
25.1435593580791092
 21
59.7652448758145169
 31
0.0
  0
LINE
  5
9E
100
AcDbEntity
100
AcDbLine
  8
Middle Layer
 62
256
370
-1
  6
ByLayer
 10
10.0
 20
60.0
 30
0.0
 11
23.2966505841205063
 21
64.8395850280584227
 31
0.0
  0
LINE
  5
9F
100
AcDbEntity
100
AcDbLine
  8
Middle Layer
 62
256
370
-1
  6
ByLayer
 10
16.9124371858607319
 20
41.008234918449773
 30
0.0
 11
10.0
 21
60.0
 31
0.0
  0
LINE
  5
A0
100
AcDbEntity
100
AcDbLine
  8
Middle Layer
 62
256
370
-1
  6
ByLayer
 10
22.3401013151291963
 20
8.2941167806193334
 30
0.0
 11
22.3401013151291963
 21
10.2264220191397044
 31
0.0
  0
LINE
  5
A1
100
AcDbEntity
100
AcDbLine
  8
Middle Layer
 62
256
370
-1
  6
ByLayer
 10
45.740101315129003
 20
8.2941167806193334
 30
0.0
 11
22.3401013151291963
 21
8.2941167806193334
 31
0.0
  0
LINE
  5
A2
100
AcDbEntity
100
AcDbLine
  8
Middle Layer
 62
256
370
-1
  6
ByLayer
 10
15.6229528189405045
 20
55.6615208199222025
 30
0.0
 11
21.6369855919702374
 21
57.8504497372065316
 31
0.0
  0
LINE
  5
A3
100
AcDbEntity
100
AcDbLine
  8
Middle Layer
 62
256
370
-1
  6
ByLayer
 10
22.4060132504370699
 20
57.4918462507303616
 30
0.0
 11
23.3636696517491416
 21
54.8607069125299063
 31
0.0
  0
LINE
  5
A4
100
AcDbEntity
100
AcDbLine
  8
Middle Layer
 62
256
370
-1
  6
ByLayer
 10
23.0050661652729502
 20
54.0916792540629103
 30
0.0
 11
16.991033392243196
 21
51.9027503367784675
 31
0.0
  0
LINE
  5
A5
100
AcDbEntity
100
AcDbLine
  8
Middle Layer
 62
256
370
-1
  6
ByLayer
 10
16.2220057337762356
 20
52.2613538232547512
 30
0.0
 11
15.2643493324642776
 21
54.8924931614550928
 31
0.0
  0
LINE
  5
A6
100
AcDbEntity
100
AcDbLine
  8
Middle Layer
 62
256
370
-1
  6
ByLayer
 10
35.1401013151290016
 20
19.6941167806190833
 30
0.0
 11
35.1401013151291011
 21
16.894116780619072
 31
0.0
  0
LINE
  5
A7
100
AcDbEntity
100
AcDbLine
  8
Middle Layer
 62
256
370
-1
  6
ByLayer
 10
34.5401013151291068
 20
16.2941167806189924
 30
0.0
 11
28.1401013151290869
 21
16.2941167806189355
 31
0.0
  0
LINE
  5
A8
100
AcDbEntity
100
AcDbLine
  8
Middle Layer
 62
256
370
-1
  6
ByLayer
 10
27.5401013151290996
 20
16.8941167806189583
 30
0.0
 11
27.5401013151290357
 21
19.6941167806190265
 31
0.0
  0
LINE
  5
A9
100
AcDbEntity
100
AcDbLine
  8
Middle Layer
 62
256
370
-1
  6
ByLayer
 10
28.1401013151290087
 20
20.2941167806189355
 30
0.0
 11
34.5401013151289931
 21
20.2941167806189355
 31
0.0
  0
LINE
  5
AA
100
AcDbEntity
100
AcDbLine
  8
Middle Layer
 62
256
370
-1
  6
ByLayer
 10
38.1285910867628033
 20
63.8529032525719913
 30
0.0
 11
45.1762857426570719
 21
66.4180543275147102
 31
0.0
  0
LINE
  5
AB
100
AcDbEntity
100
AcDbLine
  8
Middle Layer
 62
256
370
-1
  6
ByLayer
 10
72.3401013151288907
 20
8.2941167806193334
 30
0.0
 11
48.9401013151290059
 21
8.2941167806193334
 31
0.0
  0
LINE
  5
AC
100
AcDbEntity
100
AcDbLine
  8
Middle Layer
 62
256
370
-1
  6
ByLayer
 10
72.3401013151287771
 20
19.0427710545632749
 30
0.0
 11
72.3401013151288907
 21
8.2941167806193334
 31
0.0
  0
LINE
  5
AD
100
AcDbEntity
100
AcDbLine
  8
Middle Layer
 62
256
370
-1
  6
ByLayer
 10
56.9846310392950031
 20
77.1010071662837504
 30
0.0
 11
66.9124371858603411
 21
49.8245839538733435
 31
0.0
  0
LINE
  5
AE
100
AcDbEntity
100
AcDbLine
  8
Middle Layer
 62
256
370
-1
  6
ByLayer
 10
48.9401013151285582
 20
74.1730377980173898
 30
0.0
 11
56.9846310392950031
 21
77.1010071662837504
 31
0.0
  0
LINE
  5
AF
100
AcDbEntity
100
AcDbLine
  8
Middle Layer
 62
256
370
-1
  6
ByLayer
 10
66.540101315128851
 20
16.2941167806193334
 30
0.0
 11
60.140101315128895
 21
16.2941167806192766
 31
0.0
  0
LINE
  5
B0
100
AcDbEntity
100
AcDbLine
  8
Middle Layer
 62
256
370
-1
  6
ByLayer
 10
59.5401013151288865
 20
16.8941167806192425
 30
0.0
 11
59.5401013151288296
 21
19.6941167806192539
 31
0.0
  0
LINE
  5
B1
100
AcDbEntity
100
AcDbLine
  8
Middle Layer
 62
256
370
-1
  6
ByLayer
 10
60.1401013151288666
 20
20.2941167806192766
 30
0.0
 11
66.5401013151288225
 21
20.2941167806192766
 31
0.0
  0
LINE
  5
B2
100
AcDbEntity
100
AcDbLine
  8
Middle Layer
 62
256
370
-1
  6
ByLayer
 10
67.1401013151288169
 20
19.6941167806192539
 30
0.0
 11
67.1401013151288453
 21
16.8941167806193562
 31
0.0
  0
LINE
  5
B3
100
AcDbEntity
100
AcDbLine
  8
Middle Layer
 62
256
370
-1
  6
ByLayer
 10
50.0509400820686281
 20
64.5740789829789605
 30
0.0
 11
49.0932836807567483
 21
67.2052183211795864
 31
0.0
  0
LINE
  5
B4
100
AcDbEntity
100
AcDbLine
  8
Middle Layer
 62
256
370
-1
  6
ByLayer
 10
49.4518871672329752
 20
67.9742459796466392
 30
0.0
 11
55.4659199402626584
 21
70.1631748969308546
 31
0.0
  0
LINE
  5
B5
100
AcDbEntity
100
AcDbLine
  8
Middle Layer
 62
256
370
-1
  6
ByLayer
 10
56.2349475987296401
 20
69.8045714104546278
 30
0.0
 11
57.1926040000415057
 21
67.1734320722541725
 31
0.0
  0
LINE
  5
B6
100
AcDbEntity
100
AcDbLine
  8
Middle Layer
 62
256
370
-1
  6
ByLayer
 10
56.8340005135652788
 20
66.4044044137872334
 30
0.0
 11
50.8199677405356098
 21
64.2154754965029042
 31
0.0
  0
ARC
  5
B7
100
AcDbEntity
  8
Middle Layer
 62
256
370
-1
  6
ByLayer
100
AcDbCircle
 10
25.7073749305506709
 20
59.9704569618099299
 30
0.0
 40
0.600000000000006
100
AcDbArc
 50
199.9999999999995737
 51
290.0000000000000568
  0
ARC
  5
B8
100
AcDbEntity
  8
Middle Layer
 62
256
370
-1
  6
ByLayer
100
AcDbCircle
 10
21.8421976779656077
 20
57.2866341647350055
 30
0.0
 40
0.5999999999999791
100
AcDbArc
 50
20.0000000000006892
 51
110.0000000000033396
  0
ARC
  5
B9
100
AcDbEntity
  8
Middle Layer
 62
256
370
-1
  6
ByLayer
100
AcDbCircle
 10
22.7998540792775017
 20
54.6554948265343228
 30
0.0
 40
0.599999999999983
100
AcDbArc
 50
290.0000000000000568
 51
20.0000000000032863
  0
ARC
  5
BA
100
AcDbEntity
  8
Middle Layer
 62
256
370
-1
  6
ByLayer
100
AcDbCircle
 10
16.7858213062478185
 20
52.4665659092499936
 30
0.0
 40
0.599999999999974
100
AcDbArc
 50
199.9999999999969873
 51
290.0000000000000568
  0
ARC
  5
BB
100
AcDbEntity
  8
Middle Layer
 62
256
370
-1
  6
ByLayer
100
AcDbCircle
 10
15.8281649049359032
 20
55.0977052474506763
 30
0.0
 40
0.600000000000009
100
AcDbArc
 50
110.0000000000018048
 51
199.9999999999990621
  0
ARC
  5
BC
100
AcDbEntity
  8
Middle Layer
 62
256
370
-1
  6
ByLayer
100
AcDbCircle
 10
34.5401013151291068
 20
16.8941167806191288
 30
0.0
 40
0.599999999999999
100
AcDbArc
 50
270.0
 51
360.0
  0
ARC
  5
BD
100
AcDbEntity
  8
Middle Layer
 62
256
370
-1
  6
ByLayer
100
AcDbCircle
 10
28.1401013151291011
 20
16.8941167806189583
 30
0.0
 40
0.5999999999999968
100
AcDbArc
 50
180.0
 51
270.0
  0
ARC
  5
BE
100
AcDbEntity
  8
Middle Layer
 62
256
370
-1
  6
ByLayer
100
AcDbCircle
 10
28.1401013151289945
 20
19.6941167806189696
 30
0.0
 40
0.6000000000000034
100
AcDbArc
 50
90.0000000000017337
 51
180.0
  0
ARC
  5
BF
100
AcDbEntity
  8
Middle Layer
 62
256
370
-1
  6
ByLayer
100
AcDbCircle
 10
34.540101315128986
 20
19.6941167806190833
 30
0.0
 40
0.6000000000000013
100
AcDbArc
 50
360.0
 51
89.9999999999983231
  0
ARC
  5
C0
100
AcDbEntity
  8
Middle Layer
 62
256
370
-1
  6
ByLayer
100
AcDbCircle
 10
60.140101315128895
 20
16.8941167806192425
 30
0.0
 40
0.5999999999999968
100
AcDbArc
 50
180.0
 51
270.0
  0
ARC
  5
C1
100
AcDbEntity
  8
Middle Layer
 62
256
370
-1
  6
ByLayer
100
AcDbCircle
 10
60.1401013151288666
 20
19.6941167806192539
 30
0.0
 40
0.6000000000000034
100
AcDbArc
 50
90.0000000000017337
 51
180.0
  0
ARC
  5
C2
100
AcDbEntity
  8
Middle Layer
 62
256
370
-1
  6
ByLayer
100
AcDbCircle
 10
66.5401013151288225
 20
19.6941167806192539
 30
0.0
 40
0.599999999999999
100
AcDbArc
 50
360.0
 51
89.9999999999983231
  0
ARC
  5
C3
100
AcDbEntity
  8
Middle Layer
 62
256
370
-1
  6
ByLayer
100
AcDbCircle
 10
66.5401013151288794
 20
16.8941167806193562
 30
0.0
 40
0.599999999999999
100
AcDbArc
 50
270.0
 51
360.0
  0
ARC
  5
C4
100
AcDbEntity
  8
Middle Layer
 62
256
370
-1
  6
ByLayer
100
AcDbCircle
 10
49.6570992532283029
 20
67.4104304071749993
 30
0.0
 40
0.5999999999999952
100
AcDbArc
 50
110.0000000000002842
 51
200.0000000000001705
  0
ARC
  5
C5
100
AcDbEntity
  8
Middle Layer
 62
256
370
-1
  6
ByLayer
100
AcDbCircle
 10
55.6711320262581992
 20
69.5993593244592716
 30
0.0
 40
0.5999999999999801
100
AcDbArc
 50
20.0000000000001812
 51
110.0000000000018048
  0
ARC
  5
C6
100
AcDbEntity
  8
Middle Layer
 62
256
370
-1
  6
ByLayer
100
AcDbCircle
 10
56.6287884275698943
 20
66.9682199862587595
 30
0.0
 40
0.5999999999999871
100
AcDbArc
 50
290.0000000000000568
 51
20.0000000000001812
  0
ARC
  5
C7
100
AcDbEntity
  8
Middle Layer
 62
256
370
-1
  6
ByLayer
100
AcDbCircle
 10
50.6147556545402537
 20
64.7792910689743735
 30
0.0
 40
0.5999999999999908
100
AcDbArc
 50
200.0000000000001421
 51
290.000000000001819
  0
ARC
  5
C8
100
AcDbEntity
  8
Middle Layer
 62
256
370
-1
  6
ByLayer
100
AcDbCircle
 10
-67.6598986848700861
 20
10.226422019138397
 30
0.0
 40
89.9999999999994458
100
AcDbArc
 50
360.0
 51
20.0000000000005862
  0
ARC
  5
C9
100
AcDbEntity
  8
Middle Layer
 62
256
370
-1
  6
ByLayer
100
AcDbCircle
 10
-17.6598986848699084
 20
19.0427710545624791
 30
0.0
 40
89.9999999999989058
100
AcDbArc
 50
360.0
 51
20.0000000000006892
  0
LINE
  5
CA
100
AcDbEntity
100
AcDbLine
  8
Top Layer
 62
256
370
-1
  6
ByLayer
 10
12.8446142014411961
 20
52.1844867144803857
 30
0.0
 11
18.0895728328075336
 21
37.7740813088282152
 31
0.0
  0
CIRCLE
  5
CB
100
AcDbEntity
100
AcDbCircle
  8
Top Layer
 62
256
370
-1
  6
ByLayer
 10
55.3401013151286989
 20
37.2941167806191629
 30
0.0
 40
1.424999999999996
  0
CIRCLE
  5
CC
100
AcDbEntity
100
AcDbCircle
  8
Top Layer
 62
256
370
-1
  6
ByLayer
 10
39.3401013151290044
 20
15.2941167806191061
 30
0.0
 40
1.424999999999996
  0
CIRCLE
  5
CD
100
AcDbEntity
100
AcDbCircle
  8
Top Layer
 62
256
370
-1
  6
ByLayer
 10
55.3401013151288979
 20
15.2941167806191629
 30
0.0
 40
1.424999999999996
  0
CIRCLE
  5
CE
100
AcDbEntity
100
AcDbCircle
  8
Top Layer
 62
256
370
-1
  6
ByLayer
 10
24.5272283577441144
 20
49.3248121214682556
 30
0.0
 40
1.424999999999996
  0
CIRCLE
  5
CF
100
AcDbEntity
100
AcDbCircle
  8
Top Layer
 62
256
370
-1
  6
ByLayer
 10
52.7180069813211603
 20
59.5854164212385626
 30
0.0
 40
1.424999999999996
  0
ARC
  5
D0
100
AcDbEntity
  8
Top Layer
 62
256
370
-1
  6
ByLayer
100
AcDbCircle
 10
50.4401013151288495
 20
34.7941167806191061
 30
0.0
 40
0.499999999999997
100
AcDbArc
 50
360.0
 51
90.0
  0
ARC
  5
D1
100
AcDbEntity
  8
Top Layer
 62
256
370
-1
  6
ByLayer
100
AcDbCircle
 10
50.0181049341278978
 20
16.5677104278271372
 30
0.0
 40
0.4999999999999964
100
AcDbArc
 50
199.9999999999984368
 51
290.0000000000009663
  0
ARC
  5
D2
100
AcDbEntity
  8
Top Layer
 62
256
370
-1
  6
ByLayer
100
AcDbCircle
 10
54.2467217276645144
 20
18.1068010727925639
 30
0.0
 40
0.4999999999999947
100
AcDbArc
 50
289.9999999999990905
 51
19.9999999999984013
  0
LINE
  5
D3
100
AcDbEntity
100
AcDbLine
  8
Top Layer
 62
256
370
-1
  6
ByLayer
 10
48.9401013151288353
 20
35.2941167806191629
 30
0.0
 11
50.4401013151288211
 21
35.2941167806191629
 31
0.0
  0
LINE
  5
D4
100
AcDbEntity
100
AcDbLine
  8
Top Layer
 62
256
370
-1
  6
ByLayer
 10
50.9401013151287927
 20
34.7941167806190492
 30
0.0
 11
50.9401013151288211
 21
28.6535681910236804
 31
0.0
  0
LINE
  5
D5
100
AcDbEntity
100
AcDbLine
  8
Top Layer
 62
256
370
-1
  6
ByLayer
 10
49.5482586237349025
 20
16.3967003561642741
 30
0.0
 11
48.9401013151290059
 21
18.0675988290355463
 31
0.0
  0
LINE
  5
D6
100
AcDbEntity
100
AcDbLine
  8
Top Layer
 62
256
370
-1
  6
ByLayer
 10
50.9401013151288211
 20
28.6535681910236804
 30
0.0
 11
54.716568038057396
 21
18.2778111444553701
 31
0.0
  0
LINE
  5
D7
100
AcDbEntity
100
AcDbLine
  8
Top Layer
 62
256
370
-1
  6
ByLayer
 10
45.7401013151289177
 20
26.8595265712907008
 30
0.0
 11
32.9602816724403667
 21
61.9717924642808384
 31
0.0
  0
LINE
  5
D8
100
AcDbEntity
100
AcDbLine
  8
Top Layer
 62
256
370
-1
  6
ByLayer
 10
54.4177317993273064
 20
17.6369547623996823
 30
0.0
 11
50.1891150057907041
 21
16.0978641174341419
 31
0.0
  0
LINE
  5
D9
100
AcDbEntity
100
AcDbLine
  8
Top Layer
 62
256
370
-1
  6
ByLayer
 10
45.740101315129003
 20
8.2941167806193334
 30
0.0
 11
45.7401013151289177
 21
26.8595265712907008
 31
0.0
  0
LINE
  5
DA
100
AcDbEntity
100
AcDbLine
  8
Top Layer
 62
256
370
-1
  6
ByLayer
 10
48.9401013151290059
 20
18.0675988290355463
 30
0.0
 11
48.9401013151290059
 21
8.2941167806193334
 31
0.0
  0
LINE
  5
DB
100
AcDbEntity
100
AcDbLine
  8
Top Layer
 62
256
370
-1
  6
ByLayer
 10
48.9401013151285582
 20
74.1730377980173898
 30
0.0
 11
48.9401013151288353
 21
35.2941167806191629
 31
0.0
  0
CIRCLE
  5
DC
100
AcDbEntity
100
AcDbCircle
  8
Top Layer
 62
256
370
-1
  6
ByLayer
 10
38.7401013151289391
 20
24.8941167806191288
 30
0.0
 40
1.424999999999996
  0
CIRCLE
  5
DD
100
AcDbEntity
100
AcDbCircle
  8
Top Layer
 62
256
370
-1
  6
ByLayer
 10
30.7401013151290243
 20
24.8941167806190151
 30
0.0
 40
1.424999999999996
  0
CIRCLE
  5
DE
100
AcDbEntity
100
AcDbCircle
  8
Top Layer
 62
256
370
-1
  6
ByLayer
 10
30.7401013151289106
 20
32.6941167806190265
 30
0.0
 40
1.424999999999996
  0
CIRCLE
  5
DF
100
AcDbEntity
100
AcDbCircle
  8
Top Layer
 62
256
370
-1
  6
ByLayer
 10
38.7401013151289177
 20
32.6941167806190833
 30
0.0
 40
1.424999999999996
  0
LINE
  5
E0
100
AcDbEntity
100
AcDbLine
  8
Top Layer
 62
256
370
-1
  6
ByLayer
 10
25.9125870165460128
 20
59.4066413893383469
 30
0.0
 11
32.9602816724403667
 21
61.9717924642808384
 31
0.0
  0
LINE
  5
E1
100
AcDbEntity
100
AcDbLine
  8
Top Layer
 62
256
370
-1
  6
ByLayer
 10
23.2966505841203855
 20
64.839585028058309
 30
0.0
 11
25.1435593580791164
 21
59.7652448758144601
 31
0.0
  0
LINE
  5
E2
100
AcDbEntity
100
AcDbLine
  8
Top Layer
 62
256
370
-1
  6
ByLayer
 10
10.0
 20
60.0
 30
0.0
 11
23.2966505841205134
 21
64.8395850280584227
 31
0.0
  0
LINE
  5
E3
100
AcDbEntity
100
AcDbLine
  8
Top Layer
 62
256
370
-1
  6
ByLayer
 10
16.9124371858607319
 20
41.008234918449773
 30
0.0
 11
10.0
 21
60.0
 31
0.0
  0
LINE
  5
E4
100
AcDbEntity
100
AcDbLine
  8
Top Layer
 62
256
370
-1
  6
ByLayer
 10
22.3401013151291963
 20
8.2941167806193334
 30
0.0
 11
22.3401013151291963
 21
10.2264220191397044
 31
0.0
  0
LINE
  5
E5
100
AcDbEntity
100
AcDbLine
  8
Top Layer
 62
256
370
-1
  6
ByLayer
 10
45.740101315129003
 20
8.2941167806193334
 30
0.0
 11
22.3401013151291963
 21
8.2941167806193334
 31
0.0
  0
LINE
  5
E6
100
AcDbEntity
100
AcDbLine
  8
Top Layer
 62
256
370
-1
  6
ByLayer
 10
15.6229528189405045
 20
55.6615208199222025
 30
0.0
 11
21.6369855919702374
 21
57.8504497372065316
 31
0.0
  0
LINE
  5
E7
100
AcDbEntity
100
AcDbLine
  8
Top Layer
 62
256
370
-1
  6
ByLayer
 10
22.4060132504370699
 20
57.4918462507303616
 30
0.0
 11
23.3636696517491416
 21
54.8607069125299063
 31
0.0
  0
LINE
  5
E8
100
AcDbEntity
100
AcDbLine
  8
Top Layer
 62
256
370
-1
  6
ByLayer
 10
23.0050661652729502
 20
54.0916792540629103
 30
0.0
 11
16.991033392243196
 21
51.9027503367784675
 31
0.0
  0
LINE
  5
E9
100
AcDbEntity
100
AcDbLine
  8
Top Layer
 62
256
370
-1
  6
ByLayer
 10
16.2220057337762356
 20
52.2613538232547512
 30
0.0
 11
15.2643493324642776
 21
54.8924931614550928
 31
0.0
  0
LINE
  5
EA
100
AcDbEntity
100
AcDbLine
  8
Top Layer
 62
256
370
-1
  6
ByLayer
 10
35.1401013151290016
 20
19.6941167806190833
 30
0.0
 11
35.1401013151291153
 21
16.894116780619072
 31
0.0
  0
LINE
  5
EB
100
AcDbEntity
100
AcDbLine
  8
Top Layer
 62
256
370
-1
  6
ByLayer
 10
34.5401013151291068
 20
16.2941167806190492
 30
0.0
 11
28.1401013151290869
 21
16.2941167806189355
 31
0.0
  0
LINE
  5
EC
100
AcDbEntity
100
AcDbLine
  8
Top Layer
 62
256
370
-1
  6
ByLayer
 10
27.5401013151290996
 20
16.8941167806189583
 30
0.0
 11
27.5401013151290357
 21
19.6941167806190265
 31
0.0
  0
LINE
  5
ED
100
AcDbEntity
100
AcDbLine
  8
Top Layer
 62
256
370
-1
  6
ByLayer
 10
28.1401013151290087
 20
20.2941167806189355
 30
0.0
 11
34.5401013151290073
 21
20.2941167806189355
 31
0.0
  0
LINE
  5
EE
100
AcDbEntity
100
AcDbLine
  8
Top Layer
 62
256
370
-1
  6
ByLayer
 10
72.3401013151288907
 20
8.2941167806193334
 30
0.0
 11
48.9401013151290059
 21
8.2941167806193334
 31
0.0
  0
LINE
  5
EF
100
AcDbEntity
100
AcDbLine
  8
Top Layer
 62
256
370
-1
  6
ByLayer
 10
72.3401013151287771
 20
19.0427710545632749
 30
0.0
 11
72.3401013151288907
 21
8.2941167806193334
 31
0.0
  0
LINE
  5
F0
100
AcDbEntity
100
AcDbLine
  8
Top Layer
 62
256
370
-1
  6
ByLayer
 10
56.9846310392950031
 20
77.1010071662837504
 30
0.0
 11
66.9124371858603695
 21
49.8245839538733435
 31
0.0
  0
LINE
  5
F1
100
AcDbEntity
100
AcDbLine
  8
Top Layer
 62
256
370
-1
  6
ByLayer
 10
48.9401013151285582
 20
74.1730377980173898
 30
0.0
 11
56.9846310392950031
 21
77.1010071662837504
 31
0.0
  0
LINE
  5
F2
100
AcDbEntity
100
AcDbLine
  8
Top Layer
 62
256
370
-1
  6
ByLayer
 10
66.540101315128851
 20
16.2941167806193334
 30
0.0
 11
60.140101315128895
 21
16.2941167806192766
 31
0.0
  0
LINE
  5
F3
100
AcDbEntity
100
AcDbLine
  8
Top Layer
 62
256
370
-1
  6
ByLayer
 10
59.5401013151288865
 20
16.8941167806192425
 30
0.0
 11
59.5401013151288296
 21
19.6941167806192539
 31
0.0
  0
LINE
  5
F4
100
AcDbEntity
100
AcDbLine
  8
Top Layer
 62
256
370
-1
  6
ByLayer
 10
60.1401013151288666
 20
20.2941167806192766
 30
0.0
 11
66.5401013151288225
 21
20.2941167806192766
 31
0.0
  0
LINE
  5
F5
100
AcDbEntity
100
AcDbLine
  8
Top Layer
 62
256
370
-1
  6
ByLayer
 10
67.1401013151288169
 20
19.6941167806192539
 30
0.0
 11
67.1401013151288453
 21
16.8941167806193562
 31
0.0
  0
LINE
  5
F6
100
AcDbEntity
100
AcDbLine
  8
Top Layer
 62
256
370
-1
  6
ByLayer
 10
50.0509400820686281
 20
64.5740789829789605
 30
0.0
 11
49.0932836807567483
 21
67.2052183211795864
 31
0.0
  0
LINE
  5
F7
100
AcDbEntity
100
AcDbLine
  8
Top Layer
 62
256
370
-1
  6
ByLayer
 10
49.4518871672329894
 20
67.9742459796465823
 30
0.0
 11
55.4659199402626584
 21
70.1631748969308546
 31
0.0
  0
LINE
  5
F8
100
AcDbEntity
100
AcDbLine
  8
Top Layer
 62
256
370
-1
  6
ByLayer
 10
56.2349475987296401
 20
69.8045714104546278
 30
0.0
 11
57.1926040000415057
 21
67.1734320722541725
 31
0.0
  0
LINE
  5
F9
100
AcDbEntity
100
AcDbLine
  8
Top Layer
 62
256
370
-1
  6
ByLayer
 10
56.8340005135652788
 20
66.4044044137872334
 30
0.0
 11
50.8199677405356098
 21
64.2154754965029042
 31
0.0
  0
ARC
  5
FA
100
AcDbEntity
  8
Top Layer
 62
256
370
-1
  6
ByLayer
100
AcDbCircle
 10
25.7073749305506709
 20
59.9704569618099299
 30
0.0
 40
0.600000000000006
100
AcDbArc
 50
199.9999999999995737
 51
290.0000000000000568
  0
ARC
  5
FB
100
AcDbEntity
  8
Top Layer
 62
256
370
-1
  6
ByLayer
100
AcDbCircle
 10
21.8421976779656148
 20
57.2866341647350055
 30
0.0
 40
0.5999999999999791
100
AcDbArc
 50
20.0000000000006892
 51
110.0000000000033396
  0
ARC
  5
FC
100
AcDbEntity
  8
Top Layer
 62
256
370
-1
  6
ByLayer
100
AcDbCircle
 10
22.7998540792775017
 20
54.6554948265343228
 30
0.0
 40
0.599999999999983
100
AcDbArc
 50
290.0000000000000568
 51
20.0000000000032863
  0
ARC
  5
FD
100
AcDbEntity
  8
Top Layer
 62
256
370
-1
  6
ByLayer
100
AcDbCircle
 10
16.7858213062478185
 20
52.4665659092499936
 30
0.0
 40
0.599999999999974
100
AcDbArc
 50
199.9999999999969873
 51
290.0000000000000568
  0
ARC
  5
FE
100
AcDbEntity
  8
Top Layer
 62
256
370
-1
  6
ByLayer
100
AcDbCircle
 10
15.8281649049359032
 20
55.0977052474506763
 30
0.0
 40
0.600000000000009
100
AcDbArc
 50
110.0000000000018048
 51
199.9999999999990621
  0
ARC
  5
FF
100
AcDbEntity
  8
Top Layer
 62
256
370
-1
  6
ByLayer
100
AcDbCircle
 10
34.5401013151291068
 20
16.8941167806191288
 30
0.0
 40
0.599999999999999
100
AcDbArc
 50
270.0
 51
360.0
  0
ARC
  5
100
100
AcDbEntity
  8
Top Layer
 62
256
370
-1
  6
ByLayer
100
AcDbCircle
 10
28.1401013151291011
 20
16.8941167806189583
 30
0.0
 40
0.5999999999999968
100
AcDbArc
 50
180.0
 51
270.0
  0
ARC
  5
101
100
AcDbEntity
  8
Top Layer
 62
256
370
-1
  6
ByLayer
100
AcDbCircle
 10
28.1401013151289945
 20
19.6941167806189696
 30
0.0
 40
0.6000000000000034
100
AcDbArc
 50
90.0000000000017337
 51
180.0
  0
ARC
  5
102
100
AcDbEntity
  8
Top Layer
 62
256
370
-1
  6
ByLayer
100
AcDbCircle
 10
34.540101315128986
 20
19.6941167806190833
 30
0.0
 40
0.6000000000000013
100
AcDbArc
 50
360.0
 51
89.9999999999983231
  0
ARC
  5
103
100
AcDbEntity
  8
Top Layer
 62
256
370
-1
  6
ByLayer
100
AcDbCircle
 10
60.140101315128895
 20
16.8941167806192425
 30
0.0
 40
0.5999999999999968
100
AcDbArc
 50
180.0
 51
270.0
  0
ARC
  5
104
100
AcDbEntity
  8
Top Layer
 62
256
370
-1
  6
ByLayer
100
AcDbCircle
 10
60.1401013151288666
 20
19.6941167806192539
 30
0.0
 40
0.6000000000000034
100
AcDbArc
 50
90.0000000000017337
 51
180.0
  0
ARC
  5
105
100
AcDbEntity
  8
Top Layer
 62
256
370
-1
  6
ByLayer
100
AcDbCircle
 10
66.5401013151288225
 20
19.6941167806192539
 30
0.0
 40
0.599999999999999
100
AcDbArc
 50
360.0
 51
89.9999999999983231
  0
ARC
  5
106
100
AcDbEntity
  8
Top Layer
 62
256
370
-1
  6
ByLayer
100
AcDbCircle
 10
66.5401013151288794
 20
16.8941167806193562
 30
0.0
 40
0.599999999999999
100
AcDbArc
 50
270.0
 51
360.0
  0
ARC
  5
107
100
AcDbEntity
  8
Top Layer
 62
256
370
-1
  6
ByLayer
100
AcDbCircle
 10
49.6570992532283029
 20
67.4104304071749993
 30
0.0
 40
0.5999999999999952
100
AcDbArc
 50
110.0000000000002842
 51
200.0000000000001705
  0
ARC
  5
108
100
AcDbEntity
  8
Top Layer
 62
256
370
-1
  6
ByLayer
100
AcDbCircle
 10
55.6711320262581992
 20
69.5993593244592716
 30
0.0
 40
0.5999999999999801
100
AcDbArc
 50
20.0000000000001812
 51
110.0000000000018048
  0
ARC
  5
109
100
AcDbEntity
  8
Top Layer
 62
256
370
-1
  6
ByLayer
100
AcDbCircle
 10
56.6287884275698943
 20
66.9682199862587595
 30
0.0
 40
0.5999999999999871
100
AcDbArc
 50
290.0000000000000568
 51
20.0000000000001812
  0
ARC
  5
10A
100
AcDbEntity
  8
Top Layer
 62
256
370
-1
  6
ByLayer
100
AcDbCircle
 10
50.6147556545402537
 20
64.7792910689743735
 30
0.0
 40
0.5999999999999908
100
AcDbArc
 50
200.0000000000001421
 51
290.000000000001819
  0
ARC
  5
10B
100
AcDbEntity
  8
Top Layer
 62
256
370
-1
  6
ByLayer
100
AcDbCircle
 10
-67.6598986848700861
 20
10.226422019138397
 30
0.0
 40
89.9999999999994458
100
AcDbArc
 50
360.0
 51
20.0000000000005862
  0
ARC
  5
10C
100
AcDbEntity
  8
Top Layer
 62
256
370
-1
  6
ByLayer
100
AcDbCircle
 10
-17.6598986848699084
 20
19.0427710545624791
 30
0.0
 40
89.9999999999989058
100
AcDbArc
 50
360.0
 51
20.0000000000006892
  0
LINE
  5
10D
100
AcDbEntity
100
AcDbLine
  8
Bottom Layer
 62
256
370
-1
  6
ByLayer
 10
25.9125870165460661
 20
59.4066413893383825
 30
0.0
 11
45.1762857426570719
 21
66.4180543275147102
 31
0.0
  0
LINE
  5
10E
100
AcDbEntity
100
AcDbLine
  8
Bottom Layer
 62
256
370
-1
  6
ByLayer
 10
72.3401013151288907
 20
8.2941167806193334
 30
0.0
 11
22.3401013151291963
 21
8.2941167806193334
 31
0.0
  0
LINE
  5
10F
100
AcDbEntity
100
AcDbLine
  8
Bottom Layer
 62
256
370
-1
  6
ByLayer
 10
45.7401013151288325
 20
34.7941167806191061
 30
0.0
 11
45.7401013151288893
 21
22.7941167806191629
 31
0.0
  0
LINE
  5
110
100
AcDbEntity
100
AcDbLine
  8
Middle Layer
 62
256
370
-1
  6
ByLayer
 10
45.7401013151287259
 20
42.9404507721882851
 30
0.0
 11
45.7401013151285554
 21
66.6232664135098673
 31
0.0
  0
LINE
  5
111
100
AcDbEntity
100
AcDbLine
  8
Middle Layer
 62
256
370
-1
  6
ByLayer
 10
32.9602816724403667
 20
61.9717924642808384
 30
0.0
 11
45.7401013151285554
 21
66.6232664135098673
 31
0.0
  0
LINE
  5
112
100
AcDbEntity
100
AcDbLine
  8
Middle Layer
 62
256
370
-1
  6
ByLayer
 10
48.9401013151289135
 20
22.2941167806191629
 30
0.0
 11
50.4401013151289064
 21
22.2941167806191629
 31
0.0
  0
LINE
  5
113
100
AcDbEntity
100
AcDbLine
  8
Middle Layer
 62
256
370
-1
  6
ByLayer
 10
48.9401013151290059
 20
18.0675988290355463
 30
0.0
 11
48.9401013151289135
 21
22.2941167806191629
 31
0.0
  0
MTEXT
  5
114
100
AcDbEntity
100
AcDbMText
  8
Notes
 62
256
370
-1
  6
ByLayer
 10
10.0
 20
-10.0
 30
0.0
 40
3.0
 41
100.0
 71
1
 72
0
  1
Top\~Layer:\~1/16"\~acrylic\PMiddle\~Layer:\~1/16"\~acrylic\PBottom\~Layer:\~1/8"\~acrylic
  7
standard
 50
0.0
 73
1
 44
1.0
  0
ENDSEC
  0
SECTION
  2
OBJECTS
  0
DICTIONARY
  5
C
100
AcDbDictionary
280
0
281
1
  3
ACAD_GROUP
350
D
  3
ACAD_LAYOUT
350
1A
  3
ACAD_MLINESTYLE
350
17
  3
ACAD_PLOTSETTINGS
350
19
  3
ACAD_PLOTSTYLENAME
350
E
  3
AcDbVariableDictionary
350
115
  0
DICTIONARY
  5
D
100
AcDbDictionary
280
0
281
1
  0
ACDBDICTIONARYWDFLT
  5
E
100
AcDbDictionary
281
1
  3
Normal
350
F
100
AcDbDictionaryWithDefault
340
F
  0
ACDBPLACEHOLDER
  5
F
  0
DICTIONARY
  5
17
100
AcDbDictionary
280
0
281
1
  3
Standard
350
18
  0
MLINESTYLE
  5
18
100
AcDbMlineStyle
  2
STANDARD
 70
0
  3

 62
256
 51
90.0
 52
90.0
 71
2
 49
0.5
 62
256
  6
BYLAYER
 49
-0.5
 62
256
  6
BYLAYER
  0
DICTIONARY
  5
19
100
AcDbDictionary
280
0
281
1
  0
DICTIONARY
  5
1A
100
AcDbDictionary
281
1
  3
Layout1
350
1E
  3
Layout2
350
26
  3
Model
350
22
  0
LAYOUT
  5
1E
100
AcDbPlotSettings
  1

  2
C:\Program Files\AutoCAD 2002\plotters\DWF ePlot (optimized for plotting).pc3
  4

  6

 40
0.0
 41
0.0
 42
0.0
 43
0.0
 44
0.0
 45
0.0
 46
0.0
 47
0.0
 48
0.0
 49
0.0
140
0.0
141
0.0
142
1.0
143
1.0
 70
688
 72
0
 73
0
 74
5
  7

 75
16
147
1.0
148
0.0
149
0.0
100
AcDbLayout
  1
Layout1
 70
1
 71
1
 10
0.0
 20
0.0
 11
420.0
 21
297.0
 12
0.0
 22
0.0
 32
0.0
 14
100000000000000000000.0
 24
100000000000000000000.0
 34
100000000000000000000.0
 15
-100000000000000000000.0
 25
-100000000000000000000.0
 35
-100000000000000000000.0
146
0.0
 13
0.0
 23
0.0
 33
0.0
 16
1.0
 26
0.0
 36
0.0
 17
0.0
 27
1.0
 37
0.0
 76
0
330
1B
  0
LAYOUT
  5
22
100
AcDbPlotSettings
  1

  2
C:\Program Files\AutoCAD 2002\plotters\DWF ePlot (optimized for plotting).pc3
  4

  6

 40
0.0
 41
0.0
 42
0.0
 43
0.0
 44
0.0
 45
0.0
 46
0.0
 47
0.0
 48
0.0
 49
0.0
140
0.0
141
0.0
142
1.0
143
1.0
 70
1712
 72
0
 73
0
 74
0
  7

 75
0
147
1.0
148
0.0
149
0.0
100
AcDbLayout
  1
Model
 70
1
 71
0
 10
0.0
 20
0.0
 11
12.0
 21
9.0
 12
0.0
 22
0.0
 32
0.0
 14
0.0
 24
0.0
 34
0.0
 15
0.0
 25
0.0
 35
0.0
146
0.0
 13
0.0
 23
0.0
 33
0.0
 16
1.0
 26
0.0
 36
0.0
 17
0.0
 27
1.0
 37
0.0
 76
0
330
1F
  0
LAYOUT
  5
26
100
AcDbPlotSettings
  1

  2
C:\Program Files\AutoCAD 2002\plotters\DWF ePlot (optimized for plotting).pc3
  4

  6

 40
0.0
 41
0.0
 42
0.0
 43
0.0
 44
0.0
 45
0.0
 46
0.0
 47
0.0
 48
0.0
 49
0.0
140
0.0
141
0.0
142
1.0
143
1.0
 70
688
 72
0
 73
0
 74
5
  7

 75
16
147
1.0
148
0.0
149
0.0
100
AcDbLayout
  1
Layout2
 70
1
 71
2
 10
0.0
 20
0.0
 11
12.0
 21
9.0
 12
0.0
 22
0.0
 32
0.0
 14
0.0
 24
0.0
 34
0.0
 15
0.0
 25
0.0
 35
0.0
146
0.0
 13
0.0
 23
0.0
 33
0.0
 16
1.0
 26
0.0
 36
0.0
 17
0.0
 27
1.0
 37
0.0
 76
0
330
23
  0
DICTIONARY
  5
115
100
AcDbDictionary
281
1
  3
DIMASSOC
350
117
  3
HIDETEXT
350
116
  0
DICTIONARYVAR
  5
116
100
DictionaryVariables
280
0
  1
2
  0
DICTIONARYVAR
  5
117
100
DictionaryVariables
280
0
  1
1
  0
ENDSEC
  0
EOF
