999
dxflib 2.1.2.0
  0
SECTION
  2
HEADER
  9
$ACADVER
  1
AC1015
  9
$HANDSEED
  5
FFFF
  9
$DIMASZ
 40
2.5
  9
$PLIMMIN
 10
0.0
 20
0.0
  9
$DIMEXE
 40
1.25
  9
$DIMGAP
 40
0.625
  9
$PLIMMAX
 10
210.0
 20
297.0
  9
$PSVPSCALE
 40
1.0
  9
$PINSBASE
 10
309.1574085234898916
 20
122.9076184228187998
 30
0.0
  9
$INSUNITS
 70
4
  9
$DIMSTYLE
  2
Standard
  9
$CLAYER
  8
X Text
  9
$DIMEXO
 40
0.625
  9
$DIMTXT
 40
2.5
  9
$CLAYER
  8
Base Drawings
  0
ENDSEC
  0
SECTION
  2
TABLES
  0
TABLE
  2
VPORT
  5
8
100
AcDbSymbolTable
 70
1
  0
VPORT
  5
30
100
AcDbSymbolTableRecord
100
AcDbViewportTableRecord
  2
*Active
 70
0
 10
0.0
 20
0.0
 11
1.0
 21
1.0
 12
286.3055555555554861
 22
148.5
 13
0.0
 23
0.0
 14
10.0
 24
10.0
 15
10.0
 25
10.0
 16
0.0
 26
0.0
 36
1.0
 17
0.0
 27
0.0
 37
0.0
 40
297.0
 41
1.92798353909465
 42
50.0
 43
0.0
 44
0.0
 50
0.0
 51
0.0
 71
0
 72
100
 73
1
 74
3
 75
1
 76
1
 77
0
 78
0
281
0
 65
1
110
0.0
120
0.0
130
0.0
111
1.0
121
0.0
131
0.0
112
0.0
122
1.0
132
0.0
 79
0
146
0.0
  0
ENDTAB
  0
TABLE
  2
LTYPE
  5
5
100
AcDbSymbolTable
 70
21
  0
LTYPE
  5
14
100
AcDbSymbolTableRecord
100
AcDbLinetypeTableRecord
  2
ByBlock
 70
0
  3

 72
65
 73
0
 40
0.0
  0
LTYPE
  5
15
100
AcDbSymbolTableRecord
100
AcDbLinetypeTableRecord
  2
ByLayer
 70
0
  3

 72
65
 73
0
 40
0.0
  0
LTYPE
  5
16
100
AcDbSymbolTableRecord
100
AcDbLinetypeTableRecord
  2
CONTINUOUS
 70
0
  3
Solid line
 72
65
 73
0
 40
0.0
  0
LTYPE
  5
31
100
AcDbSymbolTableRecord
100
AcDbLinetypeTableRecord
  2
DOT
 70
0
  3
Dot . . . . . . . . . . . . . . . . . . . . . .
 72
65
 73
2
 40
6.3499999999999996
 49
0.0
 74
0
 49
-6.3499999999999996
 74
0
  0
LTYPE
  5
32
100
AcDbSymbolTableRecord
100
AcDbLinetypeTableRecord
  2
DOT2
 70
0
  3
Dot (.5x) .....................................
 72
65
 73
2
 40
3.1749999999999998
 49
0.0
 74
0
 49
-3.1749999999999998
 74
0
  0
LTYPE
  5
33
100
AcDbSymbolTableRecord
100
AcDbLinetypeTableRecord
  2
DOTX2
 70
0
  3
Dot (2x) .  .  .  .  .  .  .  .  .  .  .  .  .
 72
65
 73
2
 40
12.6999999999999993
 49
0.0
 74
0
 49
-12.6999999999999993
 74
0
  0
LTYPE
  5
34
100
AcDbSymbolTableRecord
100
AcDbLinetypeTableRecord
  2
DASHED
 70
0
  3
Dashed __ __ __ __ __ __ __ __ __ __ __ __ __ _
 72
65
 73
2
 40
19.0500000000000007
 49
12.6999999999999993
 74
0
 49
-6.3499999999999996
 74
0
  0
LTYPE
  5
35
100
AcDbSymbolTableRecord
100
AcDbLinetypeTableRecord
  2
DASHED2
 70
0
  3
Dashed (.5x) _ _ _ _ _ _ _ _ _ _ _ _ _ _ _ _ _
 72
65
 73
2
 40
9.5250000000000004
 49
6.3499999999999996
 74
0
 49
-3.1749999999999998
 74
0
  0
LTYPE
  5
36
100
AcDbSymbolTableRecord
100
AcDbLinetypeTableRecord
  2
DASHEDX2
 70
0
  3
Dashed (2x) ____  ____  ____  ____  ____  ___
 72
65
 73
2
 40
38.1000000000000014
 49
25.3999999999999986
 74
0
 49
-12.6999999999999993
 74
0
  0
LTYPE
  5
37
100
AcDbSymbolTableRecord
100
AcDbLinetypeTableRecord
  2
DASHDOT
 70
0
  3
Dash dot __ . __ . __ . __ . __ . __ . __ . __
 72
65
 73
4
 40
25.3999999999999986
 49
12.6999999999999993
 74
0
 49
-6.3499999999999996
 74
0
 49
0.0
 74
0
 49
-6.3499999999999996
 74
0
  0
LTYPE
  5
38
100
AcDbSymbolTableRecord
100
AcDbLinetypeTableRecord
  2
DASHDOT2
 70
0
  3
Dash dot (.5x) _._._._._._._._._._._._._._._.
 72
65
 73
4
 40
12.6999999999999993
 49
6.3499999999999996
 74
0
 49
-3.1749999999999998
 74
0
 49
0.0
 74
0
 49
-3.1749999999999998
 74
0
  0
LTYPE
  5
39
100
AcDbSymbolTableRecord
100
AcDbLinetypeTableRecord
  2
DASHDOTX2
 70
0
  3
Dash dot (2x) ____  .  ____  .  ____  .  ___
 72
65
 73
4
 40
50.7999999999999972
 49
25.3999999999999986
 74
0
 49
-12.6999999999999993
 74
0
 49
0.0
 74
0
 49
-12.6999999999999993
 74
0
  0
LTYPE
  5
3A
100
AcDbSymbolTableRecord
100
AcDbLinetypeTableRecord
  2
DIVIDE
 70
0
  3
Divide ____ . . ____ . . ____ . . ____ . . ____
 72
65
 73
6
 40
31.75
 49
12.6999999999999993
 74
0
 49
-6.3499999999999996
 74
0
 49
0.0
 74
0
 49
-6.3499999999999996
 74
0
 49
0.0
 74
0
 49
-6.3499999999999996
 74
0
  0
LTYPE
  5
3B
100
AcDbSymbolTableRecord
100
AcDbLinetypeTableRecord
  2
DIVIDE2
 70
0
  3
Divide (.5x) __..__..__..__..__..__..__..__.._
 72
65
 73
6
 40
15.875
 49
6.3499999999999996
 74
0
 49
-3.1749999999999998
 74
0
 49
0.0
 74
0
 49
-3.1749999999999998
 74
0
 49
0.0
 74
0
 49
-3.1749999999999998
 74
0
  0
LTYPE
  5
3C
100
AcDbSymbolTableRecord
100
AcDbLinetypeTableRecord
  2
DIVIDEX2
 70
0
  3
Divide (2x) ________  .  .  ________  .  .  _
 72
65
 73
6
 40
63.5
 49
25.3999999999999986
 74
0
 49
-12.6999999999999993
 74
0
 49
0.0
 74
0
 49
-12.6999999999999993
 74
0
 49
0.0
 74
0
 49
-12.6999999999999993
 74
0
  0
LTYPE
  5
3D
100
AcDbSymbolTableRecord
100
AcDbLinetypeTableRecord
  2
CENTER
 70
0
  3
Center ____ _ ____ _ ____ _ ____ _ ____ _ ____
 72
65
 73
4
 40
50.7999999999999972
 49
31.75
 74
0
 49
-6.3499999999999996
 74
0
 49
6.3499999999999996
 74
0
 49
-6.3499999999999996
 74
0
  0
LTYPE
  5
3E
100
AcDbSymbolTableRecord
100
AcDbLinetypeTableRecord
  2
CENTER2
 70
0
  3
Center (.5x) ___ _ ___ _ ___ _ ___ _ ___ _ ___
 72
65
 73
4
 40
28.5749999999999993
 49
19.0500000000000007
 74
0
 49
-3.1749999999999998
 74
0
 49
3.1749999999999998
 74
0
 49
-3.1749999999999998
 74
0
  0
LTYPE
  5
3F
100
AcDbSymbolTableRecord
100
AcDbLinetypeTableRecord
  2
CENTERX2
 70
0
  3
Center (2x) ________  __  ________  __  _____
 72
65
 73
4
 40
101.5999999999999943
 49
63.5
 74
0
 49
-12.6999999999999993
 74
0
 49
12.6999999999999993
 74
0
 49
-12.6999999999999993
 74
0
  0
LTYPE
  5
40
100
AcDbSymbolTableRecord
100
AcDbLinetypeTableRecord
  2
BORDER
 70
0
  3
Border __ __ . __ __ . __ __ . __ __ . __ __ .
 72
65
 73
6
 40
44.4500000000000028
 49
12.6999999999999993
 74
0
 49
-6.3499999999999996
 74
0
 49
12.6999999999999993
 74
0
 49
-6.3499999999999996
 74
0
 49
0.0
 74
0
 49
-6.3499999999999996
 74
0
  0
LTYPE
  5
41
100
AcDbSymbolTableRecord
100
AcDbLinetypeTableRecord
  2
BORDER2
 70
0
  3
Border (.5x) __.__.__.__.__.__.__.__.__.__.__.
 72
65
 73
6
 40
22.2250000000000014
 49
6.3499999999999996
 74
0
 49
-3.1749999999999998
 74
0
 49
6.3499999999999996
 74
0
 49
-3.1749999999999998
 74
0
 49
0.0
 74
0
 49
-3.1749999999999998
 74
0
  0
LTYPE
  5
42
100
AcDbSymbolTableRecord
100
AcDbLinetypeTableRecord
  2
BORDERX2
 70
0
  3
Border (2x) ____  ____  .  ____  ____  .  ___
 72
65
 73
6
 40
88.9000000000000057
 49
25.3999999999999986
 74
0
 49
-12.6999999999999993
 74
0
 49
25.3999999999999986
 74
0
 49
-12.6999999999999993
 74
0
 49
0.0
 74
0
 49
-12.6999999999999993
 74
0
  0
ENDTAB
  0
TABLE
  2
LAYER
  5
2
100
AcDbSymbolTable
 70
19
  0
LAYER
  5
10
100
AcDbSymbolTableRecord
100
AcDbLayerTableRecord
  2
0
 70
0
 62
7
  6
CONTINUOUS
370
0
390
F
  0
LAYER
  5
43
100
AcDbSymbolTableRecord
100
AcDbLayerTableRecord
  2
Base Drawings
 70
1
 62
-4
  6
CONTINUOUS
370
0
390
F
  0
LAYER
  5
44
100
AcDbSymbolTableRecord
100
AcDbLayerTableRecord
  2
Base
 70
1
 62
-1
  6
CONTINUOUS
370
0
390
F
  0
LAYER
  5
45
100
AcDbSymbolTableRecord
100
AcDbLayerTableRecord
  2
Base Text
 70
1
 62
-4
  6
CONTINUOUS
370
0
390
F
  0
LAYER
  5
46
100
AcDbSymbolTableRecord
100
AcDbLayerTableRecord
  2
X Rails
 70
1
 62
-81
  6
CONTINUOUS
370
0
390
F
  0
LAYER
  5
47
100
AcDbSymbolTableRecord
100
AcDbLayerTableRecord
  2
X Stage
 70
1
 62
-3
  6
CONTINUOUS
370
0
390
F
  0
LAYER
  5
48
100
AcDbSymbolTableRecord
100
AcDbLayerTableRecord
  2
Y Rails
 70
1
 62
-171
  6
CONTINUOUS
370
0
390
F
  0
LAYER
  5
49
100
AcDbSymbolTableRecord
100
AcDbLayerTableRecord
  2
Y Stage
 70
1
 62
-5
  6
CONTINUOUS
370
0
390
F
  0
LAYER
  5
4A
100
AcDbSymbolTableRecord
100
AcDbLayerTableRecord
  2
Y Drawings
 70
1
 62
-4
  6
CONTINUOUS
370
0
390
F
  0
LAYER
  5
4B
100
AcDbSymbolTableRecord
100
AcDbLayerTableRecord
  2
X Drive
 70
1
 62
-76
  6
CONTINUOUS
370
0
390
F
  0
LAYER
  5
4C
100
AcDbSymbolTableRecord
100
AcDbLayerTableRecord
  2
Y Drive
 70
1
 62
-166
  6
CONTINUOUS
370
0
390
F
  0
LAYER
  5
4D
100
AcDbSymbolTableRecord
100
AcDbLayerTableRecord
  2
X Text
 70
1
 62
-81
  6
CONTINUOUS
370
0
390
F
  0
LAYER
  5
4E
100
AcDbSymbolTableRecord
100
AcDbLayerTableRecord
  2
Y Text
 70
1
 62
-171
  6
CONTINUOUS
370
0
390
F
  0
LAYER
  5
4F
100
AcDbSymbolTableRecord
100
AcDbLayerTableRecord
  2
Base Measurements
 70
1
 62
-2
  6
CONTINUOUS
370
0
390
F
  0
LAYER
  5
50
100
AcDbSymbolTableRecord
100
AcDbLayerTableRecord
  2
X Measurements
 70
1
 62
-2
  6
CONTINUOUS
370
0
390
F
  0
LAYER
  5
51
100
AcDbSymbolTableRecord
100
AcDbLayerTableRecord
  2
X Drawings
 70
1
 62
-4
  6
CONTINUOUS
370
0
390
F
  0
LAYER
  5
52
100
AcDbSymbolTableRecord
100
AcDbLayerTableRecord
  2
Y Measurements
 70
1
 62
-2
  6
CONTINUOUS
370
0
390
F
  0
LAYER
  5
53
100
AcDbSymbolTableRecord
100
AcDbLayerTableRecord
  2
Opto Endstop
 70
1
 62
-7
  6
CONTINUOUS
370
0
390
F
  0
LAYER
  5
54
100
AcDbSymbolTableRecord
100
AcDbLayerTableRecord
  2
Steel Pipes
 70
1
 62
-6
  6
CONTINUOUS
370
0
390
F
  0
ENDTAB
  0
TABLE
  2
STYLE
  5
3
100
AcDbSymbolTable
 70
1
  0
STYLE
  5
11
100
AcDbSymbolTableRecord
100
AcDbTextStyleTableRecord
  2
Standard
 70
0
 40
0.0
 41
0.75
 50
0.0
 71
0
 42
2.5
  3
txt
  4

  0
ENDTAB
  0
TABLE
  2
VIEW
  5
6
100
AcDbSymbolTable
 70
0
  0
ENDTAB
  0
TABLE
  2
UCS
  5
7
100
AcDbSymbolTable
 70
0
  0
ENDTAB
  0
TABLE
  2
APPID
  5
9
100
AcDbSymbolTable
 70
1
  0
APPID
  5
12
100
AcDbSymbolTableRecord
100
AcDbRegAppTableRecord
  2
ACAD
 70
0
  0
ENDTAB
  0
TABLE
  2
DIMSTYLE
  5
A
100
AcDbSymbolTable
 70
1
100
AcDbDimStyleTable
 71
0
  0
DIMSTYLE
105
27
100
AcDbSymbolTableRecord
100
AcDbDimStyleTableRecord
  2
Standard
 41
2.5
 42
0.625
 43
3.75
 44
1.25
 70
0
 73
0
 74
0
 77
1
 78
8
140
2.5
141
2.5
143
0.03937007874016
147
0.625
171
3
172
1
271
2
272
2
274
3
278
44
283
0
284
8
340
11
  0
ENDTAB
  0
TABLE
  2
BLOCK_RECORD
  5
1
100
AcDbSymbolTable
 70
1
  0
BLOCK_RECORD
  5
1F
100
AcDbSymbolTableRecord
100
AcDbBlockTableRecord
  2
*Model_Space
340
22
  0
BLOCK_RECORD
  5
1B
100
AcDbSymbolTableRecord
100
AcDbBlockTableRecord
  2
*Paper_Space
340
1E
  0
BLOCK_RECORD
  5
23
100
AcDbSymbolTableRecord
100
AcDbBlockTableRecord
  2
*Paper_Space0
340
26
  0
ENDTAB
  0
ENDSEC
  0
SECTION
  2
BLOCKS
  0
BLOCK
  5
20
100
AcDbEntity
  8
0
100
AcDbBlockBegin
  2
*Model_Space
 70
0
 10
0.0
 20
0.0
 30
0.0
  3
*Model_Space
  1

  0
ENDBLK
  5
21
100
AcDbEntity
  8
0
100
AcDbBlockEnd
  0
BLOCK
  5
1C
100
AcDbEntity
 67
1
  8
0
100
AcDbBlockBegin
  2
*Paper_Space
 70
0
 10
0.0
 20
0.0
 30
0.0
  3
*Paper_Space
  1

  0
ENDBLK
  5
1D
100
AcDbEntity
 67
1
  8
0
100
AcDbBlockEnd
  0
BLOCK
  5
24
100
AcDbEntity
  8
0
100
AcDbBlockBegin
  2
*Paper_Space0
 70
0
 10
0.0
 20
0.0
 30
0.0
  3
*Paper_Space0
  1

  0
ENDBLK
  5
25
100
AcDbEntity
  8
0
100
AcDbBlockEnd
  0
ENDSEC
  0
SECTION
  2
ENTITIES
  0
POINT
  5
55
100
AcDbEntity
100
AcDbPoint
  8
Base
 62
256
370
-1
  6
ByLayer
 10
0.0
 20
140.0
 30
0.0
  0
LINE
  5
56
100
AcDbEntity
100
AcDbLine
  8
Y Drawings
 62
256
370
-1
  6
ByLayer
 10
19.5249999999999986
 20
30.0000000000000036
 30
0.0
 11
19.5249999999999986
 21
30.0000000000000036
 31
0.0
  0
LINE
  5
57
100
AcDbEntity
100
AcDbLine
  8
X Rails
 62
256
370
-1
  6
ByLayer
 10
0.0000000000000012
 20
-21.0
 30
0.0
 11
0.0000000000000058
 21
-1.9499999999999993
 31
0.0
  0
DIMENSION
  5
58
100
AcDbEntity
  8
Base Measurements
 62
256
370
-1
  6
ByLayer
100
AcDbDimension
 10
270.0
 20
-30.0
 30
0.0
 11
135.0
 21
-28.125
 31
0.0
 70
0
 71
5
 72
1
 41
1.0
 42
0.0
  1

  3
Standard
100
AcDbAlignedDimension
 13
0.0
 23
-11.0
 33
0.0
 14
270.0
 24
-11.0
 34
0.0
 50
0.0
100
AcDbRotatedDimension
  0
ARC
  5
59
100
AcDbEntity
  8
X Stage
 62
256
370
-1
  6
ByLayer
100
AcDbCircle
 10
10.0
 20
-30.0
 30
0.0
 40
10.0
100
AcDbArc
 50
180.0
 51
270.0
  0
ARC
  5
5A
100
AcDbEntity
  8
X Stage
 62
256
370
-1
  6
ByLayer
100
AcDbCircle
 10
260.0
 20
-30.0
 30
0.0
 40
10.0
100
AcDbArc
 50
270.0
 51
0.0
  0
LINE
  5
5B
100
AcDbEntity
100
AcDbLine
  8
X Stage
 62
256
370
-1
  6
ByLayer
 10
260.0
 20
-40.0
 30
0.0
 11
9.9999999999999982
 21
-40.0
 31
0.0
  0
ARC
  5
5C
100
AcDbEntity
  8
X Stage
 62
256
370
-1
  6
ByLayer
100
AcDbCircle
 10
10.0
 20
150.0
 30
0.0
 40
10.0
100
AcDbArc
 50
90.0
 51
180.0
  0
ARC
  5
5D
100
AcDbEntity
  8
X Stage
 62
256
370
-1
  6
ByLayer
100
AcDbCircle
 10
260.0
 20
150.0
 30
0.0
 40
10.0
100
AcDbArc
 50
0.0
 51
90.0
  0
LINE
  5
5E
100
AcDbEntity
100
AcDbLine
  8
X Stage
 62
256
370
-1
  6
ByLayer
 10
10.0
 20
160.0
 30
0.0
 11
260.0
 21
160.0
 31
0.0
  0
LINE
  5
5F
100
AcDbEntity
100
AcDbLine
  8
X Stage
 62
256
370
-1
  6
ByLayer
 10
0.0
 20
150.0
 30
0.0
 11
-0.0000000000000001
 21
-30.625
 31
0.0
  0
LINE
  5
60
100
AcDbEntity
100
AcDbLine
  8
X Stage
 62
256
370
-1
  6
ByLayer
 10
270.0
 20
150.0
 30
0.0
 11
270.0
 21
-30.0
 31
0.0
  0
LINE
  5
61
100
AcDbEntity
100
AcDbLine
  8
X Rails
 62
256
370
-1
  6
ByLayer
 10
0.0000000000000018
 20
-21.0
 30
0.0
 11
0.0000000000000018
 21
-40.0499999999999972
 31
0.0
  0
LINE
  5
62
100
AcDbEntity
100
AcDbLine
  8
X Rails
 62
256
370
-1
  6
ByLayer
 10
0.0
 20
-40.0500000000000043
 30
0.0
 11
270.0
 21
-40.0500000000000043
 31
0.0
  0
LINE
  5
63
100
AcDbEntity
100
AcDbLine
  8
X Rails
 62
256
370
-1
  6
ByLayer
 10
270.0
 20
-1.9499999999999993
 30
0.0
 11
270.0
 21
-21.0
 31
0.0
  0
LINE
  5
64
100
AcDbEntity
100
AcDbLine
  8
X Rails
 62
256
370
-1
  6
ByLayer
 10
270.0
 20
-21.0
 30
0.0
 11
270.0
 21
-40.0500000000000043
 31
0.0
  0
LINE
  5
65
100
AcDbEntity
100
AcDbLine
  8
Base Drawings
 62
256
370
-1
  6
ByLayer
 10
20.0
 20
-21.0000000000000036
 30
0.0
 11
20.0000000000000071
 21
-1.9500000000000042
 31
0.0
  0
LINE
  5
66
100
AcDbEntity
100
AcDbLine
  8
Base Drawings
 62
256
370
-1
  6
ByLayer
 10
250.0
 20
-1.949999999999992
 30
0.0
 11
250.0
 21
-20.9999999999999929
 31
0.0
  0
DIMENSION
  5
67
100
AcDbEntity
  8
X Measurements
 62
256
370
-1
  6
ByLayer
100
AcDbDimension
 10
280.0
 20
-40.0
 30
0.0
 11
278.125
 21
60.0
 31
0.0
 70
0
 71
5
 72
1
 41
1.0
 42
0.0
  1

  3
Standard
100
AcDbAlignedDimension
 13
260.0
 23
160.0
 33
0.0
 14
260.0
 24
-40.0
 34
0.0
 50
90.0
100
AcDbRotatedDimension
  0
DIMENSION
  5
68
100
AcDbEntity
  8
X Measurements
 62
256
370
-1
  6
ByLayer
100
AcDbDimension
 10
270.0
 20
-50.0
 30
0.0
 11
135.0
 21
-48.125
 31
0.0
 70
0
 71
5
 72
1
 41
1.0
 42
0.0
  1

  3
Standard
100
AcDbAlignedDimension
 13
0.0
 23
-30.0
 33
0.0
 14
270.0
 24
-30.0
 34
0.0
 50
0.0
100
AcDbRotatedDimension
  0
LINE
  5
69
100
AcDbEntity
100
AcDbLine
  8
X Drawings
 62
256
370
-1
  6
ByLayer
 10
0.0000000000000006
 20
-30.5250000000000057
 30
0.0
 11
270.0
 21
-30.5250000000000057
 31
0.0
  0
LINE
  5
6A
100
AcDbEntity
100
AcDbLine
  8
X Rails
 62
256
370
-1
  6
ByLayer
 10
0.0000000000000487
 20
140.0
 30
0.0
 11
0.000000000000044
 21
120.9499999999999886
 31
0.0
  0
LINE
  5
6B
100
AcDbEntity
100
AcDbLine
  8
X Rails
 62
256
370
-1
  6
ByLayer
 10
270.0
 20
140.0
 30
0.0
 11
270.0
 21
120.9499999999999886
 31
0.0
  0
LINE
  5
6C
100
AcDbEntity
100
AcDbLine
  8
Base Drawings
 62
256
370
-1
  6
ByLayer
 10
20.0000000000000497
 20
140.0
 30
0.0
 11
20.0000000000000426
 21
120.9499999999999886
 31
0.0
  0
LINE
  5
6D
100
AcDbEntity
100
AcDbLine
  8
Base Drawings
 62
256
370
-1
  6
ByLayer
 10
250.0
 20
140.0
 30
0.0
 11
250.0
 21
120.9500000000000028
 31
0.0
  0
DIMENSION
  5
6E
100
AcDbEntity
  8
Base Measurements
 62
256
370
-1
  6
ByLayer
100
AcDbDimension
 10
290.0
 20
-11.4750000000000014
 30
0.0
 11
288.125
 21
59.5
 31
0.0
 70
0
 71
5
 72
1
 41
1.0
 42
0.0
  1

  3
Standard
100
AcDbAlignedDimension
 13
270.0
 23
130.4749999999999943
 33
0.0
 14
270.0
 24
-11.4749999999999996
 34
0.0
 50
90.0
100
AcDbRotatedDimension
  0
LINE
  5
6F
100
AcDbEntity
100
AcDbLine
  8
Base Drawings
 62
256
370
-1
  6
ByLayer
 10
270.0
 20
59.5
 30
0.0
 11
0.0000000000000339
 21
59.5
 31
0.0
  0
LINE
  5
70
100
AcDbEntity
100
AcDbLine
  8
X Drive
 62
256
370
-1
  6
ByLayer
 10
-0.0000000000000231
 20
62.6749999999999972
 30
0.0
 11
270.0
 21
62.6749999999999972
 31
0.0
  0
LINE
  5
71
100
AcDbEntity
100
AcDbLine
  8
X Drive
 62
256
370
-1
  6
ByLayer
 10
-0.0000000000000231
 20
59.5
 30
0.0
 11
270.0
 21
59.5
 31
0.0
  0
LINE
  5
72
100
AcDbEntity
100
AcDbLine
  8
X Drive
 62
256
370
-1
  6
ByLayer
 10
-0.0000000000000231
 20
56.3250000000000028
 30
0.0
 11
270.0
 21
56.3250000000000028
 31
0.0
  0
LINE
  5
73
100
AcDbEntity
100
AcDbLine
  8
X Drive
 62
256
370
-1
  6
ByLayer
 10
270.0
 20
56.3250000000000028
 30
0.0
 11
270.0
 21
62.6749999999999972
 31
0.0
  0
CIRCLE
  5
74
100
AcDbEntity
100
AcDbCircle
  8
Base
 62
256
370
-1
  6
ByLayer
 10
259.9999999999999432
 20
34.5000000000000142
 30
0.0
 40
2.0
  0
CIRCLE
  5
75
100
AcDbEntity
100
AcDbCircle
  8
Base
 62
256
370
-1
  6
ByLayer
 10
259.9999999999999432
 20
84.5000000000000142
 30
0.0
 40
2.0
  0
LINE
  5
76
100
AcDbEntity
100
AcDbLine
  8
Base Drawings
 62
256
370
-1
  6
ByLayer
 10
269.9999999999999432
 20
84.5
 30
0.0
 11
259.9999999999999432
 21
84.5000000000000142
 31
0.0
  0
LINE
  5
77
100
AcDbEntity
100
AcDbLine
  8
Base Drawings
 62
256
370
-1
  6
ByLayer
 10
269.9999999999999432
 20
34.5
 30
0.0
 11
259.9999999999999432
 21
34.5
 31
0.0
  0
LINE
  5
78
100
AcDbEntity
100
AcDbLine
  8
X Drive
 62
256
370
-1
  6
ByLayer
 10
-0.0000000000000231
 20
62.6749999999999972
 30
0.0
 11
-0.0000000000000231
 21
56.3250000000000028
 31
0.0
  0
ARC
  5
79
100
AcDbEntity
  8
Y Stage
 62
256
370
-1
  6
ByLayer
100
AcDbCircle
 10
10.0
 20
150.0
 30
0.0
 40
10.0
100
AcDbArc
 50
90.0
 51
180.0
  0
LINE
  5
7A
100
AcDbEntity
100
AcDbLine
  8
Y Stage
 62
256
370
-1
  6
ByLayer
 10
10.0
 20
160.0
 30
0.0
 11
260.0
 21
160.0
 31
0.0
  0
ARC
  5
7B
100
AcDbEntity
  8
Y Stage
 62
256
370
-1
  6
ByLayer
100
AcDbCircle
 10
260.0
 20
150.0
 30
0.0
 40
10.0
100
AcDbArc
 50
0.0
 51
90.0
  0
LINE
  5
7C
100
AcDbEntity
100
AcDbLine
  8
Y Stage
 62
256
370
-1
  6
ByLayer
 10
270.0
 20
150.0
 30
0.0
 11
270.0
 21
-30.0
 31
0.0
  0
ARC
  5
7D
100
AcDbEntity
  8
Y Stage
 62
256
370
-1
  6
ByLayer
100
AcDbCircle
 10
260.0
 20
-30.0
 30
0.0
 40
10.0
100
AcDbArc
 50
270.0
 51
0.0
  0
LINE
  5
7E
100
AcDbEntity
100
AcDbLine
  8
Y Stage
 62
256
370
-1
  6
ByLayer
 10
-0.0000000000000006
 20
150.0
 30
0.0
 11
-0.0000000000000116
 21
-30.0
 31
0.0
  0
LINE
  5
7F
100
AcDbEntity
100
AcDbLine
  8
Y Stage
 62
256
370
-1
  6
ByLayer
 10
9.9999999999999876
 20
-40.0
 30
0.0
 11
260.0
 21
-40.0
 31
0.0
  0
ARC
  5
80
100
AcDbEntity
  8
Y Stage
 62
256
370
-1
  6
ByLayer
100
AcDbCircle
 10
9.9999999999999876
 20
-30.0
 30
0.0
 40
10.0
100
AcDbArc
 50
180.0
 51
270.0
  0
LINE
  5
81
100
AcDbEntity
100
AcDbLine
  8
Y Rails
 62
256
370
-1
  6
ByLayer
 10
0.0000000000000006
 20
160.0
 30
0.0
 11
-0.0000000000000113
 21
-40.0
 31
0.0
  0
LINE
  5
82
100
AcDbEntity
100
AcDbLine
  8
Y Rails
 62
256
370
-1
  6
ByLayer
 10
0.0000000000000006
 20
160.0
 30
0.0
 11
19.5249999999999986
 21
160.0
 31
0.0
  0
LINE
  5
83
100
AcDbEntity
100
AcDbLine
  8
Y Rails
 62
256
370
-1
  6
ByLayer
 10
19.5249999999999986
 20
160.0
 30
0.0
 11
39.0499999999999972
 21
160.0
 31
0.0
  0
LINE
  5
84
100
AcDbEntity
100
AcDbLine
  8
Y Rails
 62
256
370
-1
  6
ByLayer
 10
-0.0000000000000113
 20
-40.0
 30
0.0
 11
19.5249999999999879
 21
-40.0
 31
0.0
  0
LINE
  5
85
100
AcDbEntity
100
AcDbLine
  8
Y Rails
 62
256
370
-1
  6
ByLayer
 10
230.4749999999999943
 20
160.0
 30
0.0
 11
250.0
 21
160.0
 31
0.0
  0
LINE
  5
86
100
AcDbEntity
100
AcDbLine
  8
Y Drawings
 62
256
370
-1
  6
ByLayer
 10
230.4749999999999943
 20
150.0
 30
0.0
 11
250.0
 21
150.0
 31
0.0
  0
LINE
  5
87
100
AcDbEntity
100
AcDbLine
  8
Y Drawings
 62
256
370
-1
  6
ByLayer
 10
230.4749999999999943
 20
-30.0
 30
0.0
 11
250.0
 21
-30.0
 31
0.0
  0
LINE
  5
88
100
AcDbEntity
100
AcDbLine
  8
Y Drawings
 62
256
370
-1
  6
ByLayer
 10
230.4749999999999943
 20
30.0
 30
0.0
 11
250.0
 21
30.0
 31
0.0
  0
LINE
  5
89
100
AcDbEntity
100
AcDbLine
  8
Y Drawings
 62
256
370
-1
  6
ByLayer
 10
230.4749999999999943
 20
90.0
 30
0.0
 11
250.0
 21
90.0
 31
0.0
  0
LINE
  5
8A
100
AcDbEntity
100
AcDbLine
  8
Y Drawings
 62
256
370
-1
  6
ByLayer
 10
240.4749999999999943
 20
160.0
 30
0.0
 11
240.4749999999999943
 21
-40.0
 31
0.0
  0
CIRCLE
  5
8B
100
AcDbEntity
100
AcDbCircle
  8
X Stage
 62
256
370
-1
  6
ByLayer
 10
240.4749999999999943
 20
150.0
 30
0.0
 40
2.0
  0
CIRCLE
  5
8C
100
AcDbEntity
100
AcDbCircle
  8
X Stage
 62
256
370
-1
  6
ByLayer
 10
240.4749999999999943
 20
90.0
 30
0.0
 40
2.0
  0
CIRCLE
  5
8D
100
AcDbEntity
100
AcDbCircle
  8
X Stage
 62
256
370
-1
  6
ByLayer
 10
240.4749999999999943
 20
29.9999999999999716
 30
0.0
 40
2.0
  0
CIRCLE
  5
8E
100
AcDbEntity
100
AcDbCircle
  8
X Stage
 62
256
370
-1
  6
ByLayer
 10
240.4749999999999943
 20
-30.0
 30
0.0
 40
2.0
  0
LINE
  5
8F
100
AcDbEntity
100
AcDbLine
  8
Y Drawings
 62
256
370
-1
  6
ByLayer
 10
29.0499999999999972
 20
160.0
 30
0.0
 11
29.0499999999999901
 21
-40.0
 31
0.0
  0
LINE
  5
90
100
AcDbEntity
100
AcDbLine
  8
Y Drawings
 62
256
370
-1
  6
ByLayer
 10
9.9999999999999982
 20
160.0
 30
0.0
 11
9.9999999999999876
 21
-40.0
 31
0.0
  0
LINE
  5
91
100
AcDbEntity
100
AcDbLine
  8
Y Drawings
 62
256
370
-1
  6
ByLayer
 10
19.524999999999995
 20
150.0
 30
0.0
 11
39.0499999999999972
 21
150.0
 31
0.0
  0
LINE
  5
92
100
AcDbEntity
100
AcDbLine
  8
Y Drawings
 62
256
370
-1
  6
ByLayer
 10
39.0499999999999829
 20
-30.0
 30
0.0
 11
19.5249999999999915
 21
-30.0
 31
0.0
  0
LINE
  5
93
100
AcDbEntity
100
AcDbLine
  8
Y Drawings
 62
256
370
-1
  6
ByLayer
 10
19.5249999999999844
 20
90.0
 30
0.0
 11
39.0499999999999829
 21
90.0
 31
0.0
  0
LINE
  5
94
100
AcDbEntity
100
AcDbLine
  8
Y Drawings
 62
256
370
-1
  6
ByLayer
 10
39.0500000000000043
 20
30.0
 30
0.0
 11
19.5250000000000092
 21
30.0
 31
0.0
  0
CIRCLE
  5
95
100
AcDbEntity
100
AcDbCircle
  8
X Stage
 62
256
370
-1
  6
ByLayer
 10
29.0499999999999972
 20
150.0
 30
0.0
 40
2.0
  0
CIRCLE
  5
96
100
AcDbEntity
100
AcDbCircle
  8
X Stage
 62
256
370
-1
  6
ByLayer
 10
29.0499999999999972
 20
90.0
 30
0.0
 40
2.0
  0
CIRCLE
  5
97
100
AcDbEntity
100
AcDbCircle
  8
X Stage
 62
256
370
-1
  6
ByLayer
 10
29.0499999999999936
 20
30.0
 30
0.0
 40
2.0
  0
CIRCLE
  5
98
100
AcDbEntity
100
AcDbCircle
  8
X Stage
 62
256
370
-1
  6
ByLayer
 10
29.0499999999999901
 20
-30.0
 30
0.0
 40
2.0
  0
LINE
  5
99
100
AcDbEntity
100
AcDbLine
  8
X Drawings
 62
256
370
-1
  6
ByLayer
 10
9.5250000000000021
 20
-21.0000000000000036
 30
0.0
 11
9.5250000000000021
 21
-40.0499999999999972
 31
0.0
  0
LINE
  5
9A
100
AcDbEntity
100
AcDbLine
  8
X Drawings
 62
256
370
-1
  6
ByLayer
 10
260.0
 20
-20.9999999999999964
 30
0.0
 11
260.0
 21
-40.0499999999999972
 31
0.0
  0
CIRCLE
  5
9B
100
AcDbEntity
100
AcDbCircle
  8
X Stage
 62
256
370
-1
  6
ByLayer
 10
260.0
 20
-30.5250000000000057
 30
0.0
 40
2.0
  0
CIRCLE
  5
9C
100
AcDbEntity
100
AcDbCircle
  8
X Stage
 62
256
370
-1
  6
ByLayer
 10
9.5250000000000021
 20
-30.5250000000000057
 30
0.0
 40
2.0
  0
LINE
  5
9D
100
AcDbEntity
100
AcDbLine
  8
X Drawings
 62
256
370
-1
  6
ByLayer
 10
93.0250000000000057
 20
-21.0000000000000249
 30
0.0
 11
93.0250000000000057
 21
-40.0500000000000185
 31
0.0
  0
LINE
  5
9E
100
AcDbEntity
100
AcDbLine
  8
X Drawings
 62
256
370
-1
  6
ByLayer
 10
176.5
 20
-20.9999999999999645
 30
0.0
 11
176.5
 21
-40.0499999999999687
 31
0.0
  0
CIRCLE
  5
9F
100
AcDbEntity
100
AcDbCircle
  8
X Stage
 62
256
370
-1
  6
ByLayer
 10
176.5
 20
-30.5250000000000057
 30
0.0
 40
2.0
  0
CIRCLE
  5
A0
100
AcDbEntity
100
AcDbCircle
  8
X Stage
 62
256
370
-1
  6
ByLayer
 10
93.0250000000000199
 20
-30.5250000000000057
 30
0.0
 40
2.0
  0
LINE
  5
A1
100
AcDbEntity
100
AcDbLine
  8
Y Drawings
 62
256
370
-1
  6
ByLayer
 10
134.7624999999999886
 20
159.9999999999999716
 30
0.0
 11
134.7624999999999886
 21
-40.0000000000000213
 31
0.0
  0
LINE
  5
A2
100
AcDbEntity
100
AcDbLine
  8
Y Drive
 62
256
370
-1
  6
ByLayer
 10
131.5874999999999773
 20
-40.0
 30
0.0
 11
131.5874999999999773
 21
159.9999999999999716
 31
0.0
  0
LINE
  5
A3
100
AcDbEntity
100
AcDbLine
  8
Y Drive
 62
256
370
-1
  6
ByLayer
 10
134.7624999999999886
 20
-40.0
 30
0.0
 11
134.7624999999999886
 21
159.9999999999999716
 31
0.0
  0
LINE
  5
A4
100
AcDbEntity
100
AcDbLine
  8
Y Drive
 62
256
370
-1
  6
ByLayer
 10
137.9375
 20
-40.0
 30
0.0
 11
137.9375
 21
159.9999999999999716
 31
0.0
  0
DIMENSION
  5
A5
100
AcDbEntity
  8
Y Measurements
 62
256
370
-1
  6
ByLayer
100
AcDbDimension
 10
-0.0000000000000137
 20
-50.0
 30
0.0
 11
135.0
 21
-48.125
 31
0.0
 70
0
 71
5
 72
1
 41
1.0
 42
0.0
  1

  3
Standard
100
AcDbAlignedDimension
 13
270.0
 23
-30.0
 33
0.0
 14
-0.0000000000000124
 24
-30.0
 34
0.0
 50
0.0
100
AcDbRotatedDimension
  0
DIMENSION
  5
A6
100
AcDbEntity
  8
Y Measurements
 62
256
370
-1
  6
ByLayer
100
AcDbDimension
 10
280.0
 20
-40.0
 30
0.0
 11
278.125
 21
60.0
 31
0.0
 70
0
 71
5
 72
1
 41
1.0
 42
0.0
  1

  3
Standard
100
AcDbAlignedDimension
 13
260.0
 23
160.0
 33
0.0
 14
260.0
 24
-40.0
 34
0.0
 50
90.0
100
AcDbRotatedDimension
  0
LINE
  5
A7
100
AcDbEntity
100
AcDbLine
  8
Y Drawings
 62
256
370
-1
  6
ByLayer
 10
109.7624999999999886
 20
159.9999999999999716
 30
0.0
 11
109.7624999999999744
 21
150.0
 31
0.0
  0
LINE
  5
A8
100
AcDbEntity
100
AcDbLine
  8
Y Drawings
 62
256
370
-1
  6
ByLayer
 10
109.7624999999999744
 20
150.0
 30
0.0
 11
159.7624999999999886
 21
150.0
 31
0.0
  0
LINE
  5
A9
100
AcDbEntity
100
AcDbLine
  8
Y Drawings
 62
256
370
-1
  6
ByLayer
 10
159.7624999999999886
 20
159.9999999999999716
 30
0.0
 11
159.7624999999999886
 21
150.0
 31
0.0
  0
CIRCLE
  5
AA
100
AcDbEntity
100
AcDbCircle
  8
X Stage
 62
256
370
-1
  6
ByLayer
 10
159.7624999999999886
 20
150.0
 30
0.0
 40
2.0
  0
CIRCLE
  5
AB
100
AcDbEntity
100
AcDbCircle
  8
X Stage
 62
256
370
-1
  6
ByLayer
 10
109.7624999999999744
 20
150.0
 30
0.0
 40
2.0
  0
LINE
  5
AC
100
AcDbEntity
100
AcDbLine
  8
Y Drawings
 62
256
370
-1
  6
ByLayer
 10
-0.0000000000000031
 20
140.0
 30
0.0
 11
19.524999999999995
 21
140.0
 31
0.0
  0
LINE
  5
AD
100
AcDbEntity
100
AcDbLine
  8
Y Drawings
 62
256
370
-1
  6
ByLayer
 10
-0.00000000000001
 20
-20.0
 30
0.0
 11
19.5249999999999879
 21
-20.0
 31
0.0
  0
LINE
  5
AE
100
AcDbEntity
100
AcDbLine
  8
Y Drawings
 62
256
370
-1
  6
ByLayer
 10
-0.0000000000000132
 20
85.0
 30
0.0
 11
19.5249999999999844
 21
85.0
 31
0.0
  0
LINE
  5
AF
100
AcDbEntity
100
AcDbLine
  8
Y Drawings
 62
256
370
-1
  6
ByLayer
 10
-0.0000000000000067
 20
35.0
 30
0.0
 11
19.5249999999999915
 21
35.0
 31
0.0
  0
CIRCLE
  5
B0
100
AcDbEntity
100
AcDbCircle
  8
Y Stage
 62
256
370
-1
  6
ByLayer
 10
9.9999999999999982
 20
140.0
 30
0.0
 40
2.0
  0
CIRCLE
  5
B1
100
AcDbEntity
100
AcDbCircle
  8
Y Stage
 62
256
370
-1
  6
ByLayer
 10
9.9999999999999947
 20
84.9999999999999858
 30
0.0
 40
2.0
  0
CIRCLE
  5
B2
100
AcDbEntity
100
AcDbCircle
  8
Y Stage
 62
256
370
-1
  6
ByLayer
 10
9.9999999999999929
 20
35.0
 30
0.0
 40
2.0
  0
CIRCLE
  5
B3
100
AcDbEntity
100
AcDbCircle
  8
Y Stage
 62
256
370
-1
  6
ByLayer
 10
9.9999999999999893
 20
-20.0
 30
0.0
 40
2.0
  0
LINE
  5
B4
100
AcDbEntity
100
AcDbLine
  8
Y Drawings
 62
256
370
-1
  6
ByLayer
 10
9.9999999999999929
 20
120.0
 30
0.0
 11
79.0500000000000114
 21
120.0
 31
0.0
  0
LINE
  5
B5
100
AcDbEntity
100
AcDbLine
  8
Y Drawings
 62
256
370
-1
  6
ByLayer
 10
79.0499999999999972
 20
160.0
 30
0.0
 11
79.0500000000000114
 21
120.0
 31
0.0
  0
CIRCLE
  5
B6
100
AcDbEntity
100
AcDbCircle
  8
Y Stage
 62
256
370
-1
  6
ByLayer
 10
79.0500000000000114
 20
120.0
 30
0.0
 40
2.0
  0
LINE
  5
B7
100
AcDbEntity
100
AcDbLine
  8
X Stage
 62
256
370
-1
  6
ByLayer
 10
113.1750000000002814
 20
109.5
 30
0.0
 11
113.1750000000000114
 21
79.5
 31
0.0
  0
LINE
  5
B8
100
AcDbEntity
100
AcDbLine
  8
X Stage
 62
256
370
-1
  6
ByLayer
 10
106.8249999999997613
 20
109.5
 30
0.0
 11
106.8250000000000171
 21
79.5
 31
0.0
  0
LINE
  5
B9
100
AcDbEntity
100
AcDbLine
  8
X Drawings
 62
256
370
-1
  6
ByLayer
 10
-0.00000000000002
 20
109.5
 30
0.0
 11
113.1750000000002814
 21
109.5
 31
0.0
  0
LINE
  5
BA
100
AcDbEntity
100
AcDbLine
  8
X Drawings
 62
256
370
-1
  6
ByLayer
 10
-0.0000000000000219
 20
79.5
 30
0.0
 11
113.1749999999999972
 21
79.5
 31
0.0
  0
ARC
  5
BB
100
AcDbEntity
  8
X Stage
 62
256
370
-1
  6
ByLayer
100
AcDbCircle
 10
110.0000000000000142
 20
109.5
 30
0.0
 40
3.1749999999999998
100
AcDbArc
 50
0.0
 51
180.0
  0
ARC
  5
BC
100
AcDbEntity
  8
X Stage
 62
256
370
-1
  6
ByLayer
100
AcDbCircle
 10
110.0000000000000142
 20
79.5
 30
0.0
 40
3.1749999999999998
100
AcDbArc
 50
180.0
 51
0.0
  0
LINE
  5
BD
100
AcDbEntity
100
AcDbLine
  8
Y Stage
 62
256
370
-1
  6
ByLayer
 10
84.7624999999999886
 20
29.1750000000000007
 30
0.0
 11
114.7624999999999886
 21
29.1750000000000007
 31
0.0
  0
LINE
  5
BE
100
AcDbEntity
100
AcDbLine
  8
Y Stage
 62
256
370
-1
  6
ByLayer
 10
114.7624999999999886
 20
22.8250000000000028
 30
0.0
 11
84.7624999999999886
 21
22.8249999999999993
 31
0.0
  0
ARC
  5
BF
100
AcDbEntity
  8
Y Stage
 62
256
370
-1
  6
ByLayer
100
AcDbCircle
 10
84.7624999999999602
 20
26.0
 30
0.0
 40
3.1749999999999998
100
AcDbArc
 50
89.9999999999994884
 51
270.0000000000005116
  0
ARC
  5
C0
100
AcDbEntity
  8
Y Stage
 62
256
370
-1
  6
ByLayer
100
AcDbCircle
 10
114.7624999999999602
 20
26.0
 30
0.0
 40
3.1749999999999998
100
AcDbArc
 50
270.0000000000005116
 51
89.9999999999994884
  0
LINE
  5
C1
100
AcDbEntity
100
AcDbLine
  8
Y Drawings
 62
256
370
-1
  6
ByLayer
 10
84.7624999999999886
 20
29.1750000000000007
 30
0.0
 11
84.7624999999999886
 21
-40.0
 31
0.0
  0
LINE
  5
C2
100
AcDbEntity
100
AcDbLine
  8
Y Drawings
 62
256
370
-1
  6
ByLayer
 10
114.7624999999999886
 20
29.1750000000000007
 30
0.0
 11
114.7624999999999886
 21
-40.0000000000000142
 31
0.0
  0
LINE
  5
C3
100
AcDbEntity
100
AcDbLine
  8
Y Drawings
 62
256
370
-1
  6
ByLayer
 10
117.9374999999992326
 20
26.0
 30
0.0
 11
81.5874999999993236
 21
26.0
 31
0.0
  0
LINE
  5
C4
100
AcDbEntity
100
AcDbLine
  8
X Drawings
 62
256
370
-1
  6
ByLayer
 10
110.0
 20
112.6749999999999972
 30
0.0
 11
110.0
 21
76.3250000000000028
 31
0.0
  0
LINE
  5
C5
100
AcDbEntity
100
AcDbLine
  8
X Drawings
 62
256
370
-1
  6
ByLayer
 10
270.0
 20
38.0499999999999972
 30
0.0
 11
210.0
 21
38.0499999999999972
 31
0.0
  0
LINE
  5
C6
100
AcDbEntity
100
AcDbLine
  8
X Drawings
 62
256
370
-1
  6
ByLayer
 10
210.0
 20
38.0499999999999972
 30
0.0
 11
210.0
 21
-29.9999999999999787
 31
0.0
  0
CIRCLE
  5
C7
100
AcDbEntity
100
AcDbCircle
  8
X Stage
 62
256
370
-1
  6
ByLayer
 10
210.0
 20
38.0499999999999972
 30
0.0
 40
2.0
  0
MTEXT
  5
C8
100
AcDbEntity
100
AcDbMText
  8
Y Text
 62
256
370
-1
  6
ByLayer
 10
180.0
 20
70.0
 30
0.0
 40
7.0
 41
100.0
 71
5
 72
2
  1
"Y\~Stage"\PMcWire\~Cartesian\~Bot\~v.1.0\Pwww.RepRap.org\P
  7
standard
 50
0.0
 73
0
 44
1.0
  0
LINE
  5
C9
100
AcDbEntity
100
AcDbLine
  8
Opto Endstop
 62
256
370
-1
  6
ByLayer
 10
192.7972325012141539
 20
143.4390207100381929
 30
0.0
 11
192.7972325012141539
 21
124.3890207100381815
 31
0.0
  0
LINE
  5
CA
100
AcDbEntity
100
AcDbLine
  8
Opto Endstop
 62
256
370
-1
  6
ByLayer
 10
220.7372325012141516
 20
143.4390207100381929
 30
0.0
 11
220.7372325012141232
 21
124.3890207100381815
 31
0.0
  0
LINE
  5
CB
100
AcDbEntity
100
AcDbLine
  8
Opto Endstop
 62
256
370
-1
  6
ByLayer
 10
192.7972325012141539
 20
124.3890207100381815
 30
0.0
 11
220.7372325012141232
 21
124.3890207100381815
 31
0.0
  0
LINE
  5
CC
100
AcDbEntity
100
AcDbLine
  8
Opto Endstop
 62
256
370
-1
  6
ByLayer
 10
192.7972325012141539
 20
133.2790207100382247
 30
0.0
 11
220.7372325012141516
 21
133.2790207100381679
 31
0.0
  0
LINE
  5
CD
100
AcDbEntity
100
AcDbLine
  8
Opto Endstop
 62
256
370
-1
  6
ByLayer
 10
192.7972325012141255
 20
126.929020710038202
 30
0.0
 11
220.7372325012141232
 21
126.9290207100382304
 31
0.0
  0
LINE
  5
CE
100
AcDbEntity
100
AcDbLine
  8
Opto Endstop
 62
256
370
-1
  6
ByLayer
 10
205.1172325012141471
 20
133.2790207100381679
 30
0.0
 11
205.1172325012141471
 21
126.929020710038202
 31
0.0
  0
LINE
  5
CF
100
AcDbEntity
100
AcDbLine
  8
Opto Endstop
 62
256
370
-1
  6
ByLayer
 10
208.4172325012141584
 20
133.2790207100381679
 30
0.0
 11
208.4172325012141584
 21
126.9290207100381735
 31
0.0
  0
LINE
  5
D0
100
AcDbEntity
100
AcDbLine
  8
Opto Endstop
 62
256
370
-1
  6
ByLayer
 10
192.7972325012141539
 20
143.4390207100381929
 30
0.0
 11
220.7372325012141516
 21
143.4390207100381929
 31
0.0
  0
LINE
  5
D1
100
AcDbEntity
100
AcDbLine
  8
Opto Endstop
 62
256
370
-1
  6
ByLayer
 10
200.7672325012141243
 20
133.2790207100381679
 30
0.0
 11
200.7672325012140959
 21
126.929020710038202
 31
0.0
  0
LINE
  5
D2
100
AcDbEntity
100
AcDbLine
  8
Opto Endstop
 62
256
370
-1
  6
ByLayer
 10
212.7672325012141528
 20
133.2790207100381679
 30
0.0
 11
212.7672325012140959
 21
126.929020710038202
 31
0.0
  0
LINE
  5
D3
100
AcDbEntity
100
AcDbLine
  8
Opto Endstop
 62
256
370
-1
  6
ByLayer
 10
206.7672325012141812
 20
143.4390207100381929
 30
0.0
 11
216.7672325012141812
 21
143.4390207100381645
 31
0.0
  0
LINE
  5
D4
100
AcDbEntity
100
AcDbLine
  8
Opto Endstop
 62
256
370
-1
  6
ByLayer
 10
216.7672325012141812
 20
143.4390207100381645
 30
0.0
 11
216.7672325012141528
 21
140.1040207100381565
 31
0.0
  0
LINE
  5
D5
100
AcDbEntity
100
AcDbLine
  8
Opto Endstop
 62
256
370
-1
  6
ByLayer
 10
216.7672325012141528
 20
140.1040207100381565
 30
0.0
 11
206.7672325012141528
 21
140.1040207100381565
 31
0.0
  0
LINE
  5
D6
100
AcDbEntity
100
AcDbLine
  8
Opto Endstop
 62
256
370
-1
  6
ByLayer
 10
206.7672325012141528
 20
140.1040207100381565
 30
0.0
 11
206.7672325012141812
 21
143.4390207100381929
 31
0.0
  0
LINE
  5
D7
100
AcDbEntity
100
AcDbLine
  8
Opto Endstop
 62
256
370
-1
  6
ByLayer
 10
207.7672325012141812
 20
143.1040207100381849
 30
0.0
 11
215.7672325012141528
 21
143.1040207100382133
 31
0.0
  0
LINE
  5
D8
100
AcDbEntity
100
AcDbLine
  8
Opto Endstop
 62
256
370
-1
  6
ByLayer
 10
215.7672325012141528
 20
143.1040207100382133
 30
0.0
 11
215.7672325012141812
 21
146.1040207100381281
 31
0.0
  0
LINE
  5
D9
100
AcDbEntity
100
AcDbLine
  8
Opto Endstop
 62
256
370
-1
  6
ByLayer
 10
215.7672325012141812
 20
146.1040207100381281
 30
0.0
 11
207.7672325012141812
 21
146.1040207100382133
 31
0.0
  0
LINE
  5
DA
100
AcDbEntity
100
AcDbLine
  8
Opto Endstop
 62
256
370
-1
  6
ByLayer
 10
207.7672325012141812
 20
146.1040207100382133
 30
0.0
 11
207.7672325012141812
 21
143.1040207100381849
 31
0.0
  0
LINE
  5
DB
100
AcDbEntity
100
AcDbLine
  8
Opto Endstop
 62
256
370
-1
  6
ByLayer
 10
206.7672325012141243
 20
133.2790207100381679
 30
0.0
 11
206.7672325012141243
 21
126.929020710038202
 31
0.0
  0
CIRCLE
  5
DC
100
AcDbEntity
100
AcDbCircle
  8
X Stage
 62
256
370
-1
  6
ByLayer
 10
197.2422325012141755
 20
130.1040207100382133
 30
0.0
 40
1.7
  0
CIRCLE
  5
DD
100
AcDbEntity
100
AcDbCircle
  8
X Stage
 62
256
370
-1
  6
ByLayer
 10
216.29223250121413
 20
130.1040207100382133
 30
0.0
 40
1.7
  0
LINE
  5
DE
100
AcDbEntity
100
AcDbLine
  8
Y Stage
 62
256
370
-1
  6
ByLayer
 10
205.7672325012141243
 20
125.929020710038202
 30
0.0
 11
207.7672325012141243
 21
125.929020710038202
 31
0.0
  0
LINE
  5
DF
100
AcDbEntity
100
AcDbLine
  8
Y Stage
 62
256
370
-1
  6
ByLayer
 10
205.7672325012141528
 20
134.2790207100381963
 30
0.0
 11
205.7672325012141243
 21
125.929020710038202
 31
0.0
  0
LINE
  5
E0
100
AcDbEntity
100
AcDbLine
  8
Y Stage
 62
256
370
-1
  6
ByLayer
 10
205.7672325012141528
 20
134.2790207100381963
 30
0.0
 11
207.7672325012141243
 21
134.2790207100381963
 31
0.0
  0
LINE
  5
E1
100
AcDbEntity
100
AcDbLine
  8
Y Stage
 62
256
370
-1
  6
ByLayer
 10
207.7672325012141243
 20
134.2790207100381963
 30
0.0
 11
207.7672325012141243
 21
125.929020710038202
 31
0.0
  0
LINE
  5
E2
100
AcDbEntity
100
AcDbLine
  8
Y Drawings
 62
256
370
-1
  6
ByLayer
 10
99.7624999999999886
 20
160.0
 30
0.0
 11
99.7624999999999602
 21
140.0
 31
0.0
  0
LINE
  5
E3
100
AcDbEntity
100
AcDbLine
  8
Y Drawings
 62
256
370
-1
  6
ByLayer
 10
99.7624999999999602
 20
140.0
 30
0.0
 11
169.7624999999999886
 21
140.0
 31
0.0
  0
LINE
  5
E4
100
AcDbEntity
100
AcDbLine
  8
Y Drawings
 62
256
370
-1
  6
ByLayer
 10
169.7624999999999886
 20
159.9999999999999716
 30
0.0
 11
169.7624999999999886
 21
140.0
 31
0.0
  0
LINE
  5
E5
100
AcDbEntity
100
AcDbLine
  8
Base Drawings
 62
256
370
-1
  6
ByLayer
 10
269.9999999999999432
 20
94.5
 30
0.0
 11
249.9999999999999432
 21
94.5000000000000284
 31
0.0
  0
LINE
  5
E6
100
AcDbEntity
100
AcDbLine
  8
Base Drawings
 62
256
370
-1
  6
ByLayer
 10
249.9999999999999432
 20
94.5000000000000284
 30
0.0
 11
249.9999999999999432
 21
24.5000000000000142
 31
0.0
  0
LINE
  5
E7
100
AcDbEntity
100
AcDbLine
  8
Base Drawings
 62
256
370
-1
  6
ByLayer
 10
269.9999999999999432
 20
24.5
 30
0.0
 11
249.9999999999999432
 21
24.5000000000000142
 31
0.0
  0
LINE
  5
E8
100
AcDbEntity
100
AcDbLine
  8
Base Drawings
 62
256
370
-1
  6
ByLayer
 10
113.7624999999999886
 20
159.9999999999999716
 30
0.0
 11
155.7624999999999886
 21
159.9999999999999716
 31
0.0
  0
LINE
  5
E9
100
AcDbEntity
100
AcDbLine
  8
Base Drawings
 62
256
370
-1
  6
ByLayer
 10
155.7624999999999886
 20
159.9999999999999716
 30
0.0
 11
155.7624999999999886
 21
207.9999999999999716
 31
0.0
  0
LINE
  5
EA
100
AcDbEntity
100
AcDbLine
  8
Base Drawings
 62
256
370
-1
  6
ByLayer
 10
155.7624999999999886
 20
207.9999999999999716
 30
0.0
 11
113.7624999999999886
 21
207.9999999999999716
 31
0.0
  0
LINE
  5
EB
100
AcDbEntity
100
AcDbLine
  8
Base Drawings
 62
256
370
-1
  6
ByLayer
 10
113.7624999999999886
 20
207.9999999999999716
 30
0.0
 11
113.7624999999999886
 21
159.9999999999999716
 31
0.0
  0
LINE
  5
EC
100
AcDbEntity
100
AcDbLine
  8
Base Drawings
 62
256
370
-1
  6
ByLayer
 10
270.0
 20
80.5
 30
0.0
 11
270.0
 21
38.5
 31
0.0
  0
LINE
  5
ED
100
AcDbEntity
100
AcDbLine
  8
Base Drawings
 62
256
370
-1
  6
ByLayer
 10
270.0
 20
38.5
 30
0.0
 11
318.0
 21
38.5
 31
0.0
  0
LINE
  5
EE
100
AcDbEntity
100
AcDbLine
  8
Base Drawings
 62
256
370
-1
  6
ByLayer
 10
318.0
 20
38.5
 30
0.0
 11
318.0
 21
80.5
 31
0.0
  0
LINE
  5
EF
100
AcDbEntity
100
AcDbLine
  8
Base Drawings
 62
256
370
-1
  6
ByLayer
 10
318.0
 20
80.5
 30
0.0
 11
270.0
 21
80.5
 31
0.0
  0
CIRCLE
  5
F0
100
AcDbEntity
100
AcDbCircle
  8
X Drawings
 62
256
370
-1
  6
ByLayer
 10
210.0
 20
38.0499999999999972
 30
0.0
 40
10.0
  0
CIRCLE
  5
F1
100
AcDbEntity
100
AcDbCircle
  8
Y Drawings
 62
256
370
-1
  6
ByLayer
 10
79.0500000000000114
 20
120.0
 30
0.0
 40
10.0
  0
MTEXT
  5
F2
100
AcDbEntity
100
AcDbMText
  8
Base Text
 62
256
370
-1
  6
ByLayer
 10
200.6803718505414054
 20
271.1666666666666288
 30
0.0
 40
7.0
 41
100.0
 71
5
 72
2
  1
'Horizontal\~Base\~Plate'\PMcWire\~Cartesian\~Bot\~v1.0\Pwww.RepRap.org
  7
standard
 50
0.0
 73
0
 44
1.0
  0
MTEXT
  5
F3
100
AcDbEntity
100
AcDbMText
  8
X Text
 62
256
370
-1
  6
ByLayer
 10
110.0
 20
30.0
 30
0.0
 40
7.0
 41
100.0
 71
5
 72
2
  1
"X\~Stage"\PMcWire\~Cartesian\~Bot\~v.1.0\Pwww.RepRap.org\P
  7
standard
 50
0.0
 73
0
 44
1.0
  0
CIRCLE
  5
F4
100
AcDbEntity
100
AcDbCircle
  8
Base
 62
256
370
-1
  6
ByLayer
 10
260.0
 20
-11.4749999999999996
 30
0.0
 40
2.0
  0
CIRCLE
  5
F5
100
AcDbEntity
100
AcDbCircle
  8
Base
 62
256
370
-1
  6
ByLayer
 10
260.0
 20
130.4749999999999943
 30
0.0
 40
2.0
  0
LINE
  5
F6
100
AcDbEntity
100
AcDbLine
  8
Base Drawings
 62
256
370
-1
  6
ByLayer
 10
-0.0000000000000018
 20
-50.0500000000000043
 30
0.0
 11
270.0
 21
-50.0500000000000043
 31
0.0
  0
LINE
  5
F7
100
AcDbEntity
100
AcDbLine
  8
X Drawings
 62
256
370
-1
  6
ByLayer
 10
260.0
 20
150.0
 30
0.0
 11
260.0
 21
-50.0500000000000114
 31
0.0
  0
LINE
  5
F8
100
AcDbEntity
100
AcDbLine
  8
Base Drawings
 62
256
370
-1
  6
ByLayer
 10
-240.0000000000000853
 20
259.0
 30
0.0
 11
-240.0000000000000568
 21
-50.0500000000000114
 31
0.0
  0
LINE
  5
F9
100
AcDbEntity
100
AcDbLine
  8
Base Drawings
 62
256
370
-1
  6
ByLayer
 10
-240.0000000000000853
 20
259.0
 30
0.0
 11
259.9999999999998863
 21
259.0
 31
0.0
  0
LINE
  5
FA
100
AcDbEntity
100
AcDbLine
  8
Base Drawings
 62
256
370
-1
  6
ByLayer
 10
259.9999999999998863
 20
259.0
 30
0.0
 11
259.9999999999999432
 21
-50.0500000000000114
 31
0.0
  0
LINE
  5
FB
100
AcDbEntity
100
AcDbLine
  8
Steel Pipes
 62
256
370
-1
  6
ByLayer
 10
-256.7000000000001023
 20
275.6999999999999886
 30
0.0
 11
-256.7000000000000455
 21
-50.0500000000000043
 31
0.0
  0
LINE
  5
FC
100
AcDbEntity
100
AcDbLine
  8
Steel Pipes
 62
256
370
-1
  6
ByLayer
 10
276.6999999999998749
 20
275.6999999999999886
 30
0.0
 11
276.6999999999999318
 21
-50.0500000000000185
 31
0.0
  0
LINE
  5
FD
100
AcDbEntity
100
AcDbLine
  8
Steel Pipes
 62
256
370
-1
  6
ByLayer
 10
-256.7000000000001023
 20
275.6999999999999886
 30
0.0
 11
276.6999999999998749
 21
275.6999999999999886
 31
0.0
  0
LINE
  5
FE
100
AcDbEntity
100
AcDbLine
  8
Steel Pipes
 62
256
370
-1
  6
ByLayer
 10
243.2999999999998977
 20
242.3000000000000114
 30
0.0
 11
243.2999999999999545
 21
-50.0500000000000043
 31
0.0
  0
LINE
  5
FF
100
AcDbEntity
100
AcDbLine
  8
Steel Pipes
 62
256
370
-1
  6
ByLayer
 10
-223.3000000000000966
 20
242.3000000000000114
 30
0.0
 11
-223.3000000000000682
 21
-50.0500000000000185
 31
0.0
  0
LINE
  5
100
100
AcDbEntity
100
AcDbLine
  8
Steel Pipes
 62
256
370
-1
  6
ByLayer
 10
-223.3000000000000966
 20
242.3000000000000114
 30
0.0
 11
243.2999999999998977
 21
242.3000000000000114
 31
0.0
  0
LINE
  5
101
100
AcDbEntity
100
AcDbLine
  8
Steel Pipes
 62
256
370
-1
  6
ByLayer
 10
-201.9000000000000909
 20
275.6999999999999886
 30
0.0
 11
-201.9000000000000909
 21
242.3000000000000114
 31
0.0
  0
LINE
  5
102
100
AcDbEntity
100
AcDbLine
  8
Steel Pipes
 62
256
370
-1
  6
ByLayer
 10
221.899999999999892
 20
275.6999999999999886
 30
0.0
 11
221.899999999999892
 21
242.3000000000000114
 31
0.0
  0
LINE
  5
103
100
AcDbEntity
100
AcDbLine
  8
Steel Pipes
 62
256
370
-1
  6
ByLayer
 10
243.2999999999998977
 20
220.9000000000000057
 30
0.0
 11
276.6999999999998749
 21
220.9000000000000057
 31
0.0
  0
LINE
  5
104
100
AcDbEntity
100
AcDbLine
  8
Steel Pipes
 62
256
370
-1
  6
ByLayer
 10
-256.7000000000001023
 20
220.9000000000000057
 30
0.0
 11
-223.3000000000000966
 21
220.9000000000000057
 31
0.0
  0
LINE
  5
105
100
AcDbEntity
100
AcDbLine
  8
Base Drawings
 62
256
370
-1
  6
ByLayer
 10
10.0
 20
259.0
 30
0.0
 11
10.0
 21
-30.6250000000000036
 31
0.0
  0
LINE
  5
106
100
AcDbEntity
100
AcDbLine
  8
Base Drawings
 62
256
370
-1
  6
ByLayer
 10
9.9999999999999716
 20
319.0
 30
0.0
 11
9.9999999999999716
 21
233.0
 31
0.0
  0
LINE
  5
107
100
AcDbEntity
100
AcDbLine
  8
Steel Pipes
 62
256
370
-1
  6
ByLayer
 10
-28.1000000000000014
 20
275.6999999999999886
 30
0.0
 11
-28.1000000000000014
 21
242.3000000000000114
 31
0.0
  0
LINE
  5
108
100
AcDbEntity
100
AcDbLine
  8
Steel Pipes
 62
256
370
-1
  6
ByLayer
 10
48.1000000000000014
 20
275.6999999999999886
 30
0.0
 11
48.1000000000000014
 21
242.3000000000000114
 31
0.0
  0
LINE
  5
109
100
AcDbEntity
100
AcDbLine
  8
Steel Pipes
 62
256
370
-1
  6
ByLayer
 10
276.6999999999999318
 20
-50.0500000000000185
 30
0.0
 11
243.2999999999999545
 21
-50.0500000000000043
 31
0.0
  0
LINE
  5
10A
100
AcDbEntity
100
AcDbLine
  8
Steel Pipes
 62
256
370
-1
  6
ByLayer
 10
-256.7000000000000455
 20
-50.0500000000000043
 30
0.0
 11
-223.3000000000000682
 21
-50.0500000000000185
 31
0.0
  0
CIRCLE
  5
10B
100
AcDbEntity
100
AcDbCircle
  8
Steel Pipes
 62
256
370
-1
  6
ByLayer
 10
10.0
 20
259.0
 30
0.0
 40
12.6999999999999993
  0
LINE
  5
10C
100
AcDbEntity
100
AcDbLine
  8
X Rails
 62
256
370
-1
  6
ByLayer
 10
276.6999999999998749
 20
140.0
 30
0.0
 11
-256.7000000000000455
 21
140.0
 31
0.0
  0
LINE
  5
10D
100
AcDbEntity
100
AcDbLine
  8
Base Drawings
 62
256
370
-1
  6
ByLayer
 10
276.6999999999998749
 20
130.4749999999999943
 30
0.0
 11
-256.7000000000000455
 21
130.4749999999999943
 31
0.0
  0
LINE
  5
10E
100
AcDbEntity
100
AcDbLine
  8
X Rails
 62
256
370
-1
  6
ByLayer
 10
276.6999999999998749
 20
120.9499999999999886
 30
0.0
 11
-256.7000000000000455
 21
120.9499999999999886
 31
0.0
  0
LINE
  5
10F
100
AcDbEntity
100
AcDbLine
  8
X Rails
 62
256
370
-1
  6
ByLayer
 10
276.6999999999999318
 20
-1.9499999999999993
 30
0.0
 11
-256.6999999999999318
 21
-1.9499999999999993
 31
0.0
  0
LINE
  5
110
100
AcDbEntity
100
AcDbLine
  8
Base Drawings
 62
256
370
-1
  6
ByLayer
 10
276.6999999999999318
 20
-11.4749999999999996
 30
0.0
 11
-256.6999999999999318
 21
-11.4749999999999996
 31
0.0
  0
LINE
  5
111
100
AcDbEntity
100
AcDbLine
  8
X Rails
 62
256
370
-1
  6
ByLayer
 10
276.6999999999999318
 20
-21.0
 30
0.0
 11
-256.6999999999999318
 21
-21.0
 31
0.0
  0
LINE
  5
112
100
AcDbEntity
100
AcDbLine
  8
X Drawings
 62
256
370
-1
  6
ByLayer
 10
-0.0000000000000644
 20
-165.5
 30
0.0
 11
269.9999999999999432
 21
-165.5
 31
0.0
  0
LINE
  5
113
100
AcDbEntity
100
AcDbLine
  8
Y Rails
 62
256
370
-1
  6
ByLayer
 10
39.0499999999999972
 20
160.0
 30
0.0
 11
39.0499999999999758
 21
-165.5
 31
0.0
  0
LINE
  5
114
100
AcDbEntity
100
AcDbLine
  8
Y Rails
 62
256
370
-1
  6
ByLayer
 10
19.5249999999999986
 20
160.0
 30
0.0
 11
19.5249999999999808
 21
-165.5
 31
0.0
  0
LINE
  5
115
100
AcDbEntity
100
AcDbLine
  8
Y Rails
 62
256
370
-1
  6
ByLayer
 10
230.4749999999999943
 20
160.0
 30
0.0
 11
230.4749999999999943
 21
-165.5
 31
0.0
  0
LINE
  5
116
100
AcDbEntity
100
AcDbLine
  8
Y Rails
 62
256
370
-1
  6
ByLayer
 10
250.0
 20
160.0
 30
0.0
 11
250.0
 21
-165.5
 31
0.0
  0
LINE
  5
117
100
AcDbEntity
100
AcDbLine
  8
Y Rails
 62
256
370
-1
  6
ByLayer
 10
19.5249999999999808
 20
-165.5
 30
0.0
 11
39.0499999999999758
 21
-165.5
 31
0.0
  0
LINE
  5
118
100
AcDbEntity
100
AcDbLine
  8
Y Rails
 62
256
370
-1
  6
ByLayer
 10
230.4749999999999943
 20
-165.5
 30
0.0
 11
250.0
 21
-165.5
 31
0.0
  0
CIRCLE
  5
119
100
AcDbEntity
100
AcDbCircle
  8
Base
 62
256
370
-1
  6
ByLayer
 10
-240.0000000000000568
 20
-11.4750000000000227
 30
0.0
 40
2.0
  0
CIRCLE
  5
11A
100
AcDbEntity
100
AcDbCircle
  8
Base
 62
256
370
-1
  6
ByLayer
 10
-240.0000000000000568
 20
130.4749999999999943
 30
0.0
 40
2.0
  0
LINE
  5
11B
100
AcDbEntity
100
AcDbLine
  8
Base Drawings
 62
256
370
-1
  6
ByLayer
 10
257.8250000000000455
 20
151.4749999999999943
 30
0.0
 11
276.8750000000000568
 21
151.4749999999999943
 31
0.0
  0
LINE
  5
11C
100
AcDbEntity
100
AcDbLine
  8
Opto Endstop
 62
256
370
-1
  6
ByLayer
 10
273.334999999999809
 20
174.9699999999999989
 30
0.0
 11
254.2849999999998261
 21
174.9699999999999704
 31
0.0
  0
LINE
  5
11D
100
AcDbEntity
100
AcDbLine
  8
Opto Endstop
 62
256
370
-1
  6
ByLayer
 10
273.334999999999809
 20
147.0300000000000011
 30
0.0
 11
254.2849999999998261
 21
147.0300000000000296
 31
0.0
  0
LINE
  5
11E
100
AcDbEntity
100
AcDbLine
  8
Opto Endstop
 62
256
370
-1
  6
ByLayer
 10
254.2849999999998261
 20
174.9699999999999704
 30
0.0
 11
254.2849999999998261
 21
147.0300000000000296
 31
0.0
  0
LINE
  5
11F
100
AcDbEntity
100
AcDbLine
  8
Opto Endstop
 62
256
370
-1
  6
ByLayer
 10
263.1749999999998408
 20
174.9699999999999989
 30
0.0
 11
263.1749999999998408
 21
147.0300000000000011
 31
0.0
  0
LINE
  5
120
100
AcDbEntity
100
AcDbLine
  8
Opto Endstop
 62
256
370
-1
  6
ByLayer
 10
256.8249999999998181
 20
174.9699999999999989
 30
0.0
 11
256.8249999999998181
 21
147.0300000000000011
 31
0.0
  0
LINE
  5
121
100
AcDbEntity
100
AcDbLine
  8
Opto Endstop
 62
256
370
-1
  6
ByLayer
 10
263.1749999999998408
 20
162.6500000000000057
 30
0.0
 11
256.8249999999998181
 21
162.6500000000000057
 31
0.0
  0
LINE
  5
122
100
AcDbEntity
100
AcDbLine
  8
Opto Endstop
 62
256
370
-1
  6
ByLayer
 10
263.1749999999998408
 20
159.3499999999999943
 30
0.0
 11
256.8249999999998181
 21
159.3499999999999943
 31
0.0
  0
LINE
  5
123
100
AcDbEntity
100
AcDbLine
  8
Opto Endstop
 62
256
370
-1
  6
ByLayer
 10
273.334999999999809
 20
174.9699999999999989
 30
0.0
 11
273.334999999999809
 21
147.0300000000000011
 31
0.0
  0
LINE
  5
124
100
AcDbEntity
100
AcDbLine
  8
Opto Endstop
 62
256
370
-1
  6
ByLayer
 10
263.1749999999998408
 20
167.0000000000000284
 30
0.0
 11
256.8249999999998181
 21
167.0000000000000568
 31
0.0
  0
LINE
  5
125
100
AcDbEntity
100
AcDbLine
  8
Opto Endstop
 62
256
370
-1
  6
ByLayer
 10
263.1749999999998408
 20
154.9999999999999716
 30
0.0
 11
256.8249999999998181
 21
155.0000000000000284
 31
0.0
  0
LINE
  5
126
100
AcDbEntity
100
AcDbLine
  8
Opto Endstop
 62
256
370
-1
  6
ByLayer
 10
273.334999999999809
 20
160.9999999999999716
 30
0.0
 11
273.334999999999809
 21
150.9999999999999716
 31
0.0
  0
LINE
  5
127
100
AcDbEntity
100
AcDbLine
  8
Opto Endstop
 62
256
370
-1
  6
ByLayer
 10
273.334999999999809
 20
150.9999999999999716
 30
0.0
 11
269.9999999999997726
 21
150.9999999999999716
 31
0.0
  0
LINE
  5
128
100
AcDbEntity
100
AcDbLine
  8
Opto Endstop
 62
256
370
-1
  6
ByLayer
 10
269.9999999999997726
 20
150.9999999999999716
 30
0.0
 11
269.9999999999997726
 21
160.9999999999999716
 31
0.0
  0
LINE
  5
129
100
AcDbEntity
100
AcDbLine
  8
Opto Endstop
 62
256
370
-1
  6
ByLayer
 10
269.9999999999997726
 20
160.9999999999999716
 30
0.0
 11
273.334999999999809
 21
160.9999999999999716
 31
0.0
  0
LINE
  5
12A
100
AcDbEntity
100
AcDbLine
  8
Opto Endstop
 62
256
370
-1
  6
ByLayer
 10
272.9999999999998863
 20
159.9999999999999716
 30
0.0
 11
272.9999999999998863
 21
151.9999999999999716
 31
0.0
  0
LINE
  5
12B
100
AcDbEntity
100
AcDbLine
  8
Opto Endstop
 62
256
370
-1
  6
ByLayer
 10
272.9999999999998863
 20
151.9999999999999716
 30
0.0
 11
275.9999999999997726
 21
151.9999999999999716
 31
0.0
  0
LINE
  5
12C
100
AcDbEntity
100
AcDbLine
  8
Opto Endstop
 62
256
370
-1
  6
ByLayer
 10
275.9999999999997726
 20
151.9999999999999716
 30
0.0
 11
275.9999999999998863
 21
159.9999999999999716
 31
0.0
  0
LINE
  5
12D
100
AcDbEntity
100
AcDbLine
  8
Opto Endstop
 62
256
370
-1
  6
ByLayer
 10
275.9999999999998863
 20
159.9999999999999716
 30
0.0
 11
272.9999999999998863
 21
159.9999999999999716
 31
0.0
  0
CIRCLE
  5
12E
100
AcDbEntity
100
AcDbCircle
  8
Base
 62
256
370
-1
  6
ByLayer
 10
259.9999999999998863
 20
170.5249999999999773
 30
0.0
 40
1.7
  0
CIRCLE
  5
12F
100
AcDbEntity
100
AcDbCircle
  8
Base
 62
256
370
-1
  6
ByLayer
 10
259.9999999999998863
 20
151.4749999999999943
 30
0.0
 40
1.7
  0
LINE
  5
130
100
AcDbEntity
100
AcDbLine
  8
Opto Endstop
 62
256
370
-1
  6
ByLayer
 10
263.1749999999998408
 20
161.0
 30
0.0
 11
256.8249999999998181
 21
161.0
 31
0.0
  0
ENDSEC
  0
SECTION
  2
OBJECTS
  0
DICTIONARY
  5
C
100
AcDbDictionary
280
0
281
1
  3
ACAD_GROUP
350
D
  3
ACAD_LAYOUT
350
1A
  3
ACAD_MLINESTYLE
350
17
  3
ACAD_PLOTSETTINGS
350
19
  3
ACAD_PLOTSTYLENAME
350
E
  3
AcDbVariableDictionary
350
131
  0
DICTIONARY
  5
D
100
AcDbDictionary
280
0
281
1
  0
ACDBDICTIONARYWDFLT
  5
E
100
AcDbDictionary
281
1
  3
Normal
350
F
100
AcDbDictionaryWithDefault
340
F
  0
ACDBPLACEHOLDER
  5
F
  0
DICTIONARY
  5
17
100
AcDbDictionary
280
0
281
1
  3
Standard
350
18
  0
MLINESTYLE
  5
18
100
AcDbMlineStyle
  2
STANDARD
 70
0
  3

 62
256
 51
90.0
 52
90.0
 71
2
 49
0.5
 62
256
  6
BYLAYER
 49
-0.5
 62
256
  6
BYLAYER
  0
DICTIONARY
  5
19
100
AcDbDictionary
280
0
281
1
  0
DICTIONARY
  5
1A
100
AcDbDictionary
281
1
  3
Layout1
350
1E
  3
Layout2
350
26
  3
Model
350
22
  0
LAYOUT
  5
1E
100
AcDbPlotSettings
  1

  2
C:\Program Files\AutoCAD 2002\plotters\DWF ePlot (optimized for plotting).pc3
  4

  6

 40
0.0
 41
0.0
 42
0.0
 43
0.0
 44
0.0
 45
0.0
 46
0.0
 47
0.0
 48
0.0
 49
0.0
140
0.0
141
0.0
142
1.0
143
1.0
 70
688
 72
0
 73
0
 74
5
  7

 75
16
147
1.0
148
0.0
149
0.0
100
AcDbLayout
  1
Layout1
 70
1
 71
1
 10
0.0
 20
0.0
 11
420.0
 21
297.0
 12
0.0
 22
0.0
 32
0.0
 14
100000000000000000000.0
 24
100000000000000000000.0
 34
100000000000000000000.0
 15
-100000000000000000000.0
 25
-100000000000000000000.0
 35
-100000000000000000000.0
146
0.0
 13
0.0
 23
0.0
 33
0.0
 16
1.0
 26
0.0
 36
0.0
 17
0.0
 27
1.0
 37
0.0
 76
0
330
1B
  0
LAYOUT
  5
22
100
AcDbPlotSettings
  1

  2
C:\Program Files\AutoCAD 2002\plotters\DWF ePlot (optimized for plotting).pc3
  4

  6

 40
0.0
 41
0.0
 42
0.0
 43
0.0
 44
0.0
 45
0.0
 46
0.0
 47
0.0
 48
0.0
 49
0.0
140
0.0
141
0.0
142
1.0
143
1.0
 70
1712
 72
0
 73
0
 74
0
  7

 75
0
147
1.0
148
0.0
149
0.0
100
AcDbLayout
  1
Model
 70
1
 71
0
 10
0.0
 20
0.0
 11
12.0
 21
9.0
 12
0.0
 22
0.0
 32
0.0
 14
0.0
 24
0.0
 34
0.0
 15
0.0
 25
0.0
 35
0.0
146
0.0
 13
0.0
 23
0.0
 33
0.0
 16
1.0
 26
0.0
 36
0.0
 17
0.0
 27
1.0
 37
0.0
 76
0
330
1F
  0
LAYOUT
  5
26
100
AcDbPlotSettings
  1

  2
C:\Program Files\AutoCAD 2002\plotters\DWF ePlot (optimized for plotting).pc3
  4

  6

 40
0.0
 41
0.0
 42
0.0
 43
0.0
 44
0.0
 45
0.0
 46
0.0
 47
0.0
 48
0.0
 49
0.0
140
0.0
141
0.0
142
1.0
143
1.0
 70
688
 72
0
 73
0
 74
5
  7

 75
16
147
1.0
148
0.0
149
0.0
100
AcDbLayout
  1
Layout2
 70
1
 71
2
 10
0.0
 20
0.0
 11
12.0
 21
9.0
 12
0.0
 22
0.0
 32
0.0
 14
0.0
 24
0.0
 34
0.0
 15
0.0
 25
0.0
 35
0.0
146
0.0
 13
0.0
 23
0.0
 33
0.0
 16
1.0
 26
0.0
 36
0.0
 17
0.0
 27
1.0
 37
0.0
 76
0
330
23
  0
DICTIONARY
  5
131
100
AcDbDictionary
281
1
  3
DIMASSOC
350
133
  3
HIDETEXT
350
132
  0
DICTIONARYVAR
  5
132
100
DictionaryVariables
280
0
  1
2
  0
DICTIONARYVAR
  5
133
100
DictionaryVariables
280
0
  1
1
  0
ENDSEC
  0
EOF
