<?xml version="1.0" encoding="UTF-8" standalone="no"?>
<!-- Generator: Adobe Illustrator 9.0, SVG Export Plug-In  -->
<svg
   xmlns:dc="http://purl.org/dc/elements/1.1/"
   xmlns:cc="http://creativecommons.org/ns#"
   xmlns:rdf="http://www.w3.org/1999/02/22-rdf-syntax-ns#"
   xmlns:svg="http://www.w3.org/2000/svg"
   xmlns="http://www.w3.org/2000/svg"
   xmlns:sodipodi="http://sodipodi.sourceforge.net/DTD/sodipodi-0.dtd"
   xmlns:inkscape="http://www.inkscape.org/namespaces/inkscape"
   width="2267.718pt"
   height="1116.85pt"
   viewBox="0 0 2267.718 1116.85"
   xml:space="preserve"
   id="svg3804"
   sodipodi:version="0.32"
   inkscape:version="0.46"
   sodipodi:docname="long_side.svg"
   sodipodi:docbase="/Users/sal/Ponoko/ponoko.com/Oct/making guides - US/starter-kit-inkscape/no side bar"
   inkscape:output_extension="org.inkscape.output.svg.inkscape"><metadata
   id="metadata3848"><rdf:RDF><cc:Work
       rdf:about=""><dc:format>image/svg+xml</dc:format><dc:type
         rdf:resource="http://purl.org/dc/dcmitype/StillImage" /></cc:Work></rdf:RDF></metadata><defs
   id="defs3846"><inkscape:perspective
     sodipodi:type="inkscape:persp3d"
     inkscape:vp_x="0 : 698.03125 : 1"
     inkscape:vp_y="0 : 1000 : 0"
     inkscape:vp_z="2834.6475 : 698.03125 : 1"
     inkscape:persp3d-origin="1417.3237 : 465.35417 : 1"
     id="perspective2728" /></defs><sodipodi:namedview
   inkscape:window-height="949"
   inkscape:window-width="1272"
   inkscape:pageshadow="2"
   inkscape:pageopacity="0.0"
   guidetolerance="10.0"
   gridtolerance="10.0"
   objecttolerance="10.0"
   borderopacity="1.0"
   bordercolor="#666666"
   pagecolor="#ffffff"
   id="base"
   inkscape:zoom="0.39727823"
   inkscape:cx="2315.5271"
   inkscape:cy="583.27875"
   inkscape:window-x="0"
   inkscape:window-y="0"
   inkscape:current-layer="Layer_x0020_1"
   showgrid="false"
   showguides="true"
   inkscape:guide-bbox="true"
   inkscape:document-units="mm"><inkscape:grid
     type="xygrid"
     id="grid2743"
     visible="true"
     enabled="true"
     units="mm"
     spacingx="1mm"
     spacingy="1mm"
     empcolor="#ff0008"
     empopacity="0.25098039" /><sodipodi:guide
     orientation="1,0"
     position="68.479834,355.68011"
     id="guide3519" /><sodipodi:guide
     orientation="1,0"
     position="100.32748,1388.9783"
     id="guide3523" /><sodipodi:guide
     orientation="0,1"
     position="1053.7594,1327.8862"
     id="guide3525" /><sodipodi:guide
     orientation="0,1"
     position="216.9375,1296.0859"
     id="guide3527" /><sodipodi:guide
     orientation="0,1"
     position="903.10374,1258.3688"
     id="guide3531" /><sodipodi:guide
     orientation="1,0"
     position="140.62586,716.89579"
     id="guide3533" /><sodipodi:guide
     orientation="1,0"
     position="1186.4509,1513.6496"
     id="guide3545" /><sodipodi:guide
     orientation="0,1"
     position="493.24976,68.965458"
     id="guide3549" /><sodipodi:guide
     orientation="0,1"
     position="348.86881,100.67433"
     id="guide3551" /><sodipodi:guide
     orientation="0,1"
     position="301.93459,140.97941"
     id="guide3555" /><sodipodi:guide
     orientation="1,0"
     position="698.48892,1369.6216"
     id="guide3563" /><sodipodi:guide
     orientation="0,1"
     position="39.730562,698.48892"
     id="guide3567" /><sodipodi:guide
     orientation="-0.70710678,0.70710678"
     position="698.51191,698.80186"
     id="guide3597" /><sodipodi:guide
     orientation="0.70710678,0.70710678"
     position="698.22195,698.80186"
     id="guide3599" /><sodipodi:guide
     orientation="0,1"
     position="123.18608,919.17455"
     id="guide3795" /><sodipodi:guide
     orientation="0,1"
     position="114.84192,477.59308"
     id="guide3797" /><sodipodi:guide
     orientation="1,0"
     position="477.20881,1349.3377"
     id="guide3799" /><sodipodi:guide
     orientation="1,0"
     position="848.81981,1468.1263"
     id="guide3801" /><sodipodi:guide
     orientation="1,0"
     position="2008.7455,1279.2907"
     id="guide2575" /><sodipodi:guide
     orientation="1,0"
     position="2610.2614,-254.22989"
     id="guide2579" /><sodipodi:guide
     orientation="1,0"
     position="1419.5207,1381.1104"
     id="guide3367" /><sodipodi:guide
     orientation="1,0"
     position="1525.0304,1477.6103"
     id="guide2716" /><sodipodi:guide
     orientation="1,0"
     position="1219.1899,1530.3583"
     id="guide2730" /><sodipodi:guide
     orientation="1,0"
     position="1298.3232,1410.9876"
     id="guide2740" /><sodipodi:guide
     orientation="1,0"
     position="2722.3234,1198.3029"
     id="guide3524" /><sodipodi:guide
     orientation="0,1"
     position="2716.61,1161.0251"
     id="guide3528" /><sodipodi:guide
     orientation="0,1"
     position="2815.3221,235.83384"
     id="guide3532" /></sodipodi:namedview>
	<g
   id="Layer_x0020_1"
   style="fill-rule:nonzero;clip-rule:nonzero;fill:#F6921E;stroke:#000000;stroke-miterlimit:4;">
		
		
		<g
   id="g2730"><path
     id="path3807"
     d="M2267.718,1116.85H0V0h2267.718v1116.85z"
     style="stroke:none;" /><path
     id="path3809"
     d="M2253.543,1102.678H14.173V14.173h2239.37v1088.504z"
     style="fill:#FFFFFF;stroke:none;" /><g
     id="g3811"
     style="stroke:none;">
			<path
   id="path3813"
   d="M1077.416,555.258c0.873,0.571,2.418,1.175,3.896,1.175c2.149,0,3.157-1.075,3.157-2.418c0-1.411-0.84-2.183-3.023-2.989c-2.922-1.041-4.299-2.653-4.299-4.601c0-2.62,2.116-4.769,5.609-4.769c1.646,0,3.09,0.47,3.997,1.008l-0.739,2.149     c-0.638-0.403-1.814-0.94-3.325-0.94c-1.746,0-2.72,1.007-2.72,2.216c0,1.344,0.974,1.948,3.09,2.754c2.821,1.075,4.265,2.485,4.265,4.904c0,2.854-2.216,4.903-6.079,4.903c-1.78,0-3.426-0.47-4.568-1.142l0.739-2.25z" />
			<path
   id="path3815"
   d="M1102.534,554.384c0,1.411,0.067,2.788,0.269,3.896h-2.687l-0.235-2.049h-0.101c-0.907,1.276-2.653,2.418-4.971,2.418c-3.292,0-4.971-2.317-4.971-4.668c0-3.929,3.493-6.079,9.773-6.045v-0.335c0-1.344-0.37-3.762-3.694-3.762     c-1.511,0-3.09,0.47-4.232,1.209l-0.671-1.948c1.343-0.873,3.291-1.444,5.34-1.444c4.971,0,6.179,3.392,6.179,6.65v6.079z M1099.68,549.985c-3.224-0.067-6.885,0.504-6.885,3.661c0,1.915,1.276,2.821,2.788,2.821c2.116,0,3.459-1.343,3.929-2.72     c0.101-0.302,0.168-0.638,0.168-0.94v-2.821z" />
			<path
   id="path3817"
   d="M1107.603,558.28v-14.005h-2.284v-2.25h2.284v-0.772c0-2.284,0.504-4.366,1.881-5.676c1.108-1.075,2.586-1.511,3.963-1.511c1.041,0,1.948,0.235,2.519,0.47l-0.402,2.284c-0.437-0.202-1.041-0.37-1.881-0.37c-2.52,0-3.157,2.217-3.157,4.702v0.873h3.93     v2.25h-3.93v14.005h-2.922z" />
			<path
   id="path3819"
   d="M1118.314,550.69c0.066,3.997,2.619,5.643,5.574,5.643c2.116,0,3.393-0.37,4.501-0.84l0.504,2.116c-1.041,0.47-2.821,1.041-5.407,1.041c-5.004,0-7.993-3.325-7.993-8.228s2.888-8.766,7.624-8.766c5.306,0,6.717,4.668,6.717,7.657     c0,0.604-0.067,1.075-0.102,1.377h-11.418z M1126.979,548.574c0.034-1.881-0.772-4.803-4.097-4.803c-2.989,0-4.299,2.754-4.534,4.803h8.631z" />
			<path
   id="path3821"
   d="M1152.027,554.384c0,1.411,0.067,2.788,0.269,3.896h-2.687l-0.235-2.049h-0.101c-0.906,1.276-2.653,2.418-4.971,2.418c-3.291,0-4.97-2.317-4.97-4.668c0-3.929,3.492-6.079,9.772-6.045v-0.335c0-1.344-0.369-3.762-3.694-3.762     c-1.511,0-3.09,0.47-4.231,1.209l-0.672-1.948c1.344-0.873,3.292-1.444,5.34-1.444c4.971,0,6.18,3.392,6.18,6.65v6.079z M1149.173,549.985c-3.224-0.067-6.885,0.504-6.885,3.661c0,1.915,1.276,2.821,2.787,2.821c2.116,0,3.46-1.343,3.93-2.72     c0.101-0.302,0.168-0.638,0.168-0.94v-2.821z" />
			<path
   id="path3823"
   d="M1156.794,547.097c0-1.915-0.034-3.56-0.135-5.071h2.586l0.101,3.19h0.135c0.738-2.183,2.519-3.56,4.5-3.56c0.336,0,0.571,0.034,0.84,0.101v2.787c-0.303-0.067-0.604-0.101-1.008-0.101c-2.082,0-3.56,1.579-3.963,3.795     c-0.067,0.403-0.135,0.874-0.135,1.377v8.665h-2.921v-11.184z" />
			<path
   id="path3825"
   d="M1169.084,550.69c0.066,3.997,2.619,5.643,5.574,5.643c2.116,0,3.393-0.37,4.501-0.84l0.504,2.116c-1.041,0.47-2.821,1.041-5.407,1.041c-5.004,0-7.993-3.325-7.993-8.228s2.888-8.766,7.624-8.766c5.306,0,6.717,4.668,6.717,7.657     c0,0.604-0.067,1.075-0.102,1.377h-11.418z M1177.748,548.574c0.034-1.881-0.772-4.803-4.097-4.803c-2.989,0-4.299,2.754-4.534,4.803h8.631z" />
			<path
   id="path3827"
   d="M1195.679,554.384c0,1.411,0.067,2.788,0.269,3.896h-2.687l-0.235-2.049h-0.101c-0.906,1.276-2.653,2.418-4.971,2.418c-3.291,0-4.97-2.317-4.97-4.668c0-3.929,3.492-6.079,9.772-6.045v-0.335c0-1.344-0.369-3.762-3.694-3.762     c-1.511,0-3.09,0.47-4.231,1.209l-0.672-1.948c1.344-0.873,3.292-1.444,5.34-1.444c4.971,0,6.18,3.392,6.18,6.65v6.079z M1192.824,549.985c-3.224-0.067-6.885,0.504-6.885,3.661c0,1.915,1.276,2.821,2.787,2.821c2.116,0,3.46-1.343,3.93-2.72     c0.101-0.302,0.168-0.638,0.168-0.94v-2.821z" />
		</g></g>
		
		
		
		
	<path
   style="opacity:1;fill:none;fill-opacity:1;fill-rule:nonzero;stroke:#0000ff;stroke-width:0.00348322;stroke-linecap:butt;stroke-linejoin:miter;marker:none;marker-start:none;marker-mid:none;marker-end:none;stroke-miterlimit:7.39194536;stroke-dasharray:none;stroke-dashoffset:0;stroke-opacity:1;visibility:visible;display:inline;overflow:visible;enable-background:accumulate"
   d="M 98.713465,15.274992 C 88.793761,15.274992 80.824573,23.185034 80.824573,32.999992 L 80.824573,110.14999 L 28.825509,110.14999 L 28.825509,381.49999 L 80.824573,381.49999 L 80.824573,734.77499 L 28.774974,734.77499 L 28.774974,1004.075 L 80.824573,1004.075 L 80.824573,1083.125 C 80.824573,1092.9402 88.793761,1100.85 98.713465,1100.85 L 1202.2661,1100.85 C 1212.1857,1100.85 1220.1802,1092.9399 1220.1802,1083.125 L 1220.1802,32.999992 C 1220.1802,23.185033 1212.1855,15.274992 1202.2661,15.274992 L 98.713465,15.274992 z"
   id="rect2745" /><rect
   style="opacity:1;fill:none;fill-opacity:1;fill-rule:nonzero;stroke:#0000ff;stroke-width:0.00850394;stroke-linecap:butt;stroke-linejoin:miter;marker:none;marker-start:none;marker-mid:none;marker-end:none;stroke-miterlimit:7.39194536;stroke-dasharray:none;stroke-dashoffset:0;stroke-opacity:1;visibility:visible;display:inline;overflow:visible;enable-background:accumulate"
   id="rect3521"
   width="25.431479"
   height="269.29135"
   x="-79.990906"
   y="112.50069"
   transform="matrix(0,-1,1,0,0,0)" /><rect
   style="opacity:1;fill:none;fill-opacity:1;fill-rule:nonzero;stroke:#0000ff;stroke-width:0.00850394;stroke-linecap:butt;stroke-linejoin:miter;marker:none;marker-start:none;marker-mid:none;marker-end:none;stroke-miterlimit:7.39194536;stroke-dasharray:none;stroke-dashoffset:0;stroke-opacity:1;visibility:visible;display:inline;overflow:visible;enable-background:accumulate"
   id="rect3535"
   width="25.431479"
   height="269.29135"
   x="-79.990891"
   y="680.36499"
   transform="matrix(0,-1,1,0,0,0)" /><rect
   style="opacity:1;fill:none;fill-opacity:1;fill-rule:nonzero;stroke:#0000ff;stroke-width:0.00850394;stroke-linecap:butt;stroke-linejoin:miter;marker:none;marker-start:none;marker-mid:none;marker-end:none;stroke-miterlimit:7.39194536;stroke-dasharray:none;stroke-dashoffset:0;stroke-opacity:1;visibility:visible;display:inline;overflow:visible;enable-background:accumulate"
   id="rect3537"
   width="25.431152"
   height="271.36142"
   x="949.65631"
   y="286.69745" /><rect
   style="opacity:1;fill:none;fill-opacity:1;fill-rule:nonzero;stroke:#0000ff;stroke-width:0.00850394;stroke-linecap:butt;stroke-linejoin:miter;marker:none;marker-start:none;marker-mid:none;marker-end:none;stroke-miterlimit:7.39194536;stroke-dasharray:none;stroke-dashoffset:0;stroke-opacity:1;visibility:visible;display:inline;overflow:visible;enable-background:accumulate"
   id="rect3547"
   width="25.417326"
   height="269.29135"
   x="-1061.7279"
   y="112.50069"
   transform="matrix(0,-1,1,0,0,0)" /><rect
   style="opacity:1;fill:none;fill-opacity:1;fill-rule:nonzero;stroke:#0000ff;stroke-width:0.00850394;stroke-linecap:butt;stroke-linejoin:miter;marker:none;marker-start:none;marker-mid:none;marker-end:none;stroke-miterlimit:7.39194536;stroke-dasharray:none;stroke-dashoffset:0;stroke-opacity:1;visibility:visible;display:inline;overflow:visible;enable-background:accumulate"
   id="rect3557"
   width="25.417326"
   height="269.29135"
   x="-1061.7141"
   y="680.36499"
   transform="matrix(0,-1,1,0,0,0)" /><rect
   style="opacity:1;fill:none;fill-opacity:1;fill-rule:nonzero;stroke:#0000ff;stroke-width:0.00850394;stroke-linecap:butt;stroke-linejoin:miter;marker:none;marker-start:none;marker-mid:none;marker-end:none;stroke-miterlimit:7.39194536;stroke-dasharray:none;stroke-dashoffset:0;stroke-opacity:1;visibility:visible;display:inline;overflow:visible;enable-background:accumulate"
   id="rect3559"
   width="25.431152"
   height="269.29135"
   x="949.65631"
   y="734.59686" /><path
   sodipodi:type="arc"
   style="opacity:1;fill:none;fill-opacity:1;fill-rule:nonzero;stroke:#00ff00;stroke-width:0.00195682;stroke-linecap:butt;stroke-linejoin:miter;marker:none;marker-start:none;marker-mid:none;marker-end:none;stroke-miterlimit:7.39194536;stroke-dasharray:none;stroke-dashoffset:0;stroke-opacity:1;visibility:visible;display:inline;overflow:visible;enable-background:accumulate"
   id="path3729"
   sodipodi:cx="558.82507"
   sodipodi:cy="558.05603"
   sodipodi:rx="0.60554773"
   sodipodi:ry="0.60554773"
   d="M 559.43062,558.05603 A 0.60554773,0.60554773 0 1 1 558.21953,558.05603 A 0.60554773,0.60554773 0 1 1 559.43062,558.05603 z"
   transform="matrix(4.3457887,0,0,4.3457887,-1869.8065,-1867.1866)" /><g
   id="g2690"
   transform="translate(18.071997,0)"><path
     transform="matrix(1.2651142,0,0,1.6539862,973.6212,-820.12132)"
     d="M 147.20001,560.04999 A 33.469009,25.6 0 1 1 80.261993,560.04999 A 33.469009,25.6 0 1 1 147.20001,560.04999 z"
     sodipodi:ry="25.6"
     sodipodi:rx="33.469009"
     sodipodi:cy="560.04999"
     sodipodi:cx="113.731"
     id="path3733"
     style="fill:none;fill-opacity:1;fill-rule:nonzero;stroke:#0000ff;stroke-width:0.00587881;stroke-linecap:butt;stroke-linejoin:miter;marker:none;marker-start:none;marker-mid:none;marker-end:none;stroke-miterlimit:7.39194536;stroke-dasharray:none;stroke-dashoffset:0;stroke-opacity:1;visibility:visible;display:inline;overflow:visible;enable-background:accumulate"
     sodipodi:type="arc" /><g
     transform="translate(351.49642,-385.08022)"
     id="g3735"
     style="fill:#f6921e;fill-rule:nonzero;stroke:#000000;stroke-miterlimit:4"><path
       sodipodi:type="arc"
       style="opacity:1;fill:none;fill-opacity:1;fill-rule:nonzero;stroke:#0000ff;stroke-width:0.03518458;stroke-linecap:butt;stroke-linejoin:miter;marker:none;marker-start:none;marker-mid:none;marker-end:none;stroke-miterlimit:7.39194536;stroke-dasharray:none;stroke-dashoffset:0;stroke-opacity:1;visibility:visible;display:inline;overflow:visible;enable-background:accumulate"
       id="path3737"
       sodipodi:cx="113.731"
       sodipodi:cy="560.04999"
       sodipodi:rx="33.469009"
       sodipodi:ry="25.6"
       d="M 147.20001,560.04999 A 33.469009,25.6 0 1 1 80.261993,560.04999 A 33.469009,25.6 0 1 1 147.20001,560.04999 z"
       transform="matrix(0.2113812,0,0,0.2763562,675.03413,403.28558)" /><path
       sodipodi:type="arc"
       style="opacity:1;fill:none;fill-opacity:1;fill-rule:nonzero;stroke:#0000ff;stroke-width:0.03518458;stroke-linecap:butt;stroke-linejoin:miter;marker:none;marker-start:none;marker-mid:none;marker-end:none;stroke-miterlimit:7.39194536;stroke-dasharray:none;stroke-dashoffset:0;stroke-opacity:1;visibility:visible;display:inline;overflow:visible;enable-background:accumulate"
       id="path3739"
       sodipodi:cx="113.731"
       sodipodi:cy="560.04999"
       sodipodi:rx="33.469009"
       sodipodi:ry="25.6"
       d="M 147.20001,560.04999 A 33.469009,25.6 0 1 1 80.261993,560.04999 A 33.469009,25.6 0 1 1 147.20001,560.04999 z"
       transform="matrix(0.2113812,0,0,0.2763562,808.8847,403.28558)" /></g><path
     transform="matrix(0.2113812,0,0,0.2763562,1026.5306,-115.52252)"
     d="M 147.20001,560.04999 A 33.469009,25.6 0 1 1 80.261993,560.04999 A 33.469009,25.6 0 1 1 147.20001,560.04999 z"
     sodipodi:ry="25.6"
     sodipodi:rx="33.469009"
     sodipodi:cy="560.04999"
     sodipodi:cx="113.731"
     id="path3741"
     style="fill:none;fill-opacity:1;fill-rule:nonzero;stroke:#0000ff;stroke-width:0.03518458;stroke-linecap:butt;stroke-linejoin:miter;marker:none;marker-start:none;marker-mid:none;marker-end:none;stroke-miterlimit:7.39194536;stroke-dasharray:none;stroke-dashoffset:0;stroke-opacity:1;visibility:visible;display:inline;overflow:visible;enable-background:accumulate"
     sodipodi:type="arc" /><path
     transform="matrix(0.2113812,0,0,0.2763562,1160.3811,-115.52252)"
     d="M 147.20001,560.04999 A 33.469009,25.6 0 1 1 80.261993,560.04999 A 33.469009,25.6 0 1 1 147.20001,560.04999 z"
     sodipodi:ry="25.6"
     sodipodi:rx="33.469009"
     sodipodi:cy="560.04999"
     sodipodi:cx="113.731"
     id="path3743"
     style="fill:none;fill-opacity:1;fill-rule:nonzero;stroke:#0000ff;stroke-width:0.03518458;stroke-linecap:butt;stroke-linejoin:miter;marker:none;marker-start:none;marker-mid:none;marker-end:none;stroke-miterlimit:7.39194536;stroke-dasharray:none;stroke-dashoffset:0;stroke-opacity:1;visibility:visible;display:inline;overflow:visible;enable-background:accumulate"
     sodipodi:type="arc" /><path
     sodipodi:nodetypes="ccccccc"
     id="path3745"
     d="M 1058.167,46.80214 L 1064.6346,46.96145 L 1086.1719,68.4988 L 1086.3312,74.9664 L 1079.8636,74.80708 L 1058.3263,53.26973 L 1058.167,46.80214 z"
     style="fill:none;fill-opacity:0.75;fill-rule:evenodd;stroke:#000000;stroke-width:1.00000012px;stroke-linecap:butt;stroke-linejoin:miter;stroke-miterlimit:4;stroke-opacity:1" /><path
     sodipodi:nodetypes="ccccccc"
     id="path3747"
     d="M 1148.6766,137.31181 L 1155.1442,137.47111 L 1176.6816,159.00847 L 1176.8409,165.47606 L 1170.3733,165.31675 L 1148.8359,143.7794 L 1148.6766,137.31181 z"
     style="fill:none;fill-opacity:0.75;fill-rule:evenodd;stroke:#000000;stroke-width:1.00000012px;stroke-linecap:butt;stroke-linejoin:miter;stroke-miterlimit:4;stroke-opacity:1" /><path
     sodipodi:nodetypes="ccccccc"
     id="path3749"
     d="M 1176.8409,46.80213 L 1176.6816,53.26973 L 1155.1442,74.80708 L 1148.6766,74.96638 L 1148.8359,68.4988 L 1170.3733,46.96145 L 1176.8409,46.80213 z"
     style="fill:none;fill-opacity:0.75;fill-rule:evenodd;stroke:#000000;stroke-width:1.00000012px;stroke-linecap:butt;stroke-linejoin:miter;stroke-miterlimit:4;stroke-opacity:1" /><path
     sodipodi:nodetypes="ccccccc"
     id="path3751"
     d="M 1086.3312,137.31179 L 1086.1719,143.7794 L 1064.6346,165.31675 L 1058.167,165.47605 L 1058.3263,159.00847 L 1079.8636,137.47111 L 1086.3312,137.31179 z"
     style="fill:none;fill-opacity:0.75;fill-rule:evenodd;stroke:#000000;stroke-width:1.00000012px;stroke-linecap:butt;stroke-linejoin:miter;stroke-miterlimit:4;stroke-opacity:1" /></g><path
   sodipodi:type="arc"
   style="fill:none;fill-opacity:1;fill-rule:nonzero;stroke:#0000ff;stroke-width:0.02233983;stroke-linecap:butt;stroke-linejoin:miter;marker:none;marker-start:none;marker-mid:none;marker-end:none;stroke-miterlimit:7.39194536;stroke-dasharray:none;stroke-dashoffset:0;stroke-opacity:1;visibility:visible;display:inline;overflow:visible;enable-background:accumulate"
   id="path3380"
   sodipodi:cx="113.731"
   sodipodi:cy="560.04999"
   sodipodi:rx="33.469009"
   sodipodi:ry="25.6"
   d="M 147.20001,560.04999 A 33.469009,25.6 0 1 1 80.261993,560.04999 A 33.469009,25.6 0 1 1 147.20001,560.04999 z"
   transform="matrix(0.3329193,0,0,0.4352531,1097.3876,792.54705)" /><rect
   style="opacity:1;fill:none;fill-opacity:1;fill-rule:nonzero;stroke:#00ff00;stroke-width:0.01062991;stroke-linecap:butt;stroke-linejoin:miter;marker:none;marker-start:none;marker-mid:none;marker-end:none;stroke-miterlimit:7.39194536;stroke-dasharray:none;stroke-dashoffset:0;stroke-opacity:1;visibility:visible;display:inline;overflow:visible;enable-background:accumulate"
   id="rect2686"
   width="22.572582"
   height="41.310284"
   x="1022.2268"
   y="-45.609684" /><rect
   style="opacity:1;fill:none;fill-opacity:1;fill-rule:nonzero;stroke:#00ff00;stroke-width:0.01062991;stroke-linecap:butt;stroke-linejoin:miter;marker:none;marker-start:none;marker-mid:none;marker-end:none;stroke-miterlimit:7.39194536;stroke-dasharray:none;stroke-dashoffset:0;stroke-opacity:1;visibility:visible;display:inline;overflow:visible;enable-background:accumulate"
   id="rect2688"
   width="45.299137"
   height="41.310284"
   x="976.3468"
   y="-45.609684" /><rect
   style="opacity:1;fill:none;fill-opacity:1;fill-rule:nonzero;stroke:#0000ff;stroke-width:0.00850394;stroke-linecap:butt;stroke-linejoin:miter;marker:none;marker-start:none;marker-mid:none;marker-end:none;stroke-miterlimit:7.39194536;stroke-dasharray:none;stroke-dashoffset:0;stroke-opacity:1;visibility:visible;display:inline;overflow:visible;enable-background:accumulate"
   id="rect2738"
   width="958.3952"
   height="956.32928"
   x="1219.4636"
   y="79.98127" /><rect
   style="opacity:1;fill:none;fill-opacity:1;fill-rule:nonzero;stroke:#0000ff;stroke-width:0.00850394;stroke-linecap:butt;stroke-linejoin:miter;marker:none;marker-start:none;marker-mid:none;marker-end:none;stroke-miterlimit:7.39194536;stroke-dasharray:none;stroke-dashoffset:0;stroke-opacity:1;visibility:visible;display:inline;overflow:visible;enable-background:accumulate"
   id="rect2742"
   width="48.435623"
   height="269.29135"
   x="-79.949089"
   y="1251.7009"
   transform="matrix(0,-1,1,0,0,0)" /><rect
   style="opacity:1;fill:none;fill-opacity:1;fill-rule:nonzero;stroke:#0000ff;stroke-width:0.00850394;stroke-linecap:butt;stroke-linejoin:miter;marker:none;marker-start:none;marker-mid:none;marker-end:none;stroke-miterlimit:7.39194536;stroke-dasharray:none;stroke-dashoffset:0;stroke-opacity:1;visibility:visible;display:inline;overflow:visible;enable-background:accumulate"
   id="rect2744"
   width="48.435623"
   height="269.29135"
   x="-79.949066"
   y="1819.5642"
   transform="matrix(0,-1,1,0,0,0)" /><rect
   style="opacity:1;fill:none;fill-opacity:1;fill-rule:nonzero;stroke:#0000ff;stroke-width:0.00850394;stroke-linecap:butt;stroke-linejoin:miter;marker:none;marker-start:none;marker-mid:none;marker-end:none;stroke-miterlimit:7.39194536;stroke-dasharray:none;stroke-dashoffset:0;stroke-opacity:1;visibility:visible;display:inline;overflow:visible;enable-background:accumulate"
   id="rect2746"
   width="48.435623"
   height="269.29135"
   x="-1084.3895"
   y="1251.7009"
   transform="matrix(0,-1,1,0,0,0)" /><rect
   style="opacity:1;fill:none;fill-opacity:1;fill-rule:nonzero;stroke:#0000ff;stroke-width:0.00850394;stroke-linecap:butt;stroke-linejoin:miter;marker:none;marker-start:none;marker-mid:none;marker-end:none;stroke-miterlimit:7.39194536;stroke-dasharray:none;stroke-dashoffset:0;stroke-opacity:1;visibility:visible;display:inline;overflow:visible;enable-background:accumulate"
   id="rect2748"
   width="48.435623"
   height="269.29135"
   x="-1084.3895"
   y="1819.5642"
   transform="matrix(0,-1,1,0,0,0)" /><rect
   style="opacity:1;fill:none;fill-opacity:1;fill-rule:nonzero;stroke:#00ff00;stroke-width:0.01062992;stroke-linecap:butt;stroke-linejoin:miter;marker:none;marker-start:none;marker-mid:none;marker-end:none;stroke-miterlimit:7.39194536;stroke-dasharray:none;stroke-dashoffset:0;stroke-opacity:1;visibility:visible;display:inline;overflow:visible;enable-background:accumulate"
   id="rect3520"
   width="108.05219"
   height="108.05219"
   x="2069.8066"
   y="79.98127" /><rect
   style="opacity:1;fill:none;fill-opacity:1;fill-rule:nonzero;stroke:#0000ff;stroke-width:0.00850393;stroke-linecap:butt;stroke-linejoin:miter;marker:none;marker-start:none;marker-mid:none;marker-end:none;stroke-miterlimit:7.39194536;stroke-dasharray:none;stroke-dashoffset:0;stroke-opacity:1;visibility:visible;display:inline;overflow:visible;enable-background:accumulate"
   id="rect3526"
   width="30.080412"
   height="30.07786"
   x="1391.9379"
   y="1657.8945"
   transform="matrix(0.7071068,-0.7071068,0.7071068,0.7071068,0,0)" /><rect
   style="opacity:1;fill:none;fill-opacity:1;fill-rule:nonzero;stroke:#00ff00;stroke-width:0.01062992;stroke-linecap:butt;stroke-linejoin:miter;marker:none;marker-start:none;marker-mid:none;marker-end:none;stroke-miterlimit:7.39194536;stroke-dasharray:none;stroke-dashoffset:0;stroke-opacity:1;visibility:visible;display:inline;overflow:visible;enable-background:accumulate"
   id="rect3530"
   width="108.05219"
   height="108.05219"
   x="2069.8066"
   y="928.25836" /><rect
   style="opacity:1;fill:none;fill-opacity:1;fill-rule:nonzero;stroke:#0000ff;stroke-width:0.00850393;stroke-linecap:butt;stroke-linejoin:miter;marker:none;marker-start:none;marker-mid:none;marker-end:none;stroke-miterlimit:7.39194536;stroke-dasharray:none;stroke-dashoffset:0;stroke-opacity:1;visibility:visible;display:inline;overflow:visible;enable-background:accumulate"
   id="rect3534"
   width="30.080412"
   height="30.07786"
   x="868.64771"
   y="2181.1858"
   transform="matrix(0.7071068,-0.7071068,0.7071068,0.7071068,0,0)" /></g>
</svg>