solid "Boolean_1"; Produced by Art of Illusion 2.6.1, Thu Oct 30 19:44:23 CET 2008
facet normal  -0 0.831469612303 -0.55557023302
  outer loop
    vertex  0 28.262563132924 4.737436867076
    vertex  8 28.262563132924 4.737436867076
    vertex  8 27.883210818105 4.169696006639
  endloop
endfacet
facet normal  1 0 0
  outer loop
    vertex  8 28.262563132924 2.262563132924
    vertex  8 23.116789181895 2.830303993361
    vertex  8 22.737436867076 2.262563132924
  endloop
endfacet
facet normal  -1 0 0
  outer loop
    vertex  0 23.25 3.5
    vertex  0 23.116789181895 4.169696006639
    vertex  0 28.262563132924 2.262563132924
  endloop
endfacet
facet normal  -1 0 0
  outer loop
    vertex  0 23.116789181895 4.169696006639
    vertex  0 22.737436867076 4.737436867076
    vertex  0 27.883210818105 2.830303993361
  endloop
endfacet
facet normal  -1 0 0
  outer loop
    vertex  0 28.830303993361 1.883210818105
    vertex  0 22.169696006639 1.883210818105
    vertex  0 22.737436867076 2.262563132924
  endloop
endfacet
facet normal  0 0.831469612303 -0.55557023302
  outer loop
    vertex  0 28.262563132924 4.737436867076
    vertex  8 27.883210818105 4.169696006639
    vertex  0 27.883210818105 4.169696006639
  endloop
endfacet
facet normal  1 0 0
  outer loop
    vertex  8 23.25 3.5
    vertex  8 23.116789181895 2.830303993361
    vertex  8 27.75 3.5
  endloop
endfacet
facet normal  -1 0 0
  outer loop
    vertex  0 22.169696006639 5.116789181895
    vertex  0 27.883210818105 4.169696006639
    vertex  0 22.737436867076 4.737436867076
  endloop
endfacet
facet normal  -1 -0 0
  outer loop
    vertex  0 22.169696006639 5.116789181895
    vertex  0 28.262563132924 4.737436867076
    vertex  0 27.883210818105 4.169696006639
  endloop
endfacet
facet normal  1 0 0
  outer loop
    vertex  8 28.262563132924 4.737436867076
    vertex  8 22.737436867076 4.737436867076
    vertex  8 23.116789181895 4.169696006639
  endloop
endfacet
facet normal  1 -0 -0
  outer loop
    vertex  8 22.169696006639 1.883210818105
    vertex  8 33 0
    vertex  8 28.830303993361 1.883210818105
  endloop
endfacet
facet normal  -1 0 0
  outer loop
    vertex  0 23.116789181895 4.169696006639
    vertex  0 27.883210818105 2.830303993361
    vertex  0 28.262563132924 2.262563132924
  endloop
endfacet
facet normal  1 0 0
  outer loop
    vertex  8 23.116789181895 4.169696006639
    vertex  8 23.25 3.5
    vertex  8 27.883210818105 4.169696006639
  endloop
endfacet
facet normal  1 0 0
  outer loop
    vertex  8 28.262563132924 2.262563132924
    vertex  8 22.737436867076 2.262563132924
    vertex  8 28.830303993361 1.883210818105
  endloop
endfacet
facet normal  0 0.831469612303 -0.55557023302
  outer loop
    vertex  8 19.883210818105 4.169696006639
    vertex  0 19.883210818105 4.169696006639
    vertex  0 20.262563132924 4.737436867076
  endloop
endfacet
facet normal  1 0 0
  outer loop
    vertex  8 23.116789181895 4.169696006639
    vertex  8 27.883210818105 4.169696006639
    vertex  8 28.262563132924 4.737436867076
  endloop
endfacet
facet normal  -1 0 0
  outer loop
    vertex  0 23.25 3.5
    vertex  0 28.262563132924 2.262563132924
    vertex  0 28.830303993361 1.883210818105
  endloop
endfacet
facet normal  1 -0 -0
  outer loop
    vertex  8 22.169696006639 1.883210818105
    vertex  8 28.830303993361 1.883210818105
    vertex  8 22.737436867076 2.262563132924
  endloop
endfacet
facet normal  0 -0.980785280403 0.195090322016
  outer loop
    vertex  8 23.116789181895 2.830303993361
    vertex  8 23.25 3.5
    vertex  0 23.116789181895 2.830303993361
  endloop
endfacet
facet normal  0 -0.55557023302 -0.831469612303
  outer loop
    vertex  0 22.169696006639 5.116789181895
    vertex  8 22.737436867076 4.737436867076
    vertex  8 22.169696006639 5.116789181895
  endloop
endfacet
facet normal  1 0 0
  outer loop
    vertex  8 27.75 3.5
    vertex  8 23.116789181895 2.830303993361
    vertex  8 27.883210818105 2.830303993361
  endloop
endfacet
facet normal  1 0 0
  outer loop
    vertex  8 28.830303993361 5.116789181895
    vertex  8 22.169696006639 5.116789181895
    vertex  8 28.262563132924 4.737436867076
  endloop
endfacet
facet normal  0 0 -1
  outer loop
    vertex  0 18 0
    vertex  0 33 0
    vertex  8 33 0
  endloop
endfacet
facet normal  -1 0 0
  outer loop
    vertex  0 19.883210818105 4.169696006639
    vertex  0 19.75 3.5
    vertex  0 18 0
  endloop
endfacet
facet normal  -1 -0 -0
  outer loop
    vertex  0 33 0
    vertex  0 28.830303993361 1.883210818105
    vertex  0 29.5 1.75
  endloop
endfacet
facet normal  0 0.980785280403 -0.195090322016
  outer loop
    vertex  0 27.75 3.5
    vertex  0 27.883210818105 4.169696006639
    vertex  8 27.883210818105 4.169696006639
  endloop
endfacet
facet normal  1 0 0
  outer loop
    vertex  8 18 0
    vertex  8 19.883210818105 2.830303993361
    vertex  8 19.75 3.5
  endloop
endfacet
facet normal  1 0 0
  outer loop
    vertex  8 28.262563132924 4.737436867076
    vertex  8 22.169696006639 5.116789181895
    vertex  8 22.737436867076 4.737436867076
  endloop
endfacet
facet normal  -0 -0.55557023302 0.831469612303
  outer loop
    vertex  0 22.737436867076 2.262563132924
    vertex  8 22.169696006639 1.883210818105
    vertex  8 22.737436867076 2.262563132924
  endloop
endfacet
facet normal  1 -0 0
  outer loop
    vertex  8 33 0
    vertex  8 30.169696006639 1.883210818105
    vertex  8 29.5 1.75
  endloop
endfacet
facet normal  -1 0 0
  outer loop
    vertex  0 28.830303993361 1.883210818105
    vertex  0 18 0
    vertex  0 22.169696006639 1.883210818105
  endloop
endfacet
facet normal  0 -0.980785280403 0.195090322016
  outer loop
    vertex  0 23.116789181895 2.830303993361
    vertex  8 23.25 3.5
    vertex  0 23.25 3.5
  endloop
endfacet
facet normal  -1 0 0
  outer loop
    vertex  0 28.262563132924 4.737436867076
    vertex  0 21.5 5.25
    vertex  0 28.830303993361 5.116789181895
  endloop
endfacet
facet normal  -1 -0 -0
  outer loop
    vertex  0 28.262563132924 4.737436867076
    vertex  0 22.169696006639 5.116789181895
    vertex  0 21.5 5.25
  endloop
endfacet
facet normal  0 0 -1
  outer loop
    vertex  8 18 0
    vertex  0 18 0
    vertex  8 33 0
  endloop
endfacet
facet normal  -1 0 0
  outer loop
    vertex  0 28.830303993361 1.883210818105
    vertex  0 33 0
    vertex  0 18 0
  endloop
endfacet
facet normal  0 -0.980785280403 0.195090322016
  outer loop
    vertex  0 31.25 3.5
    vertex  0 31.116789181895 2.830303993361
    vertex  8 31.116789181895 2.830303993361
  endloop
endfacet
facet normal  0 0.980785280403 0.195090322016
  outer loop
    vertex  0 19.883210818105 2.830303993361
    vertex  8 19.75 3.5
    vertex  8 19.883210818105 2.830303993361
  endloop
endfacet
facet normal  0 -0.980785280403 -0.195090322016
  outer loop
    vertex  0 31.116789181895 4.169696006639
    vertex  0 31.25 3.5
    vertex  8 31.25 3.5
  endloop
endfacet
facet normal  -0 -0.831469612303 0.55557023302
  outer loop
    vertex  8 22.737436867076 2.262563132924
    vertex  0 23.116789181895 2.830303993361
    vertex  0 22.737436867076 2.262563132924
  endloop
endfacet
facet normal  0 0.831469612303 0.55557023302
  outer loop
    vertex  0 28.262563132924 2.262563132924
    vertex  8 27.883210818105 2.830303993361
    vertex  8 28.262563132924 2.262563132924
  endloop
endfacet
facet normal  -0 -0.55557023302 -0.831469612303
  outer loop
    vertex  8 22.737436867076 4.737436867076
    vertex  0 22.169696006639 5.116789181895
    vertex  0 22.737436867076 4.737436867076
  endloop
endfacet
facet normal  -0 0.55557023302 0.831469612303
  outer loop
    vertex  8 20.262563132924 2.262563132924
    vertex  0 20.830303993361 1.883210818105
    vertex  0 20.262563132924 2.262563132924
  endloop
endfacet
facet normal  0 0.195090322016 -0.980785280403
  outer loop
    vertex  0 28.830303993361 5.116789181895
    vertex  8 29.5 5.25
    vertex  8 28.830303993361 5.116789181895
  endloop
endfacet
facet normal  -1 0 0
  outer loop
    vertex  0 31.25 3.5
    vertex  0 33 0
    vertex  0 31.116789181895 2.830303993361
  endloop
endfacet
facet normal  0 -0.55557023302 0.831469612303
  outer loop
    vertex  8 22.169696006639 1.883210818105
    vertex  0 22.737436867076 2.262563132924
    vertex  0 22.169696006639 1.883210818105
  endloop
endfacet
facet normal  0 -0.195090322016 0.980785280403
  outer loop
    vertex  0 22.169696006639 1.883210818105
    vertex  8 21.5 1.75
    vertex  8 22.169696006639 1.883210818105
  endloop
endfacet
facet normal  0 0.55557023302 0.831469612303
  outer loop
    vertex  0 20.830303993361 1.883210818105
    vertex  8 20.262563132924 2.262563132924
    vertex  8 20.830303993361 1.883210818105
  endloop
endfacet
facet normal  0 0.980785280403 0.195090322016
  outer loop
    vertex  0 27.883210818105 2.830303993361
    vertex  8 27.75 3.5
    vertex  8 27.883210818105 2.830303993361
  endloop
endfacet
facet normal  0 -0.831469612303 0.55557023302
  outer loop
    vertex  0 23.116789181895 2.830303993361
    vertex  8 22.737436867076 2.262563132924
    vertex  8 23.116789181895 2.830303993361
  endloop
endfacet
facet normal  -1 0 0
  outer loop
    vertex  0 27.883210818105 2.830303993361
    vertex  0 22.737436867076 4.737436867076
    vertex  0 27.75 3.5
  endloop
endfacet
facet normal  0 0.195090322016 -0.980785280403
  outer loop
    vertex  8 29.5 5.25
    vertex  0 28.830303993361 5.116789181895
    vertex  0 29.5 5.25
  endloop
endfacet
facet normal  -0 -0.195090322016 0.980785280403
  outer loop
    vertex  8 30.169696006639 1.883210818105
    vertex  0 30.169696006639 1.883210818105
    vertex  0 29.5 1.75
  endloop
endfacet
facet normal  -0 0.195090322016 0.980785280403
  outer loop
    vertex  8 28.830303993361 1.883210818105
    vertex  0 29.5 1.75
    vertex  0 28.830303993361 1.883210818105
  endloop
endfacet
facet normal  0 -0.195090322016 -0.980785280403
  outer loop
    vertex  0 21.5 5.25
    vertex  8 22.169696006639 5.116789181895
    vertex  8 21.5 5.25
  endloop
endfacet
facet normal  1 0 0
  outer loop
    vertex  8 33 0
    vertex  8 31.25 3.5
    vertex  8 31.116789181895 2.830303993361
  endloop
endfacet
facet normal  -0 -0.55557023302 0.831469612303
  outer loop
    vertex  0 30.737436867076 2.262563132924
    vertex  8 30.169696006639 1.883210818105
    vertex  8 30.737436867076 2.262563132924
  endloop
endfacet
facet normal  1 -0 -0
  outer loop
    vertex  8 30.169696006639 1.883210818105
    vertex  8 33 0
    vertex  8 30.737436867076 2.262563132924
  endloop
endfacet
facet normal  0 0.195090322016 -0.980785280403
  outer loop
    vertex  8 21.5 5.25
    vertex  8 20.830303993361 5.116789181895
    vertex  0 20.830303993361 5.116789181895
  endloop
endfacet
facet normal  0 0.831469612303 0.55557023302
  outer loop
    vertex  8 27.883210818105 2.830303993361
    vertex  0 28.262563132924 2.262563132924
    vertex  0 27.883210818105 2.830303993361
  endloop
endfacet
facet normal  -1 -0 0
  outer loop
    vertex  0 21.5 1.75
    vertex  0 18 0
    vertex  0 20.830303993361 1.883210818105
  endloop
endfacet
facet normal  1 0 0
  outer loop
    vertex  8 28.830303993361 1.883210818105
    vertex  8 33 0
    vertex  8 29.5 1.75
  endloop
endfacet
facet normal  -1 0 -0
  outer loop
    vertex  0 33 0
    vertex  0 29.5 1.75
    vertex  0 30.169696006639 1.883210818105
  endloop
endfacet
facet normal  1 0 0
  outer loop
    vertex  8 27.883210818105 2.830303993361
    vertex  8 23.116789181895 2.830303993361
    vertex  8 28.262563132924 2.262563132924
  endloop
endfacet
facet normal  0 0.195090322016 -0.980785280403
  outer loop
    vertex  0 20.830303993361 5.116789181895
    vertex  0 21.5 5.25
    vertex  8 21.5 5.25
  endloop
endfacet
facet normal  0 0.195090322016 0.980785280403
  outer loop
    vertex  8 20.830303993361 1.883210818105
    vertex  0 21.5 1.75
    vertex  0 20.830303993361 1.883210818105
  endloop
endfacet
facet normal  -0 0.195090322016 0.980785280403
  outer loop
    vertex  0 29.5 1.75
    vertex  8 28.830303993361 1.883210818105
    vertex  8 29.5 1.75
  endloop
endfacet
facet normal  -1 0 0
  outer loop
    vertex  0 30.737436867076 2.262563132924
    vertex  0 33 0
    vertex  0 30.169696006639 1.883210818105
  endloop
endfacet
facet normal  -1 0 0
  outer loop
    vertex  0 31.116789181895 4.169696006639
    vertex  0 33 0
    vertex  0 31.25 3.5
  endloop
endfacet
facet normal  -1 0 0
  outer loop
    vertex  0 19.883210818105 2.830303993361
    vertex  0 20.262563132924 2.262563132924
    vertex  0 18 0
  endloop
endfacet
facet normal  0 -0.195090322016 -0.980785280403
  outer loop
    vertex  8 30.169696006639 5.116789181895
    vertex  8 29.5 5.25
    vertex  0 29.5 5.25
  endloop
endfacet
facet normal  1 -0 0
  outer loop
    vertex  8 18 0
    vertex  8 22.169696006639 1.883210818105
    vertex  8 21.5 1.75
  endloop
endfacet
facet normal  1 0 0
  outer loop
    vertex  8 33 0
    vertex  8 31.116789181895 4.169696006639
    vertex  8 31.25 3.5
  endloop
endfacet
facet normal  -0 -0.831469612303 -0.55557023302
  outer loop
    vertex  8 31.116789181895 4.169696006639
    vertex  0 30.737436867076 4.737436867076
    vertex  0 31.116789181895 4.169696006639
  endloop
endfacet
facet normal  -0 0.831469612303 0.55557023302
  outer loop
    vertex  8 20.262563132924 2.262563132924
    vertex  0 20.262563132924 2.262563132924
    vertex  0 19.883210818105 2.830303993361
  endloop
endfacet
facet normal  -0 -0.195090322016 -0.980785280403
  outer loop
    vertex  8 30.169696006639 5.116789181895
    vertex  0 29.5 5.25
    vertex  0 30.169696006639 5.116789181895
  endloop
endfacet
facet normal  -0 -0.195090322016 0.980785280403
  outer loop
    vertex  8 30.169696006639 1.883210818105
    vertex  0 29.5 1.75
    vertex  8 29.5 1.75
  endloop
endfacet
facet normal  -1 0 0
  outer loop
    vertex  0 33 0
    vertex  0 30.737436867076 2.262563132924
    vertex  0 31.116789181895 2.830303993361
  endloop
endfacet
facet normal  0 -0.55557023302 -0.831469612303
  outer loop
    vertex  8 30.737436867076 4.737436867076
    vertex  0 30.169696006639 5.116789181895
    vertex  0 30.737436867076 4.737436867076
  endloop
endfacet
facet normal  0 0.195090322016 0.980785280403
  outer loop
    vertex  8 20.830303993361 1.883210818105
    vertex  8 21.5 1.75
    vertex  0 21.5 1.75
  endloop
endfacet
facet normal  0 0.55557023302 -0.831469612303
  outer loop
    vertex  0 28.262563132924 4.737436867076
    vertex  0 28.830303993361 5.116789181895
    vertex  8 28.830303993361 5.116789181895
  endloop
endfacet
facet normal  -0 -0.831469612303 -0.55557023302
  outer loop
    vertex  8 22.737436867076 4.737436867076
    vertex  0 22.737436867076 4.737436867076
    vertex  0 23.116789181895 4.169696006639
  endloop
endfacet
facet normal  0 0.980785280403 -0.195090322016
  outer loop
    vertex  8 27.75 3.5
    vertex  0 27.75 3.5
    vertex  8 27.883210818105 4.169696006639
  endloop
endfacet
facet normal  -1 0 0
  outer loop
    vertex  0 20.262563132924 2.262563132924
    vertex  0 20.830303993361 1.883210818105
    vertex  0 18 0
  endloop
endfacet
facet normal  0 -0.831469612303 0.55557023302
  outer loop
    vertex  8 31.116789181895 2.830303993361
    vertex  0 31.116789181895 2.830303993361
    vertex  8 30.737436867076 2.262563132924
  endloop
endfacet
facet normal  0 0.55557023302 0.831469612303
  outer loop
    vertex  8 28.262563132924 2.262563132924
    vertex  0 28.830303993361 1.883210818105
    vertex  0 28.262563132924 2.262563132924
  endloop
endfacet
facet normal  0 0.831469612303 0.55557023302
  outer loop
    vertex  8 20.262563132924 2.262563132924
    vertex  0 19.883210818105 2.830303993361
    vertex  8 19.883210818105 2.830303993361
  endloop
endfacet
facet normal  1 0 0
  outer loop
    vertex  8 20.830303993361 1.883210818105
    vertex  8 18 0
    vertex  8 21.5 1.75
  endloop
endfacet
facet normal  -0 0.980785280403 0.195090322016
  outer loop
    vertex  0 19.75 3.5
    vertex  8 19.75 3.5
    vertex  0 19.883210818105 2.830303993361
  endloop
endfacet
facet normal  0 0.980785280403 -0.195090322016
  outer loop
    vertex  8 19.75 3.5
    vertex  0 19.883210818105 4.169696006639
    vertex  8 19.883210818105 4.169696006639
  endloop
endfacet
facet normal  -0 -0.980785280403 -0.195090322016
  outer loop
    vertex  8 31.25 3.5
    vertex  8 31.116789181895 4.169696006639
    vertex  0 31.116789181895 4.169696006639
  endloop
endfacet
facet normal  -0 -0.831469612303 -0.55557023302
  outer loop
    vertex  8 22.737436867076 4.737436867076
    vertex  0 23.116789181895 4.169696006639
    vertex  8 23.116789181895 4.169696006639
  endloop
endfacet
facet normal  -0 -0.980785280403 -0.195090322016
  outer loop
    vertex  8 23.116789181895 4.169696006639
    vertex  0 23.116789181895 4.169696006639
    vertex  0 23.25 3.5
  endloop
endfacet
facet normal  0 0.55557023302 -0.831469612303
  outer loop
    vertex  0 20.830303993361 5.116789181895
    vertex  8 20.830303993361 5.116789181895
    vertex  0 20.262563132924 4.737436867076
  endloop
endfacet
facet normal  -0 0.980785280403 -0.195090322016
  outer loop
    vertex  8 19.75 3.5
    vertex  0 19.75 3.5
    vertex  0 19.883210818105 4.169696006639
  endloop
endfacet
facet normal  -0 -0.55557023302 -0.831469612303
  outer loop
    vertex  8 30.737436867076 4.737436867076
    vertex  8 30.169696006639 5.116789181895
    vertex  0 30.169696006639 5.116789181895
  endloop
endfacet
facet normal  0 -0.195090322016 0.980785280403
  outer loop
    vertex  8 21.5 1.75
    vertex  0 22.169696006639 1.883210818105
    vertex  0 21.5 1.75
  endloop
endfacet
facet normal  0 -0.195090322016 -0.980785280403
  outer loop
    vertex  0 21.5 5.25
    vertex  0 22.169696006639 5.116789181895
    vertex  8 22.169696006639 5.116789181895
  endloop
endfacet
facet normal  1 0 0
  outer loop
    vertex  8 18 0
    vertex  8 33 0
    vertex  8 22.169696006639 1.883210818105
  endloop
endfacet
facet normal  -0 0.55557023302 0.831469612303
  outer loop
    vertex  8 28.830303993361 1.883210818105
    vertex  0 28.830303993361 1.883210818105
    vertex  8 28.262563132924 2.262563132924
  endloop
endfacet
facet normal  1 0 0
  outer loop
    vertex  8 19.883210818105 4.169696006639
    vertex  8 18 0
    vertex  8 19.75 3.5
  endloop
endfacet
facet normal  -0 0.55557023302 -0.831469612303
  outer loop
    vertex  0 20.262563132924 4.737436867076
    vertex  8 20.830303993361 5.116789181895
    vertex  8 20.262563132924 4.737436867076
  endloop
endfacet
facet normal  0 -0.980785280403 -0.195090322016
  outer loop
    vertex  8 23.116789181895 4.169696006639
    vertex  0 23.25 3.5
    vertex  8 23.25 3.5
  endloop
endfacet
facet normal  0 0.980785280403 0.195090322016
  outer loop
    vertex  8 27.75 3.5
    vertex  0 27.883210818105 2.830303993361
    vertex  0 27.75 3.5
  endloop
endfacet
facet normal  -1 0 -0
  outer loop
    vertex  0 18 0
    vertex  0 19.75 3.5
    vertex  0 19.883210818105 2.830303993361
  endloop
endfacet
facet normal  -0 -0.831469612303 0.55557023302
  outer loop
    vertex  0 31.116789181895 2.830303993361
    vertex  0 30.737436867076 2.262563132924
    vertex  8 30.737436867076 2.262563132924
  endloop
endfacet
facet normal  1 0 0
  outer loop
    vertex  8 33 0
    vertex  8 31.116789181895 2.830303993361
    vertex  8 30.737436867076 2.262563132924
  endloop
endfacet
facet normal  1 0 -0
  outer loop
    vertex  8 18 0
    vertex  8 20.830303993361 1.883210818105
    vertex  8 20.262563132924 2.262563132924
  endloop
endfacet
facet normal  1 0 0
  outer loop
    vertex  8 18 0
    vertex  8 20.262563132924 2.262563132924
    vertex  8 19.883210818105 2.830303993361
  endloop
endfacet
facet normal  -0 -0.55557023302 0.831469612303
  outer loop
    vertex  8 30.169696006639 1.883210818105
    vertex  0 30.737436867076 2.262563132924
    vertex  0 30.169696006639 1.883210818105
  endloop
endfacet
facet normal  0 -0.980785280403 0.195090322016
  outer loop
    vertex  8 31.25 3.5
    vertex  0 31.25 3.5
    vertex  8 31.116789181895 2.830303993361
  endloop
endfacet
facet normal  0 -0.831469612303 -0.55557023302
  outer loop
    vertex  8 30.737436867076 4.737436867076
    vertex  0 30.737436867076 4.737436867076
    vertex  8 31.116789181895 4.169696006639
  endloop
endfacet
facet normal  -0 0.55557023302 -0.831469612303
  outer loop
    vertex  8 28.830303993361 5.116789181895
    vertex  8 28.262563132924 4.737436867076
    vertex  0 28.262563132924 4.737436867076
  endloop
endfacet
facet normal  -1 0 0
  outer loop
    vertex  0 22.169696006639 1.883210818105
    vertex  0 18 0
    vertex  0 21.5 1.75
  endloop
endfacet
facet normal  -0 0.831469612303 -0.55557023302
  outer loop
    vertex  8 19.883210818105 4.169696006639
    vertex  0 20.262563132924 4.737436867076
    vertex  8 20.262563132924 4.737436867076
  endloop
endfacet
facet normal  -1 0 0
  outer loop
    vertex  0 28.830303993361 1.883210818105
    vertex  0 22.737436867076 2.262563132924
    vertex  0 23.116789181895 2.830303993361
  endloop
endfacet
facet normal  1 0 0
  outer loop
    vertex  8 23.25 3.5
    vertex  8 27.75 3.5
    vertex  8 27.883210818105 4.169696006639
  endloop
endfacet
facet normal  -1 0 0
  outer loop
    vertex  0 22.737436867076 4.737436867076
    vertex  0 27.883210818105 4.169696006639
    vertex  0 27.75 3.5
  endloop
endfacet
facet normal  -1 0 0
  outer loop
    vertex  0 28.830303993361 1.883210818105
    vertex  0 23.116789181895 2.830303993361
    vertex  0 23.25 3.5
  endloop
endfacet
facet normal  -1 0 0
  outer loop
    vertex  0 20.262563132924 4.737436867076
    vertex  0 20.008700732033 8
    vertex  0 20.25 8
  endloop
endfacet
facet normal  -1 0 0
  outer loop
    vertex  0 20.830303993361 5.116789181895
    vertex  0 20.262563132924 4.737436867076
    vertex  0 20.25 8
  endloop
endfacet
facet normal  -1 -0 -0
  outer loop
    vertex  0 19.504240666758 8
    vertex  0 19.883210818105 4.169696006639
    vertex  0 19.370895989854 8
  endloop
endfacet
facet normal  1 0 0
  outer loop
    vertex  8 22.169696006639 5.116789181895
    vertex  8 19.707768172195 8
    vertex  8 19.473684210526 8
  endloop
endfacet
facet normal  1 0 0
  outer loop
    vertex  8 22.169696006639 5.116789181895
    vertex  8 19.473684210526 8
    vertex  8 21.5 5.25
  endloop
endfacet
facet normal  -1 -0 -0
  outer loop
    vertex  0 19.883210818105 4.169696006639
    vertex  0 19.504240666758 8
    vertex  0 19.833825281706 8
  endloop
endfacet
facet normal  -1 -0 -0
  outer loop
    vertex  0 19.883210818105 4.169696006639
    vertex  0 19.833825281706 8
    vertex  0 20.262563132924 4.737436867076
  endloop
endfacet
facet normal  1 0 0
  outer loop
    vertex  8 22.435730668521 8
    vertex  8 28.830303993361 5.116789181895
    vertex  8 30.25 8
  endloop
endfacet
facet normal  -1 0 0
  outer loop
    vertex  0 31.116789181895 4.169696006639
    vertex  0 31.318106757048 8
    vertex  0 33 8
  endloop
endfacet
facet normal  -1 0 0
  outer loop
    vertex  0 31.116789181895 4.169696006639
    vertex  0 33 8
    vertex  0 33 0
  endloop
endfacet
facet normal  -1 0 0
  outer loop
    vertex  0 31.318106757048 8
    vertex  0 31.116789181895 4.169696006639
    vertex  0 31.116789181895 8
  endloop
endfacet
facet normal  -1 0 0
  outer loop
    vertex  0 20.008700732033 8
    vertex  0 20.262563132924 4.737436867076
    vertex  0 19.833825281706 8
  endloop
endfacet
facet normal  -1 0 0
  outer loop
    vertex  0 18 0
    vertex  0 18 8
    vertex  0 19.370895989854 8
  endloop
endfacet
facet normal  -1 0 0
  outer loop
    vertex  0 18 0
    vertex  0 19.370895989854 8
    vertex  0 19.883210818105 4.169696006639
  endloop
endfacet
facet normal  -1 0 0
  outer loop
    vertex  0 30.737436867076 4.737436867076
    vertex  0 30.777242166205 8
    vertex  0 31.116789181895 8
  endloop
endfacet
facet normal  -1 0 0
  outer loop
    vertex  0 30.737436867076 4.737436867076
    vertex  0 31.116789181895 8
    vertex  0 31.116789181895 4.169696006639
  endloop
endfacet
facet normal  -1 -0 0
  outer loop
    vertex  0 30.777242166205 8
    vertex  0 30.737436867076 4.737436867076
    vertex  0 30.737436867076 8
  endloop
endfacet
facet normal  1 0 0
  outer loop
    vertex  8 28.830303993361 5.116789181895
    vertex  8 22.435730668521 8
    vertex  8 19.707768172195 8
  endloop
endfacet
facet normal  1 0 0
  outer loop
    vertex  8 28.830303993361 5.116789181895
    vertex  8 19.707768172195 8
    vertex  8 22.169696006639 5.116789181895
  endloop
endfacet
facet normal  -1 -0 -0
  outer loop
    vertex  0 29.5 8
    vertex  0 29.5 5.25
    vertex  0 28.754237288136 8
  endloop
endfacet
facet normal  -1 0 0
  outer loop
    vertex  0 21.5 5.25
    vertex  0 21.153872539789 8
    vertex  0 26.914086105383 8
  endloop
endfacet
facet normal  -1 0 0
  outer loop
    vertex  0 21.5 5.25
    vertex  0 26.914086105383 8
    vertex  0 28.830303993361 5.116789181895
  endloop
endfacet
facet normal  -1 0 0
  outer loop
    vertex  0 30.223996041972 8
    vertex  0 30.169696006639 5.116789181895
    vertex  0 30.169696006639 8
  endloop
endfacet
facet normal  -1 -0 -0
  outer loop
    vertex  0 21.153872539789 8
    vertex  0 21.5 5.25
    vertex  0 21.016664086065 8
  endloop
endfacet
facet normal  -1 0 0
  outer loop
    vertex  0 29.562148649013 8
    vertex  0 29.5 5.25
    vertex  0 29.5 8
  endloop
endfacet
facet normal  -1 0 0
  outer loop
    vertex  0 20.830303993361 5.116789181895
    vertex  0 20.47524590536 8
    vertex  0 21.016664086065 8
  endloop
endfacet
facet normal  -1 0 0
  outer loop
    vertex  0 20.830303993361 5.116789181895
    vertex  0 21.016664086065 8
    vertex  0 21.5 5.25
  endloop
endfacet
facet normal  -1 0 -0
  outer loop
    vertex  0 30.169696006639 5.116789181895
    vertex  0 30.223996041972 8
    vertex  0 30.737436867076 8
  endloop
endfacet
facet normal  -1 0 0
  outer loop
    vertex  0 30.169696006639 5.116789181895
    vertex  0 30.737436867076 8
    vertex  0 30.737436867076 4.737436867076
  endloop
endfacet
facet normal  -1 -0 -0
  outer loop
    vertex  0 28.185149623206 8
    vertex  0 28.830303993361 5.116789181895
    vertex  0 27.75 8
  endloop
endfacet
facet normal  -1 0 0
  outer loop
    vertex  0 29.5 5.25
    vertex  0 29.562148649013 8
    vertex  0 30.169696006639 8
  endloop
endfacet
facet normal  -1 0 0
  outer loop
    vertex  0 29.5 5.25
    vertex  0 30.169696006639 8
    vertex  0 30.169696006639 5.116789181895
  endloop
endfacet
facet normal  -1 0 0
  outer loop
    vertex  0 28.830303993361 5.116789181895
    vertex  0 28.185149623206 8
    vertex  0 28.754237288136 8
  endloop
endfacet
facet normal  -1 0 0
  outer loop
    vertex  0 28.830303993361 5.116789181895
    vertex  0 28.754237288136 8
    vertex  0 29.5 5.25
  endloop
endfacet
facet normal  1 0 0
  outer loop
    vertex  8 29.5 5.25
    vertex  8 31.526315789474 8
    vertex  8 31.292231827805 8
  endloop
endfacet
facet normal  1 0 0
  outer loop
    vertex  8 29.5 5.25
    vertex  8 31.292231827805 8
    vertex  8 28.830303993361 5.116789181895
  endloop
endfacet
facet normal  1 0 0
  outer loop
    vertex  8 33 0
    vertex  8 33 8
    vertex  8 32.353992237712 8
  endloop
endfacet
facet normal  1 0 0
  outer loop
    vertex  8 33 0
    vertex  8 32.353992237712 8
    vertex  8 31.116789181895 4.169696006639
  endloop
endfacet
facet normal  1 0 0
  outer loop
    vertex  8 31.116789181895 4.169696006639
    vertex  8 32.353992237712 8
    vertex  8 32.140128839968 8
  endloop
endfacet
facet normal  1 0 0
  outer loop
    vertex  8 31.116789181895 4.169696006639
    vertex  8 32.140128839968 8
    vertex  8 30.737436867076 4.737436867076
  endloop
endfacet
facet normal  0 1 0
  outer loop
    vertex  0 33 0
    vertex  8 33 8
    vertex  8 33 0
  endloop
endfacet
facet normal  1 0 0
  outer loop
    vertex  8 20.262563132924 4.737436867076
    vertex  8 18.859871160032 8
    vertex  8 18.646007762288 8
  endloop
endfacet
facet normal  1 0 0
  outer loop
    vertex  8 20.262563132924 4.737436867076
    vertex  8 18.646007762288 8
    vertex  8 19.883210818105 4.169696006639
  endloop
endfacet
facet normal  1 0 0
  outer loop
    vertex  8 20.830303993361 5.116789181895
    vertex  8 19.159197953472 8
    vertex  8 18.859871160032 8
  endloop
endfacet
facet normal  1 0 0
  outer loop
    vertex  8 20.830303993361 5.116789181895
    vertex  8 18.859871160032 8
    vertex  8 20.262563132924 4.737436867076
  endloop
endfacet
facet normal  1 0 0
  outer loop
    vertex  8 30.169696006639 5.116789181895
    vertex  8 31.840802046528 8
    vertex  8 31.526315789474 8
  endloop
endfacet
facet normal  1 0 0
  outer loop
    vertex  8 30.169696006639 5.116789181895
    vertex  8 31.526315789474 8
    vertex  8 29.5 5.25
  endloop
endfacet
facet normal  1 0 0
  outer loop
    vertex  8 30.737436867076 4.737436867076
    vertex  8 32.140128839968 8
    vertex  8 31.840802046528 8
  endloop
endfacet
facet normal  1 0 0
  outer loop
    vertex  8 30.737436867076 4.737436867076
    vertex  8 31.840802046528 8
    vertex  8 30.169696006639 5.116789181895
  endloop
endfacet
facet normal  1 0 0
  outer loop
    vertex  8 19.883210818105 4.169696006639
    vertex  8 18.646007762288 8
    vertex  8 18 8
  endloop
endfacet
facet normal  1 0 0
  outer loop
    vertex  8 19.883210818105 4.169696006639
    vertex  8 18 8
    vertex  8 18 0
  endloop
endfacet
facet normal  0 1 0
  outer loop
    vertex  2.133333333333 33 8
    vertex  0 33 0
    vertex  0 33 8
  endloop
endfacet
facet normal  0 1 0
  outer loop
    vertex  6.4 33 8
    vertex  0 33 0
    vertex  2.133333333333 33 8
  endloop
endfacet
facet normal  0 -1 0
  outer loop
    vertex  8 18 0
    vertex  0 18 8
    vertex  0 18 0
  endloop
endfacet
facet normal  0 -1 0
  outer loop
    vertex  4.493046184182 18 8
    vertex  8 18 0
    vertex  7.8 18 8
  endloop
endfacet
facet normal  1 0 0
  outer loop
    vertex  8 21.5 5.25
    vertex  8 19.473684210526 8
    vertex  8 19.159197953472 8
  endloop
endfacet
facet normal  1 0 0
  outer loop
    vertex  8 21.5 5.25
    vertex  8 19.159197953472 8
    vertex  8 20.830303993361 5.116789181895
  endloop
endfacet
facet normal  -1 0 0
  outer loop
    vertex  0 20.47524590536 8
    vertex  0 20.830303993361 5.116789181895
    vertex  0 20.25 8
  endloop
endfacet
facet normal  1 0 0
  outer loop
    vertex  8 28.830303993361 5.116789181895
    vertex  8 31.292231827805 8
    vertex  8 30.25 8
  endloop
endfacet
facet normal  -1 0 0
  outer loop
    vertex  0 28.830303993361 5.116789181895
    vertex  0 26.914086105383 8
    vertex  0 27.75 8
  endloop
endfacet
facet normal  0 -1 0
  outer loop
    vertex  8 18 0
    vertex  8 18 8
    vertex  7.8 18 8
  endloop
endfacet
facet normal  0 1 0
  outer loop
    vertex  6.4 33 8
    vertex  6.898419883451 33 8
    vertex  0 33 0
  endloop
endfacet
facet normal  0 1 0
  outer loop
    vertex  6.898419883451 33 8
    vertex  8 33 8
    vertex  0 33 0
  endloop
endfacet
facet normal  -0 -1 -0
  outer loop
    vertex  4.493046184182 18 8
    vertex  3.677285496108 18 8
    vertex  8 18 0
  endloop
endfacet
facet normal  0 -1 0
  outer loop
    vertex  3.006163490319 18 8
    vertex  2.807698364831 18 8
    vertex  8 18 0
  endloop
endfacet
facet normal  0 -1 0
  outer loop
    vertex  2.807698364831 18 8
    vertex  0 18 8
    vertex  8 18 0
  endloop
endfacet
facet normal  -0 -1 -0
  outer loop
    vertex  3.677285496108 18 8
    vertex  3.457778922866 18 8
    vertex  8 18 0
  endloop
endfacet
facet normal  0 -1 0
  outer loop
    vertex  3.457778922866 18 8
    vertex  3.006163490319 18 8
    vertex  8 18 0
  endloop
endfacet
facet normal  0 -0 1
  outer loop
    vertex  3 24 8
    vertex  0 20.25 8
    vertex  0 20.008700732033 8
  endloop
endfacet
facet normal  0 0 1
  outer loop
    vertex  3 24 8
    vertex  8 19.473684210526 8
    vertex  8 19.707768172195 8
  endloop
endfacet
facet normal  0 0 1
  outer loop
    vertex  3 24 8
    vertex  0 26.914086105383 8
    vertex  0 21.153872539789 8
  endloop
endfacet
facet normal  0 0 1
  outer loop
    vertex  0 20.008700732033 8
    vertex  3.677285496108 18 8
    vertex  4.493046184182 18 8
  endloop
endfacet
facet normal  0 0 1
  outer loop
    vertex  3 24 8
    vertex  0 20.008700732033 8
    vertex  4.493046184182 18 8
  endloop
endfacet
facet normal  0 0 1
  outer loop
    vertex  3 24 8
    vertex  8 18.646007762288 8
    vertex  8 18.859871160032 8
  endloop
endfacet
facet normal  0 0 1
  outer loop
    vertex  8 30.25 8
    vertex  3 24 8
    vertex  8 22.435730668521 8
  endloop
endfacet
facet normal  0 0 1
  outer loop
    vertex  3 24 8
    vertex  8 19.707768172195 8
    vertex  8 22.435730668521 8
  endloop
endfacet
facet normal  0 0 1
  outer loop
    vertex  0 31.318106757048 8
    vertex  6.898419883451 33 8
    vertex  6.4 33 8
  endloop
endfacet
facet normal  0 0 1
  outer loop
    vertex  0 31.318106757048 8
    vertex  8 31.292231827805 8
    vertex  8 31.526315789474 8
  endloop
endfacet
facet normal  0 0 1
  outer loop
    vertex  0 31.318106757048 8
    vertex  3 24 8
    vertex  8 31.292231827805 8
  endloop
endfacet
facet normal  0 0 1
  outer loop
    vertex  3 24 8
    vertex  0 31.318106757048 8
    vertex  0 31.116789181895 8
  endloop
endfacet
facet normal  0 0 1
  outer loop
    vertex  3 24 8
    vertex  0 21.153872539789 8
    vertex  0 21.016664086065 8
  endloop
endfacet
facet normal  0 0 1
  outer loop
    vertex  3 24 8
    vertex  0 27.75 8
    vertex  0 26.914086105383 8
  endloop
endfacet
facet normal  0 0 1
  outer loop
    vertex  0 19.370895989854 8
    vertex  2.807698364831 18 8
    vertex  3.006163490319 18 8
  endloop
endfacet
facet normal  -0 0 1
  outer loop
    vertex  0 19.370895989854 8
    vertex  3.006163490319 18 8
    vertex  0 19.504240666758 8
  endloop
endfacet
facet normal  0 0 1
  outer loop
    vertex  7.8 18 8
    vertex  3 24 8
    vertex  4.493046184182 18 8
  endloop
endfacet
facet normal  0 0 1
  outer loop
    vertex  8 18.646007762288 8
    vertex  3 24 8
    vertex  8 18 8
  endloop
endfacet
facet normal  0 0 1
  outer loop
    vertex  8 18.859871160032 8
    vertex  8 19.159197953472 8
    vertex  3 24 8
  endloop
endfacet
facet normal  0 0 1
  outer loop
    vertex  8 19.159197953472 8
    vertex  8 19.473684210526 8
    vertex  3 24 8
  endloop
endfacet
facet normal  0 0 1
  outer loop
    vertex  6.4 33 8
    vertex  2.133333333333 33 8
    vertex  0 31.318106757048 8
  endloop
endfacet
facet normal  0 0 1
  outer loop
    vertex  2.133333333333 33 8
    vertex  0 33 8
    vertex  0 31.318106757048 8
  endloop
endfacet
facet normal  0 0 1
  outer loop
    vertex  0 31.318106757048 8
    vertex  8 32.353992237712 8
    vertex  8 33 8
  endloop
endfacet
facet normal  0 0 1
  outer loop
    vertex  3 24 8
    vertex  8 30.25 8
    vertex  8 31.292231827805 8
  endloop
endfacet
facet normal  0 0 1
  outer loop
    vertex  3 24 8
    vertex  0 31.116789181895 8
    vertex  0 30.777242166205 8
  endloop
endfacet
facet normal  0 0 1
  outer loop
    vertex  3 24 8
    vertex  0 21.016664086065 8
    vertex  0 20.47524590536 8
  endloop
endfacet
facet normal  -0 0 1
  outer loop
    vertex  2.807698364831 18 8
    vertex  0 19.370895989854 8
    vertex  0 18 8
  endloop
endfacet
facet normal  -0 -0 1
  outer loop
    vertex  0 19.833825281706 8
    vertex  3.457778922866 18 8
    vertex  3.677285496108 18 8
  endloop
endfacet
facet normal  -0 -0 1
  outer loop
    vertex  0 19.833825281706 8
    vertex  3.677285496108 18 8
    vertex  0 20.008700732033 8
  endloop
endfacet
facet normal  0 0 1
  outer loop
    vertex  0 19.504240666758 8
    vertex  3.006163490319 18 8
    vertex  3.457778922866 18 8
  endloop
endfacet
facet normal  0 0 1
  outer loop
    vertex  0 19.504240666758 8
    vertex  3.457778922866 18 8
    vertex  0 19.833825281706 8
  endloop
endfacet
facet normal  0 0 1
  outer loop
    vertex  3 24 8
    vertex  7.8 18 8
    vertex  8 18 8
  endloop
endfacet
facet normal  0 0 1
  outer loop
    vertex  6.898419883451 33 8
    vertex  0 31.318106757048 8
    vertex  8 33 8
  endloop
endfacet
facet normal  0 0 1
  outer loop
    vertex  8 32.140128839968 8
    vertex  8 32.353992237712 8
    vertex  0 31.318106757048 8
  endloop
endfacet
facet normal  0 0 1
  outer loop
    vertex  3 24 8
    vertex  0 30.777242166205 8
    vertex  0 30.737436867076 8
  endloop
endfacet
facet normal  -0 0 1
  outer loop
    vertex  0 20.25 8
    vertex  3 24 8
    vertex  0 20.47524590536 8
  endloop
endfacet
facet normal  0 0 1
  outer loop
    vertex  8 31.526315789474 8
    vertex  8 31.840802046528 8
    vertex  0 31.318106757048 8
  endloop
endfacet
facet normal  0 0 1
  outer loop
    vertex  8 31.840802046528 8
    vertex  8 32.140128839968 8
    vertex  0 31.318106757048 8
  endloop
endfacet
facet normal  0 0 1
  outer loop
    vertex  3 24 8
    vertex  0 29.5 8
    vertex  0 28.754237288136 8
  endloop
endfacet
facet normal  0 0 1
  outer loop
    vertex  0 27.75 8
    vertex  3 24 8
    vertex  0 28.185149623206 8
  endloop
endfacet
facet normal  0 0 1
  outer loop
    vertex  3 24 8
    vertex  0 28.754237288136 8
    vertex  0 28.185149623206 8
  endloop
endfacet
facet normal  0 0 1
  outer loop
    vertex  0 30.737436867076 8
    vertex  0 30.223996041972 8
    vertex  3 24 8
  endloop
endfacet
facet normal  0 0 1
  outer loop
    vertex  0 30.223996041972 8
    vertex  0 30.169696006639 8
    vertex  3 24 8
  endloop
endfacet
facet normal  0 0 1
  outer loop
    vertex  0 30.169696006639 8
    vertex  0 29.562148649013 8
    vertex  3 24 8
  endloop
endfacet
facet normal  0 0 1
  outer loop
    vertex  0 29.562148649013 8
    vertex  0 29.5 8
    vertex  3 24 8
  endloop
endfacet
endsolid
