solid "drive-coupling"; Produced by Art of Illusion 2.0, Thu Nov 03 11:04:51 GMT 2005
facet normal  -0 -1 0
  outer loop
    vertex  56.907902201579 11 6
    vertex  49 11 8
    vertex  40.907902201579 11 6
  endloop
endfacet
facet normal  -0 1 0
  outer loop
    vertex  40.907902201579 5 10
    vertex  56.907902201579 5 10
    vertex  49 5 8
  endloop
endfacet
facet normal  0 -0 1
  outer loop
    vertex  56.907902201579 5 6
    vertex  49 8 6
    vertex  40.907902201579 5 6
  endloop
endfacet
facet normal  0 -0 -1
  outer loop
    vertex  49 8 10
    vertex  40.907902201579 5 10
    vertex  40.907902201579 11 10
  endloop
endfacet
facet normal  0 -1 0
  outer loop
    vertex  40.907902201579 11 6
    vertex  49 11 8
    vertex  40.907902201579 11 10
  endloop
endfacet
facet normal  1 -0 0
  outer loop
    vertex  56.907902201579 0.153717756774 9.560722576129
    vertex  56.907902201579 5 6
    vertex  56.907902201579 5 10
  endloop
endfacet
facet normal  0 -0 -1
  outer loop
    vertex  56.907902201579 11 10
    vertex  49 8 10
    vertex  40.907902201579 11 10
  endloop
endfacet
facet normal  0 1 -0
  outer loop
    vertex  56.907902201579 5 6
    vertex  40.907902201579 5 6
    vertex  49 5 8
  endloop
endfacet
facet normal  1 -0 -0
  outer loop
    vertex  56.907902201579 2.343145750508 13.656854249492
    vertex  56.907902201579 1.34824310158 12.444561864157
    vertex  56.907902201579 5 10
  endloop
endfacet
facet normal  0 1 0
  outer loop
    vertex  40.907902201579 5 10
    vertex  49 5 8
    vertex  40.907902201579 5 6
  endloop
endfacet
facet normal  1 -0 -0
  outer loop
    vertex  56.907902201579 12.444561864157 14.65175689842
    vertex  56.907902201579 11 10
    vertex  56.907902201579 13.656854249492 13.656854249492
  endloop
endfacet
facet normal  1 0 -0
  outer loop
    vertex  56.907902201579 14.65175689842 12.444561864157
    vertex  56.907902201579 13.656854249492 13.656854249492
    vertex  56.907902201579 11 10
  endloop
endfacet
facet normal  1 0 0
  outer loop
    vertex  56.907902201579 15.39103626009 11.061467458921
    vertex  56.907902201579 14.65175689842 12.444561864157
    vertex  56.907902201579 11 10
  endloop
endfacet
facet normal  0 -0 -1
  outer loop
    vertex  56.907902201579 5 10
    vertex  49 8 10
    vertex  56.907902201579 11 10
  endloop
endfacet
facet normal  1 0 0
  outer loop
    vertex  56.907902201579 15.846282243226 6.439277423871
    vertex  56.907902201579 11 10
    vertex  56.907902201579 11 6
  endloop
endfacet
facet normal  1 0 0
  outer loop
    vertex  56.907902201579 15.846282243226 6.439277423871
    vertex  56.907902201579 11 6
    vertex  56.907902201579 15.39103626009 4.938532541079
  endloop
endfacet
facet normal  1 0 0
  outer loop
    vertex  56.907902201579 13.656854249492 2.343145750508
    vertex  56.907902201579 11 6
    vertex  56.907902201579 12.444561864157 1.34824310158
  endloop
endfacet
facet normal  0 0 1
  outer loop
    vertex  40.907902201579 11 6
    vertex  40.907902201579 5 6
    vertex  49 8 6
  endloop
endfacet
facet normal  0 -0 -1
  outer loop
    vertex  49 8 10
    vertex  56.907902201579 5 10
    vertex  40.907902201579 5 10
  endloop
endfacet
facet normal  -0 -0 1
  outer loop
    vertex  49 8 6
    vertex  56.907902201579 11 6
    vertex  40.907902201579 11 6
  endloop
endfacet
facet normal  0 1 -0
  outer loop
    vertex  56.907902201579 5 6
    vertex  49 5 8
    vertex  56.907902201579 5 10
  endloop
endfacet
facet normal  -0 -0 1
  outer loop
    vertex  49 8 6
    vertex  56.907902201579 5 6
    vertex  56.907902201579 11 6
  endloop
endfacet
facet normal  0 -1 0
  outer loop
    vertex  40.907902201579 11 10
    vertex  49 11 8
    vertex  56.907902201579 11 10
  endloop
endfacet
facet normal  -0 -1 0
  outer loop
    vertex  56.907902201579 11 10
    vertex  49 11 8
    vertex  56.907902201579 11 6
  endloop
endfacet
facet normal  -0 -0.09801714033 -0.995184726672
  outer loop
    vertex  48.479330773007 8 0
    vertex  56.907902201579 8 0
    vertex  48.479330773007 6.439277423871 0.153717756774
  endloop
endfacet
facet normal  0 -0.09801714033 -0.995184726672
  outer loop
    vertex  56.907902201579 8 0
    vertex  56.907902201579 6.439277423871 0.153717756774
    vertex  48.479330773007 6.439277423871 0.153717756774
  endloop
endfacet
facet normal  0 -0.290284677254 -0.956940335732
  outer loop
    vertex  48.479330773007 6.439277423871 0.153717756774
    vertex  56.907902201579 6.439277423871 0.153717756774
    vertex  48.479330773007 4.938532541079 0.60896373991
  endloop
endfacet
facet normal  0 -0.290284677254 -0.956940335732
  outer loop
    vertex  56.907902201579 6.439277423871 0.153717756774
    vertex  56.907902201579 4.938532541079 0.60896373991
    vertex  48.479330773007 4.938532541079 0.60896373991
  endloop
endfacet
facet normal  0 -0.471396736826 -0.881921264348
  outer loop
    vertex  48.479330773007 4.938532541079 0.60896373991
    vertex  56.907902201579 4.938532541079 0.60896373991
    vertex  48.479330773007 3.555438135843 1.34824310158
  endloop
endfacet
facet normal  0 -0.471396736826 -0.881921264348
  outer loop
    vertex  56.907902201579 4.938532541079 0.60896373991
    vertex  56.907902201579 3.555438135843 1.34824310158
    vertex  48.479330773007 3.555438135843 1.34824310158
  endloop
endfacet
facet normal  -0.226191552112 0.459179472796 0.859064370997
  outer loop
    vertex  48.479330773007 11.061467458921 15.39103626009
    vertex  40.907902201579 11.463054452489 13.182827250019
    vertex  40.907902201579 10.385393395076 13.758849085987
  endloop
endfacet
facet normal  -0 -0.773010453363 -0.634393284164
  outer loop
    vertex  48.479330773007 2.343145750508 2.343145750508
    vertex  56.907902201579 2.343145750508 2.343145750508
    vertex  48.479330773007 1.34824310158 3.555438135843
  endloop
endfacet
facet normal  -0 -0.773010453363 -0.634393284164
  outer loop
    vertex  56.907902201579 2.343145750508 2.343145750508
    vertex  56.907902201579 1.34824310158 3.555438135843
    vertex  48.479330773007 1.34824310158 3.555438135843
  endloop
endfacet
facet normal  -0 -0.956940335732 -0.290284677254
  outer loop
    vertex  48.479330773007 0.60896373991 4.938532541079
    vertex  56.907902201579 0.60896373991 4.938532541079
    vertex  48.479330773007 0.153717756774 6.439277423871
  endloop
endfacet
facet normal  -0 -0.956940335732 -0.290284677254
  outer loop
    vertex  56.907902201579 0.60896373991 4.938532541079
    vertex  56.907902201579 0.153717756774 6.439277423871
    vertex  48.479330773007 0.153717756774 6.439277423871
  endloop
endfacet
facet normal  -0 -0.995184726672 -0.09801714033
  outer loop
    vertex  48.479330773007 0.153717756774 6.439277423871
    vertex  56.907902201579 0.153717756774 6.439277423871
    vertex  48.479330773007 0 8
  endloop
endfacet
facet normal  -0 -0.995184726672 -0.09801714033
  outer loop
    vertex  56.907902201579 0.153717756774 6.439277423871
    vertex  56.907902201579 0 8
    vertex  48.479330773007 0 8
  endloop
endfacet
facet normal  -0.226191552112 0.752976218781 -0.617951612752
  outer loop
    vertex  48.479330773007 13.656854249492 2.343145750508
    vertex  40.907902201579 12.407632269396 3.592367730604
    vertex  48.479330773007 14.65175689842 3.555438135843
  endloop
endfacet
facet normal  0 -0.881921264348 0.471396736826
  outer loop
    vertex  48.479330773007 0.60896373991 11.061467458921
    vertex  56.907902201579 0.60896373991 11.061467458921
    vertex  48.479330773007 1.34824310158 12.444561864157
  endloop
endfacet
facet normal  -0 -0.881921264348 0.471396736826
  outer loop
    vertex  56.907902201579 0.60896373991 11.061467458921
    vertex  56.907902201579 1.34824310158 12.444561864157
    vertex  48.479330773007 1.34824310158 12.444561864157
  endloop
endfacet
facet normal  -0 -0.773010453363 0.634393284164
  outer loop
    vertex  48.479330773007 1.34824310158 12.444561864157
    vertex  56.907902201579 1.34824310158 12.444561864157
    vertex  48.479330773007 2.343145750508 13.656854249492
  endloop
endfacet
facet normal  -0 -0.773010453363 0.634393284164
  outer loop
    vertex  56.907902201579 1.34824310158 12.444561864157
    vertex  56.907902201579 2.343145750508 13.656854249492
    vertex  48.479330773007 2.343145750508 13.656854249492
  endloop
endfacet
facet normal  -0 -0.634393284164 0.773010453363
  outer loop
    vertex  48.479330773007 2.343145750508 13.656854249492
    vertex  56.907902201579 2.343145750508 13.656854249492
    vertex  48.479330773007 3.555438135843 14.65175689842
  endloop
endfacet
facet normal  0 -0.634393284164 0.773010453363
  outer loop
    vertex  56.907902201579 2.343145750508 13.656854249492
    vertex  56.907902201579 3.555438135843 14.65175689842
    vertex  48.479330773007 3.555438135843 14.65175689842
  endloop
endfacet
facet normal  0 -0.471396736826 0.881921264348
  outer loop
    vertex  56.907902201579 3.555438135843 14.65175689842
    vertex  56.907902201579 4.938532541079 15.39103626009
    vertex  48.479330773007 3.555438135843 14.65175689842
  endloop
endfacet
facet normal  -0.226191552112 -0.617951612752 -0.752976218781
  outer loop
    vertex  40.907902201579 4.536945547511 2.817172749981
    vertex  48.479330773007 2.343145750508 2.343145750508
    vertex  40.907902201579 3.592367730604 3.592367730604
  endloop
endfacet
facet normal  0 -0.290284677254 0.956940335732
  outer loop
    vertex  56.907902201579 4.938532541079 15.39103626009
    vertex  56.907902201579 6.439277423871 15.846282243226
    vertex  48.479330773007 4.938532541079 15.39103626009
  endloop
endfacet
facet normal  -0.226191552112 -0.932139161203 -0.282761323212
  outer loop
    vertex  48.479330773007 0.153717756774 6.439277423871
    vertex  40.907902201579 2.241150914013 5.614606604924
    vertex  48.479330773007 0.60896373991 4.938532541079
  endloop
endfacet
facet normal  -0 -0.09801714033 0.995184726672
  outer loop
    vertex  56.907902201579 6.439277423871 15.846282243226
    vertex  56.907902201579 8 16
    vertex  48.479330773007 6.439277423871 15.846282243226
  endloop
endfacet
facet normal  -0.226191552112 -0.617951612752 0.752976218781
  outer loop
    vertex  48.479330773007 3.555438135843 14.65175689842
    vertex  40.907902201579 4.536945547511 13.182827250019
    vertex  40.907902201579 3.592367730604 12.407632269396
  endloop
endfacet
facet normal  0 0.634393284164 0.773010453363
  outer loop
    vertex  56.907902201579 12.444561864157 14.65175689842
    vertex  56.907902201579 13.656854249492 13.656854249492
    vertex  48.479330773007 12.444561864157 14.65175689842
  endloop
endfacet
facet normal  -0 0.881921264348 0.471396736826
  outer loop
    vertex  56.907902201579 14.65175689842 12.444561864157
    vertex  56.907902201579 15.39103626009 11.061467458921
    vertex  48.479330773007 14.65175689842 12.444561864157
  endloop
endfacet
facet normal  0 0.995184726672 0.09801714033
  outer loop
    vertex  56.907902201579 15.846282243226 9.560722576129
    vertex  56.907902201579 16 8
    vertex  48.479330773007 15.846282243226 9.560722576129
  endloop
endfacet
facet normal  -0.226191552112 -0.459179472796 -0.859064370997
  outer loop
    vertex  40.907902201579 5.614606604924 2.241150914013
    vertex  48.479330773007 3.555438135843 1.34824310158
    vertex  40.907902201579 4.536945547511 2.817172749981
  endloop
endfacet
facet normal  0 0.956940335732 -0.290284677254
  outer loop
    vertex  56.907902201579 15.846282243226 6.439277423871
    vertex  56.907902201579 15.39103626009 4.938532541079
    vertex  48.479330773007 15.846282243226 6.439277423871
  endloop
endfacet
facet normal  -0 0.881921264348 -0.471396736826
  outer loop
    vertex  56.907902201579 15.39103626009 4.938532541079
    vertex  56.907902201579 14.65175689842 3.555438135843
    vertex  48.479330773007 15.39103626009 4.938532541079
  endloop
endfacet
facet normal  -0 0.773010453363 -0.634393284164
  outer loop
    vertex  56.907902201579 14.65175689842 3.555438135843
    vertex  56.907902201579 13.656854249492 2.343145750508
    vertex  48.479330773007 14.65175689842 3.555438135843
  endloop
endfacet
facet normal  -0.226191552112 -0.932139161203 -0.282761323212
  outer loop
    vertex  48.479330773007 0.153717756774 6.439277423871
    vertex  40.907902201579 1.88643841882 6.783936992766
    vertex  40.907902201579 2.241150914013 5.614606604924
  endloop
endfacet
facet normal  -0 0.634393284164 -0.773010453363
  outer loop
    vertex  56.907902201579 13.656854249492 2.343145750508
    vertex  56.907902201579 12.444561864157 1.34824310158
    vertex  48.479330773007 13.656854249492 2.343145750508
  endloop
endfacet
facet normal  -1 -0 0
  outer loop
    vertex  40.907902201579 9.216063007234 1.88643841882
    vertex  40.907902201579 8 1.766666666667
    vertex  40.907902201579 11 6
  endloop
endfacet
facet normal  0 0.471396736826 -0.881921264348
  outer loop
    vertex  56.907902201579 12.444561864157 1.34824310158
    vertex  56.907902201579 11.061467458921 0.60896373991
    vertex  48.479330773007 12.444561864157 1.34824310158
  endloop
endfacet
facet normal  0 0.290284677254 -0.956940335732
  outer loop
    vertex  48.479330773007 11.061467458921 0.60896373991
    vertex  56.907902201579 11.061467458921 0.60896373991
    vertex  48.479330773007 9.560722576129 0.153717756774
  endloop
endfacet
facet normal  -0 0.290284677254 -0.956940335732
  outer loop
    vertex  56.907902201579 11.061467458921 0.60896373991
    vertex  56.907902201579 9.560722576129 0.153717756774
    vertex  48.479330773007 9.560722576129 0.153717756774
  endloop
endfacet
facet normal  -0 0.09801714033 -0.995184726672
  outer loop
    vertex  48.479330773007 9.560722576129 0.153717756774
    vertex  56.907902201579 9.560722576129 0.153717756774
    vertex  48.479330773007 8 0
  endloop
endfacet
facet normal  0 0.09801714033 -0.995184726672
  outer loop
    vertex  56.907902201579 9.560722576129 0.153717756774
    vertex  56.907902201579 8 0
    vertex  48.479330773007 8 0
  endloop
endfacet
facet normal  -0.226191552112 -0.09547681455 -0.969392366195
  outer loop
    vertex  40.907902201579 8 1.766666666667
    vertex  48.479330773007 6.439277423871 0.153717756774
    vertex  40.907902201579 6.783936992766 1.88643841882
  endloop
endfacet
facet normal  -0.226191552112 0.617951612752 0.752976218781
  outer loop
    vertex  48.479330773007 12.444561864157 14.65175689842
    vertex  40.907902201579 12.407632269396 12.407632269396
    vertex  40.907902201579 11.463054452489 13.182827250019
  endloop
endfacet
facet normal  -0.226191552112 -0.859064370997 -0.459179472796
  outer loop
    vertex  48.479330773007 0.60896373991 4.938532541079
    vertex  40.907902201579 2.817172749981 4.536945547511
    vertex  48.479330773007 1.34824310158 3.555438135843
  endloop
endfacet
facet normal  -0.226191552112 0.617951612752 -0.752976218781
  outer loop
    vertex  48.479330773007 12.444561864157 1.34824310158
    vertex  40.907902201579 11.463054452489 2.817172749981
    vertex  48.479330773007 13.656854249492 2.343145750508
  endloop
endfacet
facet normal  -0.226191552112 0.617951612752 -0.752976218781
  outer loop
    vertex  48.479330773007 13.656854249492 2.343145750508
    vertex  40.907902201579 11.463054452489 2.817172749981
    vertex  40.907902201579 12.407632269396 3.592367730604
  endloop
endfacet
facet normal  -1 0 -0
  outer loop
    vertex  40.907902201579 13.182827250019 11.463054452489
    vertex  40.907902201579 13.758849085987 10.385393395076
    vertex  40.907902201579 11 10
  endloop
endfacet
facet normal  -0.226191552112 0.09547681455 -0.969392366195
  outer loop
    vertex  48.479330773007 8 0
    vertex  40.907902201579 8 1.766666666667
    vertex  40.907902201579 9.216063007234 1.88643841882
  endloop
endfacet
facet normal  -0.226191552112 0.282761323212 0.932139161203
  outer loop
    vertex  48.479330773007 11.061467458921 15.39103626009
    vertex  40.907902201579 10.385393395076 13.758849085987
    vertex  40.907902201579 9.216063007234 14.11356158118
  endloop
endfacet
facet normal  -0 -0.290284677254 0.956940335732
  outer loop
    vertex  48.479330773007 4.938532541079 15.39103626009
    vertex  56.907902201579 6.439277423871 15.846282243226
    vertex  48.479330773007 6.439277423871 15.846282243226
  endloop
endfacet
facet normal  -0 -0.09801714033 0.995184726672
  outer loop
    vertex  48.479330773007 6.439277423871 15.846282243226
    vertex  56.907902201579 8 16
    vertex  48.479330773007 8 16
  endloop
endfacet
facet normal  -0.226191552112 -0.459179472796 0.859064370997
  outer loop
    vertex  48.479330773007 4.938532541079 15.39103626009
    vertex  40.907902201579 5.614606604924 13.758849085987
    vertex  40.907902201579 4.536945547511 13.182827250019
  endloop
endfacet
facet normal  0 0.634393284164 0.773010453363
  outer loop
    vertex  48.479330773007 12.444561864157 14.65175689842
    vertex  56.907902201579 13.656854249492 13.656854249492
    vertex  48.479330773007 13.656854249492 13.656854249492
  endloop
endfacet
facet normal  -0.226191552112 -0.932139161203 0.282761323212
  outer loop
    vertex  48.479330773007 0.60896373991 11.061467458921
    vertex  40.907902201579 1.88643841882 9.216063007234
    vertex  48.479330773007 0.153717756774 9.560722576129
  endloop
endfacet
facet normal  0 0.881921264348 0.471396736826
  outer loop
    vertex  48.479330773007 14.65175689842 12.444561864157
    vertex  56.907902201579 15.39103626009 11.061467458921
    vertex  48.479330773007 15.39103626009 11.061467458921
  endloop
endfacet
facet normal  -0.226191552112 -0.859064370997 0.459179472796
  outer loop
    vertex  48.479330773007 1.34824310158 12.444561864157
    vertex  40.907902201579 2.817172749981 11.463054452489
    vertex  40.907902201579 2.241150914013 10.385393395076
  endloop
endfacet
facet normal  -0 0.956940335732 -0.290284677254
  outer loop
    vertex  48.479330773007 15.846282243226 6.439277423871
    vertex  56.907902201579 15.39103626009 4.938532541079
    vertex  48.479330773007 15.39103626009 4.938532541079
  endloop
endfacet
facet normal  -0 0.881921264348 -0.471396736826
  outer loop
    vertex  48.479330773007 15.39103626009 4.938532541079
    vertex  56.907902201579 14.65175689842 3.555438135843
    vertex  48.479330773007 14.65175689842 3.555438135843
  endloop
endfacet
facet normal  -0 0.773010453363 -0.634393284164
  outer loop
    vertex  48.479330773007 14.65175689842 3.555438135843
    vertex  56.907902201579 13.656854249492 2.343145750508
    vertex  48.479330773007 13.656854249492 2.343145750508
  endloop
endfacet
facet normal  0 0.634393284164 -0.773010453363
  outer loop
    vertex  48.479330773007 13.656854249492 2.343145750508
    vertex  56.907902201579 12.444561864157 1.34824310158
    vertex  48.479330773007 12.444561864157 1.34824310158
  endloop
endfacet
facet normal  0 0.471396736826 -0.881921264348
  outer loop
    vertex  48.479330773007 12.444561864157 1.34824310158
    vertex  56.907902201579 11.061467458921 0.60896373991
    vertex  48.479330773007 11.061467458921 0.60896373991
  endloop
endfacet
facet normal  -0.226191552112 -0.617951612752 0.752976218781
  outer loop
    vertex  48.479330773007 3.555438135843 14.65175689842
    vertex  40.907902201579 3.592367730604 12.407632269396
    vertex  48.479330773007 2.343145750508 13.656854249492
  endloop
endfacet
facet normal  -0.226191552112 -0.859064370997 0.459179472796
  outer loop
    vertex  48.479330773007 1.34824310158 12.444561864157
    vertex  40.907902201579 2.241150914013 10.385393395076
    vertex  48.479330773007 0.60896373991 11.061467458921
  endloop
endfacet
facet normal  -1 0 -0
  outer loop
    vertex  40.907902201579 13.758849085987 10.385393395076
    vertex  40.907902201579 14.11356158118 9.216063007234
    vertex  40.907902201579 11 10
  endloop
endfacet
facet normal  -0.226191552112 0.859064370997 -0.459179472796
  outer loop
    vertex  48.479330773007 15.39103626009 4.938532541079
    vertex  48.479330773007 14.65175689842 3.555438135843
    vertex  40.907902201579 13.182827250019 4.536945547511
  endloop
endfacet
facet normal  -0.226191552112 0.752976218781 -0.617951612752
  outer loop
    vertex  40.907902201579 13.182827250019 4.536945547511
    vertex  48.479330773007 14.65175689842 3.555438135843
    vertex  40.907902201579 12.407632269396 3.592367730604
  endloop
endfacet
facet normal  -0.226191552112 -0.752976218781 0.617951612752
  outer loop
    vertex  48.479330773007 2.343145750508 13.656854249492
    vertex  40.907902201579 2.817172749981 11.463054452489
    vertex  48.479330773007 1.34824310158 12.444561864157
  endloop
endfacet
facet normal  -0.226191552112 -0.932139161203 0.282761323212
  outer loop
    vertex  48.479330773007 0.60896373991 11.061467458921
    vertex  40.907902201579 2.241150914013 10.385393395076
    vertex  40.907902201579 1.88643841882 9.216063007234
  endloop
endfacet
facet normal  -0.226191552112 -0.09547681455 0.969392366195
  outer loop
    vertex  48.479330773007 8 16
    vertex  40.907902201579 8 14.233333333333
    vertex  48.479330773007 6.439277423871 15.846282243226
  endloop
endfacet
facet normal  -0.226191552112 -0.09547681455 0.969392366195
  outer loop
    vertex  48.479330773007 6.439277423871 15.846282243226
    vertex  40.907902201579 8 14.233333333333
    vertex  40.907902201579 6.783936992766 14.11356158118
  endloop
endfacet
facet normal  -0.226191552112 -0.969392366195 -0.09547681455
  outer loop
    vertex  48.479330773007 0 8
    vertex  40.907902201579 1.88643841882 6.783936992766
    vertex  48.479330773007 0.153717756774 6.439277423871
  endloop
endfacet
facet normal  -0.226191552112 -0.969392366195 0.09547681455
  outer loop
    vertex  48.479330773007 0.153717756774 9.560722576129
    vertex  40.907902201579 1.766666666667 8
    vertex  48.479330773007 0 8
  endloop
endfacet
facet normal  -1 -0 0
  outer loop
    vertex  40.907902201579 11 6
    vertex  40.907902201579 8 1.766666666667
    vertex  40.907902201579 5 6
  endloop
endfacet
facet normal  -0.226191552112 0.09547681455 -0.969392366195
  outer loop
    vertex  48.479330773007 8 0
    vertex  40.907902201579 9.216063007234 1.88643841882
    vertex  48.479330773007 9.560722576129 0.153717756774
  endloop
endfacet
facet normal  -0.226191552112 -0.752976218781 -0.617951612752
  outer loop
    vertex  48.479330773007 1.34824310158 3.555438135843
    vertex  40.907902201579 3.592367730604 3.592367730604
    vertex  48.479330773007 2.343145750508 2.343145750508
  endloop
endfacet
facet normal  -0.226191552112 -0.282761323212 -0.932139161203
  outer loop
    vertex  48.479330773007 4.938532541079 0.60896373991
    vertex  40.907902201579 6.783936992766 1.88643841882
    vertex  48.479330773007 6.439277423871 0.153717756774
  endloop
endfacet
facet normal  -0.226191552112 0.09547681455 0.969392366195
  outer loop
    vertex  48.479330773007 9.560722576129 15.846282243226
    vertex  40.907902201579 8 14.233333333333
    vertex  48.479330773007 8 16
  endloop
endfacet
facet normal  -0.226191552112 -0.617951612752 -0.752976218781
  outer loop
    vertex  48.479330773007 2.343145750508 2.343145750508
    vertex  40.907902201579 4.536945547511 2.817172749981
    vertex  48.479330773007 3.555438135843 1.34824310158
  endloop
endfacet
facet normal  -0.226191552112 -0.752976218781 -0.617951612752
  outer loop
    vertex  48.479330773007 1.34824310158 3.555438135843
    vertex  40.907902201579 2.817172749981 4.536945547511
    vertex  40.907902201579 3.592367730604 3.592367730604
  endloop
endfacet
facet normal  -1 0 0
  outer loop
    vertex  40.907902201579 5 6
    vertex  40.907902201579 2.241150914013 5.614606604924
    vertex  40.907902201579 1.88643841882 6.783936992766
  endloop
endfacet
facet normal  -0.226191552112 0.969392366195 -0.09547681455
  outer loop
    vertex  48.479330773007 15.846282243226 6.439277423871
    vertex  40.907902201579 14.233333333333 8
    vertex  48.479330773007 16 8
  endloop
endfacet
facet normal  -0.226191552112 0.459179472796 -0.859064370997
  outer loop
    vertex  48.479330773007 11.061467458921 0.60896373991
    vertex  40.907902201579 10.385393395076 2.241150914013
    vertex  48.479330773007 12.444561864157 1.34824310158
  endloop
endfacet
facet normal  -1 0 0
  outer loop
    vertex  40.907902201579 4.536945547511 2.817172749981
    vertex  40.907902201579 3.592367730604 3.592367730604
    vertex  40.907902201579 5 6
  endloop
endfacet
facet normal  -0.226191552112 0.282761323212 0.932139161203
  outer loop
    vertex  48.479330773007 11.061467458921 15.39103626009
    vertex  40.907902201579 9.216063007234 14.11356158118
    vertex  48.479330773007 9.560722576129 15.846282243226
  endloop
endfacet
facet normal  -0.226191552112 0.932139161203 0.282761323212
  outer loop
    vertex  48.479330773007 15.846282243226 9.560722576129
    vertex  40.907902201579 13.758849085987 10.385393395076
    vertex  48.479330773007 15.39103626009 11.061467458921
  endloop
endfacet
facet normal  -0.226191552112 -0.459179472796 -0.859064370997
  outer loop
    vertex  48.479330773007 3.555438135843 1.34824310158
    vertex  40.907902201579 5.614606604924 2.241150914013
    vertex  48.479330773007 4.938532541079 0.60896373991
  endloop
endfacet
facet normal  -1 0 0
  outer loop
    vertex  40.907902201579 2.241150914013 10.385393395076
    vertex  40.907902201579 2.817172749981 11.463054452489
    vertex  40.907902201579 5 10
  endloop
endfacet
facet normal  -0.226191552112 0.459179472796 -0.859064370997
  outer loop
    vertex  48.479330773007 12.444561864157 1.34824310158
    vertex  40.907902201579 10.385393395076 2.241150914013
    vertex  40.907902201579 11.463054452489 2.817172749981
  endloop
endfacet
facet normal  -0.226191552112 -0.752976218781 0.617951612752
  outer loop
    vertex  48.479330773007 2.343145750508 13.656854249492
    vertex  40.907902201579 3.592367730604 12.407632269396
    vertex  40.907902201579 2.817172749981 11.463054452489
  endloop
endfacet
facet normal  -0.226191552112 0.282761323212 -0.932139161203
  outer loop
    vertex  48.479330773007 9.560722576129 0.153717756774
    vertex  40.907902201579 10.385393395076 2.241150914013
    vertex  48.479330773007 11.061467458921 0.60896373991
  endloop
endfacet
facet normal  -0.226191552112 0.969392366195 -0.09547681455
  outer loop
    vertex  48.479330773007 15.846282243226 6.439277423871
    vertex  40.907902201579 14.11356158118 6.783936992766
    vertex  40.907902201579 14.233333333333 8
  endloop
endfacet
facet normal  -0.226191552112 0.932139161203 0.282761323212
  outer loop
    vertex  48.479330773007 15.846282243226 9.560722576129
    vertex  40.907902201579 14.11356158118 9.216063007234
    vertex  40.907902201579 13.758849085987 10.385393395076
  endloop
endfacet
facet normal  -0.226191552112 0.969392366195 0.09547681455
  outer loop
    vertex  48.479330773007 16 8
    vertex  40.907902201579 14.11356158118 9.216063007234
    vertex  48.479330773007 15.846282243226 9.560722576129
  endloop
endfacet
facet normal  -0.226191552112 -0.459179472796 0.859064370997
  outer loop
    vertex  48.479330773007 4.938532541079 15.39103626009
    vertex  40.907902201579 4.536945547511 13.182827250019
    vertex  48.479330773007 3.555438135843 14.65175689842
  endloop
endfacet
facet normal  -0.226191552112 0.617951612752 0.752976218781
  outer loop
    vertex  48.479330773007 13.656854249492 13.656854249492
    vertex  40.907902201579 12.407632269396 12.407632269396
    vertex  48.479330773007 12.444561864157 14.65175689842
  endloop
endfacet
facet normal  0 -0.471396736826 0.881921264348
  outer loop
    vertex  56.907902201579 4.938532541079 15.39103626009
    vertex  48.479330773007 4.938532541079 15.39103626009
    vertex  48.479330773007 3.555438135843 14.65175689842
  endloop
endfacet
facet normal  -0.226191552112 0.282761323212 -0.932139161203
  outer loop
    vertex  48.479330773007 9.560722576129 0.153717756774
    vertex  40.907902201579 9.216063007234 1.88643841882
    vertex  40.907902201579 10.385393395076 2.241150914013
  endloop
endfacet
facet normal  -0.226191552112 -0.282761323212 0.932139161203
  outer loop
    vertex  48.479330773007 6.439277423871 15.846282243226
    vertex  40.907902201579 6.783936992766 14.11356158118
    vertex  48.479330773007 4.938532541079 15.39103626009
  endloop
endfacet
facet normal  -0.226191552112 0.09547681455 0.969392366195
  outer loop
    vertex  48.479330773007 9.560722576129 15.846282243226
    vertex  40.907902201579 9.216063007234 14.11356158118
    vertex  40.907902201579 8 14.233333333333
  endloop
endfacet
facet normal  -0.226191552112 -0.09547681455 -0.969392366195
  outer loop
    vertex  48.479330773007 6.439277423871 0.153717756774
    vertex  40.907902201579 8 1.766666666667
    vertex  48.479330773007 8 0
  endloop
endfacet
facet normal  -0.226191552112 0.459179472796 0.859064370997
  outer loop
    vertex  48.479330773007 12.444561864157 14.65175689842
    vertex  40.907902201579 11.463054452489 13.182827250019
    vertex  48.479330773007 11.061467458921 15.39103626009
  endloop
endfacet
facet normal  -0.226191552112 -0.282761323212 0.932139161203
  outer loop
    vertex  48.479330773007 4.938532541079 15.39103626009
    vertex  40.907902201579 6.783936992766 14.11356158118
    vertex  40.907902201579 5.614606604924 13.758849085987
  endloop
endfacet
facet normal  -0.226191552112 0.969392366195 0.09547681455
  outer loop
    vertex  40.907902201579 14.11356158118 9.216063007234
    vertex  48.479330773007 16 8
    vertex  40.907902201579 14.233333333333 8
  endloop
endfacet
facet normal  -0.226191552112 -0.859064370997 -0.459179472796
  outer loop
    vertex  48.479330773007 0.60896373991 4.938532541079
    vertex  40.907902201579 2.241150914013 5.614606604924
    vertex  40.907902201579 2.817172749981 4.536945547511
  endloop
endfacet
facet normal  -0.226191552112 -0.969392366195 -0.09547681455
  outer loop
    vertex  40.907902201579 1.88643841882 6.783936992766
    vertex  48.479330773007 0 8
    vertex  40.907902201579 1.766666666667 8
  endloop
endfacet
facet normal  0 0.995184726672 0.09801714033
  outer loop
    vertex  56.907902201579 16 8
    vertex  48.479330773007 16 8
    vertex  48.479330773007 15.846282243226 9.560722576129
  endloop
endfacet
facet normal  -0.226191552112 -0.282761323212 -0.932139161203
  outer loop
    vertex  48.479330773007 4.938532541079 0.60896373991
    vertex  40.907902201579 5.614606604924 2.241150914013
    vertex  40.907902201579 6.783936992766 1.88643841882
  endloop
endfacet
facet normal  -0.226191552112 0.859064370997 -0.459179472796
  outer loop
    vertex  40.907902201579 13.758849085987 5.614606604924
    vertex  48.479330773007 15.39103626009 4.938532541079
    vertex  40.907902201579 13.182827250019 4.536945547511
  endloop
endfacet
facet normal  -0.226191552112 -0.969392366195 0.09547681455
  outer loop
    vertex  48.479330773007 0.153717756774 9.560722576129
    vertex  40.907902201579 1.88643841882 9.216063007234
    vertex  40.907902201579 1.766666666667 8
  endloop
endfacet
facet normal  1 -0 0
  outer loop
    vertex  56.907902201579 0.153717756774 6.439277423871
    vertex  56.907902201579 5 6
    vertex  56.907902201579 0.153717756774 9.560722576129
  endloop
endfacet
facet normal  1 0 -0
  outer loop
    vertex  56.907902201579 0.153717756774 6.439277423871
    vertex  56.907902201579 0.153717756774 9.560722576129
    vertex  56.907902201579 0 8
  endloop
endfacet
facet normal  1 0 0
  outer loop
    vertex  56.907902201579 0.153717756774 9.560722576129
    vertex  56.907902201579 5 10
    vertex  56.907902201579 1.34824310158 12.444561864157
  endloop
endfacet
facet normal  1 0 0
  outer loop
    vertex  56.907902201579 0.153717756774 9.560722576129
    vertex  56.907902201579 1.34824310158 12.444561864157
    vertex  56.907902201579 0.60896373991 11.061467458921
  endloop
endfacet
facet normal  1 0 0
  outer loop
    vertex  56.907902201579 2.343145750508 13.656854249492
    vertex  56.907902201579 4.938532541079 15.39103626009
    vertex  56.907902201579 3.555438135843 14.65175689842
  endloop
endfacet
facet normal  1 0 0
  outer loop
    vertex  56.907902201579 15.39103626009 11.061467458921
    vertex  56.907902201579 16 8
    vertex  56.907902201579 15.846282243226 9.560722576129
  endloop
endfacet
facet normal  1 0 0
  outer loop
    vertex  56.907902201579 15.39103626009 4.938532541079
    vertex  56.907902201579 11 6
    vertex  56.907902201579 13.656854249492 2.343145750508
  endloop
endfacet
facet normal  1 0 0
  outer loop
    vertex  56.907902201579 15.39103626009 4.938532541079
    vertex  56.907902201579 13.656854249492 2.343145750508
    vertex  56.907902201579 14.65175689842 3.555438135843
  endloop
endfacet
facet normal  1 0 0
  outer loop
    vertex  56.907902201579 12.444561864157 1.34824310158
    vertex  56.907902201579 11 6
    vertex  56.907902201579 9.560722576129 0.153717756774
  endloop
endfacet
facet normal  1 0 0
  outer loop
    vertex  56.907902201579 12.444561864157 1.34824310158
    vertex  56.907902201579 9.560722576129 0.153717756774
    vertex  56.907902201579 11.061467458921 0.60896373991
  endloop
endfacet
facet normal  1 0 -0
  outer loop
    vertex  56.907902201579 9.560722576129 0.153717756774
    vertex  56.907902201579 11 6
    vertex  56.907902201579 6.439277423871 0.153717756774
  endloop
endfacet
facet normal  1 0 0
  outer loop
    vertex  56.907902201579 9.560722576129 0.153717756774
    vertex  56.907902201579 6.439277423871 0.153717756774
    vertex  56.907902201579 8 0
  endloop
endfacet
facet normal  0 -0.956940335732 0.290284677254
  outer loop
    vertex  56.907902201579 0.60896373991 11.061467458921
    vertex  48.479330773007 0.60896373991 11.061467458921
    vertex  48.479330773007 0.153717756774 9.560722576129
  endloop
endfacet
facet normal  0 -0.956940335732 0.290284677254
  outer loop
    vertex  56.907902201579 0.60896373991 11.061467458921
    vertex  48.479330773007 0.153717756774 9.560722576129
    vertex  56.907902201579 0.153717756774 9.560722576129
  endloop
endfacet
facet normal  -0.226191552112 0.859064370997 0.459179472796
  outer loop
    vertex  40.907902201579 13.758849085987 10.385393395076
    vertex  40.907902201579 13.182827250019 11.463054452489
    vertex  48.479330773007 14.65175689842 12.444561864157
  endloop
endfacet
facet normal  -0.226191552112 0.859064370997 0.459179472796
  outer loop
    vertex  40.907902201579 13.758849085987 10.385393395076
    vertex  48.479330773007 14.65175689842 12.444561864157
    vertex  48.479330773007 15.39103626009 11.061467458921
  endloop
endfacet
facet normal  -0 0.09801714033 0.995184726672
  outer loop
    vertex  56.907902201579 9.560722576129 15.846282243226
    vertex  48.479330773007 9.560722576129 15.846282243226
    vertex  48.479330773007 8 16
  endloop
endfacet
facet normal  -0 0.09801714033 0.995184726672
  outer loop
    vertex  56.907902201579 9.560722576129 15.846282243226
    vertex  48.479330773007 8 16
    vertex  56.907902201579 8 16
  endloop
endfacet
facet normal  -0 0.290284677254 0.956940335732
  outer loop
    vertex  56.907902201579 11.061467458921 15.39103626009
    vertex  48.479330773007 11.061467458921 15.39103626009
    vertex  48.479330773007 9.560722576129 15.846282243226
  endloop
endfacet
facet normal  -0 0.290284677254 0.956940335732
  outer loop
    vertex  56.907902201579 11.061467458921 15.39103626009
    vertex  48.479330773007 9.560722576129 15.846282243226
    vertex  56.907902201579 9.560722576129 15.846282243226
  endloop
endfacet
facet normal  -0 0.773010453363 0.634393284164
  outer loop
    vertex  56.907902201579 14.65175689842 12.444561864157
    vertex  48.479330773007 14.65175689842 12.444561864157
    vertex  48.479330773007 13.656854249492 13.656854249492
  endloop
endfacet
facet normal  0 0.773010453363 0.634393284164
  outer loop
    vertex  56.907902201579 14.65175689842 12.444561864157
    vertex  48.479330773007 13.656854249492 13.656854249492
    vertex  56.907902201579 13.656854249492 13.656854249492
  endloop
endfacet
facet normal  0 0.956940335732 0.290284677254
  outer loop
    vertex  56.907902201579 15.846282243226 9.560722576129
    vertex  48.479330773007 15.846282243226 9.560722576129
    vertex  48.479330773007 15.39103626009 11.061467458921
  endloop
endfacet
facet normal  0 0.956940335732 0.290284677254
  outer loop
    vertex  56.907902201579 15.846282243226 9.560722576129
    vertex  48.479330773007 15.39103626009 11.061467458921
    vertex  56.907902201579 15.39103626009 11.061467458921
  endloop
endfacet
facet normal  0 0.995184726672 -0.09801714033
  outer loop
    vertex  56.907902201579 15.846282243226 6.439277423871
    vertex  48.479330773007 15.846282243226 6.439277423871
    vertex  48.479330773007 16 8
  endloop
endfacet
facet normal  0 0.995184726672 -0.09801714033
  outer loop
    vertex  56.907902201579 15.846282243226 6.439277423871
    vertex  48.479330773007 16 8
    vertex  56.907902201579 16 8
  endloop
endfacet
facet normal  -1 0 0
  outer loop
    vertex  40.907902201579 6.783936992766 14.11356158118
    vertex  40.907902201579 8 14.233333333333
    vertex  40.907902201579 9.216063007234 14.11356158118
  endloop
endfacet
facet normal  -1 0 -0
  outer loop
    vertex  40.907902201579 6.783936992766 1.88643841882
    vertex  40.907902201579 5.614606604924 2.241150914013
    vertex  40.907902201579 4.536945547511 2.817172749981
  endloop
endfacet
facet normal  -0 -0.881921264348 -0.471396736826
  outer loop
    vertex  48.479330773007 0.60896373991 4.938532541079
    vertex  48.479330773007 1.34824310158 3.555438135843
    vertex  56.907902201579 1.34824310158 3.555438135843
  endloop
endfacet
facet normal  -0 -0.881921264348 -0.471396736826
  outer loop
    vertex  48.479330773007 0.60896373991 4.938532541079
    vertex  56.907902201579 1.34824310158 3.555438135843
    vertex  56.907902201579 0.60896373991 4.938532541079
  endloop
endfacet
facet normal  -0 -0.995184726672 0.09801714033
  outer loop
    vertex  48.479330773007 0.153717756774 9.560722576129
    vertex  48.479330773007 0 8
    vertex  56.907902201579 0 8
  endloop
endfacet
facet normal  0 -0.995184726672 0.09801714033
  outer loop
    vertex  48.479330773007 0.153717756774 9.560722576129
    vertex  56.907902201579 0 8
    vertex  56.907902201579 0.153717756774 9.560722576129
  endloop
endfacet
facet normal  -1 0 -0
  outer loop
    vertex  40.907902201579 11.463054452489 2.817172749981
    vertex  40.907902201579 10.385393395076 2.241150914013
    vertex  40.907902201579 9.216063007234 1.88643841882
  endloop
endfacet
facet normal  -1 -0 0
  outer loop
    vertex  40.907902201579 11.463054452489 2.817172749981
    vertex  40.907902201579 9.216063007234 1.88643841882
    vertex  40.907902201579 11 6
  endloop
endfacet
facet normal  -1 -0 0
  outer loop
    vertex  40.907902201579 13.758849085987 5.614606604924
    vertex  40.907902201579 13.182827250019 4.536945547511
    vertex  40.907902201579 12.407632269396 3.592367730604
  endloop
endfacet
facet normal  -0 0.471396736826 0.881921264348
  outer loop
    vertex  48.479330773007 12.444561864157 14.65175689842
    vertex  48.479330773007 11.061467458921 15.39103626009
    vertex  56.907902201579 11.061467458921 15.39103626009
  endloop
endfacet
facet normal  0 0.471396736826 0.881921264348
  outer loop
    vertex  48.479330773007 12.444561864157 14.65175689842
    vertex  56.907902201579 11.061467458921 15.39103626009
    vertex  56.907902201579 12.444561864157 14.65175689842
  endloop
endfacet
facet normal  -1 0 -0
  outer loop
    vertex  40.907902201579 1.766666666667 8
    vertex  40.907902201579 1.88643841882 9.216063007234
    vertex  40.907902201579 2.241150914013 10.385393395076
  endloop
endfacet
facet normal  -1 0 -0
  outer loop
    vertex  40.907902201579 1.766666666667 8
    vertex  40.907902201579 2.241150914013 10.385393395076
    vertex  40.907902201579 5 10
  endloop
endfacet
facet normal  -1 0 0
  outer loop
    vertex  40.907902201579 9.216063007234 14.11356158118
    vertex  40.907902201579 10.385393395076 13.758849085987
    vertex  40.907902201579 11.463054452489 13.182827250019
  endloop
endfacet
facet normal  -0.226191552112 0.752976218781 0.617951612752
  outer loop
    vertex  40.907902201579 13.182827250019 11.463054452489
    vertex  40.907902201579 12.407632269396 12.407632269396
    vertex  48.479330773007 13.656854249492 13.656854249492
  endloop
endfacet
facet normal  -0.226191552112 0.752976218781 0.617951612752
  outer loop
    vertex  40.907902201579 13.182827250019 11.463054452489
    vertex  48.479330773007 13.656854249492 13.656854249492
    vertex  48.479330773007 14.65175689842 12.444561864157
  endloop
endfacet
facet normal  -0.226191552112 0.932139161203 -0.282761323212
  outer loop
    vertex  48.479330773007 15.39103626009 4.938532541079
    vertex  40.907902201579 13.758849085987 5.614606604924
    vertex  40.907902201579 14.11356158118 6.783936992766
  endloop
endfacet
facet normal  -0.226191552112 0.932139161203 -0.282761323212
  outer loop
    vertex  48.479330773007 15.39103626009 4.938532541079
    vertex  40.907902201579 14.11356158118 6.783936992766
    vertex  48.479330773007 15.846282243226 6.439277423871
  endloop
endfacet
facet normal  -1 0 0
  outer loop
    vertex  40.907902201579 5 6
    vertex  40.907902201579 1.88643841882 6.783936992766
    vertex  40.907902201579 1.766666666667 8
  endloop
endfacet
facet normal  -1 0 0
  outer loop
    vertex  40.907902201579 5 6
    vertex  40.907902201579 1.766666666667 8
    vertex  40.907902201579 5 10
  endloop
endfacet
facet normal  -1 -0 0
  outer loop
    vertex  40.907902201579 14.11356158118 6.783936992766
    vertex  40.907902201579 13.758849085987 5.614606604924
    vertex  40.907902201579 11 6
  endloop
endfacet
facet normal  -1 -0 0
  outer loop
    vertex  40.907902201579 14.11356158118 6.783936992766
    vertex  40.907902201579 11 6
    vertex  40.907902201579 11 10
  endloop
endfacet
facet normal  -1 -0 0
  outer loop
    vertex  40.907902201579 14.11356158118 9.216063007234
    vertex  40.907902201579 14.233333333333 8
    vertex  40.907902201579 14.11356158118 6.783936992766
  endloop
endfacet
facet normal  -1 0 0
  outer loop
    vertex  40.907902201579 14.11356158118 9.216063007234
    vertex  40.907902201579 14.11356158118 6.783936992766
    vertex  40.907902201579 11 10
  endloop
endfacet
facet normal  0 -0.634393284164 -0.773010453363
  outer loop
    vertex  48.479330773007 2.343145750508 2.343145750508
    vertex  48.479330773007 3.555438135843 1.34824310158
    vertex  56.907902201579 3.555438135843 1.34824310158
  endloop
endfacet
facet normal  -0 -0.634393284164 -0.773010453363
  outer loop
    vertex  48.479330773007 2.343145750508 2.343145750508
    vertex  56.907902201579 3.555438135843 1.34824310158
    vertex  56.907902201579 2.343145750508 2.343145750508
  endloop
endfacet
facet normal  -1 0 0
  outer loop
    vertex  40.907902201579 3.592367730604 3.592367730604
    vertex  40.907902201579 2.817172749981 4.536945547511
    vertex  40.907902201579 2.241150914013 5.614606604924
  endloop
endfacet
facet normal  -1 0 0
  outer loop
    vertex  40.907902201579 3.592367730604 3.592367730604
    vertex  40.907902201579 2.241150914013 5.614606604924
    vertex  40.907902201579 5 6
  endloop
endfacet
facet normal  -1 0 -0
  outer loop
    vertex  40.907902201579 12.407632269396 12.407632269396
    vertex  40.907902201579 13.182827250019 11.463054452489
    vertex  40.907902201579 11 10
  endloop
endfacet
facet normal  -1 -0 -0
  outer loop
    vertex  40.907902201579 8 1.766666666667
    vertex  40.907902201579 6.783936992766 1.88643841882
    vertex  40.907902201579 4.536945547511 2.817172749981
  endloop
endfacet
facet normal  -1 0 0
  outer loop
    vertex  40.907902201579 8 1.766666666667
    vertex  40.907902201579 4.536945547511 2.817172749981
    vertex  40.907902201579 5 6
  endloop
endfacet
facet normal  -1 0 -0
  outer loop
    vertex  40.907902201579 11.463054452489 13.182827250019
    vertex  40.907902201579 12.407632269396 12.407632269396
    vertex  40.907902201579 11 10
  endloop
endfacet
facet normal  1 0 -0
  outer loop
    vertex  56.907902201579 6.439277423871 0.153717756774
    vertex  56.907902201579 11 6
    vertex  56.907902201579 5 6
  endloop
endfacet
facet normal  1 -0 -0
  outer loop
    vertex  56.907902201579 5 6
    vertex  56.907902201579 0.153717756774 6.439277423871
    vertex  56.907902201579 0.60896373991 4.938532541079
  endloop
endfacet
facet normal  1 0 0
  outer loop
    vertex  56.907902201579 15.39103626009 11.061467458921
    vertex  56.907902201579 11 10
    vertex  56.907902201579 15.846282243226 6.439277423871
  endloop
endfacet
facet normal  1 0 0
  outer loop
    vertex  56.907902201579 15.39103626009 11.061467458921
    vertex  56.907902201579 15.846282243226 6.439277423871
    vertex  56.907902201579 16 8
  endloop
endfacet
facet normal  -1 0 0
  outer loop
    vertex  40.907902201579 6.783936992766 14.11356158118
    vertex  40.907902201579 9.216063007234 14.11356158118
    vertex  40.907902201579 11.463054452489 13.182827250019
  endloop
endfacet
facet normal  -1 0 -0
  outer loop
    vertex  40.907902201579 13.758849085987 5.614606604924
    vertex  40.907902201579 12.407632269396 3.592367730604
    vertex  40.907902201579 11.463054452489 2.817172749981
  endloop
endfacet
facet normal  -1 -0 0
  outer loop
    vertex  40.907902201579 13.758849085987 5.614606604924
    vertex  40.907902201579 11.463054452489 2.817172749981
    vertex  40.907902201579 11 6
  endloop
endfacet
facet normal  -1 0 -0
  outer loop
    vertex  40.907902201579 5 10
    vertex  40.907902201579 5.614606604924 13.758849085987
    vertex  40.907902201579 6.783936992766 14.11356158118
  endloop
endfacet
facet normal  -1 -0 0
  outer loop
    vertex  40.907902201579 3.592367730604 12.407632269396
    vertex  40.907902201579 4.536945547511 13.182827250019
    vertex  40.907902201579 5.614606604924 13.758849085987
  endloop
endfacet
facet normal  1 0 -0
  outer loop
    vertex  56.907902201579 5 10
    vertex  56.907902201579 6.439277423871 15.846282243226
    vertex  56.907902201579 4.938532541079 15.39103626009
  endloop
endfacet
facet normal  1 0 -0
  outer loop
    vertex  56.907902201579 5 10
    vertex  56.907902201579 4.938532541079 15.39103626009
    vertex  56.907902201579 2.343145750508 13.656854249492
  endloop
endfacet
facet normal  1 0 -0
  outer loop
    vertex  56.907902201579 6.439277423871 15.846282243226
    vertex  56.907902201579 5 10
    vertex  56.907902201579 11 10
  endloop
endfacet
facet normal  1 -0 -0
  outer loop
    vertex  56.907902201579 6.439277423871 15.846282243226
    vertex  56.907902201579 11 10
    vertex  56.907902201579 12.444561864157 14.65175689842
  endloop
endfacet
facet normal  1 0 0
  outer loop
    vertex  56.907902201579 12.444561864157 14.65175689842
    vertex  56.907902201579 8 16
    vertex  56.907902201579 6.439277423871 15.846282243226
  endloop
endfacet
facet normal  -1 0 0
  outer loop
    vertex  40.907902201579 6.783936992766 14.11356158118
    vertex  40.907902201579 11.463054452489 13.182827250019
    vertex  40.907902201579 11 10
  endloop
endfacet
facet normal  -1 0 -0
  outer loop
    vertex  40.907902201579 6.783936992766 14.11356158118
    vertex  40.907902201579 11 10
    vertex  40.907902201579 5 10
  endloop
endfacet
facet normal  -1 0 -0
  outer loop
    vertex  40.907902201579 2.817172749981 11.463054452489
    vertex  40.907902201579 3.592367730604 12.407632269396
    vertex  40.907902201579 5.614606604924 13.758849085987
  endloop
endfacet
facet normal  -1 -0 -0
  outer loop
    vertex  40.907902201579 2.817172749981 11.463054452489
    vertex  40.907902201579 5.614606604924 13.758849085987
    vertex  40.907902201579 5 10
  endloop
endfacet
facet normal  1 -0 0
  outer loop
    vertex  56.907902201579 5 6
    vertex  56.907902201579 0.60896373991 4.938532541079
    vertex  56.907902201579 1.34824310158 3.555438135843
  endloop
endfacet
facet normal  1 0 0
  outer loop
    vertex  56.907902201579 5 6
    vertex  56.907902201579 1.34824310158 3.555438135843
    vertex  56.907902201579 2.343145750508 2.343145750508
  endloop
endfacet
facet normal  1 0 0
  outer loop
    vertex  56.907902201579 4.938532541079 0.60896373991
    vertex  56.907902201579 2.343145750508 2.343145750508
    vertex  56.907902201579 3.555438135843 1.34824310158
  endloop
endfacet
facet normal  1 0 0
  outer loop
    vertex  56.907902201579 8 16
    vertex  56.907902201579 12.444561864157 14.65175689842
    vertex  56.907902201579 11.061467458921 15.39103626009
  endloop
endfacet
facet normal  1 0 0
  outer loop
    vertex  56.907902201579 8 16
    vertex  56.907902201579 11.061467458921 15.39103626009
    vertex  56.907902201579 9.560722576129 15.846282243226
  endloop
endfacet
facet normal  1 0 0
  outer loop
    vertex  56.907902201579 6.439277423871 0.153717756774
    vertex  56.907902201579 5 6
    vertex  56.907902201579 2.343145750508 2.343145750508
  endloop
endfacet
facet normal  1 0 0
  outer loop
    vertex  56.907902201579 6.439277423871 0.153717756774
    vertex  56.907902201579 2.343145750508 2.343145750508
    vertex  56.907902201579 4.938532541079 0.60896373991
  endloop
endfacet
endsolid
