999
dxflib 2.0.4.0
  0
SECTION
  2
HEADER
  9
$ACADVER
  1
AC1015
  9
$HANDSEED
  5
FFFF
  9
$DIMASZ
 40
150.0
  9
$GRIDUNIT
 10
0.5
 20
0.5
  9
$DIMADEC
 70
2
  9
$DIMGAP
 40
25.0
  9
$SPLINESEGS
 70
8
  9
$AUPREC
 70
2
  9
$LUNITS
 70
2
  9
$DIMEXO
 40
25.0
  9
$INSUNITS
 70
4
  9
$DIMLUNIT
 70
2
  9
$GRIDMODE
 70
0
  9
$DIMTXT
 40
2.0
  9
$LUPREC
 70
4
  9
$PLIMMAX
 10
210.0
 20
297.0
  9
$PLIMMIN
 10
0.0
 20
0.0
  9
$DIMEXE
 40
50.0
  9
$DIMAUNIT
 70
0
  9
$AUNITS
 70
0
  0
ENDSEC
  0
SECTION
  2
TABLES
  0
TABLE
  2
VPORT
  5
8
100
AcDbSymbolTable
 70
1
  0
VPORT
  5
30
100
AcDbSymbolTableRecord
100
AcDbViewportTableRecord
  2
*Active
 70
0
 10
0.0
 20
0.0
 11
1.0
 21
1.0
 12
286.3055555555554861
 22
148.5
 13
0.0
 23
0.0
 14
10.0
 24
10.0
 15
10.0
 25
10.0
 16
0.0
 26
0.0
 36
1.0
 17
0.0
 27
0.0
 37
0.0
 40
297.0
 41
1.92798353909465
 42
50.0
 43
0.0
 44
0.0
 50
0.0
 51
0.0
 71
0
 72
100
 73
1
 74
3
 75
1
 76
1
 77
0
 78
0
281
0
 65
1
110
0.0
120
0.0
130
0.0
111
1.0
121
0.0
131
0.0
112
0.0
122
1.0
132
0.0
 79
0
146
0.0
  0
ENDTAB
  0
TABLE
  2
LTYPE
  5
5
100
AcDbSymbolTable
 70
21
  0
LTYPE
  5
14
100
AcDbSymbolTableRecord
100
AcDbLinetypeTableRecord
  2
ByBlock
 70
0
  3

 72
65
 73
0
 40
0.0
  0
LTYPE
  5
15
100
AcDbSymbolTableRecord
100
AcDbLinetypeTableRecord
  2
ByLayer
 70
0
  3

 72
65
 73
0
 40
0.0
  0
LTYPE
  5
16
100
AcDbSymbolTableRecord
100
AcDbLinetypeTableRecord
  2
CONTINUOUS
 70
0
  3
Solid line
 72
65
 73
0
 40
0.0
  0
LTYPE
  5
31
100
AcDbSymbolTableRecord
100
AcDbLinetypeTableRecord
  2
DOT
 70
0
  3
Dot . . . . . . . . . . . . . . . . . . . . . .
 72
65
 73
2
 40
6.3499999999999996
 49
0.0
 74
0
 49
-6.3499999999999996
 74
0
  0
LTYPE
  5
32
100
AcDbSymbolTableRecord
100
AcDbLinetypeTableRecord
  2
DOT2
 70
0
  3
Dot (.5x) .....................................
 72
65
 73
2
 40
3.1749999999999998
 49
0.0
 74
0
 49
-3.1749999999999998
 74
0
  0
LTYPE
  5
33
100
AcDbSymbolTableRecord
100
AcDbLinetypeTableRecord
  2
DOTX2
 70
0
  3
Dot (2x) .  .  .  .  .  .  .  .  .  .  .  .  .
 72
65
 73
2
 40
12.6999999999999993
 49
0.0
 74
0
 49
-12.6999999999999993
 74
0
  0
LTYPE
  5
34
100
AcDbSymbolTableRecord
100
AcDbLinetypeTableRecord
  2
DASHED
 70
0
  3
Dashed __ __ __ __ __ __ __ __ __ __ __ __ __ _
 72
65
 73
2
 40
19.0500000000000007
 49
12.6999999999999993
 74
0
 49
-6.3499999999999996
 74
0
  0
LTYPE
  5
35
100
AcDbSymbolTableRecord
100
AcDbLinetypeTableRecord
  2
DASHED2
 70
0
  3
Dashed (.5x) _ _ _ _ _ _ _ _ _ _ _ _ _ _ _ _ _
 72
65
 73
2
 40
9.5250000000000004
 49
6.3499999999999996
 74
0
 49
-3.1749999999999998
 74
0
  0
LTYPE
  5
36
100
AcDbSymbolTableRecord
100
AcDbLinetypeTableRecord
  2
DASHEDX2
 70
0
  3
Dashed (2x) ____  ____  ____  ____  ____  ___
 72
65
 73
2
 40
38.1000000000000014
 49
25.3999999999999986
 74
0
 49
-12.6999999999999993
 74
0
  0
LTYPE
  5
37
100
AcDbSymbolTableRecord
100
AcDbLinetypeTableRecord
  2
DASHDOT
 70
0
  3
Dash dot __ . __ . __ . __ . __ . __ . __ . __
 72
65
 73
4
 40
25.3999999999999986
 49
12.6999999999999993
 74
0
 49
-6.3499999999999996
 74
0
 49
0.0
 74
0
 49
-6.3499999999999996
 74
0
  0
LTYPE
  5
38
100
AcDbSymbolTableRecord
100
AcDbLinetypeTableRecord
  2
DASHDOT2
 70
0
  3
Dash dot (.5x) _._._._._._._._._._._._._._._.
 72
65
 73
4
 40
12.6999999999999993
 49
6.3499999999999996
 74
0
 49
-3.1749999999999998
 74
0
 49
0.0
 74
0
 49
-3.1749999999999998
 74
0
  0
LTYPE
  5
39
100
AcDbSymbolTableRecord
100
AcDbLinetypeTableRecord
  2
DASHDOTX2
 70
0
  3
Dash dot (2x) ____  .  ____  .  ____  .  ___
 72
65
 73
4
 40
50.7999999999999972
 49
25.3999999999999986
 74
0
 49
-12.6999999999999993
 74
0
 49
0.0
 74
0
 49
-12.6999999999999993
 74
0
  0
LTYPE
  5
3A
100
AcDbSymbolTableRecord
100
AcDbLinetypeTableRecord
  2
DIVIDE
 70
0
  3
Divide ____ . . ____ . . ____ . . ____ . . ____
 72
65
 73
6
 40
31.75
 49
12.6999999999999993
 74
0
 49
-6.3499999999999996
 74
0
 49
0.0
 74
0
 49
-6.3499999999999996
 74
0
 49
0.0
 74
0
 49
-6.3499999999999996
 74
0
  0
LTYPE
  5
3B
100
AcDbSymbolTableRecord
100
AcDbLinetypeTableRecord
  2
DIVIDE2
 70
0
  3
Divide (.5x) __..__..__..__..__..__..__..__.._
 72
65
 73
6
 40
15.875
 49
6.3499999999999996
 74
0
 49
-3.1749999999999998
 74
0
 49
0.0
 74
0
 49
-3.1749999999999998
 74
0
 49
0.0
 74
0
 49
-3.1749999999999998
 74
0
  0
LTYPE
  5
3C
100
AcDbSymbolTableRecord
100
AcDbLinetypeTableRecord
  2
DIVIDEX2
 70
0
  3
Divide (2x) ________  .  .  ________  .  .  _
 72
65
 73
6
 40
63.5
 49
25.3999999999999986
 74
0
 49
-12.6999999999999993
 74
0
 49
0.0
 74
0
 49
-12.6999999999999993
 74
0
 49
0.0
 74
0
 49
-12.6999999999999993
 74
0
  0
LTYPE
  5
3D
100
AcDbSymbolTableRecord
100
AcDbLinetypeTableRecord
  2
CENTER
 70
0
  3
Center ____ _ ____ _ ____ _ ____ _ ____ _ ____
 72
65
 73
4
 40
50.7999999999999972
 49
31.75
 74
0
 49
-6.3499999999999996
 74
0
 49
6.3499999999999996
 74
0
 49
-6.3499999999999996
 74
0
  0
LTYPE
  5
3E
100
AcDbSymbolTableRecord
100
AcDbLinetypeTableRecord
  2
CENTER2
 70
0
  3
Center (.5x) ___ _ ___ _ ___ _ ___ _ ___ _ ___
 72
65
 73
4
 40
28.5749999999999993
 49
19.0500000000000007
 74
0
 49
-3.1749999999999998
 74
0
 49
3.1749999999999998
 74
0
 49
-3.1749999999999998
 74
0
  0
LTYPE
  5
3F
100
AcDbSymbolTableRecord
100
AcDbLinetypeTableRecord
  2
CENTERX2
 70
0
  3
Center (2x) ________  __  ________  __  _____
 72
65
 73
4
 40
101.5999999999999943
 49
63.5
 74
0
 49
-12.6999999999999993
 74
0
 49
12.6999999999999993
 74
0
 49
-12.6999999999999993
 74
0
  0
LTYPE
  5
40
100
AcDbSymbolTableRecord
100
AcDbLinetypeTableRecord
  2
BORDER
 70
0
  3
Border __ __ . __ __ . __ __ . __ __ . __ __ .
 72
65
 73
6
 40
44.4500000000000028
 49
12.6999999999999993
 74
0
 49
-6.3499999999999996
 74
0
 49
12.6999999999999993
 74
0
 49
-6.3499999999999996
 74
0
 49
0.0
 74
0
 49
-6.3499999999999996
 74
0
  0
LTYPE
  5
41
100
AcDbSymbolTableRecord
100
AcDbLinetypeTableRecord
  2
BORDER2
 70
0
  3
Border (.5x) __.__.__.__.__.__.__.__.__.__.__.
 72
65
 73
6
 40
22.2250000000000014
 49
6.3499999999999996
 74
0
 49
-3.1749999999999998
 74
0
 49
6.3499999999999996
 74
0
 49
-3.1749999999999998
 74
0
 49
0.0
 74
0
 49
-3.1749999999999998
 74
0
  0
LTYPE
  5
42
100
AcDbSymbolTableRecord
100
AcDbLinetypeTableRecord
  2
BORDERX2
 70
0
  3
Border (2x) ____  ____  .  ____  ____  .  ___
 72
65
 73
6
 40
88.9000000000000057
 49
25.3999999999999986
 74
0
 49
-12.6999999999999993
 74
0
 49
25.3999999999999986
 74
0
 49
-12.6999999999999993
 74
0
 49
0.0
 74
0
 49
-12.6999999999999993
 74
0
  0
ENDTAB
  0
TABLE
  2
LAYER
  5
2
100
AcDbSymbolTable
 70
1
  0
LAYER
  5
10
100
AcDbSymbolTableRecord
100
AcDbLayerTableRecord
  2
0
 70
0
 62
7
  6
CONTINUOUS
370
0
390
F
  0
ENDTAB
  0
TABLE
  2
STYLE
  5
3
100
AcDbSymbolTable
 70
1
  0
STYLE
  5
11
100
AcDbSymbolTableRecord
100
AcDbTextStyleTableRecord
  2
Standard
 70
0
 40
0.0
 41
1.0
 50
0.0
 71
0
 42
2.5
  3
txt
  4

  0
ENDTAB
  0
TABLE
  2
VIEW
  5
6
100
AcDbSymbolTable
 70
0
  0
ENDTAB
  0
TABLE
  2
UCS
  5
7
100
AcDbSymbolTable
 70
0
  0
ENDTAB
  0
TABLE
  2
APPID
  5
9
100
AcDbSymbolTable
 70
1
  0
APPID
  5
12
100
AcDbSymbolTableRecord
100
AcDbRegAppTableRecord
  2
ACAD
 70
0
  0
ENDTAB
  0
TABLE
  2
DIMSTYLE
  5
A
100
AcDbSymbolTable
 70
1
100
AcDbDimStyleTable
 71
0
  0
DIMSTYLE
105
27
100
AcDbSymbolTableRecord
100
AcDbDimStyleTableRecord
  2
Standard
 41
2.5
 42
0.625
 43
3.75
 44
1.25
 70
0
 73
0
 74
0
 77
1
 78
8
140
2.5
141
2.5
143
0.03937007874016
147
0.625
171
3
172
1
271
2
272
2
274
3
278
44
283
0
284
8
340
11
  0
ENDTAB
  0
TABLE
  2
BLOCK_RECORD
  5
1
100
AcDbSymbolTable
 70
1
  0
BLOCK_RECORD
  5
1F
100
AcDbSymbolTableRecord
100
AcDbBlockTableRecord
  2
*Model_Space
340
22
  0
BLOCK_RECORD
  5
1B
100
AcDbSymbolTableRecord
100
AcDbBlockTableRecord
  2
*Paper_Space
340
1E
  0
BLOCK_RECORD
  5
23
100
AcDbSymbolTableRecord
100
AcDbBlockTableRecord
  2
*Paper_Space0
340
26
  0
ENDTAB
  0
ENDSEC
  0
SECTION
  2
BLOCKS
  0
BLOCK
  5
20
100
AcDbEntity
  8
0
100
AcDbBlockBegin
  2
*Model_Space
 70
0
 10
0.0
 20
0.0
 30
0.0
  3
*Model_Space
  1

  0
ENDBLK
  5
21
100
AcDbEntity
  8
0
100
AcDbBlockEnd
  0
BLOCK
  5
1C
100
AcDbEntity
 67
1
  8
0
100
AcDbBlockBegin
  2
*Paper_Space
 70
0
 10
0.0
 20
0.0
 30
0.0
  3
*Paper_Space
  1

  0
ENDBLK
  5
1D
100
AcDbEntity
 67
1
  8
0
100
AcDbBlockEnd
  0
BLOCK
  5
24
100
AcDbEntity
  8
0
100
AcDbBlockBegin
  2
*Paper_Space0
 70
0
 10
0.0
 20
0.0
 30
0.0
  3
*Paper_Space0
  1

  0
ENDBLK
  5
25
100
AcDbEntity
  8
0
100
AcDbBlockEnd
  0
ENDSEC
  0
SECTION
  2
ENTITIES
  0
HATCH
  5
43
  8
0
 62
256
370
5
  6
ByLayer
100
AcDbEntity
100
AcDbHatch
 10
0.0
 20
0.0
 30
0.0
210
0.0
220
0.0
230
1.0
  2
ANSI31
 70
0
 71
0
 91
1
 92
1
 93
8
 72
1
 10
3086.6666666666669698
 20
180.0
 11
3000.0
 21
50.0
 72
1
 10
3000.0
 20
50.0
 11
2377.1994970297105283
 21
50.0
 72
1
 10
2377.1994970297105283
 20
50.0
 11
2360.383366336641302
 21
10.432633663366369
 72
1
 10
2360.383366336641302
 20
10.432633663366369
 11
2535.1299801980276243
 21
-62.5958019801982175
 72
1
 10
2535.1299801980276243
 20
-62.5958019801982175
 11
2499.4005970149332825
 21
-100.0
 72
1
 10
2499.4005970149332825
 20
-100.0
 11
3000.0
 21
-100.0
 72
1
 10
3000.0
 20
-100.0
 11
3140.0
 21
180.0
 72
1
 10
3140.0
 20
180.0
 11
3086.6666666666669698
 21
180.0
 97
0
 75
0
 76
1
 52
0.0
 41
50.0
 77
0
 78
1
 53
45.0
 43
0.0
 44
0.0
 45
-0.0883883476483184
 46
0.0883883476483185
 79
0
 98
0
  0
HATCH
  5
44
  8
0
 62
256
370
5
  6
ByLayer
100
AcDbEntity
100
AcDbHatch
 10
0.0
 20
0.0
 30
0.0
210
0.0
220
0.0
230
1.0
  2
ANSI31
 70
0
 71
0
 91
1
 92
1
 93
8
 72
1
 10
3000.0
 20
350.0
 11
3086.6666666666669698
 21
220.0
 72
1
 10
3086.6666666666669698
 20
220.0
 11
3140.0
 21
220.0
 72
1
 10
3140.0
 20
220.0
 11
3000.0
 21
500.0
 72
1
 10
3000.0
 20
500.0
 11
2041.0909878987954471
 21
500.0
 72
1
 10
2041.0909878987954471
 20
500.0
 11
2016.1064554455508642
 21
448.6032475247538969
 72
1
 10
2016.1064554455508642
 20
448.6032475247538969
 11
2117.8246336633728788
 21
391.2237623762388807
 72
1
 10
2117.8246336633728788
 20
391.2237623762388807
 11
2096.2758487848846016
 21
350.0
 72
1
 10
2096.2758487848846016
 20
350.0
 11
3000.0
 21
350.0
 97
0
 75
0
 76
1
 52
0.0
 41
50.0
 77
0
 78
1
 53
45.0
 43
0.0
 44
0.0
 45
-0.0883883476483184
 46
0.0883883476483185
 79
0
 98
0
  0
HATCH
  5
45
  8
0
 62
256
370
5
  6
ByLayer
100
AcDbEntity
100
AcDbHatch
 10
0.0
 20
0.0
 30
0.0
210
0.0
220
0.0
230
1.0
  2
ANSI31
 70
0
 71
0
 91
1
 92
1
 93
5
 72
1
 10
-2000.0
 20
-50.0
 11
-846.8814661230853744
 21
-50.0
 72
1
 10
-846.8814661230853744
 20
-50.0
 11
-803.3127920792104533
 21
-18.257108910891148
 72
1
 10
-803.3127920792104533
 20
-18.257108910891148
 11
-875.8359702970323042
 21
50.0
 72
1
 10
-875.8359702970323042
 20
50.0
 11
-2000.0
 21
50.0
 72
1
 10
-2000.0
 20
50.0
 11
-2000.0
 21
-50.0
 97
0
 75
0
 76
1
 52
0.0
 41
50.0
 77
0
 78
1
 53
45.0
 43
0.0
 44
0.0
 45
-0.0883883476483184
 46
0.0883883476483185
 79
0
 98
0
  0
HATCH
  5
46
  8
0
 62
256
370
5
  6
ByLayer
100
AcDbEntity
100
AcDbHatch
 10
0.0
 20
0.0
 30
0.0
210
0.0
220
0.0
230
1.0
  2
ANSI31
 70
0
 71
0
 91
1
 92
1
 93
7
 72
1
 10
-2000.0
 20
450.0
 11
-750.0
 21
450.0
 72
1
 10
-750.0
 20
450.0
 11
-750.0
 21
500.0
 72
1
 10
-750.0
 20
500.0
 11
-594.586271316183911
 21
500.0
 72
1
 10
-594.586271316183911
 20
500.0
 11
-633.7824950495069061
 21
412.0890297029716294
 72
1
 10
-633.7824950495069061
 20
412.0890297029716294
 11
-579.6197244575529339
 21
350.0
 72
1
 10
-579.6197244575529339
 20
350.0
 11
-2000.0
 21
350.0
 72
1
 10
-2000.0
 20
350.0
 11
-2000.0
 21
450.0
 97
0
 75
0
 76
1
 52
0.0
 41
50.0
 77
0
 78
1
 53
45.0
 43
0.0
 44
0.0
 45
-0.0883883476483184
 46
0.0883883476483185
 79
0
 98
0
  0
LINE
  5
47
100
AcDbEntity
100
AcDbLine
  8
0
 62
256
370
5
  6
ByLayer
 10
-2000.0
 20
450.0
 30
0.0
 11
-750.0
 21
450.0
 31
0.0
  0
LINE
  5
48
100
AcDbEntity
100
AcDbLine
  8
0
 62
256
370
5
  6
ByLayer
 10
-750.0
 20
450.0
 30
0.0
 11
-750.0
 21
500.0
 31
0.0
  0
LINE
  5
49
100
AcDbEntity
100
AcDbLine
  8
0
 62
256
370
13
  6
ByLayer
 10
3000.0
 20
350.0
 30
0.0
 11
3086.6666666666669698
 21
220.0
 31
0.0
  0
LINE
  5
4A
100
AcDbEntity
100
AcDbLine
  8
0
 62
256
370
13
  6
ByLayer
 10
3086.6666666666669698
 20
220.0
 30
0.0
 11
3140.0
 21
220.0
 31
0.0
  0
LINE
  5
4B
100
AcDbEntity
100
AcDbLine
  8
0
 62
256
370
13
  6
ByLayer
 10
3000.0
 20
500.0
 30
0.0
 11
3140.0
 21
220.0
 31
0.0
  0
LINE
  5
4C
100
AcDbEntity
100
AcDbLine
  8
0
 62
256
370
13
  6
ByLayer
 10
3086.6666666666669698
 20
180.0
 30
0.0
 11
3000.0
 21
50.0
 31
0.0
  0
LINE
  5
4D
100
AcDbEntity
100
AcDbLine
  8
0
 62
256
370
13
  6
ByLayer
 10
3086.6666666666669698
 20
180.0
 30
0.0
 11
3140.0
 21
180.0
 31
0.0
  0
LINE
  5
4E
100
AcDbEntity
100
AcDbLine
  8
0
 62
256
370
13
  6
ByLayer
 10
3140.0
 20
180.0
 30
0.0
 11
3000.0
 21
-100.0
 31
0.0
  0
LINE
  5
4F
100
AcDbEntity
100
AcDbLine
  8
0
 62
256
370
13
  6
ByLayer
 10
3086.6666666666669698
 20
220.0
 30
0.0
 11
3086.6666666666669698
 21
180.0
 31
0.0
  0
LINE
  5
50
100
AcDbEntity
100
AcDbLine
  8
0
 62
256
370
13
  6
ByLayer
 10
3140.0
 20
220.0
 30
0.0
 11
3140.0
 21
180.0
 31
0.0
  0
LINE
  5
51
100
AcDbEntity
100
AcDbLine
  8
0
 62
256
370
5
  6
ByLayer
 10
2016.1064554455508642
 20
448.6032475247538969
 30
0.0
 11
2117.8246336633728788
 21
391.2237623762388807
 31
0.0
  0
LINE
  5
52
100
AcDbEntity
100
AcDbLine
  8
0
 62
256
370
5
  6
ByLayer
 10
2057.8369900990164751
 20
276.4647920792087916
 30
0.0
 11
2404.72205940594813
 21
114.7589702970300607
 31
0.0
  0
LINE
  5
53
100
AcDbEntity
100
AcDbLine
  8
0
 62
256
370
5
  6
ByLayer
 10
2360.383366336641302
 20
10.432633663366369
 30
0.0
 11
2535.1299801980276243
 21
-62.5958019801982175
 31
0.0
  0
LINE
  5
54
100
AcDbEntity
100
AcDbLine
  8
0
 62
256
370
5
  6
ByLayer
 10
2041.0909878987954471
 20
500.0
 30
0.0
 11
2016.1064554455508642
 21
448.6032475247538969
 31
0.0
  0
LINE
  5
55
100
AcDbEntity
100
AcDbLine
  8
0
 62
256
370
5
  6
ByLayer
 10
2535.1299801980276243
 20
-62.5958019801982175
 30
0.0
 11
2499.4005970149332825
 21
-100.0
 31
0.0
  0
LINE
  5
56
100
AcDbEntity
100
AcDbLine
  8
0
 62
256
370
13
  6
ByLayer
 10
2096.2758487848846016
 20
350.0
 30
0.0
 11
3000.0
 21
350.0
 31
0.0
  0
LINE
  5
57
100
AcDbEntity
100
AcDbLine
  8
0
 62
256
370
5
  6
ByLayer
 10
2117.8246336633728788
 20
391.2237623762388807
 30
0.0
 11
2096.2758487848846016
 21
350.0
 31
0.0
  0
LINE
  5
58
100
AcDbEntity
100
AcDbLine
  8
0
 62
256
370
5
  6
ByLayer
 10
2096.2758487848846016
 20
350.0
 30
0.0
 11
2057.8369900990164751
 21
276.4647920792087916
 31
0.0
  0
LINE
  5
59
100
AcDbEntity
100
AcDbLine
  8
0
 62
256
370
13
  6
ByLayer
 10
3000.0
 20
50.0
 30
0.0
 11
2377.1994970297105283
 21
50.0
 31
0.0
  0
LINE
  5
5A
100
AcDbEntity
100
AcDbLine
  8
0
 62
256
370
5
  6
ByLayer
 10
2404.72205940594813
 20
114.7589702970300607
 30
0.0
 11
2377.1994970297105283
 21
50.0
 31
0.0
  0
LINE
  5
5B
100
AcDbEntity
100
AcDbLine
  8
0
 62
256
370
5
  6
ByLayer
 10
2377.1994970297105283
 20
50.0
 30
0.0
 11
2360.383366336641302
 21
10.432633663366369
 31
0.0
  0
LINE
  5
5C
100
AcDbEntity
100
AcDbLine
  8
0
 62
256
370
13
  6
ByLayer
 10
500.0
 20
500.0
 30
0.0
 11
2041.0909878987954471
 21
500.0
 31
0.0
  0
LINE
  5
5D
100
AcDbEntity
100
AcDbLine
  8
0
 62
256
370
13
  6
ByLayer
 10
2041.0909878987954471
 20
500.0
 30
0.0
 11
3000.0
 21
500.0
 31
0.0
  0
LINE
  5
5E
100
AcDbEntity
100
AcDbLine
  8
0
 62
256
370
13
  6
ByLayer
 10
3000.0
 20
-100.0
 30
0.0
 11
2499.4005970149332825
 21
-100.0
 31
0.0
  0
LINE
  5
5F
100
AcDbEntity
100
AcDbLine
  8
0
 62
256
370
13
  6
ByLayer
 10
2499.4005970149332825
 20
-100.0
 30
0.0
 11
500.0
 21
-100.0
 31
0.0
  0
LINE
  5
60
100
AcDbEntity
100
AcDbLine
  8
0
 62
256
370
5
  6
ByLayer
 10
-526.8480000000016616
 20
289.5055841584167524
 30
0.0
 11
-915.4636039603989275
 21
185.179247524753066
 31
0.0
  0
LINE
  5
61
100
AcDbEntity
100
AcDbLine
  8
0
 62
256
370
5
  6
ByLayer
 10
-915.4636039603989275
 20
185.179247524753066
 30
0.0
 11
-753.7577821782201681
 21
101.7181782178220999
 31
0.0
  0
LINE
  5
62
100
AcDbEntity
100
AcDbLine
  8
0
 62
256
370
5
  6
ByLayer
 10
-753.7577821782201681
 20
101.7181782178220999
 30
0.0
 11
-891.9901782178245639
 21
65.203960396039804
 31
0.0
  0
LINE
  5
63
100
AcDbEntity
100
AcDbLine
  8
0
 62
256
370
13
  6
ByLayer
 10
-2000.0
 20
-100.0
 30
0.0
 11
-915.5089171034775291
 21
-100.0
 31
0.0
  0
LINE
  5
64
100
AcDbEntity
100
AcDbLine
  8
0
 62
256
370
13
  6
ByLayer
 10
-915.5089171034775291
 20
-100.0
 30
0.0
 11
500.0
 21
-100.0
 31
0.0
  0
LINE
  5
65
100
AcDbEntity
100
AcDbLine
  8
0
 62
256
370
5
  6
ByLayer
 10
-2000.0
 20
-50.0
 30
0.0
 11
-846.8814661230853744
 21
-50.0
 31
0.0
  0
LINE
  5
66
100
AcDbEntity
100
AcDbLine
  8
0
 62
256
370
5
  6
ByLayer
 10
-803.3127920792104533
 20
-18.257108910891148
 30
0.0
 11
-846.8814661230853744
 21
-50.0
 31
0.0
  0
LINE
  5
67
100
AcDbEntity
100
AcDbLine
  8
0
 62
256
370
5
  6
ByLayer
 10
-846.8814661230853744
 20
-50.0
 30
0.0
 11
-915.5089171034775291
 21
-100.0
 31
0.0
  0
LINE
  5
68
100
AcDbEntity
100
AcDbLine
  8
0
 62
256
370
13
  6
ByLayer
 10
-2000.0
 20
50.0
 30
0.0
 11
-875.8359702970323042
 21
50.0
 31
0.0
  0
LINE
  5
69
100
AcDbEntity
100
AcDbLine
  8
0
 62
256
370
5
  6
ByLayer
 10
-891.9901782178245639
 20
65.203960396039804
 30
0.0
 11
-875.8359702970323042
 21
50.0
 31
0.0
  0
LINE
  5
6A
100
AcDbEntity
100
AcDbLine
  8
0
 62
256
370
5
  6
ByLayer
 10
-875.8359702970323042
 20
50.0
 30
0.0
 11
-803.3127920792104533
 21
-18.257108910891148
 31
0.0
  0
LINE
  5
6B
100
AcDbEntity
100
AcDbLine
  8
0
 62
256
370
13
  6
ByLayer
 10
-2000.0
 20
350.0
 30
0.0
 11
-579.6197244575529339
 21
350.0
 31
0.0
  0
LINE
  5
6C
100
AcDbEntity
100
AcDbLine
  8
0
 62
256
370
5
  6
ByLayer
 10
-633.7824950495069061
 20
412.0890297029716294
 30
0.0
 11
-579.6197244575529339
 21
350.0
 31
0.0
  0
LINE
  5
6D
100
AcDbEntity
100
AcDbLine
  8
0
 62
256
370
5
  6
ByLayer
 10
-579.6197244575529339
 20
350.0
 30
0.0
 11
-526.8480000000016616
 21
289.5055841584167524
 31
0.0
  0
LINE
  5
6E
100
AcDbEntity
100
AcDbLine
  8
0
 62
256
370
13
  6
ByLayer
 10
500.0
 20
500.0
 30
0.0
 11
-594.586271316183911
 21
500.0
 31
0.0
  0
LINE
  5
6F
100
AcDbEntity
100
AcDbLine
  8
0
 62
256
370
5
  6
ByLayer
 10
-594.586271316183911
 20
500.0
 30
0.0
 11
-633.7824950495069061
 21
412.0890297029716294
 31
0.0
  0
LINE
  5
70
100
AcDbEntity
100
AcDbLine
  8
0
 62
256
370
13
  6
ByLayer
 10
-2000.0
 20
500.0
 30
0.0
 11
-2000.0
 21
450.0
 31
0.0
  0
LINE
  5
71
100
AcDbEntity
100
AcDbLine
  8
0
 62
256
370
13
  6
ByLayer
 10
-2000.0
 20
450.0
 30
0.0
 11
-2000.0
 21
350.0
 31
0.0
  0
LINE
  5
72
100
AcDbEntity
100
AcDbLine
  8
0
 62
256
370
13
  6
ByLayer
 10
-2000.0
 20
350.0
 30
0.0
 11
-2000.0
 21
50.0
 31
0.0
  0
LINE
  5
73
100
AcDbEntity
100
AcDbLine
  8
0
 62
256
370
13
  6
ByLayer
 10
-2000.0
 20
50.0
 30
0.0
 11
-2000.0
 21
-50.0
 31
0.0
  0
LINE
  5
74
100
AcDbEntity
100
AcDbLine
  8
0
 62
256
370
13
  6
ByLayer
 10
-2000.0
 20
-50.0
 30
0.0
 11
-2000.0
 21
-100.0
 31
0.0
  0
LINE
  5
75
100
AcDbEntity
100
AcDbLine
  8
0
 62
256
370
13
  6
ByLayer
 10
-594.586271316183911
 20
500.0
 30
0.0
 11
-750.0
 21
500.0
 31
0.0
  0
LINE
  5
76
100
AcDbEntity
100
AcDbLine
  8
0
 62
256
370
13
  6
ByLayer
 10
-750.0
 20
500.0
 30
0.0
 11
-2000.0
 21
500.0
 31
0.0
  0
DIMENSION
  5
77
100
AcDbEntity
  8
0
 62
256
370
5
  6
ByLayer
100
AcDbDimension
 10
-750.0
 20
753.6500932701990223
 30
0.0
 11
-1375.0
 21
779.6500932701990223
 31
0.0
 70
0
 71
5
 72
1
 41
1.0
 42
0.0
  1

  3
Standard
100
AcDbAlignedDimension
 13
-2000.0
 23
500.0
 33
0.0
 14
-750.0
 24
500.0
 34
0.0
 50
0.0
100
AcDbRotatedDimension
  0
DIMENSION
  5
78
100
AcDbEntity
  8
0
 62
256
370
5
  6
ByLayer
100
AcDbDimension
 10
3140.0
 20
1379.448831432060615
 30
0.0
 11
570.0
 21
1405.448831432060615
 31
0.0
 70
0
 71
5
 72
1
 41
1.0
 42
0.0
  1

  3
Standard
100
AcDbAlignedDimension
 13
-2000.0
 23
500.0
 33
0.0
 14
3140.0
 24
220.0
 34
0.0
 50
0.0
100
AcDbRotatedDimension
  0
DIMENSION
  5
79
100
AcDbEntity
  8
0
 62
256
370
5
  6
ByLayer
100
AcDbDimension
 10
-2321.5114480198094498
 20
500.0
 30
0.0
 11
-2347.5114480198094498
 21
200.0
 31
0.0
 70
0
 71
5
 72
1
 41
1.0
 42
0.0
  1

  3
Standard
100
AcDbAlignedDimension
 13
-2000.0
 23
-100.0
 33
0.0
 14
-2000.0
 24
500.0
 34
0.0
 50
90.0
100
AcDbRotatedDimension
  0
MTEXT
  5
7A
100
AcDbEntity
100
AcDbMText
  8
0
 62
256
370
5
  6
CENTER
 10
109.1388405548477323
 20
1616.6190757186820974
 30
0.0
 40
200.0
 41
100.0
 71
1
 72
0
  1
50\~mm
  7
normallatin1
 50
0.0
 73
1
 44
1.0
  0
MTEXT
  5
7B
100
AcDbEntity
100
AcDbMText
  8
0
 62
256
370
5
  6
CENTER
 10
-1725.757916273529645
 20
989.0707425283075054
 30
0.0
 40
200.0
 41
100.0
 71
1
 72
0
  1
15\~mm
  7
normallatin1
 50
0.0
 73
1
 44
1.0
  0
MTEXT
  5
7C
100
AcDbEntity
100
AcDbMText
  8
0
 62
256
370
5
  6
CENTER
 10
-2687.5439486631253203
 20
-402.4494745460009995
 30
0.0
 40
200.0
 41
100.0
 71
1
 72
0
  1
6\~mm\~dia.
  7
normallatin1
 50
90.0
 73
1
 44
1.0
  0
ENDSEC
  0
SECTION
  2
OBJECTS
  0
DICTIONARY
  5
C
100
AcDbDictionary
280
0
281
1
  3
ACAD_GROUP
350
D
  3
ACAD_LAYOUT
350
1A
  3
ACAD_MLINESTYLE
350
17
  3
ACAD_PLOTSETTINGS
350
19
  3
ACAD_PLOTSTYLENAME
350
E
  3
AcDbVariableDictionary
350
7D
  0
DICTIONARY
  5
D
100
AcDbDictionary
280
0
281
1
  0
ACDBDICTIONARYWDFLT
  5
E
100
AcDbDictionary
281
1
  3
Normal
350
F
100
AcDbDictionaryWithDefault
340
F
  0
ACDBPLACEHOLDER
  5
F
  0
DICTIONARY
  5
17
100
AcDbDictionary
280
0
281
1
  3
Standard
350
18
  0
MLINESTYLE
  5
18
100
AcDbMlineStyle
  2
STANDARD
 70
0
  3

 62
256
 51
90.0
 52
90.0
 71
2
 49
0.5
 62
256
  6
BYLAYER
 49
-0.5
 62
256
  6
BYLAYER
  0
DICTIONARY
  5
19
100
AcDbDictionary
280
0
281
1
  0
DICTIONARY
  5
1A
100
AcDbDictionary
281
1
  3
Layout1
350
1E
  3
Layout2
350
26
  3
Model
350
22
  0
LAYOUT
  5
1E
100
AcDbPlotSettings
  1

  2
C:\Program Files\AutoCAD 2002\plotters\DWF ePlot (optimized for plotting).pc3
  4

  6

 40
0.0
 41
0.0
 42
0.0
 43
0.0
 44
0.0
 45
0.0
 46
0.0
 47
0.0
 48
0.0
 49
0.0
140
0.0
141
0.0
142
1.0
143
1.0
 70
688
 72
0
 73
0
 74
5
  7

 75
16
147
1.0
148
0.0
149
0.0
100
AcDbLayout
  1
Layout1
 70
1
 71
1
 10
0.0
 20
0.0
 11
420.0
 21
297.0
 12
0.0
 22
0.0
 32
0.0
 14
100000000000000000000.0
 24
100000000000000000000.0
 34
100000000000000000000.0
 15
-100000000000000000000.0
 25
-100000000000000000000.0
 35
-100000000000000000000.0
146
0.0
 13
0.0
 23
0.0
 33
0.0
 16
1.0
 26
0.0
 36
0.0
 17
0.0
 27
1.0
 37
0.0
 76
0
330
1B
  0
LAYOUT
  5
22
100
AcDbPlotSettings
  1

  2
C:\Program Files\AutoCAD 2002\plotters\DWF ePlot (optimized for plotting).pc3
  4

  6

 40
0.0
 41
0.0
 42
0.0
 43
0.0
 44
0.0
 45
0.0
 46
0.0
 47
0.0
 48
0.0
 49
0.0
140
0.0
141
0.0
142
1.0
143
1.0
 70
1712
 72
0
 73
0
 74
0
  7

 75
0
147
1.0
148
0.0
149
0.0
100
AcDbLayout
  1
Model
 70
1
 71
0
 10
0.0
 20
0.0
 11
12.0
 21
9.0
 12
0.0
 22
0.0
 32
0.0
 14
0.0
 24
0.0
 34
0.0
 15
0.0
 25
0.0
 35
0.0
146
0.0
 13
0.0
 23
0.0
 33
0.0
 16
1.0
 26
0.0
 36
0.0
 17
0.0
 27
1.0
 37
0.0
 76
0
330
1F
  0
LAYOUT
  5
26
100
AcDbPlotSettings
  1

  2
C:\Program Files\AutoCAD 2002\plotters\DWF ePlot (optimized for plotting).pc3
  4

  6

 40
0.0
 41
0.0
 42
0.0
 43
0.0
 44
0.0
 45
0.0
 46
0.0
 47
0.0
 48
0.0
 49
0.0
140
0.0
141
0.0
142
1.0
143
1.0
 70
688
 72
0
 73
0
 74
5
  7

 75
16
147
1.0
148
0.0
149
0.0
100
AcDbLayout
  1
Layout2
 70
1
 71
2
 10
0.0
 20
0.0
 11
12.0
 21
9.0
 12
0.0
 22
0.0
 32
0.0
 14
0.0
 24
0.0
 34
0.0
 15
0.0
 25
0.0
 35
0.0
146
0.0
 13
0.0
 23
0.0
 33
0.0
 16
1.0
 26
0.0
 36
0.0
 17
0.0
 27
1.0
 37
0.0
 76
0
330
23
  0
DICTIONARY
  5
7D
100
AcDbDictionary
281
1
  3
DIMASSOC
350
7F
  3
HIDETEXT
350
7E
  0
DICTIONARYVAR
  5
7E
100
DictionaryVariables
280
0
  1
2
  0
DICTIONARYVAR
  5
7F
100
DictionaryVariables
280
0
  1
1
  0
ENDSEC
  0
EOF
