G04 (Genere par PCBNEW (2007-01-15)) le 18/3/2007-20:39:38*
G01*
G70*
G90*
%MOIN*%
G04 Gerber Fmt 3.4, Leading zero omitted, Abs format*
%FSLAX34Y34*%
G04 APERTURE LIST*
%ADD10C,0.015000*%
%ADD11C,0.080000*%
%ADD12R,0.080000X0.080000*%
%ADD13R,0.070000X0.070000*%
%ADD14C,0.070000*%
%ADD15R,0.055000X0.055000*%
%ADD16C,0.055000*%
%ADD17C,0.040000*%
%ADD18C,0.080000*%
%ADD19C,0.010000*%
G04 APERTURE END LIST*
G54D10*
X83100Y-47400D02*
X43100Y-47400D01*
X43100Y-22400D02*
X83100Y-22400D01*
X43100Y-47400D02*
X43100Y-22400D01*
X83100Y-22400D02*
X83100Y-47400D01*
G54D11*
X46700Y-42500D03*
X46700Y-43500D03*
G54D12*
X46700Y-44500D03*
G54D11*
X46700Y-37300D03*
X46700Y-38300D03*
G54D12*
X46700Y-39300D03*
G54D11*
X46700Y-32900D03*
X46700Y-33900D03*
G54D12*
X46700Y-34900D03*
G54D11*
X48500Y-45500D03*
X48500Y-42500D03*
X48500Y-40300D03*
X48500Y-37300D03*
X50400Y-35700D03*
X50400Y-32700D03*
G54D12*
X44700Y-44500D03*
G54D11*
X44700Y-43500D03*
G54D12*
X44700Y-39300D03*
G54D11*
X44700Y-38300D03*
G54D12*
X44700Y-34900D03*
G54D11*
X44700Y-33900D03*
G54D12*
X51200Y-24500D03*
G54D11*
X50200Y-24500D03*
X48200Y-26500D03*
X51200Y-26500D03*
G54D12*
X58900Y-23700D03*
G54D11*
X57900Y-23700D03*
X56900Y-23700D03*
X58900Y-29600D03*
X58900Y-26600D03*
X53400Y-28000D03*
X53400Y-25000D03*
X55900Y-28000D03*
X55900Y-25000D03*
G54D12*
X55200Y-23700D03*
G54D11*
X54200Y-23700D03*
X53200Y-23700D03*
X60800Y-29600D03*
X60800Y-26600D03*
X62900Y-27100D03*
X62900Y-24100D03*
G54D12*
X64900Y-23700D03*
G54D11*
X65900Y-23700D03*
G54D12*
X46400Y-31300D03*
G54D11*
X46400Y-30300D03*
X46400Y-29300D03*
X46400Y-28300D03*
X46400Y-27300D03*
X46400Y-26300D03*
X46400Y-25300D03*
X59000Y-45500D03*
X59000Y-43500D03*
G54D12*
X61500Y-24500D03*
G54D11*
X60500Y-24500D03*
G54D12*
X68200Y-23700D03*
G54D11*
X69200Y-23700D03*
X66200Y-26600D03*
X69200Y-26600D03*
X66200Y-25100D03*
X69200Y-25100D03*
X64100Y-25400D03*
X64100Y-28400D03*
G54D12*
X67300Y-27900D03*
G54D11*
X67300Y-28900D03*
G54D12*
X71700Y-23700D03*
G54D11*
X70700Y-23700D03*
G54D12*
X74200Y-23700D03*
G54D11*
X73200Y-23700D03*
G54D12*
X71400Y-40100D03*
G54D11*
X71900Y-38100D03*
X72400Y-40100D03*
X72900Y-38100D03*
X73400Y-40100D03*
X73900Y-38100D03*
X74400Y-40100D03*
X74900Y-38100D03*
X75400Y-40100D03*
X75900Y-38100D03*
X76400Y-40100D03*
X76900Y-38100D03*
X77400Y-40100D03*
X77900Y-38100D03*
X78400Y-40100D03*
G54D12*
X67800Y-37900D03*
G54D11*
X67800Y-38900D03*
X67800Y-39900D03*
X67800Y-40900D03*
X67800Y-41900D03*
G54D12*
X60500Y-41100D03*
G54D11*
X60500Y-40100D03*
X60500Y-39100D03*
X60500Y-38100D03*
X60500Y-37100D03*
X60500Y-36100D03*
X60500Y-35100D03*
X60500Y-34100D03*
X60500Y-33100D03*
X57500Y-33100D03*
X57500Y-34100D03*
X57500Y-35100D03*
X57500Y-36100D03*
X57500Y-37100D03*
X57500Y-38100D03*
X57500Y-39100D03*
X57500Y-40100D03*
X57500Y-41100D03*
G54D13*
X78400Y-45700D03*
G54D14*
X78400Y-43700D03*
G54D13*
X65000Y-45500D03*
G54D14*
X65000Y-43500D03*
X78500Y-29600D03*
G54D13*
X82500Y-29600D03*
G54D14*
X78500Y-31000D03*
G54D13*
X82500Y-31000D03*
G54D14*
X78500Y-28200D03*
G54D13*
X82500Y-28200D03*
G54D14*
X78500Y-32400D03*
G54D13*
X82500Y-32400D03*
G54D14*
X70300Y-29600D03*
G54D13*
X74300Y-29600D03*
G54D14*
X70300Y-31000D03*
G54D13*
X74300Y-31000D03*
G54D14*
X70300Y-28200D03*
G54D13*
X74300Y-28200D03*
G54D14*
X70300Y-32400D03*
G54D13*
X74300Y-32400D03*
G54D15*
X81400Y-41000D03*
G54D16*
X81400Y-42000D03*
G54D15*
X76700Y-23700D03*
G54D16*
X77700Y-23700D03*
X78700Y-23700D03*
X79700Y-23700D03*
G54D15*
X69200Y-45600D03*
G54D16*
X69200Y-44600D03*
X68200Y-44600D03*
X78700Y-25000D03*
X80700Y-25000D03*
X75700Y-25000D03*
X77700Y-25000D03*
G54D11*
X81890Y-23622D03*
X44094Y-23622D03*
X44094Y-46457D03*
X81890Y-46457D03*
X50200Y-43500D03*
X67300Y-31300D03*
X76600Y-43800D03*
X70900Y-38400D03*
X76400Y-35800D03*
X55800Y-44400D03*
X69200Y-42000D03*
X69200Y-35800D03*
X62500Y-40100D03*
X69100Y-34800D03*
X78400Y-34800D03*
X73000Y-34800D03*
X62400Y-30700D03*
X62500Y-36100D03*
X75400Y-43900D03*
X51300Y-36900D03*
X61700Y-38100D03*
X63200Y-39100D03*
X63200Y-29600D03*
X56500Y-38100D03*
X62900Y-25200D03*
X47700Y-23600D03*
X67000Y-23700D03*
X55900Y-39100D03*
X56500Y-29600D03*
X47700Y-30300D03*
X52400Y-31300D03*
X53300Y-30600D03*
X52300Y-29600D03*
X56300Y-41100D03*
X70700Y-26600D03*
X64300Y-35100D03*
X65100Y-34100D03*
X74200Y-26300D03*
X75700Y-32400D03*
X75700Y-27200D03*
X71900Y-34700D03*
X72400Y-42700D03*
X66100Y-31400D03*
X66100Y-33900D03*
X73400Y-41800D03*
X67000Y-32300D03*
X67000Y-33900D03*
X74400Y-41100D03*
X75900Y-36700D03*
X64000Y-41000D03*
X79500Y-39000D03*
X77000Y-31000D03*
G54D17*
X70000Y-31300D02*
X70300Y-31000D01*
X67400Y-31300D02*
X68700Y-31300D01*
X68700Y-31300D02*
X70000Y-31300D01*
X67300Y-31400D02*
X67400Y-31300D01*
G54D18*
X59000Y-43500D02*
X57300Y-43500D01*
X56700Y-43500D02*
X50200Y-43500D01*
X57300Y-43500D02*
X56700Y-43500D01*
G54D17*
X67300Y-31300D02*
X68700Y-31300D01*
X50200Y-24500D02*
X50200Y-26700D01*
X54000Y-30300D02*
X54000Y-32300D01*
X51400Y-33900D02*
X46700Y-33900D01*
X54000Y-32300D02*
X54000Y-32900D01*
X53000Y-33900D02*
X51400Y-33900D01*
X54000Y-32900D02*
X53000Y-33900D01*
X54000Y-30300D02*
X54000Y-30000D01*
X51000Y-27500D02*
X50200Y-26700D01*
X51500Y-27500D02*
X51000Y-27500D01*
X54000Y-30000D02*
X51500Y-27500D01*
X67800Y-37300D02*
X67800Y-37900D01*
X70800Y-37300D02*
X67800Y-37300D01*
X49800Y-46800D02*
X48500Y-45500D01*
X75300Y-46800D02*
X49800Y-46800D01*
X76500Y-45600D02*
X75300Y-46800D01*
X76500Y-43900D02*
X76500Y-45600D01*
X76600Y-43800D02*
X76500Y-43900D01*
X70800Y-38300D02*
X70800Y-37300D01*
X70900Y-38400D02*
X70800Y-38300D01*
X76400Y-35800D02*
X70200Y-35800D01*
X65900Y-44400D02*
X55800Y-44400D01*
X67400Y-42900D02*
X65900Y-44400D01*
X68300Y-42900D02*
X67400Y-42900D01*
X69200Y-42000D02*
X68300Y-42900D01*
X55800Y-44400D02*
X49300Y-44400D01*
X48500Y-41300D02*
X48500Y-40300D01*
X49300Y-41300D02*
X48500Y-41300D01*
X49300Y-44400D02*
X49300Y-41300D01*
X70200Y-35800D02*
X69200Y-35800D01*
X63900Y-36000D02*
X63900Y-40100D01*
X63900Y-40100D02*
X62500Y-40100D01*
X64100Y-35800D02*
X63900Y-36000D01*
X68100Y-35800D02*
X64100Y-35800D01*
X69100Y-34800D02*
X68100Y-35800D01*
X62500Y-40100D02*
X62500Y-42100D01*
X52200Y-35700D02*
X50400Y-35700D01*
X62500Y-42100D02*
X62500Y-42600D01*
X62500Y-42600D02*
X52200Y-42600D01*
X52200Y-42600D02*
X52200Y-35700D01*
G54D18*
X73000Y-34800D02*
X78400Y-34800D01*
G54D17*
X62400Y-36000D02*
X62400Y-30700D01*
X62500Y-36100D02*
X62400Y-36000D01*
G54D18*
X68200Y-44100D02*
X68200Y-44600D01*
X68900Y-43400D02*
X68200Y-44100D01*
X70600Y-43400D02*
X68900Y-43400D01*
X71200Y-44000D02*
X70600Y-43400D01*
X75300Y-44000D02*
X71200Y-44000D01*
X75400Y-43900D02*
X75300Y-44000D01*
G54D17*
X55900Y-28000D02*
X58900Y-28000D01*
X58900Y-28000D02*
X58900Y-29600D01*
X53400Y-28000D02*
X53400Y-27000D01*
X44100Y-25700D02*
X44100Y-30300D01*
X49200Y-24500D02*
X45400Y-24500D01*
X52200Y-23400D02*
X49200Y-23400D01*
X49200Y-23400D02*
X49200Y-24500D01*
X52200Y-24100D02*
X52200Y-23400D01*
X52200Y-26200D02*
X52200Y-24100D01*
X52600Y-26600D02*
X52200Y-26200D01*
X53000Y-26600D02*
X52600Y-26600D01*
X53400Y-27000D02*
X53000Y-26600D01*
X44100Y-30300D02*
X44100Y-30300D01*
X44100Y-30300D02*
X44700Y-30300D01*
X44700Y-30300D02*
X45200Y-30300D01*
X45200Y-30300D02*
X45100Y-30300D01*
X45900Y-30300D02*
X46400Y-30300D01*
X45100Y-30300D02*
X45900Y-30300D01*
X44700Y-30300D02*
X45200Y-30300D01*
G54D18*
X43700Y-30300D02*
X46400Y-30300D01*
X43700Y-36200D02*
X43700Y-30300D01*
X49100Y-36200D02*
X43700Y-36200D01*
X49300Y-36400D02*
X49100Y-36200D01*
X49300Y-36500D02*
X49300Y-36400D01*
X49700Y-36900D02*
X49300Y-36500D01*
X51300Y-36900D02*
X49700Y-36900D01*
G54D17*
X45400Y-24500D02*
X45300Y-24500D01*
X45300Y-24500D02*
X44100Y-25700D01*
X54100Y-25700D02*
X53400Y-25000D01*
X54600Y-25700D02*
X54100Y-25700D01*
X53000Y-41900D02*
X53000Y-35500D01*
X61700Y-41900D02*
X53000Y-41900D01*
X61700Y-38100D02*
X61700Y-41900D01*
X54600Y-32800D02*
X54600Y-29200D01*
X54600Y-29200D02*
X54600Y-27500D01*
X54600Y-27500D02*
X54600Y-25700D01*
X53000Y-35500D02*
X53000Y-35200D01*
X54600Y-33600D02*
X54600Y-32800D01*
X53000Y-35200D02*
X54600Y-33600D01*
X63200Y-39100D02*
X63200Y-30800D01*
X63200Y-30800D02*
X63200Y-30300D01*
X63200Y-29600D02*
X63200Y-30800D01*
X62900Y-27100D02*
X61900Y-28100D01*
X56500Y-31100D02*
X56500Y-38100D01*
X60700Y-31100D02*
X56500Y-31100D01*
X61800Y-30000D02*
X60700Y-31100D01*
X61800Y-28200D02*
X61800Y-30000D01*
X61900Y-28100D02*
X61800Y-28200D01*
X63600Y-22800D02*
X48400Y-22800D01*
X64000Y-23200D02*
X63600Y-22800D01*
X64000Y-24200D02*
X64000Y-23200D01*
X62900Y-25200D02*
X64000Y-24200D01*
X47700Y-23600D02*
X48400Y-22900D01*
X48400Y-22900D02*
X48400Y-22800D01*
X47700Y-23600D02*
X48400Y-22900D01*
X48400Y-22900D02*
X48400Y-22800D01*
X67200Y-26600D02*
X66200Y-26600D01*
X67200Y-24400D02*
X67200Y-25000D01*
X67200Y-25000D02*
X67200Y-26600D01*
X67200Y-25000D02*
X67200Y-23900D01*
X67200Y-23900D02*
X67000Y-23700D01*
X55800Y-36900D02*
X55800Y-30900D01*
X55800Y-30900D02*
X55800Y-30300D01*
X55800Y-30300D02*
X56500Y-29600D01*
X51000Y-31400D02*
X48100Y-31400D01*
X48100Y-31400D02*
X47700Y-31000D01*
X47700Y-31000D02*
X47700Y-30300D01*
X51000Y-31400D02*
X52300Y-31400D01*
X52300Y-31400D02*
X52400Y-31300D01*
X55900Y-39100D02*
X55900Y-39000D01*
X55800Y-38900D02*
X55800Y-36900D01*
X55900Y-39000D02*
X55800Y-38900D01*
X48900Y-29300D02*
X46400Y-29300D01*
X53300Y-30600D02*
X50300Y-30600D01*
X50300Y-30600D02*
X49000Y-30600D01*
X48900Y-30500D02*
X48900Y-29300D01*
X49000Y-30600D02*
X48900Y-30500D01*
X49900Y-28300D02*
X46400Y-28300D01*
X51000Y-29600D02*
X50300Y-29600D01*
X50300Y-29600D02*
X50300Y-28700D01*
X50300Y-28700D02*
X49900Y-28300D01*
X52300Y-29600D02*
X51000Y-29600D01*
X55200Y-41100D02*
X55800Y-41100D01*
X56300Y-41100D02*
X55800Y-41100D01*
X55200Y-25800D02*
X55200Y-41100D01*
X65400Y-29900D02*
X65400Y-27200D01*
X67600Y-29900D02*
X65400Y-29900D01*
X65400Y-27200D02*
X65400Y-26400D01*
X56800Y-25800D02*
X55200Y-25800D01*
X57100Y-25500D02*
X56800Y-25800D01*
X61500Y-25500D02*
X57100Y-25500D01*
X62200Y-26200D02*
X61500Y-25500D01*
X63500Y-26200D02*
X62200Y-26200D01*
X63700Y-26400D02*
X63500Y-26200D01*
X65400Y-26400D02*
X63700Y-26400D01*
X67600Y-29900D02*
X68600Y-29900D01*
X68800Y-27000D02*
X69200Y-26600D01*
X68800Y-29700D02*
X68800Y-27000D01*
X68600Y-29900D02*
X68800Y-29700D01*
X68100Y-30500D02*
X64800Y-30500D01*
X70700Y-26600D02*
X70600Y-26600D01*
X70600Y-26600D02*
X70600Y-27300D01*
X70500Y-27400D02*
X69400Y-27400D01*
X70600Y-27300D02*
X70500Y-27400D01*
X64800Y-30500D02*
X64300Y-30500D01*
X64300Y-30500D02*
X64300Y-35100D01*
X69400Y-27400D02*
X69400Y-30400D01*
X69300Y-30500D02*
X68100Y-30500D01*
X69400Y-30400D02*
X69300Y-30500D01*
X65100Y-35100D02*
X65100Y-34100D01*
X67500Y-35100D02*
X65100Y-35100D01*
X68700Y-33900D02*
X67500Y-35100D01*
X71000Y-33900D02*
X68700Y-33900D01*
X71000Y-31500D02*
X71000Y-33900D01*
X73100Y-29400D02*
X71000Y-31500D01*
X73100Y-27400D02*
X73100Y-29400D01*
X74200Y-26300D02*
X73100Y-27400D01*
G54D18*
X75700Y-31800D02*
X75700Y-32400D01*
X75700Y-27200D02*
X75700Y-31800D01*
X71900Y-32400D02*
X74300Y-32400D01*
X71900Y-34700D02*
X71900Y-32400D01*
X78500Y-28200D02*
X80800Y-28200D01*
X77600Y-42700D02*
X72400Y-42700D01*
X81000Y-39300D02*
X77600Y-42700D01*
X81000Y-28400D02*
X81000Y-39300D01*
X80800Y-28200D02*
X81000Y-28400D01*
G54D17*
X66100Y-33900D02*
X66100Y-31400D01*
X68900Y-40800D02*
X67800Y-41900D01*
X69900Y-40800D02*
X68900Y-40800D01*
X70900Y-41800D02*
X69900Y-40800D01*
X73400Y-41800D02*
X70900Y-41800D01*
X67000Y-33900D02*
X67000Y-32300D01*
X68700Y-40000D02*
X67800Y-40900D01*
X70000Y-40000D02*
X68700Y-40000D01*
X71100Y-41100D02*
X70000Y-40000D01*
X74400Y-41100D02*
X73700Y-41100D01*
X73700Y-41100D02*
X71100Y-41100D01*
X74400Y-41100D02*
X73700Y-41100D01*
X66600Y-39900D02*
X67800Y-39900D01*
X66600Y-36700D02*
X66600Y-39900D01*
X75900Y-36700D02*
X66600Y-36700D01*
X65200Y-39900D02*
X66600Y-39900D01*
X64000Y-41000D02*
X65100Y-41000D01*
X65200Y-40900D02*
X65200Y-39900D01*
X65100Y-41000D02*
X65200Y-40900D01*
G54D18*
X79750Y-31000D02*
X79800Y-31000D01*
X79800Y-31000D02*
X79600Y-31000D01*
X79600Y-31000D02*
X79500Y-31000D01*
X79500Y-31000D02*
X78500Y-31000D01*
X79750Y-38750D02*
X79750Y-31000D01*
X79500Y-39000D02*
X79750Y-38750D01*
X78700Y-25000D02*
X78700Y-26500D01*
X77000Y-26600D02*
X77000Y-31000D01*
X78600Y-26600D02*
X77000Y-26600D01*
X78700Y-26500D02*
X78600Y-26600D01*
G54D19*
X82400Y-40600D02*
X82400Y-45600D01*
X82400Y-24500D02*
X82400Y-27200D01*
X82300Y-40600D02*
X82300Y-45600D01*
X82300Y-24500D02*
X82300Y-27200D01*
X82200Y-42300D02*
X82200Y-45500D01*
X82200Y-24600D02*
X82200Y-27200D01*
X82100Y-42500D02*
X82100Y-45500D01*
X82100Y-24600D02*
X82100Y-27200D01*
X82000Y-42600D02*
X82000Y-45500D01*
X82000Y-24600D02*
X82000Y-27200D01*
X81900Y-42700D02*
X81900Y-45500D01*
X81900Y-24600D02*
X81900Y-27200D01*
X81800Y-42800D02*
X81800Y-45500D01*
X81800Y-24600D02*
X81800Y-27200D01*
X81700Y-42800D02*
X81700Y-45500D01*
X81700Y-24600D02*
X81700Y-27200D01*
X81600Y-42900D02*
X81600Y-45500D01*
X81600Y-24600D02*
X81600Y-27200D01*
X81500Y-42900D02*
X81500Y-45500D01*
X81500Y-25300D02*
X81500Y-33400D01*
X81500Y-24500D02*
X81500Y-24700D01*
X81400Y-42900D02*
X81400Y-45600D01*
X81400Y-25500D02*
X81400Y-33400D01*
X81300Y-42900D02*
X81300Y-45700D01*
X81300Y-25600D02*
X81300Y-33400D01*
X81200Y-42900D02*
X81200Y-45800D01*
X81200Y-25700D02*
X81200Y-33400D01*
X81100Y-42800D02*
X81100Y-45900D01*
X81100Y-25800D02*
X81100Y-33400D01*
X81000Y-42800D02*
X81000Y-46100D01*
X81000Y-25800D02*
X81000Y-40100D01*
X80900Y-42700D02*
X80900Y-46700D01*
X80900Y-25900D02*
X80900Y-40100D01*
X80800Y-42600D02*
X80800Y-46700D01*
X80800Y-25900D02*
X80800Y-40100D01*
X80700Y-42500D02*
X80700Y-46700D01*
X80700Y-38800D02*
X80700Y-40100D01*
X80700Y-25900D02*
X80700Y-30600D01*
X80600Y-42300D02*
X80600Y-46700D01*
X80600Y-39200D02*
X80600Y-40100D01*
X80600Y-25900D02*
X80600Y-30400D01*
X80500Y-39400D02*
X80500Y-46700D01*
X80500Y-25900D02*
X80500Y-30300D01*
X80400Y-39500D02*
X80400Y-46700D01*
X80400Y-25800D02*
X80400Y-30200D01*
X80300Y-39600D02*
X80300Y-46700D01*
X80300Y-25800D02*
X80300Y-30100D01*
X80200Y-39700D02*
X80200Y-46700D01*
X80200Y-25700D02*
X80200Y-30100D01*
X80100Y-39800D02*
X80100Y-46700D01*
X80100Y-25600D02*
X80100Y-30000D01*
X80000Y-39900D02*
X80000Y-46700D01*
X80000Y-25500D02*
X80000Y-30000D01*
X79900Y-39900D02*
X79900Y-46700D01*
X79900Y-25300D02*
X79900Y-30000D01*
X79900Y-24600D02*
X79900Y-24700D01*
X79800Y-40000D02*
X79800Y-46700D01*
X79800Y-24600D02*
X79800Y-30000D01*
X79700Y-40000D02*
X79700Y-46700D01*
X79700Y-24600D02*
X79700Y-30000D01*
X79600Y-40000D02*
X79600Y-46700D01*
X79600Y-26900D02*
X79600Y-30000D01*
X79500Y-40000D02*
X79500Y-46700D01*
X79500Y-27100D02*
X79500Y-30000D01*
X79400Y-40000D02*
X79400Y-46700D01*
X79400Y-27200D02*
X79400Y-30000D01*
X79300Y-40500D02*
X79300Y-44700D01*
X79300Y-27300D02*
X79300Y-29100D01*
X79200Y-44200D02*
X79200Y-44700D01*
X79200Y-40700D02*
X79200Y-43200D01*
X79200Y-27400D02*
X79200Y-29000D01*
X79100Y-44300D02*
X79100Y-44700D01*
X79100Y-40800D02*
X79100Y-43100D01*
X79100Y-27500D02*
X79100Y-28900D01*
X79000Y-44400D02*
X79000Y-44700D01*
X79000Y-40900D02*
X79000Y-43000D01*
X79000Y-27500D02*
X79000Y-28800D01*
X78900Y-44500D02*
X78900Y-44700D01*
X78900Y-41000D02*
X78900Y-42900D01*
X78900Y-27600D02*
X78900Y-28700D01*
X78800Y-44600D02*
X78800Y-44700D01*
X78800Y-41000D02*
X78800Y-42800D01*
X78800Y-27600D02*
X78800Y-28700D01*
X78700Y-44600D02*
X78700Y-44700D01*
X78700Y-41100D02*
X78700Y-42800D01*
X78700Y-27600D02*
X78700Y-28700D01*
X78600Y-44600D02*
X78600Y-44700D01*
X78600Y-41100D02*
X78600Y-42800D01*
X78600Y-27600D02*
X78600Y-28700D01*
X78500Y-44600D02*
X78500Y-44700D01*
X78500Y-41100D02*
X78500Y-42800D01*
X78500Y-27600D02*
X78500Y-28700D01*
X78400Y-44600D02*
X78400Y-44700D01*
X78400Y-41100D02*
X78400Y-42800D01*
X78400Y-27600D02*
X78400Y-28700D01*
X78300Y-44600D02*
X78300Y-44700D01*
X78300Y-41100D02*
X78300Y-42800D01*
X78300Y-27600D02*
X78300Y-28700D01*
X78200Y-44600D02*
X78200Y-44700D01*
X78200Y-41100D02*
X78200Y-42800D01*
X78200Y-27600D02*
X78200Y-28700D01*
X78100Y-44600D02*
X78100Y-44700D01*
X78100Y-41100D02*
X78100Y-42800D01*
X78100Y-27600D02*
X78100Y-28700D01*
X78000Y-44600D02*
X78000Y-44700D01*
X78000Y-41000D02*
X78000Y-42800D01*
X78000Y-27600D02*
X78000Y-28800D01*
X77900Y-44500D02*
X77900Y-44700D01*
X77900Y-41000D02*
X77900Y-42900D01*
X77800Y-44400D02*
X77800Y-44700D01*
X77800Y-41000D02*
X77800Y-43000D01*
X77700Y-44300D02*
X77700Y-44700D01*
X77700Y-41100D02*
X77700Y-43100D01*
X77600Y-44200D02*
X77600Y-44700D01*
X77600Y-41100D02*
X77600Y-43200D01*
X77500Y-44200D02*
X77500Y-44700D01*
X77500Y-41100D02*
X77500Y-43400D01*
X77400Y-44400D02*
X77400Y-46700D01*
X77400Y-41100D02*
X77400Y-43200D01*
X77300Y-44500D02*
X77300Y-46700D01*
X77300Y-41100D02*
X77300Y-43100D01*
X77200Y-45900D02*
X77200Y-46700D01*
X77200Y-41100D02*
X77200Y-43000D01*
X77100Y-46100D02*
X77100Y-46700D01*
X77100Y-41100D02*
X77100Y-42900D01*
X77000Y-46200D02*
X77000Y-46700D01*
X77000Y-41000D02*
X77000Y-42900D01*
X76900Y-46300D02*
X76900Y-46700D01*
X76900Y-41000D02*
X76900Y-42800D01*
X76800Y-46400D02*
X76800Y-46700D01*
X76800Y-41000D02*
X76800Y-42800D01*
X76700Y-46500D02*
X76700Y-46700D01*
X76700Y-41100D02*
X76700Y-42800D01*
X76600Y-46600D02*
X76600Y-46700D01*
X76600Y-41100D02*
X76600Y-42800D01*
X76500Y-41100D02*
X76500Y-42800D01*
X76400Y-41100D02*
X76400Y-42800D01*
X76300Y-41100D02*
X76300Y-42800D01*
X76200Y-41100D02*
X76200Y-42900D01*
X76100Y-41100D02*
X76100Y-42900D01*
X76000Y-41000D02*
X76000Y-43000D01*
X75900Y-41000D02*
X75900Y-43000D01*
X75800Y-41000D02*
X75800Y-43000D01*
X75700Y-41100D02*
X75700Y-42900D01*
X75600Y-41100D02*
X75600Y-42900D01*
X75500Y-41100D02*
X75500Y-42900D01*
X75400Y-41100D02*
X75400Y-42900D01*
X75300Y-41500D02*
X75300Y-42900D01*
X75200Y-41700D02*
X75200Y-42900D01*
X75100Y-41800D02*
X75100Y-42900D01*
X75000Y-41900D02*
X75000Y-43000D01*
X74900Y-42000D02*
X74900Y-43000D01*
X74800Y-42000D02*
X74800Y-43000D01*
X74700Y-42100D02*
X74700Y-43000D01*
X74600Y-42100D02*
X74600Y-43000D01*
X74500Y-42100D02*
X74500Y-43000D01*
X74400Y-42100D02*
X74400Y-43000D01*
X74300Y-42200D02*
X74300Y-43000D01*
X74200Y-42400D02*
X74200Y-43000D01*
X74100Y-42500D02*
X74100Y-43000D01*
X74000Y-42600D02*
X74000Y-43000D01*
X73900Y-42700D02*
X73900Y-43000D01*
X73800Y-42700D02*
X73800Y-43000D01*
X73700Y-42800D02*
X73700Y-43000D01*
X73600Y-42800D02*
X73600Y-43000D01*
X73500Y-42800D02*
X73500Y-43000D01*
X73400Y-42800D02*
X73400Y-43000D01*
X73300Y-42800D02*
X73300Y-43000D01*
X73200Y-42800D02*
X73200Y-43000D01*
X73100Y-42800D02*
X73100Y-43000D01*
X73000Y-42700D02*
X73000Y-43000D01*
X72900Y-42700D02*
X72900Y-43000D01*
X72800Y-42600D02*
X72800Y-43000D01*
X72700Y-42600D02*
X72700Y-43000D01*
X72600Y-42600D02*
X72600Y-43000D01*
X72500Y-42600D02*
X72500Y-43000D01*
X72400Y-42600D02*
X72400Y-43000D01*
X72300Y-42600D02*
X72300Y-43000D01*
X72200Y-42600D02*
X72200Y-43000D01*
X72100Y-42600D02*
X72100Y-42900D01*
X76500Y-46700D02*
X80900Y-46700D01*
X79400Y-46600D02*
X80900Y-46600D01*
X76600Y-46600D02*
X77400Y-46600D01*
X79400Y-46500D02*
X80900Y-46500D01*
X76700Y-46500D02*
X77400Y-46500D01*
X79400Y-46400D02*
X80900Y-46400D01*
X76800Y-46400D02*
X77400Y-46400D01*
X79400Y-46300D02*
X80900Y-46300D01*
X76900Y-46300D02*
X77400Y-46300D01*
X79400Y-46200D02*
X80900Y-46200D01*
X77000Y-46200D02*
X77400Y-46200D01*
X79400Y-46100D02*
X81000Y-46100D01*
X77100Y-46100D02*
X77400Y-46100D01*
X79400Y-46000D02*
X81000Y-46000D01*
X77200Y-46000D02*
X77400Y-46000D01*
X79400Y-45900D02*
X81100Y-45900D01*
X77200Y-45900D02*
X77400Y-45900D01*
X79400Y-45800D02*
X81200Y-45800D01*
X77300Y-45800D02*
X77400Y-45800D01*
X79400Y-45700D02*
X81300Y-45700D01*
X77300Y-45700D02*
X77400Y-45700D01*
X82300Y-45600D02*
X82400Y-45600D01*
X79400Y-45600D02*
X81400Y-45600D01*
X77300Y-45600D02*
X77400Y-45600D01*
X79400Y-45500D02*
X82400Y-45500D01*
X77300Y-45500D02*
X77400Y-45500D01*
X79400Y-45400D02*
X82400Y-45400D01*
X77300Y-45400D02*
X77400Y-45400D01*
X79400Y-45300D02*
X82400Y-45300D01*
X77300Y-45300D02*
X77400Y-45300D01*
X79400Y-45200D02*
X82400Y-45200D01*
X77300Y-45200D02*
X77400Y-45200D01*
X79400Y-45100D02*
X82400Y-45100D01*
X77300Y-45100D02*
X77400Y-45100D01*
X79400Y-45000D02*
X82400Y-45000D01*
X77300Y-45000D02*
X77400Y-45000D01*
X79400Y-44900D02*
X82400Y-44900D01*
X77300Y-44900D02*
X77400Y-44900D01*
X79400Y-44800D02*
X82400Y-44800D01*
X77300Y-44800D02*
X77400Y-44800D01*
X77300Y-44700D02*
X82400Y-44700D01*
X77300Y-44600D02*
X82400Y-44600D01*
X78900Y-44500D02*
X82400Y-44500D01*
X77300Y-44500D02*
X77900Y-44500D01*
X79000Y-44400D02*
X82400Y-44400D01*
X77400Y-44400D02*
X77800Y-44400D01*
X79100Y-44300D02*
X82400Y-44300D01*
X77500Y-44300D02*
X77700Y-44300D01*
X79200Y-44200D02*
X82400Y-44200D01*
X77500Y-44200D02*
X77600Y-44200D01*
X79300Y-44100D02*
X82400Y-44100D01*
X79300Y-44000D02*
X82400Y-44000D01*
X79300Y-43900D02*
X82400Y-43900D01*
X79300Y-43800D02*
X82400Y-43800D01*
X79300Y-43700D02*
X82400Y-43700D01*
X79300Y-43600D02*
X82400Y-43600D01*
X79300Y-43500D02*
X82400Y-43500D01*
X79300Y-43400D02*
X82400Y-43400D01*
X79300Y-43300D02*
X82400Y-43300D01*
X79200Y-43200D02*
X82400Y-43200D01*
X77400Y-43200D02*
X77600Y-43200D01*
X79100Y-43100D02*
X82400Y-43100D01*
X77300Y-43100D02*
X77700Y-43100D01*
X79000Y-43000D02*
X82400Y-43000D01*
X77200Y-43000D02*
X77800Y-43000D01*
X75800Y-43000D02*
X76000Y-43000D01*
X72200Y-43000D02*
X75000Y-43000D01*
X78900Y-42900D02*
X82400Y-42900D01*
X77000Y-42900D02*
X77900Y-42900D01*
X72100Y-42900D02*
X76200Y-42900D01*
X81700Y-42800D02*
X82400Y-42800D01*
X72100Y-42800D02*
X81100Y-42800D01*
X81900Y-42700D02*
X82400Y-42700D01*
X73800Y-42700D02*
X80900Y-42700D01*
X72100Y-42700D02*
X73000Y-42700D01*
X82000Y-42600D02*
X82400Y-42600D01*
X74000Y-42600D02*
X80800Y-42600D01*
X72100Y-42600D02*
X72800Y-42600D01*
X82100Y-42500D02*
X82400Y-42500D01*
X74100Y-42500D02*
X80700Y-42500D01*
X82200Y-42400D02*
X82400Y-42400D01*
X74200Y-42400D02*
X80600Y-42400D01*
X82200Y-42300D02*
X82400Y-42300D01*
X74300Y-42300D02*
X80600Y-42300D01*
X82300Y-42200D02*
X82400Y-42200D01*
X74300Y-42200D02*
X80500Y-42200D01*
X82300Y-42100D02*
X82400Y-42100D01*
X74400Y-42100D02*
X80500Y-42100D01*
X82300Y-42000D02*
X82400Y-42000D01*
X74800Y-42000D02*
X80500Y-42000D01*
X82300Y-41900D02*
X82400Y-41900D01*
X75000Y-41900D02*
X80500Y-41900D01*
X82300Y-41800D02*
X82400Y-41800D01*
X75100Y-41800D02*
X80500Y-41800D01*
X82300Y-41700D02*
X82400Y-41700D01*
X75200Y-41700D02*
X80500Y-41700D01*
X82300Y-41600D02*
X82400Y-41600D01*
X75300Y-41600D02*
X80500Y-41600D01*
X82300Y-41500D02*
X82400Y-41500D01*
X75300Y-41500D02*
X80500Y-41500D01*
X82300Y-41400D02*
X82400Y-41400D01*
X75400Y-41400D02*
X80500Y-41400D01*
X82300Y-41300D02*
X82400Y-41300D01*
X75400Y-41300D02*
X80500Y-41300D01*
X82300Y-41200D02*
X82400Y-41200D01*
X75400Y-41200D02*
X80500Y-41200D01*
X82300Y-41100D02*
X82400Y-41100D01*
X75400Y-41100D02*
X80500Y-41100D01*
X82300Y-41000D02*
X82400Y-41000D01*
X78800Y-41000D02*
X80500Y-41000D01*
X77800Y-41000D02*
X78000Y-41000D01*
X76800Y-41000D02*
X77000Y-41000D01*
X75800Y-41000D02*
X76000Y-41000D01*
X82300Y-40900D02*
X82400Y-40900D01*
X79000Y-40900D02*
X80500Y-40900D01*
X82300Y-40800D02*
X82400Y-40800D01*
X79100Y-40800D02*
X80500Y-40800D01*
X82300Y-40700D02*
X82400Y-40700D01*
X79200Y-40700D02*
X80500Y-40700D01*
X82300Y-40600D02*
X82400Y-40600D01*
X79300Y-40600D02*
X80500Y-40600D01*
X79300Y-40500D02*
X80500Y-40500D01*
X79400Y-40400D02*
X80500Y-40400D01*
X79400Y-40300D02*
X80500Y-40300D01*
X79400Y-40200D02*
X80500Y-40200D01*
X79400Y-40100D02*
X81000Y-40100D01*
X79400Y-40000D02*
X81000Y-40000D01*
X79900Y-39900D02*
X81000Y-39900D01*
X80100Y-39800D02*
X81000Y-39800D01*
X80200Y-39700D02*
X81000Y-39700D01*
X80300Y-39600D02*
X81000Y-39600D01*
X80400Y-39500D02*
X81000Y-39500D01*
X80500Y-39400D02*
X81000Y-39400D01*
X80600Y-39300D02*
X81000Y-39300D01*
X80600Y-39200D02*
X81000Y-39200D01*
X80700Y-39100D02*
X81000Y-39100D01*
X80700Y-39000D02*
X81000Y-39000D01*
X80700Y-38900D02*
X81000Y-38900D01*
X80700Y-38800D02*
X81000Y-38800D01*
X80800Y-38700D02*
X81000Y-38700D01*
X80800Y-38600D02*
X81000Y-38600D01*
X80800Y-38500D02*
X81000Y-38500D01*
X80800Y-38400D02*
X81000Y-38400D01*
X80800Y-38300D02*
X81000Y-38300D01*
X80800Y-38200D02*
X81000Y-38200D01*
X80800Y-38100D02*
X81000Y-38100D01*
X80800Y-38000D02*
X81000Y-38000D01*
X80800Y-37900D02*
X81000Y-37900D01*
X80800Y-37800D02*
X81000Y-37800D01*
X80800Y-37700D02*
X81000Y-37700D01*
X80800Y-37600D02*
X81000Y-37600D01*
X80800Y-37500D02*
X81000Y-37500D01*
X80800Y-37400D02*
X81000Y-37400D01*
X80800Y-37300D02*
X81000Y-37300D01*
X80800Y-37200D02*
X81000Y-37200D01*
X80800Y-37100D02*
X81000Y-37100D01*
X80800Y-37000D02*
X81000Y-37000D01*
X80800Y-36900D02*
X81000Y-36900D01*
X80800Y-36800D02*
X81000Y-36800D01*
X80800Y-36700D02*
X81000Y-36700D01*
X80800Y-36600D02*
X81000Y-36600D01*
X80800Y-36500D02*
X81000Y-36500D01*
X80800Y-36400D02*
X81000Y-36400D01*
X80800Y-36300D02*
X81000Y-36300D01*
X80800Y-36200D02*
X81000Y-36200D01*
X80800Y-36100D02*
X81000Y-36100D01*
X80800Y-36000D02*
X81000Y-36000D01*
X80800Y-35900D02*
X81000Y-35900D01*
X80800Y-35800D02*
X81000Y-35800D01*
X80800Y-35700D02*
X81000Y-35700D01*
X80800Y-35600D02*
X81000Y-35600D01*
X80800Y-35500D02*
X81000Y-35500D01*
X80800Y-35400D02*
X81000Y-35400D01*
X80800Y-35300D02*
X81000Y-35300D01*
X80800Y-35200D02*
X81000Y-35200D01*
X80800Y-35100D02*
X81000Y-35100D01*
X80800Y-35000D02*
X81000Y-35000D01*
X80800Y-34900D02*
X81000Y-34900D01*
X80800Y-34800D02*
X81000Y-34800D01*
X80800Y-34700D02*
X81000Y-34700D01*
X80800Y-34600D02*
X81000Y-34600D01*
X80800Y-34500D02*
X81000Y-34500D01*
X80800Y-34400D02*
X81000Y-34400D01*
X80800Y-34300D02*
X81000Y-34300D01*
X80800Y-34200D02*
X81000Y-34200D01*
X80800Y-34100D02*
X81000Y-34100D01*
X80800Y-34000D02*
X81000Y-34000D01*
X80800Y-33900D02*
X81000Y-33900D01*
X80800Y-33800D02*
X81000Y-33800D01*
X80800Y-33700D02*
X81000Y-33700D01*
X80800Y-33600D02*
X81000Y-33600D01*
X80800Y-33500D02*
X81000Y-33500D01*
X80800Y-33400D02*
X82400Y-33400D01*
X80800Y-33300D02*
X81500Y-33300D01*
X80800Y-33200D02*
X81500Y-33200D01*
X80800Y-33100D02*
X81500Y-33100D01*
X80800Y-33000D02*
X81500Y-33000D01*
X80800Y-32900D02*
X81500Y-32900D01*
X80800Y-32800D02*
X81500Y-32800D01*
X80800Y-32700D02*
X81500Y-32700D01*
X80800Y-32600D02*
X81500Y-32600D01*
X80800Y-32500D02*
X81500Y-32500D01*
X80800Y-32400D02*
X81500Y-32400D01*
X80800Y-32300D02*
X81500Y-32300D01*
X80800Y-32200D02*
X81500Y-32200D01*
X80800Y-32100D02*
X81500Y-32100D01*
X80800Y-32000D02*
X81500Y-32000D01*
X80800Y-31900D02*
X81500Y-31900D01*
X80800Y-31800D02*
X81500Y-31800D01*
X80800Y-31700D02*
X81500Y-31700D01*
X80800Y-31600D02*
X81500Y-31600D01*
X80800Y-31500D02*
X81500Y-31500D01*
X80800Y-31400D02*
X81500Y-31400D01*
X80800Y-31300D02*
X81500Y-31300D01*
X80800Y-31200D02*
X81500Y-31200D01*
X80800Y-31100D02*
X81500Y-31100D01*
X80800Y-31000D02*
X81500Y-31000D01*
X80800Y-30900D02*
X81500Y-30900D01*
X80800Y-30800D02*
X81500Y-30800D01*
X80800Y-30700D02*
X81500Y-30700D01*
X80700Y-30600D02*
X81500Y-30600D01*
X80700Y-30500D02*
X81500Y-30500D01*
X80600Y-30400D02*
X81500Y-30400D01*
X80500Y-30300D02*
X81500Y-30300D01*
X80400Y-30200D02*
X81500Y-30200D01*
X80200Y-30100D02*
X81500Y-30100D01*
X79400Y-30000D02*
X81500Y-30000D01*
X79400Y-29900D02*
X81500Y-29900D01*
X79400Y-29800D02*
X81500Y-29800D01*
X79400Y-29700D02*
X81500Y-29700D01*
X79400Y-29600D02*
X81500Y-29600D01*
X79400Y-29500D02*
X81500Y-29500D01*
X79400Y-29400D02*
X81500Y-29400D01*
X79400Y-29300D02*
X81500Y-29300D01*
X79400Y-29200D02*
X81500Y-29200D01*
X79300Y-29100D02*
X81500Y-29100D01*
X79200Y-29000D02*
X81500Y-29000D01*
X79100Y-28900D02*
X81500Y-28900D01*
X79000Y-28800D02*
X81500Y-28800D01*
X78000Y-28700D02*
X81500Y-28700D01*
X78000Y-28600D02*
X81500Y-28600D01*
X78000Y-28500D02*
X81500Y-28500D01*
X78000Y-28400D02*
X81500Y-28400D01*
X78000Y-28300D02*
X81500Y-28300D01*
X78000Y-28200D02*
X81500Y-28200D01*
X78000Y-28100D02*
X81500Y-28100D01*
X78000Y-28000D02*
X81500Y-28000D01*
X78000Y-27900D02*
X81500Y-27900D01*
X78000Y-27800D02*
X81500Y-27800D01*
X78000Y-27700D02*
X81500Y-27700D01*
X78000Y-27600D02*
X81500Y-27600D01*
X79000Y-27500D02*
X81500Y-27500D01*
X79200Y-27400D02*
X81500Y-27400D01*
X79300Y-27300D02*
X81500Y-27300D01*
X79400Y-27200D02*
X82400Y-27200D01*
X79500Y-27100D02*
X82400Y-27100D01*
X79600Y-27000D02*
X82400Y-27000D01*
X79600Y-26900D02*
X82400Y-26900D01*
X79700Y-26800D02*
X82400Y-26800D01*
X79700Y-26700D02*
X82400Y-26700D01*
X79700Y-26600D02*
X82400Y-26600D01*
X79700Y-26500D02*
X82400Y-26500D01*
X79700Y-26400D02*
X82400Y-26400D01*
X79700Y-26300D02*
X82400Y-26300D01*
X79700Y-26200D02*
X82400Y-26200D01*
X79700Y-26100D02*
X82400Y-26100D01*
X79700Y-26000D02*
X82400Y-26000D01*
X79700Y-25900D02*
X82400Y-25900D01*
X81000Y-25800D02*
X82400Y-25800D01*
X79700Y-25800D02*
X80400Y-25800D01*
X81200Y-25700D02*
X82400Y-25700D01*
X79700Y-25700D02*
X80200Y-25700D01*
X81300Y-25600D02*
X82400Y-25600D01*
X79700Y-25600D02*
X80100Y-25600D01*
X81400Y-25500D02*
X82400Y-25500D01*
X79700Y-25500D02*
X80000Y-25500D01*
X81500Y-25400D02*
X82400Y-25400D01*
X79700Y-25400D02*
X79900Y-25400D01*
X81500Y-25300D02*
X82400Y-25300D01*
X79700Y-25300D02*
X79900Y-25300D01*
X81600Y-25200D02*
X82400Y-25200D01*
X79700Y-25200D02*
X79800Y-25200D01*
X81600Y-25100D02*
X82400Y-25100D01*
X79700Y-25100D02*
X79800Y-25100D01*
X81600Y-25000D02*
X82400Y-25000D01*
X79700Y-25000D02*
X79800Y-25000D01*
X81600Y-24900D02*
X82400Y-24900D01*
X79700Y-24900D02*
X79800Y-24900D01*
X81600Y-24800D02*
X82400Y-24800D01*
X79700Y-24800D02*
X79800Y-24800D01*
X81500Y-24700D02*
X82400Y-24700D01*
X79700Y-24700D02*
X79900Y-24700D01*
X81500Y-24600D02*
X82400Y-24600D01*
X79600Y-24600D02*
X79900Y-24600D01*
X82300Y-24500D02*
X82400Y-24500D01*
X81400Y-24500D02*
X81500Y-24500D01*
X75700Y-44200D02*
X75700Y-45300D01*
X75600Y-43700D02*
X75600Y-45400D01*
X75500Y-43700D02*
X75500Y-45500D01*
X75400Y-43700D02*
X75400Y-45600D01*
X75300Y-43700D02*
X75300Y-45700D01*
X75200Y-43700D02*
X75200Y-45800D01*
X75100Y-43700D02*
X75100Y-45900D01*
X75000Y-43700D02*
X75000Y-46000D01*
X74900Y-43700D02*
X74900Y-46000D01*
X74800Y-43700D02*
X74800Y-46000D01*
X74700Y-43700D02*
X74700Y-46000D01*
X74600Y-43700D02*
X74600Y-46000D01*
X74500Y-43700D02*
X74500Y-46000D01*
X74400Y-43700D02*
X74400Y-46000D01*
X74300Y-43700D02*
X74300Y-46000D01*
X74200Y-43700D02*
X74200Y-46000D01*
X74100Y-43700D02*
X74100Y-46000D01*
X74000Y-43700D02*
X74000Y-46000D01*
X73900Y-43700D02*
X73900Y-46000D01*
X73800Y-43700D02*
X73800Y-46000D01*
X73700Y-43700D02*
X73700Y-46000D01*
X73600Y-43700D02*
X73600Y-46000D01*
X73500Y-43700D02*
X73500Y-46000D01*
X73400Y-43700D02*
X73400Y-46000D01*
X73300Y-43700D02*
X73300Y-46000D01*
X73200Y-43700D02*
X73200Y-46000D01*
X73100Y-43700D02*
X73100Y-46000D01*
X73000Y-43700D02*
X73000Y-46000D01*
X72900Y-43700D02*
X72900Y-46000D01*
X72800Y-43700D02*
X72800Y-46000D01*
X72700Y-43700D02*
X72700Y-46000D01*
X72600Y-43700D02*
X72600Y-46000D01*
X72500Y-43700D02*
X72500Y-46000D01*
X72400Y-43700D02*
X72400Y-46000D01*
X72300Y-43700D02*
X72300Y-46000D01*
X72200Y-43700D02*
X72200Y-46000D01*
X72100Y-43700D02*
X72100Y-46000D01*
X72000Y-43600D02*
X72000Y-46000D01*
X71900Y-43600D02*
X71900Y-46000D01*
X71800Y-43500D02*
X71800Y-46000D01*
X71700Y-43400D02*
X71700Y-46000D01*
X71600Y-43300D02*
X71600Y-46000D01*
X71500Y-43100D02*
X71500Y-46000D01*
X71400Y-42600D02*
X71400Y-46000D01*
X71300Y-42600D02*
X71300Y-46000D01*
X71200Y-42600D02*
X71200Y-46000D01*
X71100Y-42600D02*
X71100Y-46000D01*
X71000Y-42600D02*
X71000Y-46000D01*
X70900Y-42600D02*
X70900Y-46000D01*
X70800Y-42600D02*
X70800Y-46000D01*
X70700Y-42600D02*
X70700Y-46000D01*
X70600Y-42500D02*
X70600Y-46000D01*
X70500Y-42500D02*
X70500Y-46000D01*
X70400Y-42400D02*
X70400Y-46000D01*
X70300Y-42300D02*
X70300Y-46000D01*
X70200Y-42200D02*
X70200Y-46000D01*
X70100Y-42400D02*
X70100Y-46000D01*
X70000Y-42600D02*
X70000Y-44300D01*
X69900Y-42700D02*
X69900Y-44100D01*
X69800Y-42800D02*
X69800Y-44000D01*
X69700Y-42900D02*
X69700Y-43900D01*
X69600Y-42900D02*
X69600Y-43800D01*
X69500Y-43000D02*
X69500Y-43800D01*
X69400Y-43000D02*
X69400Y-43700D01*
X69300Y-43000D02*
X69300Y-43700D01*
X69200Y-43100D02*
X69200Y-43700D01*
X69100Y-43200D02*
X69100Y-43700D01*
X69000Y-43300D02*
X69000Y-43700D01*
X68900Y-43400D02*
X68900Y-43800D01*
X68800Y-43500D02*
X68800Y-43800D01*
X68700Y-43600D02*
X68700Y-43900D01*
X68600Y-43600D02*
X68600Y-44000D01*
X68500Y-43700D02*
X68500Y-44100D01*
X68400Y-43700D02*
X68400Y-44300D01*
X68300Y-43700D02*
X68300Y-46000D01*
X68200Y-43700D02*
X68200Y-46000D01*
X68100Y-43700D02*
X68100Y-46000D01*
X68000Y-43700D02*
X68000Y-46000D01*
X67900Y-43700D02*
X67900Y-46000D01*
X67800Y-43700D02*
X67800Y-46000D01*
X67700Y-43700D02*
X67700Y-46000D01*
X67600Y-43800D02*
X67600Y-46000D01*
X67500Y-43900D02*
X67500Y-46000D01*
X67400Y-44000D02*
X67400Y-46000D01*
X67300Y-44100D02*
X67300Y-46000D01*
X67200Y-44200D02*
X67200Y-46000D01*
X67100Y-44300D02*
X67100Y-46000D01*
X67000Y-44400D02*
X67000Y-46000D01*
X66900Y-44500D02*
X66900Y-46000D01*
X66800Y-44600D02*
X66800Y-46000D01*
X66700Y-44700D02*
X66700Y-46000D01*
X66600Y-44800D02*
X66600Y-46000D01*
X66500Y-44900D02*
X66500Y-46000D01*
X66400Y-45000D02*
X66400Y-46000D01*
X66300Y-45100D02*
X66300Y-46000D01*
X66200Y-45100D02*
X66200Y-46000D01*
X66100Y-45200D02*
X66100Y-46000D01*
X66000Y-45200D02*
X66000Y-46000D01*
X65900Y-45200D02*
X65900Y-46000D01*
X65800Y-45200D02*
X65800Y-46000D01*
X65700Y-45200D02*
X65700Y-46000D01*
X65600Y-45200D02*
X65600Y-46000D01*
X65500Y-45200D02*
X65500Y-46000D01*
X65400Y-45200D02*
X65400Y-46000D01*
X65300Y-45200D02*
X65300Y-46000D01*
X65200Y-45200D02*
X65200Y-46000D01*
X65100Y-45200D02*
X65100Y-46000D01*
X65000Y-45200D02*
X65000Y-46000D01*
X64900Y-45200D02*
X64900Y-46000D01*
X64800Y-45200D02*
X64800Y-46000D01*
X64700Y-45200D02*
X64700Y-46000D01*
X64600Y-45200D02*
X64600Y-46000D01*
X64500Y-45200D02*
X64500Y-46000D01*
X64400Y-45200D02*
X64400Y-46000D01*
X64300Y-45200D02*
X64300Y-46000D01*
X64200Y-45200D02*
X64200Y-46000D01*
X64100Y-45200D02*
X64100Y-46000D01*
X64000Y-45200D02*
X64000Y-46000D01*
X63900Y-45200D02*
X63900Y-46000D01*
X63800Y-45200D02*
X63800Y-46000D01*
X63700Y-45200D02*
X63700Y-46000D01*
X63600Y-45200D02*
X63600Y-46000D01*
X63500Y-45200D02*
X63500Y-46000D01*
X63400Y-45200D02*
X63400Y-46000D01*
X63300Y-45200D02*
X63300Y-46000D01*
X63200Y-45200D02*
X63200Y-46000D01*
X63100Y-45200D02*
X63100Y-46000D01*
X63000Y-45200D02*
X63000Y-46000D01*
X62900Y-45200D02*
X62900Y-46000D01*
X62800Y-45200D02*
X62800Y-46000D01*
X62700Y-45200D02*
X62700Y-46000D01*
X62600Y-45200D02*
X62600Y-46000D01*
X62500Y-45200D02*
X62500Y-46000D01*
X62400Y-45200D02*
X62400Y-46000D01*
X62300Y-45200D02*
X62300Y-46000D01*
X62200Y-45200D02*
X62200Y-46000D01*
X62100Y-45200D02*
X62100Y-46000D01*
X62000Y-45200D02*
X62000Y-46000D01*
X61900Y-45200D02*
X61900Y-46000D01*
X61900Y-26900D02*
X61900Y-27000D01*
X61800Y-45200D02*
X61800Y-46000D01*
X61800Y-26900D02*
X61800Y-27100D01*
X61700Y-45200D02*
X61700Y-46000D01*
X61700Y-27000D02*
X61700Y-27200D01*
X61600Y-45200D02*
X61600Y-46000D01*
X61600Y-27200D02*
X61600Y-27300D01*
X61500Y-45200D02*
X61500Y-46000D01*
X61500Y-27300D02*
X61500Y-27400D01*
X61400Y-45200D02*
X61400Y-46000D01*
X61400Y-27400D02*
X61400Y-27500D01*
X61300Y-45200D02*
X61300Y-46000D01*
X61300Y-27500D02*
X61300Y-27600D01*
X61200Y-45200D02*
X61200Y-46000D01*
X61200Y-27500D02*
X61200Y-27700D01*
X61100Y-45200D02*
X61100Y-46000D01*
X61100Y-27600D02*
X61100Y-27900D01*
X61000Y-45200D02*
X61000Y-46000D01*
X61000Y-27600D02*
X61000Y-28600D01*
X60900Y-45200D02*
X60900Y-46000D01*
X60900Y-27600D02*
X60900Y-28600D01*
X60800Y-45200D02*
X60800Y-46000D01*
X60800Y-27600D02*
X60800Y-28600D01*
X60700Y-45200D02*
X60700Y-46000D01*
X60700Y-27600D02*
X60700Y-28600D01*
X60600Y-45200D02*
X60600Y-46000D01*
X60600Y-27600D02*
X60600Y-28600D01*
X60500Y-45200D02*
X60500Y-46000D01*
X60500Y-27600D02*
X60500Y-28600D01*
X60400Y-45200D02*
X60400Y-46000D01*
X60400Y-27500D02*
X60400Y-28700D01*
X60300Y-45200D02*
X60300Y-46000D01*
X60300Y-27500D02*
X60300Y-28700D01*
X60200Y-45200D02*
X60200Y-46000D01*
X60200Y-27400D02*
X60200Y-28800D01*
X60100Y-45200D02*
X60100Y-46000D01*
X60100Y-27300D02*
X60100Y-28900D01*
X60000Y-45200D02*
X60000Y-46000D01*
X60000Y-30200D02*
X60000Y-30300D01*
X60000Y-27200D02*
X60000Y-29000D01*
X59900Y-45200D02*
X59900Y-46000D01*
X59900Y-30000D02*
X59900Y-30300D01*
X59900Y-27000D02*
X59900Y-29200D01*
X59800Y-45200D02*
X59800Y-46000D01*
X59800Y-27000D02*
X59800Y-30300D01*
X59700Y-45200D02*
X59700Y-46000D01*
X59700Y-27200D02*
X59700Y-30300D01*
X59600Y-45200D02*
X59600Y-46000D01*
X59600Y-27300D02*
X59600Y-30300D01*
X59500Y-45200D02*
X59500Y-46000D01*
X59500Y-27400D02*
X59500Y-30300D01*
X59400Y-45200D02*
X59400Y-46000D01*
X59400Y-27500D02*
X59400Y-30300D01*
X59300Y-45200D02*
X59300Y-46000D01*
X59300Y-27500D02*
X59300Y-30300D01*
X59200Y-45200D02*
X59200Y-46000D01*
X59200Y-27600D02*
X59200Y-30300D01*
X59100Y-45200D02*
X59100Y-46000D01*
X59100Y-27600D02*
X59100Y-30300D01*
X59000Y-45200D02*
X59000Y-46000D01*
X59000Y-27600D02*
X59000Y-30300D01*
X58900Y-45200D02*
X58900Y-46000D01*
X58900Y-27600D02*
X58900Y-30300D01*
X58800Y-45200D02*
X58800Y-46000D01*
X58800Y-27600D02*
X58800Y-30300D01*
X58700Y-45200D02*
X58700Y-46000D01*
X58700Y-27600D02*
X58700Y-30300D01*
X58600Y-45200D02*
X58600Y-46000D01*
X58600Y-27600D02*
X58600Y-30300D01*
X58500Y-45200D02*
X58500Y-46000D01*
X58500Y-27500D02*
X58500Y-30300D01*
X58400Y-45200D02*
X58400Y-46000D01*
X58400Y-27500D02*
X58400Y-30300D01*
X58300Y-45200D02*
X58300Y-46000D01*
X58300Y-27400D02*
X58300Y-30300D01*
X58200Y-45200D02*
X58200Y-46000D01*
X58200Y-27300D02*
X58200Y-30300D01*
X58100Y-45200D02*
X58100Y-46000D01*
X58100Y-27200D02*
X58100Y-30300D01*
X58000Y-45200D02*
X58000Y-46000D01*
X58000Y-27000D02*
X58000Y-30300D01*
X57900Y-45200D02*
X57900Y-46000D01*
X57900Y-26300D02*
X57900Y-30300D01*
X57800Y-45200D02*
X57800Y-46000D01*
X57800Y-26300D02*
X57800Y-30300D01*
X57700Y-45200D02*
X57700Y-46000D01*
X57700Y-26300D02*
X57700Y-30300D01*
X57600Y-45200D02*
X57600Y-46000D01*
X57600Y-26300D02*
X57600Y-30300D01*
X57500Y-45200D02*
X57500Y-46000D01*
X57500Y-26300D02*
X57500Y-30300D01*
X57400Y-45200D02*
X57400Y-46000D01*
X57400Y-30000D02*
X57400Y-30300D01*
X57400Y-26300D02*
X57400Y-29200D01*
X57300Y-45200D02*
X57300Y-46000D01*
X57300Y-30200D02*
X57300Y-30300D01*
X57300Y-26400D02*
X57300Y-29000D01*
X57200Y-45200D02*
X57200Y-46000D01*
X57200Y-26500D02*
X57200Y-28900D01*
X57100Y-45200D02*
X57100Y-46000D01*
X57100Y-26500D02*
X57100Y-28800D01*
X57000Y-45200D02*
X57000Y-46000D01*
X57000Y-26600D02*
X57000Y-28700D01*
X56900Y-45200D02*
X56900Y-46000D01*
X56900Y-26600D02*
X56900Y-28700D01*
X56800Y-45200D02*
X56800Y-46000D01*
X56800Y-26600D02*
X56800Y-28600D01*
X56700Y-45200D02*
X56700Y-46000D01*
X56700Y-26600D02*
X56700Y-28600D01*
X56600Y-45200D02*
X56600Y-46000D01*
X56600Y-26600D02*
X56600Y-28600D01*
X56500Y-45200D02*
X56500Y-46000D01*
X56500Y-26600D02*
X56500Y-28600D01*
X56400Y-45200D02*
X56400Y-46000D01*
X56400Y-26600D02*
X56400Y-28600D01*
X56300Y-45300D02*
X56300Y-46000D01*
X56300Y-26600D02*
X56300Y-28600D01*
X56200Y-45300D02*
X56200Y-46000D01*
X56200Y-26600D02*
X56200Y-28600D01*
X56100Y-45400D02*
X56100Y-46000D01*
X56100Y-26600D02*
X56100Y-28700D01*
X56000Y-45400D02*
X56000Y-46000D01*
X56000Y-26600D02*
X56000Y-28700D01*
X55900Y-45400D02*
X55900Y-46000D01*
X55800Y-45400D02*
X55800Y-46000D01*
X55700Y-45400D02*
X55700Y-46000D01*
X55600Y-45400D02*
X55600Y-46000D01*
X55500Y-45400D02*
X55500Y-46000D01*
X55400Y-45300D02*
X55400Y-46000D01*
X55300Y-45300D02*
X55300Y-46000D01*
X55200Y-45200D02*
X55200Y-46000D01*
X55100Y-45200D02*
X55100Y-46000D01*
X55000Y-45200D02*
X55000Y-46000D01*
X54900Y-45200D02*
X54900Y-46000D01*
X54800Y-45200D02*
X54800Y-46000D01*
X54700Y-45200D02*
X54700Y-46000D01*
X54600Y-45200D02*
X54600Y-46000D01*
X54500Y-45200D02*
X54500Y-46000D01*
X54400Y-45200D02*
X54400Y-46000D01*
X54300Y-45200D02*
X54300Y-46000D01*
X54200Y-45200D02*
X54200Y-46000D01*
X54100Y-45200D02*
X54100Y-46000D01*
X54000Y-45200D02*
X54000Y-46000D01*
X53900Y-45200D02*
X53900Y-46000D01*
X53800Y-45200D02*
X53800Y-46000D01*
X53800Y-26400D02*
X53800Y-28700D01*
X53700Y-45200D02*
X53700Y-46000D01*
X53700Y-26400D02*
X53700Y-28600D01*
X53600Y-45200D02*
X53600Y-46000D01*
X53600Y-26300D02*
X53600Y-28500D01*
X53500Y-45200D02*
X53500Y-46000D01*
X53500Y-26200D02*
X53500Y-28400D01*
X53400Y-45200D02*
X53400Y-46000D01*
X53400Y-26100D02*
X53400Y-28300D01*
X53300Y-45200D02*
X53300Y-46000D01*
X53300Y-26000D02*
X53300Y-28200D01*
X53200Y-45200D02*
X53200Y-46000D01*
X53200Y-26000D02*
X53200Y-28100D01*
X53100Y-45200D02*
X53100Y-46000D01*
X53100Y-26000D02*
X53100Y-28000D01*
X53000Y-45200D02*
X53000Y-46000D01*
X53000Y-25900D02*
X53000Y-27900D01*
X52900Y-45200D02*
X52900Y-46000D01*
X52900Y-25900D02*
X52900Y-27800D01*
X52800Y-45200D02*
X52800Y-46000D01*
X52800Y-25800D02*
X52800Y-27700D01*
X52700Y-45200D02*
X52700Y-46000D01*
X52700Y-25700D02*
X52700Y-27600D01*
X52600Y-45200D02*
X52600Y-46000D01*
X52600Y-25600D02*
X52600Y-27500D01*
X52500Y-45200D02*
X52500Y-46000D01*
X52500Y-25400D02*
X52500Y-27400D01*
X52500Y-24400D02*
X52500Y-24600D01*
X52400Y-45200D02*
X52400Y-46000D01*
X52400Y-24300D02*
X52400Y-27300D01*
X52300Y-45200D02*
X52300Y-46000D01*
X52300Y-34700D02*
X52300Y-34900D01*
X52300Y-24100D02*
X52300Y-27200D01*
X52200Y-45200D02*
X52200Y-46000D01*
X52200Y-34700D02*
X52200Y-34900D01*
X52200Y-23600D02*
X52200Y-27100D01*
X52100Y-45200D02*
X52100Y-46000D01*
X52100Y-34700D02*
X52100Y-34900D01*
X52100Y-26900D02*
X52100Y-27000D01*
X52100Y-25500D02*
X52100Y-26100D01*
X52000Y-45200D02*
X52000Y-46000D01*
X52000Y-34700D02*
X52000Y-34900D01*
X52000Y-25500D02*
X52000Y-25900D01*
X51900Y-45200D02*
X51900Y-46000D01*
X51900Y-34700D02*
X51900Y-34900D01*
X51900Y-25500D02*
X51900Y-25800D01*
X51800Y-45200D02*
X51800Y-46000D01*
X51800Y-34700D02*
X51800Y-34900D01*
X51800Y-25500D02*
X51800Y-25700D01*
X51700Y-45200D02*
X51700Y-46000D01*
X51700Y-34700D02*
X51700Y-34900D01*
X51700Y-25500D02*
X51700Y-25600D01*
X51600Y-45200D02*
X51600Y-46000D01*
X51600Y-34700D02*
X51600Y-34900D01*
X51600Y-25500D02*
X51600Y-25600D01*
X51500Y-45200D02*
X51500Y-46000D01*
X51500Y-34700D02*
X51500Y-34900D01*
X51400Y-45200D02*
X51400Y-46000D01*
X51400Y-36500D02*
X51400Y-42500D01*
X51400Y-34700D02*
X51400Y-34900D01*
X51300Y-45200D02*
X51300Y-46000D01*
X51300Y-36500D02*
X51300Y-42500D01*
X51300Y-34700D02*
X51300Y-34900D01*
X51200Y-45200D02*
X51200Y-46000D01*
X51200Y-36500D02*
X51200Y-42500D01*
X51200Y-34700D02*
X51200Y-34900D01*
X51100Y-45200D02*
X51100Y-46000D01*
X51100Y-36500D02*
X51100Y-42500D01*
X51100Y-34700D02*
X51100Y-34900D01*
X51000Y-45200D02*
X51000Y-46000D01*
X51000Y-36500D02*
X51000Y-42500D01*
X51000Y-34700D02*
X51000Y-34900D01*
X50900Y-45200D02*
X50900Y-46000D01*
X50900Y-36600D02*
X50900Y-42500D01*
X50900Y-34700D02*
X50900Y-34800D01*
X50800Y-45200D02*
X50800Y-46000D01*
X50800Y-36600D02*
X50800Y-42500D01*
X50800Y-34700D02*
X50800Y-34800D01*
X50700Y-45200D02*
X50700Y-46000D01*
X50700Y-36700D02*
X50700Y-42500D01*
X50600Y-45200D02*
X50600Y-46000D01*
X50600Y-36700D02*
X50600Y-42500D01*
X50500Y-45200D02*
X50500Y-46000D01*
X50500Y-36700D02*
X50500Y-42500D01*
X50400Y-45200D02*
X50400Y-46000D01*
X50400Y-36700D02*
X50400Y-42500D01*
X50300Y-45200D02*
X50300Y-46000D01*
X50300Y-36700D02*
X50300Y-42500D01*
X50200Y-45200D02*
X50200Y-46000D01*
X50200Y-36700D02*
X50200Y-42500D01*
X50100Y-45200D02*
X50100Y-46000D01*
X50100Y-36700D02*
X50100Y-42500D01*
X50000Y-45200D02*
X50000Y-45900D01*
X50000Y-36600D02*
X50000Y-41000D01*
X50000Y-34700D02*
X50000Y-34800D01*
X49900Y-45200D02*
X49900Y-45800D01*
X49900Y-36600D02*
X49900Y-40800D01*
X49900Y-34700D02*
X49900Y-34800D01*
X49800Y-45200D02*
X49800Y-45700D01*
X49800Y-36500D02*
X49800Y-40700D01*
X49800Y-34700D02*
X49800Y-34900D01*
X49800Y-27400D02*
X49800Y-27500D01*
X49700Y-45200D02*
X49700Y-45600D01*
X49700Y-36400D02*
X49700Y-40600D01*
X49700Y-34700D02*
X49700Y-35000D01*
X49700Y-27300D02*
X49700Y-27500D01*
X49600Y-45200D02*
X49600Y-45500D01*
X49600Y-36300D02*
X49600Y-40600D01*
X49600Y-34700D02*
X49600Y-35100D01*
X49600Y-27200D02*
X49600Y-27500D01*
X49600Y-23600D02*
X49600Y-23700D01*
X49500Y-45200D02*
X49500Y-45400D01*
X49500Y-36100D02*
X49500Y-40500D01*
X49500Y-34700D02*
X49500Y-35300D01*
X49500Y-27000D02*
X49500Y-27500D01*
X49500Y-23600D02*
X49500Y-23800D01*
X49400Y-37700D02*
X49400Y-39900D01*
X49400Y-34700D02*
X49400Y-36900D01*
X49400Y-25100D02*
X49400Y-27500D01*
X49400Y-23600D02*
X49400Y-23900D01*
X49300Y-37900D02*
X49300Y-39700D01*
X49300Y-34700D02*
X49300Y-36700D01*
X49300Y-24900D02*
X49300Y-27500D01*
X49300Y-23600D02*
X49300Y-24100D01*
X49200Y-38000D02*
X49200Y-39600D01*
X49200Y-34700D02*
X49200Y-36600D01*
X49200Y-23600D02*
X49200Y-27500D01*
X49100Y-38100D02*
X49100Y-39500D01*
X49100Y-34700D02*
X49100Y-36500D01*
X49100Y-26900D02*
X49100Y-27500D01*
X49100Y-23600D02*
X49100Y-26100D01*
X49000Y-38200D02*
X49000Y-39400D01*
X49000Y-34700D02*
X49000Y-36400D01*
X49000Y-27100D02*
X49000Y-27500D01*
X49000Y-23600D02*
X49000Y-25900D01*
X48900Y-38200D02*
X48900Y-39400D01*
X48900Y-34700D02*
X48900Y-36400D01*
X48900Y-27200D02*
X48900Y-27500D01*
X48900Y-23600D02*
X48900Y-25800D01*
X48800Y-38300D02*
X48800Y-39300D01*
X48800Y-34700D02*
X48800Y-36300D01*
X48800Y-27300D02*
X48800Y-27500D01*
X48800Y-23600D02*
X48800Y-25700D01*
X48700Y-38300D02*
X48700Y-39300D01*
X48700Y-34700D02*
X48700Y-36300D01*
X48700Y-27400D02*
X48700Y-27500D01*
X48700Y-23700D02*
X48700Y-25600D01*
X48600Y-38300D02*
X48600Y-39300D01*
X48600Y-34700D02*
X48600Y-36300D01*
X48600Y-27400D02*
X48600Y-27500D01*
X48600Y-24000D02*
X48600Y-25600D01*
X48500Y-46600D02*
X48500Y-46700D01*
X48500Y-38300D02*
X48500Y-39300D01*
X48500Y-34700D02*
X48500Y-36300D01*
X48500Y-24200D02*
X48500Y-25500D01*
X48400Y-46500D02*
X48400Y-46700D01*
X48400Y-38300D02*
X48400Y-39300D01*
X48400Y-34700D02*
X48400Y-36300D01*
X48400Y-24300D02*
X48400Y-25500D01*
X48300Y-46500D02*
X48300Y-46700D01*
X48300Y-38300D02*
X48300Y-39300D01*
X48300Y-34700D02*
X48300Y-36300D01*
X48300Y-24400D02*
X48300Y-25500D01*
X48200Y-46500D02*
X48200Y-46700D01*
X48200Y-38300D02*
X48200Y-39300D01*
X48200Y-34700D02*
X48200Y-36300D01*
X48200Y-24500D02*
X48200Y-25500D01*
X48100Y-46400D02*
X48100Y-46700D01*
X48100Y-38200D02*
X48100Y-39400D01*
X48100Y-34700D02*
X48100Y-36400D01*
X48100Y-24500D02*
X48100Y-25500D01*
X48000Y-46400D02*
X48000Y-46700D01*
X48000Y-38200D02*
X48000Y-39400D01*
X48000Y-34700D02*
X48000Y-36400D01*
X48000Y-24600D02*
X48000Y-25500D01*
X47900Y-46300D02*
X47900Y-46700D01*
X47900Y-38100D02*
X47900Y-39500D01*
X47900Y-34700D02*
X47900Y-36500D01*
X47900Y-24600D02*
X47900Y-25500D01*
X47800Y-46200D02*
X47800Y-46700D01*
X47800Y-41600D02*
X47800Y-41800D01*
X47800Y-38000D02*
X47800Y-39600D01*
X47800Y-34700D02*
X47800Y-36600D01*
X47800Y-27400D02*
X47800Y-27500D01*
X47800Y-24600D02*
X47800Y-25600D01*
X47700Y-46100D02*
X47700Y-46700D01*
X47700Y-40900D02*
X47700Y-41900D01*
X47700Y-37900D02*
X47700Y-39700D01*
X47700Y-34700D02*
X47700Y-36700D01*
X47700Y-27400D02*
X47700Y-27500D01*
X47700Y-24600D02*
X47700Y-25600D01*
X47600Y-45900D02*
X47600Y-46700D01*
X47600Y-40700D02*
X47600Y-42100D01*
X47600Y-37700D02*
X47600Y-37900D01*
X47600Y-35900D02*
X47600Y-36900D01*
X47600Y-27300D02*
X47600Y-27500D01*
X47600Y-24600D02*
X47600Y-25700D01*
X47500Y-45500D02*
X47500Y-46700D01*
X47500Y-40300D02*
X47500Y-41900D01*
X47500Y-35900D02*
X47500Y-36700D01*
X47500Y-27200D02*
X47500Y-27500D01*
X47500Y-24600D02*
X47500Y-25800D01*
X47400Y-45500D02*
X47400Y-46700D01*
X47400Y-40300D02*
X47400Y-41800D01*
X47400Y-35900D02*
X47400Y-36600D01*
X47400Y-27100D02*
X47400Y-27500D01*
X47400Y-24600D02*
X47400Y-25900D01*
X47300Y-45500D02*
X47300Y-46700D01*
X47300Y-40300D02*
X47300Y-41700D01*
X47300Y-35900D02*
X47300Y-36500D01*
X47300Y-25700D02*
X47300Y-25900D01*
X47300Y-24500D02*
X47300Y-24900D01*
X47200Y-45500D02*
X47200Y-46700D01*
X47200Y-40300D02*
X47200Y-41600D01*
X47200Y-35900D02*
X47200Y-36400D01*
X47200Y-24500D02*
X47200Y-24700D01*
X47100Y-45500D02*
X47100Y-46700D01*
X47100Y-40300D02*
X47100Y-41600D01*
X47100Y-35900D02*
X47100Y-36400D01*
X47100Y-24400D02*
X47100Y-24600D01*
X47000Y-45500D02*
X47000Y-46700D01*
X47000Y-40300D02*
X47000Y-41500D01*
X47000Y-35900D02*
X47000Y-36300D01*
X47000Y-24300D02*
X47000Y-24500D01*
X46900Y-45500D02*
X46900Y-46700D01*
X46900Y-40300D02*
X46900Y-41500D01*
X46900Y-35900D02*
X46900Y-36300D01*
X46900Y-24200D02*
X46900Y-24400D01*
X46800Y-45500D02*
X46800Y-46700D01*
X46800Y-40300D02*
X46800Y-41500D01*
X46800Y-35900D02*
X46800Y-36300D01*
X46800Y-24000D02*
X46800Y-24400D01*
X46800Y-23100D02*
X46800Y-23200D01*
X46700Y-45500D02*
X46700Y-46700D01*
X46700Y-40300D02*
X46700Y-41500D01*
X46700Y-35900D02*
X46700Y-36300D01*
X46700Y-23100D02*
X46700Y-24300D01*
X46600Y-45500D02*
X46600Y-46700D01*
X46600Y-40300D02*
X46600Y-41500D01*
X46600Y-35900D02*
X46600Y-36300D01*
X46600Y-23100D02*
X46600Y-24300D01*
X46500Y-45500D02*
X46500Y-46700D01*
X46500Y-40300D02*
X46500Y-41500D01*
X46500Y-35900D02*
X46500Y-36300D01*
X46500Y-23100D02*
X46500Y-24300D01*
X46400Y-45500D02*
X46400Y-46700D01*
X46400Y-40300D02*
X46400Y-41500D01*
X46400Y-35900D02*
X46400Y-36300D01*
X46400Y-23100D02*
X46400Y-24300D01*
X46300Y-45500D02*
X46300Y-46700D01*
X46300Y-40300D02*
X46300Y-41600D01*
X46300Y-35900D02*
X46300Y-36400D01*
X46300Y-23100D02*
X46300Y-24300D01*
X46200Y-45500D02*
X46200Y-46700D01*
X46200Y-40300D02*
X46200Y-41600D01*
X46200Y-35900D02*
X46200Y-36400D01*
X46200Y-23100D02*
X46200Y-24300D01*
X46100Y-45500D02*
X46100Y-46700D01*
X46100Y-40300D02*
X46100Y-41700D01*
X46100Y-35900D02*
X46100Y-36500D01*
X46100Y-23100D02*
X46100Y-24300D01*
X46000Y-45500D02*
X46000Y-46700D01*
X46000Y-40300D02*
X46000Y-41800D01*
X46000Y-35900D02*
X46000Y-36600D01*
X46000Y-30200D02*
X46000Y-30300D01*
X46000Y-23100D02*
X46000Y-24400D01*
X45900Y-45500D02*
X45900Y-46700D01*
X45900Y-40300D02*
X45900Y-41900D01*
X45900Y-35900D02*
X45900Y-36700D01*
X45900Y-30200D02*
X45900Y-30300D01*
X45900Y-23100D02*
X45900Y-24400D01*
X45800Y-45500D02*
X45800Y-46700D01*
X45800Y-42900D02*
X45800Y-43100D01*
X45800Y-40300D02*
X45800Y-42100D01*
X45800Y-37700D02*
X45800Y-37900D01*
X45800Y-35900D02*
X45800Y-36900D01*
X45800Y-33300D02*
X45800Y-33500D01*
X45800Y-32300D02*
X45800Y-32500D01*
X45800Y-30100D02*
X45800Y-30300D01*
X45800Y-23100D02*
X45800Y-24500D01*
X45700Y-32300D02*
X45700Y-46700D01*
X45700Y-30000D02*
X45700Y-30300D01*
X45700Y-23100D02*
X45700Y-24600D01*
X45600Y-45500D02*
X45600Y-46700D01*
X45600Y-40300D02*
X45600Y-43100D01*
X45600Y-35900D02*
X45600Y-37900D01*
X45600Y-32300D02*
X45600Y-33500D01*
X45600Y-29900D02*
X45600Y-30300D01*
X45600Y-23100D02*
X45600Y-24700D01*
X45500Y-45500D02*
X45500Y-46700D01*
X45500Y-40300D02*
X45500Y-42900D01*
X45500Y-35900D02*
X45500Y-37700D01*
X45500Y-32300D02*
X45500Y-33300D01*
X45500Y-29700D02*
X45500Y-30300D01*
X45500Y-28700D02*
X45500Y-28900D01*
X45500Y-27700D02*
X45500Y-27900D01*
X45500Y-26700D02*
X45500Y-26900D01*
X45500Y-25700D02*
X45500Y-25900D01*
X45500Y-23100D02*
X45500Y-24900D01*
X45400Y-45500D02*
X45400Y-46700D01*
X45400Y-40300D02*
X45400Y-42800D01*
X45400Y-35900D02*
X45400Y-37600D01*
X45400Y-23100D02*
X45400Y-33200D01*
X45300Y-45500D02*
X45300Y-46700D01*
X45300Y-40300D02*
X45300Y-42700D01*
X45300Y-35900D02*
X45300Y-37500D01*
X45300Y-23100D02*
X45300Y-33100D01*
X45200Y-45500D02*
X45200Y-46700D01*
X45200Y-40300D02*
X45200Y-42600D01*
X45200Y-35900D02*
X45200Y-37400D01*
X45200Y-23100D02*
X45200Y-33000D01*
X45100Y-45500D02*
X45100Y-46700D01*
X45100Y-40300D02*
X45100Y-42600D01*
X45100Y-35900D02*
X45100Y-37400D01*
X45100Y-23100D02*
X45100Y-33000D01*
X45000Y-45500D02*
X45000Y-46100D01*
X45000Y-40300D02*
X45000Y-42500D01*
X45000Y-35900D02*
X45000Y-37300D01*
X45000Y-24000D02*
X45000Y-32900D01*
X45000Y-23100D02*
X45000Y-23300D01*
X44900Y-45500D02*
X44900Y-45900D01*
X44900Y-40300D02*
X44900Y-42500D01*
X44900Y-35900D02*
X44900Y-37300D01*
X44900Y-24200D02*
X44900Y-32900D01*
X44800Y-45500D02*
X44800Y-45800D01*
X44800Y-40300D02*
X44800Y-42500D01*
X44800Y-35900D02*
X44800Y-37300D01*
X44800Y-24300D02*
X44800Y-32900D01*
X44700Y-45500D02*
X44700Y-45700D01*
X44700Y-40300D02*
X44700Y-42500D01*
X44700Y-35900D02*
X44700Y-37300D01*
X44700Y-24400D02*
X44700Y-32900D01*
X44600Y-45500D02*
X44600Y-45600D01*
X44600Y-40300D02*
X44600Y-42500D01*
X44600Y-35900D02*
X44600Y-37300D01*
X44600Y-24500D02*
X44600Y-32900D01*
X44500Y-40300D02*
X44500Y-42500D01*
X44500Y-35900D02*
X44500Y-37300D01*
X44500Y-24500D02*
X44500Y-32900D01*
X44400Y-40300D02*
X44400Y-42500D01*
X44400Y-35900D02*
X44400Y-37300D01*
X44400Y-24600D02*
X44400Y-32900D01*
X44300Y-40300D02*
X44300Y-42600D01*
X44300Y-35900D02*
X44300Y-37400D01*
X44300Y-24600D02*
X44300Y-33000D01*
X44200Y-40300D02*
X44200Y-42600D01*
X44200Y-35900D02*
X44200Y-37400D01*
X44200Y-24600D02*
X44200Y-33000D01*
X44100Y-40300D02*
X44100Y-42700D01*
X44100Y-35900D02*
X44100Y-37500D01*
X44100Y-24600D02*
X44100Y-33100D01*
X44000Y-40300D02*
X44000Y-42800D01*
X44000Y-35900D02*
X44000Y-37600D01*
X44000Y-24600D02*
X44000Y-33200D01*
X43900Y-40300D02*
X43900Y-42900D01*
X43900Y-35900D02*
X43900Y-37700D01*
X43900Y-24600D02*
X43900Y-33300D01*
X43800Y-40300D02*
X43800Y-43100D01*
X43800Y-35900D02*
X43800Y-37900D01*
X43800Y-24600D02*
X43800Y-33500D01*
X45100Y-46700D02*
X48600Y-46700D01*
X45100Y-46600D02*
X48500Y-46600D01*
X45100Y-46500D02*
X48400Y-46500D01*
X45100Y-46400D02*
X48100Y-46400D01*
X45100Y-46300D02*
X47900Y-46300D01*
X45100Y-46200D02*
X47800Y-46200D01*
X45000Y-46100D02*
X47700Y-46100D01*
X70100Y-46000D02*
X75000Y-46000D01*
X50100Y-46000D02*
X68300Y-46000D01*
X45000Y-46000D02*
X47600Y-46000D01*
X70100Y-45900D02*
X75100Y-45900D01*
X50000Y-45900D02*
X68300Y-45900D01*
X44900Y-45900D02*
X47600Y-45900D01*
X70100Y-45800D02*
X75200Y-45800D01*
X49900Y-45800D02*
X68300Y-45800D01*
X44800Y-45800D02*
X47500Y-45800D01*
X70100Y-45700D02*
X75300Y-45700D01*
X49800Y-45700D02*
X68300Y-45700D01*
X44700Y-45700D02*
X47500Y-45700D01*
X70100Y-45600D02*
X75400Y-45600D01*
X49700Y-45600D02*
X68300Y-45600D01*
X44600Y-45600D02*
X47500Y-45600D01*
X70100Y-45500D02*
X75500Y-45500D01*
X49600Y-45500D02*
X68300Y-45500D01*
X43800Y-45500D02*
X47500Y-45500D01*
X70100Y-45400D02*
X75600Y-45400D01*
X49500Y-45400D02*
X68300Y-45400D01*
X70100Y-45300D02*
X75700Y-45300D01*
X56200Y-45300D02*
X68300Y-45300D01*
X49500Y-45300D02*
X55400Y-45300D01*
X70100Y-45200D02*
X75700Y-45200D01*
X56400Y-45200D02*
X68300Y-45200D01*
X49500Y-45200D02*
X55200Y-45200D01*
X70100Y-45100D02*
X75700Y-45100D01*
X66200Y-45100D02*
X68300Y-45100D01*
X70100Y-45000D02*
X75700Y-45000D01*
X66400Y-45000D02*
X68300Y-45000D01*
X70100Y-44900D02*
X75700Y-44900D01*
X66500Y-44900D02*
X68300Y-44900D01*
X70100Y-44800D02*
X75700Y-44800D01*
X66600Y-44800D02*
X68300Y-44800D01*
X70100Y-44700D02*
X75700Y-44700D01*
X66700Y-44700D02*
X68300Y-44700D01*
X70100Y-44600D02*
X75700Y-44600D01*
X66800Y-44600D02*
X68300Y-44600D01*
X70100Y-44500D02*
X75700Y-44500D01*
X66900Y-44500D02*
X68300Y-44500D01*
X70100Y-44400D02*
X75700Y-44400D01*
X67000Y-44400D02*
X68300Y-44400D01*
X70000Y-44300D02*
X75700Y-44300D01*
X67100Y-44300D02*
X68400Y-44300D01*
X70000Y-44200D02*
X75700Y-44200D01*
X67200Y-44200D02*
X68400Y-44200D01*
X69900Y-44100D02*
X75600Y-44100D01*
X67300Y-44100D02*
X68500Y-44100D01*
X69800Y-44000D02*
X75600Y-44000D01*
X67400Y-44000D02*
X68600Y-44000D01*
X69700Y-43900D02*
X75600Y-43900D01*
X67500Y-43900D02*
X68700Y-43900D01*
X69500Y-43800D02*
X75600Y-43800D01*
X67600Y-43800D02*
X68900Y-43800D01*
X67700Y-43700D02*
X75600Y-43700D01*
X68600Y-43600D02*
X72000Y-43600D01*
X68800Y-43500D02*
X71800Y-43500D01*
X68900Y-43400D02*
X71700Y-43400D01*
X69000Y-43300D02*
X71600Y-43300D01*
X69100Y-43200D02*
X71500Y-43200D01*
X69200Y-43100D02*
X71500Y-43100D01*
X45600Y-43100D02*
X45800Y-43100D01*
X69300Y-43000D02*
X71400Y-43000D01*
X45600Y-43000D02*
X45800Y-43000D01*
X69600Y-42900D02*
X71400Y-42900D01*
X45500Y-42900D02*
X45800Y-42900D01*
X43800Y-42900D02*
X43900Y-42900D01*
X69800Y-42800D02*
X71400Y-42800D01*
X45400Y-42800D02*
X45700Y-42800D01*
X43800Y-42800D02*
X44000Y-42800D01*
X69900Y-42700D02*
X71400Y-42700D01*
X45300Y-42700D02*
X45700Y-42700D01*
X43800Y-42700D02*
X44100Y-42700D01*
X70000Y-42600D02*
X71400Y-42600D01*
X45100Y-42600D02*
X45700Y-42600D01*
X43800Y-42600D02*
X44300Y-42600D01*
X70100Y-42500D02*
X70600Y-42500D01*
X50100Y-42500D02*
X51400Y-42500D01*
X43800Y-42500D02*
X45700Y-42500D01*
X70100Y-42400D02*
X70400Y-42400D01*
X50100Y-42400D02*
X51400Y-42400D01*
X43800Y-42400D02*
X45700Y-42400D01*
X70200Y-42300D02*
X70300Y-42300D01*
X50100Y-42300D02*
X51400Y-42300D01*
X43800Y-42300D02*
X45700Y-42300D01*
X50100Y-42200D02*
X51400Y-42200D01*
X43800Y-42200D02*
X45700Y-42200D01*
X50100Y-42100D02*
X51400Y-42100D01*
X43800Y-42100D02*
X45800Y-42100D01*
X50100Y-42000D02*
X51400Y-42000D01*
X43800Y-42000D02*
X45800Y-42000D01*
X50100Y-41900D02*
X51400Y-41900D01*
X47500Y-41900D02*
X47700Y-41900D01*
X43800Y-41900D02*
X45900Y-41900D01*
X50100Y-41800D02*
X51400Y-41800D01*
X47400Y-41800D02*
X47800Y-41800D01*
X43800Y-41800D02*
X46000Y-41800D01*
X50100Y-41700D02*
X51400Y-41700D01*
X47300Y-41700D02*
X47800Y-41700D01*
X43800Y-41700D02*
X46100Y-41700D01*
X50100Y-41600D02*
X51400Y-41600D01*
X47100Y-41600D02*
X47800Y-41600D01*
X43800Y-41600D02*
X46300Y-41600D01*
X50100Y-41500D02*
X51400Y-41500D01*
X43800Y-41500D02*
X47700Y-41500D01*
X50100Y-41400D02*
X51400Y-41400D01*
X43800Y-41400D02*
X47700Y-41400D01*
X50100Y-41300D02*
X51400Y-41300D01*
X43800Y-41300D02*
X47700Y-41300D01*
X50100Y-41200D02*
X51400Y-41200D01*
X43800Y-41200D02*
X47700Y-41200D01*
X50100Y-41100D02*
X51400Y-41100D01*
X43800Y-41100D02*
X47700Y-41100D01*
X50000Y-41000D02*
X51400Y-41000D01*
X43800Y-41000D02*
X47700Y-41000D01*
X50000Y-40900D02*
X51400Y-40900D01*
X43800Y-40900D02*
X47700Y-40900D01*
X49900Y-40800D02*
X51400Y-40800D01*
X43800Y-40800D02*
X47600Y-40800D01*
X49800Y-40700D02*
X51400Y-40700D01*
X43800Y-40700D02*
X47600Y-40700D01*
X49600Y-40600D02*
X51400Y-40600D01*
X43800Y-40600D02*
X47500Y-40600D01*
X49500Y-40500D02*
X51400Y-40500D01*
X43800Y-40500D02*
X47500Y-40500D01*
X49500Y-40400D02*
X51400Y-40400D01*
X43800Y-40400D02*
X47500Y-40400D01*
X49500Y-40300D02*
X51400Y-40300D01*
X43800Y-40300D02*
X47500Y-40300D01*
X49500Y-40200D02*
X51400Y-40200D01*
X49500Y-40100D02*
X51400Y-40100D01*
X49500Y-40000D02*
X51400Y-40000D01*
X49400Y-39900D02*
X51400Y-39900D01*
X49400Y-39800D02*
X51400Y-39800D01*
X49300Y-39700D02*
X51400Y-39700D01*
X49200Y-39600D02*
X51400Y-39600D01*
X47700Y-39600D02*
X47800Y-39600D01*
X49100Y-39500D02*
X51400Y-39500D01*
X47700Y-39500D02*
X47900Y-39500D01*
X48900Y-39400D02*
X51400Y-39400D01*
X47700Y-39400D02*
X48100Y-39400D01*
X47700Y-39300D02*
X51400Y-39300D01*
X47700Y-39200D02*
X51400Y-39200D01*
X47700Y-39100D02*
X51400Y-39100D01*
X47700Y-39000D02*
X51400Y-39000D01*
X47700Y-38900D02*
X51400Y-38900D01*
X47700Y-38800D02*
X51400Y-38800D01*
X47700Y-38700D02*
X51400Y-38700D01*
X47700Y-38600D02*
X51400Y-38600D01*
X47700Y-38500D02*
X51400Y-38500D01*
X47700Y-38400D02*
X51400Y-38400D01*
X47700Y-38300D02*
X51400Y-38300D01*
X48900Y-38200D02*
X51400Y-38200D01*
X47700Y-38200D02*
X48100Y-38200D01*
X49100Y-38100D02*
X51400Y-38100D01*
X47700Y-38100D02*
X47900Y-38100D01*
X49200Y-38000D02*
X51400Y-38000D01*
X47700Y-38000D02*
X47800Y-38000D01*
X49300Y-37900D02*
X51400Y-37900D01*
X47600Y-37900D02*
X47700Y-37900D01*
X45600Y-37900D02*
X45800Y-37900D01*
X49400Y-37800D02*
X51400Y-37800D01*
X45600Y-37800D02*
X45800Y-37800D01*
X49400Y-37700D02*
X51400Y-37700D01*
X45500Y-37700D02*
X45800Y-37700D01*
X43800Y-37700D02*
X43900Y-37700D01*
X49500Y-37600D02*
X51400Y-37600D01*
X45400Y-37600D02*
X45700Y-37600D01*
X43800Y-37600D02*
X44000Y-37600D01*
X49500Y-37500D02*
X51400Y-37500D01*
X45300Y-37500D02*
X45700Y-37500D01*
X43800Y-37500D02*
X44100Y-37500D01*
X49500Y-37400D02*
X51400Y-37400D01*
X45100Y-37400D02*
X45700Y-37400D01*
X43800Y-37400D02*
X44300Y-37400D01*
X49500Y-37300D02*
X51400Y-37300D01*
X43800Y-37300D02*
X45700Y-37300D01*
X49500Y-37200D02*
X51400Y-37200D01*
X43800Y-37200D02*
X45700Y-37200D01*
X49500Y-37100D02*
X51400Y-37100D01*
X43800Y-37100D02*
X45700Y-37100D01*
X49500Y-37000D02*
X51400Y-37000D01*
X43800Y-37000D02*
X45700Y-37000D01*
X49400Y-36900D02*
X51400Y-36900D01*
X43800Y-36900D02*
X45800Y-36900D01*
X49400Y-36800D02*
X51400Y-36800D01*
X43800Y-36800D02*
X45800Y-36800D01*
X49300Y-36700D02*
X51400Y-36700D01*
X47500Y-36700D02*
X47700Y-36700D01*
X43800Y-36700D02*
X45900Y-36700D01*
X50800Y-36600D02*
X51400Y-36600D01*
X49200Y-36600D02*
X50000Y-36600D01*
X47400Y-36600D02*
X47800Y-36600D01*
X43800Y-36600D02*
X46000Y-36600D01*
X51000Y-36500D02*
X51400Y-36500D01*
X49100Y-36500D02*
X49800Y-36500D01*
X47300Y-36500D02*
X47900Y-36500D01*
X43800Y-36500D02*
X46100Y-36500D01*
X48900Y-36400D02*
X49700Y-36400D01*
X47100Y-36400D02*
X48100Y-36400D01*
X43800Y-36400D02*
X46300Y-36400D01*
X43800Y-36300D02*
X49600Y-36300D01*
X43800Y-36200D02*
X49500Y-36200D01*
X43800Y-36100D02*
X49500Y-36100D01*
X43800Y-36000D02*
X49400Y-36000D01*
X43800Y-35900D02*
X49400Y-35900D01*
X47700Y-35800D02*
X49400Y-35800D01*
X47700Y-35700D02*
X49400Y-35700D01*
X47700Y-35600D02*
X49400Y-35600D01*
X47700Y-35500D02*
X49400Y-35500D01*
X47700Y-35400D02*
X49400Y-35400D01*
X47700Y-35300D02*
X49500Y-35300D01*
X47700Y-35200D02*
X49500Y-35200D01*
X47700Y-35100D02*
X49600Y-35100D01*
X47700Y-35000D02*
X49700Y-35000D01*
X51000Y-34900D02*
X52300Y-34900D01*
X47700Y-34900D02*
X49800Y-34900D01*
X50800Y-34800D02*
X52300Y-34800D01*
X47700Y-34800D02*
X50000Y-34800D01*
X47700Y-34700D02*
X52400Y-34700D01*
X45600Y-33500D02*
X45800Y-33500D01*
X45600Y-33400D02*
X45800Y-33400D01*
X45500Y-33300D02*
X45800Y-33300D01*
X43800Y-33300D02*
X43900Y-33300D01*
X45400Y-33200D02*
X45700Y-33200D01*
X43800Y-33200D02*
X44000Y-33200D01*
X45300Y-33100D02*
X45700Y-33100D01*
X43800Y-33100D02*
X44100Y-33100D01*
X45100Y-33000D02*
X45700Y-33000D01*
X43800Y-33000D02*
X44300Y-33000D01*
X43800Y-32900D02*
X45700Y-32900D01*
X43800Y-32800D02*
X45700Y-32800D01*
X43800Y-32700D02*
X45700Y-32700D01*
X43800Y-32600D02*
X45700Y-32600D01*
X43800Y-32500D02*
X45800Y-32500D01*
X43800Y-32400D02*
X45800Y-32400D01*
X43800Y-32300D02*
X45900Y-32300D01*
X43800Y-32200D02*
X45400Y-32200D01*
X43800Y-32100D02*
X45400Y-32100D01*
X43800Y-32000D02*
X45400Y-32000D01*
X43800Y-31900D02*
X45400Y-31900D01*
X43800Y-31800D02*
X45400Y-31800D01*
X43800Y-31700D02*
X45400Y-31700D01*
X43800Y-31600D02*
X45400Y-31600D01*
X43800Y-31500D02*
X45400Y-31500D01*
X43800Y-31400D02*
X45400Y-31400D01*
X43800Y-31300D02*
X45400Y-31300D01*
X43800Y-31200D02*
X45400Y-31200D01*
X43800Y-31100D02*
X45400Y-31100D01*
X43800Y-31000D02*
X45400Y-31000D01*
X43800Y-30900D02*
X45400Y-30900D01*
X43800Y-30800D02*
X45400Y-30800D01*
X43800Y-30700D02*
X45400Y-30700D01*
X43800Y-30600D02*
X45400Y-30600D01*
X43800Y-30500D02*
X45400Y-30500D01*
X43800Y-30400D02*
X45400Y-30400D01*
X57200Y-30300D02*
X60100Y-30300D01*
X43800Y-30300D02*
X46700Y-30300D01*
X57300Y-30200D02*
X60000Y-30200D01*
X43800Y-30200D02*
X46000Y-30200D01*
X57400Y-30100D02*
X59900Y-30100D01*
X43800Y-30100D02*
X45800Y-30100D01*
X57400Y-30000D02*
X59900Y-30000D01*
X43800Y-30000D02*
X45700Y-30000D01*
X57500Y-29900D02*
X59800Y-29900D01*
X43800Y-29900D02*
X45600Y-29900D01*
X57500Y-29800D02*
X59800Y-29800D01*
X43800Y-29800D02*
X45500Y-29800D01*
X57500Y-29700D02*
X59800Y-29700D01*
X43800Y-29700D02*
X45500Y-29700D01*
X57500Y-29600D02*
X59800Y-29600D01*
X43800Y-29600D02*
X45400Y-29600D01*
X57500Y-29500D02*
X59800Y-29500D01*
X43800Y-29500D02*
X45400Y-29500D01*
X57500Y-29400D02*
X59800Y-29400D01*
X43800Y-29400D02*
X45400Y-29400D01*
X57500Y-29300D02*
X59800Y-29300D01*
X43800Y-29300D02*
X45400Y-29300D01*
X57400Y-29200D02*
X59900Y-29200D01*
X43800Y-29200D02*
X45400Y-29200D01*
X57400Y-29100D02*
X59900Y-29100D01*
X43800Y-29100D02*
X45400Y-29100D01*
X57300Y-29000D02*
X60000Y-29000D01*
X43800Y-29000D02*
X45400Y-29000D01*
X57200Y-28900D02*
X60100Y-28900D01*
X43800Y-28900D02*
X45500Y-28900D01*
X57100Y-28800D02*
X60200Y-28800D01*
X43800Y-28800D02*
X45500Y-28800D01*
X56900Y-28700D02*
X60400Y-28700D01*
X56000Y-28700D02*
X56100Y-28700D01*
X43800Y-28700D02*
X45500Y-28700D01*
X56000Y-28600D02*
X61000Y-28600D01*
X53700Y-28600D02*
X53800Y-28600D01*
X43800Y-28600D02*
X45400Y-28600D01*
X56000Y-28500D02*
X61000Y-28500D01*
X53600Y-28500D02*
X53800Y-28500D01*
X43800Y-28500D02*
X45400Y-28500D01*
X56000Y-28400D02*
X61000Y-28400D01*
X53500Y-28400D02*
X53800Y-28400D01*
X43800Y-28400D02*
X45400Y-28400D01*
X56000Y-28300D02*
X61000Y-28300D01*
X53400Y-28300D02*
X53800Y-28300D01*
X43800Y-28300D02*
X45400Y-28300D01*
X56000Y-28200D02*
X61000Y-28200D01*
X53300Y-28200D02*
X53800Y-28200D01*
X43800Y-28200D02*
X45400Y-28200D01*
X56000Y-28100D02*
X61000Y-28100D01*
X53200Y-28100D02*
X53800Y-28100D01*
X43800Y-28100D02*
X45400Y-28100D01*
X56000Y-28000D02*
X61000Y-28000D01*
X53100Y-28000D02*
X53800Y-28000D01*
X43800Y-28000D02*
X45400Y-28000D01*
X56000Y-27900D02*
X61100Y-27900D01*
X53000Y-27900D02*
X53800Y-27900D01*
X43800Y-27900D02*
X45500Y-27900D01*
X56000Y-27800D02*
X61100Y-27800D01*
X52900Y-27800D02*
X53800Y-27800D01*
X43800Y-27800D02*
X45500Y-27800D01*
X56000Y-27700D02*
X61200Y-27700D01*
X52800Y-27700D02*
X53800Y-27700D01*
X43800Y-27700D02*
X45500Y-27700D01*
X56000Y-27600D02*
X61300Y-27600D01*
X52700Y-27600D02*
X53800Y-27600D01*
X43800Y-27600D02*
X45400Y-27600D01*
X61200Y-27500D02*
X61400Y-27500D01*
X59300Y-27500D02*
X60400Y-27500D01*
X56000Y-27500D02*
X58500Y-27500D01*
X52600Y-27500D02*
X53800Y-27500D01*
X47400Y-27500D02*
X49900Y-27500D01*
X43800Y-27500D02*
X45400Y-27500D01*
X61400Y-27400D02*
X61500Y-27400D01*
X59500Y-27400D02*
X60200Y-27400D01*
X56000Y-27400D02*
X58300Y-27400D01*
X52500Y-27400D02*
X53800Y-27400D01*
X48600Y-27400D02*
X49800Y-27400D01*
X47400Y-27400D02*
X47800Y-27400D01*
X43800Y-27400D02*
X45400Y-27400D01*
X61500Y-27300D02*
X61600Y-27300D01*
X59600Y-27300D02*
X60100Y-27300D01*
X56000Y-27300D02*
X58200Y-27300D01*
X52400Y-27300D02*
X53800Y-27300D01*
X48800Y-27300D02*
X49700Y-27300D01*
X47400Y-27300D02*
X47600Y-27300D01*
X43800Y-27300D02*
X45400Y-27300D01*
X61600Y-27200D02*
X61700Y-27200D01*
X59700Y-27200D02*
X60000Y-27200D01*
X56000Y-27200D02*
X58100Y-27200D01*
X52300Y-27200D02*
X53800Y-27200D01*
X48900Y-27200D02*
X49600Y-27200D01*
X47400Y-27200D02*
X47500Y-27200D01*
X43800Y-27200D02*
X45400Y-27200D01*
X61700Y-27100D02*
X61800Y-27100D01*
X59800Y-27100D02*
X59900Y-27100D01*
X56000Y-27100D02*
X58000Y-27100D01*
X52200Y-27100D02*
X53800Y-27100D01*
X49000Y-27100D02*
X49500Y-27100D01*
X43800Y-27100D02*
X45400Y-27100D01*
X61700Y-27000D02*
X61900Y-27000D01*
X59800Y-27000D02*
X59900Y-27000D01*
X56000Y-27000D02*
X58000Y-27000D01*
X52100Y-27000D02*
X53800Y-27000D01*
X49100Y-27000D02*
X49500Y-27000D01*
X43800Y-27000D02*
X45400Y-27000D01*
X61800Y-26900D02*
X61900Y-26900D01*
X56000Y-26900D02*
X57900Y-26900D01*
X52100Y-26900D02*
X53800Y-26900D01*
X49100Y-26900D02*
X49400Y-26900D01*
X43800Y-26900D02*
X45500Y-26900D01*
X56000Y-26800D02*
X57900Y-26800D01*
X52200Y-26800D02*
X53800Y-26800D01*
X49200Y-26800D02*
X49400Y-26800D01*
X43800Y-26800D02*
X45500Y-26800D01*
X56000Y-26700D02*
X57900Y-26700D01*
X52200Y-26700D02*
X53800Y-26700D01*
X49200Y-26700D02*
X49400Y-26700D01*
X43800Y-26700D02*
X45500Y-26700D01*
X56000Y-26600D02*
X57900Y-26600D01*
X52200Y-26600D02*
X53800Y-26600D01*
X49200Y-26600D02*
X49400Y-26600D01*
X43800Y-26600D02*
X45400Y-26600D01*
X57100Y-26500D02*
X57900Y-26500D01*
X52200Y-26500D02*
X53800Y-26500D01*
X49200Y-26500D02*
X49400Y-26500D01*
X43800Y-26500D02*
X45400Y-26500D01*
X57300Y-26400D02*
X57900Y-26400D01*
X52200Y-26400D02*
X53800Y-26400D01*
X49200Y-26400D02*
X49400Y-26400D01*
X43800Y-26400D02*
X45400Y-26400D01*
X57400Y-26300D02*
X57900Y-26300D01*
X52200Y-26300D02*
X53600Y-26300D01*
X49200Y-26300D02*
X49400Y-26300D01*
X43800Y-26300D02*
X45400Y-26300D01*
X52200Y-26200D02*
X53500Y-26200D01*
X49200Y-26200D02*
X49400Y-26200D01*
X43800Y-26200D02*
X45400Y-26200D01*
X52100Y-26100D02*
X53400Y-26100D01*
X49100Y-26100D02*
X49400Y-26100D01*
X43800Y-26100D02*
X45400Y-26100D01*
X52100Y-26000D02*
X53300Y-26000D01*
X49100Y-26000D02*
X49400Y-26000D01*
X43800Y-26000D02*
X45400Y-26000D01*
X52000Y-25900D02*
X53000Y-25900D01*
X49000Y-25900D02*
X49400Y-25900D01*
X47300Y-25900D02*
X47400Y-25900D01*
X43800Y-25900D02*
X45500Y-25900D01*
X51900Y-25800D02*
X52800Y-25800D01*
X48900Y-25800D02*
X49400Y-25800D01*
X47300Y-25800D02*
X47500Y-25800D01*
X43800Y-25800D02*
X45500Y-25800D01*
X51800Y-25700D02*
X52700Y-25700D01*
X48800Y-25700D02*
X49400Y-25700D01*
X47300Y-25700D02*
X47600Y-25700D01*
X43800Y-25700D02*
X45500Y-25700D01*
X51600Y-25600D02*
X52600Y-25600D01*
X48600Y-25600D02*
X49400Y-25600D01*
X47400Y-25600D02*
X47800Y-25600D01*
X43800Y-25600D02*
X45400Y-25600D01*
X51000Y-25500D02*
X52500Y-25500D01*
X47400Y-25500D02*
X49400Y-25500D01*
X43800Y-25500D02*
X45400Y-25500D01*
X52200Y-25400D02*
X52500Y-25400D01*
X47400Y-25400D02*
X49400Y-25400D01*
X43800Y-25400D02*
X45400Y-25400D01*
X52200Y-25300D02*
X52400Y-25300D01*
X47400Y-25300D02*
X49400Y-25300D01*
X43800Y-25300D02*
X45400Y-25300D01*
X52200Y-25200D02*
X52400Y-25200D01*
X47400Y-25200D02*
X49400Y-25200D01*
X43800Y-25200D02*
X45400Y-25200D01*
X52200Y-25100D02*
X52400Y-25100D01*
X47400Y-25100D02*
X49400Y-25100D01*
X43800Y-25100D02*
X45400Y-25100D01*
X52200Y-25000D02*
X52400Y-25000D01*
X47400Y-25000D02*
X49300Y-25000D01*
X43800Y-25000D02*
X45400Y-25000D01*
X52200Y-24900D02*
X52400Y-24900D01*
X47300Y-24900D02*
X49300Y-24900D01*
X43800Y-24900D02*
X45500Y-24900D01*
X52200Y-24800D02*
X52400Y-24800D01*
X47300Y-24800D02*
X49200Y-24800D01*
X43800Y-24800D02*
X45500Y-24800D01*
X52200Y-24700D02*
X52400Y-24700D01*
X47200Y-24700D02*
X49200Y-24700D01*
X43800Y-24700D02*
X45600Y-24700D01*
X52200Y-24600D02*
X52500Y-24600D01*
X47100Y-24600D02*
X49200Y-24600D01*
X43800Y-24600D02*
X45700Y-24600D01*
X52200Y-24500D02*
X52500Y-24500D01*
X48100Y-24500D02*
X49200Y-24500D01*
X47000Y-24500D02*
X47300Y-24500D01*
X44500Y-24500D02*
X45800Y-24500D01*
X52200Y-24400D02*
X52500Y-24400D01*
X48300Y-24400D02*
X49200Y-24400D01*
X46800Y-24400D02*
X47100Y-24400D01*
X44700Y-24400D02*
X46000Y-24400D01*
X52200Y-24300D02*
X52400Y-24300D01*
X48400Y-24300D02*
X49200Y-24300D01*
X44800Y-24300D02*
X47000Y-24300D01*
X52200Y-24200D02*
X52300Y-24200D01*
X48500Y-24200D02*
X49200Y-24200D01*
X44900Y-24200D02*
X46900Y-24200D01*
X52200Y-24100D02*
X52300Y-24100D01*
X48600Y-24100D02*
X49300Y-24100D01*
X45000Y-24100D02*
X46800Y-24100D01*
X48600Y-24000D02*
X49300Y-24000D01*
X45000Y-24000D02*
X46800Y-24000D01*
X48700Y-23900D02*
X49400Y-23900D01*
X45100Y-23900D02*
X46700Y-23900D01*
X48700Y-23800D02*
X49500Y-23800D01*
X45100Y-23800D02*
X46700Y-23800D01*
X48700Y-23700D02*
X49600Y-23700D01*
X45100Y-23700D02*
X46700Y-23700D01*
X48800Y-23600D02*
X49800Y-23600D01*
X45100Y-23600D02*
X46700Y-23600D01*
X45100Y-23500D02*
X46700Y-23500D01*
X45100Y-23400D02*
X46700Y-23400D01*
X45000Y-23300D02*
X46700Y-23300D01*
X45000Y-23200D02*
X46800Y-23200D01*
X44900Y-23100D02*
X46800Y-23100D01*
M02*
