999
dxflib 2.2.0.0
  0
SECTION
  2
HEADER
  9
$ACADVER
  1
AC1015
  9
$HANDSEED
  5
FFFF
  9
$DIMASZ
 40
2.5
  9
$PLIMMIN
 10
0.0
 20
0.0
  9
$DIMEXE
 40
1.25
  9
$DIMGAP
 40
0.625
  9
$PLIMMAX
 10
210.0
 20
297.0
  9
$INSUNITS
 70
4
  9
$DIMSTYLE
  2
Standard
  9
$CLAYER
  8
0
  9
$DIMEXO
 40
0.625
  9
$DIMTXT
 40
2.5
  9
$CLAYER
  8
0
  0
ENDSEC
  0
SECTION
  2
TABLES
  0
TABLE
  2
VPORT
  5
8
100
AcDbSymbolTable
 70
1
  0
VPORT
  5
30
100
AcDbSymbolTableRecord
100
AcDbViewportTableRecord
  2
*Active
 70
0
 10
0.0
 20
0.0
 11
1.0
 21
1.0
 12
286.3055555555554861
 22
148.5
 13
0.0
 23
0.0
 14
10.0
 24
10.0
 15
10.0
 25
10.0
 16
0.0
 26
0.0
 36
1.0
 17
0.0
 27
0.0
 37
0.0
 40
297.0
 41
1.92798353909465
 42
50.0
 43
0.0
 44
0.0
 50
0.0
 51
0.0
 71
0
 72
100
 73
1
 74
3
 75
1
 76
1
 77
0
 78
0
281
0
 65
1
110
0.0
120
0.0
130
0.0
111
1.0
121
0.0
131
0.0
112
0.0
122
1.0
132
0.0
 79
0
146
0.0
  0
ENDTAB
  0
TABLE
  2
LTYPE
  5
5
100
AcDbSymbolTable
 70
21
  0
LTYPE
  5
14
100
AcDbSymbolTableRecord
100
AcDbLinetypeTableRecord
  2
ByBlock
 70
0
  3

 72
65
 73
0
 40
0.0
  0
LTYPE
  5
15
100
AcDbSymbolTableRecord
100
AcDbLinetypeTableRecord
  2
ByLayer
 70
0
  3

 72
65
 73
0
 40
0.0
  0
LTYPE
  5
16
100
AcDbSymbolTableRecord
100
AcDbLinetypeTableRecord
  2
CONTINUOUS
 70
0
  3
Solid line
 72
65
 73
0
 40
0.0
  0
LTYPE
  5
31
100
AcDbSymbolTableRecord
100
AcDbLinetypeTableRecord
  2
DOT
 70
0
  3
Dot . . . . . . . . . . . . . . . . . . . . . .
 72
65
 73
2
 40
6.3499999999999996
 49
0.0
 74
0
 49
-6.3499999999999996
 74
0
  0
LTYPE
  5
32
100
AcDbSymbolTableRecord
100
AcDbLinetypeTableRecord
  2
DOT2
 70
0
  3
Dot (.5x) .....................................
 72
65
 73
2
 40
3.1749999999999998
 49
0.0
 74
0
 49
-3.1749999999999998
 74
0
  0
LTYPE
  5
33
100
AcDbSymbolTableRecord
100
AcDbLinetypeTableRecord
  2
DOTX2
 70
0
  3
Dot (2x) .  .  .  .  .  .  .  .  .  .  .  .  .
 72
65
 73
2
 40
12.6999999999999993
 49
0.0
 74
0
 49
-12.6999999999999993
 74
0
  0
LTYPE
  5
34
100
AcDbSymbolTableRecord
100
AcDbLinetypeTableRecord
  2
DASHED
 70
0
  3
Dashed __ __ __ __ __ __ __ __ __ __ __ __ __ _
 72
65
 73
2
 40
19.0500000000000007
 49
12.6999999999999993
 74
0
 49
-6.3499999999999996
 74
0
  0
LTYPE
  5
35
100
AcDbSymbolTableRecord
100
AcDbLinetypeTableRecord
  2
DASHED2
 70
0
  3
Dashed (.5x) _ _ _ _ _ _ _ _ _ _ _ _ _ _ _ _ _
 72
65
 73
2
 40
9.5250000000000004
 49
6.3499999999999996
 74
0
 49
-3.1749999999999998
 74
0
  0
LTYPE
  5
36
100
AcDbSymbolTableRecord
100
AcDbLinetypeTableRecord
  2
DASHEDX2
 70
0
  3
Dashed (2x) ____  ____  ____  ____  ____  ___
 72
65
 73
2
 40
38.1000000000000014
 49
25.3999999999999986
 74
0
 49
-12.6999999999999993
 74
0
  0
LTYPE
  5
37
100
AcDbSymbolTableRecord
100
AcDbLinetypeTableRecord
  2
DASHDOT
 70
0
  3
Dash dot __ . __ . __ . __ . __ . __ . __ . __
 72
65
 73
4
 40
25.3999999999999986
 49
12.6999999999999993
 74
0
 49
-6.3499999999999996
 74
0
 49
0.0
 74
0
 49
-6.3499999999999996
 74
0
  0
LTYPE
  5
38
100
AcDbSymbolTableRecord
100
AcDbLinetypeTableRecord
  2
DASHDOT2
 70
0
  3
Dash dot (.5x) _._._._._._._._._._._._._._._.
 72
65
 73
4
 40
12.6999999999999993
 49
6.3499999999999996
 74
0
 49
-3.1749999999999998
 74
0
 49
0.0
 74
0
 49
-3.1749999999999998
 74
0
  0
LTYPE
  5
39
100
AcDbSymbolTableRecord
100
AcDbLinetypeTableRecord
  2
DASHDOTX2
 70
0
  3
Dash dot (2x) ____  .  ____  .  ____  .  ___
 72
65
 73
4
 40
50.7999999999999972
 49
25.3999999999999986
 74
0
 49
-12.6999999999999993
 74
0
 49
0.0
 74
0
 49
-12.6999999999999993
 74
0
  0
LTYPE
  5
3A
100
AcDbSymbolTableRecord
100
AcDbLinetypeTableRecord
  2
DIVIDE
 70
0
  3
Divide ____ . . ____ . . ____ . . ____ . . ____
 72
65
 73
6
 40
31.75
 49
12.6999999999999993
 74
0
 49
-6.3499999999999996
 74
0
 49
0.0
 74
0
 49
-6.3499999999999996
 74
0
 49
0.0
 74
0
 49
-6.3499999999999996
 74
0
  0
LTYPE
  5
3B
100
AcDbSymbolTableRecord
100
AcDbLinetypeTableRecord
  2
DIVIDE2
 70
0
  3
Divide (.5x) __..__..__..__..__..__..__..__.._
 72
65
 73
6
 40
15.875
 49
6.3499999999999996
 74
0
 49
-3.1749999999999998
 74
0
 49
0.0
 74
0
 49
-3.1749999999999998
 74
0
 49
0.0
 74
0
 49
-3.1749999999999998
 74
0
  0
LTYPE
  5
3C
100
AcDbSymbolTableRecord
100
AcDbLinetypeTableRecord
  2
DIVIDEX2
 70
0
  3
Divide (2x) ________  .  .  ________  .  .  _
 72
65
 73
6
 40
63.5
 49
25.3999999999999986
 74
0
 49
-12.6999999999999993
 74
0
 49
0.0
 74
0
 49
-12.6999999999999993
 74
0
 49
0.0
 74
0
 49
-12.6999999999999993
 74
0
  0
LTYPE
  5
3D
100
AcDbSymbolTableRecord
100
AcDbLinetypeTableRecord
  2
CENTER
 70
0
  3
Center ____ _ ____ _ ____ _ ____ _ ____ _ ____
 72
65
 73
4
 40
50.7999999999999972
 49
31.75
 74
0
 49
-6.3499999999999996
 74
0
 49
6.3499999999999996
 74
0
 49
-6.3499999999999996
 74
0
  0
LTYPE
  5
3E
100
AcDbSymbolTableRecord
100
AcDbLinetypeTableRecord
  2
CENTER2
 70
0
  3
Center (.5x) ___ _ ___ _ ___ _ ___ _ ___ _ ___
 72
65
 73
4
 40
28.5749999999999993
 49
19.0500000000000007
 74
0
 49
-3.1749999999999998
 74
0
 49
3.1749999999999998
 74
0
 49
-3.1749999999999998
 74
0
  0
LTYPE
  5
3F
100
AcDbSymbolTableRecord
100
AcDbLinetypeTableRecord
  2
CENTERX2
 70
0
  3
Center (2x) ________  __  ________  __  _____
 72
65
 73
4
 40
101.5999999999999943
 49
63.5
 74
0
 49
-12.6999999999999993
 74
0
 49
12.6999999999999993
 74
0
 49
-12.6999999999999993
 74
0
  0
LTYPE
  5
40
100
AcDbSymbolTableRecord
100
AcDbLinetypeTableRecord
  2
BORDER
 70
0
  3
Border __ __ . __ __ . __ __ . __ __ . __ __ .
 72
65
 73
6
 40
44.4500000000000028
 49
12.6999999999999993
 74
0
 49
-6.3499999999999996
 74
0
 49
12.6999999999999993
 74
0
 49
-6.3499999999999996
 74
0
 49
0.0
 74
0
 49
-6.3499999999999996
 74
0
  0
LTYPE
  5
41
100
AcDbSymbolTableRecord
100
AcDbLinetypeTableRecord
  2
BORDER2
 70
0
  3
Border (.5x) __.__.__.__.__.__.__.__.__.__.__.
 72
65
 73
6
 40
22.2250000000000014
 49
6.3499999999999996
 74
0
 49
-3.1749999999999998
 74
0
 49
6.3499999999999996
 74
0
 49
-3.1749999999999998
 74
0
 49
0.0
 74
0
 49
-3.1749999999999998
 74
0
  0
LTYPE
  5
42
100
AcDbSymbolTableRecord
100
AcDbLinetypeTableRecord
  2
BORDERX2
 70
0
  3
Border (2x) ____  ____  .  ____  ____  .  ___
 72
65
 73
6
 40
88.9000000000000057
 49
25.3999999999999986
 74
0
 49
-12.6999999999999993
 74
0
 49
25.3999999999999986
 74
0
 49
-12.6999999999999993
 74
0
 49
0.0
 74
0
 49
-12.6999999999999993
 74
0
  0
ENDTAB
  0
TABLE
  2
LAYER
  5
2
100
AcDbSymbolTable
 70
14
  0
LAYER
  5
10
100
AcDbSymbolTableRecord
100
AcDbLayerTableRecord
  2
0
 70
0
 62
7
420
0
  6
CONTINUOUS
370
25
390
F
  0
LAYER
  5
43
100
AcDbSymbolTableRecord
100
AcDbLayerTableRecord
  2
Spacer Plate
 70
0
 62
7
420
0
  6
CONTINUOUS
370
0
390
F
  0
LAYER
  5
44
100
AcDbSymbolTableRecord
100
AcDbLayerTableRecord
  2
Spacer Plate Text
 70
0
 62
4
420
65535
  6
CONTINUOUS
370
0
390
F
  0
LAYER
  5
45
100
AcDbSymbolTableRecord
100
AcDbLayerTableRecord
  2
Filament Guide Bottom
 70
0
 62
7
420
0
  6
CONTINUOUS
370
0
390
F
  0
LAYER
  5
46
100
AcDbSymbolTableRecord
100
AcDbLayerTableRecord
  2
Filament Guide Bottom Text
 70
0
 62
4
420
65535
  6
CONTINUOUS
370
0
390
F
  0
LAYER
  5
47
100
AcDbSymbolTableRecord
100
AcDbLayerTableRecord
  2
Filament Guide Top Text
 70
0
 62
4
420
65535
  6
CONTINUOUS
370
0
390
F
  0
LAYER
  5
48
100
AcDbSymbolTableRecord
100
AcDbLayerTableRecord
  2
Filament Guide Top
 70
0
 62
7
420
0
  6
CONTINUOUS
370
0
390
F
  0
LAYER
  5
49
100
AcDbSymbolTableRecord
100
AcDbLayerTableRecord
  2
Retainer Plate
 70
0
 62
7
420
0
  6
CONTINUOUS
370
0
390
F
  0
LAYER
  5
4A
100
AcDbSymbolTableRecord
100
AcDbLayerTableRecord
  2
Retainer Plate Text
 70
0
 62
4
420
65535
  6
CONTINUOUS
370
0
390
F
  0
LAYER
  5
4B
100
AcDbSymbolTableRecord
100
AcDbLayerTableRecord
  2
Idler Wheel Text
 70
0
 62
4
420
65535
  6
CONTINUOUS
370
0
390
F
  0
LAYER
  5
4C
100
AcDbSymbolTableRecord
100
AcDbLayerTableRecord
  2
Idler Wheel
 70
0
 62
7
420
0
  6
CONTINUOUS
370
0
390
F
  0
LAYER
  5
4D
100
AcDbSymbolTableRecord
100
AcDbLayerTableRecord
  2
Filament Guide Bottom Honeycomb
 70
0
 62
7
420
0
  6
CONTINUOUS
370
0
390
F
  0
LAYER
  5
4E
100
AcDbSymbolTableRecord
100
AcDbLayerTableRecord
  2
Filament Guide Top Honeycomb
 70
0
 62
7
420
0
  6
CONTINUOUS
370
0
390
F
  0
LAYER
  5
4F
100
AcDbSymbolTableRecord
100
AcDbLayerTableRecord
  2
Spacer Plate Honeycomb
 70
0
 62
7
420
0
  6
CONTINUOUS
370
0
390
F
  0
ENDTAB
  0
TABLE
  2
STYLE
  5
3
100
AcDbSymbolTable
 70
1
  0
STYLE
  5
11
100
AcDbSymbolTableRecord
100
AcDbTextStyleTableRecord
  2
Standard
 70
0
 40
0.0
 41
0.75
 50
0.0
 71
0
 42
2.5
  3
txt
  4

  0
ENDTAB
  0
TABLE
  2
VIEW
  5
6
100
AcDbSymbolTable
 70
0
  0
ENDTAB
  0
TABLE
  2
UCS
  5
7
100
AcDbSymbolTable
 70
0
  0
ENDTAB
  0
TABLE
  2
APPID
  5
9
100
AcDbSymbolTable
 70
1
  0
APPID
  5
12
100
AcDbSymbolTableRecord
100
AcDbRegAppTableRecord
  2
ACAD
 70
0
  0
ENDTAB
  0
TABLE
  2
DIMSTYLE
  5
A
100
AcDbSymbolTable
 70
1
100
AcDbDimStyleTable
 71
0
  0
DIMSTYLE
105
27
100
AcDbSymbolTableRecord
100
AcDbDimStyleTableRecord
  2
Standard
 41
2.5
 42
0.625
 43
3.75
 44
1.25
 70
0
 73
0
 74
0
 77
1
 78
8
140
2.5
141
2.5
143
0.03937007874016
147
0.625
171
3
172
1
271
2
272
2
274
3
278
44
283
0
284
8
340
11
  0
ENDTAB
  0
TABLE
  2
BLOCK_RECORD
  5
1
100
AcDbSymbolTable
 70
1
  0
BLOCK_RECORD
  5
1F
100
AcDbSymbolTableRecord
100
AcDbBlockTableRecord
  2
*Model_Space
340
22
  0
BLOCK_RECORD
  5
1B
100
AcDbSymbolTableRecord
100
AcDbBlockTableRecord
  2
*Paper_Space
340
1E
  0
BLOCK_RECORD
  5
23
100
AcDbSymbolTableRecord
100
AcDbBlockTableRecord
  2
*Paper_Space0
340
26
  0
ENDTAB
  0
ENDSEC
  0
SECTION
  2
BLOCKS
  0
BLOCK
  5
20
100
AcDbEntity
  8
0
100
AcDbBlockBegin
  2
*Model_Space
 70
0
 10
0.0
 20
0.0
 30
0.0
  3
*Model_Space
  1

  0
ENDBLK
  5
21
100
AcDbEntity
  8
0
100
AcDbBlockEnd
  0
BLOCK
  5
1C
100
AcDbEntity
 67
1
  8
0
100
AcDbBlockBegin
  2
*Paper_Space
 70
0
 10
0.0
 20
0.0
 30
0.0
  3
*Paper_Space
  1

  0
ENDBLK
  5
1D
100
AcDbEntity
 67
1
  8
0
100
AcDbBlockEnd
  0
BLOCK
  5
24
100
AcDbEntity
  8
0
100
AcDbBlockBegin
  2
*Paper_Space0
 70
0
 10
0.0
 20
0.0
 30
0.0
  3
*Paper_Space0
  1

  0
ENDBLK
  5
25
100
AcDbEntity
  8
0
100
AcDbBlockEnd
  0
ENDSEC
  0
SECTION
  2
ENTITIES
  0
CIRCLE
  5
50
100
AcDbEntity
100
AcDbCircle
  8
Filament Guide Bottom
 62
256
370
-1
  6
ByLayer
 10
9.9999999999999929
 20
7.7500000000000071
 30
0.0
 40
1.45
  0
CIRCLE
  5
51
100
AcDbEntity
100
AcDbCircle
  8
Filament Guide Bottom
 62
256
370
-1
  6
ByLayer
 10
10.0000000000000036
 20
72.1500000000000199
 30
0.0
 40
1.45
  0
CIRCLE
  5
52
100
AcDbEntity
100
AcDbCircle
  8
Filament Guide Bottom
 62
256
370
-1
  6
ByLayer
 10
72.1500000000000057
 20
72.1500000000000057
 30
0.0
 40
1.45
  0
CIRCLE
  5
53
100
AcDbEntity
100
AcDbCircle
  8
Filament Guide Bottom
 62
256
370
-1
  6
ByLayer
 10
72.1500000000000057
 20
7.75
 30
0.0
 40
1.45
  0
LINE
  5
54
100
AcDbEntity
100
AcDbLine
  8
Filament Guide Bottom
 62
256
370
-1
  6
ByLayer
 10
80.0
 20
72.25
 30
0.0
 11
79.9999999999999858
 21
2.7499999999999858
 31
0.0
  0
ARC
  5
55
100
AcDbEntity
  8
Filament Guide Bottom
 62
256
370
-1
  6
ByLayer
100
AcDbCircle
 10
75.0
 20
72.25
 30
0.0
 40
5.0
100
AcDbArc
 50
0.0
 51
90.0
  0
LINE
  5
56
100
AcDbEntity
100
AcDbLine
  8
Filament Guide Bottom
 62
256
370
-1
  6
ByLayer
 10
5.0
 20
77.25
 30
0.0
 11
75.0
 21
77.25
 31
0.0
  0
ARC
  5
57
100
AcDbEntity
  8
Filament Guide Bottom
 62
256
370
-1
  6
ByLayer
100
AcDbCircle
 10
5.0
 20
72.25
 30
0.0
 40
5.0
100
AcDbArc
 50
90.0
 51
180.0
  0
LINE
  5
58
100
AcDbEntity
100
AcDbLine
  8
Filament Guide Bottom
 62
256
370
-1
  6
ByLayer
 10
79.9999999999999858
 20
2.7499999999999858
 30
0.0
 11
-0.0000000000000142
 21
2.7500000000000213
 31
0.0
  0
LINE
  5
59
100
AcDbEntity
100
AcDbLine
  8
Filament Guide Bottom
 62
256
370
-1
  6
ByLayer
 10
-0.0000000000000142
 20
2.7500000000000213
 30
0.0
 11
0.0000000000000071
 21
72.25
 31
0.0
  0
ARC
  5
5A
100
AcDbEntity
  8
Filament Guide Bottom
 62
256
370
-1
  6
ByLayer
100
AcDbCircle
 10
51.5
 20
35.2499745962155586
 30
0.0
 40
22.0
100
AcDbArc
 50
90.0
 51
162.8241830142433173
  0
ARC
  5
5B
100
AcDbEntity
  8
Filament Guide Bottom
 62
256
370
-1
  6
ByLayer
100
AcDbCircle
 10
51.5
 20
35.2499745962155586
 30
0.0
 40
22.0
100
AcDbArc
 50
197.1758169857565974
 51
270.0
  0
ARC
  5
5C
100
AcDbEntity
  8
Filament Guide Bottom
 62
256
370
-1
  6
ByLayer
100
AcDbCircle
 10
25.0
 20
35.249974596215587
 30
0.0
 40
8.5
100
AcDbArc
 50
49.8463896084640012
 51
310.1536103915360059
  0
LINE
  5
5D
100
AcDbEntity
100
AcDbLine
  8
Filament Guide Bottom
 62
256
370
-1
  6
ByLayer
 10
51.5
 20
57.2499745962155657
 30
0.0
 11
53.5
 21
57.2499745962155657
 31
0.0
  0
LINE
  5
5E
100
AcDbEntity
100
AcDbLine
  8
Filament Guide Bottom
 62
256
370
-1
  6
ByLayer
 10
51.4999999999999858
 20
13.2499745962155622
 30
0.0
 11
53.5
 21
13.2499745962155657
 31
0.0
  0
ARC
  5
5F
100
AcDbEntity
  8
Filament Guide Bottom
 62
256
370
-1
  6
ByLayer
100
AcDbCircle
 10
53.5
 20
35.2499745962155586
 30
0.0
 40
22.0
100
AcDbArc
 50
270.0
 51
90.0
  0
LINE
  5
60
100
AcDbEntity
100
AcDbLine
  8
Filament Guide Bottom Honeycomb
 62
256
370
-1
  6
ByLayer
 10
74.9999999999999716
 20
66.3638095434042299
 30
0.0
 11
74.9999999999999716
 21
51.5824575672766485
 31
0.0
  0
ARC
  5
61
100
AcDbEntity
  8
Filament Guide Bottom Honeycomb
 62
256
370
-1
  6
ByLayer
100
AcDbCircle
 10
72.1500000000000057
 20
72.1500000000000199
 30
0.0
 40
6.4499999999998918
100
AcDbArc
 50
179.1116577499620348
 51
296.2226465049216131
  0
ARC
  5
62
100
AcDbEntity
  8
Filament Guide Bottom Honeycomb
 62
256
370
-1
  6
ByLayer
100
AcDbCircle
 10
53.4999999999999716
 20
35.2499745962155444
 30
0.0
 40
27.0
100
AcDbArc
 50
37.2221338960613224
 51
90.0
  0
LINE
  5
63
100
AcDbEntity
100
AcDbLine
  8
Filament Guide Bottom Honeycomb
 62
256
370
-1
  6
ByLayer
 10
53.5
 20
62.2499745962155657
 30
0.0
 11
51.4999999999999716
 21
62.2499745962155799
 31
0.0
  0
ARC
  5
64
100
AcDbEntity
  8
Filament Guide Bottom Honeycomb
 62
256
370
-1
  6
ByLayer
100
AcDbCircle
 10
9.9999999999999964
 20
72.1500000000000199
 30
0.0
 40
6.4500000000000126
100
AcDbArc
 50
219.1773936864242387
 51
0.888342250037548
  0
LINE
  5
65
100
AcDbEntity
100
AcDbLine
  8
Filament Guide Bottom Honeycomb
 62
256
370
-1
  6
ByLayer
 10
16.4492247596125871
 20
72.25
 30
0.0
 11
24.3750000000000071
 21
72.25
 31
0.0
  0
LINE
  5
66
100
AcDbEntity
100
AcDbLine
  8
Filament Guide Bottom Honeycomb
 62
256
370
-1
  6
ByLayer
 10
37.6250000000000142
 20
72.25
 30
0.0
 11
65.7007752403876424
 21
72.25
 31
0.0
  0
LINE
  5
67
100
AcDbEntity
100
AcDbLine
  8
Filament Guide Bottom Honeycomb
 62
256
370
-1
  6
ByLayer
 10
5.0
 20
11.8246165463758715
 30
0.0
 11
5.0
 21
30.2499745962155906
 31
0.0
  0
LINE
  5
68
100
AcDbEntity
100
AcDbLine
  8
Filament Guide Bottom Honeycomb
 62
256
370
-1
  6
ByLayer
 10
16.4500000000000064
 20
7.7499999999999929
 30
0.0
 11
24.3750000000000142
 21
7.7499999999999929
 31
0.0
  0
LINE
  5
69
100
AcDbEntity
100
AcDbLine
  8
Filament Guide Bottom Honeycomb
 62
256
370
-1
  6
ByLayer
 10
24.3750000000000071
 20
72.25
 30
0.0
 11
24.3750000000000142
 21
48.7354992430359601
 31
0.0
  0
ARC
  5
6A
100
AcDbEntity
  8
Filament Guide Bottom Honeycomb
 62
256
370
-1
  6
ByLayer
100
AcDbCircle
 10
24.9999999999999716
 20
35.2499745962155941
 30
0.0
 40
13.5000000000000018
100
AcDbArc
 50
92.6535308674056637
 51
156.1794419776694269
  0
ARC
  5
6B
100
AcDbEntity
  8
Filament Guide Bottom Honeycomb
 62
256
370
-1
  6
ByLayer
100
AcDbCircle
 10
51.5
 20
35.2499745962155586
 30
0.0
 40
26.9999999999999964
100
AcDbArc
 50
90.0
 51
120.92321565535525
  0
LINE
  5
6C
100
AcDbEntity
100
AcDbLine
  8
Filament Guide Bottom Honeycomb
 62
256
370
-1
  6
ByLayer
 10
37.6250000000000142
 20
58.4121069462389571
 30
0.0
 11
37.6250000000000142
 21
72.25
 31
0.0
  0
LINE
  5
6D
100
AcDbEntity
100
AcDbLine
  8
Filament Guide Bottom Honeycomb
 62
256
370
-1
  6
ByLayer
 10
24.3750000000000142
 20
7.7499999999999929
 30
0.0
 11
24.3750000000000071
 21
21.7644499493951962
 31
0.0
  0
ARC
  5
6E
100
AcDbEntity
  8
Filament Guide Bottom Honeycomb
 62
256
370
-1
  6
ByLayer
100
AcDbCircle
 10
24.9999999999999716
 20
35.2499745962155941
 30
0.0
 40
13.5000000000000018
100
AcDbArc
 50
201.7384607915205095
 51
267.3464691325942795
  0
LINE
  5
6F
100
AcDbEntity
100
AcDbLine
  8
Filament Guide Bottom Honeycomb
 62
256
370
-1
  6
ByLayer
 10
12.4600637960155183
 20
30.2499745962155835
 30
0.0
 11
5.0
 21
30.2499745962155906
 31
0.0
  0
ARC
  5
70
100
AcDbEntity
  8
Filament Guide Bottom Honeycomb
 62
256
370
-1
  6
ByLayer
100
AcDbCircle
 10
9.9999999999999929
 20
7.7500000000000071
 30
0.0
 40
6.4500000000000002
100
AcDbArc
 50
0.0
 51
140.8226063135757329
  0
LINE
  5
71
100
AcDbEntity
100
AcDbLine
  8
Filament Guide Bottom Honeycomb
 62
256
370
-1
  6
ByLayer
 10
5.0000000000000071
 20
68.0753834536241413
 30
0.0
 11
5.0
 21
40.2499745962156226
 31
0.0
  0
LINE
  5
72
100
AcDbEntity
100
AcDbLine
  8
Filament Guide Bottom Honeycomb
 62
256
370
-1
  6
ByLayer
 10
5.0
 20
40.2499745962156226
 30
0.0
 11
12.4600637960155467
 21
40.2499745962153384
 31
0.0
  0
MTEXT
  5
73
100
AcDbEntity
100
AcDbMText
  8
Filament Guide Bottom Text
 62
256
370
-1
  6
ByLayer
 10
37.0
 20
74.75
 30
0.0
 40
2.0
 41
100.0
 71
5
 72
2
  1
Filament\~Guide\~Bottom
  7
standard
 50
0.0
 73
1
 44
1.0
  0
CIRCLE
  5
74
100
AcDbEntity
100
AcDbCircle
  8
Filament Guide Top
 62
256
370
-1
  6
ByLayer
 10
90.0
 20
7.7500000000000071
 30
0.0
 40
1.45
  0
CIRCLE
  5
75
100
AcDbEntity
100
AcDbCircle
  8
Filament Guide Top
 62
256
370
-1
  6
ByLayer
 10
90.0000000000000142
 20
72.1500000000000341
 30
0.0
 40
1.45
  0
CIRCLE
  5
76
100
AcDbEntity
100
AcDbCircle
  8
Filament Guide Top
 62
256
370
-1
  6
ByLayer
 10
152.1500000000000057
 20
72.1500000000000057
 30
0.0
 40
1.45
  0
CIRCLE
  5
77
100
AcDbEntity
100
AcDbCircle
  8
Filament Guide Top
 62
256
370
-1
  6
ByLayer
 10
152.1500000000000057
 20
7.7499999999999929
 30
0.0
 40
1.45
  0
ARC
  5
78
100
AcDbEntity
  8
Filament Guide Top
 62
256
370
-1
  6
ByLayer
100
AcDbCircle
 10
155.0
 20
72.25
 30
0.0
 40
5.0
100
AcDbArc
 50
0.0
 51
90.0
  0
LINE
  5
79
100
AcDbEntity
100
AcDbLine
  8
Filament Guide Top
 62
256
370
-1
  6
ByLayer
 10
160.0
 20
2.7499999999999787
 30
0.0
 11
79.9999999999999858
 21
2.7500000000000213
 31
0.0
  0
LINE
  5
7A
100
AcDbEntity
100
AcDbLine
  8
Filament Guide Top
 62
256
370
-1
  6
ByLayer
 10
85.0000000000000142
 20
77.25
 30
0.0
 11
155.0
 21
77.25
 31
0.0
  0
ARC
  5
7B
100
AcDbEntity
  8
Filament Guide Top
 62
256
370
-1
  6
ByLayer
100
AcDbCircle
 10
85.0
 20
72.25
 30
0.0
 40
5.0
100
AcDbArc
 50
90.0
 51
180.0
  0
LINE
  5
7C
100
AcDbEntity
100
AcDbLine
  8
Filament Guide Top
 62
256
370
-1
  6
ByLayer
 10
84.9999999999999858
 20
47.049930546746225
 30
0.0
 11
82.3499999999999801
 21
45.5199525649280119
 31
0.0
  0
LINE
  5
7D
100
AcDbEntity
100
AcDbLine
  8
Filament Guide Top
 62
256
370
-1
  6
ByLayer
 10
84.9999999999999858
 20
47.049930546746225
 30
0.0
 11
87.6499999999999915
 21
45.5199525649280474
 31
0.0
  0
LINE
  5
7E
100
AcDbEntity
100
AcDbLine
  8
Filament Guide Top
 62
256
370
-1
  6
ByLayer
 10
87.6499999999999915
 20
45.5199525649280474
 30
0.0
 11
87.6499999999999915
 21
42.4599966275031449
 31
0.0
  0
LINE
  5
7F
100
AcDbEntity
100
AcDbLine
  8
Filament Guide Top
 62
256
370
-1
  6
ByLayer
 10
87.6499999999999915
 20
42.4599966275031449
 30
0.0
 11
84.9999999999999858
 21
40.9300186456849815
 31
0.0
  0
LINE
  5
80
100
AcDbEntity
100
AcDbLine
  8
Filament Guide Top
 62
256
370
-1
  6
ByLayer
 10
82.3499999999999801
 20
45.5199525649280119
 30
0.0
 11
82.3499999999999801
 21
42.459996627503152
 31
0.0
  0
LINE
  5
81
100
AcDbEntity
100
AcDbLine
  8
Filament Guide Top
 62
256
370
-1
  6
ByLayer
 10
82.3499999999999801
 20
42.459996627503152
 30
0.0
 11
84.9999999999999858
 21
40.9300186456849815
 31
0.0
  0
LINE
  5
82
100
AcDbEntity
100
AcDbLine
  8
Filament Guide Top
 62
256
370
-1
  6
ByLayer
 10
84.9999999999999858
 20
29.5699305467462423
 30
0.0
 11
82.3499999999999659
 21
28.0399525649280719
 31
0.0
  0
LINE
  5
83
100
AcDbEntity
100
AcDbLine
  8
Filament Guide Top
 62
256
370
-1
  6
ByLayer
 10
84.9999999999999858
 20
29.5699305467462423
 30
0.0
 11
87.6499999999999773
 21
28.0399525649280505
 31
0.0
  0
LINE
  5
84
100
AcDbEntity
100
AcDbLine
  8
Filament Guide Top
 62
256
370
-1
  6
ByLayer
 10
87.6499999999999773
 20
28.0399525649280505
 30
0.0
 11
87.6499999999999773
 21
24.9799966275031409
 31
0.0
  0
LINE
  5
85
100
AcDbEntity
100
AcDbLine
  8
Filament Guide Top
 62
256
370
-1
  6
ByLayer
 10
87.6499999999999773
 20
24.9799966275031409
 30
0.0
 11
84.9999999999999858
 21
23.4500186456849455
 31
0.0
  0
LINE
  5
86
100
AcDbEntity
100
AcDbLine
  8
Filament Guide Top
 62
256
370
-1
  6
ByLayer
 10
82.3499999999999659
 20
28.0399525649280719
 30
0.0
 11
82.3499999999999659
 21
24.9799966275031444
 31
0.0
  0
LINE
  5
87
100
AcDbEntity
100
AcDbLine
  8
Filament Guide Top
 62
256
370
-1
  6
ByLayer
 10
82.3499999999999659
 20
24.9799966275031444
 30
0.0
 11
84.9999999999999858
 21
23.4500186456849455
 31
0.0
  0
LINE
  5
88
100
AcDbEntity
100
AcDbLine
  8
Filament Guide Top
 62
256
370
-1
  6
ByLayer
 10
122.4249999999999687
 20
9.0500000000000185
 30
0.0
 11
125.3249999999999744
 21
9.0500000000000149
 31
0.0
  0
LINE
  5
89
100
AcDbEntity
100
AcDbLine
  8
Filament Guide Top
 62
256
370
-1
  6
ByLayer
 10
125.3249999999999744
 20
9.0500000000000149
 30
0.0
 11
125.3249999999999886
 21
6.7500000000000142
 31
0.0
  0
LINE
  5
8A
100
AcDbEntity
100
AcDbLine
  8
Filament Guide Top
 62
256
370
-1
  6
ByLayer
 10
125.3249999999999886
 20
6.7500000000000142
 30
0.0
 11
122.4249999999999687
 21
6.7500000000000213
 31
0.0
  0
LINE
  5
8B
100
AcDbEntity
100
AcDbLine
  8
Filament Guide Top
 62
256
370
-1
  6
ByLayer
 10
122.4249999999999687
 20
6.7500000000000213
 30
0.0
 11
122.4249999999999687
 21
9.0500000000000185
 31
0.0
  0
LINE
  5
8C
100
AcDbEntity
100
AcDbLine
  8
Filament Guide Top
 62
256
370
-1
  6
ByLayer
 10
97.1749999999999829
 20
9.1000000000000369
 30
0.0
 11
100.0749999999999886
 21
9.1000000000000227
 31
0.0
  0
LINE
  5
8D
100
AcDbEntity
100
AcDbLine
  8
Filament Guide Top
 62
256
370
-1
  6
ByLayer
 10
100.0749999999999886
 20
9.1000000000000227
 30
0.0
 11
100.0750000000000028
 21
6.7500000000000142
 31
0.0
  0
LINE
  5
8E
100
AcDbEntity
100
AcDbLine
  8
Filament Guide Top
 62
256
370
-1
  6
ByLayer
 10
100.0750000000000028
 20
6.7500000000000142
 30
0.0
 11
97.1750000000000114
 21
6.7500000000000142
 31
0.0
  0
LINE
  5
8F
100
AcDbEntity
100
AcDbLine
  8
Filament Guide Top
 62
256
370
-1
  6
ByLayer
 10
97.1750000000000114
 20
6.7500000000000142
 30
0.0
 11
97.1749999999999829
 21
9.1000000000000369
 31
0.0
  0
ARC
  5
90
100
AcDbEntity
  8
Filament Guide Top
 62
256
370
-1
  6
ByLayer
100
AcDbCircle
 10
131.5
 20
35.2499745962156013
 30
0.0
 40
22.0
100
AcDbArc
 50
90.0
 51
162.8241830142433741
  0
ARC
  5
91
100
AcDbEntity
  8
Filament Guide Top
 62
256
370
-1
  6
ByLayer
100
AcDbCircle
 10
131.5
 20
35.2499745962156013
 30
0.0
 40
22.0
100
AcDbArc
 50
197.1758169857566259
 51
270.0
  0
ARC
  5
92
100
AcDbEntity
  8
Filament Guide Top
 62
256
370
-1
  6
ByLayer
100
AcDbCircle
 10
104.9999999999999858
 20
35.2499745962156013
 30
0.0
 40
8.5
100
AcDbArc
 50
49.8463896084640012
 51
310.1536103915360059
  0
LINE
  5
93
100
AcDbEntity
100
AcDbLine
  8
Filament Guide Top
 62
256
370
-1
  6
ByLayer
 10
133.5
 20
57.2499745962156013
 30
0.0
 11
131.4999999999999716
 21
57.2499745962156013
 31
0.0
  0
LINE
  5
94
100
AcDbEntity
100
AcDbLine
  8
Filament Guide Top
 62
256
370
-1
  6
ByLayer
 10
131.4999999999999716
 20
13.2499745962155977
 30
0.0
 11
133.4999999999999716
 21
13.2499745962156013
 31
0.0
  0
ARC
  5
95
100
AcDbEntity
  8
Filament Guide Top
 62
256
370
-1
  6
ByLayer
100
AcDbCircle
 10
133.5
 20
35.2499745962156084
 30
0.0
 40
22.0
100
AcDbArc
 50
270.0
 51
90.0
  0
LINE
  5
96
100
AcDbEntity
100
AcDbLine
  8
Filament Guide Top Honeycomb
 62
256
370
-1
  6
ByLayer
 10
105.0750000000000028
 20
7.7500000000000213
 30
0.0
 11
105.0750000000000171
 21
14.1000000000000192
 31
0.0
  0
LINE
  5
97
100
AcDbEntity
100
AcDbLine
  8
Filament Guide Top Honeycomb
 62
256
370
-1
  6
ByLayer
 10
155.0
 20
66.3638095434042583
 30
0.0
 11
155.0
 21
51.5824575672766485
 31
0.0
  0
ARC
  5
98
100
AcDbEntity
  8
Filament Guide Top Honeycomb
 62
256
370
-1
  6
ByLayer
100
AcDbCircle
 10
90.0000000000000142
 20
72.1500000000000341
 30
0.0
 40
6.4500000000000126
100
AcDbArc
 50
227.7263109939063384
 51
0.888342250037548
  0
ARC
  5
99
100
AcDbEntity
  8
Filament Guide Top Honeycomb
 62
256
370
-1
  6
ByLayer
100
AcDbCircle
 10
152.1500000000000341
 20
72.1500000000000341
 30
0.0
 40
6.4499999999998918
100
AcDbArc
 50
179.1116577499620348
 51
296.2226465049216131
  0
ARC
  5
9A
100
AcDbEntity
  8
Filament Guide Top Honeycomb
 62
256
370
-1
  6
ByLayer
100
AcDbCircle
 10
133.5
 20
35.2499745962155657
 30
0.0
 40
27.0
100
AcDbArc
 50
37.2221338960613224
 51
90.0
  0
LINE
  5
9B
100
AcDbEntity
100
AcDbLine
  8
Filament Guide Top Honeycomb
 62
256
370
-1
  6
ByLayer
 10
133.5
 20
62.2499745962155799
 30
0.0
 11
131.5
 21
62.2499745962155941
 31
0.0
  0
LINE
  5
9C
100
AcDbEntity
100
AcDbLine
  8
Filament Guide Top Honeycomb
 62
256
370
-1
  6
ByLayer
 10
105.0750000000000171
 20
14.1000000000000192
 30
0.0
 11
88.868629150101512
 21
14.1000000000000263
 31
0.0
  0
ARC
  5
9D
100
AcDbEntity
  8
Filament Guide Top Honeycomb
 62
256
370
-1
  6
ByLayer
100
AcDbCircle
 10
89.9999999999999858
 20
7.7500000000000284
 30
0.0
 40
6.4500000000000002
100
AcDbArc
 50
100.1023050560360872
 51
140.8226063135759034
  0
LINE
  5
9E
100
AcDbEntity
100
AcDbLine
  8
Filament Guide Top Honeycomb
 62
256
370
-1
  6
ByLayer
 10
85.0000000000000142
 20
52.8234330202138977
 30
0.0
 11
85.0000000000000142
 21
68.0753834536241555
 31
0.0
  0
LINE
  5
9F
100
AcDbEntity
100
AcDbLine
  8
Filament Guide Top Honeycomb
 62
256
370
-1
  6
ByLayer
 10
85.0000000000000142
 20
52.8234330202138977
 30
0.0
 11
92.6499999999999915
 21
48.4067041293047851
 31
0.0
  0
LINE
  5
A0
100
AcDbEntity
100
AcDbLine
  8
Filament Guide Top Honeycomb
 62
256
370
-1
  6
ByLayer
 10
92.6499999999999915
 20
48.4067041293047851
 30
0.0
 11
92.6499999999999915
 21
40.7022676917855364
 31
0.0
  0
LINE
  5
A1
100
AcDbEntity
100
AcDbLine
  8
Filament Guide Top Honeycomb
 62
256
370
-1
  6
ByLayer
 10
92.6499999999999915
 20
29.7976815006456732
 30
0.0
 11
92.6499999999999773
 21
22.093245063126389
 31
0.0
  0
LINE
  5
A2
100
AcDbEntity
100
AcDbLine
  8
Filament Guide Top Honeycomb
 62
256
370
-1
  6
ByLayer
 10
92.6499999999999773
 20
22.093245063126389
 30
0.0
 11
85.0
 21
17.6765161722173048
 31
0.0
  0
LINE
  5
A3
100
AcDbEntity
100
AcDbLine
  8
Filament Guide Top Honeycomb
 62
256
370
-1
  6
ByLayer
 10
85.0
 20
17.6765161722173048
 30
0.0
 11
85.0000000000000142
 21
11.8246165463758857
 31
0.0
  0
ARC
  5
A4
100
AcDbEntity
  8
Filament Guide Top Honeycomb
 62
256
370
-1
  6
ByLayer
100
AcDbCircle
 10
105.0000000000000142
 20
35.2499745962156013
 30
0.0
 40
13.5000000000000018
100
AcDbArc
 50
79.8674542309601776
 51
156.1794419776694269
  0
LINE
  5
A5
100
AcDbEntity
100
AcDbLine
  8
Filament Guide Top Honeycomb
 62
256
370
-1
  6
ByLayer
 10
107.375
 20
72.2500000000000284
 30
0.0
 11
107.375
 21
48.5394205967078776
 31
0.0
  0
LINE
  5
A6
100
AcDbEntity
100
AcDbLine
  8
Filament Guide Top Honeycomb
 62
256
370
-1
  6
ByLayer
 10
107.375
 20
72.2500000000000284
 30
0.0
 11
96.4492247596126049
 21
72.2500000000000142
 31
0.0
  0
LINE
  5
A7
100
AcDbEntity
100
AcDbLine
  8
Filament Guide Top Honeycomb
 62
256
370
-1
  6
ByLayer
 10
114.625
 20
72.2500000000000142
 30
0.0
 11
145.7007752403875429
 21
72.2500000000000284
 31
0.0
  0
LINE
  5
A8
100
AcDbEntity
100
AcDbLine
  8
Filament Guide Top Honeycomb
 62
256
370
-1
  6
ByLayer
 10
114.625
 20
72.2500000000000142
 30
0.0
 11
114.625
 21
56.3268428408101585
 31
0.0
  0
ARC
  5
A9
100
AcDbEntity
  8
Filament Guide Top Honeycomb
 62
256
370
-1
  6
ByLayer
100
AcDbCircle
 10
131.5
 20
35.2499745962155799
 30
0.0
 40
26.9999999999999964
100
AcDbArc
 50
90.0
 51
128.6821874534894619
  0
ARC
  5
AA
100
AcDbEntity
  8
Filament Guide Top Honeycomb
 62
256
370
-1
  6
ByLayer
100
AcDbCircle
 10
105.0000000000000142
 20
35.2499745962156013
 30
0.0
 40
13.5000000000000018
100
AcDbArc
 50
203.8205580223305731
 51
280.1325457690397798
  0
LINE
  5
AB
100
AcDbEntity
100
AcDbLine
  8
Filament Guide Top Honeycomb
 62
256
370
-1
  6
ByLayer
 10
107.3749999999999858
 20
21.9605285957233285
 30
0.0
 11
107.3749999999999716
 21
7.7500000000000213
 31
0.0
  0
LINE
  5
AC
100
AcDbEntity
100
AcDbLine
  8
Filament Guide Top Honeycomb
 62
256
370
-1
  6
ByLayer
 10
105.0750000000000028
 20
7.7500000000000213
 30
0.0
 11
107.3749999999999716
 21
7.7500000000000213
 31
0.0
  0
MTEXT
  5
AD
100
AcDbEntity
100
AcDbMText
  8
Filament Guide Top Text
 62
256
370
-1
  6
ByLayer
 10
120.9999999999999858
 20
74.7500000000000284
 30
0.0
 40
2.0
 41
100.0
 71
5
 72
2
  1
Filament\~Guide\~Top
  7
standard
 50
0.0
 73
1
 44
1.0
  0
MTEXT
  5
AE
100
AcDbEntity
100
AcDbMText
  8
Idler Wheel Text
 62
256
370
-1
  6
ByLayer
 10
134.0
 20
20.7500000000000426
 30
0.0
 40
3.0
 41
100.0
 71
5
 72
2
  1
Wheel
  7
standard
 50
0.0
 73
1
 44
1.0
  0
MTEXT
  5
AF
100
AcDbEntity
100
AcDbMText
  8
Idler Wheel Text
 62
256
370
-1
  6
ByLayer
 10
134.0
 20
49.7500000000000426
 30
0.0
 40
3.0
 41
100.0
 71
5
 72
2
  1
Idler
  7
standard
 50
0.0
 73
1
 44
1.0
  0
CIRCLE
  5
B0
100
AcDbEntity
100
AcDbCircle
  8
Idler Wheel
 62
256
370
-1
  6
ByLayer
 10
133.5
 20
35.2499745962156084
 30
0.0
 40
10.9499999999999993
  0
CIRCLE
  5
B1
100
AcDbEntity
100
AcDbCircle
  8
Idler Wheel
 62
256
370
-1
  6
ByLayer
 10
133.5
 20
35.2499745962156084
 30
0.0
 40
20.5
  0
LINE
  5
B2
100
AcDbEntity
100
AcDbLine
  8
Retainer Plate
 62
256
370
-1
  6
ByLayer
 10
240.0
 20
72.25
 30
0.0
 11
240.0
 21
2.7499999999999858
 31
0.0
  0
ARC
  5
B3
100
AcDbEntity
  8
Retainer Plate
 62
256
370
-1
  6
ByLayer
100
AcDbCircle
 10
235.0
 20
72.25
 30
0.0
 40
5.0
100
AcDbArc
 50
0.0
 51
90.0
  0
LINE
  5
B4
100
AcDbEntity
100
AcDbLine
  8
Retainer Plate
 62
256
370
-1
  6
ByLayer
 10
240.0
 20
2.7499999999999858
 30
0.0
 11
160.0
 21
2.7500000000000213
 31
0.0
  0
LINE
  5
B5
100
AcDbEntity
100
AcDbLine
  8
Retainer Plate
 62
256
370
-1
  6
ByLayer
 10
160.0
 20
2.7500000000000213
 30
0.0
 11
160.0
 21
72.2499999999999716
 31
0.0
  0
LINE
  5
B6
100
AcDbEntity
100
AcDbLine
  8
Retainer Plate
 62
256
370
-1
  6
ByLayer
 10
165.0
 20
77.2499999999999858
 30
0.0
 11
235.0
 21
77.25
 31
0.0
  0
ARC
  5
B7
100
AcDbEntity
  8
Retainer Plate
 62
256
370
-1
  6
ByLayer
100
AcDbCircle
 10
165.0
 20
72.2499999999999858
 30
0.0
 40
5.0
100
AcDbArc
 50
90.0
 51
180.0
  0
ARC
  5
B8
100
AcDbEntity
  8
Retainer Plate
 62
256
370
-1
  6
ByLayer
100
AcDbCircle
 10
211.5
 20
35.2499745962155586
 30
0.0
 40
4.0
100
AcDbArc
 50
90.0
 51
270.0
  0
CIRCLE
  5
B9
100
AcDbEntity
100
AcDbCircle
  8
Retainer Plate
 62
256
370
-1
  6
ByLayer
 10
185.0
 20
35.2499745962155728
 30
0.0
 40
3.1000000000000001
  0
CIRCLE
  5
BA
100
AcDbEntity
100
AcDbCircle
  8
Retainer Plate
 62
256
370
-1
  6
ByLayer
 10
165.0
 20
43.9899745962155748
 30
0.0
 40
1.45
  0
CIRCLE
  5
BB
100
AcDbEntity
100
AcDbCircle
  8
Retainer Plate
 62
256
370
-1
  6
ByLayer
 10
165.0
 20
26.5099745962155708
 30
0.0
 40
1.45
  0
MTEXT
  5
BC
100
AcDbEntity
100
AcDbMText
  8
Retainer Plate Text
 62
256
370
-1
  6
ByLayer
 10
176.0
 20
57.1500000000000057
 30
0.0
 40
2.0
 41
100.0
 71
1
 72
2
  1
Retainer\~Plate
  7
standard
 50
0.0
 73
1
 44
1.0
  0
MTEXT
  5
BD
100
AcDbEntity
100
AcDbMText
  8
Retainer Plate Text
 62
256
370
-1
  6
ByLayer
 10
202.5
 20
67.1500000000000057
 30
0.0
 40
3.0
 41
100.0
 71
5
 72
2
  1
Pinch\~Wheel\~Extruder\~v1.1
  7
standard
 50
0.0
 73
1
 44
1.0
  0
MTEXT
  5
BE
100
AcDbEntity
100
AcDbMText
  8
Retainer Plate Text
 62
256
370
-1
  6
ByLayer
 10
176.0
 20
64.1500000000000057
 30
0.0
 40
2.0
 41
100.0
 71
1
 72
2
  1
make.rrrf.org/pwe-1.1
  7
standard
 50
0.0
 73
1
 44
1.0
  0
LINE
  5
BF
100
AcDbEntity
100
AcDbLine
  8
Retainer Plate
 62
256
370
-1
  6
ByLayer
 10
166.9400440494693498
 20
72.1500000000000057
 30
0.0
 11
168.4700220312875558
 21
69.5
 31
0.0
  0
LINE
  5
C0
100
AcDbEntity
100
AcDbLine
  8
Retainer Plate
 62
256
370
-1
  6
ByLayer
 10
166.9400440494693498
 20
72.1500000000000057
 30
0.0
 11
168.4700220312875558
 21
74.8000000000000256
 31
0.0
  0
LINE
  5
C1
100
AcDbEntity
100
AcDbLine
  8
Retainer Plate
 62
256
370
-1
  6
ByLayer
 10
168.4700220312875558
 20
74.8000000000000256
 30
0.0
 11
171.5299779687124726
 21
74.8000000000000114
 31
0.0
  0
LINE
  5
C2
100
AcDbEntity
100
AcDbLine
  8
Retainer Plate
 62
256
370
-1
  6
ByLayer
 10
171.5299779687124726
 20
74.8000000000000114
 30
0.0
 11
173.0599559505306502
 21
72.1500000000000057
 31
0.0
  0
LINE
  5
C3
100
AcDbEntity
100
AcDbLine
  8
Retainer Plate
 62
256
370
-1
  6
ByLayer
 10
168.4700220312875558
 20
69.5
 30
0.0
 11
171.5299779687124726
 21
69.5
 31
0.0
  0
LINE
  5
C4
100
AcDbEntity
100
AcDbLine
  8
Retainer Plate
 62
256
370
-1
  6
ByLayer
 10
171.5299779687124726
 20
69.5
 30
0.0
 11
173.0599559505306502
 21
72.1500000000000057
 31
0.0
  0
LINE
  5
C5
100
AcDbEntity
100
AcDbLine
  8
Retainer Plate
 62
256
370
-1
  6
ByLayer
 10
229.0900440494693555
 20
72.1500000000000057
 30
0.0
 11
230.6200220312875331
 21
69.5
 31
0.0
  0
LINE
  5
C6
100
AcDbEntity
100
AcDbLine
  8
Retainer Plate
 62
256
370
-1
  6
ByLayer
 10
229.0900440494693555
 20
72.1500000000000057
 30
0.0
 11
230.6200220312875615
 21
74.8000000000000114
 31
0.0
  0
LINE
  5
C7
100
AcDbEntity
100
AcDbLine
  8
Retainer Plate
 62
256
370
-1
  6
ByLayer
 10
230.6200220312875615
 20
74.8000000000000114
 30
0.0
 11
233.6799779687124783
 21
74.8000000000000114
 31
0.0
  0
LINE
  5
C8
100
AcDbEntity
100
AcDbLine
  8
Retainer Plate
 62
256
370
-1
  6
ByLayer
 10
233.6799779687124783
 20
74.8000000000000114
 30
0.0
 11
235.2099559505306559
 21
72.1500000000000057
 31
0.0
  0
LINE
  5
C9
100
AcDbEntity
100
AcDbLine
  8
Retainer Plate
 62
256
370
-1
  6
ByLayer
 10
230.6200220312875331
 20
69.5
 30
0.0
 11
233.6799779687124783
 21
69.5
 31
0.0
  0
LINE
  5
CA
100
AcDbEntity
100
AcDbLine
  8
Retainer Plate
 62
256
370
-1
  6
ByLayer
 10
233.6799779687124783
 20
69.5
 30
0.0
 11
235.2099559505306559
 21
72.1500000000000057
 31
0.0
  0
LINE
  5
CB
100
AcDbEntity
100
AcDbLine
  8
Retainer Plate
 62
256
370
-1
  6
ByLayer
 10
229.0900440494693271
 20
7.7499999999999787
 30
0.0
 11
230.6200220312875615
 21
5.1000000000000014
 31
0.0
  0
LINE
  5
CC
100
AcDbEntity
100
AcDbLine
  8
Retainer Plate
 62
256
370
-1
  6
ByLayer
 10
229.0900440494693271
 20
7.7499999999999787
 30
0.0
 11
230.6200220312875331
 21
10.4000000000000057
 31
0.0
  0
LINE
  5
CD
100
AcDbEntity
100
AcDbLine
  8
Retainer Plate
 62
256
370
-1
  6
ByLayer
 10
230.6200220312875331
 20
10.4000000000000057
 30
0.0
 11
233.6799779687124499
 21
10.3999999999999808
 31
0.0
  0
LINE
  5
CE
100
AcDbEntity
100
AcDbLine
  8
Retainer Plate
 62
256
370
-1
  6
ByLayer
 10
233.6799779687124499
 20
10.3999999999999808
 30
0.0
 11
235.2099559505306559
 21
7.7499999999999929
 31
0.0
  0
LINE
  5
CF
100
AcDbEntity
100
AcDbLine
  8
Retainer Plate
 62
256
370
-1
  6
ByLayer
 10
230.6200220312875615
 20
5.1000000000000014
 30
0.0
 11
233.6799779687124499
 21
5.099999999999973
 31
0.0
  0
LINE
  5
D0
100
AcDbEntity
100
AcDbLine
  8
Retainer Plate
 62
256
370
-1
  6
ByLayer
 10
233.6799779687124499
 20
5.099999999999973
 30
0.0
 11
235.2099559505306559
 21
7.7499999999999929
 31
0.0
  0
LINE
  5
D1
100
AcDbEntity
100
AcDbLine
  8
Retainer Plate
 62
256
370
-1
  6
ByLayer
 10
166.9400440494693498
 20
7.7500000000000071
 30
0.0
 11
168.4700220312875274
 21
5.1000000000000014
 31
0.0
  0
LINE
  5
D2
100
AcDbEntity
100
AcDbLine
  8
Retainer Plate
 62
256
370
-1
  6
ByLayer
 10
166.9400440494693498
 20
7.7500000000000071
 30
0.0
 11
168.4700220312875274
 21
10.4000000000000128
 31
0.0
  0
LINE
  5
D3
100
AcDbEntity
100
AcDbLine
  8
Retainer Plate
 62
256
370
-1
  6
ByLayer
 10
168.4700220312875274
 20
10.4000000000000128
 30
0.0
 11
171.5299779687124726
 21
10.4000000000000199
 31
0.0
  0
LINE
  5
D4
100
AcDbEntity
100
AcDbLine
  8
Retainer Plate
 62
256
370
-1
  6
ByLayer
 10
171.5299779687124726
 20
10.4000000000000199
 30
0.0
 11
173.0599559505306217
 21
7.7500000000000213
 31
0.0
  0
LINE
  5
D5
100
AcDbEntity
100
AcDbLine
  8
Retainer Plate
 62
256
370
-1
  6
ByLayer
 10
168.4700220312875274
 20
5.1000000000000014
 30
0.0
 11
171.5299779687124442
 21
5.1000000000000156
 31
0.0
  0
LINE
  5
D6
100
AcDbEntity
100
AcDbLine
  8
Retainer Plate
 62
256
370
-1
  6
ByLayer
 10
171.5299779687124442
 20
5.1000000000000156
 30
0.0
 11
173.0599559505306217
 21
7.7500000000000213
 31
0.0
  0
LINE
  5
D7
100
AcDbEntity
100
AcDbLine
  8
Retainer Plate
 62
256
370
-1
  6
ByLayer
 10
211.5
 20
39.2499745962155586
 30
0.0
 11
213.5
 21
39.2499745962155586
 31
0.0
  0
ARC
  5
D8
100
AcDbEntity
  8
Retainer Plate
 62
256
370
-1
  6
ByLayer
100
AcDbCircle
 10
213.5
 20
35.2499745962155586
 30
0.0
 40
4.0
100
AcDbArc
 50
270.0
 51
90.0
  0
LINE
  5
D9
100
AcDbEntity
100
AcDbLine
  8
Retainer Plate
 62
256
370
-1
  6
ByLayer
 10
213.5
 20
31.2499745962155693
 30
0.0
 11
211.5
 21
31.2499745962155657
 31
0.0
  0
CIRCLE
  5
DA
100
AcDbEntity
100
AcDbCircle
  8
Spacer Plate
 62
256
370
-1
  6
ByLayer
 10
250.0
 20
7.7500000000000071
 30
0.0
 40
1.45
  0
CIRCLE
  5
DB
100
AcDbEntity
100
AcDbCircle
  8
Spacer Plate
 62
256
370
-1
  6
ByLayer
 10
250.0
 20
72.1500000000000199
 30
0.0
 40
1.45
  0
CIRCLE
  5
DC
100
AcDbEntity
100
AcDbCircle
  8
Spacer Plate
 62
256
370
-1
  6
ByLayer
 10
312.1499999999999773
 20
72.1500000000000057
 30
0.0
 40
1.45
  0
CIRCLE
  5
DD
100
AcDbEntity
100
AcDbCircle
  8
Spacer Plate
 62
256
370
-1
  6
ByLayer
 10
312.1499999999999773
 20
7.75
 30
0.0
 40
1.45
  0
LINE
  5
DE
100
AcDbEntity
100
AcDbLine
  8
Spacer Plate
 62
256
370
-1
  6
ByLayer
 10
320.0
 20
2.7499999999999858
 30
0.0
 11
320.0
 21
72.25
 31
0.0
  0
ARC
  5
DF
100
AcDbEntity
  8
Spacer Plate
 62
256
370
-1
  6
ByLayer
100
AcDbCircle
 10
315.0
 20
72.25
 30
0.0
 40
5.0
100
AcDbArc
 50
0.0
 51
90.0
  0
LINE
  5
E0
100
AcDbEntity
100
AcDbLine
  8
Spacer Plate
 62
256
370
-1
  6
ByLayer
 10
240.0
 20
2.7500000000000213
 30
0.0
 11
320.0
 21
2.7499999999999858
 31
0.0
  0
LINE
  5
E1
100
AcDbEntity
100
AcDbLine
  8
Spacer Plate
 62
256
370
-1
  6
ByLayer
 10
240.0
 20
72.25
 30
0.0
 11
240.0
 21
2.7500000000000213
 31
0.0
  0
LINE
  5
E2
100
AcDbEntity
100
AcDbLine
  8
Spacer Plate
 62
256
370
-1
  6
ByLayer
 10
315.0
 20
77.25
 30
0.0
 11
245.0
 21
77.25
 31
0.0
  0
ARC
  5
E3
100
AcDbEntity
  8
Spacer Plate
 62
256
370
-1
  6
ByLayer
100
AcDbCircle
 10
245.0
 20
72.25
 30
0.0
 40
5.0
100
AcDbArc
 50
90.0
 51
180.0
  0
CIRCLE
  5
E4
100
AcDbEntity
100
AcDbCircle
  8
Spacer Plate
 62
256
370
-1
  6
ByLayer
 10
257.5
 20
48.4999745962155799
 30
0.0
 40
3.0
  0
CIRCLE
  5
E5
100
AcDbEntity
100
AcDbCircle
  8
Spacer Plate
 62
256
370
-1
  6
ByLayer
 10
249.75
 20
35.2499745962155799
 30
0.0
 40
3.0
  0
CIRCLE
  5
E6
100
AcDbEntity
100
AcDbCircle
  8
Spacer Plate
 62
256
370
-1
  6
ByLayer
 10
257.5
 20
21.9999745962155835
 30
0.0
 40
3.0
  0
CIRCLE
  5
E7
100
AcDbEntity
100
AcDbCircle
  8
Spacer Plate
 62
256
370
-1
  6
ByLayer
 10
280.25
 20
35.2499745962155799
 30
0.0
 40
3.0
  0
CIRCLE
  5
E8
100
AcDbEntity
100
AcDbCircle
  8
Spacer Plate
 62
256
370
-1
  6
ByLayer
 10
265.0
 20
35.2499745962155728
 30
0.0
 40
8.3000000000000007
  0
ARC
  5
E9
100
AcDbEntity
  8
Spacer Plate
 62
256
370
-1
  6
ByLayer
100
AcDbCircle
 10
291.5
 20
35.2499745962155586
 30
0.0
 40
4.0
100
AcDbArc
 50
90.0
 51
270.0
  0
LINE
  5
EA
100
AcDbEntity
100
AcDbLine
  8
Spacer Plate
 62
256
370
-1
  6
ByLayer
 10
291.5
 20
39.2499745962155586
 30
0.0
 11
293.5
 21
39.2499745962155799
 31
0.0
  0
ARC
  5
EB
100
AcDbEntity
  8
Spacer Plate
 62
256
370
-1
  6
ByLayer
100
AcDbCircle
 10
293.5
 20
35.2499745962155586
 30
0.0
 40
4.0
100
AcDbArc
 50
270.0
 51
90.0
  0
LINE
  5
EC
100
AcDbEntity
100
AcDbLine
  8
Spacer Plate
 62
256
370
-1
  6
ByLayer
 10
293.5
 20
31.2499745962155728
 30
0.0
 11
291.5
 21
31.2499745962155693
 31
0.0
  0
ARC
  5
ED
100
AcDbEntity
  8
Spacer Plate Honeycomb
 62
256
370
-1
  6
ByLayer
100
AcDbCircle
 10
249.75
 20
35.2499745962155799
 30
0.0
 40
8.0000000000000018
100
AcDbArc
 50
76.0629710207463887
 51
126.4235736423311067
  0
LINE
  5
EE
100
AcDbEntity
100
AcDbLine
  8
Spacer Plate Honeycomb
 62
256
370
-1
  6
ByLayer
 10
245.0
 20
68.0753834536241413
 30
0.0
 11
245.0
 21
41.6871711910074936
 31
0.0
  0
ARC
  5
EF
100
AcDbEntity
  8
Spacer Plate Honeycomb
 62
256
370
-1
  6
ByLayer
100
AcDbCircle
 10
265.0
 20
35.2499745962155728
 30
0.0
 40
13.3000000000000007
100
AcDbArc
 50
31.6136183389583323
 51
87.8459598095189875
  0
ARC
  5
F0
100
AcDbEntity
  8
Spacer Plate Honeycomb
 62
256
370
-1
  6
ByLayer
100
AcDbCircle
 10
280.25
 20
35.2499745962155799
 30
0.0
 40
7.9999999999999964
100
AcDbArc
 50
106.3647806991003506
 51
119.3708905814577435
  0
ARC
  5
F1
100
AcDbEntity
  8
Spacer Plate Honeycomb
 62
256
370
-1
  6
ByLayer
100
AcDbCircle
 10
280.25
 20
35.2499745962155799
 30
0.0
 40
8.0000000000000018
100
AcDbArc
 50
52.5058404321286503
 51
72.3123681123015984
  0
ARC
  5
F2
100
AcDbEntity
  8
Spacer Plate Honeycomb
 62
256
370
-1
  6
ByLayer
100
AcDbCircle
 10
291.5
 20
35.2499745962155586
 30
0.0
 40
9.0
100
AcDbArc
 50
90.0
 51
135.149598685224305
  0
LINE
  5
F3
100
AcDbEntity
100
AcDbLine
  8
Spacer Plate Honeycomb
 62
256
370
-1
  6
ByLayer
 10
256.4492247596126617
 20
72.25
 30
0.0
 11
277.9959862385326232
 21
72.25
 31
0.0
  0
LINE
  5
F4
100
AcDbEntity
100
AcDbLine
  8
Spacer Plate Honeycomb
 62
256
370
-1
  6
ByLayer
 10
277.9959862385326232
 20
72.25
 30
0.0
 11
277.9959862385326232
 21
42.9258733685493965
 31
0.0
  0
LINE
  5
F5
100
AcDbEntity
100
AcDbLine
  8
Spacer Plate Honeycomb
 62
256
370
-1
  6
ByLayer
 10
282.6806192660556007
 20
42.8717913077010309
 30
0.0
 11
282.6806192660556007
 21
72.25
 31
0.0
  0
LINE
  5
F6
100
AcDbEntity
100
AcDbLine
  8
Spacer Plate Honeycomb
 62
256
370
-1
  6
ByLayer
 10
282.6806192660556007
 20
72.25
 30
0.0
 11
305.7007752403874292
 21
72.25
 31
0.0
  0
LINE
  5
F7
100
AcDbEntity
100
AcDbLine
  8
Spacer Plate Honeycomb
 62
256
370
-1
  6
ByLayer
 10
315.0
 20
66.3638095434043009
 30
0.0
 11
315.0
 21
37.4999999999999929
 31
0.0
  0
LINE
  5
F8
100
AcDbEntity
100
AcDbLine
  8
Spacer Plate Honeycomb
 62
256
370
-1
  6
ByLayer
 10
315.0
 20
37.4999999999999929
 30
0.0
 11
302.2142059696982415
 21
37.5
 31
0.0
  0
LINE
  5
F9
100
AcDbEntity
100
AcDbLine
  8
Spacer Plate Honeycomb
 62
256
370
-1
  6
ByLayer
 10
291.5
 20
44.2499745962155728
 30
0.0
 11
293.5
 21
44.2499745962155728
 31
0.0
  0
LINE
  5
FA
100
AcDbEntity
100
AcDbLine
  8
Spacer Plate Honeycomb
 62
256
370
-1
  6
ByLayer
 10
293.5
 20
26.2499745962155657
 30
0.0
 11
291.5
 21
26.2499745962155657
 31
0.0
  0
LINE
  5
FB
100
AcDbEntity
100
AcDbLine
  8
Spacer Plate Honeycomb
 62
256
370
-1
  6
ByLayer
 10
302.1897696517052623
 20
32.9073471396398318
 30
0.0
 11
315.0
 21
32.9073471396398389
 31
0.0
  0
LINE
  5
FC
100
AcDbEntity
100
AcDbLine
  8
Spacer Plate Honeycomb
 62
256
370
-1
  6
ByLayer
 10
315.0
 20
32.9073471396398389
 30
0.0
 11
315.0
 21
13.5361904565957651
 31
0.0
  0
LINE
  5
FD
100
AcDbEntity
100
AcDbLine
  8
Spacer Plate Honeycomb
 62
256
370
-1
  6
ByLayer
 10
305.7000000000000455
 20
7.7499999999999858
 30
0.0
 11
282.6806192660556007
 21
7.75
 31
0.0
  0
LINE
  5
FE
100
AcDbEntity
100
AcDbLine
  8
Spacer Plate Honeycomb
 62
256
370
-1
  6
ByLayer
 10
282.6806192660556007
 20
7.75
 30
0.0
 11
282.6806192660556007
 21
27.628157884730129
 31
0.0
  0
LINE
  5
FF
100
AcDbEntity
100
AcDbLine
  8
Spacer Plate Honeycomb
 62
256
370
-1
  6
ByLayer
 10
277.9959862385326232
 20
27.5740758238817634
 30
0.0
 11
277.9959862385326232
 21
7.7500000000000071
 31
0.0
  0
LINE
  5
100
100
AcDbEntity
100
AcDbLine
  8
Spacer Plate Honeycomb
 62
256
370
-1
  6
ByLayer
 10
277.9959862385326232
 20
7.7500000000000071
 30
0.0
 11
256.4499999999999886
 21
7.7499999999999929
 31
0.0
  0
LINE
  5
101
100
AcDbEntity
100
AcDbLine
  8
Spacer Plate Honeycomb
 62
256
370
-1
  6
ByLayer
 10
245.0
 20
28.8127780014237089
 30
0.0
 11
245.0
 21
11.8246165463759922
 31
0.0
  0
ARC
  5
102
100
AcDbEntity
  8
Spacer Plate Honeycomb
 62
256
370
-1
  6
ByLayer
100
AcDbCircle
 10
293.5
 20
35.2499745962155586
 30
0.0
 40
9.0000000000000071
100
AcDbArc
 50
14.4776792153860931
 51
90.0
  0
ARC
  5
103
100
AcDbEntity
  8
Spacer Plate Honeycomb
 62
256
370
-1
  6
ByLayer
100
AcDbCircle
 10
293.5
 20
35.2499745962155586
 30
0.0
 40
9.0
100
AcDbArc
 50
270.0
 51
344.9126144914360452
  0
ARC
  5
104
100
AcDbEntity
  8
Spacer Plate Honeycomb
 62
256
370
-1
  6
ByLayer
100
AcDbCircle
 10
312.1499999999999773
 20
72.1500000000000057
 30
0.0
 40
6.4499999999999913
100
AcDbArc
 50
179.1116577499624611
 51
296.2226465049216131
  0
ARC
  5
105
100
AcDbEntity
  8
Spacer Plate Honeycomb
 62
256
370
-1
  6
ByLayer
100
AcDbCircle
 10
312.1499999999999773
 20
7.75
 30
0.0
 40
6.4499999999999966
100
AcDbArc
 50
63.7773534950783656
 51
180.0
  0
ARC
  5
106
100
AcDbEntity
  8
Spacer Plate Honeycomb
 62
256
370
-1
  6
ByLayer
100
AcDbCircle
 10
291.5
 20
35.2499745962155586
 30
0.0
 40
8.9999999999999929
100
AcDbArc
 50
224.8504013147754961
 51
270.0
  0
ARC
  5
107
100
AcDbEntity
  8
Spacer Plate Honeycomb
 62
256
370
-1
  6
ByLayer
100
AcDbCircle
 10
280.25
 20
35.2499745962155799
 30
0.0
 40
7.9999999999999956
100
AcDbArc
 50
287.6876318876983305
 51
307.4941595678711224
  0
ARC
  5
108
100
AcDbEntity
  8
Spacer Plate Honeycomb
 62
256
370
-1
  6
ByLayer
100
AcDbCircle
 10
280.25
 20
35.2499745962155799
 30
0.0
 40
8.0000000000000018
100
AcDbArc
 50
240.6291094185424413
 51
253.6352193008996494
  0
ARC
  5
109
100
AcDbEntity
  8
Spacer Plate Honeycomb
 62
256
370
-1
  6
ByLayer
100
AcDbCircle
 10
265.0
 20
35.2499745962155728
 30
0.0
 40
13.3000000000000025
100
AcDbArc
 50
272.1540401904807709
 51
328.386381661041753
  0
ARC
  5
10A
100
AcDbEntity
  8
Spacer Plate Honeycomb
 62
256
370
-1
  6
ByLayer
100
AcDbCircle
 10
249.75
 20
35.2499745962155799
 30
0.0
 40
8.0000000000000089
100
AcDbArc
 50
233.5764263576688222
 51
283.9370289792530002
  0
ARC
  5
10B
100
AcDbEntity
  8
Spacer Plate Honeycomb
 62
256
370
-1
  6
ByLayer
100
AcDbCircle
 10
250.0
 20
7.7500000000000071
 30
0.0
 40
6.4499999999999984
100
AcDbArc
 50
89.9591649907429769
 51
140.8226063135749371
  0
ARC
  5
10C
100
AcDbEntity
  8
Spacer Plate Honeycomb
 62
256
370
-1
  6
ByLayer
100
AcDbCircle
 10
250.0
 20
7.7500000000000071
 30
0.0
 40
6.4500000000000028
100
AcDbArc
 50
0.0
 51
34.5236696115239283
  0
ARC
  5
10D
100
AcDbEntity
  8
Spacer Plate Honeycomb
 62
256
370
-1
  6
ByLayer
100
AcDbCircle
 10
257.5
 20
21.9999745962155835
 30
0.0
 40
7.9999999999999982
100
AcDbArc
 50
136.7101847458470729
 51
220.2171044640912498
  0
ARC
  5
10E
100
AcDbEntity
  8
Spacer Plate Honeycomb
 62
256
370
-1
  6
ByLayer
100
AcDbCircle
 10
257.5
 20
21.9999745962155835
 30
0.0
 40
7.9999999999999991
100
AcDbArc
 50
264.2657301381755701
 51
359.7092079423226778
  0
ARC
  5
10F
100
AcDbEntity
  8
Spacer Plate Honeycomb
 62
256
370
-1
  6
ByLayer
100
AcDbCircle
 10
250.0
 20
72.1500000000000199
 30
0.0
 40
6.4499999999999993
100
AcDbArc
 50
219.1773936864241819
 51
259.8773436619745212
  0
ARC
  5
110
100
AcDbEntity
  8
Spacer Plate Honeycomb
 62
256
370
-1
  6
ByLayer
100
AcDbCircle
 10
250.0
 20
72.1500000000000199
 30
0.0
 40
6.4500000000000082
100
AcDbArc
 50
315.3128390411935129
 51
0.888342250037548
  0
ARC
  5
111
100
AcDbEntity
  8
Spacer Plate Honeycomb
 62
256
370
-1
  6
ByLayer
100
AcDbCircle
 10
257.5
 20
48.4999745962155799
 30
0.0
 40
7.9999999999999964
100
AcDbArc
 50
129.6194041886261914
 51
223.2898152541533534
  0
ARC
  5
112
100
AcDbEntity
  8
Spacer Plate Honeycomb
 62
256
370
-1
  6
ByLayer
100
AcDbCircle
 10
257.5
 20
48.4999745962155799
 30
0.0
 40
8.0000000000000018
100
AcDbArc
 50
0.2907920576760297
 51
85.5707785145419422
  0
LINE
  5
113
100
AcDbEntity
100
AcDbLine
  8
Spacer Plate Honeycomb
 62
256
370
-1
  6
ByLayer
 10
248.8663737213450418
 20
65.8004022599583038
 30
0.0
 11
252.3985207953435008
 21
54.6623531892960912
 31
0.0
  0
LINE
  5
114
100
AcDbEntity
100
AcDbLine
  8
Spacer Plate Honeycomb
 62
256
370
-1
  6
ByLayer
 10
254.5856731350529003
 20
67.614131626859745
 30
0.0
 11
258.1178202090513878
 21
56.4760825561975537
 31
0.0
  0
LINE
  5
115
100
AcDbEntity
100
AcDbLine
  8
Spacer Plate Honeycomb
 62
256
370
-1
  6
ByLayer
 10
251.3911735469926043
 20
16.8344892011111362
 30
0.0
 11
250.0045969491932567
 21
14.1999983618647718
 31
0.0
  0
LINE
  5
116
100
AcDbEntity
100
AcDbLine
  8
Spacer Plate Honeycomb
 62
256
370
-1
  6
ByLayer
 10
256.7006808280529526
 20
14.0400067029789604
 30
0.0
 11
255.3141042302536334
 21
11.4055158637325889
 31
0.0
  0
MTEXT
  5
117
100
AcDbEntity
100
AcDbMText
  8
Spacer Plate Text
 62
256
370
-1
  6
ByLayer
 10
281.0
 20
74.75
 30
0.0
 40
3.0
 41
100.0
 71
5
 72
2
  1
Spacer\~Plate
  7
standard
 50
0.0
 73
1
 44
1.0
  0
ENDSEC
  0
SECTION
  2
OBJECTS
  0
DICTIONARY
  5
C
100
AcDbDictionary
280
0
281
1
  3
ACAD_GROUP
350
D
  3
ACAD_LAYOUT
350
1A
  3
ACAD_MLINESTYLE
350
17
  3
ACAD_PLOTSETTINGS
350
19
  3
ACAD_PLOTSTYLENAME
350
E
  3
AcDbVariableDictionary
350
118
  0
DICTIONARY
  5
D
100
AcDbDictionary
280
0
281
1
  0
ACDBDICTIONARYWDFLT
  5
E
100
AcDbDictionary
281
1
  3
Normal
350
F
100
AcDbDictionaryWithDefault
340
F
  0
ACDBPLACEHOLDER
  5
F
  0
DICTIONARY
  5
17
100
AcDbDictionary
280
0
281
1
  3
Standard
350
18
  0
MLINESTYLE
  5
18
100
AcDbMlineStyle
  2
STANDARD
 70
0
  3

 62
256
 51
90.0
 52
90.0
 71
2
 49
0.5
 62
256
  6
BYLAYER
 49
-0.5
 62
256
  6
BYLAYER
  0
DICTIONARY
  5
19
100
AcDbDictionary
280
0
281
1
  0
DICTIONARY
  5
1A
100
AcDbDictionary
281
1
  3
Layout1
350
1E
  3
Layout2
350
26
  3
Model
350
22
  0
LAYOUT
  5
1E
100
AcDbPlotSettings
  1

  2
C:\Program Files\AutoCAD 2002\plotters\DWF ePlot (optimized for plotting).pc3
  4

  6

 40
0.0
 41
0.0
 42
0.0
 43
0.0
 44
0.0
 45
0.0
 46
0.0
 47
0.0
 48
0.0
 49
0.0
140
0.0
141
0.0
142
1.0
143
1.0
 70
688
 72
0
 73
0
 74
5
  7

 75
16
147
1.0
148
0.0
149
0.0
100
AcDbLayout
  1
Layout1
 70
1
 71
1
 10
0.0
 20
0.0
 11
420.0
 21
297.0
 12
0.0
 22
0.0
 32
0.0
 14
100000000000000000000.0
 24
100000000000000000000.0
 34
100000000000000000000.0
 15
-100000000000000000000.0
 25
-100000000000000000000.0
 35
-100000000000000000000.0
146
0.0
 13
0.0
 23
0.0
 33
0.0
 16
1.0
 26
0.0
 36
0.0
 17
0.0
 27
1.0
 37
0.0
 76
0
330
1B
  0
LAYOUT
  5
22
100
AcDbPlotSettings
  1

  2
C:\Program Files\AutoCAD 2002\plotters\DWF ePlot (optimized for plotting).pc3
  4

  6

 40
0.0
 41
0.0
 42
0.0
 43
0.0
 44
0.0
 45
0.0
 46
0.0
 47
0.0
 48
0.0
 49
0.0
140
0.0
141
0.0
142
1.0
143
1.0
 70
1712
 72
0
 73
0
 74
0
  7

 75
0
147
1.0
148
0.0
149
0.0
100
AcDbLayout
  1
Model
 70
1
 71
0
 10
0.0
 20
0.0
 11
12.0
 21
9.0
 12
0.0
 22
0.0
 32
0.0
 14
0.0
 24
0.0
 34
0.0
 15
0.0
 25
0.0
 35
0.0
146
0.0
 13
0.0
 23
0.0
 33
0.0
 16
1.0
 26
0.0
 36
0.0
 17
0.0
 27
1.0
 37
0.0
 76
0
330
1F
  0
LAYOUT
  5
26
100
AcDbPlotSettings
  1

  2
C:\Program Files\AutoCAD 2002\plotters\DWF ePlot (optimized for plotting).pc3
  4

  6

 40
0.0
 41
0.0
 42
0.0
 43
0.0
 44
0.0
 45
0.0
 46
0.0
 47
0.0
 48
0.0
 49
0.0
140
0.0
141
0.0
142
1.0
143
1.0
 70
688
 72
0
 73
0
 74
5
  7

 75
16
147
1.0
148
0.0
149
0.0
100
AcDbLayout
  1
Layout2
 70
1
 71
2
 10
0.0
 20
0.0
 11
12.0
 21
9.0
 12
0.0
 22
0.0
 32
0.0
 14
0.0
 24
0.0
 34
0.0
 15
0.0
 25
0.0
 35
0.0
146
0.0
 13
0.0
 23
0.0
 33
0.0
 16
1.0
 26
0.0
 36
0.0
 17
0.0
 27
1.0
 37
0.0
 76
0
330
23
  0
DICTIONARY
  5
118
100
AcDbDictionary
281
1
  3
DIMASSOC
350
11A
  3
HIDETEXT
350
119
  0
DICTIONARYVAR
  5
119
100
DictionaryVariables
280
0
  1
2
  0
DICTIONARYVAR
  5
11A
100
DictionaryVariables
280
0
  1
1
  0
ENDSEC
  0
EOF
