999
dxflib 2.2.0.0
  0
SECTION
  2
HEADER
  9
$ACADVER
  1
AC1015
  9
$HANDSEED
  5
FFFF
  9
$DIMASZ
 40
2.5
  9
$PLIMMIN
 10
0.0
 20
0.0
  9
$DIMEXE
 40
1.25
  9
$DIMGAP
 40
0.625
  9
$PLIMMAX
 10
210.0
 20
297.0
  9
$INSUNITS
 70
4
  9
$DIMSTYLE
  2
Standard
  9
$CLAYER
  8
0
  9
$DIMEXO
 40
0.625
  9
$DIMTXT
 40
2.5
  9
$CLAYER
  8
0
  0
ENDSEC
  0
SECTION
  2
TABLES
  0
TABLE
  2
VPORT
  5
8
100
AcDbSymbolTable
 70
1
  0
VPORT
  5
30
100
AcDbSymbolTableRecord
100
AcDbViewportTableRecord
  2
*Active
 70
0
 10
0.0
 20
0.0
 11
1.0
 21
1.0
 12
286.3055555555554861
 22
148.5
 13
0.0
 23
0.0
 14
10.0
 24
10.0
 15
10.0
 25
10.0
 16
0.0
 26
0.0
 36
1.0
 17
0.0
 27
0.0
 37
0.0
 40
297.0
 41
1.92798353909465
 42
50.0
 43
0.0
 44
0.0
 50
0.0
 51
0.0
 71
0
 72
100
 73
1
 74
3
 75
1
 76
1
 77
0
 78
0
281
0
 65
1
110
0.0
120
0.0
130
0.0
111
1.0
121
0.0
131
0.0
112
0.0
122
1.0
132
0.0
 79
0
146
0.0
  0
ENDTAB
  0
TABLE
  2
LTYPE
  5
5
100
AcDbSymbolTable
 70
21
  0
LTYPE
  5
14
100
AcDbSymbolTableRecord
100
AcDbLinetypeTableRecord
  2
ByBlock
 70
0
  3

 72
65
 73
0
 40
0.0
  0
LTYPE
  5
15
100
AcDbSymbolTableRecord
100
AcDbLinetypeTableRecord
  2
ByLayer
 70
0
  3

 72
65
 73
0
 40
0.0
  0
LTYPE
  5
16
100
AcDbSymbolTableRecord
100
AcDbLinetypeTableRecord
  2
CONTINUOUS
 70
0
  3
Solid line
 72
65
 73
0
 40
0.0
  0
LTYPE
  5
31
100
AcDbSymbolTableRecord
100
AcDbLinetypeTableRecord
  2
DOT
 70
0
  3
Dot . . . . . . . . . . . . . . . . . . . . . .
 72
65
 73
2
 40
6.3499999999999996
 49
0.0
 74
0
 49
-6.3499999999999996
 74
0
  0
LTYPE
  5
32
100
AcDbSymbolTableRecord
100
AcDbLinetypeTableRecord
  2
DOT2
 70
0
  3
Dot (.5x) .....................................
 72
65
 73
2
 40
3.1749999999999998
 49
0.0
 74
0
 49
-3.1749999999999998
 74
0
  0
LTYPE
  5
33
100
AcDbSymbolTableRecord
100
AcDbLinetypeTableRecord
  2
DOTX2
 70
0
  3
Dot (2x) .  .  .  .  .  .  .  .  .  .  .  .  .
 72
65
 73
2
 40
12.6999999999999993
 49
0.0
 74
0
 49
-12.6999999999999993
 74
0
  0
LTYPE
  5
34
100
AcDbSymbolTableRecord
100
AcDbLinetypeTableRecord
  2
DASHED
 70
0
  3
Dashed __ __ __ __ __ __ __ __ __ __ __ __ __ _
 72
65
 73
2
 40
19.0500000000000007
 49
12.6999999999999993
 74
0
 49
-6.3499999999999996
 74
0
  0
LTYPE
  5
35
100
AcDbSymbolTableRecord
100
AcDbLinetypeTableRecord
  2
DASHED2
 70
0
  3
Dashed (.5x) _ _ _ _ _ _ _ _ _ _ _ _ _ _ _ _ _
 72
65
 73
2
 40
9.5250000000000004
 49
6.3499999999999996
 74
0
 49
-3.1749999999999998
 74
0
  0
LTYPE
  5
36
100
AcDbSymbolTableRecord
100
AcDbLinetypeTableRecord
  2
DASHEDX2
 70
0
  3
Dashed (2x) ____  ____  ____  ____  ____  ___
 72
65
 73
2
 40
38.1000000000000014
 49
25.3999999999999986
 74
0
 49
-12.6999999999999993
 74
0
  0
LTYPE
  5
37
100
AcDbSymbolTableRecord
100
AcDbLinetypeTableRecord
  2
DASHDOT
 70
0
  3
Dash dot __ . __ . __ . __ . __ . __ . __ . __
 72
65
 73
4
 40
25.3999999999999986
 49
12.6999999999999993
 74
0
 49
-6.3499999999999996
 74
0
 49
0.0
 74
0
 49
-6.3499999999999996
 74
0
  0
LTYPE
  5
38
100
AcDbSymbolTableRecord
100
AcDbLinetypeTableRecord
  2
DASHDOT2
 70
0
  3
Dash dot (.5x) _._._._._._._._._._._._._._._.
 72
65
 73
4
 40
12.6999999999999993
 49
6.3499999999999996
 74
0
 49
-3.1749999999999998
 74
0
 49
0.0
 74
0
 49
-3.1749999999999998
 74
0
  0
LTYPE
  5
39
100
AcDbSymbolTableRecord
100
AcDbLinetypeTableRecord
  2
DASHDOTX2
 70
0
  3
Dash dot (2x) ____  .  ____  .  ____  .  ___
 72
65
 73
4
 40
50.7999999999999972
 49
25.3999999999999986
 74
0
 49
-12.6999999999999993
 74
0
 49
0.0
 74
0
 49
-12.6999999999999993
 74
0
  0
LTYPE
  5
3A
100
AcDbSymbolTableRecord
100
AcDbLinetypeTableRecord
  2
DIVIDE
 70
0
  3
Divide ____ . . ____ . . ____ . . ____ . . ____
 72
65
 73
6
 40
31.75
 49
12.6999999999999993
 74
0
 49
-6.3499999999999996
 74
0
 49
0.0
 74
0
 49
-6.3499999999999996
 74
0
 49
0.0
 74
0
 49
-6.3499999999999996
 74
0
  0
LTYPE
  5
3B
100
AcDbSymbolTableRecord
100
AcDbLinetypeTableRecord
  2
DIVIDE2
 70
0
  3
Divide (.5x) __..__..__..__..__..__..__..__.._
 72
65
 73
6
 40
15.875
 49
6.3499999999999996
 74
0
 49
-3.1749999999999998
 74
0
 49
0.0
 74
0
 49
-3.1749999999999998
 74
0
 49
0.0
 74
0
 49
-3.1749999999999998
 74
0
  0
LTYPE
  5
3C
100
AcDbSymbolTableRecord
100
AcDbLinetypeTableRecord
  2
DIVIDEX2
 70
0
  3
Divide (2x) ________  .  .  ________  .  .  _
 72
65
 73
6
 40
63.5
 49
25.3999999999999986
 74
0
 49
-12.6999999999999993
 74
0
 49
0.0
 74
0
 49
-12.6999999999999993
 74
0
 49
0.0
 74
0
 49
-12.6999999999999993
 74
0
  0
LTYPE
  5
3D
100
AcDbSymbolTableRecord
100
AcDbLinetypeTableRecord
  2
CENTER
 70
0
  3
Center ____ _ ____ _ ____ _ ____ _ ____ _ ____
 72
65
 73
4
 40
50.7999999999999972
 49
31.75
 74
0
 49
-6.3499999999999996
 74
0
 49
6.3499999999999996
 74
0
 49
-6.3499999999999996
 74
0
  0
LTYPE
  5
3E
100
AcDbSymbolTableRecord
100
AcDbLinetypeTableRecord
  2
CENTER2
 70
0
  3
Center (.5x) ___ _ ___ _ ___ _ ___ _ ___ _ ___
 72
65
 73
4
 40
28.5749999999999993
 49
19.0500000000000007
 74
0
 49
-3.1749999999999998
 74
0
 49
3.1749999999999998
 74
0
 49
-3.1749999999999998
 74
0
  0
LTYPE
  5
3F
100
AcDbSymbolTableRecord
100
AcDbLinetypeTableRecord
  2
CENTERX2
 70
0
  3
Center (2x) ________  __  ________  __  _____
 72
65
 73
4
 40
101.5999999999999943
 49
63.5
 74
0
 49
-12.6999999999999993
 74
0
 49
12.6999999999999993
 74
0
 49
-12.6999999999999993
 74
0
  0
LTYPE
  5
40
100
AcDbSymbolTableRecord
100
AcDbLinetypeTableRecord
  2
BORDER
 70
0
  3
Border __ __ . __ __ . __ __ . __ __ . __ __ .
 72
65
 73
6
 40
44.4500000000000028
 49
12.6999999999999993
 74
0
 49
-6.3499999999999996
 74
0
 49
12.6999999999999993
 74
0
 49
-6.3499999999999996
 74
0
 49
0.0
 74
0
 49
-6.3499999999999996
 74
0
  0
LTYPE
  5
41
100
AcDbSymbolTableRecord
100
AcDbLinetypeTableRecord
  2
BORDER2
 70
0
  3
Border (.5x) __.__.__.__.__.__.__.__.__.__.__.
 72
65
 73
6
 40
22.2250000000000014
 49
6.3499999999999996
 74
0
 49
-3.1749999999999998
 74
0
 49
6.3499999999999996
 74
0
 49
-3.1749999999999998
 74
0
 49
0.0
 74
0
 49
-3.1749999999999998
 74
0
  0
LTYPE
  5
42
100
AcDbSymbolTableRecord
100
AcDbLinetypeTableRecord
  2
BORDERX2
 70
0
  3
Border (2x) ____  ____  .  ____  ____  .  ___
 72
65
 73
6
 40
88.9000000000000057
 49
25.3999999999999986
 74
0
 49
-12.6999999999999993
 74
0
 49
25.3999999999999986
 74
0
 49
-12.6999999999999993
 74
0
 49
0.0
 74
0
 49
-12.6999999999999993
 74
0
  0
ENDTAB
  0
TABLE
  2
LAYER
  5
2
100
AcDbSymbolTable
 70
9
  0
LAYER
  5
10
100
AcDbSymbolTableRecord
100
AcDbLayerTableRecord
  2
0
 70
0
 62
7
420
0
  6
CONTINUOUS
370
25
390
F
  0
LAYER
  5
43
100
AcDbSymbolTableRecord
100
AcDbLayerTableRecord
  2
Motor Plate
 70
0
 62
7
420
0
  6
CONTINUOUS
370
0
390
F
  0
LAYER
  5
44
100
AcDbSymbolTableRecord
100
AcDbLayerTableRecord
  2
Motor Plate Text
 70
0
 62
4
420
65535
  6
CONTINUOUS
370
0
390
F
  0
LAYER
  5
45
100
AcDbSymbolTableRecord
100
AcDbLayerTableRecord
  2
Retainer Plate
 70
0
 62
7
420
0
  6
CONTINUOUS
370
0
390
F
  0
LAYER
  5
46
100
AcDbSymbolTableRecord
100
AcDbLayerTableRecord
  2
Retainer Plate Text
 70
0
 62
4
420
65535
  6
CONTINUOUS
370
0
390
F
  0
LAYER
  5
47
100
AcDbSymbolTableRecord
100
AcDbLayerTableRecord
  2
Extruder Mount Plate
 70
0
 62
7
420
16777215
  6
CONTINUOUS
370
0
390
F
  0
LAYER
  5
48
100
AcDbSymbolTableRecord
100
AcDbLayerTableRecord
  2
Extruder Mount Plate Text
 70
0
 62
4
420
65535
  6
CONTINUOUS
370
0
390
F
  0
LAYER
  5
49
100
AcDbSymbolTableRecord
100
AcDbLayerTableRecord
  2
Insulator Retainer
 70
0
 62
7
420
16777215
  6
CONTINUOUS
370
0
390
F
  0
LAYER
  5
4A
100
AcDbSymbolTableRecord
100
AcDbLayerTableRecord
  2
Insulator Retainer Text
 70
0
 62
4
420
65535
  6
CONTINUOUS
370
0
390
F
  0
ENDTAB
  0
TABLE
  2
STYLE
  5
3
100
AcDbSymbolTable
 70
1
  0
STYLE
  5
11
100
AcDbSymbolTableRecord
100
AcDbTextStyleTableRecord
  2
Standard
 70
0
 40
0.0
 41
0.75
 50
0.0
 71
0
 42
2.5
  3
txt
  4

  0
ENDTAB
  0
TABLE
  2
VIEW
  5
6
100
AcDbSymbolTable
 70
0
  0
ENDTAB
  0
TABLE
  2
UCS
  5
7
100
AcDbSymbolTable
 70
0
  0
ENDTAB
  0
TABLE
  2
APPID
  5
9
100
AcDbSymbolTable
 70
1
  0
APPID
  5
12
100
AcDbSymbolTableRecord
100
AcDbRegAppTableRecord
  2
ACAD
 70
0
  0
ENDTAB
  0
TABLE
  2
DIMSTYLE
  5
A
100
AcDbSymbolTable
 70
1
100
AcDbDimStyleTable
 71
0
  0
DIMSTYLE
105
27
100
AcDbSymbolTableRecord
100
AcDbDimStyleTableRecord
  2
Standard
 41
2.5
 42
0.625
 43
3.75
 44
1.25
 70
0
 73
0
 74
0
 77
1
 78
8
140
2.5
141
2.5
143
0.03937007874016
147
0.625
171
3
172
1
271
2
272
2
274
3
278
44
283
0
284
8
340
11
  0
ENDTAB
  0
TABLE
  2
BLOCK_RECORD
  5
1
100
AcDbSymbolTable
 70
1
  0
BLOCK_RECORD
  5
1F
100
AcDbSymbolTableRecord
100
AcDbBlockTableRecord
  2
*Model_Space
340
22
  0
BLOCK_RECORD
  5
1B
100
AcDbSymbolTableRecord
100
AcDbBlockTableRecord
  2
*Paper_Space
340
1E
  0
BLOCK_RECORD
  5
23
100
AcDbSymbolTableRecord
100
AcDbBlockTableRecord
  2
*Paper_Space0
340
26
  0
ENDTAB
  0
ENDSEC
  0
SECTION
  2
BLOCKS
  0
BLOCK
  5
20
100
AcDbEntity
  8
0
100
AcDbBlockBegin
  2
*Model_Space
 70
0
 10
0.0
 20
0.0
 30
0.0
  3
*Model_Space
  1

  0
ENDBLK
  5
21
100
AcDbEntity
  8
0
100
AcDbBlockEnd
  0
BLOCK
  5
1C
100
AcDbEntity
 67
1
  8
0
100
AcDbBlockBegin
  2
*Paper_Space
 70
0
 10
0.0
 20
0.0
 30
0.0
  3
*Paper_Space
  1

  0
ENDBLK
  5
1D
100
AcDbEntity
 67
1
  8
0
100
AcDbBlockEnd
  0
BLOCK
  5
24
100
AcDbEntity
  8
0
100
AcDbBlockBegin
  2
*Paper_Space0
 70
0
 10
0.0
 20
0.0
 30
0.0
  3
*Paper_Space0
  1

  0
ENDBLK
  5
25
100
AcDbEntity
  8
0
100
AcDbBlockEnd
  0
ENDSEC
  0
SECTION
  2
ENTITIES
  0
ARC
  5
4B
100
AcDbEntity
  8
Extruder Mount Plate
 62
256
370
-1
  6
ByLayer
100
AcDbCircle
 10
112.0149082568812133
 20
56.1926605504588395
 30
0.0
 40
25.3999999999999986
100
AcDbArc
 50
39.4639964087814619
 51
312.7381168620651692
  0
ARC
  5
4C
100
AcDbEntity
  8
Extruder Mount Plate
 62
256
370
-1
  6
ByLayer
100
AcDbCircle
 10
136.0390627685388267
 20
30.1926605504588217
 30
0.0
 40
10.0
100
AcDbArc
 50
90.0
 51
132.7381168620651692
  0
CIRCLE
  5
4D
100
AcDbEntity
100
AcDbCircle
  8
Extruder Mount Plate
 62
256
370
-1
  6
ByLayer
 10
99.3899082568812133
 20
56.1926605504588395
 30
0.0
 40
1.45
  0
CIRCLE
  5
4E
100
AcDbEntity
100
AcDbCircle
  8
Extruder Mount Plate
 62
256
370
-1
  6
ByLayer
 10
124.6399082568812133
 20
56.1926605504588323
 30
0.0
 40
1.45
  0
CIRCLE
  5
4F
100
AcDbEntity
100
AcDbCircle
  8
Extruder Mount Plate
 62
256
370
-1
  6
ByLayer
 10
112.0149082568812133
 20
56.1926605504588395
 30
0.0
 40
1.55
  0
CIRCLE
  5
50
100
AcDbEntity
100
AcDbCircle
  8
Extruder Mount Plate
 62
256
370
-1
  6
ByLayer
 10
112.0149082568811991
 20
77.192660550458811
 30
0.0
 40
1.45
  0
CIRCLE
  5
51
100
AcDbEntity
100
AcDbCircle
  8
Extruder Mount Plate
 62
256
370
-1
  6
ByLayer
 10
130.2014417363544112
 20
45.6926605504588252
 30
0.0
 40
1.45
  0
CIRCLE
  5
52
100
AcDbEntity
100
AcDbCircle
  8
Extruder Mount Plate
 62
256
370
-1
  6
ByLayer
 10
93.8283747774080013
 20
45.6926605504588181
 30
0.0
 40
1.45
  0
ARC
  5
53
100
AcDbEntity
  8
Extruder Mount Plate
 62
256
370
-1
  6
ByLayer
100
AcDbCircle
 10
152.0149082568811139
 20
49.9426605504588323
 30
0.0
 40
2.4999999999999858
100
AcDbArc
 50
0.0
 51
180.0
  0
LINE
  5
54
100
AcDbEntity
100
AcDbLine
  8
Extruder Mount Plate
 62
256
370
-1
  6
ByLayer
 10
154.5149082568810286
 20
42.192660550458946
 30
0.0
 11
154.5149082568810002
 21
49.9426605504588323
 31
0.0
  0
LINE
  5
55
100
AcDbEntity
100
AcDbLine
  8
Extruder Mount Plate
 62
256
370
-1
  6
ByLayer
 10
160.0149082568810002
 20
40.1926605504588181
 30
0.0
 11
156.5149082568810002
 21
40.1926605504588181
 31
0.0
  0
LINE
  5
56
100
AcDbEntity
100
AcDbLine
  8
Extruder Mount Plate
 62
256
370
-1
  6
ByLayer
 10
162.0149082568810002
 20
49.9426605504588323
 30
0.0
 11
162.0149082568810286
 21
42.1926605504589318
 31
0.0
  0
ARC
  5
57
100
AcDbEntity
  8
Extruder Mount Plate
 62
256
370
-1
  6
ByLayer
100
AcDbCircle
 10
164.5149082568810286
 20
49.9426605504588323
 30
0.0
 40
2.4999999999999858
100
AcDbArc
 50
0.0
 51
180.0
  0
LINE
  5
58
100
AcDbEntity
100
AcDbLine
  8
Extruder Mount Plate
 62
256
370
-1
  6
ByLayer
 10
167.0149082568810002
 20
42.1926605504589318
 30
0.0
 11
167.0149082568810286
 21
49.9426605504588323
 31
0.0
  0
LINE
  5
59
100
AcDbEntity
100
AcDbLine
  8
Extruder Mount Plate
 62
256
370
-1
  6
ByLayer
 10
195.9149082568807785
 20
40.1926605504588039
 30
0.0
 11
192.4149082568808922
 21
40.1926605504587968
 31
0.0
  0
LINE
  5
5A
100
AcDbEntity
100
AcDbLine
  8
Extruder Mount Plate
 62
256
370
-1
  6
ByLayer
 10
197.9149082568808353
 20
49.9426605504588039
 30
0.0
 11
197.9149082568807785
 21
42.1926605504589247
 31
0.0
  0
ARC
  5
5B
100
AcDbEntity
  8
Extruder Mount Plate
 62
256
370
-1
  6
ByLayer
100
AcDbCircle
 10
200.4149082568808353
 20
49.9426605504588466
 30
0.0
 40
2.4999999999999858
100
AcDbArc
 50
0.0
 51
180.0
  0
LINE
  5
5C
100
AcDbEntity
100
AcDbLine
  8
Extruder Mount Plate
 62
256
370
-1
  6
ByLayer
 10
202.9149082568808353
 20
42.1926605504589318
 30
0.0
 11
202.9149082568808353
 21
49.9426605504587897
 31
0.0
  0
LINE
  5
5D
100
AcDbEntity
100
AcDbLine
  8
Extruder Mount Plate
 62
256
370
-1
  6
ByLayer
 10
210.9149082568807216
 20
40.1926605504587684
 30
0.0
 11
204.9149082568808353
 21
40.1926605504588395
 31
0.0
  0
ARC
  5
5E
100
AcDbEntity
  8
Extruder Mount Plate
 62
256
370
-1
  6
ByLayer
100
AcDbCircle
 10
156.5149082568810002
 20
42.1926605504589318
 30
0.0
 40
1.999999999999996
100
AcDbArc
 50
180.0
 51
270.0
  0
ARC
  5
5F
100
AcDbEntity
  8
Extruder Mount Plate
 62
256
370
-1
  6
ByLayer
100
AcDbCircle
 10
160.0149082568810002
 20
42.1926605504588181
 30
0.0
 40
1.999999999999986
100
AcDbArc
 50
270.0
 51
0.0
  0
ARC
  5
60
100
AcDbEntity
  8
Extruder Mount Plate
 62
256
370
-1
  6
ByLayer
100
AcDbCircle
 10
169.0149082568810286
 20
42.1926605504588323
 30
0.0
 40
1.999999999999984
100
AcDbArc
 50
179.9999999999989768
 51
270.0
  0
ARC
  5
61
100
AcDbEntity
  8
Extruder Mount Plate
 62
256
370
-1
  6
ByLayer
100
AcDbCircle
 10
195.9149082568808069
 20
42.1926605504589318
 30
0.0
 40
2.0
100
AcDbArc
 50
270.0
 51
0.0
  0
ARC
  5
62
100
AcDbEntity
  8
Extruder Mount Plate
 62
256
370
-1
  6
ByLayer
100
AcDbCircle
 10
204.9149082568808353
 20
42.1926605504588039
 30
0.0
 40
1.999999999999982
100
AcDbArc
 50
180.0
 51
270.0
  0
ARC
  5
63
100
AcDbEntity
  8
Extruder Mount Plate
 62
256
370
-1
  6
ByLayer
100
AcDbCircle
 10
210.9149082568807216
 20
42.1926605504588252
 30
0.0
 40
1.999999999999982
100
AcDbArc
 50
270.0
 51
0.0
  0
LINE
  5
64
100
AcDbEntity
100
AcDbLine
  8
Extruder Mount Plate
 62
256
370
-1
  6
ByLayer
 10
182.4149082568808922
 20
40.1926605504588039
 30
0.0
 11
169.0149082568810002
 21
40.1926605504588252
 31
0.0
  0
LINE
  5
65
100
AcDbEntity
100
AcDbLine
  8
Extruder Mount Plate
 62
256
370
-1
  6
ByLayer
 10
190.4149082568807785
 20
42.1926605504589176
 30
0.0
 11
190.4149082568807785
 21
49.9426605504588395
 31
0.0
  0
ARC
  5
66
100
AcDbEntity
  8
Extruder Mount Plate
 62
256
370
-1
  6
ByLayer
100
AcDbCircle
 10
192.4149082568807785
 20
42.1926605504588323
 30
0.0
 40
1.999999999999978
100
AcDbArc
 50
180.0
 51
270.0
  0
LINE
  5
67
100
AcDbEntity
100
AcDbLine
  8
Extruder Mount Plate
 62
256
370
-1
  6
ByLayer
 10
184.4149082568808922
 20
49.9426605504587897
 30
0.0
 11
184.4149082568808922
 21
42.1926605504587968
 31
0.0
  0
ARC
  5
68
100
AcDbEntity
  8
Extruder Mount Plate
 62
256
370
-1
  6
ByLayer
100
AcDbCircle
 10
182.4149082568808922
 20
42.1926605504587968
 30
0.0
 40
2.0
100
AcDbArc
 50
270.0
 51
0.0
  0
ARC
  5
69
100
AcDbEntity
  8
Extruder Mount Plate
 62
256
370
-1
  6
ByLayer
100
AcDbCircle
 10
187.4149082568808922
 20
49.9426605504588323
 30
0.0
 40
3.0
100
AcDbArc
 50
0.0
 51
180.0
  0
LINE
  5
6A
100
AcDbEntity
100
AcDbLine
  8
Extruder Mount Plate
 62
256
370
-1
  6
ByLayer
 10
149.5149082568811139
 20
49.9426605504588323
 30
0.0
 11
149.5149082568811423
 21
42.1926605504588181
 31
0.0
  0
ARC
  5
6B
100
AcDbEntity
  8
Extruder Mount Plate
 62
256
370
-1
  6
ByLayer
100
AcDbCircle
 10
147.5149082568811423
 20
42.1926605504588181
 30
0.0
 40
2.0
100
AcDbArc
 50
270.0
 51
0.0
  0
LINE
  5
6C
100
AcDbEntity
100
AcDbLine
  8
Extruder Mount Plate
 62
256
370
-1
  6
ByLayer
 10
212.9149082568808353
 20
66.69266055045874
 30
0.0
 11
212.9149082568808353
 21
42.192660550458946
 31
0.0
  0
ARC
  5
6D
100
AcDbEntity
  8
Extruder Mount Plate
 62
256
370
-1
  6
ByLayer
100
AcDbCircle
 10
210.9149082568808353
 20
66.6926605504586973
 30
0.0
 40
2.0
100
AcDbArc
 50
0.0
 51
90.0
  0
ARC
  5
6E
100
AcDbEntity
  8
Extruder Mount Plate
 62
256
370
-1
  6
ByLayer
100
AcDbCircle
 10
139.3445624808190928
 20
78.6926605504587258
 30
0.0
 40
10.0
100
AcDbArc
 50
219.4639964087814974
 51
270.0
  0
LINE
  5
6F
100
AcDbEntity
100
AcDbLine
  8
Extruder Mount Plate
 62
256
370
-1
  6
ByLayer
 10
210.9149082568808353
 20
68.6926605504586973
 30
0.0
 11
139.3445624808191212
 21
68.6926605504587258
 31
0.0
  0
LINE
  5
70
100
AcDbEntity
100
AcDbLine
  8
Extruder Mount Plate
 62
256
370
-1
  6
ByLayer
 10
147.5149082568811423
 20
40.1926605504588181
 30
0.0
 11
136.0390627685388267
 21
40.1926605504588252
 31
0.0
  0
MTEXT
  5
71
100
AcDbEntity
100
AcDbMText
  8
Extruder Mount Plate Text
 62
256
370
-1
  6
ByLayer
 10
176.0149082568811991
 20
59.5926605504585183
 30
0.0
 40
3.0
 41
100.0
 71
5
 72
2
  1
Extruder\~Mount\~Plate
  7
standard
 50
0.0
 73
1
 44
1.0
  0
ARC
  5
72
100
AcDbEntity
  8
Insulator Retainer
 62
256
370
-1
  6
ByLayer
100
AcDbCircle
 10
240.7649082568810286
 20
24.1926605504588323
 30
0.0
 40
25.3999999999999986
100
AcDbArc
 50
219.463996408781469
 51
132.7381168620652545
  0
ARC
  5
73
100
AcDbEntity
  8
Insulator Retainer
 62
256
370
-1
  6
ByLayer
100
AcDbCircle
 10
216.740753745223401
 20
50.1926605504588323
 30
0.0
 40
10.0
100
AcDbArc
 50
270.0
 51
312.7381168620651692
  0
CIRCLE
  5
74
100
AcDbEntity
100
AcDbCircle
  8
Insulator Retainer
 62
256
370
-1
  6
ByLayer
 10
253.3899082568810286
 20
24.1926605504588323
 30
0.0
 40
1.45
  0
CIRCLE
  5
75
100
AcDbEntity
100
AcDbCircle
  8
Insulator Retainer
 62
256
370
-1
  6
ByLayer
 10
228.1399082568810286
 20
24.1926605504588323
 30
0.0
 40
1.45
  0
CIRCLE
  5
76
100
AcDbEntity
100
AcDbCircle
  8
Insulator Retainer
 62
256
370
-1
  6
ByLayer
 10
240.7649082568810286
 20
3.1926605504588323
 30
0.0
 40
1.45
  0
CIRCLE
  5
77
100
AcDbEntity
100
AcDbCircle
  8
Insulator Retainer
 62
256
370
-1
  6
ByLayer
 10
222.5783747774078165
 20
34.6926605504588323
 30
0.0
 40
1.45
  0
CIRCLE
  5
78
100
AcDbEntity
100
AcDbCircle
  8
Insulator Retainer
 62
256
370
-1
  6
ByLayer
 10
258.9514417363542407
 20
34.6926605504588466
 30
0.0
 40
1.45
  0
ARC
  5
79
100
AcDbEntity
  8
Insulator Retainer
 62
256
370
-1
  6
ByLayer
100
AcDbCircle
 10
200.7649082568811139
 20
30.4426605504588608
 30
0.0
 40
2.4999999999999858
100
AcDbArc
 50
180.0
 51
360.0
  0
LINE
  5
7A
100
AcDbEntity
100
AcDbLine
  8
Insulator Retainer
 62
256
370
-1
  6
ByLayer
 10
198.2649082568811991
 20
38.1926605504587613
 30
0.0
 11
198.2649082568812275
 21
30.4426605504588892
 31
0.0
  0
LINE
  5
7B
100
AcDbEntity
100
AcDbLine
  8
Insulator Retainer
 62
256
370
-1
  6
ByLayer
 10
192.7649082568812275
 20
40.192660550458875
 30
0.0
 11
196.2649082568811991
 21
40.1926605504588181
 31
0.0
  0
LINE
  5
7C
100
AcDbEntity
100
AcDbLine
  8
Insulator Retainer
 62
256
370
-1
  6
ByLayer
 10
190.7649082568812275
 20
30.4426605504588323
 30
0.0
 11
190.7649082568811991
 21
38.1926605504587471
 31
0.0
  0
ARC
  5
7D
100
AcDbEntity
  8
Insulator Retainer
 62
256
370
-1
  6
ByLayer
100
AcDbCircle
 10
188.2649082568811991
 20
30.4426605504588466
 30
0.0
 40
2.4999999999999858
100
AcDbArc
 50
180.0
 51
360.0
  0
LINE
  5
7E
100
AcDbEntity
100
AcDbLine
  8
Insulator Retainer
 62
256
370
-1
  6
ByLayer
 10
185.764908256881256
 20
38.1926605504587613
 30
0.0
 11
185.7649082568811991
 21
30.4426605504588323
 31
0.0
  0
LINE
  5
7F
100
AcDbEntity
100
AcDbLine
  8
Insulator Retainer
 62
256
370
-1
  6
ByLayer
 10
156.8649082568814492
 20
40.1926605504588821
 30
0.0
 11
160.3649082568813355
 21
40.1926605504589887
 31
0.0
  0
LINE
  5
80
100
AcDbEntity
100
AcDbLine
  8
Insulator Retainer
 62
256
370
-1
  6
ByLayer
 10
154.8649082568813924
 20
30.4426605504588892
 30
0.0
 11
154.8649082568814492
 21
38.1926605504587613
 31
0.0
  0
ARC
  5
81
100
AcDbEntity
  8
Insulator Retainer
 62
256
370
-1
  6
ByLayer
100
AcDbCircle
 10
152.3649082568813924
 20
30.4426605504588892
 30
0.0
 40
2.4999999999999858
100
AcDbArc
 50
180.0
 51
360.0
  0
LINE
  5
82
100
AcDbEntity
100
AcDbLine
  8
Insulator Retainer
 62
256
370
-1
  6
ByLayer
 10
149.8649082568813924
 20
38.1926605504588323
 30
0.0
 11
149.8649082568813924
 21
30.4426605504589034
 31
0.0
  0
LINE
  5
83
100
AcDbEntity
100
AcDbLine
  8
Insulator Retainer
 62
256
370
-1
  6
ByLayer
 10
141.8649082568815061
 20
40.1926605504590597
 30
0.0
 11
147.8649082568813924
 21
40.1926605504588039
 31
0.0
  0
ARC
  5
84
100
AcDbEntity
  8
Insulator Retainer
 62
256
370
-1
  6
ByLayer
100
AcDbCircle
 10
196.264908256881256
 20
38.1926605504587755
 30
0.0
 40
1.999999999999996
100
AcDbArc
 50
360.0
 51
90.0
  0
ARC
  5
85
100
AcDbEntity
  8
Insulator Retainer
 62
256
370
-1
  6
ByLayer
100
AcDbCircle
 10
192.764908256881256
 20
38.1926605504588892
 30
0.0
 40
1.999999999999986
100
AcDbArc
 50
90.0
 51
180.0
  0
ARC
  5
86
100
AcDbEntity
  8
Insulator Retainer
 62
256
370
-1
  6
ByLayer
100
AcDbCircle
 10
183.7649082568811707
 20
38.1926605504588466
 30
0.0
 40
1.999999999999984
100
AcDbArc
 50
359.9999999999989768
 51
90.0
  0
ARC
  5
87
100
AcDbEntity
  8
Insulator Retainer
 62
256
370
-1
  6
ByLayer
100
AcDbCircle
 10
156.8649082568814492
 20
38.1926605504587044
 30
0.0
 40
2.0
100
AcDbArc
 50
90.0
 51
180.0
  0
ARC
  5
88
100
AcDbEntity
  8
Insulator Retainer
 62
256
370
-1
  6
ByLayer
100
AcDbCircle
 10
147.8649082568813924
 20
38.1926605504588323
 30
0.0
 40
1.999999999999982
100
AcDbArc
 50
360.0
 51
90.0
  0
ARC
  5
89
100
AcDbEntity
  8
Insulator Retainer
 62
256
370
-1
  6
ByLayer
100
AcDbCircle
 10
141.8649082568815061
 20
38.192660550458875
 30
0.0
 40
1.999999999999982
100
AcDbArc
 50
90.0
 51
180.0
  0
LINE
  5
8A
100
AcDbEntity
100
AcDbLine
  8
Insulator Retainer
 62
256
370
-1
  6
ByLayer
 10
170.3649082568813355
 20
40.1926605504588608
 30
0.0
 11
183.764908256881256
 21
40.1926605504588323
 31
0.0
  0
LINE
  5
8B
100
AcDbEntity
100
AcDbLine
  8
Insulator Retainer
 62
256
370
-1
  6
ByLayer
 10
162.3649082568814492
 20
38.1926605504587187
 30
0.0
 11
162.3649082568814492
 21
30.4426605504588608
 31
0.0
  0
ARC
  5
8C
100
AcDbEntity
  8
Insulator Retainer
 62
256
370
-1
  6
ByLayer
100
AcDbCircle
 10
160.3649082568814492
 20
38.1926605504588181
 30
0.0
 40
1.999999999999978
100
AcDbArc
 50
360.0
 51
90.0
  0
LINE
  5
8D
100
AcDbEntity
100
AcDbLine
  8
Insulator Retainer
 62
256
370
-1
  6
ByLayer
 10
168.3649082568813355
 20
30.4426605504589602
 30
0.0
 11
168.3649082568813355
 21
38.1926605504589176
 31
0.0
  0
ARC
  5
8E
100
AcDbEntity
  8
Insulator Retainer
 62
256
370
-1
  6
ByLayer
100
AcDbCircle
 10
170.3649082568813355
 20
38.1926605504588323
 30
0.0
 40
2.0
100
AcDbArc
 50
90.0
 51
180.0
  0
ARC
  5
8F
100
AcDbEntity
  8
Insulator Retainer
 62
256
370
-1
  6
ByLayer
100
AcDbCircle
 10
165.3649082568813355
 20
30.4426605504588608
 30
0.0
 40
3.0
100
AcDbArc
 50
180.0
 51
360.0
  0
LINE
  5
90
100
AcDbEntity
100
AcDbLine
  8
Insulator Retainer
 62
256
370
-1
  6
ByLayer
 10
203.2649082568811139
 20
30.4426605504588608
 30
0.0
 11
203.2649082568810854
 21
38.192660550458875
 31
0.0
  0
ARC
  5
91
100
AcDbEntity
  8
Insulator Retainer
 62
256
370
-1
  6
ByLayer
100
AcDbCircle
 10
205.2649082568810854
 20
38.1926605504588466
 30
0.0
 40
2.0
100
AcDbArc
 50
90.0
 51
180.0
  0
LINE
  5
92
100
AcDbEntity
100
AcDbLine
  8
Insulator Retainer
 62
256
370
-1
  6
ByLayer
 10
139.8649082568813924
 20
13.6926605504588323
 30
0.0
 11
139.8649082568814208
 21
38.1926605504588608
 31
0.0
  0
ARC
  5
93
100
AcDbEntity
  8
Insulator Retainer
 62
256
370
-1
  6
ByLayer
100
AcDbCircle
 10
141.8649082568813924
 20
13.6926605504589176
 30
0.0
 40
2.0
100
AcDbArc
 50
180.0
 51
270.0
  0
ARC
  5
94
100
AcDbEntity
  8
Insulator Retainer
 62
256
370
-1
  6
ByLayer
100
AcDbCircle
 10
213.4352540329431349
 20
1.692660550458946
 30
0.0
 40
10.0
100
AcDbArc
 50
39.4639964087814903
 51
90.0
  0
LINE
  5
95
100
AcDbEntity
100
AcDbLine
  8
Insulator Retainer
 62
256
370
-1
  6
ByLayer
 10
141.8649082568813924
 20
11.6926605504589034
 30
0.0
 11
213.4352540329431065
 21
11.692660550458946
 31
0.0
  0
LINE
  5
96
100
AcDbEntity
100
AcDbLine
  8
Insulator Retainer
 62
256
370
-1
  6
ByLayer
 10
205.2649082568810854
 20
40.1926605504588323
 30
0.0
 11
216.740753745223401
 21
40.1926605504588323
 31
0.0
  0
CIRCLE
  5
97
100
AcDbEntity
100
AcDbCircle
  8
Insulator Retainer
 62
256
370
-1
  6
ByLayer
 10
240.7649082568810286
 20
24.1926605504588323
 30
0.0
 40
8.0
  0
MTEXT
  5
98
100
AcDbEntity
100
AcDbMText
  8
Insulator Retainer Text
 62
256
370
-1
  6
ByLayer
 10
176.7649082568810286
 20
20.792660550459054
 30
0.0
 40
3.0
 41
100.0
 71
5
 72
2
  1
Insulator\~Retainer
  7
standard
 50
180.0
 73
1
 44
1.0
  0
CIRCLE
  5
99
100
AcDbEntity
100
AcDbCircle
  8
Motor Plate
 62
256
370
-1
  6
ByLayer
 10
9.9999999999999929
 20
7.7500000000000071
 30
0.0
 40
1.45
  0
CIRCLE
  5
9A
100
AcDbEntity
100
AcDbCircle
  8
Motor Plate
 62
256
370
-1
  6
ByLayer
 10
10.0000000000000036
 20
72.1500000000000199
 30
0.0
 40
1.45
  0
LINE
  5
9B
100
AcDbEntity
100
AcDbLine
  8
Motor Plate
 62
256
370
-1
  6
ByLayer
 10
80.0
 20
72.25
 30
0.0
 11
79.9999999999999858
 21
2.7499999999999858
 31
0.0
  0
ARC
  5
9C
100
AcDbEntity
  8
Motor Plate
 62
256
370
-1
  6
ByLayer
100
AcDbCircle
 10
75.0
 20
72.25
 30
0.0
 40
5.0
100
AcDbArc
 50
0.0
 51
90.0
  0
CIRCLE
  5
9D
100
AcDbEntity
100
AcDbCircle
  8
Motor Plate
 62
256
370
-1
  6
ByLayer
 10
72.1500000000000057
 20
72.1500000000000057
 30
0.0
 40
1.45
  0
CIRCLE
  5
9E
100
AcDbEntity
100
AcDbCircle
  8
Motor Plate
 62
256
370
-1
  6
ByLayer
 10
72.1500000000000057
 20
7.75
 30
0.0
 40
1.45
  0
LINE
  5
9F
100
AcDbEntity
100
AcDbLine
  8
Motor Plate
 62
256
370
-1
  6
ByLayer
 10
-0.0000000000000142
 20
2.7500000000000213
 30
0.0
 11
79.9999999999999858
 21
2.7499999999999858
 31
0.0
  0
LINE
  5
A0
100
AcDbEntity
100
AcDbLine
  8
Motor Plate
 62
256
370
-1
  6
ByLayer
 10
0.0000000000000071
 20
72.25
 30
0.0
 11
-0.0000000000000142
 21
2.7500000000000213
 31
0.0
  0
LINE
  5
A1
100
AcDbEntity
100
AcDbLine
  8
Motor Plate
 62
256
370
-1
  6
ByLayer
 10
5.0
 20
77.25
 30
0.0
 11
75.0
 21
77.25
 31
0.0
  0
ARC
  5
A2
100
AcDbEntity
  8
Motor Plate
 62
256
370
-1
  6
ByLayer
100
AcDbCircle
 10
5.0
 20
72.25
 30
0.0
 40
5.0
100
AcDbArc
 50
90.0
 51
180.0
  0
CIRCLE
  5
A3
100
AcDbEntity
100
AcDbCircle
  8
Motor Plate
 62
256
370
-1
  6
ByLayer
 10
9.7499999999999964
 20
35.2499745962155799
 30
0.0
 40
1.3999999999999999
  0
CIRCLE
  5
A4
100
AcDbEntity
100
AcDbCircle
  8
Motor Plate
 62
256
370
-1
  6
ByLayer
 10
40.25
 20
35.2499745962155799
 30
0.0
 40
1.3999999999999999
  0
CIRCLE
  5
A5
100
AcDbEntity
100
AcDbCircle
  8
Motor Plate
 62
256
370
-1
  6
ByLayer
 10
17.5000000000000284
 20
48.4999745962155799
 30
0.0
 40
1.3999999999999999
  0
CIRCLE
  5
A6
100
AcDbEntity
100
AcDbCircle
  8
Motor Plate
 62
256
370
-1
  6
ByLayer
 10
17.4999999999999858
 20
21.9999745962155835
 30
0.0
 40
1.3999999999999999
  0
ARC
  5
A7
100
AcDbEntity
  8
Motor Plate
 62
256
370
-1
  6
ByLayer
100
AcDbCircle
 10
51.5
 20
35.2499745962155586
 30
0.0
 40
4.0
100
AcDbArc
 50
90.0
 51
270.0
  0
LINE
  5
A8
100
AcDbEntity
100
AcDbLine
  8
Motor Plate
 62
256
370
-1
  6
ByLayer
 10
55.4999999999999929
 20
31.2499745962155515
 30
0.0
 11
51.5
 21
31.2499745962155657
 31
0.0
  0
LINE
  5
A9
100
AcDbEntity
100
AcDbLine
  8
Motor Plate
 62
256
370
-1
  6
ByLayer
 10
51.5
 20
39.2499745962155586
 30
0.0
 11
55.5
 21
39.2499745962155657
 31
0.0
  0
ARC
  5
AA
100
AcDbEntity
  8
Motor Plate
 62
256
370
-1
  6
ByLayer
100
AcDbCircle
 10
55.5
 20
35.2499745962155657
 30
0.0
 40
4.0
100
AcDbArc
 50
270.0
 51
90.0
  0
MTEXT
  5
AB
100
AcDbEntity
100
AcDbMText
  8
Motor Plate Text
 62
256
370
-1
  6
ByLayer
 10
42.5
 20
67.1500000000000057
 30
0.0
 40
3.0
 41
100.0
 71
5
 72
2
  1
Motor\~Plate
  7
standard
 50
0.0
 73
1
 44
1.0
  0
CIRCLE
  5
AC
100
AcDbEntity
100
AcDbCircle
  8
Motor Plate
 62
256
370
-1
  6
ByLayer
 10
15.0000000000000036
 20
62.75
 30
0.0
 40
2.4500000000000002
  0
CIRCLE
  5
AD
100
AcDbEntity
100
AcDbCircle
  8
Motor Plate
 62
256
370
-1
  6
ByLayer
 10
65.0
 20
62.75
 30
0.0
 40
2.4500000000000002
  0
CIRCLE
  5
AE
100
AcDbEntity
100
AcDbCircle
  8
Motor Plate
 62
256
370
-1
  6
ByLayer
 10
25.0
 20
35.2499745962155728
 30
0.0
 40
8.3000000000000007
  0
ENDSEC
  0
SECTION
  2
OBJECTS
  0
DICTIONARY
  5
C
100
AcDbDictionary
280
0
281
1
  3
ACAD_GROUP
350
D
  3
ACAD_LAYOUT
350
1A
  3
ACAD_MLINESTYLE
350
17
  3
ACAD_PLOTSETTINGS
350
19
  3
ACAD_PLOTSTYLENAME
350
E
  3
AcDbVariableDictionary
350
AF
  0
DICTIONARY
  5
D
100
AcDbDictionary
280
0
281
1
  0
ACDBDICTIONARYWDFLT
  5
E
100
AcDbDictionary
281
1
  3
Normal
350
F
100
AcDbDictionaryWithDefault
340
F
  0
ACDBPLACEHOLDER
  5
F
  0
DICTIONARY
  5
17
100
AcDbDictionary
280
0
281
1
  3
Standard
350
18
  0
MLINESTYLE
  5
18
100
AcDbMlineStyle
  2
STANDARD
 70
0
  3

 62
256
 51
90.0
 52
90.0
 71
2
 49
0.5
 62
256
  6
BYLAYER
 49
-0.5
 62
256
  6
BYLAYER
  0
DICTIONARY
  5
19
100
AcDbDictionary
280
0
281
1
  0
DICTIONARY
  5
1A
100
AcDbDictionary
281
1
  3
Layout1
350
1E
  3
Layout2
350
26
  3
Model
350
22
  0
LAYOUT
  5
1E
100
AcDbPlotSettings
  1

  2
C:\Program Files\AutoCAD 2002\plotters\DWF ePlot (optimized for plotting).pc3
  4

  6

 40
0.0
 41
0.0
 42
0.0
 43
0.0
 44
0.0
 45
0.0
 46
0.0
 47
0.0
 48
0.0
 49
0.0
140
0.0
141
0.0
142
1.0
143
1.0
 70
688
 72
0
 73
0
 74
5
  7

 75
16
147
1.0
148
0.0
149
0.0
100
AcDbLayout
  1
Layout1
 70
1
 71
1
 10
0.0
 20
0.0
 11
420.0
 21
297.0
 12
0.0
 22
0.0
 32
0.0
 14
100000000000000000000.0
 24
100000000000000000000.0
 34
100000000000000000000.0
 15
-100000000000000000000.0
 25
-100000000000000000000.0
 35
-100000000000000000000.0
146
0.0
 13
0.0
 23
0.0
 33
0.0
 16
1.0
 26
0.0
 36
0.0
 17
0.0
 27
1.0
 37
0.0
 76
0
330
1B
  0
LAYOUT
  5
22
100
AcDbPlotSettings
  1

  2
C:\Program Files\AutoCAD 2002\plotters\DWF ePlot (optimized for plotting).pc3
  4

  6

 40
0.0
 41
0.0
 42
0.0
 43
0.0
 44
0.0
 45
0.0
 46
0.0
 47
0.0
 48
0.0
 49
0.0
140
0.0
141
0.0
142
1.0
143
1.0
 70
1712
 72
0
 73
0
 74
0
  7

 75
0
147
1.0
148
0.0
149
0.0
100
AcDbLayout
  1
Model
 70
1
 71
0
 10
0.0
 20
0.0
 11
12.0
 21
9.0
 12
0.0
 22
0.0
 32
0.0
 14
0.0
 24
0.0
 34
0.0
 15
0.0
 25
0.0
 35
0.0
146
0.0
 13
0.0
 23
0.0
 33
0.0
 16
1.0
 26
0.0
 36
0.0
 17
0.0
 27
1.0
 37
0.0
 76
0
330
1F
  0
LAYOUT
  5
26
100
AcDbPlotSettings
  1

  2
C:\Program Files\AutoCAD 2002\plotters\DWF ePlot (optimized for plotting).pc3
  4

  6

 40
0.0
 41
0.0
 42
0.0
 43
0.0
 44
0.0
 45
0.0
 46
0.0
 47
0.0
 48
0.0
 49
0.0
140
0.0
141
0.0
142
1.0
143
1.0
 70
688
 72
0
 73
0
 74
5
  7

 75
16
147
1.0
148
0.0
149
0.0
100
AcDbLayout
  1
Layout2
 70
1
 71
2
 10
0.0
 20
0.0
 11
12.0
 21
9.0
 12
0.0
 22
0.0
 32
0.0
 14
0.0
 24
0.0
 34
0.0
 15
0.0
 25
0.0
 35
0.0
146
0.0
 13
0.0
 23
0.0
 33
0.0
 16
1.0
 26
0.0
 36
0.0
 17
0.0
 27
1.0
 37
0.0
 76
0
330
23
  0
DICTIONARY
  5
AF
100
AcDbDictionary
281
1
  3
DIMASSOC
350
B1
  3
HIDETEXT
350
B0
  0
DICTIONARYVAR
  5
B0
100
DictionaryVariables
280
0
  1
2
  0
DICTIONARYVAR
  5
B1
100
DictionaryVariables
280
0
  1
1
  0
ENDSEC
  0
EOF
