999
dxflib 2.2.0.0
  0
SECTION
  2
HEADER
  9
$ACADVER
  1
AC1015
  9
$HANDSEED
  5
FFFF
  9
$DIMASZ
 40
2.5
  9
$PLIMMIN
 10
0.0
 20
0.0
  9
$DIMEXE
 40
1.25
  9
$DIMGAP
 40
0.625
  9
$PLIMMAX
 10
210.0
 20
297.0
  9
$INSUNITS
 70
4
  9
$DIMEXO
 40
0.625
  9
$DIMTXT
 40
2.5
  9
$CLAYER
  8
0
  0
ENDSEC
  0
SECTION
  2
TABLES
  0
TABLE
  2
VPORT
  5
8
100
AcDbSymbolTable
 70
1
  0
VPORT
  5
30
100
AcDbSymbolTableRecord
100
AcDbViewportTableRecord
  2
*Active
 70
0
 10
0.0
 20
0.0
 11
1.0
 21
1.0
 12
286.3055555555554861
 22
148.5
 13
0.0
 23
0.0
 14
10.0
 24
10.0
 15
10.0
 25
10.0
 16
0.0
 26
0.0
 36
1.0
 17
0.0
 27
0.0
 37
0.0
 40
297.0
 41
1.92798353909465
 42
50.0
 43
0.0
 44
0.0
 50
0.0
 51
0.0
 71
0
 72
100
 73
1
 74
3
 75
1
 76
1
 77
0
 78
0
281
0
 65
1
110
0.0
120
0.0
130
0.0
111
1.0
121
0.0
131
0.0
112
0.0
122
1.0
132
0.0
 79
0
146
0.0
  0
ENDTAB
  0
TABLE
  2
LTYPE
  5
5
100
AcDbSymbolTable
 70
21
  0
LTYPE
  5
14
100
AcDbSymbolTableRecord
100
AcDbLinetypeTableRecord
  2
ByBlock
 70
0
  3

 72
65
 73
0
 40
0.0
  0
LTYPE
  5
15
100
AcDbSymbolTableRecord
100
AcDbLinetypeTableRecord
  2
ByLayer
 70
0
  3

 72
65
 73
0
 40
0.0
  0
LTYPE
  5
16
100
AcDbSymbolTableRecord
100
AcDbLinetypeTableRecord
  2
CONTINUOUS
 70
0
  3
Solid line
 72
65
 73
0
 40
0.0
  0
LTYPE
  5
31
100
AcDbSymbolTableRecord
100
AcDbLinetypeTableRecord
  2
DOT
 70
0
  3
Dot . . . . . . . . . . . . . . . . . . . . . .
 72
65
 73
2
 40
6.3499999999999996
 49
0.0
 74
0
 49
-6.3499999999999996
 74
0
  0
LTYPE
  5
32
100
AcDbSymbolTableRecord
100
AcDbLinetypeTableRecord
  2
DOT2
 70
0
  3
Dot (.5x) .....................................
 72
65
 73
2
 40
3.1749999999999998
 49
0.0
 74
0
 49
-3.1749999999999998
 74
0
  0
LTYPE
  5
33
100
AcDbSymbolTableRecord
100
AcDbLinetypeTableRecord
  2
DOTX2
 70
0
  3
Dot (2x) .  .  .  .  .  .  .  .  .  .  .  .  .
 72
65
 73
2
 40
12.6999999999999993
 49
0.0
 74
0
 49
-12.6999999999999993
 74
0
  0
LTYPE
  5
34
100
AcDbSymbolTableRecord
100
AcDbLinetypeTableRecord
  2
DASHED
 70
0
  3
Dashed __ __ __ __ __ __ __ __ __ __ __ __ __ _
 72
65
 73
2
 40
19.0500000000000007
 49
12.6999999999999993
 74
0
 49
-6.3499999999999996
 74
0
  0
LTYPE
  5
35
100
AcDbSymbolTableRecord
100
AcDbLinetypeTableRecord
  2
DASHED2
 70
0
  3
Dashed (.5x) _ _ _ _ _ _ _ _ _ _ _ _ _ _ _ _ _
 72
65
 73
2
 40
9.5250000000000004
 49
6.3499999999999996
 74
0
 49
-3.1749999999999998
 74
0
  0
LTYPE
  5
36
100
AcDbSymbolTableRecord
100
AcDbLinetypeTableRecord
  2
DASHEDX2
 70
0
  3
Dashed (2x) ____  ____  ____  ____  ____  ___
 72
65
 73
2
 40
38.1000000000000014
 49
25.3999999999999986
 74
0
 49
-12.6999999999999993
 74
0
  0
LTYPE
  5
37
100
AcDbSymbolTableRecord
100
AcDbLinetypeTableRecord
  2
DASHDOT
 70
0
  3
Dash dot __ . __ . __ . __ . __ . __ . __ . __
 72
65
 73
4
 40
25.3999999999999986
 49
12.6999999999999993
 74
0
 49
-6.3499999999999996
 74
0
 49
0.0
 74
0
 49
-6.3499999999999996
 74
0
  0
LTYPE
  5
38
100
AcDbSymbolTableRecord
100
AcDbLinetypeTableRecord
  2
DASHDOT2
 70
0
  3
Dash dot (.5x) _._._._._._._._._._._._._._._.
 72
65
 73
4
 40
12.6999999999999993
 49
6.3499999999999996
 74
0
 49
-3.1749999999999998
 74
0
 49
0.0
 74
0
 49
-3.1749999999999998
 74
0
  0
LTYPE
  5
39
100
AcDbSymbolTableRecord
100
AcDbLinetypeTableRecord
  2
DASHDOTX2
 70
0
  3
Dash dot (2x) ____  .  ____  .  ____  .  ___
 72
65
 73
4
 40
50.7999999999999972
 49
25.3999999999999986
 74
0
 49
-12.6999999999999993
 74
0
 49
0.0
 74
0
 49
-12.6999999999999993
 74
0
  0
LTYPE
  5
3A
100
AcDbSymbolTableRecord
100
AcDbLinetypeTableRecord
  2
DIVIDE
 70
0
  3
Divide ____ . . ____ . . ____ . . ____ . . ____
 72
65
 73
6
 40
31.75
 49
12.6999999999999993
 74
0
 49
-6.3499999999999996
 74
0
 49
0.0
 74
0
 49
-6.3499999999999996
 74
0
 49
0.0
 74
0
 49
-6.3499999999999996
 74
0
  0
LTYPE
  5
3B
100
AcDbSymbolTableRecord
100
AcDbLinetypeTableRecord
  2
DIVIDE2
 70
0
  3
Divide (.5x) __..__..__..__..__..__..__..__.._
 72
65
 73
6
 40
15.875
 49
6.3499999999999996
 74
0
 49
-3.1749999999999998
 74
0
 49
0.0
 74
0
 49
-3.1749999999999998
 74
0
 49
0.0
 74
0
 49
-3.1749999999999998
 74
0
  0
LTYPE
  5
3C
100
AcDbSymbolTableRecord
100
AcDbLinetypeTableRecord
  2
DIVIDEX2
 70
0
  3
Divide (2x) ________  .  .  ________  .  .  _
 72
65
 73
6
 40
63.5
 49
25.3999999999999986
 74
0
 49
-12.6999999999999993
 74
0
 49
0.0
 74
0
 49
-12.6999999999999993
 74
0
 49
0.0
 74
0
 49
-12.6999999999999993
 74
0
  0
LTYPE
  5
3D
100
AcDbSymbolTableRecord
100
AcDbLinetypeTableRecord
  2
CENTER
 70
0
  3
Center ____ _ ____ _ ____ _ ____ _ ____ _ ____
 72
65
 73
4
 40
50.7999999999999972
 49
31.75
 74
0
 49
-6.3499999999999996
 74
0
 49
6.3499999999999996
 74
0
 49
-6.3499999999999996
 74
0
  0
LTYPE
  5
3E
100
AcDbSymbolTableRecord
100
AcDbLinetypeTableRecord
  2
CENTER2
 70
0
  3
Center (.5x) ___ _ ___ _ ___ _ ___ _ ___ _ ___
 72
65
 73
4
 40
28.5749999999999993
 49
19.0500000000000007
 74
0
 49
-3.1749999999999998
 74
0
 49
3.1749999999999998
 74
0
 49
-3.1749999999999998
 74
0
  0
LTYPE
  5
3F
100
AcDbSymbolTableRecord
100
AcDbLinetypeTableRecord
  2
CENTERX2
 70
0
  3
Center (2x) ________  __  ________  __  _____
 72
65
 73
4
 40
101.5999999999999943
 49
63.5
 74
0
 49
-12.6999999999999993
 74
0
 49
12.6999999999999993
 74
0
 49
-12.6999999999999993
 74
0
  0
LTYPE
  5
40
100
AcDbSymbolTableRecord
100
AcDbLinetypeTableRecord
  2
BORDER
 70
0
  3
Border __ __ . __ __ . __ __ . __ __ . __ __ .
 72
65
 73
6
 40
44.4500000000000028
 49
12.6999999999999993
 74
0
 49
-6.3499999999999996
 74
0
 49
12.6999999999999993
 74
0
 49
-6.3499999999999996
 74
0
 49
0.0
 74
0
 49
-6.3499999999999996
 74
0
  0
LTYPE
  5
41
100
AcDbSymbolTableRecord
100
AcDbLinetypeTableRecord
  2
BORDER2
 70
0
  3
Border (.5x) __.__.__.__.__.__.__.__.__.__.__.
 72
65
 73
6
 40
22.2250000000000014
 49
6.3499999999999996
 74
0
 49
-3.1749999999999998
 74
0
 49
6.3499999999999996
 74
0
 49
-3.1749999999999998
 74
0
 49
0.0
 74
0
 49
-3.1749999999999998
 74
0
  0
LTYPE
  5
42
100
AcDbSymbolTableRecord
100
AcDbLinetypeTableRecord
  2
BORDERX2
 70
0
  3
Border (2x) ____  ____  .  ____  ____  .  ___
 72
65
 73
6
 40
88.9000000000000057
 49
25.3999999999999986
 74
0
 49
-12.6999999999999993
 74
0
 49
25.3999999999999986
 74
0
 49
-12.6999999999999993
 74
0
 49
0.0
 74
0
 49
-12.6999999999999993
 74
0
  0
ENDTAB
  0
TABLE
  2
LAYER
  5
2
100
AcDbSymbolTable
 70
4
  0
LAYER
  5
10
100
AcDbSymbolTableRecord
100
AcDbLayerTableRecord
  2
0
 70
0
 62
7
420
0
  6
CONTINUOUS
370
25
390
F
  0
LAYER
  5
43
100
AcDbSymbolTableRecord
100
AcDbLayerTableRecord
  2
Filament Guide Middle Text
 70
0
 62
4
420
65535
  6
CONTINUOUS
370
0
390
F
  0
LAYER
  5
44
100
AcDbSymbolTableRecord
100
AcDbLayerTableRecord
  2
Filament Guide Middle
 70
0
 62
7
420
0
  6
CONTINUOUS
370
0
390
F
  0
LAYER
  5
45
100
AcDbSymbolTableRecord
100
AcDbLayerTableRecord
  2
Filament Guide Middle Honeycomb
 70
0
 62
7
420
0
  6
CONTINUOUS
370
0
390
F
  0
ENDTAB
  0
TABLE
  2
STYLE
  5
3
100
AcDbSymbolTable
 70
1
  0
STYLE
  5
11
100
AcDbSymbolTableRecord
100
AcDbTextStyleTableRecord
  2
Standard
 70
0
 40
0.0
 41
0.75
 50
0.0
 71
0
 42
2.5
  3
txt
  4

  0
ENDTAB
  0
TABLE
  2
VIEW
  5
6
100
AcDbSymbolTable
 70
0
  0
ENDTAB
  0
TABLE
  2
UCS
  5
7
100
AcDbSymbolTable
 70
0
  0
ENDTAB
  0
TABLE
  2
APPID
  5
9
100
AcDbSymbolTable
 70
1
  0
APPID
  5
12
100
AcDbSymbolTableRecord
100
AcDbRegAppTableRecord
  2
ACAD
 70
0
  0
ENDTAB
  0
TABLE
  2
DIMSTYLE
  5
A
100
AcDbSymbolTable
 70
1
100
AcDbDimStyleTable
 71
0
  0
DIMSTYLE
105
27
100
AcDbSymbolTableRecord
100
AcDbDimStyleTableRecord
  2
Standard
 41
2.5
 42
0.625
 43
3.75
 44
1.25
 70
0
 73
0
 74
0
 77
1
 78
8
140
2.5
141
2.5
143
0.03937007874016
147
0.625
171
3
172
1
271
2
272
2
274
3
278
44
283
0
284
8
340
11
  0
ENDTAB
  0
TABLE
  2
BLOCK_RECORD
  5
1
100
AcDbSymbolTable
 70
1
  0
BLOCK_RECORD
  5
1F
100
AcDbSymbolTableRecord
100
AcDbBlockTableRecord
  2
*Model_Space
340
22
  0
BLOCK_RECORD
  5
1B
100
AcDbSymbolTableRecord
100
AcDbBlockTableRecord
  2
*Paper_Space
340
1E
  0
BLOCK_RECORD
  5
23
100
AcDbSymbolTableRecord
100
AcDbBlockTableRecord
  2
*Paper_Space0
340
26
  0
ENDTAB
  0
ENDSEC
  0
SECTION
  2
BLOCKS
  0
BLOCK
  5
20
100
AcDbEntity
  8
0
100
AcDbBlockBegin
  2
*Model_Space
 70
0
 10
0.0
 20
0.0
 30
0.0
  3
*Model_Space
  1

  0
ENDBLK
  5
21
100
AcDbEntity
  8
0
100
AcDbBlockEnd
  0
BLOCK
  5
1C
100
AcDbEntity
 67
1
  8
0
100
AcDbBlockBegin
  2
*Paper_Space
 70
0
 10
0.0
 20
0.0
 30
0.0
  3
*Paper_Space
  1

  0
ENDBLK
  5
1D
100
AcDbEntity
 67
1
  8
0
100
AcDbBlockEnd
  0
BLOCK
  5
24
100
AcDbEntity
  8
0
100
AcDbBlockBegin
  2
*Paper_Space0
 70
0
 10
0.0
 20
0.0
 30
0.0
  3
*Paper_Space0
  1

  0
ENDBLK
  5
25
100
AcDbEntity
  8
0
100
AcDbBlockEnd
  0
ENDSEC
  0
SECTION
  2
ENTITIES
  0
MTEXT
  5
46
100
AcDbEntity
100
AcDbMText
  8
Filament Guide Middle Text
 62
256
370
-1
  6
ByLayer
 10
53.0000000000000142
 20
72.4999999999999716
 30
0.0
 40
2.0
 41
100.0
 71
5
 72
2
  1
Filament\~Guide\~Middle
  7
standard
 50
0.0
 73
1
 44
1.0
  0
MTEXT
  5
47
100
AcDbEntity
100
AcDbMText
  8
Filament Guide Middle Text
 62
256
370
-1
  6
ByLayer
 10
1.0000000000000142
 20
33.4999999999999503
 30
0.0
 40
2.0
 41
100.0
 71
4
 72
2
  1
Filament\PGuide\PMiddle
  7
standard
 50
0.0
 73
1
 44
1.0
  0
CIRCLE
  5
48
100
AcDbEntity
100
AcDbCircle
  8
Filament Guide Middle
 62
256
370
-1
  6
ByLayer
 10
10.0000000000000071
 20
5.4999999999999822
 30
0.0
 40
1.45
  0
CIRCLE
  5
49
100
AcDbEntity
100
AcDbCircle
  8
Filament Guide Middle
 62
256
370
-1
  6
ByLayer
 10
10.0000000000000497
 20
69.8999999999999773
 30
0.0
 40
1.45
  0
CIRCLE
  5
4A
100
AcDbEntity
100
AcDbCircle
  8
Filament Guide Middle
 62
256
370
-1
  6
ByLayer
 10
72.1500000000000483
 20
69.8999999999999488
 30
0.0
 40
1.45
  0
CIRCLE
  5
4B
100
AcDbEntity
100
AcDbCircle
  8
Filament Guide Middle
 62
256
370
-1
  6
ByLayer
 10
72.1500000000000341
 20
5.4999999999999147
 30
0.0
 40
1.45
  0
ARC
  5
4C
100
AcDbEntity
  8
Filament Guide Middle
 62
256
370
-1
  6
ByLayer
100
AcDbCircle
 10
75.0000000000000426
 20
69.9999999999999432
 30
0.0
 40
5.0
100
AcDbArc
 50
0.0
 51
90.0
  0
ARC
  5
4D
100
AcDbEntity
  8
Filament Guide Middle
 62
256
370
-1
  6
ByLayer
100
AcDbCircle
 10
5.0000000000000426
 20
69.9999999999999432
 30
0.0
 40
5.0
100
AcDbArc
 50
90.0
 51
180.0
  0
CIRCLE
  5
4E
100
AcDbEntity
100
AcDbCircle
  8
Filament Guide Middle
 62
256
370
-1
  6
ByLayer
 10
5.0000000000000426
 20
41.7399745962155322
 30
0.0
 40
1.45
  0
CIRCLE
  5
4F
100
AcDbEntity
100
AcDbCircle
  8
Filament Guide Middle
 62
256
370
-1
  6
ByLayer
 10
5.0000000000000426
 20
24.2599745962155637
 30
0.0
 40
1.45
  0
LINE
  5
50
100
AcDbEntity
100
AcDbLine
  8
Filament Guide Middle
 62
256
370
-1
  6
ByLayer
 10
46.5250000000000199
 20
6.7999999999999616
 30
0.0
 11
46.5250000000000554
 21
4.4999999999999716
 31
0.0
  0
LINE
  5
51
100
AcDbEntity
100
AcDbLine
  8
Filament Guide Middle
 62
256
370
-1
  6
ByLayer
 10
41.2250000000000369
 20
6.7999999999999616
 30
0.0
 11
41.2250000000000227
 21
4.4999999999999574
 31
0.0
  0
LINE
  5
52
100
AcDbEntity
100
AcDbLine
  8
Filament Guide Middle
 62
256
370
-1
  6
ByLayer
 10
42.4250000000000043
 20
6.7999999999999616
 30
0.0
 11
41.2250000000000369
 21
6.7999999999999616
 31
0.0
  0
LINE
  5
53
100
AcDbEntity
100
AcDbLine
  8
Filament Guide Middle
 62
256
370
-1
  6
ByLayer
 10
45.3250000000000313
 20
6.7999999999999616
 30
0.0
 11
46.5250000000000199
 21
6.7999999999999616
 31
0.0
  0
LINE
  5
54
100
AcDbEntity
100
AcDbLine
  8
Filament Guide Middle
 62
256
370
-1
  6
ByLayer
 10
21.2750000000000128
 20
6.8499999999999766
 30
0.0
 11
21.2750000000000199
 21
4.4999999999999787
 31
0.0
  0
LINE
  5
55
100
AcDbEntity
100
AcDbLine
  8
Filament Guide Middle
 62
256
370
-1
  6
ByLayer
 10
15.9750000000000298
 20
6.850000000000005
 30
0.0
 11
15.9750000000000583
 21
4.4999999999999716
 31
0.0
  0
LINE
  5
56
100
AcDbEntity
100
AcDbLine
  8
Filament Guide Middle
 62
256
370
-1
  6
ByLayer
 10
15.9750000000000298
 20
6.850000000000005
 30
0.0
 11
17.1750000000000362
 21
6.8499999999999837
 31
0.0
  0
LINE
  5
57
100
AcDbEntity
100
AcDbLine
  8
Filament Guide Middle
 62
256
370
-1
  6
ByLayer
 10
20.0750000000000384
 20
6.849999999999973
 30
0.0
 11
21.2750000000000128
 21
6.8499999999999766
 31
0.0
  0
LINE
  5
58
100
AcDbEntity
100
AcDbLine
  8
Filament Guide Middle
 62
256
370
-1
  6
ByLayer
 10
41.2250000000000227
 20
4.4999999999999574
 30
0.0
 11
42.4250000000000327
 21
4.4999999999999787
 31
0.0
  0
LINE
  5
59
100
AcDbEntity
100
AcDbLine
  8
Filament Guide Middle
 62
256
370
-1
  6
ByLayer
 10
45.3250000000000099
 20
4.4999999999999503
 30
0.0
 11
46.5250000000000554
 21
4.4999999999999716
 31
0.0
  0
LINE
  5
5A
100
AcDbEntity
100
AcDbLine
  8
Filament Guide Middle
 62
256
370
-1
  6
ByLayer
 10
15.9750000000000583
 20
4.4999999999999716
 30
0.0
 11
17.175000000000054
 21
4.4999999999999503
 31
0.0
  0
LINE
  5
5B
100
AcDbEntity
100
AcDbLine
  8
Filament Guide Middle
 62
256
370
-1
  6
ByLayer
 10
20.0750000000000561
 20
4.4999999999999645
 30
0.0
 11
21.2750000000000199
 21
4.4999999999999787
 31
0.0
  0
LINE
  5
5C
100
AcDbEntity
100
AcDbLine
  8
Filament Guide Middle
 62
256
370
-1
  6
ByLayer
 10
5.0000000000000426
 20
74.9999999999999716
 30
0.0
 11
29.3750000000000426
 21
74.9999999999999432
 31
0.0
  0
LINE
  5
5D
100
AcDbEntity
100
AcDbLine
  8
Filament Guide Middle
 62
256
370
-1
  6
ByLayer
 10
32.6250000000000711
 20
74.9999999999999432
 30
0.0
 11
75.0000000000000426
 21
74.9999999999999432
 31
0.0
  0
LINE
  5
5E
100
AcDbEntity
100
AcDbLine
  8
Filament Guide Middle
 62
256
370
-1
  6
ByLayer
 10
17.1750000000000362
 20
6.8499999999999837
 30
0.0
 11
17.1750000000000433
 21
8.3499999999999872
 31
0.0
  0
LINE
  5
5F
100
AcDbEntity
100
AcDbLine
  8
Filament Guide Middle
 62
256
370
-1
  6
ByLayer
 10
20.0750000000000632
 20
8.349999999999941
 30
0.0
 11
20.0750000000000384
 21
6.849999999999973
 31
0.0
  0
LINE
  5
60
100
AcDbEntity
100
AcDbLine
  8
Filament Guide Middle
 62
256
370
-1
  6
ByLayer
 10
17.1750000000000433
 20
8.3499999999999872
 30
0.0
 11
20.0750000000000632
 21
8.349999999999941
 31
0.0
  0
LINE
  5
61
100
AcDbEntity
100
AcDbLine
  8
Filament Guide Middle
 62
256
370
-1
  6
ByLayer
 10
42.4250000000000043
 20
8.2999999999999616
 30
0.0
 11
42.4250000000000043
 21
6.7999999999999616
 31
0.0
  0
LINE
  5
62
100
AcDbEntity
100
AcDbLine
  8
Filament Guide Middle
 62
256
370
-1
  6
ByLayer
 10
45.3250000000000313
 20
8.2999999999999616
 30
0.0
 11
45.3250000000000313
 21
6.7999999999999616
 31
0.0
  0
LINE
  5
63
100
AcDbEntity
100
AcDbLine
  8
Filament Guide Middle
 62
256
370
-1
  6
ByLayer
 10
42.4250000000000043
 20
8.2999999999999616
 30
0.0
 11
45.3250000000000313
 21
8.2999999999999616
 31
0.0
  0
LINE
  5
64
100
AcDbEntity
100
AcDbLine
  8
Filament Guide Middle Honeycomb
 62
256
370
-1
  6
ByLayer
 10
16.4492247596126511
 20
69.9999999999999716
 30
0.0
 11
24.3750000000000426
 21
69.9999999999999716
 31
0.0
  0
LINE
  5
65
100
AcDbEntity
100
AcDbLine
  8
Filament Guide Middle Honeycomb
 62
256
370
-1
  6
ByLayer
 10
24.3750000000000426
 20
69.9999999999999716
 30
0.0
 11
24.3750000000000711
 21
46.4854992430359317
 31
0.0
  0
LINE
  5
66
100
AcDbEntity
100
AcDbLine
  8
Filament Guide Middle Honeycomb
 62
256
370
-1
  6
ByLayer
 10
5.0000000000000426
 20
65.8253834536241271
 30
0.0
 11
5.0000000000000426
 21
48.1899745962155777
 31
0.0
  0
LINE
  5
67
100
AcDbEntity
100
AcDbLine
  8
Filament Guide Middle Honeycomb
 62
256
370
-1
  6
ByLayer
 10
10.2549881065517781
 20
37.9999745962145568
 30
0.0
 11
12.4600637960155751
 21
37.9999745962152531
 31
0.0
  0
LINE
  5
68
100
AcDbEntity
100
AcDbLine
  8
Filament Guide Middle Honeycomb
 62
256
370
-1
  6
ByLayer
 10
10.2549881065517496
 20
27.9999745962155515
 30
0.0
 11
12.4600637960155716
 21
27.9999745962155409
 31
0.0
  0
LINE
  5
69
100
AcDbEntity
100
AcDbLine
  8
Filament Guide Middle Honeycomb
 62
256
370
-1
  6
ByLayer
 10
5.0000000000000355
 20
17.8099745962155396
 30
0.0
 11
5.0000000000000426
 21
9.5746165463758466
 31
0.0
  0
LINE
  5
6A
100
AcDbEntity
100
AcDbLine
  8
Filament Guide Middle Honeycomb
 62
256
370
-1
  6
ByLayer
 10
24.3750000000000426
 20
19.5144499493951749
 30
0.0
 11
24.3750000000000426
 21
11.8499999999999766
 31
0.0
  0
LINE
  5
6B
100
AcDbEntity
100
AcDbLine
  8
Filament Guide Middle Honeycomb
 62
256
370
-1
  6
ByLayer
 10
37.6250000000000711
 20
56.1621069462389286
 30
0.0
 11
37.6250000000000711
 21
69.9999999999999716
 31
0.0
  0
LINE
  5
6C
100
AcDbEntity
100
AcDbLine
  8
Filament Guide Middle Honeycomb
 62
256
370
-1
  6
ByLayer
 10
37.6250000000000711
 20
69.9999999999999716
 30
0.0
 11
65.7007752403875855
 21
69.9999999999999716
 31
0.0
  0
LINE
  5
6D
100
AcDbEntity
100
AcDbLine
  8
Filament Guide Middle Honeycomb
 62
256
370
-1
  6
ByLayer
 10
75.0000000000000426
 20
64.1138095434041873
 30
0.0
 11
75.0000000000000426
 21
49.3324575672765988
 31
0.0
  0
ARC
  5
6E
100
AcDbEntity
  8
Filament Guide Middle Honeycomb
 62
256
370
-1
  6
ByLayer
100
AcDbCircle
 10
10.0000000000000497
 20
69.8999999999999773
 30
0.0
 40
6.4499999999999948
100
AcDbArc
 50
219.1773936864241819
 51
0.8883422500379582
  0
ARC
  5
6F
100
AcDbEntity
  8
Filament Guide Middle Honeycomb
 62
256
370
-1
  6
ByLayer
100
AcDbCircle
 10
5.0000000000000426
 20
41.7399745962155322
 30
0.0
 40
6.4500000000000099
100
AcDbArc
 50
324.560361221903861
 51
90.0
  0
ARC
  5
70
100
AcDbEntity
  8
Filament Guide Middle Honeycomb
 62
256
370
-1
  6
ByLayer
100
AcDbCircle
 10
25.0000000000000426
 20
32.9999745962155515
 30
0.0
 40
13.5000000000000107
100
AcDbArc
 50
92.6535308674057916
 51
158.2615392084795189
  0
ARC
  5
71
100
AcDbEntity
  8
Filament Guide Middle Honeycomb
 62
256
370
-1
  6
ByLayer
100
AcDbCircle
 10
5.0000000000000426
 20
24.2599745962155637
 30
0.0
 40
6.4500000000000011
100
AcDbArc
 50
270.0
 51
35.4396387780963877
  0
ARC
  5
72
100
AcDbEntity
  8
Filament Guide Middle Honeycomb
 62
256
370
-1
  6
ByLayer
100
AcDbCircle
 10
25.0000000000000426
 20
32.9999745962155515
 30
0.0
 40
13.5000000000000018
100
AcDbArc
 50
201.7384607915204811
 51
267.3464691325941658
  0
ARC
  5
73
100
AcDbEntity
  8
Filament Guide Middle Honeycomb
 62
256
370
-1
  6
ByLayer
100
AcDbCircle
 10
53.5000000000000426
 20
32.9999745962155373
 30
0.0
 40
27.0000000000000036
100
AcDbArc
 50
37.2221338960613224
 51
90.0
  0
ARC
  5
74
100
AcDbEntity
  8
Filament Guide Middle Honeycomb
 62
256
370
-1
  6
ByLayer
100
AcDbCircle
 10
51.5000000000000426
 20
32.9999745962155231
 30
0.0
 40
27.0
100
AcDbArc
 50
90.0
 51
120.92321565535525
  0
ARC
  5
75
100
AcDbEntity
  8
Filament Guide Middle Honeycomb
 62
256
370
-1
  6
ByLayer
100
AcDbCircle
 10
72.1500000000000483
 20
69.8999999999999773
 30
0.0
 40
6.4499999999998918
100
AcDbArc
 50
179.1116577499624611
 51
296.2226465049216131
  0
ARC
  5
76
100
AcDbEntity
  8
Filament Guide Middle Honeycomb
 62
256
370
-1
  6
ByLayer
100
AcDbCircle
 10
10.0000000000000071
 20
5.4999999999999822
 30
0.0
 40
6.4500000000000002
100
AcDbArc
 50
79.8976949439641686
 51
140.8226063135757045
  0
LINE
  5
77
100
AcDbEntity
100
AcDbLine
  8
Filament Guide Middle Honeycomb
 62
256
370
-1
  6
ByLayer
 10
24.3750000000000426
 20
11.8499999999999766
 30
0.0
 11
11.1313708498985022
 21
11.8499999999999908
 31
0.0
  0
LINE
  5
78
100
AcDbEntity
100
AcDbLine
  8
Filament Guide Middle Honeycomb
 62
256
370
-1
  6
ByLayer
 10
51.5000000000000426
 20
59.9999745962155302
 30
0.0
 11
53.5000000000000426
 21
59.9999745962155373
 31
0.0
  0
LINE
  5
79
100
AcDbEntity
100
AcDbLine
  8
Filament Guide Middle
 62
256
370
-1
  6
ByLayer
 10
29.3750000000000426
 20
74.9999999999999432
 30
0.0
 11
29.3750000000000711
 21
39.963046834818293
 31
0.0
  0
ARC
  5
7A
100
AcDbEntity
  8
Filament Guide Middle
 62
256
370
-1
  6
ByLayer
100
AcDbCircle
 10
24.5000000000000426
 20
32.9999745962155444
 30
0.0
 40
8.5
100
AcDbArc
 50
55.0032890794845315
 51
294.0726538984896479
  0
ARC
  5
7B
100
AcDbEntity
  8
Filament Guide Middle
 62
256
370
-1
  6
ByLayer
100
AcDbCircle
 10
28.3750000000000426
 20
24.3261994665502499
 30
0.0
 40
1.0
100
AcDbArc
 50
0.0
 51
114.0726538984894631
  0
ARC
  5
7C
100
AcDbEntity
  8
Filament Guide Middle
 62
256
370
-1
  6
ByLayer
100
AcDbCircle
 10
54.6250000000000711
 20
32.9999745962155302
 30
0.0
 40
21.0
100
AcDbArc
 50
270.0
 51
90.0
  0
LINE
  5
7D
100
AcDbEntity
100
AcDbLine
  8
Filament Guide Middle
 62
256
370
-1
  6
ByLayer
 10
52.6250000000000426
 20
53.9999745962155302
 30
0.0
 11
54.6250000000000711
 21
53.9999745962155302
 31
0.0
  0
LINE
  5
7E
100
AcDbEntity
100
AcDbLine
  8
Filament Guide Middle
 62
256
370
-1
  6
ByLayer
 10
52.6250000000000497
 20
11.9999745962155338
 30
0.0
 11
54.6250000000000426
 21
11.999974596215516
 31
0.0
  0
LINE
  5
7F
100
AcDbEntity
100
AcDbLine
  8
Filament Guide Middle
 62
256
370
-1
  6
ByLayer
 10
32.6250000000000711
 20
74.9999999999999432
 30
0.0
 11
32.6250000000000426
 21
39.4030988336483574
 31
0.0
  0
ARC
  5
80
100
AcDbEntity
  8
Filament Guide Middle
 62
256
370
-1
  6
ByLayer
100
AcDbCircle
 10
52.6250000000000711
 20
32.9999745962155231
 30
0.0
 40
21.0
100
AcDbArc
 50
90.0
 51
162.2472098380533509
  0
LINE
  5
81
100
AcDbEntity
100
AcDbLine
  8
Filament Guide Middle
 62
256
370
-1
  6
ByLayer
 10
32.6250000000000426
 20
18.5263995368184808
 30
0.0
 11
33.1089679692619328
 21
24.0581787383431411
 31
0.0
  0
ARC
  5
82
100
AcDbEntity
  8
Filament Guide Middle
 62
256
370
-1
  6
ByLayer
100
AcDbCircle
 10
52.6250000000000711
 20
32.9999745962155231
 30
0.0
 40
21.0
100
AcDbArc
 50
204.9492768706963943
 51
270.0
  0
ARC
  5
83
100
AcDbEntity
  8
Filament Guide Middle
 62
256
370
-1
  6
ByLayer
100
AcDbCircle
 10
33.358016643784886
 20
24.036389802656231
 30
0.0
 40
0.25
100
AcDbArc
 50
24.9492768706953996
 51
175.0000000000003126
  0
LINE
  5
84
100
AcDbEntity
100
AcDbLine
  8
Filament Guide Middle
 62
256
370
-1
  6
ByLayer
 10
17.175000000000022
 20
-0.0000000000000284
 30
0.0
 11
0.0
 21
0.0
 31
0.0
  0
LINE
  5
85
100
AcDbEntity
100
AcDbLine
  8
Filament Guide Middle
 62
256
370
-1
  6
ByLayer
 10
20.0750000000000242
 20
-0.0000000000000284
 30
0.0
 11
29.3750000000000284
 21
-0.0000000000000497
 31
0.0
  0
LINE
  5
86
100
AcDbEntity
100
AcDbLine
  8
Filament Guide Middle
 62
256
370
-1
  6
ByLayer
 10
32.6250000000000711
 20
-0.0000000000000568
 30
0.0
 11
42.4250000000000043
 21
-0.0000000000000568
 31
0.0
  0
LINE
  5
87
100
AcDbEntity
100
AcDbLine
  8
Filament Guide Middle
 62
256
370
-1
  6
ByLayer
 10
45.3250000000000597
 20
-0.0000000000000497
 30
0.0
 11
80.0
 21
-0.0000000000000853
 31
0.0
  0
LINE
  5
88
100
AcDbEntity
100
AcDbLine
  8
Filament Guide Middle
 62
256
370
-1
  6
ByLayer
 10
0.0
 20
0.0
 30
0.0
 11
0.0000000000000426
 21
69.9999999999999432
 31
0.0
  0
LINE
  5
89
100
AcDbEntity
100
AcDbLine
  8
Filament Guide Middle
 62
256
370
-1
  6
ByLayer
 10
17.175000000000054
 20
4.4999999999999503
 30
0.0
 11
17.175000000000022
 21
-0.0000000000000284
 31
0.0
  0
LINE
  5
8A
100
AcDbEntity
100
AcDbLine
  8
Filament Guide Middle
 62
256
370
-1
  6
ByLayer
 10
20.0750000000000561
 20
4.4999999999999645
 30
0.0
 11
20.0750000000000242
 21
-0.0000000000000284
 31
0.0
  0
LINE
  5
8B
100
AcDbEntity
100
AcDbLine
  8
Filament Guide Middle
 62
256
370
-1
  6
ByLayer
 10
29.3750000000000426
 20
24.326199466550257
 30
0.0
 11
29.3750000000000284
 21
-0.0000000000000497
 31
0.0
  0
LINE
  5
8C
100
AcDbEntity
100
AcDbLine
  8
Filament Guide Middle
 62
256
370
-1
  6
ByLayer
 10
32.6250000000000426
 20
18.5263995368184808
 30
0.0
 11
32.6250000000000711
 21
-0.0000000000000568
 31
0.0
  0
LINE
  5
8D
100
AcDbEntity
100
AcDbLine
  8
Filament Guide Middle
 62
256
370
-1
  6
ByLayer
 10
42.4250000000000327
 20
4.4999999999999787
 30
0.0
 11
42.4250000000000043
 21
-0.0000000000000568
 31
0.0
  0
LINE
  5
8E
100
AcDbEntity
100
AcDbLine
  8
Filament Guide Middle
 62
256
370
-1
  6
ByLayer
 10
45.3250000000000099
 20
4.4999999999999503
 30
0.0
 11
45.3250000000000597
 21
-0.0000000000000497
 31
0.0
  0
LINE
  5
8F
100
AcDbEntity
100
AcDbLine
  8
Filament Guide Middle
 62
256
370
-1
  6
ByLayer
 10
80.0000000000000426
 20
69.9999999999999432
 30
0.0
 11
80.0
 21
-0.0000000000000853
 31
0.0
  0
ENDSEC
  0
SECTION
  2
OBJECTS
  0
DICTIONARY
  5
C
100
AcDbDictionary
280
0
281
1
  3
ACAD_GROUP
350
D
  3
ACAD_LAYOUT
350
1A
  3
ACAD_MLINESTYLE
350
17
  3
ACAD_PLOTSETTINGS
350
19
  3
ACAD_PLOTSTYLENAME
350
E
  3
AcDbVariableDictionary
350
90
  0
DICTIONARY
  5
D
100
AcDbDictionary
280
0
281
1
  0
ACDBDICTIONARYWDFLT
  5
E
100
AcDbDictionary
281
1
  3
Normal
350
F
100
AcDbDictionaryWithDefault
340
F
  0
ACDBPLACEHOLDER
  5
F
  0
DICTIONARY
  5
17
100
AcDbDictionary
280
0
281
1
  3
Standard
350
18
  0
MLINESTYLE
  5
18
100
AcDbMlineStyle
  2
STANDARD
 70
0
  3

 62
256
 51
90.0
 52
90.0
 71
2
 49
0.5
 62
256
  6
BYLAYER
 49
-0.5
 62
256
  6
BYLAYER
  0
DICTIONARY
  5
19
100
AcDbDictionary
280
0
281
1
  0
DICTIONARY
  5
1A
100
AcDbDictionary
281
1
  3
Layout1
350
1E
  3
Layout2
350
26
  3
Model
350
22
  0
LAYOUT
  5
1E
100
AcDbPlotSettings
  1

  2
C:\Program Files\AutoCAD 2002\plotters\DWF ePlot (optimized for plotting).pc3
  4

  6

 40
0.0
 41
0.0
 42
0.0
 43
0.0
 44
0.0
 45
0.0
 46
0.0
 47
0.0
 48
0.0
 49
0.0
140
0.0
141
0.0
142
1.0
143
1.0
 70
688
 72
0
 73
0
 74
5
  7

 75
16
147
1.0
148
0.0
149
0.0
100
AcDbLayout
  1
Layout1
 70
1
 71
1
 10
0.0
 20
0.0
 11
420.0
 21
297.0
 12
0.0
 22
0.0
 32
0.0
 14
100000000000000000000.0
 24
100000000000000000000.0
 34
100000000000000000000.0
 15
-100000000000000000000.0
 25
-100000000000000000000.0
 35
-100000000000000000000.0
146
0.0
 13
0.0
 23
0.0
 33
0.0
 16
1.0
 26
0.0
 36
0.0
 17
0.0
 27
1.0
 37
0.0
 76
0
330
1B
  0
LAYOUT
  5
22
100
AcDbPlotSettings
  1

  2
C:\Program Files\AutoCAD 2002\plotters\DWF ePlot (optimized for plotting).pc3
  4

  6

 40
0.0
 41
0.0
 42
0.0
 43
0.0
 44
0.0
 45
0.0
 46
0.0
 47
0.0
 48
0.0
 49
0.0
140
0.0
141
0.0
142
1.0
143
1.0
 70
1712
 72
0
 73
0
 74
0
  7

 75
0
147
1.0
148
0.0
149
0.0
100
AcDbLayout
  1
Model
 70
1
 71
0
 10
0.0
 20
0.0
 11
12.0
 21
9.0
 12
0.0
 22
0.0
 32
0.0
 14
0.0
 24
0.0
 34
0.0
 15
0.0
 25
0.0
 35
0.0
146
0.0
 13
0.0
 23
0.0
 33
0.0
 16
1.0
 26
0.0
 36
0.0
 17
0.0
 27
1.0
 37
0.0
 76
0
330
1F
  0
LAYOUT
  5
26
100
AcDbPlotSettings
  1

  2
C:\Program Files\AutoCAD 2002\plotters\DWF ePlot (optimized for plotting).pc3
  4

  6

 40
0.0
 41
0.0
 42
0.0
 43
0.0
 44
0.0
 45
0.0
 46
0.0
 47
0.0
 48
0.0
 49
0.0
140
0.0
141
0.0
142
1.0
143
1.0
 70
688
 72
0
 73
0
 74
5
  7

 75
16
147
1.0
148
0.0
149
0.0
100
AcDbLayout
  1
Layout2
 70
1
 71
2
 10
0.0
 20
0.0
 11
12.0
 21
9.0
 12
0.0
 22
0.0
 32
0.0
 14
0.0
 24
0.0
 34
0.0
 15
0.0
 25
0.0
 35
0.0
146
0.0
 13
0.0
 23
0.0
 33
0.0
 16
1.0
 26
0.0
 36
0.0
 17
0.0
 27
1.0
 37
0.0
 76
0
330
23
  0
DICTIONARY
  5
90
100
AcDbDictionary
281
1
  3
DIMASSOC
350
92
  3
HIDETEXT
350
91
  0
DICTIONARYVAR
  5
91
100
DictionaryVariables
280
0
  1
2
  0
DICTIONARYVAR
  5
92
100
DictionaryVariables
280
0
  1
1
  0
ENDSEC
  0
EOF
