999
dxflib 2.2.0.0
  0
SECTION
  2
HEADER
  9
$ACADVER
  1
AC1015
  9
$HANDSEED
  5
FFFF
  9
$DIMASZ
 40
2.5
  9
$PLIMMIN
 10
0.0
 20
0.0
  9
$DIMEXE
 40
1.25
  9
$DIMGAP
 40
0.625
  9
$PLIMMAX
 10
210.0
 20
297.0
  9
$INSUNITS
 70
4
  9
$DIMSTYLE
  2
Standard
  9
$CLAYER
  8
0
  9
$DIMEXO
 40
0.625
  9
$DIMTXT
 40
2.5
  9
$CLAYER
  8
0
  0
ENDSEC
  0
SECTION
  2
TABLES
  0
TABLE
  2
VPORT
  5
8
100
AcDbSymbolTable
 70
1
  0
VPORT
  5
30
100
AcDbSymbolTableRecord
100
AcDbViewportTableRecord
  2
*Active
 70
0
 10
0.0
 20
0.0
 11
1.0
 21
1.0
 12
286.3055555555554861
 22
148.5
 13
0.0
 23
0.0
 14
10.0
 24
10.0
 15
10.0
 25
10.0
 16
0.0
 26
0.0
 36
1.0
 17
0.0
 27
0.0
 37
0.0
 40
297.0
 41
1.92798353909465
 42
50.0
 43
0.0
 44
0.0
 50
0.0
 51
0.0
 71
0
 72
100
 73
1
 74
3
 75
1
 76
1
 77
0
 78
0
281
0
 65
1
110
0.0
120
0.0
130
0.0
111
1.0
121
0.0
131
0.0
112
0.0
122
1.0
132
0.0
 79
0
146
0.0
  0
ENDTAB
  0
TABLE
  2
LTYPE
  5
5
100
AcDbSymbolTable
 70
21
  0
LTYPE
  5
14
100
AcDbSymbolTableRecord
100
AcDbLinetypeTableRecord
  2
ByBlock
 70
0
  3

 72
65
 73
0
 40
0.0
  0
LTYPE
  5
15
100
AcDbSymbolTableRecord
100
AcDbLinetypeTableRecord
  2
ByLayer
 70
0
  3

 72
65
 73
0
 40
0.0
  0
LTYPE
  5
16
100
AcDbSymbolTableRecord
100
AcDbLinetypeTableRecord
  2
CONTINUOUS
 70
0
  3
Solid line
 72
65
 73
0
 40
0.0
  0
LTYPE
  5
31
100
AcDbSymbolTableRecord
100
AcDbLinetypeTableRecord
  2
DOT
 70
0
  3
Dot . . . . . . . . . . . . . . . . . . . . . .
 72
65
 73
2
 40
6.3499999999999996
 49
0.0
 74
0
 49
-6.3499999999999996
 74
0
  0
LTYPE
  5
32
100
AcDbSymbolTableRecord
100
AcDbLinetypeTableRecord
  2
DOT2
 70
0
  3
Dot (.5x) .....................................
 72
65
 73
2
 40
3.1749999999999998
 49
0.0
 74
0
 49
-3.1749999999999998
 74
0
  0
LTYPE
  5
33
100
AcDbSymbolTableRecord
100
AcDbLinetypeTableRecord
  2
DOTX2
 70
0
  3
Dot (2x) .  .  .  .  .  .  .  .  .  .  .  .  .
 72
65
 73
2
 40
12.6999999999999993
 49
0.0
 74
0
 49
-12.6999999999999993
 74
0
  0
LTYPE
  5
34
100
AcDbSymbolTableRecord
100
AcDbLinetypeTableRecord
  2
DASHED
 70
0
  3
Dashed __ __ __ __ __ __ __ __ __ __ __ __ __ _
 72
65
 73
2
 40
19.0500000000000007
 49
12.6999999999999993
 74
0
 49
-6.3499999999999996
 74
0
  0
LTYPE
  5
35
100
AcDbSymbolTableRecord
100
AcDbLinetypeTableRecord
  2
DASHED2
 70
0
  3
Dashed (.5x) _ _ _ _ _ _ _ _ _ _ _ _ _ _ _ _ _
 72
65
 73
2
 40
9.5250000000000004
 49
6.3499999999999996
 74
0
 49
-3.1749999999999998
 74
0
  0
LTYPE
  5
36
100
AcDbSymbolTableRecord
100
AcDbLinetypeTableRecord
  2
DASHEDX2
 70
0
  3
Dashed (2x) ____  ____  ____  ____  ____  ___
 72
65
 73
2
 40
38.1000000000000014
 49
25.3999999999999986
 74
0
 49
-12.6999999999999993
 74
0
  0
LTYPE
  5
37
100
AcDbSymbolTableRecord
100
AcDbLinetypeTableRecord
  2
DASHDOT
 70
0
  3
Dash dot __ . __ . __ . __ . __ . __ . __ . __
 72
65
 73
4
 40
25.3999999999999986
 49
12.6999999999999993
 74
0
 49
-6.3499999999999996
 74
0
 49
0.0
 74
0
 49
-6.3499999999999996
 74
0
  0
LTYPE
  5
38
100
AcDbSymbolTableRecord
100
AcDbLinetypeTableRecord
  2
DASHDOT2
 70
0
  3
Dash dot (.5x) _._._._._._._._._._._._._._._.
 72
65
 73
4
 40
12.6999999999999993
 49
6.3499999999999996
 74
0
 49
-3.1749999999999998
 74
0
 49
0.0
 74
0
 49
-3.1749999999999998
 74
0
  0
LTYPE
  5
39
100
AcDbSymbolTableRecord
100
AcDbLinetypeTableRecord
  2
DASHDOTX2
 70
0
  3
Dash dot (2x) ____  .  ____  .  ____  .  ___
 72
65
 73
4
 40
50.7999999999999972
 49
25.3999999999999986
 74
0
 49
-12.6999999999999993
 74
0
 49
0.0
 74
0
 49
-12.6999999999999993
 74
0
  0
LTYPE
  5
3A
100
AcDbSymbolTableRecord
100
AcDbLinetypeTableRecord
  2
DIVIDE
 70
0
  3
Divide ____ . . ____ . . ____ . . ____ . . ____
 72
65
 73
6
 40
31.75
 49
12.6999999999999993
 74
0
 49
-6.3499999999999996
 74
0
 49
0.0
 74
0
 49
-6.3499999999999996
 74
0
 49
0.0
 74
0
 49
-6.3499999999999996
 74
0
  0
LTYPE
  5
3B
100
AcDbSymbolTableRecord
100
AcDbLinetypeTableRecord
  2
DIVIDE2
 70
0
  3
Divide (.5x) __..__..__..__..__..__..__..__.._
 72
65
 73
6
 40
15.875
 49
6.3499999999999996
 74
0
 49
-3.1749999999999998
 74
0
 49
0.0
 74
0
 49
-3.1749999999999998
 74
0
 49
0.0
 74
0
 49
-3.1749999999999998
 74
0
  0
LTYPE
  5
3C
100
AcDbSymbolTableRecord
100
AcDbLinetypeTableRecord
  2
DIVIDEX2
 70
0
  3
Divide (2x) ________  .  .  ________  .  .  _
 72
65
 73
6
 40
63.5
 49
25.3999999999999986
 74
0
 49
-12.6999999999999993
 74
0
 49
0.0
 74
0
 49
-12.6999999999999993
 74
0
 49
0.0
 74
0
 49
-12.6999999999999993
 74
0
  0
LTYPE
  5
3D
100
AcDbSymbolTableRecord
100
AcDbLinetypeTableRecord
  2
CENTER
 70
0
  3
Center ____ _ ____ _ ____ _ ____ _ ____ _ ____
 72
65
 73
4
 40
50.7999999999999972
 49
31.75
 74
0
 49
-6.3499999999999996
 74
0
 49
6.3499999999999996
 74
0
 49
-6.3499999999999996
 74
0
  0
LTYPE
  5
3E
100
AcDbSymbolTableRecord
100
AcDbLinetypeTableRecord
  2
CENTER2
 70
0
  3
Center (.5x) ___ _ ___ _ ___ _ ___ _ ___ _ ___
 72
65
 73
4
 40
28.5749999999999993
 49
19.0500000000000007
 74
0
 49
-3.1749999999999998
 74
0
 49
3.1749999999999998
 74
0
 49
-3.1749999999999998
 74
0
  0
LTYPE
  5
3F
100
AcDbSymbolTableRecord
100
AcDbLinetypeTableRecord
  2
CENTERX2
 70
0
  3
Center (2x) ________  __  ________  __  _____
 72
65
 73
4
 40
101.5999999999999943
 49
63.5
 74
0
 49
-12.6999999999999993
 74
0
 49
12.6999999999999993
 74
0
 49
-12.6999999999999993
 74
0
  0
LTYPE
  5
40
100
AcDbSymbolTableRecord
100
AcDbLinetypeTableRecord
  2
BORDER
 70
0
  3
Border __ __ . __ __ . __ __ . __ __ . __ __ .
 72
65
 73
6
 40
44.4500000000000028
 49
12.6999999999999993
 74
0
 49
-6.3499999999999996
 74
0
 49
12.6999999999999993
 74
0
 49
-6.3499999999999996
 74
0
 49
0.0
 74
0
 49
-6.3499999999999996
 74
0
  0
LTYPE
  5
41
100
AcDbSymbolTableRecord
100
AcDbLinetypeTableRecord
  2
BORDER2
 70
0
  3
Border (.5x) __.__.__.__.__.__.__.__.__.__.__.
 72
65
 73
6
 40
22.2250000000000014
 49
6.3499999999999996
 74
0
 49
-3.1749999999999998
 74
0
 49
6.3499999999999996
 74
0
 49
-3.1749999999999998
 74
0
 49
0.0
 74
0
 49
-3.1749999999999998
 74
0
  0
LTYPE
  5
42
100
AcDbSymbolTableRecord
100
AcDbLinetypeTableRecord
  2
BORDERX2
 70
0
  3
Border (2x) ____  ____  .  ____  ____  .  ___
 72
65
 73
6
 40
88.9000000000000057
 49
25.3999999999999986
 74
0
 49
-12.6999999999999993
 74
0
 49
25.3999999999999986
 74
0
 49
-12.6999999999999993
 74
0
 49
0.0
 74
0
 49
-12.6999999999999993
 74
0
  0
ENDTAB
  0
TABLE
  2
LAYER
  5
2
100
AcDbSymbolTable
 70
8
  0
LAYER
  5
10
100
AcDbSymbolTableRecord
100
AcDbLayerTableRecord
  2
0
 70
0
 62
7
420
0
  6
CONTINUOUS
370
25
390
F
  0
LAYER
  5
43
100
AcDbSymbolTableRecord
100
AcDbLayerTableRecord
  2
Filament Guide Middle
 70
0
 62
7
420
0
  6
CONTINUOUS
370
0
390
F
  0
LAYER
  5
44
100
AcDbSymbolTableRecord
100
AcDbLayerTableRecord
  2
Filament Guide Middle Text
 70
0
 62
4
420
65535
  6
CONTINUOUS
370
0
390
F
  0
LAYER
  5
45
100
AcDbSymbolTableRecord
100
AcDbLayerTableRecord
  2
Idler Wheel Text
 70
0
 62
4
420
65535
  6
CONTINUOUS
370
0
390
F
  0
LAYER
  5
46
100
AcDbSymbolTableRecord
100
AcDbLayerTableRecord
  2
Idler Wheel
 70
0
 62
7
420
0
  6
CONTINUOUS
370
0
390
F
  0
LAYER
  5
47
100
AcDbSymbolTableRecord
100
AcDbLayerTableRecord
  2
Filament Guide Middle Honeycomb
 70
0
 62
7
420
0
  6
CONTINUOUS
370
0
390
F
  0
LAYER
  5
48
100
AcDbSymbolTableRecord
100
AcDbLayerTableRecord
  2
Motor Plate
 70
0
 62
7
420
0
  6
CONTINUOUS
370
0
390
F
  0
LAYER
  5
49
100
AcDbSymbolTableRecord
100
AcDbLayerTableRecord
  2
Motor Plate Text
 70
0
 62
4
420
65535
  6
CONTINUOUS
370
0
390
F
  0
ENDTAB
  0
TABLE
  2
STYLE
  5
3
100
AcDbSymbolTable
 70
1
  0
STYLE
  5
11
100
AcDbSymbolTableRecord
100
AcDbTextStyleTableRecord
  2
Standard
 70
0
 40
0.0
 41
0.75
 50
0.0
 71
0
 42
2.5
  3
txt
  4

  0
ENDTAB
  0
TABLE
  2
VIEW
  5
6
100
AcDbSymbolTable
 70
0
  0
ENDTAB
  0
TABLE
  2
UCS
  5
7
100
AcDbSymbolTable
 70
0
  0
ENDTAB
  0
TABLE
  2
APPID
  5
9
100
AcDbSymbolTable
 70
1
  0
APPID
  5
12
100
AcDbSymbolTableRecord
100
AcDbRegAppTableRecord
  2
ACAD
 70
0
  0
ENDTAB
  0
TABLE
  2
DIMSTYLE
  5
A
100
AcDbSymbolTable
 70
1
100
AcDbDimStyleTable
 71
0
  0
DIMSTYLE
105
27
100
AcDbSymbolTableRecord
100
AcDbDimStyleTableRecord
  2
Standard
 41
2.5
 42
0.625
 43
3.75
 44
1.25
 70
0
 73
0
 74
0
 77
1
 78
8
140
2.5
141
2.5
143
0.03937007874016
147
0.625
171
3
172
1
271
2
272
2
274
3
278
44
283
0
284
8
340
11
  0
ENDTAB
  0
TABLE
  2
BLOCK_RECORD
  5
1
100
AcDbSymbolTable
 70
1
  0
BLOCK_RECORD
  5
1F
100
AcDbSymbolTableRecord
100
AcDbBlockTableRecord
  2
*Model_Space
340
22
  0
BLOCK_RECORD
  5
1B
100
AcDbSymbolTableRecord
100
AcDbBlockTableRecord
  2
*Paper_Space
340
1E
  0
BLOCK_RECORD
  5
23
100
AcDbSymbolTableRecord
100
AcDbBlockTableRecord
  2
*Paper_Space0
340
26
  0
ENDTAB
  0
ENDSEC
  0
SECTION
  2
BLOCKS
  0
BLOCK
  5
20
100
AcDbEntity
  8
0
100
AcDbBlockBegin
  2
*Model_Space
 70
0
 10
0.0
 20
0.0
 30
0.0
  3
*Model_Space
  1

  0
ENDBLK
  5
21
100
AcDbEntity
  8
0
100
AcDbBlockEnd
  0
BLOCK
  5
1C
100
AcDbEntity
 67
1
  8
0
100
AcDbBlockBegin
  2
*Paper_Space
 70
0
 10
0.0
 20
0.0
 30
0.0
  3
*Paper_Space
  1

  0
ENDBLK
  5
1D
100
AcDbEntity
 67
1
  8
0
100
AcDbBlockEnd
  0
BLOCK
  5
24
100
AcDbEntity
  8
0
100
AcDbBlockBegin
  2
*Paper_Space0
 70
0
 10
0.0
 20
0.0
 30
0.0
  3
*Paper_Space0
  1

  0
ENDBLK
  5
25
100
AcDbEntity
  8
0
100
AcDbBlockEnd
  0
ENDSEC
  0
SECTION
  2
ENTITIES
  0
CIRCLE
  5
4A
100
AcDbEntity
100
AcDbCircle
  8
Filament Guide Middle
 62
256
370
-1
  6
ByLayer
 10
9.9999999999999964
 20
7.7500000000000355
 30
0.0
 40
1.45
  0
CIRCLE
  5
4B
100
AcDbEntity
100
AcDbCircle
  8
Filament Guide Middle
 62
256
370
-1
  6
ByLayer
 10
10.0000000000000107
 20
72.1500000000000341
 30
0.0
 40
1.45
  0
CIRCLE
  5
4C
100
AcDbEntity
100
AcDbCircle
  8
Filament Guide Middle
 62
256
370
-1
  6
ByLayer
 10
72.1500000000000057
 20
72.1500000000000057
 30
0.0
 40
1.45
  0
CIRCLE
  5
4D
100
AcDbEntity
100
AcDbCircle
  8
Filament Guide Middle
 62
256
370
-1
  6
ByLayer
 10
72.1500000000000057
 20
7.75
 30
0.0
 40
1.45
  0
LINE
  5
4E
100
AcDbEntity
100
AcDbLine
  8
Filament Guide Middle
 62
256
370
-1
  6
ByLayer
 10
80.0
 20
72.25
 30
0.0
 11
79.9999999999999858
 21
2.7499999999999787
 31
0.0
  0
ARC
  5
4F
100
AcDbEntity
  8
Filament Guide Middle
 62
256
370
-1
  6
ByLayer
100
AcDbCircle
 10
75.0
 20
72.25
 30
0.0
 40
5.0
100
AcDbArc
 50
0.0
 51
90.0
  0
LINE
  5
50
100
AcDbEntity
100
AcDbLine
  8
Filament Guide Middle
 62
256
370
-1
  6
ByLayer
 10
-0.0000000000000071
 20
2.7500000000000284
 30
0.0
 11
0.0
 21
72.25
 31
0.0
  0
ARC
  5
51
100
AcDbEntity
  8
Filament Guide Middle
 62
256
370
-1
  6
ByLayer
100
AcDbCircle
 10
5.0
 20
72.25
 30
0.0
 40
5.0
100
AcDbArc
 50
90.0
 51
180.0
  0
CIRCLE
  5
52
100
AcDbEntity
100
AcDbCircle
  8
Filament Guide Middle
 62
256
370
-1
  6
ByLayer
 10
5.0
 20
43.9899745962155748
 30
0.0
 40
1.45
  0
CIRCLE
  5
53
100
AcDbEntity
100
AcDbCircle
  8
Filament Guide Middle
 62
256
370
-1
  6
ByLayer
 10
4.9999999999999929
 20
26.5099745962156028
 30
0.0
 40
1.45
  0
LINE
  5
54
100
AcDbEntity
100
AcDbLine
  8
Filament Guide Middle
 62
256
370
-1
  6
ByLayer
 10
46.5249999999999915
 20
9.0500000000000149
 30
0.0
 11
46.5250000000000128
 21
6.7500000000000213
 31
0.0
  0
LINE
  5
55
100
AcDbEntity
100
AcDbLine
  8
Filament Guide Middle
 62
256
370
-1
  6
ByLayer
 10
41.2249999999999872
 20
9.0500000000000185
 30
0.0
 11
41.2250000000000014
 21
6.7500000000000213
 31
0.0
  0
LINE
  5
56
100
AcDbEntity
100
AcDbLine
  8
Filament Guide Middle
 62
256
370
-1
  6
ByLayer
 10
42.4249999999999972
 20
9.0500000000000149
 30
0.0
 11
41.2249999999999872
 21
9.0500000000000185
 31
0.0
  0
LINE
  5
57
100
AcDbEntity
100
AcDbLine
  8
Filament Guide Middle
 62
256
370
-1
  6
ByLayer
 10
45.3250000000000028
 20
9.0500000000000185
 30
0.0
 11
46.5249999999999915
 21
9.0500000000000149
 31
0.0
  0
LINE
  5
58
100
AcDbEntity
100
AcDbLine
  8
Filament Guide Middle
 62
256
370
-1
  6
ByLayer
 10
21.2749999999999737
 20
9.1000000000000369
 30
0.0
 11
21.2749999999999773
 21
6.7500000000000355
 31
0.0
  0
LINE
  5
59
100
AcDbEntity
100
AcDbLine
  8
Filament Guide Middle
 62
256
370
-1
  6
ByLayer
 10
15.9749999999999979
 20
9.1000000000000334
 30
0.0
 11
15.9750000000000121
 21
6.7500000000000213
 31
0.0
  0
LINE
  5
5A
100
AcDbEntity
100
AcDbLine
  8
Filament Guide Middle
 62
256
370
-1
  6
ByLayer
 10
15.9749999999999979
 20
9.1000000000000334
 30
0.0
 11
17.1749999999999865
 21
9.1000000000000441
 31
0.0
  0
LINE
  5
5B
100
AcDbEntity
100
AcDbLine
  8
Filament Guide Middle
 62
256
370
-1
  6
ByLayer
 10
20.0749999999999957
 20
9.1000000000000227
 30
0.0
 11
21.2749999999999737
 21
9.1000000000000369
 31
0.0
  0
LINE
  5
5C
100
AcDbEntity
100
AcDbLine
  8
Filament Guide Middle
 62
256
370
-1
  6
ByLayer
 10
41.2250000000000014
 20
6.7500000000000213
 30
0.0
 11
42.4249999999999972
 21
6.7500000000000284
 31
0.0
  0
LINE
  5
5D
100
AcDbEntity
100
AcDbLine
  8
Filament Guide Middle
 62
256
370
-1
  6
ByLayer
 10
42.4249999999999972
 20
6.7500000000000284
 30
0.0
 11
42.4249999999999901
 21
2.7500000000000071
 31
0.0
  0
LINE
  5
5E
100
AcDbEntity
100
AcDbLine
  8
Filament Guide Middle
 62
256
370
-1
  6
ByLayer
 10
45.3249999999999886
 20
6.7500000000000142
 30
0.0
 11
46.5250000000000128
 21
6.7500000000000213
 31
0.0
  0
LINE
  5
5F
100
AcDbEntity
100
AcDbLine
  8
Filament Guide Middle
 62
256
370
-1
  6
ByLayer
 10
45.3249999999999886
 20
6.7500000000000142
 30
0.0
 11
45.3250000000000028
 21
2.7500000000000071
 31
0.0
  0
LINE
  5
60
100
AcDbEntity
100
AcDbLine
  8
Filament Guide Middle
 62
256
370
-1
  6
ByLayer
 10
45.3250000000000028
 20
2.7500000000000071
 30
0.0
 11
79.9999999999999858
 21
2.7499999999999787
 31
0.0
  0
LINE
  5
61
100
AcDbEntity
100
AcDbLine
  8
Filament Guide Middle
 62
256
370
-1
  6
ByLayer
 10
17.1749999999999972
 20
2.7500000000000142
 30
0.0
 11
-0.0000000000000071
 21
2.7500000000000284
 31
0.0
  0
LINE
  5
62
100
AcDbEntity
100
AcDbLine
  8
Filament Guide Middle
 62
256
370
-1
  6
ByLayer
 10
17.1750000000000043
 20
6.7500000000000142
 30
0.0
 11
17.1749999999999972
 21
2.7500000000000142
 31
0.0
  0
LINE
  5
63
100
AcDbEntity
100
AcDbLine
  8
Filament Guide Middle
 62
256
370
-1
  6
ByLayer
 10
15.9750000000000121
 20
6.7500000000000213
 30
0.0
 11
17.1750000000000043
 21
6.7500000000000142
 31
0.0
  0
LINE
  5
64
100
AcDbEntity
100
AcDbLine
  8
Filament Guide Middle
 62
256
370
-1
  6
ByLayer
 10
20.0750000000000064
 20
6.7500000000000213
 30
0.0
 11
21.2749999999999773
 21
6.7500000000000355
 31
0.0
  0
LINE
  5
65
100
AcDbEntity
100
AcDbLine
  8
Filament Guide Middle
 62
256
370
-1
  6
ByLayer
 10
20.0750000000000064
 20
6.7500000000000213
 30
0.0
 11
20.0749999999999922
 21
2.7500000000000213
 31
0.0
  0
LINE
  5
66
100
AcDbEntity
100
AcDbLine
  8
Filament Guide Middle
 62
256
370
-1
  6
ByLayer
 10
20.0749999999999922
 20
2.7500000000000213
 30
0.0
 11
29.3749999999999893
 21
2.7500000000000071
 31
0.0
  0
LINE
  5
67
100
AcDbEntity
100
AcDbLine
  8
Filament Guide Middle
 62
256
370
-1
  6
ByLayer
 10
32.6250000000000142
 20
2.7500000000000142
 30
0.0
 11
42.4249999999999901
 21
2.7500000000000071
 31
0.0
  0
LINE
  5
68
100
AcDbEntity
100
AcDbLine
  8
Filament Guide Middle
 62
256
370
-1
  6
ByLayer
 10
4.9999999999999929
 20
77.25
 30
0.0
 11
29.3750000000000142
 21
77.25
 31
0.0
  0
LINE
  5
69
100
AcDbEntity
100
AcDbLine
  8
Filament Guide Middle
 62
256
370
-1
  6
ByLayer
 10
32.6250000000000142
 20
77.25
 30
0.0
 11
75.0
 21
77.25
 31
0.0
  0
LINE
  5
6A
100
AcDbEntity
100
AcDbLine
  8
Filament Guide Middle
 62
256
370
-1
  6
ByLayer
 10
17.1749999999999865
 20
9.1000000000000441
 30
0.0
 11
17.1749999999999936
 21
10.6000000000000334
 31
0.0
  0
LINE
  5
6B
100
AcDbEntity
100
AcDbLine
  8
Filament Guide Middle
 62
256
370
-1
  6
ByLayer
 10
20.0750000000000028
 20
10.6000000000000121
 30
0.0
 11
20.0749999999999957
 21
9.1000000000000227
 31
0.0
  0
LINE
  5
6C
100
AcDbEntity
100
AcDbLine
  8
Filament Guide Middle
 62
256
370
-1
  6
ByLayer
 10
17.1749999999999936
 20
10.6000000000000334
 30
0.0
 11
20.0750000000000028
 21
10.6000000000000121
 31
0.0
  0
LINE
  5
6D
100
AcDbEntity
100
AcDbLine
  8
Filament Guide Middle
 62
256
370
-1
  6
ByLayer
 10
42.4249999999999901
 20
10.5500000000000185
 30
0.0
 11
42.4249999999999972
 21
9.0500000000000149
 31
0.0
  0
LINE
  5
6E
100
AcDbEntity
100
AcDbLine
  8
Filament Guide Middle
 62
256
370
-1
  6
ByLayer
 10
45.3249999999999886
 20
10.5500000000000149
 30
0.0
 11
45.3250000000000028
 21
9.0500000000000185
 31
0.0
  0
LINE
  5
6F
100
AcDbEntity
100
AcDbLine
  8
Filament Guide Middle
 62
256
370
-1
  6
ByLayer
 10
42.4249999999999901
 20
10.5500000000000185
 30
0.0
 11
45.3249999999999886
 21
10.5500000000000149
 31
0.0
  0
ARC
  5
70
100
AcDbEntity
  8
Filament Guide Middle
 62
256
370
-1
  6
ByLayer
100
AcDbCircle
 10
51.5
 20
35.2499745962155799
 30
0.0
 40
22.0
100
AcDbArc
 50
90.0
 51
149.087689318362834
  0
LINE
  5
71
100
AcDbEntity
100
AcDbLine
  8
Filament Guide Middle
 62
256
370
-1
  6
ByLayer
 10
32.6250000000000142
 20
77.25
 30
0.0
 11
32.6250000000000142
 21
46.5519379212313211
 31
0.0
  0
LINE
  5
72
100
AcDbEntity
100
AcDbLine
  8
Filament Guide Middle
 62
256
370
-1
  6
ByLayer
 10
32.625
 20
20.7763995368185448
 30
0.0
 11
32.6250000000000142
 21
2.7500000000000142
 31
0.0
  0
ARC
  5
73
100
AcDbEntity
  8
Filament Guide Middle
 62
256
370
-1
  6
ByLayer
100
AcDbCircle
 10
51.5
 20
35.2499745962155799
 30
0.0
 40
22.0
100
AcDbArc
 50
218.9974551089023862
 51
270.0
  0
ARC
  5
74
100
AcDbEntity
  8
Filament Guide Middle
 62
256
370
-1
  6
ByLayer
100
AcDbCircle
 10
33.6250000000000142
 20
20.7763995368185412
 30
0.0
 40
1.0
100
AcDbArc
 50
38.9974551089026136
 51
180.0
  0
LINE
  5
75
100
AcDbEntity
100
AcDbLine
  8
Filament Guide Middle
 62
256
370
-1
  6
ByLayer
 10
29.3750000000000142
 20
77.25
 30
0.0
 11
29.3750000000000142
 21
42.5375925197897757
 31
0.0
  0
ARC
  5
76
100
AcDbEntity
  8
Filament Guide Middle
 62
256
370
-1
  6
ByLayer
100
AcDbCircle
 10
25.0
 20
35.2499745962156084
 30
0.0
 40
8.5
100
AcDbArc
 50
59.0222022193676281
 51
290.8095735776764172
  0
LINE
  5
77
100
AcDbEntity
100
AcDbLine
  8
Filament Guide Middle
 62
256
370
-1
  6
ByLayer
 10
29.3750000000000071
 20
26.3696944767599106
 30
0.0
 11
29.3749999999999893
 21
2.7500000000000071
 31
0.0
  0
ARC
  5
78
100
AcDbEntity
  8
Filament Guide Middle
 62
256
370
-1
  6
ByLayer
100
AcDbCircle
 10
28.3750000000000071
 20
26.3696944767599177
 30
0.0
 40
1.0
100
AcDbArc
 50
0.0
 51
110.809573577676602
  0
LINE
  5
79
100
AcDbEntity
100
AcDbLine
  8
Filament Guide Middle
 62
256
370
-1
  6
ByLayer
 10
51.5
 20
57.249974596215587
 30
0.0
 11
53.5
 21
57.249974596215587
 31
0.0
  0
LINE
  5
7A
100
AcDbEntity
100
AcDbLine
  8
Filament Guide Middle
 62
256
370
-1
  6
ByLayer
 10
53.4999999999999929
 20
13.2499745962155835
 30
0.0
 11
51.5
 21
13.249974596215587
 31
0.0
  0
ARC
  5
7B
100
AcDbEntity
  8
Filament Guide Middle
 62
256
370
-1
  6
ByLayer
100
AcDbCircle
 10
53.5
 20
35.249974596215587
 30
0.0
 40
22.0
100
AcDbArc
 50
270.0
 51
90.0
  0
LINE
  5
7C
100
AcDbEntity
100
AcDbLine
  8
Filament Guide Middle Honeycomb
 62
256
370
-1
  6
ByLayer
 10
16.4492247596125942
 20
72.2500000000000284
 30
0.0
 11
24.3750000000000142
 21
72.2500000000000284
 31
0.0
  0
LINE
  5
7D
100
AcDbEntity
100
AcDbLine
  8
Filament Guide Middle Honeycomb
 62
256
370
-1
  6
ByLayer
 10
24.3750000000000142
 20
72.2500000000000284
 30
0.0
 11
24.3750000000000142
 21
48.7354992430359886
 31
0.0
  0
LINE
  5
7E
100
AcDbEntity
100
AcDbLine
  8
Filament Guide Middle Honeycomb
 62
256
370
-1
  6
ByLayer
 10
5.0
 20
68.0753834536241698
 30
0.0
 11
5.0
 21
50.4399745962156061
 31
0.0
  0
LINE
  5
7F
100
AcDbEntity
100
AcDbLine
  8
Filament Guide Middle Honeycomb
 62
256
370
-1
  6
ByLayer
 10
10.2549881065517212
 20
40.2499745962152247
 30
0.0
 11
12.4600637960155467
 21
40.2499745962153384
 31
0.0
  0
LINE
  5
80
100
AcDbEntity
100
AcDbLine
  8
Filament Guide Middle Honeycomb
 62
256
370
-1
  6
ByLayer
 10
10.254988106551707
 20
30.2499745962156048
 30
0.0
 11
12.4600637960155467
 21
30.2499745962155941
 31
0.0
  0
LINE
  5
81
100
AcDbEntity
100
AcDbLine
  8
Filament Guide Middle Honeycomb
 62
256
370
-1
  6
ByLayer
 10
5.0
 20
20.0599745962155858
 30
0.0
 11
5.0
 21
11.8246165463758963
 31
0.0
  0
LINE
  5
82
100
AcDbEntity
100
AcDbLine
  8
Filament Guide Middle Honeycomb
 62
256
370
-1
  6
ByLayer
 10
24.375
 20
21.764449949395221
 30
0.0
 11
24.375
 21
14.1000000000000263
 31
0.0
  0
LINE
  5
83
100
AcDbEntity
100
AcDbLine
  8
Filament Guide Middle Honeycomb
 62
256
370
-1
  6
ByLayer
 10
37.6250000000000142
 20
58.4121069462389855
 30
0.0
 11
37.6250000000000142
 21
72.2500000000000284
 31
0.0
  0
LINE
  5
84
100
AcDbEntity
100
AcDbLine
  8
Filament Guide Middle Honeycomb
 62
256
370
-1
  6
ByLayer
 10
37.6250000000000142
 20
72.2500000000000284
 30
0.0
 11
65.7007752403875287
 21
72.2500000000000284
 31
0.0
  0
LINE
  5
85
100
AcDbEntity
100
AcDbLine
  8
Filament Guide Middle Honeycomb
 62
256
370
-1
  6
ByLayer
 10
75.0
 20
66.3638095434042441
 30
0.0
 11
75.0
 21
51.5824575672766699
 31
0.0
  0
ARC
  5
86
100
AcDbEntity
  8
Filament Guide Middle Honeycomb
 62
256
370
-1
  6
ByLayer
100
AcDbCircle
 10
10.0000000000000107
 20
72.1500000000000341
 30
0.0
 40
6.4499999999999948
100
AcDbArc
 50
219.1773936864241819
 51
0.8883422500379582
  0
ARC
  5
87
100
AcDbEntity
  8
Filament Guide Middle Honeycomb
 62
256
370
-1
  6
ByLayer
100
AcDbCircle
 10
5.0
 20
43.9899745962155748
 30
0.0
 40
6.4500000000000099
100
AcDbArc
 50
324.560361221903861
 51
90.0
  0
ARC
  5
88
100
AcDbEntity
  8
Filament Guide Middle Honeycomb
 62
256
370
-1
  6
ByLayer
100
AcDbCircle
 10
25.0
 20
35.2499745962156084
 30
0.0
 40
13.5000000000000107
100
AcDbArc
 50
92.6535308674057916
 51
158.2615392084795189
  0
ARC
  5
89
100
AcDbEntity
  8
Filament Guide Middle Honeycomb
 62
256
370
-1
  6
ByLayer
100
AcDbCircle
 10
4.9999999999999929
 20
26.5099745962156028
 30
0.0
 40
6.4500000000000011
100
AcDbArc
 50
270.0
 51
35.4396387780963877
  0
ARC
  5
8A
100
AcDbEntity
  8
Filament Guide Middle Honeycomb
 62
256
370
-1
  6
ByLayer
100
AcDbCircle
 10
25.0
 20
35.2499745962156084
 30
0.0
 40
13.5000000000000018
100
AcDbArc
 50
201.7384607915204811
 51
267.3464691325941658
  0
ARC
  5
8B
100
AcDbEntity
  8
Filament Guide Middle Honeycomb
 62
256
370
-1
  6
ByLayer
100
AcDbCircle
 10
53.5
 20
35.249974596215587
 30
0.0
 40
27.0000000000000036
100
AcDbArc
 50
37.2221338960613224
 51
90.0
  0
ARC
  5
8C
100
AcDbEntity
  8
Filament Guide Middle Honeycomb
 62
256
370
-1
  6
ByLayer
100
AcDbCircle
 10
51.5
 20
35.2499745962155799
 30
0.0
 40
27.0
100
AcDbArc
 50
90.0
 51
120.92321565535525
  0
ARC
  5
8D
100
AcDbEntity
  8
Filament Guide Middle Honeycomb
 62
256
370
-1
  6
ByLayer
100
AcDbCircle
 10
72.1500000000000057
 20
72.1500000000000199
 30
0.0
 40
6.4499999999998918
100
AcDbArc
 50
179.1116577499624611
 51
296.2226465049216131
  0
ARC
  5
8E
100
AcDbEntity
  8
Filament Guide Middle Honeycomb
 62
256
370
-1
  6
ByLayer
100
AcDbCircle
 10
9.9999999999999893
 20
7.7500000000000284
 30
0.0
 40
6.4500000000000002
100
AcDbArc
 50
79.8976949439641686
 51
140.8226063135757045
  0
LINE
  5
8F
100
AcDbEntity
100
AcDbLine
  8
Filament Guide Middle Honeycomb
 62
256
370
-1
  6
ByLayer
 10
24.375
 20
14.1000000000000263
 30
0.0
 11
11.1313708498984703
 21
14.1000000000000263
 31
0.0
  0
LINE
  5
90
100
AcDbEntity
100
AcDbLine
  8
Filament Guide Middle Honeycomb
 62
256
370
-1
  6
ByLayer
 10
51.5
 20
62.249974596215587
 30
0.0
 11
53.5
 21
62.2499745962155941
 31
0.0
  0
MTEXT
  5
91
100
AcDbEntity
100
AcDbMText
  8
Filament Guide Middle Text
 62
256
370
-1
  6
ByLayer
 10
53.0
 20
74.7500000000000284
 30
0.0
 40
2.0
 41
100.0
 71
5
 72
2
  1
Filament\~Guide\~Middle
  7
standard
 50
0.0
 73
1
 44
1.0
  0
MTEXT
  5
92
100
AcDbEntity
100
AcDbMText
  8
Filament Guide Middle Text
 62
256
370
-1
  6
ByLayer
 10
1.0
 20
35.7500000000000284
 30
0.0
 40
2.0
 41
100.0
 71
4
 72
2
  1
Filament\PGuide\PMiddle
  7
standard
 50
0.0
 73
1
 44
1.0
  0
CIRCLE
  5
93
100
AcDbEntity
100
AcDbCircle
  8
Filament Guide Middle
 62
256
370
-1
  6
ByLayer
 10
89.9999999999999858
 20
7.7500000000000568
 30
0.0
 40
1.45
  0
CIRCLE
  5
94
100
AcDbEntity
100
AcDbCircle
  8
Filament Guide Middle
 62
256
370
-1
  6
ByLayer
 10
90.0
 20
72.1500000000000341
 30
0.0
 40
1.45
  0
CIRCLE
  5
95
100
AcDbEntity
100
AcDbCircle
  8
Filament Guide Middle
 62
256
370
-1
  6
ByLayer
 10
152.1500000000000057
 20
72.1500000000000199
 30
0.0
 40
1.45
  0
CIRCLE
  5
96
100
AcDbEntity
100
AcDbCircle
  8
Filament Guide Middle
 62
256
370
-1
  6
ByLayer
 10
152.1500000000000057
 20
7.7500000000000071
 30
0.0
 40
1.45
  0
LINE
  5
97
100
AcDbEntity
100
AcDbLine
  8
Filament Guide Middle
 62
256
370
-1
  6
ByLayer
 10
160.0
 20
72.2500000000000284
 30
0.0
 11
159.9999999999999716
 21
2.7499999999999929
 31
0.0
  0
ARC
  5
98
100
AcDbEntity
  8
Filament Guide Middle
 62
256
370
-1
  6
ByLayer
100
AcDbCircle
 10
155.0
 20
72.25
 30
0.0
 40
5.0
100
AcDbArc
 50
0.0
 51
90.0
  0
ARC
  5
99
100
AcDbEntity
  8
Filament Guide Middle
 62
256
370
-1
  6
ByLayer
100
AcDbCircle
 10
85.0
 20
72.25
 30
0.0
 40
5.0
100
AcDbArc
 50
90.0
 51
180.0
  0
CIRCLE
  5
9A
100
AcDbEntity
100
AcDbCircle
  8
Filament Guide Middle
 62
256
370
-1
  6
ByLayer
 10
85.0
 20
43.9899745962155748
 30
0.0
 40
1.45
  0
CIRCLE
  5
9B
100
AcDbEntity
100
AcDbCircle
  8
Filament Guide Middle
 62
256
370
-1
  6
ByLayer
 10
85.0
 20
26.5099745962156348
 30
0.0
 40
1.45
  0
LINE
  5
9C
100
AcDbEntity
100
AcDbLine
  8
Filament Guide Middle
 62
256
370
-1
  6
ByLayer
 10
126.5249999999999915
 20
9.0500000000000256
 30
0.0
 11
126.5250000000000057
 21
6.7500000000000355
 31
0.0
  0
LINE
  5
9D
100
AcDbEntity
100
AcDbLine
  8
Filament Guide Middle
 62
256
370
-1
  6
ByLayer
 10
121.2249999999999943
 20
9.0500000000000327
 30
0.0
 11
121.2249999999999943
 21
6.7500000000000355
 31
0.0
  0
LINE
  5
9E
100
AcDbEntity
100
AcDbLine
  8
Filament Guide Middle
 62
256
370
-1
  6
ByLayer
 10
122.4249999999999972
 20
9.0500000000000291
 30
0.0
 11
121.2249999999999943
 21
9.0500000000000327
 31
0.0
  0
LINE
  5
9F
100
AcDbEntity
100
AcDbLine
  8
Filament Guide Middle
 62
256
370
-1
  6
ByLayer
 10
125.3250000000000028
 20
9.0500000000000327
 30
0.0
 11
126.5249999999999915
 21
9.0500000000000256
 31
0.0
  0
LINE
  5
A0
100
AcDbEntity
100
AcDbLine
  8
Filament Guide Middle
 62
256
370
-1
  6
ByLayer
 10
101.2749999999999773
 20
9.1000000000000476
 30
0.0
 11
101.2749999999999773
 21
6.7500000000000426
 31
0.0
  0
LINE
  5
A1
100
AcDbEntity
100
AcDbLine
  8
Filament Guide Middle
 62
256
370
-1
  6
ByLayer
 10
95.9749999999999801
 20
9.1000000000000654
 30
0.0
 11
95.9750000000000227
 21
6.7500000000000355
 31
0.0
  0
LINE
  5
A2
100
AcDbEntity
100
AcDbLine
  8
Filament Guide Middle
 62
256
370
-1
  6
ByLayer
 10
95.9749999999999801
 20
9.1000000000000654
 30
0.0
 11
97.1749999999999972
 21
9.1000000000000547
 31
0.0
  0
LINE
  5
A3
100
AcDbEntity
100
AcDbLine
  8
Filament Guide Middle
 62
256
370
-1
  6
ByLayer
 10
100.0750000000000028
 20
9.1000000000000334
 30
0.0
 11
101.2749999999999773
 21
9.1000000000000476
 31
0.0
  0
LINE
  5
A4
100
AcDbEntity
100
AcDbLine
  8
Filament Guide Middle
 62
256
370
-1
  6
ByLayer
 10
121.2249999999999943
 20
6.7500000000000355
 30
0.0
 11
122.4249999999999972
 21
6.7500000000000426
 31
0.0
  0
LINE
  5
A5
100
AcDbEntity
100
AcDbLine
  8
Filament Guide Middle
 62
256
370
-1
  6
ByLayer
 10
122.4249999999999972
 20
6.7500000000000426
 30
0.0
 11
122.4249999999999829
 21
2.7500000000000213
 31
0.0
  0
LINE
  5
A6
100
AcDbEntity
100
AcDbLine
  8
Filament Guide Middle
 62
256
370
-1
  6
ByLayer
 10
125.3249999999999886
 20
6.7500000000000213
 30
0.0
 11
126.5250000000000057
 21
6.7500000000000355
 31
0.0
  0
LINE
  5
A7
100
AcDbEntity
100
AcDbLine
  8
Filament Guide Middle
 62
256
370
-1
  6
ByLayer
 10
125.3249999999999886
 20
6.7500000000000213
 30
0.0
 11
125.3250000000000028
 21
2.7500000000000213
 31
0.0
  0
LINE
  5
A8
100
AcDbEntity
100
AcDbLine
  8
Filament Guide Middle
 62
256
370
-1
  6
ByLayer
 10
125.3250000000000028
 20
2.7500000000000213
 30
0.0
 11
159.9999999999999716
 21
2.7499999999999929
 31
0.0
  0
LINE
  5
A9
100
AcDbEntity
100
AcDbLine
  8
Filament Guide Middle
 62
256
370
-1
  6
ByLayer
 10
97.1750000000000114
 20
2.7500000000000213
 30
0.0
 11
79.9999999999999858
 21
2.7500000000000497
 31
0.0
  0
LINE
  5
AA
100
AcDbEntity
100
AcDbLine
  8
Filament Guide Middle
 62
256
370
-1
  6
ByLayer
 10
97.1750000000000114
 20
6.7500000000000213
 30
0.0
 11
97.1750000000000114
 21
2.7500000000000213
 31
0.0
  0
LINE
  5
AB
100
AcDbEntity
100
AcDbLine
  8
Filament Guide Middle
 62
256
370
-1
  6
ByLayer
 10
95.9750000000000227
 20
6.7500000000000355
 30
0.0
 11
97.1750000000000114
 21
6.7500000000000213
 31
0.0
  0
LINE
  5
AC
100
AcDbEntity
100
AcDbLine
  8
Filament Guide Middle
 62
256
370
-1
  6
ByLayer
 10
100.0750000000000171
 20
6.7500000000000355
 30
0.0
 11
101.2749999999999773
 21
6.7500000000000426
 31
0.0
  0
LINE
  5
AD
100
AcDbEntity
100
AcDbLine
  8
Filament Guide Middle
 62
256
370
-1
  6
ByLayer
 10
100.0750000000000171
 20
6.7500000000000355
 30
0.0
 11
100.0750000000000028
 21
2.7500000000000355
 31
0.0
  0
LINE
  5
AE
100
AcDbEntity
100
AcDbLine
  8
Filament Guide Middle
 62
256
370
-1
  6
ByLayer
 10
100.0750000000000028
 20
2.7500000000000355
 30
0.0
 11
109.375
 21
2.7500000000000213
 31
0.0
  0
LINE
  5
AF
100
AcDbEntity
100
AcDbLine
  8
Filament Guide Middle
 62
256
370
-1
  6
ByLayer
 10
112.6250000000000142
 20
2.7500000000000213
 30
0.0
 11
122.4249999999999829
 21
2.7500000000000213
 31
0.0
  0
LINE
  5
B0
100
AcDbEntity
100
AcDbLine
  8
Filament Guide Middle
 62
256
370
-1
  6
ByLayer
 10
85.0
 20
77.2500000000000284
 30
0.0
 11
109.3750000000000142
 21
77.2500000000000142
 31
0.0
  0
LINE
  5
B1
100
AcDbEntity
100
AcDbLine
  8
Filament Guide Middle
 62
256
370
-1
  6
ByLayer
 10
112.6250000000000142
 20
77.2500000000000142
 30
0.0
 11
155.0
 21
77.2500000000000142
 31
0.0
  0
LINE
  5
B2
100
AcDbEntity
100
AcDbLine
  8
Filament Guide Middle
 62
256
370
-1
  6
ByLayer
 10
97.1749999999999972
 20
9.1000000000000547
 30
0.0
 11
97.1749999999999972
 21
10.6000000000000476
 31
0.0
  0
LINE
  5
B3
100
AcDbEntity
100
AcDbLine
  8
Filament Guide Middle
 62
256
370
-1
  6
ByLayer
 10
100.0750000000000028
 20
10.6000000000000192
 30
0.0
 11
100.0750000000000028
 21
9.1000000000000334
 31
0.0
  0
LINE
  5
B4
100
AcDbEntity
100
AcDbLine
  8
Filament Guide Middle
 62
256
370
-1
  6
ByLayer
 10
97.1749999999999972
 20
10.6000000000000476
 30
0.0
 11
100.0750000000000028
 21
10.6000000000000192
 31
0.0
  0
LINE
  5
B5
100
AcDbEntity
100
AcDbLine
  8
Filament Guide Middle
 62
256
370
-1
  6
ByLayer
 10
122.4249999999999829
 20
10.5500000000000327
 30
0.0
 11
122.4249999999999972
 21
9.0500000000000291
 31
0.0
  0
LINE
  5
B6
100
AcDbEntity
100
AcDbLine
  8
Filament Guide Middle
 62
256
370
-1
  6
ByLayer
 10
125.3249999999999886
 20
10.5500000000000291
 30
0.0
 11
125.3250000000000028
 21
9.0500000000000327
 31
0.0
  0
LINE
  5
B7
100
AcDbEntity
100
AcDbLine
  8
Filament Guide Middle
 62
256
370
-1
  6
ByLayer
 10
122.4249999999999829
 20
10.5500000000000327
 30
0.0
 11
125.3249999999999886
 21
10.5500000000000291
 31
0.0
  0
ARC
  5
B8
100
AcDbEntity
  8
Filament Guide Middle
 62
256
370
-1
  6
ByLayer
100
AcDbCircle
 10
131.5
 20
35.2499745962155941
 30
0.0
 40
22.0
100
AcDbArc
 50
90.0
 51
149.087689318362834
  0
LINE
  5
B9
100
AcDbEntity
100
AcDbLine
  8
Filament Guide Middle
 62
256
370
-1
  6
ByLayer
 10
112.6250000000000142
 20
77.2500000000000142
 30
0.0
 11
112.6250000000000142
 21
46.5519379212313353
 31
0.0
  0
LINE
  5
BA
100
AcDbEntity
100
AcDbLine
  8
Filament Guide Middle
 62
256
370
-1
  6
ByLayer
 10
112.625
 20
20.776399536818559
 30
0.0
 11
112.6250000000000142
 21
2.7500000000000213
 31
0.0
  0
ARC
  5
BB
100
AcDbEntity
  8
Filament Guide Middle
 62
256
370
-1
  6
ByLayer
100
AcDbCircle
 10
131.5
 20
35.2499745962155941
 30
0.0
 40
22.0
100
AcDbArc
 50
218.9974551089023862
 51
270.0
  0
ARC
  5
BC
100
AcDbEntity
  8
Filament Guide Middle
 62
256
370
-1
  6
ByLayer
100
AcDbCircle
 10
113.6250000000000142
 20
20.7763995368185554
 30
0.0
 40
1.0
100
AcDbArc
 50
38.9974551089026136
 51
180.0
  0
LINE
  5
BD
100
AcDbEntity
100
AcDbLine
  8
Filament Guide Middle
 62
256
370
-1
  6
ByLayer
 10
109.3750000000000142
 20
77.2500000000000142
 30
0.0
 11
109.3750000000000142
 21
42.5375925197897899
 31
0.0
  0
ARC
  5
BE
100
AcDbEntity
  8
Filament Guide Middle
 62
256
370
-1
  6
ByLayer
100
AcDbCircle
 10
105.0
 20
35.2499745962156226
 30
0.0
 40
8.5
100
AcDbArc
 50
59.0222022193676281
 51
290.8095735776764172
  0
LINE
  5
BF
100
AcDbEntity
100
AcDbLine
  8
Filament Guide Middle
 62
256
370
-1
  6
ByLayer
 10
109.375
 20
26.3696944767599248
 30
0.0
 11
109.375
 21
2.7500000000000213
 31
0.0
  0
ARC
  5
C0
100
AcDbEntity
  8
Filament Guide Middle
 62
256
370
-1
  6
ByLayer
100
AcDbCircle
 10
108.375
 20
26.3696944767599391
 30
0.0
 40
1.0
100
AcDbArc
 50
0.0
 51
110.809573577676602
  0
LINE
  5
C1
100
AcDbEntity
100
AcDbLine
  8
Filament Guide Middle
 62
256
370
-1
  6
ByLayer
 10
131.5
 20
57.2499745962155941
 30
0.0
 11
133.5
 21
57.2499745962156013
 31
0.0
  0
LINE
  5
C2
100
AcDbEntity
100
AcDbLine
  8
Filament Guide Middle
 62
256
370
-1
  6
ByLayer
 10
133.5
 20
13.2499745962155941
 30
0.0
 11
131.5
 21
13.2499745962156013
 31
0.0
  0
ARC
  5
C3
100
AcDbEntity
  8
Filament Guide Middle
 62
256
370
-1
  6
ByLayer
100
AcDbCircle
 10
133.5
 20
35.2499745962156013
 30
0.0
 40
22.0
100
AcDbArc
 50
270.0
 51
90.0
  0
LINE
  5
C4
100
AcDbEntity
100
AcDbLine
  8
Filament Guide Middle Honeycomb
 62
256
370
-1
  6
ByLayer
 10
96.4492247596126049
 20
72.2500000000000568
 30
0.0
 11
104.3750000000000142
 21
72.2500000000000284
 31
0.0
  0
LINE
  5
C5
100
AcDbEntity
100
AcDbLine
  8
Filament Guide Middle Honeycomb
 62
256
370
-1
  6
ByLayer
 10
104.3750000000000142
 20
72.2500000000000284
 30
0.0
 11
104.3750000000000142
 21
48.7354992430360028
 31
0.0
  0
LINE
  5
C6
100
AcDbEntity
100
AcDbLine
  8
Filament Guide Middle Honeycomb
 62
256
370
-1
  6
ByLayer
 10
85.0
 20
68.0753834536241982
 30
0.0
 11
85.0
 21
50.4399745962156345
 31
0.0
  0
LINE
  5
C7
100
AcDbEntity
100
AcDbLine
  8
Filament Guide Middle Honeycomb
 62
256
370
-1
  6
ByLayer
 10
90.2549881065517212
 20
40.2499745962148268
 30
0.0
 11
92.4600637960155467
 21
40.2499745962153384
 31
0.0
  0
LINE
  5
C8
100
AcDbEntity
100
AcDbLine
  8
Filament Guide Middle Honeycomb
 62
256
370
-1
  6
ByLayer
 10
90.254988106551707
 20
30.249974596215619
 30
0.0
 11
92.4600637960155467
 21
30.2499745962156084
 31
0.0
  0
LINE
  5
C9
100
AcDbEntity
100
AcDbLine
  8
Filament Guide Middle Honeycomb
 62
256
370
-1
  6
ByLayer
 10
85.0
 20
20.0599745962156071
 30
0.0
 11
85.0
 21
11.8246165463759212
 31
0.0
  0
LINE
  5
CA
100
AcDbEntity
100
AcDbLine
  8
Filament Guide Middle Honeycomb
 62
256
370
-1
  6
ByLayer
 10
104.3749999999999858
 20
21.7644499493952424
 30
0.0
 11
104.375
 21
14.1000000000000369
 31
0.0
  0
LINE
  5
CB
100
AcDbEntity
100
AcDbLine
  8
Filament Guide Middle Honeycomb
 62
256
370
-1
  6
ByLayer
 10
117.6250000000000142
 20
58.4121069462389997
 30
0.0
 11
117.6250000000000142
 21
72.2500000000000426
 31
0.0
  0
LINE
  5
CC
100
AcDbEntity
100
AcDbLine
  8
Filament Guide Middle Honeycomb
 62
256
370
-1
  6
ByLayer
 10
117.6250000000000142
 20
72.2500000000000426
 30
0.0
 11
145.7007752403875429
 21
72.2500000000000426
 31
0.0
  0
LINE
  5
CD
100
AcDbEntity
100
AcDbLine
  8
Filament Guide Middle Honeycomb
 62
256
370
-1
  6
ByLayer
 10
155.0
 20
66.3638095434042725
 30
0.0
 11
155.0
 21
51.5824575672766699
 31
0.0
  0
ARC
  5
CE
100
AcDbEntity
  8
Filament Guide Middle Honeycomb
 62
256
370
-1
  6
ByLayer
100
AcDbCircle
 10
90.0
 20
72.1500000000000341
 30
0.0
 40
6.4499999999999948
100
AcDbArc
 50
219.1773936864241819
 51
0.8883422500379582
  0
ARC
  5
CF
100
AcDbEntity
  8
Filament Guide Middle Honeycomb
 62
256
370
-1
  6
ByLayer
100
AcDbCircle
 10
85.0
 20
43.9899745962155748
 30
0.0
 40
6.4500000000000099
100
AcDbArc
 50
324.560361221903861
 51
90.0
  0
ARC
  5
D0
100
AcDbEntity
  8
Filament Guide Middle Honeycomb
 62
256
370
-1
  6
ByLayer
100
AcDbCircle
 10
105.0
 20
35.2499745962156226
 30
0.0
 40
13.5000000000000107
100
AcDbArc
 50
92.6535308674057916
 51
158.2615392084795189
  0
ARC
  5
D1
100
AcDbEntity
  8
Filament Guide Middle Honeycomb
 62
256
370
-1
  6
ByLayer
100
AcDbCircle
 10
85.0
 20
26.5099745962156348
 30
0.0
 40
6.4500000000000011
100
AcDbArc
 50
270.0
 51
35.4396387780963877
  0
ARC
  5
D2
100
AcDbEntity
  8
Filament Guide Middle Honeycomb
 62
256
370
-1
  6
ByLayer
100
AcDbCircle
 10
105.0
 20
35.2499745962156226
 30
0.0
 40
13.5000000000000018
100
AcDbArc
 50
201.7384607915204811
 51
267.3464691325941658
  0
ARC
  5
D3
100
AcDbEntity
  8
Filament Guide Middle Honeycomb
 62
256
370
-1
  6
ByLayer
100
AcDbCircle
 10
133.5
 20
35.2499745962156013
 30
0.0
 40
27.0000000000000036
100
AcDbArc
 50
37.2221338960613224
 51
90.0
  0
ARC
  5
D4
100
AcDbEntity
  8
Filament Guide Middle Honeycomb
 62
256
370
-1
  6
ByLayer
100
AcDbCircle
 10
131.5
 20
35.2499745962155941
 30
0.0
 40
27.0
100
AcDbArc
 50
90.0
 51
120.92321565535525
  0
ARC
  5
D5
100
AcDbEntity
  8
Filament Guide Middle Honeycomb
 62
256
370
-1
  6
ByLayer
100
AcDbCircle
 10
152.1500000000000057
 20
72.1500000000000341
 30
0.0
 40
6.4499999999998918
100
AcDbArc
 50
179.1116577499624611
 51
296.2226465049216131
  0
ARC
  5
D6
100
AcDbEntity
  8
Filament Guide Middle Honeycomb
 62
256
370
-1
  6
ByLayer
100
AcDbCircle
 10
89.9999999999999858
 20
7.7500000000000497
 30
0.0
 40
6.4500000000000002
100
AcDbArc
 50
79.8976949439641686
 51
140.8226063135757045
  0
LINE
  5
D7
100
AcDbEntity
100
AcDbLine
  8
Filament Guide Middle Honeycomb
 62
256
370
-1
  6
ByLayer
 10
104.375
 20
14.1000000000000369
 30
0.0
 11
91.1313708498984596
 21
14.1000000000000441
 31
0.0
  0
LINE
  5
D8
100
AcDbEntity
100
AcDbLine
  8
Filament Guide Middle Honeycomb
 62
256
370
-1
  6
ByLayer
 10
131.5
 20
62.2499745962156013
 30
0.0
 11
133.5
 21
62.2499745962156084
 31
0.0
  0
MTEXT
  5
D9
100
AcDbEntity
100
AcDbMText
  8
Filament Guide Middle Text
 62
256
370
-1
  6
ByLayer
 10
133.0
 20
74.7500000000000426
 30
0.0
 40
2.0
 41
100.0
 71
5
 72
2
  1
Filament\~Guide\~Middle
  7
standard
 50
0.0
 73
1
 44
1.0
  0
MTEXT
  5
DA
100
AcDbEntity
100
AcDbMText
  8
Filament Guide Middle Text
 62
256
370
-1
  6
ByLayer
 10
81.0
 20
35.7500000000000639
 30
0.0
 40
2.0
 41
100.0
 71
4
 72
2
  1
Filament\PGuide\PMiddle
  7
standard
 50
0.0
 73
1
 44
1.0
  0
CIRCLE
  5
DB
100
AcDbEntity
100
AcDbCircle
  8
Filament Guide Middle
 62
256
370
-1
  6
ByLayer
 10
170.0
 20
7.7500000000000568
 30
0.0
 40
1.45
  0
CIRCLE
  5
DC
100
AcDbEntity
100
AcDbCircle
  8
Filament Guide Middle
 62
256
370
-1
  6
ByLayer
 10
170.0
 20
72.1500000000000341
 30
0.0
 40
1.45
  0
CIRCLE
  5
DD
100
AcDbEntity
100
AcDbCircle
  8
Filament Guide Middle
 62
256
370
-1
  6
ByLayer
 10
232.1500000000000057
 20
72.1500000000000199
 30
0.0
 40
1.45
  0
CIRCLE
  5
DE
100
AcDbEntity
100
AcDbCircle
  8
Filament Guide Middle
 62
256
370
-1
  6
ByLayer
 10
232.1500000000000057
 20
7.7500000000000071
 30
0.0
 40
1.45
  0
ARC
  5
DF
100
AcDbEntity
  8
Filament Guide Middle
 62
256
370
-1
  6
ByLayer
100
AcDbCircle
 10
235.0
 20
72.25
 30
0.0
 40
5.0
100
AcDbArc
 50
0.0
 51
90.0
  0
ARC
  5
E0
100
AcDbEntity
  8
Filament Guide Middle
 62
256
370
-1
  6
ByLayer
100
AcDbCircle
 10
165.0
 20
72.25
 30
0.0
 40
5.0
100
AcDbArc
 50
90.0
 51
180.0
  0
CIRCLE
  5
E1
100
AcDbEntity
100
AcDbCircle
  8
Filament Guide Middle
 62
256
370
-1
  6
ByLayer
 10
165.0
 20
43.9899745962155748
 30
0.0
 40
1.45
  0
CIRCLE
  5
E2
100
AcDbEntity
100
AcDbCircle
  8
Filament Guide Middle
 62
256
370
-1
  6
ByLayer
 10
165.0
 20
26.5099745962156348
 30
0.0
 40
1.45
  0
LINE
  5
E3
100
AcDbEntity
100
AcDbLine
  8
Filament Guide Middle
 62
256
370
-1
  6
ByLayer
 10
206.5249999999999773
 20
9.0500000000000256
 30
0.0
 11
206.5250000000000057
 21
6.7500000000000355
 31
0.0
  0
LINE
  5
E4
100
AcDbEntity
100
AcDbLine
  8
Filament Guide Middle
 62
256
370
-1
  6
ByLayer
 10
201.2249999999999943
 20
9.0500000000000327
 30
0.0
 11
201.2249999999999943
 21
6.7500000000000355
 31
0.0
  0
LINE
  5
E5
100
AcDbEntity
100
AcDbLine
  8
Filament Guide Middle
 62
256
370
-1
  6
ByLayer
 10
202.4249999999999829
 20
9.0500000000000291
 30
0.0
 11
201.2249999999999943
 21
9.0500000000000327
 31
0.0
  0
LINE
  5
E6
100
AcDbEntity
100
AcDbLine
  8
Filament Guide Middle
 62
256
370
-1
  6
ByLayer
 10
205.3249999999999886
 20
9.0500000000000327
 30
0.0
 11
206.5249999999999773
 21
9.0500000000000256
 31
0.0
  0
LINE
  5
E7
100
AcDbEntity
100
AcDbLine
  8
Filament Guide Middle
 62
256
370
-1
  6
ByLayer
 10
181.2749999999999773
 20
9.1000000000000476
 30
0.0
 11
181.2749999999999773
 21
6.7500000000000426
 31
0.0
  0
LINE
  5
E8
100
AcDbEntity
100
AcDbLine
  8
Filament Guide Middle
 62
256
370
-1
  6
ByLayer
 10
175.9749999999999659
 20
9.1000000000000654
 30
0.0
 11
175.9750000000000227
 21
6.7500000000000355
 31
0.0
  0
LINE
  5
E9
100
AcDbEntity
100
AcDbLine
  8
Filament Guide Middle
 62
256
370
-1
  6
ByLayer
 10
175.9749999999999659
 20
9.1000000000000654
 30
0.0
 11
177.1749999999999829
 21
9.1000000000000547
 31
0.0
  0
LINE
  5
EA
100
AcDbEntity
100
AcDbLine
  8
Filament Guide Middle
 62
256
370
-1
  6
ByLayer
 10
180.0750000000000171
 20
9.1000000000000334
 30
0.0
 11
181.2749999999999773
 21
9.1000000000000476
 31
0.0
  0
LINE
  5
EB
100
AcDbEntity
100
AcDbLine
  8
Filament Guide Middle
 62
256
370
-1
  6
ByLayer
 10
201.2249999999999943
 20
6.7500000000000355
 30
0.0
 11
202.4249999999999829
 21
6.7500000000000426
 31
0.0
  0
LINE
  5
EC
100
AcDbEntity
100
AcDbLine
  8
Filament Guide Middle
 62
256
370
-1
  6
ByLayer
 10
202.4249999999999829
 20
6.7500000000000426
 30
0.0
 11
202.4249999999999829
 21
2.7500000000000213
 31
0.0
  0
LINE
  5
ED
100
AcDbEntity
100
AcDbLine
  8
Filament Guide Middle
 62
256
370
-1
  6
ByLayer
 10
205.3249999999999886
 20
6.7500000000000213
 30
0.0
 11
206.5250000000000057
 21
6.7500000000000355
 31
0.0
  0
LINE
  5
EE
100
AcDbEntity
100
AcDbLine
  8
Filament Guide Middle
 62
256
370
-1
  6
ByLayer
 10
205.3249999999999886
 20
6.7500000000000213
 30
0.0
 11
205.3250000000000171
 21
2.7500000000000213
 31
0.0
  0
LINE
  5
EF
100
AcDbEntity
100
AcDbLine
  8
Filament Guide Middle
 62
256
370
-1
  6
ByLayer
 10
205.3250000000000171
 20
2.7500000000000213
 30
0.0
 11
239.9999999999999716
 21
2.7499999999999929
 31
0.0
  0
LINE
  5
F0
100
AcDbEntity
100
AcDbLine
  8
Filament Guide Middle
 62
256
370
-1
  6
ByLayer
 10
177.1750000000000114
 20
2.7500000000000213
 30
0.0
 11
160.0
 21
2.7500000000000497
 31
0.0
  0
LINE
  5
F1
100
AcDbEntity
100
AcDbLine
  8
Filament Guide Middle
 62
256
370
-1
  6
ByLayer
 10
177.1750000000000114
 20
6.7500000000000213
 30
0.0
 11
177.1750000000000114
 21
2.7500000000000213
 31
0.0
  0
LINE
  5
F2
100
AcDbEntity
100
AcDbLine
  8
Filament Guide Middle
 62
256
370
-1
  6
ByLayer
 10
175.9750000000000227
 20
6.7500000000000355
 30
0.0
 11
177.1750000000000114
 21
6.7500000000000213
 31
0.0
  0
LINE
  5
F3
100
AcDbEntity
100
AcDbLine
  8
Filament Guide Middle
 62
256
370
-1
  6
ByLayer
 10
180.0750000000000171
 20
6.7500000000000355
 30
0.0
 11
181.2749999999999773
 21
6.7500000000000426
 31
0.0
  0
LINE
  5
F4
100
AcDbEntity
100
AcDbLine
  8
Filament Guide Middle
 62
256
370
-1
  6
ByLayer
 10
180.0750000000000171
 20
6.7500000000000355
 30
0.0
 11
180.0749999999999886
 21
2.7500000000000355
 31
0.0
  0
LINE
  5
F5
100
AcDbEntity
100
AcDbLine
  8
Filament Guide Middle
 62
256
370
-1
  6
ByLayer
 10
180.0749999999999886
 20
2.7500000000000355
 30
0.0
 11
189.375
 21
2.7500000000000213
 31
0.0
  0
LINE
  5
F6
100
AcDbEntity
100
AcDbLine
  8
Filament Guide Middle
 62
256
370
-1
  6
ByLayer
 10
192.6250000000000284
 20
2.7500000000000213
 30
0.0
 11
202.4249999999999829
 21
2.7500000000000213
 31
0.0
  0
LINE
  5
F7
100
AcDbEntity
100
AcDbLine
  8
Filament Guide Middle
 62
256
370
-1
  6
ByLayer
 10
165.0
 20
77.2500000000000284
 30
0.0
 11
189.375
 21
77.2500000000000142
 31
0.0
  0
LINE
  5
F8
100
AcDbEntity
100
AcDbLine
  8
Filament Guide Middle
 62
256
370
-1
  6
ByLayer
 10
192.6250000000000284
 20
77.2500000000000142
 30
0.0
 11
235.0
 21
77.2500000000000142
 31
0.0
  0
LINE
  5
F9
100
AcDbEntity
100
AcDbLine
  8
Filament Guide Middle
 62
256
370
-1
  6
ByLayer
 10
177.1749999999999829
 20
9.1000000000000547
 30
0.0
 11
177.1750000000000114
 21
10.6000000000000476
 31
0.0
  0
LINE
  5
FA
100
AcDbEntity
100
AcDbLine
  8
Filament Guide Middle
 62
256
370
-1
  6
ByLayer
 10
180.0750000000000171
 20
10.6000000000000192
 30
0.0
 11
180.0750000000000171
 21
9.1000000000000334
 31
0.0
  0
LINE
  5
FB
100
AcDbEntity
100
AcDbLine
  8
Filament Guide Middle
 62
256
370
-1
  6
ByLayer
 10
177.1750000000000114
 20
10.6000000000000476
 30
0.0
 11
180.0750000000000171
 21
10.6000000000000192
 31
0.0
  0
LINE
  5
FC
100
AcDbEntity
100
AcDbLine
  8
Filament Guide Middle
 62
256
370
-1
  6
ByLayer
 10
202.4249999999999829
 20
10.5500000000000327
 30
0.0
 11
202.4249999999999829
 21
9.0500000000000291
 31
0.0
  0
LINE
  5
FD
100
AcDbEntity
100
AcDbLine
  8
Filament Guide Middle
 62
256
370
-1
  6
ByLayer
 10
205.3249999999999886
 20
10.5500000000000291
 30
0.0
 11
205.3249999999999886
 21
9.0500000000000327
 31
0.0
  0
LINE
  5
FE
100
AcDbEntity
100
AcDbLine
  8
Filament Guide Middle
 62
256
370
-1
  6
ByLayer
 10
202.4249999999999829
 20
10.5500000000000327
 30
0.0
 11
205.3249999999999886
 21
10.5500000000000291
 31
0.0
  0
ARC
  5
FF
100
AcDbEntity
  8
Filament Guide Middle
 62
256
370
-1
  6
ByLayer
100
AcDbCircle
 10
211.5
 20
35.2499745962155941
 30
0.0
 40
22.0
100
AcDbArc
 50
90.0
 51
149.087689318362834
  0
LINE
  5
100
100
AcDbEntity
100
AcDbLine
  8
Filament Guide Middle
 62
256
370
-1
  6
ByLayer
 10
192.6250000000000284
 20
77.2500000000000142
 30
0.0
 11
192.625
 21
46.5519379212313353
 31
0.0
  0
LINE
  5
101
100
AcDbEntity
100
AcDbLine
  8
Filament Guide Middle
 62
256
370
-1
  6
ByLayer
 10
192.625
 20
20.776399536818559
 30
0.0
 11
192.6250000000000284
 21
2.7500000000000213
 31
0.0
  0
ARC
  5
102
100
AcDbEntity
  8
Filament Guide Middle
 62
256
370
-1
  6
ByLayer
100
AcDbCircle
 10
211.5
 20
35.2499745962155941
 30
0.0
 40
22.0
100
AcDbArc
 50
218.9974551089023862
 51
270.0
  0
ARC
  5
103
100
AcDbEntity
  8
Filament Guide Middle
 62
256
370
-1
  6
ByLayer
100
AcDbCircle
 10
193.6250000000000284
 20
20.7763995368185554
 30
0.0
 40
1.0
100
AcDbArc
 50
38.9974551089026136
 51
180.0
  0
LINE
  5
104
100
AcDbEntity
100
AcDbLine
  8
Filament Guide Middle
 62
256
370
-1
  6
ByLayer
 10
189.375
 20
77.2500000000000142
 30
0.0
 11
189.375
 21
42.5375925197897899
 31
0.0
  0
ARC
  5
105
100
AcDbEntity
  8
Filament Guide Middle
 62
256
370
-1
  6
ByLayer
100
AcDbCircle
 10
185.0
 20
35.2499745962156226
 30
0.0
 40
8.5
100
AcDbArc
 50
59.0222022193676281
 51
290.8095735776764172
  0
LINE
  5
106
100
AcDbEntity
100
AcDbLine
  8
Filament Guide Middle
 62
256
370
-1
  6
ByLayer
 10
189.375
 20
26.3696944767599248
 30
0.0
 11
189.375
 21
2.7500000000000213
 31
0.0
  0
ARC
  5
107
100
AcDbEntity
  8
Filament Guide Middle
 62
256
370
-1
  6
ByLayer
100
AcDbCircle
 10
188.375
 20
26.3696944767599391
 30
0.0
 40
1.0
100
AcDbArc
 50
0.0
 51
110.809573577676602
  0
LINE
  5
108
100
AcDbEntity
100
AcDbLine
  8
Filament Guide Middle
 62
256
370
-1
  6
ByLayer
 10
211.5
 20
57.2499745962155941
 30
0.0
 11
213.5
 21
57.2499745962156013
 31
0.0
  0
LINE
  5
109
100
AcDbEntity
100
AcDbLine
  8
Filament Guide Middle
 62
256
370
-1
  6
ByLayer
 10
213.5
 20
13.2499745962155941
 30
0.0
 11
211.5
 21
13.2499745962156013
 31
0.0
  0
ARC
  5
10A
100
AcDbEntity
  8
Filament Guide Middle
 62
256
370
-1
  6
ByLayer
100
AcDbCircle
 10
213.5
 20
35.2499745962156013
 30
0.0
 40
22.0
100
AcDbArc
 50
270.0
 51
90.0
  0
LINE
  5
10B
100
AcDbEntity
100
AcDbLine
  8
Filament Guide Middle Honeycomb
 62
256
370
-1
  6
ByLayer
 10
176.4492247596126049
 20
72.2500000000000568
 30
0.0
 11
184.375
 21
72.2500000000000284
 31
0.0
  0
LINE
  5
10C
100
AcDbEntity
100
AcDbLine
  8
Filament Guide Middle Honeycomb
 62
256
370
-1
  6
ByLayer
 10
184.375
 20
72.2500000000000284
 30
0.0
 11
184.375
 21
48.7354992430360028
 31
0.0
  0
LINE
  5
10D
100
AcDbEntity
100
AcDbLine
  8
Filament Guide Middle Honeycomb
 62
256
370
-1
  6
ByLayer
 10
165.0
 20
68.0753834536241982
 30
0.0
 11
165.0
 21
50.4399745962156345
 31
0.0
  0
LINE
  5
10E
100
AcDbEntity
100
AcDbLine
  8
Filament Guide Middle Honeycomb
 62
256
370
-1
  6
ByLayer
 10
170.254988106551707
 20
40.2499745962148268
 30
0.0
 11
172.4600637960155609
 21
40.2499745962153384
 31
0.0
  0
LINE
  5
10F
100
AcDbEntity
100
AcDbLine
  8
Filament Guide Middle Honeycomb
 62
256
370
-1
  6
ByLayer
 10
170.254988106551707
 20
30.249974596215619
 30
0.0
 11
172.4600637960155609
 21
30.2499745962156084
 31
0.0
  0
LINE
  5
110
100
AcDbEntity
100
AcDbLine
  8
Filament Guide Middle Honeycomb
 62
256
370
-1
  6
ByLayer
 10
165.0
 20
20.0599745962156071
 30
0.0
 11
165.0
 21
11.8246165463759212
 31
0.0
  0
LINE
  5
111
100
AcDbEntity
100
AcDbLine
  8
Filament Guide Middle Honeycomb
 62
256
370
-1
  6
ByLayer
 10
184.375
 20
21.7644499493952424
 30
0.0
 11
184.375
 21
14.1000000000000369
 31
0.0
  0
LINE
  5
112
100
AcDbEntity
100
AcDbLine
  8
Filament Guide Middle Honeycomb
 62
256
370
-1
  6
ByLayer
 10
197.6250000000000284
 20
58.4121069462389997
 30
0.0
 11
197.6250000000000284
 21
72.2500000000000426
 31
0.0
  0
LINE
  5
113
100
AcDbEntity
100
AcDbLine
  8
Filament Guide Middle Honeycomb
 62
256
370
-1
  6
ByLayer
 10
197.6250000000000284
 20
72.2500000000000426
 30
0.0
 11
225.7007752403875429
 21
72.2500000000000426
 31
0.0
  0
LINE
  5
114
100
AcDbEntity
100
AcDbLine
  8
Filament Guide Middle Honeycomb
 62
256
370
-1
  6
ByLayer
 10
235.0
 20
66.3638095434042725
 30
0.0
 11
235.0
 21
51.5824575672766699
 31
0.0
  0
ARC
  5
115
100
AcDbEntity
  8
Filament Guide Middle Honeycomb
 62
256
370
-1
  6
ByLayer
100
AcDbCircle
 10
170.0
 20
72.1500000000000341
 30
0.0
 40
6.4499999999999948
100
AcDbArc
 50
219.1773936864241819
 51
0.8883422500379582
  0
ARC
  5
116
100
AcDbEntity
  8
Filament Guide Middle Honeycomb
 62
256
370
-1
  6
ByLayer
100
AcDbCircle
 10
165.0
 20
43.9899745962155748
 30
0.0
 40
6.4500000000000099
100
AcDbArc
 50
324.560361221903861
 51
90.0
  0
ARC
  5
117
100
AcDbEntity
  8
Filament Guide Middle Honeycomb
 62
256
370
-1
  6
ByLayer
100
AcDbCircle
 10
185.0
 20
35.2499745962156226
 30
0.0
 40
13.5000000000000107
100
AcDbArc
 50
92.6535308674057916
 51
158.2615392084795189
  0
ARC
  5
118
100
AcDbEntity
  8
Filament Guide Middle Honeycomb
 62
256
370
-1
  6
ByLayer
100
AcDbCircle
 10
165.0
 20
26.5099745962156348
 30
0.0
 40
6.4500000000000011
100
AcDbArc
 50
270.0
 51
35.4396387780963877
  0
ARC
  5
119
100
AcDbEntity
  8
Filament Guide Middle Honeycomb
 62
256
370
-1
  6
ByLayer
100
AcDbCircle
 10
185.0
 20
35.2499745962156226
 30
0.0
 40
13.5000000000000018
100
AcDbArc
 50
201.7384607915204811
 51
267.3464691325941658
  0
ARC
  5
11A
100
AcDbEntity
  8
Filament Guide Middle Honeycomb
 62
256
370
-1
  6
ByLayer
100
AcDbCircle
 10
213.5
 20
35.2499745962156013
 30
0.0
 40
27.0000000000000036
100
AcDbArc
 50
37.2221338960613224
 51
90.0
  0
ARC
  5
11B
100
AcDbEntity
  8
Filament Guide Middle Honeycomb
 62
256
370
-1
  6
ByLayer
100
AcDbCircle
 10
211.5
 20
35.2499745962155941
 30
0.0
 40
27.0
100
AcDbArc
 50
90.0
 51
120.92321565535525
  0
ARC
  5
11C
100
AcDbEntity
  8
Filament Guide Middle Honeycomb
 62
256
370
-1
  6
ByLayer
100
AcDbCircle
 10
232.1500000000000057
 20
72.1500000000000341
 30
0.0
 40
6.4499999999998918
100
AcDbArc
 50
179.1116577499624611
 51
296.2226465049216131
  0
ARC
  5
11D
100
AcDbEntity
  8
Filament Guide Middle Honeycomb
 62
256
370
-1
  6
ByLayer
100
AcDbCircle
 10
169.9999999999999716
 20
7.7500000000000497
 30
0.0
 40
6.4500000000000002
100
AcDbArc
 50
79.8976949439641686
 51
140.8226063135757045
  0
LINE
  5
11E
100
AcDbEntity
100
AcDbLine
  8
Filament Guide Middle Honeycomb
 62
256
370
-1
  6
ByLayer
 10
184.375
 20
14.1000000000000369
 30
0.0
 11
171.1313708498984738
 21
14.1000000000000441
 31
0.0
  0
LINE
  5
11F
100
AcDbEntity
100
AcDbLine
  8
Filament Guide Middle Honeycomb
 62
256
370
-1
  6
ByLayer
 10
211.5
 20
62.2499745962156013
 30
0.0
 11
213.5
 21
62.2499745962156084
 31
0.0
  0
MTEXT
  5
120
100
AcDbEntity
100
AcDbMText
  8
Filament Guide Middle Text
 62
256
370
-1
  6
ByLayer
 10
213.0
 20
74.7500000000000426
 30
0.0
 40
2.0
 41
100.0
 71
5
 72
2
  1
Filament\~Guide\~Middle
  7
standard
 50
0.0
 73
1
 44
1.0
  0
MTEXT
  5
121
100
AcDbEntity
100
AcDbMText
  8
Filament Guide Middle Text
 62
256
370
-1
  6
ByLayer
 10
161.0
 20
35.7500000000000639
 30
0.0
 40
2.0
 41
100.0
 71
4
 72
2
  1
Filament\PGuide\PMiddle
  7
standard
 50
0.0
 73
1
 44
1.0
  0
CIRCLE
  5
122
100
AcDbEntity
100
AcDbCircle
  8
Filament Guide Middle
 62
256
370
-1
  6
ByLayer
 10
250.0
 20
7.7500000000000568
 30
0.0
 40
1.45
  0
CIRCLE
  5
123
100
AcDbEntity
100
AcDbCircle
  8
Filament Guide Middle
 62
256
370
-1
  6
ByLayer
 10
250.0
 20
72.1500000000000341
 30
0.0
 40
1.45
  0
CIRCLE
  5
124
100
AcDbEntity
100
AcDbCircle
  8
Filament Guide Middle
 62
256
370
-1
  6
ByLayer
 10
312.1499999999999773
 20
72.1500000000000199
 30
0.0
 40
1.45
  0
CIRCLE
  5
125
100
AcDbEntity
100
AcDbCircle
  8
Filament Guide Middle
 62
256
370
-1
  6
ByLayer
 10
312.1499999999999773
 20
7.7500000000000071
 30
0.0
 40
1.45
  0
LINE
  5
126
100
AcDbEntity
100
AcDbLine
  8
Filament Guide Middle
 62
256
370
-1
  6
ByLayer
 10
320.0
 20
72.2500000000000284
 30
0.0
 11
320.0
 21
2.7499999999999929
 31
0.0
  0
ARC
  5
127
100
AcDbEntity
  8
Filament Guide Middle
 62
256
370
-1
  6
ByLayer
100
AcDbCircle
 10
315.0
 20
72.25
 30
0.0
 40
5.0
100
AcDbArc
 50
0.0
 51
90.0
  0
LINE
  5
128
100
AcDbEntity
100
AcDbLine
  8
Filament Guide Middle
 62
256
370
-1
  6
ByLayer
 10
240.0
 20
2.7500000000000497
 30
0.0
 11
240.0
 21
72.2500000000000142
 31
0.0
  0
ARC
  5
129
100
AcDbEntity
  8
Filament Guide Middle
 62
256
370
-1
  6
ByLayer
100
AcDbCircle
 10
245.0
 20
72.25
 30
0.0
 40
5.0
100
AcDbArc
 50
90.0
 51
180.0
  0
CIRCLE
  5
12A
100
AcDbEntity
100
AcDbCircle
  8
Filament Guide Middle
 62
256
370
-1
  6
ByLayer
 10
245.0
 20
43.9899745962155748
 30
0.0
 40
1.45
  0
CIRCLE
  5
12B
100
AcDbEntity
100
AcDbCircle
  8
Filament Guide Middle
 62
256
370
-1
  6
ByLayer
 10
245.0
 20
26.5099745962156348
 30
0.0
 40
1.45
  0
LINE
  5
12C
100
AcDbEntity
100
AcDbLine
  8
Filament Guide Middle
 62
256
370
-1
  6
ByLayer
 10
286.5249999999999773
 20
9.0500000000000256
 30
0.0
 11
286.5250000000000341
 21
6.7500000000000355
 31
0.0
  0
LINE
  5
12D
100
AcDbEntity
100
AcDbLine
  8
Filament Guide Middle
 62
256
370
-1
  6
ByLayer
 10
281.2249999999999659
 20
9.0500000000000327
 30
0.0
 11
281.2250000000000227
 21
6.7500000000000355
 31
0.0
  0
LINE
  5
12E
100
AcDbEntity
100
AcDbLine
  8
Filament Guide Middle
 62
256
370
-1
  6
ByLayer
 10
282.4250000000000114
 20
9.0500000000000291
 30
0.0
 11
281.2249999999999659
 21
9.0500000000000327
 31
0.0
  0
LINE
  5
12F
100
AcDbEntity
100
AcDbLine
  8
Filament Guide Middle
 62
256
370
-1
  6
ByLayer
 10
285.3249999999999886
 20
9.0500000000000327
 30
0.0
 11
286.5249999999999773
 21
9.0500000000000256
 31
0.0
  0
LINE
  5
130
100
AcDbEntity
100
AcDbLine
  8
Filament Guide Middle
 62
256
370
-1
  6
ByLayer
 10
261.2749999999999773
 20
9.1000000000000476
 30
0.0
 11
261.2749999999999773
 21
6.7500000000000426
 31
0.0
  0
LINE
  5
131
100
AcDbEntity
100
AcDbLine
  8
Filament Guide Middle
 62
256
370
-1
  6
ByLayer
 10
255.9749999999999659
 20
9.1000000000000654
 30
0.0
 11
255.9750000000000227
 21
6.7500000000000355
 31
0.0
  0
LINE
  5
132
100
AcDbEntity
100
AcDbLine
  8
Filament Guide Middle
 62
256
370
-1
  6
ByLayer
 10
255.9749999999999659
 20
9.1000000000000654
 30
0.0
 11
257.1750000000000114
 21
9.1000000000000547
 31
0.0
  0
LINE
  5
133
100
AcDbEntity
100
AcDbLine
  8
Filament Guide Middle
 62
256
370
-1
  6
ByLayer
 10
260.0749999999999886
 20
9.1000000000000334
 30
0.0
 11
261.2749999999999773
 21
9.1000000000000476
 31
0.0
  0
LINE
  5
134
100
AcDbEntity
100
AcDbLine
  8
Filament Guide Middle
 62
256
370
-1
  6
ByLayer
 10
281.2250000000000227
 20
6.7500000000000355
 30
0.0
 11
282.4250000000000114
 21
6.7500000000000426
 31
0.0
  0
LINE
  5
135
100
AcDbEntity
100
AcDbLine
  8
Filament Guide Middle
 62
256
370
-1
  6
ByLayer
 10
282.4250000000000114
 20
6.7500000000000426
 30
0.0
 11
282.4250000000000114
 21
2.7500000000000213
 31
0.0
  0
LINE
  5
136
100
AcDbEntity
100
AcDbLine
  8
Filament Guide Middle
 62
256
370
-1
  6
ByLayer
 10
285.3249999999999886
 20
6.7500000000000213
 30
0.0
 11
286.5250000000000341
 21
6.7500000000000355
 31
0.0
  0
LINE
  5
137
100
AcDbEntity
100
AcDbLine
  8
Filament Guide Middle
 62
256
370
-1
  6
ByLayer
 10
285.3249999999999886
 20
6.7500000000000213
 30
0.0
 11
285.3249999999999886
 21
2.7500000000000213
 31
0.0
  0
LINE
  5
138
100
AcDbEntity
100
AcDbLine
  8
Filament Guide Middle
 62
256
370
-1
  6
ByLayer
 10
285.3249999999999886
 20
2.7500000000000213
 30
0.0
 11
320.0
 21
2.7499999999999929
 31
0.0
  0
LINE
  5
139
100
AcDbEntity
100
AcDbLine
  8
Filament Guide Middle
 62
256
370
-1
  6
ByLayer
 10
257.1750000000000114
 20
2.7500000000000213
 30
0.0
 11
240.0
 21
2.7500000000000497
 31
0.0
  0
LINE
  5
13A
100
AcDbEntity
100
AcDbLine
  8
Filament Guide Middle
 62
256
370
-1
  6
ByLayer
 10
257.1750000000000114
 20
6.7500000000000213
 30
0.0
 11
257.1750000000000114
 21
2.7500000000000213
 31
0.0
  0
LINE
  5
13B
100
AcDbEntity
100
AcDbLine
  8
Filament Guide Middle
 62
256
370
-1
  6
ByLayer
 10
255.9750000000000227
 20
6.7500000000000355
 30
0.0
 11
257.1750000000000114
 21
6.7500000000000213
 31
0.0
  0
LINE
  5
13C
100
AcDbEntity
100
AcDbLine
  8
Filament Guide Middle
 62
256
370
-1
  6
ByLayer
 10
260.0749999999999886
 20
6.7500000000000355
 30
0.0
 11
261.2749999999999773
 21
6.7500000000000426
 31
0.0
  0
LINE
  5
13D
100
AcDbEntity
100
AcDbLine
  8
Filament Guide Middle
 62
256
370
-1
  6
ByLayer
 10
260.0749999999999886
 20
6.7500000000000355
 30
0.0
 11
260.0749999999999886
 21
2.7500000000000355
 31
0.0
  0
LINE
  5
13E
100
AcDbEntity
100
AcDbLine
  8
Filament Guide Middle
 62
256
370
-1
  6
ByLayer
 10
260.0749999999999886
 20
2.7500000000000355
 30
0.0
 11
269.375
 21
2.7500000000000213
 31
0.0
  0
LINE
  5
13F
100
AcDbEntity
100
AcDbLine
  8
Filament Guide Middle
 62
256
370
-1
  6
ByLayer
 10
272.625
 20
2.7500000000000213
 30
0.0
 11
282.4250000000000114
 21
2.7500000000000213
 31
0.0
  0
LINE
  5
140
100
AcDbEntity
100
AcDbLine
  8
Filament Guide Middle
 62
256
370
-1
  6
ByLayer
 10
245.0
 20
77.2500000000000284
 30
0.0
 11
269.375
 21
77.2500000000000142
 31
0.0
  0
LINE
  5
141
100
AcDbEntity
100
AcDbLine
  8
Filament Guide Middle
 62
256
370
-1
  6
ByLayer
 10
272.625
 20
77.2500000000000142
 30
0.0
 11
315.0
 21
77.2500000000000142
 31
0.0
  0
LINE
  5
142
100
AcDbEntity
100
AcDbLine
  8
Filament Guide Middle
 62
256
370
-1
  6
ByLayer
 10
257.1750000000000114
 20
9.1000000000000547
 30
0.0
 11
257.1750000000000114
 21
10.6000000000000476
 31
0.0
  0
LINE
  5
143
100
AcDbEntity
100
AcDbLine
  8
Filament Guide Middle
 62
256
370
-1
  6
ByLayer
 10
260.0749999999999886
 20
10.6000000000000192
 30
0.0
 11
260.0749999999999886
 21
9.1000000000000334
 31
0.0
  0
LINE
  5
144
100
AcDbEntity
100
AcDbLine
  8
Filament Guide Middle
 62
256
370
-1
  6
ByLayer
 10
257.1750000000000114
 20
10.6000000000000476
 30
0.0
 11
260.0749999999999886
 21
10.6000000000000192
 31
0.0
  0
LINE
  5
145
100
AcDbEntity
100
AcDbLine
  8
Filament Guide Middle
 62
256
370
-1
  6
ByLayer
 10
282.4250000000000114
 20
10.5500000000000327
 30
0.0
 11
282.4250000000000114
 21
9.0500000000000291
 31
0.0
  0
LINE
  5
146
100
AcDbEntity
100
AcDbLine
  8
Filament Guide Middle
 62
256
370
-1
  6
ByLayer
 10
285.3249999999999886
 20
10.5500000000000291
 30
0.0
 11
285.3249999999999886
 21
9.0500000000000327
 31
0.0
  0
LINE
  5
147
100
AcDbEntity
100
AcDbLine
  8
Filament Guide Middle
 62
256
370
-1
  6
ByLayer
 10
282.4250000000000114
 20
10.5500000000000327
 30
0.0
 11
285.3249999999999886
 21
10.5500000000000291
 31
0.0
  0
ARC
  5
148
100
AcDbEntity
  8
Filament Guide Middle
 62
256
370
-1
  6
ByLayer
100
AcDbCircle
 10
291.5
 20
35.2499745962155941
 30
0.0
 40
22.0
100
AcDbArc
 50
90.0
 51
149.087689318362834
  0
LINE
  5
149
100
AcDbEntity
100
AcDbLine
  8
Filament Guide Middle
 62
256
370
-1
  6
ByLayer
 10
272.625
 20
77.2500000000000142
 30
0.0
 11
272.625
 21
46.5519379212313353
 31
0.0
  0
LINE
  5
14A
100
AcDbEntity
100
AcDbLine
  8
Filament Guide Middle
 62
256
370
-1
  6
ByLayer
 10
272.625
 20
20.776399536818559
 30
0.0
 11
272.625
 21
2.7500000000000213
 31
0.0
  0
ARC
  5
14B
100
AcDbEntity
  8
Filament Guide Middle
 62
256
370
-1
  6
ByLayer
100
AcDbCircle
 10
291.5
 20
35.2499745962155941
 30
0.0
 40
22.0
100
AcDbArc
 50
218.9974551089023862
 51
270.0
  0
ARC
  5
14C
100
AcDbEntity
  8
Filament Guide Middle
 62
256
370
-1
  6
ByLayer
100
AcDbCircle
 10
273.625
 20
20.7763995368185554
 30
0.0
 40
1.0
100
AcDbArc
 50
38.9974551089026136
 51
180.0
  0
LINE
  5
14D
100
AcDbEntity
100
AcDbLine
  8
Filament Guide Middle
 62
256
370
-1
  6
ByLayer
 10
269.375
 20
77.2500000000000142
 30
0.0
 11
269.375
 21
42.5375925197897899
 31
0.0
  0
ARC
  5
14E
100
AcDbEntity
  8
Filament Guide Middle
 62
256
370
-1
  6
ByLayer
100
AcDbCircle
 10
265.0
 20
35.2499745962156226
 30
0.0
 40
8.5
100
AcDbArc
 50
59.0222022193676281
 51
290.8095735776764172
  0
LINE
  5
14F
100
AcDbEntity
100
AcDbLine
  8
Filament Guide Middle
 62
256
370
-1
  6
ByLayer
 10
269.375
 20
26.3696944767599248
 30
0.0
 11
269.375
 21
2.7500000000000213
 31
0.0
  0
ARC
  5
150
100
AcDbEntity
  8
Filament Guide Middle
 62
256
370
-1
  6
ByLayer
100
AcDbCircle
 10
268.375
 20
26.3696944767599391
 30
0.0
 40
1.0
100
AcDbArc
 50
0.0
 51
110.809573577676602
  0
LINE
  5
151
100
AcDbEntity
100
AcDbLine
  8
Filament Guide Middle
 62
256
370
-1
  6
ByLayer
 10
291.5
 20
57.2499745962155941
 30
0.0
 11
293.5
 21
57.2499745962156013
 31
0.0
  0
LINE
  5
152
100
AcDbEntity
100
AcDbLine
  8
Filament Guide Middle
 62
256
370
-1
  6
ByLayer
 10
293.5
 20
13.2499745962155941
 30
0.0
 11
291.5
 21
13.2499745962156013
 31
0.0
  0
ARC
  5
153
100
AcDbEntity
  8
Filament Guide Middle
 62
256
370
-1
  6
ByLayer
100
AcDbCircle
 10
293.5
 20
35.2499745962156013
 30
0.0
 40
22.0
100
AcDbArc
 50
270.0
 51
90.0
  0
LINE
  5
154
100
AcDbEntity
100
AcDbLine
  8
Filament Guide Middle Honeycomb
 62
256
370
-1
  6
ByLayer
 10
256.4492247596126049
 20
72.2500000000000568
 30
0.0
 11
264.375
 21
72.2500000000000284
 31
0.0
  0
LINE
  5
155
100
AcDbEntity
100
AcDbLine
  8
Filament Guide Middle Honeycomb
 62
256
370
-1
  6
ByLayer
 10
264.375
 20
72.2500000000000284
 30
0.0
 11
264.375
 21
48.7354992430360028
 31
0.0
  0
LINE
  5
156
100
AcDbEntity
100
AcDbLine
  8
Filament Guide Middle Honeycomb
 62
256
370
-1
  6
ByLayer
 10
245.0
 20
68.0753834536241982
 30
0.0
 11
245.0
 21
50.4399745962156345
 31
0.0
  0
LINE
  5
157
100
AcDbEntity
100
AcDbLine
  8
Filament Guide Middle Honeycomb
 62
256
370
-1
  6
ByLayer
 10
250.254988106551707
 20
40.2499745962148268
 30
0.0
 11
252.4600637960155609
 21
40.2499745962153384
 31
0.0
  0
LINE
  5
158
100
AcDbEntity
100
AcDbLine
  8
Filament Guide Middle Honeycomb
 62
256
370
-1
  6
ByLayer
 10
250.254988106551707
 20
30.249974596215619
 30
0.0
 11
252.4600637960155609
 21
30.2499745962156084
 31
0.0
  0
LINE
  5
159
100
AcDbEntity
100
AcDbLine
  8
Filament Guide Middle Honeycomb
 62
256
370
-1
  6
ByLayer
 10
245.0
 20
20.0599745962156071
 30
0.0
 11
245.0
 21
11.8246165463759212
 31
0.0
  0
LINE
  5
15A
100
AcDbEntity
100
AcDbLine
  8
Filament Guide Middle Honeycomb
 62
256
370
-1
  6
ByLayer
 10
264.375
 20
21.7644499493952424
 30
0.0
 11
264.375
 21
14.1000000000000369
 31
0.0
  0
LINE
  5
15B
100
AcDbEntity
100
AcDbLine
  8
Filament Guide Middle Honeycomb
 62
256
370
-1
  6
ByLayer
 10
277.625
 20
58.4121069462389997
 30
0.0
 11
277.625
 21
72.2500000000000426
 31
0.0
  0
LINE
  5
15C
100
AcDbEntity
100
AcDbLine
  8
Filament Guide Middle Honeycomb
 62
256
370
-1
  6
ByLayer
 10
277.625
 20
72.2500000000000426
 30
0.0
 11
305.7007752403875429
 21
72.2500000000000426
 31
0.0
  0
LINE
  5
15D
100
AcDbEntity
100
AcDbLine
  8
Filament Guide Middle Honeycomb
 62
256
370
-1
  6
ByLayer
 10
315.0
 20
66.3638095434042725
 30
0.0
 11
315.0
 21
51.5824575672766699
 31
0.0
  0
ARC
  5
15E
100
AcDbEntity
  8
Filament Guide Middle Honeycomb
 62
256
370
-1
  6
ByLayer
100
AcDbCircle
 10
250.0
 20
72.1500000000000341
 30
0.0
 40
6.4499999999999948
100
AcDbArc
 50
219.1773936864241819
 51
0.8883422500379582
  0
ARC
  5
15F
100
AcDbEntity
  8
Filament Guide Middle Honeycomb
 62
256
370
-1
  6
ByLayer
100
AcDbCircle
 10
245.0
 20
43.9899745962155748
 30
0.0
 40
6.4500000000000099
100
AcDbArc
 50
324.560361221903861
 51
90.0
  0
ARC
  5
160
100
AcDbEntity
  8
Filament Guide Middle Honeycomb
 62
256
370
-1
  6
ByLayer
100
AcDbCircle
 10
265.0
 20
35.2499745962156226
 30
0.0
 40
13.5000000000000107
100
AcDbArc
 50
92.6535308674057916
 51
158.2615392084795189
  0
ARC
  5
161
100
AcDbEntity
  8
Filament Guide Middle Honeycomb
 62
256
370
-1
  6
ByLayer
100
AcDbCircle
 10
245.0
 20
26.5099745962156348
 30
0.0
 40
6.4500000000000011
100
AcDbArc
 50
270.0
 51
35.4396387780963877
  0
ARC
  5
162
100
AcDbEntity
  8
Filament Guide Middle Honeycomb
 62
256
370
-1
  6
ByLayer
100
AcDbCircle
 10
265.0
 20
35.2499745962156226
 30
0.0
 40
13.5000000000000018
100
AcDbArc
 50
201.7384607915204811
 51
267.3464691325941658
  0
ARC
  5
163
100
AcDbEntity
  8
Filament Guide Middle Honeycomb
 62
256
370
-1
  6
ByLayer
100
AcDbCircle
 10
293.5
 20
35.2499745962156013
 30
0.0
 40
27.0000000000000036
100
AcDbArc
 50
37.2221338960613224
 51
90.0
  0
ARC
  5
164
100
AcDbEntity
  8
Filament Guide Middle Honeycomb
 62
256
370
-1
  6
ByLayer
100
AcDbCircle
 10
291.5
 20
35.2499745962155941
 30
0.0
 40
27.0
100
AcDbArc
 50
90.0
 51
120.92321565535525
  0
ARC
  5
165
100
AcDbEntity
  8
Filament Guide Middle Honeycomb
 62
256
370
-1
  6
ByLayer
100
AcDbCircle
 10
312.1499999999999773
 20
72.1500000000000341
 30
0.0
 40
6.4499999999998918
100
AcDbArc
 50
179.1116577499624611
 51
296.2226465049216131
  0
ARC
  5
166
100
AcDbEntity
  8
Filament Guide Middle Honeycomb
 62
256
370
-1
  6
ByLayer
100
AcDbCircle
 10
249.9999999999999716
 20
7.7500000000000497
 30
0.0
 40
6.4500000000000002
100
AcDbArc
 50
79.8976949439641686
 51
140.8226063135757045
  0
LINE
  5
167
100
AcDbEntity
100
AcDbLine
  8
Filament Guide Middle Honeycomb
 62
256
370
-1
  6
ByLayer
 10
264.375
 20
14.1000000000000369
 30
0.0
 11
251.1313708498984738
 21
14.1000000000000441
 31
0.0
  0
LINE
  5
168
100
AcDbEntity
100
AcDbLine
  8
Filament Guide Middle Honeycomb
 62
256
370
-1
  6
ByLayer
 10
291.5
 20
62.2499745962156013
 30
0.0
 11
293.5
 21
62.2499745962156084
 31
0.0
  0
MTEXT
  5
169
100
AcDbEntity
100
AcDbMText
  8
Filament Guide Middle Text
 62
256
370
-1
  6
ByLayer
 10
293.0
 20
74.7500000000000426
 30
0.0
 40
2.0
 41
100.0
 71
5
 72
2
  1
Filament\~Guide\~Middle
  7
standard
 50
0.0
 73
1
 44
1.0
  0
MTEXT
  5
16A
100
AcDbEntity
100
AcDbMText
  8
Filament Guide Middle Text
 62
256
370
-1
  6
ByLayer
 10
241.0
 20
35.7500000000000639
 30
0.0
 40
2.0
 41
100.0
 71
4
 72
2
  1
Filament\PGuide\PMiddle
  7
standard
 50
0.0
 73
1
 44
1.0
  0
ENDSEC
  0
SECTION
  2
OBJECTS
  0
DICTIONARY
  5
C
100
AcDbDictionary
280
0
281
1
  3
ACAD_GROUP
350
D
  3
ACAD_LAYOUT
350
1A
  3
ACAD_MLINESTYLE
350
17
  3
ACAD_PLOTSETTINGS
350
19
  3
ACAD_PLOTSTYLENAME
350
E
  3
AcDbVariableDictionary
350
16B
  0
DICTIONARY
  5
D
100
AcDbDictionary
280
0
281
1
  0
ACDBDICTIONARYWDFLT
  5
E
100
AcDbDictionary
281
1
  3
Normal
350
F
100
AcDbDictionaryWithDefault
340
F
  0
ACDBPLACEHOLDER
  5
F
  0
DICTIONARY
  5
17
100
AcDbDictionary
280
0
281
1
  3
Standard
350
18
  0
MLINESTYLE
  5
18
100
AcDbMlineStyle
  2
STANDARD
 70
0
  3

 62
256
 51
90.0
 52
90.0
 71
2
 49
0.5
 62
256
  6
BYLAYER
 49
-0.5
 62
256
  6
BYLAYER
  0
DICTIONARY
  5
19
100
AcDbDictionary
280
0
281
1
  0
DICTIONARY
  5
1A
100
AcDbDictionary
281
1
  3
Layout1
350
1E
  3
Layout2
350
26
  3
Model
350
22
  0
LAYOUT
  5
1E
100
AcDbPlotSettings
  1

  2
C:\Program Files\AutoCAD 2002\plotters\DWF ePlot (optimized for plotting).pc3
  4

  6

 40
0.0
 41
0.0
 42
0.0
 43
0.0
 44
0.0
 45
0.0
 46
0.0
 47
0.0
 48
0.0
 49
0.0
140
0.0
141
0.0
142
1.0
143
1.0
 70
688
 72
0
 73
0
 74
5
  7

 75
16
147
1.0
148
0.0
149
0.0
100
AcDbLayout
  1
Layout1
 70
1
 71
1
 10
0.0
 20
0.0
 11
420.0
 21
297.0
 12
0.0
 22
0.0
 32
0.0
 14
100000000000000000000.0
 24
100000000000000000000.0
 34
100000000000000000000.0
 15
-100000000000000000000.0
 25
-100000000000000000000.0
 35
-100000000000000000000.0
146
0.0
 13
0.0
 23
0.0
 33
0.0
 16
1.0
 26
0.0
 36
0.0
 17
0.0
 27
1.0
 37
0.0
 76
0
330
1B
  0
LAYOUT
  5
22
100
AcDbPlotSettings
  1

  2
C:\Program Files\AutoCAD 2002\plotters\DWF ePlot (optimized for plotting).pc3
  4

  6

 40
0.0
 41
0.0
 42
0.0
 43
0.0
 44
0.0
 45
0.0
 46
0.0
 47
0.0
 48
0.0
 49
0.0
140
0.0
141
0.0
142
1.0
143
1.0
 70
1712
 72
0
 73
0
 74
0
  7

 75
0
147
1.0
148
0.0
149
0.0
100
AcDbLayout
  1
Model
 70
1
 71
0
 10
0.0
 20
0.0
 11
12.0
 21
9.0
 12
0.0
 22
0.0
 32
0.0
 14
0.0
 24
0.0
 34
0.0
 15
0.0
 25
0.0
 35
0.0
146
0.0
 13
0.0
 23
0.0
 33
0.0
 16
1.0
 26
0.0
 36
0.0
 17
0.0
 27
1.0
 37
0.0
 76
0
330
1F
  0
LAYOUT
  5
26
100
AcDbPlotSettings
  1

  2
C:\Program Files\AutoCAD 2002\plotters\DWF ePlot (optimized for plotting).pc3
  4

  6

 40
0.0
 41
0.0
 42
0.0
 43
0.0
 44
0.0
 45
0.0
 46
0.0
 47
0.0
 48
0.0
 49
0.0
140
0.0
141
0.0
142
1.0
143
1.0
 70
688
 72
0
 73
0
 74
5
  7

 75
16
147
1.0
148
0.0
149
0.0
100
AcDbLayout
  1
Layout2
 70
1
 71
2
 10
0.0
 20
0.0
 11
12.0
 21
9.0
 12
0.0
 22
0.0
 32
0.0
 14
0.0
 24
0.0
 34
0.0
 15
0.0
 25
0.0
 35
0.0
146
0.0
 13
0.0
 23
0.0
 33
0.0
 16
1.0
 26
0.0
 36
0.0
 17
0.0
 27
1.0
 37
0.0
 76
0
330
23
  0
DICTIONARY
  5
16B
100
AcDbDictionary
281
1
  3
DIMASSOC
350
16D
  3
HIDETEXT
350
16C
  0
DICTIONARYVAR
  5
16C
100
DictionaryVariables
280
0
  1
2
  0
DICTIONARYVAR
  5
16D
100
DictionaryVariables
280
0
  1
1
  0
ENDSEC
  0
EOF
