999
dxflib 2.2.0.0
  0
SECTION
  2
HEADER
  9
$ACADVER
  1
AC1015
  9
$HANDSEED
  5
FFFF
  9
$DIMASZ
 40
2.5
  9
$PLIMMIN
 10
0.0
 20
0.0
  9
$DIMEXE
 40
1.25
  9
$DIMGAP
 40
0.625
  9
$PLIMMAX
 10
210.0
 20
297.0
  9
$INSUNITS
 70
4
  9
$DIMSTYLE
  2
Standard
  9
$CLAYER
  8
0
  9
$DIMEXO
 40
0.625
  9
$DIMTXT
 40
2.5
  9
$CLAYER
  8
0
  0
ENDSEC
  0
SECTION
  2
TABLES
  0
TABLE
  2
VPORT
  5
8
100
AcDbSymbolTable
 70
1
  0
VPORT
  5
30
100
AcDbSymbolTableRecord
100
AcDbViewportTableRecord
  2
*Active
 70
0
 10
0.0
 20
0.0
 11
1.0
 21
1.0
 12
286.3055555555554861
 22
148.5
 13
0.0
 23
0.0
 14
10.0
 24
10.0
 15
10.0
 25
10.0
 16
0.0
 26
0.0
 36
1.0
 17
0.0
 27
0.0
 37
0.0
 40
297.0
 41
1.92798353909465
 42
50.0
 43
0.0
 44
0.0
 50
0.0
 51
0.0
 71
0
 72
100
 73
1
 74
3
 75
1
 76
1
 77
0
 78
0
281
0
 65
1
110
0.0
120
0.0
130
0.0
111
1.0
121
0.0
131
0.0
112
0.0
122
1.0
132
0.0
 79
0
146
0.0
  0
ENDTAB
  0
TABLE
  2
LTYPE
  5
5
100
AcDbSymbolTable
 70
21
  0
LTYPE
  5
14
100
AcDbSymbolTableRecord
100
AcDbLinetypeTableRecord
  2
ByBlock
 70
0
  3

 72
65
 73
0
 40
0.0
  0
LTYPE
  5
15
100
AcDbSymbolTableRecord
100
AcDbLinetypeTableRecord
  2
ByLayer
 70
0
  3

 72
65
 73
0
 40
0.0
  0
LTYPE
  5
16
100
AcDbSymbolTableRecord
100
AcDbLinetypeTableRecord
  2
CONTINUOUS
 70
0
  3
Solid line
 72
65
 73
0
 40
0.0
  0
LTYPE
  5
31
100
AcDbSymbolTableRecord
100
AcDbLinetypeTableRecord
  2
DOT
 70
0
  3
Dot . . . . . . . . . . . . . . . . . . . . . .
 72
65
 73
2
 40
6.3499999999999996
 49
0.0
 74
0
 49
-6.3499999999999996
 74
0
  0
LTYPE
  5
32
100
AcDbSymbolTableRecord
100
AcDbLinetypeTableRecord
  2
DOT2
 70
0
  3
Dot (.5x) .....................................
 72
65
 73
2
 40
3.1749999999999998
 49
0.0
 74
0
 49
-3.1749999999999998
 74
0
  0
LTYPE
  5
33
100
AcDbSymbolTableRecord
100
AcDbLinetypeTableRecord
  2
DOTX2
 70
0
  3
Dot (2x) .  .  .  .  .  .  .  .  .  .  .  .  .
 72
65
 73
2
 40
12.6999999999999993
 49
0.0
 74
0
 49
-12.6999999999999993
 74
0
  0
LTYPE
  5
34
100
AcDbSymbolTableRecord
100
AcDbLinetypeTableRecord
  2
DASHED
 70
0
  3
Dashed __ __ __ __ __ __ __ __ __ __ __ __ __ _
 72
65
 73
2
 40
19.0500000000000007
 49
12.6999999999999993
 74
0
 49
-6.3499999999999996
 74
0
  0
LTYPE
  5
35
100
AcDbSymbolTableRecord
100
AcDbLinetypeTableRecord
  2
DASHED2
 70
0
  3
Dashed (.5x) _ _ _ _ _ _ _ _ _ _ _ _ _ _ _ _ _
 72
65
 73
2
 40
9.5250000000000004
 49
6.3499999999999996
 74
0
 49
-3.1749999999999998
 74
0
  0
LTYPE
  5
36
100
AcDbSymbolTableRecord
100
AcDbLinetypeTableRecord
  2
DASHEDX2
 70
0
  3
Dashed (2x) ____  ____  ____  ____  ____  ___
 72
65
 73
2
 40
38.1000000000000014
 49
25.3999999999999986
 74
0
 49
-12.6999999999999993
 74
0
  0
LTYPE
  5
37
100
AcDbSymbolTableRecord
100
AcDbLinetypeTableRecord
  2
DASHDOT
 70
0
  3
Dash dot __ . __ . __ . __ . __ . __ . __ . __
 72
65
 73
4
 40
25.3999999999999986
 49
12.6999999999999993
 74
0
 49
-6.3499999999999996
 74
0
 49
0.0
 74
0
 49
-6.3499999999999996
 74
0
  0
LTYPE
  5
38
100
AcDbSymbolTableRecord
100
AcDbLinetypeTableRecord
  2
DASHDOT2
 70
0
  3
Dash dot (.5x) _._._._._._._._._._._._._._._.
 72
65
 73
4
 40
12.6999999999999993
 49
6.3499999999999996
 74
0
 49
-3.1749999999999998
 74
0
 49
0.0
 74
0
 49
-3.1749999999999998
 74
0
  0
LTYPE
  5
39
100
AcDbSymbolTableRecord
100
AcDbLinetypeTableRecord
  2
DASHDOTX2
 70
0
  3
Dash dot (2x) ____  .  ____  .  ____  .  ___
 72
65
 73
4
 40
50.7999999999999972
 49
25.3999999999999986
 74
0
 49
-12.6999999999999993
 74
0
 49
0.0
 74
0
 49
-12.6999999999999993
 74
0
  0
LTYPE
  5
3A
100
AcDbSymbolTableRecord
100
AcDbLinetypeTableRecord
  2
DIVIDE
 70
0
  3
Divide ____ . . ____ . . ____ . . ____ . . ____
 72
65
 73
6
 40
31.75
 49
12.6999999999999993
 74
0
 49
-6.3499999999999996
 74
0
 49
0.0
 74
0
 49
-6.3499999999999996
 74
0
 49
0.0
 74
0
 49
-6.3499999999999996
 74
0
  0
LTYPE
  5
3B
100
AcDbSymbolTableRecord
100
AcDbLinetypeTableRecord
  2
DIVIDE2
 70
0
  3
Divide (.5x) __..__..__..__..__..__..__..__.._
 72
65
 73
6
 40
15.875
 49
6.3499999999999996
 74
0
 49
-3.1749999999999998
 74
0
 49
0.0
 74
0
 49
-3.1749999999999998
 74
0
 49
0.0
 74
0
 49
-3.1749999999999998
 74
0
  0
LTYPE
  5
3C
100
AcDbSymbolTableRecord
100
AcDbLinetypeTableRecord
  2
DIVIDEX2
 70
0
  3
Divide (2x) ________  .  .  ________  .  .  _
 72
65
 73
6
 40
63.5
 49
25.3999999999999986
 74
0
 49
-12.6999999999999993
 74
0
 49
0.0
 74
0
 49
-12.6999999999999993
 74
0
 49
0.0
 74
0
 49
-12.6999999999999993
 74
0
  0
LTYPE
  5
3D
100
AcDbSymbolTableRecord
100
AcDbLinetypeTableRecord
  2
CENTER
 70
0
  3
Center ____ _ ____ _ ____ _ ____ _ ____ _ ____
 72
65
 73
4
 40
50.7999999999999972
 49
31.75
 74
0
 49
-6.3499999999999996
 74
0
 49
6.3499999999999996
 74
0
 49
-6.3499999999999996
 74
0
  0
LTYPE
  5
3E
100
AcDbSymbolTableRecord
100
AcDbLinetypeTableRecord
  2
CENTER2
 70
0
  3
Center (.5x) ___ _ ___ _ ___ _ ___ _ ___ _ ___
 72
65
 73
4
 40
28.5749999999999993
 49
19.0500000000000007
 74
0
 49
-3.1749999999999998
 74
0
 49
3.1749999999999998
 74
0
 49
-3.1749999999999998
 74
0
  0
LTYPE
  5
3F
100
AcDbSymbolTableRecord
100
AcDbLinetypeTableRecord
  2
CENTERX2
 70
0
  3
Center (2x) ________  __  ________  __  _____
 72
65
 73
4
 40
101.5999999999999943
 49
63.5
 74
0
 49
-12.6999999999999993
 74
0
 49
12.6999999999999993
 74
0
 49
-12.6999999999999993
 74
0
  0
LTYPE
  5
40
100
AcDbSymbolTableRecord
100
AcDbLinetypeTableRecord
  2
BORDER
 70
0
  3
Border __ __ . __ __ . __ __ . __ __ . __ __ .
 72
65
 73
6
 40
44.4500000000000028
 49
12.6999999999999993
 74
0
 49
-6.3499999999999996
 74
0
 49
12.6999999999999993
 74
0
 49
-6.3499999999999996
 74
0
 49
0.0
 74
0
 49
-6.3499999999999996
 74
0
  0
LTYPE
  5
41
100
AcDbSymbolTableRecord
100
AcDbLinetypeTableRecord
  2
BORDER2
 70
0
  3
Border (.5x) __.__.__.__.__.__.__.__.__.__.__.
 72
65
 73
6
 40
22.2250000000000014
 49
6.3499999999999996
 74
0
 49
-3.1749999999999998
 74
0
 49
6.3499999999999996
 74
0
 49
-3.1749999999999998
 74
0
 49
0.0
 74
0
 49
-3.1749999999999998
 74
0
  0
LTYPE
  5
42
100
AcDbSymbolTableRecord
100
AcDbLinetypeTableRecord
  2
BORDERX2
 70
0
  3
Border (2x) ____  ____  .  ____  ____  .  ___
 72
65
 73
6
 40
88.9000000000000057
 49
25.3999999999999986
 74
0
 49
-12.6999999999999993
 74
0
 49
25.3999999999999986
 74
0
 49
-12.6999999999999993
 74
0
 49
0.0
 74
0
 49
-12.6999999999999993
 74
0
  0
ENDTAB
  0
TABLE
  2
LAYER
  5
2
100
AcDbSymbolTable
 70
20
  0
LAYER
  5
10
100
AcDbSymbolTableRecord
100
AcDbLayerTableRecord
  2
0
 70
0
 62
7
420
0
  6
CONTINUOUS
370
25
390
F
  0
LAYER
  5
43
100
AcDbSymbolTableRecord
100
AcDbLayerTableRecord
  2
Spacer Plate
 70
0
 62
7
420
0
  6
CONTINUOUS
370
0
390
F
  0
LAYER
  5
44
100
AcDbSymbolTableRecord
100
AcDbLayerTableRecord
  2
Spacer Plate Text
 70
0
 62
4
420
65535
  6
CONTINUOUS
370
0
390
F
  0
LAYER
  5
45
100
AcDbSymbolTableRecord
100
AcDbLayerTableRecord
  2
Filament Guide Bottom
 70
0
 62
7
420
0
  6
CONTINUOUS
370
0
390
F
  0
LAYER
  5
46
100
AcDbSymbolTableRecord
100
AcDbLayerTableRecord
  2
Filament Guide Bottom Text
 70
0
 62
4
420
65535
  6
CONTINUOUS
370
0
390
F
  0
LAYER
  5
47
100
AcDbSymbolTableRecord
100
AcDbLayerTableRecord
  2
Filament Guide Top Text
 70
0
 62
4
420
65535
  6
CONTINUOUS
370
0
390
F
  0
LAYER
  5
48
100
AcDbSymbolTableRecord
100
AcDbLayerTableRecord
  2
Filament Guide Top
 70
0
 62
7
420
0
  6
CONTINUOUS
370
0
390
F
  0
LAYER
  5
49
100
AcDbSymbolTableRecord
100
AcDbLayerTableRecord
  2
Retainer Plate
 70
0
 62
7
420
0
  6
CONTINUOUS
370
0
390
F
  0
LAYER
  5
4A
100
AcDbSymbolTableRecord
100
AcDbLayerTableRecord
  2
Retainer Plate Text
 70
0
 62
4
420
65535
  6
CONTINUOUS
370
0
390
F
  0
LAYER
  5
4B
100
AcDbSymbolTableRecord
100
AcDbLayerTableRecord
  2
Idler Wheel Text
 70
0
 62
4
420
65535
  6
CONTINUOUS
370
0
390
F
  0
LAYER
  5
4C
100
AcDbSymbolTableRecord
100
AcDbLayerTableRecord
  2
Idler Wheel
 70
0
 62
7
420
0
  6
CONTINUOUS
370
0
390
F
  0
LAYER
  5
4D
100
AcDbSymbolTableRecord
100
AcDbLayerTableRecord
  2
Filament Guide Bottom Honeycomb
 70
0
 62
7
420
0
  6
CONTINUOUS
370
0
390
F
  0
LAYER
  5
4E
100
AcDbSymbolTableRecord
100
AcDbLayerTableRecord
  2
Filament Guide Top Honeycomb
 70
0
 62
7
420
0
  6
CONTINUOUS
370
0
390
F
  0
LAYER
  5
4F
100
AcDbSymbolTableRecord
100
AcDbLayerTableRecord
  2
Spacer Plate Honeycomb
 70
0
 62
7
420
0
  6
CONTINUOUS
370
0
390
F
  0
LAYER
  5
50
100
AcDbSymbolTableRecord
100
AcDbLayerTableRecord
  2
Filament Guide Middle
 70
0
 62
7
420
0
  6
CONTINUOUS
370
0
390
F
  0
LAYER
  5
51
100
AcDbSymbolTableRecord
100
AcDbLayerTableRecord
  2
Filament Guide Middle Text
 70
0
 62
4
420
65535
  6
CONTINUOUS
370
0
390
F
  0
LAYER
  5
52
100
AcDbSymbolTableRecord
100
AcDbLayerTableRecord
  2
Filament Guide Middle Honeycomb
 70
0
 62
7
420
0
  6
CONTINUOUS
370
0
390
F
  0
LAYER
  5
53
100
AcDbSymbolTableRecord
100
AcDbLayerTableRecord
  2
GH30GM Spacer Plate
 70
0
 62
7
420
0
  6
CONTINUOUS
370
0
390
F
  0
LAYER
  5
54
100
AcDbSymbolTableRecord
100
AcDbLayerTableRecord
  2
GH30GM Spacer Plate Honeycomb
 70
0
 62
7
420
0
  6
CONTINUOUS
370
0
390
F
  0
LAYER
  5
55
100
AcDbSymbolTableRecord
100
AcDbLayerTableRecord
  2
GH30GM Spacer Plate Text
 70
0
 62
4
420
65535
  6
CONTINUOUS
370
0
390
F
  0
ENDTAB
  0
TABLE
  2
STYLE
  5
3
100
AcDbSymbolTable
 70
1
  0
STYLE
  5
11
100
AcDbSymbolTableRecord
100
AcDbTextStyleTableRecord
  2
Standard
 70
0
 40
0.0
 41
0.75
 50
0.0
 71
0
 42
2.5
  3
txt
  4

  0
ENDTAB
  0
TABLE
  2
VIEW
  5
6
100
AcDbSymbolTable
 70
0
  0
ENDTAB
  0
TABLE
  2
UCS
  5
7
100
AcDbSymbolTable
 70
0
  0
ENDTAB
  0
TABLE
  2
APPID
  5
9
100
AcDbSymbolTable
 70
1
  0
APPID
  5
12
100
AcDbSymbolTableRecord
100
AcDbRegAppTableRecord
  2
ACAD
 70
0
  0
ENDTAB
  0
TABLE
  2
DIMSTYLE
  5
A
100
AcDbSymbolTable
 70
1
100
AcDbDimStyleTable
 71
0
  0
DIMSTYLE
105
27
100
AcDbSymbolTableRecord
100
AcDbDimStyleTableRecord
  2
Standard
 41
2.5
 42
0.625
 43
3.75
 44
1.25
 70
0
 73
0
 74
0
 77
1
 78
8
140
2.5
141
2.5
143
0.03937007874016
147
0.625
171
3
172
1
271
2
272
2
274
3
278
44
283
0
284
8
340
11
  0
ENDTAB
  0
TABLE
  2
BLOCK_RECORD
  5
1
100
AcDbSymbolTable
 70
1
  0
BLOCK_RECORD
  5
1F
100
AcDbSymbolTableRecord
100
AcDbBlockTableRecord
  2
*Model_Space
340
22
  0
BLOCK_RECORD
  5
1B
100
AcDbSymbolTableRecord
100
AcDbBlockTableRecord
  2
*Paper_Space
340
1E
  0
BLOCK_RECORD
  5
23
100
AcDbSymbolTableRecord
100
AcDbBlockTableRecord
  2
*Paper_Space0
340
26
  0
ENDTAB
  0
ENDSEC
  0
SECTION
  2
BLOCKS
  0
BLOCK
  5
20
100
AcDbEntity
  8
0
100
AcDbBlockBegin
  2
*Model_Space
 70
0
 10
0.0
 20
0.0
 30
0.0
  3
*Model_Space
  1

  0
ENDBLK
  5
21
100
AcDbEntity
  8
0
100
AcDbBlockEnd
  0
BLOCK
  5
1C
100
AcDbEntity
 67
1
  8
0
100
AcDbBlockBegin
  2
*Paper_Space
 70
0
 10
0.0
 20
0.0
 30
0.0
  3
*Paper_Space
  1

  0
ENDBLK
  5
1D
100
AcDbEntity
 67
1
  8
0
100
AcDbBlockEnd
  0
BLOCK
  5
24
100
AcDbEntity
  8
0
100
AcDbBlockBegin
  2
*Paper_Space0
 70
0
 10
0.0
 20
0.0
 30
0.0
  3
*Paper_Space0
  1

  0
ENDBLK
  5
25
100
AcDbEntity
  8
0
100
AcDbBlockEnd
  0
ENDSEC
  0
SECTION
  2
ENTITIES
  0
CIRCLE
  5
56
100
AcDbEntity
100
AcDbCircle
  8
Filament Guide Bottom
 62
256
370
-1
  6
ByLayer
 10
9.9999999999999929
 20
7.7500000000000071
 30
0.0
 40
1.45
  0
CIRCLE
  5
57
100
AcDbEntity
100
AcDbCircle
  8
Filament Guide Bottom
 62
256
370
-1
  6
ByLayer
 10
10.0000000000000036
 20
72.1500000000000199
 30
0.0
 40
1.45
  0
CIRCLE
  5
58
100
AcDbEntity
100
AcDbCircle
  8
Filament Guide Bottom
 62
256
370
-1
  6
ByLayer
 10
72.1500000000000057
 20
72.1500000000000057
 30
0.0
 40
1.45
  0
CIRCLE
  5
59
100
AcDbEntity
100
AcDbCircle
  8
Filament Guide Bottom
 62
256
370
-1
  6
ByLayer
 10
72.1500000000000057
 20
7.75
 30
0.0
 40
1.45
  0
LINE
  5
5A
100
AcDbEntity
100
AcDbLine
  8
Filament Guide Bottom
 62
256
370
-1
  6
ByLayer
 10
80.0
 20
72.25
 30
0.0
 11
79.9999999999999858
 21
2.7499999999999858
 31
0.0
  0
ARC
  5
5B
100
AcDbEntity
  8
Filament Guide Bottom
 62
256
370
-1
  6
ByLayer
100
AcDbCircle
 10
75.0
 20
72.25
 30
0.0
 40
5.0
100
AcDbArc
 50
0.0
 51
90.0
  0
LINE
  5
5C
100
AcDbEntity
100
AcDbLine
  8
Filament Guide Bottom
 62
256
370
-1
  6
ByLayer
 10
5.0
 20
77.25
 30
0.0
 11
75.0
 21
77.25
 31
0.0
  0
ARC
  5
5D
100
AcDbEntity
  8
Filament Guide Bottom
 62
256
370
-1
  6
ByLayer
100
AcDbCircle
 10
5.0
 20
72.25
 30
0.0
 40
5.0
100
AcDbArc
 50
90.0
 51
180.0
  0
LINE
  5
5E
100
AcDbEntity
100
AcDbLine
  8
Filament Guide Bottom
 62
256
370
-1
  6
ByLayer
 10
79.9999999999999858
 20
2.7499999999999858
 30
0.0
 11
-0.0000000000000142
 21
2.7500000000000213
 31
0.0
  0
LINE
  5
5F
100
AcDbEntity
100
AcDbLine
  8
Filament Guide Bottom
 62
256
370
-1
  6
ByLayer
 10
-0.0000000000000142
 20
2.7500000000000213
 30
0.0
 11
0.0000000000000071
 21
72.25
 31
0.0
  0
ARC
  5
60
100
AcDbEntity
  8
Filament Guide Bottom
 62
256
370
-1
  6
ByLayer
100
AcDbCircle
 10
51.5
 20
35.2499745962155586
 30
0.0
 40
22.0
100
AcDbArc
 50
90.0
 51
162.8241830142433173
  0
ARC
  5
61
100
AcDbEntity
  8
Filament Guide Bottom
 62
256
370
-1
  6
ByLayer
100
AcDbCircle
 10
51.5
 20
35.2499745962155586
 30
0.0
 40
22.0
100
AcDbArc
 50
197.1758169857565974
 51
270.0
  0
ARC
  5
62
100
AcDbEntity
  8
Filament Guide Bottom
 62
256
370
-1
  6
ByLayer
100
AcDbCircle
 10
25.0
 20
35.249974596215587
 30
0.0
 40
8.5
100
AcDbArc
 50
49.8463896084640012
 51
310.1536103915360059
  0
LINE
  5
63
100
AcDbEntity
100
AcDbLine
  8
Filament Guide Bottom
 62
256
370
-1
  6
ByLayer
 10
51.5
 20
57.2499745962155657
 30
0.0
 11
53.5
 21
57.2499745962155657
 31
0.0
  0
LINE
  5
64
100
AcDbEntity
100
AcDbLine
  8
Filament Guide Bottom
 62
256
370
-1
  6
ByLayer
 10
51.4999999999999858
 20
13.2499745962155622
 30
0.0
 11
53.5
 21
13.2499745962155657
 31
0.0
  0
ARC
  5
65
100
AcDbEntity
  8
Filament Guide Bottom
 62
256
370
-1
  6
ByLayer
100
AcDbCircle
 10
53.5
 20
35.2499745962155586
 30
0.0
 40
22.0
100
AcDbArc
 50
270.0
 51
90.0
  0
LINE
  5
66
100
AcDbEntity
100
AcDbLine
  8
Filament Guide Bottom Honeycomb
 62
256
370
-1
  6
ByLayer
 10
74.9999999999999716
 20
66.3638095434042299
 30
0.0
 11
74.9999999999999716
 21
51.5824575672766485
 31
0.0
  0
ARC
  5
67
100
AcDbEntity
  8
Filament Guide Bottom Honeycomb
 62
256
370
-1
  6
ByLayer
100
AcDbCircle
 10
72.1500000000000057
 20
72.1500000000000199
 30
0.0
 40
6.4499999999998918
100
AcDbArc
 50
179.1116577499620348
 51
296.2226465049216131
  0
ARC
  5
68
100
AcDbEntity
  8
Filament Guide Bottom Honeycomb
 62
256
370
-1
  6
ByLayer
100
AcDbCircle
 10
53.4999999999999716
 20
35.2499745962155444
 30
0.0
 40
27.0
100
AcDbArc
 50
37.2221338960613224
 51
90.0
  0
LINE
  5
69
100
AcDbEntity
100
AcDbLine
  8
Filament Guide Bottom Honeycomb
 62
256
370
-1
  6
ByLayer
 10
53.5
 20
62.2499745962155657
 30
0.0
 11
51.4999999999999716
 21
62.2499745962155799
 31
0.0
  0
ARC
  5
6A
100
AcDbEntity
  8
Filament Guide Bottom Honeycomb
 62
256
370
-1
  6
ByLayer
100
AcDbCircle
 10
9.9999999999999964
 20
72.1500000000000199
 30
0.0
 40
6.4500000000000126
100
AcDbArc
 50
219.1773936864242387
 51
0.888342250037548
  0
LINE
  5
6B
100
AcDbEntity
100
AcDbLine
  8
Filament Guide Bottom Honeycomb
 62
256
370
-1
  6
ByLayer
 10
16.4492247596125871
 20
72.25
 30
0.0
 11
24.3750000000000071
 21
72.25
 31
0.0
  0
LINE
  5
6C
100
AcDbEntity
100
AcDbLine
  8
Filament Guide Bottom Honeycomb
 62
256
370
-1
  6
ByLayer
 10
37.6250000000000142
 20
72.25
 30
0.0
 11
65.7007752403876424
 21
72.25
 31
0.0
  0
LINE
  5
6D
100
AcDbEntity
100
AcDbLine
  8
Filament Guide Bottom Honeycomb
 62
256
370
-1
  6
ByLayer
 10
5.0
 20
11.8246165463758715
 30
0.0
 11
5.0
 21
30.2499745962155906
 31
0.0
  0
LINE
  5
6E
100
AcDbEntity
100
AcDbLine
  8
Filament Guide Bottom Honeycomb
 62
256
370
-1
  6
ByLayer
 10
24.3750000000000071
 20
72.25
 30
0.0
 11
24.3750000000000142
 21
48.7354992430359601
 31
0.0
  0
ARC
  5
6F
100
AcDbEntity
  8
Filament Guide Bottom Honeycomb
 62
256
370
-1
  6
ByLayer
100
AcDbCircle
 10
24.9999999999999716
 20
35.2499745962155941
 30
0.0
 40
13.5000000000000018
100
AcDbArc
 50
92.6535308674056637
 51
156.1794419776694269
  0
ARC
  5
70
100
AcDbEntity
  8
Filament Guide Bottom Honeycomb
 62
256
370
-1
  6
ByLayer
100
AcDbCircle
 10
51.5
 20
35.2499745962155586
 30
0.0
 40
26.9999999999999964
100
AcDbArc
 50
90.0
 51
120.92321565535525
  0
LINE
  5
71
100
AcDbEntity
100
AcDbLine
  8
Filament Guide Bottom Honeycomb
 62
256
370
-1
  6
ByLayer
 10
37.6250000000000142
 20
58.4121069462389571
 30
0.0
 11
37.6250000000000142
 21
72.25
 31
0.0
  0
ARC
  5
72
100
AcDbEntity
  8
Filament Guide Bottom Honeycomb
 62
256
370
-1
  6
ByLayer
100
AcDbCircle
 10
24.9999999999999716
 20
35.2499745962155941
 30
0.0
 40
13.5000000000000018
100
AcDbArc
 50
201.7384607915205095
 51
267.3464691325942795
  0
LINE
  5
73
100
AcDbEntity
100
AcDbLine
  8
Filament Guide Bottom Honeycomb
 62
256
370
-1
  6
ByLayer
 10
12.4600637960155183
 20
30.2499745962155835
 30
0.0
 11
5.0
 21
30.2499745962155906
 31
0.0
  0
LINE
  5
74
100
AcDbEntity
100
AcDbLine
  8
Filament Guide Bottom Honeycomb
 62
256
370
-1
  6
ByLayer
 10
5.0000000000000071
 20
68.0753834536241413
 30
0.0
 11
5.0
 21
40.2499745962156226
 31
0.0
  0
LINE
  5
75
100
AcDbEntity
100
AcDbLine
  8
Filament Guide Bottom Honeycomb
 62
256
370
-1
  6
ByLayer
 10
5.0
 20
40.2499745962156226
 30
0.0
 11
12.4600637960155467
 21
40.2499745962153384
 31
0.0
  0
MTEXT
  5
76
100
AcDbEntity
100
AcDbMText
  8
Filament Guide Bottom Text
 62
256
370
-1
  6
ByLayer
 10
37.0
 20
74.75
 30
0.0
 40
2.0
 41
100.0
 71
5
 72
2
  1
Filament\~Guide\~Bottom
  7
standard
 50
0.0
 73
0
 44
1.0
  0
LINE
  5
77
100
AcDbEntity
100
AcDbLine
  8
Filament Guide Bottom
 62
256
370
-1
  6
ByLayer
 10
42.4249999999999972
 20
9.0499999999999972
 30
0.0
 11
45.3250000000000028
 21
9.0500000000000007
 31
0.0
  0
LINE
  5
78
100
AcDbEntity
100
AcDbLine
  8
Filament Guide Bottom
 62
256
370
-1
  6
ByLayer
 10
45.3250000000000028
 20
9.0500000000000007
 30
0.0
 11
45.3249999999999886
 21
6.75
 31
0.0
  0
LINE
  5
79
100
AcDbEntity
100
AcDbLine
  8
Filament Guide Bottom
 62
256
370
-1
  6
ByLayer
 10
45.3249999999999886
 20
6.75
 30
0.0
 11
42.4249999999999972
 21
6.75
 31
0.0
  0
LINE
  5
7A
100
AcDbEntity
100
AcDbLine
  8
Filament Guide Bottom
 62
256
370
-1
  6
ByLayer
 10
42.4249999999999972
 20
6.75
 30
0.0
 11
42.4249999999999972
 21
9.0499999999999972
 31
0.0
  0
LINE
  5
7B
100
AcDbEntity
100
AcDbLine
  8
Filament Guide Bottom
 62
256
370
-1
  6
ByLayer
 10
20.0749999999999886
 20
9.1000000000000085
 30
0.0
 11
17.1750000000000007
 21
9.100000000000005
 31
0.0
  0
LINE
  5
7C
100
AcDbEntity
100
AcDbLine
  8
Filament Guide Bottom
 62
256
370
-1
  6
ByLayer
 10
17.1750000000000007
 20
9.100000000000005
 30
0.0
 11
17.1750000000000007
 21
6.7500000000000071
 31
0.0
  0
LINE
  5
7D
100
AcDbEntity
100
AcDbLine
  8
Filament Guide Bottom
 62
256
370
-1
  6
ByLayer
 10
17.1750000000000007
 20
6.7500000000000071
 30
0.0
 11
20.0749999999999957
 21
6.75
 31
0.0
  0
LINE
  5
7E
100
AcDbEntity
100
AcDbLine
  8
Filament Guide Bottom
 62
256
370
-1
  6
ByLayer
 10
20.0749999999999957
 20
6.75
 30
0.0
 11
20.0749999999999886
 21
9.1000000000000085
 31
0.0
  0
ARC
  5
7F
100
AcDbEntity
  8
Filament Guide Bottom Honeycomb
 62
256
370
-1
  6
ByLayer
100
AcDbCircle
 10
9.9999999999999929
 20
7.7500000000000071
 30
0.0
 40
6.4500000000000002
100
AcDbArc
 50
31.2906619124737198
 51
140.8226063135757329
  0
LINE
  5
80
100
AcDbEntity
100
AcDbLine
  8
Filament Guide Bottom Honeycomb
 62
256
370
-1
  6
ByLayer
 10
24.3749999999999822
 20
11.1000000000000121
 30
0.0
 11
24.3750000000000071
 21
21.7644499493951962
 31
0.0
  0
LINE
  5
81
100
AcDbEntity
100
AcDbLine
  8
Filament Guide Bottom
 62
256
370
-1
  6
ByLayer
 10
24.3749999999999822
 20
11.1000000000000121
 30
0.0
 11
15.5118055118082623
 21
11.100000000000005
 31
0.0
  0
CIRCLE
  5
82
100
AcDbEntity
100
AcDbCircle
  8
Filament Guide Top
 62
256
370
-1
  6
ByLayer
 10
90.0
 20
7.7500000000000071
 30
0.0
 40
1.45
  0
CIRCLE
  5
83
100
AcDbEntity
100
AcDbCircle
  8
Filament Guide Top
 62
256
370
-1
  6
ByLayer
 10
90.0000000000000142
 20
72.1500000000000341
 30
0.0
 40
1.45
  0
CIRCLE
  5
84
100
AcDbEntity
100
AcDbCircle
  8
Filament Guide Top
 62
256
370
-1
  6
ByLayer
 10
152.1500000000000057
 20
72.1500000000000057
 30
0.0
 40
1.45
  0
CIRCLE
  5
85
100
AcDbEntity
100
AcDbCircle
  8
Filament Guide Top
 62
256
370
-1
  6
ByLayer
 10
152.1500000000000057
 20
7.7499999999999929
 30
0.0
 40
1.45
  0
LINE
  5
86
100
AcDbEntity
100
AcDbLine
  8
Filament Guide Top
 62
256
370
-1
  6
ByLayer
 10
160.0
 20
72.25
 30
0.0
 11
160.0
 21
2.7499999999999787
 31
0.0
  0
ARC
  5
87
100
AcDbEntity
  8
Filament Guide Top
 62
256
370
-1
  6
ByLayer
100
AcDbCircle
 10
155.0
 20
72.25
 30
0.0
 40
5.0
100
AcDbArc
 50
0.0
 51
90.0
  0
LINE
  5
88
100
AcDbEntity
100
AcDbLine
  8
Filament Guide Top
 62
256
370
-1
  6
ByLayer
 10
160.0
 20
2.7499999999999787
 30
0.0
 11
79.9999999999999858
 21
2.7500000000000213
 31
0.0
  0
LINE
  5
89
100
AcDbEntity
100
AcDbLine
  8
Filament Guide Top
 62
256
370
-1
  6
ByLayer
 10
85.0000000000000142
 20
77.25
 30
0.0
 11
155.0
 21
77.25
 31
0.0
  0
ARC
  5
8A
100
AcDbEntity
  8
Filament Guide Top
 62
256
370
-1
  6
ByLayer
100
AcDbCircle
 10
85.0
 20
72.25
 30
0.0
 40
5.0
100
AcDbArc
 50
90.0
 51
180.0
  0
LINE
  5
8B
100
AcDbEntity
100
AcDbLine
  8
Filament Guide Top
 62
256
370
-1
  6
ByLayer
 10
84.9999999999999858
 20
47.049930546746225
 30
0.0
 11
82.3499999999999801
 21
45.5199525649280119
 31
0.0
  0
LINE
  5
8C
100
AcDbEntity
100
AcDbLine
  8
Filament Guide Top
 62
256
370
-1
  6
ByLayer
 10
84.9999999999999858
 20
47.049930546746225
 30
0.0
 11
87.6499999999999915
 21
45.5199525649280474
 31
0.0
  0
LINE
  5
8D
100
AcDbEntity
100
AcDbLine
  8
Filament Guide Top
 62
256
370
-1
  6
ByLayer
 10
87.6499999999999915
 20
45.5199525649280474
 30
0.0
 11
87.6499999999999915
 21
42.4599966275031449
 31
0.0
  0
LINE
  5
8E
100
AcDbEntity
100
AcDbLine
  8
Filament Guide Top
 62
256
370
-1
  6
ByLayer
 10
87.6499999999999915
 20
42.4599966275031449
 30
0.0
 11
84.9999999999999858
 21
40.9300186456849815
 31
0.0
  0
LINE
  5
8F
100
AcDbEntity
100
AcDbLine
  8
Filament Guide Top
 62
256
370
-1
  6
ByLayer
 10
82.3499999999999801
 20
45.5199525649280119
 30
0.0
 11
82.3499999999999801
 21
42.459996627503152
 31
0.0
  0
LINE
  5
90
100
AcDbEntity
100
AcDbLine
  8
Filament Guide Top
 62
256
370
-1
  6
ByLayer
 10
82.3499999999999801
 20
42.459996627503152
 30
0.0
 11
84.9999999999999858
 21
40.9300186456849815
 31
0.0
  0
LINE
  5
91
100
AcDbEntity
100
AcDbLine
  8
Filament Guide Top
 62
256
370
-1
  6
ByLayer
 10
84.9999999999999858
 20
29.5699305467462423
 30
0.0
 11
82.3499999999999659
 21
28.0399525649280719
 31
0.0
  0
LINE
  5
92
100
AcDbEntity
100
AcDbLine
  8
Filament Guide Top
 62
256
370
-1
  6
ByLayer
 10
84.9999999999999858
 20
29.5699305467462423
 30
0.0
 11
87.6499999999999773
 21
28.0399525649280505
 31
0.0
  0
LINE
  5
93
100
AcDbEntity
100
AcDbLine
  8
Filament Guide Top
 62
256
370
-1
  6
ByLayer
 10
87.6499999999999773
 20
28.0399525649280505
 30
0.0
 11
87.6499999999999773
 21
24.9799966275031409
 31
0.0
  0
LINE
  5
94
100
AcDbEntity
100
AcDbLine
  8
Filament Guide Top
 62
256
370
-1
  6
ByLayer
 10
87.6499999999999773
 20
24.9799966275031409
 30
0.0
 11
84.9999999999999858
 21
23.4500186456849455
 31
0.0
  0
LINE
  5
95
100
AcDbEntity
100
AcDbLine
  8
Filament Guide Top
 62
256
370
-1
  6
ByLayer
 10
82.3499999999999659
 20
28.0399525649280719
 30
0.0
 11
82.3499999999999659
 21
24.9799966275031444
 31
0.0
  0
LINE
  5
96
100
AcDbEntity
100
AcDbLine
  8
Filament Guide Top
 62
256
370
-1
  6
ByLayer
 10
82.3499999999999659
 20
24.9799966275031444
 30
0.0
 11
84.9999999999999858
 21
23.4500186456849455
 31
0.0
  0
LINE
  5
97
100
AcDbEntity
100
AcDbLine
  8
Filament Guide Top
 62
256
370
-1
  6
ByLayer
 10
122.4249999999999687
 20
9.0500000000000185
 30
0.0
 11
125.3249999999999744
 21
9.0500000000000149
 31
0.0
  0
LINE
  5
98
100
AcDbEntity
100
AcDbLine
  8
Filament Guide Top
 62
256
370
-1
  6
ByLayer
 10
125.3249999999999744
 20
9.0500000000000149
 30
0.0
 11
125.3249999999999886
 21
6.7500000000000142
 31
0.0
  0
LINE
  5
99
100
AcDbEntity
100
AcDbLine
  8
Filament Guide Top
 62
256
370
-1
  6
ByLayer
 10
125.3249999999999886
 20
6.7500000000000142
 30
0.0
 11
122.4249999999999687
 21
6.7500000000000213
 31
0.0
  0
LINE
  5
9A
100
AcDbEntity
100
AcDbLine
  8
Filament Guide Top
 62
256
370
-1
  6
ByLayer
 10
122.4249999999999687
 20
6.7500000000000213
 30
0.0
 11
122.4249999999999687
 21
9.0500000000000185
 31
0.0
  0
LINE
  5
9B
100
AcDbEntity
100
AcDbLine
  8
Filament Guide Top
 62
256
370
-1
  6
ByLayer
 10
97.1749999999999829
 20
9.1000000000000369
 30
0.0
 11
100.0749999999999886
 21
9.1000000000000227
 31
0.0
  0
LINE
  5
9C
100
AcDbEntity
100
AcDbLine
  8
Filament Guide Top
 62
256
370
-1
  6
ByLayer
 10
100.0749999999999886
 20
9.1000000000000227
 30
0.0
 11
100.0750000000000028
 21
6.7500000000000142
 31
0.0
  0
LINE
  5
9D
100
AcDbEntity
100
AcDbLine
  8
Filament Guide Top
 62
256
370
-1
  6
ByLayer
 10
100.0750000000000028
 20
6.7500000000000142
 30
0.0
 11
97.1750000000000114
 21
6.7500000000000142
 31
0.0
  0
LINE
  5
9E
100
AcDbEntity
100
AcDbLine
  8
Filament Guide Top
 62
256
370
-1
  6
ByLayer
 10
97.1750000000000114
 20
6.7500000000000142
 30
0.0
 11
97.1749999999999829
 21
9.1000000000000369
 31
0.0
  0
ARC
  5
9F
100
AcDbEntity
  8
Filament Guide Top
 62
256
370
-1
  6
ByLayer
100
AcDbCircle
 10
131.5
 20
35.2499745962156013
 30
0.0
 40
22.0
100
AcDbArc
 50
90.0
 51
162.8241830142433741
  0
ARC
  5
A0
100
AcDbEntity
  8
Filament Guide Top
 62
256
370
-1
  6
ByLayer
100
AcDbCircle
 10
131.5
 20
35.2499745962156013
 30
0.0
 40
22.0
100
AcDbArc
 50
197.1758169857566259
 51
270.0
  0
ARC
  5
A1
100
AcDbEntity
  8
Filament Guide Top
 62
256
370
-1
  6
ByLayer
100
AcDbCircle
 10
104.9999999999999858
 20
35.2499745962156013
 30
0.0
 40
8.5
100
AcDbArc
 50
49.8463896084640012
 51
310.1536103915360059
  0
LINE
  5
A2
100
AcDbEntity
100
AcDbLine
  8
Filament Guide Top
 62
256
370
-1
  6
ByLayer
 10
133.5
 20
57.2499745962156013
 30
0.0
 11
131.4999999999999716
 21
57.2499745962156013
 31
0.0
  0
LINE
  5
A3
100
AcDbEntity
100
AcDbLine
  8
Filament Guide Top
 62
256
370
-1
  6
ByLayer
 10
131.4999999999999716
 20
13.2499745962155977
 30
0.0
 11
133.4999999999999716
 21
13.2499745962156013
 31
0.0
  0
ARC
  5
A4
100
AcDbEntity
  8
Filament Guide Top
 62
256
370
-1
  6
ByLayer
100
AcDbCircle
 10
133.5
 20
35.2499745962156084
 30
0.0
 40
22.0
100
AcDbArc
 50
270.0
 51
90.0
  0
LINE
  5
A5
100
AcDbEntity
100
AcDbLine
  8
Filament Guide Top Honeycomb
 62
256
370
-1
  6
ByLayer
 10
105.0750000000000028
 20
7.7500000000000213
 30
0.0
 11
105.0750000000000171
 21
14.1000000000000192
 31
0.0
  0
LINE
  5
A6
100
AcDbEntity
100
AcDbLine
  8
Filament Guide Top Honeycomb
 62
256
370
-1
  6
ByLayer
 10
155.0
 20
66.3638095434042583
 30
0.0
 11
155.0
 21
51.5824575672766485
 31
0.0
  0
ARC
  5
A7
100
AcDbEntity
  8
Filament Guide Top Honeycomb
 62
256
370
-1
  6
ByLayer
100
AcDbCircle
 10
152.1500000000000341
 20
72.1500000000000341
 30
0.0
 40
6.4499999999998918
100
AcDbArc
 50
179.1116577499620348
 51
296.2226465049216131
  0
ARC
  5
A8
100
AcDbEntity
  8
Filament Guide Top Honeycomb
 62
256
370
-1
  6
ByLayer
100
AcDbCircle
 10
133.5
 20
35.2499745962155657
 30
0.0
 40
27.0
100
AcDbArc
 50
37.2221338960613224
 51
90.0
  0
LINE
  5
A9
100
AcDbEntity
100
AcDbLine
  8
Filament Guide Top Honeycomb
 62
256
370
-1
  6
ByLayer
 10
133.5
 20
62.2499745962155799
 30
0.0
 11
131.5
 21
62.2499745962155941
 31
0.0
  0
LINE
  5
AA
100
AcDbEntity
100
AcDbLine
  8
Filament Guide Top Honeycomb
 62
256
370
-1
  6
ByLayer
 10
105.0750000000000171
 20
14.1000000000000192
 30
0.0
 11
88.868629150101512
 21
14.1000000000000263
 31
0.0
  0
ARC
  5
AB
100
AcDbEntity
  8
Filament Guide Top Honeycomb
 62
256
370
-1
  6
ByLayer
100
AcDbCircle
 10
89.9999999999999858
 20
7.7500000000000284
 30
0.0
 40
6.4500000000000002
100
AcDbArc
 50
100.1023050560360872
 51
140.8226063135759034
  0
LINE
  5
AC
100
AcDbEntity
100
AcDbLine
  8
Filament Guide Top Honeycomb
 62
256
370
-1
  6
ByLayer
 10
85.0000000000000142
 20
52.8234330202138977
 30
0.0
 11
92.6499999999999915
 21
48.4067041293047851
 31
0.0
  0
LINE
  5
AD
100
AcDbEntity
100
AcDbLine
  8
Filament Guide Top Honeycomb
 62
256
370
-1
  6
ByLayer
 10
92.6499999999999915
 20
48.4067041293047851
 30
0.0
 11
92.6499999999999915
 21
40.7022676917855364
 31
0.0
  0
LINE
  5
AE
100
AcDbEntity
100
AcDbLine
  8
Filament Guide Top Honeycomb
 62
256
370
-1
  6
ByLayer
 10
92.6499999999999915
 20
29.7976815006456732
 30
0.0
 11
92.6499999999999773
 21
22.093245063126389
 31
0.0
  0
LINE
  5
AF
100
AcDbEntity
100
AcDbLine
  8
Filament Guide Top Honeycomb
 62
256
370
-1
  6
ByLayer
 10
92.6499999999999773
 20
22.093245063126389
 30
0.0
 11
85.0
 21
17.6765161722173048
 31
0.0
  0
LINE
  5
B0
100
AcDbEntity
100
AcDbLine
  8
Filament Guide Top Honeycomb
 62
256
370
-1
  6
ByLayer
 10
85.0
 20
17.6765161722173048
 30
0.0
 11
85.0000000000000142
 21
11.8246165463758857
 31
0.0
  0
ARC
  5
B1
100
AcDbEntity
  8
Filament Guide Top Honeycomb
 62
256
370
-1
  6
ByLayer
100
AcDbCircle
 10
105.0000000000000142
 20
35.2499745962156013
 30
0.0
 40
13.5000000000000018
100
AcDbArc
 50
79.8674542309601776
 51
156.1794419776694269
  0
LINE
  5
B2
100
AcDbEntity
100
AcDbLine
  8
Filament Guide Top Honeycomb
 62
256
370
-1
  6
ByLayer
 10
107.375
 20
72.2500000000000284
 30
0.0
 11
107.375
 21
48.5394205967078776
 31
0.0
  0
LINE
  5
B3
100
AcDbEntity
100
AcDbLine
  8
Filament Guide Top Honeycomb
 62
256
370
-1
  6
ByLayer
 10
107.375
 20
72.2500000000000284
 30
0.0
 11
96.4492247596126049
 21
72.2500000000000142
 31
0.0
  0
LINE
  5
B4
100
AcDbEntity
100
AcDbLine
  8
Filament Guide Top Honeycomb
 62
256
370
-1
  6
ByLayer
 10
114.625
 20
72.2500000000000142
 30
0.0
 11
145.7007752403875429
 21
72.2500000000000284
 31
0.0
  0
LINE
  5
B5
100
AcDbEntity
100
AcDbLine
  8
Filament Guide Top Honeycomb
 62
256
370
-1
  6
ByLayer
 10
114.625
 20
72.2500000000000142
 30
0.0
 11
114.625
 21
56.3268428408101585
 31
0.0
  0
ARC
  5
B6
100
AcDbEntity
  8
Filament Guide Top Honeycomb
 62
256
370
-1
  6
ByLayer
100
AcDbCircle
 10
131.5
 20
35.2499745962155799
 30
0.0
 40
26.9999999999999964
100
AcDbArc
 50
90.0
 51
128.6821874534894619
  0
ARC
  5
B7
100
AcDbEntity
  8
Filament Guide Top Honeycomb
 62
256
370
-1
  6
ByLayer
100
AcDbCircle
 10
105.0000000000000142
 20
35.2499745962156013
 30
0.0
 40
13.5000000000000018
100
AcDbArc
 50
203.8205580223305731
 51
280.1325457690397798
  0
LINE
  5
B8
100
AcDbEntity
100
AcDbLine
  8
Filament Guide Top Honeycomb
 62
256
370
-1
  6
ByLayer
 10
107.3749999999999858
 20
21.9605285957233285
 30
0.0
 11
107.3749999999999716
 21
7.7500000000000213
 31
0.0
  0
LINE
  5
B9
100
AcDbEntity
100
AcDbLine
  8
Filament Guide Top Honeycomb
 62
256
370
-1
  6
ByLayer
 10
105.0750000000000028
 20
7.7500000000000213
 30
0.0
 11
107.3749999999999716
 21
7.7500000000000213
 31
0.0
  0
MTEXT
  5
BA
100
AcDbEntity
100
AcDbMText
  8
Filament Guide Top Text
 62
256
370
-1
  6
ByLayer
 10
120.9999999999999858
 20
74.7500000000000284
 30
0.0
 40
2.0
 41
100.0
 71
5
 72
2
  1
Filament\~Guide\~Top
  7
standard
 50
0.0
 73
0
 44
1.0
  0
ARC
  5
BB
100
AcDbEntity
  8
Filament Guide Top Honeycomb
 62
256
370
-1
  6
ByLayer
100
AcDbCircle
 10
90.0000000000000142
 20
72.1500000000000341
 30
0.0
 40
6.4500000000000126
100
AcDbArc
 50
219.1773936864244376
 51
0.888342250037548
  0
LINE
  5
BC
100
AcDbEntity
100
AcDbLine
  8
Filament Guide Top Honeycomb
 62
256
370
-1
  6
ByLayer
 10
85.0000000000000142
 20
52.8234330202138977
 30
0.0
 11
85.0000000000000142
 21
68.0753834536241413
 31
0.0
  0
MTEXT
  5
BD
100
AcDbEntity
100
AcDbMText
  8
Idler Wheel Text
 62
256
370
-1
  6
ByLayer
 10
134.0
 20
20.75
 30
0.0
 40
3.0
 41
100.0
 71
5
 72
2
  1
Wheel
  7
standard
 50
0.0
 73
0
 44
1.0
  0
MTEXT
  5
BE
100
AcDbEntity
100
AcDbMText
  8
Idler Wheel Text
 62
256
370
-1
  6
ByLayer
 10
134.0
 20
49.75
 30
0.0
 40
3.0
 41
100.0
 71
5
 72
2
  1
Idler
  7
standard
 50
0.0
 73
0
 44
1.0
  0
CIRCLE
  5
BF
100
AcDbEntity
100
AcDbCircle
  8
Idler Wheel
 62
256
370
-1
  6
ByLayer
 10
133.5
 20
35.2499745962155657
 30
0.0
 40
10.9499999999999993
  0
CIRCLE
  5
C0
100
AcDbEntity
100
AcDbCircle
  8
Idler Wheel
 62
256
370
-1
  6
ByLayer
 10
133.5
 20
35.2499745962155657
 30
0.0
 40
20.5
  0
ARC
  5
C1
100
AcDbEntity
  8
Retainer Plate
 62
256
370
-1
  6
ByLayer
100
AcDbCircle
 10
235.0
 20
72.25
 30
0.0
 40
5.0
100
AcDbArc
 50
0.0
 51
90.0
  0
LINE
  5
C2
100
AcDbEntity
100
AcDbLine
  8
Retainer Plate
 62
256
370
-1
  6
ByLayer
 10
240.0
 20
2.7499999999999858
 30
0.0
 11
160.0
 21
2.7500000000000213
 31
0.0
  0
LINE
  5
C3
100
AcDbEntity
100
AcDbLine
  8
Retainer Plate
 62
256
370
-1
  6
ByLayer
 10
165.0
 20
77.2499999999999858
 30
0.0
 11
235.0
 21
77.25
 31
0.0
  0
ARC
  5
C4
100
AcDbEntity
  8
Retainer Plate
 62
256
370
-1
  6
ByLayer
100
AcDbCircle
 10
165.0
 20
72.2499999999999858
 30
0.0
 40
5.0
100
AcDbArc
 50
90.0
 51
180.0
  0
ARC
  5
C5
100
AcDbEntity
  8
Retainer Plate
 62
256
370
-1
  6
ByLayer
100
AcDbCircle
 10
211.5
 20
35.2499745962155586
 30
0.0
 40
4.0
100
AcDbArc
 50
90.0
 51
270.0
  0
CIRCLE
  5
C6
100
AcDbEntity
100
AcDbCircle
  8
Retainer Plate
 62
256
370
-1
  6
ByLayer
 10
185.0
 20
35.2499745962155728
 30
0.0
 40
3.1000000000000001
  0
CIRCLE
  5
C7
100
AcDbEntity
100
AcDbCircle
  8
Retainer Plate
 62
256
370
-1
  6
ByLayer
 10
165.0
 20
43.9899745962155748
 30
0.0
 40
1.45
  0
CIRCLE
  5
C8
100
AcDbEntity
100
AcDbCircle
  8
Retainer Plate
 62
256
370
-1
  6
ByLayer
 10
165.0
 20
26.5099745962155708
 30
0.0
 40
1.45
  0
MTEXT
  5
C9
100
AcDbEntity
100
AcDbMText
  8
Retainer Plate Text
 62
256
370
-1
  6
ByLayer
 10
176.0
 20
57.1500000000000057
 30
0.0
 40
2.0
 41
100.0
 71
1
 72
2
  1
Retainer\~Plate
  7
standard
 50
0.0
 73
0
 44
1.0
  0
MTEXT
  5
CA
100
AcDbEntity
100
AcDbMText
  8
Retainer Plate Text
 62
256
370
-1
  6
ByLayer
 10
202.5
 20
67.1500000000000057
 30
0.0
 40
3.0
 41
100.0
 71
5
 72
2
  1
Pinch\~Wheel\~Extruder\~v1.1
  7
standard
 50
0.0
 73
0
 44
1.0
  0
MTEXT
  5
CB
100
AcDbEntity
100
AcDbMText
  8
Retainer Plate Text
 62
256
370
-1
  6
ByLayer
 10
176.0
 20
64.1500000000000057
 30
0.0
 40
2.0
 41
100.0
 71
1
 72
2
  1
make.rrrf.org/pwe-1.1
  7
standard
 50
0.0
 73
0
 44
1.0
  0
LINE
  5
CC
100
AcDbEntity
100
AcDbLine
  8
Retainer Plate
 62
256
370
-1
  6
ByLayer
 10
166.9400440494693498
 20
72.1500000000000057
 30
0.0
 11
168.4700220312875558
 21
69.5
 31
0.0
  0
LINE
  5
CD
100
AcDbEntity
100
AcDbLine
  8
Retainer Plate
 62
256
370
-1
  6
ByLayer
 10
166.9400440494693498
 20
72.1500000000000057
 30
0.0
 11
168.4700220312875558
 21
74.8000000000000256
 31
0.0
  0
LINE
  5
CE
100
AcDbEntity
100
AcDbLine
  8
Retainer Plate
 62
256
370
-1
  6
ByLayer
 10
168.4700220312875558
 20
74.8000000000000256
 30
0.0
 11
171.5299779687124726
 21
74.8000000000000114
 31
0.0
  0
LINE
  5
CF
100
AcDbEntity
100
AcDbLine
  8
Retainer Plate
 62
256
370
-1
  6
ByLayer
 10
171.5299779687124726
 20
74.8000000000000114
 30
0.0
 11
173.0599559505306502
 21
72.1500000000000057
 31
0.0
  0
LINE
  5
D0
100
AcDbEntity
100
AcDbLine
  8
Retainer Plate
 62
256
370
-1
  6
ByLayer
 10
168.4700220312875558
 20
69.5
 30
0.0
 11
171.5299779687124726
 21
69.5
 31
0.0
  0
LINE
  5
D1
100
AcDbEntity
100
AcDbLine
  8
Retainer Plate
 62
256
370
-1
  6
ByLayer
 10
171.5299779687124726
 20
69.5
 30
0.0
 11
173.0599559505306502
 21
72.1500000000000057
 31
0.0
  0
LINE
  5
D2
100
AcDbEntity
100
AcDbLine
  8
Retainer Plate
 62
256
370
-1
  6
ByLayer
 10
229.0900440494693555
 20
72.1500000000000057
 30
0.0
 11
230.6200220312875331
 21
69.5
 31
0.0
  0
LINE
  5
D3
100
AcDbEntity
100
AcDbLine
  8
Retainer Plate
 62
256
370
-1
  6
ByLayer
 10
229.0900440494693555
 20
72.1500000000000057
 30
0.0
 11
230.6200220312875615
 21
74.8000000000000114
 31
0.0
  0
LINE
  5
D4
100
AcDbEntity
100
AcDbLine
  8
Retainer Plate
 62
256
370
-1
  6
ByLayer
 10
230.6200220312875615
 20
74.8000000000000114
 30
0.0
 11
233.6799779687124783
 21
74.8000000000000114
 31
0.0
  0
LINE
  5
D5
100
AcDbEntity
100
AcDbLine
  8
Retainer Plate
 62
256
370
-1
  6
ByLayer
 10
233.6799779687124783
 20
74.8000000000000114
 30
0.0
 11
235.2099559505306559
 21
72.1500000000000057
 31
0.0
  0
LINE
  5
D6
100
AcDbEntity
100
AcDbLine
  8
Retainer Plate
 62
256
370
-1
  6
ByLayer
 10
230.6200220312875331
 20
69.5
 30
0.0
 11
233.6799779687124783
 21
69.5
 31
0.0
  0
LINE
  5
D7
100
AcDbEntity
100
AcDbLine
  8
Retainer Plate
 62
256
370
-1
  6
ByLayer
 10
233.6799779687124783
 20
69.5
 30
0.0
 11
235.2099559505306559
 21
72.1500000000000057
 31
0.0
  0
LINE
  5
D8
100
AcDbEntity
100
AcDbLine
  8
Retainer Plate
 62
256
370
-1
  6
ByLayer
 10
229.0900440494693271
 20
7.7499999999999787
 30
0.0
 11
230.6200220312875615
 21
5.1000000000000014
 31
0.0
  0
LINE
  5
D9
100
AcDbEntity
100
AcDbLine
  8
Retainer Plate
 62
256
370
-1
  6
ByLayer
 10
229.0900440494693271
 20
7.7499999999999787
 30
0.0
 11
230.6200220312875331
 21
10.4000000000000057
 31
0.0
  0
LINE
  5
DA
100
AcDbEntity
100
AcDbLine
  8
Retainer Plate
 62
256
370
-1
  6
ByLayer
 10
230.6200220312875331
 20
10.4000000000000057
 30
0.0
 11
233.6799779687124499
 21
10.3999999999999808
 31
0.0
  0
LINE
  5
DB
100
AcDbEntity
100
AcDbLine
  8
Retainer Plate
 62
256
370
-1
  6
ByLayer
 10
233.6799779687124499
 20
10.3999999999999808
 30
0.0
 11
235.2099559505306559
 21
7.7499999999999929
 31
0.0
  0
LINE
  5
DC
100
AcDbEntity
100
AcDbLine
  8
Retainer Plate
 62
256
370
-1
  6
ByLayer
 10
230.6200220312875615
 20
5.1000000000000014
 30
0.0
 11
233.6799779687124499
 21
5.099999999999973
 31
0.0
  0
LINE
  5
DD
100
AcDbEntity
100
AcDbLine
  8
Retainer Plate
 62
256
370
-1
  6
ByLayer
 10
233.6799779687124499
 20
5.099999999999973
 30
0.0
 11
235.2099559505306559
 21
7.7499999999999929
 31
0.0
  0
LINE
  5
DE
100
AcDbEntity
100
AcDbLine
  8
Retainer Plate
 62
256
370
-1
  6
ByLayer
 10
166.9400440494693498
 20
7.7500000000000071
 30
0.0
 11
168.4700220312875274
 21
5.1000000000000014
 31
0.0
  0
LINE
  5
DF
100
AcDbEntity
100
AcDbLine
  8
Retainer Plate
 62
256
370
-1
  6
ByLayer
 10
166.9400440494693498
 20
7.7500000000000071
 30
0.0
 11
168.4700220312875274
 21
10.4000000000000128
 31
0.0
  0
LINE
  5
E0
100
AcDbEntity
100
AcDbLine
  8
Retainer Plate
 62
256
370
-1
  6
ByLayer
 10
168.4700220312875274
 20
10.4000000000000128
 30
0.0
 11
171.5299779687124726
 21
10.4000000000000199
 31
0.0
  0
LINE
  5
E1
100
AcDbEntity
100
AcDbLine
  8
Retainer Plate
 62
256
370
-1
  6
ByLayer
 10
171.5299779687124726
 20
10.4000000000000199
 30
0.0
 11
173.0599559505306217
 21
7.7500000000000213
 31
0.0
  0
LINE
  5
E2
100
AcDbEntity
100
AcDbLine
  8
Retainer Plate
 62
256
370
-1
  6
ByLayer
 10
168.4700220312875274
 20
5.1000000000000014
 30
0.0
 11
171.5299779687124442
 21
5.1000000000000156
 31
0.0
  0
LINE
  5
E3
100
AcDbEntity
100
AcDbLine
  8
Retainer Plate
 62
256
370
-1
  6
ByLayer
 10
171.5299779687124442
 20
5.1000000000000156
 30
0.0
 11
173.0599559505306217
 21
7.7500000000000213
 31
0.0
  0
LINE
  5
E4
100
AcDbEntity
100
AcDbLine
  8
Retainer Plate
 62
256
370
-1
  6
ByLayer
 10
211.5
 20
39.2499745962155586
 30
0.0
 11
213.5
 21
39.2499745962155586
 31
0.0
  0
ARC
  5
E5
100
AcDbEntity
  8
Retainer Plate
 62
256
370
-1
  6
ByLayer
100
AcDbCircle
 10
213.5
 20
35.2499745962155586
 30
0.0
 40
4.0
100
AcDbArc
 50
270.0
 51
90.0
  0
LINE
  5
E6
100
AcDbEntity
100
AcDbLine
  8
Retainer Plate
 62
256
370
-1
  6
ByLayer
 10
213.5
 20
31.2499745962155693
 30
0.0
 11
211.5
 21
31.2499745962155657
 31
0.0
  0
CIRCLE
  5
E7
100
AcDbEntity
100
AcDbCircle
  8
Filament Guide Bottom
 62
256
370
-1
  6
ByLayer
 10
9.9999999999999858
 20
87.7500000000000568
 30
0.0
 40
1.45
  0
CIRCLE
  5
E8
100
AcDbEntity
100
AcDbCircle
  8
Filament Guide Bottom
 62
256
370
-1
  6
ByLayer
 10
10.0
 20
152.1500000000000341
 30
0.0
 40
1.45
  0
CIRCLE
  5
E9
100
AcDbEntity
100
AcDbCircle
  8
Filament Guide Bottom
 62
256
370
-1
  6
ByLayer
 10
72.1500000000000057
 20
152.1500000000000341
 30
0.0
 40
1.45
  0
CIRCLE
  5
EA
100
AcDbEntity
100
AcDbCircle
  8
Filament Guide Bottom
 62
256
370
-1
  6
ByLayer
 10
72.1499999999999915
 20
87.7500000000000284
 30
0.0
 40
1.45
  0
LINE
  5
EB
100
AcDbEntity
100
AcDbLine
  8
Filament Guide Bottom
 62
256
370
-1
  6
ByLayer
 10
80.0
 20
152.25
 30
0.0
 11
79.9999999999999716
 21
82.75
 31
0.0
  0
ARC
  5
EC
100
AcDbEntity
  8
Filament Guide Bottom
 62
256
370
-1
  6
ByLayer
100
AcDbCircle
 10
75.0
 20
152.25
 30
0.0
 40
5.0
100
AcDbArc
 50
0.0
 51
90.0
  0
LINE
  5
ED
100
AcDbEntity
100
AcDbLine
  8
Filament Guide Bottom
 62
256
370
-1
  6
ByLayer
 10
5.0
 20
157.2500000000000284
 30
0.0
 11
75.0000000000000142
 21
157.2500000000000284
 31
0.0
  0
ARC
  5
EE
100
AcDbEntity
  8
Filament Guide Bottom
 62
256
370
-1
  6
ByLayer
100
AcDbCircle
 10
5.0
 20
152.2500000000000284
 30
0.0
 40
5.0
100
AcDbArc
 50
90.0
 51
180.0
  0
LINE
  5
EF
100
AcDbEntity
100
AcDbLine
  8
Filament Guide Bottom
 62
256
370
-1
  6
ByLayer
 10
79.9999999999999716
 20
82.75
 30
0.0
 11
-0.0000000000000284
 21
82.7500000000000853
 31
0.0
  0
LINE
  5
F0
100
AcDbEntity
100
AcDbLine
  8
Filament Guide Bottom
 62
256
370
-1
  6
ByLayer
 10
-0.0000000000000284
 20
82.7500000000000853
 30
0.0
 11
0.0
 21
152.2500000000000568
 31
0.0
  0
ARC
  5
F1
100
AcDbEntity
  8
Filament Guide Bottom
 62
256
370
-1
  6
ByLayer
100
AcDbCircle
 10
51.5
 20
115.2499745962155089
 30
0.0
 40
22.0
100
AcDbArc
 50
90.0
 51
162.8241830142433173
  0
ARC
  5
F2
100
AcDbEntity
  8
Filament Guide Bottom
 62
256
370
-1
  6
ByLayer
100
AcDbCircle
 10
51.5
 20
115.2499745962155089
 30
0.0
 40
22.0
100
AcDbArc
 50
197.1758169857565974
 51
270.0
  0
ARC
  5
F3
100
AcDbEntity
  8
Filament Guide Bottom
 62
256
370
-1
  6
ByLayer
100
AcDbCircle
 10
25.0
 20
115.2499745962155231
 30
0.0
 40
8.5
100
AcDbArc
 50
49.8463896084640012
 51
310.1536103915360059
  0
LINE
  5
F4
100
AcDbEntity
100
AcDbLine
  8
Filament Guide Bottom
 62
256
370
-1
  6
ByLayer
 10
51.5
 20
137.2499745962155657
 30
0.0
 11
53.5
 21
137.2499745962155657
 31
0.0
  0
LINE
  5
F5
100
AcDbEntity
100
AcDbLine
  8
Filament Guide Bottom
 62
256
370
-1
  6
ByLayer
 10
51.4999999999999716
 20
93.2499745962155941
 30
0.0
 11
53.5
 21
93.2499745962155941
 31
0.0
  0
ARC
  5
F6
100
AcDbEntity
  8
Filament Guide Bottom
 62
256
370
-1
  6
ByLayer
100
AcDbCircle
 10
53.5
 20
115.2499745962155799
 30
0.0
 40
22.0
100
AcDbArc
 50
270.0
 51
90.0
  0
LINE
  5
F7
100
AcDbEntity
100
AcDbLine
  8
Filament Guide Bottom Honeycomb
 62
256
370
-1
  6
ByLayer
 10
74.9999999999999716
 20
146.3638095434042441
 30
0.0
 11
74.9999999999999716
 21
131.5824575672766628
 31
0.0
  0
ARC
  5
F8
100
AcDbEntity
  8
Filament Guide Bottom Honeycomb
 62
256
370
-1
  6
ByLayer
100
AcDbCircle
 10
72.1500000000000057
 20
152.1500000000000341
 30
0.0
 40
6.4499999999998918
100
AcDbArc
 50
179.1116577499620348
 51
296.2226465049216131
  0
ARC
  5
F9
100
AcDbEntity
  8
Filament Guide Bottom Honeycomb
 62
256
370
-1
  6
ByLayer
100
AcDbCircle
 10
53.4999999999999716
 20
115.2499745962155657
 30
0.0
 40
27.0
100
AcDbArc
 50
37.2221338960613224
 51
90.0
  0
LINE
  5
FA
100
AcDbEntity
100
AcDbLine
  8
Filament Guide Bottom Honeycomb
 62
256
370
-1
  6
ByLayer
 10
53.5
 20
142.2499745962155941
 30
0.0
 11
51.4999999999999716
 21
142.2499745962155941
 31
0.0
  0
ARC
  5
FB
100
AcDbEntity
  8
Filament Guide Bottom Honeycomb
 62
256
370
-1
  6
ByLayer
100
AcDbCircle
 10
10.0
 20
152.1500000000000341
 30
0.0
 40
6.4500000000000126
100
AcDbArc
 50
219.1773936864242387
 51
0.888342250037548
  0
LINE
  5
FC
100
AcDbEntity
100
AcDbLine
  8
Filament Guide Bottom Honeycomb
 62
256
370
-1
  6
ByLayer
 10
16.4492247596125907
 20
152.25
 30
0.0
 11
24.375
 21
152.25
 31
0.0
  0
LINE
  5
FD
100
AcDbEntity
100
AcDbLine
  8
Filament Guide Bottom Honeycomb
 62
256
370
-1
  6
ByLayer
 10
37.625
 20
152.25
 30
0.0
 11
65.7007752403876424
 21
152.25
 31
0.0
  0
LINE
  5
FE
100
AcDbEntity
100
AcDbLine
  8
Filament Guide Bottom Honeycomb
 62
256
370
-1
  6
ByLayer
 10
4.9999999999999858
 20
91.8246165463758928
 30
0.0
 11
5.0
 21
110.2499745962156084
 31
0.0
  0
LINE
  5
FF
100
AcDbEntity
100
AcDbLine
  8
Filament Guide Bottom Honeycomb
 62
256
370
-1
  6
ByLayer
 10
24.375
 20
152.25
 30
0.0
 11
24.3750000000000142
 21
128.7354992430360312
 31
0.0
  0
ARC
  5
100
100
AcDbEntity
  8
Filament Guide Bottom Honeycomb
 62
256
370
-1
  6
ByLayer
100
AcDbCircle
 10
24.9999999999999716
 20
115.2499745962155231
 30
0.0
 40
13.5000000000000018
100
AcDbArc
 50
92.6535308674056637
 51
156.1794419776694269
  0
ARC
  5
101
100
AcDbEntity
  8
Filament Guide Bottom Honeycomb
 62
256
370
-1
  6
ByLayer
100
AcDbCircle
 10
51.5
 20
115.2499745962155089
 30
0.0
 40
26.9999999999999964
100
AcDbArc
 50
90.0
 51
120.92321565535525
  0
LINE
  5
102
100
AcDbEntity
100
AcDbLine
  8
Filament Guide Bottom Honeycomb
 62
256
370
-1
  6
ByLayer
 10
37.6250000000000142
 20
138.4121069462389357
 30
0.0
 11
37.625
 21
152.25
 31
0.0
  0
ARC
  5
103
100
AcDbEntity
  8
Filament Guide Bottom Honeycomb
 62
256
370
-1
  6
ByLayer
100
AcDbCircle
 10
24.9999999999999716
 20
115.2499745962155231
 30
0.0
 40
13.5000000000000018
100
AcDbArc
 50
201.7384607915205095
 51
267.3464691325942795
  0
LINE
  5
104
100
AcDbEntity
100
AcDbLine
  8
Filament Guide Bottom Honeycomb
 62
256
370
-1
  6
ByLayer
 10
12.4600637960155183
 20
110.2499745962156652
 30
0.0
 11
5.0
 21
110.2499745962156084
 31
0.0
  0
LINE
  5
105
100
AcDbEntity
100
AcDbLine
  8
Filament Guide Bottom Honeycomb
 62
256
370
-1
  6
ByLayer
 10
5.0
 20
148.0753834536241413
 30
0.0
 11
5.0
 21
120.2499745962163189
 31
0.0
  0
LINE
  5
106
100
AcDbEntity
100
AcDbLine
  8
Filament Guide Bottom Honeycomb
 62
256
370
-1
  6
ByLayer
 10
5.0
 20
120.2499745962163189
 30
0.0
 11
12.4600637960155467
 21
120.2499745962154947
 31
0.0
  0
MTEXT
  5
107
100
AcDbEntity
100
AcDbMText
  8
Filament Guide Bottom Text
 62
256
370
-1
  6
ByLayer
 10
37.0000000000000142
 20
154.7500000000000568
 30
0.0
 40
2.0
 41
100.0
 71
5
 72
2
  1
Filament\~Guide\~Bottom
  7
standard
 50
0.0
 73
0
 44
1.0
  0
LINE
  5
108
100
AcDbEntity
100
AcDbLine
  8
Filament Guide Bottom
 62
256
370
-1
  6
ByLayer
 10
42.4249999999999972
 20
89.0500000000000114
 30
0.0
 11
45.3249999999999886
 21
89.0500000000000256
 31
0.0
  0
LINE
  5
109
100
AcDbEntity
100
AcDbLine
  8
Filament Guide Bottom
 62
256
370
-1
  6
ByLayer
 10
45.3249999999999886
 20
89.0500000000000256
 30
0.0
 11
45.3249999999999886
 21
86.7500000000000284
 31
0.0
  0
LINE
  5
10A
100
AcDbEntity
100
AcDbLine
  8
Filament Guide Bottom
 62
256
370
-1
  6
ByLayer
 10
45.3249999999999886
 20
86.7500000000000284
 30
0.0
 11
42.4249999999999829
 21
86.7500000000000568
 31
0.0
  0
LINE
  5
10B
100
AcDbEntity
100
AcDbLine
  8
Filament Guide Bottom
 62
256
370
-1
  6
ByLayer
 10
42.4249999999999829
 20
86.7500000000000568
 30
0.0
 11
42.4249999999999972
 21
89.0500000000000114
 31
0.0
  0
LINE
  5
10C
100
AcDbEntity
100
AcDbLine
  8
Filament Guide Bottom
 62
256
370
-1
  6
ByLayer
 10
20.0749999999999744
 20
89.1000000000000512
 30
0.0
 11
17.1749999999999829
 21
89.1000000000000654
 31
0.0
  0
LINE
  5
10D
100
AcDbEntity
100
AcDbLine
  8
Filament Guide Bottom
 62
256
370
-1
  6
ByLayer
 10
17.1749999999999829
 20
89.1000000000000654
 30
0.0
 11
17.1749999999999972
 21
86.7500000000000284
 31
0.0
  0
LINE
  5
10E
100
AcDbEntity
100
AcDbLine
  8
Filament Guide Bottom
 62
256
370
-1
  6
ByLayer
 10
17.1749999999999972
 20
86.7500000000000284
 30
0.0
 11
20.0749999999999744
 21
86.7500000000000568
 31
0.0
  0
LINE
  5
10F
100
AcDbEntity
100
AcDbLine
  8
Filament Guide Bottom
 62
256
370
-1
  6
ByLayer
 10
20.0749999999999744
 20
86.7500000000000568
 30
0.0
 11
20.0749999999999744
 21
89.1000000000000512
 31
0.0
  0
ARC
  5
110
100
AcDbEntity
  8
Filament Guide Bottom Honeycomb
 62
256
370
-1
  6
ByLayer
100
AcDbCircle
 10
9.9999999999999858
 20
87.7500000000000568
 30
0.0
 40
6.4500000000000002
100
AcDbArc
 50
31.2906619124737198
 51
140.8226063135757329
  0
LINE
  5
111
100
AcDbEntity
100
AcDbLine
  8
Filament Guide Bottom Honeycomb
 62
256
370
-1
  6
ByLayer
 10
24.3749999999999716
 20
91.1000000000000654
 30
0.0
 11
24.3749999999999858
 21
101.7644499493952424
 31
0.0
  0
LINE
  5
112
100
AcDbEntity
100
AcDbLine
  8
Filament Guide Bottom
 62
256
370
-1
  6
ByLayer
 10
24.3749999999999716
 20
91.1000000000000654
 30
0.0
 11
15.5118055118082623
 21
91.1000000000000369
 31
0.0
  0
CIRCLE
  5
113
100
AcDbEntity
100
AcDbCircle
  8
Filament Guide Top
 62
256
370
-1
  6
ByLayer
 10
89.9999999999999858
 20
87.7500000000000284
 30
0.0
 40
1.45
  0
CIRCLE
  5
114
100
AcDbEntity
100
AcDbCircle
  8
Filament Guide Top
 62
256
370
-1
  6
ByLayer
 10
90.0
 20
152.1500000000000341
 30
0.0
 40
1.45
  0
CIRCLE
  5
115
100
AcDbEntity
100
AcDbCircle
  8
Filament Guide Top
 62
256
370
-1
  6
ByLayer
 10
152.1500000000000057
 20
152.1500000000000341
 30
0.0
 40
1.45
  0
CIRCLE
  5
116
100
AcDbEntity
100
AcDbCircle
  8
Filament Guide Top
 62
256
370
-1
  6
ByLayer
 10
152.1500000000000057
 20
87.75
 30
0.0
 40
1.45
  0
LINE
  5
117
100
AcDbEntity
100
AcDbLine
  8
Filament Guide Top
 62
256
370
-1
  6
ByLayer
 10
160.0
 20
152.2500000000000284
 30
0.0
 11
160.0
 21
82.7499999999999716
 31
0.0
  0
ARC
  5
118
100
AcDbEntity
  8
Filament Guide Top
 62
256
370
-1
  6
ByLayer
100
AcDbCircle
 10
155.0
 20
152.25
 30
0.0
 40
5.0
100
AcDbArc
 50
0.0
 51
90.0
  0
LINE
  5
119
100
AcDbEntity
100
AcDbLine
  8
Filament Guide Top
 62
256
370
-1
  6
ByLayer
 10
160.0
 20
82.7499999999999716
 30
0.0
 11
79.9999999999999716
 21
82.7500000000000426
 31
0.0
  0
LINE
  5
11A
100
AcDbEntity
100
AcDbLine
  8
Filament Guide Top
 62
256
370
-1
  6
ByLayer
 10
85.0
 20
157.25
 30
0.0
 11
155.0
 21
157.25
 31
0.0
  0
ARC
  5
11B
100
AcDbEntity
  8
Filament Guide Top
 62
256
370
-1
  6
ByLayer
100
AcDbCircle
 10
85.0
 20
152.25
 30
0.0
 40
5.0
100
AcDbArc
 50
90.0
 51
180.0
  0
LINE
  5
11C
100
AcDbEntity
100
AcDbLine
  8
Filament Guide Top
 62
256
370
-1
  6
ByLayer
 10
84.9999999999999858
 20
127.049930546746225
 30
0.0
 11
82.3499999999999801
 21
125.5199525649280048
 31
0.0
  0
LINE
  5
11D
100
AcDbEntity
100
AcDbLine
  8
Filament Guide Top
 62
256
370
-1
  6
ByLayer
 10
84.9999999999999858
 20
127.049930546746225
 30
0.0
 11
87.6499999999999915
 21
125.5199525649280474
 31
0.0
  0
LINE
  5
11E
100
AcDbEntity
100
AcDbLine
  8
Filament Guide Top
 62
256
370
-1
  6
ByLayer
 10
87.6499999999999915
 20
125.5199525649280474
 30
0.0
 11
87.6499999999999915
 21
122.4599966275031449
 31
0.0
  0
LINE
  5
11F
100
AcDbEntity
100
AcDbLine
  8
Filament Guide Top
 62
256
370
-1
  6
ByLayer
 10
87.6499999999999915
 20
122.4599966275031449
 30
0.0
 11
84.9999999999999858
 21
120.9300186456849815
 31
0.0
  0
LINE
  5
120
100
AcDbEntity
100
AcDbLine
  8
Filament Guide Top
 62
256
370
-1
  6
ByLayer
 10
82.3499999999999801
 20
125.5199525649280048
 30
0.0
 11
82.3499999999999801
 21
122.4599966275031591
 31
0.0
  0
LINE
  5
121
100
AcDbEntity
100
AcDbLine
  8
Filament Guide Top
 62
256
370
-1
  6
ByLayer
 10
82.3499999999999801
 20
122.4599966275031591
 30
0.0
 11
84.9999999999999858
 21
120.9300186456849815
 31
0.0
  0
LINE
  5
122
100
AcDbEntity
100
AcDbLine
  8
Filament Guide Top
 62
256
370
-1
  6
ByLayer
 10
84.9999999999999716
 20
109.5699305467462779
 30
0.0
 11
82.3499999999999659
 21
108.0399525649281003
 31
0.0
  0
LINE
  5
123
100
AcDbEntity
100
AcDbLine
  8
Filament Guide Top
 62
256
370
-1
  6
ByLayer
 10
84.9999999999999716
 20
109.5699305467462779
 30
0.0
 11
87.6499999999999773
 21
108.0399525649280577
 31
0.0
  0
LINE
  5
124
100
AcDbEntity
100
AcDbLine
  8
Filament Guide Top
 62
256
370
-1
  6
ByLayer
 10
87.6499999999999773
 20
108.0399525649280577
 30
0.0
 11
87.6499999999999773
 21
104.9799966275031551
 31
0.0
  0
LINE
  5
125
100
AcDbEntity
100
AcDbLine
  8
Filament Guide Top
 62
256
370
-1
  6
ByLayer
 10
87.6499999999999773
 20
104.9799966275031551
 30
0.0
 11
84.9999999999999716
 21
103.4500186456849633
 31
0.0
  0
LINE
  5
126
100
AcDbEntity
100
AcDbLine
  8
Filament Guide Top
 62
256
370
-1
  6
ByLayer
 10
82.3499999999999659
 20
108.0399525649281003
 30
0.0
 11
82.3499999999999659
 21
104.9799966275031551
 31
0.0
  0
LINE
  5
127
100
AcDbEntity
100
AcDbLine
  8
Filament Guide Top
 62
256
370
-1
  6
ByLayer
 10
82.3499999999999659
 20
104.9799966275031551
 30
0.0
 11
84.9999999999999716
 21
103.4500186456849633
 31
0.0
  0
LINE
  5
128
100
AcDbEntity
100
AcDbLine
  8
Filament Guide Top
 62
256
370
-1
  6
ByLayer
 10
122.4249999999999687
 20
89.0500000000000398
 30
0.0
 11
125.3249999999999744
 21
89.0500000000000256
 31
0.0
  0
LINE
  5
129
100
AcDbEntity
100
AcDbLine
  8
Filament Guide Top
 62
256
370
-1
  6
ByLayer
 10
125.3249999999999744
 20
89.0500000000000256
 30
0.0
 11
125.3249999999999886
 21
86.7500000000000284
 31
0.0
  0
LINE
  5
12A
100
AcDbEntity
100
AcDbLine
  8
Filament Guide Top
 62
256
370
-1
  6
ByLayer
 10
125.3249999999999886
 20
86.7500000000000284
 30
0.0
 11
122.4249999999999687
 21
86.7500000000000284
 31
0.0
  0
LINE
  5
12B
100
AcDbEntity
100
AcDbLine
  8
Filament Guide Top
 62
256
370
-1
  6
ByLayer
 10
122.4249999999999687
 20
86.7500000000000284
 30
0.0
 11
122.4249999999999687
 21
89.0500000000000398
 31
0.0
  0
LINE
  5
12C
100
AcDbEntity
100
AcDbLine
  8
Filament Guide Top
 62
256
370
-1
  6
ByLayer
 10
97.1749999999999829
 20
89.1000000000000512
 30
0.0
 11
100.0750000000000028
 21
89.1000000000000227
 31
0.0
  0
LINE
  5
12D
100
AcDbEntity
100
AcDbLine
  8
Filament Guide Top
 62
256
370
-1
  6
ByLayer
 10
100.0750000000000028
 20
89.1000000000000227
 30
0.0
 11
100.0750000000000028
 21
86.7500000000000284
 31
0.0
  0
LINE
  5
12E
100
AcDbEntity
100
AcDbLine
  8
Filament Guide Top
 62
256
370
-1
  6
ByLayer
 10
100.0750000000000028
 20
86.7500000000000284
 30
0.0
 11
97.1750000000000114
 21
86.7500000000000284
 31
0.0
  0
LINE
  5
12F
100
AcDbEntity
100
AcDbLine
  8
Filament Guide Top
 62
256
370
-1
  6
ByLayer
 10
97.1750000000000114
 20
86.7500000000000284
 30
0.0
 11
97.1749999999999829
 21
89.1000000000000512
 31
0.0
  0
ARC
  5
130
100
AcDbEntity
  8
Filament Guide Top
 62
256
370
-1
  6
ByLayer
100
AcDbCircle
 10
131.5
 20
115.2499745962156084
 30
0.0
 40
22.0
100
AcDbArc
 50
90.0
 51
162.8241830142433741
  0
ARC
  5
131
100
AcDbEntity
  8
Filament Guide Top
 62
256
370
-1
  6
ByLayer
100
AcDbCircle
 10
131.5
 20
115.2499745962156084
 30
0.0
 40
22.0
100
AcDbArc
 50
197.1758169857566259
 51
270.0
  0
ARC
  5
132
100
AcDbEntity
  8
Filament Guide Top
 62
256
370
-1
  6
ByLayer
100
AcDbCircle
 10
104.9999999999999858
 20
115.2499745962156226
 30
0.0
 40
8.5
100
AcDbArc
 50
49.8463896084640012
 51
310.1536103915360059
  0
LINE
  5
133
100
AcDbEntity
100
AcDbLine
  8
Filament Guide Top
 62
256
370
-1
  6
ByLayer
 10
133.5
 20
137.2499745962156226
 30
0.0
 11
131.4999999999999716
 21
137.2499745962156226
 31
0.0
  0
LINE
  5
134
100
AcDbEntity
100
AcDbLine
  8
Filament Guide Top
 62
256
370
-1
  6
ByLayer
 10
131.4999999999999716
 20
93.2499745962156084
 30
0.0
 11
133.4999999999999432
 21
93.2499745962156084
 31
0.0
  0
ARC
  5
135
100
AcDbEntity
  8
Filament Guide Top
 62
256
370
-1
  6
ByLayer
100
AcDbCircle
 10
133.5
 20
115.2499745962156084
 30
0.0
 40
22.0
100
AcDbArc
 50
270.0
 51
90.0
  0
LINE
  5
136
100
AcDbEntity
100
AcDbLine
  8
Filament Guide Top Honeycomb
 62
256
370
-1
  6
ByLayer
 10
105.0750000000000028
 20
87.7500000000000284
 30
0.0
 11
105.0750000000000028
 21
94.1000000000000512
 31
0.0
  0
LINE
  5
137
100
AcDbEntity
100
AcDbLine
  8
Filament Guide Top Honeycomb
 62
256
370
-1
  6
ByLayer
 10
155.0
 20
146.3638095434042725
 30
0.0
 11
155.0
 21
131.5824575672766628
 31
0.0
  0
ARC
  5
138
100
AcDbEntity
  8
Filament Guide Top Honeycomb
 62
256
370
-1
  6
ByLayer
100
AcDbCircle
 10
152.1500000000000341
 20
152.1500000000000341
 30
0.0
 40
6.4499999999998918
100
AcDbArc
 50
179.1116577499620348
 51
296.2226465049216131
  0
ARC
  5
139
100
AcDbEntity
  8
Filament Guide Top Honeycomb
 62
256
370
-1
  6
ByLayer
100
AcDbCircle
 10
133.5
 20
115.2499745962155799
 30
0.0
 40
27.0
100
AcDbArc
 50
37.2221338960613224
 51
90.0
  0
LINE
  5
13A
100
AcDbEntity
100
AcDbLine
  8
Filament Guide Top Honeycomb
 62
256
370
-1
  6
ByLayer
 10
133.5
 20
142.2499745962155941
 30
0.0
 11
131.5
 21
142.2499745962156226
 31
0.0
  0
LINE
  5
13B
100
AcDbEntity
100
AcDbLine
  8
Filament Guide Top Honeycomb
 62
256
370
-1
  6
ByLayer
 10
105.0750000000000028
 20
94.1000000000000512
 30
0.0
 11
88.8686291501014978
 21
94.1000000000000512
 31
0.0
  0
ARC
  5
13C
100
AcDbEntity
  8
Filament Guide Top Honeycomb
 62
256
370
-1
  6
ByLayer
100
AcDbCircle
 10
89.9999999999999858
 20
87.7500000000000568
 30
0.0
 40
6.4500000000000002
100
AcDbArc
 50
100.1023050560360872
 51
140.8226063135759034
  0
LINE
  5
13D
100
AcDbEntity
100
AcDbLine
  8
Filament Guide Top Honeycomb
 62
256
370
-1
  6
ByLayer
 10
85.0
 20
132.823433020213912
 30
0.0
 11
92.6499999999999915
 21
128.4067041293048135
 31
0.0
  0
LINE
  5
13E
100
AcDbEntity
100
AcDbLine
  8
Filament Guide Top Honeycomb
 62
256
370
-1
  6
ByLayer
 10
92.6499999999999915
 20
128.4067041293048135
 30
0.0
 11
92.6499999999999915
 21
120.7022676917855364
 31
0.0
  0
LINE
  5
13F
100
AcDbEntity
100
AcDbLine
  8
Filament Guide Top Honeycomb
 62
256
370
-1
  6
ByLayer
 10
92.6499999999999915
 20
109.7976815006456945
 30
0.0
 11
92.6499999999999773
 21
102.0932450631264032
 31
0.0
  0
LINE
  5
140
100
AcDbEntity
100
AcDbLine
  8
Filament Guide Top Honeycomb
 62
256
370
-1
  6
ByLayer
 10
92.6499999999999773
 20
102.0932450631264032
 30
0.0
 11
85.0
 21
97.676516172217319
 31
0.0
  0
LINE
  5
141
100
AcDbEntity
100
AcDbLine
  8
Filament Guide Top Honeycomb
 62
256
370
-1
  6
ByLayer
 10
85.0
 20
97.676516172217319
 30
0.0
 11
85.0
 21
91.824616546375907
 31
0.0
  0
ARC
  5
142
100
AcDbEntity
  8
Filament Guide Top Honeycomb
 62
256
370
-1
  6
ByLayer
100
AcDbCircle
 10
105.0000000000000142
 20
115.2499745962156226
 30
0.0
 40
13.5000000000000018
100
AcDbArc
 50
79.8674542309601776
 51
156.1794419776694269
  0
LINE
  5
143
100
AcDbEntity
100
AcDbLine
  8
Filament Guide Top Honeycomb
 62
256
370
-1
  6
ByLayer
 10
107.375
 20
152.2500000000000568
 30
0.0
 11
107.375
 21
128.5394205967078847
 31
0.0
  0
LINE
  5
144
100
AcDbEntity
100
AcDbLine
  8
Filament Guide Top Honeycomb
 62
256
370
-1
  6
ByLayer
 10
107.375
 20
152.2500000000000568
 30
0.0
 11
96.4492247596126049
 21
152.2500000000000284
 31
0.0
  0
LINE
  5
145
100
AcDbEntity
100
AcDbLine
  8
Filament Guide Top Honeycomb
 62
256
370
-1
  6
ByLayer
 10
114.625
 20
152.2500000000000284
 30
0.0
 11
145.7007752403875429
 21
152.2500000000000568
 31
0.0
  0
LINE
  5
146
100
AcDbEntity
100
AcDbLine
  8
Filament Guide Top Honeycomb
 62
256
370
-1
  6
ByLayer
 10
114.625
 20
152.2500000000000284
 30
0.0
 11
114.625
 21
136.3268428408101727
 31
0.0
  0
ARC
  5
147
100
AcDbEntity
  8
Filament Guide Top Honeycomb
 62
256
370
-1
  6
ByLayer
100
AcDbCircle
 10
131.5
 20
115.2499745962155941
 30
0.0
 40
26.9999999999999964
100
AcDbArc
 50
90.0
 51
128.6821874534894619
  0
ARC
  5
148
100
AcDbEntity
  8
Filament Guide Top Honeycomb
 62
256
370
-1
  6
ByLayer
100
AcDbCircle
 10
105.0000000000000142
 20
115.2499745962156226
 30
0.0
 40
13.5000000000000018
100
AcDbArc
 50
203.8205580223305731
 51
280.1325457690397798
  0
LINE
  5
149
100
AcDbEntity
100
AcDbLine
  8
Filament Guide Top Honeycomb
 62
256
370
-1
  6
ByLayer
 10
107.3749999999999716
 20
101.9605285957233463
 30
0.0
 11
107.3749999999999574
 21
87.7500000000000426
 31
0.0
  0
LINE
  5
14A
100
AcDbEntity
100
AcDbLine
  8
Filament Guide Top Honeycomb
 62
256
370
-1
  6
ByLayer
 10
105.0750000000000028
 20
87.7500000000000284
 30
0.0
 11
107.3749999999999574
 21
87.7500000000000426
 31
0.0
  0
MTEXT
  5
14B
100
AcDbEntity
100
AcDbMText
  8
Filament Guide Top Text
 62
256
370
-1
  6
ByLayer
 10
120.9999999999999858
 20
154.7500000000000568
 30
0.0
 40
2.0
 41
100.0
 71
5
 72
2
  1
Filament\~Guide\~Top
  7
standard
 50
0.0
 73
0
 44
1.0
  0
ARC
  5
14C
100
AcDbEntity
  8
Filament Guide Top Honeycomb
 62
256
370
-1
  6
ByLayer
100
AcDbCircle
 10
90.0
 20
152.1500000000000341
 30
0.0
 40
6.4500000000000126
100
AcDbArc
 50
219.1773936864244376
 51
0.888342250037548
  0
LINE
  5
14D
100
AcDbEntity
100
AcDbLine
  8
Filament Guide Top Honeycomb
 62
256
370
-1
  6
ByLayer
 10
85.0
 20
132.823433020213912
 30
0.0
 11
85.0000000000000142
 21
148.0753834536241698
 31
0.0
  0
MTEXT
  5
14E
100
AcDbEntity
100
AcDbMText
  8
Idler Wheel Text
 62
256
370
-1
  6
ByLayer
 10
134.0
 20
100.7500000000000142
 30
0.0
 40
3.0
 41
100.0
 71
5
 72
2
  1
Wheel
  7
standard
 50
0.0
 73
0
 44
1.0
  0
MTEXT
  5
14F
100
AcDbEntity
100
AcDbMText
  8
Idler Wheel Text
 62
256
370
-1
  6
ByLayer
 10
134.0
 20
129.75
 30
0.0
 40
3.0
 41
100.0
 71
5
 72
2
  1
Idler
  7
standard
 50
0.0
 73
0
 44
1.0
  0
CIRCLE
  5
150
100
AcDbEntity
100
AcDbCircle
  8
Idler Wheel
 62
256
370
-1
  6
ByLayer
 10
133.5
 20
115.2499745962155799
 30
0.0
 40
10.9499999999999993
  0
CIRCLE
  5
151
100
AcDbEntity
100
AcDbCircle
  8
Idler Wheel
 62
256
370
-1
  6
ByLayer
 10
133.5
 20
115.2499745962155799
 30
0.0
 40
20.5
  0
LINE
  5
152
100
AcDbEntity
100
AcDbLine
  8
Retainer Plate
 62
256
370
-1
  6
ByLayer
 10
240.0
 20
152.2500000000000284
 30
0.0
 11
240.0
 21
82.7499999999999432
 31
0.0
  0
ARC
  5
153
100
AcDbEntity
  8
Retainer Plate
 62
256
370
-1
  6
ByLayer
100
AcDbCircle
 10
235.0
 20
152.25
 30
0.0
 40
5.0
100
AcDbArc
 50
0.0
 51
90.0
  0
LINE
  5
154
100
AcDbEntity
100
AcDbLine
  8
Retainer Plate
 62
256
370
-1
  6
ByLayer
 10
240.0
 20
82.7499999999999432
 30
0.0
 11
160.0
 21
82.7500000000000284
 31
0.0
  0
LINE
  5
155
100
AcDbEntity
100
AcDbLine
  8
Retainer Plate
 62
256
370
-1
  6
ByLayer
 10
165.0
 20
157.25
 30
0.0
 11
235.0
 21
157.2500000000000284
 31
0.0
  0
ARC
  5
156
100
AcDbEntity
  8
Retainer Plate
 62
256
370
-1
  6
ByLayer
100
AcDbCircle
 10
165.0
 20
152.25
 30
0.0
 40
5.0
100
AcDbArc
 50
90.0
 51
180.0
  0
ARC
  5
157
100
AcDbEntity
  8
Retainer Plate
 62
256
370
-1
  6
ByLayer
100
AcDbCircle
 10
211.5
 20
115.2499745962156226
 30
0.0
 40
4.0
100
AcDbArc
 50
90.0
 51
270.0
  0
CIRCLE
  5
158
100
AcDbEntity
100
AcDbCircle
  8
Retainer Plate
 62
256
370
-1
  6
ByLayer
 10
185.0
 20
115.2499745962154947
 30
0.0
 40
3.1000000000000001
  0
CIRCLE
  5
159
100
AcDbEntity
100
AcDbCircle
  8
Retainer Plate
 62
256
370
-1
  6
ByLayer
 10
165.0
 20
123.9899745962155748
 30
0.0
 40
1.45
  0
CIRCLE
  5
15A
100
AcDbEntity
100
AcDbCircle
  8
Retainer Plate
 62
256
370
-1
  6
ByLayer
 10
165.0
 20
106.5099745962155566
 30
0.0
 40
1.45
  0
MTEXT
  5
15B
100
AcDbEntity
100
AcDbMText
  8
Retainer Plate Text
 62
256
370
-1
  6
ByLayer
 10
176.0
 20
137.1500000000000341
 30
0.0
 40
2.0
 41
100.0
 71
1
 72
2
  1
Retainer\~Plate
  7
standard
 50
0.0
 73
0
 44
1.0
  0
MTEXT
  5
15C
100
AcDbEntity
100
AcDbMText
  8
Retainer Plate Text
 62
256
370
-1
  6
ByLayer
 10
202.5
 20
147.1500000000000341
 30
0.0
 40
3.0
 41
100.0
 71
5
 72
2
  1
Pinch\~Wheel\~Extruder\~v1.1
  7
standard
 50
0.0
 73
0
 44
1.0
  0
MTEXT
  5
15D
100
AcDbEntity
100
AcDbMText
  8
Retainer Plate Text
 62
256
370
-1
  6
ByLayer
 10
176.0
 20
144.1500000000000057
 30
0.0
 40
2.0
 41
100.0
 71
1
 72
2
  1
make.rrrf.org/pwe-1.1
  7
standard
 50
0.0
 73
0
 44
1.0
  0
LINE
  5
15E
100
AcDbEntity
100
AcDbLine
  8
Retainer Plate
 62
256
370
-1
  6
ByLayer
 10
166.9400440494693498
 20
152.1500000000000057
 30
0.0
 11
168.4700220312875558
 21
149.5000000000000284
 31
0.0
  0
LINE
  5
15F
100
AcDbEntity
100
AcDbLine
  8
Retainer Plate
 62
256
370
-1
  6
ByLayer
 10
166.9400440494693498
 20
152.1500000000000057
 30
0.0
 11
168.4700220312875558
 21
154.8000000000000398
 31
0.0
  0
LINE
  5
160
100
AcDbEntity
100
AcDbLine
  8
Retainer Plate
 62
256
370
-1
  6
ByLayer
 10
168.4700220312875558
 20
154.8000000000000398
 30
0.0
 11
171.5299779687124726
 21
154.8000000000000398
 31
0.0
  0
LINE
  5
161
100
AcDbEntity
100
AcDbLine
  8
Retainer Plate
 62
256
370
-1
  6
ByLayer
 10
171.5299779687124726
 20
154.8000000000000398
 30
0.0
 11
173.0599559505306502
 21
152.1500000000000341
 31
0.0
  0
LINE
  5
162
100
AcDbEntity
100
AcDbLine
  8
Retainer Plate
 62
256
370
-1
  6
ByLayer
 10
168.4700220312875558
 20
149.5000000000000284
 30
0.0
 11
171.5299779687124726
 21
149.5
 31
0.0
  0
LINE
  5
163
100
AcDbEntity
100
AcDbLine
  8
Retainer Plate
 62
256
370
-1
  6
ByLayer
 10
171.5299779687124726
 20
149.5
 30
0.0
 11
173.0599559505306502
 21
152.1500000000000341
 31
0.0
  0
LINE
  5
164
100
AcDbEntity
100
AcDbLine
  8
Retainer Plate
 62
256
370
-1
  6
ByLayer
 10
229.0900440494693555
 20
152.1500000000000057
 30
0.0
 11
230.6200220312875331
 21
149.5
 31
0.0
  0
LINE
  5
165
100
AcDbEntity
100
AcDbLine
  8
Retainer Plate
 62
256
370
-1
  6
ByLayer
 10
229.0900440494693555
 20
152.1500000000000057
 30
0.0
 11
230.6200220312875615
 21
154.8000000000000114
 31
0.0
  0
LINE
  5
166
100
AcDbEntity
100
AcDbLine
  8
Retainer Plate
 62
256
370
-1
  6
ByLayer
 10
230.6200220312875615
 20
154.8000000000000114
 30
0.0
 11
233.6799779687124783
 21
154.8000000000000398
 31
0.0
  0
LINE
  5
167
100
AcDbEntity
100
AcDbLine
  8
Retainer Plate
 62
256
370
-1
  6
ByLayer
 10
233.6799779687124783
 20
154.8000000000000398
 30
0.0
 11
235.2099559505306559
 21
152.1500000000000057
 31
0.0
  0
LINE
  5
168
100
AcDbEntity
100
AcDbLine
  8
Retainer Plate
 62
256
370
-1
  6
ByLayer
 10
230.6200220312875331
 20
149.5
 30
0.0
 11
233.6799779687124783
 21
149.5
 31
0.0
  0
LINE
  5
169
100
AcDbEntity
100
AcDbLine
  8
Retainer Plate
 62
256
370
-1
  6
ByLayer
 10
233.6799779687124783
 20
149.5
 30
0.0
 11
235.2099559505306559
 21
152.1500000000000057
 31
0.0
  0
LINE
  5
16A
100
AcDbEntity
100
AcDbLine
  8
Retainer Plate
 62
256
370
-1
  6
ByLayer
 10
229.0900440494693271
 20
87.7499999999999147
 30
0.0
 11
230.6200220312875331
 21
85.0999999999999943
 31
0.0
  0
LINE
  5
16B
100
AcDbEntity
100
AcDbLine
  8
Retainer Plate
 62
256
370
-1
  6
ByLayer
 10
229.0900440494693271
 20
87.7499999999999147
 30
0.0
 11
230.6200220312875331
 21
90.3999999999999915
 31
0.0
  0
LINE
  5
16C
100
AcDbEntity
100
AcDbLine
  8
Retainer Plate
 62
256
370
-1
  6
ByLayer
 10
230.6200220312875331
 20
90.3999999999999915
 30
0.0
 11
233.6799779687124214
 21
90.3999999999999488
 31
0.0
  0
LINE
  5
16D
100
AcDbEntity
100
AcDbLine
  8
Retainer Plate
 62
256
370
-1
  6
ByLayer
 10
233.6799779687124214
 20
90.3999999999999488
 30
0.0
 11
235.2099559505306274
 21
87.7499999999999432
 31
0.0
  0
LINE
  5
16E
100
AcDbEntity
100
AcDbLine
  8
Retainer Plate
 62
256
370
-1
  6
ByLayer
 10
230.6200220312875331
 20
85.0999999999999943
 30
0.0
 11
233.6799779687124214
 21
85.0999999999999801
 31
0.0
  0
LINE
  5
16F
100
AcDbEntity
100
AcDbLine
  8
Retainer Plate
 62
256
370
-1
  6
ByLayer
 10
233.6799779687124214
 20
85.0999999999999801
 30
0.0
 11
235.2099559505306274
 21
87.7499999999999432
 31
0.0
  0
LINE
  5
170
100
AcDbEntity
100
AcDbLine
  8
Retainer Plate
 62
256
370
-1
  6
ByLayer
 10
166.9400440494693498
 20
87.7500000000000284
 30
0.0
 11
168.4700220312875274
 21
85.1000000000000085
 31
0.0
  0
LINE
  5
171
100
AcDbEntity
100
AcDbLine
  8
Retainer Plate
 62
256
370
-1
  6
ByLayer
 10
166.9400440494693498
 20
87.7500000000000284
 30
0.0
 11
168.470022031287499
 21
90.3999999999999915
 31
0.0
  0
LINE
  5
172
100
AcDbEntity
100
AcDbLine
  8
Retainer Plate
 62
256
370
-1
  6
ByLayer
 10
168.470022031287499
 20
90.3999999999999915
 30
0.0
 11
171.5299779687124726
 21
90.4000000000000199
 31
0.0
  0
LINE
  5
173
100
AcDbEntity
100
AcDbLine
  8
Retainer Plate
 62
256
370
-1
  6
ByLayer
 10
171.5299779687124726
 20
90.4000000000000199
 30
0.0
 11
173.0599559505305933
 21
87.75
 31
0.0
  0
LINE
  5
174
100
AcDbEntity
100
AcDbLine
  8
Retainer Plate
 62
256
370
-1
  6
ByLayer
 10
168.4700220312875274
 20
85.1000000000000085
 30
0.0
 11
171.5299779687124442
 21
85.1000000000000085
 31
0.0
  0
LINE
  5
175
100
AcDbEntity
100
AcDbLine
  8
Retainer Plate
 62
256
370
-1
  6
ByLayer
 10
171.5299779687124442
 20
85.1000000000000085
 30
0.0
 11
173.0599559505305933
 21
87.75
 31
0.0
  0
LINE
  5
176
100
AcDbEntity
100
AcDbLine
  8
Retainer Plate
 62
256
370
-1
  6
ByLayer
 10
211.5
 20
119.2499745962158499
 30
0.0
 11
213.5
 21
119.2499745962152673
 31
0.0
  0
ARC
  5
177
100
AcDbEntity
  8
Retainer Plate
 62
256
370
-1
  6
ByLayer
100
AcDbCircle
 10
213.5
 20
115.2499745962157078
 30
0.0
 40
4.0
100
AcDbArc
 50
270.0
 51
90.0
  0
LINE
  5
178
100
AcDbEntity
100
AcDbLine
  8
Retainer Plate
 62
256
370
-1
  6
ByLayer
 10
213.5
 20
111.2499745962154805
 30
0.0
 11
211.5
 21
111.2499745962154947
 31
0.0
  0
CIRCLE
  5
179
100
AcDbEntity
100
AcDbCircle
  8
Filament Guide Bottom
 62
256
370
-1
  6
ByLayer
 10
9.9999999999999858
 20
167.7500000000000568
 30
0.0
 40
1.45
  0
CIRCLE
  5
17A
100
AcDbEntity
100
AcDbCircle
  8
Filament Guide Bottom
 62
256
370
-1
  6
ByLayer
 10
10.0
 20
232.1500000000000341
 30
0.0
 40
1.45
  0
CIRCLE
  5
17B
100
AcDbEntity
100
AcDbCircle
  8
Filament Guide Bottom
 62
256
370
-1
  6
ByLayer
 10
72.1500000000000057
 20
232.1500000000000341
 30
0.0
 40
1.45
  0
CIRCLE
  5
17C
100
AcDbEntity
100
AcDbCircle
  8
Filament Guide Bottom
 62
256
370
-1
  6
ByLayer
 10
72.1499999999999915
 20
167.7500000000000284
 30
0.0
 40
1.45
  0
LINE
  5
17D
100
AcDbEntity
100
AcDbLine
  8
Filament Guide Bottom
 62
256
370
-1
  6
ByLayer
 10
80.0
 20
232.25
 30
0.0
 11
79.9999999999999716
 21
162.75
 31
0.0
  0
ARC
  5
17E
100
AcDbEntity
  8
Filament Guide Bottom
 62
256
370
-1
  6
ByLayer
100
AcDbCircle
 10
75.0
 20
232.25
 30
0.0
 40
5.0
100
AcDbArc
 50
0.0
 51
90.0
  0
LINE
  5
17F
100
AcDbEntity
100
AcDbLine
  8
Filament Guide Bottom
 62
256
370
-1
  6
ByLayer
 10
5.0
 20
237.2500000000000284
 30
0.0
 11
75.0000000000000142
 21
237.2500000000000284
 31
0.0
  0
ARC
  5
180
100
AcDbEntity
  8
Filament Guide Bottom
 62
256
370
-1
  6
ByLayer
100
AcDbCircle
 10
5.0
 20
232.2500000000000284
 30
0.0
 40
5.0
100
AcDbArc
 50
90.0
 51
180.0
  0
LINE
  5
181
100
AcDbEntity
100
AcDbLine
  8
Filament Guide Bottom
 62
256
370
-1
  6
ByLayer
 10
79.9999999999999716
 20
162.75
 30
0.0
 11
-0.0000000000000284
 21
162.7500000000000853
 31
0.0
  0
LINE
  5
182
100
AcDbEntity
100
AcDbLine
  8
Filament Guide Bottom
 62
256
370
-1
  6
ByLayer
 10
-0.0000000000000284
 20
162.7500000000000853
 30
0.0
 11
0.0
 21
232.2500000000000568
 31
0.0
  0
ARC
  5
183
100
AcDbEntity
  8
Filament Guide Bottom
 62
256
370
-1
  6
ByLayer
100
AcDbCircle
 10
51.5
 20
195.2499745962155089
 30
0.0
 40
22.0
100
AcDbArc
 50
90.0
 51
162.8241830142433173
  0
ARC
  5
184
100
AcDbEntity
  8
Filament Guide Bottom
 62
256
370
-1
  6
ByLayer
100
AcDbCircle
 10
51.5
 20
195.2499745962155089
 30
0.0
 40
22.0
100
AcDbArc
 50
197.1758169857565974
 51
270.0
  0
ARC
  5
185
100
AcDbEntity
  8
Filament Guide Bottom
 62
256
370
-1
  6
ByLayer
100
AcDbCircle
 10
25.0
 20
195.2499745962155373
 30
0.0
 40
8.5
100
AcDbArc
 50
49.8463896084640012
 51
310.1536103915360059
  0
LINE
  5
186
100
AcDbEntity
100
AcDbLine
  8
Filament Guide Bottom
 62
256
370
-1
  6
ByLayer
 10
51.5
 20
217.2499745962155657
 30
0.0
 11
53.5
 21
217.2499745962155657
 31
0.0
  0
LINE
  5
187
100
AcDbEntity
100
AcDbLine
  8
Filament Guide Bottom
 62
256
370
-1
  6
ByLayer
 10
51.4999999999999716
 20
173.2499745962155941
 30
0.0
 11
53.5
 21
173.2499745962155941
 31
0.0
  0
ARC
  5
188
100
AcDbEntity
  8
Filament Guide Bottom
 62
256
370
-1
  6
ByLayer
100
AcDbCircle
 10
53.5
 20
195.2499745962155657
 30
0.0
 40
22.0
100
AcDbArc
 50
270.0
 51
90.0
  0
LINE
  5
189
100
AcDbEntity
100
AcDbLine
  8
Filament Guide Bottom Honeycomb
 62
256
370
-1
  6
ByLayer
 10
74.9999999999999716
 20
226.3638095434042441
 30
0.0
 11
74.9999999999999716
 21
211.5824575672766628
 31
0.0
  0
ARC
  5
18A
100
AcDbEntity
  8
Filament Guide Bottom Honeycomb
 62
256
370
-1
  6
ByLayer
100
AcDbCircle
 10
72.1500000000000057
 20
232.1500000000000341
 30
0.0
 40
6.4499999999998918
100
AcDbArc
 50
179.1116577499620348
 51
296.2226465049216131
  0
ARC
  5
18B
100
AcDbEntity
  8
Filament Guide Bottom Honeycomb
 62
256
370
-1
  6
ByLayer
100
AcDbCircle
 10
53.4999999999999716
 20
195.2499745962155657
 30
0.0
 40
27.0
100
AcDbArc
 50
37.2221338960613224
 51
90.0
  0
LINE
  5
18C
100
AcDbEntity
100
AcDbLine
  8
Filament Guide Bottom Honeycomb
 62
256
370
-1
  6
ByLayer
 10
53.5
 20
222.2499745962155941
 30
0.0
 11
51.4999999999999716
 21
222.2499745962155941
 31
0.0
  0
ARC
  5
18D
100
AcDbEntity
  8
Filament Guide Bottom Honeycomb
 62
256
370
-1
  6
ByLayer
100
AcDbCircle
 10
10.0
 20
232.1500000000000341
 30
0.0
 40
6.4500000000000126
100
AcDbArc
 50
219.1773936864242387
 51
0.888342250037548
  0
LINE
  5
18E
100
AcDbEntity
100
AcDbLine
  8
Filament Guide Bottom Honeycomb
 62
256
370
-1
  6
ByLayer
 10
16.4492247596125907
 20
232.25
 30
0.0
 11
24.375
 21
232.25
 31
0.0
  0
LINE
  5
18F
100
AcDbEntity
100
AcDbLine
  8
Filament Guide Bottom Honeycomb
 62
256
370
-1
  6
ByLayer
 10
37.625
 20
232.25
 30
0.0
 11
65.7007752403876424
 21
232.25
 31
0.0
  0
LINE
  5
190
100
AcDbEntity
100
AcDbLine
  8
Filament Guide Bottom Honeycomb
 62
256
370
-1
  6
ByLayer
 10
4.9999999999999858
 20
171.8246165463758928
 30
0.0
 11
5.0
 21
190.2499745962155941
 31
0.0
  0
LINE
  5
191
100
AcDbEntity
100
AcDbLine
  8
Filament Guide Bottom Honeycomb
 62
256
370
-1
  6
ByLayer
 10
24.375
 20
232.25
 30
0.0
 11
24.3750000000000142
 21
208.7354992430360312
 31
0.0
  0
ARC
  5
192
100
AcDbEntity
  8
Filament Guide Bottom Honeycomb
 62
256
370
-1
  6
ByLayer
100
AcDbCircle
 10
24.9999999999999716
 20
195.2499745962155089
 30
0.0
 40
13.5000000000000018
100
AcDbArc
 50
92.6535308674056637
 51
156.1794419776694269
  0
ARC
  5
193
100
AcDbEntity
  8
Filament Guide Bottom Honeycomb
 62
256
370
-1
  6
ByLayer
100
AcDbCircle
 10
51.5
 20
195.2499745962155089
 30
0.0
 40
26.9999999999999964
100
AcDbArc
 50
90.0
 51
120.92321565535525
  0
LINE
  5
194
100
AcDbEntity
100
AcDbLine
  8
Filament Guide Bottom Honeycomb
 62
256
370
-1
  6
ByLayer
 10
37.6250000000000142
 20
218.4121069462389357
 30
0.0
 11
37.625
 21
232.25
 31
0.0
  0
ARC
  5
195
100
AcDbEntity
  8
Filament Guide Bottom Honeycomb
 62
256
370
-1
  6
ByLayer
100
AcDbCircle
 10
24.9999999999999716
 20
195.2499745962155089
 30
0.0
 40
13.5000000000000018
100
AcDbArc
 50
201.7384607915205095
 51
267.3464691325942795
  0
LINE
  5
196
100
AcDbEntity
100
AcDbLine
  8
Filament Guide Bottom Honeycomb
 62
256
370
-1
  6
ByLayer
 10
12.4600637960155183
 20
190.2499745962156794
 30
0.0
 11
5.0
 21
190.2499745962155941
 31
0.0
  0
LINE
  5
197
100
AcDbEntity
100
AcDbLine
  8
Filament Guide Bottom Honeycomb
 62
256
370
-1
  6
ByLayer
 10
5.0
 20
228.0753834536241413
 30
0.0
 11
5.0
 21
200.2499745962163331
 31
0.0
  0
LINE
  5
198
100
AcDbEntity
100
AcDbLine
  8
Filament Guide Bottom Honeycomb
 62
256
370
-1
  6
ByLayer
 10
5.0
 20
200.2499745962163331
 30
0.0
 11
12.4600637960155467
 21
200.2499745962154805
 31
0.0
  0
MTEXT
  5
199
100
AcDbEntity
100
AcDbMText
  8
Filament Guide Bottom Text
 62
256
370
-1
  6
ByLayer
 10
37.0000000000000142
 20
234.7500000000000568
 30
0.0
 40
2.0
 41
100.0
 71
5
 72
2
  1
Filament\~Guide\~Bottom
  7
standard
 50
0.0
 73
0
 44
1.0
  0
LINE
  5
19A
100
AcDbEntity
100
AcDbLine
  8
Filament Guide Bottom
 62
256
370
-1
  6
ByLayer
 10
42.4249999999999972
 20
169.0500000000000114
 30
0.0
 11
45.3249999999999886
 21
169.0500000000000398
 31
0.0
  0
LINE
  5
19B
100
AcDbEntity
100
AcDbLine
  8
Filament Guide Bottom
 62
256
370
-1
  6
ByLayer
 10
45.3249999999999886
 20
169.0500000000000398
 30
0.0
 11
45.3249999999999886
 21
166.7500000000000284
 31
0.0
  0
LINE
  5
19C
100
AcDbEntity
100
AcDbLine
  8
Filament Guide Bottom
 62
256
370
-1
  6
ByLayer
 10
45.3249999999999886
 20
166.7500000000000284
 30
0.0
 11
42.4249999999999829
 21
166.7500000000000568
 31
0.0
  0
LINE
  5
19D
100
AcDbEntity
100
AcDbLine
  8
Filament Guide Bottom
 62
256
370
-1
  6
ByLayer
 10
42.4249999999999829
 20
166.7500000000000568
 30
0.0
 11
42.4249999999999972
 21
169.0500000000000114
 31
0.0
  0
LINE
  5
19E
100
AcDbEntity
100
AcDbLine
  8
Filament Guide Bottom
 62
256
370
-1
  6
ByLayer
 10
20.0749999999999744
 20
169.1000000000000512
 30
0.0
 11
17.1749999999999829
 21
169.1000000000000796
 31
0.0
  0
LINE
  5
19F
100
AcDbEntity
100
AcDbLine
  8
Filament Guide Bottom
 62
256
370
-1
  6
ByLayer
 10
17.1749999999999829
 20
169.1000000000000796
 30
0.0
 11
17.1749999999999972
 21
166.7500000000000284
 31
0.0
  0
LINE
  5
1A0
100
AcDbEntity
100
AcDbLine
  8
Filament Guide Bottom
 62
256
370
-1
  6
ByLayer
 10
17.1749999999999972
 20
166.7500000000000284
 30
0.0
 11
20.0749999999999744
 21
166.7500000000000568
 31
0.0
  0
LINE
  5
1A1
100
AcDbEntity
100
AcDbLine
  8
Filament Guide Bottom
 62
256
370
-1
  6
ByLayer
 10
20.0749999999999744
 20
166.7500000000000568
 30
0.0
 11
20.0749999999999744
 21
169.1000000000000512
 31
0.0
  0
ARC
  5
1A2
100
AcDbEntity
  8
Filament Guide Bottom Honeycomb
 62
256
370
-1
  6
ByLayer
100
AcDbCircle
 10
9.9999999999999858
 20
167.7500000000000568
 30
0.0
 40
6.4500000000000002
100
AcDbArc
 50
31.2906619124737198
 51
140.8226063135757329
  0
LINE
  5
1A3
100
AcDbEntity
100
AcDbLine
  8
Filament Guide Bottom Honeycomb
 62
256
370
-1
  6
ByLayer
 10
24.3749999999999716
 20
171.1000000000000796
 30
0.0
 11
24.3749999999999858
 21
181.7644499493952424
 31
0.0
  0
LINE
  5
1A4
100
AcDbEntity
100
AcDbLine
  8
Filament Guide Bottom
 62
256
370
-1
  6
ByLayer
 10
24.3749999999999716
 20
171.1000000000000796
 30
0.0
 11
15.5118055118082623
 21
171.1000000000000227
 31
0.0
  0
CIRCLE
  5
1A5
100
AcDbEntity
100
AcDbCircle
  8
Filament Guide Top
 62
256
370
-1
  6
ByLayer
 10
89.9999999999999858
 20
167.7500000000000284
 30
0.0
 40
1.45
  0
CIRCLE
  5
1A6
100
AcDbEntity
100
AcDbCircle
  8
Filament Guide Top
 62
256
370
-1
  6
ByLayer
 10
90.0
 20
232.1500000000000341
 30
0.0
 40
1.45
  0
CIRCLE
  5
1A7
100
AcDbEntity
100
AcDbCircle
  8
Filament Guide Top
 62
256
370
-1
  6
ByLayer
 10
152.1500000000000057
 20
232.1500000000000341
 30
0.0
 40
1.45
  0
CIRCLE
  5
1A8
100
AcDbEntity
100
AcDbCircle
  8
Filament Guide Top
 62
256
370
-1
  6
ByLayer
 10
152.1500000000000057
 20
167.75
 30
0.0
 40
1.45
  0
LINE
  5
1A9
100
AcDbEntity
100
AcDbLine
  8
Filament Guide Top
 62
256
370
-1
  6
ByLayer
 10
160.0
 20
232.2500000000000284
 30
0.0
 11
160.0
 21
162.7499999999999716
 31
0.0
  0
ARC
  5
1AA
100
AcDbEntity
  8
Filament Guide Top
 62
256
370
-1
  6
ByLayer
100
AcDbCircle
 10
155.0
 20
232.25
 30
0.0
 40
5.0
100
AcDbArc
 50
0.0
 51
90.0
  0
LINE
  5
1AB
100
AcDbEntity
100
AcDbLine
  8
Filament Guide Top
 62
256
370
-1
  6
ByLayer
 10
160.0
 20
162.7499999999999716
 30
0.0
 11
79.9999999999999716
 21
162.7500000000000568
 31
0.0
  0
LINE
  5
1AC
100
AcDbEntity
100
AcDbLine
  8
Filament Guide Top
 62
256
370
-1
  6
ByLayer
 10
85.0
 20
237.25
 30
0.0
 11
155.0
 21
237.25
 31
0.0
  0
ARC
  5
1AD
100
AcDbEntity
  8
Filament Guide Top
 62
256
370
-1
  6
ByLayer
100
AcDbCircle
 10
85.0
 20
232.25
 30
0.0
 40
5.0
100
AcDbArc
 50
90.0
 51
180.0
  0
LINE
  5
1AE
100
AcDbEntity
100
AcDbLine
  8
Filament Guide Top
 62
256
370
-1
  6
ByLayer
 10
84.9999999999999858
 20
207.049930546746225
 30
0.0
 11
82.3499999999999801
 21
205.519952564928019
 31
0.0
  0
LINE
  5
1AF
100
AcDbEntity
100
AcDbLine
  8
Filament Guide Top
 62
256
370
-1
  6
ByLayer
 10
84.9999999999999858
 20
207.049930546746225
 30
0.0
 11
87.6499999999999915
 21
205.5199525649280474
 31
0.0
  0
LINE
  5
1B0
100
AcDbEntity
100
AcDbLine
  8
Filament Guide Top
 62
256
370
-1
  6
ByLayer
 10
87.6499999999999915
 20
205.5199525649280474
 30
0.0
 11
87.6499999999999915
 21
202.4599966275031591
 31
0.0
  0
LINE
  5
1B1
100
AcDbEntity
100
AcDbLine
  8
Filament Guide Top
 62
256
370
-1
  6
ByLayer
 10
87.6499999999999915
 20
202.4599966275031591
 30
0.0
 11
84.9999999999999858
 21
200.9300186456849815
 31
0.0
  0
LINE
  5
1B2
100
AcDbEntity
100
AcDbLine
  8
Filament Guide Top
 62
256
370
-1
  6
ByLayer
 10
82.3499999999999801
 20
205.519952564928019
 30
0.0
 11
82.3499999999999801
 21
202.4599966275031591
 31
0.0
  0
LINE
  5
1B3
100
AcDbEntity
100
AcDbLine
  8
Filament Guide Top
 62
256
370
-1
  6
ByLayer
 10
82.3499999999999801
 20
202.4599966275031591
 30
0.0
 11
84.9999999999999858
 21
200.9300186456849815
 31
0.0
  0
LINE
  5
1B4
100
AcDbEntity
100
AcDbLine
  8
Filament Guide Top
 62
256
370
-1
  6
ByLayer
 10
84.9999999999999716
 20
189.5699305467462636
 30
0.0
 11
82.3499999999999659
 21
188.0399525649281145
 31
0.0
  0
LINE
  5
1B5
100
AcDbEntity
100
AcDbLine
  8
Filament Guide Top
 62
256
370
-1
  6
ByLayer
 10
84.9999999999999716
 20
189.5699305467462636
 30
0.0
 11
87.6499999999999773
 21
188.0399525649280577
 31
0.0
  0
LINE
  5
1B6
100
AcDbEntity
100
AcDbLine
  8
Filament Guide Top
 62
256
370
-1
  6
ByLayer
 10
87.6499999999999773
 20
188.0399525649280577
 30
0.0
 11
87.6499999999999773
 21
184.9799966275031693
 31
0.0
  0
LINE
  5
1B7
100
AcDbEntity
100
AcDbLine
  8
Filament Guide Top
 62
256
370
-1
  6
ByLayer
 10
87.6499999999999773
 20
184.9799966275031693
 30
0.0
 11
84.9999999999999716
 21
183.4500186456849633
 31
0.0
  0
LINE
  5
1B8
100
AcDbEntity
100
AcDbLine
  8
Filament Guide Top
 62
256
370
-1
  6
ByLayer
 10
82.3499999999999659
 20
188.0399525649281145
 30
0.0
 11
82.3499999999999659
 21
184.9799966275031693
 31
0.0
  0
LINE
  5
1B9
100
AcDbEntity
100
AcDbLine
  8
Filament Guide Top
 62
256
370
-1
  6
ByLayer
 10
82.3499999999999659
 20
184.9799966275031693
 30
0.0
 11
84.9999999999999716
 21
183.4500186456849633
 31
0.0
  0
LINE
  5
1BA
100
AcDbEntity
100
AcDbLine
  8
Filament Guide Top
 62
256
370
-1
  6
ByLayer
 10
122.4249999999999687
 20
169.0500000000000398
 30
0.0
 11
125.3249999999999744
 21
169.0500000000000398
 31
0.0
  0
LINE
  5
1BB
100
AcDbEntity
100
AcDbLine
  8
Filament Guide Top
 62
256
370
-1
  6
ByLayer
 10
125.3249999999999744
 20
169.0500000000000398
 30
0.0
 11
125.3249999999999886
 21
166.7500000000000284
 31
0.0
  0
LINE
  5
1BC
100
AcDbEntity
100
AcDbLine
  8
Filament Guide Top
 62
256
370
-1
  6
ByLayer
 10
125.3249999999999886
 20
166.7500000000000284
 30
0.0
 11
122.4249999999999687
 21
166.7500000000000284
 31
0.0
  0
LINE
  5
1BD
100
AcDbEntity
100
AcDbLine
  8
Filament Guide Top
 62
256
370
-1
  6
ByLayer
 10
122.4249999999999687
 20
166.7500000000000284
 30
0.0
 11
122.4249999999999687
 21
169.0500000000000398
 31
0.0
  0
LINE
  5
1BE
100
AcDbEntity
100
AcDbLine
  8
Filament Guide Top
 62
256
370
-1
  6
ByLayer
 10
97.1749999999999829
 20
169.1000000000000512
 30
0.0
 11
100.0750000000000028
 21
169.1000000000000227
 31
0.0
  0
LINE
  5
1BF
100
AcDbEntity
100
AcDbLine
  8
Filament Guide Top
 62
256
370
-1
  6
ByLayer
 10
100.0750000000000028
 20
169.1000000000000227
 30
0.0
 11
100.0750000000000028
 21
166.7500000000000284
 31
0.0
  0
LINE
  5
1C0
100
AcDbEntity
100
AcDbLine
  8
Filament Guide Top
 62
256
370
-1
  6
ByLayer
 10
100.0750000000000028
 20
166.7500000000000284
 30
0.0
 11
97.1750000000000114
 21
166.7500000000000284
 31
0.0
  0
LINE
  5
1C1
100
AcDbEntity
100
AcDbLine
  8
Filament Guide Top
 62
256
370
-1
  6
ByLayer
 10
97.1750000000000114
 20
166.7500000000000284
 30
0.0
 11
97.1749999999999829
 21
169.1000000000000512
 31
0.0
  0
ARC
  5
1C2
100
AcDbEntity
  8
Filament Guide Top
 62
256
370
-1
  6
ByLayer
100
AcDbCircle
 10
131.5
 20
195.2499745962156226
 30
0.0
 40
22.0
100
AcDbArc
 50
90.0
 51
162.8241830142433741
  0
ARC
  5
1C3
100
AcDbEntity
  8
Filament Guide Top
 62
256
370
-1
  6
ByLayer
100
AcDbCircle
 10
131.5
 20
195.2499745962156226
 30
0.0
 40
22.0
100
AcDbArc
 50
197.1758169857566259
 51
270.0
  0
ARC
  5
1C4
100
AcDbEntity
  8
Filament Guide Top
 62
256
370
-1
  6
ByLayer
100
AcDbCircle
 10
104.9999999999999858
 20
195.2499745962156226
 30
0.0
 40
8.5
100
AcDbArc
 50
49.8463896084640012
 51
310.1536103915360059
  0
LINE
  5
1C5
100
AcDbEntity
100
AcDbLine
  8
Filament Guide Top
 62
256
370
-1
  6
ByLayer
 10
133.5
 20
217.2499745962156226
 30
0.0
 11
131.4999999999999716
 21
217.2499745962156226
 31
0.0
  0
LINE
  5
1C6
100
AcDbEntity
100
AcDbLine
  8
Filament Guide Top
 62
256
370
-1
  6
ByLayer
 10
131.4999999999999716
 20
173.2499745962156226
 30
0.0
 11
133.4999999999999432
 21
173.2499745962155941
 31
0.0
  0
ARC
  5
1C7
100
AcDbEntity
  8
Filament Guide Top
 62
256
370
-1
  6
ByLayer
100
AcDbCircle
 10
133.5
 20
195.2499745962156226
 30
0.0
 40
22.0
100
AcDbArc
 50
270.0
 51
90.0
  0
LINE
  5
1C8
100
AcDbEntity
100
AcDbLine
  8
Filament Guide Top Honeycomb
 62
256
370
-1
  6
ByLayer
 10
105.0750000000000028
 20
167.7500000000000284
 30
0.0
 11
105.0750000000000028
 21
174.1000000000000512
 31
0.0
  0
LINE
  5
1C9
100
AcDbEntity
100
AcDbLine
  8
Filament Guide Top Honeycomb
 62
256
370
-1
  6
ByLayer
 10
155.0
 20
226.3638095434042725
 30
0.0
 11
155.0
 21
211.5824575672766628
 31
0.0
  0
ARC
  5
1CA
100
AcDbEntity
  8
Filament Guide Top Honeycomb
 62
256
370
-1
  6
ByLayer
100
AcDbCircle
 10
152.1500000000000341
 20
232.1500000000000341
 30
0.0
 40
6.4499999999998918
100
AcDbArc
 50
179.1116577499620348
 51
296.2226465049216131
  0
ARC
  5
1CB
100
AcDbEntity
  8
Filament Guide Top Honeycomb
 62
256
370
-1
  6
ByLayer
100
AcDbCircle
 10
133.5
 20
195.2499745962155657
 30
0.0
 40
27.0
100
AcDbArc
 50
37.2221338960613224
 51
90.0
  0
LINE
  5
1CC
100
AcDbEntity
100
AcDbLine
  8
Filament Guide Top Honeycomb
 62
256
370
-1
  6
ByLayer
 10
133.5
 20
222.2499745962155941
 30
0.0
 11
131.5
 21
222.2499745962156226
 31
0.0
  0
LINE
  5
1CD
100
AcDbEntity
100
AcDbLine
  8
Filament Guide Top Honeycomb
 62
256
370
-1
  6
ByLayer
 10
105.0750000000000028
 20
174.1000000000000512
 30
0.0
 11
88.8686291501014978
 21
174.1000000000000512
 31
0.0
  0
ARC
  5
1CE
100
AcDbEntity
  8
Filament Guide Top Honeycomb
 62
256
370
-1
  6
ByLayer
100
AcDbCircle
 10
89.9999999999999858
 20
167.7500000000000568
 30
0.0
 40
6.4500000000000002
100
AcDbArc
 50
100.1023050560360872
 51
140.8226063135759034
  0
LINE
  5
1CF
100
AcDbEntity
100
AcDbLine
  8
Filament Guide Top Honeycomb
 62
256
370
-1
  6
ByLayer
 10
85.0
 20
212.823433020213912
 30
0.0
 11
92.6499999999999915
 21
208.4067041293048135
 31
0.0
  0
LINE
  5
1D0
100
AcDbEntity
100
AcDbLine
  8
Filament Guide Top Honeycomb
 62
256
370
-1
  6
ByLayer
 10
92.6499999999999915
 20
208.4067041293048135
 30
0.0
 11
92.6499999999999915
 21
200.7022676917855506
 31
0.0
  0
LINE
  5
1D1
100
AcDbEntity
100
AcDbLine
  8
Filament Guide Top Honeycomb
 62
256
370
-1
  6
ByLayer
 10
92.6499999999999915
 20
189.7976815006456945
 30
0.0
 11
92.6499999999999773
 21
182.0932450631264032
 31
0.0
  0
LINE
  5
1D2
100
AcDbEntity
100
AcDbLine
  8
Filament Guide Top Honeycomb
 62
256
370
-1
  6
ByLayer
 10
92.6499999999999773
 20
182.0932450631264032
 30
0.0
 11
85.0
 21
177.6765161722173048
 31
0.0
  0
LINE
  5
1D3
100
AcDbEntity
100
AcDbLine
  8
Filament Guide Top Honeycomb
 62
256
370
-1
  6
ByLayer
 10
85.0
 20
177.6765161722173048
 30
0.0
 11
85.0
 21
171.8246165463758928
 31
0.0
  0
ARC
  5
1D4
100
AcDbEntity
  8
Filament Guide Top Honeycomb
 62
256
370
-1
  6
ByLayer
100
AcDbCircle
 10
105.0000000000000142
 20
195.2499745962156226
 30
0.0
 40
13.5000000000000018
100
AcDbArc
 50
79.8674542309601776
 51
156.1794419776694269
  0
LINE
  5
1D5
100
AcDbEntity
100
AcDbLine
  8
Filament Guide Top Honeycomb
 62
256
370
-1
  6
ByLayer
 10
107.375
 20
232.2500000000000568
 30
0.0
 11
107.375
 21
208.5394205967078847
 31
0.0
  0
LINE
  5
1D6
100
AcDbEntity
100
AcDbLine
  8
Filament Guide Top Honeycomb
 62
256
370
-1
  6
ByLayer
 10
107.375
 20
232.2500000000000568
 30
0.0
 11
96.4492247596126049
 21
232.2500000000000284
 31
0.0
  0
LINE
  5
1D7
100
AcDbEntity
100
AcDbLine
  8
Filament Guide Top Honeycomb
 62
256
370
-1
  6
ByLayer
 10
114.625
 20
232.2500000000000284
 30
0.0
 11
145.7007752403875429
 21
232.2500000000000568
 31
0.0
  0
LINE
  5
1D8
100
AcDbEntity
100
AcDbLine
  8
Filament Guide Top Honeycomb
 62
256
370
-1
  6
ByLayer
 10
114.625
 20
232.2500000000000284
 30
0.0
 11
114.625
 21
216.3268428408101727
 31
0.0
  0
ARC
  5
1D9
100
AcDbEntity
  8
Filament Guide Top Honeycomb
 62
256
370
-1
  6
ByLayer
100
AcDbCircle
 10
131.5
 20
195.2499745962155941
 30
0.0
 40
26.9999999999999964
100
AcDbArc
 50
90.0
 51
128.6821874534894619
  0
ARC
  5
1DA
100
AcDbEntity
  8
Filament Guide Top Honeycomb
 62
256
370
-1
  6
ByLayer
100
AcDbCircle
 10
105.0000000000000142
 20
195.2499745962156226
 30
0.0
 40
13.5000000000000018
100
AcDbArc
 50
203.8205580223305731
 51
280.1325457690397798
  0
LINE
  5
1DB
100
AcDbEntity
100
AcDbLine
  8
Filament Guide Top Honeycomb
 62
256
370
-1
  6
ByLayer
 10
107.3749999999999716
 20
181.9605285957233605
 30
0.0
 11
107.3749999999999574
 21
167.7500000000000568
 31
0.0
  0
LINE
  5
1DC
100
AcDbEntity
100
AcDbLine
  8
Filament Guide Top Honeycomb
 62
256
370
-1
  6
ByLayer
 10
105.0750000000000028
 20
167.7500000000000284
 30
0.0
 11
107.3749999999999574
 21
167.7500000000000568
 31
0.0
  0
MTEXT
  5
1DD
100
AcDbEntity
100
AcDbMText
  8
Filament Guide Top Text
 62
256
370
-1
  6
ByLayer
 10
120.9999999999999858
 20
234.7500000000000568
 30
0.0
 40
2.0
 41
100.0
 71
5
 72
2
  1
Filament\~Guide\~Top
  7
standard
 50
0.0
 73
0
 44
1.0
  0
ARC
  5
1DE
100
AcDbEntity
  8
Filament Guide Top Honeycomb
 62
256
370
-1
  6
ByLayer
100
AcDbCircle
 10
90.0
 20
232.1500000000000341
 30
0.0
 40
6.4500000000000126
100
AcDbArc
 50
219.1773936864244376
 51
0.888342250037548
  0
LINE
  5
1DF
100
AcDbEntity
100
AcDbLine
  8
Filament Guide Top Honeycomb
 62
256
370
-1
  6
ByLayer
 10
85.0
 20
212.823433020213912
 30
0.0
 11
85.0000000000000142
 21
228.0753834536241698
 31
0.0
  0
MTEXT
  5
1E0
100
AcDbEntity
100
AcDbMText
  8
Idler Wheel Text
 62
256
370
-1
  6
ByLayer
 10
134.0
 20
180.75
 30
0.0
 40
3.0
 41
100.0
 71
5
 72
2
  1
Wheel
  7
standard
 50
0.0
 73
0
 44
1.0
  0
MTEXT
  5
1E1
100
AcDbEntity
100
AcDbMText
  8
Idler Wheel Text
 62
256
370
-1
  6
ByLayer
 10
134.0
 20
209.75
 30
0.0
 40
3.0
 41
100.0
 71
5
 72
2
  1
Idler
  7
standard
 50
0.0
 73
0
 44
1.0
  0
CIRCLE
  5
1E2
100
AcDbEntity
100
AcDbCircle
  8
Idler Wheel
 62
256
370
-1
  6
ByLayer
 10
133.5
 20
195.2499745962155657
 30
0.0
 40
10.9499999999999993
  0
CIRCLE
  5
1E3
100
AcDbEntity
100
AcDbCircle
  8
Idler Wheel
 62
256
370
-1
  6
ByLayer
 10
133.5
 20
195.2499745962155657
 30
0.0
 40
20.5
  0
LINE
  5
1E4
100
AcDbEntity
100
AcDbLine
  8
Retainer Plate
 62
256
370
-1
  6
ByLayer
 10
240.0
 20
232.2500000000000284
 30
0.0
 11
240.0
 21
162.7499999999999432
 31
0.0
  0
ARC
  5
1E5
100
AcDbEntity
  8
Retainer Plate
 62
256
370
-1
  6
ByLayer
100
AcDbCircle
 10
235.0
 20
232.25
 30
0.0
 40
5.0
100
AcDbArc
 50
0.0
 51
90.0
  0
LINE
  5
1E6
100
AcDbEntity
100
AcDbLine
  8
Retainer Plate
 62
256
370
-1
  6
ByLayer
 10
240.0
 20
162.7499999999999432
 30
0.0
 11
160.0
 21
162.7500000000000284
 31
0.0
  0
LINE
  5
1E7
100
AcDbEntity
100
AcDbLine
  8
Retainer Plate
 62
256
370
-1
  6
ByLayer
 10
165.0
 20
237.25
 30
0.0
 11
235.0
 21
237.2500000000000284
 31
0.0
  0
ARC
  5
1E8
100
AcDbEntity
  8
Retainer Plate
 62
256
370
-1
  6
ByLayer
100
AcDbCircle
 10
165.0
 20
232.25
 30
0.0
 40
5.0
100
AcDbArc
 50
90.0
 51
180.0
  0
ARC
  5
1E9
100
AcDbEntity
  8
Retainer Plate
 62
256
370
-1
  6
ByLayer
100
AcDbCircle
 10
211.5
 20
195.2499745962156226
 30
0.0
 40
4.0
100
AcDbArc
 50
90.0
 51
270.0
  0
CIRCLE
  5
1EA
100
AcDbEntity
100
AcDbCircle
  8
Retainer Plate
 62
256
370
-1
  6
ByLayer
 10
185.0
 20
195.2499745962154805
 30
0.0
 40
3.1000000000000001
  0
CIRCLE
  5
1EB
100
AcDbEntity
100
AcDbCircle
  8
Retainer Plate
 62
256
370
-1
  6
ByLayer
 10
165.0
 20
203.9899745962155748
 30
0.0
 40
1.45
  0
CIRCLE
  5
1EC
100
AcDbEntity
100
AcDbCircle
  8
Retainer Plate
 62
256
370
-1
  6
ByLayer
 10
165.0
 20
186.5099745962155566
 30
0.0
 40
1.45
  0
MTEXT
  5
1ED
100
AcDbEntity
100
AcDbMText
  8
Retainer Plate Text
 62
256
370
-1
  6
ByLayer
 10
176.0
 20
217.1500000000000341
 30
0.0
 40
2.0
 41
100.0
 71
1
 72
2
  1
Retainer\~Plate
  7
standard
 50
0.0
 73
0
 44
1.0
  0
MTEXT
  5
1EE
100
AcDbEntity
100
AcDbMText
  8
Retainer Plate Text
 62
256
370
-1
  6
ByLayer
 10
202.5
 20
227.1500000000000341
 30
0.0
 40
3.0
 41
100.0
 71
5
 72
2
  1
Pinch\~Wheel\~Extruder\~v1.1
  7
standard
 50
0.0
 73
0
 44
1.0
  0
MTEXT
  5
1EF
100
AcDbEntity
100
AcDbMText
  8
Retainer Plate Text
 62
256
370
-1
  6
ByLayer
 10
176.0
 20
224.1500000000000057
 30
0.0
 40
2.0
 41
100.0
 71
1
 72
2
  1
make.rrrf.org/pwe-1.1
  7
standard
 50
0.0
 73
0
 44
1.0
  0
LINE
  5
1F0
100
AcDbEntity
100
AcDbLine
  8
Retainer Plate
 62
256
370
-1
  6
ByLayer
 10
166.9400440494693498
 20
232.1500000000000057
 30
0.0
 11
168.4700220312875558
 21
229.5000000000000284
 31
0.0
  0
LINE
  5
1F1
100
AcDbEntity
100
AcDbLine
  8
Retainer Plate
 62
256
370
-1
  6
ByLayer
 10
166.9400440494693498
 20
232.1500000000000057
 30
0.0
 11
168.4700220312875558
 21
234.8000000000000398
 31
0.0
  0
LINE
  5
1F2
100
AcDbEntity
100
AcDbLine
  8
Retainer Plate
 62
256
370
-1
  6
ByLayer
 10
168.4700220312875558
 20
234.8000000000000398
 30
0.0
 11
171.5299779687124726
 21
234.8000000000000398
 31
0.0
  0
LINE
  5
1F3
100
AcDbEntity
100
AcDbLine
  8
Retainer Plate
 62
256
370
-1
  6
ByLayer
 10
171.5299779687124726
 20
234.8000000000000398
 30
0.0
 11
173.0599559505306502
 21
232.1500000000000341
 31
0.0
  0
LINE
  5
1F4
100
AcDbEntity
100
AcDbLine
  8
Retainer Plate
 62
256
370
-1
  6
ByLayer
 10
168.4700220312875558
 20
229.5000000000000284
 30
0.0
 11
171.5299779687124726
 21
229.5
 31
0.0
  0
LINE
  5
1F5
100
AcDbEntity
100
AcDbLine
  8
Retainer Plate
 62
256
370
-1
  6
ByLayer
 10
171.5299779687124726
 20
229.5
 30
0.0
 11
173.0599559505306502
 21
232.1500000000000341
 31
0.0
  0
LINE
  5
1F6
100
AcDbEntity
100
AcDbLine
  8
Retainer Plate
 62
256
370
-1
  6
ByLayer
 10
229.0900440494693555
 20
232.1500000000000057
 30
0.0
 11
230.6200220312875331
 21
229.5
 31
0.0
  0
LINE
  5
1F7
100
AcDbEntity
100
AcDbLine
  8
Retainer Plate
 62
256
370
-1
  6
ByLayer
 10
229.0900440494693555
 20
232.1500000000000057
 30
0.0
 11
230.6200220312875615
 21
234.8000000000000114
 31
0.0
  0
LINE
  5
1F8
100
AcDbEntity
100
AcDbLine
  8
Retainer Plate
 62
256
370
-1
  6
ByLayer
 10
230.6200220312875615
 20
234.8000000000000114
 30
0.0
 11
233.6799779687124783
 21
234.8000000000000398
 31
0.0
  0
LINE
  5
1F9
100
AcDbEntity
100
AcDbLine
  8
Retainer Plate
 62
256
370
-1
  6
ByLayer
 10
233.6799779687124783
 20
234.8000000000000398
 30
0.0
 11
235.2099559505306559
 21
232.1500000000000057
 31
0.0
  0
LINE
  5
1FA
100
AcDbEntity
100
AcDbLine
  8
Retainer Plate
 62
256
370
-1
  6
ByLayer
 10
230.6200220312875331
 20
229.5
 30
0.0
 11
233.6799779687124783
 21
229.5
 31
0.0
  0
LINE
  5
1FB
100
AcDbEntity
100
AcDbLine
  8
Retainer Plate
 62
256
370
-1
  6
ByLayer
 10
233.6799779687124783
 20
229.5
 30
0.0
 11
235.2099559505306559
 21
232.1500000000000057
 31
0.0
  0
LINE
  5
1FC
100
AcDbEntity
100
AcDbLine
  8
Retainer Plate
 62
256
370
-1
  6
ByLayer
 10
229.0900440494693271
 20
167.7499999999999147
 30
0.0
 11
230.6200220312875331
 21
165.0999999999999943
 31
0.0
  0
LINE
  5
1FD
100
AcDbEntity
100
AcDbLine
  8
Retainer Plate
 62
256
370
-1
  6
ByLayer
 10
229.0900440494693271
 20
167.7499999999999147
 30
0.0
 11
230.6200220312875331
 21
170.3999999999999773
 31
0.0
  0
LINE
  5
1FE
100
AcDbEntity
100
AcDbLine
  8
Retainer Plate
 62
256
370
-1
  6
ByLayer
 10
230.6200220312875331
 20
170.3999999999999773
 30
0.0
 11
233.6799779687124214
 21
170.3999999999999488
 31
0.0
  0
LINE
  5
1FF
100
AcDbEntity
100
AcDbLine
  8
Retainer Plate
 62
256
370
-1
  6
ByLayer
 10
233.6799779687124214
 20
170.3999999999999488
 30
0.0
 11
235.2099559505306274
 21
167.7499999999999432
 31
0.0
  0
LINE
  5
200
100
AcDbEntity
100
AcDbLine
  8
Retainer Plate
 62
256
370
-1
  6
ByLayer
 10
230.6200220312875331
 20
165.0999999999999943
 30
0.0
 11
233.6799779687124214
 21
165.0999999999999659
 31
0.0
  0
LINE
  5
201
100
AcDbEntity
100
AcDbLine
  8
Retainer Plate
 62
256
370
-1
  6
ByLayer
 10
233.6799779687124214
 20
165.0999999999999659
 30
0.0
 11
235.2099559505306274
 21
167.7499999999999432
 31
0.0
  0
LINE
  5
202
100
AcDbEntity
100
AcDbLine
  8
Retainer Plate
 62
256
370
-1
  6
ByLayer
 10
166.9400440494693498
 20
167.7500000000000284
 30
0.0
 11
168.4700220312875274
 21
165.1000000000000227
 31
0.0
  0
LINE
  5
203
100
AcDbEntity
100
AcDbLine
  8
Retainer Plate
 62
256
370
-1
  6
ByLayer
 10
166.9400440494693498
 20
167.7500000000000284
 30
0.0
 11
168.470022031287499
 21
170.3999999999999773
 31
0.0
  0
LINE
  5
204
100
AcDbEntity
100
AcDbLine
  8
Retainer Plate
 62
256
370
-1
  6
ByLayer
 10
168.470022031287499
 20
170.3999999999999773
 30
0.0
 11
171.5299779687124726
 21
170.4000000000000341
 31
0.0
  0
LINE
  5
205
100
AcDbEntity
100
AcDbLine
  8
Retainer Plate
 62
256
370
-1
  6
ByLayer
 10
171.5299779687124726
 20
170.4000000000000341
 30
0.0
 11
173.0599559505305933
 21
167.75
 31
0.0
  0
LINE
  5
206
100
AcDbEntity
100
AcDbLine
  8
Retainer Plate
 62
256
370
-1
  6
ByLayer
 10
168.4700220312875274
 20
165.1000000000000227
 30
0.0
 11
171.5299779687124442
 21
165.1000000000000227
 31
0.0
  0
LINE
  5
207
100
AcDbEntity
100
AcDbLine
  8
Retainer Plate
 62
256
370
-1
  6
ByLayer
 10
171.5299779687124442
 20
165.1000000000000227
 30
0.0
 11
173.0599559505305933
 21
167.75
 31
0.0
  0
LINE
  5
208
100
AcDbEntity
100
AcDbLine
  8
Retainer Plate
 62
256
370
-1
  6
ByLayer
 10
211.5
 20
199.2499745962158499
 30
0.0
 11
213.5
 21
199.2499745962152531
 31
0.0
  0
ARC
  5
209
100
AcDbEntity
  8
Retainer Plate
 62
256
370
-1
  6
ByLayer
100
AcDbCircle
 10
213.5
 20
195.2499745962157078
 30
0.0
 40
4.0
100
AcDbArc
 50
270.0
 51
90.0
  0
LINE
  5
20A
100
AcDbEntity
100
AcDbLine
  8
Retainer Plate
 62
256
370
-1
  6
ByLayer
 10
213.5
 20
191.2499745962154805
 30
0.0
 11
211.5
 21
191.2499745962154805
 31
0.0
  0
CIRCLE
  5
20B
100
AcDbEntity
100
AcDbCircle
  8
Spacer Plate
 62
256
370
-1
  6
ByLayer
 10
250.0
 20
167.75
 30
0.0
 40
1.45
  0
CIRCLE
  5
20C
100
AcDbEntity
100
AcDbCircle
  8
Spacer Plate
 62
256
370
-1
  6
ByLayer
 10
250.0
 20
232.1500000000000341
 30
0.0
 40
1.45
  0
CIRCLE
  5
20D
100
AcDbEntity
100
AcDbCircle
  8
Spacer Plate
 62
256
370
-1
  6
ByLayer
 10
312.1499999999999773
 20
232.1500000000000057
 30
0.0
 40
1.45
  0
CIRCLE
  5
20E
100
AcDbEntity
100
AcDbCircle
  8
Spacer Plate
 62
256
370
-1
  6
ByLayer
 10
312.1499999999999773
 20
167.75
 30
0.0
 40
1.45
  0
LINE
  5
20F
100
AcDbEntity
100
AcDbLine
  8
Spacer Plate
 62
256
370
-1
  6
ByLayer
 10
320.0
 20
162.75
 30
0.0
 11
320.0
 21
232.25
 31
0.0
  0
ARC
  5
210
100
AcDbEntity
  8
Spacer Plate
 62
256
370
-1
  6
ByLayer
100
AcDbCircle
 10
315.0
 20
232.25
 30
0.0
 40
5.0
100
AcDbArc
 50
0.0
 51
90.0
  0
LINE
  5
211
100
AcDbEntity
100
AcDbLine
  8
Spacer Plate
 62
256
370
-1
  6
ByLayer
 10
240.0
 20
162.7500000000000284
 30
0.0
 11
320.0
 21
162.75
 31
0.0
  0
LINE
  5
212
100
AcDbEntity
100
AcDbLine
  8
Spacer Plate
 62
256
370
-1
  6
ByLayer
 10
315.0
 20
237.25
 30
0.0
 11
245.0
 21
237.25
 31
0.0
  0
ARC
  5
213
100
AcDbEntity
  8
Spacer Plate
 62
256
370
-1
  6
ByLayer
100
AcDbCircle
 10
245.0
 20
232.25
 30
0.0
 40
5.0
100
AcDbArc
 50
90.0
 51
180.0
  0
CIRCLE
  5
214
100
AcDbEntity
100
AcDbCircle
  8
Spacer Plate
 62
256
370
-1
  6
ByLayer
 10
257.5
 20
208.4999745962155941
 30
0.0
 40
3.0
  0
CIRCLE
  5
215
100
AcDbEntity
100
AcDbCircle
  8
Spacer Plate
 62
256
370
-1
  6
ByLayer
 10
249.75
 20
195.2499745962155941
 30
0.0
 40
3.0
  0
CIRCLE
  5
216
100
AcDbEntity
100
AcDbCircle
  8
Spacer Plate
 62
256
370
-1
  6
ByLayer
 10
257.5
 20
181.9999745962155941
 30
0.0
 40
3.0
  0
CIRCLE
  5
217
100
AcDbEntity
100
AcDbCircle
  8
Spacer Plate
 62
256
370
-1
  6
ByLayer
 10
280.25
 20
195.2499745962155657
 30
0.0
 40
3.0
  0
CIRCLE
  5
218
100
AcDbEntity
100
AcDbCircle
  8
Spacer Plate
 62
256
370
-1
  6
ByLayer
 10
265.0
 20
195.2499745962155657
 30
0.0
 40
8.3000000000000007
  0
ARC
  5
219
100
AcDbEntity
  8
Spacer Plate
 62
256
370
-1
  6
ByLayer
100
AcDbCircle
 10
291.5
 20
195.2499745962155657
 30
0.0
 40
4.0
100
AcDbArc
 50
90.0
 51
270.0
  0
LINE
  5
21A
100
AcDbEntity
100
AcDbLine
  8
Spacer Plate
 62
256
370
-1
  6
ByLayer
 10
291.5
 20
199.2499745962155657
 30
0.0
 11
293.5
 21
199.2499745962155941
 31
0.0
  0
ARC
  5
21B
100
AcDbEntity
  8
Spacer Plate
 62
256
370
-1
  6
ByLayer
100
AcDbCircle
 10
293.5
 20
195.2499745962155657
 30
0.0
 40
4.0
100
AcDbArc
 50
270.0
 51
90.0
  0
LINE
  5
21C
100
AcDbEntity
100
AcDbLine
  8
Spacer Plate
 62
256
370
-1
  6
ByLayer
 10
293.5
 20
191.2499745962155657
 30
0.0
 11
291.5
 21
191.2499745962155657
 31
0.0
  0
ARC
  5
21D
100
AcDbEntity
  8
Spacer Plate Honeycomb
 62
256
370
-1
  6
ByLayer
100
AcDbCircle
 10
249.75
 20
195.2499745962155941
 30
0.0
 40
8.0000000000000018
100
AcDbArc
 50
76.0629710207463887
 51
126.4235736423311067
  0
LINE
  5
21E
100
AcDbEntity
100
AcDbLine
  8
Spacer Plate Honeycomb
 62
256
370
-1
  6
ByLayer
 10
245.0
 20
228.0753834536241413
 30
0.0
 11
245.0
 21
201.6871711910074794
 31
0.0
  0
ARC
  5
21F
100
AcDbEntity
  8
Spacer Plate Honeycomb
 62
256
370
-1
  6
ByLayer
100
AcDbCircle
 10
265.0
 20
195.2499745962155657
 30
0.0
 40
13.3000000000000007
100
AcDbArc
 50
31.6136183389583323
 51
87.8459598095189875
  0
ARC
  5
220
100
AcDbEntity
  8
Spacer Plate Honeycomb
 62
256
370
-1
  6
ByLayer
100
AcDbCircle
 10
280.25
 20
195.2499745962155657
 30
0.0
 40
7.9999999999999964
100
AcDbArc
 50
106.3647806991003506
 51
119.3708905814577435
  0
ARC
  5
221
100
AcDbEntity
  8
Spacer Plate Honeycomb
 62
256
370
-1
  6
ByLayer
100
AcDbCircle
 10
280.25
 20
195.2499745962155657
 30
0.0
 40
8.0000000000000018
100
AcDbArc
 50
52.5058404321286503
 51
72.3123681123015984
  0
ARC
  5
222
100
AcDbEntity
  8
Spacer Plate Honeycomb
 62
256
370
-1
  6
ByLayer
100
AcDbCircle
 10
291.5
 20
195.2499745962155657
 30
0.0
 40
9.0
100
AcDbArc
 50
90.0
 51
135.149598685224305
  0
LINE
  5
223
100
AcDbEntity
100
AcDbLine
  8
Spacer Plate Honeycomb
 62
256
370
-1
  6
ByLayer
 10
256.4492247596126617
 20
232.25
 30
0.0
 11
277.9959862385326232
 21
232.25
 31
0.0
  0
LINE
  5
224
100
AcDbEntity
100
AcDbLine
  8
Spacer Plate Honeycomb
 62
256
370
-1
  6
ByLayer
 10
277.9959862385326232
 20
232.25
 30
0.0
 11
277.9959862385326232
 21
202.9258733685493894
 31
0.0
  0
LINE
  5
225
100
AcDbEntity
100
AcDbLine
  8
Spacer Plate Honeycomb
 62
256
370
-1
  6
ByLayer
 10
282.6806192660556007
 20
202.8717913077010166
 30
0.0
 11
282.6806192660556007
 21
232.25
 31
0.0
  0
LINE
  5
226
100
AcDbEntity
100
AcDbLine
  8
Spacer Plate Honeycomb
 62
256
370
-1
  6
ByLayer
 10
282.6806192660556007
 20
232.25
 30
0.0
 11
305.7007752403874292
 21
232.25
 31
0.0
  0
LINE
  5
227
100
AcDbEntity
100
AcDbLine
  8
Spacer Plate Honeycomb
 62
256
370
-1
  6
ByLayer
 10
315.0
 20
226.3638095434043009
 30
0.0
 11
315.0
 21
197.5
 31
0.0
  0
LINE
  5
228
100
AcDbEntity
100
AcDbLine
  8
Spacer Plate Honeycomb
 62
256
370
-1
  6
ByLayer
 10
315.0
 20
197.5
 30
0.0
 11
302.2142059696982415
 21
197.5
 31
0.0
  0
LINE
  5
229
100
AcDbEntity
100
AcDbLine
  8
Spacer Plate Honeycomb
 62
256
370
-1
  6
ByLayer
 10
291.5
 20
204.2499745962155657
 30
0.0
 11
293.5
 21
204.2499745962155657
 31
0.0
  0
LINE
  5
22A
100
AcDbEntity
100
AcDbLine
  8
Spacer Plate Honeycomb
 62
256
370
-1
  6
ByLayer
 10
293.5
 20
186.2499745962155657
 30
0.0
 11
291.5
 21
186.2499745962155657
 31
0.0
  0
LINE
  5
22B
100
AcDbEntity
100
AcDbLine
  8
Spacer Plate Honeycomb
 62
256
370
-1
  6
ByLayer
 10
302.1897696517052623
 20
192.9073471396398247
 30
0.0
 11
315.0
 21
192.9073471396398247
 31
0.0
  0
LINE
  5
22C
100
AcDbEntity
100
AcDbLine
  8
Spacer Plate Honeycomb
 62
256
370
-1
  6
ByLayer
 10
315.0
 20
192.9073471396398247
 30
0.0
 11
315.0
 21
173.5361904565957616
 31
0.0
  0
LINE
  5
22D
100
AcDbEntity
100
AcDbLine
  8
Spacer Plate Honeycomb
 62
256
370
-1
  6
ByLayer
 10
305.7000000000000455
 20
167.75
 30
0.0
 11
282.6806192660556007
 21
167.75
 31
0.0
  0
LINE
  5
22E
100
AcDbEntity
100
AcDbLine
  8
Spacer Plate Honeycomb
 62
256
370
-1
  6
ByLayer
 10
282.6806192660556007
 20
167.75
 30
0.0
 11
282.6806192660556007
 21
187.6281578847301148
 31
0.0
  0
LINE
  5
22F
100
AcDbEntity
100
AcDbLine
  8
Spacer Plate Honeycomb
 62
256
370
-1
  6
ByLayer
 10
277.9959862385326232
 20
187.5740758238817705
 30
0.0
 11
277.9959862385326232
 21
167.75
 31
0.0
  0
LINE
  5
230
100
AcDbEntity
100
AcDbLine
  8
Spacer Plate Honeycomb
 62
256
370
-1
  6
ByLayer
 10
277.9959862385326232
 20
167.75
 30
0.0
 11
256.4499999999999886
 21
167.75
 31
0.0
  0
LINE
  5
231
100
AcDbEntity
100
AcDbLine
  8
Spacer Plate Honeycomb
 62
256
370
-1
  6
ByLayer
 10
245.0
 20
188.8127780014237089
 30
0.0
 11
245.0
 21
171.824616546375978
 31
0.0
  0
ARC
  5
232
100
AcDbEntity
  8
Spacer Plate Honeycomb
 62
256
370
-1
  6
ByLayer
100
AcDbCircle
 10
293.5
 20
195.2499745962155657
 30
0.0
 40
9.0000000000000071
100
AcDbArc
 50
14.4776792153860931
 51
90.0
  0
ARC
  5
233
100
AcDbEntity
  8
Spacer Plate Honeycomb
 62
256
370
-1
  6
ByLayer
100
AcDbCircle
 10
293.5
 20
195.2499745962155657
 30
0.0
 40
9.0
100
AcDbArc
 50
270.0
 51
344.9126144914360452
  0
ARC
  5
234
100
AcDbEntity
  8
Spacer Plate Honeycomb
 62
256
370
-1
  6
ByLayer
100
AcDbCircle
 10
312.1499999999999773
 20
232.1500000000000057
 30
0.0
 40
6.4499999999999913
100
AcDbArc
 50
179.1116577499624611
 51
296.2226465049216131
  0
ARC
  5
235
100
AcDbEntity
  8
Spacer Plate Honeycomb
 62
256
370
-1
  6
ByLayer
100
AcDbCircle
 10
312.1499999999999773
 20
167.75
 30
0.0
 40
6.4499999999999966
100
AcDbArc
 50
63.7773534950783656
 51
180.0
  0
ARC
  5
236
100
AcDbEntity
  8
Spacer Plate Honeycomb
 62
256
370
-1
  6
ByLayer
100
AcDbCircle
 10
291.5
 20
195.2499745962155657
 30
0.0
 40
8.9999999999999929
100
AcDbArc
 50
224.8504013147754961
 51
270.0
  0
ARC
  5
237
100
AcDbEntity
  8
Spacer Plate Honeycomb
 62
256
370
-1
  6
ByLayer
100
AcDbCircle
 10
280.25
 20
195.2499745962155657
 30
0.0
 40
7.9999999999999956
100
AcDbArc
 50
287.6876318876983305
 51
307.4941595678711224
  0
ARC
  5
238
100
AcDbEntity
  8
Spacer Plate Honeycomb
 62
256
370
-1
  6
ByLayer
100
AcDbCircle
 10
280.25
 20
195.2499745962155657
 30
0.0
 40
8.0000000000000018
100
AcDbArc
 50
240.6291094185424413
 51
253.6352193008996494
  0
ARC
  5
239
100
AcDbEntity
  8
Spacer Plate Honeycomb
 62
256
370
-1
  6
ByLayer
100
AcDbCircle
 10
265.0
 20
195.2499745962155657
 30
0.0
 40
13.3000000000000025
100
AcDbArc
 50
272.1540401904807709
 51
328.386381661041753
  0
ARC
  5
23A
100
AcDbEntity
  8
Spacer Plate Honeycomb
 62
256
370
-1
  6
ByLayer
100
AcDbCircle
 10
249.75
 20
195.2499745962155941
 30
0.0
 40
8.0000000000000089
100
AcDbArc
 50
233.5764263576688222
 51
283.9370289792530002
  0
ARC
  5
23B
100
AcDbEntity
  8
Spacer Plate Honeycomb
 62
256
370
-1
  6
ByLayer
100
AcDbCircle
 10
250.0
 20
167.75
 30
0.0
 40
6.4499999999999984
100
AcDbArc
 50
89.9591649907429769
 51
140.8226063135749371
  0
ARC
  5
23C
100
AcDbEntity
  8
Spacer Plate Honeycomb
 62
256
370
-1
  6
ByLayer
100
AcDbCircle
 10
250.0
 20
167.75
 30
0.0
 40
6.4500000000000028
100
AcDbArc
 50
0.0
 51
34.5236696115239283
  0
ARC
  5
23D
100
AcDbEntity
  8
Spacer Plate Honeycomb
 62
256
370
-1
  6
ByLayer
100
AcDbCircle
 10
257.5
 20
181.9999745962155941
 30
0.0
 40
7.9999999999999982
100
AcDbArc
 50
136.7101847458470729
 51
220.2171044640912498
  0
ARC
  5
23E
100
AcDbEntity
  8
Spacer Plate Honeycomb
 62
256
370
-1
  6
ByLayer
100
AcDbCircle
 10
257.5
 20
181.9999745962155941
 30
0.0
 40
7.9999999999999991
100
AcDbArc
 50
264.2657301381755701
 51
359.7092079423226778
  0
ARC
  5
23F
100
AcDbEntity
  8
Spacer Plate Honeycomb
 62
256
370
-1
  6
ByLayer
100
AcDbCircle
 10
250.0
 20
232.1500000000000341
 30
0.0
 40
6.4499999999999993
100
AcDbArc
 50
219.1773936864241819
 51
259.8773436619745212
  0
ARC
  5
240
100
AcDbEntity
  8
Spacer Plate Honeycomb
 62
256
370
-1
  6
ByLayer
100
AcDbCircle
 10
250.0
 20
232.1500000000000341
 30
0.0
 40
6.4500000000000082
100
AcDbArc
 50
315.3128390411935129
 51
0.888342250037548
  0
ARC
  5
241
100
AcDbEntity
  8
Spacer Plate Honeycomb
 62
256
370
-1
  6
ByLayer
100
AcDbCircle
 10
257.5
 20
208.4999745962155941
 30
0.0
 40
7.9999999999999964
100
AcDbArc
 50
129.6194041886261914
 51
223.2898152541533534
  0
ARC
  5
242
100
AcDbEntity
  8
Spacer Plate Honeycomb
 62
256
370
-1
  6
ByLayer
100
AcDbCircle
 10
257.5
 20
208.4999745962155941
 30
0.0
 40
8.0000000000000018
100
AcDbArc
 50
0.2907920576760297
 51
85.5707785145419422
  0
LINE
  5
243
100
AcDbEntity
100
AcDbLine
  8
Spacer Plate Honeycomb
 62
256
370
-1
  6
ByLayer
 10
248.8663737213450418
 20
225.8004022599583038
 30
0.0
 11
252.3985207953435008
 21
214.6623531892960841
 31
0.0
  0
LINE
  5
244
100
AcDbEntity
100
AcDbLine
  8
Spacer Plate Honeycomb
 62
256
370
-1
  6
ByLayer
 10
254.5856731350529003
 20
227.614131626859745
 30
0.0
 11
258.1178202090513878
 21
216.4760825561975537
 31
0.0
  0
LINE
  5
245
100
AcDbEntity
100
AcDbLine
  8
Spacer Plate Honeycomb
 62
256
370
-1
  6
ByLayer
 10
251.3911735469926043
 20
176.8344892011111256
 30
0.0
 11
250.0045969491932567
 21
174.1999983618647718
 31
0.0
  0
LINE
  5
246
100
AcDbEntity
100
AcDbLine
  8
Spacer Plate Honeycomb
 62
256
370
-1
  6
ByLayer
 10
256.7006808280529526
 20
174.0400067029789568
 30
0.0
 11
255.3141042302536334
 21
171.4055158637326031
 31
0.0
  0
MTEXT
  5
247
100
AcDbEntity
100
AcDbMText
  8
Spacer Plate Text
 62
256
370
-1
  6
ByLayer
 10
281.0
 20
234.75
 30
0.0
 40
3.0
 41
100.0
 71
5
 72
2
  1
Spacer\~Plate
  7
standard
 50
0.0
 73
0
 44
1.0
  0
CIRCLE
  5
248
100
AcDbEntity
100
AcDbCircle
  8
GH30GM Spacer Plate
 62
256
370
-1
  6
ByLayer
 10
250.0
 20
87.75
 30
0.0
 40
1.45
  0
CIRCLE
  5
249
100
AcDbEntity
100
AcDbCircle
  8
GH30GM Spacer Plate
 62
256
370
-1
  6
ByLayer
 10
250.0
 20
152.1500000000000341
 30
0.0
 40
1.45
  0
CIRCLE
  5
24A
100
AcDbEntity
100
AcDbCircle
  8
GH30GM Spacer Plate
 62
256
370
-1
  6
ByLayer
 10
312.1499999999999773
 20
152.1500000000000057
 30
0.0
 40
1.45
  0
CIRCLE
  5
24B
100
AcDbEntity
100
AcDbCircle
  8
GH30GM Spacer Plate
 62
256
370
-1
  6
ByLayer
 10
312.1499999999999773
 20
87.75
 30
0.0
 40
1.45
  0
LINE
  5
24C
100
AcDbEntity
100
AcDbLine
  8
GH30GM Spacer Plate
 62
256
370
-1
  6
ByLayer
 10
320.0
 20
82.7499999999999716
 30
0.0
 11
320.0
 21
152.25
 31
0.0
  0
ARC
  5
24D
100
AcDbEntity
  8
GH30GM Spacer Plate
 62
256
370
-1
  6
ByLayer
100
AcDbCircle
 10
315.0
 20
152.25
 30
0.0
 40
5.0
100
AcDbArc
 50
0.0
 51
90.0
  0
LINE
  5
24E
100
AcDbEntity
100
AcDbLine
  8
GH30GM Spacer Plate
 62
256
370
-1
  6
ByLayer
 10
240.0
 20
82.7500000000000568
 30
0.0
 11
320.0
 21
82.7499999999999716
 31
0.0
  0
LINE
  5
24F
100
AcDbEntity
100
AcDbLine
  8
GH30GM Spacer Plate
 62
256
370
-1
  6
ByLayer
 10
315.0
 20
157.25
 30
0.0
 11
245.0
 21
157.25
 31
0.0
  0
ARC
  5
250
100
AcDbEntity
  8
GH30GM Spacer Plate
 62
256
370
-1
  6
ByLayer
100
AcDbCircle
 10
245.0
 20
152.25
 30
0.0
 40
5.0
100
AcDbArc
 50
90.0
 51
180.0
  0
CIRCLE
  5
251
100
AcDbEntity
100
AcDbCircle
  8
GH30GM Spacer Plate
 62
256
370
-1
  6
ByLayer
 10
265.0
 20
115.2499745962155799
 30
0.0
 40
8.3000000000000007
  0
ARC
  5
252
100
AcDbEntity
  8
GH30GM Spacer Plate
 62
256
370
-1
  6
ByLayer
100
AcDbCircle
 10
291.5
 20
115.2499745962155657
 30
0.0
 40
4.0
100
AcDbArc
 50
90.0
 51
270.0
  0
LINE
  5
253
100
AcDbEntity
100
AcDbLine
  8
GH30GM Spacer Plate
 62
256
370
-1
  6
ByLayer
 10
291.5
 20
119.2499745962155515
 30
0.0
 11
293.5
 21
119.2499745962155799
 31
0.0
  0
ARC
  5
254
100
AcDbEntity
  8
GH30GM Spacer Plate
 62
256
370
-1
  6
ByLayer
100
AcDbCircle
 10
293.5
 20
115.2499745962155657
 30
0.0
 40
4.0
100
AcDbArc
 50
270.0
 51
90.0
  0
LINE
  5
255
100
AcDbEntity
100
AcDbLine
  8
GH30GM Spacer Plate
 62
256
370
-1
  6
ByLayer
 10
293.5
 20
111.2499745962155657
 30
0.0
 11
291.5
 21
111.2499745962155657
 31
0.0
  0
CIRCLE
  5
256
100
AcDbEntity
100
AcDbCircle
  8
GH30GM Spacer Plate
 62
256
370
-1
  6
ByLayer
 10
272.5000000000000568
 20
122.4999745962155515
 30
0.0
 40
3.0
  0
CIRCLE
  5
257
100
AcDbEntity
100
AcDbCircle
  8
GH30GM Spacer Plate
 62
256
370
-1
  6
ByLayer
 10
280.25
 20
109.2499745962155657
 30
0.0
 40
3.0
  0
CIRCLE
  5
258
100
AcDbEntity
100
AcDbCircle
  8
GH30GM Spacer Plate
 62
256
370
-1
  6
ByLayer
 10
272.4999999999999432
 20
95.9999745962155799
 30
0.0
 40
3.0
  0
CIRCLE
  5
259
100
AcDbEntity
100
AcDbCircle
  8
GH30GM Spacer Plate
 62
256
370
-1
  6
ByLayer
 10
249.75
 20
109.2499745962155941
 30
0.0
 40
3.0
  0
LINE
  5
25A
100
AcDbEntity
100
AcDbLine
  8
GH30GM Spacer Plate Honeycomb
 62
256
370
-1
  6
ByLayer
 10
256.4492247596126617
 20
152.25
 30
0.0
 11
277.9959862385326232
 21
152.25
 31
0.0
  0
LINE
  5
25B
100
AcDbEntity
100
AcDbLine
  8
GH30GM Spacer Plate Honeycomb
 62
256
370
-1
  6
ByLayer
 10
282.6806192660556007
 20
152.25
 30
0.0
 11
305.7007752403874292
 21
152.25
 31
0.0
  0
LINE
  5
25C
100
AcDbEntity
100
AcDbLine
  8
GH30GM Spacer Plate Honeycomb
 62
256
370
-1
  6
ByLayer
 10
315.0
 20
146.3638095434043009
 30
0.0
 11
315.0
 21
117.5
 31
0.0
  0
LINE
  5
25D
100
AcDbEntity
100
AcDbLine
  8
GH30GM Spacer Plate Honeycomb
 62
256
370
-1
  6
ByLayer
 10
315.0
 20
117.5
 30
0.0
 11
302.2142059696982415
 21
117.5
 31
0.0
  0
LINE
  5
25E
100
AcDbEntity
100
AcDbLine
  8
GH30GM Spacer Plate Honeycomb
 62
256
370
-1
  6
ByLayer
 10
291.5
 20
124.2499745962155799
 30
0.0
 11
293.5
 21
124.2499745962155799
 31
0.0
  0
LINE
  5
25F
100
AcDbEntity
100
AcDbLine
  8
GH30GM Spacer Plate Honeycomb
 62
256
370
-1
  6
ByLayer
 10
293.5
 20
106.2499745962155657
 30
0.0
 11
291.5
 21
106.2499745962155657
 31
0.0
  0
LINE
  5
260
100
AcDbEntity
100
AcDbLine
  8
GH30GM Spacer Plate Honeycomb
 62
256
370
-1
  6
ByLayer
 10
302.1897696517052623
 20
112.9073471396398531
 30
0.0
 11
315.0
 21
112.9073471396398389
 31
0.0
  0
LINE
  5
261
100
AcDbEntity
100
AcDbLine
  8
GH30GM Spacer Plate Honeycomb
 62
256
370
-1
  6
ByLayer
 10
315.0
 20
112.9073471396398389
 30
0.0
 11
315.0
 21
93.5361904565957616
 31
0.0
  0
LINE
  5
262
100
AcDbEntity
100
AcDbLine
  8
GH30GM Spacer Plate Honeycomb
 62
256
370
-1
  6
ByLayer
 10
305.7000000000000455
 20
87.7499999999999716
 30
0.0
 11
282.6806192660556007
 21
87.75
 31
0.0
  0
ARC
  5
263
100
AcDbEntity
  8
GH30GM Spacer Plate Honeycomb
 62
256
370
-1
  6
ByLayer
100
AcDbCircle
 10
293.5
 20
115.2499745962155657
 30
0.0
 40
9.0000000000000071
100
AcDbArc
 50
14.4776792153860931
 51
90.0
  0
ARC
  5
264
100
AcDbEntity
  8
GH30GM Spacer Plate Honeycomb
 62
256
370
-1
  6
ByLayer
100
AcDbCircle
 10
293.5
 20
115.2499745962155657
 30
0.0
 40
9.0
100
AcDbArc
 50
270.0
 51
344.9126144914360452
  0
ARC
  5
265
100
AcDbEntity
  8
GH30GM Spacer Plate Honeycomb
 62
256
370
-1
  6
ByLayer
100
AcDbCircle
 10
312.1499999999999773
 20
152.1500000000000057
 30
0.0
 40
6.4499999999999913
100
AcDbArc
 50
179.1116577499624611
 51
296.2226465049216131
  0
ARC
  5
266
100
AcDbEntity
  8
GH30GM Spacer Plate Honeycomb
 62
256
370
-1
  6
ByLayer
100
AcDbCircle
 10
312.1499999999999773
 20
87.75
 30
0.0
 40
6.4499999999999966
100
AcDbArc
 50
63.7773534950783656
 51
180.0
  0
ARC
  5
267
100
AcDbEntity
  8
GH30GM Spacer Plate Honeycomb
 62
256
370
-1
  6
ByLayer
100
AcDbCircle
 10
250.0
 20
87.7500000000000142
 30
0.0
 40
6.4499999999999984
100
AcDbArc
 50
89.9591649907429769
 51
140.8226063135749371
  0
ARC
  5
268
100
AcDbEntity
  8
GH30GM Spacer Plate Honeycomb
 62
256
370
-1
  6
ByLayer
100
AcDbCircle
 10
250.0
 20
87.7500000000000142
 30
0.0
 40
6.4500000000000028
100
AcDbArc
 50
0.0
 51
34.5236696115239283
  0
ARC
  5
269
100
AcDbEntity
  8
GH30GM Spacer Plate Honeycomb
 62
256
370
-1
  6
ByLayer
100
AcDbCircle
 10
250.0
 20
152.1500000000000341
 30
0.0
 40
6.4499999999999993
100
AcDbArc
 50
219.1773936864241819
 51
259.8773436619745212
  0
ARC
  5
26A
100
AcDbEntity
  8
GH30GM Spacer Plate Honeycomb
 62
256
370
-1
  6
ByLayer
100
AcDbCircle
 10
250.0
 20
152.1500000000000341
 30
0.0
 40
6.4500000000000082
100
AcDbArc
 50
315.3128390411935129
 51
0.888342250037548
  0
LINE
  5
26B
100
AcDbEntity
100
AcDbLine
  8
GH30GM Spacer Plate Honeycomb
 62
256
370
-1
  6
ByLayer
 10
248.8663737213450418
 20
145.8004022599583323
 30
0.0
 11
255.5778562055471923
 21
124.6368380935002307
 31
0.0
  0
LINE
  5
26C
100
AcDbEntity
100
AcDbLine
  8
GH30GM Spacer Plate Honeycomb
 62
256
370
-1
  6
ByLayer
 10
254.5856731350529003
 20
147.614131626859745
 30
0.0
 11
260.8427240427510014
 21
127.8835432375488637
 31
0.0
  0
LINE
  5
26D
100
AcDbEntity
100
AcDbLine
  8
GH30GM Spacer Plate Honeycomb
 62
256
370
-1
  6
ByLayer
 10
245.0
 20
148.0753834536241413
 30
0.0
 11
245.0
 21
115.6871711910074936
 31
0.0
  0
LINE
  5
26E
100
AcDbEntity
100
AcDbLine
  8
GH30GM Spacer Plate Honeycomb
 62
256
370
-1
  6
ByLayer
 10
245.0
 20
102.8127780014237231
 30
0.0
 11
245.0
 21
91.8246165463760207
 31
0.0
  0
LINE
  5
26F
100
AcDbEntity
100
AcDbLine
  8
GH30GM Spacer Plate Honeycomb
 62
256
370
-1
  6
ByLayer
 10
254.5619507242509769
 20
102.8589550979367289
 30
0.0
 11
250.0045969491932567
 21
94.199998361864786
 31
0.0
  0
LINE
  5
270
100
AcDbEntity
100
AcDbLine
  8
GH30GM Spacer Plate Honeycomb
 62
256
370
-1
  6
ByLayer
 10
261.16167305157893
 20
102.5158768175339361
 30
0.0
 11
255.3141042302536334
 21
91.4055158637326031
 31
0.0
  0
LINE
  5
271
100
AcDbEntity
100
AcDbLine
  8
GH30GM Spacer Plate Honeycomb
 62
256
370
-1
  6
ByLayer
 10
277.9959862385326232
 20
152.25
 30
0.0
 11
277.9959862385326232
 21
128.3132469333644394
 31
0.0
  0
ARC
  5
272
100
AcDbEntity
  8
GH30GM Spacer Plate Honeycomb
 62
256
370
-1
  6
ByLayer
100
AcDbCircle
 10
291.5
 20
115.2499745962155657
 30
0.0
 40
9.0
100
AcDbArc
 50
90.0
 51
168.5018647282782638
  0
LINE
  5
273
100
AcDbEntity
100
AcDbLine
  8
GH30GM Spacer Plate Honeycomb
 62
256
370
-1
  6
ByLayer
 10
282.6806192660556007
 20
116.8717913077010593
 30
0.0
 11
282.6806192660556007
 21
152.25
 31
0.0
  0
ARC
  5
274
100
AcDbEntity
  8
GH30GM Spacer Plate Honeycomb
 62
256
370
-1
  6
ByLayer
100
AcDbCircle
 10
291.5
 20
115.2499745962155657
 30
0.0
 40
8.9999999999999929
100
AcDbArc
 50
246.5909600204130641
 51
270.0
  0
LINE
  5
275
100
AcDbEntity
100
AcDbLine
  8
GH30GM Spacer Plate Honeycomb
 62
256
370
-1
  6
ByLayer
 10
282.6806192660556007
 20
87.75
 30
0.0
 11
282.6806192660556007
 21
101.6281578847300864
 31
0.0
  0
ARC
  5
276
100
AcDbEntity
  8
GH30GM Spacer Plate Honeycomb
 62
256
370
-1
  6
ByLayer
100
AcDbCircle
 10
272.5000000000000568
 20
122.4999745962155515
 30
0.0
 40
7.9999999999999947
100
AcDbArc
 50
46.6070361139477782
 51
132.629067035227024
  0
ARC
  5
277
100
AcDbEntity
  8
GH30GM Spacer Plate Honeycomb
 62
256
370
-1
  6
ByLayer
100
AcDbCircle
 10
265.0
 20
115.2499745962155799
 30
0.0
 40
13.2999999999999989
100
AcDbArc
 50
80.9937754890326431
 51
108.2146097249791126
  0
ARC
  5
278
100
AcDbEntity
  8
GH30GM Spacer Plate Honeycomb
 62
256
370
-1
  6
ByLayer
100
AcDbCircle
 10
265.0
 20
115.2499745962155799
 30
0.0
 40
13.3000000000000025
100
AcDbArc
 50
135.107470305354866
 51
172.5284655849072237
  0
ARC
  5
279
100
AcDbEntity
  8
GH30GM Spacer Plate Honeycomb
 62
256
370
-1
  6
ByLayer
100
AcDbCircle
 10
265.0
 20
115.2499745962155799
 30
0.0
 40
13.3000000000000007
100
AcDbArc
 50
253.2260800825625608
 51
280.4282784495078431
  0
ARC
  5
27A
100
AcDbEntity
  8
GH30GM Spacer Plate Honeycomb
 62
256
370
-1
  6
ByLayer
100
AcDbCircle
 10
249.75
 20
109.2499745962155941
 30
0.0
 40
8.0000000000000036
100
AcDbArc
 50
75.0565650748849436
 51
126.4235736423310641
  0
ARC
  5
27B
100
AcDbEntity
  8
GH30GM Spacer Plate Honeycomb
 62
256
370
-1
  6
ByLayer
100
AcDbCircle
 10
249.75
 20
109.2499745962155941
 30
0.0
 40
8.0
100
AcDbArc
 50
233.5764263576688222
 51
306.9769611778100966
  0
ARC
  5
27C
100
AcDbEntity
  8
GH30GM Spacer Plate Honeycomb
 62
256
370
-1
  6
ByLayer
100
AcDbCircle
 10
272.4999999999999432
 20
95.9999745962155799
 30
0.0
 40
8.0000000000000036
100
AcDbArc
 50
129.5372619872603366
 51
181.1573747741759064
  0
LINE
  5
27D
100
AcDbEntity
100
AcDbLine
  8
GH30GM Spacer Plate Honeycomb
 62
256
370
-1
  6
ByLayer
 10
264.5016321045808354
 20
95.8383855819583772
 30
0.0
 11
264.5016321045808354
 21
87.75
 31
0.0
  0
LINE
  5
27E
100
AcDbEntity
100
AcDbLine
  8
GH30GM Spacer Plate Honeycomb
 62
256
370
-1
  6
ByLayer
 10
264.5016321045808354
 20
87.75
 30
0.0
 11
256.4500000000000455
 21
87.75
 31
0.0
  0
ARC
  5
27F
100
AcDbEntity
  8
GH30GM Spacer Plate Honeycomb
 62
256
370
-1
  6
ByLayer
100
AcDbCircle
 10
280.25
 20
109.2499745962155657
 30
0.0
 40
8.0
100
AcDbArc
 50
287.6876318876983305
 51
343.5962975266643298
  0
MTEXT
  5
280
100
AcDbEntity
100
AcDbMText
  8
GH30GM Spacer Plate Text
 62
256
370
-1
  6
ByLayer
 10
265.0
 20
155.75
 30
0.0
 40
2.0
 41
100.0
 71
1
 72
0
  1
GH30GM\~Spacer\~Plate
  7
standard
 50
0.0
 73
1
 44
1.0
  0
CIRCLE
  5
281
100
AcDbEntity
100
AcDbCircle
  8
GH30GM Spacer Plate
 62
256
370
-1
  6
ByLayer
 10
250.0
 20
7.7500000000000071
 30
0.0
 40
1.45
  0
CIRCLE
  5
282
100
AcDbEntity
100
AcDbCircle
  8
GH30GM Spacer Plate
 62
256
370
-1
  6
ByLayer
 10
250.0
 20
72.1500000000000199
 30
0.0
 40
1.45
  0
CIRCLE
  5
283
100
AcDbEntity
100
AcDbCircle
  8
GH30GM Spacer Plate
 62
256
370
-1
  6
ByLayer
 10
312.1499999999999773
 20
72.1500000000000057
 30
0.0
 40
1.45
  0
CIRCLE
  5
284
100
AcDbEntity
100
AcDbCircle
  8
GH30GM Spacer Plate
 62
256
370
-1
  6
ByLayer
 10
312.1499999999999773
 20
7.75
 30
0.0
 40
1.45
  0
LINE
  5
285
100
AcDbEntity
100
AcDbLine
  8
GH30GM Spacer Plate
 62
256
370
-1
  6
ByLayer
 10
320.0
 20
2.7499999999999787
 30
0.0
 11
320.0
 21
72.25
 31
0.0
  0
ARC
  5
286
100
AcDbEntity
  8
GH30GM Spacer Plate
 62
256
370
-1
  6
ByLayer
100
AcDbCircle
 10
315.0
 20
72.25
 30
0.0
 40
5.0
100
AcDbArc
 50
0.0
 51
90.0
  0
LINE
  5
287
100
AcDbEntity
100
AcDbLine
  8
GH30GM Spacer Plate
 62
256
370
-1
  6
ByLayer
 10
240.0
 20
2.7500000000000497
 30
0.0
 11
320.0
 21
2.7499999999999787
 31
0.0
  0
LINE
  5
288
100
AcDbEntity
100
AcDbLine
  8
GH30GM Spacer Plate
 62
256
370
-1
  6
ByLayer
 10
240.0
 20
72.25
 30
0.0
 11
240.0
 21
2.7500000000000497
 31
0.0
  0
LINE
  5
289
100
AcDbEntity
100
AcDbLine
  8
GH30GM Spacer Plate
 62
256
370
-1
  6
ByLayer
 10
315.0
 20
77.25
 30
0.0
 11
245.0
 21
77.25
 31
0.0
  0
ARC
  5
28A
100
AcDbEntity
  8
GH30GM Spacer Plate
 62
256
370
-1
  6
ByLayer
100
AcDbCircle
 10
245.0
 20
72.25
 30
0.0
 40
5.0
100
AcDbArc
 50
90.0
 51
180.0
  0
CIRCLE
  5
28B
100
AcDbEntity
100
AcDbCircle
  8
GH30GM Spacer Plate
 62
256
370
-1
  6
ByLayer
 10
265.0
 20
35.249974596215587
 30
0.0
 40
8.3000000000000007
  0
ARC
  5
28C
100
AcDbEntity
  8
GH30GM Spacer Plate
 62
256
370
-1
  6
ByLayer
100
AcDbCircle
 10
291.5
 20
35.2499745962155586
 30
0.0
 40
4.0
100
AcDbArc
 50
90.0
 51
270.0
  0
LINE
  5
28D
100
AcDbEntity
100
AcDbLine
  8
GH30GM Spacer Plate
 62
256
370
-1
  6
ByLayer
 10
291.5
 20
39.2499745962155586
 30
0.0
 11
293.5
 21
39.2499745962155799
 31
0.0
  0
ARC
  5
28E
100
AcDbEntity
  8
GH30GM Spacer Plate
 62
256
370
-1
  6
ByLayer
100
AcDbCircle
 10
293.5
 20
35.2499745962155586
 30
0.0
 40
4.0
100
AcDbArc
 50
270.0
 51
90.0
  0
LINE
  5
28F
100
AcDbEntity
100
AcDbLine
  8
GH30GM Spacer Plate
 62
256
370
-1
  6
ByLayer
 10
293.5
 20
31.2499745962155728
 30
0.0
 11
291.5
 21
31.2499745962155693
 31
0.0
  0
CIRCLE
  5
290
100
AcDbEntity
100
AcDbCircle
  8
GH30GM Spacer Plate
 62
256
370
-1
  6
ByLayer
 10
272.5000000000000568
 20
42.4999745962155586
 30
0.0
 40
3.0
  0
CIRCLE
  5
291
100
AcDbEntity
100
AcDbCircle
  8
GH30GM Spacer Plate
 62
256
370
-1
  6
ByLayer
 10
280.25
 20
29.2499745962155728
 30
0.0
 40
3.0
  0
CIRCLE
  5
292
100
AcDbEntity
100
AcDbCircle
  8
GH30GM Spacer Plate
 62
256
370
-1
  6
ByLayer
 10
272.4999999999999432
 20
15.9999745962155764
 30
0.0
 40
3.0
  0
CIRCLE
  5
293
100
AcDbEntity
100
AcDbCircle
  8
GH30GM Spacer Plate
 62
256
370
-1
  6
ByLayer
 10
249.75
 20
29.2499745962156013
 30
0.0
 40
3.0
  0
LINE
  5
294
100
AcDbEntity
100
AcDbLine
  8
GH30GM Spacer Plate Honeycomb
 62
256
370
-1
  6
ByLayer
 10
256.4492247596126617
 20
72.2500000000000142
 30
0.0
 11
277.9959862385326232
 21
72.25
 31
0.0
  0
LINE
  5
295
100
AcDbEntity
100
AcDbLine
  8
GH30GM Spacer Plate Honeycomb
 62
256
370
-1
  6
ByLayer
 10
282.6806192660556007
 20
72.25
 30
0.0
 11
305.7007752403874292
 21
72.25
 31
0.0
  0
LINE
  5
296
100
AcDbEntity
100
AcDbLine
  8
GH30GM Spacer Plate Honeycomb
 62
256
370
-1
  6
ByLayer
 10
315.0
 20
66.3638095434043009
 30
0.0
 11
315.0
 21
37.4999999999999929
 31
0.0
  0
LINE
  5
297
100
AcDbEntity
100
AcDbLine
  8
GH30GM Spacer Plate Honeycomb
 62
256
370
-1
  6
ByLayer
 10
315.0
 20
37.4999999999999929
 30
0.0
 11
302.2142059696982415
 21
37.5
 31
0.0
  0
LINE
  5
298
100
AcDbEntity
100
AcDbLine
  8
GH30GM Spacer Plate Honeycomb
 62
256
370
-1
  6
ByLayer
 10
291.5
 20
44.2499745962155799
 30
0.0
 11
293.5
 21
44.2499745962155799
 31
0.0
  0
LINE
  5
299
100
AcDbEntity
100
AcDbLine
  8
GH30GM Spacer Plate Honeycomb
 62
256
370
-1
  6
ByLayer
 10
293.5
 20
26.2499745962155657
 30
0.0
 11
291.5
 21
26.2499745962155657
 31
0.0
  0
LINE
  5
29A
100
AcDbEntity
100
AcDbLine
  8
GH30GM Spacer Plate Honeycomb
 62
256
370
-1
  6
ByLayer
 10
302.1897696517052623
 20
32.907347139639846
 30
0.0
 11
315.0
 21
32.9073471396398389
 31
0.0
  0
LINE
  5
29B
100
AcDbEntity
100
AcDbLine
  8
GH30GM Spacer Plate Honeycomb
 62
256
370
-1
  6
ByLayer
 10
315.0
 20
32.9073471396398389
 30
0.0
 11
315.0
 21
13.5361904565957616
 31
0.0
  0
LINE
  5
29C
100
AcDbEntity
100
AcDbLine
  8
GH30GM Spacer Plate Honeycomb
 62
256
370
-1
  6
ByLayer
 10
305.7000000000000455
 20
7.7499999999999787
 30
0.0
 11
282.6806192660556007
 21
7.7500000000000071
 31
0.0
  0
ARC
  5
29D
100
AcDbEntity
  8
GH30GM Spacer Plate Honeycomb
 62
256
370
-1
  6
ByLayer
100
AcDbCircle
 10
293.5
 20
35.2499745962155586
 30
0.0
 40
9.0000000000000071
100
AcDbArc
 50
14.4776792153860931
 51
90.0
  0
ARC
  5
29E
100
AcDbEntity
  8
GH30GM Spacer Plate Honeycomb
 62
256
370
-1
  6
ByLayer
100
AcDbCircle
 10
293.5
 20
35.2499745962155586
 30
0.0
 40
9.0
100
AcDbArc
 50
270.0
 51
344.9126144914360452
  0
ARC
  5
29F
100
AcDbEntity
  8
GH30GM Spacer Plate Honeycomb
 62
256
370
-1
  6
ByLayer
100
AcDbCircle
 10
312.1499999999999773
 20
72.1500000000000057
 30
0.0
 40
6.4499999999999913
100
AcDbArc
 50
179.1116577499624611
 51
296.2226465049216131
  0
ARC
  5
2A0
100
AcDbEntity
  8
GH30GM Spacer Plate Honeycomb
 62
256
370
-1
  6
ByLayer
100
AcDbCircle
 10
312.1499999999999773
 20
7.75
 30
0.0
 40
6.4499999999999966
100
AcDbArc
 50
63.7773534950783656
 51
180.0
  0
ARC
  5
2A1
100
AcDbEntity
  8
GH30GM Spacer Plate Honeycomb
 62
256
370
-1
  6
ByLayer
100
AcDbCircle
 10
250.0
 20
7.7500000000000142
 30
0.0
 40
6.4499999999999984
100
AcDbArc
 50
89.9591649907429769
 51
140.8226063135749371
  0
ARC
  5
2A2
100
AcDbEntity
  8
GH30GM Spacer Plate Honeycomb
 62
256
370
-1
  6
ByLayer
100
AcDbCircle
 10
250.0
 20
7.7500000000000142
 30
0.0
 40
6.4500000000000028
100
AcDbArc
 50
0.0
 51
34.5236696115239283
  0
ARC
  5
2A3
100
AcDbEntity
  8
GH30GM Spacer Plate Honeycomb
 62
256
370
-1
  6
ByLayer
100
AcDbCircle
 10
250.0
 20
72.1500000000000199
 30
0.0
 40
6.4499999999999993
100
AcDbArc
 50
219.1773936864241819
 51
259.8773436619745212
  0
ARC
  5
2A4
100
AcDbEntity
  8
GH30GM Spacer Plate Honeycomb
 62
256
370
-1
  6
ByLayer
100
AcDbCircle
 10
250.0
 20
72.1500000000000199
 30
0.0
 40
6.4500000000000082
100
AcDbArc
 50
315.3128390411935129
 51
0.888342250037548
  0
LINE
  5
2A5
100
AcDbEntity
100
AcDbLine
  8
GH30GM Spacer Plate Honeycomb
 62
256
370
-1
  6
ByLayer
 10
248.8663737213450418
 20
65.800402259958318
 30
0.0
 11
255.5778562055471923
 21
44.6368380935002378
 31
0.0
  0
LINE
  5
2A6
100
AcDbEntity
100
AcDbLine
  8
GH30GM Spacer Plate Honeycomb
 62
256
370
-1
  6
ByLayer
 10
254.5856731350529003
 20
67.614131626859745
 30
0.0
 11
260.8427240427510014
 21
47.8835432375488637
 31
0.0
  0
LINE
  5
2A7
100
AcDbEntity
100
AcDbLine
  8
GH30GM Spacer Plate Honeycomb
 62
256
370
-1
  6
ByLayer
 10
245.0
 20
68.0753834536241413
 30
0.0
 11
245.0
 21
35.6871711910074936
 31
0.0
  0
LINE
  5
2A8
100
AcDbEntity
100
AcDbLine
  8
GH30GM Spacer Plate Honeycomb
 62
256
370
-1
  6
ByLayer
 10
245.0
 20
22.8127780014237267
 30
0.0
 11
245.0
 21
11.8246165463760171
 31
0.0
  0
LINE
  5
2A9
100
AcDbEntity
100
AcDbLine
  8
GH30GM Spacer Plate Honeycomb
 62
256
370
-1
  6
ByLayer
 10
254.5619507242509769
 20
22.8589550979367253
 30
0.0
 11
250.0045969491932567
 21
14.199998361864786
 31
0.0
  0
LINE
  5
2AA
100
AcDbEntity
100
AcDbLine
  8
GH30GM Spacer Plate Honeycomb
 62
256
370
-1
  6
ByLayer
 10
261.16167305157893
 20
22.5158768175339326
 30
0.0
 11
255.3141042302536334
 21
11.4055158637325995
 31
0.0
  0
LINE
  5
2AB
100
AcDbEntity
100
AcDbLine
  8
GH30GM Spacer Plate Honeycomb
 62
256
370
-1
  6
ByLayer
 10
277.9959862385326232
 20
72.25
 30
0.0
 11
277.9959862385326232
 21
48.3132469333644465
 31
0.0
  0
ARC
  5
2AC
100
AcDbEntity
  8
GH30GM Spacer Plate Honeycomb
 62
256
370
-1
  6
ByLayer
100
AcDbCircle
 10
291.5
 20
35.2499745962155586
 30
0.0
 40
9.0
100
AcDbArc
 50
90.0
 51
168.5018647282782638
  0
LINE
  5
2AD
100
AcDbEntity
100
AcDbLine
  8
GH30GM Spacer Plate Honeycomb
 62
256
370
-1
  6
ByLayer
 10
282.6806192660556007
 20
36.8717913077010522
 30
0.0
 11
282.6806192660556007
 21
72.25
 31
0.0
  0
ARC
  5
2AE
100
AcDbEntity
  8
GH30GM Spacer Plate Honeycomb
 62
256
370
-1
  6
ByLayer
100
AcDbCircle
 10
291.5
 20
35.2499745962155586
 30
0.0
 40
8.9999999999999929
100
AcDbArc
 50
246.5909600204130641
 51
270.0
  0
LINE
  5
2AF
100
AcDbEntity
100
AcDbLine
  8
GH30GM Spacer Plate Honeycomb
 62
256
370
-1
  6
ByLayer
 10
282.6806192660556007
 20
7.7500000000000071
 30
0.0
 11
282.6806192660556007
 21
21.6281578847300935
 31
0.0
  0
ARC
  5
2B0
100
AcDbEntity
  8
GH30GM Spacer Plate Honeycomb
 62
256
370
-1
  6
ByLayer
100
AcDbCircle
 10
272.5000000000000568
 20
42.4999745962155586
 30
0.0
 40
7.9999999999999947
100
AcDbArc
 50
46.6070361139477782
 51
132.629067035227024
  0
ARC
  5
2B1
100
AcDbEntity
  8
GH30GM Spacer Plate Honeycomb
 62
256
370
-1
  6
ByLayer
100
AcDbCircle
 10
265.0
 20
35.249974596215587
 30
0.0
 40
13.2999999999999989
100
AcDbArc
 50
80.9937754890326431
 51
108.2146097249791126
  0
ARC
  5
2B2
100
AcDbEntity
  8
GH30GM Spacer Plate Honeycomb
 62
256
370
-1
  6
ByLayer
100
AcDbCircle
 10
265.0
 20
35.249974596215587
 30
0.0
 40
13.3000000000000025
100
AcDbArc
 50
135.107470305354866
 51
172.5284655849072237
  0
ARC
  5
2B3
100
AcDbEntity
  8
GH30GM Spacer Plate Honeycomb
 62
256
370
-1
  6
ByLayer
100
AcDbCircle
 10
265.0
 20
35.249974596215587
 30
0.0
 40
13.3000000000000007
100
AcDbArc
 50
253.2260800825625608
 51
280.4282784495078431
  0
ARC
  5
2B4
100
AcDbEntity
  8
GH30GM Spacer Plate Honeycomb
 62
256
370
-1
  6
ByLayer
100
AcDbCircle
 10
249.75
 20
29.2499745962156013
 30
0.0
 40
8.0000000000000036
100
AcDbArc
 50
75.0565650748849436
 51
126.4235736423310641
  0
ARC
  5
2B5
100
AcDbEntity
  8
GH30GM Spacer Plate Honeycomb
 62
256
370
-1
  6
ByLayer
100
AcDbCircle
 10
249.75
 20
29.2499745962156013
 30
0.0
 40
8.0
100
AcDbArc
 50
233.5764263576688222
 51
306.9769611778100966
  0
ARC
  5
2B6
100
AcDbEntity
  8
GH30GM Spacer Plate Honeycomb
 62
256
370
-1
  6
ByLayer
100
AcDbCircle
 10
272.4999999999999432
 20
15.9999745962155764
 30
0.0
 40
8.0000000000000036
100
AcDbArc
 50
129.5372619872603366
 51
181.1573747741759064
  0
LINE
  5
2B7
100
AcDbEntity
100
AcDbLine
  8
GH30GM Spacer Plate Honeycomb
 62
256
370
-1
  6
ByLayer
 10
264.5016321045808354
 20
15.8383855819583808
 30
0.0
 11
264.5016321045808354
 21
7.75
 31
0.0
  0
LINE
  5
2B8
100
AcDbEntity
100
AcDbLine
  8
GH30GM Spacer Plate Honeycomb
 62
256
370
-1
  6
ByLayer
 10
264.5016321045808354
 20
7.75
 30
0.0
 11
256.4500000000000455
 21
7.75
 31
0.0
  0
ARC
  5
2B9
100
AcDbEntity
  8
GH30GM Spacer Plate Honeycomb
 62
256
370
-1
  6
ByLayer
100
AcDbCircle
 10
280.25
 20
29.2499745962155728
 30
0.0
 40
8.0
100
AcDbArc
 50
287.6876318876983305
 51
343.5962975266643298
  0
MTEXT
  5
2BA
100
AcDbEntity
100
AcDbMText
  8
GH30GM Spacer Plate Text
 62
256
370
-1
  6
ByLayer
 10
265.0
 20
75.75
 30
0.0
 40
2.0
 41
100.0
 71
1
 72
0
  1
GH30GM\~Spacer\~Plate
  7
standard
 50
0.0
 73
1
 44
1.0
  0
ENDSEC
  0
SECTION
  2
OBJECTS
  0
DICTIONARY
  5
C
100
AcDbDictionary
280
0
281
1
  3
ACAD_GROUP
350
D
  3
ACAD_LAYOUT
350
1A
  3
ACAD_MLINESTYLE
350
17
  3
ACAD_PLOTSETTINGS
350
19
  3
ACAD_PLOTSTYLENAME
350
E
  3
AcDbVariableDictionary
350
2BB
  0
DICTIONARY
  5
D
100
AcDbDictionary
280
0
281
1
  0
ACDBDICTIONARYWDFLT
  5
E
100
AcDbDictionary
281
1
  3
Normal
350
F
100
AcDbDictionaryWithDefault
340
F
  0
ACDBPLACEHOLDER
  5
F
  0
DICTIONARY
  5
17
100
AcDbDictionary
280
0
281
1
  3
Standard
350
18
  0
MLINESTYLE
  5
18
100
AcDbMlineStyle
  2
STANDARD
 70
0
  3

 62
256
 51
90.0
 52
90.0
 71
2
 49
0.5
 62
256
  6
BYLAYER
 49
-0.5
 62
256
  6
BYLAYER
  0
DICTIONARY
  5
19
100
AcDbDictionary
280
0
281
1
  0
DICTIONARY
  5
1A
100
AcDbDictionary
281
1
  3
Layout1
350
1E
  3
Layout2
350
26
  3
Model
350
22
  0
LAYOUT
  5
1E
100
AcDbPlotSettings
  1

  2
C:\Program Files\AutoCAD 2002\plotters\DWF ePlot (optimized for plotting).pc3
  4

  6

 40
0.0
 41
0.0
 42
0.0
 43
0.0
 44
0.0
 45
0.0
 46
0.0
 47
0.0
 48
0.0
 49
0.0
140
0.0
141
0.0
142
1.0
143
1.0
 70
688
 72
0
 73
0
 74
5
  7

 75
16
147
1.0
148
0.0
149
0.0
100
AcDbLayout
  1
Layout1
 70
1
 71
1
 10
0.0
 20
0.0
 11
420.0
 21
297.0
 12
0.0
 22
0.0
 32
0.0
 14
100000000000000000000.0
 24
100000000000000000000.0
 34
100000000000000000000.0
 15
-100000000000000000000.0
 25
-100000000000000000000.0
 35
-100000000000000000000.0
146
0.0
 13
0.0
 23
0.0
 33
0.0
 16
1.0
 26
0.0
 36
0.0
 17
0.0
 27
1.0
 37
0.0
 76
0
330
1B
  0
LAYOUT
  5
22
100
AcDbPlotSettings
  1

  2
C:\Program Files\AutoCAD 2002\plotters\DWF ePlot (optimized for plotting).pc3
  4

  6

 40
0.0
 41
0.0
 42
0.0
 43
0.0
 44
0.0
 45
0.0
 46
0.0
 47
0.0
 48
0.0
 49
0.0
140
0.0
141
0.0
142
1.0
143
1.0
 70
1712
 72
0
 73
0
 74
0
  7

 75
0
147
1.0
148
0.0
149
0.0
100
AcDbLayout
  1
Model
 70
1
 71
0
 10
0.0
 20
0.0
 11
12.0
 21
9.0
 12
0.0
 22
0.0
 32
0.0
 14
0.0
 24
0.0
 34
0.0
 15
0.0
 25
0.0
 35
0.0
146
0.0
 13
0.0
 23
0.0
 33
0.0
 16
1.0
 26
0.0
 36
0.0
 17
0.0
 27
1.0
 37
0.0
 76
0
330
1F
  0
LAYOUT
  5
26
100
AcDbPlotSettings
  1

  2
C:\Program Files\AutoCAD 2002\plotters\DWF ePlot (optimized for plotting).pc3
  4

  6

 40
0.0
 41
0.0
 42
0.0
 43
0.0
 44
0.0
 45
0.0
 46
0.0
 47
0.0
 48
0.0
 49
0.0
140
0.0
141
0.0
142
1.0
143
1.0
 70
688
 72
0
 73
0
 74
5
  7

 75
16
147
1.0
148
0.0
149
0.0
100
AcDbLayout
  1
Layout2
 70
1
 71
2
 10
0.0
 20
0.0
 11
12.0
 21
9.0
 12
0.0
 22
0.0
 32
0.0
 14
0.0
 24
0.0
 34
0.0
 15
0.0
 25
0.0
 35
0.0
146
0.0
 13
0.0
 23
0.0
 33
0.0
 16
1.0
 26
0.0
 36
0.0
 17
0.0
 27
1.0
 37
0.0
 76
0
330
23
  0
DICTIONARY
  5
2BB
100
AcDbDictionary
281
1
  3
DIMASSOC
350
2BD
  3
HIDETEXT
350
2BC
  0
DICTIONARYVAR
  5
2BC
100
DictionaryVariables
280
0
  1
2
  0
DICTIONARYVAR
  5
2BD
100
DictionaryVariables
280
0
  1
1
  0
ENDSEC
  0
EOF
