999
dxflib 2.2.0.0
  0
SECTION
  2
HEADER
  9
$ACADVER
  1
AC1015
  9
$HANDSEED
  5
FFFF
  9
$DIMASZ
 40
2.5
  9
$PLIMMIN
 10
0.0
 20
0.0
  9
$DIMEXE
 40
1.25
  9
$DIMGAP
 40
0.625
  9
$PLIMMAX
 10
210.0
 20
297.0
  9
$INSUNITS
 70
4
  9
$DIMSTYLE
  2
Standard
  9
$CLAYER
  8
Extruder Mount Plate
  9
$DIMEXO
 40
0.625
  9
$DIMTXT
 40
2.5
  9
$CLAYER
  8
Extruder Mount Plate
  0
ENDSEC
  0
SECTION
  2
TABLES
  0
TABLE
  2
VPORT
  5
8
100
AcDbSymbolTable
 70
1
  0
VPORT
  5
30
100
AcDbSymbolTableRecord
100
AcDbViewportTableRecord
  2
*Active
 70
0
 10
0.0
 20
0.0
 11
1.0
 21
1.0
 12
286.3055555555554861
 22
148.5
 13
0.0
 23
0.0
 14
10.0
 24
10.0
 15
10.0
 25
10.0
 16
0.0
 26
0.0
 36
1.0
 17
0.0
 27
0.0
 37
0.0
 40
297.0
 41
1.92798353909465
 42
50.0
 43
0.0
 44
0.0
 50
0.0
 51
0.0
 71
0
 72
100
 73
1
 74
3
 75
1
 76
1
 77
0
 78
0
281
0
 65
1
110
0.0
120
0.0
130
0.0
111
1.0
121
0.0
131
0.0
112
0.0
122
1.0
132
0.0
 79
0
146
0.0
  0
ENDTAB
  0
TABLE
  2
LTYPE
  5
5
100
AcDbSymbolTable
 70
21
  0
LTYPE
  5
14
100
AcDbSymbolTableRecord
100
AcDbLinetypeTableRecord
  2
ByBlock
 70
0
  3

 72
65
 73
0
 40
0.0
  0
LTYPE
  5
15
100
AcDbSymbolTableRecord
100
AcDbLinetypeTableRecord
  2
ByLayer
 70
0
  3

 72
65
 73
0
 40
0.0
  0
LTYPE
  5
16
100
AcDbSymbolTableRecord
100
AcDbLinetypeTableRecord
  2
CONTINUOUS
 70
0
  3
Solid line
 72
65
 73
0
 40
0.0
  0
LTYPE
  5
31
100
AcDbSymbolTableRecord
100
AcDbLinetypeTableRecord
  2
DOT
 70
0
  3
Dot . . . . . . . . . . . . . . . . . . . . . .
 72
65
 73
2
 40
6.3499999999999996
 49
0.0
 74
0
 49
-6.3499999999999996
 74
0
  0
LTYPE
  5
32
100
AcDbSymbolTableRecord
100
AcDbLinetypeTableRecord
  2
DOT2
 70
0
  3
Dot (.5x) .....................................
 72
65
 73
2
 40
3.1749999999999998
 49
0.0
 74
0
 49
-3.1749999999999998
 74
0
  0
LTYPE
  5
33
100
AcDbSymbolTableRecord
100
AcDbLinetypeTableRecord
  2
DOTX2
 70
0
  3
Dot (2x) .  .  .  .  .  .  .  .  .  .  .  .  .
 72
65
 73
2
 40
12.6999999999999993
 49
0.0
 74
0
 49
-12.6999999999999993
 74
0
  0
LTYPE
  5
34
100
AcDbSymbolTableRecord
100
AcDbLinetypeTableRecord
  2
DASHED
 70
0
  3
Dashed __ __ __ __ __ __ __ __ __ __ __ __ __ _
 72
65
 73
2
 40
19.0500000000000007
 49
12.6999999999999993
 74
0
 49
-6.3499999999999996
 74
0
  0
LTYPE
  5
35
100
AcDbSymbolTableRecord
100
AcDbLinetypeTableRecord
  2
DASHED2
 70
0
  3
Dashed (.5x) _ _ _ _ _ _ _ _ _ _ _ _ _ _ _ _ _
 72
65
 73
2
 40
9.5250000000000004
 49
6.3499999999999996
 74
0
 49
-3.1749999999999998
 74
0
  0
LTYPE
  5
36
100
AcDbSymbolTableRecord
100
AcDbLinetypeTableRecord
  2
DASHEDX2
 70
0
  3
Dashed (2x) ____  ____  ____  ____  ____  ___
 72
65
 73
2
 40
38.1000000000000014
 49
25.3999999999999986
 74
0
 49
-12.6999999999999993
 74
0
  0
LTYPE
  5
37
100
AcDbSymbolTableRecord
100
AcDbLinetypeTableRecord
  2
DASHDOT
 70
0
  3
Dash dot __ . __ . __ . __ . __ . __ . __ . __
 72
65
 73
4
 40
25.3999999999999986
 49
12.6999999999999993
 74
0
 49
-6.3499999999999996
 74
0
 49
0.0
 74
0
 49
-6.3499999999999996
 74
0
  0
LTYPE
  5
38
100
AcDbSymbolTableRecord
100
AcDbLinetypeTableRecord
  2
DASHDOT2
 70
0
  3
Dash dot (.5x) _._._._._._._._._._._._._._._.
 72
65
 73
4
 40
12.6999999999999993
 49
6.3499999999999996
 74
0
 49
-3.1749999999999998
 74
0
 49
0.0
 74
0
 49
-3.1749999999999998
 74
0
  0
LTYPE
  5
39
100
AcDbSymbolTableRecord
100
AcDbLinetypeTableRecord
  2
DASHDOTX2
 70
0
  3
Dash dot (2x) ____  .  ____  .  ____  .  ___
 72
65
 73
4
 40
50.7999999999999972
 49
25.3999999999999986
 74
0
 49
-12.6999999999999993
 74
0
 49
0.0
 74
0
 49
-12.6999999999999993
 74
0
  0
LTYPE
  5
3A
100
AcDbSymbolTableRecord
100
AcDbLinetypeTableRecord
  2
DIVIDE
 70
0
  3
Divide ____ . . ____ . . ____ . . ____ . . ____
 72
65
 73
6
 40
31.75
 49
12.6999999999999993
 74
0
 49
-6.3499999999999996
 74
0
 49
0.0
 74
0
 49
-6.3499999999999996
 74
0
 49
0.0
 74
0
 49
-6.3499999999999996
 74
0
  0
LTYPE
  5
3B
100
AcDbSymbolTableRecord
100
AcDbLinetypeTableRecord
  2
DIVIDE2
 70
0
  3
Divide (.5x) __..__..__..__..__..__..__..__.._
 72
65
 73
6
 40
15.875
 49
6.3499999999999996
 74
0
 49
-3.1749999999999998
 74
0
 49
0.0
 74
0
 49
-3.1749999999999998
 74
0
 49
0.0
 74
0
 49
-3.1749999999999998
 74
0
  0
LTYPE
  5
3C
100
AcDbSymbolTableRecord
100
AcDbLinetypeTableRecord
  2
DIVIDEX2
 70
0
  3
Divide (2x) ________  .  .  ________  .  .  _
 72
65
 73
6
 40
63.5
 49
25.3999999999999986
 74
0
 49
-12.6999999999999993
 74
0
 49
0.0
 74
0
 49
-12.6999999999999993
 74
0
 49
0.0
 74
0
 49
-12.6999999999999993
 74
0
  0
LTYPE
  5
3D
100
AcDbSymbolTableRecord
100
AcDbLinetypeTableRecord
  2
CENTER
 70
0
  3
Center ____ _ ____ _ ____ _ ____ _ ____ _ ____
 72
65
 73
4
 40
50.7999999999999972
 49
31.75
 74
0
 49
-6.3499999999999996
 74
0
 49
6.3499999999999996
 74
0
 49
-6.3499999999999996
 74
0
  0
LTYPE
  5
3E
100
AcDbSymbolTableRecord
100
AcDbLinetypeTableRecord
  2
CENTER2
 70
0
  3
Center (.5x) ___ _ ___ _ ___ _ ___ _ ___ _ ___
 72
65
 73
4
 40
28.5749999999999993
 49
19.0500000000000007
 74
0
 49
-3.1749999999999998
 74
0
 49
3.1749999999999998
 74
0
 49
-3.1749999999999998
 74
0
  0
LTYPE
  5
3F
100
AcDbSymbolTableRecord
100
AcDbLinetypeTableRecord
  2
CENTERX2
 70
0
  3
Center (2x) ________  __  ________  __  _____
 72
65
 73
4
 40
101.5999999999999943
 49
63.5
 74
0
 49
-12.6999999999999993
 74
0
 49
12.6999999999999993
 74
0
 49
-12.6999999999999993
 74
0
  0
LTYPE
  5
40
100
AcDbSymbolTableRecord
100
AcDbLinetypeTableRecord
  2
BORDER
 70
0
  3
Border __ __ . __ __ . __ __ . __ __ . __ __ .
 72
65
 73
6
 40
44.4500000000000028
 49
12.6999999999999993
 74
0
 49
-6.3499999999999996
 74
0
 49
12.6999999999999993
 74
0
 49
-6.3499999999999996
 74
0
 49
0.0
 74
0
 49
-6.3499999999999996
 74
0
  0
LTYPE
  5
41
100
AcDbSymbolTableRecord
100
AcDbLinetypeTableRecord
  2
BORDER2
 70
0
  3
Border (.5x) __.__.__.__.__.__.__.__.__.__.__.
 72
65
 73
6
 40
22.2250000000000014
 49
6.3499999999999996
 74
0
 49
-3.1749999999999998
 74
0
 49
6.3499999999999996
 74
0
 49
-3.1749999999999998
 74
0
 49
0.0
 74
0
 49
-3.1749999999999998
 74
0
  0
LTYPE
  5
42
100
AcDbSymbolTableRecord
100
AcDbLinetypeTableRecord
  2
BORDERX2
 70
0
  3
Border (2x) ____  ____  .  ____  ____  .  ___
 72
65
 73
6
 40
88.9000000000000057
 49
25.3999999999999986
 74
0
 49
-12.6999999999999993
 74
0
 49
25.3999999999999986
 74
0
 49
-12.6999999999999993
 74
0
 49
0.0
 74
0
 49
-12.6999999999999993
 74
0
  0
ENDTAB
  0
TABLE
  2
LAYER
  5
2
100
AcDbSymbolTable
 70
9
  0
LAYER
  5
10
100
AcDbSymbolTableRecord
100
AcDbLayerTableRecord
  2
0
 70
0
 62
7
420
0
  6
CONTINUOUS
370
25
390
F
  0
LAYER
  5
43
100
AcDbSymbolTableRecord
100
AcDbLayerTableRecord
  2
Motor Plate
 70
0
 62
7
420
0
  6
CONTINUOUS
370
0
390
F
  0
LAYER
  5
44
100
AcDbSymbolTableRecord
100
AcDbLayerTableRecord
  2
Motor Plate Text
 70
0
 62
4
420
65535
  6
CONTINUOUS
370
0
390
F
  0
LAYER
  5
45
100
AcDbSymbolTableRecord
100
AcDbLayerTableRecord
  2
Retainer Plate
 70
0
 62
7
420
0
  6
CONTINUOUS
370
0
390
F
  0
LAYER
  5
46
100
AcDbSymbolTableRecord
100
AcDbLayerTableRecord
  2
Retainer Plate Text
 70
0
 62
4
420
65535
  6
CONTINUOUS
370
0
390
F
  0
LAYER
  5
47
100
AcDbSymbolTableRecord
100
AcDbLayerTableRecord
  2
Extruder Mount Plate
 70
0
 62
7
420
16777215
  6
CONTINUOUS
370
0
390
F
  0
LAYER
  5
48
100
AcDbSymbolTableRecord
100
AcDbLayerTableRecord
  2
Extruder Mount Plate Text
 70
0
 62
4
420
65535
  6
CONTINUOUS
370
0
390
F
  0
LAYER
  5
49
100
AcDbSymbolTableRecord
100
AcDbLayerTableRecord
  2
Insulator Retainer
 70
0
 62
7
420
16777215
  6
CONTINUOUS
370
0
390
F
  0
LAYER
  5
4A
100
AcDbSymbolTableRecord
100
AcDbLayerTableRecord
  2
Insulator Retainer Text
 70
0
 62
4
420
65535
  6
CONTINUOUS
370
0
390
F
  0
ENDTAB
  0
TABLE
  2
STYLE
  5
3
100
AcDbSymbolTable
 70
1
  0
STYLE
  5
11
100
AcDbSymbolTableRecord
100
AcDbTextStyleTableRecord
  2
Standard
 70
0
 40
0.0
 41
0.75
 50
0.0
 71
0
 42
2.5
  3
txt
  4

  0
ENDTAB
  0
TABLE
  2
VIEW
  5
6
100
AcDbSymbolTable
 70
0
  0
ENDTAB
  0
TABLE
  2
UCS
  5
7
100
AcDbSymbolTable
 70
0
  0
ENDTAB
  0
TABLE
  2
APPID
  5
9
100
AcDbSymbolTable
 70
1
  0
APPID
  5
12
100
AcDbSymbolTableRecord
100
AcDbRegAppTableRecord
  2
ACAD
 70
0
  0
ENDTAB
  0
TABLE
  2
DIMSTYLE
  5
A
100
AcDbSymbolTable
 70
1
100
AcDbDimStyleTable
 71
0
  0
DIMSTYLE
105
27
100
AcDbSymbolTableRecord
100
AcDbDimStyleTableRecord
  2
Standard
 41
2.5
 42
0.625
 43
3.75
 44
1.25
 70
0
 73
0
 74
0
 77
1
 78
8
140
2.5
141
2.5
143
0.03937007874016
147
0.625
171
3
172
1
271
2
272
2
274
3
278
44
283
0
284
8
340
11
  0
ENDTAB
  0
TABLE
  2
BLOCK_RECORD
  5
1
100
AcDbSymbolTable
 70
1
  0
BLOCK_RECORD
  5
1F
100
AcDbSymbolTableRecord
100
AcDbBlockTableRecord
  2
*Model_Space
340
22
  0
BLOCK_RECORD
  5
1B
100
AcDbSymbolTableRecord
100
AcDbBlockTableRecord
  2
*Paper_Space
340
1E
  0
BLOCK_RECORD
  5
23
100
AcDbSymbolTableRecord
100
AcDbBlockTableRecord
  2
*Paper_Space0
340
26
  0
ENDTAB
  0
ENDSEC
  0
SECTION
  2
BLOCKS
  0
BLOCK
  5
20
100
AcDbEntity
  8
0
100
AcDbBlockBegin
  2
*Model_Space
 70
0
 10
0.0
 20
0.0
 30
0.0
  3
*Model_Space
  1

  0
ENDBLK
  5
21
100
AcDbEntity
  8
0
100
AcDbBlockEnd
  0
BLOCK
  5
1C
100
AcDbEntity
 67
1
  8
0
100
AcDbBlockBegin
  2
*Paper_Space
 70
0
 10
0.0
 20
0.0
 30
0.0
  3
*Paper_Space
  1

  0
ENDBLK
  5
1D
100
AcDbEntity
 67
1
  8
0
100
AcDbBlockEnd
  0
BLOCK
  5
24
100
AcDbEntity
  8
0
100
AcDbBlockBegin
  2
*Paper_Space0
 70
0
 10
0.0
 20
0.0
 30
0.0
  3
*Paper_Space0
  1

  0
ENDBLK
  5
25
100
AcDbEntity
  8
0
100
AcDbBlockEnd
  0
ENDSEC
  0
SECTION
  2
ENTITIES
  0
CIRCLE
  5
4B
100
AcDbEntity
100
AcDbCircle
  8
Motor Plate
 62
256
370
-1
  6
ByLayer
 10
9.9999999999999929
 20
17.7500000000000071
 30
0.0
 40
1.45
  0
CIRCLE
  5
4C
100
AcDbEntity
100
AcDbCircle
  8
Motor Plate
 62
256
370
-1
  6
ByLayer
 10
10.0000000000000036
 20
82.1500000000000199
 30
0.0
 40
1.45
  0
LINE
  5
4D
100
AcDbEntity
100
AcDbLine
  8
Motor Plate
 62
256
370
-1
  6
ByLayer
 10
80.0
 20
82.25
 30
0.0
 11
79.9999999999999858
 21
12.7499999999999858
 31
0.0
  0
ARC
  5
4E
100
AcDbEntity
  8
Motor Plate
 62
256
370
-1
  6
ByLayer
100
AcDbCircle
 10
75.0
 20
82.25
 30
0.0
 40
5.0
100
AcDbArc
 50
0.0
 51
90.0
  0
CIRCLE
  5
4F
100
AcDbEntity
100
AcDbCircle
  8
Motor Plate
 62
256
370
-1
  6
ByLayer
 10
72.1500000000000057
 20
82.1500000000000057
 30
0.0
 40
1.45
  0
CIRCLE
  5
50
100
AcDbEntity
100
AcDbCircle
  8
Motor Plate
 62
256
370
-1
  6
ByLayer
 10
72.1500000000000057
 20
17.75
 30
0.0
 40
1.45
  0
LINE
  5
51
100
AcDbEntity
100
AcDbLine
  8
Motor Plate
 62
256
370
-1
  6
ByLayer
 10
-0.0000000000000142
 20
12.7500000000000213
 30
0.0
 11
79.9999999999999858
 21
12.7499999999999858
 31
0.0
  0
LINE
  5
52
100
AcDbEntity
100
AcDbLine
  8
Motor Plate
 62
256
370
-1
  6
ByLayer
 10
0.0000000000000071
 20
82.25
 30
0.0
 11
-0.0000000000000142
 21
12.7500000000000213
 31
0.0
  0
LINE
  5
53
100
AcDbEntity
100
AcDbLine
  8
Motor Plate
 62
256
370
-1
  6
ByLayer
 10
5.0
 20
87.25
 30
0.0
 11
75.0
 21
87.25
 31
0.0
  0
ARC
  5
54
100
AcDbEntity
  8
Motor Plate
 62
256
370
-1
  6
ByLayer
100
AcDbCircle
 10
5.0
 20
82.25
 30
0.0
 40
5.0
100
AcDbArc
 50
90.0
 51
180.0
  0
CIRCLE
  5
55
100
AcDbEntity
100
AcDbCircle
  8
Motor Plate
 62
256
370
-1
  6
ByLayer
 10
9.7499999999999964
 20
45.2499745962155799
 30
0.0
 40
1.3999999999999999
  0
CIRCLE
  5
56
100
AcDbEntity
100
AcDbCircle
  8
Motor Plate
 62
256
370
-1
  6
ByLayer
 10
40.25
 20
45.2499745962155799
 30
0.0
 40
1.3999999999999999
  0
CIRCLE
  5
57
100
AcDbEntity
100
AcDbCircle
  8
Motor Plate
 62
256
370
-1
  6
ByLayer
 10
17.5000000000000284
 20
58.4999745962155799
 30
0.0
 40
1.3999999999999999
  0
CIRCLE
  5
58
100
AcDbEntity
100
AcDbCircle
  8
Motor Plate
 62
256
370
-1
  6
ByLayer
 10
17.4999999999999858
 20
31.9999745962155835
 30
0.0
 40
1.3999999999999999
  0
ARC
  5
59
100
AcDbEntity
  8
Motor Plate
 62
256
370
-1
  6
ByLayer
100
AcDbCircle
 10
51.5
 20
45.2499745962155586
 30
0.0
 40
4.0
100
AcDbArc
 50
90.0
 51
270.0
  0
MTEXT
  5
5A
100
AcDbEntity
100
AcDbMText
  8
Motor Plate Text
 62
256
370
-1
  6
ByLayer
 10
42.5
 20
77.1500000000000057
 30
0.0
 40
3.0
 41
100.0
 71
5
 72
2
  1
Motor\~Plate
  7
standard
 50
0.0
 73
0
 44
1.0
  0
CIRCLE
  5
5B
100
AcDbEntity
100
AcDbCircle
  8
Motor Plate
 62
256
370
-1
  6
ByLayer
 10
25.0
 20
45.2499745962155728
 30
0.0
 40
8.3000000000000007
  0
CIRCLE
  5
5C
100
AcDbEntity
100
AcDbCircle
  8
Motor Plate
 62
256
370
-1
  6
ByLayer
 10
65.0
 20
72.75
 30
0.0
 40
2.3999999999999999
  0
LINE
  5
5D
100
AcDbEntity
100
AcDbLine
  8
Motor Plate
 62
256
370
-1
  6
ByLayer
 10
51.5
 20
49.2499745962155586
 30
0.0
 11
53.5
 21
49.2499745962155586
 31
0.0
  0
ARC
  5
5E
100
AcDbEntity
  8
Motor Plate
 62
256
370
-1
  6
ByLayer
100
AcDbCircle
 10
53.5
 20
45.2499745962155444
 30
0.0
 40
4.0
100
AcDbArc
 50
270.0
 51
90.0
  0
LINE
  5
5F
100
AcDbEntity
100
AcDbLine
  8
Motor Plate
 62
256
370
-1
  6
ByLayer
 10
53.5
 20
41.2499745962155657
 30
0.0
 11
51.5
 21
41.2499745962155657
 31
0.0
  0
CIRCLE
  5
60
100
AcDbEntity
100
AcDbCircle
  8
Motor Plate
 62
256
370
-1
  6
ByLayer
 10
21.0
 20
72.75
 30
0.0
 40
2.3999999999999999
  0
CIRCLE
  5
61
100
AcDbEntity
100
AcDbCircle
  8
Motor Plate
 62
256
370
-1
  6
ByLayer
 10
90.0
 20
17.7500000000000142
 30
0.0
 40
1.45
  0
CIRCLE
  5
62
100
AcDbEntity
100
AcDbCircle
  8
Motor Plate
 62
256
370
-1
  6
ByLayer
 10
90.0000000000000142
 20
82.1500000000000341
 30
0.0
 40
1.45
  0
LINE
  5
63
100
AcDbEntity
100
AcDbLine
  8
Motor Plate
 62
256
370
-1
  6
ByLayer
 10
160.0
 20
82.2500000000000142
 30
0.0
 11
160.0
 21
12.7499999999999858
 31
0.0
  0
ARC
  5
64
100
AcDbEntity
  8
Motor Plate
 62
256
370
-1
  6
ByLayer
100
AcDbCircle
 10
155.0
 20
82.25
 30
0.0
 40
5.0
100
AcDbArc
 50
0.0
 51
90.0
  0
CIRCLE
  5
65
100
AcDbEntity
100
AcDbCircle
  8
Motor Plate
 62
256
370
-1
  6
ByLayer
 10
152.1500000000000057
 20
82.1500000000000199
 30
0.0
 40
1.45
  0
CIRCLE
  5
66
100
AcDbEntity
100
AcDbCircle
  8
Motor Plate
 62
256
370
-1
  6
ByLayer
 10
152.1500000000000057
 20
17.75
 30
0.0
 40
1.45
  0
LINE
  5
67
100
AcDbEntity
100
AcDbLine
  8
Motor Plate
 62
256
370
-1
  6
ByLayer
 10
79.9999999999999716
 20
12.7500000000000426
 30
0.0
 11
160.0
 21
12.7499999999999858
 31
0.0
  0
LINE
  5
68
100
AcDbEntity
100
AcDbLine
  8
Motor Plate
 62
256
370
-1
  6
ByLayer
 10
80.0000000000000142
 20
82.25
 30
0.0
 11
79.9999999999999716
 21
12.7500000000000426
 31
0.0
  0
LINE
  5
69
100
AcDbEntity
100
AcDbLine
  8
Motor Plate
 62
256
370
-1
  6
ByLayer
 10
85.0000000000000142
 20
87.25
 30
0.0
 11
155.0
 21
87.2500000000000142
 31
0.0
  0
ARC
  5
6A
100
AcDbEntity
  8
Motor Plate
 62
256
370
-1
  6
ByLayer
100
AcDbCircle
 10
85.0
 20
82.25
 30
0.0
 40
5.0
100
AcDbArc
 50
90.0
 51
180.0
  0
ARC
  5
6B
100
AcDbEntity
  8
Motor Plate
 62
256
370
-1
  6
ByLayer
100
AcDbCircle
 10
131.5
 20
45.2499745962155657
 30
0.0
 40
4.0
100
AcDbArc
 50
90.0
 51
270.0
  0
MTEXT
  5
6C
100
AcDbEntity
100
AcDbMText
  8
Motor Plate Text
 62
256
370
-1
  6
ByLayer
 10
122.5000000000000142
 20
77.1500000000000057
 30
0.0
 40
3.0
 41
100.0
 71
5
 72
2
  1
Motor\~Plate
  7
standard
 50
0.0
 73
0
 44
1.0
  0
CIRCLE
  5
6D
100
AcDbEntity
100
AcDbCircle
  8
Motor Plate
 62
256
370
-1
  6
ByLayer
 10
105.0
 20
45.249974596215587
 30
0.0
 40
8.3000000000000007
  0
CIRCLE
  5
6E
100
AcDbEntity
100
AcDbCircle
  8
Motor Plate
 62
256
370
-1
  6
ByLayer
 10
145.0
 20
72.7500000000000142
 30
0.0
 40
2.3999999999999999
  0
LINE
  5
6F
100
AcDbEntity
100
AcDbLine
  8
Motor Plate
 62
256
370
-1
  6
ByLayer
 10
131.5
 20
49.2499745962155586
 30
0.0
 11
133.5
 21
49.2499745962155586
 31
0.0
  0
ARC
  5
70
100
AcDbEntity
  8
Motor Plate
 62
256
370
-1
  6
ByLayer
100
AcDbCircle
 10
133.5
 20
45.2499745962155444
 30
0.0
 40
4.0
100
AcDbArc
 50
270.0
 51
90.0
  0
LINE
  5
71
100
AcDbEntity
100
AcDbLine
  8
Motor Plate
 62
256
370
-1
  6
ByLayer
 10
133.5
 20
41.2499745962155657
 30
0.0
 11
131.5
 21
41.2499745962155657
 31
0.0
  0
CIRCLE
  5
72
100
AcDbEntity
100
AcDbCircle
  8
Motor Plate
 62
256
370
-1
  6
ByLayer
 10
101.0000000000000142
 20
72.75
 30
0.0
 40
2.3999999999999999
  0
CIRCLE
  5
73
100
AcDbEntity
100
AcDbCircle
  8
Motor Plate
 62
256
370
-1
  6
ByLayer
 10
170.0
 20
17.7500000000000142
 30
0.0
 40
1.45
  0
CIRCLE
  5
74
100
AcDbEntity
100
AcDbCircle
  8
Motor Plate
 62
256
370
-1
  6
ByLayer
 10
170.0000000000000284
 20
82.1500000000000341
 30
0.0
 40
1.45
  0
LINE
  5
75
100
AcDbEntity
100
AcDbLine
  8
Motor Plate
 62
256
370
-1
  6
ByLayer
 10
240.0
 20
82.2500000000000142
 30
0.0
 11
240.0
 21
12.7499999999999858
 31
0.0
  0
ARC
  5
76
100
AcDbEntity
  8
Motor Plate
 62
256
370
-1
  6
ByLayer
100
AcDbCircle
 10
235.0
 20
82.25
 30
0.0
 40
5.0
100
AcDbArc
 50
0.0
 51
90.0
  0
CIRCLE
  5
77
100
AcDbEntity
100
AcDbCircle
  8
Motor Plate
 62
256
370
-1
  6
ByLayer
 10
232.1500000000000057
 20
82.1500000000000199
 30
0.0
 40
1.45
  0
CIRCLE
  5
78
100
AcDbEntity
100
AcDbCircle
  8
Motor Plate
 62
256
370
-1
  6
ByLayer
 10
232.1500000000000057
 20
17.75
 30
0.0
 40
1.45
  0
LINE
  5
79
100
AcDbEntity
100
AcDbLine
  8
Motor Plate
 62
256
370
-1
  6
ByLayer
 10
159.9999999999999716
 20
12.7500000000000426
 30
0.0
 11
240.0
 21
12.7499999999999858
 31
0.0
  0
LINE
  5
7A
100
AcDbEntity
100
AcDbLine
  8
Motor Plate
 62
256
370
-1
  6
ByLayer
 10
160.0
 20
82.25
 30
0.0
 11
159.9999999999999716
 21
12.7500000000000426
 31
0.0
  0
LINE
  5
7B
100
AcDbEntity
100
AcDbLine
  8
Motor Plate
 62
256
370
-1
  6
ByLayer
 10
165.0
 20
87.25
 30
0.0
 11
235.0
 21
87.2500000000000142
 31
0.0
  0
ARC
  5
7C
100
AcDbEntity
  8
Motor Plate
 62
256
370
-1
  6
ByLayer
100
AcDbCircle
 10
165.0
 20
82.25
 30
0.0
 40
5.0
100
AcDbArc
 50
90.0
 51
180.0
  0
ARC
  5
7D
100
AcDbEntity
  8
Motor Plate
 62
256
370
-1
  6
ByLayer
100
AcDbCircle
 10
211.5
 20
45.2499745962155657
 30
0.0
 40
4.0
100
AcDbArc
 50
90.0
 51
270.0
  0
MTEXT
  5
7E
100
AcDbEntity
100
AcDbMText
  8
Motor Plate Text
 62
256
370
-1
  6
ByLayer
 10
202.5
 20
77.1500000000000057
 30
0.0
 40
3.0
 41
100.0
 71
5
 72
2
  1
Motor\~Plate
  7
standard
 50
0.0
 73
0
 44
1.0
  0
CIRCLE
  5
7F
100
AcDbEntity
100
AcDbCircle
  8
Motor Plate
 62
256
370
-1
  6
ByLayer
 10
185.0
 20
45.249974596215587
 30
0.0
 40
8.3000000000000007
  0
CIRCLE
  5
80
100
AcDbEntity
100
AcDbCircle
  8
Motor Plate
 62
256
370
-1
  6
ByLayer
 10
225.0
 20
72.7500000000000142
 30
0.0
 40
2.3999999999999999
  0
LINE
  5
81
100
AcDbEntity
100
AcDbLine
  8
Motor Plate
 62
256
370
-1
  6
ByLayer
 10
211.5
 20
49.2499745962155586
 30
0.0
 11
213.5
 21
49.2499745962155586
 31
0.0
  0
ARC
  5
82
100
AcDbEntity
  8
Motor Plate
 62
256
370
-1
  6
ByLayer
100
AcDbCircle
 10
213.5
 20
45.2499745962155444
 30
0.0
 40
4.0
100
AcDbArc
 50
270.0
 51
90.0
  0
LINE
  5
83
100
AcDbEntity
100
AcDbLine
  8
Motor Plate
 62
256
370
-1
  6
ByLayer
 10
213.5
 20
41.2499745962155657
 30
0.0
 11
211.5
 21
41.2499745962155657
 31
0.0
  0
CIRCLE
  5
84
100
AcDbEntity
100
AcDbCircle
  8
Motor Plate
 62
256
370
-1
  6
ByLayer
 10
181.0
 20
72.75
 30
0.0
 40
2.3999999999999999
  0
CIRCLE
  5
85
100
AcDbEntity
100
AcDbCircle
  8
Motor Plate
 62
256
370
-1
  6
ByLayer
 10
250.0
 20
17.7500000000000142
 30
0.0
 40
1.45
  0
CIRCLE
  5
86
100
AcDbEntity
100
AcDbCircle
  8
Motor Plate
 62
256
370
-1
  6
ByLayer
 10
250.0000000000000284
 20
82.1500000000000341
 30
0.0
 40
1.45
  0
LINE
  5
87
100
AcDbEntity
100
AcDbLine
  8
Motor Plate
 62
256
370
-1
  6
ByLayer
 10
320.0
 20
82.2500000000000142
 30
0.0
 11
320.0
 21
12.7499999999999858
 31
0.0
  0
ARC
  5
88
100
AcDbEntity
  8
Motor Plate
 62
256
370
-1
  6
ByLayer
100
AcDbCircle
 10
315.0
 20
82.25
 30
0.0
 40
5.0
100
AcDbArc
 50
0.0
 51
90.0
  0
CIRCLE
  5
89
100
AcDbEntity
100
AcDbCircle
  8
Motor Plate
 62
256
370
-1
  6
ByLayer
 10
312.1500000000000341
 20
82.1500000000000199
 30
0.0
 40
1.45
  0
CIRCLE
  5
8A
100
AcDbEntity
100
AcDbCircle
  8
Motor Plate
 62
256
370
-1
  6
ByLayer
 10
312.1499999999999773
 20
17.75
 30
0.0
 40
1.45
  0
LINE
  5
8B
100
AcDbEntity
100
AcDbLine
  8
Motor Plate
 62
256
370
-1
  6
ByLayer
 10
239.9999999999999716
 20
12.7500000000000426
 30
0.0
 11
320.0
 21
12.7499999999999858
 31
0.0
  0
LINE
  5
8C
100
AcDbEntity
100
AcDbLine
  8
Motor Plate
 62
256
370
-1
  6
ByLayer
 10
240.0
 20
82.25
 30
0.0
 11
239.9999999999999716
 21
12.7500000000000426
 31
0.0
  0
LINE
  5
8D
100
AcDbEntity
100
AcDbLine
  8
Motor Plate
 62
256
370
-1
  6
ByLayer
 10
245.0
 20
87.25
 30
0.0
 11
315.0
 21
87.2500000000000142
 31
0.0
  0
ARC
  5
8E
100
AcDbEntity
  8
Motor Plate
 62
256
370
-1
  6
ByLayer
100
AcDbCircle
 10
245.0
 20
82.25
 30
0.0
 40
5.0
100
AcDbArc
 50
90.0
 51
180.0
  0
ARC
  5
8F
100
AcDbEntity
  8
Motor Plate
 62
256
370
-1
  6
ByLayer
100
AcDbCircle
 10
291.5
 20
45.2499745962155657
 30
0.0
 40
4.0
100
AcDbArc
 50
90.0
 51
270.0
  0
MTEXT
  5
90
100
AcDbEntity
100
AcDbMText
  8
Motor Plate Text
 62
256
370
-1
  6
ByLayer
 10
282.5
 20
77.1500000000000057
 30
0.0
 40
3.0
 41
100.0
 71
5
 72
2
  1
Motor\~Plate
  7
standard
 50
0.0
 73
0
 44
1.0
  0
CIRCLE
  5
91
100
AcDbEntity
100
AcDbCircle
  8
Motor Plate
 62
256
370
-1
  6
ByLayer
 10
265.0
 20
45.249974596215587
 30
0.0
 40
8.3000000000000007
  0
CIRCLE
  5
92
100
AcDbEntity
100
AcDbCircle
  8
Motor Plate
 62
256
370
-1
  6
ByLayer
 10
305.0
 20
72.7500000000000142
 30
0.0
 40
2.3999999999999999
  0
LINE
  5
93
100
AcDbEntity
100
AcDbLine
  8
Motor Plate
 62
256
370
-1
  6
ByLayer
 10
291.5
 20
49.2499745962155586
 30
0.0
 11
293.5
 21
49.2499745962155586
 31
0.0
  0
ARC
  5
94
100
AcDbEntity
  8
Motor Plate
 62
256
370
-1
  6
ByLayer
100
AcDbCircle
 10
293.5
 20
45.2499745962155444
 30
0.0
 40
4.0
100
AcDbArc
 50
270.0
 51
90.0
  0
LINE
  5
95
100
AcDbEntity
100
AcDbLine
  8
Motor Plate
 62
256
370
-1
  6
ByLayer
 10
293.5
 20
41.2499745962155657
 30
0.0
 11
291.5
 21
41.2499745962155657
 31
0.0
  0
CIRCLE
  5
96
100
AcDbEntity
100
AcDbCircle
  8
Motor Plate
 62
256
370
-1
  6
ByLayer
 10
261.0
 20
72.75
 30
0.0
 40
2.3999999999999999
  0
ARC
  5
97
100
AcDbEntity
  8
Extruder Mount Plate
 62
256
370
-1
  6
ByLayer
100
AcDbCircle
 10
297.7499999999998295
 20
120.0
 30
0.0
 40
25.3999999999999986
100
AcDbArc
 50
227.2618831379347739
 51
140.5360035912185026
  0
ARC
  5
98
100
AcDbEntity
  8
Extruder Mount Plate
 62
256
370
-1
  6
ByLayer
100
AcDbCircle
 10
273.7258454883422019
 20
93.9999999999999716
 30
0.0
 40
10.0
100
AcDbArc
 50
47.2618831379348379
 51
89.9999999999999858
  0
ARC
  5
99
100
AcDbEntity
  8
Extruder Mount Plate
 62
256
370
-1
  6
ByLayer
100
AcDbCircle
 10
257.7499999999998863
 20
113.75
 30
0.0
 40
2.4999999999999858
100
AcDbArc
 50
360.0
 51
180.0
  0
LINE
  5
9A
100
AcDbEntity
100
AcDbLine
  8
Extruder Mount Plate
 62
256
370
-1
  6
ByLayer
 10
255.2500000000000284
 20
106.0000000000001137
 30
0.0
 11
255.2500000000000284
 21
113.75
 31
0.0
  0
LINE
  5
9B
100
AcDbEntity
100
AcDbLine
  8
Extruder Mount Plate
 62
256
370
-1
  6
ByLayer
 10
249.7500000000000284
 20
104.0
 30
0.0
 11
253.2500000000000284
 21
104.0
 31
0.0
  0
LINE
  5
9C
100
AcDbEntity
100
AcDbLine
  8
Extruder Mount Plate
 62
256
370
-1
  6
ByLayer
 10
247.7500000000000284
 20
113.75
 30
0.0
 11
247.75
 21
106.0000000000001137
 31
0.0
  0
ARC
  5
9D
100
AcDbEntity
  8
Extruder Mount Plate
 62
256
370
-1
  6
ByLayer
100
AcDbCircle
 10
245.2500000000000284
 20
113.75
 30
0.0
 40
2.4999999999999858
100
AcDbArc
 50
360.0
 51
180.0
  0
LINE
  5
9E
100
AcDbEntity
100
AcDbLine
  8
Extruder Mount Plate
 62
256
370
-1
  6
ByLayer
 10
242.7500000000000568
 20
106.0000000000001137
 30
0.0
 11
242.75
 21
113.7500000000000142
 31
0.0
  0
LINE
  5
9F
100
AcDbEntity
100
AcDbLine
  8
Extruder Mount Plate
 62
256
370
-1
  6
ByLayer
 10
213.8500000000002501
 20
104.0000000000000142
 30
0.0
 11
217.3500000000001364
 21
103.9999999999999858
 31
0.0
  0
LINE
  5
A0
100
AcDbEntity
100
AcDbLine
  8
Extruder Mount Plate
 62
256
370
-1
  6
ByLayer
 10
211.8500000000001933
 20
113.7500000000000568
 30
0.0
 11
211.8500000000002217
 21
106.0000000000001563
 31
0.0
  0
ARC
  5
A1
100
AcDbEntity
  8
Extruder Mount Plate
 62
256
370
-1
  6
ByLayer
100
AcDbCircle
 10
209.3500000000001933
 20
113.7500000000000142
 30
0.0
 40
2.4999999999999858
100
AcDbArc
 50
360.0
 51
180.0
  0
LINE
  5
A2
100
AcDbEntity
100
AcDbLine
  8
Extruder Mount Plate
 62
256
370
-1
  6
ByLayer
 10
206.8500000000001933
 20
106.0000000000001279
 30
0.0
 11
206.8500000000001933
 21
113.75
 31
0.0
  0
LINE
  5
A3
100
AcDbEntity
100
AcDbLine
  8
Extruder Mount Plate
 62
256
370
-1
  6
ByLayer
 10
198.850000000000307
 20
103.9999999999999858
 30
0.0
 11
204.8500000000001933
 21
104.0
 31
0.0
  0
ARC
  5
A4
100
AcDbEntity
  8
Extruder Mount Plate
 62
256
370
-1
  6
ByLayer
100
AcDbCircle
 10
253.2500000000000284
 20
106.0000000000000995
 30
0.0
 40
1.999999999999996
100
AcDbArc
 50
270.0
 51
360.0
  0
ARC
  5
A5
100
AcDbEntity
  8
Extruder Mount Plate
 62
256
370
-1
  6
ByLayer
100
AcDbCircle
 10
249.7500000000000284
 20
105.9999999999999716
 30
0.0
 40
1.999999999999986
100
AcDbArc
 50
180.0
 51
270.0
  0
ARC
  5
A6
100
AcDbEntity
  8
Extruder Mount Plate
 62
256
370
-1
  6
ByLayer
100
AcDbCircle
 10
240.7500000000000284
 20
106.0
 30
0.0
 40
1.999999999999984
100
AcDbArc
 50
270.0
 51
360.0
  0
ARC
  5
A7
100
AcDbEntity
  8
Extruder Mount Plate
 62
256
370
-1
  6
ByLayer
100
AcDbCircle
 10
213.8500000000002217
 20
106.0000000000001137
 30
0.0
 40
2.0
100
AcDbArc
 50
180.0
 51
270.0
  0
ARC
  5
A8
100
AcDbEntity
  8
Extruder Mount Plate
 62
256
370
-1
  6
ByLayer
100
AcDbCircle
 10
204.8500000000001933
 20
106.0
 30
0.0
 40
1.999999999999982
100
AcDbArc
 50
270.0
 51
360.0
  0
ARC
  5
A9
100
AcDbEntity
  8
Extruder Mount Plate
 62
256
370
-1
  6
ByLayer
100
AcDbCircle
 10
198.850000000000307
 20
106.0000000000000142
 30
0.0
 40
1.999999999999982
100
AcDbArc
 50
180.0
 51
270.0
  0
LINE
  5
AA
100
AcDbEntity
100
AcDbLine
  8
Extruder Mount Plate
 62
256
370
-1
  6
ByLayer
 10
227.3500000000001364
 20
104.0
 30
0.0
 11
240.75
 21
104.0000000000000142
 31
0.0
  0
LINE
  5
AB
100
AcDbEntity
100
AcDbLine
  8
Extruder Mount Plate
 62
256
370
-1
  6
ByLayer
 10
219.3500000000002501
 20
106.0000000000000853
 30
0.0
 11
219.3500000000002501
 21
113.7500000000000284
 31
0.0
  0
ARC
  5
AC
100
AcDbEntity
  8
Extruder Mount Plate
 62
256
370
-1
  6
ByLayer
100
AcDbCircle
 10
217.3500000000002501
 20
106.0
 30
0.0
 40
1.999999999999978
100
AcDbArc
 50
270.0
 51
360.0
  0
LINE
  5
AD
100
AcDbEntity
100
AcDbLine
  8
Extruder Mount Plate
 62
256
370
-1
  6
ByLayer
 10
225.3500000000001364
 20
113.7499999999999858
 30
0.0
 11
225.3500000000001364
 21
106.0
 31
0.0
  0
ARC
  5
AE
100
AcDbEntity
  8
Extruder Mount Plate
 62
256
370
-1
  6
ByLayer
100
AcDbCircle
 10
227.3500000000001364
 20
105.9999999999999858
 30
0.0
 40
2.0
100
AcDbArc
 50
180.0
 51
270.0
  0
ARC
  5
AF
100
AcDbEntity
  8
Extruder Mount Plate
 62
256
370
-1
  6
ByLayer
100
AcDbCircle
 10
222.3500000000001364
 20
113.7500000000000142
 30
0.0
 40
3.0
100
AcDbArc
 50
360.0
 51
180.0
  0
LINE
  5
B0
100
AcDbEntity
100
AcDbLine
  8
Extruder Mount Plate
 62
256
370
-1
  6
ByLayer
 10
260.2499999999998863
 20
113.75
 30
0.0
 11
260.2499999999999432
 21
105.9999999999999858
 31
0.0
  0
ARC
  5
B1
100
AcDbEntity
  8
Extruder Mount Plate
 62
256
370
-1
  6
ByLayer
100
AcDbCircle
 10
262.2499999999999432
 20
105.9999999999999716
 30
0.0
 40
2.0
100
AcDbArc
 50
180.0
 51
270.0
  0
LINE
  5
B2
100
AcDbEntity
100
AcDbLine
  8
Extruder Mount Plate
 62
256
370
-1
  6
ByLayer
 10
196.8500000000001933
 20
130.4999999999999147
 30
0.0
 11
196.8500000000001933
 21
106.0000000000001421
 31
0.0
  0
ARC
  5
B3
100
AcDbEntity
  8
Extruder Mount Plate
 62
256
370
-1
  6
ByLayer
100
AcDbCircle
 10
198.8500000000001933
 20
130.4999999999998863
 30
0.0
 40
2.0
100
AcDbArc
 50
89.9999999999999858
 51
180.0
  0
ARC
  5
B4
100
AcDbEntity
  8
Extruder Mount Plate
 62
256
370
-1
  6
ByLayer
100
AcDbCircle
 10
270.4203457760619358
 20
142.4999999999998863
 30
0.0
 40
10.0
100
AcDbArc
 50
270.0
 51
320.5360035912185026
  0
LINE
  5
B5
100
AcDbEntity
100
AcDbLine
  8
Extruder Mount Plate
 62
256
370
-1
  6
ByLayer
 10
198.8500000000001933
 20
132.4999999999998863
 30
0.0
 11
270.4203457760619358
 21
132.4999999999998863
 31
0.0
  0
LINE
  5
B6
100
AcDbEntity
100
AcDbLine
  8
Extruder Mount Plate
 62
256
370
-1
  6
ByLayer
 10
273.7258454883422019
 20
103.9999999999999858
 30
0.0
 11
262.2499999999999432
 21
103.9999999999999858
 31
0.0
  0
CIRCLE
  5
B7
100
AcDbEntity
100
AcDbCircle
  8
Extruder Mount Plate
 62
256
370
-1
  6
ByLayer
 10
279.5634665205266174
 20
130.5000000000000568
 30
0.0
 40
1.45
  0
CIRCLE
  5
B8
100
AcDbEntity
100
AcDbCircle
  8
Extruder Mount Plate
 62
256
370
-1
  6
ByLayer
 10
315.9365334794730416
 20
130.4999999999999716
 30
0.0
 40
1.45
  0
CIRCLE
  5
B9
100
AcDbEntity
100
AcDbCircle
  8
Extruder Mount Plate
 62
256
370
-1
  6
ByLayer
 10
297.7499999999998295
 20
99.0
 30
0.0
 40
1.45
  0
MTEXT
  5
BA
100
AcDbEntity
100
AcDbMText
  8
Extruder Mount Plate Text
 62
256
370
-1
  6
ByLayer
 10
233.7499999999998295
 20
128.399999999999693
 30
0.0
 40
3.0
 41
100.0
 71
5
 72
2
  1
Extruder\~Mount\~Plate
  7
standard
 50
360.0
 73
1
 44
1.0
  0
CIRCLE
  5
BB
100
AcDbEntity
100
AcDbCircle
  8
Extruder Mount Plate
 62
256
370
-1
  6
ByLayer
 10
285.3749999999998295
 20
120.0
 30
0.0
 40
1.45
  0
CIRCLE
  5
BC
100
AcDbEntity
100
AcDbCircle
  8
Extruder Mount Plate
 62
256
370
-1
  6
ByLayer
 10
310.6249999999998295
 20
119.9999999999999858
 30
0.0
 40
1.45
  0
CIRCLE
  5
BD
100
AcDbEntity
100
AcDbCircle
  8
Extruder Mount Plate
 62
256
370
-1
  6
ByLayer
 10
297.7499999999998295
 20
120.0
 30
0.0
 40
2.0
  0
ARC
  5
BE
100
AcDbEntity
  8
Insulator Retainer
 62
256
370
-1
  6
ByLayer
100
AcDbCircle
 10
167.7499999999998295
 20
120.0
 30
0.0
 40
25.3999999999999986
100
AcDbArc
 50
227.2618831379347739
 51
140.5360035912185026
  0
ARC
  5
BF
100
AcDbEntity
  8
Insulator Retainer
 62
256
370
-1
  6
ByLayer
100
AcDbCircle
 10
143.7258454883422019
 20
93.9999999999999716
 30
0.0
 40
10.0
100
AcDbArc
 50
47.2618831379348379
 51
89.9999999999999858
  0
ARC
  5
C0
100
AcDbEntity
  8
Insulator Retainer
 62
256
370
-1
  6
ByLayer
100
AcDbCircle
 10
127.7499999999999147
 20
113.75
 30
0.0
 40
2.4999999999999858
100
AcDbArc
 50
360.0
 51
180.0
  0
LINE
  5
C1
100
AcDbEntity
100
AcDbLine
  8
Insulator Retainer
 62
256
370
-1
  6
ByLayer
 10
125.2500000000000284
 20
106.0000000000001137
 30
0.0
 11
125.2500000000000284
 21
113.75
 31
0.0
  0
LINE
  5
C2
100
AcDbEntity
100
AcDbLine
  8
Insulator Retainer
 62
256
370
-1
  6
ByLayer
 10
119.7500000000000284
 20
104.0
 30
0.0
 11
123.2500000000000142
 21
104.0
 31
0.0
  0
LINE
  5
C3
100
AcDbEntity
100
AcDbLine
  8
Insulator Retainer
 62
256
370
-1
  6
ByLayer
 10
117.7500000000000426
 20
113.7500000000000142
 30
0.0
 11
117.7500000000000142
 21
106.0000000000001137
 31
0.0
  0
ARC
  5
C4
100
AcDbEntity
  8
Insulator Retainer
 62
256
370
-1
  6
ByLayer
100
AcDbCircle
 10
115.2499999999999858
 20
113.7500000000000142
 30
0.0
 40
2.4999999999999858
100
AcDbArc
 50
360.0
 51
180.0
  0
LINE
  5
C5
100
AcDbEntity
100
AcDbLine
  8
Insulator Retainer
 62
256
370
-1
  6
ByLayer
 10
112.7500000000000426
 20
106.0000000000001137
 30
0.0
 11
112.7499999999999858
 21
113.75
 31
0.0
  0
LINE
  5
C6
100
AcDbEntity
100
AcDbLine
  8
Insulator Retainer
 62
256
370
-1
  6
ByLayer
 10
83.8500000000002359
 20
103.9999999999999858
 30
0.0
 11
87.3500000000001364
 21
103.9999999999999858
 31
0.0
  0
LINE
  5
C7
100
AcDbEntity
100
AcDbLine
  8
Insulator Retainer
 62
256
370
-1
  6
ByLayer
 10
81.8500000000001933
 20
113.75
 30
0.0
 11
81.8500000000002501
 21
106.0000000000000711
 31
0.0
  0
ARC
  5
C8
100
AcDbEntity
  8
Insulator Retainer
 62
256
370
-1
  6
ByLayer
100
AcDbCircle
 10
79.3500000000001933
 20
113.7500000000000142
 30
0.0
 40
2.4999999999999858
100
AcDbArc
 50
360.0
 51
180.0
  0
LINE
  5
C9
100
AcDbEntity
100
AcDbLine
  8
Insulator Retainer
 62
256
370
-1
  6
ByLayer
 10
76.8500000000001933
 20
106.0000000000001279
 30
0.0
 11
76.8500000000001933
 21
113.7499999999999574
 31
0.0
  0
LINE
  5
CA
100
AcDbEntity
100
AcDbLine
  8
Insulator Retainer
 62
256
370
-1
  6
ByLayer
 10
68.850000000000307
 20
103.9999999999999005
 30
0.0
 11
74.8500000000001648
 21
104.0000000000000568
 31
0.0
  0
ARC
  5
CB
100
AcDbEntity
  8
Insulator Retainer
 62
256
370
-1
  6
ByLayer
100
AcDbCircle
 10
123.2500000000000284
 20
106.0000000000000995
 30
0.0
 40
1.999999999999996
100
AcDbArc
 50
270.0
 51
360.0
  0
ARC
  5
CC
100
AcDbEntity
  8
Insulator Retainer
 62
256
370
-1
  6
ByLayer
100
AcDbCircle
 10
119.7500000000000426
 20
105.9999999999999858
 30
0.0
 40
1.999999999999986
100
AcDbArc
 50
180.0
 51
270.0
  0
ARC
  5
CD
100
AcDbEntity
  8
Insulator Retainer
 62
256
370
-1
  6
ByLayer
100
AcDbCircle
 10
110.75
 20
106.0000000000000142
 30
0.0
 40
1.999999999999984
100
AcDbArc
 50
270.0
 51
360.0
  0
ARC
  5
CE
100
AcDbEntity
  8
Insulator Retainer
 62
256
370
-1
  6
ByLayer
100
AcDbCircle
 10
83.8500000000002217
 20
106.0000000000001421
 30
0.0
 40
2.0
100
AcDbArc
 50
180.0
 51
270.0
  0
ARC
  5
CF
100
AcDbEntity
  8
Insulator Retainer
 62
256
370
-1
  6
ByLayer
100
AcDbCircle
 10
74.8500000000001791
 20
106.0
 30
0.0
 40
1.999999999999982
100
AcDbArc
 50
270.0
 51
360.0
  0
ARC
  5
D0
100
AcDbEntity
  8
Insulator Retainer
 62
256
370
-1
  6
ByLayer
100
AcDbCircle
 10
68.850000000000307
 20
106.0000000000000142
 30
0.0
 40
1.999999999999982
100
AcDbArc
 50
180.0
 51
270.0
  0
LINE
  5
D1
100
AcDbEntity
100
AcDbLine
  8
Insulator Retainer
 62
256
370
-1
  6
ByLayer
 10
97.3500000000001364
 20
103.9999999999999716
 30
0.0
 11
110.7500000000000568
 21
104.0
 31
0.0
  0
LINE
  5
D2
100
AcDbEntity
100
AcDbLine
  8
Insulator Retainer
 62
256
370
-1
  6
ByLayer
 10
89.3500000000002501
 20
106.0000000000000853
 30
0.0
 11
89.3500000000002501
 21
113.7500000000000284
 31
0.0
  0
ARC
  5
D3
100
AcDbEntity
  8
Insulator Retainer
 62
256
370
-1
  6
ByLayer
100
AcDbCircle
 10
87.3500000000002501
 20
106.0
 30
0.0
 40
1.999999999999978
100
AcDbArc
 50
270.0
 51
360.0
  0
LINE
  5
D4
100
AcDbEntity
100
AcDbLine
  8
Insulator Retainer
 62
256
370
-1
  6
ByLayer
 10
95.3500000000001364
 20
113.7499999999999574
 30
0.0
 11
95.3500000000001364
 21
105.9999999999999716
 31
0.0
  0
ARC
  5
D5
100
AcDbEntity
  8
Insulator Retainer
 62
256
370
-1
  6
ByLayer
100
AcDbCircle
 10
97.3500000000001364
 20
105.9999999999999716
 30
0.0
 40
2.0
100
AcDbArc
 50
180.0
 51
270.0
  0
ARC
  5
D6
100
AcDbEntity
  8
Insulator Retainer
 62
256
370
-1
  6
ByLayer
100
AcDbCircle
 10
92.3500000000001364
 20
113.7500000000000142
 30
0.0
 40
3.0
100
AcDbArc
 50
360.0
 51
180.0
  0
LINE
  5
D7
100
AcDbEntity
100
AcDbLine
  8
Insulator Retainer
 62
256
370
-1
  6
ByLayer
 10
130.2499999999999147
 20
113.75
 30
0.0
 11
130.2499999999999147
 21
105.9999999999999858
 31
0.0
  0
ARC
  5
D8
100
AcDbEntity
  8
Insulator Retainer
 62
256
370
-1
  6
ByLayer
100
AcDbCircle
 10
132.2499999999999147
 20
105.9999999999999716
 30
0.0
 40
2.0
100
AcDbArc
 50
180.0
 51
270.0
  0
LINE
  5
D9
100
AcDbEntity
100
AcDbLine
  8
Insulator Retainer
 62
256
370
-1
  6
ByLayer
 10
66.8500000000001933
 20
130.4999999999999147
 30
0.0
 11
66.8500000000001791
 21
106.0000000000001421
 31
0.0
  0
ARC
  5
DA
100
AcDbEntity
  8
Insulator Retainer
 62
256
370
-1
  6
ByLayer
100
AcDbCircle
 10
68.8500000000001933
 20
130.499999999999801
 30
0.0
 40
2.0
100
AcDbArc
 50
89.9999999999999858
 51
180.0
  0
ARC
  5
DB
100
AcDbEntity
  8
Insulator Retainer
 62
256
370
-1
  6
ByLayer
100
AcDbCircle
 10
140.4203457760619358
 20
142.4999999999998863
 30
0.0
 40
10.0
100
AcDbArc
 50
270.0
 51
320.5360035912185026
  0
LINE
  5
DC
100
AcDbEntity
100
AcDbLine
  8
Insulator Retainer
 62
256
370
-1
  6
ByLayer
 10
68.8500000000001933
 20
132.4999999999998863
 30
0.0
 11
140.4203457760619358
 21
132.4999999999998863
 31
0.0
  0
LINE
  5
DD
100
AcDbEntity
100
AcDbLine
  8
Insulator Retainer
 62
256
370
-1
  6
ByLayer
 10
132.2499999999999147
 20
103.9999999999999858
 30
0.0
 11
143.7258454883422303
 21
104.0
 31
0.0
  0
CIRCLE
  5
DE
100
AcDbEntity
100
AcDbCircle
  8
Insulator Retainer
 62
256
370
-1
  6
ByLayer
 10
167.7499999999998295
 20
120.0
 30
0.0
 40
8.0
  0
MTEXT
  5
DF
100
AcDbEntity
100
AcDbMText
  8
Insulator Retainer Text
 62
256
370
-1
  6
ByLayer
 10
103.7499999999998295
 20
123.3999999999997073
 30
0.0
 40
3.0
 41
100.0
 71
5
 72
2
  1
Insulator\~Retainer
  7
standard
 50
360.0
 73
1
 44
1.0
  0
CIRCLE
  5
E0
100
AcDbEntity
100
AcDbCircle
  8
Insulator Retainer
 62
256
370
-1
  6
ByLayer
 10
149.5634665205266174
 20
130.5000000000000568
 30
0.0
 40
1.45
  0
CIRCLE
  5
E1
100
AcDbEntity
100
AcDbCircle
  8
Insulator Retainer
 62
256
370
-1
  6
ByLayer
 10
185.9365334794730416
 20
130.4999999999999716
 30
0.0
 40
1.45
  0
CIRCLE
  5
E2
100
AcDbEntity
100
AcDbCircle
  8
Insulator Retainer
 62
256
370
-1
  6
ByLayer
 10
167.7499999999998295
 20
99.0
 30
0.0
 40
1.45
  0
CIRCLE
  5
E3
100
AcDbEntity
100
AcDbCircle
  8
Insulator Retainer
 62
256
370
-1
  6
ByLayer
 10
155.3749999999998295
 20
120.0
 30
0.0
 40
1.45
  0
CIRCLE
  5
E4
100
AcDbEntity
100
AcDbCircle
  8
Insulator Retainer
 62
256
370
-1
  6
ByLayer
 10
180.6249999999998295
 20
119.9999999999999858
 30
0.0
 40
1.45
  0
ARC
  5
E5
100
AcDbEntity
  8
Extruder Mount Plate
 62
256
370
-1
  6
ByLayer
100
AcDbCircle
 10
22.7499999999998295
 20
169.0000000000000284
 30
0.0
 40
25.3999999999999986
100
AcDbArc
 50
47.2618831379347526
 51
320.5360035912185026
  0
ARC
  5
E6
100
AcDbEntity
  8
Extruder Mount Plate
 62
256
370
-1
  6
ByLayer
100
AcDbCircle
 10
46.7741545116574571
 20
195.0000000000000284
 30
0.0
 40
10.0
100
AcDbArc
 50
227.2618831379348308
 51
270.0
  0
ARC
  5
E7
100
AcDbEntity
  8
Extruder Mount Plate
 62
256
370
-1
  6
ByLayer
100
AcDbCircle
 10
62.7499999999997726
 20
175.2500000000000853
 30
0.0
 40
2.4999999999999858
100
AcDbArc
 50
180.0
 51
360.0
  0
LINE
  5
E8
100
AcDbEntity
100
AcDbLine
  8
Extruder Mount Plate
 62
256
370
-1
  6
ByLayer
 10
65.2499999999996447
 20
182.9999999999999432
 30
0.0
 11
65.2499999999996305
 21
175.2499999999998863
 31
0.0
  0
LINE
  5
E9
100
AcDbEntity
100
AcDbLine
  8
Extruder Mount Plate
 62
256
370
-1
  6
ByLayer
 10
70.7499999999996305
 20
185.0
 30
0.0
 11
67.2499999999996447
 21
185.0000000000000568
 31
0.0
  0
LINE
  5
EA
100
AcDbEntity
100
AcDbLine
  8
Extruder Mount Plate
 62
256
370
-1
  6
ByLayer
 10
72.7499999999996305
 20
175.25
 30
0.0
 11
72.7499999999996589
 21
182.9999999999999147
 31
0.0
  0
ARC
  5
EB
100
AcDbEntity
  8
Extruder Mount Plate
 62
256
370
-1
  6
ByLayer
100
AcDbCircle
 10
75.2499999999996305
 20
175.2499999999998863
 30
0.0
 40
2.4999999999999858
100
AcDbArc
 50
180.0
 51
360.0
  0
LINE
  5
EC
100
AcDbEntity
100
AcDbLine
  8
Extruder Mount Plate
 62
256
370
-1
  6
ByLayer
 10
77.7499999999996021
 20
182.9999999999999147
 30
0.0
 11
77.7499999999996589
 21
175.2499999999998295
 31
0.0
  0
LINE
  5
ED
100
AcDbEntity
100
AcDbLine
  8
Extruder Mount Plate
 62
256
370
-1
  6
ByLayer
 10
106.649999999999423
 20
185.0000000000000284
 30
0.0
 11
103.1499999999995367
 21
185.0000000000000568
 31
0.0
  0
LINE
  5
EE
100
AcDbEntity
100
AcDbLine
  8
Extruder Mount Plate
 62
256
370
-1
  6
ByLayer
 10
108.6499999999994657
 20
175.2499999999999716
 30
0.0
 11
108.6499999999994373
 21
182.9999999999998579
 31
0.0
  0
ARC
  5
EF
100
AcDbEntity
  8
Extruder Mount Plate
 62
256
370
-1
  6
ByLayer
100
AcDbCircle
 10
111.1499999999994657
 20
175.2499999999999716
 30
0.0
 40
2.4999999999999858
100
AcDbArc
 50
180.0
 51
360.0
  0
LINE
  5
F0
100
AcDbEntity
100
AcDbLine
  8
Extruder Mount Plate
 62
256
370
-1
  6
ByLayer
 10
113.6499999999994799
 20
182.9999999999998863
 30
0.0
 11
113.6499999999994657
 21
175.25
 31
0.0
  0
LINE
  5
F1
100
AcDbEntity
100
AcDbLine
  8
Extruder Mount Plate
 62
256
370
-1
  6
ByLayer
 10
121.649999999999352
 20
185.0
 30
0.0
 11
115.6499999999994799
 21
185.0000000000000284
 31
0.0
  0
ARC
  5
F2
100
AcDbEntity
  8
Extruder Mount Plate
 62
256
370
-1
  6
ByLayer
100
AcDbCircle
 10
67.2499999999996305
 20
182.9999999999998295
 30
0.0
 40
1.999999999999996
100
AcDbArc
 50
90.0
 51
180.0
  0
ARC
  5
F3
100
AcDbEntity
  8
Extruder Mount Plate
 62
256
370
-1
  6
ByLayer
100
AcDbCircle
 10
70.7499999999996305
 20
183.0000000000000568
 30
0.0
 40
1.999999999999986
100
AcDbArc
 50
360.0
 51
90.0
  0
ARC
  5
F4
100
AcDbEntity
  8
Extruder Mount Plate
 62
256
370
-1
  6
ByLayer
100
AcDbCircle
 10
79.7499999999996447
 20
183.0000000000001137
 30
0.0
 40
1.999999999999984
100
AcDbArc
 50
90.0
 51
180.0
  0
ARC
  5
F5
100
AcDbEntity
  8
Extruder Mount Plate
 62
256
370
-1
  6
ByLayer
100
AcDbCircle
 10
106.6499999999994373
 20
182.9999999999998863
 30
0.0
 40
2.0
100
AcDbArc
 50
360.0
 51
90.0
  0
ARC
  5
F6
100
AcDbEntity
  8
Extruder Mount Plate
 62
256
370
-1
  6
ByLayer
100
AcDbCircle
 10
115.6499999999994799
 20
183.0000000000000284
 30
0.0
 40
1.999999999999982
100
AcDbArc
 50
90.0
 51
180.0
  0
ARC
  5
F7
100
AcDbEntity
  8
Extruder Mount Plate
 62
256
370
-1
  6
ByLayer
100
AcDbCircle
 10
121.649999999999352
 20
183.0
 30
0.0
 40
1.999999999999982
100
AcDbArc
 50
360.0
 51
90.0
  0
LINE
  5
F8
100
AcDbEntity
100
AcDbLine
  8
Extruder Mount Plate
 62
256
370
-1
  6
ByLayer
 10
93.1499999999995367
 20
185.0000000000000568
 30
0.0
 11
79.7499999999996589
 21
184.9999999999999147
 31
0.0
  0
LINE
  5
F9
100
AcDbEntity
100
AcDbLine
  8
Extruder Mount Plate
 62
256
370
-1
  6
ByLayer
 10
101.149999999999423
 20
182.9999999999999716
 30
0.0
 11
101.1499999999994088
 21
175.2499999999999716
 31
0.0
  0
ARC
  5
FA
100
AcDbEntity
  8
Extruder Mount Plate
 62
256
370
-1
  6
ByLayer
100
AcDbCircle
 10
103.1499999999994088
 20
183.0
 30
0.0
 40
1.999999999999978
100
AcDbArc
 50
90.0
 51
180.0
  0
LINE
  5
FB
100
AcDbEntity
100
AcDbLine
  8
Extruder Mount Plate
 62
256
370
-1
  6
ByLayer
 10
95.1499999999995225
 20
175.2499999999999716
 30
0.0
 11
95.1499999999995225
 21
183.0
 31
0.0
  0
ARC
  5
FC
100
AcDbEntity
  8
Extruder Mount Plate
 62
256
370
-1
  6
ByLayer
100
AcDbCircle
 10
93.1499999999995225
 20
183.0000000000000853
 30
0.0
 40
2.0
100
AcDbArc
 50
360.0
 51
90.0
  0
ARC
  5
FD
100
AcDbEntity
  8
Extruder Mount Plate
 62
256
370
-1
  6
ByLayer
100
AcDbCircle
 10
98.1499999999995225
 20
175.2499999999999716
 30
0.0
 40
3.0
100
AcDbArc
 50
180.0
 51
360.0
  0
LINE
  5
FE
100
AcDbEntity
100
AcDbLine
  8
Extruder Mount Plate
 62
256
370
-1
  6
ByLayer
 10
60.2499999999997726
 20
175.250000000000199
 30
0.0
 11
60.2499999999997158
 21
183.0000000000001705
 31
0.0
  0
ARC
  5
FF
100
AcDbEntity
  8
Extruder Mount Plate
 62
256
370
-1
  6
ByLayer
100
AcDbCircle
 10
58.2499999999997158
 20
183.0
 30
0.0
 40
2.0
100
AcDbArc
 50
360.0
 51
90.0
  0
LINE
  5
100
100
AcDbEntity
100
AcDbLine
  8
Extruder Mount Plate
 62
256
370
-1
  6
ByLayer
 10
123.6499999999994657
 20
158.5000000000000853
 30
0.0
 11
123.6499999999994657
 21
182.9999999999998579
 31
0.0
  0
ARC
  5
101
100
AcDbEntity
  8
Extruder Mount Plate
 62
256
370
-1
  6
ByLayer
100
AcDbCircle
 10
121.6499999999994657
 20
158.5000000000001137
 30
0.0
 40
2.0
100
AcDbArc
 50
270.0
 51
360.0
  0
ARC
  5
102
100
AcDbEntity
  8
Extruder Mount Plate
 62
256
370
-1
  6
ByLayer
100
AcDbCircle
 10
50.0796542239377231
 20
146.5000000000001421
 30
0.0
 40
10.0
100
AcDbArc
 50
90.0
 51
140.5360035912185026
  0
LINE
  5
103
100
AcDbEntity
100
AcDbLine
  8
Extruder Mount Plate
 62
256
370
-1
  6
ByLayer
 10
121.6499999999994657
 20
156.5000000000001137
 30
0.0
 11
50.0796542239377231
 21
156.5000000000001421
 31
0.0
  0
LINE
  5
104
100
AcDbEntity
100
AcDbLine
  8
Extruder Mount Plate
 62
256
370
-1
  6
ByLayer
 10
46.7741545116574713
 20
185.0000000000000568
 30
0.0
 11
58.24999999999973
 21
185.0000000000000568
 31
0.0
  0
CIRCLE
  5
105
100
AcDbEntity
100
AcDbCircle
  8
Extruder Mount Plate
 62
256
370
-1
  6
ByLayer
 10
40.9365334794730416
 20
158.5000000000000284
 30
0.0
 40
1.45
  0
CIRCLE
  5
106
100
AcDbEntity
100
AcDbCircle
  8
Extruder Mount Plate
 62
256
370
-1
  6
ByLayer
 10
4.5634665205266174
 20
158.5000000000000568
 30
0.0
 40
1.45
  0
CIRCLE
  5
107
100
AcDbEntity
100
AcDbCircle
  8
Extruder Mount Plate
 62
256
370
-1
  6
ByLayer
 10
22.7499999999998295
 20
190.0000000000000568
 30
0.0
 40
1.45
  0
MTEXT
  5
108
100
AcDbEntity
100
AcDbMText
  8
Extruder Mount Plate Text
 62
256
370
-1
  6
ByLayer
 10
86.7499999999998295
 20
160.6000000000002501
 30
0.0
 40
3.0
 41
100.0
 71
5
 72
2
  1
Extruder\~Mount\~Plate
  7
standard
 50
180.0
 73
1
 44
1.0
  0
CIRCLE
  5
109
100
AcDbEntity
100
AcDbCircle
  8
Extruder Mount Plate
 62
256
370
-1
  6
ByLayer
 10
35.1249999999998295
 20
169.0000000000000284
 30
0.0
 40
1.45
  0
CIRCLE
  5
10A
100
AcDbEntity
100
AcDbCircle
  8
Extruder Mount Plate
 62
256
370
-1
  6
ByLayer
 10
9.8749999999998295
 20
169.0000000000000568
 30
0.0
 40
1.45
  0
CIRCLE
  5
10B
100
AcDbEntity
100
AcDbCircle
  8
Extruder Mount Plate
 62
256
370
-1
  6
ByLayer
 10
22.7499999999998295
 20
169.0000000000000284
 30
0.0
 40
2.0
  0
ARC
  5
10C
100
AcDbEntity
  8
Insulator Retainer
 62
256
370
-1
  6
ByLayer
100
AcDbCircle
 10
152.7499999999998295
 20
169.0
 30
0.0
 40
25.3999999999999986
100
AcDbArc
 50
47.2618831379347526
 51
320.5360035912185026
  0
ARC
  5
10D
100
AcDbEntity
  8
Insulator Retainer
 62
256
370
-1
  6
ByLayer
100
AcDbCircle
 10
176.7741545116574855
 20
194.9999999999999716
 30
0.0
 40
10.0
100
AcDbArc
 50
227.2618831379348308
 51
270.0
  0
ARC
  5
10E
100
AcDbEntity
  8
Insulator Retainer
 62
256
370
-1
  6
ByLayer
100
AcDbCircle
 10
192.7499999999997442
 20
175.2500000000000568
 30
0.0
 40
2.4999999999999858
100
AcDbArc
 50
180.0
 51
360.0
  0
LINE
  5
10F
100
AcDbEntity
100
AcDbLine
  8
Insulator Retainer
 62
256
370
-1
  6
ByLayer
 10
195.2499999999996589
 20
182.9999999999998295
 30
0.0
 11
195.2499999999996305
 21
175.2499999999999432
 31
0.0
  0
LINE
  5
110
100
AcDbEntity
100
AcDbLine
  8
Insulator Retainer
 62
256
370
-1
  6
ByLayer
 10
200.7499999999996305
 20
184.9999999999999716
 30
0.0
 11
197.2499999999996589
 21
184.9999999999999432
 31
0.0
  0
LINE
  5
111
100
AcDbEntity
100
AcDbLine
  8
Insulator Retainer
 62
256
370
-1
  6
ByLayer
 10
202.7499999999996021
 20
175.2499999999999716
 30
0.0
 11
202.7499999999996589
 21
182.9999999999998863
 31
0.0
  0
ARC
  5
112
100
AcDbEntity
  8
Insulator Retainer
 62
256
370
-1
  6
ByLayer
100
AcDbCircle
 10
205.2499999999996589
 20
175.25
 30
0.0
 40
2.4999999999999858
100
AcDbArc
 50
180.0
 51
360.0
  0
LINE
  5
113
100
AcDbEntity
100
AcDbLine
  8
Insulator Retainer
 62
256
370
-1
  6
ByLayer
 10
207.7499999999996021
 20
182.999999999999801
 30
0.0
 11
207.7499999999996874
 21
175.2499999999999147
 31
0.0
  0
LINE
  5
114
100
AcDbEntity
100
AcDbLine
  8
Insulator Retainer
 62
256
370
-1
  6
ByLayer
 10
236.6499999999994373
 20
184.9999999999999147
 30
0.0
 11
233.1499999999995225
 21
185.0000000000000284
 31
0.0
  0
LINE
  5
115
100
AcDbEntity
100
AcDbLine
  8
Insulator Retainer
 62
256
370
-1
  6
ByLayer
 10
238.6499999999994657
 20
175.2499999999999147
 30
0.0
 11
238.6499999999994088
 21
182.9999999999998579
 31
0.0
  0
ARC
  5
116
100
AcDbEntity
  8
Insulator Retainer
 62
256
370
-1
  6
ByLayer
100
AcDbCircle
 10
241.1499999999994657
 20
175.2500000000001705
 30
0.0
 40
2.4999999999999858
100
AcDbArc
 50
180.0
 51
360.0
  0
LINE
  5
117
100
AcDbEntity
100
AcDbLine
  8
Insulator Retainer
 62
256
370
-1
  6
ByLayer
 10
243.6499999999994657
 20
182.9999999999997726
 30
0.0
 11
243.6499999999994657
 21
175.2500000000002558
 31
0.0
  0
LINE
  5
118
100
AcDbEntity
100
AcDbLine
  8
Insulator Retainer
 62
256
370
-1
  6
ByLayer
 10
251.649999999999352
 20
185.0000000000001705
 30
0.0
 11
245.6499999999995225
 21
184.9999999999997442
 31
0.0
  0
ARC
  5
119
100
AcDbEntity
  8
Insulator Retainer
 62
256
370
-1
  6
ByLayer
100
AcDbCircle
 10
197.2499999999996305
 20
182.9999999999999147
 30
0.0
 40
1.999999999999996
100
AcDbArc
 50
90.0
 51
180.0
  0
ARC
  5
11A
100
AcDbEntity
  8
Insulator Retainer
 62
256
370
-1
  6
ByLayer
100
AcDbCircle
 10
200.7499999999996305
 20
182.9999999999999432
 30
0.0
 40
1.999999999999986
100
AcDbArc
 50
360.0
 51
90.0
  0
ARC
  5
11B
100
AcDbEntity
  8
Insulator Retainer
 62
256
370
-1
  6
ByLayer
100
AcDbCircle
 10
209.7499999999996589
 20
182.9999999999998579
 30
0.0
 40
1.999999999999984
100
AcDbArc
 50
90.0
 51
180.0
  0
ARC
  5
11C
100
AcDbEntity
  8
Insulator Retainer
 62
256
370
-1
  6
ByLayer
100
AcDbCircle
 10
236.6499999999994373
 20
182.9999999999998295
 30
0.0
 40
2.0
100
AcDbArc
 50
360.0
 51
90.0
  0
ARC
  5
11D
100
AcDbEntity
  8
Insulator Retainer
 62
256
370
-1
  6
ByLayer
100
AcDbCircle
 10
245.6499999999994941
 20
182.9999999999999432
 30
0.0
 40
1.999999999999982
100
AcDbArc
 50
90.0
 51
180.0
  0
ARC
  5
11E
100
AcDbEntity
  8
Insulator Retainer
 62
256
370
-1
  6
ByLayer
100
AcDbCircle
 10
251.649999999999352
 20
182.9999999999999716
 30
0.0
 40
1.999999999999982
100
AcDbArc
 50
360.0
 51
90.0
  0
LINE
  5
11F
100
AcDbEntity
100
AcDbLine
  8
Insulator Retainer
 62
256
370
-1
  6
ByLayer
 10
223.1499999999995225
 20
185.0000000000001137
 30
0.0
 11
209.7499999999996021
 21
184.9999999999999716
 31
0.0
  0
LINE
  5
120
100
AcDbEntity
100
AcDbLine
  8
Insulator Retainer
 62
256
370
-1
  6
ByLayer
 10
231.1499999999994088
 20
183.0
 30
0.0
 11
231.1499999999994088
 21
175.25
 31
0.0
  0
ARC
  5
121
100
AcDbEntity
  8
Insulator Retainer
 62
256
370
-1
  6
ByLayer
100
AcDbCircle
 10
233.1499999999994088
 20
182.9999999999999432
 30
0.0
 40
1.999999999999978
100
AcDbArc
 50
90.0
 51
180.0
  0
LINE
  5
122
100
AcDbEntity
100
AcDbLine
  8
Insulator Retainer
 62
256
370
-1
  6
ByLayer
 10
225.1499999999995225
 20
175.2499999999999432
 30
0.0
 11
225.1499999999995225
 21
182.9999999999999147
 31
0.0
  0
ARC
  5
123
100
AcDbEntity
  8
Insulator Retainer
 62
256
370
-1
  6
ByLayer
100
AcDbCircle
 10
223.1499999999995509
 20
182.9999999999998863
 30
0.0
 40
2.0
100
AcDbArc
 50
360.0
 51
90.0
  0
ARC
  5
124
100
AcDbEntity
  8
Insulator Retainer
 62
256
370
-1
  6
ByLayer
100
AcDbCircle
 10
228.1499999999995225
 20
175.2499999999999716
 30
0.0
 40
3.0
100
AcDbArc
 50
180.0
 51
360.0
  0
LINE
  5
125
100
AcDbEntity
100
AcDbLine
  8
Insulator Retainer
 62
256
370
-1
  6
ByLayer
 10
190.2499999999997442
 20
175.2499999999999432
 30
0.0
 11
190.2499999999997442
 21
183.0000000000000284
 31
0.0
  0
ARC
  5
126
100
AcDbEntity
  8
Insulator Retainer
 62
256
370
-1
  6
ByLayer
100
AcDbCircle
 10
188.2499999999997442
 20
183.0000000000000568
 30
0.0
 40
2.0
100
AcDbArc
 50
360.0
 51
90.0
  0
LINE
  5
127
100
AcDbEntity
100
AcDbLine
  8
Insulator Retainer
 62
256
370
-1
  6
ByLayer
 10
253.6499999999994657
 20
158.4999999999999716
 30
0.0
 11
253.6499999999994657
 21
182.9999999999998863
 31
0.0
  0
ARC
  5
128
100
AcDbEntity
  8
Insulator Retainer
 62
256
370
-1
  6
ByLayer
100
AcDbCircle
 10
251.6499999999994657
 20
158.5000000000000853
 30
0.0
 40
2.0
100
AcDbArc
 50
270.0
 51
360.0
  0
ARC
  5
129
100
AcDbEntity
  8
Insulator Retainer
 62
256
370
-1
  6
ByLayer
100
AcDbCircle
 10
180.0796542239377231
 20
146.5000000000000853
 30
0.0
 40
10.0
100
AcDbArc
 50
90.0
 51
140.5360035912185026
  0
LINE
  5
12A
100
AcDbEntity
100
AcDbLine
  8
Insulator Retainer
 62
256
370
-1
  6
ByLayer
 10
251.6499999999994657
 20
156.5000000000001705
 30
0.0
 11
180.0796542239377231
 21
156.5000000000000853
 31
0.0
  0
LINE
  5
12B
100
AcDbEntity
100
AcDbLine
  8
Insulator Retainer
 62
256
370
-1
  6
ByLayer
 10
188.2499999999997442
 20
185.0
 30
0.0
 11
176.7741545116574287
 21
185.0
 31
0.0
  0
CIRCLE
  5
12C
100
AcDbEntity
100
AcDbCircle
  8
Insulator Retainer
 62
256
370
-1
  6
ByLayer
 10
152.7499999999998295
 20
169.0
 30
0.0
 40
8.0
  0
MTEXT
  5
12D
100
AcDbEntity
100
AcDbMText
  8
Insulator Retainer Text
 62
256
370
-1
  6
ByLayer
 10
216.7499999999998295
 20
165.6000000000001648
 30
0.0
 40
3.0
 41
100.0
 71
5
 72
2
  1
Insulator\~Retainer
  7
standard
 50
180.0
 73
1
 44
1.0
  0
CIRCLE
  5
12E
100
AcDbEntity
100
AcDbCircle
  8
Insulator Retainer
 62
256
370
-1
  6
ByLayer
 10
170.9365334794730416
 20
158.4999999999999147
 30
0.0
 40
1.45
  0
CIRCLE
  5
12F
100
AcDbEntity
100
AcDbCircle
  8
Insulator Retainer
 62
256
370
-1
  6
ByLayer
 10
134.5634665205266174
 20
158.5000000000000284
 30
0.0
 40
1.45
  0
CIRCLE
  5
130
100
AcDbEntity
100
AcDbCircle
  8
Insulator Retainer
 62
256
370
-1
  6
ByLayer
 10
152.7499999999998295
 20
190.0
 30
0.0
 40
1.45
  0
CIRCLE
  5
131
100
AcDbEntity
100
AcDbCircle
  8
Insulator Retainer
 62
256
370
-1
  6
ByLayer
 10
165.1249999999998295
 20
169.0
 30
0.0
 40
1.45
  0
CIRCLE
  5
132
100
AcDbEntity
100
AcDbCircle
  8
Insulator Retainer
 62
256
370
-1
  6
ByLayer
 10
139.8749999999998295
 20
169.0
 30
0.0
 40
1.45
  0
ARC
  5
133
100
AcDbEntity
  8
Extruder Mount Plate
 62
256
370
-1
  6
ByLayer
100
AcDbCircle
 10
297.5
 20
225.4999999999998863
 30
0.0
 40
25.3999999999999986
100
AcDbArc
 50
227.2618831379347739
 51
140.5360035912185026
  0
ARC
  5
134
100
AcDbEntity
  8
Extruder Mount Plate
 62
256
370
-1
  6
ByLayer
100
AcDbCircle
 10
273.4758454883423724
 20
199.4999999999999432
 30
0.0
 40
10.0
100
AcDbArc
 50
47.2618831379348379
 51
89.9999999999999858
  0
ARC
  5
135
100
AcDbEntity
  8
Extruder Mount Plate
 62
256
370
-1
  6
ByLayer
100
AcDbCircle
 10
257.5000000000000568
 20
219.2499999999999716
 30
0.0
 40
2.4999999999999858
100
AcDbArc
 50
360.0
 51
180.0
  0
LINE
  5
136
100
AcDbEntity
100
AcDbLine
  8
Extruder Mount Plate
 62
256
370
-1
  6
ByLayer
 10
255.0000000000001705
 20
211.5000000000000568
 30
0.0
 11
255.0000000000001705
 21
219.2499999999999147
 31
0.0
  0
LINE
  5
137
100
AcDbEntity
100
AcDbLine
  8
Extruder Mount Plate
 62
256
370
-1
  6
ByLayer
 10
249.500000000000199
 20
209.5
 30
0.0
 11
253.0000000000001705
 21
209.4999999999999716
 31
0.0
  0
LINE
  5
138
100
AcDbEntity
100
AcDbLine
  8
Extruder Mount Plate
 62
256
370
-1
  6
ByLayer
 10
247.5000000000001705
 20
219.25
 30
0.0
 11
247.5000000000001705
 21
211.5000000000000568
 31
0.0
  0
ARC
  5
139
100
AcDbEntity
  8
Extruder Mount Plate
 62
256
370
-1
  6
ByLayer
100
AcDbCircle
 10
245.0000000000001705
 20
219.2499999999999716
 30
0.0
 40
2.4999999999999858
100
AcDbArc
 50
360.0
 51
180.0
  0
LINE
  5
13A
100
AcDbEntity
100
AcDbLine
  8
Extruder Mount Plate
 62
256
370
-1
  6
ByLayer
 10
242.5000000000002274
 20
211.5000000000001137
 30
0.0
 11
242.5000000000001705
 21
219.2499999999999716
 31
0.0
  0
LINE
  5
13B
100
AcDbEntity
100
AcDbLine
  8
Extruder Mount Plate
 62
256
370
-1
  6
ByLayer
 10
213.6000000000003922
 20
209.5
 30
0.0
 11
217.100000000000307
 21
209.4999999999999716
 31
0.0
  0
LINE
  5
13C
100
AcDbEntity
100
AcDbLine
  8
Extruder Mount Plate
 62
256
370
-1
  6
ByLayer
 10
211.6000000000003638
 20
219.2500000000000568
 30
0.0
 11
211.6000000000003922
 21
211.5000000000001705
 31
0.0
  0
ARC
  5
13D
100
AcDbEntity
  8
Extruder Mount Plate
 62
256
370
-1
  6
ByLayer
100
AcDbCircle
 10
209.1000000000003354
 20
219.2499999999999716
 30
0.0
 40
2.4999999999999858
100
AcDbArc
 50
360.0
 51
180.0
  0
LINE
  5
13E
100
AcDbEntity
100
AcDbLine
  8
Extruder Mount Plate
 62
256
370
-1
  6
ByLayer
 10
206.6000000000003638
 20
211.5000000000001137
 30
0.0
 11
206.6000000000003638
 21
219.25
 31
0.0
  0
LINE
  5
13F
100
AcDbEntity
100
AcDbLine
  8
Extruder Mount Plate
 62
256
370
-1
  6
ByLayer
 10
198.6000000000004491
 20
209.4999999999999716
 30
0.0
 11
204.6000000000003638
 21
209.5
 31
0.0
  0
ARC
  5
140
100
AcDbEntity
  8
Extruder Mount Plate
 62
256
370
-1
  6
ByLayer
100
AcDbCircle
 10
253.0000000000001705
 20
211.5000000000001137
 30
0.0
 40
1.999999999999996
100
AcDbArc
 50
270.0
 51
360.0
  0
ARC
  5
141
100
AcDbEntity
  8
Extruder Mount Plate
 62
256
370
-1
  6
ByLayer
100
AcDbCircle
 10
249.5000000000001705
 20
211.4999999999999432
 30
0.0
 40
1.999999999999986
100
AcDbArc
 50
180.0
 51
270.0
  0
ARC
  5
142
100
AcDbEntity
  8
Extruder Mount Plate
 62
256
370
-1
  6
ByLayer
100
AcDbCircle
 10
240.5000000000001705
 20
211.4999999999999432
 30
0.0
 40
1.999999999999984
100
AcDbArc
 50
270.0
 51
360.0
  0
ARC
  5
143
100
AcDbEntity
  8
Extruder Mount Plate
 62
256
370
-1
  6
ByLayer
100
AcDbCircle
 10
213.6000000000003922
 20
211.5000000000001137
 30
0.0
 40
2.0
100
AcDbArc
 50
180.0
 51
270.0
  0
ARC
  5
144
100
AcDbEntity
  8
Extruder Mount Plate
 62
256
370
-1
  6
ByLayer
100
AcDbCircle
 10
204.6000000000003638
 20
211.5
 30
0.0
 40
1.999999999999982
100
AcDbArc
 50
270.0
 51
360.0
  0
ARC
  5
145
100
AcDbEntity
  8
Extruder Mount Plate
 62
256
370
-1
  6
ByLayer
100
AcDbCircle
 10
198.6000000000004775
 20
211.5
 30
0.0
 40
1.999999999999982
100
AcDbArc
 50
180.0
 51
270.0
  0
LINE
  5
146
100
AcDbEntity
100
AcDbLine
  8
Extruder Mount Plate
 62
256
370
-1
  6
ByLayer
 10
227.100000000000307
 20
209.5
 30
0.0
 11
240.5000000000001705
 21
209.4999999999999716
 31
0.0
  0
LINE
  5
147
100
AcDbEntity
100
AcDbLine
  8
Extruder Mount Plate
 62
256
370
-1
  6
ByLayer
 10
219.1000000000004206
 20
211.5000000000000853
 30
0.0
 11
219.1000000000003922
 21
219.25
 31
0.0
  0
ARC
  5
148
100
AcDbEntity
  8
Extruder Mount Plate
 62
256
370
-1
  6
ByLayer
100
AcDbCircle
 10
217.1000000000003922
 20
211.4999999999999716
 30
0.0
 40
1.999999999999978
100
AcDbArc
 50
270.0
 51
360.0
  0
LINE
  5
149
100
AcDbEntity
100
AcDbLine
  8
Extruder Mount Plate
 62
256
370
-1
  6
ByLayer
 10
225.100000000000307
 20
219.2499999999999432
 30
0.0
 11
225.100000000000307
 21
211.5
 31
0.0
  0
ARC
  5
14A
100
AcDbEntity
  8
Extruder Mount Plate
 62
256
370
-1
  6
ByLayer
100
AcDbCircle
 10
227.100000000000307
 20
211.4999999999999432
 30
0.0
 40
2.0
100
AcDbArc
 50
180.0
 51
270.0
  0
ARC
  5
14B
100
AcDbEntity
  8
Extruder Mount Plate
 62
256
370
-1
  6
ByLayer
100
AcDbCircle
 10
222.100000000000307
 20
219.2500000000000284
 30
0.0
 40
3.0
100
AcDbArc
 50
360.0
 51
180.0
  0
LINE
  5
14C
100
AcDbEntity
100
AcDbLine
  8
Extruder Mount Plate
 62
256
370
-1
  6
ByLayer
 10
260.0000000000000568
 20
219.2499999999999432
 30
0.0
 11
260.0000000000001137
 21
211.4999999999999432
 31
0.0
  0
ARC
  5
14D
100
AcDbEntity
  8
Extruder Mount Plate
 62
256
370
-1
  6
ByLayer
100
AcDbCircle
 10
262.0000000000001137
 20
211.4999999999999147
 30
0.0
 40
2.0
100
AcDbArc
 50
180.0
 51
270.0
  0
LINE
  5
14E
100
AcDbEntity
100
AcDbLine
  8
Extruder Mount Plate
 62
256
370
-1
  6
ByLayer
 10
196.6000000000003638
 20
235.9999999999999147
 30
0.0
 11
196.6000000000003638
 21
211.5000000000001421
 31
0.0
  0
ARC
  5
14F
100
AcDbEntity
  8
Extruder Mount Plate
 62
256
370
-1
  6
ByLayer
100
AcDbCircle
 10
198.6000000000003638
 20
235.9999999999998579
 30
0.0
 40
2.0
100
AcDbArc
 50
89.9999999999999858
 51
180.0
  0
ARC
  5
150
100
AcDbEntity
  8
Extruder Mount Plate
 62
256
370
-1
  6
ByLayer
100
AcDbCircle
 10
270.1703457760621063
 20
247.9999999999996874
 30
0.0
 40
10.0
100
AcDbArc
 50
270.0
 51
320.5360035912185026
  0
LINE
  5
151
100
AcDbEntity
100
AcDbLine
  8
Extruder Mount Plate
 62
256
370
-1
  6
ByLayer
 10
198.6000000000003638
 20
237.9999999999998863
 30
0.0
 11
270.1703457760621063
 21
237.9999999999999147
 31
0.0
  0
LINE
  5
152
100
AcDbEntity
100
AcDbLine
  8
Extruder Mount Plate
 62
256
370
-1
  6
ByLayer
 10
273.4758454883423724
 20
209.5
 30
0.0
 11
262.0000000000001137
 21
209.4999999999999432
 31
0.0
  0
CIRCLE
  5
153
100
AcDbEntity
100
AcDbCircle
  8
Extruder Mount Plate
 62
256
370
-1
  6
ByLayer
 10
279.3134665205267879
 20
236.0000000000001137
 30
0.0
 40
1.45
  0
CIRCLE
  5
154
100
AcDbEntity
100
AcDbCircle
  8
Extruder Mount Plate
 62
256
370
-1
  6
ByLayer
 10
315.6865334794732121
 20
235.999999999999801
 30
0.0
 40
1.45
  0
CIRCLE
  5
155
100
AcDbEntity
100
AcDbCircle
  8
Extruder Mount Plate
 62
256
370
-1
  6
ByLayer
 10
297.5
 20
204.5
 30
0.0
 40
1.45
  0
MTEXT
  5
156
100
AcDbEntity
100
AcDbMText
  8
Extruder Mount Plate Text
 62
256
370
-1
  6
ByLayer
 10
233.5
 20
233.899999999999693
 30
0.0
 40
3.0
 41
100.0
 71
5
 72
2
  1
Extruder\~Mount\~Plate
  7
standard
 50
360.0
 73
1
 44
1.0
  0
CIRCLE
  5
157
100
AcDbEntity
100
AcDbCircle
  8
Extruder Mount Plate
 62
256
370
-1
  6
ByLayer
 10
285.125
 20
225.4999999999999716
 30
0.0
 40
1.45
  0
CIRCLE
  5
158
100
AcDbEntity
100
AcDbCircle
  8
Extruder Mount Plate
 62
256
370
-1
  6
ByLayer
 10
310.375
 20
225.4999999999998295
 30
0.0
 40
1.45
  0
CIRCLE
  5
159
100
AcDbEntity
100
AcDbCircle
  8
Extruder Mount Plate
 62
256
370
-1
  6
ByLayer
 10
297.5
 20
225.4999999999998863
 30
0.0
 40
2.0
  0
ARC
  5
15A
100
AcDbEntity
  8
Insulator Retainer
 62
256
370
-1
  6
ByLayer
100
AcDbCircle
 10
167.5
 20
225.5
 30
0.0
 40
25.3999999999999986
100
AcDbArc
 50
227.2618831379347739
 51
140.5360035912185026
  0
ARC
  5
15B
100
AcDbEntity
  8
Insulator Retainer
 62
256
370
-1
  6
ByLayer
100
AcDbCircle
 10
143.4758454883423724
 20
199.4999999999999716
 30
0.0
 40
10.0
100
AcDbArc
 50
47.2618831379348379
 51
89.9999999999999858
  0
ARC
  5
15C
100
AcDbEntity
  8
Insulator Retainer
 62
256
370
-1
  6
ByLayer
100
AcDbCircle
 10
127.5000000000000853
 20
219.25
 30
0.0
 40
2.4999999999999858
100
AcDbArc
 50
360.0
 51
180.0
  0
LINE
  5
15D
100
AcDbEntity
100
AcDbLine
  8
Insulator Retainer
 62
256
370
-1
  6
ByLayer
 10
125.000000000000199
 20
211.5000000000001137
 30
0.0
 11
125.000000000000199
 21
219.25
 31
0.0
  0
LINE
  5
15E
100
AcDbEntity
100
AcDbLine
  8
Insulator Retainer
 62
256
370
-1
  6
ByLayer
 10
119.5000000000001847
 20
209.5
 30
0.0
 11
123.0000000000001705
 21
209.5
 31
0.0
  0
LINE
  5
15F
100
AcDbEntity
100
AcDbLine
  8
Insulator Retainer
 62
256
370
-1
  6
ByLayer
 10
117.500000000000199
 20
219.2500000000000284
 30
0.0
 11
117.5000000000001705
 21
211.5000000000001137
 31
0.0
  0
ARC
  5
160
100
AcDbEntity
  8
Insulator Retainer
 62
256
370
-1
  6
ByLayer
100
AcDbCircle
 10
115.0000000000001421
 20
219.2500000000000284
 30
0.0
 40
2.4999999999999858
100
AcDbArc
 50
360.0
 51
180.0
  0
LINE
  5
161
100
AcDbEntity
100
AcDbLine
  8
Insulator Retainer
 62
256
370
-1
  6
ByLayer
 10
112.500000000000199
 20
211.5000000000001137
 30
0.0
 11
112.5000000000001421
 21
219.2500000000000284
 31
0.0
  0
LINE
  5
162
100
AcDbEntity
100
AcDbLine
  8
Insulator Retainer
 62
256
370
-1
  6
ByLayer
 10
83.6000000000003922
 20
209.5000000000000284
 30
0.0
 11
87.1000000000002927
 21
209.5000000000000284
 31
0.0
  0
LINE
  5
163
100
AcDbEntity
100
AcDbLine
  8
Insulator Retainer
 62
256
370
-1
  6
ByLayer
 10
81.6000000000003638
 20
219.25
 30
0.0
 11
81.6000000000004206
 21
211.5000000000000853
 31
0.0
  0
ARC
  5
164
100
AcDbEntity
  8
Insulator Retainer
 62
256
370
-1
  6
ByLayer
100
AcDbCircle
 10
79.1000000000003496
 20
219.2500000000000284
 30
0.0
 40
2.4999999999999858
100
AcDbArc
 50
360.0
 51
180.0
  0
LINE
  5
165
100
AcDbEntity
100
AcDbLine
  8
Insulator Retainer
 62
256
370
-1
  6
ByLayer
 10
76.6000000000003496
 20
211.5000000000001421
 30
0.0
 11
76.6000000000003496
 21
219.25
 31
0.0
  0
LINE
  5
166
100
AcDbEntity
100
AcDbLine
  8
Insulator Retainer
 62
256
370
-1
  6
ByLayer
 10
68.6000000000004633
 20
209.4999999999999432
 30
0.0
 11
74.6000000000003354
 21
209.5000000000000568
 31
0.0
  0
ARC
  5
167
100
AcDbEntity
  8
Insulator Retainer
 62
256
370
-1
  6
ByLayer
100
AcDbCircle
 10
123.000000000000199
 20
211.5000000000001137
 30
0.0
 40
1.999999999999996
100
AcDbArc
 50
270.0
 51
360.0
  0
ARC
  5
168
100
AcDbEntity
  8
Insulator Retainer
 62
256
370
-1
  6
ByLayer
100
AcDbCircle
 10
119.500000000000199
 20
211.5
 30
0.0
 40
1.999999999999986
100
AcDbArc
 50
180.0
 51
270.0
  0
ARC
  5
169
100
AcDbEntity
  8
Insulator Retainer
 62
256
370
-1
  6
ByLayer
100
AcDbCircle
 10
110.5000000000001705
 20
211.5000000000000284
 30
0.0
 40
1.999999999999984
100
AcDbArc
 50
270.0
 51
360.0
  0
ARC
  5
16A
100
AcDbEntity
  8
Insulator Retainer
 62
256
370
-1
  6
ByLayer
100
AcDbCircle
 10
83.6000000000003638
 20
211.5000000000001705
 30
0.0
 40
2.0
100
AcDbArc
 50
180.0
 51
270.0
  0
ARC
  5
16B
100
AcDbEntity
  8
Insulator Retainer
 62
256
370
-1
  6
ByLayer
100
AcDbCircle
 10
74.6000000000003496
 20
211.5
 30
0.0
 40
1.999999999999982
100
AcDbArc
 50
270.0
 51
360.0
  0
ARC
  5
16C
100
AcDbEntity
  8
Insulator Retainer
 62
256
370
-1
  6
ByLayer
100
AcDbCircle
 10
68.6000000000004633
 20
211.5000000000000568
 30
0.0
 40
1.999999999999982
100
AcDbArc
 50
180.0
 51
270.0
  0
LINE
  5
16D
100
AcDbEntity
100
AcDbLine
  8
Insulator Retainer
 62
256
370
-1
  6
ByLayer
 10
97.1000000000002927
 20
209.5
 30
0.0
 11
110.5000000000002132
 21
209.5000000000000284
 31
0.0
  0
LINE
  5
16E
100
AcDbEntity
100
AcDbLine
  8
Insulator Retainer
 62
256
370
-1
  6
ByLayer
 10
89.1000000000004064
 20
211.5000000000001137
 30
0.0
 11
89.1000000000004064
 21
219.2500000000000568
 31
0.0
  0
ARC
  5
16F
100
AcDbEntity
  8
Insulator Retainer
 62
256
370
-1
  6
ByLayer
100
AcDbCircle
 10
87.1000000000004206
 20
211.5
 30
0.0
 40
1.999999999999978
100
AcDbArc
 50
270.0
 51
360.0
  0
LINE
  5
170
100
AcDbEntity
100
AcDbLine
  8
Insulator Retainer
 62
256
370
-1
  6
ByLayer
 10
95.1000000000002927
 20
219.2499999999999716
 30
0.0
 11
95.1000000000002927
 21
211.5
 31
0.0
  0
ARC
  5
171
100
AcDbEntity
  8
Insulator Retainer
 62
256
370
-1
  6
ByLayer
100
AcDbCircle
 10
97.100000000000307
 20
211.5
 30
0.0
 40
2.0
100
AcDbArc
 50
180.0
 51
270.0
  0
ARC
  5
172
100
AcDbEntity
  8
Insulator Retainer
 62
256
370
-1
  6
ByLayer
100
AcDbCircle
 10
92.1000000000002927
 20
219.2500000000000568
 30
0.0
 40
3.0
100
AcDbArc
 50
360.0
 51
180.0
  0
LINE
  5
173
100
AcDbEntity
100
AcDbLine
  8
Insulator Retainer
 62
256
370
-1
  6
ByLayer
 10
130.0000000000000853
 20
219.25
 30
0.0
 11
130.0000000000000568
 21
211.5
 31
0.0
  0
ARC
  5
174
100
AcDbEntity
  8
Insulator Retainer
 62
256
370
-1
  6
ByLayer
100
AcDbCircle
 10
132.0000000000000853
 20
211.4999999999999716
 30
0.0
 40
2.0
100
AcDbArc
 50
180.0
 51
270.0
  0
LINE
  5
175
100
AcDbEntity
100
AcDbLine
  8
Insulator Retainer
 62
256
370
-1
  6
ByLayer
 10
66.6000000000003638
 20
235.9999999999998579
 30
0.0
 11
66.6000000000003354
 21
211.5000000000001705
 31
0.0
  0
ARC
  5
176
100
AcDbEntity
  8
Insulator Retainer
 62
256
370
-1
  6
ByLayer
100
AcDbCircle
 10
68.6000000000003638
 20
235.9999999999997726
 30
0.0
 40
2.0
100
AcDbArc
 50
89.9999999999999858
 51
180.0
  0
ARC
  5
177
100
AcDbEntity
  8
Insulator Retainer
 62
256
370
-1
  6
ByLayer
100
AcDbCircle
 10
140.1703457760621063
 20
247.9999999999999147
 30
0.0
 40
10.0
100
AcDbArc
 50
270.0
 51
320.5360035912185026
  0
LINE
  5
178
100
AcDbEntity
100
AcDbLine
  8
Insulator Retainer
 62
256
370
-1
  6
ByLayer
 10
68.6000000000003638
 20
237.9999999999999147
 30
0.0
 11
140.1703457760621063
 21
237.9999999999998863
 31
0.0
  0
LINE
  5
179
100
AcDbEntity
100
AcDbLine
  8
Insulator Retainer
 62
256
370
-1
  6
ByLayer
 10
132.0000000000000853
 20
209.5
 30
0.0
 11
143.4758454883424008
 21
209.5
 31
0.0
  0
CIRCLE
  5
17A
100
AcDbEntity
100
AcDbCircle
  8
Insulator Retainer
 62
256
370
-1
  6
ByLayer
 10
167.5
 20
225.5
 30
0.0
 40
8.0
  0
MTEXT
  5
17B
100
AcDbEntity
100
AcDbMText
  8
Insulator Retainer Text
 62
256
370
-1
  6
ByLayer
 10
103.5
 20
228.8999999999997215
 30
0.0
 40
3.0
 41
100.0
 71
5
 72
2
  1
Insulator\~Retainer
  7
standard
 50
360.0
 73
1
 44
1.0
  0
CIRCLE
  5
17C
100
AcDbEntity
100
AcDbCircle
  8
Insulator Retainer
 62
256
370
-1
  6
ByLayer
 10
149.3134665205267879
 20
236.0000000000000568
 30
0.0
 40
1.45
  0
CIRCLE
  5
17D
100
AcDbEntity
100
AcDbCircle
  8
Insulator Retainer
 62
256
370
-1
  6
ByLayer
 10
185.6865334794732121
 20
235.9999999999999716
 30
0.0
 40
1.45
  0
CIRCLE
  5
17E
100
AcDbEntity
100
AcDbCircle
  8
Insulator Retainer
 62
256
370
-1
  6
ByLayer
 10
167.4999999999999716
 20
204.5
 30
0.0
 40
1.45
  0
CIRCLE
  5
17F
100
AcDbEntity
100
AcDbCircle
  8
Insulator Retainer
 62
256
370
-1
  6
ByLayer
 10
155.125
 20
225.5
 30
0.0
 40
1.45
  0
CIRCLE
  5
180
100
AcDbEntity
100
AcDbCircle
  8
Insulator Retainer
 62
256
370
-1
  6
ByLayer
 10
180.375
 20
225.4999999999999716
 30
0.0
 40
1.45
  0
ARC
  5
181
100
AcDbEntity
  8
Extruder Mount Plate
 62
256
370
-1
  6
ByLayer
100
AcDbCircle
 10
22.5
 20
274.5000000000000568
 30
0.0
 40
25.3999999999999986
100
AcDbArc
 50
47.2618831379347526
 51
320.5360035912185026
  0
ARC
  5
182
100
AcDbEntity
  8
Extruder Mount Plate
 62
256
370
-1
  6
ByLayer
100
AcDbCircle
 10
46.5241545116576276
 20
300.5000000000000568
 30
0.0
 40
10.0
100
AcDbArc
 50
227.2618831379348308
 51
270.0
  0
ARC
  5
183
100
AcDbEntity
  8
Extruder Mount Plate
 62
256
370
-1
  6
ByLayer
100
AcDbCircle
 10
62.4999999999999432
 20
280.7500000000001137
 30
0.0
 40
2.4999999999999858
100
AcDbArc
 50
180.0
 51
360.0
  0
LINE
  5
184
100
AcDbEntity
100
AcDbLine
  8
Extruder Mount Plate
 62
256
370
-1
  6
ByLayer
 10
64.9999999999998153
 20
288.4999999999999432
 30
0.0
 11
64.999999999999801
 21
280.7499999999998863
 31
0.0
  0
LINE
  5
185
100
AcDbEntity
100
AcDbLine
  8
Extruder Mount Plate
 62
256
370
-1
  6
ByLayer
 10
70.4999999999997868
 20
290.5
 30
0.0
 11
66.9999999999998153
 21
290.5000000000000568
 31
0.0
  0
LINE
  5
186
100
AcDbEntity
100
AcDbLine
  8
Extruder Mount Plate
 62
256
370
-1
  6
ByLayer
 10
72.499999999999801
 20
280.75
 30
0.0
 11
72.4999999999998437
 21
288.4999999999999432
 31
0.0
  0
ARC
  5
187
100
AcDbEntity
  8
Extruder Mount Plate
 62
256
370
-1
  6
ByLayer
100
AcDbCircle
 10
74.9999999999998153
 20
280.7499999999999432
 30
0.0
 40
2.4999999999999858
100
AcDbArc
 50
180.0
 51
360.0
  0
LINE
  5
188
100
AcDbEntity
100
AcDbLine
  8
Extruder Mount Plate
 62
256
370
-1
  6
ByLayer
 10
77.4999999999997726
 20
288.4999999999999432
 30
0.0
 11
77.4999999999998295
 21
280.7499999999998295
 31
0.0
  0
LINE
  5
189
100
AcDbEntity
100
AcDbLine
  8
Extruder Mount Plate
 62
256
370
-1
  6
ByLayer
 10
106.3999999999995794
 20
290.5
 30
0.0
 11
102.899999999999693
 21
290.5000000000000568
 31
0.0
  0
LINE
  5
18A
100
AcDbEntity
100
AcDbLine
  8
Extruder Mount Plate
 62
256
370
-1
  6
ByLayer
 10
108.3999999999996362
 20
280.75
 30
0.0
 11
108.3999999999996078
 21
288.4999999999998863
 31
0.0
  0
ARC
  5
18B
100
AcDbEntity
  8
Extruder Mount Plate
 62
256
370
-1
  6
ByLayer
100
AcDbCircle
 10
110.8999999999996362
 20
280.75
 30
0.0
 40
2.4999999999999858
100
AcDbArc
 50
180.0
 51
360.0
  0
LINE
  5
18C
100
AcDbEntity
100
AcDbLine
  8
Extruder Mount Plate
 62
256
370
-1
  6
ByLayer
 10
113.3999999999996504
 20
288.4999999999998863
 30
0.0
 11
113.3999999999996362
 21
280.75
 31
0.0
  0
LINE
  5
18D
100
AcDbEntity
100
AcDbLine
  8
Extruder Mount Plate
 62
256
370
-1
  6
ByLayer
 10
121.3999999999995225
 20
290.5
 30
0.0
 11
115.3999999999996504
 21
290.5000000000000568
 31
0.0
  0
ARC
  5
18E
100
AcDbEntity
  8
Extruder Mount Plate
 62
256
370
-1
  6
ByLayer
100
AcDbCircle
 10
66.9999999999998153
 20
288.4999999999998295
 30
0.0
 40
1.999999999999996
100
AcDbArc
 50
90.0
 51
180.0
  0
ARC
  5
18F
100
AcDbEntity
  8
Extruder Mount Plate
 62
256
370
-1
  6
ByLayer
100
AcDbCircle
 10
70.4999999999998153
 20
288.5000000000001137
 30
0.0
 40
1.999999999999986
100
AcDbArc
 50
360.0
 51
90.0
  0
ARC
  5
190
100
AcDbEntity
  8
Extruder Mount Plate
 62
256
370
-1
  6
ByLayer
100
AcDbCircle
 10
79.4999999999998153
 20
288.5000000000001137
 30
0.0
 40
1.999999999999984
100
AcDbArc
 50
90.0
 51
180.0
  0
ARC
  5
191
100
AcDbEntity
  8
Extruder Mount Plate
 62
256
370
-1
  6
ByLayer
100
AcDbCircle
 10
106.3999999999996078
 20
288.4999999999998863
 30
0.0
 40
2.0
100
AcDbArc
 50
360.0
 51
90.0
  0
ARC
  5
192
100
AcDbEntity
  8
Extruder Mount Plate
 62
256
370
-1
  6
ByLayer
100
AcDbCircle
 10
115.3999999999996646
 20
288.5000000000000568
 30
0.0
 40
1.999999999999982
100
AcDbArc
 50
90.0
 51
180.0
  0
ARC
  5
193
100
AcDbEntity
  8
Extruder Mount Plate
 62
256
370
-1
  6
ByLayer
100
AcDbCircle
 10
121.3999999999995225
 20
288.5
 30
0.0
 40
1.999999999999982
100
AcDbArc
 50
360.0
 51
90.0
  0
LINE
  5
194
100
AcDbEntity
100
AcDbLine
  8
Extruder Mount Plate
 62
256
370
-1
  6
ByLayer
 10
92.8999999999997073
 20
290.5000000000000568
 30
0.0
 11
79.4999999999998295
 21
290.4999999999998863
 31
0.0
  0
LINE
  5
195
100
AcDbEntity
100
AcDbLine
  8
Extruder Mount Plate
 62
256
370
-1
  6
ByLayer
 10
100.8999999999995936
 20
288.5
 30
0.0
 11
100.8999999999995794
 21
280.75
 31
0.0
  0
ARC
  5
196
100
AcDbEntity
  8
Extruder Mount Plate
 62
256
370
-1
  6
ByLayer
100
AcDbCircle
 10
102.8999999999995794
 20
288.5
 30
0.0
 40
1.999999999999978
100
AcDbArc
 50
90.0
 51
180.0
  0
LINE
  5
197
100
AcDbEntity
100
AcDbLine
  8
Extruder Mount Plate
 62
256
370
-1
  6
ByLayer
 10
94.899999999999693
 20
280.75
 30
0.0
 11
94.8999999999997073
 21
288.5
 31
0.0
  0
ARC
  5
198
100
AcDbEntity
  8
Extruder Mount Plate
 62
256
370
-1
  6
ByLayer
100
AcDbCircle
 10
92.899999999999693
 20
288.5000000000001137
 30
0.0
 40
2.0
100
AcDbArc
 50
360.0
 51
90.0
  0
ARC
  5
199
100
AcDbEntity
  8
Extruder Mount Plate
 62
256
370
-1
  6
ByLayer
100
AcDbCircle
 10
97.899999999999693
 20
280.75
 30
0.0
 40
3.0
100
AcDbArc
 50
180.0
 51
360.0
  0
LINE
  5
19A
100
AcDbEntity
100
AcDbLine
  8
Extruder Mount Plate
 62
256
370
-1
  6
ByLayer
 10
59.9999999999999289
 20
280.7500000000001705
 30
0.0
 11
59.9999999999999005
 21
288.5000000000001705
 31
0.0
  0
ARC
  5
19B
100
AcDbEntity
  8
Extruder Mount Plate
 62
256
370
-1
  6
ByLayer
100
AcDbCircle
 10
57.9999999999998863
 20
288.5
 30
0.0
 40
2.0
100
AcDbArc
 50
360.0
 51
90.0
  0
LINE
  5
19C
100
AcDbEntity
100
AcDbLine
  8
Extruder Mount Plate
 62
256
370
-1
  6
ByLayer
 10
123.3999999999996362
 20
264.0000000000001137
 30
0.0
 11
123.3999999999996362
 21
288.4999999999998295
 31
0.0
  0
ARC
  5
19D
100
AcDbEntity
  8
Extruder Mount Plate
 62
256
370
-1
  6
ByLayer
100
AcDbCircle
 10
121.3999999999996362
 20
264.0000000000001137
 30
0.0
 40
2.0
100
AcDbArc
 50
270.0
 51
360.0
  0
ARC
  5
19E
100
AcDbEntity
  8
Extruder Mount Plate
 62
256
370
-1
  6
ByLayer
100
AcDbCircle
 10
49.8296542239378937
 20
252.0000000000002842
 30
0.0
 40
10.0
100
AcDbArc
 50
90.0
 51
140.5360035912185026
  0
LINE
  5
19F
100
AcDbEntity
100
AcDbLine
  8
Extruder Mount Plate
 62
256
370
-1
  6
ByLayer
 10
121.3999999999996362
 20
262.0000000000001137
 30
0.0
 11
49.8296542239378937
 21
262.0000000000001705
 31
0.0
  0
LINE
  5
1A0
100
AcDbEntity
100
AcDbLine
  8
Extruder Mount Plate
 62
256
370
-1
  6
ByLayer
 10
46.5241545116576418
 20
290.5000000000000568
 30
0.0
 11
57.9999999999999005
 21
290.5000000000000568
 31
0.0
  0
CIRCLE
  5
1A1
100
AcDbEntity
100
AcDbCircle
  8
Extruder Mount Plate
 62
256
370
-1
  6
ByLayer
 10
40.6865334794732121
 20
264.0000000000000568
 30
0.0
 40
1.45
  0
CIRCLE
  5
1A2
100
AcDbEntity
100
AcDbCircle
  8
Extruder Mount Plate
 62
256
370
-1
  6
ByLayer
 10
4.3134665205267879
 20
264.0000000000001137
 30
0.0
 40
1.45
  0
CIRCLE
  5
1A3
100
AcDbEntity
100
AcDbCircle
  8
Extruder Mount Plate
 62
256
370
-1
  6
ByLayer
 10
22.5
 20
295.5000000000000568
 30
0.0
 40
1.45
  0
MTEXT
  5
1A4
100
AcDbEntity
100
AcDbMText
  8
Extruder Mount Plate Text
 62
256
370
-1
  6
ByLayer
 10
86.5
 20
266.1000000000001933
 30
0.0
 40
3.0
 41
100.0
 71
5
 72
2
  1
Extruder\~Mount\~Plate
  7
standard
 50
180.0
 73
1
 44
1.0
  0
CIRCLE
  5
1A5
100
AcDbEntity
100
AcDbCircle
  8
Extruder Mount Plate
 62
256
370
-1
  6
ByLayer
 10
34.875
 20
274.5000000000000568
 30
0.0
 40
1.45
  0
CIRCLE
  5
1A6
100
AcDbEntity
100
AcDbCircle
  8
Extruder Mount Plate
 62
256
370
-1
  6
ByLayer
 10
9.625
 20
274.5000000000001137
 30
0.0
 40
1.45
  0
CIRCLE
  5
1A7
100
AcDbEntity
100
AcDbCircle
  8
Extruder Mount Plate
 62
256
370
-1
  6
ByLayer
 10
22.5
 20
274.5000000000000568
 30
0.0
 40
2.0
  0
ARC
  5
1A8
100
AcDbEntity
  8
Insulator Retainer
 62
256
370
-1
  6
ByLayer
100
AcDbCircle
 10
152.5
 20
274.5
 30
0.0
 40
25.3999999999999986
100
AcDbArc
 50
47.2618831379347526
 51
320.5360035912185026
  0
ARC
  5
1A9
100
AcDbEntity
  8
Insulator Retainer
 62
256
370
-1
  6
ByLayer
100
AcDbCircle
 10
176.524154511657656
 20
300.5
 30
0.0
 40
10.0
100
AcDbArc
 50
227.2618831379348308
 51
270.0
  0
ARC
  5
1AA
100
AcDbEntity
  8
Insulator Retainer
 62
256
370
-1
  6
ByLayer
100
AcDbCircle
 10
192.4999999999999147
 20
280.7500000000000568
 30
0.0
 40
2.4999999999999858
100
AcDbArc
 50
180.0
 51
360.0
  0
LINE
  5
1AB
100
AcDbEntity
100
AcDbLine
  8
Insulator Retainer
 62
256
370
-1
  6
ByLayer
 10
194.9999999999998295
 20
288.4999999999998295
 30
0.0
 11
194.999999999999801
 21
280.7499999999999432
 31
0.0
  0
LINE
  5
1AC
100
AcDbEntity
100
AcDbLine
  8
Insulator Retainer
 62
256
370
-1
  6
ByLayer
 10
200.499999999999801
 20
290.5
 30
0.0
 11
196.9999999999998295
 21
290.4999999999999432
 31
0.0
  0
LINE
  5
1AD
100
AcDbEntity
100
AcDbLine
  8
Insulator Retainer
 62
256
370
-1
  6
ByLayer
 10
202.4999999999997726
 20
280.75
 30
0.0
 11
202.4999999999998295
 21
288.4999999999998863
 31
0.0
  0
ARC
  5
1AE
100
AcDbEntity
  8
Insulator Retainer
 62
256
370
-1
  6
ByLayer
100
AcDbCircle
 10
204.9999999999998295
 20
280.75
 30
0.0
 40
2.4999999999999858
100
AcDbArc
 50
180.0
 51
360.0
  0
LINE
  5
1AF
100
AcDbEntity
100
AcDbLine
  8
Insulator Retainer
 62
256
370
-1
  6
ByLayer
 10
207.4999999999997726
 20
288.4999999999997726
 30
0.0
 11
207.4999999999998579
 21
280.7499999999999432
 31
0.0
  0
LINE
  5
1B0
100
AcDbEntity
100
AcDbLine
  8
Insulator Retainer
 62
256
370
-1
  6
ByLayer
 10
236.3999999999996078
 20
290.4999999999998863
 30
0.0
 11
232.899999999999693
 21
290.5000000000000568
 31
0.0
  0
LINE
  5
1B1
100
AcDbEntity
100
AcDbLine
  8
Insulator Retainer
 62
256
370
-1
  6
ByLayer
 10
238.3999999999996362
 20
280.7499999999998863
 30
0.0
 11
238.3999999999995794
 21
288.4999999999998295
 31
0.0
  0
ARC
  5
1B2
100
AcDbEntity
  8
Insulator Retainer
 62
256
370
-1
  6
ByLayer
100
AcDbCircle
 10
240.8999999999996362
 20
280.7500000000001705
 30
0.0
 40
2.4999999999999858
100
AcDbArc
 50
180.0
 51
360.0
  0
LINE
  5
1B3
100
AcDbEntity
100
AcDbLine
  8
Insulator Retainer
 62
256
370
-1
  6
ByLayer
 10
243.3999999999996362
 20
288.4999999999997726
 30
0.0
 11
243.3999999999996362
 21
280.7500000000002274
 31
0.0
  0
LINE
  5
1B4
100
AcDbEntity
100
AcDbLine
  8
Insulator Retainer
 62
256
370
-1
  6
ByLayer
 10
251.3999999999995225
 20
290.5000000000001705
 30
0.0
 11
245.399999999999693
 21
290.4999999999997726
 31
0.0
  0
ARC
  5
1B5
100
AcDbEntity
  8
Insulator Retainer
 62
256
370
-1
  6
ByLayer
100
AcDbCircle
 10
196.999999999999801
 20
288.4999999999998863
 30
0.0
 40
1.999999999999996
100
AcDbArc
 50
90.0
 51
180.0
  0
ARC
  5
1B6
100
AcDbEntity
  8
Insulator Retainer
 62
256
370
-1
  6
ByLayer
100
AcDbCircle
 10
200.499999999999801
 20
288.4999999999999432
 30
0.0
 40
1.999999999999986
100
AcDbArc
 50
360.0
 51
90.0
  0
ARC
  5
1B7
100
AcDbEntity
  8
Insulator Retainer
 62
256
370
-1
  6
ByLayer
100
AcDbCircle
 10
209.4999999999998295
 20
288.4999999999998295
 30
0.0
 40
1.999999999999984
100
AcDbArc
 50
90.0
 51
180.0
  0
ARC
  5
1B8
100
AcDbEntity
  8
Insulator Retainer
 62
256
370
-1
  6
ByLayer
100
AcDbCircle
 10
236.3999999999996078
 20
288.4999999999998295
 30
0.0
 40
2.0
100
AcDbArc
 50
360.0
 51
90.0
  0
ARC
  5
1B9
100
AcDbEntity
  8
Insulator Retainer
 62
256
370
-1
  6
ByLayer
100
AcDbCircle
 10
245.3999999999996646
 20
288.4999999999999432
 30
0.0
 40
1.999999999999982
100
AcDbArc
 50
90.0
 51
180.0
  0
ARC
  5
1BA
100
AcDbEntity
  8
Insulator Retainer
 62
256
370
-1
  6
ByLayer
100
AcDbCircle
 10
251.3999999999995225
 20
288.4999999999999432
 30
0.0
 40
1.999999999999982
100
AcDbArc
 50
360.0
 51
90.0
  0
LINE
  5
1BB
100
AcDbEntity
100
AcDbLine
  8
Insulator Retainer
 62
256
370
-1
  6
ByLayer
 10
222.899999999999693
 20
290.5000000000001137
 30
0.0
 11
209.4999999999997726
 21
290.5
 31
0.0
  0
LINE
  5
1BC
100
AcDbEntity
100
AcDbLine
  8
Insulator Retainer
 62
256
370
-1
  6
ByLayer
 10
230.8999999999995794
 20
288.5
 30
0.0
 11
230.8999999999995794
 21
280.75
 31
0.0
  0
ARC
  5
1BD
100
AcDbEntity
  8
Insulator Retainer
 62
256
370
-1
  6
ByLayer
100
AcDbCircle
 10
232.8999999999995794
 20
288.4999999999999432
 30
0.0
 40
1.999999999999978
100
AcDbArc
 50
90.0
 51
180.0
  0
LINE
  5
1BE
100
AcDbEntity
100
AcDbLine
  8
Insulator Retainer
 62
256
370
-1
  6
ByLayer
 10
224.899999999999693
 20
280.7499999999999432
 30
0.0
 11
224.899999999999693
 21
288.4999999999999432
 31
0.0
  0
ARC
  5
1BF
100
AcDbEntity
  8
Insulator Retainer
 62
256
370
-1
  6
ByLayer
100
AcDbCircle
 10
222.8999999999997215
 20
288.4999999999998863
 30
0.0
 40
2.0
100
AcDbArc
 50
360.0
 51
90.0
  0
ARC
  5
1C0
100
AcDbEntity
  8
Insulator Retainer
 62
256
370
-1
  6
ByLayer
100
AcDbCircle
 10
227.899999999999693
 20
280.7499999999999432
 30
0.0
 40
3.0
100
AcDbArc
 50
180.0
 51
360.0
  0
LINE
  5
1C1
100
AcDbEntity
100
AcDbLine
  8
Insulator Retainer
 62
256
370
-1
  6
ByLayer
 10
189.9999999999999147
 20
280.7499999999999432
 30
0.0
 11
189.9999999999999147
 21
288.5
 31
0.0
  0
ARC
  5
1C2
100
AcDbEntity
  8
Insulator Retainer
 62
256
370
-1
  6
ByLayer
100
AcDbCircle
 10
187.9999999999999147
 20
288.5000000000000568
 30
0.0
 40
2.0
100
AcDbArc
 50
360.0
 51
90.0
  0
LINE
  5
1C3
100
AcDbEntity
100
AcDbLine
  8
Insulator Retainer
 62
256
370
-1
  6
ByLayer
 10
253.3999999999996362
 20
263.9999999999999432
 30
0.0
 11
253.3999999999996362
 21
288.4999999999998863
 31
0.0
  0
ARC
  5
1C4
100
AcDbEntity
  8
Insulator Retainer
 62
256
370
-1
  6
ByLayer
100
AcDbCircle
 10
251.3999999999996362
 20
264.0000000000001137
 30
0.0
 40
2.0
100
AcDbArc
 50
270.0
 51
360.0
  0
ARC
  5
1C5
100
AcDbEntity
  8
Insulator Retainer
 62
256
370
-1
  6
ByLayer
100
AcDbCircle
 10
179.8296542239378937
 20
252.0000000000000568
 30
0.0
 40
10.0
100
AcDbArc
 50
90.0
 51
140.5360035912185026
  0
LINE
  5
1C6
100
AcDbEntity
100
AcDbLine
  8
Insulator Retainer
 62
256
370
-1
  6
ByLayer
 10
251.3999999999996362
 20
262.0000000000002274
 30
0.0
 11
179.8296542239378937
 21
262.0000000000000568
 31
0.0
  0
LINE
  5
1C7
100
AcDbEntity
100
AcDbLine
  8
Insulator Retainer
 62
256
370
-1
  6
ByLayer
 10
187.9999999999999147
 20
290.5
 30
0.0
 11
176.5241545116575992
 21
290.5
 31
0.0
  0
CIRCLE
  5
1C8
100
AcDbEntity
100
AcDbCircle
  8
Insulator Retainer
 62
256
370
-1
  6
ByLayer
 10
152.5
 20
274.5
 30
0.0
 40
8.0
  0
MTEXT
  5
1C9
100
AcDbEntity
100
AcDbMText
  8
Insulator Retainer Text
 62
256
370
-1
  6
ByLayer
 10
216.5
 20
271.1000000000001364
 30
0.0
 40
3.0
 41
100.0
 71
5
 72
2
  1
Insulator\~Retainer
  7
standard
 50
180.0
 73
1
 44
1.0
  0
CIRCLE
  5
1CA
100
AcDbEntity
100
AcDbCircle
  8
Insulator Retainer
 62
256
370
-1
  6
ByLayer
 10
170.6865334794732121
 20
263.9999999999999432
 30
0.0
 40
1.45
  0
CIRCLE
  5
1CB
100
AcDbEntity
100
AcDbCircle
  8
Insulator Retainer
 62
256
370
-1
  6
ByLayer
 10
134.3134665205267879
 20
264.0000000000000568
 30
0.0
 40
1.45
  0
CIRCLE
  5
1CC
100
AcDbEntity
100
AcDbCircle
  8
Insulator Retainer
 62
256
370
-1
  6
ByLayer
 10
152.5
 20
295.5
 30
0.0
 40
1.45
  0
CIRCLE
  5
1CD
100
AcDbEntity
100
AcDbCircle
  8
Insulator Retainer
 62
256
370
-1
  6
ByLayer
 10
164.875
 20
274.5
 30
0.0
 40
1.45
  0
CIRCLE
  5
1CE
100
AcDbEntity
100
AcDbCircle
  8
Insulator Retainer
 62
256
370
-1
  6
ByLayer
 10
139.625
 20
274.5
 30
0.0
 40
1.45
  0
ENDSEC
  0
SECTION
  2
OBJECTS
  0
DICTIONARY
  5
C
100
AcDbDictionary
280
0
281
1
  3
ACAD_GROUP
350
D
  3
ACAD_LAYOUT
350
1A
  3
ACAD_MLINESTYLE
350
17
  3
ACAD_PLOTSETTINGS
350
19
  3
ACAD_PLOTSTYLENAME
350
E
  3
AcDbVariableDictionary
350
1CF
  0
DICTIONARY
  5
D
100
AcDbDictionary
280
0
281
1
  0
ACDBDICTIONARYWDFLT
  5
E
100
AcDbDictionary
281
1
  3
Normal
350
F
100
AcDbDictionaryWithDefault
340
F
  0
ACDBPLACEHOLDER
  5
F
  0
DICTIONARY
  5
17
100
AcDbDictionary
280
0
281
1
  3
Standard
350
18
  0
MLINESTYLE
  5
18
100
AcDbMlineStyle
  2
STANDARD
 70
0
  3

 62
256
 51
90.0
 52
90.0
 71
2
 49
0.5
 62
256
  6
BYLAYER
 49
-0.5
 62
256
  6
BYLAYER
  0
DICTIONARY
  5
19
100
AcDbDictionary
280
0
281
1
  0
DICTIONARY
  5
1A
100
AcDbDictionary
281
1
  3
Layout1
350
1E
  3
Layout2
350
26
  3
Model
350
22
  0
LAYOUT
  5
1E
100
AcDbPlotSettings
  1

  2
C:\Program Files\AutoCAD 2002\plotters\DWF ePlot (optimized for plotting).pc3
  4

  6

 40
0.0
 41
0.0
 42
0.0
 43
0.0
 44
0.0
 45
0.0
 46
0.0
 47
0.0
 48
0.0
 49
0.0
140
0.0
141
0.0
142
1.0
143
1.0
 70
688
 72
0
 73
0
 74
5
  7

 75
16
147
1.0
148
0.0
149
0.0
100
AcDbLayout
  1
Layout1
 70
1
 71
1
 10
0.0
 20
0.0
 11
420.0
 21
297.0
 12
0.0
 22
0.0
 32
0.0
 14
100000000000000000000.0
 24
100000000000000000000.0
 34
100000000000000000000.0
 15
-100000000000000000000.0
 25
-100000000000000000000.0
 35
-100000000000000000000.0
146
0.0
 13
0.0
 23
0.0
 33
0.0
 16
1.0
 26
0.0
 36
0.0
 17
0.0
 27
1.0
 37
0.0
 76
0
330
1B
  0
LAYOUT
  5
22
100
AcDbPlotSettings
  1

  2
C:\Program Files\AutoCAD 2002\plotters\DWF ePlot (optimized for plotting).pc3
  4

  6

 40
0.0
 41
0.0
 42
0.0
 43
0.0
 44
0.0
 45
0.0
 46
0.0
 47
0.0
 48
0.0
 49
0.0
140
0.0
141
0.0
142
1.0
143
1.0
 70
1712
 72
0
 73
0
 74
0
  7

 75
0
147
1.0
148
0.0
149
0.0
100
AcDbLayout
  1
Model
 70
1
 71
0
 10
0.0
 20
0.0
 11
12.0
 21
9.0
 12
0.0
 22
0.0
 32
0.0
 14
0.0
 24
0.0
 34
0.0
 15
0.0
 25
0.0
 35
0.0
146
0.0
 13
0.0
 23
0.0
 33
0.0
 16
1.0
 26
0.0
 36
0.0
 17
0.0
 27
1.0
 37
0.0
 76
0
330
1F
  0
LAYOUT
  5
26
100
AcDbPlotSettings
  1

  2
C:\Program Files\AutoCAD 2002\plotters\DWF ePlot (optimized for plotting).pc3
  4

  6

 40
0.0
 41
0.0
 42
0.0
 43
0.0
 44
0.0
 45
0.0
 46
0.0
 47
0.0
 48
0.0
 49
0.0
140
0.0
141
0.0
142
1.0
143
1.0
 70
688
 72
0
 73
0
 74
5
  7

 75
16
147
1.0
148
0.0
149
0.0
100
AcDbLayout
  1
Layout2
 70
1
 71
2
 10
0.0
 20
0.0
 11
12.0
 21
9.0
 12
0.0
 22
0.0
 32
0.0
 14
0.0
 24
0.0
 34
0.0
 15
0.0
 25
0.0
 35
0.0
146
0.0
 13
0.0
 23
0.0
 33
0.0
 16
1.0
 26
0.0
 36
0.0
 17
0.0
 27
1.0
 37
0.0
 76
0
330
23
  0
DICTIONARY
  5
1CF
100
AcDbDictionary
281
1
  3
DIMASSOC
350
1D1
  3
HIDETEXT
350
1D0
  0
DICTIONARYVAR
  5
1D0
100
DictionaryVariables
280
0
  1
2
  0
DICTIONARYVAR
  5
1D1
100
DictionaryVariables
280
0
  1
1
  0
ENDSEC
  0
EOF
