999
dxflib 2.2.0.0
  0
SECTION
  2
HEADER
  9
$ACADVER
  1
AC1015
  9
$HANDSEED
  5
FFFF
  9
$DIMASZ
 40
2.5
  9
$PLIMMIN
 10
0.0
 20
0.0
  9
$DIMEXE
 40
1.25
  9
$DIMGAP
 40
0.625
  9
$PLIMMAX
 10
210.0
 20
297.0
  9
$INSUNITS
 70
4
  9
$DIMSTYLE
  2
Standard
  9
$CLAYER
  8
Drawings
  9
$DIMEXO
 40
0.625
  9
$DIMTXT
 40
2.5
  9
$CLAYER
  8
Filament Guide Bottom
  0
ENDSEC
  0
SECTION
  2
TABLES
  0
TABLE
  2
VPORT
  5
8
100
AcDbSymbolTable
 70
1
  0
VPORT
  5
30
100
AcDbSymbolTableRecord
100
AcDbViewportTableRecord
  2
*Active
 70
0
 10
0.0
 20
0.0
 11
1.0
 21
1.0
 12
286.3055555555554861
 22
148.5
 13
0.0
 23
0.0
 14
10.0
 24
10.0
 15
10.0
 25
10.0
 16
0.0
 26
0.0
 36
1.0
 17
0.0
 27
0.0
 37
0.0
 40
297.0
 41
1.92798353909465
 42
50.0
 43
0.0
 44
0.0
 50
0.0
 51
0.0
 71
0
 72
100
 73
1
 74
3
 75
1
 76
1
 77
0
 78
0
281
0
 65
1
110
0.0
120
0.0
130
0.0
111
1.0
121
0.0
131
0.0
112
0.0
122
1.0
132
0.0
 79
0
146
0.0
  0
ENDTAB
  0
TABLE
  2
LTYPE
  5
5
100
AcDbSymbolTable
 70
21
  0
LTYPE
  5
14
100
AcDbSymbolTableRecord
100
AcDbLinetypeTableRecord
  2
ByBlock
 70
0
  3

 72
65
 73
0
 40
0.0
  0
LTYPE
  5
15
100
AcDbSymbolTableRecord
100
AcDbLinetypeTableRecord
  2
ByLayer
 70
0
  3

 72
65
 73
0
 40
0.0
  0
LTYPE
  5
16
100
AcDbSymbolTableRecord
100
AcDbLinetypeTableRecord
  2
CONTINUOUS
 70
0
  3
Solid line
 72
65
 73
0
 40
0.0
  0
LTYPE
  5
31
100
AcDbSymbolTableRecord
100
AcDbLinetypeTableRecord
  2
DOT
 70
0
  3
Dot . . . . . . . . . . . . . . . . . . . . . .
 72
65
 73
2
 40
6.3499999999999996
 49
0.0
 74
0
 49
-6.3499999999999996
 74
0
  0
LTYPE
  5
32
100
AcDbSymbolTableRecord
100
AcDbLinetypeTableRecord
  2
DOT2
 70
0
  3
Dot (.5x) .....................................
 72
65
 73
2
 40
3.1749999999999998
 49
0.0
 74
0
 49
-3.1749999999999998
 74
0
  0
LTYPE
  5
33
100
AcDbSymbolTableRecord
100
AcDbLinetypeTableRecord
  2
DOTX2
 70
0
  3
Dot (2x) .  .  .  .  .  .  .  .  .  .  .  .  .
 72
65
 73
2
 40
12.6999999999999993
 49
0.0
 74
0
 49
-12.6999999999999993
 74
0
  0
LTYPE
  5
34
100
AcDbSymbolTableRecord
100
AcDbLinetypeTableRecord
  2
DASHED
 70
0
  3
Dashed __ __ __ __ __ __ __ __ __ __ __ __ __ _
 72
65
 73
2
 40
19.0500000000000007
 49
12.6999999999999993
 74
0
 49
-6.3499999999999996
 74
0
  0
LTYPE
  5
35
100
AcDbSymbolTableRecord
100
AcDbLinetypeTableRecord
  2
DASHED2
 70
0
  3
Dashed (.5x) _ _ _ _ _ _ _ _ _ _ _ _ _ _ _ _ _
 72
65
 73
2
 40
9.5250000000000004
 49
6.3499999999999996
 74
0
 49
-3.1749999999999998
 74
0
  0
LTYPE
  5
36
100
AcDbSymbolTableRecord
100
AcDbLinetypeTableRecord
  2
DASHEDX2
 70
0
  3
Dashed (2x) ____  ____  ____  ____  ____  ___
 72
65
 73
2
 40
38.1000000000000014
 49
25.3999999999999986
 74
0
 49
-12.6999999999999993
 74
0
  0
LTYPE
  5
37
100
AcDbSymbolTableRecord
100
AcDbLinetypeTableRecord
  2
DASHDOT
 70
0
  3
Dash dot __ . __ . __ . __ . __ . __ . __ . __
 72
65
 73
4
 40
25.3999999999999986
 49
12.6999999999999993
 74
0
 49
-6.3499999999999996
 74
0
 49
0.0
 74
0
 49
-6.3499999999999996
 74
0
  0
LTYPE
  5
38
100
AcDbSymbolTableRecord
100
AcDbLinetypeTableRecord
  2
DASHDOT2
 70
0
  3
Dash dot (.5x) _._._._._._._._._._._._._._._.
 72
65
 73
4
 40
12.6999999999999993
 49
6.3499999999999996
 74
0
 49
-3.1749999999999998
 74
0
 49
0.0
 74
0
 49
-3.1749999999999998
 74
0
  0
LTYPE
  5
39
100
AcDbSymbolTableRecord
100
AcDbLinetypeTableRecord
  2
DASHDOTX2
 70
0
  3
Dash dot (2x) ____  .  ____  .  ____  .  ___
 72
65
 73
4
 40
50.7999999999999972
 49
25.3999999999999986
 74
0
 49
-12.6999999999999993
 74
0
 49
0.0
 74
0
 49
-12.6999999999999993
 74
0
  0
LTYPE
  5
3A
100
AcDbSymbolTableRecord
100
AcDbLinetypeTableRecord
  2
DIVIDE
 70
0
  3
Divide ____ . . ____ . . ____ . . ____ . . ____
 72
65
 73
6
 40
31.75
 49
12.6999999999999993
 74
0
 49
-6.3499999999999996
 74
0
 49
0.0
 74
0
 49
-6.3499999999999996
 74
0
 49
0.0
 74
0
 49
-6.3499999999999996
 74
0
  0
LTYPE
  5
3B
100
AcDbSymbolTableRecord
100
AcDbLinetypeTableRecord
  2
DIVIDE2
 70
0
  3
Divide (.5x) __..__..__..__..__..__..__..__.._
 72
65
 73
6
 40
15.875
 49
6.3499999999999996
 74
0
 49
-3.1749999999999998
 74
0
 49
0.0
 74
0
 49
-3.1749999999999998
 74
0
 49
0.0
 74
0
 49
-3.1749999999999998
 74
0
  0
LTYPE
  5
3C
100
AcDbSymbolTableRecord
100
AcDbLinetypeTableRecord
  2
DIVIDEX2
 70
0
  3
Divide (2x) ________  .  .  ________  .  .  _
 72
65
 73
6
 40
63.5
 49
25.3999999999999986
 74
0
 49
-12.6999999999999993
 74
0
 49
0.0
 74
0
 49
-12.6999999999999993
 74
0
 49
0.0
 74
0
 49
-12.6999999999999993
 74
0
  0
LTYPE
  5
3D
100
AcDbSymbolTableRecord
100
AcDbLinetypeTableRecord
  2
CENTER
 70
0
  3
Center ____ _ ____ _ ____ _ ____ _ ____ _ ____
 72
65
 73
4
 40
50.7999999999999972
 49
31.75
 74
0
 49
-6.3499999999999996
 74
0
 49
6.3499999999999996
 74
0
 49
-6.3499999999999996
 74
0
  0
LTYPE
  5
3E
100
AcDbSymbolTableRecord
100
AcDbLinetypeTableRecord
  2
CENTER2
 70
0
  3
Center (.5x) ___ _ ___ _ ___ _ ___ _ ___ _ ___
 72
65
 73
4
 40
28.5749999999999993
 49
19.0500000000000007
 74
0
 49
-3.1749999999999998
 74
0
 49
3.1749999999999998
 74
0
 49
-3.1749999999999998
 74
0
  0
LTYPE
  5
3F
100
AcDbSymbolTableRecord
100
AcDbLinetypeTableRecord
  2
CENTERX2
 70
0
  3
Center (2x) ________  __  ________  __  _____
 72
65
 73
4
 40
101.5999999999999943
 49
63.5
 74
0
 49
-12.6999999999999993
 74
0
 49
12.6999999999999993
 74
0
 49
-12.6999999999999993
 74
0
  0
LTYPE
  5
40
100
AcDbSymbolTableRecord
100
AcDbLinetypeTableRecord
  2
BORDER
 70
0
  3
Border __ __ . __ __ . __ __ . __ __ . __ __ .
 72
65
 73
6
 40
44.4500000000000028
 49
12.6999999999999993
 74
0
 49
-6.3499999999999996
 74
0
 49
12.6999999999999993
 74
0
 49
-6.3499999999999996
 74
0
 49
0.0
 74
0
 49
-6.3499999999999996
 74
0
  0
LTYPE
  5
41
100
AcDbSymbolTableRecord
100
AcDbLinetypeTableRecord
  2
BORDER2
 70
0
  3
Border (.5x) __.__.__.__.__.__.__.__.__.__.__.
 72
65
 73
6
 40
22.2250000000000014
 49
6.3499999999999996
 74
0
 49
-3.1749999999999998
 74
0
 49
6.3499999999999996
 74
0
 49
-3.1749999999999998
 74
0
 49
0.0
 74
0
 49
-3.1749999999999998
 74
0
  0
LTYPE
  5
42
100
AcDbSymbolTableRecord
100
AcDbLinetypeTableRecord
  2
BORDERX2
 70
0
  3
Border (2x) ____  ____  .  ____  ____  .  ___
 72
65
 73
6
 40
88.9000000000000057
 49
25.3999999999999986
 74
0
 49
-12.6999999999999993
 74
0
 49
25.3999999999999986
 74
0
 49
-12.6999999999999993
 74
0
 49
0.0
 74
0
 49
-12.6999999999999993
 74
0
  0
ENDTAB
  0
TABLE
  2
LAYER
  5
2
100
AcDbSymbolTable
 70
24
  0
LAYER
  5
10
100
AcDbSymbolTableRecord
100
AcDbLayerTableRecord
  2
0
 70
0
 62
7
420
0
  6
CONTINUOUS
370
0
390
F
  0
LAYER
  5
43
100
AcDbSymbolTableRecord
100
AcDbLayerTableRecord
  2
Drawings
 70
1
 62
-5
420
255
  6
CONTINUOUS
370
0
390
F
  0
LAYER
  5
44
100
AcDbSymbolTableRecord
100
AcDbLayerTableRecord
  2
Motor Plate
 70
0
 62
7
420
0
  6
CONTINUOUS
370
0
390
F
  0
LAYER
  5
45
100
AcDbSymbolTableRecord
100
AcDbLayerTableRecord
  2
Motor Plate Text
 70
0
 62
4
420
65535
  6
CONTINUOUS
370
0
390
F
  0
LAYER
  5
46
100
AcDbSymbolTableRecord
100
AcDbLayerTableRecord
  2
Idler Wheel
 70
0
 62
7
420
0
  6
CONTINUOUS
370
0
390
F
  0
LAYER
  5
47
100
AcDbSymbolTableRecord
100
AcDbLayerTableRecord
  2
Idler Wheel Text
 70
0
 62
4
420
65535
  6
CONTINUOUS
370
0
390
F
  0
LAYER
  5
48
100
AcDbSymbolTableRecord
100
AcDbLayerTableRecord
  2
Spacer Plate
 70
0
 62
7
420
0
  6
CONTINUOUS
370
0
390
F
  0
LAYER
  5
49
100
AcDbSymbolTableRecord
100
AcDbLayerTableRecord
  2
Spacer Plate Text
 70
0
 62
4
420
65535
  6
CONTINUOUS
370
0
390
F
  0
LAYER
  5
4A
100
AcDbSymbolTableRecord
100
AcDbLayerTableRecord
  2
Filament Guide Bottom
 70
0
 62
7
420
0
  6
CONTINUOUS
370
0
390
F
  0
LAYER
  5
4B
100
AcDbSymbolTableRecord
100
AcDbLayerTableRecord
  2
Filament Guide Middle
 70
0
 62
7
420
0
  6
CONTINUOUS
370
0
390
F
  0
LAYER
  5
4C
100
AcDbSymbolTableRecord
100
AcDbLayerTableRecord
  2
Text
 70
0
 62
7
420
0
  6
CONTINUOUS
370
0
390
F
  0
LAYER
  5
4D
100
AcDbSymbolTableRecord
100
AcDbLayerTableRecord
  2
Retainer Plate
 70
0
 62
7
420
0
  6
CONTINUOUS
370
0
390
F
  0
LAYER
  5
4E
100
AcDbSymbolTableRecord
100
AcDbLayerTableRecord
  2
Retainer Plate Text
 70
0
 62
4
420
65535
  6
CONTINUOUS
370
0
390
F
  0
LAYER
  5
4F
100
AcDbSymbolTableRecord
100
AcDbLayerTableRecord
  2
Filament Guide Bottom Text
 70
0
 62
4
420
65535
  6
CONTINUOUS
370
0
390
F
  0
LAYER
  5
50
100
AcDbSymbolTableRecord
100
AcDbLayerTableRecord
  2
Filament Guide Middle Text
 70
0
 62
4
420
65535
  6
CONTINUOUS
370
0
390
F
  0
LAYER
  5
51
100
AcDbSymbolTableRecord
100
AcDbLayerTableRecord
  2
Filament Guide Top
 70
0
 62
7
420
0
  6
CONTINUOUS
370
0
390
F
  0
LAYER
  5
52
100
AcDbSymbolTableRecord
100
AcDbLayerTableRecord
  2
Filament Guide Top Text
 70
0
 62
4
420
65535
  6
CONTINUOUS
370
0
390
F
  0
LAYER
  5
53
100
AcDbSymbolTableRecord
100
AcDbLayerTableRecord
  2
Spacer Plate Honeycomb
 70
0
 62
7
420
0
  6
CONTINUOUS
370
0
390
F
  0
LAYER
  5
54
100
AcDbSymbolTableRecord
100
AcDbLayerTableRecord
  2
Drawings - Honeycomb
 70
1
 62
-5
420
255
  6
CONTINUOUS
370
0
390
F
  0
LAYER
  5
55
100
AcDbSymbolTableRecord
100
AcDbLayerTableRecord
  2
Filament Guide Bottom Honeycomb
 70
0
 62
7
420
0
  6
CONTINUOUS
370
0
390
F
  0
LAYER
  5
56
100
AcDbSymbolTableRecord
100
AcDbLayerTableRecord
  2
Filament Guide Top Honeycomb
 70
0
 62
7
420
0
  6
CONTINUOUS
370
0
390
F
  0
LAYER
  5
57
100
AcDbSymbolTableRecord
100
AcDbLayerTableRecord
  2
Filament Guide Middle Honeycomb
 70
0
 62
7
420
0
  6
CONTINUOUS
370
0
390
F
  0
LAYER
  5
58
100
AcDbSymbolTableRecord
100
AcDbLayerTableRecord
  2
Drawings-Pulley
 70
1
 62
-5
420
255
  6
CONTINUOUS
370
0
390
F
  0
LAYER
  5
59
100
AcDbSymbolTableRecord
100
AcDbLayerTableRecord
  2
Drawings-Motor
 70
1
 62
-5
420
255
  6
CONTINUOUS
370
0
390
F
  0
ENDTAB
  0
TABLE
  2
STYLE
  5
3
100
AcDbSymbolTable
 70
1
  0
STYLE
  5
11
100
AcDbSymbolTableRecord
100
AcDbTextStyleTableRecord
  2
Standard
 70
0
 40
0.0
 41
0.75
 50
0.0
 71
0
 42
2.5
  3
txt
  4

  0
ENDTAB
  0
TABLE
  2
VIEW
  5
6
100
AcDbSymbolTable
 70
0
  0
ENDTAB
  0
TABLE
  2
UCS
  5
7
100
AcDbSymbolTable
 70
0
  0
ENDTAB
  0
TABLE
  2
APPID
  5
9
100
AcDbSymbolTable
 70
1
  0
APPID
  5
12
100
AcDbSymbolTableRecord
100
AcDbRegAppTableRecord
  2
ACAD
 70
0
  0
ENDTAB
  0
TABLE
  2
DIMSTYLE
  5
A
100
AcDbSymbolTable
 70
1
100
AcDbDimStyleTable
 71
0
  0
DIMSTYLE
105
27
100
AcDbSymbolTableRecord
100
AcDbDimStyleTableRecord
  2
Standard
 41
2.5
 42
0.625
 43
3.75
 44
1.25
 70
0
 73
0
 74
0
 77
1
 78
8
140
2.5
141
2.5
143
0.03937007874016
147
0.625
171
3
172
1
271
2
272
2
274
3
278
44
283
0
284
8
340
11
  0
ENDTAB
  0
TABLE
  2
BLOCK_RECORD
  5
1
100
AcDbSymbolTable
 70
1
  0
BLOCK_RECORD
  5
1F
100
AcDbSymbolTableRecord
100
AcDbBlockTableRecord
  2
*Model_Space
340
22
  0
BLOCK_RECORD
  5
1B
100
AcDbSymbolTableRecord
100
AcDbBlockTableRecord
  2
*Paper_Space
340
1E
  0
BLOCK_RECORD
  5
23
100
AcDbSymbolTableRecord
100
AcDbBlockTableRecord
  2
*Paper_Space0
340
26
  0
ENDTAB
  0
ENDSEC
  0
SECTION
  2
BLOCKS
  0
BLOCK
  5
20
100
AcDbEntity
  8
0
100
AcDbBlockBegin
  2
*Model_Space
 70
0
 10
0.0
 20
0.0
 30
0.0
  3
*Model_Space
  1

  0
ENDBLK
  5
21
100
AcDbEntity
  8
0
100
AcDbBlockEnd
  0
BLOCK
  5
1C
100
AcDbEntity
 67
1
  8
0
100
AcDbBlockBegin
  2
*Paper_Space
 70
0
 10
0.0
 20
0.0
 30
0.0
  3
*Paper_Space
  1

  0
ENDBLK
  5
1D
100
AcDbEntity
 67
1
  8
0
100
AcDbBlockEnd
  0
BLOCK
  5
24
100
AcDbEntity
  8
0
100
AcDbBlockBegin
  2
*Paper_Space0
 70
0
 10
0.0
 20
0.0
 30
0.0
  3
*Paper_Space0
  1

  0
ENDBLK
  5
25
100
AcDbEntity
  8
0
100
AcDbBlockEnd
  0
ENDSEC
  0
SECTION
  2
ENTITIES
  0
CIRCLE
  5
5A
100
AcDbEntity
100
AcDbCircle
  8
Motor Plate
 62
256
370
-1
  6
ByLayer
 10
10.0
 20
5.5
 30
0.0
 40
1.45
  0
CIRCLE
  5
5B
100
AcDbEntity
100
AcDbCircle
  8
Spacer Plate
 62
256
370
-1
  6
ByLayer
 10
10.0
 20
5.5
 30
0.0
 40
1.45
  0
CIRCLE
  5
5C
100
AcDbEntity
100
AcDbCircle
  8
Filament Guide Bottom
 62
256
370
-1
  6
ByLayer
 10
10.0
 20
5.5
 30
0.0
 40
1.45
  0
CIRCLE
  5
5D
100
AcDbEntity
100
AcDbCircle
  8
Filament Guide Top
 62
256
370
-1
  6
ByLayer
 10
10.0000000000000142
 20
5.4999999999999787
 30
0.0
 40
1.45
  0
CIRCLE
  5
5E
100
AcDbEntity
100
AcDbCircle
  8
Motor Plate
 62
256
370
-1
  6
ByLayer
 10
10.0000000000000071
 20
69.9000000000000199
 30
0.0
 40
1.45
  0
CIRCLE
  5
5F
100
AcDbEntity
100
AcDbCircle
  8
Spacer Plate
 62
256
370
-1
  6
ByLayer
 10
10.0000000000000071
 20
69.9000000000000199
 30
0.0
 40
1.45
  0
CIRCLE
  5
60
100
AcDbEntity
100
AcDbCircle
  8
Filament Guide Bottom
 62
256
370
-1
  6
ByLayer
 10
10.0000000000000071
 20
69.9000000000000199
 30
0.0
 40
1.45
  0
CIRCLE
  5
61
100
AcDbEntity
100
AcDbCircle
  8
Filament Guide Top
 62
256
370
-1
  6
ByLayer
 10
10.0000000000000213
 20
69.9000000000000057
 30
0.0
 40
1.45
  0
ARC
  5
62
100
AcDbEntity
  8
Motor Plate
 62
256
370
-1
  6
ByLayer
100
AcDbCircle
 10
75.0
 20
70.0
 30
0.0
 40
5.0
100
AcDbArc
 50
0.0
 51
90.0
  0
LINE
  5
63
100
AcDbEntity
100
AcDbLine
  8
Drawings
 62
256
370
-1
  6
ByLayer
 10
72.1500000000000057
 20
69.9000000000000057
 30
0.0
 11
72.1500000000000057
 21
5.4999999999999849
 31
0.0
  0
CIRCLE
  5
64
100
AcDbEntity
100
AcDbCircle
  8
Motor Plate
 62
256
370
-1
  6
ByLayer
 10
72.1500000000000057
 20
69.9000000000000057
 30
0.0
 40
1.45
  0
CIRCLE
  5
65
100
AcDbEntity
100
AcDbCircle
  8
Spacer Plate
 62
256
370
-1
  6
ByLayer
 10
72.1500000000000057
 20
69.9000000000000057
 30
0.0
 40
1.45
  0
CIRCLE
  5
66
100
AcDbEntity
100
AcDbCircle
  8
Filament Guide Bottom
 62
256
370
-1
  6
ByLayer
 10
72.1500000000000057
 20
69.9000000000000057
 30
0.0
 40
1.45
  0
CIRCLE
  5
67
100
AcDbEntity
100
AcDbCircle
  8
Filament Guide Top
 62
256
370
-1
  6
ByLayer
 10
72.1500000000000199
 20
69.8999999999999915
 30
0.0
 40
1.45
  0
CIRCLE
  5
68
100
AcDbEntity
100
AcDbCircle
  8
Motor Plate
 62
256
370
-1
  6
ByLayer
 10
72.1500000000000057
 20
5.5
 30
0.0
 40
1.45
  0
CIRCLE
  5
69
100
AcDbEntity
100
AcDbCircle
  8
Spacer Plate
 62
256
370
-1
  6
ByLayer
 10
72.1500000000000057
 20
5.5
 30
0.0
 40
1.45
  0
CIRCLE
  5
6A
100
AcDbEntity
100
AcDbCircle
  8
Filament Guide Bottom
 62
256
370
-1
  6
ByLayer
 10
72.1500000000000057
 20
5.5
 30
0.0
 40
1.45
  0
CIRCLE
  5
6B
100
AcDbEntity
100
AcDbCircle
  8
Filament Guide Top
 62
256
370
-1
  6
ByLayer
 10
72.1500000000000199
 20
5.499999999999968
 30
0.0
 40
1.45
  0
ARC
  5
6C
100
AcDbEntity
  8
Spacer Plate
 62
256
370
-1
  6
ByLayer
100
AcDbCircle
 10
75.0
 20
70.0
 30
0.0
 40
5.0
100
AcDbArc
 50
0.0
 51
90.0
  0
ARC
  5
6D
100
AcDbEntity
  8
Retainer Plate
 62
256
370
-1
  6
ByLayer
100
AcDbCircle
 10
75.0
 20
70.0
 30
0.0
 40
5.0
100
AcDbArc
 50
0.0
 51
90.0
  0
ARC
  5
6E
100
AcDbEntity
  8
Filament Guide Top
 62
256
370
-1
  6
ByLayer
100
AcDbCircle
 10
75.0000000000000284
 20
69.9999999999999858
 30
0.0
 40
5.0
100
AcDbArc
 50
0.0
 51
90.0
  0
ARC
  5
6F
100
AcDbEntity
  8
Filament Guide Bottom
 62
256
370
-1
  6
ByLayer
100
AcDbCircle
 10
75.0
 20
70.0
 30
0.0
 40
5.0
100
AcDbArc
 50
0.0
 51
90.0
  0
LINE
  5
70
100
AcDbEntity
100
AcDbLine
  8
Drawings
 62
256
370
-1
  6
ByLayer
 10
10.0
 20
69.9000000000000057
 30
0.0
 11
10.0
 21
5.5
 31
0.0
  0
LINE
  5
71
100
AcDbEntity
100
AcDbLine
  8
Drawings
 62
256
370
-1
  6
ByLayer
 10
10.0000000000000071
 20
69.9000000000000057
 30
0.0
 11
72.1500000000000057
 21
69.9000000000000057
 31
0.0
  0
LINE
  5
72
100
AcDbEntity
100
AcDbLine
  8
Drawings
 62
256
370
-1
  6
ByLayer
 10
10.0
 20
5.5
 30
0.0
 11
72.1500000000000057
 21
5.5
 31
0.0
  0
LINE
  5
73
100
AcDbEntity
100
AcDbLine
  8
Filament Guide Bottom
 62
256
370
-1
  6
ByLayer
 10
5.0
 20
75.0
 30
0.0
 11
75.0
 21
75.0
 31
0.0
  0
ARC
  5
74
100
AcDbEntity
  8
Filament Guide Bottom
 62
256
370
-1
  6
ByLayer
100
AcDbCircle
 10
5.0
 20
70.0
 30
0.0
 40
5.0
100
AcDbArc
 50
90.0
 51
180.0
  0
LINE
  5
75
100
AcDbEntity
100
AcDbLine
  8
Spacer Plate
 62
256
370
-1
  6
ByLayer
 10
75.0
 20
75.0
 30
0.0
 11
5.0
 21
75.0
 31
0.0
  0
ARC
  5
76
100
AcDbEntity
  8
Spacer Plate
 62
256
370
-1
  6
ByLayer
100
AcDbCircle
 10
5.0
 20
70.0
 30
0.0
 40
5.0
100
AcDbArc
 50
90.0
 51
180.0
  0
LINE
  5
77
100
AcDbEntity
100
AcDbLine
  8
Retainer Plate
 62
256
370
-1
  6
ByLayer
 10
5.0
 20
74.9999999999999858
 30
0.0
 11
75.0
 21
75.0
 31
0.0
  0
ARC
  5
78
100
AcDbEntity
  8
Retainer Plate
 62
256
370
-1
  6
ByLayer
100
AcDbCircle
 10
5.0
 20
69.9999999999999858
 30
0.0
 40
5.0
100
AcDbArc
 50
90.0
 51
180.0
  0
LINE
  5
79
100
AcDbEntity
100
AcDbLine
  8
Motor Plate
 62
256
370
-1
  6
ByLayer
 10
5.0
 20
75.0
 30
0.0
 11
75.0
 21
75.0
 31
0.0
  0
ARC
  5
7A
100
AcDbEntity
  8
Motor Plate
 62
256
370
-1
  6
ByLayer
100
AcDbCircle
 10
5.0
 20
70.0
 30
0.0
 40
5.0
100
AcDbArc
 50
90.0
 51
180.0
  0
LINE
  5
7B
100
AcDbEntity
100
AcDbLine
  8
Filament Guide Top
 62
256
370
-1
  6
ByLayer
 10
5.0000000000000213
 20
74.9999999999999858
 30
0.0
 11
75.0000000000000284
 21
74.9999999999999858
 31
0.0
  0
ARC
  5
7C
100
AcDbEntity
  8
Filament Guide Top
 62
256
370
-1
  6
ByLayer
100
AcDbCircle
 10
5.0000000000000213
 20
69.9999999999999858
 30
0.0
 40
5.0
100
AcDbArc
 50
90.0
 51
180.0
  0
CIRCLE
  5
7D
100
AcDbEntity
100
AcDbCircle
  8
Spacer Plate
 62
256
370
-1
  6
ByLayer
 10
17.5000000000000284
 20
46.2499745962155799
 30
0.0
 40
3.0
  0
CIRCLE
  5
7E
100
AcDbEntity
100
AcDbCircle
  8
Spacer Plate
 62
256
370
-1
  6
ByLayer
 10
9.75
 20
32.9999745962155728
 30
0.0
 40
3.0
  0
CIRCLE
  5
7F
100
AcDbEntity
100
AcDbCircle
  8
Spacer Plate
 62
256
370
-1
  6
ByLayer
 10
17.4999999999999858
 20
19.7499745962155799
 30
0.0
 40
3.0
  0
CIRCLE
  5
80
100
AcDbEntity
100
AcDbCircle
  8
Spacer Plate
 62
256
370
-1
  6
ByLayer
 10
40.25
 20
32.9999745962155799
 30
0.0
 40
3.0
  0
LINE
  5
81
100
AcDbEntity
100
AcDbLine
  8
Drawings
 62
256
370
-1
  6
ByLayer
 10
5.0
 20
32.9999745962155657
 30
0.0
 11
72.1500000000000057
 21
32.9999745962155657
 31
0.0
  0
LINE
  5
82
100
AcDbEntity
100
AcDbLine
  8
Drawings
 62
256
370
-1
  6
ByLayer
 10
5.0
 20
32.9999745962155657
 30
0.0
 11
5.0
 21
24.2599745962155637
 31
0.0
  0
LINE
  5
83
100
AcDbEntity
100
AcDbLine
  8
Drawings
 62
256
370
-1
  6
ByLayer
 10
5.0
 20
32.9999745962155657
 30
0.0
 11
5.0
 21
41.7399745962155677
 31
0.0
  0
CIRCLE
  5
84
100
AcDbEntity
100
AcDbCircle
  8
Retainer Plate
 62
256
370
-1
  6
ByLayer
 10
5.0
 20
41.7399745962155677
 30
0.0
 40
1.45
  0
CIRCLE
  5
85
100
AcDbEntity
100
AcDbCircle
  8
Retainer Plate
 62
256
370
-1
  6
ByLayer
 10
5.0
 20
24.2599745962155637
 30
0.0
 40
1.45
  0
LINE
  5
86
100
AcDbEntity
100
AcDbLine
  8
Drawings
 62
256
370
-1
  6
ByLayer
 10
5.0
 20
44.7999305467462179
 30
0.0
 11
5.0
 21
38.6800186456849246
 31
0.0
  0
LINE
  5
87
100
AcDbEntity
100
AcDbLine
  8
Drawings
 62
256
370
-1
  6
ByLayer
 10
2.3499999999999943
 20
43.2699525649280261
 30
0.0
 11
7.6500000000000057
 21
40.2099966275031093
 31
0.0
  0
LINE
  5
88
100
AcDbEntity
100
AcDbLine
  8
Drawings
 62
256
370
-1
  6
ByLayer
 10
7.6500000000000057
 20
43.2699525649280261
 30
0.0
 11
2.3499999999999943
 21
40.2099966275031093
 31
0.0
  0
LINE
  5
89
100
AcDbEntity
100
AcDbLine
  8
Filament Guide Top
 62
256
370
-1
  6
ByLayer
 10
5.0
 20
44.7999305467462179
 30
0.0
 11
2.3499999999999943
 21
43.2699525649280261
 31
0.0
  0
LINE
  5
8A
100
AcDbEntity
100
AcDbLine
  8
Filament Guide Top
 62
256
370
-1
  6
ByLayer
 10
5.0
 20
44.7999305467462179
 30
0.0
 11
7.6500000000000057
 21
43.2699525649280261
 31
0.0
  0
LINE
  5
8B
100
AcDbEntity
100
AcDbLine
  8
Filament Guide Top
 62
256
370
-1
  6
ByLayer
 10
7.6500000000000057
 20
43.2699525649280261
 30
0.0
 11
7.6500000000000057
 21
40.2099966275031093
 31
0.0
  0
LINE
  5
8C
100
AcDbEntity
100
AcDbLine
  8
Filament Guide Top
 62
256
370
-1
  6
ByLayer
 10
7.6500000000000057
 20
40.2099966275031093
 30
0.0
 11
5.0
 21
38.6800186456849246
 31
0.0
  0
LINE
  5
8D
100
AcDbEntity
100
AcDbLine
  8
Filament Guide Top
 62
256
370
-1
  6
ByLayer
 10
2.3499999999999943
 20
43.2699525649280261
 30
0.0
 11
2.3499999999999943
 21
40.2099966275031093
 31
0.0
  0
LINE
  5
8E
100
AcDbEntity
100
AcDbLine
  8
Filament Guide Top
 62
256
370
-1
  6
ByLayer
 10
2.3499999999999943
 20
40.2099966275031093
 30
0.0
 11
5.0
 21
38.6800186456849246
 31
0.0
  0
LINE
  5
8F
100
AcDbEntity
100
AcDbLine
  8
Drawings
 62
256
370
-1
  6
ByLayer
 10
5.0
 20
27.3199305467462139
 30
0.0
 11
5.0
 21
21.2000186456849207
 31
0.0
  0
LINE
  5
90
100
AcDbEntity
100
AcDbLine
  8
Drawings
 62
256
370
-1
  6
ByLayer
 10
2.3499999999999943
 20
25.7899525649280221
 30
0.0
 11
7.6500000000000057
 21
22.7299966275031053
 31
0.0
  0
LINE
  5
91
100
AcDbEntity
100
AcDbLine
  8
Drawings
 62
256
370
-1
  6
ByLayer
 10
7.6500000000000057
 20
25.7899525649280221
 30
0.0
 11
2.3499999999999943
 21
22.7299966275031053
 31
0.0
  0
LINE
  5
92
100
AcDbEntity
100
AcDbLine
  8
Filament Guide Top
 62
256
370
-1
  6
ByLayer
 10
5.0
 20
27.3199305467462139
 30
0.0
 11
2.3499999999999943
 21
25.7899525649280221
 31
0.0
  0
LINE
  5
93
100
AcDbEntity
100
AcDbLine
  8
Filament Guide Top
 62
256
370
-1
  6
ByLayer
 10
5.0
 20
27.3199305467462139
 30
0.0
 11
7.6500000000000057
 21
25.7899525649280221
 31
0.0
  0
LINE
  5
94
100
AcDbEntity
100
AcDbLine
  8
Filament Guide Top
 62
256
370
-1
  6
ByLayer
 10
7.6500000000000057
 20
25.7899525649280221
 30
0.0
 11
7.6500000000000057
 21
22.7299966275031053
 31
0.0
  0
LINE
  5
95
100
AcDbEntity
100
AcDbLine
  8
Filament Guide Top
 62
256
370
-1
  6
ByLayer
 10
7.6500000000000057
 20
22.7299966275031053
 30
0.0
 11
5.0
 21
21.2000186456849207
 31
0.0
  0
LINE
  5
96
100
AcDbEntity
100
AcDbLine
  8
Filament Guide Top
 62
256
370
-1
  6
ByLayer
 10
2.3499999999999943
 20
25.7899525649280221
 30
0.0
 11
2.3499999999999943
 21
22.7299966275031053
 31
0.0
  0
LINE
  5
97
100
AcDbEntity
100
AcDbLine
  8
Filament Guide Top
 62
256
370
-1
  6
ByLayer
 10
2.3499999999999943
 20
22.7299966275031053
 30
0.0
 11
5.0
 21
21.2000186456849207
 31
0.0
  0
MTEXT
  5
98
100
AcDbEntity
100
AcDbMText
  8
Motor Plate Text
 62
256
370
-1
  6
ByLayer
 10
42.5
 20
64.9000000000000057
 30
0.0
 40
3.0
 41
100.0
 71
5
 72
2
  1
Motor\~Plate
  7
standard
 50
0.0
 73
1
 44
1.0
  0
MTEXT
  5
99
100
AcDbEntity
100
AcDbMText
  8
Retainer Plate Text
 62
256
370
-1
  6
ByLayer
 10
16.0000000000000071
 20
54.9000000000000057
 30
0.0
 40
2.0
 41
100.0
 71
1
 72
2
  1
Retainer\~Plate
  7
standard
 50
0.0
 73
1
 44
1.0
  0
LINE
  5
9A
100
AcDbEntity
100
AcDbLine
  8
Drawings
 62
256
370
-1
  6
ByLayer
 10
43.875
 20
8.7999999999999972
 30
0.0
 11
43.875
 21
0.4999999999999872
 31
0.0
  0
LINE
  5
9B
100
AcDbEntity
100
AcDbLine
  8
Drawings
 62
256
370
-1
  6
ByLayer
 10
18.625
 20
8.7999999999999972
 30
0.0
 11
18.625
 21
0.499999999999994
 31
0.0
  0
LINE
  5
9C
100
AcDbEntity
100
AcDbLine
  8
Filament Guide Top
 62
256
370
-1
  6
ByLayer
 10
42.4249999999999972
 20
6.799999999999998
 30
0.0
 11
45.3250000000000028
 21
6.799999999999998
 31
0.0
  0
LINE
  5
9D
100
AcDbEntity
100
AcDbLine
  8
Filament Guide Top
 62
256
370
-1
  6
ByLayer
 10
45.3250000000000028
 20
6.799999999999998
 30
0.0
 11
45.3250000000000028
 21
4.5
 31
0.0
  0
LINE
  5
9E
100
AcDbEntity
100
AcDbLine
  8
Filament Guide Top
 62
256
370
-1
  6
ByLayer
 10
45.3250000000000028
 20
4.5
 30
0.0
 11
42.4249999999999972
 21
4.5
 31
0.0
  0
LINE
  5
9F
100
AcDbEntity
100
AcDbLine
  8
Filament Guide Top
 62
256
370
-1
  6
ByLayer
 10
42.4249999999999972
 20
4.5
 30
0.0
 11
42.4249999999999972
 21
6.799999999999998
 31
0.0
  0
LINE
  5
A0
100
AcDbEntity
100
AcDbLine
  8
Filament Guide Top
 62
256
370
-1
  6
ByLayer
 10
17.1750000000000114
 20
6.8499999999999996
 30
0.0
 11
20.0750000000000028
 21
6.8499999999999996
 31
0.0
  0
LINE
  5
A1
100
AcDbEntity
100
AcDbLine
  8
Filament Guide Top
 62
256
370
-1
  6
ByLayer
 10
20.0750000000000028
 20
6.8499999999999996
 30
0.0
 11
20.0750000000000028
 21
4.5
 31
0.0
  0
LINE
  5
A2
100
AcDbEntity
100
AcDbLine
  8
Filament Guide Top
 62
256
370
-1
  6
ByLayer
 10
20.0750000000000028
 20
4.5
 30
0.0
 11
17.1750000000000114
 21
4.5
 31
0.0
  0
LINE
  5
A3
100
AcDbEntity
100
AcDbLine
  8
Filament Guide Top
 62
256
370
-1
  6
ByLayer
 10
17.1750000000000114
 20
4.5
 30
0.0
 11
17.1750000000000114
 21
6.8499999999999996
 31
0.0
  0
LINE
  5
A4
100
AcDbEntity
100
AcDbLine
  8
Drawings
 62
256
370
-1
  6
ByLayer
 10
6.9400440494693498
 20
69.9000000000000057
 30
0.0
 11
13.0599559505306502
 21
69.9000000000000057
 31
0.0
  0
LINE
  5
A5
100
AcDbEntity
100
AcDbLine
  8
Drawings
 62
256
370
-1
  6
ByLayer
 10
8.4700220312875416
 20
67.25
 30
0.0
 11
11.5299779687124726
 21
72.5500000000000114
 31
0.0
  0
LINE
  5
A6
100
AcDbEntity
100
AcDbLine
  8
Drawings
 62
256
370
-1
  6
ByLayer
 10
8.4700220312875416
 20
72.5500000000000114
 30
0.0
 11
11.5299779687124584
 21
67.25
 31
0.0
  0
LINE
  5
A7
100
AcDbEntity
100
AcDbLine
  8
Retainer Plate
 62
256
370
-1
  6
ByLayer
 10
6.9400440494693498
 20
69.9000000000000057
 30
0.0
 11
8.4700220312875416
 21
67.25
 31
0.0
  0
LINE
  5
A8
100
AcDbEntity
100
AcDbLine
  8
Retainer Plate
 62
256
370
-1
  6
ByLayer
 10
6.9400440494693498
 20
69.9000000000000057
 30
0.0
 11
8.4700220312875416
 21
72.5500000000000114
 31
0.0
  0
LINE
  5
A9
100
AcDbEntity
100
AcDbLine
  8
Retainer Plate
 62
256
370
-1
  6
ByLayer
 10
8.4700220312875416
 20
72.5500000000000114
 30
0.0
 11
11.5299779687124726
 21
72.5500000000000114
 31
0.0
  0
LINE
  5
AA
100
AcDbEntity
100
AcDbLine
  8
Retainer Plate
 62
256
370
-1
  6
ByLayer
 10
11.5299779687124726
 20
72.5500000000000114
 30
0.0
 11
13.0599559505306502
 21
69.9000000000000057
 31
0.0
  0
LINE
  5
AB
100
AcDbEntity
100
AcDbLine
  8
Retainer Plate
 62
256
370
-1
  6
ByLayer
 10
8.4700220312875416
 20
67.25
 30
0.0
 11
11.5299779687124584
 21
67.25
 31
0.0
  0
LINE
  5
AC
100
AcDbEntity
100
AcDbLine
  8
Retainer Plate
 62
256
370
-1
  6
ByLayer
 10
11.5299779687124584
 20
67.25
 30
0.0
 11
13.0599559505306502
 21
69.9000000000000057
 31
0.0
  0
LINE
  5
AD
100
AcDbEntity
100
AcDbLine
  8
Drawings
 62
256
370
-1
  6
ByLayer
 10
69.0900440494693555
 20
69.9000000000000057
 30
0.0
 11
75.2099559505306559
 21
69.9000000000000057
 31
0.0
  0
LINE
  5
AE
100
AcDbEntity
100
AcDbLine
  8
Drawings
 62
256
370
-1
  6
ByLayer
 10
70.6200220312875473
 20
67.25
 30
0.0
 11
73.6799779687124783
 21
72.5500000000000114
 31
0.0
  0
LINE
  5
AF
100
AcDbEntity
100
AcDbLine
  8
Drawings
 62
256
370
-1
  6
ByLayer
 10
70.6200220312875473
 20
72.5500000000000114
 30
0.0
 11
73.6799779687124641
 21
67.25
 31
0.0
  0
LINE
  5
B0
100
AcDbEntity
100
AcDbLine
  8
Retainer Plate
 62
256
370
-1
  6
ByLayer
 10
69.0900440494693555
 20
69.9000000000000057
 30
0.0
 11
70.6200220312875473
 21
67.25
 31
0.0
  0
LINE
  5
B1
100
AcDbEntity
100
AcDbLine
  8
Retainer Plate
 62
256
370
-1
  6
ByLayer
 10
69.0900440494693555
 20
69.9000000000000057
 30
0.0
 11
70.6200220312875473
 21
72.5500000000000114
 31
0.0
  0
LINE
  5
B2
100
AcDbEntity
100
AcDbLine
  8
Retainer Plate
 62
256
370
-1
  6
ByLayer
 10
70.6200220312875473
 20
72.5500000000000114
 30
0.0
 11
73.6799779687124783
 21
72.5500000000000114
 31
0.0
  0
LINE
  5
B3
100
AcDbEntity
100
AcDbLine
  8
Retainer Plate
 62
256
370
-1
  6
ByLayer
 10
73.6799779687124783
 20
72.5500000000000114
 30
0.0
 11
75.2099559505306559
 21
69.9000000000000057
 31
0.0
  0
LINE
  5
B4
100
AcDbEntity
100
AcDbLine
  8
Retainer Plate
 62
256
370
-1
  6
ByLayer
 10
70.6200220312875473
 20
67.25
 30
0.0
 11
73.6799779687124641
 21
67.25
 31
0.0
  0
LINE
  5
B5
100
AcDbEntity
100
AcDbLine
  8
Retainer Plate
 62
256
370
-1
  6
ByLayer
 10
73.6799779687124641
 20
67.25
 30
0.0
 11
75.2099559505306559
 21
69.9000000000000057
 31
0.0
  0
LINE
  5
B6
100
AcDbEntity
100
AcDbLine
  8
Drawings
 62
256
370
-1
  6
ByLayer
 10
69.0900440494693555
 20
5.5
 30
0.0
 11
75.2099559505306559
 21
5.5
 31
0.0
  0
LINE
  5
B7
100
AcDbEntity
100
AcDbLine
  8
Drawings
 62
256
370
-1
  6
ByLayer
 10
70.6200220312875473
 20
2.8499999999999943
 30
0.0
 11
73.6799779687124783
 21
8.1500000000000057
 31
0.0
  0
LINE
  5
B8
100
AcDbEntity
100
AcDbLine
  8
Drawings
 62
256
370
-1
  6
ByLayer
 10
70.6200220312875473
 20
8.1500000000000057
 30
0.0
 11
73.6799779687124641
 21
2.8499999999999934
 31
0.0
  0
LINE
  5
B9
100
AcDbEntity
100
AcDbLine
  8
Retainer Plate
 62
256
370
-1
  6
ByLayer
 10
69.0900440494693555
 20
5.5
 30
0.0
 11
70.6200220312875473
 21
2.8499999999999943
 31
0.0
  0
LINE
  5
BA
100
AcDbEntity
100
AcDbLine
  8
Retainer Plate
 62
256
370
-1
  6
ByLayer
 10
69.0900440494693555
 20
5.5
 30
0.0
 11
70.6200220312875473
 21
8.1500000000000057
 31
0.0
  0
LINE
  5
BB
100
AcDbEntity
100
AcDbLine
  8
Retainer Plate
 62
256
370
-1
  6
ByLayer
 10
70.6200220312875473
 20
8.1500000000000057
 30
0.0
 11
73.6799779687124783
 21
8.1500000000000057
 31
0.0
  0
LINE
  5
BC
100
AcDbEntity
100
AcDbLine
  8
Retainer Plate
 62
256
370
-1
  6
ByLayer
 10
73.6799779687124783
 20
8.1500000000000057
 30
0.0
 11
75.2099559505306559
 21
5.5
 31
0.0
  0
LINE
  5
BD
100
AcDbEntity
100
AcDbLine
  8
Retainer Plate
 62
256
370
-1
  6
ByLayer
 10
70.6200220312875473
 20
2.8499999999999943
 30
0.0
 11
73.6799779687124641
 21
2.8499999999999934
 31
0.0
  0
LINE
  5
BE
100
AcDbEntity
100
AcDbLine
  8
Retainer Plate
 62
256
370
-1
  6
ByLayer
 10
73.6799779687124641
 20
2.8499999999999934
 30
0.0
 11
75.2099559505306559
 21
5.5
 31
0.0
  0
LINE
  5
BF
100
AcDbEntity
100
AcDbLine
  8
Drawings
 62
256
370
-1
  6
ByLayer
 10
6.9400440494693498
 20
5.5
 30
0.0
 11
13.0599559505306502
 21
5.5
 31
0.0
  0
LINE
  5
C0
100
AcDbEntity
100
AcDbLine
  8
Drawings
 62
256
370
-1
  6
ByLayer
 10
8.4700220312875416
 20
2.8499999999999943
 30
0.0
 11
11.5299779687124726
 21
8.1500000000000057
 31
0.0
  0
LINE
  5
C1
100
AcDbEntity
100
AcDbLine
  8
Drawings
 62
256
370
-1
  6
ByLayer
 10
8.4700220312875416
 20
8.1500000000000057
 30
0.0
 11
11.5299779687124584
 21
2.8499999999999934
 31
0.0
  0
LINE
  5
C2
100
AcDbEntity
100
AcDbLine
  8
Retainer Plate
 62
256
370
-1
  6
ByLayer
 10
6.9400440494693498
 20
5.5
 30
0.0
 11
8.4700220312875416
 21
2.8499999999999943
 31
0.0
  0
LINE
  5
C3
100
AcDbEntity
100
AcDbLine
  8
Retainer Plate
 62
256
370
-1
  6
ByLayer
 10
6.9400440494693498
 20
5.5
 30
0.0
 11
8.4700220312875416
 21
8.1500000000000057
 31
0.0
  0
LINE
  5
C4
100
AcDbEntity
100
AcDbLine
  8
Retainer Plate
 62
256
370
-1
  6
ByLayer
 10
8.4700220312875416
 20
8.1500000000000057
 30
0.0
 11
11.5299779687124726
 21
8.1500000000000057
 31
0.0
  0
LINE
  5
C5
100
AcDbEntity
100
AcDbLine
  8
Retainer Plate
 62
256
370
-1
  6
ByLayer
 10
11.5299779687124726
 20
8.1500000000000057
 30
0.0
 11
13.0599559505306502
 21
5.5
 31
0.0
  0
LINE
  5
C6
100
AcDbEntity
100
AcDbLine
  8
Retainer Plate
 62
256
370
-1
  6
ByLayer
 10
8.4700220312875416
 20
2.8499999999999943
 30
0.0
 11
11.5299779687124584
 21
2.8499999999999934
 31
0.0
  0
LINE
  5
C7
100
AcDbEntity
100
AcDbLine
  8
Retainer Plate
 62
256
370
-1
  6
ByLayer
 10
11.5299779687124584
 20
2.8499999999999934
 30
0.0
 11
13.0599559505306502
 21
5.5
 31
0.0
  0
LINE
  5
C8
100
AcDbEntity
100
AcDbLine
  8
Drawings
 62
256
370
-1
  6
ByLayer
 10
29.3750000000000213
 20
74.9999999999999858
 30
0.0
 11
29.3750000000000071
 21
0.4999999999999983
 31
0.0
  0
CIRCLE
  5
C9
100
AcDbEntity
100
AcDbCircle
  8
Motor Plate
 62
256
370
-1
  6
ByLayer
 10
65.0
 20
60.5
 30
0.0
 40
2.3999999999999999
  0
ARC
  5
CA
100
AcDbEntity
  8
Spacer Plate Honeycomb
 62
256
370
-1
  6
ByLayer
100
AcDbCircle
 10
9.75
 20
32.9999745962155728
 30
0.0
 40
8.0000000000000018
100
AcDbArc
 50
76.0629710207463887
 51
126.4235736423311067
  0
LINE
  5
CB
100
AcDbEntity
100
AcDbLine
  8
Spacer Plate Honeycomb
 62
256
370
-1
  6
ByLayer
 10
5.0
 20
65.8253834536241555
 30
0.0
 11
5.0
 21
39.4371711910074509
 31
0.0
  0
ARC
  5
CC
100
AcDbEntity
  8
Spacer Plate Honeycomb
 62
256
370
-1
  6
ByLayer
100
AcDbCircle
 10
25.0
 20
32.9999745962155657
 30
0.0
 40
13.3000000000000007
100
AcDbArc
 50
31.6136183389583323
 51
87.8459598095189875
  0
ARC
  5
CD
100
AcDbEntity
  8
Spacer Plate Honeycomb
 62
256
370
-1
  6
ByLayer
100
AcDbCircle
 10
40.25
 20
32.9999745962155799
 30
0.0
 40
7.9999999999999964
100
AcDbArc
 50
106.3647806991003506
 51
119.3708905814577435
  0
LINE
  5
CE
100
AcDbEntity
100
AcDbLine
  8
Spacer Plate Honeycomb
 62
256
370
-1
  6
ByLayer
 10
16.4492247596126404
 20
70.0
 30
0.0
 11
37.9959862385326161
 21
70.0
 31
0.0
  0
LINE
  5
CF
100
AcDbEntity
100
AcDbLine
  8
Spacer Plate Honeycomb
 62
256
370
-1
  6
ByLayer
 10
37.9959862385326161
 20
70.0
 30
0.0
 11
37.9959862385326161
 21
40.6758733685493965
 31
0.0
  0
LINE
  5
D0
100
AcDbEntity
100
AcDbLine
  8
Spacer Plate Honeycomb
 62
256
370
-1
  6
ByLayer
 10
42.6806192660556007
 20
40.6217913077010309
 30
0.0
 11
42.6806192660556007
 21
70.0
 31
0.0
  0
LINE
  5
D1
100
AcDbEntity
100
AcDbLine
  8
Spacer Plate Honeycomb
 62
256
370
-1
  6
ByLayer
 10
42.6806192660556007
 20
70.0
 30
0.0
 11
65.7007752403874292
 21
70.0
 31
0.0
  0
LINE
  5
D2
100
AcDbEntity
100
AcDbLine
  8
Spacer Plate Honeycomb
 62
256
370
-1
  6
ByLayer
 10
75.0
 20
64.1138095434043009
 30
0.0
 11
75.0
 21
35.25
 31
0.0
  0
LINE
  5
D3
100
AcDbEntity
100
AcDbLine
  8
Spacer Plate Honeycomb
 62
256
370
-1
  6
ByLayer
 10
75.0
 20
30.6573471396398389
 30
0.0
 11
75.0
 21
11.286190456595774
 31
0.0
  0
LINE
  5
D4
100
AcDbEntity
100
AcDbLine
  8
Spacer Plate Honeycomb
 62
256
370
-1
  6
ByLayer
 10
65.7000000000000455
 20
5.5
 30
0.0
 11
42.6806192660556007
 21
5.5
 31
0.0
  0
LINE
  5
D5
100
AcDbEntity
100
AcDbLine
  8
Spacer Plate Honeycomb
 62
256
370
-1
  6
ByLayer
 10
42.6806192660556007
 20
5.5
 30
0.0
 11
42.6806192660556007
 21
25.378157884730129
 31
0.0
  0
LINE
  5
D6
100
AcDbEntity
100
AcDbLine
  8
Spacer Plate Honeycomb
 62
256
370
-1
  6
ByLayer
 10
37.9959862385326161
 20
25.3240758238817634
 30
0.0
 11
37.9959862385326161
 21
5.5
 31
0.0
  0
LINE
  5
D7
100
AcDbEntity
100
AcDbLine
  8
Spacer Plate Honeycomb
 62
256
370
-1
  6
ByLayer
 10
37.9959862385326161
 20
5.5
 30
0.0
 11
16.4500000000000028
 21
5.5
 31
0.0
  0
LINE
  5
D8
100
AcDbEntity
100
AcDbLine
  8
Spacer Plate Honeycomb
 62
256
370
-1
  6
ByLayer
 10
5.0
 20
26.5627780014236947
 30
0.0
 11
5.0
 21
9.5746165463759851
 31
0.0
  0
ARC
  5
D9
100
AcDbEntity
  8
Spacer Plate Honeycomb
 62
256
370
-1
  6
ByLayer
100
AcDbCircle
 10
72.1500000000000057
 20
69.9000000000000057
 30
0.0
 40
6.4499999999999913
100
AcDbArc
 50
179.1116577499624611
 51
296.2226465049216131
  0
ARC
  5
DA
100
AcDbEntity
  8
Spacer Plate Honeycomb
 62
256
370
-1
  6
ByLayer
100
AcDbCircle
 10
72.1500000000000057
 20
5.5
 30
0.0
 40
6.4499999999999966
100
AcDbArc
 50
63.7773534950783656
 51
180.0
  0
ARC
  5
DB
100
AcDbEntity
  8
Spacer Plate Honeycomb
 62
256
370
-1
  6
ByLayer
100
AcDbCircle
 10
40.25
 20
32.9999745962155799
 30
0.0
 40
8.0000000000000018
100
AcDbArc
 50
240.6291094185424413
 51
253.6352193008996494
  0
ARC
  5
DC
100
AcDbEntity
  8
Spacer Plate Honeycomb
 62
256
370
-1
  6
ByLayer
100
AcDbCircle
 10
25.0
 20
32.9999745962155657
 30
0.0
 40
13.3000000000000025
100
AcDbArc
 50
272.1540401904807709
 51
328.386381661041753
  0
ARC
  5
DD
100
AcDbEntity
  8
Spacer Plate Honeycomb
 62
256
370
-1
  6
ByLayer
100
AcDbCircle
 10
9.75
 20
32.9999745962155728
 30
0.0
 40
8.0000000000000089
100
AcDbArc
 50
233.5764263576688222
 51
283.9370289792530002
  0
ARC
  5
DE
100
AcDbEntity
  8
Spacer Plate Honeycomb
 62
256
370
-1
  6
ByLayer
100
AcDbCircle
 10
10.0
 20
5.5
 30
0.0
 40
6.4499999999999984
100
AcDbArc
 50
89.9591649907429769
 51
140.8226063135749371
  0
ARC
  5
DF
100
AcDbEntity
  8
Spacer Plate Honeycomb
 62
256
370
-1
  6
ByLayer
100
AcDbCircle
 10
10.0
 20
5.5
 30
0.0
 40
6.4500000000000028
100
AcDbArc
 50
0.0
 51
34.5236696115239283
  0
ARC
  5
E0
100
AcDbEntity
  8
Spacer Plate Honeycomb
 62
256
370
-1
  6
ByLayer
100
AcDbCircle
 10
17.4999999999999858
 20
19.7499745962155799
 30
0.0
 40
7.9999999999999982
100
AcDbArc
 50
136.7101847458470729
 51
220.2171044640912498
  0
ARC
  5
E1
100
AcDbEntity
  8
Spacer Plate Honeycomb
 62
256
370
-1
  6
ByLayer
100
AcDbCircle
 10
17.4999999999999858
 20
19.7499745962155799
 30
0.0
 40
7.9999999999999991
100
AcDbArc
 50
264.2657301381755701
 51
359.7092079423226778
  0
ARC
  5
E2
100
AcDbEntity
  8
Spacer Plate Honeycomb
 62
256
370
-1
  6
ByLayer
100
AcDbCircle
 10
10.0000000000000071
 20
69.9000000000000199
 30
0.0
 40
6.4499999999999993
100
AcDbArc
 50
219.1773936864241819
 51
259.8773436619745212
  0
ARC
  5
E3
100
AcDbEntity
  8
Spacer Plate Honeycomb
 62
256
370
-1
  6
ByLayer
100
AcDbCircle
 10
10.0000000000000071
 20
69.9000000000000199
 30
0.0
 40
6.4500000000000082
100
AcDbArc
 50
315.3128390411935129
 51
0.888342250037548
  0
ARC
  5
E4
100
AcDbEntity
  8
Spacer Plate Honeycomb
 62
256
370
-1
  6
ByLayer
100
AcDbCircle
 10
17.5000000000000284
 20
46.2499745962155799
 30
0.0
 40
7.9999999999999964
100
AcDbArc
 50
129.6194041886261914
 51
223.2898152541533534
  0
ARC
  5
E5
100
AcDbEntity
  8
Spacer Plate Honeycomb
 62
256
370
-1
  6
ByLayer
100
AcDbCircle
 10
17.5000000000000284
 20
46.2499745962155799
 30
0.0
 40
8.0000000000000018
100
AcDbArc
 50
0.2907920576760297
 51
85.5707785145419422
  0
LINE
  5
E6
100
AcDbEntity
100
AcDbLine
  8
Spacer Plate Honeycomb
 62
256
370
-1
  6
ByLayer
 10
8.8663737213450347
 20
63.5504022599583038
 30
0.0
 11
12.3985207953435008
 21
52.4123531892960983
 31
0.0
  0
LINE
  5
E7
100
AcDbEntity
100
AcDbLine
  8
Spacer Plate Honeycomb
 62
256
370
-1
  6
ByLayer
 10
14.5856731350529074
 20
65.364131626859745
 30
0.0
 11
18.1178202090513736
 21
54.2260825561975537
 31
0.0
  0
LINE
  5
E8
100
AcDbEntity
100
AcDbLine
  8
Spacer Plate Honeycomb
 62
256
370
-1
  6
ByLayer
 10
11.3911735469926114
 20
14.5844892011111344
 30
0.0
 11
10.0045969491932638
 21
11.9499983618647629
 31
0.0
  0
LINE
  5
E9
100
AcDbEntity
100
AcDbLine
  8
Spacer Plate Honeycomb
 62
256
370
-1
  6
ByLayer
 10
16.7006808280529668
 20
11.790006702978955
 30
0.0
 11
15.3141042302536192
 21
9.1555158637325906
 31
0.0
  0
ARC
  5
EA
100
AcDbEntity
  8
Drawings - Honeycomb
 62
256
370
-1
  6
ByLayer
100
AcDbCircle
 10
51.5
 20
32.9999745962155657
 30
0.0
 40
27.0
100
AcDbArc
 50
90.0
 51
162.8241830142433173
  0
LINE
  5
EB
100
AcDbEntity
100
AcDbLine
  8
Drawings - Honeycomb
 62
256
370
-1
  6
ByLayer
 10
51.5
 20
59.9999745962155657
 30
0.0
 11
53.5
 21
59.9999745962155657
 31
0.0
  0
ARC
  5
EC
100
AcDbEntity
  8
Drawings - Honeycomb
 62
256
370
-1
  6
ByLayer
100
AcDbCircle
 10
53.5
 20
32.9999745962155657
 30
0.0
 40
27.0
100
AcDbArc
 50
270.0
 51
90.0
  0
LINE
  5
ED
100
AcDbEntity
100
AcDbLine
  8
Drawings - Honeycomb
 62
256
370
-1
  6
ByLayer
 10
75.0
 20
70.0
 30
0.0
 11
75.0
 21
0.5000000000000018
 31
0.0
  0
LINE
  5
EE
100
AcDbEntity
100
AcDbLine
  8
Drawings - Honeycomb
 62
256
370
-1
  6
ByLayer
 10
5.0
 20
70.0
 30
0.0
 11
75.0
 21
70.0
 31
0.0
  0
LINE
  5
EF
100
AcDbEntity
100
AcDbLine
  8
Drawings - Honeycomb
 62
256
370
-1
  6
ByLayer
 10
5.0
 20
0.4999999999999988
 30
0.0
 11
5.0
 21
70.0
 31
0.0
  0
LINE
  5
F0
100
AcDbEntity
100
AcDbLine
  8
Drawings - Honeycomb
 62
256
370
-1
  6
ByLayer
 10
80.0
 20
5.5
 30
0.0
 11
0.0
 21
5.5
 31
0.0
  0
CIRCLE
  5
F1
100
AcDbEntity
100
AcDbCircle
  8
Drawings - Honeycomb
 62
256
370
-1
  6
ByLayer
 10
10.0
 20
5.5
 30
0.0
 40
6.4500000000000002
  0
LINE
  5
F2
100
AcDbEntity
100
AcDbLine
  8
Drawings - Honeycomb
 62
256
370
-1
  6
ByLayer
 10
20.0750000000000028
 20
-0.5
 30
0.0
 11
17.1750000000000114
 21
-0.5
 31
0.0
  0
LINE
  5
F3
100
AcDbEntity
100
AcDbLine
  8
Drawings - Honeycomb
 62
256
370
-1
  6
ByLayer
 10
80.0
 20
0.5
 30
0.0
 11
0.0
 21
0.5
 31
0.0
  0
CIRCLE
  5
F4
100
AcDbEntity
100
AcDbCircle
  8
Drawings - Honeycomb
 62
256
370
-1
  6
ByLayer
 10
72.1500000000000057
 20
5.5
 30
0.0
 40
6.4500000000000002
  0
LINE
  5
F5
100
AcDbEntity
100
AcDbLine
  8
Drawings - Honeycomb
 62
256
370
-1
  6
ByLayer
 10
51.5
 20
5.9999745962155657
 30
0.0
 11
53.5
 21
5.9999745962155657
 31
0.0
  0
ARC
  5
F6
100
AcDbEntity
  8
Drawings - Honeycomb
 62
256
370
-1
  6
ByLayer
100
AcDbCircle
 10
51.5
 20
32.9999745962155657
 30
0.0
 40
27.0
100
AcDbArc
 50
197.1758169857565974
 51
270.0
  0
ARC
  5
F7
100
AcDbEntity
  8
Drawings - Honeycomb
 62
256
370
-1
  6
ByLayer
100
AcDbCircle
 10
25.0
 20
32.9999745962155799
 30
0.0
 40
13.5
100
AcDbArc
 50
49.8463896084640012
 51
310.1536103915360059
  0
CIRCLE
  5
F8
100
AcDbEntity
100
AcDbCircle
  8
Drawings - Honeycomb
 62
256
370
-1
  6
ByLayer
 10
10.0000000000000071
 20
69.9000000000000199
 30
0.0
 40
6.4500000000000002
  0
CIRCLE
  5
F9
100
AcDbEntity
100
AcDbCircle
  8
Drawings - Honeycomb
 62
256
370
-1
  6
ByLayer
 10
72.1500000000000057
 20
69.9000000000000057
 30
0.0
 40
6.4500000000000002
  0
LINE
  5
FA
100
AcDbEntity
100
AcDbLine
  8
Drawings - Honeycomb
 62
256
370
-1
  6
ByLayer
 10
25.0
 20
32.9999745962155799
 30
0.0
 11
-15.0
 21
32.9999745962155799
 31
0.0
  0
LINE
  5
FB
100
AcDbEntity
100
AcDbLine
  8
Drawings - Honeycomb
 62
256
370
-1
  6
ByLayer
 10
25.0
 20
37.9999745962155799
 30
0.0
 11
-14.9999999999999982
 21
37.9999745962155799
 31
0.0
  0
LINE
  5
FC
100
AcDbEntity
100
AcDbLine
  8
Drawings - Honeycomb
 62
256
370
-1
  6
ByLayer
 10
25.0
 20
27.9999745962155799
 30
0.0
 11
-15.0000000000000018
 21
27.9999745962155799
 31
0.0
  0
LINE
  5
FD
100
AcDbEntity
100
AcDbLine
  8
Filament Guide Top Honeycomb
 62
256
370
-1
  6
ByLayer
 10
25.0750000000000171
 20
5.5
 30
0.0
 11
25.0750000000000455
 21
11.8499999999999943
 31
0.0
  0
LINE
  5
FE
100
AcDbEntity
100
AcDbLine
  8
Filament Guide Top Honeycomb
 62
256
370
-1
  6
ByLayer
 10
75.0000000000000284
 20
64.1138095434042299
 30
0.0
 11
75.0000000000000284
 21
49.3324575672766343
 31
0.0
  0
ARC
  5
FF
100
AcDbEntity
  8
Filament Guide Top Honeycomb
 62
256
370
-1
  6
ByLayer
100
AcDbCircle
 10
72.1500000000000341
 20
69.9000000000000057
 30
0.0
 40
6.4499999999998918
100
AcDbArc
 50
179.1116577499620348
 51
296.2226465049216131
  0
ARC
  5
100
100
AcDbEntity
  8
Filament Guide Top Honeycomb
 62
256
370
-1
  6
ByLayer
100
AcDbCircle
 10
53.5000000000000284
 20
32.9999745962155444
 30
0.0
 40
27.0
100
AcDbArc
 50
37.2221338960613224
 51
90.0
  0
LINE
  5
101
100
AcDbEntity
100
AcDbLine
  8
Filament Guide Top Honeycomb
 62
256
370
-1
  6
ByLayer
 10
53.5000000000000284
 20
59.9999745962155586
 30
0.0
 11
51.5000000000000284
 21
59.9999745962155657
 31
0.0
  0
LINE
  5
102
100
AcDbEntity
100
AcDbLine
  8
Filament Guide Top Honeycomb
 62
256
370
-1
  6
ByLayer
 10
25.0750000000000455
 20
11.8499999999999943
 30
0.0
 11
8.8686291501015262
 21
11.8499999999999943
 31
0.0
  0
ARC
  5
103
100
AcDbEntity
  8
Filament Guide Top Honeycomb
 62
256
370
-1
  6
ByLayer
100
AcDbCircle
 10
10.0000000000000142
 20
5.5
 30
0.0
 40
6.4500000000000002
100
AcDbArc
 50
100.1023050560360872
 51
140.8226063135759034
  0
LINE
  5
104
100
AcDbEntity
100
AcDbLine
  8
Filament Guide Top Honeycomb
 62
256
370
-1
  6
ByLayer
 10
5.0000000000000284
 20
50.5734330202138622
 30
0.0
 11
12.6500000000000057
 21
46.1567041293047708
 31
0.0
  0
LINE
  5
105
100
AcDbEntity
100
AcDbLine
  8
Filament Guide Top Honeycomb
 62
256
370
-1
  6
ByLayer
 10
12.6500000000000057
 20
46.1567041293047708
 30
0.0
 11
12.6500000000000057
 21
38.452267691785508
 31
0.0
  0
LINE
  5
106
100
AcDbEntity
100
AcDbLine
  8
Filament Guide Top Honeycomb
 62
256
370
-1
  6
ByLayer
 10
12.6500000000000057
 20
27.5476815006456519
 30
0.0
 11
12.6500000000000057
 21
19.8432450631263535
 31
0.0
  0
LINE
  5
107
100
AcDbEntity
100
AcDbLine
  8
Filament Guide Top Honeycomb
 62
256
370
-1
  6
ByLayer
 10
12.6500000000000057
 20
19.8432450631263535
 30
0.0
 11
5.0000000000000284
 21
15.4265161722172763
 31
0.0
  0
LINE
  5
108
100
AcDbEntity
100
AcDbLine
  8
Filament Guide Top Honeycomb
 62
256
370
-1
  6
ByLayer
 10
5.0000000000000284
 20
15.4265161722172763
 30
0.0
 11
5.0000000000000284
 21
9.5746165463758679
 31
0.0
  0
LINE
  5
109
100
AcDbEntity
100
AcDbLine
  8
Drawings - Honeycomb
 62
256
370
-1
  6
ByLayer
 10
37.6250000000000071
 20
18.5263995368185199
 30
0.0
 11
37.6250000000000071
 21
0.4999999999999887
 31
0.0
  0
LINE
  5
10A
100
AcDbEntity
100
AcDbLine
  8
Drawings - Honeycomb
 62
256
370
-1
  6
ByLayer
 10
24.3750000000000071
 20
24.1196944767598964
 30
0.0
 11
24.375
 21
0.4999999999999882
 31
0.0
  0
LINE
  5
10B
100
AcDbEntity
100
AcDbLine
  8
Drawings - Honeycomb
 62
256
370
-1
  6
ByLayer
 10
24.3750000000000142
 20
74.9999999999999858
 30
0.0
 11
24.3750000000000142
 21
40.2875925197897544
 31
0.0
  0
LINE
  5
10C
100
AcDbEntity
100
AcDbLine
  8
Drawings - Honeycomb
 62
256
370
-1
  6
ByLayer
 10
37.6250000000000142
 20
74.9999999999999858
 30
0.0
 11
37.6250000000000142
 21
44.3019379212312998
 31
0.0
  0
ARC
  5
10D
100
AcDbEntity
  8
Filament Guide Top Honeycomb
 62
256
370
-1
  6
ByLayer
100
AcDbCircle
 10
25.0000000000000284
 20
32.9999745962155799
 30
0.0
 40
13.5000000000000018
100
AcDbArc
 50
79.8674542309601776
 51
156.1794419776694269
  0
LINE
  5
10E
100
AcDbEntity
100
AcDbLine
  8
Filament Guide Top Honeycomb
 62
256
370
-1
  6
ByLayer
 10
27.3750000000000142
 20
70.0
 30
0.0
 11
27.3750000000000142
 21
46.2894205967078562
 31
0.0
  0
LINE
  5
10F
100
AcDbEntity
100
AcDbLine
  8
Filament Guide Top Honeycomb
 62
256
370
-1
  6
ByLayer
 10
27.3750000000000142
 20
70.0
 30
0.0
 11
16.4492247596126191
 21
70.0
 31
0.0
  0
LINE
  5
110
100
AcDbEntity
100
AcDbLine
  8
Filament Guide Top Honeycomb
 62
256
370
-1
  6
ByLayer
 10
34.6250000000000142
 20
70.0
 30
0.0
 11
65.7007752403875429
 21
70.0
 31
0.0
  0
LINE
  5
111
100
AcDbEntity
100
AcDbLine
  8
Filament Guide Top Honeycomb
 62
256
370
-1
  6
ByLayer
 10
34.6250000000000142
 20
70.0
 30
0.0
 11
34.6250000000000142
 21
54.0768428408101371
 31
0.0
  0
ARC
  5
112
100
AcDbEntity
  8
Filament Guide Top Honeycomb
 62
256
370
-1
  6
ByLayer
100
AcDbCircle
 10
51.5000000000000284
 20
32.9999745962155586
 30
0.0
 40
26.9999999999999964
100
AcDbArc
 50
90.0
 51
128.6821874534894619
  0
ARC
  5
113
100
AcDbEntity
  8
Filament Guide Top Honeycomb
 62
256
370
-1
  6
ByLayer
100
AcDbCircle
 10
25.0000000000000284
 20
32.9999745962155799
 30
0.0
 40
13.5000000000000018
100
AcDbArc
 50
203.8205580223305731
 51
280.1325457690397798
  0
LINE
  5
114
100
AcDbEntity
100
AcDbLine
  8
Filament Guide Top Honeycomb
 62
256
370
-1
  6
ByLayer
 10
27.3750000000000071
 20
19.7105285957233036
 30
0.0
 11
27.375
 21
5.4999999999999973
 31
0.0
  0
LINE
  5
115
100
AcDbEntity
100
AcDbLine
  8
Filament Guide Top Honeycomb
 62
256
370
-1
  6
ByLayer
 10
25.0750000000000171
 20
5.5
 30
0.0
 11
27.375
 21
5.4999999999999973
 31
0.0
  0
MTEXT
  5
116
100
AcDbEntity
100
AcDbMText
  8
Spacer Plate Text
 62
256
370
-1
  6
ByLayer
 10
41.0
 20
72.5
 30
0.0
 40
3.0
 41
100.0
 71
5
 72
2
  1
Spacer\~Plate
  7
standard
 50
0.0
 73
1
 44
1.0
  0
MTEXT
  5
117
100
AcDbEntity
100
AcDbMText
  8
Filament Guide Top Text
 62
256
370
-1
  6
ByLayer
 10
41.0
 20
72.5
 30
0.0
 40
2.0
 41
100.0
 71
5
 72
2
  1
Filament\~Guide\~Top
  7
standard
 50
0.0
 73
1
 44
1.0
  0
MTEXT
  5
118
100
AcDbEntity
100
AcDbMText
  8
Filament Guide Middle Text
 62
256
370
-1
  6
ByLayer
 10
53.0
 20
72.5
 30
0.0
 40
2.0
 41
100.0
 71
5
 72
2
  1
Filament\~Guide\~Middle
  7
standard
 50
0.0
 73
1
 44
1.0
  0
MTEXT
  5
119
100
AcDbEntity
100
AcDbMText
  8
Filament Guide Middle Text
 62
256
370
-1
  6
ByLayer
 10
1.0
 20
33.5
 30
0.0
 40
2.0
 41
100.0
 71
4
 72
2
  1
Filament\PGuide\PMiddle
  7
standard
 50
0.0
 73
1
 44
1.0
  0
LINE
  5
11A
100
AcDbEntity
100
AcDbLine
  8
Filament Guide Bottom Honeycomb
 62
256
370
-1
  6
ByLayer
 10
74.9999999999999716
 20
64.1138095434042299
 30
0.0
 11
74.9999999999999716
 21
49.3324575672766485
 31
0.0
  0
ARC
  5
11B
100
AcDbEntity
  8
Filament Guide Bottom Honeycomb
 62
256
370
-1
  6
ByLayer
100
AcDbCircle
 10
72.1500000000000057
 20
69.9000000000000199
 30
0.0
 40
6.4499999999998918
100
AcDbArc
 50
179.1116577499620348
 51
296.2226465049216131
  0
ARC
  5
11C
100
AcDbEntity
  8
Filament Guide Bottom Honeycomb
 62
256
370
-1
  6
ByLayer
100
AcDbCircle
 10
53.4999999999999716
 20
32.9999745962155444
 30
0.0
 40
27.0
100
AcDbArc
 50
37.2221338960613224
 51
90.0
  0
LINE
  5
11D
100
AcDbEntity
100
AcDbLine
  8
Filament Guide Bottom Honeycomb
 62
256
370
-1
  6
ByLayer
 10
53.5
 20
59.9999745962155657
 30
0.0
 11
51.4999999999999716
 21
59.9999745962155799
 31
0.0
  0
ARC
  5
11E
100
AcDbEntity
  8
Filament Guide Bottom Honeycomb
 62
256
370
-1
  6
ByLayer
100
AcDbCircle
 10
10.0
 20
69.9000000000000199
 30
0.0
 40
6.4500000000000126
100
AcDbArc
 50
219.1773936864242387
 51
0.888342250037548
  0
LINE
  5
11F
100
AcDbEntity
100
AcDbLine
  8
Filament Guide Bottom Honeycomb
 62
256
370
-1
  6
ByLayer
 10
16.4492247596125907
 20
70.0
 30
0.0
 11
24.3750000000000142
 21
70.0
 31
0.0
  0
LINE
  5
120
100
AcDbEntity
100
AcDbLine
  8
Filament Guide Bottom Honeycomb
 62
256
370
-1
  6
ByLayer
 10
37.6250000000000142
 20
70.0
 30
0.0
 11
65.7007752403876424
 21
70.0
 31
0.0
  0
LINE
  5
121
100
AcDbEntity
100
AcDbLine
  8
Filament Guide Bottom Honeycomb
 62
256
370
-1
  6
ByLayer
 10
5.0
 20
9.5746165463758679
 30
0.0
 11
5.0
 21
27.9999745962155799
 31
0.0
  0
LINE
  5
122
100
AcDbEntity
100
AcDbLine
  8
Filament Guide Bottom Honeycomb
 62
256
370
-1
  6
ByLayer
 10
24.3750000000000142
 20
70.0
 30
0.0
 11
24.3750000000000142
 21
46.4854992430359601
 31
0.0
  0
ARC
  5
123
100
AcDbEntity
  8
Filament Guide Bottom Honeycomb
 62
256
370
-1
  6
ByLayer
100
AcDbCircle
 10
51.5
 20
32.9999745962155657
 30
0.0
 40
26.9999999999999964
100
AcDbArc
 50
90.0
 51
120.92321565535525
  0
LINE
  5
124
100
AcDbEntity
100
AcDbLine
  8
Filament Guide Bottom Honeycomb
 62
256
370
-1
  6
ByLayer
 10
37.6250000000000142
 20
56.1621069462389571
 30
0.0
 11
37.6250000000000142
 21
70.0
 31
0.0
  0
ARC
  5
125
100
AcDbEntity
  8
Filament Guide Bottom Honeycomb
 62
256
370
-1
  6
ByLayer
100
AcDbCircle
 10
24.9999999999999716
 20
32.999974596215587
 30
0.0
 40
13.5000000000000018
100
AcDbArc
 50
201.7384607915205095
 51
267.3464691325942795
  0
LINE
  5
126
100
AcDbEntity
100
AcDbLine
  8
Filament Guide Bottom Honeycomb
 62
256
370
-1
  6
ByLayer
 10
12.4600637960155183
 20
27.9999745962155799
 30
0.0
 11
5.0
 21
27.9999745962155799
 31
0.0
  0
LINE
  5
127
100
AcDbEntity
100
AcDbLine
  8
Filament Guide Bottom Honeycomb
 62
256
370
-1
  6
ByLayer
 10
5.0
 20
65.8253834536241271
 30
0.0
 11
5.0
 21
37.9999745962155799
 31
0.0
  0
MTEXT
  5
128
100
AcDbEntity
100
AcDbMText
  8
Filament Guide Bottom Text
 62
256
370
-1
  6
ByLayer
 10
37.0
 20
72.5
 30
0.0
 40
2.0
 41
100.0
 71
5
 72
2
  1
Filament\~Guide\~Bottom
  7
standard
 50
0.0
 73
1
 44
1.0
  0
ARC
  5
129
100
AcDbEntity
  8
Filament Guide Top Honeycomb
 62
256
370
-1
  6
ByLayer
100
AcDbCircle
 10
10.0000000000000284
 20
69.9000000000000057
 30
0.0
 40
6.4500000000000126
100
AcDbArc
 50
219.1773936864244376
 51
0.888342250037548
  0
LINE
  5
12A
100
AcDbEntity
100
AcDbLine
  8
Filament Guide Top Honeycomb
 62
256
370
-1
  6
ByLayer
 10
5.0000000000000284
 20
50.5734330202138622
 30
0.0
 11
5.0000000000000284
 21
65.8253834536241129
 31
0.0
  0
LINE
  5
12B
100
AcDbEntity
100
AcDbLine
  8
Filament Guide Bottom
 62
256
370
-1
  6
ByLayer
 10
42.4249999999999972
 20
6.799999999999998
 30
0.0
 11
45.3250000000000028
 21
6.799999999999998
 31
0.0
  0
LINE
  5
12C
100
AcDbEntity
100
AcDbLine
  8
Filament Guide Bottom
 62
256
370
-1
  6
ByLayer
 10
45.3250000000000028
 20
6.799999999999998
 30
0.0
 11
45.3250000000000028
 21
4.5
 31
0.0
  0
LINE
  5
12D
100
AcDbEntity
100
AcDbLine
  8
Filament Guide Bottom
 62
256
370
-1
  6
ByLayer
 10
45.3250000000000028
 20
4.5
 30
0.0
 11
42.4249999999999972
 21
4.5
 31
0.0
  0
LINE
  5
12E
100
AcDbEntity
100
AcDbLine
  8
Filament Guide Bottom
 62
256
370
-1
  6
ByLayer
 10
42.4249999999999972
 20
4.5
 30
0.0
 11
42.4249999999999972
 21
6.799999999999998
 31
0.0
  0
LINE
  5
12F
100
AcDbEntity
100
AcDbLine
  8
Filament Guide Bottom
 62
256
370
-1
  6
ByLayer
 10
20.0750000000000028
 20
6.8499999999999996
 30
0.0
 11
17.1750000000000114
 21
6.8499999999999996
 31
0.0
  0
LINE
  5
130
100
AcDbEntity
100
AcDbLine
  8
Filament Guide Bottom
 62
256
370
-1
  6
ByLayer
 10
17.1750000000000114
 20
6.8499999999999996
 30
0.0
 11
17.1750000000000114
 21
4.5
 31
0.0
  0
LINE
  5
131
100
AcDbEntity
100
AcDbLine
  8
Filament Guide Bottom
 62
256
370
-1
  6
ByLayer
 10
17.1750000000000114
 20
4.5
 30
0.0
 11
20.0750000000000028
 21
4.5
 31
0.0
  0
LINE
  5
132
100
AcDbEntity
100
AcDbLine
  8
Filament Guide Bottom
 62
256
370
-1
  6
ByLayer
 10
20.0750000000000028
 20
4.5
 30
0.0
 11
20.0750000000000028
 21
6.8499999999999996
 31
0.0
  0
ARC
  5
133
100
AcDbEntity
  8
Filament Guide Bottom Honeycomb
 62
256
370
-1
  6
ByLayer
100
AcDbCircle
 10
10.0
 20
5.5
 30
0.0
 40
6.4500000000000002
100
AcDbArc
 50
31.2906619124737198
 51
140.8226063135757329
  0
LINE
  5
134
100
AcDbEntity
100
AcDbLine
  8
Filament Guide Bottom Honeycomb
 62
256
370
-1
  6
ByLayer
 10
24.375
 20
8.8499999999999996
 30
0.0
 11
24.3750000000000071
 21
19.5144499493951962
 31
0.0
  0
CIRCLE
  5
135
100
AcDbEntity
100
AcDbCircle
  8
Motor Plate
 62
256
370
-1
  6
ByLayer
 10
21.0
 20
60.5
 30
0.0
 40
2.3999999999999999
  0
ARC
  5
136
100
AcDbEntity
  8
Filament Guide Bottom Honeycomb
 62
256
370
-1
  6
ByLayer
100
AcDbCircle
 10
24.9999999999999716
 20
32.999974596215587
 30
0.0
 40
13.5000000000000018
100
AcDbArc
 50
92.6535308674056637
 51
158.2615392084795758
  0
LINE
  5
137
100
AcDbEntity
100
AcDbLine
  8
Filament Guide Bottom Honeycomb
 62
256
370
-1
  6
ByLayer
 10
5.0
 20
37.9999745962155799
 30
0.0
 11
12.4600637960155112
 21
37.9999745962155799
 31
0.0
  0
CIRCLE
  5
138
100
AcDbEntity
100
AcDbCircle
  8
Spacer Plate
 62
256
370
-1
  6
ByLayer
 10
24.5000000000000071
 20
32.9999745962155657
 30
0.0
 40
8.5
  0
CIRCLE
  5
139
100
AcDbEntity
100
AcDbCircle
  8
Retainer Plate
 62
256
370
-1
  6
ByLayer
 10
24.5000000000000071
 20
32.9999745962155657
 30
0.0
 40
3.1000000000000001
  0
LINE
  5
13A
100
AcDbEntity
100
AcDbLine
  8
Drawings
 62
256
370
-1
  6
ByLayer
 10
24.5000000000000071
 20
5.5
 30
0.0
 11
24.5000000000000142
 21
69.9000000000000057
 31
0.0
  0
CIRCLE
  5
13B
100
AcDbEntity
100
AcDbCircle
  8
Motor Plate
 62
256
370
-1
  6
ByLayer
 10
24.5000000000000071
 20
32.9999745962155657
 30
0.0
 40
8.5
  0
CIRCLE
  5
13C
100
AcDbEntity
100
AcDbCircle
  8
Motor Plate
 62
256
370
-1
  6
ByLayer
 10
40.0
 20
32.9999745962155657
 30
0.0
 40
1.3999999999999999
  0
CIRCLE
  5
13D
100
AcDbEntity
100
AcDbCircle
  8
Motor Plate
 62
256
370
-1
  6
ByLayer
 10
9.0000000000000071
 20
32.9999745962155657
 30
0.0
 40
1.3999999999999999
  0
CIRCLE
  5
13E
100
AcDbEntity
100
AcDbCircle
  8
Motor Plate
 62
256
370
-1
  6
ByLayer
 10
16.7500000000000142
 20
19.5765808375567616
 30
0.0
 40
1.3999999999999999
  0
CIRCLE
  5
13F
100
AcDbEntity
100
AcDbCircle
  8
Motor Plate
 62
256
370
-1
  6
ByLayer
 10
16.7500000000000142
 20
46.4233683548743699
 30
0.0
 40
1.3999999999999999
  0
LINE
  5
140
100
AcDbEntity
100
AcDbLine
  8
Drawings
 62
256
370
-1
  6
ByLayer
 10
32.3750000000000213
 20
74.9999999999999858
 30
0.0
 11
32.3750000000000071
 21
0.4999999999999976
 31
0.0
  0
MTEXT
  5
141
100
AcDbEntity
100
AcDbMText
  8
Idler Wheel Text
 62
256
370
-1
  6
ByLayer
 10
53.1250000000000142
 20
18.5
 30
0.0
 40
3.0
 41
100.0
 71
5
 72
2
  1
Wheel
  7
standard
 50
0.0
 73
1
 44
1.0
  0
MTEXT
  5
142
100
AcDbEntity
100
AcDbMText
  8
Idler Wheel Text
 62
256
370
-1
  6
ByLayer
 10
53.1250000000000142
 20
47.5
 30
0.0
 40
3.0
 41
100.0
 71
5
 72
2
  1
Idler
  7
standard
 50
0.0
 73
1
 44
1.0
  0
CIRCLE
  5
143
100
AcDbEntity
100
AcDbCircle
  8
Idler Wheel
 62
256
370
-1
  6
ByLayer
 10
52.6250000000000142
 20
32.9999745962155657
 30
0.0
 40
10.9499999999999993
  0
CIRCLE
  5
144
100
AcDbEntity
100
AcDbCircle
  8
Idler Wheel
 62
256
370
-1
  6
ByLayer
 10
52.6250000000000142
 20
32.9999745962155657
 30
0.0
 40
20.5
  0
ARC
  5
145
100
AcDbEntity
  8
Motor Plate
 62
256
370
-1
  6
ByLayer
100
AcDbCircle
 10
52.6250000000000142
 20
32.9999745962155657
 30
0.0
 40
4.0
100
AcDbArc
 50
90.0
 51
270.0
  0
LINE
  5
146
100
AcDbEntity
100
AcDbLine
  8
Motor Plate
 62
256
370
-1
  6
ByLayer
 10
52.6250000000000142
 20
36.9999745962155657
 30
0.0
 11
54.6250000000000142
 21
36.9999745962155657
 31
0.0
  0
ARC
  5
147
100
AcDbEntity
  8
Motor Plate
 62
256
370
-1
  6
ByLayer
100
AcDbCircle
 10
54.6250000000000142
 20
32.9999745962155515
 30
0.0
 40
4.0
100
AcDbArc
 50
270.0
 51
90.0
  0
LINE
  5
148
100
AcDbEntity
100
AcDbLine
  8
Motor Plate
 62
256
370
-1
  6
ByLayer
 10
54.6250000000000142
 20
28.9999745962155657
 30
0.0
 11
52.6250000000000142
 21
28.9999745962155657
 31
0.0
  0
ARC
  5
149
100
AcDbEntity
  8
Retainer Plate
 62
256
370
-1
  6
ByLayer
100
AcDbCircle
 10
52.6250000000000142
 20
32.9999745962155657
 30
0.0
 40
4.0
100
AcDbArc
 50
90.0
 51
270.0
  0
LINE
  5
14A
100
AcDbEntity
100
AcDbLine
  8
Retainer Plate
 62
256
370
-1
  6
ByLayer
 10
52.6250000000000142
 20
36.9999745962155657
 30
0.0
 11
54.6250000000000142
 21
36.9999745962155657
 31
0.0
  0
ARC
  5
14B
100
AcDbEntity
  8
Retainer Plate
 62
256
370
-1
  6
ByLayer
100
AcDbCircle
 10
54.6250000000000142
 20
32.9999745962155657
 30
0.0
 40
4.0
100
AcDbArc
 50
270.0
 51
90.0
  0
LINE
  5
14C
100
AcDbEntity
100
AcDbLine
  8
Retainer Plate
 62
256
370
-1
  6
ByLayer
 10
54.6250000000000142
 20
28.9999745962155657
 30
0.0
 11
52.6250000000000142
 21
28.9999745962155657
 31
0.0
  0
ARC
  5
14D
100
AcDbEntity
  8
Spacer Plate
 62
256
370
-1
  6
ByLayer
100
AcDbCircle
 10
52.6250000000000142
 20
32.9999745962155657
 30
0.0
 40
4.0
100
AcDbArc
 50
90.0
 51
270.0
  0
LINE
  5
14E
100
AcDbEntity
100
AcDbLine
  8
Spacer Plate
 62
256
370
-1
  6
ByLayer
 10
52.6250000000000142
 20
36.9999745962155728
 30
0.0
 11
54.6250000000000142
 21
36.9999745962155728
 31
0.0
  0
ARC
  5
14F
100
AcDbEntity
  8
Spacer Plate
 62
256
370
-1
  6
ByLayer
100
AcDbCircle
 10
54.6250000000000142
 20
32.9999745962155657
 30
0.0
 40
4.0
100
AcDbArc
 50
270.0
 51
90.0
  0
LINE
  5
150
100
AcDbEntity
100
AcDbLine
  8
Spacer Plate
 62
256
370
-1
  6
ByLayer
 10
54.6250000000000142
 20
28.9999745962155728
 30
0.0
 11
52.6250000000000142
 21
28.9999745962155728
 31
0.0
  0
LINE
  5
151
100
AcDbEntity
100
AcDbLine
  8
Spacer Plate Honeycomb
 62
256
370
-1
  6
ByLayer
 10
52.6250000000000142
 20
41.9999745962155728
 30
0.0
 11
54.6250000000000142
 21
41.9999745962155728
 31
0.0
  0
LINE
  5
152
100
AcDbEntity
100
AcDbLine
  8
Spacer Plate Honeycomb
 62
256
370
-1
  6
ByLayer
 10
54.6250000000000142
 20
23.9999745962155728
 30
0.0
 11
52.6250000000000142
 21
23.9999745962155728
 31
0.0
  0
ARC
  5
153
100
AcDbEntity
  8
Spacer Plate Honeycomb
 62
256
370
-1
  6
ByLayer
100
AcDbCircle
 10
52.6250000000000142
 20
32.9999745962155657
 30
0.0
 40
9.0
100
AcDbArc
 50
90.0
 51
139.8020163421358006
  0
ARC
  5
154
100
AcDbEntity
  8
Spacer Plate Honeycomb
 62
256
370
-1
  6
ByLayer
100
AcDbCircle
 10
40.25
 20
32.9999745962155799
 30
0.0
 40
8.0000000000000018
100
AcDbArc
 50
46.5612368143658202
 51
72.3123681123015984
  0
ARC
  5
155
100
AcDbEntity
  8
Spacer Plate Honeycomb
 62
256
370
-1
  6
ByLayer
100
AcDbCircle
 10
52.6250000000000142
 20
32.9999745962155657
 30
0.0
 40
8.9999999999999929
100
AcDbArc
 50
220.1979836578641141
 51
270.0
  0
ARC
  5
156
100
AcDbEntity
  8
Spacer Plate Honeycomb
 62
256
370
-1
  6
ByLayer
100
AcDbCircle
 10
40.25
 20
32.9999745962155799
 30
0.0
 40
7.9999999999999956
100
AcDbArc
 50
287.6876318876983305
 51
313.4387631856341159
  0
LINE
  5
157
100
AcDbEntity
100
AcDbLine
  8
Spacer Plate Honeycomb
 62
256
370
-1
  6
ByLayer
 10
63.3147696517052623
 20
30.6573471396398389
 30
0.0
 11
75.0
 21
30.6573471396398389
 31
0.0
  0
ARC
  5
158
100
AcDbEntity
  8
Spacer Plate Honeycomb
 62
256
370
-1
  6
ByLayer
100
AcDbCircle
 10
54.6250000000000142
 20
32.9999745962155657
 30
0.0
 40
9.0
100
AcDbArc
 50
270.0
 51
344.9126144914360452
  0
ARC
  5
159
100
AcDbEntity
  8
Spacer Plate Honeycomb
 62
256
370
-1
  6
ByLayer
100
AcDbCircle
 10
54.6250000000000142
 20
32.9999745962155657
 30
0.0
 40
9.0000000000000071
100
AcDbArc
 50
14.4776792153860931
 51
90.0
  0
LINE
  5
15A
100
AcDbEntity
100
AcDbLine
  8
Spacer Plate Honeycomb
 62
256
370
-1
  6
ByLayer
 10
75.0
 20
35.25
 30
0.0
 11
63.3392059696982699
 21
35.25
 31
0.0
  0
ARC
  5
15B
100
AcDbEntity
  8
Filament Guide Bottom
 62
256
370
-1
  6
ByLayer
100
AcDbCircle
 10
54.6250000000000142
 20
32.9999745962155657
 30
0.0
 40
21.0
100
AcDbArc
 50
270.0
 51
90.0
  0
LINE
  5
15C
100
AcDbEntity
100
AcDbLine
  8
Filament Guide Bottom
 62
256
370
-1
  6
ByLayer
 10
52.6250000000000142
 20
53.9999745962155657
 30
0.0
 11
54.6250000000000142
 21
53.9999745962155657
 31
0.0
  0
LINE
  5
15D
100
AcDbEntity
100
AcDbLine
  8
Filament Guide Bottom
 62
256
370
-1
  6
ByLayer
 10
52.6250000000000142
 20
11.9999745962155657
 30
0.0
 11
54.6250000000000142
 21
11.9999745962155657
 31
0.0
  0
ARC
  5
15E
100
AcDbEntity
  8
Filament Guide Bottom
 62
256
370
-1
  6
ByLayer
100
AcDbCircle
 10
52.6250000000000142
 20
32.9999745962155657
 30
0.0
 40
21.0
100
AcDbArc
 50
90.0
 51
169.0556864466705349
  0
ARC
  5
15F
100
AcDbEntity
  8
Filament Guide Bottom
 62
256
370
-1
  6
ByLayer
100
AcDbCircle
 10
52.6250000000000142
 20
32.9999745962155657
 30
0.0
 40
21.0
100
AcDbArc
 50
190.9443135533294651
 51
270.0
  0
ARC
  5
160
100
AcDbEntity
  8
Filament Guide Bottom
 62
256
370
-1
  6
ByLayer
100
AcDbCircle
 10
24.5000000000000071
 20
32.9999745962155657
 30
0.0
 40
8.5
100
AcDbArc
 50
27.97285261612722
 51
332.0271473838727729
  0
LINE
  5
161
100
AcDbEntity
100
AcDbLine
  8
Filament Guide Bottom Honeycomb
 62
256
370
-1
  6
ByLayer
 10
15.5118055118082694
 20
8.8499999999999996
 30
0.0
 11
24.375
 21
8.8499999999999996
 31
0.0
  0
ARC
  5
162
100
AcDbEntity
  8
Filament Guide Top
 62
256
370
-1
  6
ByLayer
100
AcDbCircle
 10
54.6250000000000142
 20
32.9999745962155657
 30
0.0
 40
21.0
100
AcDbArc
 50
270.0
 51
90.0
  0
LINE
  5
163
100
AcDbEntity
100
AcDbLine
  8
Filament Guide Top
 62
256
370
-1
  6
ByLayer
 10
52.6250000000000142
 20
53.9999745962155657
 30
0.0
 11
54.6250000000000426
 21
53.9999745962155657
 31
0.0
  0
LINE
  5
164
100
AcDbEntity
100
AcDbLine
  8
Filament Guide Top
 62
256
370
-1
  6
ByLayer
 10
52.6250000000000142
 20
11.9999745962155693
 30
0.0
 11
54.6250000000000142
 21
11.9999745962155657
 31
0.0
  0
ARC
  5
165
100
AcDbEntity
  8
Filament Guide Top
 62
256
370
-1
  6
ByLayer
100
AcDbCircle
 10
52.6250000000000142
 20
32.9999745962155657
 30
0.0
 40
21.0
100
AcDbArc
 50
90.0
 51
169.0556864466705917
  0
ARC
  5
166
100
AcDbEntity
  8
Filament Guide Top
 62
256
370
-1
  6
ByLayer
100
AcDbCircle
 10
52.6250000000000142
 20
32.9999745962155657
 30
0.0
 40
21.0
100
AcDbArc
 50
190.9443135533293514
 51
270.0
  0
ARC
  5
167
100
AcDbEntity
  8
Filament Guide Top
 62
256
370
-1
  6
ByLayer
100
AcDbCircle
 10
24.4999999999999787
 20
32.9999745962155657
 30
0.0
 40
8.5
100
AcDbArc
 50
27.9728526161269357
 51
332.027147383873114
  0
MTEXT
  5
168
100
AcDbEntity
100
AcDbMText
  8
Text
 62
256
370
-1
  6
ByLayer
 10
85.0
 20
64.7666666666666657
 30
0.0
 40
3.0
 41
100.0
 71
1
 72
2
  3
make.rrrf.org/pwe-1.2\P\PMotor\~Plate\~-\~1/4"\~acrylic\PFilament\~Guide\~Middle\~-\~3/16"\~acrylic\PFilament\~Guide\~Bottom\~-\~1/8"\~acrylic\PFilament\~Guide\~Top\~-\~1/8"\~acrylic\PIdler\~Wheel\~-\~1/8"\~acrylic\PRetainer\~Plate\~-\~1/8"\~acrylic\
  1
PSpacer\~Plate\~-\~1/8"\~acrylic
  7
standard
 50
0.0
 73
1
 44
1.0
  0
MTEXT
  5
169
100
AcDbEntity
100
AcDbMText
  8
Text
 62
256
370
-1
  6
ByLayer
 10
85.0
 20
70.7666666666666657
 30
0.0
 40
4.0
 41
100.0
 71
1
 72
2
  1
Pinch\~Wheel\~Extruder\~v1.2
  7
standard
 50
0.0
 73
1
 44
1.0
  0
MTEXT
  5
16A
100
AcDbEntity
100
AcDbMText
  8
Retainer Plate Text
 62
256
370
-1
  6
ByLayer
 10
42.5
 20
64.9000000000000057
 30
0.0
 40
3.0
 41
100.0
 71
5
 72
2
  1
Pinch\~Wheel\~Extruder\~v1.2
  7
standard
 50
0.0
 73
1
 44
1.0
  0
MTEXT
  5
16B
100
AcDbEntity
100
AcDbMText
  8
Retainer Plate Text
 62
256
370
-1
  6
ByLayer
 10
16.0000000000000071
 20
61.9000000000000057
 30
0.0
 40
2.0
 41
100.0
 71
1
 72
2
  1
make.rrrf.org/pwe-1.2
  7
standard
 50
0.0
 73
1
 44
1.0
  0
CIRCLE
  5
16C
100
AcDbEntity
100
AcDbCircle
  8
Filament Guide Middle
 62
256
370
-1
  6
ByLayer
 10
10.0
 20
5.5000000000000142
 30
0.0
 40
1.45
  0
CIRCLE
  5
16D
100
AcDbEntity
100
AcDbCircle
  8
Filament Guide Middle
 62
256
370
-1
  6
ByLayer
 10
10.0000000000000284
 20
69.9000000000000057
 30
0.0
 40
1.45
  0
CIRCLE
  5
16E
100
AcDbEntity
100
AcDbCircle
  8
Filament Guide Middle
 62
256
370
-1
  6
ByLayer
 10
72.1500000000000341
 20
69.8999999999999773
 30
0.0
 40
1.45
  0
CIRCLE
  5
16F
100
AcDbEntity
100
AcDbCircle
  8
Filament Guide Middle
 62
256
370
-1
  6
ByLayer
 10
72.1500000000000341
 20
5.4999999999999716
 30
0.0
 40
1.45
  0
ARC
  5
170
100
AcDbEntity
  8
Filament Guide Middle
 62
256
370
-1
  6
ByLayer
100
AcDbCircle
 10
75.0000000000000284
 20
69.9999999999999716
 30
0.0
 40
5.0
100
AcDbArc
 50
0.0
 51
90.0
  0
ARC
  5
171
100
AcDbEntity
  8
Filament Guide Middle
 62
256
370
-1
  6
ByLayer
100
AcDbCircle
 10
5.0000000000000284
 20
69.9999999999999716
 30
0.0
 40
5.0
100
AcDbArc
 50
90.0
 51
180.0
  0
CIRCLE
  5
172
100
AcDbEntity
100
AcDbCircle
  8
Filament Guide Middle
 62
256
370
-1
  6
ByLayer
 10
5.0000000000000284
 20
41.7399745962155393
 30
0.0
 40
1.45
  0
CIRCLE
  5
173
100
AcDbEntity
100
AcDbCircle
  8
Filament Guide Middle
 62
256
370
-1
  6
ByLayer
 10
5.0000000000000284
 20
24.2599745962155993
 30
0.0
 40
1.45
  0
LINE
  5
174
100
AcDbEntity
100
AcDbLine
  8
Filament Guide Middle
 62
256
370
-1
  6
ByLayer
 10
46.5250000000000057
 20
6.7999999999999972
 30
0.0
 11
46.5250000000000341
 21
4.5
 31
0.0
  0
LINE
  5
175
100
AcDbEntity
100
AcDbLine
  8
Filament Guide Middle
 62
256
370
-1
  6
ByLayer
 10
41.2250000000000227
 20
6.7999999999999972
 30
0.0
 11
41.2250000000000227
 21
4.5
 31
0.0
  0
LINE
  5
176
100
AcDbEntity
100
AcDbLine
  8
Filament Guide Middle
 62
256
370
-1
  6
ByLayer
 10
42.4250000000000114
 20
6.7999999999999972
 30
0.0
 11
41.2250000000000227
 21
6.7999999999999972
 31
0.0
  0
LINE
  5
177
100
AcDbEntity
100
AcDbLine
  8
Filament Guide Middle
 62
256
370
-1
  6
ByLayer
 10
45.3250000000000171
 20
6.7999999999999972
 30
0.0
 11
46.5250000000000057
 21
6.7999999999999972
 31
0.0
  0
LINE
  5
178
100
AcDbEntity
100
AcDbLine
  8
Filament Guide Middle
 62
256
370
-1
  6
ByLayer
 10
21.2750000000000057
 20
6.8500000000000085
 30
0.0
 11
21.2750000000000057
 21
4.5000000000000142
 31
0.0
  0
LINE
  5
179
100
AcDbEntity
100
AcDbLine
  8
Filament Guide Middle
 62
256
370
-1
  6
ByLayer
 10
15.9750000000000227
 20
6.8500000000000369
 30
0.0
 11
15.9750000000000512
 21
4.5
 31
0.0
  0
LINE
  5
17A
100
AcDbEntity
100
AcDbLine
  8
Filament Guide Middle
 62
256
370
-1
  6
ByLayer
 10
15.9750000000000227
 20
6.8500000000000369
 30
0.0
 11
17.1750000000000114
 21
6.8500000000000227
 31
0.0
  0
LINE
  5
17B
100
AcDbEntity
100
AcDbLine
  8
Filament Guide Middle
 62
256
370
-1
  6
ByLayer
 10
20.0750000000000455
 20
6.8499999999999943
 30
0.0
 11
21.2750000000000057
 21
6.8500000000000085
 31
0.0
  0
LINE
  5
17C
100
AcDbEntity
100
AcDbLine
  8
Filament Guide Middle
 62
256
370
-1
  6
ByLayer
 10
41.2250000000000227
 20
4.5
 30
0.0
 11
42.4250000000000114
 21
4.5000000000000142
 31
0.0
  0
LINE
  5
17D
100
AcDbEntity
100
AcDbLine
  8
Filament Guide Middle
 62
256
370
-1
  6
ByLayer
 10
45.3250000000000171
 20
4.4999999999999858
 30
0.0
 11
46.5250000000000341
 21
4.5
 31
0.0
  0
LINE
  5
17E
100
AcDbEntity
100
AcDbLine
  8
Filament Guide Middle
 62
256
370
-1
  6
ByLayer
 10
15.9750000000000512
 20
4.5
 30
0.0
 11
17.1750000000000398
 21
4.4999999999999858
 31
0.0
  0
LINE
  5
17F
100
AcDbEntity
100
AcDbLine
  8
Filament Guide Middle
 62
256
370
-1
  6
ByLayer
 10
20.0750000000000455
 20
4.5
 30
0.0
 11
21.2750000000000057
 21
4.5000000000000142
 31
0.0
  0
LINE
  5
180
100
AcDbEntity
100
AcDbLine
  8
Filament Guide Middle
 62
256
370
-1
  6
ByLayer
 10
5.0000000000000284
 20
75.0
 30
0.0
 11
29.3750000000000284
 21
74.9999999999999716
 31
0.0
  0
LINE
  5
181
100
AcDbEntity
100
AcDbLine
  8
Filament Guide Middle
 62
256
370
-1
  6
ByLayer
 10
32.6250000000000568
 20
74.9999999999999716
 30
0.0
 11
75.0000000000000284
 21
74.9999999999999716
 31
0.0
  0
LINE
  5
182
100
AcDbEntity
100
AcDbLine
  8
Filament Guide Middle
 62
256
370
-1
  6
ByLayer
 10
17.1750000000000114
 20
6.8500000000000227
 30
0.0
 11
17.1750000000000398
 21
8.3500000000000085
 31
0.0
  0
LINE
  5
183
100
AcDbEntity
100
AcDbLine
  8
Filament Guide Middle
 62
256
370
-1
  6
ByLayer
 10
20.0750000000000455
 20
8.3499999999999801
 30
0.0
 11
20.0750000000000455
 21
6.8499999999999943
 31
0.0
  0
LINE
  5
184
100
AcDbEntity
100
AcDbLine
  8
Filament Guide Middle
 62
256
370
-1
  6
ByLayer
 10
17.1750000000000398
 20
8.3500000000000085
 30
0.0
 11
20.0750000000000455
 21
8.3499999999999801
 31
0.0
  0
LINE
  5
185
100
AcDbEntity
100
AcDbLine
  8
Filament Guide Middle
 62
256
370
-1
  6
ByLayer
 10
42.4250000000000114
 20
8.2999999999999972
 30
0.0
 11
42.4250000000000114
 21
6.7999999999999972
 31
0.0
  0
LINE
  5
186
100
AcDbEntity
100
AcDbLine
  8
Filament Guide Middle
 62
256
370
-1
  6
ByLayer
 10
45.3250000000000171
 20
8.2999999999999972
 30
0.0
 11
45.3250000000000171
 21
6.7999999999999972
 31
0.0
  0
LINE
  5
187
100
AcDbEntity
100
AcDbLine
  8
Filament Guide Middle
 62
256
370
-1
  6
ByLayer
 10
42.4250000000000114
 20
8.2999999999999972
 30
0.0
 11
45.3250000000000171
 21
8.2999999999999972
 31
0.0
  0
LINE
  5
188
100
AcDbEntity
100
AcDbLine
  8
Filament Guide Middle Honeycomb
 62
256
370
-1
  6
ByLayer
 10
16.4492247596126333
 20
70.0000000000000142
 30
0.0
 11
24.3750000000000284
 21
70.0
 31
0.0
  0
LINE
  5
189
100
AcDbEntity
100
AcDbLine
  8
Filament Guide Middle Honeycomb
 62
256
370
-1
  6
ByLayer
 10
24.3750000000000284
 20
70.0
 30
0.0
 11
24.3750000000000568
 21
46.4854992430359673
 31
0.0
  0
LINE
  5
18A
100
AcDbEntity
100
AcDbLine
  8
Filament Guide Middle Honeycomb
 62
256
370
-1
  6
ByLayer
 10
5.0000000000000284
 20
65.8253834536241555
 30
0.0
 11
5.0000000000000284
 21
48.189974596215599
 31
0.0
  0
LINE
  5
18B
100
AcDbEntity
100
AcDbLine
  8
Filament Guide Middle Honeycomb
 62
256
370
-1
  6
ByLayer
 10
10.2549881065517638
 20
37.9999745962147912
 30
0.0
 11
12.4600637960155609
 21
37.9999745962153028
 31
0.0
  0
LINE
  5
18C
100
AcDbEntity
100
AcDbLine
  8
Filament Guide Middle Honeycomb
 62
256
370
-1
  6
ByLayer
 10
10.2549881065517354
 20
27.9999745962155799
 30
0.0
 11
12.4600637960155609
 21
27.9999745962155728
 31
0.0
  0
LINE
  5
18D
100
AcDbEntity
100
AcDbLine
  8
Filament Guide Middle Honeycomb
 62
256
370
-1
  6
ByLayer
 10
5.0000000000000284
 20
17.809974596215568
 30
0.0
 11
5.0000000000000284
 21
9.5746165463758786
 31
0.0
  0
LINE
  5
18E
100
AcDbEntity
100
AcDbLine
  8
Filament Guide Middle Honeycomb
 62
256
370
-1
  6
ByLayer
 10
24.3750000000000284
 20
19.5144499493952068
 30
0.0
 11
24.3750000000000284
 21
11.8500000000000085
 31
0.0
  0
LINE
  5
18F
100
AcDbEntity
100
AcDbLine
  8
Filament Guide Middle Honeycomb
 62
256
370
-1
  6
ByLayer
 10
37.6250000000000568
 20
56.1621069462389642
 30
0.0
 11
37.6250000000000568
 21
70.0
 31
0.0
  0
LINE
  5
190
100
AcDbEntity
100
AcDbLine
  8
Filament Guide Middle Honeycomb
 62
256
370
-1
  6
ByLayer
 10
37.6250000000000568
 20
70.0
 30
0.0
 11
65.7007752403875713
 21
70.0
 31
0.0
  0
LINE
  5
191
100
AcDbEntity
100
AcDbLine
  8
Filament Guide Middle Honeycomb
 62
256
370
-1
  6
ByLayer
 10
75.0000000000000284
 20
64.1138095434042299
 30
0.0
 11
75.0000000000000284
 21
49.3324575672766343
 31
0.0
  0
ARC
  5
192
100
AcDbEntity
  8
Filament Guide Middle Honeycomb
 62
256
370
-1
  6
ByLayer
100
AcDbCircle
 10
10.0000000000000284
 20
69.9000000000000057
 30
0.0
 40
6.4499999999999948
100
AcDbArc
 50
219.1773936864241819
 51
0.8883422500379582
  0
ARC
  5
193
100
AcDbEntity
  8
Filament Guide Middle Honeycomb
 62
256
370
-1
  6
ByLayer
100
AcDbCircle
 10
5.0000000000000284
 20
41.7399745962155393
 30
0.0
 40
6.4500000000000099
100
AcDbArc
 50
324.560361221903861
 51
90.0
  0
ARC
  5
194
100
AcDbEntity
  8
Filament Guide Middle Honeycomb
 62
256
370
-1
  6
ByLayer
100
AcDbCircle
 10
25.0000000000000284
 20
32.999974596215587
 30
0.0
 40
13.5000000000000107
100
AcDbArc
 50
92.6535308674057916
 51
158.2615392084795189
  0
ARC
  5
195
100
AcDbEntity
  8
Filament Guide Middle Honeycomb
 62
256
370
-1
  6
ByLayer
100
AcDbCircle
 10
5.0000000000000284
 20
24.2599745962155993
 30
0.0
 40
6.4500000000000011
100
AcDbArc
 50
270.0
 51
35.4396387780963877
  0
ARC
  5
196
100
AcDbEntity
  8
Filament Guide Middle Honeycomb
 62
256
370
-1
  6
ByLayer
100
AcDbCircle
 10
25.0000000000000284
 20
32.999974596215587
 30
0.0
 40
13.5000000000000018
100
AcDbArc
 50
201.7384607915204811
 51
267.3464691325941658
  0
ARC
  5
197
100
AcDbEntity
  8
Filament Guide Middle Honeycomb
 62
256
370
-1
  6
ByLayer
100
AcDbCircle
 10
53.5000000000000284
 20
32.9999745962155657
 30
0.0
 40
27.0000000000000036
100
AcDbArc
 50
37.2221338960613224
 51
90.0
  0
ARC
  5
198
100
AcDbEntity
  8
Filament Guide Middle Honeycomb
 62
256
370
-1
  6
ByLayer
100
AcDbCircle
 10
51.5000000000000284
 20
32.9999745962155586
 30
0.0
 40
27.0
100
AcDbArc
 50
90.0
 51
120.92321565535525
  0
ARC
  5
199
100
AcDbEntity
  8
Filament Guide Middle Honeycomb
 62
256
370
-1
  6
ByLayer
100
AcDbCircle
 10
72.1500000000000341
 20
69.9000000000000057
 30
0.0
 40
6.4499999999998918
100
AcDbArc
 50
179.1116577499624611
 51
296.2226465049216131
  0
ARC
  5
19A
100
AcDbEntity
  8
Filament Guide Middle Honeycomb
 62
256
370
-1
  6
ByLayer
100
AcDbCircle
 10
10.0
 20
5.5000000000000142
 30
0.0
 40
6.4500000000000002
100
AcDbArc
 50
79.8976949439641686
 51
140.8226063135757045
  0
LINE
  5
19B
100
AcDbEntity
100
AcDbLine
  8
Filament Guide Middle Honeycomb
 62
256
370
-1
  6
ByLayer
 10
24.3750000000000284
 20
11.8500000000000085
 30
0.0
 11
11.1313708498985022
 21
11.8500000000000085
 31
0.0
  0
LINE
  5
19C
100
AcDbEntity
100
AcDbLine
  8
Filament Guide Middle Honeycomb
 62
256
370
-1
  6
ByLayer
 10
51.5000000000000284
 20
59.9999745962155657
 30
0.0
 11
53.5000000000000284
 21
59.9999745962155728
 31
0.0
  0
LINE
  5
19D
100
AcDbEntity
100
AcDbLine
  8
Filament Guide Middle
 62
256
370
-1
  6
ByLayer
 10
29.3750000000000284
 20
74.9999999999999716
 30
0.0
 11
29.3750000000000568
 21
39.9630468348183285
 31
0.0
  0
ARC
  5
19E
100
AcDbEntity
  8
Filament Guide Middle
 62
256
370
-1
  6
ByLayer
100
AcDbCircle
 10
24.5000000000000284
 20
32.9999745962155728
 30
0.0
 40
8.5
100
AcDbArc
 50
55.0032890794845315
 51
294.0726538984896479
  0
ARC
  5
19F
100
AcDbEntity
  8
Filament Guide Middle
 62
256
370
-1
  6
ByLayer
100
AcDbCircle
 10
28.3750000000000284
 20
24.3261994665502854
 30
0.0
 40
1.0
100
AcDbArc
 50
0.0
 51
114.0726538984894631
  0
ARC
  5
1A0
100
AcDbEntity
  8
Filament Guide Middle
 62
256
370
-1
  6
ByLayer
100
AcDbCircle
 10
54.6250000000000568
 20
32.9999745962155657
 30
0.0
 40
21.0
100
AcDbArc
 50
270.0
 51
90.0
  0
LINE
  5
1A1
100
AcDbEntity
100
AcDbLine
  8
Filament Guide Middle
 62
256
370
-1
  6
ByLayer
 10
52.6250000000000284
 20
53.9999745962155657
 30
0.0
 11
54.6250000000000568
 21
53.9999745962155657
 31
0.0
  0
LINE
  5
1A2
100
AcDbEntity
100
AcDbLine
  8
Filament Guide Middle
 62
256
370
-1
  6
ByLayer
 10
52.6250000000000284
 20
11.9999745962155657
 30
0.0
 11
54.6250000000000284
 21
11.9999745962155515
 31
0.0
  0
LINE
  5
1A3
100
AcDbEntity
100
AcDbLine
  8
Filament Guide Middle
 62
256
370
-1
  6
ByLayer
 10
32.6250000000000568
 20
74.9999999999999716
 30
0.0
 11
32.6250000000000284
 21
39.4030988336483929
 31
0.0
  0
ARC
  5
1A4
100
AcDbEntity
  8
Filament Guide Middle
 62
256
370
-1
  6
ByLayer
100
AcDbCircle
 10
52.6250000000000568
 20
32.9999745962155657
 30
0.0
 40
21.0
100
AcDbArc
 50
90.0
 51
162.2472098380533509
  0
LINE
  5
1A5
100
AcDbEntity
100
AcDbLine
  8
Filament Guide Middle
 62
256
370
-1
  6
ByLayer
 10
32.6250000000000284
 20
18.5263995368185164
 30
0.0
 11
33.1089679692619256
 21
24.0581787383431731
 31
0.0
  0
ARC
  5
1A6
100
AcDbEntity
  8
Filament Guide Middle
 62
256
370
-1
  6
ByLayer
100
AcDbCircle
 10
52.6250000000000568
 20
32.9999745962155657
 30
0.0
 40
21.0
100
AcDbArc
 50
204.9492768706963943
 51
270.0
  0
ARC
  5
1A7
100
AcDbEntity
  8
Filament Guide Middle
 62
256
370
-1
  6
ByLayer
100
AcDbCircle
 10
33.3580166437848789
 20
24.0363898026562595
 30
0.0
 40
0.25
100
AcDbArc
 50
24.9492768706953996
 51
175.0000000000003126
  0
LINE
  5
1A8
100
AcDbEntity
100
AcDbLine
  8
Drawings-Motor
 62
256
370
-1
  6
ByLayer
 10
25.0
 20
32.9999745962155657
 30
0.0
 11
5.0
 21
32.9999745962155657
 31
0.0
  0
CIRCLE
  5
1A9
100
AcDbEntity
100
AcDbCircle
  8
Drawings-Motor
 62
256
370
-1
  6
ByLayer
 10
24.5000000000000071
 20
32.9999745962155657
 30
0.0
 40
15.5
  0
LINE
  5
1AA
100
AcDbEntity
100
AcDbLine
  8
Drawings-Motor
 62
256
370
-1
  6
ByLayer
 10
24.5000000000000142
 20
32.9999745962155657
 30
0.0
 11
40.0
 21
32.9999745962155657
 31
0.0
  0
LINE
  5
1AB
100
AcDbEntity
100
AcDbLine
  8
Drawings-Motor
 62
256
370
-1
  6
ByLayer
 10
24.5
 20
32.9999745962155728
 30
0.0
 11
16.7500000000000142
 21
46.4233683548743628
 31
0.0
  0
LINE
  5
1AC
100
AcDbEntity
100
AcDbLine
  8
Drawings-Motor
 62
256
370
-1
  6
ByLayer
 10
24.5
 20
32.9999745962155586
 30
0.0
 11
16.7500000000000142
 21
19.5765808375567687
 31
0.0
  0
CIRCLE
  5
1AD
100
AcDbEntity
100
AcDbCircle
  8
Drawings-Pulley
 62
256
370
-1
  6
ByLayer
 10
24.5000000000000142
 20
32.9999745962155657
 30
0.0
 40
8.0500000000000007
  0
CIRCLE
  5
1AE
100
AcDbEntity
100
AcDbCircle
  8
Drawings-Pulley
 62
256
370
-1
  6
ByLayer
 10
24.5000000000000142
 20
32.9999745962155586
 30
0.0
 40
5.1500000000000004
  0
LINE
  5
1AF
100
AcDbEntity
100
AcDbLine
  8
Filament Guide Bottom
 62
256
370
-1
  6
ByLayer
 10
80.0
 20
0.0
 30
0.0
 11
0.0
 21
0.0
 31
0.0
  0
LINE
  5
1B0
100
AcDbEntity
100
AcDbLine
  8
Filament Guide Bottom
 62
256
370
-1
  6
ByLayer
 10
0.0
 20
0.0
 30
0.0
 11
0.0
 21
70.0
 31
0.0
  0
LINE
  5
1B1
100
AcDbEntity
100
AcDbLine
  8
Filament Guide Bottom
 62
256
370
-1
  6
ByLayer
 10
80.0
 20
70.0
 30
0.0
 11
80.0
 21
0.0
 31
0.0
  0
LINE
  5
1B2
100
AcDbEntity
100
AcDbLine
  8
Filament Guide Middle
 62
256
370
-1
  6
ByLayer
 10
17.1750000000000398
 20
-0.0000000000000142
 30
0.0
 11
0.0
 21
0.0000000000000142
 31
0.0
  0
LINE
  5
1B3
100
AcDbEntity
100
AcDbLine
  8
Filament Guide Middle
 62
256
370
-1
  6
ByLayer
 10
20.0750000000000171
 20
0.0
 30
0.0
 11
29.3750000000000284
 21
-0.0000000000000142
 31
0.0
  0
LINE
  5
1B4
100
AcDbEntity
100
AcDbLine
  8
Filament Guide Middle
 62
256
370
-1
  6
ByLayer
 10
32.6250000000000568
 20
-0.0000000000000142
 30
0.0
 11
42.4250000000000114
 21
-0.0000000000000142
 31
0.0
  0
LINE
  5
1B5
100
AcDbEntity
100
AcDbLine
  8
Filament Guide Middle
 62
256
370
-1
  6
ByLayer
 10
45.3250000000000455
 20
-0.0000000000000142
 30
0.0
 11
80.0
 21
-0.0000000000000426
 31
0.0
  0
LINE
  5
1B6
100
AcDbEntity
100
AcDbLine
  8
Filament Guide Top
 62
256
370
-1
  6
ByLayer
 10
80.0000000000000142
 20
-0.000000000000032
 30
0.0
 11
0.0
 21
0.0000000000000021
 31
0.0
  0
LINE
  5
1B7
100
AcDbEntity
100
AcDbLine
  8
Motor Plate
 62
256
370
-1
  6
ByLayer
 10
0.0
 20
0.0
 30
0.0
 11
80.0
 21
0.0
 31
0.0
  0
LINE
  5
1B8
100
AcDbEntity
100
AcDbLine
  8
Retainer Plate
 62
256
370
-1
  6
ByLayer
 10
80.0
 20
0.0
 30
0.0
 11
0.0
 21
0.0
 31
0.0
  0
LINE
  5
1B9
100
AcDbEntity
100
AcDbLine
  8
Spacer Plate
 62
256
370
-1
  6
ByLayer
 10
0.0
 20
0.0
 30
0.0
 11
80.0
 21
0.0
 31
0.0
  0
LINE
  5
1BA
100
AcDbEntity
100
AcDbLine
  8
Spacer Plate
 62
256
370
-1
  6
ByLayer
 10
0.0
 20
70.0
 30
0.0
 11
0.0
 21
0.0
 31
0.0
  0
LINE
  5
1BB
100
AcDbEntity
100
AcDbLine
  8
Spacer Plate
 62
256
370
-1
  6
ByLayer
 10
80.0
 20
0.0
 30
0.0
 11
80.0
 21
70.0
 31
0.0
  0
LINE
  5
1BC
100
AcDbEntity
100
AcDbLine
  8
Retainer Plate
 62
256
370
-1
  6
ByLayer
 10
0.0
 20
0.0
 30
0.0
 11
0.0
 21
69.9999999999999858
 31
0.0
  0
LINE
  5
1BD
100
AcDbEntity
100
AcDbLine
  8
Retainer Plate
 62
256
370
-1
  6
ByLayer
 10
80.0
 20
70.0
 30
0.0
 11
80.0
 21
0.0
 31
0.0
  0
LINE
  5
1BE
100
AcDbEntity
100
AcDbLine
  8
Motor Plate
 62
256
370
-1
  6
ByLayer
 10
0.0
 20
70.0
 30
0.0
 11
0.0
 21
0.0
 31
0.0
  0
LINE
  5
1BF
100
AcDbEntity
100
AcDbLine
  8
Motor Plate
 62
256
370
-1
  6
ByLayer
 10
80.0
 20
70.0
 30
0.0
 11
80.0
 21
0.0
 31
0.0
  0
LINE
  5
1C0
100
AcDbEntity
100
AcDbLine
  8
Filament Guide Top
 62
256
370
-1
  6
ByLayer
 10
0.0
 20
0.0000000000000021
 30
0.0
 11
0.0000000000000213
 21
69.9999999999999858
 31
0.0
  0
LINE
  5
1C1
100
AcDbEntity
100
AcDbLine
  8
Filament Guide Top
 62
256
370
-1
  6
ByLayer
 10
80.0000000000000142
 20
69.9999999999999858
 30
0.0
 11
80.0000000000000142
 21
-0.0000000000000283
 31
0.0
  0
LINE
  5
1C2
100
AcDbEntity
100
AcDbLine
  8
Filament Guide Middle
 62
256
370
-1
  6
ByLayer
 10
0.0
 20
0.0000000000000142
 30
0.0
 11
0.0000000000000284
 21
69.9999999999999716
 31
0.0
  0
LINE
  5
1C3
100
AcDbEntity
100
AcDbLine
  8
Filament Guide Middle
 62
256
370
-1
  6
ByLayer
 10
17.1750000000000398
 20
4.4999999999999858
 30
0.0
 11
17.1750000000000398
 21
-0.0000000000000142
 31
0.0
  0
LINE
  5
1C4
100
AcDbEntity
100
AcDbLine
  8
Filament Guide Middle
 62
256
370
-1
  6
ByLayer
 10
20.0750000000000455
 20
4.5
 30
0.0
 11
20.0750000000000171
 21
0.0
 31
0.0
  0
LINE
  5
1C5
100
AcDbEntity
100
AcDbLine
  8
Filament Guide Middle
 62
256
370
-1
  6
ByLayer
 10
29.3750000000000284
 20
24.3261994665502925
 30
0.0
 11
29.3750000000000284
 21
-0.0000000000000142
 31
0.0
  0
LINE
  5
1C6
100
AcDbEntity
100
AcDbLine
  8
Filament Guide Middle
 62
256
370
-1
  6
ByLayer
 10
32.6250000000000284
 20
18.5263995368185164
 30
0.0
 11
32.6250000000000568
 21
-0.0000000000000142
 31
0.0
  0
LINE
  5
1C7
100
AcDbEntity
100
AcDbLine
  8
Filament Guide Middle
 62
256
370
-1
  6
ByLayer
 10
42.4250000000000114
 20
4.5000000000000142
 30
0.0
 11
42.4250000000000114
 21
-0.0000000000000142
 31
0.0
  0
LINE
  5
1C8
100
AcDbEntity
100
AcDbLine
  8
Filament Guide Middle
 62
256
370
-1
  6
ByLayer
 10
45.3250000000000171
 20
4.4999999999999858
 30
0.0
 11
45.3250000000000455
 21
-0.0000000000000142
 31
0.0
  0
LINE
  5
1C9
100
AcDbEntity
100
AcDbLine
  8
Filament Guide Middle
 62
256
370
-1
  6
ByLayer
 10
80.0000000000000284
 20
69.9999999999999858
 30
0.0
 11
80.0
 21
-0.000000000000046
 31
0.0
  0
ENDSEC
  0
SECTION
  2
OBJECTS
  0
DICTIONARY
  5
C
100
AcDbDictionary
280
0
281
1
  3
ACAD_GROUP
350
D
  3
ACAD_LAYOUT
350
1A
  3
ACAD_MLINESTYLE
350
17
  3
ACAD_PLOTSETTINGS
350
19
  3
ACAD_PLOTSTYLENAME
350
E
  3
AcDbVariableDictionary
350
1CA
  0
DICTIONARY
  5
D
100
AcDbDictionary
280
0
281
1
  0
ACDBDICTIONARYWDFLT
  5
E
100
AcDbDictionary
281
1
  3
Normal
350
F
100
AcDbDictionaryWithDefault
340
F
  0
ACDBPLACEHOLDER
  5
F
  0
DICTIONARY
  5
17
100
AcDbDictionary
280
0
281
1
  3
Standard
350
18
  0
MLINESTYLE
  5
18
100
AcDbMlineStyle
  2
STANDARD
 70
0
  3

 62
256
 51
90.0
 52
90.0
 71
2
 49
0.5
 62
256
  6
BYLAYER
 49
-0.5
 62
256
  6
BYLAYER
  0
DICTIONARY
  5
19
100
AcDbDictionary
280
0
281
1
  0
DICTIONARY
  5
1A
100
AcDbDictionary
281
1
  3
Layout1
350
1E
  3
Layout2
350
26
  3
Model
350
22
  0
LAYOUT
  5
1E
100
AcDbPlotSettings
  1

  2
C:\Program Files\AutoCAD 2002\plotters\DWF ePlot (optimized for plotting).pc3
  4

  6

 40
0.0
 41
0.0
 42
0.0
 43
0.0
 44
0.0
 45
0.0
 46
0.0
 47
0.0
 48
0.0
 49
0.0
140
0.0
141
0.0
142
1.0
143
1.0
 70
688
 72
0
 73
0
 74
5
  7

 75
16
147
1.0
148
0.0
149
0.0
100
AcDbLayout
  1
Layout1
 70
1
 71
1
 10
0.0
 20
0.0
 11
420.0
 21
297.0
 12
0.0
 22
0.0
 32
0.0
 14
100000000000000000000.0
 24
100000000000000000000.0
 34
100000000000000000000.0
 15
-100000000000000000000.0
 25
-100000000000000000000.0
 35
-100000000000000000000.0
146
0.0
 13
0.0
 23
0.0
 33
0.0
 16
1.0
 26
0.0
 36
0.0
 17
0.0
 27
1.0
 37
0.0
 76
0
330
1B
  0
LAYOUT
  5
22
100
AcDbPlotSettings
  1

  2
C:\Program Files\AutoCAD 2002\plotters\DWF ePlot (optimized for plotting).pc3
  4

  6

 40
0.0
 41
0.0
 42
0.0
 43
0.0
 44
0.0
 45
0.0
 46
0.0
 47
0.0
 48
0.0
 49
0.0
140
0.0
141
0.0
142
1.0
143
1.0
 70
1712
 72
0
 73
0
 74
0
  7

 75
0
147
1.0
148
0.0
149
0.0
100
AcDbLayout
  1
Model
 70
1
 71
0
 10
0.0
 20
0.0
 11
12.0
 21
9.0
 12
0.0
 22
0.0
 32
0.0
 14
0.0
 24
0.0
 34
0.0
 15
0.0
 25
0.0
 35
0.0
146
0.0
 13
0.0
 23
0.0
 33
0.0
 16
1.0
 26
0.0
 36
0.0
 17
0.0
 27
1.0
 37
0.0
 76
0
330
1F
  0
LAYOUT
  5
26
100
AcDbPlotSettings
  1

  2
C:\Program Files\AutoCAD 2002\plotters\DWF ePlot (optimized for plotting).pc3
  4

  6

 40
0.0
 41
0.0
 42
0.0
 43
0.0
 44
0.0
 45
0.0
 46
0.0
 47
0.0
 48
0.0
 49
0.0
140
0.0
141
0.0
142
1.0
143
1.0
 70
688
 72
0
 73
0
 74
5
  7

 75
16
147
1.0
148
0.0
149
0.0
100
AcDbLayout
  1
Layout2
 70
1
 71
2
 10
0.0
 20
0.0
 11
12.0
 21
9.0
 12
0.0
 22
0.0
 32
0.0
 14
0.0
 24
0.0
 34
0.0
 15
0.0
 25
0.0
 35
0.0
146
0.0
 13
0.0
 23
0.0
 33
0.0
 16
1.0
 26
0.0
 36
0.0
 17
0.0
 27
1.0
 37
0.0
 76
0
330
23
  0
DICTIONARY
  5
1CA
100
AcDbDictionary
281
1
  3
DIMASSOC
350
1CC
  3
HIDETEXT
350
1CB
  0
DICTIONARYVAR
  5
1CB
100
DictionaryVariables
280
0
  1
2
  0
DICTIONARYVAR
  5
1CC
100
DictionaryVariables
280
0
  1
1
  0
ENDSEC
  0
EOF
