G75*
G70*
%OFA0B0*%
%FSLAX24Y24*%
%IPPOS*%
%LPD*%
%AMOC8*
5,1,8,0,0,1.08239X$1,22.5*
%
%ADD10C,0.0000*%
D10*
X002316Y002635D02*
X002318Y002683D01*
X002324Y002731D01*
X002334Y002778D01*
X002347Y002824D01*
X002365Y002869D01*
X002385Y002913D01*
X002410Y002955D01*
X002438Y002994D01*
X002468Y003031D01*
X002502Y003065D01*
X002539Y003097D01*
X002577Y003126D01*
X002618Y003151D01*
X002661Y003173D01*
X002706Y003191D01*
X002752Y003205D01*
X002799Y003216D01*
X002847Y003223D01*
X002895Y003226D01*
X002943Y003225D01*
X002991Y003220D01*
X003039Y003211D01*
X003085Y003199D01*
X003130Y003182D01*
X003174Y003162D01*
X003216Y003139D01*
X003256Y003112D01*
X003294Y003082D01*
X003329Y003049D01*
X003361Y003013D01*
X003391Y002975D01*
X003417Y002934D01*
X003439Y002891D01*
X003459Y002847D01*
X003474Y002802D01*
X003486Y002755D01*
X003494Y002707D01*
X003498Y002659D01*
X003498Y002611D01*
X003494Y002563D01*
X003486Y002515D01*
X003474Y002468D01*
X003459Y002423D01*
X003439Y002379D01*
X003417Y002336D01*
X003391Y002295D01*
X003361Y002257D01*
X003329Y002221D01*
X003294Y002188D01*
X003256Y002158D01*
X003216Y002131D01*
X003174Y002108D01*
X003130Y002088D01*
X003085Y002071D01*
X003039Y002059D01*
X002991Y002050D01*
X002943Y002045D01*
X002895Y002044D01*
X002847Y002047D01*
X002799Y002054D01*
X002752Y002065D01*
X002706Y002079D01*
X002661Y002097D01*
X002618Y002119D01*
X002577Y002144D01*
X002539Y002173D01*
X002502Y002205D01*
X002468Y002239D01*
X002438Y002276D01*
X002410Y002315D01*
X002385Y002357D01*
X002365Y002401D01*
X002347Y002446D01*
X002334Y002492D01*
X002324Y002539D01*
X002318Y002587D01*
X002316Y002635D01*
X002216Y030985D02*
X002218Y031033D01*
X002224Y031081D01*
X002234Y031128D01*
X002247Y031174D01*
X002265Y031219D01*
X002285Y031263D01*
X002310Y031305D01*
X002338Y031344D01*
X002368Y031381D01*
X002402Y031415D01*
X002439Y031447D01*
X002477Y031476D01*
X002518Y031501D01*
X002561Y031523D01*
X002606Y031541D01*
X002652Y031555D01*
X002699Y031566D01*
X002747Y031573D01*
X002795Y031576D01*
X002843Y031575D01*
X002891Y031570D01*
X002939Y031561D01*
X002985Y031549D01*
X003030Y031532D01*
X003074Y031512D01*
X003116Y031489D01*
X003156Y031462D01*
X003194Y031432D01*
X003229Y031399D01*
X003261Y031363D01*
X003291Y031325D01*
X003317Y031284D01*
X003339Y031241D01*
X003359Y031197D01*
X003374Y031152D01*
X003386Y031105D01*
X003394Y031057D01*
X003398Y031009D01*
X003398Y030961D01*
X003394Y030913D01*
X003386Y030865D01*
X003374Y030818D01*
X003359Y030773D01*
X003339Y030729D01*
X003317Y030686D01*
X003291Y030645D01*
X003261Y030607D01*
X003229Y030571D01*
X003194Y030538D01*
X003156Y030508D01*
X003116Y030481D01*
X003074Y030458D01*
X003030Y030438D01*
X002985Y030421D01*
X002939Y030409D01*
X002891Y030400D01*
X002843Y030395D01*
X002795Y030394D01*
X002747Y030397D01*
X002699Y030404D01*
X002652Y030415D01*
X002606Y030429D01*
X002561Y030447D01*
X002518Y030469D01*
X002477Y030494D01*
X002439Y030523D01*
X002402Y030555D01*
X002368Y030589D01*
X002338Y030626D01*
X002310Y030665D01*
X002285Y030707D01*
X002265Y030751D01*
X002247Y030796D01*
X002234Y030842D01*
X002224Y030889D01*
X002218Y030937D01*
X002216Y030985D01*
X020267Y032385D02*
X020269Y032435D01*
X020275Y032485D01*
X020285Y032534D01*
X020298Y032583D01*
X020316Y032630D01*
X020337Y032676D01*
X020361Y032719D01*
X020389Y032761D01*
X020420Y032801D01*
X020454Y032838D01*
X020491Y032872D01*
X020531Y032903D01*
X020573Y032931D01*
X020616Y032955D01*
X020662Y032976D01*
X020709Y032994D01*
X020758Y033007D01*
X020807Y033017D01*
X020857Y033023D01*
X020907Y033025D01*
X020957Y033023D01*
X021007Y033017D01*
X021056Y033007D01*
X021105Y032994D01*
X021152Y032976D01*
X021198Y032955D01*
X021241Y032931D01*
X021283Y032903D01*
X021323Y032872D01*
X021360Y032838D01*
X021394Y032801D01*
X021425Y032761D01*
X021453Y032719D01*
X021477Y032676D01*
X021498Y032630D01*
X021516Y032583D01*
X021529Y032534D01*
X021539Y032485D01*
X021545Y032435D01*
X021547Y032385D01*
X021545Y032335D01*
X021539Y032285D01*
X021529Y032236D01*
X021516Y032187D01*
X021498Y032140D01*
X021477Y032094D01*
X021453Y032051D01*
X021425Y032009D01*
X021394Y031969D01*
X021360Y031932D01*
X021323Y031898D01*
X021283Y031867D01*
X021241Y031839D01*
X021198Y031815D01*
X021152Y031794D01*
X021105Y031776D01*
X021056Y031763D01*
X021007Y031753D01*
X020957Y031747D01*
X020907Y031745D01*
X020857Y031747D01*
X020807Y031753D01*
X020758Y031763D01*
X020709Y031776D01*
X020662Y031794D01*
X020616Y031815D01*
X020573Y031839D01*
X020531Y031867D01*
X020491Y031898D01*
X020454Y031932D01*
X020420Y031969D01*
X020389Y032009D01*
X020361Y032051D01*
X020337Y032094D01*
X020316Y032140D01*
X020298Y032187D01*
X020285Y032236D01*
X020275Y032285D01*
X020269Y032335D01*
X020267Y032385D01*
X024767Y032385D02*
X024769Y032435D01*
X024775Y032485D01*
X024785Y032534D01*
X024798Y032583D01*
X024816Y032630D01*
X024837Y032676D01*
X024861Y032719D01*
X024889Y032761D01*
X024920Y032801D01*
X024954Y032838D01*
X024991Y032872D01*
X025031Y032903D01*
X025073Y032931D01*
X025116Y032955D01*
X025162Y032976D01*
X025209Y032994D01*
X025258Y033007D01*
X025307Y033017D01*
X025357Y033023D01*
X025407Y033025D01*
X025457Y033023D01*
X025507Y033017D01*
X025556Y033007D01*
X025605Y032994D01*
X025652Y032976D01*
X025698Y032955D01*
X025741Y032931D01*
X025783Y032903D01*
X025823Y032872D01*
X025860Y032838D01*
X025894Y032801D01*
X025925Y032761D01*
X025953Y032719D01*
X025977Y032676D01*
X025998Y032630D01*
X026016Y032583D01*
X026029Y032534D01*
X026039Y032485D01*
X026045Y032435D01*
X026047Y032385D01*
X026045Y032335D01*
X026039Y032285D01*
X026029Y032236D01*
X026016Y032187D01*
X025998Y032140D01*
X025977Y032094D01*
X025953Y032051D01*
X025925Y032009D01*
X025894Y031969D01*
X025860Y031932D01*
X025823Y031898D01*
X025783Y031867D01*
X025741Y031839D01*
X025698Y031815D01*
X025652Y031794D01*
X025605Y031776D01*
X025556Y031763D01*
X025507Y031753D01*
X025457Y031747D01*
X025407Y031745D01*
X025357Y031747D01*
X025307Y031753D01*
X025258Y031763D01*
X025209Y031776D01*
X025162Y031794D01*
X025116Y031815D01*
X025073Y031839D01*
X025031Y031867D01*
X024991Y031898D01*
X024954Y031932D01*
X024920Y031969D01*
X024889Y032009D01*
X024861Y032051D01*
X024837Y032094D01*
X024816Y032140D01*
X024798Y032187D01*
X024785Y032236D01*
X024775Y032285D01*
X024769Y032335D01*
X024767Y032385D01*
X037266Y031085D02*
X037268Y031133D01*
X037274Y031181D01*
X037284Y031228D01*
X037297Y031274D01*
X037315Y031319D01*
X037335Y031363D01*
X037360Y031405D01*
X037388Y031444D01*
X037418Y031481D01*
X037452Y031515D01*
X037489Y031547D01*
X037527Y031576D01*
X037568Y031601D01*
X037611Y031623D01*
X037656Y031641D01*
X037702Y031655D01*
X037749Y031666D01*
X037797Y031673D01*
X037845Y031676D01*
X037893Y031675D01*
X037941Y031670D01*
X037989Y031661D01*
X038035Y031649D01*
X038080Y031632D01*
X038124Y031612D01*
X038166Y031589D01*
X038206Y031562D01*
X038244Y031532D01*
X038279Y031499D01*
X038311Y031463D01*
X038341Y031425D01*
X038367Y031384D01*
X038389Y031341D01*
X038409Y031297D01*
X038424Y031252D01*
X038436Y031205D01*
X038444Y031157D01*
X038448Y031109D01*
X038448Y031061D01*
X038444Y031013D01*
X038436Y030965D01*
X038424Y030918D01*
X038409Y030873D01*
X038389Y030829D01*
X038367Y030786D01*
X038341Y030745D01*
X038311Y030707D01*
X038279Y030671D01*
X038244Y030638D01*
X038206Y030608D01*
X038166Y030581D01*
X038124Y030558D01*
X038080Y030538D01*
X038035Y030521D01*
X037989Y030509D01*
X037941Y030500D01*
X037893Y030495D01*
X037845Y030494D01*
X037797Y030497D01*
X037749Y030504D01*
X037702Y030515D01*
X037656Y030529D01*
X037611Y030547D01*
X037568Y030569D01*
X037527Y030594D01*
X037489Y030623D01*
X037452Y030655D01*
X037418Y030689D01*
X037388Y030726D01*
X037360Y030765D01*
X037335Y030807D01*
X037315Y030851D01*
X037297Y030896D01*
X037284Y030942D01*
X037274Y030989D01*
X037268Y031037D01*
X037266Y031085D01*
X037316Y002585D02*
X037318Y002633D01*
X037324Y002681D01*
X037334Y002728D01*
X037347Y002774D01*
X037365Y002819D01*
X037385Y002863D01*
X037410Y002905D01*
X037438Y002944D01*
X037468Y002981D01*
X037502Y003015D01*
X037539Y003047D01*
X037577Y003076D01*
X037618Y003101D01*
X037661Y003123D01*
X037706Y003141D01*
X037752Y003155D01*
X037799Y003166D01*
X037847Y003173D01*
X037895Y003176D01*
X037943Y003175D01*
X037991Y003170D01*
X038039Y003161D01*
X038085Y003149D01*
X038130Y003132D01*
X038174Y003112D01*
X038216Y003089D01*
X038256Y003062D01*
X038294Y003032D01*
X038329Y002999D01*
X038361Y002963D01*
X038391Y002925D01*
X038417Y002884D01*
X038439Y002841D01*
X038459Y002797D01*
X038474Y002752D01*
X038486Y002705D01*
X038494Y002657D01*
X038498Y002609D01*
X038498Y002561D01*
X038494Y002513D01*
X038486Y002465D01*
X038474Y002418D01*
X038459Y002373D01*
X038439Y002329D01*
X038417Y002286D01*
X038391Y002245D01*
X038361Y002207D01*
X038329Y002171D01*
X038294Y002138D01*
X038256Y002108D01*
X038216Y002081D01*
X038174Y002058D01*
X038130Y002038D01*
X038085Y002021D01*
X038039Y002009D01*
X037991Y002000D01*
X037943Y001995D01*
X037895Y001994D01*
X037847Y001997D01*
X037799Y002004D01*
X037752Y002015D01*
X037706Y002029D01*
X037661Y002047D01*
X037618Y002069D01*
X037577Y002094D01*
X037539Y002123D01*
X037502Y002155D01*
X037468Y002189D01*
X037438Y002226D01*
X037410Y002265D01*
X037385Y002307D01*
X037365Y002351D01*
X037347Y002396D01*
X037334Y002442D01*
X037324Y002489D01*
X037318Y002537D01*
X037316Y002585D01*
M02*
