%
M48
M72
T01C0.0200
T02C0.0240
T03C0.0320
T04C0.0350
T05C0.0360
T06C0.0400
T07C0.0550
T08C0.1180
T09C0.1280
%
T01
X2657Y8835
X3857Y8835
X8007Y13585
X9157Y14185
X8807Y15185
X6007Y16185
X9407Y19935
X9807Y21085
X8357Y21485
X6507Y21935
X6557Y22435
X9157Y24435
X10157Y23035
X13807Y23035
X15007Y25235
X15257Y26285
X13457Y27935
X17957Y26885
X18707Y24835
X17207Y22985
X17157Y20535
X17007Y20035
X17807Y18635
X18607Y17835
X19407Y17135
X19807Y16485
X20407Y17135
X22007Y17585
X22507Y17535
X20557Y18985
X22307Y20735
X23357Y21685
X22407Y23835
X22007Y24785
X23707Y27335
X24607Y26935
X26407Y25485
X28007Y21235
X26757Y18585
X25007Y16285
X25357Y15235
X24107Y14285
X23157Y13885
X21257Y13785
X21257Y13235
X21557Y14935
X19407Y13785
X18407Y13385
X17857Y14485
X17157Y13385
X16157Y14185
X16607Y15185
X14957Y15735
X15057Y16235
X15307Y16735
X11357Y13785
X13607Y9835
X15357Y8135
X15907Y5535
X15357Y3735
X12407Y6835
X9957Y8085
X18557Y8185
X18607Y8785
X20807Y9135
X20357Y11135
X25257Y8985
X25307Y8135
X27007Y8385
X27007Y9185
X27007Y10385
X28107Y10285
X28107Y9685
X29257Y10285
X30007Y11585
X29357Y12035
X29357Y13485
X27857Y14985
X31407Y17685
X31357Y20085
X33207Y11735
X31807Y10685
X33907Y7785
X33407Y5185
X35207Y3485
X33557Y2535
X32957Y2935
X30507Y4335
X29157Y4135
X26857Y6085
X28557Y7135
X29807Y7035
X26157Y11585
X24407Y4735
X20457Y4985
X18957Y5935
X20257Y3235
X20107Y2735
X20107Y935
X7107Y26785
X32007Y28735
T02
X30357Y16685
X34857Y15185
X22357Y4685
X20357Y6685
T03
X12407Y8335
X12407Y10235
X12857Y21185
X13857Y22185
X15257Y22235
X16257Y21235
X17257Y22235
X11857Y22185
X28857Y8685
X29857Y7685
X29857Y9685
T04
X24407Y28885
X23407Y28885
X22407Y28885
X21407Y28885
X21907Y29885
X22907Y29885
X23907Y29885
X24907Y29885
T05
X9257Y12335
X9257Y11335
X9257Y10335
X8257Y10335
X8257Y11335
X8257Y12335
X8107Y3185
X8107Y2185
X9107Y2185
X9107Y3185
X10107Y3185
X10107Y2185
X11107Y2185
X11107Y3185
X7107Y3185
X7107Y2185
T06
X3947Y5255
X2167Y5255
X2167Y7815
X3947Y7815
X2257Y12535
X2257Y13535
X2257Y14535
X2257Y15535
X2257Y16535
X2257Y17535
X10007Y18185
X11007Y18185
X12007Y18185
X13007Y18185
X19507Y21185
X19507Y22185
X19507Y23185
X21057Y23185
X21057Y22185
X21057Y21185
X22607Y32185
X23607Y32185
T07
X17807Y31085
X15807Y31085
X13807Y31085
X11807Y31085
X9807Y31085
X7807Y31085
X4107Y24585
X4107Y22585
X37357Y25185
X37357Y27185
X37357Y18685
X37357Y16685
X37607Y12485
X37607Y10485
X37607Y8485
X37607Y6485
T08
X2907Y2635
X2807Y30985
X37857Y31085
X37907Y2585
T09
X25407Y32385
X20907Y32385
M30
