G75*
G70*
%OFA0B0*%
%FSLAX24Y24*%
%IPPOS*%
%LPD*%
%AMOC8*
5,1,8,0,0,1.08239X$1,22.5*
%
%ADD10OC8,0.0680*%
%ADD11C,0.0720*%
%ADD12C,0.1261*%
%ADD13C,0.0640*%
%ADD14C,0.0905*%
%ADD15C,0.0670*%
%ADD16C,0.1360*%
%ADD17OC8,0.0640*%
D10*
X007107Y002185D03*
X007107Y003185D03*
X008107Y003185D03*
X008107Y002185D03*
X009107Y002185D03*
X009107Y003185D03*
X010107Y003185D03*
X010107Y002185D03*
X011107Y002185D03*
X011107Y003185D03*
X009257Y010335D03*
X008257Y010335D03*
X008257Y011335D03*
X008257Y012335D03*
X009257Y012335D03*
X009257Y011335D03*
D11*
X003947Y008135D02*
X003947Y007495D01*
X002167Y007495D02*
X002167Y008135D01*
X002167Y005575D02*
X002167Y004935D01*
X003947Y004935D02*
X003947Y005575D01*
X002577Y012535D02*
X001937Y012535D01*
X001937Y013535D02*
X002577Y013535D01*
X002577Y014535D02*
X001937Y014535D01*
X001937Y015535D02*
X002577Y015535D01*
X002577Y016535D02*
X001937Y016535D01*
X001937Y017535D02*
X002577Y017535D01*
X010007Y017865D02*
X010007Y018505D01*
X011007Y018505D02*
X011007Y017865D01*
X012007Y017865D02*
X012007Y018505D01*
X013007Y018505D02*
X013007Y017865D01*
X019187Y021185D02*
X019827Y021185D01*
X020737Y021185D02*
X021377Y021185D01*
X021377Y022185D02*
X020737Y022185D01*
X019827Y022185D02*
X019187Y022185D01*
X019187Y023185D02*
X019827Y023185D01*
X020737Y023185D02*
X021377Y023185D01*
X022607Y031865D02*
X022607Y032505D01*
X023607Y032505D02*
X023607Y031865D01*
D12*
X002907Y002635D03*
X002807Y030985D03*
X037857Y031085D03*
X037907Y002585D03*
D13*
X012407Y008335D03*
X012407Y010235D03*
D14*
X004519Y022585D02*
X003694Y022585D01*
X003694Y024585D02*
X004519Y024585D01*
X007807Y030673D02*
X007807Y031498D01*
X009807Y031498D02*
X009807Y030673D01*
X011807Y030673D02*
X011807Y031498D01*
X013807Y031498D02*
X013807Y030673D01*
X015807Y030673D02*
X015807Y031498D01*
X017807Y031498D02*
X017807Y030673D01*
X036944Y027185D02*
X037769Y027185D01*
X037769Y025185D02*
X036944Y025185D01*
X036944Y018685D02*
X037769Y018685D01*
X037769Y016685D02*
X036944Y016685D01*
X037194Y012485D02*
X038019Y012485D01*
X038019Y010485D02*
X037194Y010485D01*
X037194Y008485D02*
X038019Y008485D01*
X038019Y006485D02*
X037194Y006485D01*
D15*
X024407Y028885D03*
X023407Y028885D03*
X022407Y028885D03*
X021407Y028885D03*
X021907Y029885D03*
X022907Y029885D03*
X023907Y029885D03*
X024907Y029885D03*
D16*
X025407Y032385D03*
X020907Y032385D03*
D17*
X017257Y022235D03*
X016257Y021235D03*
X015257Y022235D03*
X013857Y022185D03*
X012857Y021185D03*
X011857Y022185D03*
X028857Y008685D03*
X029857Y007685D03*
X029857Y009685D03*
M02*
