G04 (Genere par PCBNEW (2007-01-15)) le 17/3/2007-22:01:43*
G01*
G70*
G90*
%MOIN*%
G04 Gerber Fmt 3.4, Leading zero omitted, Abs format*
%FSLAX34Y34*%
G04 APERTURE LIST*
%ADD10C,0.015000*%
%ADD11C,0.012000*%
%ADD12C,0.015000*%
%ADD13C,0.150000*%
%ADD14R,0.080000X0.080000*%
%ADD15C,0.080000*%
%ADD16C,0.060000*%
%ADD17C,0.400000*%
%ADD18R,0.400000X0.400000*%
%ADD19R,0.055000X0.080000*%
%ADD20R,0.100000X0.100000*%
%ADD21C,0.100000*%
%ADD22R,0.055000X0.055000*%
%ADD23C,0.055000*%
%ADD24C,0.080000*%
%ADD25C,0.040000*%
%ADD26C,0.160000*%
%ADD27C,0.130000*%
%ADD28C,0.020000*%
%ADD29C,0.005000*%
%ADD30C,0.019700*%
%ADD31C,0.001000*%
%ADD32C,0.008000*%
%ADD33C,0.025000*%
%ADD34C,0.010000*%
G04 APERTURE END LIST*
G54D10*
X67600Y-23700D02*
X37600Y-23700D01*
X37600Y-42700D02*
X67600Y-42700D01*
X67600Y-42700D02*
X67600Y-23700D01*
X37600Y-23700D02*
X37600Y-42700D01*
X52338Y-26400D02*
X52338Y-25600D01*
X52338Y-25600D02*
X52863Y-25600D01*
X52863Y-25600D02*
X52951Y-25689D01*
X52951Y-25689D02*
X52951Y-25956D01*
X52951Y-25956D02*
X52863Y-26045D01*
X52863Y-26045D02*
X52338Y-26045D01*
X53353Y-26400D02*
X53265Y-26312D01*
X53265Y-26312D02*
X53265Y-25956D01*
X53265Y-25956D02*
X53353Y-25867D01*
X53353Y-25867D02*
X53790Y-25867D01*
X53790Y-25867D02*
X53878Y-25956D01*
X53878Y-25956D02*
X53878Y-26312D01*
X53878Y-26312D02*
X53790Y-26400D01*
X53790Y-26400D02*
X53353Y-26400D01*
X54192Y-25867D02*
X54192Y-26223D01*
X54192Y-26223D02*
X54367Y-26400D01*
X54367Y-26400D02*
X54542Y-26223D01*
X54542Y-26223D02*
X54717Y-26400D01*
X54717Y-26400D02*
X54892Y-26223D01*
X54892Y-26223D02*
X54892Y-25867D01*
X55119Y-26134D02*
X55732Y-26134D01*
X55732Y-26134D02*
X55732Y-25956D01*
X55732Y-25956D02*
X55644Y-25867D01*
X55644Y-25867D02*
X55207Y-25867D01*
X55207Y-25867D02*
X55119Y-25956D01*
X55119Y-25956D02*
X55119Y-26312D01*
X55119Y-26312D02*
X55207Y-26400D01*
X55207Y-26400D02*
X55644Y-26400D01*
X55644Y-26400D02*
X55732Y-26312D01*
X56046Y-26400D02*
X56046Y-25867D01*
X56046Y-26045D02*
X56221Y-25867D01*
X56221Y-25867D02*
X56484Y-25867D01*
X56484Y-25867D02*
X56659Y-26045D01*
X57586Y-26312D02*
X57498Y-26400D01*
X57498Y-26400D02*
X57061Y-26400D01*
X57061Y-26400D02*
X56973Y-26312D01*
X56973Y-26312D02*
X56973Y-25689D01*
X56973Y-25689D02*
X57061Y-25600D01*
X57061Y-25600D02*
X57498Y-25600D01*
X57498Y-25600D02*
X57586Y-25689D01*
X57988Y-26400D02*
X57900Y-26312D01*
X57900Y-26312D02*
X57900Y-25956D01*
X57900Y-25956D02*
X57988Y-25867D01*
X57988Y-25867D02*
X58425Y-25867D01*
X58425Y-25867D02*
X58513Y-25956D01*
X58513Y-25956D02*
X58513Y-26312D01*
X58513Y-26312D02*
X58425Y-26400D01*
X58425Y-26400D02*
X57988Y-26400D01*
X58827Y-26400D02*
X58827Y-25867D01*
X58827Y-25956D02*
X58915Y-25867D01*
X58915Y-25867D02*
X59090Y-25867D01*
X59090Y-25867D02*
X59177Y-25956D01*
X59177Y-25956D02*
X59177Y-26400D01*
X59177Y-25956D02*
X59265Y-25867D01*
X59265Y-25867D02*
X59440Y-25867D01*
X59440Y-25867D02*
X59527Y-25956D01*
X59527Y-25956D02*
X59527Y-26400D01*
X59754Y-26400D02*
X59754Y-25867D01*
X59754Y-25956D02*
X59842Y-25867D01*
X59842Y-25867D02*
X60017Y-25867D01*
X60017Y-25867D02*
X60104Y-25956D01*
X60104Y-25956D02*
X60104Y-26400D01*
X60104Y-25956D02*
X60192Y-25867D01*
X60192Y-25867D02*
X60367Y-25867D01*
X60367Y-25867D02*
X60454Y-25956D01*
X60454Y-25956D02*
X60454Y-26400D01*
X60681Y-26312D02*
X60769Y-26400D01*
X60769Y-26400D02*
X61206Y-26400D01*
X61206Y-26400D02*
X61294Y-26312D01*
X61294Y-26312D02*
X61294Y-26223D01*
X61294Y-26223D02*
X61206Y-26134D01*
X61206Y-26134D02*
X60769Y-26134D01*
X60769Y-26134D02*
X60681Y-26045D01*
X60681Y-26045D02*
X60681Y-25956D01*
X60681Y-25956D02*
X60769Y-25867D01*
X60769Y-25867D02*
X61206Y-25867D01*
X61206Y-25867D02*
X61294Y-25956D01*
X62535Y-25867D02*
X62535Y-26134D01*
X62535Y-26134D02*
X62798Y-26400D01*
X62798Y-26400D02*
X63060Y-26134D01*
X63060Y-26134D02*
X63060Y-25867D01*
X63637Y-26400D02*
X63987Y-26400D01*
X63812Y-26400D02*
X63812Y-25600D01*
X63812Y-25689D02*
X63637Y-25867D01*
X64652Y-26400D02*
X64652Y-26312D01*
X65491Y-26400D02*
X65841Y-26400D01*
X65666Y-26400D02*
X65666Y-25600D01*
X65666Y-25689D02*
X65491Y-25867D01*
G54D11*
X52832Y-24900D02*
X52832Y-24100D01*
X52832Y-24100D02*
X53282Y-24100D01*
X53282Y-24100D02*
X53357Y-24189D01*
X53357Y-24189D02*
X53357Y-24456D01*
X53357Y-24456D02*
X53282Y-24545D01*
X53282Y-24545D02*
X52832Y-24545D01*
X53057Y-24545D02*
X53357Y-24900D01*
X53618Y-24634D02*
X54143Y-24634D01*
X54143Y-24634D02*
X54143Y-24456D01*
X54143Y-24456D02*
X54068Y-24367D01*
X54068Y-24367D02*
X53693Y-24367D01*
X53693Y-24367D02*
X53618Y-24456D01*
X53618Y-24456D02*
X53618Y-24812D01*
X53618Y-24812D02*
X53693Y-24900D01*
X53693Y-24900D02*
X54068Y-24900D01*
X54068Y-24900D02*
X54143Y-24812D01*
X54404Y-25166D02*
X54404Y-24367D01*
X54404Y-24456D02*
X54479Y-24367D01*
X54479Y-24367D02*
X54854Y-24367D01*
X54854Y-24367D02*
X54929Y-24456D01*
X54929Y-24456D02*
X54929Y-24812D01*
X54929Y-24812D02*
X54854Y-24900D01*
X54854Y-24900D02*
X54479Y-24900D01*
X54479Y-24900D02*
X54404Y-24812D01*
X55190Y-24900D02*
X55190Y-24100D01*
X55190Y-24100D02*
X55640Y-24100D01*
X55640Y-24100D02*
X55715Y-24189D01*
X55715Y-24189D02*
X55715Y-24456D01*
X55715Y-24456D02*
X55640Y-24545D01*
X55640Y-24545D02*
X55190Y-24545D01*
X55415Y-24545D02*
X55715Y-24900D01*
X55976Y-24367D02*
X56426Y-24367D01*
X56426Y-24367D02*
X56501Y-24456D01*
X56501Y-24456D02*
X56501Y-24900D01*
X56501Y-24900D02*
X56051Y-24900D01*
X56051Y-24900D02*
X55976Y-24812D01*
X55976Y-24812D02*
X55976Y-24723D01*
X55976Y-24723D02*
X56051Y-24634D01*
X56051Y-24634D02*
X56501Y-24634D01*
X56762Y-25166D02*
X56762Y-24367D01*
X56762Y-24456D02*
X56837Y-24367D01*
X56837Y-24367D02*
X57212Y-24367D01*
X57212Y-24367D02*
X57287Y-24456D01*
X57287Y-24456D02*
X57287Y-24812D01*
X57287Y-24812D02*
X57212Y-24900D01*
X57212Y-24900D02*
X56837Y-24900D01*
X56837Y-24900D02*
X56762Y-24812D01*
X57773Y-24900D02*
X57773Y-24812D01*
X58409Y-24900D02*
X58334Y-24812D01*
X58334Y-24812D02*
X58334Y-24456D01*
X58334Y-24456D02*
X58409Y-24367D01*
X58409Y-24367D02*
X58784Y-24367D01*
X58784Y-24367D02*
X58859Y-24456D01*
X58859Y-24456D02*
X58859Y-24812D01*
X58859Y-24812D02*
X58784Y-24900D01*
X58784Y-24900D02*
X58409Y-24900D01*
X59120Y-24900D02*
X59120Y-24367D01*
X59120Y-24545D02*
X59270Y-24367D01*
X59270Y-24367D02*
X59495Y-24367D01*
X59495Y-24367D02*
X59645Y-24545D01*
X59906Y-25077D02*
X59981Y-25166D01*
X59981Y-25166D02*
X60356Y-25166D01*
X60356Y-25166D02*
X60431Y-25077D01*
X60431Y-25077D02*
X60431Y-24456D01*
X60431Y-24456D02*
X60356Y-24367D01*
X60356Y-24367D02*
X59981Y-24367D01*
X59981Y-24367D02*
X59906Y-24456D01*
X59906Y-24456D02*
X59906Y-24812D01*
X59906Y-24812D02*
X59981Y-24900D01*
X59981Y-24900D02*
X60356Y-24900D01*
X60356Y-24900D02*
X60431Y-24812D01*
G54D29*
X56081Y-31620D02*
X56059Y-31828D01*
X56059Y-31828D02*
X55994Y-32027D01*
X55994Y-32027D02*
X55889Y-32208D01*
X55889Y-32208D02*
X55749Y-32363D01*
X55749Y-32363D02*
X55580Y-32486D01*
X55580Y-32486D02*
X55389Y-32572D01*
X55389Y-32572D02*
X55184Y-32615D01*
X55184Y-32615D02*
X54976Y-32615D01*
X54976Y-32615D02*
X54771Y-32572D01*
X54771Y-32572D02*
X54580Y-32486D01*
X54580Y-32486D02*
X54411Y-32363D01*
X54411Y-32363D02*
X54271Y-32208D01*
X54271Y-32208D02*
X54166Y-32027D01*
X54166Y-32027D02*
X54101Y-31828D01*
X54101Y-31828D02*
X54079Y-31620D01*
X54079Y-31620D02*
X54101Y-31412D01*
X54101Y-31412D02*
X54166Y-31213D01*
X54166Y-31213D02*
X54271Y-31032D01*
X54271Y-31032D02*
X54411Y-30877D01*
X54411Y-30877D02*
X54580Y-30754D01*
X54580Y-30754D02*
X54771Y-30668D01*
X54771Y-30668D02*
X54976Y-30625D01*
X54976Y-30625D02*
X55184Y-30625D01*
X55184Y-30625D02*
X55389Y-30668D01*
X55389Y-30668D02*
X55580Y-30754D01*
X55580Y-30754D02*
X55749Y-30877D01*
X55749Y-30877D02*
X55889Y-31032D01*
X55889Y-31032D02*
X55994Y-31213D01*
X55994Y-31213D02*
X56059Y-31412D01*
X56059Y-31412D02*
X56081Y-31620D01*
G54D10*
X67600Y-26500D02*
X63600Y-26500D01*
X67600Y-39200D02*
X63600Y-39200D01*
X67600Y-26500D02*
X67600Y-39200D01*
G54D11*
X63600Y-26450D02*
X63600Y-39250D01*
X67600Y-29250D02*
X67600Y-36450D01*
G54D29*
X56301Y-29400D02*
X56279Y-29608D01*
X56279Y-29608D02*
X56214Y-29807D01*
X56214Y-29807D02*
X56109Y-29988D01*
X56109Y-29988D02*
X55969Y-30143D01*
X55969Y-30143D02*
X55800Y-30266D01*
X55800Y-30266D02*
X55609Y-30352D01*
X55609Y-30352D02*
X55404Y-30395D01*
X55404Y-30395D02*
X55196Y-30395D01*
X55196Y-30395D02*
X54991Y-30352D01*
X54991Y-30352D02*
X54800Y-30266D01*
X54800Y-30266D02*
X54631Y-30143D01*
X54631Y-30143D02*
X54491Y-29988D01*
X54491Y-29988D02*
X54386Y-29807D01*
X54386Y-29807D02*
X54321Y-29608D01*
X54321Y-29608D02*
X54299Y-29400D01*
X54299Y-29400D02*
X54321Y-29192D01*
X54321Y-29192D02*
X54386Y-28993D01*
X54386Y-28993D02*
X54491Y-28812D01*
X54491Y-28812D02*
X54631Y-28657D01*
X54631Y-28657D02*
X54800Y-28534D01*
X54800Y-28534D02*
X54991Y-28448D01*
X54991Y-28448D02*
X55196Y-28405D01*
X55196Y-28405D02*
X55404Y-28405D01*
X55404Y-28405D02*
X55609Y-28448D01*
X55609Y-28448D02*
X55800Y-28534D01*
X55800Y-28534D02*
X55969Y-28657D01*
X55969Y-28657D02*
X56109Y-28812D01*
X56109Y-28812D02*
X56214Y-28993D01*
X56214Y-28993D02*
X56279Y-29192D01*
X56279Y-29192D02*
X56301Y-29400D01*
G54D10*
X52982Y-32900D02*
X52849Y-34164D01*
X52849Y-34164D02*
X52456Y-35373D01*
X52456Y-35373D02*
X51820Y-36474D01*
X51820Y-36474D02*
X50969Y-37419D01*
X50969Y-37419D02*
X49941Y-38167D01*
X49941Y-38167D02*
X48779Y-38684D01*
X48779Y-38684D02*
X47535Y-38948D01*
X47535Y-38948D02*
X46265Y-38948D01*
X46265Y-38948D02*
X45021Y-38684D01*
X45021Y-38684D02*
X43859Y-38167D01*
X43859Y-38167D02*
X42831Y-37419D01*
X42831Y-37419D02*
X41980Y-36474D01*
X41980Y-36474D02*
X41344Y-35373D01*
X41344Y-35373D02*
X40951Y-34164D01*
X40951Y-34164D02*
X40818Y-32900D01*
X40818Y-32900D02*
X40951Y-31636D01*
X40951Y-31636D02*
X41344Y-30427D01*
X41344Y-30427D02*
X41980Y-29326D01*
X41980Y-29326D02*
X42831Y-28381D01*
X42831Y-28381D02*
X43859Y-27633D01*
X43859Y-27633D02*
X45021Y-27116D01*
X45021Y-27116D02*
X46265Y-26852D01*
X46265Y-26852D02*
X47535Y-26852D01*
X47535Y-26852D02*
X48779Y-27116D01*
X48779Y-27116D02*
X49941Y-27633D01*
X49941Y-27633D02*
X50969Y-28381D01*
X50969Y-28381D02*
X51820Y-29326D01*
X51820Y-29326D02*
X52456Y-30427D01*
X52456Y-30427D02*
X52849Y-31636D01*
X52849Y-31636D02*
X52982Y-32900D01*
G54D11*
X51700Y-26200D02*
X50200Y-24700D01*
X50200Y-24700D02*
X49700Y-24700D01*
X49700Y-24700D02*
X49200Y-25200D01*
X49200Y-25200D02*
X49200Y-26200D01*
X49200Y-26200D02*
X50200Y-27200D01*
X50200Y-27200D02*
X51200Y-27200D01*
X51200Y-27200D02*
X51700Y-26700D01*
X51700Y-26700D02*
X51700Y-26200D01*
G54D29*
X54201Y-27900D02*
X54179Y-28108D01*
X54179Y-28108D02*
X54114Y-28307D01*
X54114Y-28307D02*
X54009Y-28488D01*
X54009Y-28488D02*
X53869Y-28643D01*
X53869Y-28643D02*
X53700Y-28766D01*
X53700Y-28766D02*
X53509Y-28852D01*
X53509Y-28852D02*
X53304Y-28895D01*
X53304Y-28895D02*
X53096Y-28895D01*
X53096Y-28895D02*
X52891Y-28852D01*
X52891Y-28852D02*
X52700Y-28766D01*
X52700Y-28766D02*
X52531Y-28643D01*
X52531Y-28643D02*
X52391Y-28488D01*
X52391Y-28488D02*
X52286Y-28307D01*
X52286Y-28307D02*
X52221Y-28108D01*
X52221Y-28108D02*
X52199Y-27900D01*
X52199Y-27900D02*
X52221Y-27692D01*
X52221Y-27692D02*
X52286Y-27493D01*
X52286Y-27493D02*
X52391Y-27312D01*
X52391Y-27312D02*
X52531Y-27157D01*
X52531Y-27157D02*
X52700Y-27034D01*
X52700Y-27034D02*
X52891Y-26948D01*
X52891Y-26948D02*
X53096Y-26905D01*
X53096Y-26905D02*
X53304Y-26905D01*
X53304Y-26905D02*
X53509Y-26948D01*
X53509Y-26948D02*
X53700Y-27034D01*
X53700Y-27034D02*
X53869Y-27157D01*
X53869Y-27157D02*
X54009Y-27312D01*
X54009Y-27312D02*
X54114Y-27493D01*
X54114Y-27493D02*
X54179Y-27692D01*
X54179Y-27692D02*
X54201Y-27900D01*
X55961Y-34940D02*
X55939Y-35148D01*
X55939Y-35148D02*
X55874Y-35347D01*
X55874Y-35347D02*
X55769Y-35528D01*
X55769Y-35528D02*
X55629Y-35683D01*
X55629Y-35683D02*
X55460Y-35806D01*
X55460Y-35806D02*
X55269Y-35892D01*
X55269Y-35892D02*
X55064Y-35935D01*
X55064Y-35935D02*
X54856Y-35935D01*
X54856Y-35935D02*
X54651Y-35892D01*
X54651Y-35892D02*
X54460Y-35806D01*
X54460Y-35806D02*
X54291Y-35683D01*
X54291Y-35683D02*
X54151Y-35528D01*
X54151Y-35528D02*
X54046Y-35347D01*
X54046Y-35347D02*
X53981Y-35148D01*
X53981Y-35148D02*
X53959Y-34940D01*
X53959Y-34940D02*
X53981Y-34732D01*
X53981Y-34732D02*
X54046Y-34533D01*
X54046Y-34533D02*
X54151Y-34352D01*
X54151Y-34352D02*
X54291Y-34197D01*
X54291Y-34197D02*
X54460Y-34074D01*
X54460Y-34074D02*
X54651Y-33988D01*
X54651Y-33988D02*
X54856Y-33945D01*
X54856Y-33945D02*
X55064Y-33945D01*
X55064Y-33945D02*
X55269Y-33988D01*
X55269Y-33988D02*
X55460Y-34074D01*
X55460Y-34074D02*
X55629Y-34197D01*
X55629Y-34197D02*
X55769Y-34352D01*
X55769Y-34352D02*
X55874Y-34533D01*
X55874Y-34533D02*
X55939Y-34732D01*
X55939Y-34732D02*
X55961Y-34940D01*
G54D11*
X54300Y-40700D02*
X54223Y-41082D01*
X54223Y-41082D02*
X54007Y-41407D01*
X54007Y-41407D02*
X53682Y-41623D01*
X53682Y-41623D02*
X53300Y-41700D01*
X53300Y-41700D02*
X52918Y-41623D01*
X52918Y-41623D02*
X52593Y-41407D01*
X52593Y-41407D02*
X52377Y-41082D01*
X52377Y-41082D02*
X52300Y-40700D01*
X52300Y-40700D02*
X52377Y-40318D01*
X52377Y-40318D02*
X52593Y-39993D01*
X52593Y-39993D02*
X52918Y-39777D01*
X52918Y-39777D02*
X53300Y-39700D01*
X53300Y-39700D02*
X53682Y-39777D01*
X53682Y-39777D02*
X54007Y-39993D01*
X54007Y-39993D02*
X54223Y-40318D01*
X54223Y-40318D02*
X54300Y-40700D01*
X53550Y-41700D02*
X53550Y-41450D01*
X53550Y-41450D02*
X53050Y-41450D01*
X53050Y-41450D02*
X53050Y-41700D01*
X54800Y-41600D02*
X54800Y-40600D01*
X54800Y-40600D02*
X56800Y-40600D01*
X56800Y-40600D02*
X56800Y-41600D01*
X56800Y-41600D02*
X54800Y-41600D01*
X57700Y-41600D02*
X57700Y-40600D01*
X57700Y-40600D02*
X59700Y-40600D01*
X59700Y-40600D02*
X59700Y-41600D01*
X59700Y-41600D02*
X57700Y-41600D01*
X50300Y-38600D02*
X50500Y-38600D01*
X53300Y-38600D02*
X53100Y-38600D01*
X53100Y-38600D02*
X53100Y-38200D01*
X53100Y-38200D02*
X50500Y-38200D01*
X50500Y-38200D02*
X50500Y-39000D01*
X50500Y-39000D02*
X53100Y-39000D01*
X53100Y-39000D02*
X53100Y-38600D01*
X50500Y-38400D02*
X50700Y-38200D01*
G54D29*
X56421Y-37440D02*
X56399Y-37648D01*
X56399Y-37648D02*
X56334Y-37847D01*
X56334Y-37847D02*
X56229Y-38028D01*
X56229Y-38028D02*
X56089Y-38183D01*
X56089Y-38183D02*
X55920Y-38306D01*
X55920Y-38306D02*
X55729Y-38392D01*
X55729Y-38392D02*
X55524Y-38435D01*
X55524Y-38435D02*
X55316Y-38435D01*
X55316Y-38435D02*
X55111Y-38392D01*
X55111Y-38392D02*
X54920Y-38306D01*
X54920Y-38306D02*
X54751Y-38183D01*
X54751Y-38183D02*
X54611Y-38028D01*
X54611Y-38028D02*
X54506Y-37847D01*
X54506Y-37847D02*
X54441Y-37648D01*
X54441Y-37648D02*
X54419Y-37440D01*
X54419Y-37440D02*
X54441Y-37232D01*
X54441Y-37232D02*
X54506Y-37033D01*
X54506Y-37033D02*
X54611Y-36852D01*
X54611Y-36852D02*
X54751Y-36697D01*
X54751Y-36697D02*
X54920Y-36574D01*
X54920Y-36574D02*
X55111Y-36488D01*
X55111Y-36488D02*
X55316Y-36445D01*
X55316Y-36445D02*
X55524Y-36445D01*
X55524Y-36445D02*
X55729Y-36488D01*
X55729Y-36488D02*
X55920Y-36574D01*
X55920Y-36574D02*
X56089Y-36697D01*
X56089Y-36697D02*
X56229Y-36852D01*
X56229Y-36852D02*
X56334Y-37033D01*
X56334Y-37033D02*
X56399Y-37232D01*
X56399Y-37232D02*
X56421Y-37440D01*
G54D10*
X60700Y-28800D02*
X60700Y-28800D01*
X60700Y-28800D02*
X60700Y-29300D01*
X60700Y-29300D02*
X59700Y-29300D01*
X59700Y-29300D02*
X59700Y-28800D01*
X61200Y-28800D02*
X61200Y-37800D01*
X61200Y-37800D02*
X59200Y-37800D01*
X59200Y-37800D02*
X59200Y-28800D01*
X59200Y-28800D02*
X61200Y-28800D01*
G54D11*
X47500Y-26200D02*
X43500Y-26200D01*
X47500Y-26700D02*
X47500Y-23700D01*
X47500Y-23700D02*
X43500Y-23700D01*
X43500Y-23700D02*
X43500Y-26700D01*
X43500Y-26700D02*
X47500Y-26700D01*
X47700Y-40600D02*
X47700Y-41600D01*
X47700Y-41600D02*
X45700Y-41600D01*
X45700Y-41600D02*
X45700Y-40600D01*
X45700Y-40600D02*
X47700Y-40600D01*
X39900Y-36450D02*
X38900Y-36450D01*
X38900Y-36450D02*
X38900Y-34450D01*
X38900Y-34450D02*
X39900Y-34450D01*
X39900Y-34450D02*
X39900Y-36450D01*
X43900Y-40600D02*
X43900Y-41600D01*
X43900Y-41600D02*
X41900Y-41600D01*
X41900Y-41600D02*
X41900Y-40600D01*
X41900Y-40600D02*
X43900Y-40600D01*
X39900Y-39700D02*
X38900Y-39700D01*
X38900Y-39700D02*
X38900Y-37700D01*
X38900Y-37700D02*
X39900Y-37700D01*
X39900Y-37700D02*
X39900Y-39700D01*
X39900Y-33200D02*
X38900Y-33200D01*
X38900Y-33200D02*
X38900Y-31200D01*
X38900Y-31200D02*
X39900Y-31200D01*
X39900Y-31200D02*
X39900Y-33200D01*
X51700Y-40600D02*
X51700Y-41600D01*
X51700Y-41600D02*
X49700Y-41600D01*
X49700Y-41600D02*
X49700Y-40600D01*
X49700Y-40600D02*
X51700Y-40600D01*
X39900Y-29950D02*
X38900Y-29950D01*
X38900Y-29950D02*
X38900Y-27950D01*
X38900Y-27950D02*
X39900Y-27950D01*
X39900Y-27950D02*
X39900Y-29950D01*
G54D31*
X54680Y-30720D02*
X55480Y-30720D01*
X55480Y-30720D02*
X55480Y-31520D01*
X55480Y-31520D02*
X54680Y-31520D01*
X54680Y-31520D02*
X54680Y-30720D01*
X55480Y-33120D02*
X55471Y-33203D01*
X55471Y-33203D02*
X55445Y-33282D01*
X55445Y-33282D02*
X55403Y-33355D01*
X55403Y-33355D02*
X55347Y-33417D01*
X55347Y-33417D02*
X55280Y-33466D01*
X55280Y-33466D02*
X55203Y-33500D01*
X55203Y-33500D02*
X55121Y-33517D01*
X55121Y-33517D02*
X55039Y-33517D01*
X55039Y-33517D02*
X54957Y-33500D01*
X54957Y-33500D02*
X54880Y-33466D01*
X54880Y-33466D02*
X54813Y-33417D01*
X54813Y-33417D02*
X54757Y-33355D01*
X54757Y-33355D02*
X54715Y-33282D01*
X54715Y-33282D02*
X54689Y-33203D01*
X54689Y-33203D02*
X54680Y-33120D01*
X54680Y-33120D02*
X54689Y-33037D01*
X54689Y-33037D02*
X54715Y-32958D01*
X54715Y-32958D02*
X54757Y-32885D01*
X54757Y-32885D02*
X54813Y-32823D01*
X54813Y-32823D02*
X54880Y-32774D01*
X54880Y-32774D02*
X54957Y-32740D01*
X54957Y-32740D02*
X55039Y-32723D01*
X55039Y-32723D02*
X55121Y-32723D01*
X55121Y-32723D02*
X55203Y-32740D01*
X55203Y-32740D02*
X55280Y-32774D01*
X55280Y-32774D02*
X55347Y-32823D01*
X55347Y-32823D02*
X55403Y-32885D01*
X55403Y-32885D02*
X55445Y-32958D01*
X55445Y-32958D02*
X55471Y-33037D01*
X55471Y-33037D02*
X55480Y-33120D01*
X65250Y-37800D02*
X65233Y-37955D01*
X65233Y-37955D02*
X65185Y-38105D01*
X65185Y-38105D02*
X65106Y-38240D01*
X65106Y-38240D02*
X65001Y-38357D01*
X65001Y-38357D02*
X64875Y-38449D01*
X64875Y-38449D02*
X64731Y-38513D01*
X64731Y-38513D02*
X64578Y-38545D01*
X64578Y-38545D02*
X64422Y-38545D01*
X64422Y-38545D02*
X64269Y-38513D01*
X64269Y-38513D02*
X64125Y-38449D01*
X64125Y-38449D02*
X63999Y-38357D01*
X63999Y-38357D02*
X63894Y-38240D01*
X63894Y-38240D02*
X63815Y-38105D01*
X63815Y-38105D02*
X63767Y-37955D01*
X63767Y-37955D02*
X63750Y-37800D01*
X63750Y-37800D02*
X63767Y-37645D01*
X63767Y-37645D02*
X63815Y-37495D01*
X63815Y-37495D02*
X63894Y-37360D01*
X63894Y-37360D02*
X63999Y-37243D01*
X63999Y-37243D02*
X64125Y-37151D01*
X64125Y-37151D02*
X64269Y-37087D01*
X64269Y-37087D02*
X64422Y-37055D01*
X64422Y-37055D02*
X64578Y-37055D01*
X64578Y-37055D02*
X64731Y-37087D01*
X64731Y-37087D02*
X64875Y-37151D01*
X64875Y-37151D02*
X65001Y-37243D01*
X65001Y-37243D02*
X65106Y-37360D01*
X65106Y-37360D02*
X65185Y-37495D01*
X65185Y-37495D02*
X65233Y-37645D01*
X65233Y-37645D02*
X65250Y-37800D01*
X65250Y-27800D02*
X65233Y-27955D01*
X65233Y-27955D02*
X65185Y-28105D01*
X65185Y-28105D02*
X65106Y-28240D01*
X65106Y-28240D02*
X65001Y-28357D01*
X65001Y-28357D02*
X64875Y-28449D01*
X64875Y-28449D02*
X64731Y-28513D01*
X64731Y-28513D02*
X64578Y-28545D01*
X64578Y-28545D02*
X64422Y-28545D01*
X64422Y-28545D02*
X64269Y-28513D01*
X64269Y-28513D02*
X64125Y-28449D01*
X64125Y-28449D02*
X63999Y-28357D01*
X63999Y-28357D02*
X63894Y-28240D01*
X63894Y-28240D02*
X63815Y-28105D01*
X63815Y-28105D02*
X63767Y-27955D01*
X63767Y-27955D02*
X63750Y-27800D01*
X63750Y-27800D02*
X63767Y-27645D01*
X63767Y-27645D02*
X63815Y-27495D01*
X63815Y-27495D02*
X63894Y-27360D01*
X63894Y-27360D02*
X63999Y-27243D01*
X63999Y-27243D02*
X64125Y-27151D01*
X64125Y-27151D02*
X64269Y-27087D01*
X64269Y-27087D02*
X64422Y-27055D01*
X64422Y-27055D02*
X64578Y-27055D01*
X64578Y-27055D02*
X64731Y-27087D01*
X64731Y-27087D02*
X64875Y-27151D01*
X64875Y-27151D02*
X65001Y-27243D01*
X65001Y-27243D02*
X65106Y-27360D01*
X65106Y-27360D02*
X65185Y-27495D01*
X65185Y-27495D02*
X65233Y-27645D01*
X65233Y-27645D02*
X65250Y-27800D01*
X63600Y-30250D02*
X64400Y-30250D01*
X64400Y-30250D02*
X64400Y-31050D01*
X64400Y-31050D02*
X63600Y-31050D01*
X63600Y-31050D02*
X63600Y-30250D01*
X64300Y-31750D02*
X64293Y-31812D01*
X64293Y-31812D02*
X64274Y-31872D01*
X64274Y-31872D02*
X64242Y-31926D01*
X64242Y-31926D02*
X64200Y-31972D01*
X64200Y-31972D02*
X64150Y-32009D01*
X64150Y-32009D02*
X64092Y-32035D01*
X64092Y-32035D02*
X64031Y-32048D01*
X64031Y-32048D02*
X63969Y-32048D01*
X63969Y-32048D02*
X63908Y-32035D01*
X63908Y-32035D02*
X63850Y-32009D01*
X63850Y-32009D02*
X63800Y-31972D01*
X63800Y-31972D02*
X63758Y-31926D01*
X63758Y-31926D02*
X63726Y-31872D01*
X63726Y-31872D02*
X63707Y-31812D01*
X63707Y-31812D02*
X63700Y-31750D01*
X63700Y-31750D02*
X63707Y-31688D01*
X63707Y-31688D02*
X63726Y-31628D01*
X63726Y-31628D02*
X63758Y-31574D01*
X63758Y-31574D02*
X63800Y-31528D01*
X63800Y-31528D02*
X63850Y-31491D01*
X63850Y-31491D02*
X63908Y-31465D01*
X63908Y-31465D02*
X63969Y-31452D01*
X63969Y-31452D02*
X64031Y-31452D01*
X64031Y-31452D02*
X64092Y-31465D01*
X64092Y-31465D02*
X64150Y-31491D01*
X64150Y-31491D02*
X64200Y-31528D01*
X64200Y-31528D02*
X64242Y-31574D01*
X64242Y-31574D02*
X64274Y-31628D01*
X64274Y-31628D02*
X64293Y-31688D01*
X64293Y-31688D02*
X64300Y-31750D01*
X64300Y-32800D02*
X64293Y-32862D01*
X64293Y-32862D02*
X64274Y-32922D01*
X64274Y-32922D02*
X64242Y-32976D01*
X64242Y-32976D02*
X64200Y-33022D01*
X64200Y-33022D02*
X64150Y-33059D01*
X64150Y-33059D02*
X64092Y-33085D01*
X64092Y-33085D02*
X64031Y-33098D01*
X64031Y-33098D02*
X63969Y-33098D01*
X63969Y-33098D02*
X63908Y-33085D01*
X63908Y-33085D02*
X63850Y-33059D01*
X63850Y-33059D02*
X63800Y-33022D01*
X63800Y-33022D02*
X63758Y-32976D01*
X63758Y-32976D02*
X63726Y-32922D01*
X63726Y-32922D02*
X63707Y-32862D01*
X63707Y-32862D02*
X63700Y-32800D01*
X63700Y-32800D02*
X63707Y-32738D01*
X63707Y-32738D02*
X63726Y-32678D01*
X63726Y-32678D02*
X63758Y-32624D01*
X63758Y-32624D02*
X63800Y-32578D01*
X63800Y-32578D02*
X63850Y-32541D01*
X63850Y-32541D02*
X63908Y-32515D01*
X63908Y-32515D02*
X63969Y-32502D01*
X63969Y-32502D02*
X64031Y-32502D01*
X64031Y-32502D02*
X64092Y-32515D01*
X64092Y-32515D02*
X64150Y-32541D01*
X64150Y-32541D02*
X64200Y-32578D01*
X64200Y-32578D02*
X64242Y-32624D01*
X64242Y-32624D02*
X64274Y-32678D01*
X64274Y-32678D02*
X64293Y-32738D01*
X64293Y-32738D02*
X64300Y-32800D01*
X64300Y-33900D02*
X64293Y-33962D01*
X64293Y-33962D02*
X64274Y-34022D01*
X64274Y-34022D02*
X64242Y-34076D01*
X64242Y-34076D02*
X64200Y-34122D01*
X64200Y-34122D02*
X64150Y-34159D01*
X64150Y-34159D02*
X64092Y-34185D01*
X64092Y-34185D02*
X64031Y-34198D01*
X64031Y-34198D02*
X63969Y-34198D01*
X63969Y-34198D02*
X63908Y-34185D01*
X63908Y-34185D02*
X63850Y-34159D01*
X63850Y-34159D02*
X63800Y-34122D01*
X63800Y-34122D02*
X63758Y-34076D01*
X63758Y-34076D02*
X63726Y-34022D01*
X63726Y-34022D02*
X63707Y-33962D01*
X63707Y-33962D02*
X63700Y-33900D01*
X63700Y-33900D02*
X63707Y-33838D01*
X63707Y-33838D02*
X63726Y-33778D01*
X63726Y-33778D02*
X63758Y-33724D01*
X63758Y-33724D02*
X63800Y-33678D01*
X63800Y-33678D02*
X63850Y-33641D01*
X63850Y-33641D02*
X63908Y-33615D01*
X63908Y-33615D02*
X63969Y-33602D01*
X63969Y-33602D02*
X64031Y-33602D01*
X64031Y-33602D02*
X64092Y-33615D01*
X64092Y-33615D02*
X64150Y-33641D01*
X64150Y-33641D02*
X64200Y-33678D01*
X64200Y-33678D02*
X64242Y-33724D01*
X64242Y-33724D02*
X64274Y-33778D01*
X64274Y-33778D02*
X64293Y-33838D01*
X64293Y-33838D02*
X64300Y-33900D01*
X64400Y-35000D02*
X64391Y-35083D01*
X64391Y-35083D02*
X64365Y-35162D01*
X64365Y-35162D02*
X64323Y-35235D01*
X64323Y-35235D02*
X64267Y-35297D01*
X64267Y-35297D02*
X64200Y-35346D01*
X64200Y-35346D02*
X64123Y-35380D01*
X64123Y-35380D02*
X64041Y-35397D01*
X64041Y-35397D02*
X63959Y-35397D01*
X63959Y-35397D02*
X63877Y-35380D01*
X63877Y-35380D02*
X63800Y-35346D01*
X63800Y-35346D02*
X63733Y-35297D01*
X63733Y-35297D02*
X63677Y-35235D01*
X63677Y-35235D02*
X63635Y-35162D01*
X63635Y-35162D02*
X63609Y-35083D01*
X63609Y-35083D02*
X63600Y-35000D01*
X63600Y-35000D02*
X63609Y-34917D01*
X63609Y-34917D02*
X63635Y-34838D01*
X63635Y-34838D02*
X63677Y-34765D01*
X63677Y-34765D02*
X63733Y-34703D01*
X63733Y-34703D02*
X63800Y-34654D01*
X63800Y-34654D02*
X63877Y-34620D01*
X63877Y-34620D02*
X63959Y-34603D01*
X63959Y-34603D02*
X64041Y-34603D01*
X64041Y-34603D02*
X64123Y-34620D01*
X64123Y-34620D02*
X64200Y-34654D01*
X64200Y-34654D02*
X64267Y-34703D01*
X64267Y-34703D02*
X64323Y-34765D01*
X64323Y-34765D02*
X64365Y-34838D01*
X64365Y-34838D02*
X64391Y-34917D01*
X64391Y-34917D02*
X64400Y-35000D01*
X65400Y-31200D02*
X65391Y-31283D01*
X65391Y-31283D02*
X65365Y-31362D01*
X65365Y-31362D02*
X65323Y-31435D01*
X65323Y-31435D02*
X65267Y-31497D01*
X65267Y-31497D02*
X65200Y-31546D01*
X65200Y-31546D02*
X65123Y-31580D01*
X65123Y-31580D02*
X65041Y-31597D01*
X65041Y-31597D02*
X64959Y-31597D01*
X64959Y-31597D02*
X64877Y-31580D01*
X64877Y-31580D02*
X64800Y-31546D01*
X64800Y-31546D02*
X64733Y-31497D01*
X64733Y-31497D02*
X64677Y-31435D01*
X64677Y-31435D02*
X64635Y-31362D01*
X64635Y-31362D02*
X64609Y-31283D01*
X64609Y-31283D02*
X64600Y-31200D01*
X64600Y-31200D02*
X64609Y-31117D01*
X64609Y-31117D02*
X64635Y-31038D01*
X64635Y-31038D02*
X64677Y-30965D01*
X64677Y-30965D02*
X64733Y-30903D01*
X64733Y-30903D02*
X64800Y-30854D01*
X64800Y-30854D02*
X64877Y-30820D01*
X64877Y-30820D02*
X64959Y-30803D01*
X64959Y-30803D02*
X65041Y-30803D01*
X65041Y-30803D02*
X65123Y-30820D01*
X65123Y-30820D02*
X65200Y-30854D01*
X65200Y-30854D02*
X65267Y-30903D01*
X65267Y-30903D02*
X65323Y-30965D01*
X65323Y-30965D02*
X65365Y-31038D01*
X65365Y-31038D02*
X65391Y-31117D01*
X65391Y-31117D02*
X65400Y-31200D01*
X65300Y-32300D02*
X65293Y-32362D01*
X65293Y-32362D02*
X65274Y-32422D01*
X65274Y-32422D02*
X65242Y-32476D01*
X65242Y-32476D02*
X65200Y-32522D01*
X65200Y-32522D02*
X65150Y-32559D01*
X65150Y-32559D02*
X65092Y-32585D01*
X65092Y-32585D02*
X65031Y-32598D01*
X65031Y-32598D02*
X64969Y-32598D01*
X64969Y-32598D02*
X64908Y-32585D01*
X64908Y-32585D02*
X64850Y-32559D01*
X64850Y-32559D02*
X64800Y-32522D01*
X64800Y-32522D02*
X64758Y-32476D01*
X64758Y-32476D02*
X64726Y-32422D01*
X64726Y-32422D02*
X64707Y-32362D01*
X64707Y-32362D02*
X64700Y-32300D01*
X64700Y-32300D02*
X64707Y-32238D01*
X64707Y-32238D02*
X64726Y-32178D01*
X64726Y-32178D02*
X64758Y-32124D01*
X64758Y-32124D02*
X64800Y-32078D01*
X64800Y-32078D02*
X64850Y-32041D01*
X64850Y-32041D02*
X64908Y-32015D01*
X64908Y-32015D02*
X64969Y-32002D01*
X64969Y-32002D02*
X65031Y-32002D01*
X65031Y-32002D02*
X65092Y-32015D01*
X65092Y-32015D02*
X65150Y-32041D01*
X65150Y-32041D02*
X65200Y-32078D01*
X65200Y-32078D02*
X65242Y-32124D01*
X65242Y-32124D02*
X65274Y-32178D01*
X65274Y-32178D02*
X65293Y-32238D01*
X65293Y-32238D02*
X65300Y-32300D01*
X65300Y-33350D02*
X65293Y-33412D01*
X65293Y-33412D02*
X65274Y-33472D01*
X65274Y-33472D02*
X65242Y-33526D01*
X65242Y-33526D02*
X65200Y-33572D01*
X65200Y-33572D02*
X65150Y-33609D01*
X65150Y-33609D02*
X65092Y-33635D01*
X65092Y-33635D02*
X65031Y-33648D01*
X65031Y-33648D02*
X64969Y-33648D01*
X64969Y-33648D02*
X64908Y-33635D01*
X64908Y-33635D02*
X64850Y-33609D01*
X64850Y-33609D02*
X64800Y-33572D01*
X64800Y-33572D02*
X64758Y-33526D01*
X64758Y-33526D02*
X64726Y-33472D01*
X64726Y-33472D02*
X64707Y-33412D01*
X64707Y-33412D02*
X64700Y-33350D01*
X64700Y-33350D02*
X64707Y-33288D01*
X64707Y-33288D02*
X64726Y-33228D01*
X64726Y-33228D02*
X64758Y-33174D01*
X64758Y-33174D02*
X64800Y-33128D01*
X64800Y-33128D02*
X64850Y-33091D01*
X64850Y-33091D02*
X64908Y-33065D01*
X64908Y-33065D02*
X64969Y-33052D01*
X64969Y-33052D02*
X65031Y-33052D01*
X65031Y-33052D02*
X65092Y-33065D01*
X65092Y-33065D02*
X65150Y-33091D01*
X65150Y-33091D02*
X65200Y-33128D01*
X65200Y-33128D02*
X65242Y-33174D01*
X65242Y-33174D02*
X65274Y-33228D01*
X65274Y-33228D02*
X65293Y-33288D01*
X65293Y-33288D02*
X65300Y-33350D01*
X65300Y-34450D02*
X65293Y-34512D01*
X65293Y-34512D02*
X65274Y-34572D01*
X65274Y-34572D02*
X65242Y-34626D01*
X65242Y-34626D02*
X65200Y-34672D01*
X65200Y-34672D02*
X65150Y-34709D01*
X65150Y-34709D02*
X65092Y-34735D01*
X65092Y-34735D02*
X65031Y-34748D01*
X65031Y-34748D02*
X64969Y-34748D01*
X64969Y-34748D02*
X64908Y-34735D01*
X64908Y-34735D02*
X64850Y-34709D01*
X64850Y-34709D02*
X64800Y-34672D01*
X64800Y-34672D02*
X64758Y-34626D01*
X64758Y-34626D02*
X64726Y-34572D01*
X64726Y-34572D02*
X64707Y-34512D01*
X64707Y-34512D02*
X64700Y-34450D01*
X64700Y-34450D02*
X64707Y-34388D01*
X64707Y-34388D02*
X64726Y-34328D01*
X64726Y-34328D02*
X64758Y-34274D01*
X64758Y-34274D02*
X64800Y-34228D01*
X64800Y-34228D02*
X64850Y-34191D01*
X64850Y-34191D02*
X64908Y-34165D01*
X64908Y-34165D02*
X64969Y-34152D01*
X64969Y-34152D02*
X65031Y-34152D01*
X65031Y-34152D02*
X65092Y-34165D01*
X65092Y-34165D02*
X65150Y-34191D01*
X65150Y-34191D02*
X65200Y-34228D01*
X65200Y-34228D02*
X65242Y-34274D01*
X65242Y-34274D02*
X65274Y-34328D01*
X65274Y-34328D02*
X65293Y-34388D01*
X65293Y-34388D02*
X65300Y-34450D01*
X55025Y-28500D02*
X55575Y-28500D01*
X55575Y-28500D02*
X55575Y-29300D01*
X55575Y-29300D02*
X55025Y-29300D01*
X55025Y-29300D02*
X55025Y-28500D01*
X55700Y-29900D02*
X55691Y-29983D01*
X55691Y-29983D02*
X55665Y-30062D01*
X55665Y-30062D02*
X55623Y-30135D01*
X55623Y-30135D02*
X55567Y-30197D01*
X55567Y-30197D02*
X55500Y-30246D01*
X55500Y-30246D02*
X55423Y-30280D01*
X55423Y-30280D02*
X55341Y-30297D01*
X55341Y-30297D02*
X55259Y-30297D01*
X55259Y-30297D02*
X55177Y-30280D01*
X55177Y-30280D02*
X55100Y-30246D01*
X55100Y-30246D02*
X55033Y-30197D01*
X55033Y-30197D02*
X54977Y-30135D01*
X54977Y-30135D02*
X54935Y-30062D01*
X54935Y-30062D02*
X54909Y-29983D01*
X54909Y-29983D02*
X54900Y-29900D01*
X54900Y-29900D02*
X54909Y-29817D01*
X54909Y-29817D02*
X54935Y-29738D01*
X54935Y-29738D02*
X54977Y-29665D01*
X54977Y-29665D02*
X55033Y-29603D01*
X55033Y-29603D02*
X55100Y-29554D01*
X55100Y-29554D02*
X55177Y-29520D01*
X55177Y-29520D02*
X55259Y-29503D01*
X55259Y-29503D02*
X55341Y-29503D01*
X55341Y-29503D02*
X55423Y-29520D01*
X55423Y-29520D02*
X55500Y-29554D01*
X55500Y-29554D02*
X55567Y-29603D01*
X55567Y-29603D02*
X55623Y-29665D01*
X55623Y-29665D02*
X55665Y-29738D01*
X55665Y-29738D02*
X55691Y-29817D01*
X55691Y-29817D02*
X55700Y-29900D01*
X46400Y-32900D02*
X46356Y-33315D01*
X46356Y-33315D02*
X46227Y-33713D01*
X46227Y-33713D02*
X46018Y-34075D01*
X46018Y-34075D02*
X45738Y-34386D01*
X45738Y-34386D02*
X45400Y-34632D01*
X45400Y-34632D02*
X45018Y-34802D01*
X45018Y-34802D02*
X44609Y-34889D01*
X44609Y-34889D02*
X44191Y-34889D01*
X44191Y-34889D02*
X43782Y-34802D01*
X43782Y-34802D02*
X43400Y-34632D01*
X43400Y-34632D02*
X43062Y-34386D01*
X43062Y-34386D02*
X42782Y-34075D01*
X42782Y-34075D02*
X42573Y-33713D01*
X42573Y-33713D02*
X42444Y-33315D01*
X42444Y-33315D02*
X42400Y-32900D01*
X42400Y-32900D02*
X42444Y-32485D01*
X42444Y-32485D02*
X42573Y-32087D01*
X42573Y-32087D02*
X42782Y-31725D01*
X42782Y-31725D02*
X43062Y-31414D01*
X43062Y-31414D02*
X43400Y-31168D01*
X43400Y-31168D02*
X43782Y-30998D01*
X43782Y-30998D02*
X44191Y-30911D01*
X44191Y-30911D02*
X44609Y-30911D01*
X44609Y-30911D02*
X45018Y-30998D01*
X45018Y-30998D02*
X45400Y-31168D01*
X45400Y-31168D02*
X45738Y-31414D01*
X45738Y-31414D02*
X46018Y-31725D01*
X46018Y-31725D02*
X46227Y-32087D01*
X46227Y-32087D02*
X46356Y-32485D01*
X46356Y-32485D02*
X46400Y-32900D01*
X51400Y-30900D02*
X51400Y-34900D01*
X51400Y-34900D02*
X47400Y-34900D01*
X47400Y-34900D02*
X47400Y-30900D01*
X47400Y-30900D02*
X51400Y-30900D01*
X50600Y-25600D02*
X49800Y-25600D01*
X49800Y-25600D02*
X49800Y-24800D01*
X49800Y-24800D02*
X50600Y-24800D01*
X50600Y-24800D02*
X50600Y-25600D01*
X50600Y-26200D02*
X50591Y-26283D01*
X50591Y-26283D02*
X50565Y-26362D01*
X50565Y-26362D02*
X50523Y-26435D01*
X50523Y-26435D02*
X50467Y-26497D01*
X50467Y-26497D02*
X50400Y-26546D01*
X50400Y-26546D02*
X50323Y-26580D01*
X50323Y-26580D02*
X50241Y-26597D01*
X50241Y-26597D02*
X50159Y-26597D01*
X50159Y-26597D02*
X50077Y-26580D01*
X50077Y-26580D02*
X50000Y-26546D01*
X50000Y-26546D02*
X49933Y-26497D01*
X49933Y-26497D02*
X49877Y-26435D01*
X49877Y-26435D02*
X49835Y-26362D01*
X49835Y-26362D02*
X49809Y-26283D01*
X49809Y-26283D02*
X49800Y-26200D01*
X49800Y-26200D02*
X49809Y-26117D01*
X49809Y-26117D02*
X49835Y-26038D01*
X49835Y-26038D02*
X49877Y-25965D01*
X49877Y-25965D02*
X49933Y-25903D01*
X49933Y-25903D02*
X50000Y-25854D01*
X50000Y-25854D02*
X50077Y-25820D01*
X50077Y-25820D02*
X50159Y-25803D01*
X50159Y-25803D02*
X50241Y-25803D01*
X50241Y-25803D02*
X50323Y-25820D01*
X50323Y-25820D02*
X50400Y-25854D01*
X50400Y-25854D02*
X50467Y-25903D01*
X50467Y-25903D02*
X50523Y-25965D01*
X50523Y-25965D02*
X50565Y-26038D01*
X50565Y-26038D02*
X50591Y-26117D01*
X50591Y-26117D02*
X50600Y-26200D01*
X51600Y-26200D02*
X51591Y-26283D01*
X51591Y-26283D02*
X51565Y-26362D01*
X51565Y-26362D02*
X51523Y-26435D01*
X51523Y-26435D02*
X51467Y-26497D01*
X51467Y-26497D02*
X51400Y-26546D01*
X51400Y-26546D02*
X51323Y-26580D01*
X51323Y-26580D02*
X51241Y-26597D01*
X51241Y-26597D02*
X51159Y-26597D01*
X51159Y-26597D02*
X51077Y-26580D01*
X51077Y-26580D02*
X51000Y-26546D01*
X51000Y-26546D02*
X50933Y-26497D01*
X50933Y-26497D02*
X50877Y-26435D01*
X50877Y-26435D02*
X50835Y-26362D01*
X50835Y-26362D02*
X50809Y-26283D01*
X50809Y-26283D02*
X50800Y-26200D01*
X50800Y-26200D02*
X50809Y-26117D01*
X50809Y-26117D02*
X50835Y-26038D01*
X50835Y-26038D02*
X50877Y-25965D01*
X50877Y-25965D02*
X50933Y-25903D01*
X50933Y-25903D02*
X51000Y-25854D01*
X51000Y-25854D02*
X51077Y-25820D01*
X51077Y-25820D02*
X51159Y-25803D01*
X51159Y-25803D02*
X51241Y-25803D01*
X51241Y-25803D02*
X51323Y-25820D01*
X51323Y-25820D02*
X51400Y-25854D01*
X51400Y-25854D02*
X51467Y-25903D01*
X51467Y-25903D02*
X51523Y-25965D01*
X51523Y-25965D02*
X51565Y-26038D01*
X51565Y-26038D02*
X51591Y-26117D01*
X51591Y-26117D02*
X51600Y-26200D01*
X54100Y-27500D02*
X54100Y-28300D01*
X54100Y-28300D02*
X53300Y-28300D01*
X53300Y-28300D02*
X53300Y-27500D01*
X53300Y-27500D02*
X54100Y-27500D01*
X53100Y-27900D02*
X53091Y-27983D01*
X53091Y-27983D02*
X53065Y-28062D01*
X53065Y-28062D02*
X53023Y-28135D01*
X53023Y-28135D02*
X52967Y-28197D01*
X52967Y-28197D02*
X52900Y-28246D01*
X52900Y-28246D02*
X52823Y-28280D01*
X52823Y-28280D02*
X52741Y-28297D01*
X52741Y-28297D02*
X52659Y-28297D01*
X52659Y-28297D02*
X52577Y-28280D01*
X52577Y-28280D02*
X52500Y-28246D01*
X52500Y-28246D02*
X52433Y-28197D01*
X52433Y-28197D02*
X52377Y-28135D01*
X52377Y-28135D02*
X52335Y-28062D01*
X52335Y-28062D02*
X52309Y-27983D01*
X52309Y-27983D02*
X52300Y-27900D01*
X52300Y-27900D02*
X52309Y-27817D01*
X52309Y-27817D02*
X52335Y-27738D01*
X52335Y-27738D02*
X52377Y-27665D01*
X52377Y-27665D02*
X52433Y-27603D01*
X52433Y-27603D02*
X52500Y-27554D01*
X52500Y-27554D02*
X52577Y-27520D01*
X52577Y-27520D02*
X52659Y-27503D01*
X52659Y-27503D02*
X52741Y-27503D01*
X52741Y-27503D02*
X52823Y-27520D01*
X52823Y-27520D02*
X52900Y-27554D01*
X52900Y-27554D02*
X52967Y-27603D01*
X52967Y-27603D02*
X53023Y-27665D01*
X53023Y-27665D02*
X53065Y-27738D01*
X53065Y-27738D02*
X53091Y-27817D01*
X53091Y-27817D02*
X53100Y-27900D01*
X54560Y-34040D02*
X55360Y-34040D01*
X55360Y-34040D02*
X55360Y-34840D01*
X55360Y-34840D02*
X54560Y-34840D01*
X54560Y-34840D02*
X54560Y-34040D01*
X55360Y-35440D02*
X55351Y-35523D01*
X55351Y-35523D02*
X55325Y-35602D01*
X55325Y-35602D02*
X55283Y-35675D01*
X55283Y-35675D02*
X55227Y-35737D01*
X55227Y-35737D02*
X55160Y-35786D01*
X55160Y-35786D02*
X55083Y-35820D01*
X55083Y-35820D02*
X55001Y-35837D01*
X55001Y-35837D02*
X54919Y-35837D01*
X54919Y-35837D02*
X54837Y-35820D01*
X54837Y-35820D02*
X54760Y-35786D01*
X54760Y-35786D02*
X54693Y-35737D01*
X54693Y-35737D02*
X54637Y-35675D01*
X54637Y-35675D02*
X54595Y-35602D01*
X54595Y-35602D02*
X54569Y-35523D01*
X54569Y-35523D02*
X54560Y-35440D01*
X54560Y-35440D02*
X54569Y-35357D01*
X54569Y-35357D02*
X54595Y-35278D01*
X54595Y-35278D02*
X54637Y-35205D01*
X54637Y-35205D02*
X54693Y-35143D01*
X54693Y-35143D02*
X54760Y-35094D01*
X54760Y-35094D02*
X54837Y-35060D01*
X54837Y-35060D02*
X54919Y-35043D01*
X54919Y-35043D02*
X55001Y-35043D01*
X55001Y-35043D02*
X55083Y-35060D01*
X55083Y-35060D02*
X55160Y-35094D01*
X55160Y-35094D02*
X55227Y-35143D01*
X55227Y-35143D02*
X55283Y-35205D01*
X55283Y-35205D02*
X55325Y-35278D01*
X55325Y-35278D02*
X55351Y-35357D01*
X55351Y-35357D02*
X55360Y-35440D01*
X52900Y-39800D02*
X53700Y-39800D01*
X53700Y-39800D02*
X53700Y-40600D01*
X53700Y-40600D02*
X52900Y-40600D01*
X52900Y-40600D02*
X52900Y-39800D01*
X53700Y-41200D02*
X53691Y-41283D01*
X53691Y-41283D02*
X53665Y-41362D01*
X53665Y-41362D02*
X53623Y-41435D01*
X53623Y-41435D02*
X53567Y-41497D01*
X53567Y-41497D02*
X53500Y-41546D01*
X53500Y-41546D02*
X53423Y-41580D01*
X53423Y-41580D02*
X53341Y-41597D01*
X53341Y-41597D02*
X53259Y-41597D01*
X53259Y-41597D02*
X53177Y-41580D01*
X53177Y-41580D02*
X53100Y-41546D01*
X53100Y-41546D02*
X53033Y-41497D01*
X53033Y-41497D02*
X52977Y-41435D01*
X52977Y-41435D02*
X52935Y-41362D01*
X52935Y-41362D02*
X52909Y-41283D01*
X52909Y-41283D02*
X52900Y-41200D01*
X52900Y-41200D02*
X52909Y-41117D01*
X52909Y-41117D02*
X52935Y-41038D01*
X52935Y-41038D02*
X52977Y-40965D01*
X52977Y-40965D02*
X53033Y-40903D01*
X53033Y-40903D02*
X53100Y-40854D01*
X53100Y-40854D02*
X53177Y-40820D01*
X53177Y-40820D02*
X53259Y-40803D01*
X53259Y-40803D02*
X53341Y-40803D01*
X53341Y-40803D02*
X53423Y-40820D01*
X53423Y-40820D02*
X53500Y-40854D01*
X53500Y-40854D02*
X53567Y-40903D01*
X53567Y-40903D02*
X53623Y-40965D01*
X53623Y-40965D02*
X53665Y-41038D01*
X53665Y-41038D02*
X53691Y-41117D01*
X53691Y-41117D02*
X53700Y-41200D01*
X54900Y-41500D02*
X54900Y-40700D01*
X54900Y-40700D02*
X55700Y-40700D01*
X55700Y-40700D02*
X55700Y-41500D01*
X55700Y-41500D02*
X54900Y-41500D01*
X56700Y-41100D02*
X56691Y-41183D01*
X56691Y-41183D02*
X56665Y-41262D01*
X56665Y-41262D02*
X56623Y-41335D01*
X56623Y-41335D02*
X56567Y-41397D01*
X56567Y-41397D02*
X56500Y-41446D01*
X56500Y-41446D02*
X56423Y-41480D01*
X56423Y-41480D02*
X56341Y-41497D01*
X56341Y-41497D02*
X56259Y-41497D01*
X56259Y-41497D02*
X56177Y-41480D01*
X56177Y-41480D02*
X56100Y-41446D01*
X56100Y-41446D02*
X56033Y-41397D01*
X56033Y-41397D02*
X55977Y-41335D01*
X55977Y-41335D02*
X55935Y-41262D01*
X55935Y-41262D02*
X55909Y-41183D01*
X55909Y-41183D02*
X55900Y-41100D01*
X55900Y-41100D02*
X55909Y-41017D01*
X55909Y-41017D02*
X55935Y-40938D01*
X55935Y-40938D02*
X55977Y-40865D01*
X55977Y-40865D02*
X56033Y-40803D01*
X56033Y-40803D02*
X56100Y-40754D01*
X56100Y-40754D02*
X56177Y-40720D01*
X56177Y-40720D02*
X56259Y-40703D01*
X56259Y-40703D02*
X56341Y-40703D01*
X56341Y-40703D02*
X56423Y-40720D01*
X56423Y-40720D02*
X56500Y-40754D01*
X56500Y-40754D02*
X56567Y-40803D01*
X56567Y-40803D02*
X56623Y-40865D01*
X56623Y-40865D02*
X56665Y-40938D01*
X56665Y-40938D02*
X56691Y-41017D01*
X56691Y-41017D02*
X56700Y-41100D01*
X57800Y-41500D02*
X57800Y-40700D01*
X57800Y-40700D02*
X58600Y-40700D01*
X58600Y-40700D02*
X58600Y-41500D01*
X58600Y-41500D02*
X57800Y-41500D01*
X59600Y-41100D02*
X59591Y-41183D01*
X59591Y-41183D02*
X59565Y-41262D01*
X59565Y-41262D02*
X59523Y-41335D01*
X59523Y-41335D02*
X59467Y-41397D01*
X59467Y-41397D02*
X59400Y-41446D01*
X59400Y-41446D02*
X59323Y-41480D01*
X59323Y-41480D02*
X59241Y-41497D01*
X59241Y-41497D02*
X59159Y-41497D01*
X59159Y-41497D02*
X59077Y-41480D01*
X59077Y-41480D02*
X59000Y-41446D01*
X59000Y-41446D02*
X58933Y-41397D01*
X58933Y-41397D02*
X58877Y-41335D01*
X58877Y-41335D02*
X58835Y-41262D01*
X58835Y-41262D02*
X58809Y-41183D01*
X58809Y-41183D02*
X58800Y-41100D01*
X58800Y-41100D02*
X58809Y-41017D01*
X58809Y-41017D02*
X58835Y-40938D01*
X58835Y-40938D02*
X58877Y-40865D01*
X58877Y-40865D02*
X58933Y-40803D01*
X58933Y-40803D02*
X59000Y-40754D01*
X59000Y-40754D02*
X59077Y-40720D01*
X59077Y-40720D02*
X59159Y-40703D01*
X59159Y-40703D02*
X59241Y-40703D01*
X59241Y-40703D02*
X59323Y-40720D01*
X59323Y-40720D02*
X59400Y-40754D01*
X59400Y-40754D02*
X59467Y-40803D01*
X59467Y-40803D02*
X59523Y-40865D01*
X59523Y-40865D02*
X59565Y-40938D01*
X59565Y-40938D02*
X59591Y-41017D01*
X59591Y-41017D02*
X59600Y-41100D01*
X50700Y-38600D02*
X50691Y-38683D01*
X50691Y-38683D02*
X50665Y-38762D01*
X50665Y-38762D02*
X50623Y-38835D01*
X50623Y-38835D02*
X50567Y-38897D01*
X50567Y-38897D02*
X50500Y-38946D01*
X50500Y-38946D02*
X50423Y-38980D01*
X50423Y-38980D02*
X50341Y-38997D01*
X50341Y-38997D02*
X50259Y-38997D01*
X50259Y-38997D02*
X50177Y-38980D01*
X50177Y-38980D02*
X50100Y-38946D01*
X50100Y-38946D02*
X50033Y-38897D01*
X50033Y-38897D02*
X49977Y-38835D01*
X49977Y-38835D02*
X49935Y-38762D01*
X49935Y-38762D02*
X49909Y-38683D01*
X49909Y-38683D02*
X49900Y-38600D01*
X49900Y-38600D02*
X49909Y-38517D01*
X49909Y-38517D02*
X49935Y-38438D01*
X49935Y-38438D02*
X49977Y-38365D01*
X49977Y-38365D02*
X50033Y-38303D01*
X50033Y-38303D02*
X50100Y-38254D01*
X50100Y-38254D02*
X50177Y-38220D01*
X50177Y-38220D02*
X50259Y-38203D01*
X50259Y-38203D02*
X50341Y-38203D01*
X50341Y-38203D02*
X50423Y-38220D01*
X50423Y-38220D02*
X50500Y-38254D01*
X50500Y-38254D02*
X50567Y-38303D01*
X50567Y-38303D02*
X50623Y-38365D01*
X50623Y-38365D02*
X50665Y-38438D01*
X50665Y-38438D02*
X50691Y-38517D01*
X50691Y-38517D02*
X50700Y-38600D01*
X53700Y-38600D02*
X53691Y-38683D01*
X53691Y-38683D02*
X53665Y-38762D01*
X53665Y-38762D02*
X53623Y-38835D01*
X53623Y-38835D02*
X53567Y-38897D01*
X53567Y-38897D02*
X53500Y-38946D01*
X53500Y-38946D02*
X53423Y-38980D01*
X53423Y-38980D02*
X53341Y-38997D01*
X53341Y-38997D02*
X53259Y-38997D01*
X53259Y-38997D02*
X53177Y-38980D01*
X53177Y-38980D02*
X53100Y-38946D01*
X53100Y-38946D02*
X53033Y-38897D01*
X53033Y-38897D02*
X52977Y-38835D01*
X52977Y-38835D02*
X52935Y-38762D01*
X52935Y-38762D02*
X52909Y-38683D01*
X52909Y-38683D02*
X52900Y-38600D01*
X52900Y-38600D02*
X52909Y-38517D01*
X52909Y-38517D02*
X52935Y-38438D01*
X52935Y-38438D02*
X52977Y-38365D01*
X52977Y-38365D02*
X53033Y-38303D01*
X53033Y-38303D02*
X53100Y-38254D01*
X53100Y-38254D02*
X53177Y-38220D01*
X53177Y-38220D02*
X53259Y-38203D01*
X53259Y-38203D02*
X53341Y-38203D01*
X53341Y-38203D02*
X53423Y-38220D01*
X53423Y-38220D02*
X53500Y-38254D01*
X53500Y-38254D02*
X53567Y-38303D01*
X53567Y-38303D02*
X53623Y-38365D01*
X53623Y-38365D02*
X53665Y-38438D01*
X53665Y-38438D02*
X53691Y-38517D01*
X53691Y-38517D02*
X53700Y-38600D01*
X55020Y-36540D02*
X55820Y-36540D01*
X55820Y-36540D02*
X55820Y-37340D01*
X55820Y-37340D02*
X55020Y-37340D01*
X55020Y-37340D02*
X55020Y-36540D01*
X55820Y-37940D02*
X55811Y-38023D01*
X55811Y-38023D02*
X55785Y-38102D01*
X55785Y-38102D02*
X55743Y-38175D01*
X55743Y-38175D02*
X55687Y-38237D01*
X55687Y-38237D02*
X55620Y-38286D01*
X55620Y-38286D02*
X55543Y-38320D01*
X55543Y-38320D02*
X55461Y-38337D01*
X55461Y-38337D02*
X55379Y-38337D01*
X55379Y-38337D02*
X55297Y-38320D01*
X55297Y-38320D02*
X55220Y-38286D01*
X55220Y-38286D02*
X55153Y-38237D01*
X55153Y-38237D02*
X55097Y-38175D01*
X55097Y-38175D02*
X55055Y-38102D01*
X55055Y-38102D02*
X55029Y-38023D01*
X55029Y-38023D02*
X55020Y-37940D01*
X55020Y-37940D02*
X55029Y-37857D01*
X55029Y-37857D02*
X55055Y-37778D01*
X55055Y-37778D02*
X55097Y-37705D01*
X55097Y-37705D02*
X55153Y-37643D01*
X55153Y-37643D02*
X55220Y-37594D01*
X55220Y-37594D02*
X55297Y-37560D01*
X55297Y-37560D02*
X55379Y-37543D01*
X55379Y-37543D02*
X55461Y-37543D01*
X55461Y-37543D02*
X55543Y-37560D01*
X55543Y-37560D02*
X55620Y-37594D01*
X55620Y-37594D02*
X55687Y-37643D01*
X55687Y-37643D02*
X55743Y-37705D01*
X55743Y-37705D02*
X55785Y-37778D01*
X55785Y-37778D02*
X55811Y-37857D01*
X55811Y-37857D02*
X55820Y-37940D01*
X58300Y-29400D02*
X59100Y-29400D01*
X59100Y-29400D02*
X59100Y-30200D01*
X59100Y-30200D02*
X58300Y-30200D01*
X58300Y-30200D02*
X58300Y-29400D01*
X59100Y-30800D02*
X59091Y-30883D01*
X59091Y-30883D02*
X59065Y-30962D01*
X59065Y-30962D02*
X59023Y-31035D01*
X59023Y-31035D02*
X58967Y-31097D01*
X58967Y-31097D02*
X58900Y-31146D01*
X58900Y-31146D02*
X58823Y-31180D01*
X58823Y-31180D02*
X58741Y-31197D01*
X58741Y-31197D02*
X58659Y-31197D01*
X58659Y-31197D02*
X58577Y-31180D01*
X58577Y-31180D02*
X58500Y-31146D01*
X58500Y-31146D02*
X58433Y-31097D01*
X58433Y-31097D02*
X58377Y-31035D01*
X58377Y-31035D02*
X58335Y-30962D01*
X58335Y-30962D02*
X58309Y-30883D01*
X58309Y-30883D02*
X58300Y-30800D01*
X58300Y-30800D02*
X58309Y-30717D01*
X58309Y-30717D02*
X58335Y-30638D01*
X58335Y-30638D02*
X58377Y-30565D01*
X58377Y-30565D02*
X58433Y-30503D01*
X58433Y-30503D02*
X58500Y-30454D01*
X58500Y-30454D02*
X58577Y-30420D01*
X58577Y-30420D02*
X58659Y-30403D01*
X58659Y-30403D02*
X58741Y-30403D01*
X58741Y-30403D02*
X58823Y-30420D01*
X58823Y-30420D02*
X58900Y-30454D01*
X58900Y-30454D02*
X58967Y-30503D01*
X58967Y-30503D02*
X59023Y-30565D01*
X59023Y-30565D02*
X59065Y-30638D01*
X59065Y-30638D02*
X59091Y-30717D01*
X59091Y-30717D02*
X59100Y-30800D01*
X59100Y-31800D02*
X59091Y-31883D01*
X59091Y-31883D02*
X59065Y-31962D01*
X59065Y-31962D02*
X59023Y-32035D01*
X59023Y-32035D02*
X58967Y-32097D01*
X58967Y-32097D02*
X58900Y-32146D01*
X58900Y-32146D02*
X58823Y-32180D01*
X58823Y-32180D02*
X58741Y-32197D01*
X58741Y-32197D02*
X58659Y-32197D01*
X58659Y-32197D02*
X58577Y-32180D01*
X58577Y-32180D02*
X58500Y-32146D01*
X58500Y-32146D02*
X58433Y-32097D01*
X58433Y-32097D02*
X58377Y-32035D01*
X58377Y-32035D02*
X58335Y-31962D01*
X58335Y-31962D02*
X58309Y-31883D01*
X58309Y-31883D02*
X58300Y-31800D01*
X58300Y-31800D02*
X58309Y-31717D01*
X58309Y-31717D02*
X58335Y-31638D01*
X58335Y-31638D02*
X58377Y-31565D01*
X58377Y-31565D02*
X58433Y-31503D01*
X58433Y-31503D02*
X58500Y-31454D01*
X58500Y-31454D02*
X58577Y-31420D01*
X58577Y-31420D02*
X58659Y-31403D01*
X58659Y-31403D02*
X58741Y-31403D01*
X58741Y-31403D02*
X58823Y-31420D01*
X58823Y-31420D02*
X58900Y-31454D01*
X58900Y-31454D02*
X58967Y-31503D01*
X58967Y-31503D02*
X59023Y-31565D01*
X59023Y-31565D02*
X59065Y-31638D01*
X59065Y-31638D02*
X59091Y-31717D01*
X59091Y-31717D02*
X59100Y-31800D01*
X59100Y-32800D02*
X59091Y-32883D01*
X59091Y-32883D02*
X59065Y-32962D01*
X59065Y-32962D02*
X59023Y-33035D01*
X59023Y-33035D02*
X58967Y-33097D01*
X58967Y-33097D02*
X58900Y-33146D01*
X58900Y-33146D02*
X58823Y-33180D01*
X58823Y-33180D02*
X58741Y-33197D01*
X58741Y-33197D02*
X58659Y-33197D01*
X58659Y-33197D02*
X58577Y-33180D01*
X58577Y-33180D02*
X58500Y-33146D01*
X58500Y-33146D02*
X58433Y-33097D01*
X58433Y-33097D02*
X58377Y-33035D01*
X58377Y-33035D02*
X58335Y-32962D01*
X58335Y-32962D02*
X58309Y-32883D01*
X58309Y-32883D02*
X58300Y-32800D01*
X58300Y-32800D02*
X58309Y-32717D01*
X58309Y-32717D02*
X58335Y-32638D01*
X58335Y-32638D02*
X58377Y-32565D01*
X58377Y-32565D02*
X58433Y-32503D01*
X58433Y-32503D02*
X58500Y-32454D01*
X58500Y-32454D02*
X58577Y-32420D01*
X58577Y-32420D02*
X58659Y-32403D01*
X58659Y-32403D02*
X58741Y-32403D01*
X58741Y-32403D02*
X58823Y-32420D01*
X58823Y-32420D02*
X58900Y-32454D01*
X58900Y-32454D02*
X58967Y-32503D01*
X58967Y-32503D02*
X59023Y-32565D01*
X59023Y-32565D02*
X59065Y-32638D01*
X59065Y-32638D02*
X59091Y-32717D01*
X59091Y-32717D02*
X59100Y-32800D01*
X59100Y-33800D02*
X59091Y-33883D01*
X59091Y-33883D02*
X59065Y-33962D01*
X59065Y-33962D02*
X59023Y-34035D01*
X59023Y-34035D02*
X58967Y-34097D01*
X58967Y-34097D02*
X58900Y-34146D01*
X58900Y-34146D02*
X58823Y-34180D01*
X58823Y-34180D02*
X58741Y-34197D01*
X58741Y-34197D02*
X58659Y-34197D01*
X58659Y-34197D02*
X58577Y-34180D01*
X58577Y-34180D02*
X58500Y-34146D01*
X58500Y-34146D02*
X58433Y-34097D01*
X58433Y-34097D02*
X58377Y-34035D01*
X58377Y-34035D02*
X58335Y-33962D01*
X58335Y-33962D02*
X58309Y-33883D01*
X58309Y-33883D02*
X58300Y-33800D01*
X58300Y-33800D02*
X58309Y-33717D01*
X58309Y-33717D02*
X58335Y-33638D01*
X58335Y-33638D02*
X58377Y-33565D01*
X58377Y-33565D02*
X58433Y-33503D01*
X58433Y-33503D02*
X58500Y-33454D01*
X58500Y-33454D02*
X58577Y-33420D01*
X58577Y-33420D02*
X58659Y-33403D01*
X58659Y-33403D02*
X58741Y-33403D01*
X58741Y-33403D02*
X58823Y-33420D01*
X58823Y-33420D02*
X58900Y-33454D01*
X58900Y-33454D02*
X58967Y-33503D01*
X58967Y-33503D02*
X59023Y-33565D01*
X59023Y-33565D02*
X59065Y-33638D01*
X59065Y-33638D02*
X59091Y-33717D01*
X59091Y-33717D02*
X59100Y-33800D01*
X59100Y-34800D02*
X59091Y-34883D01*
X59091Y-34883D02*
X59065Y-34962D01*
X59065Y-34962D02*
X59023Y-35035D01*
X59023Y-35035D02*
X58967Y-35097D01*
X58967Y-35097D02*
X58900Y-35146D01*
X58900Y-35146D02*
X58823Y-35180D01*
X58823Y-35180D02*
X58741Y-35197D01*
X58741Y-35197D02*
X58659Y-35197D01*
X58659Y-35197D02*
X58577Y-35180D01*
X58577Y-35180D02*
X58500Y-35146D01*
X58500Y-35146D02*
X58433Y-35097D01*
X58433Y-35097D02*
X58377Y-35035D01*
X58377Y-35035D02*
X58335Y-34962D01*
X58335Y-34962D02*
X58309Y-34883D01*
X58309Y-34883D02*
X58300Y-34800D01*
X58300Y-34800D02*
X58309Y-34717D01*
X58309Y-34717D02*
X58335Y-34638D01*
X58335Y-34638D02*
X58377Y-34565D01*
X58377Y-34565D02*
X58433Y-34503D01*
X58433Y-34503D02*
X58500Y-34454D01*
X58500Y-34454D02*
X58577Y-34420D01*
X58577Y-34420D02*
X58659Y-34403D01*
X58659Y-34403D02*
X58741Y-34403D01*
X58741Y-34403D02*
X58823Y-34420D01*
X58823Y-34420D02*
X58900Y-34454D01*
X58900Y-34454D02*
X58967Y-34503D01*
X58967Y-34503D02*
X59023Y-34565D01*
X59023Y-34565D02*
X59065Y-34638D01*
X59065Y-34638D02*
X59091Y-34717D01*
X59091Y-34717D02*
X59100Y-34800D01*
X59100Y-35800D02*
X59091Y-35883D01*
X59091Y-35883D02*
X59065Y-35962D01*
X59065Y-35962D02*
X59023Y-36035D01*
X59023Y-36035D02*
X58967Y-36097D01*
X58967Y-36097D02*
X58900Y-36146D01*
X58900Y-36146D02*
X58823Y-36180D01*
X58823Y-36180D02*
X58741Y-36197D01*
X58741Y-36197D02*
X58659Y-36197D01*
X58659Y-36197D02*
X58577Y-36180D01*
X58577Y-36180D02*
X58500Y-36146D01*
X58500Y-36146D02*
X58433Y-36097D01*
X58433Y-36097D02*
X58377Y-36035D01*
X58377Y-36035D02*
X58335Y-35962D01*
X58335Y-35962D02*
X58309Y-35883D01*
X58309Y-35883D02*
X58300Y-35800D01*
X58300Y-35800D02*
X58309Y-35717D01*
X58309Y-35717D02*
X58335Y-35638D01*
X58335Y-35638D02*
X58377Y-35565D01*
X58377Y-35565D02*
X58433Y-35503D01*
X58433Y-35503D02*
X58500Y-35454D01*
X58500Y-35454D02*
X58577Y-35420D01*
X58577Y-35420D02*
X58659Y-35403D01*
X58659Y-35403D02*
X58741Y-35403D01*
X58741Y-35403D02*
X58823Y-35420D01*
X58823Y-35420D02*
X58900Y-35454D01*
X58900Y-35454D02*
X58967Y-35503D01*
X58967Y-35503D02*
X59023Y-35565D01*
X59023Y-35565D02*
X59065Y-35638D01*
X59065Y-35638D02*
X59091Y-35717D01*
X59091Y-35717D02*
X59100Y-35800D01*
X59100Y-36800D02*
X59091Y-36883D01*
X59091Y-36883D02*
X59065Y-36962D01*
X59065Y-36962D02*
X59023Y-37035D01*
X59023Y-37035D02*
X58967Y-37097D01*
X58967Y-37097D02*
X58900Y-37146D01*
X58900Y-37146D02*
X58823Y-37180D01*
X58823Y-37180D02*
X58741Y-37197D01*
X58741Y-37197D02*
X58659Y-37197D01*
X58659Y-37197D02*
X58577Y-37180D01*
X58577Y-37180D02*
X58500Y-37146D01*
X58500Y-37146D02*
X58433Y-37097D01*
X58433Y-37097D02*
X58377Y-37035D01*
X58377Y-37035D02*
X58335Y-36962D01*
X58335Y-36962D02*
X58309Y-36883D01*
X58309Y-36883D02*
X58300Y-36800D01*
X58300Y-36800D02*
X58309Y-36717D01*
X58309Y-36717D02*
X58335Y-36638D01*
X58335Y-36638D02*
X58377Y-36565D01*
X58377Y-36565D02*
X58433Y-36503D01*
X58433Y-36503D02*
X58500Y-36454D01*
X58500Y-36454D02*
X58577Y-36420D01*
X58577Y-36420D02*
X58659Y-36403D01*
X58659Y-36403D02*
X58741Y-36403D01*
X58741Y-36403D02*
X58823Y-36420D01*
X58823Y-36420D02*
X58900Y-36454D01*
X58900Y-36454D02*
X58967Y-36503D01*
X58967Y-36503D02*
X59023Y-36565D01*
X59023Y-36565D02*
X59065Y-36638D01*
X59065Y-36638D02*
X59091Y-36717D01*
X59091Y-36717D02*
X59100Y-36800D01*
X62100Y-36800D02*
X62091Y-36883D01*
X62091Y-36883D02*
X62065Y-36962D01*
X62065Y-36962D02*
X62023Y-37035D01*
X62023Y-37035D02*
X61967Y-37097D01*
X61967Y-37097D02*
X61900Y-37146D01*
X61900Y-37146D02*
X61823Y-37180D01*
X61823Y-37180D02*
X61741Y-37197D01*
X61741Y-37197D02*
X61659Y-37197D01*
X61659Y-37197D02*
X61577Y-37180D01*
X61577Y-37180D02*
X61500Y-37146D01*
X61500Y-37146D02*
X61433Y-37097D01*
X61433Y-37097D02*
X61377Y-37035D01*
X61377Y-37035D02*
X61335Y-36962D01*
X61335Y-36962D02*
X61309Y-36883D01*
X61309Y-36883D02*
X61300Y-36800D01*
X61300Y-36800D02*
X61309Y-36717D01*
X61309Y-36717D02*
X61335Y-36638D01*
X61335Y-36638D02*
X61377Y-36565D01*
X61377Y-36565D02*
X61433Y-36503D01*
X61433Y-36503D02*
X61500Y-36454D01*
X61500Y-36454D02*
X61577Y-36420D01*
X61577Y-36420D02*
X61659Y-36403D01*
X61659Y-36403D02*
X61741Y-36403D01*
X61741Y-36403D02*
X61823Y-36420D01*
X61823Y-36420D02*
X61900Y-36454D01*
X61900Y-36454D02*
X61967Y-36503D01*
X61967Y-36503D02*
X62023Y-36565D01*
X62023Y-36565D02*
X62065Y-36638D01*
X62065Y-36638D02*
X62091Y-36717D01*
X62091Y-36717D02*
X62100Y-36800D01*
X62100Y-35800D02*
X62091Y-35883D01*
X62091Y-35883D02*
X62065Y-35962D01*
X62065Y-35962D02*
X62023Y-36035D01*
X62023Y-36035D02*
X61967Y-36097D01*
X61967Y-36097D02*
X61900Y-36146D01*
X61900Y-36146D02*
X61823Y-36180D01*
X61823Y-36180D02*
X61741Y-36197D01*
X61741Y-36197D02*
X61659Y-36197D01*
X61659Y-36197D02*
X61577Y-36180D01*
X61577Y-36180D02*
X61500Y-36146D01*
X61500Y-36146D02*
X61433Y-36097D01*
X61433Y-36097D02*
X61377Y-36035D01*
X61377Y-36035D02*
X61335Y-35962D01*
X61335Y-35962D02*
X61309Y-35883D01*
X61309Y-35883D02*
X61300Y-35800D01*
X61300Y-35800D02*
X61309Y-35717D01*
X61309Y-35717D02*
X61335Y-35638D01*
X61335Y-35638D02*
X61377Y-35565D01*
X61377Y-35565D02*
X61433Y-35503D01*
X61433Y-35503D02*
X61500Y-35454D01*
X61500Y-35454D02*
X61577Y-35420D01*
X61577Y-35420D02*
X61659Y-35403D01*
X61659Y-35403D02*
X61741Y-35403D01*
X61741Y-35403D02*
X61823Y-35420D01*
X61823Y-35420D02*
X61900Y-35454D01*
X61900Y-35454D02*
X61967Y-35503D01*
X61967Y-35503D02*
X62023Y-35565D01*
X62023Y-35565D02*
X62065Y-35638D01*
X62065Y-35638D02*
X62091Y-35717D01*
X62091Y-35717D02*
X62100Y-35800D01*
X62100Y-34800D02*
X62091Y-34883D01*
X62091Y-34883D02*
X62065Y-34962D01*
X62065Y-34962D02*
X62023Y-35035D01*
X62023Y-35035D02*
X61967Y-35097D01*
X61967Y-35097D02*
X61900Y-35146D01*
X61900Y-35146D02*
X61823Y-35180D01*
X61823Y-35180D02*
X61741Y-35197D01*
X61741Y-35197D02*
X61659Y-35197D01*
X61659Y-35197D02*
X61577Y-35180D01*
X61577Y-35180D02*
X61500Y-35146D01*
X61500Y-35146D02*
X61433Y-35097D01*
X61433Y-35097D02*
X61377Y-35035D01*
X61377Y-35035D02*
X61335Y-34962D01*
X61335Y-34962D02*
X61309Y-34883D01*
X61309Y-34883D02*
X61300Y-34800D01*
X61300Y-34800D02*
X61309Y-34717D01*
X61309Y-34717D02*
X61335Y-34638D01*
X61335Y-34638D02*
X61377Y-34565D01*
X61377Y-34565D02*
X61433Y-34503D01*
X61433Y-34503D02*
X61500Y-34454D01*
X61500Y-34454D02*
X61577Y-34420D01*
X61577Y-34420D02*
X61659Y-34403D01*
X61659Y-34403D02*
X61741Y-34403D01*
X61741Y-34403D02*
X61823Y-34420D01*
X61823Y-34420D02*
X61900Y-34454D01*
X61900Y-34454D02*
X61967Y-34503D01*
X61967Y-34503D02*
X62023Y-34565D01*
X62023Y-34565D02*
X62065Y-34638D01*
X62065Y-34638D02*
X62091Y-34717D01*
X62091Y-34717D02*
X62100Y-34800D01*
X62100Y-33800D02*
X62091Y-33883D01*
X62091Y-33883D02*
X62065Y-33962D01*
X62065Y-33962D02*
X62023Y-34035D01*
X62023Y-34035D02*
X61967Y-34097D01*
X61967Y-34097D02*
X61900Y-34146D01*
X61900Y-34146D02*
X61823Y-34180D01*
X61823Y-34180D02*
X61741Y-34197D01*
X61741Y-34197D02*
X61659Y-34197D01*
X61659Y-34197D02*
X61577Y-34180D01*
X61577Y-34180D02*
X61500Y-34146D01*
X61500Y-34146D02*
X61433Y-34097D01*
X61433Y-34097D02*
X61377Y-34035D01*
X61377Y-34035D02*
X61335Y-33962D01*
X61335Y-33962D02*
X61309Y-33883D01*
X61309Y-33883D02*
X61300Y-33800D01*
X61300Y-33800D02*
X61309Y-33717D01*
X61309Y-33717D02*
X61335Y-33638D01*
X61335Y-33638D02*
X61377Y-33565D01*
X61377Y-33565D02*
X61433Y-33503D01*
X61433Y-33503D02*
X61500Y-33454D01*
X61500Y-33454D02*
X61577Y-33420D01*
X61577Y-33420D02*
X61659Y-33403D01*
X61659Y-33403D02*
X61741Y-33403D01*
X61741Y-33403D02*
X61823Y-33420D01*
X61823Y-33420D02*
X61900Y-33454D01*
X61900Y-33454D02*
X61967Y-33503D01*
X61967Y-33503D02*
X62023Y-33565D01*
X62023Y-33565D02*
X62065Y-33638D01*
X62065Y-33638D02*
X62091Y-33717D01*
X62091Y-33717D02*
X62100Y-33800D01*
X62100Y-32800D02*
X62091Y-32883D01*
X62091Y-32883D02*
X62065Y-32962D01*
X62065Y-32962D02*
X62023Y-33035D01*
X62023Y-33035D02*
X61967Y-33097D01*
X61967Y-33097D02*
X61900Y-33146D01*
X61900Y-33146D02*
X61823Y-33180D01*
X61823Y-33180D02*
X61741Y-33197D01*
X61741Y-33197D02*
X61659Y-33197D01*
X61659Y-33197D02*
X61577Y-33180D01*
X61577Y-33180D02*
X61500Y-33146D01*
X61500Y-33146D02*
X61433Y-33097D01*
X61433Y-33097D02*
X61377Y-33035D01*
X61377Y-33035D02*
X61335Y-32962D01*
X61335Y-32962D02*
X61309Y-32883D01*
X61309Y-32883D02*
X61300Y-32800D01*
X61300Y-32800D02*
X61309Y-32717D01*
X61309Y-32717D02*
X61335Y-32638D01*
X61335Y-32638D02*
X61377Y-32565D01*
X61377Y-32565D02*
X61433Y-32503D01*
X61433Y-32503D02*
X61500Y-32454D01*
X61500Y-32454D02*
X61577Y-32420D01*
X61577Y-32420D02*
X61659Y-32403D01*
X61659Y-32403D02*
X61741Y-32403D01*
X61741Y-32403D02*
X61823Y-32420D01*
X61823Y-32420D02*
X61900Y-32454D01*
X61900Y-32454D02*
X61967Y-32503D01*
X61967Y-32503D02*
X62023Y-32565D01*
X62023Y-32565D02*
X62065Y-32638D01*
X62065Y-32638D02*
X62091Y-32717D01*
X62091Y-32717D02*
X62100Y-32800D01*
X62100Y-31800D02*
X62091Y-31883D01*
X62091Y-31883D02*
X62065Y-31962D01*
X62065Y-31962D02*
X62023Y-32035D01*
X62023Y-32035D02*
X61967Y-32097D01*
X61967Y-32097D02*
X61900Y-32146D01*
X61900Y-32146D02*
X61823Y-32180D01*
X61823Y-32180D02*
X61741Y-32197D01*
X61741Y-32197D02*
X61659Y-32197D01*
X61659Y-32197D02*
X61577Y-32180D01*
X61577Y-32180D02*
X61500Y-32146D01*
X61500Y-32146D02*
X61433Y-32097D01*
X61433Y-32097D02*
X61377Y-32035D01*
X61377Y-32035D02*
X61335Y-31962D01*
X61335Y-31962D02*
X61309Y-31883D01*
X61309Y-31883D02*
X61300Y-31800D01*
X61300Y-31800D02*
X61309Y-31717D01*
X61309Y-31717D02*
X61335Y-31638D01*
X61335Y-31638D02*
X61377Y-31565D01*
X61377Y-31565D02*
X61433Y-31503D01*
X61433Y-31503D02*
X61500Y-31454D01*
X61500Y-31454D02*
X61577Y-31420D01*
X61577Y-31420D02*
X61659Y-31403D01*
X61659Y-31403D02*
X61741Y-31403D01*
X61741Y-31403D02*
X61823Y-31420D01*
X61823Y-31420D02*
X61900Y-31454D01*
X61900Y-31454D02*
X61967Y-31503D01*
X61967Y-31503D02*
X62023Y-31565D01*
X62023Y-31565D02*
X62065Y-31638D01*
X62065Y-31638D02*
X62091Y-31717D01*
X62091Y-31717D02*
X62100Y-31800D01*
X62100Y-30800D02*
X62091Y-30883D01*
X62091Y-30883D02*
X62065Y-30962D01*
X62065Y-30962D02*
X62023Y-31035D01*
X62023Y-31035D02*
X61967Y-31097D01*
X61967Y-31097D02*
X61900Y-31146D01*
X61900Y-31146D02*
X61823Y-31180D01*
X61823Y-31180D02*
X61741Y-31197D01*
X61741Y-31197D02*
X61659Y-31197D01*
X61659Y-31197D02*
X61577Y-31180D01*
X61577Y-31180D02*
X61500Y-31146D01*
X61500Y-31146D02*
X61433Y-31097D01*
X61433Y-31097D02*
X61377Y-31035D01*
X61377Y-31035D02*
X61335Y-30962D01*
X61335Y-30962D02*
X61309Y-30883D01*
X61309Y-30883D02*
X61300Y-30800D01*
X61300Y-30800D02*
X61309Y-30717D01*
X61309Y-30717D02*
X61335Y-30638D01*
X61335Y-30638D02*
X61377Y-30565D01*
X61377Y-30565D02*
X61433Y-30503D01*
X61433Y-30503D02*
X61500Y-30454D01*
X61500Y-30454D02*
X61577Y-30420D01*
X61577Y-30420D02*
X61659Y-30403D01*
X61659Y-30403D02*
X61741Y-30403D01*
X61741Y-30403D02*
X61823Y-30420D01*
X61823Y-30420D02*
X61900Y-30454D01*
X61900Y-30454D02*
X61967Y-30503D01*
X61967Y-30503D02*
X62023Y-30565D01*
X62023Y-30565D02*
X62065Y-30638D01*
X62065Y-30638D02*
X62091Y-30717D01*
X62091Y-30717D02*
X62100Y-30800D01*
X62100Y-29800D02*
X62091Y-29883D01*
X62091Y-29883D02*
X62065Y-29962D01*
X62065Y-29962D02*
X62023Y-30035D01*
X62023Y-30035D02*
X61967Y-30097D01*
X61967Y-30097D02*
X61900Y-30146D01*
X61900Y-30146D02*
X61823Y-30180D01*
X61823Y-30180D02*
X61741Y-30197D01*
X61741Y-30197D02*
X61659Y-30197D01*
X61659Y-30197D02*
X61577Y-30180D01*
X61577Y-30180D02*
X61500Y-30146D01*
X61500Y-30146D02*
X61433Y-30097D01*
X61433Y-30097D02*
X61377Y-30035D01*
X61377Y-30035D02*
X61335Y-29962D01*
X61335Y-29962D02*
X61309Y-29883D01*
X61309Y-29883D02*
X61300Y-29800D01*
X61300Y-29800D02*
X61309Y-29717D01*
X61309Y-29717D02*
X61335Y-29638D01*
X61335Y-29638D02*
X61377Y-29565D01*
X61377Y-29565D02*
X61433Y-29503D01*
X61433Y-29503D02*
X61500Y-29454D01*
X61500Y-29454D02*
X61577Y-29420D01*
X61577Y-29420D02*
X61659Y-29403D01*
X61659Y-29403D02*
X61741Y-29403D01*
X61741Y-29403D02*
X61823Y-29420D01*
X61823Y-29420D02*
X61900Y-29454D01*
X61900Y-29454D02*
X61967Y-29503D01*
X61967Y-29503D02*
X62023Y-29565D01*
X62023Y-29565D02*
X62065Y-29638D01*
X62065Y-29638D02*
X62091Y-29717D01*
X62091Y-29717D02*
X62100Y-29800D01*
X44000Y-25700D02*
X44000Y-24700D01*
X44000Y-24700D02*
X45000Y-24700D01*
X45000Y-24700D02*
X45000Y-25700D01*
X45000Y-25700D02*
X44000Y-25700D01*
X47000Y-25200D02*
X46989Y-25303D01*
X46989Y-25303D02*
X46956Y-25403D01*
X46956Y-25403D02*
X46904Y-25493D01*
X46904Y-25493D02*
X46834Y-25571D01*
X46834Y-25571D02*
X46750Y-25633D01*
X46750Y-25633D02*
X46654Y-25675D01*
X46654Y-25675D02*
X46552Y-25697D01*
X46552Y-25697D02*
X46448Y-25697D01*
X46448Y-25697D02*
X46346Y-25675D01*
X46346Y-25675D02*
X46250Y-25633D01*
X46250Y-25633D02*
X46166Y-25571D01*
X46166Y-25571D02*
X46096Y-25493D01*
X46096Y-25493D02*
X46044Y-25403D01*
X46044Y-25403D02*
X46011Y-25303D01*
X46011Y-25303D02*
X46000Y-25200D01*
X46000Y-25200D02*
X46011Y-25097D01*
X46011Y-25097D02*
X46044Y-24997D01*
X46044Y-24997D02*
X46096Y-24907D01*
X46096Y-24907D02*
X46166Y-24829D01*
X46166Y-24829D02*
X46250Y-24767D01*
X46250Y-24767D02*
X46346Y-24725D01*
X46346Y-24725D02*
X46448Y-24703D01*
X46448Y-24703D02*
X46552Y-24703D01*
X46552Y-24703D02*
X46654Y-24725D01*
X46654Y-24725D02*
X46750Y-24767D01*
X46750Y-24767D02*
X46834Y-24829D01*
X46834Y-24829D02*
X46904Y-24907D01*
X46904Y-24907D02*
X46956Y-24997D01*
X46956Y-24997D02*
X46989Y-25097D01*
X46989Y-25097D02*
X47000Y-25200D01*
X47475Y-40825D02*
X47475Y-41375D01*
X47475Y-41375D02*
X46925Y-41375D01*
X46925Y-41375D02*
X46925Y-40825D01*
X46925Y-40825D02*
X47475Y-40825D01*
X46475Y-41100D02*
X46468Y-41157D01*
X46468Y-41157D02*
X46451Y-41211D01*
X46451Y-41211D02*
X46422Y-41261D01*
X46422Y-41261D02*
X46384Y-41304D01*
X46384Y-41304D02*
X46337Y-41338D01*
X46337Y-41338D02*
X46284Y-41361D01*
X46284Y-41361D02*
X46228Y-41373D01*
X46228Y-41373D02*
X46172Y-41373D01*
X46172Y-41373D02*
X46116Y-41361D01*
X46116Y-41361D02*
X46063Y-41338D01*
X46063Y-41338D02*
X46016Y-41304D01*
X46016Y-41304D02*
X45978Y-41261D01*
X45978Y-41261D02*
X45949Y-41211D01*
X45949Y-41211D02*
X45932Y-41157D01*
X45932Y-41157D02*
X45925Y-41100D01*
X45925Y-41100D02*
X45932Y-41043D01*
X45932Y-41043D02*
X45949Y-40989D01*
X45949Y-40989D02*
X45978Y-40939D01*
X45978Y-40939D02*
X46016Y-40896D01*
X46016Y-40896D02*
X46063Y-40862D01*
X46063Y-40862D02*
X46116Y-40839D01*
X46116Y-40839D02*
X46172Y-40827D01*
X46172Y-40827D02*
X46228Y-40827D01*
X46228Y-40827D02*
X46284Y-40839D01*
X46284Y-40839D02*
X46337Y-40862D01*
X46337Y-40862D02*
X46384Y-40896D01*
X46384Y-40896D02*
X46422Y-40939D01*
X46422Y-40939D02*
X46451Y-40989D01*
X46451Y-40989D02*
X46468Y-41043D01*
X46468Y-41043D02*
X46475Y-41100D01*
X39675Y-36225D02*
X39125Y-36225D01*
X39125Y-36225D02*
X39125Y-35675D01*
X39125Y-35675D02*
X39675Y-35675D01*
X39675Y-35675D02*
X39675Y-36225D01*
X39675Y-34950D02*
X39668Y-35007D01*
X39668Y-35007D02*
X39651Y-35061D01*
X39651Y-35061D02*
X39622Y-35111D01*
X39622Y-35111D02*
X39584Y-35154D01*
X39584Y-35154D02*
X39537Y-35188D01*
X39537Y-35188D02*
X39484Y-35211D01*
X39484Y-35211D02*
X39428Y-35223D01*
X39428Y-35223D02*
X39372Y-35223D01*
X39372Y-35223D02*
X39316Y-35211D01*
X39316Y-35211D02*
X39263Y-35188D01*
X39263Y-35188D02*
X39216Y-35154D01*
X39216Y-35154D02*
X39178Y-35111D01*
X39178Y-35111D02*
X39149Y-35061D01*
X39149Y-35061D02*
X39132Y-35007D01*
X39132Y-35007D02*
X39125Y-34950D01*
X39125Y-34950D02*
X39132Y-34893D01*
X39132Y-34893D02*
X39149Y-34839D01*
X39149Y-34839D02*
X39178Y-34789D01*
X39178Y-34789D02*
X39216Y-34746D01*
X39216Y-34746D02*
X39263Y-34712D01*
X39263Y-34712D02*
X39316Y-34689D01*
X39316Y-34689D02*
X39372Y-34677D01*
X39372Y-34677D02*
X39428Y-34677D01*
X39428Y-34677D02*
X39484Y-34689D01*
X39484Y-34689D02*
X39537Y-34712D01*
X39537Y-34712D02*
X39584Y-34746D01*
X39584Y-34746D02*
X39622Y-34789D01*
X39622Y-34789D02*
X39651Y-34839D01*
X39651Y-34839D02*
X39668Y-34893D01*
X39668Y-34893D02*
X39675Y-34950D01*
X43675Y-40825D02*
X43675Y-41375D01*
X43675Y-41375D02*
X43125Y-41375D01*
X43125Y-41375D02*
X43125Y-40825D01*
X43125Y-40825D02*
X43675Y-40825D01*
X42675Y-41100D02*
X42668Y-41157D01*
X42668Y-41157D02*
X42651Y-41211D01*
X42651Y-41211D02*
X42622Y-41261D01*
X42622Y-41261D02*
X42584Y-41304D01*
X42584Y-41304D02*
X42537Y-41338D01*
X42537Y-41338D02*
X42484Y-41361D01*
X42484Y-41361D02*
X42428Y-41373D01*
X42428Y-41373D02*
X42372Y-41373D01*
X42372Y-41373D02*
X42316Y-41361D01*
X42316Y-41361D02*
X42263Y-41338D01*
X42263Y-41338D02*
X42216Y-41304D01*
X42216Y-41304D02*
X42178Y-41261D01*
X42178Y-41261D02*
X42149Y-41211D01*
X42149Y-41211D02*
X42132Y-41157D01*
X42132Y-41157D02*
X42125Y-41100D01*
X42125Y-41100D02*
X42132Y-41043D01*
X42132Y-41043D02*
X42149Y-40989D01*
X42149Y-40989D02*
X42178Y-40939D01*
X42178Y-40939D02*
X42216Y-40896D01*
X42216Y-40896D02*
X42263Y-40862D01*
X42263Y-40862D02*
X42316Y-40839D01*
X42316Y-40839D02*
X42372Y-40827D01*
X42372Y-40827D02*
X42428Y-40827D01*
X42428Y-40827D02*
X42484Y-40839D01*
X42484Y-40839D02*
X42537Y-40862D01*
X42537Y-40862D02*
X42584Y-40896D01*
X42584Y-40896D02*
X42622Y-40939D01*
X42622Y-40939D02*
X42651Y-40989D01*
X42651Y-40989D02*
X42668Y-41043D01*
X42668Y-41043D02*
X42675Y-41100D01*
X39675Y-39475D02*
X39125Y-39475D01*
X39125Y-39475D02*
X39125Y-38925D01*
X39125Y-38925D02*
X39675Y-38925D01*
X39675Y-38925D02*
X39675Y-39475D01*
X39675Y-38200D02*
X39668Y-38257D01*
X39668Y-38257D02*
X39651Y-38311D01*
X39651Y-38311D02*
X39622Y-38361D01*
X39622Y-38361D02*
X39584Y-38404D01*
X39584Y-38404D02*
X39537Y-38438D01*
X39537Y-38438D02*
X39484Y-38461D01*
X39484Y-38461D02*
X39428Y-38473D01*
X39428Y-38473D02*
X39372Y-38473D01*
X39372Y-38473D02*
X39316Y-38461D01*
X39316Y-38461D02*
X39263Y-38438D01*
X39263Y-38438D02*
X39216Y-38404D01*
X39216Y-38404D02*
X39178Y-38361D01*
X39178Y-38361D02*
X39149Y-38311D01*
X39149Y-38311D02*
X39132Y-38257D01*
X39132Y-38257D02*
X39125Y-38200D01*
X39125Y-38200D02*
X39132Y-38143D01*
X39132Y-38143D02*
X39149Y-38089D01*
X39149Y-38089D02*
X39178Y-38039D01*
X39178Y-38039D02*
X39216Y-37996D01*
X39216Y-37996D02*
X39263Y-37962D01*
X39263Y-37962D02*
X39316Y-37939D01*
X39316Y-37939D02*
X39372Y-37927D01*
X39372Y-37927D02*
X39428Y-37927D01*
X39428Y-37927D02*
X39484Y-37939D01*
X39484Y-37939D02*
X39537Y-37962D01*
X39537Y-37962D02*
X39584Y-37996D01*
X39584Y-37996D02*
X39622Y-38039D01*
X39622Y-38039D02*
X39651Y-38089D01*
X39651Y-38089D02*
X39668Y-38143D01*
X39668Y-38143D02*
X39675Y-38200D01*
X39675Y-32975D02*
X39125Y-32975D01*
X39125Y-32975D02*
X39125Y-32425D01*
X39125Y-32425D02*
X39675Y-32425D01*
X39675Y-32425D02*
X39675Y-32975D01*
X39675Y-31700D02*
X39668Y-31757D01*
X39668Y-31757D02*
X39651Y-31811D01*
X39651Y-31811D02*
X39622Y-31861D01*
X39622Y-31861D02*
X39584Y-31904D01*
X39584Y-31904D02*
X39537Y-31938D01*
X39537Y-31938D02*
X39484Y-31961D01*
X39484Y-31961D02*
X39428Y-31973D01*
X39428Y-31973D02*
X39372Y-31973D01*
X39372Y-31973D02*
X39316Y-31961D01*
X39316Y-31961D02*
X39263Y-31938D01*
X39263Y-31938D02*
X39216Y-31904D01*
X39216Y-31904D02*
X39178Y-31861D01*
X39178Y-31861D02*
X39149Y-31811D01*
X39149Y-31811D02*
X39132Y-31757D01*
X39132Y-31757D02*
X39125Y-31700D01*
X39125Y-31700D02*
X39132Y-31643D01*
X39132Y-31643D02*
X39149Y-31589D01*
X39149Y-31589D02*
X39178Y-31539D01*
X39178Y-31539D02*
X39216Y-31496D01*
X39216Y-31496D02*
X39263Y-31462D01*
X39263Y-31462D02*
X39316Y-31439D01*
X39316Y-31439D02*
X39372Y-31427D01*
X39372Y-31427D02*
X39428Y-31427D01*
X39428Y-31427D02*
X39484Y-31439D01*
X39484Y-31439D02*
X39537Y-31462D01*
X39537Y-31462D02*
X39584Y-31496D01*
X39584Y-31496D02*
X39622Y-31539D01*
X39622Y-31539D02*
X39651Y-31589D01*
X39651Y-31589D02*
X39668Y-31643D01*
X39668Y-31643D02*
X39675Y-31700D01*
X51475Y-40825D02*
X51475Y-41375D01*
X51475Y-41375D02*
X50925Y-41375D01*
X50925Y-41375D02*
X50925Y-40825D01*
X50925Y-40825D02*
X51475Y-40825D01*
X50475Y-41100D02*
X50468Y-41157D01*
X50468Y-41157D02*
X50451Y-41211D01*
X50451Y-41211D02*
X50422Y-41261D01*
X50422Y-41261D02*
X50384Y-41304D01*
X50384Y-41304D02*
X50337Y-41338D01*
X50337Y-41338D02*
X50284Y-41361D01*
X50284Y-41361D02*
X50228Y-41373D01*
X50228Y-41373D02*
X50172Y-41373D01*
X50172Y-41373D02*
X50116Y-41361D01*
X50116Y-41361D02*
X50063Y-41338D01*
X50063Y-41338D02*
X50016Y-41304D01*
X50016Y-41304D02*
X49978Y-41261D01*
X49978Y-41261D02*
X49949Y-41211D01*
X49949Y-41211D02*
X49932Y-41157D01*
X49932Y-41157D02*
X49925Y-41100D01*
X49925Y-41100D02*
X49932Y-41043D01*
X49932Y-41043D02*
X49949Y-40989D01*
X49949Y-40989D02*
X49978Y-40939D01*
X49978Y-40939D02*
X50016Y-40896D01*
X50016Y-40896D02*
X50063Y-40862D01*
X50063Y-40862D02*
X50116Y-40839D01*
X50116Y-40839D02*
X50172Y-40827D01*
X50172Y-40827D02*
X50228Y-40827D01*
X50228Y-40827D02*
X50284Y-40839D01*
X50284Y-40839D02*
X50337Y-40862D01*
X50337Y-40862D02*
X50384Y-40896D01*
X50384Y-40896D02*
X50422Y-40939D01*
X50422Y-40939D02*
X50451Y-40989D01*
X50451Y-40989D02*
X50468Y-41043D01*
X50468Y-41043D02*
X50475Y-41100D01*
X39675Y-29725D02*
X39125Y-29725D01*
X39125Y-29725D02*
X39125Y-29175D01*
X39125Y-29175D02*
X39675Y-29175D01*
X39675Y-29175D02*
X39675Y-29725D01*
X39675Y-28450D02*
X39668Y-28507D01*
X39668Y-28507D02*
X39651Y-28561D01*
X39651Y-28561D02*
X39622Y-28611D01*
X39622Y-28611D02*
X39584Y-28654D01*
X39584Y-28654D02*
X39537Y-28688D01*
X39537Y-28688D02*
X39484Y-28711D01*
X39484Y-28711D02*
X39428Y-28723D01*
X39428Y-28723D02*
X39372Y-28723D01*
X39372Y-28723D02*
X39316Y-28711D01*
X39316Y-28711D02*
X39263Y-28688D01*
X39263Y-28688D02*
X39216Y-28654D01*
X39216Y-28654D02*
X39178Y-28611D01*
X39178Y-28611D02*
X39149Y-28561D01*
X39149Y-28561D02*
X39132Y-28507D01*
X39132Y-28507D02*
X39125Y-28450D01*
X39125Y-28450D02*
X39132Y-28393D01*
X39132Y-28393D02*
X39149Y-28339D01*
X39149Y-28339D02*
X39178Y-28289D01*
X39178Y-28289D02*
X39216Y-28246D01*
X39216Y-28246D02*
X39263Y-28212D01*
X39263Y-28212D02*
X39316Y-28189D01*
X39316Y-28189D02*
X39372Y-28177D01*
X39372Y-28177D02*
X39428Y-28177D01*
X39428Y-28177D02*
X39484Y-28189D01*
X39484Y-28189D02*
X39537Y-28212D01*
X39537Y-28212D02*
X39584Y-28246D01*
X39584Y-28246D02*
X39622Y-28289D01*
X39622Y-28289D02*
X39651Y-28339D01*
X39651Y-28339D02*
X39668Y-28393D01*
X39668Y-28393D02*
X39675Y-28450D01*
G54D29*
X55696Y-31661D02*
X55729Y-31699D01*
X55729Y-31699D02*
X55729Y-31886D01*
X55729Y-31886D02*
X55696Y-31924D01*
X55696Y-31924D02*
X55463Y-31924D01*
X55463Y-31924D02*
X55429Y-31886D01*
X55429Y-31886D02*
X55429Y-31699D01*
X55429Y-31699D02*
X55463Y-31661D01*
X55429Y-31541D02*
X55429Y-31278D01*
X55429Y-31278D02*
X55463Y-31278D01*
X55463Y-31278D02*
X55563Y-31428D01*
X55563Y-31428D02*
X55563Y-31316D01*
X55563Y-31316D02*
X55596Y-31278D01*
X55596Y-31278D02*
X55696Y-31278D01*
X55696Y-31278D02*
X55729Y-31316D01*
X55729Y-31316D02*
X55729Y-31503D01*
X55729Y-31503D02*
X55696Y-31541D01*
X54730Y-31981D02*
X54730Y-31856D01*
X54730Y-31918D02*
X54430Y-31918D01*
X54464Y-31918D02*
X54530Y-31981D01*
X54530Y-31716D02*
X54664Y-31716D01*
X54664Y-31716D02*
X54730Y-31654D01*
X54730Y-31654D02*
X54730Y-31560D01*
X54730Y-31560D02*
X54664Y-31497D01*
X54664Y-31497D02*
X54530Y-31497D01*
X54730Y-31389D02*
X54430Y-31389D01*
X54430Y-31389D02*
X54430Y-31170D01*
X54564Y-31389D02*
X54564Y-31264D01*
G54D32*
X55097Y-30844D02*
X55097Y-30619D01*
X55197Y-30731D02*
X54997Y-30731D01*
G54D11*
X66267Y-31024D02*
X66400Y-30949D01*
X66400Y-30949D02*
X66400Y-30799D01*
X66400Y-30799D02*
X66334Y-30724D01*
X66334Y-30724D02*
X65800Y-30724D01*
X65800Y-30874D02*
X65800Y-30574D01*
X66400Y-30088D02*
X66400Y-29788D01*
X66400Y-29938D02*
X65800Y-29938D01*
X65867Y-29938D02*
X66000Y-30088D01*
X66300Y-34242D02*
X65700Y-34242D01*
X65700Y-34317D02*
X65700Y-33867D01*
X65700Y-33867D02*
X65767Y-33792D01*
X65767Y-33792D02*
X66234Y-33792D01*
X66234Y-33792D02*
X66300Y-33867D01*
X66300Y-33867D02*
X66300Y-34317D01*
X66300Y-33531D02*
X65700Y-33531D01*
X65700Y-33531D02*
X65700Y-33081D01*
X65700Y-33081D02*
X65767Y-33006D01*
X65767Y-33006D02*
X65900Y-33006D01*
X65900Y-33006D02*
X65967Y-33081D01*
X65967Y-33081D02*
X65967Y-33531D01*
X65967Y-33081D02*
X66100Y-33006D01*
X66100Y-33006D02*
X66234Y-33006D01*
X66234Y-33006D02*
X66300Y-33081D01*
X66300Y-33081D02*
X66300Y-33531D01*
X66300Y-32670D02*
X66300Y-32295D01*
X66300Y-32295D02*
X66234Y-32220D01*
X66234Y-32220D02*
X65767Y-32220D01*
X65767Y-32220D02*
X65700Y-32295D01*
X65700Y-32295D02*
X65700Y-32670D01*
X65700Y-32670D02*
X65767Y-32745D01*
X65767Y-32745D02*
X65967Y-32745D01*
X65967Y-32745D02*
X66034Y-32670D01*
X66034Y-32670D02*
X66034Y-32295D01*
X66034Y-32295D02*
X65967Y-32220D01*
G54D29*
X55916Y-29441D02*
X55949Y-29479D01*
X55949Y-29479D02*
X55949Y-29666D01*
X55949Y-29666D02*
X55916Y-29704D01*
X55916Y-29704D02*
X55683Y-29704D01*
X55683Y-29704D02*
X55649Y-29666D01*
X55649Y-29666D02*
X55649Y-29479D01*
X55649Y-29479D02*
X55683Y-29441D01*
X55883Y-29321D02*
X55916Y-29321D01*
X55916Y-29321D02*
X55949Y-29283D01*
X55949Y-29283D02*
X55949Y-29096D01*
X55949Y-29096D02*
X55916Y-29058D01*
X55916Y-29058D02*
X55816Y-29058D01*
X55816Y-29058D02*
X55749Y-29133D01*
X55749Y-29133D02*
X55749Y-29321D01*
X55749Y-29321D02*
X55649Y-29321D01*
X55649Y-29321D02*
X55649Y-29058D01*
X54950Y-29761D02*
X54950Y-29636D01*
X54950Y-29698D02*
X54650Y-29698D01*
X54684Y-29698D02*
X54750Y-29761D01*
X54750Y-29496D02*
X54884Y-29496D01*
X54884Y-29496D02*
X54950Y-29434D01*
X54950Y-29434D02*
X54950Y-29340D01*
X54950Y-29340D02*
X54884Y-29277D01*
X54884Y-29277D02*
X54750Y-29277D01*
X54950Y-29169D02*
X54650Y-29169D01*
X54650Y-29169D02*
X54650Y-28950D01*
X54784Y-29169D02*
X54784Y-29044D01*
G54D32*
X55317Y-28624D02*
X55317Y-28399D01*
X55417Y-28511D02*
X55217Y-28511D01*
G54D11*
X46803Y-37378D02*
X46702Y-37514D01*
X46702Y-37514D02*
X46199Y-37514D01*
X46199Y-37514D02*
X46098Y-37378D01*
X46098Y-37378D02*
X46098Y-36422D01*
X46098Y-36422D02*
X46199Y-36285D01*
X46199Y-36285D02*
X46702Y-36285D01*
X46702Y-36285D02*
X46803Y-36422D01*
X47817Y-36422D02*
X47716Y-36285D01*
X47716Y-36285D02*
X47213Y-36285D01*
X47213Y-36285D02*
X47112Y-36422D01*
X47112Y-36422D02*
X47112Y-37378D01*
X47112Y-37378D02*
X47213Y-37514D01*
X47213Y-37514D02*
X47716Y-37514D01*
X47716Y-37514D02*
X47817Y-37378D01*
X47817Y-37378D02*
X47817Y-36968D01*
X47817Y-36968D02*
X47716Y-36832D01*
X47716Y-36832D02*
X47213Y-36832D01*
X47213Y-36832D02*
X47112Y-36968D01*
X43931Y-30024D02*
X43931Y-28776D01*
X43931Y-28776D02*
X43265Y-29747D01*
X43265Y-29747D02*
X44198Y-29747D01*
X44569Y-28776D02*
X45502Y-28776D01*
X45502Y-28776D02*
X44569Y-30024D01*
X45873Y-30024D02*
X46806Y-28776D01*
X45873Y-29886D02*
X45873Y-28915D01*
X45873Y-28915D02*
X46006Y-28776D01*
X46006Y-28776D02*
X46672Y-28776D01*
X46672Y-28776D02*
X46806Y-28915D01*
X46806Y-28915D02*
X46806Y-29886D01*
X46806Y-29886D02*
X46672Y-30024D01*
X46672Y-30024D02*
X46006Y-30024D01*
X46006Y-30024D02*
X45873Y-29886D01*
X47177Y-30024D02*
X48110Y-28776D01*
X47177Y-29886D02*
X47177Y-28915D01*
X47177Y-28915D02*
X47310Y-28776D01*
X47310Y-28776D02*
X47976Y-28776D01*
X47976Y-28776D02*
X48110Y-28915D01*
X48110Y-28915D02*
X48110Y-29886D01*
X48110Y-29886D02*
X47976Y-30024D01*
X47976Y-30024D02*
X47310Y-30024D01*
X47310Y-30024D02*
X47177Y-29886D01*
X48481Y-29192D02*
X48481Y-29747D01*
X48481Y-29747D02*
X48747Y-30024D01*
X48747Y-30024D02*
X49147Y-30024D01*
X49147Y-30024D02*
X49414Y-29747D01*
X49414Y-29747D02*
X49414Y-29192D01*
X49785Y-30024D02*
X49785Y-28776D01*
X49785Y-28776D02*
X50718Y-28776D01*
X49785Y-29331D02*
X50318Y-29331D01*
G54D32*
X52000Y-26616D02*
X52356Y-26616D01*
X52356Y-26616D02*
X52400Y-26566D01*
X52400Y-26566D02*
X52400Y-26316D01*
X52400Y-26316D02*
X52356Y-26266D01*
X52356Y-26266D02*
X52000Y-26266D01*
X52400Y-25992D02*
X52400Y-25792D01*
X52400Y-25892D02*
X52000Y-25892D01*
X52045Y-25892D02*
X52134Y-25992D01*
X48500Y-27402D02*
X48500Y-27052D01*
X48500Y-27052D02*
X48900Y-27402D01*
X48900Y-26828D02*
X48856Y-26878D01*
X48856Y-26878D02*
X48723Y-26878D01*
X48723Y-26878D02*
X48678Y-26828D01*
X48678Y-26828D02*
X48678Y-26578D01*
X48678Y-26578D02*
X48634Y-26528D01*
X48634Y-26528D02*
X48545Y-26528D01*
X48545Y-26528D02*
X48500Y-26578D01*
X48500Y-26578D02*
X48500Y-26828D01*
X48500Y-26828D02*
X48545Y-26878D01*
X48545Y-26878D02*
X48634Y-26878D01*
X48634Y-26878D02*
X48678Y-26828D01*
X48678Y-26578D02*
X48723Y-26528D01*
X48723Y-26528D02*
X48856Y-26528D01*
X48856Y-26528D02*
X48900Y-26578D01*
X48900Y-26578D02*
X48900Y-26828D01*
X48500Y-26354D02*
X48900Y-26354D01*
X48900Y-26354D02*
X48900Y-25954D01*
X48900Y-25830D02*
X48500Y-25480D01*
X48856Y-25830D02*
X48545Y-25830D01*
X48545Y-25830D02*
X48500Y-25780D01*
X48500Y-25780D02*
X48500Y-25530D01*
X48500Y-25530D02*
X48545Y-25480D01*
X48545Y-25480D02*
X48856Y-25480D01*
X48856Y-25480D02*
X48900Y-25530D01*
X48900Y-25530D02*
X48900Y-25780D01*
X48900Y-25780D02*
X48856Y-25830D01*
X48812Y-25306D02*
X48856Y-25306D01*
X48856Y-25306D02*
X48900Y-25256D01*
X48900Y-25256D02*
X48900Y-25006D01*
X48900Y-25006D02*
X48856Y-24956D01*
X48856Y-24956D02*
X48723Y-24956D01*
X48723Y-24956D02*
X48634Y-25056D01*
X48634Y-25056D02*
X48634Y-25306D01*
X48634Y-25306D02*
X48500Y-25306D01*
X48500Y-25306D02*
X48500Y-24956D01*
G54D29*
X53159Y-28516D02*
X53121Y-28549D01*
X53121Y-28549D02*
X52934Y-28549D01*
X52934Y-28549D02*
X52896Y-28516D01*
X52896Y-28516D02*
X52896Y-28283D01*
X52896Y-28283D02*
X52934Y-28249D01*
X52934Y-28249D02*
X53121Y-28249D01*
X53121Y-28249D02*
X53159Y-28283D01*
X53354Y-28549D02*
X53504Y-28549D01*
X53429Y-28549D02*
X53429Y-28249D01*
X53429Y-28283D02*
X53354Y-28349D01*
X52512Y-27550D02*
X52637Y-27550D01*
X52575Y-27550D02*
X52575Y-27250D01*
X52575Y-27284D02*
X52512Y-27350D01*
X52777Y-27550D02*
X52996Y-27250D01*
X52777Y-27517D02*
X52777Y-27284D01*
X52777Y-27284D02*
X52808Y-27250D01*
X52808Y-27250D02*
X52964Y-27250D01*
X52964Y-27250D02*
X52996Y-27284D01*
X52996Y-27284D02*
X52996Y-27517D01*
X52996Y-27517D02*
X52964Y-27550D01*
X52964Y-27550D02*
X52808Y-27550D01*
X52808Y-27550D02*
X52777Y-27517D01*
X53104Y-27550D02*
X53323Y-27250D01*
X53104Y-27517D02*
X53104Y-27284D01*
X53104Y-27284D02*
X53135Y-27250D01*
X53135Y-27250D02*
X53291Y-27250D01*
X53291Y-27250D02*
X53323Y-27284D01*
X53323Y-27284D02*
X53323Y-27517D01*
X53323Y-27517D02*
X53291Y-27550D01*
X53291Y-27550D02*
X53135Y-27550D01*
X53135Y-27550D02*
X53104Y-27517D01*
X53431Y-27350D02*
X53431Y-27484D01*
X53431Y-27484D02*
X53493Y-27550D01*
X53493Y-27550D02*
X53587Y-27550D01*
X53587Y-27550D02*
X53650Y-27484D01*
X53650Y-27484D02*
X53650Y-27350D01*
X53758Y-27550D02*
X53758Y-27250D01*
X53758Y-27250D02*
X53977Y-27250D01*
X53758Y-27384D02*
X53883Y-27384D01*
G54D32*
X53976Y-27917D02*
X54201Y-27917D01*
X54089Y-28017D02*
X54089Y-27817D01*
G54D29*
X55576Y-34981D02*
X55609Y-35019D01*
X55609Y-35019D02*
X55609Y-35206D01*
X55609Y-35206D02*
X55576Y-35244D01*
X55576Y-35244D02*
X55343Y-35244D01*
X55343Y-35244D02*
X55309Y-35206D01*
X55309Y-35206D02*
X55309Y-35019D01*
X55309Y-35019D02*
X55343Y-34981D01*
X55609Y-34598D02*
X55609Y-34861D01*
X55609Y-34861D02*
X55509Y-34861D01*
X55509Y-34861D02*
X55476Y-34823D01*
X55476Y-34823D02*
X55476Y-34636D01*
X55476Y-34636D02*
X55443Y-34598D01*
X55443Y-34598D02*
X55343Y-34598D01*
X55343Y-34598D02*
X55309Y-34636D01*
X55309Y-34636D02*
X55309Y-34823D01*
X55309Y-34823D02*
X55343Y-34861D01*
X54610Y-35301D02*
X54610Y-35176D01*
X54610Y-35238D02*
X54310Y-35238D01*
X54344Y-35238D02*
X54410Y-35301D01*
X54410Y-35036D02*
X54544Y-35036D01*
X54544Y-35036D02*
X54610Y-34974D01*
X54610Y-34974D02*
X54610Y-34880D01*
X54610Y-34880D02*
X54544Y-34817D01*
X54544Y-34817D02*
X54410Y-34817D01*
X54610Y-34709D02*
X54310Y-34709D01*
X54310Y-34709D02*
X54310Y-34490D01*
X54444Y-34709D02*
X54444Y-34584D01*
G54D32*
X54977Y-34164D02*
X54977Y-33939D01*
X55077Y-34051D02*
X54877Y-34051D01*
G54D11*
X55100Y-41249D02*
X54500Y-41249D01*
X54500Y-41324D02*
X54500Y-40874D01*
X54500Y-40874D02*
X54567Y-40799D01*
X54567Y-40799D02*
X55034Y-40799D01*
X55034Y-40799D02*
X55100Y-40874D01*
X55100Y-40874D02*
X55100Y-41324D01*
X55100Y-40388D02*
X55100Y-40088D01*
X55100Y-40238D02*
X54500Y-40238D01*
X54567Y-40238D02*
X54700Y-40388D01*
X55324Y-40440D02*
X55324Y-39759D01*
X55324Y-39759D02*
X55645Y-39759D01*
X55645Y-39759D02*
X55699Y-39835D01*
X55699Y-39835D02*
X55699Y-40062D01*
X55699Y-40062D02*
X55645Y-40138D01*
X55645Y-40138D02*
X55324Y-40138D01*
X56294Y-40440D02*
X55919Y-40440D01*
X55919Y-40440D02*
X55919Y-40213D01*
X55919Y-40213D02*
X55973Y-40138D01*
X55973Y-40138D02*
X56240Y-40138D01*
X56240Y-40138D02*
X56294Y-40062D01*
X56294Y-40062D02*
X56294Y-39835D01*
X56294Y-39835D02*
X56240Y-39759D01*
X56240Y-39759D02*
X55973Y-39759D01*
X55973Y-39759D02*
X55919Y-39835D01*
X58224Y-40440D02*
X58224Y-39759D01*
X58224Y-39759D02*
X58545Y-39759D01*
X58545Y-39759D02*
X58599Y-39835D01*
X58599Y-39835D02*
X58599Y-40062D01*
X58599Y-40062D02*
X58545Y-40138D01*
X58545Y-40138D02*
X58224Y-40138D01*
X58819Y-39759D02*
X59194Y-39759D01*
X59194Y-39759D02*
X59194Y-39835D01*
X59194Y-39835D02*
X58980Y-40062D01*
X58980Y-40062D02*
X59140Y-40062D01*
X59140Y-40062D02*
X59194Y-40138D01*
X59194Y-40138D02*
X59194Y-40365D01*
X59194Y-40365D02*
X59140Y-40440D01*
X59140Y-40440D02*
X58873Y-40440D01*
X58873Y-40440D02*
X58819Y-40365D01*
G54D32*
X51297Y-38875D02*
X51297Y-38325D01*
X51297Y-38325D02*
X51672Y-38325D01*
X51672Y-38325D02*
X51735Y-38387D01*
X51735Y-38387D02*
X51735Y-38570D01*
X51735Y-38570D02*
X51672Y-38631D01*
X51672Y-38631D02*
X51297Y-38631D01*
X51485Y-38631D02*
X51735Y-38875D01*
X52057Y-38875D02*
X52307Y-38875D01*
X52182Y-38875D02*
X52182Y-38325D01*
X52182Y-38387D02*
X52057Y-38509D01*
G54D29*
X56036Y-37481D02*
X56069Y-37519D01*
X56069Y-37519D02*
X56069Y-37706D01*
X56069Y-37706D02*
X56036Y-37744D01*
X56036Y-37744D02*
X55803Y-37744D01*
X55803Y-37744D02*
X55769Y-37706D01*
X55769Y-37706D02*
X55769Y-37519D01*
X55769Y-37519D02*
X55803Y-37481D01*
X56069Y-37173D02*
X55769Y-37173D01*
X55769Y-37173D02*
X56003Y-37361D01*
X56003Y-37361D02*
X56003Y-37098D01*
X55070Y-37801D02*
X55070Y-37676D01*
X55070Y-37738D02*
X54770Y-37738D01*
X54804Y-37738D02*
X54870Y-37801D01*
X54870Y-37536D02*
X55004Y-37536D01*
X55004Y-37536D02*
X55070Y-37474D01*
X55070Y-37474D02*
X55070Y-37380D01*
X55070Y-37380D02*
X55004Y-37317D01*
X55004Y-37317D02*
X54870Y-37317D01*
X55070Y-37209D02*
X54770Y-37209D01*
X54770Y-37209D02*
X54770Y-36990D01*
X54904Y-37209D02*
X54904Y-37084D01*
G54D32*
X55437Y-36664D02*
X55437Y-36439D01*
X55537Y-36551D02*
X55337Y-36551D01*
G54D11*
X60400Y-31296D02*
X60934Y-31296D01*
X60934Y-31296D02*
X61000Y-31240D01*
X61000Y-31240D02*
X61000Y-30959D01*
X61000Y-30959D02*
X60934Y-30902D01*
X60934Y-30902D02*
X60400Y-30902D01*
X61000Y-30282D02*
X61000Y-30676D01*
X61000Y-30676D02*
X60800Y-30676D01*
X60800Y-30676D02*
X60734Y-30620D01*
X60734Y-30620D02*
X60734Y-30339D01*
X60734Y-30339D02*
X60667Y-30282D01*
X60667Y-30282D02*
X60467Y-30282D01*
X60467Y-30282D02*
X60400Y-30339D01*
X60400Y-30339D02*
X60400Y-30620D01*
X60400Y-30620D02*
X60467Y-30676D01*
X60000Y-36036D02*
X59400Y-36036D01*
X59400Y-36036D02*
X59667Y-35811D01*
X59667Y-35811D02*
X59400Y-35586D01*
X59400Y-35586D02*
X60000Y-35586D01*
X60000Y-35416D02*
X59534Y-35416D01*
X59534Y-35416D02*
X59400Y-35304D01*
X59400Y-35304D02*
X59400Y-35135D01*
X59400Y-35135D02*
X59534Y-35022D01*
X59534Y-35022D02*
X60000Y-35022D01*
X59667Y-35416D02*
X59667Y-35022D01*
X60000Y-34796D02*
X59400Y-34402D01*
X59400Y-34796D02*
X60000Y-34402D01*
X60000Y-33782D02*
X60000Y-34176D01*
X60000Y-34176D02*
X59800Y-34176D01*
X59800Y-34176D02*
X59734Y-34120D01*
X59734Y-34120D02*
X59734Y-33839D01*
X59734Y-33839D02*
X59667Y-33782D01*
X59667Y-33782D02*
X59467Y-33782D01*
X59467Y-33782D02*
X59400Y-33839D01*
X59400Y-33839D02*
X59400Y-34120D01*
X59400Y-34120D02*
X59467Y-34176D01*
X59400Y-33556D02*
X59400Y-33162D01*
X59400Y-33162D02*
X59467Y-33162D01*
X59467Y-33162D02*
X59667Y-33387D01*
X59667Y-33387D02*
X59667Y-33219D01*
X59667Y-33219D02*
X59734Y-33162D01*
X59734Y-33162D02*
X59934Y-33162D01*
X59934Y-33162D02*
X60000Y-33219D01*
X60000Y-33219D02*
X60000Y-33500D01*
X60000Y-33500D02*
X59934Y-33556D01*
X60000Y-32542D02*
X60000Y-32936D01*
X60000Y-32936D02*
X59800Y-32936D01*
X59800Y-32936D02*
X59734Y-32880D01*
X59734Y-32880D02*
X59734Y-32599D01*
X59734Y-32599D02*
X59667Y-32542D01*
X59667Y-32542D02*
X59467Y-32542D01*
X59467Y-32542D02*
X59400Y-32599D01*
X59400Y-32599D02*
X59400Y-32880D01*
X59400Y-32880D02*
X59467Y-32936D01*
X44876Y-23500D02*
X44876Y-22900D01*
X44876Y-22900D02*
X45326Y-22900D01*
X45326Y-22900D02*
X45401Y-22967D01*
X45401Y-22967D02*
X45401Y-23167D01*
X45401Y-23167D02*
X45326Y-23234D01*
X45326Y-23234D02*
X44876Y-23234D01*
X45812Y-23500D02*
X46112Y-23500D01*
X45962Y-23500D02*
X45962Y-22900D01*
X45962Y-22967D02*
X45812Y-23100D01*
X43829Y-27434D02*
X43754Y-27500D01*
X43754Y-27500D02*
X43379Y-27500D01*
X43379Y-27500D02*
X43304Y-27434D01*
X43304Y-27434D02*
X43304Y-26967D01*
X43304Y-26967D02*
X43379Y-26900D01*
X43379Y-26900D02*
X43754Y-26900D01*
X43754Y-26900D02*
X43829Y-26967D01*
X44165Y-27500D02*
X44090Y-27434D01*
X44090Y-27434D02*
X44090Y-26967D01*
X44090Y-26967D02*
X44165Y-26900D01*
X44165Y-26900D02*
X44540Y-26900D01*
X44540Y-26900D02*
X44615Y-26967D01*
X44615Y-26967D02*
X44615Y-27434D01*
X44615Y-27434D02*
X44540Y-27500D01*
X44540Y-27500D02*
X44165Y-27500D01*
X44876Y-27500D02*
X44876Y-26900D01*
X44876Y-26900D02*
X45401Y-27500D01*
X45401Y-27500D02*
X45401Y-26900D01*
X45662Y-27500D02*
X45662Y-26900D01*
X45662Y-26900D02*
X46187Y-27500D01*
X46187Y-27500D02*
X46187Y-26900D01*
X46448Y-27500D02*
X46973Y-27500D01*
X47759Y-27500D02*
X47234Y-27500D01*
X47234Y-27500D02*
X47234Y-27300D01*
X47234Y-27300D02*
X47309Y-27234D01*
X47309Y-27234D02*
X47684Y-27234D01*
X47684Y-27234D02*
X47759Y-27167D01*
X47759Y-27167D02*
X47759Y-26967D01*
X47759Y-26967D02*
X47684Y-26900D01*
X47684Y-26900D02*
X47309Y-26900D01*
X47309Y-26900D02*
X47234Y-26967D01*
X46224Y-42440D02*
X46224Y-41759D01*
X46224Y-41759D02*
X46545Y-41759D01*
X46545Y-41759D02*
X46599Y-41835D01*
X46599Y-41835D02*
X46599Y-42062D01*
X46599Y-42062D02*
X46545Y-42138D01*
X46545Y-42138D02*
X46224Y-42138D01*
X47087Y-42440D02*
X47087Y-41759D01*
X47087Y-41759D02*
X46819Y-42289D01*
X46819Y-42289D02*
X47194Y-42289D01*
X38740Y-35926D02*
X38059Y-35926D01*
X38059Y-35926D02*
X38059Y-35605D01*
X38059Y-35605D02*
X38135Y-35551D01*
X38135Y-35551D02*
X38362Y-35551D01*
X38362Y-35551D02*
X38438Y-35605D01*
X38438Y-35605D02*
X38438Y-35926D01*
X38589Y-35331D02*
X38665Y-35331D01*
X38665Y-35331D02*
X38740Y-35277D01*
X38740Y-35277D02*
X38740Y-35010D01*
X38740Y-35010D02*
X38665Y-34956D01*
X38665Y-34956D02*
X38438Y-34956D01*
X38438Y-34956D02*
X38286Y-35063D01*
X38286Y-35063D02*
X38286Y-35331D01*
X38286Y-35331D02*
X38059Y-35331D01*
X38059Y-35331D02*
X38059Y-34956D01*
X42424Y-42440D02*
X42424Y-41759D01*
X42424Y-41759D02*
X42745Y-41759D01*
X42745Y-41759D02*
X42799Y-41835D01*
X42799Y-41835D02*
X42799Y-42062D01*
X42799Y-42062D02*
X42745Y-42138D01*
X42745Y-42138D02*
X42424Y-42138D01*
X43394Y-41835D02*
X43340Y-41759D01*
X43340Y-41759D02*
X43073Y-41759D01*
X43073Y-41759D02*
X43019Y-41835D01*
X43019Y-41835D02*
X43019Y-42365D01*
X43019Y-42365D02*
X43073Y-42440D01*
X43073Y-42440D02*
X43340Y-42440D01*
X43340Y-42440D02*
X43394Y-42365D01*
X43394Y-42365D02*
X43394Y-42138D01*
X43394Y-42138D02*
X43340Y-42062D01*
X43340Y-42062D02*
X43073Y-42062D01*
X43073Y-42062D02*
X43019Y-42138D01*
X38740Y-39176D02*
X38059Y-39176D01*
X38059Y-39176D02*
X38059Y-38855D01*
X38059Y-38855D02*
X38135Y-38801D01*
X38135Y-38801D02*
X38362Y-38801D01*
X38362Y-38801D02*
X38438Y-38855D01*
X38438Y-38855D02*
X38438Y-39176D01*
X38059Y-38581D02*
X38059Y-38206D01*
X38059Y-38206D02*
X38740Y-38581D01*
X38740Y-32676D02*
X38059Y-32676D01*
X38059Y-32676D02*
X38059Y-32355D01*
X38059Y-32355D02*
X38135Y-32301D01*
X38135Y-32301D02*
X38362Y-32301D01*
X38362Y-32301D02*
X38438Y-32355D01*
X38438Y-32355D02*
X38438Y-32676D01*
X38740Y-32027D02*
X38665Y-32081D01*
X38665Y-32081D02*
X38438Y-32081D01*
X38438Y-32081D02*
X38362Y-32027D01*
X38362Y-32027D02*
X38362Y-31760D01*
X38362Y-31760D02*
X38286Y-31706D01*
X38286Y-31706D02*
X38135Y-31706D01*
X38135Y-31706D02*
X38059Y-31760D01*
X38059Y-31760D02*
X38059Y-32027D01*
X38059Y-32027D02*
X38135Y-32081D01*
X38135Y-32081D02*
X38286Y-32081D01*
X38286Y-32081D02*
X38362Y-32027D01*
X38362Y-31760D02*
X38438Y-31706D01*
X38438Y-31706D02*
X38665Y-31706D01*
X38665Y-31706D02*
X38740Y-31760D01*
X38740Y-31760D02*
X38740Y-32027D01*
X50224Y-42440D02*
X50224Y-41759D01*
X50224Y-41759D02*
X50545Y-41759D01*
X50545Y-41759D02*
X50599Y-41835D01*
X50599Y-41835D02*
X50599Y-42062D01*
X50599Y-42062D02*
X50545Y-42138D01*
X50545Y-42138D02*
X50224Y-42138D01*
X50873Y-42440D02*
X51140Y-42440D01*
X51140Y-42440D02*
X51194Y-42365D01*
X51194Y-42365D02*
X51194Y-41835D01*
X51194Y-41835D02*
X51140Y-41759D01*
X51140Y-41759D02*
X50873Y-41759D01*
X50873Y-41759D02*
X50819Y-41835D01*
X50819Y-41835D02*
X50819Y-42062D01*
X50819Y-42062D02*
X50873Y-42138D01*
X50873Y-42138D02*
X51140Y-42138D01*
X51140Y-42138D02*
X51194Y-42062D01*
X38740Y-29723D02*
X38059Y-29723D01*
X38059Y-29723D02*
X38059Y-29402D01*
X38059Y-29402D02*
X38135Y-29348D01*
X38135Y-29348D02*
X38362Y-29348D01*
X38362Y-29348D02*
X38438Y-29402D01*
X38438Y-29402D02*
X38438Y-29723D01*
X38740Y-29021D02*
X38740Y-28807D01*
X38740Y-28914D02*
X38059Y-28914D01*
X38135Y-28914D02*
X38286Y-29021D01*
X38740Y-28533D02*
X38059Y-28158D01*
X38665Y-28533D02*
X38135Y-28533D01*
X38135Y-28533D02*
X38059Y-28479D01*
X38059Y-28479D02*
X38059Y-28212D01*
X38059Y-28212D02*
X38135Y-28158D01*
X38135Y-28158D02*
X38665Y-28158D01*
X38665Y-28158D02*
X38740Y-28212D01*
X38740Y-28212D02*
X38740Y-28479D01*
X38740Y-28479D02*
X38665Y-28533D01*
M02*
