%
M48
M72
T01C0.0320
T02C0.0400
T03C0.0550
%
T01
X2853Y1860
X5853Y2660
X5853Y4060
X8853Y4360
X2853Y4860
X8853Y6360
X9353Y8160
X9353Y9560
X7853Y10860
X4853Y10860
X3353Y10860
X3353Y9860
X16353Y9560
X16353Y8160
X23353Y8160
X23353Y9560
X30353Y9560
X30353Y8160
T02
X27353Y7860
X27353Y8860
X27353Y6860
X25353Y6860
X25353Y5860
X27353Y5860
X30353Y6110
X32353Y5860
X34353Y5860
X34353Y6860
X32353Y6860
X34353Y7860
X34353Y8860
X30353Y5110
X32353Y4860
X34353Y4860
X34353Y3860
X32353Y3860
X34353Y2860
X34353Y1860
X27353Y1860
X27353Y2860
X27353Y3860
X25353Y3860
X25353Y4860
X27353Y4860
X20353Y4860
X18353Y4860
X18353Y3860
X20353Y3860
X20353Y2860
X20353Y1860
X15853Y1860
X13353Y1860
X13353Y2860
X15853Y2860
X15853Y3860
X13353Y3860
X11353Y3860
X11353Y4860
X13353Y4860
X13353Y5860
X11353Y5860
X11353Y6860
X13353Y6860
X13353Y7860
X13353Y8860
X18353Y6860
X20353Y6860
X20353Y5860
X18353Y5860
X20353Y7860
X20353Y8860
X6353Y8860
X3853Y8360
X2853Y8360
X6353Y7860
X6353Y6860
X4353Y5860
X3353Y5860
X2353Y5860
X1353Y5860
T03
X36853Y6360
X36853Y8360
X36853Y4360
M30
