G75*
G70*
%OFA0B0*%
%FSLAX24Y24*%
%IPPOS*%
%LPD*%
%AMOC8*
5,1,8,0,0,1.08239X$1,22.5*
%
%ADD10C,0.0000*%
%ADD11C,0.0060*%
%ADD12C,0.0080*%
%ADD13C,0.0040*%
%ADD14C,0.0050*%
%ADD15C,0.0100*%
%ADD16R,0.0800X0.0200*%
%ADD17C,0.0200*%
%ADD18R,0.0300X0.4200*%
%ADD19R,0.0200X0.0750*%
%ADD20R,0.0200X0.0300*%
%ADD21R,0.0500X0.0750*%
%ADD22R,0.0300X0.0700*%
%ADD23R,0.0500X0.0300*%
D10*
X000603Y000610D02*
X000603Y012606D01*
X039723Y012606D01*
X039723Y000610D01*
X000603Y000610D01*
D11*
X002403Y002210D02*
X002403Y002360D01*
X002453Y002410D01*
X002453Y004310D01*
X002403Y004360D01*
X002403Y004510D01*
X002405Y004527D01*
X002409Y004544D01*
X002416Y004560D01*
X002426Y004574D01*
X002439Y004587D01*
X002453Y004597D01*
X002469Y004604D01*
X002486Y004608D01*
X002503Y004610D01*
X003203Y004610D02*
X003220Y004608D01*
X003237Y004604D01*
X003253Y004597D01*
X003267Y004587D01*
X003280Y004574D01*
X003290Y004560D01*
X003297Y004544D01*
X003301Y004527D01*
X003303Y004510D01*
X003303Y004360D01*
X003253Y004310D01*
X003253Y002410D01*
X003303Y002360D01*
X003303Y002210D01*
X003301Y002193D01*
X003297Y002176D01*
X003290Y002160D01*
X003280Y002146D01*
X003267Y002133D01*
X003253Y002123D01*
X003237Y002116D01*
X003220Y002112D01*
X003203Y002110D01*
X002503Y002110D02*
X002486Y002112D01*
X002469Y002116D01*
X002453Y002123D01*
X002439Y002133D01*
X002426Y002146D01*
X002416Y002160D01*
X002409Y002176D01*
X002405Y002193D01*
X002403Y002210D01*
X005253Y002160D02*
X005553Y002160D01*
X005403Y002010D02*
X005403Y002310D01*
X003853Y003360D02*
X003891Y003750D01*
X004005Y004125D01*
X004190Y004471D01*
X004439Y004774D01*
X004742Y005023D01*
X005088Y005208D01*
X005463Y005322D01*
X005853Y005360D01*
X006243Y005322D01*
X006618Y005208D01*
X006964Y005023D01*
X007267Y004774D01*
X007516Y004471D01*
X007701Y004125D01*
X007815Y003750D01*
X007853Y003360D01*
X007815Y002970D01*
X007701Y002595D01*
X007516Y002249D01*
X007267Y001946D01*
X006964Y001697D01*
X006618Y001512D01*
X006243Y001398D01*
X005853Y001360D01*
X005463Y001398D01*
X005088Y001512D01*
X004742Y001697D01*
X004439Y001946D01*
X004190Y002249D01*
X004005Y002595D01*
X003891Y002970D01*
X003853Y003360D01*
X008853Y004810D02*
X008853Y005110D01*
X008324Y004511D02*
X008273Y004545D01*
X008224Y004582D01*
X008178Y004623D01*
X008134Y004665D01*
X008092Y004711D01*
X008054Y004759D01*
X008018Y004809D01*
X007986Y004861D01*
X007957Y004915D01*
X007932Y004971D01*
X007910Y005029D01*
X007891Y005087D01*
X007876Y005147D01*
X007865Y005207D01*
X007857Y005268D01*
X007853Y005329D01*
X007853Y005391D01*
X007857Y005452D01*
X007865Y005513D01*
X007876Y005573D01*
X007891Y005633D01*
X007910Y005691D01*
X007932Y005749D01*
X007957Y005805D01*
X007986Y005859D01*
X008018Y005911D01*
X008054Y005961D01*
X008092Y006009D01*
X008134Y006055D01*
X008178Y006097D01*
X008224Y006138D01*
X008273Y006175D01*
X008324Y006209D01*
X008853Y005910D02*
X008853Y005660D01*
X009253Y005660D01*
X009253Y005460D01*
X008453Y005460D01*
X008453Y005660D01*
X008853Y005660D01*
X009103Y005760D02*
X009103Y005960D01*
X009003Y005860D02*
X009203Y005860D01*
X009633Y005640D02*
X010060Y006067D01*
X010060Y006174D01*
X009953Y006280D01*
X009740Y006280D01*
X009633Y006174D01*
X010278Y006067D02*
X010491Y006280D01*
X010705Y006067D01*
X010705Y005640D01*
X010853Y005610D02*
X010853Y006110D01*
X011103Y006360D01*
X010853Y006610D01*
X010853Y007110D01*
X011103Y007360D01*
X011603Y007360D01*
X011853Y007110D01*
X011853Y006610D01*
X011603Y006360D01*
X011853Y006110D01*
X011853Y005610D01*
X011603Y005360D01*
X011853Y005110D01*
X011853Y004610D01*
X011603Y004360D01*
X011853Y004110D01*
X011853Y003610D01*
X011603Y003360D01*
X011103Y003360D01*
X010853Y003610D01*
X010853Y004110D01*
X011103Y004360D01*
X010853Y004610D01*
X010853Y005110D01*
X011103Y005360D01*
X011603Y005360D01*
X011103Y005360D02*
X010853Y005610D01*
X010278Y005640D02*
X010278Y006067D01*
X010278Y005960D02*
X010705Y005960D01*
X011103Y006360D02*
X011603Y006360D01*
X010705Y006747D02*
X010598Y006640D01*
X010278Y006640D01*
X010278Y007280D01*
X010598Y007280D01*
X010705Y007174D01*
X010705Y007067D01*
X010598Y006960D01*
X010278Y006960D01*
X010060Y007067D02*
X010060Y007174D01*
X009953Y007280D01*
X009740Y007280D01*
X009633Y007174D01*
X010060Y007067D02*
X009633Y006640D01*
X010060Y006640D01*
X010598Y006960D02*
X010705Y006853D01*
X010705Y006747D01*
X012853Y006610D02*
X013103Y006360D01*
X012853Y006110D01*
X012853Y005610D01*
X013103Y005360D01*
X012853Y005110D01*
X012853Y004610D01*
X013103Y004360D01*
X013603Y004360D01*
X013853Y004610D01*
X013853Y005110D01*
X013603Y005360D01*
X013103Y005360D01*
X013603Y005360D02*
X013853Y005610D01*
X013853Y006110D01*
X013603Y006360D01*
X013103Y006360D01*
X013603Y006360D02*
X013853Y006610D01*
X013853Y007110D01*
X013603Y007360D01*
X013103Y007360D01*
X012853Y007610D01*
X012853Y008110D01*
X013103Y008360D01*
X012853Y008610D01*
X012853Y009110D01*
X013103Y009360D01*
X013603Y009360D01*
X013853Y009110D01*
X013853Y008610D01*
X013603Y008360D01*
X013853Y008110D01*
X013853Y007610D01*
X013603Y007360D01*
X013103Y007360D02*
X012853Y007110D01*
X012853Y006610D01*
X010060Y005640D02*
X009633Y005640D01*
X009382Y006209D02*
X009433Y006175D01*
X009482Y006138D01*
X009528Y006097D01*
X009572Y006055D01*
X009614Y006009D01*
X009652Y005961D01*
X009688Y005911D01*
X009720Y005859D01*
X009749Y005805D01*
X009774Y005749D01*
X009796Y005691D01*
X009815Y005633D01*
X009830Y005573D01*
X009841Y005513D01*
X009849Y005452D01*
X009853Y005391D01*
X009853Y005329D01*
X009849Y005268D01*
X009841Y005207D01*
X009830Y005147D01*
X009815Y005087D01*
X009796Y005029D01*
X009774Y004971D01*
X009749Y004915D01*
X009720Y004861D01*
X009688Y004809D01*
X009652Y004759D01*
X009614Y004711D01*
X009572Y004665D01*
X009528Y004623D01*
X009482Y004582D01*
X009433Y004545D01*
X009382Y004511D01*
X009633Y004640D02*
X010060Y004640D01*
X009847Y004640D02*
X009847Y005280D01*
X009633Y005067D01*
X010278Y005067D02*
X010491Y005280D01*
X010705Y005067D01*
X010705Y004640D01*
X010278Y004640D02*
X010278Y005067D01*
X010278Y004960D02*
X010705Y004960D01*
X010598Y004280D02*
X010278Y004280D01*
X010278Y003640D01*
X010598Y003640D01*
X010705Y003747D01*
X010705Y003853D01*
X010598Y003960D01*
X010278Y003960D01*
X010598Y003960D02*
X010705Y004067D01*
X010705Y004174D01*
X010598Y004280D01*
X011103Y004360D02*
X011603Y004360D01*
X012853Y004110D02*
X013103Y004360D01*
X012853Y004110D02*
X012853Y003610D01*
X013103Y003360D01*
X012853Y003110D01*
X012853Y002610D01*
X013103Y002360D01*
X012853Y002110D01*
X012853Y001610D01*
X013103Y001360D01*
X013603Y001360D01*
X013853Y001610D01*
X013853Y002110D01*
X013603Y002360D01*
X013103Y002360D01*
X013603Y002360D02*
X013853Y002610D01*
X013853Y003110D01*
X013603Y003360D01*
X013103Y003360D01*
X013603Y003360D02*
X013853Y003610D01*
X013853Y004110D01*
X013603Y004360D01*
X015153Y004760D02*
X015253Y004860D01*
X016403Y004860D01*
X015153Y004760D02*
X015153Y000960D01*
X015253Y000860D01*
X016403Y000860D01*
X019853Y001610D02*
X019853Y002110D01*
X020103Y002360D01*
X019853Y002610D01*
X019853Y003110D01*
X020103Y003360D01*
X019853Y003610D01*
X019853Y004110D01*
X020103Y004360D01*
X019853Y004610D01*
X019853Y005110D01*
X020103Y005360D01*
X019853Y005610D01*
X019853Y006110D01*
X020103Y006360D01*
X019853Y006610D01*
X019853Y007110D01*
X020103Y007360D01*
X019853Y007610D01*
X019853Y008110D01*
X020103Y008360D01*
X019853Y008610D01*
X019853Y009110D01*
X020103Y009360D01*
X020603Y009360D01*
X020853Y009110D01*
X020853Y008610D01*
X020603Y008360D01*
X020853Y008110D01*
X020853Y007610D01*
X020603Y007360D01*
X020103Y007360D01*
X020603Y007360D02*
X020853Y007110D01*
X020853Y006610D01*
X020603Y006360D01*
X020853Y006110D01*
X020853Y005610D01*
X020603Y005360D01*
X020853Y005110D01*
X020853Y004610D01*
X020603Y004360D01*
X020103Y004360D01*
X020603Y004360D02*
X020853Y004110D01*
X020853Y003610D01*
X020603Y003360D01*
X020853Y003110D01*
X020853Y002610D01*
X020603Y002360D01*
X020853Y002110D01*
X020853Y001610D01*
X020603Y001360D01*
X020103Y001360D01*
X019853Y001610D01*
X020103Y002360D02*
X020603Y002360D01*
X020603Y003360D02*
X020103Y003360D01*
X018853Y003610D02*
X018603Y003360D01*
X018103Y003360D01*
X017853Y003610D01*
X017853Y004110D01*
X018103Y004360D01*
X017853Y004610D01*
X017853Y005110D01*
X018103Y005360D01*
X018603Y005360D01*
X018853Y005110D01*
X018853Y004610D01*
X018603Y004360D01*
X018853Y004110D01*
X018853Y003610D01*
X018603Y004360D02*
X018103Y004360D01*
X018103Y005360D02*
X017853Y005610D01*
X017853Y006110D01*
X018103Y006360D01*
X017853Y006610D01*
X017853Y007110D01*
X018103Y007360D01*
X018603Y007360D01*
X018853Y007110D01*
X018853Y006610D01*
X018603Y006360D01*
X018853Y006110D01*
X018853Y005610D01*
X018603Y005360D01*
X020103Y005360D02*
X020603Y005360D01*
X020603Y006360D02*
X020103Y006360D01*
X018603Y006360D02*
X018103Y006360D01*
X023633Y006174D02*
X023740Y006280D01*
X023953Y006280D01*
X024060Y006174D01*
X024060Y006067D01*
X023633Y005640D01*
X024060Y005640D01*
X024278Y005640D02*
X024278Y006067D01*
X024491Y006280D01*
X024705Y006067D01*
X024705Y005640D01*
X024853Y005610D02*
X024853Y006110D01*
X025103Y006360D01*
X024853Y006610D01*
X024853Y007110D01*
X025103Y007360D01*
X025603Y007360D01*
X025853Y007110D01*
X025853Y006610D01*
X025603Y006360D01*
X025853Y006110D01*
X025853Y005610D01*
X025603Y005360D01*
X025853Y005110D01*
X025853Y004610D01*
X025603Y004360D01*
X025853Y004110D01*
X025853Y003610D01*
X025603Y003360D01*
X025103Y003360D01*
X024853Y003610D01*
X024853Y004110D01*
X025103Y004360D01*
X024853Y004610D01*
X024853Y005110D01*
X025103Y005360D01*
X025603Y005360D01*
X025103Y005360D02*
X024853Y005610D01*
X024705Y005960D02*
X024278Y005960D01*
X025103Y006360D02*
X025603Y006360D01*
X024705Y006747D02*
X024598Y006640D01*
X024278Y006640D01*
X024278Y007280D01*
X024598Y007280D01*
X024705Y007174D01*
X024705Y007067D01*
X024598Y006960D01*
X024278Y006960D01*
X024060Y007067D02*
X024060Y007174D01*
X023953Y007280D01*
X023740Y007280D01*
X023633Y007174D01*
X024060Y007067D02*
X023633Y006640D01*
X024060Y006640D01*
X024598Y006960D02*
X024705Y006853D01*
X024705Y006747D01*
X026853Y006610D02*
X027103Y006360D01*
X026853Y006110D01*
X026853Y005610D01*
X027103Y005360D01*
X026853Y005110D01*
X026853Y004610D01*
X027103Y004360D01*
X027603Y004360D01*
X027853Y004610D01*
X027853Y005110D01*
X027603Y005360D01*
X027103Y005360D01*
X027603Y005360D02*
X027853Y005610D01*
X027853Y006110D01*
X027603Y006360D01*
X027103Y006360D01*
X027603Y006360D02*
X027853Y006610D01*
X027853Y007110D01*
X027603Y007360D01*
X027103Y007360D01*
X026853Y007610D01*
X026853Y008110D01*
X027103Y008360D01*
X026853Y008610D01*
X026853Y009110D01*
X027103Y009360D01*
X027603Y009360D01*
X027853Y009110D01*
X027853Y008610D01*
X027603Y008360D01*
X027853Y008110D01*
X027853Y007610D01*
X027603Y007360D01*
X027103Y007360D02*
X026853Y007110D01*
X026853Y006610D01*
X029853Y006360D02*
X029853Y005860D01*
X030103Y005610D01*
X029853Y005360D01*
X029853Y004860D01*
X030103Y004610D01*
X030603Y004610D01*
X030853Y004860D01*
X030853Y005360D01*
X030603Y005610D01*
X030103Y005610D01*
X030603Y005610D02*
X030853Y005860D01*
X030853Y006360D01*
X030603Y006610D01*
X030103Y006610D01*
X029853Y006360D01*
X030633Y006390D02*
X031060Y006817D01*
X031060Y006924D01*
X030953Y007030D01*
X030740Y007030D01*
X030633Y006924D01*
X031278Y007030D02*
X031598Y007030D01*
X031705Y006924D01*
X031705Y006817D01*
X031598Y006710D01*
X031278Y006710D01*
X031598Y006710D02*
X031705Y006603D01*
X031705Y006497D01*
X031598Y006390D01*
X031278Y006390D01*
X031278Y007030D01*
X031853Y007110D02*
X032103Y007360D01*
X032603Y007360D01*
X032853Y007110D01*
X032853Y006610D01*
X032603Y006360D01*
X032853Y006110D01*
X032853Y005610D01*
X032603Y005360D01*
X032853Y005110D01*
X032853Y004610D01*
X032603Y004360D01*
X032853Y004110D01*
X032853Y003610D01*
X032603Y003360D01*
X032103Y003360D01*
X031853Y003610D01*
X031853Y004110D01*
X032103Y004360D01*
X031853Y004610D01*
X031853Y005110D01*
X032103Y005360D01*
X032603Y005360D01*
X032103Y005360D02*
X031853Y005610D01*
X031853Y006110D01*
X032103Y006360D01*
X031853Y006610D01*
X031853Y007110D01*
X032103Y006360D02*
X032603Y006360D01*
X031705Y005817D02*
X031491Y006030D01*
X031278Y005817D01*
X031278Y005390D01*
X031060Y005390D02*
X030633Y005390D01*
X031060Y005817D01*
X031060Y005924D01*
X030953Y006030D01*
X030740Y006030D01*
X030633Y005924D01*
X031278Y005710D02*
X031705Y005710D01*
X031705Y005817D02*
X031705Y005390D01*
X031491Y005030D02*
X031705Y004817D01*
X031705Y004390D01*
X032103Y004360D02*
X032603Y004360D01*
X031705Y004710D02*
X031278Y004710D01*
X031278Y004817D02*
X031491Y005030D01*
X031278Y004817D02*
X031278Y004390D01*
X031060Y004390D02*
X030633Y004390D01*
X030847Y004390D02*
X030847Y005030D01*
X030633Y004817D01*
X030847Y004030D02*
X030847Y003390D01*
X031060Y003390D02*
X030633Y003390D01*
X031278Y003390D02*
X031598Y003390D01*
X031705Y003497D01*
X031705Y003603D01*
X031598Y003710D01*
X031278Y003710D01*
X031598Y003710D02*
X031705Y003817D01*
X031705Y003924D01*
X031598Y004030D01*
X031278Y004030D01*
X031278Y003390D01*
X030847Y004030D02*
X030633Y003817D01*
X027853Y003610D02*
X027603Y003360D01*
X027853Y003110D01*
X027853Y002610D01*
X027603Y002360D01*
X027853Y002110D01*
X027853Y001610D01*
X027603Y001360D01*
X027103Y001360D01*
X026853Y001610D01*
X026853Y002110D01*
X027103Y002360D01*
X026853Y002610D01*
X026853Y003110D01*
X027103Y003360D01*
X026853Y003610D01*
X026853Y004110D01*
X027103Y004360D01*
X027603Y004360D02*
X027853Y004110D01*
X027853Y003610D01*
X027603Y003360D02*
X027103Y003360D01*
X024705Y003747D02*
X024598Y003640D01*
X024278Y003640D01*
X024278Y004280D01*
X024598Y004280D01*
X024705Y004174D01*
X024705Y004067D01*
X024598Y003960D01*
X024278Y003960D01*
X024598Y003960D02*
X024705Y003853D01*
X024705Y003747D01*
X024060Y003640D02*
X023633Y003640D01*
X023847Y003640D02*
X023847Y004280D01*
X023633Y004067D01*
X025103Y004360D02*
X025603Y004360D01*
X024705Y004640D02*
X024705Y005067D01*
X024491Y005280D01*
X024278Y005067D01*
X024278Y004640D01*
X024060Y004640D02*
X023633Y004640D01*
X023847Y004640D02*
X023847Y005280D01*
X023633Y005067D01*
X024278Y004960D02*
X024705Y004960D01*
X030633Y006390D02*
X031060Y006390D01*
X033853Y006610D02*
X034103Y006360D01*
X033853Y006110D01*
X033853Y005610D01*
X034103Y005360D01*
X033853Y005110D01*
X033853Y004610D01*
X034103Y004360D01*
X034603Y004360D01*
X034853Y004610D01*
X034853Y005110D01*
X034603Y005360D01*
X034103Y005360D01*
X034603Y005360D02*
X034853Y005610D01*
X034853Y006110D01*
X034603Y006360D01*
X034103Y006360D01*
X034603Y006360D02*
X034853Y006610D01*
X034853Y007110D01*
X034603Y007360D01*
X034103Y007360D01*
X033853Y007610D01*
X033853Y008110D01*
X034103Y008360D01*
X033853Y008610D01*
X033853Y009110D01*
X034103Y009360D01*
X034603Y009360D01*
X034853Y009110D01*
X034853Y008610D01*
X034603Y008360D01*
X034853Y008110D01*
X034853Y007610D01*
X034603Y007360D01*
X034103Y007360D02*
X033853Y007110D01*
X033853Y006610D01*
X036053Y006610D02*
X036053Y008110D01*
X036053Y008610D02*
X036053Y009760D01*
X039603Y009760D01*
X040803Y009760D01*
X040803Y008710D01*
X040303Y008560D01*
X040303Y008160D01*
X040803Y008010D01*
X040803Y008710D01*
X039494Y009317D02*
X039280Y008890D01*
X039067Y009317D01*
X038849Y009317D02*
X038849Y009424D01*
X038743Y009530D01*
X038529Y009530D01*
X038422Y009424D01*
X038849Y009317D02*
X038422Y008890D01*
X038849Y008890D01*
X038205Y008890D02*
X037778Y008890D01*
X037991Y008890D02*
X037991Y009530D01*
X037778Y009317D01*
X037560Y009210D02*
X037133Y009210D01*
X037347Y008997D02*
X037347Y009424D01*
X039603Y009760D02*
X039603Y002960D01*
X040803Y002960D01*
X040803Y004010D01*
X040803Y004710D01*
X040803Y006010D01*
X040803Y006710D01*
X040803Y008010D01*
X038323Y006749D02*
X038216Y006856D01*
X037789Y006856D01*
X037683Y006749D01*
X037683Y006429D01*
X038323Y006429D01*
X038323Y006749D01*
X038216Y006211D02*
X037789Y006211D01*
X037683Y006105D01*
X037683Y005784D01*
X038323Y005784D01*
X038323Y006105D01*
X038216Y006211D01*
X038110Y005567D02*
X037683Y005567D01*
X038110Y005567D02*
X038323Y005353D01*
X038110Y005140D01*
X037683Y005140D01*
X036053Y004610D02*
X036053Y006110D01*
X040303Y006160D02*
X040303Y006560D01*
X040803Y006710D01*
X040803Y006010D02*
X040303Y006160D01*
X040803Y004710D02*
X040303Y004560D01*
X040303Y004160D01*
X040803Y004010D01*
X038849Y003674D02*
X038743Y003780D01*
X038422Y003780D01*
X038422Y003140D01*
X038743Y003140D01*
X038849Y003247D01*
X038849Y003674D01*
X038205Y003780D02*
X038205Y003140D01*
X037778Y003780D01*
X037778Y003140D01*
X037560Y003247D02*
X037560Y003460D01*
X037347Y003460D01*
X037560Y003674D02*
X037453Y003780D01*
X037240Y003780D01*
X037133Y003674D01*
X037133Y003247D01*
X037240Y003140D01*
X037453Y003140D01*
X037560Y003247D01*
X036053Y002960D02*
X036053Y004110D01*
X034853Y004110D02*
X034853Y003610D01*
X034603Y003360D01*
X034853Y003110D01*
X034853Y002610D01*
X034603Y002360D01*
X034853Y002110D01*
X034853Y001610D01*
X034603Y001360D01*
X034103Y001360D01*
X033853Y001610D01*
X033853Y002110D01*
X034103Y002360D01*
X033853Y002610D01*
X033853Y003110D01*
X034103Y003360D01*
X033853Y003610D01*
X033853Y004110D01*
X034103Y004360D01*
X034603Y004360D02*
X034853Y004110D01*
X034603Y003360D02*
X034103Y003360D01*
X036053Y002960D02*
X039603Y002960D01*
X034603Y002360D02*
X034103Y002360D01*
X027603Y002360D02*
X027103Y002360D01*
X010060Y003640D02*
X009633Y003640D01*
X009847Y003640D02*
X009847Y004280D01*
X009633Y004067D01*
X004853Y005610D02*
X004603Y005360D01*
X004103Y005360D01*
X003853Y005610D01*
X003603Y005360D01*
X003103Y005360D01*
X002853Y005610D01*
X002603Y005360D01*
X002103Y005360D01*
X001853Y005610D01*
X001603Y005360D01*
X001103Y005360D01*
X000853Y005610D01*
X000853Y006110D01*
X001103Y006360D01*
X001603Y006360D01*
X001853Y006110D01*
X002103Y006360D01*
X002603Y006360D01*
X002853Y006110D01*
X002853Y005610D01*
X001853Y005610D02*
X001853Y006110D01*
X002853Y006110D02*
X003103Y006360D01*
X003603Y006360D01*
X003853Y006110D01*
X004103Y006360D01*
X004603Y006360D01*
X004853Y006110D01*
X004853Y005610D01*
X003853Y005610D02*
X003853Y006110D01*
X005803Y005860D02*
X006953Y005910D01*
X007053Y006010D01*
X007053Y009710D01*
X006953Y009810D01*
X005803Y009860D01*
X005353Y010410D02*
X005403Y010460D01*
X007303Y010460D01*
X007353Y010410D01*
X007503Y010410D01*
X007520Y010412D01*
X007537Y010416D01*
X007553Y010423D01*
X007567Y010433D01*
X007580Y010446D01*
X007590Y010460D01*
X007597Y010476D01*
X007601Y010493D01*
X007603Y010510D01*
X007603Y011210D02*
X007601Y011227D01*
X007597Y011244D01*
X007590Y011260D01*
X007580Y011274D01*
X007567Y011287D01*
X007553Y011297D01*
X007537Y011304D01*
X007520Y011308D01*
X007503Y011310D01*
X007353Y011310D01*
X007303Y011260D01*
X005403Y011260D01*
X005353Y011310D01*
X005203Y011310D01*
X005186Y011308D01*
X005169Y011304D01*
X005153Y011297D01*
X005139Y011287D01*
X005126Y011274D01*
X005116Y011260D01*
X005109Y011244D01*
X005105Y011227D01*
X005103Y011210D01*
X005103Y010510D02*
X005105Y010493D01*
X005109Y010476D01*
X005116Y010460D01*
X005126Y010446D01*
X005139Y010433D01*
X005153Y010423D01*
X005169Y010416D01*
X005186Y010412D01*
X005203Y010410D01*
X005353Y010410D01*
X002985Y010834D02*
X002950Y010804D01*
X002917Y010773D01*
X002887Y010738D01*
X002860Y010702D01*
X002836Y010664D01*
X002814Y010624D01*
X002796Y010582D01*
X002780Y010539D01*
X002768Y010495D01*
X002760Y010451D01*
X002755Y010405D01*
X002753Y010360D01*
X002755Y010315D01*
X002760Y010269D01*
X002768Y010225D01*
X002780Y010181D01*
X002796Y010138D01*
X002814Y010096D01*
X002836Y010056D01*
X002860Y010018D01*
X002887Y009982D01*
X002917Y009947D01*
X002950Y009916D01*
X002985Y009886D01*
X003953Y010360D02*
X003951Y010406D01*
X003946Y010452D01*
X003937Y010498D01*
X003925Y010543D01*
X003909Y010586D01*
X003890Y010628D01*
X003867Y010669D01*
X003842Y010708D01*
X003814Y010744D01*
X003783Y010779D01*
X003749Y010811D01*
X003713Y010840D01*
X003953Y010360D02*
X003951Y010313D01*
X003945Y010265D01*
X003936Y010219D01*
X003923Y010173D01*
X003907Y010129D01*
X003887Y010085D01*
X003863Y010044D01*
X003837Y010005D01*
X003807Y009968D01*
X003774Y009933D01*
X003739Y009901D01*
X003702Y009872D01*
X003603Y008860D02*
X004103Y008860D01*
X004353Y008610D01*
X004353Y008110D01*
X004103Y007860D01*
X003603Y007860D01*
X003353Y008110D01*
X003103Y007860D01*
X002603Y007860D01*
X002353Y008110D01*
X002353Y008610D01*
X002603Y008860D01*
X003103Y008860D01*
X003353Y008610D01*
X003603Y008860D01*
X003353Y008610D02*
X003353Y008110D01*
X007353Y008860D02*
X007391Y009250D01*
X007505Y009625D01*
X007690Y009971D01*
X007939Y010274D01*
X008242Y010523D01*
X008588Y010708D01*
X008963Y010822D01*
X009353Y010860D01*
X009743Y010822D01*
X010118Y010708D01*
X010464Y010523D01*
X010767Y010274D01*
X011016Y009971D01*
X011201Y009625D01*
X011315Y009250D01*
X011353Y008860D01*
X011315Y008470D01*
X011201Y008095D01*
X011016Y007749D01*
X010767Y007446D01*
X010464Y007197D01*
X010118Y007012D01*
X009743Y006898D01*
X009353Y006860D01*
X008963Y006898D01*
X008588Y007012D01*
X008242Y007197D01*
X007939Y007446D01*
X007690Y007749D01*
X007505Y008095D01*
X007391Y008470D01*
X007353Y008860D01*
X009803Y009910D02*
X009803Y010210D01*
X009653Y010060D02*
X009953Y010060D01*
X013103Y008360D02*
X013603Y008360D01*
X014353Y008860D02*
X014391Y009250D01*
X014505Y009625D01*
X014690Y009971D01*
X014939Y010274D01*
X015242Y010523D01*
X015588Y010708D01*
X015963Y010822D01*
X016353Y010860D01*
X016743Y010822D01*
X017118Y010708D01*
X017464Y010523D01*
X017767Y010274D01*
X018016Y009971D01*
X018201Y009625D01*
X018315Y009250D01*
X018353Y008860D01*
X018315Y008470D01*
X018201Y008095D01*
X018016Y007749D01*
X017767Y007446D01*
X017464Y007197D01*
X017118Y007012D01*
X016743Y006898D01*
X016353Y006860D01*
X015963Y006898D01*
X015588Y007012D01*
X015242Y007197D01*
X014939Y007446D01*
X014690Y007749D01*
X014505Y008095D01*
X014391Y008470D01*
X014353Y008860D01*
X016803Y009910D02*
X016803Y010210D01*
X016653Y010060D02*
X016953Y010060D01*
X020103Y008360D02*
X020603Y008360D01*
X021353Y008860D02*
X021391Y009250D01*
X021505Y009625D01*
X021690Y009971D01*
X021939Y010274D01*
X022242Y010523D01*
X022588Y010708D01*
X022963Y010822D01*
X023353Y010860D01*
X023743Y010822D01*
X024118Y010708D01*
X024464Y010523D01*
X024767Y010274D01*
X025016Y009971D01*
X025201Y009625D01*
X025315Y009250D01*
X025353Y008860D01*
X025315Y008470D01*
X025201Y008095D01*
X025016Y007749D01*
X024767Y007446D01*
X024464Y007197D01*
X024118Y007012D01*
X023743Y006898D01*
X023353Y006860D01*
X022963Y006898D01*
X022588Y007012D01*
X022242Y007197D01*
X021939Y007446D01*
X021690Y007749D01*
X021505Y008095D01*
X021391Y008470D01*
X021353Y008860D01*
X023803Y009910D02*
X023803Y010210D01*
X023653Y010060D02*
X023953Y010060D01*
X027103Y008360D02*
X027603Y008360D01*
X028353Y008860D02*
X028391Y009250D01*
X028505Y009625D01*
X028690Y009971D01*
X028939Y010274D01*
X029242Y010523D01*
X029588Y010708D01*
X029963Y010822D01*
X030353Y010860D01*
X030743Y010822D01*
X031118Y010708D01*
X031464Y010523D01*
X031767Y010274D01*
X032016Y009971D01*
X032201Y009625D01*
X032315Y009250D01*
X032353Y008860D01*
X032315Y008470D01*
X032201Y008095D01*
X032016Y007749D01*
X031767Y007446D01*
X031464Y007197D01*
X031118Y007012D01*
X030743Y006898D01*
X030353Y006860D01*
X029963Y006898D01*
X029588Y007012D01*
X029242Y007197D01*
X028939Y007446D01*
X028690Y007749D01*
X028505Y008095D01*
X028391Y008470D01*
X028353Y008860D01*
X030803Y009910D02*
X030803Y010210D01*
X030653Y010060D02*
X030953Y010060D01*
X034103Y008360D02*
X034603Y008360D01*
D12*
X034507Y009900D02*
X033893Y009900D01*
X033893Y010821D01*
X034507Y010821D01*
X034200Y010360D02*
X033893Y010360D01*
X027507Y010667D02*
X026893Y010053D01*
X026893Y009900D01*
X027507Y009900D01*
X027507Y010667D02*
X027507Y010821D01*
X026893Y010821D01*
X020507Y010821D02*
X020507Y010667D01*
X020200Y010360D01*
X020200Y009900D01*
X020200Y010360D02*
X019893Y010667D01*
X019893Y010821D01*
X013507Y010821D02*
X012893Y009900D01*
X013507Y009900D02*
X012893Y010821D01*
X012497Y011093D02*
X012497Y012014D01*
X012957Y012014D01*
X013111Y011860D01*
X013111Y011553D01*
X012957Y011400D01*
X012497Y011400D01*
X012190Y011400D02*
X011730Y011400D01*
X011576Y011553D01*
X011730Y011707D01*
X012190Y011707D01*
X012190Y011860D02*
X012190Y011400D01*
X011269Y011400D02*
X010962Y011707D01*
X011116Y011707D02*
X010655Y011707D01*
X010349Y011860D02*
X010349Y011553D01*
X010195Y011400D01*
X009735Y011400D01*
X009274Y011400D02*
X008967Y011400D01*
X008814Y011553D01*
X008814Y011860D01*
X008967Y012014D01*
X009274Y012014D01*
X009428Y011860D01*
X009428Y011707D01*
X008814Y011707D01*
X008507Y011860D02*
X008354Y011707D01*
X007893Y011707D01*
X008200Y011707D02*
X008507Y011400D01*
X007893Y011400D02*
X007893Y012321D01*
X008354Y012321D01*
X008507Y012167D01*
X008507Y011860D01*
X009735Y012014D02*
X010195Y012014D01*
X010349Y011860D01*
X011116Y011707D02*
X011269Y011860D01*
X011269Y012167D01*
X011116Y012321D01*
X010655Y012321D01*
X010655Y011400D01*
X009735Y011093D02*
X009735Y012014D01*
X011730Y012014D02*
X012037Y012014D01*
X012190Y011860D01*
D13*
X013373Y011860D02*
X013450Y011937D01*
X013603Y011937D01*
X013680Y011860D01*
X013680Y011630D01*
X013910Y011707D02*
X013987Y011630D01*
X013910Y011707D02*
X013910Y012013D01*
X013834Y011937D02*
X013987Y011937D01*
X014140Y011937D02*
X014294Y011937D01*
X014217Y012013D02*
X014217Y011707D01*
X014294Y011630D01*
X014447Y011630D02*
X014678Y011630D01*
X014754Y011707D01*
X014754Y011860D01*
X014678Y011937D01*
X014447Y011937D01*
X014447Y011476D01*
X014908Y011630D02*
X014908Y011707D01*
X014984Y011707D01*
X014984Y011630D01*
X014908Y011630D01*
X015138Y011630D02*
X015445Y012090D01*
X015905Y012090D02*
X015598Y011630D01*
X016059Y011630D02*
X016059Y011937D01*
X016212Y011937D02*
X016059Y011783D01*
X016212Y011937D02*
X016289Y011937D01*
X016442Y011860D02*
X016519Y011937D01*
X016672Y011937D01*
X016749Y011860D01*
X016749Y011783D01*
X016442Y011783D01*
X016442Y011707D02*
X016442Y011860D01*
X016442Y011707D02*
X016519Y011630D01*
X016672Y011630D01*
X016903Y011630D02*
X017133Y011630D01*
X017209Y011707D01*
X017209Y011860D01*
X017133Y011937D01*
X016903Y011937D01*
X016903Y011476D01*
X017363Y011630D02*
X017363Y011937D01*
X017516Y011937D02*
X017593Y011937D01*
X017516Y011937D02*
X017363Y011783D01*
X017747Y011707D02*
X017823Y011783D01*
X018053Y011783D01*
X018053Y011860D02*
X018053Y011630D01*
X017823Y011630D01*
X017747Y011707D01*
X017977Y011937D02*
X018053Y011860D01*
X017977Y011937D02*
X017823Y011937D01*
X018207Y011937D02*
X018437Y011937D01*
X018514Y011860D01*
X018514Y011707D01*
X018437Y011630D01*
X018207Y011630D01*
X018667Y011630D02*
X018744Y011630D01*
X018744Y011707D01*
X018667Y011707D01*
X018667Y011630D01*
X018897Y011707D02*
X018974Y011630D01*
X019128Y011630D01*
X019204Y011707D01*
X019204Y011860D01*
X019128Y011937D01*
X018974Y011937D01*
X018897Y011860D01*
X018897Y011707D01*
X019358Y011783D02*
X019511Y011937D01*
X019588Y011937D01*
X019741Y011860D02*
X019741Y011707D01*
X019818Y011630D01*
X020048Y011630D01*
X020048Y011553D02*
X020048Y011937D01*
X019818Y011937D01*
X019741Y011860D01*
X019358Y011937D02*
X019358Y011630D01*
X019895Y011476D02*
X019972Y011476D01*
X020048Y011553D01*
X018207Y011476D02*
X018207Y011937D01*
X014984Y011937D02*
X014984Y011860D01*
X014908Y011860D01*
X014908Y011937D01*
X014984Y011937D01*
X013373Y012090D02*
X013373Y011630D01*
X022043Y011630D02*
X022350Y011630D01*
X022504Y011630D02*
X022657Y011630D01*
X022580Y011630D02*
X022580Y011937D01*
X022504Y011937D01*
X022580Y012090D02*
X022580Y012167D01*
X022043Y012090D02*
X022043Y011630D01*
X022810Y011707D02*
X022887Y011630D01*
X023117Y011630D01*
X023271Y011707D02*
X023271Y011860D01*
X023347Y011937D01*
X023501Y011937D01*
X023578Y011860D01*
X023578Y011783D01*
X023271Y011783D01*
X023271Y011707D02*
X023347Y011630D01*
X023501Y011630D01*
X023731Y011630D02*
X023731Y011937D01*
X023961Y011937D01*
X024038Y011860D01*
X024038Y011630D01*
X024191Y011707D02*
X024268Y011630D01*
X024498Y011630D01*
X024652Y011707D02*
X024652Y011860D01*
X024729Y011937D01*
X024882Y011937D01*
X024959Y011860D01*
X024959Y011783D01*
X024652Y011783D01*
X024652Y011707D02*
X024729Y011630D01*
X024882Y011630D01*
X025112Y011630D02*
X025112Y011707D01*
X025189Y011707D01*
X025189Y011630D01*
X025112Y011630D01*
X025112Y011860D02*
X025112Y011937D01*
X025189Y011937D01*
X025189Y011860D01*
X025112Y011860D01*
X024498Y011937D02*
X024268Y011937D01*
X024191Y011860D01*
X024191Y011707D01*
X023117Y011937D02*
X022887Y011937D01*
X022810Y011860D01*
X022810Y011707D01*
X025803Y011707D02*
X025879Y011630D01*
X026033Y011630D01*
X026110Y011707D01*
X026110Y011860D01*
X025956Y011860D01*
X025803Y012013D02*
X025803Y011707D01*
X026263Y011783D02*
X026493Y011783D01*
X026570Y011860D01*
X026570Y012013D01*
X026493Y012090D01*
X026263Y012090D01*
X026263Y011630D01*
X026723Y011630D02*
X027030Y011630D01*
X026723Y011630D02*
X026723Y012090D01*
X026110Y012013D02*
X026033Y012090D01*
X025879Y012090D01*
X025803Y012013D01*
X027644Y011937D02*
X027798Y011630D01*
X027951Y011937D01*
X028104Y012013D02*
X028181Y012090D01*
X028335Y012090D01*
X028411Y012013D01*
X028411Y011937D01*
X028104Y011630D01*
X028411Y011630D01*
X030406Y011630D02*
X030636Y011630D01*
X030713Y011707D01*
X030713Y012013D01*
X030636Y012090D01*
X030406Y012090D01*
X030406Y011630D01*
X030867Y011707D02*
X030867Y011860D01*
X030943Y011937D01*
X031097Y011937D01*
X031173Y011860D01*
X031173Y011783D01*
X030867Y011783D01*
X030867Y011707D02*
X030943Y011630D01*
X031097Y011630D01*
X031327Y011630D02*
X031557Y011630D01*
X031634Y011707D01*
X031557Y011783D01*
X031404Y011783D01*
X031327Y011860D01*
X031404Y011937D01*
X031634Y011937D01*
X031787Y011937D02*
X031864Y011937D01*
X031864Y011630D01*
X031787Y011630D02*
X031941Y011630D01*
X032094Y011707D02*
X032171Y011630D01*
X032401Y011630D01*
X032401Y011553D02*
X032401Y011937D01*
X032171Y011937D01*
X032094Y011860D01*
X032094Y011707D01*
X032324Y011476D02*
X032401Y011553D01*
X032324Y011476D02*
X032248Y011476D01*
X032555Y011630D02*
X032555Y011937D01*
X032785Y011937D01*
X032861Y011860D01*
X032861Y011630D01*
X033015Y011630D02*
X033015Y011707D01*
X033092Y011707D01*
X033092Y011630D01*
X033015Y011630D01*
X033015Y011860D02*
X033015Y011937D01*
X033092Y011937D01*
X033092Y011860D01*
X033015Y011860D01*
X033705Y011860D02*
X034012Y011860D01*
X034012Y011937D02*
X034012Y011630D01*
X034166Y011707D02*
X034166Y011860D01*
X034242Y011937D01*
X034473Y011937D01*
X034626Y011937D02*
X034626Y011630D01*
X034626Y011783D02*
X034780Y011937D01*
X034856Y011937D01*
X035010Y011937D02*
X035086Y011937D01*
X035086Y011630D01*
X035010Y011630D02*
X035163Y011630D01*
X035317Y011707D02*
X035393Y011783D01*
X035624Y011783D01*
X035624Y011860D02*
X035624Y011630D01*
X035393Y011630D01*
X035317Y011707D01*
X035547Y011937D02*
X035624Y011860D01*
X035547Y011937D02*
X035393Y011937D01*
X035086Y012090D02*
X035086Y012167D01*
X034473Y012090D02*
X034473Y011630D01*
X034242Y011630D01*
X034166Y011707D01*
X033705Y011630D02*
X033705Y011937D01*
X033859Y012090D01*
X034012Y011937D01*
X035777Y011937D02*
X035777Y011630D01*
X036084Y011630D02*
X036084Y011860D01*
X036007Y011937D01*
X035777Y011937D01*
X038079Y012090D02*
X038079Y011630D01*
X038079Y011783D02*
X038309Y011783D01*
X038386Y011860D01*
X038386Y012013D01*
X038309Y012090D01*
X038079Y012090D01*
X038539Y011860D02*
X038616Y011937D01*
X038769Y011937D01*
X038846Y011860D01*
X038846Y011707D01*
X038769Y011630D01*
X038616Y011630D01*
X038539Y011707D01*
X038539Y011860D01*
X038999Y011630D02*
X039153Y011630D01*
X039076Y011630D02*
X039076Y012090D01*
X038999Y012090D01*
X039306Y011860D02*
X039383Y011937D01*
X039536Y011937D01*
X039613Y011860D01*
X039613Y011707D01*
X039536Y011630D01*
X039383Y011630D01*
X039306Y011707D01*
X039306Y011860D01*
X039767Y011630D02*
X039920Y011630D01*
X039843Y011630D02*
X039843Y012090D01*
X039767Y012090D01*
X040074Y011937D02*
X040074Y011707D01*
X040150Y011630D01*
X040380Y011630D01*
X040380Y011937D01*
X040994Y011860D02*
X041071Y011937D01*
X041301Y011937D01*
X041455Y011937D02*
X041608Y011937D01*
X041531Y012013D02*
X041531Y011707D01*
X041608Y011630D01*
X041762Y011707D02*
X041762Y011860D01*
X041838Y011937D01*
X041992Y011937D01*
X042068Y011860D01*
X042068Y011783D01*
X041762Y011783D01*
X041762Y011707D02*
X041838Y011630D01*
X041992Y011630D01*
X042222Y011630D02*
X042452Y011630D01*
X042529Y011707D01*
X042529Y011860D01*
X042452Y011937D01*
X042222Y011937D01*
X042222Y011476D01*
X042682Y011476D02*
X042682Y011937D01*
X042912Y011937D01*
X042989Y011860D01*
X042989Y011707D01*
X042912Y011630D01*
X042682Y011630D01*
X043143Y011707D02*
X043143Y011860D01*
X043219Y011937D01*
X043373Y011937D01*
X043449Y011860D01*
X043449Y011783D01*
X043143Y011783D01*
X043143Y011707D02*
X043219Y011630D01*
X043373Y011630D01*
X043603Y011630D02*
X043603Y011937D01*
X043756Y011937D02*
X043833Y011937D01*
X043756Y011937D02*
X043603Y011783D01*
X043987Y011860D02*
X044063Y011937D01*
X044293Y011937D01*
X044217Y011783D02*
X044063Y011783D01*
X043987Y011860D01*
X043987Y011630D02*
X044217Y011630D01*
X044293Y011707D01*
X044217Y011783D01*
X044907Y011630D02*
X045137Y011630D01*
X045214Y011707D01*
X045214Y011860D01*
X045137Y011937D01*
X044907Y011937D01*
X044907Y011476D01*
X045368Y011707D02*
X045444Y011630D01*
X045598Y011630D01*
X045675Y011707D01*
X045675Y011860D01*
X045598Y011937D01*
X045444Y011937D01*
X045368Y011860D01*
X045368Y011707D01*
X045828Y011707D02*
X045905Y011630D01*
X045981Y011707D01*
X046058Y011630D01*
X046135Y011707D01*
X046135Y011937D01*
X046288Y011860D02*
X046365Y011937D01*
X046519Y011937D01*
X046595Y011860D01*
X046595Y011783D01*
X046288Y011783D01*
X046288Y011707D02*
X046288Y011860D01*
X046288Y011707D02*
X046365Y011630D01*
X046519Y011630D01*
X046749Y011630D02*
X046749Y011937D01*
X046902Y011937D02*
X046979Y011937D01*
X046902Y011937D02*
X046749Y011783D01*
X047593Y011860D02*
X047669Y011937D01*
X047900Y011937D01*
X048053Y011937D02*
X048130Y011937D01*
X048130Y011630D01*
X048206Y011630D02*
X048053Y011630D01*
X047900Y011707D02*
X047823Y011783D01*
X047669Y011783D01*
X047593Y011860D01*
X047593Y011630D02*
X047823Y011630D01*
X047900Y011707D01*
X048360Y011707D02*
X048360Y011860D01*
X048437Y011937D01*
X048667Y011937D01*
X048667Y012090D02*
X048667Y011630D01*
X048437Y011630D01*
X048360Y011707D01*
X048820Y011707D02*
X048820Y011860D01*
X048897Y011937D01*
X049050Y011937D01*
X049127Y011860D01*
X049127Y011783D01*
X048820Y011783D01*
X048820Y011707D02*
X048897Y011630D01*
X049050Y011630D01*
X049741Y011783D02*
X049894Y011630D01*
X050048Y011783D01*
X050048Y012090D01*
X050201Y011937D02*
X050355Y012090D01*
X050355Y011630D01*
X050508Y011630D02*
X050201Y011630D01*
X050662Y011630D02*
X050738Y011630D01*
X050738Y011707D01*
X050662Y011707D01*
X050662Y011630D01*
X050892Y011707D02*
X051199Y012013D01*
X051199Y011707D01*
X051122Y011630D01*
X050969Y011630D01*
X050892Y011707D01*
X050892Y012013D01*
X050969Y012090D01*
X051122Y012090D01*
X051199Y012013D01*
X049741Y012090D02*
X049741Y011783D01*
X045828Y011707D02*
X045828Y011937D01*
X048130Y012090D02*
X048130Y012167D01*
X041301Y011707D02*
X041224Y011783D01*
X041071Y011783D01*
X040994Y011860D01*
X040994Y011630D02*
X041224Y011630D01*
X041301Y011707D01*
X031864Y012090D02*
X031864Y012167D01*
X004658Y006860D02*
X004658Y006707D01*
X004581Y006630D01*
X004351Y006630D01*
X004351Y006476D02*
X004351Y006937D01*
X004581Y006937D01*
X004658Y006860D01*
X004197Y006860D02*
X004197Y006630D01*
X004044Y006630D02*
X004044Y006860D01*
X004121Y006937D01*
X004197Y006860D01*
X004044Y006860D02*
X003967Y006937D01*
X003890Y006937D01*
X003890Y006630D01*
X003737Y006783D02*
X003430Y006783D01*
X003430Y006707D02*
X003430Y006860D01*
X003507Y006937D01*
X003660Y006937D01*
X003737Y006860D01*
X003737Y006783D01*
X003660Y006630D02*
X003507Y006630D01*
X003430Y006707D01*
X003277Y006630D02*
X003200Y006707D01*
X003200Y007013D01*
X003175Y006937D02*
X003252Y006937D01*
X003277Y006937D02*
X003123Y006937D01*
X003175Y006937D02*
X003022Y006783D01*
X003022Y006630D02*
X003022Y006937D01*
X002868Y006860D02*
X002868Y006783D01*
X002561Y006783D01*
X002561Y006707D02*
X002561Y006860D01*
X002638Y006937D01*
X002791Y006937D01*
X002868Y006860D01*
X002791Y006630D02*
X002638Y006630D01*
X002561Y006707D01*
X002408Y006630D02*
X002331Y006707D01*
X002331Y007013D01*
X002254Y006937D02*
X002408Y006937D01*
X002101Y006860D02*
X002101Y006630D01*
X001871Y006630D01*
X001794Y006707D01*
X001871Y006783D01*
X002101Y006783D01*
X002101Y006860D02*
X002024Y006937D01*
X001871Y006937D01*
X001640Y006860D02*
X001640Y006783D01*
X001334Y006783D01*
X001334Y006707D02*
X001334Y006860D01*
X001410Y006937D01*
X001564Y006937D01*
X001640Y006860D01*
X001564Y006630D02*
X001410Y006630D01*
X001334Y006707D01*
X001180Y006630D02*
X001180Y006860D01*
X001103Y006937D01*
X000950Y006937D01*
X000873Y006860D01*
X000873Y007090D02*
X000873Y006630D01*
X002123Y009130D02*
X002123Y009437D01*
X002277Y009590D01*
X002430Y009437D01*
X002430Y009130D01*
X002584Y009207D02*
X002890Y009513D01*
X002814Y009590D01*
X002660Y009590D01*
X002584Y009513D01*
X002584Y009207D01*
X002660Y009130D01*
X002814Y009130D01*
X002890Y009207D01*
X002890Y009513D01*
X003623Y009590D02*
X003853Y009590D01*
X003930Y009513D01*
X003930Y009207D01*
X003853Y009130D01*
X003623Y009130D01*
X003623Y009590D01*
X004084Y009513D02*
X004160Y009590D01*
X004314Y009590D01*
X004390Y009513D01*
X004390Y009437D01*
X004084Y009130D01*
X004390Y009130D01*
X002430Y009360D02*
X002123Y009360D01*
D14*
X002628Y011285D02*
X002928Y011285D01*
X003089Y011285D02*
X003389Y011285D01*
X003549Y011285D02*
X003774Y011285D01*
X003849Y011360D01*
X003849Y011660D01*
X003774Y011735D01*
X003549Y011735D01*
X003549Y011285D01*
X004009Y011285D02*
X004310Y011285D01*
X004159Y011285D02*
X004159Y011735D01*
X004009Y011585D01*
X003389Y011735D02*
X003089Y011735D01*
X003089Y011285D01*
X002628Y011285D02*
X002628Y011735D01*
X003089Y011510D02*
X003239Y011510D01*
X005378Y011435D02*
X005378Y011885D01*
X005603Y011885D01*
X005678Y011810D01*
X005678Y011660D01*
X005603Y011585D01*
X005378Y011585D01*
X005528Y011585D02*
X005678Y011435D01*
X005839Y011510D02*
X005914Y011435D01*
X006064Y011435D01*
X006139Y011510D01*
X006139Y011660D01*
X006064Y011735D01*
X005989Y011735D01*
X005839Y011660D01*
X005839Y011885D01*
X006139Y011885D01*
X010428Y009375D02*
X010428Y009074D01*
X010428Y009225D02*
X009978Y009225D01*
X010128Y009074D01*
X010053Y008914D02*
X009978Y008839D01*
X009978Y008689D01*
X010053Y008614D01*
X010353Y008614D01*
X010428Y008689D01*
X010428Y008839D01*
X010353Y008914D01*
X017228Y008899D02*
X017303Y008824D01*
X017228Y008899D02*
X017228Y009050D01*
X017303Y009125D01*
X017378Y009125D01*
X017453Y009050D01*
X017528Y009125D01*
X017603Y009125D01*
X017678Y009050D01*
X017678Y008899D01*
X017603Y008824D01*
X017603Y008664D02*
X017678Y008589D01*
X017678Y008439D01*
X017603Y008364D01*
X017303Y008364D01*
X017228Y008439D01*
X017228Y008589D01*
X017303Y008664D01*
X017453Y008975D02*
X017453Y009050D01*
X024228Y009050D02*
X024453Y008824D01*
X024453Y009125D01*
X024678Y009050D02*
X024228Y009050D01*
X024303Y008664D02*
X024228Y008589D01*
X024228Y008439D01*
X024303Y008364D01*
X024603Y008364D01*
X024678Y008439D01*
X024678Y008589D01*
X024603Y008664D01*
X031228Y008589D02*
X031228Y008439D01*
X031303Y008364D01*
X031603Y008364D01*
X031678Y008439D01*
X031678Y008589D01*
X031603Y008664D01*
X031603Y008824D02*
X031678Y008824D01*
X031603Y008824D02*
X031303Y009125D01*
X031228Y009125D01*
X031228Y008824D01*
X031303Y008664D02*
X031228Y008589D01*
X036628Y007710D02*
X036628Y007560D01*
X036703Y007485D01*
X036853Y007635D02*
X036853Y007710D01*
X036928Y007785D01*
X037003Y007785D01*
X037078Y007710D01*
X037078Y007560D01*
X037003Y007485D01*
X036853Y007710D02*
X036778Y007785D01*
X036703Y007785D01*
X036628Y007710D01*
X036703Y005785D02*
X036628Y005710D01*
X036628Y005560D01*
X036703Y005485D01*
X036778Y005785D02*
X037078Y005485D01*
X037078Y005785D01*
X036778Y005785D02*
X036703Y005785D01*
X037078Y003885D02*
X037078Y003585D01*
X037078Y003735D02*
X036628Y003735D01*
X036778Y003585D01*
X029548Y004359D02*
X029548Y004434D01*
X029473Y004509D01*
X029098Y004509D01*
X029098Y004434D02*
X029098Y004584D01*
X029098Y004744D02*
X029098Y004969D01*
X029173Y005044D01*
X029323Y005044D01*
X029398Y004969D01*
X029398Y004744D01*
X029548Y004744D02*
X029098Y004744D01*
X029548Y004359D02*
X029473Y004284D01*
X029548Y005204D02*
X029248Y005505D01*
X029173Y005505D01*
X029098Y005430D01*
X029098Y005279D01*
X029173Y005204D01*
X029548Y005204D02*
X029548Y005505D01*
X007639Y005510D02*
X007639Y005210D01*
X007564Y005135D01*
X007414Y005135D01*
X007339Y005210D01*
X007178Y005210D02*
X007103Y005135D01*
X006953Y005135D01*
X006878Y005210D01*
X006878Y005510D01*
X006953Y005585D01*
X007103Y005585D01*
X007178Y005510D01*
X007339Y005510D02*
X007339Y005435D01*
X007414Y005360D01*
X007639Y005360D01*
X007639Y005510D02*
X007564Y005585D01*
X007414Y005585D01*
X007339Y005510D01*
X003878Y004150D02*
X003803Y004225D01*
X003728Y004225D01*
X003653Y004150D01*
X003653Y003924D01*
X003803Y003924D01*
X003878Y003999D01*
X003878Y004150D01*
X003653Y003924D02*
X003503Y004075D01*
X003428Y004225D01*
X003503Y003764D02*
X003653Y003764D01*
X003728Y003689D01*
X003728Y003464D01*
X003728Y003614D02*
X003878Y003764D01*
X003503Y003764D02*
X003428Y003689D01*
X003428Y003464D01*
X003878Y003464D01*
X004528Y003520D02*
X004528Y003670D01*
X004603Y003745D01*
X004678Y003745D01*
X004978Y003445D01*
X004978Y003745D01*
X004603Y003445D02*
X004528Y003520D01*
X004603Y003285D02*
X004528Y003210D01*
X004528Y003060D01*
X004603Y002985D01*
X004903Y002985D01*
X004978Y003060D01*
X004978Y003210D01*
X004903Y003285D01*
D15*
X004153Y010360D02*
X004151Y010414D01*
X004146Y010468D01*
X004137Y010521D01*
X004124Y010574D01*
X004108Y010625D01*
X004088Y010675D01*
X004065Y010724D01*
X004039Y010772D01*
X004010Y010817D01*
X003977Y010860D01*
X003942Y010901D01*
X003904Y010940D01*
X003864Y010976D01*
X003821Y011009D01*
X003776Y011039D01*
X003729Y011066D01*
X002956Y011055D02*
X002908Y011025D01*
X002863Y010992D01*
X002820Y010956D01*
X002779Y010918D01*
X002742Y010876D01*
X002707Y010832D01*
X002676Y010786D01*
X002647Y010737D01*
X002623Y010687D01*
X002602Y010635D01*
X002584Y010581D01*
X002571Y010527D01*
X002561Y010472D01*
X002555Y010416D01*
X002553Y010360D01*
X002555Y010307D01*
X002560Y010253D01*
X002569Y010201D01*
X002581Y010149D01*
X002597Y010098D01*
X002616Y010048D01*
X002639Y009999D01*
X002665Y009952D01*
X002693Y009907D01*
X002725Y009864D01*
X002759Y009824D01*
X002797Y009785D01*
X002836Y009749D01*
X003865Y009745D02*
X003905Y009781D01*
X003943Y009820D01*
X003978Y009861D01*
X004010Y009904D01*
X004040Y009949D01*
X004066Y009996D01*
X004088Y010045D01*
X004108Y010096D01*
X004124Y010147D01*
X004137Y010199D01*
X004146Y010253D01*
X004151Y010306D01*
X004153Y010360D01*
D16*
X008853Y005160D03*
D17*
X006813Y006090D03*
X015393Y004680D03*
D18*
X005503Y007860D03*
D19*
X005753Y009585D03*
X005753Y006135D03*
D20*
X005753Y007360D03*
X005753Y008360D03*
D21*
X016603Y004585D03*
X016603Y001135D03*
D22*
X016703Y001860D03*
X016703Y002860D03*
X016703Y003860D03*
D23*
X016603Y003360D03*
X016603Y002360D03*
M02*
