G75*
G70*
%OFA0B0*%
%FSLAX24Y24*%
%IPPOS*%
%LPD*%
%AMOC8*
5,1,8,0,0,1.08239X$1,22.5*
%
%ADD10OC8,0.0630*%
%ADD11C,0.0630*%
%ADD12C,0.0600*%
%ADD13OC8,0.0520*%
%ADD14C,0.0750*%
%ADD15OC8,0.0750*%
%ADD16C,0.0825*%
%ADD17C,0.0500*%
%ADD18C,0.0320*%
D10*
X010909Y008160D03*
X017909Y008160D03*
X024909Y008160D03*
X031909Y008160D03*
X035409Y004060D03*
D11*
X035409Y002660D03*
X031909Y009560D03*
X024909Y009560D03*
X017909Y009560D03*
X010909Y009560D03*
D12*
X013609Y008860D02*
X014209Y008860D01*
X014209Y007860D02*
X013609Y007860D01*
X013609Y006860D02*
X014209Y006860D01*
X015609Y006860D02*
X016209Y006860D01*
X016209Y005860D02*
X015609Y005860D01*
X014209Y005860D02*
X013609Y005860D01*
X011209Y006110D02*
X010609Y006110D01*
X009209Y005860D02*
X008609Y005860D01*
X007209Y005860D02*
X006609Y005860D01*
X006609Y006860D02*
X007209Y006860D01*
X008609Y006860D02*
X009209Y006860D01*
X007209Y007860D02*
X006609Y007860D01*
X006609Y008860D02*
X007209Y008860D01*
X010609Y005110D02*
X011209Y005110D01*
X009209Y004860D02*
X008609Y004860D01*
X007209Y004860D02*
X006609Y004860D01*
X006609Y003860D02*
X007209Y003860D01*
X008609Y003860D02*
X009209Y003860D01*
X007209Y002860D02*
X006609Y002860D01*
X006609Y001860D02*
X007209Y001860D01*
X013609Y001860D02*
X014209Y001860D01*
X014209Y002860D02*
X013609Y002860D01*
X013609Y003860D02*
X014209Y003860D01*
X015609Y003860D02*
X016209Y003860D01*
X016209Y004860D02*
X015609Y004860D01*
X014209Y004860D02*
X013609Y004860D01*
X020609Y004860D02*
X021209Y004860D01*
X022609Y004860D02*
X023209Y004860D01*
X023209Y003860D02*
X022609Y003860D01*
X021209Y003860D02*
X020609Y003860D01*
X020609Y002860D02*
X021209Y002860D01*
X021209Y001860D02*
X020609Y001860D01*
X025109Y001860D02*
X025709Y001860D01*
X027609Y001860D02*
X028209Y001860D01*
X028209Y002860D02*
X027609Y002860D01*
X025709Y002860D02*
X025109Y002860D01*
X025109Y003860D02*
X025709Y003860D01*
X027609Y003860D02*
X028209Y003860D01*
X029609Y003860D02*
X030209Y003860D01*
X030209Y004860D02*
X029609Y004860D01*
X028209Y004860D02*
X027609Y004860D01*
X027609Y005860D02*
X028209Y005860D01*
X029609Y005860D02*
X030209Y005860D01*
X030209Y006860D02*
X029609Y006860D01*
X028209Y006860D02*
X027609Y006860D01*
X027609Y007860D02*
X028209Y007860D01*
X028209Y008860D02*
X027609Y008860D01*
X021209Y008860D02*
X020609Y008860D01*
X020609Y007860D02*
X021209Y007860D01*
X021209Y006860D02*
X020609Y006860D01*
X022609Y006860D02*
X023209Y006860D01*
X023209Y005860D02*
X022609Y005860D01*
X021209Y005860D02*
X020609Y005860D01*
X034609Y006860D02*
X035209Y006860D01*
X036909Y006160D02*
X036909Y005560D01*
X037909Y005560D02*
X037909Y006160D01*
X038909Y006160D02*
X038909Y005560D01*
X039909Y005560D02*
X039909Y006160D01*
X035209Y007860D02*
X034609Y007860D01*
X037409Y008060D02*
X037409Y008660D01*
X038409Y008660D02*
X038409Y008060D01*
X035209Y008860D02*
X034609Y008860D01*
D13*
X037909Y009860D03*
X037909Y010860D03*
X036409Y010860D03*
X033409Y010860D03*
X038409Y004860D03*
X038409Y001860D03*
D14*
X032409Y006360D03*
D15*
X032409Y004360D03*
D16*
X004822Y004360D02*
X003997Y004360D01*
X003997Y006360D02*
X004822Y006360D01*
X004822Y008360D02*
X003997Y008360D01*
D17*
X002189Y001260D02*
X006359Y001260D01*
X006241Y001309D01*
X006058Y001492D01*
X005959Y001731D01*
X005959Y001860D01*
X005959Y001989D01*
X006051Y002210D01*
X005530Y002210D01*
X005291Y002309D01*
X005108Y002492D01*
X005009Y002731D01*
X005009Y002989D01*
X005009Y003612D01*
X004973Y003597D01*
X004409Y003597D01*
X003845Y003597D01*
X003565Y003713D01*
X003350Y003928D01*
X003234Y004208D01*
X003234Y004360D01*
X003234Y004511D01*
X003350Y004792D01*
X003565Y005006D01*
X003845Y005122D01*
X004409Y005122D01*
X004409Y004360D01*
X002909Y004360D01*
X002909Y007360D01*
X005659Y007360D01*
X006159Y007860D01*
X006909Y007860D01*
X010909Y008160D01*
X013909Y007860D01*
X017909Y008160D01*
X020909Y007860D01*
X024909Y008160D01*
X027909Y007860D01*
X030644Y008065D01*
X031409Y007300D01*
X031409Y004360D01*
X032409Y004360D01*
X035109Y004360D01*
X035409Y004060D01*
X035409Y004360D01*
X036909Y005860D01*
X036909Y005859D02*
X036909Y004910D01*
X036780Y004910D01*
X036541Y005009D01*
X036358Y005192D01*
X036300Y005332D01*
X036277Y005309D01*
X036038Y005210D01*
X035780Y005210D01*
X033280Y005210D01*
X033041Y005309D01*
X032858Y005492D01*
X032775Y005575D01*
X032581Y005495D01*
X032237Y005495D01*
X031919Y005627D01*
X031676Y005870D01*
X031544Y006188D01*
X031544Y006532D01*
X031676Y006850D01*
X031919Y007093D01*
X032237Y007225D01*
X032581Y007225D01*
X032899Y007093D01*
X032982Y007010D01*
X033038Y007010D01*
X033277Y006911D01*
X033678Y006510D01*
X033899Y006510D01*
X033819Y006703D01*
X033819Y007017D01*
X033939Y007307D01*
X033992Y007360D01*
X033939Y007412D01*
X033819Y007703D01*
X033819Y008017D01*
X033939Y008307D01*
X034091Y008459D01*
X034058Y008492D01*
X033959Y008731D01*
X033959Y008860D01*
X033959Y008989D01*
X034058Y009228D01*
X034241Y009411D01*
X034480Y009510D01*
X034909Y009510D01*
X034909Y008860D01*
X033409Y008860D01*
X032709Y008160D01*
X031909Y008160D01*
X030644Y008065D01*
X031244Y008160D02*
X031909Y008160D01*
X031244Y008160D01*
X031244Y008435D01*
X031556Y008747D01*
X028735Y008253D01*
X028760Y008228D01*
X028859Y007989D01*
X028859Y007860D01*
X027910Y007860D01*
X027910Y007860D01*
X028859Y007860D01*
X028859Y007731D01*
X028805Y007600D01*
X029331Y007600D01*
X029452Y007650D01*
X030366Y007650D01*
X030657Y007530D01*
X030879Y007307D01*
X030999Y007017D01*
X030999Y006703D01*
X030879Y006412D01*
X030826Y006360D01*
X030879Y006307D01*
X030999Y006017D01*
X030999Y005703D01*
X030879Y005412D01*
X030826Y005360D01*
X030879Y005307D01*
X030999Y005017D01*
X030999Y004703D01*
X030879Y004412D01*
X030826Y004360D01*
X030879Y004307D01*
X030999Y004017D01*
X030999Y003703D01*
X030919Y003510D01*
X035019Y003510D01*
X034744Y003784D01*
X034744Y004060D01*
X034744Y004335D01*
X035134Y004725D01*
X035409Y004725D01*
X035409Y004060D01*
X035409Y004060D01*
X034744Y004060D01*
X035409Y004060D01*
X035409Y004060D01*
X035409Y004725D01*
X035685Y004725D01*
X036074Y004335D01*
X036074Y004060D01*
X035410Y004060D01*
X035410Y004060D01*
X036074Y004060D01*
X036074Y003784D01*
X035700Y003411D01*
X035865Y003342D01*
X036092Y003116D01*
X036214Y002820D01*
X036214Y002510D01*
X037999Y002510D01*
X038099Y002610D01*
X038720Y002610D01*
X039159Y002170D01*
X039159Y001549D01*
X039120Y001510D01*
X039259Y001510D01*
X039259Y004850D01*
X039159Y004808D01*
X039159Y004549D01*
X038720Y004110D01*
X038099Y004110D01*
X037999Y004210D01*
X037780Y004210D01*
X037541Y004309D01*
X037358Y004492D01*
X037259Y004731D01*
X037259Y005001D01*
X037038Y004910D01*
X036909Y004910D01*
X036909Y005859D01*
X036909Y005859D01*
X036909Y005828D02*
X036909Y005828D01*
X036909Y005329D02*
X036909Y005329D01*
X036301Y005329D02*
X036298Y005329D01*
X037259Y004831D02*
X032964Y004831D01*
X033134Y004660D02*
X033134Y004360D01*
X032410Y004360D01*
X032410Y004360D01*
X033134Y004360D01*
X033134Y004060D01*
X032709Y003635D01*
X032409Y003635D01*
X032109Y003635D01*
X031684Y004060D01*
X031684Y004360D01*
X031684Y004660D01*
X032109Y005085D01*
X032409Y005085D01*
X032409Y004360D01*
X032409Y004360D01*
X031684Y004360D01*
X032409Y004360D01*
X032409Y004360D01*
X032409Y005085D01*
X032709Y005085D01*
X033134Y004660D01*
X032409Y004831D02*
X032409Y004831D01*
X031855Y004831D02*
X030999Y004831D01*
X029909Y004860D02*
X027909Y004860D01*
X026992Y004360D02*
X026939Y004412D01*
X026819Y004703D01*
X026819Y005017D01*
X026939Y005307D01*
X026992Y005360D01*
X026939Y005412D01*
X026819Y005703D01*
X026819Y006017D01*
X026939Y006307D01*
X026992Y006360D01*
X026939Y006412D01*
X026819Y006703D01*
X026819Y007017D01*
X026939Y007307D01*
X027091Y007459D01*
X027058Y007492D01*
X026959Y007731D01*
X026959Y007860D01*
X026959Y007989D01*
X027058Y008228D01*
X027091Y008261D01*
X027052Y008300D01*
X025301Y008709D01*
X025574Y008435D01*
X025574Y008160D01*
X024910Y008160D01*
X024910Y008160D01*
X025574Y008160D01*
X025574Y007884D01*
X025185Y007495D01*
X024909Y007495D01*
X024634Y007495D01*
X024244Y007884D01*
X024244Y008160D01*
X024244Y008435D01*
X024556Y008747D01*
X021735Y008253D01*
X021760Y008228D01*
X021859Y007989D01*
X021859Y007860D01*
X020910Y007860D01*
X020910Y007860D01*
X021859Y007860D01*
X021859Y007731D01*
X021805Y007600D01*
X022331Y007600D01*
X022452Y007650D01*
X023366Y007650D01*
X023657Y007530D01*
X023879Y007307D01*
X023999Y007017D01*
X023999Y006703D01*
X023879Y006412D01*
X023826Y006360D01*
X023879Y006307D01*
X023999Y006017D01*
X023999Y005703D01*
X023879Y005412D01*
X023826Y005360D01*
X023879Y005307D01*
X023999Y005017D01*
X023999Y004703D01*
X023879Y004412D01*
X023826Y004360D01*
X023879Y004307D01*
X023896Y004266D01*
X024041Y004411D01*
X024280Y004510D01*
X024642Y004510D01*
X024662Y004530D01*
X024952Y004650D01*
X025866Y004650D01*
X026157Y004530D01*
X026176Y004510D01*
X026280Y004510D01*
X026538Y004510D01*
X026777Y004411D01*
X026922Y004266D01*
X026939Y004307D01*
X026992Y004360D01*
X026964Y004332D02*
X026856Y004332D01*
X027909Y003860D02*
X029909Y003860D01*
X030854Y004332D02*
X031684Y004332D01*
X032409Y004332D02*
X032409Y004332D01*
X032409Y004359D02*
X032409Y003635D01*
X032409Y004359D01*
X032409Y004359D01*
X033134Y004332D02*
X034744Y004332D01*
X035409Y004332D02*
X035409Y004332D01*
X036074Y004332D02*
X037518Y004332D01*
X036074Y003834D02*
X039259Y003834D01*
X039259Y004332D02*
X038942Y004332D01*
X039213Y004831D02*
X039259Y004831D01*
X038909Y005860D02*
X038909Y007110D01*
X039159Y007360D01*
X039159Y009860D01*
X037909Y009860D01*
X036159Y009860D01*
X036159Y008610D01*
X035409Y007860D01*
X034909Y007860D01*
X033953Y008321D02*
X032574Y008321D01*
X032574Y008435D02*
X032574Y008160D01*
X031910Y008160D01*
X031910Y008160D01*
X032574Y008160D01*
X032574Y007884D01*
X032185Y007495D01*
X031909Y007495D01*
X031634Y007495D01*
X031244Y007884D01*
X031244Y008160D01*
X031244Y008321D02*
X029120Y008321D01*
X028859Y007822D02*
X031307Y007822D01*
X031909Y007822D02*
X031909Y007822D01*
X032512Y007822D02*
X033819Y007822D01*
X033956Y007323D02*
X030863Y007323D01*
X031909Y007495D02*
X031909Y008159D01*
X031909Y008159D01*
X031909Y007495D01*
X031909Y008160D02*
X031909Y008160D01*
X032200Y008809D02*
X032574Y008435D01*
X032365Y008877D02*
X032200Y008809D01*
X032224Y008819D02*
X033959Y008819D01*
X033959Y008860D02*
X034909Y008860D01*
X034909Y008860D01*
X033959Y008860D01*
X034909Y008860D02*
X034909Y008860D01*
X034909Y009510D01*
X035338Y009510D01*
X035419Y009476D01*
X035419Y009713D01*
X035419Y010007D01*
X035532Y010279D01*
X035731Y010478D01*
X035659Y010549D01*
X035659Y011170D01*
X035859Y011370D01*
X035649Y011370D01*
X035649Y010713D01*
X035536Y010441D01*
X035328Y010232D01*
X035056Y010120D01*
X034762Y010120D01*
X033730Y010120D01*
X033720Y010110D01*
X033674Y010110D01*
X032636Y009210D01*
X032592Y009104D01*
X032365Y008877D01*
X032760Y009318D02*
X034148Y009318D01*
X034909Y009318D02*
X034909Y009318D01*
X035419Y009816D02*
X033335Y009816D01*
X033409Y010860D02*
X031909Y009560D01*
X027909Y008860D01*
X024909Y009560D01*
X020909Y008860D01*
X017909Y009560D01*
X013909Y008860D01*
X010909Y009560D01*
X006909Y008860D01*
X004409Y008360D01*
X003232Y008871D02*
X003094Y008539D01*
X003094Y008180D01*
X003232Y007849D01*
X003485Y007595D01*
X003817Y007457D01*
X005001Y007457D01*
X005333Y007595D01*
X005577Y007839D01*
X005959Y007915D01*
X005959Y007860D01*
X006909Y007860D01*
X006909Y007860D01*
X005959Y007860D01*
X005959Y007731D01*
X006058Y007492D01*
X006091Y007459D01*
X005939Y007307D01*
X005819Y007017D01*
X005819Y006997D01*
X005788Y007010D01*
X005530Y007010D01*
X005448Y007010D01*
X005333Y007125D01*
X005001Y007262D01*
X003817Y007262D01*
X003485Y007125D01*
X003232Y006871D01*
X003094Y006539D01*
X003094Y006180D01*
X003232Y005849D01*
X003485Y005595D01*
X003817Y005457D01*
X005001Y005457D01*
X005009Y005461D01*
X005009Y005107D01*
X004973Y005122D01*
X004409Y005122D01*
X004409Y004360D01*
X004409Y001860D01*
X006909Y001860D01*
X013909Y001860D01*
X020909Y001860D01*
X023659Y001860D01*
X024659Y002860D01*
X025409Y002860D01*
X026159Y002860D01*
X027159Y001860D01*
X027909Y001860D01*
X026959Y001860D01*
X026959Y001989D01*
X027058Y002228D01*
X027091Y002261D01*
X027044Y002307D01*
X027041Y002309D01*
X026858Y002492D01*
X026358Y002992D01*
X026359Y002989D01*
X026359Y002860D01*
X025410Y002860D01*
X025410Y002860D01*
X026359Y002860D01*
X026359Y002731D01*
X026260Y002492D01*
X026227Y002459D01*
X026379Y002307D01*
X026499Y002017D01*
X026499Y001703D01*
X026419Y001510D01*
X027051Y001510D01*
X026959Y001731D01*
X026959Y001860D01*
X027909Y001860D01*
X027909Y001860D01*
X027910Y001860D02*
X027910Y001860D01*
X028859Y001860D01*
X028859Y001989D01*
X028768Y002210D01*
X034724Y002210D01*
X034727Y002204D01*
X034759Y002171D01*
X034759Y001989D01*
X034759Y001731D01*
X034851Y001510D01*
X028768Y001510D01*
X028859Y001731D01*
X028859Y001860D01*
X027910Y001860D01*
X028859Y001839D02*
X034759Y001839D01*
X036207Y002837D02*
X039259Y002837D01*
X039259Y003335D02*
X035872Y003335D01*
X034744Y003834D02*
X032908Y003834D01*
X032409Y003834D02*
X032409Y003834D01*
X031910Y003834D02*
X030999Y003834D01*
X030857Y005329D02*
X033020Y005329D01*
X031718Y005828D02*
X030999Y005828D01*
X030860Y006326D02*
X031544Y006326D01*
X031666Y006825D02*
X030999Y006825D01*
X029909Y006860D02*
X027909Y006860D01*
X026819Y006825D02*
X023999Y006825D01*
X022909Y006860D02*
X020909Y006860D01*
X019939Y007307D02*
X019819Y007017D01*
X019819Y006703D01*
X019939Y006412D01*
X019992Y006360D01*
X019939Y006307D01*
X019819Y006017D01*
X019819Y005703D01*
X019939Y005412D01*
X019992Y005360D01*
X019939Y005307D01*
X019819Y005017D01*
X019819Y004703D01*
X019939Y004412D01*
X019992Y004360D01*
X019939Y004307D01*
X019819Y004017D01*
X019819Y003703D01*
X019899Y003510D01*
X016919Y003510D01*
X016999Y003703D01*
X016999Y004017D01*
X016879Y004307D01*
X016826Y004360D01*
X016879Y004412D01*
X016999Y004703D01*
X016999Y005017D01*
X016879Y005307D01*
X016826Y005360D01*
X016879Y005412D01*
X016999Y005703D01*
X016999Y006017D01*
X016879Y006307D01*
X016826Y006360D01*
X016879Y006412D01*
X016999Y006703D01*
X016999Y007017D01*
X016879Y007307D01*
X016657Y007530D01*
X016366Y007650D01*
X015452Y007650D01*
X015331Y007600D01*
X014805Y007600D01*
X014859Y007731D01*
X014859Y007860D01*
X013910Y007860D01*
X013910Y007860D01*
X014859Y007860D01*
X014859Y007989D01*
X014760Y008228D01*
X014735Y008253D01*
X017556Y008747D01*
X017244Y008435D01*
X017244Y008160D01*
X017909Y008160D01*
X017909Y008160D01*
X017244Y008160D01*
X017244Y007884D01*
X017634Y007495D01*
X017909Y007495D01*
X017909Y008159D01*
X017909Y008159D01*
X017909Y007495D01*
X018185Y007495D01*
X018574Y007884D01*
X018574Y008160D01*
X017910Y008160D01*
X017910Y008160D01*
X018574Y008160D01*
X018574Y008435D01*
X018301Y008709D01*
X020052Y008300D01*
X020091Y008261D01*
X020058Y008228D01*
X019959Y007989D01*
X019959Y007860D01*
X020909Y007860D01*
X020909Y007860D01*
X019959Y007860D01*
X019959Y007731D01*
X020058Y007492D01*
X020091Y007459D01*
X019939Y007307D01*
X019956Y007323D02*
X016863Y007323D01*
X016999Y006825D02*
X019819Y006825D01*
X019958Y006326D02*
X016860Y006326D01*
X016999Y005828D02*
X019819Y005828D01*
X020909Y005860D02*
X022909Y005860D01*
X023860Y006326D02*
X026958Y006326D01*
X026819Y005828D02*
X023999Y005828D01*
X023857Y005329D02*
X026961Y005329D01*
X026819Y004831D02*
X023999Y004831D01*
X022909Y004860D02*
X020909Y004860D01*
X019819Y004831D02*
X016999Y004831D01*
X015909Y004860D02*
X013909Y004860D01*
X012939Y005307D02*
X012819Y005017D01*
X012819Y004703D01*
X012939Y004412D01*
X012992Y004360D01*
X012939Y004307D01*
X012819Y004017D01*
X012819Y003703D01*
X012899Y003510D01*
X011559Y003510D01*
X011559Y004400D01*
X011657Y004440D01*
X011879Y004662D01*
X011999Y004953D01*
X011999Y005267D01*
X011879Y005557D01*
X011727Y005709D01*
X011760Y005742D01*
X011859Y005981D01*
X011859Y006110D01*
X010910Y006110D01*
X010910Y006110D01*
X011859Y006110D01*
X011859Y006239D01*
X011760Y006478D01*
X011577Y006661D01*
X011338Y006760D01*
X010909Y006760D01*
X010909Y006110D01*
X010909Y006110D01*
X010909Y006760D01*
X010480Y006760D01*
X010241Y006661D01*
X010058Y006478D01*
X009959Y006239D01*
X009959Y006113D01*
X009879Y006307D01*
X009826Y006360D01*
X009879Y006412D01*
X009999Y006703D01*
X009999Y007017D01*
X009879Y007307D01*
X009657Y007530D01*
X009366Y007650D01*
X008452Y007650D01*
X008331Y007600D01*
X007805Y007600D01*
X007859Y007731D01*
X007859Y007860D01*
X006910Y007860D01*
X006910Y007860D01*
X007859Y007860D01*
X007859Y007989D01*
X007760Y008228D01*
X007735Y008253D01*
X010556Y008747D01*
X010244Y008435D01*
X010244Y008160D01*
X010909Y008160D01*
X010909Y008160D01*
X010244Y008160D01*
X010244Y007884D01*
X010634Y007495D01*
X010909Y007495D01*
X010909Y008159D01*
X010909Y008159D01*
X010909Y007495D01*
X011185Y007495D01*
X011574Y007884D01*
X011574Y008160D01*
X010910Y008160D01*
X010910Y008160D01*
X011574Y008160D01*
X011574Y008435D01*
X011301Y008709D01*
X013052Y008300D01*
X013091Y008261D01*
X013058Y008228D01*
X012959Y007989D01*
X012959Y007860D01*
X013909Y007860D01*
X013909Y007860D01*
X012959Y007860D01*
X012959Y007731D01*
X013058Y007492D01*
X013091Y007459D01*
X012939Y007307D01*
X012819Y007017D01*
X012819Y006703D01*
X012939Y006412D01*
X012992Y006360D01*
X012939Y006307D01*
X012819Y006017D01*
X012819Y005703D01*
X012939Y005412D01*
X012992Y005360D01*
X012939Y005307D01*
X012961Y005329D02*
X011973Y005329D01*
X011949Y004831D02*
X012819Y004831D01*
X012964Y004332D02*
X011559Y004332D01*
X011559Y003834D02*
X012819Y003834D01*
X013909Y003860D02*
X015909Y003860D01*
X016854Y004332D02*
X019964Y004332D01*
X019819Y003834D02*
X016999Y003834D01*
X020909Y003860D02*
X022909Y003860D01*
X023854Y004332D02*
X023962Y004332D01*
X024460Y002992D02*
X023777Y002309D01*
X023538Y002210D01*
X023280Y002210D01*
X021768Y002210D01*
X021859Y001989D01*
X021859Y001860D01*
X020910Y001860D01*
X020910Y001860D01*
X021859Y001860D01*
X021859Y001731D01*
X021760Y001492D01*
X021577Y001309D01*
X021459Y001260D01*
X024592Y001260D01*
X024439Y001412D01*
X024319Y001703D01*
X024319Y002017D01*
X024439Y002307D01*
X024591Y002459D01*
X024558Y002492D01*
X024459Y002731D01*
X024459Y002860D01*
X024459Y002989D01*
X024460Y002992D01*
X024459Y002860D02*
X025409Y002860D01*
X025409Y002860D01*
X024459Y002860D01*
X024459Y002837D02*
X024305Y002837D01*
X024470Y002338D02*
X023807Y002338D01*
X024319Y001839D02*
X021859Y001839D01*
X020909Y001860D02*
X019959Y001860D01*
X019959Y001989D01*
X020051Y002210D01*
X014768Y002210D01*
X014859Y001989D01*
X014859Y001860D01*
X013910Y001860D01*
X013910Y001860D01*
X014859Y001860D01*
X014859Y001731D01*
X014760Y001492D01*
X014577Y001309D01*
X014459Y001260D01*
X020359Y001260D01*
X020241Y001309D01*
X020058Y001492D01*
X019959Y001731D01*
X019959Y001860D01*
X020909Y001860D01*
X020909Y001860D01*
X019959Y001839D02*
X014859Y001839D01*
X014609Y001341D02*
X020209Y001341D01*
X021609Y001341D02*
X024511Y001341D01*
X026499Y001839D02*
X026959Y001839D01*
X027012Y002338D02*
X026348Y002338D01*
X026359Y002837D02*
X026513Y002837D01*
X019961Y005329D02*
X016857Y005329D01*
X015909Y005860D02*
X013909Y005860D01*
X012819Y005828D02*
X011796Y005828D01*
X011823Y006326D02*
X012958Y006326D01*
X012819Y006825D02*
X009999Y006825D01*
X008909Y006860D02*
X006909Y006860D01*
X005956Y007323D02*
X002189Y007323D01*
X002189Y006825D02*
X003212Y006825D01*
X003094Y006326D02*
X002189Y006326D01*
X002189Y005828D02*
X003252Y005828D01*
X002189Y005329D02*
X005009Y005329D01*
X004409Y004831D02*
X004409Y004831D01*
X003389Y004831D02*
X002189Y004831D01*
X002189Y004332D02*
X003234Y004332D01*
X003234Y004360D02*
X004409Y004360D01*
X004409Y004360D01*
X003234Y004360D01*
X003444Y003834D02*
X002189Y003834D01*
X002189Y003335D02*
X005009Y003335D01*
X004409Y003597D02*
X004409Y004359D01*
X004409Y003597D01*
X004409Y003834D02*
X004409Y003834D01*
X004409Y004332D02*
X004409Y004332D01*
X004409Y004359D02*
X004409Y004359D01*
X004409Y004360D02*
X004409Y004360D01*
X006909Y004860D02*
X008909Y004860D01*
X008909Y003860D02*
X006909Y003860D01*
X005009Y002837D02*
X002189Y002837D01*
X002189Y002338D02*
X005262Y002338D01*
X005959Y001860D02*
X006909Y001860D01*
X006909Y001860D01*
X005959Y001860D01*
X005959Y001839D02*
X002189Y001839D01*
X002189Y001341D02*
X006209Y001341D01*
X007459Y001260D02*
X013359Y001260D01*
X013241Y001309D01*
X013058Y001492D01*
X012959Y001731D01*
X012959Y001860D01*
X012959Y001989D01*
X013051Y002210D01*
X011038Y002210D01*
X010780Y002210D01*
X007768Y002210D01*
X007859Y001989D01*
X007859Y001860D01*
X006910Y001860D01*
X006910Y001860D01*
X007859Y001860D01*
X007859Y001731D01*
X007760Y001492D01*
X007577Y001309D01*
X007459Y001260D01*
X007609Y001341D02*
X013209Y001341D01*
X012959Y001839D02*
X007859Y001839D01*
X012959Y001860D02*
X013909Y001860D01*
X013909Y001860D01*
X012959Y001860D01*
X002189Y001260D02*
X002189Y011956D01*
X034169Y011956D01*
X034169Y011600D01*
X033730Y011600D01*
X033720Y011610D01*
X033099Y011610D01*
X032799Y011310D01*
X031671Y010332D01*
X031453Y010242D01*
X031440Y010229D01*
X028131Y009650D01*
X027780Y009650D01*
X025403Y010204D01*
X025365Y010242D01*
X025069Y010365D01*
X024749Y010365D01*
X024453Y010242D01*
X024440Y010229D01*
X021131Y009650D01*
X020780Y009650D01*
X018403Y010204D01*
X018365Y010242D01*
X018069Y010365D01*
X017749Y010365D01*
X017453Y010242D01*
X017440Y010229D01*
X014131Y009650D01*
X013780Y009650D01*
X011403Y010204D01*
X011365Y010242D01*
X011069Y010365D01*
X010749Y010365D01*
X010453Y010242D01*
X010440Y010229D01*
X007131Y009650D01*
X006452Y009650D01*
X006162Y009530D01*
X006081Y009449D01*
X005049Y009242D01*
X005001Y009262D01*
X003817Y009262D01*
X003485Y009125D01*
X003232Y008871D01*
X003210Y008819D02*
X002189Y008819D01*
X002189Y008321D02*
X003094Y008321D01*
X003258Y007822D02*
X002189Y007822D01*
X005560Y007822D02*
X005959Y007822D01*
X007859Y007822D02*
X010307Y007822D01*
X010909Y007822D02*
X010909Y007822D01*
X011512Y007822D02*
X012959Y007822D01*
X012964Y008321D02*
X011574Y008321D01*
X010244Y008321D02*
X008120Y008321D01*
X009863Y007323D02*
X012956Y007323D01*
X013909Y006860D02*
X015909Y006860D01*
X014859Y007822D02*
X017307Y007822D01*
X017909Y007822D02*
X017909Y007822D01*
X018512Y007822D02*
X019959Y007822D01*
X019964Y008321D02*
X018574Y008321D01*
X017244Y008321D02*
X015120Y008321D01*
X015081Y009816D02*
X013067Y009816D01*
X011190Y010315D02*
X017628Y010315D01*
X018190Y010315D02*
X024628Y010315D01*
X025190Y010315D02*
X031628Y010315D01*
X032226Y010813D02*
X002189Y010813D01*
X002189Y010315D02*
X010628Y010315D01*
X008081Y009816D02*
X002189Y009816D01*
X002189Y009318D02*
X005425Y009318D01*
X002189Y011312D02*
X032800Y011312D01*
X033409Y010860D02*
X034909Y010860D01*
X034909Y012110D01*
X040159Y012110D01*
X040159Y006110D01*
X039909Y005860D01*
X033819Y006825D02*
X033363Y006825D01*
X029909Y005860D02*
X027909Y005860D01*
X026956Y007323D02*
X023863Y007323D01*
X024909Y007495D02*
X024909Y008159D01*
X024909Y008159D01*
X024909Y007495D01*
X024909Y007822D02*
X024909Y007822D01*
X025512Y007822D02*
X026959Y007822D01*
X026959Y007860D02*
X027909Y007860D01*
X026959Y007860D01*
X027909Y007860D02*
X027909Y007860D01*
X026964Y008321D02*
X025574Y008321D01*
X024909Y008160D02*
X024244Y008160D01*
X024909Y008160D01*
X024909Y008160D01*
X024244Y008321D02*
X022120Y008321D01*
X021859Y007822D02*
X024307Y007822D01*
X022081Y009816D02*
X020067Y009816D01*
X027067Y009816D02*
X029081Y009816D01*
X034169Y011810D02*
X002189Y011810D01*
X009860Y006326D02*
X009995Y006326D01*
X010909Y006326D02*
X010909Y006326D01*
X008909Y005860D02*
X006909Y005860D01*
X035411Y010315D02*
X035567Y010315D01*
X035649Y010813D02*
X035659Y010813D01*
X035649Y011312D02*
X035800Y011312D01*
X038992Y002338D02*
X039259Y002338D01*
X039259Y001839D02*
X039159Y001839D01*
D18*
X038409Y001860D02*
X035409Y001860D01*
X035409Y002660D01*
X035209Y002860D01*
X027909Y002860D01*
X027409Y002860D01*
X026409Y003860D01*
X025409Y003860D01*
X024409Y003860D01*
X023409Y002860D01*
X020909Y002860D01*
X013909Y002860D01*
X010909Y002860D01*
X010909Y005110D01*
X010909Y006110D02*
X010909Y008160D01*
X005659Y006360D02*
X005659Y002860D01*
X006909Y002860D01*
X010909Y002860D01*
X005659Y006360D02*
X004409Y006360D01*
X025409Y001860D02*
X025409Y000860D01*
X039909Y000860D01*
X039909Y005860D01*
X037909Y005860D02*
X037909Y007110D01*
X036909Y007110D01*
X035909Y006110D01*
X035909Y005860D01*
X033409Y005860D01*
X032909Y006360D01*
X032409Y006360D01*
X034909Y006860D02*
X035909Y006860D01*
X037409Y008360D01*
X038409Y008360D02*
X038409Y007860D01*
X037909Y007360D01*
X037909Y007110D01*
X037909Y005860D02*
X037909Y004860D01*
X038409Y004860D01*
X037909Y010860D02*
X036409Y010860D01*
M02*
