G75*
G70*
%OFA0B0*%
%FSLAX24Y24*%
%IPPOS*%
%LPD*%
%AMOC8*
5,1,8,0,0,1.08239X$1,22.5*
%
%ADD10OC8,0.0630*%
%ADD11C,0.0630*%
%ADD12C,0.0600*%
%ADD13OC8,0.0520*%
%ADD14C,0.0750*%
%ADD15OC8,0.0750*%
%ADD16C,0.0825*%
D10*
X005853Y004060D03*
X009353Y008160D03*
X016353Y008160D03*
X023353Y008160D03*
X030353Y008160D03*
D11*
X030353Y009560D03*
X023353Y009560D03*
X016353Y009560D03*
X009353Y009560D03*
X005853Y002660D03*
D12*
X011053Y003860D02*
X011653Y003860D01*
X013053Y003860D02*
X013653Y003860D01*
X015553Y003860D02*
X016153Y003860D01*
X018053Y003860D02*
X018653Y003860D01*
X020053Y003860D02*
X020653Y003860D01*
X020653Y004860D02*
X020053Y004860D01*
X018653Y004860D02*
X018053Y004860D01*
X018053Y005860D02*
X018653Y005860D01*
X020053Y005860D02*
X020653Y005860D01*
X020653Y006860D02*
X020053Y006860D01*
X018653Y006860D02*
X018053Y006860D01*
X020053Y007860D02*
X020653Y007860D01*
X020653Y008860D02*
X020053Y008860D01*
X013653Y008860D02*
X013053Y008860D01*
X013053Y007860D02*
X013653Y007860D01*
X013653Y006860D02*
X013053Y006860D01*
X011653Y006860D02*
X011053Y006860D01*
X011053Y005860D02*
X011653Y005860D01*
X013053Y005860D02*
X013653Y005860D01*
X013653Y004860D02*
X013053Y004860D01*
X011653Y004860D02*
X011053Y004860D01*
X013053Y002860D02*
X013653Y002860D01*
X015553Y002860D02*
X016153Y002860D01*
X016153Y001860D02*
X015553Y001860D01*
X013653Y001860D02*
X013053Y001860D01*
X020053Y001860D02*
X020653Y001860D01*
X020653Y002860D02*
X020053Y002860D01*
X025053Y003860D02*
X025653Y003860D01*
X027053Y003860D02*
X027653Y003860D01*
X027653Y004860D02*
X027053Y004860D01*
X025653Y004860D02*
X025053Y004860D01*
X025053Y005860D02*
X025653Y005860D01*
X027053Y005860D02*
X027653Y005860D01*
X030053Y006110D02*
X030653Y006110D01*
X032053Y005860D02*
X032653Y005860D01*
X034053Y005860D02*
X034653Y005860D01*
X034653Y006860D02*
X034053Y006860D01*
X032653Y006860D02*
X032053Y006860D01*
X034053Y007860D02*
X034653Y007860D01*
X034653Y008860D02*
X034053Y008860D01*
X027653Y008860D02*
X027053Y008860D01*
X027053Y007860D02*
X027653Y007860D01*
X027653Y006860D02*
X027053Y006860D01*
X025653Y006860D02*
X025053Y006860D01*
X030053Y005110D02*
X030653Y005110D01*
X032053Y004860D02*
X032653Y004860D01*
X034053Y004860D02*
X034653Y004860D01*
X034653Y003860D02*
X034053Y003860D01*
X032653Y003860D02*
X032053Y003860D01*
X034053Y002860D02*
X034653Y002860D01*
X034653Y001860D02*
X034053Y001860D01*
X027653Y001860D02*
X027053Y001860D01*
X027053Y002860D02*
X027653Y002860D01*
X006653Y006860D02*
X006053Y006860D01*
X004353Y006160D02*
X004353Y005560D01*
X003353Y005560D02*
X003353Y006160D01*
X002353Y006160D02*
X002353Y005560D01*
X001353Y005560D02*
X001353Y006160D01*
X006053Y007860D02*
X006653Y007860D01*
X003853Y008060D02*
X003853Y008660D01*
X002853Y008660D02*
X002853Y008060D01*
X006053Y008860D02*
X006653Y008860D01*
D13*
X002853Y001860D03*
X002853Y004860D03*
X003353Y009860D03*
X003353Y010860D03*
X004853Y010860D03*
X007853Y010860D03*
D14*
X008853Y006360D03*
D15*
X008853Y004360D03*
D16*
X036441Y004360D02*
X037266Y004360D01*
X037266Y006360D02*
X036441Y006360D01*
X036441Y008360D02*
X037266Y008360D01*
M02*
