G04 (Genere par PCBNEW (2007-01-15)) le 18/3/2007-20:27:50*
G01*
G70*
G90*
%MOIN*%
G04 Gerber Fmt 3.4, Leading zero omitted, Abs format*
%FSLAX34Y34*%
G04 APERTURE LIST*
%ADD10C,0.015000*%
%ADD11C,0.080000*%
%ADD12R,0.080000X0.080000*%
%ADD13C,0.150000*%
%ADD14C,0.060000*%
%ADD15R,0.055000X0.080000*%
%ADD16C,0.400000*%
%ADD17R,0.400000X0.400000*%
%ADD18R,0.100000X0.100000*%
%ADD19C,0.100000*%
%ADD20R,0.055000X0.055000*%
%ADD21C,0.055000*%
%ADD22C,0.080000*%
%ADD23C,0.040000*%
%ADD24C,0.025000*%
%ADD25C,0.010000*%
G04 APERTURE END LIST*
G54D10*
X67600Y-42600D02*
X67500Y-42600D01*
X67600Y-23600D02*
X67600Y-42600D01*
X39000Y-23600D02*
X39000Y-25200D01*
X39000Y-23600D02*
X67600Y-23600D01*
X39000Y-42600D02*
X67600Y-42600D01*
X39000Y-23700D02*
X39000Y-42700D01*
G54D11*
X48300Y-41600D03*
X51300Y-41600D03*
G54D12*
X56100Y-31400D03*
G54D11*
X56100Y-33400D03*
G54D13*
X64500Y-38900D03*
X64500Y-28900D03*
G54D12*
X64000Y-31750D03*
G54D14*
X64000Y-32850D03*
X64000Y-33900D03*
X64000Y-35000D03*
G54D11*
X64000Y-36100D03*
X65000Y-32300D03*
G54D14*
X65000Y-33400D03*
X65000Y-34450D03*
X65000Y-35550D03*
G54D15*
X57000Y-29200D03*
G54D11*
X57000Y-30200D03*
G54D16*
X48000Y-32000D03*
G54D17*
X43000Y-32000D03*
G54D12*
X50800Y-38900D03*
G54D11*
X51800Y-38900D03*
X51800Y-37900D03*
G54D12*
X61900Y-29300D03*
G54D11*
X62900Y-29300D03*
G54D12*
X56200Y-34600D03*
G54D11*
X56200Y-35600D03*
G54D12*
X55800Y-41400D03*
G54D11*
X55800Y-40400D03*
G54D12*
X58500Y-40900D03*
G54D11*
X59500Y-40900D03*
G54D12*
X61000Y-40900D03*
G54D11*
X62000Y-40900D03*
G54D12*
X55800Y-37800D03*
G54D11*
X55800Y-38800D03*
G54D12*
X58600Y-30800D03*
G54D11*
X58600Y-31800D03*
X58600Y-32800D03*
X58600Y-33800D03*
X58600Y-34800D03*
X58600Y-35800D03*
X58600Y-36800D03*
X58600Y-37800D03*
X61600Y-37800D03*
X61600Y-36800D03*
X61600Y-35800D03*
X61600Y-34800D03*
X61600Y-33800D03*
X61600Y-32800D03*
X61600Y-31800D03*
X61600Y-30800D03*
G54D18*
X44900Y-40200D03*
G54D19*
X42900Y-40200D03*
G54D20*
X57900Y-25100D03*
G54D21*
X56900Y-25100D03*
G54D20*
X47400Y-25100D03*
G54D21*
X46400Y-25100D03*
G54D20*
X61400Y-25100D03*
G54D21*
X60400Y-25100D03*
G54D20*
X43900Y-25100D03*
G54D21*
X42900Y-25100D03*
G54D20*
X50900Y-25100D03*
G54D21*
X49900Y-25100D03*
G54D20*
X64900Y-25100D03*
G54D21*
X63900Y-25100D03*
G54D20*
X54400Y-25100D03*
G54D21*
X53400Y-25100D03*
G54D11*
X66500Y-25000D03*
X66500Y-41500D03*
X40250Y-25000D03*
X40250Y-41500D03*
X61600Y-30800D03*
G54D22*
X42900Y-40200D02*
X43000Y-32000D01*
G54D23*
X50800Y-38900D02*
X49900Y-38900D01*
X49900Y-38900D02*
X48300Y-39600D01*
X48300Y-39600D02*
X48300Y-41600D01*
G54D22*
X43000Y-32000D02*
X43000Y-28300D01*
X64900Y-24300D02*
X64900Y-25100D01*
X64800Y-24200D02*
X64900Y-24300D01*
X41900Y-24200D02*
X43900Y-24200D01*
X43900Y-24200D02*
X47400Y-24200D01*
X47400Y-24200D02*
X51000Y-24200D01*
X51000Y-24200D02*
X54500Y-24200D01*
X54500Y-24200D02*
X54400Y-24200D01*
X54400Y-24200D02*
X57900Y-24200D01*
X57900Y-24200D02*
X61300Y-24200D01*
X61300Y-24200D02*
X64800Y-24200D01*
X41600Y-24500D02*
X41900Y-24200D01*
X41600Y-26900D02*
X41600Y-24500D01*
X43000Y-28300D02*
X41600Y-26900D01*
X61400Y-25100D02*
X61400Y-24400D01*
X61300Y-24300D02*
X61300Y-24200D01*
X61400Y-24400D02*
X61300Y-24300D01*
X57900Y-25100D02*
X57900Y-24400D01*
X57900Y-24300D02*
X57900Y-24200D01*
X57900Y-24400D02*
X57900Y-24300D01*
X54400Y-24400D02*
X54400Y-24200D01*
X54400Y-25100D02*
X54400Y-24400D01*
X54400Y-24400D02*
X54500Y-24300D01*
X54500Y-24300D02*
X54500Y-24200D01*
X50900Y-25100D02*
X50900Y-24500D01*
X51000Y-24400D02*
X51000Y-24200D01*
X50900Y-24500D02*
X51000Y-24400D01*
X47400Y-25100D02*
X47400Y-24300D01*
X47400Y-24300D02*
X47400Y-24200D01*
X43900Y-25100D02*
X43900Y-24500D01*
X43900Y-24500D02*
X43900Y-24200D01*
G54D23*
X42900Y-40200D02*
X42900Y-40600D01*
X43900Y-41600D02*
X48300Y-41600D01*
X42900Y-40600D02*
X43900Y-41600D01*
X51300Y-41600D02*
X53000Y-41500D01*
X54100Y-41400D02*
X55800Y-41400D01*
X53000Y-41500D02*
X54100Y-41400D01*
X56100Y-31400D02*
X57200Y-31400D01*
X57600Y-31800D02*
X58600Y-31800D01*
X57200Y-31400D02*
X57600Y-31800D01*
X61900Y-29300D02*
X61900Y-29600D01*
X61900Y-29600D02*
X61600Y-30800D01*
X51800Y-37900D02*
X52500Y-35500D01*
X52500Y-35500D02*
X54300Y-33700D01*
X54600Y-33400D02*
X56100Y-33400D01*
X54300Y-33700D02*
X54600Y-33400D01*
X61900Y-29300D02*
X59700Y-29300D01*
X54300Y-33600D02*
X54300Y-33700D01*
X54300Y-30200D02*
X54300Y-33600D01*
X56300Y-28400D02*
X54300Y-30200D01*
X58600Y-28400D02*
X56300Y-28400D01*
X59700Y-29300D02*
X58600Y-28400D01*
X64000Y-32850D02*
X61650Y-32850D01*
X61650Y-32850D02*
X61600Y-32800D01*
X64000Y-33900D02*
X64000Y-33900D01*
X64000Y-33900D02*
X61700Y-33900D01*
X61700Y-33900D02*
X61600Y-33800D01*
G54D24*
X65000Y-32300D02*
X65200Y-32300D01*
X65500Y-35000D02*
X64000Y-35000D01*
X65800Y-34700D02*
X65500Y-35000D01*
X65800Y-32900D02*
X65800Y-34700D01*
X65200Y-32300D02*
X65800Y-32900D01*
G54D23*
X60400Y-25100D02*
X58900Y-25100D01*
G54D22*
X42900Y-25100D02*
X42900Y-26000D01*
X42900Y-26000D02*
X46400Y-26000D01*
X63900Y-26000D02*
X63900Y-25100D01*
X60400Y-26000D02*
X63900Y-26000D01*
X46400Y-26000D02*
X47900Y-26000D01*
X47900Y-26000D02*
X49900Y-26000D01*
X49900Y-26000D02*
X53400Y-26000D01*
X53400Y-26000D02*
X56900Y-26000D01*
X56900Y-26000D02*
X60400Y-26000D01*
G54D23*
X63900Y-25100D02*
X62400Y-25100D01*
G54D22*
X56900Y-25100D02*
X56900Y-25800D01*
X56900Y-25800D02*
X56900Y-26000D01*
G54D23*
X56900Y-25100D02*
X55400Y-25100D01*
G54D22*
X53400Y-25100D02*
X53400Y-25900D01*
X53400Y-25900D02*
X53400Y-26000D01*
G54D23*
X53400Y-25100D02*
X51900Y-25100D01*
G54D22*
X49900Y-25100D02*
X49900Y-25900D01*
X49900Y-25900D02*
X49900Y-26000D01*
G54D23*
X49900Y-25100D02*
X48400Y-25100D01*
G54D22*
X46400Y-25100D02*
X46400Y-25900D01*
X46400Y-25900D02*
X46400Y-26000D01*
G54D23*
X61600Y-31800D02*
X63000Y-30800D01*
X63000Y-30800D02*
X62900Y-30800D01*
X62900Y-30800D02*
X62900Y-30800D01*
X63400Y-41900D02*
X63400Y-41900D01*
X63300Y-41900D02*
X63400Y-41900D01*
X62900Y-30800D02*
X61600Y-31800D01*
X65000Y-35550D02*
X66450Y-35550D01*
X62900Y-30600D02*
X62900Y-30800D01*
X65200Y-30600D02*
X62900Y-30600D01*
X66400Y-31800D02*
X65200Y-30600D01*
X66400Y-35500D02*
X66400Y-31800D01*
X66450Y-35550D02*
X66400Y-35500D01*
X65000Y-35550D02*
X65000Y-35900D01*
X64800Y-36100D02*
X64000Y-36100D01*
X65000Y-35900D02*
X64800Y-36100D01*
X64000Y-36100D02*
X64000Y-36700D01*
X64000Y-36700D02*
X63300Y-37400D01*
X63300Y-37400D02*
X63300Y-41900D01*
X61000Y-40900D02*
X61000Y-41600D01*
X63100Y-42100D02*
X63300Y-41900D01*
X61500Y-42100D02*
X63100Y-42100D01*
X61000Y-41600D02*
X61500Y-42100D01*
X62900Y-29300D02*
X62900Y-30600D01*
X62900Y-30600D02*
X63000Y-30700D01*
X63000Y-30700D02*
X63000Y-30800D01*
G54D22*
X61000Y-40900D02*
X61000Y-42000D01*
X58500Y-42000D02*
X58500Y-40900D01*
X61000Y-42000D02*
X58500Y-42000D01*
X44900Y-40200D02*
X44900Y-38900D01*
X44900Y-38900D02*
X47900Y-35900D01*
X47900Y-35900D02*
X48000Y-32000D01*
G54D23*
X55800Y-40400D02*
X58000Y-40400D01*
X58000Y-40400D02*
X58500Y-40900D01*
X55800Y-40400D02*
X54700Y-40400D01*
X54200Y-37800D02*
X55800Y-37800D01*
X53700Y-38300D02*
X54200Y-37800D01*
X53700Y-39400D02*
X53700Y-38300D01*
X54700Y-40400D02*
X53700Y-39400D01*
X51800Y-38900D02*
X54200Y-37900D01*
X54200Y-37900D02*
X55700Y-37900D01*
X55700Y-37900D02*
X55800Y-37800D01*
X62900Y-29300D02*
X62900Y-28600D01*
X52300Y-27700D02*
X48000Y-32000D01*
X61900Y-27700D02*
X52300Y-27700D01*
X62900Y-28600D02*
X61900Y-27700D01*
G54D22*
X48000Y-32000D02*
X48000Y-26200D01*
X47900Y-26100D02*
X47900Y-26000D01*
X48000Y-26200D02*
X47900Y-26100D01*
X60400Y-25100D02*
X60400Y-25600D01*
X60400Y-25600D02*
X60400Y-26000D01*
G54D23*
X46400Y-25100D02*
X44900Y-25100D01*
X65000Y-33400D02*
X65000Y-34450D01*
X58600Y-30800D02*
X58600Y-29800D01*
X58000Y-29200D02*
X57000Y-29200D01*
X58600Y-29800D02*
X58000Y-29200D01*
X58600Y-32800D02*
X57200Y-32800D01*
X55700Y-30200D02*
X57000Y-30200D01*
X55100Y-30800D02*
X55700Y-30200D01*
X55100Y-32100D02*
X55100Y-30800D01*
X55400Y-32400D02*
X55100Y-32100D01*
X56800Y-32400D02*
X55400Y-32400D01*
X57200Y-32800D02*
X56800Y-32400D01*
X58600Y-33800D02*
X58600Y-33800D01*
X58600Y-33800D02*
X57500Y-33800D01*
X56700Y-34600D02*
X56200Y-34600D01*
X57500Y-33800D02*
X56700Y-34600D01*
X58600Y-34800D02*
X57600Y-34800D01*
X56800Y-35600D02*
X56200Y-35600D01*
X57600Y-34800D02*
X56800Y-35600D01*
X61600Y-34800D02*
X60800Y-34800D01*
X59500Y-40000D02*
X59500Y-40900D01*
X60100Y-39300D02*
X59500Y-40000D01*
X60100Y-34900D02*
X60100Y-39300D01*
X60800Y-34800D02*
X60100Y-34900D01*
X61600Y-35800D02*
X62600Y-35800D01*
X62600Y-40100D02*
X62000Y-40900D01*
X62600Y-35800D02*
X62600Y-40100D01*
X62600Y-35800D02*
X62600Y-35800D01*
X55800Y-38800D02*
X57100Y-38800D01*
X57700Y-35800D02*
X58600Y-35800D01*
X57500Y-36000D02*
X57700Y-35800D01*
X57500Y-38400D02*
X57500Y-36000D01*
X57100Y-38800D02*
X57500Y-38400D01*
G54D25*
X66000Y-24200D02*
X66000Y-24300D01*
X65900Y-24200D02*
X65900Y-24300D01*
X65800Y-24200D02*
X65800Y-24500D01*
X65700Y-24200D02*
X65700Y-24700D01*
X65600Y-24200D02*
X65600Y-24900D01*
X65500Y-24200D02*
X65500Y-24900D01*
X65400Y-24200D02*
X65400Y-24900D01*
X65300Y-24200D02*
X65300Y-25000D01*
X65200Y-24200D02*
X65200Y-25300D01*
X65100Y-24200D02*
X65100Y-25400D01*
X65000Y-24200D02*
X65000Y-25400D01*
X64900Y-24200D02*
X64900Y-25400D01*
X64800Y-24200D02*
X64800Y-25400D01*
X64700Y-24200D02*
X64700Y-24800D01*
X64600Y-24200D02*
X64600Y-24600D01*
X64500Y-24200D02*
X64500Y-24400D01*
X64400Y-24200D02*
X64400Y-24400D01*
X64300Y-24200D02*
X64300Y-24300D01*
X64200Y-24200D02*
X64200Y-24300D01*
X63600Y-24200D02*
X63600Y-24300D01*
X63500Y-24200D02*
X63500Y-24300D01*
X63400Y-24200D02*
X63400Y-24400D01*
X63300Y-24200D02*
X63300Y-24400D01*
X63200Y-24200D02*
X63200Y-24400D01*
X63100Y-24200D02*
X63100Y-24400D01*
X63000Y-24200D02*
X63000Y-24400D01*
X62900Y-24200D02*
X62900Y-24400D01*
X62800Y-24200D02*
X62800Y-24400D01*
X62700Y-24200D02*
X62700Y-24400D01*
X62600Y-24200D02*
X62600Y-24400D01*
X62500Y-24200D02*
X62500Y-24400D01*
X62400Y-24200D02*
X62400Y-24400D01*
X62300Y-24200D02*
X62300Y-24400D01*
X62200Y-24200D02*
X62200Y-24400D01*
X62100Y-24200D02*
X62100Y-24500D01*
X62000Y-24200D02*
X62000Y-24500D01*
X61900Y-24200D02*
X61900Y-24600D01*
X61800Y-24200D02*
X61800Y-24800D01*
X61700Y-24200D02*
X61700Y-25100D01*
X61600Y-24200D02*
X61600Y-25100D01*
X61500Y-24200D02*
X61500Y-25100D01*
X61400Y-24200D02*
X61400Y-25100D01*
X61300Y-24200D02*
X61300Y-25100D01*
X61200Y-24200D02*
X61200Y-24800D01*
X61100Y-24200D02*
X61100Y-24600D01*
X61000Y-24200D02*
X61000Y-24400D01*
X60900Y-24200D02*
X60900Y-24400D01*
X60800Y-24200D02*
X60800Y-24300D01*
X60700Y-24200D02*
X60700Y-24300D01*
X60100Y-24200D02*
X60100Y-24300D01*
X60000Y-24200D02*
X60000Y-24300D01*
X59900Y-24200D02*
X59900Y-24400D01*
X59800Y-24200D02*
X59800Y-24400D01*
X59700Y-24200D02*
X59700Y-24400D01*
X59600Y-24200D02*
X59600Y-24400D01*
X59500Y-24200D02*
X59500Y-24400D01*
X59400Y-24200D02*
X59400Y-24400D01*
X59300Y-24200D02*
X59300Y-24400D01*
X59200Y-24200D02*
X59200Y-24400D01*
X59100Y-24200D02*
X59100Y-24400D01*
X59000Y-24200D02*
X59000Y-24400D01*
X58900Y-24200D02*
X58900Y-24400D01*
X58800Y-24200D02*
X58800Y-24400D01*
X58700Y-24200D02*
X58700Y-24400D01*
X58600Y-24200D02*
X58600Y-24500D01*
X58500Y-24200D02*
X58500Y-24500D01*
X58400Y-24200D02*
X58400Y-24600D01*
X58300Y-24200D02*
X58300Y-24800D01*
X58200Y-24200D02*
X58200Y-25100D01*
X58100Y-24200D02*
X58100Y-25100D01*
X58000Y-24200D02*
X58000Y-25100D01*
X57900Y-24200D02*
X57900Y-25100D01*
X57800Y-24200D02*
X57800Y-25100D01*
X57700Y-24200D02*
X57700Y-24800D01*
X57600Y-24200D02*
X57600Y-24600D01*
X57500Y-24200D02*
X57500Y-24400D01*
X57400Y-24200D02*
X57400Y-24400D01*
X57300Y-24200D02*
X57300Y-24300D01*
X57200Y-24200D02*
X57200Y-24300D01*
X56600Y-24200D02*
X56600Y-24300D01*
X56500Y-24200D02*
X56500Y-24300D01*
X56400Y-24200D02*
X56400Y-24400D01*
X56300Y-24200D02*
X56300Y-24400D01*
X56200Y-24200D02*
X56200Y-24400D01*
X56100Y-24200D02*
X56100Y-24400D01*
X56000Y-24200D02*
X56000Y-24400D01*
X55900Y-24200D02*
X55900Y-24400D01*
X55800Y-24200D02*
X55800Y-24400D01*
X55700Y-24200D02*
X55700Y-24400D01*
X55600Y-24200D02*
X55600Y-24400D01*
X55500Y-24200D02*
X55500Y-24400D01*
X55400Y-24200D02*
X55400Y-24400D01*
X55300Y-24200D02*
X55300Y-24400D01*
X55200Y-24200D02*
X55200Y-24400D01*
X55100Y-24200D02*
X55100Y-24500D01*
X55000Y-24200D02*
X55000Y-24500D01*
X54900Y-24200D02*
X54900Y-24600D01*
X54800Y-24200D02*
X54800Y-24800D01*
X54700Y-24200D02*
X54700Y-25100D01*
X54600Y-24200D02*
X54600Y-25100D01*
X54500Y-24200D02*
X54500Y-25100D01*
X54400Y-24200D02*
X54400Y-25100D01*
X54300Y-24200D02*
X54300Y-25100D01*
X54200Y-24200D02*
X54200Y-24800D01*
X54100Y-24200D02*
X54100Y-24600D01*
X54000Y-24200D02*
X54000Y-24400D01*
X53900Y-24200D02*
X53900Y-24400D01*
X53800Y-24200D02*
X53800Y-24300D01*
X53700Y-24200D02*
X53700Y-24300D01*
X53100Y-24200D02*
X53100Y-24300D01*
X53000Y-24200D02*
X53000Y-24300D01*
X52900Y-24200D02*
X52900Y-24400D01*
X52800Y-24200D02*
X52800Y-24400D01*
X52700Y-24200D02*
X52700Y-24400D01*
X52600Y-24200D02*
X52600Y-24400D01*
X52500Y-24200D02*
X52500Y-24400D01*
X52400Y-24200D02*
X52400Y-24400D01*
X52300Y-24200D02*
X52300Y-24400D01*
X52200Y-24200D02*
X52200Y-24400D01*
X52100Y-24200D02*
X52100Y-24400D01*
X52000Y-24200D02*
X52000Y-24400D01*
X51900Y-24200D02*
X51900Y-24400D01*
X51800Y-24200D02*
X51800Y-24400D01*
X51700Y-24200D02*
X51700Y-24400D01*
X51600Y-24200D02*
X51600Y-24500D01*
X51500Y-24200D02*
X51500Y-24500D01*
X51400Y-24200D02*
X51400Y-24600D01*
X51300Y-24200D02*
X51300Y-24800D01*
X51200Y-24200D02*
X51200Y-25100D01*
X51100Y-24200D02*
X51100Y-25100D01*
X51000Y-38500D02*
X51000Y-38600D01*
X51000Y-24200D02*
X51000Y-25100D01*
X50900Y-38600D02*
X50900Y-39200D01*
X50900Y-24200D02*
X50900Y-25100D01*
X50800Y-38600D02*
X50800Y-39200D01*
X50800Y-24200D02*
X50800Y-25100D01*
X50700Y-38600D02*
X50700Y-39200D01*
X50700Y-24200D02*
X50700Y-24800D01*
X50600Y-38600D02*
X50600Y-39200D01*
X50600Y-24200D02*
X50600Y-24600D01*
X50500Y-38600D02*
X50500Y-39200D01*
X50500Y-24200D02*
X50500Y-24400D01*
X50400Y-38600D02*
X50400Y-39200D01*
X50400Y-24200D02*
X50400Y-24400D01*
X50300Y-38600D02*
X50300Y-39200D01*
X50300Y-24200D02*
X50300Y-24300D01*
X50200Y-38700D02*
X50200Y-39200D01*
X50200Y-24200D02*
X50200Y-24300D01*
X50100Y-38700D02*
X50100Y-39200D01*
X50000Y-38700D02*
X50000Y-39200D01*
X49900Y-38800D02*
X49900Y-39100D01*
X49800Y-38800D02*
X49800Y-39100D01*
X49700Y-38900D02*
X49700Y-39100D01*
X49600Y-38900D02*
X49600Y-39200D01*
X49600Y-24200D02*
X49600Y-24300D01*
X49500Y-38900D02*
X49500Y-39200D01*
X49500Y-24200D02*
X49500Y-24300D01*
X49400Y-39000D02*
X49400Y-39200D01*
X49400Y-24200D02*
X49400Y-24400D01*
X49300Y-39000D02*
X49300Y-39300D01*
X49300Y-24200D02*
X49300Y-24400D01*
X49200Y-39100D02*
X49200Y-39300D01*
X49200Y-24200D02*
X49200Y-24400D01*
X49100Y-39100D02*
X49100Y-39400D01*
X49100Y-24200D02*
X49100Y-24400D01*
X49000Y-39200D02*
X49000Y-39400D01*
X49000Y-24200D02*
X49000Y-24400D01*
X48900Y-39200D02*
X48900Y-39500D01*
X48900Y-24200D02*
X48900Y-24400D01*
X48800Y-39300D02*
X48800Y-39500D01*
X48800Y-24200D02*
X48800Y-24400D01*
X48700Y-39300D02*
X48700Y-39600D01*
X48700Y-24200D02*
X48700Y-24400D01*
X48600Y-41500D02*
X48600Y-41800D01*
X48600Y-39300D02*
X48600Y-39700D01*
X48600Y-24200D02*
X48600Y-24400D01*
X48500Y-41200D02*
X48500Y-42000D01*
X48500Y-39400D02*
X48500Y-40000D01*
X48500Y-24200D02*
X48500Y-24400D01*
X48400Y-39400D02*
X48400Y-42000D01*
X48400Y-24200D02*
X48400Y-24400D01*
X48300Y-39500D02*
X48300Y-42000D01*
X48300Y-24200D02*
X48300Y-24400D01*
X48200Y-39500D02*
X48200Y-42000D01*
X48200Y-24200D02*
X48200Y-24400D01*
X48100Y-41000D02*
X48100Y-42000D01*
X48100Y-24200D02*
X48100Y-24500D01*
X48000Y-41300D02*
X48000Y-42000D01*
X48000Y-24200D02*
X48000Y-24500D01*
X47900Y-41400D02*
X47900Y-42000D01*
X47900Y-24200D02*
X47900Y-24600D01*
X47800Y-41400D02*
X47800Y-42000D01*
X47800Y-24200D02*
X47800Y-24800D01*
X47700Y-41400D02*
X47700Y-42000D01*
X47700Y-24200D02*
X47700Y-25100D01*
X47600Y-41500D02*
X47600Y-42000D01*
X47600Y-24200D02*
X47600Y-25100D01*
X47500Y-41500D02*
X47500Y-42000D01*
X47500Y-24200D02*
X47500Y-25100D01*
X47400Y-41500D02*
X47400Y-42000D01*
X47400Y-24200D02*
X47400Y-25100D01*
X47300Y-41500D02*
X47300Y-42000D01*
X47300Y-24200D02*
X47300Y-25100D01*
X47200Y-41500D02*
X47200Y-42000D01*
X47200Y-24200D02*
X47200Y-24800D01*
X47100Y-41500D02*
X47100Y-42000D01*
X47100Y-24200D02*
X47100Y-24600D01*
X47000Y-41500D02*
X47000Y-42000D01*
X47000Y-24200D02*
X47000Y-24400D01*
X46900Y-41500D02*
X46900Y-42000D01*
X46900Y-24200D02*
X46900Y-24400D01*
X46800Y-41500D02*
X46800Y-42000D01*
X46800Y-24200D02*
X46800Y-24300D01*
X46700Y-41500D02*
X46700Y-42000D01*
X46700Y-24200D02*
X46700Y-24300D01*
X46600Y-41500D02*
X46600Y-42000D01*
X46500Y-41500D02*
X46500Y-42000D01*
X46400Y-41500D02*
X46400Y-42000D01*
X46300Y-41500D02*
X46300Y-42000D01*
X46200Y-41500D02*
X46200Y-42000D01*
X46100Y-41500D02*
X46100Y-42000D01*
X46100Y-24200D02*
X46100Y-24300D01*
X46000Y-41500D02*
X46000Y-42000D01*
X46000Y-24200D02*
X46000Y-24300D01*
X45900Y-41500D02*
X45900Y-42000D01*
X45900Y-24200D02*
X45900Y-24400D01*
X45800Y-41500D02*
X45800Y-42000D01*
X45800Y-24200D02*
X45800Y-24400D01*
X45700Y-41500D02*
X45700Y-42000D01*
X45700Y-24200D02*
X45700Y-24400D01*
X45600Y-41500D02*
X45600Y-42000D01*
X45600Y-24200D02*
X45600Y-24400D01*
X45500Y-41500D02*
X45500Y-42000D01*
X45500Y-24200D02*
X45500Y-24400D01*
X45400Y-41500D02*
X45400Y-42000D01*
X45400Y-24200D02*
X45400Y-24400D01*
X45300Y-41500D02*
X45300Y-42000D01*
X45300Y-24200D02*
X45300Y-24400D01*
X45200Y-41500D02*
X45200Y-42000D01*
X45200Y-24200D02*
X45200Y-24400D01*
X45100Y-41500D02*
X45100Y-42000D01*
X45100Y-24200D02*
X45100Y-24400D01*
X45000Y-41500D02*
X45000Y-42000D01*
X45000Y-24200D02*
X45000Y-24400D01*
X44900Y-41500D02*
X44900Y-42000D01*
X44900Y-30100D02*
X44900Y-33900D01*
X44900Y-24200D02*
X44900Y-24400D01*
X44800Y-41500D02*
X44800Y-42000D01*
X44800Y-30100D02*
X44800Y-33900D01*
X44800Y-24200D02*
X44800Y-24400D01*
X44700Y-41500D02*
X44700Y-42000D01*
X44700Y-30100D02*
X44700Y-33900D01*
X44700Y-24200D02*
X44700Y-24400D01*
X44600Y-41500D02*
X44600Y-42000D01*
X44600Y-30100D02*
X44600Y-33900D01*
X44600Y-24200D02*
X44600Y-24500D01*
X44500Y-41500D02*
X44500Y-42000D01*
X44500Y-30100D02*
X44500Y-33900D01*
X44500Y-24200D02*
X44500Y-24500D01*
X44400Y-41500D02*
X44400Y-42000D01*
X44400Y-30100D02*
X44400Y-33900D01*
X44400Y-24200D02*
X44400Y-24600D01*
X44300Y-41500D02*
X44300Y-42000D01*
X44300Y-30100D02*
X44300Y-33900D01*
X44300Y-24200D02*
X44300Y-24800D01*
X44200Y-41500D02*
X44200Y-42000D01*
X44200Y-30100D02*
X44200Y-33900D01*
X44200Y-24200D02*
X44200Y-25100D01*
X44100Y-41400D02*
X44100Y-42000D01*
X44100Y-30100D02*
X44100Y-33900D01*
X44100Y-24200D02*
X44100Y-25100D01*
X44000Y-41400D02*
X44000Y-42000D01*
X44000Y-30100D02*
X44000Y-33900D01*
X44000Y-24200D02*
X44000Y-25100D01*
X43900Y-41400D02*
X43900Y-42000D01*
X43900Y-30100D02*
X43900Y-33900D01*
X43900Y-24200D02*
X43900Y-25100D01*
X43800Y-41300D02*
X43800Y-42000D01*
X43800Y-30000D02*
X43800Y-34000D01*
X43800Y-24200D02*
X43800Y-25100D01*
X43700Y-41200D02*
X43700Y-42000D01*
X43700Y-30000D02*
X43700Y-34000D01*
X43700Y-24200D02*
X43700Y-24800D01*
X43600Y-41100D02*
X43600Y-42000D01*
X43600Y-30000D02*
X43600Y-34000D01*
X43600Y-24200D02*
X43600Y-24600D01*
X43500Y-41000D02*
X43500Y-42000D01*
X43500Y-29900D02*
X43500Y-34100D01*
X43500Y-24200D02*
X43500Y-24400D01*
X43400Y-40700D02*
X43400Y-42000D01*
X43400Y-29600D02*
X43400Y-34400D01*
X43400Y-24200D02*
X43400Y-24400D01*
X43300Y-39900D02*
X43300Y-42000D01*
X43300Y-28200D02*
X43300Y-36100D01*
X43300Y-24200D02*
X43300Y-24300D01*
X43200Y-28000D02*
X43200Y-42000D01*
X43200Y-24200D02*
X43200Y-24300D01*
X43100Y-27900D02*
X43100Y-42000D01*
X43000Y-27800D02*
X43000Y-42000D01*
X42900Y-27700D02*
X42900Y-42000D01*
X42800Y-27600D02*
X42800Y-42000D01*
X42700Y-27500D02*
X42700Y-42000D01*
X42600Y-27400D02*
X42600Y-42000D01*
X42600Y-24200D02*
X42600Y-24300D01*
X42500Y-27300D02*
X42500Y-42000D01*
X42500Y-24200D02*
X42500Y-24300D01*
X42400Y-27200D02*
X42400Y-42000D01*
X42400Y-24200D02*
X42400Y-24400D01*
X42300Y-27100D02*
X42300Y-42000D01*
X42300Y-24200D02*
X42300Y-24400D01*
X42200Y-27000D02*
X42200Y-42000D01*
X42200Y-24200D02*
X42200Y-24600D01*
X42100Y-26900D02*
X42100Y-42000D01*
X42100Y-24200D02*
X42100Y-24700D01*
X42000Y-26600D02*
X42000Y-42000D01*
X42000Y-24200D02*
X42000Y-25000D01*
X41900Y-24200D02*
X41900Y-42000D01*
X41800Y-24200D02*
X41800Y-42000D01*
X41700Y-24200D02*
X41700Y-42000D01*
X41600Y-24200D02*
X41600Y-42000D01*
X41500Y-24200D02*
X41500Y-42000D01*
X41400Y-24200D02*
X41400Y-42000D01*
X41300Y-24200D02*
X41300Y-42000D01*
X41200Y-24200D02*
X41200Y-42000D01*
X41100Y-24200D02*
X41100Y-42000D01*
X41000Y-41900D02*
X41000Y-42000D01*
X41000Y-25400D02*
X41000Y-41100D01*
X41000Y-24200D02*
X41000Y-24600D01*
X40900Y-25600D02*
X40900Y-40900D01*
X40900Y-24200D02*
X40900Y-24400D01*
X40800Y-25700D02*
X40800Y-40800D01*
X40800Y-24200D02*
X40800Y-24300D01*
X40700Y-25800D02*
X40700Y-40700D01*
X40600Y-25800D02*
X40600Y-40700D01*
X40500Y-25900D02*
X40500Y-40600D01*
X40400Y-25900D02*
X40400Y-40600D01*
X40300Y-25900D02*
X40300Y-40600D01*
X40200Y-25900D02*
X40200Y-40600D01*
X40100Y-25900D02*
X40100Y-40600D01*
X40000Y-25900D02*
X40000Y-40600D01*
X39900Y-25800D02*
X39900Y-40700D01*
X39800Y-25800D02*
X39800Y-40700D01*
X39700Y-25700D02*
X39700Y-40800D01*
X39600Y-25600D02*
X39600Y-40900D01*
X41000Y-42000D02*
X48500Y-42000D01*
X41000Y-41900D02*
X48500Y-41900D01*
X41100Y-41800D02*
X48600Y-41800D01*
X41100Y-41700D02*
X48600Y-41700D01*
X41100Y-41600D02*
X48600Y-41600D01*
X41100Y-41500D02*
X48600Y-41500D01*
X47700Y-41400D02*
X48500Y-41400D01*
X41100Y-41400D02*
X44100Y-41400D01*
X48000Y-41300D02*
X48500Y-41300D01*
X41100Y-41300D02*
X43800Y-41300D01*
X48100Y-41200D02*
X48500Y-41200D01*
X41100Y-41200D02*
X43700Y-41200D01*
X48100Y-41100D02*
X48400Y-41100D01*
X41000Y-41100D02*
X43600Y-41100D01*
X48100Y-41000D02*
X48400Y-41000D01*
X41000Y-41000D02*
X43500Y-41000D01*
X48200Y-40900D02*
X48400Y-40900D01*
X40900Y-40900D02*
X43400Y-40900D01*
X48200Y-40800D02*
X48400Y-40800D01*
X40800Y-40800D02*
X43400Y-40800D01*
X39600Y-40800D02*
X39700Y-40800D01*
X48200Y-40700D02*
X48400Y-40700D01*
X40600Y-40700D02*
X43400Y-40700D01*
X39600Y-40700D02*
X39900Y-40700D01*
X48200Y-40600D02*
X48400Y-40600D01*
X39600Y-40600D02*
X43300Y-40600D01*
X48200Y-40500D02*
X48400Y-40500D01*
X39600Y-40500D02*
X43300Y-40500D01*
X48200Y-40400D02*
X48400Y-40400D01*
X39600Y-40400D02*
X43300Y-40400D01*
X48200Y-40300D02*
X48400Y-40300D01*
X39600Y-40300D02*
X43300Y-40300D01*
X48200Y-40200D02*
X48400Y-40200D01*
X39600Y-40200D02*
X43300Y-40200D01*
X48200Y-40100D02*
X48400Y-40100D01*
X39600Y-40100D02*
X43300Y-40100D01*
X48200Y-40000D02*
X48500Y-40000D01*
X39600Y-40000D02*
X43300Y-40000D01*
X48200Y-39900D02*
X48500Y-39900D01*
X39600Y-39900D02*
X43300Y-39900D01*
X48200Y-39800D02*
X48500Y-39800D01*
X39600Y-39800D02*
X43200Y-39800D01*
X48200Y-39700D02*
X48600Y-39700D01*
X39600Y-39700D02*
X43200Y-39700D01*
X48200Y-39600D02*
X48700Y-39600D01*
X39600Y-39600D02*
X43200Y-39600D01*
X48200Y-39500D02*
X48900Y-39500D01*
X39600Y-39500D02*
X43200Y-39500D01*
X48400Y-39400D02*
X49100Y-39400D01*
X39600Y-39400D02*
X43200Y-39400D01*
X48600Y-39300D02*
X49300Y-39300D01*
X39600Y-39300D02*
X43200Y-39300D01*
X50000Y-39200D02*
X51000Y-39200D01*
X48900Y-39200D02*
X49600Y-39200D01*
X39600Y-39200D02*
X43200Y-39200D01*
X49100Y-39100D02*
X50900Y-39100D01*
X39600Y-39100D02*
X43200Y-39100D01*
X49300Y-39000D02*
X50900Y-39000D01*
X39600Y-39000D02*
X43200Y-39000D01*
X49500Y-38900D02*
X50900Y-38900D01*
X39600Y-38900D02*
X43200Y-38900D01*
X49800Y-38800D02*
X50900Y-38800D01*
X39600Y-38800D02*
X43200Y-38800D01*
X50000Y-38700D02*
X50900Y-38700D01*
X39600Y-38700D02*
X43200Y-38700D01*
X50300Y-38600D02*
X51000Y-38600D01*
X39600Y-38600D02*
X43200Y-38600D01*
X39600Y-38500D02*
X43200Y-38500D01*
X39600Y-38400D02*
X43200Y-38400D01*
X39600Y-38300D02*
X43200Y-38300D01*
X39600Y-38200D02*
X43200Y-38200D01*
X39600Y-38100D02*
X43200Y-38100D01*
X39600Y-38000D02*
X43200Y-38000D01*
X39600Y-37900D02*
X43200Y-37900D01*
X39600Y-37800D02*
X43200Y-37800D01*
X39600Y-37700D02*
X43200Y-37700D01*
X39600Y-37600D02*
X43200Y-37600D01*
X39600Y-37500D02*
X43200Y-37500D01*
X39600Y-37400D02*
X43200Y-37400D01*
X39600Y-37300D02*
X43200Y-37300D01*
X39600Y-37200D02*
X43200Y-37200D01*
X39600Y-37100D02*
X43200Y-37100D01*
X39600Y-37000D02*
X43200Y-37000D01*
X39600Y-36900D02*
X43200Y-36900D01*
X39600Y-36800D02*
X43200Y-36800D01*
X39600Y-36700D02*
X43200Y-36700D01*
X39600Y-36600D02*
X43200Y-36600D01*
X39600Y-36500D02*
X43200Y-36500D01*
X39600Y-36400D02*
X43200Y-36400D01*
X39600Y-36300D02*
X43200Y-36300D01*
X39600Y-36200D02*
X43200Y-36200D01*
X39600Y-36100D02*
X43300Y-36100D01*
X39600Y-36000D02*
X43300Y-36000D01*
X39600Y-35900D02*
X43300Y-35900D01*
X39600Y-35800D02*
X43300Y-35800D01*
X39600Y-35700D02*
X43300Y-35700D01*
X39600Y-35600D02*
X43300Y-35600D01*
X39600Y-35500D02*
X43300Y-35500D01*
X39600Y-35400D02*
X43300Y-35400D01*
X39600Y-35300D02*
X43300Y-35300D01*
X39600Y-35200D02*
X43300Y-35200D01*
X39600Y-35100D02*
X43300Y-35100D01*
X39600Y-35000D02*
X43300Y-35000D01*
X39600Y-34900D02*
X43300Y-34900D01*
X39600Y-34800D02*
X43300Y-34800D01*
X39600Y-34700D02*
X43300Y-34700D01*
X39600Y-34600D02*
X43300Y-34600D01*
X39600Y-34500D02*
X43300Y-34500D01*
X39600Y-34400D02*
X43400Y-34400D01*
X39600Y-34300D02*
X43400Y-34300D01*
X39600Y-34200D02*
X43400Y-34200D01*
X39600Y-34100D02*
X43500Y-34100D01*
X39600Y-34000D02*
X43800Y-34000D01*
X39600Y-33900D02*
X44900Y-33900D01*
X39600Y-33800D02*
X44900Y-33800D01*
X39600Y-33700D02*
X44900Y-33700D01*
X39600Y-33600D02*
X44900Y-33600D01*
X39600Y-33500D02*
X44900Y-33500D01*
X39600Y-33400D02*
X44900Y-33400D01*
X39600Y-33300D02*
X44900Y-33300D01*
X39600Y-33200D02*
X44900Y-33200D01*
X39600Y-33100D02*
X44900Y-33100D01*
X39600Y-33000D02*
X44900Y-33000D01*
X39600Y-32900D02*
X44900Y-32900D01*
X39600Y-32800D02*
X44900Y-32800D01*
X39600Y-32700D02*
X44900Y-32700D01*
X39600Y-32600D02*
X44900Y-32600D01*
X39600Y-32500D02*
X44900Y-32500D01*
X39600Y-32400D02*
X44900Y-32400D01*
X39600Y-32300D02*
X44900Y-32300D01*
X39600Y-32200D02*
X44900Y-32200D01*
X39600Y-32100D02*
X44900Y-32100D01*
X39600Y-32000D02*
X44900Y-32000D01*
X39600Y-31900D02*
X44900Y-31900D01*
X39600Y-31800D02*
X44900Y-31800D01*
X39600Y-31700D02*
X44900Y-31700D01*
X39600Y-31600D02*
X44900Y-31600D01*
X39600Y-31500D02*
X44900Y-31500D01*
X39600Y-31400D02*
X44900Y-31400D01*
X39600Y-31300D02*
X44900Y-31300D01*
X39600Y-31200D02*
X44900Y-31200D01*
X39600Y-31100D02*
X44900Y-31100D01*
X39600Y-31000D02*
X44900Y-31000D01*
X39600Y-30900D02*
X44900Y-30900D01*
X39600Y-30800D02*
X44900Y-30800D01*
X39600Y-30700D02*
X44900Y-30700D01*
X39600Y-30600D02*
X44900Y-30600D01*
X39600Y-30500D02*
X44900Y-30500D01*
X39600Y-30400D02*
X44900Y-30400D01*
X39600Y-30300D02*
X44900Y-30300D01*
X39600Y-30200D02*
X44900Y-30200D01*
X39600Y-30100D02*
X44900Y-30100D01*
X39600Y-30000D02*
X43800Y-30000D01*
X39600Y-29900D02*
X43500Y-29900D01*
X39600Y-29800D02*
X43400Y-29800D01*
X39600Y-29700D02*
X43400Y-29700D01*
X39600Y-29600D02*
X43400Y-29600D01*
X39600Y-29500D02*
X43300Y-29500D01*
X39600Y-29400D02*
X43300Y-29400D01*
X39600Y-29300D02*
X43300Y-29300D01*
X39600Y-29200D02*
X43300Y-29200D01*
X39600Y-29100D02*
X43300Y-29100D01*
X39600Y-29000D02*
X43300Y-29000D01*
X39600Y-28900D02*
X43300Y-28900D01*
X39600Y-28800D02*
X43300Y-28800D01*
X39600Y-28700D02*
X43300Y-28700D01*
X39600Y-28600D02*
X43300Y-28600D01*
X39600Y-28500D02*
X43300Y-28500D01*
X39600Y-28400D02*
X43300Y-28400D01*
X39600Y-28300D02*
X43300Y-28300D01*
X39600Y-28200D02*
X43300Y-28200D01*
X39600Y-28100D02*
X43200Y-28100D01*
X39600Y-28000D02*
X43200Y-28000D01*
X39600Y-27900D02*
X43100Y-27900D01*
X39600Y-27800D02*
X43000Y-27800D01*
X39600Y-27700D02*
X42900Y-27700D01*
X39600Y-27600D02*
X42800Y-27600D01*
X39600Y-27500D02*
X42700Y-27500D01*
X39600Y-27400D02*
X42600Y-27400D01*
X39600Y-27300D02*
X42500Y-27300D01*
X39600Y-27200D02*
X42400Y-27200D01*
X39600Y-27100D02*
X42300Y-27100D01*
X39600Y-27000D02*
X42200Y-27000D01*
X39600Y-26900D02*
X42100Y-26900D01*
X39600Y-26800D02*
X42000Y-26800D01*
X39600Y-26700D02*
X42000Y-26700D01*
X39600Y-26600D02*
X42000Y-26600D01*
X39600Y-26500D02*
X41900Y-26500D01*
X39600Y-26400D02*
X41900Y-26400D01*
X39600Y-26300D02*
X41900Y-26300D01*
X39600Y-26200D02*
X41900Y-26200D01*
X39600Y-26100D02*
X41900Y-26100D01*
X39600Y-26000D02*
X41900Y-26000D01*
X39600Y-25900D02*
X41900Y-25900D01*
X40600Y-25800D02*
X41900Y-25800D01*
X39600Y-25800D02*
X39900Y-25800D01*
X40800Y-25700D02*
X41900Y-25700D01*
X39600Y-25700D02*
X39700Y-25700D01*
X40900Y-25600D02*
X41900Y-25600D01*
X41000Y-25500D02*
X41900Y-25500D01*
X64800Y-25400D02*
X65100Y-25400D01*
X41000Y-25400D02*
X41900Y-25400D01*
X64800Y-25300D02*
X65200Y-25300D01*
X41100Y-25300D02*
X41900Y-25300D01*
X64800Y-25200D02*
X65200Y-25200D01*
X41100Y-25200D02*
X41900Y-25200D01*
X64800Y-25100D02*
X65200Y-25100D01*
X61300Y-25100D02*
X61700Y-25100D01*
X57800Y-25100D02*
X58200Y-25100D01*
X54300Y-25100D02*
X54700Y-25100D01*
X50800Y-25100D02*
X51200Y-25100D01*
X47300Y-25100D02*
X47700Y-25100D01*
X43800Y-25100D02*
X44200Y-25100D01*
X41100Y-25100D02*
X41900Y-25100D01*
X64800Y-25000D02*
X65300Y-25000D01*
X61300Y-25000D02*
X61700Y-25000D01*
X57800Y-25000D02*
X58200Y-25000D01*
X54300Y-25000D02*
X54700Y-25000D01*
X50800Y-25000D02*
X51200Y-25000D01*
X47300Y-25000D02*
X47700Y-25000D01*
X43800Y-25000D02*
X44200Y-25000D01*
X41100Y-25000D02*
X42000Y-25000D01*
X64800Y-24900D02*
X65600Y-24900D01*
X61300Y-24900D02*
X61700Y-24900D01*
X57800Y-24900D02*
X58200Y-24900D01*
X54300Y-24900D02*
X54700Y-24900D01*
X50800Y-24900D02*
X51200Y-24900D01*
X47300Y-24900D02*
X47700Y-24900D01*
X43800Y-24900D02*
X44200Y-24900D01*
X41100Y-24900D02*
X42000Y-24900D01*
X64700Y-24800D02*
X65600Y-24800D01*
X61200Y-24800D02*
X61800Y-24800D01*
X57700Y-24800D02*
X58300Y-24800D01*
X54200Y-24800D02*
X54800Y-24800D01*
X50700Y-24800D02*
X51300Y-24800D01*
X47200Y-24800D02*
X47800Y-24800D01*
X43700Y-24800D02*
X44300Y-24800D01*
X41100Y-24800D02*
X42000Y-24800D01*
X64700Y-24700D02*
X65700Y-24700D01*
X61200Y-24700D02*
X61800Y-24700D01*
X57700Y-24700D02*
X58300Y-24700D01*
X54200Y-24700D02*
X54800Y-24700D01*
X50700Y-24700D02*
X51300Y-24700D01*
X47200Y-24700D02*
X47800Y-24700D01*
X43700Y-24700D02*
X44300Y-24700D01*
X41100Y-24700D02*
X42100Y-24700D01*
X64600Y-24600D02*
X65700Y-24600D01*
X61100Y-24600D02*
X61900Y-24600D01*
X57600Y-24600D02*
X58400Y-24600D01*
X54100Y-24600D02*
X54900Y-24600D01*
X50600Y-24600D02*
X51400Y-24600D01*
X47100Y-24600D02*
X47900Y-24600D01*
X43600Y-24600D02*
X44400Y-24600D01*
X41000Y-24600D02*
X42200Y-24600D01*
X64600Y-24500D02*
X65800Y-24500D01*
X61100Y-24500D02*
X62100Y-24500D01*
X57600Y-24500D02*
X58600Y-24500D01*
X54100Y-24500D02*
X55100Y-24500D01*
X50600Y-24500D02*
X51600Y-24500D01*
X47100Y-24500D02*
X48100Y-24500D01*
X43600Y-24500D02*
X44600Y-24500D01*
X41000Y-24500D02*
X42200Y-24500D01*
X64400Y-24400D02*
X65800Y-24400D01*
X60900Y-24400D02*
X63400Y-24400D01*
X57400Y-24400D02*
X59900Y-24400D01*
X53900Y-24400D02*
X56400Y-24400D01*
X50400Y-24400D02*
X52900Y-24400D01*
X46900Y-24400D02*
X49400Y-24400D01*
X43400Y-24400D02*
X45900Y-24400D01*
X40900Y-24400D02*
X42400Y-24400D01*
X64200Y-24300D02*
X66000Y-24300D01*
X60700Y-24300D02*
X63600Y-24300D01*
X57200Y-24300D02*
X60100Y-24300D01*
X53700Y-24300D02*
X56600Y-24300D01*
X50200Y-24300D02*
X53100Y-24300D01*
X46700Y-24300D02*
X49600Y-24300D01*
X43200Y-24300D02*
X46100Y-24300D01*
X40800Y-24300D02*
X42600Y-24300D01*
X40600Y-24200D02*
X66200Y-24200D01*
X67000Y-25700D02*
X67000Y-40800D01*
X66900Y-25800D02*
X66900Y-40700D01*
X66800Y-25800D02*
X66800Y-40700D01*
X66700Y-25900D02*
X66700Y-40600D01*
X66600Y-25900D02*
X66600Y-40600D01*
X66500Y-25900D02*
X66500Y-40600D01*
X66400Y-25900D02*
X66400Y-40600D01*
X66300Y-35000D02*
X66300Y-40600D01*
X66300Y-25900D02*
X66300Y-32600D01*
X66200Y-35200D02*
X66200Y-40700D01*
X66200Y-25800D02*
X66200Y-32400D01*
X66100Y-35300D02*
X66100Y-40700D01*
X66100Y-25800D02*
X66100Y-32300D01*
X66000Y-35400D02*
X66000Y-40800D01*
X66000Y-25700D02*
X66000Y-32200D01*
X65900Y-35500D02*
X65900Y-40800D01*
X65900Y-25700D02*
X65900Y-32100D01*
X65800Y-35500D02*
X65800Y-41000D01*
X65800Y-25500D02*
X65800Y-32000D01*
X65700Y-41800D02*
X65700Y-42000D01*
X65700Y-35600D02*
X65700Y-41200D01*
X65700Y-25400D02*
X65700Y-31800D01*
X65600Y-39400D02*
X65600Y-42000D01*
X65600Y-35600D02*
X65600Y-38400D01*
X65600Y-29400D02*
X65600Y-31600D01*
X65600Y-25900D02*
X65600Y-28400D01*
X65500Y-39600D02*
X65500Y-42000D01*
X65500Y-35600D02*
X65500Y-38200D01*
X65500Y-29600D02*
X65500Y-31600D01*
X65500Y-25900D02*
X65500Y-28200D01*
X65400Y-39700D02*
X65400Y-42000D01*
X65400Y-35600D02*
X65400Y-38100D01*
X65400Y-29700D02*
X65400Y-31500D01*
X65400Y-25900D02*
X65400Y-28100D01*
X65300Y-39800D02*
X65300Y-42000D01*
X65300Y-35600D02*
X65300Y-38000D01*
X65300Y-29800D02*
X65300Y-31500D01*
X65300Y-25900D02*
X65300Y-28000D01*
X65200Y-39900D02*
X65200Y-42000D01*
X65200Y-35600D02*
X65200Y-37900D01*
X65200Y-29900D02*
X65200Y-31400D01*
X65200Y-25900D02*
X65200Y-27900D01*
X65100Y-40000D02*
X65100Y-42000D01*
X65100Y-35600D02*
X65100Y-37800D01*
X65100Y-30000D02*
X65100Y-31400D01*
X65100Y-26000D02*
X65100Y-27800D01*
X65000Y-40000D02*
X65000Y-42000D01*
X65000Y-35600D02*
X65000Y-37800D01*
X65000Y-30000D02*
X65000Y-31400D01*
X65000Y-26000D02*
X65000Y-27800D01*
X64900Y-40100D02*
X64900Y-42000D01*
X64900Y-35600D02*
X64900Y-37700D01*
X64900Y-30100D02*
X64900Y-31400D01*
X64900Y-26000D02*
X64900Y-27700D01*
X64800Y-40100D02*
X64800Y-42000D01*
X64800Y-35600D02*
X64800Y-37700D01*
X64800Y-30100D02*
X64800Y-30800D01*
X64800Y-26000D02*
X64800Y-27700D01*
X64700Y-40100D02*
X64700Y-42000D01*
X64700Y-35600D02*
X64700Y-37700D01*
X64700Y-30100D02*
X64700Y-30800D01*
X64700Y-26000D02*
X64700Y-27700D01*
X64600Y-40100D02*
X64600Y-42000D01*
X64600Y-35600D02*
X64600Y-37700D01*
X64600Y-30100D02*
X64600Y-30800D01*
X64600Y-25900D02*
X64600Y-27700D01*
X64500Y-40100D02*
X64500Y-42000D01*
X64500Y-35600D02*
X64500Y-37700D01*
X64500Y-30100D02*
X64500Y-30800D01*
X64500Y-25900D02*
X64500Y-27700D01*
X64400Y-40100D02*
X64400Y-42000D01*
X64400Y-35700D02*
X64400Y-37700D01*
X64400Y-30100D02*
X64400Y-30800D01*
X64400Y-25900D02*
X64400Y-27700D01*
X64300Y-40100D02*
X64300Y-42000D01*
X64300Y-35700D02*
X64300Y-37700D01*
X64300Y-30100D02*
X64300Y-30800D01*
X64300Y-25900D02*
X64300Y-27700D01*
X64200Y-40100D02*
X64200Y-42000D01*
X64200Y-35800D02*
X64200Y-37700D01*
X64200Y-30100D02*
X64200Y-30800D01*
X64200Y-25900D02*
X64200Y-27700D01*
X64100Y-40100D02*
X64100Y-42000D01*
X64100Y-35800D02*
X64100Y-37700D01*
X64100Y-30100D02*
X64100Y-30800D01*
X64100Y-25400D02*
X64100Y-27700D01*
X64000Y-40000D02*
X64000Y-42000D01*
X64000Y-35800D02*
X64000Y-37800D01*
X64000Y-30000D02*
X64000Y-30800D01*
X64000Y-25100D02*
X64000Y-27800D01*
X63900Y-40000D02*
X63900Y-42000D01*
X63900Y-35800D02*
X63900Y-37800D01*
X63900Y-30000D02*
X63900Y-30800D01*
X63900Y-25100D02*
X63900Y-27800D01*
X63800Y-39900D02*
X63800Y-42000D01*
X63800Y-35800D02*
X63800Y-37900D01*
X63800Y-29900D02*
X63800Y-30800D01*
X63800Y-25100D02*
X63800Y-27900D01*
X63700Y-39800D02*
X63700Y-42000D01*
X63700Y-35700D02*
X63700Y-38000D01*
X63700Y-29800D02*
X63700Y-30800D01*
X63700Y-25100D02*
X63700Y-28000D01*
X63600Y-39700D02*
X63600Y-42000D01*
X63600Y-35700D02*
X63600Y-38100D01*
X63600Y-29700D02*
X63600Y-30800D01*
X63600Y-25100D02*
X63600Y-28100D01*
X63500Y-39600D02*
X63500Y-42000D01*
X63500Y-35600D02*
X63500Y-38200D01*
X63500Y-29600D02*
X63500Y-30800D01*
X63500Y-25100D02*
X63500Y-28200D01*
X63400Y-39400D02*
X63400Y-42000D01*
X63400Y-35500D02*
X63400Y-38400D01*
X63400Y-29400D02*
X63400Y-30800D01*
X63400Y-25100D02*
X63400Y-28400D01*
X63300Y-35300D02*
X63300Y-42000D01*
X63300Y-34600D02*
X63300Y-34700D01*
X63300Y-25100D02*
X63300Y-30800D01*
X63200Y-40400D02*
X63200Y-42000D01*
X63200Y-34600D02*
X63200Y-35500D01*
X63200Y-25100D02*
X63200Y-30800D01*
X63100Y-40600D02*
X63100Y-42000D01*
X63100Y-34600D02*
X63100Y-35300D01*
X63100Y-25100D02*
X63100Y-32100D01*
X63000Y-40700D02*
X63000Y-42000D01*
X63000Y-34600D02*
X63000Y-35200D01*
X63000Y-25100D02*
X63000Y-32100D01*
X62900Y-40800D02*
X62900Y-42000D01*
X62900Y-34600D02*
X62900Y-35200D01*
X62900Y-25100D02*
X62900Y-32100D01*
X62800Y-41200D02*
X62800Y-42000D01*
X62800Y-34600D02*
X62800Y-35100D01*
X62800Y-25100D02*
X62800Y-32100D01*
X62700Y-41400D02*
X62700Y-42000D01*
X62700Y-34600D02*
X62700Y-35100D01*
X62700Y-30200D02*
X62700Y-32100D01*
X62700Y-25100D02*
X62700Y-28400D01*
X62600Y-41600D02*
X62600Y-42000D01*
X62600Y-34600D02*
X62600Y-35100D01*
X62600Y-30200D02*
X62600Y-32100D01*
X62600Y-25100D02*
X62600Y-28400D01*
X62500Y-41600D02*
X62500Y-42000D01*
X62500Y-34600D02*
X62500Y-35100D01*
X62500Y-30200D02*
X62500Y-32100D01*
X62500Y-25100D02*
X62500Y-28400D01*
X62400Y-41700D02*
X62400Y-42000D01*
X62400Y-31100D02*
X62400Y-32100D01*
X62400Y-30300D02*
X62400Y-30500D01*
X62400Y-25100D02*
X62400Y-28400D01*
X62300Y-41700D02*
X62300Y-42000D01*
X62300Y-31300D02*
X62300Y-32100D01*
X62300Y-25100D02*
X62300Y-28400D01*
X62200Y-41800D02*
X62200Y-42000D01*
X62200Y-31500D02*
X62200Y-32100D01*
X62200Y-25400D02*
X62200Y-28400D01*
X62100Y-41800D02*
X62100Y-42000D01*
X62100Y-31500D02*
X62100Y-32100D01*
X62100Y-25900D02*
X62100Y-28400D01*
X62000Y-41800D02*
X62000Y-42000D01*
X62000Y-31600D02*
X62000Y-32000D01*
X62000Y-25900D02*
X62000Y-28400D01*
X61900Y-41800D02*
X61900Y-42000D01*
X61900Y-38600D02*
X61900Y-39900D01*
X61900Y-31600D02*
X61900Y-32000D01*
X61900Y-25900D02*
X61900Y-28400D01*
X61800Y-41800D02*
X61800Y-42000D01*
X61800Y-38700D02*
X61800Y-40000D01*
X61800Y-31700D02*
X61800Y-31900D01*
X61800Y-25900D02*
X61800Y-28400D01*
X61700Y-41700D02*
X61700Y-42000D01*
X61700Y-38700D02*
X61700Y-40100D01*
X61700Y-31700D02*
X61700Y-31900D01*
X61700Y-25900D02*
X61700Y-28400D01*
X61600Y-41700D02*
X61600Y-42000D01*
X61600Y-38700D02*
X61600Y-40100D01*
X61600Y-31700D02*
X61600Y-31900D01*
X61600Y-26000D02*
X61600Y-28400D01*
X61500Y-41600D02*
X61500Y-42000D01*
X61500Y-38700D02*
X61500Y-40200D01*
X61500Y-31700D02*
X61500Y-31900D01*
X61500Y-26000D02*
X61500Y-28400D01*
X61400Y-41600D02*
X61400Y-42000D01*
X61400Y-38700D02*
X61400Y-40200D01*
X61400Y-31700D02*
X61400Y-31900D01*
X61400Y-26000D02*
X61400Y-28400D01*
X61300Y-41400D02*
X61300Y-42000D01*
X61300Y-38600D02*
X61300Y-40400D01*
X61300Y-31600D02*
X61300Y-32000D01*
X61300Y-26000D02*
X61300Y-28400D01*
X61200Y-41200D02*
X61200Y-42000D01*
X61200Y-38600D02*
X61200Y-40600D01*
X61200Y-31600D02*
X61200Y-32000D01*
X61200Y-26000D02*
X61200Y-28400D01*
X61100Y-38500D02*
X61100Y-42000D01*
X61100Y-31500D02*
X61100Y-32100D01*
X61100Y-25900D02*
X61100Y-28400D01*
X61000Y-38500D02*
X61000Y-42000D01*
X61000Y-31500D02*
X61000Y-32100D01*
X61000Y-30000D02*
X61000Y-30100D01*
X61000Y-25900D02*
X61000Y-28600D01*
X60900Y-38300D02*
X60900Y-42000D01*
X60900Y-31300D02*
X60900Y-32300D01*
X60900Y-30000D02*
X60900Y-30300D01*
X60900Y-25900D02*
X60900Y-28600D01*
X60800Y-38100D02*
X60800Y-42000D01*
X60800Y-33100D02*
X60800Y-33500D01*
X60800Y-31100D02*
X60800Y-32500D01*
X60800Y-30000D02*
X60800Y-30500D01*
X60800Y-25900D02*
X60800Y-28600D01*
X60700Y-39600D02*
X60700Y-42000D01*
X60700Y-30000D02*
X60700Y-34100D01*
X60700Y-25900D02*
X60700Y-28600D01*
X60600Y-39800D02*
X60600Y-42000D01*
X60600Y-30000D02*
X60600Y-34100D01*
X60600Y-25400D02*
X60600Y-28600D01*
X60500Y-39900D02*
X60500Y-42000D01*
X60500Y-30000D02*
X60500Y-34100D01*
X60500Y-25100D02*
X60500Y-28600D01*
X60400Y-40000D02*
X60400Y-42000D01*
X60400Y-30000D02*
X60400Y-34200D01*
X60400Y-25100D02*
X60400Y-28600D01*
X60300Y-41200D02*
X60300Y-42000D01*
X60300Y-40100D02*
X60300Y-40600D01*
X60300Y-30000D02*
X60300Y-34200D01*
X60300Y-25100D02*
X60300Y-28600D01*
X60200Y-41400D02*
X60200Y-42000D01*
X60200Y-40200D02*
X60200Y-40400D01*
X60200Y-30000D02*
X60200Y-34200D01*
X60200Y-25100D02*
X60200Y-28600D01*
X60100Y-41600D02*
X60100Y-42000D01*
X60100Y-30000D02*
X60100Y-34200D01*
X60100Y-25100D02*
X60100Y-28600D01*
X60000Y-41600D02*
X60000Y-42000D01*
X60000Y-30000D02*
X60000Y-34200D01*
X60000Y-25100D02*
X60000Y-28600D01*
X59900Y-41700D02*
X59900Y-42000D01*
X59900Y-30000D02*
X59900Y-34200D01*
X59900Y-25100D02*
X59900Y-28600D01*
X59800Y-41700D02*
X59800Y-42000D01*
X59800Y-30000D02*
X59800Y-34300D01*
X59800Y-25100D02*
X59800Y-28500D01*
X59700Y-41800D02*
X59700Y-42000D01*
X59700Y-30000D02*
X59700Y-34300D01*
X59700Y-25100D02*
X59700Y-28400D01*
X59600Y-41800D02*
X59600Y-42000D01*
X59600Y-30000D02*
X59600Y-34400D01*
X59600Y-25100D02*
X59600Y-28300D01*
X59500Y-41800D02*
X59500Y-42000D01*
X59500Y-30000D02*
X59500Y-34600D01*
X59500Y-25100D02*
X59500Y-28200D01*
X59400Y-41800D02*
X59400Y-42000D01*
X59400Y-38100D02*
X59400Y-39100D01*
X59400Y-34100D02*
X59400Y-34500D01*
X59400Y-33100D02*
X59400Y-33500D01*
X59400Y-32100D02*
X59400Y-32500D01*
X59400Y-25100D02*
X59400Y-28200D01*
X59300Y-41800D02*
X59300Y-42000D01*
X59300Y-38300D02*
X59300Y-39200D01*
X59300Y-25100D02*
X59300Y-28100D01*
X59200Y-41700D02*
X59200Y-42000D01*
X59200Y-38500D02*
X59200Y-39300D01*
X59200Y-25100D02*
X59200Y-28000D01*
X59100Y-41700D02*
X59100Y-42000D01*
X59100Y-38500D02*
X59100Y-39400D01*
X59100Y-25100D02*
X59100Y-27900D01*
X59000Y-41600D02*
X59000Y-42000D01*
X59000Y-38600D02*
X59000Y-39500D01*
X59000Y-25100D02*
X59000Y-27800D01*
X58900Y-41600D02*
X58900Y-42000D01*
X58900Y-38600D02*
X58900Y-39700D01*
X58900Y-25100D02*
X58900Y-27800D01*
X58800Y-41400D02*
X58800Y-42000D01*
X58800Y-38700D02*
X58800Y-40400D01*
X58800Y-25100D02*
X58800Y-27700D01*
X58700Y-41200D02*
X58700Y-42000D01*
X58700Y-38700D02*
X58700Y-40600D01*
X58700Y-25400D02*
X58700Y-27700D01*
X58600Y-38700D02*
X58600Y-42000D01*
X58600Y-25900D02*
X58600Y-27700D01*
X58500Y-38700D02*
X58500Y-42000D01*
X58500Y-25900D02*
X58500Y-27700D01*
X58400Y-38700D02*
X58400Y-42000D01*
X58400Y-25900D02*
X58400Y-27700D01*
X58300Y-38600D02*
X58300Y-42000D01*
X58300Y-25900D02*
X58300Y-27700D01*
X58200Y-38600D02*
X58200Y-42000D01*
X58200Y-25900D02*
X58200Y-27700D01*
X58100Y-38700D02*
X58100Y-42000D01*
X58100Y-26000D02*
X58100Y-27700D01*
X58000Y-38900D02*
X58000Y-42000D01*
X58000Y-26000D02*
X58000Y-27700D01*
X57900Y-39000D02*
X57900Y-42000D01*
X57900Y-26000D02*
X57900Y-27700D01*
X57800Y-39100D02*
X57800Y-42000D01*
X57800Y-26000D02*
X57800Y-27700D01*
X57700Y-39200D02*
X57700Y-42000D01*
X57700Y-26000D02*
X57700Y-27700D01*
X57600Y-39300D02*
X57600Y-42000D01*
X57600Y-25900D02*
X57600Y-27700D01*
X57500Y-39400D02*
X57500Y-42000D01*
X57500Y-25900D02*
X57500Y-27700D01*
X57400Y-39400D02*
X57400Y-42000D01*
X57400Y-25900D02*
X57400Y-27700D01*
X57300Y-39500D02*
X57300Y-42000D01*
X57300Y-25900D02*
X57300Y-27700D01*
X57200Y-39500D02*
X57200Y-42000D01*
X57200Y-25900D02*
X57200Y-27700D01*
X57100Y-39500D02*
X57100Y-42000D01*
X57100Y-25400D02*
X57100Y-27700D01*
X57000Y-39500D02*
X57000Y-42000D01*
X57000Y-25100D02*
X57000Y-27700D01*
X56900Y-39500D02*
X56900Y-42000D01*
X56900Y-25100D02*
X56900Y-27700D01*
X56800Y-39500D02*
X56800Y-42000D01*
X56800Y-36300D02*
X56800Y-38100D01*
X56800Y-25100D02*
X56800Y-27700D01*
X56700Y-39500D02*
X56700Y-42000D01*
X56700Y-36300D02*
X56700Y-38100D01*
X56700Y-25100D02*
X56700Y-27700D01*
X56600Y-39500D02*
X56600Y-40500D01*
X56600Y-36400D02*
X56600Y-38100D01*
X56600Y-25100D02*
X56600Y-27700D01*
X56500Y-39500D02*
X56500Y-40500D01*
X56500Y-36400D02*
X56500Y-38100D01*
X56500Y-25100D02*
X56500Y-27700D01*
X56400Y-39500D02*
X56400Y-40500D01*
X56400Y-36500D02*
X56400Y-38100D01*
X56400Y-25100D02*
X56400Y-27700D01*
X56300Y-39500D02*
X56300Y-40500D01*
X56300Y-36500D02*
X56300Y-38100D01*
X56300Y-25100D02*
X56300Y-27700D01*
X56200Y-39600D02*
X56200Y-40500D01*
X56200Y-36500D02*
X56200Y-38000D01*
X56200Y-25100D02*
X56200Y-27700D01*
X56100Y-39600D02*
X56100Y-40500D01*
X56100Y-36500D02*
X56100Y-38000D01*
X56100Y-25100D02*
X56100Y-27700D01*
X56000Y-39700D02*
X56000Y-40500D01*
X56000Y-36500D02*
X56000Y-37900D01*
X56000Y-25100D02*
X56000Y-27800D01*
X55900Y-39700D02*
X55900Y-40500D01*
X55900Y-36400D02*
X55900Y-37900D01*
X55900Y-25100D02*
X55900Y-27800D01*
X55800Y-39700D02*
X55800Y-40500D01*
X55800Y-36400D02*
X55800Y-37900D01*
X55800Y-25100D02*
X55800Y-27900D01*
X55700Y-39700D02*
X55700Y-40500D01*
X55700Y-36300D02*
X55700Y-37900D01*
X55700Y-25100D02*
X55700Y-28000D01*
X55600Y-39700D02*
X55600Y-40500D01*
X55600Y-36300D02*
X55600Y-37900D01*
X55600Y-25100D02*
X55600Y-28100D01*
X55500Y-39600D02*
X55500Y-40500D01*
X55500Y-36100D02*
X55500Y-38000D01*
X55500Y-25100D02*
X55500Y-28200D01*
X55400Y-39600D02*
X55400Y-40500D01*
X55400Y-35900D02*
X55400Y-38000D01*
X55400Y-25100D02*
X55400Y-28300D01*
X55300Y-39500D02*
X55300Y-40500D01*
X55300Y-34100D02*
X55300Y-38100D01*
X55300Y-25100D02*
X55300Y-28400D01*
X55200Y-39500D02*
X55200Y-40500D01*
X55200Y-34100D02*
X55200Y-38100D01*
X55200Y-25400D02*
X55200Y-28500D01*
X55100Y-39300D02*
X55100Y-40500D01*
X55100Y-34100D02*
X55100Y-38300D01*
X55100Y-25900D02*
X55100Y-28600D01*
X55000Y-39100D02*
X55000Y-40500D01*
X55000Y-34100D02*
X55000Y-38500D01*
X55000Y-25900D02*
X55000Y-28600D01*
X54900Y-34100D02*
X54900Y-40700D01*
X54900Y-25900D02*
X54900Y-28700D01*
X54800Y-34200D02*
X54800Y-40700D01*
X54800Y-25900D02*
X54800Y-28800D01*
X54700Y-34300D02*
X54700Y-40700D01*
X54700Y-25900D02*
X54700Y-28900D01*
X54600Y-34400D02*
X54600Y-40700D01*
X54600Y-26000D02*
X54600Y-29000D01*
X54500Y-34500D02*
X54500Y-40700D01*
X54500Y-26000D02*
X54500Y-29100D01*
X54400Y-34600D02*
X54400Y-40700D01*
X54400Y-26000D02*
X54400Y-29200D01*
X54300Y-34700D02*
X54300Y-40700D01*
X54300Y-26000D02*
X54300Y-29300D01*
X54200Y-34800D02*
X54200Y-40700D01*
X54200Y-26000D02*
X54200Y-29400D01*
X54100Y-34900D02*
X54100Y-40700D01*
X54100Y-25900D02*
X54100Y-29500D01*
X54000Y-35000D02*
X54000Y-40700D01*
X54000Y-25900D02*
X54000Y-29500D01*
X53900Y-35100D02*
X53900Y-40700D01*
X53900Y-25900D02*
X53900Y-29600D01*
X53800Y-35200D02*
X53800Y-40700D01*
X53800Y-25900D02*
X53800Y-29700D01*
X53700Y-35300D02*
X53700Y-40700D01*
X53700Y-25900D02*
X53700Y-29900D01*
X53600Y-35400D02*
X53600Y-40700D01*
X53600Y-25400D02*
X53600Y-33400D01*
X53500Y-35500D02*
X53500Y-40800D01*
X53500Y-25100D02*
X53500Y-33500D01*
X53400Y-35600D02*
X53400Y-40800D01*
X53400Y-25100D02*
X53400Y-33600D01*
X53300Y-35700D02*
X53300Y-40800D01*
X53300Y-25100D02*
X53300Y-33700D01*
X53200Y-35800D02*
X53200Y-40800D01*
X53200Y-25100D02*
X53200Y-33800D01*
X53100Y-35900D02*
X53100Y-40800D01*
X53100Y-25100D02*
X53100Y-33900D01*
X53000Y-36200D02*
X53000Y-40800D01*
X53000Y-25100D02*
X53000Y-34000D01*
X52900Y-36500D02*
X52900Y-40800D01*
X52900Y-25100D02*
X52900Y-34100D01*
X52800Y-36800D02*
X52800Y-40800D01*
X52800Y-25100D02*
X52800Y-34200D01*
X52700Y-37200D02*
X52700Y-40800D01*
X52700Y-25100D02*
X52700Y-34300D01*
X52600Y-38200D02*
X52600Y-40800D01*
X52600Y-37500D02*
X52600Y-37600D01*
X52600Y-25100D02*
X52600Y-34400D01*
X52500Y-38400D02*
X52500Y-40800D01*
X52500Y-25100D02*
X52500Y-34500D01*
X52400Y-38600D02*
X52400Y-40800D01*
X52400Y-25100D02*
X52400Y-34600D01*
X52300Y-38600D02*
X52300Y-40800D01*
X52300Y-25100D02*
X52300Y-34700D01*
X52200Y-38700D02*
X52200Y-40800D01*
X52200Y-25100D02*
X52200Y-34800D01*
X52100Y-38700D02*
X52100Y-40900D01*
X52100Y-25100D02*
X52100Y-34900D01*
X52000Y-38800D02*
X52000Y-40900D01*
X52000Y-25100D02*
X52000Y-35000D01*
X51900Y-38800D02*
X51900Y-40900D01*
X51900Y-25100D02*
X51900Y-35200D01*
X51800Y-38800D02*
X51800Y-40900D01*
X51800Y-25100D02*
X51800Y-35500D01*
X51700Y-38800D02*
X51700Y-40800D01*
X51700Y-25400D02*
X51700Y-35900D01*
X51600Y-39800D02*
X51600Y-40800D01*
X51600Y-25900D02*
X51600Y-36200D01*
X51500Y-39800D02*
X51500Y-40700D01*
X51500Y-25900D02*
X51500Y-36600D01*
X51400Y-39800D02*
X51400Y-40700D01*
X51400Y-25900D02*
X51400Y-36900D01*
X51300Y-39800D02*
X51300Y-40700D01*
X51300Y-25900D02*
X51300Y-37200D01*
X51200Y-39800D02*
X51200Y-40700D01*
X51200Y-25900D02*
X51200Y-37200D01*
X51100Y-39800D02*
X51100Y-40700D01*
X51100Y-26000D02*
X51100Y-37400D01*
X51000Y-39800D02*
X51000Y-40800D01*
X51000Y-26000D02*
X51000Y-37600D01*
X50900Y-39800D02*
X50900Y-40800D01*
X50900Y-26000D02*
X50900Y-38000D01*
X50800Y-39800D02*
X50800Y-40900D01*
X50800Y-26000D02*
X50800Y-38000D01*
X50700Y-39800D02*
X50700Y-40900D01*
X50700Y-26000D02*
X50700Y-38000D01*
X50600Y-39800D02*
X50600Y-41100D01*
X50600Y-25900D02*
X50600Y-38000D01*
X50500Y-41900D02*
X50500Y-42000D01*
X50500Y-39800D02*
X50500Y-41300D01*
X50500Y-25900D02*
X50500Y-38000D01*
X50400Y-39800D02*
X50400Y-42000D01*
X50400Y-25900D02*
X50400Y-38000D01*
X50300Y-39800D02*
X50300Y-42000D01*
X50300Y-25900D02*
X50300Y-38000D01*
X50200Y-39800D02*
X50200Y-42000D01*
X50200Y-25900D02*
X50200Y-38000D01*
X50100Y-39800D02*
X50100Y-42000D01*
X50100Y-25400D02*
X50100Y-38000D01*
X50000Y-39800D02*
X50000Y-42000D01*
X50000Y-25100D02*
X50000Y-38000D01*
X49900Y-39700D02*
X49900Y-42000D01*
X49900Y-25100D02*
X49900Y-38200D01*
X49800Y-39700D02*
X49800Y-42000D01*
X49800Y-25100D02*
X49800Y-38200D01*
X49700Y-39700D02*
X49700Y-42000D01*
X49700Y-25100D02*
X49700Y-38200D01*
X49600Y-39800D02*
X49600Y-42000D01*
X49600Y-25100D02*
X49600Y-38300D01*
X49500Y-39800D02*
X49500Y-42000D01*
X49500Y-25100D02*
X49500Y-38300D01*
X49400Y-39900D02*
X49400Y-42000D01*
X49400Y-25100D02*
X49400Y-38400D01*
X49300Y-39900D02*
X49300Y-42000D01*
X49300Y-25100D02*
X49300Y-38400D01*
X49200Y-40000D02*
X49200Y-42000D01*
X49200Y-25100D02*
X49200Y-38400D01*
X49100Y-41900D02*
X49100Y-42000D01*
X49100Y-40000D02*
X49100Y-41300D01*
X49100Y-25100D02*
X49100Y-38500D01*
X49000Y-40100D02*
X49000Y-41100D01*
X49000Y-25100D02*
X49000Y-38500D01*
X48900Y-25100D02*
X48900Y-38600D01*
X48800Y-25100D02*
X48800Y-38600D01*
X48700Y-25100D02*
X48700Y-38700D01*
X48600Y-25100D02*
X48600Y-38700D01*
X48500Y-25100D02*
X48500Y-38800D01*
X48400Y-25100D02*
X48400Y-38800D01*
X48300Y-25100D02*
X48300Y-38800D01*
X48200Y-25400D02*
X48200Y-38900D01*
X48100Y-25900D02*
X48100Y-38900D01*
X48000Y-25900D02*
X48000Y-39000D01*
X47900Y-25900D02*
X47900Y-39000D01*
X47800Y-25900D02*
X47800Y-39100D01*
X47700Y-25900D02*
X47700Y-39300D01*
X47600Y-26000D02*
X47600Y-40900D01*
X47500Y-26000D02*
X47500Y-40900D01*
X47400Y-26000D02*
X47400Y-40900D01*
X47300Y-26000D02*
X47300Y-40900D01*
X47200Y-26000D02*
X47200Y-40900D01*
X47100Y-25900D02*
X47100Y-40900D01*
X47000Y-25900D02*
X47000Y-40900D01*
X46900Y-25900D02*
X46900Y-40900D01*
X46800Y-25900D02*
X46800Y-40900D01*
X46700Y-25900D02*
X46700Y-40900D01*
X46600Y-25400D02*
X46600Y-40900D01*
X46500Y-25100D02*
X46500Y-40900D01*
X46400Y-25100D02*
X46400Y-40900D01*
X46300Y-25100D02*
X46300Y-40900D01*
X46200Y-25100D02*
X46200Y-40900D01*
X46100Y-25100D02*
X46100Y-40900D01*
X46000Y-25100D02*
X46000Y-40900D01*
X45900Y-25100D02*
X45900Y-40900D01*
X45800Y-25100D02*
X45800Y-40900D01*
X45700Y-25100D02*
X45700Y-40900D01*
X45600Y-25100D02*
X45600Y-40900D01*
X45500Y-25100D02*
X45500Y-40900D01*
X45400Y-34500D02*
X45400Y-40900D01*
X45400Y-25100D02*
X45400Y-29500D01*
X45300Y-34500D02*
X45300Y-40900D01*
X45300Y-25100D02*
X45300Y-29500D01*
X45200Y-34500D02*
X45200Y-40900D01*
X45200Y-25100D02*
X45200Y-29500D01*
X45100Y-34500D02*
X45100Y-40900D01*
X45100Y-25100D02*
X45100Y-29500D01*
X45000Y-34500D02*
X45000Y-40900D01*
X45000Y-25100D02*
X45000Y-29500D01*
X44900Y-34500D02*
X44900Y-40900D01*
X44900Y-25100D02*
X44900Y-29500D01*
X44800Y-34500D02*
X44800Y-40900D01*
X44800Y-25100D02*
X44800Y-29500D01*
X44700Y-34500D02*
X44700Y-40900D01*
X44700Y-25400D02*
X44700Y-29500D01*
X44600Y-34500D02*
X44600Y-40900D01*
X44600Y-25900D02*
X44600Y-29500D01*
X44500Y-34500D02*
X44500Y-40900D01*
X44500Y-25900D02*
X44500Y-29500D01*
X44400Y-34500D02*
X44400Y-40900D01*
X44400Y-25900D02*
X44400Y-29500D01*
X44300Y-34500D02*
X44300Y-40900D01*
X44300Y-25900D02*
X44300Y-29500D01*
X44200Y-34500D02*
X44200Y-40900D01*
X44200Y-25900D02*
X44200Y-29500D01*
X44100Y-34500D02*
X44100Y-40800D01*
X44100Y-26000D02*
X44100Y-29500D01*
X44000Y-34500D02*
X44000Y-40700D01*
X44000Y-26000D02*
X44000Y-29500D01*
X43900Y-34500D02*
X43900Y-40600D01*
X43900Y-26000D02*
X43900Y-29500D01*
X43800Y-36200D02*
X43800Y-39800D01*
X43800Y-26000D02*
X43800Y-28000D01*
X43700Y-26000D02*
X43700Y-27800D01*
X43600Y-25900D02*
X43600Y-27600D01*
X43500Y-25900D02*
X43500Y-27500D01*
X43400Y-25900D02*
X43400Y-27400D01*
X43300Y-25900D02*
X43300Y-27300D01*
X43200Y-25900D02*
X43200Y-27200D01*
X43100Y-25400D02*
X43100Y-27100D01*
X43000Y-25100D02*
X43000Y-27000D01*
X42900Y-25100D02*
X42900Y-26900D01*
X42800Y-25100D02*
X42800Y-26800D01*
X42700Y-25100D02*
X42700Y-26700D01*
X42600Y-25100D02*
X42600Y-26600D01*
X42500Y-25100D02*
X42500Y-26500D01*
X56700Y-42000D02*
X65800Y-42000D01*
X49100Y-42000D02*
X50500Y-42000D01*
X56700Y-41900D02*
X65700Y-41900D01*
X49100Y-41900D02*
X50500Y-41900D01*
X56700Y-41800D02*
X65700Y-41800D01*
X49200Y-41800D02*
X50400Y-41800D01*
X62300Y-41700D02*
X65600Y-41700D01*
X59800Y-41700D02*
X61700Y-41700D01*
X56700Y-41700D02*
X59200Y-41700D01*
X49200Y-41700D02*
X50400Y-41700D01*
X62500Y-41600D02*
X65600Y-41600D01*
X60000Y-41600D02*
X61500Y-41600D01*
X56700Y-41600D02*
X59000Y-41600D01*
X49200Y-41600D02*
X50400Y-41600D01*
X62700Y-41500D02*
X65600Y-41500D01*
X60200Y-41500D02*
X61300Y-41500D01*
X56700Y-41500D02*
X58800Y-41500D01*
X49200Y-41500D02*
X50400Y-41500D01*
X62700Y-41400D02*
X65600Y-41400D01*
X60200Y-41400D02*
X61300Y-41400D01*
X56700Y-41400D02*
X58800Y-41400D01*
X49200Y-41400D02*
X50400Y-41400D01*
X62800Y-41300D02*
X65600Y-41300D01*
X60300Y-41300D02*
X61200Y-41300D01*
X56700Y-41300D02*
X58700Y-41300D01*
X49100Y-41300D02*
X50500Y-41300D01*
X62800Y-41200D02*
X65700Y-41200D01*
X60300Y-41200D02*
X61200Y-41200D01*
X56700Y-41200D02*
X58700Y-41200D01*
X49100Y-41200D02*
X50500Y-41200D01*
X62900Y-41100D02*
X65700Y-41100D01*
X60400Y-41100D02*
X61100Y-41100D01*
X56700Y-41100D02*
X58600Y-41100D01*
X49000Y-41100D02*
X50600Y-41100D01*
X62900Y-41000D02*
X65800Y-41000D01*
X60400Y-41000D02*
X61100Y-41000D01*
X56700Y-41000D02*
X58600Y-41000D01*
X49000Y-41000D02*
X50600Y-41000D01*
X62900Y-40900D02*
X65800Y-40900D01*
X60400Y-40900D02*
X61100Y-40900D01*
X56700Y-40900D02*
X58600Y-40900D01*
X51800Y-40900D02*
X52100Y-40900D01*
X49000Y-40900D02*
X50800Y-40900D01*
X44200Y-40900D02*
X47600Y-40900D01*
X62900Y-40800D02*
X66000Y-40800D01*
X60400Y-40800D02*
X61100Y-40800D01*
X56700Y-40800D02*
X58600Y-40800D01*
X51600Y-40800D02*
X53500Y-40800D01*
X49000Y-40800D02*
X51000Y-40800D01*
X44100Y-40800D02*
X47600Y-40800D01*
X66800Y-40700D02*
X67000Y-40700D01*
X63000Y-40700D02*
X66200Y-40700D01*
X60400Y-40700D02*
X61100Y-40700D01*
X56700Y-40700D02*
X58600Y-40700D01*
X49000Y-40700D02*
X54900Y-40700D01*
X44000Y-40700D02*
X47600Y-40700D01*
X63100Y-40600D02*
X67000Y-40600D01*
X60300Y-40600D02*
X61200Y-40600D01*
X56700Y-40600D02*
X58700Y-40600D01*
X49000Y-40600D02*
X54900Y-40600D01*
X43900Y-40600D02*
X47600Y-40600D01*
X63200Y-40500D02*
X67000Y-40500D01*
X60300Y-40500D02*
X61200Y-40500D01*
X49000Y-40500D02*
X58700Y-40500D01*
X43900Y-40500D02*
X47600Y-40500D01*
X63200Y-40400D02*
X67000Y-40400D01*
X60200Y-40400D02*
X61300Y-40400D01*
X49000Y-40400D02*
X58800Y-40400D01*
X43900Y-40400D02*
X47600Y-40400D01*
X63300Y-40300D02*
X67000Y-40300D01*
X60200Y-40300D02*
X61300Y-40300D01*
X49000Y-40300D02*
X58800Y-40300D01*
X43900Y-40300D02*
X47600Y-40300D01*
X63300Y-40200D02*
X67000Y-40200D01*
X60200Y-40200D02*
X61500Y-40200D01*
X49000Y-40200D02*
X58800Y-40200D01*
X43900Y-40200D02*
X47600Y-40200D01*
X63300Y-40100D02*
X67000Y-40100D01*
X60300Y-40100D02*
X61700Y-40100D01*
X49000Y-40100D02*
X58800Y-40100D01*
X43900Y-40100D02*
X47600Y-40100D01*
X65000Y-40000D02*
X67000Y-40000D01*
X63300Y-40000D02*
X64000Y-40000D01*
X60400Y-40000D02*
X61800Y-40000D01*
X49100Y-40000D02*
X58800Y-40000D01*
X43900Y-40000D02*
X47600Y-40000D01*
X65200Y-39900D02*
X67000Y-39900D01*
X63300Y-39900D02*
X63800Y-39900D01*
X60500Y-39900D02*
X61900Y-39900D01*
X49300Y-39900D02*
X58800Y-39900D01*
X43900Y-39900D02*
X47600Y-39900D01*
X65300Y-39800D02*
X67000Y-39800D01*
X63300Y-39800D02*
X63700Y-39800D01*
X60600Y-39800D02*
X61900Y-39800D01*
X49500Y-39800D02*
X58800Y-39800D01*
X43800Y-39800D02*
X47600Y-39800D01*
X65400Y-39700D02*
X67000Y-39700D01*
X63300Y-39700D02*
X63600Y-39700D01*
X60700Y-39700D02*
X61900Y-39700D01*
X51700Y-39700D02*
X58900Y-39700D01*
X49700Y-39700D02*
X49900Y-39700D01*
X43800Y-39700D02*
X47600Y-39700D01*
X65500Y-39600D02*
X67000Y-39600D01*
X63300Y-39600D02*
X63500Y-39600D01*
X60700Y-39600D02*
X61900Y-39600D01*
X56100Y-39600D02*
X58900Y-39600D01*
X51700Y-39600D02*
X55500Y-39600D01*
X43800Y-39600D02*
X47600Y-39600D01*
X65600Y-39500D02*
X67000Y-39500D01*
X63300Y-39500D02*
X63400Y-39500D01*
X60800Y-39500D02*
X61900Y-39500D01*
X56300Y-39500D02*
X59000Y-39500D01*
X51700Y-39500D02*
X55300Y-39500D01*
X43800Y-39500D02*
X47600Y-39500D01*
X65600Y-39400D02*
X67000Y-39400D01*
X63300Y-39400D02*
X63400Y-39400D01*
X60800Y-39400D02*
X61900Y-39400D01*
X57400Y-39400D02*
X59100Y-39400D01*
X51700Y-39400D02*
X55100Y-39400D01*
X43800Y-39400D02*
X47600Y-39400D01*
X65700Y-39300D02*
X67000Y-39300D01*
X60800Y-39300D02*
X61900Y-39300D01*
X57600Y-39300D02*
X59200Y-39300D01*
X51700Y-39300D02*
X55100Y-39300D01*
X43800Y-39300D02*
X47700Y-39300D01*
X65700Y-39200D02*
X67000Y-39200D01*
X60800Y-39200D02*
X61900Y-39200D01*
X57700Y-39200D02*
X59300Y-39200D01*
X51700Y-39200D02*
X55000Y-39200D01*
X43800Y-39200D02*
X47700Y-39200D01*
X65700Y-39100D02*
X67000Y-39100D01*
X60800Y-39100D02*
X61900Y-39100D01*
X57800Y-39100D02*
X59400Y-39100D01*
X51700Y-39100D02*
X55000Y-39100D01*
X43800Y-39100D02*
X47800Y-39100D01*
X65700Y-39000D02*
X67000Y-39000D01*
X60800Y-39000D02*
X61900Y-39000D01*
X57900Y-39000D02*
X59400Y-39000D01*
X51700Y-39000D02*
X54900Y-39000D01*
X43800Y-39000D02*
X48000Y-39000D01*
X65700Y-38900D02*
X67000Y-38900D01*
X60800Y-38900D02*
X61900Y-38900D01*
X58000Y-38900D02*
X59400Y-38900D01*
X51700Y-38900D02*
X54900Y-38900D01*
X43800Y-38900D02*
X48200Y-38900D01*
X65700Y-38800D02*
X67000Y-38800D01*
X60800Y-38800D02*
X61900Y-38800D01*
X58100Y-38800D02*
X59400Y-38800D01*
X51700Y-38800D02*
X54900Y-38800D01*
X43800Y-38800D02*
X48500Y-38800D01*
X65700Y-38700D02*
X67000Y-38700D01*
X60800Y-38700D02*
X61900Y-38700D01*
X58100Y-38700D02*
X59400Y-38700D01*
X52100Y-38700D02*
X54900Y-38700D01*
X43800Y-38700D02*
X48700Y-38700D01*
X65700Y-38600D02*
X67000Y-38600D01*
X60800Y-38600D02*
X61300Y-38600D01*
X58900Y-38600D02*
X59400Y-38600D01*
X58200Y-38600D02*
X58300Y-38600D01*
X52300Y-38600D02*
X54900Y-38600D01*
X43800Y-38600D02*
X48900Y-38600D01*
X65700Y-38500D02*
X67000Y-38500D01*
X60800Y-38500D02*
X61100Y-38500D01*
X59100Y-38500D02*
X59400Y-38500D01*
X52500Y-38500D02*
X55000Y-38500D01*
X43800Y-38500D02*
X49100Y-38500D01*
X65600Y-38400D02*
X67000Y-38400D01*
X63300Y-38400D02*
X63400Y-38400D01*
X60800Y-38400D02*
X60900Y-38400D01*
X59300Y-38400D02*
X59400Y-38400D01*
X52500Y-38400D02*
X55000Y-38400D01*
X43800Y-38400D02*
X49400Y-38400D01*
X65600Y-38300D02*
X67000Y-38300D01*
X63300Y-38300D02*
X63400Y-38300D01*
X60800Y-38300D02*
X60900Y-38300D01*
X59300Y-38300D02*
X59400Y-38300D01*
X52600Y-38300D02*
X55100Y-38300D01*
X43800Y-38300D02*
X49600Y-38300D01*
X65500Y-38200D02*
X67000Y-38200D01*
X63300Y-38200D02*
X63500Y-38200D01*
X52600Y-38200D02*
X55100Y-38200D01*
X43800Y-38200D02*
X49900Y-38200D01*
X65400Y-38100D02*
X67000Y-38100D01*
X63300Y-38100D02*
X63600Y-38100D01*
X56300Y-38100D02*
X56800Y-38100D01*
X52700Y-38100D02*
X55300Y-38100D01*
X43800Y-38100D02*
X49900Y-38100D01*
X65300Y-38000D02*
X67000Y-38000D01*
X63300Y-38000D02*
X63700Y-38000D01*
X56100Y-38000D02*
X56800Y-38000D01*
X52700Y-38000D02*
X55500Y-38000D01*
X43800Y-38000D02*
X50900Y-38000D01*
X65200Y-37900D02*
X67000Y-37900D01*
X63300Y-37900D02*
X63800Y-37900D01*
X52700Y-37900D02*
X56800Y-37900D01*
X43800Y-37900D02*
X50900Y-37900D01*
X65000Y-37800D02*
X67000Y-37800D01*
X63300Y-37800D02*
X64000Y-37800D01*
X52700Y-37800D02*
X56800Y-37800D01*
X43800Y-37800D02*
X50900Y-37800D01*
X63300Y-37700D02*
X67000Y-37700D01*
X52700Y-37700D02*
X56800Y-37700D01*
X43800Y-37700D02*
X50900Y-37700D01*
X63300Y-37600D02*
X67000Y-37600D01*
X52600Y-37600D02*
X56800Y-37600D01*
X43800Y-37600D02*
X51000Y-37600D01*
X63300Y-37500D02*
X67000Y-37500D01*
X52600Y-37500D02*
X56800Y-37500D01*
X43800Y-37500D02*
X51000Y-37500D01*
X63300Y-37400D02*
X67000Y-37400D01*
X52700Y-37400D02*
X56800Y-37400D01*
X43800Y-37400D02*
X51100Y-37400D01*
X63300Y-37300D02*
X67000Y-37300D01*
X52700Y-37300D02*
X56800Y-37300D01*
X43800Y-37300D02*
X51100Y-37300D01*
X63300Y-37200D02*
X67000Y-37200D01*
X52700Y-37200D02*
X56800Y-37200D01*
X43800Y-37200D02*
X51300Y-37200D01*
X63300Y-37100D02*
X67000Y-37100D01*
X52800Y-37100D02*
X56800Y-37100D01*
X43800Y-37100D02*
X51300Y-37100D01*
X63300Y-37000D02*
X67000Y-37000D01*
X52800Y-37000D02*
X56800Y-37000D01*
X43800Y-37000D02*
X51300Y-37000D01*
X63300Y-36900D02*
X67000Y-36900D01*
X52800Y-36900D02*
X56800Y-36900D01*
X43800Y-36900D02*
X51400Y-36900D01*
X63300Y-36800D02*
X67000Y-36800D01*
X52800Y-36800D02*
X56800Y-36800D01*
X43800Y-36800D02*
X51400Y-36800D01*
X63300Y-36700D02*
X67000Y-36700D01*
X52900Y-36700D02*
X56800Y-36700D01*
X43800Y-36700D02*
X51400Y-36700D01*
X63300Y-36600D02*
X67000Y-36600D01*
X52900Y-36600D02*
X56800Y-36600D01*
X43800Y-36600D02*
X51500Y-36600D01*
X63300Y-36500D02*
X67000Y-36500D01*
X52900Y-36500D02*
X56800Y-36500D01*
X43800Y-36500D02*
X51500Y-36500D01*
X63300Y-36400D02*
X67000Y-36400D01*
X56500Y-36400D02*
X56800Y-36400D01*
X53000Y-36400D02*
X55900Y-36400D01*
X43800Y-36400D02*
X51500Y-36400D01*
X63300Y-36300D02*
X67000Y-36300D01*
X56700Y-36300D02*
X56800Y-36300D01*
X53000Y-36300D02*
X55700Y-36300D01*
X43800Y-36300D02*
X51500Y-36300D01*
X63300Y-36200D02*
X67000Y-36200D01*
X53000Y-36200D02*
X55500Y-36200D01*
X43800Y-36200D02*
X51600Y-36200D01*
X63300Y-36100D02*
X67000Y-36100D01*
X53100Y-36100D02*
X55500Y-36100D01*
X43900Y-36100D02*
X51600Y-36100D01*
X63300Y-36000D02*
X67000Y-36000D01*
X53100Y-36000D02*
X55400Y-36000D01*
X43900Y-36000D02*
X51600Y-36000D01*
X63300Y-35900D02*
X67000Y-35900D01*
X53100Y-35900D02*
X55400Y-35900D01*
X43900Y-35900D02*
X51700Y-35900D01*
X63300Y-35800D02*
X67000Y-35800D01*
X53200Y-35800D02*
X55300Y-35800D01*
X43900Y-35800D02*
X51700Y-35800D01*
X64300Y-35700D02*
X67000Y-35700D01*
X63300Y-35700D02*
X63700Y-35700D01*
X53300Y-35700D02*
X55300Y-35700D01*
X43900Y-35700D02*
X51700Y-35700D01*
X64500Y-35600D02*
X67000Y-35600D01*
X63300Y-35600D02*
X63500Y-35600D01*
X53400Y-35600D02*
X55300Y-35600D01*
X43900Y-35600D02*
X51700Y-35600D01*
X65800Y-35500D02*
X67000Y-35500D01*
X63200Y-35500D02*
X63400Y-35500D01*
X53500Y-35500D02*
X55300Y-35500D01*
X43900Y-35500D02*
X51800Y-35500D01*
X66000Y-35400D02*
X67000Y-35400D01*
X63200Y-35400D02*
X63300Y-35400D01*
X53600Y-35400D02*
X55300Y-35400D01*
X43900Y-35400D02*
X51800Y-35400D01*
X66100Y-35300D02*
X67000Y-35300D01*
X63100Y-35300D02*
X63300Y-35300D01*
X53700Y-35300D02*
X55300Y-35300D01*
X43900Y-35300D02*
X51800Y-35300D01*
X66200Y-35200D02*
X67000Y-35200D01*
X62900Y-35200D02*
X63200Y-35200D01*
X53800Y-35200D02*
X55300Y-35200D01*
X43900Y-35200D02*
X51900Y-35200D01*
X66300Y-35100D02*
X67000Y-35100D01*
X62400Y-35100D02*
X63200Y-35100D01*
X53900Y-35100D02*
X55300Y-35100D01*
X43900Y-35100D02*
X51900Y-35100D01*
X66300Y-35000D02*
X67000Y-35000D01*
X62500Y-35000D02*
X63200Y-35000D01*
X54000Y-35000D02*
X55300Y-35000D01*
X43900Y-35000D02*
X52000Y-35000D01*
X66400Y-34900D02*
X67000Y-34900D01*
X62500Y-34900D02*
X63200Y-34900D01*
X54100Y-34900D02*
X55300Y-34900D01*
X43900Y-34900D02*
X52100Y-34900D01*
X66400Y-34800D02*
X67000Y-34800D01*
X62500Y-34800D02*
X63200Y-34800D01*
X54200Y-34800D02*
X55300Y-34800D01*
X43900Y-34800D02*
X52200Y-34800D01*
X66400Y-34700D02*
X67000Y-34700D01*
X62500Y-34700D02*
X63300Y-34700D01*
X54300Y-34700D02*
X55300Y-34700D01*
X43900Y-34700D02*
X52300Y-34700D01*
X66400Y-34600D02*
X67000Y-34600D01*
X62500Y-34600D02*
X63300Y-34600D01*
X54400Y-34600D02*
X55300Y-34600D01*
X43900Y-34600D02*
X52400Y-34600D01*
X66400Y-34500D02*
X67000Y-34500D01*
X59400Y-34500D02*
X59500Y-34500D01*
X54500Y-34500D02*
X55300Y-34500D01*
X43900Y-34500D02*
X52500Y-34500D01*
X66400Y-34400D02*
X67000Y-34400D01*
X59400Y-34400D02*
X59600Y-34400D01*
X54600Y-34400D02*
X55300Y-34400D01*
X45500Y-34400D02*
X52600Y-34400D01*
X66400Y-34300D02*
X67000Y-34300D01*
X59300Y-34300D02*
X59800Y-34300D01*
X54700Y-34300D02*
X55300Y-34300D01*
X45500Y-34300D02*
X52700Y-34300D01*
X66400Y-34200D02*
X67000Y-34200D01*
X59400Y-34200D02*
X60400Y-34200D01*
X54800Y-34200D02*
X55300Y-34200D01*
X45500Y-34200D02*
X52800Y-34200D01*
X66400Y-34100D02*
X67000Y-34100D01*
X59400Y-34100D02*
X60800Y-34100D01*
X54900Y-34100D02*
X55300Y-34100D01*
X45500Y-34100D02*
X52900Y-34100D01*
X66400Y-34000D02*
X67000Y-34000D01*
X59500Y-34000D02*
X60700Y-34000D01*
X45500Y-34000D02*
X53000Y-34000D01*
X66400Y-33900D02*
X67000Y-33900D01*
X59500Y-33900D02*
X60700Y-33900D01*
X45500Y-33900D02*
X53100Y-33900D01*
X66400Y-33800D02*
X67000Y-33800D01*
X59500Y-33800D02*
X60700Y-33800D01*
X45500Y-33800D02*
X53200Y-33800D01*
X66400Y-33700D02*
X67000Y-33700D01*
X59500Y-33700D02*
X60700Y-33700D01*
X45500Y-33700D02*
X53300Y-33700D01*
X66400Y-33600D02*
X67000Y-33600D01*
X59500Y-33600D02*
X60700Y-33600D01*
X45500Y-33600D02*
X53400Y-33600D01*
X66400Y-33500D02*
X67000Y-33500D01*
X59400Y-33500D02*
X60800Y-33500D01*
X45500Y-33500D02*
X53500Y-33500D01*
X66400Y-33400D02*
X67000Y-33400D01*
X59400Y-33400D02*
X60800Y-33400D01*
X45500Y-33400D02*
X53600Y-33400D01*
X66400Y-33300D02*
X67000Y-33300D01*
X59300Y-33300D02*
X60900Y-33300D01*
X45500Y-33300D02*
X53600Y-33300D01*
X66400Y-33200D02*
X67000Y-33200D01*
X59400Y-33200D02*
X60800Y-33200D01*
X45500Y-33200D02*
X53600Y-33200D01*
X66400Y-33100D02*
X67000Y-33100D01*
X59400Y-33100D02*
X60800Y-33100D01*
X45500Y-33100D02*
X53600Y-33100D01*
X66400Y-33000D02*
X67000Y-33000D01*
X59500Y-33000D02*
X60700Y-33000D01*
X45500Y-33000D02*
X53600Y-33000D01*
X66400Y-32900D02*
X67000Y-32900D01*
X59500Y-32900D02*
X60700Y-32900D01*
X45500Y-32900D02*
X53600Y-32900D01*
X66400Y-32800D02*
X67000Y-32800D01*
X59500Y-32800D02*
X60700Y-32800D01*
X45500Y-32800D02*
X53600Y-32800D01*
X66400Y-32700D02*
X67000Y-32700D01*
X59500Y-32700D02*
X60700Y-32700D01*
X45500Y-32700D02*
X53600Y-32700D01*
X66300Y-32600D02*
X67000Y-32600D01*
X59500Y-32600D02*
X60700Y-32600D01*
X45500Y-32600D02*
X53600Y-32600D01*
X66300Y-32500D02*
X67000Y-32500D01*
X59400Y-32500D02*
X60800Y-32500D01*
X45500Y-32500D02*
X53600Y-32500D01*
X66200Y-32400D02*
X67000Y-32400D01*
X59400Y-32400D02*
X60800Y-32400D01*
X45500Y-32400D02*
X53600Y-32400D01*
X66100Y-32300D02*
X67000Y-32300D01*
X59300Y-32300D02*
X60900Y-32300D01*
X45500Y-32300D02*
X53600Y-32300D01*
X66000Y-32200D02*
X67000Y-32200D01*
X59400Y-32200D02*
X60900Y-32200D01*
X45500Y-32200D02*
X53600Y-32200D01*
X65900Y-32100D02*
X67000Y-32100D01*
X62100Y-32100D02*
X63100Y-32100D01*
X59400Y-32100D02*
X61100Y-32100D01*
X45500Y-32100D02*
X53600Y-32100D01*
X65800Y-32000D02*
X67000Y-32000D01*
X61900Y-32000D02*
X63100Y-32000D01*
X59500Y-32000D02*
X61300Y-32000D01*
X45500Y-32000D02*
X53600Y-32000D01*
X65800Y-31900D02*
X67000Y-31900D01*
X59500Y-31900D02*
X63100Y-31900D01*
X45500Y-31900D02*
X53600Y-31900D01*
X65700Y-31800D02*
X67000Y-31800D01*
X59500Y-31800D02*
X63100Y-31800D01*
X45500Y-31800D02*
X53600Y-31800D01*
X65700Y-31700D02*
X67000Y-31700D01*
X59500Y-31700D02*
X63100Y-31700D01*
X45500Y-31700D02*
X53600Y-31700D01*
X65500Y-31600D02*
X67000Y-31600D01*
X61900Y-31600D02*
X63100Y-31600D01*
X59500Y-31600D02*
X61300Y-31600D01*
X45500Y-31600D02*
X53600Y-31600D01*
X65300Y-31500D02*
X67000Y-31500D01*
X62100Y-31500D02*
X63100Y-31500D01*
X59500Y-31500D02*
X61100Y-31500D01*
X45500Y-31500D02*
X53600Y-31500D01*
X64900Y-31400D02*
X67000Y-31400D01*
X62300Y-31400D02*
X63100Y-31400D01*
X59500Y-31400D02*
X60900Y-31400D01*
X45500Y-31400D02*
X53600Y-31400D01*
X64900Y-31300D02*
X67000Y-31300D01*
X62300Y-31300D02*
X63100Y-31300D01*
X59500Y-31300D02*
X60900Y-31300D01*
X45500Y-31300D02*
X53600Y-31300D01*
X64900Y-31200D02*
X67000Y-31200D01*
X62400Y-31200D02*
X63100Y-31200D01*
X59500Y-31200D02*
X60800Y-31200D01*
X45500Y-31200D02*
X53600Y-31200D01*
X64900Y-31100D02*
X67000Y-31100D01*
X62400Y-31100D02*
X63100Y-31100D01*
X59500Y-31100D02*
X60800Y-31100D01*
X45500Y-31100D02*
X53600Y-31100D01*
X64900Y-31000D02*
X67000Y-31000D01*
X62500Y-31000D02*
X63100Y-31000D01*
X59500Y-31000D02*
X60700Y-31000D01*
X45500Y-31000D02*
X53600Y-31000D01*
X64900Y-30900D02*
X67000Y-30900D01*
X62500Y-30900D02*
X63100Y-30900D01*
X59500Y-30900D02*
X60700Y-30900D01*
X45500Y-30900D02*
X53600Y-30900D01*
X62500Y-30800D02*
X67000Y-30800D01*
X59500Y-30800D02*
X60700Y-30800D01*
X45500Y-30800D02*
X53600Y-30800D01*
X62500Y-30700D02*
X67000Y-30700D01*
X59500Y-30700D02*
X60700Y-30700D01*
X45500Y-30700D02*
X53600Y-30700D01*
X62500Y-30600D02*
X67000Y-30600D01*
X59500Y-30600D02*
X60700Y-30600D01*
X45500Y-30600D02*
X53600Y-30600D01*
X62400Y-30500D02*
X67000Y-30500D01*
X59500Y-30500D02*
X60800Y-30500D01*
X45500Y-30500D02*
X53600Y-30500D01*
X62400Y-30400D02*
X67000Y-30400D01*
X59500Y-30400D02*
X60800Y-30400D01*
X45500Y-30400D02*
X53600Y-30400D01*
X62400Y-30300D02*
X67000Y-30300D01*
X59500Y-30300D02*
X60900Y-30300D01*
X45500Y-30300D02*
X53600Y-30300D01*
X62500Y-30200D02*
X67000Y-30200D01*
X59500Y-30200D02*
X60900Y-30200D01*
X45500Y-30200D02*
X53600Y-30200D01*
X62800Y-30100D02*
X67000Y-30100D01*
X59500Y-30100D02*
X61000Y-30100D01*
X45500Y-30100D02*
X53600Y-30100D01*
X65000Y-30000D02*
X67000Y-30000D01*
X62800Y-30000D02*
X64000Y-30000D01*
X59500Y-30000D02*
X61000Y-30000D01*
X45500Y-30000D02*
X53600Y-30000D01*
X65200Y-29900D02*
X67000Y-29900D01*
X62800Y-29900D02*
X63800Y-29900D01*
X45500Y-29900D02*
X53700Y-29900D01*
X65300Y-29800D02*
X67000Y-29800D01*
X62800Y-29800D02*
X63700Y-29800D01*
X45500Y-29800D02*
X53700Y-29800D01*
X65400Y-29700D02*
X67000Y-29700D01*
X62800Y-29700D02*
X63600Y-29700D01*
X45500Y-29700D02*
X53800Y-29700D01*
X65500Y-29600D02*
X67000Y-29600D01*
X62800Y-29600D02*
X63500Y-29600D01*
X45500Y-29600D02*
X53900Y-29600D01*
X65600Y-29500D02*
X67000Y-29500D01*
X62800Y-29500D02*
X63400Y-29500D01*
X43900Y-29500D02*
X54100Y-29500D01*
X65600Y-29400D02*
X67000Y-29400D01*
X62800Y-29400D02*
X63400Y-29400D01*
X43900Y-29400D02*
X54200Y-29400D01*
X65700Y-29300D02*
X67000Y-29300D01*
X62800Y-29300D02*
X63300Y-29300D01*
X43900Y-29300D02*
X54300Y-29300D01*
X65700Y-29200D02*
X67000Y-29200D01*
X62800Y-29200D02*
X63300Y-29200D01*
X43900Y-29200D02*
X54400Y-29200D01*
X65700Y-29100D02*
X67000Y-29100D01*
X62800Y-29100D02*
X63300Y-29100D01*
X43900Y-29100D02*
X54500Y-29100D01*
X65700Y-29000D02*
X67000Y-29000D01*
X62800Y-29000D02*
X63300Y-29000D01*
X43900Y-29000D02*
X54600Y-29000D01*
X65700Y-28900D02*
X67000Y-28900D01*
X62800Y-28900D02*
X63300Y-28900D01*
X43900Y-28900D02*
X54700Y-28900D01*
X65700Y-28800D02*
X67000Y-28800D01*
X62800Y-28800D02*
X63300Y-28800D01*
X43900Y-28800D02*
X54800Y-28800D01*
X65700Y-28700D02*
X67000Y-28700D01*
X62800Y-28700D02*
X63300Y-28700D01*
X43900Y-28700D02*
X54900Y-28700D01*
X65700Y-28600D02*
X67000Y-28600D01*
X62800Y-28600D02*
X63300Y-28600D01*
X59900Y-28600D02*
X61000Y-28600D01*
X43900Y-28600D02*
X55100Y-28600D01*
X65700Y-28500D02*
X67000Y-28500D01*
X62800Y-28500D02*
X63300Y-28500D01*
X59800Y-28500D02*
X61000Y-28500D01*
X43900Y-28500D02*
X55200Y-28500D01*
X65600Y-28400D02*
X67000Y-28400D01*
X59700Y-28400D02*
X63400Y-28400D01*
X43900Y-28400D02*
X55300Y-28400D01*
X65600Y-28300D02*
X67000Y-28300D01*
X59600Y-28300D02*
X63400Y-28300D01*
X43900Y-28300D02*
X55400Y-28300D01*
X65500Y-28200D02*
X67000Y-28200D01*
X59400Y-28200D02*
X63500Y-28200D01*
X43900Y-28200D02*
X55500Y-28200D01*
X65400Y-28100D02*
X67000Y-28100D01*
X59300Y-28100D02*
X63600Y-28100D01*
X43900Y-28100D02*
X55600Y-28100D01*
X65300Y-28000D02*
X67000Y-28000D01*
X59200Y-28000D02*
X63700Y-28000D01*
X43800Y-28000D02*
X55700Y-28000D01*
X65200Y-27900D02*
X67000Y-27900D01*
X59100Y-27900D02*
X63800Y-27900D01*
X43800Y-27900D02*
X55800Y-27900D01*
X65000Y-27800D02*
X67000Y-27800D01*
X58900Y-27800D02*
X64000Y-27800D01*
X43700Y-27800D02*
X56000Y-27800D01*
X43700Y-27700D02*
X67000Y-27700D01*
X43600Y-27600D02*
X67000Y-27600D01*
X43500Y-27500D02*
X67000Y-27500D01*
X43400Y-27400D02*
X67000Y-27400D01*
X43300Y-27300D02*
X67000Y-27300D01*
X43200Y-27200D02*
X67000Y-27200D01*
X43100Y-27100D02*
X67000Y-27100D01*
X43000Y-27000D02*
X67000Y-27000D01*
X42900Y-26900D02*
X67000Y-26900D01*
X42800Y-26800D02*
X67000Y-26800D01*
X42700Y-26700D02*
X67000Y-26700D01*
X42600Y-26600D02*
X67000Y-26600D01*
X42500Y-26500D02*
X67000Y-26500D01*
X42500Y-26400D02*
X67000Y-26400D01*
X42500Y-26300D02*
X67000Y-26300D01*
X42500Y-26200D02*
X67000Y-26200D01*
X42500Y-26100D02*
X67000Y-26100D01*
X42500Y-26000D02*
X67000Y-26000D01*
X65200Y-25900D02*
X67000Y-25900D01*
X61700Y-25900D02*
X64600Y-25900D01*
X58200Y-25900D02*
X61100Y-25900D01*
X54700Y-25900D02*
X57600Y-25900D01*
X51200Y-25900D02*
X54100Y-25900D01*
X47700Y-25900D02*
X50600Y-25900D01*
X44200Y-25900D02*
X47100Y-25900D01*
X42500Y-25900D02*
X43600Y-25900D01*
X66800Y-25800D02*
X67000Y-25800D01*
X65700Y-25800D02*
X66200Y-25800D01*
X62200Y-25800D02*
X64100Y-25800D01*
X58700Y-25800D02*
X60600Y-25800D01*
X55200Y-25800D02*
X57100Y-25800D01*
X51700Y-25800D02*
X53600Y-25800D01*
X48200Y-25800D02*
X50100Y-25800D01*
X44700Y-25800D02*
X46600Y-25800D01*
X42500Y-25800D02*
X43100Y-25800D01*
X65700Y-25700D02*
X66000Y-25700D01*
X62200Y-25700D02*
X64100Y-25700D01*
X58700Y-25700D02*
X60600Y-25700D01*
X55200Y-25700D02*
X57100Y-25700D01*
X51700Y-25700D02*
X53600Y-25700D01*
X48200Y-25700D02*
X50100Y-25700D01*
X44700Y-25700D02*
X46600Y-25700D01*
X42500Y-25700D02*
X43100Y-25700D01*
X65700Y-25600D02*
X65800Y-25600D01*
X62200Y-25600D02*
X64100Y-25600D01*
X58700Y-25600D02*
X60600Y-25600D01*
X55200Y-25600D02*
X57100Y-25600D01*
X51700Y-25600D02*
X53600Y-25600D01*
X48200Y-25600D02*
X50100Y-25600D01*
X44700Y-25600D02*
X46600Y-25600D01*
X42500Y-25600D02*
X43100Y-25600D01*
X65700Y-25500D02*
X65800Y-25500D01*
X62200Y-25500D02*
X64100Y-25500D01*
X58700Y-25500D02*
X60600Y-25500D01*
X55200Y-25500D02*
X57100Y-25500D01*
X51700Y-25500D02*
X53600Y-25500D01*
X48200Y-25500D02*
X50100Y-25500D01*
X44700Y-25500D02*
X46600Y-25500D01*
X42500Y-25500D02*
X43100Y-25500D01*
X62200Y-25400D02*
X64100Y-25400D01*
X58700Y-25400D02*
X60600Y-25400D01*
X55200Y-25400D02*
X57100Y-25400D01*
X51700Y-25400D02*
X53600Y-25400D01*
X48200Y-25400D02*
X50100Y-25400D01*
X44700Y-25400D02*
X46600Y-25400D01*
X42500Y-25400D02*
X43100Y-25400D01*
X62300Y-25300D02*
X64000Y-25300D01*
X58800Y-25300D02*
X60500Y-25300D01*
X55300Y-25300D02*
X57000Y-25300D01*
X51800Y-25300D02*
X53500Y-25300D01*
X48300Y-25300D02*
X50000Y-25300D01*
X44800Y-25300D02*
X46500Y-25300D01*
X42500Y-25300D02*
X43000Y-25300D01*
X62300Y-25200D02*
X64000Y-25200D01*
X58800Y-25200D02*
X60500Y-25200D01*
X55300Y-25200D02*
X57000Y-25200D01*
X51800Y-25200D02*
X53500Y-25200D01*
X48300Y-25200D02*
X50000Y-25200D01*
X44800Y-25200D02*
X46500Y-25200D01*
X42500Y-25200D02*
X43000Y-25200D01*
X62300Y-25100D02*
X64000Y-25100D01*
X58800Y-25100D02*
X60500Y-25100D01*
X55300Y-25100D02*
X57000Y-25100D01*
X51800Y-25100D02*
X53500Y-25100D01*
X48300Y-25100D02*
X50000Y-25100D01*
X44800Y-25100D02*
X46500Y-25100D01*
X42500Y-25100D02*
X43000Y-25100D01*
M02*
